<svg xmlns="http://www.w3.org/2000/svg" height="260" width="649.9"><path style="fill:#5ca831" d="M200 99.6c0-1.2-3-2.1-6.5-2.1H6.5c-3.6 0-6.5 1-6.5 2.1v60.8c0 1.2 3 2.1 6.5 2.1h187c3.6 0 6.5-1 6.5-2.1V99.6"/><path style="font-size:36px;font-family:GillSans;fill:#fffffe" d="M-58.5 5.5c0-4.5-2.8-6.4-6.8-7.4l-2-.3c-2.6-.6-4.7-1.2-4.7-4.1 0-3.3 2.7-4.4 5.7-4.4 2.8 0 4.1.7 6.4 1.8v-3a21 21 0 0 0-6.7-1.2c-4.6 0-8 2.2-8 7 0 4.4 2.6 5.8 6.6 6.7l2 .4c2.7.7 4.8 1.6 4.8 4.7 0 3.4-3.2 4.6-6.1 4.6A13 13 0 0 1-74.6 8v3.3c2.3.8 4.8 1.5 7.3 1.5 4.9 0 8.8-1.8 8.8-7.2zM-41 4.1V4c0-4.8-1.8-8.2-7.2-8.3-4.8 0-7.5 4.2-7.5 8.7 0 4.9 3 8.4 8 8.4a17 17 0 0 0 6.2-1.2v-3c-2.5 1.3-3 1.6-6 1.6-3.4 0-5.4-2-5.4-6V4zM-43.4 2h-9.3c.3-2.2 1.9-4 4.6-4 2.8 0 4.7 1.8 4.7 4zm18.9 9.7V9c-1.8.9-2.5 1.4-4.8 1.4-4-.1-5.8-2.4-5.8-6.3 0-3.7 2-6.2 5.8-6.2 2.2.1 3 .5 4.8 1.4v-2.7c-1.5-.5-3-1-5-1-5.2 0-8.3 3.4-8.3 8.5s3 8.6 8.2 8.6a16 16 0 0 0 5.1-1zm18.3-7.6c0-4.1-2.3-8.5-7.7-8.5-5 0-7.6 3.8-7.7 8.5 0 4.5 3 8.5 7.7 8.6 4.9-.1 7.6-4 7.7-8.6zm-2.7 0c0 3.2-2 6.1-5 6.1-4 0-5-3.7-5-6.2 0-3.2 1.6-6 5-6 3.2 0 5 3 5 6.1zM12 12.2V2.4c0-3.8-1.7-6.8-5.8-6.8-2.2 0-4.3.8-5.6 2.6V-4H-2v16.2H.6V3.1C.7 0 2.6-2 5.6-2 8.3-2 9.2-.4 9.2 2.5v9.7zm3.8-8.1c0 4.8 3.2 8.1 8 8.1h7v-24.9H28V-4h-4c-5.2 0-8.2 3.3-8.2 8.1zm2.6 0c0-3.2 2-5.7 5.6-5.7h4V9.9h-4c-3.5 0-5.6-2.3-5.6-5.8zm29.8 8.1V3c0-4.7-2-7.4-6.9-7.4-1.7 0-3.9.6-5.4 1.1v2.7c1.6-1 3-1.5 5.2-1.5 2.6 0 4.6 1.3 4.6 4H42c-3.9 0-7.2 1.4-7.2 5.6 0 3.3 2 5.2 5.2 5.2a7 7 0 0 0 5.7-2.6v2.1zm-2.5-7.5c0 3.1-1.5 5.7-4.9 5.7-2 0-3.6-1-3.6-3 0-3.2 3-3.2 5.8-3.2h2.7zM62-.7l.8-2.6c-.4-.5-2.2-1-3.3-1-1.7.1-3.1 1-3.9 2.5V-4H53v16.2h2.7V3.6C55.6 1.1 57-2 59.4-2h.2c.9 0 1.5.5 2.4 1.2zM80.2-4h-2.5l-5 12L67-4h-2.6l7.1 14.6-2.8 6.5c-.4 1.1-2 2-2.7 2l1 1.8c1.3 0 2.7-1 3.6-2.4z" transform="translate(100 130)" aria-label="Secondary"/><path style="fill:#2a86c0" d="M425 99.6c0-1.2-3-2.1-6.5-2.1h-187c-3.6 0-6.5 1-6.5 2.1v60.8c0 1.2 3 2.1 6.5 2.1h187c3.6 0 6.5-1 6.5-2.1V99.6"/><path style="font-size:36px;font-family:GillSans;fill:#fff" d="M-40.1-5.5c0-5-2.9-7.4-7.8-7.4h-7V12h2.7V1.9h4.3c5 0 7.8-2.3 7.8-7.4zm-2.7 0c-.1 3.1-1.8 4.9-5 4.9h-4.4v-9.8h4.3c3.1 0 5 1.6 5 4.9zM-28.3-1l.8-2.6c-.4-.4-2.1-.9-3.3-.9-1.7 0-3 1-3.8 2.4v-2.2h-2.7V12h2.7V3.3c0-2.4 1.2-5.5 3.7-5.5h.2c.9 0 1.6.6 2.4 1.2zm6.3 13V-4.2h-2.7V12zm-1.4-25c-.8 0-1.6 1-1.6 1.8s.8 1.7 1.6 1.7c.9 0 1.6-.9 1.6-1.7 0-.9-.7-1.7-1.6-1.7zM7 12V2.2c0-3.5-1.2-6.8-5.2-6.8A6.9 6.9 0 0 0-4-1.4a5.5 5.5 0 0 0-5-3.2 7.3 7.3 0 0 0-5.4 2.5v-2.2h-2.7V12h2.7V2.8c0-2.9 1.9-5 4.5-5h.1c2.7 0 3.5 1.6 3.5 4.5V12h2.6V2.8c0-3 1.6-5 4.7-5 2.8 0 3.6 1.8 3.6 4.5V12zm17.4 0V2.7c0-4.6-2-7.3-6.9-7.3-1.7 0-3.9.5-5.4 1v2.7c1.6-.9 3-1.4 5.2-1.4 2.6 0 4.6 1.3 4.6 4H18c-3.7 0-7 1.3-7 5.5.1 3.4 2 5.2 5.3 5.2A7 7 0 0 0 22 10v2zm-2.5-7.6c0 3.2-1.5 5.8-5 5.8-1.9 0-3.5-1-3.5-3.1 0-3.2 3-3.2 5.8-3.2h2.7zM38.2-1l.8-2.6c-.4-.4-2.2-.9-3.4-.9-1.7 0-3 1-3.8 2.4v-2.2h-2.7V12h2.7V3.3c0-2.4 1.2-5.5 3.8-5.5h.2c.8 0 1.5.6 2.4 1.2zm18.2-3.2h-2.5L49 7.6 43-4.2h-2.5l7 14.5-2.7 6.6c-.5 1-2 2-2.7 2l1 1.8c1.3-.1 2.7-1 3.5-2.5z" transform="translate(325 130)" aria-label="Primary"/><path style="fill:#818181" d="M649.9 99.6c0-1.2-3-2.1-6.5-2.1h-187c-3.6 0-6.5 1-6.5 2.1v60.8c0 1.2 2.9 2.1 6.5 2.1h187c3.6 0 6.5-1 6.5-2.1V99.6"/><path style="font-size:36px;font-family:GillSans;fill:#fff" d="M-58.5 5.2c0-4.4-2.8-6.4-6.8-7.3l-2-.4c-2.6-.5-4.7-1.2-4.7-4 0-3.4 2.7-4.4 5.7-4.4 2.8 0 4.1.7 6.4 1.8v-3a21 21 0 0 0-6.7-1.2c-4.6 0-8 2.1-8 7 0 4.4 2.6 5.8 6.6 6.7l2 .4c2.7.7 4.8 1.6 4.8 4.7 0 3.4-3.2 4.6-6.1 4.6a13 13 0 0 1-7.3-2.4V11c2.3.7 4.8 1.5 7.3 1.5 4.9 0 8.8-1.8 8.8-7.3zM-41 3.9v-.3c0-4.7-1.8-8.1-7.2-8.2-4.8 0-7.5 4.1-7.5 8.6 0 5 3 8.4 8 8.4a17 17 0 0 0 6.2-1.2V8.5a9.5 9.5 0 0 1-6 1.5C-51 10-53 8-53 4.2v-.3zm-2.5-2.2h-9.3c.3-2.2 1.9-4 4.6-4 2.8 0 4.7 1.7 4.7 4zm19 9.7V8.8c-1.8.9-2.5 1.3-4.8 1.3-4 0-5.8-2.3-5.8-6.2 0-3.8 2-6.2 5.8-6.2 2.2 0 3 .4 4.8 1.3v-2.7c-1.5-.5-3-1-5-1-5.2 0-8.3 3.4-8.3 8.6 0 5 3 8.5 8.2 8.5a16 16 0 0 0 5.1-1zm18.3-7.5c0-4.1-2.3-8.5-7.7-8.5-5 0-7.6 3.7-7.7 8.5 0 4.4 3 8.5 7.7 8.5 4.9 0 7.6-4 7.7-8.5zm-2.7 0c0 3.2-2 6-5 6-4 0-5-3.6-5-6.1 0-3.2 1.6-6 5-6 3.2 0 5 3 5 6.1zM12 12V2.2c0-3.8-1.7-6.8-5.8-6.8C4-4.6 1.9-3.8.6-2v-2.3H-2V12H.6V2.8c.1-3 2-5 5-5 2.8 0 3.7 1.6 3.7 4.5V12zm3.8-8.1c0 4.8 3.2 8.1 8 8.1h7v-25H28v8.8h-4c-5.2 0-8.2 3.2-8.2 8.1zm2.6 0c0-3.2 2-5.8 5.6-5.8h4V9.6h-4c-3.5 0-5.6-2.2-5.6-5.7zM48.2 12V2.7c0-4.6-2-7.3-6.9-7.3-1.7 0-3.9.5-5.4 1v2.7c1.6-.9 3-1.4 5.2-1.4 2.6 0 4.6 1.3 4.6 4H42c-3.9 0-7.2 1.3-7.2 5.5 0 3.4 2 5.2 5.2 5.2a7 7 0 0 0 5.7-2.5V12zm-2.5-7.6c0 3.2-1.5 5.8-4.9 5.8-2 0-3.6-1-3.6-3.1 0-3.2 3-3.2 5.8-3.2h2.7zM62-1l.8-2.6c-.4-.4-2.2-.9-3.3-.9-1.7 0-3.1 1-3.9 2.4v-2.2H53V12h2.7V3.3c0-2.4 1.3-5.5 3.8-5.5h.2c.9 0 1.5.6 2.4 1.2zm18.2-3.2h-2.5l-5 11.8L67-4.2h-2.6l7.1 14.5-2.8 6.6c-.4 1-2 2-2.7 2l1 1.8c1.3-.1 2.7-1 3.6-2.5z" transform="translate(549.9 130)" aria-label="Secondary"/><path style="font-size:11px;font-family:GillSans-Light" d="M525.1 181.6v3.2h-1v-8.3h1v1q.3-.6.8-.9.5-.2 1.1-.2 1.1 0 1.8.8.7 1 .7 2.3 0 1.4-.7 2.3-.7.9-1.8.9-.6 0-1.1-.3-.5-.2-.8-.8zm3.4-2q0-1.2-.5-1.8-.4-.6-1.2-.6-.8 0-1.3.6-.4.6-.4 1.7t.4 1.7q.5.7 1.3.7t1.2-.7q.5-.6.5-1.7zm6.1-2.2-.4-.1h-.4q-.8 0-1.3.5-.4.5-.4 1.6v3.1h-1v-6h1v1q.3-.6.8-.9.5-.2 1.2-.2h.5zm1.1-.9h1v6h-1zm0-2.3h1v1.2h-1zm5.3 3q-.8 0-1.2.6-.5.6-.5 1.7t.5 1.7q.4.6 1.2.6.8 0 1.3-.6t.5-1.7q0-1-.5-1.7-.5-.6-1.3-.6zm0-.8q1.3 0 2 .8.8.8.8 2.3 0 1.5-.7 2.3-.8.9-2 .9-1.4 0-2-.9-.8-.8-.8-2.3 0-1.5.7-2.3.7-.8 2-.8zm8 1-.4-.1h-.5q-.8 0-1.3.5-.4.5-.4 1.6v3.1h-1v-6h1v1q.3-.6.8-.9.5-.2 1.2-.2h.5zm1-.9h1v6h-1zm0-2.3h1v1.2h-1zm4 .6v1.7h2v.8h-2v3.2q0 .8.2 1 .2.2.8.2h1v.8h-1q-1.1 0-1.6-.4-.4-.4-.4-1.6v-3.2h-.7v-.8h.7v-1.7zm5.8 8.2q-.4 1.2-.8 1.5-.4.3-1 .3h-.8v-.8h.5q.5 0 .7-.2l.5-1 .2-.4-2.5-5.9h1l2 4.7 1.8-4.7h1zm3.5-1.8h1.1v1.3h-1.1zm0-4.4h1.1v1.4h-1.1zm9.4-1.6q-.8 0-1.3.8-.4.9-.4 2.5 0 1.7.4 2.5.5.8 1.3.8t1.3-.8q.4-.8.4-2.5 0-1.6-.4-2.5-.5-.8-1.3-.8zm0-.8q1.3 0 2 1 .8 1.1.8 3.1t-.7 3.1q-.8 1-2.1 1t-2-1q-.8-1-.8-3 0-2.1.7-3.2.8-1 2.1-1z" transform="translate(-45 -10)" aria-label="priority: 0"/><path style="font-size:11px;font-family:GillSans-Light" d="M529 192.9v3.6h-1V193q0-.8-.4-1.3-.3-.4-1-.4t-1.2.5q-.5.5-.5 1.4v3.4h-1v-8.3h1v3.2q.4-.5.9-.8.4-.2 1-.2 1.1 0 1.6.6.6.6.6 1.9zm2-2.4h1v6h-1zm0-2.3h1v1.2h-1zm7 3.2v-3.2h1v8.3h-1v-.9q-.4.6-.8.8-.5.3-1.2.3-1 0-1.7-.9t-.7-2.3q0-1.4.7-2.3.6-.8 1.7-.8.7 0 1.2.2l.8.8zm-3.4 2.1q0 1.1.4 1.7.5.6 1.3.6t1.2-.6q.5-.6.5-1.7 0-1-.5-1.7-.4-.6-1.2-.6-.8 0-1.3.6-.4.6-.4 1.7zm10.4-2.1v-3.2h1v8.3h-1v-.9q-.4.6-.9.8-.4.3-1 .3-1.2 0-1.9-.9-.6-.9-.6-2.3t.6-2.3q.7-.8 1.8-.8.7 0 1.1.2.5.3.8.8zm-3.4 2.1q0 1.1.4 1.7.5.6 1.3.6.7 0 1.2-.6.4-.6.4-1.7 0-1-.4-1.7-.5-.6-1.2-.6-.8 0-1.3.6-.4.6-.4 1.7zm11.5-.2v.4h-4.5q0 1 .6 1.6.5.5 1.5.5l1.1-.1q.6-.1 1-.4v1l-1 .3h-1.1q-1.5 0-2.3-.8-.9-.8-.9-2.2 0-1.5.8-2.4.8-.8 2.2-.8 1.2 0 1.9.7.7.8.7 2.2zm-1-.3q0-.8-.4-1.3-.5-.5-1.2-.5-.8 0-1.3.5-.5.4-.6 1.3zm7.6-.1v3.6h-1V193q0-.8-.3-1.3-.3-.4-1-.4-.8 0-1.3.5-.4.5-.4 1.4v3.4h-1v-6h1v1q.3-.6.8-.9.5-.2 1.1-.2 1 0 1.6.6.5.6.5 1.9zm2.3 2.3h1v1.3h-1zm0-4.4h1v1.4h-1zm7.9-2v1.7h2v.8h-2v3.2q0 .8.2 1 .2.2.8.2h1v.8h-1q-1.1 0-1.6-.4-.4-.4-.4-1.6v-3.2h-.7v-.8h.7v-1.7zm6.8 2.6-.4-.1h-.4q-.8 0-1.3.5-.4.5-.4 1.5v3.2h-1v-6h1v1q.3-.6.8-.9.5-.2 1.2-.2h.5zm.9 2.7v-3.6h1v3.6q0 .9.4 1.3.3.4 1 .4.8 0 1.2-.5.5-.5.5-1.4v-3.4h1v6h-1v-1l-.8 1q-.5.2-1.2.2-1 0-1.5-.7-.6-.6-.6-1.9zm2.5-3.7zm9.8 2.9v.4h-4.6q0 1 .6 1.6.6.5 1.6.5l1-.1q.6-.1 1.1-.4v1l-1 .3h-1.2q-1.4 0-2.3-.8-.8-.8-.8-2.2 0-1.5.8-2.4.8-.8 2.1-.8 1.2 0 2 .7.7.8.7 2.2zm-1-.3q0-.8-.5-1.3-.4-.5-1.2-.5-.8 0-1.3.5-.5.4-.6 1.3z" transform="translate(-45 -10)" aria-label="hidden: true"/><path style="font-size:11px;font-family:GillSans-Light" d="M528.3 202.9v.9l-.8-.3-1-.1q-.7 0-1 .2-.4.2-.4.7 0 .3.2.5l1 .4h.4q1 .3 1.5.7.5.4.5 1.1 0 .9-.7 1.4-.7.5-1.8.5l-1-.1-1.1-.3v-1l1 .4 1.1.1q.7 0 1-.2.4-.2.4-.7 0-.4-.2-.6l-1.2-.4-.4-.1q-.9-.2-1.3-.6-.4-.4-.4-1 0-1 .6-1.4.6-.5 1.7-.5l1 .1 1 .3zm7.1 2.5v.5h-4.6q.1 1 .7 1.6.5.5 1.5.5l1-.1 1.2-.4v.9l-1.1.3-1.2.2q-1.4 0-2.3-.9-.8-.8-.8-2.2 0-1.5.8-2.4.8-.9 2.2-.9 1.2 0 1.9.8t.7 2.1zm-1-.2q0-.9-.5-1.3-.4-.5-1.1-.5-.9 0-1.4.4-.5.5-.5 1.4zm6.9-2.2v.8l-.8-.3-.9-.1q-1 0-1.4.6-.6.6-.6 1.7t.6 1.7q.5.6 1.4.6h.9l.8-.4v.9l-.8.3h-1q-1.3 0-2.1-.8-.8-.9-.8-2.3 0-1.5.8-2.3.8-.9 2.2-.9l.9.1.8.3zm4.1.4q-.8 0-1.3.6-.4.6-.4 1.7 0 1 .4 1.7.5.6 1.3.6t1.2-.6q.5-.6.5-1.7 0-1-.5-1.7-.4-.6-1.2-.6zm0-.9q1.3 0 2 .9.7.8.7 2.3 0 1.5-.7 2.3-.7.9-2 .9t-2-.9q-.8-.8-.8-2.3 0-1.5.8-2.3.7-.9 2-.9zm9.4 2.5v3.7h-1v-3.6q0-.9-.3-1.3-.4-.4-1-.4-.8 0-1.3.5t-.5 1.4v3.4h-1v-6h1v1q.4-.6.9-.9.5-.3 1-.3 1.1 0 1.7.7.5.6.5 1.9zm5.9-1.4v-3.3h1v8.4h-1v-.9q-.3.5-.8.8-.4.3-1.1.3-1.1 0-1.8-1-.7-.8-.7-2.2 0-1.4.7-2.3.7-.9 1.8-.9.7 0 1.1.3.5.3.8.8zm-3.4 2.1q0 1 .5 1.7.4.6 1.2.6.8 0 1.3-.6.4-.6.4-1.7 0-1-.4-1.7-.5-.6-1.3-.6t-1.2.6q-.5.6-.5 1.7zm9.2 0q-1.2 0-1.7.3-.4.2-.4.9 0 .5.3.8.3.3 1 .3.8 0 1.3-.6.5-.5.5-1.5v-.2zm2-.4v3.4h-1v-1q-.4.6-.9.9-.5.3-1.2.3-1 0-1.5-.6-.5-.5-.5-1.3 0-1 .6-1.6.7-.5 2-.5h1.5q0-.8-.5-1.1-.4-.4-1.3-.4l-1 .1-.9.4v-1l1-.3h1q1.4 0 2 .6.6.7.6 2zm5.5-1.7-.4-.1h-.4q-.9 0-1.3.5-.5.5-.5 1.5v3.2h-1v-6h1v1q.3-.6.8-.9.5-.3 1.3-.3h.5zm3.5 5.7q-.4 1-.8 1.4-.4.3-1 .3h-.9v-.8h.6q.4 0 .6-.2.3-.2.5-1l.2-.4-2.4-6h1l2 4.8 1.8-4.7h1zm5.1-7.7v6.2h1.3q1.7 0 2.5-.7.8-.8.8-2.4 0-1.6-.8-2.4-.8-.7-2.5-.7zm-1-1h2.2q2.3 0 3.4 1 1 1 1 3 0 2.2-1 3.1-1.1 1-3.4 1h-2.2zm13.5 4.8v.5h-4.5q0 1 .6 1.6.5.5 1.5.5l1.1-.1 1.1-.4v.9l-1 .3-1.2.2q-1.5 0-2.3-.9-.8-.8-.8-2.2 0-1.5.7-2.4.8-.9 2.2-.9 1.2 0 2 .8.6.8.6 2.1zm-1-.2q0-.9-.4-1.3-.5-.5-1.2-.5-.8 0-1.3.4-.5.5-.6 1.4zm2.6-4.9h1v8.4h-1zm5.8 5.4q-1.2 0-1.6.3-.5.2-.5.9 0 .5.4.8.3.3 1 .3t1.2-.6q.5-.5.5-1.5v-.2zm2-.4v3.4h-1v-1q-.3.6-.8.9-.5.3-1.3.3-.9 0-1.4-.6-.6-.5-.6-1.3 0-1 .7-1.6.7-.5 2-.5h1.4q0-.8-.4-1.1-.5-.4-1.3-.4l-1 .1-1 .4v-1l1.1-.3h1q1.3 0 2 .6.6.7.6 2zm4.5 4q-.4 1-.8 1.4-.4.3-1 .3h-.8v-.8h.6q.4 0 .6-.2l.5-1 .2-.4-2.5-6h1l2 4.8 1.8-4.7h1zm9-8.3v1l-1.3-.4-1-.2q-.9 0-1.4.4-.5.3-.5 1 0 .5.4.7.3.3 1.2.5l.6.1q1.2.2 1.8.8.6.6.6 1.6 0 1.2-.8 1.8-.8.6-2.3.6l-1.2-.2-1.3-.4v-1l1.3.5 1.2.2q1 0 1.5-.4t.5-1q0-.6-.4-1-.4-.3-1.2-.5h-.7q-1.2-.3-1.7-.8-.6-.6-.6-1.5 0-1 .8-1.7.7-.6 2-.6l1.2.1 1.2.3zm7.2 4.4v.5h-4.6q.1 1 .7 1.6.5.5 1.5.5l1-.1 1.2-.4v.9l-1.1.3-1.2.2q-1.4 0-2.3-.9-.8-.8-.8-2.2 0-1.5.8-2.4.8-.9 2.2-.9 1.2 0 1.9.8t.7 2.1zm-1-.2q0-.9-.5-1.3-.4-.5-1.1-.5-.9 0-1.4.4-.5.5-.5 1.4zm6.9-2.2v.8l-.8-.3-.9-.1q-1 0-1.5.6t-.5 1.7q0 1.1.5 1.7.6.6 1.5.6h.9l.8-.4v.9l-.8.3h-1q-1.3 0-2.1-.8-.8-.9-.8-2.3 0-1.5.8-2.3.8-.9 2.2-.9l.9.1.8.3zm5.6-.1v.9l-.9-.3-1-.1q-.7 0-1 .2-.4.2-.4.7 0 .3.3.5.2.2 1 .4h.4q1 .3 1.5.7.4.4.4 1.1 0 .9-.7 1.4-.6.5-1.8.5l-1-.1-1-.3v-1l1 .4 1 .1q.7 0 1.1-.2.4-.2.4-.7 0-.4-.3-.6-.2-.2-1.2-.4l-.3-.1q-1-.2-1.3-.6-.4-.4-.4-1 0-1 .6-1.4.6-.5 1.7-.5l1 .1.9.3zm2.1 4.4h1.2v1.4h-1.2zm0-4.3h1.2v1.4h-1.2zm10.4 1.4q.8.1 1.2.7.5.5.5 1.3 0 1.2-.8 1.8-.9.7-2.4.7l-1-.1-1.1-.3v-1l1 .3 1.1.1q1 0 1.6-.4.5-.4.5-1.1 0-.7-.5-1.1-.5-.4-1.4-.4h-1v-1h1q.9 0 1.3-.2.4-.4.4-1t-.4-1q-.5-.2-1.3-.2h-1l-1 .3v-1l1-.2h1.1q1.2 0 2 .5.7.6.7 1.5 0 .7-.4 1.1-.4.5-1 .7zm6.2-.1q-.8 0-1.2.5-.4.5-.4 1.3 0 .9.4 1.4.4.5 1.2.5.7 0 1.1-.5.5-.5.5-1.4 0-.8-.5-1.3-.4-.5-1.1-.5zm2.1-3.4v1l-.8-.3-.8-.1q-1 0-1.7.7-.5.7-.6 2.2.3-.5.8-.7.5-.3 1-.3 1.3 0 2 .7.7.8.7 2 0 1.3-.8 2-.7.8-2 .8t-2-1.1q-.8-1-.8-3.1 0-1.9 1-3 .8-1.2 2.3-1.2l.9.1.8.3zm4.7.5q-.8 0-1.2.8-.4.8-.4 2.5 0 1.6.4 2.5.4.8 1.2.8.9 0 1.3-.8.4-.9.4-2.5 0-1.7-.4-2.5t-1.3-.8zm0-.9q1.4 0 2.1 1.1.7 1 .7 3.1 0 2-.7 3-.7 1.2-2 1.2-1.4 0-2.1-1.1-.7-1-.7-3.1 0-2 .7-3 .7-1.2 2-1.2zm7 .9q-.8 0-1.2.8-.4.8-.4 2.5 0 1.6.4 2.5.4.8 1.2.8.9 0 1.3-.8.4-.9.4-2.5 0-1.7-.4-2.5t-1.3-.8zm0-.9q1.4 0 2.1 1.1.7 1 .7 3.1 0 2-.7 3-.7 1.2-2 1.2-1.4 0-2.1-1.1-.7-1-.7-3.1 0-2 .7-3 .7-1.2 2-1.2z" transform="translate(-45 -10)" aria-label="secondaryDelaySecs: 3600"/><path style="fill:#5ca831" d="M470 12.1c0-1.2-3-2.1-6.5-2.1h-187c-3.6 0-6.5 1-6.5 2.1V73c0 1.2 3 2.1 6.5 2.1h187c3.6 0 6.5-1 6.5-2.1V12" transform="translate(-45 -10)"/><path style="font-size:36px;font-family:GillSans;fill:#fffffe" d="M-58.5 5.2c0-4.4-2.8-6.4-6.8-7.3l-2-.4c-2.6-.5-4.7-1.2-4.7-4 0-3.4 2.7-4.4 5.7-4.4 2.8 0 4.1.7 6.4 1.8v-3a21 21 0 0 0-6.7-1.2c-4.6 0-8 2.1-8 7 0 4.4 2.6 5.8 6.6 6.7l2 .4c2.7.7 4.8 1.6 4.8 4.7 0 3.4-3.2 4.6-6.1 4.6a13 13 0 0 1-7.3-2.4V11c2.3.7 4.8 1.5 7.3 1.5 4.9 0 8.8-1.8 8.8-7.3zM-41 3.9v-.3c0-4.7-1.8-8.1-7.2-8.2-4.8 0-7.5 4.1-7.5 8.6 0 5 3 8.4 8 8.4a17 17 0 0 0 6.2-1.2V8.5a9.5 9.5 0 0 1-6 1.5C-51 10-53 8-53 4.2v-.3zm-2.5-2.2h-9.3c.3-2.2 1.9-4 4.6-4 2.8 0 4.7 1.7 4.7 4zm19 9.7V8.8c-1.8.9-2.5 1.3-4.8 1.3-4 0-5.8-2.3-5.8-6.2 0-3.8 2-6.2 5.8-6.2 2.2 0 3 .4 4.8 1.3v-2.7c-1.5-.5-3-1-5-1-5.2 0-8.3 3.4-8.3 8.6 0 5 3 8.5 8.2 8.5a16 16 0 0 0 5.1-1zm18.3-7.5c0-4.1-2.3-8.5-7.7-8.5-5 0-7.6 3.7-7.7 8.5 0 4.4 3 8.5 7.7 8.5 4.9 0 7.6-4 7.7-8.5zm-2.7 0c0 3.2-2 6-5 6-4 0-5-3.6-5-6.1 0-3.2 1.6-6 5-6 3.2 0 5 3 5 6.1zM12 12V2.2c0-3.8-1.7-6.8-5.8-6.8C4-4.6 1.9-3.8.6-2v-2.3H-2V12H.6V2.8c.1-3 2-5 5-5 2.8 0 3.7 1.6 3.7 4.5V12zm3.8-8.1c0 4.8 3.2 8.1 8 8.1h7v-25H28v8.8h-4c-5.2 0-8.2 3.2-8.2 8.1zm2.6 0c0-3.2 2-5.8 5.6-5.8h4V9.6h-4c-3.5 0-5.6-2.2-5.6-5.7zM48.2 12V2.7c0-4.6-2-7.3-6.9-7.3-1.7 0-3.9.5-5.4 1v2.7c1.6-.9 3-1.4 5.2-1.4 2.6 0 4.6 1.3 4.6 4H42c-3.9 0-7.2 1.3-7.2 5.5 0 3.4 2 5.2 5.2 5.2a7 7 0 0 0 5.7-2.5V12zm-2.5-7.6c0 3.2-1.5 5.8-4.9 5.8-2 0-3.6-1-3.6-3.1 0-3.2 3-3.2 5.8-3.2h2.7zM62-1l.8-2.6c-.4-.4-2.2-.9-3.3-.9-1.7 0-3.1 1-3.9 2.4v-2.2H53V12h2.7V3.3c0-2.4 1.3-5.5 3.8-5.5h.2c.9 0 1.5.6 2.4 1.2zm18.2-3.2h-2.5l-5 11.8L67-4.2h-2.6l7.1 14.5-2.8 6.6c-.4 1-2 2-2.7 2l1 1.8c1.3-.1 2.7-1 3.6-2.5z" transform="translate(325 32.5)" aria-label="Secondary"/><path style="fill:#5ca831" d="M470 207.1c0-1.2-3-2.1-6.5-2.1h-187c-3.6 0-6.5 1-6.5 2.1V268c0 1.2 3 2.1 6.5 2.1h187c3.6 0 6.5-1 6.5-2.1v-61" transform="translate(-45 -10)"/><path style="font-size:36px;font-family:GillSans;fill:#fffffe" d="M-58.5 5.2c0-4.4-2.8-6.4-6.8-7.3l-2-.4c-2.6-.5-4.7-1.2-4.7-4 0-3.4 2.7-4.4 5.7-4.4 2.8 0 4.1.7 6.4 1.8v-3a21 21 0 0 0-6.7-1.2c-4.6 0-8 2.1-8 7 0 4.4 2.6 5.8 6.6 6.7l2 .4c2.7.7 4.8 1.6 4.8 4.7 0 3.4-3.2 4.6-6.1 4.6a13 13 0 0 1-7.3-2.4V11c2.3.7 4.8 1.5 7.3 1.5 4.9 0 8.8-1.8 8.8-7.3zM-41 3.9v-.3c0-4.7-1.8-8.1-7.2-8.2-4.8 0-7.5 4.1-7.5 8.6 0 5 3 8.4 8 8.4a17 17 0 0 0 6.2-1.2V8.5a9.5 9.5 0 0 1-6 1.5C-51 10-53 8-53 4.2v-.3zm-2.5-2.2h-9.3c.3-2.2 1.9-4 4.6-4 2.8 0 4.7 1.7 4.7 4zm19 9.7V8.8c-1.8.9-2.5 1.3-4.8 1.3-4 0-5.8-2.3-5.8-6.2 0-3.8 2-6.2 5.8-6.2 2.2 0 3 .4 4.8 1.3v-2.7c-1.5-.5-3-1-5-1-5.2 0-8.3 3.4-8.3 8.6 0 5 3 8.5 8.2 8.5a16 16 0 0 0 5.1-1zm18.3-7.5c0-4.1-2.3-8.5-7.7-8.5-5 0-7.6 3.7-7.7 8.5 0 4.4 3 8.5 7.7 8.5 4.9 0 7.6-4 7.7-8.5zm-2.7 0c0 3.2-2 6-5 6-4 0-5-3.6-5-6.1 0-3.2 1.6-6 5-6 3.2 0 5 3 5 6.1zM12 12V2.2c0-3.8-1.7-6.8-5.8-6.8C4-4.6 1.9-3.8.6-2v-2.3H-2V12H.6V2.8c.1-3 2-5 5-5 2.8 0 3.7 1.6 3.7 4.5V12zm3.8-8.1c0 4.8 3.2 8.1 8 8.1h7v-25H28v8.8h-4c-5.2 0-8.2 3.2-8.2 8.1zm2.6 0c0-3.2 2-5.8 5.6-5.8h4V9.6h-4c-3.5 0-5.6-2.2-5.6-5.7zM48.2 12V2.7c0-4.6-2-7.3-6.9-7.3-1.7 0-3.9.5-5.4 1v2.7c1.6-.9 3-1.4 5.2-1.4 2.6 0 4.6 1.3 4.6 4H42c-3.9 0-7.2 1.3-7.2 5.5 0 3.4 2 5.2 5.2 5.2a7 7 0 0 0 5.7-2.5V12zm-2.5-7.6c0 3.2-1.5 5.8-4.9 5.8-2 0-3.6-1-3.6-3.1 0-3.2 3-3.2 5.8-3.2h2.7zM62-1l.8-2.6c-.4-.4-2.2-.9-3.3-.9-1.7 0-3.1 1-3.9 2.4v-2.2H53V12h2.7V3.3c0-2.4 1.3-5.5 3.8-5.5h.2c.9 0 1.5.6 2.4 1.2zm18.2-3.2h-2.5l-5 11.8L67-4.2h-2.6l7.1 14.5-2.8 6.6c-.4 1-2 2-2.7 2l1 1.8c1.3-.1 2.7-1 3.6-2.5z" transform="translate(325 227.5)" aria-label="Secondary"/></svg>