<?xml version="1.0" encoding="UTF-8"?>
<!DOCTYPE svg PUBLIC "-//W3C//DTD SVG 1.1//EN" "http://www.w3.org/Graphics/SVG/1.1/DTD/svg11.dtd">
<svg version="1.1" xmlns="http://www.w3.org/2000/svg" xmlns:xlink="http://www.w3.org/1999/xlink" x="0px" y="0px" width="460" height="320" viewBox="0, 0, 460, 320">
  <g id="Layer 1">
    <path d="M22.061,61.915 C22.061,63.018 23.371,63.911 24.988,63.911 L194.135,63.911 C195.752,63.911 197.061,63.018 197.061,61.915 L197.061,20.908 C197.061,19.805 195.752,18.911 194.135,18.911 L24.988,18.911 C23.371,18.911 22.061,19.805 22.061,20.908 L22.061,61.915" fill="#5A5955"/>
    <text transform="matrix(1, 0, 0, 1, 109.561, 41.411)">
      <tspan x="-35.29" y="6.68" font-family="GillSans" font-size="24" fill="#FFFFFE">Dri</tspan>
      <tspan x="-2.525" y="6.68" font-family="GillSans" font-size="24" fill="#FFFFFE">v</tspan>
      <tspan x="7.507" y="6.68" font-family="GillSans" font-size="24" fill="#FFFFFE">e</tspan>
      <tspan x="19.003" y="6.68" font-family="GillSans" font-size="24" fill="#FFFFFE">r</tspan>
    </text>
    <text transform="matrix(1, 0, 0, 1, 112.86, 238.41)">
      <tspan x="-39.689" y="7.5" font-family="GillSans" font-size="24" fill="#FFFFFE">Primary</tspan>
    </text>
    <g>
      <path d="M197.061,229.784 C197.061,228.977 194.519,228.323 191.377,228.323 L27.746,228.323 C24.607,228.323 22.061,228.977 22.061,229.784 L22.061,271.861 C22.061,272.668 24.607,273.323 27.746,273.323 L191.377,273.323 C194.519,273.323 197.061,272.668 197.061,271.861 L197.061,229.784" fill="#2A86C0"/>
      <text transform="matrix(1, 0, 0, 1, 118.661, 252.034)">
        <tspan x="-43.832" y="6.168" font-family="GillSans" font-size="24" fill="#FFFFFF">mongod</tspan>
      </text>
    </g>
    <g>
      <path d="M222.665,253.41 C222.557,295.645 277.085,301.886 290.334,269.442" fill-opacity="0" stroke="#3299CC" stroke-width="4"/>
      <path d="M295.059,270.289 L292.593,256.843 L285.61,268.595 z" fill="#3299CC" fill-opacity="1" stroke="#3299CC" stroke-width="4" stroke-opacity="1"/>
    </g>
    <text transform="matrix(1, 0, 0, 1, 257.541, 298.363)">
      <tspan x="-28.576" y="7.5" font-family="GillSans" font-size="24" fill="#3299CC">Apply</tspan>
    </text>
    <path d="M198.439,42.22 L448.439,42.22" fill-opacity="0" stroke="#5A5955" stroke-width="4"/>
    <path d="M199.316,253.41 L449.316,253.41" fill-opacity="0" stroke="#3299CC" stroke-width="4"/>
    <text transform="matrix(-0, 1, -1, -0, 231.853, 148.586)">
      <tspan x="-31.619" y="5.166" font-family="GillSans" font-size="24" fill="#3299CC">Write</tspan>
    </text>
    <g>
      <path d="M220.687,49.128 L221.864,232.645" fill-opacity="0" stroke="#3299CC" stroke-width="4"/>
      <path d="M217.064,232.675 L221.946,245.444 L226.663,232.614 z" fill="#3299CC" fill-opacity="1" stroke="#3299CC" stroke-width="4" stroke-opacity="1"/>
    </g>
    <text transform="matrix(-0, 1, -1, -0, 199.528, 150.516)">
      <tspan x="-61.662" y="-6.5" font-family="Inconsolata" font-size="18" fill="#3299CC">writeConcern:</tspan>
      <tspan x="-61.662" y="13.5" font-family="Inconsolata" font-size="18" fill="#3299CC">  { w: 0 }</tspan>
    </text>
  </g>
  <defs/>
</svg>
