<?xml version="1.0" encoding="UTF-8"?>
<!DOCTYPE svg PUBLIC "-//W3C//DTD SVG 1.1//EN" "http://www.w3.org/Graphics/SVG/1.1/DTD/svg11.dtd">
<svg version="1.1" xmlns="http://www.w3.org/2000/svg" xmlns:xlink="http://www.w3.org/1999/xlink" x="0" y="0" width="620" height="120" viewBox="0, 0, 620, 120">
  <g id="Layer_1">
    <g>
      <g>
        <path d="M494.75,23.891 L451.823,23.691" fill-opacity="0" stroke="#5CA831" stroke-width="2"/>
        <g>
          <path d="M451.84,20.092 L442.223,23.647 L451.807,27.291 z" fill="#5CA831"/>
          <path d="M451.84,20.092 L442.223,23.647 L451.807,27.291 z" fill-opacity="0" stroke="#5CA831" stroke-width="2"/>
        </g>
      </g>
      <text transform="matrix(1, 0, 0, 1, 532.73, 21.5)">
        <tspan x="-23.996" y="7.5" font-family="GillSans" font-size="24" fill="#2A86C0">table</tspan>
      </text>
    </g>
    <g>
      <g>
        <path d="M494.75,47.73 L451.823,47.531" fill-opacity="0" stroke="#5CA831" stroke-width="2"/>
        <g>
          <path d="M451.84,43.931 L442.223,47.487 L451.807,51.131 z" fill="#5CA831"/>
          <path d="M451.84,43.931 L442.223,47.487 L451.807,51.131 z" fill-opacity="0" stroke="#5CA831" stroke-width="2"/>
        </g>
      </g>
      <text transform="matrix(1, 0, 0, 1, 549.611, 47.104)">
        <tspan x="-40.877" y="7.5" font-family="GillSans" font-size="24" fill="#2A86C0">columns</tspan>
      </text>
    </g>
    <g>
      <path d="M494.75,72.957 L451.823,72.758" fill-opacity="0" stroke="#5CA831" stroke-width="2"/>
      <g>
        <path d="M451.84,69.158 L442.223,72.713 L451.807,76.358 z" fill="#5CA831"/>
        <path d="M451.84,69.158 L442.223,72.713 L451.807,76.358 z" fill-opacity="0" stroke="#5CA831" stroke-width="2"/>
      </g>
    </g>
    <g>
      <text transform="matrix(1, 0, 0, 1, 541.976, 72.043)">
        <tspan x="-33.242" y="7.5" font-family="GillSans" font-size="24" fill="#2A86C0">values/</tspan>
      </text>
      <text transform="matrix(1, 0, 0, 1, 594.306, 72.043)">
        <tspan x="-20.088" y="7.5" font-family="GillSans" font-size="24" fill="#2F1D12">row</tspan>
      </text>
    </g>
    <g>
      <text transform="matrix(1, 0, 0, 1, 81.305, 19.5)">
        <tspan x="-66.5" y="7.5" font-family="Inconsolata" font-size="24" fill="#053056">INSERT INTO</tspan>
      </text>
      <text transform="matrix(1, 0, 0, 1, 189.305, 19.5)">
        <tspan x="-30.5" y="7.5" font-family="Inconsolata" font-size="24" fill="#2A86C0">users </tspan>
      </text>
      <text transform="matrix(1, 0, 0, 1, 285.305, 45.5)">
        <tspan x="-126.5" y="7.5" font-family="Inconsolata" font-size="24" fill="#2A86C0">( name, age, status ) </tspan>
      </text>
      <text transform="matrix(1, 0, 0, 1, 51.305, 71.5)">
        <tspan x="-36.5" y="7.5" font-family="Inconsolata" font-size="24" fill="#053056">VALUES </tspan>
      </text>
      <text transform="matrix(1, 0, 0, 1, 267.305, 71.5)">
        <tspan x="-108.5" y="7.5" font-family="Inconsolata" font-size="24" fill="#2A86C0">( "sue", 26, "A" )</tspan>
      </text>
    </g>
  </g>
</svg>
