<?xml version="1.0" encoding="UTF-8"?>
<!DOCTYPE svg PUBLIC "-//W3C//DTD SVG 1.1//EN" "http://www.w3.org/Graphics/SVG/1.1/DTD/svg11.dtd">
<svg version="1.1" xmlns="http://www.w3.org/2000/svg" xmlns:xlink="http://www.w3.org/1999/xlink" x="0" y="0" width="740" height="240" viewBox="0, 0, 740, 240">
  <g id="Layer_1">
    <text transform="matrix(1, 0, 0, 1, 91.656, 24.93)">
      <tspan x="-71.146" y="7.5" font-family="GillSans" font-size="24" fill="#412818">Data Center 1</tspan>
    </text>
    <text transform="matrix(1, 0, 0, 1, 572.159, 24.636)">
      <tspan x="-71.146" y="7.5" font-family="GillSans" font-size="24" fill="#412818">Data Center 3</tspan>
    </text>
    <path d="M500.294,38.43 L722,38.43 L722,208 L500.294,208 z" fill-opacity="0" stroke="#3F2615" stroke-width="4"/>
    <path d="M259.147,38.573 L480.853,38.573 L480.853,207.858 L259.147,207.858 z" fill-opacity="0" stroke="#3F2615" stroke-width="4"/>
    <text transform="matrix(1, 0, 0, 1, 331.805, 25.215)">
      <tspan x="-71.146" y="7.5" font-family="GillSans" font-size="24" fill="#412818">Data Center 2</tspan>
    </text>
    <path d="M18.147,38.43 L239.853,38.43 L239.853,208 L18.147,208 z" fill-opacity="0" stroke="#3F2615" stroke-width="4"/>
    <g>
      <g>
        <path d="M229,46.985 C229,45.819 226.094,44.875 222.504,44.875 L35.496,44.875 C31.91,44.875 29,45.819 29,46.985 L29,107.763 C29,108.929 31.91,109.875 35.496,109.875 L222.504,109.875 C226.094,109.875 229,108.929 229,107.763 L229,46.985" fill="#3299CC"/>
        <text transform="matrix(1, 0, 0, 1, 129.5, 77.375)">
          <tspan x="-57.857" y="12" font-family="GillSans" font-size="36" fill="#FFFFFF">Primary</tspan>
        </text>
      </g>
      <text transform="matrix(1, 0, 0, 1, 129.5, 100.375)">
        <tspan x="-24.201" y="3.5" font-family="GillSans" font-size="12" fill="#3E2D1B">priority: 1</tspan>
      </text>
    </g>
    <g>
      <g>
        <path d="M470,126.825 C470,125.66 467.094,124.715 463.504,124.715 L276.496,124.715 C272.91,124.715 270,125.66 270,126.825 L270,187.603 C270,188.769 272.91,189.715 276.496,189.715 L463.504,189.715 C467.094,189.715 470,188.769 470,187.603 L470,126.825" fill="#6CB340"/>
        <text transform="matrix(1, 0, 0, 1, 370.5, 157.215)">
          <tspan x="-76.587" y="12" font-family="GillSans" font-size="36" fill="#FFFFFE">Secondary</tspan>
        </text>
      </g>
      <text transform="matrix(1, 0, 0, 1, 370, 179)">
        <tspan x="-28.576" y="3.5" font-family="GillSans" font-size="12" fill="#3E2D1B">priority: 0.5</tspan>
      </text>
    </g>
    <g>
      <g>
        <path d="M229,123.61 C229,122.444 226.094,121.5 222.504,121.5 L35.496,121.5 C31.91,121.5 29,122.444 29,123.61 L29,184.388 C29,185.554 31.91,186.5 35.496,186.5 L222.504,186.5 C226.094,186.5 229,185.554 229,184.388 L229,123.61" fill="#6CB340"/>
        <text transform="matrix(1, 0, 0, 1, 129.5, 154)">
          <tspan x="-76.587" y="12" font-family="GillSans" font-size="36" fill="#FFFFFE">Secondary</tspan>
        </text>
      </g>
      <text transform="matrix(1, 0, 0, 1, 129.5, 177)">
        <tspan x="-24.201" y="3.5" font-family="GillSans" font-size="12" fill="#3E2D1B">priority: 1</tspan>
      </text>
    </g>
    <g>
      <path d="M711.147,126.825 C711.147,125.66 708.241,124.715 704.651,124.715 L517.643,124.715 C514.057,124.715 511.147,125.66 511.147,126.825 L511.147,187.603 C511.147,188.769 514.057,189.715 517.643,189.715 L704.651,189.715 C708.241,189.715 711.147,188.769 711.147,187.603 L711.147,126.825" fill="#B2B2B2"/>
      <text transform="matrix(1, 0, 0, 1, 611.647, 157.215)">
        <tspan x="-76.587" y="12" font-family="GillSans" font-size="36" fill="#FFFFFE">Secondary</tspan>
      </text>
      <text transform="matrix(1, 0, 0, 1, 618.647, 179)">
        <tspan x="-31.201" y="3.5" font-family="GillSans" font-size="12" fill="#000000">priority: 0</tspan>
      </text>
    </g>
    <g>
      <g>
        <path d="M470,46.985 C470,45.82 467.094,44.875 463.504,44.875 L276.496,44.875 C272.91,44.875 270,45.82 270,46.985 L270,107.763 C270,108.929 272.91,109.875 276.496,109.875 L463.504,109.875 C467.094,109.875 470,108.929 470,107.763 L470,46.985" fill="#6CB340"/>
        <text transform="matrix(1, 0, 0, 1, 370.926, 80)">
          <tspan x="-76.587" y="12" font-family="GillSans" font-size="36" fill="#FFFFFE">Secondary</tspan>
        </text>
      </g>
      <text transform="matrix(1, 0, 0, 1, 370, 102.375)">
        <tspan x="-28.576" y="3.5" font-family="GillSans" font-size="12" fill="#3E2D1B">priority: 0.5</tspan>
      </text>
    </g>
  </g>
</svg>
