<svg xmlns="http://www.w3.org/2000/svg" xmlns:xlink="http://www.w3.org/1999/xlink" width="1200" height="600"><g transform="translate(0 0)"><path d="M595 90v265" stroke="#9b0d28" stroke-width="4" fill="none"/><path d="M595 355l-4.64-14.27h9.28z" stroke="#9b0d28" stroke-width="4" fill="#9b0d28"/><path d="M285 35c0-2.76 2.24-5 5-5h170c2.76 0 5 2.24 5 5v50c0 2.76-2.24 5-5 5H290c-2.76 0-5-2.24-5-5z" stroke="#000" stroke-width="2" fill="none"/><use xlink:href="#a" transform="matrix(1,0,0,1,285,30) translate(12.227222222222233 36.761111111111106)"/><use xlink:href="#b" transform="matrix(1,0,0,1,285,30) translate(43.338333333333345 36.761111111111106)"/><use xlink:href="#c" transform="matrix(1,0,0,1,285,30) translate(74.44944444444445 36.761111111111106)"/><use xlink:href="#d" transform="matrix(1,0,0,1,285,30) translate(105.56055555555557 36.761111111111106)"/><use xlink:href="#e" transform="matrix(1,0,0,1,285,30) translate(152.22722222222222 36.761111111111106)"/><path d="M505 35c0-2.76 2.24-5 5-5h170c2.76 0 5 2.24 5 5v50c0 2.76-2.24 5-5 5H510c-2.76 0-5-2.24-5-5z" stroke="#000" stroke-width="2" fill="none"/><use xlink:href="#a" transform="matrix(1,0,0,1,505,30) translate(12.227222222222233 36.761111111111106)"/><use xlink:href="#b" transform="matrix(1,0,0,1,505,30) translate(43.338333333333345 36.761111111111106)"/><use xlink:href="#c" transform="matrix(1,0,0,1,505,30) translate(74.44944444444445 36.761111111111106)"/><use xlink:href="#f" transform="matrix(1,0,0,1,505,30) translate(105.56055555555557 36.761111111111106)"/><use xlink:href="#e" transform="matrix(1,0,0,1,505,30) translate(152.22722222222222 36.761111111111106)"/><path d="M725 35c0-2.76 2.24-5 5-5h170c2.76 0 5 2.24 5 5v50c0 2.76-2.24 5-5 5H730c-2.76 0-5-2.24-5-5z" stroke="#000" stroke-width="2" fill="none"/><use xlink:href="#a" transform="matrix(1,0,0,1,725,30) translate(12.227222222222233 36.761111111111106)"/><use xlink:href="#b" transform="matrix(1,0,0,1,725,30) translate(43.338333333333345 36.761111111111106)"/><use xlink:href="#c" transform="matrix(1,0,0,1,725,30) translate(74.44944444444445 36.761111111111106)"/><use xlink:href="#g" transform="matrix(1,0,0,1,725,30) translate(105.56055555555557 36.761111111111106)"/><use xlink:href="#e" transform="matrix(1,0,0,1,725,30) translate(152.22722222222222 36.761111111111106)"/><path d="M375 90v180c0 2.76-2.24 5-5 5H195c-2.76 0-5 2.24-5 5v80" stroke="#3aa6dd" stroke-width="4" fill="none"/><path d="M190 360l-4.64-14.27h9.28z" stroke="#3aa6dd" stroke-width="4" fill="#3aa6dd"/><path d="M815 90v180c0 2.76 2.24 5 5 5h175c2.76 0 5 2.24 5 5v75" stroke="#ff8f80" stroke-width="4" fill="none"/><path d="M1000 355l-4.64-14.27h9.28z" stroke="#ff8f80" stroke-width="4" fill="#ff8f80"/><path d="M330 205c0-2.76 2.24-5 5-5h510c2.76 0 5 2.24 5 5v50c0 2.76-2.24 5-5 5H335c-2.76 0-5-2.24-5-5z" stroke="#fff" stroke-width="2" fill="#de4f01"/><use xlink:href="#h" transform="matrix(1,0,0,1,330,200) translate(173.64432291666668 39.80902777777778)"/><path d="M1108 440c39.76 0 72 31.34 72 70s-32.24 70-72 70H892c-39.76 0-72-31.34-72-70s32.24-70 72-70z" stroke="#000" stroke-width="2" fill="#69b241"/><path d="M880 385c0-2.76 2.24-5 5-5h230c2.76 0 5 2.24 5 5v50c0 2.76-2.24 5-5 5H885c-2.76 0-5-2.24-5-5z" fill="none"/><use xlink:href="#i" transform="matrix(1,0,0,1,880,380) translate(62.86675347222223 40.69444444444444)"/><use xlink:href="#j" transform="matrix(1,0,0,1,880,380) translate(155.10633680555554 40.69444444444444)"/><path d="M840 469.06c0-2.76 2.24-5 5-5h310c2.76 0 5 2.24 5 5v81.88c0 2.76-2.24 5-5 5H845c-2.76 0-5-2.24-5-5z" fill="none"/><g><use xlink:href="#k" transform="matrix(1,0,0,1,840,464.0625) translate(26.666666666666686 55.77777777777777)"/><use xlink:href="#l" transform="matrix(1,0,0,1,840,464.0625) translate(80.00000000000003 55.77777777777777)"/><use xlink:href="#m" transform="matrix(1,0,0,1,840,464.0625) translate(115.55555555555557 55.77777777777777)"/><use xlink:href="#n" transform="matrix(1,0,0,1,840,464.0625) translate(151.11111111111114 55.77777777777777)"/><use xlink:href="#o" transform="matrix(1,0,0,1,840,464.0625) translate(186.66666666666669 55.77777777777777)"/></g><path d="M308 440c39.76 0 72 31.34 72 70s-32.24 70-72 70H92c-39.76 0-72-31.34-72-70s32.24-70 72-70z" stroke="#000" stroke-width="2" fill="#69b241"/><path d="M80 385c0-2.76 2.24-5 5-5h230c2.76 0 5 2.24 5 5v50c0 2.76-2.24 5-5 5H85c-2.76 0-5-2.24-5-5z" fill="none"/><g><use xlink:href="#i" transform="matrix(1,0,0,1,80,380) translate(63.50477430555556 40.69444444444444)"/><use xlink:href="#p" transform="matrix(1,0,0,1,80,380) translate(155.74435763888889 40.69444444444444)"/></g><path d="M40 469.06c0-2.76 2.24-5 5-5h310c2.76 0 5 2.24 5 5v81.88c0 2.76-2.24 5-5 5H45c-2.76 0-5-2.24-5-5z" fill="none"/><g><use xlink:href="#q" transform="matrix(1,0,0,1,40,464.0625) translate(26.666666666666686 55.77777777777777)"/><use xlink:href="#l" transform="matrix(1,0,0,1,40,464.0625) translate(151.11111111111111 55.77777777777777)"/><use xlink:href="#m" transform="matrix(1,0,0,1,40,464.0625) translate(186.66666666666669 55.77777777777777)"/><use xlink:href="#n" transform="matrix(1,0,0,1,40,464.0625) translate(222.22222222222223 55.77777777777777)"/><use xlink:href="#r" transform="matrix(1,0,0,1,40,464.0625) translate(257.77777777777777 55.77777777777777)"/></g><path d="M708 440c39.76 0 72 31.34 72 70s-32.24 70-72 70H492c-39.76 0-72-31.34-72-70s32.24-70 72-70z" stroke="#000" stroke-width="2" fill="#69b241"/><path d="M480 385c0-2.76 2.24-5 5-5h230c2.76 0 5 2.24 5 5v50c0 2.76-2.24 5-5 5H485c-2.76 0-5-2.24-5-5z" fill="none"/><g><use xlink:href="#i" transform="matrix(1,0,0,1,480,380) translate(65.12261284722223 40.69444444444444)"/><use xlink:href="#s" transform="matrix(1,0,0,1,480,380) translate(157.36219618055554 40.69444444444444)"/></g><path d="M440 469.06c0-2.76 2.24-5 5-5h310c2.76 0 5 2.24 5 5v81.88c0 2.76-2.24 5-5 5H445c-2.76 0-5-2.24-5-5z" fill="none"/><g><use xlink:href="#t" transform="matrix(1,0,0,1,440,464.0625) translate(62.22222222222223 55.77777777777777)"/><use xlink:href="#l" transform="matrix(1,0,0,1,440,464.0625) translate(115.55555555555557 55.77777777777777)"/><use xlink:href="#m" transform="matrix(1,0,0,1,440,464.0625) translate(151.11111111111111 55.77777777777777)"/><use xlink:href="#n" transform="matrix(1,0,0,1,440,464.0625) translate(186.66666666666669 55.77777777777777)"/><use xlink:href="#u" transform="matrix(1,0,0,1,440,464.0625) translate(222.22222222222223 55.77777777777777)"/></g><defs><path d="M163-116c0-78-36-122-110-112v-56c35-1 55 6 86-22 64-88-23-208 73-291 58-51 122-38 196-40v57c-53 2-103-8-135 13-38 24-40 73-40 93 0 24 2 46 2 70 3 68-35 130-87 148 38 13 85 50 85 155 0 81-20 142 38 187 33 26 82 15 136 17v56c-78-2-144 12-192-30-80-70-52-144-52-245" id="v"/><use transform="matrix(0.03111111111111111,0,0,0.03111111111111111,0,0)" xlink:href="#v" id="a"/><path d="M379-624h70L291-319 468 0h-79L251-247 117 0H41l170-318L44-624h75l131 237" id="w"/><use transform="matrix(0.03111111111111111,0,0,0.03111111111111111,0,0)" xlink:href="#w" id="b"/><path d="M298-365c0 31-26 57-59 57s-60-25-60-57c0-31 27-58 60-58s59 27 59 58zm0 319c0 31-26 57-59 57s-60-25-60-57c0-31 27-58 60-58s59 27 59 58" id="x"/><use transform="matrix(0.03111111111111111,0,0,0.03111111111111111,0,0)" xlink:href="#x" id="c"/><path d="M244-566c-67 0-104 39-115 80l-51-40c37-63 103-101 174-101 102 0 181 78 181 175 0 90-64 153-110 196-45 42-117 104-169 195h261c11 1 12-12 24-9V0H73v-44c52-104 110-168 181-232 45-41 110-95 110-171 0-67-54-119-120-119" id="y"/><path d="M106-623h316v63H165l-10 179c141-67 290 9 290 184C445 36 163 71 64-85l62-46c9 6 3 15 7 23 3 7 48 58 115 58s126-52 126-148c0-163-166-190-245-90l-44-18" id="z"/><g id="d"><use transform="matrix(0.03111111111111111,0,0,0.03111111111111111,0,0)" xlink:href="#y"/><use transform="matrix(0.03111111111111111,0,0,0.03111111111111111,15.555555555555555,0)" xlink:href="#z"/></g><path d="M352-256c-52-19-90-80-87-148 0-24 3-46 3-70 0-20-2-69-40-93-32-21-83-11-136-13v-57c74 2 140-14 196 40 65 62 49 118 47 206 0 24 2 61 26 85 30 29 52 21 87 22v56c-74-10-110 34-110 112 0 101 28 175-52 245-48 42-115 28-193 30v-56c54-2 104 9 137-17 58-45 38-106 38-187 0-105 46-142 84-155" id="A"/><use transform="matrix(0.03111111111111111,0,0,0.03111111111111111,0,0)" xlink:href="#A" id="e"/><path d="M375-520c-19-29-21-48-87-48-45 0-148 28-152 241 91-141 303-73 303 129C439 10 210 83 114-72 44-186 51-340 94-475c53-167 213-199 330-98zm-4 325c0-190-167-178-231-62-8 116 48 205 124 205 53 0 107-46 107-143" id="B"/><g id="f"><use transform="matrix(0.03111111111111111,0,0,0.03111111111111111,0,0)" xlink:href="#y"/><use transform="matrix(0.03111111111111111,0,0,0.03111111111111111,15.555555555555555,0)" xlink:href="#B"/></g><path d="M432-584C350-397 277-203 214 0h-79c63-190 134-378 210-557H79v-66h353v39" id="C"/><g id="g"><use transform="matrix(0.03111111111111111,0,0,0.03111111111111111,0,0)" xlink:href="#y"/><use transform="matrix(0.03111111111111111,0,0,0.03111111111111111,15.555555555555555,0)" xlink:href="#C"/></g><path fill="#fff" d="M1139-1397h200V0h-200v-608H354V0H154v-1397h200v604h785v-604" id="D"/><path fill="#fff" d="M279 14C154 14 49-84 55-209c11-240 284-270 473-344 10-137-37-215-166-215-99 0-196 51-290 154v-199c71-83 172-125 305-125 171 0 301 80 323 228s4 380 7 548c0 31 11 47 32 47 22 0 56-16 103-49v111c-70 41-94 69-178 69-78 0-124-31-138-92-77 60-160 90-247 90zm-43-254c-2 75 56 129 131 129 58 0 112-24 161-71v-273c-79 31-209 74-254 121-25 26-38 57-38 94" id="E"/><path fill="#fff" d="M391 16C248 13 200-13 84-66v-196c78 54 186 115 293 121 64 4 138-37 139-95 0-27-8-48-26-66s-56-44-115-77c-117-65-195-121-231-167s-54-97-54-152c-1-149 137-240 295-240 90 0 182 25 277 76v180c-108-65-196-98-265-98-93 0-157 78-89 143 29 27 119 78 169 107 153 87 230 183 230 288C708-83 559 21 391 16" id="F"/><path fill="#fff" d="M537-793c-115 4-158 59-230 134V0H125v-1397h182v598c105-135 293-188 448-93 113 70 144 170 144 368V0H717v-569c3-122-65-228-180-224" id="G"/><path fill="#fff" d="M156-1397h745v178H356v390h545v178H356V0H156v-1397" id="H"/><path fill="#fff" d="M307-395c4 175 28 260 187 260 87 0 160-42 221-127v-658h182V0H715v-117C629-10 424 68 274-28c-116-74-149-155-149-365v-527h182v525" id="I"/><path fill="#fff" d="M717-524c-3-169-33-262-187-262-86 0-159 43-219 129V0H125v-920h186v117c117-131 280-184 437-91 117 70 151 162 151 368V0H717v-524" id="J"/><path fill="#fff" d="M262-461c0 187 127 307 316 307 70 0 150-20 241-61v180C728-1 638 16 551 16 268 16 78-172 78-455c0-278 181-487 454-483 122 2 168 22 267 64v194c-92-59-177-88-256-88-165 0-281 138-281 307" id="K"/><path fill="#fff" d="M0-774l342-336v190h291v164H342v451c0 105 44 158 131 158 65 0 134-22 207-66v170C550 33 349 44 243-57c-73-70-84-127-83-291v-408H0v-18" id="L"/><path fill="#fff" d="M117-1200c0-54 52-107 106-107 58 0 109 49 109 107 0 57-51 108-109 108-54 0-106-53-106-108zm16 280h182V0H133v-920" id="M"/><path fill="#fff" d="M76-451c0-267 222-471 493-471s488 207 488 476c0 265-225 462-496 462C296 16 76-188 76-451zm796-4c0-172-139-303-313-303-172 0-299 133-299 305 0 174 132 299 307 299 174 0 305-128 305-301" id="N"/><g id="h"><use transform="matrix(0.015190972222222222,0,0,0.015190972222222222,0,0)" xlink:href="#D"/><use transform="matrix(0.015190972222222222,0,0,0.015190972222222222,22.68012152777778,0)" xlink:href="#E"/><use transform="matrix(0.015190972222222222,0,0,0.015190972222222222,35.95703125,0)" xlink:href="#F"/><use transform="matrix(0.015190972222222222,0,0,0.015190972222222222,47.927517361111114,0)" xlink:href="#G"/><use transform="matrix(0.015190972222222222,0,0,0.015190972222222222,63.483072916666664,0)" xlink:href="#H"/><use transform="matrix(0.015190972222222222,0,0,0.015190972222222222,78.08159722222223,0)" xlink:href="#I"/><use transform="matrix(0.015190972222222222,0,0,0.015190972222222222,93.63715277777779,0)" xlink:href="#J"/><use transform="matrix(0.015190972222222222,0,0,0.015190972222222222,109.19270833333334,0)" xlink:href="#K"/><use transform="matrix(0.015190972222222222,0,0,0.015190972222222222,122.81901041666667,0)" xlink:href="#L"/><use transform="matrix(0.015190972222222222,0,0,0.015190972222222222,133.17925347222223,0)" xlink:href="#M"/><use transform="matrix(0.015190972222222222,0,0,0.015190972222222222,140,0)" xlink:href="#N"/><use transform="matrix(0.015190972222222222,0,0,0.015190972222222222,157.16579861111111,0)" xlink:href="#J"/></g><path fill="#666" d="M307-694c0 306 244 526 555 526 169 0 335-52 496-156v220C1119 35 700 64 453-78 260-188 105-411 100-694c-8-401 347-721 754-721 147 0 310 38 489 115v215c-163-93-323-140-479-140-306 0-557 229-557 531" id="O"/><path fill="#666" d="M537-793c-115 4-158 59-230 134V0H125v-1397h182v598c105-135 293-188 448-93 113 70 144 170 144 368V0H717v-569c3-122-65-228-180-224" id="P"/><path fill="#666" d="M307-395c4 175 28 260 187 260 87 0 160-42 221-127v-658h182V0H715v-117C629-10 424 68 274-28c-116-74-149-155-149-365v-527h182v525" id="Q"/><path fill="#666" d="M717-524c-3-169-33-262-187-262-86 0-159 43-219 129V0H125v-920h186v117c117-131 280-184 437-91 117 70 151 162 151 368V0H717v-524" id="R"/><path fill="#666" d="M727-920h217L551-469 1024 0H780L319-469zm-598-477h182V0H129v-1397" id="S"/><g id="i"><use transform="matrix(0.015190972222222222,0,0,0.015190972222222222,0,0)" xlink:href="#O"/><use transform="matrix(0.015190972222222222,0,0,0.015190972222222222,22.02690972222222,0)" xlink:href="#P"/><use transform="matrix(0.015190972222222222,0,0,0.015190972222222222,37.58246527777778,0)" xlink:href="#Q"/><use transform="matrix(0.015190972222222222,0,0,0.015190972222222222,53.138020833333336,0)" xlink:href="#R"/><use transform="matrix(0.015190972222222222,0,0,0.015190972222222222,68.69357638888889,0)" xlink:href="#S"/></g><use transform="matrix(0.015190972222222222,0,0,0.015190972222222222,0,0)" xlink:href="#O" id="j"/><path d="M251-627c96 0 199 113 199 326C450-87 342 11 252 11 153 11 50-105 50-307c0-199 102-320 201-320zm98 142c-27-55-65-81-99-81-62 0-135 88-135 247 0 44 5 84 14 118zm23 67L152-138c27 55 66 85 103 85 55 0 130-66 130-240 0-48-5-90-13-125" id="T"/><g id="k"><use transform="matrix(0.035555555555555556,0,0,0.035555555555555556,0,0)" xlink:href="#y"/><use transform="matrix(0.035555555555555556,0,0,0.035555555555555556,17.77777777777778,0)" xlink:href="#T"/></g><path d="M458-496v-71L35-344v48L461-47v-76L111-319" id="U"/><g id="l"><use transform="matrix(0.035555555555555556,0,0,0.035555555555555556,0,0)" xlink:href="#U"/><path d="M-1.78 2.67h21.33v1.78H-1.78z"/></g><use transform="matrix(0.035555555555555556,0,0,0.035555555555555556,0,0)" xlink:href="#w" id="m"/><use transform="matrix(0.035555555555555556,0,0,0.035555555555555556,0,0)" xlink:href="#U" id="n"/><path d="M173-413c-33-7-69 65-69 108V0H38v-457h66v45c21-32 56-56 93-56 41 0 74 29 81 67 27-65 127-96 174-30 21 30 18 69 18 107V1h-68v-325c5-38-4-96-42-91-51 6-72 68-73 113V0h-67v-318c7-41-11-101-47-95" id="V"/><path d="M366-269c2-83-14-137-109-139-42 0-94 12-131 51l-35-46c43-44 101-64 163-64 110 0 181 69 181 184V0h-68v-50C317-9 259 11 203 11 23 8-5-195 154-249c63-21 138-20 212-20zm3 55c-54 1-120-4-167 7-57 14-81 51-81 84 0 41 35 79 96 79 60 0 104-36 120-54 39-46 31-65 32-116" id="W"/><path d="M362-457h74L288-235 456 0h-82L248-178 129 0H47l161-232L50-457h79l119 169" id="X"/><path d="M126-624c2 12-9 15-9 26v262l260-292c26 6 49 5 78 5L219-354 471 1c-49 0-89 3-89 3L166-312l-49 54V0H42v-624h84" id="Y"/><path d="M259-468c75 0 160 39 181 162 4 27 6 57 3 88H118c5 137 95 170 156 170 45 0 88-18 118-51l40 39c-39 47-99 70-164 70C144 10 49-71 49-223c0-167 101-245 210-245zM121-274h251c9-74-44-139-118-139-49 0-119 31-133 139" id="Z"/><path d="M60 71c12 22 12 44 61 44 61 0 93-68 110-117L46-457h89c0 12-6 19-2 30L267-91c40-122 91-235 121-366h75C406-283 326-121 275 52c-29 99-167 167-253 83" id="aa"/><g id="o"><use transform="matrix(0.035555555555555556,0,0,0.035555555555555556,0,0)" xlink:href="#V"/><use transform="matrix(0.035555555555555556,0,0,0.035555555555555556,17.77777777777778,0)" xlink:href="#W"/><use transform="matrix(0.035555555555555556,0,0,0.035555555555555556,35.55555555555556,0)" xlink:href="#X"/><use transform="matrix(0.035555555555555556,0,0,0.035555555555555556,53.333333333333336,0)" xlink:href="#Y"/><use transform="matrix(0.035555555555555556,0,0,0.035555555555555556,71.11111111111111,0)" xlink:href="#Z"/><use transform="matrix(0.035555555555555556,0,0,0.035555555555555556,88.88888888888889,0)" xlink:href="#aa"/></g><path fill="#666" d="M600-1405h141L1366 0h-205L975-414H381L205 0H0zm293 813l-225-506-209 506h434" id="ab"/><use transform="matrix(0.015190972222222222,0,0,0.015190972222222222,0,0)" xlink:href="#ab" id="p"/><path d="M106-457h183v399h107V0H100v-58h117v-341H106v-58zm149-199c29 0 51 23 51 51s-22 52-51 52-52-24-52-52 23-51 52-51" id="ac"/><path d="M274-405c-78 10-132 62-132 142V0H68v-457h74v81c34-51 89-92 151-92 88 0 139 91 139 191V0h-71v-275c9-55-27-138-87-130" id="ad"/><g id="q"><use transform="matrix(0.035555555555555556,0,0,0.035555555555555556,0,0)" xlink:href="#V"/><use transform="matrix(0.035555555555555556,0,0,0.035555555555555556,17.77777777777778,0)" xlink:href="#ac"/><use transform="matrix(0.035555555555555556,0,0,0.035555555555555556,35.55555555555556,0)" xlink:href="#ad"/><use transform="matrix(0.035555555555555556,0,0,0.035555555555555556,53.333333333333336,0)" xlink:href="#Y"/><use transform="matrix(0.035555555555555556,0,0,0.035555555555555556,71.11111111111111,0)" xlink:href="#Z"/><use transform="matrix(0.035555555555555556,0,0,0.035555555555555556,88.88888888888889,0)" xlink:href="#aa"/></g><path d="M298-624v570h112V1H116v-55h115v-483l-123 36-17-39 160-84h47" id="ae"/><g id="r"><use transform="matrix(0.035555555555555556,0,0,0.035555555555555556,0,0)" xlink:href="#ae"/><use transform="matrix(0.035555555555555556,0,0,0.035555555555555556,17.77777777777778,0)" xlink:href="#T"/></g><path fill="#666" d="M776-739c182 31 334 160 334 358 0 166-92 267-216 328C823-18 734 0 627 0H154v-1397c212 7 494-22 636 47 116 56 199 157 199 316 0 137-71 236-213 295zm-289-60c185 3 295-63 295-219 0-134-85-201-256-201H354v420h133zm272 204c-77-32-277-25-405-26v443c125-1 352 2 420-26 102-41 175-202 92-312-26-35-62-60-107-79" id="af"/><use transform="matrix(0.015190972222222222,0,0,0.015190972222222222,0,0)" xlink:href="#af" id="s"/><g id="t"><use transform="matrix(0.035555555555555556,0,0,0.035555555555555556,0,0)" xlink:href="#ae"/><use transform="matrix(0.035555555555555556,0,0,0.035555555555555556,17.77777777777778,0)" xlink:href="#T"/></g><g id="u"><use transform="matrix(0.035555555555555556,0,0,0.035555555555555556,0,0)" xlink:href="#y"/><use transform="matrix(0.035555555555555556,0,0,0.035555555555555556,17.77777777777778,0)" xlink:href="#T"/></g></defs></g></svg>