<svg xmlns="http://www.w3.org/2000/svg" height="80" width="500"><g font-size="24" font-family="Inconsolata"><path d="M11.1 14.7h3.5q2 0 3 .5t1.8 1.5q.8 1 1.1 2.4.4 1.4.4 3.1 0 1.8-.4 3.1-.5 1.4-1.2 2.4-.8 1-2 1.4-1.2.6-3 .6h-3.2v-15zm1.6 1.4v12.2h1.6q2.5 0 3.7-1.5 1.2-1.6 1.2-4.5t-1.1-4.6q-1-1.6-3.6-1.6h-1.8zm10.6-1.4h9.1V16h-7.6v5h6.3v1.5h-6.3V28h7.6v1.5h-9.1v-15zm12.1 0h2l-.1.4-.1.4v12.7h7.2v1.4h-9v-15zm11.9 0h9.1V16h-7.6v5h6.3v1.5h-6.3V28h7.6v1.5h-9.1v-15zm11.3 0H69v1.5h-4.5v13.4h-1.7V16.2h-4.2v-1.5zm12.7 0h9.1V16h-7.6v5h6.3v1.5h-6.3V28h7.6v1.5h-9.1v-15zm24.4 0h8.6V16h-6.9v4.7h5.6v1.5h-5.6v7.3h-1.7v-15zm11.5 0h4.4q2.6 0 3.8 1.2 1.2 1.1 1.2 3 0 .7-.2 1.3l-.7 1.2q-.3.6-1 1-.5.4-1.2.6l3.5 6.6h-2l-3.3-6.6h-2.9v6.6h-1.7v-15zm1.7 1.6v5.2h2.9q1.6 0 2.3-.7.7-.7.7-1.9l-.1-1q-.2-.5-.6-.8-.3-.4-1-.6-.5-.2-1.3-.2h-3zM124 29.9q-1.3 0-2.3-.6-1-.6-1.7-1.6t-1-2.4q-.5-1.5-.5-3.2 0-1.7.4-3.1.4-1.4 1.2-2.4.7-1 1.7-1.5 1-.6 2.2-.6 1 0 2 .5.9.4 1.6 1.4.8.9 1.2 2.3.4 1.4.4 3.4 0 2.2-.5 3.7t-1.2 2.4q-.7.9-1.7 1.3-.9.4-1.9.4zm-2.6-3q1.2 1.3 2.5 1.3.7 0 1.3-.3.6-.2 1.1-1 .6-.6.9-1.8.3-1.2.3-3t-.4-3q-.3-1-.8-1.7t-1.1-1q-.6-.3-1.2-.3-.8 0-1.4.3-.6.2-1.2.9-.5.6-.9 1.8-.3 1.1-.3 2.9 0 1.6.3 2.9.4 1.3 1 2zm9.4-12.2h1.4l3.6 7.3 3.8-7.3h1.3v15h-1.6V18.2l-3.2 6h-.7l-3-5.9v11.2h-1.6v-15z" fill="#06345e"/><path d="M155.4 18.7h1.7v6q0 1.1.2 1.9.2.7.5 1 .4.5.8.7l1 .2q.6 0 1-.3.6-.2 1-.7.5-.4.7-1.1.2-.7.2-1.7v-6h1.8v10l.1 1h-1.8v-1.8q-.6 1-1.5 1.5t-2 .5q-.8 0-1.5-.3-.6-.3-1.2-1-.5-.6-.8-1.5-.3-1-.3-2.3v-6.1zm20.8 1.4l-1 1.5-.1-.2v-.2l-1.3-1q-.8-.5-1.8-.5l-.9.1-.7.3-.5.5q-.2.3-.2.7l.1.5.5.5.9.4 1.4.5q2.1.5 3 1.3.8.7.8 1.8 0 .8-.3 1.4-.3.7-1 1.1-.5.5-1.4.8-.8.3-1.9.3-2.7 0-4.6-1.8l1-1.7v.3l.3.3.5.5 1.2.6.8.3h1.9l.8-.4.7-.6q.2-.3.2-.7 0-.6-.5-1-.6-.5-2.2-1l-1.3-.4q-1-.3-1.3-.6-.4-.2-.7-.6l-.5-.8q-.2-.4-.2-1 0-.5.3-1 .3-.6.9-1 .6-.4 1.3-.6.8-.3 1.7-.3 2.6 0 4.1 1.7zm7.8-1.7q1 0 1.7.3.9.3 1.5 1 .6.6 1 1.6.3 1 .3 2.3v.8h-7.8q0 1.1.4 2 .3.7.9 1.2.5.5 1.1.7l1.3.2q1.7 0 2.9-1.2l1 .9q-1.5 1.7-4 1.7-1.1 0-2.1-.4t-1.7-1q-.7-.8-1-1.9-.5-1-.5-2.4t.4-2.5q.4-1 1-1.8.8-.7 1.7-1.1 1-.4 2-.4zm-3.2 4.7h6v-.4l-.2-1.2-.6-.9q-.4-.4-1-.6-.5-.3-1-.3-1.2 0-2.1.8-1 .8-1.1 2.6zm11.4-4.4h1.8v2q.5-1 1.6-1.7 1-.6 2.3-.6 1.8 0 3 1.2l-.9 1.7-.4-.6-.5-.5-.6-.2-.7-.1q-.8 0-1.5.4-.7.3-1.2 1-.5.6-.8 1.3-.3.8-.3 1.7v5.4h-1.8v-11zm20 1.4l-1 1.5-.1-.2v-.2l-1.3-1q-.8-.5-1.8-.5l-.9.1-.7.3-.5.5q-.2.3-.2.7l.1.5.5.5.9.4 1.4.5q2.1.5 3 1.3.8.7.8 1.8 0 .8-.3 1.4-.3.7-1 1.1-.5.5-1.4.8-.8.3-1.9.3-2.7 0-4.6-1.8l1-1.7v.3l.3.3.5.5 1.2.6.8.3h1.9l.8-.4.7-.6q.2-.3.2-.7 0-.6-.5-1-.6-.5-2.2-1l-1.3-.4q-1-.3-1.3-.6-.4-.2-.7-.6l-.5-.8q-.2-.4-.2-1 0-.5.3-1 .3-.6.9-1 .6-.4 1.3-.6.8-.3 1.7-.3 2.6 0 4.1 1.7z" fill="#2a86c0"/><path d="M10.3 40.7h1.5l1.6 10 2.4-9h.6l2.4 9.1L20 40.7h1.5l-2.4 15h-.7L16 46l-2.6 9.8h-.7l-2.4-15zm12.8 0h2l-.1.2-.1.4V47h5.9v-6.4h1.8v.3l-.2.2v14.5h-1.7v-7.2H25v7.1h-2v-15zm12.2 0h9.1V42h-7.6v5h6.3v1.5h-6.3V54h7.6v1.5h-9.1v-15zm11.9 0h4.4q2.6 0 3.8 1.2 1.2 1.1 1.2 3 0 .7-.2 1.3l-.7 1.2q-.3.6-1 1-.5.4-1.2.6l3.5 6.6h-2L51.8 49h-3v6.6h-1.6v-15zm1.7 1.6v5.2h2.9q1.6 0 2.3-.7.7-.7.7-1.9l-.1-1q-.2-.5-.6-.8-.3-.4-1-.6-.5-.2-1.3-.2h-3zm10.4-1.6h9.1V42h-7.6v5h6.3v1.5h-6.3V54h7.6v1.5h-9.1v-15z" fill="#053056"/><path d="M104.2 46.1l-1 1.5-.1-.2v-.2l-1.3-1q-.8-.5-1.8-.5l-.9.1-.7.3-.5.5q-.2.3-.2.7l.1.5.5.5.9.4 1.4.5q2.1.5 3 1.3.8.7.8 1.8 0 .8-.3 1.4-.3.7-1 1.1-.5.5-1.4.8-.8.3-1.9.3-2.7 0-4.6-1.8l1-1.7v.3l.3.3.5.5 1.2.6.8.3h1.9l.8-.4.7-.6q.2-.3.2-.7 0-.6-.5-1-.6-.5-2.2-1l-1.3-.4q-1-.3-1.3-.6-.4-.2-.7-.6l-.5-.8q-.2-.4-.2-1 0-.5.3-1 .3-.6.9-1 .6-.4 1.3-.6.8-.3 1.7-.3 2.6 0 4.1 1.7zm6.2-4.4l1.9-.3-.1.4v.3l-.4 2.6h3.6V46h-3.6l-.2 4v2l.3 1.2q.2.4.6.7.4.2 1 .2 1.1 0 2.5-1l.5 1.4q-1.7 1.2-3.4 1.2t-2.5-1q-.8-1-.7-3.4v-2.2l.2-3.1h-2.6v-1.4h2.7l.2-3zM120 46q1.5-1.6 4-1.6 2 0 3.1 1 1.2 1 1.2 3.4v6.8h-1.6v-1.2q-1.8 1.5-4 1.5-.8 0-1.5-.3-.7-.2-1.2-.7-.5-.4-.7-1-.3-.5-.3-1 0-1.7 1.4-2.7 1.5-1 4.2-1h2v-.4q0-1.7-.7-2.3-.6-.7-2-.7-1.9 0-3 1.3L120 46zm6.7 4.5h-1.6q-1.3 0-2.2.2-.8.1-1.3.4-.5.4-.7.8l-.1.8q0 .8.6 1.3.7.6 1.7.6.7 0 1.3-.2l1-.6.7-.7.4-.6q.2-.5.2-1.3v-.7zm7.7-8.8l1.9-.3-.1.4v.3l-.4 2.6h3.6V46h-3.6l-.2 4v2l.3 1.2q.2.4.6.7.4.2 1 .2 1.1 0 2.5-1l.5 1.4q-1.7 1.2-3.4 1.2t-2.5-1q-.8-1-.7-3.4v-2.2l.2-3.1h-2.6v-1.4h2.7l.2-3zm9 3h1.7v6q0 1.1.2 1.9.2.7.5 1 .4.5.8.7l1 .2q.6 0 1-.3.6-.2 1-.7.5-.4.7-1.1.2-.7.2-1.7v-6h1.8v10l.1 1h-1.8v-1.8q-.6 1-1.5 1.5t-2 .5q-.8 0-1.5-.3-.6-.3-1.2-1-.5-.6-.8-1.5-.3-1-.3-2.3v-6.1zm20.8 1.4l-1 1.5-.1-.2v-.2l-1.3-1q-.8-.5-1.8-.5l-.9.1-.7.3-.5.5q-.2.3-.2.7l.1.5.5.5.9.4 1.4.5q2.1.5 3 1.3.8.7.8 1.8 0 .8-.3 1.4-.3.7-1 1.1-.5.5-1.4.8-.8.3-1.9.3-2.7 0-4.6-1.8l1-1.7v.3l.3.3.5.5 1.2.6.8.3h1.9l.8-.4.7-.6q.2-.3.2-.7 0-.6-.5-1-.6-.5-2.2-1l-1.3-.4q-1-.3-1.3-.6-.4-.2-.7-.6l-.5-.8q-.2-.4-.2-1 0-.5.3-1 .3-.6.9-1 .6-.4 1.3-.6.8-.3 1.7-.3 2.6 0 4.1 1.7zm14.8-1h9.8v1.5h-9.9V45zm0 5h9.8v1.4h-9.9v-1.4zm28.6-7.6l-.2-1.5q0-.7.3-1 .3-.4.7-.4.4 0 .8.4.3.4.3 1.2l-.2 1.1-.6 1.9-.6 1.5-1.3-.3.5-1.6.2-.7v-.6zm7.5-1.8h3.5q2 0 3 .5t1.8 1.5q.8 1 1.1 2.4.4 1.4.4 3.1 0 1.8-.4 3.1-.5 1.4-1.2 2.4-.8 1-2 1.4-1.2.6-3 .6h-3.2v-15zm1.6 1.4v12.2h1.6q2.5 0 3.7-1.5 1.2-1.6 1.2-4.5t-1.1-4.6q-1-1.6-3.6-1.6h-1.8zm14.9.4l-.2-1.5q0-.7.3-1 .3-.4.7-.4.4 0 .8.4.3.4.3 1.2l-.2 1.1-.6 1.9-.6 1.5-1.3-.3.5-1.6.2-.7v-.6z" fill="#2a86c0"/></g><g stroke="#5ca831" stroke-width="2"><path d="M311 24.5l-43-.2" fill="none"/><path d="M268.1 20.7l-9.6 3.6 9.6 3.6z" fill="#5ca831"/></g><path d="M325 20.6l4-4v2.2h3.4v2H329V26q0 1.8 1.5 1.8 1.2 0 2.5-.8v2q-1.3.7-2.7.7-1.5 0-2.4-.8l-.6-.6-.3-.9-.1-2v-4.7H325v-.2zm16.3 2.5v4.6q0 .6.4.6t1.2-.6V29q-.7.5-1.2.6-.4.2-.9.2-1.4 0-1.6-1-1.4 1-3 1-1 0-1.8-.7-.7-.8-.7-2 0-1 .7-1.7.7-.8 2-1.3l2.8-1v-.5q0-2-2-2-1.7 0-3.3 1.8v-2.3q1.2-1.5 3.5-1.5 1.8 0 2.8 1 .4.2.7.7.3.5.3 1l.1 1.8zm-2 4.4v-3.2l-1.5.5q-1.1.5-1.6 1-.4.4-.4 1 0 .7.4 1.1.4.4 1.1.4 1 0 2-.8zm5.4-14.2h2.1v6.3q1.4-1 3-1 2 0 3.3 1.6 1.3 1.5 1.3 4t-1.5 4q-1.6 1.6-4.2 1.6l-2.2-.2q-1.1-.2-1.8-.6V13.3zm2.1 8.4v5.8q1.1.3 2.3.3 1.4 0 2.3-1 .9-1 .9-2.6t-.9-2.6q-.8-1-2.1-1-1.2 0-2.5 1zm10-8.4h2.2v16.3h-2.2V13.3zm14.5 11.1h-7.6q0 1.6 1 2.5 1 .9 2.5.9 2.1 0 3.9-1.3v2q-1 .7-2 1-1 .3-2.2.3-1.8 0-3-.7-1-.8-1.7-2-.6-1.3-.6-3 0-2.4 1.4-4 1.4-1.5 3.6-1.5 2.1 0 3.4 1.5 1.3 1.5 1.3 4v.3zm-7.6-1.3h5.5q-.1-1.2-.8-2-.7-.6-1.8-.6-1.2 0-1.9.7t-1 2z" font-size="24" font-family="GillSans" fill="#2a86c0"/><g stroke="#5ca831" stroke-width="2"><path d="M311 48.5l-43-.2" fill="none"/><path d="M268.1 44.7l-9.6 3.6 9.6 3.6z" fill="#5ca831"/></g><path d="M333.7 39h2.2v16.4h-4.6q-2.4 0-3.8-1.5t-1.4-4q0-2.5 1.4-4 1.5-1.5 3.9-1.5 1 0 2.3.4V39zm0 14.6v-6.9q-1-.5-2-.5-1.6 0-2.5 1-1 1.1-1 2.9 0 1.6.8 2.6.5.5 1 .7.6.2 2 .2h1.7zm14.3-3.4h-7.6q0 1.5 1 2.5 1 .9 2.5.9 2 0 3.9-1.3v2q-1 .7-2 1-1 .3-2.3.3-1.7 0-2.9-.8-1-.7-1.7-2-.7-1.2-.7-2.9 0-2.4 1.4-4 1.4-1.5 3.6-1.5t3.5 1.5q1.2 1.5 1.2 4v.3zm-7.6-1.3h5.4q0-1.3-.7-2-.7-.6-1.9-.6-1.1 0-1.8.6-.8.7-1 2zm9.9-9.9h2.1v16.4h-2.1V39zm14.4 11.2h-7.6q.1 1.5 1 2.5 1 .9 2.5.9 2.2 0 4-1.3v2q-1 .7-2 1-1 .3-2.3.3-1.8 0-2.9-.8-1-.7-1.7-2-.7-1.2-.7-2.9 0-2.4 1.4-4 1.4-1.5 3.6-1.5t3.4 1.5q1.3 1.5 1.3 4v.3zm-7.5-1.3h5.4q0-1.3-.8-2-.6-.6-1.8-.6-1.1 0-1.9.6-.7.7-1 2zm8.3-2.6l4-4v2.3h3.4v2h-3.4v5.2q0 1.9 1.5 1.9 1.2 0 2.5-.8v2q-1.3.7-2.7.7-1.5 0-2.4-.9-.4-.2-.6-.5l-.3-.9-.1-2v-4.8h-1.9v-.2zm18.7 3.9h-7.6q.1 1.5 1 2.5 1 .9 2.5.9 2.2 0 4-1.3v2q-1 .7-2 1-1 .3-2.3.3-1.8 0-2.9-.8-1-.7-1.7-2-.7-1.2-.7-2.9 0-2.4 1.4-4 1.4-1.5 3.6-1.5t3.4 1.5q1.3 1.5 1.3 4v.3zm-7.5-1.3h5.4q0-1.3-.8-2-.6-.6-1.8-.6-1.1 0-1.9.6-.7.7-1 2zm24.6 4v2q-1.6.7-3.2.7-2.5 0-4-1.5t-1.5-4q0-2.6 1.4-4.1 1.5-1.6 3.9-1.6.8 0 1.5.2.7.1 1.6.6v2.2q-1.6-1-3-1t-2.3 1q-1 1-1 2.6t1 2.6q1 1 2.7 1 1.3 0 2.9-.7zm4.7-8.3v2.5-.2q1.6-2.5 3.2-2.5 1.2 0 2.5 1.2l-1.1 1.9q-1.2-1-2.1-1-1 0-1.8 1-.7 1-.7 2.3v5.6h-2.2V44.6h2.2zm8.3-4.6q.5 0 .9.4t.4 1q0 .4-.4.8t-1 .4q-.4 0-.8-.4t-.4-.9q0-.5.4-.8.4-.4.9-.4zm-1 4.6h2v10.8h-2V44.6zm3.7 1.7l4-4v2.3h3.3v2H421v5.2q0 1.9 1.6 1.9 1.1 0 2.4-.8v2q-1.2.7-2.7.7-1.5 0-2.4-.9l-.5-.5-.4-.9-.1-2v-4.8H417v-.2zm18.6 3.9h-7.5q0 1.5 1 2.5 1 .9 2.5.9 2 0 3.9-1.3v2q-1 .7-2 1-1 .3-2.3.3-1.7 0-2.8-.8-1.1-.7-1.8-2-.7-1.2-.7-2.9 0-2.4 1.4-4 1.4-1.5 3.6-1.5t3.5 1.5q1.2 1.5 1.2 4v.3zm-7.5-1.3h5.4q0-1.3-.7-2-.7-.6-1.9-.6-1.1 0-1.8.6-.8.7-1 2zm12.1-4.3v2.5l.1-.2q1.6-2.5 3.1-2.5 1.2 0 2.6 1.2l-1.2 1.9q-1-1-2-1t-1.8 1q-.8 1-.8 2.3v5.6h-2.1V44.6h2.1zm8.4-4.6q.5 0 .9.4.3.4.3 1 0 .4-.3.8-.4.4-1 .4-.4 0-.8-.4t-.4-.9q0-.5.4-.8.4-.4.9-.4zm-1.1 4.6h2.1v10.8h-2.1V44.6zm12 4.4v4.5q0 .5.4.5.3 0 1.2-.5v1.3l-1.2.6q-.4.2-1 .2-1.3 0-1.5-1.1-1.4 1-3 1-1 0-1.8-.7t-.8-1.9q0-1 .8-1.8.7-.8 2-1.2l2.8-1v-.6q0-2-2-2-1.7 0-3.4 1.9v-2.3q1.3-1.5 3.6-1.5 1.8 0 2.8 1 .4.2.6.7l.4 1v1.8zm-2.1 4.3V50l-1.5.5q-1 .4-1.5.9-.4.4-.4 1 0 .7.4 1.2.4.4 1 .4 1.1 0 2-.8z" font-size="24" font-family="GillSans" fill="#2a86c0"/></svg>