<svg xmlns="http://www.w3.org/2000/svg" xmlns:xlink="http://www.w3.org/1999/xlink" xmlns:lucid="lucid" width="1054" height="883"><g transform="translate(-151 -245)" lucid:page-tab-id="LJRzEy.HD9M6"><path d="M828.7 302c0-1.1.9-2 2-2h316c1.1 0 2 .9 2 2v196c0 1.1-.9 2-2 2h-316c-1.1 0-2-.9-2-2zM948.54 602c0-1.1.9-2 2-2h196c1.1 0 2 .9 2 2v149.92c0 1.1-.9 2-2 2h-196c-1.1 0-2-.9-2-2zM380 862c0-1.1.9-2 2-2h764.7c1.1 0 2 .9 2 2v216c0 1.1-.9 2-2 2H382c-1.1 0-2-.9-2-2z" fill="#e3f2fd"/><path d="M200 282c0-1.1.9-2 2-2h196c1.1 0 2 .9 2 2v206c0 1.1-.9 2-2 2H202c-1.1 0-2-.9-2-2z" fill="#f3e5f5"/><use xlink:href="#a" transform="matrix(1,0,0,1,216,296) translate(0 16.69921875)"/><g filter="url(#b)"><path d="M240 332c0-1.1.9-2 2-2h116c1.1 0 2 .9 2 2v116c0 1.1-.9 2-2 2H242c-1.1 0-2-.9-2-2z" fill="#fff"/><path d="M332.72 414.55c2.26 0 4.2-.8 5.8-2.4 1.6-1.6 2.4-3.53 2.4-5.8v-40.9c0-2.25-.8-4.18-2.4-5.78-1.6-1.6-3.54-2.4-5.8-2.4h-65.44c-2.26 0-4.2.8-5.8 2.4-1.6 1.6-2.4 3.53-2.4 5.78v40.9c0 2.27.8 4.2 2.4 5.8 1.6 1.6 3.54 2.4 5.8 2.4H250.9v8.18h98.2v-8.18zm-65.44-49.1h65.44v40.9h-65.44z" fill="#757575"/></g><path d="M413.77 389.6l-53.26.9v-1l53.27-.9zm100.34-1.68l-37.38.63v-1l37.37-.63z" fill="#6392f0"/><path d="M360.52 390.5H360v-1h.5zM528.87 387.17l-14.2 4.88-.14-9.27z" fill="#6392f0"/><path d="M530.48 387.15l-16.3 5.6-.17-10.65zm-15.3 4.2l12.07-4.15-12.2-3.74z" fill="#6392f0"/><use xlink:href="#c" transform="matrix(1,0,0,1,413.7671858070055,377.7726295639265) translate(0 14.4)"/><path d="M484.9 884.08h-1v-48h1zm91.22-133.02l-.42 3.2-1.24 3-2 2.6-2.6 2-3 1.25-3.2.43h-67.22l-3 .4-2.77 1.13-2.4 1.84-1.82 2.4-1.15 2.74-.4 3.02v39.42h-1v-39.5l.43-3.2 1.24-3 2-2.6 2.6-2 3-1.23 3.2-.42h67.22l3-.4 2.76-1.14 2.4-1.84 1.82-2.4 1.14-2.75.4-3V626.1h1zM576.12 626.1h-1v-.5h1zM484.4 898.85l-4.63-14.27h9.27z" fill="#6392f0"/><path d="M484.4 900.47l-5.3-16.4h10.63zm-3.94-15.4l3.95 12.16 3.96-12.15z" fill="#6392f0"/><use xlink:href="#d" transform="matrix(1,0,0,1,447.4595486765888,814.4751973139987) translate(0 14.4)"/><use xlink:href="#e" transform="matrix(1,0,0,1,447.4595486765888,814.4751973139987) translate(20 14.4)"/><path d="M575.55 514.93V483c0-.1-.1-.2-.2-.2s-.2-.1-.2-.2v-47.8" stroke="#6392f0" fill="none"/><path d="M575.55 529.7l-4.63-14.27h9.27z" stroke="#6392f0" fill="#6392f0"/><path d="M575.65 434.8h-1v-.5h1z" fill="#6392f0"/><path d="M574.88 342.5c-.9.08-1.6.26-2.33.6l-31 15.3c-1.7.8-2.85 2.22-3.2 4.1l-7.7 34.38c-.34 1.6-.08 3.22.82 4.65.1.18.17.27.35.44l21.44 27.5c1.16 1.53 2.77 2.34 4.65 2.34h34.48c1.88 0 3.5-.8 4.65-2.32l21.44-27.5c1.16-1.52 1.6-3.3 1.16-5.2l-7.7-34.28c-.34-1.88-1.5-3.3-3.2-4.1l-31-15.3c-.98-.43-1.87-.7-2.85-.6z" stroke="#000" stroke-opacity="0" stroke-width="3.83" fill="#326ce5"/><path d="M574.86 340c-.94.1-1.7.28-2.45.66l-32.7 16.12c-1.8.85-3.03 2.36-3.4 4.34l-8.1 36.3c-.4 1.7-.1 3.4.84 4.9.1.2.2.3.37.48l22.64 29.04c1.23 1.6 2.93 2.45 4.9 2.45h36.4c1.98 0 3.68-.86 4.9-2.46l22.64-29.04c1.22-1.6 1.7-3.5 1.22-5.38l-8.1-36.3c-.38-1.98-1.6-3.5-3.4-4.34l-32.72-16.12c-1.04-.47-1.98-.75-3.02-.66zm0 2.55c1.04-.1 1.9.1 2.83.56l31.1 15.3c1.6.84 2.74 2.25 3.2 4.14l7.65 34.32c.38 1.88 0 3.58-1.13 5.1l-21.5 27.52c-1.13 1.5-2.73 2.36-4.62 2.36h-34.5c-1.9 0-3.5-.85-4.63-2.36l-21.5-27.53c-.1-.1-.2-.28-.28-.47-.95-1.42-1.24-2.93-.86-4.62l7.64-34.32c.47-1.9 1.5-3.3 3.2-4.15l31.12-15.3c.75-.37 1.4-.55 2.26-.65z" stroke="#000" stroke-opacity="0" stroke-width="3.83" fill="#fff"/><path d="M566.5 367.9v4.27h30.44v-4.27zM553.35 367.9v4.27h7.63v-4.27zM577.56 379.3v4.28h19.38v-4.27zM564.42 379.3v4.28h7.62v-4.27zM577.56 390.7v4.3h19.38v-4.3zM564.42 390.7v4.3h7.62v-4.3zM566.5 402.1v4.3h30.44v-4.3zM553.35 402.1v4.3h7.63v-4.3z" stroke="#000" stroke-opacity="0" stroke-width="3.77" fill="#fff"/><use xlink:href="#f" transform="matrix(1,0,0,1,498,443.2905182557058) translate(-14.400000000000006 14.4)"/><use xlink:href="#g" transform="matrix(1,0,0,1,498,443.2905182557058) translate(5.599999999999994 36)"/><use xlink:href="#h" transform="matrix(1,0,0,1,498,443.2905182557058) translate(72.5 36)"/><path d="M575.7 533.78c-.9.1-1.6.27-2.33.63l-31 15.28c-1.7.8-2.85 2.24-3.2 4.1l-7.7 34.4c-.35 1.6-.08 3.2.82 4.64.07.18.16.27.34.45l21.44 27.5c1.16 1.53 2.77 2.33 4.64 2.33h34.48c1.88 0 3.5-.8 4.65-2.32l21.43-27.5c1.17-1.53 1.6-3.3 1.17-5.2l-7.7-34.3c-.34-1.86-1.5-3.3-3.2-4.1l-31-15.27c-.98-.44-1.87-.7-2.85-.62z" stroke="#000" stroke-opacity="0" stroke-width="3.83" fill="#326ce5"/><path d="M575.68 531.3c-.94.1-1.7.28-2.45.66l-32.72 16.12c-1.78.85-3 2.36-3.38 4.34l-8.1 36.3c-.4 1.7-.1 3.4.84 4.9.1.2.18.3.37.47l22.63 29.04c1.23 1.6 2.93 2.45 4.9 2.45h36.4c1.98 0 3.68-.86 4.9-2.46l22.64-29.05c1.22-1.6 1.7-3.5 1.22-5.38l-8.1-36.3c-.4-1.98-1.6-3.5-3.4-4.34l-32.72-16.12c-1.04-.48-1.98-.76-3.02-.66zm0 2.54c1.04-.1 1.9.1 2.83.57l31.13 15.28c1.6.85 2.73 2.27 3.2 4.15l7.64 34.32c.38 1.9 0 3.6-1.13 5.1l-21.5 27.53c-1.13 1.5-2.73 2.36-4.62 2.36h-34.5c-1.9 0-3.5-.85-4.63-2.36l-21.5-27.53c-.1-.1-.2-.3-.3-.48-.94-1.4-1.22-2.92-.84-4.62l7.64-34.32c.47-1.88 1.5-3.3 3.2-4.15l31.12-15.27c.75-.37 1.4-.56 2.26-.65z" stroke="#000" stroke-opacity="0" stroke-width="3.83" fill="#fff"/><path d="M559.94 614.26c-.24.5-.56.88-.96 1.1-.4.23-.88.34-1.47.34-.97 0-1.7-.35-2.16-1.03-.46-.68-.7-1.72-.7-3.1 0-2.8.96-4.2 2.87-4.2.6 0 1.1.1 1.5.33.38.23.7.58.94 1.06v-4.23h1.3v9.36c0 .83 0 1.38.04 1.65h-1.24L560 615c-.03-.28-.03-.53-.03-.74zm-3.93-2.74c0 1.13.15 1.93.44 2.4.3.5.75.75 1.4.75.74 0 1.27-.27 1.6-.8.33-.52.5-1.33.5-2.44 0-1.06-.17-1.84-.5-2.33-.33-.5-.85-.75-1.58-.75-.65 0-1.12.26-1.42.76-.3.5-.43 1.3-.43 2.42zM564.23 611.82c0 .9.18 1.63.55 2.13.37.5.9.75 1.62.75.56 0 1-.12 1.35-.35.34-.23.57-.52.7-.88l1.13.33c-.47 1.27-1.52 1.9-3.18 1.9-1.16 0-2.03-.35-2.64-1.06-.6-.7-.9-1.76-.9-3.16 0-1.32.3-2.34.9-3.05.6-.7 1.47-1.06 2.6-1.06 2.28 0 3.43 1.42 3.43 4.26v.2zm4.2-1.03c-.06-.86-.26-1.47-.6-1.86-.36-.4-.85-.58-1.5-.58-.63 0-1.13.22-1.5.65-.37.44-.56 1.04-.6 1.8zM578.03 611.5c0 2.8-.95 4.2-2.86 4.2-1.2 0-2-.46-2.42-1.4h-.04c.03.04.04.46.04 1.26v3.14h-1.3v-9.55c0-.83 0-1.37-.04-1.64h1.25c0 .03.02.1.02.22.02.13.02.3.04.57l.03.5h.02c.24-.5.54-.85.92-1.08.38-.23.87-.35 1.5-.35.96 0 1.68.33 2.15 1 .47.66.7 1.7.7 3.13zm-1.36.02c0-1.1-.14-1.92-.43-2.4-.3-.48-.77-.72-1.4-.72-.52 0-.92.12-1.2.34-.3.22-.52.57-.67 1.05-.16.45-.23 1.07-.23 1.82 0 1.07.17 1.84.5 2.34.32.5.85.74 1.58.74.65 0 1.1-.23 1.4-.72.3-.5.45-1.3.45-2.46zM579.65 615.55v-11.02h1.3v11.02zM589.53 611.53c0 1.4-.3 2.45-.9 3.14-.6.7-1.48 1.03-2.62 1.03-1.13 0-1.98-.36-2.57-1.07-.58-.72-.87-1.76-.87-3.1 0-2.78 1.16-4.16 3.5-4.16 1.2 0 2.06.34 2.62 1 .57.7.85 1.74.85 3.16zm-1.36 0c0-1.1-.17-1.92-.5-2.42-.3-.5-.84-.74-1.6-.74-.75 0-1.3.25-1.64.77-.34.5-.5 1.3-.5 2.4 0 1.05.16 1.85.5 2.4.33.52.86.78 1.57.78.78 0 1.33-.24 1.66-.76.33-.52.5-1.32.5-2.4zM591.53 618.7c-.35 0-.65-.02-.9-.08v-1c.2.03.4.04.6.04.82 0 1.46-.6 1.93-1.83l.12-.32-3.1-8h1.4l1.64 4.46.08.24.32.98c.2.54.28.85.3.9l.5-1.45 1.7-5.12h1.38l-3 8.05c-.32.86-.62 1.5-.9 1.9-.28.42-.58.74-.93.94-.33.2-.7.3-1.14.3z" stroke="#000" stroke-opacity="0" fill="#fff"/><path d="M573.66 598.94c-12.77.62-23.63-9.5-24.28-22.62-.7-13.17 9.05-24.43 21.82-25.2 12.77-.76 23.72 9.2 24.56 22.38l-9.2.62c-.5-7.95-7.1-14-14.8-13.5-7.7.42-13.6 7.22-13.2 15.18.38 7.95 6.98 14.03 14.68 13.7z" stroke="#000" stroke-opacity="0" stroke-width="3.77" fill="#fff"/><path d="M578.43 573.5l7.3 18.44 16.87-18.43z" stroke="#000" stroke-opacity="0" stroke-width="3.77" fill="#fff"/><use xlink:href="#i" transform="matrix(1,0,0,1,498.81909735317754,634.5866615480038) translate(42.05 14.4)"/><path d="M484.16 902.8c-.85.08-1.52.24-2.2.58l-29.2 14.4c-1.6.75-2.7 2.1-3.03 3.86l-7.24 32.4c-.34 1.52-.1 3.04.75 4.38.08.17.17.26.34.43l20.2 25.92c1.08 1.43 2.6 2.2 4.36 2.2h32.5c1.76 0 3.28-.77 4.37-2.2l20.2-25.92c1.1-1.44 1.52-3.12 1.1-4.9l-7.24-32.3c-.35-1.77-1.44-3.12-3.04-3.88l-29.2-14.4c-.94-.4-1.78-.66-2.7-.58z" stroke="#000" stroke-opacity="0" stroke-width="3.83" fill="#326ce5"/><path d="M484.14 900.45c-.9.08-1.6.26-2.3.62L451 916.27c-1.7.8-2.84 2.2-3.2 4.08l-7.64 34.2c-.35 1.6-.1 3.2.8 4.63.1.18.18.26.36.44L462.64 987c1.16 1.5 2.76 2.3 4.62 2.3h34.3c1.86 0 3.46-.8 4.62-2.3l21.32-27.38c1.16-1.5 1.6-3.3 1.16-5.06l-7.64-34.2c-.36-1.88-1.5-3.3-3.2-4.1L487 901.06c-1-.44-1.88-.7-2.86-.6zm0 2.4c.98-.1 1.78.08 2.67.53l29.33 14.4c1.5.8 2.58 2.12 3.02 3.9l7.2 32.34c.35 1.78 0 3.38-1.07 4.8l-20.26 25.95c-1.06 1.42-2.57 2.22-4.35 2.22h-32.52c-1.78 0-3.3-.8-4.35-2.23l-20.26-25.95c-.1-.1-.18-.26-.27-.44-.9-1.33-1.15-2.76-.8-4.36l7.2-32.34c.44-1.78 1.42-3.1 3.02-3.9l29.3-14.4c.72-.36 1.34-.53 2.14-.62z" stroke="#000" stroke-opacity="0" stroke-width="3.83" fill="#fff"/><path d="M486 934.85v4.03h18.95v-4.03zM476.25 924.1v4.03h28.7v-4.03zM463.87 924.1v4.03h7.2v-4.03zM486.68 945.6v4.03h18.27v-4.04zM476.25 956.34v4.03h28.7v-4.03zM463.87 956.34v4.03h7.2v-4.03z" stroke="#000" stroke-opacity="0" stroke-width="3.77" fill="#fff"/><path d="M487.23 950.2c0 1.55-1.23 2.8-2.73 2.8s-2.74-1.25-2.74-2.8c0-1.56 1.23-2.82 2.74-2.82 1.5 0 2.73 1.26 2.73 2.82z" stroke="#000" stroke-opacity="0" stroke-width="3.77" fill="#326ce5"/><path d="M473.72 938.04l4.92.07c1.85-7.84 10.73-6.38 11.74.24l4.84-.3c-1.55-12.86-19.4-14.72-21.26-1.36z" stroke="#000" stroke-opacity="0" stroke-width="3.77" fill="#fff"/><path d="M484.4 927.04c-6.5 0-11.78 5.1-11.78 11.4 1.86-.02 5.86.1 6.5 0 0-2.55 2.3-4.7 5.27-4.7 2.96 0 5.26 2.15 5.26 4.7 1.13.04 5.87-.22 6.5 0 0-6.3-5.3-11.4-11.77-11.4zm0 1.34c5.52 0 9.76 4.22 10.2 9.4h-3.95c-.4-3-2.96-5.38-6.26-5.38s-5.87 2.37-6.27 5.38h-3.9c.4-5.18 4.63-9.4 10.16-9.4z" stroke="#000" stroke-opacity="0" stroke-width="3.77" fill="#326ce5"/><path d="M470.25 938.55h28v17.96h-28v-17.95z" stroke="#000" stroke-opacity="0" stroke-width="3.77" fill="#fff"/><path d="M470.02 937.6v19.92H499V937.6zm1.3 1.35h26.37v17.2h-26.37z" stroke="#000" stroke-opacity="0" stroke-width="3.77" fill="#326ce5"/><path d="M471.68 977.13c0 .7-.26 1.26-.8 1.65-.5.4-1.24.58-2.2.58-.9 0-1.6-.15-2.1-.46-.5-.3-.8-.8-.96-1.46l1.07-.22c.1.4.32.7.64.9.32.2.78.3 1.35.3.62 0 1.07-.1 1.35-.3.3-.2.44-.5.44-.9 0-.3-.1-.54-.3-.72-.2-.18-.53-.34-.97-.46l-.88-.24c-.7-.2-1.2-.37-1.5-.55-.3-.18-.52-.4-.7-.66-.16-.26-.24-.58-.24-.95 0-.68.24-1.2.72-1.57.48-.37 1.18-.55 2.1-.55.8 0 1.44.15 1.92.44.48.3.78.77.9 1.42l-1.1.13c-.06-.34-.24-.6-.54-.78-.3-.18-.7-.26-1.2-.26-.54 0-.95.07-1.2.25-.27.17-.4.43-.4.78 0 .2.05.4.16.53.1.14.27.26.48.35.22.12.66.25 1.34.42.65.17 1.12.32 1.4.47.3.13.5.3.68.46.16.17.3.37.38.6.1.22.14.48.14.77zM474.05 975.7c0 .87.17 1.54.52 2 .35.5.86.72 1.53.72.53 0 .95-.1 1.27-.33.32-.23.54-.5.65-.84l1.07.3c-.44 1.2-1.44 1.8-3 1.8-1.1 0-1.92-.33-2.48-1-.57-.66-.85-1.66-.85-2.97 0-1.26.28-2.22.85-2.9.56-.66 1.38-1 2.44-1 2.15 0 3.23 1.36 3.23 4.03v.17zm3.98-.96c-.07-.8-.27-1.38-.6-1.74-.32-.37-.8-.55-1.4-.55-.6 0-1.06.2-1.4.6-.36.42-.54.97-.56 1.7zM481.78 975.4c0 1 .16 1.76.47 2.25.3.48.77.72 1.4.72.42 0 .78-.12 1.07-.36.3-.24.48-.6.55-1.12l1.23.1c-.1.72-.4 1.3-.9 1.73-.5.44-1.15.66-1.93.66-1.03 0-1.8-.33-2.35-1-.54-.67-.8-1.64-.8-2.93 0-1.27.26-2.24.8-2.9.54-.68 1.32-1.02 2.33-1.02.76 0 1.38.22 1.87.62.5.4.8.95.94 1.65l-1.25.1c-.06-.42-.22-.75-.48-1s-.62-.37-1.1-.37c-.64 0-1.1.22-1.4.66-.3.45-.44 1.2-.44 2.25zM487.83 979.22v-5.8c0-.54 0-1.12-.04-1.77h1.14l.06 1.55h.02c.2-.65.42-1.1.68-1.33.25-.24.6-.36 1.07-.36.16 0 .33.04.5.08v1.16c-.17-.05-.38-.07-.65-.07-.5 0-.9.22-1.16.68-.27.44-.4 1.08-.4 1.92v3.95zM493.38 975.7c0 .87.17 1.54.53 2 .35.5.86.72 1.53.72.53 0 .95-.1 1.27-.33.32-.23.54-.5.65-.84l1.08.3c-.44 1.2-1.44 1.8-3 1.8-1.1 0-1.92-.33-2.48-1-.57-.66-.85-1.66-.85-2.97 0-1.26.28-2.22.85-2.9.56-.66 1.38-1 2.44-1 2.15 0 3.22 1.36 3.22 4.03v.17zm3.98-.96c-.07-.8-.26-1.38-.6-1.74-.32-.37-.8-.55-1.4-.55-.6 0-1.06.2-1.4.6-.35.42-.54.97-.56 1.7zM503 979.17c-.4.1-.8.16-1.23.16-.98 0-1.47-.57-1.47-1.7v-5.06h-.84v-.9h.9l.35-1.7h.83v1.7h1.36v.9h-1.37v4.78c0 .36.05.62.17.77.1.15.32.2.6.2.16 0 .4-.02.7-.08z" stroke="#000" stroke-opacity="0" fill="#fff"/><path d="M487.24 947.56c0 1.56-1.22 2.82-2.73 2.82-1.5 0-2.73-1.26-2.73-2.82 0-1.56 1.23-2.82 2.74-2.82 1.52 0 2.74 1.26 2.74 2.82z" stroke="#000" stroke-opacity="0" stroke-width="3.77" fill="#326ce5"/><use xlink:href="#j" transform="matrix(1,0,0,1,409.9831806563885,998.2987731859336) translate(0.5999999999999943 14.4)"/><use xlink:href="#k" transform="matrix(1,0,0,1,409.9831806563885,998.2987731859336) translate(96.5 14.4)"/><path d="M744.16 902.77c-.84.1-1.5.26-2.18.6l-29.2 14.4c-1.6.74-2.7 2.1-3.04 3.86l-7.24 32.4c-.34 1.52-.08 3.03.76 4.38.08.18.17.26.33.43l20.2 25.92c1.1 1.43 2.6 2.2 4.37 2.2h32.5c1.76 0 3.27-.77 4.37-2.2l20.2-25.92c1.1-1.43 1.5-3.12 1.1-4.88l-7.24-32.32c-.34-1.77-1.44-3.12-3.03-3.87l-29.2-14.4c-.94-.42-1.78-.67-2.7-.6z" stroke="#000" stroke-opacity="0" stroke-width="3.83" fill="#326ce5"/><path d="M744.15 900.43c-.9.1-1.6.27-2.3.62L711 916.25c-1.68.8-2.83 2.22-3.2 4.08l-7.63 34.2c-.36 1.6-.1 3.2.8 4.63.1.18.18.27.35.45l21.33 27.37c1.15 1.5 2.75 2.3 4.62 2.3h34.3c1.86 0 3.46-.8 4.62-2.3l21.3-27.36c1.17-1.5 1.6-3.28 1.17-5.06l-7.64-34.2c-.36-1.87-1.52-3.3-3.2-4.1L747 901.05c-.98-.43-1.87-.7-2.85-.6zm0 2.4c.98-.1 1.78.1 2.67.53l29.32 14.4c1.5.8 2.58 2.13 3.02 3.9l7.2 32.35c.35 1.78 0 3.38-1.07 4.8l-20.27 25.95c-1.06 1.42-2.57 2.22-4.35 2.22h-32.52c-1.78 0-3.3-.8-4.36-2.22l-20.25-25.94c-.1-.08-.18-.26-.27-.44-.9-1.33-1.16-2.75-.8-4.35l7.2-32.33c.44-1.78 1.42-3.1 3.02-3.9l29.32-14.4c.7-.36 1.33-.54 2.13-.63z" stroke="#000" stroke-opacity="0" stroke-width="3.83" fill="#fff"/><path d="M734.63 921.93v3.8h2.6v-2.45h5.4v-2.7h-6.68c-1.08 0-1.32.36-1.32 1.35zm13.2 1.35h10.42v-2.7h-10.42zm15.63 0h3.3v4.64h2.6v-6c0-1.06-.54-1.32-1.3-1.34h-4.6zm-28.83 9.16v9.4h2.6V931.1h-2.6zm32.14 2.2v9.43h2.6V933.3h-2.6zm-28.88 11.9h10.42v-2.7H737.9zm21.57 0h4.48v-2.7h-4.48z" stroke="#000" stroke-opacity="0" stroke-width="3.77" fill="#fff"/><path d="M727.05 929.1v4.87h2.6v-3.53H734v-2.7h-5.63c-1.08 0-1.32.37-1.32 1.35zm12.2 1.34h10.38v-2.7h-10.4zm15.6 0h4.34v3.58h2.6v-4.93c0-.84-.36-1.38-1.3-1.36h-5.66zm-27.8 10.25v9.4h2.6v-10.76h-2.6zm32.14.05v9.4h2.6V939.4h-2.6zm-27.85 12.95h10.43v-2.68h-10.43zm15.64 0h10.4v-2.68H747z" stroke="#000" stroke-opacity="0" stroke-width="3.77" fill="#fff"/><path d="M719.47 959.57V934.9l33.26.03c1.04 0 1.5.9 1.5 1.54l-.04 23.05c-.04.88-.74 1.37-1.43 1.35H720.8c-.6 0-1.36-.5-1.33-1.3z" stroke="#000" stroke-opacity="0" stroke-width="3.77" fill="#fff"/><path d="M736.6 937.26c-3.8 0-7.26.45-9.86 1.2-1.3.37-2.4.84-3.27 1.44-.86.6-1.63 1.46-1.63 2.65v10.68c0 1.2.77 2.04 1.63 2.63.88.62 1.97 1.06 3.27 1.45 2.6.77 6.05 1.22 9.85 1.22s7.25-.45 9.84-1.2c1.3-.4 2.4-.84 3.28-1.46.85-.6 1.62-1.44 1.62-2.63v-10.68c0-1.2-.77-2.06-1.62-2.65-.9-.6-1.98-1.07-3.28-1.45-2.6-.74-6.04-1.2-9.85-1.2zm0 2.68c3.6 0 6.86.44 9.13 1.1 1.15.34 2 .75 2.5 1.1.5.33.5.5.5.4 0-.1 0 .08-.5.44-.5.34-1.35.72-2.5 1.06-2.27.66-5.54 1.1-9.14 1.1-3.6 0-6.88-.44-9.15-1.1-1.15-.34-2-.72-2.5-1.06-.5-.36-.5-.53-.5-.43 0 .1 0-.08.5-.42.5-.34 1.35-.75 2.5-1.1 2.27-.65 5.54-1.1 9.14-1.1zm-12.16 5.67c.7.38 1.4.76 2.3 1.03 2.6.77 6.05 1.22 9.85 1.22s7.25-.45 9.84-1.22c.92-.27 1.6-.65 2.3-1.02v7.63c0-.1 0 .08-.5.42-.5.34-1.36.74-2.5 1.06-2.28.7-5.55 1.14-9.15 1.14-3.6 0-6.88-.45-9.15-1.13-1.15-.3-2-.7-2.5-1.05-.5-.34-.5-.5-.5-.42z" stroke="#000" stroke-opacity="0" stroke-width="3.77" fill="#326ce5"/><path d="M741.5 977.78c0 .7-.27 1.26-.8 1.65-.52.4-1.24.58-2.2.58-.9 0-1.6-.14-2.1-.45-.5-.3-.82-.8-.97-1.46l1.08-.22c.1.4.33.7.65.9.33.18.8.28 1.36.28.64 0 1.08-.1 1.37-.3.3-.2.44-.5.44-.88 0-.3-.1-.55-.3-.73-.2-.18-.5-.34-.96-.46l-.87-.25c-.7-.2-1.2-.37-1.5-.55-.3-.18-.53-.4-.7-.66-.16-.25-.25-.57-.25-.94 0-.68.24-1.2.72-1.57.48-.37 1.17-.55 2.1-.55.8 0 1.44.15 1.92.44.48.3.78.77.9 1.42l-1.1.14c-.06-.34-.25-.6-.54-.78-.3-.18-.7-.26-1.2-.26-.54 0-.95.08-1.22.26-.26.17-.4.43-.4.78 0 .2.07.4.17.53.1.15.27.27.48.36.22.1.66.24 1.35.4.65.18 1.1.33 1.4.48.28.14.5.3.67.47.17.18.3.38.4.6.08.23.12.5.12.78zM745.76 979.86c-.4.1-.82.17-1.24.17-.97 0-1.46-.57-1.46-1.72v-5.04h-.85v-.9h.9l.36-1.7h.82v1.7h1.36v.9h-1.36v4.78c0 .37.05.62.17.77.12.16.32.23.6.23.16 0 .4-.03.7-.1zM752.3 977.78c0 .7-.26 1.26-.8 1.65-.5.4-1.24.58-2.18.58-.9 0-1.62-.14-2.12-.45-.5-.3-.8-.8-.96-1.46l1.08-.22c.1.4.32.7.64.9.33.18.78.28 1.36.28.62 0 1.07-.1 1.35-.3.3-.2.44-.5.44-.88 0-.3-.1-.55-.3-.73-.2-.18-.5-.34-.95-.46l-.88-.25c-.7-.2-1.2-.37-1.5-.55-.3-.18-.52-.4-.7-.66-.16-.25-.24-.57-.24-.94 0-.68.23-1.2.7-1.57.5-.37 1.2-.55 2.1-.55.8 0 1.45.15 1.93.44.48.3.78.77.9 1.42l-1.1.14c-.06-.34-.24-.6-.54-.78-.3-.18-.7-.26-1.2-.26-.54 0-.95.08-1.2.26-.27.17-.4.43-.4.78 0 .2.05.4.16.53.1.15.27.27.48.36.22.1.67.24 1.34.4.65.18 1.12.33 1.4.48.3.14.5.3.68.47.16.18.3.38.4.6.08.23.12.5.12.78z" stroke="#000" stroke-opacity="0" fill="#fff"/><use xlink:href="#l" transform="matrix(1,0,0,1,669.9915903281942,998.2819538423221) translate(30.574999999999996 14.4)"/><use xlink:href="#m" transform="matrix(1,0,0,1,669.9915903281942,998.2819538423221) translate(36.025 36)"/><path d="M576.46 747.97l.4 3 1.14 2.77 1.84 2.4 2.4 1.82 2.74 1.14 3.02.4h116.83l3.2.42 3 1.24 2.6 2 2 2.6 1.24 3 .43 3.2v125.05h-1V772.04l-.4-3-1.14-2.77-1.84-2.4-2.4-1.82-2.74-1.14-3.02-.4H587.93l-3.2-.42-3-1.24-2.6-2-2-2.6-1.24-3-.44-3.2V626.08h1z" fill="#6392f0"/><path d="M576.46 626.1h-1v-.5h1zM716.8 911.78l-4.64-14.27h9.27z" fill="#6392f0"/><path d="M716.8 913.4l-5.33-16.4h10.65zm-3.95-15.4l3.95 12.16 3.94-12.15z" fill="#6392f0"/><use xlink:href="#n" transform="matrix(1,0,0,1,634.8953113148531,808.0894760968331) translate(0 14.4)"/><use xlink:href="#e" transform="matrix(1,0,0,1,634.8953113148531,808.0894760968331) translate(20 14.4)"/><path d="M527 944.87h10.6m10.6 0h21.18m10.6 0h21.2m10.6 0h21.18m10.6 0h21.2m10.6 0h10.6" stroke="#6392f0" fill="none"/><path d="M527 945.37h-.4l-.22-1h.63z" fill="#6392f0"/><path d="M700.7 944.87l-14.25 4.64v-9.26z" stroke="#6392f0" fill="#6392f0"/><use xlink:href="#o" transform="matrix(1,0,0,1,566.9597242640356,919.2724051657334) translate(0 14.4)"/><path d="M1052.7 622.35c-.83.08-1.5.25-2.17.58l-29.2 14.4c-1.6.75-2.7 2.1-3.04 3.87l-7.25 32.4c-.34 1.52-.08 3.03.76 4.38.1.17.18.25.34.42l20.2 25.92c1.1 1.43 2.6 2.2 4.38 2.2h32.5c1.76 0 3.27-.77 4.37-2.2l20.2-25.92c1.08-1.43 1.5-3.1 1.08-4.88l-7.23-32.32c-.34-1.77-1.44-3.12-3.03-3.87l-29.2-14.4c-.94-.42-1.78-.67-2.7-.58z" stroke="#000" stroke-opacity="0" stroke-width="3.83" fill="#326ce5"/><path d="M1052.7 620c-.9.1-1.6.27-2.3.62l-30.84 15.2c-1.7.8-2.84 2.22-3.2 4.08l-7.64 34.2c-.36 1.6-.1 3.2.8 4.63.1.18.18.27.35.45l21.33 27.36c1.15 1.5 2.75 2.3 4.62 2.3h34.3c1.86 0 3.46-.8 4.62-2.3l21.32-27.36c1.16-1.5 1.6-3.3 1.16-5.07l-7.64-34.2c-.36-1.86-1.52-3.28-3.2-4.08l-30.84-15.2c-.97-.44-1.86-.7-2.84-.62zm0 2.4c.98-.1 1.78.1 2.67.53l29.32 14.4c1.5.8 2.57 2.13 3 3.9l7.2 32.35c.36 1.78 0 3.37-1.06 4.8l-20.26 25.94c-1.06 1.42-2.57 2.22-4.35 2.22h-32.52c-1.77 0-3.28-.8-4.35-2.22l-20.25-25.94c-.1-.1-.18-.27-.27-.45-.9-1.33-1.16-2.75-.8-4.35l7.2-32.34c.44-1.78 1.42-3.1 3.02-3.9l29.32-14.4c.7-.36 1.33-.54 2.13-.63z" stroke="#000" stroke-opacity="0" stroke-width="3.83" fill="#fff"/><path d="M1043.18 641.5v3.8h2.6v-2.45h5.4v-2.7h-6.68c-1.08 0-1.32.36-1.32 1.35zm13.2 1.35h10.42v-2.7h-10.42zm15.63 0h3.32v4.65h2.6v-6c0-1.07-.55-1.33-1.32-1.35h-4.6zM1043.2 652v9.4h2.6v-10.74h-2.6zm32.14 2.22v9.42h2.6v-10.77h-2.6zm-28.88 11.9h10.43v-2.7h-10.43zm21.58 0h4.48v-2.7h-4.48z" stroke="#000" stroke-opacity="0" stroke-width="3.77" fill="#fff"/><path d="M1035.6 648.66v4.88h2.6V650h4.35v-2.68h-5.63c-1.08 0-1.32.36-1.32 1.34zm12.2 1.35h10.38v-2.68h-10.4zm15.6 0h4.34v3.6h2.6v-4.94c0-.83-.35-1.37-1.28-1.34h-5.67zm-27.8 10.27v9.4h2.6V658.9h-2.6zm32.14.05v9.4h2.6v-10.75h-2.6zm-27.84 12.95h10.43v-2.68h-10.43zm15.64 0h10.42v-2.68h-10.42z" stroke="#000" stroke-opacity="0" stroke-width="3.77" fill="#fff"/><path d="M1028.02 679.14v-24.66l33.26.02c1.04 0 1.5.9 1.5 1.54l-.04 23.05c-.03.87-.73 1.37-1.42 1.34h-31.98c-.6 0-1.35-.5-1.32-1.3z" stroke="#000" stroke-opacity="0" stroke-width="3.77" fill="#fff"/><path d="M1045.14 656.83c-3.8 0-7.25.45-9.85 1.2-1.3.37-2.4.84-3.28 1.44-.86.6-1.63 1.46-1.63 2.65v10.68c0 1.2.76 2.04 1.62 2.63.88.62 1.97 1.07 3.27 1.45 2.6.76 6.04 1.2 9.84 1.2s7.26-.44 9.85-1.2c1.3-.38 2.38-.83 3.27-1.45.85-.6 1.62-1.44 1.62-2.63v-10.68c0-1.2-.78-2.06-1.63-2.65-.9-.6-1.98-1.07-3.28-1.45-2.6-.74-6.05-1.2-9.86-1.2zm0 2.68c3.6 0 6.87.45 9.14 1.1 1.15.35 2 .76 2.5 1.1.5.34.5.5.5.42 0-.1 0 .07-.5.43-.5.34-1.35.72-2.5 1.06-2.27.67-5.54 1.12-9.14 1.12-3.6 0-6.87-.45-9.14-1.1-1.15-.35-2-.73-2.5-1.07-.5-.36-.5-.53-.5-.43 0 .1 0-.08.5-.42.5-.34 1.35-.75 2.5-1.1 2.27-.65 5.54-1.1 9.14-1.1zM1033 665.2c.7.37 1.38.75 2.3 1.03 2.6.77 6.04 1.22 9.84 1.22s7.26-.45 9.85-1.2c.9-.3 1.58-.67 2.3-1.04v7.62c0-.1 0 .08-.5.42-.5.34-1.37.75-2.52 1.06-2.27.68-5.54 1.13-9.14 1.13-3.6 0-6.87-.44-9.14-1.12-1.15-.3-2-.72-2.5-1.06-.5-.34-.5-.5-.5-.42z" stroke="#000" stroke-opacity="0" stroke-width="3.77" fill="#326ce5"/><path d="M1050.04 697.35c0 .7-.26 1.26-.78 1.65-.53.4-1.25.58-2.2.58-.9 0-1.62-.15-2.1-.46-.5-.3-.83-.8-.98-1.45l1.08-.22c.1.4.32.7.64.9.33.18.8.28 1.36.28.63 0 1.07-.1 1.36-.3.3-.2.44-.5.44-.88 0-.3-.1-.54-.3-.73-.2-.18-.52-.34-.97-.46l-.88-.24c-.7-.2-1.2-.37-1.5-.55-.3-.18-.53-.4-.7-.65-.16-.26-.25-.58-.25-.94 0-.7.24-1.22.72-1.58.47-.37 1.16-.55 2.08-.55.8 0 1.45.15 1.93.44.5.3.8.76.92 1.4l-1.1.15c-.07-.34-.26-.6-.55-.77-.3-.18-.7-.27-1.2-.27-.54 0-.95.1-1.22.27-.26.17-.4.43-.4.78 0 .2.07.4.17.53.1.14.27.26.48.36.22.1.66.23 1.35.4.65.17 1.1.32 1.4.47.28.15.5.3.67.48.17.17.3.37.4.6.08.22.12.48.12.77zM1054.3 699.43c-.4.1-.8.17-1.23.17-.97 0-1.46-.57-1.46-1.7v-5.07h-.84v-.9h.9l.35-1.7h.83v1.7h1.36v.9h-1.37v4.78c0 .38.05.63.17.78.12.15.32.22.6.22.16 0 .4-.03.7-.1zM1060.85 697.35c0 .7-.26 1.26-.8 1.65-.5.4-1.24.58-2.18.58-.9 0-1.62-.15-2.12-.46-.5-.3-.8-.8-.96-1.45l1.07-.22c.1.4.32.7.64.9.34.18.8.28 1.37.28.62 0 1.07-.1 1.35-.3.3-.2.44-.5.44-.88 0-.3-.1-.54-.3-.73-.2-.18-.52-.34-.96-.46l-.88-.24c-.7-.2-1.2-.37-1.5-.55-.3-.18-.52-.4-.7-.65-.16-.26-.24-.58-.24-.94 0-.7.23-1.22.7-1.58.5-.37 1.2-.55 2.1-.55.8 0 1.45.15 1.93.44.5.3.8.76.92 1.4l-1.1.15c-.07-.34-.25-.6-.55-.77-.3-.18-.7-.27-1.2-.27-.54 0-.95.1-1.2.27-.27.17-.4.43-.4.78 0 .2.05.4.16.53.1.14.27.26.5.36.2.1.65.23 1.32.4.65.17 1.12.32 1.4.47.3.15.5.3.68.48.16.17.3.37.4.6.08.22.12.48.12.77z" stroke="#000" stroke-opacity="0" fill="#fff"/><use xlink:href="#p" transform="matrix(1,0,0,1,978.5417472515801,717.8527360404005) translate(20.049999999999997 14.4)"/><use xlink:href="#q" transform="matrix(1,0,0,1,978.5417472515801,717.8527360404005) translate(58.05 14.4)"/><path d="M591.48 614.04l2.8 1.68 2.03 2.5 1.06 3.12.1 1.4v62.34l.4 3.02 1.14 2.75 1.84 2.4 2.4 1.82 2.74 1.15 3.02.4h118.22v1h-118.3l-3.2-.43-3-1.25-2.6-2-2-2.6-1.23-3-.44-3.2v-62.4l-.1-1.2-.94-2.83-1.82-2.24-2.48-1.5-3.05-.55.18-.98zm416 82.57v1H801.1v-1z" fill="#6392f0"/><path d="M588.17 614.44h-3.5v-1h3.5zM1022.23 697.1l-14.26 4.65v-9.27z" fill="#6392f0"/><path d="M1023.85 697.1l-16.38 5.33V691.8zm-15.38 3.96l12.14-3.95-12.13-3.94z" fill="#6392f0"/><use xlink:href="#r" transform="matrix(1,0,0,1,727.2198826510173,686.3113719832352) translate(0 14.4)"/><use xlink:href="#e" transform="matrix(1,0,0,1,727.2198826510173,686.3113719832352) translate(20 14.4)"/><path d="M633.43 594.66l3 1.25 2.6 2 2 2.6 1.24 3 .42 3.2v31.27l.38 3 1.15 2.77 1.83 2.4 2.4 1.82 2.75 1.14 3.02.4h27.13v1h-27.2l-3.2-.42-3-1.24-2.6-2-2-2.6-1.24-3-.4-3.2v-31.26l-.4-3.02-1.15-2.76-1.83-2.38-2.4-1.84-2.75-1.14-3-.4h-8.48v-1h8.52zm366.4 54.84v1H766.14v-1z" fill="#6392f0"/><path d="M621.7 595.24h-.9l.78-1h.12zM1012.88 648.47l-13.63 6.26-1.08-9.2z" fill="#6392f0"/><path d="M1014.5 648.28l-15.67 7.2-1.23-10.58zm-14.83 5.7l11.6-5.32-12.52-2.5z" fill="#6392f0"/><use xlink:href="#s" transform="matrix(1,0,0,1,681.354432766775,639.2) translate(0 14.4)"/><use xlink:href="#t" transform="matrix(1,0,0,1,681.354432766775,639.2) translate(20 14.4)"/><path d="M908.44 352.12c-.84.1-1.52.26-2.2.6l-29.2 14.4c-1.6.74-2.7 2.1-3.03 3.86l-7.23 32.4c-.33 1.52-.08 3.03.76 4.38.1.17.17.25.34.42l20.2 25.92c1.1 1.43 2.6 2.2 4.38 2.2h32.5c1.75 0 3.27-.77 4.36-2.2l20.2-25.92c1.1-1.43 1.53-3.12 1.1-4.88l-7.23-32.32c-.34-1.77-1.43-3.12-3.03-3.87l-29.2-14.4c-.93-.4-1.78-.66-2.7-.58z" stroke="#000" stroke-opacity="0" stroke-width="3.83" fill="#326ce5"/><path d="M908.43 349.78c-.9.1-1.6.27-2.3.62l-30.85 15.2c-1.68.8-2.84 2.22-3.2 4.08l-7.64 34.2c-.35 1.6-.1 3.2.8 4.63.1.2.18.28.36.46l21.32 27.36c1.16 1.5 2.76 2.3 4.62 2.3h34.3c1.87 0 3.47-.8 4.62-2.3l21.33-27.36c1.14-1.52 1.6-3.3 1.14-5.07l-7.64-34.22c-.36-1.86-1.5-3.3-3.2-4.1l-30.83-15.18c-.98-.44-1.87-.7-2.84-.62zm0 2.4c.97-.1 1.77.1 2.66.53l29.3 14.4c1.52.8 2.6 2.14 3.03 3.9l7.2 32.36c.36 1.77 0 3.37-1.07 4.8L929.3 434.1c-1.06 1.42-2.57 2.22-4.35 2.22h-32.52c-1.77 0-3.3-.8-4.35-2.22l-20.26-25.94c-.1-.1-.18-.27-.27-.45-.88-1.32-1.15-2.74-.8-4.34l7.2-32.35c.45-1.76 1.42-3.1 3.02-3.9l29.32-14.4c.7-.34 1.33-.52 2.13-.6z" stroke="#000" stroke-opacity="0" stroke-width="3.83" fill="#fff"/><path d="M898.9 371.28v3.8h2.6v-2.45h5.4v-2.7h-6.68c-1.08 0-1.32.36-1.32 1.35zm13.2 1.35h10.43v-2.7H912.1zm15.64 0h3.3v4.64h2.6v-6c0-1.06-.55-1.32-1.3-1.34h-4.6zm-28.84 9.16v9.4h2.6v-10.76h-2.6zm32.14 2.2v9.42h2.6v-10.77h-2.6zm-28.87 11.9h10.42v-2.7h-10.43zm21.57 0h4.5v-2.7h-4.5z" stroke="#000" stroke-opacity="0" stroke-width="3.77" fill="#fff"/><path d="M891.32 378.44v4.88h2.6v-3.53h4.35v-2.7h-5.63c-1.08 0-1.32.36-1.32 1.34zm12.2 1.35h10.4v-2.7h-10.4zm15.6 0h4.34v3.57h2.6v-4.93c0-.83-.34-1.37-1.28-1.35h-5.66zm-27.8 10.24v9.4h2.6V388.7h-2.6zm32.14.06v9.4h2.6v-10.75h-2.6zm-27.83 12.95h10.42v-2.68h-10.42zm15.63 0h10.43v-2.68h-10.44z" stroke="#000" stroke-opacity="0" stroke-width="3.77" fill="#fff"/><path d="M883.75 408.92v-24.66l33.26.02c1.05 0 1.5.9 1.5 1.54l-.03 23.05c-.04.88-.73 1.37-1.43 1.35h-31.97c-.6 0-1.36-.5-1.32-1.3z" stroke="#000" stroke-opacity="0" stroke-width="3.77" fill="#fff"/><path d="M900.87 386.6c-3.8 0-7.26.46-9.86 1.2-1.28.38-2.37.85-3.26 1.44-.85.6-1.62 1.47-1.62 2.66v10.67c0 1.2.77 2.05 1.62 2.64.9.63 1.98 1.07 3.27 1.46 2.6.76 6.06 1.2 9.87 1.2 3.8 0 7.25-.44 9.85-1.2 1.3-.4 2.4-.83 3.27-1.45.85-.58 1.6-1.43 1.6-2.63V391.9c0-1.2-.75-2.06-1.6-2.66-.9-.6-2-1.06-3.28-1.44-2.6-.74-6.05-1.2-9.85-1.2zm0 2.7c3.6 0 6.87.43 9.14 1.1 1.16.33 2 .74 2.52 1.08.5.34.5.5.5.42 0-.1 0 .07-.5.43-.5.34-1.36.72-2.5 1.06-2.28.65-5.56 1.1-9.15 1.1-3.6 0-6.88-.45-9.15-1.1-1.15-.35-2-.73-2.5-1.07-.5-.36-.5-.53-.5-.43 0 .1 0-.08.5-.42.5-.34 1.35-.75 2.5-1.1 2.27-.65 5.55-1.1 9.15-1.1zm-12.16 5.66c.72.37 1.4.75 2.3 1.02 2.6.77 6.06 1.22 9.87 1.22 3.8 0 7.25-.45 9.85-1.22.9-.27 1.6-.65 2.3-1.02v7.6c0-.07 0 .1-.5.44-.5.34-1.36.74-2.5 1.06-2.28.68-5.56 1.13-9.15 1.13-3.6 0-6.88-.46-9.15-1.14-1.15-.32-2-.72-2.5-1.06-.5-.34-.5-.5-.5-.43z" stroke="#000" stroke-opacity="0" stroke-width="3.77" fill="#326ce5"/><path d="M905.77 427.13c0 .7-.26 1.26-.8 1.65-.5.4-1.24.58-2.18.58-.92 0-1.63-.15-2.13-.46-.5-.3-.8-.8-.96-1.46l1.1-.2c.1.4.3.7.63.9.32.17.78.27 1.36.27.6 0 1.06-.1 1.34-.3.3-.2.44-.48.44-.87 0-.3-.1-.55-.3-.73-.2-.18-.52-.34-.96-.46l-.88-.24c-.7-.2-1.2-.37-1.5-.55-.3-.18-.52-.4-.7-.66-.16-.26-.24-.58-.24-.95 0-.68.23-1.2.7-1.57.5-.37 1.2-.55 2.1-.55.8 0 1.45.15 1.93.44.48.3.78.77.9 1.42l-1.1.13c-.06-.34-.24-.6-.54-.78-.3-.18-.7-.26-1.2-.26-.55 0-.96.07-1.22.25-.26.17-.4.43-.4.78 0 .2.06.4.17.53.1.14.27.26.48.35.22.12.66.25 1.34.42.65.17 1.12.32 1.4.47.3.13.5.3.68.46.16.17.3.37.38.6.1.22.14.48.14.77zM910.03 429.2c-.4.12-.8.18-1.23.18-.98 0-1.47-.57-1.47-1.72v-5.05h-.85v-.9h.9l.36-1.7h.8v1.7h1.37v.9h-1.35v4.8c0 .36.06.6.17.76.12.15.32.22.6.22.17 0 .4-.03.7-.1zM916.57 427.13c0 .7-.26 1.26-.8 1.65-.5.4-1.23.58-2.18.58-.92 0-1.63-.15-2.12-.46-.5-.3-.82-.8-.97-1.46l1.1-.2c.1.4.3.7.63.9.33.17.8.27 1.36.27.62 0 1.06-.1 1.35-.3.3-.2.43-.48.43-.87 0-.3-.1-.55-.3-.73-.2-.18-.5-.34-.96-.46l-.87-.24c-.7-.2-1.2-.37-1.5-.55-.3-.18-.53-.4-.7-.66-.16-.26-.25-.58-.25-.95 0-.68.24-1.2.72-1.57.48-.37 1.17-.55 2.1-.55.8 0 1.44.15 1.92.44.48.3.78.77.9 1.42l-1.1.13c-.06-.34-.25-.6-.54-.78-.3-.18-.7-.26-1.2-.26-.54 0-.95.07-1.22.25-.26.17-.4.43-.4.78 0 .2.07.4.17.53.1.14.27.26.5.35.2.12.65.25 1.33.42.65.17 1.1.32 1.4.47.28.13.5.3.67.46.17.17.3.37.4.6.08.22.12.48.12.77z" stroke="#000" stroke-opacity="0" fill="#fff"/><use xlink:href="#u" transform="matrix(1,0,0,1,834.2660412104824,447.6318443767044) translate(8.049999999999997 14.4)"/><use xlink:href="#v" transform="matrix(1,0,0,1,834.2660412104824,447.6318443767044) translate(73.05 14.4)"/><path d="M1004.17 902.8c-.84.08-1.5.24-2.2.58l-29.2 14.4c-1.6.75-2.7 2.1-3.02 3.86l-7.24 32.4c-.33 1.52-.08 3.04.77 4.38.08.17.16.26.33.43l20.2 25.92c1.1 1.43 2.6 2.2 4.38 2.2h32.5c1.76 0 3.27-.77 4.37-2.2l20.2-25.92c1.1-1.44 1.5-3.12 1.1-4.9l-7.25-32.3c-.33-1.77-1.43-3.12-3.03-3.88l-29.2-14.4c-.93-.4-1.77-.66-2.7-.58z" stroke="#000" stroke-opacity="0" stroke-width="1.01" fill="#326ce5"/><path d="M1004.16 900.45c-.9.08-1.6.26-2.3.62L971 916.27c-1.7.8-2.85 2.2-3.2 4.08l-7.64 34.2c-.36 1.6-.1 3.2.8 4.63.1.18.18.26.35.44L982.66 987c1.15 1.5 2.75 2.3 4.62 2.3h34.3c1.86 0 3.46-.8 4.62-2.3l21.32-27.38c1.16-1.5 1.6-3.3 1.16-5.06l-7.65-34.2c-.35-1.88-1.5-3.3-3.2-4.1l-30.83-15.2c-.97-.44-1.86-.7-2.84-.6zm0 2.4c.98-.1 1.78.08 2.67.53l29.32 14.4c1.5.8 2.57 2.12 3.02 3.9l7.2 32.34c.35 1.78 0 3.38-1.07 4.8l-20.26 25.95c-1.07 1.42-2.58 2.22-4.35 2.22h-32.53c-1.78 0-3.3-.8-4.36-2.23l-20.25-25.95c-.08-.1-.17-.26-.26-.44-.9-1.33-1.17-2.76-.8-4.36l7.18-32.34c.45-1.78 1.43-3.1 3.03-3.9l29.33-14.4c.7-.36 1.33-.53 2.13-.62z" stroke="#000" stroke-opacity="0" stroke-width="1.01" fill="#fff"/><path d="M981.63 937.15c0 3.15 10.2 5.7 22.8 5.7 12.58 0 22.8-2.55 22.8-5.7v15.44c0 3.15-10.22 5.7-22.8 5.7-12.6 0-22.8-2.55-22.8-5.7z" stroke="#000" stroke-opacity="0" fill="#fff"/><path d="M981.63 937.15c0-3.15 10.2-5.7 22.8-5.7 12.58 0 22.8 2.55 22.8 5.7 0 3.15-10.22 5.7-22.8 5.7-12.6 0-22.8-2.55-22.8-5.7z" stroke="#000" stroke-opacity="0" fill="#fff"/><path d="M1004.43 930.77c-6.33 0-12.06.62-16.28 1.7-2.1.5-3.8 1.12-5.06 1.88-1.23.74-2.12 1.64-2.12 2.8v15.45c0 1.16.9 2.06 2.1 2.8 1.28.75 2.96 1.37 5.07 1.88 4.22 1.07 9.95 1.7 16.28 1.7 6.33 0 12.05-.63 16.27-1.7 2.1-.5 3.8-1.13 5.06-1.9 1.22-.72 2.1-1.62 2.1-2.78v-15.46c0-1.15-.88-2.05-2.1-2.8-1.26-.75-2.95-1.37-5.06-1.88-4.22-1.07-9.94-1.7-16.27-1.7zm0 1.33c6.23 0 11.9.65 15.94 1.66 2.06.5 3.66 1.13 4.74 1.75 1.1.63 1.46 1.22 1.46 1.64 0 .43-.37 1.02-1.45 1.64-1.07.65-2.67 1.24-4.73 1.75-4.03 1-9.7 1.66-15.94 1.66-9 0-16.84-1.4-20.3-3.2-.67-.33-1.13-.7-1.46-1.04-.28-.3-.38-.6-.38-.82 0-.42.37-1 1.45-1.63 1.07-.6 2.67-1.23 4.73-1.74 4.04-1 9.7-1.66 15.95-1.66zm22.13 6.77v13.73c0 .42-.37 1-1.45 1.63-1.07.63-2.67 1.25-4.73 1.75-4.03 1.02-9.7 1.67-15.94 1.67s-11.9-.65-15.95-1.67c-2.06-.5-3.66-1.12-4.73-1.75-1.08-.62-1.46-1.2-1.46-1.63v-13.3c.37.3.74.64 1.26.92 3.9 2.03 11.72 3.33 20.87 3.33 6.33 0 12.05-.65 16.27-1.72 2.1-.5 3.8-1.13 5.06-1.86.47-.3.7-.74.8-1.1z" stroke="#000" stroke-opacity="0" fill="#326ce5"/><path d="M1004.96 976.18c0 2.64-.9 3.96-2.7 3.96-1.13 0-1.9-.43-2.28-1.32h-.04c.02.04.03.44.03 1.2v2.95h-1.22v-9c0-.78-.02-1.3-.04-1.55h1.2v.2c.02.12.03.3.03.54l.03.48h.02c.22-.46.5-.8.86-1 .36-.24.83-.34 1.42-.34.9 0 1.58.3 2.02.94.45.62.68 1.6.68 2.94zm-1.28.02c0-1.04-.14-1.8-.42-2.25-.28-.46-.72-.68-1.32-.68-.48 0-.86.1-1.13.32-.27.2-.47.52-.62.97-.14.44-.2 1.03-.2 1.73 0 1 .15 1.73.45 2.2.3.47.8.7 1.5.7.6 0 1.05-.22 1.32-.68.28-.46.43-1.23.43-2.32zM1009.7 980h-1.44l-2.67-7.57h1.3l1.6 4.93c.07.18.23.73.48 1.66l.24-.82.26-.82 1.67-4.95h1.3z" stroke="#000" stroke-opacity="0" fill="#fff"/><use xlink:href="#w" transform="matrix(1,0,0,1,930,998.2987731859336) translate(21.549999999999997 14.4)"/><use xlink:href="#x" transform="matrix(1,0,0,1,930,998.2987731859336) translate(64.5 14.4)"/><path d="M788.5 944.86c0 .55-.44 1-1 1-.55 0-1-.45-1-1 0-.56.45-1 1-1 .56 0 1 .44 1 1zm4.05 0c0 .55-.45 1-1 1-.56 0-1-.45-1-1 0-.56.44-1 1-1 .55 0 1 .44 1 1zm4.04 0c0 .55-.46 1-1 1-.56 0-1-.45-1-1 0-.56.44-1 1-1 .54 0 1 .44 1 1zm4.03 0c0 .55-.45 1-1 1s-1-.45-1-1c0-.56.45-1 1-1s1 .44 1 1zm4.04 0c0 .55-.44 1-1 1-.55 0-1-.45-1-1 0-.56.45-1 1-1 .56 0 1 .44 1 1zm4.05 0c0 .55-.45 1-1 1-.56 0-1-.45-1-1s.44-1 1-1c.55 0 1 .45 1 1zm4.04 0c0 .55-.45 1-1 1s-1-.45-1-1 .45-1 1-1 1 .45 1 1zm4.04 0c0 .55-.45 1-1 1s-1-.45-1-1 .45-1 1-1 1 .45 1 1zm4.05 0c0 .55-.45 1-1 1-.56 0-1-.45-1-1s.44-1 1-1c.55 0 1 .45 1 1zm4.04 0c0 .55-.46 1-1 1-.56 0-1-.45-1-1s.44-1 1-1c.54 0 1 .45 1 1zm4.03 0c0 .55-.45 1-1 1s-1-.45-1-1 .45-1 1-1 1 .45 1 1zm4.04 0c0 .55-.44 1-1 1-.55 0-1-.45-1-1s.45-1 1-1c.56 0 1 .45 1 1zm4.05 0c0 .55-.45 1-1 1-.56 0-1-.45-1-1s.44-1 1-1c.55 0 1 .45 1 1zm4.04 0c0 .55-.45 1-1 1s-1-.45-1-1 .45-1 1-1 1 .45 1 1zm4.04 0c0 .55-.45 1-1 1s-1-.45-1-1 .45-1 1-1 1 .45 1 1zm4.04 0c0 .55-.44 1-1 1-.55 0-1-.45-1-1s.45-1 1-1c.56 0 1 .45 1 1zm4.05 0c0 .55-.46 1-1 1-.57 0-1-.45-1-1s.43-1 1-1c.54 0 1 .45 1 1zm4.03 0c0 .55-.45 1-1 1s-1-.45-1-1 .45-1 1-1 1 .45 1 1zm4.04 0c0 .55-.45 1-1 1s-1-.45-1-1 .45-1 1-1 1 .45 1 1zm4.05 0c0 .56-.45 1-1 1-.56 0-1-.44-1-1 0-.55.44-1 1-1 .55 0 1 .45 1 1zm4.04 0c0 .56-.45 1-1 1s-1-.44-1-1c0-.55.45-1 1-1s1 .45 1 1zm4.04 0c0 .56-.45 1-1 1s-1-.44-1-1c0-.55.45-1 1-1s1 .45 1 1zm4.04 0c0 .56-.44 1-1 1-.55 0-1-.44-1-1 0-.55.45-1 1-1 .56 0 1 .45 1 1zm4.05 0c0 .56-.46 1-1 1-.57 0-1-.44-1-1 0-.55.43-1 1-1 .54 0 1 .45 1 1zm4.03 0c0 .56-.45 1-1 1s-1-.44-1-1c0-.55.45-1 1-1s1 .45 1 1zm4.04 0c0 .56-.45 1-1 1s-1-.44-1-1c0-.55.45-1 1-1s1 .45 1 1zm4.04 0c0 .56-.43 1-1 1-.54 0-1-.44-1-1 0-.55.46-1 1-1 .57 0 1 .45 1 1zm4.06 0c0 .56-.45 1-1 1-.56 0-1-.44-1-1 0-.55.44-1 1-1 .55 0 1 .45 1 1zm4.04 0c0 .56-.45 1-1 1s-1-.44-1-1c0-.55.45-1 1-1s1 .45 1 1zm4.04 0c0 .56-.44 1-1 1-.55 0-1-.44-1-1 0-.55.45-1 1-1 .56 0 1 .45 1 1zm4.05 0c0 .56-.46 1-1 1-.57 0-1-.44-1-1 0-.55.43-1 1-1 .54 0 1 .45 1 1zm4.03 0c0 .56-.45 1-1 1s-1-.44-1-1c0-.54.45-1 1-1s1 .46 1 1zm4.04 0c0 .56-.45 1-1 1s-1-.44-1-1c0-.54.45-1 1-1s1 .46 1 1zm4.04 0c0 .56-.43 1-1 1-.54 0-1-.44-1-1 0-.54.46-1 1-1 .57 0 1 .46 1 1zm4.06 0c0 .56-.45 1-1 1-.56 0-1-.44-1-1 0-.54.44-1 1-1 .55 0 1 .46 1 1zm4.04 0c0 .56-.45 1-1 1s-1-.44-1-1c0-.54.45-1 1-1s1 .46 1 1zm4.04 0c0 .56-.45 1-1 1s-1-.44-1-1c0-.54.45-1 1-1s1 .46 1 1zm4.04 0c0 .56-.44 1-1 1-.55 0-1-.44-1-1 0-.54.45-1 1-1 .56 0 1 .46 1 1zm4.05 0c0 .56-.45 1-1 1s-1-.44-1-1c0-.54.45-1 1-1s1 .46 1 1zm4.04 0c0 .56-.45 1-1 1s-1-.44-1-1c0-.54.45-1 1-1s1 .46 1 1zm4.04 0c0 .56-.43 1-1 1-.54 0-1-.44-1-1 0-.54.46-1 1-1 .57 0 1 .46 1 1zm4.06 0c0 .56-.45 1-1 1-.56 0-1-.44-1-1 0-.54.44-1 1-1 .55 0 1 .46 1 1zm4.04 0c0 .56-.45 1-1 1s-1-.44-1-1c0-.54.45-1 1-1s1 .46 1 1zm4.04 0c0 .56-.45 1-1 1s-1-.44-1-1c0-.54.45-1 1-1s1 .46 1 1z" fill="#6392f0"/><path d="M787.53 943.86v2h-.8l-.45-2zM962.56 943.87l-.44 2h-.8v-2z" fill="#6392f0"/><path d="M1052.87 352.12c-.85.1-1.52.26-2.2.6l-29.2 14.4c-1.6.74-2.7 2.1-3.03 3.86l-7.24 32.4c-.34 1.52-.08 3.03.76 4.38.08.17.17.25.34.42l20.2 25.92c1.1 1.43 2.6 2.2 4.37 2.2h32.5c1.76 0 3.28-.77 4.37-2.2l20.2-25.92c1.1-1.43 1.52-3.12 1.1-4.88l-7.24-32.32c-.34-1.77-1.43-3.12-3.03-3.87l-29.2-14.4c-.94-.4-1.78-.66-2.7-.58z" stroke="#000" stroke-opacity="0" stroke-width="1.01" fill="#326ce5"/><path d="M1052.85 349.78c-.9.1-1.6.27-2.3.62l-30.84 15.2c-1.68.8-2.83 2.22-3.2 4.08l-7.63 34.2c-.36 1.6-.1 3.2.8 4.63.1.2.18.28.36.46l21.32 27.36c1.15 1.5 2.75 2.3 4.62 2.3h34.3c1.86 0 3.46-.8 4.62-2.3l21.3-27.36c1.17-1.52 1.6-3.3 1.17-5.07l-7.64-34.22c-.36-1.86-1.5-3.3-3.2-4.1l-30.83-15.18c-.98-.44-1.87-.7-2.85-.62zm0 2.4c.98-.1 1.78.1 2.67.53l29.32 14.4c1.5.8 2.58 2.14 3.02 3.9l7.2 32.36c.35 1.77 0 3.37-1.07 4.8l-20.27 25.94c-1.06 1.42-2.57 2.22-4.35 2.22h-32.52c-1.78 0-3.3-.8-4.36-2.22l-20.25-25.94c-.1-.1-.18-.27-.27-.45-.9-1.32-1.16-2.74-.8-4.34l7.2-32.35c.44-1.76 1.42-3.1 3.02-3.9l29.32-14.4c.7-.34 1.33-.52 2.13-.6z" stroke="#000" stroke-opacity="0" stroke-width="1.01" fill="#fff"/><path d="M1030.32 386.48c0 3.16 10.2 5.7 22.8 5.7 12.6 0 22.8-2.54 22.8-5.7v15.45c0 3.15-10.2 5.7-22.8 5.7-12.6 0-22.8-2.55-22.8-5.7z" stroke="#000" stroke-opacity="0" fill="#fff"/><path d="M1030.32 386.48c0-3.15 10.2-5.7 22.8-5.7 12.6 0 22.8 2.55 22.8 5.7 0 3.15-10.2 5.7-22.8 5.7-12.6 0-22.8-2.55-22.8-5.7z" stroke="#000" stroke-opacity="0" fill="#fff"/><path d="M1053.12 380.1c-6.33 0-12.05.62-16.27 1.7-2.1.5-3.8 1.12-5.07 1.9-1.22.72-2.1 1.62-2.1 2.78v15.45c0 1.16.88 2.06 2.1 2.8 1.27.76 2.96 1.38 5.07 1.88 4.22 1.1 9.94 1.7 16.27 1.7s12.05-.6 16.27-1.7c2.1-.5 3.8-1.1 5.06-1.88 1.22-.73 2.1-1.63 2.1-2.8V386.5c0-1.16-.88-2.06-2.1-2.8-1.27-.76-2.96-1.38-5.07-1.88-4.23-1.08-9.95-1.7-16.28-1.7zm0 1.33c6.24 0 11.9.65 15.94 1.66 2.07.5 3.66 1.12 4.74 1.74 1.08.62 1.45 1.2 1.45 1.64 0 .42-.37 1-1.45 1.63-1.08.66-2.67 1.25-4.74 1.76-4.03 1.02-9.7 1.67-15.94 1.67-9 0-16.84-1.4-20.3-3.2-.66-.33-1.13-.7-1.46-1.03-.28-.3-.38-.6-.38-.82 0-.43.38-1.02 1.46-1.64 1.08-.62 2.67-1.24 4.73-1.75 4.04-1.02 9.7-1.67 15.95-1.67zm22.13 6.77v13.73c0 .43-.37 1.02-1.45 1.64-1.08.62-2.67 1.24-4.74 1.75-4.03 1-9.7 1.66-15.94 1.66s-11.9-.65-15.95-1.66c-2.06-.5-3.65-1.13-4.73-1.75-1.08-.62-1.46-1.2-1.46-1.64v-13.3c.38.3.76.64 1.27.92 3.9 2.03 11.72 3.33 20.87 3.33 6.33 0 12.05-.65 16.27-1.72 2.1-.5 3.8-1.13 5.06-1.86.46-.28.7-.74.8-1.1z" stroke="#000" stroke-opacity="0" fill="#326ce5"/><path d="M1053.65 425.52c0 2.63-.9 3.96-2.7 3.96-1.13 0-1.9-.44-2.28-1.33h-.03c.02.05.02.44.02 1.2v2.96h-1.22v-9c0-.77-.02-1.3-.04-1.54h1.18l.02.2.02.53.03.47h.02c.22-.45.5-.8.87-1 .35-.23.82-.34 1.4-.34.92 0 1.6.3 2.03.94.45.62.68 1.6.68 2.95zm-1.28.02c0-1.05-.14-1.8-.4-2.26-.3-.45-.73-.68-1.33-.68-.5 0-.87.1-1.14.32-.28.2-.48.54-.63.98-.14.44-.2 1.03-.2 1.73 0 1 .15 1.73.45 2.2.3.47.8.7 1.5.7.6 0 1.05-.22 1.32-.68.28-.46.43-1.22.43-2.3zM1058.4 429.34h-1.45l-2.66-7.57h1.3l1.6 4.92c.06.18.22.73.47 1.65l.24-.82.27-.82 1.67-4.93h1.3z" stroke="#000" stroke-opacity="0" fill="#fff"/><use xlink:href="#y" transform="matrix(1,0,0,1,978.6924092306826,447.6318443767044) translate(40.55 14.4)"/><path d="M952.78 394.2c0 .56-.45 1-1 1s-1-.44-1-1c0-.55.45-1 1-1s1 .45 1 1zm3.88 0c0 .56-.45 1-1 1s-1-.44-1-1c0-.55.45-1 1-1s1 .45 1 1zm3.9 0c0 .56-.46 1-1 1-.57 0-1-.44-1-1 0-.55.43-1 1-1 .54 0 1 .45 1 1zm3.87 0c0 .56-.45 1-1 1s-1-.44-1-1c0-.55.45-1 1-1s1 .45 1 1zm3.88 0c0 .56-.44 1-1 1-.54 0-1-.44-1-1 0-.55.46-1 1-1 .56 0 1 .45 1 1zm3.9 0c0 .56-.45 1-1 1-.56 0-1-.44-1-1 0-.55.44-1 1-1 .55 0 1 .45 1 1zm3.88 0c0 .56-.45 1-1 1s-1-.44-1-1c0-.55.45-1 1-1s1 .45 1 1zm3.88 0c0 .56-.44 1-1 1-.55 0-1-.44-1-1 0-.55.45-1 1-1 .56 0 1 .45 1 1zm3.9 0c0 .56-.46 1-1 1-.56 0-1-.44-1-1 0-.55.44-1 1-1 .54 0 1 .45 1 1zm3.87 0c0 .56-.45 1-1 1s-1-.44-1-1c0-.55.45-1 1-1s1 .45 1 1zm3.88 0c0 .56-.43 1-1 1-.54 0-1-.44-1-1 0-.55.46-1 1-1 .57 0 1 .45 1 1zm3.9 0c0 .56-.45 1-1 1s-1-.44-1-1c0-.55.45-1 1-1s1 .45 1 1zm3.88 0c0 .56-.45 1-1 1s-1-.44-1-1c0-.55.45-1 1-1s1 .45 1 1zm3.9 0c0 .56-.46 1-1 1-.57 0-1-.44-1-1 0-.55.43-1 1-1 .54 0 1 .45 1 1zm3.87 0c0 .56-.45 1-1 1s-1-.44-1-1c0-.55.45-1 1-1s1 .45 1 1z" fill="#6392f0"/><path d="M951.8 395.2h-.8l-.45-2h1.25zM1010.8 395.2h-.8v-2h1.26zM741.12 540.05l-.42 3.2-1.24 3-2 2.6-2.6 2-3 1.24-3.2.4H615.14v-1H728.6l3-.38 2.76-1.14 2.4-1.84 1.83-2.4 1.13-2.74.4-3.02V483.9h1zm109.1-145.34h-97.56l-3.02.4-2.76 1.14-2.4 1.84-1.82 2.4-1.14 2.74-.4 3.02v56.07h-1v-56.13l.42-3.2 1.25-3 1.98-2.6 2.6-2 3-1.24 3.2-.42h97.64z" fill="#6392f0"/><path d="M615.15 552.5h-.32l-.4-1h.72zM865 394.2l-14.28 4.64v-9.27z" fill="#6392f0"/><path d="M866.6 394.2l-16.38 5.33v-10.65zm-15.38 3.95l12.15-3.94-12.15-3.94z" fill="#6392f0"/><use xlink:href="#z" transform="matrix(1,0,0,1,703.6733226558663,462.30969856620857) translate(0 14.4)"/><use xlink:href="#e" transform="matrix(1,0,0,1,703.6733226558663,462.30969856620857) translate(20 14.4)"/><path d="M773.68 741.97v155.6h-1V742.03l-.16-1.23h1zm-196.82-21l1.14 2.77 1.84 2.4 2.4 1.82 2.74 1.14 3.02.4h52v1h-52.07l-3.2-.42-3-1.24-2.6-2-2-2.6-1.24-3-.44-3.2v-91.95h1v91.87z" fill="#6392f0"/><path d="M576.46 626.1h-1v-.5h1zM773.18 912.34l-4.64-14.27h9.27z" fill="#6392f0"/><path d="M773.18 913.95l-5.33-16.38h10.65zm-3.95-15.38l3.95 12.15 3.94-12.15z" fill="#6392f0"/><use xlink:href="#A" transform="matrix(1,0,0,1,639.9913529420693,719.2) translate(0 14.4)"/><use xlink:href="#B" transform="matrix(1,0,0,1,639.9913529420693,719.2) translate(20 14.4)"/><use xlink:href="#C" transform="matrix(1,0,0,1,639.9913529420693,719.2) translate(79.80000000000001 14.4)"/><path d="M1044.2 578.36l3 1.25 2.6 2 2 2.6 1.25 3 .42 3.2v13.24h-1v-13.17l-.4-3-1.14-2.77-1.83-2.4-2.4-1.82-2.75-1.14-3-.4H913.3v-1H1041zm-423.07.58v-1h56.42v1z" fill="#6392f0"/><path d="M621.14 578.94h-.4l-.23-1h.64zM1052.97 618.4l-4.64-14.26h9.27z" fill="#6392f0"/><path d="M1052.97 620.02l-5.33-16.38h10.65zm-3.95-15.38l3.95 12.14 3.95-12.14z" fill="#6392f0"/><g><use xlink:href="#D" transform="matrix(1,0,0,1,677.5547954924475,567.6414024201509) translate(0 14.4)"/><use xlink:href="#E" transform="matrix(1,0,0,1,677.5547954924475,567.6414024201509) translate(20 14.4)"/><use xlink:href="#F" transform="matrix(1,0,0,1,677.5547954924475,567.6414024201509) translate(102.85000000000001 14.4)"/><use xlink:href="#v" transform="matrix(1,0,0,1,677.5547954924475,567.6414024201509) translate(167.85000000000002 14.4)"/></g><path d="M804.06 914.15l-7.78 6.4-.63-.78 7.78-6.4zm23.33-19.18l-15.56 12.8-.64-.78 15.55-12.8zm23.32-19.18l-15.55 12.78-.64-.77 15.55-12.78zm23.33-19.2l-15.56 12.8-.64-.77 15.55-12.8zm23.33-19.17l-15.56 12.8-.63-.8 15.54-12.77zm7.77-6.4l-.43-.52h1.07zm38.88-31.96l-11.97 9.84h-1.57l12.9-10.6zm23.33-19.18l-15.55 12.77-.63-.77 15.56-12.8zm23.33-19.2l-15.56 12.8-.64-.78 15.55-12.8zm23.32-19.18l-15.55 12.8-.64-.78 15.55-12.8zm23.33-19.18l-15.56 12.8-.64-.78 15.55-12.8zm15.55-12.78l-7.78 6.4-.63-.78 7.76-6.4z" fill="#6392f0"/><path d="M1052.9 709.56l-.6-.7h1.46zM798.52 924.06l-13.96 5.48 8.08-12.64z" fill="#6392f0"/><path d="M799.35 924.27l-16.04 6.3 9.3-14.52zm-13.54 4.24l11.9-4.66-5-6.1z" fill="#6392f0"/><g><use xlink:href="#G" transform="matrix(1,0,0,1,897.6646849408975,808.9093327216295) translate(0 14.4)"/></g><path d="M787.92 894.08l-2.58 9.68-.97-.26 2.58-9.67zm7.73-29.03l-5.16 19.36-.97-.25 5.15-19.36zm7.73-29.03l-5.15 19.35-.97-.25 5.15-19.36zM811.1 807l-5.14 19.34-.97-.26 5.15-19.35zm7.74-29.05l-5.15 19.36-.98-.25 5.16-19.35zm7.74-29.03l-5.16 19.36-.97-.26 5.16-19.36zm7.73-29.03l-5.15 19.34-.96-.25 5.14-19.37zm7.74-29.04l-5.16 19.35-.96-.24 5.15-19.36zm7.73-29.03l-5.15 19.35-.97-.26 5.15-19.35zm7.73-29.04l-5.15 19.35-.97-.26 5.16-19.36zm7.73-29.04l-5.15 19.36-.97-.26 5.17-19.36zm2.58-9.68l-.96-.25 1.23-4.6h1.03zm12.9-48.38l-5.16 19.35-.96-.26 5.15-19.36zm2.57-9.68l-.96-.26 2.34-8.74h1.03zm12.9-48.4l-4.75 17.8h-1.03l4.8-18.05zm7.72-29.02l-5.16 19.35-.97-.25 5.16-19.36zm5.15-19.36l-2.58 9.68-.97-.26 2.58-9.67z" fill="#6392f0"/><path d="M909.04 439.26l-.96-.26.1-.37h1.03zM789.2 905.3l-8.14 12.6-.8-14.98z" fill="#6392f0"/><path d="M790 905l-9.36 14.46-.93-17.2zm-8.53 11.34l6.94-10.73-7.6-2.02z" fill="#6392f0"/><g><use xlink:href="#G" transform="matrix(1,0,0,1,867.5543399713247,505.42127722423226) translate(0 14.4)"/></g><defs><path fill="#333" d="M665-137c214 0 337-121 336-332v-987h193v990c-3 300-218 486-529 486-309 0-526-181-525-484v-992h190v986c-1 210 123 333 335 333" id="H"/><path fill="#333" d="M538-131c121 0 232-49 232-156 0-50-20-88-56-117-73-60-334-92-420-143-92-55-162-110-162-238 0-190 192-317 400-317 223 0 414 129 413 338H759c0-108-110-186-227-186-119 0-215 53-215 159 0 45 18 78 53 101 76 52 331 90 416 139 98 57 169 115 169 251C955-92 760 20 538 20c-176 0-314-68-386-174-38-55-57-115-57-179h185c6 129 116 202 258 202" id="I"/><path fill="#333" d="M599-131c141 0 220-65 285-146l113 88C906-50 770 20 589 20 281 21 93-214 93-545c0-223 93-397 233-485 74-48 154-72 240-72 300 2 449 218 445 537v77H278c0 197 129 357 321 357zm227-509c-3-180-88-310-260-310-170 0-264 140-282 310h542" id="J"/><path fill="#333" d="M663-916c-163-27-288 18-338 148V0H140v-1082h180l3 125c61-97 147-145 258-145 36 0 63 5 82 14v172" id="K"/><g id="a"><use transform="matrix(0.0087890625,0,0,0.0087890625,0,0)" xlink:href="#H"/><use transform="matrix(0.0087890625,0,0,0.0087890625,11.671875,0)" xlink:href="#I"/><use transform="matrix(0.0087890625,0,0,0.0087890625,20.953125,0)" xlink:href="#J"/><use transform="matrix(0.0087890625,0,0,0.0087890625,30.4892578125,0)" xlink:href="#K"/></g><filter id="b" filterUnits="objectBoundingBox" x="-.01" y="0" width="1.03" height="1.02"><feOffset result="offOut" in="SourceAlpha" dy="1"/><feGaussianBlur result="blurOut" in="offOut" stdDeviation=".75"/><feColorMatrix result="colorOut" in="blurOut" values="0 0 0 0 0 0 0 0 0 0 0 0 0 0 0 0 0 0 0.4 0"/><feBlend in="SourceGraphic" in2="colorOut"/></filter><path d="M212-179c-10-28-35-45-73-45-59 0-87 40-87 99 0 60 29 101 89 101 43 0 62-24 78-52l27 14C228-24 195 4 139 4 59 4 22-46 18-125c-6-104 99-153 187-111 19 9 31 26 39 46" id="L"/><path d="M106-169C34-169 62-67 57 0H25v-261h32l-1 103c12-21 28-36 61-36 89 0 53 116 60 194h-32v-121c2-32-8-49-39-48" id="M"/><path d="M141-36C126-15 110 5 73 4 37 3 15-17 15-53c-1-64 63-63 125-63 3-35-9-54-41-54-24 1-41 7-42 31l-33-3c5-37 33-52 76-52 45 0 72 20 72 64v82c-1 20 7 32 28 27v20c-31 9-61-2-59-35zM48-53c0 20 12 33 32 33 41-3 63-29 60-74-43 2-92-5-92 41" id="N"/><path d="M117-194c89-4 53 116 60 194h-32v-121c0-31-8-49-39-48C34-167 62-67 57 0H25l-1-190h30c1 10-1 24 2 32 11-22 29-35 61-36" id="O"/><path d="M177-190C167-65 218 103 67 71c-23-6-38-20-44-43l32-5c15 47 100 32 89-28v-30C133-14 115 1 83 1 29 1 15-40 15-95c0-56 16-97 71-98 29-1 48 16 59 35 1-10 0-23 2-32h30zM94-22c36 0 50-32 50-73 0-42-14-75-50-75-39 0-46 34-46 75s6 73 46 73" id="P"/><path d="M100-194c63 0 86 42 84 106H49c0 40 14 67 53 68 26 1 43-12 49-29l28 8c-11 28-37 45-77 45C44 4 14-33 15-96c1-61 26-98 85-98zm52 81c6-60-76-77-97-28-3 7-6 17-6 28h103" id="Q"/><g id="c"><use transform="matrix(0.05,0,0,0.05,0,0)" xlink:href="#L"/><use transform="matrix(0.05,0,0,0.05,12.950000000000001,0)" xlink:href="#M"/><use transform="matrix(0.05,0,0,0.05,22.950000000000003,0)" xlink:href="#N"/><use transform="matrix(0.05,0,0,0.05,32.95,0)" xlink:href="#O"/><use transform="matrix(0.05,0,0,0.05,42.95,0)" xlink:href="#P"/><use transform="matrix(0.05,0,0,0.05,52.95,0)" xlink:href="#Q"/></g><path d="M27 0v-27h64v-190l-56 39v-29l58-41h29v221h61V0H27" id="R"/><path d="M33 0v-38h34V0H33" id="S"/><g id="d"><use transform="matrix(0.05,0,0,0.05,0,0)" xlink:href="#R"/><use transform="matrix(0.05,0,0,0.05,10,0)" xlink:href="#S"/></g><path d="M114-163C36-179 61-72 57 0H25l-1-190h30c1 12-1 29 2 39 6-27 23-49 58-41v29" id="T"/><path d="M59-47c-2 24 18 29 38 22v24C64 9 27 4 27-40v-127H5v-23h24l9-43h21v43h35v23H59v120" id="U"/><g id="e"><use transform="matrix(0.05,0,0,0.05,0,0)" xlink:href="#L"/><use transform="matrix(0.05,0,0,0.05,12.950000000000001,0)" xlink:href="#T"/><use transform="matrix(0.05,0,0,0.05,18.900000000000002,0)" xlink:href="#Q"/><use transform="matrix(0.05,0,0,0.05,28.900000000000002,0)" xlink:href="#N"/><use transform="matrix(0.05,0,0,0.05,38.900000000000006,0)" xlink:href="#U"/><use transform="matrix(0.05,0,0,0.05,43.900000000000006,0)" xlink:href="#Q"/></g><path d="M240 0l2-218c-23 76-54 145-80 218h-23L58-218 59 0H30v-248h44l77 211c21-75 51-140 76-211h43V0h-30" id="V"/><path d="M100-194c62-1 85 37 85 99 1 63-27 99-86 99S16-35 15-95c0-66 28-99 85-99zM99-20c44 1 53-31 53-75 0-43-8-75-51-75s-53 32-53 75 10 74 51 75" id="W"/><path d="M30-248c118-7 216 8 213 122C240-48 200 0 122 0H30v-248zM63-27c89 8 146-16 146-99s-60-101-146-95v194" id="X"/><path d="M160-131c35 5 61 23 61 61C221 17 115-2 30 0v-248c76 3 177-17 177 60 0 33-19 50-47 57zm-97-11c50-1 110 9 110-42 0-47-63-36-110-37v79zm0 115c55-2 124 14 124-45 0-56-70-42-124-44v89" id="Y"/><path d="M140-251c81 0 123 46 123 126C263-46 219 4 140 4 59 4 17-45 17-125s42-126 123-126zm0 227c63 0 89-41 89-101s-29-99-89-99c-61 0-89 39-89 99S79-25 140-24" id="Z"/><path d="M115-194c55 1 70 41 70 98S169 2 115 4C84 4 66-9 55-30l1 105H24l-1-265h31l2 30c10-21 28-34 59-34zm-8 174c40 0 45-34 45-75s-6-73-45-74c-42 0-51 32-51 76 0 43 10 73 51 73" id="aa"/><path d="M135-143c-3-34-86-38-87 0 15 53 115 12 119 90S17 21 10-45l28-5c4 36 97 45 98 0-10-56-113-15-118-90-4-57 82-63 122-42 12 7 21 19 24 35" id="ab"/><g id="f"><use transform="matrix(0.05,0,0,0.05,0,0)" xlink:href="#V"/><use transform="matrix(0.05,0,0,0.05,14.950000000000001,0)" xlink:href="#W"/><use transform="matrix(0.05,0,0,0.05,24.950000000000003,0)" xlink:href="#O"/><use transform="matrix(0.05,0,0,0.05,34.95,0)" xlink:href="#P"/><use transform="matrix(0.05,0,0,0.05,44.95,0)" xlink:href="#W"/><use transform="matrix(0.05,0,0,0.05,54.95,0)" xlink:href="#X"/><use transform="matrix(0.05,0,0,0.05,67.9,0)" xlink:href="#Y"/><use transform="matrix(0.05,0,0,0.05,79.9,0)" xlink:href="#Z"/><use transform="matrix(0.05,0,0,0.05,93.9,0)" xlink:href="#aa"/><use transform="matrix(0.05,0,0,0.05,103.9,0)" xlink:href="#ab"/><use transform="matrix(0.05,0,0,0.05,112.9,0)" xlink:href="#V"/><use transform="matrix(0.05,0,0,0.05,127.85000000000001,0)" xlink:href="#N"/><use transform="matrix(0.05,0,0,0.05,137.85000000000002,0)" xlink:href="#O"/><use transform="matrix(0.05,0,0,0.05,147.85000000000002,0)" xlink:href="#N"/><use transform="matrix(0.05,0,0,0.05,157.85000000000002,0)" xlink:href="#P"/><use transform="matrix(0.05,0,0,0.05,167.85000000000002,0)" xlink:href="#Q"/><use transform="matrix(0.05,0,0,0.05,177.85000000000002,0)" xlink:href="#T"/></g><path d="M84 4C-5 8 30-112 23-190h32v120c0 31 7 50 39 49 72-2 45-101 50-169h31l1 190h-30c-1-10 1-25-2-33-11 22-28 36-60 37" id="ac"/><path d="M210-169c-67 3-38 105-44 169h-31v-121c0-29-5-50-35-48C34-165 62-65 56 0H25l-1-190h30c1 10-1 24 2 32 10-44 99-50 107 0 11-21 27-35 58-36 85-2 47 119 55 194h-31v-121c0-29-5-49-35-48" id="ad"/><g id="g"><use transform="matrix(0.05,0,0,0.05,0,0)" xlink:href="#L"/><use transform="matrix(0.05,0,0,0.05,12.950000000000001,0)" xlink:href="#ac"/><use transform="matrix(0.05,0,0,0.05,22.950000000000003,0)" xlink:href="#ab"/><use transform="matrix(0.05,0,0,0.05,31.950000000000003,0)" xlink:href="#U"/><use transform="matrix(0.05,0,0,0.05,36.95,0)" xlink:href="#W"/><use transform="matrix(0.05,0,0,0.05,46.95,0)" xlink:href="#ad"/></g><path d="M233-177c-1 41-23 64-60 70L243 0h-38l-65-103H63V0H30v-248c88 3 205-21 203 71zM63-129c60-2 137 13 137-47 0-61-80-42-137-45v92" id="ae"/><path d="M96-169c-40 0-48 33-48 73s9 75 48 75c24 0 41-14 43-38l32 2c-6 37-31 61-74 61-59 0-76-41-82-99-10-93 101-131 147-64 4 7 5 14 7 22l-32 3c-4-21-16-35-41-35" id="af"/><g id="h"><use transform="matrix(0.05,0,0,0.05,0,0)" xlink:href="#ae"/><use transform="matrix(0.05,0,0,0.05,12.950000000000001,0)" xlink:href="#Q"/><use transform="matrix(0.05,0,0,0.05,22.950000000000003,0)" xlink:href="#ab"/><use transform="matrix(0.05,0,0,0.05,31.950000000000003,0)" xlink:href="#W"/><use transform="matrix(0.05,0,0,0.05,41.95,0)" xlink:href="#ac"/><use transform="matrix(0.05,0,0,0.05,51.95,0)" xlink:href="#T"/><use transform="matrix(0.05,0,0,0.05,57.900000000000006,0)" xlink:href="#af"/><use transform="matrix(0.05,0,0,0.05,66.9,0)" xlink:href="#Q"/></g><g id="i"><use transform="matrix(0.05,0,0,0.05,0,0)" xlink:href="#Z"/><use transform="matrix(0.05,0,0,0.05,14,0)" xlink:href="#aa"/><use transform="matrix(0.05,0,0,0.05,24,0)" xlink:href="#Q"/><use transform="matrix(0.05,0,0,0.05,34,0)" xlink:href="#T"/><use transform="matrix(0.05,0,0,0.05,39.95,0)" xlink:href="#N"/><use transform="matrix(0.05,0,0,0.05,49.95,0)" xlink:href="#U"/><use transform="matrix(0.05,0,0,0.05,54.95,0)" xlink:href="#W"/><use transform="matrix(0.05,0,0,0.05,64.95,0)" xlink:href="#T"/></g><path d="M205 0l-28-72H64L36 0H1l101-248h38L239 0h-34zm-38-99l-47-123c-12 45-31 82-46 123h93" id="ag"/><path d="M24-231v-30h32v30H24zM24 0v-190h32V0H24" id="ah"/><g id="j"><use transform="matrix(0.05,0,0,0.05,0,0)" xlink:href="#ag"/><use transform="matrix(0.05,0,0,0.05,12,0)" xlink:href="#ac"/><use transform="matrix(0.05,0,0,0.05,22,0)" xlink:href="#U"/><use transform="matrix(0.05,0,0,0.05,27,0)" xlink:href="#W"/><use transform="matrix(0.05,0,0,0.05,37,0)" xlink:href="#ad"/><use transform="matrix(0.05,0,0,0.05,51.95,0)" xlink:href="#N"/><use transform="matrix(0.05,0,0,0.05,61.95,0)" xlink:href="#U"/><use transform="matrix(0.05,0,0,0.05,66.95,0)" xlink:href="#ah"/><use transform="matrix(0.05,0,0,0.05,70.9,0)" xlink:href="#W"/><use transform="matrix(0.05,0,0,0.05,80.9,0)" xlink:href="#O"/></g><path d="M101-234c-31-9-42 10-38 44h38v23H63V0H32v-167H5v-23h27c-7-52 17-82 69-68v24" id="ai"/><g id="k"><use transform="matrix(0.05,0,0,0.05,0,0)" xlink:href="#L"/><use transform="matrix(0.05,0,0,0.05,12.950000000000001,0)" xlink:href="#W"/><use transform="matrix(0.05,0,0,0.05,22.950000000000003,0)" xlink:href="#O"/><use transform="matrix(0.05,0,0,0.05,32.95,0)" xlink:href="#ai"/><use transform="matrix(0.05,0,0,0.05,37.95,0)" xlink:href="#ah"/><use transform="matrix(0.05,0,0,0.05,41.900000000000006,0)" xlink:href="#P"/></g><path d="M24 0v-261h32V0H24" id="aj"/><g id="l"><use transform="matrix(0.05,0,0,0.05,0,0)" xlink:href="#ag"/><use transform="matrix(0.05,0,0,0.05,12,0)" xlink:href="#aa"/><use transform="matrix(0.05,0,0,0.05,22,0)" xlink:href="#aa"/><use transform="matrix(0.05,0,0,0.05,32,0)" xlink:href="#aj"/><use transform="matrix(0.05,0,0,0.05,35.95,0)" xlink:href="#ah"/><use transform="matrix(0.05,0,0,0.05,39.900000000000006,0)" xlink:href="#af"/><use transform="matrix(0.05,0,0,0.05,48.900000000000006,0)" xlink:href="#N"/><use transform="matrix(0.05,0,0,0.05,58.900000000000006,0)" xlink:href="#U"/><use transform="matrix(0.05,0,0,0.05,63.900000000000006,0)" xlink:href="#ah"/><use transform="matrix(0.05,0,0,0.05,67.85000000000001,0)" xlink:href="#W"/><use transform="matrix(0.05,0,0,0.05,77.85000000000001,0)" xlink:href="#O"/></g><path d="M115-194c53 0 69 39 70 98 0 66-23 100-70 100C84 3 66-7 56-30L54 0H23l1-261h32v101c10-23 28-34 59-34zm-8 174c40 0 45-34 45-75 0-40-5-75-45-74-42 0-51 32-51 76 0 43 10 73 51 73" id="ak"/><g id="m"><use transform="matrix(0.05,0,0,0.05,0,0)" xlink:href="#X"/><use transform="matrix(0.05,0,0,0.05,12.950000000000001,0)" xlink:href="#N"/><use transform="matrix(0.05,0,0,0.05,22.950000000000003,0)" xlink:href="#U"/><use transform="matrix(0.05,0,0,0.05,27.950000000000003,0)" xlink:href="#N"/><use transform="matrix(0.05,0,0,0.05,37.95,0)" xlink:href="#ak"/><use transform="matrix(0.05,0,0,0.05,47.95,0)" xlink:href="#N"/><use transform="matrix(0.05,0,0,0.05,57.95,0)" xlink:href="#ab"/><use transform="matrix(0.05,0,0,0.05,66.95,0)" xlink:href="#Q"/></g><path d="M101-251c82-7 93 87 43 132L82-64C71-53 59-42 53-27h129V0H18c2-99 128-94 128-182 0-28-16-43-45-43s-46 15-49 41l-32-3c6-41 34-60 81-64" id="al"/><g id="n"><use transform="matrix(0.05,0,0,0.05,0,0)" xlink:href="#al"/><use transform="matrix(0.05,0,0,0.05,10,0)" xlink:href="#S"/></g><g id="o"><use transform="matrix(0.05,0,0,0.05,0,0)" xlink:href="#V"/><use transform="matrix(0.05,0,0,0.05,14.950000000000001,0)" xlink:href="#W"/><use transform="matrix(0.05,0,0,0.05,24.950000000000003,0)" xlink:href="#ac"/><use transform="matrix(0.05,0,0,0.05,34.95,0)" xlink:href="#O"/><use transform="matrix(0.05,0,0,0.05,44.95,0)" xlink:href="#U"/><use transform="matrix(0.05,0,0,0.05,49.95,0)" xlink:href="#ab"/></g><g id="p"><use transform="matrix(0.05,0,0,0.05,0,0)" xlink:href="#Z"/><use transform="matrix(0.05,0,0,0.05,14,0)" xlink:href="#aa"/><use transform="matrix(0.05,0,0,0.05,24,0)" xlink:href="#ab"/></g><g id="q"><use transform="matrix(0.05,0,0,0.05,0,0)" xlink:href="#V"/><use transform="matrix(0.05,0,0,0.05,14.950000000000001,0)" xlink:href="#N"/><use transform="matrix(0.05,0,0,0.05,24.950000000000003,0)" xlink:href="#O"/><use transform="matrix(0.05,0,0,0.05,34.95,0)" xlink:href="#N"/><use transform="matrix(0.05,0,0,0.05,44.95,0)" xlink:href="#P"/><use transform="matrix(0.05,0,0,0.05,54.95,0)" xlink:href="#Q"/><use transform="matrix(0.05,0,0,0.05,64.95,0)" xlink:href="#T"/></g><path d="M126-127c33 6 58 20 58 59 0 88-139 92-164 29-3-8-5-16-6-25l32-3c6 27 21 44 54 44 32 0 52-15 52-46 0-38-36-46-79-43v-28c39 1 72-4 72-42 0-27-17-43-46-43-28 0-47 15-49 41l-32-3c6-42 35-63 81-64 48-1 79 21 79 65 0 36-21 52-52 59" id="am"/><g id="r"><use transform="matrix(0.05,0,0,0.05,0,0)" xlink:href="#am"/><use transform="matrix(0.05,0,0,0.05,10,0)" xlink:href="#S"/></g><path d="M155-56V0h-30v-56H8v-25l114-167h33v167h35v25h-35zm-30-156c-27 46-58 90-88 131h88v-131" id="an"/><g id="s"><use transform="matrix(0.05,0,0,0.05,0,0)" xlink:href="#an"/><use transform="matrix(0.05,0,0,0.05,10,0)" xlink:href="#S"/></g><path d="M33 0v-248h34V0H33" id="ao"/><path d="M9 0v-24l116-142H16v-24h144v24L44-24h123V0H9" id="ap"/><g id="t"><use transform="matrix(0.05,0,0,0.05,0,0)" xlink:href="#ao"/><use transform="matrix(0.05,0,0,0.05,5,0)" xlink:href="#O"/><use transform="matrix(0.05,0,0,0.05,15,0)" xlink:href="#ah"/><use transform="matrix(0.05,0,0,0.05,18.95,0)" xlink:href="#U"/><use transform="matrix(0.05,0,0,0.05,23.95,0)" xlink:href="#ah"/><use transform="matrix(0.05,0,0,0.05,27.899999999999995,0)" xlink:href="#N"/><use transform="matrix(0.05,0,0,0.05,37.9,0)" xlink:href="#aj"/><use transform="matrix(0.05,0,0,0.05,41.85,0)" xlink:href="#ah"/><use transform="matrix(0.05,0,0,0.05,45.800000000000004,0)" xlink:href="#ap"/><use transform="matrix(0.05,0,0,0.05,54.800000000000004,0)" xlink:href="#Q"/></g><path d="M143 0L79-87 56-68V0H24v-261h32v163l83-92h37l-77 82L181 0h-38" id="aq"/><g id="u"><use transform="matrix(0.05,0,0,0.05,0,0)" xlink:href="#Y"/><use transform="matrix(0.05,0,0,0.05,12,0)" xlink:href="#N"/><use transform="matrix(0.05,0,0,0.05,22,0)" xlink:href="#af"/><use transform="matrix(0.05,0,0,0.05,31,0)" xlink:href="#aq"/><use transform="matrix(0.05,0,0,0.05,40,0)" xlink:href="#ac"/><use transform="matrix(0.05,0,0,0.05,50,0)" xlink:href="#aa"/></g><g id="v"><use transform="matrix(0.05,0,0,0.05,0,0)" xlink:href="#X"/><use transform="matrix(0.05,0,0,0.05,12.950000000000001,0)" xlink:href="#N"/><use transform="matrix(0.05,0,0,0.05,22.950000000000003,0)" xlink:href="#Q"/><use transform="matrix(0.05,0,0,0.05,32.95,0)" xlink:href="#ad"/><use transform="matrix(0.05,0,0,0.05,47.900000000000006,0)" xlink:href="#W"/><use transform="matrix(0.05,0,0,0.05,57.900000000000006,0)" xlink:href="#O"/></g><g id="w"><use transform="matrix(0.05,0,0,0.05,0,0)" xlink:href="#X"/><use transform="matrix(0.05,0,0,0.05,12.950000000000001,0)" xlink:href="#N"/><use transform="matrix(0.05,0,0,0.05,22.950000000000003,0)" xlink:href="#U"/><use transform="matrix(0.05,0,0,0.05,27.950000000000003,0)" xlink:href="#N"/></g><path d="M185-189c-5-48-123-54-124 2 14 75 158 14 163 119 3 78-121 87-175 55-17-10-28-26-33-46l33-7c5 56 141 63 141-1 0-78-155-14-162-118-5-82 145-84 179-34 5 7 8 16 11 25" id="ar"/><g id="x"><use transform="matrix(0.05,0,0,0.05,0,0)" xlink:href="#ar"/><use transform="matrix(0.05,0,0,0.05,12,0)" xlink:href="#U"/><use transform="matrix(0.05,0,0,0.05,17,0)" xlink:href="#W"/><use transform="matrix(0.05,0,0,0.05,27,0)" xlink:href="#T"/><use transform="matrix(0.05,0,0,0.05,32.95,0)" xlink:href="#N"/><use transform="matrix(0.05,0,0,0.05,42.95,0)" xlink:href="#P"/><use transform="matrix(0.05,0,0,0.05,52.95,0)" xlink:href="#Q"/></g><path d="M197 0v-115H63V0H30v-248h33v105h134v-105h34V0h-34" id="as"/><path d="M85-194c31 0 48 13 60 33l-1-100h32l1 261h-30c-2-10 0-23-3-31C134-8 116 4 85 4 32 4 16-35 15-94c0-66 23-100 70-100zm9 24c-40 0-46 34-46 75 0 40 6 74 45 74 42 0 51-32 51-76 0-42-9-74-50-73" id="at"/><g id="y"><use transform="matrix(0.05,0,0,0.05,0,0)" xlink:href="#as"/><use transform="matrix(0.05,0,0,0.05,12.950000000000001,0)" xlink:href="#Q"/><use transform="matrix(0.05,0,0,0.05,22.950000000000003,0)" xlink:href="#N"/><use transform="matrix(0.05,0,0,0.05,32.95,0)" xlink:href="#at"/><use transform="matrix(0.05,0,0,0.05,42.95,0)" xlink:href="#X"/><use transform="matrix(0.05,0,0,0.05,55.900000000000006,0)" xlink:href="#Y"/></g><path d="M110-160c48 1 74 30 74 79 0 53-28 85-80 85-65 0-83-55-86-122-5-90 50-162 133-122 14 7 22 21 27 39l-31 6c-5-40-67-38-82-6-9 19-15 44-15 74 11-20 30-34 60-33zm-7 138c34 0 49-23 49-58s-16-56-50-56c-29 0-50 16-49 49 1 36 15 65 50 65" id="au"/><g id="z"><use transform="matrix(0.05,0,0,0.05,0,0)" xlink:href="#au"/><use transform="matrix(0.05,0,0,0.05,10,0)" xlink:href="#S"/></g><path d="M54-142c48-35 137-8 131 61C196 18 31 33 14-55l32-4c7 23 22 37 52 37 35-1 51-22 54-58 4-55-73-65-99-34H22l8-134h141v27H59" id="av"/><g id="A"><use transform="matrix(0.05,0,0,0.05,0,0)" xlink:href="#av"/><use transform="matrix(0.05,0,0,0.05,10,0)" xlink:href="#S"/></g><g id="B"><use transform="matrix(0.05,0,0,0.05,0,0)" xlink:href="#ae"/><use transform="matrix(0.05,0,0,0.05,12.950000000000001,0)" xlink:href="#W"/><use transform="matrix(0.05,0,0,0.05,22.950000000000003,0)" xlink:href="#aj"/><use transform="matrix(0.05,0,0,0.05,26.900000000000002,0)" xlink:href="#aj"/><use transform="matrix(0.05,0,0,0.05,30.85,0)" xlink:href="#ah"/><use transform="matrix(0.05,0,0,0.05,34.800000000000004,0)" xlink:href="#O"/><use transform="matrix(0.05,0,0,0.05,44.800000000000004,0)" xlink:href="#P"/></g><path d="M232-93c-1 65-40 97-104 97C67 4 28-28 28-90v-158h33c8 89-33 224 67 224 102 0 64-133 71-224h33v155" id="aw"/><g id="C"><use transform="matrix(0.05,0,0,0.05,0,0)" xlink:href="#aw"/><use transform="matrix(0.05,0,0,0.05,12.950000000000001,0)" xlink:href="#aa"/><use transform="matrix(0.05,0,0,0.05,22.950000000000003,0)" xlink:href="#P"/><use transform="matrix(0.05,0,0,0.05,32.95,0)" xlink:href="#T"/><use transform="matrix(0.05,0,0,0.05,38.900000000000006,0)" xlink:href="#N"/><use transform="matrix(0.05,0,0,0.05,48.900000000000006,0)" xlink:href="#at"/><use transform="matrix(0.05,0,0,0.05,58.900000000000006,0)" xlink:href="#Q"/></g><path d="M64 0c3-98 48-159 88-221H18v-27h164v26C143-157 98-101 97 0H64" id="ax"/><g id="D"><use transform="matrix(0.05,0,0,0.05,0,0)" xlink:href="#ax"/><use transform="matrix(0.05,0,0,0.05,10,0)" xlink:href="#S"/></g><g id="E"><use transform="matrix(0.05,0,0,0.05,0,0)" xlink:href="#L"/><use transform="matrix(0.05,0,0,0.05,12.950000000000001,0)" xlink:href="#W"/><use transform="matrix(0.05,0,0,0.05,22.950000000000003,0)" xlink:href="#O"/><use transform="matrix(0.05,0,0,0.05,32.95,0)" xlink:href="#ai"/><use transform="matrix(0.05,0,0,0.05,37.95,0)" xlink:href="#ah"/><use transform="matrix(0.05,0,0,0.05,41.900000000000006,0)" xlink:href="#P"/><use transform="matrix(0.05,0,0,0.05,51.900000000000006,0)" xlink:href="#ac"/><use transform="matrix(0.05,0,0,0.05,61.900000000000006,0)" xlink:href="#T"/><use transform="matrix(0.05,0,0,0.05,67.85000000000001,0)" xlink:href="#Q"/></g><g id="F"><use transform="matrix(0.05,0,0,0.05,0,0)" xlink:href="#Y"/><use transform="matrix(0.05,0,0,0.05,12,0)" xlink:href="#N"/><use transform="matrix(0.05,0,0,0.05,22,0)" xlink:href="#af"/><use transform="matrix(0.05,0,0,0.05,31,0)" xlink:href="#aq"/><use transform="matrix(0.05,0,0,0.05,40,0)" xlink:href="#ac"/><use transform="matrix(0.05,0,0,0.05,50,0)" xlink:href="#aa"/></g><g id="G"><use transform="matrix(0.05,0,0,0.05,0,0)" xlink:href="#aw"/><use transform="matrix(0.05,0,0,0.05,12.950000000000001,0)" xlink:href="#ab"/><use transform="matrix(0.05,0,0,0.05,21.950000000000003,0)" xlink:href="#Q"/><use transform="matrix(0.05,0,0,0.05,31.950000000000003,0)" xlink:href="#ab"/></g></defs></g></svg>