<svg width="900" height="900" viewBox="0 0 900 900" fill="none" xmlns="http://www.w3.org/2000/svg">
<rect x="24.0906" y="24.0906" width="851.201" height="851.201" rx="192.725" fill="black" stroke="url(#paint0_linear_1_56)" stroke-width="48.1812"/>
<path d="M178.746 735V619.818H194.388L196.047 634.986H196.521C199.523 629.614 202.999 625.269 206.949 621.951C210.899 618.633 216.192 616.974 222.828 616.974C234.046 616.974 241.314 623.61 244.632 636.882C247.95 630.72 251.584 625.901 255.534 622.425C259.642 618.791 265.014 616.974 271.65 616.974C279.708 616.974 285.949 620.055 290.373 626.217C294.955 632.221 297.246 640.99 297.246 652.524V735H277.812V653.946C277.812 640.516 273.704 633.801 265.488 633.801C261.38 633.801 258.062 635.302 255.534 638.304C253.006 641.148 250.162 645.572 247.002 651.576V735H228.99V653.946C228.99 647.31 228.042 642.333 226.146 639.015C224.408 635.539 221.406 633.801 217.14 633.801C213.032 633.801 209.556 635.302 206.712 638.304C203.868 641.148 201.024 645.572 198.18 651.576V735H178.746ZM389.109 737.844C380.103 737.844 371.729 736.501 363.987 733.815C356.403 731.129 349.767 727.258 344.079 722.202C338.391 716.988 333.967 710.668 330.807 703.242C327.647 695.658 326.067 687.126 326.067 677.646C326.067 668.008 327.726 659.476 331.044 652.05C334.52 644.466 339.181 638.067 345.027 632.853C350.873 627.639 357.667 623.689 365.409 621.003C373.309 618.317 381.604 616.974 390.294 616.974C399.774 616.974 407.911 618.633 414.705 621.951C421.657 625.269 427.503 629.219 432.243 633.801L422.526 646.362C417.786 642.254 412.809 639.015 407.595 636.645C402.539 634.275 397.009 633.09 391.005 633.09C384.369 633.09 378.286 634.196 372.756 636.408C367.226 638.462 362.486 641.464 358.536 645.414C354.744 649.364 351.742 654.104 349.53 659.634C347.318 665.006 346.212 671.01 346.212 677.646C346.212 684.282 347.239 690.286 349.293 695.658C351.505 701.03 354.507 705.691 358.299 709.641C362.249 713.433 366.91 716.435 372.282 718.647C377.812 720.701 383.895 721.728 390.531 721.728C397.641 721.728 404.119 720.385 409.965 717.699C415.969 714.855 421.341 711.379 426.081 707.271L434.85 719.832C428.372 725.52 421.262 729.944 413.52 733.104C405.778 736.264 397.641 737.844 389.109 737.844ZM545.674 737.844C533.35 737.844 523.949 734.368 517.471 727.416C510.993 720.464 507.754 710.115 507.754 696.369V582.135H466.753V566.256H527.188V697.791C527.188 706.323 529.242 712.485 533.35 716.277C537.458 719.911 542.988 721.728 549.94 721.728C556.734 721.728 563.923 719.99 571.507 716.514L576.484 730.971C571.112 733.183 566.214 734.842 561.79 735.948C557.366 737.212 551.994 737.844 545.674 737.844ZM666.214 735V635.697H612.652V619.818H685.648V735H666.214ZM673.798 595.644C669.374 595.644 665.661 594.301 662.659 591.615C659.657 588.771 658.156 585.058 658.156 580.476C658.156 575.894 659.657 572.26 662.659 569.574C665.661 566.73 669.374 565.308 673.798 565.308C678.222 565.308 681.935 566.73 684.937 569.574C687.939 572.26 689.44 575.894 689.44 580.476C689.44 585.058 687.939 588.771 684.937 591.615C681.935 594.301 678.222 595.644 673.798 595.644Z" fill="white"/>
<rect x="337.268" y="333.253" width="128.483" height="24.0906" fill="white"/>
<path d="M243.641 180.829C234.658 170.183 226.84 159.37 225.26 157.125C225.093 156.958 224.844 156.958 224.678 157.125C223.097 159.37 215.362 170.183 206.379 180.829C129.278 279.056 218.523 345.262 218.523 345.262L219.271 345.761C219.937 355.991 221.6 370.713 221.6 370.713H224.927H228.254C228.254 370.713 229.917 356.074 230.583 345.761L231.331 345.179C231.415 345.262 320.742 279.056 243.641 180.829ZM225.01 343.848C225.01 343.848 221.018 340.438 219.937 338.691V338.525L224.761 231.565C224.761 231.232 225.26 231.232 225.26 231.565L230.084 338.525V338.691C229.003 340.438 225.01 343.848 225.01 343.848Z" fill="white"/>
<defs>
<linearGradient id="paint0_linear_1_56" x1="-130" y1="150" x2="851" y2="1009" gradientUnits="userSpaceOnUse">
<stop stop-color="#00ED64"/>
<stop offset="1" stop-color="#9DD0E7"/>
</linearGradient>
</defs>
</svg>
