<svg xmlns="http://www.w3.org/2000/svg" height="400" width="582"><path d="M-1-1h584v402H-1z" fill="#fff"/><path d="M8.5 43h565v344H8.5z" fill="#fff" stroke="#000"/><path stroke-opacity="null" d="M48.4 182.6h212v123.2l-106 30.8-106-30.8V182.6z" fill="#eaedea" stroke="#000" stroke-width="1.5"/><path d="M72.5 208h68v19h-68z" fill="#00bf00" stroke="#000" stroke-width="1.5"/><path d="M85.3 214.7h1v1l.7-.8q.5-.3 1.2-.3t1.2.4l.5.6q.3-.5.8-.8l1-.2q1.3 0 1.8.9.2.5.2 1.3v4.2h-1v-4.4q0-.6-.4-.8-.3-.3-.8-.3-.6 0-1 .5-.5.4-.5 1.3v3.7h-1v-4.1q0-.6-.2-1t-.9-.4q-.6 0-1 .5-.6.5-.6 1.7v3.3h-1v-6.3zm12.4 5.6q1.1 0 1.5-.8.4-.8.4-1.7 0-1-.3-1.5-.5-.8-1.5-.8t-1.4.7q-.5.7-.5 1.8 0 1 .5 1.7.4.6 1.3.6zm0-5.8q1.3 0 2.1.9.9.8.9 2.3 0 1.5-.8 2.5-.7 1-2.3 1-1.2 0-2-.8-.8-1-.8-2.4 0-1.6.8-2.5.8-1 2.2-1zm0 0zm4.3.2h1v1q.4-.6.9-.9l1-.2q1.4 0 1.9 1 .3.4.3 1.4v4H106v-4q0-.5-.2-.9-.3-.6-1-.6l-.6.1q-.5.1-.8.5l-.3.7-.1 1v3.2h-1v-6.3zm2.4-.1zm6.4 0q.8 0 1.3.4l.6.6v-.8h1v5.7q0 1.2-.3 1.9-.7 1.3-2.5 1.3-1 0-1.7-.5t-.8-1.4h1q.1.4.4.6.3.4 1.1.4 1.2 0 1.6-.9.2-.5.2-1.8-.3.5-.8.7-.4.3-1.1.3-1 0-1.8-.7-.8-.8-.8-2.4 0-1.6.8-2.5.7-.9 1.8-.9zm2 3.2q0-1.1-.6-1.7-.4-.6-1.2-.6-1 0-1.5 1-.2.6-.2 1.5 0 1.1.4 1.7.4.5 1.2.5 1.1 0 1.6-1 .2-.6.2-1.4zm-1.8-3.2zm6.8 5.7q1 0 1.4-.8.4-.8.4-1.7 0-1-.3-1.5-.4-.8-1.5-.8-1 0-1.4.7-.4.7-.4 1.8 0 1 .4 1.7.4.6 1.4.6zm0-5.8q1.2 0 2 .9 1 .8 1 2.3 0 1.5-.8 2.5t-2.3 1q-1.3 0-2-.8-.8-1-.8-2.4 0-1.6.8-2.5.8-1 2.1-1zm0 0zm4.8 3.5q0 1 .5 1.6.4.7 1.3.7.8 0 1.2-.6.5-.7.5-1.8 0-1.2-.5-1.8-.5-.6-1.2-.6-.8 0-1.3.6-.5.7-.5 1.8zm1.6-3.4q.8 0 1.2.3l.7.6v-3.1h1v8.6h-1v-.9q-.3.6-.8.9-.5.2-1.2.2-1 0-1.8-.9-.8-.8-.8-2.3 0-1.4.7-2.4t2-1z" font-size="12" font-family="Helvetica,Arial,sans-serif" fill="#fff"/><path d="M85.5 232h68v19h-68z" fill="#00bf00" stroke="#000" stroke-width="1.5"/><path d="M98.3 238.7h1v1l.7-.8q.5-.3 1.2-.3t1.2.4l.5.6q.3-.5.8-.8l1-.2q1.3 0 1.8.9.2.5.2 1.3v4.2h-1v-4.4q0-.6-.4-.8-.3-.3-.8-.3-.6 0-1 .5-.5.4-.5 1.3v3.7h-1v-4.1q0-.6-.2-1t-.9-.4q-.6 0-1 .5-.6.5-.6 1.7v3.3h-1v-6.3zm12.4 5.6q1.1 0 1.5-.8.4-.8.4-1.7 0-1-.3-1.5-.5-.8-1.5-.8t-1.4.7q-.5.7-.5 1.8 0 1 .5 1.7.4.6 1.3.6zm0-5.8q1.3 0 2.1.9.9.8.9 2.3 0 1.5-.8 2.5-.7 1-2.3 1-1.2 0-2-.8-.8-1-.8-2.4 0-1.6.8-2.5.8-1 2.2-1zm0 0zm4.3.2h1v1q.4-.6.9-.9l1-.2q1.4 0 1.9 1 .3.4.3 1.4v4H119v-4q0-.5-.2-.9-.3-.6-1-.6l-.6.1q-.5.1-.8.5l-.3.7-.1 1v3.2h-1v-6.3zm2.4-.1zm6.4 0q.8 0 1.3.4l.6.6v-.8h1v5.7q0 1.2-.3 1.9-.7 1.3-2.5 1.3-1 0-1.7-.5t-.8-1.4h1q.1.4.4.6.3.4 1.1.4 1.2 0 1.6-.9.2-.5.2-1.8-.3.5-.8.7-.4.3-1.1.3-1 0-1.8-.7-.8-.8-.8-2.4 0-1.6.8-2.5.7-.9 1.8-.9zm2 3.2q0-1.1-.6-1.7-.4-.6-1.2-.6-1 0-1.5 1-.2.6-.2 1.5 0 1.1.4 1.7.4.5 1.2.5 1.1 0 1.6-1 .2-.6.2-1.4zm-1.8-3.2zm6.8 5.7q1 0 1.4-.8.4-.8.4-1.7 0-1-.3-1.5-.4-.8-1.5-.8-1 0-1.4.7-.4.7-.4 1.8 0 1 .4 1.7.4.6 1.4.6zm0-5.8q1.2 0 2 .9 1 .8 1 2.3 0 1.5-.8 2.5t-2.3 1q-1.3 0-2-.8-.8-1-.8-2.4 0-1.6.8-2.5.8-1 2.1-1zm0 0zm4.8 3.5q0 1 .5 1.6.4.7 1.3.7.8 0 1.2-.6.5-.7.5-1.8 0-1.2-.5-1.8-.5-.6-1.2-.6-.8 0-1.3.6-.5.7-.5 1.8zm1.6-3.4q.8 0 1.2.3l.7.6v-3.1h1v8.6h-1v-.9q-.3.6-.8.9-.5.2-1.2.2-1 0-1.8-.9-.8-.8-.8-2.3 0-1.4.7-2.4t2-1z" font-size="12" font-family="Helvetica,Arial,sans-serif" fill="#fff"/><path d="M72.5 256h68v19h-68z" fill="#00bf00" stroke="#000" stroke-width="1.5"/><path d="M85.3 263.7h1v1l.7-.8q.5-.3 1.2-.3t1.2.4l.5.6q.3-.5.8-.8l1-.2q1.3 0 1.8.9.2.5.2 1.3v4.2h-1v-4.4q0-.6-.4-.8-.3-.3-.8-.3-.6 0-1 .5-.5.4-.5 1.3v3.7h-1v-4.1q0-.6-.2-1t-.9-.4q-.6 0-1 .5-.6.5-.6 1.7v3.3h-1v-6.3zm12.4 5.6q1.1 0 1.5-.8.4-.8.4-1.7 0-1-.3-1.5-.5-.8-1.5-.8t-1.4.7q-.5.7-.5 1.8 0 1 .5 1.7.4.6 1.3.6zm0-5.8q1.3 0 2.1.9.9.8.9 2.3 0 1.5-.8 2.5-.7 1-2.3 1-1.2 0-2-.8-.8-1-.8-2.4 0-1.6.8-2.5.8-1 2.2-1zm0 0zm4.3.2h1v1q.4-.6.9-.9l1-.2q1.4 0 1.9 1 .3.4.3 1.4v4H106v-4q0-.5-.2-.9-.3-.6-1-.6l-.6.1q-.5.1-.8.5l-.3.7-.1 1v3.2h-1v-6.3zm2.4-.1zm6.4 0q.8 0 1.3.4l.6.6v-.8h1v5.7q0 1.2-.3 1.9-.7 1.3-2.5 1.3-1 0-1.7-.5t-.8-1.4h1q.1.4.4.6.3.4 1.1.4 1.2 0 1.6-.9.2-.5.2-1.8-.3.5-.8.7-.4.3-1.1.3-1 0-1.8-.7-.8-.8-.8-2.4 0-1.6.8-2.5.7-.9 1.8-.9zm2 3.2q0-1.1-.6-1.7-.4-.6-1.2-.6-1 0-1.5 1-.2.6-.2 1.5 0 1.1.4 1.7.4.5 1.2.5 1.1 0 1.6-1 .2-.6.2-1.4zm-1.8-3.2zm6.8 5.7q1 0 1.4-.8.4-.8.4-1.7 0-1-.3-1.5-.4-.8-1.5-.8-1 0-1.4.7-.4.7-.4 1.8 0 1 .4 1.7.4.6 1.4.6zm0-5.8q1.2 0 2 .9 1 .8 1 2.3 0 1.5-.8 2.5t-2.3 1q-1.3 0-2-.8-.8-1-.8-2.4 0-1.6.8-2.5.8-1 2.1-1zm0 0zm4.8 3.5q0 1 .5 1.6.4.7 1.3.7.8 0 1.2-.6.5-.7.5-1.8 0-1.2-.5-1.8-.5-.6-1.2-.6-.8 0-1.3.6-.5.7-.5 1.8zm1.6-3.4q.8 0 1.2.3l.7.6v-3.1h1v8.6h-1v-.9q-.3.6-.8.9-.5.2-1.2.2-1 0-1.8-.9-.8-.8-.8-2.3 0-1.4.7-2.4t2-1z" font-size="12" font-family="Helvetica,Arial,sans-serif" fill="#fff"/><path d="M162.5 208h68v19h-68z" fill="#00bf00" stroke="#000" stroke-width="1.5"/><path d="M175.3 214.7h1v1l.7-.8q.5-.3 1.2-.3t1.2.4l.5.6q.3-.5.8-.8l1-.2q1.3 0 1.8.9.2.5.2 1.3v4.2h-1v-4.4q0-.6-.4-.8-.3-.3-.8-.3-.6 0-1 .5-.5.4-.5 1.3v3.7h-1v-4.1q0-.6-.2-1t-.9-.4q-.6 0-1 .5-.6.5-.6 1.7v3.3h-1v-6.3zm12.4 5.6q1.1 0 1.5-.8.4-.8.4-1.7 0-1-.3-1.5-.5-.8-1.5-.8t-1.4.7q-.5.7-.5 1.8 0 1 .5 1.7.4.6 1.3.6zm0-5.8q1.3 0 2.1.9.9.8.9 2.3 0 1.5-.8 2.5-.7 1-2.3 1-1.2 0-2-.8-.8-1-.8-2.4 0-1.6.8-2.5.8-1 2.2-1zm0 0zm4.3.2h1v1q.4-.6.9-.9l1-.2q1.4 0 1.9 1 .3.4.3 1.4v4H196v-4q0-.5-.2-.9-.3-.6-1-.6l-.6.1q-.5.1-.8.5l-.3.7-.1 1v3.2h-1v-6.3zm2.4-.1zm6.4 0q.8 0 1.3.4l.6.6v-.8h1v5.7q0 1.2-.3 1.9-.7 1.3-2.5 1.3-1 0-1.7-.5t-.8-1.4h1q.1.4.4.6.3.4 1.1.4 1.2 0 1.6-.9.2-.5.2-1.8-.3.5-.8.7-.4.3-1.2.3-1 0-1.7-.7-.8-.8-.8-2.4 0-1.6.8-2.5.7-.9 1.8-.9zm2 3.2q0-1.1-.6-1.7-.4-.6-1.2-.6-1 0-1.5 1-.2.6-.2 1.5 0 1.1.4 1.7.4.5 1.2.5 1.1 0 1.6-1 .2-.6.2-1.4zm-1.8-3.2zm6.8 5.7q1 0 1.4-.8.4-.8.4-1.7 0-1-.3-1.5-.4-.8-1.5-.8-1 0-1.4.7-.4.7-.4 1.8 0 1 .4 1.7.4.6 1.4.6zm0-5.8q1.2 0 2 .9 1 .8 1 2.3 0 1.5-.8 2.5t-2.3 1q-1.3 0-2-.8-.8-1-.8-2.4 0-1.6.8-2.5.8-1 2.1-1zm0 0zm4.8 3.5q0 1 .5 1.6.4.7 1.3.7.8 0 1.2-.6.5-.7.5-1.8 0-1.2-.5-1.8-.5-.6-1.2-.6-.8 0-1.3.6-.5.7-.5 1.8zm1.6-3.4q.8 0 1.2.3l.7.6v-3.1h1v8.6h-1v-.9q-.3.6-.8.9-.5.2-1.2.2-1 0-1.8-.9-.8-.8-.8-2.3 0-1.4.7-2.4t2-1z" font-size="12" font-family="Helvetica,Arial,sans-serif" fill="#fff"/><path d="M175.5 232h68v19h-68z" fill="#00bf00" stroke="#000" stroke-width="1.5"/><path d="M188.3 238.7h1v1l.7-.8q.5-.3 1.2-.3t1.2.4l.5.6q.3-.5.8-.8l1-.2q1.3 0 1.8.9.2.5.2 1.3v4.2h-1v-4.4q0-.6-.4-.8-.3-.3-.8-.3-.6 0-1 .5-.5.4-.5 1.3v3.7h-1v-4.1q0-.6-.2-1t-.9-.4q-.6 0-1 .5-.6.5-.6 1.7v3.3h-1v-6.3zm12.4 5.6q1.1 0 1.5-.8.4-.8.4-1.7 0-1-.3-1.5-.5-.8-1.5-.8t-1.4.7q-.5.7-.5 1.8 0 1 .5 1.7.4.6 1.3.6zm0-5.8q1.3 0 2.1.9.9.8.9 2.3 0 1.5-.8 2.5-.7 1-2.3 1-1.2 0-2-.8-.8-1-.8-2.4 0-1.6.8-2.5.8-1 2.2-1zm0 0zm4.3.2h1v1q.4-.6.9-.9l1-.2q1.4 0 1.9 1 .3.4.3 1.4v4H209v-4q0-.5-.2-.9-.3-.6-1-.6l-.6.1q-.5.1-.8.5l-.3.7-.1 1v3.2h-1v-6.3zm2.4-.1zm6.4 0q.8 0 1.3.4l.6.6v-.8h1v5.7q0 1.2-.3 1.9-.7 1.3-2.5 1.3-1 0-1.7-.5t-.8-1.4h1q.1.4.4.6.3.4 1.1.4 1.2 0 1.6-.9.2-.5.2-1.8-.3.5-.8.7-.4.3-1.2.3-1 0-1.7-.7-.8-.8-.8-2.4 0-1.6.8-2.5.7-.9 1.8-.9zm2 3.2q0-1.1-.6-1.7-.4-.6-1.2-.6-1 0-1.5 1-.2.6-.2 1.5 0 1.1.4 1.7.4.5 1.2.5 1.1 0 1.6-1 .2-.6.2-1.4zm-1.8-3.2zm6.8 5.7q1 0 1.4-.8.4-.8.4-1.7 0-1-.3-1.5-.4-.8-1.5-.8-1 0-1.4.7-.4.7-.4 1.8 0 1 .4 1.7.4.6 1.4.6zm0-5.8q1.2 0 2 .9 1 .8 1 2.3 0 1.5-.8 2.5t-2.3 1q-1.3 0-2-.8-.8-1-.8-2.4 0-1.6.8-2.5.8-1 2.1-1zm0 0zm4.8 3.5q0 1 .5 1.6.4.7 1.3.7.8 0 1.2-.6.5-.7.5-1.8 0-1.2-.5-1.8-.5-.6-1.2-.6-.8 0-1.3.6-.5.7-.5 1.8zm1.6-3.4q.8 0 1.2.3l.7.6v-3.1h1v8.6h-1v-.9q-.3.6-.8.9-.5.2-1.2.2-1 0-1.8-.9-.8-.8-.8-2.3 0-1.4.7-2.4t2-1z" font-size="12" font-family="Helvetica,Arial,sans-serif" fill="#fff"/><path d="M162.5 256h68v19h-68z" fill="#00bf00" stroke="#000" stroke-width="1.5"/><path d="M175.3 263.7h1v1l.7-.8q.5-.3 1.2-.3t1.2.4l.5.6q.3-.5.8-.8l1-.2q1.3 0 1.8.9.2.5.2 1.3v4.2h-1v-4.4q0-.6-.4-.8-.3-.3-.8-.3-.6 0-1 .5-.5.4-.5 1.3v3.7h-1v-4.1q0-.6-.2-1t-.9-.4q-.6 0-1 .5-.6.5-.6 1.7v3.3h-1v-6.3zm12.4 5.6q1.1 0 1.5-.8.4-.8.4-1.7 0-1-.3-1.5-.5-.8-1.5-.8t-1.4.7q-.5.7-.5 1.8 0 1 .5 1.7.4.6 1.3.6zm0-5.8q1.3 0 2.1.9.9.8.9 2.3 0 1.5-.8 2.5-.7 1-2.3 1-1.2 0-2-.8-.8-1-.8-2.4 0-1.6.8-2.5.8-1 2.2-1zm0 0zm4.3.2h1v1q.4-.6.9-.9l1-.2q1.4 0 1.9 1 .3.4.3 1.4v4H196v-4q0-.5-.2-.9-.3-.6-1-.6l-.6.1q-.5.1-.8.5l-.3.7-.1 1v3.2h-1v-6.3zm2.4-.1zm6.4 0q.8 0 1.3.4l.6.6v-.8h1v5.7q0 1.2-.3 1.9-.7 1.3-2.5 1.3-1 0-1.7-.5t-.8-1.4h1q.1.4.4.6.3.4 1.1.4 1.2 0 1.6-.9.2-.5.2-1.8-.3.5-.8.7-.4.3-1.2.3-1 0-1.7-.7-.8-.8-.8-2.4 0-1.6.8-2.5.7-.9 1.8-.9zm2 3.2q0-1.1-.6-1.7-.4-.6-1.2-.6-1 0-1.5 1-.2.6-.2 1.5 0 1.1.4 1.7.4.5 1.2.5 1.1 0 1.6-1 .2-.6.2-1.4zm-1.8-3.2zm6.8 5.7q1 0 1.4-.8.4-.8.4-1.7 0-1-.3-1.5-.4-.8-1.5-.8-1 0-1.4.7-.4.7-.4 1.8 0 1 .4 1.7.4.6 1.4.6zm0-5.8q1.2 0 2 .9 1 .8 1 2.3 0 1.5-.8 2.5t-2.3 1q-1.3 0-2-.8-.8-1-.8-2.4 0-1.6.8-2.5.8-1 2.1-1zm0 0zm4.8 3.5q0 1 .5 1.6.4.7 1.3.7.8 0 1.2-.6.5-.7.5-1.8 0-1.2-.5-1.8-.5-.6-1.2-.6-.8 0-1.3.6-.5.7-.5 1.8zm1.6-3.4q.8 0 1.2.3l.7.6v-3.1h1v8.6h-1v-.9q-.3.6-.8.9-.5.2-1.2.2-1 0-1.8-.9-.8-.8-.8-2.3 0-1.4.7-2.4t2-1z" font-size="12" font-family="Helvetica,Arial,sans-serif" fill="#fff"/><path d="M88.2 196.2q0 .8.3 1.2.6.9 2 .9.7 0 1.3-.2 1-.4 1-1.3 0-.7-.4-1-.5-.3-1.4-.5l-1.2-.3q-1.1-.3-1.6-.6-.8-.5-.8-1.6t.8-1.9q.8-.7 2.2-.7 1.4 0 2.3.6 1 .7 1 2.1h-1.1q0-.7-.4-1-.5-.7-1.8-.7-1 0-1.5.4-.4.5-.4 1 0 .7.5 1l1.6.4 1.2.3q.8.2 1.3.5.8.6.8 1.8 0 1.4-1 2-1 .7-2.4.7-1.6 0-2.5-.9-1-.8-1-2.2h1.2zm2.3-6zm4.8.2h1v3.2l.7-.7q.5-.3 1.3-.3 1.3 0 1.8 1 .3.4.3 1.4v4h-1.1v-4q0-.6-.2-1-.3-.5-1-.5t-1.2.5q-.6.4-.6 1.7v3.3h-1v-8.6zm7.5 6.9q0 .5.3.8.3.2.8.2l1-.2q1-.5 1-1.4v-.9l-.6.2-.6.1-.6.1q-.6 0-.9.3-.4.2-.4.8zm2.5-2.1q.4 0 .5-.3v-.4q0-.6-.3-.8-.4-.2-1.1-.2-.8 0-1.2.4-.2.3-.2.7h-1q0-1.1.7-1.6.8-.4 1.7-.4 1.1 0 1.8.4t.7 1.3v3.9h.7v.8l-.4.1h-.3q-.6 0-.8-.4-.2-.2-.2-.5-.3.4-1 .7-.5.3-1.3.3t-1.4-.5q-.5-.5-.5-1.3 0-1 .5-1.4.5-.5 1.4-.6l1.7-.2zm-.9-2.6zm4.3.1h1v1.1q0-.3.6-.8.4-.4 1-.4h.4v1.1h-.3q-.8 0-1.3.5-.4.5-.4 1.2v3.6h-1v-6.3zm4.6 3.3q0 1 .4 1.6.5.7 1.4.7.7 0 1.2-.6.5-.7.5-1.8 0-1.2-.5-1.8-.5-.6-1.2-.6-.8 0-1.3.6-.5.7-.5 1.8zm1.6-3.4q.7 0 1.2.3l.6.6v-3.1h1v8.6h-.9v-.9q-.4.6-.9.9-.5.2-1.1.2-1 0-1.8-.9-.8-.8-.8-2.3 0-1.4.7-2.4t2-1zm8.1.4v-.7l1.6-.4q.5-.3.7-1.3h.8v8.4H125v-6h-2zm54.2 3.2q0 .8.3 1.2.6.9 2 .9.7 0 1.3-.2 1-.4 1-1.3 0-.7-.4-1-.5-.3-1.4-.5l-1.2-.3q-1.1-.3-1.6-.6-.8-.5-.8-1.6t.8-1.9q.8-.7 2.2-.7 1.4 0 2.3.6 1 .7 1 2.1h-1.1q0-.7-.4-1-.5-.7-1.8-.7-1 0-1.5.4-.4.5-.4 1 0 .7.5 1l1.6.4 1.2.3q.8.2 1.3.5.8.6.8 1.8 0 1.4-1 2-1 .7-2.4.7-1.6 0-2.5-.9-1-.8-1-2.2h1.2zm2.3-6zm4.8.2h1v3.2l.7-.7q.5-.3 1.3-.3 1.3 0 1.8 1 .3.4.3 1.4v4h-1.1v-4q0-.6-.2-1-.3-.5-1-.5t-1.2.5q-.6.4-.6 1.7v3.3h-1v-8.6zm7.5 6.9q0 .5.3.8.3.2.8.2l1-.2q1-.5 1-1.4v-.9l-.6.2-.6.1-.6.1q-.6 0-.9.3-.4.2-.4.8zm2.5-2.1q.4 0 .5-.3v-.4q0-.6-.3-.8-.4-.2-1.1-.2-.8 0-1.2.4-.2.3-.2.7h-1q0-1.1.7-1.6.8-.4 1.7-.4 1.1 0 1.8.4t.7 1.3v3.9h.7v.8l-.4.1h-.3q-.6 0-.8-.4-.2-.2-.2-.5-.3.4-1 .7-.5.3-1.3.3t-1.4-.5q-.5-.5-.5-1.3 0-1 .5-1.4.5-.5 1.4-.6l1.7-.2zm-.9-2.6zm4.3.1h1v1.1q0-.3.6-.8.4-.4 1-.4h.4v1.1h-.3q-.8 0-1.3.5-.4.5-.4 1.2v3.6h-1v-6.3zm4.6 3.3q0 1 .4 1.6.5.7 1.4.7.7 0 1.2-.6.5-.7.5-1.8 0-1.2-.5-1.8-.5-.6-1.2-.6-.8 0-1.3.6-.5.7-.5 1.8zm1.6-3.4q.7 0 1.2.3l.6.6v-3.1h1v8.6h-.9v-.9q-.4.6-.9.9-.5.2-1.1.2-1 0-1.8-.9-.8-.8-.8-2.3 0-1.4.7-2.4t2-1zm8 5.1h1.2v1.3H212v-1.3zm3.3 0h1.2v1.3h-1.2v-1.3zm3.3 0h1.3v1.3h-1.3v-1.3z" font-size="12" font-family="Helvetica,Arial,sans-serif"/><path stroke-opacity="null" d="M320.4 181.6h212v123.2l-106 30.8-106-30.8V181.6z" fill="#eaedea" stroke="#000" stroke-width="1.5"/><path d="M345.5 208h68v19h-68z" fill="#00bf00" stroke="#000" stroke-width="1.5"/><path d="M358.3 214.7h1v1l.7-.8q.5-.3 1.2-.3t1.2.4l.5.6q.3-.5.8-.8l1-.2q1.3 0 1.8.9.2.5.2 1.3v4.2h-1v-4.4q0-.6-.4-.8-.3-.3-.8-.3-.6 0-1 .5-.5.4-.5 1.3v3.7h-1v-4.1q0-.6-.2-1t-.9-.4q-.6 0-1 .5-.6.5-.6 1.7v3.3h-1v-6.3zm12.4 5.6q1.1 0 1.5-.8.4-.8.4-1.7 0-1-.3-1.5-.5-.8-1.5-.8t-1.4.7q-.5.7-.5 1.8 0 1 .5 1.7.4.6 1.3.6zm0-5.8q1.3 0 2.1.9.9.8.9 2.3 0 1.5-.8 2.5-.7 1-2.3 1-1.2 0-2-.8-.8-1-.8-2.4 0-1.6.8-2.5.8-1 2.2-1zm0 0zm4.3.2h1v1q.4-.6.9-.9l1-.2q1.4 0 1.9 1 .3.4.3 1.4v4H379v-4q0-.5-.2-.9-.3-.6-1-.6l-.6.1q-.5.1-.8.5l-.3.7-.1 1v3.2h-1v-6.3zm2.4-.1zm6.4 0q.8 0 1.3.4l.6.6v-.8h1v5.7q0 1.2-.3 1.9-.7 1.3-2.5 1.3-1 0-1.7-.5t-.8-1.4h1q.1.4.4.6.3.4 1.1.4 1.2 0 1.6-.9.2-.5.2-1.8-.3.5-.8.7-.4.3-1.2.3-1 0-1.7-.7-.8-.8-.8-2.4 0-1.6.8-2.5.7-.9 1.8-.9zm2 3.2q0-1.1-.6-1.7-.4-.6-1.2-.6-1 0-1.5 1-.2.6-.2 1.5 0 1.1.4 1.7.4.5 1.2.5 1.1 0 1.6-1 .2-.6.2-1.4zm-1.8-3.2zm6.8 5.7q1 0 1.4-.8.4-.8.4-1.7 0-1-.3-1.5-.4-.8-1.5-.8-1 0-1.4.7-.4.7-.4 1.8 0 1 .4 1.7.4.6 1.4.6zm0-5.8q1.2 0 2 .9 1 .8 1 2.3 0 1.5-.8 2.5t-2.3 1q-1.3 0-2-.8-.8-1-.8-2.4 0-1.6.8-2.5.8-1 2.1-1zm0 0zm4.8 3.5q0 1 .5 1.6.4.7 1.3.7.8 0 1.2-.6.5-.7.5-1.8 0-1.2-.5-1.8-.5-.6-1.2-.6-.8 0-1.3.6-.5.7-.5 1.8zm1.6-3.4q.8 0 1.2.3l.7.6v-3.1h1v8.6h-1v-.9q-.3.6-.8.9-.5.2-1.2.2-1 0-1.8-.9-.8-.8-.8-2.3 0-1.4.7-2.4t2-1z" font-size="12" font-family="Helvetica,Arial,sans-serif" fill="#fff"/><path d="M358.5 232h68v19h-68z" fill="#00bf00" stroke="#000" stroke-width="1.5"/><path d="M371.3 238.7h1v1l.7-.8q.5-.3 1.2-.3t1.2.4l.5.6q.3-.5.8-.8l1-.2q1.3 0 1.8.9.2.5.2 1.3v4.2h-1v-4.4q0-.6-.4-.8-.3-.3-.8-.3-.6 0-1 .5-.5.4-.5 1.3v3.7h-1v-4.1q0-.6-.2-1t-.9-.4q-.6 0-1 .5-.6.5-.6 1.7v3.3h-1v-6.3zm12.4 5.6q1.1 0 1.5-.8.4-.8.4-1.7 0-1-.3-1.5-.5-.8-1.5-.8t-1.4.7q-.5.7-.5 1.8 0 1 .5 1.7.4.6 1.3.6zm0-5.8q1.3 0 2.1.9.9.8.9 2.3 0 1.5-.8 2.5-.7 1-2.3 1-1.2 0-2-.8-.8-1-.8-2.4 0-1.6.8-2.5.8-1 2.2-1zm0 0zm4.3.2h1v1q.4-.6.9-.9l1-.2q1.4 0 1.9 1 .3.4.3 1.4v4H392v-4q0-.5-.2-.9-.3-.6-1-.6l-.6.1q-.5.1-.8.5l-.3.7-.1 1v3.2h-1v-6.3zm2.4-.1zm6.4 0q.8 0 1.3.4l.6.6v-.8h1v5.7q0 1.2-.3 1.9-.7 1.3-2.5 1.3-1 0-1.7-.5t-.8-1.4h1q.1.4.4.6.3.4 1.1.4 1.2 0 1.6-.9.2-.5.2-1.8-.3.5-.8.7-.4.3-1.2.3-1 0-1.7-.7-.8-.8-.8-2.4 0-1.6.8-2.5.7-.9 1.8-.9zm2 3.2q0-1.1-.6-1.7-.4-.6-1.2-.6-1 0-1.5 1-.2.6-.2 1.5 0 1.1.4 1.7.4.5 1.2.5 1.1 0 1.6-1 .2-.6.2-1.4zm-1.8-3.2zm6.8 5.7q1 0 1.4-.8.4-.8.4-1.7 0-1-.3-1.5-.4-.8-1.5-.8-1 0-1.4.7-.4.7-.4 1.8 0 1 .4 1.7.4.6 1.4.6zm0-5.8q1.2 0 2 .9 1 .8 1 2.3 0 1.5-.8 2.5t-2.3 1q-1.3 0-2-.8-.8-1-.8-2.4 0-1.6.8-2.5.8-1 2.1-1zm0 0zm4.8 3.5q0 1 .5 1.6.4.7 1.3.7.8 0 1.2-.6.5-.7.5-1.8 0-1.2-.5-1.8-.5-.6-1.2-.6-.8 0-1.3.6-.5.7-.5 1.8zm1.6-3.4q.8 0 1.2.3l.7.6v-3.1h1v8.6h-1v-.9q-.3.6-.8.9-.5.2-1.2.2-1 0-1.8-.9-.8-.8-.8-2.3 0-1.4.7-2.4t2-1z" font-size="12" font-family="Helvetica,Arial,sans-serif" fill="#fff"/><path d="M345.5 256h68v19h-68z" fill="#00bf00" stroke="#000" stroke-width="1.5"/><path d="M358.3 263.7h1v1l.7-.8q.5-.3 1.2-.3t1.2.4l.5.6q.3-.5.8-.8l1-.2q1.3 0 1.8.9.2.5.2 1.3v4.2h-1v-4.4q0-.6-.4-.8-.3-.3-.8-.3-.6 0-1 .5-.5.4-.5 1.3v3.7h-1v-4.1q0-.6-.2-1t-.9-.4q-.6 0-1 .5-.6.5-.6 1.7v3.3h-1v-6.3zm12.4 5.6q1.1 0 1.5-.8.4-.8.4-1.7 0-1-.3-1.5-.5-.8-1.5-.8t-1.4.7q-.5.7-.5 1.8 0 1 .5 1.7.4.6 1.3.6zm0-5.8q1.3 0 2.1.9.9.8.9 2.3 0 1.5-.8 2.5-.7 1-2.3 1-1.2 0-2-.8-.8-1-.8-2.4 0-1.6.8-2.5.8-1 2.2-1zm0 0zm4.3.2h1v1q.4-.6.9-.9l1-.2q1.4 0 1.9 1 .3.4.3 1.4v4H379v-4q0-.5-.2-.9-.3-.6-1-.6l-.6.1q-.5.1-.8.5l-.3.7-.1 1v3.2h-1v-6.3zm2.4-.1zm6.4 0q.8 0 1.3.4l.6.6v-.8h1v5.7q0 1.2-.3 1.9-.7 1.3-2.5 1.3-1 0-1.7-.5t-.8-1.4h1q.1.4.4.6.3.4 1.1.4 1.2 0 1.6-.9.2-.5.2-1.8-.3.5-.8.7-.4.3-1.2.3-1 0-1.7-.7-.8-.8-.8-2.4 0-1.6.8-2.5.7-.9 1.8-.9zm2 3.2q0-1.1-.6-1.7-.4-.6-1.2-.6-1 0-1.5 1-.2.6-.2 1.5 0 1.1.4 1.7.4.5 1.2.5 1.1 0 1.6-1 .2-.6.2-1.4zm-1.8-3.2zm6.8 5.7q1 0 1.4-.8.4-.8.4-1.7 0-1-.3-1.5-.4-.8-1.5-.8-1 0-1.4.7-.4.7-.4 1.8 0 1 .4 1.7.4.6 1.4.6zm0-5.8q1.2 0 2 .9 1 .8 1 2.3 0 1.5-.8 2.5t-2.3 1q-1.3 0-2-.8-.8-1-.8-2.4 0-1.6.8-2.5.8-1 2.1-1zm0 0zm4.8 3.5q0 1 .5 1.6.4.7 1.3.7.8 0 1.2-.6.5-.7.5-1.8 0-1.2-.5-1.8-.5-.6-1.2-.6-.8 0-1.3.6-.5.7-.5 1.8zm1.6-3.4q.8 0 1.2.3l.7.6v-3.1h1v8.6h-1v-.9q-.3.6-.8.9-.5.2-1.2.2-1 0-1.8-.9-.8-.8-.8-2.3 0-1.4.7-2.4t2-1z" font-size="12" font-family="Helvetica,Arial,sans-serif" fill="#fff"/><path d="M434.5 208h68v19h-68z" fill="#00bf00" stroke="#000" stroke-width="1.5"/><path d="M447.3 214.7h1v1l.7-.8q.5-.3 1.2-.3t1.2.4l.5.6q.3-.5.8-.8l1-.2q1.3 0 1.8.9.2.5.2 1.3v4.2h-1v-4.4q0-.6-.4-.8-.3-.3-.8-.3-.6 0-1 .5-.5.4-.5 1.3v3.7h-1v-4.1q0-.6-.2-1t-.9-.4q-.6 0-1 .5-.6.5-.6 1.7v3.3h-1v-6.3zm12.4 5.6q1.1 0 1.5-.8.4-.8.4-1.7 0-1-.3-1.5-.5-.8-1.5-.8t-1.4.7q-.5.7-.5 1.8 0 1 .5 1.7.4.6 1.3.6zm0-5.8q1.3 0 2.1.9.9.8.9 2.3 0 1.5-.8 2.5-.7 1-2.3 1-1.2 0-2-.8-.8-1-.8-2.4 0-1.6.8-2.5.8-1 2.2-1zm0 0zm4.3.2h1v1q.4-.6.9-.9l1-.2q1.4 0 1.9 1 .3.4.3 1.4v4H468v-4q0-.5-.2-.9-.3-.6-1-.6l-.6.1q-.5.1-.8.5l-.3.7-.1 1v3.2h-1v-6.3zm2.4-.1zm6.4 0q.8 0 1.3.4l.6.6v-.8h1v5.7q0 1.2-.3 1.9-.7 1.3-2.5 1.3-1 0-1.7-.5t-.8-1.4h1q.1.4.4.6.3.4 1.1.4 1.2 0 1.6-.9.2-.5.2-1.8-.3.5-.8.7-.4.3-1.2.3-1 0-1.7-.7-.8-.8-.8-2.4 0-1.6.8-2.5.7-.9 1.8-.9zm2 3.2q0-1.1-.6-1.7-.4-.6-1.2-.6-1 0-1.5 1-.2.6-.2 1.5 0 1.1.4 1.7.4.5 1.2.5 1.1 0 1.6-1 .2-.6.2-1.4zm-1.8-3.2zm6.8 5.7q1 0 1.4-.8.4-.8.4-1.7 0-1-.3-1.5-.4-.8-1.5-.8-1 0-1.4.7-.4.7-.4 1.8 0 1 .4 1.7.4.6 1.4.6zm0-5.8q1.2 0 2 .9 1 .8 1 2.3 0 1.5-.8 2.5t-2.3 1q-1.3 0-2-.8-.8-1-.8-2.4 0-1.6.8-2.5.8-1 2.1-1zm0 0zm4.8 3.5q0 1 .5 1.6.4.7 1.3.7.8 0 1.2-.6.5-.7.5-1.8 0-1.2-.5-1.8-.5-.6-1.2-.6-.8 0-1.3.6-.5.7-.5 1.8zm1.6-3.4q.8 0 1.2.3l.7.6v-3.1h1v8.6h-1v-.9q-.3.6-.8.9-.5.2-1.2.2-1 0-1.8-.9-.8-.8-.8-2.3 0-1.4.7-2.4t2-1z" font-size="12" font-family="Helvetica,Arial,sans-serif" fill="#fff"/><path d="M447.5 232h68v19h-68z" fill="#00bf00" stroke="#000" stroke-width="1.5"/><path d="M460.3 238.7h1v1l.7-.8q.5-.3 1.2-.3t1.2.4l.5.6q.3-.5.8-.8l1-.2q1.3 0 1.8.9.2.5.2 1.3v4.2h-1v-4.4q0-.6-.4-.8-.3-.3-.8-.3-.6 0-1 .5-.5.4-.5 1.3v3.7h-1v-4.1q0-.6-.2-1t-.9-.4q-.6 0-1 .5-.6.5-.6 1.7v3.3h-1v-6.3zm12.4 5.6q1.1 0 1.5-.8.4-.8.4-1.7 0-1-.3-1.5-.5-.8-1.5-.8t-1.4.7q-.5.7-.5 1.8 0 1 .5 1.7.4.6 1.3.6zm0-5.8q1.3 0 2.1.9.9.8.9 2.3 0 1.5-.8 2.5-.7 1-2.3 1-1.2 0-2-.8-.8-1-.8-2.4 0-1.6.8-2.5.8-1 2.2-1zm0 0zm4.3.2h1v1q.4-.6.9-.9l1-.2q1.4 0 1.9 1 .3.4.3 1.4v4H481v-4q0-.5-.2-.9-.3-.6-1-.6l-.6.1q-.5.1-.8.5l-.3.7-.1 1v3.2h-1v-6.3zm2.4-.1zm6.4 0q.8 0 1.3.4l.6.6v-.8h1v5.7q0 1.2-.3 1.9-.7 1.3-2.5 1.3-1 0-1.7-.5t-.8-1.4h1q.1.4.4.6.3.4 1.1.4 1.2 0 1.6-.9.2-.5.2-1.8-.3.5-.8.7-.4.3-1.2.3-1 0-1.7-.7-.8-.8-.8-2.4 0-1.6.8-2.5.7-.9 1.8-.9zm2 3.2q0-1.1-.6-1.7-.4-.6-1.2-.6-1 0-1.5 1-.2.6-.2 1.5 0 1.1.4 1.7.4.5 1.2.5 1.1 0 1.6-1 .2-.6.2-1.4zm-1.8-3.2zm6.8 5.7q1 0 1.4-.8.4-.8.4-1.7 0-1-.3-1.5-.4-.8-1.5-.8-1 0-1.4.7-.4.7-.4 1.8 0 1 .4 1.7.4.6 1.4.6zm0-5.8q1.2 0 2 .9 1 .8 1 2.3 0 1.5-.8 2.5t-2.3 1q-1.3 0-2-.8-.8-1-.8-2.4 0-1.6.8-2.5.8-1 2.1-1zm0 0zm4.8 3.5q0 1 .5 1.6.4.7 1.3.7.8 0 1.2-.6.5-.7.5-1.8 0-1.2-.5-1.8-.5-.6-1.2-.6-.8 0-1.3.6-.5.7-.5 1.8zm1.6-3.4q.8 0 1.2.3l.7.6v-3.1h1v8.6h-1v-.9q-.3.6-.8.9-.5.2-1.2.2-1 0-1.8-.9-.8-.8-.8-2.3 0-1.4.7-2.4t2-1z" font-size="12" font-family="Helvetica,Arial,sans-serif" fill="#fff"/><path d="M434.5 256h68v19h-68z" fill="#00bf00" stroke="#000" stroke-width="1.5"/><path d="M447.3 263.7h1v1l.7-.8q.5-.3 1.2-.3t1.2.4l.5.6q.3-.5.8-.8l1-.2q1.3 0 1.8.9.2.5.2 1.3v4.2h-1v-4.4q0-.6-.4-.8-.3-.3-.8-.3-.6 0-1 .5-.5.4-.5 1.3v3.7h-1v-4.1q0-.6-.2-1t-.9-.4q-.6 0-1 .5-.6.5-.6 1.7v3.3h-1v-6.3zm12.4 5.6q1.1 0 1.5-.8.4-.8.4-1.7 0-1-.3-1.5-.5-.8-1.5-.8t-1.4.7q-.5.7-.5 1.8 0 1 .5 1.7.4.6 1.3.6zm0-5.8q1.3 0 2.1.9.9.8.9 2.3 0 1.5-.8 2.5-.7 1-2.3 1-1.2 0-2-.8-.8-1-.8-2.4 0-1.6.8-2.5.8-1 2.2-1zm0 0zm4.3.2h1v1q.4-.6.9-.9l1-.2q1.4 0 1.9 1 .3.4.3 1.4v4H468v-4q0-.5-.2-.9-.3-.6-1-.6l-.6.1q-.5.1-.8.5l-.3.7-.1 1v3.2h-1v-6.3zm2.4-.1zm6.4 0q.8 0 1.3.4l.6.6v-.8h1v5.7q0 1.2-.3 1.9-.7 1.3-2.5 1.3-1 0-1.7-.5t-.8-1.4h1q.1.4.4.6.3.4 1.1.4 1.2 0 1.6-.9.2-.5.2-1.8-.3.5-.8.7-.4.3-1.2.3-1 0-1.7-.7-.8-.8-.8-2.4 0-1.6.8-2.5.7-.9 1.8-.9zm2 3.2q0-1.1-.6-1.7-.4-.6-1.2-.6-1 0-1.5 1-.2.6-.2 1.5 0 1.1.4 1.7.4.5 1.2.5 1.1 0 1.6-1 .2-.6.2-1.4zm-1.8-3.2zm6.8 5.7q1 0 1.4-.8.4-.8.4-1.7 0-1-.3-1.5-.4-.8-1.5-.8-1 0-1.4.7-.4.7-.4 1.8 0 1 .4 1.7.4.6 1.4.6zm0-5.8q1.2 0 2 .9 1 .8 1 2.3 0 1.5-.8 2.5t-2.3 1q-1.3 0-2-.8-.8-1-.8-2.4 0-1.6.8-2.5.8-1 2.1-1zm0 0zm4.8 3.5q0 1 .5 1.6.4.7 1.3.7.8 0 1.2-.6.5-.7.5-1.8 0-1.2-.5-1.8-.5-.6-1.2-.6-.8 0-1.3.6-.5.7-.5 1.8zm1.6-3.4q.8 0 1.2.3l.7.6v-3.1h1v8.6h-1v-.9q-.3.6-.8.9-.5.2-1.2.2-1 0-1.8-.9-.8-.8-.8-2.3 0-1.4.7-2.4t2-1z" font-size="12" font-family="Helvetica,Arial,sans-serif" fill="#fff"/><path d="M354.2 196.2q0 .8.3 1.2.6.9 2 .9.7 0 1.3-.2 1-.4 1-1.3 0-.7-.4-1-.5-.3-1.4-.5l-1.2-.3q-1.1-.3-1.6-.6-.8-.5-.8-1.6t.8-1.9q.8-.7 2.2-.7 1.4 0 2.3.6 1 .7 1 2.1h-1.1q0-.7-.4-1-.5-.7-1.8-.7-1 0-1.5.4-.4.5-.4 1 0 .7.5 1l1.6.4 1.2.3q.8.2 1.3.5.8.6.8 1.8 0 1.4-1 2-1 .7-2.4.7-1.6 0-2.5-.9-1-.8-1-2.2h1.2zm2.3-6zm4.8.2h1v3.2l.7-.7q.5-.3 1.3-.3 1.3 0 1.8 1 .3.4.3 1.4v4h-1.1v-4q0-.6-.2-1-.3-.5-1-.5t-1.2.5q-.6.4-.6 1.7v3.3h-1v-8.6zm7.5 6.9q0 .5.3.8.3.2.8.2l1-.2q1-.5 1-1.4v-.9l-.6.2-.6.1-.6.1q-.6 0-.9.3-.4.2-.4.8zm2.5-2.1q.4 0 .5-.3v-.4q0-.6-.3-.8-.4-.2-1.1-.2-.8 0-1.2.4-.2.3-.2.7h-1q0-1.1.7-1.6.8-.4 1.7-.4 1.1 0 1.8.4t.7 1.3v3.9h.7v.8l-.4.1h-.3q-.6 0-.8-.4-.2-.2-.2-.5-.3.4-1 .7-.5.3-1.3.3t-1.4-.5q-.5-.5-.5-1.3 0-1 .5-1.4.5-.5 1.4-.6l1.7-.2zm-.9-2.6zm4.3.1h1v1.1q0-.3.6-.8.4-.4 1-.4h.4v1.1h-.3q-.8 0-1.3.5-.4.5-.4 1.2v3.6h-1v-6.3zm4.6 3.3q0 1 .4 1.6.5.7 1.4.7.7 0 1.2-.6.5-.7.5-1.8 0-1.2-.5-1.8-.5-.6-1.2-.6-.8 0-1.3.6-.5.7-.5 1.8zm1.6-3.4q.7 0 1.2.3l.6.6v-3.1h1v8.6h-.9v-.9q-.4.6-.9.9-.5.2-1.1.2-1 0-1.8-.9-.8-.8-.8-2.3 0-1.4.7-2.4t2-1zm7.9-2.2h1.4l4.3 7v-7h1.1v8.6h-1.3l-4.4-7v7h-1.1v-8.6zm3.3 0zm4.9 6v-1h2.6V193h1v2.5h2.6v1h-2.6v2.6h-1v-2.6h-2.5zm7.7-3.4v-.7l1.6-.4q.4-.3.6-1.3h.9v8.4h-1.2v-6h-2zm37.5 3.2q0 .8.3 1.2.6.9 2 .9.7 0 1.3-.2 1-.4 1-1.3 0-.7-.4-1-.5-.3-1.4-.5l-1.2-.3q-1.1-.3-1.6-.6-.8-.5-.8-1.6t.8-1.9q.8-.7 2.2-.7 1.4 0 2.3.6 1 .7 1 2.1h-1.1q0-.7-.4-1-.5-.7-1.8-.7-1 0-1.5.4-.4.5-.4 1 0 .7.5 1l1.6.4 1.2.3q.8.2 1.3.5.8.6.8 1.8 0 1.4-1 2-1 .7-2.4.7-1.6 0-2.5-.9-1-.8-1-2.2h1.2zm2.3-6zm4.8.2h1v3.2l.7-.7q.5-.3 1.3-.3 1.3 0 1.8 1 .3.4.3 1.4v4h-1.1v-4q0-.6-.2-1-.3-.5-1-.5t-1.2.5q-.6.4-.6 1.7v3.3h-1v-8.6zm7.5 6.9q0 .5.3.8.3.2.8.2l1-.2q1-.5 1-1.4v-.9l-.6.2-.6.1-.6.1q-.6 0-.9.3-.4.2-.4.8zm2.5-2.1q.4 0 .5-.3v-.4q0-.6-.3-.8-.4-.2-1.1-.2-.8 0-1.2.4-.2.3-.2.7h-1q0-1.1.7-1.6.8-.4 1.7-.4 1.1 0 1.8.4t.7 1.3v3.9h.7v.8l-.4.1h-.3q-.6 0-.8-.4-.2-.2-.2-.5-.3.4-1 .7-.5.3-1.3.3t-1.4-.5q-.5-.5-.5-1.3 0-1 .5-1.4.5-.5 1.4-.6l1.7-.2zm-.9-2.6zm4.3.1h1v1.1q0-.3.6-.8.4-.4 1-.4h.4v1.1h-.3q-.8 0-1.3.5-.4.5-.4 1.2v3.6h-1v-6.3zm4.6 3.3q0 1 .4 1.6.5.7 1.4.7.7 0 1.2-.6.5-.7.5-1.8 0-1.2-.5-1.8-.5-.6-1.2-.6-.8 0-1.3.6-.5.7-.5 1.8zm1.6-3.4q.7 0 1.2.3l.6.6v-3.1h1v8.6h-.9v-.9q-.4.6-.9.9-.5.2-1.1.2-1 0-1.8-.9-.8-.8-.8-2.3 0-1.4.7-2.4t2-1zm7.9-2.2h1.4l4.3 7v-7h1.1v8.6h-1.3l-4.4-7v7h-1.1v-8.6zm3.3 0zm4.9 6v-1h2.6V193h1v2.5h2.6v1h-2.6v2.6h-1v-2.6h-2.5zm6.9 2.6q0-1 .4-1.9.4-.8 1.6-1.4l1-.7 1.2-.7q.4-.5.4-1.2t-.4-1.1q-.4-.5-1.2-.5-1 0-1.5.9-.2.4-.2 1.2H492q0-1.1.4-1.8.7-1.2 2.4-1.2 1.5 0 2.1.8.7.7.7 1.7t-.7 1.7q-.4.4-1.5 1l-.8.5-.9.6q-.6.5-.7 1.1h4.6v1h-5.8z" font-size="12" font-family="Helvetica,Arial,sans-serif"/><path d="M223 23q0 1.2.5 1.9.9 1.3 3 1.3 1 0 1.9-.3 1.5-.6 1.5-2 0-1-.6-1.5-.7-.4-2.1-.7l-1.8-.4q-1.7-.4-2.4-.9-1.2-.8-1.2-2.4 0-1.8 1.2-2.9 1.2-1 3.4-1 2 0 3.4.9 1.5 1 1.5 3.1h-1.7q-.1-1-.5-1.6-.8-1-2.8-1-1.5 0-2.2.7-.7.6-.7 1.5 0 1 .8 1.4.6.3 2.4.7l1.8.4q1.3.3 2 .8 1.2 1 1.2 2.6 0 2.2-1.5 3.1-1.6 1-3.6 1-2.4 0-3.8-1.3-1.4-1.2-1.3-3.3h1.6zm3.5-9zm7.1.3h1.6V19l1-1q.8-.5 2-.5 2 0 2.7 1.4.4.8.4 2.2v6h-1.6v-5.9q0-1-.3-1.5-.4-.8-1.6-.8-1 0-1.8.7t-.8 2.6v5h-1.6v-13zm11.3 10.4q0 .7.5 1.1.5.4 1.2.4.8 0 1.6-.4 1.3-.6 1.3-2v-1.3l-.8.3-.9.1-1 .2q-.8 0-1.2.3-.7.4-.7 1.3zm3.8-3.2q.5 0 .7-.4l.1-.6q0-.8-.5-1.2-.6-.4-1.7-.4-1.2 0-1.7.7-.3.4-.4 1.1h-1.5q0-1.7 1.1-2.4t2.5-.7q1.7 0 2.7.6 1 .7 1 2v5.4q0 .3.2.4 0 .2.4.2h.5v1l-.5.2h-.6q-.8 0-1.2-.5-.2-.3-.2-.9-.5.6-1.4 1.1-1 .5-2 .5-1.3 0-2.2-.8-.8-.8-.8-2 0-1.3.8-2 .8-.8 2.2-1l2.5-.3zm-1.3-3.9zm6.3.2h1.5v1.7q.2-.5 1-1.2.6-.7 1.6-.7h.5v1.7h-.5q-1.2 0-1.9.8-.6.7-.6 1.7v5.5h-1.6v-9.5zm7 4.9q0 1.5.6 2.5.7 1 2 1 1.2 0 1.9-1 .7-.9.7-2.7 0-1.7-.7-2.6-.8-.9-1.8-.9-1.2 0-2 1-.7.9-.7 2.7zm2.4-5q1 0 1.8.4l1 1v-4.8h1.5v13h-1.5v-1.4q-.5 1-1.3 1.3-.7.4-1.7.4-1.6 0-2.7-1.3-1.2-1.4-1.2-3.6 0-2 1-3.5 1.1-1.5 3-1.5zm10.5-.1q1 0 2 .5t1.4 1.2q.5.7.6 1.7.2.6.2 2h-7q.1 1.5.7 2.4.7.8 2 .8 1.2 0 2-.8.4-.5.6-1.1h1.5q0 .5-.4 1.2l-.7 1q-.8.7-1.8 1h-1.3q-1.8 0-3-1.2-1.2-1.3-1.2-3.6 0-2.2 1.2-3.7 1.2-1.4 3.2-1.4zm2.5 4.2q0-1-.4-1.7-.7-1-2.2-1-1 0-1.8.7-.7.8-.8 2h5.2zm-2.6-4.2zm7.2 5.1q0 1.5.7 2.5.6 1 2 1 1.1 0 1.8-1 .7-.9.7-2.7 0-1.7-.7-2.6-.7-.9-1.8-.9-1.2 0-2 1-.7.9-.7 2.7zm2.4-5q1 0 1.8.4l1 1v-4.8h1.5v13H286v-1.4q-.6 1-1.3 1.3-.8.4-1.8.4-1.5 0-2.7-1.3-1.1-1.4-1.1-3.6 0-2 1-3.5t3-1.5zm17.3-3.7q2.4 0 3.8 1.3 1.3 1.3 1.5 3H304q-.3-1.3-1.2-2-.8-.8-2.4-.8-1.9 0-3 1.4-1.3 1.3-1.3 4 0 2.3 1.1 3.7 1 1.4 3.2 1.4 1.9 0 3-1.4.4-.8.7-2.1h1.7q-.2 2-1.5 3.4-1.5 1.7-4.1 1.7-2.3 0-3.8-1.4-2-1.8-2-5.5 0-2.9 1.5-4.7 1.6-2 4.5-2zm-.4 0zm7.8.3h1.6v13h-1.6v-13zm5.5 3.5v6.3q0 .7.3 1.2.4.8 1.5.8 1.7 0 2.3-1.5.3-.8.3-2.1v-4.7h1.6v9.4h-1.5V26q-.3.5-.8.9-.9.7-2.1.7-2 0-2.8-1.3-.4-.8-.4-2v-6.4h1.6zm2.2-.2zm7.2 6.7q0 .8.4 1.2.6.8 2 .8 1 0 1.6-.4.7-.4.7-1.2 0-.6-.5-1l-1.4-.4-1.3-.3q-1.2-.3-1.7-.6-1-.7-1-1.8 0-1.4 1-2.2.9-.8 2.5-.8 2.1 0 3 1.2.7.8.6 1.7h-1.5q0-.5-.3-1-.6-.6-2-.6-.8 0-1.3.4-.4.3-.4.9 0 .6.6 1l1 .4 1 .2q1.8.4 2.3.8 1 .6 1 2 0 1.2-1 2.1-1 1-2.9 1-2.1 0-3-1-.8-1-1-2.4h1.6zm2.3-6.7zm6.1-2.4h1.6v2.6h1.5v1.3h-1.5v6.2q0 .5.4.6l.6.1h.5v1.2l-.5.2h-.7q-1 0-1.5-.6-.4-.5-.4-1.4V19h-1.3v-1.3h1.3v-2.6zm8.7 2.4q1 0 1.9.5 1 .5 1.4 1.2.5.7.7 1.7l.1 2H337q0 1.5.7 2.4.6.8 2 .8 1.2 0 2-.8l.5-1.1h1.6q0 .5-.4 1.2l-.8 1q-.7.7-1.8 1h-1.3q-1.8 0-3-1.2-1.2-1.3-1.2-3.6 0-2.2 1.2-3.7 1.3-1.4 3.3-1.4zm2.5 4.2q-.1-1-.5-1.7-.6-1-2.1-1-1.1 0-1.9.7-.7.8-.8 2h5.3zm-2.7-4.2zm6.3.2h1.5v1.7q.2-.5.9-1.2t1.7-.7h.5v1.7h-.5q-1.2 0-1.9.8-.6.7-.6 1.7v5.5h-1.6v-9.5z" font-weight="400" font-size="18" font-family="Helvetica,Arial,sans-serif"/><path d="M57.9 352.6h2.9l-1.4-4.5-1.5 4.5zm.1-7.1h2.7l4.1 11.5h-2.6l-.7-2.4h-4.3l-.8 2.4H54l4.1-11.5zm1.4 0zm12.6 7.2q0-1-.5-1.7-.4-.8-1.4-.8-1.2 0-1.7 1.2-.2.6-.2 1.5 0 1.5.8 2.1.4.4 1 .4 1 0 1.5-.7.5-.8.5-2zm-1.3-4.4q1.5 0 2.5 1.1t1 3.2q0 2.3-1 3.5-1 1.1-2.6 1.1-1 0-1.6-.5-.4-.2-.8-.8v4.5H66v-12h2.2v1.3q.3-.5.7-.8.8-.6 1.8-.6zm11 4.4q0-1-.4-1.7-.5-.8-1.5-.8-1.2 0-1.7 1.2-.2.6-.2 1.5 0 1.5.8 2.1.5.4 1.1.4 1 0 1.4-.7.5-.8.5-2zm-1.2-4.4q1.4 0 2.5 1.1 1 1.1 1 3.2 0 2.3-1 3.5-1 1.1-2.6 1.1-1 0-1.7-.5-.4-.2-.7-.8v4.5h-2.2v-12h2.1v1.3l.8-.8q.7-.6 1.8-.6zm7.4 8.7h-2.3v-11.5H88V357zm4.4-9.5h-2.2v-2h2.2v2zm-2.2 1h2.2v8.5h-2.2v-8.5zm9.5 3l-.4-.8q-.3-.5-1.1-.5-1.1 0-1.6 1-.2.7-.2 1.7 0 .9.2 1.5.4 1 1.5 1 .8 0 1.1-.4.4-.4.4-1h2.3q0 1-.7 1.8-1 1.5-3.1 1.5-2 0-3-1.2t-1-3.2q0-2.2 1-3.4 1.1-1.2 3-1.2 1.6 0 2.6.7t1.2 2.5h-2.2zm-1.5-3.2zm9.9 4.6l-.4.2-.5.1-.5.1q-.7.1-1 .3-.6.3-.6 1 0 .5.4.8.3.2.7.2.7 0 1.3-.4.7-.4.7-1.5v-.8zm-1.3-1l1-.3q.4-.2.4-.6 0-.5-.4-.7-.3-.2-1-.2-.8 0-1.2.4-.2.2-.3.7h-2.1q0-1 .6-1.8.9-1.1 3-1.1 1.4 0 2.5.5 1.1.6 1.1 2.1v5q0 .4.2.5 0 .2.3.3v.3h-2.4l-.2-.5v-.5l-1.1.9q-.7.4-1.6.4-1.2 0-2-.7-.7-.7-.7-1.9 0-1.5 1.2-2.2.7-.4 2-.6h.7zm.1-3.6zm4.6 1.8v-1.5h1.2v-2.4h2.2v2.4h1.4v1.5h-1.4v4.5l.1.7.9.1h.4v1.7h-1q-1.6 0-2.2-.5-.4-.4-.4-1.2V350h-1.2zm8.6-2.6h-2.3v-2h2.2v2zm-2.3 1h2.2v8.5h-2.2v-8.5zm8.2 6.9q1 0 1.5-.7t.5-2q0-1.2-.5-2-.5-.6-1.5-.6t-1.5.7q-.5.7-.5 2 0 1.2.5 2 .5.6 1.5.6zm4.3-2.6q0 1.8-1 3.2-1.1 1.3-3.3 1.3-2.2 0-3.3-1.3-1-1.4-1-3.2 0-1.9 1-3.2 1.1-1.4 3.3-1.4 2.2 0 3.3 1.4 1 1.3 1 3.2zm-4.3-4.5zm10.6 0q1.4 0 2.2.7.8.7.8 2.3v5.7h-2.2v-5.2q0-.7-.2-1-.3-.7-1.3-.7-1.1 0-1.5 1-.2.5-.2 1.3v4.6h-2.3v-8.5h2.2v1.2l.8-.9q.7-.5 1.7-.5zm-.8 0zm14.2 7.1q1 0 1.5-.7t.5-2q0-1.2-.5-2-.5-.6-1.5-.6t-1.5.7q-.5.7-.5 2 0 1.2.5 2 .5.6 1.5.6zm4.4-2.6q0 1.8-1.1 3.2-1.1 1.3-3.3 1.3-2.2 0-3.3-1.3-1-1.4-1-3.2 0-1.9 1-3.2 1.1-1.4 3.3-1.4 2.2 0 3.3 1.4 1 1.3 1 3.2zm-4.4-4.5zm10.5 0h.3v2.3h-.6q-1.3 0-1.8.8-.3.5-.3 1.5v4.1h-2.2v-8.5h2.1v1.5q.5-.9 1-1.2.5-.5 1.5-.5zm5.8 3q0-3 1.6-4.6 1.4-1.4 3.6-1.4 2.9 0 4.2 1.9.7 1 .8 2.1H174q-.2-.8-.6-1.2-.7-.8-2-.8t-2 1q-.8 1.1-.8 3 0 2 .8 3t2 1q1.3 0 2-.9.3-.4.6-1.3h2.4q-.3 1.9-1.6 3-1.3 1.2-3.3 1.2-2.5 0-4-1.6-1.3-1.6-1.3-4.4zm5-6.2zm9.1 3.4v5.1l.1 1.1q.3.7 1.2.7 1.2 0 1.6-1 .2-.5.2-1.3v-4.6h2.3v8.5h-2.2v-1.2l-.2.2q0 .2-.3.4l-1 .6q-.5.2-1.1.2-1.9 0-2.6-1.4-.3-.7-.3-2.2v-5.1h2.3zm1.5-.2zm7.8 6q0 .6.3.8.4.5 1.5.5.6 0 1-.2t.4-.6q0-.4-.3-.6-.3-.2-2.3-.7-1.5-.3-2-.9-.6-.5-.6-1.5 0-1.2.9-2 1-.9 2.6-.9t2.6.7q1 .6 1.1 2.2h-2.2q0-.5-.2-.7-.4-.5-1.3-.5-.7 0-1 .3-.3.2-.3.5 0 .4.3.6l2.3.6q1.4.3 2 1 .7.6.7 1.5 0 1.3-1 2-1 .9-2.9.9-2 0-3-.9-.9-.8-.9-2.1h2.3zm1.7-6zm4.6 1.8v-1.5h1.1v-2.4h2.2v2.4h1.4v1.5h-1.4v4.5q0 .6.2.7l.8.1h.4v1.7h-1q-1.6 0-2.2-.5-.4-.4-.4-1.2V350h-1zm10 5.3q1 0 1.5-.7t.5-2q0-1.2-.5-2-.5-.6-1.5-.6t-1.5.7q-.5.7-.5 2 0 1.2.5 2 .5.6 1.5.6zm4.4-2.6q0 1.8-1.1 3.2-1.1 1.3-3.3 1.3-2.2 0-3.3-1.3-1-1.4-1-3.2 0-1.9 1-3.2 1.1-1.4 3.3-1.4 2.2 0 3.3 1.4 1 1.3 1 3.2zm-4.4-4.5zm15.4 0q.6 0 1.1.2.6.2 1 .8.4.4.5 1l.1 1.3v5.4h-2.3v-5.4q0-.5-.2-.8-.2-.6-1-.6-1 0-1.3.8-.2.4-.2 1v5h-2.2v-5q0-.8-.2-1.2-.3-.6-1.1-.6-1 0-1.3.6-.2.4-.2 1v5.2h-2.2v-8.5h2.1v1.2l.8-.9q.7-.5 1.7-.5t1.6.4q.5.4.7 1 .5-.7 1.1-1 .7-.4 1.5-.4zm8.1 1.7q-.7 0-1.2.6-.4.5-.5 1.3h3.5q-.1-.9-.6-1.3-.5-.5-1.2-.5zm0-1.7q1 0 2 .4.8.4 1.3 1.2.6.8.7 1.8v1.7h-5.8q0 1.2.8 1.8.5.3 1.2.3.6 0 1-.4.3-.2.5-.6h2.3q-.1.8-.8 1.5-1.1 1.3-3 1.3-1.7 0-3-1-1.2-1.1-1.2-3.5 0-2.2 1.1-3.4 1.1-1.1 3-1.1zm.2 0zm10 0h.3v2.3h-.6q-1.4 0-1.8.8-.3.5-.3 1.5v4.1H235v-8.5h2v1.5q.6-.9 1-1.2.6-.5 1.6-.5zm8 8.7H245l3.7-5.9-3.6-5.6h3l2 3.7 2-3.7h2.9l-3.6 5.5 3.8 6h-3l-2.1-4-2.4 4zm83.3-4.4h2.9l-1.4-4.5-1.5 4.5zm.1-7.1h2.7l4.1 11.5h-2.6l-.7-2.4h-4.3l-.8 2.4H327l4.1-11.5zm1.4 0zm12.6 7.2q0-1-.5-1.7-.4-.8-1.4-.8-1.2 0-1.7 1.2-.2.6-.2 1.5 0 1.5.8 2.1.4.4 1 .4 1 0 1.5-.7.5-.8.5-2zm-1.3-4.4q1.5 0 2.5 1.1t1 3.2q0 2.3-1 3.5-1 1.1-2.6 1.1-1 0-1.6-.5-.4-.2-.8-.8v4.5H339v-12h2.2v1.3q.3-.5.7-.8.8-.6 1.8-.6zm11 4.4q0-1-.4-1.7-.5-.8-1.5-.8-1.2 0-1.7 1.2-.2.6-.2 1.5 0 1.5.8 2.1.5.4 1.1.4 1 0 1.4-.7.5-.8.5-2zm-1.2-4.4q1.4 0 2.5 1.1 1 1.1 1 3.2 0 2.3-1 3.5-1 1.1-2.6 1.1-1 0-1.7-.5-.4-.2-.7-.8v4.5h-2.2v-12h2.1v1.3l.8-.8q.7-.6 1.8-.6zm7.4 8.7h-2.3v-11.5h2.3V357zm4.4-9.5h-2.2v-2h2.2v2zm-2.2 1h2.2v8.5h-2.2v-8.5zm9.5 3l-.4-.8q-.3-.5-1.1-.5-1.1 0-1.6 1-.2.7-.2 1.7 0 .9.2 1.5.4 1 1.5 1 .8 0 1.1-.4.4-.4.4-1h2.3q0 1-.7 1.8-1 1.5-3.1 1.5-2 0-3-1.2t-1-3.2q0-2.2 1-3.4 1.1-1.2 3-1.2 1.6 0 2.6.7t1.2 2.5h-2.2zm-1.5-3.2zm9.9 4.6l-.4.2-.5.1-.5.1q-.7.1-1 .3-.6.3-.6 1 0 .5.4.8.3.2.7.2.7 0 1.3-.4.7-.4.7-1.5v-.8zm-1.3-1l1-.3q.4-.2.4-.6 0-.5-.4-.7-.3-.2-1-.2-.8 0-1.2.4-.2.2-.3.7h-2.1q0-1 .6-1.8.9-1.1 3-1.1 1.4 0 2.5.5 1.1.6 1.1 2.1v5q0 .4.2.5 0 .2.3.3v.3h-2.4l-.2-.5v-.5l-1.1.9q-.7.4-1.6.4-1.2 0-2-.7-.7-.7-.7-1.9 0-1.5 1.2-2.2.7-.4 2-.6h.7zm.1-3.6zm4.6 1.8v-1.5h1.2v-2.4h2.2v2.4h1.4v1.5h-1.4v4.5l.1.7.9.1h.4v1.7h-1q-1.6 0-2.2-.5-.4-.4-.4-1.2V350h-1.2zm8.6-2.6h-2.3v-2h2.2v2zm-2.3 1h2.2v8.5h-2.2v-8.5zm8.2 6.9q1 0 1.5-.7t.5-2q0-1.2-.5-2-.5-.6-1.5-.6t-1.5.7q-.5.7-.5 2 0 1.2.5 2 .5.6 1.5.6zm4.4-2.6q0 1.8-1.1 3.2-1.1 1.3-3.3 1.3-2.2 0-3.3-1.3-1-1.4-1-3.2 0-1.9 1-3.2 1.1-1.4 3.3-1.4 2.2 0 3.3 1.4 1 1.3 1 3.2zm-4.4-4.5zm10.6 0q1.4 0 2.2.7.8.7.8 2.3v5.7h-2.2v-5.2q0-.7-.2-1-.4-.7-1.3-.7-1.1 0-1.5 1-.2.5-.2 1.3v4.6h-2.3v-8.5h2.2v1.2l.8-.9q.7-.5 1.7-.5zm-.8 0zm14.2 7.1q1 0 1.5-.7t.5-2q0-1.2-.5-2-.5-.6-1.5-.6t-1.5.7q-.5.7-.5 2 0 1.2.5 2 .5.6 1.5.6zm4.4-2.6q0 1.8-1.1 3.2-1.1 1.3-3.3 1.3-2.2 0-3.3-1.3-1-1.4-1-3.2 0-1.9 1-3.2 1.1-1.4 3.3-1.4 2.2 0 3.3 1.4 1 1.3 1 3.2zm-4.4-4.5zm10.5 0h.3v2.3h-.6q-1.3 0-1.8.8-.3.5-.3 1.5v4.1h-2.2v-8.5h2.1v1.5q.5-.9 1-1.2.5-.5 1.5-.5zm5.8 3q0-3 1.6-4.6 1.4-1.4 3.6-1.4 2.9 0 4.2 1.9.7 1 .8 2.1H447q-.2-.8-.6-1.2-.7-.8-2-.8t-2 1q-.8 1.1-.8 3 0 2 .8 3t2 1q1.3 0 2-.9.4-.4.6-1.3h2.4q-.3 1.9-1.6 3-1.3 1.2-3.3 1.2-2.5 0-4-1.6-1.3-1.6-1.3-4.4zm5-6.2zm9.1 3.4v5.1l.1 1.1q.3.7 1.2.7 1.2 0 1.6-1 .2-.5.2-1.3v-4.6h2.3v8.5h-2.2v-1.2l-.2.2q0 .2-.3.4l-1 .6q-.5.2-1.1.2-1.9 0-2.6-1.4-.3-.7-.3-2.2v-5.1h2.3zm1.5-.2zm7.8 6q0 .6.3.8.4.5 1.5.5.6 0 1-.2t.4-.6q0-.4-.3-.6-.3-.2-2.3-.7-1.5-.3-2-.9-.6-.5-.6-1.5 0-1.2.9-2 1-.9 2.6-.9t2.6.7q1 .6 1.1 2.2h-2.2q0-.5-.2-.7-.4-.5-1.3-.5-.7 0-1 .3-.3.2-.3.5 0 .4.3.6l2.3.6q1.4.3 2 1 .7.6.7 1.5 0 1.3-1 2-1 .9-2.9.9-2 0-3-.9-.9-.8-.9-2.1h2.3zm1.7-6zm4.6 1.8v-1.5h1.1v-2.4h2.2v2.4h1.4v1.5h-1.4v4.5q0 .6.2.7l.8.1h.4v1.7h-1q-1.6 0-2.2-.5-.4-.4-.4-1.2V350h-1zm10 5.3q1 0 1.5-.7t.5-2q0-1.2-.5-2-.5-.6-1.5-.6t-1.5.7q-.5.7-.5 2 0 1.2.5 2 .5.6 1.5.6zm4.4-2.6q0 1.8-1.1 3.2-1.1 1.3-3.3 1.3-2.2 0-3.3-1.3-1-1.4-1-3.2 0-1.9 1-3.2 1.1-1.4 3.3-1.4 2.2 0 3.3 1.4 1 1.3 1 3.2zm-4.4-4.5zm15.4 0q.6 0 1.1.2.6.2 1 .8.4.4.5 1l.1 1.3v5.4h-2.3v-5.4q0-.5-.2-.8-.2-.6-1-.6-1 0-1.3.8-.2.4-.2 1v5h-2.2v-5q0-.8-.2-1.2-.3-.6-1.1-.6-1 0-1.3.6-.2.4-.2 1v5.2h-2.2v-8.5h2.1v1.2l.8-.9q.7-.5 1.7-.5t1.6.4q.5.4.7 1 .5-.7 1.1-1 .7-.4 1.5-.4zm8.1 1.7q-.7 0-1.2.6-.4.5-.5 1.3h3.5q-.1-.9-.6-1.3-.5-.5-1.2-.5zm0-1.7q1 0 2 .4.8.4 1.4 1.2.4.8.6 1.8v1.7h-5.8q0 1.2.8 1.8.5.3 1.2.3.6 0 1-.4.3-.2.5-.6h2.3q-.1.8-.8 1.5-1.1 1.3-3 1.3-1.7 0-3-1-1.2-1.1-1.2-3.5 0-2.2 1.1-3.4 1.1-1.1 3-1.1zm.2 0zm10 0h.3v2.3h-.6q-1.4 0-1.8.8-.3.5-.3 1.5v4.1H508v-8.5h2v1.5q.6-.9 1-1.2.6-.5 1.6-.5zm12.8-2.8h2.7l-3.8 7.2v4.3h-2.4v-4.3l-4-7.2h2.8l2.4 5 2.3-5zm-2.4 0z" font-weight="700" font-size="16" font-family="Helvetica,Arial,sans-serif"/><path d="M44.5 87h68v19h-68zm13 24h68v19h-68zm-13 24h68v19h-68z" fill="#fff" stroke="#000" stroke-width="1.5"/><path d="M46 68.2q1.7 0 2.6.8.9.9 1 2h-1.2q-.1-.9-.7-1.3-.6-.5-1.6-.5-1.3 0-2.1.9t-.8 2.7q0 1.5.7 2.5.7.9 2.1.9 1.3 0 2-1 .3-.5.5-1.4h1.2q-.2 1.4-1 2.3-1 1.1-2.8 1.1-1.5 0-2.5-.9-1.4-1.2-1.4-3.7 0-1.9 1-3.1 1.1-1.3 3-1.3zm-.2 0zm7.6 8.1q1 0 1.5-.8.4-.8.4-1.7 0-1-.3-1.5-.5-.8-1.6-.8-1 0-1.4.7-.4.7-.4 1.8 0 1 .4 1.7.5.6 1.4.6zm0-5.8q1.3 0 2.1.9.9.8.9 2.3 0 1.5-.8 2.5-.7 1-2.3 1-1.3 0-2-.8-.8-1-.8-2.4 0-1.6.8-2.5.8-1 2.2-1zm0 0zm4.2.2h1v1q.5-.6 1-.9l1-.2q1.4 0 1.9 1 .2.4.2 1.4v4h-1v-4q0-.5-.2-.9-.3-.6-1-.6l-.6.1q-.5.1-.8.5-.3.3-.3.7l-.1 1V77h-1v-6.3zm2.5-.1zm4.5-.8q0-.7.2-1 .4-.5 1.4-.5h.5v1h-.4q-.5 0-.6.2v1.3h1v.8h-1V77h-1.1v-5.4h-.9v-.8h.9v-1zm3.1 1h1V77h-1v-6.2zm0-2.4h1v1.2h-1v-1.2zm4.8 2.2q.8 0 1.3.4l.6.6v-.8h1v5.7q0 1.2-.3 1.9-.7 1.3-2.5 1.3-1 0-1.7-.5t-.8-1.4h1l.4.6q.3.4 1.1.4 1.2 0 1.6-.9.2-.5.2-1.8-.3.5-.8.7-.4.3-1.1.3-1 0-1.8-.7-.8-.8-.8-2.4 0-1.6.8-2.5.8-.9 1.8-.9zm2 3.2q0-1.1-.5-1.7-.5-.6-1.3-.6-1 0-1.5 1-.2.6-.2 1.5 0 1.1.4 1.7.5.5 1.2.5 1.1 0 1.6-1 .2-.6.2-1.4zm-1.8-3.2zm8.5 3.6q0 .8.4 1.2.6.9 2 .9.7 0 1.2-.2 1-.4 1-1.3 0-.7-.4-1-.4-.3-1.4-.5l-1-.3q-1.2-.3-1.7-.6-.8-.5-.8-1.6t.8-1.9q.8-.7 2.3-.7 1.4 0 2.3.6 1 .7 1 2.1h-1.1q-.1-.7-.4-1-.6-.7-1.8-.7-1 0-1.5.4-.5.5-.5 1 0 .7.6 1l1.5.4 1.2.3q1 .2 1.4.5.8.6.8 1.8 0 1.4-1 2-1 .7-2.5.7-1.6 0-2.5-.9-.9-.8-.9-2.2h1.1zm2.4-6zm7.4 2.4q.6 0 1.2.3.7.3 1 .8.3.5.4 1.1l.1 1.4h-4.6q0 1 .5 1.5.4.6 1.3.6.8 0 1.3-.5l.4-.8h1q0 .4-.3.8l-.5.7q-.5.5-1.2.6l-.8.1q-1.2 0-2-.8-.8-.9-.8-2.4t.8-2.5q.8-1 2.1-1zm1.6 2.8q0-.7-.3-1.1-.4-.8-1.4-.8-.7 0-1.2.5-.5.6-.6 1.4h3.5zm-1.8-2.8zm4.2.1h1v1.1l.6-.8q.5-.4 1.2-.4h.3v1.1h-.4q-.8 0-1.2.5-.4.5-.4 1.2V77h-1v-6.3zm4.5 0l1.7 5.1 1.8-5h1.1l-2.4 6.2h-1l-2.4-6.3h1.2zm8.1-.1q.7 0 1.3.3.7.3 1 .8.3.5.4 1.1v1.4h-4.5q0 1 .4 1.5.5.6 1.4.6.8 0 1.3-.5l.4-.8h1q0 .4-.3.8l-.5.7q-.5.5-1.2.6l-.8.1q-1.2 0-2-.8-.8-.9-.8-2.4t.8-2.5q.8-1 2.1-1zm1.7 2.8q0-.7-.3-1.1-.4-.8-1.4-.8-.8 0-1.3.5-.4.6-.5 1.4h3.5zm-1.8-2.8zm4.2.1h1v1.1l.6-.8q.5-.4 1.1-.4h.4v1.1h-.4q-.8 0-1.2.5-.4.5-.4 1.2V77h-1v-6.3zm4.6 4.3q0 .6.3.8.4.5 1.4.5.6 0 1-.2.5-.3.5-.8 0-.4-.4-.6l-1-.3-.7-.2q-.8-.2-1.2-.5-.7-.4-.7-1.1 0-1 .6-1.5.7-.5 1.8-.5 1.4 0 2 .8.4.5.4 1.1h-1q0-.3-.3-.6-.3-.4-1.2-.4-.6 0-1 .2-.2.2-.2.6 0 .4.4.7l.7.2.7.2 1.5.5q.6.4.6 1.3 0 .8-.6 1.4-.7.6-2 .6-1.4 0-2-.6-.5-.6-.6-1.6h1zm1.6-4.4zM56.3 94.7h1v1l.7-.8q.5-.3 1.2-.3t1.2.4l.5.6q.3-.5.8-.8l1-.2q1.3 0 1.8.9.2.5.2 1.3v4.2h-1v-4.4q0-.6-.4-.8-.3-.3-.8-.3-.6 0-1 .5-.5.4-.5 1.3v3.7h-1v-4.1q0-.6-.2-1t-.9-.4q-.6 0-1 .5-.6.5-.6 1.7v3.3h-1v-6.3zm12.4 5.6q1.1 0 1.5-.8.4-.8.4-1.7 0-1-.3-1.5-.5-.8-1.5-.8t-1.4.7q-.5.7-.5 1.8 0 1 .5 1.7.4.6 1.3.6zm0-5.8q1.3 0 2.1.9.9.8.9 2.3 0 1.5-.8 2.5-.7 1-2.3 1-1.2 0-2-.8-.8-1-.8-2.4 0-1.6.8-2.5.8-1 2.2-1zm0 0zm4.3.2h1v1q.4-.6.9-.9l1-.2q1.4 0 1.9 1 .3.4.3 1.4v4H77v-4q0-.5-.2-.9-.3-.6-1-.6l-.6.1q-.5.1-.8.5l-.3.7-.1 1v3.2h-1v-6.3zm2.4-.1zm6.4 0q.8 0 1.3.4l.6.6v-.8h1v5.7q0 1.2-.3 1.9-.7 1.3-2.5 1.3-1 0-1.7-.5t-.8-1.4h1q.1.4.4.6.3.4 1.1.4 1.2 0 1.6-.9.2-.5.2-1.8-.3.5-.8.7-.4.3-1.2.3-1 0-1.7-.7-.8-.8-.8-2.4 0-1.6.8-2.5.7-.9 1.8-.9zm2 3.2q0-1.1-.5-1.7-.5-.6-1.3-.6-1 0-1.5 1-.2.6-.2 1.5 0 1.1.4 1.7.4.5 1.2.5 1.1 0 1.6-1 .2-.6.2-1.4zM82 94.6zm6.8 5.7q1 0 1.4-.8.4-.8.4-1.7 0-1-.3-1.5-.4-.8-1.5-.8-1 0-1.4.7-.4.7-.4 1.8 0 1 .4 1.7.4.6 1.4.6zm0-5.8q1.2 0 2 .9 1 .8 1 2.3 0 1.5-.8 2.5t-2.3 1q-1.3 0-2-.8-.8-1-.8-2.4 0-1.6.8-2.5.8-1 2.1-1zm0 0zm4.8 3.5q0 1 .5 1.6.4.7 1.3.7.8 0 1.2-.6.5-.7.5-1.8 0-1.2-.5-1.8-.5-.6-1.2-.6-.8 0-1.3.6-.5.7-.5 1.8zm1.6-3.4q.8 0 1.2.3l.7.6v-3.1h1v8.6h-1v-.9q-.3.6-.8.9-.5.2-1.2.2-1 0-1.8-.9-.8-.8-.8-2.3 0-1.4.7-2.4t2-1zm-38.9 48.1h1v1l.7-.8q.5-.3 1.2-.3t1.2.4l.5.6q.3-.5.8-.8l1-.2q1.3 0 1.8.9.2.5.2 1.3v4.2h-1v-4.4q0-.6-.4-.8-.3-.3-.8-.3-.6 0-1 .5-.5.4-.5 1.3v3.7h-1v-4.1q0-.6-.2-1t-.9-.4q-.6 0-1 .5-.6.5-.6 1.7v3.3h-1v-6.3zm12.4 5.6q1.1 0 1.5-.8.4-.8.4-1.7 0-1-.3-1.5-.5-.8-1.5-.8t-1.4.7q-.5.7-.5 1.8 0 1 .5 1.7.4.6 1.3.6zm0-5.8q1.3 0 2.1.9.9.8.9 2.3 0 1.5-.8 2.5-.7 1-2.3 1-1.2 0-2-.8-.8-1-.8-2.4 0-1.6.8-2.5.8-1 2.2-1zm0 0zm4.3.2h1v1q.4-.6.9-.9l1-.2q1.4 0 1.9 1 .3.4.3 1.4v4H77v-4q0-.5-.2-.9-.3-.6-1-.6l-.6.1q-.5.1-.8.5l-.3.7-.1 1v3.2h-1v-6.3zm2.4-.1zm6.4 0q.8 0 1.3.4l.6.6v-.8h1v5.7q0 1.2-.3 1.9-.7 1.3-2.5 1.3-1 0-1.7-.5t-.8-1.4h1q.1.4.4.6.3.4 1.1.4 1.2 0 1.6-.9.2-.5.2-1.8-.3.5-.8.7-.4.3-1.2.3-1 0-1.7-.7-.8-.8-.8-2.4 0-1.6.8-2.5.7-.9 1.8-.9zm2 3.2q0-1.1-.5-1.7-.5-.6-1.3-.6-1 0-1.5 1-.2.6-.2 1.5 0 1.1.4 1.7.4.5 1.2.5 1.1 0 1.6-1 .2-.6.2-1.4zm-1.8-3.2zm6.8 5.7q1 0 1.4-.8.4-.8.4-1.7 0-1-.3-1.5-.4-.8-1.5-.8-1 0-1.4.7-.4.7-.4 1.8 0 1 .4 1.7.4.6 1.4.6zm0-5.8q1.2 0 2 .9 1 .8 1 2.3 0 1.5-.8 2.5t-2.3 1q-1.3 0-2-.8-.8-1-.8-2.4 0-1.6.8-2.5.8-1 2.1-1zm0 0zm4.8 3.5q0 1 .5 1.6.4.7 1.3.7.8 0 1.2-.6.5-.7.5-1.8 0-1.2-.5-1.8-.5-.6-1.2-.6-.8 0-1.3.6-.5.7-.5 1.8zm1.6-3.4q.8 0 1.2.3l.7.6v-3.1h1v8.6h-1v-.9q-.3.6-.8.9-.5.2-1.2.2-1 0-1.8-.9-.8-.8-.8-2.3 0-1.4.7-2.4t2-1zm-24.9-24.9h1v1l.7-.8q.5-.3 1.2-.3t1.2.4l.5.6q.3-.5.8-.8l1-.2q1.3 0 1.8.9.2.5.2 1.3v4.2h-1v-4.4q0-.6-.4-.8-.3-.3-.8-.3-.6 0-1 .5-.5.4-.5 1.3v3.7h-1v-4.1q0-.6-.2-1t-.9-.4q-.6 0-1 .5-.6.5-.6 1.7v3.3h-1v-6.3zm12.4 5.6q1.1 0 1.5-.8.4-.8.4-1.7 0-1-.3-1.5-.5-.8-1.5-.8t-1.4.7q-.5.7-.5 1.8 0 1 .5 1.7.4.6 1.3.6zm0-5.8q1.3 0 2.1.9.9.8.9 2.3 0 1.5-.8 2.5-.7 1-2.3 1-1.2 0-2-.8-.8-1-.8-2.4 0-1.6.8-2.5.8-1 2.2-1zm0 0zm4.3.2h1v1q.4-.6.9-.9l1-.2q1.4 0 1.9 1 .3.4.3 1.4v4H91v-4q0-.5-.2-.9-.3-.6-1-.6l-.6.1q-.5.1-.8.5l-.3.7-.1 1v3.2h-1v-6.3zm2.4-.1zm6.4 0q.8 0 1.3.4l.6.6v-.8h1v5.7q0 1.2-.3 1.9-.7 1.3-2.5 1.3-1 0-1.7-.5t-.8-1.4h1q.1.4.4.6.3.4 1.1.4 1.2 0 1.6-.9.2-.5.2-1.8-.3.5-.8.7-.4.3-1.2.3-1 0-1.7-.7-.8-.8-.8-2.4 0-1.6.8-2.5.7-.9 1.8-.9zm2 3.2q0-1.1-.5-1.7-.5-.6-1.3-.6-1 0-1.5 1-.2.6-.2 1.5 0 1.1.4 1.7.4.5 1.2.5 1.1 0 1.6-1 .2-.6.2-1.4zm-1.8-3.2zm6.8 5.7q1 0 1.4-.8.4-.8.4-1.7 0-1-.3-1.5-.4-.8-1.5-.8-1 0-1.4.7-.4.7-.4 1.8 0 1 .4 1.7.4.6 1.4.6zm0-5.8q1.2 0 2 .9 1 .8 1 2.3 0 1.5-.8 2.5t-2.3 1q-1.3 0-2-.8-.8-1-.8-2.4 0-1.6.8-2.5.8-1 2.1-1zm0 0zm4.8 3.5q0 1 .5 1.6.4.7 1.3.7.8 0 1.2-.6.5-.7.5-1.8 0-1.2-.5-1.8-.5-.6-1.2-.6-.8 0-1.3.6-.5.7-.5 1.8zm1.6-3.4q.8 0 1.2.3l.7.6v-3.1h1v8.6h-1v-.9q-.3.6-.8.9-.5.2-1.2.2-1 0-1.8-.9-.8-.8-.8-2.3 0-1.4.7-2.4t2-1z" font-size="12" font-family="Helvetica,Arial,sans-serif"/><path d="M255.5 86h68v19h-68z" fill="#fff" stroke="#000" stroke-width="1.5"/><path d="M270.3 92.7h1v1l.7-.8q.5-.3 1.2-.3t1.2.4l.5.6q.3-.5.8-.8l1-.2q1.3 0 1.8.9.2.5.2 1.3V99h-1v-4.4q0-.6-.4-.8-.3-.3-.8-.3-.6 0-1 .5-.5.4-.5 1.3V99h-1v-4.1q0-.6-.2-1t-.9-.4q-.6 0-1 .5-.6.5-.6 1.7V99h-1v-6.3zm12.4 5.6q1.1 0 1.5-.8.4-.8.4-1.7 0-1-.3-1.5-.5-.8-1.5-.8t-1.4.7q-.5.7-.5 1.8 0 1 .5 1.7.4.6 1.3.6zm0-5.8q1.3 0 2.1.9.9.8.9 2.3 0 1.5-.8 2.5-.7 1-2.3 1-1.2 0-2-.8-.8-1-.8-2.4 0-1.6.8-2.5.8-1 2.2-1zm0 0zm4.3.2h1v1q.4-.6.9-.9l1-.2q1.4 0 1.9 1 .3.4.3 1.4v4H291v-4q0-.5-.2-.9-.3-.6-1-.6l-.6.1q-.5.1-.8.5l-.3.7-.1 1V99h-1v-6.3zm2.4-.1zm6.4 0q.8 0 1.3.4l.6.6v-.8h1v5.7q0 1.2-.3 1.9-.7 1.3-2.5 1.3-1 0-1.7-.5t-.8-1.4h1q.1.4.4.6.3.4 1.1.4 1.2 0 1.6-.9.2-.5.2-1.8-.3.5-.8.7-.4.3-1.2.3-1 0-1.7-.7-.8-.8-.8-2.4 0-1.6.8-2.5.7-.9 1.8-.9zm2 3.2q0-1.1-.6-1.7-.4-.6-1.2-.6-1 0-1.5 1-.2.6-.2 1.5 0 1.1.4 1.7.4.5 1.2.5 1.1 0 1.6-1 .2-.6.2-1.4zm-1.8-3.2zm6.8 5.7q1 0 1.4-.8.4-.8.4-1.7 0-1-.3-1.5-.4-.8-1.5-.8-1 0-1.4.7-.4.7-.4 1.8 0 1 .4 1.7.4.6 1.4.6zm0-5.8q1.2 0 2 .9 1 .8 1 2.3 0 1.5-.8 2.5t-2.3 1q-1.3 0-2-.8-.8-1-.8-2.4 0-1.6.8-2.5.8-1 2.1-1zm0 0zm4.8 4.5q0 .6.3.8.4.5 1.4.5l1-.2q.4-.3.4-.8 0-.4-.3-.6l-1-.3-.8-.2q-.8-.2-1.2-.5-.6-.4-.6-1.1 0-1 .6-1.5t1.7-.5q1.5 0 2 .8.5.5.5 1.1h-1q0-.3-.3-.6-.4-.4-1.2-.4-.6 0-1 .2-.3.2-.3.6 0 .4.4.7l.7.2.7.2 1.6.5q.6.4.6 1.3 0 .8-.7 1.4-.6.6-1.9.6-1.4 0-2-.6-.6-.6-.6-1.6h1zm1.6-4.4zm-32.8-23.3q.8 0 1.3-.3t.5-1.2q0-.9-.7-1.2-.3-.2-1-.2h-2.8v3h2.7zm-3.8-4h4q1 0 1.6.4 1.2.5 1.2 2 0 .8-.3 1.3-.4.5-1 .8.6.2.8.5.3.3.3 1v1.2l.1.8q.1.4.4.5v.2h-1.4l-.1-.3V73l-.1-1.4q0-.8-.7-1.1-.3-.2-1-.2h-2.7V74h-1.1v-8.6zm10.8 8q1 0 1.5-.8.4-.8.4-1.7 0-1-.3-1.5-.5-.8-1.6-.8-1 0-1.4.7-.4.7-.4 1.8 0 1 .4 1.7.5.6 1.4.6zm0-5.8q1.3 0 2.1.9.9.8.9 2.3 0 1.5-.8 2.5-.7 1-2.3 1-1.3 0-2-.8-.8-1-.8-2.4 0-1.6.8-2.5.8-1 2.2-1zm0 0zm5.3.2V72l.1.8q.3.5 1 .5 1.2 0 1.6-1 .2-.5.2-1.4v-3h1V74h-1v-1q-.1.4-.4.7-.6.5-1.5.5-1.3 0-1.8-1-.3-.4-.3-1.2v-4.3h1zm1.4-.1zm4.4-1.6h1v1.7h1v.9h-1v4q0 .4.3.5h.8v.9h-.4l-.4.1q-.8 0-1-.4-.3-.4-.3-1v-4.1h-.8v-.9h.8V66zm5.8 1.6q.6 0 1.3.3.6.3 1 .8l.3 1.1.1 1.4h-4.6q0 1 .5 1.5.4.6 1.3.6.8 0 1.3-.5l.4-.8h1l-.2.8-.5.7q-.5.5-1.2.6l-.9.1q-1.2 0-2-.8-.8-.9-.8-2.4t.8-2.5q.8-1 2.2-1zm1.7 2.8l-.3-1.1q-.5-.8-1.5-.8-.7 0-1.2.5-.5.6-.5 1.4h3.5zm-1.8-2.8zm4.2.1h1v1.1q0-.3.6-.8.5-.4 1-.4h.4v1.1h-.3q-.8 0-1.3.5-.4.5-.4 1.2V74h-1v-6.3z" font-size="12" font-family="Helvetica,Arial,sans-serif"/><path d="M278.4 238.6h4.4v4.4h-4.4v-4.4zm8.4 0h4.4v4.4h-4.4v-4.4zm8.3 0h4.5v4.4H295v-4.4z" font-weight="700" font-size="30" font-family="Helvetica,Arial,sans-serif"/></svg>