<?xml version="1.0" encoding="UTF-8"?>
<!DOCTYPE svg PUBLIC "-//W3C//DTD SVG 1.1//EN" "http://www.w3.org/Graphics/SVG/1.1/DTD/svg11.dtd">
<svg version="1.1" xmlns="http://www.w3.org/2000/svg" xmlns:xlink="http://www.w3.org/1999/xlink" x="0px" y="0px" width="750" height="110" viewBox="0, 0, 750, 110">
  <g id="Layer 1">
    <path d="M42.294,22.142 L702.583,22.142 L702.583,59.771 L42.294,59.771 z" fill="#0C60B2"/>
    <path d="M156.222,11.117 L156.222,83.117" fill-opacity="0" stroke="#AFD1E8" stroke-width="1.5" stroke-dasharray="3,1.5"/>
    <text transform="matrix(1, 0, 0, 1, 157.342, 95.174)">
      <tspan x="-24.093" y="0.5" font-family="GillSans" font-size="14" fill="#0C60B2">{ </tspan>
      <tspan x="-15.542" y="0.5" font-family="GillSans" font-size="14" fill="#D33907">x</tspan>
      <tspan x="-8.542" y="0.5" font-family="GillSans" font-size="14" fill="#0C60B2">: -75 } </tspan>
    </text>
    <path d="M295.903,11 L295.903,83" fill-opacity="0" stroke="#AFD1E8" stroke-width="1.5" stroke-dasharray="3,1.5"/>
    <path d="M466.477,11.117 L466.477,83.117" fill-opacity="0" stroke="#AFD1E8" stroke-width="1.5" stroke-dasharray="3,1.5"/>
    <text transform="matrix(1, 0, 0, 1, 296.99, 94.02)">
      <tspan x="-21.831" y="1.598" font-family="GillSans" font-size="14" fill="#0C60B2">{ </tspan>
      <tspan x="-13.279" y="1.598" font-family="GillSans" font-size="14" fill="#D33907">x</tspan>
      <tspan x="-6.279" y="1.598" font-family="GillSans" font-size="14" fill="#0C60B2">: 25 } </tspan>
    </text>
    <text transform="matrix(1, 0, 0, 1, 42.082, 94.076)">
      <tspan x="-35.745" y="1.598" font-family="GillSans" font-size="14" fill="#0C60B2">{ </tspan>
      <tspan x="-27.193" y="1.598" font-family="GillSans" font-size="14" fill="#D33907">x</tspan>
      <tspan x="-20.193" y="1.598" font-family="GillSans" font-size="14" fill="#0C60B2">: minKey }</tspan>
    </text>
    <text transform="matrix(1, 0, 0, 1, 466.514, 94.215)">
      <tspan x="-25.331" y="1.598" font-family="GillSans" font-size="14" fill="#0C60B2">{ </tspan>
      <tspan x="-16.779" y="1.598" font-family="GillSans" font-size="14" fill="#D33907">x</tspan>
      <tspan x="-9.779" y="1.598" font-family="GillSans" font-size="14" fill="#0C60B2">: 175 } </tspan>
    </text>
    <text transform="matrix(1, 0, 0, 1, 702.477, 94.215)">
      <tspan x="-37.198" y="1.597" font-family="GillSans" font-size="14" fill="#0C60B2">{ </tspan>
      <tspan x="-28.646" y="1.597" font-family="GillSans" font-size="14" fill="#D33907">x</tspan>
      <tspan x="-21.646" y="1.597" font-family="GillSans" font-size="14" fill="#0C60B2">: maxKey } </tspan>
    </text>
    <path d="M42.582,11.117 L42.582,80.634" fill-opacity="0" stroke="#AFD1E8" stroke-width="1.5" stroke-dasharray="3,1.5"/>
    <g>
      <path d="M56.419,70.076 L144.422,70.076" fill-opacity="0" stroke="#0C60B2" stroke-width="2"/>
      <path d="M56.419,66.476 L46.819,70.076 L56.419,73.676 z" fill="#0C60B2" fill-opacity="1" stroke="#0C60B2" stroke-width="2" stroke-opacity="1"/>
      <path d="M144.422,73.676 L154.022,70.076 L144.422,66.476 z" fill="#0C60B2" fill-opacity="1" stroke="#0C60B2" stroke-width="2" stroke-opacity="1"/>
    </g>
    <g>
      <path d="M169.94,70.076 L284.103,70.076" fill-opacity="0" stroke="#0C60B2" stroke-width="2"/>
      <path d="M169.94,66.476 L160.34,70.076 L169.94,73.676 z" fill="#0C60B2" fill-opacity="1" stroke="#0C60B2" stroke-width="2" stroke-opacity="1"/>
      <path d="M284.103,73.676 L293.703,70.076 L284.103,66.476 z" fill="#0C60B2" fill-opacity="1" stroke="#0C60B2" stroke-width="2" stroke-opacity="1"/>
    </g>
    <g>
      <path d="M308.947,69.959 L454.095,69.959" fill-opacity="0" stroke="#0C60B2" stroke-width="2"/>
      <path d="M308.947,66.359 L299.347,69.959 L308.947,73.559 z" fill="#0C60B2" fill-opacity="1" stroke="#0C60B2" stroke-width="2" stroke-opacity="1"/>
      <path d="M454.095,73.559 L463.695,69.959 L454.095,66.359 z" fill="#0C60B2" fill-opacity="1" stroke="#0C60B2" stroke-width="2" stroke-opacity="1"/>
    </g>
    <g>
      <path d="M482.3,70.076 L589.96,70.077" fill-opacity="0" stroke="#0C60B2" stroke-width="2"/>
      <path d="M482.3,66.476 L472.7,70.076 L482.3,73.676 z" fill="#0C60B2" fill-opacity="1" stroke="#0C60B2" stroke-width="2" stroke-opacity="1"/>
      <path d="M589.96,73.677 L599.56,70.077 L589.96,66.477 z" fill="#0C60B2" fill-opacity="1" stroke="#0C60B2" stroke-width="2" stroke-opacity="1"/>
    </g>
    <path d="M702.977,11.117 L702.977,80.634" fill-opacity="0" stroke="#AFD1E8" stroke-width="1.5" stroke-dasharray="3,1.5"/>
    <g>
      <text transform="matrix(1, 0, 0, 1, 99.886, 42.137)">
        <tspan x="-35.678" y="5.18" font-family="GillSans" font-size="21" fill="#0C60B2">Shard  A</tspan>
      </text>
      <path d="M69.334,41.308 L67.776,40.364 Q66.309,39.472 65.689,38.606 Q65.069,37.739 65.069,36.611 Q65.069,34.919 66.243,33.863 Q67.417,32.807 69.293,32.807 Q71.088,32.807 72.585,33.812 L72.585,36.14 Q71.036,34.653 69.252,34.653 Q68.247,34.653 67.601,35.119 Q66.955,35.586 66.955,36.314 Q66.955,36.96 67.427,37.524 Q67.899,38.088 68.955,38.703 L70.524,39.626 Q73.149,41.185 73.149,43.604 Q73.149,45.327 71.995,46.404 Q70.842,47.48 68.996,47.48 Q66.873,47.48 65.13,46.178 L65.13,43.574 Q66.791,45.676 68.975,45.676 Q69.939,45.676 70.58,45.137 Q71.221,44.599 71.221,43.789 Q71.221,42.477 69.334,41.308 z M75.107,32.992 L76.973,32.992 L76.973,39.124 Q78.142,37.698 79.875,37.698 Q80.819,37.698 81.567,38.17 Q82.316,38.642 82.68,39.472 Q83.044,40.303 83.044,41.943 L83.044,47.316 L81.177,47.316 L81.177,41.482 Q81.177,40.446 80.67,39.816 Q80.162,39.185 79.332,39.185 Q78.717,39.185 78.173,39.503 Q77.63,39.821 76.973,40.559 L76.973,47.316 L75.107,47.316 z M91.575,41.646 L91.575,45.655 Q91.575,46.137 91.903,46.137 Q92.241,46.137 92.959,45.635 L92.959,46.773 Q92.323,47.183 91.939,47.332 Q91.554,47.48 91.134,47.48 Q89.934,47.48 89.719,46.537 Q88.53,47.46 87.186,47.46 Q86.202,47.46 85.546,46.809 Q84.889,46.158 84.889,45.173 Q84.889,44.281 85.53,43.579 Q86.171,42.876 87.35,42.466 L89.74,41.646 L89.74,41.144 Q89.74,39.441 88.037,39.441 Q86.51,39.441 85.064,41.021 L85.064,38.98 Q86.151,37.698 88.191,37.698 Q89.719,37.698 90.642,38.498 Q90.949,38.754 91.196,39.18 Q91.442,39.605 91.508,40.031 Q91.575,40.457 91.575,41.646 z M89.74,45.45 L89.74,42.651 L88.489,43.133 Q87.535,43.512 87.14,43.897 Q86.745,44.281 86.745,44.855 Q86.745,45.44 87.12,45.809 Q87.494,46.178 88.089,46.178 Q88.981,46.178 89.74,45.45 z M96.61,37.883 L96.61,40.046 L96.712,39.882 Q98.066,37.698 99.419,37.698 Q100.475,37.698 101.624,38.765 L100.639,40.405 Q99.665,39.482 98.835,39.482 Q97.932,39.482 97.271,40.344 Q96.61,41.205 96.61,42.384 L96.61,47.316 L94.733,47.316 L94.733,37.883 z M108.904,32.992 L110.781,32.992 L110.781,47.316 L106.792,47.316 Q104.7,47.316 103.454,45.994 Q102.208,44.671 102.208,42.446 Q102.208,40.364 103.516,39.021 Q104.823,37.678 106.853,37.678 Q107.797,37.678 108.904,38.078 z M108.904,45.717 L108.904,39.739 Q108.032,39.298 107.14,39.298 Q105.746,39.298 104.92,40.21 Q104.095,41.123 104.095,42.671 Q104.095,44.127 104.813,44.917 Q105.243,45.389 105.725,45.553 Q106.207,45.717 107.458,45.717 z M127.71,32.91 L129.156,32.91 L135.564,47.316 L133.462,47.316 L131.555,43.071 L125.464,43.071 L123.659,47.316 L121.557,47.316 z M130.714,41.246 L128.407,36.058 L126.264,41.246 z" fill="#FFFFFF"/>
    </g>
    <g>
      <text transform="matrix(1, 0, 0, 1, 226.641, 42.137)">
        <tspan x="-35.678" y="5.18" font-family="GillSans" font-size="21" fill="#0C60B2">Shard  A</tspan>
      </text>
      <path d="M196.089,41.308 L194.531,40.364 Q193.064,39.472 192.444,38.606 Q191.823,37.739 191.823,36.611 Q191.823,34.919 192.998,33.863 Q194.172,32.807 196.048,32.807 Q197.843,32.807 199.34,33.812 L199.34,36.14 Q197.791,34.653 196.007,34.653 Q195.002,34.653 194.356,35.119 Q193.71,35.586 193.71,36.314 Q193.71,36.96 194.182,37.524 Q194.654,38.088 195.71,38.703 L197.279,39.626 Q199.904,41.185 199.904,43.604 Q199.904,45.327 198.75,46.404 Q197.596,47.48 195.751,47.48 Q193.628,47.48 191.885,46.178 L191.885,43.574 Q193.546,45.676 195.73,45.676 Q196.694,45.676 197.335,45.137 Q197.976,44.599 197.976,43.789 Q197.976,42.477 196.089,41.308 z M201.862,32.992 L203.728,32.992 L203.728,39.124 Q204.897,37.698 206.63,37.698 Q207.573,37.698 208.322,38.17 Q209.071,38.642 209.435,39.472 Q209.799,40.303 209.799,41.943 L209.799,47.316 L207.932,47.316 L207.932,41.482 Q207.932,40.446 207.425,39.816 Q206.917,39.185 206.087,39.185 Q205.471,39.185 204.928,39.503 Q204.385,39.821 203.728,40.559 L203.728,47.316 L201.862,47.316 z M218.33,41.646 L218.33,45.655 Q218.33,46.137 218.658,46.137 Q218.996,46.137 219.714,45.635 L219.714,46.773 Q219.078,47.183 218.694,47.332 Q218.309,47.48 217.889,47.48 Q216.689,47.48 216.474,46.537 Q215.284,47.46 213.941,47.46 Q212.957,47.46 212.301,46.809 Q211.644,46.158 211.644,45.173 Q211.644,44.281 212.285,43.579 Q212.926,42.876 214.105,42.466 L216.494,41.646 L216.494,41.144 Q216.494,39.441 214.792,39.441 Q213.264,39.441 211.819,41.021 L211.819,38.98 Q212.906,37.698 214.946,37.698 Q216.474,37.698 217.397,38.498 Q217.704,38.754 217.95,39.18 Q218.197,39.605 218.263,40.031 Q218.33,40.457 218.33,41.646 z M216.494,45.45 L216.494,42.651 L215.243,43.133 Q214.29,43.512 213.895,43.897 Q213.5,44.281 213.5,44.855 Q213.5,45.44 213.875,45.809 Q214.249,46.178 214.844,46.178 Q215.736,46.178 216.494,45.45 z M223.365,37.883 L223.365,40.046 L223.467,39.882 Q224.821,37.698 226.174,37.698 Q227.23,37.698 228.379,38.765 L227.394,40.405 Q226.42,39.482 225.59,39.482 Q224.687,39.482 224.026,40.344 Q223.365,41.205 223.365,42.384 L223.365,47.316 L221.488,47.316 L221.488,37.883 z M235.659,32.992 L237.535,32.992 L237.535,47.316 L233.547,47.316 Q231.455,47.316 230.209,45.994 Q228.963,44.671 228.963,42.446 Q228.963,40.364 230.271,39.021 Q231.578,37.678 233.608,37.678 Q234.552,37.678 235.659,38.078 z M235.659,45.717 L235.659,39.739 Q234.787,39.298 233.895,39.298 Q232.501,39.298 231.675,40.21 Q230.85,41.123 230.85,42.671 Q230.85,44.127 231.568,44.917 Q231.998,45.389 232.48,45.553 Q232.962,45.717 234.213,45.717 z M254.465,32.91 L255.91,32.91 L262.319,47.316 L260.217,47.316 L258.31,43.071 L252.219,43.071 L250.414,47.316 L248.312,47.316 z M257.469,41.246 L255.162,36.058 L253.019,41.246 z" fill="#FFFFFF"/>
    </g>
    <g>
      <text transform="matrix(1, 0, 0, 1, 383.398, 42.137)">
        <tspan x="-35.637" y="5.18" font-family="GillSans" font-size="21" fill="#0C60B2">Shard  B</tspan>
      </text>
      <path d="M352.888,41.308 L351.329,40.364 Q349.863,39.472 349.243,38.606 Q348.622,37.739 348.622,36.611 Q348.622,34.919 349.796,33.863 Q350.97,32.807 352.847,32.807 Q354.641,32.807 356.138,33.812 L356.138,36.14 Q354.59,34.653 352.806,34.653 Q351.801,34.653 351.155,35.119 Q350.509,35.586 350.509,36.314 Q350.509,36.96 350.981,37.524 Q351.452,38.088 352.509,38.703 L354.077,39.626 Q356.702,41.185 356.702,43.604 Q356.702,45.327 355.549,46.404 Q354.395,47.48 352.55,47.48 Q350.427,47.48 348.684,46.178 L348.684,43.574 Q350.345,45.676 352.529,45.676 Q353.493,45.676 354.134,45.137 Q354.775,44.599 354.775,43.789 Q354.775,42.477 352.888,41.308 z M358.661,32.992 L360.527,32.992 L360.527,39.124 Q361.696,37.698 363.429,37.698 Q364.372,37.698 365.121,38.17 Q365.869,38.642 366.233,39.472 Q366.597,40.303 366.597,41.943 L366.597,47.316 L364.731,47.316 L364.731,41.482 Q364.731,40.446 364.224,39.816 Q363.716,39.185 362.885,39.185 Q362.27,39.185 361.727,39.503 Q361.183,39.821 360.527,40.559 L360.527,47.316 L358.661,47.316 z M375.129,41.646 L375.129,45.655 Q375.129,46.137 375.457,46.137 Q375.795,46.137 376.513,45.635 L376.513,46.773 Q375.877,47.183 375.493,47.332 Q375.108,47.48 374.688,47.48 Q373.488,47.48 373.273,46.537 Q372.083,47.46 370.74,47.46 Q369.756,47.46 369.099,46.809 Q368.443,46.158 368.443,45.173 Q368.443,44.281 369.084,43.579 Q369.725,42.876 370.904,42.466 L373.293,41.646 L373.293,41.144 Q373.293,39.441 371.591,39.441 Q370.063,39.441 368.617,41.021 L368.617,38.98 Q369.704,37.698 371.745,37.698 Q373.273,37.698 374.196,38.498 Q374.503,38.754 374.749,39.18 Q374.995,39.605 375.062,40.031 Q375.129,40.457 375.129,41.646 z M373.293,45.45 L373.293,42.651 L372.042,43.133 Q371.089,43.512 370.694,43.897 Q370.299,44.281 370.299,44.855 Q370.299,45.44 370.673,45.809 Q371.048,46.178 371.642,46.178 Q372.534,46.178 373.293,45.45 z M380.163,37.883 L380.163,40.046 L380.266,39.882 Q381.619,37.698 382.973,37.698 Q384.029,37.698 385.177,38.765 L384.193,40.405 Q383.219,39.482 382.388,39.482 Q381.486,39.482 380.825,40.344 Q380.163,41.205 380.163,42.384 L380.163,47.316 L378.287,47.316 L378.287,37.883 z M392.458,32.992 L394.334,32.992 L394.334,47.316 L390.345,47.316 Q388.254,47.316 387.008,45.994 Q385.762,44.671 385.762,42.446 Q385.762,40.364 387.069,39.021 Q388.377,37.678 390.407,37.678 Q391.35,37.678 392.458,38.078 z M392.458,45.717 L392.458,39.739 Q391.586,39.298 390.694,39.298 Q389.3,39.298 388.474,40.21 Q387.649,41.123 387.649,42.671 Q387.649,44.127 388.366,44.917 Q388.797,45.389 389.279,45.553 Q389.761,45.717 391.012,45.717 z M413.642,47.316 L408.792,47.316 L408.792,32.992 L412.545,32.992 Q414.319,32.992 415.314,33.469 Q416.308,33.945 416.831,34.781 Q417.354,35.617 417.354,36.714 Q417.354,38.826 415.17,39.739 Q416.739,40.036 417.667,41.031 Q418.595,42.025 418.595,43.41 Q418.595,44.507 418.031,45.368 Q417.467,46.229 416.375,46.773 Q415.283,47.316 413.642,47.316 z M412.607,34.817 L410.843,34.817 L410.843,39.124 L412.207,39.124 Q413.847,39.124 414.54,38.498 Q415.232,37.873 415.232,36.878 Q415.232,34.817 412.607,34.817 z M412.76,40.949 L410.843,40.949 L410.843,45.491 L412.863,45.491 Q414.545,45.491 415.145,45.23 Q415.744,44.968 416.108,44.415 Q416.472,43.861 416.472,43.225 Q416.472,42.569 416.088,42.025 Q415.703,41.482 414.996,41.215 Q414.288,40.949 412.76,40.949 z" fill="#FFFFFF"/>
    </g>
    <g>
      <text transform="matrix(1, 0, 0, 1, 534.85, 42.281)">
        <tspan x="-35.678" y="5.18" font-family="GillSans" font-size="21" fill="#0C60B2">Shard  A</tspan>
      </text>
      <path d="M504.299,41.452 L502.74,40.509 Q501.274,39.617 500.654,38.75 Q500.033,37.884 500.033,36.756 Q500.033,35.064 501.207,34.008 Q502.381,32.952 504.258,32.952 Q506.052,32.952 507.549,33.957 L507.549,36.284 Q506.001,34.797 504.217,34.797 Q503.212,34.797 502.566,35.264 Q501.92,35.73 501.92,36.458 Q501.92,37.104 502.392,37.668 Q502.863,38.232 503.919,38.848 L505.488,39.771 Q508.113,41.329 508.113,43.749 Q508.113,45.472 506.96,46.548 Q505.806,47.625 503.96,47.625 Q501.838,47.625 500.095,46.323 L500.095,43.718 Q501.756,45.82 503.94,45.82 Q504.904,45.82 505.545,45.282 Q506.185,44.744 506.185,43.934 Q506.185,42.621 504.299,41.452 z M510.072,33.136 L511.938,33.136 L511.938,39.268 Q513.107,37.843 514.84,37.843 Q515.783,37.843 516.532,38.314 Q517.28,38.786 517.644,39.617 Q518.008,40.447 518.008,42.088 L518.008,47.461 L516.142,47.461 L516.142,41.626 Q516.142,40.591 515.634,39.96 Q515.127,39.33 514.296,39.33 Q513.681,39.33 513.138,39.647 Q512.594,39.965 511.938,40.704 L511.938,47.461 L510.072,47.461 z M526.539,41.791 L526.539,45.8 Q526.539,46.282 526.868,46.282 Q527.206,46.282 527.924,45.779 L527.924,46.917 Q527.288,47.328 526.904,47.476 Q526.519,47.625 526.099,47.625 Q524.899,47.625 524.684,46.682 Q523.494,47.604 522.151,47.604 Q521.166,47.604 520.51,46.953 Q519.854,46.302 519.854,45.318 Q519.854,44.426 520.495,43.723 Q521.136,43.021 522.315,42.611 L524.704,41.791 L524.704,41.288 Q524.704,39.586 523.002,39.586 Q521.474,39.586 520.028,41.165 L520.028,39.125 Q521.115,37.843 523.156,37.843 Q524.684,37.843 525.606,38.643 Q525.914,38.899 526.16,39.324 Q526.406,39.75 526.473,40.176 Q526.539,40.601 526.539,41.791 z M524.704,45.595 L524.704,42.795 L523.453,43.277 Q522.499,43.657 522.105,44.041 Q521.71,44.426 521.71,45 Q521.71,45.584 522.084,45.954 Q522.458,46.323 523.053,46.323 Q523.945,46.323 524.704,45.595 z M531.574,38.027 L531.574,40.191 L531.677,40.027 Q533.03,37.843 534.384,37.843 Q535.44,37.843 536.588,38.909 L535.604,40.55 Q534.63,39.627 533.799,39.627 Q532.897,39.627 532.236,40.488 Q531.574,41.35 531.574,42.529 L531.574,47.461 L529.698,47.461 L529.698,38.027 z M543.869,33.136 L545.745,33.136 L545.745,47.461 L541.756,47.461 Q539.664,47.461 538.419,46.138 Q537.173,44.815 537.173,42.59 Q537.173,40.509 538.48,39.166 Q539.788,37.822 541.818,37.822 Q542.761,37.822 543.869,38.222 z M543.869,45.861 L543.869,39.883 Q542.997,39.442 542.105,39.442 Q540.71,39.442 539.885,40.355 Q539.06,41.268 539.06,42.816 Q539.06,44.272 539.777,45.062 Q540.208,45.533 540.69,45.697 Q541.172,45.861 542.423,45.861 z M562.674,33.054 L564.12,33.054 L570.529,47.461 L568.427,47.461 L566.519,43.216 L560.429,43.216 L558.624,47.461 L556.522,47.461 z M565.679,41.391 L563.372,36.202 L561.228,41.391 z" fill="#FFFFFF"/>
    </g>
    <path d="M603.102,11.117 L603.102,80.634" fill-opacity="0" stroke="#AFD1E8" stroke-width="1.5" stroke-dasharray="3,1.5"/>
    <g>
      <text transform="matrix(1, 0, 0, 1, 651.574, 42.281)">
        <tspan x="-35.637" y="5.18" font-family="GillSans" font-size="21" fill="#0C60B2">Shard  B</tspan>
      </text>
      <path d="M621.064,41.452 L619.505,40.509 Q618.039,39.617 617.418,38.75 Q616.798,37.884 616.798,36.756 Q616.798,35.064 617.972,34.008 Q619.146,32.952 621.023,32.952 Q622.817,32.952 624.314,33.957 L624.314,36.284 Q622.766,34.797 620.982,34.797 Q619.977,34.797 619.331,35.264 Q618.685,35.73 618.685,36.458 Q618.685,37.104 619.156,37.668 Q619.628,38.232 620.684,38.848 L622.253,39.771 Q624.878,41.329 624.878,43.749 Q624.878,45.472 623.725,46.548 Q622.571,47.625 620.725,47.625 Q618.603,47.625 616.86,46.323 L616.86,43.718 Q618.521,45.82 620.705,45.82 Q621.669,45.82 622.31,45.282 Q622.95,44.744 622.95,43.934 Q622.95,42.621 621.064,41.452 z M626.837,33.136 L628.703,33.136 L628.703,39.268 Q629.872,37.843 631.605,37.843 Q632.548,37.843 633.297,38.314 Q634.045,38.786 634.409,39.617 Q634.773,40.447 634.773,42.088 L634.773,47.461 L632.907,47.461 L632.907,41.626 Q632.907,40.591 632.399,39.96 Q631.892,39.33 631.061,39.33 Q630.446,39.33 629.903,39.647 Q629.359,39.965 628.703,40.704 L628.703,47.461 L626.837,47.461 z M643.304,41.791 L643.304,45.8 Q643.304,46.282 643.633,46.282 Q643.971,46.282 644.689,45.779 L644.689,46.917 Q644.053,47.328 643.668,47.476 Q643.284,47.625 642.864,47.625 Q641.664,47.625 641.448,46.682 Q640.259,47.604 638.916,47.604 Q637.931,47.604 637.275,46.953 Q636.619,46.302 636.619,45.318 Q636.619,44.426 637.26,43.723 Q637.901,43.021 639.08,42.611 L641.469,41.791 L641.469,41.288 Q641.469,39.586 639.767,39.586 Q638.239,39.586 636.793,41.165 L636.793,39.125 Q637.88,37.843 639.921,37.843 Q641.448,37.843 642.371,38.643 Q642.679,38.899 642.925,39.324 Q643.171,39.75 643.238,40.176 Q643.304,40.601 643.304,41.791 z M641.469,45.595 L641.469,42.795 L640.218,43.277 Q639.264,43.657 638.87,44.041 Q638.475,44.426 638.475,45 Q638.475,45.584 638.849,45.954 Q639.223,46.323 639.818,46.323 Q640.71,46.323 641.469,45.595 z M648.339,38.027 L648.339,40.191 L648.442,40.027 Q649.795,37.843 651.149,37.843 Q652.205,37.843 653.353,38.909 L652.369,40.55 Q651.395,39.627 650.564,39.627 Q649.662,39.627 649,40.488 Q648.339,41.35 648.339,42.529 L648.339,47.461 L646.463,47.461 L646.463,38.027 z M660.634,33.136 L662.51,33.136 L662.51,47.461 L658.521,47.461 Q656.429,47.461 655.184,46.138 Q653.938,44.815 653.938,42.59 Q653.938,40.509 655.245,39.166 Q656.552,37.822 658.583,37.822 Q659.526,37.822 660.634,38.222 z M660.634,45.861 L660.634,39.883 Q659.762,39.442 658.87,39.442 Q657.475,39.442 656.65,40.355 Q655.824,41.268 655.824,42.816 Q655.824,44.272 656.542,45.062 Q656.973,45.533 657.455,45.697 Q657.937,45.861 659.188,45.861 z M681.818,47.461 L676.968,47.461 L676.968,33.136 L680.721,33.136 Q682.495,33.136 683.49,33.613 Q684.484,34.09 685.007,34.926 Q685.53,35.761 685.53,36.858 Q685.53,38.971 683.346,39.883 Q684.915,40.181 685.843,41.175 Q686.771,42.17 686.771,43.554 Q686.771,44.651 686.207,45.513 Q685.643,46.374 684.551,46.917 Q683.459,47.461 681.818,47.461 z M680.782,34.961 L679.019,34.961 L679.019,39.268 L680.383,39.268 Q682.023,39.268 682.715,38.643 Q683.407,38.017 683.407,37.022 Q683.407,34.961 680.782,34.961 z M680.936,41.093 L679.019,41.093 L679.019,45.636 L681.039,45.636 Q682.72,45.636 683.32,45.374 Q683.92,45.113 684.284,44.559 Q684.648,44.005 684.648,43.37 Q684.648,42.713 684.264,42.17 Q683.879,41.626 683.172,41.36 Q682.464,41.093 680.936,41.093 z" fill="#FFFFFF"/>
    </g>
    <g>
      <path d="M615.56,70.077 L688.7,70.076" fill-opacity="0" stroke="#0C60B2" stroke-width="2"/>
      <path d="M615.56,66.477 L605.96,70.077 L615.56,73.677 z" fill="#0C60B2" fill-opacity="1" stroke="#0C60B2" stroke-width="2" stroke-opacity="1"/>
      <path d="M688.7,73.676 L698.3,70.076 L688.7,66.476 z" fill="#0C60B2" fill-opacity="1" stroke="#0C60B2" stroke-width="2" stroke-opacity="1"/>
    </g>
    <text transform="matrix(1, 0, 0, 1, 603.812, 94.02)">
      <tspan x="-25.331" y="1.598" font-family="GillSans" font-size="14" fill="#0C60B2">{ </tspan>
      <tspan x="-16.779" y="1.598" font-family="GillSans" font-size="14" fill="#D33907">x</tspan>
      <tspan x="-9.779" y="1.598" font-family="GillSans" font-size="14" fill="#0C60B2">: 200 } </tspan>
    </text>
    <text transform="matrix(1, 0, 0, 1, 94.289, 11)">
      <tspan x="-20.789" y="3.5" font-family="GillSans" font-size="12" fill="#0A60B2">Chunk 1</tspan>
    </text>
    <text transform="matrix(1, 0, 0, 1, 226.641, 11)">
      <tspan x="-20.789" y="3.5" font-family="GillSans" font-size="12" fill="#0A60B2">Chunk 2</tspan>
    </text>
    <text transform="matrix(1, 0, 0, 1, 381.021, 11)">
      <tspan x="-20.789" y="3.5" font-family="GillSans" font-size="12" fill="#0A60B2">Chunk 3</tspan>
    </text>
    <text transform="matrix(1, 0, 0, 1, 535.63, 11)">
      <tspan x="-20.789" y="3.5" font-family="GillSans" font-size="12" fill="#0A60B2">Chunk 4</tspan>
    </text>
    <text transform="matrix(1, 0, 0, 1, 651.574, 11)">
      <tspan x="-20.789" y="3.5" font-family="GillSans" font-size="12" fill="#0A60B2">Chunk 5</tspan>
    </text>
  </g>
  <defs/>
</svg>
