<svg xmlns="http://www.w3.org/2000/svg" height="112.3" width="476.8"><path d="M208.8 0h73.7a12 12 0 0 1 12 12v56a12 12 0 0 1-12 12h-73.7a12 12 0 0 1-12-12V12a12 12 0 0 1 12-12z" fill="#89c263"/><path d="M376.6 17h99.2v83.7h-99.2V17z" fill="#fff"/><path d="M376.6 101.8V17.9l99.2.2v83.7" stroke="#6cb33e" stroke-width="2" fill="none"/><path d="M215.7 28h-3.5V17.7h2.7q1.3 0 2 .4.7.3 1 1 .4.5.4 1.3 0 1.5-1.5 2.2 1.1.2 1.8.9.6.7.6 1.7 0 .8-.4 1.4-.4.6-1.2 1-.7.4-2 .4zm-.7-9h-1.3v3.1h1q1.1 0 1.6-.4.5-.5.5-1.2 0-1.5-1.8-1.5zm0 4.4h-1.3v3.3h1.4q1.2 0 1.7-.2.4-.2.7-.6l.2-.8q0-.5-.3-.9-.2-.4-.7-.6-.5-.2-1.6-.2zm9.8 4.6v-1q-.4.5-1 .7-.5.3-1 .3-.7 0-1.3-.3-.5-.3-.8-.9-.2-.5-.2-1.8v-3.9h1.3V25q0 1 .3 1.5.3.4 1 .4 1 0 1.7-1v-4.8h1.3V28h-1.3zm2.9-.5V26q.5.4 1.1.6l1 .2q.4 0 .7-.2.3-.2.3-.5l-.2-.4-.8-.6q-1.3-.7-1.7-1.2-.4-.5-.4-1.1 0-.8.6-1.3t1.6-.5q1 0 2 .6V23q-1.2-.7-2-.7l-.6.1q-.2.2-.2.5l.2.4.8.5.4.3q1.7 1 1.7 2.1 0 .8-.6 1.4-.7.5-1.7.5l-1-.1-1.2-.5zm6.7-9.1q.4 0 .6.2l.2.6q0 .3-.2.5-.2.3-.6.3-.3 0-.5-.3-.2-.2-.2-.5l.2-.6q.2-.2.5-.2zm-.6 2.8h1.3V28h-1.3v-6.8zm4.6 0v.9q.9-1 2-1 .6 0 1.2.3.5.4.8 1 .3.5.3 1.7V28h-1.4v-4q0-1-.3-1.4-.3-.5-1-.5-1 0-1.6 1V28H237v-6.8h1.4zm11.9 3.5h-4.8q0 1 .7 1.6.6.5 1.5.5 1.3 0 2.5-.8v1.3l-1.3.6q-.6.2-1.4.2-1 0-1.8-.5-.7-.4-1-1.2-.5-.8-.5-1.8 0-1.6.9-2.5.8-1 2.2-1 1.4 0 2.2 1 .8.9.8 2.5v.1zm-4.7-.8h3.4q0-.8-.5-1.2-.4-.4-1.2-.4-.7 0-1.1.4-.5.4-.6 1.2zm5.8 3.6V26q.5.4 1.1.6l1 .2q.4 0 .7-.2.3-.2.3-.5l-.1-.4-.9-.6q-1.3-.7-1.7-1.2-.4-.5-.4-1.1 0-.8.6-1.3t1.6-.5q1 0 2 .6V23q-1.2-.7-2-.7l-.6.1q-.2.2-.2.5l.2.4.8.5.5.3q1.6 1 1.6 2.1 0 .8-.6 1.4-.6.5-1.7.5l-1-.1-1.2-.5zm5.8 0V26q.5.4 1.1.6l1 .2q.4 0 .7-.2.3-.2.3-.5l-.2-.4-.8-.6q-1.3-.7-1.7-1.2-.4-.5-.4-1.1 0-.8.6-1.3t1.6-.5q1 0 2 .6V23q-1.2-.7-2-.7l-.6.1q-.2.2-.2.5l.2.4.8.5.4.3q1.7 1 1.7 2.1 0 .8-.6 1.4-.7.5-1.7.5l-1-.1-1.2-.5zm-45 7.2h1.5V45h-1.5V34.7zm4.9 3.5v.9q1-1 2-1 .7 0 1.2.3.6.4.8 1 .3.5.3 1.7V45h-1.3v-4q0-1-.3-1.4-.3-.5-1-.5-1 0-1.7 1V45h-1.3v-6.8h1.3zm5.3 1.1l2.5-2.5v1.4h2v1.2h-2v3.3q0 1.2 1 1.2.6 0 1.4-.5v1.3q-.7.4-1.6.4-1 0-1.6-.5l-.3-.4-.2-.5v-4.3h-1.2zm11.6 2.4h-4.7q0 1 .7 1.6.6.5 1.5.5 1.3 0 2.4-.8v1.3l-1.2.6q-.6.2-1.4.2-1.1 0-1.8-.5-.7-.4-1.1-1.2-.4-.8-.4-1.8 0-1.6.8-2.5 1-1 2.3-1 1.4 0 2.1 1 .8.9.8 2.5v.1zm-4.7-.8h3.4q0-.8-.4-1.2-.5-.4-1.2-.4t-1.2.4q-.4.4-.6 1.2zm6.2-6.2h1.3V45h-1.3V34.7zm3.3 0h1.3V45h-1.3V34.7zm3.9.7q.4 0 .6.2l.2.6q0 .3-.2.5-.2.3-.6.3-.3 0-.5-.3-.2-.2-.2-.5l.2-.6q.2-.2.5-.2zm-.6 2.8h1.3V45h-1.3v-6.8zm2.9 2.4q0-1.1.8-1.7.8-.7 2.1-.7h2.8v1h-1.4l.6.8.1.8q0 .5-.3 1t-.7.8q-.5.3-1.6.4-.7.1-.7.5 0 .3.2.4.3.2 1 .3l1.7.5.6.4q.5.5.5 1.2 0 1-.9 1.5-.8.6-2.3.6-1.4 0-2.3-.6-.8-.5-.8-1.5 0-1.4 1.7-1.8-.7-.4-.7-.8t.3-.6q.3-.3.8-.4-1.5-.7-1.5-2.1zm2.5-1.2q-.6 0-1 .4-.3.3-.3.8 0 .6.4.9.3.3.9.3.6 0 1-.3.3-.4.3-.9t-.4-.9q-.3-.3-1-.3zm-.3 5.9q-.7 0-1.1.3-.5.3-.5.7 0 1 2 1 .8 0 1.3-.2.5-.3.5-.7 0-.5-.6-.8-.7-.3-1.6-.3zm10.3-3.6h-4.8q.1 1 .7 1.6.6.5 1.5.5 1.4 0 2.5-.8v1.3q-.6.4-1.3.6-.6.2-1.4.2-1 0-1.8-.5-.7-.4-1-1.2-.5-.8-.5-1.8 0-1.6.9-2.5.9-1 2.2-1 1.4 0 2.2 1 .8.9.8 2.5v.1zm-4.7-.8h3.4q0-.8-.5-1.2-.4-.4-1.2-.4-.7 0-1.1.4-.5.4-.6 1.2zm7.5-2.7v.9q.8-1 2-1 .6 0 1.2.3.5.4.8 1 .3.5.3 1.7V45h-1.4v-4q0-1-.3-1.4-.3-.5-1-.5-1 0-1.6 1V45h-1.4v-6.8h1.4zm11.2 5.2v1.3q-1 .4-2 .4-1.6 0-2.5-1-1-.9-1-2.5 0-1.5 1-2.5.9-1 2.4-1l.9.1 1 .4V40q-1-.7-1.8-.7-1 0-1.5.7-.6.6-.6 1.6t.6 1.6q.6.6 1.7.6.8 0 1.8-.4zm7.2-1.7H274q0 1 .6 1.6.6.5 1.6.5 1.3 0 2.4-.8v1.3l-1.2.6q-.6.2-1.4.2-1.1 0-1.8-.5-.7-.4-1.1-1.2-.4-.8-.4-1.8 0-1.6.8-2.5.9-1 2.3-1 1.3 0 2.1 1 .8.9.8 2.5v.1zM274 41h3.4q0-.8-.5-1.2-.4-.4-1.1-.4-.7 0-1.2.4-.4.4-.6 1.2zm-53 18.6v1.6q-1.6.9-3.7.9-1.7 0-2.9-.7t-1.9-1.9q-.7-1.2-.7-2.6 0-2.2 1.6-3.8 1.6-1.5 4-1.5 1.6 0 3.5.9V54q-1.8-1-3.5-1t-2.9 1.1q-1.2 1.1-1.2 2.8 0 1.7 1.2 2.8 1.1 1 3 1 1.8 0 3.5-1.1zm4.9-4.4q1.5 0 2.6 1 1 1 1 2.5t-1 2.4q-1 1-2.7 1-1.5 0-2.5-1t-1-2.4q0-1.5 1-2.5t2.6-1zm0 1.2q-1 0-1.6.7-.7.6-.7 1.6t.7 1.5q.6.6 1.6.6t1.6-.6q.6-.6.6-1.6t-.6-1.5q-.7-.7-1.7-.7zm6.4-1.2v.9q.9-1 2-1 .7 0 1.2.3.5.4.8 1 .3.5.3 1.7V62h-1.3v-4q0-1-.3-1.4-.4-.5-1-.5-1 0-1.7 1V62h-1.4v-6.8h1.4zm7.5 0v.9q.9-1 2-1 .7 0 1.2.3.5.4.8 1 .3.5.3 1.7V62h-1.3v-4q0-1-.3-1.4-.4-.5-1-.5-1 0-1.7 1V62h-1.4v-6.8h1.4zm11.9 3.5H247q0 1 .6 1.6.6.5 1.6.5 1.3 0 2.4-.8v1.3l-1.2.6q-.6.2-1.4.2-1.2 0-1.8-.5-.7-.4-1.1-1.2-.5-.8-.5-1.8 0-1.6 1-2.5.8-1 2.2-1 1.3 0 2.1 1 .8.9.8 2.5v.1zM247 58h3.4q0-.8-.5-1.2-.4-.4-1.1-.4-.7 0-1.2.4T247 58zm11.2 2.4v1.3q-1 .4-2 .4-1.5 0-2.5-1-1-.9-1-2.5 0-1.5 1-2.5t2.4-1l1 .1 1 .4V57q-1-.7-2-.7-.8 0-1.4.7-.6.6-.6 1.6t.6 1.6q.7.6 1.7.6.8 0 1.8-.4zm.6-4.1l2.5-2.5v1.4h2.1v1.2h-2.1v3.3q0 1.2 1 1.2.6 0 1.4-.5v1.3q-.7.4-1.6.4-1 0-1.6-.5l-.3-.4-.2-.5v-4.3h-1.2zm9.2-1.1q1.5 0 2.5 1t1 2.5q0 1.5-1 2.4-1 1-2.6 1-1.5 0-2.5-1t-1-2.4q0-1.5 1-2.5t2.5-1zm-.1 1.2q-1 0-1.6.7-.6.6-.6 1.6t.6 1.5q.6.6 1.6.6t1.6-.6q.7-.6.7-1.6t-.7-1.5q-.6-.7-1.6-.7zm6.5-1.2v1.6l.1-.1q1-1.6 2-1.6.7 0 1.5.8l-.7 1.1q-.7-.6-1.3-.6-.6 0-1 .6-.6.6-.6 1.5V62h-1.3v-6.8h1.3z" font-size="15" font-family="GillSans" fill="#fff"/><path d="M128.8 33l62-16.6" fill="#358ec4"/><path d="M128.8 33l62-16.6" stroke-miterlimit="10" stroke="#358ec4" stroke-width="3.6" fill="none"/><path d="M122.8 34.6L133 24.4l3.7 14-13.9-3.8z" fill="#358ec4"/><path d="M122.8 34.6L133 24.4l3.7 14-13.9-3.8z" stroke="#358ec4" stroke-width=".4" fill="none"/><path d="M132.2 24.8l-.4-1.4q.6.3 1.3.3h1q.4 0 .6-.4.3-.2.2-.5 0-.3-.3-.4-.2-.2-1-.4-1.4-.3-2-.7-.4-.4-.6-1-.2-.7.3-1.4.4-.6 1.3-.8 1-.3 2.2 0l.3 1.2q-1.3-.3-2-.1-.4 0-.6.3-.2.2-.1.5 0 .2.3.3.2.2.8.3l.6.2q1.8.5 2.1 1.6.3.8-.2 1.5-.5.6-1.5.9l-1 .2-1.3-.2zm10.5-3.9l.3 1.2q-.9.7-1.8.9-1.5.4-2.7-.2-1.1-.7-1.5-2.2-.4-1.6.2-2.7.6-1.2 2-1.6l1-.2 1 .1.4 1.4q-1.1-.4-2-.1-.8.2-1.2 1-.4.7-.1 1.7.2 1 1 1.4.7.4 1.8.2.7-.2 1.6-1zm-.8-8.8l1.2-.3 1.2 4.2q.5-1.2 1.7-1.5.7-.2 1.3 0 .6.2 1 .7.4.5.7 1.6l1 3.7-1.3.4-1-4q-.3-.8-.8-1.1-.4-.3-1-.2-.4.1-.7.4l-.7 1 1.3 4.7-1.3.3-2.6-9.9zm14.6 3.3l-4.6 1.2q.3 1 1 1.4.8.4 1.7.1 1.2-.3 2.1-1.4l.3 1.3q-.4.5-1 .8-.5.4-1.3.6-1 .3-1.9 0-.8-.3-1.4-1-.6-.6-.8-1.6-.4-1.4.2-2.6.6-1.2 2-1.5 1.2-.4 2.2.3 1 .7 1.4 2.3v.1zm-4.8.5l3.3-1q-.3-.7-.8-1-.5-.3-1.2-.1-.7.2-1 .7-.3.6-.3 1.4zm11.1-3.9l1.2 4.8-1.3.3-1-3.6q-.2-1.1-.6-1.4-.4-.4-1.1-.2-.4.1-.7.4l-.6.8 1.2 4.8-1.2.3-1.8-6.5 1.3-.3.2.8q.7-1.2 1.7-1.5 1.2-.3 2.2.7.7-1.5 1.9-1.8.9-.3 1.7.3.8.5 1.2 2l1 3.8-1.3.3-1-3.8q-.2-.9-.7-1.2-.4-.3-1-.2-.8.2-1.3 1.2zm10.2-1.8l.7 2.8q0 .3.3.2.2 0 .6-.5l.2.8q-.3.4-.6.5l-.5.3q-.8.2-1.1-.4-.7.9-1.6 1.1-.7.2-1.3-.1-.6-.4-.7-1-.2-.7.1-1.3.3-.6 1-1l1.6-1-.1-.4q-.3-1.2-1.5-.9-1 .3-1.8 1.7l-.4-1.5q.6-1 2-1.4 1-.3 1.8 0l.5.5q.3.2.4.5l.3 1zm-.6 3l-.6-2-.7.6q-.6.4-.8.8-.2.3-.1.7.1.4.4.6.4.2.8 0 .6-.1 1-.8z" font-size="15" font-family="GillSans" fill="#2a86c0"/><path d="M122.8 60.6l62-16.6" fill="#6cb33f"/><path d="M122.8 60.6l62-16.6" stroke-miterlimit="10" stroke="#6cb33f" stroke-width="3.6" stroke-linecap="square" fill="none"/><path d="M190.8 42.4l-10.2 10.1-3.7-13.9 13.9 3.8z" fill="#6cb33f"/><path d="M190.8 42.4l-10.2 10.1-3.7-13.9 13.9 3.8z" stroke-miterlimit="10" stroke="#6cb33f" stroke-width=".4" stroke-linecap="square" fill="none"/><path d="M134.2 42.1l2.5-.6 2.6 9.8-1.3.3-.9-3.4q-.8.5-1.4.6-1.3.4-2.5-.3t-1.5-2.1q-.5-1.6.2-2.7.7-1.2 2.3-1.6zm2.6 5l-1-4-.9.1-1.1.4-.4.3-.3.5q-.4.7-.1 1.6.2 1 1 1.5.8.4 1.7.2l.4-.1.5-.4h.1l.1-.1zm7.5-.7l-.2-.8-.8 1q-.4.3-1 .4-.6.2-1.2 0-.6-.1-1-.6-.4-.4-.7-1.7l-1-3.7 1.3-.3 1 3.7q.2 1 .6 1.3.5.4 1.2.2 1-.3 1.3-1.4l-1.2-4.6 1.2-.4 1.8 6.5-1.3.4zm7.8-5.4l-4.6 1.2q.3.9 1 1.3.8.4 1.7.1 1.3-.3 2.1-1.4l.4 1.3-1 .9-1.4.5q-1 .3-1.8 0T147 44q-.6-.7-.9-1.6-.4-1.5.2-2.7.6-1.1 2-1.5 1.2-.3 2.2.4 1 .7 1.5 2.2v.1zm-4.7.4l3.2-.9q-.2-.8-.7-1-.6-.4-1.3-.2-.7.2-1 .7-.3.6-.2 1.4zm6.6-4.6l.4 1.5v-.1q.5-1.8 1.5-2 .7-.2 1.7.3l-.4 1.3q-.8-.4-1.4-.3-.6.2-1 .9-.2.7 0 1.5l1 3.4-1.4.4-1.7-6.5 1.3-.4zm4.3-4.1l.6.1q.3.2.3.5v.6q-.2.3-.5.4l-.6-.1q-.3-.2-.4-.5l.1-.6q.2-.3.5-.4zm0 3l1.4-.4 1.7 6.5-1.3.4-1.7-6.6zm9.7 1l-4.6 1.2q.3 1 1 1.3.7.4 1.6.2 1.3-.4 2.2-1.4l.3 1.2q-.5.6-1 .9-.5.3-1.3.5-1.1.3-1.9 0-.8-.2-1.4-.8-.6-.7-.8-1.7-.4-1.5.1-2.6.6-1.2 2-1.5 1.3-.4 2.3.3 1 .7 1.4 2.2v.2zm-4.8.4l3.3-.8q-.3-.8-.8-1.1-.5-.3-1.2-.1-.7.2-1 .7-.4.5-.3 1.3zm6.5 1.9l-.3-1.3 1.3.3h1q.4-.1.6-.4.3-.3.2-.5l-.3-.5-1-.3-2-.7q-.5-.4-.6-1-.2-.8.2-1.4.5-.6 1.4-.9 1-.2 2.1 0l.4 1.3q-1.4-.4-2.1-.2-.4.1-.6.4-.1.2 0 .4 0 .3.2.4.3.2 1 .3l.4.1q2 .5 2.2 1.6.2.8-.3 1.5-.4.7-1.4 1l-1 .1-1.4-.1z" font-size="15" font-family="GillSans" fill="#6cb33f"/><path d="M128.8 82.5l62-16.6" fill="#358ec4"/><path d="M128.8 82.5l62-16.6" stroke-miterlimit="10" stroke="#358ec4" stroke-width="3.6" stroke-linecap="square" fill="none"/><path d="M122.8 84.1L133 74l3.7 14-13.9-3.8z" fill="#358ec4"/><path d="M122.8 84.1L133 74l3.7 14-13.9-3.8z" stroke-miterlimit="10" stroke="#358ec4" stroke-width=".4" stroke-linecap="square" fill="none"/><path d="M124.7 69l.4 1.5v-.2q.6-1.7 1.5-2 .7-.2 1.7.4L128 70q-.9-.5-1.5-.3-.6.1-.9.8-.3.8 0 1.6l.9 3.4-1.3.3-1.8-6.5 1.3-.3zm10.8.7l-4.6 1.2q.3 1 1 1.3.8.4 1.7.2 1.3-.4 2.1-1.4l.4 1.2q-.5.6-1 .9l-1.4.5q-1 .3-1.8 0-.8-.2-1.4-.9-.6-.6-.9-1.6-.4-1.5.2-2.6.6-1.2 2-1.6 1.2-.3 2.3.4 1 .7 1.4 2.2v.2zm-4.7.4l3.2-.9q-.2-.7-.7-1-.6-.3-1.2-.1-.7.1-1 .7-.4.5-.3 1.3zm6.5 1.9l-.4-1.3 1.3.3h1q.4-.1.7-.4.2-.3.1-.6 0-.2-.3-.4l-1-.3q-1.4-.4-1.9-.7-.5-.4-.6-1-.2-.8.2-1.4.5-.6 1.4-.9 1-.2 2 0l.4 1.3q-1.3-.4-2-.2l-.6.3q-.2.3-.1.5 0 .3.3.4l.9.3.5.1q1.9.5 2.2 1.6.2.8-.3 1.5t-1.5 1l-1 .1-1.3-.1zm6.8 2.3l-2.6-9.8 2.3-.6q1.7-.5 2.9.1t1.6 2.2q.4 1.4-.3 2.6-.6 1.2-2 1.6h-1.5l1 3.5-1.4.4zm0-9.2l-1 .2 1.1 4q.7.2 1.3 0 1-.3 1.3-1 .5-.8.2-1.8-.2-.6-.6-1-.4-.5-1-.6l-1.3.2zm7.9-3.4q1.4-.4 2.7.3 1.2.6 1.6 2.1.4 1.4-.4 2.6-.7 1.2-2.2 1.6-1.5.4-2.7-.3-1.3-.7-1.7-2-.3-1.5.4-2.7.7-1.2 2.2-1.6zm.2 1.1q-1 .3-1.4 1-.4.8-.2 1.8.3.9 1 1.3.8.4 1.8.2 1-.3 1.4-1 .4-.8.2-1.7-.3-1-1-1.4-.9-.4-1.8-.2zm5.9-2.8l.2.8q.7-1.1 1.8-1.4.6-.2 1.2 0 .6.1 1 .6t.7 1.7l1 3.7-1.3.3-1-3.7q-.2-1-.6-1.3-.5-.3-1.2-.2-.9.3-1.3 1.4l1.3 4.6-1.3.4-1.8-6.5 1.3-.4zm7.3 4.5l-.4-1.3 1.3.3h1l.7-.4q.2-.3.1-.6 0-.3-.3-.4l-1-.3q-1.4-.4-1.9-.8t-.7-1q-.2-.7.3-1.3.4-.7 1.4-.9 1-.3 2 0l.4 1.3q-1.3-.4-2-.2l-.6.3q-.2.2-.1.5 0 .2.3.4l.9.3.5.1q1.9.5 2.2 1.6.2.8-.3 1.5t-1.5 1h-2.3zm10.7-5.7l-4.6 1.2q.3 1 1 1.3.8.4 1.7.2 1.3-.3 2.1-1.4l.4 1.2-1 1-1.4.5q-1 .2-1.8 0-.8-.3-1.4-1-.6-.6-.9-1.6-.4-1.5.2-2.6.6-1.2 2-1.5 1.2-.4 2.2.3 1 .7 1.5 2.2v.2zm-4.7.4l3.2-.8q-.2-.8-.7-1.1-.6-.3-1.3-.1-.7.2-1 .7-.3.5-.2 1.3zm6.5 2l-.4-1.4 1.3.3h1q.4-.1.7-.4.2-.3.1-.5 0-.3-.3-.5l-1-.3q-1.4-.3-1.9-.7-.5-.4-.7-1-.2-.7.3-1.4.5-.6 1.4-.9 1-.2 2 0l.4 1.3q-1.3-.4-2-.2-.4.1-.6.4-.2.2-.1.4 0 .3.3.4l.9.3.5.2q1.9.4 2.2 1.6.2.8-.3 1.4-.5.7-1.5 1l-1 .1-1.3-.1z" font-size="15" font-family="GillSans" fill="#2a86c0"/><path d="M301.3 34.4l62 16.6" fill="#6cb33f"/><path d="M301.3 34.4l62 16.6" stroke-miterlimit="10" stroke="#6cb33f" stroke-width="3.6" stroke-linecap="square" fill="none"/><path d="M369.3 52.7l-14 3.7 3.8-14 10.2 10.3z" fill="#6cb33f"/><path d="M369.3 52.7l-14 3.7 3.8-14 10.2 10.3z" stroke-miterlimit="10" stroke="#6cb33f" stroke-width=".4" stroke-linecap="square" fill="none"/><path d="M322.4 24.5l2.4.6-2.6 9.9-1.3-.4 1-3.4q-1 0-1.6-.2-1.4-.4-2-1.5-.7-1.2-.3-2.6.4-1.6 1.6-2.2 1.2-.7 2.8-.2zM322 30l1.1-4.1-.8-.2-1.1-.3-.6.1-.4.2q-.7.5-1 1.4-.2 1 .2 1.8t1.4 1h1.2zm7 3.2l.2-.8-1.2.4h-1q-.7-.2-1.1-.6-.5-.5-.6-1-.1-.7.2-1.9l1-3.7 1.3.3-1 3.7q-.3 1 0 1.6.1.4.8.6 1 .3 1.9-.4l1.2-4.7 1.3.3-1.8 6.6-1.2-.4zm9.4-.8l-4.5-1.2q-.2 1 .2 1.6.4.7 1.3 1 1.3.3 2.6-.2l-.3 1.3-1.4.2-1.4-.2q-1-.3-1.6-.9-.6-.6-.8-1.5-.1-.8.1-1.8.4-1.5 1.5-2.2 1.1-.7 2.4-.4 1.3.4 1.9 1.5.5 1.1 0 2.6v.2zm-4.3-2l3.3.9q.1-.8-.2-1.3-.3-.6-1-.7-.7-.2-1.2 0-.6.4-.9 1.1zm8-.6l-.4 1.5.1-.1q1.4-1.3 2.3-1 .7.2 1.3 1.1l-1 1q-.5-.9-1-1-.7-.2-1.3.3-.6.5-.8 1.3l-1 3.4-1.2-.4 1.7-6.5 1.3.4zm5.8-1.4q.3 0 .5.3v.6q0 .3-.3.5t-.6.1q-.3 0-.5-.4-.2-.3 0-.6 0-.3.3-.4.3-.2.6-.1zm-1.4 2.5l1.3.4-1.8 6.5-1.2-.3 1.7-6.6zm7.8 5.7l-4.6-1.2q-.2 1 .2 1.7.5.7 1.4 1 1.3.3 2.5-.2l-.3 1.2q-.7.3-1.3.3l-1.4-.2q-1.1-.3-1.7-1-.5-.6-.7-1.4-.2-.9 0-1.9.5-1.5 1.6-2.2 1-.7 2.4-.3 1.3.3 1.8 1.4.5 1.2.1 2.7v.1zm-4.4-2l3.3 1q.2-.9-.1-1.4-.3-.5-1-.7-.7-.2-1.3.1-.5.3-.9 1zm4.7 5l.4-1.4 1 1 .9.4h.7q.3-.1.4-.4v-.5l-.7-.8q-1-1-1.3-1.6-.3-.6-.1-1.2.2-.7.9-1 .7-.3 1.6-.1 1 .3 1.8 1l-.3 1.3q-1-1-1.7-1.2h-.6q-.3.1-.4.4l.1.5.6.7.4.4q1.4 1.3 1 2.4-.1.8-.9 1.2-.8.3-1.7 0-.6 0-1-.3l-1-.8z" font-size="15" font-family="GillSans" fill="#6cb33f"/><path d="M305.3 66.4l62 16.6" fill="#358ec4"/><path d="M305.3 66.4l62 16.6" stroke-miterlimit="10" stroke="#358ec4" stroke-width="3.6" stroke-linecap="square" fill="none"/><path d="M299.3 64.7l14-3.7-3.8 14-10.2-10.3z" fill="#358ec4"/><path d="M299.3 64.7l14-3.7-3.8 14-10.2-10.3z" stroke-miterlimit="10" stroke="#358ec4" stroke-width=".4" stroke-linecap="square" fill="none"/><path d="M310.3 52.2l-.4 1.5q1.4-1.3 2.3-1 .8.1 1.4 1l-1 1q-.5-.8-1-1-.7-.1-1.3.4-.6.4-.9 1.3l-.9 3.4-1.3-.4L309 52l1.3.3zm9 6.1l-4.6-1.3q-.2 1 .2 1.7.5.7 1.4 1 1.2.3 2.5-.2l-.3 1.2q-.7.3-1.3.3l-1.5-.2q-1-.3-1.6-1-.5-.5-.7-1.4-.2-.9 0-1.9.5-1.4 1.5-2.1 1.1-.7 2.5-.4 1.3.4 1.8 1.5.5 1 .1 2.6v.2zm-4.4-2l3.3.9q.2-.8-.1-1.4-.3-.5-1-.7-.7-.2-1.3.1-.5.3-.9 1zm4.7 4.9l.4-1.4q.4.6 1 1l.8.5h.8q.3-.2.4-.5v-.5l-.7-.7q-1-1-1.3-1.7-.3-.5-.1-1.1.2-.8.9-1.1.7-.3 1.6 0 1 .2 1.8 1L325 58q-1-1-1.7-1.2h-.7q-.2 0-.3.3l.1.5.6.7.4.4q1.4 1.3 1 2.5-.1.8-1 1.1-.7.4-1.7 0-.5 0-1-.3l-1-.8zm4.8 5.4l2.7-9.9 2.2.7q1.7.4 2.5 1.5.7 1.2.3 2.7-.4 1.5-1.6 2.2-1.1.7-2.5.3-.6-.2-1.3-.7l-1 3.5-1.3-.3zm4.6-8l-1-.3-1 4q.5.5 1.1.6 1 .3 1.7-.2t1-1.5q.2-.6 0-1.2-.1-.5-.5-.9-.4-.3-1.3-.6zm8.5.9q1.5.4 2.2 1.7.7 1.2.4 2.6-.4 1.4-1.7 2.1-1.2.7-2.7.3-1.5-.4-2.2-1.6-.8-1.3-.4-2.7.4-1.4 1.7-2 1.2-.8 2.7-.4zm-.4 1.2q-.9-.3-1.7.2-.7.4-1 1.4-.2.9.2 1.7.5.7 1.4 1 1 .2 1.7-.2.8-.5 1-1.4.3-1-.2-1.7-.4-.8-1.4-1zm6.6.5l-.2.8q1-.7 2.2-.4.6.2 1 .6.5.5.6 1.1.1.6-.2 1.8l-1 3.7-1.3-.3 1-3.7q.3-1 0-1.5-.1-.5-.8-.7-1-.3-1.8.5l-1.3 4.6-1.3-.3 1.8-6.5 1.3.3zm4 7.6l.4-1.4q.4.5 1 .9.4.4.8.5h.8q.3-.1.4-.4v-.5l-.7-.8q-1.1-1-1.4-1.6-.2-.6 0-1.2.1-.8.9-1 .7-.4 1.6-.1 1 .2 1.8 1l-.3 1.3q-1-1-1.7-1.2h-.7q-.2 0-.3.4v.4l.7.7.4.4q1.3 1.4 1 2.5-.2.8-1 1.1-.7.4-1.7.1-.6-.1-1-.4l-1-.7zm12.2.4l-4.6-1.3q-.2 1 .2 1.7t1.4 1q1.2.3 2.5-.2l-.3 1.2q-.7.3-1.4.3l-1.4-.2q-1-.3-1.6-1-.5-.6-.7-1.4-.2-.9 0-1.9.4-1.5 1.5-2.2 1.1-.7 2.5-.3 1.3.3 1.8 1.5.5 1 .1 2.6v.2zm-4.4-2l3.3.8q.2-.7-.1-1.3-.3-.5-1-.7-.7-.2-1.3.1-.5.3-.9 1zm4.7 4.9l.4-1.4q.4.6 1 1l.8.4q.4.1.8 0 .3-.1.4-.4v-.5l-.7-.8-1.4-1.6q-.2-.6 0-1.1.2-.8.9-1.1.7-.3 1.6 0 1 .2 1.8 1l-.3 1.2q-1-1-1.7-1.1h-.7q-.2 0-.3.3v.5l.7.7.4.4q1.4 1.3 1 2.4-.2.8-1 1.2-.7.3-1.7 0-.6 0-1-.3l-1-.8z" font-size="15" font-family="GillSans" fill="#2a86c0"/><path d="M15.2 26.4h83c7.8 0 14.2 7.4 14.2 16.5v52c0 9-6.4 16.4-14.2 16.4h-83C7.4 111.3 1 104 1 95V43c0-9.1 6.4-16.5 14.2-16.5z" fill="#fff"/><path d="M15.2 26.4h83c7.8 0 14.2 7.4 14.2 16.5v52c0 9-6.4 16.4-14.2 16.4h-83C7.4 111.3 1 104 1 95V43c0-9.1 6.4-16.5 14.2-16.5z" stroke="#358ec4" stroke-width="2" fill="none"/><path d="M18.7 54h-4.2V41.7h3.3q1.5 0 2.3.4.9.4 1.3 1.2.5.7.5 1.6 0 1.8-1.9 2.6 1.3.3 2.1 1.1.8.9.8 2 0 1-.4 1.7-.5.8-1.5 1.2-.9.5-2.3.5zm-.9-10.7h-1.5V47h1.2q1.4 0 2-.6.6-.5.6-1.3 0-1.8-2.3-1.8zm.1 5.2h-1.6v4H18q1.5 0 2-.3.5-.2.8-.7.3-.5.3-1 0-.6-.3-1-.3-.5-1-.7-.6-.3-1.9-.3zM29.6 54v-1q-.5.5-1.2.8-.6.3-1.3.3-.7 0-1.4-.3-.6-.4-1-1-.3-.7-.3-2.3V46H26v4.6q0 1.3.4 1.8.3.5 1.2.5 1.2 0 2-1.1V46h1.6v8h-1.6zm3.4-.6v-1.7l1.4.8q.7.3 1.2.3t.9-.3q.3-.2.3-.6l-.2-.6-1-.6q-1.5-.9-2-1.5t-.5-1.3q0-1 .7-1.6.7-.5 1.9-.5t2.4.6V48q-1.4-.9-2.3-.9-.5 0-.8.2-.2.2-.2.6l.2.5q.3.3 1 .6l.5.3q2 1.2 2 2.6 0 1-.8 1.6-.7.6-2 .6l-1.2-.1-1.5-.6zm8.2-10.9q.4 0 .7.3.2.3.2.7l-.2.6q-.3.3-.7.3-.4 0-.7-.3l-.2-.6q0-.4.2-.7.3-.3.7-.3zm-.8 3.4H42V54h-1.6v-8zm5.5.1v1q1-1.2 2.4-1.2.8 0 1.4.4.7.3 1 1 .4.7.4 2.2V54h-1.6v-4.6q0-1.2-.4-1.8-.4-.5-1.3-.5-1.1 0-1.9 1.1V54h-1.6v-8h1.6zm14.3 4.1h-5.7q0 1.2.8 1.8.7.7 1.8.7 1.6 0 3-1v1.6q-.8.5-1.5.7-.7.2-1.7.2-1.3 0-2.2-.5-.8-.6-1.3-1.5-.5-1-.5-2.2 0-1.8 1-3 1.1-1.1 2.8-1.1 1.6 0 2.5 1 1 1.2 1 3.1v.2zm-5.7-1h4.1q0-1-.6-1.4-.5-.6-1.3-.6-.9 0-1.4.6-.6.5-.8 1.4zm7 4.3v-1.7l1.4.8q.7.3 1.2.3t.9-.3q.3-.2.3-.6l-.2-.6-1-.6q-1.6-.9-2-1.5-.5-.6-.5-1.3 0-1 .7-1.6.7-.5 1.9-.5t2.4.6V48q-1.4-.9-2.3-.9-.5 0-.8.2-.3.2-.3.6 0 .2.3.5l.9.6.6.3q2 1.2 2 2.6 0 1-.8 1.6-.8.6-2 .6L63 54l-1.4-.6zm6.9 0v-1.7l1.4.8q.7.3 1.2.3t.9-.3q.3-.2.3-.6l-.2-.6-1-.6q-1.5-.9-2-1.5t-.5-1.3q0-1 .7-1.6.7-.5 1.9-.5t2.4.6V48q-1.4-.9-2.3-.9-.5 0-.8.2-.2.2-.2.6l.2.5q.3.3 1 .6l.5.3q2 1.2 2 2.6 0 1-.8 1.6-.7.6-2 .6L70 54l-1.5-.6zm-53.8 9.3h1.7V75h-1.7V62.7zm5.8 4.3v1q1-1.2 2.4-1.2.8 0 1.5.4.6.3 1 1 .3.7.3 2.2V75H24v-4.6q0-1.2-.4-1.8-.4-.5-1.3-.5-1 0-1.9 1.1V75h-1.6v-8h1.6zm6.3 1.2l3-3V67h2.5v1.5h-2.5v4q0 1.3 1.1 1.3.9 0 1.9-.6v1.5q-1 .5-2 .5-1.2 0-1.9-.6l-.4-.4-.2-.7L28 72v-3.5h-1.4v-.2zm14 2.9H35q0 1.2.8 1.8.7.7 1.9.7 1.5 0 2.9-1v1.6q-.8.5-1.5.7-.7.2-1.7.2-1.3 0-2.1-.5-.9-.6-1.4-1.5-.5-1-.5-2.2 0-1.8 1-3 1.1-1.1 2.8-1.1 1.6 0 2.6 1 1 1.2 1 3.1v.2zm-5.6-1h4q0-1-.5-1.4-.5-.6-1.4-.6-.9 0-1.4.6-.6.5-.7 1.4zm7.4-7.4H44V75h-1.6V62.7zm3.9 0H48V75h-1.6V62.7zm4.7.8q.4 0 .7.3.3.3.3.7 0 .3-.3.6t-.7.3q-.3 0-.6-.3t-.3-.6q0-.4.3-.7.3-.3.6-.3zm-.8 3.4H52V75h-1.6v-8zm3.5 2.8q0-1.3 1-2 1-.8 2.6-.8h3.3v1.3H59l.6.8q.2.4.2 1t-.4 1.2q-.3.6-.9 1-.6.3-1.8.4-1 .2-1 .7 0 .3.4.4l1.2.4 2 .5.7.5q.6.6.6 1.5 0 1.2-1 1.8-1 .7-2.8.7-1.7 0-2.8-.7-1-.7-1-1.8 0-1.7 2-2.1-.8-.6-.8-1t.4-.8q.3-.3 1-.4-1.9-.8-1.9-2.6zm3-1.4q-.6 0-1 .4-.5.5-.5 1.1 0 .6.4 1 .5.4 1.2.4.6 0 1-.4.5-.4.5-1 0-.7-.4-1-.5-.5-1.2-.5zm-.3 7q-.8 0-1.4.4-.5.4-.5.9 0 1.3 2.3 1.3 1 0 1.6-.4.6-.3.6-.8 0-.6-.7-1-.8-.3-2-.3zm12.3-4.2h-5.6q0 1.2.7 1.8.7.7 1.9.7 1.6 0 2.9-1v1.6q-.7.5-1.5.7-.7.2-1.7.2-1.3 0-2.1-.5-.9-.6-1.4-1.5-.4-1-.4-2.2 0-1.8 1-3 1-1.1 2.7-1.1 1.6 0 2.6 1 1 1.2 1 3.1v.2zm-5.6-1h4q0-1-.5-1.4-.5-.6-1.4-.6-.8 0-1.4.6-.5.5-.7 1.4zm9-3.1v1q1-1.2 2.4-1.2.8 0 1.4.4.7.3 1 1 .3.7.3 2.2V75h-1.6v-4.6q0-1.2-.3-1.8-.4-.5-1.3-.5-1.1 0-2 1.1V75h-1.6v-8h1.7zm13.4 6.1v1.6q-1.2.4-2.3.4-2 0-3-1Q79 72.8 79 71q0-1.9 1.1-3 1.1-1.2 3-1.2h1l1.3.5V69q-1.3-.7-2.3-.7-1 0-1.8.7-.7.8-.7 2t.8 2q.7.6 2 .6 1 0 2.1-.5zm8.7-2h-5.7q.1 1.2.8 1.8.7.7 1.9.7 1.6 0 2.9-1v1.6q-.7.5-1.5.7-.7.2-1.7.2-1.3 0-2.1-.5-.9-.6-1.4-1.5-.5-1-.5-2.2 0-1.8 1-3 1.1-1.1 2.8-1.1 1.6 0 2.6 1 1 1.2 1 3.1v.2zm-5.6-1h4q0-1-.5-1.4-.5-.6-1.4-.6-.9 0-1.4.6-.6.5-.7 1.4zM13.5 83.7h10.2v1.6h-4.2V96h-1.8V85.3h-4.2v-1.6zM29 87.9q1.9 0 3.1 1.2 1.2 1.2 1.2 3 0 1.7-1.2 2.9-1.2 1-3.1 1-1.8 0-3-1.1-1.3-1.2-1.3-3 0-1.7 1.2-3 1.3-.9 3.1-.9zm0 1.4q-1.2 0-2 .8-.7.8-.7 2 0 1 .8 1.8.7.7 2 .7 1.1 0 1.9-.7.7-.7.7-1.9 0-1.1-.8-1.9-.8-.8-2-.8zm10-1.4q1.8 0 3 1.2 1.3 1.2 1.3 3 0 1.7-1.3 2.9-1.2 1.1-3 1.1-1.9 0-3.1-1.1-1.2-1.2-1.2-3 0-1.7 1.2-3 1.2-1.1 3-1.1zm0 1.4q-1.2 0-2 .8-.7.8-.7 2 0 1 .7 1.8.8.7 2 .7t1.9-.7q.8-.7.8-1.9 0-1.1-.8-1.9-.8-.8-2-.8zm6.1-5.6h1.6V96h-1.6V83.7zm354.8-42h1.6V54h-1.7v-9.6l-3.8 4.8h-.3l-3.9-4.8V54h-1.7V41.7h1.6l4.1 5 4-5zm7.9 4.2q1.9 0 3.1 1.2 1.2 1.2 1.2 3 0 1.7-1.2 2.9-1.3 1.1-3.1 1.1-1.9 0-3-1.1-1.3-1.2-1.3-3 0-1.7 1.2-3 1.3-1.1 3.1-1.1zm0 1.4q-1.2 0-2 .8-.7.8-.7 2 0 1 .8 1.8.7.7 2 .7 1 0 1.8-.7t.8-1.9q0-1.1-.8-1.9-.8-.8-2-.8zm7.7-1.3v1q1-1.2 2.4-1.2.8 0 1.5.4.6.3 1 1 .3.7.3 2.2V54H419v-4.6q0-1.2-.4-1.8-.4-.5-1.3-.5-1.1 0-1.9 1.1V54H414v-8h1.6zm7 2.7q0-1.3 1-2 .9-.8 2.5-.8h3.4v1.3h-1.7q.5.4.7.8.2.4.2 1t-.4 1.2q-.4.6-1 1-.5.3-1.8.4-.9.2-.9.7 0 .3.3.4l1.3.4 1.9.5.8.5q.5.6.5 1.5 0 1.2-1 1.8-1 .7-2.7.7-1.8 0-2.8-.7-1-.7-1-1.8 0-1.7 2-2.1-.8-.6-.8-1t.3-.8q.4-.3 1-.4-1.8-.8-1.8-2.6zm3-1.4q-.6 0-1.1.4-.5.5-.5 1.1 0 .6.5 1 .4.4 1.1.4.7 0 1.1-.4.5-.4.5-1 0-.7-.5-1-.4-.5-1-.5zm-.4 7q-.8 0-1.3.4t-.5.9q0 1.3 2.2 1.3 1.1 0 1.7-.4.6-.3.6-.8 0-.6-.8-1-.7-.3-1.9-.3zm9.4-8.4q1.8 0 3 1.2 1.3 1.2 1.3 3 0 1.7-1.3 2.9-1.2 1.1-3 1.1-2 0-3.1-1.1-1.3-1.2-1.3-3 0-1.7 1.3-3 1.2-1.1 3-1.1zm-.1 1.4q-1.2 0-1.9.8t-.7 2q0 1 .7 1.8.8.7 2 .7 1.1 0 1.9-.7.7-.7.7-1.9 0-1.1-.7-1.9-.8-.8-2-.8zm6.4 6.7V41.7h4.1q2.5 0 4 .8 1.5.7 2.3 2.2.9 1.4.9 3.2 0 1.2-.5 2.3-.5 1.1-1.3 2-1 .9-2.1 1.3l-1.3.4h-6.1zm4-10.7h-2.2v9.1h2.2q1.3 0 2-.2.8-.1 1.3-.4l.9-.7q1.3-1.3 1.3-3.3 0-2-1.4-3.3l-1.1-.7-1.2-.4-1.8-.1zM458.4 54h-4.1V41.7h3.2q1.5 0 2.4.4.8.4 1.3 1.2.4.7.4 1.6 0 1.8-1.9 2.6 1.4.3 2.2 1.1.8.9.8 2 0 1-.5 1.7-.5.8-1.4 1.2-1 .5-2.4.5zm-.8-10.7H456V47h1.2q1.4 0 2-.6.6-.5.6-1.3 0-1.8-2.2-1.8zm0 5.2H456v4h1.8q1.4 0 2-.3.4-.2.7-.7.4-.5.4-1 0-.6-.4-1-.3-.5-.9-.7-.6-.3-2-.3z" font-size="18" font-family="GillSans" fill="#4b4b4b"/><path d="M426.2 22.6c-27.4 0-49.6-2.5-49.6-5.6 0-3.1 22.2-5.6 49.6-5.6 27.4 0 49.6 2.5 49.6 5.6 0 3-22.2 5.6-49.6 5.6z" fill="#fff"/><path d="M426.2 22.6c-27.4 0-49.6-2.5-49.6-5.6 0-3.1 22.2-5.6 49.6-5.6 27.4 0 49.6 2.5 49.6 5.6 0 3-22.2 5.6-49.6 5.6z" stroke="#6cb33e" stroke-width="2" fill="none"/><path d="M391 95.7l9.4-.7a464.2 464.2 0 0 1 60.2.7 718.3 718.3 0 0 0-71.9.2z" fill="#6cb33e"/><path d="M475.8 101.7a49.6 4.7 0 0 1-24.8 4 49.6 4.7 0 0 1-49.6 0 49.6 4.7 0 0 1-24.8-4" fill="none" stroke="#6cb33e" stroke-width="2"/></svg>
