<svg xmlns="http://www.w3.org/2000/svg" height="180" width="500"><path d="M132.1 22.8c0-2.6-1.7-4.7-4-4.7h-114c-2.2 0-4 2.1-4 4.7v134.4c0 2.6 1.8 4.7 4 4.7h114c2.3 0 4-2.1 4-4.7V22.8" fill="#5ca831"/><path d="M132.1 22.8c0-2.6-1.7-4.7-4-4.7h-114c-2.2 0-4 2.1-4 4.7v134.4c0 2.6 1.8 4.7 4 4.7h114c2.3 0 4-2.1 4-4.7V22.8" stroke="#aed675" stroke-dasharray="3,2" fill="none"/><path d="M38 33.2L36.4 32q-1.7-1-2.4-2t-.7-2.3q0-2 1.3-3.1 1.4-1.3 3.5-1.3 2 0 3.8 1.2v2.7Q40 25.6 38 25.6q-1.2 0-2 .5-.7.5-.7 1.4 0 .7.6 1.3.5.7 1.7 1.4l1.8 1q3 1.8 3 4.6 0 2-1.3 3.2-1.3 1.2-3.4 1.2-2.5 0-4.4-1.5v-3q1.9 2.5 4.4 2.5 1 0 1.8-.7.7-.6.7-1.5 0-1.5-2.1-2.8zm6.7-9.5h2.1v7q1.4-1.7 3.3-1.7 1.1 0 2 .6.8.5 1.2 1.5.5 1 .5 2.8V40h-2.2v-6.6q0-1.2-.6-2-.5-.7-1.5-.7-.7 0-1.3.4l-1.4 1.2V40h-2.1V23.7zm18.8 9.9V38q0 .6.4.6T65 38v1.3q-.7.5-1.2.6-.4.2-.9.2-1.4 0-1.6-1-1.4 1-3 1-1 0-1.8-.7-.7-.8-.7-2 0-1 .7-1.7.7-.8 2-1.3l2.8-1V33q0-2-2-2-1.7 0-3.3 1.8v-2.3q1.2-1.5 3.5-1.5 1.8 0 2.8 1 .4.2.7.7.3.5.3 1l.1 1.9zm-2 4.3v-3.2l-1.5.5q-1.1.5-1.6 1-.4.4-.4 1 0 .7.4 1.1.4.4 1.1.4 1 0 2-.8zm7.8-8.7v2.5l.1-.2q1.5-2.5 3-2.5 1.3 0 2.6 1.3L74 32q-1.1-1-2-1-1.1 0-1.9 1-.7 1-.7 2.3V40H67V29.2h2.2zm14-5.5h2.2V40h-4.6q-2.4 0-3.8-1.5t-1.4-4q0-2.4 1.5-4Q78.7 29 81 29q1 0 2.3.5v-5.8zm0 14.5v-6.8q-1-.5-2-.5-1.6 0-2.5 1-1 1-1 2.8 0 1.7.9 2.6.4.5 1 .7.5.2 2 .2h1.6zm14.9-14.6h1.6l7.3 16.4h-2.4l-2.2-4.8h-7l-2 4.8h-2.4l7-16.4zm3.4 9.5L99 27l-2.5 6h5z" font-size="24" font-family="GillSans" fill="#fffffe"/><path d="M35.3 58h29.3v42.5H35.3z" fill="#fff"/><path d="M35.3 58h29.3v42.5H35.3z" stroke="#0c60b2" stroke-width=".9" fill="none"/><path d="M30.1 62.4h30.2v38.8H30.1z" fill="#fff"/><path d="M30.1 62.4h30.2v38.8H30.1z" stroke="#0c60b2" stroke-width=".9" fill="none"/><path d="M35.3 107.7h29.3V150H35.3z" fill="#fff"/><path d="M35.3 107.7h29.3V150H35.3z" stroke="#0c60b2" stroke-width=".9" fill="none"/><path d="M30.1 112h30.2v39H30.1z" fill="#fff"/><path d="M30.1 112h30.2v39H30.1z" stroke="#0c60b2" stroke-width=".9" fill="none"/><path d="M80.8 58H110v42.5H80.8z" fill="#fff"/><path d="M80.8 58H110v42.5H80.8z" stroke="#0c60b2" stroke-width=".9" fill="none"/><path d="M75.6 62.4h30.2v38.8H75.6z" fill="#fff"/><path d="M75.6 62.4h30.2v38.8H75.6z" stroke="#0c60b2" stroke-width=".9" fill="none"/><path d="M377.6 33.3l-1.7-1.1q-1.7-1-2.4-2t-.7-2.3q0-2 1.3-3.1 1.4-1.3 3.5-1.3 2 0 3.8 1.2v2.7q-1.8-1.7-3.8-1.7-1.2 0-2 .5-.7.5-.7 1.4 0 .7.6 1.3.5.7 1.7 1.4l1.8 1q3 1.8 3 4.6 0 2-1.3 3.2-1.3 1.2-3.4 1.2-2.5 0-4.5-1.5v-3q2 2.5 4.4 2.5 1.1 0 1.9-.7.7-.6.7-1.5 0-1.5-2.2-2.8zm6.7-9.5h2.1v7q1.3-1.7 3.3-1.7 1.1 0 2 .6.8.5 1.2 1.5.4 1 .4 2.8v6h-2v-6.6q0-1.2-.7-2-.6-.7-1.5-.7-.7 0-1.3.4l-1.4 1.2V40h-2.1V23.8zm18.7 9.8v4.6q0 .6.5.6.4 0 1.2-.6v1.3l-1.2.6q-.4.2-1 .2-1.3 0-1.5-1-1.4 1-3 1-1 0-1.8-.7-.8-.8-.8-2 0-1 .8-1.7.7-.8 2-1.3l2.8-1v-.5q0-2-2-2-1.7 0-3.4 1.8v-2.3q1.3-1.5 3.6-1.5 1.8 0 2.8 1 .4.2.7.7l.3 1v1.8zm-2 4.4v-3.2l-1.4.5q-1.1.5-1.6 1-.4.4-.4 1 0 .7.4 1.1.4.4 1.1.4 1 0 1.9-.8zm7.9-8.7v2.5-.2q1.6-2.5 3.2-2.5 1.2 0 2.5 1.3l-1.1 1.8q-1.1-1-2-1-1.1 0-1.9 1-.7 1-.7 2.3V40h-2.2V29.3h2.2zm14.1-5.5h2V40h-4.5q-2.4 0-3.8-1.5t-1.4-4q0-2.4 1.5-4 1.5-1.5 3.8-1.5 1 0 2.3.5v-5.8zm0 14.5v-6.8q-1-.5-2.1-.5-1.6 0-2.5 1-1 1-1 2.8 0 1.7.8 2.6.5.5 1 .7.6.2 2 .2h1.7zm26-2V39q-2.6 1.4-6 1.4-2.7 0-4.6-1-1.9-1.2-3-3.1-1.1-2-1.1-4.2 0-3.6 2.5-6 2.6-2.5 6.3-2.5 2.6 0 5.7 1.4v2.5q-2.8-1.6-5.6-1.6t-4.7 1.8q-1.8 1.7-1.8 4.4t1.8 4.4q1.9 1.8 4.7 1.8 3 0 5.8-1.9z" font-size="24" font-family="GillSans" fill="#fffffe"/><path d="M311 22.9c0-2.6-1.8-4.7-4-4.7H193c-2.2 0-4 2.1-4 4.7v134.4c0 2.6 1.8 4.7 4 4.7h114c2.2 0 4-2.1 4-4.7V22.9" fill="#5ca831"/><path d="M311 22.9c0-2.6-1.8-4.7-4-4.7H193c-2.2 0-4 2.1-4 4.7v134.4c0 2.6 1.8 4.7 4 4.7h114c2.2 0 4-2.1 4-4.7V22.9" stroke="#aed675" stroke-dasharray="3,2" fill="none"/><path d="M216 33.3l-1.8-1.1q-1.7-1-2.4-2t-.7-2.3q0-2 1.3-3.1 1.4-1.3 3.5-1.3 2 0 3.8 1.2v2.7q-1.8-1.7-3.8-1.7-1.2 0-1.9.5t-.7 1.4q0 .7.5 1.3.5.7 1.7 1.4l1.8 1q3 1.8 3 4.6 0 2-1.3 3.2-1.3 1.2-3.4 1.2-2.4 0-4.4-1.5v-3q1.9 2.5 4.4 2.5 1 0 1.8-.7.7-.6.7-1.5 0-1.5-2.1-2.8zm6.6-9.5h2.1v7q1.4-1.7 3.4-1.7 1 0 1.9.6.8.5 1.2 1.5.5 1 .5 2.8v6h-2.2v-6.6q0-1.2-.5-2-.6-.7-1.6-.7-.7 0-1.3.4l-1.4 1.2V40h-2.1V23.8zm18.8 9.8v4.6q0 .6.4.6t1.2-.6v1.3q-.7.5-1.2.6-.4.2-.9.2-1.4 0-1.6-1-1.4 1-2.9 1-1.1 0-1.9-.7-.7-.8-.7-2 0-1 .7-1.7.7-.8 2-1.3l2.8-1v-.5q0-2-2-2-1.7 0-3.3 1.8v-2.3q1.2-1.5 3.6-1.5 1.7 0 2.8 1l.6.7q.3.5.3 1l.1 1.8zm-2 4.4v-3.2l-1.5.5q-1.1.5-1.6 1-.4.4-.4 1 0 .7.4 1.1.5.4 1.1.4 1 0 2-.8zm7.8-8.7v2.5l.1-.2q1.6-2.5 3.1-2.5 1.2 0 2.5 1.3l-1.1 1.8q-1.1-1-2-1-1 0-1.9 1-.7 1-.7 2.3V40h-2.1V29.3h2.1zm14-5.5h2.2V40h-4.6q-2.4 0-3.8-1.5t-1.4-4q0-2.4 1.5-4 1.5-1.5 3.8-1.5 1 0 2.3.5v-5.8zm0 14.5v-6.8q-1-.5-2-.5-1.6 0-2.5 1-1 1-1 2.8 0 1.7.9 2.6.5.5 1 .7.6.2 2 .2h1.6zm17.6 1.8h-5.6V23.8h4.3q2 0 3.2.5 1.1.5 1.7 1.5.6 1 .6 2.2 0 2.4-2.5 3.5 1.8.3 2.9 1.4 1 1.2 1 2.8 0 1.2-.6 2.2-.6 1-1.9 1.6-1.2.6-3.1.6zm-1.2-14.3h-2v5h1.5q2 0 2.7-.8.8-.7.8-1.8 0-2.4-3-2.4zm.2 7h-2.2V38h2.3q2 0 2.6-.3.7-.3 1-.9.5-.6.5-1.3 0-.8-.4-1.4-.5-.6-1.3-1-.8-.3-2.5-.3z" font-size="24" font-family="GillSans" fill="#fffffe"/><path d="M214.2 58.1h29.3v42.5h-29.3z" fill="#fff"/><path d="M214.2 58.1h29.3v42.5h-29.3z" stroke="#0c60b2" stroke-width=".9" fill="none"/><path d="M209 62.5h30.2v38.8H209z" fill="#fff"/><path d="M209 62.5h30.2v38.8H209z" stroke="#0c60b2" stroke-width=".9" fill="none"/><path d="M214.2 107.8h29.3v42.4h-29.3z" fill="#fff"/><path d="M214.2 107.8h29.3v42.4h-29.3z" stroke="#0c60b2" stroke-width=".9" fill="none"/><path d="M209 112.1h30.2V151H209z" fill="#fff"/><path d="M209 112.1h30.2V151H209z" stroke="#0c60b2" stroke-width=".9" fill="none"/><path d="M259.7 58.1h29.2v42.5h-29.2z" fill="#fff"/><path d="M259.7 58.1h29.2v42.5h-29.2z" stroke="#0c60b2" stroke-width=".9" fill="none"/><path d="M254.4 62.5h30.2v38.8h-30.2z" fill="#fff"/><path d="M254.4 62.5h30.2v38.8h-30.2z" stroke="#0c60b2" stroke-width=".9" fill="none"/><path d="M489.7 22.8c0-2.6-1.8-4.7-4-4.7h-114c-2.3 0-4 2.1-4 4.7v134.4c0 2.6 1.7 4.7 4 4.7h114c2.2 0 4-2.1 4-4.7V22.8" fill="#5ca831"/><path d="M489.7 22.8c0-2.6-1.8-4.7-4-4.7h-114c-2.3 0-4 2.1-4 4.7v134.4c0 2.6 1.7 4.7 4 4.7h114c2.2 0 4-2.1 4-4.7V22.8" stroke="#aed675" stroke-dasharray="3,2" fill="none"/><path d="M393 33.3l-1.9-1.1q-1.6-1-2.4-2-.7-1-.7-2.3 0-2 1.4-3.1 1.3-1.3 3.5-1.3 2 0 3.7 1.2v2.7q-1.7-1.7-3.8-1.7-1.1 0-1.9.5-.7.5-.7 1.4 0 .7.5 1.3.6.7 1.8 1.4l1.8 1q3 1.8 3 4.6 0 2-1.4 3.2-1.3 1.2-3.4 1.2-2.4 0-4.4-1.5v-3q1.9 2.5 4.4 2.5 1.1 0 1.8-.7.8-.6.8-1.5 0-1.5-2.2-2.8zm6.5-9.5h2.2v7Q403 29 405 29q1 0 2 .6.8.5 1.2 1.5.4 1 .4 2.8V40h-2.1v-6.6q0-1.2-.6-2-.6-.7-1.5-.7-.7 0-1.4.4-.6.4-1.3 1.2V40h-2.2V23.8zm18.9 9.8v4.6q0 .6.3.6.4 0 1.2-.6v1.3q-.7.5-1.1.6l-1 .2q-1.3 0-1.6-1-1.3 1-2.9 1-1 0-1.8-.7-.8-.8-.8-2 0-1 .7-1.7.8-.8 2.1-1.3l2.8-1v-.5q0-2-2-2-1.7 0-3.4 1.8v-2.3q1.3-1.5 3.6-1.5 1.7 0 2.8 1l.6.7.4 1v1.8zm-2.1 4.4v-3.2l-1.5.5q-1 .5-1.5 1-.5.4-.5 1 0 .7.5 1.1.4.4 1 .4 1 0 2-.8zm7.8-8.7v2.5l.1-.2q1.6-2.5 3.1-2.5 1.2 0 2.6 1.3l-1.2 1.8q-1-1-2-1t-1.8 1q-.8 1-.8 2.3V40H422V29.3h2.1zm14.1-5.5h2.1V40h-4.5q-2.4 0-3.9-1.5-1.4-1.5-1.4-4 0-2.4 1.5-4 1.5-1.5 3.8-1.5 1.1 0 2.4.5v-5.8zm0 14.5v-6.8q-1-.5-2-.5-1.6 0-2.6 1t-1 2.8q0 1.7.9 2.6.5.5 1 .7.6.2 2 .2h1.7zm26.1-2V39q-2.6 1.4-6 1.4-2.7 0-4.6-1-2-1.2-3-3.1-1.2-2-1.2-4.2 0-3.6 2.6-6 2.5-2.5 6.3-2.5 2.5 0 5.7 1.4v2.5q-2.9-1.6-5.6-1.6-2.8 0-4.7 1.8-1.8 1.7-1.8 4.4t1.8 4.4q1.8 1.8 4.7 1.8 3 0 5.8-1.9z" font-size="24" font-family="GillSans" fill="#fffffe"/><path d="M392.9 58H422v42.5h-29z" fill="#fff"/><path d="M392.9 58H422v42.5h-29z" stroke="#0c60b2" stroke-width=".9" fill="none"/><path d="M387.6 62.4h30.2v38.8h-30.2z" fill="#fff"/><path d="M387.6 62.4h30.2v38.8h-30.2z" stroke="#0c60b2" stroke-width=".9" fill="none"/><g stroke="#301e12" stroke-width="3"><path d="M248.6 134H350" fill="none"/><path d="M350 138.3l11.2-4.2-11.2-4.2z" fill="#301e12"/></g><path d="M286.4 116.1h1.7v12.3h-1.8v-9.6l-3.8 4.8h-.3l-3.8-4.8v9.6h-1.8V116h1.7l4 5 4.1-5zm4.9.8q.4 0 .7.3.3.2.3.6 0 .4-.3.7-.3.3-.7.3-.4 0-.6-.3-.3-.3-.3-.7 0-.3.3-.6.2-.3.6-.3zm-.8 3.4h1.6v8h-1.6v-8zm3.5 2.7q0-1.2 1-2 .9-.7 2.5-.7h3.4v1.2h-1.7q.5.5.7 1 .2.3.2.8 0 .7-.4 1.3-.3.6-1 1l-1.8.4q-.9.2-.9.7 0 .2.4.4l1.2.4 1.9.5.8.5q.5.6.5 1.5 0 1.1-1 1.8t-2.7.7q-1.7 0-2.8-.7-1-.7-1-1.8 0-1.7 2-2.2-.8-.5-.8-1 0-.4.4-.7.3-.3.9-.4-1.8-.8-1.8-2.6zm3-1.3q-.6 0-1 .4-.6.5-.6 1 0 .7.5 1.1.4.4 1.1.4.7 0 1.2-.4.4-.4.4-1 0-.7-.4-1-.5-.5-1.2-.5zm-.4 7q-.8 0-1.3.4-.5.3-.5.9 0 1.2 2.2 1.2 1.1 0 1.7-.3.6-.3.6-.9 0-.5-.8-.9-.7-.3-1.9-.3zm7.2-8.4v1.9l.1-.2q1.2-1.9 2.3-1.9 1 0 2 1l-1 1.4q-.7-.8-1.5-.8-.7 0-1.3.7-.6.7-.6 1.8v4.2h-1.6v-8.1h1.6zm10.5 3.2v3.5q0 .4.3.4t1-.5v1l-1 .5-.6.1q-1 0-1.3-.8-1 .8-2.1.8-.9 0-1.4-.5-.6-.6-.6-1.5 0-.7.6-1.3.5-.6 1.5-1l2-.7v-.4q0-1.5-1.4-1.5-1.3 0-2.5 1.4v-1.8q.9-1 2.6-1 1.3 0 2.1.6.3.2.5.6l.3.7v1.4zm-1.5 3.3v-2.4l-1.1.4q-.8.3-1.2.7-.3.3-.3.8t.3.8q.3.3.8.3.8 0 1.5-.6zm3-5.2l3-3v1.7h2.6v1.4h-2.6v4q0 1.4 1.2 1.4.8 0 1.8-.6v1.5q-1 .5-2 .5-1.1 0-1.8-.6l-.4-.4-.3-.7v-5.1h-1.5v-.1zm14.1 2.9h-5.7q0 1.1.7 1.8.8.7 1.9.7 1.6 0 3-1v1.6q-.8.5-1.6.7-.7.2-1.6.2-1.4 0-2.2-.5-.8-.6-1.3-1.5-.5-1-.5-2.2 0-1.8 1-3t2.7-1.2q1.6 0 2.6 1.2 1 1 1 3v.2zm-5.7-1h4q0-1-.5-1.5t-1.4-.5q-.8 0-1.4.5-.5.6-.7 1.5z" font-size="18" font-family="GillSans" fill="#301e12"/><g stroke="#0c60b2" stroke-width="1.3" stroke-dasharray="2.5,2.5" fill="none"><path d="M392.9 112.5H422v42.4h-29z"/><path d="M387.6 116.8h30.2v38.9h-30.2z"/></g></svg>