<svg width="1162" height="552" xmlns:xlink="http://www.w3.org/1999/xlink" xmlns="http://www.w3.org/2000/svg"><defs><path id="N" d="M11.7 128.3h380v50.5h-380z"/><path id="M" d="M40.8 208h613.3v92.3H40.8z"/></defs><g transform="translate(-19 -29)"><path d="M595 90v265" stroke="#9b0d28" stroke-width="4" fill="none"/><path d="m595 355-4.6-14.3h9.2z" stroke="#9b0d28" stroke-width="4" fill="#9b0d28"/><path d="M285 35a5 5 0 0 1 5-5h170a5 5 0 0 1 5 5v50a5 5 0 0 1-5 5H290a5 5 0 0 1-5-5z" stroke="#000" stroke-width="2" fill="none"/><use xlink:href="#a" transform="translate(297.2 66.8)"/><use xlink:href="#b" transform="translate(328.3 66.8)"/><use xlink:href="#c" transform="translate(359.4 66.8)"/><use xlink:href="#d" transform="translate(390.6 66.8)"/><use xlink:href="#e" transform="translate(437.2 66.8)"/><path d="M505 35a5 5 0 0 1 5-5h170a5 5 0 0 1 5 5v50a5 5 0 0 1-5 5H510a5 5 0 0 1-5-5z" stroke="#000" stroke-width="2" fill="none"/><use xlink:href="#a" transform="translate(517.2 66.8)"/><use xlink:href="#b" transform="translate(548.3 66.8)"/><use xlink:href="#c" transform="translate(579.4 66.8)"/><use xlink:href="#f" transform="translate(610.6 66.8)"/><use xlink:href="#e" transform="translate(657.2 66.8)"/><path d="M725 35a5 5 0 0 1 5-5h170a5 5 0 0 1 5 5v50a5 5 0 0 1-5 5H730a5 5 0 0 1-5-5z" stroke="#000" stroke-width="2" fill="none"/><use xlink:href="#a" transform="translate(737.2 66.8)"/><use xlink:href="#b" transform="translate(768.3 66.8)"/><use xlink:href="#c" transform="translate(799.4 66.8)"/><use xlink:href="#g" transform="translate(830.6 66.8)"/><use xlink:href="#e" transform="translate(877.2 66.8)"/><path d="M375 90v180a5 5 0 0 1-5 5H195a5 5 0 0 0-5 5v80" stroke="#3aa6dd" stroke-width="4" fill="none"/><path d="m190 360-4.6-14.3h9.2z" stroke="#3aa6dd" stroke-width="4" fill="#3aa6dd"/><path d="M815 90v180a5 5 0 0 0 5 5h175a5 5 0 0 1 5 5v75" stroke="#ff8f80" stroke-width="4" fill="none"/><path d="m1000 355-4.6-14.3h9.2z" stroke="#ff8f80" stroke-width="4" fill="#ff8f80"/><path d="M330 205a5 5 0 0 1 5-5h510a5 5 0 0 1 5 5v50a5 5 0 0 1-5 5H335a5 5 0 0 1-5-5z" stroke="#fff" stroke-width="2" fill="#de4f01"/><use xlink:href="#h" transform="translate(503.6 239.8)"/><path d="M1108 440a71 71 0 0 1 72 70 71 71 0 0 1-72 70H892a71 71 0 0 1-72-70 71 71 0 0 1 72-70z" stroke="#000" stroke-width="2" fill="#69b241"/><path d="M880 385a5 5 0 0 1 5-5h230a5 5 0 0 1 5 5v50a5 5 0 0 1-5 5H885a5 5 0 0 1-5-5z" fill="none"/><use xlink:href="#i" transform="translate(942.9 420.7)"/><use xlink:href="#j" transform="translate(1035.1 420.7)"/><path d="M840 469a5 5 0 0 1 5-5h310a5 5 0 0 1 5 5v82a5 5 0 0 1-5 5H845a5 5 0 0 1-5-5z" fill="none"/><path d="M308 440a71 71 0 0 1 72 70 71 71 0 0 1-72 70H92a71 71 0 0 1-72-70 71 71 0 0 1 72-70z" stroke="#000" stroke-width="2" fill="#69b241"/><path d="M80 385a5 5 0 0 1 5-5h230a5 5 0 0 1 5 5v50a5 5 0 0 1-5 5H85a5 5 0 0 1-5-5z" fill="none"/><use xlink:href="#i" transform="translate(143.5 420.7)"/><use xlink:href="#k" transform="translate(235.7 420.7)"/><path d="M40 469a5 5 0 0 1 5-5h310a5 5 0 0 1 5 5v82a5 5 0 0 1-5 5H45a5 5 0 0 1-5-5z" fill="none"/><path d="M708 440a71 71 0 0 1 72 70 71 71 0 0 1-72 70H492a71 71 0 0 1-72-70 71 71 0 0 1 72-70z" stroke="#000" stroke-width="2" fill="#69b241"/><path d="M480 385a5 5 0 0 1 5-5h230a5 5 0 0 1 5 5v50a5 5 0 0 1-5 5H485a5 5 0 0 1-5-5z" fill="none"/><use xlink:href="#i" transform="translate(545.1 420.7)"/><use xlink:href="#l" transform="translate(637.4 420.7)"/><path d="M440 469a5 5 0 0 1 5-5h310a5 5 0 0 1 5 5v82a5 5 0 0 1-5 5H445a5 5 0 0 1-5-5z" fill="none"/><defs><path d="M163-116c0-78-36-122-110-112v-56c35-1 55 6 86-22 64-88-23-208 73-291 58-51 122-38 196-40v57c-53 2-103-8-135 13-38 24-40 73-40 93 0 24 2 46 2 70 3 68-35 130-87 148 38 13 85 50 85 155 0 81-20 142 38 187 33 26 82 15 136 17v56c-78-2-144 12-192-30-80-70-52-144-52-245" id="m"/><path d="M379-624h70L291-319 468 0h-79L251-247 117 0H41l170-318L44-624h75l131 237" id="n"/><path d="M298-365c0 31-26 57-59 57s-60-25-60-57c0-31 27-58 60-58s59 27 59 58zm0 319c0 31-26 57-59 57s-60-25-60-57c0-31 27-58 60-58s59 27 59 58" id="o"/><path d="M244-566c-67 0-104 39-115 80l-51-40c37-63 103-101 174-101 102 0 181 78 181 175 0 90-64 153-110 196-45 42-117 104-169 195h261c11 1 12-12 24-9V0H73v-44c52-104 110-168 181-232 45-41 110-95 110-171 0-67-54-119-120-119" id="t"/><path d="M106-623h316v63H165l-10 179c141-67 290 9 290 184C445 36 163 71 64-85l62-46c9 6 3 15 7 23 3 7 48 58 115 58s126-52 126-148c0-163-166-190-245-90l-44-18" id="u"/><path d="M352-256c-52-19-90-80-87-148 0-24 3-46 3-70 0-20-2-69-40-93-32-21-83-11-136-13v-57c74 2 140-14 196 40 65 62 49 118 47 206 0 24 2 61 26 85 30 29 52 21 87 22v56c-74-10-110 34-110 112 0 101 28 175-52 245-48 42-115 28-193 30v-56c54-2 104 9 137-17 58-45 38-106 38-187 0-105 46-142 84-155" id="p"/><path d="M375-520c-19-29-21-48-87-48-45 0-148 28-152 241 91-141 303-73 303 129C439 10 210 83 114-72 44-186 51-340 94-475c53-167 213-199 330-98zm-4 325c0-190-167-178-231-62-8 116 48 205 124 205 53 0 107-46 107-143" id="v"/><path d="M432-584C350-397 277-203 214 0h-79c63-190 134-378 210-557H79v-66h353v39" id="w"/><path fill="#fff" d="M1139-1397h200V0h-200v-608H354V0H154v-1397h200v604h785v-604" id="x"/><path fill="#fff" d="M279 14C154 14 49-84 55-209c11-240 284-270 473-344 10-137-37-215-166-215-99 0-196 51-290 154v-199c71-83 172-125 305-125 171 0 301 80 323 228s4 380 7 548c0 31 11 47 32 47 22 0 56-16 103-49v111c-70 41-94 69-178 69-78 0-124-31-138-92-77 60-160 90-247 90Zm-43-254c-2 75 56 129 131 129 58 0 112-24 161-71v-273c-79 31-209 74-254 121-25 26-38 57-38 94" id="y"/><path fill="#fff" d="M391 16C248 13 200-13 84-66v-196c78 54 186 115 293 121 64 4 138-37 139-95 0-27-8-48-26-66s-56-44-115-77c-117-65-195-121-231-167s-54-97-54-152c-1-149 137-240 295-240 90 0 182 25 277 76v180c-108-65-196-98-265-98-93 0-157 78-89 143 29 27 119 78 169 107 153 87 230 183 230 288C708-83 559 21 391 16" id="z"/><path fill="#fff" d="M537-793c-115 4-158 59-230 134V0H125v-1397h182v598c105-135 293-188 448-93 113 70 144 170 144 368V0H717v-569c3-122-65-228-180-224" id="A"/><path fill="#fff" d="M156-1397h745v178H356v390h545v178H356V0H156v-1397" id="B"/><path fill="#fff" d="M307-395c4 175 28 260 187 260 87 0 160-42 221-127v-658h182V0H715v-117C629-10 424 68 274-28c-116-74-149-155-149-365v-527h182v525" id="C"/><path fill="#fff" d="M717-524c-3-169-33-262-187-262-86 0-159 43-219 129V0H125v-920h186v117c117-131 280-184 437-91 117 70 151 162 151 368V0H717v-524" id="D"/><path fill="#fff" d="M262-461c0 187 127 307 316 307 70 0 150-20 241-61v180C728-1 638 16 551 16 268 16 78-172 78-455c0-278 181-487 454-483 122 2 168 22 267 64v194c-92-59-177-88-256-88-165 0-281 138-281 307" id="E"/><path fill="#fff" d="m0-774 342-336v190h291v164H342v451c0 105 44 158 131 158 65 0 134-22 207-66v170C550 33 349 44 243-57c-73-70-84-127-83-291v-408H0v-18" id="F"/><path fill="#fff" d="M117-1200c0-54 52-107 106-107 58 0 109 49 109 107 0 57-51 108-109 108-54 0-106-53-106-108zm16 280h182V0H133v-920" id="G"/><path fill="#fff" d="M76-451c0-267 222-471 493-471s488 207 488 476c0 265-225 462-496 462C296 16 76-188 76-451Zm796-4c0-172-139-303-313-303-172 0-299 133-299 305 0 174 132 299 307 299 174 0 305-128 305-301" id="H"/><path fill="#666" d="M307-694c0 306 244 526 555 526 169 0 335-52 496-156v220C1119 35 700 64 453-78 260-188 105-411 100-694c-8-401 347-721 754-721 147 0 310 38 489 115v215c-163-93-323-140-479-140-306 0-557 229-557 531" id="q"/><path fill="#666" d="M537-793c-115 4-158 59-230 134V0H125v-1397h182v598c105-135 293-188 448-93 113 70 144 170 144 368V0H717v-569c3-122-65-228-180-224" id="I"/><path fill="#666" d="M307-395c4 175 28 260 187 260 87 0 160-42 221-127v-658h182V0H715v-117C629-10 424 68 274-28c-116-74-149-155-149-365v-527h182v525" id="J"/><path fill="#666" d="M717-524c-3-169-33-262-187-262-86 0-159 43-219 129V0H125v-920h186v117c117-131 280-184 437-91 117 70 151 162 151 368V0H717v-524" id="K"/><path fill="#666" d="M727-920h217L551-469 1024 0H780L319-469Zm-598-477h182V0H129v-1397" id="L"/><path fill="#666" d="M600-1405h141L1366 0h-205L975-414H381L205 0H0Zm293 813-225-506-209 506h434" id="r"/><path fill="#666" d="M776-739c182 31 334 160 334 358 0 166-92 267-216 328C823-18 734 0 627 0H154v-1397c212 7 494-22 636 47 116 56 199 157 199 316 0 137-71 236-213 295zm-289-60c185 3 295-63 295-219 0-134-85-201-256-201H354v420zm272 204c-77-32-277-25-405-26v443c125-1 352 2 420-26 102-41 175-202 92-312-26-35-62-60-107-79" id="s"/><use transform="scale(.03111)" xlink:href="#m" id="a"/><use transform="scale(.03111)" xlink:href="#n" id="b"/><use transform="scale(.03111)" xlink:href="#o" id="c"/><use transform="scale(.03111)" xlink:href="#p" id="e"/><use transform="scale(.0152)" xlink:href="#q" id="j"/><use transform="scale(.0152)" xlink:href="#r" id="k"/><use transform="scale(.0152)" xlink:href="#s" id="l"/><g id="d"><use transform="scale(.03111)" xlink:href="#t"/><use transform="translate(15.6) scale(.03111)" xlink:href="#u"/></g><g id="f"><use transform="scale(.03111)" xlink:href="#t"/><use transform="translate(15.6) scale(.03111)" xlink:href="#v"/></g><g id="g"><use transform="scale(.03111)" xlink:href="#t"/><use transform="translate(15.6) scale(.03111)" xlink:href="#w"/></g><g id="h"><use transform="scale(.0152)" xlink:href="#x"/><use transform="translate(22.7) scale(.01519)" xlink:href="#y"/><use transform="translate(36) scale(.01519)" xlink:href="#z"/><use transform="translate(48) scale(.01519)" xlink:href="#A"/><use transform="translate(63.5) scale(.01519)" xlink:href="#B"/><use transform="translate(78) scale(.01519)" xlink:href="#C"/><use transform="translate(93.6) scale(.01519)" xlink:href="#D"/><use transform="translate(109.2) scale(.01519)" xlink:href="#E"/><use transform="translate(122.8) scale(.01519)" xlink:href="#F"/><use transform="translate(133.2) scale(.01519)" xlink:href="#G"/><use transform="translate(140) scale(.01519)" xlink:href="#H"/><use transform="translate(157.2) scale(.01519)" xlink:href="#D"/></g><g id="i"><use transform="scale(.0152)" xlink:href="#q"/><use transform="translate(22) scale(.01519)" xlink:href="#I"/><use transform="translate(37.6) scale(.01519)" xlink:href="#J"/><use transform="translate(53.1) scale(.01519)" xlink:href="#K"/><use transform="translate(68.7) scale(.01519)" xlink:href="#L"/></g></defs><path d="M49.6 218.5q.5-1 1.1-1.4.7-.5 1.7-.5 1.8 0 2.5 1.4t.7 5.1v8.5h-2.2v-8.4q0-3-.3-3.8-.4-.7-1.3-.7-1 0-1.4.8-.4.8-.4 3.7v8.4h-2.2v-8.4q0-3-.4-3.8-.3-.7-1.3-.7t-1.3.8q-.4.8-.4 3.7v8.4h-2.2V217h2.2v1.2q.4-.7 1-1.1.7-.5 1.6-.5 1 0 1.6.5.7.5 1 1.4zM61 217h6v12.7h5v1.9H60v-1.9h4.8V219H61Zm3.7-5.6h2.4v3h-2.4zm21.9 11.1v9h-2.4v-9q0-2-.7-2.8-.7-1-2.1-1-1.7 0-2.6 1.2-1 1.2-1 3.4v8.3h-2.3V217h2.4v2.2q.6-1.3 1.7-1.9 1-.7 2.6-.7 2.2 0 3.3 1.5 1.1 1.5 1.1 4.4zm4.2-10.4h2.6v8.7l8.2-8.7h3.1l-7.6 8 7.8 11.5h-3.1l-6.4-9.8-2 2.2v7.6h-2.6zm28.8 10.9v1.3h-10.4q0 3 1.2 4.3 1.2 1.3 3.5 1.3 1.1 0 2.4-.3l2.7-1.1v2.3q-1.4.6-2.7.9-1.2.3-2.4.3-3.4 0-5.3-2-2-2.1-2-5.7 0-3.5 2-5.6 1.8-2 5-2 2.7 0 4.3 1.8 1.6 2 1.7 4.6zm-2.4-.6q-.1-1.5-1-2.6-1-1.1-2.8-1.1-1.7 0-2.8 1.1-1.2 1.2-1.3 2.6zm15.1 4.5-1.6 4q-1.2 3.4-1.7 4.2-.6 1-1.5 1.5t-2 .5h-2v-2h1.4q1 0 1.7-.6.6-.6 1.5-3.2l-5.7-14.3h2.6l4.3 11.4 4.3-11.4h2.5zm35.8-1v2.3l-13.8-4.3v-2.2l13.8-4.3v2.4l-10.4 3zm0 3.5v2.2h-13.8v-2.2zm30.9-6.9v9h-2.4v-9q0-2-.7-2.8-.7-1-2.2-1-1.6 0-2.6 1.2-.9 1.2-.9 3.4v8.3H188v-20.3h2.3v7.9q.7-1.3 1.8-1.9 1-.7 2.6-.7 2.2 0 3.3 1.5 1.1 1.5 1.1 4.4zm11.5 1.8h-.8q-2 0-3.2.7-1 .7-1 2.2 0 1.3.8 2 .8.8 2.2.8 2 0 3.1-1.4t1.1-3.8v-.5zm4.7-1v8.3h-2.5v-2.2q-.7 1.3-1.9 2-1.2.6-2.8.6-2.2 0-3.6-1.3-1.3-1.3-1.3-3.4 0-2.4 1.6-3.7 1.7-1.2 4.8-1.2h3.2v-.4q0-1.7-.8-2.5-1-.8-2.8-.8-1.2 0-2.5.3l-2.4 1v-2.3l2.5-.8q1.2-.3 2.4-.3 1.8 0 3 .6 1.4.5 2.1 1.6.5.6.7 1.6.3 1 .3 2.9zm14.8-5.8v2.4l-2-1q-1-.2-2.1-.2-1.6 0-2.4.5-.8.5-.8 1.6 0 1 .6 1.4.6.5 3 1l1 .2q1.7.3 2.6 1.3 1 1 1 2.7 0 2.1-1.6 3.3-1.5 1.3-4.3 1.3-1 0-2.2-.3-1.2-.2-2.6-.7v-2.4q1.3.7 2.6 1 1.2.4 2.3.4 1.6 0 2.4-.7 1-.6 1-1.8 0-1.7-3.3-2.3l-1-.2q-2-.4-3-1.4-1-1-1-2.6 0-2 1.5-3.2 1.4-1.2 4-1.2 1.2 0 2.3.3l2 .6zm17.2 5v9h-2.4v-9q0-2-.7-2.8-.7-1-2.2-1-1.7 0-2.6 1.2-.9 1.2-.9 3.4v8.3H236v-20.3h2.4v7.9q.6-1.3 1.7-1.9 1.1-.7 2.6-.7 2.3 0 3.4 1.5 1 1.5 1 4.4zm13.5-12.5q-1.8 3-2.6 6-.9 3-.9 6 0 2.9.9 5.8.8 3 2.6 6h-2.1q-2-3.1-3-6-1-3-1-5.9 0-2.9 1-5.8 1-3 3-6zm6 2.1h2.8l4.3 7.4 4.4-7.4h2.8l-5.8 9.2 6.2 10.3h-2.8l-4.8-8.4-5.1 8.4h-2.9l6.5-10.3zm19.5-2.1h2q2 3.1 3 6 1 3 1 6 0 2.8-1 5.8t-3 6h-2q1.7-3 2.6-6 .8-3 .8-5.9 0-3-.8-6-.9-2.9-2.6-5.9zm42.5 9-11.1 4.2 11 4.2v2.3l-13.7-5.4v-2.2l13.8-5.4zm20.7 10.4h4v-14.7l-4.8 2.4v-2.6l4.8-2.3h2.7v17.2h4v2.2h-10.7Zm20.6-17.5q3 0 4.6 2.5 1.6 2.5 1.6 7.5t-1.6 7.5Q373 232 370 232q-3 0-4.7-2.6-1.6-2.5-1.6-7.5t1.6-7.5q1.6-2.5 4.7-2.5zm0 18q1.8 0 2.7-2 .9-2 .9-6 0-2.1-.3-3.9l-6.2 9.7q1 2.2 2.8 2.2zm0-16q-1.9 0-2.8 2-1 2-1 6 0 1.8.3 3.4l6.1-9.6q-1-1.8-2.7-1.8z" aria-label="minKey ≤ hash(X) &lt; 10" transform="translate(-11.7 288.7)" style="font-size:26.6667px;line-height:1.25;font-family:Menlo;-inkscape-font-specification:'Menlo, Normal';font-variant-ligatures:none;white-space:pre;shape-inside:url(#M);display:inline"/><path d="M473 516.8h4v-14.7l-4.9 2.4v-2.6l5-2.3h2.5v17.2h4v2.2H473zm20.5-17.5q3.1 0 4.7 2.5 1.6 2.6 1.6 7.5 0 5-1.6 7.5-1.6 2.6-4.7 2.6t-4.7-2.6q-1.6-2.5-1.6-7.5t1.6-7.5q1.6-2.5 4.7-2.5zm0 18q1.9 0 2.8-2 .9-2 .9-6 0-2.1-.3-3.9l-6.2 9.7q1 2.2 2.8 2.2zm0-16q-1.8 0-2.7 2-1 2-1 6 0 1.9.3 3.5l6-9.7q-1-1.7-2.6-1.7zm39 12v2.4l-13.8-4.4v-2.1l13.8-4.4v2.4l-10.4 3zm0 3.5v2.2h-13.8v-2.2zm30.9-6.8v9H561v-9q0-2-.7-3-.7-.9-2.2-.9-1.6 0-2.6 1.2-.9 1.2-.9 3.5v8.2h-2.4v-20.3h2.4v7.9q.7-1.2 1.8-1.9 1-.6 2.6-.6 2.2 0 3.3 1.4 1 1.5 1 4.5zm11.5 1.7h-.8q-2 0-3.2.7-1 .7-1 2.2 0 1.3.8 2 .8.8 2.2.8 2 0 3-1.4 1.2-1.4 1.2-3.8v-.5zm4.6-1v8.3h-2.4v-2.2q-.7 1.3-1.9 2-1.2.6-2.8.6-2.3 0-3.6-1.3-1.3-1.2-1.3-3.3 0-2.5 1.6-3.7 1.7-1.3 4.8-1.3h3.2v-.4q0-1.7-.8-2.5-1-.8-2.8-.8-1.3 0-2.5.3-1.3.4-2.4 1v-2.3l2.5-.8 2.4-.2q1.8 0 3 .5 1.3.5 2.1 1.6.5.7.7 1.6.2 1 .2 2.9zm15-5.7v2.3l-2-1-2.2-.2q-1.6 0-2.4.5-.8.5-.8 1.6 0 1 .6 1.5.6.4 3 .9l1 .2q1.7.3 2.6 1.3 1 1 1 2.7 0 2.1-1.6 3.4-1.5 1.2-4.3 1.2-1 0-2.2-.3l-2.6-.6V516q1.3.7 2.6 1 1.2.4 2.3.4 1.6 0 2.4-.7.9-.6.9-1.8 0-1.6-3.2-2.3l-1-.2q-2-.4-3-1.3-1-1-1-2.7 0-2 1.5-3.2 1.4-1.1 4-1.1 1.2 0 2.3.2l2 .6zm17.1 5v9H609v-9q0-2-.6-3-.7-.9-2.2-.9-1.7 0-2.6 1.2-.9 1.2-.9 3.5v8.2h-2.4v-20.3h2.4v7.9q.6-1.2 1.7-1.9 1.1-.6 2.6-.6 2.3 0 3.3 1.4 1.2 1.5 1.2 4.5zm13.4-12.5q-1.7 3-2.5 5.9-.9 3-.9 6t.9 5.9q.8 3 2.6 6H623q-2-3.2-3-6.1-1-3-1-5.9 0-2.9 1-5.8 1-3 3-6zm6.1 2.1h2.8l4.3 7.3 4.3-7.3h2.9l-5.9 9.1 6.3 10.3H643l-4.8-8.4-5.1 8.4h-2.9l6.5-10.3zm19.5-2.1h2q2 3 3 6t1 5.8q0 3-1 5.9-1 3-3 6h-2q1.7-3 2.5-6 .9-3 .9-5.9 0-3-.9-5.9-.8-3-2.5-6zm42.4 9-11 4.2 11 4v2.5l-13.7-5.5v-2.1L693 504zm22.1 10.3h9v2.2h-11.9v-2.2l4.3-4.5 2.5-2.8q1.3-1.6 1.8-2.6.4-1 .4-2 0-1.6-1-2.6-.9-.9-2.6-.9-1.1 0-2.5.5-1.3.4-2.7 1.3v-2.7l2.6-1q1.3-.3 2.6-.3 2.8 0 4.6 1.5 1.7 1.5 1.7 4 0 1.3-.6 2.5-.5 1.3-1.8 2.8l-2.2 2.3-4.2 4.5zm19.2-17.5q3.1 0 4.7 2.5 1.6 2.6 1.6 7.5 0 5-1.6 7.5-1.6 2.6-4.7 2.6-3 0-4.7-2.6-1.6-2.5-1.6-7.5t1.6-7.5q1.6-2.5 4.7-2.5zm0 18q1.9 0 2.8-2 .9-2 .9-6 0-2.1-.3-3.9l-6.2 9.7q1 2.2 2.8 2.2zm0-16q-1.8 0-2.7 2-1 2-1 6 0 1.9.3 3.5l6.1-9.7q-1-1.7-2.7-1.7z" aria-label="10 ≤ hash(X) &lt; 20" style="font-size:26.6667px;line-height:1.25;font-family:Menlo;-inkscape-font-specification:'Menlo, Normal';font-variant-ligatures:none"/><g style="font-size:24px;line-height:1.25;font-family:Courier;-inkscape-font-specification:'Courier, Normal';font-variant-ligatures:none;white-space:pre;shape-inside:url(#N);display:inline"><path d="M16.5 149.7h9v2.2H13.6v-2.2L18 145l2.5-2.7q1.3-1.6 1.8-2.6.4-1 .4-2 0-1.6-1-2.6-.9-.9-2.6-.9-1.1 0-2.4.4l-2.8 1.3v-2.6q1.3-.7 2.6-1 1.3-.3 2.6-.3 2.8 0 4.6 1.5 1.7 1.5 1.7 4 0 1.2-.6 2.5-.5 1.2-1.8 2.8l-2.2 2.3-4.2 4.5zm19.2-17.5q3.1 0 4.7 2.5t1.6 7.5q0 5-1.6 7.5-1.6 2.6-4.7 2.6-3 0-4.7-2.6-1.6-2.5-1.6-7.5t1.6-7.5q1.6-2.5 4.7-2.5zm0 18q1.9 0 2.8-2 .9-2 .9-6 0-2.1-.3-3.9L33 148q1 2.2 2.8 2.2zm0-16q-1.8 0-2.7 2-1 2-1 6 0 1.8.3 3.4l6.1-9.6q-1-1.8-2.7-1.8zm39 12v2.4L61 144.2V142l13.7-4.3v2.4l-10.4 3zm0 3.5v2.2H61v-2.2zm30.9-6.8v9h-2.4v-9q0-2-.7-3-.7-.9-2.1-.9-1.7 0-2.6 1.2-1 1.2-1 3.4v8.3h-2.3v-20.3h2.4v7.9q.6-1.3 1.7-1.9 1.1-.6 2.6-.6 2.2 0 3.3 1.4 1.1 1.5 1.1 4.5zm11.5 1.7h-.8q-2 0-3.1.7-1 .7-1 2.2 0 1.3.7 2 .8.8 2.2.8 2 0 3.1-1.4 1.2-1.4 1.2-3.8v-.5zm4.7-1v8.3h-2.4v-2.2q-.8 1.3-2 2-1.1.6-2.8.6-2.2 0-3.5-1.3-1.4-1.2-1.4-3.4 0-2.4 1.6-3.7 1.7-1.2 4.9-1.2h3.2v-.4q0-1.7-1-2.5-.8-.8-2.7-.8-1.2 0-2.5.3l-2.4 1V138l2.5-.8 2.4-.2q1.8 0 3 .5 1.4.5 2.2 1.6.5.6.7 1.6.2 1 .2 2.9zm14.9-5.8v2.4l-2-1-2.2-.2q-1.6 0-2.4.5-.8.5-.8 1.6 0 1 .6 1.5.6.4 3 .9l1 .2q1.7.3 2.6 1.3 1 1 1 2.7 0 2.1-1.6 3.4-1.5 1.2-4.3 1.2-1 0-2.2-.3l-2.6-.6v-2.5q1.4.7 2.6 1 1.2.4 2.3.4 1.6 0 2.5-.7.8-.6.8-1.8 0-1.7-3.2-2.3l-1-.2q-2-.4-3-1.4-1-1-1-2.6 0-2 1.5-3.2 1.4-1.1 4-1.1 1.2 0 2.3.2l2.1.6zm17.1 5.1v9h-2.4v-9q0-2-.7-3-.7-.9-2.2-.9-1.7 0-2.6 1.2-.9 1.2-.9 3.4v8.3h-2.4v-20.3h2.4v7.9q.7-1.3 1.8-1.9 1-.6 2.6-.6 2.2 0 3.3 1.4 1 1.5 1 4.5zm13.5-12.5q-1.7 3-2.6 5.9-.9 3-.9 6 0 2.9.9 5.8.9 3 2.6 6h-2.1q-2-3.1-3-6-.9-3-.9-5.9 0-2.9 1-5.8 1-3 2.9-6zm6 2h2.9l4.2 7.4 4.4-7.4h2.8l-5.8 9.2 6.2 10.3h-2.8l-4.8-8.4-5.1 8.4h-2.9l6.6-10.3zm19.5-2h2q2 3 3 6t1 5.8q0 3-1 5.9-1 3-3 6h-2q1.7-3 2.6-6 .8-3 .8-5.9 0-3-.8-6-.9-2.9-2.6-5.8zm42.5 9-11 4.1 11 4.2v2.4l-13.8-5.5v-2.2l13.8-5.4zm26-.6q.4-1 1.1-1.4.7-.4 1.7-.4 1.7 0 2.4 1.3.8 1.4.8 5.1v8.5H265v-8.4q0-3-.4-3.8-.3-.7-1.2-.7-1 0-1.5.8-.3.8-.3 3.7v8.4h-2.2v-8.4q0-3-.4-3.8-.4-.7-1.3-.7-1 0-1.4.8-.3.8-.3 3.7v8.4h-2.2v-14.6h2.2v1.3q.4-.8 1-1.2.7-.4 1.5-.4 1 0 1.7.4.6.5 1 1.4zm16.4 5.8h-.8q-2.1 0-3.2.7-1 .7-1 2.2 0 1.3.8 2 .8.8 2.2.8 2 0 3-1.4 1.2-1.4 1.2-3.8v-.5zm4.6-1v8.3H280v-2.2q-.8 1.3-2 2-1 .6-2.7.6-2.3 0-3.6-1.3-1.3-1.2-1.3-3.4 0-2.4 1.6-3.7 1.6-1.2 4.8-1.2h3.2v-.4q0-1.7-.9-2.5-.8-.8-2.8-.8-1.2 0-2.4.3-1.3.4-2.5 1V138l2.6-.8 2.3-.2q1.9 0 3.1.5 1.3.5 2.1 1.6.5.6.7 1.6.2 1 .2 2.9zm16.8-6.3-5.2 7 5.8 7.6h-2.8l-4.3-5.9-4.2 5.9h-2.8l5.7-7.6-5.2-7h2.6l4 5.3 3.8-5.3zm3.3-4.9h2.7v8.7l8.2-8.7h3l-7.5 8 7.8 11.5h-3.2l-6.3-9.8-2 2.2v7.6h-2.7zm28.9 11v1.2h-10.4q-.1 3 1.1 4.3 1.3 1.3 3.6 1.3 1.1 0 2.4-.3l2.6-1.1v2.3q-1.3.6-2.6.9-1.3.3-2.5.3-3.4 0-5.3-2-1.9-2.1-1.9-5.7 0-3.5 1.9-5.6 1.9-2 5-2 2.8 0 4.4 1.8 1.6 2 1.7 4.6zm-2.4-.7q-.2-1.5-1.1-2.6-1-1.1-2.7-1.1-1.8 0-2.9 1.1-1.1 1.2-1.2 2.6zm15.1 4.5-1.6 4-1.7 4.2q-.6 1-1.5 1.5-1 .5-2.1.5h-2v-2h1.5q1 0 1.6-.6.6-.6 1.5-3.1l-5.6-14.4h2.5l4.4 11.4 4.2-11.4h2.6z" style="font-size:26.6667px;font-family:Menlo;-inkscape-font-specification:'Menlo, Normal'" aria-label="20 ≤ hash(X) &lt; maxKey" transform="translate(824.2 367.4)"/></g></g></svg>