<svg xmlns="http://www.w3.org/2000/svg" width="720" height="120" fill="none"><path fill="#fff" d="M0 0h720v120H0z"/><path fill="#06345E" d="M11.6 16.3V9.7h1.8v.3l-.2.4v14.2l.1 1h-1.7V24q-.6 1-1.5 1.5-1 .5-1.9.5a3.75 3.75 0 0 1-1.7-.4q-.8-.3-1.4-1a7.8 7.8 0 0 1-1-1.8q-.3-1.1-.3-2.6t.4-2.6q.4-1 1-1.8.7-.7 1.5-1t1.7-.3q1.1 0 2 .5.8.5 1.2 1.4zm-5.1.3q-1 1-1 3.2 0 2 .7 3.3.8 1.3 2.4 1.3l.7-.1.8-.4.7-.7.4-.8q.3-.8.3-2.3l-.1-1.5q0-.6-.3-1l-.3-.8-.6-.5-.9-.3q-.3-.2-.7-.2-.7 0-1.2.2l-1 .6zm9.6-6.9h2l-.1.3-.1.2v6.2q.5-1 1.4-1.4 1-.6 1.8-.6 1 0 1.8.4.8.3 1.4 1t1 1.8q.4 1 .4 2.5t-.4 2.6a7.8 7.8 0 0 1-1 1.8q-.7.7-1.5 1-.9.4-1.7.4-1 0-1.9-.4-.8-.5-1.4-1.3l-.6 1.5h-1v-16zm3 14.3.8.3h1.7q.7-.3 1.1-.7.5-.5.8-1.3.4-.7.4-1.9 0-2.2-.9-3.3-.9-1.2-2.6-1.2-.6 0-1.2.4-.7.5-1 1.2t-.3 2.3v1.8q0 .6.2 1.1l.4.8q.2.3.6.5m14.3-.4q.4.4.4 1 0 .5-.4 1-.4.3-1 .3t-1-.4-.4-1q0-.5.4-1 .5-.3 1-.3.6 0 1 .4"/><path fill="#2A86C0" d="M40.2 14.7h1.7v6.1q0 1 .2 1.8.2.7.6 1.1.3.4.7.6l1 .2q.6 0 1.1-.3a2.5 2.5 0 0 0 1-.6q.4-.5.6-1.2.3-.7.3-1.7v-6H49v10l.2 1h-1.9V24q-.5.9-1.4 1.4-1 .5-2 .5-.8 0-1.5-.3a3.2 3.2 0 0 1-1.2-.9q-.6-.6-.9-1.6-.2-1-.2-2.3v-6.1zM61 16.2l-1 1.5v-.2l-.1-.3q-.4-.5-1.2-1a3.33 3.33 0 0 0-1.8-.5l-1 .2q-.3 0-.7.3-.3.1-.5.5-.2.2-.2.6l.2.6.4.4.9.4 1.5.5q2 .6 2.9 1.3.9.8.9 1.9 0 .7-.4 1.3-.3.7-.9 1.2l-1.4.7q-.9.3-2 .3-2.7 0-4.5-1.7l1-1.8v.3l.2.3.5.5 1.2.6.8.3h1.9l.9-.4q.4-.2.6-.6.3-.3.3-.7 0-.6-.6-1-.6-.5-2.1-1l-1.4-.4-1.3-.5-.6-.6-.6-.8-.1-1q0-.6.3-1.1.3-.6.8-1 .6-.4 1.4-.6.8-.3 1.7-.3 2.5 0 4 1.8m8-1.8q.8 0 1.6.3t1.4 1q.6.6 1 1.6t.4 2.3v.8h-7.9q0 1.2.4 2l.9 1.2q.5.5 1.2.7.6.2 1.3.2 1.7 0 2.8-1.2l1 1q-1.4 1.6-3.9 1.6-1.2 0-2.2-.4a4 4 0 0 1-1.7-1 4.8 4.8 0 0 1-1-1.8q-.4-1.1-.4-2.5t.4-2.5q.4-1 1-1.8.7-.7 1.6-1 1-.5 2-.5zm-3.4 4.7h6v-.4q0-.6-.2-1.1a2.5 2.5 0 0 0-.6-1 2.5 2.5 0 0 0-1-.6q-.4-.3-1-.3-1.1 0-2 .9-1 .8-1.2 2.5M77 14.7h2v2.1q.4-1.2 1.5-1.8a4.9 4.9 0 0 1 2.4-.6q1.7 0 2.9 1.2l-.8 1.7-.5-.6a.96.96 0 0 0-.5-.4l-.5-.3h-.7q-.8 0-1.5.3-.7.4-1.3 1-.5.6-.8 1.4a4.5 4.5 0 0 0-.3 1.6v5.4h-1.7v-11zm20 1.5-1 1.5v-.2l-.1-.3q-.4-.5-1.2-1a3.33 3.33 0 0 0-1.8-.5l-1 .2q-.3 0-.7.3-.3.1-.5.5-.2.2-.2.6l.2.6.4.4.9.4 1.5.5q2 .6 2.9 1.3.9.8.9 1.9 0 .7-.4 1.3-.3.7-.9 1.2l-1.4.7q-.9.3-2 .3-2.7 0-4.5-1.7l1-1.8v.3l.2.3.5.5 1.2.6.8.3h1.9l.9-.4q.4-.2.6-.6.3-.3.3-.7 0-.6-.6-1-.6-.5-2.1-1l-1.4-.4-1.3-.5-.6-.6-.6-.8-.1-1q0-.6.3-1.1.3-.6.8-1 .6-.4 1.4-.6.8-.3 1.7-.3 2.5 0 4 1.8"/><path fill="#06345E" d="M105.4 23.6q.4.4.4 1 0 .5-.4 1-.4.3-1 .3t-1-.4-.4-1q0-.5.4-1 .5-.3 1-.3.6 0 1 .4m13.6-14q2 0 3.3 1.5l-.8 1.5-.2-.1v-.3q-.4-.6-1-1a3.5 3.5 0 0 0-1.4-.3q-.7 0-1.1.2-.5.2-.8.6-.4.4-.6 1a7.5 7.5 0 0 0-.2 1.8v.8h3.6v1.4h-3.6v9h-1.6v-9h-2.4v-1.4h2.4v-1q0-1.3.3-2.2.3-1 1-1.5.6-.5 1.3-.8.8-.2 1.7-.2zm6.2 5.1h4.4v9.6h2.6v1.4h-7.1v-1.4h2.8V16h-2.7v-1.4zm2.7-4.4q.4-.4.9-.4t.9.4q.3.4.3.9t-.3.8q-.4.4-1 .4-.4 0-.8-.4-.3-.3-.3-.8 0-.6.3-1zm8.4 15.4v-11h1.8v2q.6-1 1.6-1.7 1-.6 2-.6.7 0 1.3.3.6.2 1.1.8.5.5.7 1.4.3.9.3 2.1v6.7h-1.7V19q0-1.8-.6-2.5t-1.5-.7q-.5 0-1 .3-.7.2-1.1.7-.5.4-.8 1-.3.7-.3 1.4v6.4h-1.8zm19.3-9.4V9.7h1.8v.3l-.2.4v14.2l.1 1h-1.7V24q-.6 1-1.5 1.5-1 .5-1.9.5a3.75 3.75 0 0 1-1.7-.4q-.8-.3-1.4-1a7.8 7.8 0 0 1-1-1.8q-.3-1.1-.3-2.6t.4-2.6q.4-1 1-1.8.7-.7 1.5-1a4.8 4.8 0 0 1 1.7-.3q1.1 0 2 .5.8.5 1.2 1.4zm-5.1.3q-1 1-1 3.2 0 2 .7 3.3.8 1.3 2.4 1.3l.7-.1.8-.4.7-.7.4-.8q.3-.8.3-2.3l-.1-1.5q0-.6-.3-1l-.3-.8-.6-.5-.9-.3q-.3-.2-.7-.2-.7 0-1.2.2l-1 .6zm18.1-5.4h-.5q-2 1.3-3.2 3.4-1.2 2.2-1.2 5 0 1.3.3 2.6.4 1.3 1 2.5a12.4 12.4 0 0 0 1.7 2.1 10.8 10.8 0 0 0 2.2 1.7l-.8 1.3a9.6 9.6 0 0 1-2.5-1.8 10.3 10.3 0 0 1-2-2.5q-.7-1.3-1.2-2.8a13.1 13.1 0 0 1-.4-3.2q0-1.7.4-3.2.5-1.5 1.3-2.7a10.6 10.6 0 0 1 1.9-2.3q1-1 2.5-1.6l.7 1.4h-.2z"/><path fill="#2A86C0" d="m42.5 51.3.1-2.4q0-1.6-.6-2.2-.5-.5-1.6-.5H40v-1.4h.4q1.1 0 1.7-.6t.6-2l-.1-1.7q0-4.1 4.4-4.1h1.5v1.3h-2q-2.2 0-2.2 2.6V42q0 2.6-2 3.5 2 .7 2 3.7v2q0 1.7.6 2.3.7.6 2.3.6h1.3v1.4h-1l-2-.1q-1-.1-1.6-.6-1.4-1.1-1.4-3.5M64.9 42q1.4-1.6 3.9-1.6 2 0 3.2 1 1.1 1 1.1 3.5v6.8h-1.6v-1.2q-1.8 1.4-4 1.4a5.4 5.4 0 0 1-1.5-.2q-.7-.3-1.1-.7l-.8-1-.2-1.1q0-1.7 1.4-2.6 1.4-1 4.1-1.1h2v-.4q0-1.6-.6-2.3-.7-.6-2.1-.6-1.8 0-3 1.2L65 42zm6.6 4.5H70q-1.3 0-2.1.2-.9.2-1.4.5-.4.3-.6.7l-.2.8q0 .8.7 1.3.6.6 1.6.6.7 0 1.3-.2l1-.6.7-.6.4-.7q.2-.4.2-1.3v-.7zm6.9-4.1-.5.8q-.2.4-.2 1l.2.9.5.7.8.5q.4.2 1 .2l.9-.2.7-.5q.4-.3.5-.8.2-.4.2-.9t-.2-.9q-.1-.4-.5-.8L81 42a2 2 0 0 0-.9-.2q-1 0-1.7.7zm4.4-1q1.2-1 2.8-1h.3l.2 1.4h-.7q-1 0-1.9.5.6.8.6 1.8 0 .8-.3 1.5t-.9 1.2q-.5.5-1.2.8t-1.6.3q-.6 0-1.4-.3-.7.8-.7 1.3 0 .4.4.6.5.3 1.3.3h1l.8-.1q1.1 0 1.9.2t1.3.6q.4.3.7.8.2.5.2 1.1 0 .7-.3 1.3t-1 1q-.6.5-1.5.8-1 .3-2.2.3-1.3 0-2.3-.2t-1.5-.6q-.6-.3-1-.8l-.2-1q0-1.3 1.8-2.4-.9-.5-.9-1.5t1.3-2.1a3.2 3.2 0 0 1-1.2-1.3q-.5-.8-.5-1.7 0-.8.4-1.5.3-.7.9-1.2.5-.6 1.3-.9.7-.3 1.5-.3 1.6 0 2.6 1zM78.6 51q-1.4.7-1.4 1.7 0 .4.3.8.2.3.7.5l1.1.3h1.3q1.5 0 2.5-.4 1-.6 1-1.5a1.58 1.58 0 0 0-.6-1q-.5-.3-1.6-.3h-2.1zM93 40.4q.8 0 1.6.3t1.4 1q.6.6 1 1.6t.4 2.3v.8h-7.9q0 1.2.4 2l.9 1.2q.5.5 1.2.7.6.2 1.3.2 1.7 0 2.8-1.2l1 1q-1.4 1.6-3.9 1.6-1.2 0-2.2-.4a4 4 0 0 1-1.7-1 4.8 4.8 0 0 1-1-1.8q-.4-1.1-.4-2.5t.4-2.5q.4-1 1-1.8.7-.7 1.6-1 1-.5 2-.5zm-3.4 4.7h6v-.4q0-.6-.2-1.1a2.5 2.5 0 0 0-.6-1 2.5 2.5 0 0 0-1-.6q-.4-.3-1-.3-1.1 0-2 .9-1 .8-1.2 2.5m15.8-3.1q.4.3.4.9 0 .5-.4 1-.4.4-1 .4-.5 0-1-.4-.4-.5-.4-1 0-.6.4-1 .5-.4 1-.4.6 0 1 .4zm0 7.6q.4.4.4 1 0 .5-.4 1-.4.3-1 .3t-1-.4-.4-1q0-.5.4-1 .5-.3 1-.3.6 0 1 .4m21.1 1.7.1-2.4q0-1.6-.6-2.2-.5-.5-1.6-.5h-.4v-1.4h.4q1.1 0 1.7-.6t.6-2l-.1-1.7q0-4.1 4.4-4.1h1.5v1.3h-2q-2.2 0-2.2 2.6V42q0 2.6-2 3.5 2 .7 2 3.7v2q0 1.7.6 2.3.7.6 2.3.6h1.3v1.4h-.9l-2-.1q-1-.1-1.7-.6-1.4-1.1-1.4-3.5M152.3 36h1.6v.3q-.2 0-.2.2v1q2.3.2 3.6 1.8l-1 1.3q-.2 0-.2-.2l-.1-.3q-.8-1-2.3-1.2v4.6l1.8.7q.8.4 1.2.8.6.4.8 1t.2 1.3-.3 1.4q-.2.6-.7 1.2l-1.3.9q-.7.4-1.7.5v1.5h-1.4v-1.5q-2.6-.2-4.2-1.9l1-1.4q.2 0 .2.2v.3q1.2 1.3 3 1.4v-5.3q-1.8-.6-2.8-1.4-1-1-1-2.2 0-.7.4-1.3.2-.6.7-1 .5-.5 1.2-.8t1.5-.4zm1.4 9.1v4.8q1.2-.2 1.8-1 .7-.7.7-1.5 0-.9-.6-1.4t-1.9-.9m-1.4-2.1v-4.2q-1 .2-1.6.7-.5.6-.5 1.3 0 1.3 2.1 2.2m10.1-.6-.5.8q-.2.4-.2 1l.2.9.5.7.8.5q.4.2 1 .2l.9-.2.7-.5q.4-.3.5-.8.2-.4.2-.9a2 2 0 0 0-.2-.9q-.1-.4-.5-.8l-.8-.5a2 2 0 0 0-.9-.2q-1 0-1.7.7m4.4-1q1.2-1 2.8-1h.3l.2 1.4h-.7q-1 0-1.9.5.6.8.6 1.8 0 .8-.3 1.5t-.9 1.2q-.5.5-1.2.8t-1.6.3q-.6 0-1.4-.3-.7.8-.7 1.3 0 .4.4.6.5.3 1.3.3h1l.8-.1q1.1 0 1.9.2t1.3.6q.4.3.7.8.2.5.2 1.1 0 .7-.3 1.3t-1 1q-.6.5-1.5.8-1 .3-2.2.3-1.3 0-2.3-.2t-1.5-.6q-.6-.3-1-.8l-.2-1q0-1.3 1.8-2.4-.9-.5-.9-1.5t1.3-2.1a3.2 3.2 0 0 1-1.2-1.3q-.5-.8-.5-1.7 0-.8.4-1.5.3-.7.9-1.2.5-.6 1.3-.9.7-.3 1.5-.3 1.6 0 2.6 1zm-4.2 9.7q-1.4.7-1.4 1.7 0 .4.3.8.2.3.7.5l1.1.3h1.3q1.5 0 2.5-.4 1-.6 1-1.5a1.58 1.58 0 0 0-.6-1q-.5-.3-1.6-.3h-2.1zm12.6-13.3 1.9-.4v.4l-.1.3-.3 2.6h3.6V42h-3.6l-.2 4v2q0 .7.2 1.2l.6.7q.4.3 1 .3 1.2 0 2.5-1l.5 1.3Q179.7 52 178 52t-2.5-1q-.8-1.1-.7-3.5v-2.2l.2-3.1h-2.5v-1.4h2.6l.2-3zm14.2 4.2q.4.3.4.9 0 .5-.4 1-.4.4-1 .4-.5 0-1-.4-.4-.5-.4-1 0-.6.4-1 .5-.4 1-.4.6 0 1 .4zm0 7.6q.4.4.4 1 0 .5-.4 1-.4.3-1 .3t-1-.4-.4-1q0-.5.4-1 .5-.3 1-.3.6 0 1 .4m24.5-12.9v15h-1.7v-13l-3 1-.4-1 4-2h1.1m14.9 3.3q0 1.1-.7 2.1-.6 1-1.7 1.6 1.3.6 2 1.7.9 1.1.9 2.4 0 .9-.4 1.6a2.75 2.75 0 0 1-1 1.3q-.6.6-1.4.9t-1.8.3-1.8-.3-1.5-.9a4.4 4.4 0 0 1-1-1.2 4.5 4.5 0 0 1-.3-1.6q0-1.3.8-2.4.9-1.2 2.2-1.8a3.84 3.84 0 0 1-1.6-1.5q-.6-1-.6-2 0-.8.3-1.4.3-.7.8-1.2.6-.5 1.3-.8t1.6-.3q.8 0 1.5.3t1.2.8q.6.4.9 1.1.3.6.3 1.4zm-4.4 4.4a3.7 3.7 0 0 0-1.8 1.4q-.7.8-.7 2l.2 1 .6.8q.4.4 1 .6.4.2 1 .2t1.1-.2q.6-.2 1-.6l.6-.8.2-1q0-1.1-.9-2-.9-1-2.3-1.4m-1.5-3 .7.8 1 .6.5.3q.9-.5 1.5-1.3.5-.8.5-1.7l-.2-.8q-.1-.4-.5-.7l-.7-.5q-.4-.2-1-.2l-.9.2-.7.5-.5.6-.1.8q0 .8.4 1.4m27.9-.9v1.8q0 1.3.5 2 .6.5 1.7.5h.4v1.4h-.5q-1 0-1.5.5-.6.6-.6 2.2v2.4q0 2.1-.9 3.1-1 1-3 1h-2v-1.3h2.7l.3-.2q.2 0 .3-.2 1-.7 1-2.5v-2q0-3 2-3.7-2.1-.9-2.1-3.5v-1.7q0-1.4-.6-2t-1.8-.6h-1.8v-1.3h2.5q.9 0 1.7.5.7.5 1.2 1.3.5.9.5 2.3m24 0v1.8q0 1.3.5 2 .6.5 1.7.5h.4v1.4h-.5q-1 0-1.5.5-.6.6-.6 2.2v2.4q0 2.1-.9 3.1-1 1-3 1h-2v-1.3h2.7l.3-.2q.2 0 .3-.2 1-.7 1-2.5v-2q0-3 2-3.7-2.1-.9-2.1-3.5v-1.7q0-1.4-.6-2t-1.8-.6h-1.8v-1.3h2.5q.9 0 1.7.5.7.5 1.2 1.3.5.9.5 2.3M286 51.2q0 1.9-2.5 4.5l-.8-.7 1-1.4q.5-.7.5-1.2l-.2-.4-.4-.4-.4-.4-.2-.6q0-.6.4-1t1-.4 1.1.5q.5.6.5 1.5"/><path fill="#3B91C6" d="m42.5 77.3.1-2.4q0-1.6-.6-2.2-.5-.5-1.6-.5H40v-1.4h.4q1.1 0 1.7-.6t.6-2l-.1-1.7q0-4.1 4.4-4.1h1.5v1.3h-2q-2.2 0-2.2 2.6V68q0 2.6-2 3.5 2 .7 2 3.7v2q0 1.7.6 2.3.7.6 2.3.6h1.3v1.4h-1l-2-.1q-1-.1-1.6-.6-1.4-1.1-1.4-3.5"/><path fill="#2A86C0" d="M64.3 77.7v-11h1.8v2q.6-1 1.6-1.7 1-.6 2-.6.7 0 1.3.3.6.2 1.1.8.5.5.7 1.4.3.9.3 2.1v6.7h-1.7V71q0-1.8-.6-2.5t-1.5-.7q-.5 0-1 .3-.7.2-1.1.7-.5.4-.8 1-.3.7-.3 1.4v6.4h-1.8zM76.9 68q1.4-1.6 3.9-1.6 2 0 3.2 1 1.1 1 1.1 3.5v6.8h-1.6v-1.2q-1.8 1.4-4 1.4a5.4 5.4 0 0 1-1.5-.2q-.7-.3-1.1-.7l-.8-1-.2-1.1q0-1.7 1.4-2.6 1.4-1 4.1-1.1h2v-.4q0-1.6-.6-2.3-.7-.6-2.1-.6-1.8 0-3 1.2L77 68zm6.6 4.5H82q-1.3 0-2.1.2-.9.2-1.4.5-.4.3-.6.7l-.2.8q0 .8.7 1.3.6.6 1.6.6.7 0 1.3-.2l1-.6.7-.6.4-.7q.2-.4.2-1.3v-.7zm4.1 5.2v-11h1.6v1a4.4 4.4 0 0 1 1-.9q.6-.4 1.2-.4.7 0 1.3.5.5.4.7 1.1.3-.7 1-1.1.6-.5 1.4-.5 1.1 0 1.7.8.5.8.4 2v8.5h-1.5v-7.8l-.1-1.2q0-.4-.2-.6-.2-.3-.4-.3l-.4-.1q-.3 0-.6.3a1.3 1.3 0 0 0-.6.6l-.4.9-.1 1v7.2H92V70q0-1.3-.3-1.8-.2-.5-.9-.5-.5 0-1 .7-.6.7-.6 2v7.3zM105 66.4q.8 0 1.6.3t1.4 1q.6.6 1 1.6t.4 2.3v.8h-7.9q0 1.2.4 2l.9 1.2q.5.5 1.2.7.6.2 1.3.2 1.7 0 2.8-1.2l1 1q-1.4 1.6-3.9 1.6-1.2 0-2.2-.4a4 4 0 0 1-1.7-1 4.8 4.8 0 0 1-1-1.8q-.4-1.1-.4-2.5t.4-2.5q.4-1 1-1.8.7-.7 1.6-1 1-.5 2-.5zm-3.4 4.7h6v-.4q0-.6-.2-1.1a2.5 2.5 0 0 0-.6-1 2.5 2.5 0 0 0-1-.6q-.4-.3-1-.3-1.1 0-2 .9-1 .8-1.2 2.5m15.8-3.1q.4.3.4.9 0 .5-.4 1-.4.4-1 .4-.5 0-1-.4-.4-.5-.4-1 0-.6.4-1 .5-.4 1-.4.6 0 1 .4zm0 7.6q.4.4.4 1 0 .5-.4 1-.4.3-1 .3t-1-.4-.4-1q0-.5.4-1 .5-.3 1-.3.6 0 1 .4m24.5-12.9v15h-1.7v-13l-3 1-.4-1 4-2h1.1M154 77.2q0 1.9-2.5 4.5l-.8-.7 1-1.4q.5-.7.5-1.2l-.2-.4-.4-.4-.4-.4-.2-.6q0-.6.4-1t1-.4 1.1.5q.5.6.5 1.5m18.9-9.2q1.4-1.6 3.9-1.6 2 0 3.2 1 1.1 1 1.1 3.5v6.8h-1.6v-1.2q-1.8 1.4-4 1.4a5.4 5.4 0 0 1-1.5-.2q-.7-.3-1.1-.7l-.8-1-.2-1.1q0-1.7 1.4-2.6 1.4-1 4.1-1.1h2v-.4q0-1.6-.6-2.3-.7-.6-2.1-.6-1.8 0-3 1.2L173 68zm6.6 4.5H178q-1.3 0-2.1.2-.9.2-1.4.5-.4.3-.6.7l-.2.8q0 .8.7 1.3.6.6 1.6.6.7 0 1.3-.2l1-.6.7-.6.4-.7q.2-.4.2-1.3v-.7zm12.1-4.2v-6.6h1.8v.3l-.2.4v14.2l.1 1h-1.7V76q-.6 1-1.5 1.5-1 .5-1.9.5a3.75 3.75 0 0 1-1.7-.4q-.8-.3-1.4-1a7.8 7.8 0 0 1-1-1.8q-.3-1.1-.3-2.6t.4-2.6q.4-1 1-1.8.7-.7 1.5-1a4.8 4.8 0 0 1 1.7-.3q1.1 0 2 .5.8.5 1.2 1.4zm-5.1.3q-1 1-1 3.2 0 2 .7 3.3.8 1.3 2.4 1.3l.7-.1.8-.4.7-.7.4-.8q.3-.8.3-2.3l-.1-1.5q0-.6-.3-1l-.3-.8-.6-.5-.9-.3q-.3-.2-.7-.2-.7 0-1.2.2l-1 .6zm17.1-.3v-6.6h1.8v.3l-.2.4v14.2l.1 1h-1.7V76q-.6 1-1.5 1.5-1 .5-1.9.5a3.75 3.75 0 0 1-1.7-.4q-.8-.3-1.4-1a7.8 7.8 0 0 1-1-1.8q-.3-1.1-.3-2.6t.4-2.6q.4-1 1-1.8.7-.7 1.5-1a4.8 4.8 0 0 1 1.7-.3q1.1 0 2 .5.8.5 1.2 1.4zm-5.1.3q-1 1-1 3.2 0 2 .7 3.3.8 1.3 2.4 1.3l.7-.1.8-.4.7-.7.4-.8q.3-.8.3-2.3l-.1-1.5q0-.6-.3-1l-.3-.8-.6-.5-.9-.3q-.3-.2-.7-.2-.7 0-1.2.2l-1 .6zm10.5-1.9h1.9v2.1q.4-1.2 1.5-1.8a4.9 4.9 0 0 1 2.4-.6q1.7 0 2.9 1.2l-.8 1.7-.5-.6a.96.96 0 0 0-.5-.4l-.5-.3h-.7q-.8 0-1.5.3-.7.4-1.3 1-.5.6-.8 1.4a4.5 4.5 0 0 0-.3 1.6v5.4h-1.7v-11zm16-.3q.8 0 1.6.3t1.4 1q.6.6 1 1.6t.4 2.3v.8h-7.9q0 1.2.4 2l.9 1.2q.5.5 1.2.7.6.2 1.3.2 1.7 0 2.8-1.2l1 1q-1.4 1.6-3.9 1.6-1.2 0-2.2-.4a4 4 0 0 1-1.7-1 4.8 4.8 0 0 1-1-1.8q-.4-1.1-.4-2.5t.4-2.5q.4-1 1-1.8.7-.7 1.6-1 1-.5 2-.5zm-3.4 4.7h6v-.4q0-.6-.2-1.1a2.5 2.5 0 0 0-.6-1 2.5 2.5 0 0 0-1-.6q-.4-.3-1-.3-1.1 0-2 .9-1 .8-1.2 2.5m19.4-2.9-1 1.5v-.2l-.1-.3q-.4-.5-1.2-1a3.33 3.33 0 0 0-1.8-.5l-1 .2q-.3 0-.7.3-.3.1-.5.5-.2.2-.2.6l.2.6.4.4.9.4 1.5.5q2 .6 2.9 1.3.9.8.9 1.9 0 .7-.4 1.3-.3.7-.9 1.2l-1.4.7q-.9.3-2 .3-2.7 0-4.5-1.7l1-1.8v.3l.2.3.5.5 1.2.6.8.3h1.9l.9-.4q.4-.2.6-.6.3-.3.3-.7 0-.6-.6-1-.6-.5-2.1-1l-1.4-.4-1.3-.5-.6-.6-.6-.8-.1-1q0-.6.3-1.1.3-.6.8-1 .6-.4 1.4-.6a4.8 4.8 0 0 1 1.7-.3q2.5 0 4 1.8m12 0-1 1.5v-.2l-.1-.3q-.4-.5-1.2-1a3.33 3.33 0 0 0-1.8-.5l-1 .2q-.3 0-.7.3-.3.1-.5.5-.2.2-.2.6l.2.6.4.4.9.4 1.5.5q2 .6 2.9 1.3.9.8.9 1.9 0 .7-.4 1.3-.3.7-.9 1.2l-1.4.7q-.9.3-2 .3-2.7 0-4.5-1.7l1-1.8v.3l.2.3.5.5 1.2.6.8.3h1.9l.9-.4q.4-.2.6-.6.3-.3.3-.7 0-.6-.6-1-.6-.5-2.1-1l-1.4-.4-1.3-.5-.6-.6-.6-.8-.1-1q0-.6.3-1.1.3-.6.8-1 .6-.4 1.4-.6a4.8 4.8 0 0 1 1.7-.3q2.5 0 4 1.8m8.4-.2q.4.3.4.9 0 .5-.4 1-.4.4-1 .4-.5 0-1-.4-.4-.5-.4-1 0-.6.4-1 .5-.4 1-.4.6 0 1 .4zm0 7.6q.4.4.4 1 0 .5-.4 1-.4.3-1 .3t-1-.4-.4-1q0-.5.4-1 .5-.3 1-.3.6 0 1 .4m24.5-12.9v15h-1.7v-13l-3 1-.4-1 4-2h1.1m24.9 3.8v1.8q0 1.3.5 2 .6.5 1.7.5h.4v1.4h-.5q-1 0-1.5.5-.6.6-.6 2.2v2.4q0 2.1-.9 3.1-1 1-3 1h-2v-1.3h2.7l.3-.2q.2 0 .3-.2 1-.7 1-2.5v-2q0-3 2-3.7-2.1-.9-2.1-3.5v-1.7q0-1.4-.6-2t-1.8-.6h-1.8v-1.3h2.5q.9 0 1.7.5.7.5 1.2 1.3.5.9.5 2.3"/><path fill="#053056" d="m4.6 89.2.4-1.5q1.5.7 2.7 1.7a8.7 8.7 0 0 1 2 2.4q.8 1.3 1.3 2.8.4 1.5.4 3 0 1.7-.5 3.2-.4 1.5-1.3 2.9-.8 1.3-2 2.4-1.2 1-2.7 1.7l-.5-1.4q1.2-.7 2.2-1.6a9.7 9.7 0 0 0 1.7-2q.7-1.2 1-2.5.4-1.2.4-2.6a8.8 8.8 0 0 0-.4-2.6 7.6 7.6 0 0 0-1-2.4l-1.6-2q-1-.9-2.1-1.5m16.8 12.4q.4.4.4 1 0 .5-.4 1-.4.3-1 .3t-1-.4-.4-1q0-.5.4-1 .5-.3 1-.3.6 0 1 .4m7.3-13.9h4.9v14.6h3.2v1.4h-8.2v-1.4h3.2V89h-3v-1.4zm12.5 5h4.4v9.6h2.6v1.4H41v-1.4h2.8V94h-2.7v-1.4zm2.7-4.4q.4-.4.9-.4t.9.4q.3.4.3.9t-.3.8q-.4.4-1 .4-.4 0-.8-.4-.3-.3-.3-.8 0-.6.3-1zm7.7 15.4v-11h1.6v1q.4-.5 1-.9t1.2-.4q.7 0 1.3.5.5.4.7 1.1.3-.7 1-1.1.6-.5 1.4-.5 1.1 0 1.7.8.5.8.4 2v8.5h-1.5v-7.8l-.1-1.2q0-.4-.2-.6-.2-.3-.4-.3l-.4-.1q-.3 0-.6.3a1.3 1.3 0 0 0-.6.6l-.4.9-.1 1v7.2H56V96q0-1.3-.3-1.8-.2-.5-.9-.5-.5 0-1 .7-.6.7-.6 2v7.3zm13.6-11h4.4v9.6h2.6v1.4H65v-1.4h2.8V94h-2.7v-1.4zm2.7-4.4q.4-.4.9-.4t.9.4q.3.4.3.9t-.3.8q-.4.4-1 .4-.4 0-.8-.4-.3-.3-.3-.8 0-.6.3-1zm11.3 1.5 1.9-.4v.4l-.1.3-.3 2.6h3.6V94h-3.6l-.2 4v2q0 .7.2 1.2l.6.7q.4.3 1 .3 1.2 0 2.5-1l.5 1.3Q83.7 104 82 104t-2.5-1q-.8-1.1-.7-3.5v-2.2l.2-3.1h-2.5v-1.4H79zm17.4-.6h-.5a9.8 9.8 0 0 0-3.2 3.4q-1.2 2.2-1.2 5 0 1.3.3 2.6.4 1.3 1 2.5a12.4 12.4 0 0 0 1.7 2.1q1 1 2.2 1.7l-.8 1.3a9.6 9.6 0 0 1-2.5-1.8 10.3 10.3 0 0 1-2-2.5q-.7-1.3-1.2-2.8a13.2 13.2 0 0 1-.4-3.2q0-1.7.4-3.2.5-1.5 1.3-2.7a10.6 10.6 0 0 1 1.9-2.3q1-1 2.5-1.6l.7 1.4h-.2z"/><path fill="#2A86C0" d="M101.2 88.7h7.6v1.5h-6.1l-.3 4.3q1.2-.6 2.5-.6 1 0 1.7.4.9.3 1.5 1t1 1.6q.3.9.3 2 0 1.2-.4 2.1-.3 1-1 1.6-.6.6-1.5 1-.8.3-1.8.3-1.4 0-2.6-.6-1.1-.6-1.9-1.7l1.5-1 .1.2v.3l.4.4.6.4.9.4 1 .2q.6 0 1.2-.3.5-.2.9-.7t.6-1.1q.3-.7.3-1.5 0-.9-.3-1.5-.2-.7-.6-1.1-.5-.5-1-.7-.6-.3-1.2-.3-.8 0-1.5.4-.8.4-1.3 1l-1-.4z"/><path fill="#053056" d="m112.6 89.2.4-1.5q1.5.7 2.7 1.7a8.7 8.7 0 0 1 2 2.4q.8 1.3 1.3 2.8.4 1.5.4 3 0 1.7-.5 3.2-.4 1.5-1.3 2.9-.8 1.3-2 2.4-1.2 1-2.7 1.7l-.5-1.4q1.2-.7 2.2-1.6a9.7 9.7 0 0 0 1.7-2q.7-1.2 1-2.5.4-1.2.4-2.6a8.8 8.8 0 0 0-.4-2.6 7.6 7.6 0 0 0-1-2.4l-1.6-2q-1-.9-2.1-1.5"/><path stroke="#5CA831" stroke-width="2" d="m482.5 20.5-43-.2"/><path fill="#5CA831" d="m439.5 16.7-9.6 3.6 9.6 3.6z"/><path stroke="#5CA831" stroke-width="2" d="m439.5 16.7-9.6 3.6 9.6 3.6z"/><path fill="#2A86C0" d="M506 23.1v2.1q-1.6.6-3.1.6-2.5 0-4-1.5t-1.5-4 1.4-4q1.5-1.6 3.9-1.6l1.5.1 1.6.6v2.3q-1.6-1-3-1t-2.4 1q-.9 1-.9 2.6t1 2.6 2.7 1q1.2 0 2.8-.8m7.6-8.2q2.5 0 4.1 1.5 1.6 1.6 1.6 4t-1.6 4q-1.7 1.4-4.2 1.4-2.4 0-4-1.5-1.7-1.6-1.7-4 0-2.3 1.7-3.9 1.6-1.5 4.1-1.5m-.1 1.9q-1.5 0-2.5 1t-1 2.5q0 1.6 1 2.6t2.6 1 2.6-1 1-2.6q0-1.5-1-2.5-1.1-1-2.7-1m8.2-7.5h2.2v16.4h-2.2zm5.3 0h2.2v16.4H527zm14.5 11.2h-7.6q0 1.5 1 2.4 1 1 2.5 1 2 0 3.9-1.4v2.1q-1 .7-2 1-1 .2-2.3.2-1.7 0-2.8-.7a6.5 6.5 0 0 1-1.8-2q-.7-1.3-.7-2.9 0-2.5 1.4-4t3.7-1.5q2.1 0 3.4 1.5t1.3 4zm-7.6-1.3h5.4q0-1.3-.7-2t-1.8-.7q-1.2 0-2 .7-.7.7-.9 2m17.9 3.9v2.1q-1.6.6-3.1.6-2.5 0-4-1.5t-1.5-4 1.4-4q1.5-1.6 3.9-1.6l1.5.1 1.6.6v2.3q-1.6-1-3-1t-2.4 1q-.9 1-.9 2.6t1 2.6 2.7 1q1.2 0 2.8-.8m.9-6.5 4-4V15h3.5v1.9h-3.5v5.3q0 1.8 1.6 1.8 1.1 0 2.4-.7v2q-1.2.6-2.7.6-1.4 0-2.4-.8l-.5-.6-.4-.8v-6.8h-2v-.3m10.7-6.3q.5 0 .9.4.3.4.3.9t-.3.9q-.4.4-1 .4-.4 0-.8-.4t-.4-1q0-.4.4-.8t.9-.4m-1 4.6h2v10.8h-2zm10.3 0q2.4 0 4 1.5 1.7 1.6 1.7 4t-1.7 4q-1.6 1.4-4.1 1.4-2.4 0-4-1.5-1.7-1.6-1.7-4 0-2.3 1.6-3.9 1.7-1.5 4.2-1.5m-.1 1.9q-1.6 0-2.6 1t-1 2.5q0 1.6 1 2.6t2.7 1q1.5 0 2.5-1t1-2.6q0-1.5-1-2.5t-2.6-1m10.3-1.9v1.3q1.4-1.5 3.2-1.5 1 0 1.9.5t1.3 1.4q.5 1 .5 2.9v6.2h-2.2v-6.2q0-1.6-.5-2.3-.5-.8-1.7-.8-1.5 0-2.5 1.6v7.7h-2.2V14.9z"/><path stroke="#5CA831" stroke-width="2" d="m482.5 45.5-43-.2"/><path fill="#5CA831" d="m439.5 41.7-9.6 3.6 9.6 3.6z"/><path stroke="#5CA831" stroke-width="2" d="m439.5 41.7-9.6 3.6 9.6 3.6z"/><path fill="#2A86C0" d="M503 41.6h4V58h-2v-5.7q-1.5.4-2.4.4-2.3 0-3.8-1.5-1.5-1.6-1.5-4 0-2.5 1.5-4 1.6-1.5 4.2-1.5zm2 8.8v-6.8h-1.4q-1.4 0-1.9.2-.4 0-.8.3l-.6.5q-.9 1-.9 2.5 0 1.6 1 2.7 1 1 2.6 1h.6l1-.3h.2l.1-.1zm11.8 2V51q-.7.8-1.5 1.2-.9.4-1.8.4-1 0-1.9-.5a3.77 3.77 0 0 1-1.3-1.4q-.4-.9-.4-2.9v-6.2h2.1v6.2q0 1.7.5 2.4.5.6 1.7.6 1.6 0 2.6-1.5v-7.7h2.2v10.8zm14.3-5.2h-7.5q0 1.6 1 2.5t2.5.9q2 0 3.9-1.3v2q-1 .7-2 1t-2.3.3q-1.7 0-2.8-.8-1.1-.7-1.8-2-.7-1.2-.7-2.8 0-2.5 1.4-4 1.4-1.6 3.6-1.6T530 43q1.2 1.5 1.2 4v.3zm-7.5-1.3h5.4q0-1.2-.7-2-.7-.6-1.9-.6-1.1 0-1.8.7-.8.7-1 2zm12.1-4.3v2.5l.1-.2q1.6-2.5 3.1-2.5 1.2 0 2.6 1.2l-1.2 2q-1-1.1-2-1.1t-1.8 1a3.58 3.58 0 0 0-.8 2.3v5.6h-2.1V41.6zm14.6 0h2.4L545 58h-2.3l3.6-7.8-4.2-8.5h2.5l2.9 6.1 2.8-6zm18.6 8.3V52q-1.6.6-3.1.6-2.6 0-4-1.5-1.6-1.5-1.6-4 0-2.6 1.5-4.1 1.4-1.6 3.8-1.6.9 0 1.5.2.7.1 1.7.6v2.3q-1.7-1-3-1-1.5 0-2.4 1-1 1-1 2.5 0 1.7 1 2.6 1 1 2.8 1 1.2 0 2.8-.7m4.7-8.3v2.5l.1-.2q1.6-2.5 3.1-2.5 1.2 0 2.5 1.2l-1 2q-1.2-1.1-2.2-1.1t-1.7 1a3.58 3.58 0 0 0-.8 2.3v5.6h-2.1V41.6zm8.4-4.5q.5 0 .8.4.4.3.4.9a.95.95 0 0 1-.4.8q-.3.4-.9.4a.95.95 0 0 1-.8-.4.95.95 0 0 1-.4-.8q0-.5.4-1 .3-.3.8-.3zm-1.1 4.5h2.1v10.8h-2V41.6zm3.7 1.7 4-3.9v2.2h3.4v2h-3.4v5.2q0 1.9 1.5 1.9 1.2 0 2.4-.8v2q-1.2.7-2.6.7-1.5 0-2.5-.8l-.5-.6-.3-.9q-.2-.5-.2-2v-4.7h-1.8zm18.7 3.9h-7.6q0 1.6 1 2.5t2.5.9q2.1 0 3.9-1.3v2q-1 .7-2 1t-2.2.3q-1.8 0-3-.8-1-.7-1.7-2-.6-1.2-.6-2.8 0-2.5 1.4-4 1.4-1.6 3.6-1.6 2.1 0 3.4 1.5t1.3 4zm-7.6-1.3h5.5q-.1-1.2-.8-2-.7-.6-1.8-.6-1.2 0-1.9.7t-1 2zm12.2-4.3v2.5-.2q1.6-2.5 3.2-2.5 1.2 0 2.5 1.2l-1.1 2q-1.1-1.1-2-1.1-1.1 0-1.9 1-.7 1-.7 2.3v5.6h-2.2V41.6zm8.3-4.5q.5 0 .9.4.4.3.4.9a.95.95 0 0 1-.4.8q-.4.4-.9.4t-.9-.4q-.3-.3-.3-.8t.3-1q.4-.3.9-.3m-1 4.5h2v10.8h-2zm11.9 4.4v4.5q0 .6.4.6t1.2-.6v1.3q-.7.5-1.2.6-.4.2-.9.2-1.4 0-1.6-1-1.4 1-2.9 1-1.1 0-1.9-.8-.7-.7-.7-1.8 0-1 .7-1.8.7-.9 2-1.3l2.8-1v-.5q0-2-2-2-1.7 0-3.3 1.8V43q1.2-1.5 3.6-1.5 1.7 0 2.8 1l.6.7q.3.5.3 1zm-2 4.3V47l-1.5.5q-1.1.5-1.6 1-.4.4-.4 1 0 .7.4 1.1.5.4 1.1.4 1 0 2-.8z"/><path stroke="#5CA831" stroke-width="2" d="m482.5 72.5-43-.2"/><path fill="#5CA831" d="m439.5 68.7-9.6 3.6 9.6 3.6z"/><path stroke="#5CA831" stroke-width="2" d="m439.5 68.7-9.6 3.6 9.6 3.6z"/><path fill="#2A86C0" d="M497.8 83.6V67.4h3.8q2.8 0 4.4 1.4t1.6 4q0 2.4-1.5 4-1.5 1.5-3.8 1.5-1 0-2.3-.4v5.7zm3.7-14.3H500V76q1 .5 2 .5 1.6 0 2.5-1 1-1.1 1-2.7 0-1.1-.5-2a2.24 2.24 0 0 0-1.2-1q-.8-.5-2.3-.5m10.7-1.9v2.4l.2-.2q1.5-2.5 3-2.5 1.3 0 2.6 1.3l-1.2 1.8q-1-1-2-1t-1.8 1a3.58 3.58 0 0 0-.8 2.3v5.6h-2.1V67.4zm11.8-.1q2.5 0 4.1 1.6t1.6 4q0 2.3-1.6 3.9-1.7 1.5-4.2 1.5-2.4 0-4-1.5-1.7-1.6-1.7-4 0-2.3 1.7-3.9 1.6-1.6 4.1-1.6m-.1 2q-1.5 0-2.5 1t-1 2.5q0 1.6 1 2.6t2.6 1 2.6-1 1-2.6q0-1.5-1-2.5-1.1-1-2.7-1m9.1-6.5q.6 0 1 .4.3.4.3.9t-.3.9q-.4.3-1 .3-.4 0-.8-.3-.4-.4-.4-1 0-.4.4-.8t.9-.4zm-1 4.6h2.2v12.3q0 2.8-2.2 4l-1.5-1.6q.7-.3 1.1-1 .5-.6.5-1.4V67.4zm14.5 5.6H539q.1 1.5 1 2.4 1 .9 2.5.9 2.1 0 4-1.3v2q-1 .7-2 1t-2.3.3q-1.8 0-2.9-.7a7.1 7.1 0 0 1-1.7-2q-.7-1.3-.7-3 0-2.4 1.4-4 1.4-1.5 3.6-1.5t3.4 1.5q1.3 1.5 1.3 4v.3zm-7.5-1.3h5.4q0-1.3-.8-2-.6-.7-1.8-.7-1.1 0-1.9.7-.7.7-1 2zm17.9 3.9v2.1q-1.6.6-3.1.6-2.6 0-4-1.5-1.6-1.5-1.6-4t1.5-4.1q1.4-1.6 3.8-1.6.9 0 1.5.2l1.7.6v2.3q-1.7-1-3-1-1.5 0-2.4 1-1 1-1 2.5 0 1.7 1 2.7t2.8 1q1.2 0 2.8-.8m.9-6.6 4-3.9v2.3h3.4v1.9h-3.4v5.3q0 1.8 1.5 1.8 1.2 0 2.5-.8v2q-1.3.7-2.7.7-1.5 0-2.4-.8l-.6-.6-.3-.9-.1-2v-4.7h-1.9zm10.6-6.2q.6 0 1 .4.3.3.3.9 0 .5-.4.9-.3.3-.9.3-.5 0-.8-.3-.4-.4-.4-1 0-.4.4-.8a.95.95 0 0 1 .8-.4m-1 4.6h2.1V78h-2.1zm10.3-.1q2.5 0 4.1 1.6 1.7 1.6 1.7 4 0 2.3-1.7 3.9-1.6 1.5-4.2 1.5-2.4 0-4-1.5-1.6-1.6-1.6-4 0-2.3 1.6-3.9 1.7-1.6 4.1-1.6m0 2q-1.6 0-2.6 1t-1 2.5q0 1.6 1 2.6t2.6 1 2.6-1 1-2.6q0-1.5-1-2.5-1.1-1-2.7-1zm10.3-1.9v1.3q1.4-1.6 3.2-1.6 1 0 1.9.6.8.5 1.3 1.4.4.9.4 2.9v6h-2.1v-6q0-1.7-.5-2.4t-1.7-.7q-1.5 0-2.6 1.5v7.7h-2.1V67.4h2.2"/><path stroke="#5CA831" stroke-width="2" d="m482.5 97.5-43-.2"/><path fill="#5CA831" d="m439.5 93.7-9.6 3.6 9.6 3.6z"/><path stroke="#5CA831" stroke-width="2" d="m439.5 93.7-9.6 3.6 9.6 3.6z"/><path fill="#053056" d="M506 100.9v2.1q-1.6.6-3.1.6-2.5 0-4-1.5t-1.5-4q0-2.6 1.4-4.1 1.5-1.6 3.9-1.6.8 0 1.5.2.6.1 1.6.6v2.3q-1.6-1-3-1t-2.4 1q-.9 1-.9 2.5 0 1.7 1 2.6 1 1 2.7 1 1.2 0 2.8-.7m9.3 2.5V102q-.7.8-1.5 1.2-.9.4-1.8.4-1 0-1.9-.5a3.77 3.77 0 0 1-1.3-1.4q-.4-.9-.4-2.9v-6.2h2.1v6.2q0 1.7.5 2.4.5.6 1.7.6 1.6 0 2.6-1.5v-7.7h2.2v10.8zm7.4-10.8v2.5l.2-.2q1.5-2.5 3-2.5 1.3 0 2.6 1.2l-1.2 2q-1-1.1-2-1.1t-1.8 1a3.58 3.58 0 0 0-.8 2.3v5.6h-2.1V92.6zm6.7 10v-2.3q1 .7 1.9 1 1 .5 1.6.5t1.1-.4q.5-.3.5-.7 0-.5-.3-.8l-1.3-1q-2.1-1-2.8-1.9-.6-.8-.6-1.8 0-1.2 1-2t2.5-.8q1.6 0 3.2 1v2q-1.9-1.1-3-1.1-.7 0-1.1.2-.4.3-.4.7t.4.8l1.2.8.7.4q2.7 1.5 2.7 3.4 0 1.3-1 2.2-1 .8-2.7.8-1 0-1.7-.2zm14.9-10q2.5 0 4.1 1.6t1.6 4q0 2.3-1.6 3.9-1.7 1.5-4.2 1.5-2.4 0-4-1.6-1.7-1.5-1.7-3.9 0-2.3 1.7-3.9 1.6-1.6 4.1-1.6m-.1 2q-1.5 0-2.5 1t-1 2.5q0 1.6 1 2.5 1 1 2.6 1t2.6-1 1-2.5-1-2.6q-1.1-1-2.7-1zm10.5-2v2.5-.2q1.6-2.5 3.2-2.5 1.2 0 2.5 1.2l-1.1 2q-1.1-1.1-2-1.1-1.1 0-1.9 1-.7 1-.7 2.3v5.6h-2.2V92.6zm22.7 3v7.8h-2.2v-6q0-1.8-.4-2.5-.5-.7-1.7-.7-.7 0-1.2.3-.6.3-1.3 1v8h-2.1v-11h2V94q1.7-1.7 3.3-1.7 2 0 3.2 2 1.7-2 3.5-2 1.6 0 2.6 1.2 1 1.1 1 3.5v6.3H582V97q0-1.3-.6-2-.5-.7-1.5-.7-1.4 0-2.5 1.3m14.8-3q2.4 0 4 1.6 1.7 1.6 1.7 4 0 2.3-1.7 3.9-1.6 1.5-4.1 1.5-2.4 0-4-1.6-1.7-1.5-1.7-3.9 0-2.3 1.6-3.9 1.7-1.6 4.2-1.6m-.1 2q-1.6 0-2.6 1t-1 2.5q0 1.6 1 2.5 1 1 2.7 1 1.5 0 2.5-1t1-2.5-1-2.6q-1-1-2.6-1zm15.3-7.6h2.2v16.4H605q-2.4 0-3.8-1.5t-1.4-4q0-2.4 1.5-4 1.5-1.5 3.8-1.5 1 0 2.3.5zm0 14.6v-6.8q-1-.5-2-.5-1.6 0-2.5 1-1 1-1 2.8 0 1.7.9 2.6.4.5 1 .7t2 .2zm6.2-13.5q.5 0 .9.4.4.3.4.9a.95.95 0 0 1-.4.8q-.4.4-1 .4-.4 0-.8-.4a.95.95 0 0 1-.4-.8q0-.5.4-1 .4-.3.9-.3m-1 4.5h2v10.8h-2zm5.4 0V92q0-2.6 1-3.9 1.2-1.3 2.7-1.3l1.6.2v2.1l-1-.2q-1.2 0-1.7.7T620 92v.6h2v2h-2v8.8h-2v-8.8h-1.6v-2zm6.8-4.5q.6 0 1 .4.3.3.3.9a.95.95 0 0 1-.4.8q-.3.4-.9.4a.95.95 0 0 1-.8-.4.95.95 0 0 1-.4-.8q0-.5.4-1 .3-.3.8-.3m-1 4.5h2.1v10.8h-2.1zm14.4 5.6h-7.6q0 1.6 1 2.5t2.5.9q2 0 3.9-1.3v2q-1 .7-2 1t-2.2.3q-1.8 0-3-.8-1-.7-1.7-2-.7-1.2-.7-2.8 0-2.5 1.4-4 1.4-1.6 3.7-1.6 2.1 0 3.4 1.5t1.3 4zm-7.6-1.3h5.4q0-1.2-.7-2-.7-.6-1.8-.6-1.2 0-2 .7-.7.7-.9 2zm12.1-4.3v2.5l.2-.2q1.5-2.5 3-2.5 1.3 0 2.6 1.2l-1.2 2q-1-1.1-2-1.1t-1.8 1a3.58 3.58 0 0 0-.8 2.3v5.6h-2.1V92.6z"/></svg>