<svg width="720" height="400" viewBox="0 0 720 400" fill="none" xmlns="http://www.w3.org/2000/svg">
<rect width="720" height="400" fill="white"/>
<path d="M552.9 26H688.5V189.3H553L552.9 26Z" fill="white"/>
<path d="M552.9 26H688.5V189.3H553L552.9 26Z" stroke="#0176C0" stroke-width="0.9"/>
<path d="M588.3 16V17.6C587.5 17.9333 586.733 18.1 586 18.1C584.667 18.1 583.667 17.7 583 16.9C582.2 16.2333 581.8 15.2333 581.8 13.9C581.8 12.6333 582.167 11.6333 582.9 10.9C583.633 10.1 584.633 9.7 585.9 9.7L586.9 9.8L588.2 10.2V12C587.333 11.4667 586.567 11.2 585.9 11.2C585.233 11.2 584.633 11.4333 584.1 11.9C583.633 12.4333 583.4 13.1 583.4 13.9C583.4 14.7 583.667 15.3667 584.2 15.9C584.667 16.3667 585.333 16.6 586.2 16.6C586.867 16.6 587.567 16.4 588.3 16ZM594 9.8C595.267 9.8 596.267 10.2 597 11C597.867 11.8 598.3 12.8 598.3 14C598.3 15.2 597.9 16.2 597.1 17C596.233 17.6667 595.167 18 593.9 18C592.7 18 591.7 17.6333 590.9 16.9C590.1 16.1 589.7 15.1 589.7 13.9C589.7 12.7667 590.1 11.8 590.9 11C591.767 10.2 592.8 9.8 594 9.8ZM594 11.3C593.2 11.3 592.533 11.5333 592 12C591.533 12.5333 591.3 13.2 591.3 14C591.3 14.7333 591.567 15.3333 592.1 15.8C592.567 16.3333 593.2 16.6 594 16.6C594.8 16.6 595.467 16.3333 596 15.8C596.467 15.3333 596.7 14.7 596.7 13.9C596.7 13.1667 596.433 12.5333 595.9 12C595.367 11.5333 594.7 11.3 593.9 11.3H594ZM600.1 5.7H601.7V17.9H600.1V5.7ZM604 5.7H605.7V17.9H604V5.7ZM614.9 14H609.2C609.2 14.8 609.467 15.4333 610 15.9C610.467 16.3667 611.067 16.6 611.8 16.6C612.867 16.6 613.867 16.2667 614.8 15.6V17C614.267 17.3333 613.767 17.5667 613.3 17.7C612.833 17.9 612.267 18 611.6 18C610.733 18 610 17.8 609.4 17.4C608.867 17 608.433 16.5 608.1 15.9C607.767 15.2333 607.6 14.5 607.6 13.7C607.6 12.5 607.933 11.5 608.6 10.7C609.333 9.96666 610.267 9.6 611.4 9.6C612.467 9.6 613.3 9.96666 613.9 10.7C614.567 11.4333 614.9 12.4333 614.9 13.7V13.9V14ZM609.2 13H613.3C613.3 12.4 613.1 11.9333 612.7 11.6C612.367 11.2667 611.933 11.1 611.4 11.1C610.8 11.1 610.333 11.2667 610 11.6C609.6 11.9333 609.333 12.4333 609.2 13.1V13ZM622.7 16V17.6C621.9 17.9333 621.1 18.1 620.3 18.1C619.033 18.1 618.033 17.7 617.3 16.9C616.567 16.2333 616.2 15.2333 616.2 13.9C616.2 12.6333 616.533 11.6333 617.2 10.9C618 10.1 619 9.7 620.2 9.7L621.2 9.8L622.5 10.2V12C621.7 11.4667 620.967 11.2 620.3 11.2C619.567 11.2 618.967 11.4333 618.5 11.9C618.033 12.4333 617.8 13.1 617.8 13.9C617.8 14.7 618.033 15.3667 618.5 15.9C619.033 16.3667 619.7 16.6 620.5 16.6C621.167 16.6 621.9 16.4 622.7 16ZM623.4 11.1L626.4 8.1V9.8H628.9V11.3H626.4V15.3C626.4 16.1667 626.767 16.6 627.5 16.6C628.1 16.6 628.7 16.4333 629.3 16.1V17.6C628.7 17.9333 628.033 18.1 627.3 18.1C626.633 18.1 626.033 17.8667 625.5 17.4L625.1 17L624.9 16.4L624.8 14.9V11.3H623.4V11V11.1ZM631.3 6.4C631.567 6.4 631.8 6.5 632 6.7C632.2 6.9 632.3 7.13333 632.3 7.4C632.3 7.66666 632.2 7.9 632 8.1C631.8 8.23333 631.567 8.3 631.3 8.3L630.7 8.1C630.5 7.9 630.4 7.66666 630.4 7.4C630.4 7.13333 630.5 6.9 630.7 6.7C630.9 6.5 631.1 6.4 631.3 6.4ZM630.5 9.8H632.1V18H630.5V10V9.8ZM638.3 9.8C639.567 9.8 640.567 10.2 641.3 11C642.167 11.8 642.6 12.8 642.6 14C642.6 15.2 642.2 16.2 641.4 17C640.533 17.6667 639.467 18 638.2 18C637 18 636 17.6333 635.2 16.9C634.4 16.1 634 15.1 634 13.9C634 12.7667 634.4 11.8 635.2 11C636 10.2 637.033 9.8 638.3 9.8ZM638.3 11.3C637.5 11.3 636.833 11.5333 636.3 12C635.833 12.5333 635.6 13.2 635.6 14C635.6 14.7333 635.867 15.3333 636.4 15.8C636.867 16.3333 637.5 16.6 638.3 16.6C639.1 16.6 639.767 16.3333 640.3 15.8C640.767 15.3333 641 14.7 641 13.9C641 13.1667 640.733 12.5333 640.2 12C639.667 11.5333 639 11.3 638.2 11.3H638.3ZM646 9.8V10.8C646.667 10.0667 647.467 9.7 648.4 9.7C648.867 9.7 649.333 9.83333 649.8 10.1C650.267 10.3667 650.6 10.7 650.8 11.1C651 11.5667 651.1 12.3 651.1 13.3V18H649.5V13.4C649.5 12.6 649.367 12.0333 649.1 11.7C648.9 11.3 648.5 11.1 647.9 11.1C647.167 11.1 646.5 11.5 645.9 12.3V18H644.3V10H646V9.8Z" fill="#0176C0"/>
<path d="M539.5 37.6H675.1V201H539.5V37.6Z" fill="white"/>
<path d="M539.5 37.6H675.1V201H539.5V37.6Z" stroke="#0176C0" stroke-width="0.9"/>
<path d="M546 62.2V61.2C546.267 61.2 546.5 61.1333 546.7 61C546.9 60.8667 547.033 60.6667 547.1 60.4V59C547.1 58.1333 547.167 57.5667 547.3 57.3C547.3 57.0333 547.4 56.8 547.6 56.6C547.733 56.4 547.9 56.2667 548.1 56.2L549.1 56.1H549.4V57.1H549.2L548.4 57.2C548.267 57.4 548.2 57.7333 548.2 58.2V59.1L548.1 60.4L547.7 61.2C547.567 61.4 547.3 61.5667 546.9 61.7C547.367 61.9 547.7 62.2 547.9 62.6C548.1 63 548.2 63.6 548.2 64.4V65.2C548.2 65.7333 548.267 66.0667 548.4 66.2C548.467 66.3333 548.733 66.4 549.2 66.4H549.4V67.4H549C548.6 67.4 548.3 67.3333 548.1 67.2C547.9 67.2 547.733 67.0667 547.6 66.8C547.4 66.6 547.3 66.3667 547.3 66.1L547.2 64.5L547.1 63C547.033 62.7333 546.867 62.5333 546.6 62.4L546 62.2ZM556.5 78.8V78.1L555.7 78.7C555.433 78.8333 555.133 78.9 554.8 78.9C554.467 78.9 554.167 78.8333 553.9 78.7L553.2 78C553.067 77.6667 553 77.1667 553 76.5V73.5H554V76.5C554 77.1 554.1 77.5 554.3 77.7C554.5 77.9 554.8 78 555.2 78C555.733 78 556.167 77.7667 556.5 77.3V73.4H557.5V78.8H556.5ZM558.8 78.4V77.3L559.8 77.8L560.5 78L561.1 77.8C561.233 77.7333 561.3 77.6 561.3 77.4L561.2 77.1L560.5 76.6L559.1 75.6C558.9 75.3333 558.8 75.0333 558.8 74.7C558.8 74.3 558.967 73.9667 559.3 73.7C559.633 73.4333 560.067 73.3 560.6 73.3C561.067 73.3 561.6 73.4667 562.2 73.8V74.8C561.533 74.4667 561 74.3 560.6 74.3H560.1L559.9 74.7L560.1 75.1L560.7 75.5L561.1 75.7C561.967 76.2333 562.4 76.8 562.4 77.4C562.4 77.8667 562.233 78.2333 561.9 78.5C561.567 78.7667 561.133 78.9 560.6 78.9H559.7L558.7 78.4H558.8ZM568.2 76.2H564.4C564.4 76.7333 564.6 77.1667 565 77.5C565.267 77.7667 565.667 77.9 566.2 77.9C566.867 77.9 567.533 77.7 568.2 77.3V78.3L567.2 78.8L566 78.9C565.4 78.9 564.933 78.7667 564.6 78.5C564.2 78.3 563.9 77.9667 563.7 77.5C563.5 77.1 563.4 76.6333 563.4 76.1C563.4 75.3 563.633 74.6333 564.1 74.1C564.567 73.5667 565.167 73.3 565.9 73.3C566.567 73.3 567.133 73.5667 567.6 74.1C568 74.5667 568.2 75.2333 568.2 76.1V76.2ZM564.5 75.6H567.2C567.2 75.2 567.067 74.8667 566.8 74.6C566.6 74.4 566.267 74.3 565.8 74.3C565.467 74.3 565.167 74.4 564.9 74.6C564.7 74.8667 564.567 75.2 564.5 75.6ZM570.5 73.4V74.7V74.6C571.1 73.7333 571.633 73.3 572.1 73.3C572.5 73.3 572.933 73.5 573.4 73.9L572.8 74.9C572.467 74.5667 572.133 74.4 571.8 74.4C571.467 74.4 571.167 74.5333 570.9 74.8C570.633 75.1333 570.5 75.5333 570.5 76V78.8H569.5V73.4H570.5ZM574.7 71.2C574.9 71.2 575.033 71.2667 575.1 71.4C575.233 71.4667 575.3 71.6 575.3 71.8C575.3 72 575.233 72.1333 575.1 72.2C575.033 72.3333 574.9 72.4 574.7 72.4L574.3 72.2L574.1 71.8L574.3 71.4L574.7 71.2ZM574.2 73.4H575.2V78.8H574.2V73.4ZM580.4 70.6H581.4V78.8H579.2C578.4 78.8 577.733 78.5667 577.2 78.1C576.733 77.5667 576.5 76.9 576.5 76.1C576.5 75.3 576.767 74.6333 577.3 74.1C577.767 73.5667 578.4 73.3 579.2 73.3L580.4 73.5V70.6ZM580.4 77.9V74.5C580.067 74.3 579.733 74.2 579.4 74.2C578.867 74.2 578.433 74.4 578.1 74.8C577.767 75.1333 577.6 75.6 577.6 76.2C577.6 76.7333 577.733 77.1667 578 77.5L578.6 77.8L579.6 77.9H580.4ZM583.4 77.5C583.6 77.5 583.767 77.5667 583.9 77.7C584.033 77.8333 584.1 78 584.1 78.2C584.1 78.4 584.033 78.5667 583.9 78.7C583.767 78.8333 583.6 78.9 583.4 78.9C583.2 78.9 583.033 78.8333 582.9 78.7C582.767 78.5667 582.7 78.4 582.7 78.2C582.7 78 582.767 77.8333 582.9 77.7C583.033 77.5667 583.2 77.5 583.4 77.5ZM583.4 73.3C583.667 73.3 583.867 73.3667 584 73.5L584.2 74.1L584 74.6C583.867 74.7333 583.7 74.8 583.5 74.8C583.3 74.8 583.133 74.7333 583 74.6L582.8 74.1L583 73.5C583.133 73.3667 583.3 73.3 583.5 73.3H583.4ZM588.4 73.3H587.7L587.4 71.6V70.2H588.6V71.6L588.4 73.3ZM590.4 73.3H589.7L589.4 71.6V70.2H590.6V71.6L590.3 73.3H590.4ZM595.6 73.4H597L594.8 76.1L597.1 78.8H595.8L594 77L592.4 79H591L593.3 76.2L591 73.5H592.4L594 75.4L595.5 73.5L595.6 73.4ZM601.2 73.4H602.4L598.6 81.6H597.4L599.2 77.6L597.2 73.4H598.3L599.8 76.4L601.2 73.4ZM602.6 73.4H607.2L604.4 77.8H607.2V78.8H602.5L605.3 74.4H602.6V73.4ZM608.9 73.3H608.2L607.9 71.6V70.2H609.1V71.6L608.9 73.3ZM610.9 73.3H610.2L609.9 71.6V70.2H611.1V71.6L610.8 73.3H610.9ZM612.2 80.2V80C612.4 79.8667 612.533 79.7 612.6 79.5L612.7 78.8C612.3 78.6667 612.1 78.4333 612.1 78.1C612.1 77.8333 612.167 77.6333 612.3 77.5C612.433 77.3667 612.6 77.3 612.8 77.3C613.067 77.3 613.267 77.4 613.4 77.6C613.533 77.8 613.6 78.0667 613.6 78.4C613.6 78.8667 613.5 79.2333 613.3 79.5C613.033 79.8333 612.7 80.0667 612.3 80.2H612.2Z" fill="#0176C0"/>
<path d="M556.4 89.6V91.9C556.4 92.1 556.467 92.2 556.6 92.2L557.2 91.9V92.5C557 92.7 556.8 92.8 556.6 92.8L556.2 92.9C555.733 92.9 555.467 92.7333 555.4 92.4C554.933 92.7333 554.433 92.9 553.9 92.9C553.567 92.9 553.233 92.7667 552.9 92.5C552.7 92.3 552.6 92 552.6 91.6C552.6 91.2667 552.733 90.9667 553 90.7C553.267 90.4333 553.6 90.2333 554 90.1L555.4 89.6V89.3C555.4 88.6333 555.067 88.3 554.4 88.3C553.8 88.3 553.233 88.6333 552.7 89.3V88C553.1 87.4667 553.7 87.2 554.5 87.2C555.1 87.2 555.567 87.3667 555.9 87.7C556.033 87.7667 556.133 87.9 556.2 88.1C556.333 88.2333 556.4 88.4 556.4 88.6V89.5V89.6ZM555.4 91.8V90.2L554.7 90.4L553.9 90.9C553.767 91.0333 553.7 91.2 553.7 91.4C553.7 91.6667 553.767 91.8667 553.9 92C554.033 92.1333 554.2 92.2 554.4 92.2C554.8 92.2 555.133 92.0667 555.4 91.8ZM561.8 84.6H562.8V92.8H560.6C559.8 92.8 559.133 92.5667 558.6 92.1C558.2 91.5667 558 90.9 558 90.1C558 89.3 558.233 88.6333 558.7 88.1C559.233 87.5667 559.9 87.3 560.7 87.3L561.7 87.5V84.6H561.8ZM561.8 91.9V88.5C561.467 88.3 561.133 88.2 560.8 88.2C560.267 88.2 559.833 88.4 559.5 88.8C559.167 89.1333 559 89.6 559 90.2C559 90.7333 559.133 91.1667 559.4 91.5L560 91.8L561 91.9H561.8ZM567.8 84.6H568.8V92.8H566.6C565.8 92.8 565.133 92.5667 564.6 92.1C564.2 91.5667 564 90.9 564 90.1C564 89.3 564.233 88.6333 564.7 88.1C565.233 87.5667 565.9 87.3 566.7 87.3L567.7 87.5V84.6H567.8ZM567.8 91.9V88.5C567.467 88.3 567.133 88.2 566.8 88.2C566.267 88.2 565.833 88.4 565.5 88.8C565.167 89.1333 565 89.6 565 90.2C565 90.7333 565.133 91.1667 565.4 91.5L566 91.8L567 91.9H567.8ZM571.4 87.4V88.7L571.5 88.6C572.033 87.7333 572.533 87.3 573 87.3C573.467 87.3 573.9 87.5 574.3 87.9L573.7 88.9C573.367 88.5667 573.033 88.4 572.7 88.4C572.367 88.4 572.067 88.5333 571.8 88.8C571.533 89.1333 571.4 89.5333 571.4 90V92.8H570.4V87.4H571.4Z" fill="#DE4C01"/>
<path d="M576 91.5C576.2 91.5 576.367 91.5667 576.5 91.7C576.633 91.8333 576.7 92 576.7 92.2C576.7 92.4 576.633 92.5667 576.5 92.7C576.367 92.8333 576.2 92.9 576 92.9C575.8 92.9 575.633 92.8333 575.5 92.7C575.367 92.5667 575.3 92.4 575.3 92.2C575.3 92 575.367 91.8333 575.5 91.7C575.633 91.5667 575.8 91.5 576 91.5ZM576.1 87.3C576.3 87.3 576.467 87.3667 576.6 87.5L576.8 88.1L576.6 88.6C576.467 88.7333 576.3 88.8 576.1 88.8C575.9 88.8 575.733 88.7333 575.6 88.6L575.4 88.1L575.6 87.5C575.733 87.3667 575.9 87.3 576.1 87.3Z" fill="#0176C0"/>
<path d="M31.5 280.3H691.8V299.5H31.5V280.3Z" fill="#0C60B2"/>
<path d="M163.6 276.4V316.2M487.7 276.4V316.2" stroke="#AFD1E8" stroke-width="1.5" stroke-dasharray="3 1.5"/>
<path d="M142.6 324.9V323.9L142.7 323.4C142.833 323.267 143 323.2 143.2 323.2L143.6 323.4C143.733 323.533 143.8 323.767 143.8 324.1C143.8 324.367 143.633 324.967 143.3 325.9L143 326.8L142.2 326.6L142.5 325.6L142.6 324.9ZM140.2 324.9V323.9L140.3 323.4L140.7 323.2C140.9 323.2 141.067 323.267 141.2 323.4C141.333 323.533 141.4 323.767 141.4 324.1C141.4 324.433 141.233 325.033 140.9 325.9L140.6 326.8L139.8 326.6L140.1 325.6V325.3L140.2 324.9ZM149.4 323.8V332.5H148.4V325L146.7 325.5L146.5 325L148.7 323.8H149.4ZM157.6 325C157.867 325.333 158.1 325.8 158.3 326.4C158.433 326.933 158.5 327.6 158.5 328.4C158.5 329.067 158.433 329.7 158.3 330.3C158.1 330.833 157.867 331.267 157.6 331.6C157.333 332 157.033 332.267 156.7 332.4C156.367 332.6 156.033 332.7 155.7 332.7C155.367 332.7 155.033 332.6 154.7 332.4C154.367 332.2 154.033 331.867 153.7 331.4C153.5 331.067 153.333 330.633 153.2 330.1C153 329.567 152.9 328.967 152.9 328.3C152.9 327.633 153 327 153.2 326.4C153.333 325.867 153.533 325.4 153.8 325C154.067 324.6 154.367 324.3 154.7 324.1C155.033 323.9 155.367 323.8 155.7 323.8C156.433 323.8 157.1 324.167 157.7 324.9L157.6 325ZM157.1 325.8L156.5 324.9C156.233 324.7 155.967 324.6 155.7 324.6C155.5 324.6 155.267 324.7 155 324.9L154.4 325.6L154 326.6C153.867 327.067 153.8 327.567 153.8 328.1L154 329.7L157.1 325.7V325.8ZM157.4 326.7L154.4 330.7C154.6 331.033 154.833 331.3 155.1 331.5C155.3 331.7 155.533 331.8 155.8 331.8C156.067 331.8 156.3 331.733 156.5 331.6L157.1 330.9L157.5 329.9L157.6 328.4V327.5L157.4 326.7ZM164.6 325C164.867 325.333 165.1 325.8 165.3 326.4C165.433 326.933 165.5 327.6 165.5 328.4C165.5 329.067 165.433 329.7 165.3 330.3C165.1 330.833 164.867 331.267 164.6 331.6C164.333 332 164.033 332.267 163.7 332.4C163.367 332.6 163.033 332.7 162.7 332.7C162.367 332.7 162.033 332.6 161.7 332.4C161.367 332.2 161.033 331.867 160.7 331.4C160.5 331.067 160.333 330.633 160.2 330.1C160 329.567 159.9 328.967 159.9 328.3C159.9 327.633 160 327 160.2 326.4C160.333 325.867 160.533 325.4 160.8 325C161.067 324.6 161.367 324.3 161.7 324.1C162.033 323.9 162.367 323.8 162.7 323.8C163.433 323.8 164.1 324.167 164.7 324.9L164.6 325ZM164.1 325.8L163.5 324.9C163.233 324.7 162.967 324.6 162.7 324.6C162.5 324.6 162.267 324.7 162 324.9L161.4 325.6L161 326.6C160.867 327.067 160.8 327.567 160.8 328.1L161 329.7L164.1 325.7V325.8ZM164.4 326.7L161.4 330.7C161.6 331.033 161.833 331.3 162.1 331.5C162.3 331.7 162.533 331.8 162.8 331.8C163.067 331.8 163.3 331.733 163.5 331.6L164.1 330.9L164.5 329.9L164.6 328.4V327.5L164.4 326.7ZM172 326C172 326.4 171.867 326.8 171.6 327.2C171.4 327.533 171.067 327.767 170.6 327.9C171.133 328.033 171.533 328.333 171.8 328.8C172.067 329.2 172.2 329.667 172.2 330.2L172 331.2C171.867 331.467 171.667 331.7 171.4 331.9C171.2 332.167 170.933 332.367 170.6 332.5C170.267 332.633 169.867 332.7 169.4 332.7C168.533 332.7 167.8 332.367 167.2 331.7L167.9 330.8L168 331L168.1 331.2L168.3 331.4L168.8 331.7L169.5 331.8L170.2 331.7L170.7 331.3L171.1 330.7L171.2 330C171.2 329.533 171.033 329.133 170.7 328.8C170.3 328.533 169.8 328.4 169.2 328.4H168.7V327.6L169.8 327.5C170.133 327.433 170.367 327.3 170.5 327.1C170.7 326.967 170.833 326.8 170.9 326.6L171 326V325.5L170.6 325.1L170.1 324.8L169.5 324.7C168.9 324.7 168.4 324.9 168 325.3L167.5 324.7C168.033 324.1 168.7 323.8 169.5 323.8C169.9 323.8 170.233 323.867 170.5 324C170.833 324.067 171.1 324.233 171.3 324.5L171.8 325.2L172 326ZM177.2 323.7C177.933 323.7 178.6 323.967 179.2 324.5L178.5 325.3L178.3 325L178.1 324.8L177.7 324.6H177.3L176.6 324.7L175.9 325.2L175.4 326.2C175.2 326.667 175.1 327.267 175.1 328C175.3 327.667 175.567 327.4 175.9 327.2C176.233 327 176.567 326.9 176.9 326.9C177.3 326.9 177.633 326.967 177.9 327.1L178.7 327.7L179.2 328.7C179.333 328.967 179.4 329.3 179.4 329.7C179.4 330.167 179.333 330.6 179.2 331C179.067 331.333 178.867 331.633 178.6 331.9C178.4 332.167 178.133 332.367 177.8 332.5C177.533 332.633 177.2 332.7 176.8 332.7C176.4 332.7 176.067 332.6 175.8 332.4C175.4 332.2 175.067 331.933 174.8 331.6L174.3 330.3L174.2 328.6C174.2 327.8 174.267 327.1 174.4 326.5C174.533 325.833 174.733 325.333 175 325C175.267 324.6 175.6 324.267 176 324C176.333 323.8 176.733 323.7 177.2 323.7ZM175.2 328.9V329.3L175.3 330.3C175.367 330.633 175.5 330.9 175.7 331.1L176.2 331.6L176.9 331.8C177.3 331.8 177.633 331.633 177.9 331.3C178.233 330.967 178.4 330.467 178.4 329.8L178.3 328.8L177.9 328.3C177.767 328.1 177.6 327.967 177.4 327.9L176.9 327.8C176.567 327.8 176.233 327.9 175.9 328.1L175.2 328.9ZM184.6 324.9V323.9L184.7 323.4C184.833 323.267 185 323.2 185.2 323.2L185.6 323.4C185.733 323.533 185.8 323.767 185.8 324.1C185.8 324.367 185.633 324.967 185.3 325.9L185 326.8L184.2 326.6L184.5 325.6L184.6 324.9ZM182.2 324.9V323.9L182.3 323.4L182.7 323.2C182.9 323.2 183.067 323.267 183.2 323.4C183.333 323.533 183.4 323.767 183.4 324.1C183.4 324.433 183.233 325.033 182.9 325.9L182.6 326.8L181.8 326.6L182.1 325.6V325.3L182.2 324.9ZM18.6 333V326.5H19.5V327.2C19.6333 326.933 19.8333 326.733 20.1 326.6C20.3 326.467 20.5333 326.4 20.8 326.4C21.0667 326.4 21.3 326.5 21.5 326.7C21.7 326.833 21.8333 327.033 21.9 327.3C22.0333 327.033 22.2333 326.833 22.5 326.7C22.7667 326.5 23.0667 326.4 23.4 326.4C23.8 326.4 24.1333 326.567 24.4 326.9C24.5333 327.167 24.6 327.533 24.6 328V333H23.6V327.7L23.5 327.3L23.3 327.2H22.7L22.4 327.7L22.1 328.2V332.9H21.1V328.5L21 327.5C20.8667 327.3 20.7 327.2 20.5 327.2C20.2333 327.2 20 327.333 19.8 327.6C19.6 327.867 19.5 328.2 19.5 328.6V332.9H18.5L18.6 333ZM26.5 326.5H29.1V332.1H30.6V332.9H26.4V332.1H28.1V327.4H26.5V326.5ZM28.1 324C28.2333 323.867 28.4 323.8 28.6 323.8C28.8 323.8 28.9667 323.867 29.1 324C29.2333 324.133 29.3 324.3 29.3 324.5C29.3 324.7 29.2333 324.867 29.1 325C28.9667 325.133 28.8 325.2 28.6 325.2C28.4 325.2 28.2333 325.133 28.1 325C27.9667 324.867 27.9 324.7 27.9 324.5C27.9 324.3 27.9667 324.133 28.1 324ZM33 333V326.5H34V327.7C34.2667 327.3 34.6 326.967 35 326.7C35.3333 326.5 35.7 326.4 36.1 326.4L36.9 326.5C37.1667 326.633 37.3667 326.8 37.5 327C37.7 327.2 37.8333 327.467 37.9 327.8C38.0333 328.133 38.1 328.567 38.1 329.1V332.9H37.1V329.1C37.1 328.433 36.9667 327.967 36.7 327.7C36.5 327.433 36.2333 327.3 35.9 327.3L35.3 327.4L34.6 327.8L34.2 328.4C34.0667 328.667 34 328.967 34 329.3V332.9H33V333ZM468.7 324.8V324L468.8 323.4L469.2 323.2C469.4 323.2 469.567 323.267 469.7 323.4C469.833 323.533 469.9 323.767 469.9 324.1C469.9 324.367 469.733 324.933 469.4 325.8L469 326.8L468.3 326.6L468.6 325.6L468.7 324.8ZM466.3 324.8L466.2 324C466.2 323.733 466.267 323.533 466.4 323.4L466.8 323.2L467.2 323.4C467.333 323.533 467.4 323.767 467.4 324.1L467 325.8L466.6 326.8L465.8 326.6L466.2 325.6V325.2L466.3 324.8ZM477.3 324.3L475.7 328.3L474.3 332.5H473.2L474.6 328.5L476.1 324.7H472.4V323.7H477.4V324.3H477.3ZM484.2 325.7C484.2 326.167 484.067 326.567 483.8 326.9C483.533 327.3 483.2 327.633 482.8 327.9C483.267 328.1 483.667 328.433 484 328.9C484.333 329.3 484.5 329.767 484.5 330.3L484.3 331.3L483.7 332L482.8 332.5L481.8 332.6L480.8 332.5L479.8 332L479.3 331.2C479.167 330.933 479.1 330.633 479.1 330.3C479.1 329.833 479.267 329.367 479.6 328.9C479.933 328.433 480.367 328.1 480.9 327.9C480.5 327.7 480.167 327.4 479.9 327C479.7 326.667 479.6 326.267 479.6 325.8L479.7 325L480.2 324.3L481 323.8L481.9 323.7L482.8 323.8L483.5 324.3L484 324.9L484.2 325.7ZM481.6 328.3C481.2 328.433 480.867 328.7 480.6 329.1C480.267 329.433 480.1 329.8 480.1 330.2L480.3 330.8L480.6 331.3L481.2 331.6L481.8 331.8L482.5 331.7L483 331.3L483.3 330.9L483.5 330.3C483.5 329.833 483.333 329.433 483 329.1C482.667 328.7 482.2 328.433 481.6 328.3ZM480.7 326.5L481.2 327L481.8 327.4L482 327.5C482.4 327.3 482.7 327.033 482.9 326.7C483.1 326.433 483.2 326.1 483.2 325.7V325.3L482.8 324.9L482.4 324.6L481.8 324.5L481.3 324.6L480.9 324.9C480.767 324.967 480.667 325.1 480.6 325.3L480.5 325.7C480.5 326.033 480.567 326.3 480.7 326.5ZM489.3 323.7C490.033 323.7 490.7 323.967 491.3 324.5L490.5 325.2L490.4 325L490.2 324.8L489.7 324.6H489.3L488.7 324.7C488.433 324.767 488.2 324.933 488 325.2C487.8 325.4 487.6 325.733 487.4 326.2C487.267 326.667 487.2 327.233 487.2 327.9C487.4 327.567 487.667 327.333 488 327.2C488.333 327 488.667 326.9 489 326.9L490 327.1C490.267 327.233 490.5 327.433 490.7 327.7C490.967 327.9 491.133 328.2 491.2 328.6C491.333 328.933 491.4 329.3 491.4 329.7C491.4 330.167 491.333 330.567 491.2 330.9L490.7 331.9L489.9 332.4C489.633 332.533 489.3 332.6 488.9 332.6C488.5 332.6 488.133 332.533 487.8 332.4C487.467 332.2 487.167 331.9 486.9 331.5L486.4 330.3C486.267 329.767 486.2 329.167 486.2 328.5C486.2 327.767 486.267 327.1 486.4 326.5C486.6 325.833 486.833 325.3 487.1 324.9C487.367 324.5 487.7 324.2 488.1 324C488.433 323.8 488.833 323.7 489.3 323.7ZM487.3 328.9V330.2L487.7 331.1L488.3 331.6C488.5 331.733 488.733 331.8 489 331.8C489.4 331.8 489.733 331.633 490 331.3C490.333 330.9 490.5 330.367 490.5 329.7C490.5 329.367 490.433 329.067 490.3 328.8C490.3 328.6 490.2 328.4 490 328.2L489.5 327.9L489 327.7C488.667 327.7 488.333 327.833 488 328.1C487.667 328.3 487.433 328.567 487.3 328.9ZM496.5 323.8V332.5H495.5V325L493.8 325.5L493.5 325L495.8 323.8H496.5ZM504.7 324.9C504.967 325.233 505.167 325.7 505.3 326.3C505.5 326.9 505.6 327.567 505.6 328.3C505.6 329.033 505.5 329.7 505.3 330.3C505.167 330.767 504.967 331.2 504.7 331.6C504.433 331.933 504.133 332.2 503.8 332.4C503.467 332.6 503.133 332.7 502.8 332.7C502.4 332.7 502.067 332.567 501.8 332.3C501.4 332.1 501.067 331.8 500.8 331.4L500.2 330C500.067 329.467 500 328.867 500 328.2C500 327.533 500.067 326.933 500.2 326.4L500.8 325C501.067 324.6 501.4 324.267 501.8 324C502.067 323.8 502.4 323.7 502.8 323.7C503.467 323.7 504.1 324.1 504.7 324.9ZM504.2 325.7C504 325.367 503.767 325.1 503.5 324.9C503.3 324.7 503.067 324.6 502.8 324.6C502.533 324.6 502.3 324.667 502.1 324.8L501.5 325.5C501.3 325.833 501.167 326.2 501.1 326.6L500.9 328C500.9 328.667 500.967 329.233 501.1 329.7L504.1 325.7H504.2ZM504.5 326.7L501.5 330.6L502.1 331.5C502.367 331.7 502.633 331.8 502.9 331.8C503.1 331.8 503.333 331.7 503.6 331.5C503.8 331.367 503.967 331.167 504.1 330.9L504.5 329.9C504.633 329.433 504.7 328.933 504.7 328.4V327.4L504.5 326.7ZM510.7 324.8V324L510.8 323.4L511.2 323.2C511.4 323.2 511.567 323.267 511.7 323.4C511.833 323.533 511.9 323.767 511.9 324.1C511.9 324.367 511.733 324.933 511.4 325.8L511 326.8L510.3 326.6L510.6 325.6L510.7 324.8ZM508.3 324.8L508.2 324C508.2 323.733 508.267 323.533 508.4 323.4L508.8 323.2L509.2 323.4C509.333 323.533 509.4 323.767 509.4 324.1L509 325.8L508.6 326.8L507.8 326.6L508.2 325.6V325.2L508.3 324.8ZM679.2 332.7V326.3H680.1V327C680.233 326.733 680.4 326.533 680.6 326.4L681.4 326.2C681.667 326.2 681.9 326.267 682.1 326.4C682.3 326.6 682.433 326.833 682.5 327.1C682.633 326.833 682.833 326.6 683.1 326.4L683.9 326.2C684.367 326.2 684.7 326.367 684.9 326.7C685.1 326.967 685.2 327.333 685.2 327.8V332.8H684.2V327.5L684.1 327.1L683.9 327H683.3L682.9 327.4L682.7 328V332.7H681.7V328.3C681.7 327.767 681.633 327.433 681.5 327.3C681.433 327.033 681.267 326.9 681 326.9C680.8 326.9 680.6 327.067 680.4 327.4C680.2 327.6 680.1 327.933 680.1 328.4V332.7H679.1H679.2ZM686.9 327C687.433 326.467 688.2 326.2 689.2 326.2C690 326.2 690.6 326.4 691 326.8C691.467 327.2 691.7 327.867 691.7 328.8V332.8H690.7V332C690.033 332.6 689.3 332.9 688.5 332.9L687.5 332.7L686.9 332.3L686.4 331.8V331.1C686.4 330.433 686.633 329.933 687.1 329.6C687.7 329.2 688.5 329 689.5 329H690.7V328.7C690.7 328.033 690.567 327.6 690.3 327.4C690.033 327.133 689.633 327 689.1 327C688.433 327 687.867 327.233 687.4 327.7L686.9 327.1V327ZM690.8 329.7H689.8L688.6 329.8L687.8 330.1L687.4 330.5V331C687.4 331.333 687.5 331.6 687.7 331.8C687.967 332 688.3 332.1 688.7 332.1L689.4 332L690 331.7L690.4 331.3L690.6 330.9C690.733 330.7 690.8 330.467 690.8 330.2V329.7ZM697.7 326.3H698.7L696.7 329.4L699 332.7H697.9L696.1 330.2L694.4 332.7H693.3L695.5 329.5L693.3 326.3H694.4L696.1 328.7L697.7 326.3Z" fill="#DE4D01"/>
<path d="M31.9 276.3V316.2M692.7 277.8V316.2M637.3 276.4V316.2" stroke="#AFD1E8" stroke-width="1.5" stroke-dasharray="3 1.5"/>
<path d="M617.2 325.4V324.5L617.3 324L617.7 323.8C617.9 323.8 618.067 323.867 618.2 324C618.333 324.133 618.4 324.367 618.4 324.7C618.4 324.967 618.233 325.533 617.9 326.4L617.6 327.4L616.8 327.1L617.1 326.2L617.2 325.4ZM614.8 325.4V324L615.3 323.8L615.7 324C615.833 324.133 615.9 324.367 615.9 324.7L615.5 326.4L615.1 327.4L614.4 327.1L614.7 326.2V325.8L614.8 325.4ZM622.8 333.2C622.133 333.2 621.5 332.933 620.9 332.4L621.6 331.7L621.7 331.9L621.8 332C622.067 332.267 622.4 332.4 622.8 332.4C623.467 332.4 624 332.133 624.4 331.6C624.733 331.067 624.933 330.2 625 329L624.2 329.7L623.2 329.9L622.2 329.7L621.5 329.2C621.233 328.933 621.033 328.633 620.9 328.3L620.8 327.2C620.8 326.733 620.867 326.333 621 326C621.067 325.667 621.233 325.367 621.5 325.1C621.7 324.833 621.967 324.633 622.3 324.5C622.567 324.367 622.9 324.3 623.3 324.3C624.1 324.3 624.767 324.667 625.3 325.4C625.7 326.067 625.9 327.233 625.9 328.9C625.9 329.633 625.833 330.3 625.7 330.9L625 332.2C624.733 332.533 624.4 332.8 624 333C623.667 333.133 623.267 333.2 622.8 333.2ZM624.9 328V327.6L624.8 326.6L624.4 325.8L623.9 325.3L623.3 325.2C622.833 325.2 622.433 325.367 622.1 325.7C621.833 326.033 621.7 326.533 621.7 327.2L621.8 328L622.2 328.6L622.6 329H623.2L624.2 328.8C624.467 328.6 624.7 328.333 624.9 328ZM631.2 324.4H632V329.8H633.1V330.7H632.1V333.1H631V330.7H627.5V330L631.2 324.4ZM631 325.9L628.4 329.9H631V325.9ZM639.6 326.6C639.6 327 639.467 327.367 639.2 327.7C638.933 328.033 638.6 328.3 638.2 328.5C638.667 328.633 639.033 328.9 639.3 329.3C639.633 329.7 639.8 330.167 639.8 330.7L639.6 331.7L639 332.5L638.1 333.1C637.767 333.233 637.4 333.3 637 333.3C636.133 333.3 635.4 332.967 634.8 332.3L635.5 331.3L635.6 331.6V331.8L635.9 332L636.3 332.2L637.1 332.4L637.8 332.2C638 332.133 638.167 332 638.3 331.8C638.5 331.667 638.633 331.5 638.7 331.3L638.8 330.6C638.8 330.067 638.6 329.667 638.2 329.4C637.867 329.067 637.4 328.9 636.8 328.9H636.3V328.2C636.767 328.2 637.133 328.133 637.4 328C637.667 328 637.9 327.9 638.1 327.7C638.3 327.567 638.433 327.4 638.5 327.2L638.6 326.5V326L638.2 325.6L637.7 325.3H637.1C636.5 325.3 636 325.5 635.6 325.9L635.1 325.3C635.633 324.633 636.3 324.3 637.1 324.3C637.5 324.3 637.833 324.367 638.1 324.5L638.9 325L639.4 325.7C639.533 325.967 639.6 326.267 639.6 326.6ZM646.2 325.5C646.467 325.833 646.7 326.3 646.9 326.9C647.033 327.5 647.1 328.167 647.1 328.9L646.9 330.9L646.2 332.2C645.933 332.533 645.633 332.8 645.3 333C644.967 333.2 644.633 333.3 644.3 333.3C643.967 333.3 643.633 333.167 643.3 332.9C642.967 332.7 642.633 332.4 642.3 332L641.7 330.6C641.567 330.067 641.5 329.467 641.5 328.8C641.5 328.133 641.567 327.533 641.7 327L642.4 325.6C642.667 325.2 642.967 324.867 643.3 324.6C643.633 324.4 643.967 324.3 644.3 324.3C644.967 324.3 645.633 324.7 646.3 325.5H646.2ZM645.7 326.3C645.5 325.967 645.267 325.7 645 325.5C644.8 325.3 644.567 325.2 644.3 325.2L643.6 325.4L643 326.1C642.8 326.433 642.667 326.8 642.6 327.2L642.4 328.6C642.4 329.2 642.467 329.767 642.6 330.3L645.6 326.3H645.7ZM646 327.3L643 331.2L643.6 332.1C643.867 332.3 644.133 332.4 644.4 332.4C644.667 332.4 644.9 332.3 645.1 332.1C645.3 331.967 645.467 331.767 645.6 331.5L646 330.5C646.133 330.033 646.2 329.533 646.2 329V328L646 327.2V327.3ZM652 324.4V333.1H651V325.6L649.3 326.1L649 325.6L651.3 324.4H652ZM659.2 325.4V324.5L659.3 324L659.7 323.8C659.9 323.8 660.067 323.867 660.2 324C660.333 324.133 660.4 324.367 660.4 324.7C660.4 324.967 660.233 325.533 659.9 326.4L659.6 327.4L658.8 327.1L659.1 326.2L659.2 325.4ZM656.8 325.4V324L657.3 323.8L657.7 324C657.833 324.133 657.9 324.367 657.9 324.7L657.5 326.4L657.1 327.4L656.4 327.1L656.7 326.2V325.8L656.8 325.4Z" fill="#DE4D01"/>
<path d="M247.9 379.6V377.5C247.9 376.567 247.767 375.9 247.5 375.5C247.167 375.233 246.7 375.1 246.1 375.1H245.7V373.9H246.1C246.767 373.9 247.233 373.733 247.5 373.4C247.833 373.067 248 372.5 248 371.7V370.2C248 367.733 249.267 366.5 251.8 366.5H253.1V367.7H251.4C250.067 367.7 249.4 368.433 249.4 369.9V371.4C249.4 372.933 248.833 373.967 247.7 374.5C248.833 374.9 249.4 376 249.4 377.8V379.5C249.4 380.5 249.6 381.167 250 381.5C250.4 381.833 251.067 382 252 382H253.1V383.2H250.5C249.967 383.133 249.5 382.933 249.1 382.6C248.3 381.933 247.9 380.933 247.9 379.6Z" fill="#1D4595"/>
<path d="M272.2 368.4L272 367.1C272 366.7 272.1 366.367 272.3 366.1L272.9 365.9C273.167 365.9 273.4 366 273.6 366.2C273.8 366.4 273.9 366.733 273.9 367.2C273.9 367.667 273.667 368.533 273.2 369.8L272.7 371.2L271.5 371L272 369.5L272.2 368.4ZM268.6 368.4L268.4 367.1C268.4 366.7 268.5 366.367 268.7 366.1L269.3 365.9C269.567 365.9 269.8 366 270 366.2C270.2 366.4 270.3 366.733 270.3 367.2C270.3 367.667 270.067 368.533 269.6 369.8L269.1 371.2L267.9 371L268.3 369.5L268.5 368.9V368.4H268.6ZM278 371.4C278.8 370.533 279.933 370.1 281.4 370.1C282.6 370.1 283.533 370.4 284.2 371C284.867 371.6 285.2 372.6 285.2 374V379.9H283.8V378.9C282.733 379.7 281.567 380.1 280.3 380.1C279.833 380.1 279.4 380.033 279 379.9C278.6 379.767 278.267 379.567 278 379.3C277.667 379.033 277.433 378.733 277.3 378.4L277.1 377.4C277.1 376.467 277.5 375.733 278.3 375.2C279.167 374.6 280.367 374.267 281.9 374.2H283.7V373.9C283.7 372.967 283.5 372.3 283.1 371.9C282.7 371.5 282.1 371.3 281.3 371.3C280.233 371.3 279.367 371.633 278.7 372.3L278 371.4ZM283.8 375.4H282.4L280.4 375.5C279.933 375.633 279.6 375.8 279.4 376C279.067 376.133 278.833 376.333 278.7 376.6L278.6 377.3C278.6 377.767 278.8 378.167 279.2 378.5C279.6 378.833 280.067 379 280.6 379C281.067 379 281.467 378.933 281.8 378.8L282.6 378.3L283.3 377.7L283.6 377.2C283.733 376.867 283.8 376.467 283.8 376V375.4ZM294.3 371.7V365.9H296L295.9 366.2L295.8 366.5V380H294.4L294.3 379.3V378.5C293.967 379.033 293.533 379.433 293 379.7C292.467 380.033 291.933 380.2 291.4 380.2C290.867 380.2 290.367 380.1 289.9 379.9C289.433 379.7 289.033 379.367 288.7 378.9C288.3 378.5 288 378 287.8 377.4C287.6 376.733 287.5 375.967 287.5 375.1C287.5 374.233 287.633 373.467 287.9 372.8C288.1 372.2 288.4 371.7 288.8 371.3C289.2 370.9 289.633 370.6 290.1 370.4C290.567 370.2 291.033 370.1 291.5 370.1C292.167 370.1 292.767 370.267 293.3 370.6C293.767 370.867 294.1 371.267 294.3 371.8V371.7ZM289.9 372C289.233 372.533 288.9 373.467 288.9 374.8C288.9 376 289.167 376.967 289.7 377.7C290.167 378.367 290.833 378.7 291.7 378.7H292.4L293 378.3C293.267 378.167 293.467 378 293.6 377.8C293.8 377.6 293.933 377.367 294 377.1C294.133 376.567 294.2 375.9 294.2 375.1V373.7L293.9 372.7C293.9 372.5 293.8 372.333 293.6 372.2L293.1 371.7L292.4 371.4L291.8 371.3L290.8 371.4L289.8 372H289.9ZM304.8 371.7V365.9H306.5L306.4 366.2L306.3 366.5V380H305L304.9 379.3V378.5C304.567 379.033 304.133 379.433 303.6 379.7C303.067 380.033 302.533 380.2 302 380.2C301.467 380.2 300.967 380.1 300.5 379.9C300.033 379.7 299.633 379.367 299.3 378.9C298.9 378.5 298.6 378 298.4 377.4C298.2 376.733 298.1 375.967 298.1 375.1C298.1 374.233 298.233 373.467 298.5 372.8C298.7 372.2 299 371.7 299.4 371.3C299.8 370.9 300.233 370.6 300.7 370.4C301.167 370.2 301.633 370.1 302.1 370.1C302.767 370.1 303.367 370.267 303.9 370.6C304.367 370.867 304.7 371.267 304.9 371.8L304.8 371.7ZM300.4 372C299.733 372.533 299.4 373.467 299.4 374.8C299.4 376 299.667 376.967 300.2 377.7C300.667 378.367 301.333 378.7 302.2 378.7H302.9L303.5 378.3C303.767 378.167 303.967 378 304.1 377.8C304.3 377.6 304.433 377.367 304.5 377.1C304.633 376.567 304.7 375.9 304.7 375.1V373.7L304.4 372.7C304.4 372.5 304.3 372.333 304.1 372.2L303.6 371.7L302.9 371.4L302.3 371.3L301.3 371.4L300.3 372H300.4ZM309.6 370.3H311.2V372.1C311.467 371.433 311.933 370.933 312.6 370.6C313.267 370.267 313.933 370.1 314.6 370.1C315.667 370.1 316.533 370.433 317.2 371.1L316.5 372.6L316.1 372L315.6 371.7L315.2 371.4H314.5C314.033 371.4 313.6 371.5 313.2 371.7C312.8 371.9 312.467 372.2 312.2 372.6C311.867 372.933 311.6 373.333 311.4 373.8L311.2 375.2V379.9H309.6V370.3ZM324 378C324.2 378.267 324.3 378.6 324.3 379C324.3 379.267 324.167 379.533 323.9 379.8C323.7 380 323.433 380.1 323.1 380.1C322.7 380.1 322.367 380 322.1 379.8C321.9 379.533 321.8 379.233 321.8 378.9C321.8 378.567 321.933 378.3 322.2 378.1C322.467 377.833 322.767 377.7 323.1 377.7C323.367 377.7 323.633 377.833 323.9 378.1L324 378ZM330 370.3H337.5V371.3L331.7 378.6H337.7L338 378.5V379.9H329.6V378.9L335.6 371.6H330V370.3ZM341.3 370.3H345.1V378.7H347.4V379.9H341.2V378.7H343.6V371.5H341.3V370.3ZM343.6 366.4C343.8 366.2 344.067 366.1 344.4 366.1C344.667 366.1 344.9 366.2 345.1 366.4C345.367 366.667 345.5 366.933 345.5 367.2C345.5 367.467 345.367 367.733 345.1 368C344.9 368.2 344.667 368.3 344.4 368.3C344.067 368.3 343.8 368.2 343.6 368C343.4 367.733 343.3 367.467 343.3 367.2C343.3 366.867 343.4 366.6 343.6 366.4ZM350.8 370.3H352.3V371.8C352.633 371.267 353.067 370.833 353.6 370.5C354.133 370.233 354.7 370.1 355.3 370.1C355.833 370.1 356.333 370.2 356.8 370.4C357.267 370.6 357.7 370.9 358.1 371.3C358.433 371.7 358.7 372.2 358.9 372.8C359.167 373.467 359.3 374.2 359.3 375C359.3 375.867 359.167 376.6 358.9 377.2C358.7 377.867 358.4 378.433 358 378.9C357.6 379.3 357.167 379.633 356.7 379.9C356.233 380.033 355.733 380.1 355.2 380.1C354.667 380.1 354.133 379.967 353.6 379.7C353.133 379.433 352.733 379.1 352.4 378.7V383.4H350.8V370.3ZM352.3 375.9C352.3 376.967 352.567 377.7 353.1 378.1C353.5 378.567 354.033 378.8 354.7 378.8L355.7 378.6C356.1 378.533 356.433 378.367 356.7 378.1C357.033 377.767 357.267 377.4 357.4 377C357.6 376.533 357.7 375.967 357.7 375.3C357.7 374.033 357.433 373.067 356.9 372.4C356.433 371.733 355.733 371.4 354.8 371.4L353.9 371.5L353.1 372L352.6 373C352.4 373.4 352.3 373.867 352.3 374.4V375.9ZM366.7 368.4L366.5 367.1C366.5 366.7 366.6 366.367 366.8 366.1L367.4 365.9C367.667 365.9 367.9 366 368.1 366.2C368.3 366.4 368.4 366.733 368.4 367.2C368.4 367.667 368.167 368.533 367.7 369.8L367.2 371.2L366 371L366.5 369.5L366.7 368.4ZM363.1 368.4L362.9 367.1C362.9 366.7 363 366.367 363.2 366.1L363.8 365.9C364.067 365.9 364.3 366 364.5 366.2C364.7 366.4 364.8 366.733 364.8 367.2C364.8 367.667 364.567 368.533 364.1 369.8L363.6 371.2L362.4 371L362.8 369.5L363 368.9V368.4H363.1Z" fill="#DE4F4F"/>
<path d="M376.4 371.4C376.667 371.6 376.8 371.867 376.8 372.2C376.8 372.533 376.667 372.833 376.4 373.1C376.2 373.3 375.933 373.4 375.6 373.4C375.267 373.4 374.933 373.3 374.6 373.1C374.4 372.833 374.3 372.533 374.3 372.2C374.3 371.867 374.433 371.6 374.7 371.4C374.967 371.133 375.267 371 375.6 371C375.867 371 376.133 371.133 376.4 371.4ZM376.4 378.1C376.667 378.3 376.8 378.567 376.8 378.9C376.8 379.233 376.667 379.533 376.4 379.8C376.2 380 375.933 380.1 375.6 380.1C375.2 380.1 374.867 380 374.6 379.8C374.4 379.533 374.3 379.233 374.3 378.9C374.3 378.567 374.433 378.3 374.7 378.1C374.967 377.833 375.267 377.7 375.6 377.7C375.867 377.7 376.133 377.833 376.4 378.1ZM397.8 366.8V379.8H396.4V368.6L393.7 369.4L393.4 368.6L396.8 366.8H397.8ZM419.7 370.2L419.6 371.7C419.6 372.5 419.767 373.067 420.1 373.4C420.433 373.733 420.9 373.9 421.5 373.9H422V375.1H421.5C420.9 375.1 420.433 375.267 420.1 375.6C419.833 375.933 419.7 376.567 419.7 377.5V379.5C419.7 380.833 419.433 381.767 418.9 382.3C418.3 382.967 417.4 383.3 416.2 383.3H414.5V382H416.9L417.2 381.8L417.4 381.7C417.933 381.3 418.2 380.567 418.2 379.5V377.8C418.2 376 418.767 374.9 419.9 374.5C418.7 373.967 418.1 372.933 418.1 371.4V369.9C418.1 369.1 417.967 368.533 417.7 368.2C417.3 367.867 416.767 367.7 416.1 367.7H414.5V366.5H416.6C417.133 366.567 417.633 366.733 418.1 367C418.567 367.267 418.933 367.633 419.2 368.1C419.533 368.633 419.7 369.3 419.7 370.1V370.2Z" fill="#1D4595"/>
<path d="M435.2 365.6H437.2V379.9H435.2V365.6ZM442 370.5V371.7C442.8 370.767 443.733 370.3 444.8 370.3C445.467 370.3 446.033 370.433 446.5 370.7C446.967 371.033 447.333 371.467 447.6 372C447.867 372.533 448 373.367 448 374.5V379.9H446.2V374.5C446.2 373.567 446.033 372.9 445.7 372.5C445.433 372.033 444.933 371.8 444.2 371.8C443.333 371.8 442.6 372.233 442 373.1V379.9H440V370.5H442ZM457 365.6H458.8V379.9H454.8C453.467 379.9 452.367 379.467 451.5 378.6C450.633 377.667 450.2 376.467 450.2 375C450.2 373.667 450.633 372.533 451.5 371.6C452.367 370.667 453.5 370.2 454.9 370.2C455.567 370.2 456.233 370.333 456.9 370.6V365.6H457ZM457 378.3V372.3C456.333 372.033 455.733 371.9 455.2 371.9C454.267 371.9 453.5 372.2 452.9 372.8C452.367 373.4 452.1 374.2 452.1 375.2C452.1 376.2 452.333 376.967 452.8 377.5C453.133 377.833 453.467 378.033 453.8 378.1C454.067 378.233 454.633 378.3 455.5 378.3H456.9H457ZM469.4 375.3H462.7C462.767 376.233 463.1 376.967 463.7 377.5C464.233 378.033 464.933 378.3 465.8 378.3C467 378.3 468.133 377.9 469.2 377.1V379L467.5 379.8C466.967 379.933 466.3 380 465.5 380C464.5 380 463.667 379.8 463 379.4C462.333 378.933 461.8 378.367 461.4 377.7C461.067 376.967 460.9 376.1 460.9 375.1C460.9 373.7 461.3 372.533 462.1 371.6C462.9 370.733 463.967 370.3 465.3 370.3C466.5 370.3 467.5 370.733 468.3 371.6C468.967 372.467 469.3 373.633 469.3 375.1V375.3H469.4ZM462.8 374.3H467.5C467.5 373.5 467.3 372.9 466.9 372.5C466.5 372.1 465.967 371.9 465.3 371.9C464.633 371.9 464.067 372.1 463.6 372.5C463.2 372.9 462.933 373.467 462.8 374.2V374.3ZM477.9 370.5H480.3L476.3 375.1L480.6 379.9H478.2L475.2 376.5L472.4 379.9H470.1L474.1 375.1L470.1 370.5H472.4L475.2 373.7L477.9 370.5Z" fill="#1D4595"/>
<path d="M577 97H579.9V98H578.2V106.9H579.9V107.9H577V96.9V97ZM583 116.5V115.5L583.7 115.4C583.9 115.267 584.033 115.067 584.1 114.8L584.2 113.3L584.3 111.7L584.7 110.9L585.2 110.5H586.4V111.4H586.2C585.8 111.4 585.533 111.467 585.4 111.6C585.267 111.733 585.2 112.067 585.2 112.6V114.7L584.8 115.5L584 116.1C584.467 116.3 584.8 116.567 585 116.9C585.133 117.3 585.2 117.9 585.2 118.7V119.6C585.2 120.067 585.267 120.4 585.4 120.6C585.533 120.733 585.8 120.8 586.2 120.8H586.4V121.7H586.1L585.1 121.6L584.7 121.2L584.3 120.4V118.8C584.3 118.133 584.233 117.667 584.1 117.4C584.1 117.133 583.967 116.9 583.7 116.7C583.5 116.567 583.267 116.5 583 116.5ZM590.3 113.8H594.9L592 118.2H594.9V119.2H590.2L593 114.8H590.3V113.8ZM596.4 111.5L596.8 111.7L597 112.1C597 112.3 596.933 112.467 596.8 112.6L596.4 112.8C596.2 112.8 596.033 112.733 595.9 112.6C595.767 112.467 595.7 112.3 595.7 112.1L595.9 111.7C596.033 111.567 596.2 111.5 596.4 111.5ZM595.8 113.8H596.9V119.2H595.9V113.8H595.8ZM598.4 122V113.8H600.2C601.2 113.8 601.967 114.033 602.5 114.5C603.033 114.967 603.3 115.633 603.3 116.5C603.3 117.3 603.033 117.967 602.5 118.5C602.033 119.033 601.4 119.3 600.6 119.3C600.267 119.3 599.9 119.2 599.5 119V122H598.4ZM600.2 114.8H599.5V118.1C599.767 118.233 600.1 118.3 600.5 118.3C600.967 118.3 601.367 118.133 601.7 117.8C602.033 117.467 602.2 117.033 602.2 116.5L602 115.5C601.8 115.233 601.567 115.067 601.3 115C601.1 114.867 600.767 114.8 600.3 114.8H600.2ZM605 117.8C605.133 117.8 605.267 117.9 605.4 118.1C605.6 118.233 605.7 118.4 605.7 118.6C605.7 118.8 605.6 118.967 605.4 119.1C605.267 119.233 605.1 119.3 604.9 119.3L604.4 119.1C604.267 118.967 604.2 118.8 604.2 118.6C604.2 118.4 604.267 118.233 604.4 118.1C604.533 117.9 604.7 117.8 604.9 117.8H605ZM605 113.7C605.2 113.7 605.367 113.767 605.5 113.9C605.7 114.033 605.8 114.2 605.8 114.4C605.8 114.6 605.7 114.767 605.5 114.9C605.367 115.033 605.2 115.1 605 115.1C604.8 115.1 604.633 115.033 604.5 114.9C604.367 114.767 604.3 114.6 604.3 114.4C604.3 114.2 604.367 114.033 604.5 113.9C604.633 113.767 604.8 113.7 605 113.7ZM610 113.6H609.3L609 112V110.6H610.2V112L609.9 113.6H610ZM611.9 113.6H611.2L610.9 112V110.6H612.1V112L611.9 113.6ZM615.1 111H616.3V119.2H615V111H615.1ZM621.7 110.9C622.5 110.9 623.133 111.3 623.6 112.1C624.067 112.833 624.3 113.833 624.3 115.1C624.3 116.3 624.067 117.3 623.6 118.1C623.133 118.9 622.467 119.3 621.6 119.3C620.867 119.3 620.267 118.9 619.8 118.1C619.267 117.367 619 116.367 619 115.1C619 113.833 619.267 112.833 619.8 112.1C620.267 111.3 620.933 110.9 621.8 110.9H621.7ZM621.7 112C621.233 112 620.9 112.267 620.7 112.8C620.367 113.4 620.2 114.167 620.2 115.1C620.2 116.033 620.333 116.8 620.6 117.4C620.867 117.933 621.2 118.2 621.6 118.2C622.067 118.2 622.433 117.933 622.7 117.4C622.967 116.8 623.1 116.033 623.1 115.1C623.1 114.167 623 113.4 622.8 112.8C622.533 112.267 622.2 112 621.8 112H621.7ZM627.7 110.9C628.5 110.9 629.133 111.3 629.6 112.1C630.067 112.833 630.3 113.833 630.3 115.1C630.3 116.3 630.067 117.3 629.6 118.1C629.133 118.9 628.467 119.3 627.6 119.3C626.867 119.3 626.267 118.9 625.8 118.1C625.267 117.367 625 116.367 625 115.1C625 113.833 625.267 112.833 625.8 112.1C626.267 111.3 626.933 110.9 627.8 110.9H627.7ZM627.7 112C627.233 112 626.9 112.267 626.7 112.8C626.367 113.4 626.2 114.167 626.2 115.1C626.2 116.033 626.333 116.8 626.6 117.4C626.867 117.933 627.2 118.2 627.6 118.2C628.067 118.2 628.433 117.933 628.7 117.4C628.967 116.8 629.1 116.033 629.1 115.1C629.1 114.167 629 113.4 628.8 112.8C628.533 112.267 628.2 112 627.8 112H627.7ZM632.8 114.4H632.9C633.433 114.4 633.833 114.3 634.1 114.1C634.367 113.9 634.5 113.567 634.5 113.1C634.5 112.767 634.367 112.5 634.1 112.3C633.833 112.033 633.5 111.9 633.1 111.9C632.633 111.9 632.167 112.033 631.7 112.3V111.3C632.167 111.033 632.667 110.9 633.2 110.9C633.933 110.9 634.533 111.1 635 111.5C635.4 111.9 635.6 112.433 635.6 113.1C635.6 113.5 635.533 113.833 635.4 114.1C635.2 114.433 634.933 114.7 634.6 114.9C634.933 114.967 635.167 115.1 635.3 115.3L635.6 116L635.8 116.8C635.8 117.467 635.533 118.067 635 118.6C634.533 119.067 633.933 119.3 633.2 119.3C632.6 119.3 632 119.133 631.4 118.8V117.5C632.067 117.9 632.667 118.1 633.2 118.1C633.6 118.1 633.933 118 634.2 117.8C634.467 117.533 634.6 117.2 634.6 116.8C634.6 116.467 634.5 116.2 634.3 116L633.9 115.7L632.9 115.5V114.5L632.8 114.4ZM640.4 111V110.9L641.2 111.8C640.533 112.2 640 112.633 639.6 113.1C639.2 113.567 638.867 114.133 638.6 114.8C639.067 114.533 639.533 114.4 640 114.4C640.667 114.4 641.2 114.633 641.6 115.1C642.067 115.567 642.3 116.133 642.3 116.8C642.3 117.467 642.033 118.067 641.5 118.6C641.033 119.067 640.467 119.3 639.8 119.3C639 119.3 638.367 119.033 637.9 118.5C637.433 117.9 637.2 117.167 637.2 116.3C637.2 115.633 637.333 114.967 637.6 114.3L638.6 112.5C639.067 111.967 639.667 111.467 640.4 111ZM638.4 116V116.6C638.4 117.067 638.533 117.433 638.8 117.7C639.067 118.033 639.4 118.2 639.8 118.2C640.2 118.2 640.533 118.067 640.8 117.8C641 117.533 641.1 117.2 641.1 116.8C641.1 116.467 640.967 116.133 640.7 115.8C640.433 115.6 640.1 115.5 639.7 115.5L639.1 115.6L638.4 116ZM644.2 113.6H643.5L643.2 112V110.6H644.4V112L644.2 113.6ZM646.1 113.6H645.5L645.2 112V110.6H646.4V112L646.1 113.6ZM647.5 120.6V120.4L647.9 119.9L648 119.2C647.6 119.067 647.4 118.8 647.4 118.4C647.4 118.2 647.467 118.033 647.6 117.9C647.733 117.7 647.9 117.6 648.1 117.6C648.367 117.6 648.567 117.7 648.7 117.9C648.833 118.167 648.9 118.467 648.9 118.8C648.9 119.2 648.767 119.533 648.5 119.8C648.3 120.2 647.967 120.467 647.5 120.6ZM653 117.9C653.2 117.9 653.367 117.967 653.5 118.1C653.633 118.233 653.7 118.4 653.7 118.6C653.7 118.8 653.633 118.967 653.5 119.1C653.367 119.233 653.2 119.3 653 119.3C652.8 119.3 652.633 119.233 652.5 119.1C652.367 118.967 652.3 118.8 652.3 118.6C652.3 118.4 652.367 118.233 652.5 118.1C652.633 117.967 652.8 117.9 653 117.9ZM655.6 117.9C655.8 117.9 655.967 117.967 656.1 118.1C656.233 118.233 656.3 118.4 656.3 118.6C656.3 118.8 656.233 118.967 656.1 119.1C655.967 119.233 655.8 119.3 655.6 119.3C655.4 119.3 655.233 119.233 655.1 119.1C654.967 118.967 654.9 118.8 654.9 118.6C654.9 118.4 654.967 118.233 655.1 118.1C655.233 117.967 655.4 117.9 655.6 117.9ZM658.2 117.9C658.4 117.9 658.567 117.967 658.7 118.1C658.9 118.233 659 118.4 659 118.6C659 118.8 658.9 118.967 658.7 119.1C658.567 119.233 658.4 119.3 658.2 119.3C658 119.3 657.833 119.233 657.7 119.1C657.567 118.967 657.5 118.8 657.5 118.6C657.5 118.4 657.567 118.233 657.7 118.1C657.833 117.967 658 117.9 658.2 117.9ZM662 110.4H662.3C662.7 110.4 663 110.467 663.2 110.6C663.4 110.6 663.567 110.733 663.7 111C663.9 111.2 664.033 111.433 664.1 111.7V113.3L664.2 114.8C664.267 115.067 664.4 115.267 664.6 115.4C664.8 115.533 665.033 115.6 665.3 115.6V116.6L664.7 116.8C664.433 116.933 664.267 117.133 664.2 117.4V118.8L664.1 120.4L663.7 121.2C663.567 121.4 663.4 121.533 663.2 121.6H662V120.8H662.1C662.567 120.8 662.867 120.7 663 120.5C663.133 120.367 663.2 120.033 663.2 119.5V118.7C663.2 117.9 663.267 117.3 663.4 116.9C663.6 116.567 663.933 116.3 664.4 116.1L663.6 115.6L663.3 114.8L663.2 113.4V112.6C663.2 112.067 663.133 111.733 663 111.6C662.867 111.467 662.567 111.4 662.1 111.4H662V110.4ZM666.3 120.6V120.4L666.6 119.9L666.7 119.2C666.3 119.067 666.1 118.8 666.1 118.4C666.1 118.2 666.167 118.033 666.3 117.9C666.5 117.7 666.667 117.6 666.8 117.6C667.067 117.6 667.267 117.7 667.4 117.9C667.6 118.167 667.7 118.467 667.7 118.8C667.7 119.2 667.567 119.533 667.3 119.8C667.033 120.2 666.7 120.467 666.3 120.6ZM583 130.5V129.5L583.7 129.4C583.9 129.267 584.033 129.067 584.1 128.8L584.2 127.3L584.3 125.7L584.7 124.9L585.2 124.5H586.4V125.4H586.2C585.8 125.4 585.533 125.467 585.4 125.6C585.267 125.733 585.2 126.067 585.2 126.6V128.7L584.8 129.5L584 130.1C584.467 130.3 584.8 130.567 585 130.9C585.133 131.3 585.2 131.9 585.2 132.7V133.6C585.2 134.067 585.267 134.4 585.4 134.6C585.533 134.733 585.8 134.8 586.2 134.8H586.4V135.7H586.1L585.1 135.6L584.7 135.2L584.3 134.4V132.8C584.3 132.133 584.233 131.667 584.1 131.4C584.1 131.133 583.967 130.9 583.7 130.7C583.5 130.567 583.267 130.5 583 130.5ZM590.3 127.8H594.9L592 132.2H594.9V133.2H590.2L593 128.8H590.3V127.8ZM596.4 125.5L596.8 125.7L597 126.1C597 126.3 596.933 126.467 596.8 126.6L596.4 126.8C596.2 126.8 596.033 126.733 595.9 126.6C595.767 126.467 595.7 126.3 595.7 126.1L595.9 125.7C596.033 125.567 596.2 125.5 596.4 125.5ZM595.8 127.8H596.9V133.2H595.9V127.8H595.8ZM598.4 136V127.8H600.2C601.2 127.8 601.967 128.033 602.5 128.5C603.033 128.967 603.3 129.633 603.3 130.5C603.3 131.3 603.033 131.967 602.5 132.5C602.033 133.033 601.4 133.3 600.6 133.3C600.267 133.3 599.9 133.2 599.5 133V136H598.4ZM600.2 128.8H599.5V132.1C599.767 132.233 600.1 132.3 600.5 132.3C600.967 132.3 601.367 132.133 601.7 131.8C602.033 131.467 602.2 131.033 602.2 130.5L602 129.5C601.8 129.233 601.567 129.067 601.3 129C601.1 128.867 600.767 128.8 600.3 128.8H600.2ZM605 131.8C605.133 131.8 605.267 131.9 605.4 132.1C605.6 132.233 605.7 132.4 605.7 132.6C605.7 132.8 605.6 132.967 605.4 133.1C605.267 133.233 605.1 133.3 604.9 133.3L604.4 133.1C604.267 132.967 604.2 132.8 604.2 132.6C604.2 132.4 604.267 132.233 604.4 132.1C604.533 131.9 604.7 131.8 604.9 131.8H605ZM605 127.7C605.2 127.7 605.367 127.767 605.5 127.9C605.7 128.033 605.8 128.2 605.8 128.4C605.8 128.6 605.7 128.767 605.5 128.9C605.367 129.033 605.2 129.1 605 129.1C604.8 129.1 604.633 129.033 604.5 128.9C604.367 128.767 604.3 128.6 604.3 128.4C604.3 128.2 604.367 128.033 604.5 127.9C604.633 127.767 604.8 127.7 605 127.7ZM610 127.6H609.3L609 126V124.6H610.2V126L609.9 127.6H610ZM611.9 127.6H611.2L610.9 126V124.6H612.1V126L611.9 127.6ZM615 133.3L614.2 132.4C614.867 132 615.4 131.533 615.8 131C616.267 130.467 616.567 129.9 616.7 129.3C616.3 129.567 615.867 129.7 615.4 129.7C614.733 129.7 614.2 129.467 613.8 129C613.333 128.533 613.1 127.967 613.1 127.3C613.1 126.633 613.333 126.067 613.8 125.6C614.267 125.133 614.867 124.9 615.6 124.9C616.333 124.9 616.967 125.167 617.5 125.7C617.967 126.3 618.2 127.033 618.2 127.9C618.2 128.9 617.867 129.9 617.2 130.9C616.667 131.9 615.9 132.7 614.9 133.3H615ZM617 128.2V127.6C617 127.133 616.867 126.733 616.6 126.4C616.333 126.133 616 126 615.6 126C615.2 126 614.867 126.1 614.6 126.3C614.4 126.567 614.3 126.9 614.3 127.3C614.3 127.633 614.433 127.967 614.7 128.3C614.967 128.5 615.3 128.6 615.7 128.6C616.1 128.6 616.5 128.467 616.9 128.2H617ZM623 124.9H623.4V129.5H624.4V130.5H623.4V133.2H622.3V130.5H618.8V130L622.9 124.9H623ZM622.3 129.5V127L620.3 129.4H622.3V129.5ZM626.8 128.4H626.9C627.433 128.4 627.833 128.3 628.1 128.1C628.367 127.9 628.5 127.567 628.5 127.1C628.5 126.767 628.367 126.5 628.1 126.3C627.833 126.033 627.5 125.9 627.1 125.9C626.633 125.9 626.167 126.033 625.7 126.3V125.3C626.167 125.033 626.667 124.9 627.2 124.9C627.933 124.9 628.533 125.1 629 125.5C629.4 125.9 629.6 126.433 629.6 127.1C629.6 127.5 629.533 127.833 629.4 128.1C629.2 128.433 628.933 128.7 628.6 128.9C628.933 128.967 629.167 129.1 629.3 129.3L629.6 130L629.8 130.8C629.8 131.467 629.533 132.067 629 132.6C628.533 133.067 627.933 133.3 627.2 133.3C626.6 133.3 626 133.133 625.4 132.8V131.5C626.067 131.9 626.667 132.1 627.2 132.1C627.6 132.1 627.933 132 628.2 131.8C628.467 131.533 628.6 131.2 628.6 130.8C628.6 130.467 628.5 130.2 628.3 130L627.9 129.7L626.9 129.5V128.5L626.8 128.4ZM633.7 124.9C634.5 124.9 635.133 125.3 635.6 126.1C636.067 126.833 636.3 127.833 636.3 129.1C636.3 130.3 636.067 131.3 635.6 132.1C635.133 132.9 634.467 133.3 633.6 133.3C632.867 133.3 632.267 132.9 631.8 132.1C631.267 131.367 631 130.367 631 129.1C631 127.833 631.267 126.833 631.8 126.1C632.267 125.3 632.933 124.9 633.8 124.9H633.7ZM633.7 126C633.233 126 632.9 126.267 632.7 126.8C632.367 127.4 632.2 128.167 632.2 129.1C632.2 130.033 632.333 130.8 632.6 131.4C632.867 131.933 633.2 132.2 633.6 132.2C634.067 132.2 634.433 131.933 634.7 131.4C634.967 130.8 635.1 130.033 635.1 129.1C635.1 128.167 635 127.4 634.8 126.8C634.533 126.267 634.2 126 633.8 126H633.7ZM639.1 125H640.3V133.2H639V125H639.1ZM644.2 127.6H643.5L643.2 126V124.6H644.4V126L644.2 127.6ZM646.1 127.6H645.5L645.2 126V124.6H646.4V126L646.1 127.6ZM647.5 134.6V134.4L647.9 133.9L648 133.2C647.6 133.067 647.4 132.8 647.4 132.4C647.4 132.2 647.467 132.033 647.6 131.9C647.733 131.7 647.9 131.6 648.1 131.6C648.367 131.6 648.567 131.7 648.7 131.9C648.833 132.167 648.9 132.467 648.9 132.8C648.9 133.2 648.767 133.533 648.5 133.8C648.3 134.2 647.967 134.467 647.5 134.6ZM653 131.9C653.2 131.9 653.367 131.967 653.5 132.1C653.633 132.233 653.7 132.4 653.7 132.6C653.7 132.8 653.633 132.967 653.5 133.1C653.367 133.233 653.2 133.3 653 133.3C652.8 133.3 652.633 133.233 652.5 133.1C652.367 132.967 652.3 132.8 652.3 132.6C652.3 132.4 652.367 132.233 652.5 132.1C652.633 131.967 652.8 131.9 653 131.9ZM655.6 131.9C655.8 131.9 655.967 131.967 656.1 132.1C656.233 132.233 656.3 132.4 656.3 132.6C656.3 132.8 656.233 132.967 656.1 133.1C655.967 133.233 655.8 133.3 655.6 133.3C655.4 133.3 655.233 133.233 655.1 133.1C654.967 132.967 654.9 132.8 654.9 132.6C654.9 132.4 654.967 132.233 655.1 132.1C655.233 131.967 655.4 131.9 655.6 131.9ZM658.2 131.9C658.4 131.9 658.567 131.967 658.7 132.1C658.9 132.233 659 132.4 659 132.6C659 132.8 658.9 132.967 658.7 133.1C658.567 133.233 658.4 133.3 658.2 133.3C658 133.3 657.833 133.233 657.7 133.1C657.567 132.967 657.5 132.8 657.5 132.6C657.5 132.4 657.567 132.233 657.7 132.1C657.833 131.967 658 131.9 658.2 131.9ZM662 124.4H662.3C662.7 124.4 663 124.467 663.2 124.6C663.4 124.6 663.567 124.733 663.7 125C663.9 125.2 664.033 125.433 664.1 125.7V127.3L664.2 128.8C664.267 129.067 664.4 129.267 664.6 129.4C664.8 129.533 665.033 129.6 665.3 129.6V130.6L664.7 130.8C664.433 130.933 664.267 131.133 664.2 131.4V132.8L664.1 134.4L663.7 135.2C663.567 135.4 663.4 135.533 663.2 135.6H662V134.8H662.1C662.567 134.8 662.867 134.7 663 134.5C663.133 134.367 663.2 134.033 663.2 133.5V132.7C663.2 131.9 663.267 131.3 663.4 130.9C663.6 130.567 663.933 130.3 664.4 130.1L663.6 129.6L663.3 128.8L663.2 127.4V126.6C663.2 126.067 663.133 125.733 663 125.6C662.867 125.467 662.567 125.4 662.1 125.4H662V124.4ZM579 149.8H576.2V148.8H577.8V140H576.2V139H579V150V149.8Z" fill="#DE4B01"/>
<path d="M580.6 148.6V148.4L581 147.9L581.1 147.2C580.7 147.067 580.5 146.8 580.5 146.4C580.5 146.2 580.567 146.033 580.7 145.9C580.833 145.7 581 145.6 581.2 145.6C581.467 145.6 581.667 145.7 581.8 145.9C581.933 146.167 582 146.467 582 146.8C582 147.2 581.867 147.533 581.6 147.8C581.4 148.2 581.067 148.467 580.6 148.6Z" fill="#0176C0"/>
<path d="M547 159.5C547.267 159.5 547.467 159.567 547.6 159.7C547.733 159.833 547.8 160 547.8 160.2C547.8 160.4 547.733 160.567 547.6 160.7C547.467 160.833 547.3 160.9 547.1 160.9C546.9 160.9 546.733 160.833 546.6 160.7C546.4 160.567 546.3 160.4 546.3 160.2C546.3 160 546.4 159.833 546.6 159.7C546.733 159.567 546.9 159.5 547.1 159.5H547ZM549.7 159.5C549.9 159.5 550.067 159.567 550.2 159.7C550.333 159.833 550.4 160 550.4 160.2C550.4 160.4 550.333 160.567 550.2 160.7C550.067 160.833 549.9 160.9 549.7 160.9C549.5 160.9 549.333 160.833 549.2 160.7C549.067 160.567 549 160.4 549 160.2C549 160 549.067 159.833 549.2 159.7C549.333 159.567 549.5 159.5 549.7 159.5ZM552.3 159.5C552.5 159.5 552.667 159.567 552.8 159.7C552.933 159.833 553 160 553 160.2C553 160.4 552.933 160.567 552.8 160.7C552.667 160.833 552.5 160.9 552.3 160.9C552.1 160.9 551.933 160.833 551.8 160.7C551.667 160.567 551.6 160.4 551.6 160.2C551.6 160 551.667 159.833 551.8 159.7C551.933 159.567 552.1 159.5 552.3 159.5ZM546 166H546.3C546.7 166 547.033 166.067 547.3 166.2C547.5 166.2 547.667 166.333 547.8 166.6L548.1 167.3L548.2 168.9L548.3 170.4C548.367 170.667 548.5 170.867 548.7 171C548.9 171.133 549.133 171.2 549.4 171.2V172.2C549.133 172.2 548.9 172.267 548.7 172.4C548.5 172.533 548.367 172.733 548.3 173L548.2 174.4V176L547.8 176.8C547.667 177 547.5 177.133 547.3 177.2H546V176.4H546.2C546.6 176.4 546.867 176.3 547 176.1C547.133 175.967 547.2 175.633 547.2 175.1V174.3C547.2 173.5 547.3 172.9 547.5 172.5C547.7 172.167 548.033 171.9 548.5 171.7L547.7 171.2L547.3 170.4V168.2C547.3 167.667 547.2 167.333 547 167.2C546.867 167.067 546.6 167 546.2 167H546V166Z" fill="#0176C0"/>
</svg>
