<svg xmlns="http://www.w3.org/2000/svg" height="540" width="520"><path d="M22 62c0 1 1.4 2 3 2h169c1.7 0 3-1 3-2V21c0-1.2-1.3-2-3-2H25c-1.6 0-3 .8-3 2v41" fill="#5a5955"/><path d="M76.1 48V31.8h5.5q3.4 0 5.3 1 2 1 3.1 3t1.1 4.2q0 1.7-.6 3.2-.6 1.5-1.8 2.6-1.2 1.2-2.8 1.8l-1.7.5h-8.1zm5.3-14.2h-3V46h3q1.8 0 2.8-.3 1-.2 1.6-.6.6-.3 1.2-.9 1.7-1.7 1.7-4.4T87 35.5q-.6-.6-1.5-1l-1.6-.6h-2.4zM96 37.3v2.5l.2-.2q1.5-2.5 3-2.5 1.3 0 2.6 1.2l-1.1 1.9q-1.1-1-2-1-1.1 0-1.9 1-.7 1-.7 2.3V48h-2.2V37.3h2.2zm8.4-4.5q.5 0 .9.3.4.4.4 1 0 .4-.4.8t-.9.4q-.5 0-.9-.4-.3-.4-.3-.9t.3-.8q.4-.4.9-.4zm-1 4.5h2v10.8h-2V37.3zm11.7 0h2.4l-4.8 11h-.7l-4.9-11h2.3l3 6.6 2.7-6.6zm12.7 5.6h-7.6q0 1.5 1 2.4 1 1 2.5 1 2.1 0 3.9-1.3v2q-1 .7-2 1-1 .3-2.2.3-1.8 0-3-.8-1-.7-1.7-2-.6-1.2-.6-2.9 0-2.4 1.3-4 1.4-1.5 3.7-1.5 2.1 0 3.4 1.5 1.3 1.5 1.3 4v.3zm-7.6-1.3h5.5q-.1-1.3-.8-2-.7-.6-1.8-.6-1.2 0-2 .6-.6.7-.9 2zm12.2-4.3v2.5-.2q1.6-2.5 3.2-2.5 1.2 0 2.5 1.2l-1.1 1.9q-1.1-1-2.1-1t-1.8 1q-.7 1-.7 2.3V48h-2.2V37.3h2.2zM74.8 246v-16.5H80q2.4 0 3.8 1.3 1.4 1.2 1.4 3.4 0 1.4-.7 2.5-.8 1.1-2 1.6t-3.6.5h-1.7v7.1h-2.4zm4.8-14.4h-2.4v5.1h2.6q1.4 0 2.2-.6.7-.7.7-2 0-2.5-3-2.5zm9.6 3.5v2.5l.1-.2q1.6-2.5 3.1-2.5 1.2 0 2.5 1.2l-1 2q-1.2-1.1-2.2-1.1-1 0-1.7 1-.8 1-.8 2.3v5.6h-2.1v-10.8h2.1zm8.3-4.5q.6 0 1 .4.3.3.3.8 0 .6-.4 1-.3.3-.9.3-.5 0-.8-.4-.4-.3-.4-.9 0-.4.4-.8.3-.4.8-.4zm-1 4.5h2.1V246h-2.1v-10.8zm14 2.9v8h-2.1v-6q0-1.9-.5-2.6-.5-.7-1.7-.7-.7 0-1.2.3-.6.3-1.3 1v8h-2.1v-11h2.1v1.4q1.7-1.6 3.2-1.6 2 0 3.2 2 1.7-2 3.6-2 1.5 0 2.5 1.1 1 1.2 1 3.5v6.4h-2v-6.4q0-1.3-.6-2-.6-.8-1.6-.8-1.3 0-2.5 1.4zm16.5 1.4v4.6q0 .6.3.6.4 0 1.2-.6v1.3q-.7.5-1.2.6-.4.2-.9.2-1.4 0-1.6-1-1.4 1-2.9 1-1.1 0-1.9-.8-.7-.7-.7-1.8 0-1 .7-1.9.7-.8 2.1-1.2l2.7-1v-.5q0-2-2-2-1.7 0-3.3 1.8v-2.3q1.2-1.5 3.6-1.5 1.7 0 2.8 1l.6.7q.3.5.3 1l.1 1.8zm-2.2 4.4v-3.2l-1.4.5q-1 .5-1.5 1-.5.3-.5 1t.4 1q.5.5 1.1.5 1 0 2-.8zm7.9-8.7v2.5l.1-.2q1.6-2.5 3.1-2.5 1.2 0 2.5 1.2l-1 2q-1.2-1.1-2.2-1.1-1 0-1.7 1-.8 1-.8 2.3v5.6h-2.1v-10.8h2.1zm14.5 0h2.4l-7.6 16.3h-2.4l3.7-7.8-4.2-8.5h2.4l3 6.1 2.7-6z" font-size="24" font-family="GillSans" fill="#fffffe"/><path d="M246.5 131.4v2.3L230 127v-.5l13.4-5.4-13.4-5.4v-.5l16.5-6.6v2.4l-11.3 4.5 11.3 4.5v2.2l-11.3 4.6 11.3 4.5zm-5.6 6.1h-2.5l.2.2q2.5 1.5 2.5 3 0 1.3-1.2 2.6L238 142q1-1 1-2t-1-1.8q-1-.8-2.3-.8h-5.6v-2.1H241v2.1zm4.5 8.4q0 .5-.3.9-.4.3-1 .3-.4 0-.8-.3-.4-.4-.4-1 0-.4.4-.8t.9-.4q.5 0 .8.4.4.4.4.9zm-4.5-1v2H230v-2h11zm-1.7 3.6l4 4h-2.3v3.4h-2v-3.4h-5.2q-1.9 0-1.9 1.5 0 1.2.8 2.5h-2q-.7-1.3-.7-2.7 0-1.5.9-2.4.2-.4.6-.6l.8-.3 2-.1h4.8v-1.9h.2zm-3.9 18.7v-7.6q-1.5.1-2.4 1-1 1-1 2.5 0 2.2 1.4 4h-2.1q-.7-1-1-2-.3-1-.3-2.3 0-1.8.8-2.9.7-1 2-1.7 1.2-.7 2.9-.7 2.4 0 4 1.4 1.5 1.4 1.5 3.6t-1.5 3.4q-1.5 1.3-4 1.3h-.3zm1.3-7.5v5.4q1.3 0 2-.8.7-.6.7-1.8 0-1.1-.7-1.9-.7-.7-2-1z" font-size="24" font-family="GillSans" fill="#3299cc"/><g stroke="#3299cc" stroke-width="4"><path d="M224.1 47.3l1.2 183.5" fill="none"/><path d="M220.5 230.8l4.9 12.8 4.7-12.8z" fill="#3299cc"/></g><path d="M197 229.8c0-.8-2.5-1.5-5.6-1.5H27.7c-3 0-5.6.7-5.6 1.5v42c0 .9 2.5 1.5 5.6 1.5h163.7c3.1 0 5.7-.6 5.7-1.4v-42.1" fill="#2a86c0"/><path d="M76.5 258.2v-16.4h5.2q2.3 0 3.7 1.3 1.4 1.2 1.4 3.4 0 1.4-.7 2.5t-2 1.6q-1.2.5-3.5.5h-1.7v7.1h-2.4zm4.8-14.3h-2.4v5.1h2.5q1.5 0 2.2-.7.8-.6.8-1.9 0-2.5-3.1-2.5zm9.6 3.5v2.5-.2q1.6-2.5 3.2-2.5 1.2 0 2.5 1.2l-1.1 1.9q-1.1-1-2.1-1t-1.8 1q-.7 1-.7 2.3v5.6h-2.2v-10.8H91zm8.3-4.5q.5 0 .9.3.4.4.4 1 0 .5-.4.8-.4.4-1 .4-.4 0-.8-.4-.3-.4-.3-.9t.3-.8q.4-.4.9-.4zm-1 4.5h2v10.8h-2v-10.8zm14 3v7.8H110v-6q0-1.8-.4-2.5-.5-.7-1.7-.7-.7 0-1.3.3l-1.2 1v7.9h-2.2v-10.8h2.2v1.4q1.6-1.6 3.2-1.6 2 0 3.1 2 1.8-2 3.6-2 1.6 0 2.6 1.1 1 1.2 1 3.5v6.4h-2.1v-6.4q0-1.3-.6-2-.5-.8-1.6-.8-1.3 0-2.4 1.4zm16.4 1.3v4.6q0 .6.4.6.3 0 1.2-.6v1.3l-1.2.6q-.4.2-1 .2-1.3 0-1.5-1-1.4 1-3 1-1 0-1.8-.8-.8-.7-.8-1.8 0-1 .8-1.9.7-.8 2-1.2l2.8-1v-.6q0-1.9-2-1.9-1.7 0-3.4 1.8v-2.3q1.3-1.5 3.6-1.5 1.8 0 2.8 1 .4.2.6.7l.4 1v1.8zm-2.1 4.4v-3.2l-1.4.5q-1.1.5-1.6.9-.4.4-.4 1 0 .8.4 1.2.4.4 1.1.4 1 0 1.9-.8zm7.9-8.7v2.5-.2q1.6-2.5 3.2-2.5 1.2 0 2.5 1.2l-1.1 1.9q-1.1-1-2.1-1t-1.8 1q-.7 1-.7 2.3v5.6h-2.2v-10.8h2.2zm14.5 0h2.4l-7.6 16.3h-2.4l3.7-7.8-4.2-8.5h2.4l3 6.1 2.7-6z" font-size="24" font-family="GillSans" fill="#fff"/><path d="M197 363.7c0-.8-2.5-1.5-5.6-1.5H27.7c-3 0-5.6.7-5.6 1.5v42c0 .9 2.5 1.5 5.6 1.5h163.7c3.1 0 5.7-.6 5.7-1.4v-42" fill="#5ca831"/><path d="M64.7 385.4l-1.8-1q-1.7-1.1-2.4-2-.7-1-.7-2.4 0-1.9 1.4-3.1 1.3-1.2 3.4-1.2 2.1 0 3.8 1.1v2.7q-1.8-1.7-3.8-1.7-1.1 0-1.9.5-.7.6-.7 1.4 0 .7.5 1.4.6.6 1.8 1.3l1.8 1q3 1.9 3 4.6 0 2-1.4 3.2-1.3 1.3-3.4 1.3-2.4 0-4.4-1.5v-3q1.9 2.4 4.4 2.4 1 0 1.8-.6t.8-1.6q0-1.5-2.2-2.8zm15.9 1.6H73q0 1.6 1 2.5 1 1 2.5 1 2 0 3.9-1.4v2.1q-1 .7-2 1-1 .2-2.3.2-1.7 0-2.8-.7-1.1-.7-1.8-2-.7-1.2-.7-2.9 0-2.4 1.4-4 1.4-1.5 3.7-1.5 2.1 0 3.4 1.5 1.3 1.5 1.3 4v.3zm-7.6-1.2h5.4q0-1.3-.7-2t-1.8-.7q-1.2 0-2 .7-.7.7-.9 2zm18 3.9v2.2q-1.7.6-3.2.6-2.5 0-4-1.5t-1.5-4q0-2.6 1.4-4.2 1.5-1.5 3.9-1.5l1.5.1 1.6.6v2.3q-1.6-1-3-1t-2.4 1q-.9 1-.9 2.6t1 2.6q1 1 2.7 1 1.2 0 2.8-.8zm7.5-8.2q2.5 0 4 1.6 1.7 1.5 1.7 4 0 2.3-1.6 3.8-1.7 1.6-4.2 1.6-2.4 0-4-1.6-1.7-1.6-1.7-4 0-2.3 1.7-3.9 1.6-1.5 4.1-1.5zm-.1 1.9q-1.5 0-2.5 1t-1 2.6q0 1.5 1 2.5t2.6 1q1.6 0 2.5-1 1-1 1-2.6 0-1.5-1-2.5t-2.6-1zm10.3-1.9v1.4q1.4-1.6 3.2-1.6 1 0 2 .5.8.5 1.2 1.4.5 1 .5 2.9v6.2h-2.1V386q0-1.6-.5-2.3-.6-.7-1.7-.7-1.5 0-2.6 1.5v7.7h-2.2v-10.8h2.2zm17.1-5.6h2.1v16.4h-4.6q-2.3 0-3.8-1.5-1.4-1.6-1.4-4.1 0-2.4 1.5-4 1.5-1.4 3.8-1.4 1.1 0 2.4.4V376zm0 14.5v-6.8q-1-.5-2-.5-1.6 0-2.6 1t-1 2.9q0 1.6.9 2.5.5.6 1 .8l2 .1h1.7zm11.8-4.6v4.6q0 .5.3.5.4 0 1.3-.6v1.3l-1.2.7q-.4.2-1 .2-1.3 0-1.5-1.1-1.4 1-3 1-1 0-1.8-.7-.8-.8-.8-1.9 0-1 .8-1.8.7-.8 2-1.3l2.8-1v-.5q0-2-2-2-1.7 0-3.4 1.9v-2.4q1.3-1.4 3.6-1.4 1.8 0 2.8.9.4.3.6.8l.4 1v1.8zm-2.1 4.3V387l-1.5.6q-1 .4-1.5.9-.4.4-.4 1 0 .7.4 1.1.4.5 1 .5 1.1 0 2-.9zm7.9-8.6v2.5-.2q1.6-2.5 3.2-2.5 1.2 0 2.5 1.2l-1.1 1.9q-1.2-1-2.1-1-1 0-1.8.9-.7 1-.7 2.3v5.7h-2.2v-10.8h2.2zm14.5 0h2.4l-7.6 16.3h-2.4l3.6-7.8-4.1-8.5h2.4l3 6 2.7-6z" font-size="24" font-family="GillSans" fill="#fffffe"/><g stroke="#3299cc" stroke-width="4"><path d="M224 259.3c-.2 42.2 54.4 48.4 67.6 16" fill="none"/><path d="M296.3 276.1l-2.4-13.4-7 11.8z" fill="#3299cc"/></g><path d="M237.3 295.3h1.6l7.4 16.4h-2.5l-2.1-4.8h-7l-2 4.8h-2.5l7-16.4zm3.4 9.5l-2.6-6-2.5 6h5.1zm6.9 12.4V301h3.8q2.9 0 4.4 1.5 1.7 1.4 1.7 4 0 2.4-1.6 4-1.5 1.5-3.8 1.5-1 0-2.3-.4v5.7h-2.2zm3.7-14.3h-1.5v6.7q1 .5 2 .5 1.6 0 2.5-1 1-1.1 1-2.8 0-1-.5-1.8-.4-.8-1.2-1.2-.8-.4-2.3-.4zm8.3 14.3V301h3.8q2.9 0 4.4 1.5 1.7 1.4 1.7 4 0 2.4-1.6 4-1.5 1.5-3.8 1.5-1 0-2.3-.4v5.7h-2.2zm3.7-14.3h-1.5v6.7q1 .5 2 .5 1.6 0 2.5-1 1-1.1 1-2.8 0-1-.5-1.8-.4-.8-1.2-1.2-.8-.4-2.3-.4zm8.5-7.6h2.2v16.4h-2.2v-16.4zm11.6 5.7h2.4l-7.6 16.2h-2.4l3.7-7.8-4.2-8.5h2.5l2.9 6.1 2.7-6zm38.6-31.3h16.3v4.1q0 2.5-1.2 4-1.2 1.4-3.3 1.4-1.5 0-2.5-.7t-1.6-2q-.5.8-1.4 1.5-.9.8-3 2.1l-2.2 1.4-1.1.9v-2.8l1-.7.2-.2.7-.4 1.2-.8 1.2-.8 1.7-1.3.8-1q.3-.6.3-1.7v-.6H322v-2.4zm14.3 3v-.6h-5.1v.9q0 1.8.3 2.4.3.7.9 1 .6.4 1.4.4.8 0 1.4-.4.6-.4.9-1.2.2-.7.2-2.4zm-9.1 20.4v-7.6q-1.6.1-2.5 1-1 1-1 2.5 0 2.1 1.4 4h-2q-.7-1-1-2-.3-1-.3-2.3 0-1.8.7-2.9.8-1 2-1.8 1.3-.6 2.9-.6 2.5 0 4 1.4t1.5 3.6q0 2.1-1.5 3.4-1.5 1.3-4 1.3h-.2zm1.2-7.5v5.4q1.3 0 2-.8.7-.7.7-1.8 0-1.2-.7-1.9t-2-1zm-11.9 9.7h16.2v3.7q0 2.9-1.4 4.5t-4 1.6q-2.4 0-4-1.6-1.5-1.5-1.5-3.8 0-1 .4-2.3h-5.7v-2.1zm14.2 3.6v-1.5h-6.6q-.5 1-.5 2 0 1.6 1 2.5 1 1 2.7 1 1 0 1.9-.5.8-.4 1.2-1.2.3-.8.3-2.3zm7.6 8.5v2.2H322v-2.2h16.3zm-1 6.4q0 .5-.4.9t-.9.4q-.5 0-.9-.4-.3-.4-.3-1 0-.4.3-.8.4-.4 1-.4.4 0 .8.4t.4.9zm-4.6-1v2H322v-2h10.7zm-8.2 13.2h-2.1q-.6-1.6-.6-3.1 0-2.5 1.5-4 1.5-1.6 4-1.6t4 1.5q1.6 1.5 1.6 3.9l-.1 1.5-.6 1.6h-2.3q1-1.6 1-3t-1-2.4q-1-.9-2.5-.9-1.7 0-2.7 1-1 1-1 2.7 0 1.2.8 2.8zm3.9 9.2H324q-.6 0-.6.4t.6 1.2h-1.3l-.7-1.2-.1-.9q0-1.4 1-1.6-1-1.4-1-2.9 0-1.1.7-1.9.8-.7 1.9-.7 1 0 1.8.7t1.3 2l1 2.8h.5q2 0 2-2 0-1.7-1.9-3.3h2.4q1.4 1.2 1.4 3.5 0 1.8-.9 2.8-.3.4-.8.7-.4.3-1 .3l-1.8.1zm-4.3-2h3.2l-.6-1.5q-.4-1.1-.8-1.6-.5-.4-1.1-.4-.7 0-1.1.4-.4.4-.4 1.1 0 1 .8 2zm6.9 4l4 4h-2.3v3.4h-1.9v-3.4h-5.3q-1.8 0-1.8 1.5 0 1.2.8 2.5h-2q-.7-1.3-.7-2.7 0-1.5.8-2.5l.6-.5.8-.3 2-.1h4.8v-2h.2zm-3.8 18.8v-7.7q-1.6.1-2.5 1-1 1-1 2.5 0 2.1 1.4 4h-2q-.7-1-1-2-.3-1-.3-2.3 0-1.8.7-2.9.8-1 2-1.7 1.3-.7 2.9-.7 2.5 0 4 1.4t1.5 3.6q0 2.2-1.5 3.4-1.5 1.3-4 1.3h-.2zm1.2-7.6v5.4q1.3 0 2-.8.7-.6.7-1.8 0-1.1-.7-1.9-.7-.7-2-1z" font-size="24" font-family="GillSans" fill="#3299cc"/><g stroke="#3299cc" stroke-width="4"><path d="M310.5 259.3v102.5" fill="none"/><path d="M305.7 361.8l4.8 12.8 4.8-12.8z" fill="#3299cc"/></g><path d="M197.6 42h300" stroke="#5a5955" stroke-width="4" fill="none"/><path d="M198.4 253.3h300" stroke="#3299cc" stroke-width="4" fill="none"/><path d="M198.4 384.6h300" stroke="#5ba831" stroke-width="4" fill="none"/><g stroke="#2a86c0" stroke-width="4"><path d="M381.4 378.2l.5-102.5" stroke-dasharray="8,8" fill="none"/><path d="M386.7 275.7l-4.7-12.8-4.9 12.7z" fill="#2a86c0"/></g><path d="M197 473.5c0-.8-2.5-1.4-5.6-1.4H27.7c-3 0-5.6.6-5.6 1.4v42.1c0 .8 2.5 1.5 5.6 1.5h163.7c3.1 0 5.7-.7 5.7-1.5v-42" fill="#5ca831"/><path d="M64.7 495.2l-1.8-1q-1.7-1-2.4-2t-.7-2.3q0-2 1.4-3.2 1.3-1.2 3.4-1.2 2.1 0 3.8 1.2v2.6q-1.8-1.7-3.8-1.7-1.1 0-1.9.6-.7.5-.7 1.3t.5 1.4q.6.7 1.8 1.4l1.8 1q3 1.8 3 4.6 0 2-1.4 3.2-1.3 1.2-3.4 1.2-2.4 0-4.4-1.5v-3q1.9 2.4 4.4 2.4 1 0 1.8-.6t.8-1.5q0-1.5-2.2-2.9zm15.9 1.8H73q0 1.5 1 2.4 1 .9 2.5.9 2 0 3.9-1.3v2q-1 .7-2 1-1 .3-2.3.3-1.7 0-2.8-.8-1.1-.7-1.8-2-.7-1.2-.7-2.8 0-2.5 1.4-4 1.4-1.6 3.7-1.6 2.1 0 3.4 1.5 1.3 1.5 1.3 4v.3zm-7.6-1.4h5.4q0-1.2-.7-2-.7-.6-1.8-.6-1.2 0-2 .7-.7.7-.9 2zm18 4v2.1q-1.7.6-3.2.6-2.5 0-4-1.5t-1.5-4q0-2.6 1.4-4.1 1.5-1.6 3.9-1.6.8 0 1.5.2.6.1 1.6.6v2.2q-1.6-1-3-1t-2.4 1q-.9 1-.9 2.6 0 1.7 1 2.6 1 1 2.7 1 1.2 0 2.8-.7zm7.5-8.3q2.5 0 4 1.6 1.7 1.6 1.7 4 0 2.3-1.6 3.9-1.7 1.5-4.2 1.5-2.4 0-4-1.6-1.7-1.5-1.7-3.9 0-2.3 1.7-4 1.6-1.5 4.1-1.5zm-.1 2q-1.5 0-2.5 1t-1 2.5q0 1.5 1 2.5t2.6 1q1.6 0 2.5-1 1-1 1-2.5 0-1.6-1-2.6t-2.6-1zm10.3-2v1.4q1.4-1.6 3.2-1.6 1 0 2 .5.8.6 1.2 1.5.5.9.5 2.8v6.2h-2.1V496q0-1.7-.5-2.4-.6-.7-1.7-.7-1.5 0-2.6 1.5v7.7h-2.2v-10.8h2.2zm17.1-5.6h2.1v16.4h-4.6q-2.3 0-3.8-1.5-1.4-1.5-1.4-4 0-2.4 1.5-4 1.5-1.5 3.8-1.5 1.1 0 2.4.5v-5.9zm0 14.6v-6.9q-1-.5-2-.5-1.6 0-2.6 1-1 1.1-1 2.9 0 1.7.9 2.6.5.5 1 .7.6.2 2 .2h1.7zm11.8-4.7v4.6q0 .6.3.6.4 0 1.3-.6v1.3l-1.2.6q-.4.2-1 .2-1.3 0-1.5-1-1.4 1-3 1-1 0-1.8-.8-.8-.7-.8-1.8 0-1 .8-1.9.7-.8 2-1.2l2.8-1v-.5q0-2-2-2-1.7 0-3.4 1.8v-2.3q1.3-1.5 3.6-1.5 1.8 0 2.8 1 .4.2.6.7l.4 1v1.8zm-2.1 4.4v-3.2l-1.5.5q-1 .5-1.5 1-.4.3-.4 1t.4 1q.4.5 1 .5 1.1 0 2-.8zm7.9-8.7v2.5-.2q1.6-2.5 3.2-2.5 1.2 0 2.5 1.2l-1.1 2q-1.2-1.1-2.1-1.1-1 0-1.8 1-.7 1-.7 2.3v5.6h-2.2v-10.8h2.2zm14.5 0h2.4l-7.6 16.3h-2.4l3.6-7.8-4.1-8.5h2.4l3 6.1 2.7-6z" font-size="24" font-family="GillSans" fill="#fffffe"/><path d="M198.4 495h300" stroke="#5ba831" stroke-width="4" fill="none"/><path d="M417 269.7h16.3v4.1q0 2.5-1.2 4-1.2 1.4-3.3 1.4-1.5 0-2.5-.7t-1.6-2q-.5.8-1.4 1.5-.9.8-3 2.1l-2.2 1.4-1.1.9v-2.8l1-.7.2-.2.7-.4 1.2-.8 1.3-.8 1.6-1.3.8-1q.3-.6.3-1.7v-.6H417v-2.4zm14.3 3v-.6h-5.1v.9q0 1.8.3 2.4.3.7.9 1 .6.4 1.4.4.8 0 1.4-.4.6-.4.9-1.2.2-.7.2-2.4zm-9.1 20.4v-7.6q-1.6.1-2.5 1-1 1-1 2.5 0 2.1 1.4 4h-2q-.7-1-1-2-.3-1-.3-2.3 0-1.8.7-2.9.8-1 2-1.8 1.3-.6 3-.6 2.4 0 3.9 1.4 1.6 1.4 1.6 3.6 0 2.1-1.5 3.4-1.5 1.3-4 1.3h-.3zm1.2-7.5v5.4q1.3 0 2-.8.7-.7.7-1.8 0-1.2-.7-1.9t-2-1zm-11.9 9.7h16.2v3.7q0 2.9-1.4 4.5t-4 1.6q-2.4 0-4-1.6-1.5-1.5-1.5-3.8 0-1 .4-2.3h-5.7v-2.1zm14.2 3.6v-1.5h-6.6q-.5 1-.5 2 0 1.6 1 2.5 1.1 1 2.7 1 1 0 1.9-.5.8-.4 1.2-1.2.3-.8.3-2.3zm7.6 8.5v2.2H417v-2.2h16.3zm-1 6.4q0 .5-.4.9t-.9.4q-.5 0-.9-.4-.3-.4-.3-1 0-.4.3-.8.4-.4 1-.4.4 0 .8.4t.4.9zm-4.6-1v2H417v-2h10.7zm-8.2 13.2h-2.1q-.6-1.6-.6-3.1 0-2.5 1.5-4 1.5-1.6 4-1.6t4 1.5q1.7 1.5 1.7 3.9 0 .8-.2 1.5l-.6 1.6h-2.3q1-1.6 1-3t-1-2.4q-1-.9-2.5-.9-1.7 0-2.7 1-1 1-1 2.7 0 1.2.8 2.8zm3.9 9.2H419q-.6 0-.6.4t.6 1.2h-1.3l-.7-1.2-.1-.9q0-1.4 1-1.6-1-1.4-1-2.9 0-1.1.7-1.9.8-.7 2-.7 1 0 1.7.7.8.7 1.3 2l1 2.8h.5q2 0 2-2 0-1.7-1.8-3.3h2.3q1.5 1.2 1.5 3.5 0 1.8-1 2.8l-.7.7q-.5.3-1 .3l-1.9.1zm-4.3-2h3.2l-.6-1.5q-.4-1.1-.8-1.6-.5-.4-1.1-.4-.7 0-1.1.4-.4.4-.4 1.1 0 1 .8 2zm6.9 4l4 4h-2.3v3.4h-1.9v-3.4h-5.3q-1.8 0-1.8 1.5 0 1.2.8 2.5h-2q-.7-1.3-.7-2.7 0-1.5.8-2.5l.6-.5.8-.3 2-.1h4.8v-2h.2zm-3.8 18.8v-7.7q-1.6.1-2.5 1-1 1-1 2.5 0 2.1 1.4 4h-2q-.7-1-1-2-.3-1-.3-2.3 0-1.8.7-2.9.8-1 2-1.7 1.3-.7 3-.7 2.4 0 3.9 1.4 1.6 1.4 1.6 3.6t-1.5 3.4q-1.5 1.3-4 1.3h-.3zm1.2-7.6v5.4q1.3 0 2-.8.7-.6.7-1.8 0-1.1-.7-1.9-.7-.7-2-1z" font-size="24" font-family="GillSans" fill="#3299cc"/><g stroke="#3299cc" stroke-width="4"><path d="M403.5 259.3L402 474.2" fill="none"/><path d="M397.3 474.2L402 487l5-12.8z" fill="#3299cc"/></g><path d="M215 83.5V85h-.3l-.2-.1h-.1l-6 1.2 5.9 1.4v.8l-5.8 1.7 2.6.4 1.7.3h1l1 .1h.3V92l-4.2-.6-4-.8v-1.2l5.2-1.5-5.3-1.4v-1.2l8.3-1.7zm0 10.5v1.4h-1.5q.8.3 1.3 1.1.5.9.5 1.8 0 1.3-1 2.2l-1.2-.6.5-.4.3-.3.2-.4v-.6q0-.6-.2-1-.3-.6-.8-1-.4-.4-1-.6-.6-.3-1.3-.3h-4V94h8.3zm0 9.2v3.3h-7v1.9h-1V103h1v2h6.1v-2h1zm3.4 2q.2.2.2.6 0 .4-.2.7-.3.3-.7.3-.4 0-.6-.3-.3-.3-.3-.7 0-.4.3-.6.2-.3.6-.3.4 0 .7.3zm-1.1 8.4l.2 1.5-.3-.1h-.2l-2-.3v2.7h-1v-2.7l-3-.1h-1.5q-.6 0-.9.2-.3.1-.5.4-.2.3-.2.8 0 .8.7 1.8l-1 .4q-1-1.2-1-2.5t.8-1.9q.8-.6 2.6-.5h1.7l2.3.1v-1.9h1v2l2.3.1zm-2 10.4q0 .6-.3 1.2-.2.6-.7 1-.5.5-1.2.8-.7.3-1.7.3h-.6v-6q-1 .1-1.5.4-.6.2-1 .6l-.5 1-.1.9q0 1.3 1 2.1l-.8.7q-1.2-1-1.2-2.9 0-.9.2-1.6.3-.7.8-1.3.6-.5 1.4-.8.8-.3 1.8-.3t1.9.3q.8.3 1.3.8.6.6.9 1.2.3.7.3 1.5zm-3.5-2.6v4.5h.3l.8-.1.7-.5.5-.6q.2-.4.2-.9 0-.8-.6-1.5t-2-.9zm3.7 14h.3q.6-.4 1-1 .3-.6.3-1.2t-.3-1.2q-.3-.5-1-1l-1.4-.6q-.8-.2-2-.2-1 0-1.9.2l-1.5.7q-.6.4-1 1-.3.6-.3 1.2 0 .7.4 1.3.4.6 1 1l-.6 1q-.5-.3-.8-.7l-.6-.8-.3-.9-.1-.8q0-1 .3-1.7.3-.8 1-1.4.7-.6 1.8-1 1-.3 2.6-.3t2.7.4q1.1.4 1.8 1 .7.7 1 1.4l.2 1.4-.1 1.1-.5 1q-.3.5-.7.8-.4.4-.9.6l-.6-1.2h.2zm-.3 6.4q0 .8-.3 1.4-.3.7-.8 1.2-.6.5-1.4.8-.8.3-1.8.3t-1.8-.3q-.8-.2-1.3-.7-.6-.6-.9-1.2-.3-.7-.3-1.5t.3-1.5q.4-.7 1-1.2.5-.5 1.3-.8.8-.3 1.7-.3 1 0 1.7.3.8.3 1.4.8.6.6.9 1.3.3.7.3 1.4zm-4.3 2.4q.8 0 1.4-.2l1-.5.6-.8q.2-.4.2-1l-.2-.9q-.2-.4-.6-.7-.4-.4-1-.6-.6-.2-1.3-.2-.7 0-1.3.2-.6.2-1 .6-.5.3-.7.7-.3.5-.3 1l.2 1q.2.4.6.7.5.4 1 .5.6.2 1.4.2zm-4.1 3.3h8.3v1.3h-1.5q.8.5 1.2 1.2.5.7.5 1.5l-.2 1q-.2.5-.6.8l-1.1.5q-.6.2-1.6.2h-5v-1.3h5q1.3 0 1.8-.4t.5-1l-.2-1-.5-.7-.8-.6q-.4-.2-1-.2h-4.8v-1.3zm6.9 16l-1-1h.2l.3-.2.4-.4q.5-.6.5-1.7l-.2-1q-.2-.5-.6-.8-.4-.4-1-.6-.6-.2-1.3-.2-.7 0-1.3.2l-1 .6-.7.9q-.2.5-.2 1.2 0 1.2 1 2l-.9.8q-1.3-1.2-1.3-3 0-.8.4-1.6.3-.7.9-1.3.5-.5 1.3-.8.8-.3 1.7-.3 1 0 1.7.3.8.3 1.4.8.6.6.9 1.3.3.8.3 1.7 0 1-.4 1.8t-1.1 1.3zm1.6 5.5q0 .6-.3 1.2-.2.6-.7 1-.5.5-1.2.8-.7.3-1.7.3h-.6v-6q-1 .1-1.5.4-.6.2-1 .6l-.5 1-.1.9q0 1.3 1 2.1l-.8.7q-1.2-1-1.2-2.9 0-.9.2-1.6.3-.7.8-1.3.6-.5 1.4-.8.8-.3 1.8-.3t1.9.3q.8.3 1.3.8.6.6.9 1.2.3.7.3 1.5zm-3.5-2.6v4.5h.3l.8-.1.7-.5.5-.7q.2-.3.2-.8 0-.8-.6-1.5t-2-.9zm3.2 8.6v1.4h-1.5q.8.3 1.3 1.1.5.9.5 1.8 0 1.3-1 2.2l-1.2-.6.5-.4.3-.3.2-.4v-.6q0-.6-.2-1-.3-.6-.8-1-.4-.4-1-.6-.6-.3-1.3-.3h-4V175h8.3zm-8.2 8.5h8.3v1.3h-1.5q.8.5 1.2 1.2.5.7.5 1.5l-.2 1q-.2.5-.6.8l-1.1.5q-.6.2-1.6.2h-5v-1.3h5q1.3 0 1.8-.4t.5-1l-.2-1-.5-.7-.8-.6q-.4-.2-1-.2h-4.8v-1.3zm7.3 12.8q-.3.3-.7.3-.4 0-.7-.3-.3-.3-.3-.8 0-.4.3-.7.3-.3.7-.3.4 0 .7.3.3.3.3.7 0 .4-.3.8zm-5.7 0q-.3.3-.7.3-.5 0-.8-.3-.3-.3-.3-.8 0-.4.3-.7.3-.3.8-.3.4 0 .7.3.3.3.3.7 0 .4-.3.8zM187.1 86.1h1.8q1.2 0 1.6-.3.4-.5.4-1.2v-.4h1v.3q0 .9.5 1.3.4.4 1.5.4h1.3q3.1 0 3.1 3.3v1h-1v-1.4q0-1.7-2-1.7h-1.2q-2 0-2.7-1.5-.5 1.5-2.7 1.5H187q-1.2 0-1.7.5-.4.6-.4 1.8v.9h-1v-2.2q.1-.7.5-1.3.8-1 2.6-1zm7.9 15.4v1.4h-.3l-.2-.1h-.1l-6 1.2 5.9 1.4v.8l-5.8 1.7 2.6.4 1.7.3h1l1 .1h.3v1.2l-4.2-.6-4-.8v-1.2l5.2-1.5-5.3-1.4v-1.2l8.3-1.7zm-.9 13.8q-.3.3-.7.3-.4 0-.7-.3-.3-.3-.3-.8 0-.4.3-.7.3-.3.7-.3.4 0 .7.3.3.3.3.7 0 .4-.3.8zm-5.7 0q-.3.3-.7.3-.5 0-.8-.3-.3-.3-.3-.8 0-.4.3-.7.3-.3.8-.3.4 0 .7.3.3.3.3.7 0 .4-.3.8zm7.9 14.4q.9.4 1.3 1.3.5.8.5 1.8 0 .7-.2 1.2l-.7 1q-.4.5-1 .8l-1.2.2-1-.1-1-.4-.7-.6-.7-.7-1-1-.6-.6-.6-.6-.7-.5-.8-.5v4.7l.1.2v.2h-1.2v-6.5h.8q1.3.6 2.3 1.4 1 .8 1.6 1.5l.8.9.7.7.7.4.6.2.6.1.8-.2q.4-.1.7-.4.3-.3.4-.7l.2-.7-.1-.9-.3-.6-.4-.5-.4-.2h-.2l.7-1zm-1.1 22.6h-1.3q-1 0-1.5.4t-.5 1.3v.3h-1v-.4q0-.7-.4-1.2-.4-.4-1.6-.4h-1.8q-1.6 0-2.4-.6-.7-.8-.7-2.3v-1.5h1v2l.2.3v.2q.6.7 2 .7h1.5q2.2 0 2.7 1.5.7-1.6 2.7-1.6h1.3q1 0 1.4-.4.5-.4.5-1.3v-1.4h1v1.9q0 .6-.4 1.2t-1 1q-.6.3-1.7.3z" font-size="18" font-family="Inconsolata" fill="#3299cc"/><g stroke="#3299cc" stroke-width="4"><path d="M381.6 248.6V65" fill="none"/><path d="M386.4 65l-4.8-12.8-4.8 12.8z" fill="#3299cc"/></g><path d="M387.3 99.8h16.4v4.1q0 2.5-1.2 4-1.3 1.4-3.4 1.4-1.4 0-2.4-.7t-1.6-2q-.5.7-1.4 1.5-.9.7-3.1 2l-2.1 1.5-1.2.8v-2.8l1.1-.7.2-.1.6-.5 1.2-.7 1.3-.8 1.6-1.3.9-1.1q.2-.5.2-1.6v-.6h-7v-2.4zm14.4 3v-.6h-5.2v.8q0 1.8.3 2.5.3.6 1 1 .6.4 1.4.4.7 0 1.4-.4.6-.4.8-1.2.3-.7.3-2.4zm-9.2 20.4v-7.6q-1.5 0-2.4 1-1 1-1 2.5 0 2.1 1.4 3.9h-2.1q-.7-1-1-2-.2-1-.2-2.2 0-1.8.7-3 .7-1 2-1.7 1.2-.7 2.9-.7 2.4 0 4 1.4 1.5 1.4 1.5 3.7 0 2.1-1.5 3.4-1.5 1.3-4 1.3h-.3zm1.3-7.6v5.5q1.3-.1 2-.8.7-.7.7-1.8 0-1.2-.7-2-.7-.6-2-.9zM388 125h2.4q-.6.8-1 1.8t-.4 1.6q0 .6.3 1.1.3.5.8.5t.8-.3l.9-1.4q1.1-2 2-2.7.7-.6 1.7-.6 1.2 0 2 1t.8 2.5q0 1.5-.9 3.2h-2q1-1.9 1-3.1 0-.6-.2-1-.3-.4-.7-.4-.4 0-.7.4-.4.3-.8 1.2l-.5.7q-1.5 2.7-3.3 2.7-1.4 0-2.2-1-.9-1-.9-2.7 0-1 .2-1.7l.8-1.9zm-6.2 9.5h16.3v3.7q0 3-1.4 4.5-1.5 1.6-4 1.6-2.4 0-4-1.5T387 139q0-1 .5-2.3h-5.8v-2.2zm14.3 3.7v-1.5h-6.6q-.5 1-.5 2 0 1.6 1 2.5 1 1 2.7 1 1 0 1.9-.5.8-.4 1.1-1.2.4-.8.4-2.3zm2 13.6q0 2.5-1.6 4-1.6 1.7-4 1.7-2.3 0-3.8-1.6-1.6-1.7-1.6-4.2 0-2.4 1.6-4 1.6-1.7 4-1.7 2.3 0 3.8 1.7 1.6 1.6 1.6 4.1zm-1.9-.1q0-1.5-1-2.5t-2.6-1q-1.5 0-2.5 1t-1 2.6q0 1.6 1 2.5 1 1 2.6 1 1.5 0 2.5-1t1-2.6zm1.9 10.3h-1.4q1.6 1.4 1.6 3.2 0 1-.5 2-.5.8-1.4 1.2-1 .5-3 .5h-6v-2.1h6q1.7 0 2.4-.5t.7-1.7q0-1.5-1.5-2.6h-7.7v-2.2h10.8v2.2zm-10.1 9.3h2.4l-1 1.9q-.4 1-.4 1.6 0 .6.3 1.1.3.5.8.5t.8-.3l.9-1.3q1.1-2.1 2-2.8.7-.6 1.7-.6 1.2 0 2 1t.8 2.5q0 1.5-.9 3.2h-2q1-1.9 1-3 0-.7-.2-1.1-.3-.4-.7-.4-.4 0-.7.4-.4.3-.8 1.2l-.5.7q-1.5 2.7-3.3 2.7-1.4 0-2.2-1-.9-1-.9-2.7 0-1 .2-1.7l.8-1.9zm4.5 18.9v-7.5q-1.5 0-2.4 1-1 1-1 2.5 0 2 1.4 3.9h-2.1q-.7-1-1-2-.2-1-.2-2.3 0-1.7.7-2.8.7-1.1 2-1.8 1.2-.7 2.9-.7 2.4 0 4 1.4 1.5 1.4 1.5 3.6t-1.5 3.5q-1.5 1.2-4 1.2h-.3zm1.3-7.5v5.4q1.3 0 2-.7t.7-1.9q0-1.1-.7-1.8-.7-.8-2-1z" font-size="24" font-family="GillSans" fill="#3299cc"/><g stroke="#3299cc" stroke-width="4"><path d="M312.3 386.4c-.1 42.2 54.4 48.5 67.7 16" fill="none"/><path d="M384.7 403.3l-2.5-13.5-7 11.8z" fill="#3299cc"/></g><path d="M325.6 422.4h1.7l7.3 16.5h-2.4L330 434h-7l-2 4.9h-2.4l7-16.5zm3.5 9.5l-2.7-6-2.4 6h5zm6.9 12.5V428h3.7q2.9 0 4.5 1.4t1.6 4q0 2.4-1.5 4-1.5 1.5-3.8 1.5-1 0-2.3-.4v5.8H336zm3.7-14.3h-1.5v6.6q1 .5 2 .5 1.5 0 2.5-1t1-2.7q0-1-.5-1.9-.5-.8-1.2-1.2-.8-.3-2.3-.3zm8.3 14.3V428h3.7q2.9 0 4.5 1.4t1.6 4q0 2.4-1.5 4-1.5 1.5-3.8 1.5-1 0-2.3-.4v5.8H348zm3.7-14.3h-1.5v6.6q1 .5 2 .5 1.5 0 2.5-1t1-2.7q0-1-.5-1.9-.5-.8-1.2-1.2-.8-.3-2.3-.3zm8.5-7.6h2.1v16.4h-2.1v-16.4zm11.6 5.5h2.4l-7.6 16.4h-2.4l3.7-7.8-4.2-8.5h2.4l3 6 2.7-6z" font-size="24" font-family="GillSans" fill="#3299cc"/></svg>