<svg xmlns="http://www.w3.org/2000/svg" height="650" width="850"><path d="M550.4 262h278.3v353.7H550.4z" fill="#fff"/><path d="M550.4 262h278.3v353.7H550.4zm0 44.1h278.3m-278.3 88.3h278.3m-278.3-44.1h278.3m-278.3 88.2l278.7.2m-278.7 44h278.3m-278.3 44.1h278.3" stroke="#173182" fill="none"/><path d="M557.8 285.2v-1.8q0-1.1-.4-1.6-.4-.4-1.1-.4h-.4v-1h.3q.9 0 1.3-.4.4-.5.4-1.5v-1.3q0-3.1 3.2-3.1h1.2v1h-1.5q-1.7 0-1.7 1.9v1.3q0 2-1.5 2.6 1.5.5 1.5 2.8v1.5q0 1.2.5 1.7t1.7.5h1v1H560q-.7-.1-1.3-.5-1-.8-1-2.7zm16.4.3v-8.2h1.3v1.5q.5-.8 1.2-1.2.7-.5 1.5-.5l1 .2q.5.2.8.6l.5 1q.2.7.2 1.6v5h-1.3v-5q0-1.2-.4-1.7-.4-.6-1-.6l-1 .2-.7.5-.6.8q-.2.5-.2 1.1v4.7h-1.3zm9.4-7.2q1-1.2 3-1.2 1.4 0 2.3.8.9.8.9 2.5v5.1h-1.3v-.9q-1.3 1.1-3 1.1-.6 0-1-.2l-1-.5-.5-.7q-.2-.4-.2-.9 0-1.2 1-2 1.2-.6 3.2-.7h1.5v-.3q0-1.2-.5-1.7t-1.6-.5q-1.3 0-2.2 1l-.6-1zm5 3.4h-1.2l-1.7.1q-.6.1-1 .4l-.5.5v.6q0 .6.4 1 .5.4 1.3.4l1-.1.7-.4.5-.5.3-.5q.2-.4.2-1v-.5zm3 3.8v-8.2h1.2v.8l.7-.7q.5-.3 1-.3t1 .3q.3.4.4 1 .3-.6.8-1 .5-.3 1-.3 1 0 1.3.6.4.6.4 1.5v6.3h-1.2v-6.7l-.2-.5-.3-.2h-.3q-.3 0-.5.2l-.4.4-.3.7-.1.7v5.4h-1.2v-5.7q0-1-.2-1.4-.2-.3-.6-.3-.5 0-.9.5t-.4 1.4v5.5h-1.2zm13-8.4l1.3.2q.6.3 1 .8.5.4.8 1.2.2.7.2 1.7v.6h-5.8q0 .9.3 1.5.2.5.6.9.4.4.9.5l1 .2q1.2 0 2-1l.8.8q-1 1.2-2.9 1.2-.9 0-1.6-.3-.8-.2-1.3-.8-.5-.5-.8-1.3-.3-.8-.3-1.9 0-1 .3-1.8t.8-1.4q.5-.5 1.2-.8.7-.3 1.5-.3zm-2.5 3.5h4.5v-.3l-.1-.8-.5-.7-.7-.5q-.3-.2-.8-.2-.8 0-1.5.6t-.9 1.9zm11.9-2.4q.3.3.3.8 0 .4-.3.7-.3.3-.8.3-.4 0-.7-.3-.3-.3-.3-.7 0-.5.3-.8.3-.3.7-.3.4 0 .8.3zm0 5.8q.3.3.3.7 0 .4-.3.7-.3.3-.8.3-.4 0-.7-.3-.3-.3-.3-.7 0-.4.3-.7.3-.3.7-.3.4 0 .8.3zm18.6-8.3l-.1-1.2q0-.5.2-.7.3-.3.6-.3t.5.3q.3.3.3.9 0 .5-.6 2.2l-.5 1.2-1-.2.4-1.2.2-1zm-3 0l-.2-1.2q0-.5.2-.7.3-.3.6-.3t.5.3q.3.3.3.9 0 .6-.6 2.2l-.5 1.2-1-.2.4-1.2.2-.5v-.5zm8 2.6q1-1.2 3-1.2 1.4 0 2.3.8.9.8.9 2.5v5.1h-1.3v-.9q-1.3 1.1-3 1.1-.6 0-1-.2l-1-.5-.5-.7q-.2-.4-.2-.9 0-1.2 1-2 1.2-.6 3.2-.7h1.5v-.3q0-1.2-.5-1.7t-1.6-.5q-1.3 0-2.2 1l-.6-1zm5 3.4h-1.2l-1.7.1q-.6.1-1 .4l-.5.5v.6q0 .6.4 1 .5.4 1.3.4l1-.1.7-.4.5-.5.3-.5q.2-.4.2-1v-.5zm3.9-8.1h3.6v10.9h2.4v1h-6.1v-1h2.4v-9.9h-2.3v-1zm13.1 2.1l-.1-1.2q0-.5.2-.7.3-.3.6-.3t.5.3q.3.3.3.9 0 .5-.6 2.2l-.5 1.2-1-.2.4-1.2.2-1zm-3 0l-.2-1.2q0-.5.2-.7.3-.3.6-.3t.5.3q.3.3.3.9 0 .6-.6 2.2l-.5 1.2-1-.2.4-1.2.2-.5v-.5zm11.8 9.5q0 1.4-1.9 3.4l-.6-.6.8-1q.4-.5.4-.9 0-.2-.2-.3l-.3-.3-.3-.3-.1-.5q0-.4.2-.7.4-.3.8-.3.5 0 .9.4.3.4.3 1zm14.2-6.9q1-1.2 3-1.2 1.4 0 2.3.8.9.8.9 2.5v5.1h-1.3v-.9q-1.3 1.1-3 1.1-.6 0-1-.2l-1-.5-.5-.7q-.2-.4-.2-.9 0-1.2 1-2 1.2-.6 3.2-.7h1.5v-.3q0-1.2-.5-1.7t-1.6-.5q-1.3 0-2.2 1l-.6-1zm5 3.4h-1.2l-1.7.1q-.6.1-1 .4l-.5.5v.6q0 .6.4 1 .5.4 1.3.4l1-.1.7-.4.5-.5.3-.5q.2-.4.2-1v-.5zm5.1-3.1l-.4.6v1.4l.4.6.6.3q.3.2.7.2.4 0 .7-.2l.6-.4.4-.5.1-.7-.1-.7-.4-.6-.6-.4-.7-.1q-.7 0-1.3.5zm3.3-.8q.9-.7 2-.7h.3l.2 1h-.5q-.8 0-1.4.4.4.6.4 1.4 0 .6-.2 1.1l-.7.9q-.4.4-1 .6l-1 .2q-.6 0-1.1-.2-.6.6-.6 1 0 .3.3.4.4.2 1 .2h1.4l1.4.1 1 .4q.3.3.4.7l.2.8-.2 1q-.2.4-.7.8l-1.2.5q-.7.2-1.7.2l-1.7-.1-1.1-.4-.7-.7q-.2-.3-.2-.7 0-1 1.4-1.8-.7-.4-.7-1.2 0-.7 1-1.5-.6-.4-1-1-.3-.6-.3-1.2 0-.7.3-1.2l.6-1 1-.5q.6-.3 1.1-.3 1.2 0 2 .8zm-3.2 7.3q-1 .6-1 1.3l.2.6.6.3.8.3h1q1.1 0 1.8-.3.7-.4.7-1.1 0-.5-.4-.8-.3-.2-1.1-.2h-1.6l-1-.1zm10.8-8l1.3.2q.6.3 1 .8.5.4.8 1.2.2.7.2 1.7v.6h-5.8q0 .9.3 1.5.2.5.6.9.4.4.9.5l1 .2q1.2 0 2-1l.8.8q-1 1.2-2.9 1.2-.9 0-1.6-.3-.8-.2-1.3-.8-.5-.5-.8-1.3-.3-.8-.3-1.9 0-1 .3-1.8t.8-1.4q.5-.5 1.2-.8.7-.3 1.5-.3zm-2.5 3.5h4.5v-.3l-.1-.8-.5-.7-.7-.5q-.3-.2-.8-.2-.8 0-1.5.6t-.9 1.9zm11.9-2.4q.3.3.3.8 0 .4-.3.7-.3.3-.8.3-.4 0-.7-.3-.3-.3-.3-.7 0-.5.3-.8.3-.3.7-.3.4 0 .8.3zm0 5.8q.3.3.3.7 0 .4-.3.7-.3.3-.8.3-.4 0-.7-.3-.3-.3-.3-.7 0-.4.3-.7.3-.3.7-.3.4 0 .8.3zm18.3-9.7v11.2h-1.2V276l-2.3.6-.3-.7 3-1.5h.8zm11.2 2.5q0 .8-.5 1.6-.5.7-1.3 1.1 1 .5 1.6 1.3.6.9.6 1.8 0 .7-.3 1.3l-.7 1-1.1.6q-.6.2-1.4.2-.7 0-1.3-.2l-1.1-.7q-.5-.4-.7-1-.3-.5-.3-1.1 0-1 .6-1.8.6-.9 1.7-1.3-.8-.4-1.3-1.1-.4-.7-.4-1.6l.2-1 .6-1 1-.5q.5-.2 1.2-.2.6 0 1.1.2.6.2 1 .6l.6.8.2 1zm-3.3 3.3q-.8.3-1.3 1-.6.7-.6 1.5l.2.8.4.6.7.4q.4.2.9.2l.8-.2q.4-.1.7-.4l.4-.6.2-.8q0-.8-.6-1.5-.7-.7-1.8-1zm-1.1-2.3q.2.4.5.6l.8.5.3.2q.7-.4 1.1-1 .5-.6.5-1.2 0-.4-.2-.6l-.3-.6-.6-.3q-.3-.2-.7-.2-.4 0-.7.2l-.5.3q-.3.2-.4.5l-.1.6q0 .6.3 1zm11.3 7.4q0 1.4-1.9 3.4l-.6-.6.8-1q.4-.5.4-.9 0-.2-.2-.3l-.3-.3-.3-.3-.1-.5q0-.4.2-.7.4-.3.8-.3.5 0 .9.4.3.4.3 1zM767 284q.3.3.3.7 0 .4-.3.7-.3.3-.8.3-.4 0-.7-.3-.3-.3-.3-.7 0-.4.3-.7.3-.3.7-.3.4 0 .8.3zm9 0q.3.3.3.7 0 .4-.3.7-.3.3-.8.3-.4 0-.7-.3-.3-.3-.3-.7 0-.4.3-.7.3-.3.7-.3.4 0 .8.3zm9 0q.3.3.3.7 0 .4-.3.7-.3.3-.8.3-.4 0-.7-.3-.3-.3-.3-.7 0-.4.3-.7.3-.3.7-.3.4 0 .8.3zm19-6.8v1.3q0 1 .4 1.5.4.4 1.2.4h.4v1h-.4q-.7 0-1.2.4-.4.5-.4 1.6v1.8q0 1.6-.6 2.4-.8.8-2.3.8h-1.5v-1h1.6l.4-.1h.3l.2-.2q.7-.5.7-1.9v-1.5q0-2.3 1.5-2.8-1.6-.6-1.6-2.6V277q0-1-.4-1.5-.4-.4-1.4-.4h-1.3v-1h1.8q.7 0 1.3.4.6.3 1 1 .3.6.3 1.7z" font-size="18" font-family="Inconsolata" fill="#173182"/><path d="M557.8 332.3v-1.8q0-1.1-.4-1.6-.4-.4-1.1-.4h-.4v-1h.3q.9 0 1.3-.4.4-.5.4-1.5v-1.3q0-3.1 3.2-3.1h1.2v1h-1.5q-1.7 0-1.7 1.9v1.3q0 2-1.5 2.6 1.5.5 1.5 2.8v1.5q0 1.3.5 1.7.5.5 1.7.5h1v1H560q-.6-.1-1.2-.5-1-.8-1-2.7zm16.4.3v-8.2h1.3v1.5q.5-.8 1.2-1.2.7-.5 1.5-.5l1 .2q.5.2.8.6l.5 1q.2.7.2 1.7v5h-1.3v-5q0-1.3-.4-1.8-.4-.6-1-.6l-1 .2-.7.5-.6.8q-.2.5-.2 1.1v4.7h-1.3zm9.4-7.2q1-1.2 3-1.2 1.4 0 2.3.8.9.8.9 2.5v5.1h-1.3v-.9q-1.3 1.1-3 1.1-.6 0-1-.2l-1-.5-.5-.7q-.2-.4-.2-.9 0-1.2 1-2 1.2-.6 3.2-.7h1.5v-.3q0-1.2-.5-1.7t-1.6-.5q-1.3 0-2.2 1l-.6-1zm5 3.4h-1.2l-1.7.1q-.6.1-1 .4l-.5.5v.6q0 .6.4 1 .5.4 1.3.4l1-.1.7-.4.5-.5.3-.5q.2-.4.2-1v-.5zm3 3.8v-8.2h1.2v.8l.7-.7q.5-.3 1-.3t1 .4q.3.3.4.8.3-.5.8-.8.5-.4 1-.4 1 0 1.3.6.4.6.4 1.5v6.3h-1.2v-6.7l-.2-.5-.3-.2h-.3q-.3 0-.5.2l-.4.4-.3.7-.1.7v5.4h-1.2V327q0-1-.2-1.4-.2-.3-.6-.3-.5 0-.9.5t-.4 1.4v5.5h-1.2zm13-8.4l1.3.2q.6.3 1 .8.5.4.8 1.2.2.7.2 1.7v.6h-5.8q0 .9.3 1.5l.6 1q.4.3.9.4l1 .2q1.2 0 2-1l.8.8q-1 1.2-2.9 1.2-.9 0-1.6-.3-.8-.2-1.3-.8-.5-.5-.8-1.3-.3-.8-.3-1.8t.3-1.9q.3-.8.8-1.4.5-.5 1.2-.8.7-.3 1.5-.3zm-2.5 3.5h4.5v-.3l-.1-.8-.5-.7-.7-.5q-.3-.2-.8-.2-.8 0-1.5.6t-.9 1.9zm11.9-2.4q.3.4.3.8t-.3.7q-.3.3-.8.3-.4 0-.7-.3-.3-.3-.3-.7 0-.5.3-.8.3-.3.7-.3.4 0 .8.3zm0 5.8q.3.3.3.7 0 .4-.3.7-.3.3-.8.3-.4 0-.7-.3-.3-.3-.3-.7 0-.4.3-.7.3-.3.7-.3.4 0 .8.3zm18.6-8.3l-.1-1.2q0-.5.2-.7.3-.3.6-.3t.5.3q.3.3.3.9 0 .5-.6 2.2l-.5 1.2-1-.2.4-1.2.2-1zm-3 0l-.2-1.2q0-.5.2-.7.3-.3.6-.3t.5.3q.3.3.3.9 0 .6-.6 2.2l-.5 1.2-1-.2.4-1.2.2-.5v-.5zm7.9-2.1h3.6v10.9h2.4v1h-6.1v-1h2.4v-9.9h-2.3v-1zm12.1 3.5l1.3.2q.6.3 1 .8.5.4.8 1.2.2.7.2 1.7v.6h-5.8q0 .9.3 1.5l.6 1q.4.3.9.4l1 .2q1.2 0 2-1l.8.8q-1 1.2-2.9 1.2-.9 0-1.6-.3-.8-.2-1.3-.8-.5-.5-.8-1.3-.3-.8-.3-1.8t.3-1.9q.3-.8.8-1.4.5-.5 1.2-.8.7-.3 1.5-.3zm-2.5 3.5h4.5v-.3l-.1-.8-.5-.7-.7-.5q-.3-.2-.8-.2-.8 0-1.5.6t-.9 1.9zm11.5-3.5l1.3.2q.6.3 1 .8.5.4.8 1.2.2.7.2 1.7v.6h-5.8q0 .9.3 1.5l.6 1q.4.3.9.4l1 .2q1.2 0 2-1l.8.8q-1 1.2-2.9 1.2-.9 0-1.6-.3-.8-.2-1.3-.8-.5-.5-.8-1.3-.3-.8-.3-1.8t.3-1.9q.3-.8.8-1.4.5-.5 1.2-.8.7-.3 1.5-.3zm-2.5 3.5h4.5v-.3l-.1-.8-.5-.7-.7-.5q-.3-.2-.8-.2-.8 0-1.5.6t-.9 1.9zm12.5-4.9l-.1-1.2q0-.5.2-.7.3-.3.6-.3t.5.3q.3.3.3.9 0 .5-.6 2.2l-.5 1.2-1-.2.4-1.2.2-1zm-3 0l-.2-1.2q0-.5.2-.7.3-.3.6-.3t.5.3q.3.3.3.9 0 .6-.6 2.2l-.5 1.2-1-.2.4-1.2.2-.5v-.5zm11.8 9.5q0 1.4-1.9 3.4l-.6-.6q.5-.4.8-1 .4-.5.4-.9l-.2-.3-.3-.3-.3-.3-.1-.5q0-.4.2-.7.4-.3.8-.3.5 0 .9.4.3.4.3 1zm14.2-6.9q1-1.2 3-1.2 1.4 0 2.3.8.9.8.9 2.5v5.1h-1.3v-.9q-1.3 1.1-3 1.1-.6 0-1-.2l-1-.5-.5-.7q-.2-.4-.2-.9 0-1.2 1-2 1.2-.6 3.2-.7h1.5v-.3q0-1.2-.5-1.7t-1.6-.5q-1.3 0-2.2 1l-.6-1zm5 3.4h-1.2l-1.7.1q-.6.1-1 .4l-.5.5v.6q0 .6.4 1 .5.4 1.3.4l1-.1.7-.4.5-.5.3-.5q.2-.4.2-1v-.5zm5.1-3.1l-.4.6v1.4l.4.6.6.3q.3.2.7.2.4 0 .7-.2l.6-.4.4-.5.1-.7-.1-.7-.4-.6-.6-.4-.7-.1q-.7 0-1.3.5zm3.3-.8q.9-.7 2-.7h.3l.2 1h-.5q-.8 0-1.4.4.4.6.4 1.4 0 .6-.2 1.1l-.7.9q-.4.4-1 .6l-1 .2q-.6 0-1.1-.2-.6.6-.6 1 0 .3.3.5l1 .1h1.4l1.4.1 1 .5q.3.2.4.6l.2.8-.2 1q-.2.4-.7.8l-1.2.5q-.7.2-1.7.2l-1.7-.1-1.1-.4-.7-.7q-.2-.3-.2-.7 0-1 1.4-1.8-.7-.4-.7-1.2 0-.7 1-1.5-.6-.4-1-1-.3-.6-.3-1.2 0-.7.3-1.2l.6-1 1-.5q.6-.3 1.1-.3 1.2 0 2 .8zm-3.2 7.3q-1 .6-1 1.3l.2.6.6.4.8.2h1q1.1 0 1.8-.3.7-.4.7-1.1 0-.5-.4-.8-.3-.2-1.1-.2h-1.6l-1-.1zm10.8-8l1.3.2q.6.3 1 .8.5.4.8 1.2.2.7.2 1.7v.6h-5.8q0 .9.3 1.5l.6 1q.4.3.9.4l1 .2q1.2 0 2-1l.8.8q-1 1.2-2.9 1.2-.9 0-1.6-.3-.8-.2-1.3-.8-.5-.5-.8-1.3-.3-.8-.3-1.8t.3-1.9q.3-.8.8-1.4.5-.5 1.2-.8.7-.3 1.5-.3zm-2.5 3.5h4.5v-.3l-.1-.8-.5-.7-.7-.5q-.3-.2-.8-.2-.8 0-1.5.6t-.9 1.9zm11.9-2.4q.3.4.3.8t-.3.7q-.3.3-.8.3-.4 0-.7-.3-.3-.3-.3-.7 0-.5.3-.8.3-.3.7-.3.4 0 .8.3zm0 5.8q.3.3.3.7 0 .4-.3.7-.3.3-.8.3-.4 0-.7-.3-.3-.3-.3-.7 0-.4.3-.7.3-.3.7-.3.4 0 .8.3zm14.3-7.9q.5-.9 1.4-1.4.8-.4 1.8-.4l1.2.2q.6.2 1 .7.5.4.8 1l.2 1.2-.1 1-.4.9-.6.8-.7.7-1 1-.6.5-.6.7-.5.7-.5.7h4.9l.2-.1v1.2h-6.5v-.8q.6-1.3 1.4-2.2.8-1 1.5-1.6l.9-.8.7-.8q.3-.3.4-.7l.2-.6v-1.3l-.5-.7-.7-.5-.8-.2-.8.2-.7.3-.4.4-.2.4v.2l-1-.7zm15.2.8q0 .8-.5 1.5t-1.3 1.1q1 .5 1.6 1.3.6.9.6 1.8 0 .7-.3 1.3l-.7 1-1.1.6q-.6.2-1.4.2-.7 0-1.3-.2l-1.1-.6q-.5-.5-.7-1-.3-.6-.3-1.2 0-1 .6-1.8.6-.9 1.7-1.3-.8-.4-1.3-1.1-.4-.7-.4-1.5 0-.6.2-1.1l.6-1 1-.5q.5-.2 1.2-.2.6 0 1.1.2.6.2 1 .6l.6.8.2 1zm-3.3 3.2q-.8.3-1.3 1-.6.7-.6 1.5l.2.8.4.6.7.4q.4.2.9.2l.8-.2q.4-.1.7-.4.3-.2.4-.6.2-.3.2-.8 0-.8-.6-1.5-.7-.7-1.8-1zm-1.1-2.3q.2.4.5.6l.8.5.3.2q.7-.4 1.1-1 .5-.6.5-1.2l-.2-.6-.3-.6-.6-.3q-.3-.2-.7-.2-.4 0-.7.2l-.5.3q-.3.2-.4.5l-.1.6q0 .6.3 1zm11.3 7.4q0 1.4-1.9 3.4l-.6-.6q.5-.4.8-1 .4-.5.4-.9l-.2-.3-.3-.3-.3-.3-.1-.5q0-.4.2-.7.4-.3.8-.3.5 0 .9.4.3.4.3 1zM776 331q.3.4.3.8t-.3.7q-.3.3-.8.3-.4 0-.7-.3-.3-.3-.3-.7 0-.4.3-.7.3-.3.7-.3.4 0 .8.3zm9 0q.3.4.3.8t-.3.7q-.3.3-.8.3-.4 0-.7-.3-.3-.3-.3-.7 0-.4.3-.7.3-.3.7-.3.4 0 .8.3zm9 0q.3.4.3.8t-.3.7q-.3.3-.8.3-.4 0-.7-.3-.3-.3-.3-.7 0-.4.3-.7.3-.3.7-.3.4 0 .8.3zm19-6.7v1.3q0 1 .4 1.5.4.4 1.2.4h.4v1h-.4q-.8 0-1.2.4-.4.5-.4 1.6v1.8q0 1.7-.6 2.4-.8.8-2.3.8h-1.5v-1h1.6l.4-.1h.3l.2-.2q.7-.5.7-1.9v-1.5q0-2.2 1.5-2.8-1.6-.6-1.6-2.6V324q0-1-.4-1.5-.4-.4-1.4-.4h-1.3v-1h1.8q.7 0 1.3.4.6.3 1 1 .3.6.3 1.7z" font-size="18" font-family="Inconsolata" fill="#26408c"/><path d="M557.5 421l.1-1.8q0-1.1-.4-1.6-.4-.4-1.2-.4h-.4v-1h.4q.8 0 1.2-.4.5-.5.5-1.5V413q0-3.1 3.2-3.1h1.1v1h-1.4q-1.7 0-1.7 1.9v1.3q0 2-1.6 2.6 1.6.5 1.6 2.8v1.5q0 1.2.4 1.7.6.5 1.8.5h1v1h-2.3q-.7-.1-1.2-.6-1-.7-1-2.6zm16.5.3v-8.2h1.2v1.5q.5-.8 1.2-1.2.8-.5 1.5-.5.6 0 1 .2.5.2.8.6.4.4.6 1 .2.7.2 1.6v5h-1.3v-5q0-1.2-.5-1.7-.4-.6-1-.6l-.9.2-.8.5-.5.8q-.3.5-.3 1v4.8H574zm9.3-7.3q1.1-1 3-1 1.5 0 2.3.7 1 .8 1 2.5v5.1h-1.3v-.9q-1.3 1.1-3 1.1-.6 0-1.1-.2l-.9-.5q-.4-.3-.6-.7l-.1-.9q0-1.2 1-2 1.1-.6 3.1-.7h1.6v-.3q0-1.2-.6-1.7-.5-.5-1.5-.5-1.4 0-2.2.9l-.7-.8zm5 3.5h-1.2l-1.6.1q-.6.1-1 .4-.4.2-.5.5l-.1.6q0 .6.5 1t1.2.4l1-.1.7-.4.6-.5.2-.5q.2-.4.2-1v-.5zm3.1 3.8v-8.2h1.2v.8q.2-.4.7-.7.4-.3 1-.3.5 0 .9.3.4.4.5 1 .2-.6.7-1 .5-.3 1.1-.3.9 0 1.3.6t.3 1.5v6.3H598v-6.7q0-.3-.2-.5l-.2-.2h-.4l-.4.2q-.3.1-.5.4l-.2.7q-.2.3-.2.7v5.4h-1.2v-5.7q0-1-.2-1.4-.1-.3-.6-.3-.4 0-.8.5t-.4 1.4v5.5h-1.2zm12.9-8.4q.7 0 1.3.2.6.3 1 .8.5.4.8 1.2.3.7.3 1.7v.6h-5.9q0 .9.3 1.5l.7.9q.4.4.8.5l1 .2q1.3 0 2.1-1l.8.7q-1 1.3-3 1.3-.8 0-1.6-.3-.7-.3-1.2-.8-.6-.5-.8-1.3-.3-.8-.3-1.9 0-1 .3-1.8t.8-1.4q.5-.5 1.2-.8.7-.3 1.4-.3zm-2.4 3.5h4.5v-.3l-.2-.8q-.1-.5-.4-.7l-.7-.5-.8-.2q-.9 0-1.6.6-.7.6-.8 1.9zm11.8-2.4q.3.3.3.8 0 .4-.3.7-.3.3-.7.3-.4 0-.8-.3-.3-.3-.3-.7 0-.5.3-.8.4-.3.8-.3t.7.3zm0 5.8q.3.3.3.7 0 .4-.3.7-.3.3-.7.3-.5 0-.8-.3-.3-.3-.3-.7 0-.4.3-.7.4-.3.8-.3t.7.3zm18.7-8.3l-.2-1.2q0-.5.3-.7.2-.3.5-.3t.6.3q.2.3.2.9 0 .5-.6 2.2l-.4 1.2-1-.2.4-1.2.2-1zm-3.1 0l-.2-1.2q0-.5.3-.7.2-.3.5-.3t.6.3q.2.3.2.9 0 .6-.6 2.2l-.4 1.2-1-.2.4-1.2.1-.6v-.4zm7.6-2.1h1.4v.2l-.1.2v7l4.1-3.7h1.4l-3.4 3.3 4 5h-1.7l-3.3-4.2-1.1 1v3.1h-1.3v-12zm9.4 4.6q1.1-1 3-1 1.5 0 2.3.7 1 .8 1 2.5v5.1h-1.3v-.9q-1.3 1.1-3 1.1-.6 0-1.1-.2l-.9-.5q-.4-.3-.6-.7l-.1-.9q0-1.2 1-2 1.1-.6 3.1-.7h1.6v-.3q0-1.2-.6-1.7-.5-.5-1.5-.5-1.4 0-2.2.9l-.7-.8zm5 3.5h-1.2l-1.6.1q-.6.1-1 .4-.4.2-.5.5l-.1.6q0 .6.5 1t1.2.4l1-.1.7-.4.6-.5.2-.5q.2-.4.2-1v-.5zm4.3-4.4h3.3v7.2h2v1h-5.4v-1h2V414h-2v-1zm2-3.3q.3-.3.7-.3.3 0 .6.3t.3.7q0 .3-.3.6t-.6.3q-.4 0-.7-.3-.3-.3-.3-.6 0-.4.3-.7zm10.8 1.7l-.2-1.2q0-.5.3-.7.2-.3.5-.3t.6.3q.2.3.2.9 0 .5-.6 2.2l-.4 1.2-1-.2.4-1.2.2-1zm-3.1 0l-.2-1.2q0-.5.3-.7.2-.3.5-.3t.6.3q.2.3.2.9 0 .6-.6 2.2l-.4 1.2-1-.2.4-1.2.1-.6v-.4zm11.9 9.5q0 1.4-2 3.4l-.5-.6.8-1q.3-.5.3-.9l-.1-.3-.3-.3-.4-.3v-.5q0-.4.2-.7.3-.3.8-.3.4 0 .8.4t.4 1zm14.1-7q1.1-1 3-1 1.5 0 2.3.7 1 .8 1 2.5v5.1h-1.3v-.9q-1.3 1.1-3 1.1-.6 0-1.1-.2l-.9-.5q-.4-.3-.6-.7l-.1-.9q0-1.2 1-2 1.1-.6 3.1-.7h1.6v-.3q0-1.2-.6-1.7-.5-.5-1.5-.5-1.4 0-2.2.9l-.7-.8zm5 3.5h-1.2l-1.6.1q-.6.1-1 .4-.4.2-.5.5l-.1.6q0 .6.5 1t1.2.4l1-.1.7-.4.6-.5.2-.5q.2-.4.2-1v-.5zm5.2-3.1l-.4.6-.1.7.1.7.4.6.5.3.8.2.7-.2q.3-.1.5-.4.3-.2.4-.5l.2-.7q0-.4-.2-.7-.1-.4-.4-.6-.2-.3-.6-.4l-.6-.1q-.8 0-1.3.5zm3.3-.8q.8-.7 2-.7h.3l.1 1h-.5q-.7 0-1.4.4.4.6.4 1.4 0 .6-.2 1-.2.6-.6 1-.4.4-1 .6-.5.2-1.1.2l-1-.2q-.7.6-.7 1 0 .3.4.4.4.2 1 .2h1.3l1.4.1 1 .4.5.7.2.8q0 .5-.3 1-.2.4-.7.7-.4.4-1.2.6-.7.2-1.6.2l-1.7-.1-1.2-.5q-.4-.2-.6-.6-.2-.3-.2-.7 0-1 1.3-1.8-.6-.4-.6-1.2 0-.7.9-1.5-.6-.4-1-1-.2-.6-.2-1.3 0-.6.2-1l.7-1q.4-.4 1-.6.5-.3 1-.3 1.3 0 2 .8zm-3.2 7.3q-1 .6-1 1.3 0 .3.2.5.2.3.5.4l.8.3h1q1.1 0 1.9-.3.7-.4.7-1.1 0-.5-.4-.8-.4-.2-1.2-.2h-1.6l-1-.1zm10.7-8q.7 0 1.3.2.6.3 1 .8.5.4.8 1.2.3.7.3 1.7v.6h-5.9q0 .9.3 1.5l.7.9q.4.4.8.5l1 .2q1.3 0 2.1-1l.8.7q-1 1.3-3 1.3-.8 0-1.6-.3-.7-.3-1.2-.8-.6-.5-.8-1.3-.3-.8-.3-1.9 0-1 .3-1.8t.8-1.4q.5-.5 1.2-.8.7-.3 1.4-.3zm-2.4 3.5h4.5v-.3l-.2-.8q-.1-.5-.4-.7l-.7-.5-.8-.2q-.9 0-1.6.6-.7.6-.8 1.9zm11.8-2.4q.3.3.3.8 0 .4-.3.7-.3.3-.7.3-.4 0-.8-.3-.3-.3-.3-.7 0-.5.3-.8.4-.3.8-.3t.7.3zm0 5.8q.3.3.3.7 0 .4-.3.7-.3.3-.7.3-.5 0-.8-.3-.3-.3-.3-.7 0-.4.3-.7.4-.3.8-.3t.7.3zM742 413q0 .7-.4 1.4t-1.2 1q.9.3 1.4 1 .5.8.5 1.8 0 .7-.2 1.3l-.7 1q-.5.5-1.1.8-.7.2-1.5.2-1.7 0-2.9-1.3l1-1v.2l.2.2.3.3.5.3 1 .2.9-.2.7-.5q.3-.3.4-.7l.2-1q0-.9-.7-1.5-.7-.5-2-.5h-.5v-1q.9 0 1.4-.2l1-.4q.3-.3.4-.7.2-.4.2-.9l-.2-.6q-.1-.3-.4-.5l-.6-.4-.8-.1q-1.1 0-1.9.9l-.7-.8q1.1-1.2 2.7-1.2l1.2.2q.6.2 1 .6.4.4.6 1 .3.4.3 1zm9.2-.4q0 .8-.4 1.6-.5.7-1.3 1.1 1 .5 1.5 1.3.6.9.6 1.8 0 .7-.2 1.3l-.8 1-1 .6-1.4.2-1.4-.2-1-.7q-.5-.4-.8-1-.2-.5-.2-1.1 0-1 .6-1.8.6-.9 1.6-1.3-.8-.4-1.2-1.1-.5-.8-.5-1.6l.2-1 .7-1 1-.5q.5-.2 1.1-.2l1.2.2q.5.2.9.6.4.3.6.8l.2 1zM748 416q-.8.3-1.3 1t-.5 1.5l.1.7.5.7.7.4.8.2q.5 0 .8-.2.4-.1.7-.4l.5-.6.1-.8q0-.8-.6-1.5-.7-.7-1.8-1zm-1-2.3q.1.4.5.6l.8.5.3.2q.7-.4 1-1 .5-.6.5-1.2l-.1-.6-.4-.6-.6-.3q-.3-.2-.7-.2l-.7.2-.5.3-.4.5v.6q0 .6.2 1zm11.2 7.3q0 1.4-2 3.4l-.5-.6.8-1q.3-.5.3-.9l-.1-.3-.3-.3-.4-.3v-.5q0-.4.2-.7.3-.3.8-.3.4 0 .8.4t.4 1zm17.5-1.2q.3.3.3.7 0 .4-.3.7-.3.3-.7.3-.5 0-.8-.3-.3-.3-.3-.7 0-.4.3-.7.4-.3.8-.3t.7.3zm9 0q.3.3.3.7 0 .4-.3.7-.3.3-.7.3-.5 0-.8-.3-.3-.3-.3-.7 0-.4.3-.7.4-.3.8-.3t.7.3zm9 0q.3.3.3.7 0 .4-.3.7-.3.3-.7.3-.5 0-.8-.3-.3-.3-.3-.7 0-.4.3-.7.4-.3.8-.3t.7.3zm19.1-6.8v1.3q0 1 .3 1.5.5.4 1.3.4h.3v1h-.3q-.8 0-1.2.4-.4.5-.4 1.6v1.8q0 1.6-.7 2.4-.7.8-2.3.8h-1.4v-1h1.6l.4-.1.2-.1.2-.1q.8-.5.8-1.9v-1.5q0-2.3 1.4-2.8-1.5-.6-1.5-2.6v-1.3q0-1-.4-1.5-.5-.4-1.4-.4h-1.4v-1h1.9q.7 0 1.3.4.5.3.9 1 .4.6.4 1.7z" font-size="18" font-family="Inconsolata" fill="#173182"/><path d="M557.8 375.9v-1.8q0-1.2-.4-1.6-.4-.4-1.1-.4h-.4v-1h.3q.9 0 1.3-.5.4-.4.4-1.4v-1.3q0-3.2 3.2-3.2h1.2v1h-1.5q-1.7 0-1.7 2v1.2q0 2-1.5 2.7 1.5.5 1.5 2.8v1.5q0 1.2.5 1.7.5.4 1.7.4h1v1H560q-.6 0-1.2-.5-1-.8-1-2.6zm16.4.3V368h1.3v1.4q.5-.7 1.2-1.2.7-.4 1.5-.4l1 .2q.5.1.8.6l.5 1q.2.7.2 1.6v5h-1.3v-5q0-1.3-.4-1.8t-1-.5l-1 .2-.7.5q-.4.3-.6.8l-.2 1v4.8h-1.3zm9.4-7.2q1-1.2 3-1.2 1.4 0 2.3.8.9.7.9 2.5v5h-1.3v-.8q-1.3 1-3 1l-1-.1-1-.5-.5-.8-.2-.8q0-1.2 1-2 1.2-.7 3.2-.8h1.5v-.3q0-1.2-.5-1.7t-1.6-.5q-1.3 0-2.2 1l-.6-.9zm5 3.3h-1.2q-1 0-1.7.2-.6 0-1 .3l-.5.6v.6q0 .6.4 1 .5.4 1.3.4l1-.2q.4-.1.7-.4l.5-.5.3-.4q.2-.4.2-1v-.6zm3 3.9V368h1.2v.8q.3-.5.7-.7.5-.3 1-.3t1 .3q.3.4.4.9.3-.6.8-.9.5-.3 1-.3 1 0 1.3.6.4.6.4 1.5v6.3h-1.2v-6.8l-.2-.4-.3-.2h-.3l-.5.1-.4.5-.3.7-.1.7v5.4h-1.2v-5.7q0-1-.2-1.4-.2-.3-.6-.3-.5 0-.9.5t-.4 1.4v5.5h-1.2zm13-8.4l1.3.2q.6.2 1 .7.5.5.8 1.2.2.8.2 1.8v.6h-5.8q0 .8.2 1.4l.7 1 .9.5 1 .1q1.2 0 2-.9l.8.7q-1 1.3-2.9 1.3-.9 0-1.6-.3-.8-.3-1.3-.8-.5-.6-.8-1.4-.3-.8-.3-1.8t.3-1.8q.3-.9.8-1.4.5-.6 1.2-.8.7-.3 1.5-.3zm-2.5 3.5h4.5v-.3l-.1-.9-.5-.7-.7-.5-.8-.1q-.8 0-1.5.6t-.9 1.9zm11.9-2.4q.3.3.3.7 0 .4-.3.7-.3.3-.8.3-.4 0-.7-.3-.3-.3-.3-.7 0-.4.3-.7.3-.3.7-.3.4 0 .8.3zm0 5.7q.3.3.3.8 0 .4-.3.7-.3.3-.8.3-.4 0-.7-.3-.3-.3-.3-.7 0-.5.3-.8.3-.3.7-.3.4 0 .8.3zm18.6-8.3l-.1-1.1q0-.5.2-.7.3-.3.6-.3t.5.3q.3.2.3.8 0 .6-.6 2.3l-.5 1.2-1-.3.4-1.2.2-1zm-3 0l-.2-1.1q0-.5.2-.7.3-.3.6-.3t.5.3q.3.2.3.8 0 .6-.6 2.3l-.5 1.2-1-.3.4-1.2.2-.5v-.5zm8.6 1.7h4.4v7.8q0 1-.3 1.6-.2.6-.7 1-.4.5-1 .7-.6.2-1.3.2-1.6 0-2.5-1.1l.8-1.1.1.1.1.2.2.3.6.3.8.2q.8 0 1.3-.6.6-.5.6-1.7V369h-3v-1zm3-3.3q.3-.3.7-.3.4 0 .7.3.3.2.3.6 0 .4-.3.7-.3.2-.7.2l-.6-.2q-.3-.3-.3-.7 0-.4.3-.6zm5.4 4.3q1-1.2 3-1.2 1.4 0 2.3.8.9.7.9 2.5v5h-1.3v-.8q-1.3 1-3 1l-1-.1-1-.5-.5-.8-.2-.8q0-1.2 1-2 1.2-.7 3.2-.8h1.5v-.3q0-1.2-.5-1.7t-1.6-.5q-1.3 0-2.2 1l-.6-.9zm5 3.3h-1.2q-1 0-1.7.2-.6 0-1 .3l-.5.6v.6q0 .6.4 1 .5.4 1.3.4l1-.2q.4-.1.7-.4l.5-.5.3-.4q.2-.4.2-1v-.6zm3.6 3.9V368h1.3v1.4q.5-.7 1.2-1.2.7-.4 1.5-.4l1 .2q.5.1.8.6l.5 1q.2.7.2 1.6v5h-1.3v-5q0-1.3-.4-1.8t-1-.5l-1 .2-.7.5q-.4.3-.6.8l-.2 1v4.8h-1.3zm13.4-9.9l-.1-1.1q0-.5.2-.7.3-.3.6-.3t.5.3q.3.2.3.8 0 .6-.6 2.3l-.5 1.2-1-.3.4-1.2.2-1zm-3 0l-.2-1.1q0-.5.2-.7.3-.3.6-.3t.5.3q.3.2.3.8 0 .6-.6 2.3l-.5 1.2-1-.3.4-1.2.2-.5v-.5zm11.8 9.5q0 1.5-1.9 3.4l-.6-.5.8-1q.4-.6.4-1l-.2-.3-.3-.2-.3-.4-.1-.4q0-.5.2-.8.4-.3.8-.3.5 0 .9.5.3.4.3 1zm14.2-6.8q1-1.2 3-1.2 1.4 0 2.3.8.9.7.9 2.5v5h-1.3v-.8q-1.3 1-3 1l-1-.1-1-.5-.5-.8-.2-.8q0-1.2 1-2 1.2-.7 3.2-.8h1.5v-.3q0-1.2-.5-1.7t-1.6-.5q-1.3 0-2.2 1l-.6-.9zm5 3.3h-1.2q-1 0-1.7.2-.6 0-1 .3l-.5.6v.6q0 .6.4 1 .5.4 1.3.4l1-.2q.4-.1.7-.4l.5-.5.3-.4q.2-.4.2-1v-.6zm5.1-3l-.4.6v1.3l.4.6.6.4.7.1.7-.1.6-.4.4-.6.1-.7-.1-.6-.4-.6-.6-.4q-.3-.2-.7-.2-.7 0-1.3.6zm3.3-.8q.9-.8 2-.8h.3l.2 1.1h-.5q-.8 0-1.4.4.4.6.4 1.4l-.2 1-.7 1-1 .6-1 .2q-.6 0-1.1-.2-.6.5-.6 1 0 .2.3.4.4.2 1 .2h2.8l1 .5q.3.3.4.7.2.3.2.8t-.2.9q-.2.5-.7.8-.5.4-1.2.6-.7.2-1.7.2t-1.7-.2q-.7-.1-1.1-.4l-.7-.6-.2-.8q0-1 1.4-1.8-.7-.3-.7-1.1t1-1.6q-.6-.3-1-1-.3-.5-.3-1.2 0-.6.3-1.1.2-.6.6-1l1-.6 1.1-.2q1.2 0 2 .8zm-3.2 7.3q-1 .5-1 1.2 0 .4.2.6.2.3.6.4.3.2.8.2l1 .1q1.1 0 1.8-.4t.7-1q0-.5-.4-.8-.3-.3-1.1-.3h-2.6zm10.8-8l1.3.2q.6.2 1 .7.5.5.8 1.2.2.8.2 1.8v.6h-5.8q0 .8.2 1.4l.7 1 .9.5 1 .1q1.2 0 2-.9l.8.7q-1 1.3-2.9 1.3-.9 0-1.6-.3-.8-.3-1.3-.8-.5-.6-.8-1.4-.3-.8-.3-1.8t.3-1.8q.3-.9.8-1.4.5-.6 1.2-.8.7-.3 1.5-.3zm-2.5 3.5h4.5v-.3l-.1-.9-.5-.7-.7-.5-.8-.1q-.8 0-1.5.6t-.9 1.9zm11.9-2.4q.3.3.3.7 0 .4-.3.7-.3.3-.8.3-.4 0-.7-.3-.3-.3-.3-.7 0-.4.3-.7.3-.3.7-.3.4 0 .8.3zm0 5.7q.3.3.3.8 0 .4-.3.7-.3.3-.8.3-.4 0-.7-.3-.3-.3-.3-.7 0-.5.3-.8.3-.3.7-.3.4 0 .8.3zm14.3-7.9q.5-.8 1.4-1.3.8-.5 1.8-.5.6 0 1.2.3.6.2 1 .6l.8 1q.2.6.2 1.3l-.1 1-.4.8-.6.9-.7.7-1 1-.6.5-.6.6-.5.7-.5.8h4.9l.2-.2v1.3h-6.5v-.8q.6-1.3 1.4-2.3.8-1 1.5-1.6l.8-.8.8-.7.4-.7.2-.6v-1.4q-.2-.4-.5-.6-.3-.4-.7-.5l-.8-.2-.8.1-.7.4-.4.4-.2.3v.2l-1-.7zm13-1.7v11.2h-1.2v-9.7l-2.3.7-.3-.7 3-1.5h.8zm9.1 10.8q0 1.5-1.9 3.4l-.6-.5.8-1q.4-.6.4-1l-.2-.3-.3-.2-.3-.4-.1-.4q0-.5.2-.8.4-.3.8-.3.5 0 .9.5.3.4.3 1zm17.6-1.2q.3.3.3.8 0 .4-.3.7-.3.3-.8.3-.4 0-.7-.3-.3-.3-.3-.7 0-.5.3-.8.3-.3.7-.3.4 0 .8.3zm9 0q.3.3.3.8 0 .4-.3.7-.3.3-.8.3-.4 0-.7-.3-.3-.3-.3-.7 0-.5.3-.8.3-.3.7-.3.4 0 .8.3zm9 0q.3.3.3.8 0 .4-.3.7-.3.3-.8.3-.4 0-.7-.3-.3-.3-.3-.7 0-.5.3-.8.3-.3.7-.3.4 0 .8.3zm19-6.7v1.3q0 1 .4 1.4.4.5 1.2.5h.4v1h-.4q-.8 0-1.2.4-.4.4-.4 1.6v1.8q0 1.6-.6 2.4-.8.8-2.3.8h-1.5v-1h1.6l.4-.1.3-.1.2-.2q.7-.5.7-1.8v-1.5q0-2.3 1.5-2.8-1.6-.7-1.6-2.7v-1.2q0-1-.4-1.5-.4-.4-1.4-.4h-1.3v-1h1.8q.7 0 1.3.4.6.3 1 1 .3.6.3 1.7z" font-size="18" font-family="Inconsolata" fill="#1a3485"/><g font-size="18" font-family="Inconsolata"><path d="M557.8 552.5v-1.8q0-1.2-.4-1.6-.4-.4-1.1-.4h-.4v-1h.3q.9 0 1.3-.5.4-.4.4-1.5v-1.3q0-3 3.2-3h1.2v1h-1.5q-1.7 0-1.7 1.8v1.3q0 2-1.5 2.7 1.5.5 1.5 2.8v1.5q0 1.2.5 1.7.5.4 1.7.4h1v1H560q-.6 0-1.2-.5-1-.8-1-2.6zm16.4.3v-8.2h1.3v1.4q.5-.7 1.2-1.2.7-.4 1.5-.4l1 .2q.5.1.8.5l.5 1.1q.2.7.2 1.6v5h-1.3v-5q0-1.3-.4-1.8t-1-.5l-1 .2q-.4.1-.7.5-.4.3-.6.8l-.2 1v4.8h-1.3zm9.4-7.3q1-1.1 3-1.1 1.4 0 2.3.7.9.8.9 2.6v5h-1.3v-.8q-1.3 1-3 1l-1-.1-1-.5-.5-.8-.2-.8q0-1.3 1-2 1.2-.7 3.2-.8h1.5v-.3q0-1.2-.5-1.7t-1.6-.5q-1.3 0-2.2 1l-.6-.9zm5 3.4h-1.2q-1 0-1.7.2-.6 0-1 .3-.3.2-.5.6v.6q0 .6.4 1 .5.4 1.3.4l1-.2.7-.4.5-.5.3-.5q.2-.3.2-1v-.5zm3 3.9v-8.2h1.2v.8q.3-.5.7-.8l1-.2q.5 0 1 .3.3.3.4.9.3-.6.8-.9.5-.3 1-.3 1 0 1.3.6.4.6.4 1.5v6.3h-1.2v-6.7l-.2-.5-.3-.2h-.3l-.5.1-.4.5-.3.6-.1.7v5.5h-1.2V547q0-1-.2-1.4-.2-.4-.6-.4-.5 0-.9.6-.4.5-.4 1.4v5.5h-1.2zm13-8.4l1.3.2q.6.2 1 .7.5.5.8 1.2.2.8.2 1.8v.6h-5.8q0 .8.3 1.4.2.6.6 1l.9.5 1 .1q1.2 0 2-.9l.8.7q-1 1.3-2.9 1.3-.9 0-1.6-.3-.8-.3-1.3-.8-.5-.6-.8-1.4-.3-.8-.3-1.8t.3-1.9q.3-.8.8-1.3.5-.6 1.2-.9.7-.2 1.5-.2zm-2.5 3.4h4.5v-.2l-.1-.9-.5-.7-.7-.5q-.3-.2-.8-.2-.8 0-1.5.7-.7.6-.9 1.8zm11.9-2.3q.3.3.3.7 0 .4-.3.7-.3.3-.8.3-.4 0-.7-.3-.3-.3-.3-.7 0-.4.3-.7.3-.3.7-.3.4 0 .8.3zm0 5.7q.3.3.3.8 0 .4-.3.7-.3.3-.8.3-.4 0-.7-.3-.3-.3-.3-.7 0-.5.3-.8.3-.3.7-.3.4 0 .8.3zm18.6-8.2l-.1-1.2q0-.5.2-.8l.6-.2q.3 0 .5.3.3.2.3.8 0 .6-.6 2.3l-.5 1.2-1-.3.4-1.2.2-1zm-3 0l-.2-1.2q0-.5.2-.8l.6-.2q.3 0 .5.3.3.2.3.8 0 .6-.6 2.3l-.5 1.2-1-.3.4-1.2.2-.5v-.5zm8.1 1.6h1.4v1.5q.3-.8 1.1-1.3.9-.4 1.8-.4 1.3 0 2.2.9l-.6 1.2-.4-.5-.3-.3-.4-.2h-.6q-.6 0-1.1.3-.5.2-1 .7l-.5 1q-.3.6-.3 1.3v4h-1.3v-8.2zm8.3.5l-.2-.5h1.6v.2l-.1.2 2.4 6.1 1.6-4.4.4-1.1.2-1h1.4l-.4 1-.4 1.3-2.3 6-.3.8q-.4 1.2-1.1 1.7-.7.5-1.6.5-1.1 0-1.9-.7l.7-1.1.1.1v.2h.1l.2.2.3.2h.4q.5 0 1-.3l.7-1.1.3-.7-3.1-7.6zm9.6.4q1-1.1 3-1.1 1.4 0 2.3.7.9.8.9 2.6v5h-1.3v-.8q-1.3 1-3 1l-1-.1-1-.5-.5-.8-.2-.8q0-1.3 1-2 1.2-.7 3.2-.8h1.5v-.3q0-1.2-.5-1.7t-1.6-.5q-1.3 0-2.2 1l-.6-.9zm5 3.4h-1.2q-1 0-1.7.2-.6 0-1 .3-.3.2-.5.6v.6q0 .6.4 1 .5.4 1.3.4l1-.2.7-.4.5-.5.3-.5q.2-.3.2-1v-.5zm3.6 3.9v-8.2h1.3v1.4q.5-.7 1.2-1.2.7-.4 1.5-.4l1 .2q.5.1.8.5l.5 1.1q.2.7.2 1.6v5h-1.3v-5q0-1.3-.4-1.8t-1-.5l-1 .2q-.4.1-.7.5-.4.3-.6.8l-.2 1v4.8h-1.3zm13.4-9.8l-.1-1.2q0-.5.2-.8l.6-.2q.3 0 .5.3.3.2.3.8 0 .6-.6 2.3l-.5 1.2-1-.3.4-1.2.2-1zm-3 0l-.2-1.2q0-.5.2-.8l.6-.2q.3 0 .5.3.3.2.3.8 0 .6-.6 2.3l-.5 1.2-1-.3.4-1.2.2-.5v-.5zm11.8 9.4q0 1.4-1.9 3.4l-.6-.5.8-1q.4-.6.4-1l-.2-.3-.3-.3-.3-.3-.1-.4q0-.5.2-.8.4-.3.8-.3.5 0 .9.4.3.5.3 1.1z" fill="#173182"/><path d="M700.6 545.5q1-1.1 3-1.1 1.4 0 2.3.7.9.8.9 2.6v5h-1.3v-.8q-1.3 1-3 1l-1-.1-1-.5-.5-.8-.2-.8q0-1.3 1-2 1.2-.7 3.2-.8h1.5v-.3q0-1.2-.5-1.7t-1.6-.5q-1.3 0-2.2 1l-.6-.9zm5 3.4h-1.2q-1 0-1.7.2-.6 0-1 .3-.3.2-.5.6v.6q0 .6.4 1 .5.4 1.3.4l1-.2.7-.4.5-.5.3-.5q.2-.3.2-1v-.5zm5.1-3l-.4.5v1.4l.4.6.6.4.7.1.7-.1.6-.4.4-.6.1-.7-.1-.7-.4-.5-.6-.4q-.3-.2-.7-.2-.7 0-1.3.6zm3.3-.8q.9-.8 2-.8h.3l.2 1.1h-.5q-.8 0-1.4.4.4.6.4 1.3 0 .6-.2 1.1l-.7 1-1 .6-1 .2q-.6 0-1.1-.2-.6.5-.6 1 0 .2.3.4.4.2 1 .2h.7l.7-.1q.8 0 1.4.2l1 .4.4.6q.2.4.2.9l-.2.9q-.2.5-.7.8-.5.4-1.2.6-.7.2-1.7.2t-1.7-.2q-.7-.1-1.1-.4l-.7-.6-.2-.8q0-1 1.4-1.8-.7-.3-.7-1.1t1-1.6q-.6-.3-1-1-.3-.5-.3-1.2 0-.6.3-1.1.2-.6.6-1l1-.6 1.1-.2q1.2 0 2 .8zm-3.2 7.2q-1 .6-1 1.3 0 .4.2.6.2.3.6.4.3.2.8.2l1 .1q1.1 0 1.8-.4t.7-1q0-.5-.4-.8-.3-.3-1.1-.3h-2.6zm10.8-7.9l1.3.2q.6.2 1 .7.5.5.8 1.2.2.8.2 1.8v.6h-5.8q0 .8.2 1.4l.7 1 .9.5 1 .1q1.2 0 2-.9l.8.7q-1 1.3-2.9 1.3-.9 0-1.6-.3-.8-.3-1.3-.8-.5-.6-.8-1.4-.3-.8-.3-1.8t.3-1.9q.3-.8.8-1.3.5-.6 1.2-.9.7-.2 1.5-.2zm-2.5 3.4h4.5v-.2l-.1-.9-.5-.7-.7-.5q-.3-.2-.8-.2-.8 0-1.5.7-.7.6-.9 1.8zm11.9-2.3q.3.3.3.7 0 .4-.3.7-.3.3-.8.3-.4 0-.7-.3-.3-.3-.3-.7 0-.4.3-.7.3-.3.7-.3.4 0 .8.3zm0 5.7q.3.3.3.8 0 .4-.3.7-.3.3-.8.3-.4 0-.7-.3-.3-.3-.3-.7 0-.5.3-.8.3-.3.7-.3.4 0 .8.3zm20.3-6.8q0 .8-.4 1.5-.5.6-1.2.9.8.3 1.3 1.1.6.8.6 1.8 0 .7-.3 1.3-.2.6-.7 1-.4.5-1 .7-.7.3-1.6.3-1.6 0-2.8-1.3l1-1.1v.2q0 .2.2.3l.2.2.6.3q.4.2 1 .2l.8-.2q.4-.1.7-.4l.5-.8q.2-.4.2-.9 0-1-.8-1.5-.7-.6-1.9-.6h-.5v-1l1.4-.1.9-.5.5-.7.1-.8-.1-.6-.4-.5-.6-.4-.8-.2q-1.2 0-2 1l-.6-.9q1-1.2 2.6-1.2.7 0 1.2.3.6.2 1 .6l.7.9.2 1zm7-2.9v11.3h-1.2V543l-2.3.7-.3-.7 3-1.6h.8zm9.1 10.9q0 1.4-1.9 3.4l-.6-.5.8-1q.4-.6.4-1l-.2-.3-.3-.3-.3-.3-.1-.4q0-.5.2-.8.4-.3.8-.3.5 0 .9.4.3.5.3 1.1zm17.6-1.2q.3.3.3.8 0 .4-.3.7-.3.3-.8.3-.4 0-.7-.3-.3-.3-.3-.7 0-.5.3-.8.3-.3.7-.3.4 0 .8.3zm9 0q.3.3.3.8 0 .4-.3.7-.3.3-.8.3-.4 0-.7-.3-.3-.3-.3-.7 0-.5.3-.8.3-.3.7-.3.4 0 .8.3zm9 0q.3.3.3.8 0 .4-.3.7-.3.3-.8.3-.4 0-.7-.3-.3-.3-.3-.7 0-.5.3-.8.3-.3.7-.3.4 0 .8.3zm19-6.8v1.3q0 1 .4 1.5t1.2.5h.4v1h-.4q-.7 0-1.2.4-.4.4-.4 1.6v1.8q0 1.6-.6 2.4-.8.7-2.3.7h-1.5v-1h2l.3-.1.2-.2q.7-.5.7-1.8V551q0-2.3 1.5-2.8-1.6-.7-1.6-2.7v-1.3q0-1-.4-1.4-.4-.5-1.4-.5h-1.3v-1h1.8q.7.1 1.3.4.6.4 1 1 .3.6.3 1.7z" fill="#142372"/></g><path d="M557.8 464.8V463q0-1.2-.4-1.6-.4-.4-1.1-.4h-.4v-1h.3q.9 0 1.3-.5t.4-1.5v-1.3q0-3.1 3.2-3.1h1.2v1h-1.5q-1.7 0-1.7 2v1.2q0 2-1.5 2.7 1.5.5 1.5 2.7v1.6q0 1.2.5 1.6.5.5 1.7.5h1v1H560q-.6-.1-1.2-.5-1-.8-1-2.6zm16.4.2v-8.2h1.3v1.5q.5-.8 1.2-1.2.7-.5 1.5-.5l1 .2q.5.2.8.6l.5 1q.2.7.2 1.7v5h-1.3v-5q0-1.3-.4-1.8t-1-.5l-1 .1q-.4.2-.7.6-.4.3-.6.8-.2.4-.2 1v4.8h-1.3zm9.4-7.2q1-1.1 3-1.1 1.4 0 2.3.7.9.8.9 2.6v5h-1.3v-.8q-1.3 1-3 1l-1-.1q-.6-.2-1-.6l-.5-.7-.2-.8q0-1.3 1-2 1.2-.7 3.2-.8h1.5v-.3q0-1.2-.5-1.7t-1.6-.5q-1.3 0-2.2 1l-.6-.9zm5 3.4h-1.2l-1.7.1-1 .4-.5.5v.7q0 .5.4 1 .5.4 1.3.4l1-.2.7-.4.5-.5.3-.5q.2-.3.2-1v-.5zm3 3.8v-8.2h1.2v.8l.7-.7q.5-.3 1-.3t1 .4q.3.3.4.8.3-.5.8-.8.5-.4 1-.4 1 0 1.3.6.4.6.4 1.5v6.4h-1.2v-6.8l-.2-.4-.3-.3h-.3q-.3 0-.5.2l-.4.5-.3.6-.1.7v5.5h-1.2v-5.8q0-1-.2-1.3-.2-.4-.6-.4-.5 0-.9.5-.4.6-.4 1.5v5.5h-1.2zm13-8.4q.6 0 1.3.3.6.2 1 .7.5.5.8 1.2.2.7.2 1.7v.6h-5.8q0 .9.2 1.5l.7 1 .9.5 1 .1q1.2 0 2-1l.8.8q-1 1.2-2.9 1.2-.9 0-1.6-.2-.8-.3-1.3-.9-.5-.5-.8-1.3-.3-.8-.3-1.8t.3-1.9q.3-.8.8-1.3.5-.6 1.2-.9.7-.3 1.5-.3zm-2.5 3.5h4.5v-.3l-.1-.8-.5-.7-.7-.5q-.3-.2-.8-.2-.8 0-1.5.6t-.9 2zm11.9-2.3q.3.3.3.7 0 .4-.3.7-.3.3-.8.3-.4 0-.7-.3-.3-.3-.3-.7 0-.4.3-.7.3-.4.7-.4.4 0 .8.4zm0 5.7q.3.3.3.7 0 .4-.3.8-.3.3-.8.3-.4 0-.7-.3-.3-.3-.3-.8 0-.4.3-.7.3-.3.7-.3.4 0 .8.3zm18.6-8.3l-.1-1.1q0-.5.2-.8l.6-.2q.3 0 .5.2.3.3.3.9 0 .6-.6 2.3l-.5 1.1-1-.2.4-1.2.2-1zm-3 0l-.2-1.1q0-.5.2-.8l.6-.2q.3 0 .5.2.3.3.3.9 0 .6-.6 2.3l-.5 1.1-1-.2.4-1.2.2-.5v-.5zm14.1 2.8l-.7 1h-.1v-.3l-1-.7q-.6-.4-1.3-.4l-.7.1-.6.2-.3.4q-.2.2-.2.5l.1.4q.1.2.4.3l.6.4 1.1.3q1.6.4 2.2 1 .7.6.7 1.4 0 .5-.3 1-.2.5-.7.9l-1 .5q-.7.2-1.5.2-2 0-3.4-1.3l.7-1.3v.2l.2.3.4.4.9.4q.2.2.6.2h1.4l.7-.3.4-.4q.2-.2.2-.6 0-.4-.4-.7-.4-.4-1.6-.7l-1-.3-1-.5-.5-.4-.4-.6-.1-.8.2-.8.7-.7 1-.5q.6-.2 1.3-.2 1.8 0 3 1.3zm2.9-.2q1-1.1 3-1.1 1.4 0 2.3.7.9.8.9 2.6v5h-1.3v-.8q-1.3 1-3 1l-1-.1q-.6-.2-1-.6l-.5-.7-.2-.8q0-1.3 1-2 1.2-.7 3.2-.8h1.5v-.3q0-1.2-.5-1.7t-1.6-.5q-1.3 0-2.2 1l-.6-.9zm5 3.4h-1.2l-1.7.1-1 .4-.5.5v.7q0 .5.4 1 .5.4 1.3.4l1-.2.7-.4.5-.5.3-.5q.2-.3.2-1v-.5zm3 3.8v-8.2h1.2v.8l.7-.7q.5-.3 1-.3t1 .4q.3.3.4.8.3-.5.8-.8.5-.4 1-.4 1 0 1.3.6.4.6.4 1.5v6.4h-1.2v-6.8l-.2-.4-.3-.3h-.3q-.3 0-.5.2l-.4.5-.3.6-.1.7v5.5h-1.2v-5.8q0-1-.2-1.3-.2-.4-.6-.4-.5 0-.9.5-.4.6-.4 1.5v5.5h-1.2zm14-9.8l-.1-1.1q0-.5.2-.8l.6-.2q.3 0 .5.2.3.3.3.9 0 .6-.6 2.3l-.5 1.1-1-.2.4-1.2.2-1zm-3 0l-.2-1.1q0-.5.2-.8l.6-.2q.3 0 .5.2.3.3.3.9 0 .6-.6 2.3l-.5 1.1-1-.2.4-1.2.2-.5v-.5zm11.8 9.5q0 1.4-1.9 3.4l-.6-.6q.5-.4.8-1 .4-.5.4-.8l-.2-.4-.3-.3-.3-.3-.1-.4q0-.5.2-.8.4-.3.8-.3.5 0 .9.4.3.4.3 1.1zm14.2-6.9q1-1.1 3-1.1 1.4 0 2.3.7.9.8.9 2.6v5h-1.3v-.8q-1.3 1-3 1l-1-.1q-.6-.2-1-.6l-.5-.7-.2-.8q0-1.3 1-2 1.2-.7 3.2-.8h1.5v-.3q0-1.2-.5-1.7t-1.6-.5q-1.3 0-2.2 1l-.6-.9zm5 3.4h-1.2l-1.7.1-1 .4-.5.5v.7q0 .5.4 1 .5.4 1.3.4l1-.2.7-.4.5-.5.3-.5q.2-.3.2-1v-.5zm5.1-3.1l-.4.6v1.4l.4.6.6.4.7.1.7-.1.6-.4.4-.6.1-.7-.1-.7-.4-.6-.6-.4-.7-.1q-.7 0-1.3.5zm3.3-.7q.9-.8 2-.8h.3l.2 1h-.5q-.8 0-1.4.4.4.7.4 1.4 0 .6-.2 1.1l-.7 1-1 .5q-.5.3-1 .3-.6 0-1.1-.2-.6.5-.6.9 0 .3.3.5l1 .1h1.4l1.4.1 1 .5q.3.2.4.6l.2.8-.2 1q-.2.4-.7.8l-1.2.5q-.7.3-1.7.3t-1.7-.2l-1.1-.4-.7-.7q-.2-.3-.2-.7 0-1 1.4-1.8-.7-.3-.7-1.1t1-1.6q-.6-.4-1-1-.3-.6-.3-1.2t.3-1.2q.2-.5.6-.9l1-.6 1.1-.2q1.2 0 2 .8zm-3.2 7.2q-1 .6-1 1.3l.2.6.6.4.8.2h1q1.1 0 1.8-.3.7-.4.7-1t-.4-.8q-.3-.3-1.1-.3h-2.6zm10.8-8q.6 0 1.3.3.6.2 1 .7.5.5.8 1.2.2.7.2 1.7v.6h-5.8q0 .9.2 1.5l.7 1 .9.5 1 .1q1.2 0 2-1l.8.8q-1 1.2-2.9 1.2-.9 0-1.6-.2-.8-.3-1.3-.9-.5-.5-.8-1.3-.3-.8-.3-1.8t.3-1.9q.3-.8.8-1.3.5-.6 1.2-.9.7-.3 1.5-.3zm-2.5 3.5h4.5v-.3l-.1-.8-.5-.7-.7-.5q-.3-.2-.8-.2-.8 0-1.5.6t-.9 2zm11.9-2.3q.3.3.3.7 0 .4-.3.7-.3.3-.8.3-.4 0-.7-.3-.3-.3-.3-.7 0-.4.3-.7.3-.4.7-.4.4 0 .8.4zm0 5.7q.3.3.3.7 0 .4-.3.8-.3.3-.8.3-.4 0-.7-.3-.3-.3-.3-.8 0-.4.3-.7.3-.3.7-.3.4 0 .8.3zm18.3-9.7v11.3h-1.2v-9.7l-2.3.7-.3-.7 3-1.6h.8zm11.2 2.6q0 .8-.5 1.5t-1.3 1.2q1 .4 1.6 1.3.6.8.6 1.8 0 .6-.3 1.2l-.7 1q-.5.4-1.1.6-.6.2-1.4.2-.7 0-1.3-.2-.6-.2-1.1-.6-.5-.4-.7-1-.3-.5-.3-1.2 0-1 .6-1.8t1.7-1.3q-.8-.4-1.3-1.1-.4-.7-.4-1.5 0-.6.2-1.1.2-.5.6-.9l1-.6q.5-.2 1.2-.2.6 0 1.1.2.6.2 1 .6l.6.8.2 1zm-3.3 3.2q-.8.3-1.3 1-.6.7-.6 1.5l.2.8.4.6q.3.3.7.4.4.2.9.2l.8-.1.7-.5q.3-.2.4-.6.2-.3.2-.7 0-.9-.7-1.6-.6-.7-1.7-1zm-1.1-2.3l.5.7.8.5.3.1q.7-.3 1.1-1 .5-.6.5-1.2l-.2-.6-.3-.5-.6-.4-.7-.1-.7.1-.6.3-.3.6-.1.5q0 .6.3 1zm11.3 7.4q0 1.4-1.9 3.4l-.6-.6q.5-.4.8-1 .4-.5.4-.8l-.2-.4-.3-.3-.3-.3-.1-.4q0-.5.2-.8.4-.3.8-.3.5 0 .9.4.3.4.3 1.1zm17.6-1.2q.3.3.3.7 0 .4-.3.8-.3.3-.8.3-.4 0-.7-.3-.3-.3-.3-.8 0-.4.3-.7.3-.3.7-.3.4 0 .8.3zm9 0q.3.3.3.7 0 .4-.3.8-.3.3-.8.3-.4 0-.7-.3-.3-.3-.3-.8 0-.4.3-.7.3-.3.7-.3.4 0 .8.3zm9 0q.3.3.3.7 0 .4-.3.8-.3.3-.8.3-.4 0-.7-.3-.3-.3-.3-.8 0-.4.3-.7.3-.3.7-.3.4 0 .8.3zm19-6.8v1.3q0 1 .4 1.5.4.4 1.2.4h.4v1h-.4q-.8 0-1.2.5-.4.4-.4 1.6v1.8q0 1.6-.6 2.3-.8.8-2.3.8h-1.5v-1h2l.3-.2h.2q.7-.6.7-2v-1.5q0-2.2 1.5-2.7-1.6-.7-1.6-2.7v-1.3q0-1-.4-1.4-.4-.5-1.4-.5h-1.3v-1h1.8q.7 0 1.3.4.6.4 1 1 .3.6.3 1.7zm-255.2 50.9v-1.8q0-1.2-.4-1.6-.4-.4-1.1-.4h-.4v-1h.3q.9 0 1.3-.5.4-.4.4-1.4v-1.3q0-3.2 3.2-3.2h1.2v1h-1.5q-1.7 0-1.7 2v1.2q0 2-1.5 2.7 1.5.5 1.5 2.8v1.5q0 1.2.5 1.7.5.4 1.7.4h1v1H560q-.6 0-1.2-.5-1-.8-1-2.6zm16.4.3v-8.2h1.3v1.4q.5-.7 1.2-1.2.7-.4 1.5-.4l1 .2q.5.1.8.6l.5 1q.2.7.2 1.6v5h-1.3v-5q0-1.3-.4-1.8t-1-.5l-1 .2-.7.5q-.4.3-.6.8l-.2 1v4.8h-1.3zm9.4-7.3q1-1.1 3-1.1 1.4 0 2.3.8.9.7.9 2.5v5.1h-1.3v-.9q-1.3 1-3 1l-1-.1-1-.5-.5-.8-.2-.8q0-1.2 1-2 1.2-.7 3.2-.7h1.5v-.4q0-1.2-.5-1.7-.5-.4-1.6-.4-1.3 0-2.2.9l-.6-.9zm5 3.4h-1.2q-1 0-1.7.2l-1 .3-.5.6v.6q0 .6.4 1 .5.4 1.3.4l1-.2q.4-.1.7-.4l.5-.5.3-.4q.2-.4.2-1v-.6zm3 3.9v-8.2h1.2v.8q.3-.5.7-.7.5-.3 1-.3t1 .3q.3.4.4.9.3-.6.8-.9.5-.3 1-.3 1 0 1.3.6.4.6.4 1.5v6.3h-1.2v-6.8l-.2-.4-.3-.2h-.3l-.5.1-.4.5-.3.7-.1.7v5.4h-1.2v-5.7q0-1-.2-1.4-.2-.3-.6-.3-.5 0-.9.5t-.4 1.4v5.5h-1.2zm13-8.4l1.3.2q.6.2 1 .7.5.5.8 1.2.2.8.2 1.8v.6h-5.8q0 .8.3 1.4.2.6.6 1l.9.5 1 .1q1.2 0 2-.9l.8.7q-1 1.3-2.9 1.3-.9 0-1.6-.3-.8-.3-1.3-.8-.5-.6-.8-1.4-.3-.8-.3-1.8t.3-1.8q.3-.9.8-1.4.5-.6 1.2-.8.7-.3 1.5-.3zm-2.5 3.5h4.5v-.3l-.1-.9-.5-.7-.7-.5-.8-.1q-.8 0-1.5.6t-.9 1.9zm11.9-2.4q.3.3.3.7 0 .4-.3.7-.3.4-.8.4-.4 0-.7-.4-.3-.3-.3-.7 0-.4.3-.7.3-.3.7-.3.4 0 .8.3zm0 5.7q.3.4.3.8t-.3.7q-.3.3-.8.3-.4 0-.7-.3-.3-.3-.3-.7 0-.5.3-.8.3-.3.7-.3.4 0 .8.3zm18.6-8.3l-.1-1.1q0-.5.2-.7.3-.3.6-.3t.5.3q.3.2.3.8 0 .6-.6 2.3l-.5 1.2-1-.3.4-1.2.2-1zm-3 0l-.2-1.1q0-.5.2-.7.3-.3.6-.3t.5.3q.3.2.3.8 0 .7-.6 2.3l-.5 1.2-1-.3.4-1.2.2-.5v-.5zm7 9.9v-8.2h1.2v.8q.3-.5.7-.7.5-.3 1-.3t1 .3q.3.4.4.9.3-.6.8-.9.5-.3 1-.3 1 0 1.3.6.4.6.4 1.5v6.3h-1.2v-6.8l-.2-.4-.3-.2h-.3l-.5.1-.4.5-.3.7-.1.7v5.4h-1.2v-5.7q0-1-.2-1.4-.2-.3-.6-.3-.5 0-.9.5t-.4 1.4v5.5h-1.2zm13-8.4l1.3.2q.6.2 1 .7.5.5.8 1.2.2.8.2 1.8v.6h-5.8q0 .8.3 1.4.2.6.6 1l.9.5 1 .1q1.2 0 2-.9l.8.7q-1 1.3-2.9 1.3-.9 0-1.6-.3-.8-.3-1.3-.8-.5-.6-.8-1.4-.3-.8-.3-1.8t.3-1.8q.3-.9.8-1.4.5-.6 1.2-.8.7-.3 1.5-.3zm-2.5 3.5h4.5v-.3l-.1-.9-.5-.7-.7-.5-.8-.1q-.8 0-1.5.6t-.9 1.9zm8.4-7h3.6v10.9h2.4v1h-6.1v-1h2.4v-10h-2.3v-1zm13.1 2l-.1-1.1q0-.5.2-.7.3-.3.6-.3t.5.3q.3.2.3.8 0 .6-.6 2.3l-.5 1.2-1-.3.4-1.2.2-1zm-3 0l-.2-1.1q0-.5.2-.7.3-.3.6-.3t.5.3q.3.2.3.8 0 .7-.6 2.3l-.5 1.2-1-.3.4-1.2.2-.5v-.5zm11.8 9.5q0 1.5-1.9 3.4l-.6-.5.8-1q.4-.6.4-1l-.2-.3-.3-.2-.3-.4-.1-.4.2-.8q.4-.3.8-.3.5 0 .9.5.3.4.3 1zm14.2-6.9q1-1.1 3-1.1 1.4 0 2.3.8.9.7.9 2.5v5.1h-1.3v-.9q-1.3 1-3 1l-1-.1-1-.5-.5-.8-.2-.8q0-1.2 1-2 1.2-.7 3.2-.7h1.5v-.4q0-1.2-.5-1.7-.5-.4-1.6-.4-1.3 0-2.2.9l-.6-.9zm5 3.4h-1.2q-1 0-1.7.2l-1 .3-.5.6v.6q0 .6.4 1 .5.4 1.3.4l1-.2q.4-.1.7-.4l.5-.5.3-.4q.2-.4.2-1v-.6zm5.1-3l-.4.6v1.3l.4.6.6.4.7.1.7-.1.6-.4.4-.6.1-.7-.1-.6-.4-.6-.6-.4q-.3-.2-.7-.2-.7 0-1.3.6zm3.3-.8q.9-.7 2-.7h.3l.2 1h-.5q-.8 0-1.4.4.4.6.4 1.4l-.2 1-.7 1-1 .6-1 .2q-.6 0-1.1-.2-.6.5-.6 1 0 .2.3.4.4.2 1 .2h2.8l1 .5q.3.3.4.7.2.3.2.8l-.2 1q-.2.4-.7.7-.5.4-1.2.6-.7.2-1.7.2t-1.7-.2q-.7-.1-1.1-.4l-.7-.6-.2-.8q0-1 1.4-1.8-.7-.3-.7-1.1t1-1.6q-.6-.3-1-1-.3-.5-.3-1.2 0-.6.3-1.1.2-.6.6-1l1-.6 1.1-.2q1.2 0 2 .8zm-3.2 7.3q-1 .5-1 1.2 0 .4.2.6.2.3.6.4.3.2.8.2l1 .1q1.1 0 1.8-.4t.7-1q0-.5-.4-.8-.3-.3-1.1-.3h-2.6zm10.8-8l1.3.2q.6.2 1 .7.5.5.8 1.2.2.8.2 1.8v.6h-5.8q0 .8.3 1.4.2.6.6 1l.9.5 1 .1q1.2 0 2-.9l.8.7q-1 1.3-2.9 1.3-.9 0-1.6-.3-.8-.3-1.3-.8-.5-.6-.8-1.4-.3-.8-.3-1.8t.3-1.8q.3-.9.8-1.4.5-.6 1.2-.8.7-.3 1.5-.3zm-2.5 3.5h4.5v-.3l-.1-.9-.5-.7-.7-.5-.8-.1q-.8 0-1.5.6t-.9 1.9zm11.9-2.4q.3.3.3.7 0 .4-.3.7-.3.4-.8.4-.4 0-.7-.4-.3-.3-.3-.7 0-.4.3-.7.3-.3.7-.3.4 0 .8.3zm0 5.7q.3.4.3.8t-.3.7q-.3.3-.8.3-.4 0-.7-.3-.3-.3-.3-.7 0-.5.3-.8.3-.3.7-.3.4 0 .8.3zm20.3-6.8q0 .8-.4 1.5-.5.6-1.2 1 .8.2 1.3 1 .6.8.6 1.8 0 .7-.3 1.3-.2.6-.7 1-.4.5-1 .7-.7.3-1.6.3-1.6 0-2.8-1.3l1-1.1v.2q0 .2.2.3l.2.2.6.4 1 .1.8-.1.7-.5.5-.8q.2-.4.2-.9 0-1-.8-1.5-.7-.6-1.9-.6h-.5v-1l1.4-.1.9-.5.5-.6.1-.9-.1-.6-.4-.5-.6-.4-.8-.1q-1.2 0-2 .8l-.6-.7q1-1.3 2.6-1.3.7 0 1.2.3.6.2 1 .6.5.4.7 1 .2.4.2 1zm9.2-.3q0 .8-.5 1.5-.5.8-1.3 1.2 1 .5 1.6 1.3.6.8.6 1.8 0 .6-.3 1.2l-.7 1q-.5.4-1.1.6-.6.3-1.4.3-.7 0-1.3-.3-.6-.2-1.1-.6-.5-.4-.7-1-.3-.5-.3-1.1 0-1 .6-1.8.6-.9 1.7-1.4-.8-.4-1.3-1-.4-.8-.4-1.6 0-.6.2-1 .2-.6.6-1l1-.5q.5-.3 1.2-.3.6 0 1.1.3l1 .5.6.9.2 1zm-3.3 3.2q-.8.4-1.3 1-.6.7-.6 1.5 0 .5.2.8l.4.6.7.5.9.1.8-.1.7-.4.4-.6.2-.8q0-.8-.6-1.5-.7-.7-1.8-1zm-1.1-2.2l.5.6.8.5.3.2q.7-.4 1.1-1 .5-.6.5-1.3l-.2-.6-.3-.5-.6-.4-.7-.1-.7.1-.5.4q-.3.2-.4.5l-.1.6q0 .5.3 1zm11.3 7.3q0 1.5-1.9 3.4l-.6-.5.8-1q.4-.6.4-1l-.2-.3-.3-.2-.3-.4-.1-.4.2-.8q.4-.3.8-.3.5 0 .9.5.3.4.3 1zm17.6-1.2q.3.4.3.8t-.3.7q-.3.3-.8.3-.4 0-.7-.3-.3-.3-.3-.7 0-.5.3-.8.3-.3.7-.3.4 0 .8.3zm9 0q.3.4.3.8t-.3.7q-.3.3-.8.3-.4 0-.7-.3-.3-.3-.3-.7 0-.5.3-.8.3-.3.7-.3.4 0 .8.3zm9 0q.3.4.3.8t-.3.7q-.3.3-.8.3-.4 0-.7-.3-.3-.3-.3-.7 0-.5.3-.8.3-.3.7-.3.4 0 .8.3zm19-6.7v1.3q0 1 .4 1.4.4.5 1.2.5h.4v1h-.4q-.7 0-1.2.4-.4.4-.4 1.6v1.8q0 1.6-.6 2.4-.8.8-2.3.8h-1.5v-1h1.6l.4-.1.3-.1.2-.2q.7-.5.7-1.8V506q0-2.3 1.5-2.8-1.6-.7-1.6-2.7v-1.2q0-1-.4-1.5-.4-.4-1.4-.4h-1.3v-1h1.8q.7 0 1.3.4.6.3 1 1 .3.6.3 1.7z" font-size="18" font-family="Inconsolata" fill="#173182"/><path d="M663 627.6h1.5v5.4q0 .9.2 1.5l.5 1q.3.4.6.5.4.2 1 .2l.9-.2.8-.6q.4-.4.6-1 .2-.6.2-1.5v-5.3h1.5v8.7l.1.9h-1.6v-1.5q-.5.8-1.3 1.3-.7.4-1.7.4-.7 0-1.3-.2-.6-.3-1-.8-.5-.6-.8-1.4-.2-.9-.2-2v-5.4zm18.3 1.3l-1 1.3v-.4q-.4-.5-1.1-.9-.7-.4-1.6-.4l-.8.1-.6.3q-.3.1-.5.4l-.2.6q0 .3.2.5.1.2.4.3l.7.4 1.3.4q1.8.5 2.6 1.2.7.7.7 1.6l-.2 1.2q-.3.6-.8 1l-1.3.7q-.7.2-1.7.2-2.4 0-4-1.5l.8-1.5.1.2.2.3.4.4 1 .6.8.2h1.6l.8-.4.6-.4q.2-.3.2-.7 0-.5-.5-1-.5-.3-1.9-.7l-1.2-.4-1-.5-.7-.5q-.3-.3-.4-.7l-.2-.8q0-.6.3-1 .2-.5.7-.8.5-.4 1.2-.6.7-.2 1.5-.2 2.2 0 3.6 1.5zm6.8-1.5q.8 0 1.5.2.7.3 1.2.9.6.5.9 1.4.3.8.3 2v.7h-6.8q0 1 .3 1.7t.8 1.1q.4.4 1 .6l1.1.2q1.5 0 2.5-1l.9.7q-1.3 1.5-3.4 1.5-1 0-2-.3-.8-.3-1.4-1-.6-.6-1-1.5-.3-1-.3-2.2 0-1.2.4-2.1.3-1 .9-1.6.6-.7 1.4-1 .8-.3 1.7-.3zm-2.9 4h5.3v-.3l-.2-1-.5-.8-.8-.6-1-.2q-1 0-1.8.7t-1 2.2zm10.1-3.8h1.5v1.8q.4-1 1.4-1.5 1-.5 2-.5 1.6 0 2.6 1l-.7 1.5-.4-.6-.4-.3q-.2-.2-.5-.2l-.6-.1q-.7 0-1.3.3-.7.3-1.1.9-.5.5-.7 1.2-.3.7-.3 1.4v4.7h-1.5v-9.6zm17.5 1.3l-1 1.3v-.4q-.4-.5-1.1-.9-.7-.4-1.6-.4l-.8.1-.6.3q-.3.1-.5.4l-.2.6q0 .3.2.5.1.2.4.3l.7.4 1.3.4q1.8.5 2.6 1.2.7.7.7 1.6l-.2 1.2q-.3.6-.8 1l-1.3.7q-.7.2-1.7.2-2.4 0-4-1.5l.8-1.5.1.2.2.3.4.4 1 .6.8.2h1.6l.8-.4.6-.4q.2-.3.2-.7 0-.5-.5-1-.5-.3-1.9-.7l-1.2-.4-1-.5-.7-.5q-.3-.3-.4-.7l-.2-.8q0-.6.3-1 .2-.5.7-.8.5-.4 1.2-.6.7-.2 1.5-.2 2.2 0 3.6 1.5z" font-size="21" font-family="Inconsolata" fill="#173182"/><path d="M19.7 61v-6.6h1.8l-.1.4-.1.3v14.3l.1 1h-1.7l-.1-.8v-1q-.5 1-1.4 1.5-1 .5-1.9.5-.9 0-1.7-.3-.8-.4-1.4-1.1-.6-.7-1-1.8t-.4-2.6q0-1.5.5-2.6.4-1 1-1.7.7-.7 1.5-1 .8-.4 1.7-.4 1.1 0 2 .6.8.5 1.2 1.3zm-5.1.4q-1 1-1 3.1t.7 3.4q.8 1.2 2.3 1.2h.8l.8-.5.6-.6.5-.8q.2-.9.2-2.3v-1.6l-.3-1q-.1-.4-.4-.7-.2-.3-.6-.5l-.8-.4-.7-.1q-.7 0-1.2.2-.5.1-1 .6zm9.6-7h2l-.1.3-.1.3v6q.5-.9 1.4-1.4.9-.5 1.8-.5 1 0 1.8.3.8.4 1.4 1 .6.8 1 1.8.3 1.1.3 2.5 0 1.5-.4 2.6-.4 1-1 1.8-.7.7-1.5 1.1-.8.4-1.6.4-1 0-1.9-.5-.8-.4-1.4-1.2l-.6 1.4h-1v-16zm3 14.3l.8.4h.7l1-.1q.6-.2 1.1-.7.5-.4.8-1.2.4-.8.4-2 0-2.1-1-3.3-.8-1.1-2.5-1.1-.6 0-1.3.4-.6.4-1 1.1-.2.8-.2 2.4v1.7q0 .7.2 1.2.1.4.4.7.2.3.6.5zm14.3-.4q.4.4.4 1t-.4 1q-.4.4-1 .4t-1-.4q-.4-.4-.4-1t.4-1q.4-.4 1-.4.5 0 1 .4zm6.8-8.9H50v6.2q0 1 .2 1.7l.5 1.2.8.6 1 .2q.6 0 1.1-.3l1-.7q.4-.4.6-1.1.3-.7.3-1.7v-6h1.7v10l.1.9h-1.8v-1.7q-.5 1-1.5 1.5-.8.5-2 .5-.8 0-1.4-.3-.7-.3-1.3-1-.5-.6-.8-1.5-.2-1-.2-2.3v-6.2zm20.8 1.5l-1 1.5v-.2L68 62q-.5-.6-1.3-1-.8-.5-1.8-.5l-.9.1-.7.3-.5.5q-.2.3-.2.7 0 .3.2.5l.4.4q.3.3.9.5l1.5.4q2 .6 2.9 1.4.8.7.8 1.8 0 .7-.3 1.4-.3.6-.9 1.1-.6.5-1.4.8-.9.2-2 .2-2.7 0-4.6-1.7l1-1.7.1.2.2.4.5.5 1.2.6q.3.2.8.2l1 .1.9-.1q.5-.1.9-.4.4-.2.6-.5.3-.3.3-.7 0-.7-.6-1.1-.6-.4-2.1-.9l-1.4-.4-1.3-.6-.7-.6-.5-.8q-.2-.4-.2-1t.3-1q.4-.6 1-1 .5-.4 1.3-.7.7-.2 1.7-.2 2.5 0 4 1.7zm7.9-1.7q.8 0 1.7.3.8.3 1.4 1 .6.6 1 1.6.3 1 .3 2.3v.8h-7.8q0 1.1.4 2 .3.7.9 1.2l1.1.7 1.3.2q1.7 0 2.9-1.3l1 1q-1.5 1.6-3.9 1.6-1.2 0-2.2-.3-1-.4-1.7-1.1-.7-.7-1-1.8-.5-1-.5-2.4t.4-2.5q.4-1.1 1.1-1.8.7-.8 1.6-1.1 1-.4 2-.4zm-3.3 4.6h6v-.4q0-.6-.2-1-.2-.6-.6-1l-1-.7q-.4-.2-1-.2-1.2 0-2 .8-1 .8-1.2 2.5zm11.4-4.4H87v2.1q.5-1.1 1.6-1.7 1-.6 2.3-.6 1.8 0 3 1.2L93 62l-.5-.6-.5-.4-.5-.2-.8-.1q-.8 0-1.5.3L88 62q-.5.6-.8 1.4-.3.8-.3 1.7v5.3h-1.8v-11zm20 1.5l-1 1.5v-.2l-.1-.2q-.5-.6-1.3-1-.8-.5-1.8-.5l-.9.1-.7.3-.5.5q-.2.3-.2.7 0 .3.2.5l.4.4q.3.3.9.5l1.5.4q2 .6 2.9 1.4.8.7.8 1.8 0 .7-.3 1.4-.3.6-.9 1.1-.6.5-1.4.8-.9.2-2 .2-2.7 0-4.6-1.7l1-1.7.1.2.2.4.5.5 1.2.6q.3.2.8.2l1 .1.9-.1q.5-.1.9-.4.4-.2.6-.5.3-.3.3-.7 0-.7-.6-1.1-.6-.4-2.1-.9l-1.4-.4-1.3-.6-.7-.6-.5-.8q-.2-.4-.2-1t.3-1q.4-.6 1-1 .5-.4 1.3-.7.7-.2 1.7-.2 2.5 0 4 1.7zm8.4 7.4q.4.4.4 1t-.4 1q-.4.4-1 .4t-1-.4q-.4-.4-.4-1t.4-1q.4-.4 1-.4.5 0 1 .4zm7.8-8.9h4.4V69h2.6v1.4h-7.1V69h2.8v-8.2h-2.7v-1.4zM124 55q.4-.3.9-.3t.8.3q.4.4.4 1 0 .4-.4.8-.3.3-.8.3t-.9-.3q-.4-.4-.4-.9t.4-.9zm8.4 15.4v-11h1.8v2q.6-1 1.6-1.6 1-.6 2-.6.7 0 1.3.2.6.3 1 .8.5.6.8 1.4.2 1 .2 2.2v6.6h-1.7v-6.6q0-1.7-.6-2.4-.5-.7-1.4-.7l-1.1.2-1 .7-.8 1q-.3.7-.3 1.5v6.3h-1.8zm20.7-9.5l-1 1.5v-.2l-.1-.2q-.5-.6-1.3-1-.8-.5-1.8-.5l-.9.1-.7.3-.5.5q-.2.3-.2.7 0 .3.2.5l.4.4q.3.3.9.5l1.5.4q2 .6 2.9 1.4.8.7.8 1.8 0 .7-.3 1.4-.3.6-.9 1.1-.6.5-1.4.8-.9.2-2 .2-2.7 0-4.6-1.7l1-1.7.1.2.2.4.5.5 1.2.6q.3.2.8.2l1 .1.9-.1q.5-.1.9-.4.4-.2.6-.5.3-.3.3-.7 0-.7-.6-1.1-.6-.4-2.1-.9l-1.4-.4-1.3-.6-.7-.6-.5-.8q-.2-.4-.2-1t.3-1q.4-.6 1-1 .5-.4 1.3-.7.7-.2 1.7-.2 2.5 0 4 1.7zm7.9-1.7q.8 0 1.7.3.8.3 1.4 1 .6.6 1 1.6.3 1 .3 2.3v.8h-7.8q0 1.1.4 2 .3.7.9 1.2l1.1.7 1.3.2q1.7 0 2.9-1.3l1 1q-1.5 1.6-3.9 1.6-1.2 0-2.2-.3-1-.4-1.7-1.1-.7-.7-1-1.8-.5-1-.5-2.4t.4-2.5q.4-1.1 1.1-1.8.7-.8 1.6-1.1 1-.4 2-.4zm-3.3 4.6h6v-.4q0-.6-.2-1-.2-.6-.6-1l-1-.7q-.4-.2-1-.2-1.2 0-2 .8-1 .8-1.2 2.5zm11.4-4.4h1.8v2.1q.5-1.1 1.6-1.7 1-.6 2.3-.6 1.8 0 3 1.2L177 62l-.5-.6-.5-.4-.5-.2-.8-.1q-.8 0-1.5.3l-1.2 1q-.5.6-.8 1.4-.3.8-.3 1.7v5.3h-1.8v-11zm14.2-2.9l1.9-.3-.1.4v.2l-.4 2.6h3.6V61h-3.6l-.2 4v1.9l.3 1.3q.2.4.6.7.4.2 1 .2 1.2 0 2.5-1l.5 1.4q-1.6 1.2-3.4 1.2-1.7 0-2.5-1t-.7-3.4V64l.2-3.1h-2.6v-1.5h2.7l.2-2.9zm17.4-.5h-.5q-2 1.2-3.3 3.4-1.1 2.1-1.1 4.9 0 1.3.3 2.6.4 1.3 1 2.5.7 1.2 1.7 2.2 1 1 2.2 1.7l-.8 1.3q-1.4-.8-2.6-1.9-1.1-1-1.9-2.4-.8-1.4-1.2-2.9-.4-1.6-.4-3.2t.4-3.1q.4-1.5 1.2-2.8.8-1.3 2-2.3 1-1 2.5-1.6l.7 1.5h-.2z" font-size="24" font-family="Inconsolata" fill="#173182"/><path d="M48.9 19v2.3q-2.3 1.3-5.2 1.3-2.4 0-4-1-1.7-1-2.7-2.6-1-1.7-1-3.7 0-3.1 2.2-5.3 2.3-2 5.5-2 2.3 0 5 1.2v2.2Q46.2 10 43.8 10q-2.4 0-4 1.5Q38 13 38 15.3q0 2.4 1.6 3.9t4.1 1.5q2.6 0 5.1-1.6zm6.8-6q2.2 0 3.6 1.4 1.4 1.3 1.4 3.4 0 2-1.4 3.4-1.5 1.4-3.7 1.4-2.1 0-3.5-1.4-1.5-1.4-1.5-3.4t1.5-3.5q1.4-1.3 3.6-1.3zm-.1 1.6q-1.3 0-2.2 1-.9.8-.9 2.2 0 1.3 1 2.2.8.8 2.2.8 1.4 0 2.2-.8 1-.9 1-2.3 0-1.3-1-2.2-1-.9-2.3-.9zM62.8 8h1.9v14.4h-1.9V8.1zm4.6 0h1.9v14.4h-1.9V8.1zM80 17.9h-6.6q.1 1.3 1 2.1.8.8 2.1.8 1.8 0 3.4-1.1v1.8q-.9.6-1.7.8-.9.3-2 .3-1.6 0-2.5-.7-1-.6-1.6-1.7-.5-1.1-.5-2.6 0-2.1 1.2-3.5 1.2-1.3 3.2-1.3 1.8 0 3 1.3 1 1.3 1 3.5v.3zm-6.5-1.2h4.7q0-1-.6-1.7-.6-.6-1.6-.6t-1.7.6q-.6.6-.8 1.7zm15.6 3.5v1.9q-1.4.5-2.7.5-2.2 0-3.5-1.3-1.3-1.3-1.3-3.6 0-2.2 1.2-3.5 1.3-1.4 3.4-1.4l1.3.1 1.4.6v2q-1.4-1-2.6-1-1.2 0-2 1-.9.8-.9 2.2 0 1.4 1 2.3.8.8 2.3.8 1 0 2.4-.6zm.9-5.7l3.4-3.5v2h3v1.7h-3v4.6q0 1.6 1.4 1.6 1 0 2.1-.7V22q-1 .6-2.3.6-1.3 0-2.2-.8l-.4-.5-.3-.7-.1-1.8v-4.1h-1.7v-.2zM99.2 9q.5 0 .8.3.4.3.4.8t-.4.8q-.3.3-.8.3-.4 0-.7-.3-.3-.4-.3-.8t.3-.8q.3-.3.7-.3zm-.9 4h1.9v9.4h-1.9V13zm9.1 0q2.1 0 3.6 1.4 1.4 1.3 1.4 3.4 0 2-1.5 3.4-1.4 1.4-3.6 1.4-2.1 0-3.6-1.4-1.4-1.4-1.4-3.4t1.5-3.5q1.4-1.3 3.6-1.3zm-.1 1.6q-1.4 0-2.2 1-.9.8-.9 2.2 0 1.3.9 2.2.9.8 2.3.8 1.3 0 2.2-.8.9-.9.9-2.3 0-1.3-1-2.2-.8-.9-2.2-.9zm9-1.6v1.2q1.3-1.4 2.8-1.4 1 0 1.7.5.7.4 1.1 1.2.4.8.4 2.5v5.4h-1.8V17q0-1.4-.5-2-.4-.6-1.5-.6-1.3 0-2.2 1.3v6.7h-2V13h2zM264 22V7.9h4.9q2.9 0 4.6.8 1.7 1 2.7 2.6 1 1.7 1 3.7 0 1.5-.5 2.8Q276 19 275 20q-1 1-2.5 1.5l-1.4.5H264zm4.7-12.4H266v10.6h2.6q1.6 0 2.4-.2.9-.2 1.4-.5.6-.3 1-.8 1.6-1.5 1.6-3.9 0-2.3-1.6-3.7-.5-.6-1.3-1l-1.4-.4-2.1-.1zm15.3 3q2.2 0 3.6 1.4t1.4 3.5q0 2-1.4 3.4-1.5 1.3-3.7 1.3-2 0-3.5-1.3-1.4-1.4-1.4-3.4 0-2.1 1.4-3.5 1.5-1.4 3.6-1.4zm0 1.7q-1.4 0-2.3.9-.8.9-.8 2.2 0 1.4.8 2.3 1 .8 2.3.8 1.4 0 2.3-.9.8-.8.8-2.2 0-1.3-.9-2.2-.9-.9-2.3-.9zm14.2 5.6v1.8q-1.4.5-2.8.5-2.2 0-3.5-1.3-1.3-1.3-1.3-3.5t1.2-3.6q1.3-1.3 3.4-1.3l1.3.1 1.5.5v2q-1.5-.9-2.7-.9-1.2 0-2 .9-.9.9-.9 2.3t1 2.3q.8.8 2.3.8 1 0 2.5-.6zm8.1 2.1v-1q-.6.6-1.4 1-.7.3-1.5.3-.9 0-1.7-.4-.7-.4-1-1.2-.5-.8-.5-2.5v-5.4h1.9V18q0 1.5.4 2.1.4.6 1.5.6 1.3 0 2.3-1.3v-6.7h1.8V22h-1.8zm12.2-6.8v6.9h-1.9v-5.3q0-1.5-.4-2.2-.4-.6-1.5-.6-.5 0-1 .3t-1.1 1V22h-2v-9.4h2v1.2q1.4-1.4 2.7-1.4 1.8 0 2.8 1.7 1.5-1.8 3.2-1.8 1.3 0 2.2 1 .9 1 .9 3.1V22h-1.9v-5.6q0-1.2-.4-1.8-.5-.6-1.4-.6-1.2 0-2.2 1.1zm16.5 2.3h-6.7q.1 1.4 1 2.2.8.8 2.1.8 1.8 0 3.4-1.2v1.9l-1.7.8q-.8.2-2 .2-1.5 0-2.5-.6-1-.7-1.6-1.8-.5-1-.5-2.5 0-2.1 1.2-3.5 1.2-1.3 3.2-1.3 1.8 0 3 1.3 1 1.3 1 3.5v.2zm-6.6-1h4.7q0-1.2-.6-1.8-.6-.6-1.6-.6t-1.7.6q-.6.6-.8 1.7zm10.4-3.8v1.2q1.3-1.4 2.9-1.4.9 0 1.6.4.8.5 1.2 1.3.4.8.4 2.5V22H343v-5.4q0-1.4-.4-2-.5-.7-1.5-.7-1.3 0-2.3 1.3V22H337v-9.4h2zm7.4 1.4l3.5-3.4v2h3v1.6h-3V19q0 1.6 1.3 1.6 1 0 2.1-.7v1.7q-1 .6-2.3.6-1.3 0-2.1-.7l-.5-.5-.3-.7-.1-1.8v-4.2h-1.6v-.2z" font-size="21" font-family="GillSans" fill="#2a86c0"/><path d="M228.6 176q-.4.4-.5.8-.2.4-.2.9l.2 1 .5.7.8.5q.4.2.9.2l1-.2.7-.5.5-.8q.2-.4.2-.9l-.2-1-.5-.7-.8-.5q-.4-.2-1-.2-.9 0-1.6.7zm4.4-1q1.2-1 2.7-1h.3l.3 1.4h-.7q-1 0-1.9.5.6.8.6 1.8 0 .8-.3 1.5l-.9 1.2q-.5.5-1.3.8-.7.3-1.5.3-.7 0-1.4-.3-.7.8-.7 1.3 0 .4.4.6.5.2 1.3.2h1.8q1 0 1.9.2.7.2 1.2.6.5.3.7.8.3.5.3 1.1 0 .7-.3 1.3-.3.6-1 1-.6.5-1.5.8-1 .3-2.3.3-1.3 0-2.2-.3-1-.1-1.5-.5l-1-.8-.2-1q0-1.3 1.8-2.5-1-.4-1-1.5 0-1 1.3-2-.7-.5-1.2-1.3-.4-.8-.4-1.7 0-.8.3-1.5.4-.7 1-1.3.5-.5 1.2-.8.8-.3 1.5-.3 1.6 0 2.7 1zm-4.3 9.7q-1.3.7-1.3 1.6 0 .5.2.8.3.4.8.6l1 .3h1.4q1.5 0 2.4-.5 1-.5 1-1.4 0-.6-.6-1-.4-.3-1.5-.3H230l-1.3-.1zm10.5-10.4h1.8v2q.5-1 1.6-1.7 1-.6 2.3-.6 1.8 0 3 1.2l-.8 1.7-.5-.6q-.2-.3-.5-.4l-.5-.3-.8-.1q-.8 0-1.5.4-.7.3-1.2 1-.5.6-.8 1.4-.3.7-.3 1.6v5.4h-1.8v-11zm15.8-.3q1 0 1.9.4.9.4 1.5 1.2.7.7 1.1 1.8.4 1 .4 2.4 0 1.3-.4 2.4-.4 1-1 1.8-.7.7-1.6 1.1-1 .4-2 .4t-2-.4q-.9-.4-1.6-1.2-.7-.8-1-1.8-.5-1-.5-2.3 0-1.2.4-2.3.5-1 1.2-1.8t1.6-1.2q1-.5 2-.5zm3.2 5.8q0-1-.3-1.8l-.7-1.4-1-.8q-.7-.3-1.3-.3-.7 0-1.3.3l-1 .8-.7 1.4q-.3.7-.3 1.7t.3 1.8q.3.8.7 1.3l1 1 1.3.2q.7 0 1.3-.2.6-.3 1-.8.5-.6.7-1.4.3-.8.3-1.8zm4.2-5.5h1.7v6q0 1.1.2 1.9.2.7.5 1 .4.5.8.7l1 .2q.6 0 1.1-.3.5-.2 1-.7.4-.4.6-1.1.3-.7.3-1.7v-6h1.7v10l.1 1h-1.8v-1.7q-.6.9-1.5 1.4-.9.5-2 .5-.8 0-1.4-.3-.7-.3-1.3-1-.5-.5-.8-1.5-.2-1-.2-2.3v-6.1zm11.9 0h1.8v1.6q.5-.8 1.4-1.3 1-.6 1.9-.6.9 0 1.7.4.9.3 1.5 1t1 1.8q.4 1 .4 2.5 0 1.4-.4 2.5t-1 1.9q-.7.7-1.6 1-.8.4-1.6.4-1 0-1.9-.4-.9-.5-1.4-1.3v5.4h-1.8v-15zm1.8 6.4q0 1.8.8 2.5.7.8 1.9.8l1.2-.2q.6-.2 1-.7.6-.4.9-1.2.3-.8.3-2 0-2-1-3.2-.8-1.2-2.4-1.2l-1 .2q-.4.1-.9.5l-.6 1.1q-.2.7-.2 1.7v1.7zm19.1-5l-1 1.5-.1-.1v-.3l-1.3-1q-.8-.5-1.8-.5l-.9.1-.7.3-.5.5q-.2.3-.2.7l.1.5.5.5.9.4 1.5.5q2 .5 2.9 1.3.8.7.8 1.8 0 .8-.3 1.4-.3.7-.9 1.1-.6.5-1.4.8-.9.3-2 .3-2.7 0-4.6-1.8l1-1.7.1.3.2.3.5.5 1.2.6.8.3h1.9l.9-.4.6-.6q.2-.3.2-.7 0-.6-.5-1-.6-.5-2.1-1l-1.4-.4q-.9-.3-1.3-.6-.4-.2-.7-.6l-.5-.8q-.2-.4-.2-1 0-.5.3-1 .4-.6.9-1 .6-.4 1.3-.6.8-.3 1.8-.3 2.5 0 4 1.7zm8.4-.2q.4.4.4 1 0 .5-.4 1-.4.3-1 .3t-1-.4q-.4-.4-.4-1 0-.5.4-1 .4-.3 1-.3.5 0 1 .4zm0 7.6q.4.5.4 1 0 .6-.4 1t-1 .4q-.6 0-1-.4t-.4-1q0-.5.4-1 .4-.4 1-.4.5 0 1 .4zm20.4-13.9h6.9v1.4h-5.4V186h5.4v1.4H324v-18.2zm28.4 2.8l-.1-1.4q0-.7.3-1 .3-.3.7-.3.4 0 .8.3.3.4.3 1.2 0 .7-.8 3l-.6 1.5-1.3-.3.5-1.6.2-1.3zm-4.1 0l-.2-1.4q0-.7.3-1 .4-.3.8-.3t.7.3q.3.4.3 1.2 0 .8-.8 3l-.5 1.5-1.4-.3.6-1.6.1-.7.1-.6zm10.2 13.2v-11h1.8v2q.6-1 1.6-1.6 1-.6 2-.6.7 0 1.3.3.6.2 1 .8.5.5.8 1.4.2.8.2 2v6.7h-1.7v-6.6q0-1.7-.6-2.4-.5-.7-1.4-.7-.5 0-1.1.3-.6.2-1 .7-.5.4-.8 1-.3.6-.3 1.4v6.3h-1.8zM375 174q1 0 1.8.3t1.4 1q.6.6 1 1.6.3 1 .3 2.3v.8h-7.8q0 1.2.4 2 .3.7.9 1.2.5.5 1.1.7l1.3.2q1.7 0 2.9-1.2l1 .9q-1.5 1.7-4 1.7-1.1 0-2.1-.4t-1.7-1q-.7-.8-1-1.9-.5-1-.5-2.4t.4-2.5q.4-1 1.1-1.8.7-.7 1.6-1.1 1-.4 2-.4zm-3.2 4.7h6v-.4l-.2-1.2q-.2-.5-.6-.9-.4-.4-1-.6-.4-.3-1-.3-1.2 0-2 .8-1 .8-1.2 2.6zm9.4-4.4h1.8v.4l-.1.3v.2l1.6 7.9 2-7.8h1l2.3 7.8.5-3.5.3-2.3.2-1.5v-1.5h1.6l-.8 5.5-1 5.5H389l-2-7.1-2 7h-1.5l-2.3-11zm22 1.4l-1 1.5-.1-.1v-.3l-1.3-1q-.8-.5-1.8-.5l-.9.1-.7.3-.5.5q-.2.3-.2.7l.1.5.5.5.9.4 1.5.5q2 .5 2.9 1.3.8.7.8 1.8 0 .8-.3 1.4-.3.7-.9 1.1-.6.5-1.4.8-.9.3-2 .3-2.7 0-4.6-1.8l1-1.7.1.3.2.3.5.5 1.2.6.8.3h1.9l.9-.4.6-.6q.2-.3.2-.7 0-.6-.5-1-.6-.5-2.1-1l-1.4-.4q-.9-.3-1.3-.6-.4-.2-.7-.6l-.5-.8q-.2-.4-.2-1 0-.5.3-1 .4-.6.9-1 .6-.4 1.3-.6.8-.3 1.8-.3 2.5 0 4 1.7zm9.2-3.7l-.1-1.4q0-.7.3-1 .3-.3.7-.3.4 0 .8.3.3.4.3 1.2 0 .7-.8 3l-.6 1.5-1.3-.3.5-1.6.2-1.3zm-4.1 0l-.2-1.4q0-.7.3-1 .4-.3.8-.3t.7.3q.3.4.3 1.2 0 .8-.8 3l-.5 1.5-1.4-.3.6-1.6.1-.7.1-.6zm15.9 12.8q0 1.9-2.6 4.5l-.8-.8q.7-.6 1.1-1.3.5-.7.5-1.2l-.2-.4-.4-.4-.4-.4-.2-.6q0-.6.3-1 .5-.4 1-.4.7 0 1.2.5.5.6.5 1.5zm24.2-12.8l-.1-1.4q0-.7.3-1 .3-.3.7-.3.4 0 .8.3.3.4.3 1.2 0 .7-.8 3l-.6 1.5-1.3-.3.5-1.6.2-1.3zm-4.1 0l-.2-1.4q0-.7.3-1 .4-.3.8-.3t.7.3q.3.4.3 1.2 0 .8-.8 3l-.5 1.5-1.4-.3.6-1.6.1-.7.1-.6zm18.9 3.7l-1 1.5-.1-.1v-.3l-1.3-1q-.8-.5-1.8-.5l-.9.1-.7.3-.5.5q-.2.3-.2.7l.1.5.5.5.9.4 1.5.5q2 .5 2.9 1.3.8.7.8 1.8 0 .8-.3 1.4-.3.7-.9 1.1-.6.5-1.4.8-.9.3-2 .3-2.7 0-4.6-1.8l1-1.7.1.3.2.3.5.5 1.2.6.8.3h1.9l.9-.4.6-.6q.2-.3.2-.7 0-.6-.5-1-.6-.5-2.1-1l-1.4-.4q-.9-.3-1.3-.6-.4-.2-.7-.6l-.5-.8q-.2-.4-.2-1 0-.5.3-1 .4-.6.9-1 .6-.4 1.3-.6.8-.3 1.8-.3 2.5 0 4 1.7zm3.1-1.4h1.8v1.6q.5-.8 1.4-1.3 1-.6 1.9-.6.9 0 1.7.4.9.3 1.5 1t1 1.8q.4 1 .4 2.5 0 1.4-.4 2.5t-1 1.9q-.7.7-1.6 1-.8.4-1.6.4-1 0-1.9-.4-.9-.5-1.4-1.3v5.4h-1.8v-15zm1.8 6.4q0 1.8.8 2.5.7.8 1.9.8l1.2-.2q.6-.2 1-.7.6-.4.9-1.2.3-.8.3-2 0-2-1-3.2-.8-1.2-2.4-1.2l-1 .2q-.4.1-.9.5l-.6 1.1q-.2.7-.2 1.7v1.7zM483 174q1 0 1.9.4.9.4 1.5 1.2.7.7 1.1 1.8.4 1 .4 2.4 0 1.3-.4 2.4-.4 1-1 1.8-.7.7-1.6 1.1-1 .4-2 .4t-2-.4q-.9-.4-1.6-1.2-.7-.8-1-1.8-.5-1-.5-2.3 0-1.2.4-2.3.5-1 1.2-1.8t1.6-1.2q1-.5 2-.5zm3.2 5.8q0-1-.3-1.8l-.7-1.4-1-.8q-.7-.3-1.3-.3-.7 0-1.3.3l-1 .8-.7 1.4q-.3.7-.3 1.7t.3 1.8q.3.8.7 1.3l1 1 1.3.2q.7 0 1.3-.2.6-.3 1-.8.5-.6.7-1.4.3-.8.3-1.8zm5-5.5h1.8v2q.5-1 1.6-1.7 1-.6 2.3-.6 1.8 0 3 1.2l-.8 1.7-.5-.6q-.2-.3-.5-.4l-.5-.3-.8-.1q-.8 0-1.5.4-.7.3-1.2 1-.5.6-.8 1.4-.3.7-.3 1.6v5.4h-1.8v-11zm14.2-3l1.9-.3-.1.4v.3l-.4 2.6h3.6v1.4h-3.6l-.2 4v2l.3 1.2q.2.4.6.7.4.2 1 .2 1.1 0 2.5-1l.5 1.4q-1.6 1.3-3.4 1.3-1.7 0-2.5-1-.8-1.1-.7-3.5v-2.2l.2-3.1h-2.6v-1.4h2.7l.2-3zm17.8 4.4l-1 1.5-.1-.1v-.3l-1.3-1q-.8-.5-1.8-.5l-.9.1-.7.3-.5.5q-.2.3-.2.7l.1.5.5.5.9.4 1.5.5q2 .5 2.9 1.3.8.7.8 1.8 0 .8-.3 1.4-.3.7-.9 1.1-.6.5-1.4.8-.9.3-2 .3-2.7 0-4.6-1.8l1-1.7.1.3.2.3.5.5 1.2.6.8.3h1.9l.9-.4.6-.6q.2-.3.2-.7 0-.6-.5-1-.6-.5-2.1-1l-1.4-.4q-.9-.3-1.3-.6-.4-.2-.7-.6l-.5-.8q-.2-.4-.2-1 0-.5.3-1 .4-.6.9-1 .6-.4 1.3-.6.8-.3 1.8-.3 2.5 0 4 1.7zm9.2-3.7l-.1-1.4q0-.7.3-1 .3-.3.7-.3.4 0 .8.3.3.4.3 1.2 0 .7-.8 3l-.6 1.5-1.3-.3.5-1.6.2-1.3zm-4.1 0l-.2-1.4q0-.7.3-1 .4-.3.8-.3t.7.3q.3.4.3 1.2 0 .8-.8 3l-.5 1.5-1.4-.3.6-1.6.1-.7v-.6zm29.4-2.8v18.2H551V186h5.3v-15.4H551v-1.4h6.8z" font-size="24" font-family="Inconsolata" fill="#12206f"/><g font-size="24" font-family="Inconsolata"><path d="M263 125.4q1.4-1.6 3.9-1.6 2 0 3.2 1 1.1 1 1.1 3.5v6.8h-1.6v-1.2q-1.8 1.4-4 1.4-.8 0-1.5-.2l-1.2-.7-.7-1-.2-1.1q0-1.7 1.4-2.6 1.4-1 4.1-1.1h2v-.4q0-1.6-.6-2.3-.7-.6-2.1-.6-1.8 0-3 1.2l-.8-1.1zm6.6 4.5H268q-1.3 0-2.1.2-.9.2-1.4.5-.4.3-.6.7l-.2.8q0 .8.7 1.3.6.6 1.6.6.7 0 1.3-.2l1-.6.7-.6.4-.7q.2-.4.2-1.3v-.7zm6.9-4.1q-.4.4-.5.8-.2.4-.2 1l.2.9.5.7.8.5q.4.2 1 .2l.8-.2.8-.5q.4-.3.5-.8.2-.4.2-.9t-.2-.9q-.1-.5-.5-.8l-.8-.5q-.4-.2-.9-.2-1 0-1.7.7zm4.4-1q1.2-1 2.8-1h.3l.2 1.4h-.7q-1 0-1.9.5.6.8.6 1.8 0 .8-.3 1.5t-.9 1.2q-.5.5-1.2.8-.7.3-1.6.3-.6 0-1.4-.3-.7.8-.7 1.3 0 .4.4.6.5.3 1.3.3h1l.8-.1q1.1 0 1.9.2.8.2 1.2.6.5.3.8.8.2.5.2 1.1 0 .7-.3 1.3-.3.6-1 1-.6.5-1.5.8-1 .3-2.2.3-1.4 0-2.3-.2-1-.2-1.5-.6-.6-.3-1-.8l-.2-1q0-1.3 1.8-2.4-.9-.5-.9-1.5t1.3-2.1q-.8-.5-1.2-1.3-.5-.8-.5-1.7 0-.8.4-1.5.3-.7.9-1.2.5-.6 1.2-.9.8-.3 1.6-.3 1.6 0 2.6 1zm-4.2 9.7q-1.4.7-1.4 1.7 0 .4.2.7.3.4.8.6l1.1.3h1.3q1.5 0 2.5-.4 1-.6 1-1.5-.1-.6-.6-1-.5-.3-1.6-.3h-2l-1.2-.1zm14.3-10.7q.9 0 1.7.3.8.3 1.4 1 .6.6 1 1.6t.4 2.3v.8h-7.9q0 1.2.4 2l.9 1.2q.5.5 1.2.7.6.2 1.3.2 1.7 0 2.8-1.2l1 1q-1.4 1.6-3.9 1.6-1.2 0-2.2-.4-1-.4-1.7-1-.7-.8-1-1.8-.4-1.1-.4-2.5t.3-2.5l1.1-1.8q.7-.7 1.6-1.1 1-.4 2-.4zm-3.3 4.7h6v-.4q0-.6-.2-1.1-.2-.6-.6-1-.4-.4-1-.6-.4-.3-1-.3-1.1 0-2 .9-1 .7-1.2 2.5zm15.8-3.2q.4.4.4 1 0 .5-.4 1-.4.4-1 .4t-1-.4q-.4-.5-.4-1 0-.6.4-1t1-.4q.6 0 1 .4zm0 7.7q.4.4.4 1 0 .5-.4 1-.4.3-1 .3t-1-.4q-.4-.4-.4-1 0-.5.4-1 .4-.3 1-.3t1 .4z" fill="#163182"/><path d="M322.7 122.4q.6-1.1 1.7-1.7 1.1-.7 2.4-.7 1 0 1.7.3.8.4 1.4 1 .6.5 1 1.3.3.7.3 1.6 0 .7-.2 1.3l-.6 1.2q-.3.6-.8 1.1l-.9 1-1.4 1.3-.7.7-.8.8-.7 1-.6 1h6.2l.3-.1.3-.1v1.7h-8.8V134q1-1.8 2-3 1-1.3 2-2.2l1.1-1 1-1 .6-1 .3-.8v-.8l-.2-1q-.2-.5-.6-.9-.4-.4-.9-.6l-1-.2q-.6 0-1.1.2-.5.1-.9.4-.4.2-.6.5l-.2.5-.1.3-1.2-1zm17-2.4q1.8 0 3.3 1.3l-1.2 1.3-.3-.4q0-.3-.3-.4l-.8-.3h-.7l-1.1.2q-.6.2-1.2.8-.5.6-1 1.8-.3 1.1-.3 2.9.5-.8 1.3-1.3.9-.5 1.8-.5t1.6.4q.7.3 1.3 1 .6.6.9 1.5.3.9.3 2t-.3 2q-.3 1-1 1.6-.5.7-1.3 1-.8.4-1.6.4-1.2 0-2-.5-.9-.5-1.5-1.4-.6-1-.9-2.2-.3-1.3-.3-3 0-2 .4-3.5.3-1.6 1-2.6t1.7-1.6q1-.6 2.2-.6zm-3.6 8.9v.6q0 .9.2 1.7l.7 1.4q.4.5 1 .9.5.3 1.1.3 1 0 1.8-.9t.8-2.6q0-.9-.2-1.5-.3-.7-.7-1-.3-.5-.8-.7l-1-.2q-.8 0-1.6.6-.8.5-1.3 1.4z" fill="#111f6f"/><path d="M352.1 134.6q0 1.9-2.5 4.5l-.9-.7 1.2-1.4q.4-.7.4-1.2l-.2-.4-.4-.4-.4-.4-.2-.6q0-.6.4-1t1-.4q.6 0 1.1.5.5.6.5 1.5z" fill="#12206f"/></g><g font-size="24" font-family="Inconsolata"><path d="M235.4 151.6l-1 1.5q-.2 0-.2-.2v-.2q-.4-.6-1.2-1-.8-.5-1.8-.5l-1 .1-.7.3-.5.5q-.2.3-.2.7 0 .3.2.5l.4.4.9.5 1.5.5q2 .5 2.9 1.3.9.7.9 1.8 0 .7-.4 1.4-.3.6-.9 1.1-.6.5-1.4.8-.8.3-1.9.3-2.8 0-4.6-1.8l1-1.7v.2l.2.4.5.5 1.2.6.8.2 1 .1 1-.1.8-.3.6-.6q.3-.3.3-.7 0-.7-.6-1-.6-.5-2.1-1l-1.4-.4q-.9-.3-1.2-.6l-.7-.6q-.4-.3-.5-.8-.2-.4-.2-1 0-.5.3-1 .3-.6.8-1l1.4-.7q.8-.2 1.7-.2 2.5 0 4 1.7zm6.1-4.4l2-.3-.2.4v.3l-.3 2.5h3.6v1.5H243l-.2 4v2q0 .7.2 1.2l.6.7q.4.2 1 .2 1.2 0 2.5-1l.6 1.4q-1.7 1.2-3.5 1.2-1.7 0-2.5-1t-.7-3.4v-2.2l.2-3.1h-2.5V150h2.6l.2-2.9zm9.7 4.2q1.4-1.5 3.9-1.5 2 0 3.2 1 1.1 1 1.1 3.4v6.8h-1.6V160q-1.7 1.5-4 1.5-.8 0-1.5-.3-.7-.2-1.1-.7-.5-.4-.8-1l-.2-1q0-1.7 1.4-2.7 1.4-1 4.1-1h2v-.4q0-1.7-.6-2.3-.7-.7-2.1-.7-1.8 0-3 1.2l-.8-1zm6.7 4.6h-1.7l-2.1.1q-.9.2-1.4.5-.4.3-.6.7-.2.4-.2.9 0 .8.7 1.3.6.6 1.6.6.8 0 1.3-.3l1-.5q.5-.3.7-.7l.4-.6q.3-.5.3-1.3v-.7zm7.6-8.8l2-.3-.2.4v.3l-.3 2.5h3.6v1.5H267l-.2 4v2q0 .7.2 1.2l.6.7q.4.2 1 .2 1.2 0 2.5-1l.6 1.4q-1.7 1.2-3.5 1.2-1.7 0-2.5-1t-.7-3.4v-2.2l.2-3.1h-2.5V150h2.6l.2-2.9zm9 2.9h1.7v6.2q0 1 .2 1.7t.6 1.2q.3.4.8.6.4.2 1 .2.5 0 1-.3.6-.2 1-.7.4-.4.6-1.1.3-.7.3-1.7v-6h1.7v10l.2 1h-1.9v-1.8q-.5 1-1.4 1.5-1 .5-2 .5-.8 0-1.5-.3t-1.2-1q-.6-.6-.8-1.5-.3-1-.3-2.3V150zm20.9 1.5l-1 1.5q-.2 0-.2-.2v-.2q-.4-.6-1.2-1-.8-.5-1.8-.5l-1 .1-.7.3-.5.5q-.2.3-.2.7 0 .3.2.5l.4.4.9.5 1.5.5q2 .5 2.9 1.3.9.7.9 1.8 0 .7-.4 1.4-.3.6-.9 1.1-.6.5-1.4.8-.8.3-1.9.3-2.8 0-4.6-1.8l1-1.7v.2l.2.4.5.5 1.2.6.8.2 1 .1 1-.1.8-.3.6-.6q.3-.3.3-.7 0-.7-.6-1-.6-.5-2.1-1l-1.4-.4q-.9-.3-1.2-.6l-.7-.6q-.4-.3-.5-.8-.2-.4-.2-1 0-.5.3-1 .3-.6.8-1l1.4-.7q.8-.2 1.7-.2 2.5 0 4 1.7zm8.3-.2q.5.4.5 1 0 .5-.5 1-.4.3-1 .3-.5 0-1-.4-.4-.4-.4-1 0-.5.4-1 .5-.3 1-.3.6 0 1 .4zm0 7.6q.5.5.5 1 0 .6-.5 1-.4.4-1 .4t-1-.4q-.4-.4-.4-1t.4-1q.5-.4 1-.4.6 0 1 .4z" fill="#153182"/><path d="M328.6 148l-.2-1.5q0-.7.3-1 .3-.4.7-.4.5 0 .8.4.3.4.3 1.1 0 .8-.8 3l-.6 1.6-1.3-.3.5-1.6q.3-.7.3-1.3zm-4.2 0l-.1-1.5q0-.7.3-1 .3-.4.7-.4.4 0 .7.4.4.4.4 1.1 0 .9-.8 3l-.6 1.6-1.3-.3.5-1.6.2-.7v-.6zm9 13.1l5.2-15.2h.2l5.8 15.2h-1.7l-1.7-4.4h-4.7l-1.5 4.4h-1.6zm7.4-5.6l-2-5.8-2 5.8h4zm11.8-7.5l-.2-1.5q0-.7.3-1 .3-.4.7-.4.5 0 .8.4.3.4.3 1.1 0 .8-.8 3l-.6 1.6-1.3-.3.5-1.6q.3-.7.3-1.3zm-4.2 0l-.1-1.5q0-.7.3-1 .3-.4.7-.4.4 0 .7.4.4.4.4 1.1 0 .9-.8 3l-.6 1.6-1.3-.3.5-1.6.2-.7v-.6z" fill="#143182"/><path d="M364.3 160.6q0 2-2.5 4.5l-.8-.7q.6-.6 1-1.3.5-.7.5-1.2l-.2-.4-.4-.4-.4-.5q-.2-.2-.2-.5 0-.6.4-1 .4-.5 1-.5t1.1.6q.5.5.5 1.4z" fill="#12206f"/></g><path d="M215.9 198v1.8q0 1.3.5 2 .6.5 1.7.5h.4v1.4h-.5q-1 0-1.6.5-.5.6-.5 2.2v2.4q0 2-.9 3.1-1 1-3 1h-2v-1.3h2.2l.5-.1.3-.1.3-.2q1-.7 1-2.5v-2q0-3 2-3.7-2.2-.9-2.2-3.6l.1-1.6q0-1.4-.6-2-.6-.6-1.8-.6H210V194h2.5q.9 0 1.6.5.8.5 1.3 1.3.5.9.5 2.3z" font-size="24" font-family="Inconsolata" fill="#111f6f"/><g font-size="24" font-family="Inconsolata"><path d="M31.7 383.8v-2.4q0-1.6-.5-2.2-.5-.5-1.6-.5h-.5v-1.4h.5q1.1 0 1.7-.6.5-.6.5-2V373q0-4.1 4.3-4.1h1.6v1.3h-2q-2.2 0-2.2 2.6v1.7q0 2.6-2 3.5 2 .7 2 3.7l-.1 2q0 1.7.7 2.3.7.6 2.3.6h1.2v1.4h-.8l-2.1-.1q-1-.1-1.7-.7-1.3-1-1.3-3.4z" fill="#5ca831"/><path d="M53.5 410.2v-11h1.8v2q.6-1 1.6-1.7 1-.6 2-.6.7 0 1.3.3.6.2 1 .8.5.5.8 1.4.2.9.2 2.1v6.7h-1.7v-6.6q0-1.8-.6-2.5-.5-.7-1.4-.7-.5 0-1.1.3-.6.2-1 .7-.5.4-.8 1-.3.7-.3 1.4v6.4h-1.8zm12.5-9.7q1.5-1.6 4-1.6 2 0 3.1 1 1.2 1 1.2 3.5v6.8h-1.6V409q-1.8 1.4-4 1.4-.8 0-1.5-.2l-1.2-.7q-.5-.5-.7-1-.3-.6-.3-1.1 0-1.7 1.5-2.6 1.4-1 4-1.1h2.2v-.4q0-1.6-.7-2.3-.7-.6-2.2-.6-1.7 0-3 1.2l-.7-1.1zm6.7 4.5h-1.6q-1.3 0-2.2.2-.8.2-1.3.5t-.7.7l-.1.8q0 .8.6 1.3.7.6 1.7.6.7 0 1.3-.2l1-.6.7-.6.4-.7q.2-.4.2-1.3v-.7zm4.1 5.2v-11h1.6v1q.3-.5 1-.9.5-.4 1.2-.4t1.2.5q.6.4.7 1.1.4-.7 1-1.1.7-.5 1.5-.5 1.1 0 1.6.8.6.8.5 2v8.5h-1.6v-9l-.3-.6q-.1-.3-.3-.3l-.4-.1q-.4 0-.7.3-.3.2-.5.6-.3.4-.4.9l-.1 1v7.2H81v-7.7q0-1.3-.2-1.8-.3-.5-.9-.5-.6 0-1.1.7-.5.7-.5 2v7.3h-1.6zM94 399q1 0 1.8.2.8.3 1.4 1 .6.6 1 1.6.3 1 .3 2.3v.8h-7.8q0 1.2.4 2 .3.7.9 1.2.5.5 1.1.7l1.3.2q1.7 0 2.9-1.2l1 1q-1.5 1.6-3.9 1.6-1.2 0-2.2-.4-1-.3-1.7-1-.7-.8-1-1.8-.5-1.1-.5-2.5t.4-2.5q.4-1 1.1-1.8.7-.7 1.6-1 1-.5 2-.5zm-3.2 4.6h6v-.4q0-.6-.2-1.1-.2-.6-.6-1-.4-.4-1-.6-.4-.3-1-.3-1.2 0-2 .9-1 .7-1.2 2.5z" fill="#173182"/><path d="M106.6 400.4q.4.4.4 1 0 .5-.4 1-.4.4-1 .4t-1-.4q-.4-.5-.4-1 0-.6.4-1t1-.4q.5 0 1 .4zm0 7.7q.4.4.4 1 0 .5-.4 1-.4.3-1 .3t-1-.4q-.4-.4-.4-1 0-.5.4-1 .4-.3 1-.3.5 0 1 .4z" fill="#163182"/><path d="M131.4 397l-.1-1.5q0-.7.3-1 .3-.3.7-.3.4 0 .8.3.3.4.3 1.2 0 .7-.8 3l-.6 1.6-1.3-.3.5-1.7.2-1.3zm-4.1 0l-.2-1.5q0-.7.3-1 .4-.3.8-.3t.7.3q.3.4.3 1.2 0 .8-.7 3l-.6 1.6-1.4-.3.6-1.7.1-.7.1-.6zm18.9 3.6l-1 1.6v-.2l-.1-.3-1.3-1q-.8-.5-1.8-.5l-.9.2q-.4 0-.7.2-.3.2-.5.6-.2.2-.2.6l.2.6.4.4.9.4 1.5.5q2 .6 2.9 1.3.8.8.8 1.9 0 .7-.3 1.3-.3.7-.9 1.2l-1.4.7q-.9.3-2 .3-2.7 0-4.6-1.7l1-1.8.1.3.2.3q.1.3.5.5l1.2.6.8.3h1.9l.9-.4q.4-.2.6-.6.3-.3.3-.7 0-.6-.6-1-.6-.5-2.1-1l-1.4-.4-1.3-.5-.7-.6-.5-.8-.2-1q0-.6.3-1.1.4-.6 1-1 .5-.4 1.3-.6.7-.3 1.7-.3 2.5 0 4 1.8zm3.2-1.4h1.7v6.1q0 1 .2 1.8.2.7.5 1.1l.8.6 1 .2q.6 0 1.1-.3l1-.6q.4-.5.6-1.2.3-.7.3-1.7v-6h1.7v10l.1 1h-1.8v-1.7q-.5.9-1.5 1.4-.8.5-2 .5-.8 0-1.4-.3-.7-.3-1.3-1-.5-.5-.8-1.5-.2-1-.2-2.3v-6.1zm16.6-.2q1 0 1.8.2.8.3 1.4 1 .6.6 1 1.6.3 1 .3 2.3v.8h-7.8q0 1.2.4 2 .3.7.9 1.2.5.5 1.1.7l1.3.2q1.7 0 2.9-1.2l1 1q-1.5 1.6-3.9 1.6-1.2 0-2.2-.4-1-.3-1.7-1-.7-.8-1-1.8-.5-1.1-.5-2.5t.4-2.5q.4-1 1.1-1.8.7-.7 1.6-1 1-.5 2-.5zm-3.2 4.6h6v-.4q0-.6-.2-1.1-.2-.6-.6-1-.4-.4-1-.6-.4-.3-1-.3-1.2 0-2 .9-1 .7-1.2 2.5zm16.6-6.6l-.1-1.5q0-.7.3-1 .3-.3.7-.3.4 0 .8.3.3.4.3 1.2 0 .7-.8 3l-.6 1.6-1.3-.3.5-1.7.2-1.3zm-4.1 0l-.2-1.5q0-.7.3-1 .4-.3.8-.3t.7.3q.3.4.3 1.2 0 .8-.7 3l-.6 1.6-1.4-.3.6-1.7.1-.7.1-.6z" fill="#2a86c0"/><path d="M191.2 409.7q0 1.9-2.6 4.5l-.8-.7q.7-.7 1.1-1.4.5-.7.5-1.2l-.2-.4-.4-.4-.4-.4-.2-.6q0-.6.3-1 .5-.4 1-.4.7 0 1.2.5.5.6.5 1.5z" fill="#163082"/><path d="M54 426.5q1.5-1.6 4-1.6 2 0 3.1 1 1.2 1 1.2 3.5v6.8h-1.6V435q-1.8 1.4-4 1.4-.8 0-1.5-.2l-1.2-.7q-.5-.5-.7-1-.3-.6-.3-1.1 0-1.7 1.5-2.6 1.4-1 4-1.1h2.2v-.4q0-1.6-.7-2.3-.7-.6-2.2-.6-1.7 0-3 1.2l-.7-1.1zm6.7 4.5h-1.6q-1.3 0-2.2.2-.8.2-1.3.5t-.7.7l-.1.8q0 .8.6 1.3.7.6 1.7.6.7 0 1.3-.2l1-.6.7-.6.4-.7q.2-.4.2-1.3v-.7zm6.9-4q-.4.3-.5.7-.2.4-.2 1l.2.9.5.7.8.5q.4.2.9.2l1-.2.7-.5.5-.8q.2-.4.2-.9t-.2-.9l-.5-.8-.8-.5q-.4-.2-1-.2-.9 0-1.6.7zm4.4-1.1q1.2-1 2.7-1h.4l.2 1.4h-.7q-1 0-1.9.5.6.8.6 1.8 0 .8-.3 1.5t-.9 1.2q-.5.5-1.2.8-.8.3-1.6.3-.7 0-1.4-.3-.7.8-.7 1.3 0 .4.4.6.5.3 1.3.3h1l.8-.1q1 0 1.9.2.7.2 1.2.6.5.3.7.8.3.5.3 1.1 0 .7-.3 1.3-.3.6-1 1-.6.5-1.5.8-1 .3-2.3.3-1.3 0-2.2-.2-1-.2-1.5-.6-.6-.3-1-.8l-.2-1q0-1.3 1.8-2.4-1-.5-1-1.5t1.3-2.1q-.7-.5-1.2-1.3-.4-.8-.4-1.7 0-.8.3-1.5.4-.7 1-1.2.5-.6 1.2-.9.8-.3 1.5-.3 1.6 0 2.7 1zm-4.3 9.7q-1.3.7-1.3 1.7l.2.8.8.5 1 .3h1.4q1.5 0 2.4-.4 1-.6 1-1.5 0-.6-.5-1-.5-.3-1.6-.3H69l-1.3-.1zM82 425q1 0 1.8.2.8.3 1.4 1 .6.6 1 1.6.3 1 .3 2.3v.8h-7.8q0 1.2.4 2 .3.7.9 1.2.5.5 1.1.7l1.3.2q1.7 0 2.9-1.2l1 1q-1.5 1.6-3.9 1.6-1.2 0-2.2-.4-1-.3-1.7-1-.7-.8-1-1.8-.5-1.1-.5-2.5t.4-2.5q.4-1 1.1-1.8.7-.7 1.6-1 1-.5 2-.5zm-3.2 4.6h6v-.4q0-.6-.2-1.1-.2-.6-.6-1-.4-.4-1-.6-.4-.3-1-.3-1.2 0-2 .9-1 .7-1.2 2.5z" fill="#173182"/><path d="M94.6 426.4q.4.4.4 1 0 .5-.4 1-.4.4-1 .4t-1-.4q-.4-.5-.4-1 0-.6.4-1t1-.4q.5 0 1 .4zm0 7.7q.4.4.4 1 0 .5-.4 1-.4.3-1 .3t-1-.4q-.4-.4-.4-1 0-.5.4-1 .4-.3 1-.3.5 0 1 .4z" fill="#163182"/><path d="M113.7 423.5q.7-1.1 1.8-1.7 1.1-.7 2.4-.7 1 0 1.7.3.8.4 1.4 1 .6.5 1 1.3.3.7.3 1.6 0 .7-.3 1.3-.1.6-.5 1.2-.3.6-.8 1.1l-.9 1-1.4 1.3-.7.7-.8.8-.7 1-.6 1h6.2l.3-.1.2-.1h.1v1.7h-8.8V435q1-1.8 2-3 1-1.3 2-2.2l1-1 1-1 .6-1q.3-.4.3-.8l.1-.8-.2-1q-.2-.5-.6-.9-.4-.4-1-.6-.4-.2-1-.2t-1 .2l-1 .4-.5.5-.2.5-.1.3-1.3-1zm17.1-2.5q1.8 0 3.2 1.4l-1.1 1.3-.3-.4q0-.3-.4-.4l-.7-.3h-.7l-1.1.2q-.6.2-1.2.8-.6.6-1 1.8-.3 1.1-.4 3 .5-1 1.4-1.4.8-.5 1.8-.5.8 0 1.6.4.7.3 1.3 1 .6.6.9 1.5.3.9.3 2t-.3 2q-.4 1-1 1.6-.5.7-1.3 1-.8.4-1.7.4-1 0-2-.5-.8-.5-1.4-1.4-.6-1-1-2.2-.2-1.3-.2-3 0-2 .3-3.5.4-1.6 1.1-2.6.7-1 1.7-1.6 1-.6 2.2-.6zm-3.6 9v.6q0 .9.2 1.7l.7 1.4q.4.5 1 .9.5.3 1.1.3 1 0 1.8-.9t.8-2.6q0-.9-.3-1.5-.2-.7-.6-1-.4-.5-.8-.7l-1-.2q-.8 0-1.6.6-.8.5-1.3 1.4z" fill="#2a86c0"/><path d="M143.2 435.7q0 1.9-2.6 4.5l-.8-.7q.7-.7 1.1-1.4.5-.7.5-1.2l-.2-.4-.4-.4-.4-.4-.2-.6q0-.6.3-1 .5-.4 1-.4.7 0 1.2.5.5.6.5 1.5z" fill="#163180"/><path d="M62.2 452.6l-1 1.6v-.2l-.1-.3-1.3-1q-.8-.5-1.8-.5l-.9.2q-.4 0-.7.2-.3.2-.5.6-.2.2-.2.6l.2.6.4.4.9.4 1.5.5q2 .6 2.9 1.3.8.8.8 1.9 0 .7-.3 1.3-.3.7-.9 1.2l-1.4.7q-.9.3-2 .3-2.7 0-4.6-1.7l1-1.8.1.3.2.3q.1.3.5.5l1.2.6.8.3h2l.9-.4q.4-.2.6-.6.3-.3.3-.7 0-.6-.6-1-.6-.5-2.1-1l-1.4-.4-1.3-.5-.7-.6-.5-.8-.2-1q0-.6.3-1.1.4-.6 1-1 .5-.4 1.3-.6.7-.3 1.7-.3 2.5 0 4 1.8zm6.2-4.3l1.9-.4v.4l-.2.3-.3 2.6h3.6v1.4h-3.6l-.2 4v2l.3 1.2q.2.5.6.7.4.3 1 .3 1.2 0 2.5-1l.5 1.3q-1.6 1.3-3.4 1.3-1.7 0-2.5-1-.8-1.1-.7-3.5v-2.2l.2-3.1h-2.6v-1.4h2.7l.2-3zm9.6 4.2q1.5-1.6 4-1.6 2 0 3.1 1 1.2 1 1.2 3.5v6.8h-1.6V461q-1.8 1.4-4 1.4-.8 0-1.5-.2l-1.2-.7q-.5-.5-.7-1-.3-.6-.3-1.1 0-1.7 1.5-2.6 1.4-1 4-1.1h2.2v-.4q0-1.6-.7-2.3-.7-.6-2.2-.6-1.7 0-3 1.2l-.7-1.1zm6.7 4.5h-1.6q-1.3 0-2.2.2-.8.2-1.3.5t-.7.7l-.1.8q0 .8.6 1.3.7.6 1.7.6.7 0 1.3-.2l1-.6.7-.6.4-.7q.2-.4.2-1.3v-.7zm7.7-8.7l1.9-.4v.4l-.2.3-.3 2.6h3.6v1.4h-3.6l-.2 4v2l.3 1.2q.2.5.6.7.4.3 1 .3 1.2 0 2.5-1l.5 1.3q-1.6 1.3-3.4 1.3-1.7 0-2.5-1-.8-1.1-.7-3.5v-2.2l.2-3.1h-2.6v-1.4h2.7l.2-3zm9 2.9h1.7v6.1q0 1 .2 1.8.2.7.5 1.1l.8.6 1 .2q.6 0 1.1-.3l1-.6q.4-.5.6-1.2.3-.7.3-1.7v-6h1.7v10l.1 1h-1.8v-1.7q-.5.9-1.5 1.4-.8.5-2 .5-.8 0-1.4-.3-.7-.3-1.3-1-.5-.5-.8-1.5-.2-1-.2-2.3v-6.1zm20.8 1.4l-1 1.6v-.2l-.1-.3-1.3-1q-.8-.5-1.8-.5l-.9.2q-.4 0-.7.2-.3.2-.5.6-.2.2-.2.6l.2.6.4.4.9.4 1.5.5q2 .6 2.9 1.3.8.8.8 1.9 0 .7-.3 1.3-.3.7-.9 1.2l-1.4.7q-.9.3-2 .3-2.7 0-4.6-1.7l1-1.8.1.3.2.3q.1.3.5.5l1.2.6.8.3h1.9l.9-.4q.4-.2.6-.6.3-.3.3-.7 0-.6-.6-1-.6-.5-2.1-1l-1.4-.4-1.3-.5-.7-.6-.5-.8-.2-1q0-.6.3-1.1.4-.6 1-1 .5-.4 1.3-.6.7-.3 1.7-.3 2.5 0 4 1.8z" fill="#173182"/><path d="M130.6 452.4q.4.4.4 1 0 .5-.4 1-.4.4-1 .4t-1-.4q-.4-.5-.4-1 0-.6.4-1t1-.4q.5 0 1 .4zm0 7.7q.4.4.4 1 0 .5-.4 1-.4.3-1 .3t-1-.4q-.4-.4-.4-1 0-.5.4-1 .4-.3 1-.3.5 0 1 .4z" fill="#163182"/><path d="M155.4 449l-.1-1.5q0-.7.3-1 .3-.3.7-.3.4 0 .8.3.3.4.3 1.2 0 .7-.8 3l-.6 1.6-1.3-.3.5-1.7.2-1.3zm-4.1 0l-.2-1.5q0-.7.3-1 .4-.3.8-.3t.7.3q.3.4.3 1.2 0 .8-.7 3l-.6 1.6-1.4-.3.6-1.7.1-.7.1-.6zm8.9 13.2l5.3-15.3h.2l5.8 15.3h-1.8l-1.6-4.4h-4.8l-1.4 4.4h-1.7zm7.5-5.7l-2.1-5.7-2 5.7h4zm11.7-7.5l-.1-1.5q0-.7.3-1 .3-.3.7-.3.4 0 .8.3.3.4.3 1.2 0 .7-.8 3l-.6 1.6-1.3-.3.5-1.7.2-1.3zm-4.1 0l-.2-1.5q0-.7.3-1 .4-.3.8-.3t.7.3q.3.4.3 1.2 0 .8-.7 3l-.6 1.6-1.4-.3.6-1.7.1-.7.1-.6z" fill="#2a86c0"/><path d="M191.2 461.7q0 1.9-2.6 4.5l-.8-.7q.7-.7 1.1-1.4.5-.7.5-1.2l-.2-.4-.4-.4-.4-.4-.2-.6q0-.6.3-1 .5-.4 1-.4.7 0 1.2.5.5.6.5 1.5z" fill="#163182"/><path d="M55.6 479q-.4.3-.5.7-.2.4-.2 1l.2.9.5.7.8.5q.4.2.9.2l1-.2.7-.5.5-.8q.2-.4.2-.9t-.2-.9l-.5-.8-.8-.5q-.4-.2-1-.2-.9 0-1.6.7zm4.4-1.1q1.2-1 2.7-1h.4l.2 1.4h-.7q-1 0-1.9.5.6.8.6 1.8 0 .8-.3 1.5t-.9 1.2q-.5.5-1.2.8-.8.3-1.6.3-.7 0-1.4-.3-.7.8-.7 1.3 0 .4.4.6.5.3 1.3.3h1l.8-.1q1 0 1.9.2.7.2 1.2.6.5.3.7.8.3.5.3 1.1 0 .7-.3 1.3-.3.6-1 1-.6.5-1.5.8-1 .3-2.3.3-1.3 0-2.2-.2-1-.2-1.5-.6-.6-.3-1-.8l-.2-1q0-1.3 1.8-2.4-1-.5-1-1.5t1.3-2.1q-.7-.5-1.2-1.3-.4-.8-.4-1.7 0-.8.3-1.5.4-.7 1-1.2.5-.6 1.2-.9.8-.3 1.5-.3 1.6 0 2.7 1zm-4.3 9.7q-1.3.7-1.3 1.7l.2.8.8.5 1 .3h1.4q1.5 0 2.4-.4 1-.6 1-1.5 0-.6-.5-1-.5-.3-1.6-.3H57l-1.3-.1zm10.5-10.4H68v2.1q.5-1.2 1.6-1.8 1-.6 2.3-.6 1.8 0 3 1.2l-.8 1.7-.5-.6q-.2-.3-.5-.4l-.5-.3h-.8q-.8 0-1.5.3l-1.2 1q-.5.6-.8 1.4-.3.8-.3 1.6v5.4h-1.8v-11zM82 477q1 0 1.9.4.9.3 1.5 1 .7.8 1.1 2 .4 1 .4 2.3 0 1.3-.4 2.4-.4 1-1 1.8-.7.8-1.6 1.2-1 .3-2 .3t-2-.4q-.9-.4-1.6-1.2-.7-.7-1-1.8-.5-1-.5-2.3 0-1.2.4-2.3.5-1 1.2-1.8t1.6-1.2q1-.5 2-.5zm3.2 5.7q0-1-.3-1.8l-.7-1.4-1-.8q-.7-.3-1.3-.3-.7 0-1.3.3l-1 .8-.7 1.4q-.2.8-.2 1.7 0 1 .2 1.8l.7 1.4 1 .8q.7.4 1.3.4.7 0 1.3-.3.6-.3 1-.8.5-.6.7-1.4.3-.8.3-1.8zm4.2-5.5H91v6.1q0 1 .2 1.8.2.7.5 1.1l.8.6 1 .2q.6 0 1.1-.3l1-.6q.4-.5.6-1.2.3-.7.3-1.7v-6h1.7v10l.1 1h-1.8v-1.7q-.5.9-1.5 1.4-.8.5-2 .5-.8 0-1.4-.3-.7-.3-1.3-1-.5-.5-.8-1.5-.2-1-.2-2.3v-6.1zm11.9 0h1.8v1.7q.5-1 1.4-1.4 1-.6 1.9-.6 1 0 1.7.4.9.3 1.5 1t1 1.8q.4 1 .4 2.5 0 1.4-.4 2.5t-1 1.9q-.7.7-1.5 1-.9.4-1.7.4-1 0-1.9-.4-.9-.5-1.4-1.3v5.5h-1.8v-15zm1.8 6.4q0 1.8.8 2.5.7.8 1.9.8l1.2-.2q.6-.2 1-.6.6-.5.9-1.3.3-.8.3-1.9 0-2.1-1-3.3-.8-1.1-2.4-1.2l-1 .2q-.4.1-.9.6l-.6 1q-.2.7-.2 1.7v1.7zm19.1-5l-1 1.6v-.2l-.1-.3-1.3-1q-.8-.5-1.8-.5l-.9.2q-.4 0-.7.2-.3.2-.5.6-.2.2-.2.6l.2.6.4.4.9.4 1.5.5q2 .6 2.9 1.3.8.8.8 1.9 0 .7-.3 1.3-.3.7-.9 1.2l-1.4.7q-.9.3-2 .3-2.7 0-4.6-1.7l1-1.8.1.3.2.3q.1.3.5.5l1.2.6.8.3h1.9l.9-.4q.4-.2.6-.6.3-.3.3-.7 0-.6-.6-1-.6-.5-2.1-1l-1.4-.4-1.3-.5-.7-.6-.5-.8-.2-1q0-.6.3-1.1.4-.6 1-1 .5-.4 1.3-.6.7-.3 1.7-.3 2.5 0 4 1.8z" fill="#173182"/><path d="M130.6 478.4q.4.4.4 1 0 .5-.4 1-.4.4-1 .4t-1-.4q-.4-.5-.4-1 0-.6.4-1t1-.4q.5 0 1 .4zm0 7.7q.4.4.4 1 0 .5-.4 1-.4.3-1 .3t-1-.4q-.4-.4-.4-1 0-.5.4-1 .4-.3 1-.3.5 0 1 .4z" fill="#163182"/><path d="M151 472h6.9v1.5h-5.4V489h5.4v1.4H151V472zm28.4 3l-.1-1.5q0-.7.3-1 .3-.3.7-.3.4 0 .8.3.3.4.3 1.2 0 .7-.8 3l-.6 1.6-1.3-.3.5-1.7.2-1.3zm-4.1 0l-.2-1.5q0-.7.3-1 .4-.3.8-.3t.7.3q.3.4.3 1.2 0 .8-.7 3l-.6 1.6-1.4-.3.6-1.7.1-.7.1-.6zm10.2 13.2v-11h1.8v2q.6-1 1.6-1.7 1-.6 2-.6.7 0 1.3.3.6.2 1 .8.5.5.8 1.4.2.9.2 2.1v6.7h-1.7v-6.6q0-1.8-.6-2.5-.5-.7-1.4-.7-.5 0-1.1.3-.6.2-1 .7-.5.4-.8 1-.3.7-.3 1.4v6.4h-1.8zM202 477q1 0 1.8.2.8.3 1.4 1 .6.6 1 1.6.3 1 .3 2.3v.8h-7.8q0 1.2.4 2 .3.7.9 1.2.5.5 1.1.7l1.3.2q1.7 0 2.9-1.2l1 1q-1.5 1.6-3.9 1.6-1.2 0-2.2-.4-1-.3-1.7-1-.7-.8-1-1.8-.5-1.1-.5-2.5t.4-2.5q.4-1 1.1-1.8.7-.7 1.6-1 1-.5 2-.5zm-3.2 4.6h6v-.4q0-.6-.2-1.1-.2-.6-.6-1-.4-.4-1-.6-.4-.3-1-.3-1.2 0-2 .9-1 .7-1.2 2.5zm9.5-4.4h1.7v.9l1.5 7.9 2-7.8h1l2.3 7.8.5-3.5.3-2.3.2-1.5v-1.5h1.6q-.3 2.8-.8 5.5l-1 5.5H216l-2-7.1-2 7h-1.5l-2.2-11zm21.9 1.4l-1 1.6v-.2l-.1-.3-1.3-1q-.8-.5-1.8-.5l-.9.2q-.4 0-.7.2-.3.2-.5.6-.2.2-.2.6l.2.6.4.4.9.4 1.5.5q2 .6 2.9 1.3.8.8.8 1.9 0 .7-.3 1.3-.3.7-.9 1.2l-1.4.7q-.9.3-2 .3-2.7 0-4.6-1.7l1-1.8.1.3.2.3q.1.3.5.5l1.2.6.8.3h1.9l.9-.4q.4-.2.6-.6.3-.3.3-.7 0-.6-.6-1-.6-.5-2.1-1l-1.4-.4-1.3-.5-.7-.6-.5-.8-.2-1q0-.6.3-1.1.4-.6 1-1 .5-.4 1.3-.6.7-.3 1.7-.3 2.5 0 4 1.8zm9.2-3.6l-.1-1.5q0-.7.3-1 .3-.3.7-.3.4 0 .8.3.3.4.3 1.2 0 .7-.8 3l-.6 1.6-1.3-.3.5-1.7.2-1.3zm-4.1 0l-.2-1.5q0-.7.3-1 .4-.3.8-.3t.7.3q.3.4.3 1.2 0 .8-.7 3l-.6 1.6-1.4-.3.6-1.7.1-.7.1-.6zm15.9 12.7q0 1.9-2.6 4.5l-.8-.7q.7-.7 1.1-1.4.5-.7.5-1.2l-.2-.4-.4-.4-.4-.4-.2-.6q0-.6.3-1 .5-.4 1-.4.7 0 1.2.5.5.6.5 1.5zm24.2-12.7l-.1-1.5q0-.7.3-1 .3-.3.7-.3.4 0 .8.3.3.4.3 1.2 0 .7-.8 3l-.6 1.6-1.3-.3.5-1.7.2-1.3zm-4.1 0l-.2-1.5q0-.7.3-1 .4-.3.8-.3t.7.3q.3.4.3 1.2 0 .8-.7 3l-.6 1.6-1.4-.3.6-1.7.1-.7.1-.6zm18.9 3.6l-1 1.6v-.2l-.1-.3-1.3-1q-.8-.5-1.8-.5l-.9.2q-.4 0-.7.2-.3.2-.5.6-.2.2-.2.6l.2.6.4.4.9.4 1.5.5q2 .6 2.9 1.3.8.8.8 1.9 0 .7-.3 1.3-.3.7-.9 1.2l-1.4.7q-.9.3-2 .3-2.7 0-4.6-1.7l1-1.8.1.3.2.3q.1.3.5.5l1.2.6.8.3h1.9l.9-.4q.4-.2.6-.6.3-.3.3-.7 0-.6-.6-1-.6-.5-2.1-1l-1.4-.4-1.3-.5-.7-.6-.5-.8-.2-1q0-.6.3-1.1.4-.6 1-1 .5-.4 1.3-.6.7-.3 1.7-.3 2.5 0 4 1.8zm3.1-1.4h1.8v1.7q.5-1 1.4-1.4 1-.6 1.9-.6 1 0 1.7.4.9.3 1.5 1t1 1.8q.4 1 .4 2.5 0 1.4-.4 2.5t-1 1.9q-.7.7-1.5 1-.9.4-1.7.4-1 0-1.9-.4-.9-.5-1.4-1.3v5.5h-1.8v-15zm1.8 6.4q0 1.8.8 2.5.7.8 1.9.8l1.2-.2q.6-.2 1-.6.6-.5.9-1.3.3-.8.3-1.9 0-2.1-1-3.3-.8-1.1-2.4-1.2l-1 .2q-.4.1-.9.6l-.6 1q-.2.7-.2 1.7v1.7zM310 477q1 0 1.9.4.9.3 1.5 1 .7.8 1.1 2 .4 1 .4 2.3 0 1.3-.4 2.4-.4 1-1 1.8-.7.8-1.6 1.2-1 .3-2 .3t-2-.4q-.9-.4-1.6-1.2-.7-.7-1-1.8-.5-1-.5-2.3 0-1.2.4-2.3.5-1 1.2-1.8t1.6-1.2q1-.5 2-.5zm3.2 5.7q0-1-.3-1.8l-.7-1.4-1-.8q-.7-.3-1.3-.3-.7 0-1.3.3l-1 .8-.7 1.4q-.2.8-.2 1.7 0 1 .2 1.8l.7 1.4 1 .8q.7.4 1.3.4.7 0 1.3-.3.6-.3 1-.8.5-.6.7-1.4.3-.8.3-1.8zm5-5.5h1.8v2.1q.5-1.2 1.6-1.8 1-.6 2.3-.6 1.8 0 3 1.2l-.8 1.7-.5-.6q-.2-.3-.5-.4l-.5-.3h-.8q-.8 0-1.5.3l-1.2 1q-.5.6-.8 1.4-.3.8-.3 1.6v5.4h-1.8v-11zm14.2-2.9l1.9-.4-.1.4v.3l-.4 2.6h3.6v1.4h-3.6l-.2 4v2l.3 1.2q.2.5.6.7.4.3 1 .3 1.2 0 2.5-1l.5 1.3q-1.6 1.3-3.4 1.3-1.7 0-2.5-1-.8-1.1-.7-3.5v-2.2l.2-3.1h-2.6v-1.4h2.7l.2-3zm17.8 4.3l-1 1.6v-.2l-.1-.3-1.3-1q-.8-.5-1.8-.5l-.9.2q-.4 0-.7.2-.3.2-.5.6-.2.2-.2.6l.2.6.4.4.9.4 1.5.5q2 .6 2.9 1.3.8.8.8 1.9 0 .7-.3 1.3-.3.7-.9 1.2l-1.4.7q-.9.3-2 .3-2.7 0-4.6-1.7l1-1.8.1.3.2.3q.1.3.5.5l1.2.6.8.3h1.9l.9-.4q.4-.2.6-.6.3-.3.3-.7 0-.6-.6-1-.6-.5-2.1-1l-1.4-.4-1.3-.5-.7-.6-.5-.8-.2-1q0-.6.3-1.1.4-.6 1-1 .5-.4 1.3-.6.7-.3 1.7-.3 2.5 0 4 1.8zm9.2-3.6l-.1-1.5q0-.7.3-1 .3-.3.7-.3.4 0 .8.3.3.4.3 1.2 0 .7-.8 3l-.6 1.6-1.3-.3.5-1.7.2-1.3zm-4.1 0l-.2-1.5q0-.7.3-1 .4-.3.8-.3t.7.3q.3.4.3 1.2 0 .8-.7 3l-.6 1.6-1.4-.3.6-1.7.1-.7.1-.6zm29.4-3v18.3H378v-1.4h5.3v-15.4H378v-1.4h6.8z" fill="#2a86c0"/><path d="M36 503v1.8q0 1.3.5 2 .6.5 1.6.5h.5v1.4h-.5q-1 0-1.6.5-.5.6-.5 2.2v2.4q0 2.1-1 3.1-.9 1-3 1h-1.9v-1.3h2.7l.3-.2q.2 0 .3-.2 1-.7 1-2.5l-.1-2q0-3 2-3.7-2-.9-2-3.5v-1.7q0-1.4-.6-2-.6-.6-1.8-.6H30V499h2.4q1 0 1.7.5.8.5 1.3 1.3.5.9.5 2.3z" fill="#5ca831"/></g><path d="M32 341.5v-14.3h4.8q3 0 4.7 1 1.7.8 2.7 2.5 1 1.7 1 3.7 0 1.4-.6 2.7-.5 1.4-1.6 2.4-1 1-2.4 1.5l-1.5.4-2.6.1H32zm4.6-12.4h-2.5v10.6h2.6q1.5 0 2.4-.2l1.4-.5 1-.8q1.6-1.6 1.6-4 0-2.2-1.6-3.7l-1.3-.9-1.4-.4-2.2-.1zm15.4 3q2.1 0 3.6 1.4 1.4 1.4 1.4 3.5 0 2-1.4 3.4-1.5 1.3-3.7 1.3-2.1 0-3.5-1.3-1.5-1.4-1.5-3.5 0-2 1.5-3.4 1.4-1.4 3.6-1.4zm-.1 1.7q-1.3 0-2.2.9-.9.9-.9 2.2 0 1.4 1 2.2.8.9 2.2.9 1.3 0 2.2-.9.9-.9.9-2.2 0-1.3-1-2.2-.8-1-2.2-1zm14.2 5.6v1.8q-1.4.5-2.7.5-2.2 0-3.6-1.3-1.3-1.3-1.3-3.5t1.3-3.6q1.3-1.4 3.4-1.4.7 0 1.3.2.6.1 1.4.5v2q-1.4-1-2.6-1-1.3 0-2 1-.9.9-.9 2.2 0 1.5.9 2.3.9.9 2.4.9 1 0 2.4-.6zm8.1 2.2v-1.2q-.5.6-1.3 1-.8.3-1.5.3-1 0-1.7-.4-.7-.5-1.1-1.2-.4-.8-.4-2.6v-5.4h1.9v5.4q0 1.5.4 2 .4.7 1.5.7 1.3 0 2.2-1.3V332h2v9.5h-2zm12.3-6.9v6.9h-2v-5.3q0-1.6-.3-2.2-.4-.6-1.5-.6-.6 0-1 .3-.6.2-1.2 1v6.8h-1.8V332h1.8v1.3q1.4-1.5 2.8-1.5 1.8 0 2.8 1.7 1.5-1.7 3.1-1.7 1.4 0 2.3 1 .9 1 .9 3v5.7h-1.9V336q0-1.2-.5-1.8-.5-.7-1.4-.7-1.1 0-2.1 1.2zM103 337h-6.7q0 1.4 1 2.2.7.8 2 .8 2 0 3.5-1.2v1.8q-.9.6-1.7.9-.9.2-2 .2-1.6 0-2.5-.6-1-.7-1.6-1.8-.6-1-.6-2.5 0-2.2 1.3-3.5 1.2-1.4 3.1-1.4 1.9 0 3 1.4 1.1 1.3 1.1 3.5v.2zm-6.7-1.1h4.8q0-1.1-.7-1.7-.6-.6-1.6-.6t-1.6.6q-.7.6-.9 1.7zm10.5-3.8v1.2q1.3-1.4 2.9-1.4.8 0 1.6.5t1.1 1.3q.4.7.4 2.5v5.4H111v-5.4q0-1.5-.5-2-.4-.7-1.4-.7-1.4 0-2.3 1.3v6.8H105V332h2zm7.3 1.5l3.5-3.4v2h3v1.6h-3v4.6q0 1.7 1.4 1.7 1 0 2.1-.7v1.7q-1 .6-2.4.6-1.2 0-2-.7l-.5-.5-.3-.8-.1-1.7v-4.2H114v-.2zm544.6-88.8v2.3q-2.3 1.2-5.2 1.2-2.4 0-4-1-1.8-1-2.7-2.6-1-1.7-1-3.7 0-3.1 2.2-5.2 2.3-2.2 5.5-2.2 2.3 0 5 1.2v2.2q-2.5-1.4-4.9-1.4-2.4 0-4 1.5-1.7 1.6-1.7 4 0 2.3 1.6 3.8t4.1 1.5q2.6 0 5.1-1.6zm6.8-6.1q2.2 0 3.6 1.4t1.4 3.5q0 2-1.4 3.4-1.5 1.3-3.7 1.3-2.1 0-3.5-1.4-1.5-1.3-1.5-3.4 0-2 1.5-3.4 1.4-1.4 3.6-1.4zm-.1 1.7q-1.3 0-2.2.9-.9.8-.9 2.2 0 1.4 1 2.2.8.9 2.2.9 1.4 0 2.2-.9.9-.9.9-2.2 0-1.4-1-2.2-.8-1-2.2-1zm7.2-6.6h1.9v14.3h-2v-14.3zm4.6 0h1.9v14.3h-1.9v-14.3zm12.7 9.8h-6.7q.1 1.3 1 2.1.8.8 2 .8 2 0 3.5-1.1v1.8q-.9.6-1.7.8-.9.3-2 .3-1.6 0-2.5-.7-1-.6-1.6-1.7-.5-1-.5-2.5 0-2.2 1.2-3.5 1.2-1.4 3.1-1.4 2 0 3 1.3 1.2 1.4 1.2 3.6v.2zm-6.6-1.1h4.7q0-1.1-.7-1.7-.5-.7-1.6-.7-1 0-1.6.7-.6.6-.8 1.7zM699 246v1.8q-1.5.5-2.8.5-2.2 0-3.5-1.3-1.4-1.3-1.4-3.5t1.3-3.6q1.3-1.4 3.4-1.4.7 0 1.3.2.6.1 1.4.5v2q-1.4-1-2.6-1-1.2 0-2 1-.9.8-.9 2.2 0 1.5 1 2.3.8.9 2.3.9 1 0 2.4-.7zm.7-5.8l3.5-3.4v2h3v1.6h-3v4.6q0 1.6 1.4 1.6 1 0 2.1-.6v1.7q-1 .6-2.3.6-1.3 0-2.2-.7l-.4-.5-.3-.8-.1-1.7v-4.2h-1.7v-.2zm9.3-5.5q.5 0 .8.4.4.3.4.7 0 .5-.4.8-.3.3-.8.3-.4 0-.7-.3-.4-.3-.4-.8 0-.4.4-.7.3-.4.7-.4zm-.9 4h1.9v9.4h-2v-9.4zm9.1 0q2.1 0 3.6 1.4 1.4 1.4 1.4 3.5 0 2-1.5 3.4-1.4 1.3-3.6 1.3-2.1 0-3.6-1.4-1.4-1.3-1.4-3.4 0-2 1.5-3.4 1.4-1.4 3.6-1.4zm-.1 1.7q-1.4 0-2.2.9-.9.8-.9 2.2 0 1.4.9 2.2.9.9 2.3.9 1.3 0 2.2-.9.9-.9.9-2.2 0-1.4-1-2.2-.8-1-2.2-1zm9-1.7v1.2q1.2-1.4 2.8-1.4 1 0 1.7.5.7.4 1.1 1.2.4.8.4 2.6v5.3h-1.8v-5.3q0-1.5-.5-2-.4-.7-1.5-.7-1.3 0-2.2 1.3v6.7h-2v-9.4h2z" font-size="21" font-family="GillSans" fill="#2a86c0"/><path d="M19.8 346.8h382.6v184H19.8z" stroke="#5ba831" stroke-width="2" fill="none"/><g stroke="#2a86c0" stroke-width="6"><path d="M419.5 438.8h89.8" fill="none"/><path d="M509.3 444.8l16-6-16-6z" fill="#2a86c0"/></g><path d="M444.2 418.3q.5 0 .8.4.4.3.4.7 0 .5-.4.8-.3.4-.8.4-.4 0-.7-.4-.4-.3-.4-.8 0-.4.4-.7.3-.4.7-.4zm-.9 4h1.9v9.4h-1.9v-9.4zm6.4 0v1.2q1.3-1.4 2.9-1.4.9 0 1.6.5.8.4 1.2 1.2.4.8.4 2.6v5.3h-2v-5.3q0-1.5-.3-2-.5-.7-1.5-.7-1.3 0-2.3 1.3v6.7h-1.9v-9.4h2zm8.2 8.7v-2l1.6 1q.8.3 1.4.3.6 0 1-.3t.4-.7q0-.4-.2-.6l-1.2-.8q-1.8-1-2.4-1.7-.5-.8-.5-1.6 0-1 .8-1.8.9-.7 2.2-.7 1.4 0 2.8.8v1.9q-1.6-1-2.7-1-.5 0-.9.2-.3.2-.3.6 0 .3.3.6l1 .7.7.4q2.4 1.3 2.4 3 0 1.1-1 1.9-.8.7-2.3.7-.8 0-1.4-.2-.7-.1-1.7-.6zm16.5-3.8h-6.6q0 1.4 1 2.2.7.8 2 .8 2 0 3.5-1.2v1.8q-.9.6-1.7.8-.9.3-2 .3-1.6 0-2.5-.7-1-.6-1.6-1.7-.6-1-.6-2.5 0-2.2 1.3-3.5 1.2-1.4 3.1-1.4 2 0 3 1.3 1.1 1.4 1.1 3.6v.2zm-6.6-1.1h4.8q0-1.1-.7-1.7-.6-.6-1.6-.6t-1.6.6q-.7.6-.9 1.7zm10.6-3.8v2.2l.2-.2q1.3-2.2 2.7-2.2 1 0 2.2 1.1l-1 1.6q-1-.9-1.8-.9-1 0-1.6.9-.7.8-.7 2v5h-1.8v-9.5h1.8zm5.5 1.5l3.5-3.4v2h3v1.6h-3v4.6q0 1.6 1.3 1.6 1 0 2.1-.6v1.7q-1 .6-2.3.6-1.3 0-2.1-.7l-.5-.5-.3-.8-.1-1.7V424h-1.6v-.2z" font-size="21" font-family="GillSans" fill="#2a86c0"/><path d="M549.5 572.7h279.2" stroke="#173182" fill="none"/><g opacity=".7"><path d="M550.6 572.7h278.1v43h-278z" fill="#b9d7ea"/><path d="M550.6 572.7h278.1v43h-278z" stroke="#173182" fill="none"/></g><path d="M556.5 599.7l.1-1.8q0-1.2-.4-1.6-.4-.4-1.2-.4h-.4v-1h.4q.8 0 1.2-.5.5-.4.5-1.4v-1.3q0-3.2 3.2-3.2h1.1v1h-1.4q-1.7 0-1.7 2v1.2q0 2-1.6 2.7 1.6.5 1.6 2.8v1.5q0 1.2.4 1.7.6.5 1.8.5h1v1h-.7l-1.6-.1q-.7 0-1.2-.5-1-.8-1-2.6zm16.5.3v-8.2h1.2v1.4q.5-.7 1.2-1.2.8-.4 1.5-.4.6 0 1 .2.5.2.8.6.4.4.6 1 .2.7.2 1.6v5h-1.3v-5q0-1.2-.5-1.8-.4-.5-1-.5l-.9.2-.8.5-.5.8q-.3.5-.3 1v4.8H573zm9.3-7.2q1.1-1.2 3-1.2 1.5 0 2.3.8 1 .7 1 2.5v5.1h-1.3v-.9q-1.3 1.1-3 1.1-.6 0-1.1-.2l-.9-.5q-.4-.3-.6-.8l-.1-.8q0-1.2 1-2 1.1-.7 3.1-.7h1.6v-.3q0-1.3-.5-1.8-.6-.4-1.6-.4-1.4 0-2.2.9l-.7-.8zm5 3.4h-2.8l-1 .4q-.4.3-.5.6l-.1.6q0 .6.5 1t1.2.4l1-.1.7-.5q.4-.2.6-.5l.2-.4q.2-.4.2-1v-.5zm3.1 3.8v-8.2h1.2v.8q.2-.5.7-.7.4-.3 1-.3.5 0 .9.3.4.4.5.9.2-.5.7-.9.5-.3 1.1-.3.9 0 1.3.6t.3 1.5v6.3H597v-6.8l-.2-.4-.2-.2h-.4l-.4.1-.5.5-.2.7-.1.7v5.4h-1.3v-5.7q0-1-.2-1.4-.1-.3-.6-.3-.4 0-.8.5t-.4 1.4v5.5h-1.2zm12.9-8.4q.7 0 1.3.2l1 .7q.5.5.8 1.2.3.8.3 1.8v.6h-5.9q0 .8.3 1.4l.7 1 .8.5 1 .1q1.3 0 2.1-.9l.8.7q-1 1.3-3 1.3-.8 0-1.6-.3-.7-.3-1.2-.8-.6-.5-.8-1.3-.3-.9-.3-1.9 0-1 .3-1.8t.8-1.4q.5-.5 1.2-.8.7-.3 1.4-.3zM601 595h4.5v-.3q0-.5-.2-.9-.1-.4-.4-.7-.3-.3-.7-.4l-.8-.2q-.9 0-1.6.6-.7.6-.8 1.9zm11.7-2.3q.3.3.3.7 0 .5-.3.8-.3.3-.7.3-.4 0-.8-.3-.3-.3-.3-.8 0-.4.3-.7.4-.3.8-.3t.7.3zm0 5.7q.3.4.3.8t-.3.7q-.3.3-.7.3-.5 0-.8-.3-.3-.3-.3-.7 0-.5.3-.8.4-.3.8-.3t.7.3zm18.7-8.3l-.2-1q0-.6.3-.8.2-.3.5-.3t.6.3q.2.3.2.9 0 .5-.6 2.2l-.4 1.2-1-.2.4-1.3.2-1zm-3.1 0l-.2-1q0-.6.3-.8.2-.3.5-.3t.6.3q.2.3.2.9 0 .6-.6 2.2l-.4 1.2-1-.2.4-1.3.1-.5v-.5zm14.2 2.8l-.8 1.1v-.1l-.1-.2q-.3-.4-1-.8-.5-.3-1.3-.3h-.7l-.5.3-.4.4-.1.5v.4l.4.3.7.3 1 .4q1.6.4 2.3 1 .6.5.6 1.3 0 .6-.2 1l-.7 1-1 .5q-.7.2-1.5.2-2 0-3.5-1.3l.7-1.3.1.2.1.2.4.4 1 .5.5.2h1.4l.7-.3.5-.4.2-.6q0-.5-.5-.8-.4-.3-1.5-.7l-1-.3-1-.4-.5-.5q-.3-.2-.4-.6-.2-.3-.2-.7 0-.4.3-.8.2-.4.6-.7l1-.5q.6-.2 1.3-.2 1.9 0 3 1.3zm2.3-1.1h1.3v4.6q0 .8.2 1.3.1.5.4.9.2.3.5.4l.8.2q.4 0 .8-.3.4-.1.7-.5l.5-.8q.2-.5.2-1.3v-4.5h1.3v7.5l.1.7h-1.4v-1.3q-.4.7-1 1.1-.7.4-1.5.4-.7 0-1.2-.2t-.9-.7q-.4-.5-.6-1.2-.2-.7-.2-1.7v-4.6zm12.5-.2q.7 0 1.3.2l1 .7q.5.5.8 1.2.3.8.3 1.8v.6h-5.9q0 .8.3 1.4l.7 1 .8.5 1 .1q1.3 0 2.1-.9l.8.7q-1 1.3-3 1.3-.8 0-1.6-.3-.7-.3-1.2-.8-.6-.5-.8-1.3-.3-.9-.3-1.9 0-1 .3-1.8t.8-1.4q.5-.5 1.2-.8.7-.3 1.4-.3zM655 595h4.5v-.3q0-.5-.2-.9-.1-.4-.4-.7-.3-.3-.7-.4l-.8-.2q-.9 0-1.6.6-.7.6-.8 1.9zm12.4-4.9l-.2-1q0-.6.3-.8.2-.3.5-.3t.6.3q.2.3.2.9 0 .5-.6 2.2l-.4 1.2-1-.2.4-1.3.2-1zm-3.1 0l-.2-1q0-.6.3-.8.2-.3.5-.3t.6.3q.2.3.2.9 0 .6-.6 2.2l-.4 1.2-1-.2.4-1.3.1-.5v-.5zm11.9 9.5q0 1.5-2 3.4l-.5-.5.8-1 .3-.9-.1-.3-.3-.3-.3-.4q-.2-.1-.2-.4 0-.4.3-.7.3-.3.8-.3.4 0 .8.4t.4 1zm14.1-6.8q1.1-1.2 3-1.2 1.5 0 2.3.8 1 .7 1 2.5v5.1h-1.3v-.9q-1.3 1.1-3 1.1-.6 0-1.1-.2l-.9-.5q-.4-.3-.6-.8l-.1-.8q0-1.2 1-2 1.1-.7 3.1-.7h1.6v-.3q0-1.3-.5-1.8-.6-.4-1.6-.4-1.4 0-2.2.9l-.7-.8zm5 3.4h-2.8l-1 .4q-.4.3-.5.6l-.1.6q0 .6.5 1t1.2.4l1-.1.7-.5q.4-.2.6-.5l.2-.4q.2-.4.2-1v-.5zm5.2-3.2q-.3.3-.4.7l-.1.7.1.7q.1.3.4.5.2.3.6.4.3.2.7.2l.7-.2q.3-.1.5-.4.3-.2.4-.6l.2-.6q0-.4-.2-.7-.1-.4-.4-.6-.2-.3-.6-.4l-.6-.2q-.8 0-1.3.6zm3.3-.7q.9-.7 2-.7h.3l.1 1h-.5q-.7 0-1.4.4.4.6.4 1.4l-.2 1q-.2.6-.6 1l-1 .6q-.5.2-1.1.2l-1-.2q-.6.6-.6 1 0 .2.3.4.4.2 1 .2h2.7l1 .5.5.7.2.8q0 .5-.3 1-.2.4-.7.7-.4.4-1.1.6-.8.2-1.7.2-1 0-1.7-.2-.7-.1-1.1-.4-.5-.2-.7-.6-.2-.3-.2-.7 0-1 1.3-1.9-.6-.3-.6-1 0-.9.9-1.6-.6-.4-1-1-.2-.6-.2-1.3 0-.6.2-1.1l.7-1 1-.6 1-.2q1.3 0 2 .8zm-3.2 7.3q-1 .6-1 1.2 0 .4.2.6.2.3.5.4l.8.3h1q1.1 0 1.9-.4.7-.4.7-1 0-.5-.4-.8-.4-.3-1.2-.3h-2.6zm10.7-8q.7 0 1.3.2l1 .7q.5.5.8 1.2.3.8.3 1.8v.6h-5.9q0 .8.3 1.4l.7 1 .8.5 1 .1q1.3 0 2.1-.9l.8.7q-1 1.3-3 1.3-.8 0-1.6-.3-.7-.3-1.2-.8-.6-.5-.8-1.3-.3-.9-.3-1.9 0-1 .3-1.8t.8-1.4q.5-.5 1.2-.8.7-.3 1.4-.3zM709 595h4.5v-.3q0-.5-.2-.9-.1-.4-.4-.7-.3-.3-.7-.4l-.8-.2q-.9 0-1.6.6-.7.6-.8 1.9zm11.7-2.3q.3.3.3.7 0 .5-.3.8-.3.3-.7.3-.4 0-.8-.3-.3-.3-.3-.8 0-.4.3-.7.4-.3.8-.3t.7.3zm0 5.7q.3.4.3.8t-.3.7q-.3.3-.7.3-.5 0-.8-.3-.3-.3-.3-.7 0-.5.3-.8.4-.3.8-.3t.7.3zm14.3-7.9q.6-.8 1.4-1.3.8-.5 1.8-.5.7 0 1.3.3.6.2 1 .6.5.5.7 1 .3.6.3 1.3l-.2 1-.4.9-.6.8-.7.7-1 1-.6.5-.5.6-.6.8-.4.7h4.8l.2-.2v1.3H735v-.8l1.4-2.3q.8-1 1.5-1.6l.9-.7.7-.8.5-.7.2-.6v-.6l-.1-.8-.5-.6-.7-.5q-.3-.2-.7-.2-.5 0-.9.2-.3 0-.6.3l-.4.4-.2.3v.3l-1-.8zm12.9-1.8q1.4 0 2.4 1l-.9 1-.2-.4-.2-.2-.6-.2-.5-.1-.9.2q-.4.1-.8.6-.5.5-.8 1.3l-.3 2.2q.4-.6 1-1 .7-.3 1.4-.3l1.2.2q.6.3 1 .8t.6 1.1q.3.7.3 1.5 0 .9-.3 1.6-.2.7-.6 1.2l-1 .7q-.7.3-1.3.3-.9 0-1.5-.4-.7-.4-1.1-1-.4-.7-.7-1.7-.2-1-.2-2.2 0-1.5.3-2.7.2-1.1.8-2 .5-.7 1.2-1.1.8-.4 1.7-.4zm-2.7 6.7v.4l.1 1.3.5 1q.3.5.8.7.4.3.8.3.8 0 1.4-.7.6-.7.6-2 0-.6-.2-1.1l-.5-.8-.6-.5-.7-.1q-.6 0-1.2.4l-1 1zm12 4.2q0 1.5-2 3.4l-.5-.5.8-1 .3-.9-.1-.3-.3-.3-.3-.4q-.2-.1-.2-.4 0-.4.3-.7.3-.3.8-.3.4 0 .8.4t.4 1zm17.5-1.2q.3.4.3.8t-.3.7q-.3.3-.7.3-.5 0-.8-.3-.3-.3-.3-.7 0-.5.3-.8.4-.3.8-.3t.7.3zm9 0q.3.4.3.8t-.3.7q-.3.3-.7.3-.5 0-.8-.3-.3-.3-.3-.7 0-.5.3-.8.4-.3.8-.3t.7.3zm9 0q.3.4.3.8t-.3.7q-.3.3-.7.3-.5 0-.8-.3-.3-.3-.3-.7 0-.5.3-.8.4-.3.8-.3t.7.3zm19.1-6.7v1.3q0 1 .3 1.4.5.5 1.3.5h.3v1h-.3q-.8 0-1.2.4-.4.4-.4 1.6v1.8q0 1.6-.7 2.4-.7.8-2.3.8h-1.4v-1h1.6l.4-.1.2-.1.2-.1q.8-.6.8-1.9v-1.5q0-2.3 1.4-2.8-1.5-.7-1.5-2.7v-1.2q0-1-.4-1.5-.5-.4-1.4-.4h-1.4v-1h1.9q.7 0 1.3.4.5.3.9 1 .4.6.4 1.7z" font-size="18" font-family="Inconsolata" fill="#173182"/><path d="M212 93.2v-2.4q0-1.6-.6-2.1-.5-.6-1.5-.6h-.5v-1.3h.4q1.1 0 1.7-.6.6-.6.6-2v-1.7q0-4.2 4.3-4.2h1.5v1.4h-2q-2.2 0-2.2 2.5V84q0 2.7-2 3.6 2 .6 2 3.7v2q0 1.6.6 2.2.7.7 2.4.7h1.2v1.3H215q-1-.2-1.7-.7-1.4-1-1.4-3.5z" font-size="24" font-family="Inconsolata" fill="#153082"/><g font-size="24" font-family="Inconsolata"><path d="M250.4 112v-11h1.8v2q.6-1 1.6-1.7 1-.6 2-.6.7 0 1.3.3.6.2 1 .8.5.5.8 1.4.2.9.2 2.1v6.7h-1.7v-6.6q0-1.8-.6-2.5-.5-.7-1.4-.7-.5 0-1.1.3-.6.2-1 .7-.5.4-.8 1-.3.7-.3 1.5v6.3h-1.8zm12.6-9.7q1.4-1.5 3.9-1.5 2 0 3.1 1 1.2 1 1.2 3.4v6.8h-1.6v-1.2q-1.8 1.4-4 1.4-.8 0-1.5-.2l-1.2-.7q-.5-.5-.7-1-.3-.6-.3-1.1 0-1.7 1.5-2.6 1.4-1 4-1h2.1v-.5q0-1.6-.6-2.3-.7-.6-2.2-.6-1.7 0-3 1.2l-.8-1.1zm6.6 4.5H268q-1.3 0-2.2.2-.8.2-1.3.5t-.7.7l-.1.8q0 .8.6 1.4.7.5 1.7.5.7 0 1.3-.2.6-.2 1-.6l.7-.6.4-.7q.2-.4.2-1.2v-.8zm4.1 5.2v-11h1.6v1q.3-.5 1-.9.5-.4 1.2-.4t1.2.5q.6.4.7 1.1.3-.7 1-1.1.7-.5 1.5-.5 1.1 0 1.6.9.6.7.5 2v8.4h-1.6v-9l-.3-.6q-.1-.3-.3-.3h-.4q-.4 0-.7.2-.3.2-.5.6-.3.4-.4.9l-.1 1v7.2H278v-7.7q0-1.3-.2-1.8-.3-.4-.9-.4-.6 0-1.1.7-.5.6-.5 1.8v7.4h-1.6zm17.3-11.3q.8 0 1.7.3.8.4 1.4 1 .6.6 1 1.6.3 1 .3 2.3v.8h-7.8q0 1.2.4 2 .3.7.9 1.2.5.5 1.1.7l1.3.2q1.7 0 2.9-1.2l1 1q-1.5 1.6-4 1.6-1.1 0-2.1-.4-1-.3-1.7-1-.7-.8-1-1.8-.5-1.1-.5-2.5t.4-2.5q.4-1 1.1-1.8.7-.7 1.6-1 1-.5 2-.5zm-3.3 4.7h6v-.4q0-.6-.2-1.1-.2-.6-.6-1-.4-.4-1-.6-.4-.2-1-.2-1.2 0-2 .8-1 .8-1.2 2.5zm15.8-3.2q.4.5.4 1 0 .6-.4 1t-1 .4q-.6 0-1-.4t-.4-1q0-.6.4-1t1-.4q.5 0 1 .4zm0 7.7q.4.4.4 1 0 .5-.4 1-.4.3-1 .3t-1-.4q-.4-.4-.4-1 0-.5.4-1 .4-.3 1-.3.5 0 1 .4z" fill="#173082"/><path d="M328.3 98.8l-.1-1.5q0-.7.3-1 .3-.3.7-.3.4 0 .8.3.3.4.3 1.2 0 .7-.8 3l-.6 1.6-1.3-.3.5-1.7.2-1.3zm-4.1 0l-.2-1.5q0-.7.3-1 .4-.3.8-.3t.7.3q.3.4.3 1.2 0 .8-.8 3l-.5 1.6-1.4-.3.6-1.7.1-.6.1-.7zm18.9 3.7l-1 1.5-.1-.2v-.3l-1.3-1q-.8-.4-1.8-.4h-.9l-.7.4-.5.5-.2.6.1.6.5.4.9.4 1.5.5q2 .6 2.9 1.3.8.8.8 1.9 0 .7-.3 1.3-.3.7-.9 1.2-.6.5-1.4.7-.9.3-2 .3-2.7 0-4.6-1.7l1-1.7.1.2.2.4.5.5 1.2.6.8.2h1.9l.9-.4q.4-.2.6-.5l.2-.8q0-.6-.5-1-.6-.5-2.1-1-1.1-.2-1.4-.4l-1.3-.5-.7-.6-.5-.8-.2-1q0-.6.3-1.1l.9-1q.6-.4 1.3-.6.8-.3 1.8-.3 2.5 0 4 1.8zm3.2-1.5h1.7v6.1q0 1 .2 1.8.2.7.5 1.1.4.5.8.6l1 .2q.6 0 1.1-.2l1-.7q.4-.5.6-1.2.3-.7.3-1.7v-6h1.7v10l.1 1h-1.8v-1.7q-.6.9-1.5 1.4-.9.5-2 .5-.8 0-1.4-.3-.7-.3-1.3-.9-.5-.6-.8-1.6-.2-1-.2-2.3V101zm16.7-.3q.8 0 1.7.3.8.4 1.4 1 .6.6 1 1.6.3 1 .3 2.3v.8h-7.8q0 1.2.4 2 .3.7.9 1.2.5.5 1.1.7l1.3.2q1.7 0 2.9-1.2l1 1q-1.5 1.6-4 1.6-1.1 0-2.1-.4-1-.3-1.7-1-.7-.8-1-1.8-.5-1.1-.5-2.5t.4-2.5q.4-1 1.1-1.8.7-.7 1.6-1 1-.5 2-.5zm-3.3 4.7h6v-.4q0-.6-.2-1.1-.2-.6-.6-1-.4-.4-1-.6-.4-.2-1-.2-1.2 0-2 .8-1 .8-1.2 2.5zm16.6-6.6l-.1-1.5q0-.7.3-1 .3-.3.7-.3.4 0 .8.3.3.4.3 1.2 0 .7-.8 3l-.6 1.6-1.3-.3.5-1.7.2-1.3zm-4.1 0l-.2-1.5q0-.7.3-1 .4-.3.8-.3t.7.3q.3.4.3 1.2 0 .8-.8 3l-.5 1.6-1.4-.3.6-1.7.1-.6.1-.7zm15.9 12.7q0 1.9-2.6 4.5l-.8-.7q.7-.6 1.1-1.4.5-.7.5-1.1 0-.3-.2-.5l-.4-.4-.4-.4-.2-.6q0-.6.3-1 .5-.4 1-.4.7 0 1.2.5.5.6.5 1.5z" fill="#152f82"/></g><path d="M193.8 217.2l.4-1.5q1.5.7 2.7 1.7 1.2 1 2 2.4.8 1.3 1.3 2.8.4 1.5.4 3 0 1.7-.5 3.2-.4 1.5-1.3 2.8-.8 1.4-2 2.4-1.2 1.1-2.7 1.8l-.5-1.4q1.2-.7 2.2-1.6 1-1 1.7-2 .7-1.2 1-2.5.4-1.2.4-2.6 0-1.3-.4-2.6-.3-1.3-1-2.4l-1.6-2q-1-.9-2.1-1.5z" font-size="24" font-family="Inconsolata" fill="#173282"/><g stroke="#2a86c0"><path d="M73.4 30.4v11.1" fill="none"/><path d="M70.4 41.5l3 8 3-8z" fill="#2a86c0"/></g><g stroke="#2a86c0"><path d="M297.5 31.2v26.3" fill="none"/><path d="M294.5 57.5l3 8 3-8z" fill="#2a86c0"/></g></svg>