<svg width="126" height="144" viewBox="0 0 126 144" fill="none" xmlns="http://www.w3.org/2000/svg">
<mask id="mask0_38_80" style="mask-type:luminance" maskUnits="userSpaceOnUse" x="0" y="0" width="126" height="144">
<path d="M59.5679 0.906655L3.39465 33.3293C1.29065 34.5426 0 36.7826 0 39.2039V104.094C0 106.517 1.29065 108.756 3.39465 109.969L59.5719 142.417C61.6719 143.626 64.2612 143.626 66.3585 142.417L122.526 109.969C124.62 108.756 125.913 106.516 125.913 104.094V39.2039C125.913 36.7826 124.62 34.5426 122.513 33.3293L66.3532 0.906655C65.2999 0.302656 64.1265 0 62.9532 0C61.7799 0 60.6065 0.302656 59.5532 0.906655" fill="white"/>
</mask>
<g mask="url(#mask0_38_80)">
<path d="M182.678 27.824L24.3918 -49.7626L-56.7681 115.802L101.514 193.393L182.678 27.824Z" fill="url(#paint0_linear_38_80)"/>
</g>
<mask id="mask1_38_80" style="mask-type:luminance" maskUnits="userSpaceOnUse" x="1" y="0" width="124" height="144">
<path d="M1.39209 108.214C1.92942 108.912 2.60142 109.516 3.39209 109.969L51.5787 137.802L59.6053 142.416C60.8053 143.109 62.1733 143.402 63.5173 143.302C63.9653 143.266 64.4133 143.182 64.8507 143.058L124.096 34.5786C123.643 34.0853 123.112 33.672 122.517 33.3253L85.7359 12.0853L66.2933 0.89868C65.7413 0.578681 65.1426 0.352016 64.5333 0.192017L1.39209 108.214Z" fill="white"/>
</mask>
<g mask="url(#mask1_38_80)">
<path d="M-67.0449 50.7719L44.7215 202.042L192.535 92.8345L80.7615 -58.4319L-67.0449 50.7719Z" fill="url(#paint1_linear_38_80)"/>
</g>
<mask id="mask2_38_80" style="mask-type:luminance" maskUnits="userSpaceOnUse" x="3" y="0" width="123" height="144">
<path d="M62.2827 0.0372924C61.34 0.130626 60.4187 0.423949 59.5694 0.906615L3.55615 33.2359L63.956 143.249C64.796 143.129 65.6227 142.849 66.3694 142.417L122.543 109.969C124.276 108.964 125.463 107.262 125.823 105.334L64.2494 0.147949C63.796 0.0586158 63.3427 0.0119629 62.8761 0.0119629C62.6894 0.0119629 62.5027 0.0212816 62.3161 0.0386149" fill="white"/>
</mask>
<g mask="url(#mask2_38_80)">
<path d="M3.55469 0.0119629V143.252H125.798V0.0119629H3.55469Z" fill="url(#paint2_linear_38_80)"/>
</g>
<mask id="mask3_38_80" style="mask-type:luminance" maskUnits="userSpaceOnUse" x="3" y="0" width="123" height="144">
<path d="M62.2827 0.0372924C61.34 0.130626 60.4187 0.423949 59.5694 0.906615L3.55615 33.2359L63.956 143.249C64.796 143.129 65.6227 142.849 66.3694 142.417L122.543 109.969C124.276 108.964 125.463 107.262 125.823 105.334L64.2494 0.147949C63.796 0.0586158 63.3427 0.0119629 62.8761 0.0119629C62.6894 0.0119629 62.5027 0.0212816 62.3161 0.0386149" fill="white"/>
</mask>
<g mask="url(#mask3_38_80)">
<path d="M3.55469 0.0119629V143.252H125.798V0.0119629H3.55469Z" fill="url(#paint3_linear_38_80)"/>
</g>
<defs>
<linearGradient id="paint0_linear_38_80" x1="103.487" y1="-11.0913" x2="22.3332" y2="154.463" gradientUnits="userSpaceOnUse">
<stop offset="0.3" stop-color="#3E863D"/>
<stop offset="0.5" stop-color="#55934F"/>
<stop offset="0.8" stop-color="#5AAD45"/>
</linearGradient>
<linearGradient id="paint1_linear_38_80" x1="-10.4919" y1="127.274" x2="137.327" y2="18.0536" gradientUnits="userSpaceOnUse">
<stop offset="0.57" stop-color="#3E863D"/>
<stop offset="0.72" stop-color="#619857"/>
<stop offset="1" stop-color="#76AC64"/>
</linearGradient>
<linearGradient id="paint2_linear_38_80" x1="3.59593" y1="71.6358" x2="125.822" y2="71.6358" gradientUnits="userSpaceOnUse">
<stop offset="0.16" stop-color="#6BBF47"/>
<stop offset="0.38" stop-color="#79B461"/>
<stop offset="0.47" stop-color="#75AC64"/>
<stop offset="0.7" stop-color="#659E5A"/>
<stop offset="0.9" stop-color="#3E863D"/>
</linearGradient>
<linearGradient id="paint3_linear_38_80" x1="3.59593" y1="71.6358" x2="125.822" y2="71.6358" gradientUnits="userSpaceOnUse">
<stop offset="0.16" stop-color="#6BBF47"/>
<stop offset="0.38" stop-color="#79B461"/>
<stop offset="0.47" stop-color="#75AC64"/>
<stop offset="0.7" stop-color="#659E5A"/>
<stop offset="0.9" stop-color="#3E863D"/>
</linearGradient>
</defs>
</svg>
