<svg width="20" height="20" viewBox="0 0 20 20" fill="none" xmlns="http://www.w3.org/2000/svg">
<path d="M20 5.53875C20 5.33081 20 5.14178 20 4.93384C19.9811 4.49905 19.9622 4.04537 19.8867 3.61059C19.8111 3.1758 19.6789 2.75992 19.4712 2.36295C19.2635 1.96597 19.0179 1.60681 18.6969 1.30435C18.3758 0.982987 18.017 0.73724 17.6393 0.529301C17.2427 0.321361 16.8272 0.189036 16.3928 0.113422C15.9585 0.0378072 15.5241 0 15.0708 0C14.8631 0 14.6742 0 14.4665 0C14.221 0 13.9943 0 13.7488 0H8.44193H6.25118C6.00567 0 5.77904 0 5.53352 0C5.32578 0 5.13692 0 4.92918 0C4.81586 0 4.70255 0 4.60812 0.0189036C4.28706 0.0378072 3.94712 0.0567108 3.62606 0.113422C3.305 0.170132 2.98395 0.26465 2.68178 0.378072C2.58735 0.415879 2.47403 0.47259 2.3796 0.510397C2.07743 0.661626 1.81303 0.850662 1.54863 1.0586C1.47309 1.13422 1.37866 1.20983 1.30312 1.28544C0.982059 1.60681 0.736544 1.96597 0.528801 2.34405C0.321058 2.74102 0.188857 3.1569 0.113314 3.59168C0.0377715 4.02646 0.0188857 4.46125 0 4.91493C0 5.12287 0 5.31191 0 5.51985C0 5.76559 0 5.99244 0 6.23818V9.50851V13.7429C0 13.9887 0 14.2155 0 14.4612C0 14.6692 0 14.8582 0 15.0662C0.0188857 15.5009 0.0377715 15.9546 0.113314 16.3894C0.188857 16.8242 0.321058 17.2401 0.528801 17.6371C0.736544 18.034 0.982059 18.3932 1.30312 18.6957C1.62417 19.017 1.983 19.2628 2.36072 19.4707C2.75732 19.6786 3.1728 19.811 3.60718 19.8866C4.04155 19.9622 4.47592 20 4.92918 20C5.13692 20 5.32578 20 5.53352 20C5.77904 20 6.00567 20 6.25118 20H13.7488C13.9943 20 14.221 20 14.4665 20C14.6742 20 14.8631 20 15.0708 20C15.5052 19.9811 15.9585 19.9622 16.3928 19.8866C16.8272 19.811 17.2427 19.6786 17.6393 19.4707C18.0359 19.2628 18.3947 19.017 18.6969 18.6957C19.0179 18.3743 19.2635 18.0151 19.4712 17.6371C19.6789 17.2401 19.8111 16.8242 19.8867 16.3894C19.9622 15.9546 20 15.5198 20 15.0662C20 14.8582 20 14.6692 20 14.4612C20 14.2155 20 13.9887 20 13.7429V6.23818C20 6.01134 20 5.7845 20 5.53875Z" fill="#F05138"/>
<path d="M15.826 12.363C15.8449 12.2874 15.8637 12.2118 15.8826 12.1361C16.7136 8.82801 14.6928 4.89606 11.2556 2.83557C12.7665 4.87716 13.4275 7.35353 12.842 9.50854C12.7854 9.69758 12.7287 9.88661 12.6532 10.0756C12.5776 10.0189 12.4832 9.96223 12.351 9.90552C12.351 9.90552 8.93267 7.78831 5.23107 4.0643C5.13664 3.96979 7.21407 7.03217 9.5559 9.50854C8.44164 8.88472 5.36327 6.63519 3.39915 4.85826C3.64466 5.25523 3.92795 5.65221 4.23012 6.01137C5.8543 8.09077 7.98839 10.6428 10.538 12.6087C8.74382 13.7051 6.21313 13.7997 3.70132 12.6087C3.07809 12.3252 2.49263 11.966 1.94495 11.569C3.00255 13.2704 4.64561 14.7448 6.6475 15.6144C9.0271 16.6352 11.4067 16.5785 13.1631 15.6333C13.1631 15.6333 13.182 15.6333 13.182 15.6144C13.2575 15.5766 13.3331 15.5199 13.4086 15.4821C14.2585 15.0473 15.9204 14.6125 16.8269 16.3516C17.0913 16.7486 17.5635 14.4802 15.826 12.363Z" fill="white"/>
</svg>
