<svg height="79" width="61" xmlns="http://www.w3.org/2000/svg" xmlns:xlink="http://www.w3.org/1999/xlink"><use xlink:href="#document" fill="#69b241"/><use xlink:href="#document" fill="#b4bbc1" transform="matrix(1 0 0 1 0 21)"/><use xlink:href="#document" fill="#69b241" transform="matrix(0.8 0 0 0.8 0 42)"/><use xlink:href="#document" fill="#b4bbc1" transform="matrix(0.8 0 0 0.8 0 59)"/><g fill="#69b241" fill-rule="evenodd"><g transform="translate(17)"><path d="m2 18h2v-15h-2zm13-17h-1v17h-8v-15h2v-2h-7a1 1 0 0 0 -1 1v17a1 1 0 0 0 1 1h14a1 1 0 0 0 1-1v-17a1 1 0 0 0 -1-1z"/><path d="m13 10-2-2-2 2v-10h4z"/></g><path transform="matrix(1.15 0 0 1 34 0)" d="m 12.6259,0.20267751 -0.686142,-0.185762 a 0.31404212,0.31579658 0 0 0 -0.260382,0.02654 0.35450694,0.35648747 0 0 0 -0.171535,0.214069 L 7.38043,14.36045 a 0.32019981,0.32198867 0 0 0 0.02815,0.268029 0.35802562,0.3600258 0 0 0 0.21552,0.168956 l 0.686142,0.185763 c 0.08797,0.02919 0.175934,0.02035 0.260382,-0.02654 A 0.35538661,0.35737205 0 0 0 8.742159,14.743473 L 12.869567,0.63966551 a 0.32019981,0.32198867 0 0 0 -0.02815,-0.268029 0.35802562,0.3600258 0 0 0 -0.21552,-0.168956 z M 6.440062,2.9555045 A 0.34043222,0.34233411 0 0 0 6.329224,2.7042825 L 5.775912,2.1576095 a 0.35274759,0.35471829 0 0 0 -0.508449,0 L 0.110838,7.2483915 A 0.34043222,0.34233411 0 0 0 0,7.4996135 c 0,0.09465 0.03694,0.178686 0.110838,0.251222 l 5.156625,5.0907835 a 0.35186793,0.35383371 0 0 0 0.508449,0 L 6.330103,12.295831 A 0.34043222,0.34233411 0 0 0 6.440062,12.044608 0.34043222,0.34233411 0 0 0 6.329224,11.793386 L 1.981017,7.4996135 6.329224,3.2067255 a 0.34043222,0.34233411 0 0 0 0.110838,-0.251221 z m 13.6991,4.292887 -5.156625,-5.089898 a 0.35274759,0.35471829 0 0 0 -0.508449,0 l -0.554192,0.546673 a 0.34043222,0.34233411 0 0 0 -0.109959,0.251222 c 0,0.09465 0.03695,0.178686 0.110838,0.251222 l 4.349088,4.292888 -4.349088,4.2937725 a 0.34043222,0.34233411 0 0 0 -0.110838,0.251222 c 0,0.09465 0.03695,0.178686 0.110838,0.251222 l 0.553313,0.545788 a 0.35274759,0.35471829 0 0 0 0.508449,0 L 20.139162,7.7526045 A 0.34043222,0.34233411 0 0 0 20.25,7.5004985 0.34043222,0.34233411 0 0 0 20.139162,7.2492765 Z"/></g><defs><g id="document" fill-rule="evenodd" transform="scale(1.2778532 1.3068479)"><path d="m5.073 6.469-2.578 2.579 2.578 2.579.984-.984-1.595-1.595 1.595-1.595zm1.392.984 1.595 1.595-1.595 1.595.983.984 2.58-2.58-2.58-2.578z"/><path d="m1.391 13.915v-12.522h6.957v2.783h2.782l.001 9.74h-9.74zm7.94-13.913h-7.94c-.767 0-1.391.623-1.391 1.391v12.522c0 .767.624 1.391 1.391 1.391h9.74c.767 0 1.39-.624 1.39-1.39v-10.724l-3.189-3.19z"/></g></defs></svg>
