<svg height="79" width="61" xmlns="http://www.w3.org/2000/svg" xmlns:xlink="http://www.w3.org/1999/xlink"><defs><g id="a" fill-rule="evenodd" transform="scale(1.2778532 1.3068479)"><path d="m5.1 6.5-2.6 2.6 2.6 2.6 1-1-1.6-1.6 1.6-1.6zm1.4 1 1.6 1.6-1.6 1.6 1 1 2.6-2.6-2.6-2.6z"/><path d="m1.4 13.9v-12.5h7v2.8h2.8v9.7h-9.7zm7.9-13.9h-7.9c-.8 0-1.4.6-1.4 1.4v12.5c0 .8.6 1.4 1.4 1.4h9.7c.8 0 1.4-.6 1.4-1.4v-10.7l-3.2-3.2z"/></g></defs><use fill="#69b241" xlink:href="#a"/><use fill="#b4bbc1" transform="translate(0 21)" xlink:href="#a"/><use fill="#69b241" transform="matrix(.8 0 0 .8 0 42)" xlink:href="#a"/><use fill="#b4bbc1" transform="matrix(.8 0 0 .8 0 59)" xlink:href="#a"/><g fill="#69b241" fill-rule="evenodd"><g transform="translate(17)"><path d="m2 18h2v-15h-2zm13-17h-1v17h-8v-15h2v-2h-7a1 1 0 0 0 -1 1v17a1 1 0 0 0 1 1h14a1 1 0 0 0 1-1v-17a1 1 0 0 0 -1-1z"/><path d="m13 10-2-2-2 2v-10h4z"/></g><path d="m12.6.2-.7-.2a.3.3 0 0 0 -.3 0 .4.4 0 0 0 -.2.2l-4 14.2a.3.3 0 0 0 0 .3.4.4 0 0 0 .2.2l.7.2h.3a.4.4 0 0 0 .1-.4l4.2-14.1a.3.3 0 0 0 0-.3.4.4 0 0 0 -.2-.2zm-6.2 2.8a.3.3 0 0 0 -.1-.3l-.5-.5a.4.4 0 0 0 -.5 0l-5.2 5a.3.3 0 0 0 -.1.3c0 .1 0 .2.1.3l5.2 5.1a.4.4 0 0 0 .5 0l.5-.6a.3.3 0 0 0 .1-.3.3.3 0 0 0 -.1-.2l-4.3-4.3 4.3-4.3a.3.3 0 0 0 .1-.3zm13.7 4.3-5.2-5.1a.4.4 0 0 0 -.5 0l-.6.5a.3.3 0 0 0 -.1.3c0 .1 0 .2.1.3l4.3 4.3-4.3 4.3a.3.3 0 0 0 -.1.3c0 .1 0 .2.1.3l.6.5a.4.4 0 0 0 .5 0l5.2-5.2a.3.3 0 0 0 .2-.3.3.3 0 0 0 -.2-.3z" transform="matrix(1.15 0 0 1 34 0)"/></g></svg>
