<svg width="258" height="258" viewBox="0 0 258 258" fill="none" xmlns="http://www.w3.org/2000/svg">
<g clip-path="url(#clip0_9078_2719)">
<path d="M64.5 32.25C64.5026 40.8024 67.9013 49.0038 73.9487 55.0513C79.9962 61.0987 88.1976 64.4974 96.75 64.5C105.303 64.5 113.506 67.8978 119.554 73.9458C125.602 79.9939 129 88.1968 129 96.75C129 105.303 125.602 113.506 119.554 119.554C113.506 125.602 105.303 129 96.75 129H32.25C23.6976 129.003 15.4962 132.401 9.44873 138.449C3.40126 144.496 0.00265068 152.698 0 161.25V225.75C0.00265068 234.302 3.40126 242.504 9.44873 248.551C15.4962 254.599 23.6976 257.997 32.25 258H193.5C210.604 257.992 227.005 251.194 239.1 239.1C251.194 227.005 257.992 210.604 258 193.5V32.25C257.997 23.6976 254.599 15.4962 248.551 9.44873C242.504 3.40126 234.302 0.00265068 225.75 0H96.75C79 0.26 64.5 14.71 64.5 32.25Z" fill="#E3FCF7"/>
<path d="M211.22 147V175.27L135.32 211.91L59.4199 175.27V147L135.32 110.36L211.22 147Z" stroke="black" stroke-linejoin="round" stroke-dasharray="2 2"/>
<path d="M211.22 175.22L135.32 211.86L59.4199 175.22L118.09 146.91L135.32 138.59L211.22 175.22Z" fill="white"/>
<path d="M211.22 175.22L135.32 211.86L59.4199 175.22L118.09 146.91L135.32 138.59L211.22 175.22Z" fill="#E9FF99" stroke="black" stroke-linecap="round" stroke-linejoin="round"/>
<path d="M59.4199 147L135.32 183.54V211.87" stroke="black" stroke-linejoin="round" stroke-dasharray="2 2"/>
<path d="M135.32 183.53L211.22 147" stroke="black" stroke-linejoin="round" stroke-dasharray="2 2"/>
<path d="M135.32 211.86V240.14L59.4199 203.51V175.22L135.32 211.86Z" fill="#00ED64" stroke="black" stroke-linecap="round" stroke-linejoin="round"/>
<path d="M135.32 82V138.56L118.09 146.88L59.4199 175.19" stroke="black" stroke-linecap="round" stroke-linejoin="round"/>
<path d="M211.22 175.22V203.5L135.33 240.14V211.86L211.22 175.22Z" fill="#00ED64" stroke="black" stroke-linecap="round" stroke-linejoin="round"/>
<path d="M211.22 175.22L135.32 138.59" stroke="black" stroke-linecap="round" stroke-linejoin="round"/>
<path d="M194.789 182.86L211.119 175V203.5L194.789 211.37V182.86Z" fill="black"/>
<path d="M211.261 85.9999L135.371 122.63L59.4707 85.9999L118.141 57.6799L135.371 49.3599L211.261 85.9999Z" fill="white"/>
<path d="M211.261 85.9999L135.371 122.63L59.4707 85.9999L118.141 57.6799L135.371 49.3599L211.261 85.9999Z" fill="#E9FF99" stroke="black" stroke-linecap="round" stroke-linejoin="round"/>
<path d="M135.371 122.58V150.86L59.4707 114.22V86L135.371 122.58Z" fill="#00ED64" stroke="black" stroke-linecap="round" stroke-linejoin="round"/>
<path d="M211.259 86V114.27L135.369 150.91V122.58L211.259 86Z" fill="#00ED64" stroke="black" stroke-linecap="round" stroke-linejoin="round"/>
<path d="M211.259 85.9401L135.369 49.3101" stroke="black" stroke-linecap="round" stroke-linejoin="round"/>
<path d="M194.84 93.5702L211.17 85.7002V114.47L194.84 122.34V93.5702Z" fill="black"/>
<path d="M86.4902 64.3798L101.84 57.0898L103.49 64.9998L88.2402 72.2898L86.4902 64.3798Z" fill="black"/>
<path d="M86.4902 64.3799L88.1402 66.1299V72.0499L86.4902 70.2999V64.3799Z" fill="black" stroke="black" stroke-linecap="round" stroke-linejoin="round"/>
<path d="M184.64 64.3798L169.38 57.0898L167.73 64.9998L183 72.2498L184.64 64.3798Z" fill="black"/>
<path d="M184.64 64.3799L183.08 66.1299V72.0499L184.64 70.2999V64.3799Z" fill="black" stroke="black" stroke-linecap="round" stroke-linejoin="round"/>
<path d="M86.4902 64.3799L101.84 57.0899L134.5 54.1699L119.24 61.5499L86.4902 64.3799Z" fill="#00ED64" stroke="black" stroke-linecap="round" stroke-linejoin="round"/>
<path d="M86.4902 64.3798L88.1402 66.1298L120.79 63.2098L119.24 61.5498L86.4902 64.3798Z" fill="black" stroke="black" stroke-linecap="round" stroke-linejoin="round"/>
<path d="M184.64 64.3799L169.38 57.0899L136.73 54.1699L152 61.5499L184.64 64.3799Z" fill="#00ED64" stroke="black" stroke-linecap="round" stroke-linejoin="round"/>
<path d="M184.64 64.3798L183.08 66.1298L150.43 63.2098L152 61.5498L184.64 64.3798Z" fill="black" stroke="black" stroke-linecap="round" stroke-linejoin="round"/>
<path d="M140.23 63.2098L125 55.8198L79.0996 96.5398L94.3596 103.93L140.23 63.2098Z" fill="#00ED64" stroke="black" stroke-linecap="round" stroke-linejoin="round"/>
<path d="M140.229 63.21L142.169 63.99L96.2994 104.71L94.3594 103.93L140.229 63.21Z" fill="black" stroke="black" stroke-linecap="round" stroke-linejoin="round"/>
<path d="M96.6894 121H98.4394L96.2994 104.68L94.3594 103.9L96.6894 121Z" fill="black" stroke="black" stroke-linecap="round" stroke-linejoin="round"/>
<path d="M96.6896 121L81.3396 113.62L79.0996 96.5098L94.3596 103.9L96.6896 121Z" fill="#00ED64" stroke="black" stroke-linecap="round" stroke-linejoin="round"/>
<path d="M131 63.2098L146.25 55.8198L192 96.5398L176.74 103.93L131 63.2098Z" fill="#00ED64" stroke="black" stroke-linecap="round" stroke-linejoin="round"/>
<path d="M131.001 63.21L129.051 63.99L174.821 104.71L176.771 103.93L131.001 63.21Z" fill="black" stroke="black" stroke-linecap="round" stroke-linejoin="round"/>
<path d="M174.539 121H172.689L174.819 104.68L176.769 103.9L174.539 121Z" fill="black" stroke="black" stroke-linecap="round" stroke-linejoin="round"/>
<path d="M174.539 121L189.789 113.62L191.999 96.54L176.739 103.93L174.539 121Z" fill="#00ED64" stroke="black" stroke-linecap="round" stroke-linejoin="round"/>
<path d="M99.0005 121L101.231 102.83L140.741 74L136.071 69.52L96.8105 104.71L99.0005 121Z" fill="black"/>
<path d="M164.91 64.5699L196.3 90.4199L190.3 113.76L192 96.5399L155.1 63.6899L164.91 64.5699Z" fill="black"/>
<path d="M93.6797 66.6099L96.3997 65.4399L116.13 63.6899L112.73 66.6099H93.6797Z" fill="black"/>
<path d="M161.131 64.1802L174.921 65.4402L182.411 69.1402L167.731 70.2102L161.131 64.1802Z" fill="black"/>
<path d="M152.279 27.0498V62.9298C152.297 63.0424 152.297 63.1572 152.279 63.2698V63.4298C152.21 63.732 152.088 64.0196 151.919 64.2798C151.919 64.2798 151.869 64.3798 151.839 64.4298C151.734 64.5978 151.617 64.7583 151.489 64.9098L151.209 65.2298L151.019 65.4198L150.719 65.6798C150.404 65.9495 150.07 66.1968 149.719 66.4198L149.279 66.6698L148.869 66.8998C148.453 67.1182 148.026 67.3151 147.589 67.4898L147.259 67.6298C146.739 67.8398 146.169 68.0198 145.589 68.1998C145.519 68.229 145.445 68.2492 145.369 68.2598C142.203 69.1257 138.931 69.5431 135.649 69.4998C126.419 69.4998 118.939 66.4998 118.939 62.6998V27.0498H152.279Z" fill="#00ED64" stroke="black" stroke-linecap="round" stroke-linejoin="round"/>
<path d="M152.18 26.8101V62.4801C152.18 64.7801 149.42 66.8001 145.18 68.0201V32.3501C149.42 31.1201 152.18 29.0901 152.18 26.8101Z" fill="black"/>
<path d="M135.569 33.8401C144.798 33.8401 152.279 30.7733 152.279 26.9901C152.279 23.207 144.798 20.1401 135.569 20.1401C126.341 20.1401 118.859 23.207 118.859 26.9901C118.859 30.7733 126.341 33.8401 135.569 33.8401Z" fill="#00ED64" stroke="black" stroke-linecap="round" stroke-linejoin="round"/>
</g>
<defs>
<clipPath id="clip0_9078_2719">
<rect width="258" height="258" fill="white"/>
</clipPath>
</defs>
</svg>
