<svg xmlns="http://www.w3.org/2000/svg" width="620" height="507" fill="none"><path fill="#fff" d="M0 0h620v507H0z"/><path fill="#FFFFFE" d="M248.6 281v-24.6h7.7q3.6 0 5.6 2 2.1 1.8 2.1 5 0 2.1-1 3.8a5.9 5.9 0 0 1-3 2.4q-1.8.7-5.3.7H252V281h-3.5zm7.1-21.5h-3.6v7.7h3.8q2.2 0 3.3-1 1.2-1 1.2-2.9 0-3.8-4.7-3.8m13.3 5.3v3.7l.2-.2q2.4-3.8 4.7-3.8 1.8 0 3.8 1.8l-1.7 2.9q-1.7-1.6-3.1-1.6-1.6 0-2.7 1.4-1.1 1.5-1.1 3.5v8.5h-3.2v-16.2h3.2zm12.6-6.8q.8 0 1.3.6.6.5.6 1.3t-.6 1.3q-.5.6-1.3.6t-1.3-.6q-.6-.5-.6-1.3 0-.7.6-1.3.5-.6 1.3-.6m-1.6 6.8h3.2V281H280zm21 4.5V281h-3.2v-9q0-2.7-.7-3.7-.7-1.1-2.5-1.1-1 0-1.9.4-.8.5-1.9 1.7V281h-3.2v-16.2h3.2v2.2q2.5-2.5 4.8-2.5 3.1 0 4.8 3 2.6-3 5.4-3 2.3 0 3.8 1.7 1.6 1.7 1.6 5.3v9.5H308v-9.6q0-2-.9-3-.8-1.1-2.3-1.1-2 0-3.8 2m24.7 2v6.9q0 .8.5.8.6 0 1.8-.9v2l-1.7 1-1.4.2q-2 0-2.4-1.6-2 1.5-4.4 1.5-1.7 0-2.8-1-1.1-1.2-1.1-2.9 0-1.5 1-2.7 1.2-1.2 3.2-2l4.1-1.3v-.9q0-2.9-3-2.9-2.5 0-5 2.7v-3.5q1.9-2.2 5.4-2.2 2.6 0 4.2 1.4.5.4.9 1.2.4.7.5 1.4.2.7.2 2.8m-3.2 6.5V273l-2.1.8q-1.7.7-2.4 1.3-.6.7-.6 1.7t.6 1.6q.7.6 1.7.6 1.5 0 2.8-1.2m11.8-13v3.7l.2-.2q2.3-3.8 4.6-3.8 1.8 0 3.8 1.8l-1.7 2.9q-1.6-1.6-3-1.6-1.6 0-2.8 1.4-1 1.5-1 3.5v8.5H331v-16.2h3.3m21.8 0h3.6l-11.4 24.4h-3.6l5.5-11.7-6.2-12.7h3.6l4.4 9.2z"/><path fill="#484743" d="M151.801 106.2c0 2.2 1.1 4 2.5 4h302.5c1.3 0 2.5-1.8 2.5-4V14c0-2.2-1.2-4-2.5-4h-302.5c-1.4 0-2.5 1.8-2.5 4v92"/><path fill="#FFFFFE" d="M200.299 40.1V44q-3.8 2.1-9 2.1-3.999 0-6.9-1.6-2.9-1.7-4.5-4.6a12.24 12.24 0 0 1-1.7-6.3q0-5.3 3.8-9 3.9-3.6 9.5-3.6 3.8 0 8.6 2v3.8q-4.3-2.5-8.5-2.5t-7 2.7q-2.8 2.6-2.8 6.6t2.8 6.7q2.7 2.6 7 2.6 4.5 0 8.7-2.8m4-18.8h3.2v24.5h-3.2zm9.5 1.6q.8 0 1.4.5t.6 1.3-.6 1.4q-.6.5-1.4.5-.7 0-1.3-.5-.5-.6-.5-1.4 0-.7.5-1.3.6-.5 1.3-.5m-1.5 6.8h3.2v16.1h-3.2zm21.5 8.3h-11.3q0 2.3 1.5 3.7t3.7 1.4q3.2 0 5.9-2v3.1q-1.5 1-3 1.5-1.4.4-3.4.4-2.6 0-4.3-1.1-1.6-1.1-2.6-3t-1-4.3q0-3.7 2-6 2.2-2.4 5.5-2.4 3.201 0 5.1 2.3 2 2.2 2 6v.4zm-11.3-1.9h8.2q-.099-2-1.2-3-.999-1-2.7-1-1.7 0-2.8 1t-1.5 3m18-6.4v2q2.1-2.4 4.9-2.4 1.5 0 2.8.8a5.3 5.3 0 0 1 2 2.2q.6 1.3.6 4.3v9.2h-3.2v-9.2q0-2.5-.7-3.5-.8-1-2.6-1-2.2 0-3.8 2.2v11.5h-3.3V29.7zm12.5 2.5 6-5.9v3.4h5.1v2.8h-5v8q0 2.7 2.2 2.7 1.8 0 3.7-1.1v3a8.5 8.5 0 0 1-4 1q-2.2 0-3.7-1.3l-.8-.8q-.3-.5-.5-1.3t-.2-3v-7.2h-2.8zm27.5-11.1h2.5l11 24.7h-3.6l-3.3-7.2h-10.4l-3.1 7.2h-3.6zm5.2 14.3-4-8.9-3.7 9h7.7zm10.3 18.6V29.8h5.7q4.3 0 6.7 2.1t2.4 6q0 3.6-2.3 6-2.199 2.3-5.7 2.3-1.6 0-3.5-.7v8.7h-3.2zm5.6-21.4h-2.3v10q1.5.8 3.1.8 2.3 0 3.7-1.6t1.4-4q0-1.6-.6-2.8-.7-1.2-1.9-1.8t-3.4-.6m12.4 21.4V29.8h5.7q4.3 0 6.7 2.1t2.4 6q0 3.6-2.3 6-2.199 2.3-5.7 2.3-1.6 0-3.5-.7v8.7h-3.2zm5.6-21.4h-2.3v10q1.5.8 3.1.8 2.3 0 3.7-1.6t1.4-4q0-1.6-.6-2.8-.7-1.2-1.9-1.8t-3.4-.6m12.7-11.3h3.2v24.5h-3.2zm9.6 1.6q.8 0 1.3.5.6.5.6 1.3t-.6 1.4q-.5.5-1.3.5t-1.3-.5q-.6-.6-.6-1.4 0-.7.6-1.3.5-.5 1.3-.5m-1.6 6.8h3.2v16.1h-3.2zm19.9 12.3v3.2q-2.4 1-4.7 1-3.8 0-6-2.3-2.3-2.3-2.3-6 0-3.9 2.2-6.2 2.2-2.4 5.8-2.4 1.2 0 2.2.3 1 .2 2.5.9v3.4q-2.499-1.6-4.5-1.6-2.199 0-3.6 1.6-1.4 1.5-1.4 3.8 0 2.5 1.5 4 1.5 1.4 4 1.4 2 0 4.3-1zm13.8-5.9V43q0 .8.6.8.501 0 1.8-.9v2l-1.8 1q-.6.2-1.4.2-2 0-2.4-1.6-2 1.6-4.3 1.6-1.7 0-2.8-1.1-1.2-1.2-1.2-2.8t1.1-2.8 3.2-1.9l4-1.4v-.9q0-2.9-2.9-2.9-2.6 0-5 2.7v-3.5q1.8-2.2 5.3-2.2 2.601 0 4.2 1.4l1 1.2q.4.7.5 1.4zm-3.1 6.5v-4.8l-2.2.9q-1.6.6-2.3 1.3-.7.6-.7 1.6t.7 1.6q.6.7 1.6.7 1.6 0 2.9-1.3m6.1-10.4 6-5.9v3.4h5.1v2.8h-5.1v8q0 2.7 2.3 2.7 1.701 0 3.6-1.1v3q-1.8 1-4 1t-3.7-1.3l-.7-.8q-.3-.5-.5-1.3t-.2-3v-7.2h-2.8zm16-9.3q.7 0 1.3.5.5.5.5 1.3t-.5 1.4q-.6.5-1.4.5-.7 0-1.3-.5-.6-.6-.6-1.4 0-.7.6-1.3.6-.5 1.3-.5zm-1.7 6.8h3.2v16.1h-3.2zm15.6-.1q3.7 0 6.1 2.4t2.4 6q0 3.5-2.4 5.8-2.499 2.3-6.3 2.3-3.6 0-6-2.3-2.5-2.4-2.5-5.9t2.5-5.9q2.4-2.4 6.2-2.4m-.2 2.9q-2.3 0-3.8 1.5t-1.5 3.9q0 2.3 1.6 3.8 1.5 1.4 3.8 1.4 2.4 0 3.9-1.5 1.5-1.4 1.5-3.8 0-2.3-1.6-3.8-1.5-1.5-4-1.5zm15.5-2.8v2q2.1-2.4 4.8-2.4 1.5 0 2.8.8a5.3 5.3 0 0 1 2 2.2q.7 1.3.7 4.3v9.2h-3.2v-9.2q0-2.5-.8-3.5-.7-1-2.5-1-2.3 0-3.8 2.2v11.5h-3.3V29.7z"/><path stroke="#ECEBE9" d="M151.801 59.9h307.5"/><path fill="#FFFFFE" d="M260.4 97.8V73.3h8.3q5 0 8 1.5 2.9 1.5 4.6 4.4 1.7 3 1.7 6.4 0 2.4-1 4.7-.9 2.2-2.7 4-1.7 1.7-4.1 2.6-1.4.5-2.6.7-1.1.2-4.4.2zm8-21.4h-4.5v18.3h4.5q2.7 0 4.1-.4 1.5-.4 2.5-.9a9.3 9.3 0 0 0 1.8-1.4q2.6-2.6 2.6-6.6t-2.7-6.5a6.5 6.5 0 0 0-2.3-1.5q-1.2-.6-2.4-.8-1.1-.2-3.7-.2zm22 5.3v3.7l.2-.3q2.3-3.8 4.6-3.8 1.8 0 3.8 1.9l-1.7 2.8q-1.7-1.6-3.1-1.6-1.5 0-2.7 1.5-1.1 1.5-1.1 3.5v8.4h-3.2V81.7zm12.5-6.8q.8 0 1.3.5.6.5.6 1.3t-.6 1.4q-.5.5-1.3.5t-1.3-.5q-.6-.6-.6-1.4 0-.7.6-1.3.5-.5 1.3-.5m-1.6 6.8h3.2v16.1h-3.2zm17.7 0h3.5L315.3 98h-1l-7.4-16.4h3.5l4.4 10 4.2-10zm19 8.3h-11.4q0 2.3 1.5 3.7 1.4 1.4 3.7 1.4 3.2 0 5.9-2v3.1q-1.5.999-3 1.5-1.4.4-3.4.4-2.6 0-4.3-1.1t-2.7-3-1-4.3q0-3.7 2.2-6 2.001-2.4 5.4-2.4 3.201 0 5.1 2.3 2 2.2 2 6zm-11.4-1.9h8.2q-.2-2.001-1.2-3-.999-1-2.7-1-1.7 0-2.8 1-1.1.999-1.5 3m18.2-6.4v3.7l.2-.3q2.3-3.8 4.6-3.8 1.8 0 3.8 1.9l-1.7 2.8q-1.7-1.6-3-1.6-1.6 0-2.8 1.5-1 1.5-1 3.5v8.4h-3.3V81.7z"/><path fill="#2A86C0" d="M235.7 124.4h3l-8.3 20.6h-.7l-6.7-16.6-6.7 16.6h-.6l-8.3-20.5h3l5.6 14 5.6-14h2.8l5.7 14 5.6-14zm6.7 7v3.1l.1-.2q2.001-3.2 3.9-3.2 1.5 0 3.1 1.6l-1.4 2.3q-1.4-1.3-2.6-1.3-1.3 0-2.2 1.2-1 1.3-1 3v7h-2.6v-13.5zm10.4-5.7q.6 0 1 .5.6.4.6 1 0 .7-.5 1.2t-1.1.5q-.7 0-1.1-.5-.5-.5-.5-1.1t.5-1q.4-.6 1-.6zm-1.4 5.7h2.7v13.5h-2.6v-13.5zm4.6 2.1 5-5v2.9h4.3v2.4h-4.2v6.6q0 2.3 2 2.3 1.3 0 3-1v2.5q-1.6.9-3.4.9t-3-1l-.7-.8-.4-1q-.2-.7-.2-2.5v-6h-2.3v-.3zm23.5 4.8H270q.1 2 1.3 3.1t3 1.1q2.7 0 5-1.6v2.6q-1.3.801-2.5 1.2-1.2.3-2.8.3-2.3 0-3.6-.9-1.4-.9-2.2-2.5-.9-1.5-.9-3.6 0-3 1.8-5 1.701-2 4.5-2 2.7 0 4.3 2 1.6 1.8 1.6 5zm-9.5-1.6h6.8q0-1.599-1-2.4-.8-.9-2.2-.9-1.5 0-2.4.9-.9.801-1.2 2.4m11.7 7.1V141q1.1.8 2.3 1.3 1.2.4 2 .4t1.4-.4.6-1q0-.5-.4-1l-1.7-1q-2.499-1.5-3.3-2.5t-.8-2.2q0-1.6 1.2-2.5 1.2-1 3-1 2 0 4.1 1v2.7q-2.3-1.4-3.8-1.4-.8 0-1.3.3t-.5.9q0 .501.5.9.4.4 1.5 1l1 .5q3.3 2.001 3.3 4.2 0 1.7-1.3 2.8-1.299 1-3.3 1-1.2 0-2.1-.2-.999-.3-2.4-1"/><path fill="#484743" d="M334.199 145v-20.5h5.2q3 0 4.9 1.5 1.8 1.6 1.8 4.2 0 1.8-.9 3-.9 1.4-2.5 2 1 .7 1.9 1.8 1 1 2.6 3.9l1.7 2.6 1.1 1.4h-3.5l-.9-1.3-.1-.2-.6-.9-1-1.4-.9-1.6-1.7-2q-.7-.8-1.3-1.1-.6-.4-2-.4h-.8v9zm3.9-18h-1v6.4h1.2q2.2 0 3-.3.9-.4 1.3-1.2.5-.8.5-1.7 0-1-.5-1.8t-1.5-1.1q-.9-.3-3-.3m25.3 11.4h-9.4q0 2 1.2 3.1 1.2 1.2 3.1 1.2 2.7 0 4.9-1.7v2.6q-1.2.9-2.4 1.2-1.2.4-2.9.4-2.199 0-3.6-1a6.37 6.37 0 0 1-2.2-2.4q-.8-1.6-.8-3.7 0-3 1.7-5 1.8-1.9 4.6-1.9 2.601 0 4.2 1.9t1.6 5zm-9.4-1.6h6.8q-.1-1.5-1-2.4-.8-.9-2.2-.9-1.5 0-2.4.9t-1.2 2.4m20.8 0v5.8q0 .7.4.7.5 0 1.6-.8v1.7l-1.5.8-1.2.2q-1.7 0-2-1.4-1.7 1.4-3.6 1.4-1.4 0-2.3-1-1-1-1-2.3t1-2.3q.9-1 2.5-1.6l3.5-1.2v-.7q0-2.4-2.5-2.4-2.199 0-4.2 2.3v-3q1.5-1.8 4.4-1.8 2.2 0 3.5 1.2.5.3.8 1 .4.5.5 1.1v2.3zm-2.6 5.5v-4l-1.8.7q-1.4.5-2 1-.5.6-.5 1.4 0 .9.5 1.4t1.4.5q1.3 0 2.4-1m15.9-17.8h2.7v20.4h-5.7q-3 0-4.8-1.8-1.7-2-1.7-5.1 0-3 1.8-4.9 1.9-2 4.8-2 1.401 0 3 .7v-7.3zm0 18.2V134q-1.2-.6-2.5-.6-2 0-3.2 1.3-1.1 1.3-1.1 3.5 0 2 1 3.2.6.7 1.3 1 .7.2 2.5.2h2zm5.7 1.3v-3a11.3 11.3 0 0 0 2.3 1.3q1.2.5 2 .5t1.4-.4.6-1-.4-1-1.7-1.1q-2.499-1.4-3.3-2.4a3.58 3.58 0 0 1-.8-2.3q0-1.5 1.2-2.5t3-1q2 0 4.1 1.1v2.7q-2.3-1.5-3.8-1.5-.8 0-1.3.4-.5.3-.5.8t.5 1l1.5 1 1 .5q3.3 1.9 3.3 4.2 0 1.7-1.3 2.7-1.299 1-3.3 1-1.2 0-2.2-.2t-2.3-1z"/><path fill="#2A86C0" d="m151.801 387.6-10.5-12.5 3.1-2.6q2-1.6 3.8-1.6 2 0 3.3 1.6 1 1 1 2.3.2 1.3-.5 2.5l2 .1q1.2.2 3.7 1l2.4.8 1.4.3-2.1 1.8-1.3-.3-.2-.1-.8-.2-1.3-.5-1.4-.4-2-.4h-1.5q-.5.1-1.4.9l-.5.4 4.6 5.4zm-6.9-13-.5.5 3.3 4 .7-.6q1.3-1.1 1.6-1.8.399-.7.3-1.4a3.55 3.55 0 0 0-.7-1.3 2.4 2.4 0 0 0-1.2-.8 2.5 2.5 0 0 0-1.4 0q-.8.4-2 1.5zm21.5-6-5.8 5q1 1 2.3 1.1 1.4.1 2.5-.9 1.599-1.3 2.1-3.5l1.4 1.6q-.3 1.2-1 2-.501.8-1.5 1.7-1.3 1.1-2.6 1.3a6.2 6.2 0 0 1-2.7-.4q-1.3-.5-2.3-1.8-1.6-1.9-1.5-4 0-2 1.7-3.5 1.7-1.4 3.6-1 2 .3 3.6 2.2zm-6.6 3.9 4.1-3.5q-.9-1-1.8-1-1-.1-1.9.6-.8.8-1 1.8 0 1 .6 2.1m15.1 2.9-10.5-12.4 2.9-2.4q2.2-1.9 4.3-1.8 2.2 0 3.8 2 1.6 1.9 1.4 4-.1 2.2-1.9 3.7-.8.7-2 1.1l3.7 4.4zm-6.4-13.3-1.1 1 4.2 5a4.5 4.5 0 0 0 2-.9q1.1-1 1.2-2.3 0-1.4-1-2.7-.7-.8-1.6-1.1-.8-.4-1.7-.1-.8.2-2 1.1m1.7-11.2 1.6-1.4 10.5 12.5-1.6 1.4zm5.5-3.3q.4-.4 1-.3.5 0 .8.4t.3 1q0 .5-.5.8-.3.3-.9.3-.5 0-.8-.5-.3-.3-.3-.9 0-.5.4-.8m2.1 4.1 1.7-1.3 6.9 8.2-1.6 1.4zm15.5-2.2 1.4 1.6q-.9 1.5-2 2.5-2 1.6-4.1 1.5-2.1-.2-3.7-2.2-1.7-1.9-1.6-4 .2-2.2 2-3.7l1.2-.8q.6-.4 1.7-.6l1.4 1.7q-1.9.2-3 1.1-1 1-1 2.3-.1 1.4.9 2.6.999 1.3 2.4 1.4 1.4 0 2.7-1 1-.8 1.7-2.4m4.5-8.9 3 3.5q.3.4.6.2.3-.3.6-1.2l.8 1-.5 1.2q-.201.4-.6.7-1 .9-2 .2-.3 1.7-1.5 2.7-.8.7-1.9.6-1 0-1.8-1-.6-.7-.6-1.8 0-1 .8-2.3l1.5-2.5-.4-.4q-1.2-1.5-2.7-.3-1.3 1.2-1.5 3.6l-1.5-1.8q0-1.9 1.8-3.4 1.4-1.1 2.8-1l1 .1.9.5zm1.2 4.7-2-2.5-.8 1.3q-.6 1-.6 1.7 0 .6.3 1.1.5.5 1 .6.699 0 1.2-.4.8-.6.9-1.8m-1.3-8 .5-5.6 1.4 1.7 2.6-2.2 1.3 1.5-2.6 2.2 3.4 4q1.2 1.5 2.3.5 1-.8 1.4-2.2l1.3 1.6a5.23 5.23 0 0 1-1.6 2.2q-1.2 1-2.5 1-.4 0-.7-.2l-.8-.4q-.5-.3-1.4-1.5l-3-3.6-1.5 1.2zm4.1-11.6q.4-.3 1-.3.4 0 .8.4.3.4.3 1 0 .5-.5.8-.4.3-.9.3-.501 0-.9-.4-.3-.4-.2-1 0-.5.4-.8m2 4.2 1.7-1.4 7 8.2-1.7 1.4zm8-6.7q1.899-1.6 4.2-1.4 2.2.1 3.8 2 1.5 1.8 1.2 4t-2.2 3.9q-1.8 1.5-4.1 1.4-2.3-.2-3.8-2t-1.2-4q.2-2.3 2.1-4zm1.2 1.5q-1.2 1-1.3 2.4t.9 2.6q.999 1.2 2.4 1.3t2.6-1q1.2-1 1.3-2.3.1-1.4-.8-2.6-1-1.2-2.5-1.3-1.4-.1-2.6 1zm6.6-8.1 1 1q0-2 1.4-3.2a3.16 3.16 0 0 1 1.8-.8 3.1 3.1 0 0 1 1.9.2q1 .4 2.2 2l4 4.7-1.7 1.3-4-4.7q-1-1.2-1.8-1.4-.9-.3-1.8.5-1.1 1-1 2.8l5 5.9-1.7 1.4-7-8.3z"/><path stroke="#2A86C0" stroke-width="8" d="m239.998 324.3-91.1 76.4"/><path fill="#2A86C0" stroke="#2A86C0" stroke-width="8" d="m144.199 395.2-10 17.8 19.3-6.8z"/><path stroke="#2A86C0" stroke-width="5" d="M250.199 147v70.7"/><path fill="#2A86C0" stroke="#2A86C0" stroke-width="5" d="m244.699 217.7 5.4 14.4 5.4-14.4z"/><path stroke="#484743" stroke-width="5" d="M370 147v70.7"/><path fill="#484743" stroke="#484743" stroke-width="5" d="m364.6 217.7 5.4 14.4 5.4-14.4z"/><path fill="#2A86C0" d="M410.1 243.6c0-1.2-2.9-2.2-6.5-2.2h-187c-3.6 0-6.5 1-6.5 2.2v60.7c0 1.2 3 2.1 6.5 2.1h187c3.6 0 6.5-.9 6.5-2z"/><path fill="#fff" d="M255.301 286v-24.6h7.8q3.5 0 5.6 1.9 2 1.9 2 5 0 2.2-1 3.8-1 1.7-3 2.5-1.8.7-5.3.7h-2.6v10.6h-3.5zm7.2-21.5h-3.7v7.7h3.9q2.1 0 3.3-1 1.1-.999 1.1-3 0-3.7-4.6-3.7m14.3 5.3v3.7l.2-.3q2.3-3.7 4.6-3.7 1.9 0 3.8 1.8l-1.7 2.8q-1.6-1.6-3-1.6-1.6 0-2.7 1.5-1.2 1.5-1.2 3.5v8.4h-3.2v-16.1zm12.5-6.8q.8 0 1.4.5.5.6.5 1.4 0 .7-.5 1.3-.6.6-1.4.6-.7 0-1.3-.6-.5-.6-.5-1.3 0-.8.5-1.3.6-.6 1.3-.6m-1.6 6.8h3.2v16.1h-3.2zm21.1 4.4V286h-3.2v-9q0-2.6-.7-3.7-.8-1-2.5-1-1 0-1.9.4-.8.4-1.9 1.6V286h-3.2v-16.1h3.2v2.1q2.499-2.4 4.8-2.4 3 0 4.8 2.9 2.5-3 5.3-3 2.4 0 3.9 1.7 1.5 1.8 1.5 5.3v9.5h-3.2v-9.5q0-2-.8-3.1-.801-1.1-2.4-1.1-2 0-3.7 2zm24.6 2v6.9q0 .8.6.8t1.8-.8v2l-1.8.9q-.6.2-1.3.2-2.1 0-2.5-1.6-2 1.6-4.3 1.6-1.7 0-2.8-1.1t-1.1-2.8q0-1.6 1-2.8 1.1-1.2 3.2-1.9l4-1.4v-.8q0-3-2.9-3-2.6 0-5 2.8v-3.5q1.8-2.2 5.3-2.2 2.6 0 4.2 1.3l1 1.2q.4.7.5 1.5zm-3.1 6.5V278l-2.2.9q-1.6.6-2.3 1.3-.7.6-.7 1.6t.7 1.7q.6.6 1.6.6 1.6 0 2.9-1.3zm11.7-12.9v3.7l.3-.3q2.3-3.7 4.6-3.7 1.8 0 3.8 1.8l-1.7 2.7q-1.7-1.6-3.1-1.6-1.6 0-2.7 1.5t-1.1 3.5v8.4h-3.2v-16.1h3.2zm21.9 0h3.6l-11.5 24.4h-3.5l5.5-11.7-6.3-12.7h3.6l4.4 9.1z"/><path fill="#2A86C0" d="m390.199 321.8 10.5-12.6 3.1 2.7q2 1.6 2.3 3.4.3 2-1 3.5-1 1.101-2.2 1.5-1.2.3-2.6-.2.3 1 .3 2 0 1.3-.4 3.8l-.3 2.5v1.5l-2.2-1.8.1-1.3v-.2l.1-.8.2-1.4.3-1.5v-2q-.099-1-.3-1.4-.2-.6-1-1.3l-.6-.4-4.5 5.5zm11.5-9.1-.5-.4-3.3 4 .7.5q1.3 1.1 2 1.3.7.201 1.4 0 .7-.3 1.2-.9.501-.5.6-1.3 0-.7-.3-1.4-.399-.699-1.8-1.8m9.7 20.1-5.8-4.9q-1 1.3-.8 2.6t1.3 2.3q1.6 1.3 3.8 1.4l-1.3 1.6q-1.2 0-2.1-.5-1-.399-2-1.2-1.3-1.2-1.7-2.5-.3-1.2 0-2.6t1.3-2.6q1.6-2 3.7-2.2 2-.3 3.7 1.1t1.7 3.4q0 2.001-1.6 3.9zm-5-5.8 4.2 3.5q.8-1 .7-2 0-1-1-1.7-.8-.8-1.9-.7-1 0-2 .9m-.2 15.4 10.4-12.5 2.9 2.4q2.2 1.9 2.5 4t-1.3 4q-1.6 2.001-3.8 2.1-2.1.3-3.9-1.2-.8-.699-1.4-1.8l-3.8 4.4zm12-8.6-1.2-1-4.2 5.1a4.4 4.4 0 0 0 1.2 1.7q1.2 1 2.6.8t2.4-1.4a3.83 3.83 0 0 0 .9-1.8q.2-.9-.2-1.6-.399-.8-1.5-1.8m11.4-.3 1.6 1.3-10.5 12.6-1.7-1.4zm4.2 4.9q.4.3.4.8t-.3 1q-.3.3-.8.4-.6 0-1-.3-.3-.3-.4-.9 0-.5.3-.9t.8-.4q.6 0 1 .3m-3.8 2.6 1.7 1.4-7 8.3-1.6-1.4 7-8.3zm4.9 15-1.4 1.6q-1.599-.5-2.7-1.5-2-1.7-2.2-3.8-.2-2 1.5-4 1.6-2 3.7-2.2 2.1-.3 4 1.3l1 1 .9 1.6-1.5 1.7q-.6-1.8-1.6-2.7-1.1-1-2.5-.8-1.3.2-2.3 1.4-1.1 1.3-1 2.7.201 1.4 1.5 2.5 1 .7 2.6 1.2m9.6 2.9-3 3.5q-.3.4 0 .7.3.201 1.3.3l-.9 1-1.3-.3-.8-.4q-1-1-.5-1.9-1.8 0-3-1-.8-.8-.9-1.8 0-1 .6-2 .7-.699 1.8-.9 1-.1 2.4.4l2.7 1 .3-.4q1.3-1.5-.2-2.7-1.3-1.2-3.8-.8l1.5-1.8q2-.3 3.7 1.2 1.4 1 1.6 2.5v1l-.4 1zm-4.4 2 2-2.5-1.4-.5q-1.1-.3-1.8-.3-.6 0-1 .6-.4.5-.4 1 0 .7.6 1.1.8.7 2 .6m7.6-2.7 5.6-.5-1.5 1.7 2.6 2.2-1.2 1.5-2.6-2.2-3.4 4q-1.2 1.5 0 2.5.9.7 2.3 1l-1.2 1.5q-1.4-.3-2.5-1.2-1.2-1-1.4-2.3v-.7q0-.399.3-.9l1.2-1.6 3-3.7-1.4-1.2zm12.1 2q.4.4.5.9 0 .5-.3 1-.3.3-.9.4-.5 0-.9-.3-.4-.399-.4-.9 0-.5.3-1 .3-.3.8-.3l1 .2zm-3.7 2.8 1.6 1.4-6.9 8.3-1.6-1.4zm7.9 6.7q2 1.6 2.2 3.8.2 2.3-1.4 4.1-1.5 1.8-3.7 2-2.3 0-4.2-1.6-1.8-1.5-2-3.8-.3-2.2 1.2-4t3.8-2q2.2-.099 4.2 1.5zm-1.3 1.4q-1.1-.999-2.6-.9-1.4.2-2.4 1.4-1 1.1-.8 2.5.1 1.4 1.3 2.5 1.2 1 2.6.8 1.5 0 2.5-1.3 1-1.1.8-2.6-.2-1.4-1.4-2.4m9.1 5.1-.8 1q2-.2 3.5 1 .7.6 1 1.6a3.45 3.45 0 0 1 .2 2q-.3.9-1.5 2.4l-4 4.7-1.6-1.3 4-4.7q1-1.3 1-2.2.1-.8-.8-1.6-1.2-1-3-.5l-4.9 5.9-1.7-1.4 7-8.3z"/><path stroke="#2A86C0" stroke-width="8" d="m380.199 324 91 76.4"/><path fill="#2A86C0" stroke="#2A86C0" stroke-width="8" d="m466.6 405.9 19.4 6.8-10.1-17.8z"/><path fill="#5CA831" d="M220.199 434c0-1.2-2.9-2.1-6.5-2.1h-187c-3.6 0-6.5.9-6.5 2v60.8c0 1.2 3 2.2 6.5 2.2h187c3.6 0 6.5-1 6.5-2.2z"/><path fill="#FFFFFE" d="m53 466.3-2.7-1.6q-2.601-1.599-3.6-3-1-1.5-1-3.5 0-2.9 2-4.7t5.2-1.8q3 0 5.6 1.7v4Q56 455 52.8 455q-1.7 0-2.8.8t-1.1 2q0 1.101.8 2.1t2.6 2l2.7 1.6q4.5 2.7 4.5 6.8 0 3-2 4.8-2.001 1.9-5.1 1.9-3.7 0-6.7-2.3v-4.4q2.9 3.6 6.6 3.6 1.7 0 2.8-1 1-.9 1-2.3 0-2.199-3.2-4.2zm23.7 2.5H65.3q.2 2.3 1.6 3.7t3.7 1.4q3.2 0 5.8-2v3.1q-1.4 1-2.9 1.4-1.4.4-3.4.4-2.7 0-4.3-1a8.95 8.95 0 0 1-2.7-3q-1-2-1-4.4 0-3.699 2.1-6 2.1-2.3 5.5-2.3 3.199 0 5.1 2.3 2 2.2 2 6v.4zm-11.3-2h8.2q-.201-1.8-1.2-2.9-1.001-1-2.7-1-1.8 0-2.9 1-1 1-1.4 3zm26.9 6v3.2q-2.401.9-4.7.9-3.801 0-6-2.3-2.3-2.199-2.3-6 0-3.8 2.2-6.2 2.199-2.3 5.7-2.3 1.3 0 2.3.3.999.2 2.4.8v3.4q-2.4-1.5-4.5-1.5t-3.5 1.5-1.4 3.9q0 2.5 1.5 4 1.5 1.4 4 1.4 1.9 0 4.3-1zm11.299-12.4q3.7 0 6.2 2.4 2.4 2.4 2.4 6 0 3.5-2.5 5.8-2.4 2.3-6.2 2.3-3.6 0-6-2.4-2.5-2.3-2.5-5.8 0-3.6 2.4-6 2.5-2.3 6.2-2.3m-.1 2.9q-2.3 0-3.8 1.5t-1.5 3.8q0 2.4 1.5 3.8 1.5 1.5 4 1.5 2.3 0 3.8-1.5t1.5-3.8-1.6-3.8-4-1.5zm15.5-2.9v2q2.001-2.3 4.8-2.3 1.5 0 2.8.8a5.5 5.5 0 0 1 2 2.1q.7 1.4.7 4.3v9.3h-3.3v-9.2q0-2.5-.8-3.5-.7-1.1-2.5-1.1-2.3 0-3.9 2.2v11.6h-3.2v-16.2h3.4m25.5-8.4h3.2v24.6h-6.7q-3.6 0-5.7-2.3-2.1-2.199-2.1-6 0-3.6 2.2-6 2.2-2.2 5.7-2.2 1.6 0 3.5.7V452zm0 21.9v-10.3q-1.5-.8-3-.8-2.4 0-3.8 1.6t-1.4 4.2q0 2.5 1.2 3.9.8.8 1.6 1 .801.4 3 .4zm17.8-7v6.8q0 .9.5.9.6 0 1.8-.9v2l-1.7 1-1.4.2q-2 0-2.4-1.6-2 1.5-4.4 1.5-1.7 0-2.8-1-1.1-1.2-1.1-2.9 0-1.5 1-2.7 1.2-1.2 3.2-2l4.1-1.3v-.9q0-2.9-3-2.9-2.5 0-5 2.7v-3.5q1.9-2.2 5.4-2.2 2.601 0 4.2 1.4.501.4.9 1.2.4.7.5 1.4.2.7.2 2.8m-3.2 6.5v-4.8l-2.1.8q-1.7.7-2.4 1.3-.6.7-.6 1.7t.6 1.6q.7.6 1.7.6 1.5 0 2.8-1.2m11.9-13v3.7-.2q2.4-3.8 4.7-3.8 1.8 0 3.8 1.8l-1.7 2.8q-1.599-1.5-3-1.5-1.6 0-2.8 1.4-1 1.5-1 3.5v8.5h-3.3v-16.2h3.3m21.7 0h3.6l-11.3 24.4h-3.6l5.5-11.7-6.2-12.7h3.6l4.3 9.1 4.2-9z"/><path fill="#5CA831" d="M599.801 434c0-1.2-3-2.1-6.5-2.1h-187c-3.6 0-6.5.9-6.5 2v60.8c0 1.2 2.9 2.2 6.5 2.2h187c3.6 0 6.5-1 6.5-2.2z"/><path fill="#FFFFFE" d="m432.499 466.3-2.7-1.6q-2.499-1.599-3.6-3-1-1.5-1-3.5 0-2.9 2-4.7t5.2-1.8q3 0 5.6 1.7v4q-2.6-2.5-5.7-2.5-1.7 0-2.8.8t-1.1 2q0 1.101.8 2.1t2.6 2l2.7 1.6q4.5 2.7 4.5 6.8 0 3-2 4.8-2 1.9-5.1 1.9-3.6 0-6.6-2.3v-4.4q2.8 3.6 6.6 3.6 1.6 0 2.7-1 1.1-.9 1.1-2.3 0-2.199-3.2-4.2m23.8 2.5h-11.4q.1 2.3 1.5 3.7 1.5 1.4 3.7 1.4 3.2 0 5.9-2v3.1q-1.5 1-3 1.4-1.4.4-3.4.4-2.6 0-4.3-1a9.4 9.4 0 0 1-2.6-3q-1-2-1-4.4 0-3.699 2-6 2.2-2.3 5.5-2.3 3.201 0 5.1 2.3 2 2.2 2 6zm-11.3-2h8q0-1.8-1-2.9-1-1-2.8-1-1.7 0-2.8 1t-1.4 3zm26.8 6v3.2q-2.4.9-4.7.9-3.8 0-6-2.3-2.3-2.199-2.3-6 0-3.8 2.2-6.2 2.2-2.3 5.8-2.3 1.2 0 2.2.3 1 .2 2.5.8v3.4q-2.4-1.5-4.5-1.5-2.199 0-3.6 1.5-1.4 1.5-1.4 3.9 0 2.5 1.5 4 1.5 1.4 4 1.4 2 0 4.3-1zm11.4-12.4q3.7 0 6.1 2.4 2.5 2.4 2.5 6 0 3.5-2.5 5.8t-6.3 2.3q-3.6 0-6-2.4-2.5-2.3-2.5-5.8 0-3.6 2.5-6 2.5-2.3 6.2-2.3m-.2 2.9q-2.3 0-3.8 1.5-1.4 1.5-1.4 3.8 0 2.4 1.5 3.8 1.5 1.5 3.8 1.5 2.4 0 3.9-1.5t1.5-3.8-1.6-3.8q-1.5-1.5-3.9-1.5m15.5-2.9v2q2.1-2.3 4.8-2.3 1.6 0 2.9.8a5.5 5.5 0 0 1 2 2.1q.6 1.4.6 4.3v9.3h-3.2v-9.2q0-2.5-.7-3.5-.8-1.1-2.6-1.1-2.2 0-3.8 2.2v11.6h-3.3v-16.2zm25.5-8.4h3.3v24.6h-6.9q-3.5 0-5.7-2.3-2.1-2.199-2.1-6 0-3.6 2.2-6 2.3-2.2 5.8-2.2 1.6 0 3.5.7V452zm0 21.9v-10.3a5.95 5.95 0 0 0-3-.8q-2.3 0-3.8 1.6-1.4 1.6-1.4 4.2 0 2.5 1.3 3.9.7.8 1.5 1 .801.4 3 .4h2.5zm17.8-7v6.8q0 .9.6.9.501 0 1.8-.9v2l-1.8 1q-.6.2-1.4.2-2 0-2.4-1.6-2 1.5-4.3 1.5-1.7 0-2.8-1-1.2-1.2-1.2-2.9 0-1.5 1.1-2.7t3.1-2l4.1-1.3v-.9q0-2.9-2.9-2.9-2.6 0-5 2.7v-3.5q1.8-2.2 5.3-2.2 2.601 0 4.2 1.4.5.4 1 1.2.4.7.5 1.4v2.8zm-3.2 6.5v-4.8l-2.1.8q-1.6.7-2.3 1.3a2.32 2.32 0 0 0-.7 1.7q0 1 .6 1.6.7.6 1.7.6 1.5 0 2.8-1.2m11.9-13v3.7l.1-.2q2.4-3.8 4.7-3.8 1.8 0 3.8 1.8l-1.7 2.8q-1.7-1.5-3.1-1.5-1.599 0-2.7 1.4-1.1 1.5-1.1 3.5v8.5h-3.3v-16.2zm21.8 0h3.6l-11.5 24.4h-3.6l5.5-11.7-6.2-12.7h3.6l4.4 9.1 4.2-9z"/></svg>