<?xml version="1.0" encoding="UTF-8"?>
<!DOCTYPE svg PUBLIC "-//W3C//DTD SVG 1.1//EN" "http://www.w3.org/Graphics/SVG/1.1/DTD/svg11.dtd">
<svg version="1.1" xmlns="http://www.w3.org/2000/svg" xmlns:xlink="http://www.w3.org/1999/xlink" x="0" y="0" width="640" height="100" viewBox="0, 0, 640, 100">
  <g id="Layer_1">
    <g>
      <text transform="matrix(1, 0, 0, 1, 71.5, 17.5)">
        <tspan x="-66.5" y="7.5" font-family="Inconsolata" font-size="24" fill="#06345E">DELETE FROM</tspan>
      </text>
      <text transform="matrix(1, 0, 0, 1, 176.5, 17.5)">
        <tspan x="-30.5" y="7.5" font-family="Inconsolata" font-size="24" fill="#2A86C0">users </tspan>
      </text>
      <text transform="matrix(1, 0, 0, 1, 35.5, 47.5)">
        <tspan x="-30.5" y="7.5" font-family="Inconsolata" font-size="24" fill="#053056">WHERE</tspan>
      </text>
      <text transform="matrix(1, 0, 0, 1, 248.5, 47.5)">
        <tspan x="-102.5" y="7.5" font-family="Inconsolata" font-size="24" fill="#2A86C0">status = 'reject'</tspan>
      </text>
      <text transform="matrix(1, 0, 0, 1, 35.5, 77.5)">
        <tspan x="-30.5" y="7.5" font-family="Inconsolata" font-size="24" fill="#053056">LIMIT</tspan>
      </text>
      <text transform="matrix(1, 0, 0, 1, 152.5, 77.5)">
        <tspan x="-6.5" y="7.5" font-family="Inconsolata" font-size="24" fill="#2A86C0">1</tspan>
      </text>
    </g>
    <g>
      <g>
        <path d="M475,20 L358,19.8" fill-opacity="0" stroke="#5CA831" stroke-width="2"/>
        <g>
          <path d="M367,12.5 L357,19.908 L366.965,27.5 z" fill="#5CA831"/>
          <path d="M367,12.5 L357,19.908 L366.965,27.5 z" fill-opacity="0" stroke="#5CA831" stroke-width="2"/>
        </g>
      </g>
      <text transform="matrix(1, 0, 0, 1, 509, 17.129)">
        <tspan x="-23.996" y="7.5" font-family="GillSans" font-size="24" fill="#2A86C0">table</tspan>
      </text>
    </g>
    <g>
      <text transform="matrix(1, 0, 0, 1, 541.953, 47.893)">
        <tspan x="-56.949" y="7.5" font-family="GillSans" font-size="24" fill="#2A86C0">delete filter</tspan>
      </text>
      <g>
        <path d="M473.5,49.75 L356.5,49.55" fill-opacity="0" stroke="#5CA831" stroke-width="2"/>
        <g>
          <path d="M367.5,42.25 L357.5,49.658 L367.465,57.25 z" fill="#5CA831"/>
          <path d="M367.5,42.25 L357.5,49.658 L367.465,57.25 z" fill-opacity="0" stroke="#5CA831" stroke-width="2"/>
        </g>
      </g>
    </g>
    <g>
      <g>
        <path d="M473.5,79.5 L356.5,79.3" fill-opacity="0" stroke="#5CA831" stroke-width="2"/>
        <g>
          <path d="M367.5,72 L357.5,79.408 L367.465,87 z" fill="#5CA831"/>
          <path d="M367.5,72 L357.5,79.408 L367.465,87 z" fill-opacity="0" stroke="#5CA831" stroke-width="2"/>
        </g>
      </g>
      <text transform="matrix(1, 0, 0, 1, 539.963, 77.5)">
        <tspan x="-54.963" y="7.5" font-family="GillSans" font-size="24" fill="#2A86C0">delete limit</tspan>
      </text>
    </g>
  </g>
</svg>
