<svg xmlns="http://www.w3.org/2000/svg" height="260" width="910"><path d="M32.4 183.6h660v19.7h-660z" fill="#1f66af"/><path d="M33 179.8V217m129-37.2V217m115.2-37.2V217m165.2-37.2V217m188.4-37.2V217m62.1-37.2V217" stroke="#b0c8db" stroke-dasharray="2,2" fill="none"/><path d="M20.5 235.6V226h1.3v1q.4-.6.9-1 .5-.3 1.1-.3.6 0 1 .4.6.4.7 1 .3-.6.9-1 .5-.4 1.2-.4 1 0 1.5.7.4.7.4 1.8v7.4h-1.4v-7.8q-.1-.5-.3-.6l-.2-.3h-.4l-.6.2-.5.5-.3.8-.1.8v6.4h-1.4v-6.7q0-1.2-.3-1.6-.2-.4-.7-.4-.5 0-1 .6t-.5 1.7v6.4h-1.3zm11.9-9.6h3.8v8.3h2.3v1.3h-6.2v-1.3h2.4v-7.1h-2.3V226zm2.3-3.9q.3-.3.8-.3.4 0 .7.3.4.3.4.8 0 .4-.4.7-.3.3-.7.3-.5 0-.8-.3-.3-.3-.3-.7 0-.5.3-.8zm7.3 13.5V226h1.6v1.7q.6-1 1.4-1.4.9-.6 1.8-.6.6 0 1.1.3.6.2 1 .7.4.4.6 1.2.2.7.2 1.8v5.9h-1.5v-5.8q0-1.5-.5-2.1-.5-.6-1.2-.6l-1 .2-1 .6-.6.9q-.3.5-.3 1.2v5.6h-1.5zm114.2-13.1l.2 13.2H155l-.2-11.3-2.7.8-.3-.8 3.4-1.8h1zm13.1 2.8q0 1-.6 1.8-.5.8-1.5 1.4 1.2.5 1.9 1.4.7 1 .7 2.1 0 .8-.3 1.5-.3.6-.8 1.1-.5.5-1.3.8-.7.3-1.5.3-.9 0-1.6-.3-.7-.2-1.3-.7-.5-.4-.9-1-.3-.7-.3-1.4 0-1.2.7-2.2.7-1 1.9-1.5-1-.5-1.5-1.3-.6-.8-.6-1.8 0-.6.3-1.2.2-.6.7-1 .5-.5 1.1-.8.6-.3 1.4-.3.7 0 1.4.3.6.2 1 .6.5.4.8 1l.3 1.2zm-3.8 3.8q-1 .4-1.6 1.2-.6.8-.6 1.8 0 .5.2.9l.6.7.8.5 1 .2 1-.2.7-.5q.4-.3.6-.7l.1-1q0-1-.8-1.7-.7-.8-2-1.2zm-1.4-2.6l.7.7 1 .6.3.2q.8-.5 1.3-1.2.4-.7.4-1.5l-.1-.7-.5-.6-.7-.4-.8-.1-.8.2q-.4.1-.6.4-.3.2-.4.6-.2.3-.2.7 0 .6.4 1.1zm110.6-.7q0 .9-.5 1.7-.5.8-1.4 1 1 .4 1.6 1.4.6.9.6 2 0 .8-.3 1.5-.2.7-.8 1.3-.5.5-1.3.8-.8.3-1.8.3-1.9 0-3.2-1.5l1-1.3.2.3.1.3.3.3.7.3 1 .2q.6 0 1.1-.2l.9-.5.5-.9.2-1q0-1.2-.8-1.8-.9-.7-2.3-.7h-.6v-1.1q1 0 1.6-.2.7-.2 1-.6.5-.3.6-.7l.2-1-.1-.7-.5-.7-.7-.4q-.4-.2-1-.2-1.3 0-2.2 1l-.8-.9q1.3-1.4 3.1-1.4.8 0 1.4.3l1.2.7q.5.5.7 1 .3.7.3 1.4zm10-1.7q.6.9 1 2.2.4 1.3.4 3 0 1.6-.4 2.8-.4 1.3-1 2-.6.9-1.3 1.3-.8.4-1.6.4t-1.5-.5q-.8-.5-1.4-1.3-.6-1-1-2.1-.2-1.3-.2-2.8 0-1.5.3-2.7.3-1.2 1-2.1.5-1 1.3-1.4.7-.5 1.5-.5 1.7 0 3 1.7zm-.8 1.3q-.4-.9-1-1.3-.5-.4-1-.4-.6 0-1.1.4-.5.3-.9 1l-.7 1.6q-.2 1-.2 2.2 0 1.3.3 2.4l4.6-6zm.5 1.4l-4.6 5.9q.5 1 1 1.3.6.4 1.2.4.5 0 1-.3t.9-1l.6-1.6q.2-1 .2-2.1V228l-.3-1.2zm152.7-4.3h1.3v8.1h1.7v1.3h-1.7v3.7h-1.6v-3.7h-5.2v-1l5.5-8.4zm-.2 2.3l-3.9 5.8h3.9v-5.8zm6.4-2.3h6.6v1.3h-5.4l-.2 3.8q1-.5 2.2-.5.8 0 1.5.3t1.3.8q.5.6.8 1.4.3.8.3 1.8t-.3 1.9q-.3.8-.9 1.3-.5.6-1.3.9-.7.3-1.6.3-1.2 0-2.2-.5-1-.6-1.7-1.5l1.3-1 .1.3v.2l.3.3.6.4.7.4 1 .1 1-.2q.4-.2.7-.6.4-.4.6-1 .2-.6.2-1.3 0-.8-.2-1.3-.2-.6-.6-1-.3-.4-.8-.6l-1-.2q-.7 0-1.4.3-.6.3-1.1 1l-1-.5.5-6.6zm185.4.8l-2.5 6q-1.1 3.1-2 6.3h-1.8l2.1-6 2.4-5.7h-5.6v-1.4h7.4v.8zm3.6-.8h6.7v1.3h-5.4l-.2 3.8q1-.5 2.1-.5.8 0 1.6.3.7.3 1.2.8.6.6.9 1.4.3.8.3 1.8t-.4 1.9q-.3.8-.8 1.3-.6.6-1.3.9-.8.3-1.7.3-1.2 0-2.2-.5-1-.6-1.6-1.5l1.3-1v.3l.1.2.3.3q.2.3.5.4l.8.4 1 .1.9-.2q.5-.2.8-.6l.6-1q.2-.6.2-1.3 0-.8-.2-1.3l-.6-1q-.4-.4-.9-.6l-1-.2q-.7 0-1.3.3-.7.3-1.2 1l-.9-.5.4-6.6zm42 12v-9.6h1.4v1q.3-.6.8-.9.6-.3 1.1-.3.7 0 1.1.4.5.4.6 1 .3-.6.9-1 .6-.4 1.3-.4 1 0 1.4.7.5.7.4 1.7v7.4H682v-6.8l-.1-1q0-.4-.2-.6l-.3-.2-.4-.1q-.3 0-.5.2-.3.2-.5.6l-.4.7v7.2H678v-6.7q0-1.2-.2-1.6-.2-.4-.8-.4-.5 0-1 .6-.4.6-.4 1.7v6.4h-1.4zm11.6-8.5q1.3-1.3 3.4-1.3 1.8 0 2.8.9 1 .9 1 3v5.9h-1.4v-1q-1.5 1.2-3.4 1.2-.8 0-1.4-.2-.6-.2-1-.6l-.7-.9q-.2-.4-.2-1 0-1.4 1.3-2.2 1.2-.9 3.6-1h1.8v-.3q0-1.4-.6-2-.6-.6-1.9-.6-1.5 0-2.6 1.1l-.7-1zm5.8 4h-1.4q-1.1 0-1.9.2-.7.1-1.1.4-.5.3-.6.6-.2.3-.2.7 0 .7.6 1.2t1.5.5q.6 0 1.1-.2l.9-.5.6-.6.3-.5q.2-.4.2-1.2v-.6zm10.3-5h1.6l-3 4.6 3.5 4.9h-1.8l-2.6-3.7-2.5 3.7h-1.7l3.4-4.9-3.4-4.7h1.7l2.5 3.6 2.4-3.6z" font-size="21" font-family="Inconsolata" fill="#cd5a2b"/><path d="M32.8 176h244v34.8h-244z" opacity=".5" fill="#2476c0"/><g font-size="24" font-family="Inconsolata"><path d="M15.2 74v-6.5h1.9l-.1.3-.2.4v14.2q0 .6.2 1h-1.7l-.1-.8v-1q-.6 1-1.5 1.6-.9.5-1.8.5-1 0-1.7-.4-.8-.3-1.5-1-.6-.8-1-1.9-.3-1-.3-2.6 0-1.5.4-2.5.4-1.1 1-1.8.8-.7 1.6-1 .8-.3 1.6-.3 1.2 0 2 .5t1.2 1.4zm-5 .4Q9 75.4 9 77.6q0 2 .8 3.3.8 1.3 2.3 1.3l.8-.2q.4 0 .8-.4l.6-.6q.3-.3.4-.8.3-.9.3-2.3v-1.5l-.3-1-.4-.8q-.2-.3-.6-.5l-.8-.4-.7-.1q-.7 0-1.2.2l-1 .6zm9.6-6.9h2l-.2.3v6.4q.5-1 1.3-1.5 1-.5 1.9-.5.9 0 1.7.4.8.3 1.5 1 .6.7 1 1.8.3 1 .3 2.4 0 1.5-.4 2.6t-1 1.9q-.7.7-1.5 1-.8.4-1.7.4-1 0-1.8-.5-.9-.4-1.4-1.2l-.6 1.4h-1.1v-16zm3 14.3l.8.3h.7l1-.1q.6-.2 1-.6.6-.5.9-1.3.3-.7.3-2 0-2.1-.9-3.3-.8-1.1-2.5-1.1-.6 0-1.3.4-.7.5-1 1.2-.3.7-.3 2.3v1.7l.3 1.2q.1.5.4.8l.6.5zm14.2-.4q.5.4.5 1 0 .5-.4.9-.5.4-1 .4-.7 0-1-.4-.5-.4-.5-1 0-.5.5-1 .4-.4 1-.4.5 0 1 .5zm6.8-8.9h1.8v6q0 1.1.2 1.9.2.7.5 1.1l.8.6q.4.2 1 .2.5 0 1-.3.6-.2 1-.6l.7-1.2q.2-.7.2-1.7v-6h1.8v10l.1 1h-1.8v-1.8q-.6.9-1.5 1.4-.9.5-2 .5-.8 0-1.5-.3-.6-.3-1.2-1-.5-.5-.8-1.5-.3-1-.3-2.3v-6.1zM64.7 74l-1 1.4-.1-.1V75l-1.3-1q-.8-.5-1.8-.5l-.9.1-.7.3-.5.5q-.2.3-.2.7l.1.5.5.5.8.4 1.5.5q2 .5 3 1.3.8.7.8 1.9 0 .7-.3 1.3-.3.7-1 1.1-.5.5-1.4.8-.8.3-1.9.3-2.7 0-4.6-1.7l1-1.8v.3l.3.3.5.5 1.2.6.8.3h1.9l.8-.4.7-.6q.2-.3.2-.7 0-.6-.6-1-.5-.5-2-1l-1.5-.4-1.2-.6q-.4-.2-.7-.6l-.5-.8q-.2-.4-.2-1 0-.5.3-1 .3-.6.9-1 .6-.4 1.3-.6.8-.3 1.7-.3 2.5 0 4.1 1.7zm7.9-1.8q.8 0 1.6.3t1.4 1q.7.6 1 1.6.4 1 .4 2.3v.8h-7.8q0 1.2.4 2 .3.7.8 1.2.6.5 1.2.7l1.3.2q1.7 0 2.8-1.2l1 .9q-1.4 1.7-3.8 1.7-1.2 0-2.2-.4-1-.4-1.7-1-.7-.8-1.1-1.9-.4-1-.4-2.4t.4-2.5q.4-1 1-1.8.8-.7 1.7-1.1.9-.4 2-.4zM69.2 77h6v-.4q0-.6-.2-1.1-.2-.6-.6-1-.3-.4-.9-.6-.5-.3-1-.3-1.2 0-2.1.8-1 .8-1.2 2.6zm11.5-4.5h1.8v2q.5-1 1.5-1.7 1.2-.6 2.4-.6 1.8 0 3 1.2l-.9 1.7-.4-.6-.5-.4-.6-.3-.7-.1q-.8 0-1.5.4-.7.3-1.2 1-.5.6-.8 1.4-.3.7-.3 1.6v5.4h-1.8v-11zm20 1.5l-1 1.4-.1-.1V75l-1.3-1q-.8-.5-1.8-.5l-.9.1-.7.3-.5.5q-.2.3-.2.7l.1.5.5.5.8.4 1.5.5q2 .5 3 1.3.8.7.8 1.9 0 .7-.3 1.3-.3.7-1 1.1-.5.5-1.4.8-.8.3-1.9.3-2.7 0-4.6-1.7l1-1.8v.3l.3.3.5.5 1.2.6.8.3h1.9l.8-.4.7-.6q.2-.3.2-.7 0-.6-.6-1-.5-.5-2-1l-1.5-.4-1.2-.6q-.4-.2-.7-.6l-.5-.8q-.2-.4-.2-1 0-.5.3-1 .3-.6.9-1 .6-.4 1.3-.6.8-.3 1.7-.3 2.5 0 4.1 1.7zm8.3 7.4q.5.4.5 1 0 .5-.4.9-.5.4-1 .4-.7 0-1-.4-.5-.4-.5-1 0-.5.5-1 .4-.4 1-.4.5 0 1 .5zm13.6-14.1q2 0 3.3 1.5l-.8 1.6q-.2 0-.2-.2V70q-.4-.6-1-1-.7-.3-1.4-.3-.6 0-1 .2-.5.2-.9.6-.4.4-.6 1l-.1 1.8v.8h3.6v1.4h-3.6v9h-1.7v-9h-2.4V73h2.4v-1q0-1.3.3-2.2.4-1 1-1.5t1.4-.8q.8-.3 1.7-.3zm6.3 5.2h4.4V82h2.5v1.4h-7V82h2.7v-8H129v-1.4zm2.7-4.4q.3-.4.8-.4t.9.4q.4.3.4.8t-.4 1q-.4.3-.9.3t-.8-.4q-.4-.4-.4-.9t.4-.8zm8.4 15.3v-11h1.7v2q.7-1 1.6-1.6 1-.6 2-.6.7 0 1.4.3.6.2 1 .8.5.5.7 1.4.3.8.3 2v6.7H147v-6.6q0-1.7-.6-2.4t-1.4-.7q-.6 0-1.1.3-.6.2-1.1.7-.5.4-.8 1-.3.6-.3 1.4v6.3H140zm19.2-9.4v-6.5h1.9l-.1.3-.2.4v14.2q0 .6.2 1h-1.7l-.1-.8v-1q-.6 1-1.5 1.6-.9.5-1.8.5-1 0-1.7-.4-.8-.3-1.5-1-.6-.8-1-1.9-.3-1-.3-2.6 0-1.5.4-2.5.4-1.1 1-1.8.8-.7 1.6-1 .8-.3 1.6-.3 1.2 0 2 .5t1.2 1.4zm-5 .4q-1.1 1-1.1 3.2 0 2 .8 3.3.8 1.3 2.3 1.3l.8-.2q.4 0 .8-.4l.6-.6q.3-.3.4-.8.3-.9.3-2.3v-1.5l-.3-1-.4-.8q-.2-.3-.6-.5l-.8-.4-.7-.1q-.7 0-1.2.2l-1 .6zm18.1-5.4h-.5q-2.1 1.3-3.3 3.4-1.2 2.2-1.2 4.9 0 1.3.4 2.7.3 1.3 1 2.5.7 1.1 1.7 2.1t2.1 1.7l-.7 1.3q-1.5-.8-2.6-1.9-1.1-1-2-2.4-.7-1.3-1.1-2.9-.4-1.5-.4-3.2 0-1.6.4-3 .4-1.6 1.2-2.9.8-1.3 1.9-2.2 1.1-1 2.5-1.6l.8 1.4h-.2zm17.9 14v-2.3q0-1.6-.5-2.2-.6-.5-1.6-.5h-.5v-1.4h.5q1 0 1.6-.6.6-.6.6-2v-1.7q0-4.1 4.3-4.1h1.5v1.3h-2q-2.2 0-2.2 2.6v1.6q0 2.7-2 3.6 2 .7 2 3.7v2q0 1.7.7 2.3.7.6 2.3.6h1.2v1.4h-.9l-2-.1q-1-.1-1.7-.7-1.3-1-1.3-3.4zm30.5-9l-1 1.4-.1-.1V75l-1.3-1q-.8-.5-1.8-.5l-.9.1-.7.3-.5.5q-.2.3-.2.7l.1.5.5.5.8.4 1.5.5q2 .5 3 1.3.8.7.8 1.9 0 .7-.3 1.3-.3.7-1 1.1-.5.5-1.4.8-.8.3-1.9.3-2.7 0-4.6-1.7l1-1.8v.3l.3.3.5.5 1.2.6.8.3h1.9l.8-.4.7-.6q.2-.3.2-.7 0-.6-.6-1-.5-.5-2-1l-1.5-.4-1.2-.6q-.4-.2-.7-.6l-.5-.8q-.2-.4-.2-1 0-.5.3-1 .3-.6.9-1 .6-.4 1.3-.6.8-.3 1.7-.3 2.5 0 4.1 1.7zm12.6.3l-1.2 1.4-.1-.1v-.3l-.2-.3-.6-.6q-.8-.7-2.2-.7-.7 0-1.4.3-.6.3-1 .8-.6.6-.9 1.3-.2.8-.2 1.7 0 1 .2 1.8.3.7.8 1.3.5.6 1.2 1 .7.2 1.6.2 1.6 0 2.8-1.3l1 1.2q-1.6 1.7-4 1.7-1.1 0-2.2-.4-1-.5-1.7-1.2-.7-.8-1.1-1.8-.4-1-.4-2.3 0-1.3.4-2.3.4-1 1.1-1.8.8-.8 1.8-1.2 1-.4 2.2-.4 1.3 0 2.4.5 1 .5 1.7 1.5zm7.1-2.1q1 0 2 .4.8.4 1.5 1.2.7.7 1 1.8.5 1 .5 2.4 0 1.3-.4 2.4-.4 1-1 1.8-.7.7-1.6 1.1-1 .4-2 .4t-2-.4q-.9-.4-1.6-1.2-.7-.7-1.1-1.8-.4-1-.4-2.3 0-1.2.4-2.3.4-1 1.1-1.8.8-.8 1.7-1.2 1-.5 2-.5zm3.2 5.8q0-1-.2-1.8-.3-.8-.8-1.4-.4-.5-1-.8-.6-.3-1.2-.3-.7 0-1.3.3-.6.3-1 .8-.5.6-.7 1.4-.3.7-.3 1.7t.3 1.8q.2.8.7 1.3.4.6 1 1 .6.2 1.3.2.7 0 1.3-.2.6-.3 1-.8l.7-1.4q.2-.8.2-1.8zm5.1-5.5h1.8v2q.5-1 1.5-1.7 1.2-.6 2.4-.6 1.8 0 3 1.2l-.9 1.7-.4-.6-.5-.4-.6-.3-.7-.1q-.8 0-1.5.4-.7.3-1.2 1-.5.6-.8 1.4-.3.7-.3 1.6v5.4h-1.8v-11zm15.9-.3q.8 0 1.6.3t1.4 1q.7.6 1 1.6.4 1 .4 2.3v.8h-7.8q0 1.2.4 2 .3.7.8 1.2.6.5 1.2.7l1.3.2q1.7 0 2.8-1.2l1 .9q-1.4 1.7-3.8 1.7-1.2 0-2.2-.4-1-.4-1.7-1-.7-.8-1.1-1.9-.4-1-.4-2.4t.4-2.5q.4-1 1-1.8.8-.7 1.7-1.1.9-.4 2-.4zm-3.4 4.7h6v-.4q0-.6-.2-1.1-.2-.6-.6-1-.3-.4-.9-.6-.5-.3-1-.3-1.2 0-2.1.8-1 .8-1.2 2.6zm15.8-3.2q.5.4.5 1 0 .5-.4 1-.5.3-1 .3-.6 0-1-.4-.5-.4-.5-1 0-.5.5-.9.4-.4 1-.4.5 0 1 .4zm0 7.7q.5.4.5 1 0 .5-.4.9-.5.4-1 .4-.7 0-1-.4-.5-.4-.5-1 0-.5.5-1 .4-.4 1-.4.5 0 1 .5zm21.2 1.6v-2.3q0-1.6-.5-2.2-.6-.5-1.6-.5h-.5v-1.4h.5q1 0 1.6-.6.6-.6.6-2v-1.7q0-4.1 4.3-4.1h1.5v1.3h-2q-2.2 0-2.2 2.6v1.6q0 2.7-2 3.6 2 .7 2 3.7v2q0 1.7.7 2.3.7.6 2.3.6h1.2v1.4h-.9l-2-.1q-1-.1-1.7-.7-1.3-1-1.3-3.4zm27.7-12.7l-.1-1.5q0-.7.3-1 .3-.3.7-.3.4 0 .7.3.4.4.4 1.2 0 .7-.9 3l-.5 1.6-1.3-.4.5-1.6.2-1.3zm-4.1 0l-.2-1.5q0-.7.3-1 .3-.3.7-.3.4 0 .8.3.3.4.3 1.2 0 .8-.8 3l-.6 1.6-1.3-.4.5-1.6.2-.7v-.6zm14.2-2.5h1.5v.3l-.1.2v1q2.2.2 3.5 1.8l-1 1.3-.1-.2q0-.2-.2-.3-.8-1-2.2-1.3v4.7q1 .3 1.7.7.8.3 1.3.8.5.4.7 1 .3.6.3 1.3 0 .7-.3 1.3-.3.7-.8 1.2-.5.6-1.3 1l-1.6.5v1.5H336V83q-2.6-.2-4.2-2l1-1.4.1.3v.2q1.3 1.3 3 1.5v-5.3q-1.8-.6-2.7-1.5-1-.8-1-2.2 0-.6.3-1.2t.8-1q.5-.5 1.1-.8.7-.3 1.6-.4v-1.5zm1.4 9v4.9q1.1-.3 1.8-1 .6-.7.6-1.5 0-.9-.6-1.4-.5-.5-1.8-1zm-1.4-2v-4.2q-1.1.1-1.7.7-.5.5-.5 1.2 0 1.4 2.2 2.3zm8.4-7.3h4.8V82h3.2v1.4h-8.2V82h3.3V69h-3.1v-1.4zm14.4 2l2-.3-.1.4-.1.3-.3 2.6h3.6v1.4h-3.6l-.2 4v2q0 .7.3 1.2.2.4.6.7.4.2 1 .2 1.1 0 2.5-1l.5 1.4q-1.7 1.3-3.4 1.3t-2.5-1q-.8-1.1-.8-3.5V77l.3-3.1H356v-1.4h2.7l.1-3zm15.1.8l-.1-1.5q0-.7.3-1 .3-.3.7-.3.4 0 .7.3.4.4.4 1.2 0 .7-.9 3l-.5 1.6-1.3-.4.5-1.6.2-1.3zm-4.1 0l-.2-1.5q0-.7.3-1 .3-.3.7-.3.4 0 .8.3.3.4.3 1.2 0 .8-.8 3l-.6 1.6-1.3-.4.5-1.6.2-.7v-.6zm15.2 3.4q.5.4.5 1 0 .5-.4 1-.5.3-1 .3-.6 0-1-.4-.5-.4-.5-1 0-.5.5-.9.4-.4 1-.4.5 0 1 .4zm0 7.7q.5.4.5 1 0 .5-.4.9-.5.4-1 .4-.7 0-1-.4-.5-.4-.5-1 0-.5.5-1 .4-.4 1-.4.5 0 1 .5z" fill="#133a80"/><path d="M412.2 72.2q0 1.1-.6 2-.6.9-1.6 1.3 1.1.4 1.8 1.4.7 1 .7 2.4 0 1-.3 1.7-.3.8-1 1.4-.5.6-1.4 1-1 .3-2 .3-2.2 0-3.8-1.7l1.3-1.5.1.3.2.4.3.3.8.4q.6.3 1.2.3.7 0 1.2-.3.6-.2 1-.6l.6-1 .2-1.2q0-1.3-1-2-1-.8-2.5-.8h-.7V75q1 0 1.8-.2l1.2-.6q.5-.4.7-1l.2-1q0-.5-.2-.9l-.5-.7-.8-.5q-.5-.2-1.1-.2-1.5 0-2.6 1.2l-.9-1q1.5-1.7 3.6-1.7.8 0 1.6.4.7.2 1.3.8.6.5.9 1.2.3.7.3 1.4zm11.4-1.8q.7 1 1.1 2.4.4 1.5.4 3.4 0 2-.4 3.3-.4 1.4-1.1 2.4-.7.9-1.5 1.3-.9.5-1.8.5t-1.8-.5q-.8-.6-1.5-1.6t-1-2.4q-.5-1.4-.5-3.1 0-1.7.4-3.1.4-1.4 1.1-2.4.7-1 1.5-1.6.9-.6 1.8-.6 1.9 0 3.3 2zm-.9 1.4q-.5-1-1-1.4-.7-.5-1.4-.5-.6 0-1.2.4-.5.4-1 1.2-.5.8-.7 1.9-.3 1-.3 2.4 0 1.5.3 2.8l5.3-6.8zm.6 1.6l-5.3 6.7q.6 1.1 1.2 1.6t1.3.5q.6 0 1.2-.4.5-.4 1-1.2.4-.7.6-1.8.3-1 .3-2.4l-.1-1.6-.2-1.4z" fill="#cd5a2b"/><path d="M446.4 72.3v1.8q0 1.3.6 2 .5.5 1.6.5h.5V78h-.5q-1 0-1.6.5-.6.6-.6 2.2l.1 2.4q0 2-1 3.1-.9 1-3 1h-2V86h2.2l.6-.1.3-.1.3-.2q1-.7 1-2.5l-.1-2q0-3 2-3.7-2.1-.9-2.1-3.6v-1.6q0-1.4-.5-2-.6-.6-1.9-.6h-1.8v-1.3h2.5q1 0 1.7.5.8.5 1.2 1.3.5.9.5 2.3zm24 0v1.8q0 1.3.6 2 .5.5 1.6.5h.5V78h-.5q-1 0-1.6.5-.6.6-.6 2.2l.1 2.4q0 2-1 3.1-.9 1-3 1h-2V86h2.2l.6-.1.3-.1.3-.2q1-.7 1-2.5l-.1-2q0-3 2-3.7-2.1-.9-2.1-3.6v-1.6q0-1.4-.5-2-.6-.6-1.9-.6h-1.8v-1.3h2.5q1 0 1.7.5.8.5 1.2 1.3.5.9.5 2.3zM481.7 83q0 1.9-2.6 4.5l-.8-.7q.7-.7 1.1-1.4.5-.7.5-1.2l-.2-.4-.5-.4-.4-.4-.2-.6q0-.6.4-1t1-.4q.7 0 1.2.5.5.6.5 1.5zm20.5 0v-2.3q0-1.6-.5-2.2-.6-.5-1.6-.5h-.5v-1.4h.5q1 0 1.6-.6.6-.6.6-2v-1.7q0-4.1 4.3-4.1h1.5v1.3h-2q-2.2 0-2.2 2.6v1.6q0 2.7-2 3.6 2 .7 2 3.7v2q0 1.7.7 2.3.7.6 2.3.6h1.2v1.4h-.9l-2-.1q-1-.1-1.7-.7-1.3-1-1.3-3.4zm30.5-9l-1 1.4-.1-.1V75l-1.3-1q-.8-.5-1.8-.5l-.9.1-.7.3-.5.5q-.2.3-.2.7l.1.5.5.5.8.4 1.5.5q2 .5 3 1.3.8.7.8 1.9 0 .7-.3 1.3-.3.7-1 1.1-.5.5-1.4.8-.8.3-1.9.3-2.7 0-4.6-1.7l1-1.8v.3l.3.3.5.5 1.2.6.8.3h1.9l.8-.4.7-.6q.2-.3.2-.7 0-.6-.6-1-.5-.5-2-1l-1.5-.4-1.2-.6q-.4-.2-.7-.6l-.5-.8q-.2-.4-.2-1 0-.5.3-1 .3-.6.9-1 .6-.4 1.3-.6.8-.3 1.7-.3 2.5 0 4.1 1.7zm12.6.3l-1.2 1.4-.1-.1v-.3l-.2-.3-.6-.6q-.8-.7-2.2-.7-.7 0-1.4.3-.6.3-1 .8-.6.6-.9 1.3-.2.8-.2 1.7 0 1 .2 1.8.3.7.8 1.3.5.6 1.2 1 .7.2 1.6.2 1.6 0 2.8-1.3l1 1.2q-1.6 1.7-4 1.7-1.1 0-2.2-.4-1-.5-1.7-1.2-.7-.8-1.1-1.8-.4-1-.4-2.3 0-1.3.4-2.3.4-1 1.1-1.8.8-.8 1.8-1.2 1-.4 2.2-.4 1.3 0 2.4.5 1 .5 1.7 1.5zm7.1-2.1q1 0 2 .4.8.4 1.5 1.2.7.7 1 1.8.5 1 .5 2.4 0 1.3-.4 2.4-.4 1-1 1.8-.7.7-1.6 1.1-1 .4-2 .4t-2-.4q-.9-.4-1.6-1.2-.7-.7-1.1-1.8-.4-1-.4-2.3 0-1.2.4-2.3.4-1 1.1-1.8.8-.8 1.7-1.2 1-.5 2-.5zm3.2 5.8q0-1-.2-1.8-.3-.8-.8-1.4-.4-.5-1-.8-.6-.3-1.2-.3-.7 0-1.3.3-.6.3-1 .8-.5.6-.7 1.4-.3.7-.3 1.7t.3 1.8q.2.8.7 1.3.4.6 1 1 .6.2 1.3.2.7 0 1.3-.2.6-.3 1-.8l.7-1.4q.2-.8.2-1.8zm5.1-5.5h1.8v2q.5-1 1.5-1.7 1.2-.6 2.4-.6 1.8 0 3 1.2l-.9 1.7-.4-.6-.5-.4-.6-.3-.7-.1q-.8 0-1.5.4-.7.3-1.2 1-.5.6-.8 1.4-.3.7-.3 1.6v5.4h-1.8v-11zm15.9-.3q.8 0 1.6.3t1.4 1q.7.6 1 1.6.4 1 .4 2.3v.8h-7.8q0 1.2.4 2 .3.7.8 1.2.6.5 1.2.7l1.3.2q1.7 0 2.8-1.2l1 .9q-1.4 1.7-3.8 1.7-1.2 0-2.2-.4-1-.4-1.7-1-.7-.8-1.1-1.9-.4-1-.4-2.4t.4-2.5q.4-1 1-1.8.8-.7 1.7-1.1.9-.4 2-.4zm-3.4 4.7h6v-.4q0-.6-.2-1.1-.2-.6-.6-1-.3-.4-.9-.6-.5-.3-1-.3-1.2 0-2.1.8-1 .8-1.2 2.6zm15.8-3.2q.5.4.5 1 0 .5-.4 1-.5.3-1 .3-.6 0-1-.4-.5-.4-.5-1 0-.5.5-.9.4-.4 1-.4.5 0 1 .4zm0 7.7q.5.4.5 1 0 .5-.4.9-.5.4-1 .4-.7 0-1-.4-.5-.4-.5-1 0-.5.5-1 .4-.4 1-.4.5 0 1 .5zm24.5-12.9v15H612v-13l-3 1-.5-1 4-2h1.1zM625.7 83q0 1.9-2.6 4.5l-.8-.7q.7-.7 1.1-1.4.5-.7.5-1.2l-.2-.4-.5-.4-.4-.4-.2-.6q0-.6.4-1t1-.4q.7 0 1.2.5.5.6.5 1.5zm17.5.9h10.3v1.5h-10.3v-1.5zm13.7-11.4h4.4V82h2.5v1.4h-7V82h2.7v-8H657v-1.4zm2.7-4.4q.3-.4.8-.4t.9.4q.4.3.4.8t-.4 1q-.4.3-.9.3t-.8-.4q-.4-.4-.4-.9t.4-.8zm15.6 5.9v-6.5h1.9l-.1.3-.2.4v14.2q0 .6.2 1h-1.7l-.1-.8v-1q-.6 1-1.5 1.6-.9.5-1.8.5-1 0-1.7-.4-.8-.3-1.5-1-.6-.8-1-1.9-.3-1-.3-2.6 0-1.5.4-2.5.4-1.1 1-1.8.8-.7 1.6-1 .8-.3 1.6-.3 1.2 0 2 .5t1.2 1.4zm-5 .4q-1.1 1-1.1 3.2 0 2 .8 3.3.8 1.3 2.3 1.3l.8-.2q.4 0 .8-.4l.6-.6q.3-.3.4-.8.3-.9.3-2.3v-1.5l-.3-1-.4-.8q-.2-.3-.6-.5l-.8-.4-.7-.1q-.7 0-1.2.2l-1 .6zm14.8-.7q.5.4.5 1 0 .5-.4 1-.5.3-1 .3-.6 0-1-.4-.5-.4-.5-1 0-.5.5-.9.4-.4 1-.4.5 0 1 .4zm0 7.7q.5.4.5 1 0 .5-.4.9-.5.4-1 .4-.7 0-1-.4-.5-.4-.5-1 0-.5.5-1 .4-.4 1-.4.5 0 1 .5zm26.6-11q.7 1 1.1 2.4.4 1.5.4 3.4 0 2-.4 3.3-.4 1.4-1.1 2.4-.7.9-1.5 1.3-.9.5-1.8.5t-1.8-.5q-.8-.6-1.5-1.6t-1-2.4q-.5-1.4-.5-3.1 0-1.7.4-3.1.4-1.4 1.1-2.4.7-1 1.5-1.6.9-.6 1.8-.6 1.9 0 3.3 2zm-.9 1.4q-.5-1-1-1.4-.7-.5-1.4-.5-.6 0-1.2.4-.5.4-1 1.2-.5.8-.7 1.9-.3 1-.3 2.4 0 1.5.3 2.8l5.3-6.8zm.6 1.6l-5.3 6.7q.6 1.1 1.2 1.6t1.3.5q.6 0 1.2-.4.5-.4 1-1.2.4-.7.6-1.8.3-1 .3-2.4l-.1-1.6-.2-1.4zm23.1-1.1v1.8q0 1.3.6 2 .5.5 1.6.5h.5V78h-.5q-1 0-1.6.5-.6.6-.6 2.2l.1 2.4q0 2-1 3.1-.9 1-3 1h-2V86h2.2l.6-.1.3-.1.3-.2q1-.7 1-2.5l-.1-2q0-3 2-3.7-2.1-.9-2.1-3.6v-1.6q0-1.4-.5-2-.6-.6-1.9-.6h-1.8v-1.3h2.5q1 0 1.7.5.8.5 1.2 1.3.5.9.5 2.3zm17.8-3.3l.5-1.5q1.4.7 2.6 1.7 1.2 1 2 2.4.9 1.3 1.3 2.8.5 1.5.5 3 0 1.6-.5 3.2-.5 1.5-1.3 2.8-.9 1.4-2 2.4-1.3 1.1-2.8 1.8l-.4-1.4q1.2-.7 2.1-1.6 1-1 1.7-2 .7-1.2 1-2.5.5-1.2.5-2.6 0-1.3-.4-2.6t-1-2.4q-.7-1-1.7-2t-2-1.5z" fill="#133a80"/></g><path d="M63 28v2.6Q60.5 32 57 32q-2.7 0-4.6-1.1-1.9-1.1-3-3-1.1-2-1.1-4.2 0-3.6 2.5-6 2.6-2.5 6.3-2.5 2.6 0 5.8 1.4V19q-3-1.7-5.7-1.7-2.8 0-4.6 1.8-1.9 1.8-1.9 4.5t1.8 4.4q1.9 1.7 4.7 1.7 3 0 5.8-1.8zm7.8-7q2.5 0 4.1 1.6 1.6 1.6 1.6 4 0 2.3-1.6 3.8-1.7 1.6-4.2 1.6-2.4 0-4-1.6Q65 29 65 26.5t1.7-4q1.6-1.5 4.1-1.5zm-.1 2q-1.5 0-2.5 1t-1 2.5q0 1.5 1 2.5t2.6 1q1.6 0 2.6-1t1-2.5q0-1.6-1-2.6-1.1-1-2.7-1zm8.3-7.6h2v16.4h-2V15.4zm5.2 0h2.1v16.4h-2V15.4zm14.5 11.2H91q0 1.5 1 2.5 1 .9 2.5.9 2 0 3.9-1.3v2q-1 .7-2 1-1 .3-2.3.3-1.7 0-2.8-.8-1.1-.7-1.8-2-.7-1.2-.7-2.9 0-2.4 1.4-4 1.4-1.5 3.7-1.5 2.1 0 3.4 1.5 1.3 1.5 1.3 4v.3zM91 25.3h5.4q0-1.3-.7-2-.7-.6-1.8-.6-1.2 0-2 .6-.7.7-.9 2zm18 4v2q-1.6.7-3.1.7-2.5 0-4-1.5t-1.5-4q0-2.6 1.4-4.1 1.5-1.6 3.9-1.6.8 0 1.5.2.6.1 1.6.6v2.2q-1.6-1-3-1t-2.4 1q-.9 1-.9 2.6t1 2.6q1 1 2.7 1 1.2 0 2.8-.7zm1-6.6l4-4V21h3.4v2h-3.5v5.2q0 1.9 1.6 1.9 1.1 0 2.4-.8v2q-1.2.7-2.7.7-1.4 0-2.4-.9l-.5-.5-.4-.9V23h-2v-.2zm10.6-6.2q.5 0 .9.3.3.4.3 1 0 .4-.3.8-.4.4-1 .4-.4 0-.8-.4t-.4-.9q0-.5.4-.8.4-.4.9-.4zm-1 4.5h2v10.8h-2V21zm10.3 0q2.4 0 4 1.6 1.7 1.6 1.7 4 0 2.3-1.7 3.8-1.6 1.6-4.1 1.6-2.4 0-4-1.6-1.7-1.5-1.7-3.9t1.6-4q1.7-1.5 4.2-1.5zm-.1 2q-1.6 0-2.6 1t-1 2.5q0 1.5 1 2.5t2.6 1q1.6 0 2.6-1t1-2.5q0-1.6-1-2.6t-2.6-1zm10.2-2v1.4q1.5-1.6 3.3-1.6 1 0 1.9.5.9.5 1.3 1.5.5.9.5 2.8v6.2h-2.2v-6.1q0-1.7-.5-2.4t-1.7-.7q-1.5 0-2.5 1.5v7.7h-2.2V21h2.2z" font-size="24" font-family="GillSans" fill="#468bbe"/><g stroke="#468bbe"><path d="M91.3 39.3v15.6" fill="none"/><path d="M88.3 55l3 8 3-8z" fill="#468bbe"/></g><path d="M283 32.8l-2.3 2.3q-1 0-2.3-.4-1.2-.3-2.4-.9-1.3-.6-3.3-2-3-.5-5-2.8-1.9-2.3-1.9-5.3 0-3.7 2.5-6.1 2.5-2.4 6.3-2.4t6.3 2.4q2.5 2.4 2.5 6 0 3-1.9 5.3-1.8 2.3-4.9 2.9l.7.2q2.9 1.1 4.1 1.1.7 0 1.7-.3zm-8.4-15.4q-2.7 0-4.5 1.8-1.9 1.8-1.9 4.5 0 2.6 1.9 4.4 1.8 1.7 4.5 1.7t4.6-1.8q1.8-1.8 1.8-4.4 0-2.7-1.8-4.4-1.8-1.8-4.6-1.8zm18.3 14.4v-1.4q-.7.8-1.6 1.2-.9.4-1.7.4-1 0-2-.5-.8-.5-1.2-1.4-.4-.9-.4-3v-6h2v6q0 1.8.6 2.4.5.7 1.7.7 1.5 0 2.6-1.5V21h2.1v10.8h-2.1zm14.3-5.2h-7.6q0 1.5 1 2.5 1 .9 2.5.9 2.1 0 3.9-1.3v2q-1 .7-2 1-1 .3-2.2.3-1.8 0-2.9-.8-1.1-.7-1.8-2-.6-1.2-.6-2.9 0-2.4 1.4-4 1.4-1.5 3.6-1.5 2.1 0 3.4 1.5 1.3 1.5 1.3 4v.3zm-7.5-1.3h5.4q-.1-1.3-.8-2-.7-.6-1.8-.6-1.2 0-1.9.6-.7.7-1 2zm12.1-4.3v2.5-.2q1.6-2.5 3.2-2.5 1.2 0 2.5 1.2l-1.1 1.9q-1.1-1-2-1-1.1 0-1.9 1-.7 1-.7 2.3v5.6h-2.2V21h2.2zm14.5 0h2.4l-7.6 16.3h-2.4l3.7-7.8-4.2-8.5h2.4l3 6 2.7-6zm25 7v2.6q-2.6 1.4-6 1.4-2.7 0-4.6-1.1-2-1.1-3-3-1.2-2-1.2-4.2 0-3.6 2.6-6 2.5-2.5 6.3-2.5 2.5 0 5.7 1.4V19q-2.9-1.7-5.6-1.7-2.8 0-4.7 1.8-1.9 1.8-1.9 4.5t1.9 4.4q1.8 1.7 4.7 1.7 3 0 5.8-1.8zm4.9-7v2.5-.2q1.6-2.5 3.2-2.5 1.2 0 2.5 1.2l-1.1 1.9q-1.1-1-2-1-1.1 0-1.9 1-.7 1-.7 2.3v5.6H354V21h2.2zm8.3-4.5q.5 0 .9.3.4.4.4 1 0 .4-.4.8t-.9.4q-.5 0-.9-.4-.3-.4-.3-.9t.3-.8q.4-.4.9-.4zm-1 4.5h2v10.8h-2V21zm3.6 1.7l4-4V21h3.4v2h-3.4v5.2q0 1.9 1.6 1.9 1.1 0 2.4-.8v2q-1.2.7-2.7.7-1.4 0-2.4-.9l-.5-.5-.4-.9V23h-2v-.2zm18.7 3.9h-7.5q0 1.5 1 2.5 1 .9 2.5.9 2 0 3.9-1.3v2q-1 .7-2 1-1 .3-2.3.3-1.7 0-2.8-.8-1.1-.7-1.8-2-.7-1.2-.7-2.9 0-2.4 1.4-4 1.4-1.5 3.6-1.5t3.5 1.5q1.2 1.5 1.2 4v.3zm-7.5-1.3h5.4q0-1.3-.7-2-.7-.6-1.9-.6-1.1 0-1.8.6-.8.7-1 2zm12.1-4.3v2.5l.1-.2q1.6-2.5 3.1-2.5 1.2 0 2.6 1.2l-1.2 2q-1-1-2-1t-1.8 1q-.8 1-.8 2.3v5.6h-2.1V21h2.1zm8.4-4.5q.5 0 .9.3.3.4.3 1 0 .4-.3.8-.4.4-1 .4-.4 0-.8-.4t-.4-.9q0-.5.4-.8.4-.4.9-.4zm-1 4.5h2v10.8h-2V21zm11.9 4.3V30q0 .5.4.5.3 0 1.2-.5v1.3l-1.2.6q-.4.2-1 .2-1.3 0-1.5-1.1-1.4 1-3 1-1 0-1.8-.7t-.8-1.9q0-1 .8-1.8.7-.8 2-1.2l2.8-1v-.6q0-2-2-2-1.7 0-3.4 1.9v-2.3q1.3-1.5 3.6-1.5 1.8 0 2.8 1 .4.2.6.7l.4 1v1.8zm-2.1 4.4v-3.2l-1.4.5q-1.1.4-1.6.9-.4.4-.4 1 0 .7.4 1.2.4.4 1.1.4 1 0 1.9-.8z" font-size="24" font-family="GillSans" fill="#468bbe"/><path d="M208.6 60.6h286V100h-286z" opacity=".3" fill="#2476c0"/><g stroke="#468bbe"><path d="M345.3 38.8v15.6" fill="none"/><path d="M342.3 54.4l3 8 3-8z" fill="#468bbe"/></g><path d="M33.3 177L209 100.4m68.2 76.6l213-76.5" stroke="#96bee1" fill="none"/><g font-size="21"><path d="M717.7 198l.1-2q0-1.5-.5-2-.5-.4-1.4-.4h-.4v-1.2h.4q1 0 1.5-.5.5-.6.5-1.8v-1.5q0-3.6 3.7-3.6h1.4v1.2h-1.7q-2 0-2 2.2v1.5q0 2.3-1.8 3 1.8.7 1.8 3.3v1.8q0 1.4.5 2 .7.5 2 .5h1.2v1.2h-.8l-1.8-.1q-.8 0-1.5-.5-1.2-1-1.2-3z" font-family="Inconsolata" fill="#123a80"/><path d="M744.5 190l-1 1.4v-.4q-.4-.5-1.1-1-.7-.3-1.6-.3h-.8l-.6.3-.5.5-.1.6v.4l.5.4.7.4 1.3.4q1.9.5 2.6 1.2.7.6.7 1.6l-.2 1.2-.8 1q-.6.4-1.3.6-.7.3-1.6.3-2.5 0-4.1-1.6l.9-1.5v.2l.2.4.5.4 1 .5q.3.2.7.2h1.6l.8-.3q.4-.2.6-.5l.2-.6q0-.6-.5-1-.5-.3-1.9-.7l-1.2-.4-1-.5-.7-.5-.4-.7q-.2-.4-.2-.9t.3-1l.7-.8 1.2-.6q.7-.2 1.5-.2 2.2 0 3.6 1.5zm11 .3l-1 1.3-.2-.1v-.3l-.1-.3-.5-.5q-.8-.6-2-.6-.6 0-1.2.3-.5.2-1 .7-.4.5-.6 1.2-.3.6-.3 1.4 0 .9.3 1.5.2.7.7 1.2.4.5 1 .8.6.3 1.4.3 1.4 0 2.5-1.2l.9 1q-1.5 1.6-3.6 1.6-1 0-1.9-.4-.8-.4-1.5-1-.6-.7-1-1.6-.3-1-.3-2 0-1.1.3-2 .4-1 1-1.6.7-.7 1.6-1 .9-.4 2-.4 1 0 2 .4 1 .5 1.5 1.3zm6.2-1.8q1 0 1.7.4.8.3 1.4 1 .6.6 1 1.6.3.9.3 2 0 1.2-.4 2.2-.3.9-.9 1.6-.6.6-1.4 1-.8.3-1.7.3-1 0-1.7-.4-.8-.4-1.4-1-.6-.7-1-1.6-.4-1-.4-2t.4-2q.4-1 1-1.6.6-.7 1.4-1 .9-.5 1.7-.5zm2.9 5.1q0-.9-.3-1.6-.2-.7-.6-1.2-.4-.5-1-.7-.5-.3-1-.3-.6 0-1.1.3-.5.2-1 .7l-.5 1.2q-.3.7-.3 1.5 0 .9.3 1.5.2.7.6 1.2.4.5.9.8.5.3 1.1.3.6 0 1.1-.2l1-.8q.3-.4.5-1.1.3-.7.3-1.6zm4.4-4.9h1.6v1.9q.4-1 1.3-1.5 1-.6 2-.6 1.6 0 2.6 1l-.7 1.5-.4-.5-.4-.4-.5-.2h-.6q-.7 0-1.3.3-.6.3-1.1.8l-.7 1.2q-.3.7-.3 1.5v4.7H769v-9.7zm13.8-.2q.8 0 1.5.3t1.3.8q.5.6.8 1.4.3.9.3 2v.8H780q0 1 .3 1.7.3.6.8 1 .5.5 1 .7l1.2.1q1.4 0 2.4-1l.9.8q-1.2 1.5-3.4 1.5-1 0-2-.4-.8-.3-1.4-1-.6-.6-1-1.5-.3-1-.3-2.1 0-1.2.4-2.2.3-1 1-1.6.5-.6 1.3-1 .8-.3 1.7-.3zm-2.9 4h5.3v-.2q0-.6-.2-1l-.5-.9-.8-.5q-.4-.2-1-.2-1 0-1.7.7-.8.7-1 2.2z" font-family="Inconsolata" fill="#cd5a2b"/><path d="M793.8 189.8q.4.4.4.9t-.4.8q-.4.4-.9.4t-.9-.4q-.3-.3-.3-.8t.3-.9q.4-.3.9-.3t.9.3zm0 6.7q.4.4.4.9t-.4.8q-.4.4-.9.4t-.9-.4q-.3-.3-.3-.8t.3-.9q.4-.3.9-.3t.9.3zm21.4-11.3v13.1h-1.5v-11.2l-2.6.7-.3-.8 3.4-1.8h1zm21.8 3.4v1.5q0 1.2.4 1.8.5.5 1.5.5h.4v1.2h-.4q-1 0-1.4.4-.5.5-.5 2v2q0 1.9-.8 2.8-.8.9-2.6.9h-1.7v-1.2h1.8l.5-.1.3-.1.2-.1q.9-.7.9-2.2v-1.8q0-2.6 1.7-3.2-1.8-.8-1.8-3.1v-1.5q0-1.2-.5-1.7t-1.6-.5h-1.6V185h2.2q.8 0 1.5.5.6.4 1 1.1.5.7.5 2z" font-family="Inconsolata" fill="#123a80"/><path d="M852.5 184h2v14.3h-2V184zm6.8 5v1.1q1.3-1.4 2.9-1.4.9 0 1.6.5.8.4 1.2 1.2.4.8.4 2.6v5.3h-1.9V193q0-1.5-.4-2-.5-.7-1.5-.7-1.3 0-2.3 1.3v6.7h-1.9V189h2zm15-5h1.8v14.3h-4q-2 0-3.3-1.3-1.2-1.3-1.2-3.5 0-2.1 1.3-3.5 1.3-1.3 3.3-1.3 1 0 2 .4v-5zm0 12.7v-6q-.9-.4-1.8-.4-1.4 0-2.2 1-.8.9-.8 2.4t.7 2.2q.4.5.9.7l1.7.1h1.5zm12.4-2.9h-6.6q0 1.3.9 2.1.8.8 2.2.8 1.8 0 3.4-1.1v1.8q-.9.6-1.8.8-.8.3-2 .3-1.5 0-2.5-.7-1-.6-1.5-1.7-.6-1-.6-2.5 0-2.2 1.2-3.5 1.3-1.4 3.2-1.4 1.9 0 3 1.3 1.1 1.4 1.1 3.6v.2zm-6.6-1.1h4.8q-.1-1.1-.7-1.7-.6-.7-1.6-.7t-1.6.7q-.7.6-.9 1.7zm15.1-3.7h2.4l-3.9 4.6 4.2 4.7h-2.4l-3-3.3-2.7 3.3h-2.4l4-4.7-4-4.7h2.4l2.8 3.3 2.6-3.3z" font-family="GillSans" fill="#123a80"/></g><path d="M572.6 32.3V16h5.1q2.4 0 3.8 1.3t1.4 3.4q0 1.4-.7 2.5-.8 1.1-2 1.6t-3.6.5H575v7.1h-2.3zm4.7-14.3H575v5.1h2.6q1.4 0 2.2-.6.8-.7.8-2 0-2.5-3.2-2.5zm9.7 3.5V24v-.2q1.6-2.5 3.1-2.5 1.2 0 2.5 1.2l-1 2q-1.2-1.1-2.1-1.1-1 0-1.8 1t-.8 2.3v5.6h-2.1V21.5h2.1zm11.7 0q2.4 0 4 1.6 1.7 1.6 1.7 4 0 2.3-1.6 3.9-1.7 1.5-4.2 1.5-2.4 0-4-1.6-1.7-1.5-1.7-3.9 0-2.3 1.6-4 1.7-1.5 4.2-1.5zm-.1 2q-1.6 0-2.6 1t-1 2.5q0 1.6 1 2.5 1 1 2.7 1 1.5 0 2.5-1t1-2.5q0-1.6-1-2.6t-2.6-1zm9.1-6.5q.6 0 1 .4.3.3.3.9 0 .5-.4.9-.3.3-.8.3t-1-.4q-.3-.3-.3-.8t.4-1q.3-.3.8-.3zm-1 4.5h2.2V34q0 2.8-2.2 4l-1.6-1.6q.8-.3 1.2-1 .4-.6.4-1.4V21.5zm14.5 5.6h-7.6q0 1.6 1 2.5 1 .9 2.5.9 2.1 0 3.9-1.3v2q-1 .7-2 1-1 .3-2.2.3-1.8 0-2.9-.8-1.1-.7-1.8-2-.6-1.2-.6-2.8 0-2.5 1.4-4 1.4-1.6 3.6-1.6 2.1 0 3.4 1.5 1.3 1.5 1.3 4v.3zm-7.5-1.3h5.4q-.1-1.2-.8-2-.7-.6-1.8-.6-1.2 0-1.9.7t-1 2zm17.9 4v2.1q-1.6.6-3.2.6-2.5 0-4-1.5t-1.5-4q0-2.6 1.5-4.1 1.4-1.6 3.8-1.6.8 0 1.5.2.7.1 1.6.6v2.2q-1.6-1-3-1t-2.3 1q-1 1-1 2.6 0 1.7 1 2.6 1 1 2.7 1 1.3 0 2.9-.7zm.9-6.6l4-3.9v2.2h3.4v2h-3.4v5.2q0 1.9 1.5 1.9 1.2 0 2.4-.8v2q-1.2.7-2.6.7-1.5 0-2.5-.9l-.5-.5-.3-.9q-.2-.5-.2-2v-4.7h-1.8v-.3zm10.6-6.2q.5 0 .9.4.4.3.4.9 0 .5-.4.8-.4.4-.9.4t-.9-.4q-.3-.3-.3-.8t.3-1q.4-.3.9-.3zm-1 4.5h2v10.8h-2V21.5zm10.3 0q2.5 0 4.1 1.6 1.6 1.6 1.6 4 0 2.3-1.6 3.9-1.7 1.5-4.2 1.5-2.4 0-4-1.6-1.7-1.5-1.7-3.9 0-2.3 1.7-4 1.6-1.5 4.1-1.5zm-.1 2q-1.5 0-2.5 1t-1 2.5q0 1.6 1 2.5 1 1 2.6 1t2.5-1q1-1 1-2.5 0-1.6-1-2.6t-2.6-1zm10.3-2V23q1.4-1.6 3.2-1.6 1 0 2 .6.8.5 1.2 1.4.5.9.5 2.9v6.1h-2.1v-6.1q0-1.7-.5-2.4t-1.7-.7q-1.5 0-2.6 1.5v7.7h-2.2V21.5h2.2z" font-size="24" font-family="GillSans" fill="#468bbe"/><g stroke="#468bbe"><path d="M621.5 39.3v15.6" fill="none"/><path d="M618.5 55l3 8 3-8z" fill="#468bbe"/></g></svg>