<svg xmlns="http://www.w3.org/2000/svg" height="110" width="750"><path d="M42.3 22.1h660.3v37.7H42.3z" fill="#0c60b2"/><path d="M156.2 11.1v72" stroke="#afd1e8" stroke-width="1.5" stroke-dasharray="3,1.5" fill="none"/><g font-size="14" font-family="GillSans"><path d="M133.6 92.6v-1.1q.5 0 .9-.2.3-.3.4-.8l.2-1.7V87l.4-.8q.3-.4.7-.5l1-.1h.4v1h-.2q-.7 0-1 .3-.2.3-.2 1.2v1l-.1 1.5q-.1.5-.4.9-.3.4-1 .7.9.3 1.2 1 .3.6.3 2v1q0 .9.2 1.2.3.2 1 .2h.2v1.1h-.4l-1-.1-.7-.5q-.3-.4-.4-.9v-1.8q0-1.3-.2-1.7-.1-.5-.5-.8-.3-.2-.8-.2z" fill="#0c60b2"/><path d="M147 89.4h1.6l-2.6 3 2.8 3.3h-1.6l-2-2.3-1.8 2.3h-1.6l2.6-3.2-2.6-3.1h1.6l1.8 2.1 1.8-2.1z" fill="#d33907"/><path d="M150.3 94.1q.3 0 .6.3.2.2.2.6 0 .3-.2.5-.3.3-.6.3-.4 0-.6-.3-.3-.2-.3-.5 0-.4.3-.6.2-.3.6-.3zm0-4.8q.4 0 .7.2l.2.6-.2.6-.6.2q-.4 0-.6-.2l-.2-.6.2-.6q.2-.2.6-.2zM155 92h3.3v1.2H155V92zm4.6-5.9h6.2l-4.4 9.7-1.2-.5 3.5-7.9h-4.1v-1.3zm7.7 0h4.2v1.2h-3v2.5h.3q1.4 0 2.3.8 1 .8 1 2.1 0 1.4-1 2.2-.8.9-2.3.9-1.1 0-2.2-.6v-1.4q1 .7 2 .7.9 0 1.4-.5.6-.5.6-1.3 0-.7-.6-1.2t-1.6-.5h-1.1v-4.9zm9.7-.6h.5l1 .1q.4.1.7.5.3.4.3.9l.1 1.8q0 1.2.2 1.7 0 .5.4.8l.8.2v1.1q-.4 0-.8.3-.3.2-.4.7-.2.5-.2 1.7V97l-.4 1-.7.4-1 .1h-.4v-1h.2q.7 0 1-.3.2-.3.2-1.2v-1q0-1.4.3-2 .3-.7 1.1-1-.6-.3-.8-.6l-.5-1-.1-1.5v-1q0-1-.2-1.2-.3-.3-1-.3h-.2v-1z" fill="#0c60b2"/></g><path d="M295.9 11v72m170.6-71.9v72" stroke="#afd1e8" stroke-width="1.5" stroke-dasharray="3,1.5" fill="none"/><g font-size="14" font-family="GillSans"><path d="M275.5 92.5v-1q.5 0 .9-.3.3-.3.4-.7.2-.5.2-1.7v-2q.1-.4.5-.8.2-.3.6-.4.3-.2 1-.2h.4v1h-.2q-.7 0-1 .4-.2.2-.2 1.1v1l-.1 1.5q-.1.6-.4 1-.3.3-1 .6.9.3 1.2 1 .3.7.3 2v1q0 1 .2 1.2.3.3 1 .3h.2v1h-1.4q-.4-.2-.7-.6-.3-.4-.3-.8l-.1-1.9q0-1.2-.2-1.7-.1-.5-.5-.7-.3-.3-.8-.3z" fill="#0c60b2"/><path d="M289 89.3h1.5l-2.6 3.1 2.8 3.2h-1.6l-2-2.2-1.8 2.2h-1.6l2.7-3.2-2.7-3h1.6l1.8 2 1.8-2z" fill="#d33907"/><path d="M292.2 94q.3 0 .6.3l.2.6-.2.6-.6.2q-.4 0-.6-.2l-.2-.6.2-.6q.2-.2.6-.2zm0-4.8q.4 0 .7.3.2.2.2.5 0 .4-.2.6-.3.3-.6.3t-.6-.3q-.2-.2-.2-.6 0-.3.2-.5.2-.3.6-.3zm6.9 5.1h3.7v1.3h-6l.5-.8q1.4-1.6 2.2-2.8.8-1.1 1-1.7l.2-1.2q0-.8-.4-1.3-.5-.5-1.2-.5-.6 0-1.2.3l-1 1v-1.7q1.1-1 2.3-1 1.3 0 2 .9.9.8.9 2.1l-.2 1.2q-.2.7-.7 1.5-.5.9-1.8 2.4l-.3.3zm5.6-8.3h4.2v1.3h-3v2.4h.3q1.4 0 2.3.8.9.9.9 2.2 0 1.3-.9 2.2-.9.8-2.3.8-1.1 0-2.2-.5v-1.5q1 .7 2 .7.8 0 1.4-.5.6-.5.6-1.2 0-.8-.6-1.3-.7-.5-1.6-.5l-1.1.1v-5zm9.8-.6h.3q.7 0 1.1.2.4 0 .6.4.3.4.4.9l.1 1.9.1 1.7q.1.4.5.7.3.2.8.2v1.1q-.4 0-.8.3-.4.2-.5.7l-.1 1.7v1.9l-.5.8q-.2.4-.6.5l-1 .1h-.4v-1h.2q.7 0 1-.3.2-.3.2-1.1v-1q0-1.4.3-2 .3-.8 1-1.1l-.8-.6-.4-1-.1-1.5v-1q0-.9-.3-1.1-.2-.3-1-.3h-.1v-1z" fill="#0c60b2"/></g><g font-size="14" font-family="GillSans"><path d="M6.7 92.6v-1.1q.5 0 .9-.2.3-.3.4-.8l.1-1.7.1-1.9.4-.8q.3-.4.7-.5l1-.1h.4v1h-.2q-.8 0-1 .3-.2.3-.2 1.2v1l-.1 1.5-.4.9q-.3.4-1 .7.9.3 1.2 1 .3.6.3 2v1q0 .9.2 1.2.2.2 1 .2h.2v1.1h-.4l-1-.1-.7-.5q-.3-.4-.4-.9v-1.8q0-1.3-.2-1.7-.1-.5-.5-.8-.3-.2-.8-.2z" fill="#0c60b2"/><path d="M20.1 89.4h1.6l-2.6 3 2.8 3.3h-1.6l-2-2.3-1.8 2.3h-1.6l2.6-3.2-2.6-3.1h1.6l1.8 2.1 1.8-2.1z" fill="#d33907"/><path d="M23.4 94.1q.3 0 .6.3.2.2.2.6 0 .3-.2.5-.3.3-.6.3-.4 0-.6-.3-.3-.2-.3-.5 0-.4.3-.6.2-.3.6-.3zm0-4.8q.4 0 .7.2l.2.6-.2.6-.6.2q-.4 0-.6-.2-.3-.3-.3-.6t.3-.6q.2-.2.6-.2zm10.1 1.8v4.6h-1.3v-3.5q0-1-.3-1.5-.2-.4-1-.4l-.7.2-.7.6v4.6h-1.2v-6.3h1.2v.8q1-1 1.9-1 1.2 0 1.8 1.2 1-1.2 2.1-1.2 1 0 1.5.7.6.7.6 2v3.8h-1.2v-3.8q0-.7-.4-1.2-.3-.4-.9-.4-.8 0-1.4.8zm6.2-4.4q.3 0 .6.3.2.2.2.5t-.2.5l-.6.2-.5-.2q-.2-.2-.2-.5t.2-.5q.3-.3.5-.3zm-.6 2.7h1.3v6.3H39v-6.3zm4.3 0v.8q.8-1 1.9-1 .6 0 1 .4.6.3.9.8.2.5.2 1.7v3.6h-1.2V92q0-1-.3-1.4-.3-.4-1-.4-.9 0-1.5.9v4.5h-1.3v-6.3h1.3zm11.3-3.3h1.7l-4.1 4.5 5.2 5h-2L50.8 91v4.7h-1.4V86h1.4v4.4l4-4.4z" fill="#0c60b2"/><path d="M62.9 92.6h-4.5q0 1 .6 1.5t1.5.5q1.2 0 2.2-.8v1.3l-1 .5-1.4.2q-1 0-1.7-.5-.6-.4-1-1.1-.4-.7-.4-1.7 0-1.4.8-2.3.8-1 2.1-1t2 1q.8.8.8 2.3v.1zm-4.4-.7h3.1q0-.8-.4-1.2-.4-.4-1-.4-.8 0-1.2.4-.4.4-.5 1.2zm9.3-2.5h1.4l-4.4 9.5h-1.4l2.1-4.6-2.4-5h1.4l1.7 3.6 1.6-3.5zm5.6-3.9h.4l1 .1q.4.1.7.5.3.4.4.9v1.8q0 1.2.2 1.7.1.5.4.8.4.2.9.2v1.1q-.5 0-.8.3-.4.2-.5.7l-.1 1.7-.1 1.8-.4 1-.6.4-1.1.1h-.4v-1h.2q.8 0 1-.3.2-.3.2-1.2v-1q0-1.4.3-2 .3-.7 1.1-1l-.8-.6q-.3-.4-.4-1-.2-.6-.2-1.5v-1q0-1-.2-1.2-.2-.3-1-.3h-.2v-1z" fill="#0c60b2"/></g><g font-size="14" font-family="GillSans"><path d="M441.6 92.7v-1q.5 0 .8-.3l.5-.7V89l.2-2q0-.4.4-.8.2-.3.6-.4.4-.2 1-.2h.4v1h-.2q-.7 0-1 .4-.2.2-.2 1.1v2.5l-.5 1-.9.6q.8.3 1.1 1 .3.7.3 2v1q0 1 .3 1.2.2.3 1 .3h.1v1h-.4l-1-.1q-.4-.1-.6-.5l-.4-.8-.1-1.9-.1-1.7q-.2-.5-.5-.7-.4-.3-.8-.3z" fill="#0c60b2"/><path d="M455 89.5h1.6l-2.6 3.1 2.7 3.2h-1.6l-2-2.2-1.8 2.2h-1.6l2.7-3.2-2.7-3h1.6l1.9 2 1.8-2z" fill="#d33907"/><path d="M458.2 94.3q.4 0 .6.2l.2.6-.2.6q-.2.2-.6.2l-.6-.2-.2-.6.2-.6.6-.2zm.1-4.9q.4 0 .6.2.3.3.3.6 0 .4-.3.6-.2.3-.6.3-.3 0-.6-.3-.2-.2-.2-.6l.2-.6.6-.2zm6.8-3.1h1.4v9.5H465v-9.5zm4.9 0h6.1l-4.3 9.6-1.2-.5 3.5-7.8H470v-1.3zm7.7 0h4.2v1.2h-3v2.4h.3q1.4 0 2.3.8 1 .9 1 2.2 0 1.3-1 2.2-.9.8-2.3.8-1.1 0-2.2-.6V94q1 .7 2 .7.9 0 1.4-.5.6-.5.6-1.2 0-.8-.6-1.3t-1.6-.5l-1.1.1v-5zm9.8-.7h.4q.7 0 1 .2.4 0 .6.4.3.4.4.9l.1 1.9q0 1.2.2 1.7 0 .4.4.7.3.2.8.2v1.1q-.4 0-.8.3-.3.2-.5.7v1.7q0 1.4-.2 1.9 0 .5-.4.8-.2.4-.6.5l-1 .1h-.4v-1h.2q.7 0 1-.3.2-.3.2-1.1v-1q0-1.4.3-2 .3-.8 1.1-1.1-.6-.3-.8-.6-.3-.3-.5-1l-.1-1.5v-1q0-.9-.2-1.1-.3-.3-1-.3h-.2v-1z" fill="#0c60b2"/></g><g font-size="14" font-family="GillSans"><path d="M665.7 92.7v-1q.5 0 .8-.3l.5-.7V89l.2-2q0-.4.4-.8.2-.3.6-.5h1.4v1h-.2q-.7 0-1 .3-.2.2-.2 1.1v2.5l-.5 1-.9.6q.8.3 1.1 1 .3.7.3 2v1q0 1 .3 1.2.2.3 1 .3h.1v1h-.4l-1-.1q-.4-.1-.6-.5l-.4-.8-.1-1.9q0-1.2-.2-1.7 0-.5-.4-.7-.4-.3-.8-.3z" fill="#0c60b2"/><path d="M679 89.5h1.6l-2.5 3.1 2.7 3.2h-1.6l-2-2.2-1.8 2.2h-1.6l2.7-3.2-2.7-3h1.6l1.9 2 1.8-2z" fill="#d33907"/><path d="M682.3 94.3l.6.2.2.6-.2.6-.6.2-.6-.2-.2-.6.2-.6.6-.2zm.1-4.9q.4 0 .6.2.3.3.3.6 0 .4-.3.6-.2.3-.6.3-.3 0-.6-.3-.2-.2-.2-.6l.2-.6.6-.2zm10 1.8v4.6h-1.2v-3.5q0-1-.3-1.4-.3-.5-1-.5-.4 0-.7.2l-.7.6v4.6h-1.3v-6.3h1.3v.9q.9-1 1.8-1 1.2 0 1.9 1.1 1-1.1 2-1.1t1.6.7q.5.6.5 2v3.7h-1.2v-3.7q0-.8-.3-1.2-.3-.4-1-.4t-1.4.7zm9.6.8v2.7q0 .3.2.3l.7-.3v.7l-.7.4-.5.1q-.8 0-1-.6-.7.6-1.6.6-.7 0-1.1-.4-.5-.5-.5-1.1 0-.6.5-1 .4-.5 1.2-.8l1.6-.6v-.3q0-1.1-1.2-1.1-1 0-2 1v-1.3q.8-.9 2.1-.9 1 0 1.7.5l.3.5.2.6v1zm-1.2 2.6v-1.9l-.9.3-.9.5q-.2.3-.2.7 0 .4.2.6.3.3.7.3.6 0 1-.5zm7.6-5.1h1.6l-2.6 3.1 2.7 3.2h-1.5l-2-2.2-1.9 2.2h-1.6l2.7-3.2-2.7-3h1.6l1.9 2 1.8-2zm8.2-3.2h1.7l-4.1 4.5 5.1 5h-1.8l-5-4.7v4.7h-1.3v-9.5h1.4v4.3l4-4.3zm8.1 6.5h-4.4q0 .9.6 1.4.6.5 1.4.5 1.3 0 2.3-.7v1.2q-.6.4-1.1.5-.6.2-1.3.2-1 0-1.7-.4-.7-.5-1-1.2-.4-.7-.4-1.7 0-1.4.8-2.3.8-.9 2-.9 1.3 0 2 .9.8.8.8 2.3v.2zm-4.4-.8h3.2q0-.7-.5-1.1-.3-.4-1-.4t-1.1.4q-.4.4-.6 1.1zm9.4-2.5h1.4l-4.5 9.5h-1.3l2.1-4.5-2.4-5h1.4l1.7 3.6 1.6-3.6zm5.6-3.9h.4q.7 0 1 .2.4 0 .7.4.3.4.3.9l.1 1.9q0 1.2.2 1.7 0 .4.4.7l.8.2v1.1q-.4 0-.8.3-.3.2-.4.7-.2.5-.2 1.7v1.9q-.1.5-.4.8-.3.4-.7.5l-1 .1h-.4v-1h.2q.7 0 1-.3.2-.3.2-1.1v-1q0-1.4.3-2 .3-.8 1.1-1.1-.6-.3-.8-.6-.3-.3-.5-1l-.1-1.5v-1q0-.9-.2-1.1-.3-.3-1-.3h-.2v-1z" fill="#0c60b2"/></g><path d="M42.6 11.1v69.5" stroke="#afd1e8" stroke-width="1.5" stroke-dasharray="3,1.5" fill="none"/><g stroke="#0c60b2" stroke-width="2"><path d="M56.4 70h88" fill="none"/><path d="M56.4 66.5L46.8 70l9.6 3.6zm88 7.2L154 70l-9.6-3.6z" fill="#0c60b2"/></g><g stroke="#0c60b2" stroke-width="2"><path d="M170 70h114" fill="none"/><path d="M170 66.5l-9.7 3.6 9.6 3.6zm114.1 7.2l9.6-3.6-9.6-3.6z" fill="#0c60b2"/></g><g stroke="#0c60b2" stroke-width="2"><path d="M309 70h145" fill="none"/><path d="M309 66.4l-9.7 3.6 9.6 3.6zm145.1 7.2l9.6-3.6-9.6-3.6z" fill="#0c60b2"/></g><g stroke="#0c60b2" stroke-width="2"><path d="M482.3 70H590" fill="none"/><path d="M482.3 66.5l-9.6 3.6 9.6 3.6zM590 73.7l9.6-3.6-9.6-3.6z" fill="#0c60b2"/></g><path d="M703 11.1v69.5" stroke="#afd1e8" stroke-width="1.5" stroke-dasharray="3,1.5" fill="none"/><path d="M69.3 41.3l-1.5-1q-1.5-.8-2.1-1.7-.6-.9-.6-2 0-1.7 1.1-2.7 1.2-1 3-1 1.9 0 3.4 1V36q-1.6-1.4-3.3-1.4-1 0-1.7.4-.6.5-.6 1.2t.4 1.2q.5.6 1.6 1.2l1.5 1q2.6 1.5 2.6 4 0 1.6-1.1 2.7-1.2 1-3 1-2.1 0-3.9-1.2v-2.6q1.7 2 3.9 2 1 0 1.6-.5.6-.5.6-1.3 0-1.3-1.9-2.5zm5.8-8.3H77v6q1.2-1.4 2.9-1.4 1 0 1.7.5.7.4 1.1 1.3.4.8.4 2.4v5.4h-1.9v-5.8q0-1-.5-1.7-.5-.6-1.3-.6-.7 0-1.2.3l-1.2 1v6.8h-2V33zm16.5 8.6v4q0 .5.3.5.4 0 1-.5v1.2l-1 .5q-.3.2-.7.2-1.2 0-1.5-1-1.1 1-2.5 1-1 0-1.6-.7-.7-.6-.7-1.6t.6-1.6q.7-.7 1.9-1.1l2.4-.9v-.5q0-1.7-1.7-1.7-1.6 0-3 1.6v-2q1-1.3 3.1-1.3 1.5 0 2.5.8l.5.7q.3.4.3.8l.1 1.6zm-1.8 3.9v-2.8l-1.3.4q-1 .4-1.3.8-.4.4-.4 1 0 .5.3 1 .4.3 1 .3.9 0 1.7-.7zm6.9-7.6V40q1.4-2.2 2.8-2.2 1 0 2.2 1l-1 1.7q-1-1-1.8-1-1 0-1.6 1-.6.8-.6 2v5h-2V38h2zM109 33h1.8v14.3h-4q-2 0-3.3-1.3-1.3-1.3-1.3-3.6 0-2 1.4-3.4 1.3-1.3 3.3-1.3 1 0 2 .4V33zm0 12.7v-6q-1-.4-1.8-.4-1.4 0-2.2 1-.9.8-.9 2.4 0 1.4.8 2.2.4.5.9.7l1.7.1h1.4zM122 33h1.4l6.4 14.3h-2.1l-2-4.2h-6l-1.8 4.2h-2.1l6.1-14.4zm3 8.2l-2.4-5.1-2.1 5.1h4.4z" font-size="21" font-family="GillSans" fill="#0c60b2"/><path d="M69.3 41.3l-1.5-1q-1.5-.8-2.1-1.7-.6-.9-.6-2 0-1.7 1.1-2.7 1.2-1 3-1 1.9 0 3.4 1V36q-1.6-1.4-3.3-1.4-1 0-1.7.4-.6.5-.6 1.2t.4 1.2q.5.6 1.6 1.2l1.5 1q2.6 1.5 2.6 3.9 0 1.7-1.1 2.8-1.2 1-3 1-2.1 0-3.9-1.2v-2.6q1.7 2 3.9 2 1 0 1.6-.5.6-.5.6-1.3 0-1.3-1.9-2.5zm5.8-8.3H77v6q1.1-1.4 2.9-1.4 1 0 1.7.5.7.4 1 1.3.4.8.4 2.4v5.4h-1.8v-5.8q0-1-.5-1.7-.5-.6-1.4-.6-.6 0-1.1.3-.6.3-1.2 1v6.8h-2zm16.5 8.6v4q0 .5.3.5t1-.5v1.2l-1 .5q-.3.2-.8.2-1.2 0-1.4-1-1.2 1-2.5 1-1 0-1.7-.7-.6-.6-.6-1.6t.6-1.6q.7-.7 1.9-1.1l2.3-.9v-.5q0-1.7-1.7-1.7-1.5 0-3 1.6v-2q1.2-1.3 3.2-1.3 1.5 0 2.4.8l.6.7.3.8v1.6zm-1.9 3.8v-2.7l-1.2.4q-1 .4-1.4.8-.4.4-.4 1 0 .5.4 1 .4.3 1 .3.9 0 1.6-.7zm7-7.5V40q1.4-2.2 2.7-2.2 1 0 2.2 1l-1 1.7q-1-1-1.8-1-.9 0-1.5 1-.7.8-.7 2v5h-1.9V38zm12.2-5h1.9v14.4h-4q-2.1 0-3.3-1.3-1.3-1.3-1.3-3.6 0-2 1.3-3.4 1.3-1.3 3.4-1.3.9 0 2 .4zm0 12.8v-6q-.9-.4-1.8-.4-1.4 0-2.2 1-.8.8-.8 2.4 0 1.4.7 2.2.4.5 1 .7l1.7.1zM127.7 33h1.5l6.4 14.4h-2.1l-2-4.2h-6l-1.8 4.2h-2.1zm3 8.3l-2.3-5.1-2.1 5.1z" fill="#fff"/><path d="M196 41.3l-1.5-1q-1.4-.8-2-1.7-.7-.9-.7-2 0-1.7 1.2-2.7 1.2-1 3-1t3.3 1V36q-1.5-1.4-3.3-1.4-1 0-1.6.4-.7.5-.7 1.2t.5 1.2q.5.6 1.5 1.2l1.6 1q2.6 1.5 2.6 4 0 1.6-1.2 2.7-1.1 1-3 1-2 0-3.8-1.2v-2.6q1.6 2 3.8 2 1 0 1.6-.5.7-.5.7-1.3 0-1.3-2-2.5zm5.9-8.3h1.8v6q1.2-1.4 3-1.4.9 0 1.6.5.8.4 1.2 1.3.3.8.3 2.4v5.4H208v-5.8q0-1-.6-1.7-.5-.6-1.3-.6-.6 0-1.2.3l-1.2 1v6.8H202V33zm16.5 8.6v4q0 .5.3.5t1-.5v1.2l-1 .5-.8.2q-1.2 0-1.4-1-1.2 1-2.5 1-1 0-1.7-.7-.6-.6-.6-1.6t.6-1.6q.6-.7 1.8-1.1l2.4-.9v-.5q0-1.7-1.7-1.7-1.5 0-3 1.6v-2q1.1-1.3 3.2-1.3 1.5 0 2.4.8l.6.7.3.8v1.6zm-1.9 3.9v-2.8l-1.2.4q-1 .4-1.4.8-.4.4-.4 1 0 .5.4 1 .4.3 1 .3.9 0 1.6-.7zm6.9-7.6V40l.1-.1q1.4-2.2 2.7-2.2 1 0 2.2 1l-1 1.7q-1-1-1.8-1-.9 0-1.5 1-.7.8-.7 2v5h-1.9v-9.5h2zm12.3-4.9h1.9v14.3h-4q-2.1 0-3.4-1.3-1.2-1.3-1.2-3.6 0-2 1.3-3.4 1.3-1.3 3.4-1.3.9 0 2 .4V33zm0 12.7v-6q-.9-.4-1.8-.4-1.4 0-2.2 1-.8.8-.8 2.4 0 1.4.7 2.2.4.5 1 .7l1.7.1h1.4zm13-12.7h1.4l6.4 14.3h-2l-2-4.2h-6l-1.9 4.2h-2l6-14.4zm3 8.2l-2.3-5.1-2.2 5.1h4.5z" font-size="21" font-family="GillSans" fill="#0c60b2"/><path d="M196 41.3l-1.5-1q-1.4-.8-2-1.7-.7-.9-.7-2 0-1.7 1.2-2.7 1.2-1 3-1t3.3 1V36q-1.5-1.4-3.3-1.4-1 0-1.6.4-.7.5-.7 1.2t.5 1.2q.5.6 1.5 1.2l1.6 1q2.6 1.5 2.6 3.9 0 1.7-1.1 2.8-1.2 1-3 1-2.2 0-4-1.2v-2.6q1.7 2 4 2 .9 0 1.5-.5.7-.5.7-1.3 0-1.3-2-2.5zm6-8.3h1.8v6q1.2-1.4 3-1.4.9 0 1.6.5.8.4 1.1 1.3.4.8.4 2.4v5.4H208v-5.8q0-1-.5-1.7-.5-.6-1.3-.6-.6 0-1.2.3l-1.2 1v6.8H202zm16.4 8.6v4q0 .5.4.5.3 0 1-.5v1.2l-1 .5-.8.2q-1.2 0-1.4-1-1.2 1-2.6 1-1 0-1.6-.7-.7-.6-.7-1.6t.7-1.6q.6-.7 1.8-1.1l2.4-.9v-.5q0-1.7-1.7-1.7-1.5 0-3 1.6v-2q1.1-1.3 3.1-1.3 1.6 0 2.5.8l.5.7.4.8v1.6zm-1.8 3.8v-2.7l-1.3.4q-1 .4-1.3.8-.4.4-.4 1 0 .5.4 1 .3.3 1 .3.8 0 1.6-.7zm6.9-7.5V40q1.4-2.2 2.8-2.2 1 0 2.2 1l-1 1.7q-1-1-1.8-1-1 0-1.6 1-.6.8-.6 2v5h-2V38zm12.3-5h1.8v14.4h-4q-2 0-3.3-1.3-1.2-1.3-1.2-3.6 0-2 1.3-3.4 1.3-1.3 3.3-1.3 1 0 2 .4zm0 12.8v-6q-1-.4-1.8-.4-1.4 0-2.2 1-.9.8-.9 2.4 0 1.4.8 2.2.4.5.9.7l1.7.1zM254.5 33h1.4l6.4 14.4h-2l-2-4.2h-6l-1.9 4.2h-2zm3 8.3l-2.3-5.1-2.2 5.1z" fill="#fff"/><path d="M352.9 41.3l-1.6-1q-1.4-.8-2-1.7-.7-.9-.7-2 0-1.7 1.2-2.7 1.2-1 3-1t3.3 1V36q-1.5-1.4-3.3-1.4-1 0-1.6.4-.7.5-.7 1.2t.5 1.2q.5.6 1.5 1.2l1.6 1q2.6 1.5 2.6 4 0 1.6-1.2 2.7-1.1 1-3 1-2 0-3.8-1.2v-2.6q1.6 2 3.8 2 1 0 1.6-.5.7-.5.7-1.3 0-1.3-2-2.5zm5.8-8.3h1.8v6q1.2-1.4 3-1.4.9 0 1.6.5.8.4 1.1 1.3.4.8.4 2.4v5.4h-1.8v-5.8q0-1-.6-1.7-.5-.6-1.3-.6-.6 0-1.2.3l-1.2 1v6.8h-1.8V33zm16.4 8.6v4q0 .5.4.5.3 0 1-.5v1.2l-1 .5-.8.2q-1.2 0-1.4-1-1.2 1-2.5 1-1 0-1.7-.7-.6-.6-.6-1.6t.6-1.6q.6-.7 1.8-1.1l2.4-.9v-.5q0-1.7-1.7-1.7-1.5 0-3 1.6v-2q1.1-1.3 3.2-1.3 1.5 0 2.4.8l.6.7.3.8v1.6zm-1.8 3.9v-2.8l-1.2.4q-1 .4-1.4.8-.4.4-.4 1 0 .5.4 1 .4.3 1 .3.9 0 1.6-.7zm6.9-7.6V40l.1-.1q1.4-2.2 2.7-2.2 1 0 2.2 1l-1 1.7q-1-1-1.8-1-.9 0-1.5 1-.7.8-.7 2v5h-1.9v-9.5h1.9zm12.3-4.9h1.9v14.3h-4q-2.1 0-3.4-1.3-1.2-1.3-1.2-3.6 0-2 1.3-3.4 1.3-1.3 3.3-1.3 1 0 2.1.4V33zm0 12.7v-6q-.9-.4-1.8-.4-1.4 0-2.2 1-.8.8-.8 2.4 0 1.4.7 2.2.4.5 1 .7l1.7.1h1.4zm15.3 1.6H403V33h3.7q1.8 0 2.8.5 1 .4 1.5 1.3.6.8.6 2 0 2-2.2 3 1.5.2 2.5 1.2.9 1 .9 2.4 0 1.1-.6 2-.5.8-1.6 1.4-1.1.5-2.8.5zm-1-12.5H405v4.3h1.4q1.6 0 2.3-.6.7-.6.7-1.6 0-2-2.6-2zm.2 6.1h-2v4.6h2q1.7 0 2.3-.3.6-.2 1-.8.4-.5.4-1.2 0-.6-.4-1.2-.4-.5-1.1-.8-.7-.3-2.2-.3z" font-size="21" font-family="GillSans" fill="#0c60b2"/><path d="M352.9 41.3l-1.6-1q-1.4-.8-2-1.7-.7-.9-.7-2 0-1.7 1.2-2.7 1.2-1 3-1t3.3 1V36q-1.5-1.4-3.3-1.4-1 0-1.6.4-.7.5-.7 1.2t.5 1.2q.5.6 1.5 1.2l1.6 1q2.6 1.5 2.6 3.9 0 1.7-1.2 2.8-1.1 1-3 1-2 0-3.8-1.2v-2.6q1.6 2 3.8 2 1 0 1.6-.5.7-.5.7-1.3 0-1.3-2-2.5zm5.8-8.3h1.8v6q1.2-1.4 3-1.4.9 0 1.6.5.8.4 1.1 1.3.4.8.4 2.4v5.4h-1.9v-5.8q0-1-.5-1.7-.5-.6-1.3-.6-.6 0-1.2.3l-1.2 1v6.8h-1.8zm16.4 8.6v4q0 .5.4.5.3 0 1-.5v1.2l-1 .5-.8.2q-1.2 0-1.4-1-1.2 1-2.6 1-1 0-1.6-.7-.7-.6-.7-1.6t.7-1.6q.6-.7 1.8-1.1l2.4-.9v-.5q0-1.7-1.7-1.7-1.5 0-3 1.6v-2q1.1-1.3 3.1-1.3 1.6 0 2.5.8l.5.7.4.8v1.6zm-1.8 3.8v-2.7l-1.3.4q-1 .4-1.3.8-.4.4-.4 1 0 .5.4 1 .3.3 1 .3.8 0 1.6-.7zm6.9-7.5V40q1.4-2.2 2.8-2.2 1 0 2.2 1l-1 1.7q-1-1-1.8-1-1 0-1.6 1-.6.8-.6 2v5h-2V38zm12.3-5h1.8v14.4h-4q-2 0-3.3-1.3-1.2-1.3-1.2-3.6 0-2 1.3-3.4 1.3-1.3 3.3-1.3 1 0 2 .4zm0 12.8v-6q-1-.4-1.8-.4-1.4 0-2.2 1-.9.8-.9 2.4 0 1.4.8 2.2.4.5.9.7l1.7.1zm21.1 1.6h-4.8V33h3.7q1.8 0 2.8.5 1 .4 1.5 1.3.6.8.6 2 0 2-2.2 3 1.5.2 2.5 1.2.9 1 .9 2.4 0 1.1-.6 2-.5.8-1.6 1.4-1.1.5-2.8.5zm-1-12.5h-1.8v4.3h1.4q1.6 0 2.3-.6.7-.6.7-1.6 0-2-2.6-2zm.2 6.1h-2v4.6h2q1.7 0 2.3-.3.6-.2 1-.8.4-.5.4-1.2 0-.6-.4-1.2-.4-.5-1.1-.8-.7-.3-2.2-.3z" fill="#fff"/><path d="M504.3 41.5l-1.6-1q-1.4-.9-2-1.7-.7-1-.7-2 0-1.7 1.2-2.8 1.2-1 3-1 1.9 0 3.3 1v2.3q-1.5-1.5-3.3-1.5-1 0-1.6.5-.7.4-.7 1.2 0 .6.5 1.2.5.5 1.5 1.1l1.6 1q2.6 1.5 2.6 4 0 1.7-1.1 2.7-1.2 1.1-3 1.1-2.2 0-4-1.3v-2.6q1.8 2.1 4 2.1.9 0 1.5-.5.7-.6.7-1.4 0-1.3-1.9-2.4zm5.7-8.4h2v6.2q1.1-1.5 2.9-1.5.9 0 1.7.5.7.5 1 1.3.4.8.4 2.5v5.4h-1.8v-5.9q0-1-.5-1.6-.6-.7-1.4-.7-.6 0-1.1.3-.6.4-1.2 1.1v6.8h-2V33zm16.6 8.7v4q0 .5.3.5t1-.5v1.1l-1 .6-.8.1q-1.2 0-1.4-1-1.2 1-2.5 1-1 0-1.7-.6-.6-.7-.6-1.7 0-.9.6-1.6.7-.7 1.8-1l2.4-1v-.4q0-1.7-1.7-1.7-1.5 0-3 1.6v-2q1.1-1.4 3.2-1.4 1.5 0 2.4.8l.6.7.3.9v1.6zm-1.9 3.8v-2.8l-1.2.5-1.4.7q-.4.4-.4 1t.4 1q.4.3 1 .3.9 0 1.6-.7zm6.9-7.6v2.2l.1-.2q1.4-2.2 2.7-2.2 1 0 2.2 1.1l-1 1.6q-1-.9-1.8-.9-.9 0-1.5.9-.7.8-.7 2v5h-1.9V38h2zm12.4-4.9h1.8v14.4h-4q-2 0-3.3-1.4-1.3-1.3-1.3-3.5 0-2 1.3-3.4t3.4-1.4q.9 0 2 .4v-5zm0 12.8v-6q-1-.5-1.9-.5-1.3 0-2.2 1-.8.9-.8 2.4t.7 2.3q.4.4 1 .6.4.2 1.7.2h1.4zM556.9 33h1.4l6.4 14.5h-2l-2-4.3h-6l-1.9 4.3h-2l6-14.4zm3 8.4l-2.3-5.2-2.2 5.2h4.5z" font-size="21" font-family="GillSans" fill="#0c60b2"/><path d="M504.3 41.5l-1.6-1q-1.4-.9-2-1.7-.7-1-.7-2 0-1.7 1.2-2.8 1.2-1 3-1 1.9 0 3.3 1v2.3q-1.5-1.5-3.3-1.5-1 0-1.6.5-.7.4-.7 1.2 0 .6.5 1.2.5.5 1.5 1.1l1.6 1q2.6 1.5 2.6 4 0 1.7-1.1 2.7-1.2 1.1-3 1.1-2.2 0-4-1.3v-2.6q1.8 2.1 4 2.1.9 0 1.5-.5.7-.6.7-1.4 0-1.3-1.9-2.4zm5.8-8.4h1.8v6.2q1.2-1.5 3-1.5.9 0 1.6.5.8.5 1.1 1.3.4.8.4 2.5v5.4h-1.9v-5.9q0-1-.5-1.6-.5-.7-1.3-.7-.6 0-1.2.3l-1.2 1.1v6.8h-1.8zm16.4 8.7v4q0 .5.4.5.3 0 1-.5v1.1l-1 .6-.8.1q-1.2 0-1.4-1-1.2 1-2.5 1-1 0-1.7-.6-.6-.7-.6-1.7 0-.9.6-1.6.6-.7 1.8-1l2.4-1v-.4q0-1.7-1.7-1.7-1.5 0-3 1.6v-2q1.1-1.4 3.2-1.4 1.5 0 2.4.8l.6.7.3.9v1.6zm-1.8 3.8v-2.8l-1.2.5-1.4.7q-.4.4-.4 1t.4 1q.4.3 1 .3.8 0 1.6-.7zm6.9-7.6v2.2-.2q1.4-2.2 2.8-2.2 1 0 2.2 1.1l-1 1.7q-1-1-1.8-1-.9 0-1.6.9-.6.8-.6 2v5h-1.9V38zm12.3-4.9h1.8v14.4h-4q-2 0-3.3-1.4-1.2-1.3-1.2-3.5 0-2 1.3-3.4t3.3-1.4q1 0 2 .4zm0 12.8v-6q-.9-.5-1.8-.5-1.4 0-2.2 1-.8.9-.8 2.4t.7 2.3q.4.4.9.6.5.2 1.7.2zM562.7 33h1.4l6.4 14.4h-2l-2-4.3h-6l-1.9 4.3h-2zm3 8.3l-2.3-5.2-2.2 5.2z" fill="#fff"/><path d="M603.1 11.1v69.5" stroke="#afd1e8" stroke-width="1.5" stroke-dasharray="3,1.5" fill="none"/><path d="M621 41.5l-1.5-1q-1.5-.9-2-1.7-.7-1-.7-2 0-1.7 1.2-2.8 1.1-1 3-1 1.8 0 3.3 1v2.3q-1.5-1.5-3.3-1.5-1 0-1.7.5-.6.4-.6 1.2 0 .6.5 1.2.4.5 1.5 1.1l1.6 1q2.6 1.5 2.6 4 0 1.7-1.2 2.7-1.1 1.1-3 1.1-2.1 0-3.8-1.3v-2.6q1.6 2.1 3.8 2.1 1 0 1.6-.5.7-.6.7-1.4 0-1.3-2-2.4zm5.9-8.4h1.8v6.2q1.2-1.5 3-1.5.9 0 1.6.5.8.5 1.1 1.3.4.8.4 2.5v5.4h-1.9v-5.9q0-1-.5-1.6-.5-.7-1.3-.7-.6 0-1.2.3l-1.2 1.1v6.8H627V33zm16.4 8.7v4q0 .5.4.5.3 0 1-.5v1.1l-1 .6-.8.1q-1.2 0-1.4-1-1.2 1-2.6 1-1 0-1.6-.6-.7-.7-.7-1.7 0-.9.7-1.6.6-.7 1.8-1l2.4-1v-.4q0-1.7-1.7-1.7-1.5 0-3 1.6v-2q1.1-1.4 3.1-1.4 1.6 0 2.5.8l.5.7.4.9v1.6zm-1.8 3.8v-2.8l-1.3.5q-1 .4-1.3.7-.4.4-.4 1t.4 1q.3.3 1 .3.8 0 1.6-.7zm6.9-7.6v2.2-.2q1.4-2.2 2.8-2.2 1 0 2.2 1.1l-1 1.6q-1-.9-1.8-.9-.9 0-1.6.9-.6.8-.6 2v5h-1.9V38h1.9zm12.3-4.9h1.9v14.4h-4q-2.1 0-3.4-1.4-1.2-1.3-1.2-3.5 0-2 1.3-3.4t3.3-1.4q1 0 2 .4v-5zm0 12.8v-6q-.9-.5-1.8-.5-1.4 0-2.2 1-.8.9-.8 2.4t.7 2.3q.4.4.9.6.5.2 1.7.2h1.5zm15.3 1.6h-4.8V33h3.7q1.8 0 2.8.5 1 .5 1.5 1.3.5.9.5 2 0 2-2.2 3 1.6.3 2.5 1.3 1 1 1 2.4 0 1-.6 2-.6.8-1.7 1.3-1 .6-2.7.6zM675 35h-1.8v4.3h1.4q1.6 0 2.3-.7.7-.6.7-1.6 0-2-2.6-2zm.1 6h-1.9v4.6h2q1.7 0 2.3-.2.6-.3 1-.8.3-.6.3-1.2 0-.7-.3-1.2-.4-.6-1.1-.8-.7-.3-2.3-.3z" font-size="21" font-family="GillSans" fill="#0c60b2"/><path d="M621 41.5l-1.5-1q-1.5-.9-2-1.7-.7-1-.7-2 0-1.7 1.2-2.8 1.1-1 3-1 1.8 0 3.3 1v2.3q-1.5-1.5-3.3-1.5-1 0-1.7.5-.6.4-.6 1.2 0 .6.5 1.2.4.5 1.5 1.1l1.6 1q2.6 1.5 2.6 4 0 1.7-1.2 2.7-1.1 1.1-3 1.1-2.1 0-3.8-1.3v-2.6q1.6 2.1 3.8 2.1 1 0 1.6-.5.7-.6.7-1.4 0-1.3-2-2.4zm5.8-8.4h1.9v6.2q1.2-1.5 2.9-1.5 1 0 1.7.5t1.1 1.3q.4.8.4 2.5v5.4h-1.9v-5.9q0-1-.5-1.6-.5-.7-1.3-.7-.7 0-1.2.3l-1.2 1.1v6.8h-1.9zm16.5 8.7v4q0 .5.3.5.4 0 1-.5v1.1l-1 .6-.7.1q-1.2 0-1.5-1-1.1 1-2.5 1-1 0-1.6-.6-.7-.7-.7-1.7 0-.9.7-1.6.6-.7 1.8-1l2.4-1v-.4q0-1.7-1.7-1.7-1.6 0-3 1.6v-2q1-1.4 3.1-1.4 1.5 0 2.5.8l.5.7q.3.4.3.9l.1 1.6zm-1.8 3.8v-2.8l-1.3.5q-1 .4-1.3.7-.4.4-.4 1t.3 1q.4.3 1 .3 1 0 1.7-.7zm6.8-7.6v2.2l.1-.2q1.4-2.2 2.7-2.2 1.1 0 2.3 1.1l-1 1.7q-1-1-1.8-1-1 0-1.6.9-.7.8-.7 2v5h-1.8V38zm12.3-4.9h2v14.4h-4q-2.2 0-3.4-1.4-1.3-1.3-1.3-3.5 0-2 1.3-3.4 1.4-1.4 3.4-1.4 1 0 2 .4zm0 12.8v-6q-.8-.5-1.7-.5-1.4 0-2.3 1-.8.9-.8 2.4t.7 2.3l1 .6q.4.2 1.7.2zm21.2 1.6H677V33h3.7q1.8 0 2.8.5 1 .5 1.5 1.3.5.9.5 2 0 2-2.2 3 1.6.3 2.5 1.3 1 1 1 2.4 0 1-.6 2-.6.8-1.6 1.3-1.1.6-2.8.6zm-1-12.5H679v4.3h1.4q1.6 0 2.3-.7.7-.6.7-1.6 0-2-2.6-2zm.1 6H679v4.6h2q1.7 0 2.3-.2.6-.3 1-.8.3-.6.3-1.2 0-.7-.3-1.2-.4-.6-1.1-.8-.7-.3-2.3-.3z" fill="#fff"/><g stroke="#0c60b2" stroke-width="2"><path d="M615.6 70h73.1" fill="none"/><path d="M615.6 66.5L606 70l9.6 3.6zm73.1 7.2l9.6-3.6-9.6-3.6z" fill="#0c60b2"/></g><g font-size="14" font-family="GillSans"><path d="M578.9 92.5v-1q.5 0 .8-.3l.5-.7v-1.7l.2-2q0-.4.4-.8.2-.3.6-.4.4-.2 1-.2h.4v1h-.2q-.7 0-1 .4-.2.2-.2 1.1v2.5l-.5 1-.9.6q.8.3 1.1 1 .3.7.3 2v1q0 1 .3 1.2.2.3 1 .3h.1v1h-1.4q-.4-.2-.6-.6l-.4-.8-.1-1.9q0-1.2-.2-1.7 0-.5-.4-.7-.4-.3-.8-.3z" fill="#0c60b2"/><path d="M592.3 89.3h1.5l-2.5 3.1 2.7 3.2h-1.6l-2-2.2-1.8 2.2H587l2.7-3.2-2.7-3h1.6l1.9 2 1.8-2z" fill="#d33907"/><path d="M595.5 94q.4 0 .6.3l.2.6-.2.6q-.2.2-.6.2l-.6-.2-.2-.6.2-.6.6-.2zm.1-4.8q.4 0 .6.3.3.2.3.5 0 .4-.3.6-.2.3-.6.3-.3 0-.6-.3-.2-.2-.2-.6 0-.3.2-.5.3-.3.6-.3zm6.9 5.1h3.6v1.3h-6l.5-.8q1.4-1.6 2.2-2.8.8-1.1 1-1.7.3-.6.3-1.2 0-.8-.5-1.3t-1.2-.5q-.6 0-1.1.3-.6.4-1 1v-1.7q1-1 2.3-1 1.2 0 2 .9.8.8.8 2.1l-.2 1.2q-.2.7-.7 1.5-.5.9-1.7 2.4l-.3.3zm7.6-8.3q1.4 0 2.2 1.3.9 1.4.9 3.5 0 2.2-.9 3.6-.8 1.3-2.2 1.3-1.4 0-2.2-1.3-.9-1.4-.9-3.6 0-2.1.9-3.5T610 86zm0 1.2q-.8 0-1.3 1-.4 1-.4 2.6 0 1.7.4 2.7.5 1 1.3 1t1.2-1q.5-1 .5-2.6 0-1.7-.5-2.7-.4-1-1.1-1zm7-1.2q1.4 0 2.2 1.3.9 1.4.9 3.5 0 2.2-.9 3.6-.8 1.3-2.2 1.3-1.4 0-2.2-1.3-.9-1.4-.9-3.6 0-2.1.9-3.5T617 86zm0 1.2q-.8 0-1.3 1-.4 1-.4 2.6 0 1.7.4 2.7.5 1 1.3 1t1.2-1q.5-1 .5-2.6 0-1.7-.5-2.7-.4-1-1.1-1zm7.7-1.8h.4q.7 0 1 .2.4 0 .6.4.3.4.4.9l.1 1.9q0 1.2.2 1.7 0 .4.4.7.3.2.8.2v1.1q-.4 0-.8.3-.3.2-.5.7v1.7q0 1.4-.2 1.9 0 .5-.4.8-.2.4-.6.5l-1 .1h-.4v-1h.2q.7 0 1-.3.2-.3.2-1.1v-1q0-1.4.3-2 .3-.8 1.1-1.1l-.9-.6-.4-1-.1-1.5v-1q0-.9-.3-1.1-.2-.3-.9-.3h-.2v-1z" fill="#0c60b2"/></g><path d="M81.5 12.6v1.3q-1.3.7-3 .7-1.4 0-2.3-.6-1-.5-1.6-1.5-.5-1-.5-2 0-1.9 1.3-3 1.2-1.3 3.1-1.3 1.3 0 2.9.7V8q-1.5-.8-2.8-.8-1.4 0-2.4 1-.9.8-.9 2.1 0 1.4 1 2.2.8 1 2.3 1 1.4 0 2.9-1zm1.2-6.3h1.1v3.5q.7-.8 1.7-.8.5 0 1 .3.4.2.6.7.2.5.2 1.4v3.1h-1v-3.3q0-.6-.4-1-.3-.3-.7-.3l-.7.1-.7.6v3.9h-1V6.3zm9.5 8.2v-.7q-.3.4-.8.6l-.8.2q-.6 0-1-.3-.4-.2-.6-.6-.3-.5-.3-1.5v-3h1.1v3q0 .8.2 1.2.3.3.9.3.8 0 1.3-.7V9h1v5.4h-1zm3.6-5.4v.7q.7-.8 1.7-.8.5 0 .9.3.4.2.6.7.3.4.3 1.4v3.1h-1v-3q0-.9-.3-1.2-.3-.4-.9-.4-.7 0-1.3.8v3.8h-1V9.1h1zm8.5 0h1.2l-2.3 2.7 2.8 2.7h-1.4l-2.7-2.7 2.4-2.7zm-3.5-2.8h1v8.2h-1V6.3zm10.7 0h1.2v8.2h-1.2V6.3zm102.3 6.3v1.3q-1.3.7-3 .7-1.3 0-2.3-.6-1-.5-1.5-1.5-.6-1-.6-2 0-1.9 1.3-3 1.3-1.3 3.2-1.3 1.2 0 2.8.7V8q-1.4-.8-2.8-.8t-2.3 1q-1 .8-1 2.1 0 1.4 1 2.2.9 1 2.3 1 1.5 0 3-1zm1.2-6.3h1.2v3.5q.6-.8 1.6-.8.6 0 1 .3.4.2.6.7.2.5.2 1.4v3.1h-1v-3.3q0-.6-.3-1-.3-.3-.8-.3l-.7.1-.6.6v3.9H215V6.3zm9.5 8.2v-.7q-.3.4-.7.6l-.9.2q-.5 0-1-.3-.4-.2-.6-.6-.2-.5-.2-1.5v-3h1v3q0 .8.3 1.2.2.3.9.3t1.2-.7V9h1.1v5.4h-1zm3.7-5.4v.7q.7-.8 1.6-.8.5 0 1 .3.4.2.6.7.2.4.2 1.4v3.1h-1v-3q0-.9-.3-1.2-.2-.4-.8-.4-.8 0-1.3.8v3.8H227V9.1h1zm8.4 0h1.3l-2.3 2.7 2.8 2.7h-1.5l-2.7-2.7 2.4-2.7zm-3.5-2.8h1v8.2h-1V6.3zm10.9 7.1h3v1.1h-5l.5-.7 1.8-2.4.9-1.5.2-1q0-.7-.4-1.1-.4-.4-1-.4-.5 0-1 .3-.5.2-.9.8V7q1-.8 2-.8t1.8.7q.7.7.7 1.8l-.2 1-.6 1.4-1.5 2-.3.3zm124.2-.8v1.3q-1.3.7-3 .7-1.4 0-2.3-.6-1-.5-1.5-1.5-.6-1-.6-2 0-1.9 1.3-3 1.3-1.3 3.1-1.3 1.3 0 2.9.7V8q-1.4-.8-2.8-.8t-2.3 1q-1 .8-1 2.1 0 1.4 1 2.2.9 1 2.3 1 1.5 0 2.9-1zm1.3-6.3h1v3.5q.7-.8 1.7-.8.5 0 1 .3.4.2.6.7.2.5.2 1.4v3.1h-1v-3.3q0-.6-.4-1-.2-.3-.7-.3l-.7.1-.7.6v3.9h-1V6.3zm9.5 8.2v-.7q-.4.4-.9.6l-.8.2q-.5 0-1-.3-.4-.2-.6-.6-.2-.5-.2-1.5v-3h1v3q0 .8.3 1.2.2.3.8.3.8 0 1.3-.7V9h1.1v5.4h-1zm3.6-5.4v.7q.7-.8 1.6-.8.5 0 1 .3.4.2.6.7.2.4.2 1.4v3.1h-1v-3q0-.9-.3-1.2-.3-.4-.9-.4-.7 0-1.2.8v3.8h-1.1V9.1h1zm8.4 0h1.3l-2.3 2.7 2.7 2.7h-1.4l-2.7-2.7L391 9zm-3.5-2.8h1v8.2h-1V6.3zM398 9.7q.8 0 1.2-.3.4-.3.4-.9 0-.5-.4-.9-.3-.3-1-.3-.6 0-1.4.4V6.6q.7-.4 1.6-.4 1.1 0 1.7.6.7.6.7 1.6 0 .6-.2 1-.3.5-.9.8l.8.4.3.7.1.8q0 1-.7 1.8-.7.7-1.8.7-1 0-1.8-.5V13q1 .5 1.8.5.6 0 1-.3.3-.4.3-1 0-.4-.3-.8l-.4-.3-.9-.2h-.1v-1zm124.8 2.9v1.3q-1.3.7-3 .7-1.3 0-2.3-.6-1-.5-1.5-1.5-.6-1-.6-2 0-1.9 1.3-3 1.3-1.3 3.1-1.3 1.3 0 3 .7V8q-1.5-.8-2.9-.8t-2.3 1q-1 .8-1 2.1 0 1.4 1 2.2.9 1 2.3 1 1.5 0 2.9-1zm1.2-6.3h1.1v3.5q.7-.8 1.7-.8.5 0 1 .3.4.2.6.7.2.5.2 1.4v3.1h-1v-3.3q0-.6-.3-1-.3-.3-.8-.3l-.7.1-.7.6v3.9h-1V6.3zm9.5 8.2v-.7q-.3.4-.7.6l-1 .2q-.4 0-.9-.3-.4-.2-.6-.6-.2-.5-.2-1.5v-3h1v3q0 .8.3 1.2.2.3.8.3.8 0 1.3-.7V9h1.1v5.4h-1zm3.7-5.4v.7q.7-.8 1.6-.8.5 0 1 .3.4.2.6.7.2.4.2 1.4v3.1h-1v-3q0-.9-.3-1.2-.3-.4-.8-.4-.8 0-1.3.8v3.8H536V9.1h1zm8.4 0h1.3l-2.3 2.7 2.7 2.7H546l-2.7-2.7 2.4-2.7zm-3.5-2.8h1v8.2h-1V6.3zm12.6-.1h.5v4.6h.9v1h-1v2.7h-1v-2.7h-3.5v-.5l4.1-5zm-.7 4.6V8.4l-1.9 2.4h2zm84.7 1.8v1.3q-1.2.7-3 .7-1.3 0-2.3-.6-1-.5-1.5-1.5t-.5-2q0-1.9 1.2-3 1.3-1.3 3.2-1.3 1.3 0 2.9.7V8q-1.5-.8-2.9-.8t-2.3 1q-1 .8-1 2.1 0 1.4 1 2.2 1 1 2.3 1 1.5 0 3-1zm1.3-6.3h1v3.5q.8-.8 1.7-.8.6 0 1 .3.4.2.6.7.3.5.3 1.4v3.1h-1.1v-3.3q0-.6-.3-1-.3-.3-.8-.3l-.6.1-.7.6v3.9h-1V6.3zm9.5 8.2v-.7l-.8.6q-.4.2-.9.2t-1-.3l-.6-.6q-.2-.5-.2-1.5v-3h1v3q0 .8.3 1.2.3.3.9.3.7 0 1.3-.7V9h1v5.4h-1zm3.6-5.4v.7q.7-.8 1.6-.8.5 0 1 .3.4.2.6.7.3.4.3 1.4v3.1h-1.1v-3q0-.9-.3-1.2-.2-.4-.8-.4-.8 0-1.3.8v3.8h-1V9.1h1zm8.5 0h1.2l-2.3 2.7 2.8 2.7h-1.4l-2.7-2.7 2.4-2.7zM658 6.3h1.1v8.2h-1V6.3zm9.6 0h3.6v1h-2.5v2.1h.2q1.2 0 2 .7.7.8.7 1.9 0 1.1-.7 1.9-.8.7-2 .7-1 0-2-.5v-1.2q1 .6 1.8.6t1.2-.5q.6-.4.6-1 0-.7-.6-1.1-.5-.4-1.4-.4h-.9V6.4z" font-size="12" font-family="GillSans" fill="#0a60b2"/></svg>