<svg xmlns="http://www.w3.org/2000/svg" height="300" width="600"><path d="M11.5 9.5h432.4v184.2H11.5z" fill="#fff"/><path d="M11.5 9.5h432.4v184.2H11.5z" stroke="#5ca831" stroke-width="2" fill="none"/><g font-size="24" font-family="Inconsolata"><path d="M38.7 41.9v-2.4q0-1.6-.5-2.1-.5-.6-1.6-.6h-.5v-1.3h.5q1.1 0 1.7-.6.5-.6.5-2v-1.7q0-4.2 4.3-4.2h1.6v1.4h-2q-2.2 0-2.2 2.5v1.7q0 2.7-2 3.5 2 .7 2 3.8l-.1 2q0 1.6.7 2.2.7.7 2.3.7h1.2V46h-.8l-2.1-.1q-1 0-1.7-.6-1.3-1-1.3-3.5z" fill="#5ca831"/><path d="M60.5 68.3v-11h1.8v2q.6-1 1.6-1.6 1-.6 2-.6.7 0 1.3.2.6.3 1 .8.5.6.8 1.4.2.9.2 2.1v6.7h-1.7v-6.6q0-1.7-.6-2.4-.5-.7-1.4-.7l-1.1.2q-.6.2-1 .7-.5.4-.8 1-.3.7-.3 1.5v6.3h-1.8zM73 58.6q1.5-1.5 4-1.5 2 0 3.1 1 1.2 1 1.2 3.4v6.8h-1.6V67q-1.8 1.4-4 1.4-.8 0-1.5-.2l-1.2-.7q-.5-.4-.7-1-.3-.5-.3-1.1 0-1.7 1.5-2.6 1.4-1 4-1h2.2v-.5q0-1.6-.7-2.3-.7-.6-2.2-.6-1.7 0-3 1.2l-.7-1zm6.7 4.5h-1.6q-1.3 0-2.2.2-.8.2-1.3.5t-.7.7l-.1.9q0 .7.6 1.3.7.5 1.7.5.7 0 1.3-.2l1-.5.7-.7.4-.6q.2-.5.2-1.3V63zm4.1 5.2v-11h1.6v1q.3-.5 1-.9.5-.3 1.2-.3t1.2.4q.6.5.7 1.2.4-.8 1-1.2.7-.4 1.5-.4 1.1 0 1.6.8.6.8.5 2v8.4h-1.6v-9l-.3-.6q-.1-.3-.3-.3h-.4q-.4 0-.7.2-.3.2-.5.6-.3.4-.4.9l-.1 1v7.2H88v-7.6q0-1.4-.2-1.9-.3-.4-.9-.4-.6 0-1.1.7-.5.6-.5 1.9v7.3h-1.6zM101 57q1 0 1.8.4.8.3 1.4 1 .6.5 1 1.5.3 1 .3 2.4v.8h-7.8q0 1.1.4 1.9.3.8.9 1.2.5.5 1.1.7l1.3.2q1.7 0 2.9-1.2l1 1q-1.5 1.6-3.9 1.6-1.2 0-2.2-.3-1-.4-1.7-1.1-.7-.8-1-1.8-.5-1.1-.5-2.5t.4-2.4q.4-1.1 1.1-1.8.7-.8 1.6-1.2 1-.3 2-.3zm-3.2 4.7h6v-.4q0-.6-.2-1.1-.2-.6-.6-1l-1-.6q-.4-.2-1-.2-1.2 0-2 .8-1 .8-1.2 2.5z" fill="#173182"/><path d="M113.6 58.5q.4.5.4 1 0 .6-.4 1t-1 .4q-.6 0-1-.4t-.4-1q0-.6.4-1t1-.4q.5 0 1 .4zm0 7.7q.4.4.4 1 0 .5-.4 1-.4.3-1 .3t-1-.3q-.4-.4-.4-1t.4-1q.4-.4 1-.4.5 0 1 .4zm24.8-11.1l-.1-1.5q0-.7.3-1 .3-.3.7-.3.4 0 .8.4.3.3.3 1.1t-.8 3l-.6 1.6-1.3-.3.5-1.6.2-1.4zm-4.1 0l-.2-1.5q0-.7.3-1 .4-.3.8-.3t.7.4q.3.3.3 1.1t-.7 3l-.6 1.6-1.4-.3.6-1.6.1-.7.1-.7zm18.9 3.7l-1 1.5V60l-.1-.2q-.5-.6-1.3-1-.8-.5-1.8-.5h-.9l-.7.4-.5.5q-.2.3-.2.7l.2.5.4.4.9.4q.5.3 1.5.5 2 .6 2.9 1.3.8.8.8 1.9 0 .7-.3 1.4-.3.6-.9 1-.6.6-1.4.9-.9.2-2 .2-2.7 0-4.6-1.7l1-1.7.1.2.2.4.5.5 1.2.6.8.2h1.9l.9-.4q.4-.2.6-.5.3-.4.3-.8 0-.6-.6-1-.6-.5-2.1-1l-1.4-.3-1.3-.6-.7-.6-.5-.8-.2-1q0-.6.3-1.1l1-1 1.3-.6q.7-.2 1.7-.2 2.5 0 4 1.7zm3.2-1.5h1.7v6.1q0 1 .2 1.8.2.7.5 1.1.4.5.8.7l1 .2q.6 0 1.1-.3l1-.7q.4-.5.6-1.2.3-.7.3-1.6v-6h1.7v9.9l.1 1h-1.8v-1.7q-.5 1-1.5 1.4-.8.5-2 .5-.8 0-1.4-.2-.7-.4-1.3-1-.5-.6-.8-1.6-.2-1-.2-2.3v-6zM173 57q1 0 1.8.4.8.3 1.4 1 .6.5 1 1.5.3 1 .3 2.4v.8h-7.8q0 1.1.4 1.9.3.8.9 1.2.5.5 1.1.7l1.3.2q1.7 0 2.9-1.2l1 1q-1.5 1.6-3.9 1.6-1.2 0-2.2-.3-1-.4-1.7-1.1-.7-.8-1-1.8-.5-1.1-.5-2.5t.4-2.4q.4-1.1 1.1-1.8.7-.8 1.6-1.2 1-.3 2-.3zm-3.2 4.7h6v-.4q0-.6-.2-1.1-.2-.6-.6-1l-1-.6q-.4-.2-1-.2-1.2 0-2 .8-1 .8-1.2 2.5zm16.6-6.6l-.1-1.5q0-.7.3-1 .3-.3.7-.3.4 0 .8.4.3.3.3 1.1t-.8 3l-.6 1.6-1.3-.3.5-1.6.2-1.4zm-4.1 0l-.2-1.5q0-.7.3-1 .4-.3.8-.3t.7.4q.3.3.3 1.1t-.7 3l-.6 1.6-1.4-.3.6-1.6.1-.7.1-.7zm15.9 12.7q0 1.9-2.6 4.5l-.8-.7q.7-.6 1.1-1.3.5-.8.5-1.2 0-.3-.2-.5l-.4-.4-.4-.4-.2-.6q0-.6.3-1 .5-.4 1-.4.7 0 1.2.6.5.5.5 1.4z" fill="#2a86c0"/><path d="M61 84.6q1.5-1.5 4-1.5 2 0 3.1 1 1.2 1 1.2 3.4v6.8h-1.6V93q-1.8 1.4-4 1.4-.8 0-1.5-.2l-1.2-.7q-.5-.4-.7-1-.3-.5-.3-1.1 0-1.7 1.5-2.6 1.4-1 4-1h2.2v-.5q0-1.6-.7-2.3-.7-.6-2.2-.6-1.7 0-3 1.2l-.7-1zm6.7 4.5h-1.6q-1.3 0-2.2.2-.8.2-1.3.5t-.7.7l-.1.9q0 .7.6 1.3.7.5 1.7.5.7 0 1.3-.2l1-.5.7-.7.4-.6q.2-.5.2-1.3V89zm6.9-4.1q-.4.4-.5.8l-.2 1 .2.9.5.8.8.5.9.1 1-.1q.4-.2.7-.6l.5-.7.2-1-.2-.9-.5-.8-.8-.5q-.4-.2-1-.2-.9 0-1.6.7zm4.4-1q1.2-1 2.7-1h.4l.2 1.4h-.7q-1 0-1.9.5.6.9.6 1.9 0 .7-.3 1.4t-.9 1.2l-1.2.9-1.6.2-1.4-.2q-.7.7-.7 1.2 0 .4.4.7.5.2 1.3.2h1.8l1.9.1q.7.2 1.2.6.5.4.7.9.3.5.3 1 0 .7-.3 1.3-.3.6-1 1-.6.6-1.5.8-1 .3-2.3.3-1.3 0-2.2-.2-1-.2-1.5-.6-.6-.3-1-.8l-.2-1q0-1.3 1.8-2.4-1-.5-1-1.5t1.3-2q-.7-.6-1.2-1.4-.4-.8-.4-1.7 0-.8.3-1.5.4-.7 1-1.2.5-.5 1.2-.8.8-.3 1.5-.3 1.6 0 2.7 1zm-4.3 9.7q-1.3.8-1.3 1.7 0 .5.2.8l.8.5 1 .3 1.4.1q1.5 0 2.4-.5 1-.5 1-1.4 0-.7-.5-1-.5-.4-1.6-.4h-3.4zM89 83q1 0 1.8.4.8.3 1.4 1 .6.5 1 1.5.3 1 .3 2.4v.8h-7.8q0 1.1.4 1.9.3.8.9 1.2.5.5 1.1.7l1.3.2q1.7 0 2.9-1.2l1 1q-1.5 1.6-3.9 1.6-1.2 0-2.2-.3-1-.4-1.7-1.1-.7-.8-1-1.8-.5-1.1-.5-2.5t.4-2.4q.4-1.1 1.1-1.8.7-.8 1.6-1.2 1-.3 2-.3zm-3.2 4.7h6v-.4q0-.6-.2-1.1-.2-.6-.6-1l-1-.6q-.4-.2-1-.2-1.2 0-2 .8-1 .8-1.2 2.5z" fill="#173182"/><path d="M101.6 84.5q.4.5.4 1 0 .6-.4 1t-1 .4q-.6 0-1-.4t-.4-1q0-.6.4-1t1-.4q.5 0 1 .4zm0 7.7q.4.4.4 1 0 .5-.4 1-.4.3-1 .3t-1-.3q-.4-.4-.4-1t.4-1q.4-.4 1-.4.5 0 1 .4zm19.1-10.5q.7-1.2 1.8-1.8 1.1-.7 2.4-.7.9 0 1.7.4.8.3 1.4.9.6.5 1 1.3.3.8.3 1.6 0 .7-.3 1.4-.1.6-.5 1.2l-.8 1-.9 1-1.4 1.3-.7.7-.8.9-.7 1q-.4.4-.6 1h6.2l.3-.2.2-.1h.1v1.7h-8.8v-1q1-1.8 2-3.1t2-2.1l1-1q.7-.6 1-1.1l.6-1q.3-.3.3-.7l.1-.8q0-.6-.2-1-.2-.6-.6-1l-1-.6q-.4-.2-1-.2t-1 .2l-1 .4-.5.6-.2.4-.1.3-1.3-1zm17.1-2.5q1.8 0 3.2 1.3l-1.1 1.3-.3-.4q0-.2-.4-.3-.3-.3-.7-.4h-.7l-1.1.2q-.6.2-1.2.8-.6.7-1 1.8-.3 1.1-.4 3 .5-1 1.4-1.4.8-.5 1.8-.5.8 0 1.6.4.7.3 1.3 1 .6.6.9 1.5.3 1 .3 2 0 1.1-.3 2-.4 1-1 1.7-.5.6-1.3 1-.8.3-1.7.3-1.1 0-2-.5-.8-.5-1.4-1.4-.6-.9-1-2.2-.2-1.3-.2-3 0-2 .3-3.5.4-1.5 1.1-2.6.7-1 1.7-1.6 1-.5 2.2-.5zm-3.6 9v.5q0 1 .2 1.7l.7 1.4q.4.6 1 .9.5.3 1.1.3 1 0 1.8-.9.8-.8.8-2.5 0-1-.3-1.6-.2-.7-.6-1-.4-.5-.8-.7l-1-.2q-.8 0-1.6.6t-1.3 1.4zm16 5.6q0 1.9-2.6 4.5l-.8-.7q.7-.6 1.1-1.3.5-.8.5-1.2 0-.3-.2-.5l-.4-.4-.4-.4-.2-.6q0-.6.3-1 .5-.4 1-.4.7 0 1.2.6.5.5.5 1.4z" fill="#2a86c0"/><path d="M69.2 110.8l-1 1.5v-.2l-.1-.2q-.5-.6-1.3-1-.8-.5-1.8-.5h-.9l-.7.4-.5.5q-.2.3-.2.7l.2.5.4.4.9.4q.5.3 1.5.5 2 .6 2.9 1.3.8.8.8 1.9 0 .7-.3 1.4-.3.6-.9 1-.6.6-1.4.9-.9.2-2 .2-2.7 0-4.6-1.7l1-1.7.1.2.2.4.5.5 1.2.6.8.2h1.9l.9-.4q.4-.2.6-.5.3-.4.3-.8 0-.6-.6-1-.6-.5-2.1-1l-1.4-.3-1.3-.6-.7-.6-.5-.8-.2-1q0-.6.3-1.1l1-1 1.3-.6q.7-.2 1.7-.2 2.5 0 4 1.7zm6.2-4.4l1.9-.3-.1.4v.2l-.4 2.6h3.6v1.4h-3.6l-.2 4v2l.3 1.2q.2.5.6.8.4.2 1 .2 1.2 0 2.5-1l.5 1.4q-1.6 1.2-3.4 1.2-1.7 0-2.5-1t-.7-3.4v-2.2l.2-3.2h-2.6v-1.4h2.7l.2-3zm9.6 4.2q1.5-1.5 4-1.5 2 0 3.1 1 1.2 1 1.2 3.4v6.8h-1.6V119q-1.8 1.4-4 1.4-.8 0-1.5-.2l-1.2-.7q-.5-.4-.7-1-.3-.5-.3-1.1 0-1.7 1.5-2.6 1.4-1 4-1h2.2v-.5q0-1.6-.7-2.3-.7-.6-2.2-.6-1.7 0-3 1.2l-.7-1zm6.7 4.5h-1.6q-1.3 0-2.2.2-.8.2-1.3.5t-.7.7l-.1.9q0 .7.6 1.3.7.5 1.7.5.7 0 1.3-.2l1-.5.7-.7.4-.6q.2-.5.2-1.3v-.8zm7.7-8.7l1.9-.3-.1.4v.2l-.4 2.6h3.6v1.4h-3.6l-.2 4v2l.3 1.2q.2.5.6.8.4.2 1 .2 1.2 0 2.5-1l.5 1.4q-1.6 1.2-3.4 1.2-1.7 0-2.5-1t-.7-3.4v-2.2l.2-3.2h-2.6v-1.4h2.7l.2-3zm9 2.9h1.7v6.1q0 1 .2 1.8.2.7.5 1.1.4.5.8.7l1 .2q.6 0 1.1-.3l1-.7q.4-.5.6-1.2.3-.7.3-1.6v-6h1.7v9.9l.1 1h-1.8v-1.7q-.5 1-1.5 1.4-.8.5-2 .5-.8 0-1.4-.2-.7-.4-1.3-1-.5-.6-.8-1.6-.2-1-.2-2.3v-6zm20.8 1.5l-1 1.5v-.2l-.1-.2q-.5-.6-1.3-1-.8-.5-1.8-.5h-.9l-.7.4-.5.5q-.2.3-.2.7l.2.5.4.4.9.4q.5.3 1.5.5 2 .6 2.9 1.3.8.8.8 1.9 0 .7-.3 1.4-.3.6-.9 1-.6.6-1.4.9-.9.2-2 .2-2.7 0-4.6-1.7l1-1.7.1.2.2.4.5.5 1.2.6.8.2h1.9l.9-.4q.4-.2.6-.5.3-.4.3-.8 0-.6-.6-1-.6-.5-2.1-1l-1.4-.3-1.3-.6-.7-.6-.5-.8-.2-1q0-.6.3-1.1l1-1 1.3-.6q.7-.2 1.7-.2 2.5 0 4 1.7z" fill="#173182"/><path d="M137.6 110.5q.4.5.4 1 0 .6-.4 1t-1 .4q-.6 0-1-.4t-.4-1q0-.6.4-1t1-.4q.5 0 1 .4zm0 7.7q.4.4.4 1 0 .5-.4 1-.4.3-1 .3t-1-.3q-.4-.4-.4-1t.4-1q.4-.4 1-.4.5 0 1 .4zm24.8-11.1l-.1-1.5q0-.7.3-1 .3-.3.7-.3.4 0 .8.4.3.3.3 1.1t-.8 3l-.6 1.6-1.3-.3.5-1.6.2-1.4zm-4.1 0l-.2-1.5q0-.7.3-1 .4-.3.8-.3t.7.4q.3.3.3 1.1t-.7 3l-.6 1.6-1.4-.3.6-1.6.1-.7.1-.7zm8.9 13.2l5.3-15.2h.2l5.8 15.2h-1.8l-1.6-4.4h-4.8l-1.4 4.4h-1.7zm7.5-5.7l-2.1-5.7-2 5.7h4zm11.7-7.5l-.1-1.5q0-.7.3-1 .3-.3.7-.3.4 0 .8.4.3.3.3 1.1t-.8 3l-.6 1.6-1.3-.3.5-1.6.2-1.4zm-4.1 0l-.2-1.5q0-.7.3-1 .4-.3.8-.3t.7.4q.3.3.3 1.1t-.7 3l-.6 1.6-1.4-.3.6-1.6.1-.7.1-.7zm15.9 12.7q0 1.9-2.6 4.5l-.8-.7q.7-.6 1.1-1.3.5-.8.5-1.2 0-.3-.2-.5l-.4-.4-.4-.4-.2-.6q0-.6.3-1 .5-.4 1-.4.7 0 1.2.6.5.5.5 1.4z" fill="#2a86c0"/><path d="M62.6 137q-.4.4-.5.8l-.2 1 .2.9.5.8.8.5.9.1 1-.1q.4-.2.7-.6l.5-.7.2-1-.2-.9-.5-.8-.8-.5q-.4-.2-1-.2-.9 0-1.6.7zm4.4-1q1.2-1 2.7-1h.4l.2 1.4h-.7q-1 0-1.9.5.6.9.6 1.9 0 .7-.3 1.4t-.9 1.2l-1.2.9-1.6.2-1.4-.2q-.7.7-.7 1.2 0 .4.4.7.5.2 1.3.2h1.8l1.9.1q.7.2 1.2.6.5.4.7.9.3.5.3 1 0 .7-.3 1.3-.3.6-1 1-.6.6-1.5.8-1 .3-2.3.3-1.3 0-2.2-.2-1-.2-1.5-.6-.6-.3-1-.8l-.2-1q0-1.3 1.8-2.4-1-.5-1-1.5t1.3-2q-.7-.6-1.2-1.4-.4-.8-.4-1.7 0-.8.3-1.5.4-.7 1-1.2.5-.5 1.2-.8.8-.3 1.5-.3 1.6 0 2.7 1zm-4.3 9.7q-1.3.8-1.3 1.7 0 .5.2.8l.8.5 1 .3 1.4.1q1.5 0 2.4-.5 1-.5 1-1.4 0-.7-.5-1-.5-.4-1.6-.4h-3.4zm10.5-10.4H75v2.1q.5-1.1 1.6-1.7 1-.6 2.3-.6 1.8 0 3 1.2l-.8 1.6-.5-.6-.5-.4-.5-.3h-.8q-.8 0-1.5.3l-1.2 1q-.5.6-.8 1.4-.3.8-.3 1.7v5.3h-1.8v-11zM89 135q1 0 1.9.5.9.4 1.5 1.1.7.8 1.1 1.8.4 1 .4 2.4t-.4 2.4q-.4 1-1 1.8-.7.8-1.6 1.2-1 .4-2 .4t-2-.5q-.9-.4-1.6-1.1-.7-.8-1-1.9-.5-1-.5-2.2 0-1.3.4-2.3.5-1.1 1.2-1.9.7-.7 1.6-1.2 1-.4 2-.4zm3.2 5.9q0-1-.3-1.9-.3-.8-.7-1.3-.5-.6-1-.9-.7-.3-1.3-.3-.7 0-1.3.3-.5.3-1 .9-.4.5-.7 1.3-.2.8-.2 1.8t.2 1.7l.7 1.4q.5.6 1 .9.7.3 1.3.3.7 0 1.3-.3.6-.3 1-.8.5-.5.7-1.3.3-.8.3-1.8zm4.2-5.6H98v6.1q0 1 .2 1.8.2.7.5 1.1.4.5.8.7l1 .2q.6 0 1.1-.3l1-.7q.4-.5.6-1.2.3-.7.3-1.6v-6h1.7v9.9l.1 1h-1.8v-1.7q-.5 1-1.5 1.4-.8.5-2 .5-.8 0-1.4-.2-.7-.4-1.3-1-.5-.6-.8-1.6-.2-1-.2-2.3v-6zm11.9 0h1.8v1.7q.5-.9 1.4-1.4 1-.5 1.9-.5 1 0 1.7.3.9.4 1.5 1 .6.8 1 1.8t.4 2.5q0 1.5-.4 2.6-.4 1-1 1.8-.7.7-1.5 1.1-.9.4-1.7.4-1 0-1.9-.5-.9-.4-1.4-1.3v5.5h-1.8v-15zm1.8 6.4q0 1.8.8 2.6.7.7 1.9.7l1.2-.2q.6-.1 1-.6.6-.5.9-1.3.3-.7.3-1.9 0-2-1-3.2-.8-1.2-2.4-1.3l-1 .2-.9.6-.6 1q-.2.8-.2 1.8v1.6zm19.1-4.9l-1 1.5v-.2l-.1-.2q-.5-.6-1.3-1-.8-.5-1.8-.5h-.9l-.7.4-.5.5q-.2.3-.2.7l.2.5.4.4.9.4q.5.3 1.5.5 2 .6 2.9 1.3.8.8.8 1.9 0 .7-.3 1.4-.3.6-.9 1-.6.6-1.4.9-.9.2-2 .2-2.7 0-4.6-1.7l1-1.7.1.2.2.4.5.5 1.2.6.8.2h1.9l.9-.4q.4-.2.6-.5.3-.4.3-.8 0-.6-.6-1-.6-.5-2.1-1l-1.4-.3-1.3-.6-.7-.6-.5-.8-.2-1q0-.6.3-1.1l1-1 1.3-.6q.7-.2 1.7-.2 2.5 0 4 1.7z" fill="#173182"/><path d="M137.6 136.5q.4.5.4 1 0 .6-.4 1t-1 .4q-.6 0-1-.4t-.4-1q0-.6.4-1t1-.4q.5 0 1 .4zm0 7.7q.4.4.4 1 0 .5-.4 1-.4.3-1 .3t-1-.3q-.4-.4-.4-1t.4-1q.4-.4 1-.4.5 0 1 .4zm20.4-14h6.9v1.4h-5.4v15.5h5.4v1.3H158v-18.2zm28.4 2.9l-.1-1.5q0-.7.3-1 .3-.3.7-.3.4 0 .8.4.3.3.3 1.1t-.8 3l-.6 1.6-1.3-.3.5-1.6.2-1.4zm-4.1 0l-.2-1.5q0-.7.3-1 .4-.3.8-.3t.7.4q.3.3.3 1.1t-.7 3l-.6 1.6-1.4-.3.6-1.6.1-.7.1-.7zm10.2 13.2v-11h1.8v2q.6-1 1.6-1.6 1-.6 2-.6.7 0 1.3.2.6.3 1 .8.5.6.8 1.4.2.9.2 2.1v6.7h-1.7v-6.6q0-1.7-.6-2.4-.5-.7-1.4-.7l-1.1.2q-.6.2-1 .7-.5.4-.8 1-.3.7-.3 1.5v6.3h-1.8zM209 135q1 0 1.8.4.8.3 1.4 1 .6.5 1 1.5.3 1 .3 2.4v.8h-7.8q0 1.1.4 1.9.3.8.9 1.2.5.5 1.1.7l1.3.2q1.7 0 2.9-1.2l1 1q-1.5 1.6-3.9 1.6-1.2 0-2.2-.3-1-.4-1.7-1.1-.7-.8-1-1.8-.5-1.1-.5-2.5t.4-2.4q.4-1.1 1.1-1.8.7-.8 1.6-1.2 1-.3 2-.3zm-3.2 4.7h6v-.4q0-.6-.2-1.1-.2-.6-.6-1l-1-.6q-.4-.2-1-.2-1.2 0-2 .8-1 .8-1.2 2.5zm9.5-4.4h1.7v.9l1.5 8 2-7.9h1l2.3 7.8.5-3.5.3-2.2.2-1.5v-1.6h1.6q-.3 2.8-.8 5.5l-1 5.5H223l-2-7.1-2 7.1h-1.5l-2.2-11zm21.9 1.5l-1 1.5v-.2l-.1-.2q-.5-.6-1.3-1-.8-.5-1.8-.5h-.9l-.7.4-.5.5q-.2.3-.2.7l.2.5.4.4.9.4q.5.3 1.5.5 2 .6 2.9 1.3.8.8.8 1.9 0 .7-.3 1.4-.3.6-.9 1-.6.6-1.4.9-.9.2-2 .2-2.7 0-4.6-1.7l1-1.7.1.2.2.4.5.5 1.2.6.8.2h1.9l.9-.4q.4-.2.6-.5.3-.4.3-.8 0-.6-.6-1-.6-.5-2.1-1l-1.4-.3-1.3-.6-.7-.6-.5-.8-.2-1q0-.6.3-1.1l1-1 1.3-.6q.7-.2 1.7-.2 2.5 0 4 1.7zm9.2-3.7l-.1-1.5q0-.7.3-1 .3-.3.7-.3.4 0 .8.4.3.3.3 1.1t-.8 3l-.6 1.6-1.3-.3.5-1.6.2-1.4zm-4.1 0l-.2-1.5q0-.7.3-1 .4-.3.8-.3t.7.4q.3.3.3 1.1t-.7 3l-.6 1.6-1.4-.3.6-1.6.1-.7.1-.7zm15.9 12.7q0 1.9-2.6 4.5l-.8-.7q.7-.6 1.1-1.3.5-.8.5-1.2 0-.3-.2-.5l-.4-.4-.4-.4-.2-.6q0-.6.3-1 .5-.4 1-.4.7 0 1.2.6.5.5.5 1.4zm24.2-12.7l-.1-1.5q0-.7.3-1 .3-.3.7-.3.4 0 .8.4.3.3.3 1.1t-.8 3l-.6 1.6-1.3-.3.5-1.6.2-1.4zm-4.1 0l-.2-1.5q0-.7.3-1 .4-.3.8-.3t.7.4q.3.3.3 1.1t-.7 3l-.6 1.6-1.4-.3.6-1.6.1-.7.1-.7zm18.9 3.7l-1 1.5v-.2l-.1-.2q-.5-.6-1.3-1-.8-.5-1.8-.5h-.9l-.7.4-.5.5q-.2.3-.2.7l.2.5.4.4.9.4q.5.3 1.5.5 2 .6 2.9 1.3.8.8.8 1.9 0 .7-.3 1.4-.3.6-.9 1-.6.6-1.4.9-.9.2-2 .2-2.7 0-4.6-1.7l1-1.7.1.2.2.4.5.5 1.2.6.8.2h1.9l.9-.4q.4-.2.6-.5.3-.4.3-.8 0-.6-.6-1-.6-.5-2.1-1l-1.4-.3-1.3-.6-.7-.6-.5-.8-.2-1q0-.6.3-1.1l1-1 1.3-.6q.7-.2 1.7-.2 2.5 0 4 1.7zm3.1-1.5h1.8v1.7q.5-.9 1.4-1.4 1-.5 1.9-.5 1 0 1.7.3.9.4 1.5 1 .6.8 1 1.8t.4 2.5q0 1.5-.4 2.6-.4 1-1 1.8-.7.7-1.5 1.1-.9.4-1.7.4-1 0-1.9-.5-.9-.4-1.4-1.3v5.5h-1.8v-15zm1.8 6.4q0 1.8.8 2.6.7.7 1.9.7l1.2-.2q.6-.1 1-.6.6-.5.9-1.3.3-.7.3-1.9 0-2-1-3.2-.8-1.2-2.4-1.3l-1 .2-.9.6-.6 1q-.2.8-.2 1.8v1.6zM317 135q1 0 1.9.5.9.4 1.5 1.1.7.8 1.1 1.8.4 1 .4 2.4t-.4 2.4q-.4 1-1 1.8-.7.8-1.6 1.2-1 .4-2 .4t-2-.5q-.9-.4-1.6-1.1-.7-.8-1-1.9-.5-1-.5-2.2 0-1.3.4-2.3.5-1.1 1.2-1.9.7-.7 1.6-1.2 1-.4 2-.4zm3.2 5.9q0-1-.3-1.9-.3-.8-.7-1.3-.5-.6-1-.9-.7-.3-1.3-.3-.7 0-1.3.3-.5.3-1 .9-.4.5-.7 1.3-.2.8-.2 1.8t.2 1.7l.7 1.4q.5.6 1 .9.7.3 1.3.3.7 0 1.3-.3.6-.3 1-.8.5-.5.7-1.3.3-.8.3-1.8zm5-5.6h1.8v2.1q.5-1.1 1.6-1.7 1-.6 2.3-.6 1.8 0 3 1.2l-.8 1.6-.5-.6-.5-.4-.5-.3h-.8q-.8 0-1.5.3l-1.2 1q-.5.6-.8 1.4-.3.8-.3 1.7v5.3h-1.8v-11zm14.2-2.9l1.9-.3-.1.4v.2l-.4 2.6h3.6v1.4h-3.6l-.2 4v2l.3 1.2q.2.5.6.8.4.2 1 .2 1.2 0 2.5-1l.5 1.4q-1.6 1.2-3.4 1.2-1.7 0-2.5-1t-.7-3.4v-2.2l.2-3.2h-2.6v-1.4h2.7l.2-3zm17.8 4.4l-1 1.5v-.2l-.1-.2q-.5-.6-1.3-1-.8-.5-1.8-.5h-.9l-.7.4-.5.5q-.2.3-.2.7l.2.5.4.4.9.4q.5.3 1.5.5 2 .6 2.9 1.3.8.8.8 1.9 0 .7-.3 1.4-.3.6-.9 1-.6.6-1.4.9-.9.2-2 .2-2.7 0-4.6-1.7l1-1.7.1.2.2.4.5.5 1.2.6.8.2h1.9l.9-.4q.4-.2.6-.5.3-.4.3-.8 0-.6-.6-1-.6-.5-2.1-1l-1.4-.3-1.3-.6-.7-.6-.5-.8-.2-1q0-.6.3-1.1l1-1 1.3-.6q.7-.2 1.7-.2 2.5 0 4 1.7zm9.2-3.7l-.1-1.5q0-.7.3-1 .3-.3.7-.3.4 0 .8.4.3.3.3 1.1t-.8 3l-.6 1.6-1.3-.3.5-1.6.2-1.4zm-4.1 0l-.2-1.5q0-.7.3-1 .4-.3.8-.3t.7.4q.3.3.3 1.1t-.7 3l-.6 1.6-1.4-.3.6-1.6.1-.7.1-.7zm29.4-2.9v18.2H385v-1.3h5.3v-15.5H385v-1.4h6.8z" fill="#2a86c0"/><path d="M43 161.2v1.7q0 1.4.5 2 .6.6 1.6.6h.5v1.3h-.5q-1 0-1.6.6-.5.5-.5 2.1v2.4q0 2.1-1 3.2-.9 1-3 1h-1.9v-1.3h2.2q.3 0 .5-.2h.3l.3-.3q1-.6 1-2.4l-.1-2q0-3 2-3.8-2-.8-2-3.5v-1.7q0-1.4-.6-2-.6-.5-1.8-.5H37V157h2.4q1 .1 1.7.6.8.4 1.3 1.3.5.8.5 2.3z" fill="#5ca831"/></g><path d="M602.9 354.4v.4" stroke="#5ca831" stroke-width="2" fill="none"/><path d="M82.5 40.5h432.4v184.2H82.5z" fill="#fff"/><path d="M82.5 40.5h432.4v184.2H82.5z" stroke="#5ca831" stroke-width="2" fill="none"/><g font-size="24" font-family="Inconsolata"><path d="M109.7 72.9v-2.4q0-1.6-.5-2.1-.5-.6-1.6-.6h-.5v-1.3h.5q1.1 0 1.7-.6.5-.6.5-2v-1.7q0-4.2 4.3-4.2h1.6v1.4h-2q-2.2 0-2.2 2.5v1.7q0 2.7-2 3.5 2 .7 2 3.8l-.1 2q0 1.6.7 2.2.7.7 2.3.7h1.2V77h-.8l-2.1-.1q-1 0-1.7-.6-1.3-1-1.3-3.5z" fill="#5ca831"/><path d="M131.5 99.3v-11h1.8v2q.6-1 1.6-1.6 1-.6 2-.6.7 0 1.3.2.6.3 1 .8.5.6.8 1.4.2.9.2 2.1v6.7h-1.7v-6.6q0-1.7-.6-2.4-.5-.7-1.4-.7l-1.1.2q-.6.2-1 .7-.5.4-.8 1-.3.7-.3 1.5v6.3h-1.8zm12.5-9.7q1.5-1.5 4-1.5 2 0 3.1 1 1.2 1 1.2 3.4v6.8h-1.6V98q-1.8 1.4-4 1.4-.8 0-1.5-.2l-1.2-.7q-.5-.4-.7-1-.3-.5-.3-1.1 0-1.7 1.5-2.6 1.4-1 4-1h2.2v-.5q0-1.6-.7-2.3-.7-.6-2.2-.6-1.7 0-3 1.2l-.7-1zm6.7 4.5h-1.6q-1.3 0-2.2.2-.8.2-1.3.5t-.7.7l-.1.9q0 .7.6 1.3.7.5 1.7.5.7 0 1.3-.2l1-.5.7-.7.4-.6q.2-.5.2-1.3V94zm4.1 5.2v-11h1.6v1q.3-.5 1-.9.5-.3 1.2-.3t1.2.4q.6.5.7 1.2.4-.8 1-1.2.7-.4 1.5-.4 1.1 0 1.6.8.6.8.5 2v8.4h-1.6v-9l-.3-.6q-.1-.3-.3-.3h-.4q-.4 0-.7.2-.3.2-.5.6-.3.4-.4.9l-.1 1v7.2H159v-7.6q0-1.4-.2-1.9-.3-.4-.9-.4-.6 0-1.1.7-.5.6-.5 1.9v7.3h-1.6zM172 88q1 0 1.8.4.8.3 1.4 1 .6.5 1 1.5.3 1 .3 2.4v.8h-7.8q0 1.1.4 1.9.3.8.9 1.2.5.5 1.1.7l1.3.2q1.7 0 2.9-1.2l1 1q-1.5 1.6-3.9 1.6-1.2 0-2.2-.3-1-.4-1.7-1.1-.7-.8-1-1.8-.5-1.1-.5-2.5t.4-2.4q.4-1.1 1.1-1.8.7-.8 1.6-1.2 1-.3 2-.3zm-3.2 4.7h6v-.4q0-.6-.2-1.1-.2-.6-.6-1l-1-.6q-.4-.2-1-.2-1.2 0-2 .8-1 .8-1.2 2.5z" fill="#173182"/><path d="M184.6 89.5q.4.5.4 1 0 .6-.4 1t-1 .4q-.6 0-1-.4t-.4-1q0-.6.4-1t1-.4q.5 0 1 .4zm0 7.7q.4.4.4 1 0 .5-.4 1-.4.3-1 .3t-1-.3q-.4-.4-.4-1t.4-1q.4-.4 1-.4.5 0 1 .4zm24.8-11.1l-.1-1.5q0-.7.3-1 .3-.3.7-.3.4 0 .8.4.3.3.3 1.1t-.8 3l-.6 1.6-1.3-.3.5-1.6.2-1.4zm-4.1 0l-.2-1.5q0-.7.3-1 .4-.3.8-.3t.7.4q.3.3.3 1.1t-.7 3l-.6 1.6-1.4-.3.6-1.6.1-.7.1-.7zm10.7-2.8h4.8V98h3.2v1.4h-8.2V98h3.2V84.7h-3v-1.4zm16 4.7q1 0 1.8.4.8.3 1.4 1 .6.5 1 1.5.3 1 .3 2.4v.8h-7.8q0 1.1.4 1.9.3.8.9 1.2.5.5 1.1.7l1.3.2q1.7 0 2.9-1.2l1 1q-1.5 1.6-3.9 1.6-1.2 0-2.2-.3-1-.4-1.7-1.1-.7-.8-1-1.8-.5-1.1-.5-2.5t.4-2.4q.4-1.1 1.1-1.8.7-.8 1.6-1.2 1-.3 2-.3zm-3.2 4.7h6v-.4q0-.6-.2-1.1-.2-.6-.6-1l-1-.6q-.4-.2-1-.2-1.2 0-2 .8-1 .8-1.2 2.5zM244 88q1 0 1.8.4.8.3 1.4 1 .6.5 1 1.5.3 1 .3 2.4v.8h-7.8q0 1.1.4 1.9.3.8.9 1.2.5.5 1.1.7l1.3.2q1.7 0 2.9-1.2l1 1q-1.5 1.6-3.9 1.6-1.2 0-2.2-.3-1-.4-1.7-1.1-.7-.8-1-1.8-.5-1.1-.5-2.5t.4-2.4q.4-1.1 1.1-1.8.7-.8 1.6-1.2 1-.3 2-.3zm-3.2 4.7h6v-.4q0-.6-.2-1.1-.2-.6-.6-1l-1-.6q-.4-.2-1-.2-1.2 0-2 .8-1 .8-1.2 2.5zm16.6-6.6l-.1-1.5q0-.7.3-1 .3-.3.7-.3.4 0 .8.4.3.3.3 1.1t-.8 3l-.6 1.6-1.3-.3.5-1.6.2-1.4zm-4.1 0l-.2-1.5q0-.7.3-1 .4-.3.8-.3t.7.4q.3.3.3 1.1t-.7 3l-.6 1.6-1.4-.3.6-1.6.1-.7.1-.7zm15.9 12.7q0 1.9-2.6 4.5l-.8-.7q.7-.6 1.1-1.3.5-.8.5-1.2 0-.3-.2-.5l-.4-.4-.4-.4-.2-.6q0-.6.3-1 .5-.4 1-.4.7 0 1.2.6.5.5.5 1.4z" fill="#2a86c0"/><path d="M132 115.6q1.5-1.5 4-1.5 2 0 3.1 1 1.2 1 1.2 3.4v6.8h-1.6V124q-1.8 1.4-4 1.4-.8 0-1.5-.2l-1.2-.7q-.5-.4-.7-1-.3-.5-.3-1.1 0-1.7 1.5-2.6 1.4-1 4-1h2.2v-.5q0-1.6-.7-2.3-.7-.6-2.2-.6-1.7 0-3 1.2l-.7-1zm6.7 4.5h-1.6q-1.3 0-2.2.2-.8.2-1.3.5t-.7.7l-.1.9q0 .7.6 1.3.7.5 1.7.5.7 0 1.3-.2l1-.5.7-.7.4-.6q.2-.5.2-1.3v-.8zm6.9-4.1q-.4.4-.5.8l-.2 1 .2.9.5.8.8.5.9.1 1-.1q.4-.2.7-.6l.5-.7.2-1-.2-.9-.5-.8-.8-.5q-.4-.2-1-.2-.9 0-1.6.7zm4.4-1q1.2-1 2.7-1h.4l.2 1.4h-.7q-1 0-1.9.5.6.9.6 1.9 0 .7-.3 1.4t-.9 1.2l-1.2.9-1.6.2-1.4-.2q-.7.7-.7 1.2 0 .4.4.7.5.2 1.3.2h1.8l1.9.1q.7.2 1.2.6.5.4.7.9.3.5.3 1 0 .7-.3 1.3-.3.6-1 1-.6.6-1.5.8-1 .3-2.3.3-1.3 0-2.2-.2-1-.2-1.5-.6-.6-.3-1-.8l-.2-1q0-1.3 1.8-2.4-1-.5-1-1.5t1.3-2q-.7-.6-1.2-1.4-.4-.8-.4-1.7 0-.8.3-1.5.4-.7 1-1.2.5-.5 1.2-.8.8-.3 1.5-.3 1.6 0 2.7 1zm-4.3 9.7q-1.3.8-1.3 1.7 0 .5.2.8l.8.5 1 .3 1.4.1q1.5 0 2.4-.5 1-.5 1-1.4 0-.7-.5-1-.5-.4-1.6-.4h-3.4zM160 114q1 0 1.8.4.8.3 1.4 1 .6.5 1 1.5.3 1 .3 2.4v.8h-7.8q0 1.1.4 1.9.3.8.9 1.2.5.5 1.1.7l1.3.2q1.7 0 2.9-1.2l1 1q-1.5 1.6-3.9 1.6-1.2 0-2.2-.3-1-.4-1.7-1.1-.7-.8-1-1.8-.5-1.1-.5-2.5t.4-2.4q.4-1.1 1.1-1.8.7-.8 1.6-1.2 1-.3 2-.3zm-3.2 4.7h6v-.4q0-.6-.2-1.1-.2-.6-.6-1l-1-.6q-.4-.2-1-.2-1.2 0-2 .8-1 .8-1.2 2.5z" fill="#173182"/><path d="M172.6 115.5q.4.5.4 1 0 .6-.4 1t-1 .4q-.6 0-1-.4t-.4-1q0-.6.4-1t1-.4q.5 0 1 .4zm0 7.7q.4.4.4 1 0 .5-.4 1-.4.3-1 .3t-1-.3q-.4-.4-.4-1t.4-1q.4-.4 1-.4.5 0 1 .4zm19.1-10.5q.7-1.2 1.8-1.8 1.1-.7 2.4-.7.9 0 1.7.4.8.3 1.4.9.6.5 1 1.3.3.8.3 1.6 0 .7-.3 1.4-.1.6-.5 1.2l-.8 1-.9 1-1.4 1.3-.7.7-.8.9-.7 1q-.4.4-.6 1h6.2l.3-.2.2-.1h.1v1.7h-8.8v-1q1-1.8 2-3.1t2-2.1l1-1q.7-.6 1-1.1l.6-1q.3-.3.3-.7l.1-.8q0-.6-.2-1-.2-.6-.6-1l-1-.6q-.4-.2-1-.2t-1 .2l-1 .4-.5.6-.2.4-.1.3-1.3-1zm20.3 1q0 1-.7 2-.6 1-1.7 1.6 1.3.6 2 1.7.9 1.1.9 2.4 0 .9-.4 1.7-.4.7-1 1.2-.6.6-1.4 1l-1.8.2q-1 0-1.8-.3-.9-.3-1.5-.8-.6-.6-1-1.3-.3-.7-.3-1.6 0-1.3.8-2.4.8-1.1 2.2-1.8-1-.5-1.6-1.4-.7-1-.7-2 0-.8.3-1.5l.9-1.2q.6-.5 1.3-.8.7-.3 1.5-.3.9 0 1.6.3.7.3 1.2.8t.8 1.1q.3.7.3 1.4zm-4.4 4.3q-1.1.5-1.8 1.4-.8.9-.8 2 0 .5.3 1 .2.5.6.8.4.4.9.6.5.2 1.1.2.6 0 1.1-.2l1-.5.5-.8.2-1q0-1.2-.8-2.1-.9-1-2.3-1.4zm-1.6-3q.3.5.8.8l1 .7.5.2q.9-.5 1.4-1.3.6-.8.6-1.7l-.2-.8q-.1-.4-.5-.7l-.7-.5-1-.1-.9.1-.7.5-.5.7-.2.8q0 .7.4 1.3zm15.2 9.8q0 1.9-2.6 4.5l-.8-.7q.7-.6 1.1-1.3.5-.8.5-1.2 0-.3-.2-.5l-.4-.4-.4-.4-.2-.6q0-.6.3-1 .5-.4 1-.4.7 0 1.2.6.5.5.5 1.4z" fill="#2a86c0"/><path d="M140.2 141.8l-1 1.5v-.2l-.1-.2q-.5-.6-1.3-1-.8-.5-1.8-.5h-.9l-.7.4-.5.5q-.2.3-.2.7l.2.5.4.4.9.4q.5.3 1.5.5 2 .6 2.9 1.3.8.8.8 1.9 0 .7-.3 1.4-.3.6-.9 1-.6.6-1.4.9-.9.2-2 .2-2.7 0-4.6-1.7l1-1.7.1.2.2.4.5.5 1.2.6.8.2h1.9l.9-.4q.4-.2.6-.5.3-.4.3-.8 0-.6-.6-1-.6-.5-2.1-1l-1.4-.3-1.3-.6-.7-.6-.5-.8-.2-1q0-.6.3-1.1l1-1 1.3-.6q.7-.2 1.7-.2 2.5 0 4 1.7zm6.2-4.4l1.9-.3-.1.4v.2l-.4 2.6h3.6v1.4h-3.6l-.2 4v2l.3 1.2q.2.5.6.8.4.2 1 .2 1.2 0 2.5-1l.5 1.4q-1.6 1.2-3.4 1.2-1.7 0-2.5-1t-.7-3.4v-2.2l.2-3.2h-2.6v-1.4h2.7l.2-3zm9.6 4.2q1.5-1.5 4-1.5 2 0 3.1 1 1.2 1 1.2 3.4v6.8h-1.6V150q-1.8 1.4-4 1.4-.8 0-1.5-.2l-1.2-.7q-.5-.4-.7-1-.3-.5-.3-1.1 0-1.7 1.5-2.6 1.4-1 4-1h2.2v-.5q0-1.6-.7-2.3-.7-.6-2.2-.6-1.7 0-3 1.2l-.7-1zm6.7 4.5h-1.6q-1.3 0-2.2.2-.8.2-1.3.5t-.7.7l-.1.9q0 .7.6 1.3.7.5 1.7.5.7 0 1.3-.2l1-.5.7-.7.4-.6q.2-.5.2-1.3v-.8zm7.7-8.7l1.9-.3-.1.4v.2l-.4 2.6h3.6v1.4h-3.6l-.2 4v2l.3 1.2q.2.5.6.8.4.2 1 .2 1.2 0 2.5-1l.5 1.4q-1.6 1.2-3.4 1.2-1.7 0-2.5-1t-.7-3.4v-2.2l.2-3.2h-2.6v-1.4h2.7l.2-3zm9 2.9h1.7v6.1q0 1 .2 1.8.2.7.5 1.1.4.5.8.7l1 .2q.6 0 1.1-.3l1-.7q.4-.5.6-1.2.3-.7.3-1.6v-6h1.7v9.9l.1 1h-1.8v-1.7q-.5 1-1.5 1.4-.8.5-2 .5-.8 0-1.4-.2-.7-.4-1.3-1-.5-.6-.8-1.6-.2-1-.2-2.3v-6zm20.8 1.5l-1 1.5v-.2l-.1-.2q-.5-.6-1.3-1-.8-.5-1.8-.5h-.9l-.7.4-.5.5q-.2.3-.2.7l.2.5.4.4.9.4q.5.3 1.5.5 2 .6 2.9 1.3.8.8.8 1.9 0 .7-.3 1.4-.3.6-.9 1-.6.6-1.4.9-.9.2-2 .2-2.7 0-4.6-1.7l1-1.7.1.2.2.4.5.5 1.2.6.8.2h1.9l.9-.4q.4-.2.6-.5.3-.4.3-.8 0-.6-.6-1-.6-.5-2.1-1l-1.4-.3-1.3-.6-.7-.6-.5-.8-.2-1q0-.6.3-1.1l1-1 1.3-.6q.7-.2 1.7-.2 2.5 0 4 1.7z" fill="#173182"/><path d="M208.6 141.5q.4.5.4 1 0 .6-.4 1t-1 .4q-.6 0-1-.4t-.4-1q0-.6.4-1t1-.4q.5 0 1 .4zm0 7.7q.4.4.4 1 0 .5-.4 1-.4.3-1 .3t-1-.3q-.4-.4-.4-1t.4-1q.4-.4 1-.4.5 0 1 .4zm24.8-11.1l-.1-1.5q0-.7.3-1 .3-.3.7-.3.4 0 .8.4.3.3.3 1.1t-.8 3l-.6 1.6-1.3-.3.5-1.6.2-1.4zm-4.1 0l-.2-1.5q0-.7.3-1 .4-.3.8-.3t.7.4q.3.3.3 1.1t-.7 3l-.6 1.6-1.4-.3.6-1.6.1-.7.1-.7zm10-1.8h4.8q1.2 0 2.1.4.9.3 1.4.9.6.6.9 1.3.3.8.3 1.7 0 .8-.3 1.6-.3.7-.8 1.3l-1.4.9q-.9.3-2.1.3H241v6.6h-1.7v-15zm1.7 1.6v5.3h3q1.6 0 2.3-.7.7-.7.8-1.9 0-.5-.3-1-.1-.5-.5-.9-.3-.4-1-.6-.5-.2-1.3-.2h-3zm16.4.2l-.1-1.5q0-.7.3-1 .3-.3.7-.3.4 0 .8.4.3.3.3 1.1t-.8 3l-.6 1.6-1.3-.3.5-1.6.2-1.4zm-4.1 0l-.2-1.5q0-.7.3-1 .4-.3.8-.3t.7.4q.3.3.3 1.1t-.7 3l-.6 1.6-1.4-.3.6-1.6.1-.7.1-.7zm15.9 12.7q0 1.9-2.6 4.5l-.8-.7q.7-.6 1.1-1.3.5-.8.5-1.2 0-.3-.2-.5l-.4-.4-.4-.4-.2-.6q0-.6.3-1 .5-.4 1-.4.7 0 1.2.6.5.5.5 1.4z" fill="#2a86c0"/><path d="M133.6 168q-.4.4-.5.8l-.2 1 .2.9.5.8.8.5.9.1 1-.1q.4-.2.7-.6l.5-.7.2-1-.2-.9-.5-.8-.8-.5q-.4-.2-1-.2-.9 0-1.6.7zm4.4-1q1.2-1 2.7-1h.4l.2 1.4h-.7q-1 0-1.9.5.6.9.6 1.9 0 .7-.3 1.4t-.9 1.2l-1.2.9-1.6.2-1.4-.2q-.7.7-.7 1.2 0 .4.4.7.5.2 1.3.2h1.8l1.9.1q.7.2 1.2.6.5.4.7.9.3.5.3 1 0 .7-.3 1.3-.3.6-1 1-.6.6-1.5.8-1 .3-2.3.3-1.3 0-2.2-.2-1-.2-1.5-.6-.6-.3-1-.8l-.2-1q0-1.3 1.8-2.4-1-.5-1-1.5t1.3-2q-.7-.6-1.2-1.4-.4-.8-.4-1.7 0-.8.3-1.5.4-.7 1-1.2.5-.5 1.2-.8.8-.3 1.5-.3 1.6 0 2.7 1zm-4.3 9.7q-1.3.8-1.3 1.7 0 .5.2.8l.8.5 1 .3 1.4.1q1.5 0 2.4-.5 1-.5 1-1.4 0-.7-.5-1-.5-.4-1.6-.4h-3.4zm10.5-10.4h1.8v2.1q.5-1.1 1.6-1.7 1-.6 2.3-.6 1.8 0 3 1.2l-.8 1.6-.5-.6-.5-.4-.5-.3h-.8q-.8 0-1.5.3l-1.2 1q-.5.6-.8 1.4-.3.8-.3 1.7v5.3h-1.8v-11zm15.8-.3q1 0 1.9.5.9.4 1.5 1.1.7.8 1.1 1.8.4 1 .4 2.4t-.4 2.4q-.4 1-1 1.8-.7.8-1.6 1.2-1 .4-2 .4t-2-.5q-.9-.4-1.6-1.1-.7-.8-1-1.9-.5-1-.5-2.2 0-1.3.4-2.3.5-1.1 1.2-1.9.7-.7 1.6-1.2 1-.4 2-.4zm3.2 5.9q0-1-.3-1.9-.3-.8-.7-1.3-.5-.6-1-.9-.7-.3-1.3-.3-.7 0-1.3.3-.5.3-1 .9-.4.5-.7 1.3-.2.8-.2 1.8t.2 1.7l.7 1.4q.5.6 1 .9.7.3 1.3.3.7 0 1.3-.3.6-.3 1-.8.5-.5.7-1.3.3-.8.3-1.8zm4.2-5.6h1.7v6.1q0 1 .2 1.8.2.7.5 1.1.4.5.8.7l1 .2q.6 0 1.1-.3l1-.7q.4-.5.6-1.2.3-.7.3-1.6v-6h1.7v9.9l.1 1h-1.8v-1.7q-.5 1-1.5 1.4-.8.5-2 .5-.8 0-1.4-.2-.7-.4-1.3-1-.5-.6-.8-1.6-.2-1-.2-2.3v-6zm11.9 0h1.8v1.7q.5-.9 1.4-1.4 1-.5 1.9-.5 1 0 1.7.3.9.4 1.5 1 .6.8 1 1.8t.4 2.5q0 1.5-.4 2.6-.4 1-1 1.8-.7.7-1.5 1.1-.9.4-1.7.4-1 0-1.9-.5-.9-.4-1.4-1.3v5.5h-1.8v-15zm1.8 6.4q0 1.8.8 2.6.7.7 1.9.7l1.2-.2q.6-.1 1-.6.6-.5.9-1.3.3-.7.3-1.9 0-2-1-3.2-.8-1.2-2.4-1.3l-1 .2-.9.6-.6 1q-.2.8-.2 1.8v1.6zm19.1-4.9l-1 1.5v-.2l-.1-.2q-.5-.6-1.3-1-.8-.5-1.8-.5h-.9l-.7.4-.5.5q-.2.3-.2.7l.2.5.4.4.9.4q.5.3 1.5.5 2 .6 2.9 1.3.8.8.8 1.9 0 .7-.3 1.4-.3.6-.9 1-.6.6-1.4.9-.9.2-2 .2-2.7 0-4.6-1.7l1-1.7.1.2.2.4.5.5 1.2.6.8.2h1.9l.9-.4q.4-.2.6-.5.3-.4.3-.8 0-.6-.6-1-.6-.5-2.1-1l-1.4-.3-1.3-.6-.7-.6-.5-.8-.2-1q0-.6.3-1.1l1-1 1.3-.6q.7-.2 1.7-.2 2.5 0 4 1.7z" fill="#173182"/><path d="M208.6 167.5q.4.5.4 1 0 .6-.4 1t-1 .4q-.6 0-1-.4t-.4-1q0-.6.4-1t1-.4q.5 0 1 .4zm0 7.7q.4.4.4 1 0 .5-.4 1-.4.3-1 .3t-1-.3q-.4-.4-.4-1t.4-1q.4-.4 1-.4.5 0 1 .4zm20.4-14h6.9v1.4h-5.4v15.5h5.4v1.3H229v-18.2zm28.4 2.9l-.1-1.5q0-.7.3-1 .3-.3.7-.3.4 0 .8.4.3.3.3 1.1t-.8 3l-.6 1.6-1.3-.3.5-1.6.2-1.4zm-4.1 0l-.2-1.5q0-.7.3-1 .4-.3.8-.3t.7.4q.3.3.3 1.1t-.7 3l-.6 1.6-1.4-.3.6-1.6.1-.7.1-.7zm16.8-2.9q2 0 3.4 1.5l-.8 1.6q-.2 0-.2-.2v-.3q-.5-.6-1.1-.9-.6-.4-1.4-.4-.6 0-1 .2-.5.2-.9.6-.3.4-.5 1.1-.2.7-.2 1.7v.9h3.6v1.3h-3.6v9h-1.6v-9h-2.4V167h2.4v-1.1q0-1.3.3-2.2.3-.9.9-1.4.6-.6 1.4-.9.8-.2 1.7-.2zm9.9 4.8q1 0 1.9.5.9.4 1.5 1.1.7.8 1.1 1.8.4 1 .4 2.4t-.4 2.4q-.4 1-1 1.8-.7.8-1.6 1.2-1 .4-2 .4t-2-.5q-.9-.4-1.6-1.1-.7-.8-1-1.9-.5-1-.5-2.2 0-1.3.4-2.3.5-1.1 1.2-1.9.7-.7 1.6-1.2 1-.4 2-.4zm3.2 5.9q0-1-.3-1.9-.3-.8-.7-1.3-.5-.6-1-.9-.7-.3-1.3-.3-.7 0-1.3.3-.5.3-1 .9-.4.5-.7 1.3-.2.8-.2 1.8t.2 1.7l.7 1.4q.5.6 1 .9.7.3 1.3.3.7 0 1.3-.3.6-.3 1-.8.5-.5.7-1.3.3-.8.3-1.8zm8.8-5.9q1 0 1.9.5.9.4 1.5 1.1.7.8 1.1 1.8.4 1 .4 2.4t-.4 2.4q-.4 1-1 1.8-.7.8-1.6 1.2-1 .4-2 .4t-2-.5q-.9-.4-1.6-1.1-.7-.8-1-1.9-.5-1-.5-2.2 0-1.3.4-2.3.5-1.1 1.2-1.9.7-.7 1.6-1.2 1-.4 2-.4zm3.2 5.9q0-1-.3-1.9-.3-.8-.7-1.3-.5-.6-1-.9-.7-.3-1.3-.3-.7 0-1.3.3-.5.3-1 .9-.4.5-.7 1.3-.2.8-.2 1.8t.2 1.7l.7 1.4q.5.6 1 .9.7.3 1.3.3.7 0 1.3-.3.6-.3 1-.8.5-.5.7-1.3.3-.8.3-1.8zm11.6-3.9v-6.7h1.8l-.1.4-.1.3v14.3l.1 1h-1.7l-.1-.8v-1q-.5 1-1.4 1.5-1 .5-1.9.5-.9 0-1.7-.3-.8-.4-1.4-1.1-.6-.7-1-1.8t-.4-2.6q0-1.5.5-2.6.4-1 1-1.7.7-.7 1.5-1 .8-.4 1.7-.4 1.1 0 2 .6.8.5 1.2 1.3zm-5.1.3q-1 .9-1 3.1 0 2 .7 3.4.8 1.2 2.3 1.2l.8-.1.8-.4.6-.6.5-.9q.2-.8.2-2.3v-1.5l-.3-1q-.1-.5-.4-.7-.2-.3-.6-.5l-.8-.4q-.3-.2-.7-.2-.7 0-1.2.2t-1 .7zm15.7-4.2l-.1-1.5q0-.7.3-1 .3-.3.7-.3.4 0 .8.4.3.3.3 1.1t-.8 3l-.6 1.6-1.3-.3.5-1.6.2-1.4zm-4.1 0l-.2-1.5q0-.7.3-1 .4-.3.8-.3t.7.4q.3.3.3 1.1t-.7 3l-.6 1.6-1.4-.3.6-1.6.1-.7.1-.7zm15.9 12.7q0 1.9-2.6 4.5l-.8-.7q.7-.6 1.1-1.3.5-.8.5-1.2 0-.3-.2-.5l-.4-.4-.4-.4-.2-.6q0-.6.3-1 .5-.4 1-.4.7 0 1.2.6.5.5.5 1.4zm24.2-12.7l-.1-1.5q0-.7.3-1 .3-.3.7-.3.4 0 .8.4.3.3.3 1.1t-.8 3l-.6 1.6-1.3-.3.5-1.6.2-1.4zm-4.1 0l-.2-1.5q0-.7.3-1 .4-.3.8-.3t.7.4q.3.3.3 1.1t-.7 3l-.6 1.6-1.4-.3.6-1.6.1-.7.1-.7zm10.2 13.2v-11h1.8v2q.6-1 1.6-1.6 1-.6 2-.6.7 0 1.3.2.6.3 1 .8.5.6.8 1.4.2.9.2 2.1v6.7h-1.7v-6.6q0-1.7-.6-2.4-.5-.7-1.4-.7l-1.1.2q-.6.2-1 .7-.5.4-.8 1-.3.7-.3 1.5v6.3h-1.8zM376 166q1 0 1.8.4.8.3 1.4 1 .6.5 1 1.5.3 1 .3 2.4v.8h-7.8q0 1.1.4 1.9.3.8.9 1.2.5.5 1.1.7l1.3.2q1.7 0 2.9-1.2l1 1q-1.5 1.6-3.9 1.6-1.2 0-2.2-.3-1-.4-1.7-1.1-.7-.8-1-1.8-.5-1.1-.5-2.5t.4-2.4q.4-1.1 1.1-1.8.7-.8 1.6-1.2 1-.3 2-.3zm-3.2 4.7h6v-.4q0-.6-.2-1.1-.2-.6-.6-1l-1-.6q-.4-.2-1-.2-1.2 0-2 .8-1 .8-1.2 2.5zm9.5-4.4h1.7v.9l1.5 8 2-7.9h1l2.3 7.8.5-3.5.3-2.2.2-1.5v-1.6h1.6q-.3 2.8-.8 5.5l-1 5.5H390l-2-7.1-2 7.1h-1.5l-2.2-11zm21.9 1.5l-1 1.5v-.2l-.1-.2q-.5-.6-1.3-1-.8-.5-1.8-.5h-.9l-.7.4-.5.5q-.2.3-.2.7l.2.5.4.4.9.4q.5.3 1.5.5 2 .6 2.9 1.3.8.8.8 1.9 0 .7-.3 1.4-.3.6-.9 1-.6.6-1.4.9-.9.2-2 .2-2.7 0-4.6-1.7l1-1.7.1.2.2.4.5.5 1.2.6.8.2h1.9l.9-.4q.4-.2.6-.5.3-.4.3-.8 0-.6-.6-1-.6-.5-2.1-1l-1.4-.3-1.3-.6-.7-.6-.5-.8-.2-1q0-.6.3-1.1l1-1 1.3-.6q.7-.2 1.7-.2 2.5 0 4 1.7zm9.2-3.7l-.1-1.5q0-.7.3-1 .3-.3.7-.3.4 0 .8.4.3.3.3 1.1t-.8 3l-.6 1.6-1.3-.3.5-1.6.2-1.4zm-4.1 0l-.2-1.5q0-.7.3-1 .4-.3.8-.3t.7.4q.3.3.3 1.1t-.7 3l-.6 1.6-1.4-.3.6-1.6.1-.7.1-.7zm29.4-2.9v18.2H432v-1.3h5.3v-15.5H432v-1.4h6.8z" fill="#2a86c0"/><path d="M114 192.2v1.7q0 1.4.5 2 .6.6 1.6.6h.5v1.3h-.5q-1 0-1.6.6-.5.5-.5 2.1v2.4q0 2.1-1 3.2-.9 1-3 1h-1.9v-1.3h2.2q.3 0 .5-.2h.3l.3-.3q1-.6 1-2.4l-.1-2q0-3 2-3.8-2-.8-2-3.5v-1.7q0-1.4-.6-2-.6-.5-1.8-.5H108V188h2.4q1 .1 1.7.6.8.4 1.3 1.3.5.8.5 2.3z" fill="#5ca831"/></g><path d="M258 281.8v3q-3 1.6-6.9 1.6-3.2 0-5.4-1.3t-3.5-3.5q-1.3-2.3-1.3-4.9 0-4.2 3-7t7.3-2.8q3 0 6.7 1.5v3q-3.4-2-6.6-2-3.3 0-5.4 2.1-2.2 2-2.2 5.2t2.1 5.2q2.2 2 5.5 2 3.5 0 6.8-2.1zm9.1-8.2q3 0 4.8 1.9 2 1.8 2 4.6 0 2.7-2 4.5-2 1.8-4.9 1.8-2.8 0-4.7-1.8-1.9-1.8-1.9-4.6 0-2.7 2-4.6 1.8-1.8 4.7-1.8zm0 2.2q-1.9 0-3 1.2-1.2 1.2-1.2 3t1.2 3q1.2 1 3 1t3-1q1.2-1.2 1.2-3t-1.2-3q-1.2-1.2-3-1.2zm9.5-8.7h2.5v19.1h-2.5v-19.1zm6.2 0h2.5v19.1h-2.5v-19.1zm16.8 13h-8.8q0 1.8 1.2 2.9 1.1 1 2.9 1 2.4 0 4.5-1.5v2.5q-1.1.7-2.3 1-1.1.4-2.6.4-2 0-3.4-.9-1.3-.8-2-2.3-.8-1.4-.8-3.4 0-2.8 1.6-4.6 1.6-1.8 4.2-1.8 2.5 0 4 1.7 1.5 1.8 1.5 4.7v.3zm-8.8-1.5h6.4q-.1-1.5-1-2.3-.7-.8-2-.8-1.4 0-2.3.8-.8.8-1 2.3zm20.9 4.7v2.4q-1.8.7-3.6.7-3 0-4.7-1.7-1.8-1.8-1.8-4.7 0-3 1.7-4.8 1.7-1.8 4.5-1.8 1 0 1.8.2.7.1 1.9.6v2.7q-2-1.2-3.5-1.2-1.7 0-2.8 1.2-1 1.2-1 3 0 2 1 3 1.3 1.2 3.2 1.2 1.5 0 3.3-.8zm1.1-7.7l4.7-4.6v2.6h4v2.3h-4v6.1q0 2.2 1.8 2.2 1.3 0 2.8-1v2.4q-1.4.8-3.1.8-1.7 0-2.9-1l-.6-.7-.4-1-.1-2.3V276h-2.2v-.3zm12.4-7.3q.6 0 1 .5.5.4.5 1t-.5 1q-.4.5-1 .5t-1-.5q-.5-.4-.5-1t.5-1q.4-.5 1-.5zm-1.2 5.3h2.5v12.6H324v-12.6zm12 0q3 0 4.8 1.9 2 1.8 2 4.6 0 2.7-2 4.5-2 1.8-4.9 1.8-2.8 0-4.7-1.8-1.9-1.8-1.9-4.6 0-2.7 2-4.6 1.9-1.8 4.7-1.8zm0 2.2q-1.9 0-3 1.2-1.2 1.2-1.2 3t1.2 3q1.2 1 3 1 1.9 0 3-1 1.2-1.2 1.2-3t-1.2-3q-1.2-1.2-3-1.2zm12-2.2v1.6q1.6-1.8 3.7-1.8 1.2 0 2.2.6 1 .6 1.5 1.7.6 1 .6 3.3v7.2h-2.5V279q0-1.9-.6-2.7-.6-.8-2-.8-1.7 0-3 1.7v9h-2.5v-12.6h2.5z" font-size="28" font-family="GillSans" fill="#173182"/><path d="M154.5 71.5h432.4v184.2H154.5z" fill="#fff"/><path d="M154.5 71.5h432.4v184.2H154.5z" stroke="#5ca831" stroke-width="2" fill="none"/><g font-size="24" font-family="Inconsolata"><path d="M181.7 103.9v-2.4q0-1.6-.5-2.1-.5-.6-1.6-.6h-.5v-1.3h.5q1.1 0 1.7-.6.5-.6.5-2v-1.7q0-4.2 4.3-4.2h1.6v1.4h-2q-2.2 0-2.2 2.5v1.7q0 2.7-2 3.5 2 .7 2 3.8l-.1 2q0 1.6.7 2.2.7.7 2.3.7h1.2v1.3h-.8l-2.1-.1q-1 0-1.7-.6-1.3-1-1.3-3.5z" fill="#5ca831"/><path d="M203.5 130.3v-11h1.8v2q.6-1 1.6-1.6 1-.6 2-.6.7 0 1.3.2.6.3 1 .8.5.6.8 1.4.2.9.2 2.1v6.7h-1.7v-6.6q0-1.7-.6-2.4-.5-.7-1.4-.7l-1.1.2q-.6.2-1 .7-.5.4-.8 1-.3.7-.3 1.5v6.3h-1.8zm12.5-9.7q1.5-1.5 4-1.5 2 0 3.1 1 1.2 1 1.2 3.4v6.8h-1.6V129q-1.8 1.4-4 1.4-.8 0-1.5-.2l-1.2-.7q-.5-.4-.7-1-.3-.5-.3-1.1 0-1.7 1.5-2.6 1.4-1 4-1h2.2v-.5q0-1.6-.7-2.3-.7-.6-2.2-.6-1.7 0-3 1.2l-.7-1zm6.7 4.5h-1.6q-1.3 0-2.2.2-.8.2-1.3.5t-.7.7l-.1.9q0 .7.6 1.3.7.5 1.7.5.7 0 1.3-.2l1-.5.7-.7.4-.6q.2-.5.2-1.3v-.8zm4.1 5.2v-11h1.6v1q.3-.5 1-.9.5-.3 1.2-.3t1.2.4q.6.5.7 1.2.4-.8 1-1.2.7-.4 1.5-.4 1.1 0 1.6.8.6.8.5 2v8.4h-1.6v-9l-.3-.6q-.1-.3-.3-.3h-.4q-.4 0-.7.2-.3.2-.5.6-.3.4-.4.9l-.1 1v7.2H231v-7.6q0-1.4-.2-1.9-.3-.4-.9-.4-.6 0-1.1.7-.5.6-.5 1.9v7.3h-1.6zM244 119q1 0 1.8.4.8.3 1.4 1 .6.5 1 1.5.3 1 .3 2.4v.8h-7.8q0 1.1.4 1.9.3.8.9 1.2.5.5 1.1.7l1.3.2q1.7 0 2.9-1.2l1 1q-1.5 1.6-3.9 1.6-1.2 0-2.2-.3-1-.4-1.7-1.1-.7-.8-1-1.8-.5-1.1-.5-2.5t.4-2.4q.4-1.1 1.1-1.8.7-.8 1.6-1.2 1-.3 2-.3zm-3.2 4.7h6v-.4q0-.6-.2-1.1-.2-.6-.6-1l-1-.6q-.4-.2-1-.2-1.2 0-2 .8-1 .8-1.2 2.5z" fill="#173182"/><path d="M256.6 120.5q.4.5.4 1 0 .6-.4 1t-1 .4q-.6 0-1-.4t-.4-1q0-.6.4-1t1-.4q.5 0 1 .4zm0 7.7q.4.4.4 1 0 .5-.4 1-.4.3-1 .3t-1-.3q-.4-.4-.4-1t.4-1q.4-.4 1-.4.5 0 1 .4zm24.8-11.1l-.1-1.5q0-.7.3-1 .3-.3.7-.3.4 0 .8.4.3.3.3 1.1t-.8 3l-.6 1.6-1.3-.3.5-1.6.2-1.4zm-4.1 0l-.2-1.5q0-.7.3-1 .4-.3.8-.3t.7.4q.3.3.3 1.1t-.7 3l-.6 1.6-1.4-.3.6-1.6.1-.7.1-.7zm10.7 3.5q1.5-1.5 4-1.5 2 0 3.1 1 1.2 1 1.2 3.4v6.8h-1.6V129q-1.8 1.4-4 1.4-.8 0-1.5-.2l-1.2-.7q-.5-.4-.7-1-.3-.5-.3-1.1 0-1.7 1.5-2.6 1.4-1 4-1h2.2v-.5q0-1.6-.7-2.3-.7-.6-2.2-.6-1.7 0-3 1.2l-.7-1zm6.7 4.5h-1.6q-1.3 0-2.2.2-.8.2-1.3.5t-.7.7l-.1.9q0 .7.6 1.3.7.5 1.7.5.7 0 1.3-.2l1-.5.7-.7.4-.6q.2-.5.2-1.3v-.8zm5.3-10.8h4.8V129h3.2v1.4h-8.2V129h3.2v-13.2h-3v-1.4zm17.4 2.8l-.1-1.5q0-.7.3-1 .3-.3.7-.3.4 0 .8.4.3.3.3 1.1t-.8 3l-.6 1.6-1.3-.3.5-1.6.2-1.4zm-4.1 0l-.2-1.5q0-.7.3-1 .4-.3.8-.3t.7.4q.3.3.3 1.1t-.7 3l-.6 1.6-1.4-.3.6-1.6.1-.7.1-.7zm15.9 12.7q0 1.9-2.6 4.5l-.8-.7q.7-.6 1.1-1.3.5-.8.5-1.2 0-.3-.2-.5l-.4-.4-.4-.4-.2-.6q0-.6.3-1 .5-.4 1-.4.7 0 1.2.6.5.5.5 1.4z" fill="#2a86c0"/><path d="M204 146.6q1.5-1.5 4-1.5 2 0 3.1 1 1.2 1 1.2 3.4v6.8h-1.6V155q-1.8 1.4-4 1.4-.8 0-1.5-.2l-1.2-.7q-.5-.4-.7-1-.3-.5-.3-1.1 0-1.7 1.5-2.6 1.4-1 4-1h2.2v-.5q0-1.6-.7-2.3-.7-.6-2.2-.6-1.7 0-3 1.2l-.7-1zm6.7 4.5h-1.6q-1.3 0-2.2.2-.8.2-1.3.5t-.7.7l-.1.9q0 .7.6 1.3.7.5 1.7.5.7 0 1.3-.2l1-.5.7-.7.4-.6q.2-.5.2-1.3v-.8zm6.9-4.1q-.4.4-.5.8l-.2 1 .2.9.5.8.8.5.9.1 1-.1q.4-.2.7-.6l.5-.7.2-1-.2-.9-.5-.8-.8-.5q-.4-.2-1-.2-.9 0-1.6.7zm4.4-1q1.2-1 2.7-1h.4l.2 1.4h-.7q-1 0-1.9.5.6.9.6 1.9 0 .7-.3 1.4t-.9 1.2l-1.2.9-1.6.2-1.4-.2q-.7.7-.7 1.2 0 .4.4.7.5.2 1.3.2h1.8l1.9.1q.7.2 1.2.6.5.4.7.9.3.5.3 1 0 .7-.3 1.3-.3.6-1 1-.6.6-1.5.8-1 .3-2.3.3-1.3 0-2.2-.2-1-.2-1.5-.6-.6-.3-1-.8l-.2-1q0-1.3 1.8-2.4-1-.5-1-1.5t1.3-2q-.7-.6-1.2-1.4-.4-.8-.4-1.7 0-.8.3-1.5.4-.7 1-1.2.5-.5 1.2-.8.8-.3 1.5-.3 1.6 0 2.7 1zm-4.3 9.7q-1.3.8-1.3 1.7 0 .5.2.8l.8.5 1 .3 1.4.1q1.5 0 2.4-.5 1-.5 1-1.4 0-.7-.5-1-.5-.4-1.6-.4h-3.4zM232 145q1 0 1.8.4.8.3 1.4 1 .6.5 1 1.5.3 1 .3 2.4v.8h-7.8q0 1.1.4 1.9.3.8.9 1.2.5.5 1.1.7l1.3.2q1.7 0 2.9-1.2l1 1q-1.5 1.6-3.9 1.6-1.2 0-2.2-.3-1-.4-1.7-1.1-.7-.8-1-1.8-.5-1.1-.5-2.5t.4-2.4q.4-1.1 1.1-1.8.7-.8 1.6-1.2 1-.3 2-.3zm-3.2 4.7h6v-.4q0-.6-.2-1.1-.2-.6-.6-1l-1-.6q-.4-.2-1-.2-1.2 0-2 .8-1 .8-1.2 2.5z" fill="#173182"/><path d="M244.6 146.5q.4.5.4 1 0 .6-.4 1t-1 .4q-.6 0-1-.4t-.4-1q0-.6.4-1t1-.4q.5 0 1 .4zm0 7.7q.4.4.4 1 0 .5-.4 1-.4.3-1 .3t-1-.3q-.4-.4-.4-1t.4-1q.4-.4 1-.4.5 0 1 .4zm24.4-12.9v15h-1.6v-13l-3 1-.4-1 3.9-2h1.1zm15 3.4q0 1-.7 2-.6 1-1.7 1.6 1.3.6 2 1.7.9 1.1.9 2.4 0 .9-.4 1.7-.4.7-1 1.2-.6.6-1.4 1l-1.8.2q-1 0-1.8-.3-.9-.3-1.5-.8-.6-.6-1-1.3-.3-.7-.3-1.6 0-1.3.8-2.4.8-1.1 2.2-1.8-1-.5-1.6-1.4-.7-1-.7-2 0-.8.3-1.5l.9-1.2q.6-.5 1.3-.8.7-.3 1.5-.3.9 0 1.6.3.7.3 1.2.8t.8 1.1q.3.7.3 1.4zm-4.4 4.3q-1.1.5-1.8 1.4-.8.9-.8 2 0 .5.3 1 .2.5.6.8.4.4.9.6.5.2 1.1.2.6 0 1.1-.2l1-.5.5-.8.2-1q0-1.2-.8-2.1-.9-1-2.3-1.4zm-1.6-3q.3.5.8.8l1 .7.5.2q.9-.5 1.4-1.3.6-.8.6-1.7l-.2-.8q-.1-.4-.5-.7l-.7-.5-1-.1-.9.1-.7.5-.5.7-.2.8q0 .7.4 1.3zm15.2 9.8q0 1.9-2.6 4.5l-.8-.7q.7-.6 1.1-1.3.5-.8.5-1.2 0-.3-.2-.5l-.4-.4-.4-.4-.2-.6q0-.6.3-1 .5-.4 1-.4.7 0 1.2.6.5.5.5 1.4z" fill="#2a86c0"/><path d="M212.2 172.8l-1 1.5v-.2l-.1-.2q-.5-.6-1.3-1-.8-.5-1.8-.5h-.9l-.7.4-.5.5q-.2.3-.2.7l.2.5.4.4.9.4q.5.3 1.5.5 2 .6 2.9 1.3.8.8.8 1.9 0 .7-.3 1.4-.3.6-.9 1-.6.6-1.4.9-.9.2-2 .2-2.7 0-4.6-1.7l1-1.7.1.2.2.4.5.5 1.2.6.8.2h1.9l.9-.4q.4-.2.6-.5.3-.4.3-.8 0-.6-.6-1-.6-.5-2.1-1l-1.4-.3-1.3-.6-.7-.6-.5-.8-.2-1q0-.6.3-1.1l1-1 1.3-.6q.7-.2 1.7-.2 2.5 0 4 1.7zm6.2-4.4l1.9-.3-.1.4v.2l-.4 2.6h3.6v1.4h-3.6l-.2 4v2l.3 1.2q.2.5.6.8.4.2 1 .2 1.2 0 2.5-1l.5 1.4q-1.6 1.2-3.4 1.2-1.7 0-2.5-1t-.7-3.4v-2.2l.2-3.2h-2.6v-1.4h2.7l.2-3zm9.6 4.2q1.5-1.5 4-1.5 2 0 3.1 1 1.2 1 1.2 3.4v6.8h-1.6V181q-1.8 1.4-4 1.4-.8 0-1.5-.2l-1.2-.7q-.5-.4-.7-1-.3-.5-.3-1.1 0-1.7 1.5-2.6 1.4-1 4-1h2.2v-.5q0-1.6-.7-2.3-.7-.6-2.2-.6-1.7 0-3 1.2l-.7-1zm6.7 4.5h-1.6q-1.3 0-2.2.2-.8.2-1.3.5t-.7.7l-.1.9q0 .7.6 1.3.7.5 1.7.5.7 0 1.3-.2l1-.5.7-.7.4-.6q.2-.5.2-1.3v-.8zm7.7-8.7l1.9-.3-.1.4v.2l-.4 2.6h3.6v1.4h-3.6l-.2 4v2l.3 1.2q.2.5.6.8.4.2 1 .2 1.2 0 2.5-1l.5 1.4q-1.6 1.2-3.4 1.2-1.7 0-2.5-1t-.7-3.4v-2.2l.2-3.2h-2.6v-1.4h2.7l.2-3zm9 2.9h1.7v6.1q0 1 .2 1.8.2.7.5 1.1.4.5.8.7l1 .2q.6 0 1.1-.3l1-.7q.4-.5.6-1.2.3-.7.3-1.6v-6h1.7v9.9l.1 1h-1.8v-1.7q-.5 1-1.5 1.4-.8.5-2 .5-.8 0-1.4-.2-.7-.4-1.3-1-.5-.6-.8-1.6-.2-1-.2-2.3v-6zm20.8 1.5l-1 1.5v-.2l-.1-.2q-.5-.6-1.3-1-.8-.5-1.8-.5h-.9l-.7.4-.5.5q-.2.3-.2.7l.2.5.4.4.9.4q.5.3 1.5.5 2 .6 2.9 1.3.8.8.8 1.9 0 .7-.3 1.4-.3.6-.9 1-.6.6-1.4.9-.9.2-2 .2-2.7 0-4.6-1.7l1-1.7.1.2.2.4.5.5 1.2.6.8.2h1.9l.9-.4q.4-.2.6-.5.3-.4.3-.8 0-.6-.6-1-.6-.5-2.1-1l-1.4-.3-1.3-.6-.7-.6-.5-.8-.2-1q0-.6.3-1.1l1-1 1.3-.6q.7-.2 1.7-.2 2.5 0 4 1.7z" fill="#173182"/><path d="M280.6 172.5q.4.5.4 1 0 .6-.4 1t-1 .4q-.6 0-1-.4t-.4-1q0-.6.4-1t1-.4q.5 0 1 .4zm0 7.7q.4.4.4 1 0 .5-.4 1-.4.3-1 .3t-1-.3q-.4-.4-.4-1t.4-1q.4-.4 1-.4.5 0 1 .4zm24.8-11.1l-.1-1.5q0-.7.3-1 .3-.3.7-.3.4 0 .8.4.3.3.3 1.1t-.8 3l-.6 1.6-1.3-.3.5-1.6.2-1.4zm-4.1 0l-.2-1.5q0-.7.3-1 .4-.3.8-.3t.7.4q.3.3.3 1.1t-.7 3l-.6 1.6-1.4-.3.6-1.6.1-.7.1-.7zm9.9-1.8h3.4q2 0 3 .6 1.1.5 1.8 1.5.8 1 1.1 2.3.4 1.4.4 3.2 0 1.7-.4 3-.5 1.5-1.2 2.4-.8 1-2 1.5t-3 .5h-3.1v-15zm1.5 1.4V181h1.6q2.6 0 3.7-1.5 1.2-1.6 1.2-4.5 0-3-1-4.6-1.1-1.7-3.7-1.7h-1.8zm16.7.4l-.1-1.5q0-.7.3-1 .3-.3.7-.3.4 0 .8.4.3.3.3 1.1t-.8 3l-.6 1.6-1.3-.3.5-1.6.2-1.4zm-4.1 0l-.2-1.5q0-.7.3-1 .4-.3.8-.3t.7.4q.3.3.3 1.1t-.7 3l-.6 1.6-1.4-.3.6-1.6.1-.7.1-.7zm15.9 12.7q0 1.9-2.6 4.5l-.8-.7q.7-.6 1.1-1.3.5-.8.5-1.2 0-.3-.2-.5l-.4-.4-.4-.4-.2-.6q0-.6.3-1 .5-.4 1-.4.7 0 1.2.6.5.5.5 1.4z" fill="#2a86c0"/><path d="M205.6 199q-.4.4-.5.8l-.2 1 .2.9.5.8.8.5.9.1 1-.1q.4-.2.7-.6l.5-.7.2-1-.2-.9-.5-.8-.8-.5q-.4-.2-1-.2-.9 0-1.6.7zm4.4-1q1.2-1 2.7-1h.4l.2 1.4h-.7q-1 0-1.9.5.6.9.6 1.9 0 .7-.3 1.4t-.9 1.2l-1.2.9-1.6.2-1.4-.2q-.7.7-.7 1.2 0 .4.4.7.5.2 1.3.2h1.8l1.9.1q.7.2 1.2.6.5.4.7.9.3.5.3 1 0 .7-.3 1.3-.3.6-1 1-.6.6-1.5.8-1 .3-2.3.3-1.3 0-2.2-.2-1-.2-1.5-.6-.6-.3-1-.8l-.2-1q0-1.3 1.8-2.4-1-.5-1-1.5t1.3-2q-.7-.6-1.2-1.4-.4-.8-.4-1.7 0-.8.3-1.5.4-.7 1-1.2.5-.5 1.2-.8.8-.3 1.5-.3 1.6 0 2.7 1zm-4.3 9.7q-1.3.8-1.3 1.7 0 .5.2.8l.8.5 1 .3 1.4.1q1.5 0 2.4-.5 1-.5 1-1.4 0-.7-.5-1-.5-.4-1.6-.4h-3.4zm10.5-10.4h1.8v2.1q.5-1.1 1.6-1.7 1-.6 2.3-.6 1.8 0 3 1.2l-.8 1.6-.5-.6-.5-.4-.5-.3h-.8q-.8 0-1.5.3l-1.2 1q-.5.6-.8 1.4-.3.8-.3 1.7v5.3h-1.8v-11zm15.8-.3q1 0 1.9.5.9.4 1.5 1.1.7.8 1.1 1.8.4 1 .4 2.4t-.4 2.4q-.4 1-1 1.8-.7.8-1.6 1.2-1 .4-2 .4t-2-.5q-.9-.4-1.6-1.1-.7-.8-1-1.9-.5-1-.5-2.2 0-1.3.4-2.3.5-1.1 1.2-1.9.7-.7 1.6-1.2 1-.4 2-.4zm3.2 5.9q0-1-.3-1.9-.3-.8-.7-1.3-.5-.6-1-.9-.7-.3-1.3-.3-.7 0-1.3.3-.5.3-1 .9-.4.5-.7 1.3-.2.8-.2 1.8t.2 1.7l.7 1.4q.5.6 1 .9.7.3 1.3.3.7 0 1.3-.3.6-.3 1-.8.5-.5.7-1.3.3-.8.3-1.8zm4.2-5.6h1.7v6.1q0 1 .2 1.8.2.7.5 1.1.4.5.8.7l1 .2q.6 0 1.1-.3l1-.7q.4-.5.6-1.2.3-.7.3-1.6v-6h1.7v9.9l.1 1h-1.8v-1.7q-.5 1-1.5 1.4-.8.5-2 .5-.8 0-1.4-.2-.7-.4-1.3-1-.5-.6-.8-1.6-.2-1-.2-2.3v-6zm11.9 0h1.8v1.7q.5-.9 1.4-1.4 1-.5 1.9-.5 1 0 1.7.3.9.4 1.5 1 .6.8 1 1.8t.4 2.5q0 1.5-.4 2.6-.4 1-1 1.8-.7.7-1.5 1.1-.9.4-1.7.4-1 0-1.9-.5-.9-.4-1.4-1.3v5.5h-1.8v-15zm1.8 6.4q0 1.8.8 2.6.7.7 1.9.7l1.2-.2q.6-.1 1-.6.6-.5.9-1.3.3-.7.3-1.9 0-2-1-3.2-.8-1.2-2.4-1.3l-1 .2-.9.6-.6 1q-.2.8-.2 1.8v1.6zm19.1-4.9l-1 1.5v-.2l-.1-.2q-.5-.6-1.3-1-.8-.5-1.8-.5h-.9l-.7.4-.5.5q-.2.3-.2.7l.2.5.4.4.9.4q.5.3 1.5.5 2 .6 2.9 1.3.8.8.8 1.9 0 .7-.3 1.4-.3.6-.9 1-.6.6-1.4.9-.9.2-2 .2-2.7 0-4.6-1.7l1-1.7.1.2.2.4.5.5 1.2.6.8.2h1.9l.9-.4q.4-.2.6-.5.3-.4.3-.8 0-.6-.6-1-.6-.5-2.1-1l-1.4-.3-1.3-.6-.7-.6-.5-.8-.2-1q0-.6.3-1.1l1-1 1.3-.6q.7-.2 1.7-.2 2.5 0 4 1.7z" fill="#173182"/><path d="M280.6 198.5q.4.5.4 1 0 .6-.4 1t-1 .4q-.6 0-1-.4t-.4-1q0-.6.4-1t1-.4q.5 0 1 .4zm0 7.7q.4.4.4 1 0 .5-.4 1-.4.3-1 .3t-1-.3q-.4-.4-.4-1t.4-1q.4-.4 1-.4.5 0 1 .4zm20.4-14h6.9v1.4h-5.4v15.5h5.4v1.3H301v-18.2zm28.4 2.9l-.1-1.5q0-.7.3-1 .3-.3.7-.3.4 0 .8.4.3.3.3 1.1t-.8 3l-.6 1.6-1.3-.3.5-1.6.2-1.4zm-4.1 0l-.2-1.5q0-.7.3-1 .4-.3.8-.3t.7.4q.3.3.3 1.1t-.7 3l-.6 1.6-1.4-.3.6-1.6.1-.7.1-.7zm10 2.2h1.8v1.7q.5-.9 1.4-1.4 1-.5 1.9-.5 1 0 1.7.3.9.4 1.5 1 .6.8 1 1.8t.4 2.5q0 1.5-.4 2.6-.4 1-1 1.8-.7.7-1.5 1.1-.9.4-1.7.4-1 0-1.9-.5-.9-.4-1.4-1.3v5.5h-1.8v-15zm1.8 6.4q0 1.8.8 2.6.7.7 1.9.7l1.2-.2q.6-.1 1-.6.6-.5.9-1.3.3-.7.3-1.9 0-2-1-3.2-.8-1.2-2.4-1.3l-1 .2-.9.6-.6 1q-.2.8-.2 1.8v1.6zM352 197q1 0 1.9.5.9.4 1.5 1.1.7.8 1.1 1.8.4 1 .4 2.4t-.4 2.4q-.4 1-1 1.8-.7.8-1.6 1.2-1 .4-2 .4t-2-.5q-.9-.4-1.6-1.1-.7-.8-1-1.9-.5-1-.5-2.2 0-1.3.4-2.3.5-1.1 1.2-1.9.7-.7 1.6-1.2 1-.4 2-.4zm3.2 5.9q0-1-.3-1.9-.3-.8-.7-1.3-.5-.6-1-.9-.7-.3-1.3-.3-.7 0-1.3.3-.5.3-1 .9-.4.5-.7 1.3-.2.8-.2 1.8t.2 1.7l.7 1.4q.5.6 1 .9.7.3 1.3.3.7 0 1.3-.3.6-.3 1-.8.5-.5.7-1.3.3-.8.3-1.8zm4.8-10.6h4.8V207h3.2v1.4h-8.2V207h3.2v-13.2h-3v-1.4zm12.4 5h4.4v9.6h2.6v1.4h-7.1v-1.4h2.8v-8.2h-2.7v-1.4zm2.7-4.4q.4-.4.9-.4t.8.4q.4.4.4.9t-.4.9q-.3.3-.8.3t-.9-.3q-.4-.4-.4-1 0-.4.4-.8zm11.3 1.5l1.9-.3-.1.4v.2l-.4 2.6h3.6v1.4h-3.6l-.2 4v2l.3 1.2q.2.5.6.8.4.2 1 .2 1.2 0 2.5-1l.5 1.4q-1.6 1.2-3.4 1.2-1.7 0-2.5-1t-.7-3.4v-2.2l.2-3.2h-2.6v-1.4h2.7l.2-3zm10 2.9h4.4v9.6h2.6v1.4h-7.1v-1.4h2.8v-8.2h-2.7v-1.4zm2.7-4.4q.4-.4.9-.4t.8.4q.4.4.4.9t-.4.9q-.3.3-.8.3t-.9-.3q-.4-.4-.4-1 0-.4.4-.8zm17.7 6.2l-1.2 1.5-.1-.2v-.2l-.2-.4-.6-.6q-.8-.6-2.2-.6-.7 0-1.4.3-.6.2-1 .8-.5.5-.8 1.3-.3.7-.3 1.7 0 .9.3 1.7.3.8.8 1.4l1.2.9q.7.3 1.5.3 1.7 0 2.9-1.4l1 1.2q-1.7 1.7-4 1.7-1.2 0-2.2-.4-1-.4-1.8-1.2-.7-.8-1-1.8-.5-1-.5-2.3 0-1.2.4-2.3.4-1 1.1-1.8.8-.7 1.8-1.2 1-.4 2.2-.4 1.3 0 2.4.6 1 .5 1.7 1.4zm11.4-.3l-1 1.5v-.2l-.1-.2q-.5-.6-1.3-1-.8-.5-1.8-.5h-.9l-.7.4-.5.5q-.2.3-.2.7l.2.5.4.4.9.4q.5.3 1.5.5 2 .6 2.9 1.3.8.8.8 1.9 0 .7-.3 1.4-.3.6-.9 1-.6.6-1.4.9-.9.2-2 .2-2.7 0-4.6-1.7l1-1.7.1.2.2.4.5.5 1.2.6.8.2h1.9l.9-.4q.4-.2.6-.5.3-.4.3-.8 0-.6-.6-1-.6-.5-2.1-1l-1.4-.3-1.3-.6-.7-.6-.5-.8-.2-1q0-.6.3-1.1l1-1 1.3-.6q.7-.2 1.7-.2 2.5 0 4 1.7zm9.2-3.7l-.1-1.5q0-.7.3-1 .3-.3.7-.3.4 0 .8.4.3.3.3 1.1t-.8 3l-.6 1.6-1.3-.3.5-1.6.2-1.4zm-4.1 0l-.2-1.5q0-.7.3-1 .4-.3.8-.3t.7.4q.3.3.3 1.1t-.7 3l-.6 1.6-1.4-.3.6-1.6.1-.7.1-.7zm15.9 12.7q0 1.9-2.6 4.5l-.8-.7q.7-.6 1.1-1.3.5-.8.5-1.2 0-.3-.2-.5l-.4-.4-.4-.4-.2-.6q0-.6.3-1 .5-.4 1-.4.7 0 1.2.6.5.5.5 1.4zm24.2-12.7l-.1-1.5q0-.7.3-1 .3-.3.7-.3.4 0 .8.4.3.3.3 1.1t-.8 3l-.6 1.6-1.3-.3.5-1.6.2-1.4zm-4.1 0l-.2-1.5q0-.7.3-1 .4-.3.8-.3t.7.4q.3.3.3 1.1t-.7 3l-.6 1.6-1.4-.3.6-1.6.1-.7.1-.7zm10.2 13.2v-11h1.8v2q.6-1 1.6-1.6 1-.6 2-.6.7 0 1.3.2.6.3 1 .8.5.6.8 1.4.2.9.2 2.1v6.7h-1.7v-6.6q0-1.7-.6-2.4-.5-.7-1.4-.7l-1.1.2q-.6.2-1 .7-.5.4-.8 1-.3.7-.3 1.5v6.3h-1.8zM496 197q1 0 1.8.4.8.3 1.4 1 .6.5 1 1.5.3 1 .3 2.4v.8h-7.8q0 1.1.4 1.9.3.8.9 1.2.5.5 1.1.7l1.3.2q1.7 0 2.9-1.2l1 1q-1.5 1.6-3.9 1.6-1.2 0-2.2-.3-1-.4-1.7-1.1-.7-.8-1-1.8-.5-1.1-.5-2.5t.4-2.4q.4-1.1 1.1-1.8.7-.8 1.6-1.2 1-.3 2-.3zm-3.2 4.7h6v-.4q0-.6-.2-1.1-.2-.6-.6-1l-1-.6q-.4-.2-1-.2-1.2 0-2 .8-1 .8-1.2 2.5zm9.5-4.4h1.7v.9l1.5 8 2-7.9h1l2.3 7.8.5-3.5.3-2.2.2-1.5v-1.6h1.6q-.3 2.8-.8 5.5l-1 5.5H510l-2-7.1-2 7.1h-1.5l-2.2-11zm21.9 1.5l-1 1.5v-.2l-.1-.2q-.5-.6-1.3-1-.8-.5-1.8-.5h-.9l-.7.4-.5.5q-.2.3-.2.7l.2.5.4.4.9.4q.5.3 1.5.5 2 .6 2.9 1.3.8.8.8 1.9 0 .7-.3 1.4-.3.6-.9 1-.6.6-1.4.9-.9.2-2 .2-2.7 0-4.6-1.7l1-1.7.1.2.2.4.5.5 1.2.6.8.2h1.9l.9-.4q.4-.2.6-.5.3-.4.3-.8 0-.6-.6-1-.6-.5-2.1-1l-1.4-.3-1.3-.6-.7-.6-.5-.8-.2-1q0-.6.3-1.1l1-1 1.3-.6q.7-.2 1.7-.2 2.5 0 4 1.7zm9.2-3.7l-.1-1.5q0-.7.3-1 .3-.3.7-.3.4 0 .8.4.3.3.3 1.1t-.8 3l-.6 1.6-1.3-.3.5-1.6.2-1.4zm-4.1 0l-.2-1.5q0-.7.3-1 .4-.3.8-.3t.7.4q.3.3.3 1.1t-.7 3l-.6 1.6-1.4-.3.6-1.6.1-.7.1-.7zm29.4-2.9v18.2H552v-1.3h5.3v-15.5H552v-1.4h6.8z" fill="#2a86c0"/><path d="M186 223.2v1.7q0 1.4.5 2 .6.6 1.6.6h.5v1.3h-.5q-1 0-1.6.6-.5.5-.5 2.1v2.4q0 2.1-1 3.2-.9 1-3 1h-1.9v-1.3h2.2q.3 0 .5-.2h.3l.3-.3q1-.6 1-2.4l-.1-2q0-3 2-3.8-2-.8-2-3.5v-1.7q0-1.4-.6-2-.6-.5-1.8-.5H180V219h2.4q1 .1 1.7.6.8.4 1.3 1.3.5.8.5 2.3z" fill="#5ca831"/></g></svg>