<svg xmlns="http://www.w3.org/2000/svg" height="100" width="500"><g font-size="24" font-family="Inconsolata"><path d="M16.7 20.3v-6.6h1.8l-.1.3-.1.4v14.2l.1 1h-1.7l-.1-.8V28q-.5 1-1.5 1.5-.9.5-1.8.5-1 0-1.7-.4-.8-.3-1.4-1-.6-.8-1-1.8-.4-1.1-.4-2.6t.4-2.6q.4-1 1-1.8.8-.7 1.6-1 .8-.3 1.6-.3 1.2 0 2 .5t1.3 1.4zm-5.2.3q-1 1-1 3.2 0 2 .8 3.3.8 1.3 2.3 1.3l.8-.1.8-.4.6-.7q.3-.3.4-.8.3-.8.3-2.3v-1.5l-.3-1q-.1-.5-.4-.8l-.6-.5-.8-.3-.7-.2q-.7 0-1.2.2l-1 .6zm9.7-6.9h2l-.1.3q-.2 0-.2.2v6.2q.6-1 1.5-1.4.9-.6 1.8-.6 1 0 1.7.4.9.3 1.5 1t1 1.8q.3 1 .3 2.5t-.4 2.6q-.4 1-1 1.8-.7.7-1.5 1-.8.4-1.7.4-1 0-1.8-.4-.9-.5-1.4-1.3l-.6 1.5h-1.1v-16zm3 14.3l.8.3h1.7l1-.7q.6-.5 1-1.3.2-.7.2-1.9 0-2.2-.8-3.3-1-1.2-2.6-1.2-.6 0-1.3.4-.7.5-1 1.2-.3.7-.3 2.3v1.8l.3 1.1q.1.5.4.8.2.3.6.5zm14.3-.4q.4.4.4 1 0 .5-.4 1-.4.3-1 .3t-1-.4q-.5-.4-.5-1 0-.5.5-1 .4-.3 1-.3.5 0 1 .4z" fill="#06345e"/><path d="M45.3 18.7H47v6.1q0 1 .2 1.8.2.7.5 1.1l.8.6 1 .2q.6 0 1-.3.6-.2 1-.6.5-.5.7-1.2.2-.7.2-1.7v-6h1.8v10l.1 1h-1.8V28q-.6.9-1.5 1.4-.9.5-2 .5-.8 0-1.5-.3-.6-.3-1.2-.9-.5-.6-.8-1.6-.3-1-.3-2.3v-6.1zm20.8 1.5l-1 1.5-.1-.2v-.3l-1.3-1q-.8-.5-1.8-.5l-.9.2q-.4 0-.7.3-.3.1-.5.5-.2.2-.2.6l.1.6.5.4.9.4 1.4.5q2.1.6 3 1.3.8.8.8 1.9 0 .7-.3 1.3-.3.7-1 1.2-.5.4-1.4.7-.8.3-1.9.3-2.7 0-4.6-1.7l1-1.8.1.3.2.3q.1.3.5.5l1.2.6.8.3h1.9l.8-.4q.5-.2.7-.6.2-.3.2-.7 0-.6-.5-1-.6-.5-2.2-1l-1.3-.4-1.3-.5-.7-.6-.5-.8-.2-1q0-.6.3-1.1.3-.6.9-1 .6-.4 1.3-.6.8-.3 1.7-.3 2.6 0 4.1 1.8zm7.9-1.8q.8 0 1.6.3.9.3 1.5 1 .6.6 1 1.6.3 1 .3 2.3v.8h-7.8q0 1.2.4 2 .3.7.9 1.2.5.5 1.1.7l1.3.2q1.7 0 2.9-1.2l1 1q-1.5 1.6-4 1.6-1.1 0-2.1-.4-1-.3-1.7-1-.7-.8-1-1.8-.5-1.1-.5-2.5t.4-2.5q.4-1 1-1.8.8-.7 1.7-1 1-.5 2-.5zm-3.3 4.7h6v-.4q0-.6-.2-1.1l-.6-1q-.4-.4-1-.6-.5-.3-1-.3-1.2 0-2 .9-1 .8-1.2 2.5zm11.4-4.4H84v2.1q.5-1.2 1.6-1.8 1-.6 2.3-.6 1.8 0 3 1.2l-.9 1.7-.4-.6q-.2-.3-.5-.4l-.6-.3h-.7q-.8 0-1.5.3-.7.4-1.2 1t-.8 1.4q-.3.8-.3 1.6v5.4h-2v-11zm20 1.5l-1 1.5-.1-.2v-.3l-1.3-1q-.8-.5-1.8-.5l-.9.2q-.4 0-.7.3-.3.1-.5.5-.2.2-.2.6l.1.6.5.4.9.4 1.4.5q2.1.6 3 1.3.8.8.8 1.9 0 .7-.3 1.3-.3.7-1 1.2-.5.4-1.4.7-.8.3-1.9.3-2.7 0-4.6-1.7l1-1.8.1.3.2.3q.1.3.5.5l1.2.6.8.3h1.9l.8-.4q.5-.2.7-.6.2-.3.2-.7 0-.6-.5-1-.6-.5-2.2-1l-1.3-.4-1.3-.5-.7-.6-.5-.8-.2-1q0-.6.3-1.1.3-.6.9-1 .6-.4 1.3-.6.8-.3 1.7-.3 2.6 0 4.1 1.8z" fill="#2a86c0"/><path d="M110.5 27.6q.4.4.4 1 0 .5-.4 1-.4.3-1 .3t-1-.4q-.5-.4-.5-1 0-.5.5-1 .4-.3 1-.3.5 0 1 .4zm7.6-8.9h1.8v2.1q.5-1.2 1.6-1.8 1-.6 2.3-.6 1.8 0 3 1.2l-.8 1.7-.5-.6q-.2-.3-.5-.4l-.6-.3h-.7q-.8 0-1.5.3-.7.4-1.2 1t-.8 1.4q-.3.8-.3 1.6v5.4H118v-11zm15.9-.3q.8 0 1.6.3.9.3 1.5 1 .6.6 1 1.6.3 1 .3 2.3v.8h-7.8q0 1.2.4 2 .3.7.9 1.2.5.5 1.1.7l1.3.2q1.7 0 2.9-1.2l1 1q-1.5 1.6-4 1.6-1.1 0-2.1-.4-1-.3-1.7-1-.7-.8-1-1.8-.5-1.1-.5-2.5t.4-2.5q.4-1 1-1.8.8-.7 1.7-1 1-.5 2-.5zm-3.3 4.7h6v-.4q0-.6-.2-1.1l-.6-1q-.4-.4-1-.6-.5-.3-1-.3-1.2 0-2 .9-1 .8-1.2 2.5zm10 6.6v-11h1.5v1q.4-.5 1-.9t1.3-.4q.7 0 1.2.5.6.4.7 1.1.3-.7 1-1.1.7-.5 1.5-.5 1.1 0 1.6.8.6.8.5 2v8.5h-1.6v-9l-.3-.6-.3-.3-.5-.1q-.3 0-.6.3-.3.2-.5.6-.3.4-.4.9l-.2 1v7.2H145V22q0-1.3-.2-1.8-.3-.5-.9-.5-.6 0-1.1.7-.6.7-.6 2v7.3h-1.5zm17.1-11.3q1 0 2 .5.9.3 1.5 1 .7.8 1 2 .5 1 .5 2.3 0 1.3-.4 2.4-.4 1-1 1.8-.7.8-1.6 1.2-1 .3-2 .3t-2-.4q-.9-.4-1.6-1.2-.7-.7-1-1.8-.5-1-.5-2.3 0-1.2.4-2.3l1.1-1.8q.8-.8 1.7-1.2 1-.5 2-.5zm3.3 5.8q0-1-.3-1.8L160 21q-.5-.5-1.1-.8-.6-.3-1.2-.3-.7 0-1.3.3l-1 .8-.7 1.4q-.3.8-.3 1.7 0 1 .3 1.8l.7 1.4q.4.5 1 .8.7.4 1.3.4.7 0 1.3-.3.6-.3 1-.8.5-.6.7-1.4.3-.8.3-1.8zm3.9-4.9l-.3-.6h2v.5l3.2 8.1 1.8-4 1-2.5.5-2.1h1.5q-.5 2-1.6 4.8l-2.7 6.2h-1.3L165 19.3zm17-.9q.8 0 1.6.3.9.3 1.5 1 .6.6 1 1.6.3 1 .3 2.3v.8h-7.8q0 1.2.4 2 .3.7.9 1.2.5.5 1.1.7l1.3.2q1.7 0 2.9-1.2l1 1q-1.5 1.6-4 1.6-1.1 0-2.1-.4-1-.3-1.7-1-.7-.8-1-1.8-.5-1.1-.5-2.5t.4-2.5q.4-1 1-1.8.8-.7 1.7-1 1-.5 2-.5zm-3.3 4.7h6v-.4q0-.6-.2-1.1l-.6-1q-.4-.4-1-.6-.5-.3-1-.3-1.2 0-2 .9-1 .8-1.2 2.5zm19-7.9h-.5q-2.1 1.3-3.3 3.4-1.2 2.2-1.2 5 0 1.3.4 2.6t1 2.5q.7 1.1 1.7 2.1t2.2 1.7l-.8 1.3q-1.5-.7-2.6-1.8t-2-2.5q-.7-1.3-1.1-2.8-.4-1.6-.4-3.2 0-1.7.4-3.2.4-1.5 1.2-2.7.8-1.3 2-2.3 1-1 2.5-1.6l.7 1.4h-.2z" fill="#06345e"/><path d="M47.6 55.3v-2.4q0-1.6-.5-2.2-.6-.5-1.6-.5H45v-1.4h.5q1 0 1.6-.6.6-.6.6-2v-1.7q0-4.1 4.3-4.1h1.5v1.3h-2q-2.2 0-2.2 2.6V46q0 2.6-2 3.5 2 .7 2 3.7v2q0 1.7.7 2.3.7.6 2.3.6h1.2v1.4h-.8l-2.1-.1q-1-.1-1.7-.6-1.3-1.1-1.3-3.5zm30.5-9.1l-1 1.5-.1-.2v-.3l-1.3-1q-.8-.5-1.8-.5l-.9.2q-.4 0-.7.3-.3.1-.5.5-.2.2-.2.6l.1.6.5.4.9.4 1.4.5q2.1.6 3 1.3.8.8.8 1.9 0 .7-.3 1.3-.3.7-1 1.2-.5.4-1.4.7-.8.3-1.9.3-2.7 0-4.6-1.7l1-1.8.1.3.2.3q.1.3.5.5l1.2.6.8.3h1.9l.8-.4q.5-.2.7-.6.2-.3.2-.7 0-.6-.5-1-.6-.5-2.2-1l-1.3-.4-1.3-.5-.7-.6-.5-.8-.2-1q0-.6.3-1.1.3-.6.9-1 .6-.4 1.3-.6.8-.3 1.7-.3 2.6 0 4.1 1.8zm6.2-4.4l1.9-.4-.1.4v.3l-.4 2.6h3.6V46h-3.6l-.2 4v2l.3 1.2q.2.5.6.7.4.3 1 .3 1.1 0 2.5-1l.5 1.3Q88.7 56 87 56t-2.5-1q-.8-1.1-.7-3.5v-2.2l.2-3.1h-2.6v-1.4h2.7l.2-3zM94 46q1.4-1.6 3.8-1.6 2 0 3.2 1 1.2 1 1.2 3.5v6.8h-1.6v-1.2q-1.8 1.4-4 1.4-.8 0-1.5-.2l-1.2-.7q-.5-.5-.7-1-.3-.6-.3-1.1 0-1.7 1.4-2.6 1.5-1 4.2-1.1h2v-.4q0-1.6-.7-2.3-.6-.6-2-.6-1.9 0-3 1.2l-.9-1.1zm6.6 4.5H99q-1.3 0-2.2.2-.8.2-1.3.5t-.7.7l-.1.8q0 .8.6 1.3.7.6 1.7.6.7 0 1.3-.2l1-.6.7-.6.4-.7q.2-.4.2-1.3v-.7zm7.7-8.7l1.9-.4-.1.4v.3l-.4 2.6h3.6V46h-3.6l-.2 4v2l.3 1.2q.2.5.6.7.4.3 1 .3 1.1 0 2.5-1l.5 1.3Q112.7 56 111 56t-2.5-1q-.8-1.1-.7-3.5v-2.2l.2-3.1h-2.6v-1.4h2.7l.2-3zm9 2.9h1.7v6.1q0 1 .2 1.8.2.7.5 1.1l.8.6 1 .2q.6 0 1-.3.6-.2 1-.6.5-.5.7-1.2.2-.7.2-1.7v-6h1.8v10l.1 1h-1.8V54q-.6.9-1.5 1.4-.9.5-2 .5-.8 0-1.5-.3-.6-.3-1.2-.9-.5-.6-.8-1.6-.3-1-.3-2.3v-6.1zm20.8 1.5l-1 1.5-.1-.2v-.3l-1.3-1q-.8-.5-1.8-.5l-.9.2q-.4 0-.7.3-.3.1-.5.5-.2.2-.2.6l.1.6.5.4.9.4 1.4.5q2.1.6 3 1.3.8.8.8 1.9 0 .7-.3 1.3-.3.7-1 1.2-.5.4-1.4.7-.8.3-1.9.3-2.7 0-4.6-1.7l1-1.8.1.3.2.3q.1.3.5.5l1.2.6.8.3h1.9l.8-.4q.5-.2.7-.6.2-.3.2-.7 0-.6-.5-1-.6-.5-2.2-1l-1.3-.4-1.3-.5-.7-.6-.5-.8-.2-1q0-.6.3-1.1.3-.6.9-1 .6-.4 1.3-.6.8-.3 1.7-.3 2.6 0 4.1 1.8zm8.4-.2q.4.3.4.9 0 .5-.4 1-.5.4-1 .4-.6 0-1-.4-.5-.5-.5-1 0-.6.5-1 .4-.4 1-.4.5 0 1 .4zm0 7.6q.4.4.4 1 0 .5-.4 1-.4.3-1 .3t-1-.4q-.5-.4-.5-1 0-.5.5-1 .4-.3 1-.3.5 0 1 .4zm24.8-11.1l-.1-1.5q0-.7.3-1 .3-.3.7-.3.4 0 .7.3.4.4.4 1.2 0 .7-.8 3l-.6 1.6-1.3-.3.5-1.7.2-1.3zm-4.1 0L167 41q0-.7.3-1 .3-.3.7-.3.5 0 .8.3.3.4.3 1.2 0 .8-.8 3l-.5 1.6-1.4-.3.5-1.7.2-.6v-.7zm9.8-1.8h3.5q2 0 3 .5 1 .6 1.8 1.5.8 1 1.1 2.4.4 1.4.4 3.2 0 1.7-.4 3-.5 1.4-1.2 2.4-.8 1-2 1.5t-3 .5H177v-15zm1.6 1.4v12.3h1.6q2.5 0 3.7-1.6 1.2-1.5 1.2-4.4 0-3-1-4.6-1.2-1.7-3.7-1.7h-1.8zm16.7.4l-.1-1.5q0-.7.3-1 .3-.3.7-.3.4 0 .7.3.4.4.4 1.2 0 .7-.8 3l-.6 1.6-1.3-.3.5-1.7.2-1.3zm-4.1 0L191 41q0-.7.3-1 .3-.3.7-.3.5 0 .8.3.3.4.3 1.2 0 .8-.8 3l-.5 1.6-1.4-.3.5-1.7.2-.6v-.7zm28.7 2l-.1 1.8q0 1.3.6 2 .5.5 1.6.5h.5v1.4h-.5q-1 0-1.6.5-.5.6-.5 2.2v2.4q0 2.1-1 3.1-.9 1-3 1h-2v-1.3h2.9l.3-.2.3-.2q1-.7 1-2.5l-.1-2q0-3 2-3.7-2-.9-2-3.5v-1.7q0-1.4-.6-2-.6-.6-1.8-.6H214v-1.3h2.4q1 0 1.7.5.8.5 1.3 1.3.5.9.5 2.3z" fill="#2a86c0"/><path d="M9.6 67.2l.5-1.5q1.4.7 2.6 1.7 1.2 1 2 2.4.9 1.3 1.3 2.8.5 1.5.5 3 0 1.7-.5 3.2-.4 1.5-1.3 2.9-.9 1.3-2 2.4-1.3 1-2.8 1.7l-.4-1.4q1.2-.7 2.2-1.6 1-.9 1.6-2 .7-1.2 1.1-2.5.4-1.2.4-2.6 0-1.3-.4-2.6t-1-2.4q-.7-1-1.7-2-1-.9-2-1.5z" fill="#053056"/></g><g stroke="#5ca831" stroke-width="2"><path d="M315.8 49.5l-43-.2" fill="none"/><path d="M272.9 45.7l-9.7 3.6 9.6 3.6z" fill="#5ca831"/></g><path d="M333.6 45.6v2.5-.2q1.6-2.5 3.2-2.5 1.2 0 2.5 1.2l-1.1 2q-1.2-1.1-2.1-1.1-1 0-1.8 1-.7 1-.7 2.3v5.6h-2.2V45.6h2.2zm15.9 5.6h-7.6q.1 1.6 1 2.5 1 .9 2.5.9 2.1 0 4-1.3v2q-1 .7-2 1-1 .3-2.3.3-1.8 0-2.9-.8-1-.7-1.8-2-.6-1.2-.6-2.8 0-2.5 1.4-4 1.4-1.6 3.6-1.6 2.1 0 3.4 1.5 1.3 1.5 1.3 4v.3zM342 50h5.4q0-1.2-.8-2-.7-.6-1.8-.6t-1.9.7q-.7.7-1 2zm18.6-1.4v7.8h-2.1v-6q0-1.8-.5-2.5t-1.7-.7q-.6 0-1.2.3l-1.3 1v8h-2.1v-11h2.1V47q1.7-1.7 3.2-1.7 2 0 3.2 2 1.7-2 3.6-2 1.5 0 2.6 1.2 1 1.1 1 3.5v6.3h-2.2V50q0-1.3-.5-2-.6-.7-1.6-.7-1.3 0-2.5 1.3zm14.8-3q2.5 0 4.1 1.6 1.6 1.6 1.6 4 0 2.3-1.6 3.9-1.7 1.5-4.2 1.5-2.4 0-4-1.6-1.7-1.5-1.7-3.9 0-2.3 1.7-3.9 1.6-1.6 4.1-1.6zm-.1 2q-1.5 0-2.5 1t-1 2.5q0 1.6 1 2.5 1 1 2.6 1t2.6-1q1-1 1-2.5t-1-2.6q-1.1-1-2.7-1zm14.5-2h2.4l-4.8 11h-.7l-4.9-11h2.3l3 6.7 2.7-6.7zm12.7 5.6h-7.6q0 1.6 1 2.5 1 .9 2.5.9 2.1 0 3.9-1.3v2q-1 .7-2 1-1 .3-2.2.3-1.8 0-3-.8-1-.7-1.7-2-.6-1.2-.6-2.8 0-2.5 1.3-4 1.4-1.6 3.7-1.6 2.1 0 3.4 1.5 1.3 1.5 1.3 4v.3zm-7.6-1.3h5.5q-.1-1.2-.8-2-.7-.6-1.8-.6-1.2 0-2 .7-.6.7-.9 2zm24.6 4V56q-1.6.6-3.1.6-2.6 0-4-1.5-1.6-1.5-1.6-4 0-2.6 1.5-4.1 1.5-1.6 3.8-1.6.9 0 1.5.2.7.1 1.7.6v2.3q-1.6-1-3-1-1.5 0-2.4 1-1 1-1 2.5 0 1.7 1 2.6 1 1 2.8 1 1.2 0 2.8-.7zm4.7-8.3v2.5l.1-.2q1.6-2.5 3.1-2.5 1.2 0 2.5 1.2l-1 2q-1.2-1.1-2.1-1.1-1 0-1.8 1t-.8 2.3v5.6h-2.1V45.6h2.1zm8.3-4.5q.6 0 1 .4.3.3.3.9 0 .5-.4.8-.3.4-.9.4-.5 0-.8-.4-.4-.3-.4-.8t.4-1q.3-.3.8-.3zm-1 4.5h2.1v10.8h-2.1V45.6zm3.7 1.7l4-3.9v2.2h3.4v2h-3.4v5.2q0 1.9 1.5 1.9 1.2 0 2.4-.8v2q-1.2.7-2.6.7-1.5 0-2.5-.8l-.5-.6-.3-.9-.1-2v-4.7h-2v-.3zm18.7 3.9h-7.6q0 1.6 1 2.5 1 .9 2.5.9 2.1 0 3.9-1.3v2q-1 .7-2 1-1 .3-2.2.3-1.8 0-2.9-.8-1.1-.7-1.8-2-.6-1.2-.6-2.8 0-2.5 1.4-4 1.4-1.6 3.6-1.6 2.1 0 3.4 1.5 1.3 1.5 1.3 4v.3zm-7.5-1.3h5.4q-.1-1.2-.8-2-.7-.6-1.8-.6-1.2 0-1.9.7t-1 2zm12.1-4.3v2.5-.2q1.6-2.5 3.2-2.5 1.2 0 2.5 1.2l-1.1 2q-1.1-1.1-2-1.1-1.1 0-1.9 1-.7 1-.7 2.3v5.6h-2.2V45.6h2.2zm8.3-4.5q.5 0 1 .4.3.3.3.9 0 .5-.4.8-.4.4-.9.4t-.9-.4q-.3-.3-.3-.8t.3-1q.4-.3.9-.3zm-1 4.5h2v10.8h-2V45.6zm11.9 4.4v4.5q0 .6.4.6t1.2-.6v1.3q-.7.5-1.2.6-.4.2-.9.2-1.3 0-1.6-1-1.4 1-2.9 1-1.1 0-1.9-.8-.7-.7-.7-1.8 0-1 .7-1.8.8-.9 2.1-1.3l2.7-1v-.5q0-2-2-2-1.7 0-3.3 1.8V47q1.2-1.5 3.6-1.5 1.7 0 2.8 1l.6.7q.3.5.3 1l.1 1.8zm-2 4.3V51l-1.5.5q-1 .5-1.5 1-.5.4-.5 1 0 .7.4 1.1.5.4 1.1.4 1 0 2-.8z" font-size="24" font-family="GillSans" fill="#2a86c0"/><g stroke="#5ca831" stroke-width="2"><path d="M315.8 21.5l-43-.2" fill="none"/><path d="M272.9 17.7l-9.7 3.6 9.6 3.6z" fill="#5ca831"/></g><path d="M339.4 24.1v2.1q-1.7.6-3.2.6-2.5 0-4-1.5t-1.5-4q0-2.5 1.4-4 1.5-1.6 3.9-1.6l1.5.1 1.6.6v2.3q-1.6-1-3-1t-2.3 1q-1 1-1 2.6t1 2.6q1 1 2.7 1 1.3 0 2.9-.8zm7.6-8.2q2.4 0 4 1.5 1.6 1.6 1.6 4t-1.6 4q-1.7 1.4-4.2 1.4-2.4 0-4-1.5-1.7-1.6-1.7-4 0-2.3 1.7-3.9 1.6-1.5 4.1-1.5zm-.2 1.9q-1.5 0-2.5 1t-1 2.5q0 1.6 1 2.6t2.6 1q1.6 0 2.6-1t1-2.6q0-1.5-1-2.5-1.1-1-2.7-1zm8.2-7.5h2.2v16.4H355V10.3zm5.3 0h2.2v16.4h-2.2V10.3zm14.5 11.2h-7.6q0 1.5 1 2.4 1 1 2.5 1 2.1 0 3.9-1.4v2.1q-1 .7-2 1-1 .2-2.2.2-1.8 0-3-.7-1-.8-1.7-2-.6-1.3-.6-2.9 0-2.5 1.3-4 1.4-1.5 3.7-1.5 2.1 0 3.4 1.5 1.3 1.5 1.3 4v.3zm-7.6-1.3h5.5q-.1-1.3-.8-2-.7-.7-1.8-.7-1.2 0-2 .7-.6.7-.9 2zm17.9 3.9v2.1q-1.6.6-3 .6-2.6 0-4.1-1.5-1.5-1.5-1.5-4t1.4-4q1.5-1.6 3.9-1.6l1.5.1 1.6.6v2.3q-1.6-1-3-1t-2.4 1q-.9 1-.9 2.6t1 2.6q1 1 2.7 1 1.3 0 2.8-.8zm.9-6.5l4-4V16h3.5v1.9H390v5.3q0 1.8 1.5 1.8 1.1 0 2.4-.7v2q-1.2.6-2.7.6-1.4 0-2.4-.8l-.5-.6-.3-.8q-.2-.6-.2-2v-4.8H386v-.2zm10.7-6.3q.5 0 .9.4t.4.9q0 .5-.4.9t-1 .4q-.4 0-.8-.4t-.4-1q0-.4.4-.8t.9-.4zm-1 4.6h2v10.8h-2V15.9zm10.3 0q2.4 0 4 1.5 1.7 1.6 1.7 4t-1.6 4q-1.7 1.4-4.2 1.4-2.4 0-4-1.5-1.7-1.6-1.7-4 0-2.3 1.6-3.9 1.7-1.5 4.2-1.5zm-.1 1.9q-1.6 0-2.6 1t-1 2.5q0 1.6 1 2.6t2.7 1q1.5 0 2.5-1t1-2.6q0-1.5-1-2.5t-2.6-1zm10.3-1.9v1.3q1.4-1.5 3.2-1.5 1 0 1.9.5.9.5 1.3 1.4.5 1 .5 2.9v6.2h-2.2v-6.2q0-1.6-.5-2.3-.5-.8-1.7-.8-1.5 0-2.5 1.6v7.7H414V15.9h2.2z" font-size="24" font-family="GillSans" fill="#2a86c0"/></svg>