<?xml version="1.0" encoding="UTF-8"?>
<!DOCTYPE svg PUBLIC "-//W3C//DTD SVG 1.1//EN" "http://www.w3.org/Graphics/SVG/1.1/DTD/svg11.dtd">
<svg version="1.1" xmlns="http://www.w3.org/2000/svg" xmlns:xlink="http://www.w3.org/1999/xlink" x="0" y="0" width="240" height="100" viewBox="0, 0, 240, 100">
  <g id="Layer_1">
    <path d="M120.75,18 L120.25,93" fill-opacity="0" stroke="#000000" stroke-width="1" stroke-dasharray="3,2"/>
    <text transform="matrix(1, 0, 0, 1, 120, 10.077)">
      <tspan x="-59.806" y="4.577" font-family="Inconsolata" font-size="14" fill="#030303">Network Partition</tspan>
    </text>
    <g>
      <path d="M67.872,30.404 L92.448,30.404 C99.468,30.404 105.16,34.881 105.16,40.404 L105.16,40.404 C105.16,45.927 99.468,50.404 92.448,50.404 L67.872,50.404 C60.851,50.404 55.16,45.927 55.16,40.404 L55.16,40.404 C55.16,34.881 60.851,30.404 67.872,30.404 z" fill="#645E5E" opacity="0.75"/>
      <text transform="matrix(1, 0, 0, 1, 76.025, 40.154)">
        <tspan x="-3.568" y="4" font-family="GillSans" font-size="14" fill="#FFFFFF">P</tspan>
      </text>
      <text transform="matrix(1, 0, 0, 1, 88.66, 43.154)">
        <tspan x="-7.554" y="2" font-family="GillSans" font-size="8" fill="#FFFFFF">old</tspan>
      </text>
    </g>
    <g>
      <path d="M33.146,60.654 L57.722,60.654 C64.742,60.654 70.434,65.131 70.434,70.654 L70.434,70.654 C70.434,76.177 64.742,80.654 57.722,80.654 L33.146,80.654 C26.125,80.654 20.434,76.177 20.434,70.654 L20.434,70.654 C20.434,65.131 26.125,60.654 33.146,60.654 z" fill="#77C04E"/>
      <g>
        <text transform="matrix(1, 0, 0, 1, 47.105, 70.41)">
          <tspan x="-5.388" y="3.5" font-family="GillSans" font-size="12" fill="#FFFFFF">S</tspan>
        </text>
        <text transform="matrix(1, 0, 0, 1, 50.343, 73.398)">
          <tspan x="-2.15" y="2" font-family="GillSans" font-size="8" fill="#FFFFFF">1</tspan>
        </text>
      </g>
    </g>
    <g>
      <path d="M150.824,30.404 L175.4,30.404 C182.421,30.404 188.112,34.881 188.112,40.404 L188.112,40.404 C188.112,45.927 182.421,50.404 175.4,50.404 L150.824,50.404 C143.804,50.404 138.112,45.927 138.112,40.404 L138.112,40.404 C138.112,34.881 143.804,30.404 150.824,30.404 z" fill="#2A86C0"/>
      <g>
        <text transform="matrix(1, 0, 0, 1, 158.071, 40.154)">
          <tspan x="-3.568" y="4" font-family="GillSans" font-size="14" fill="#FFFFFF">P</tspan>
        </text>
        <text transform="matrix(1, 0, 0, 1, 171.681, 43.154)">
          <tspan x="-10.042" y="2" font-family="GillSans" font-size="8" fill="#FFFFFF">new</tspan>
        </text>
      </g>
    </g>
    <g>
      <path d="M199.516,52.654 L224.092,52.654 C231.113,52.654 236.804,57.131 236.804,62.654 L236.804,62.654 C236.804,68.177 231.113,72.654 224.092,72.654 L199.516,72.654 C192.495,72.654 186.804,68.177 186.804,62.654 L186.804,62.654 C186.804,57.131 192.495,52.654 199.516,52.654 z" fill="#77C04E"/>
      <text transform="matrix(1, 0, 0, 1, 213.167, 62.654)">
        <tspan x="-4.778" y="3.5" font-family="GillSans" font-size="12" fill="#FFFFFF">S</tspan>
      </text>
      <text transform="matrix(1, 0, 0, 1, 217.471, 65.654)">
        <tspan x="-2.474" y="2" font-family="GillSans" font-size="8" fill="#FFFFFF">3</tspan>
      </text>
    </g>
    <g>
      <path d="M138.935,74.167 L163.511,74.167 C170.532,74.167 176.223,78.644 176.223,84.167 L176.223,84.167 C176.223,89.69 170.532,94.167 163.511,94.167 L138.935,94.167 C131.914,94.167 126.223,89.69 126.223,84.167 L126.223,84.167 C126.223,78.644 131.914,74.167 138.935,74.167 z" fill="#77C04E"/>
      <g>
        <text transform="matrix(1, 0, 0, 1, 152.194, 84.167)">
          <tspan x="-5.015" y="3.5" font-family="GillSans" font-size="12" fill="#FFFFFF">S</tspan>
        </text>
        <text transform="matrix(1, 0, 0, 1, 158.938, 86.667)">
          <tspan x="-3.729" y="2" font-family="GillSans" font-size="8" fill="#FFFFFF">2</tspan>
        </text>
      </g>
    </g>
  </g>
</svg>
