<?xml version="1.0" encoding="UTF-8" standalone="no"?>
<svg
   width="1160"
   height="1320"
   version="1.1"
   id="svg1041"
   sodipodi:docname="query-planner-logic.svg"
   inkscape:version="1.2.1 (9c6d41e, 2022-07-14)"
   xmlns:inkscape="http://www.inkscape.org/namespaces/inkscape"
   xmlns:sodipodi="http://sodipodi.sourceforge.net/DTD/sodipodi-0.dtd"
   xmlns:xlink="http://www.w3.org/1999/xlink"
   xmlns="http://www.w3.org/2000/svg"
   xmlns:svg="http://www.w3.org/2000/svg"
   xmlns:lucid="lucid">
  <defs
     id="defs1045" />
  <sodipodi:namedview
     id="namedview1043"
     pagecolor="#ffffff"
     bordercolor="#000000"
     borderopacity="0.25"
     inkscape:showpageshadow="2"
     inkscape:pageopacity="0.0"
     inkscape:pagecheckerboard="0"
     inkscape:deskcolor="#d1d1d1"
     showgrid="false"
     inkscape:zoom="0.17878788"
     inkscape:cx="576.10169"
     inkscape:cy="660"
     inkscape:window-width="1728"
     inkscape:window-height="1080"
     inkscape:window-x="0"
     inkscape:window-y="37"
     inkscape:window-maximized="0"
     inkscape:current-layer="g1039" />
  <g
     transform="translate(-160 -100)"
     lucid:page-tab-id="qtE5~9RCKWiJ"
     id="g1039">
    <path
       d="M180 246a6 6 0 0 1 6-6h1108a6 6 0 0 1 6 6v1028a6 6 0 0 1-6 6H186a6 6 0 0 1-6-6z"
       stroke="#dfe3e8"
       stroke-width="5"
       fill-opacity="0"
       id="path11" />
    <path
       d="M180 240h220v60H180z"
       fill="none"
       id="path13" />
    <use
       xlink:href="#a"
       transform="matrix(1,0,0,1,180,240) translate(25.911111111111126 38.946666666666665)"
       id="use15" />
    <use
       xlink:href="#b"
       transform="matrix(1,0,0,1,180,240) translate(104.23111111111112 38.946666666666665)"
       id="use17" />
    <path
       d="M746.18 283.58a8.06 8.06 0 0 1 9.63 0l80.74 60.12a4.47 4.47 0 0 1 0 7.16l-80.73 60.12a8.06 8.06 0 0 1-9.62 0l-80.73-60.12a4.47 4.47 0 0 1 0-7.16z"
       stroke="#3a414a"
       stroke-width="2"
       fill="#fff"
       id="path19" />
    <use
       xlink:href="#c"
       transform="matrix(1,0,0,1,672.6354935384941,292) translate(23.87500000000001 51.21875)"
       id="use21" />
    <use
       xlink:href="#d"
       transform="matrix(1,0,0,1,672.6354935384941,292) translate(68.655 51.21875)"
       id="use23" />
    <use
       xlink:href="#e"
       transform="matrix(1,0,0,1,672.6354935384941,292) translate(54.275000000000006 76.57875)"
       id="use25" />
    <path
       d="M1111.25 506a6 6 0 0 1 6-6h148a6 6 0 0 1 6 6v113.44a6 6 0 0 1-6 6h-148a6 6 0 0 1-6-6z"
       stroke="#3a414a"
       stroke-width="2"
       fill="#fff"
       id="path27" />
    <use
       xlink:href="#f"
       transform="matrix(1,0,0,1,1123.250030401628,512) translate(2.1500000000000057 23.187499999999996)"
       id="use29" />
    <use
       xlink:href="#g"
       transform="matrix(1,0,0,1,1123.250030401628,512) translate(96.86999999999999 23.187499999999996)"
       id="use31" />
    <use
       xlink:href="#h"
       transform="matrix(1,0,0,1,1123.250030401628,512) translate(26.89 48.54749999999999)"
       id="use33" />
    <use
       xlink:href="#i"
       transform="matrix(1,0,0,1,1123.250030401628,512) translate(17.010000000000005 73.90749999999998)"
       id="use35" />
    <use
       xlink:href="#j"
       transform="matrix(1,0,0,1,1123.250030401628,512) translate(42.81 99.26749999999998)"
       id="use37" />
    <path
       d="M292.33 496.3a8.03 8.03 0 0 1 9.6 0l80.4 60.1a4.5 4.5 0 0 1 0 7.2l-80.4 60.1a8.03 8.03 0 0 1-9.6 0l-80.4-60.1a4.5 4.5 0 0 1 0-7.2z"
       stroke="#3a414a"
       stroke-width="2"
       fill="#fff"
       id="path39" />
    <use
       xlink:href="#k"
       transform="matrix(1,0,0,1,219.13845423430305,504.72) translate(36.895000000000024 44.281249999999986)"
       id="use41" />
    <use
       xlink:href="#l"
       transform="matrix(1,0,0,1,219.13845423430305,504.72) translate(16.88500000000003 69.64124999999997)"
       id="use43" />
    <path
       d="M1111.25 691.44a6 6 0 0 1 6-6h148a6 6 0 0 1 6 6v108a6 6 0 0 1-6 6h-148a6 6 0 0 1-6-6z"
       stroke="#3a414a"
       stroke-width="2"
       fill="#fff"
       id="path45" />
    <use
       xlink:href="#m"
       transform="matrix(1,0,0,1,1123.250030401628,697.4399999999999) translate(31.650000000000006 44)"
       id="use47" />
    <use
       xlink:href="#n"
       transform="matrix(1,0,0,1,1123.250030401628,697.4399999999999) translate(6.670000000000016 69.36)"
       id="use49" />
    <use
       xlink:href="#o"
       transform="matrix(1,0,0,1,1123.250030401628,697.4399999999999) translate(88.28999999999999 69.36)"
       id="use51" />
    <path
       d="M670 506a6 6 0 0 1 6-6h148a6 6 0 0 1 6 6v113.44a6 6 0 0 1-6 6H676a6 6 0 0 1-6-6z"
       stroke="#3a414a"
       stroke-width="2"
       fill="#fff"
       id="path53" />
    <use
       xlink:href="#f"
       transform="matrix(1,0,0,1,682,512) translate(2.1500000000000057 23.187499999999996)"
       id="use55" />
    <use
       xlink:href="#g"
       transform="matrix(1,0,0,1,682,512) translate(96.86999999999999 23.187499999999996)"
       id="use57" />
    <use
       xlink:href="#h"
       transform="matrix(1,0,0,1,682,512) translate(26.89 48.54749999999999)"
       id="use59" />
    <use
       xlink:href="#i"
       transform="matrix(1,0,0,1,682,512) translate(17.010000000000005 73.90749999999998)"
       id="use61" />
    <use
       xlink:href="#j"
       transform="matrix(1,0,0,1,682,512) translate(42.81 99.26749999999998)"
       id="use63" />
    <path
       d="M669.5 691.44a6 6 0 0 1 6-6h148a6 6 0 0 1 6 6v108a6 6 0 0 1-6 6h-148a6 6 0 0 1-6-6z"
       stroke="#3a414a"
       stroke-width="2"
       fill="#fff"
       id="path65" />
    <use
       xlink:href="#m"
       transform="matrix(1,0,0,1,681.5027433630282,697.44) translate(31.650000000000006 44)"
       id="use67" />
    <use
       xlink:href="#n"
       transform="matrix(1,0,0,1,681.5027433630282,697.44) translate(6.670000000000016 69.36)"
       id="use69" />
    <use
       xlink:href="#o"
       transform="matrix(1,0,0,1,681.5027433630282,697.44) translate(88.28999999999999 69.36)"
       id="use71" />
    <path
       d="M744.68 869a8.1 8.1 0 0 1 9.64 0l81.22 60.15a4.44 4.44 0 0 1 0 7.14l-81.22 60.13a8.1 8.1 0 0 1-9.64 0l-81.2-60.14a4.44 4.44 0 0 1 0-7.15z"
       stroke="#3a414a"
       stroke-width="2"
       fill="#fff"
       id="path73" />
    <use
       xlink:href="#p"
       transform="matrix(1,0,0,1,670.646466990607,877.44) translate(34.335 40.98970295239452)"
       id="use75" />
    <use
       xlink:href="#q"
       transform="matrix(1,0,0,1,670.646466990607,877.44) translate(15.14499999999999 66.34970295239452)"
       id="use77" />
    <use
       xlink:href="#r"
       transform="matrix(1,0,0,1,670.646466990607,877.44) translate(79.96499999999999 66.34970295239452)"
       id="use79" />
    <path
       d="M1186.35 346.36l1.06.26 1.03.42.94.57.83.73.72.83.57.94.4 1.02.28 1.1.07 128.3-2 .02-.07-128.08-.18-.72-.3-.73-.4-.66-.52-.6-.6-.5-.66-.4-.73-.3-.77-.2-.82-.06h-65.38v-2h65.47zm-346 1.92v-2h72.84v2z"
       stroke="#3a414a"
       stroke-width=".05"
       fill="#3a414a"
       id="path81" />
    <path
       d="M840.37 348.28h-1.12l.1-1-.1-1h1.12z"
       fill="#3a414a"
       id="path83" />
    <path
       d="M840.4 348.3h-1.18l.1-1.02-.1-1.02h1.18zm-1.12-2l.1.98-.1.98h1.07v-1.95z"
       stroke="#3a414a"
       stroke-width=".05"
       fill="#3a414a"
       id="path85" />
    <path
       d="M1191.25 495.8l-4.64-14.27h9.3z"
       fill="#3a414a"
       id="path87" />
    <path
       d="M1191.25 499.04l-6-18.5h12zm-3.26-16.5l3.25 10.02 3.26-10.03z"
       stroke="#3a414a"
       stroke-width=".05"
       fill="#3a414a"
       id="path89" />
    <use
       xlink:href="#s"
       transform="matrix(1,0,0,1,913.1852204352274,336.00888888888886) translate(0.0049999999999954525 17.777777777777768)"
       id="use91" />
    <use
       xlink:href="#t"
       transform="matrix(1,0,0,1,913.1852204352274,336.00888888888886) translate(29.018333333333313 17.777777777777768)"
       id="use93" />
    <use
       xlink:href="#u"
       transform="matrix(1,0,0,1,913.1852204352274,336.00888888888886) translate(75.98722222222217 17.777777777777768)"
       id="use95" />
    <use
       xlink:href="#v"
       transform="matrix(1,0,0,1,913.1852204352274,336.00888888888886) translate(131.7738888888888 17.777777777777768)"
       id="use97" />
    <path
       d="M406.17 348.28h-103l-.8.06-.78.2-.73.3-.67.4-.6.5-.5.6-.4.67-.3.74-.2.72-.06 122.75h-2l.07-122.98.28-1.1.42-1.02.57-.94.72-.83.82-.72.94-.56 1-.42 1.08-.26 1.06-.08h103.07zm255.47 0h-96.32v-2h96.32z"
       stroke="#3a414a"
       stroke-width=".05"
       fill="#3a414a"
       id="path99" />
    <path
       d="M662.64 347.28l.1 1h-1.12v-2h1.12z"
       fill="#3a414a"
       id="path101" />
    <path
       d="M662.67 347.28l.1 1.03h-1.18v-2.05h1.17zm-1.03-.97v1.95h1.07l-.08-.97.1-.97z"
       stroke="#3a414a"
       stroke-width=".05"
       fill="#3a414a"
       id="path103" />
    <path
       d="M297.14 490.48l-4.64-14.27h9.27z"
       fill="#3a414a"
       id="path105" />
    <path
       d="M297.14 493.7l-6-18.5h12zm-3.26-16.5l3.26 10.04 3.26-10.03z"
       stroke="#3a414a"
       stroke-width=".05"
       fill="#3a414a"
       id="path107" />
    <use
       xlink:href="#w"
       transform="matrix(1,0,0,1,406.1745953446532,336.00888888888886) translate(0.0049999999999954525 17.777777777777768)"
       id="use109" />
    <use
       xlink:href="#t"
       transform="matrix(1,0,0,1,406.1745953446532,336.00888888888886) translate(60.680555555555515 17.777777777777768)"
       id="use111" />
    <use
       xlink:href="#x"
       transform="matrix(1,0,0,1,406.1745953446532,336.00888888888886) translate(107.64944444444437 17.777777777777768)"
       id="use113" />
    <path
       d="M840.36 1066a6 6 0 0 1 6-6h148a6 6 0 0 1 6 6v108a6 6 0 0 1-6 6h-148a6 6 0 0 1-6-6z"
       stroke="#3a414a"
       stroke-width="2"
       fill="#fff"
       id="path115" />
    <use
       xlink:href="#y"
       transform="matrix(1,0,0,1,845.3590197354495,1065) translate(8.390000000000015 50.9375)"
       id="use117" />
    <use
       xlink:href="#z"
       transform="matrix(1,0,0,1,845.3590197354495,1065) translate(61.23000000000001 50.9375)"
       id="use119" />
    <use
       xlink:href="#A"
       transform="matrix(1,0,0,1,845.3590197354495,1065) translate(35.49 76.2975)"
       id="use121" />
    <path
       d="M1191.25 627.4v38.57"
       stroke="#3a414a"
       stroke-width="2"
       fill="none"
       id="path123" />
    <path
       d="M1192.25 627.43h-2v-1.03h2z"
       stroke="#3a414a"
       stroke-width=".05"
       fill="#3a414a"
       id="path125" />
    <path
       d="M1191.25 681.24l-4.64-14.27h9.3z"
       stroke="#3a414a"
       stroke-width="2"
       fill="#3a414a"
       id="path127" />
    <path
       d="M500.64 1066a6 6 0 0 1 6-6h148a6 6 0 0 1 6 6v108a6 6 0 0 1-6 6h-148a6 6 0 0 1-6-6z"
       stroke="#3a414a"
       stroke-width="2"
       fill="#fff"
       id="path129" />
    <use
       xlink:href="#B"
       transform="matrix(1,0,0,1,512.6354935384941,1072) translate(1.740000000000009 44)"
       id="use131" />
    <use
       xlink:href="#C"
       transform="matrix(1,0,0,1,512.6354935384941,1072) translate(47.6 44)"
       id="use133" />
    <use
       xlink:href="#D"
       transform="matrix(1,0,0,1,512.6354935384941,1072) translate(9.640000000000015 69.36)"
       id="use135" />
    <use
       xlink:href="#e"
       transform="matrix(1,0,0,1,512.6354935384941,1072) translate(77.89999999999999 69.36)"
       id="use137" />
    <path
       d="M799 120c17.67 0 32 17.9 32 40s-14.33 40-32 40h-96c-17.68 0-32-17.9-32-40s14.32-40 32-40z"
       stroke="#3a414a"
       stroke-width="2"
       fill="#dfe3e8"
       id="path139" />
    <use
       xlink:href="#E"
       transform="matrix(1,0,0,1,675.9945132739435,125) translate(42.67777777777778 44.097222222222214)"
       id="use141" />
    <path
       d="M298.14 1233.02l.06.83.2.76.3.73.4.67.5.6.6.5.67.42.72.3.72.17 442.7.06 1.07.1 1.06.24 1 .42.95.58.85.7.7.85.58.93.42 1.02.27 1.1.07 56.5h-2l-.08-56.26-.17-.72-.3-.72-.4-.67-.52-.6-.6-.5-.67-.42-.72-.3-.76-.17-.82-.07-442.88-.07-1.1-.28-1.02-.42-.94-.57-.83-.7-.73-.85-.57-.94-.42-1-.26-1.08-.08-1.06V925.64h2zm0-329.93h-2V627.3h2z"
       stroke="#3a414a"
       stroke-width=".05"
       fill="#3a414a"
       id="path143" />
    <path
       d="M297.14 626.3l1-.08v1.1h-2v-1.1z"
       fill="#3a414a"
       id="path145" />
    <path
       d="M297.14 626.26l1.02-.06v1.14h-2.05v-1.14zm-.98 1.03h1.95v-1.05l-.96.06-.98-.05z"
       stroke="#3a414a"
       stroke-width=".05"
       fill="#3a414a"
       id="path147" />
    <path
       d="M751 1315.76l-4.64-14.26h9.27z"
       fill="#3a414a"
       id="path149" />
    <path
       d="M751 1319l-6.02-18.5H757zm-3.26-16.5l3.25 10.03 3.25-10.03z"
       stroke="#3a414a"
       stroke-width=".05"
       fill="#3a414a"
       id="path151" />
    <use
       xlink:href="#F"
       transform="matrix(1,0,0,1,278.16067645652527,903.0931989924713) translate(0.004999999999999005 17.77777777777778)"
       id="use153" />
    <path
       d="M751 480.54h-2l.02-20.27h2zm1-42.8h-2v-23.17h2z"
       stroke="#3a414a"
       stroke-width=".05"
       fill="#3a414a"
       id="path155" />
    <path
       d="M751 413.57l1-.06v1.1h-2v-1.1z"
       fill="#3a414a"
       id="path157" />
    <path
       d="M751 413.55l1.02-.07v1.14h-2.05v-1.14zm-.98 1.02h1.95v-1.03l-.98.06-.98-.06z"
       stroke="#3a414a"
       stroke-width=".05"
       fill="#3a414a"
       id="path159" />
    <path
       d="M750 495.8l-4.64-14.27h9.28z"
       fill="#3a414a"
       id="path161" />
    <path
       d="M750 499.04l-6-18.5h12zm-3.26-16.5l3.26 10.02 3.26-10.03z"
       stroke="#3a414a"
       stroke-width=".05"
       fill="#3a414a"
       id="path163" />
    <use
       xlink:href="#G"
       transform="matrix(1,0,0,1,664.4967356445461,437.7257693780667) translate(0.0049999999999954525 17.777777777777768)"
       id="use165" />
    <use
       xlink:href="#t"
       transform="matrix(1,0,0,1,664.4967356445461,437.7257693780667) translate(74.5294444444444 17.777777777777768)"
       id="use167" />
    <use
       xlink:href="#x"
       transform="matrix(1,0,0,1,664.4967356445461,437.7257693780667) translate(121.49833333333325 17.777777777777768)"
       id="use169" />
    <path
       d="M1111.78 871.44a6 6 0 0 1 6-6h148a6 6 0 0 1 6 6v108a6 6 0 0 1-6 6h-148a6 6 0 0 1-6-6z"
       stroke="#3a414a"
       stroke-width="2"
       fill="#fff"
       id="path171" />
    <use
       xlink:href="#H"
       transform="matrix(1,0,0,1,1123.7783419005532,877.4399999999999) translate(13.170000000000009 28.999999999999996)"
       id="use173" />
    <use
       xlink:href="#I"
       transform="matrix(1,0,0,1,1123.7783419005532,877.4399999999999) translate(57.370000000000005 28.999999999999996)"
       id="use175" />
    <use
       xlink:href="#J"
       transform="matrix(1,0,0,1,1123.7783419005532,877.4399999999999) translate(103.22999999999999 28.999999999999996)"
       id="use177" />
    <use
       xlink:href="#K"
       transform="matrix(1,0,0,1,1123.7783419005532,877.4399999999999) translate(22.88000000000001 54.36)"
       id="use179" />
    <use
       xlink:href="#L"
       transform="matrix(1,0,0,1,1123.7783419005532,877.4399999999999) translate(91.17999999999999 54.36)"
       id="use181" />
    <use
       xlink:href="#M"
       transform="matrix(1,0,0,1,1123.7783419005532,877.4399999999999) translate(1.8500000000000085 79.72)"
       id="use183" />
    <use
       xlink:href="#e"
       transform="matrix(1,0,0,1,1123.7783419005532,877.4399999999999) translate(85.69 79.72)"
       id="use185" />
    <path
       d="M1191.25 807.4v38.58"
       stroke="#3a414a"
       stroke-width="2"
       fill="none"
       id="path187" />
    <path
       d="M1192.25 807.43h-2v-1.03h2z"
       stroke="#3a414a"
       stroke-width=".05"
       fill="#3a414a"
       id="path189" />
    <path
       d="M1191.25 861.24l-4.64-14.26h9.3z"
       stroke="#3a414a"
       stroke-width="2"
       fill="#3a414a"
       id="path191" />
    <path
       d="M460 508.72a6 6 0 0 1 6-6h148a6 6 0 0 1 6 6v108a6 6 0 0 1-6 6H466a6 6 0 0 1-6-6z"
       stroke="#3a414a"
       stroke-width="2"
       fill="#fff"
       id="path193" />
    <use
       xlink:href="#B"
       transform="matrix(1,0,0,1,465,507.72) translate(8.740000000000009 50.9375)"
       id="use195" />
    <use
       xlink:href="#C"
       transform="matrix(1,0,0,1,465,507.72) translate(54.6 50.9375)"
       id="use197" />
    <use
       xlink:href="#M"
       transform="matrix(1,0,0,1,465,507.72) translate(8.850000000000009 76.2975)"
       id="use199" />
    <use
       xlink:href="#e"
       transform="matrix(1,0,0,1,465,507.72) translate(92.69 76.2975)"
       id="use201" />
    <path
       d="M750 627.4v38.57"
       stroke="#3a414a"
       stroke-width="2"
       fill="none"
       id="path203" />
    <path
       d="M751 627.43h-2v-1.03h2z"
       stroke="#3a414a"
       stroke-width=".05"
       fill="#3a414a"
       id="path205" />
    <path
       d="M750 681.24l-4.64-14.27h9.28z"
       stroke="#3a414a"
       stroke-width="2"
       fill="#3a414a"
       id="path207" />
    <path
       d="M921.36 1040.53h-2l-.02-19.5h2zm-5.9-108.73l1.06.26 1.02.42.94.57.83.72.72.83.58.94.42 1.02.27 1.1v38.3h-2V937.9l-.2-.72-.3-.73-.4-.67-.5-.6-.6-.5-.67-.4-.73-.3-.76-.2-.82-.06h-74.98v-2h75.06z"
       stroke="#3a414a"
       stroke-width=".05"
       fill="#3a414a"
       id="path209" />
    <path
       d="M839.37 933.72h-1.12l.1-1-.1-1h1.12z"
       fill="#3a414a"
       id="path211" />
    <path
       d="M839.4 933.75h-1.18l.1-1.03-.1-1.02h1.17zm-1.13-2l.1.97-.1.98h1.07v-1.96z"
       stroke="#3a414a"
       stroke-width=".05"
       fill="#3a414a"
       id="path213" />
    <path
       d="M920.36 1055.8l-4.64-14.27H925z"
       fill="#3a414a"
       id="path215" />
    <path
       d="M920.36 1059.04l-6-18.5h12zm-3.26-16.5l3.26 10.02 3.26-10.03z"
       stroke="#3a414a"
       stroke-width=".05"
       fill="#3a414a"
       id="path217" />
    <g
       id="g229">
      <use
         xlink:href="#N"
         transform="matrix(1,0,0,1,850.1634641798939,975.9475907031568) translate(12.004999999999995 17.77777777777778)"
         id="use219" />
      <use
         xlink:href="#O"
         transform="matrix(1,0,0,1,850.1634641798939,975.9475907031568) translate(52.76944444444444 17.77777777777778)"
         id="use221" />
      <use
         xlink:href="#P"
         transform="matrix(1,0,0,1,850.1634641798939,975.9475907031568) translate(0.0049999999999954525 40.32)"
         id="use223" />
      <use
         xlink:href="#Q"
         transform="matrix(1,0,0,1,850.1634641798939,975.9475907031568) translate(53.53388888888888 40.32)"
         id="use225" />
      <use
         xlink:href="#R"
         transform="matrix(1,0,0,1,850.1634641798939,975.9475907031568) translate(96.73388888888888 40.32)"
         id="use227" />
    </g>
    <path
       d="M581.64 1040.54h-2v-18.47h2zm78.03-106.82h-73l-.82.06-.76.2-.73.3-.67.4-.6.5-.5.6-.42.67-.3.73-.17.72-.02 39.08h-2l.03-39.32.28-1.1.42-1.02.57-.94.7-.83.85-.72.94-.57 1-.42 1.08-.26 1.06-.08h73.07z"
       stroke="#3a414a"
       stroke-width=".05"
       fill="#3a414a"
       id="path231" />
    <path
       d="M660.67 932.72l.1 1h-1.13v-2h1.12z"
       fill="#3a414a"
       id="path233" />
    <path
       d="M660.7 932.72l.1 1.02h-1.2v-2.04h1.2zm-1.04-.98v1.96h1.07l-.1-.98.1-.98z"
       stroke="#3a414a"
       stroke-width=".05"
       fill="#3a414a"
       id="path235" />
    <path
       d="M580.64 1055.8l-4.64-14.27h9.27z"
       fill="#3a414a"
       id="path237" />
    <path
       d="M580.64 1059.04l-6.02-18.5h12.03zm-3.26-16.5l3.26 10.02 3.25-10.03z"
       stroke="#3a414a"
       stroke-width=".05"
       fill="#3a414a"
       id="path239" />
    <g
       id="g255">
      <use
         xlink:href="#N"
         transform="matrix(1,0,0,1,496.5910490940496,976.9824938035412) translate(0.0049999999999954525 17.77777777777778)"
         id="use241" />
      <use
         xlink:href="#S"
         transform="matrix(1,0,0,1,496.5910490940496,976.9824938035412) translate(40.76944444444444 17.77777777777778)"
         id="use243" />
      <use
         xlink:href="#T"
         transform="matrix(1,0,0,1,496.5910490940496,976.9824938035412) translate(120.68055555555557 17.77777777777778)"
         id="use245" />
      <use
         xlink:href="#U"
         transform="matrix(1,0,0,1,496.5910490940496,976.9824938035412) translate(2.3427777777777834 40.32)"
         id="use247" />
      <use
         xlink:href="#V"
         transform="matrix(1,0,0,1,496.5910490940496,976.9824938035412) translate(23.46277777777778 40.32)"
         id="use249" />
      <use
         xlink:href="#Q"
         transform="matrix(1,0,0,1,496.5910490940496,976.9824938035412) translate(78.8938888888889 40.32)"
         id="use251" />
      <use
         xlink:href="#R"
         transform="matrix(1,0,0,1,496.5910490940496,976.9824938035412) translate(122.0938888888889 40.32)"
         id="use253" />
    </g>
    <path
       d="M402.02 561h-15.88v-2h15.88zm38.5 0h-9.68v-2h9.7z"
       stroke="#3a414a"
       stroke-width=".05"
       fill="#3a414a"
       id="path257" />
    <path
       d="M386.16 561h-1.12l.1-1-.1-1h1.12z"
       fill="#3a414a"
       id="path259" />
    <path
       d="M386.2 561.02H385l.1-1.02-.1-1.02h1.17zm-1.13-2l.1.98-.1.98h1.07V559z"
       stroke="#3a414a"
       stroke-width=".05"
       fill="#3a414a"
       id="path261" />
    <path
       d="M455.8 560l-14.27 4.64v-9.28z"
       fill="#3a414a"
       id="path263" />
    <path
       d="M459.03 560l-18.5 6v-12zm-16.5 3.26l10.03-3.26-10.03-3.26z"
       stroke="#3a414a"
       stroke-width=".05"
       fill="#3a414a"
       id="path265" />
    <g
       id="g269">
      <use
         xlink:href="#W"
         transform="matrix(1,0,0,1,402.0215546370271,548.7288888888888) translate(0.005000000000000782 17.77777777777778)"
         id="use267" />
    </g>
    <path
       d="M621.96 562.72h28.57"
       stroke="#3a414a"
       stroke-width="2"
       fill="none"
       id="path271" />
    <path
       d="M622 563.72h-1.04v-2H622z"
       stroke="#3a414a"
       stroke-width=".05"
       fill="#3a414a"
       id="path273" />
    <path
       d="M665.8 562.72l-14.27 4.64v-9.28z"
       stroke="#3a414a"
       stroke-width="2"
       fill="#3a414a"
       id="path275" />
    <path
       d="M799 1320c17.67 0 32 17.9 32 40s-14.33 40-32 40h-96c-17.68 0-32-17.9-32-40s14.32-40 32-40z"
       stroke="#3a414a"
       stroke-width="2"
       fill="#dfe3e8"
       id="path277" />
    <g
       id="g283">
      <use
         xlink:href="#X"
         transform="matrix(1,0,0,1,675.9945132739435,1325) translate(7.666666666666686 44.097222222222214)"
         id="use279" />
      <use
         xlink:href="#Y"
         transform="matrix(1,0,0,1,675.9945132739435,1325) translate(96.73333333333333 44.097222222222214)"
         id="use281" />
    </g>
    <path
       d="M580.64 1181.96v51.1a6 6 0 0 0 6 6H745a6 6 0 0 1 6 6v55.44"
       stroke="#3a414a"
       stroke-width="2"
       fill="none"
       id="path285" />
    <path
       d="M581.64 1182h-2v-1.04h2z"
       stroke="#3a414a"
       stroke-width=".05"
       fill="#3a414a"
       id="path287" />
    <path
       d="M751 1315.76l-4.64-14.26h9.27z"
       stroke="#3a414a"
       stroke-width="2"
       fill="#3a414a"
       id="path289" />
    <path
       d="M749.5 807.4v40.52"
       stroke="#3a414a"
       stroke-width="2"
       fill="none"
       id="path291" />
    <path
       d="M750.5 807.43h-2v-1.03h2z"
       stroke="#3a414a"
       stroke-width=".05"
       fill="#3a414a"
       id="path293" />
    <path
       d="M749.5 863.18l-4.63-14.26h9.27z"
       stroke="#3a414a"
       stroke-width="2"
       fill="#3a414a"
       id="path295" />
    <path
       d="M751 202v60.48"
       stroke="#3a414a"
       stroke-width="2"
       fill="none"
       id="path297" />
    <path
       d="M752 202.03h-2V201h2z"
       stroke="#3a414a"
       stroke-width=".05"
       fill="#3a414a"
       id="path299" />
    <path
       d="M751 277.75l-4.64-14.27h9.27z"
       stroke="#3a414a"
       stroke-width="2"
       fill="#3a414a"
       id="path301" />
    <path
       d="M1192.78 1232.6l-.08 1.06-.26 1.07-.42 1-.58.95-.7.84-.85.7-.94.58-1.02.42-1.1.27-429.8.06-.83.07-.75.18-.72.3-.67.42-.6.5-.5.6-.42.68-.3.72-.17.72-.08 56.76h-2l.07-57 .26-1.1.42-1.02.58-.93.7-.84.85-.7.94-.58 1-.42 1.08-.25 1.06-.1 429.64-.06.72-.18.73-.3.67-.4.6-.52.5-.6.4-.67.3-.72.2-.75.06-.83V987.4h2z"
       stroke="#3a414a"
       stroke-width=".05"
       fill="#3a414a"
       id="path303" />
    <path
       d="M1192.78 987.43h-2v-1.03h2z"
       fill="#3a414a"
       id="path305" />
    <path
       d="M1192.8 987.45h-2.05v-1.07h2.05zm-2-1.02v.97h1.95v-.97z"
       stroke="#3a414a"
       stroke-width=".05"
       fill="#3a414a"
       id="path307" />
    <path
       d="M751 1315.76l-4.64-14.26h9.27z"
       fill="#3a414a"
       id="path309" />
    <path
       d="M751 1319l-6.02-18.5H757zm-3.26-16.5l3.25 10.03 3.25-10.03z"
       stroke="#3a414a"
       stroke-width=".05"
       fill="#3a414a"
       id="path311" />
    <path
       d="M920.36 1181.96v50.6a6 6 0 0 1-6 6H757a6 6 0 0 0-6 6v55.94"
       stroke="#3a414a"
       stroke-width="2"
       fill="none"
       id="path313" />
    <path
       d="M921.36 1182h-2v-1.04h2z"
       stroke="#3a414a"
       stroke-width=".05"
       fill="#3a414a"
       id="path315" />
    <path
       d="M751 1315.76l-4.64-14.26h9.27z"
       stroke="#3a414a"
       stroke-width="2"
       fill="#3a414a"
       id="path317" />
    <defs
       id="defs1037">
      <path
         fill="#3a414a"
         d="M402 12C199 12 35-153 35-355s164-367 367-367c202 0 367 165 367 367 0 69-19 133-52 188L922 0H697l-75-61c-62 46-138 73-220 73zM195-355c-4 147 156 264 299 190l-101-82 90-110 107 87c62-143-45-300-188-298-116 0-207 98-207 213"
         id="Z" />
      <path
         fill="#3a414a"
         d="M245 11C121 11 56-79 56-215v-285h151v259c0 73 21 115 77 115 57 0 94-39 94-131v-243h151V0H378v-51c-24 35-68 62-133 62"
         id="aa" />
      <path
         fill="#3a414a"
         d="M297 11C142 11 32-99 32-251c0-150 114-260 265-260 144 0 273 98 267 296H179c7 51 45 96 126 96 44 0 84-20 96-47h158C527-62 423 11 297 11zm100-322c-30-118-194-95-214 0h214"
         id="ab" />
      <path
         fill="#3a414a"
         d="M62 0v-500h151v75c22-57 90-98 168-75v153c-89-36-168 9-168 110V0H62"
         id="ac" />
      <path
         fill="#3a414a"
         d="M267 209H104L208-29 0-500h165l124 309 123-309h166"
         id="ad" />
      <g
         id="a">
        <use
           transform="matrix(0.024444444444444442,0,0,0.024444444444444442,0,0)"
           xlink:href="#Z"
           id="use324" />
        <use
           transform="matrix(0.024444444444444442,0,0,0.024444444444444442,20.411111111111108,0)"
           xlink:href="#aa"
           id="use326" />
        <use
           transform="matrix(0.024444444444444442,0,0,0.024444444444444442,34.85777777777777,0)"
           xlink:href="#ab"
           id="use328" />
        <use
           transform="matrix(0.024444444444444442,0,0,0.024444444444444442,49.426666666666655,0)"
           xlink:href="#ac"
           id="use330" />
        <use
           transform="matrix(0.024444444444444442,0,0,0.024444444444444442,59.277777777777764,0)"
           xlink:href="#ad"
           id="use332" />
      </g>
      <path
         fill="#3a414a"
         d="M566-467c0 137-107 242-250 242h-82V0H75v-710h241c143 0 250 106 250 243zm-154 0c0-53-41-93-98-93h-80v186h80c57 0 98-41 98-93"
         id="ae" />
      <path
         fill="#3a414a"
         d="M62 0v-750h151V0H62"
         id="af" />
      <path
         fill="#3a414a"
         d="M264 11C133 11 32-108 32-250s101-261 232-261c67 0 116 34 136 61v-50h151V0H400v-50c-20 27-69 61-136 61zm34-137c68 0 114-52 114-124s-46-124-114-124-114 52-114 124 46 124 114 124"
         id="ag" />
      <path
         fill="#3a414a"
         d="M62 0v-500h151v51c24-34 74-62 139-62 123 0 194 91 194 222V0H395v-263c0-69-27-111-81-111-57 0-101 41-101 131V0H62"
         id="ah" />
      <g
         id="b">
        <use
           transform="matrix(0.024444444444444442,0,0,0.024444444444444442,0,0)"
           xlink:href="#ae"
           id="use339" />
        <use
           transform="matrix(0.024444444444444442,0,0,0.024444444444444442,14.299999999999999,0)"
           xlink:href="#af"
           id="use341" />
        <use
           transform="matrix(0.024444444444444442,0,0,0.024444444444444442,21.02222222222222,0)"
           xlink:href="#ag"
           id="use343" />
        <use
           transform="matrix(0.024444444444444442,0,0,0.024444444444444442,36.00666666666666,0)"
           xlink:href="#ah"
           id="use345" />
        <use
           transform="matrix(0.024444444444444442,0,0,0.024444444444444442,50.722222222222214,0)"
           xlink:href="#ah"
           id="use347" />
        <use
           transform="matrix(0.024444444444444442,0,0,0.024444444444444442,65.43777777777777,0)"
           xlink:href="#ab"
           id="use349" />
        <use
           transform="matrix(0.024444444444444442,0,0,0.024444444444444442,80.00666666666666,0)"
           xlink:href="#ac"
           id="use351" />
      </g>
      <path
         fill="#3a414a"
         d="M94 0v-710h413v88H187v215h253v88H187V0H94"
         id="ai" />
      <path
         fill="#3a414a"
         d="M185-695c0 34-26 61-60 61s-62-27-62-61c0-33 28-61 62-61s60 28 60 61zM81 0v-500h86V0H81"
         id="aj" />
      <path
         fill="#3a414a"
         d="M81 0v-500h86v77c34-59 94-87 159-87 112 0 189 78 189 202V0h-85v-295c0-84-48-136-118-136-81 0-145 66-145 183V0H81"
         id="ak" />
      <path
         fill="#3a414a"
         d="M42-250c0-143 105-260 245-260 75 0 143 39 176 87v-327h86V0h-86v-77c-33 48-101 87-176 87C147 10 42-107 42-250zm428 0c0-101-69-181-170-181s-171 80-171 181S199-69 300-69s170-80 170-181"
         id="al" />
      <g
         id="c">
        <use
           transform="matrix(0.019999999999999997,0,0,0.019999999999999997,0,0)"
           xlink:href="#ai"
           id="use358" />
        <use
           transform="matrix(0.019999999999999997,0,0,0.019999999999999997,10.600000000000001,0)"
           xlink:href="#aj"
           id="use360" />
        <use
           transform="matrix(0.019999999999999997,0,0,0.019999999999999997,15.579999999999998,0)"
           xlink:href="#ak"
           id="use362" />
        <use
           transform="matrix(0.019999999999999997,0,0,0.019999999999999997,27.359999999999996,0)"
           xlink:href="#al"
           id="use364" />
      </g>
      <path
         fill="#3a414a"
         d="M46-355c0-207 160-367 368-367 179 0 309 117 340 246h-98c-31-89-124-158-242-158-158 0-275 122-275 279S256-76 414-76c118 0 211-69 242-158h98C723-105 593 12 414 12 206 12 46-148 46-355"
         id="am" />
      <path
         fill="#3a414a"
         d="M42-250c0-143 105-260 245-260 75 0 143 39 176 87v-77h86V0h-86v-77c-33 48-101 87-176 87C147 10 42-107 42-250zm428 0c0-101-69-181-170-181s-171 80-171 181S199-69 300-69s170-80 170-181"
         id="an" />
      <path
         fill="#3a414a"
         d="M555-176C527-68 429 10 303 10 151 10 42-107 42-250s109-260 261-260c126 0 224 78 252 186h-92c-22-63-82-107-160-107-104 0-174 80-174 181S199-69 303-69c78 0 138-44 160-107h92"
         id="ao" />
      <path
         fill="#3a414a"
         d="M81 0v-750h86v327c34-59 94-87 159-87 112 0 189 78 189 202V0h-85v-295c0-84-48-136-118-136-81 0-145 66-145 183V0H81"
         id="ap" />
      <path
         fill="#3a414a"
         d="M528-152C503-64 421 10 294 10 148 10 42-101 42-250c0-146 98-260 254-260 157 0 252 128 240 283H129c3 91 76 159 166 159 62 0 115-24 145-84h88zm-83-143c-27-186-281-187-312 0h312"
         id="aq" />
      <g
         id="d">
        <use
           transform="matrix(0.019999999999999997,0,0,0.019999999999999997,0,0)"
           xlink:href="#am"
           id="use372" />
        <use
           transform="matrix(0.019999999999999997,0,0,0.019999999999999997,15.759999999999998,0)"
           xlink:href="#an"
           id="use374" />
        <use
           transform="matrix(0.019999999999999997,0,0,0.019999999999999997,28.359999999999996,0)"
           xlink:href="#ao"
           id="use376" />
        <use
           transform="matrix(0.019999999999999997,0,0,0.019999999999999997,40.11999999999999,0)"
           xlink:href="#ap"
           id="use378" />
        <use
           transform="matrix(0.019999999999999997,0,0,0.019999999999999997,51.89999999999999,0)"
           xlink:href="#aq"
           id="use380" />
      </g>
      <path
         fill="#3a414a"
         d="M94 0v-710h414v88H187v215h261v88H187v231h321V0H94"
         id="ar" />
      <path
         fill="#3a414a"
         d="M352-7c-113 35-230-6-230-141v-273H16v-79h106v-139h86v139h144v79H208v262c-8 91 77 95 144 75v77"
         id="as" />
      <path
         fill="#3a414a"
         d="M81 0v-500h86v97c28-75 96-115 179-98v89c-98-29-179 27-179 164V0H81"
         id="at" />
      <path
         fill="#3a414a"
         d="M214 209h-96L227-26 8-500h95l172 379 171-379h96"
         id="au" />
      <g
         id="e">
        <use
           transform="matrix(0.019999999999999997,0,0,0.019999999999999997,0,0)"
           xlink:href="#ar"
           id="use387" />
        <use
           transform="matrix(0.019999999999999997,0,0,0.019999999999999997,10.919999999999998,0)"
           xlink:href="#ak"
           id="use389" />
        <use
           transform="matrix(0.019999999999999997,0,0,0.019999999999999997,22.58,0)"
           xlink:href="#as"
           id="use391" />
        <use
           transform="matrix(0.019999999999999997,0,0,0.019999999999999997,30.199999999999996,0)"
           xlink:href="#at"
           id="use393" />
        <use
           transform="matrix(0.019999999999999997,0,0,0.019999999999999997,37.519999999999996,0)"
           xlink:href="#au"
           id="use395" />
      </g>
      <path
         fill="#3a414a"
         d="M46-355c0-207 160-367 368-367 168 0 296 104 336 222H647c-38-77-126-134-233-134-158 0-275 122-275 279S256-76 414-76c146 0 248-103 261-243H410v-87h360C790-147 621 12 414 12 206 12 46-148 46-355"
         id="av" />
      <g
         id="f">
        <use
           transform="matrix(0.019999999999999997,0,0,0.019999999999999997,0,0)"
           xlink:href="#av"
           id="use399" />
        <use
           transform="matrix(0.019999999999999997,0,0,0.019999999999999997,16.319999999999997,0)"
           xlink:href="#aq"
           id="use401" />
        <use
           transform="matrix(0.019999999999999997,0,0,0.019999999999999997,27.899999999999995,0)"
           xlink:href="#ak"
           id="use403" />
        <use
           transform="matrix(0.019999999999999997,0,0,0.019999999999999997,39.67999999999999,0)"
           xlink:href="#aq"
           id="use405" />
        <use
           transform="matrix(0.019999999999999997,0,0,0.019999999999999997,51.25999999999999,0)"
           xlink:href="#at"
           id="use407" />
        <use
           transform="matrix(0.019999999999999997,0,0,0.019999999999999997,58.23999999999999,0)"
           xlink:href="#an"
           id="use409" />
        <use
           transform="matrix(0.019999999999999997,0,0,0.019999999999999997,70.83999999999999,0)"
           xlink:href="#as"
           id="use411" />
        <use
           transform="matrix(0.019999999999999997,0,0,0.019999999999999997,78.32,0)"
           xlink:href="#aq"
           id="use413" />
      </g>
      <g
         id="g">
        <use
           transform="matrix(0.019999999999999997,0,0,0.019999999999999997,0,0)"
           xlink:href="#an"
           id="use416" />
        <use
           transform="matrix(0.019999999999999997,0,0,0.019999999999999997,12.599999999999998,0)"
           xlink:href="#ak"
           id="use418" />
        <use
           transform="matrix(0.019999999999999997,0,0,0.019999999999999997,24.379999999999995,0)"
           xlink:href="#al"
           id="use420" />
      </g>
      <path
         fill="#3a414a"
         d="M237 0L6-500h96l171 378 171-378h96L309 0h-72"
         id="aw" />
      <path
         fill="#3a414a"
         d="M81 0v-750h86V0H81"
         id="ax" />
      <path
         fill="#3a414a"
         d="M74-193v-307h86v294c0 84 44 137 113 137 78 0 139-68 139-183v-248h86V0h-86v-77c-33 58-91 87-154 87C148 10 74-69 74-193"
         id="ay" />
      <g
         id="h">
        <use
           transform="matrix(0.019999999999999997,0,0,0.019999999999999997,0,0)"
           xlink:href="#ar"
           id="use426" />
        <use
           transform="matrix(0.019999999999999997,0,0,0.019999999999999997,10.680000000000001,0)"
           xlink:href="#aw"
           id="use428" />
        <use
           transform="matrix(0.019999999999999997,0,0,0.019999999999999997,21.399999999999995,0)"
           xlink:href="#an"
           id="use430" />
        <use
           transform="matrix(0.019999999999999997,0,0,0.019999999999999997,34,0)"
           xlink:href="#ax"
           id="use432" />
        <use
           transform="matrix(0.019999999999999997,0,0,0.019999999999999997,38.98,0)"
           xlink:href="#ay"
           id="use434" />
        <use
           transform="matrix(0.019999999999999997,0,0,0.019999999999999997,50.559999999999995,0)"
           xlink:href="#an"
           id="use436" />
        <use
           transform="matrix(0.019999999999999997,0,0,0.019999999999999997,63.16,0)"
           xlink:href="#as"
           id="use438" />
        <use
           transform="matrix(0.019999999999999997,0,0,0.019999999999999997,70.64,0)"
           xlink:href="#aq"
           id="use440" />
      </g>
      <g
         id="i">
        <use
           transform="matrix(0.019999999999999997,0,0,0.019999999999999997,0,0)"
           xlink:href="#am"
           id="use443" />
        <use
           transform="matrix(0.019999999999999997,0,0,0.019999999999999997,15.759999999999998,0)"
           xlink:href="#an"
           id="use445" />
        <use
           transform="matrix(0.019999999999999997,0,0,0.019999999999999997,28.359999999999996,0)"
           xlink:href="#ak"
           id="use447" />
        <use
           transform="matrix(0.019999999999999997,0,0,0.019999999999999997,40.13999999999999,0)"
           xlink:href="#al"
           id="use449" />
        <use
           transform="matrix(0.019999999999999997,0,0,0.019999999999999997,52.739999999999995,0)"
           xlink:href="#aj"
           id="use451" />
        <use
           transform="matrix(0.019999999999999997,0,0,0.019999999999999997,57.71999999999999,0)"
           xlink:href="#al"
           id="use453" />
        <use
           transform="matrix(0.019999999999999997,0,0,0.019999999999999997,70.32,0)"
           xlink:href="#an"
           id="use455" />
        <use
           transform="matrix(0.019999999999999997,0,0,0.019999999999999997,82.91999999999999,0)"
           xlink:href="#as"
           id="use457" />
        <use
           transform="matrix(0.019999999999999997,0,0,0.019999999999999997,90.39999999999999,0)"
           xlink:href="#aq"
           id="use459" />
      </g>
      <path
         fill="#3a414a"
         d="M311-710c148 0 244 98 244 226s-96 225-244 225H187V0H94v-710h217zm0 365c98 0 152-60 152-139s-54-139-152-139H187v278h124"
         id="az" />
      <path
         fill="#3a414a"
         d="M426-135c0 99-80 145-184 145C135 10 46-44 39-145h88c12 61 64 82 116 82 54 0 96-22 96-66 0-65-95-84-155-99-86-22-129-76-129-147 0-83 72-135 173-135 107 0 173 63 182 143h-86c-13-44-49-71-96-71-48 0-86 24-86 62 0 64 100 78 156 93 83 22 128 73 128 148"
         id="aA" />
      <g
         id="j">
        <use
           transform="matrix(0.019999999999999997,0,0,0.019999999999999997,0,0)"
           xlink:href="#az"
           id="use464" />
        <use
           transform="matrix(0.019999999999999997,0,0,0.019999999999999997,11.68,0)"
           xlink:href="#ax"
           id="use466" />
        <use
           transform="matrix(0.019999999999999997,0,0,0.019999999999999997,16.66,0)"
           xlink:href="#an"
           id="use468" />
        <use
           transform="matrix(0.019999999999999997,0,0,0.019999999999999997,29.26,0)"
           xlink:href="#ak"
           id="use470" />
        <use
           transform="matrix(0.019999999999999997,0,0,0.019999999999999997,41.03999999999999,0)"
           xlink:href="#aA"
           id="use472" />
      </g>
      <g
         id="k">
        <use
           transform="matrix(0.01999999999999999,0,0,0.01999999999999999,0,0)"
           xlink:href="#ar"
           id="use475" />
        <use
           transform="matrix(0.01999999999999999,0,0,0.01999999999999999,10.679999999999996,0)"
           xlink:href="#aw"
           id="use477" />
        <use
           transform="matrix(0.01999999999999999,0,0,0.01999999999999999,21.399999999999988,0)"
           xlink:href="#an"
           id="use479" />
        <use
           transform="matrix(0.01999999999999999,0,0,0.01999999999999999,33.999999999999986,0)"
           xlink:href="#ax"
           id="use481" />
        <use
           transform="matrix(0.01999999999999999,0,0,0.01999999999999999,38.97999999999998,0)"
           xlink:href="#ay"
           id="use483" />
        <use
           transform="matrix(0.01999999999999999,0,0,0.01999999999999999,50.559999999999974,0)"
           xlink:href="#an"
           id="use485" />
        <use
           transform="matrix(0.01999999999999999,0,0,0.01999999999999999,63.15999999999997,0)"
           xlink:href="#as"
           id="use487" />
        <use
           transform="matrix(0.01999999999999999,0,0,0.01999999999999999,70.63999999999996,0)"
           xlink:href="#aq"
           id="use489" />
      </g>
      <path
         fill="#3a414a"
         d="M123 0v-421H17v-79h106v-101c-3-134 117-180 231-142v76c-67-21-145-16-145 75v92h145v79H209V0h-86"
         id="aB" />
      <path
         fill="#3a414a"
         d="M564-250c0 144-111 260-261 260C152 10 41-106 41-250s111-260 262-260c150 0 261 116 261 260zm-435 0c0 100 70 180 174 180s173-80 173-180-69-180-173-180-174 80-174 180"
         id="aC" />
      <path
         fill="#3a414a"
         d="M81 0v-500h86v77c29-53 84-87 151-87 75 0 129 41 154 107 27-66 90-107 164-107 109 0 175 81 175 203V0h-86v-294c0-81-34-137-99-137-81 0-137 70-137 183V0h-86v-294c0-81-33-137-98-137-81 0-138 70-138 183V0H81"
         id="aD" />
      <g
         id="l">
        <use
           transform="matrix(0.01999999999999999,0,0,0.01999999999999999,0,0)"
           xlink:href="#az"
           id="use495" />
        <use
           transform="matrix(0.01999999999999999,0,0,0.01999999999999999,11.399999999999995,0)"
           xlink:href="#aq"
           id="use497" />
        <use
           transform="matrix(0.01999999999999999,0,0,0.01999999999999999,22.97999999999999,0)"
           xlink:href="#at"
           id="use499" />
        <use
           transform="matrix(0.01999999999999999,0,0,0.01999999999999999,30.299999999999986,0)"
           xlink:href="#aB"
           id="use501" />
        <use
           transform="matrix(0.01999999999999999,0,0,0.01999999999999999,37.37999999999998,0)"
           xlink:href="#aC"
           id="use503" />
        <use
           transform="matrix(0.01999999999999999,0,0,0.01999999999999999,49.49999999999998,0)"
           xlink:href="#at"
           id="use505" />
        <use
           transform="matrix(0.01999999999999999,0,0,0.01999999999999999,56.819999999999965,0)"
           xlink:href="#aD"
           id="use507" />
        <use
           transform="matrix(0.01999999999999999,0,0,0.01999999999999999,74.51999999999995,0)"
           xlink:href="#an"
           id="use509" />
        <use
           transform="matrix(0.01999999999999999,0,0,0.01999999999999999,87.11999999999996,0)"
           xlink:href="#ak"
           id="use511" />
        <use
           transform="matrix(0.01999999999999999,0,0,0.01999999999999999,98.89999999999995,0)"
           xlink:href="#ao"
           id="use513" />
        <use
           transform="matrix(0.01999999999999999,0,0,0.01999999999999999,110.65999999999994,0)"
           xlink:href="#aq"
           id="use515" />
      </g>
      <g
         id="m">
        <use
           transform="matrix(0.019999999999999997,0,0,0.019999999999999997,0,0)"
           xlink:href="#am"
           id="use518" />
        <use
           transform="matrix(0.019999999999999997,0,0,0.019999999999999997,15.759999999999998,0)"
           xlink:href="#ap"
           id="use520" />
        <use
           transform="matrix(0.019999999999999997,0,0,0.019999999999999997,27.539999999999996,0)"
           xlink:href="#aC"
           id="use522" />
        <use
           transform="matrix(0.019999999999999997,0,0,0.019999999999999997,39.66,0)"
           xlink:href="#aC"
           id="use524" />
        <use
           transform="matrix(0.019999999999999997,0,0,0.019999999999999997,51.779999999999994,0)"
           xlink:href="#aA"
           id="use526" />
        <use
           transform="matrix(0.019999999999999997,0,0,0.019999999999999997,61.11999999999999,0)"
           xlink:href="#aq"
           id="use528" />
      </g>
      <path
         fill="#3a414a"
         d="M647 0L474-482 300 0h-83L23-710h97l149 554 204-566 205 566 149-554h97L730 0h-83"
         id="aE" />
      <path
         fill="#3a414a"
         d="M59 46h84c23 66 79 97 160 97 90 0 158-60 158-173v-59C427-39 361-1 287-1 148-1 42-113 42-256c0-142 106-254 245-254 74 0 140 37 174 87v-77h86v469c0 167-110 250-246 250-134 0-227-72-242-173zm409-302c0-100-69-175-169-175s-169 75-169 175c0 101 69 175 169 175s169-74 169-175"
         id="aF" />
      <g
         id="n">
        <use
           transform="matrix(0.019999999999999997,0,0,0.019999999999999997,0,0)"
           xlink:href="#aE"
           id="use533" />
        <use
           transform="matrix(0.019999999999999997,0,0,0.019999999999999997,18.939999999999998,0)"
           xlink:href="#aj"
           id="use535" />
        <use
           transform="matrix(0.019999999999999997,0,0,0.019999999999999997,23.919999999999995,0)"
           xlink:href="#ak"
           id="use537" />
        <use
           transform="matrix(0.019999999999999997,0,0,0.019999999999999997,35.699999999999996,0)"
           xlink:href="#ak"
           id="use539" />
        <use
           transform="matrix(0.019999999999999997,0,0,0.019999999999999997,47.47999999999999,0)"
           xlink:href="#aj"
           id="use541" />
        <use
           transform="matrix(0.019999999999999997,0,0,0.019999999999999997,52.45999999999998,0)"
           xlink:href="#ak"
           id="use543" />
        <use
           transform="matrix(0.019999999999999997,0,0,0.019999999999999997,64.23999999999998,0)"
           xlink:href="#aF"
           id="use545" />
      </g>
      <g
         id="o">
        <use
           transform="matrix(0.019999999999999997,0,0,0.019999999999999997,0,0)"
           xlink:href="#az"
           id="use548" />
        <use
           transform="matrix(0.019999999999999997,0,0,0.019999999999999997,11.68,0)"
           xlink:href="#ax"
           id="use550" />
        <use
           transform="matrix(0.019999999999999997,0,0,0.019999999999999997,16.66,0)"
           xlink:href="#an"
           id="use552" />
        <use
           transform="matrix(0.019999999999999997,0,0,0.019999999999999997,29.26,0)"
           xlink:href="#ak"
           id="use554" />
      </g>
      <path
         fill="#24292f"
         d="M46-355c0-207 160-367 368-367 179 0 309 117 340 246h-98c-31-89-124-158-242-158-158 0-275 122-275 279S256-76 414-76c118 0 211-69 242-158h98C723-105 593 12 414 12 206 12 46-148 46-355"
         id="aG" />
      <path
         fill="#24292f"
         d="M564-250c0 144-111 260-261 260C152 10 41-106 41-250s111-260 262-260c150 0 261 116 261 260zm-435 0c0 100 70 180 174 180s173-80 173-180-69-180-173-180-174 80-174 180"
         id="aH" />
      <path
         fill="#24292f"
         d="M81 0v-500h86v77c29-53 84-87 151-87 75 0 129 41 154 107 27-66 90-107 164-107 109 0 175 81 175 203V0h-86v-294c0-81-34-137-99-137-81 0-137 70-137 183V0h-86v-294c0-81-33-137-98-137-81 0-138 70-138 183V0H81"
         id="aI" />
      <path
         fill="#24292f"
         d="M81 209v-709h86v77c33-48 101-87 176-87 139 0 245 117 245 260S482 10 343 10c-75 0-143-39-176-87v286H81zm419-459c0-101-69-181-170-181s-170 80-170 181S229-69 330-69s170-80 170-181"
         id="aJ" />
      <path
         fill="#24292f"
         d="M42-250c0-143 105-260 245-260 75 0 143 39 176 87v-77h86V0h-86v-77c-33 48-101 87-176 87C147 10 42-107 42-250zm428 0c0-101-69-181-170-181s-171 80-171 181S199-69 300-69s170-80 170-181"
         id="aK" />
      <path
         fill="#24292f"
         d="M81 0v-500h86v97c28-75 96-115 179-98v89c-98-29-179 27-179 164V0H81"
         id="aL" />
      <path
         fill="#24292f"
         d="M528-152C503-64 421 10 294 10 148 10 42-101 42-250c0-146 98-260 254-260 157 0 252 128 240 283H129c3 91 76 159 166 159 62 0 115-24 145-84h88zm-83-143c-27-186-281-187-312 0h312"
         id="aM" />
      <g
         id="p">
        <use
           transform="matrix(0.02,0,0,0.02,0,0)"
           xlink:href="#aG"
           id="use564" />
        <use
           transform="matrix(0.02,0,0,0.02,15.76,0)"
           xlink:href="#aH"
           id="use566" />
        <use
           transform="matrix(0.02,0,0,0.02,27.88,0)"
           xlink:href="#aI"
           id="use568" />
        <use
           transform="matrix(0.02,0,0,0.02,45.58,0)"
           xlink:href="#aJ"
           id="use570" />
        <use
           transform="matrix(0.02,0,0,0.02,58.2,0)"
           xlink:href="#aK"
           id="use572" />
        <use
           transform="matrix(0.02,0,0,0.02,70.8,0)"
           xlink:href="#aL"
           id="use574" />
        <use
           transform="matrix(0.02,0,0,0.02,77.75999999999999,0)"
           xlink:href="#aM"
           id="use576" />
      </g>
      <path
         fill="#24292f"
         d="M114 0L8-486h82c27 138 60 271 80 416h4c24-134 59-257 88-386h82c28 129 61 255 88 386h4c20-144 53-278 80-416h76L488 0H382c-29-133-62-225-80-376h-4c-18 151-50 242-78 376H114"
         id="aN" />
      <path
         fill="#24292f"
         d="M540-242c0 155-89 254-240 254S60-87 60-242c0-156 88-256 240-256s240 100 240 256zm-395 0c0 109 50 186 155 186s155-78 155-186c0-109-49-188-155-188s-155 79-155 188"
         id="aO" />
      <path
         fill="#24292f"
         d="M428-424c-102 7-152 58-200 139V0h-82v-486h68l7 115h3c50-91 183-163 313-107l-19 71c-35-11-46-17-90-17"
         id="aP" />
      <path
         fill="#24292f"
         d="M106 0v-712h82v482h4l262-256h94L354-295 574 0h-92L303-245 188-132V0h-82"
         id="aQ" />
      <path
         fill="#24292f"
         d="M518-183C574-2 335 47 177-10c-41-15-76-33-106-54l38-54c56 38 117 66 211 66 76 2 138-32 118-102-28-41-84-49-147-64-63-13-111-32-143-54s-47-51-47-88c4-177 298-159 398-76l-40 53c-42-28-96-51-163-51-67-1-106 19-112 70 0 21 11 37 33 48 86 42 272 40 301 133"
         id="aR" />
      <g
         id="q">
        <use
           transform="matrix(0.02,0,0,0.02,0,0)"
           xlink:href="#aN"
           id="use584" />
        <use
           transform="matrix(0.02,0,0,0.02,12,0)"
           xlink:href="#aO"
           id="use586" />
        <use
           transform="matrix(0.02,0,0,0.02,24,0)"
           xlink:href="#aP"
           id="use588" />
        <use
           transform="matrix(0.02,0,0,0.02,36,0)"
           xlink:href="#aQ"
           id="use590" />
        <use
           transform="matrix(0.02,0,0,0.02,48,0)"
           xlink:href="#aR"
           id="use592" />
      </g>
      <path
         fill="#24292f"
         d="M311 0L8-710h103l240 564 239-564h101L389 0h-78"
         id="aS" />
      <path
         fill="#24292f"
         d="M81 0v-750h86V0H81"
         id="aT" />
      <path
         fill="#24292f"
         d="M74-193v-307h86v294c0 84 44 137 113 137 78 0 139-68 139-183v-248h86V0h-86v-77c-33 58-91 87-154 87C148 10 74-69 74-193"
         id="aU" />
      <path
         fill="#24292f"
         d="M426-135c0 99-80 145-184 145C135 10 46-44 39-145h88c12 61 64 82 116 82 54 0 96-22 96-66 0-65-95-84-155-99-86-22-129-76-129-147 0-83 72-135 173-135 107 0 173 63 182 143h-86c-13-44-49-71-96-71-48 0-86 24-86 62 0 64 100 78 156 93 83 22 128 73 128 148"
         id="aV" />
      <g
         id="r">
        <use
           transform="matrix(0.02,0,0,0.02,0,0)"
           xlink:href="#aS"
           id="use599" />
        <use
           transform="matrix(0.02,0,0,0.02,12.82,0)"
           xlink:href="#aK"
           id="use601" />
        <use
           transform="matrix(0.02,0,0,0.02,25.42,0)"
           xlink:href="#aT"
           id="use603" />
        <use
           transform="matrix(0.02,0,0,0.02,30.400000000000002,0)"
           xlink:href="#aU"
           id="use605" />
        <use
           transform="matrix(0.02,0,0,0.02,41.980000000000004,0)"
           xlink:href="#aM"
           id="use607" />
        <use
           transform="matrix(0.02,0,0,0.02,53.56,0)"
           xlink:href="#aV"
           id="use609" />
      </g>
      <path
         fill="#333"
         d="M699 0h-80L187-553V0H94v-710h81l432 553v-553h92V0"
         id="aW" />
      <path
         fill="#333"
         d="M564-250c0 144-111 260-261 260C152 10 41-106 41-250s111-260 262-260c150 0 261 116 261 260zm-435 0c0 100 70 180 174 180s173-80 173-180-69-180-173-180-174 80-174 180"
         id="aX" />
      <g
         id="s">
        <use
           transform="matrix(0.017777777777777767,0,0,0.017777777777777767,0,0)"
           xlink:href="#aW"
           id="use614" />
        <use
           transform="matrix(0.017777777777777767,0,0,0.017777777777777767,13.955555555555547,0)"
           xlink:href="#aX"
           id="use616" />
      </g>
      <path
         fill="#333"
         d="M94 0v-710h414v88H187v215h261v88H187v231h321V0H94"
         id="aY" />
      <path
         fill="#333"
         d="M81 0v-500h86v77c34-59 94-87 159-87 112 0 189 78 189 202V0h-85v-295c0-84-48-136-118-136-81 0-145 66-145 183V0H81"
         id="aZ" />
      <path
         fill="#333"
         d="M352-7c-113 35-230-6-230-141v-273H16v-79h106v-139h86v139h144v79H208v262c-8 91 77 95 144 75v77"
         id="ba" />
      <path
         fill="#333"
         d="M81 0v-500h86v97c28-75 96-115 179-98v89c-98-29-179 27-179 164V0H81"
         id="bb" />
      <path
         fill="#333"
         d="M214 209h-96L227-26 8-500h95l172 379 171-379h96"
         id="bc" />
      <g
         id="t">
        <use
           transform="matrix(0.017777777777777767,0,0,0.017777777777777767,0,0)"
           xlink:href="#aY"
           id="use624" />
        <use
           transform="matrix(0.017777777777777767,0,0,0.017777777777777767,9.706666666666658,0)"
           xlink:href="#aZ"
           id="use626" />
        <use
           transform="matrix(0.017777777777777767,0,0,0.017777777777777767,20.0711111111111,0)"
           xlink:href="#ba"
           id="use628" />
        <use
           transform="matrix(0.017777777777777767,0,0,0.017777777777777767,26.844444444444427,0)"
           xlink:href="#bb"
           id="use630" />
        <use
           transform="matrix(0.017777777777777767,0,0,0.017777777777777767,33.35111111111109,0)"
           xlink:href="#bc"
           id="use632" />
      </g>
      <path
         fill="#333"
         d="M94 0v-710h413v88H187v215h253v88H187V0H94"
         id="bd" />
      <path
         fill="#333"
         d="M74-193v-307h86v294c0 84 44 137 113 137 78 0 139-68 139-183v-248h86V0h-86v-77c-33 58-91 87-154 87C148 10 74-69 74-193"
         id="be" />
      <path
         fill="#333"
         d="M42-250c0-143 105-260 245-260 75 0 143 39 176 87v-327h86V0h-86v-77c-33 48-101 87-176 87C147 10 42-107 42-250zm428 0c0-101-69-181-170-181s-171 80-171 181S199-69 300-69s170-80 170-181"
         id="bf" />
      <g
         id="u">
        <use
           transform="matrix(0.017777777777777767,0,0,0.017777777777777767,0,0)"
           xlink:href="#bd"
           id="use638" />
        <use
           transform="matrix(0.017777777777777767,0,0,0.017777777777777767,8.76444444444444,0)"
           xlink:href="#aX"
           id="use640" />
        <use
           transform="matrix(0.017777777777777767,0,0,0.017777777777777767,19.537777777777766,0)"
           xlink:href="#be"
           id="use642" />
        <use
           transform="matrix(0.017777777777777767,0,0,0.017777777777777767,29.831111111111095,0)"
           xlink:href="#aZ"
           id="use644" />
        <use
           transform="matrix(0.017777777777777767,0,0,0.017777777777777767,40.3022222222222,0)"
           xlink:href="#bf"
           id="use646" />
      </g>
      <path
         fill="#333"
         d="M245 160h-70C4-148 4-492 175-800h70C82-478 82-162 245 160"
         id="bg" />
      <path
         fill="#333"
         d="M442-151L234-438V0H75v-710h145l222 306 222-306h145V0H649v-438"
         id="bh" />
      <path
         fill="#333"
         d="M137-568c-51 0-94-42-94-94s43-94 94-94c53 0 95 42 95 94s-42 94-95 94zM62 0v-500h151V0H62"
         id="bi" />
      <path
         fill="#333"
         d="M264 11C128 11 36-65 31-163h159c2 40 36 60 79 60 39 0 56-14 56-32 0-22-18-32-57-42l-101-26C80-225 41-286 41-360c0-87 77-151 209-151 110 0 200 56 207 162H305c-6-37-32-46-58-46-31 0-51 12-51 32 0 26 28 33 51 39l91 24c101 27 141 78 141 157 0 93-89 154-215 154"
         id="bj" />
      <path
         fill="#333"
         d="M62 0v-500h151v51c24-34 74-62 139-62 123 0 194 91 194 222V0H395v-263c0-69-27-111-81-111-57 0-101 41-101 131V0H62"
         id="bk" />
      <path
         fill="#333"
         d="M298 219C155 219 62 135 54 27h147c28 99 206 91 201-36v-59C379-34 327-7 266-7 138-7 32-119 32-259s106-252 234-252c61 0 113 27 136 61v-50h151v469c0 185-126 250-255 250zm1-363c61 0 115-45 115-115s-54-115-115-115-115 45-115 115 54 115 115 115"
         id="bl" />
      <path
         fill="#333"
         d="M29 160c163-322 163-638 0-960h70c171 308 171 652 0 960H29"
         id="bm" />
      <g
         id="v">
        <use
           transform="matrix(0.017777777777777767,0,0,0.017777777777777767,0,0)"
           xlink:href="#bg"
           id="use656" />
        <use
           transform="matrix(0.017777777777777767,0,0,0.017777777777777767,4.888888888888886,0)"
           xlink:href="#bh"
           id="use658" />
        <use
           transform="matrix(0.017777777777777767,0,0,0.017777777777777767,20.444444444444432,0)"
           xlink:href="#bi"
           id="use660" />
        <use
           transform="matrix(0.017777777777777767,0,0,0.017777777777777767,25.333333333333318,0)"
           xlink:href="#bj"
           id="use662" />
        <use
           transform="matrix(0.017777777777777767,0,0,0.017777777777777767,34.39999999999998,0)"
           xlink:href="#bj"
           id="use664" />
        <use
           transform="matrix(0.017777777777777767,0,0,0.017777777777777767,43.46666666666664,0)"
           xlink:href="#bi"
           id="use666" />
        <use
           transform="matrix(0.017777777777777767,0,0,0.017777777777777767,48.355555555555526,0)"
           xlink:href="#bk"
           id="use668" />
        <use
           transform="matrix(0.017777777777777767,0,0,0.017777777777777767,59.057777777777744,0)"
           xlink:href="#bl"
           id="use670" />
        <use
           transform="matrix(0.017777777777777767,0,0,0.017777777777777767,69.99111111111107,0)"
           xlink:href="#bm"
           id="use672" />
      </g>
      <path
         fill="#333"
         d="M-1 0l304-710h144L751 0H585l-63-150H228L165 0H-1zm287-288h178l-89-214"
         id="bn" />
      <path
         fill="#333"
         d="M295 11C143 11 32-105 32-250s111-261 263-261c142 0 231 89 258 206H397c-18-40-49-70-102-70-63 0-111 47-111 125s48 125 111 125c53 0 84-30 102-70h156C526-78 437 11 295 11"
         id="bo" />
      <path
         fill="#333"
         d="M407-4C262 31 116-22 116-183v-186H16v-131h100v-139h151v139h140v131H267v155c0 60 25 85 85 85 23 0 39-3 55-9V-4"
         id="bp" />
      <path
         fill="#333"
         d="M218 0L-1-500h167l122 303 121-303h168L358 0H218"
         id="bq" />
      <path
         fill="#333"
         d="M297 11C142 11 32-99 32-251c0-150 114-260 265-260 144 0 273 98 267 296H179c7 51 45 96 126 96 44 0 84-20 96-47h158C527-62 423 11 297 11zm100-322c-30-118-194-95-214 0h214"
         id="br" />
      <g
         id="w">
        <use
           transform="matrix(0.017777777777777767,0,0,0.017777777777777767,0,0)"
           xlink:href="#bn"
           id="use680" />
        <use
           transform="matrix(0.017777777777777767,0,0,0.017777777777777767,13.031111111111104,0)"
           xlink:href="#bo"
           id="use682" />
        <use
           transform="matrix(0.017777777777777767,0,0,0.017777777777777767,23.16444444444443,0)"
           xlink:href="#bp"
           id="use684" />
        <use
           transform="matrix(0.017777777777777767,0,0,0.017777777777777767,30.986666666666647,0)"
           xlink:href="#bi"
           id="use686" />
        <use
           transform="matrix(0.017777777777777767,0,0,0.017777777777777767,35.875555555555536,0)"
           xlink:href="#bq"
           id="use688" />
        <use
           transform="matrix(0.017777777777777767,0,0,0.017777777777777767,45.79555555555553,0)"
           xlink:href="#br"
           id="use690" />
      </g>
      <g
         id="x">
        <use
           transform="matrix(0.017777777777777767,0,0,0.017777777777777767,0,0)"
           xlink:href="#bd"
           id="use693" />
        <use
           transform="matrix(0.017777777777777767,0,0,0.017777777777777767,8.76444444444444,0)"
           xlink:href="#aX"
           id="use695" />
        <use
           transform="matrix(0.017777777777777767,0,0,0.017777777777777767,19.537777777777766,0)"
           xlink:href="#be"
           id="use697" />
        <use
           transform="matrix(0.017777777777777767,0,0,0.017777777777777767,29.831111111111095,0)"
           xlink:href="#aZ"
           id="use699" />
        <use
           transform="matrix(0.017777777777777767,0,0,0.017777777777777767,40.3022222222222,0)"
           xlink:href="#bf"
           id="use701" />
      </g>
      <g
         id="y">
        <use
           transform="matrix(0.019999999999999997,0,0,0.019999999999999997,0,0)"
           xlink:href="#ar"
           id="use704" />
        <use
           transform="matrix(0.019999999999999997,0,0,0.019999999999999997,10.919999999999998,0)"
           xlink:href="#ak"
           id="use706" />
        <use
           transform="matrix(0.019999999999999997,0,0,0.019999999999999997,22.58,0)"
           xlink:href="#as"
           id="use708" />
        <use
           transform="matrix(0.019999999999999997,0,0,0.019999999999999997,30.199999999999996,0)"
           xlink:href="#at"
           id="use710" />
        <use
           transform="matrix(0.019999999999999997,0,0,0.019999999999999997,37.519999999999996,0)"
           xlink:href="#au"
           id="use712" />
      </g>
      <path
         fill="#3a414a"
         d="M94 0v-710h242c131 0 212 79 212 196 0 104-66 174-175 190L646 0H529L256-323h-69V0H94zm93-406h138c81 0 130-37 130-108 0-72-49-110-130-110H187v218"
         id="bs" />
      <g
         id="z">
        <use
           transform="matrix(0.019999999999999997,0,0,0.019999999999999997,0,0)"
           xlink:href="#bs"
           id="use716" />
        <use
           transform="matrix(0.019999999999999997,0,0,0.019999999999999997,12.399999999999995,0)"
           xlink:href="#aq"
           id="use718" />
        <use
           transform="matrix(0.019999999999999997,0,0,0.019999999999999997,23.979999999999997,0)"
           xlink:href="#aD"
           id="use720" />
        <use
           transform="matrix(0.019999999999999997,0,0,0.019999999999999997,41.67999999999999,0)"
           xlink:href="#an"
           id="use722" />
        <use
           transform="matrix(0.019999999999999997,0,0,0.019999999999999997,54.27999999999998,0)"
           xlink:href="#aj"
           id="use724" />
        <use
           transform="matrix(0.019999999999999997,0,0,0.019999999999999997,59.259999999999984,0)"
           xlink:href="#ak"
           id="use726" />
        <use
           transform="matrix(0.019999999999999997,0,0,0.019999999999999997,71.03999999999998,0)"
           xlink:href="#aA"
           id="use728" />
      </g>
      <path
         fill="#3a414a"
         d="M75 0v-710h159V0H75"
         id="bt" />
      <path
         fill="#3a414a"
         d="M295 11C143 11 32-105 32-250s111-261 263-261c142 0 231 89 258 206H397c-18-40-49-70-102-70-63 0-111 47-111 125s48 125 111 125c53 0 84-30 102-70h156C526-78 437 11 295 11"
         id="bu" />
      <path
         fill="#3a414a"
         d="M407-4C262 31 116-22 116-183v-186H16v-131h100v-139h151v139h140v131H267v155c0 60 25 85 85 85 23 0 39-3 55-9V-4"
         id="bv" />
      <path
         fill="#3a414a"
         d="M137-568c-51 0-94-42-94-94s43-94 94-94c53 0 95 42 95 94s-42 94-95 94zM62 0v-500h151V0H62"
         id="bw" />
      <path
         fill="#3a414a"
         d="M218 0L-1-500h167l122 303 121-303h168L358 0H218"
         id="bx" />
      <g
         id="A">
        <use
           transform="matrix(0.019999999999999997,0,0,0.019999999999999997,0,0)"
           xlink:href="#bt"
           id="use736" />
        <use
           transform="matrix(0.019999999999999997,0,0,0.019999999999999997,5.9399999999999995,0)"
           xlink:href="#ah"
           id="use738" />
        <use
           transform="matrix(0.019999999999999997,0,0,0.019999999999999997,17.979999999999997,0)"
           xlink:href="#ag"
           id="use740" />
        <use
           transform="matrix(0.019999999999999997,0,0,0.019999999999999997,30.239999999999995,0)"
           xlink:href="#bu"
           id="use742" />
        <use
           transform="matrix(0.019999999999999997,0,0,0.019999999999999997,41.63999999999999,0)"
           xlink:href="#bv"
           id="use744" />
        <use
           transform="matrix(0.019999999999999997,0,0,0.019999999999999997,50.43999999999999,0)"
           xlink:href="#bw"
           id="use746" />
        <use
           transform="matrix(0.019999999999999997,0,0,0.019999999999999997,55.93999999999999,0)"
           xlink:href="#bx"
           id="use748" />
        <use
           transform="matrix(0.019999999999999997,0,0,0.019999999999999997,67.1,0)"
           xlink:href="#ab"
           id="use750" />
      </g>
      <g
         id="B">
        <use
           transform="matrix(0.019999999999999997,0,0,0.019999999999999997,0,0)"
           xlink:href="#az"
           id="use753" />
        <use
           transform="matrix(0.019999999999999997,0,0,0.019999999999999997,11.68,0)"
           xlink:href="#ax"
           id="use755" />
        <use
           transform="matrix(0.019999999999999997,0,0,0.019999999999999997,16.66,0)"
           xlink:href="#an"
           id="use757" />
        <use
           transform="matrix(0.019999999999999997,0,0,0.019999999999999997,29.26,0)"
           xlink:href="#ak"
           id="use759" />
      </g>
      <path
         fill="#3a414a"
         d="M94 0v-710h233c132 0 212 88 212 188 0 70-31 117-76 145 69 25 123 75 123 170C586-89 492 0 348 0H94zm93-405h140c76 0 121-47 121-110 0-60-45-111-121-111H187v221zm0 321h165c95 0 143-50 143-120 0-69-48-121-142-121H187v241"
         id="by" />
      <g
         id="C">
        <use
           transform="matrix(0.019999999999999997,0,0,0.019999999999999997,0,0)"
           xlink:href="#by"
           id="use763" />
        <use
           transform="matrix(0.019999999999999997,0,0,0.019999999999999997,12.579999999999998,0)"
           xlink:href="#aq"
           id="use765" />
        <use
           transform="matrix(0.019999999999999997,0,0,0.019999999999999997,24.159999999999997,0)"
           xlink:href="#ao"
           id="use767" />
        <use
           transform="matrix(0.019999999999999997,0,0,0.019999999999999997,35.919999999999995,0)"
           xlink:href="#aC"
           id="use769" />
        <use
           transform="matrix(0.019999999999999997,0,0,0.019999999999999997,48.03999999999999,0)"
           xlink:href="#aD"
           id="use771" />
        <use
           transform="matrix(0.019999999999999997,0,0,0.019999999999999997,65.73999999999998,0)"
           xlink:href="#aq"
           id="use773" />
        <use
           transform="matrix(0.019999999999999997,0,0,0.019999999999999997,77.31999999999998,0)"
           xlink:href="#aA"
           id="use775" />
      </g>
      <path
         fill="#3a414a"
         d="M-1 0l304-710h144L751 0H585l-63-150H228L165 0H-1zm287-288h178l-89-214"
         id="bz" />
      <g
         id="D">
        <use
           transform="matrix(0.019999999999999997,0,0,0.019999999999999997,0,0)"
           xlink:href="#bz"
           id="use779" />
        <use
           transform="matrix(0.019999999999999997,0,0,0.019999999999999997,14.659999999999998,0)"
           xlink:href="#bu"
           id="use781" />
        <use
           transform="matrix(0.019999999999999997,0,0,0.019999999999999997,26.059999999999995,0)"
           xlink:href="#bv"
           id="use783" />
        <use
           transform="matrix(0.019999999999999997,0,0,0.019999999999999997,34.85999999999999,0)"
           xlink:href="#bw"
           id="use785" />
        <use
           transform="matrix(0.019999999999999997,0,0,0.019999999999999997,40.35999999999999,0)"
           xlink:href="#bx"
           id="use787" />
        <use
           transform="matrix(0.019999999999999997,0,0,0.019999999999999997,51.51999999999999,0)"
           xlink:href="#ab"
           id="use789" />
      </g>
      <path
         fill="#3a414a"
         d="M703 0l-67-62c-62 46-139 74-224 74C208 12 45-149 45-355s163-367 367-367c205 0 367 161 367 367 0 89-30 170-81 233L830 0H703zM139-355c0 156 118 279 273 279 59 0 113-18 157-48L456-229l57-64 118 109c35-47 55-106 55-171 0-156-118-279-274-279-155 0-273 123-273 279"
         id="bA" />
      <g
         id="E">
        <use
           transform="matrix(0.02222222222222222,0,0,0.02222222222222222,0,0)"
           xlink:href="#bA"
           id="use793" />
        <use
           transform="matrix(0.02222222222222222,0,0,0.02222222222222222,18.62222222222222,0)"
           xlink:href="#ay"
           id="use795" />
        <use
           transform="matrix(0.02222222222222222,0,0,0.02222222222222222,31.488888888888884,0)"
           xlink:href="#aq"
           id="use797" />
        <use
           transform="matrix(0.02222222222222222,0,0,0.02222222222222222,44.355555555555554,0)"
           xlink:href="#at"
           id="use799" />
        <use
           transform="matrix(0.02222222222222222,0,0,0.02222222222222222,52.48888888888888,0)"
           xlink:href="#au"
           id="use801" />
      </g>
      <path
         fill="#333"
         d="M311-710c148 0 244 98 244 226s-96 225-244 225H187V0H94v-710h217zm0 365c98 0 152-60 152-139s-54-139-152-139H187v278h124"
         id="bB" />
      <path
         fill="#333"
         d="M42-250c0-143 105-260 245-260 75 0 143 39 176 87v-77h86V0h-86v-77c-33 48-101 87-176 87C147 10 42-107 42-250zm428 0c0-101-69-181-170-181s-171 80-171 181S199-69 300-69s170-80 170-181"
         id="bC" />
      <path
         fill="#333"
         d="M426-135c0 99-80 145-184 145C135 10 46-44 39-145h88c12 61 64 82 116 82 54 0 96-22 96-66 0-65-95-84-155-99-86-22-129-76-129-147 0-83 72-135 173-135 107 0 173 63 182 143h-86c-13-44-49-71-96-71-48 0-86 24-86 62 0 64 100 78 156 93 83 22 128 73 128 148"
         id="bD" />
      <g
         id="F">
        <use
           transform="matrix(0.017777777777777778,0,0,0.017777777777777778,0,0)"
           xlink:href="#bB"
           id="use807" />
        <use
           transform="matrix(0.017777777777777778,0,0,0.017777777777777778,10.15111111111111,0)"
           xlink:href="#bC"
           id="use809" />
        <use
           transform="matrix(0.017777777777777778,0,0,0.017777777777777778,21.351111111111113,0)"
           xlink:href="#bD"
           id="use811" />
        <use
           transform="matrix(0.017777777777777778,0,0,0.017777777777777778,29.65333333333333,0)"
           xlink:href="#bD"
           id="use813" />
      </g>
      <path
         fill="#333"
         d="M75 0v-710h159V0H75"
         id="bE" />
      <path
         fill="#333"
         d="M264 11C133 11 32-108 32-250s101-261 232-261c67 0 116 34 136 61v-50h151V0H400v-50c-20 27-69 61-136 61zm34-137c68 0 114-52 114-124s-46-124-114-124-114 52-114 124 46 124 114 124"
         id="bF" />
      <g
         id="G">
        <use
           transform="matrix(0.017777777777777767,0,0,0.017777777777777767,0,0)"
           xlink:href="#bE"
           id="use818" />
        <use
           transform="matrix(0.017777777777777767,0,0,0.017777777777777767,5.279999999999998,0)"
           xlink:href="#bk"
           id="use820" />
        <use
           transform="matrix(0.017777777777777767,0,0,0.017777777777777767,15.982222222222214,0)"
           xlink:href="#bF"
           id="use822" />
        <use
           transform="matrix(0.017777777777777767,0,0,0.017777777777777767,26.879999999999985,0)"
           xlink:href="#bo"
           id="use824" />
        <use
           transform="matrix(0.017777777777777767,0,0,0.017777777777777767,37.01333333333331,0)"
           xlink:href="#bp"
           id="use826" />
        <use
           transform="matrix(0.017777777777777767,0,0,0.017777777777777767,44.83555555555552,0)"
           xlink:href="#bi"
           id="use828" />
        <use
           transform="matrix(0.017777777777777767,0,0,0.017777777777777767,49.72444444444441,0)"
           xlink:href="#bq"
           id="use830" />
        <use
           transform="matrix(0.017777777777777767,0,0,0.017777777777777767,59.6444444444444,0)"
           xlink:href="#br"
           id="use832" />
      </g>
      <path
         fill="#3a414a"
         d="M6 0l314-710h77L712 0h-97l-91-207H193L102 0H6zm223-291h258L358-584"
         id="bG" />
      <g
         id="H">
        <use
           transform="matrix(0.019999999999999997,0,0,0.019999999999999997,0,0)"
           xlink:href="#bG"
           id="use836" />
        <use
           transform="matrix(0.019999999999999997,0,0,0.019999999999999997,14.179999999999998,0)"
           xlink:href="#al"
           id="use838" />
        <use
           transform="matrix(0.019999999999999997,0,0,0.019999999999999997,26.779999999999998,0)"
           xlink:href="#al"
           id="use840" />
      </g>
      <g
         id="I">
        <use
           transform="matrix(0.019999999999999997,0,0,0.019999999999999997,0,0)"
           xlink:href="#az"
           id="use843" />
        <use
           transform="matrix(0.019999999999999997,0,0,0.019999999999999997,11.68,0)"
           xlink:href="#ax"
           id="use845" />
        <use
           transform="matrix(0.019999999999999997,0,0,0.019999999999999997,16.66,0)"
           xlink:href="#an"
           id="use847" />
        <use
           transform="matrix(0.019999999999999997,0,0,0.019999999999999997,29.26,0)"
           xlink:href="#ak"
           id="use849" />
      </g>
      <g
         id="J">
        <use
           transform="matrix(0.019999999999999997,0,0,0.019999999999999997,0,0)"
           xlink:href="#as"
           id="use852" />
        <use
           transform="matrix(0.019999999999999997,0,0,0.019999999999999997,7.48,0)"
           xlink:href="#aC"
           id="use854" />
      </g>
      <g
         id="K">
        <use
           transform="matrix(0.019999999999999997,0,0,0.019999999999999997,0,0)"
           xlink:href="#am"
           id="use857" />
        <use
           transform="matrix(0.019999999999999997,0,0,0.019999999999999997,15.759999999999998,0)"
           xlink:href="#an"
           id="use859" />
        <use
           transform="matrix(0.019999999999999997,0,0,0.019999999999999997,28.359999999999996,0)"
           xlink:href="#ao"
           id="use861" />
        <use
           transform="matrix(0.019999999999999997,0,0,0.019999999999999997,40.11999999999999,0)"
           xlink:href="#ap"
           id="use863" />
        <use
           transform="matrix(0.019999999999999997,0,0,0.019999999999999997,51.89999999999999,0)"
           xlink:href="#aq"
           id="use865" />
      </g>
      <g
         id="L">
        <use
           transform="matrix(0.019999999999999997,0,0,0.019999999999999997,0,0)"
           xlink:href="#an"
           id="use868" />
        <use
           transform="matrix(0.019999999999999997,0,0,0.019999999999999997,12.599999999999998,0)"
           xlink:href="#aA"
           id="use870" />
      </g>
      <g
         id="M">
        <use
           transform="matrix(0.019999999999999997,0,0,0.019999999999999997,0,0)"
           xlink:href="#bt"
           id="use873" />
        <use
           transform="matrix(0.019999999999999997,0,0,0.019999999999999997,5.9399999999999995,0)"
           xlink:href="#ah"
           id="use875" />
        <use
           transform="matrix(0.019999999999999997,0,0,0.019999999999999997,17.979999999999997,0)"
           xlink:href="#ag"
           id="use877" />
        <use
           transform="matrix(0.019999999999999997,0,0,0.019999999999999997,30.239999999999995,0)"
           xlink:href="#bu"
           id="use879" />
        <use
           transform="matrix(0.019999999999999997,0,0,0.019999999999999997,41.63999999999999,0)"
           xlink:href="#bv"
           id="use881" />
        <use
           transform="matrix(0.019999999999999997,0,0,0.019999999999999997,50.43999999999999,0)"
           xlink:href="#bw"
           id="use883" />
        <use
           transform="matrix(0.019999999999999997,0,0,0.019999999999999997,55.93999999999999,0)"
           xlink:href="#bx"
           id="use885" />
        <use
           transform="matrix(0.019999999999999997,0,0,0.019999999999999997,67.1,0)"
           xlink:href="#ab"
           id="use887" />
      </g>
      <path
         fill="#333"
         d="M81 0v-750h86V0H81"
         id="bH" />
      <g
         id="N">
        <use
           transform="matrix(0.017777777777777778,0,0,0.017777777777777778,0,0)"
           xlink:href="#bB"
           id="use891" />
        <use
           transform="matrix(0.017777777777777778,0,0,0.017777777777777778,10.382222222222222,0)"
           xlink:href="#bH"
           id="use893" />
        <use
           transform="matrix(0.017777777777777778,0,0,0.017777777777777778,14.808888888888887,0)"
           xlink:href="#bC"
           id="use895" />
        <use
           transform="matrix(0.017777777777777778,0,0,0.017777777777777778,26.008888888888883,0)"
           xlink:href="#aZ"
           id="use897" />
      </g>
      <path
         fill="#333"
         d="M81 209v-709h86v77c33-48 101-87 176-87 139 0 245 117 245 260S482 10 343 10c-75 0-143-39-176-87v286H81zm419-459c0-101-69-181-170-181s-170 80-170 181S229-69 330-69s170-80 170-181"
         id="bI" />
      <path
         fill="#333"
         d="M528-152C503-64 421 10 294 10 148 10 42-101 42-250c0-146 98-260 254-260 157 0 252 128 240 283H129c3 91 76 159 166 159 62 0 115-24 145-84h88zm-83-143c-27-186-281-187-312 0h312"
         id="bJ" />
      <path
         fill="#333"
         d="M123 0v-421H17v-79h106v-101c-3-134 117-180 231-142v76c-67-21-145-16-145 75v92h145v79H209V0h-86"
         id="bK" />
      <path
         fill="#333"
         d="M81 0v-500h86v77c29-53 84-87 151-87 75 0 129 41 154 107 27-66 90-107 164-107 109 0 175 81 175 203V0h-86v-294c0-81-34-137-99-137-81 0-137 70-137 183V0h-86v-294c0-81-33-137-98-137-81 0-138 70-138 183V0H81"
         id="bL" />
      <g
         id="O">
        <use
           transform="matrix(0.017777777777777778,0,0,0.017777777777777778,0,0)"
           xlink:href="#bI"
           id="use904" />
        <use
           transform="matrix(0.017777777777777778,0,0,0.017777777777777778,11.217777777777778,0)"
           xlink:href="#bJ"
           id="use906" />
        <use
           transform="matrix(0.017777777777777778,0,0,0.017777777777777778,21.511111111111113,0)"
           xlink:href="#bb"
           id="use908" />
        <use
           transform="matrix(0.017777777777777778,0,0,0.017777777777777778,28.01777777777778,0)"
           xlink:href="#bK"
           id="use910" />
        <use
           transform="matrix(0.017777777777777778,0,0,0.017777777777777778,34.31111111111112,0)"
           xlink:href="#aX"
           id="use912" />
        <use
           transform="matrix(0.017777777777777778,0,0,0.017777777777777778,45.08444444444445,0)"
           xlink:href="#bb"
           id="use914" />
        <use
           transform="matrix(0.017777777777777778,0,0,0.017777777777777778,51.59111111111112,0)"
           xlink:href="#bL"
           id="use916" />
        <use
           transform="matrix(0.017777777777777778,0,0,0.017777777777777778,67.32444444444445,0)"
           xlink:href="#bD"
           id="use918" />
      </g>
      <path
         fill="#333"
         d="M505 0L382-360 258 0h-76L12-500h90l121 365 125-365h66l125 365 121-365h91L581 0h-76"
         id="bM" />
      <g
         id="P">
        <use
           transform="matrix(0.017777777777777778,0,0,0.017777777777777778,0,0)"
           xlink:href="#bM"
           id="use922" />
        <use
           transform="matrix(0.017777777777777778,0,0,0.017777777777777778,13.528888888888888,0)"
           xlink:href="#aX"
           id="use924" />
        <use
           transform="matrix(0.017777777777777778,0,0,0.017777777777777778,24.30222222222222,0)"
           xlink:href="#bb"
           id="use926" />
        <use
           transform="matrix(0.017777777777777778,0,0,0.017777777777777778,30.648888888888887,0)"
           xlink:href="#bD"
           id="use928" />
        <use
           transform="matrix(0.017777777777777778,0,0,0.017777777777777778,38.95111111111111,0)"
           xlink:href="#bJ"
           id="use930" />
      </g>
      <path
         fill="#333"
         d="M81 0v-750h86v327c34-59 94-87 159-87 112 0 189 78 189 202V0h-85v-295c0-84-48-136-118-136-81 0-145 66-145 183V0H81"
         id="bN" />
      <g
         id="Q">
        <use
           transform="matrix(0.017777777777777778,0,0,0.017777777777777778,0,0)"
           xlink:href="#ba"
           id="use934" />
        <use
           transform="matrix(0.017777777777777778,0,0,0.017777777777777778,6.773333333333333,0)"
           xlink:href="#bN"
           id="use936" />
        <use
           transform="matrix(0.017777777777777778,0,0,0.017777777777777778,17.244444444444447,0)"
           xlink:href="#bC"
           id="use938" />
        <use
           transform="matrix(0.017777777777777778,0,0,0.017777777777777778,28.444444444444443,0)"
           xlink:href="#aZ"
           id="use940" />
      </g>
      <g
         id="R">
        <use
           transform="matrix(0.017777777777777778,0,0,0.017777777777777778,0,0)"
           xlink:href="#bJ"
           id="use943" />
        <use
           transform="matrix(0.017777777777777778,0,0,0.017777777777777778,10.293333333333333,0)"
           xlink:href="#aZ"
           id="use945" />
        <use
           transform="matrix(0.017777777777777778,0,0,0.017777777777777778,20.657777777777778,0)"
           xlink:href="#ba"
           id="use947" />
        <use
           transform="matrix(0.017777777777777778,0,0,0.017777777777777778,27.43111111111111,0)"
           xlink:href="#bb"
           id="use949" />
        <use
           transform="matrix(0.017777777777777778,0,0,0.017777777777777778,33.937777777777775,0)"
           xlink:href="#bc"
           id="use951" />
      </g>
      <g
         id="S">
        <use
           transform="matrix(0.017777777777777778,0,0,0.017777777777777778,0,0)"
           xlink:href="#bI"
           id="use954" />
        <use
           transform="matrix(0.017777777777777778,0,0,0.017777777777777778,11.217777777777778,0)"
           xlink:href="#bJ"
           id="use956" />
        <use
           transform="matrix(0.017777777777777778,0,0,0.017777777777777778,21.511111111111113,0)"
           xlink:href="#bb"
           id="use958" />
        <use
           transform="matrix(0.017777777777777778,0,0,0.017777777777777778,28.01777777777778,0)"
           xlink:href="#bK"
           id="use960" />
        <use
           transform="matrix(0.017777777777777778,0,0,0.017777777777777778,34.31111111111112,0)"
           xlink:href="#aX"
           id="use962" />
        <use
           transform="matrix(0.017777777777777778,0,0,0.017777777777777778,45.08444444444445,0)"
           xlink:href="#bb"
           id="use964" />
        <use
           transform="matrix(0.017777777777777778,0,0,0.017777777777777778,51.59111111111112,0)"
           xlink:href="#bL"
           id="use966" />
        <use
           transform="matrix(0.017777777777777778,0,0,0.017777777777777778,67.32444444444445,0)"
           xlink:href="#bD"
           id="use968" />
      </g>
      <path
         fill="#333"
         d="M463 209V-77c-33 48-101 87-176 87C147 10 42-107 42-250s105-260 245-260c75 0 143 39 176 87v-77h86v709h-86zm7-459c0-101-69-181-170-181s-171 80-171 181S199-69 300-69s170-80 170-181"
         id="bO" />
      <g
         id="T">
        <use
           transform="matrix(0.017777777777777778,0,0,0.017777777777777778,0,0)"
           xlink:href="#bJ"
           id="use972" />
        <use
           transform="matrix(0.017777777777777778,0,0,0.017777777777777778,10.293333333333333,0)"
           xlink:href="#bO"
           id="use974" />
        <use
           transform="matrix(0.017777777777777778,0,0,0.017777777777777778,21.493333333333332,0)"
           xlink:href="#be"
           id="use976" />
        <use
           transform="matrix(0.017777777777777778,0,0,0.017777777777777778,31.786666666666665,0)"
           xlink:href="#bC"
           id="use978" />
        <use
           transform="matrix(0.017777777777777778,0,0,0.017777777777777778,42.986666666666665,0)"
           xlink:href="#bH"
           id="use980" />
      </g>
      <g
         id="U">
        <use
           transform="matrix(0.017777777777777778,0,0,0.017777777777777778,0,0)"
           xlink:href="#aX"
           id="use983" />
        <use
           transform="matrix(0.017777777777777778,0,0,0.017777777777777778,10.773333333333333,0)"
           xlink:href="#bb"
           id="use985" />
      </g>
      <path
         fill="#333"
         d="M167-77V0H81v-750h86v327c33-48 101-87 176-87 139 0 245 117 245 260S482 10 343 10c-75 0-143-39-176-87zm333-173c0-101-69-181-170-181s-170 80-170 181S229-69 330-69s170-80 170-181"
         id="bP" />
      <g
         id="V">
        <use
           transform="matrix(0.017777777777777778,0,0,0.017777777777777778,0,0)"
           xlink:href="#bP"
           id="use989" />
        <use
           transform="matrix(0.017777777777777778,0,0,0.017777777777777778,11.2,0)"
           xlink:href="#bJ"
           id="use991" />
        <use
           transform="matrix(0.017777777777777778,0,0,0.017777777777777778,21.36888888888889,0)"
           xlink:href="#ba"
           id="use993" />
        <use
           transform="matrix(0.017777777777777778,0,0,0.017777777777777778,28.142222222222223,0)"
           xlink:href="#ba"
           id="use995" />
        <use
           transform="matrix(0.017777777777777778,0,0,0.017777777777777778,34.79111111111111,0)"
           xlink:href="#bJ"
           id="use997" />
        <use
           transform="matrix(0.017777777777777778,0,0,0.017777777777777778,45.08444444444444,0)"
           xlink:href="#bb"
           id="use999" />
      </g>
      <path
         fill="#333"
         d="M185-695c0 34-26 61-60 61s-62-27-62-61c0-33 28-61 62-61s60 28 60 61zM81 0v-500h86V0H81"
         id="bQ" />
      <g
         id="W">
        <use
           transform="matrix(0.017777777777777778,0,0,0.017777777777777778,0,0)"
           xlink:href="#bd"
           id="use1003" />
        <use
           transform="matrix(0.017777777777777778,0,0,0.017777777777777778,8.764444444444443,0)"
           xlink:href="#bC"
           id="use1005" />
        <use
           transform="matrix(0.017777777777777778,0,0,0.017777777777777778,19.964444444444446,0)"
           xlink:href="#bQ"
           id="use1007" />
        <use
           transform="matrix(0.017777777777777778,0,0,0.017777777777777778,24.39111111111111,0)"
           xlink:href="#bH"
           id="use1009" />
      </g>
      <path
         fill="#3a414a"
         d="M6 0l205-253L23-500h104l138 180 137-180h105L319-253 523 0H417L265-189 113 0H6"
         id="bR" />
      <g
         id="X">
        <use
           transform="matrix(0.02222222222222222,0,0,0.02222222222222222,0,0)"
           xlink:href="#ar"
           id="use1013" />
        <use
           transform="matrix(0.02222222222222222,0,0,0.02222222222222222,12.377777777777776,0)"
           xlink:href="#bR"
           id="use1015" />
        <use
           transform="matrix(0.02222222222222222,0,0,0.02222222222222222,23.73333333333333,0)"
           xlink:href="#aq"
           id="use1017" />
        <use
           transform="matrix(0.02222222222222222,0,0,0.02222222222222222,36.599999999999994,0)"
           xlink:href="#ao"
           id="use1019" />
        <use
           transform="matrix(0.02222222222222222,0,0,0.02222222222222222,49.666666666666664,0)"
           xlink:href="#ay"
           id="use1021" />
        <use
           transform="matrix(0.02222222222222222,0,0,0.02222222222222222,62.533333333333324,0)"
           xlink:href="#as"
           id="use1023" />
        <use
           transform="matrix(0.02222222222222222,0,0,0.02222222222222222,70.84444444444443,0)"
           xlink:href="#aq"
           id="use1025" />
      </g>
      <g
         id="Y">
        <use
           transform="matrix(0.02222222222222222,0,0,0.02222222222222222,0,0)"
           xlink:href="#az"
           id="use1028" />
        <use
           transform="matrix(0.02222222222222222,0,0,0.02222222222222222,12.977777777777776,0)"
           xlink:href="#ax"
           id="use1030" />
        <use
           transform="matrix(0.02222222222222222,0,0,0.02222222222222222,18.51111111111111,0)"
           xlink:href="#an"
           id="use1032" />
        <use
           transform="matrix(0.02222222222222222,0,0,0.02222222222222222,32.511111111111106,0)"
           xlink:href="#ak"
           id="use1034" />
      </g>
    </defs>
  </g>
</svg>
