<svg xmlns="http://www.w3.org/2000/svg" width="740" height="280" fill="none"><path fill="#fff" d="M0 0h740v280H0z"/><path stroke="#4F4C4B" stroke-width="4" d="m498.901 202.499-107.6-96.1"/><path fill="#4F4C4B" stroke="#4F4C4B" stroke-width="4" d="m495.701 206.1 12.7 5-6.3-12.2zm-101.2-103.3-12.7-5 6.2 12.2z"/><path stroke="#4F4C4B" stroke-width="4" d="m241.301 202.5 107.7-96.1"/><path fill="#4F4C4B" stroke="#4F4C4B" stroke-width="4" d="m238.101 199-6.3 12 12.7-4.9zm113.9-89 6.4-12.1-12.7 5z"/><path fill="#5CA831" d="M220 201.1c0-1.2-3-2.1-6.5-2.1h-187c-3.6 0-6.5 1-6.5 2.1V262c0 1.2 3 2.1 6.5 2.1h187c3.6 0 6.5-1 6.5-2.1v-61"/><path fill="#FFFFFE" d="m52.7 233.4-2.7-1.6q-2.499-1.5-3.6-3-1-1.5-1-3.4 0-3 2-4.7 2-1.8 5.2-1.8 3.1 0 5.7 1.7v4q-2.7-2.6-5.7-2.6-1.8 0-2.9.8-1 .8-1 2t.7 2.2q.801 1 2.7 2l2.6 1.6q4.5 2.6 4.5 6.8 0 3-2 4.8t-5 1.8q-3.7 0-6.7-2.2v-4.5q2.8 3.6 6.6 3.6 1.6 0 2.7-.9 1.1-1 1.1-2.3 0-2.3-3.2-4.3m23.8 2.6H65q.1 2.301 1.6 3.6 1.4 1.4 3.7 1.4 3.1 0 5.8-2v3.2q-1.5 1-3 1.4-1.4.4-3.3.4-2.7 0-4.3-1.1-1.7-1.1-2.7-3t-1-4.3q0-3.699 2.1-6 2.1-2.3 5.4-2.3t5.2 2.2q1.9 2.301 1.9 6v.4zm-11.3-2h8.1q-.1-1.899-1.1-3-1-1-2.8-1-1.7 0-2.8 1-1 1.101-1.4 3m26.8 6v3.1q-2.3 1-4.7 1-3.699 0-6-2.3-2.3-2.3-2.3-6 0-3.9 2.2-6.2t5.8-2.3q1.3 0 2.2.2 1 .201 2.5.9v3.4q-2.4-1.6-4.5-1.6-2.2 0-3.5 1.6-1.4 1.5-1.4 3.8 0 2.5 1.5 4 1.5 1.4 4 1.4 1.9 0 4.3-1zm11.4-12.5q3.7 0 6.1 2.4 2.5 2.4 2.5 6 0 3.5-2.5 5.8t-6.2 2.3-6.1-2.3q-2.5-2.4-2.5-5.9t2.5-5.9 6.2-2.4m-.2 3q-2.3 0-3.7 1.4-1.5 1.5-1.5 3.9 0 2.3 1.5 3.8 1.5 1.4 3.9 1.4 2.3 0 3.8-1.4 1.5-1.5 1.5-3.9 0-2.3-1.5-3.8-1.6-1.5-4-1.5zm15.5-2.9v2q2.2-2.3 4.9-2.3 1.5 0 2.8.7a5.3 5.3 0 0 1 2 2.2q.6 1.3.6 4.3v9.2h-3.2v-9.2q0-2.4-.7-3.5-.8-1-2.5-1-2.3 0-3.9 2.2v11.5h-3.3v-16.1zm25.6-8.4h3.2v24.5h-6.8q-3.6 0-5.7-2.2-2.2-2.3-2.2-6.1 0-3.6 2.3-5.9 2.2-2.3 5.7-2.3 1.6 0 3.5.7zm0 21.8v-10.2q-1.5-.8-3-.8-2.4 0-3.8 1.6-1.4 1.5-1.4 4.2 0 2.5 1.2 3.8.7.8 1.6 1.1.801.3 3 .3zm17.7-7v6.9q0 .8.6.8t1.8-.8v2l-1.8.9q-.6.2-1.3.2-2 0-2.5-1.6-2 1.6-4.3 1.6-1.7 0-2.8-1.1t-1.1-2.8q0-1.6 1-2.8 1.2-1.2 3.2-1.9l4-1.4v-.8q0-3-2.8-3-2.7 0-5.1 2.7v-3.4q1.8-2.2 5.3-2.2 2.601 0 4.2 1.3l1 1.2q.4.7.5 1.5zm-3.1 6.5v-4.8l-2.2.9q-1.6.6-2.3 1.3-.7.6-.7 1.6t.7 1.7q.6.6 1.6.6 1.6 0 2.9-1.3m11.8-12.9v3.7l.2-.3q2.3-3.7 4.6-3.7 1.8 0 3.8 1.8l-1.7 2.8q-1.7-1.6-3.1-1.6-1.5 0-2.7 1.5-1.1 1.5-1.1 3.5v8.4h-3.2v-16.1zm21.8 0h3.6L184.6 252h-3.5l5.5-11.7-6.3-12.7h3.7l4.3 9z"/><path fill="#2A86C0" d="m147.7 148.6-13.2-15.7 4-3.3q2.3-2 4.7-2t4 2q1.2 1.4 1.4 3 .1 1.5-.7 3.1 1.1-.1 2.6.1 1.4.3 4.5 1.3l3 .9 1.7.4-2.6 2.3-1.6-.5h-.3l-1-.3-1.6-.6-1.8-.6q-1.5-.4-2.5-.4h-1.8q-.6.2-1.7 1l-.6.6 5.7 6.8zm-8.7-16.2-.7.5 4.2 5 .8-.7q1.8-1.5 2.1-2.3.4-.8.3-1.7-.2-.9-.8-1.7-.6-.7-1.5-1-.9-.2-1.8.1-1 .399-2.6 1.8m26.8-7.6-7.2 6.1q1.3 1.4 3 1.5 1.6.1 3-1 2-1.8 2.7-4.5l1.7 2q-.4 1.5-1.1 2.5-.7.999-2 2.1-1.7 1.4-3.3 1.6a6.3 6.3 0 0 1-3.3-.5q-1.6-.6-3-2.2-2-2.4-1.8-5 0-2.6 2.2-4.4 2-1.7 4.5-1.3 2.4.4 4.4 2.9zm-8.2 4.8 5.2-4.3q-1.1-1.2-2.3-1.3t-2.3.8q-1.1 1-1.3 2.2-.1 1.2.7 2.6m18.9 3.7-13-15.6 3.5-3q2.7-2.3 5.4-2.2t4.8 2.6q2 2.3 1.7 5-.2 2.7-2.4 4.6-1 .8-2.5 1.4l4.6 5.5zm-8-16.6-1.4 1.2 5.3 6.3q1.4-.3 2.4-1.1 1.5-1.2 1.5-3 .1-1.8-1.2-3.3-.9-1-2-1.5a2.6 2.6 0 0 0-2 0q-1.1.2-2.5 1.4zm2.1-14.1 2-1.7 13.2 15.7-2 1.7zm6.9-4.1q.5-.4 1.2-.4.6 0 1 .6.5.5.4 1.1 0 .7-.6 1.1-.4.399-1 .3-.8 0-1.2-.5t-.3-1.1q0-.7.5-1.1m2.7 5.2 2-1.7 8.7 10.3-2 1.7zm19.3-2.7 1.7 2q-1 1.8-2.5 3-2.4 2-5 1.8-2.7-.2-4.8-2.6-2-2.4-1.8-5.1.1-2.7 2.4-4.6.8-.7 1.5-1l2-.8 2 2.2q-2.5.3-3.8 1.4-1.4 1.2-1.4 2.9-.1 1.7 1.2 3.2 1.3 1.6 3 1.7 1.8.099 3.4-1.2 1.2-1 2.1-3zm5.6-11.3 3.7 4.4q.5.6.8.3.4-.4.7-1.6l1 1.3-.6 1.5q-.2.5-.7 1-1.3 1-2.4.2-.5 2.1-2 3.3-1 1-2.3.8-1.3 0-2.2-1.2-.9-1-.8-2.3 0-1.3 1-2.9l1.8-3-.4-.6q-1.6-1.9-3.5-.3-1.6 1.4-1.8 4.4l-1.8-2.2q0-2.4 2.2-4.3 1.7-1.4 3.4-1.3l1.3.2q.6.2 1 .6zm1.5 5.9-2.5-3-1 1.6q-.7 1.3-.8 2 0 .9.5 1.5t1.3.7q.7 0 1.4-.5 1-.8 1.1-2.3m-1.6-9.9.6-7 1.8 2.1 3.3-2.7 1.5 1.8-3.2 2.8 4.2 5q1.5 1.8 3 .5 1-.9 1.7-2.6l1.6 1.9a8.3 8.3 0 0 1-2 2.8q-1.5 1.2-3 1.1l-1-.1-1-.6q-.6-.4-1.7-1.8l-3.9-4.5-1.8 1.5zm5.1-14.6q.5-.4 1.2-.3.6 0 1 .5.5.5.4 1.2 0 .6-.6 1-.4.5-1.1.4-.7 0-1-.6-.5-.4-.4-1 0-.801.5-1.2m2.6 5.2 2-1.7 8.8 10.3-2 1.8zm9.9-8.3q2.4-2.001 5.2-1.8 2.9.2 4.8 2.5t1.5 5q-.3 2.9-2.7 4.9-2.3 2-5.1 1.8-2.9-.2-4.8-2.5t-1.5-5q.3-3 2.6-5zm1.5 2q-1.5 1.2-1.6 3-.2 1.7 1 3.2 1.3 1.4 3 1.6 1.8 0 3.4-1.2 1.5-1.2 1.6-3 .2-1.7-1-3.2-1.3-1.5-3.1-1.6-1.8-.2-3.3 1.1zm8.3-10.2 1.1 1.3q.1-2.6 1.9-4.1a4.7 4.7 0 0 1 2.2-1q1.2-.201 2.4.3 1.2.5 2.7 2.4l5 5.9-2 1.7-5-5.9q-1.3-1.5-2.4-1.8-1-.3-2.2.7-1.4 1.2-1.2 3.5l6.2 7.3L239 72l-8.7-10.3 2.1-1.8z"/><path stroke="#2A86C0" stroke-width="8" d="M260.5 71.5 139 173.5"/><path fill="#2A86C0" stroke="#2A86C0" stroke-width="8" d="m134.401 168-10.1 18 19.3-6.9z"/><path fill="#2A86C0" d="M469.301 16.4c0-1.1-3-2-6.5-2h-187c-3.6 0-6.5.9-6.5 2v60.8c0 1.2 2.9 2.1 6.5 2.1h187c3.6 0 6.5-1 6.5-2v-61"/><path fill="#fff" d="M314.4 58.8V34.2h7.8q3.5 0 5.6 2 2.1 1.8 2.1 5 0 2.2-1 3.8a5.92 5.92 0 0 1-3 2.4q-1.9.8-5.3.8H318v10.6zm7.2-21.4H318V45h3.8q2.2 0 3.3-1 1.2-1 1.2-2.9 0-3.7-4.7-3.7m14.4 5.3v3.7l.1-.3q2.4-3.8 4.7-3.8 1.8 0 3.8 1.9l-1.7 2.8q-1.7-1.6-3.1-1.6-1.599 0-2.7 1.5-1.1 1.4-1.1 3.5v8.4h-3.3V42.7zm12.5-6.9q.8 0 1.3.6.6.5.6 1.3t-.6 1.4q-.5.5-1.3.5t-1.3-.5q-.6-.6-.6-1.4 0-.7.6-1.3.5-.6 1.3-.6m-1.6 6.9h3.2v16.1h-3.2zM368 47v11.8h-3.3v-9q0-2.7-.7-3.7t-2.5-1q-1 0-1.9.4-.8.4-1.9 1.6v11.7h-3.2V42.7h3.2v2q2.5-2.4 4.8-2.4 3.1 0 4.8 3 2.6-3 5.3-3 2.4 0 4 1.7 1.4 1.7 1.4 5.3v9.5h-3.2v-9.6q0-2-.8-3-.8-1.1-2.4-1.1-2 0-3.7 2zm24.5 2.1V56q0 .8.6.8t1.8-.9v2l-1.7 1-1.4.2q-2 0-2.4-1.6-2 1.6-4.4 1.6-1.7 0-2.8-1.1-1.1-1.2-1.1-2.8t1-2.8q1.2-1.2 3.2-1.9l4.1-1.4v-.9q0-2.9-3-2.9-2.5 0-5 2.7v-3.5q1.8-2.2 5.3-2.2 2.7 0 4.2 1.4.6.4 1 1.2.4.7.5 1.4zm-3.1 6.5v-4.8l-2.1.9q-1.7.6-2.4 1.3-.6.6-.6 1.6t.6 1.6q.7.7 1.7.7 1.5 0 2.8-1.3m11.8-12.9v3.7l.2-.3q2.3-3.8 4.6-3.8 1.8 0 3.8 1.9l-1.7 2.8q-1.599-1.6-3-1.6-1.6 0-2.8 1.5-1 1.4-1 3.5v8.4H398V42.7zm21.8 0h3.6L415.2 67h-3.6l5.5-11.7-6.3-12.7h3.7l4.3 9 4.2-9z"/><path fill="#4F4C4B" d="M324.8 205.5h3V226h-3v-9h-11.5v9h-2.9v-20.5h3v8.9h11.4zm18.6 14h-9.5q.1 2 1.3 3 1.2 1.2 3 1.2 2.7 0 5-1.6v2.6q-1.3.8-2.5 1.2-1.2.3-2.8.3-2.199 0-3.6-1-1.4-.8-2.2-2.4-.9-1.6-.9-3.6 0-3 1.8-5 1.701-2 4.5-2 2.7 0 4.3 2 1.6 1.8 1.6 5zm-9.4-1.6h6.8q-.1-1.6-1-2.5-.8-.8-2.3-.8-1.4 0-2.3.8-.999.9-1.2 2.5m20.7 0v5.7q0 .7.5.7.501 0 1.5-.7v1.6q-.9.6-1.5.8-.5.2-1.1.2-1.7 0-2-1.3-1.7 1.3-3.6 1.3-1.4 0-2.4-1-1-.9-1-2.3 0-1.2 1-2.2t2.6-1.6l3.4-1.2v-.7q0-2.4-2.4-2.4-2.2 0-4.3 2.2v-3q1.6-1.7 4.5-1.7 2.2 0 3.5 1.1l.8 1 .4 1.2zm-2.6 5.4v-4l-1.8.7q-1.3.6-2 1.1-.5.6-.5 1.4t.6 1.3q.5.6 1.3.6 1.3 0 2.4-1zm9.9-10.8v3.1l.1-.2q2.001-3.1 3.9-3.1 1.5 0 3.1 1.5l-1.4 2.3q-1.4-1.3-2.6-1.3-1.3 0-2.2 1.2-1 1.3-1 3v7h-2.6v-13.5zm7.7 2.2 5-5v2.8h4.3v2.4h-4.3v6.6q0 2.3 2 2.3 1.3 0 3-1v2.6q-1.6.8-3.4.8t-3-1l-.7-.8-.4-1q-.2-.7-.2-2.5v-6h-2.3zm11.8-9.2h2.6v8q1.8-1.3 3.7-1.3 2.601 0 4.2 2 1.7 1.9 1.7 5 0 3.2-2 5.1-2 2-5.2 2-1.299 0-2.7-.3-1.5-.3-2.3-.7zM384 216v7.3q1.4.4 2.8.4 1.8 0 3-1.2 1-1.3 1-3.3t-1-3.2q-.999-1.3-2.7-1.3-1.5 0-3 1.3zm24 3.5h-9.4q.1 2 1.3 3 1.2 1.2 3 1.2 2.7 0 5-1.6v2.6q-1.3.8-2.5 1.2-1.2.3-2.8.3-2.3 0-3.6-1-1.4-.8-2.2-2.4-.9-1.6-.9-3.6 0-3 1.8-5 1.701-2 4.5-2 2.7 0 4.3 2 1.6 1.8 1.6 5v.3zm-9.3-1.6h6.7q0-1.6-1-2.5-.8-.8-2.2-.8t-2.4.8q-.9.9-1.1 2.5m20.7 0v5.7q0 .7.5.7.501 0 1.5-.7v1.6l-1.5.8q-.5.2-1.1.2-1.7 0-2-1.3-1.7 1.3-3.7 1.3-1.4 0-2.3-1-1-.9-1-2.3 0-1.2 1-2.2.9-1 2.6-1.6l3.4-1.2v-.7q0-2.4-2.4-2.4-2.2 0-4.3 2.2v-3q1.6-1.7 4.5-1.7 2.2 0 3.5 1.1l.8 1 .4 1.2zm-2.6 5.4v-4l-1.8.7q-1.4.6-2 1.1-.5.6-.5 1.4t.5 1.3q.6.6 1.4.6 1.3 0 2.4-1zm5.1-8.6 5-5v2.8h4.3v2.4h-4.3v6.6q0 2.3 2 2.3 1.401 0 3-1v2.6q-1.6.8-3.4.8t-3-1l-.7-.8-.4-1q-.2-.7-.2-2.5v-6H422v-.2z"/><path stroke="#4F4C4B" stroke-width="4" d="M246.5 231.5h247.2"/><path fill="#4F4C4B" stroke="#4F4C4B" stroke-width="4" d="m246.499 226.7-12.8 4.8 12.8 4.8zm247.2 9.6 12.8-4.8-12.8-4.8z"/><path fill="#E88B09" d="M720.4 201.1c0-1.2-2.9-2.1-6.5-2.1H527c-3.6 0-6.5 1-6.5 2.1V262c0 1.2 3 2.1 6.5 2.1h187c3.6 0 6.5-1 6.5-2.1v-61"/><path fill="#FFFFFE" d="M577.1 216.8h2.5l11 24.7H587l-3.3-7.3h-10.4l-3.1 7.3h-3.6zm5.2 14.3-4-9-3.6 9zm14-5.8v3.7l.2-.3q2.3-3.7 4.6-3.7 1.9 0 3.8 1.8l-1.7 2.8q-1.6-1.6-3-1.6-1.6 0-2.8 1.5-1 1.5-1 3.5v8.5H593v-16.2h3.3M607 217h3.2v9.5q2.1-1.5 4.5-1.5 3 0 5 2.3t2 6q0 3.8-2.4 6.2-2.3 2.3-6.2 2.3-1.6 0-3.3-.4-1.8-.3-2.8-.8v-23.7zm3.2 12.5v8.8q1.7.5 3.4.5 2.1 0 3.4-1.5 1.4-1.6 1.4-4 0-2.3-1.3-3.8-1.2-1.6-3.2-1.6-1.8 0-3.7 1.6m16.6-11q.8 0 1.4.5.5.6.5 1.4t-.5 1.3q-.6.6-1.4.6-.7 0-1.3-.6-.5-.6-.5-1.3 0-.8.5-1.3.6-.6 1.3-.6m-1.6 6.8h3.2v16.2h-3.2zm5.6 2.6 6-6v3.4h5.1v2.9h-5.1v8q0 2.7 2.3 2.7 1.7 0 3.6-1.2v3q-1.8 1-4 1t-3.7-1.2l-.7-.9-.5-1.2q-.2-.801-.2-3v-7.2h-2.8zm28 5.8h-11.3q.099 2.3 1.5 3.7 1.5 1.3 3.7 1.3 3.2 0 5.9-2v3.2q-1.5 1-3 1.4-1.4.4-3.4.4-2.6 0-4.3-1a9.4 9.4 0 0 1-2.6-3q-1-2-1-4.4 0-3.7 2-6 2.2-2.3 5.5-2.3 3.2 0 5.1 2.2 2 2.3 2 6v.5zm-11.3-2h8.2q-.1-1.9-1.2-2.9-1-1-2.7-1t-2.8 1q-1.101.999-1.5 3zm18.2-6.4v3.7l.2-.3q2.3-3.7 4.6-3.7 1.8 0 3.8 1.8l-1.7 2.8q-1.6-1.6-3-1.6-1.6 0-2.8 1.5-1 1.5-1 3.5v8.5h-3.3v-16.2z"/><path fill="#fff" d="M596.999 249.7h.7q-.7 1.1-1 1.9-.399.7-.6 1.7l-.1 2q0 3.201 1.7 5.4h-.7l-.1-.2-1-1.3-.6-1.3q-.6-1.299-.6-2.7 0-1.3.6-2.6.5-1.3 1.7-2.9m5 2.9h1l-2.3 5.5h-.4l-2.4-5.5h1.2l1.4 3.3 1.4-3.3zm4.2 0q1.2 0 2 .8.9.8.9 2t-.9 2q-.8.7-2 .7t-2-.8q-.9-.8-.9-2 0-1.1.8-2 .9-.7 2.1-.7m0 1q-.8 0-1.3.5a1.64 1.64 0 0 0-.5 1.2q0 .8.5 1.3t1.3.5 1.3-.5.5-1.3q0-.699-.5-1.2-.6-.5-1.3-.5m3.3-.1 2-2v1.1h1.7v1h-1.7v2.6q0 1 .8 1 .501 0 1.2-.4v1q-.6.3-1.4.3-.699 0-1.2-.4l-.2-.3-.2-.4v-3.4h-1zm9.3 1.9h-3.7q0 .801.5 1.2.501.5 1.2.5 1 0 2-.7v1q-.5.4-1 .5-.5.2-1.2.2-.8 0-1.4-.4a4.4 4.4 0 0 1-.9-1q-.3-.6-.3-1.4 0-1.3.7-2 .7-.8 1.8-.8 1 0 1.7.8.6.7.6 2zm-3.7-.6h2.7q0-.7-.4-1-.3-.4-.9-.4t-1 .4q-.3.3-.4 1m10.8-2.2q1.2 0 2 .8.9.8.9 2t-.9 2q-.8.7-2 .7-1.3 0-2-.8-.9-.8-.9-2 0-1.1.8-2 .9-.7 2.1-.7m0 1q-.8 0-1.3.5a1.64 1.64 0 0 0-.5 1.2q0 .8.5 1.3t1.3.5 1.3-.5.5-1.3q0-.699-.5-1.2-.6-.5-1.4-.5zm5.1-1v.7q.7-.8 1.6-.8.5 0 1 .3.4.2.6.7.2.4.2 1.4v3.1h-1v-3q0-.9-.3-1.2-.2-.4-.8-.4-.8 0-1.3.8v3.8h-1v-5.4zm5-2.8h1v8.2h-1zm5.8 2.8h1.2l-3.9 8.1h-1.1l1.8-3.9-2-4.2h1.1l1.5 3zm2 8.1h-.7q.8-1.1 1-1.9a7 7 0 0 0 .6-1.8l.1-1.8-.2-2a5.1 5.1 0 0 0-.5-1.8l-1-1.7h.7l.1.2 1 1.3.7 1.3q.5 1.3.5 2.7t-.5 2.6l-.6 1.2q-.3.6-1.2 1.7"/></svg>