<svg xmlns="http://www.w3.org/2000/svg" width="800" height="480" fill="none"><path fill="#fff" d="M0 0h800v480H0z"/><path stroke="#3F2615" stroke-width="4" d="M3.15 190.38h221.71v230.57H3.15z"/><path fill="#412818" d="M46.63 453.51v-16.35h5.52q3.34 0 5.29 1.01 1.95 1 3.09 2.94a8.2 8.2 0 0 1 1.15 4.24 8 8 0 0 1-.63 3.14q-.63 1.5-1.8 2.64-1.2 1.17-2.78 1.77a9 9 0 0 1-1.7.49q-.77.12-2.95.12zm5.27-14.26h-2.93v12.18h3q1.761 0 2.73-.23.971-.25 1.62-.61a6 6 0 0 0 1.2-.91q1.73-1.77 1.73-4.45 0-2.64-1.78-4.3a5.8 5.8 0 0 0-1.51-1.02 6.1 6.1 0 0 0-1.61-.53q-.758-.13-2.45-.13M71.09 447.05v4.58q.001.55.38.55.39 0 1.21-.57v1.3q-.729.47-1.17.63-.43.18-.91.18-1.368 0-1.62-1.08-1.36 1.05-2.89 1.05-1.129 0-1.88-.74-.75-.75-.75-1.88 0-1.02.73-1.82.74-.81 2.09-1.28l2.73-.94v-.57q0-1.95-1.95-1.95-1.75 0-3.4 1.8v-2.33q1.242-1.46 3.57-1.46 1.751 0 2.8.91.351.29.63.79.281.48.35.97.08.48.08 1.84zm-2.1 4.35v-3.2l-1.43.55q-1.088.43-1.55.88-.45.43-.45 1.09 0 .67.42 1.09.432.42 1.11.42 1.02 0 1.89-.83zM73.07 444.46l4.01-3.94v2.23h3.41v1.92h-3.41v5.29q0 1.85 1.54 1.85 1.15 0 2.43-.77v1.99q-1.23.69-2.68.69-1.46 0-2.44-.86a2.7 2.7 0 0 1-.5-.57q-.2-.33-.34-.84-.13-.53-.13-1.99v-4.78h-1.88zM89.37 447.05v4.58q0 .55.38.55.39 0 1.21-.57v1.3q-.729.47-1.17.63-.43.18-.91.18-1.37 0-1.62-1.08-1.36 1.05-2.89 1.05-1.13 0-1.88-.74-.75-.75-.75-1.88 0-1.02.73-1.82.74-.81 2.09-1.28l2.73-.94v-.57q0-1.95-1.95-1.95-1.75 0-3.4 1.8v-2.33q1.24-1.46 3.57-1.46 1.75 0 2.8.91.351.29.63.79.28.48.35.97.08.48.08 1.84zm-2.1 4.35v-3.2l-1.43.55q-1.09.43-1.55.88-.45.43-.45 1.09 0 .67.42 1.09.43.42 1.11.42 1.02 0 1.89-.83zM113.921 449.74v2.58q-2.58 1.41-5.95 1.41-2.739 0-4.65-1.1a8.07 8.07 0 0 1-3.02-3.04 8.25 8.25 0 0 1-1.11-4.18q0-3.57 2.54-6.01 2.55-2.44 6.29-2.44 2.58 0 5.73 1.35v2.52q-2.87-1.64-5.61-1.64-2.81 0-4.68 1.78-1.85 1.77-1.85 4.44 0 2.7 1.83 4.43t4.68 1.73q2.98 0 5.81-1.83zM125.72 448.33h-7.58q.08 1.55 1.03 2.46.96.91 2.47.91 2.11 0 3.89-1.31v2.09a7 7 0 0 1-1.96.94q-.96.28-2.26.28-1.78 0-2.88-.74a5.5 5.5 0 0 1-1.77-1.98q-.66-1.25-.66-2.89 0-2.46 1.39-4 1.39-1.55 3.62-1.55 2.14 0 3.42 1.5t1.28 4.02zm-7.54-1.28h5.43q-.08-1.28-.76-1.97t-1.83-.69-1.89.69q-.73.69-.95 1.97M130.15 442.75v1.37q1.43-1.58 3.25-1.58 1.01 0 1.88.53a3.3 3.3 0 0 1 1.31 1.43q.46.9.46 2.87v6.16h-2.13v-6.14q0-1.65-.5-2.36t-1.69-.71q-1.51 0-2.57 1.51v7.7h-2.18v-10.78zM138.5 444.46l4.01-3.94v2.23h3.41v1.92h-3.41v5.29q0 1.85 1.54 1.85 1.15 0 2.43-.77v1.99q-1.23.69-2.68.69-1.46 0-2.44-.86a2.7 2.7 0 0 1-.5-.57q-.2-.33-.34-.84-.13-.53-.13-1.99v-4.78h-1.88zM157.22 448.33h-7.58q.08 1.55 1.03 2.46.96.91 2.47.91 2.11 0 3.89-1.31v2.09a7 7 0 0 1-1.96.94q-.96.28-2.26.28-1.78 0-2.88-.74a5.5 5.5 0 0 1-1.77-1.98q-.66-1.25-.66-2.89 0-2.46 1.39-4 1.39-1.55 3.62-1.55 2.14 0 3.42 1.5t1.28 4.02zm-7.54-1.28h5.43q-.08-1.28-.76-1.97t-1.83-.69-1.89.69q-.73.69-.95 1.97M161.8 442.75v2.47l.12-.19q1.55-2.5 3.09-2.5 1.21 0 2.52 1.22l-1.13 1.88q-1.11-1.05-2.06-1.05-1.03 0-1.79.98-.75.98-.75 2.33v5.64h-2.14v-10.78zM179.031 437.16h2.34v16.38h-2.34z"/><path fill="#3299CC" d="M213.5 228.43c0-1.17-2.91-2.11-6.5-2.11H20c-3.59 0-6.5.95-6.5 2.11v60.78c0 1.17 2.91 2.11 6.5 2.11h187.01c3.59 0 6.5-.95 6.5-2.11v-60.78"/><path fill="#fff" d="M57.37 267v-24.59h7.79q3.519 0 5.61 1.9 2.089 1.9 2.09 5.1-.001 2.14-1.07 3.8-1.071 1.65-2.94 2.41-1.86.74-5.34.74h-2.6v10.65zm7.17-21.46h-3.63v7.68h3.85q2.139 0 3.3-1 1.159-1.02 1.16-2.9 0-3.78-4.68-3.78M78.91 250.82v3.71l.18-.28q2.32-3.74 4.64-3.74 1.809 0 3.78 1.83l-1.69 2.81q-1.671-1.58-3.09-1.58-1.55 0-2.69 1.48-1.13 1.48-1.13 3.5v8.46h-3.22v-16.17zM91.4 244.021q.789 0 1.35.54.559.54.56 1.339-.001.771-.56 1.341-.561.56-1.35.56-.742 0-1.3-.56-.56-.58-.56-1.341 0-.74.56-1.299.558-.58 1.3-.58m-1.58 6.8h3.2v16.169h-3.2zM110.879 255.25v11.74h-3.22v-9q0-2.69-.72-3.74-.72-1.07-2.51-1.07a3.8 3.8 0 0 0-1.85.46q-.83.46-1.9 1.62V267h-3.2v-16.17h3.2v2.13q2.44-2.44 4.78-2.44 3.08 0 4.76 2.92 2.57-2.95 5.36-2.95 2.36 0 3.87 1.72 1.53 1.72 1.53 5.26v9.54h-3.2v-9.58q0-2.019-.83-3.09-.831-1.07-2.37-1.07-1.99 0-3.71 2zM135.56 257.28v6.87q0 .83.56.83.58 0 1.81-.86v1.95q-1.09.7-1.76.95a3.7 3.7 0 0 1-1.37.26q-2.06 0-2.43-1.62-2.04 1.58-4.34 1.58-1.69 0-2.81-1.11-1.13-1.13-1.13-2.81 0-1.53 1.09-2.72 1.11-1.21 3.13-1.92l4.1-1.41v-.86q0-2.92-2.92-2.92-2.62 0-5.1 2.71v-3.5q1.86-2.2 5.36-2.2 2.62 0 4.2 1.37.53.44.95 1.18.42.72.53 1.46.12.72.12 2.76zm-3.15 6.52V259l-2.14.83q-1.63.65-2.32 1.32-.67.65-.67 1.63 0 1 .63 1.63.65.63 1.67.63 1.53 0 2.83-1.25zM144.23 250.82v3.71l.18-.28q2.32-3.74 4.64-3.74 1.809 0 3.78 1.83l-1.69 2.81q-1.671-1.58-3.09-1.58-1.55 0-2.69 1.48-1.13 1.48-1.13 3.5v8.46h-3.22v-16.17zM166.02 250.82h3.6l-11.44 24.42h-3.57l5.5-11.71-6.26-12.71h3.64l4.36 9.12z"/><path fill="#3E2D1B" d="M91.34 288.07v-8.14h1.87q1.44 0 2.23.71.8.71.8 2 0 1.21-.76 1.99-.75.78-1.92.78-.52 0-1.14-.23v2.88zm1.85-7.14h-.76v3.32q.49.25 1.03.25.75 0 1.22-.52.48-.52.48-1.34 0-.531-.23-.93a1.36 1.36 0 0 0-.62-.59q-.39-.19-1.14-.19zM98.55 279.93v1.24l.06-.09q.77-1.25 1.55-1.25.6 0 1.26.61l-.56.94q-.56-.53-1.03-.53-.519 0-.9.49-.38.49-.38 1.17v2.82h-1.07v-5.39zM102.72 277.659q.26 0 .45.18t.19.45a.62.62 0 0 1-.19.45.62.62 0 0 1-.45.19.57.57 0 0 1-.43-.19.61.61 0 0 1-.19-.45q0-.25.19-.43a.6.6 0 0 1 .43-.19zm-.53 2.27h1.07v5.39h-1.07zM107.371 279.92q1.23 0 2.04.8.81.79.81 1.99 0 1.17-.83 1.94t-2.08.77q-1.21 0-2.03-.78-.81-.79-.81-1.96 0-1.18.82-1.97.83-.79 2.07-.79zm-.06.96q-.771 0-1.26.5-.49.5-.49 1.28 0 .77.5 1.27.5.49 1.29.49t1.28-.49q.5-.5.5-1.27t-.52-1.27-1.31-.5zM112.57 279.93v1.24l.06-.09q.77-1.25 1.55-1.25.6 0 1.26.61l-.56.94q-.56-.53-1.03-.53-.52 0-.9.49t-.38 1.17v2.82h-1.07v-5.39zM116.729 277.659a.63.63 0 0 1 .45.18q.19.18.19.45a.61.61 0 0 1-.19.45.61.61 0 0 1-.45.19.57.57 0 0 1-.43-.19.62.62 0 0 1-.19-.45q0-.25.19-.43a.6.6 0 0 1 .43-.19zm-.53 2.27h1.07v5.39h-1.07zM118.051 280.789l2-1.97v1.11h1.71v.96h-1.71v2.64q0 .93.77.93.57 0 1.21-.39v1q-.62.35-1.34.35-.73 0-1.22-.43a1.3 1.3 0 0 1-.25-.29 1.5 1.5 0 0 1-.17-.42q-.06-.26-.06-1v-2.39h-.94zM126.111 279.93h1.2l-3.81 8.14h-1.19l1.83-3.9-2.09-4.24h1.21l1.45 3.04zM128.569 283.989q.3 0 .51.21t.21.51q0 .29-.21.5t-.51.21a.68.68 0 0 1-.5-.21.68.68 0 0 1-.21-.5q0-.3.21-.51t.5-.21m.09-4.17q.3 0 .51.21t.21.51q0 .29-.21.5t-.51.21a.68.68 0 0 1-.5-.21.68.68 0 0 1-.21-.5q0-.3.21-.51t.5-.21M134.49 277.14h1.17v8.19h-1.17z"/><path fill="#6CB340" d="M213.5 331.99c0-1.17-2.91-2.11-6.5-2.11H20c-3.59 0-6.5.95-6.5 2.11v60.78c0 1.17 2.91 2.11 6.5 2.11h187.01c3.59 0 6.5-.95 6.5-2.11v-60.78"/><path fill="#FFFFFE" d="m45.43 360.39-2.67-1.62q-2.51-1.53-3.59-3.01-1.05-1.49-1.05-3.43 0-2.901 2-4.71 2.02-1.81 5.24-1.81 3.079 0 5.64 1.72v3.99q-2.65-2.55-5.71-2.55-1.721 0-2.83.81-1.11.789-1.11 2.04 0 1.11.81 2.07.81.97 2.62 2.02l2.69 1.58q4.5 2.67 4.5 6.82 0 2.949-1.99 4.8-1.971 1.85-5.13 1.85-3.642 0-6.63-2.23v-4.46q2.85 3.6 6.59 3.6 1.649 0 2.74-.91 1.11-.93 1.11-2.32 0-2.25-3.23-4.25M69.208 362.89h-11.37q.12 2.32 1.55 3.69 1.44 1.37 3.71 1.37 3.16 0 5.84-1.97v3.13q-1.48.98-2.94 1.41-1.44.42-3.39.42-2.67 0-4.32-1.11t-2.65-2.97q-.98-1.88-.98-4.34 0-3.69 2.09-5.99 2.091-2.32 5.43-2.32 3.22 0 5.13 2.25 1.92 2.25 1.92 6.03zm-11.3-1.92h8.14q-.12-1.92-1.14-2.95-1.02-1.04-2.74-1.04t-2.83 1.04q-1.09 1.04-1.42 2.95zM84.79 366.909v3.16q-2.41.9-4.71.9-3.801 0-6.06-2.25-2.25-2.25-2.25-6.03 0-3.81 2.2-6.15t5.78-2.34q1.25 0 2.23.25.999.23 2.46.88v3.41q-2.43-1.55-4.5-1.55-2.16 0-3.55 1.53-1.39 1.51-1.39 3.87 0 2.48 1.49 3.94 1.51 1.46 4.06 1.46 1.85 0 4.24-1.07zM96.139 354.489q3.69 0 6.13 2.39 2.44 2.37 2.44 5.98 0 3.501-2.48 5.82-2.481 2.3-6.24 2.3-3.64 0-6.08-2.34-2.44-2.36-2.44-5.87 0-3.549 2.46-5.91 2.48-2.37 6.21-2.37m-.18 2.88q-2.301 0-3.78 1.51-1.48 1.51-1.48 3.85 0 2.32 1.51 3.8 1.51 1.46 3.88 1.46 2.36 0 3.85-1.48 1.51-1.49 1.51-3.81 0-2.3-1.56-3.81t-3.94-1.51zM111.499 354.52v2.06q2.14-2.37 4.87-2.37 1.51 0 2.81.79a5 5 0 0 1 1.97 2.14q.69 1.35.69 4.31v9.25h-3.2v-9.21q0-2.48-.76-3.53-.76-1.07-2.53-1.07-2.27 0-3.85 2.27v11.55h-3.27v-16.17zM137.099 346.14h3.22v24.56h-6.84q-3.59 0-5.73-2.27-2.13-2.27-2.13-6.08 0-3.57 2.23-5.87 2.25-2.3 5.73-2.3 1.62 0 3.52.69zm0 21.81V357.7q-1.49-.76-3.02-.76-2.39 0-3.81 1.56-1.41 1.56-1.41 4.22 0 2.5 1.23 3.85.74.81 1.56 1.09.83.28 2.97.28zM154.82 360.969v6.87q0 .83.56.83.58 0 1.81-.86v1.95q-1.09.7-1.76.95-.65.26-1.37.26-2.061 0-2.43-1.62-2.04 1.58-4.34 1.58-1.69 0-2.81-1.11-1.13-1.13-1.13-2.81 0-1.53 1.09-2.72 1.11-1.209 3.13-1.92l4.1-1.41v-.86q0-2.92-2.92-2.92-2.62 0-5.1 2.71v-3.5q1.86-2.2 5.36-2.2 2.619 0 4.2 1.37.53.44.95 1.18.42.72.53 1.46.12.72.12 2.76zm-3.15 6.52v-4.8l-2.14.83q-1.63.651-2.32 1.32-.67.65-.67 1.63 0 1 .63 1.63.65.63 1.67.63 1.53 0 2.83-1.25zM163.48 354.52v3.71l.18-.28q2.32-3.74 4.64-3.74 1.809 0 3.78 1.83l-1.69 2.81q-1.671-1.58-3.09-1.58-1.55 0-2.69 1.48-1.13 1.48-1.13 3.5v8.46h-3.22v-16.17zM185.279 354.52h3.6l-11.44 24.42h-3.57l5.5-11.71-6.26-12.71h3.64l4.36 9.12z"/><path fill="#3E2D1B" d="M91.34 391.63v-8.14h1.87q1.44 0 2.23.71.8.71.8 2 0 1.21-.76 1.99-.75.78-1.92.78-.52 0-1.14-.23v2.88zm1.85-7.14h-.76v3.32q.49.25 1.03.25.75 0 1.22-.52.48-.52.48-1.34 0-.53-.23-.93a1.37 1.37 0 0 0-.62-.59q-.39-.19-1.14-.19zM98.55 383.491v1.24l.06-.09q.77-1.25 1.55-1.25.6 0 1.26.61l-.56.94q-.56-.53-1.03-.53-.519 0-.9.49-.38.489-.38 1.17v2.82h-1.07v-5.39zM102.72 381.221q.26 0 .45.18t.19.45a.62.62 0 0 1-.19.45.62.62 0 0 1-.45.19.57.57 0 0 1-.43-.19.62.62 0 0 1-.19-.45.57.57 0 0 1 .19-.43.6.6 0 0 1 .43-.19zm-.53 2.27h1.07v5.39h-1.07zM107.371 383.48q1.23 0 2.04.8.81.79.81 1.99 0 1.17-.83 1.94t-2.08.77q-1.21 0-2.03-.78-.81-.79-.81-1.96 0-1.18.82-1.97.83-.79 2.07-.79zm-.06.96q-.771 0-1.26.5-.49.5-.49 1.28 0 .77.5 1.27.5.49 1.29.49t1.28-.49q.5-.5.5-1.27t-.52-1.27-1.31-.5zM112.57 383.491v1.24l.06-.09q.77-1.25 1.55-1.25.6 0 1.26.61l-.56.94q-.56-.53-1.03-.53-.52 0-.9.49-.38.489-.38 1.17v2.82h-1.07v-5.39zM116.729 381.221a.63.63 0 0 1 .45.18q.19.18.19.45a.62.62 0 0 1-.19.45.62.62 0 0 1-.45.19.57.57 0 0 1-.43-.19.62.62 0 0 1-.19-.45q0-.25.19-.43a.6.6 0 0 1 .43-.19zm-.53 2.27h1.07v5.39h-1.07zM118.051 384.34l2-1.97v1.11h1.71v.96h-1.71v2.64q0 .93.77.93.57 0 1.21-.39v1q-.62.35-1.34.35-.73 0-1.22-.43a1.3 1.3 0 0 1-.25-.29 1.5 1.5 0 0 1-.17-.42q-.06-.26-.06-1v-2.39h-.94zM126.111 383.49h1.2l-3.81 8.14h-1.19l1.83-3.9-2.09-4.24h1.21l1.45 3.04zM128.569 387.551q.3 0 .51.21t.21.51q0 .29-.21.5t-.51.21a.68.68 0 0 1-.5-.21.68.68 0 0 1-.21-.5q0-.3.21-.51t.5-.21m.09-4.17q.3 0 .51.21t.21.51q0 .29-.21.5t-.51.21a.68.68 0 0 1-.5-.21.68.68 0 0 1-.21-.5q0-.3.21-.51t.5-.21M134.49 380.69h1.17v8.19h-1.17z"/><path fill="#412818" d="M549.631 453.51v-16.35h5.52q3.34 0 5.29 1.01 1.95 1 3.09 2.94a8.2 8.2 0 0 1 1.15 4.24 8 8 0 0 1-.63 3.14q-.63 1.5-1.8 2.64-1.2 1.17-2.78 1.77-.93.36-1.7.49-.77.12-2.95.12zm5.27-14.26h-2.93v12.18h3q1.76 0 2.73-.23.97-.25 1.62-.61a6 6 0 0 0 1.2-.91q1.73-1.76 1.73-4.44 0-2.64-1.78-4.3a5.8 5.8 0 0 0-1.51-1.02 6.2 6.2 0 0 0-1.61-.53q-.76-.13-2.45-.13zM574.091 447.05v4.58q0 .55.38.55.39 0 1.21-.57v1.3q-.73.47-1.17.63-.43.18-.91.18-1.37 0-1.62-1.08-1.36 1.05-2.89 1.05-1.13 0-1.88-.74-.75-.75-.75-1.88 0-1.02.73-1.82.74-.81 2.09-1.28l2.73-.94v-.57q0-1.95-1.95-1.95-1.75 0-3.4 1.8v-2.33q1.24-1.46 3.57-1.46 1.75 0 2.8.91.35.29.63.79.28.48.35.97.08.48.08 1.84zm-2.1 4.35v-3.2l-1.43.55q-1.09.43-1.55.88-.45.43-.45 1.09 0 .67.42 1.09.43.42 1.11.42 1.02 0 1.89-.83zM576.07 444.46l4.01-3.94v2.23h3.41v1.92h-3.41v5.29q0 1.85 1.54 1.85 1.15 0 2.43-.77v1.99q-1.23.69-2.68.69-1.46 0-2.44-.86a2.7 2.7 0 0 1-.5-.57q-.2-.33-.34-.84-.13-.53-.13-1.99v-4.78h-1.88zM592.37 447.05v4.58q0 .55.38.55.39 0 1.21-.57v1.3q-.729.47-1.17.63-.43.18-.91.18-1.37 0-1.62-1.08-1.36 1.05-2.89 1.05-1.13 0-1.88-.74-.75-.75-.75-1.88 0-1.02.73-1.82.74-.81 2.09-1.28l2.73-.94v-.57q0-1.95-1.95-1.95-1.75 0-3.4 1.8v-2.33q1.24-1.46 3.57-1.46 1.75 0 2.8.91.351.29.63.79.28.48.35.97.08.48.08 1.84zm-2.1 4.35v-3.2l-1.43.55q-1.09.43-1.55.88-.45.43-.45 1.09 0 .67.42 1.09.43.42 1.11.42 1.02 0 1.89-.83zM616.921 449.74v2.58q-2.58 1.41-5.95 1.41-2.739 0-4.65-1.1a8.07 8.07 0 0 1-3.02-3.04 8.24 8.24 0 0 1-1.11-4.18q0-3.57 2.54-6.01 2.55-2.44 6.29-2.44 2.58 0 5.73 1.35v2.52q-2.87-1.64-5.61-1.64-2.81 0-4.68 1.78-1.85 1.77-1.85 4.44 0 2.7 1.83 4.43t4.68 1.73q2.98 0 5.81-1.83zM628.72 448.33h-7.58q.08 1.55 1.03 2.46.96.91 2.47.91 2.11 0 3.89-1.31v2.09a7 7 0 0 1-1.96.94q-.96.28-2.26.28-1.78 0-2.88-.74a5.5 5.5 0 0 1-1.77-1.98q-.66-1.25-.66-2.89 0-2.46 1.39-4 1.39-1.55 3.62-1.55 2.14 0 3.42 1.5t1.28 4.02zm-7.54-1.28h5.43q-.08-1.28-.76-1.97t-1.83-.69-1.89.69q-.73.69-.95 1.97M633.151 442.75v1.37q1.43-1.58 3.25-1.58 1.01 0 1.88.53.87.52 1.31 1.43.459.9.459 2.87v6.16h-2.13v-6.14q0-1.65-.5-2.36t-1.69-.71q-1.51 0-2.57 1.51v7.7h-2.18v-10.78zM641.512 444.46l4.01-3.94v2.23h3.41v1.92h-3.41v5.29q0 1.85 1.54 1.85 1.149 0 2.43-.77v1.99q-1.23.69-2.68.69-1.46 0-2.44-.86a2.7 2.7 0 0 1-.5-.57q-.2-.33-.34-.84-.13-.53-.13-1.99v-4.78h-1.88zM660.22 448.33h-7.58q.08 1.55 1.03 2.46.96.91 2.47.91 2.11 0 3.89-1.31v2.09a7 7 0 0 1-1.96.94q-.96.28-2.26.28-1.78 0-2.88-.74a5.5 5.5 0 0 1-1.77-1.98q-.66-1.25-.66-2.89 0-2.46 1.39-4 1.39-1.55 3.62-1.55 2.14 0 3.42 1.5t1.28 4.02zm-7.54-1.28h5.43q-.08-1.28-.76-1.97t-1.83-.69-1.89.69q-.73.69-.95 1.97M664.8 442.75v2.47l.12-.19q1.55-2.5 3.09-2.5 1.21 0 2.52 1.22l-1.13 1.88q-1.11-1.05-2.06-1.05-1.03 0-1.79.98-.75.98-.75 2.33v5.64h-2.14v-10.78zM682.12 451.27h6.23v2.26h-10.36v-.16l.98-1.16q2.31-2.86 3.67-4.85 1.37-1.99 1.78-3.01.42-1.02.42-2.02 0-1.38-.79-2.21-.79-.84-2.09-.84-.98 0-1.95.59-.95.57-1.71 1.63v-2.98q1.91-1.56 3.94-1.56 2.14 0 3.53 1.43t1.39 3.63q0 .98-.35 2.11-.34 1.11-1.22 2.58-.88 1.45-2.99 3.97z"/><path fill="#B2B2B2" d="M718.5 228.43c0-1.17-2.91-2.11-6.5-2.11H524.99c-3.59 0-6.5.95-6.5 2.11v60.78c0 1.17 2.91 2.11 6.5 2.11H712c3.59 0 6.5-.95 6.5-2.11z"/><path fill="#FFFFFE" d="m550.419 256.84-2.67-1.62q-2.51-1.53-3.59-3.01-1.05-1.49-1.05-3.43 0-2.901 2-4.71 2.02-1.81 5.24-1.81 3.081 0 5.64 1.72v3.99q-2.65-2.55-5.71-2.55-1.72 0-2.83.81-1.11.789-1.11 2.04 0 1.11.81 2.07.81.97 2.62 2.02l2.69 1.58q4.5 2.67 4.5 6.82 0 2.949-1.99 4.8-1.97 1.85-5.13 1.85-3.639 0-6.63-2.23v-4.46q2.85 3.6 6.59 3.6 1.65 0 2.74-.91 1.11-.93 1.11-2.32 0-2.25-3.23-4.25M574.21 259.329h-11.37q.12 2.32 1.55 3.69 1.44 1.37 3.71 1.37 3.16 0 5.84-1.97v3.13q-1.479.981-2.94 1.41-1.44.42-3.39.42-2.67 0-4.32-1.11t-2.65-2.97q-.98-1.88-.98-4.34 0-3.69 2.09-5.99 2.091-2.32 5.43-2.32 3.22 0 5.13 2.25 1.92 2.25 1.92 6.03zm-11.3-1.92h8.14q-.12-1.92-1.14-2.95-1.02-1.04-2.74-1.04t-2.83 1.04q-1.09 1.04-1.42 2.95zM589.78 263.359v3.16q-2.41.9-4.71.9-3.801 0-6.06-2.25-2.25-2.25-2.25-6.03 0-3.81 2.2-6.15t5.78-2.34q1.25 0 2.23.25.999.23 2.46.88v3.41q-2.43-1.55-4.5-1.55-2.16 0-3.55 1.53-1.39 1.51-1.39 3.87 0 2.48 1.49 3.94 1.51 1.46 4.06 1.46 1.85 0 4.24-1.07zM601.139 250.93q3.69 0 6.13 2.39 2.44 2.37 2.44 5.98 0 3.5-2.48 5.82-2.481 2.3-6.24 2.3-3.64 0-6.08-2.34-2.44-2.36-2.44-5.87 0-3.55 2.46-5.91 2.48-2.37 6.21-2.37m-.18 2.88q-2.301 0-3.78 1.51-1.48 1.51-1.48 3.85 0 2.32 1.51 3.8 1.51 1.46 3.88 1.46 2.36 0 3.85-1.48 1.51-1.491 1.51-3.81 0-2.301-1.56-3.81-1.56-1.51-3.94-1.51zM616.499 250.97v2.06q2.14-2.37 4.87-2.37 1.51 0 2.81.79a5 5 0 0 1 1.97 2.14q.69 1.35.69 4.31v9.25h-3.2v-9.21q0-2.48-.76-3.53-.76-1.07-2.53-1.07-2.27 0-3.85 2.27v11.55h-3.27v-16.17zM642.089 242.58h3.22v24.56h-6.84q-3.59 0-5.73-2.27-2.13-2.27-2.13-6.08 0-3.57 2.23-5.87 2.25-2.3 5.73-2.3 1.62 0 3.52.69zm0 21.81v-10.25q-1.49-.76-3.02-.76-2.39 0-3.81 1.56-1.41 1.56-1.41 4.22 0 2.5 1.23 3.85.741.81 1.56 1.09.831.28 2.97.28zM659.81 257.42v6.87q0 .83.56.83.58 0 1.81-.86v1.95q-1.09.7-1.76.95-.65.26-1.37.26-2.061 0-2.43-1.62-2.04 1.58-4.34 1.58-1.69 0-2.81-1.11-1.13-1.13-1.13-2.81 0-1.53 1.09-2.72 1.11-1.21 3.13-1.92l4.1-1.41v-.86q0-2.92-2.92-2.92-2.62 0-5.1 2.71v-3.5q1.86-2.2 5.36-2.2 2.619 0 4.2 1.37.53.44.95 1.18.42.72.53 1.46.12.72.12 2.76zm-3.15 6.52v-4.8l-2.14.83q-1.63.65-2.32 1.32-.67.65-.67 1.63 0 1 .63 1.63.65.63 1.67.63 1.53 0 2.83-1.25zM668.48 250.97v3.71l.18-.28q2.32-3.74 4.64-3.74 1.809 0 3.78 1.83l-1.69 2.81q-1.671-1.58-3.09-1.58-1.55 0-2.69 1.48-1.13 1.48-1.13 3.5v8.46h-3.22v-16.17zM690.279 250.97h3.6l-11.44 24.42h-3.57l5.5-11.71-6.26-12.71h3.64l4.36 9.12z"/><path fill="#000" d="M595.311 288.07v-8.14h1.87q1.44 0 2.23.71.8.71.8 2 0 1.21-.76 1.99-.75.78-1.92.78-.52 0-1.14-.23v2.88zm1.85-7.14h-.76v3.32q.49.25 1.03.25.75 0 1.22-.52.48-.52.48-1.34 0-.531-.23-.93a1.36 1.36 0 0 0-.62-.59q-.39-.19-1.14-.19zM602.519 279.93v1.24l.06-.09q.77-1.25 1.55-1.25.6 0 1.26.61l-.56.94q-.56-.53-1.03-.53-.519 0-.9.49-.38.49-.38 1.17v2.82h-1.07v-5.39zM606.69 277.66a.63.63 0 0 1 .45.18q.19.18.19.45a.62.62 0 0 1-.19.45.61.61 0 0 1-.45.19.57.57 0 0 1-.43-.19.62.62 0 0 1-.19-.45q0-.25.19-.43a.6.6 0 0 1 .43-.19zm-.53 2.27h1.07v5.39h-1.07zM611.339 279.92q1.23 0 2.04.8.81.79.81 1.99 0 1.17-.83 1.94t-2.08.77q-1.21 0-2.03-.78-.81-.79-.81-1.96 0-1.18.82-1.97.831-.79 2.07-.79zm-.06.96q-.77 0-1.26.5t-.49 1.28q0 .77.5 1.27.501.49 1.29.49.79 0 1.28-.49.5-.5.5-1.27t-.52-1.27-1.31-.5zM616.541 279.93v1.24l.06-.09q.77-1.25 1.55-1.25.6 0 1.26.61l-.56.94q-.56-.53-1.03-.53-.52 0-.9.49t-.38 1.17v2.82h-1.07v-5.39zM620.7 277.66q.26 0 .45.18t.19.45a.62.62 0 0 1-.19.45.62.62 0 0 1-.45.19.57.57 0 0 1-.43-.19.62.62 0 0 1-.19-.45.57.57 0 0 1 .19-.43.6.6 0 0 1 .43-.19zm-.53 2.27h1.07v5.39h-1.07zM622.02 280.79l2-1.97v1.11h1.709v.96h-1.709v2.64q0 .93.769.93.57 0 1.211-.39v1a2.7 2.7 0 0 1-1.341.35q-.73 0-1.219-.43a1.3 1.3 0 0 1-.25-.29 1.5 1.5 0 0 1-.17-.42q-.06-.26-.06-1v-2.39h-.94zM630.089 279.93h1.2l-3.81 8.14h-1.19l1.83-3.9-2.09-4.24h1.21l1.45 3.04zM632.54 283.99q.3 0 .51.21t.21.51q0 .29-.21.5t-.51.21a.68.68 0 0 1-.5-.21.68.68 0 0 1-.21-.5q0-.3.21-.51t.5-.21m.09-4.17q.3 0 .51.21t.21.51q0 .29-.21.5t-.51.21a.68.68 0 0 1-.5-.21.68.68 0 0 1-.21-.5q0-.3.21-.51t.5-.21M639.09 277.03q1.13 0 1.86 1.18.74 1.18.74 2.99 0 1.86-.74 3.03-.73 1.17-1.9 1.17-1.19 0-1.91-1.14t-.72-3.03q0-1.86.74-3.03t1.93-1.17m.01 1.11h-.06q-.67 0-1.07.83-.39.83-.39 2.24 0 1.45.39 2.28t1.07.83 1.07-.83.39-2.24q0-1.42-.38-2.27-.38-.84-1.01-.84z"/><path stroke="#3F2615" stroke-width="4" d="M508.141 190.67h221.71v230.57h-221.71z"/><path fill="#5A5955" d="M26 73.01c0 1.59 1.31 2.88 2.93 2.88h169.15c1.62 0 2.93-1.29 2.93-2.88V13.78c0-1.59-1.31-2.88-2.93-2.88H28.93c-1.62 0-2.93 1.29-2.93 2.88z"/><path fill="#FFFFFE" d="M67.01 55.5V30.98h8.28q5.01 0 7.93 1.51 2.92 1.491 4.64 4.41t1.72 6.36q0 2.46-.95 4.71a11.95 11.95 0 0 1-2.71 3.96 11.75 11.75 0 0 1-4.17 2.65q-1.39.54-2.55.74-1.16.18-4.43.18zm7.91-21.39h-4.39v18.26h4.5q2.64 0 4.1-.35 1.46-.37 2.43-.91a8.5 8.5 0 0 0 1.79-1.37q2.6-2.64 2.6-6.66 0-3.96-2.67-6.45a8.4 8.4 0 0 0-2.27-1.53q-1.27-.6-2.41-.79t-3.67-.19zM96.96 39.36v3.71l.18-.28q2.32-3.74 4.64-3.74 1.81 0 3.78 1.83l-1.69 2.81q-1.67-1.58-3.09-1.58-1.55 0-2.69 1.48-1.13 1.48-1.13 3.5v8.46h-3.22V39.36zM109.46 32.56q.789 0 1.35.54.56.54.56 1.34 0 .77-.56 1.34-.561.56-1.35.56-.74 0-1.3-.56-.56-.58-.56-1.34 0-.74.56-1.3.56-.58 1.3-.58m-1.58 6.8h3.2v16.17h-3.2zM125.58 39.36h3.46l-7.14 16.45h-1.07l-7.31-16.45h3.5l4.36 9.95zM144.509 47.73h-11.37q.12 2.32 1.55 3.69 1.44 1.37 3.71 1.37 3.16 0 5.84-1.97v3.13q-1.48.981-2.94 1.41-1.44.42-3.39.42-2.67 0-4.32-1.11t-2.65-2.97q-.98-1.88-.98-4.34 0-3.69 2.09-5.99 2.09-2.32 5.43-2.32 3.22 0 5.13 2.25 1.92 2.25 1.92 6.03zm-11.3-1.92h8.14q-.12-1.92-1.14-2.95-1.02-1.04-2.74-1.04t-2.83 1.04q-1.09 1.04-1.42 2.95zM151.4 39.36v3.71l.18-.28q2.32-3.74 4.64-3.74 1.809 0 3.78 1.83l-1.69 2.81q-1.671-1.58-3.09-1.58-1.55 0-2.69 1.48-1.13 1.48-1.13 3.5v8.46h-3.22V39.36z"/><path fill="#5A5955" d="M531.5 72.51c0 1.59 1.31 2.88 2.93 2.88h169.14c1.62 0 2.93-1.29 2.93-2.88V13.28c0-1.59-1.31-2.88-2.93-2.88H534.42c-1.62 0-2.93 1.29-2.93 2.88v59.23"/><path stroke="#B2B2B2" d="M531.5 72.51c0 1.59 1.31 2.88 2.93 2.88h169.14c1.62 0 2.93-1.29 2.93-2.88V13.28c0-1.59-1.31-2.88-2.93-2.88H534.42c-1.62 0-2.93 1.29-2.93 2.88v59.23"/><path fill="#FFFFFE" d="M571.27 55V30.48h8.279q5.01 0 7.93 1.51 2.92 1.491 4.641 4.41 1.72 2.92 1.72 6.36 0 2.46-.95 4.71a12 12 0 0 1-2.71 3.96 11.8 11.8 0 0 1-4.17 2.65q-1.39.54-2.55.74-1.16.18-4.43.18zm7.91-21.39h-4.391v18.26h4.5q2.64 0 4.101-.35 1.46-.37 2.43-.91a8.5 8.5 0 0 0 1.789-1.37q2.601-2.64 2.601-6.66 0-3.96-2.671-6.45a8.4 8.4 0 0 0-2.269-1.53q-1.27-.6-2.411-.79-1.14-.19-3.669-.19zM601.22 38.86v3.71l.18-.28q2.32-3.74 4.64-3.74 1.81 0 3.78 1.83l-1.69 2.81q-1.67-1.58-3.09-1.58-1.55 0-2.69 1.48-1.13 1.48-1.13 3.5v8.46H598V38.86zM613.719 32.06q.79 0 1.35.54t.56 1.34q0 .77-.56 1.34-.56.56-1.35.56-.74 0-1.3-.56-.56-.58-.56-1.34 0-.74.56-1.3.56-.58 1.3-.58m-1.58 6.8h3.2v16.17h-3.2zM629.839 38.86h3.46l-7.14 16.45h-1.07l-7.31-16.45h3.5l4.36 9.95zM648.769 47.23h-11.37q.12 2.32 1.55 3.69 1.44 1.37 3.71 1.37 3.16 0 5.84-1.97v3.13q-1.48.981-2.94 1.41-1.44.42-3.39.42-2.67 0-4.32-1.11t-2.65-2.97q-.98-1.88-.98-4.34 0-3.69 2.09-5.99 2.09-2.32 5.43-2.32 3.219 0 5.13 2.25 1.92 2.25 1.92 6.03zm-11.3-1.92h8.14q-.12-1.92-1.14-2.95-1.02-1.04-2.74-1.04t-2.83 1.04q-1.09 1.04-1.42 2.95zM655.659 38.86v3.71l.18-.28q2.32-3.74 4.64-3.74 1.81 0 3.78 1.83l-1.69 2.81q-1.67-1.58-3.09-1.58-1.55 0-2.69 1.48-1.13 1.48-1.13 3.5v8.46h-3.22V38.86z"/><path stroke="#5A5955" stroke-width="4" d="m618.99 88.06.02 122.6"/><path fill="#5A5955" stroke="#5A5955" stroke-width="4" d="m614.211 210.66 4.8 12.8 4.8-12.8z"/><path fill="#5A5955" d="M11.88 109.33V92.96h4.1q2.482 0 3.94 1.23 1.46 1.23 1.46 3.33 0 1.43-.71 2.47t-2.05 1.56q.79.52 1.54 1.41t2.11 3.11q.86 1.39 1.37 2.1l.86 1.16h-2.79l-.71-1.08-.14-.2-.46-.64-.73-1.2-.78-1.28q-.73-1.01-1.34-1.61-.599-.6-1.09-.86-.48-.27-1.63-.27h-.61v7.14zm3.05-14.38h-.7v5.17h.89q1.781 0 2.44-.3.671-.3 1.03-.91.38-.62.38-1.41 0-.77-.41-1.39a2.2 2.2 0 0 0-1.16-.89q-.738-.26-2.46-.26zM35.19 104.12h-7.58q.08 1.55 1.03 2.46.96.91 2.47.91 2.11 0 3.89-1.31v2.09a7 7 0 0 1-1.96.94q-.96.28-2.26.28-1.779 0-2.88-.74a5.5 5.5 0 0 1-1.77-1.98q-.66-1.25-.66-2.89 0-2.46 1.39-4 1.39-1.55 3.62-1.55 2.14 0 3.42 1.5t1.28 4.02zm-7.54-1.28h5.43q-.08-1.28-.76-1.97t-1.83-.69q-1.149 0-1.89.69-.73.69-.95 1.97M44.26 102.85v4.58q.001.55.38.55.39 0 1.21-.57v1.3q-.729.47-1.17.63-.43.18-.91.18-1.37 0-1.62-1.08-1.36 1.05-2.89 1.05-1.129 0-1.88-.74-.75-.75-.75-1.88 0-1.02.73-1.82.74-.81 2.09-1.28l2.73-.94v-.57q0-1.95-1.95-1.95-1.75 0-3.4 1.8V99.8q1.241-1.46 3.57-1.46 1.751 0 2.8.91.351.29.63.79.281.48.35.97.08.48.08 1.84m-2.1 4.34v-3.2l-1.43.56q-1.088.43-1.55.88-.45.43-.45 1.09 0 .67.42 1.09.431.42 1.11.42 1.02 0 1.89-.83zM54.951 92.96h2.14v16.37h-4.56q-2.39 0-3.82-1.51-1.42-1.51-1.42-4.05 0-2.38 1.49-3.91 1.5-1.54 3.82-1.54 1.08 0 2.34.46zm0 14.54v-6.83q-1-.5-2.02-.5-1.59 0-2.54 1.04-.94 1.04-.94 2.81 0 1.66.82 2.57.49.54 1.04.73t1.98.19zM80.11 98.55h2.29l-4.77 10.96h-.67L73.77 102l-3.14 7.51h-.7l-4.8-10.96h2.28l2.83 6.53 2.74-6.53h1.58l2.73 6.54zM84.99 94.01q.531 0 .9.36.38.36.38.89 0 .52-.38.89a1.23 1.23 0 0 1-.9.38q-.489 0-.87-.38a1.24 1.24 0 0 1-.38-.89q0-.49.38-.87.381-.39.87-.39zm-1.05 4.54h2.13v10.78h-2.13zM87.631 100.26l4.01-3.94v2.23h3.41v1.92h-3.41v5.29q0 1.85 1.54 1.85 1.15 0 2.43-.77v1.98q-1.24.69-2.7.69t-2.44-.86a2.4 2.4 0 0 1-.5-.57 3.1 3.1 0 0 1-.34-.84q-.13-.53-.13-1.99v-4.78h-1.88zM97.111 92.96h2.13v7.01q1.34-1.63 3.32-1.63 1.08 0 1.93.54.86.54 1.27 1.49.42.95.42 2.82v6.14h-2.13v-6.67q0-1.18-.59-1.9-.57-.73-1.52-.73-.699 0-1.32.36-.62.36-1.37 1.21v7.73h-2.13z"/><path stroke="#5A5955" stroke-width="4" d="M114 87.82v122.6"/><path fill="#5A5955" stroke="#5A5955" stroke-width="4" d="m109.199 210.42 4.8 12.8 4.8-12.8z"/><path fill="#5A5955" d="M122.68 109.56V93.19h4.1q2.48 0 3.94 1.23t1.46 3.33q0 1.43-.71 2.47t-2.05 1.56q.79.52 1.54 1.41t2.11 3.11a39 39 0 0 0 1.37 2.1l.86 1.16h-2.79l-.71-1.08-.14-.2-.46-.64-.73-1.2-.79-1.28q-.73-1.01-1.34-1.61-.6-.6-1.09-.86-.48-.27-1.63-.27h-.61v7.14zm3.05-14.38h-.7v5.17h.89q1.78 0 2.44-.3.67-.3 1.03-.91.38-.62.38-1.41 0-.77-.41-1.39a2.2 2.2 0 0 0-1.16-.89q-.741-.26-2.46-.26zM145.99 104.36h-7.58q.08 1.551 1.03 2.46.96.91 2.47.91 2.11 0 3.89-1.31v2.09q-.98.66-1.96.94-.96.28-2.26.28-1.78 0-2.88-.74a5.46 5.46 0 0 1-1.77-1.98q-.66-1.25-.66-2.89 0-2.46 1.39-4 1.39-1.55 3.62-1.55 2.139 0 3.42 1.5 1.28 1.5 1.28 4.02zm-7.54-1.28h5.43q-.08-1.28-.76-1.97-.681-.69-1.83-.69t-1.89.69q-.73.69-.95 1.97M155.06 103.081v4.58q0 .55.38.55.39 0 1.21-.57v1.3q-.73.47-1.17.63-.43.18-.91.18-1.371 0-1.62-1.08-1.36 1.05-2.89 1.05-1.13 0-1.88-.74-.75-.75-.75-1.88 0-1.02.73-1.82.74-.81 2.09-1.28l2.73-.94v-.57q0-1.95-1.95-1.95-1.75 0-3.4 1.8v-2.33q1.239-1.46 3.57-1.46 1.75 0 2.8.91.35.29.63.79.28.48.35.97.08.48.08 1.84zm-2.1 4.35v-3.2l-1.43.55q-1.09.43-1.55.88-.45.43-.45 1.09 0 .67.42 1.09.429.42 1.11.42 1.02 0 1.89-.83zM165.75 93.19h2.14v16.37h-4.56q-2.39 0-3.82-1.51-1.42-1.509-1.42-4.05 0-2.38 1.49-3.91 1.5-1.54 3.82-1.54 1.08 0 2.34.46zm0 14.54v-6.83q-1-.5-2.02-.5-1.59 0-2.54 1.04-.94 1.04-.94 2.81 0 1.66.82 2.57.49.54 1.04.73t1.98.19zM177.609 109.561v-16.39h5.19q2.34 0 3.74 1.27 1.39 1.27 1.39 3.4 0 1.43-.71 2.53a4.13 4.13 0 0 1-1.96 1.61q-1.24.49-3.56.49h-1.73v7.09zm4.78-14.31h-2.43v5.12h2.57q1.43 0 2.2-.67.77-.68.77-1.93 0-2.52-3.12-2.52zM191.96 98.78v2.471l.12-.19q1.551-2.5 3.09-2.5 1.21 0 2.52 1.22l-1.13 1.87q-1.11-1.05-2.06-1.05-1.03 0-1.79.98-.75.98-.75 2.33v5.65h-2.14v-10.78zM207.909 104.36h-7.58q.08 1.551 1.03 2.46.96.91 2.47.91 2.11 0 3.89-1.31v2.09q-.98.66-1.96.94-.96.28-2.26.28-1.779 0-2.88-.74a5.5 5.5 0 0 1-1.77-1.98q-.66-1.25-.66-2.89 0-2.46 1.39-4 1.39-1.55 3.62-1.55 2.14 0 3.42 1.5t1.28 4.02zm-7.54-1.28h5.43q-.08-1.28-.76-1.97t-1.83-.69-1.89.69q-.73.69-.95 1.97M210.45 98.78v-.64q0-2.6 1.1-3.88 1.11-1.28 2.66-1.28.67 0 1.58.21v2.09a2.9 2.9 0 0 0-.98-.19q-1.25 0-1.75.67-.48.67-.48 2.38v.64h1.92v1.92h-1.91v8.86h-2.14v-8.86h-1.55v-1.92zM225.159 104.36h-7.58q.08 1.551 1.03 2.46.96.91 2.47.91 2.11 0 3.89-1.31v2.09q-.98.66-1.96.94-.96.28-2.26.28-1.779 0-2.88-.74a5.5 5.5 0 0 1-1.77-1.98q-.66-1.25-.66-2.89 0-2.46 1.39-4 1.39-1.55 3.62-1.55 2.14 0 3.42 1.5t1.28 4.02zm-7.54-1.28h5.43q-.08-1.28-.76-1.97t-1.83-.69-1.89.69q-.73.69-.95 1.97M229.74 98.78v2.471l.12-.19q1.55-2.5 3.09-2.5 1.209 0 2.52 1.22l-1.13 1.87q-1.11-1.05-2.06-1.05-1.03 0-1.79.98-.75.98-.75 2.33v5.65h-2.14v-10.78zM245.691 104.36h-7.58q.08 1.551 1.03 2.46.96.91 2.47.91 2.11 0 3.89-1.31v2.09q-.98.66-1.96.94-.96.28-2.26.28-1.78 0-2.88-.74a5.46 5.46 0 0 1-1.77-1.98q-.66-1.25-.66-2.89 0-2.46 1.39-4 1.39-1.55 3.62-1.55 2.139 0 3.42 1.5 1.28 1.5 1.28 4.02zm-7.54-1.28h5.43q-.08-1.28-.76-1.97-.681-.69-1.83-.69t-1.89.69q-.73.69-.95 1.97M250.119 98.78v1.37q1.43-1.58 3.25-1.58 1.01 0 1.88.53a3.3 3.3 0 0 1 1.31 1.43q.46.9.46 2.87v6.16h-2.13v-6.14q0-1.65-.5-2.36t-1.69-.71q-1.51 0-2.57 1.51v7.7h-2.18V98.78zM268.071 107.04v2.11q-1.6.6-3.14.6-2.53 0-4.04-1.5-1.5-1.5-1.5-4.02 0-2.54 1.46-4.1t3.86-1.56q.83 0 1.49.16.67.15 1.64.59v2.27q-1.62-1.03-3-1.03-1.44 0-2.37 1.02-.93 1.011-.93 2.58 0 1.65 1 2.63 1.01.97 2.71.97 1.23 0 2.82-.71zM279.681 104.36h-7.58q.08 1.551 1.03 2.46.96.91 2.47.91 2.11 0 3.89-1.31v2.09q-.98.66-1.96.94-.96.28-2.26.28-1.78 0-2.88-.74a5.5 5.5 0 0 1-1.77-1.98q-.66-1.25-.66-2.89 0-2.46 1.39-4 1.39-1.55 3.62-1.55 2.14 0 3.42 1.5t1.28 4.02zm-7.54-1.28h5.43q-.08-1.28-.76-1.97t-1.83-.69-1.89.69q-.73.69-.95 1.97M126.95 120.98h1.32q-1.46 2.18-2.13 3.73-.66 1.55-1 3.55a23.6 23.6 0 0 0-.33 3.86q0 6.4 3.46 10.95h-1.32l-.36-.45q-1.32-1.59-1.97-2.61-.63-1.02-1.27-2.65a14.5 14.5 0 0 1-1.02-5.32q0-2.77 1.02-5.33 1.02-2.58 3.59-5.73zM137.291 121.19h2.14v16.37h-4.56q-2.39 0-3.82-1.51-1.42-1.509-1.42-4.05 0-2.38 1.49-3.91 1.5-1.54 3.82-1.54 1.08 0 2.34.46zm0 14.54v-6.83q-1-.5-2.02-.5-1.59 0-2.54 1.04-.94 1.04-.94 2.81 0 1.66.82 2.57.49.54 1.04.73t1.98.19zM151.521 132.36h-7.58q.08 1.551 1.03 2.46.96.91 2.47.91 2.11 0 3.89-1.31v2.09q-.98.66-1.96.94-.96.28-2.26.28-1.78 0-2.88-.74a5.46 5.46 0 0 1-1.77-1.98q-.66-1.25-.66-2.89 0-2.46 1.39-4 1.39-1.55 3.62-1.55 2.139 0 3.42 1.5 1.28 1.5 1.28 4.02zm-7.54-1.28h5.43q-.08-1.28-.76-1.97-.681-.69-1.83-.69t-1.89.69q-.73.69-.95 1.97M154.06 126.78v-.64q0-2.6 1.1-3.88 1.11-1.28 2.66-1.28.67 0 1.58.21v2.09a2.9 2.9 0 0 0-.98-.19q-1.25 0-1.75.67-.48.67-.48 2.38v.64h1.92v1.92h-1.92v8.86h-2.13v-8.86h-1.55v-1.92zM166.591 131.081v4.58q0 .55.38.55.39 0 1.21-.57v1.3q-.73.47-1.17.63-.43.18-.91.18-1.37 0-1.62-1.08-1.36 1.05-2.89 1.05-1.13 0-1.88-.74-.75-.75-.75-1.88 0-1.02.73-1.82.74-.81 2.09-1.28l2.73-.94v-.57q0-1.95-1.95-1.95-1.75 0-3.4 1.8v-2.33q1.24-1.46 3.57-1.46 1.75 0 2.8.91.35.29.63.79.28.48.35.97.08.48.08 1.84zm-2.1 4.35v-3.2l-1.43.55q-1.09.43-1.55.88-.45.43-.45 1.09 0 .67.42 1.09.43.42 1.11.42 1.02 0 1.89-.83zM176.951 137.56v-1.37a4.9 4.9 0 0 1-1.56 1.15q-.87.41-1.73.41-1.02 0-1.89-.5a3.4 3.4 0 0 1-1.3-1.38q-.43-.879-.43-2.91v-6.18h2.13v6.15q0 1.7.48 2.38.49.67 1.71.67 1.52 0 2.59-1.49v-7.71h2.13v10.78zM182.131 121.19h2.13v16.37h-2.13zM185.82 128.491l4.01-3.94v2.23h3.41v1.92h-3.41v5.29q0 1.85 1.54 1.85 1.15 0 2.43-.77v1.99q-1.23.69-2.68.69-1.46 0-2.44-.86a2.7 2.7 0 0 1-.5-.57q-.2-.33-.34-.84-.13-.53-.13-1.99v-4.78h-1.88zM195.441 143.06h-1.31q1.52-2.3 2.17-3.9.64-1.59.96-3.5.32-1.92.32-3.68 0-2.04-.37-3.95a17 17 0 0 0-1.1-3.62q-.73-1.719-1.97-3.42h1.31l.36.43q1.31 1.56 1.95 2.58t1.28 2.66a14.6 14.6 0 0 1 1.02 5.37q0 2.65-.93 5.1a16.4 16.4 0 0 1-1.16 2.43q-.69 1.21-2.52 3.52zM516.039 109.57V93.19h4.1q2.48 0 3.94 1.23t1.46 3.33q0 1.43-.71 2.47t-2.05 1.56q.79.52 1.54 1.41t2.11 3.11a39 39 0 0 0 1.37 2.1l.86 1.17h-2.79l-.71-1.08-.14-.2-.46-.65-.73-1.19-.78-1.28q-.73-1.01-1.34-1.61-.6-.6-1.09-.86-.48-.27-1.63-.27h-.61v7.14zm3.05-14.38h-.7v5.17h.89q1.78 0 2.44-.3.67-.3 1.03-.91.38-.62.38-1.41 0-.77-.41-1.39a2.2 2.2 0 0 0-1.16-.89q-.74-.26-2.46-.26zM539.349 104.36h-7.58q.08 1.551 1.03 2.46.96.91 2.47.91 2.11 0 3.89-1.31v2.09q-.98.66-1.96.94-.96.28-2.26.28-1.78 0-2.88-.74a5.5 5.5 0 0 1-1.77-1.98q-.66-1.25-.66-2.89 0-2.46 1.39-4 1.39-1.55 3.62-1.55 2.14 0 3.42 1.5t1.28 4.02zm-7.54-1.28h5.43q-.08-1.28-.76-1.97t-1.83-.69-1.89.69q-.73.69-.95 1.97M548.419 103.09v4.58q0 .55.38.55.39 0 1.21-.57v1.3q-.729.47-1.17.63-.44.17-.92.17-1.37 0-1.62-1.08-1.36 1.05-2.89 1.05-1.13 0-1.88-.74-.75-.75-.75-1.88 0-1.02.73-1.82.74-.81 2.09-1.28l2.73-.94v-.57q0-1.95-1.95-1.95-1.75 0-3.4 1.8v-2.3q1.24-1.46 3.57-1.46 1.75 0 2.8.91.351.29.63.79.28.48.35.97.08.48.08 1.84zm-2.1 4.34v-3.2l-1.43.55q-1.09.43-1.55.88-.45.43-.45 1.09 0 .67.42 1.09.43.42 1.11.42 1.02 0 1.89-.83zM559.109 93.19h2.14v16.38h-4.56q-2.39 0-3.82-1.51-1.42-1.509-1.42-4.05 0-2.38 1.49-3.91 1.5-1.54 3.82-1.54 1.08 0 2.34.46zm0 14.54v-6.83q-1-.5-2.02-.5-1.59 0-2.54 1.04-.94 1.04-.94 2.81 0 1.66.82 2.57.49.54 1.04.73t1.98.19zM584.269 98.78h2.28l-4.75 10.97h-.67l-3.2-7.51-3.14 7.51h-.69l-4.81-10.97h2.29l2.82 6.54 2.74-6.54h1.58l2.73 6.54zM589.158 94.25q.531 0 .9.36.38.36.38.89 0 .52-.38.89-.38.38-.9.38-.489 0-.87-.38-.38-.39-.38-.89 0-.489.38-.87.381-.39.87-.39zm-1.06 4.53h2.13v10.79h-2.13zM591.789 100.501l4.01-3.94v2.22h3.41v1.92h-3.41v5.29q0 1.85 1.54 1.85 1.15 0 2.43-.77v1.99q-1.24.69-2.69.69-1.46 0-2.44-.86a2.1 2.1 0 0 1-.5-.57 3.2 3.2 0 0 1-.34-.84q-.13-.53-.13-1.99v-4.78h-1.88zM601.27 93.19h2.13v7.01q1.34-1.63 3.32-1.63 1.08 0 1.93.54.86.54 1.27 1.49.42.951.42 2.82v6.15h-2.13v-6.67q0-1.18-.59-1.9-.57-.73-1.52-.73-.7 0-1.32.36t-1.37 1.21v7.73h-2.14zM624.6 109.32V92.95h4.1q2.48 0 3.94 1.23t1.46 3.33q0 1.43-.71 2.47t-2.05 1.56q.79.52 1.54 1.41t2.11 3.11a39 39 0 0 0 1.37 2.1l.86 1.16h-2.79l-.71-1.08-.14-.2-.46-.64-.73-1.2-.79-1.28q-.73-1.01-1.34-1.61-.6-.6-1.09-.86-.48-.27-1.63-.27h-.61v7.14zm3.05-14.38h-.7v5.17h.89q1.78 0 2.44-.3.67-.3 1.03-.91.38-.62.38-1.41 0-.77-.41-1.39a2.2 2.2 0 0 0-1.16-.89q-.741-.26-2.46-.26zM647.909 104.12h-7.58q.08 1.55 1.03 2.46.96.91 2.47.91 2.11 0 3.89-1.31v2.09a7 7 0 0 1-1.96.94q-.96.28-2.26.28-1.779 0-2.88-.74a5.5 5.5 0 0 1-1.77-1.98q-.66-1.25-.66-2.89 0-2.46 1.39-4 1.39-1.55 3.62-1.55 2.14 0 3.42 1.5t1.28 4.02zm-7.54-1.28h5.43q-.08-1.28-.76-1.97t-1.83-.69q-1.149 0-1.89.69-.73.69-.95 1.97M656.98 102.841v4.58q0 .55.38.55.39 0 1.21-.57v1.3q-.73.47-1.17.63-.43.18-.91.18-1.371 0-1.62-1.08-1.36 1.05-2.89 1.05-1.13 0-1.88-.74-.75-.75-.75-1.88 0-1.02.73-1.82.74-.81 2.09-1.28l2.73-.94v-.57q0-1.95-1.95-1.95-1.75 0-3.4 1.8v-2.33q1.239-1.46 3.57-1.46 1.75 0 2.8.91.35.29.63.79.28.48.35.97.08.48.08 1.84zm-2.1 4.35v-3.2l-1.43.55q-1.09.43-1.55.88-.45.43-.45 1.09 0 .67.42 1.09.429.42 1.11.42 1.02 0 1.89-.83zM667.67 92.95h2.14v16.37h-4.56q-2.39 0-3.82-1.51-1.42-1.509-1.42-4.05 0-2.38 1.49-3.91 1.5-1.54 3.82-1.54 1.08 0 2.34.46zm0 14.54v-6.83q-1-.5-2.02-.5-1.59 0-2.54 1.04-.94 1.04-.94 2.81 0 1.66.82 2.57.49.54 1.04.73.549.19 1.98.19zM679.529 109.321v-16.39h5.19q2.34 0 3.74 1.27 1.39 1.27 1.39 3.4 0 1.43-.71 2.53a4.13 4.13 0 0 1-1.96 1.61q-1.24.49-3.56.49h-1.73v7.09zm4.78-14.31h-2.43v5.12h2.57q1.43 0 2.2-.67.77-.68.77-1.93 0-2.52-3.12-2.52zM693.88 98.54v2.47l.12-.19q1.551-2.5 3.09-2.5 1.21 0 2.52 1.22l-1.13 1.87q-1.11-1.05-2.06-1.05-1.03 0-1.79.98-.75.98-.75 2.33v5.65h-2.14V98.54zM709.829 104.12h-7.58q.08 1.55 1.03 2.46.96.91 2.47.91 2.11 0 3.89-1.31v2.09a7 7 0 0 1-1.96.94q-.96.28-2.26.28-1.779 0-2.88-.74a5.5 5.5 0 0 1-1.77-1.98q-.66-1.25-.66-2.89 0-2.46 1.39-4 1.39-1.55 3.62-1.55 2.14 0 3.42 1.5t1.28 4.02zm-7.54-1.28h5.43q-.08-1.28-.76-1.97t-1.83-.69-1.89.69q-.73.69-.95 1.97M712.37 98.54v-.64q0-2.6 1.1-3.88 1.11-1.28 2.66-1.28.67 0 1.58.21v2.09a2.9 2.9 0 0 0-.98-.19q-1.25 0-1.75.67-.48.67-.48 2.38v.64h1.92v1.92h-1.91v8.86h-2.14v-8.86h-1.55v-1.92zM727.079 104.12h-7.58q.08 1.55 1.03 2.46.96.91 2.47.91 2.11 0 3.89-1.31v2.09a7 7 0 0 1-1.96.94q-.96.28-2.26.28-1.779 0-2.88-.74a5.5 5.5 0 0 1-1.77-1.98q-.66-1.25-.66-2.89 0-2.46 1.39-4 1.39-1.55 3.62-1.55 2.14 0 3.42 1.5t1.28 4.02zm-7.54-1.28h5.43q-.08-1.28-.76-1.97t-1.83-.69-1.89.69q-.73.69-.95 1.97M731.66 98.54v2.47l.12-.19q1.55-2.5 3.09-2.5 1.209 0 2.52 1.22l-1.13 1.87q-1.11-1.05-2.06-1.05-1.03 0-1.79.98-.75.98-.75 2.33v5.65h-2.14V98.54zM747.611 104.12h-7.58q.08 1.55 1.03 2.46.96.91 2.47.91 2.11 0 3.89-1.31v2.09q-.98.66-1.96.94-.96.28-2.26.28-1.78 0-2.88-.74a5.46 5.46 0 0 1-1.77-1.98q-.66-1.25-.66-2.89 0-2.46 1.39-4 1.39-1.55 3.62-1.55 2.139 0 3.42 1.5 1.28 1.5 1.28 4.02zm-7.54-1.28h5.43q-.08-1.28-.76-1.97-.681-.69-1.83-.69t-1.89.69q-.73.69-.95 1.97M752.039 98.54v1.37q1.43-1.58 3.25-1.58 1.01 0 1.88.53a3.3 3.3 0 0 1 1.31 1.43q.46.9.46 2.87v6.16h-2.13v-6.14q0-1.65-.5-2.36t-1.69-.71q-1.51 0-2.57 1.51v7.7h-2.18V98.54zM769.991 106.8v2.11q-1.6.6-3.14.6-2.53 0-4.04-1.5-1.5-1.5-1.5-4.02 0-2.54 1.46-4.1t3.86-1.56q.83 0 1.49.16.67.15 1.64.59v2.27q-1.62-1.03-3-1.03-1.44 0-2.37 1.02-.93 1.01-.93 2.58 0 1.65 1 2.63 1.01.97 2.71.97 1.23 0 2.82-.71zM781.601 104.12h-7.58q.08 1.55 1.03 2.46.96.91 2.47.91 2.11 0 3.89-1.31v2.09a7 7 0 0 1-1.96.94q-.96.28-2.26.28-1.78 0-2.88-.74a5.5 5.5 0 0 1-1.77-1.98q-.66-1.25-.66-2.89 0-2.46 1.39-4 1.39-1.55 3.62-1.55 2.14 0 3.42 1.5t1.28 4.02zm-7.54-1.28h5.43q-.08-1.28-.76-1.97t-1.83-.69-1.89.69q-.73.69-.95 1.97M628.87 120.74h1.32q-1.46 2.18-2.13 3.73-.66 1.55-1 3.55a23.6 23.6 0 0 0-.33 3.86q0 6.4 3.46 10.95h-1.32l-.36-.45q-1.32-1.59-1.97-2.61-.63-1.02-1.27-2.65a14.5 14.5 0 0 1-1.02-5.32q0-2.77 1.02-5.33 1.02-2.58 3.59-5.73zM634.15 126.54v1.37q1.43-1.58 3.25-1.58 1.01 0 1.88.53a3.3 3.3 0 0 1 1.31 1.43q.46.9.46 2.87v6.16h-2.13v-6.14q0-1.65-.5-2.36t-1.69-.71q-1.51 0-2.57 1.51v7.7h-2.18v-10.78zM653.21 132.12h-7.58q.08 1.55 1.03 2.46.96.91 2.47.91 2.11 0 3.89-1.31v2.09a7 7 0 0 1-1.96.94q-.96.28-2.26.28-1.779 0-2.88-.74a5.5 5.5 0 0 1-1.77-1.98q-.66-1.25-.66-2.89 0-2.46 1.39-4 1.39-1.55 3.62-1.55 2.14 0 3.42 1.5t1.28 4.02zm-7.54-1.28h5.43q-.08-1.28-.76-1.97t-1.83-.69q-1.149 0-1.89.69-.73.69-.95 1.97M662.28 130.841v4.58q0 .55.38.55.39 0 1.21-.57v1.3q-.729.47-1.17.63-.43.18-.91.18-1.37 0-1.62-1.08-1.36 1.05-2.89 1.05-1.13 0-1.88-.74-.75-.75-.75-1.88 0-1.02.73-1.82.74-.81 2.09-1.28l2.73-.94v-.57q0-1.95-1.95-1.95-1.75 0-3.4 1.8v-2.33q1.24-1.46 3.57-1.46 1.75 0 2.8.91.351.29.63.79.28.48.35.97.08.48.08 1.84zm-2.1 4.35v-3.2l-1.43.55q-1.09.43-1.55.88-.45.43-.45 1.09 0 .67.42 1.09.43.42 1.11.42 1.02 0 1.89-.83zM668.05 126.54v2.47l.12-.19q1.55-2.5 3.09-2.5 1.21 0 2.52 1.22l-1.13 1.88q-1.11-1.05-2.06-1.05-1.03 0-1.79.98-.75.98-.75 2.33v5.64h-2.14v-10.78zM683.999 132.12h-7.58q.08 1.55 1.03 2.46.96.91 2.47.91 2.11 0 3.89-1.31v2.09a7 7 0 0 1-1.96.94q-.96.28-2.26.28-1.779 0-2.88-.74a5.5 5.5 0 0 1-1.77-1.98q-.66-1.25-.66-2.89 0-2.46 1.39-4 1.39-1.55 3.62-1.55 2.14 0 3.42 1.5t1.28 4.02zm-7.54-1.28h5.43q-.08-1.28-.76-1.97t-1.83-.69q-1.149 0-1.89.69-.73.69-.95 1.97M685.77 136.55v-2.3q.9.63 1.84 1.03.95.39 1.59.39.67 0 1.15-.33t.48-.79q0-.47-.32-.77-.3-.32-1.34-.9-2.06-1.15-2.71-1.96-.63-.82-.63-1.78 0-1.24.96-2.03.97-.79 2.5-.79 1.58 0 3.25.89v2.11q-1.9-1.15-3.11-1.15-.62 0-1.01.27-.38.261-.38.69 0 .38.34.71.35.34 1.22.82l.76.43q2.7 1.52 2.7 3.37 0 1.32-1.04 2.18-1.03.84-2.66.84-.96 0-1.71-.2-.75-.21-1.89-.76zM694.02 128.251l4.01-3.94v2.23h3.41v1.92h-3.41v5.29q0 1.85 1.54 1.85 1.149 0 2.43-.77v1.99q-1.23.69-2.68.69-1.46 0-2.44-.86a2.7 2.7 0 0 1-.5-.57q-.2-.33-.34-.84-.13-.53-.13-1.99v-4.78h-1.88zM703.64 142.82h-1.31q1.52-2.3 2.17-3.9.64-1.59.96-3.5.32-1.92.32-3.68 0-2.04-.37-3.95a17 17 0 0 0-1.1-3.62q-.73-1.72-1.97-3.42h1.31l.36.43q1.31 1.56 1.95 2.58t1.28 2.66a14.6 14.6 0 0 1 1.02 5.37q0 2.65-.93 5.1a16.5 16.5 0 0 1-1.16 2.43q-.69 1.21-2.52 3.52z"/></svg>