<svg width="588" height="396" viewBox="0 0 588 396" fill="none" xmlns="http://www.w3.org/2000/svg">
<path d="M417.03 33.7931H334.924C324.104 33.793 313.724 38.0781 306.055 45.711C298.385 53.344 294.051 63.7036 294 74.5238V156.959C294.003 162.32 292.947 167.629 290.892 172.58C288.838 177.532 285.826 182.03 282.029 185.814C278.231 189.599 273.724 192.596 268.765 194.634C263.807 196.672 258.494 197.71 253.133 197.689H171.028C160.207 197.689 149.827 201.974 142.158 209.607C134.489 217.24 130.155 227.6 130.104 238.42V320.855C130.101 326.221 131.159 331.534 133.217 336.49C135.275 341.446 138.292 345.945 142.095 349.731C145.898 353.516 150.413 356.512 155.378 358.547C160.343 360.581 165.662 361.614 171.028 361.586H253.133C263.944 361.571 274.309 357.279 281.966 349.647C289.623 342.016 293.949 331.665 294 320.855V238.42C293.997 233.054 295.055 227.741 297.113 222.785C299.171 217.829 302.189 213.33 305.992 209.544C309.795 205.759 314.309 202.763 319.274 200.728C324.24 198.694 329.558 197.661 334.924 197.689H417.03C427.84 197.674 438.206 193.383 445.862 185.751C453.519 178.12 457.846 167.769 457.897 156.959V74.5238C457.846 63.7135 453.519 53.3626 445.862 45.7312C438.206 38.0999 427.84 33.8081 417.03 33.7931Z" fill="#00ED64"/>
<g clip-path="url(#clip0_98_18675)">
<path d="M169.654 215.531V269.985" stroke="black" stroke-width="0.844828" stroke-miterlimit="10" stroke-dasharray="1.69 1.69"/>
<path d="M374.446 105.213L279.616 269.496L404.695 341.68L474.416 221.02L456.052 152.356L374.446 105.213Z" fill="white" stroke="black" stroke-width="0.844828" stroke-miterlimit="10"/>
<path d="M474.416 221.02L456.052 152.356L430.943 195.902L474.416 221.02Z" fill="white" stroke="black" stroke-width="0.844828" stroke-linejoin="round"/>
<path d="M451.974 159.457L376.702 115.981L289.531 266.962L401.602 331.618L467.664 217.082L430.942 195.902L451.974 159.457Z" fill="#FFE212" stroke="black" stroke-width="0.844828" stroke-miterlimit="10"/>
<path d="M435.726 198.646L427.214 206.46L474.416 221.02L435.726 198.646Z" fill="black"/>
<path d="M439.803 180.427L378.741 145.177C377.547 144.472 377.121 142.998 377.826 141.797L377.966 141.518C378.671 140.324 380.144 139.898 381.345 140.603L442.478 175.854L439.803 180.427Z" fill="#FFEEA9" stroke="black" stroke-width="0.844828" stroke-miterlimit="10"/>
<path d="M416.377 193.583L367.198 165.162C366.004 164.457 365.578 162.984 366.284 161.783L366.423 161.503C367.129 160.309 368.602 159.883 369.803 160.589L418.981 189.01C420.175 189.715 420.601 191.188 419.896 192.389L419.756 192.669C419.051 193.793 417.578 194.219 416.377 193.583Z" fill="#FFEEA9" stroke="black" stroke-width="0.844828" stroke-miterlimit="10"/>
<path d="M434.106 233.471L354.33 187.39C353.135 186.684 352.71 185.211 353.415 184.01L353.554 183.73C354.26 182.536 355.733 182.11 356.934 182.816L436.71 228.897C437.904 229.602 438.33 231.076 437.625 232.277L437.485 232.556C436.78 233.75 435.307 234.176 434.106 233.471Z" fill="#FFEEA9" stroke="black" stroke-width="0.844828" stroke-miterlimit="10"/>
<path d="M408.424 278.009L328.648 231.928C327.454 231.222 327.028 229.749 327.733 228.548L327.873 228.268C328.578 227.074 330.051 226.648 331.252 227.354L411.028 273.435C412.222 274.14 412.648 275.614 411.943 276.815L411.803 277.094C411.098 278.288 409.555 278.714 408.424 278.009Z" fill="#FFEEA9" stroke="black" stroke-width="0.844828" stroke-miterlimit="10"/>
<path d="M421.23 255.775L341.454 209.693C340.26 208.988 339.834 207.515 340.539 206.314L340.678 206.034C341.384 204.84 342.857 204.414 344.058 205.12L423.834 251.201C425.028 251.906 425.454 253.379 424.749 254.581L424.609 254.86C423.974 256.054 422.431 256.41 421.23 255.775Z" fill="#FFEEA9" stroke="black" stroke-width="0.844828" stroke-miterlimit="10"/>
<path d="M395.555 300.313L315.779 254.231C314.585 253.526 314.159 252.053 314.864 250.852L315.004 250.572C315.709 249.378 317.182 248.952 318.383 249.658L398.159 295.739C399.353 296.444 399.779 297.917 399.074 299.119L398.934 299.398C398.229 300.592 396.756 300.948 395.555 300.313Z" fill="#FFEEA9" stroke="black" stroke-width="0.844828" stroke-miterlimit="10"/>
<path d="M292.911 68.8381L243.879 252.046L383.384 289.405L419.47 154.744L383.943 93.2579L292.911 68.8381Z" fill="white" stroke="black" stroke-width="0.844828" stroke-miterlimit="10"/>
<path d="M419.47 154.744L383.943 93.2579L370.997 141.797L419.47 154.744Z" fill="white" stroke="black" stroke-width="0.844828" stroke-linejoin="round"/>
<path d="M253.019 246.913L298.043 78.8309L381.904 101.205L370.997 141.651L411.733 152.768L377.616 280.257L253.019 246.913Z" fill="#B3FD34" stroke="black" stroke-width="0.844828" stroke-miterlimit="10"/>
<path d="M376.346 143.208L370.082 152.984L419.47 154.744L376.346 143.208Z" fill="black"/>
<path d="M375.571 124.563L307.4 106.267C306.066 105.918 305.291 104.577 305.64 103.244L305.71 102.964C306.059 101.631 307.4 100.856 308.733 101.205L376.904 119.5L375.571 124.563Z" fill="#00ED64" stroke="black" stroke-width="0.844828" stroke-miterlimit="10"/>
<path d="M356.299 143.278L301.422 128.571C300.089 128.222 299.314 126.881 299.663 125.548L299.733 125.268C300.082 123.934 301.422 123.159 302.756 123.509L357.632 138.215C358.966 138.564 359.741 139.905 359.392 141.238L359.322 141.518C358.973 142.852 357.632 143.627 356.299 143.278Z" fill="#00ED64" stroke="black" stroke-width="0.844828" stroke-miterlimit="10"/>
<path d="M383.803 177.257L294.81 153.41C293.476 153.061 292.701 151.72 293.05 150.386L293.12 150.107C293.469 148.773 294.81 147.998 296.144 148.347L385.137 172.194C386.47 172.544 387.245 173.884 386.896 175.218L386.826 175.497C386.477 176.831 385.067 177.606 383.803 177.257Z" fill="#00ED64" stroke="black" stroke-width="0.844828" stroke-miterlimit="10"/>
<path d="M370.438 226.928L281.445 203.081C280.112 202.731 279.337 201.391 279.686 200.057L279.756 199.778C280.105 198.444 281.445 197.669 282.779 198.018L371.842 221.865C373.176 222.214 373.951 223.555 373.602 224.889L373.532 225.168C373.113 226.502 371.772 227.277 370.438 226.928Z" fill="#00ED64" stroke="black" stroke-width="0.844828" stroke-miterlimit="10"/>
<path d="M377.121 202.096L288.128 178.249C286.794 177.9 286.019 176.559 286.368 175.225L286.438 174.946C286.787 173.612 288.128 172.837 289.461 173.186L378.454 197.033C379.788 197.382 380.563 198.723 380.214 200.057L380.144 200.336C379.795 201.67 378.454 202.445 377.121 202.096Z" fill="#00ED64" stroke="black" stroke-width="0.844828" stroke-miterlimit="10"/>
<path d="M363.826 251.766L274.833 227.919C273.499 227.57 272.724 226.229 273.073 224.896L273.143 224.616C273.492 223.282 274.833 222.507 276.166 222.857L365.16 246.704C366.493 247.053 367.268 248.394 366.919 249.727L366.849 250.007C366.5 251.34 365.16 252.116 363.826 251.766Z" fill="#00ED64" stroke="black" stroke-width="0.844828" stroke-miterlimit="10"/>
<path d="M206.592 54.4182V244.029H351.09V104.654L300.857 54.4182H206.592Z" fill="white" stroke="black" stroke-width="0.844828" stroke-miterlimit="10"/>
<path d="M351.09 104.654L300.857 54.4182V104.654H351.09Z" fill="white" stroke="black" stroke-width="0.844828" stroke-linejoin="round"/>
<path d="M300.857 62.5813H213.98V236.851H343.353V104.654H300.857V62.5813Z" fill="#FFE212" stroke="black" stroke-width="0.844828" stroke-miterlimit="10"/>
<path d="M306.415 104.654L302.903 115.701L351.09 104.654H306.415Z" fill="black"/>
<path d="M300.857 86.7847H230.298C228.964 86.7847 227.833 85.6604 227.833 84.3197V83.9705C227.833 82.6367 228.957 81.5055 230.298 81.5055H300.857V86.7847Z" fill="#FFEEA9" stroke="black" stroke-width="0.844828" stroke-miterlimit="10"/>
<path d="M287.143 109.857H230.298C228.964 109.857 227.833 108.732 227.833 107.392V107.042C227.833 105.709 228.957 104.577 230.298 104.577H287.143C288.477 104.577 289.608 105.702 289.608 107.042V107.392C289.608 108.802 288.484 109.857 287.143 109.857Z" fill="#FFEEA9" stroke="black" stroke-width="0.844828" stroke-miterlimit="10"/>
<path d="M322.461 135.61H230.298C228.964 135.61 227.833 134.486 227.833 133.145V132.796C227.833 131.462 228.957 130.331 230.298 130.331H322.461C323.795 130.331 324.926 131.455 324.926 132.796V133.145C324.926 134.479 323.802 135.61 322.461 135.61Z" fill="#FFEEA9" stroke="black" stroke-width="0.844828" stroke-miterlimit="10"/>
<path d="M322.461 187.04H230.298C228.964 187.04 227.833 185.916 227.833 184.575V184.226C227.833 182.892 228.957 181.761 230.298 181.761H322.461C323.795 181.761 324.926 182.886 324.926 184.226V184.575C324.926 185.909 323.802 187.04 322.461 187.04Z" fill="#FFEEA9" stroke="black" stroke-width="0.844828" stroke-miterlimit="10"/>
<path d="M278.98 161.287H230.298C228.964 161.287 227.833 160.163 227.833 158.822V158.543C227.833 157.209 228.957 156.078 230.298 156.078H278.98C280.314 156.078 281.445 157.202 281.445 158.543V158.892C281.515 160.225 280.391 161.287 278.98 161.287Z" fill="#FFEEA9" stroke="black" stroke-width="0.844828" stroke-miterlimit="10"/>
<path d="M322.461 161.287H296.36C295.026 161.287 293.895 160.163 293.895 158.822V158.543C293.895 157.209 295.019 156.078 296.36 156.078H322.461C323.795 156.078 324.926 157.202 324.926 158.543V158.892C324.926 160.225 323.802 161.287 322.461 161.287Z" fill="#FFEEA9" stroke="black" stroke-width="0.844828" stroke-miterlimit="10"/>
<path d="M256.399 212.717H230.298C228.964 212.717 227.833 211.593 227.833 210.252V209.903C227.833 208.569 228.957 207.438 230.298 207.438H256.399C257.732 207.438 258.864 208.562 258.864 209.903V210.252C258.864 211.663 257.739 212.717 256.399 212.717Z" fill="#FFEEA9" stroke="black" stroke-width="0.844828" stroke-miterlimit="10"/>
<path d="M322.461 212.717H271.034C269.701 212.717 268.569 211.593 268.569 210.252V209.903C268.569 208.569 269.694 207.438 271.034 207.438H322.461C323.795 207.438 324.926 208.562 324.926 209.903V210.252C324.926 211.663 323.802 212.717 322.461 212.717Z" fill="#FFEEA9" stroke="black" stroke-width="0.844828" stroke-miterlimit="10"/>
<path d="M450.85 140.044C451.059 139.905 451.269 139.765 451.415 139.625" stroke="black" stroke-width="0.844828" stroke-miterlimit="10" stroke-dasharray="1.69 1.69"/>
<path d="M452.54 138.773C460.416 132.16 461.617 120.198 452.959 108.453C443.106 95.3667 444.586 84.1799 450.78 78.5515" stroke="black" stroke-width="0.844828" stroke-miterlimit="10" stroke-dasharray="1.69 1.69"/>
<path d="M451.269 78.1255C451.478 77.9859 451.618 77.8462 451.834 77.7065" stroke="black" stroke-width="0.844828" stroke-miterlimit="10" stroke-dasharray="1.69 1.69"/>
<path d="M206.592 208.709L253.655 188.8L260.616 171.629L236.561 114.857L210.879 125.687L206.592 115.625V208.709Z" fill="black"/>
<path d="M113.654 160.372L120.622 143.208L212.29 104.368L236.352 161.147L229.453 178.312L137.716 217.151L113.654 160.372Z" fill="#B3FD34" stroke="black" stroke-width="0.844828" stroke-miterlimit="10"/>
<path d="M205.41 121.503L113.675 160.35L137.732 217.168L229.467 178.321L205.41 121.503Z" fill="#B3FD34" stroke="black" stroke-width="0.844828" stroke-miterlimit="10"/>
<path d="M212.29 104.368L205.391 121.539" stroke="black" stroke-width="0.844828" stroke-miterlimit="10"/>
<path d="M178.522 172.055L182.67 181.908L172.398 186.272L168.251 176.419C164.173 176 160.444 173.465 158.684 169.38C156.15 163.473 158.964 156.643 164.878 154.115C170.785 151.58 177.614 154.395 180.142 160.309C181.832 164.387 181.057 168.822 178.522 172.062V172.055Z" fill="white" stroke="black" stroke-width="0.844828" stroke-miterlimit="10"/>
<path d="M163.468 167.341C165.157 171.419 168.956 173.954 173.034 174.38L177.181 184.233L172.398 186.272L168.251 176.419C164.173 176 160.444 173.465 158.684 169.38C156.15 163.473 158.964 156.643 164.878 154.115C165.723 153.766 166.568 153.55 167.413 153.34C163.049 156.503 161.289 162.278 163.475 167.341H163.468Z" fill="black"/>
<path d="M175.638 89.2426C168.956 73.4818 150.801 66.0938 134.979 72.7766C119.212 79.4663 111.824 97.6851 118.514 113.446L132.095 145.456C132.8 147.076 136.103 147.146 139.552 145.736C143.002 144.255 145.25 141.797 144.545 140.177L130.964 108.167C127.235 99.3052 131.383 89.0331 140.251 85.3042C149.111 81.5752 159.383 85.6533 163.188 94.5218L176.769 126.532C177.475 128.152 180.777 128.222 184.227 126.811C187.676 125.331 189.925 122.873 189.219 121.253L175.638 89.2426Z" fill="#B3FD34" stroke="black" stroke-width="0.844828" stroke-miterlimit="10"/>
<path d="M170.213 276.431L175.38 285.39L180.554 294.349H170.213H159.865L165.039 285.39L170.213 276.431Z" fill="white" stroke="black" stroke-width="0.844828" stroke-linecap="round" stroke-linejoin="round"/>
<path d="M170.213 288.043L159.865 294.349H180.554L170.213 288.043Z" fill="black"/>
<path d="M170.213 288.043V276.431" stroke="black" stroke-width="0.844828" stroke-linecap="round" stroke-linejoin="round"/>
<path d="M462.818 78.9775C468.417 78.9775 472.957 74.438 472.957 68.8381C472.957 63.2383 468.417 58.6987 462.818 58.6987C457.218 58.6987 452.679 63.2383 452.679 68.8381C452.679 74.438 457.218 78.9775 462.818 78.9775Z" fill="white" stroke="black" stroke-width="0.844828" stroke-linecap="round" stroke-linejoin="round"/>
<path d="M457.106 77.2178C458.733 78.3281 460.695 78.9775 462.811 78.9775C468.411 78.9775 472.95 74.4385 472.95 68.8381C472.95 66.7222 472.3 64.76 471.19 63.1329C467.615 68.8171 462.79 73.6424 457.106 77.2178Z" fill="black" stroke="black" stroke-width="0.844828" stroke-linecap="round" stroke-linejoin="round"/>
</g>
<defs>
<clipPath id="clip0_98_18675">
<rect width="361.586" height="288.086" fill="white" transform="translate(113.207 54.069)"/>
</clipPath>
</defs>
</svg>
