<svg xmlns="http://www.w3.org/2000/svg" xmlns:xlink="http://www.w3.org/1999/xlink" xmlns:lucid="lucid" width="4572.38" height="2034.51"><g transform="translate(6400.5 -9045.99)" lucid:page-tab-id="0_0"><path d="M-6500 9000h5000v2500h-5000z" fill="#fff"/><path d="M-5780 9052a6 6 0 0 1 6-6h215.72a6 6 0 0 1 6 6v65.63a6 6 0 0 1-6 6H-5774a6 6 0 0 1-6-6z" fill="none"/><use xlink:href="#a" transform="matrix(1,0,0,1,-5775,9050.99) translate(0 53.52)"/><use xlink:href="#b" transform="matrix(1,0,0,1,-5775,9050.99) translate(86.61333333333334 53.52)"/><path d="M-3934.6 9406a6 6 0 0 1 6-6h323.6a6 6 0 0 1 6 6v65.64a6 6 0 0 1-6 6h-323.6a6 6 0 0 1-6-6z" fill="none"/><use xlink:href="#c" transform="matrix(1,0,0,1,-3929.595940259246,9405) translate(0 53.52)"/><use xlink:href="#d" transform="matrix(1,0,0,1,-3929.595940259246,9405) translate(213.7066666666667 53.52)"/><path d="M-2408.62 9052a6 6 0 0 1 6-6h133.53a6 6 0 0 1 6 6v65.63a6 6 0 0 1-6 6h-133.52a6 6 0 0 1-6-6z" fill="none"/><use xlink:href="#e" transform="matrix(1,0,0,1,-2403.616722999947,9050.99) translate(0 53.52)"/><path d="M-5600 10102v76M-5600 10102v-.5M-5600 10178v.5" stroke="#3a414a" fill="none"/><path d="M-6400 9120h1600v750.27h-1600V9120z" stroke="#001e2b" fill-opacity="0"/><path d="M-6400 9870.27h1600v26.4h-1600v-26.4z" stroke="#000" stroke-opacity="0" fill="#001e2b"/><path d="M-6400 9870.27h1600v26.4h-1600v-26.4zM-4274.6 9480h1120v1545.6h-1120V9480z" stroke="#001e2b" fill-opacity="0"/><path d="M-4274.6 11025.6h1120v54.4h-1120v-54.4z" stroke="#000" stroke-opacity="0" fill="#001e2b"/><path d="M-4274.6 11025.6h1120v54.4h-1120v-54.4zM-2750.83 9120h922.2v811.44h-922.2V9120z" stroke="#001e2b" fill-opacity="0"/><path d="M-2750.83 9931.44h922.2V9960h-922.2v-28.56z" stroke="#000" stroke-opacity="0" fill="#001e2b"/><path d="M-2750.83 9931.44h922.2V9960h-922.2v-28.56z" stroke="#001e2b" fill-opacity="0"/><path d="M-6300 9200h747.72v236.08H-6300V9200z" stroke="#000" stroke-opacity="0" fill="#f9ebff"/><path d="M-6300 9200h747.72v236.08H-6300V9200z" stroke="#001e2b" fill-opacity="0"/><path d="M-6191.6 9289a6 6 0 0 1 6-6h546.93a6 6 0 0 1 6 6v64.67a6 6 0 0 1-6 6h-546.92a6 6 0 0 1-6-6z" fill="none"/><use xlink:href="#f" transform="matrix(1,0,0,1,-6186.591111111111,9287.995) translate(0 53.5)"/><use xlink:href="#g" transform="matrix(1,0,0,1,-6186.591111111111,9287.995) translate(270.08 53.5)"/><use xlink:href="#h" transform="matrix(1,0,0,1,-6186.591111111111,9287.995) translate(391.73333333333335 53.5)"/><use xlink:href="#i" transform="matrix(1,0,0,1,-6186.591111111111,9287.995) translate(458.93333333333334 53.5)"/><path d="M-5620 9561.96h740v236.08h-740v-236.08z" stroke="#000" stroke-opacity="0" fill="#f9ebff"/><path d="M-5620 9561.96h740v236.08h-740v-236.08z" stroke="#001e2b" fill-opacity="0"/><path d="M-5577.09 9646a6 6 0 0 1 6.02-6h642.16a6 6 0 0 1 6 6v64.68a6 6 0 0 1-6 6h-642.16a6 6 0 0 1-6-6z" fill="none"/><use xlink:href="#j" transform="matrix(1,0,0,1,-5572.085,9645) translate(0 53.5)"/><use xlink:href="#k" transform="matrix(1,0,0,1,-5572.085,9645) translate(87.52000000000001 53.5)"/><use xlink:href="#l" transform="matrix(1,0,0,1,-5572.085,9645) translate(232.9066666666667 53.5)"/><use xlink:href="#h" transform="matrix(1,0,0,1,-5572.085,9645) translate(372.80000000000007 53.5)"/><use xlink:href="#m" transform="matrix(1,0,0,1,-5572.085,9645) translate(440.00000000000006 53.5)"/><path d="M-4181.63 9560h810v240h-810v-240z" stroke="#000" stroke-opacity="0" fill="#f9ebff"/><path d="M-4181.63 9560h810v240h-810v-240z" stroke="#001e2b" fill-opacity="0"/><path d="M-4037.9 9607.66a6 6 0 0 1 6-6h522.43a6 6 0 0 1 6 6v144.68a6 6 0 0 1-6 6h-522.44a6 6 0 0 1-6-6z" fill="none"/><use xlink:href="#n" transform="matrix(1,0,0,1,-4032.9076069259127,9606.661666666667) translate(0 53.49999999999999)"/><use xlink:href="#o" transform="matrix(1,0,0,1,-4032.9076069259127,9606.661666666667) translate(139.62666666666667 53.49999999999999)"/><use xlink:href="#p" transform="matrix(1,0,0,1,-4032.9076069259127,9606.661666666667) translate(304.53333333333336 53.49999999999999)"/><use xlink:href="#q" transform="matrix(1,0,0,1,-4032.9076069259127,9606.661666666667) translate(0 133.5)"/><use xlink:href="#r" transform="matrix(1,0,0,1,-4032.9076069259127,9606.661666666667) translate(67.2 133.5)"/><path d="M-4181.63 9920h810v240h-810v-240z" stroke="#000" stroke-opacity="0" fill="#f9ebff"/><path d="M-4181.63 9920h810v240h-810v-240z" stroke="#001e2b" fill-opacity="0"/><path d="M-4181.63 10700h810v240h-810v-240z" stroke="#000" stroke-opacity="0" fill="#f9ebff"/><path d="M-4181.63 10700h810v240h-810v-240z" stroke="#001e2b" fill-opacity="0"/><path d="M-4029.74 9966a6 6 0 0 1 6-6h494.22a6 6 0 0 1 6 6v144.68a6 6 0 0 1-6 6h-494.22a6 6 0 0 1-6-6z" fill="none"/><use xlink:href="#s" transform="matrix(1,0,0,1,-4024.7396439629492,9965) translate(0 53.49999999999999)"/><use xlink:href="#h" transform="matrix(1,0,0,1,-4024.7396439629492,9965) translate(142.72 53.49999999999999)"/><use xlink:href="#t" transform="matrix(1,0,0,1,-4024.7396439629492,9965) translate(209.92000000000002 53.49999999999999)"/><use xlink:href="#u" transform="matrix(1,0,0,1,-4024.7396439629492,9965) translate(0 133.5)"/><use xlink:href="#v" transform="matrix(1,0,0,1,-4024.7396439629492,9965) translate(59.46666666666667 133.5)"/><use xlink:href="#w" transform="matrix(1,0,0,1,-4024.7396439629492,9965) translate(107.46666666666667 133.5)"/><use xlink:href="#x" transform="matrix(1,0,0,1,-4024.7396439629492,9965) translate(357.38666666666666 133.5)"/><path d="M-4100 10787.66a6 6 0 0 1 6-6h615.82a6 6 0 0 1 6 6v64.68a6 6 0 0 1-6 6H-4094a6 6 0 0 1-6-6z" fill="none"/><use xlink:href="#y" transform="matrix(1,0,0,1,-4095,10786.661666666667) translate(0 53.5)"/><use xlink:href="#z" transform="matrix(1,0,0,1,-4095,10786.661666666667) translate(192.26666666666668 53.5)"/><use xlink:href="#A" transform="matrix(1,0,0,1,-4095,10786.661666666667) translate(432.85333333333335 53.5)"/><use xlink:href="#B" transform="matrix(1,0,0,1,-4095,10786.661666666667) translate(492.32000000000005 53.5)"/><path d="M-2688.62 9200h800v240h-800v-240z" stroke="#000" stroke-opacity="0" fill="#f9ebff"/><path d="M-2688.62 9200h800v240h-800v-240z" stroke="#001e2b" fill-opacity="0"/><path d="M-2512.6 9248.64a6 6 0 0 1 6-6h465.8a6 6 0 0 1 6 6v144.67a6 6 0 0 1-6 6h-465.8a6 6 0 0 1-6-6z" fill="none"/><use xlink:href="#C" transform="matrix(1,0,0,1,-2507.58468596291,9247.636999999999) translate(0 53.49999999999999)"/><use xlink:href="#D" transform="matrix(1,0,0,1,-2507.58468596291,9247.636999999999) translate(140.42666666666668 53.49999999999999)"/><use xlink:href="#E" transform="matrix(1,0,0,1,-2507.58468596291,9247.636999999999) translate(329.38666666666666 53.49999999999999)"/><use xlink:href="#F" transform="matrix(1,0,0,1,-2507.58468596291,9247.636999999999) translate(0 133.5)"/><use xlink:href="#G" transform="matrix(1,0,0,1,-2507.58468596291,9247.636999999999) translate(34.02666666666667 133.5)"/><use xlink:href="#h" transform="matrix(1,0,0,1,-2507.58468596291,9247.636999999999) translate(112.48000000000002 133.5)"/><use xlink:href="#H" transform="matrix(1,0,0,1,-2507.58468596291,9247.636999999999) translate(179.68 133.5)"/><path d="M-2688.62 9600h800v240h-800v-240z" stroke="#000" stroke-opacity="0" fill="#f9ebff"/><path d="M-2688.62 9600h800v240h-800v-240z" stroke="#001e2b" fill-opacity="0"/><path d="M-2570.83 9649.32a6 6 0 0 1 6-6H-1985a6 6 0 0 1 6 6V9794a6 6 0 0 1-6 6h-579.83a6 6 0 0 1-6-6z" fill="none"/><g><use xlink:href="#C" transform="matrix(1,0,0,1,-2565.8333499999844,9648.323333333334) translate(0 53.49999999999999)"/><use xlink:href="#I" transform="matrix(1,0,0,1,-2565.8333499999844,9648.323333333334) translate(140.42666666666668 53.49999999999999)"/><use xlink:href="#J" transform="matrix(1,0,0,1,-2565.8333499999844,9648.323333333334) translate(321.12 53.49999999999999)"/><use xlink:href="#K" transform="matrix(1,0,0,1,-2565.8333499999844,9648.323333333334) translate(472.5866666666667 53.49999999999999)"/><use xlink:href="#L" transform="matrix(1,0,0,1,-2565.8333499999844,9648.323333333334) translate(0 133.5)"/><use xlink:href="#A" transform="matrix(1,0,0,1,-2565.8333499999844,9648.323333333334) translate(198.4 133.5)"/><use xlink:href="#M" transform="matrix(1,0,0,1,-2565.8333499999844,9648.323333333334) translate(257.8666666666667 133.5)"/></g><path d="M-5546.78 9318.04h34.02a.98.98 0 0 1 .98.98.98.98 0 0 0 .98.98h2793.7" stroke="#3a414a" stroke-width="10" fill="none"/><path d="M-5546.65 9323.02h-5.13v-9.95h5.13z" stroke="#3a414a" stroke-width=".05" fill="#3a414a"/><path d="M-2699.12 9320l-13 7.5v-15z" stroke="#3a414a" stroke-width="10" fill="#3a414a"/><path d="M-3963.45 9212.32a6 6 0 0 1 6-6h373.53a6 6 0 0 1 6 6V9277a6 6 0 0 1-6 6h-373.53a6 6 0 0 1-6-6z" fill="none"/><g><use xlink:href="#N" transform="matrix(1,0,0,1,-3958.4542735925793,9211.318333333335) translate(0 53.5)"/><use xlink:href="#g" transform="matrix(1,0,0,1,-3958.4542735925793,9211.318333333335) translate(81.33333333333334 53.5)"/><use xlink:href="#h" transform="matrix(1,0,0,1,-3958.4542735925793,9211.318333333335) translate(202.98666666666668 53.5)"/><use xlink:href="#O" transform="matrix(1,0,0,1,-3958.4542735925793,9211.318333333335) translate(270.18666666666667 53.5)"/></g><path d="M-5926.14 9441.58V9674a6 6 0 0 0 6 6h271.65" stroke="#3a414a" stroke-width="10" fill="none"/><path d="M-5921.17 9441.7h-9.95v-5.12h9.95z" stroke="#3a414a" stroke-width=".05" fill="#3a414a"/><path d="M-5630.5 9680l-13 7.5v-15z" stroke="#3a414a" stroke-width="10" fill="#3a414a"/><path d="M-6060 9729.32a6 6 0 0 1 6-6h373.53a6 6 0 0 1 6 6V9794a6 6 0 0 1-6 6H-6054a6 6 0 0 1-6-6z" fill="none"/><g><use xlink:href="#N" transform="matrix(1,0,0,1,-6055,9728.323333333334) translate(0 53.5)"/><use xlink:href="#g" transform="matrix(1,0,0,1,-6055,9728.323333333334) translate(81.33333333333334 53.5)"/><use xlink:href="#h" transform="matrix(1,0,0,1,-6055,9728.323333333334) translate(202.98666666666668 53.5)"/><use xlink:href="#O" transform="matrix(1,0,0,1,-6055,9728.323333333334) translate(270.18666666666667 53.5)"/></g><path d="M-4874.5 9680h664.38" stroke="#3a414a" stroke-width="10" fill="none"/><path d="M-4874.37 9684.98h-5.13v-9.95h5.13z" stroke="#3a414a" stroke-width=".05" fill="#3a414a"/><path d="M-4192.13 9680l-13 7.5v-15z" stroke="#3a414a" stroke-width="10" fill="#3a414a"/><path d="M-4755.77 9746a6 6 0 0 1 6-6h424.94a6 6 0 0 1 6 6v304.68a6 6 0 0 1-6 6h-424.94a6 6 0 0 1-6-6z" fill="none"/><g><use xlink:href="#P" transform="matrix(1,0,0,1,-4750.76963679629,9745) translate(0 53.50000000000002)"/><use xlink:href="#Q" transform="matrix(1,0,0,1,-4750.76963679629,9745) translate(77.54666666666667 53.50000000000002)"/><use xlink:href="#R" transform="matrix(1,0,0,1,-4750.76963679629,9745) translate(0 133.50000000000003)"/><use xlink:href="#S" transform="matrix(1,0,0,1,-4750.76963679629,9745) translate(227.9466666666667 133.50000000000003)"/><use xlink:href="#T" transform="matrix(1,0,0,1,-4750.76963679629,9745) translate(0 213.50000000000003)"/><use xlink:href="#U" transform="matrix(1,0,0,1,-4750.76963679629,9745) translate(164.9066666666667 213.50000000000003)"/><use xlink:href="#q" transform="matrix(1,0,0,1,-4750.76963679629,9745) translate(0 293.5)"/><use xlink:href="#V" transform="matrix(1,0,0,1,-4750.76963679629,9745) translate(67.2 293.5)"/></g><path d="M-3776.63 9805.5v86" stroke="#3a414a" stroke-width="10" fill="none"/><path d="M-3771.65 9805.63h-9.95v-5.13h9.95z" stroke="#3a414a" stroke-width=".05" fill="#3a414a"/><path d="M-3776.63 9909.5l-7.5-13h15z" stroke="#3a414a" stroke-width="10" fill="#3a414a"/><path d="M-3776.63 10165.5v506" stroke="#3a414a" stroke-width="10" fill="none"/><path d="M-3771.65 10165.63h-9.95v-5.13h9.95z" stroke="#3a414a" stroke-width=".05" fill="#3a414a"/><path d="M-3776.63 10689.5l-7.5-13h15z" stroke="#3a414a" stroke-width="10" fill="#3a414a"/><path d="M-3700 10317.66a6 6 0 0 1 6-6h503.4a6 6 0 0 1 6 6v224.68a6 6 0 0 1-6 6H-3694a6 6 0 0 1-6-6z" fill="none"/><g><use xlink:href="#W" transform="matrix(1,0,0,1,-3695,10316.661666666667) translate(0 53.49999999999999)"/><use xlink:href="#X" transform="matrix(1,0,0,1,-3695,10316.661666666667) translate(82.34666666666668 53.49999999999999)"/><use xlink:href="#Y" transform="matrix(1,0,0,1,-3695,10316.661666666667) translate(274.61333333333334 53.49999999999999)"/><use xlink:href="#Z" transform="matrix(1,0,0,1,-3695,10316.661666666667) translate(0 133.5)"/><use xlink:href="#Q" transform="matrix(1,0,0,1,-3695,10316.661666666667) translate(328.05333333333334 133.5)"/><use xlink:href="#aa" transform="matrix(1,0,0,1,-3695,10316.661666666667) translate(0 213.5)"/><use xlink:href="#h" transform="matrix(1,0,0,1,-3695,10316.661666666667) translate(252.8 213.5)"/><use xlink:href="#ab" transform="matrix(1,0,0,1,-3695,10316.661666666667) translate(320 213.5)"/></g><path d="M-3366.13 10820h330a6 6 0 0 0 6-6V9726a6 6 0 0 1 6-6h307.02" stroke="#3a414a" stroke-width="10" fill="none"/><path d="M-3366 10824.98h-5.13v-9.95h5.13z" stroke="#3a414a" stroke-width=".05" fill="#3a414a"/><path d="M-2699.12 9720l-13 7.5v-15z" stroke="#3a414a" stroke-width="10" fill="#3a414a"/><defs><path d="M402 12C199 12 35-153 35-355s164-367 367-367c202 0 367 165 367 367S604 12 402 12zm0-154c115 0 206-98 206-213s-91-213-206-213c-116 0-207 98-207 213s91 213 207 213" id="ac"/><path d="M62 0v-500h151v51c24-34 74-62 139-62 123 0 194 91 194 222V0H395v-263c0-69-27-111-81-111-57 0-101 41-101 131V0H62" id="ad"/><g id="a"><use transform="matrix(0.05333333333333334,0,0,0.05333333333333334,0,0)" xlink:href="#ac"/><use transform="matrix(0.05333333333333334,0,0,0.05333333333333334,42.50666666666667,0)" xlink:href="#ad"/></g><path d="M566-467c0 137-107 242-250 242h-82V0H75v-710h241c143 0 250 106 250 243zm-154 0c0-53-41-93-98-93h-80v186h80c57 0 98-41 98-93" id="ae"/><path d="M62 0v-500h151v75c22-57 90-98 168-75v153c-89-36-168 9-168 110V0H62" id="af"/><path d="M297 11C142 11 32-99 32-251c0-150 114-260 265-260 144 0 273 98 267 296H179c7 51 45 96 126 96 44 0 84-20 96-47h158C527-62 423 11 297 11zm100-322c-30-118-194-95-214 0h214" id="ag"/><path d="M62 0v-500h151v51c26-35 69-62 128-62 72 0 124 33 155 88 32-61 101-88 153-88 122 0 190 87 190 226V0H688v-259c0-73-21-115-72-115-53 0-90 40-90 131V0H375v-259c0-73-21-115-72-115-53 0-90 40-90 131V0H62" id="ah"/><g id="b"><use transform="matrix(0.05333333333333334,0,0,0.05333333333333334,0,0)" xlink:href="#ae"/><use transform="matrix(0.05333333333333334,0,0,0.05333333333333334,31.040000000000003,0)" xlink:href="#af"/><use transform="matrix(0.05333333333333334,0,0,0.05333333333333334,51.57333333333334,0)" xlink:href="#ag"/><use transform="matrix(0.05333333333333334,0,0,0.05333333333333334,83.36000000000001,0)" xlink:href="#ah"/></g><path d="M409 12C192 12 36-149 36-355s156-367 373-367c156 0 304 99 345 256H581c-30-66-102-102-172-102-130 0-213 94-213 213s83 213 213 213c70 0 142-36 172-102h173C713-87 565 12 409 12" id="ai"/><path d="M245 11C121 11 56-79 56-215v-285h151v259c0 73 21 115 77 115 57 0 94-39 94-131v-243h151V0H378v-51c-24 35-68 62-133 62" id="aj"/><path d="M264 11C128 11 36-65 31-163h159c2 40 36 60 79 60 39 0 56-14 56-32 0-22-18-32-57-42l-101-26C80-225 41-286 41-360c0-87 77-151 209-151 110 0 200 56 207 162H305c-6-37-32-46-58-46-31 0-51 12-51 32 0 26 28 33 51 39l91 24c101 27 141 78 141 157 0 93-89 154-215 154" id="ak"/><path d="M407-4C262 31 116-22 116-183v-186H16v-131h100v-139h151v139h140v131H267v155c0 60 25 85 85 85 23 0 39-3 55-9V-4" id="al"/><path d="M294 11C150 11 31-103 31-250s119-261 263-261 263 114 263 261S438 11 294 11zm0-141c63 0 111-49 111-120s-48-120-111-120-111 49-111 120 48 120 111 120" id="am"/><g id="c"><use transform="matrix(0.05333333333333334,0,0,0.05333333333333334,0,0)" xlink:href="#ai"/><use transform="matrix(0.05333333333333334,0,0,0.05333333333333334,41.49333333333334,0)" xlink:href="#aj"/><use transform="matrix(0.05333333333333334,0,0,0.05333333333333334,73.01333333333335,0)" xlink:href="#ak"/><use transform="matrix(0.05333333333333334,0,0,0.05333333333333334,99.52000000000002,0)" xlink:href="#al"/><use transform="matrix(0.05333333333333334,0,0,0.05333333333333334,122.61333333333337,0)" xlink:href="#am"/><use transform="matrix(0.05333333333333334,0,0,0.05333333333333334,153.97333333333336,0)" xlink:href="#ah"/></g><path d="M292 0L1-710h173l189 473 188-473h175L435 0H292" id="an"/><g id="d"><use transform="matrix(0.05333333333333334,0,0,0.05333333333333334,0,0)" xlink:href="#an"/><use transform="matrix(0.05333333333333334,0,0,0.05333333333333334,38.77333333333333,0)" xlink:href="#ae"/><use transform="matrix(0.05333333333333334,0,0,0.05333333333333334,70.4,0)" xlink:href="#ai"/></g><path d="M-1 0l304-710h144L751 0H585l-63-150H228L165 0H-1zm287-288h178l-89-214" id="ao"/><path d="M62 0v-750h151V0H62" id="ap"/><path d="M264 11C133 11 32-108 32-250s101-261 232-261c67 0 116 34 136 61v-50h151V0H400v-50c-20 27-69 61-136 61zm34-137c68 0 114-52 114-124s-46-124-114-124-114 52-114 124 46 124 114 124" id="aq"/><g id="e"><use transform="matrix(0.05333333333333334,0,0,0.05333333333333334,0,0)" xlink:href="#ao"/><use transform="matrix(0.05333333333333334,0,0,0.05333333333333334,37.49333333333333,0)" xlink:href="#al"/><use transform="matrix(0.05333333333333334,0,0,0.05333333333333334,60.96,0)" xlink:href="#ap"/><use transform="matrix(0.05333333333333334,0,0,0.05333333333333334,75.62666666666667,0)" xlink:href="#aq"/><use transform="matrix(0.05333333333333334,0,0,0.05333333333333334,108.32,0)" xlink:href="#ak"/></g><path d="M631-86C564-2 383 41 255-16 133-70 49-180 49-350c0-169 87-276 207-329 145-63 326-1 388 94l-54 56c-45-52-107-98-198-98-166 0-262 110-262 277 0 174 99 282 272 282 84 0 148-37 189-83" id="ar"/><path d="M571-263C571-99 468 10 304 10 139 10 36-98 36-263c0-163 105-270 268-270 162 0 267 107 267 270zM304-462c-118 0-188 80-190 199 2 120 72 202 190 202s189-83 189-202-71-199-189-199" id="as"/><path d="M347-440c-109-37-198 34-198 144V0H73v-522h75l2 139-8-19c26-84 111-155 226-122" id="at"/><path d="M586-261c0 158-92 271-246 271-105 0-183-62-209-143h18v353H73v-742h75l2 127-14 2c24-81 101-139 203-139 154 0 247 113 247 271zm-442-1c0 117 69 200 184 200s183-83 183-199c0-117-68-200-183-200s-184 82-184 199" id="au"/><path d="M491-141C463-52 389 10 277 10 125 10 35-106 35-262c0-157 93-271 246-271 115 0 185 63 210 157l-22-11 3-135h75V0h-76v-128zM113-262c0 116 66 200 181 200s181-83 181-200-67-200-181-200c-115 0-181 83-181 200" id="av"/><path d="M145 0v-659h75V0h-75zM27-450v-72h325v72H27" id="aw"/><path d="M506-69c-46 44-115 79-203 79C139 10 36-95 36-259c0-167 95-275 259-275 161 0 244 112 232 287H92l-11-63h389l-18 17c1-103-57-169-157-169-121 0-181 74-182 198 3 127 72 203 200 203 71 0 105-22 154-62" id="ax"/><g id="f"><use transform="matrix(0.05333333333333334,0,0,0.05333333333333334,0,0)" xlink:href="#ar"/><use transform="matrix(0.05333333333333334,0,0,0.05333333333333334,36.053333333333335,0)" xlink:href="#as"/><use transform="matrix(0.05333333333333334,0,0,0.05333333333333334,68.42666666666668,0)" xlink:href="#at"/><use transform="matrix(0.05333333333333334,0,0,0.05333333333333334,88.32000000000001,0)" xlink:href="#au"/><use transform="matrix(0.05333333333333334,0,0,0.05333333333333334,121.49333333333334,0)" xlink:href="#as"/><use transform="matrix(0.05333333333333334,0,0,0.05333333333333334,153.86666666666667,0)" xlink:href="#at"/><use transform="matrix(0.05333333333333334,0,0,0.05333333333333334,172.58666666666667,0)" xlink:href="#av"/><use transform="matrix(0.05333333333333334,0,0,0.05333333333333334,205.65333333333334,0)" xlink:href="#aw"/><use transform="matrix(0.05333333333333334,0,0,0.05333333333333334,225.1733333333333,0)" xlink:href="#ax"/></g><path d="M554-197C555-26 376 41 207-5 140-27 89-69 52-124l54-60c54 75 100 118 208 121 99 3 195-61 154-160-45-110-250-81-328-164-33-31-54-69-54-130 0-156 169-218 326-175 59 20 101 59 132 109l-55 54c-38-56-85-105-175-106-97-2-179 66-140 161 32 78 169 74 248 111 70 31 130 71 132 166" id="ay"/><path d="M530-16c-81 35-193 35-274 0C135-70 49-178 49-348s86-278 207-332c81-35 193-35 274 0 121 54 206 162 206 332 0 169-86 279-206 332zM130-348c0 169 94 281 262 281s263-112 263-281c0-170-95-283-263-283S130-518 130-348" id="az"/><g id="g"><use transform="matrix(0.05333333333333334,0,0,0.05333333333333334,0,0)" xlink:href="#ay"/><use transform="matrix(0.05333333333333334,0,0,0.05333333333333334,32.42666666666667,0)" xlink:href="#ay"/><use transform="matrix(0.05333333333333334,0,0,0.05333333333333334,64.85333333333334,0)" xlink:href="#az"/></g><g id="h"><use transform="matrix(0.05333333333333334,0,0,0.05333333333333334,0,0)" xlink:href="#as"/><use transform="matrix(0.05333333333333334,0,0,0.05333333333333334,32.373333333333335,0)" xlink:href="#at"/></g><path d="M70 0v-74h113v-552H70v-74h304v74H261v552h113V0H70" id="aA"/><path d="M491-137C468-48 392 10 285 10 129 10 36-103 36-261s93-272 248-272c111 0 189 59 212 152l-23-8v-351h75V0h-74l-2-130zM114-262c0 118 66 203 182 203 115 0 181-85 181-203s-67-203-181-203c-116 0-182 85-182 203" id="aB"/><path d="M575-492c0 125-74 216-195 216H181V0h-78v-700h277c120 5 195 87 195 208zm-81-1c0-73-40-131-110-131H181v272h203c72-5 110-64 110-141" id="aC"/><g id="i"><use transform="matrix(0.05333333333333334,0,0,0.05333333333333334,0,0)" xlink:href="#aA"/><use transform="matrix(0.05333333333333334,0,0,0.05333333333333334,23.680000000000003,0)" xlink:href="#aB"/><use transform="matrix(0.05333333333333334,0,0,0.05333333333333334,56.80000000000002,0)" xlink:href="#aC"/></g><path d="M306-463c-93 5-158 54-158 145V0H73v-522h74l3 109-12 5c25-72 99-125 192-125 129 0 176 83 176 216V0h-76v-313c1-94-33-151-124-150" id="aD"/><g id="j"><use transform="matrix(0.05333333333333334,0,0,0.05333333333333334,0,0)" xlink:href="#az"/><use transform="matrix(0.05333333333333334,0,0,0.05333333333333334,41.86666666666667,0)" xlink:href="#aD"/></g><path d="M301-462c-91 0-153 55-153 145V0H72v-522h75l2 119-15 5c25-99 146-164 266-120 51 19 76 68 90 131l-18-9c31-77 97-133 200-136 236-7 155 314 170 532h-77v-311c0-91-29-151-116-151-93 0-155 56-155 146V0h-76v-312c0-89-31-150-117-150" id="aE"/><g id="k"><use transform="matrix(0.05333333333333334,0,0,0.05333333333333334,0,0)" xlink:href="#au"/><use transform="matrix(0.05333333333333334,0,0,0.05333333333333334,33.17333333333333,0)" xlink:href="#at"/><use transform="matrix(0.05333333333333334,0,0,0.05333333333333334,51.89333333333333,0)" xlink:href="#ax"/><use transform="matrix(0.05333333333333334,0,0,0.05333333333333334,81.86666666666667,0)" xlink:href="#aE"/></g><path d="M422-200C485-28 276 57 124-15 89-32 61-54 40-81l53-46c35 42 84 70 157 71 61-1 111-23 111-81 0-94-152-90-217-125-50-27-86-53-88-123-4-152 210-182 322-109 21 13 38 28 53 45l-46 50c-35-35-77-65-143-70-80-6-148 75-86 129 54 47 176 46 228 94 18 13 30 29 38 46" id="aF"/><g id="l"><use transform="matrix(0.05333333333333334,0,0,0.05333333333333334,0,0)" xlink:href="#av"/><use transform="matrix(0.05333333333333334,0,0,0.05333333333333334,33.06666666666667,0)" xlink:href="#au"/><use transform="matrix(0.05333333333333334,0,0,0.05333333333333334,66.24000000000001,0)" xlink:href="#au"/><use transform="matrix(0.05333333333333334,0,0,0.05333333333333334,99.41333333333334,0)" xlink:href="#aF"/></g><path d="M235 0L15-522h83L272-95l-20 11 191-438h80L289 0h-54" id="aG"/><path d="M93 0v-522h75V0H93zm94-689c0 33-23 55-57 54-36 1-57-20-57-54s22-56 57-55c35 0 57 20 57 55" id="aH"/><path d="M502-89c-39 54-121 99-209 99C134 4 36-102 36-262c0-161 98-265 258-271 95 0 170 42 210 100l-44 54c-35-45-88-84-163-84-115 0-186 83-186 201 0 117 70 201 185 201 76 0 125-37 162-82" id="aI"/><g id="m"><use transform="matrix(0.05333333333333334,0,0,0.05333333333333334,0,0)" xlink:href="#aF"/><use transform="matrix(0.05333333333333334,0,0,0.05333333333333334,25.546666666666667,0)" xlink:href="#ax"/><use transform="matrix(0.05333333333333334,0,0,0.05333333333333334,55.52,0)" xlink:href="#at"/><use transform="matrix(0.05333333333333334,0,0,0.05333333333333334,78.08,0)" xlink:href="#aG"/><use transform="matrix(0.05333333333333334,0,0,0.05333333333333334,106.77333333333334,0)" xlink:href="#aH"/><use transform="matrix(0.05333333333333334,0,0,0.05333333333333334,120.58666666666667,0)" xlink:href="#aI"/><use transform="matrix(0.05333333333333334,0,0,0.05333333333333334,148.64000000000001,0)" xlink:href="#ax"/><use transform="matrix(0.05333333333333334,0,0,0.05333333333333334,178.61333333333334,0)" xlink:href="#aF"/></g><path d="M296 0L25-700h88c80 215 167 424 241 645l-26 1c69-224 160-431 239-646h88L376 0h-80" id="aJ"/><path d="M167-619c17 196 14 407 14 619h-78v-700h71L632-94l-14 18c-16-194-11-415-12-624h78V0h-73L155-598" id="aK"/><path d="M123-95c91-2 92 139 45 191-21 30-50 51-85 69l-28-36c32-20 63-44 68-83 2-43-53-52-51-96 0-27 22-46 51-45" id="aL"/><g id="n"><use transform="matrix(0.05333333333333334,0,0,0.05333333333333334,0,0)" xlink:href="#aJ"/><use transform="matrix(0.05333333333333334,0,0,0.05333333333333334,36.266666666666666,0)" xlink:href="#aC"/><use transform="matrix(0.05333333333333334,0,0,0.05333333333333334,69.44,0)" xlink:href="#aK"/><use transform="matrix(0.05333333333333334,0,0,0.05333333333333334,111.41333333333331,0)" xlink:href="#aL"/></g><path d="M694-350C694-138 577 0 367 0H103v-700c137 7 293-18 395 26 116 52 196 159 196 324zm-80 0c0-166-89-274-252-274H169l12-12v574l-9-14h190c163-7 252-108 252-274" id="aM"/><g id="o"><use transform="matrix(0.05333333333333334,0,0,0.05333333333333334,0,0)" xlink:href="#aM"/><use transform="matrix(0.05333333333333334,0,0,0.05333333333333334,39.62666666666667,0)" xlink:href="#aH"/><use transform="matrix(0.05333333333333334,0,0,0.05333333333333334,53.440000000000005,0)" xlink:href="#at"/><use transform="matrix(0.05333333333333334,0,0,0.05333333333333334,72.16000000000001,0)" xlink:href="#ax"/><use transform="matrix(0.05333333333333334,0,0,0.05333333333333334,102.13333333333335,0)" xlink:href="#aI"/><use transform="matrix(0.05333333333333334,0,0,0.05333333333333334,130.1866666666667,0)" xlink:href="#aw"/></g><g id="p"><use transform="matrix(0.05333333333333334,0,0,0.05333333333333334,0,0)" xlink:href="#ar"/><use transform="matrix(0.05333333333333334,0,0,0.05333333333333334,36.053333333333335,0)" xlink:href="#as"/><use transform="matrix(0.05333333333333334,0,0,0.05333333333333334,68.42666666666668,0)" xlink:href="#aD"/><use transform="matrix(0.05333333333333334,0,0,0.05333333333333334,99.14666666666668,0)" xlink:href="#aD"/><use transform="matrix(0.05333333333333334,0,0,0.05333333333333334,129.86666666666667,0)" xlink:href="#ax"/><use transform="matrix(0.05333333333333334,0,0,0.05333333333333334,159.84,0)" xlink:href="#aI"/><use transform="matrix(0.05333333333333334,0,0,0.05333333333333334,187.89333333333335,0)" xlink:href="#aw"/><use transform="matrix(0.05333333333333334,0,0,0.05333333333333334,206.61333333333334,0)" xlink:href="#aL"/></g><g id="q"><use transform="matrix(0.05333333333333334,0,0,0.05333333333333334,0,0)" xlink:href="#as"/><use transform="matrix(0.05333333333333334,0,0,0.05333333333333334,32.373333333333335,0)" xlink:href="#at"/></g><path d="M103 0v-700h424v76H181v548h344V0H103zm36-322v-76h332v76H139" id="aN"/><path d="M428 0C293-175 157-348 21-522h95C251-348 387-174 522 0h-94zM17 0l213-275 45 54L107 0H17zm292-256l-43-53 152-213h91" id="aO"/><path d="M595-483c0 124-87 207-212 207H181V0h-78v-700h274c130 5 218 87 218 217zM530 0L354-308l75-26L623 0h-93zm-15-483c0-88-60-141-148-141H181v272h209c78-3 125-53 125-131" id="aP"/><path d="M444-116C417-46 351 10 258 10 129 10 72-71 72-203v-319h76v304c0 98 36 160 131 160 92 0 155-56 155-147v-317h75V0h-74l-3-110" id="aQ"/><g id="r"><use transform="matrix(0.05333333333333334,0,0,0.05333333333333334,0,0)" xlink:href="#aN"/><use transform="matrix(0.05333333333333334,0,0,0.05333333333333334,31.94666666666667,0)" xlink:href="#aO"/><use transform="matrix(0.05333333333333334,0,0,0.05333333333333334,60.64,0)" xlink:href="#au"/><use transform="matrix(0.05333333333333334,0,0,0.05333333333333334,93.81333333333333,0)" xlink:href="#at"/><use transform="matrix(0.05333333333333334,0,0,0.05333333333333334,112.53333333333335,0)" xlink:href="#ax"/><use transform="matrix(0.05333333333333334,0,0,0.05333333333333334,142.50666666666666,0)" xlink:href="#aF"/><use transform="matrix(0.05333333333333334,0,0,0.05333333333333334,168.05333333333334,0)" xlink:href="#aF"/><use transform="matrix(0.05333333333333334,0,0,0.05333333333333334,193.60000000000002,0)" xlink:href="#aP"/><use transform="matrix(0.05333333333333334,0,0,0.05333333333333334,227.73333333333335,0)" xlink:href="#as"/><use transform="matrix(0.05333333333333334,0,0,0.05333333333333334,260.1066666666667,0)" xlink:href="#aQ"/><use transform="matrix(0.05333333333333334,0,0,0.05333333333333334,291.1466666666667,0)" xlink:href="#aw"/><use transform="matrix(0.05333333333333334,0,0,0.05333333333333334,310.66666666666674,0)" xlink:href="#ax"/></g><path d="M25 0l268-700h89L648 0h-85c-80-216-165-427-238-651h20C272-427 185-217 105 0H25zm114-193l29-76h331l32 76H139" id="aR"/><g id="s"><use transform="matrix(0.05333333333333334,0,0,0.05333333333333334,0,0)" xlink:href="#aR"/><use transform="matrix(0.05333333333333334,0,0,0.05333333333333334,35.89333333333334,0)" xlink:href="#au"/><use transform="matrix(0.05333333333333334,0,0,0.05333333333333334,69.06666666666666,0)" xlink:href="#au"/><use transform="matrix(0.05333333333333334,0,0,0.05333333333333334,102.24,0)" xlink:href="#aF"/></g><path d="M162-215l-3-93 396-392h105zM103 0v-700h78V0h-78zm469 0L291-374l57-50L670 0h-98" id="aS"/><path d="M583-262c0 158-90 272-245 272-108 0-182-58-210-143l22 1-3 131H73v-739h75v343l-15 4c26-83 98-140 203-140 154 0 247 113 247 271zm-439 0c0 117 67 201 182 201s182-85 182-201c0-117-67-200-182-200s-182 83-182 200" id="aT"/><g id="t"><use transform="matrix(0.05333333333333334,0,0,0.05333333333333334,0,0)" xlink:href="#aS"/><use transform="matrix(0.05333333333333334,0,0,0.05333333333333334,36.64,0)" xlink:href="#aQ"/><use transform="matrix(0.05333333333333334,0,0,0.05333333333333334,67.68,0)" xlink:href="#aT"/><use transform="matrix(0.05333333333333334,0,0,0.05333333333333334,100.69333333333334,0)" xlink:href="#ax"/><use transform="matrix(0.05333333333333334,0,0,0.05333333333333334,130.66666666666669,0)" xlink:href="#at"/><use transform="matrix(0.05333333333333334,0,0,0.05333333333333334,150.56000000000003,0)" xlink:href="#aD"/><use transform="matrix(0.05333333333333334,0,0,0.05333333333333334,181.28000000000003,0)" xlink:href="#ax"/><use transform="matrix(0.05333333333333334,0,0,0.05333333333333334,211.25333333333336,0)" xlink:href="#aw"/><use transform="matrix(0.05333333333333334,0,0,0.05333333333333334,230.77333333333334,0)" xlink:href="#ax"/><use transform="matrix(0.05333333333333334,0,0,0.05333333333333334,260.74666666666667,0)" xlink:href="#aF"/></g><g id="u"><use transform="matrix(0.05333333333333334,0,0,0.05333333333333334,0,0)" xlink:href="#aH"/><use transform="matrix(0.05333333333333334,0,0,0.05333333333333334,13.813333333333334,0)" xlink:href="#aD"/></g><use transform="matrix(0.05333333333333334,0,0,0.05333333333333334,0,0)" xlink:href="#av" id="v"/><g id="w"><use transform="matrix(0.05333333333333334,0,0,0.05333333333333334,0,0)" xlink:href="#aI"/><use transform="matrix(0.05333333333333334,0,0,0.05333333333333334,28.053333333333335,0)" xlink:href="#aQ"/><use transform="matrix(0.05333333333333334,0,0,0.05333333333333334,59.093333333333334,0)" xlink:href="#aF"/><use transform="matrix(0.05333333333333334,0,0,0.05333333333333334,84.64,0)" xlink:href="#aw"/><use transform="matrix(0.05333333333333334,0,0,0.05333333333333334,104.16,0)" xlink:href="#as"/><use transform="matrix(0.05333333333333334,0,0,0.05333333333333334,136.53333333333333,0)" xlink:href="#aE"/><use transform="matrix(0.05333333333333334,0,0,0.05333333333333334,185.12,0)" xlink:href="#ax"/><use transform="matrix(0.05333333333333334,0,0,0.05333333333333334,215.09333333333333,0)" xlink:href="#at"/></g><g id="x"><use transform="matrix(0.05333333333333334,0,0,0.05333333333333334,0,0)" xlink:href="#aJ"/><use transform="matrix(0.05333333333333334,0,0,0.05333333333333334,36.266666666666666,0)" xlink:href="#aC"/><use transform="matrix(0.05333333333333334,0,0,0.05333333333333334,69.44,0)" xlink:href="#ar"/></g><g id="y"><use transform="matrix(0.05333333333333334,0,0,0.05333333333333334,0,0)" xlink:href="#aC"/><use transform="matrix(0.05333333333333334,0,0,0.05333333333333334,33.17333333333333,0)" xlink:href="#at"/><use transform="matrix(0.05333333333333334,0,0,0.05333333333333334,53.06666666666666,0)" xlink:href="#aH"/><use transform="matrix(0.05333333333333334,0,0,0.05333333333333334,66.88,0)" xlink:href="#aG"/><use transform="matrix(0.05333333333333334,0,0,0.05333333333333334,94.77333333333334,0)" xlink:href="#av"/><use transform="matrix(0.05333333333333334,0,0,0.05333333333333334,127.84,0)" xlink:href="#aw"/><use transform="matrix(0.05333333333333334,0,0,0.05333333333333334,147.36,0)" xlink:href="#ax"/></g><g id="z"><use transform="matrix(0.05333333333333334,0,0,0.05333333333333334,0,0)" xlink:href="#aN"/><use transform="matrix(0.05333333333333334,0,0,0.05333333333333334,31.94666666666667,0)" xlink:href="#aD"/><use transform="matrix(0.05333333333333334,0,0,0.05333333333333334,62.66666666666667,0)" xlink:href="#aB"/><use transform="matrix(0.05333333333333334,0,0,0.05333333333333334,95.78666666666668,0)" xlink:href="#au"/><use transform="matrix(0.05333333333333334,0,0,0.05333333333333334,128.96,0)" xlink:href="#as"/><use transform="matrix(0.05333333333333334,0,0,0.05333333333333334,161.33333333333334,0)" xlink:href="#aH"/><use transform="matrix(0.05333333333333334,0,0,0.05333333333333334,175.14666666666668,0)" xlink:href="#aD"/><use transform="matrix(0.05333333333333334,0,0,0.05333333333333334,205.86666666666667,0)" xlink:href="#aw"/></g><g id="A"><use transform="matrix(0.05333333333333334,0,0,0.05333333333333334,0,0)" xlink:href="#aH"/><use transform="matrix(0.05333333333333334,0,0,0.05333333333333334,13.813333333333334,0)" xlink:href="#aD"/></g><path d="M75 0v-740h75V0H75" id="aU"/><g id="B"><use transform="matrix(0.05333333333333334,0,0,0.05333333333333334,0,0)" xlink:href="#aR"/><use transform="matrix(0.05333333333333334,0,0,0.05333333333333334,35.62666666666667,0)" xlink:href="#aw"/><use transform="matrix(0.05333333333333334,0,0,0.05333333333333334,55.413333333333334,0)" xlink:href="#aU"/><use transform="matrix(0.05333333333333334,0,0,0.05333333333333334,66.88000000000001,0)" xlink:href="#av"/><use transform="matrix(0.05333333333333334,0,0,0.05333333333333334,99.94666666666669,0)" xlink:href="#aF"/></g><g id="C"><use transform="matrix(0.05333333333333334,0,0,0.05333333333333334,0,0)" xlink:href="#aR"/><use transform="matrix(0.05333333333333334,0,0,0.05333333333333334,35.62666666666667,0)" xlink:href="#aw"/><use transform="matrix(0.05333333333333334,0,0,0.05333333333333334,55.413333333333334,0)" xlink:href="#aU"/><use transform="matrix(0.05333333333333334,0,0,0.05333333333333334,66.88000000000001,0)" xlink:href="#av"/><use transform="matrix(0.05333333333333334,0,0,0.05333333333333334,99.94666666666669,0)" xlink:href="#aF"/></g><g id="D"><use transform="matrix(0.05333333333333334,0,0,0.05333333333333334,0,0)" xlink:href="#aI"/><use transform="matrix(0.05333333333333334,0,0,0.05333333333333334,28.053333333333335,0)" xlink:href="#as"/><use transform="matrix(0.05333333333333334,0,0,0.05333333333333334,60.42666666666667,0)" xlink:href="#aD"/><use transform="matrix(0.05333333333333334,0,0,0.05333333333333334,91.14666666666668,0)" xlink:href="#aw"/><use transform="matrix(0.05333333333333334,0,0,0.05333333333333334,110.93333333333334,0)" xlink:href="#at"/><use transform="matrix(0.05333333333333334,0,0,0.05333333333333334,129.65333333333334,0)" xlink:href="#as"/><use transform="matrix(0.05333333333333334,0,0,0.05333333333333334,162.02666666666667,0)" xlink:href="#aU"/></g><g id="E"><use transform="matrix(0.05333333333333334,0,0,0.05333333333333334,0,0)" xlink:href="#au"/><use transform="matrix(0.05333333333333334,0,0,0.05333333333333334,33.17333333333333,0)" xlink:href="#aU"/><use transform="matrix(0.05333333333333334,0,0,0.05333333333333334,44.64,0)" xlink:href="#av"/><use transform="matrix(0.05333333333333334,0,0,0.05333333333333334,77.70666666666668,0)" xlink:href="#aD"/><use transform="matrix(0.05333333333333334,0,0,0.05333333333333334,108.42666666666668,0)" xlink:href="#ax"/></g><path d="M102-258c0 187 97 311 220 397l-42 47C136 97 30-45 30-258c0-212 108-356 251-444l41 47c-123 86-220 209-220 397" id="aV"/><use transform="matrix(0.05333333333333334,0,0,0.05333333333333334,0,0)" xlink:href="#aV" id="F"/><path d="M648-268C642-101 539 7 372 7 206 7 98-102 98-268v-432h78v423c4 121 76 207 196 207 123 0 201-84 201-207v-423h75v432" id="aW"/><g id="G"><use transform="matrix(0.05333333333333334,0,0,0.05333333333333334,0,0)" xlink:href="#aW"/><use transform="matrix(0.05333333333333334,0,0,0.05333333333333334,39.84,0)" xlink:href="#aA"/></g><path d="M78-702c144 89 250 231 250 444C328-46 220 98 77 186l-41-47C159 53 255-70 255-258c0-187-96-311-219-397" id="aX"/><g id="H"><use transform="matrix(0.05333333333333334,0,0,0.05333333333333334,0,0)" xlink:href="#aR"/><use transform="matrix(0.05333333333333334,0,0,0.05333333333333334,35.89333333333334,0)" xlink:href="#aC"/><use transform="matrix(0.05333333333333334,0,0,0.05333333333333334,69.06666666666666,0)" xlink:href="#aA"/><use transform="matrix(0.05333333333333334,0,0,0.05333333333333334,92.74666666666667,0)" xlink:href="#aX"/></g><g id="I"><use transform="matrix(0.05333333333333334,0,0,0.05333333333333334,0,0)" xlink:href="#aI"/><use transform="matrix(0.05333333333333334,0,0,0.05333333333333334,28.053333333333335,0)" xlink:href="#aU"/><use transform="matrix(0.05333333333333334,0,0,0.05333333333333334,39.78666666666667,0)" xlink:href="#aQ"/><use transform="matrix(0.05333333333333334,0,0,0.05333333333333334,70.82666666666667,0)" xlink:href="#aF"/><use transform="matrix(0.05333333333333334,0,0,0.05333333333333334,96.37333333333333,0)" xlink:href="#aw"/><use transform="matrix(0.05333333333333334,0,0,0.05333333333333334,115.89333333333335,0)" xlink:href="#ax"/><use transform="matrix(0.05333333333333334,0,0,0.05333333333333334,145.86666666666667,0)" xlink:href="#at"/></g><g id="J"><use transform="matrix(0.05333333333333334,0,0,0.05333333333333334,0,0)" xlink:href="#aV"/><use transform="matrix(0.05333333333333334,0,0,0.05333333333333334,17.76,0)" xlink:href="#aB"/><use transform="matrix(0.05333333333333334,0,0,0.05333333333333334,50.88000000000001,0)" xlink:href="#av"/><use transform="matrix(0.05333333333333334,0,0,0.05333333333333334,83.94666666666669,0)" xlink:href="#aw"/><use transform="matrix(0.05333333333333334,0,0,0.05333333333333334,103.4666666666667,0)" xlink:href="#av"/></g><g id="K"><use transform="matrix(0.05333333333333334,0,0,0.05333333333333334,0,0)" xlink:href="#aU"/><use transform="matrix(0.05333333333333334,0,0,0.05333333333333334,12,0)" xlink:href="#aH"/><use transform="matrix(0.05333333333333334,0,0,0.05333333333333334,25.813333333333333,0)" xlink:href="#aG"/><use transform="matrix(0.05333333333333334,0,0,0.05333333333333334,53.70666666666666,0)" xlink:href="#ax"/><use transform="matrix(0.05333333333333334,0,0,0.05333333333333334,83.68,0)" xlink:href="#aF"/></g><path d="M161 230L262-16l7 71L7-522h85c69 161 146 314 210 480l-28-3c60-160 122-318 183-477h86C442-272 340-23 242 230h-81" id="aY"/><g id="L"><use transform="matrix(0.05333333333333334,0,0,0.05333333333333334,0,0)" xlink:href="#ax"/><use transform="matrix(0.05333333333333334,0,0,0.05333333333333334,29.973333333333336,0)" xlink:href="#aD"/><use transform="matrix(0.05333333333333334,0,0,0.05333333333333334,60.693333333333335,0)" xlink:href="#aw"/><use transform="matrix(0.05333333333333334,0,0,0.05333333333333334,80.48000000000002,0)" xlink:href="#aH"/><use transform="matrix(0.05333333333333334,0,0,0.05333333333333334,94.29333333333335,0)" xlink:href="#at"/><use transform="matrix(0.05333333333333334,0,0,0.05333333333333334,113.01333333333334,0)" xlink:href="#ax"/><use transform="matrix(0.05333333333333334,0,0,0.05333333333333334,142.98666666666668,0)" xlink:href="#aU"/><use transform="matrix(0.05333333333333334,0,0,0.05333333333333334,154.18666666666667,0)" xlink:href="#aY"/></g><g id="M"><use transform="matrix(0.05333333333333334,0,0,0.05333333333333334,0,0)" xlink:href="#aR"/><use transform="matrix(0.05333333333333334,0,0,0.05333333333333334,35.62666666666667,0)" xlink:href="#aw"/><use transform="matrix(0.05333333333333334,0,0,0.05333333333333334,55.413333333333334,0)" xlink:href="#aU"/><use transform="matrix(0.05333333333333334,0,0,0.05333333333333334,66.88000000000001,0)" xlink:href="#av"/><use transform="matrix(0.05333333333333334,0,0,0.05333333333333334,99.94666666666669,0)" xlink:href="#aF"/><use transform="matrix(0.05333333333333334,0,0,0.05333333333333334,125.49333333333337,0)" xlink:href="#aX"/></g><path d="M493-221c0 140-97 231-237 231C131 10 77-47 20-138l64-40c42 63 84 116 178 116 91 0 154-64 154-156 0-93-57-148-149-151-53 1-86 19-121 44l-23-62 247-269 17 29H69v-73h378l20 40-240 256-20-20c16-10 42-19 67-19 134 8 219 88 219 222" id="aZ"/><g id="N"><use transform="matrix(0.05333333333333334,0,0,0.05333333333333334,0,0)" xlink:href="#aV"/><use transform="matrix(0.05333333333333334,0,0,0.05333333333333334,19.093333333333334,0)" xlink:href="#aZ"/><use transform="matrix(0.05333333333333334,0,0,0.05333333333333334,47.30666666666667,0)" xlink:href="#aX"/></g><path d="M167-625c22 185 11 417 14 625h-78v-700h76l269 437-36-1 272-436h71V0h-78c2-211-8-434 14-625l14 28-251 394h-54L156-592" id="ba"/><g id="O"><use transform="matrix(0.05333333333333334,0,0,0.05333333333333334,0,0)" xlink:href="#aA"/><use transform="matrix(0.05333333333333334,0,0,0.05333333333333334,23.680000000000003,0)" xlink:href="#aR"/><use transform="matrix(0.05333333333333334,0,0,0.05333333333333334,59.57333333333334,0)" xlink:href="#ba"/></g><path d="M207-34v-604l29 22-130 78-23-70 173-102h30v676h-79zM104 0v-76h287V0H104" id="bb"/><g id="P"><use transform="matrix(0.05333333333333334,0,0,0.05333333333333334,0,0)" xlink:href="#aV"/><use transform="matrix(0.05333333333333334,0,0,0.05333333333333334,19.093333333333334,0)" xlink:href="#bb"/><use transform="matrix(0.05333333333333334,0,0,0.05333333333333334,43.52,0)" xlink:href="#aX"/></g><g id="Q"><use transform="matrix(0.05333333333333334,0,0,0.05333333333333334,0,0)" xlink:href="#aC"/><use transform="matrix(0.05333333333333334,0,0,0.05333333333333334,33.17333333333333,0)" xlink:href="#at"/><use transform="matrix(0.05333333333333334,0,0,0.05333333333333334,53.06666666666666,0)" xlink:href="#aH"/><use transform="matrix(0.05333333333333334,0,0,0.05333333333333334,66.88,0)" xlink:href="#aG"/><use transform="matrix(0.05333333333333334,0,0,0.05333333333333334,94.77333333333334,0)" xlink:href="#av"/><use transform="matrix(0.05333333333333334,0,0,0.05333333333333334,127.84,0)" xlink:href="#aw"/><use transform="matrix(0.05333333333333334,0,0,0.05333333333333334,147.36,0)" xlink:href="#ax"/></g><path d="M196 0L15-522l80-1L236-98l-25-2 153-342h45l154 342-30 2 144-424h79L575 0h-44L369-372l30 2L242 0h-46" id="bc"/><path d="M140-168l-3-87 273-267h101zM73 0v-740h75V0H73zm358 0L211-255l53-52L529 0h-98" id="bd"/><g id="R"><use transform="matrix(0.05333333333333334,0,0,0.05333333333333334,0,0)" xlink:href="#aK"/><use transform="matrix(0.05333333333333334,0,0,0.05333333333333334,41.973333333333336,0)" xlink:href="#ax"/><use transform="matrix(0.05333333333333334,0,0,0.05333333333333334,71.94666666666667,0)" xlink:href="#aw"/><use transform="matrix(0.05333333333333334,0,0,0.05333333333333334,91.73333333333335,0)" xlink:href="#bc"/><use transform="matrix(0.05333333333333334,0,0,0.05333333333333334,132.05333333333334,0)" xlink:href="#as"/><use transform="matrix(0.05333333333333334,0,0,0.05333333333333334,164.42666666666668,0)" xlink:href="#at"/><use transform="matrix(0.05333333333333334,0,0,0.05333333333333334,184.32000000000002,0)" xlink:href="#bd"/></g><g id="S"><use transform="matrix(0.05333333333333334,0,0,0.05333333333333334,0,0)" xlink:href="#aV"/><use transform="matrix(0.05333333333333334,0,0,0.05333333333333334,19.093333333333334,0)" xlink:href="#aJ"/><use transform="matrix(0.05333333333333334,0,0,0.05333333333333334,55.36000000000001,0)" xlink:href="#aC"/><use transform="matrix(0.05333333333333334,0,0,0.05333333333333334,88.53333333333333,0)" xlink:href="#aK"/><use transform="matrix(0.05333333333333334,0,0,0.05333333333333334,130.50666666666666,0)" xlink:href="#aL"/></g><g id="T"><use transform="matrix(0.05333333333333334,0,0,0.05333333333333334,0,0)" xlink:href="#aM"/><use transform="matrix(0.05333333333333334,0,0,0.05333333333333334,39.62666666666667,0)" xlink:href="#aH"/><use transform="matrix(0.05333333333333334,0,0,0.05333333333333334,53.440000000000005,0)" xlink:href="#at"/><use transform="matrix(0.05333333333333334,0,0,0.05333333333333334,72.16000000000001,0)" xlink:href="#ax"/><use transform="matrix(0.05333333333333334,0,0,0.05333333333333334,102.13333333333335,0)" xlink:href="#aI"/><use transform="matrix(0.05333333333333334,0,0,0.05333333333333334,130.1866666666667,0)" xlink:href="#aw"/></g><g id="U"><use transform="matrix(0.05333333333333334,0,0,0.05333333333333334,0,0)" xlink:href="#ar"/><use transform="matrix(0.05333333333333334,0,0,0.05333333333333334,36.053333333333335,0)" xlink:href="#as"/><use transform="matrix(0.05333333333333334,0,0,0.05333333333333334,68.42666666666668,0)" xlink:href="#aD"/><use transform="matrix(0.05333333333333334,0,0,0.05333333333333334,99.14666666666668,0)" xlink:href="#aD"/><use transform="matrix(0.05333333333333334,0,0,0.05333333333333334,129.86666666666667,0)" xlink:href="#ax"/><use transform="matrix(0.05333333333333334,0,0,0.05333333333333334,159.84,0)" xlink:href="#aI"/><use transform="matrix(0.05333333333333334,0,0,0.05333333333333334,187.89333333333335,0)" xlink:href="#aw"/><use transform="matrix(0.05333333333333334,0,0,0.05333333333333334,206.61333333333334,0)" xlink:href="#aL"/></g><g id="V"><use transform="matrix(0.05333333333333334,0,0,0.05333333333333334,0,0)" xlink:href="#aN"/><use transform="matrix(0.05333333333333334,0,0,0.05333333333333334,31.94666666666667,0)" xlink:href="#aO"/><use transform="matrix(0.05333333333333334,0,0,0.05333333333333334,60.64,0)" xlink:href="#au"/><use transform="matrix(0.05333333333333334,0,0,0.05333333333333334,93.81333333333333,0)" xlink:href="#at"/><use transform="matrix(0.05333333333333334,0,0,0.05333333333333334,112.53333333333335,0)" xlink:href="#ax"/><use transform="matrix(0.05333333333333334,0,0,0.05333333333333334,142.50666666666666,0)" xlink:href="#aF"/><use transform="matrix(0.05333333333333334,0,0,0.05333333333333334,168.05333333333334,0)" xlink:href="#aF"/><use transform="matrix(0.05333333333333334,0,0,0.05333333333333334,193.60000000000002,0)" xlink:href="#aP"/><use transform="matrix(0.05333333333333334,0,0,0.05333333333333334,227.73333333333335,0)" xlink:href="#as"/><use transform="matrix(0.05333333333333334,0,0,0.05333333333333334,260.1066666666667,0)" xlink:href="#aQ"/><use transform="matrix(0.05333333333333334,0,0,0.05333333333333334,291.1466666666667,0)" xlink:href="#aw"/><use transform="matrix(0.05333333333333334,0,0,0.05333333333333334,310.66666666666674,0)" xlink:href="#ax"/><use transform="matrix(0.05333333333333334,0,0,0.05333333333333334,340.6400000000001,0)" xlink:href="#aX"/></g><path d="M290-710c154-5 252 139 182 283-73 151-207 253-309 378l-12-26h365V0H93L69-58c90-103 186-200 271-308 33-41 72-87 72-154 0-78-52-116-130-116-95 0-144 68-169 149l-62-37c33-108 107-182 239-186" id="be"/><g id="W"><use transform="matrix(0.05333333333333334,0,0,0.05333333333333334,0,0)" xlink:href="#aV"/><use transform="matrix(0.05333333333333334,0,0,0.05333333333333334,19.093333333333334,0)" xlink:href="#be"/><use transform="matrix(0.05333333333333334,0,0,0.05333333333333334,48.32000000000001,0)" xlink:href="#aX"/></g><g id="X"><use transform="matrix(0.05333333333333334,0,0,0.05333333333333334,0,0)" xlink:href="#aC"/><use transform="matrix(0.05333333333333334,0,0,0.05333333333333334,33.17333333333333,0)" xlink:href="#at"/><use transform="matrix(0.05333333333333334,0,0,0.05333333333333334,53.06666666666666,0)" xlink:href="#aH"/><use transform="matrix(0.05333333333333334,0,0,0.05333333333333334,66.88,0)" xlink:href="#aG"/><use transform="matrix(0.05333333333333334,0,0,0.05333333333333334,94.77333333333334,0)" xlink:href="#av"/><use transform="matrix(0.05333333333333334,0,0,0.05333333333333334,127.84,0)" xlink:href="#aw"/><use transform="matrix(0.05333333333333334,0,0,0.05333333333333334,147.36,0)" xlink:href="#ax"/></g><g id="Y"><use transform="matrix(0.05333333333333334,0,0,0.05333333333333334,0,0)" xlink:href="#aN"/><use transform="matrix(0.05333333333333334,0,0,0.05333333333333334,31.94666666666667,0)" xlink:href="#aD"/><use transform="matrix(0.05333333333333334,0,0,0.05333333333333334,62.66666666666667,0)" xlink:href="#aB"/><use transform="matrix(0.05333333333333334,0,0,0.05333333333333334,95.78666666666668,0)" xlink:href="#au"/><use transform="matrix(0.05333333333333334,0,0,0.05333333333333334,128.96,0)" xlink:href="#as"/><use transform="matrix(0.05333333333333334,0,0,0.05333333333333334,161.33333333333334,0)" xlink:href="#aH"/><use transform="matrix(0.05333333333333334,0,0,0.05333333333333334,175.14666666666668,0)" xlink:href="#aD"/><use transform="matrix(0.05333333333333334,0,0,0.05333333333333334,205.86666666666667,0)" xlink:href="#aw"/></g><path d="M103 0v-700h78v624h336V0H103" id="bf"/><g id="Z"><use transform="matrix(0.05333333333333334,0,0,0.05333333333333334,0,0)" xlink:href="#aV"/><use transform="matrix(0.05333333333333334,0,0,0.05333333333333334,19.093333333333334,0)" xlink:href="#aC"/><use transform="matrix(0.05333333333333334,0,0,0.05333333333333334,52.266666666666666,0)" xlink:href="#at"/><use transform="matrix(0.05333333333333334,0,0,0.05333333333333334,72.16,0)" xlink:href="#aH"/><use transform="matrix(0.05333333333333334,0,0,0.05333333333333334,85.97333333333333,0)" xlink:href="#aG"/><use transform="matrix(0.05333333333333334,0,0,0.05333333333333334,113.86666666666667,0)" xlink:href="#av"/><use transform="matrix(0.05333333333333334,0,0,0.05333333333333334,146.93333333333334,0)" xlink:href="#aw"/><use transform="matrix(0.05333333333333334,0,0,0.05333333333333334,166.45333333333332,0)" xlink:href="#ax"/><use transform="matrix(0.05333333333333334,0,0,0.05333333333333334,196.42666666666665,0)" xlink:href="#bf"/><use transform="matrix(0.05333333333333334,0,0,0.05333333333333334,226.6133333333333,0)" xlink:href="#aH"/><use transform="matrix(0.05333333333333334,0,0,0.05333333333333334,240.42666666666662,0)" xlink:href="#aD"/><use transform="matrix(0.05333333333333334,0,0,0.05333333333333334,271.14666666666665,0)" xlink:href="#bd"/><use transform="matrix(0.05333333333333334,0,0,0.05333333333333334,299.84,0)" xlink:href="#aL"/></g><g id="aa"><use transform="matrix(0.05333333333333334,0,0,0.05333333333333334,0,0)" xlink:href="#aN"/><use transform="matrix(0.05333333333333334,0,0,0.05333333333333334,31.94666666666667,0)" xlink:href="#aD"/><use transform="matrix(0.05333333333333334,0,0,0.05333333333333334,62.66666666666667,0)" xlink:href="#aB"/><use transform="matrix(0.05333333333333334,0,0,0.05333333333333334,95.78666666666668,0)" xlink:href="#au"/><use transform="matrix(0.05333333333333334,0,0,0.05333333333333334,128.96,0)" xlink:href="#as"/><use transform="matrix(0.05333333333333334,0,0,0.05333333333333334,161.33333333333334,0)" xlink:href="#aH"/><use transform="matrix(0.05333333333333334,0,0,0.05333333333333334,175.14666666666668,0)" xlink:href="#aD"/><use transform="matrix(0.05333333333333334,0,0,0.05333333333333334,205.86666666666667,0)" xlink:href="#aw"/><use transform="matrix(0.05333333333333334,0,0,0.05333333333333334,224.58666666666667,0)" xlink:href="#aL"/></g><g id="ab"><use transform="matrix(0.05333333333333334,0,0,0.05333333333333334,0,0)" xlink:href="#aC"/><use transform="matrix(0.05333333333333334,0,0,0.05333333333333334,33.17333333333333,0)" xlink:href="#ay"/><use transform="matrix(0.05333333333333334,0,0,0.05333333333333334,65.6,0)" xlink:href="#ar"/><use transform="matrix(0.05333333333333334,0,0,0.05333333333333334,102.72,0)" xlink:href="#aX"/></g></defs></g></svg>