<?xml version="1.0" encoding="UTF-8"?>
<!DOCTYPE svg PUBLIC "-//W3C//DTD SVG 1.1//EN" "http://www.w3.org/Graphics/SVG/1.1/DTD/svg11.dtd">
<svg version="1.1" xmlns="http://www.w3.org/2000/svg" xmlns:xlink="http://www.w3.org/1999/xlink" x="0px" y="0px" width="740" height="280" viewBox="0, 0, 740, 280">
  <g id="Layer 1">
    <g>
      <path d="M498.884,202.528 L391.338,106.388" fill-opacity="0" stroke="#4F4C4B" stroke-width="4"/>
      <path d="M495.685,206.106 L508.427,211.058 L502.083,198.949 z" fill="#4F4C4B" fill-opacity="1" stroke="#4F4C4B" stroke-width="4" stroke-opacity="1"/>
      <path d="M394.537,102.809 L381.795,97.857 L388.139,109.966 z" fill="#4F4C4B" fill-opacity="1" stroke="#4F4C4B" stroke-width="4" stroke-opacity="1"/>
    </g>
    <g>
      <path d="M241.338,202.528 L348.884,106.388" fill-opacity="0" stroke="#4F4C4B" stroke-width="4"/>
      <path d="M238.139,198.949 L231.795,211.058 L244.537,206.106 z" fill="#4F4C4B" fill-opacity="1" stroke="#4F4C4B" stroke-width="4" stroke-opacity="1"/>
      <path d="M352.083,109.966 L358.427,97.857 L345.685,102.809 z" fill="#4F4C4B" fill-opacity="1" stroke="#4F4C4B" stroke-width="4" stroke-opacity="1"/>
    </g>
    <g>
      <path d="M220,201.11 C220,199.945 217.094,199 213.504,199 L26.496,199 C22.91,199 20,199.945 20,201.11 L20,261.888 C20,263.054 22.91,264 26.496,264 L213.504,264 C217.094,264 220,263.054 220,261.888 L220,201.11" fill="#5CA831"/>
      <text transform="matrix(1, -0, 0, 1, 120, 231.5)">
        <tspan x="-76.087" y="12.242" font-family="GillSans" font-size="36" fill="#FFFFFE">Secondary</tspan>
      </text>
    </g>
    <g>
      <text transform="matrix(0.766, -0.643, 0.643, 0.766, 202.275, 112.513)">
        <tspan x="-67.354" y="-7.5" font-family="GillSans" font-size="30" fill="#2A86C0">Replication</tspan>
      </text>
      <g>
        <path d="M260.5,71.5 L139.002,173.536" fill-opacity="0" stroke="#2A86C0" stroke-width="8"/>
        <path d="M134.372,168.023 L124.299,185.884 L143.633,179.05 z" fill="#2A86C0" fill-opacity="1" stroke="#2A86C0" stroke-width="8" stroke-opacity="1"/>
      </g>
    </g>
    <g>
      <path d="M469.274,16.434 C469.274,15.269 466.369,14.324 462.778,14.324 L275.77,14.324 C272.184,14.324 269.274,15.269 269.274,16.434 L269.274,77.212 C269.274,78.379 272.184,79.324 275.77,79.324 L462.778,79.324 C466.369,79.324 469.274,78.379 469.274,77.212 L469.274,16.434" fill="#2A86C0"/>
      <text transform="matrix(1, 0, 0, 1, 369.274, 46.824)">
        <tspan x="-57.357" y="12" font-family="GillSans" font-size="36" fill="#FFFFFF">Primary</tspan>
      </text>
    </g>
    <text transform="matrix(1, -0, 0, 1, 370, 216)">
      <tspan x="-61.838" y="10" font-family="GillSans" font-size="30" fill="#4F4C4B">Heartbeat</tspan>
    </text>
    <g>
      <path d="M246.511,231.5 L493.711,231.5" fill-opacity="0" stroke="#4F4C4B" stroke-width="4"/>
      <path d="M246.511,226.7 L233.711,231.5 L246.511,236.3 z" fill="#4F4C4B" fill-opacity="1" stroke="#4F4C4B" stroke-width="4" stroke-opacity="1"/>
      <path d="M493.711,236.3 L506.511,231.5 L493.711,226.7 z" fill="#4F4C4B" fill-opacity="1" stroke="#4F4C4B" stroke-width="4" stroke-opacity="1"/>
    </g>
    <g>
      <path d="M720.406,201.11 C720.406,199.945 717.501,199 713.91,199 L526.902,199 C523.316,199 520.406,199.945 520.406,201.11 L520.406,261.888 C520.406,263.054 523.316,264 526.902,264 L713.91,264 C717.501,264 720.406,263.054 720.406,261.888 L720.406,201.11" fill="#E88B09"/>
      <text transform="matrix(1, -0, 0, 1, 620.406, 229.479)">
        <tspan x="-53.824" y="12" font-family="GillSans" font-size="36" fill="#FFFFFE">Arbiter</tspan>
      </text>
      <text transform="matrix(1, 0, 0, 1, 620.406, 255.5)">
        <tspan x="-26.432" y="2.5" font-family="GillSans" font-size="12" fill="#FFFFFF">(vote only)</tspan>
      </text>
    </g>
  </g>
  <defs/>
</svg>
