<?xml version="1.0" encoding="UTF-8"?>
<!DOCTYPE svg PUBLIC "-//W3C//DTD SVG 1.1//EN" "http://www.w3.org/Graphics/SVG/1.1/DTD/svg11.dtd">
<svg version="1.1" xmlns="http://www.w3.org/2000/svg" xmlns:xlink="http://www.w3.org/1999/xlink" x="0" y="0" width="330" height="360" viewBox="0, 0, 330, 360">
  <g id="Layer_1">
    <g>
      <path d="M318.398,208.419 C318.398,205.842 313.913,203.753 308.371,203.753 L19.688,203.753 C14.152,203.753 9.66,205.842 9.66,208.419 L9.66,342.828 C9.66,345.407 14.152,347.498 19.688,347.498 L308.371,347.498 C313.913,347.498 318.398,345.407 318.398,342.828 L318.398,208.419" fill="#5CA831"/>
      <path d="M318.398,208.419 C318.398,205.842 313.913,203.753 308.371,203.753 L19.688,203.753 C14.152,203.753 9.66,205.842 9.66,208.419 L9.66,342.828 C9.66,345.407 14.152,347.498 19.688,347.498 L308.371,347.498 C313.913,347.498 318.398,345.407 318.398,342.828 L318.398,208.419" fill-opacity="0" stroke="#5CA831" stroke-width="1"/>
    </g>
    <g>
      <path d="M318.398,18.955 C318.398,15.944 313.913,13.502 308.371,13.502 L19.688,13.502 C14.152,13.502 9.66,15.944 9.66,18.955 L9.66,176.044 C9.66,179.058 14.152,181.502 19.688,181.502 L308.371,181.502 C313.913,181.502 318.398,179.058 318.398,176.044 L318.398,18.955" fill="#5CA831"/>
      <path d="M318.398,18.955 C318.398,15.944 313.913,13.502 308.371,13.502 L19.688,13.502 C14.152,13.502 9.66,15.944 9.66,18.955 L9.66,176.044 C9.66,179.058 14.152,181.502 19.688,181.502 L308.371,181.502 C313.913,181.502 318.398,179.058 318.398,176.044 L318.398,18.955" fill-opacity="0" stroke="#5CA831" stroke-width="1"/>
    </g>
    <g>
      <g>
        <g>
          <g>
            <path d="M229.79,79.103 L277.46,79.103 L277.46,142.356 L229.79,142.356 z" fill="#FFFFFF"/>
            <path d="M229.79,79.103 L277.46,79.103 L277.46,142.356 L229.79,142.356 z" fill-opacity="0" stroke="#D33907" stroke-width="1"/>
          </g>
          <g>
            <path d="M221.286,86.252 L270.48,86.252 L270.48,150.237 L221.286,150.237 z" fill="#FFFFFF"/>
            <path d="M221.286,86.252 L270.48,86.252 L270.48,150.237 L221.286,150.237 z" fill-opacity="0" stroke="#D33907" stroke-width="1"/>
          </g>
        </g>
        <g>
          <path d="M215.199,93.714 L262.868,93.714 L262.868,156.308 L215.199,156.308 z" fill="#FFFFFF"/>
          <path d="M215.199,93.714 L262.868,93.714 L262.868,156.308 L215.199,156.308 z" fill-opacity="0" stroke="#D33907" stroke-width="1"/>
        </g>
        <g>
          <path d="M206.694,100.863 L255.888,100.863 L255.888,164.848 L206.694,164.848 z" fill="#FFFFFF"/>
          <path d="M206.694,100.863 L255.888,100.863 L255.888,164.848 L206.694,164.848 z" fill-opacity="0" stroke="#D33907" stroke-width="1"/>
        </g>
      </g>
      <path d="M196.072,71.409 L287.025,71.409 L287.025,172.53 L196.072,172.53 z" fill-opacity="0" stroke="#D33907" stroke-width="1"/>
    </g>
    <g>
      <g>
        <path d="M49.035,246.477 L123.09,246.477 L123.09,288.924 L49.035,288.924 z" fill="#FFFFFF"/>
        <path d="M49.035,246.477 L123.09,246.477 L123.09,288.924 L49.035,288.924 z" fill-opacity="0" stroke="#0C60B2" stroke-width="0.929"/>
      </g>
      <g>
        <path d="M35.823,250.818 L112.247,250.818 L112.247,289.668 L35.823,289.668 z" fill="#FFFFFF"/>
        <path d="M35.823,250.818 L112.247,250.818 L112.247,289.668 L35.823,289.668 z" fill-opacity="0" stroke="#0C60B2" stroke-width="0.929"/>
      </g>
    </g>
    <g>
      <g>
        <path d="M49.035,296.11 L123.09,296.11 L123.09,338.556 L49.035,338.556 z" fill="#FFFFFF"/>
        <path d="M49.035,296.11 L123.09,296.11 L123.09,338.556 L49.035,338.556 z" fill-opacity="0" stroke="#0C60B2" stroke-width="0.929"/>
      </g>
      <g>
        <path d="M35.823,300.451 L112.247,300.451 L112.247,339.3 L35.823,339.3 z" fill="#FFFFFF"/>
        <path d="M35.823,300.451 L112.247,300.451 L112.247,339.3 L35.823,339.3 z" fill-opacity="0" stroke="#0C60B2" stroke-width="0.929"/>
      </g>
    </g>
    <g>
      <g>
        <path d="M49.035,80.058 L123.09,80.058 L123.09,122.505 L49.035,122.505 z" fill="#FFFFFF"/>
        <path d="M49.035,80.058 L123.09,80.058 L123.09,122.505 L49.035,122.505 z" fill-opacity="0" stroke="#0C60B2" stroke-width="0.929"/>
      </g>
      <g>
        <path d="M35.823,84.399 L112.247,84.399 L112.247,123.249 L35.823,123.249 z" fill="#FFFFFF"/>
        <path d="M35.823,84.399 L112.247,84.399 L112.247,123.249 L35.823,123.249 z" fill-opacity="0" stroke="#0C60B2" stroke-width="0.929"/>
      </g>
    </g>
    <g>
      <g>
        <path d="M49.035,129.691 L123.09,129.691 L123.09,172.137 L49.035,172.137 z" fill="#FFFFFF"/>
        <path d="M49.035,129.691 L123.09,129.691 L123.09,172.137 L49.035,172.137 z" fill-opacity="0" stroke="#0C60B2" stroke-width="0.929"/>
      </g>
      <g>
        <path d="M35.823,134.031 L112.247,134.031 L112.247,172.881 L35.823,172.881 z" fill="#FFFFFF"/>
        <path d="M35.823,134.031 L112.247,134.031 L112.247,172.881 L35.823,172.881 z" fill-opacity="0" stroke="#0C60B2" stroke-width="0.929"/>
      </g>
    </g>
    <path d="M30.989,71.409 L127.392,71.409 C132.952,71.409 137.459,77.478 137.459,84.963 L137.459,333.943 C137.459,341.429 132.952,347.498 127.392,347.498 L30.989,347.498 C25.429,347.498 20.922,341.429 20.922,333.943 L20.922,84.963 C20.922,77.478 25.429,71.409 30.989,71.409 z" fill-opacity="0" stroke="#0C60B2" stroke-width="1" stroke-dasharray="2,2"/>
    <text transform="matrix(1, 0, 0, 1, 70.474, 56.285)">
      <tspan x="-50.052" y="6.5" font-family="GillSans" font-size="21" fill="#0C60B2">Collection1</tspan>
    </text>
    <text transform="matrix(1, 0, 0, 1, 159.036, 27.502)">
      <tspan x="-37.941" y="7.5" font-family="GillSans" font-size="24" fill="#FFFFFF">Shard A</tspan>
    </text>
    <text transform="matrix(1, 0, 0, 1, 245.624, 56.285)">
      <tspan x="-50.052" y="6.5" font-family="GillSans" font-size="21" fill="#D33907">Collection2</tspan>
    </text>
    <text transform="matrix(1, 0, 0, 1, 152.829, 217.601)">
      <tspan x="-37.895" y="7.5" font-family="GillSans" font-size="24" fill="#FFFFFF">Shard B</tspan>
    </text>
  </g>
</svg>
