<svg xmlns="http://www.w3.org/2000/svg" height="190" width="640"><path d="M6.2 10h1.9v.1l-.1.3-.1.4v9q0 1.3.2 2t.7 1.1q.4.5 1 .7l1.2.2q.7 0 1.3-.2.6-.2 1-.6.5-.5.7-1.2.3-.7.3-2V10h1.6v9.8q0 1.4-.3 2.4-.4 1-1 1.7-.7.7-1.6 1-.9.4-2 .4-1 0-2-.4-.8-.3-1.5-1-.6-.6-1-1.5-.3-1-.3-2.6V10zm12.2 0h4.8q1.3 0 2.1.4 1 .3 1.5.9.5.6.8 1.3.3.8.3 1.7 0 .8-.3 1.6-.3.7-.8 1.3-.5.6-1.4.9-.8.3-2 .3H20V25h-1.7V10zm1.7 1.6V17h3q1.7 0 2.3-.7.7-.7.8-1.9l-.2-1q-.2-.5-.6-.9l-.9-.6q-.5-.2-1.3-.2h-3zM30.3 10h3.5q1.9 0 3 .6 1 .5 1.8 1.5.7 1 1 2.4.4 1.4.4 3.1 0 1.7-.4 3.1-.4 1.4-1.2 2.4-.7 1-2 1.4-1.1.5-3 .5h-3.1V10zm1.6 1.5v12.2h1.5q2.6 0 3.8-1.5 1.2-1.6 1.2-4.5 0-3-1.1-4.6-1.1-1.6-3.6-1.6h-1.8zM41.4 25l5.2-15.2h.2L52.6 25h-1.7l-1.7-4.4h-4.7L43 25h-1.6zm7.4-5.7l-2-5.7-2 5.7h4zm4.9-9.3h10.4v1.5h-4.4V25H58V11.5h-4.3V10zm12.7 0h9.2v1.5H68v5h6.3V18H68v5.5h7.5V25h-9V10z" font-size="24" font-family="Inconsolata" fill="#004571"/><path d="M87.5 14h1.7v6.2q0 1 .2 1.7t.6 1.2q.3.4.8.6.4.2 1 .2.5 0 1-.3l1-.7q.4-.4.6-1.1.3-.7.3-1.7v-6h1.7v10q0 .5.2.9h-1.9v-1.7q-.5 1-1.4 1.5-1 .5-2 .5-.8 0-1.5-.3t-1.2-1q-.6-.6-.8-1.5-.3-1-.3-2.3V14zm20.9 1.5l-1 1.5q-.2 0-.2-.2v-.2q-.4-.6-1.2-1-.8-.5-1.8-.5l-1 .1-.7.3-.5.5q-.2.3-.2.7 0 .3.2.5l.4.4.9.5 1.5.4q2 .6 2.9 1.4.9.7.9 1.8 0 .7-.4 1.4-.3.6-.9 1.1-.6.5-1.4.8-.8.2-1.9.2-2.8 0-4.6-1.7l1-1.7v.2l.2.4.5.5 1.2.6.8.2 1 .1 1-.1.8-.4q.4-.2.6-.5.3-.3.3-.8 0-.6-.6-1t-2.1-.9l-1.4-.4-1.2-.6-.7-.6q-.4-.4-.5-.8l-.2-1q0-.6.3-1 .3-.6.8-1l1.4-.7q.8-.2 1.7-.2 2.5 0 4 1.7zm7.8-1.7q.9 0 1.7.3.8.3 1.4 1 .6.6 1 1.5.4 1 .4 2.4v.8h-7.9q0 1.1.4 2l.9 1.2 1.2.7 1.3.1q1.7 0 2.8-1.2l1 1q-1.4 1.6-3.9 1.6-1.2 0-2.2-.3-1-.4-1.7-1.1-.7-.7-1-1.8-.4-1-.4-2.4t.4-2.5q.4-1.1 1-1.8.7-.8 1.6-1.1 1-.4 2-.4zm-3.3 4.6h6V18q0-.6-.2-1-.2-.6-.6-1l-.9-.7q-.5-.2-1.1-.2-1.1 0-2 .8-1 .8-1.2 2.5zm11.5-4.4h1.8v2.1q.4-1.1 1.5-1.7 1.1-.6 2.4-.6 1.7 0 2.9 1.2l-.8 1.6-.5-.6-.5-.4q-.2-.2-.5-.2l-.7-.1q-.8 0-1.5.3-.7.4-1.2 1l-.9 1.4q-.3.8-.3 1.7V25h-1.7V14zm20 1.5l-1 1.5q-.2 0-.2-.2v-.2q-.4-.6-1.2-1-.8-.5-1.8-.5l-1 .1-.7.3-.5.5q-.2.3-.2.7 0 .3.2.5l.4.4.9.5 1.5.4q2 .6 2.9 1.4.9.7.9 1.8 0 .7-.4 1.4-.3.6-.9 1.1-.6.5-1.4.8-.8.2-1.9.2-2.8 0-4.6-1.7l1-1.7v.2l.2.4.5.5 1.2.6.8.2 1 .1 1-.1.8-.4q.4-.2.6-.5.3-.3.3-.8 0-.6-.6-1t-2.1-.9l-1.4-.4-1.2-.6-.7-.6q-.4-.4-.5-.8l-.2-1q0-.6.3-1 .3-.6.8-1l1.4-.7q.8-.2 1.7-.2 2.5 0 4 1.7z" font-size="24" font-family="Inconsolata" fill="#3299cc"/><path d="M15.4 41.8l-1 1.5-.2-.2v-.3q-.5-.6-1.3-1-.7-.5-1.9-.5-1 0-1.8.7-.7.6-.7 1.5l.1 1 .6.7 1 .7 2 .8 1.8 1q.7.4 1.1.9.5.5.6 1 .2.6.2 1.3 0 .8-.3 1.6-.3.7-.9 1.4-.6.6-1.5 1-1 .3-2.3.3-2.9 0-4.7-1.9l1-1.7q.2 0 .2.2v.3q.6.7 1.5 1.2 1 .4 2.3.4l1.2-.2q.6-.2 1-.6.4-.4.6-.9.3-.5.3-1t-.3-1q-.1-.4-.5-.7l-1-.6-1.8-.8-2-1-1.2-.9q-.5-.5-.7-1l-.2-1.2q0-.8.4-1.5.3-.8 1-1.3.5-.5 1.4-.8.8-.3 1.8-.3 1.2 0 2.3.5 1 .4 1.8 1.3zm3-1.8h9.2v1.5H20v5h6.3V48H20v5.5h7.5V55h-9V40zm11.3 0h10.4v1.5h-4.4V55H34V41.5h-4.3V40z" font-size="24" font-family="Inconsolata" fill="#004571"/><path d="M88.6 55V44h1.8v2q.6-1 1.6-1.6 1-.6 2-.6.7 0 1.3.2.7.3 1.1.8.5.6.7 1.4.3.9.3 2.2V55h-1.7v-6.6q0-1.7-.6-2.4t-1.5-.7l-1 .2q-.7.3-1.1.7-.5.4-.8 1-.3.7-.3 1.5V55h-1.8zm12.6-9.7q1.4-1.5 3.9-1.5 2 0 3.2 1 1.1 1 1.1 3.4V55h-1.6v-1.2q-1.7 1.5-4 1.5-.8 0-1.5-.3t-1.1-.7q-.5-.4-.8-1l-.2-1q0-1.7 1.4-2.7 1.4-1 4.1-1h2V48q0-1.6-.6-2.2-.7-.7-2.1-.7-1.8 0-3 1.2l-.8-1zm6.7 4.6h-1.7l-2.1.1q-.9.2-1.4.5-.4.3-.6.7-.2.4-.2.9 0 .7.7 1.3.6.5 1.6.5.8 0 1.3-.2l1-.5.7-.7.4-.6q.3-.5.3-1.3v-.7zM112 55V44h1.5v1.1q.4-.6 1-1 .6-.3 1.3-.3.6 0 1.2.4.5.5.7 1.2.3-.7 1-1.2.6-.4 1.4-.4 1.1 0 1.7.8.5.8.5 2V55h-1.6v-7.8l-.1-1.2q0-.4-.2-.6l-.4-.3h-.4l-.6.2-.6.6-.4 1-.1.9V55h-1.6v-7.6q0-1.4-.3-1.9-.2-.4-.8-.4-.6 0-1.2.7-.5.7-.5 1.9V55h-1.6zm17.2-11.2q.9 0 1.7.3.8.3 1.4 1 .6.6 1 1.5.4 1 .4 2.4v.8h-7.9q0 1.1.4 2l.9 1.2 1.2.7 1.3.1q1.7 0 2.8-1.2l1 1q-1.4 1.6-3.9 1.6-1.2 0-2.2-.3-1-.4-1.7-1.1-.7-.7-1-1.8-.4-1-.4-2.4t.4-2.5q.4-1.1 1-1.8.7-.8 1.6-1.1 1-.4 2-.4zm-3.3 4.6h6V48q0-.6-.2-1-.2-.6-.6-1l-.9-.7q-.5-.2-1.1-.2-1.1 0-2 .8-1 .8-1.2 2.5zm22.1-3.9h10V46h-10v-1.5zm0 5h10v1.4h-10v-1.4zm28.7-7.7l-.2-1.5q0-.6.4-1 .3-.3.7-.3.4 0 .7.4.4.3.4 1.1l-.3 1.2-.5 1.8-.6 1.6-1.4-.3.6-1.6.1-.7.1-.7zm8.5 3.5q1.4-1.5 3.9-1.5 2 0 3.2 1 1.1 1 1.1 3.4V55h-1.6v-1.2q-1.7 1.5-4 1.5-.8 0-1.5-.3t-1.1-.7q-.5-.4-.8-1l-.2-1q0-1.7 1.4-2.7 1.4-1 4.1-1h2V48q0-1.6-.6-2.2-.7-.7-2.1-.7-1.8 0-3 1.2l-.8-1zm6.7 4.6h-1.7l-2.1.1q-.9.2-1.4.5-.4.3-.6.7-.2.4-.2.9 0 .7.7 1.3.6.5 1.6.5.8 0 1.3-.2l1-.5.7-.7.4-.6q.3-.5.3-1.3v-.7zM196 55V44h1.5v1.1q.4-.6 1-1 .6-.3 1.3-.3.6 0 1.2.4.5.5.7 1.2.3-.7 1-1.2.6-.4 1.4-.4 1.1 0 1.7.8.5.8.5 2V55h-1.6v-7.8l-.1-1.2q0-.4-.2-.6l-.4-.3h-.4l-.6.2-.6.6-.4 1-.1.9V55h-1.6v-7.6q0-1.4-.3-1.9-.2-.4-.8-.4-.6 0-1.2.7-.5.7-.5 1.9V55h-1.6zm12.4-10.2l-.3-.8h2.1v.8l3.2 8 2.1-5.9.5-1.5.3-1.4h1.8l-.5 1.4-.6 1.8-3 7.8-.4 1.2q-.6 1.7-1.5 2.3-.9.7-2 .7-1.6 0-2.6-1l1-1.5v.2l.1.2.1.1q.1.2.3.2.1.2.4.3h.5q.7 0 1.2-.4.6-.4 1.1-1.5l.3-.8-4-10.2zm16.3-3l-.2-1.5q0-.6.4-1 .3-.3.7-.3.4 0 .7.4.4.3.4 1.1l-.3 1.2-.5 1.8-.6 1.6-1.4-.3.6-1.6.1-.7.1-.7z" font-size="24" font-family="Inconsolata" fill="#3299cc"/><path d="M5.4 130H7l1.6 10.2 2.4-9h.5l2.4 9 1.4-10.2h1.4l-2.4 15.1h-.6l-2.6-9.9-2.6 9.9h-.7l-2.4-15zm12.9 0h1.9v.3l-.2.3v5.9h6V130h1.8v.3l-.1.3V145H26v-7h-6v7.1h-1.7v-15zm12.1 0h9.2v1.5H32v5h6.3v1.5H32v5.5h7.5v1.5h-9v-15zm11.9 0h4.5q2.6 0 3.8 1.2 1.1 1.2 1.1 3.1 0 .7-.2 1.3l-.6 1.2-1 1q-.5.4-1.2.5L52 145h-1.8l-3.3-6.6h-3v6.6h-1.7v-15zm1.7 1.6v5.3h3q1.6 0 2.3-.7.7-.7.7-1.9 0-.6-.2-1l-.5-.9-1-.6q-.5-.2-1.3-.2h-3zm10.4-1.6h9.2v1.5H56v5h6.3v1.5H56v5.5h7.5v1.5h-9v-15z" font-size="24" font-family="Inconsolata" fill="#004069"/><path d="M87.6 145v-11h1.8v2q.6-1 1.6-1.6 1-.6 2-.6.7 0 1.3.2.7.3 1.1.8.5.6.7 1.4.3.9.3 2.2v6.6h-1.7v-6.6q0-1.7-.6-2.4t-1.5-.7l-1 .2q-.7.3-1.1.7-.5.4-.8 1-.3.7-.3 1.5v6.3h-1.8zm12.6-9.7q1.4-1.5 3.9-1.5 2 0 3.2 1 1.1 1 1.1 3.4v6.8h-1.6v-1.2q-1.7 1.5-4 1.5-.8 0-1.5-.3t-1.1-.7q-.5-.4-.8-1l-.2-1q0-1.7 1.4-2.7 1.4-1 4.1-1h2v-.5q0-1.6-.6-2.2-.7-.7-2.1-.7-1.8 0-3 1.2l-.8-1zm6.7 4.6h-1.7l-2.1.1q-.9.2-1.4.5-.4.3-.6.7-.2.4-.2.9 0 .7.7 1.3.6.5 1.6.5.8 0 1.3-.2l1-.5.7-.7.4-.6q.3-.5.3-1.3v-.7zm4.1 5.1v-11h1.5v1.1q.4-.6 1-1 .6-.3 1.3-.3.6 0 1.2.4.5.5.7 1.2.3-.7 1-1.2.6-.4 1.4-.4 1.1 0 1.7.8.5.8.5 2v8.4h-1.6v-7.8l-.1-1.2q0-.4-.2-.6l-.4-.3h-.4l-.6.2-.6.6-.4 1-.1.9v7.2h-1.6v-7.6q0-1.4-.3-1.9-.2-.4-.8-.4-.6 0-1.2.7-.5.7-.5 1.9v7.3h-1.6zm17.2-11.2q.9 0 1.7.3.8.3 1.4 1 .6.6 1 1.5.4 1 .4 2.4v.8h-7.9q0 1.1.4 2l.9 1.2 1.2.7 1.3.1q1.7 0 2.8-1.2l1 1q-1.4 1.6-3.9 1.6-1.2 0-2.2-.3-1-.4-1.7-1.1-.7-.7-1-1.8-.4-1-.4-2.4t.4-2.5q.4-1.1 1-1.8.7-.8 1.6-1.1 1-.4 2-.4zm-3.3 4.6h6v-.4q0-.6-.2-1-.2-.6-.6-1l-.9-.7q-.5-.2-1.1-.2-1.1 0-2 .8-1 .8-1.2 2.5zm22.1-3.9h10v1.5h-10v-1.5zm0 5h10v1.4h-10v-1.4zm28.7-7.7l-.2-1.5q0-.6.4-1 .3-.3.7-.3.4 0 .7.4.4.3.4 1.1l-.3 1.2-.5 1.8-.6 1.6-1.4-.3.6-1.6.1-.7.1-.7zm16.7 3.7l-1 1.5q-.2 0-.2-.2v-.2q-.4-.6-1.2-1-.8-.5-1.8-.5l-1 .1-.7.3-.5.5q-.2.3-.2.7 0 .3.2.5l.4.4.9.5 1.5.4q2 .6 2.9 1.4.9.7.9 1.8 0 .7-.4 1.4-.3.6-.9 1.1-.6.5-1.4.8-.8.2-1.9.2-2.8 0-4.6-1.7l1-1.7v.2l.2.4.5.5 1.2.6.8.2 1 .1 1-.1.8-.4q.4-.2.6-.5.3-.3.3-.8 0-.6-.6-1t-2.1-.9l-1.4-.4-1.2-.6-.7-.6q-.4-.4-.5-.8l-.2-1q0-.6.3-1 .3-.6.8-1l1.4-.7q.8-.2 1.7-.2 2.5 0 4 1.7zm3.1-1.5h1.7v6.2q0 1 .2 1.7t.6 1.2q.3.4.8.6.4.2 1 .2.5 0 1-.3l1-.7q.4-.4.6-1.1.3-.7.3-1.7v-6h1.7v10q0 .5.2.9h-1.9v-1.7q-.5 1-1.4 1.5-1 .5-2 .5-.8 0-1.5-.3t-1.2-1q-.6-.6-.8-1.5-.3-1-.3-2.3V134zm16.7-.2q.9 0 1.7.3.8.3 1.4 1 .6.6 1 1.5.4 1 .4 2.4v.8h-7.9q0 1.1.4 2l.9 1.2 1.2.7 1.3.1q1.7 0 2.8-1.2l1 1q-1.4 1.6-3.9 1.6-1.2 0-2.2-.3-1-.4-1.7-1.1-.7-.7-1-1.8-.4-1-.4-2.4t.4-2.5q.4-1.1 1-1.8.7-.8 1.6-1.1 1-.4 2-.4zm-3.3 4.6h6v-.4q0-.6-.2-1-.2-.6-.6-1l-.9-.7q-.5-.2-1.1-.2-1.1 0-2 .8-1 .8-1.2 2.5zm14.8-6.6l-.2-1.5q0-.6.4-1 .3-.3.7-.3.4 0 .7.4.4.3.4 1.1l-.3 1.2-.5 1.8-.6 1.6-1.4-.3.6-1.6.1-.7.1-.7zM89.2 75.3q1.4-1.5 3.9-1.5 2 0 3.2 1 1.1 1 1.1 3.4V85h-1.6v-1.2q-1.7 1.5-4 1.5-.8 0-1.5-.3t-1.1-.7q-.5-.4-.8-1l-.2-1q0-1.7 1.4-2.7 1.4-1 4.1-1h2V78q0-1.6-.6-2.2-.7-.7-2.1-.7-1.8 0-3 1.2l-.8-1zm6.7 4.6h-1.7l-2.1.1q-.9.2-1.4.5-.4.3-.6.7-.2.4-.2.9 0 .7.7 1.3.6.5 1.6.5.8 0 1.3-.2l1-.5.7-.7.4-.6q.3-.5.3-1.3v-.7zm6.8-4.1l-.5.8q-.2.4-.2.9l.2.9.5.8.8.5q.4.2 1 .2l.9-.2q.4-.2.7-.6.4-.3.6-.7l.1-1-.1-.8q-.2-.5-.6-.8-.3-.4-.8-.6-.4-.2-.9-.2-1 0-1.7.8zm4.4-1q1.2-1 2.8-1h.3l.2 1.4h-.6q-1.1 0-2 .4.6.9.6 1.9 0 .8-.3 1.5-.3.6-.9 1.2-.5.5-1.2.8-.7.3-1.6.3-.6 0-1.3-.3-.8.7-.8 1.2 0 .4.4.7.5.2 1.3.2h1.8l1.9.1q.8.2 1.3.6l.7.9.2 1q0 .7-.3 1.3-.3.6-1 1.1-.6.5-1.5.7-1 .3-2.2.3-1.3 0-2.3-.2-1-.2-1.5-.5-.6-.4-.9-.9-.3-.4-.3-1 0-1.3 1.8-2.4-.9-.4-.9-1.5 0-1 1.3-2-.8-.6-1.2-1.4-.5-.8-.5-1.6 0-.9.4-1.6.3-.7.9-1.2.5-.5 1.3-.8.7-.3 1.5-.3 1.6 0 2.6 1zm-4.2 9.6q-1.4.8-1.4 1.7 0 .5.3.8.2.3.7.5l1.1.3 1.4.1q1.4 0 2.4-.5t1-1.4q-.1-.7-.6-1-.5-.4-1.6-.4H103zm14.3-10.6q.9 0 1.7.3.8.3 1.4 1 .6.6 1 1.5.4 1 .4 2.4v.8h-7.9q0 1.1.4 2l.9 1.2 1.2.7 1.3.1q1.7 0 2.8-1.2l1 1q-1.4 1.6-3.9 1.6-1.2 0-2.2-.3-1-.4-1.7-1.1-.7-.7-1-1.8-.4-1-.4-2.4t.4-2.5q.4-1.1 1-1.8.7-.8 1.6-1.1 1-.4 2-.4zm-3.3 4.6h6V78q0-.6-.2-1-.2-.6-.6-1l-.9-.7q-.5-.2-1.1-.2-1.1 0-2 .8-1 .8-1.2 2.5zm22.1-3.9h10V76h-10v-1.5zm0 5h10v1.4h-10v-1.4zm28.7-7.7l-.2-1.5q0-.6.4-1 .3-.3.7-.3.4 0 .7.4.4.3.4 1.1l-.3 1.2-.5 1.8-.6 1.6-1.4-.3.6-1.6.1-.7.1-.7zm8.2.6q.6-1.2 1.7-1.8 1.2-.6 2.4-.6 1 0 1.7.3.8.3 1.4.9.6.6 1 1.3.3.8.3 1.7l-.2 1.3-.6 1.2-.7 1-1 1-1.4 1.3-.7.7-.8.9-.7 1-.6 1h6.3l.2-.2h.3V85h-8.7v-1q.8-1.8 1.9-3 1-1.4 2-2.2l1.1-1 1-1 .6-1 .3-.8v-.8q0-.6-.2-1l-.6-1-.9-.5q-.5-.3-1-.3-.6 0-1.1.2l-.9.4-.6.6-.2.4-.1.3-1.2-1zm12.6-2.4h7.6v1.6H187l-.3 4.3q1.2-.6 2.5-.6 1 0 1.7.3.9.4 1.5 1 .6.7 1 1.6.3 1 .3 2.1t-.4 2q-.3 1-1 1.6-.6.7-1.5 1-.8.4-1.8.4-1.4 0-2.6-.6-1.1-.6-1.9-1.7l1.5-1.1.1.2v.3l.4.4.6.5.9.4 1 .1 1.2-.2q.5-.3.9-.8.4-.4.6-1 .3-.7.3-1.6 0-.8-.3-1.5-.2-.6-.6-1-.4-.5-1-.8-.5-.2-1.2-.2-.8 0-1.5.4-.8.3-1.3 1l-1-.4.4-7.7zm15.2 1.8l-.2-1.5q0-.6.4-1 .3-.3.7-.3.4 0 .7.4.4.3.4 1.1l-.3 1.2-.5 1.8-.6 1.6-1.4-.3.6-1.6.1-.7.1-.7zM97.4 105.2l-1 1.5q-.2 0-.2-.2v-.3q-.4-.5-1.2-1-.8-.4-1.8-.4h-1l-.7.4-.5.5-.2.6.2.6.4.4.9.4 1.5.5q2 .6 2.9 1.3.9.8.9 1.9 0 .7-.4 1.3-.3.7-.9 1.2-.6.5-1.4.7-.8.3-1.9.3-2.8 0-4.6-1.7l1-1.7v.2l.2.4.5.5 1.2.6.8.2h2l.8-.4q.4-.2.6-.5.3-.4.3-.8 0-.6-.6-1-.6-.5-2.1-1l-1.4-.4-1.2-.5-.7-.6q-.4-.4-.5-.8l-.2-1q0-.6.3-1.1l.8-1q.6-.4 1.4-.6.8-.3 1.7-.3 2.5 0 4 1.8zm6.1-4.4l2-.3q0 .2-.2.3v.3l-.3 2.6h3.6v1.4H105l-.2 4v2q0 .8.2 1.2l.6.7q.4.3 1 .3 1.2 0 2.5-1l.6 1.4q-1.7 1.2-3.5 1.2-1.7 0-2.5-1-.8-1.1-.7-3.5v-2.2l.2-3h-2.5v-1.5h2.6l.2-3zm9.7 4.2q1.4-1.5 3.9-1.5 2 0 3.2 1 1.1 1 1.1 3.4v6.8h-1.6v-1.2q-1.7 1.4-4 1.4-.8 0-1.5-.2-.7-.3-1.1-.7l-.8-1-.2-1.1q0-1.7 1.4-2.6 1.4-1 4.1-1h2v-.5q0-1.6-.6-2.3-.7-.6-2.1-.6-1.8 0-3 1.2l-.8-1.1zm6.7 4.5h-1.7q-1.3 0-2.1.2-.9.2-1.4.5-.4.3-.6.7l-.2.8q0 .8.7 1.4.6.5 1.6.5.8 0 1.3-.2.6-.2 1-.6l.7-.6.4-.7q.3-.4.3-1.2v-.8zm7.6-8.7l2-.3q0 .2-.2.3v.3l-.3 2.6h3.6v1.4H129l-.2 4v2q0 .8.2 1.2l.6.7q.4.3 1 .3 1.2 0 2.5-1l.6 1.4q-1.7 1.2-3.5 1.2-1.7 0-2.5-1-.8-1.1-.7-3.5v-2.2l.2-3h-2.5v-1.5h2.6l.2-3zm9 2.9h1.7v6.1q0 1 .2 1.8.2.7.6 1.1.3.5.8.6.4.2 1 .2l1-.2 1-.7q.4-.5.6-1.2.3-.7.3-1.7v-6h1.7v10l.2 1h-1.9V113q-.5.9-1.4 1.4-1 .5-2 .5-.8 0-1.5-.3t-1.2-.9q-.6-.6-.8-1.6-.3-1-.3-2.3v-6.1zm20.9 1.5l-1 1.5q-.2 0-.2-.2v-.3q-.4-.5-1.2-1-.8-.4-1.8-.4h-1l-.7.4-.5.5-.2.6.2.6.4.4.9.4 1.5.5q2 .6 2.9 1.3.9.8.9 1.9 0 .7-.4 1.3-.3.7-.9 1.2-.6.5-1.4.7-.8.3-1.9.3-2.8 0-4.6-1.7l1-1.7v.2l.2.4.5.5 1.2.6.8.2h2l.8-.4q.4-.2.6-.5.3-.4.3-.8 0-.6-.6-1-.6-.5-2.1-1l-1.4-.4-1.2-.5-.7-.6q-.4-.4-.5-.8l-.2-1q0-.6.3-1.1l.8-1q.6-.4 1.4-.6.8-.3 1.7-.3 2.5 0 4 1.8zm14.6-1h10v1.4h-10v-1.4zm0 5h10v1.4h-10V109zm28.7-7.7l-.2-1.5q0-.7.4-1 .3-.3.7-.3.4 0 .7.3.4.4.4 1.2 0 .4-.3 1.1-.1.8-.5 1.9l-.6 1.6-1.4-.3.6-1.7.1-.6.1-.7zm12.5 1.9q.9 0 1.7.3.8.4 1.4 1 .6.6 1 1.6t.4 2.3v.8h-7.9q0 1.2.4 2l.9 1.2q.5.5 1.2.7.6.2 1.3.2 1.7 0 2.8-1.2l1 1q-1.4 1.6-3.9 1.6-1.2 0-2.2-.4-1-.3-1.7-1-.7-.8-1-1.8-.4-1.1-.4-2.5t.4-2.5q.4-1 1-1.8.7-.7 1.6-1 1-.5 2-.5zm-3.3 4.7h6v-.4q0-.6-.2-1.1-.2-.6-.6-1-.4-.4-.9-.6-.5-.2-1.1-.2-1.1 0-2 .8-1 .8-1.2 2.5zm10.7 6.6v-11h1.8v2q.6-1 1.6-1.7 1-.6 2-.6.7 0 1.3.3.7.2 1.1.8.5.5.7 1.4.3.9.3 2.1v6.7h-1.7V108q0-1.8-.6-2.5t-1.5-.7q-.5 0-1 .3-.7.2-1.1.7-.5.4-.8 1-.3.7-.3 1.5v6.3h-1.8zm12.8-11h1.8v2.1q.4-1.1 1.5-1.7 1.1-.7 2.4-.7 1.7 0 2.9 1.2l-.8 1.7-.5-.6-.5-.4-.5-.3h-.7q-.8 0-1.5.3-.7.4-1.2 1l-.9 1.4q-.3.8-.3 1.6v5.4h-1.7v-11zm15.7-.2q1 0 1.9.4.9.4 1.6 1 .6.8 1 2 .4 1 .4 2.3 0 1.3-.3 2.4-.4 1-1.1 1.8-.7.8-1.6 1.2-.9.4-2 .4-1 0-2-.5-.8-.4-1.5-1.2-.7-.7-1.1-1.8-.4-1-.4-2.3 0-1.2.4-2.3.4-1 1.1-1.8.7-.8 1.7-1.2.9-.4 1.9-.4zm3.2 5.7q0-1-.3-1.8-.2-.8-.7-1.3-.5-.6-1-.9-.6-.3-1.3-.3-.6 0-1.2.3t-1 .9q-.5.5-.8 1.3-.2.8-.2 1.7 0 1 .2 1.8l.7 1.4 1.1.9q.6.3 1.3.3.6 0 1.2-.3t1-.8q.5-.6.7-1.4.3-.7.3-1.8zm4.7-10.5h4.9v14.6h3.2v1.4h-8.2v-1.4h3.2V100h-3v-1.4zm12 0h4.9v14.6h3.2v1.4h-8.2v-1.4h3.2V100h-3v-1.4zm16.2 4.7q.9 0 1.7.3.8.4 1.4 1 .6.6 1 1.6t.4 2.3v.8h-7.9q0 1.2.4 2l.9 1.2q.5.5 1.2.7.6.2 1.3.2 1.7 0 2.8-1.2l1 1q-1.4 1.6-3.9 1.6-1.2 0-2.2-.4-1-.3-1.7-1-.7-.8-1-1.8-.4-1.1-.4-2.5t.4-2.5q.4-1 1-1.8.7-.7 1.6-1 1-.5 2-.5zm-3.3 4.7h6v-.4q0-.6-.2-1.1-.2-.6-.6-1-.4-.4-.9-.6-.5-.2-1.1-.2-1.1 0-2 .8-1 .8-1.2 2.5zm18-2.8v-6.6h1.9q0 .2-.2.3v15.7H300v-1.8q-.6 1-1.5 1.5-1 .5-1.9.5-.9 0-1.7-.4-.8-.3-1.4-1-.6-.8-1-1.8-.3-1.1-.3-2.6t.4-2.6q.4-1 1-1.7.7-.7 1.5-1 .8-.4 1.7-.4 1.1 0 2 .5.8.5 1.2 1.4zm-5.1.3q-1 1-1 3.2 0 2 .8 3.3.7 1.3 2.3 1.3l.7-.1.8-.4.7-.7q.3-.3.4-.8.3-.8.3-2.3l-.1-1.5q0-.6-.3-1-.1-.5-.3-.7l-.6-.5-.9-.4-.6-.2q-.7 0-1.2.2l-1 .6zm13.9-4.1l-.2-1.5q0-.7.4-1 .3-.3.7-.3.4 0 .7.3.4.4.4 1.2 0 .4-.3 1.1-.1.8-.5 1.9l-.6 1.6-1.4-.3.6-1.7.1-.6.1-.7zM93.2 160v15h-1.7v-12.9l-3 .9-.4-1 4-2h1z" font-size="24" font-family="Inconsolata" fill="#3299cc"/><path d="M6.6 160h2l-.2.4v13.1h7.1v1.5h-9v-15zm12.5 0h7.4v1.5h-3v12.1h3.2v1.4h-7.8v-1.4h3v-12.1h-2.8V160zm10.9 0h1.3l3.7 7.4 3.8-7.4H40v15h-1.5v-11.3l-3.3 6h-.6l-3-6V175H30v-15zm13.1 0h7.4v1.5h-3v12.1h3.2v1.4h-7.8v-1.4h3v-12.1h-2.8V160zm10.6 0h10.4v1.5h-4.4V175H58v-13.5h-4.3V160z" font-size="24" font-family="Inconsolata" fill="#004069"/><path d="M471 19.6l-140-.2" stroke="#6cb340" stroke-width="2" fill="none"/><path d="M331 12v15l-10-7.6 10-7.4z" fill="#6cb340"/><path d="M481 16l4-4v2.2h3.4v2H485v5.2q0 1.9 1.5 1.9 1.2 0 2.5-.8v2q-1.3.7-2.7.7-1.5 0-2.5-.9l-.5-.5-.3-.9-.1-2v-4.8H481V16zm16.3 2.5v4.6q0 .6.4.6t1.2-.6v1.3l-1.2.6q-.4.2-.9.2-1.4 0-1.6-1-1.4 1-3 1-1 0-1.8-.8-.7-.7-.7-1.8 0-1 .7-1.9.7-.8 2-1.2l2.8-1V18q0-1.9-2-1.9-1.7 0-3.3 1.8v-2.3q1.2-1.5 3.5-1.5 1.8 0 2.8 1 .4.2.7.7l.3 1 .1 1.8zm-2.1 4.4v-3.2l-1.4.5q-1.1.5-1.6.9-.4.4-.4 1 0 .8.4 1.2.4.4 1.1.4 1 0 1.9-.8zm5.5-14.3h2.1V15q1.4-1 3-1 2 0 3.3 1.5 1.3 1.6 1.3 4 0 2.6-1.5 4.2-1.6 1.5-4.2 1.5l-2.2-.2-1.8-.6V8.6zm2.1 8.4v6q1.1.3 2.3.3 1.4 0 2.3-1 .9-1 .9-2.6t-.9-2.6q-.8-1-2.1-1-1.2 0-2.5 1zm10-8.4h2.2V25h-2.2V8.6zm14.5 11.2h-7.6q0 1.5 1 2.5 1 .9 2.5.9 2.1 0 3.9-1.3v2q-1 .7-2 1-1 .3-2.2.3-1.8 0-3-.8-1-.7-1.7-2-.6-1.2-.6-2.8 0-2.5 1.4-4 1.4-1.6 3.6-1.6 2.1 0 3.4 1.5 1.3 1.5 1.3 4v.3zm-7.6-1.3h5.5q-.1-1.3-.8-2-.7-.6-1.8-.6-1.2 0-2 .7-.6.6-.9 2zM489.4 57v-1.4q-.7.8-1.6 1.2-.8.4-1.7.4-1 0-1.9-.5-.9-.5-1.3-1.4-.4-.9-.4-3v-6h2.1v6q0 1.8.5 2.5.5.6 1.7.6 1.5 0 2.6-1.5v-7.7h2.1V57h-2.1zm5 5.5V46.2h3.7q2.9 0 4.5 1.4 1.6 1.5 1.6 4t-1.5 4q-1.5 1.6-3.9 1.6-1 0-2.2-.5v5.8h-2.2zm3.7-14.3h-1.5v6.6q1 .5 2 .5 1.5 0 2.5-1t1-2.7q0-1-.5-1.8-.5-.9-1.3-1.2-.7-.4-2.2-.4zm15.6-7.6h2.2V57h-4.6q-2.4 0-3.8-1.5t-1.4-4q0-2.4 1.4-4 1.5-1.5 3.9-1.5 1 0 2.3.4v-5.8zm0 14.6v-6.9q-1-.5-2-.5-1.6 0-2.6 1-.9 1.1-.9 2.9 0 1.7.8 2.6.5.5 1 .7.6.2 2 .2h1.7zm11.8-4.7v4.6q0 .6.4.6t1.2-.6v1.3l-1.2.6q-.4.2-.9.2-1.4 0-1.6-1-1.4 1-2.9 1-1.1 0-1.9-.8-.7-.7-.7-1.8 0-1 .7-1.9.7-.8 2-1.2l2.8-1V50q0-1.9-2-1.9-1.7 0-3.3 1.8v-2.3q1.2-1.5 3.6-1.5 1.7 0 2.8 1l.6.7q.3.5.3 1l.1 1.8zm-2 4.4v-3.2l-1.5.5q-1.1.5-1.6.9-.4.4-.4 1 0 .8.4 1.2.5.4 1.1.4 1 0 2-.8zm4-6.9l4-4v2.2h3.4v2h-3.4v5.2q0 1.9 1.5 1.9 1.2 0 2.5-.8v2q-1.3.7-2.7.7-1.5 0-2.5-.9l-.5-.5-.3-.9-.1-2v-4.8h-1.9V48zm18.7 3.8h-7.6q.1 1.5 1 2.5 1 .9 2.5.9 2.1 0 4-1.3v2q-1 .7-2 1-1 .3-2.3.3-1.8 0-2.9-.8-1-.7-1.7-2-.7-1.2-.7-2.8 0-2.5 1.4-4 1.4-1.6 3.6-1.6t3.4 1.5q1.3 1.5 1.3 4v.3zm-7.5-1.3h5.4q0-1.3-.8-2-.6-.6-1.8-.6-1.1 0-1.9.7-.7.6-1 2zm23.3 0v4.6q0 .6.3.6.4 0 1.2-.6v1.3l-1.1.6-1 .2q-1.3 0-1.6-1-1.3 1-2.9 1-1.1 0-1.8-.8-.8-.7-.8-1.8 0-1 .7-1.9.8-.8 2.1-1.2l2.7-1V50q0-1.9-1.9-1.9-1.7 0-3.4 1.8v-2.3q1.2-1.5 3.6-1.5 1.7 0 2.8 1l.6.7.4 1v1.8zm-2.2 4.4v-3.2l-1.4.5-1.5.9q-.5.4-.5 1 0 .8.4 1.2.5.4 1.2.4 1 0 1.8-.8zm13.7-.4v2q-1.6.7-3.1.7-2.6 0-4-1.5-1.6-1.5-1.6-4 0-2.6 1.5-4.1 1.5-1.6 3.9-1.6.8 0 1.4.2.7.1 1.7.6V49q-1.6-1-3-1-1.5 0-2.4 1-1 1-1 2.6t1 2.6q1.1 1 2.8 1 1.2 0 2.8-.7zm.9-6.5l4-4v2.2h3.4v2h-3.4v5.2q0 1.9 1.6 1.9 1.1 0 2.4-.8v2q-1.2.7-2.7.7-1.5 0-2.4-.9l-.5-.5-.4-.9-.1-2v-4.8h-1.9V48zm10.6-6.3q.6 0 1 .3.3.4.3 1 0 .5-.3.8-.4.4-1 .4-.4 0-.8-.4t-.4-.9q0-.5.4-.8.4-.4.9-.4zm-1 4.5h2.1V57H584V46.2zm10.4 0q2.4 0 4 1.6 1.7 1.6 1.7 4 0 2.3-1.7 3.9-1.6 1.5-4.1 1.5-2.5 0-4-1.6-1.7-1.5-1.7-3.9t1.6-4q1.7-1.5 4.2-1.5zm-.2 2q-1.5 0-2.5 1t-1 2.5q0 1.5 1 2.5t2.6 1q1.6 0 2.6-1t1-2.5q0-1.6-1-2.6t-2.7-1zm10.4-2v1.4q1.4-1.6 3.2-1.6 1 0 1.9.5.8.6 1.3 1.5.4.9.4 2.8V57h-2v-6.1q0-1.7-.6-2.4-.5-.7-1.7-.7-1.5 0-2.5 1.5V57h-2.2V46.2h2.2z" font-size="24" font-family="GillSans" fill="#3299cc"/><path d="M471 49.7l-140-.2" stroke="#6cb340" stroke-width="2" fill="none"/><path d="M331 42v15l-10-7.6 10-7.4z" fill="#6cb340"/><path d="M489.5 87v-1.4q-.7.8-1.6 1.2-.8.4-1.7.4-1 0-1.9-.5-.8-.5-1.3-1.4-.4-.9-.4-3v-6h2.1v6q0 1.8.5 2.4.5.7 1.7.7 1.5 0 2.6-1.5v-7.7h2.1V87h-2.1zm5 5.5V76.2h3.7q2.9 0 4.5 1.4 1.6 1.5 1.6 4t-1.5 4q-1.5 1.6-3.8 1.6-1 0-2.3-.5v5.8h-2.2zm3.7-14.3h-1.5v6.6q1 .5 2 .5 1.5 0 2.5-1t1-2.7q0-1-.5-1.8-.5-.9-1.2-1.2-.8-.4-2.3-.4zm15.6-7.6h2.2V87h-4.6q-2.4 0-3.8-1.5t-1.4-4q0-2.4 1.5-4 1.5-1.5 3.8-1.5 1 0 2.3.4v-5.8zm0 14.6v-6.9q-1-.5-2-.5-1.6 0-2.5 1-1 1.1-1 2.9 0 1.7.8 2.6.5.5 1 .7.6.2 2 .2h1.7zm11.8-4.7v4.6q0 .6.4.6t1.2-.6v1.3l-1.2.6q-.4.2-.9.2-1.3 0-1.6-1-1.3 1-2.9 1-1.1 0-1.9-.8-.7-.7-.7-1.8 0-1 .7-1.9.8-.8 2.1-1.2l2.7-1V80q0-1.9-2-1.9-1.7 0-3.3 1.8v-2.3q1.2-1.5 3.6-1.5 1.7 0 2.8 1l.6.7.4 1v1.8zm-2 4.4v-3.2l-1.5.5-1.5.9q-.5.4-.5 1 0 .8.4 1.2.5.4 1.2.4 1 0 1.8-.8zm4-6.9l4-4v2.2h3.4v2h-3.4v5.2q0 1.9 1.6 1.9 1.1 0 2.4-.8v2q-1.2.7-2.7.7-1.5 0-2.4-.9l-.5-.5-.4-.9-.1-2v-4.8h-1.9V78zm18.7 3.8h-7.5q0 1.5 1 2.5 1 .9 2.5.9 2 0 3.8-1.3v2q-1 .7-2 1-.9.3-2.2.3-1.8 0-2.9-.8-1-.7-1.7-2-.7-1.2-.7-2.8 0-2.5 1.4-4 1.4-1.6 3.6-1.6t3.5 1.5q1.2 1.5 1.2 4v.3zm-7.5-1.3h5.4q0-1.3-.7-2-.7-.6-1.9-.6-1.1 0-1.9.7-.7.6-.9 2zm23.2 0v4.6q0 .6.4.6t1.2-.6v1.3l-1.1.6-1 .2q-1.3 0-1.6-1-1.3 1-2.9 1-1 0-1.8-.8-.8-.7-.8-1.8 0-1 .7-1.9.8-.8 2.1-1.2l2.8-1V80q0-1.9-2-1.9-1.7 0-3.4 1.8v-2.3q1.3-1.5 3.6-1.5 1.7 0 2.8 1l.6.7.4 1v1.8zm-2 4.4v-3.2l-1.5.5-1.5.9q-.5.4-.5 1 0 .8.5 1.2.4.4 1 .4 1 0 2-.8zm13.6-.4v2q-1.6.7-3.1.7-2.5 0-4-1.5t-1.5-4q0-2.6 1.4-4.1 1.5-1.6 3.9-1.6.8 0 1.5.2.6.1 1.6.6V79q-1.6-1-3-1t-2.4 1q-.9 1-.9 2.6 0 1.7 1 2.6 1 1 2.7 1 1.2 0 2.8-.7zm.9-6.5l4-4v2.2h3.5v2h-3.5v5.2q0 1.9 1.6 1.9 1.1 0 2.4-.8v2q-1.2.7-2.7.7-1.4 0-2.4-.9l-.5-.5-.4-.9v-6.8h-2V78zm10.7-6.3q.5 0 .9.3.3.4.3 1 0 .5-.3.8-.4.4-1 .4-.4 0-.8-.4t-.4-.9q0-.5.4-.8.4-.4.9-.4zm-1 4.5h2V87h-2V76.2zm10.3 0q2.4 0 4 1.6 1.7 1.6 1.7 4 0 2.3-1.7 3.9-1.6 1.5-4.1 1.5-2.4 0-4-1.6-1.7-1.5-1.7-3.9t1.6-4q1.7-1.5 4.2-1.5zm-.1 2q-1.6 0-2.6 1t-1 2.5q0 1.5 1 2.5t2.7 1q1.5 0 2.5-1t1-2.5q0-1.6-1-2.6t-2.6-1zm10.3-2v1.4q1.4-1.6 3.2-1.6 1 0 1.9.5.9.6 1.3 1.5.5.9.5 2.8V87h-2.2v-6.1q0-1.7-.5-2.4t-1.7-.7q-1.5 0-2.5 1.5V87h-2.2V76.2h2.2z" font-size="24" font-family="GillSans" fill="#3299cc"/><path d="M471.1 79.9l-140-.2" stroke="#6cb340" stroke-width="2" fill="none"/><path d="M331.1 72v15l-10-7.6 10-7.4z" fill="#6cb340"/><path d="M489.5 117v-1.4q-.7.8-1.6 1.2-.8.4-1.7.4-1 0-1.9-.5-.8-.5-1.3-1.4-.4-.9-.4-3v-6h2.1v6q0 1.8.5 2.4.5.7 1.7.7 1.5 0 2.6-1.5v-7.7h2.1V117h-2.1zm5 5.5v-16.3h3.7q2.9 0 4.5 1.4 1.6 1.5 1.6 4t-1.5 4q-1.5 1.6-3.8 1.6-1 0-2.3-.5v5.8h-2.2zm3.7-14.3h-1.5v6.6q1 .5 2 .5 1.5 0 2.5-1t1-2.7q0-1-.5-1.8-.5-.9-1.2-1.2-.8-.4-2.3-.4zm15.6-7.6h2.2V117h-4.6q-2.4 0-3.8-1.5t-1.4-4q0-2.4 1.5-4 1.5-1.5 3.8-1.5 1 0 2.3.4v-5.8zm0 14.6v-6.9q-1-.5-2-.5-1.6 0-2.5 1-1 1.1-1 2.9 0 1.7.8 2.6.5.5 1 .7.6.2 2 .2h1.7zm11.8-4.7v4.6q0 .6.4.6t1.2-.6v1.3l-1.2.6q-.4.2-.9.2-1.3 0-1.6-1-1.3 1-2.9 1-1.1 0-1.9-.8-.7-.7-.7-1.8 0-1 .7-1.9.8-.8 2.1-1.2l2.7-1v-.6q0-1.9-2-1.9-1.7 0-3.3 1.8v-2.3q1.2-1.5 3.6-1.5 1.7 0 2.8 1l.6.7.4 1v1.8zm-2 4.4v-3.2l-1.5.5-1.5.9q-.5.4-.5 1 0 .8.4 1.2.5.4 1.2.4 1 0 1.8-.8zm4-6.9l4-4v2.2h3.4v2h-3.4v5.2q0 1.9 1.6 1.9 1.1 0 2.4-.8v2q-1.2.7-2.7.7-1.5 0-2.4-.9l-.5-.5-.4-.9-.1-2v-4.8h-1.9v-.2zm18.7 3.8h-7.5q0 1.5 1 2.5 1 .9 2.5.9 2 0 3.8-1.3v2q-1 .7-2 1-.9.3-2.2.3-1.8 0-2.9-.8-1-.7-1.7-2-.7-1.2-.7-2.8 0-2.5 1.4-4 1.4-1.6 3.6-1.6t3.5 1.5q1.2 1.5 1.2 4v.3zm-7.5-1.3h5.4q0-1.3-.7-2-.7-.6-1.9-.6-1.1 0-1.9.7-.7.6-.9 2zm23.2 0v4.6q0 .6.4.6t1.2-.6v1.3l-1.1.6-1 .2q-1.3 0-1.6-1-1.3 1-2.9 1-1 0-1.8-.8-.8-.7-.8-1.8 0-1 .7-1.9.8-.8 2.1-1.2l2.8-1v-.6q0-1.9-2-1.9-1.7 0-3.4 1.8v-2.3q1.3-1.5 3.6-1.5 1.7 0 2.8 1l.6.7.4 1v1.8zm-2 4.4v-3.2l-1.5.5-1.5.9q-.5.4-.5 1 0 .8.5 1.2.4.4 1 .4 1 0 2-.8zm13.6-.4v2q-1.6.7-3.1.7-2.5 0-4-1.5t-1.5-4q0-2.6 1.4-4.1 1.5-1.6 3.9-1.6.8 0 1.5.2.6.1 1.6.6v2.2q-1.6-1-3-1t-2.4 1q-.9 1-.9 2.6 0 1.7 1 2.6 1 1 2.7 1 1.2 0 2.8-.7zm.9-6.5l4-4v2.2h3.5v2h-3.5v5.2q0 1.9 1.6 1.9 1.1 0 2.4-.8v2q-1.2.7-2.7.7-1.4 0-2.4-.9l-.5-.5-.4-.9v-6.8h-2v-.2zm10.7-6.3q.5 0 .9.3.3.4.3 1 0 .5-.3.8-.4.4-1 .4-.4 0-.8-.4t-.4-.9q0-.5.4-.8.4-.4.9-.4zm-1 4.5h2V117h-2v-10.8zm10.3 0q2.4 0 4 1.6 1.7 1.6 1.7 4 0 2.3-1.7 3.9-1.6 1.5-4.1 1.5-2.4 0-4-1.6-1.7-1.5-1.7-3.9t1.6-4q1.7-1.5 4.2-1.5zm-.1 2q-1.6 0-2.6 1t-1 2.5q0 1.5 1 2.5t2.7 1q1.5 0 2.5-1t1-2.5q0-1.6-1-2.6t-2.6-1zm10.3-2v1.4q1.4-1.6 3.2-1.6 1 0 1.9.5.9.6 1.3 1.5.5.9.5 2.8v6.2h-2.2v-6.1q0-1.7-.5-2.4t-1.7-.7q-1.5 0-2.5 1.5v7.7h-2.2v-10.8h2.2z" font-size="24" font-family="GillSans" fill="#3299cc"/><path d="M471.1 109.2l-140-.2" stroke="#6cb340" stroke-width="2" fill="none"/><path d="M331 101.5v15l-10-7.6 10-7.4z" fill="#6cb340"/><path d="M489.4 147v-1.4q-.7.8-1.6 1.2-.8.4-1.7.4-1 0-1.9-.5-.9-.5-1.3-1.4-.4-.9-.4-3v-6h2.1v6q0 1.8.5 2.4.5.7 1.7.7 1.5 0 2.6-1.5v-7.7h2.1V147h-2.1zm5 5.5v-16.3h3.7q2.9 0 4.5 1.4 1.6 1.5 1.6 4t-1.5 4q-1.5 1.6-3.9 1.6-1 0-2.2-.5v5.8h-2.2zm3.7-14.3h-1.5v6.6q1 .5 2 .5 1.5 0 2.5-1t1-2.7q0-1-.5-1.8-.5-.9-1.3-1.2-.7-.4-2.2-.4zm15.6-7.6h2.2V147h-4.6q-2.4 0-3.8-1.5t-1.4-4q0-2.4 1.4-4 1.5-1.5 3.9-1.5 1 0 2.3.4v-5.8zm0 14.6v-6.9q-1-.5-2-.5-1.6 0-2.6 1-.9 1.1-.9 2.9 0 1.7.8 2.6.5.5 1 .7.6.2 2 .2h1.7zm11.8-4.7v4.6q0 .6.4.6t1.2-.6v1.3l-1.2.6q-.4.2-.9.2-1.4 0-1.6-1-1.4 1-2.9 1-1.1 0-1.9-.8-.7-.7-.7-1.8 0-1 .7-1.9.7-.8 2-1.2l2.8-1v-.6q0-1.9-2-1.9-1.7 0-3.3 1.8v-2.3q1.2-1.5 3.6-1.5 1.7 0 2.8 1l.6.7q.3.5.3 1l.1 1.8zm-2 4.4v-3.2l-1.5.5q-1.1.5-1.6.9-.4.4-.4 1 0 .8.4 1.2.5.4 1.1.4 1 0 2-.8zm4-6.9l4-4v2.2h3.4v2h-3.4v5.2q0 1.9 1.5 1.9 1.2 0 2.5-.8v2q-1.3.7-2.7.7-1.5 0-2.5-.9l-.5-.5-.3-.9-.1-2v-4.8h-1.9v-.2zm18.7 3.8h-7.6q.1 1.5 1 2.5 1 .9 2.5.9 2.1 0 4-1.3v2q-1 .7-2 1-1 .3-2.3.3-1.8 0-2.9-.8-1-.7-1.7-2-.7-1.2-.7-2.8 0-2.5 1.4-4 1.4-1.6 3.6-1.6t3.4 1.5q1.3 1.5 1.3 4v.3zm-7.5-1.3h5.4q0-1.3-.8-2-.6-.6-1.8-.6-1.1 0-1.9.7-.7.6-1 2zm16.7-4.3v-.6q0-2.6 1.1-3.9 1.1-1.3 2.7-1.3l1.6.2v2.1l-1-.2q-1.3 0-1.8.7t-.5 2.4v.6h2v2h-2v8.8h-2v-8.9h-1.6v-1.9h1.5zm6.9-4.5q.5 0 .9.3.3.4.3 1 0 .5-.3.8-.4.4-1 .4-.4 0-.8-.4t-.4-.9q0-.5.4-.8.4-.4.9-.4zm-1 4.5h2V147h-2v-10.8zm5.2-5.6h2.1V147h-2.1v-16.4zm3.7 7.4l4-4v2.2h3.4v2h-3.4v5.2q0 1.9 1.5 1.9 1.2 0 2.5-.8v2q-1.3.7-2.7.7-1.5 0-2.4-.9-.4-.2-.6-.5l-.3-.9-.1-2v-4.8h-1.9v-.2zm18.8 3.8h-7.7q.1 1.5 1 2.5 1 .9 2.5.9 2.1 0 4-1.3v2q-1 .7-2 1-1 .3-2.3.3-1.8 0-2.9-.8-1-.7-1.7-2-.7-1.2-.7-2.8 0-2.5 1.4-4 1.4-1.6 3.6-1.6t3.4 1.5q1.3 1.5 1.3 4v.3zm-7.6-1.3h5.4q0-1.3-.8-2-.6-.6-1.8-.6-1.1 0-1.9.7-.7.6-1 2zm12.1-4.3v2.5l.1-.2q1.6-2.5 3.1-2.5 1.2 0 2.5 1.2l-1 1.9q-1.2-1-2.2-1-1 0-1.8 1-.7 1-.7 2.3v5.6h-2.1v-10.8h2.1z" font-size="24" font-family="GillSans" fill="#3299cc"/><path d="M471 139.6l-140-.2" stroke="#6cb340" stroke-width="2" fill="none"/><path d="M331 132v15l-10-7.6 10-7.4z" fill="#6cb340"/><path d="M489.4 175v-1.4q-.7.8-1.6 1.2-.8.4-1.7.4-1 0-1.9-.5-.9-.5-1.3-1.4-.4-.9-.4-3v-6h2.1v6q0 1.8.5 2.4.5.7 1.7.7 1.5 0 2.6-1.5v-7.7h2.1V175h-2.1zm5 5.5v-16.3h3.7q2.9 0 4.5 1.4 1.6 1.5 1.6 4t-1.5 4q-1.5 1.6-3.9 1.6-1 0-2.2-.5v5.8h-2.2zm3.7-14.3h-1.5v6.6q1 .5 2 .5 1.5 0 2.5-1t1-2.7q0-1-.5-1.8-.5-.9-1.3-1.2-.7-.4-2.2-.4zm15.6-7.6h2.2V175h-4.6q-2.4 0-3.8-1.5t-1.4-4q0-2.4 1.4-4 1.5-1.5 3.9-1.5 1 0 2.3.4v-5.8zm0 14.6v-6.9q-1-.5-2-.5-1.6 0-2.6 1-.9 1.1-.9 2.9 0 1.7.8 2.6.5.5 1 .7.6.2 2 .2h1.7zm11.8-4.7v4.6q0 .6.4.6t1.2-.6v1.3l-1.2.6q-.4.2-.9.2-1.4 0-1.6-1-1.4 1-2.9 1-1.1 0-1.9-.8-.7-.7-.7-1.8 0-1 .7-1.9.7-.8 2-1.2l2.8-1v-.6q0-1.9-2-1.9-1.7 0-3.3 1.8v-2.3q1.2-1.5 3.6-1.5 1.7 0 2.8 1l.6.7q.3.5.3 1l.1 1.8zm-2 4.4v-3.2l-1.5.5q-1.1.5-1.6.9-.4.4-.4 1 0 .8.4 1.2.5.4 1.1.4 1 0 2-.8zm4-6.9l4-4v2.2h3.4v2h-3.4v5.2q0 1.9 1.5 1.9 1.2 0 2.5-.8v2q-1.3.7-2.7.7-1.5 0-2.5-.9l-.5-.5-.3-.9-.1-2v-4.8h-1.9v-.2zm18.7 3.8h-7.6q.1 1.5 1 2.5 1 .9 2.5.9 2.1 0 4-1.3v2q-1 .7-2 1-1 .3-2.3.3-1.8 0-2.9-.8-1-.7-1.7-2-.7-1.2-.7-2.8 0-2.5 1.4-4 1.4-1.6 3.6-1.6t3.4 1.5q1.3 1.5 1.3 4v.3zm-7.5-1.3h5.4q0-1.3-.8-2-.6-.6-1.8-.6-1.1 0-1.9.7-.7.6-1 2zm16.5-9.9h2.1V175h-2v-16.4zm6.4 1.1q.5 0 .9.3.3.4.3 1 0 .5-.3.8-.4.4-1 .4-.4 0-.8-.4t-.4-.9q0-.5.4-.8.4-.4.9-.4zm-1 4.5h2V175h-2v-10.8zm14 3v7.8h-2.2v-6q0-1.8-.5-2.5t-1.7-.7q-.6 0-1.2.3l-1.2 1v7.9h-2.2v-10.8h2.2v1.4q1.6-1.6 3.1-1.6 2 0 3.2 2 1.7-2 3.6-2 1.6 0 2.6 1.1 1 1.2 1 3.5v6.4h-2.1v-6.4q0-1.3-.6-2-.5-.8-1.6-.8-1.3 0-2.4 1.4zm10.7-7.5q.5 0 .9.3.4.4.4 1 0 .5-.4.8-.4.4-1 .4-.4 0-.8-.4t-.4-.9q0-.5.4-.8.4-.4.9-.4zm-1 4.5h2V175h-2v-10.8zm3.7 1.8l4-4v2.2h3.3v2H592v5.2q0 1.9 1.6 1.9 1.1 0 2.4-.8v2q-1.2.7-2.7.7-1.5 0-2.4-.9l-.5-.5-.4-.9-.1-2v-4.8H588v-.2z" font-size="24" font-family="GillSans" fill="#3299cc"/><path d="M471 169.8l-140-.2" stroke="#6cb340" stroke-width="2" fill="none"/><path d="M331 162v15l-10-7.6 10-7.4z" fill="#6cb340"/></svg>