<svg width="24" height="24" viewBox="0 0 24 24" fill="none" xmlns="http://www.w3.org/2000/svg">
<path d="M9.74867 14.2513C12.3105 16.8069 13.5517 20.4005 13.1134 23.9924C9.6017 24.1138 6.19721 22.772 3.7126 20.2874C1.22798 17.8028 -0.11379 14.3983 0.00757303 10.8866C3.5995 10.4482 7.19305 11.6895 9.74867 14.2513Z" fill="url(#paint0_linear)"/>
<path d="M16.4211 0.943656L12.0807 5.20024C11.9235 5.35053 11.8349 5.55647 11.8349 5.7715C11.8349 5.98652 11.9235 6.19246 12.0807 6.34275L13.9925 8.22333L9.5178 12.6316C6.90524 10.3852 3.46366 9.28843 0 9.59838C0.422395 7.2591 1.57387 5.10485 3.29661 3.43088C6.73638 0.047477 11.9388 -0.938437 16.4211 0.943656Z" fill="url(#paint1_linear)"/>
<path d="M22.9317 7.57898C24.4409 10.8732 24.3467 14.6858 22.6766 17.9004C21.0066 21.1151 17.9496 23.3682 14.4007 24C14.7106 20.59 13.6141 17.2018 11.3684 14.6297L15.7451 10.2243L17.4331 11.9233C17.585 12.0787 17.7926 12.1662 18.0092 12.1662C18.2258 12.1662 18.4334 12.0787 18.5853 11.9233L22.9317 7.57898Z" fill="url(#paint2_linear)"/>
<path d="M19.97 4.19596C20.5375 4.75886 21.0418 5.38326 21.4737 6.05781L17.4637 10.1053L13.8948 6.57387L17.9048 2.52637C18.6567 2.9977 19.3501 3.55822 19.97 4.19596Z" fill="#007CAD"/>
<defs>
<linearGradient id="paint0_linear" x1="20.3806" y1="19.9928" x2="11.0354" y2="-0.710237" gradientUnits="userSpaceOnUse">
<stop stop-color="#116149"/>
<stop offset="0.37" stop-color="#13A752"/>
<stop offset="0.65" stop-color="#0ACD5B"/>
<stop offset="0.93" stop-color="#69D696"/>
<stop offset="1" stop-color="#80D8A4"/>
</linearGradient>
<linearGradient id="paint1_linear" x1="10.4198" y1="16.776" x2="19.2671" y2="2.14749" gradientUnits="userSpaceOnUse">
<stop stop-color="#007DAF"/>
<stop offset="0.11" stop-color="#0982B0"/>
<stop offset="0.29" stop-color="#2291B5"/>
<stop offset="0.51" stop-color="#4BA9BB"/>
<stop offset="0.77" stop-color="#83CAC4"/>
<stop offset="1" stop-color="#B9EACD"/>
</linearGradient>
<linearGradient id="paint2_linear" x1="208.829" y1="448.083" x2="225.113" y2="440.365" gradientUnits="userSpaceOnUse">
<stop stop-color="#007DAF"/>
<stop offset="0.11" stop-color="#0982B0"/>
<stop offset="0.29" stop-color="#2291B5"/>
<stop offset="0.51" stop-color="#4BA9BB"/>
<stop offset="0.77" stop-color="#83CAC4"/>
<stop offset="1" stop-color="#B9EACD"/>
</linearGradient>
</defs>
</svg>
