<?xml version="1.0" encoding="UTF-8" standalone="no"?>
<svg
   xmlns:dc="http://purl.org/dc/elements/1.1/"
   xmlns:cc="http://creativecommons.org/ns#"
   xmlns:rdf="http://www.w3.org/1999/02/22-rdf-syntax-ns#"
   xmlns:svg="http://www.w3.org/2000/svg"
   xmlns="http://www.w3.org/2000/svg"
   xmlns:sodipodi="http://sodipodi.sourceforge.net/DTD/sodipodi-0.dtd"
   xmlns:inkscape="http://www.inkscape.org/namespaces/inkscape"
   version="1.1"
   x="0px"
   y="0px"
   width="800"
   height="480"
   viewBox="0, 0, 800, 480"
   id="svg1154"
   sodipodi:docname="replica-set-read-preference.svg"
   inkscape:version="0.92.2 5c3e80d, 2017-08-06">
  <metadata
     id="metadata1158">
    <rdf:RDF>
      <cc:Work
         rdf:about="">
        <dc:format>image/svg+xml</dc:format>
        <dc:type
           rdf:resource="http://purl.org/dc/dcmitype/StillImage" />
      </cc:Work>
    </rdf:RDF>
  </metadata>
  <sodipodi:namedview
     pagecolor="#ffffff"
     bordercolor="#666666"
     borderopacity="1"
     objecttolerance="10"
     gridtolerance="10"
     guidetolerance="10"
     inkscape:pageopacity="0"
     inkscape:pageshadow="2"
     inkscape:window-width="1328"
     inkscape:window-height="846"
     id="namedview1156"
     showgrid="false"
     inkscape:zoom="1.09875"
     inkscape:cx="372.29505"
     inkscape:cy="271.38361"
     inkscape:window-x="0"
     inkscape:window-y="0"
     inkscape:window-maximized="0"
     inkscape:current-layer="Layer 1" />
  <g
     id="Layer 1">
    <path
       d="M3.147,190.378 L224.853,190.378 L224.853,420.948 L3.147,420.948 z"
       fill-opacity="0"
       stroke="#3F2615"
       stroke-width="4"
       id="path1037" />
    <text
       id="text1041"
       x="116.82178"
       y="452.535">
      <tspan
         x="44.800781"
         y="453.535"
         font-size="24"
         id="tspan1039"
         style="font-size:24px;font-family:GillSans;fill:#412818">Data Center 1</tspan>
    </text>
    <g
       id="g1055">
      <g
         id="g1049">
        <path
           d="M213.5,228.433 C213.5,227.268 210.594,226.323 207.004,226.323 L19.996,226.323 C16.41,226.323 13.5,227.268 13.5,228.433 L13.5,289.212 C13.5,290.378 16.41,291.323 19.996,291.323 L207.004,291.323 C210.594,291.323 213.5,290.378 213.5,289.212 L213.5,228.433"
           fill="#3299CC"
           id="path1043" />
        <text
           id="text1047"
           x="112.21637"
           y="254.99683">
          <tspan
             x="54.859375"
             y="266.99683"
             font-size="36"
             id="tspan1045"
             style="font-size:36px;font-family:GillSans;fill:#ffffff">Primary</tspan>
        </text>
      </g>
      <text
         id="text1053"
         x="114.35237"
         y="282.823">
        <tspan
           x="90.651367"
           y="285.323"
           font-size="12"
           id="tspan1051"
           style="font-size:12px;font-family:GillSans;fill:#3e2d1b">priority: 1</tspan>
      </text>
    </g>
    <g
       id="g1063">
      <path
         d="M213.5,331.988 C213.5,330.823 210.594,329.878 207.004,329.878 L19.996,329.878 C16.41,329.878 13.5,330.823 13.5,331.988 L13.5,392.767 C13.5,393.933 16.41,394.878 19.996,394.878 L207.004,394.878 C210.594,394.878 213.5,393.933 213.5,392.767 L213.5,331.988"
         id="path1057"
         fill="#6CB340" />
      <text
         id="text1061"
         x="112.72665"
         y="358.69244">
        <tspan
           x="36.639648"
           y="370.69244"
           font-size="36"
           id="tspan1059"
           style="font-size:36px;font-family:GillSans;fill:#fffffe">Secondary</tspan>
      </text>
    </g>
    <text
       id="text1067"
       x="114.35237"
       y="386.37799">
      <tspan
         x="90.651367"
         y="388.87799"
         font-size="12"
         id="tspan1065"
         style="font-size:12px;font-family:GillSans;fill:#3e2d1b">priority: 1</tspan>
    </text>
    <text
       id="text1071"
       x="622.67358"
       y="446.035">
      <tspan
         x="547.80457"
         y="453.535"
         font-size="24"
         id="tspan1069"
         style="font-size:24px;font-family:GillSans;fill:#412818">Data Center 2</tspan>
    </text>
    <g
       id="g1083">
      <path
         d="M718.496,228.433 C718.496,227.268 715.59,226.323 712,226.323 L524.992,226.323 C521.406,226.323 518.496,227.268 518.496,228.433 L518.496,289.212 C518.496,290.378 521.406,291.323 524.992,291.323 L712,291.323 C715.59,291.323 718.496,290.378 718.496,289.212 L718.496,228.433"
         fill="#B2B2B2"
         id="path1073" />
      <text
         id="text1077"
         x="617.7226"
         y="255.13745">
        <tspan
           x="541.63562"
           y="267.13745"
           font-size="36"
           id="tspan1075"
           style="font-size:36px;font-family:GillSans;fill:#fffffe">Secondary</tspan>
      </text>
      <text
         id="text1081"
         x="618.32593"
         y="282.823">
        <tspan
           x="594.62488"
           y="285.323"
           font-size="12"
           id="tspan1079"
           style="font-size:12px;font-family:GillSans;fill:#000000">priority: 0</tspan>
      </text>
    </g>
    <path
       d="M508.143,190.673 L729.849,190.673 L729.849,421.242 L508.143,421.242 z"
       fill-opacity="0"
       stroke="#3F2615"
       stroke-width="4"
       id="path1085" />
    <g
       id="g1099">
      <path
         d="M26,73.012 C26,74.604 27.31,75.895 28.926,75.895 L198.074,75.895 C199.69,75.895 201,74.604 201,73.012 L201,13.779 C201,12.186 199.69,10.895 198.074,10.895 L28.926,10.895 C27.31,10.895 26,12.186 26,13.779 L26,73.012"
         fill="#5A5955"
         id="path1087" />
      <text
         id="text1097"
         x="113.4209"
         y="43.532696">
        <tspan
           x="64.263901"
           y="55.532696"
           font-size="36"
           id="tspan1089"
           style="font-size:36px;font-family:GillSans;fill:#fffffe">Dri</tspan>
        <tspan
           x="113.4119"
           y="55.532696"
           font-size="36"
           id="tspan1091"
           style="font-size:36px;font-family:GillSans;fill:#fffffe">v</tspan>
        <tspan
           x="128.45889"
           y="55.532696"
           font-size="36"
           id="tspan1093"
           style="font-size:36px;font-family:GillSans;fill:#fffffe">e</tspan>
        <tspan
           x="145.7029"
           y="55.532696"
           font-size="36"
           id="tspan1095"
           style="font-size:36px;font-family:GillSans;fill:#fffffe">r</tspan>
      </text>
    </g>
    <g
       id="g1117">
      <g
         id="g1105">
        <path
           d="M531.496,72.512 C531.496,74.104 532.806,75.395 534.422,75.395 L703.57,75.395 C705.186,75.395 706.496,74.104 706.496,72.512 L706.496,13.279 C706.496,11.686 705.186,10.395 703.57,10.395 L534.422,10.395 C532.806,10.395 531.496,11.686 531.496,13.279 L531.496,72.512"
           fill="#5A5955"
           id="path1101" />
        <path
           d="M531.496,72.512 C531.496,74.104 532.806,75.395 534.422,75.395 L703.57,75.395 C705.186,75.395 706.496,74.104 706.496,72.512 L706.496,13.279 C706.496,11.686 705.186,10.395 703.57,10.395 L534.422,10.395 C532.806,10.395 531.496,11.686 531.496,13.279 L531.496,72.512"
           fill-opacity="0"
           stroke="#B2B2B2"
           stroke-width="1"
           id="path1103" />
      </g>
      <text
         id="text1115"
         x="618.49597"
         y="43.238697">
        <tspan
           x="568.52399"
           y="55.032696"
           font-size="36"
           id="tspan1107"
           style="font-size:36px;font-family:GillSans;fill:#fffffe">Dri</tspan>
        <tspan
           x="617.67297"
           y="55.032696"
           font-size="36"
           id="tspan1109"
           style="font-size:36px;font-family:GillSans;fill:#fffffe">v</tspan>
        <tspan
           x="632.71997"
           y="55.032696"
           font-size="36"
           id="tspan1111"
           style="font-size:36px;font-family:GillSans;fill:#fffffe">e</tspan>
        <tspan
           x="649.96399"
           y="55.032696"
           font-size="36"
           id="tspan1113"
           style="font-size:36px;font-family:GillSans;fill:#fffffe">r</tspan>
      </text>
    </g>
    <g
       id="g1123">
      <path
         d="M618.985,88.062 L619.005,210.662"
         fill-opacity="0"
         stroke="#5A5955"
         stroke-width="4"
         id="path1119" />
      <path
         d="M614.205,210.663 L619.007,223.462 L623.805,210.661 z"
         fill="#5A5955"
         fill-opacity="1"
         stroke="#5A5955"
         stroke-width="4"
         stroke-opacity="1"
         id="path1121" />
    </g>
    <text
       transform="matrix(1, -0, 0, 1, 66.626, 102.856)"
       id="text1127">
      <tspan
         x="-56.626"
         y="6.467"
         font-family="GillSans"
         font-size="24"
         fill="#5A5955"
         id="tspan1125">Read with </tspan>
    </text>
    <g
       id="g1133">
      <path
         d="M114,87.823 L114,210.423"
         fill-opacity="0"
         stroke="#5A5955"
         stroke-width="4"
         id="path1129" />
      <path
         d="M109.2,210.423 L114,223.223 L118.8,210.423 z"
         fill="#5A5955"
         fill-opacity="1"
         stroke="#5A5955"
         stroke-width="4"
         stroke-opacity="1"
         id="path1131" />
    </g>
    <text
       transform="matrix(1, -0, 0, 1, 207.544, 116.062)"
       id="text1139">
      <tspan
         x="-86.735"
         y="-6.5"
         font-family="GillSans"
         font-size="24"
         fill="#5A5955"
         id="tspan1135">Read Preference </tspan>
      <tspan
         x="-86.735"
         y="21.5"
         font-family="GillSans"
         font-size="24"
         fill="#5A5955"
         id="tspan1137">(default)</tspan>
    </text>
    <text
       transform="matrix(1, -0, 0, 1, 566.532, 102.976)"
       id="text1143">
      <tspan
         x="-52.363"
         y="6.586"
         font-family="GillSans"
         font-size="24"
         fill="#5A5955"
         id="tspan1141">Read with</tspan>
    </text>
    <text
       transform="matrix(1, -0, 0, 1, 706.522, 115.823)"
       id="text1149">
      <tspan
         x="-83.795"
         y="-6.5"
         font-family="GillSans"
         font-size="24"
         fill="#5A5955"
         id="tspan1145">Read Preference </tspan>
      <tspan
         x="-83.795"
         y="21.5"
         font-family="GillSans"
         font-size="24"
         fill="#5A5955"
         id="tspan1147">(nearest)</tspan>
    </text>
  </g>
  <defs
     id="defs1152" />
</svg>
