<svg width="32" height="32" viewBox="0 0 32 32" fill="none" xmlns="http://www.w3.org/2000/svg">
<path d="M31.7538 8.16923H0.246154V4.28C0.246154 3.68923 0.68923 3.24615 1.28 3.24615H30.72C31.3107 3.24615 31.7538 3.68923 31.7538 4.28V8.16923Z" fill="#00ED64"/>
<path fill-rule="evenodd" clip-rule="evenodd" d="M0 4.23077C0 3.55295 0.554259 3 1.23219 3H30.764C31.41 3 31.9437 3.50204 31.9926 4.13577C31.9975 4.18298 32 4.2311 32 4.28V8.16923C32 8.18391 31.9987 8.19828 31.9962 8.21226V27.8025C32.0515 28.5353 31.4925 29.0923 30.8133 29.0923H1.23219C0.554259 29.0923 0 28.5393 0 27.8615V4.23077ZM1.28 3.49231C0.825177 3.49231 0.492307 3.82518 0.492307 4.28V7.92307H31.5039V4.23077C31.5039 4.21377 31.5033 4.1969 31.5022 4.18017C31.4572 3.77729 31.1408 3.49231 30.72 3.49231H1.28ZM31.5039 8.41538H0.492307V27.8615C0.492307 28.2668 0.825482 28.6 1.23219 28.6H30.8133C31.2155 28.6 31.5418 28.2762 31.5048 27.8328C31.5042 27.8259 31.5039 27.8191 31.5039 27.8123V8.41538Z" fill="#001E2B"/>
<path fill-rule="evenodd" clip-rule="evenodd" d="M22.8923 23.1846H16V22.6923H22.8923V23.1846Z" fill="#001E2B"/>
<path fill-rule="evenodd" clip-rule="evenodd" d="M13.7109 17.824L8.93777 13.2704L9.27759 12.9142L14.0567 17.4734C14.3504 17.7656 14.3503 18.2651 14.0567 18.5573L14.053 18.5609L9.27759 23.1165L8.93777 22.7603L13.7109 18.2068C13.8092 18.1072 13.8092 17.9235 13.7109 17.824Z" fill="#001E2B"/>
</svg>
