<svg width="1432" height="1266" viewBox="0 0 1432 1266" fill="none" xmlns="http://www.w3.org/2000/svg">
<rect width="1432" height="1266" fill="white"/>
<rect width="597.408" height="83.3361" transform="matrix(0.921185 0.389124 0.00174531 0.999998 165.361 948.386)" fill="#EBFAFF"/>
<rect width="597.498" height="83.4054" transform="matrix(0.920505 -0.390731 0 1 715.638 1182.59)" fill="#EBFAFF"/>
<path d="M1265.64 948V1033M715.638 1180V1265M165.638 948V1033M165.832 1032.54L715.832 1264.54M715.443 1264.54L1265.44 1032.54M1265.64 948.496L715.314 1180.36L165.638 948.496L715.314 716L1265.64 948.496Z" stroke="black" stroke-linejoin="round"/>
<path d="M208.361 617.792V950.39C208.361 962.441 230.749 972.251 258.361 972.251C285.973 972.251 308.361 962.483 308.361 950.39V617.792H208.401H208.361Z" fill="#E1F7FF" stroke="black" stroke-width="2" stroke-linecap="round" stroke-linejoin="round"/>
<path d="M258.079 631.605C285.234 631.605 307.248 625.425 307.248 617.802C307.248 610.179 285.234 604 258.079 604C230.923 604 208.909 610.179 208.909 617.802C208.909 625.425 230.923 631.605 258.079 631.605Z" fill="#00684A" stroke="black" stroke-width="2" stroke-linejoin="round"/>
<path d="M437.361 681.926V1014.52C437.361 1026.57 459.749 1036.38 487.361 1036.38C514.973 1036.38 537.361 1026.62 537.361 1014.52V681.926H437.401H437.361Z" fill="#E1F7FF" stroke="black" stroke-width="2" stroke-linecap="round" stroke-linejoin="round"/>
<path d="M487.079 695.738C514.234 695.738 536.248 689.559 536.248 681.936C536.248 674.313 514.234 668.134 487.079 668.134C459.923 668.134 437.909 674.313 437.909 681.936C437.909 689.559 459.923 695.738 487.079 695.738Z" fill="#00684A" stroke="black" stroke-width="2" stroke-linejoin="round"/>
<path d="M895.361 681.926V1014.52C895.361 1026.57 917.749 1036.38 945.361 1036.38C972.973 1036.38 995.361 1026.62 995.361 1014.52V681.926H895.401H895.361Z" fill="#E1F7FF" stroke="black" stroke-width="2" stroke-linecap="round" stroke-linejoin="round"/>
<path d="M945.079 695.738C972.234 695.738 994.248 689.559 994.248 681.936C994.248 674.313 972.234 668.134 945.079 668.134C917.923 668.134 895.909 674.313 895.909 681.936C895.909 689.559 917.923 695.738 945.079 695.738Z" fill="#00684A" stroke="black" stroke-width="2" stroke-linejoin="round"/>
<path d="M666.361 760.541V1093.14C666.361 1105.19 688.749 1115 716.361 1115C743.973 1115 766.361 1105.23 766.361 1093.14V760.541H666.401H666.361Z" fill="#E1F7FF" stroke="black" stroke-width="2" stroke-linecap="round" stroke-linejoin="round"/>
<path d="M1124.36 617.792V950.39C1124.36 962.441 1146.75 972.251 1174.36 972.251C1201.97 972.251 1224.36 962.483 1224.36 950.39V617.792H1124.4H1124.36Z" fill="#E1F7FF" stroke="black" stroke-width="2" stroke-linecap="round" stroke-linejoin="round"/>
<path d="M1174.08 631.605C1201.23 631.605 1223.25 625.425 1223.25 617.802C1223.25 610.179 1201.23 604 1174.08 604C1146.92 604 1124.91 610.179 1124.91 617.802C1124.91 625.425 1146.92 631.605 1174.08 631.605Z" fill="#00684A" stroke="black" stroke-width="2" stroke-linejoin="round"/>
<path d="M1266.36 536V621" stroke="black" stroke-miterlimit="10"/>
<path d="M716.361 768V853" stroke="black" stroke-miterlimit="10"/>
<path d="M166.361 536V621" stroke="black" stroke-miterlimit="10"/>
<path d="M1266.36 536.496L716.037 768.361L166.361 536.496L716.037 304L1266.36 536.496Z" fill="white" stroke="black" stroke-linecap="round" stroke-linejoin="round"/>
<line x1="166.556" y1="620.539" x2="716.556" y2="852.539" stroke="black"/>
<line x1="716.167" y1="852.539" x2="1266.17" y2="620.539" stroke="black"/>
<rect width="597.408" height="83.3361" transform="matrix(0.921185 0.389124 0.00174531 0.999998 166.361 536.386)" fill="#EBFAFF"/>
<rect width="597.498" height="83.4054" transform="matrix(0.920505 -0.390731 0 1 716.639 768.594)" fill="#EBFAFF"/>
<path d="M1266.64 536V621M716.638 768V853M166.638 536V621M166.832 620.539L716.832 852.539M716.443 852.539L1266.44 620.539M1266.64 536.496L716.314 768.361L166.638 536.496L716.314 304L1266.64 536.496Z" stroke="black" stroke-linejoin="round"/>
<g clip-path="url(#clip0_6_603)">
<path d="M427.597 201.363L442.011 211.297L456.436 221.232L440.615 228.738L424.793 236.243L426.2 218.803L427.597 201.363Z" fill="white" stroke="black" stroke-width="1.13506" stroke-linecap="round" stroke-linejoin="round"/>
<path d="M436.031 219.103L424.793 236.243L456.436 221.232L436.031 219.103Z" fill="black"/>
<path d="M436.031 219.103L427.598 201.363" stroke="black" stroke-width="1.13506" stroke-linecap="round" stroke-linejoin="round"/>
<path d="M508.786 123.662H913.845C925.704 123.662 935.337 133.286 935.337 145.134V448.743H487.294V145.134C487.294 133.286 496.928 123.662 508.786 123.662Z" fill="#011F2B"/>
<path d="M496.213 111.111H901.138C912.996 111.111 922.63 120.725 922.63 132.583V436.182H474.721V132.573C474.721 120.725 484.344 111.101 496.213 111.101V111.111Z" fill="#F3FFFD"/>
<path d="M692.849 175.362H715.366C715.832 175.362 716.204 175.734 716.204 176.2V180.283C716.204 180.748 715.832 181.121 715.366 181.121H707.419C707.202 181.121 706.984 181.203 706.829 181.369L702.183 186.011C702.028 186.166 701.811 186.259 701.593 186.259H698.21C697.992 186.259 697.775 186.176 697.62 186.011L692.632 181.028C692.498 180.893 692.405 180.707 692.394 180.511L692.022 176.272C691.98 175.786 692.363 175.362 692.849 175.362Z" fill="#00ED64"/>
<path d="M716.742 281.503H713.203C712.74 281.503 712.365 281.878 712.365 282.341V284.553C712.365 285.016 712.74 285.391 713.203 285.391H716.742C717.205 285.391 717.58 285.016 717.58 284.553V282.341C717.58 281.878 717.205 281.503 716.742 281.503Z" fill="#00ED64"/>
<path d="M693.025 270.431H690.376C689.913 270.431 689.538 270.806 689.538 271.269V274.949C689.538 275.412 689.913 275.787 690.376 275.787H693.025C693.488 275.787 693.863 275.412 693.863 274.949V271.269C693.863 270.806 693.488 270.431 693.025 270.431Z" fill="#00ED64"/>
<path d="M921.791 212.352H918.583C918.366 212.352 918.149 212.269 917.994 212.104L909.457 203.575C909.302 203.42 909.084 203.327 908.867 203.327H881.446C881.228 203.327 881.011 203.244 880.856 203.078L873.199 195.428C873.043 195.273 872.826 195.18 872.609 195.18H792.052C791.835 195.18 791.618 195.263 791.462 195.428L779.397 207.482C779.242 207.638 779.025 207.731 778.807 207.731H766.142C765.924 207.731 765.707 207.813 765.552 207.979L760.906 212.621C760.751 212.776 760.533 212.869 760.316 212.869H748.53C748.313 212.869 748.095 212.951 747.94 213.117L738.886 222.163C738.731 222.318 738.513 222.411 738.296 222.411H731.725C731.508 222.411 731.291 222.328 731.136 222.163L726.976 218.007C726.655 217.686 726.655 217.159 726.976 216.828L729.138 214.667C729.459 214.347 729.997 214.347 730.318 214.667L733.443 217.79C733.598 217.945 733.816 218.038 734.033 218.038H737.51C737.975 218.038 738.348 217.665 738.348 217.2V213.137C738.348 212.92 738.265 212.703 738.1 212.548L732.605 207.059C732.45 206.904 732.232 206.811 732.015 206.811H707.936C707.719 206.811 707.501 206.893 707.346 207.059L686.713 227.673C686.558 227.828 686.465 228.045 686.465 228.262V234.889C686.465 235.106 686.558 235.323 686.713 235.478L688.876 237.639C689.196 237.959 689.724 237.959 690.055 237.639L693.377 234.32C693.698 234 694.225 234 694.557 234.32L695.85 235.612C696.005 235.767 696.098 235.985 696.098 236.202V239.138C696.098 239.355 696.191 239.572 696.347 239.727L698.654 242.032C698.975 242.353 699.503 242.353 699.834 242.032L702.835 239.034C702.99 238.879 703.083 238.662 703.083 238.445V229.275C703.083 229.058 703.166 228.841 703.331 228.686L713.006 219.02C713.327 218.699 713.855 218.699 714.186 219.02L716.69 221.522C717.011 221.842 717.011 222.38 716.69 222.7L711.03 228.355C710.875 228.51 710.782 228.727 710.782 228.944V242.591C710.782 242.808 710.699 243.025 710.533 243.18L704.283 249.424C704.128 249.579 703.911 249.672 703.694 249.672H685.833C685.616 249.672 685.399 249.755 685.244 249.92L678.859 256.299C678.704 256.454 678.487 256.547 678.269 256.547H673.106C672.64 256.547 672.268 256.919 672.268 257.384V258.449C672.268 258.666 672.35 258.883 672.516 259.038L676.728 263.246C676.883 263.401 676.976 263.618 676.976 263.835V267.144C676.976 267.609 676.603 267.981 676.138 267.981H667.332C667.115 267.981 666.897 268.064 666.742 268.229L664.414 270.555C664.259 270.71 664.165 270.927 664.165 271.144V276.5C664.165 276.717 664.248 276.934 664.414 277.089L667.425 280.097C667.58 280.252 667.673 280.469 667.673 280.686V285.163C667.673 285.38 667.591 285.576 667.446 285.731L652.597 301.497C652.452 301.652 652.369 301.859 652.369 302.066V320.116C652.369 320.333 652.452 320.55 652.617 320.705L664.217 332.294C664.372 332.449 664.59 332.542 664.807 332.542H691.338C691.804 332.542 692.177 332.914 692.177 333.38V341.981C692.177 342.198 692.27 342.415 692.425 342.57L698.84 348.98C698.996 349.135 699.089 349.352 699.089 349.569V372.044C699.089 372.261 699.172 372.478 699.337 372.633L703.042 376.334C703.197 376.489 703.29 376.707 703.29 376.924V392.793C703.29 393.01 703.383 393.227 703.538 393.382L707.098 396.938C707.253 397.093 707.47 397.186 707.688 397.186H714.879C715.097 397.186 715.314 397.104 715.469 396.938L725.744 386.672C725.9 386.517 725.993 386.3 725.993 386.083V373.719C725.993 373.502 726.086 373.285 726.241 373.13L737.148 362.233C737.303 362.078 737.396 361.861 737.396 361.644V345.62C737.396 345.403 737.479 345.186 737.644 345.031L751.81 330.878C751.965 330.723 752.059 330.506 752.059 330.289V323.6C752.059 323.135 751.686 322.762 751.22 322.762H743.874C743.656 322.762 743.439 322.68 743.284 322.514L724.472 303.709C724.151 303.389 724.151 302.851 724.472 302.531L729.045 297.961C729.366 297.641 729.894 297.641 730.225 297.961L750.579 318.296C750.9 318.617 751.438 318.617 751.758 318.296L761.847 308.217C762.168 307.896 762.168 307.359 761.847 307.038L749.472 294.674C749.151 294.353 749.151 293.816 749.472 293.495L752.648 290.322C752.969 290.001 753.497 290.001 753.828 290.322L764.341 300.825C764.496 300.98 764.714 301.073 764.931 301.073H776.738C776.955 301.073 777.172 301.156 777.327 301.321L786.62 310.605C786.775 310.76 786.868 310.977 786.868 311.194V316.663C786.868 316.88 786.951 317.097 787.116 317.252L791.276 321.408C791.431 321.563 791.524 321.78 791.524 321.997V325.378C791.524 325.843 791.897 326.215 792.363 326.215H796.657C797.123 326.215 797.495 325.843 797.495 325.378V308.155C797.495 307.69 797.868 307.317 798.333 307.317H817.218C817.435 307.317 817.652 307.4 817.808 307.565L826.117 315.867C826.272 316.022 826.365 316.239 826.365 316.456V330.144C826.365 330.361 826.448 330.578 826.613 330.733L831.498 335.613C831.818 335.933 832.356 335.933 832.677 335.613L834.664 333.628C834.985 333.307 834.985 332.77 834.664 332.449L832.222 330.009C831.901 329.689 831.901 329.151 832.222 328.831L842.321 318.741C842.476 318.586 842.57 318.369 842.57 318.152V315.061C842.57 314.595 842.197 314.223 841.731 314.223H837.158C836.692 314.223 836.32 313.851 836.32 313.386V307.824C836.32 307.359 836.692 306.987 837.158 306.987H850.454C850.672 306.987 850.889 306.904 851.044 306.738L857.46 300.329C857.615 300.174 857.708 299.957 857.708 299.74V288.605C857.708 288.388 857.625 288.171 857.46 288.016L856.166 286.724C855.846 286.403 855.846 285.866 856.166 285.545L861.081 280.635C861.237 280.48 861.33 280.263 861.33 280.045V279.063C861.33 278.598 860.957 278.226 860.492 278.226H858.081C857.615 278.226 857.243 277.854 857.243 277.389V274.804C857.243 274.339 857.615 273.967 858.081 273.967H861.961C862.178 273.967 862.396 274.049 862.551 274.215L868.335 279.994C868.49 280.149 868.584 280.366 868.584 280.583V285.08C868.584 285.824 869.484 286.197 870.012 285.669L872.433 283.25C872.588 283.095 872.681 282.878 872.681 282.661V273.512C872.681 273.295 872.764 273.078 872.93 272.923L886.858 259.007C887.013 258.852 887.106 258.635 887.106 258.418V252.463C887.106 252.246 887.023 252.029 886.858 251.874L883.774 248.793C883.453 248.473 883.453 247.946 883.774 247.615L897.34 234.062C897.495 233.907 897.712 233.814 897.93 233.814H908.215C908.432 233.814 908.65 233.731 908.805 233.565L922.464 219.919C922.619 219.764 922.712 219.547 922.712 219.33V213.189C922.712 212.724 922.34 212.352 921.874 212.352H921.791ZM732.698 287.83C732.698 288.047 732.615 288.264 732.45 288.419L730.256 290.611C730.101 290.766 729.883 290.859 729.666 290.859H698.095C697.878 290.859 697.661 290.776 697.506 290.611L688.658 281.772C688.503 281.617 688.286 281.524 688.069 281.524H676.717C676.252 281.524 675.879 281.152 675.879 280.686V279.725C675.879 279.508 675.972 279.291 676.127 279.136L688.12 267.154C688.276 266.999 688.493 266.906 688.71 266.906H692.549C692.766 266.906 692.984 266.988 693.139 267.154L698.923 272.933C699.244 273.253 699.244 273.791 698.923 274.111L696.409 276.624C696.088 276.944 696.088 277.482 696.409 277.802L700.289 281.679C700.61 281.999 701.138 281.999 701.469 281.679L706.932 276.22C707.253 275.9 707.253 275.373 706.932 275.042L698.861 266.978C698.54 266.658 698.54 266.12 698.861 265.8L700.32 264.342C700.641 264.021 701.169 264.021 701.5 264.342L710.14 272.974C710.295 273.129 710.388 273.346 710.388 273.563V278.164C710.388 278.629 710.761 279.001 711.227 279.001H713.876C714.341 279.001 714.714 278.629 714.714 278.164V274.494C714.714 273.75 715.614 273.377 716.142 273.905L720.012 277.771C720.167 277.926 720.26 278.143 720.26 278.36V280.811C720.26 281.276 720.633 281.648 721.098 281.648H730.235C730.453 281.648 730.67 281.731 730.825 281.896L732.46 283.529C732.615 283.684 732.708 283.902 732.708 284.119V287.83H732.698ZM741.38 270.845C741.38 271.31 741.007 271.682 740.542 271.682H734.726C734.509 271.682 734.292 271.599 734.136 271.434L731.653 268.953C731.498 268.798 731.28 268.705 731.063 268.705H726.138C725.92 268.705 725.703 268.787 725.548 268.953L723.892 270.607C723.737 270.762 723.52 270.855 723.302 270.855H719.143C718.677 270.855 718.304 270.483 718.304 270.018V267.474C718.304 267.257 718.387 267.04 718.553 266.885L722.795 262.646C722.951 262.491 723.168 262.398 723.385 262.398H734.985C735.202 262.398 735.419 262.481 735.575 262.646L741.121 268.188C741.276 268.343 741.369 268.56 741.369 268.777V270.845H741.38ZM762.427 276.665L757.481 281.607C757.16 281.927 756.632 281.927 756.301 281.607L752.369 277.678C752.214 277.523 752.121 277.306 752.121 277.089V271.579C752.121 271.361 752.038 271.144 751.872 270.989L747.516 266.637C747.35 266.472 747.268 266.244 747.268 266.017L747.288 265.469C747.288 265.262 747.381 265.066 747.537 264.911L750.806 261.644C750.962 261.489 751.179 261.396 751.396 261.396H757.263C757.729 261.396 758.102 261.768 758.102 262.233V265.303C758.102 265.52 758.019 265.738 757.853 265.893L755.939 267.805C755.618 268.126 755.618 268.653 755.939 268.984L762.427 275.466C762.748 275.786 762.748 276.313 762.427 276.644V276.665Z" fill="#00ED64"/>
<path d="M672.164 233.896L669.526 236.533C669.37 236.688 669.277 236.905 669.277 237.122V240.906C669.277 241.123 669.36 241.34 669.526 241.495L672.992 244.958C673.313 245.279 673.313 245.816 672.992 246.137L671.026 248.101C670.871 248.256 670.778 248.473 670.778 248.69V250.944C670.778 251.409 671.15 251.781 671.616 251.781H678.601C678.818 251.781 679.035 251.699 679.19 251.533L680.701 250.024C680.856 249.869 680.95 249.652 680.95 249.435V246.664C680.95 246.447 680.867 246.23 680.701 246.075L676.5 241.877C676.345 241.722 676.252 241.505 676.252 241.288V234.506C676.252 234.041 675.879 233.669 675.414 233.669H672.744C672.527 233.669 672.309 233.752 672.154 233.917L672.164 233.896Z" fill="#00ED64"/>
<path d="M664.941 244.72L662.934 246.726C662.779 246.881 662.686 247.098 662.686 247.315V250.468C662.686 250.934 663.058 251.306 663.524 251.306H665.531C665.997 251.306 666.369 250.934 666.369 250.468V245.299C666.369 244.555 665.469 244.183 664.941 244.71V244.72Z" fill="#00ED64"/>
<path d="M771.863 184.698L756.104 200.442C755.949 200.597 755.855 200.815 755.855 201.032V203.823C755.855 204.04 755.938 204.257 756.104 204.412L759.063 207.369C759.384 207.689 759.922 207.689 760.243 207.369L763.026 204.588C763.347 204.267 763.347 203.73 763.026 203.409L761.216 201.6C760.895 201.28 760.895 200.742 761.216 200.422L773.043 188.605C773.198 188.45 773.415 188.357 773.633 188.357H781.362C781.828 188.357 782.201 187.985 782.201 187.52V185.266C782.201 184.801 781.828 184.429 781.362 184.429H772.453C772.236 184.429 772.019 184.511 771.863 184.677V184.698Z" fill="#00ED64"/>
<path d="M751.086 360.114L742.828 368.364C742.673 368.519 742.58 368.736 742.58 368.953V381.111C742.58 381.576 742.953 381.948 743.418 381.948H749.886C750.351 381.948 750.724 381.576 750.724 381.111V369.635C750.724 369.418 750.806 369.201 750.972 369.046L755.577 364.446C755.732 364.291 755.825 364.074 755.825 363.856V360.703C755.825 360.238 755.453 359.866 754.987 359.866H751.676C751.458 359.866 751.241 359.949 751.086 360.114Z" fill="#00ED64"/>
<path d="M803.165 328.976H799.471C799.008 328.976 798.633 329.351 798.633 329.813V334.052C798.633 334.514 799.008 334.889 799.471 334.889H803.165C803.628 334.889 804.003 334.514 804.003 334.052V329.813C804.003 329.351 803.628 328.976 803.165 328.976Z" fill="#00ED64"/>
<path d="M818.812 334.083V335.757C818.812 335.974 818.894 336.192 819.06 336.347L822.299 339.582C822.454 339.737 822.547 339.955 822.547 340.172V344.193C822.547 344.41 822.63 344.627 822.795 344.782L832.543 354.521C832.864 354.841 833.402 354.841 833.723 354.521L838.017 350.231C838.172 350.076 838.265 349.858 838.265 349.641V343.346C838.265 342.88 837.893 342.508 837.427 342.508H830.411C830.194 342.508 829.977 342.425 829.821 342.26L821.036 333.483C820.881 333.328 820.664 333.235 820.436 333.235H819.65C819.194 333.235 818.822 333.617 818.822 334.072L818.812 334.083Z" fill="#00ED64"/>
<path d="M852.939 330.495L842.301 341.123C841.98 341.443 841.98 341.981 842.301 342.301L848.934 348.928C849.089 349.083 849.306 349.176 849.524 349.176H852.597C853.063 349.176 853.435 348.804 853.435 348.339V339.593C853.435 339.376 853.518 339.159 853.684 339.004L858.806 333.886C859.126 333.566 859.126 333.028 858.806 332.708L856.612 330.516C856.457 330.361 856.25 330.268 856.022 330.268H853.539C853.321 330.258 853.104 330.34 852.949 330.506L852.939 330.495Z" fill="#00ED64"/>
<path d="M858.898 312.352V318.152C858.898 318.369 858.981 318.586 859.146 318.741L862.478 322.07C862.634 322.225 862.727 322.442 862.727 322.659V329.1C862.727 329.317 862.809 329.534 862.975 329.689L864.093 330.806C864.248 330.961 864.465 331.054 864.682 331.054H868.221C868.687 331.054 869.059 330.682 869.059 330.216V325.606C869.059 325.389 868.977 325.171 868.811 325.016L862.965 319.175C862.809 319.02 862.716 318.803 862.716 318.586V312.332C862.716 311.866 862.344 311.494 861.878 311.494H859.726C859.26 311.494 858.888 311.866 858.888 312.332L858.898 312.352Z" fill="#00ED64"/>
<path d="M862.757 338.218L857.408 343.563C857.252 343.718 857.159 343.935 857.159 344.152V348.101C857.159 348.318 857.242 348.535 857.408 348.691L858.732 350.014C858.887 350.169 859.105 350.262 859.322 350.262H861.433C861.898 350.262 862.271 349.89 862.271 349.425V344.193C862.271 343.976 862.354 343.759 862.519 343.604L865.831 340.296C865.986 340.141 866.079 339.924 866.079 339.707V338.807C866.079 338.342 865.706 337.97 865.241 337.97H863.357C863.14 337.97 862.923 338.053 862.768 338.218H862.757Z" fill="#00ED64"/>
<path d="M868.843 338.363V339.366C868.843 339.583 868.926 339.8 869.091 339.955L870.385 341.247C870.54 341.402 870.757 341.495 870.974 341.495H871.626C872.092 341.495 872.464 341.123 872.464 340.658V339.831C872.464 339.614 872.382 339.397 872.216 339.242L870.778 337.804C870.633 337.66 870.436 337.577 870.24 337.567L869.733 337.536C869.257 337.505 868.853 337.887 868.853 338.363H868.843Z" fill="#00ED64"/>
<path d="M864.6 352.598H839.797C839.334 352.598 838.959 352.973 838.959 353.436V356.775C838.959 357.237 839.334 357.612 839.797 357.612H864.6C865.063 357.612 865.439 357.237 865.439 356.775V353.436C865.439 352.973 865.063 352.598 864.6 352.598Z" fill="#00ED64"/>
<path d="M875.879 342.653L874.803 343.728C874.482 344.049 874.482 344.586 874.803 344.907L877.007 347.109C877.162 347.264 877.38 347.357 877.597 347.357H882.719C882.936 347.357 883.154 347.44 883.309 347.605L885.709 350.003C885.865 350.159 885.958 350.376 885.958 350.593V354.273C885.958 354.738 886.33 355.11 886.796 355.11H896.047C896.264 355.11 896.481 355.193 896.637 355.359L901.231 359.949C901.552 360.269 902.09 360.269 902.411 359.949L904.439 357.922C904.76 357.602 904.76 357.064 904.439 356.744L893.574 345.889C893.419 345.734 893.201 345.641 892.984 345.641H886.217C885.999 345.641 885.782 345.558 885.627 345.393L882.895 342.663C882.74 342.508 882.522 342.415 882.305 342.415H876.469C876.252 342.415 876.034 342.498 875.879 342.653Z" fill="#00ED64"/>
<path d="M862.758 301.787L860.667 303.875C860.347 304.195 860.347 304.733 860.667 305.053L861.878 306.263C862.199 306.583 862.737 306.583 863.058 306.263L865.376 303.947C865.531 303.792 865.624 303.575 865.624 303.358V302.365C865.624 301.9 865.251 301.528 864.786 301.528H863.347C863.13 301.528 862.913 301.611 862.758 301.776V301.787Z" fill="#00ED64"/>
<path d="M899.347 264.156V265.955C899.347 266.172 899.264 266.389 899.098 266.544L895.787 269.852C895.632 270.007 895.415 270.1 895.197 270.1H893.035C892.817 270.1 892.6 270.183 892.445 270.348L885.129 277.657C884.974 277.813 884.757 277.906 884.539 277.906H882.097C881.88 277.906 881.663 277.988 881.507 278.154L873.881 285.773C873.56 286.093 873.56 286.631 873.881 286.951L876.685 289.753C877.006 290.073 877.544 290.073 877.865 289.753L881.756 285.866C881.911 285.711 882.128 285.618 882.346 285.618H888.192C888.409 285.618 888.627 285.535 888.782 285.37L893.925 280.232C894.08 280.077 894.173 279.859 894.173 279.642V278.64C894.173 278.174 894.546 277.802 895.011 277.802H899.833C900.05 277.802 900.268 277.719 900.423 277.554L904.748 273.233C904.904 273.078 904.997 272.861 904.997 272.643V267.34C904.997 267.123 904.914 266.906 904.748 266.751L901.541 263.546C901.375 263.381 901.158 263.298 900.93 263.298L900.164 263.319C899.709 263.329 899.347 263.701 899.347 264.156Z" fill="#00ED64"/>
<path d="M908.153 347.005L906.87 348.287C906.715 348.442 906.497 348.535 906.28 348.535H902.4C901.934 348.535 901.562 348.908 901.562 349.373V351.316C901.562 351.782 901.934 352.154 902.4 352.154H912.323C912.789 352.154 913.161 351.782 913.161 351.316V347.605C913.161 347.14 912.789 346.768 912.323 346.768H908.732C908.515 346.768 908.298 346.85 908.143 347.016L908.153 347.005Z" fill="#00ED64"/>
<path d="M875.92 358.718L860.337 374.287C860.181 374.442 859.964 374.536 859.747 374.536H854.563C854.345 374.536 854.128 374.618 853.973 374.784L846.44 382.31C846.285 382.465 846.191 382.682 846.191 382.899V396.132C846.191 396.349 846.274 396.566 846.44 396.721L847.785 398.065C847.94 398.22 848.157 398.313 848.375 398.313H857.243C857.46 398.313 857.677 398.23 857.833 398.065L862.717 393.185C862.872 393.03 863.089 392.937 863.306 392.937H877.628C877.845 392.937 878.062 393.02 878.217 393.185L890.272 405.229C890.428 405.384 890.645 405.477 890.862 405.477H907.967C908.184 405.477 908.402 405.395 908.557 405.229L911.599 402.19C911.754 402.035 911.847 401.818 911.847 401.601V384.181C911.847 383.964 911.765 383.747 911.599 383.592L898.457 370.462C898.302 370.307 898.209 370.09 898.209 369.873V361.623C898.209 361.158 897.837 360.786 897.371 360.786H891.287C890.821 360.786 890.448 361.158 890.448 361.623V368.498C890.448 368.963 890.076 369.335 889.61 369.335H884.333C883.867 369.335 883.495 368.963 883.495 368.498V359.318C883.495 358.853 883.122 358.48 882.657 358.48H876.479C876.262 358.48 876.044 358.563 875.889 358.729L875.92 358.718Z" fill="#00ED64"/>
<path d="M897.246 414.492L898.364 415.609C898.685 415.929 899.223 415.929 899.544 415.609L902.638 412.518C902.793 412.363 902.886 412.146 902.886 411.929V410.688C902.886 410.223 902.513 409.851 902.048 409.851H897.836C897.371 409.851 896.998 410.223 896.998 410.688V413.903C896.998 414.12 897.081 414.337 897.246 414.492Z" fill="#00ED64"/>
<path d="M475.56 209.261H530.434C530.899 209.261 531.272 208.889 531.272 208.423V197.072C531.272 196.607 531.644 196.235 532.11 196.235H535.846C536.311 196.235 536.684 196.607 536.684 197.072V208.909C536.684 209.126 536.766 209.344 536.932 209.499L541.692 214.254C542.013 214.575 542.551 214.575 542.872 214.254L546.917 210.212C547.238 209.891 547.238 209.354 546.917 209.033L541.609 203.73C541.454 203.575 541.361 203.358 541.361 203.141V197.072C541.361 196.607 541.733 196.235 542.199 196.235H558.103C558.321 196.235 558.538 196.318 558.693 196.483L565.585 203.368C565.74 203.523 565.957 203.616 566.174 203.616H571.266C571.483 203.616 571.7 203.699 571.855 203.864L584.417 216.415C584.738 216.735 584.738 217.273 584.417 217.593L580.775 221.232C580.454 221.553 579.916 221.553 579.595 221.232L576.129 217.769C575.808 217.449 575.27 217.449 574.949 217.769L574.318 218.4C573.997 218.72 573.997 219.258 574.318 219.578L580.91 226.164C581.23 226.484 581.23 227.022 580.91 227.342L577.36 230.888C577.04 231.209 576.501 231.209 576.181 230.888L567.975 222.69C567.82 222.535 567.602 222.442 567.385 222.442H560.018C559.552 222.442 559.179 222.07 559.179 221.605V220.147C559.179 219.682 559.552 219.309 560.018 219.309H562.625C562.843 219.309 563.06 219.227 563.215 219.061L566.33 215.95C566.65 215.629 566.65 215.092 566.33 214.771L558.714 207.162C558.393 206.842 557.855 206.842 557.534 207.162L534.128 230.547C533.807 230.867 533.807 231.405 534.128 231.726L542.375 239.965C542.53 240.12 542.747 240.213 542.965 240.213H549.225C549.691 240.213 550.063 240.585 550.063 241.05V249.859C550.063 250.324 550.436 250.696 550.901 250.696H558.362C558.828 250.696 559.2 250.324 559.2 249.859V229.1C559.2 228.634 559.573 228.262 560.038 228.262H566.257C566.475 228.262 566.692 228.345 566.847 228.51L574.132 235.788C574.287 235.943 574.504 236.036 574.722 236.036H579.74C579.958 236.036 580.175 236.119 580.33 236.285L592.561 248.504C592.716 248.659 592.809 248.876 592.809 249.093V252.981C592.809 253.198 592.892 253.415 593.058 253.57L599.132 259.638C599.66 260.166 599.287 261.065 598.542 261.065H588.763C588.018 261.065 587.646 260.166 588.174 259.638L590.688 257.126C591.009 256.806 591.009 256.268 590.688 255.948L588.681 253.942C588.525 253.787 588.308 253.694 588.091 253.694H573.118C572.652 253.694 572.28 254.066 572.28 254.531V257.095C572.28 257.56 572.652 257.933 573.118 257.933H577.371C577.836 257.933 578.209 258.305 578.209 258.77V262.688C578.209 263.153 578.581 263.525 579.047 263.525H580.33C580.547 263.525 580.765 263.443 580.92 263.277L582.762 261.437C583.083 261.117 583.621 261.117 583.941 261.437L585.638 263.133C585.959 263.453 585.959 263.991 585.638 264.311L580.237 269.708C579.916 270.028 579.378 270.028 579.057 269.708L575.467 266.12C575.146 265.8 574.608 265.8 574.287 266.12L553.374 287.014C553.219 287.169 553.126 287.386 553.126 287.603V295.046C553.126 295.263 553.209 295.48 553.374 295.636L555.268 297.527C555.423 297.682 555.516 297.9 555.516 298.117V300.308C555.516 300.774 555.144 301.146 554.678 301.146H553.55C553.333 301.146 553.116 301.063 552.961 300.898L549.918 297.858C549.763 297.703 549.67 297.486 549.67 297.269V293.434C549.67 292.968 549.297 292.596 548.832 292.596H534.966C534.749 292.596 534.531 292.679 534.376 292.844L530.382 296.835C530.227 296.99 530.134 297.207 530.134 297.424V307.617C530.134 307.834 530.216 308.052 530.382 308.207L533.735 311.556C533.89 311.711 534.107 311.804 534.324 311.804H537.967C538.184 311.804 538.401 311.722 538.557 311.556L542.603 307.514C542.923 307.193 543.461 307.193 543.782 307.514L545.986 309.716C546.307 310.036 546.307 310.574 545.986 310.895L543.379 313.5C543.058 313.82 543.058 314.358 543.379 314.678L544.993 316.291C545.314 316.611 545.852 316.611 546.172 316.291L548.076 314.389C548.397 314.068 548.935 314.068 549.256 314.389L552.04 317.17C552.195 317.325 552.288 317.542 552.288 317.759V323.89C552.288 324.355 552.66 324.727 553.126 324.727H561.818C562.035 324.727 562.253 324.644 562.408 324.479L565.45 321.439C565.605 321.284 565.823 321.191 566.04 321.191H580.723C580.941 321.191 581.158 321.274 581.313 321.439L588.06 328.18C588.215 328.335 588.432 328.428 588.65 328.428H594.465C594.682 328.428 594.9 328.511 595.055 328.676L609.086 342.694C609.241 342.85 609.459 342.943 609.676 342.943H616.837C617.054 342.943 617.271 343.025 617.426 343.191L624.856 350.613C625.011 350.769 625.104 350.986 625.104 351.203V355.793C625.104 356.01 625.022 356.227 624.856 356.382L619.413 361.82C619.258 361.975 619.165 362.192 619.165 362.409V368.281C619.165 368.498 619.082 368.715 618.917 368.871L607.679 380.098C607.524 380.253 607.431 380.47 607.431 380.687V386.931C607.431 387.148 607.348 387.365 607.182 387.52L580.02 414.658C579.864 414.813 579.771 415.03 579.771 415.247V419.548C579.771 419.765 579.689 419.982 579.523 420.137L572.766 426.888C572.611 427.043 572.518 427.26 572.518 427.477V435.406C572.518 435.872 572.145 436.244 571.679 436.244H567.913C567.696 436.244 567.478 436.161 567.323 435.996L564.974 433.649C564.819 433.494 564.726 433.277 564.726 433.06V401.591C564.726 401.373 564.809 401.156 564.974 401.001L567.758 398.22C567.913 398.065 568.006 397.848 568.006 397.631V366.751C568.006 366.534 567.923 366.317 567.758 366.162L558.9 357.313C558.745 357.157 558.652 356.94 558.652 356.723V353.684C558.652 353.219 558.279 352.846 557.814 352.846H553.923C553.457 352.846 553.085 352.474 553.085 352.009V347.677C553.085 347.212 553.457 346.84 553.923 346.84H558.093C558.559 346.84 558.931 346.468 558.931 346.003V331.571C558.931 331.354 558.848 331.136 558.683 330.981L556.717 329.017C556.396 328.697 555.858 328.697 555.537 329.017L554.026 330.527C553.871 330.682 553.654 330.775 553.437 330.775H549.401C549.184 330.775 548.966 330.692 548.811 330.527L536.86 318.586C536.704 318.431 536.487 318.338 536.27 318.338H526.46C526.243 318.338 526.026 318.255 525.87 318.09L517.592 309.819C517.437 309.664 517.344 309.447 517.344 309.23V305.271C517.344 305.054 517.261 304.836 517.096 304.681L505.03 292.627C504.875 292.472 504.658 292.379 504.44 292.379C503.695 292.379 503.323 293.278 503.851 293.806L510.97 300.918C511.125 301.073 511.218 301.29 511.218 301.508V304.257C511.218 304.723 510.846 305.095 510.38 305.095H507.214C506.996 305.095 506.779 305.012 506.624 304.847L503.778 302.004C503.623 301.849 503.406 301.756 503.188 301.756H499.887C499.422 301.756 499.049 301.384 499.049 300.918V292.441C499.049 292.224 498.966 292.007 498.801 291.852L494.434 287.489C494.279 287.334 494.186 287.117 494.186 286.9V277.895C494.186 277.678 494.103 277.461 493.937 277.306L489.084 272.458C488.929 272.302 488.836 272.085 488.836 271.868V259.99C488.836 259.773 488.753 259.556 488.588 259.401L480.403 251.223C480.248 251.068 480.03 250.975 479.813 250.975H475.539C475.074 250.975 474.701 250.603 474.701 250.138V210.078C474.701 209.612 475.074 209.24 475.539 209.24L475.56 209.261Z" fill="#00ED64"/>
<path d="M488.65 198.768L491.848 195.573C492.003 195.418 492.22 195.325 492.438 195.325H500.095C500.312 195.325 500.53 195.408 500.685 195.573L503.975 198.861C504.131 199.016 504.348 199.109 504.565 199.109H515.875C516.092 199.109 516.31 199.191 516.465 199.357L521.473 204.36C522.001 204.888 521.628 205.787 520.883 205.787H502.992C502.775 205.787 502.558 205.704 502.403 205.539L497.984 201.125C497.829 200.97 497.612 200.876 497.394 200.876H490.234C490.068 200.876 489.903 200.825 489.758 200.732L488.744 200.039C488.309 199.739 488.257 199.129 488.63 198.768H488.65Z" fill="#00ED64"/>
<path d="M515.108 188.75H500.911C500.448 188.75 500.073 189.125 500.073 189.587V191.49C500.073 191.952 500.448 192.327 500.911 192.327H515.108C515.571 192.327 515.947 191.952 515.947 191.49V189.587C515.947 189.125 515.571 188.75 515.108 188.75Z" fill="#00ED64"/>
<path d="M497.445 182.299L491.847 187.892C491.692 188.047 491.599 188.264 491.599 188.481V188.74C491.599 189.205 491.971 189.577 492.437 189.577H494.299C494.517 189.577 494.734 189.494 494.889 189.329L500.746 183.478C501.274 182.95 500.901 182.051 500.156 182.051H498.035C497.818 182.051 497.6 182.134 497.445 182.299Z" fill="#00ED64"/>
<path d="M505.702 180.293V183.612C505.702 184.077 506.075 184.449 506.54 184.449H508.03C508.248 184.449 508.465 184.367 508.62 184.201L510.566 182.258C510.886 181.937 510.886 181.4 510.566 181.079L509.251 179.766C509.096 179.611 508.9 179.528 508.693 179.518L506.571 179.456C506.106 179.446 505.712 179.818 505.712 180.293H505.702Z" fill="#00ED64"/>
<path d="M517.831 177.295L515.689 179.435C515.368 179.756 515.368 180.293 515.689 180.614L518.679 183.602C518.835 183.757 519.052 183.85 519.269 183.85H525.509C525.726 183.85 525.943 183.767 526.099 183.602L528.137 181.565C528.458 181.245 528.458 180.707 528.137 180.386L527.702 179.952C527.547 179.797 527.33 179.704 527.113 179.704H521.877C521.411 179.704 521.039 179.332 521.039 178.867V177.864C521.039 177.399 520.666 177.027 520.2 177.027H518.421C518.203 177.027 517.986 177.109 517.831 177.275V177.295Z" fill="#00ED64"/>
<path d="M526.574 187.768H519.983C519.52 187.768 519.145 188.143 519.145 188.605V190.59C519.145 191.053 519.52 191.427 519.983 191.427H526.574C527.037 191.427 527.412 191.053 527.412 190.59V188.605C527.412 188.143 527.037 187.768 526.574 187.768Z" fill="#00ED64"/>
<path d="M524.577 194.829L521.503 197.899C521.183 198.22 521.183 198.757 521.503 199.078L524.825 202.396C525.146 202.717 525.684 202.717 526.005 202.396L528.229 200.174C528.384 200.019 528.478 199.802 528.478 199.584V197.434C528.478 197.217 528.395 197 528.229 196.845L526.211 194.829C526.056 194.674 525.839 194.581 525.622 194.581H525.166C524.949 194.581 524.732 194.674 524.577 194.829Z" fill="#00ED64"/>
<path d="M530.817 184.863L530.02 185.659C529.699 185.979 529.699 186.517 530.02 186.837L530.703 187.52C530.858 187.675 531.075 187.768 531.293 187.768H533.807C534.024 187.768 534.242 187.85 534.397 188.016L539.333 192.947C539.488 193.102 539.705 193.195 539.923 193.195H555.434C555.899 193.195 556.272 192.823 556.272 192.358V190.569C556.272 190.104 555.899 189.732 555.434 189.732H542.385C542.168 189.732 541.951 189.649 541.796 189.484L537.149 184.842C536.994 184.687 536.777 184.594 536.56 184.594H531.396C531.179 184.604 530.962 184.697 530.806 184.852L530.817 184.863Z" fill="#00ED64"/>
<path d="M537.936 167.722L531.148 174.504C530.827 174.825 530.827 175.362 531.148 175.683L541.744 186.269C541.899 186.424 542.116 186.517 542.334 186.517H555.93C556.148 186.517 556.365 186.434 556.52 186.269L573.19 169.614C573.346 169.459 573.563 169.366 573.78 169.366H581.262C581.727 169.366 582.1 168.994 582.1 168.529V163.287C582.1 162.822 581.727 162.45 581.262 162.45H555.868C555.651 162.45 555.444 162.533 555.299 162.677L550.498 167.226C550.343 167.371 550.136 167.454 549.929 167.454H538.536C538.319 167.454 538.101 167.536 537.946 167.702L537.936 167.722Z" fill="#00ED64"/>
<path d="M581.013 176.437L590.191 167.267C590.346 167.112 590.564 167.019 590.781 167.019H655.506C655.971 167.019 656.344 167.391 656.344 167.857V173.78C656.344 173.997 656.261 174.215 656.095 174.37L648.324 182.134C648.169 182.289 648.076 182.506 648.076 182.723V194.312C648.076 194.529 647.993 194.746 647.828 194.901L644.392 198.333C644.237 198.488 644.144 198.706 644.144 198.923V206.056C644.144 206.273 644.061 206.49 643.895 206.645L638.68 211.856C638.525 212.011 638.308 212.104 638.09 212.104H629.874C629.657 212.104 629.44 212.186 629.285 212.352L609.541 232.077C609.22 232.397 608.682 232.397 608.362 232.077L594.951 218.679C594.796 218.524 594.703 218.307 594.703 218.089V196.576C594.703 196.359 594.62 196.142 594.454 195.987L586.859 188.398C586.704 188.243 586.487 188.15 586.269 188.15H569.506C569.04 188.15 568.668 187.778 568.668 187.313V177.574C568.668 177.12 569.04 176.747 569.496 176.737L580.413 176.665C580.63 176.665 580.837 176.572 580.992 176.417L581.013 176.437Z" fill="#00ED64"/>
<path d="M643.71 215.422L640.181 218.948C639.86 219.268 639.86 219.806 640.181 220.126L644.279 224.22C644.434 224.375 644.651 224.468 644.869 224.468H650.943C651.16 224.468 651.377 224.385 651.532 224.22L656.437 219.32C656.758 218.999 656.758 218.462 656.437 218.141L653.643 215.35C653.488 215.195 653.271 215.102 653.043 215.102L644.279 215.174C644.061 215.174 643.854 215.267 643.699 215.422H643.71Z" fill="#00ED64"/>
<path d="M546.845 220.953L545.407 222.39C545.086 222.711 545.086 223.248 545.407 223.569L547.476 225.636C547.631 225.791 547.849 225.884 548.066 225.884H553.323C553.788 225.884 554.161 225.512 554.161 225.047V221.542C554.161 221.077 553.788 220.705 553.323 220.705H547.435C547.217 220.705 547 220.788 546.845 220.953Z" fill="#00ED64"/>
<path d="M474.721 150.385H922.764" stroke="#001E2B" stroke-width="1.13506" stroke-linecap="round" stroke-linejoin="round"/>
<path d="M901.138 111.111H496.213C484.344 111.111 474.721 120.726 474.721 132.584V150.396H922.619V132.584C922.619 120.726 912.996 111.111 901.127 111.111H901.138Z" fill="#1EC75A" stroke="#011E2A" stroke-width="1.13506" stroke-linecap="round" stroke-linejoin="round"/>
<path d="M496.213 111.111H901.282C913.141 111.111 922.774 120.736 922.774 132.583V436.182H474.721V132.573C474.721 120.725 484.354 111.101 496.213 111.101V111.111Z" stroke="#001E2B" stroke-width="1.13506" stroke-linecap="round" stroke-linejoin="round"/>
<path d="M495.261 138.755C499.387 138.755 502.732 135.414 502.732 131.291C502.732 127.169 499.387 123.827 495.261 123.827C491.135 123.827 487.79 127.169 487.79 131.291C487.79 135.414 491.135 138.755 495.261 138.755Z" fill="#B1FF05" stroke="#011E2A" stroke-width="1.13506" stroke-linecap="round" stroke-linejoin="round"/>
<path d="M513.774 138.755C517.9 138.755 521.245 135.414 521.245 131.291C521.245 127.169 517.9 123.827 513.774 123.827C509.648 123.827 506.303 127.169 506.303 131.291C506.303 135.414 509.648 138.755 513.774 138.755Z" fill="#B1FF05" stroke="#011E2A" stroke-width="1.13506" stroke-linecap="round" stroke-linejoin="round"/>
<path d="M531.862 138.755C535.988 138.755 539.333 135.414 539.333 131.291C539.333 127.169 535.988 123.827 531.862 123.827C527.736 123.827 524.391 127.169 524.391 131.291C524.391 135.414 527.736 138.755 531.862 138.755Z" fill="#B1FF05" stroke="#011E2A" stroke-width="1.13506" stroke-linecap="round" stroke-linejoin="round"/>
<path d="M491.598 283.468C497.438 283.468 502.173 278.737 502.173 272.902C502.173 267.067 497.438 262.337 491.598 262.337C485.757 262.337 481.022 267.067 481.022 272.902C481.022 278.737 485.757 283.468 491.598 283.468Z" fill="#00ED64" stroke="#01232F" stroke-width="1.13506" stroke-linecap="round" stroke-linejoin="round"/>
<path d="M491.597 279.767C495.392 279.767 498.468 276.693 498.468 272.902C498.468 269.111 495.392 266.038 491.597 266.038C487.803 266.038 484.727 269.111 484.727 272.902C484.727 276.693 487.803 279.767 491.597 279.767Z" fill="#1EC75A"/>
<path d="M491.598 276.096C493.364 276.096 494.795 274.666 494.795 272.902C494.795 271.138 493.364 269.708 491.598 269.708C489.832 269.708 488.4 271.138 488.4 272.902C488.4 274.666 489.832 276.096 491.598 276.096Z" fill="#12875B"/>
<path d="M541.473 271.972C547.313 271.972 552.048 267.242 552.048 261.406C552.048 255.571 547.313 250.841 541.473 250.841C535.632 250.841 530.897 255.571 530.897 261.406C530.897 267.242 535.632 271.972 541.473 271.972Z" fill="#00ED64" stroke="#01232F" stroke-width="1.13506" stroke-linecap="round" stroke-linejoin="round"/>
<path d="M541.472 268.271C545.267 268.271 548.343 265.198 548.343 261.406C548.343 257.615 545.267 254.542 541.472 254.542C537.678 254.542 534.602 257.615 534.602 261.406C534.602 265.198 537.678 268.271 541.472 268.271Z" fill="#1EC75A"/>
<path d="M541.473 264.601C543.239 264.601 544.67 263.17 544.67 261.406C544.67 259.642 543.239 258.212 541.473 258.212C539.707 258.212 538.275 259.642 538.275 261.406C538.275 263.17 539.707 264.601 541.473 264.601Z" fill="#12875B"/>
<path d="M560.234 286.341C566.075 286.341 570.81 281.611 570.81 275.776C570.81 269.941 566.075 265.21 560.234 265.21C554.394 265.21 549.659 269.941 549.659 275.776C549.659 281.611 554.394 286.341 560.234 286.341Z" fill="#00ED64" stroke="#01232F" stroke-width="1.13506" stroke-linecap="round" stroke-linejoin="round"/>
<path d="M560.234 282.641C564.029 282.641 567.105 279.567 567.105 275.776C567.105 271.985 564.029 268.912 560.234 268.912C556.439 268.912 553.363 271.985 553.363 275.776C553.363 279.567 556.439 282.641 560.234 282.641Z" fill="#1EC75A"/>
<path d="M560.235 278.97C562 278.97 563.432 277.54 563.432 275.776C563.432 274.012 562 272.581 560.235 272.581C558.469 272.581 557.037 274.012 557.037 275.776C557.037 277.54 558.469 278.97 560.235 278.97Z" fill="#12875B"/>
<path d="M693.873 262.326C699.714 262.326 704.448 257.596 704.448 251.761C704.448 245.926 699.714 241.195 693.873 241.195C688.033 241.195 683.298 245.926 683.298 251.761C683.298 257.596 688.033 262.326 693.873 262.326Z" fill="#00ED64" stroke="#01232F" stroke-width="1.13506" stroke-linecap="round" stroke-linejoin="round"/>
<path d="M693.873 258.625C697.667 258.625 700.744 255.552 700.744 251.761C700.744 247.97 697.667 244.896 693.873 244.896C690.078 244.896 687.002 247.97 687.002 251.761C687.002 255.552 690.078 258.625 693.873 258.625Z" fill="#1EC75A"/>
<path d="M693.873 254.955C695.639 254.955 697.071 253.525 697.071 251.761C697.071 249.996 695.639 248.566 693.873 248.566C692.107 248.566 690.676 249.996 690.676 251.761C690.676 253.525 692.107 254.955 693.873 254.955Z" fill="#12875B"/>
<path d="M759.975 317.087C765.815 317.087 770.55 312.357 770.55 306.521C770.55 300.686 765.815 295.956 759.975 295.956C754.134 295.956 749.399 300.686 749.399 306.521C749.399 312.357 754.134 317.087 759.975 317.087Z" fill="#00ED64" stroke="#01232F" stroke-width="1.13506" stroke-linecap="round" stroke-linejoin="round"/>
<path d="M759.974 313.386C763.769 313.386 766.845 310.313 766.845 306.521C766.845 302.73 763.769 299.657 759.974 299.657C756.18 299.657 753.104 302.73 753.104 306.521C753.104 310.313 756.18 313.386 759.974 313.386Z" fill="#1EC75A"/>
<path d="M759.975 309.716C761.741 309.716 763.172 308.285 763.172 306.521C763.172 304.757 761.741 303.327 759.975 303.327C758.209 303.327 756.777 304.757 756.777 306.521C756.777 308.285 758.209 309.716 759.975 309.716Z" fill="#12875B"/>
<path d="M828.527 341.816C834.368 341.816 839.103 337.086 839.103 331.25C839.103 325.415 834.368 320.685 828.527 320.685C822.687 320.685 817.952 325.415 817.952 331.25C817.952 337.086 822.687 341.816 828.527 341.816Z" fill="#00ED64" stroke="#01232F" stroke-width="1.13506" stroke-linecap="round" stroke-linejoin="round"/>
<path d="M828.528 338.115C832.323 338.115 835.399 335.042 835.399 331.25C835.399 327.459 832.323 324.386 828.528 324.386C824.733 324.386 821.657 327.459 821.657 331.25C821.657 335.042 824.733 338.115 828.528 338.115Z" fill="#1EC75A"/>
<path d="M828.528 334.445C830.293 334.445 831.725 333.014 831.725 331.25C831.725 329.486 830.293 328.056 828.528 328.056C826.762 328.056 825.33 329.486 825.33 331.25C825.33 333.014 826.762 334.445 828.528 334.445Z" fill="#12875B"/>
<path d="M910.068 401.229C915.909 401.229 920.644 396.498 920.644 390.663C920.644 384.828 915.909 380.098 910.068 380.098C904.228 380.098 899.493 384.828 899.493 390.663C899.493 396.498 904.228 401.229 910.068 401.229Z" fill="#00ED64" stroke="#01232F" stroke-width="1.13506" stroke-linecap="round" stroke-linejoin="round"/>
<path d="M910.068 397.528C913.863 397.528 916.939 394.454 916.939 390.663C916.939 386.872 913.863 383.799 910.068 383.799C906.273 383.799 903.197 386.872 903.197 390.663C903.197 394.454 906.273 397.528 910.068 397.528Z" fill="#1EC75A"/>
<path d="M910.069 393.857C911.834 393.857 913.266 392.427 913.266 390.663C913.266 388.899 911.834 387.469 910.069 387.469C908.303 387.469 906.871 388.899 906.871 390.663C906.871 392.427 908.303 393.857 910.069 393.857Z" fill="#12875B"/>
<path d="M612.511 390.663C618.351 390.663 623.086 385.933 623.086 380.098C623.086 374.263 618.351 369.532 612.511 369.532C606.67 369.532 601.936 374.263 601.936 380.098C601.936 385.933 606.67 390.663 612.511 390.663Z" fill="#00ED64" stroke="#01232F" stroke-width="1.13506" stroke-linecap="round" stroke-linejoin="round"/>
<path d="M612.51 386.962C616.305 386.962 619.381 383.889 619.381 380.098C619.381 376.307 616.305 373.233 612.51 373.233C608.716 373.233 605.64 376.307 605.64 380.098C605.64 383.889 608.716 386.962 612.51 386.962Z" fill="#1EC75A"/>
<path d="M612.511 383.292C614.277 383.292 615.708 381.862 615.708 380.098C615.708 378.333 614.277 376.903 612.511 376.903C610.745 376.903 609.313 378.333 609.313 380.098C609.313 381.862 610.745 383.292 612.511 383.292Z" fill="#12875B"/>
<path d="M712.364 401.766C718.205 401.766 722.94 397.036 722.94 391.201C722.94 385.366 718.205 380.635 712.364 380.635C706.524 380.635 701.789 385.366 701.789 391.201C701.789 397.036 706.524 401.766 712.364 401.766Z" fill="#00ED64" stroke="#01232F" stroke-width="1.13506" stroke-linecap="round" stroke-linejoin="round"/>
<path d="M712.364 398.065C716.159 398.065 719.235 394.992 719.235 391.201C719.235 387.41 716.159 384.336 712.364 384.336C708.569 384.336 705.493 387.41 705.493 391.201C705.493 394.992 708.569 398.065 712.364 398.065Z" fill="#1EC75A"/>
<path d="M712.364 394.395C714.13 394.395 715.562 392.965 715.562 391.201C715.562 389.436 714.13 388.006 712.364 388.006C710.599 388.006 709.167 389.436 709.167 391.201C709.167 392.965 710.599 394.395 712.364 394.395Z" fill="#12875B"/>
<path d="M853.818 130.702L853.839 130.785L871.451 127.404L876.552 111.111H843.388L841.235 117.976L853.797 130.774L853.818 130.702Z" fill="black"/>
<path d="M832.678 119.433L820.116 106.635L826.159 87.3232L838.887 99.5739L832.678 119.433Z" fill="black" stroke="black" stroke-width="1.13506" stroke-linecap="round" stroke-linejoin="round"/>
<path d="M832.719 119.444L850.33 116.063L856.363 96.7517L838.927 99.5843L832.719 119.444Z" fill="white" stroke="black" stroke-width="1.13506" stroke-linecap="round" stroke-linejoin="round"/>
<path d="M843.533 84.718L826.159 87.3232L838.928 99.5842L856.364 96.7515L843.533 84.718Z" fill="white" stroke="black" stroke-width="1.13506" stroke-linecap="round" stroke-linejoin="round"/>
<path d="M761.268 99.9667C761.061 99.9667 760.854 99.977 760.637 99.9873C752.628 77.4813 731.136 61.3643 705.856 61.3643C680.577 61.3643 658.795 77.7088 650.92 100.453C632.409 103.389 618.253 119.413 618.253 138.734C618.253 160.145 635.627 177.502 657.057 177.502H761.258C782.688 177.502 800.061 160.145 800.061 138.734C800.061 117.324 782.688 99.9667 761.258 99.9667H761.268Z" fill="#011F2B"/>
<path d="M761.268 84.5216C761.061 84.5216 760.854 84.5319 760.637 84.5423C752.628 62.0363 731.136 45.9192 705.856 45.9192C680.577 45.9192 658.795 62.2637 650.92 85.0075C632.409 87.9435 618.253 103.968 618.253 123.289C618.253 144.7 635.627 162.057 657.057 162.057H761.258C782.688 162.057 800.061 144.7 800.061 123.289C800.061 101.879 782.688 84.5216 761.258 84.5216H761.268Z" fill="white" stroke="#001E2B" stroke-width="1.13506" stroke-linecap="round" stroke-linejoin="round"/>
<path d="M709.851 102.489C709.665 103.254 709.499 103.967 709.323 104.681C708.619 107.606 707.926 110.522 707.222 113.447C707.202 113.551 707.16 113.664 707.129 113.768C706.974 114.192 706.788 114.336 706.333 114.347C705.753 114.347 705.174 114.347 704.605 114.347C704.201 114.347 703.942 114.161 703.818 113.789C703.59 113.106 703.373 112.424 703.166 111.731C702.018 107.948 700.869 104.174 699.72 100.39C699.638 100.122 699.534 99.8631 699.534 99.5737C699.534 99.2946 699.648 99.1498 699.927 99.1498C700.569 99.1498 701.221 99.1291 701.862 99.1602C702.173 99.1808 702.39 99.3359 702.504 99.6254C702.763 100.277 702.887 100.959 703.052 101.631C703.859 104.774 704.656 107.927 705.453 111.08C705.463 111.132 705.494 111.194 705.525 111.297C705.836 109.994 706.126 108.754 706.415 107.513C706.995 105.043 707.574 102.572 708.164 100.101C708.35 99.2946 708.537 99.1602 709.375 99.1602C709.84 99.1602 710.306 99.1602 710.772 99.1705C711.175 99.1705 711.424 99.3979 711.517 99.7701C711.693 100.452 711.848 101.135 712.013 101.817C712.769 105.001 713.524 108.196 714.311 111.39C714.393 111.08 714.476 110.78 714.559 110.47C715.449 107.027 716.339 103.585 717.229 100.153C717.446 99.2945 717.632 99.1602 718.522 99.1602C718.946 99.1602 719.371 99.1602 719.795 99.1602C720.209 99.1602 720.354 99.3256 720.292 99.7287C720.178 100.411 719.909 101.062 719.712 101.724C718.501 105.621 717.28 109.519 716.059 113.427C715.79 114.274 715.645 114.388 714.756 114.378C714.29 114.378 713.824 114.378 713.359 114.357C712.893 114.336 712.717 114.181 712.593 113.727C712.427 113.127 712.293 112.527 712.148 111.928C711.413 108.868 710.679 105.808 709.944 102.747C709.923 102.685 709.903 102.623 709.871 102.499L709.851 102.489Z" fill="#2B3A4E"/>
<path d="M708.62 129.513C700.042 129.347 692.322 126.711 685.534 121.439C684.882 120.932 684.241 120.384 683.62 119.836C683.537 119.764 683.465 119.681 683.413 119.578C683.33 119.412 683.32 119.247 683.434 119.102C683.548 118.957 683.703 118.906 683.889 118.947C684.024 118.968 684.148 119.04 684.262 119.102C687.024 120.684 689.901 121.987 692.912 123.01C695.789 123.992 698.728 124.716 701.739 125.191C704.243 125.584 706.757 125.791 709.293 125.812C711.652 125.832 714.011 125.667 716.35 125.346C720.737 124.747 724.98 123.599 729.077 121.893C729.315 121.79 729.553 121.718 729.812 121.769C730.381 121.883 730.609 122.493 730.236 122.938C730.153 123.041 730.04 123.124 729.936 123.206C727.38 125.067 724.566 126.401 721.596 127.424C719.123 128.272 716.588 128.851 714.011 129.192C712.221 129.43 710.431 129.554 708.62 129.523V129.513Z" fill="#FBA701"/>
<path d="M695.239 112.383C694.681 113.013 694.08 113.561 693.356 113.954C691.794 114.791 690.148 114.988 688.451 114.492C686.775 114.006 685.647 112.558 685.513 110.811C685.399 109.405 685.668 108.113 686.672 107.048C687.499 106.17 688.534 105.694 689.714 105.477C691.183 105.218 692.642 105.384 694.091 105.653C694.36 105.704 694.619 105.766 694.888 105.828C694.97 105.849 695.053 105.87 695.053 105.725C695.043 104.908 695.105 104.081 694.929 103.265C694.65 101.962 693.925 101.342 692.57 101.156C690.873 100.928 689.279 101.28 687.717 101.9C687.479 101.993 687.251 102.096 686.992 102.148C686.713 102.2 686.558 102.117 686.527 101.838C686.475 101.362 686.465 100.876 686.547 100.391C686.589 100.132 686.806 99.9977 687.013 99.884C687.675 99.5221 688.4 99.2843 689.124 99.0983C690.852 98.6537 692.59 98.5917 694.339 99.0156C696.347 99.5118 697.412 100.845 697.754 102.83C697.847 103.389 697.868 103.947 697.868 104.505C697.868 106.076 697.868 107.638 697.868 109.209C697.868 110.439 698.023 111.618 698.665 112.703C698.861 113.024 698.799 113.282 698.499 113.51C698.095 113.809 697.681 114.088 697.247 114.337C696.936 114.523 696.647 114.45 696.357 114.151C695.974 113.758 695.705 113.292 695.457 112.807C695.384 112.672 695.322 112.538 695.239 112.383ZM692.032 107.389C691.535 107.389 691.028 107.4 690.542 107.524C689.496 107.772 688.762 108.33 688.544 109.436C688.472 109.819 688.482 110.191 688.524 110.574C688.638 111.535 689.238 112.238 690.19 112.414C691.483 112.651 692.684 112.383 693.76 111.618C694.474 111.101 694.898 110.408 695.012 109.519C695.074 109.033 695.084 108.537 695.105 108.051C695.105 107.834 695.043 107.762 694.846 107.72C693.925 107.534 692.994 107.4 692.042 107.389H692.032Z" fill="#2B3A4E"/>
<path d="M726.873 114.812C725.341 114.812 724.037 114.554 722.765 114.099C722.682 114.068 722.589 114.026 722.506 113.995C721.813 113.737 721.43 113.282 721.533 112.507C721.564 112.289 721.533 112.062 721.554 111.845C721.585 111.545 721.751 111.431 722.04 111.473C722.258 111.504 722.444 111.586 722.641 111.68C724.12 112.321 725.662 112.579 727.256 112.465C727.939 112.424 728.601 112.279 729.18 111.876C730.339 111.059 730.267 109.436 729.035 108.733C728.373 108.351 727.638 108.175 726.924 107.937C725.972 107.627 724.979 107.4 724.079 106.934C722.123 105.942 721.192 103.699 721.968 101.745C722.485 100.442 723.499 99.6357 724.782 99.1498C726.148 98.6329 727.556 98.6329 728.973 98.8603C729.656 98.974 730.318 99.1394 730.96 99.3876C731.188 99.4806 731.405 99.5943 731.602 99.7494C731.819 99.9148 731.964 100.132 731.984 100.411C732.005 100.783 732.026 101.155 731.984 101.528C731.943 101.848 731.777 101.962 731.467 101.889C731.291 101.848 731.126 101.776 730.97 101.714C729.449 101.062 727.866 100.876 726.242 101.186C725.993 101.238 725.755 101.321 725.528 101.445C724.348 102.065 724.224 103.657 725.31 104.433C725.817 104.805 726.397 105.011 726.987 105.208C728.052 105.57 729.149 105.839 730.194 106.273C731.177 106.676 731.995 107.276 732.481 108.268C733.361 110.077 732.781 112.31 731.105 113.582C730.163 114.295 729.077 114.605 727.928 114.771C727.535 114.822 727.131 114.843 726.914 114.833L726.873 114.812Z" fill="#2B3A4E"/>
<path d="M729.77 119.93C728.508 119.94 727.245 120.074 725.993 120.229C725.88 120.24 725.776 120.25 725.662 120.25C725.341 120.25 725.217 120.023 725.383 119.754C725.466 119.609 725.59 119.516 725.724 119.423C726.811 118.689 728.032 118.296 729.315 118.089C730.784 117.852 732.254 117.841 733.713 118.162C733.909 118.203 734.106 118.275 734.303 118.327C734.758 118.462 734.944 118.782 734.965 119.237C735.027 120.384 734.799 121.491 734.447 122.586C733.93 124.209 733.164 125.698 731.933 126.908C731.788 127.052 731.633 127.187 731.467 127.301C731.302 127.414 731.105 127.497 730.929 127.352C730.764 127.208 730.836 127.021 730.898 126.856C731.302 125.853 731.705 124.84 732.026 123.806C732.285 122.99 732.533 122.173 732.564 121.304C732.585 120.519 732.378 120.26 731.612 120.074C731.467 120.043 731.333 120.012 731.188 119.992C730.712 119.93 730.236 119.919 729.76 119.919L729.77 119.93Z" fill="#FBA701"/>
<path d="M1024.86 275.487C1024.94 274.277 1024.99 273.057 1024.99 271.827C1024.99 239.758 998.964 213.758 966.855 213.758C941.565 213.758 920.063 229.896 912.064 252.422C897.122 253.229 884.446 262.481 878.693 275.476C865.634 277.575 855.659 288.875 855.659 302.51C855.659 317.635 867.932 329.906 883.08 329.906H1020.37C1035.51 329.906 1047.79 317.645 1047.79 302.51C1047.79 288.906 1037.87 277.627 1024.86 275.487Z" fill="#011F2B"/>
<path d="M1024.86 260.041C1024.94 258.832 1024.99 257.612 1024.99 256.382C1024.99 224.313 998.964 198.313 966.855 198.313C941.565 198.313 920.063 214.45 912.064 236.977C897.122 237.784 884.446 247.036 878.693 260.031C865.634 262.13 855.659 273.429 855.659 287.065C855.659 302.19 867.932 314.461 883.08 314.461H1020.37C1035.51 314.461 1047.79 302.2 1047.79 287.065C1047.79 273.46 1037.87 262.181 1024.86 260.041Z" fill="white" stroke="#001E2B" stroke-width="1.13506" stroke-linecap="round" stroke-linejoin="round"/>
<path d="M981.332 283.685C968.004 283.685 954.687 283.685 941.359 283.685C941.266 283.685 941.173 283.716 941.09 283.654C941.669 283.55 942.249 283.447 942.818 283.344C944.018 283.137 945.219 282.93 946.409 282.723C947.599 282.517 948.789 282.31 949.979 282.113C951.168 281.907 952.358 281.71 953.548 281.504C954.749 281.297 955.949 281.09 957.139 280.883C958.588 280.635 960.036 280.387 961.485 280.139C962.685 279.932 963.886 279.725 965.076 279.529C965.2 279.508 965.324 279.477 965.448 279.457C965.428 279.353 965.365 279.302 965.314 279.25C961.144 274.019 956.984 268.777 952.814 263.546C952.721 263.433 952.7 263.329 952.752 263.184C954.925 257.085 957.087 250.975 959.26 244.865C959.291 244.783 959.322 244.7 959.353 244.607C959.436 244.638 959.457 244.721 959.488 244.772C961.382 248.132 963.265 251.502 965.159 254.873C969.246 262.151 973.333 269.418 977.421 276.696C978.683 278.95 979.945 281.193 981.208 283.447C981.249 283.53 981.301 283.602 981.322 283.695L981.332 283.685Z" fill="#0084CE"/>
<path d="M957.212 241.474C957.232 241.567 957.181 241.629 957.15 241.702C955.711 244.886 954.273 248.06 952.835 251.244C949.151 259.38 945.478 267.526 941.794 275.662C941.328 276.686 940.862 277.709 940.407 278.733C940.355 278.857 940.283 278.898 940.159 278.898C936.278 278.898 932.408 278.898 928.528 278.898C928.466 278.898 928.404 278.898 928.342 278.888C928.342 278.795 928.383 278.743 928.425 278.681C932.802 270.824 937.179 262.967 941.556 255.121C941.618 255.007 941.69 254.914 941.794 254.831C944.846 252.185 947.899 249.538 950.951 246.892C952.98 245.134 955.008 243.377 957.026 241.619C957.077 241.567 957.129 241.505 957.212 241.485V241.474Z" fill="#0084CE"/>
<path d="M546.77 398.386C536.681 381.204 518.004 369.656 496.615 369.656C471.026 369.656 449.316 386.187 441.545 409.137C424.047 412.89 410.916 428.428 410.916 447.037C410.916 468.447 428.29 485.805 449.72 485.805H545.436C569.608 485.805 589.196 466.224 589.196 442.085C589.196 417.945 570.311 399.099 546.76 398.396L546.77 398.386Z" fill="#011F2B"/>
<path d="M546.77 382.951C536.681 365.769 518.004 354.222 496.615 354.222C471.026 354.222 449.316 370.752 441.545 393.703C424.047 397.456 410.916 412.994 410.916 431.602C410.916 453.012 428.29 470.37 449.72 470.37H545.436C569.608 470.37 589.196 450.79 589.196 426.65C589.196 402.511 570.311 383.665 546.76 382.962L546.77 382.951Z" fill="white" stroke="#001E2B" stroke-width="1.13506" stroke-linecap="round" stroke-linejoin="round"/>
<path d="M511.609 438.994H500.009C500.081 435.862 500.05 432.719 500.029 429.586C503.817 429.586 507.594 429.576 511.381 429.566C511.857 429.566 512.333 429.566 512.799 429.483C515.706 428.966 517.724 426.557 517.714 423.652C517.703 420.758 515.654 418.39 512.716 417.884C512.136 417.78 511.843 417.432 511.836 416.84C511.795 413.076 510.408 409.944 507.469 407.535C507.563 407.297 507.77 407.153 507.935 406.977C509.974 404.93 512.012 402.883 514.051 400.836C514.216 400.857 514.309 400.981 514.423 401.084C517.248 403.72 519.235 406.874 520.363 410.575C520.476 410.968 520.683 411.226 521.004 411.464C523.715 413.511 525.557 416.157 526.551 419.403C526.84 420.344 526.913 421.316 527.161 422.257L527.068 425.462C527.037 425.555 527.047 425.658 527.037 425.751C525.992 432.398 521.294 437.381 514.785 438.725H514.744C513.709 438.922 512.664 439.004 511.619 439.004L511.609 438.994Z" fill="#5197F3"/>
<path d="M488.575 438.994C487.426 438.994 486.277 438.911 485.16 438.663H485.149C482.935 438.167 480.907 437.268 479.106 435.882C479.717 435.262 480.327 434.642 480.938 434.032C482.573 432.388 484.218 430.744 485.853 429.101C487.188 429.638 488.595 429.586 490.003 429.586C493.345 429.586 496.687 429.586 500.029 429.586C500.05 432.719 500.081 435.862 500.009 438.994H488.575Z" fill="#3EB066"/>
<path d="M507.469 407.525C506.497 406.894 505.555 406.243 504.469 405.809C499.874 403.927 494.638 405.106 491.306 408.796C489.671 408.517 488.026 408.435 486.381 408.641C483.96 408.941 481.766 409.83 479.717 411.112C479.458 410.936 479.645 410.74 479.696 410.564C480.845 406.76 482.914 403.545 485.874 400.908C490.106 397.145 495.094 395.326 500.754 395.512C505.814 395.677 510.263 397.476 514.061 400.826C512.022 402.873 509.984 404.92 507.945 406.967C507.77 407.142 507.563 407.287 507.48 407.525H507.469Z" fill="#ED5B44"/>
<path d="M479.707 411.102C481.756 409.82 483.96 408.931 486.371 408.631C488.027 408.434 489.662 408.507 491.296 408.786C494.039 409.386 496.491 410.574 498.581 412.466C499.202 413.025 499.771 413.635 500.299 414.286C500.433 414.451 500.496 414.565 500.299 414.761C498.116 416.953 495.943 419.155 493.718 421.398C493.304 420.716 492.952 420.117 492.445 419.631C490.645 417.935 488.554 417.439 486.247 418.297C484.001 419.124 482.687 420.809 482.46 423.187C482.222 425.72 483.308 427.622 485.502 428.904C485.616 428.966 485.729 429.038 485.843 429.1C484.208 430.744 482.563 432.388 480.928 434.032C480.318 434.652 479.707 435.262 479.097 435.882C477.337 434.683 476.003 433.091 474.968 431.251C471.129 424.428 472.971 416.043 479.304 411.422C479.438 411.319 479.562 411.205 479.697 411.102H479.707Z" fill="#F9C201"/>
<path d="M847.02 462.182H950.744V379.736" stroke="#001E2B" stroke-width="1.13506" stroke-linecap="round" stroke-linejoin="round"/>
<path d="M897.009 477.689H966.266V408.528" stroke="#001E2B" stroke-width="1.13506" stroke-linecap="round" stroke-linejoin="round"/>
<path d="M792.933 477.689H869.05" stroke="#001E2B" stroke-width="1.13506" stroke-linecap="round" stroke-linejoin="round"/>
</g>
<path d="M866.916 546.96C870.42 546.96 872.82 549.384 872.82 552.528C872.82 555.672 870.42 558.096 866.916 558.096H864.3V564H861.492V546.96H866.916ZM866.892 555.456C868.884 555.456 870.06 554.184 870.06 552.528C870.06 550.872 868.884 549.6 866.892 549.6H864.3V555.456H866.892ZM886.052 560.232C885.38 562.488 883.22 564.24 880.172 564.24C876.596 564.24 874.028 561.6 874.028 558C874.028 554.448 876.5 551.76 880.196 551.76C883.868 551.76 886.436 554.568 886.196 558.648H876.644C876.74 560.472 878.132 561.912 880.268 561.912C881.588 561.912 882.74 561.384 883.292 560.232H886.052ZM880.124 553.968C878.468 553.968 877.1 554.928 876.74 556.776H883.364C882.956 554.832 881.588 553.968 880.124 553.968ZM888.907 564V552H891.547V554.136C892.003 552.768 893.347 551.88 894.715 551.88C895.051 551.88 895.387 551.904 895.747 551.976V554.688C895.291 554.544 894.907 554.472 894.427 554.472C892.915 554.472 891.547 555.744 891.547 558.144V564H888.907ZM899.152 564V554.352H896.656V552H899.152V549.984C899.152 547.296 900.952 545.856 903.256 545.856C904.072 545.856 904.72 545.976 905.224 546.144V548.496C904.84 548.352 904.312 548.256 903.808 548.256C902.44 548.256 901.792 548.808 901.792 550.296V552H905.224V554.352H901.792V564H899.152ZM918.736 558C918.736 561.48 916 564.24 912.448 564.24C908.896 564.24 906.16 561.48 906.16 558C906.16 554.52 908.896 551.76 912.448 551.76C916 551.76 918.736 554.52 918.736 558ZM908.824 558C908.824 560.136 910.312 561.792 912.448 561.792C914.56 561.792 916.048 560.136 916.048 558C916.048 555.864 914.56 554.208 912.448 554.208C910.312 554.208 908.824 555.864 908.824 558ZM921.391 564V552H924.031V554.136C924.487 552.768 925.831 551.88 927.199 551.88C927.535 551.88 927.871 551.904 928.231 551.976V554.688C927.775 554.544 927.391 554.472 926.911 554.472C925.399 554.472 924.031 555.744 924.031 558.144V564H921.391ZM930.508 564V552H933.148V553.632C933.82 552.504 935.02 551.76 936.556 551.76C938.332 551.76 939.628 552.648 940.276 554.136C940.996 552.6 942.532 551.76 944.116 551.76C946.828 551.76 948.436 553.752 948.436 556.824V564H945.796V557.256C945.796 555.384 945.1 554.16 943.66 554.16C941.956 554.16 940.804 555.576 940.804 558.096V564H938.164V557.256C938.164 555.384 937.468 554.16 936.028 554.16C934.324 554.16 933.148 555.576 933.148 558.096V564H930.508ZM950.949 558C950.949 554.568 953.445 551.76 956.733 551.76C958.461 551.76 959.901 552.648 960.573 553.608V552H963.213V564H960.573V562.392C959.901 563.352 958.461 564.24 956.733 564.24C953.445 564.24 950.949 561.432 950.949 558ZM960.789 558C960.789 555.84 959.349 554.16 957.213 554.16C955.077 554.16 953.637 555.84 953.637 558C953.637 560.16 955.077 561.84 957.213 561.84C959.349 561.84 960.789 560.16 960.789 558ZM966.79 564V552H969.43V553.632C970.15 552.432 971.518 551.76 973.078 551.76C975.862 551.76 977.662 553.728 977.662 556.776V564H975.022V557.208C975.022 555.312 974.062 554.16 972.526 554.16C970.774 554.16 969.43 555.528 969.43 558.096V564H966.79ZM992.56 559.608C991.912 562.272 989.632 564.24 986.464 564.24C982.816 564.24 980.176 561.456 980.176 558C980.176 554.544 982.816 551.76 986.464 551.76C989.632 551.76 991.912 553.728 992.56 556.392H989.776C989.296 555.096 988.12 554.16 986.464 554.16C984.328 554.16 982.864 555.768 982.864 558C982.864 560.232 984.328 561.84 986.464 561.84C988.12 561.84 989.296 560.904 989.776 559.608H992.56ZM1006.24 560.232C1005.57 562.488 1003.41 564.24 1000.36 564.24C996.783 564.24 994.215 561.6 994.215 558C994.215 554.448 996.687 551.76 1000.38 551.76C1004.06 551.76 1006.62 554.568 1006.38 558.648H996.831C996.927 560.472 998.319 561.912 1000.46 561.912C1001.78 561.912 1002.93 561.384 1003.48 560.232H1006.24ZM1000.31 553.968C998.655 553.968 997.287 554.928 996.927 556.776H1003.55C1003.14 554.832 1001.78 553.968 1000.31 553.968Z" fill="black"/>
<line x1="1183.86" y1="545" x2="1183.86" y2="470" stroke="black" stroke-width="3"/>
<circle cx="1184.36" cy="545.551" r="8" fill="#2A2A2A"/>
<line x1="932.369" y1="646" x2="932.369" y2="581" stroke="black" stroke-width="3"/>
<circle cx="933.361" cy="646.447" r="8" fill="#2A2A2A"/>
<line x1="715.369" y1="711" x2="715.369" y2="646" stroke="black" stroke-width="3"/>
<circle cx="716.361" cy="711.447" r="8" fill="#2A2A2A"/>
<path d="M1158.74 408.48C1158.74 403.512 1162.56 399.672 1167.62 399.672C1171.72 399.672 1175.01 402.336 1175.83 405.672H1172.8C1172.08 403.728 1170.02 402.384 1167.62 402.384C1164.07 402.384 1161.57 405.048 1161.57 408.48C1161.57 411.912 1164.07 414.576 1167.62 414.576C1170.02 414.576 1172.08 413.232 1172.8 411.288H1175.83C1175.01 414.624 1171.72 417.288 1167.62 417.288C1162.56 417.288 1158.74 413.448 1158.74 408.48ZM1190.06 411C1190.06 414.48 1187.33 417.24 1183.78 417.24C1180.22 417.24 1177.49 414.48 1177.49 411C1177.49 407.52 1180.22 404.76 1183.78 404.76C1187.33 404.76 1190.06 407.52 1190.06 411ZM1180.15 411C1180.15 413.136 1181.64 414.792 1183.78 414.792C1185.89 414.792 1187.38 413.136 1187.38 411C1187.38 408.864 1185.89 407.208 1183.78 407.208C1181.64 407.208 1180.15 408.864 1180.15 411ZM1201.65 413.688C1201.65 416.016 1199.63 417.24 1196.94 417.24C1194.14 417.24 1191.95 415.752 1191.81 413.352H1194.54C1194.76 414.648 1195.84 415.128 1197.02 415.128C1198.17 415.128 1198.96 414.672 1198.96 413.856C1198.96 413.04 1198.43 412.584 1197.18 412.272L1195.22 411.744C1193.15 411.216 1192.14 409.872 1192.14 408.12C1192.14 406.104 1193.92 404.76 1196.61 404.76C1199.2 404.76 1201 406.2 1201.19 408.36H1198.55C1198.31 407.352 1197.52 406.872 1196.58 406.872C1195.58 406.872 1194.83 407.328 1194.83 408.096C1194.83 408.864 1195.43 409.272 1196.44 409.536L1198.46 410.064C1200.62 410.616 1201.65 411.864 1201.65 413.688ZM1211.26 416.856C1210.73 417.024 1210.11 417.12 1209.29 417.12C1206.99 417.12 1205.19 415.848 1205.19 413.136V407.352H1202.69V405H1205.19V401.664H1207.83V405H1211.26V407.352H1207.83V412.704C1207.83 414.192 1208.48 414.744 1209.85 414.744C1210.35 414.744 1210.88 414.648 1211.26 414.504V416.856ZM1129.13 436.48C1129.13 441.4 1125.19 445.288 1120.32 445.288C1115.43 445.288 1111.51 441.4 1111.51 436.48C1111.51 431.56 1115.43 427.672 1120.32 427.672C1125.19 427.672 1129.13 431.56 1129.13 436.48ZM1114.35 436.48C1114.35 439.864 1116.94 442.576 1120.32 442.576C1123.68 442.576 1126.27 439.864 1126.27 436.48C1126.27 433.096 1123.68 430.384 1120.32 430.384C1116.94 430.384 1114.35 433.096 1114.35 436.48ZM1131.83 450.016V433H1134.47V434.608C1135.14 433.648 1136.6 432.76 1138.33 432.76C1141.62 432.76 1144.12 435.568 1144.12 439C1144.12 442.432 1141.62 445.24 1138.33 445.24C1136.6 445.24 1135.14 444.352 1134.47 443.392V450.016H1131.83ZM1141.43 439C1141.43 436.84 1139.96 435.16 1137.85 435.16C1135.72 435.16 1134.25 436.84 1134.25 439C1134.25 441.16 1135.72 442.84 1137.85 442.84C1139.96 442.84 1141.43 441.16 1141.43 439ZM1153.75 444.856C1153.22 445.024 1152.59 445.12 1151.78 445.12C1149.47 445.12 1147.67 443.848 1147.67 441.136V435.352H1145.18V433H1147.67V429.664H1150.31V433H1153.75V435.352H1150.31V440.704C1150.31 442.192 1150.96 442.744 1152.33 442.744C1152.83 442.744 1153.36 442.648 1153.75 442.504V444.856ZM1159.32 428.608C1159.32 429.592 1158.55 430.384 1157.57 430.384C1156.61 430.384 1155.79 429.592 1155.79 428.608C1155.79 427.648 1156.61 426.856 1157.57 426.856C1158.55 426.856 1159.32 427.648 1159.32 428.608ZM1156.25 445V433H1158.89V445H1156.25ZM1162.44 445V433H1165.08V434.632C1165.75 433.504 1166.95 432.76 1168.49 432.76C1170.26 432.76 1171.56 433.648 1172.21 435.136C1172.93 433.6 1174.46 432.76 1176.05 432.76C1178.76 432.76 1180.37 434.752 1180.37 437.824V445H1177.73V438.256C1177.73 436.384 1177.03 435.16 1175.59 435.16C1173.89 435.16 1172.73 436.576 1172.73 439.096V445H1170.09V438.256C1170.09 436.384 1169.4 435.16 1167.96 435.16C1166.25 435.16 1165.08 436.576 1165.08 439.096V445H1162.44ZM1186.81 428.608C1186.81 429.592 1186.05 430.384 1185.06 430.384C1184.1 430.384 1183.29 429.592 1183.29 428.608C1183.29 427.648 1184.1 426.856 1185.06 426.856C1186.05 426.856 1186.81 427.648 1186.81 428.608ZM1183.74 445V433H1186.38V445H1183.74ZM1189.11 445V442.912L1195.4 435.4H1189.21V433H1198.81V435.112L1192.55 442.6H1199V445H1189.11ZM1200.67 439C1200.67 435.568 1203.16 432.76 1206.45 432.76C1208.18 432.76 1209.62 433.648 1210.29 434.608V433H1212.93V445H1210.29V443.392C1209.62 444.352 1208.18 445.24 1206.45 445.24C1203.16 445.24 1200.67 442.432 1200.67 439ZM1210.51 439C1210.51 436.84 1209.07 435.16 1206.93 435.16C1204.8 435.16 1203.36 436.84 1203.36 439C1203.36 441.16 1204.8 442.84 1206.93 442.84C1209.07 442.84 1210.51 441.16 1210.51 439ZM1223.68 444.856C1223.16 445.024 1222.53 445.12 1221.72 445.12C1219.41 445.12 1217.61 443.848 1217.61 441.136V435.352H1215.12V433H1217.61V429.664H1220.25V433H1223.68V435.352H1220.25V440.704C1220.25 442.192 1220.9 442.744 1222.27 442.744C1222.77 442.744 1223.3 442.648 1223.68 442.504V444.856ZM1229.26 428.608C1229.26 429.592 1228.49 430.384 1227.51 430.384C1226.55 430.384 1225.73 429.592 1225.73 428.608C1225.73 427.648 1226.55 426.856 1227.51 426.856C1228.49 426.856 1229.26 427.648 1229.26 428.608ZM1226.19 445V433H1228.83V445H1226.19ZM1244.09 439C1244.09 442.48 1241.35 445.24 1237.8 445.24C1234.25 445.24 1231.51 442.48 1231.51 439C1231.51 435.52 1234.25 432.76 1237.8 432.76C1241.35 432.76 1244.09 435.52 1244.09 439ZM1234.18 439C1234.18 441.136 1235.66 442.792 1237.8 442.792C1239.91 442.792 1241.4 441.136 1241.4 439C1241.4 436.864 1239.91 435.208 1237.8 435.208C1235.66 435.208 1234.18 436.864 1234.18 439ZM1246.74 445V433H1249.38V434.632C1250.1 433.432 1251.47 432.76 1253.03 432.76C1255.81 432.76 1257.61 434.728 1257.61 437.776V445H1254.97V438.208C1254.97 436.312 1254.01 435.16 1252.48 435.16C1250.73 435.16 1249.38 436.528 1249.38 439.096V445H1246.74Z" fill="black"/>
<line x1="256.861" y1="545" x2="256.861" y2="470" stroke="black" stroke-width="3"/>
<circle cx="257.361" cy="545.551" r="8" fill="#2A2A2A"/>
<path d="M207.032 408.48C207.032 413.4 203.096 417.288 198.224 417.288C193.328 417.288 189.416 413.4 189.416 408.48C189.416 403.56 193.328 399.672 198.224 399.672C203.096 399.672 207.032 403.56 207.032 408.48ZM192.248 408.48C192.248 411.864 194.84 414.576 198.224 414.576C201.584 414.576 204.176 411.864 204.176 408.48C204.176 405.096 201.584 402.384 198.224 402.384C194.84 402.384 192.248 405.096 192.248 408.48ZM209.731 422.016V405H212.371V406.608C213.043 405.648 214.507 404.76 216.235 404.76C219.523 404.76 222.019 407.568 222.019 411C222.019 414.432 219.523 417.24 216.235 417.24C214.507 417.24 213.043 416.352 212.371 415.392V422.016H209.731ZM219.331 411C219.331 408.84 217.867 407.16 215.755 407.16C213.619 407.16 212.155 408.84 212.155 411C212.155 413.16 213.619 414.84 215.755 414.84C217.867 414.84 219.331 413.16 219.331 411ZM235.892 413.232C235.22 415.488 233.06 417.24 230.012 417.24C226.436 417.24 223.868 414.6 223.868 411C223.868 407.448 226.34 404.76 230.036 404.76C233.708 404.76 236.276 407.568 236.036 411.648H226.484C226.58 413.472 227.972 414.912 230.108 414.912C231.428 414.912 232.58 414.384 233.132 413.232H235.892ZM229.964 406.968C228.308 406.968 226.94 407.928 226.58 409.776H233.204C232.796 407.832 231.428 406.968 229.964 406.968ZM238.747 417V405H241.387V407.136C241.843 405.768 243.187 404.88 244.555 404.88C244.891 404.88 245.227 404.904 245.587 404.976V407.688C245.131 407.544 244.747 407.472 244.267 407.472C242.755 407.472 241.387 408.744 241.387 411.144V417H238.747ZM246.601 411C246.601 407.568 249.097 404.76 252.385 404.76C254.113 404.76 255.553 405.648 256.225 406.608V405H258.865V417H256.225V415.392C255.553 416.352 254.113 417.24 252.385 417.24C249.097 417.24 246.601 414.432 246.601 411ZM256.441 411C256.441 408.84 255.001 407.16 252.865 407.16C250.729 407.16 249.289 408.84 249.289 411C249.289 413.16 250.729 414.84 252.865 414.84C255.001 414.84 256.441 413.16 256.441 411ZM269.618 416.856C269.09 417.024 268.466 417.12 267.65 417.12C265.346 417.12 263.546 415.848 263.546 413.136V407.352H261.05V405H263.546V401.664H266.186V405H269.618V407.352H266.186V412.704C266.186 414.192 266.834 414.744 268.202 414.744C268.706 414.744 269.234 414.648 269.618 414.504V416.856ZM275.194 400.608C275.194 401.592 274.426 402.384 273.442 402.384C272.482 402.384 271.666 401.592 271.666 400.608C271.666 399.648 272.482 398.856 273.442 398.856C274.426 398.856 275.194 399.648 275.194 400.608ZM272.122 417V405H274.762V417H272.122ZM290.021 411C290.021 414.48 287.285 417.24 283.733 417.24C280.181 417.24 277.445 414.48 277.445 411C277.445 407.52 280.181 404.76 283.733 404.76C287.285 404.76 290.021 407.52 290.021 411ZM280.109 411C280.109 413.136 281.597 414.792 283.733 414.792C285.845 414.792 287.333 413.136 287.333 411C287.333 408.864 285.845 407.208 283.733 407.208C281.597 407.208 280.109 408.864 280.109 411ZM292.676 417V405H295.316V406.632C296.036 405.432 297.404 404.76 298.964 404.76C301.748 404.76 303.548 406.728 303.548 409.776V417H300.908V410.208C300.908 408.312 299.948 407.16 298.412 407.16C296.66 407.16 295.316 408.528 295.316 411.096V417H292.676ZM306.062 411C306.062 407.568 308.558 404.76 311.846 404.76C313.574 404.76 315.014 405.648 315.686 406.608V405H318.326V417H315.686V415.392C315.014 416.352 313.574 417.24 311.846 417.24C308.558 417.24 306.062 414.432 306.062 411ZM315.902 411C315.902 408.84 314.462 407.16 312.326 407.16C310.19 407.16 308.75 408.84 308.75 411C308.75 413.16 310.19 414.84 312.326 414.84C314.462 414.84 315.902 413.16 315.902 411ZM321.903 417V399H324.543V417H321.903ZM202.602 445V427.96H212.85V430.648H205.41V435.016H211.41V437.704H205.41V442.312H212.85V445H202.602ZM216.566 445V435.352H214.07V433H216.566V430.984C216.566 428.296 218.366 426.856 220.67 426.856C221.486 426.856 222.134 426.976 222.638 427.144V429.496C222.254 429.352 221.726 429.256 221.222 429.256C219.854 429.256 219.206 429.808 219.206 431.296V433H222.638V435.352H219.206V445H216.566ZM225.871 445V435.352H223.375V433H225.871V430.984C225.871 428.296 227.671 426.856 229.975 426.856C230.791 426.856 231.439 426.976 231.943 427.144V429.496C231.559 429.352 231.031 429.256 230.527 429.256C229.159 429.256 228.511 429.808 228.511 431.296V433H231.943V435.352H228.511V445H225.871ZM237.119 428.608C237.119 429.592 236.351 430.384 235.367 430.384C234.407 430.384 233.591 429.592 233.591 428.608C233.591 427.648 234.407 426.856 235.367 426.856C236.351 426.856 237.119 427.648 237.119 428.608ZM234.047 445V433H236.687V445H234.047ZM251.755 440.608C251.107 443.272 248.827 445.24 245.659 445.24C242.011 445.24 239.371 442.456 239.371 439C239.371 435.544 242.011 432.76 245.659 432.76C248.827 432.76 251.107 434.728 251.755 437.392H248.971C248.491 436.096 247.315 435.16 245.659 435.16C243.523 435.16 242.059 436.768 242.059 439C242.059 441.232 243.523 442.84 245.659 442.84C247.315 442.84 248.491 441.904 248.971 440.608H251.755ZM257.323 428.608C257.323 429.592 256.555 430.384 255.571 430.384C254.611 430.384 253.795 429.592 253.795 428.608C253.795 427.648 254.611 426.856 255.571 426.856C256.555 426.856 257.323 427.648 257.323 428.608ZM254.251 445V433H256.891V445H254.251ZM271.622 441.232C270.95 443.488 268.79 445.24 265.742 445.24C262.166 445.24 259.598 442.6 259.598 439C259.598 435.448 262.07 432.76 265.766 432.76C269.438 432.76 272.006 435.568 271.766 439.648H262.214C262.31 441.472 263.702 442.912 265.838 442.912C267.158 442.912 268.31 442.384 268.862 441.232H271.622ZM265.694 434.968C264.038 434.968 262.67 435.928 262.31 437.776H268.934C268.526 435.832 267.158 434.968 265.694 434.968ZM274.477 445V433H277.117V434.632C277.837 433.432 279.205 432.76 280.765 432.76C283.549 432.76 285.349 434.728 285.349 437.776V445H282.709V438.208C282.709 436.312 281.749 435.16 280.213 435.16C278.461 435.16 277.117 436.528 277.117 439.096V445H274.477ZM300.247 440.608C299.599 443.272 297.319 445.24 294.151 445.24C290.503 445.24 287.863 442.456 287.863 439C287.863 435.544 290.503 432.76 294.151 432.76C297.319 432.76 299.599 434.728 300.247 437.392H297.463C296.983 436.096 295.807 435.16 294.151 435.16C292.015 435.16 290.551 436.768 290.551 439C290.551 441.232 292.015 442.84 294.151 442.84C295.807 442.84 296.983 441.904 297.463 440.608H300.247ZM306.442 450.016H303.538L306.106 444.352L300.946 433H303.85L307.546 441.496L311.218 433H314.146L306.442 450.016Z" fill="black"/>
<path d="M661.942 613V595.96H668.086C671.254 595.96 673.246 598 673.246 600.808C673.246 603.208 671.83 604.768 669.382 605.344L675.718 613H672.262L666.022 605.512H664.75V613H661.942ZM664.75 603.064H667.75C669.406 603.064 670.438 602.272 670.438 600.808C670.438 599.344 669.406 598.552 667.75 598.552H664.75V603.064ZM687.837 609.232C687.165 611.488 685.005 613.24 681.957 613.24C678.381 613.24 675.813 610.6 675.813 607C675.813 603.448 678.285 600.76 681.981 600.76C685.653 600.76 688.221 603.568 687.981 607.648H678.429C678.525 609.472 679.917 610.912 682.053 610.912C683.373 610.912 684.525 610.384 685.077 609.232H687.837ZM681.909 602.968C680.253 602.968 678.885 603.928 678.525 605.776H685.149C684.741 603.832 683.373 602.968 681.909 602.968ZM690.692 613V595H693.332V613H690.692ZM699.952 596.608C699.952 597.592 699.184 598.384 698.2 598.384C697.24 598.384 696.424 597.592 696.424 596.608C696.424 595.648 697.24 594.856 698.2 594.856C699.184 594.856 699.952 595.648 699.952 596.608ZM696.88 613V601H699.52V613H696.88ZM702.203 607C702.203 603.568 704.699 600.76 707.987 600.76C709.715 600.76 711.155 601.648 711.827 602.608V601H714.467V613H711.827V611.392C711.155 612.352 709.715 613.24 707.987 613.24C704.699 613.24 702.203 610.432 702.203 607ZM712.043 607C712.043 604.84 710.603 603.16 708.467 603.16C706.331 603.16 704.891 604.84 704.891 607C704.891 609.16 706.331 610.84 708.467 610.84C710.603 610.84 712.043 609.16 712.043 607ZM720.684 611.392V613H718.044V595H720.684V602.608C721.356 601.648 722.82 600.76 724.548 600.76C727.836 600.76 730.332 603.568 730.332 607C730.332 610.432 727.836 613.24 724.548 613.24C722.82 613.24 721.356 612.352 720.684 611.392ZM727.644 607C727.644 604.84 726.18 603.16 724.068 603.16C721.932 603.16 720.468 604.84 720.468 607C720.468 609.16 721.932 610.84 724.068 610.84C726.18 610.84 727.644 609.16 727.644 607ZM736.092 596.608C736.092 597.592 735.324 598.384 734.34 598.384C733.38 598.384 732.564 597.592 732.564 596.608C732.564 595.648 733.38 594.856 734.34 594.856C735.324 594.856 736.092 595.648 736.092 596.608ZM733.02 613V601H735.66V613H733.02ZM739.208 613V595H741.848V613H739.208ZM748.467 596.608C748.467 597.592 747.699 598.384 746.715 598.384C745.755 598.384 744.939 597.592 744.939 596.608C744.939 595.648 745.755 594.856 746.715 594.856C747.699 594.856 748.467 595.648 748.467 596.608ZM745.395 613V601H748.035V613H745.395ZM758.759 612.856C758.231 613.024 757.607 613.12 756.791 613.12C754.487 613.12 752.687 611.848 752.687 609.136V603.352H750.191V601H752.687V597.664H755.327V601H758.759V603.352H755.327V608.704C755.327 610.192 755.975 610.744 757.343 610.744C757.847 610.744 758.375 610.648 758.759 610.504V612.856ZM765.102 618.016H762.198L764.766 612.352L759.606 601H762.51L766.206 609.496L769.878 601H772.806L765.102 618.016Z" fill="black"/>
<line x1="486.369" y1="646" x2="486.369" y2="581" stroke="black" stroke-width="3"/>
<circle cx="487.361" cy="646.447" r="8" fill="#2A2A2A"/>
<path d="M441.665 559.104H444.473C444.689 560.832 446.297 561.672 447.857 561.672C449.465 561.672 450.713 560.856 450.713 559.512C450.713 558.36 449.969 557.544 448.361 557.016L446.273 556.32C443.585 555.456 442.097 553.896 442.097 551.4C442.073 548.448 444.329 546.672 447.521 546.672C451.073 546.672 453.017 549.168 453.185 551.544H450.377C449.969 549.936 448.697 549.288 447.473 549.288C446.057 549.288 444.929 550.032 444.905 551.256C444.905 552.504 445.697 553.176 447.209 553.68L449.321 554.352C451.985 555.216 453.545 556.824 453.545 559.416C453.545 562.296 451.241 564.288 447.881 564.288C444.065 564.288 441.785 561.792 441.665 559.104ZM467.54 560.232C466.868 562.488 464.708 564.24 461.66 564.24C458.084 564.24 455.516 561.6 455.516 558C455.516 554.448 457.988 551.76 461.684 551.76C465.356 551.76 467.924 554.568 467.684 558.648H458.132C458.228 560.472 459.62 561.912 461.756 561.912C463.076 561.912 464.228 561.384 464.78 560.232H467.54ZM461.612 553.968C459.956 553.968 458.588 554.928 458.228 556.776H464.852C464.444 554.832 463.076 553.968 461.612 553.968ZM481.915 559.608C481.267 562.272 478.987 564.24 475.819 564.24C472.171 564.24 469.531 561.456 469.531 558C469.531 554.544 472.171 551.76 475.819 551.76C478.987 551.76 481.267 553.728 481.915 556.392H479.131C478.651 555.096 477.475 554.16 475.819 554.16C473.683 554.16 472.219 555.768 472.219 558C472.219 560.232 473.683 561.84 475.819 561.84C477.475 561.84 478.651 560.904 479.131 559.608H481.915ZM484.243 559.176V552H486.883V558.744C486.883 560.664 487.747 561.84 489.283 561.84C490.987 561.84 492.211 560.472 492.211 557.904V552H494.851V564H492.211V562.368C491.515 563.568 490.243 564.24 488.707 564.24C485.947 564.24 484.243 562.248 484.243 559.176ZM498.403 564V552H501.043V554.136C501.499 552.768 502.843 551.88 504.211 551.88C504.547 551.88 504.883 551.904 505.243 551.976V554.688C504.787 554.544 504.403 554.472 503.923 554.472C502.411 554.472 501.043 555.744 501.043 558.144V564H498.403ZM510.592 547.608C510.592 548.592 509.824 549.384 508.84 549.384C507.88 549.384 507.064 548.592 507.064 547.608C507.064 546.648 507.88 545.856 508.84 545.856C509.824 545.856 510.592 546.648 510.592 547.608ZM507.52 564V552H510.16V564H507.52ZM520.884 563.856C520.356 564.024 519.732 564.12 518.916 564.12C516.612 564.12 514.812 562.848 514.812 560.136V554.352H512.316V552H514.812V548.664H517.452V552H520.884V554.352H517.452V559.704C517.452 561.192 518.1 561.744 519.468 561.744C519.972 561.744 520.5 561.648 520.884 561.504V563.856ZM527.227 569.016H524.323L526.891 563.352L521.731 552H524.635L528.331 560.496L532.003 552H534.931L527.227 569.016Z" fill="black"/>
<line x1="444.361" y1="581.5" x2="529.361" y2="581.5" stroke="black"/>
<line x1="673.361" y1="645.5" x2="758.361" y2="645.5" stroke="black"/>
<line x1="214.361" y1="469.5" x2="299.361" y2="469.5" stroke="black"/>
<line x1="1141.36" y1="469.5" x2="1226.36" y2="469.5" stroke="black"/>
<line x1="890.361" y1="581.5" x2="975.361" y2="581.5" stroke="black"/>
<defs>
<clipPath id="clip0_6_603">
<rect width="637.902" height="440.402" fill="white" transform="translate(410.41 45.4023)"/>
</clipPath>
</defs>
</svg>
