<?xml version="1.0" encoding="UTF-8"?>
<!DOCTYPE svg PUBLIC "-//W3C//DTD SVG 1.1//EN" "http://www.w3.org/Graphics/SVG/1.1/DTD/svg11.dtd">
<svg version="1.1" xmlns="http://www.w3.org/2000/svg" xmlns:xlink="http://www.w3.org/1999/xlink" x="0px" y="0px" width="760" height="250" viewBox="0, 0, 760, 250">
  <g id="Layer 1">
    <g>
      <g>
        <g>
          <path d="M54.958,16.931 L84.221,16.931 L84.221,59.377 L54.958,59.377 z" fill="#FFFFFF"/>
          <path d="M54.958,16.931 L84.221,16.931 L84.221,59.377 L54.958,59.377 z" fill-opacity="0" stroke="#0176C0" stroke-width="0.929"/>
        </g>
        <g>
          <path d="M49.737,21.271 L79.937,21.271 L79.937,60.121 L49.737,60.121 z" fill="#FFFFFF"/>
          <path d="M49.737,21.271 L79.937,21.271 L79.937,60.121 L49.737,60.121 z" fill-opacity="0" stroke="#0176C0" stroke-width="0.929"/>
        </g>
        <text transform="matrix(1, 0, 0, 1, 64.357, 38.688)">
          <tspan x="-13.324" y="3.5" font-family="GillSans" font-size="12" fill="#0176C0">{</tspan>
          <tspan x="-9.328" y="3.5" font-family="GillSans" font-size="12" fill="#DE4F01">x</tspan>
          <tspan x="-3.328" y="3.5" font-family="GillSans" font-size="12" fill="#0176C0">: ...}</tspan>
        </text>
      </g>
      <text transform="matrix(1, 0, 0, 1, 121.463, 31.498)">
        <tspan x="-36.381" y="6.5" font-family="GillSans" font-size="21" fill="#0176C0">Chunk 1</tspan>
      </text>
    </g>
    <path d="M50.015,103.168 L710.304,103.168 L710.304,195.028 L50.015,195.028 z" fill="#0176C0"/>
    <path d="M182.443,81.874 L182.443,226.874" fill-opacity="0" stroke="#BCDAED" stroke-width="1.5" stroke-dasharray="3,1.5"/>
    <text transform="matrix(1, 0, 0, 1, 181.063, 230.569)">
      <tspan x="-24.093" y="0.5" font-family="GillSans" font-size="14" fill="#0176C0">{ </tspan>
      <tspan x="-15.542" y="0.5" font-family="GillSans" font-size="14" fill="#DE4F01">x</tspan>
      <tspan x="-8.542" y="0.5" font-family="GillSans" font-size="14" fill="#0176C0">: -75 } </tspan>
    </text>
    <path d="M333.705,81.874 L333.705,226.874" fill-opacity="0" stroke="#BCDAED" stroke-width="1.5" stroke-dasharray="3,1.5"/>
    <path d="M543.698,81.874 L543.698,226.874" fill-opacity="0" stroke="#BCDAED" stroke-width="1.5" stroke-dasharray="3,1.5"/>
    <path d="M338.198,74.259 L339.165,73.556 L340.982,72.382 L342.802,71.384 L344.68,70.517 L346.617,69.774 L348.61,69.152 L350.655,68.647 L352.746,68.253 L354.88,67.965 L357.051,67.777 L359.254,67.68 L361.485,67.666 L363.742,67.729 L366.02,67.86 L369.475,68.164 L374.125,68.725 L378.805,69.4 L383.5,70.118 L388.192,70.807 L392.861,71.397 L396.344,71.731 L398.654,71.885 L400.947,71.973 L403.224,71.986 L405.486,71.915 L407.73,71.749 L408.86,71.626 L408.86,71.626 C408.87,71.625 408.881,71.623 408.891,71.622 L408.891,71.622 L409.557,71.533 L410.914,71.303 L412.259,71.012 L413.577,70.665 L415.481,70.055 L417.923,69.086 L420.262,67.96 L422.473,66.72 L424.546,65.402 L426.477,64.045 L428.259,62.687 L429.888,61.366 L431.36,60.12 L432.671,58.988 L433.811,58.01 L434.533,57.413 L434.934,57.1 L435.284,56.844 L435.564,56.661 L435.763,56.554 L435.875,56.516 L435.829,56.543 L435.523,56.62 L435.688,56.596 L435.778,56.672 L436.145,56.854 L436.682,57.178 L437.316,57.621 L438.016,58.159 L439.151,59.097 L440.724,60.473 L441.881,61.508 L442.616,62.164 L443.305,62.768 L443.932,63.301 L444.487,63.743 L444.959,64.078 L445.18,64.211 L445.18,64.211 C445.188,64.216 445.197,64.221 445.206,64.226 L445.206,64.226 L445.854,64.563 L447.198,65.198 L448.583,65.772 L450.001,66.286 L451.449,66.741 L452.926,67.141 L455.182,67.643 L458.269,68.15 L461.435,68.494 L464.653,68.697 L467.907,68.785 L472.808,68.753 L479.309,68.535 L484.081,68.345 L487.173,68.25 L490.177,68.209 L493.076,68.245 L494.472,68.299 L494.468,68.299 L495.003,68.322 L496.165,68.356 L497.427,68.377 L498.776,68.386 L500.206,68.387 L501.709,68.383 L504.084,68.372 L507.438,68.365 L510.95,68.385 L514.558,68.456 L518.199,68.599 L521.812,68.836 L525.334,69.188 L527.874,69.541 L529.503,69.822 L531.079,70.145 L532.589,70.511 L534.025,70.922 L535.38,71.382 L536.644,71.891 L537.811,72.453 L538.873,73.068 L539.822,73.739 L540.651,74.466 L541.353,75.251 L541.644,75.651 L541.644,75.651 C541.974,76.1 542.897,75.857 543.706,75.108 C544.514,74.359 544.902,73.388 544.572,72.939 L544.218,72.46 L543.43,71.592 L542.518,70.799 L541.489,70.077 L540.353,69.422 L539.116,68.83 L537.787,68.297 L536.373,67.819 L534.882,67.393 L533.322,67.016 L531.7,66.684 L530.019,66.395 L527.417,66.035 L523.835,65.678 L520.174,65.438 L516.495,65.294 L512.86,65.223 L509.332,65.202 L505.972,65.21 L503.6,65.22 L502.105,65.225 L500.688,65.224 L499.357,65.215 L498.121,65.195 L496.984,65.161 L496.448,65.138 L496.448,65.138 C496.447,65.138 496.445,65.138 496.444,65.138 L496.444,65.138 L494.998,65.083 L492.047,65.047 L489.007,65.089 L485.895,65.184 L481.137,65.374 L474.693,65.591 L469.857,65.623 L466.671,65.538 L463.531,65.342 L460.454,65.01 L457.449,64.519 L455.254,64.032 L453.829,63.647 L452.432,63.209 L451.066,62.716 L449.733,62.165 L448.428,61.549 L447.779,61.211 L447.806,61.226 L447.657,61.14 L447.231,60.84 L446.701,60.417 L446.086,59.895 L445.404,59.297 L444.669,58.642 L443.503,57.599 L441.909,56.205 L440.746,55.244 L440.007,54.678 L439.31,54.194 L438.653,53.808 L437.994,53.537 L437.254,53.459 L437.088,53.483 L437.088,53.483 C436.991,53.497 436.888,53.523 436.781,53.56 L436.781,53.56 L436.418,53.698 L435.845,53.975 L435.293,54.303 L434.755,54.668 L434.22,55.064 L433.669,55.498 L432.84,56.185 L431.681,57.18 L430.429,58.261 L429.078,59.406 L427.625,60.589 L426.065,61.783 L424.396,62.965 L422.616,64.107 L420.716,65.184 L418.694,66.17 L416.521,67.042 L414.8,67.598 L413.623,67.911 L412.412,68.176 L411.149,68.392 L410.482,68.481 L410.513,68.477 L409.467,68.593 L407.317,68.753 L405.133,68.824 L402.92,68.812 L400.679,68.727 L398.42,68.577 L394.988,68.249 L390.35,67.663 L385.668,66.975 L380.959,66.255 L376.242,65.576 L371.538,65.009 L368.027,64.701 L365.694,64.568 L363.37,64.504 L361.058,64.519 L358.756,64.623 L356.468,64.825 L354.191,65.136 L351.927,65.568 L349.674,66.132 L347.433,66.84 L345.203,67.708 L342.987,68.748 L340.789,69.973 L338.669,71.355 L337.7,72.06 C337.7,72.06 337.7,72.06 337.7,72.06 C336.838,72.687 336.25,73.688 336.387,74.296 C336.525,74.903 337.335,74.887 338.198,74.259 L338.198,74.259" fill="#0176C0"/>
    <path d="M186.474,73.841 L187.17,73.138 L188.424,72.016 L189.637,71.098 L190.878,70.309 L192.16,69.633 L193.492,69.061 L194.875,68.59 L196.308,68.219 L197.786,67.944 L199.303,67.762 L200.853,67.668 L202.431,67.656 L204.851,67.776 L208.133,68.151 L211.457,68.71 L214.816,69.382 L218.192,70.099 L221.57,70.789 L224.94,71.381 L228.291,71.802 L230.796,71.962 L232.465,71.976 L234.119,71.904 L235.769,71.735 L236.613,71.609 L236.613,71.609 C236.629,71.606 236.644,71.604 236.66,71.601 L236.66,71.601 L237.139,71.512 L238.154,71.274 L239.655,70.801 L241.604,69.972 L243.502,68.934 L245.304,67.736 L246.994,66.424 L248.561,65.044 L250.001,63.64 L251.315,62.25 L252.506,60.909 L253.575,59.653 L254.522,58.516 L255.341,57.539 L256.017,56.772 L256.383,56.395 L256.516,56.281 L256.577,56.245 L256.51,56.313 L256.316,56.43 L255.839,56.597 L255.958,56.573 L255.807,56.651 L256.013,56.809 L256.383,57.122 L256.833,57.559 L257.334,58.094 L258.149,59.029 L259.279,60.404 L260.38,61.772 L261.136,62.698 L261.589,63.232 L261.99,63.677 L262.334,64.016 L262.5,64.155 L262.5,64.155 C262.508,64.162 262.517,64.168 262.525,64.174 L262.525,64.174 L262.992,64.512 L263.964,65.151 L264.969,65.73 L265.998,66.248 L267.577,66.913 L269.754,67.616 L272.004,68.131 L274.305,68.479 L276.645,68.685 L279.008,68.774 L282.558,68.743 L287.256,68.525 L290.696,68.334 L292.914,68.24 L295.065,68.199 L297.133,68.235 L298.121,68.288 L298.116,68.287 L298.501,68.31 L299.346,68.345 L300.74,68.372 L302.805,68.375 L305.067,68.362 L307.48,68.354 L310.003,68.375 L312.59,68.446 L315.199,68.588 L317.785,68.824 L320.302,69.174 L322.113,69.524 L323.272,69.802 L324.395,70.122 L325.471,70.485 L326.493,70.892 L327.456,71.346 L328.354,71.85 L329.184,72.405 L329.939,73.013 L330.614,73.677 L331.204,74.397 L331.705,75.177 L331.914,75.574 L331.914,75.574 C332.181,76.079 333.071,75.911 333.902,75.199 C334.734,74.486 335.191,73.499 334.924,72.995 C334.924,72.995 334.924,72.995 334.924,72.995 L334.668,72.514 L334.097,71.64 L333.434,70.841 L332.686,70.112 L331.858,69.45 L330.957,68.851 L329.989,68.312 L328.96,67.829 L327.875,67.399 L326.741,67.018 L325.562,66.684 L324.339,66.391 L322.448,66.029 L319.852,65.669 L317.202,65.429 L314.542,65.284 L311.917,65.213 L309.372,65.192 L306.953,65.2 L304.706,65.213 L302.676,65.21 L301.324,65.185 L300.513,65.152 L300.127,65.129 L300.127,65.129 C300.126,65.128 300.124,65.128 300.122,65.128 L300.122,65.128 L299.065,65.073 L296.923,65.037 L294.723,65.079 L292.476,65.175 L289.056,65.365 L284.437,65.581 L280.979,65.613 L278.706,65.53 L276.469,65.336 L274.278,65.009 L272.142,64.525 L270.066,63.859 L268.558,63.226 L267.583,62.738 L266.632,62.191 L265.698,61.579 L265.231,61.242 L265.256,61.261 L265.156,61.181 L264.854,60.885 L264.474,60.465 L264.033,59.945 L263.281,59.024 L262.173,57.647 L261.024,56.252 L260.185,55.289 L259.65,54.719 L259.141,54.229 L258.652,53.832 L258.12,53.538 L257.372,53.462 L257.252,53.486 L257.252,53.486 C257.102,53.516 256.941,53.572 256.775,53.652 L256.775,53.652 L256.353,53.88 L255.793,54.264 L255.313,54.663 L254.857,55.096 L254.25,55.733 L253.46,56.635 L252.624,57.631 L251.727,58.708 L250.764,59.843 L249.736,61.005 L248.645,62.168 L247.495,63.302 L246.287,64.382 L245.019,65.387 L243.682,66.301 L242.259,67.104 L240.706,67.784 L239.463,68.185 L238.593,68.393 L238.113,68.482 L238.159,68.474 L237.437,68.585 L235.924,68.744 L234.378,68.814 L232.815,68.803 L230.416,68.653 L227.142,68.244 L223.813,67.66 L220.445,66.973 L217.053,66.252 L213.647,65.571 L210.239,65.001 L206.844,64.616 L204.311,64.494 L202.618,64.51 L200.926,64.617 L199.233,64.826 L197.536,65.151 L195.834,65.604 L194.125,66.202 L192.409,66.961 L190.692,67.895 L188.985,69.014 L187.307,70.319 L185.727,71.753 L185.029,72.458 C184.253,73.243 183.946,74.189 184.345,74.571 C184.744,74.953 185.697,74.627 186.474,73.841 L186.474,73.841" fill="#0176C0"/>
    <path d="M548.297,73.978 L549.059,73.275 L550.446,72.141 L551.805,71.202 L553.202,70.388 L554.648,69.69 L556.147,69.1 L557.699,68.617 L559.298,68.238 L560.94,67.958 L562.62,67.774 L564.332,67.679 L566.072,67.666 L567.836,67.729 L569.621,67.859 L572.335,68.162 L575.991,68.722 L579.675,69.395 L583.375,70.112 L587.077,70.802 L590.767,71.393 L594.433,71.813 L597.169,71.972 L598.988,71.986 L600.791,71.914 L602.585,71.747 L603.499,71.621 L603.499,71.621 C603.512,71.619 603.526,71.617 603.54,71.615 L603.54,71.615 L604.065,71.526 L605.162,71.291 L606.78,70.825 L608.873,70.011 L610.904,68.995 L612.836,67.82 L614.655,66.53 L616.35,65.167 L617.915,63.774 L619.349,62.39 L620.651,61.052 L621.822,59.796 L622.859,58.66 L623.757,57.683 L624.498,56.915 L624.904,56.534 L625.06,56.41 L625.151,56.355 L625.128,56.39 L624.975,56.478 L624.553,56.612 L624.684,56.588 L624.6,56.665 L624.845,56.83 L625.256,57.146 L625.751,57.585 L626.301,58.121 L627.194,59.056 L628.433,60.431 L629.346,61.466 L629.926,62.122 L630.469,62.727 L630.965,63.26 L631.403,63.703 L631.779,64.042 L631.959,64.179 L631.959,64.179 C631.967,64.185 631.976,64.192 631.985,64.197 L631.985,64.197 L632.496,64.534 L633.56,65.172 L634.659,65.75 L635.784,66.267 L637.51,66.931 L639.889,67.631 L642.346,68.144 L644.86,68.491 L647.415,68.696 L649.997,68.784 L653.878,68.753 L659.02,68.535 L662.787,68.344 L665.221,68.25 L667.582,68.209 L669.856,68.245 L670.945,68.298 L670.94,68.298 L671.362,68.321 L672.285,68.356 L673.286,68.377 L674.354,68.386 L676.07,68.385 L678.546,68.372 L681.191,68.365 L683.957,68.385 L686.796,68.456 L689.66,68.599 L692.499,68.835 L695.264,69.186 L697.254,69.536 L698.529,69.816 L699.764,70.137 L700.947,70.5 L702.07,70.909 L703.13,71.364 L704.119,71.87 L705.031,72.427 L705.861,73.037 L706.603,73.703 L707.251,74.425 L707.802,75.205 L708.03,75.603 L708.03,75.603 C708.314,76.093 709.214,75.905 710.039,75.182 C710.865,74.46 711.304,73.476 711.02,72.986 L710.739,72.506 L710.115,71.633 L709.39,70.835 L708.572,70.108 L707.668,69.448 L706.684,68.851 L705.627,68.314 L704.503,67.833 L703.318,67.404 L702.079,67.024 L700.792,66.691 L699.456,66.399 L697.391,66.038 L694.552,65.679 L691.654,65.439 L688.743,65.295 L685.87,65.223 L683.083,65.202 L680.433,65.21 L677.968,65.223 L676.27,65.224 L675.224,65.215 L674.256,65.195 L673.365,65.162 L672.942,65.139 L672.942,65.139 C672.94,65.138 672.938,65.138 672.937,65.138 L672.937,65.138 L671.784,65.083 L669.444,65.047 L667.038,65.089 L664.578,65.185 L660.828,65.375 L655.76,65.591 L651.961,65.623 L649.464,65.539 L647.003,65.345 L644.593,65.016 L642.245,64.531 L639.964,63.863 L638.307,63.228 L637.236,62.738 L636.191,62.19 L635.166,61.577 L634.654,61.239 L634.68,61.257 L634.568,61.176 L634.236,60.879 L633.819,60.458 L633.334,59.937 L632.797,59.339 L632.218,58.684 L631.298,57.64 L630.039,56.245 L629.119,55.282 L628.534,54.714 L627.979,54.226 L627.448,53.831 L626.884,53.544 L626.146,53.467 L626.015,53.491 L626.015,53.491 C625.882,53.516 625.74,53.561 625.593,53.626 L625.593,53.626 L625.19,53.823 L624.627,54.174 L624.125,54.555 L623.636,54.978 L622.975,55.611 L622.111,56.511 L621.195,57.508 L620.212,58.585 L619.156,59.72 L618.026,60.885 L616.824,62.054 L615.551,63.199 L614.205,64.296 L612.783,65.323 L611.274,66.261 L609.665,67.086 L607.921,67.781 L606.532,68.189 L605.564,68.399 L605.037,68.488 L605.079,68.482 L604.275,68.594 L602.604,68.754 L600.9,68.824 L599.177,68.813 L596.539,68.662 L592.945,68.252 L589.294,67.668 L585.603,66.98 L581.887,66.26 L578.159,65.579 L574.436,65.011 L571.656,64.701 L569.803,64.568 L567.954,64.504 L566.11,64.52 L564.269,64.626 L562.432,64.832 L560.596,65.152 L558.759,65.598 L556.921,66.183 L555.08,66.925 L553.24,67.836 L551.408,68.93 L549.597,70.214 L547.879,71.636 L547.115,72.341 C546.305,73.088 545.913,74.06 546.239,74.512 C546.565,74.965 547.487,74.725 548.297,73.978 L548.297,73.978" fill="#0176C0"/>
    <path d="M52.49,73.674 L53.106,72.97 L54.206,71.857 L55.254,70.963 L56.31,70.206 L57.394,69.564 L58.519,69.021 L59.695,68.571 L60.923,68.214 L62.198,67.947 L63.514,67.77 L64.866,67.678 L66.247,67.666 L68.375,67.786 L71.264,68.16 L74.196,68.717 L77.162,69.389 L80.146,70.106 L83.136,70.796 L86.121,71.388 L89.092,71.81 L91.32,71.972 L92.808,71.986 L94.285,71.914 L95.762,71.744 L96.526,71.615 L96.526,71.615 C96.544,71.612 96.562,71.608 96.58,71.604 L96.58,71.604 L97.004,71.515 L97.923,71.272 L99.289,70.787 L101.071,69.934 L102.814,68.86 L104.46,67.626 L105.989,66.285 L107.395,64.887 L108.677,63.474 L109.843,62.081 L110.895,60.741 L111.84,59.486 L112.676,58.35 L113.401,57.374 L114,56.603 L114.325,56.227 L114.436,56.119 L114.47,56.102 L114.359,56.212 L114.112,56.378 L113.55,56.599 L113.655,56.575 L113.411,56.655 L113.57,56.803 L113.892,57.112 L114.289,57.547 L114.731,58.081 L115.451,59.016 L116.451,60.39 L117.424,61.758 L118.093,62.684 L118.494,63.219 L118.849,63.664 L119.154,64.004 L119.303,64.145 L119.303,64.145 C119.311,64.152 119.319,64.16 119.327,64.166 L119.327,64.166 L119.74,64.503 L120.602,65.144 L121.493,65.725 L122.407,66.245 L123.808,66.913 L125.741,67.619 L127.741,68.137 L129.788,68.487 L131.868,68.694 L133.968,68.784 L137.119,68.753 L141.285,68.534 L144.33,68.344 L146.288,68.25 L148.184,68.209 L150.004,68.245 L150.871,68.298 L150.864,68.297 L151.204,68.32 L151.956,68.355 L153.194,68.382 L155.025,68.385 L157.027,68.372 L159.161,68.365 L161.389,68.385 L163.674,68.456 L165.975,68.598 L168.255,68.833 L170.473,69.183 L172.591,69.667 L174.082,70.128 L175.021,70.487 L175.92,70.892 L176.767,71.344 L177.558,71.845 L178.288,72.398 L178.952,73.004 L179.547,73.665 L180.068,74.384 L180.511,75.162 L180.695,75.56 L180.695,75.56 C180.94,76.084 181.818,75.942 182.656,75.243 C183.494,74.544 183.975,73.553 183.73,73.029 L183.504,72.549 L182.998,71.674 L182.41,70.873 L181.746,70.142 L181.011,69.477 L180.21,68.876 L179.35,68.335 L178.435,67.849 L177.471,67.417 L176.455,67.032 L174.865,66.544 L172.647,66.041 L170.342,65.681 L167.991,65.44 L165.632,65.295 L163.306,65.223 L161.052,65.202 L158.912,65.21 L156.926,65.223 L155.135,65.221 L153.944,65.195 L153.231,65.162 L152.89,65.139 L152.89,65.139 C152.887,65.139 152.885,65.139 152.883,65.139 L152.883,65.139 L151.94,65.083 L150.037,65.047 L148.085,65.09 L146.093,65.186 L143.071,65.375 L138.996,65.591 L135.948,65.624 L133.948,65.541 L131.981,65.348 L130.053,65.023 L128.174,64.543 L126.346,63.881 L125.016,63.25 L124.157,62.763 L123.318,62.219 L122.494,61.608 L122.081,61.27 L122.105,61.292 L122.019,61.214 L121.752,60.919 L121.416,60.499 L121.026,59.979 L120.362,59.059 L119.382,57.682 L118.365,56.285 L117.622,55.322 L117.148,54.752 L116.697,54.26 L116.259,53.858 L115.765,53.554 L114.993,53.48 L114.887,53.504 L114.887,53.504 C114.71,53.544 114.52,53.619 114.325,53.726 L114.325,53.726 L113.876,54.002 L113.329,54.427 L112.885,54.845 L112.475,55.285 L111.939,55.922 L111.242,56.821 L110.503,57.817 L109.709,58.895 L108.856,60.031 L107.946,61.195 L106.983,62.354 L105.975,63.479 L104.926,64.541 L103.84,65.518 L102.708,66.395 L101.514,67.163 L100.198,67.819 L99.138,68.207 L98.389,68.41 L97.965,68.499 L98.019,68.489 L97.397,68.597 L96.076,68.754 L94.723,68.824 L93.353,68.814 L91.243,68.665 L88.355,68.257 L85.414,67.674 L82.437,66.987 L79.434,66.266 L76.418,65.584 L73.394,65.012 L70.379,64.627 L68.125,64.504 L66.613,64.521 L65.097,64.63 L63.574,64.844 L62.042,65.176 L60.496,65.643 L58.937,66.263 L57.366,67.051 L55.797,68.018 L54.247,69.169 L52.737,70.498 L51.331,71.941 L50.714,72.646 C49.992,73.471 49.803,74.371 50.293,74.655 C50.784,74.939 51.767,74.5 52.49,73.674 L52.49,73.674" fill="#0176C0"/>
    <g>
      <g>
        <g>
          <path d="M196.639,16.931 L225.902,16.931 L225.902,59.377 L196.639,59.377 z" fill="#FFFFFF"/>
          <path d="M196.639,16.931 L225.902,16.931 L225.902,59.377 L196.639,59.377 z" fill-opacity="0" stroke="#0176C0" stroke-width="0.929"/>
        </g>
        <g>
          <path d="M191.418,21.271 L221.617,21.271 L221.617,60.121 L191.418,60.121 z" fill="#FFFFFF"/>
          <path d="M191.418,21.271 L221.617,21.271 L221.617,60.121 L191.418,60.121 z" fill-opacity="0" stroke="#0176C0" stroke-width="0.929"/>
        </g>
        <text transform="matrix(1, 0, 0, 1, 206.038, 38.688)">
          <tspan x="-13.324" y="3.5" font-family="GillSans" font-size="12" fill="#0176C0">{</tspan>
          <tspan x="-9.328" y="3.5" font-family="GillSans" font-size="12" fill="#DE4F01">x</tspan>
          <tspan x="-3.328" y="3.5" font-family="GillSans" font-size="12" fill="#0176C0">: ...}</tspan>
        </text>
      </g>
      <text transform="matrix(1, 0, 0, 1, 263.143, 31.498)">
        <tspan x="-36.381" y="6.5" font-family="GillSans" font-size="21" fill="#0176C0">Chunk 2</tspan>
      </text>
    </g>
    <g>
      <g>
        <g>
          <path d="M375.407,16.931 L404.671,16.931 L404.671,59.377 L375.407,59.377 z" fill="#FFFFFF"/>
          <path d="M375.407,16.931 L404.671,16.931 L404.671,59.377 L375.407,59.377 z" fill-opacity="0" stroke="#0176C0" stroke-width="0.929"/>
        </g>
        <g>
          <path d="M370.187,21.271 L400.386,21.271 L400.386,60.121 L370.187,60.121 z" fill="#FFFFFF"/>
          <path d="M370.187,21.271 L400.386,21.271 L400.386,60.121 L370.187,60.121 z" fill-opacity="0" stroke="#0176C0" stroke-width="0.929"/>
        </g>
        <text transform="matrix(1, 0, 0, 1, 384.806, 38.688)">
          <tspan x="-13.324" y="3.5" font-family="GillSans" font-size="12" fill="#0176C0">{</tspan>
          <tspan x="-9.328" y="3.5" font-family="GillSans" font-size="12" fill="#DE4F01">x</tspan>
          <tspan x="-3.328" y="3.5" font-family="GillSans" font-size="12" fill="#0176C0">: ...}</tspan>
        </text>
      </g>
      <text transform="matrix(1, 0, 0, 1, 441.912, 31.498)">
        <tspan x="-36.381" y="6.5" font-family="GillSans" font-size="21" fill="#0176C0">Chunk 3</tspan>
      </text>
    </g>
    <g>
      <g>
        <g>
          <path d="M566.164,16.931 L595.428,16.931 L595.428,59.377 L566.164,59.377 z" fill="#FFFFFF"/>
          <path d="M566.164,16.931 L595.428,16.931 L595.428,59.377 L566.164,59.377 z" fill-opacity="0" stroke="#0176C0" stroke-width="0.929"/>
        </g>
        <g>
          <path d="M560.944,21.271 L591.143,21.271 L591.143,60.121 L560.944,60.121 z" fill="#FFFFFF"/>
          <path d="M560.944,21.271 L591.143,21.271 L591.143,60.121 L560.944,60.121 z" fill-opacity="0" stroke="#0176C0" stroke-width="0.929"/>
        </g>
        <text transform="matrix(1, 0, 0, 1, 575.564, 38.688)">
          <tspan x="-13.324" y="3.5" font-family="GillSans" font-size="12" fill="#0176C0">{</tspan>
          <tspan x="-9.328" y="3.5" font-family="GillSans" font-size="12" fill="#DE4F01">x</tspan>
          <tspan x="-3.328" y="3.5" font-family="GillSans" font-size="12" fill="#0176C0">: ...}</tspan>
        </text>
      </g>
      <text transform="matrix(1, 0, 0, 1, 632.669, 31.498)">
        <tspan x="-36.381" y="6.5" font-family="GillSans" font-size="21" fill="#0176C0">Chunk 4</tspan>
      </text>
    </g>
    <text transform="matrix(1, 0, 0, 1, 380.236, 148.85)">
      <tspan x="-113.774" y="11.844" font-family="GillSans" font-size="36" fill="#FFFFFF">Key Space for </tspan>
      <tspan x="95.774" y="11.844" font-family="GillSans" font-size="36" fill="#0A0A0A">x</tspan>
    </text>
    <text transform="matrix(1, 0, 0, 1, 333.235, 229.472)">
      <tspan x="-21.831" y="1.598" font-family="GillSans" font-size="14" fill="#0176C0">{ </tspan>
      <tspan x="-13.279" y="1.598" font-family="GillSans" font-size="14" fill="#DE4F01">x</tspan>
      <tspan x="-6.279" y="1.598" font-family="GillSans" font-size="14" fill="#0176C0">: 25 } </tspan>
    </text>
    <text transform="matrix(1, 0, 0, 1, 49.803, 229.472)">
      <tspan x="-35.745" y="1.598" font-family="GillSans" font-size="14" fill="#0176C0">{ </tspan>
      <tspan x="-27.193" y="1.598" font-family="GillSans" font-size="14" fill="#DE4F01">x</tspan>
      <tspan x="-20.193" y="1.598" font-family="GillSans" font-size="14" fill="#0176C0">: minKey }</tspan>
    </text>
    <text transform="matrix(1, 0, 0, 1, 544.235, 229.472)">
      <tspan x="-25.331" y="1.598" font-family="GillSans" font-size="14" fill="#0176C0">{ </tspan>
      <tspan x="-16.779" y="1.598" font-family="GillSans" font-size="14" fill="#DE4F01">x</tspan>
      <tspan x="-9.779" y="1.598" font-family="GillSans" font-size="14" fill="#0176C0">: 175 } </tspan>
    </text>
    <text transform="matrix(1, 0, 0, 1, 710.197, 229.472)">
      <tspan x="-37.198" y="1.597" font-family="GillSans" font-size="14" fill="#0176C0">{ </tspan>
      <tspan x="-28.646" y="1.597" font-family="GillSans" font-size="14" fill="#DE4F01">x</tspan>
      <tspan x="-21.646" y="1.597" font-family="GillSans" font-size="14" fill="#0176C0">: maxKey } </tspan>
    </text>
    <path d="M49.803,81.874 L49.803,221.874" fill-opacity="0" stroke="#BCDAED" stroke-width="1.5" stroke-dasharray="3,1.5"/>
    <g>
      <path d="M63.64,204.833 L168.04,204.833" fill-opacity="0" stroke="#0176C0" stroke-width="2"/>
      <path d="M63.64,201.233 L54.04,204.833 L63.64,208.433 z" fill="#0176C0" fill-opacity="1" stroke="#0176C0" stroke-width="2" stroke-opacity="1"/>
      <path d="M168.04,208.433 L177.64,204.833 L168.04,201.233 z" fill="#0176C0" fill-opacity="1" stroke="#0176C0" stroke-width="2" stroke-opacity="1"/>
    </g>
    <g>
      <path d="M196.161,204.833 L320.561,204.833" fill-opacity="0" stroke="#0176C0" stroke-width="2"/>
      <path d="M196.161,201.233 L186.561,204.833 L196.161,208.433 z" fill="#0176C0" fill-opacity="1" stroke="#0176C0" stroke-width="2" stroke-opacity="1"/>
      <path d="M320.561,208.433 L330.161,204.833 L320.561,201.233 z" fill="#0176C0" fill-opacity="1" stroke="#0176C0" stroke-width="2" stroke-opacity="1"/>
    </g>
    <g>
      <path d="M346.749,204.833 L530.149,204.833" fill-opacity="0" stroke="#0176C0" stroke-width="2"/>
      <path d="M346.749,201.233 L337.149,204.833 L346.749,208.433 z" fill="#0176C0" fill-opacity="1" stroke="#0176C0" stroke-width="2" stroke-opacity="1"/>
      <path d="M530.149,208.433 L539.749,204.833 L530.149,201.233 z" fill="#0176C0" fill-opacity="1" stroke="#0176C0" stroke-width="2" stroke-opacity="1"/>
    </g>
    <g>
      <path d="M556.916,204.833 L697.316,204.833" fill-opacity="0" stroke="#0176C0" stroke-width="2"/>
      <path d="M556.916,201.233 L547.316,204.833 L556.916,208.433 z" fill="#0176C0" fill-opacity="1" stroke="#0176C0" stroke-width="2" stroke-opacity="1"/>
      <path d="M697.316,208.433 L706.916,204.833 L697.316,201.233 z" fill="#0176C0" fill-opacity="1" stroke="#0176C0" stroke-width="2" stroke-opacity="1"/>
    </g>
    <path d="M710.197,81.874 L710.197,221.874" fill-opacity="0" stroke="#BCDAED" stroke-width="1.5" stroke-dasharray="3,1.5"/>
  </g>
  <defs/>
</svg>
