<?xml version="1.0" encoding="UTF-8"?>
<!DOCTYPE svg PUBLIC "-//W3C//DTD SVG 1.1//EN" "http://www.w3.org/Graphics/SVG/1.1/DTD/svg11.dtd">
<svg version="1.1" xmlns="http://www.w3.org/2000/svg" xmlns:xlink="http://www.w3.org/1999/xlink" x="0px" y="0px" width="360" height="460" viewBox="0, 0, 360, 460">
  <g id="Layer 1">
    <g>
      <path d="M117.5,290.185 C117.5,287.173 115.916,284.732 113.96,284.732 L12.04,284.732 C10.086,284.732 8.5,287.173 8.5,290.185 L8.5,447.274 C8.5,450.288 10.086,452.732 12.04,452.732 L113.96,452.732 C115.916,452.732 117.5,450.288 117.5,447.274 L117.5,290.185" fill="#6CB340"/>
      <path d="M117.5,290.185 C117.5,287.173 115.916,284.732 113.96,284.732 L12.04,284.732 C10.086,284.732 8.5,287.173 8.5,290.185 L8.5,447.274 C8.5,450.288 10.086,452.732 12.04,452.732 L113.96,452.732 C115.916,452.732 117.5,450.288 117.5,447.274 L117.5,290.185" fill-opacity="0" stroke="#6CB340" stroke-width="1"/>
    </g>
    <text transform="matrix(1, 0, 0, 1, 64.736, 300.32)">
      <tspan x="-37.977" y="5.912" font-family="GillSans" font-size="24" fill="#FFFFFF">Shard A</tspan>
    </text>
    <g>
      <g>
        <path d="M38.8,351.288 L97.709,351.288 L97.709,434.873 L38.8,434.873 z" fill="#FFFFFF"/>
        <path d="M38.8,351.288 L97.709,351.288 L97.709,434.873 L38.8,434.873 z" fill-opacity="0" stroke="#0176C0" stroke-width="1"/>
      </g>
      <g>
        <path d="M28.291,360.735 L89.084,360.735 L89.084,445.287 L28.291,445.287 z" fill="#FFFFFF"/>
        <path d="M28.291,360.735 L89.084,360.735 L89.084,445.287 L28.291,445.287 z" fill-opacity="0" stroke="#0176C0" stroke-width="1"/>
      </g>
    </g>
    <g>
      <path d="M234.734,290.185 C234.734,287.173 233.15,284.732 231.194,284.732 L129.274,284.732 C127.32,284.732 125.734,287.173 125.734,290.185 L125.734,447.274 C125.734,450.288 127.32,452.732 129.274,452.732 L231.194,452.732 C233.15,452.732 234.734,450.288 234.734,447.274 L234.734,290.185" fill="#6CB340"/>
      <path d="M234.734,290.185 C234.734,287.173 233.15,284.732 231.194,284.732 L129.274,284.732 C127.32,284.732 125.734,287.173 125.734,290.185 L125.734,447.274 C125.734,450.288 127.32,452.732 129.274,452.732 L231.194,452.732 C233.15,452.732 234.734,450.288 234.734,447.274 L234.734,290.185" fill-opacity="0" stroke="#6CB340" stroke-width="1"/>
    </g>
    <text transform="matrix(1, 0, 0, 1, 179.734, 298.732)">
      <tspan x="-38.041" y="7.5" font-family="GillSans" font-size="24" fill="#FFFFFF">Shard B</tspan>
    </text>
    <g>
      <g>
        <path d="M350.191,290.185 C350.191,287.174 348.607,284.732 346.65,284.732 L244.731,284.732 C242.776,284.732 241.191,287.174 241.191,290.185 L241.191,447.274 C241.191,450.288 242.776,452.732 244.731,452.732 L346.65,452.732 C348.607,452.732 350.191,450.288 350.191,447.274 L350.191,290.185" fill="#6CB340"/>
        <path d="M350.191,290.185 C350.191,287.174 348.607,284.732 346.65,284.732 L244.731,284.732 C242.776,284.732 241.191,287.174 241.191,290.185 L241.191,447.274 C241.191,450.288 242.776,452.732 244.731,452.732 L346.65,452.732 C348.607,452.732 350.191,450.288 350.191,447.274 L350.191,290.185" fill-opacity="0" stroke="#6CB340" stroke-width="1"/>
      </g>
      <text transform="matrix(1, 0, 0, 1, 295.191, 300.32)">
        <tspan x="-39.212" y="5.912" font-family="GillSans" font-size="24" fill="#FFFFFF">Shard C</tspan>
      </text>
    </g>
    <text transform="matrix(1, 0, 0, 1, 151.572, 341.908)">
      <tspan x="-113.649" y="-5.5" font-family="GillSans" font-size="21" fill="#0176C0">Collection1 (shard key x)</tspan>
    </text>
    <path d="M24.358,341.532 L327.998,341.532 C333.017,341.532 337.087,347.936 337.087,355.837 L337.087,432.968 C337.087,440.869 333.017,447.274 327.998,447.274 L24.358,447.274 C19.338,447.274 15.269,440.869 15.269,432.968 L15.269,355.837 C15.269,347.936 19.338,341.532 24.358,341.532 z" fill-opacity="0" stroke="#0176C0" stroke-width="1.5" stroke-dasharray="3,1.5"/>
    <g>
      <path d="M238.52,136.244 C238.52,135.345 236.82,134.616 234.719,134.616 L125.281,134.616 C123.182,134.616 121.48,135.345 121.48,136.244 L121.48,183.153 C121.48,184.053 123.182,184.783 125.281,184.783 L234.719,184.783 C236.82,184.783 238.52,184.053 238.52,183.153 L238.52,136.244" fill="#3299CC"/>
      <text transform="matrix(1, 0, 0, 1, 181.826, 159.699)">
        <tspan x="-38.115" y="7.5" font-family="GillSans" font-size="24" fill="#FFFFFF">mongos</tspan>
      </text>
    </g>
    <g>
      <g>
        <path d="M156.034,351.288 L214.943,351.288 L214.943,434.873 L156.034,434.873 z" fill="#FFFFFF"/>
        <path d="M156.034,351.288 L214.943,351.288 L214.943,434.873 L156.034,434.873 z" fill-opacity="0" stroke="#0176C0" stroke-width="1"/>
      </g>
      <g>
        <path d="M145.525,360.735 L206.318,360.735 L206.318,445.287 L145.525,445.287 z" fill="#FFFFFF"/>
        <path d="M145.525,360.735 L206.318,360.735 L206.318,445.287 L145.525,445.287 z" fill-opacity="0" stroke="#0176C0" stroke-width="1"/>
      </g>
    </g>
    <g>
      <g>
        <path d="M271.491,351.288 L330.399,351.288 L330.399,434.873 L271.491,434.873 z" fill="#FFFFFF"/>
        <path d="M271.491,351.288 L330.399,351.288 L330.399,434.873 L271.491,434.873 z" fill-opacity="0" stroke="#0176C0" stroke-width="1"/>
      </g>
      <g>
        <path d="M260.982,360.735 L321.774,360.735 L321.774,445.287 L260.982,445.287 z" fill="#FFFFFF"/>
        <path d="M260.982,360.735 L321.774,360.735 L321.774,445.287 L260.982,445.287 z" fill-opacity="0" stroke="#0176C0" stroke-width="1"/>
      </g>
    </g>
    <g>
      <path d="M122.627,55.436 C122.627,56.652 123.503,57.638 124.584,57.638 L237.71,57.638 C238.791,57.638 239.667,56.652 239.667,55.436 L239.667,10.202 C239.667,8.986 238.791,8 237.71,8 L124.584,8 C123.503,8 122.627,8.986 122.627,10.202 L122.627,55.436" fill="#5A5955"/>
      <text transform="matrix(1, 0, 0, 1, 181.147, 32.819)">
        <tspan x="-34.221" y="7.41" font-family="GillSans" font-size="24" fill="#FFFFFE">Dri</tspan>
        <tspan x="-1.456" y="7.41" font-family="GillSans" font-size="24" fill="#FFFFFE">v</tspan>
        <tspan x="8.576" y="7.41" font-family="GillSans" font-size="24" fill="#FFFFFE">e</tspan>
        <tspan x="20.072" y="7.41" font-family="GillSans" font-size="24" fill="#FFFFFE">r</tspan>
      </text>
    </g>
    <g>
      <path d="M162.711,68.077 L162.711,117.516" fill-opacity="0" stroke="#5A5955" stroke-width="3"/>
      <path d="M158.511,117.516 L162.711,128.716 L166.911,117.516 z" fill="#5A5955" fill-opacity="1" stroke="#5A5955" stroke-width="3" stroke-opacity="1"/>
    </g>
    <g>
      <path d="M175.647,191.923 L175.647,269.112" fill-opacity="0" stroke="#5A5955" stroke-width="3"/>
      <path d="M171.447,269.112 L175.647,280.312 L179.847,269.112 z" fill="#5A5955" fill-opacity="1" stroke="#5A5955" stroke-width="3" stroke-opacity="1"/>
    </g>
    <g>
      <path d="M185.807,279.712 L185.863,205.523" fill-opacity="0" stroke="#5A5955" stroke-width="3"/>
      <path d="M190.063,205.526 L185.871,194.323 L181.663,205.52 z" fill="#5A5955" fill-opacity="1" stroke="#5A5955" stroke-width="3" stroke-opacity="1"/>
    </g>
    <g>
      <path d="M198.807,132.833 L199.091,81.766" fill-opacity="0" stroke="#5A5955" stroke-width="3"/>
      <path d="M203.291,81.79 L199.153,70.567 L194.891,81.743 z" fill="#5A5955" fill-opacity="1" stroke="#5A5955" stroke-width="3" stroke-opacity="1"/>
    </g>
    <text transform="matrix(1, 0, 0, 1, 128.912, 79.009)">
      <tspan x="-24.234" y="7.5" font-family="GillSans" font-size="24" fill="#6D6C68">Read</tspan>
    </text>
    <text transform="matrix(1, 0, 0, 1, 243.044, 116.026)">
      <tspan x="-35.683" y="7.5" font-family="GillSans" font-size="24" fill="#5A5955">Results</tspan>
    </text>
    <g>
      <path d="M134.328,188.105 L71.651,271.825" fill-opacity="0" stroke="#5A5955" stroke-width="3"/>
      <path d="M68.288,269.308 L64.938,280.791 L75.013,274.342 z" fill="#5A5955" fill-opacity="1" stroke="#5A5955" stroke-width="3" stroke-opacity="1"/>
    </g>
    <g>
      <path d="M78.609,281.732 L140.056,199.022" fill-opacity="0" stroke="#5A5955" stroke-width="3"/>
      <path d="M143.428,201.527 L146.735,190.032 L136.685,196.518 z" fill="#5A5955" fill-opacity="1" stroke="#5A5955" stroke-width="3" stroke-opacity="1"/>
    </g>
    <g>
      <path d="M213.275,188.105 L269.074,273.353" fill-opacity="0" stroke="#5A5955" stroke-width="3"/>
      <path d="M265.56,275.653 L275.208,282.724 L272.589,271.053 z" fill="#5A5955" fill-opacity="1" stroke="#5A5955" stroke-width="3" stroke-opacity="1"/>
    </g>
    <g>
      <path d="M290.5,284.732 L232.784,199.372" fill-opacity="0" stroke="#5A5955" stroke-width="3"/>
      <path d="M236.264,197.019 L226.511,190.094 L229.305,201.724 z" fill="#5A5955" fill-opacity="1" stroke="#5A5955" stroke-width="3" stroke-opacity="1"/>
    </g>
  </g>
  <defs/>
</svg>
