<?xml version="1.0" encoding="UTF-8"?>
<!DOCTYPE svg PUBLIC "-//W3C//DTD SVG 1.1//EN" "http://www.w3.org/Graphics/SVG/1.1/DTD/svg11.dtd">
<svg version="1.1" xmlns="http://www.w3.org/2000/svg" xmlns:xlink="http://www.w3.org/1999/xlink" x="0px" y="0px" width="660" height="500" viewBox="0, 0, 660, 500">
  <g id="Layer 1">
    <g>
      <text transform="matrix(1, -0, 0, 1, 330, 180.253)">
        <tspan x="-61.838" y="10" font-family="GillSans" font-size="30" fill="#4F4C4B">Heartbeat</tspan>
      </text>
      <g>
        <path d="M256.15,195.583 L403.85,195.583" fill-opacity="0" stroke="#4F4C4B" stroke-width="4"/>
        <path d="M256.15,190.783 L243.35,195.583 L256.15,200.383 z" fill="#4F4C4B" fill-opacity="1" stroke="#4F4C4B" stroke-width="4" stroke-opacity="1"/>
        <path d="M403.85,200.383 L416.65,195.583 L403.85,190.783 z" fill="#4F4C4B" fill-opacity="1" stroke="#4F4C4B" stroke-width="4" stroke-opacity="1"/>
      </g>
    </g>
    <path d="M10.281,142.404 L649.215,142.404 L649.215,227.527 L10.281,227.527 z" fill-opacity="0" stroke="#D33907" stroke-width="2" stroke-dasharray="4,4"/>
    <g>
      <path d="M330,240.833 L330,295.633" fill-opacity="0" stroke="#301E13" stroke-width="10"/>
      <path d="M321.6,295.633 L330,318.033 L338.4,295.633 z" fill="#301E13" fill-opacity="1" stroke="#301E13" stroke-width="10" stroke-opacity="1"/>
    </g>
    <text transform="matrix(1, 0, 0, 1, 330, 123)">
      <tspan x="-187.418" y="11.24" font-family="GillSans" font-size="36" fill="#301E13">Election for New Primary</tspan>
    </text>
    <text transform="matrix(1, 0, 0, 1, 330, 362.264)">
      <tspan x="-155.953" y="11.561" font-family="GillSans" font-size="36" fill="#301E13">New Primary Elected</tspan>
    </text>
    <g>
      <path d="M225,154.863 C225,153.698 222.094,152.753 218.504,152.753 L31.496,152.753 C27.91,152.753 25,153.698 25,154.863 L25,215.641 C25,216.808 27.91,217.753 31.496,217.753 L218.504,217.753 C222.094,217.753 225,216.808 225,215.641 L225,154.863" fill="#5CA831"/>
      <text transform="matrix(1, -0, 0, 1, 125, 185.253)">
        <tspan x="-76.087" y="12.242" font-family="GillSans" font-size="36" fill="#FFFFFE">Secondary</tspan>
      </text>
    </g>
    <g>
      <path d="M225,408.11 C225,406.945 222.094,406 218.504,406 L31.496,406 C27.91,406 25,406.945 25,408.11 L25,468.888 C25,470.054 27.91,471 31.496,471 L218.504,471 C222.094,471 225,470.054 225,468.888 L225,408.11" fill="#2A86C0"/>
      <text transform="matrix(1, 0, 0, 1, 125, 438.5)">
        <tspan x="-57.357" y="12" font-family="GillSans" font-size="36" fill="#FFFFFF">Primary</tspan>
      </text>
    </g>
    <g>
      <path d="M430,26.11 C430,24.945 427.094,24 423.504,24 L236.496,24 C232.91,24 230,24.945 230,26.11 L230,86.888 C230,88.054 232.91,89 236.496,89 L423.504,89 C427.094,89 430,88.054 430,86.888 L430,26.11" fill="#2A86C0"/>
      <text transform="matrix(1, 0, 0, 1, 330, 56.5)">
        <tspan x="-57.357" y="12" font-family="GillSans" font-size="36" fill="#FFFFFF">Primary</tspan>
      </text>
    </g>
    <path d="M10.281,394.877 L649.215,394.877 L649.215,480 L10.281,480 z" fill-opacity="0" stroke="#D33907" stroke-width="2" stroke-dasharray="4,4"/>
    <g>
      <text transform="matrix(1, -0, 0, 1, 330, 438.5)">
        <tspan x="-61.838" y="10" font-family="GillSans" font-size="30" fill="#4F4C4B">Heartbeat</tspan>
      </text>
      <g>
        <path d="M256.15,453.83 L403.85,453.83" fill-opacity="0" stroke="#4F4C4B" stroke-width="4"/>
        <path d="M256.15,449.03 L243.35,453.83 L256.15,458.63 z" fill="#4F4C4B" fill-opacity="1" stroke="#4F4C4B" stroke-width="4" stroke-opacity="1"/>
        <path d="M403.85,458.63 L416.65,453.83 L403.85,449.03 z" fill="#4F4C4B" fill-opacity="1" stroke="#4F4C4B" stroke-width="4" stroke-opacity="1"/>
      </g>
    </g>
    <path d="M227.896,11.983 L432.375,101.24" fill-opacity="0" stroke="#AB2B1F" stroke-width="10"/>
    <path d="M227.521,101 L432,11.743" fill-opacity="0" stroke="#AB2B1F" stroke-width="10"/>
    <g>
      <path d="M636,154.863 C636,153.698 633.094,152.753 629.504,152.753 L442.496,152.753 C438.91,152.753 436,153.698 436,154.863 L436,215.641 C436,216.807 438.91,217.753 442.496,217.753 L629.504,217.753 C633.094,217.753 636,216.807 636,215.641 L636,154.863" fill="#E88B09"/>
      <text transform="matrix(1, -0, 0, 1, 536, 183.232)">
        <tspan x="-53.824" y="12" font-family="GillSans" font-size="36" fill="#FFFFFE">Arbiter</tspan>
      </text>
    </g>
    <g>
      <path d="M636,408.11 C636,406.945 633.094,406 629.504,406 L442.496,406 C438.91,406 436,406.945 436,408.11 L436,468.888 C436,470.054 438.91,471 442.496,471 L629.504,471 C633.094,471 636,470.054 636,468.888 L636,408.11" fill="#E88B09"/>
      <text transform="matrix(1, -0, 0, 1, 536, 436.479)">
        <tspan x="-53.824" y="12" font-family="GillSans" font-size="36" fill="#FFFFFE">Arbiter</tspan>
      </text>
    </g>
  </g>
  <defs/>
</svg>
