<?xml version="1.0" encoding="UTF-8"?>
<!DOCTYPE svg PUBLIC "-//W3C//DTD SVG 1.1//EN" "http://www.w3.org/Graphics/SVG/1.1/DTD/svg11.dtd">
<svg version="1.1" xmlns="http://www.w3.org/2000/svg" xmlns:xlink="http://www.w3.org/1999/xlink" x="0px" y="0px" width="540" height="400" viewBox="0, 0, 540, 400">
  <g id="Layer 1">
    <path d="M117.518,10.135 L309.545,10.135 L309.545,58.003 L117.518,58.003 z" fill-opacity="0" stroke="#1D4494" stroke-width="2"/>
    <text transform="matrix(1, 0, 0, 1, 215.668, 33.569)">
      <tspan x="-23.666" y="5.5" font-family="Inconsolata" font-size="18" fill="#1C4494">Books</tspan>
    </text>
    <path d="M213.532,58.323 L213.532,94.323" fill-opacity="0" stroke="#1D4494" stroke-width="2"/>
    <g>
      <path d="M116.813,94.365 L310.25,94.365 L310.25,142.232 L116.813,142.232 z" fill-opacity="0" stroke="#1D4494" stroke-width="2"/>
      <text transform="matrix(1, 0, 0, 1, 213.032, 117.799)">
        <tspan x="-50.653" y="4.13" font-family="Inconsolata" font-size="18" fill="#1C4494">Programming</tspan>
      </text>
    </g>
    <path d="M213.827,144.091 L213.827,180.091" fill-opacity="0" stroke="#1D4494" stroke-width="2"/>
    <g>
      <path d="M102.822,179.704 L102.822,215.378" fill-opacity="0" stroke="#1D4494" stroke-width="2"/>
      <path d="M326.241,179.378 L326.241,214.712" fill-opacity="0" stroke="#1D4494" stroke-width="2"/>
      <path d="M102.822,180.704 L326.241,180.378" fill-opacity="0" stroke="#1D4494" stroke-width="2"/>
    </g>
    <g>
      <path d="M226.984,218.976 L420.327,218.976 L420.327,266.843 L226.984,266.843 z" fill-opacity="0" stroke="#1D4494" stroke-width="2"/>
      <text transform="matrix(1, 0, 0, 1, 323.155, 242.409)">
        <tspan x="-40.807" y="5.23" font-family="Inconsolata" font-size="18" fill="#1C4494">Databases</tspan>
      </text>
    </g>
    <g>
      <path d="M213.726,305.575 L213.726,341.249" fill-opacity="0" stroke="#1D4494" stroke-width="2"/>
      <path d="M437.146,305.249 L437.146,340.583" fill-opacity="0" stroke="#1D4494" stroke-width="2"/>
      <path d="M213.726,306.575 L437.146,306.249" fill-opacity="0" stroke="#1D4494" stroke-width="2"/>
    </g>
    <g>
      <path d="M117.183,341.284 L310.526,341.284 L310.526,389.152 L117.183,389.152 z" fill-opacity="0" stroke="#1D4494" stroke-width="2"/>
      <text transform="matrix(1, 0, 0, 1, 213.355, 364.718)">
        <tspan x="-33.82" y="5.23" font-family="Inconsolata" font-size="18" fill="#1C4494">MongoDB</tspan>
      </text>
    </g>
    <g>
      <path d="M340.169,342.997 L533.513,342.997 L533.513,390.865 L340.169,390.865 z" fill-opacity="0" stroke="#1D4494" stroke-width="2"/>
      <text transform="matrix(1, 0, 0, 1, 436.341, 366.161)">
        <tspan x="-16.369" y="5.5" font-family="Inconsolata" font-size="18" fill="#1C4494">dbm</tspan>
      </text>
    </g>
    <path d="M323.61,268.392 L323.61,304.392" fill-opacity="0" stroke="#1D4494" stroke-width="2"/>
    <g>
      <path d="M8.132,219.306 L201.476,219.306 L201.476,267.173 L8.132,267.173 z" fill-opacity="0" stroke="#1D4494" stroke-width="2"/>
      <text transform="matrix(1, 0, 0, 1, 104.304, 242.74)">
        <tspan x="-40.807" y="5.23" font-family="Inconsolata" font-size="18" fill="#1C4494">Languages</tspan>
      </text>
    </g>
  </g>
  <defs/>
</svg>
