<svg xmlns="http://www.w3.org/2000/svg" xmlns:lucid="lucid" xmlns:xlink="http://www.w3.org/1999/xlink" width="1125" height="1282"><g lucid:page-tab-id="qtE5~9RCKWiJ" transform="translate(-177.5 -119)"><path fill="none" stroke="#dfe3e8" stroke-width="5" d="M180 246a6 6 0 0 1 6-6h1108a6 6 0 0 1 6 6v1028a6 6 0 0 1-6 6H186a6 6 0 0 1-6-6z"/><path fill="none" d="M180 240h220v60H180Z"/><use xlink:href="#a" transform="translate(206 279)"/><use xlink:href="#b" transform="translate(284.2 279)"/><path fill="#fff" stroke="#3a414a" stroke-width="2" d="M746.2 283.6a8 8 0 0 1 9.6 0l80.7 60.1a4.5 4.5 0 0 1 0 7.2l-80.7 60a8 8 0 0 1-9.6 0l-80.7-60a4.5 4.5 0 0 1 0-7.2z"/><use xlink:href="#c" transform="translate(696.5 343.2)"/><use xlink:href="#d" transform="translate(741.3 343.2)"/><use xlink:href="#e" transform="translate(727 368.6)"/><path fill="#fff" stroke="#3a414a" stroke-width="2" d="M1111.3 506a6 6 0 0 1 6-6h148a6 6 0 0 1 6 6v113.4a6 6 0 0 1-6 6h-148a6 6 0 0 1-6-6z"/><use xlink:href="#f" transform="translate(1125.4 535.2)"/><use xlink:href="#g" transform="translate(1220.1 535.2)"/><use xlink:href="#h" transform="translate(1150.1 560.5)"/><use xlink:href="#i" transform="translate(1140.3 586)"/><use xlink:href="#j" transform="translate(1166 611.3)"/><path fill="#fff" stroke="#3a414a" stroke-width="2" d="M292.3 496.3a8 8 0 0 1 9.6 0l80.4 60.1a4.5 4.5 0 0 1 0 7.2L302 623.7a8 8 0 0 1-9.6 0L212 563.6a4.5 4.5 0 0 1 0-7.2z"/><use xlink:href="#k" transform="translate(256 549)"/><use xlink:href="#l" transform="translate(236 574.4)"/><path fill="#fff" stroke="#3a414a" stroke-width="2" d="M1111.3 691.4a6 6 0 0 1 6-6h148a6 6 0 0 1 6 6v108a6 6 0 0 1-6 6h-148a6 6 0 0 1-6-6z"/><use xlink:href="#m" transform="translate(1154.9 741.4)"/><use xlink:href="#n" transform="translate(1130 766.8)"/><use xlink:href="#o" transform="translate(1211.5 766.8)"/><path fill="#fff" stroke="#3a414a" stroke-width="2" d="M670 506a6 6 0 0 1 6-6h148a6 6 0 0 1 6 6v113.4a6 6 0 0 1-6 6H676a6 6 0 0 1-6-6z"/><use xlink:href="#f" transform="translate(684.1 535.2)"/><use xlink:href="#g" transform="translate(778.9 535.2)"/><use xlink:href="#h" transform="translate(708.9 560.5)"/><use xlink:href="#i" transform="translate(699 586)"/><use xlink:href="#j" transform="translate(724.8 611.3)"/><path fill="#fff" stroke="#3a414a" stroke-width="2" d="M669.5 691.4a6 6 0 0 1 6-6h148a6 6 0 0 1 6 6v108a6 6 0 0 1-6 6h-148a6 6 0 0 1-6-6z"/><use xlink:href="#m" transform="translate(713.2 741.4)"/><use xlink:href="#n" transform="translate(688.2 766.8)"/><use xlink:href="#o" transform="translate(769.8 766.8)"/><path fill="#fff" stroke="#3a414a" stroke-width="2" d="M744.7 869a8.1 8.1 0 0 1 9.6 0l81.2 60.1a4.4 4.4 0 0 1 0 7.2l-81.2 60.1a8.1 8.1 0 0 1-9.6 0l-81.2-60.1a4.4 4.4 0 0 1 0-7.2z"/><use xlink:href="#p" transform="translate(705 918.4)"/><use xlink:href="#q" transform="translate(685.8 943.8)"/><use xlink:href="#r" transform="translate(750.6 943.8)"/><path fill="#3a414a" stroke="#3a414a" stroke-width=".1" d="m1186.3 346.4 1.1.2 1 .4 1 .6.8.7.7.9.6 1 .4 1 .3 1v128.3h-2v-128l-.2-.7-.3-.8-.4-.6-.5-.6-.6-.5-.7-.4-.7-.3-.8-.2-.8-.1h-65.4v-2h65.5zm-346 1.9v-2h72.9v2z"/><path fill="#3a414a" d="M840.4 348.3h-1.1v-2h1z"/><path fill="#3a414a" stroke="#3a414a" stroke-width=".1" d="M840.4 348.3h-1.2l.1-1v-1h1.1zm-1.1-2v2h1v-2z"/><path fill="#3a414a" d="m1191.3 495.8-4.7-14.3h9.3z"/><path fill="#3a414a" stroke="#3a414a" stroke-width=".1" d="m1191.3 499-6-18.5h12zm-3.3-16.5 3.2 10 3.3-10z"/><use xlink:href="#s" transform="translate(913.2 353.8)"/><use xlink:href="#t" transform="translate(942.2 353.8)"/><use xlink:href="#u" transform="translate(989.2 353.8)"/><use xlink:href="#v" transform="translate(1045 353.8)"/><path fill="#3a414a" stroke="#3a414a" stroke-width=".1" d="M406.2 348.3H302.4l-.8.2-.7.3-.7.4-.6.5-.5.6-.4.7-.3.7-.2.8v122.7h-2v-123l.3-1 .4-1 .6-1 .7-.8.8-.8 1-.5 1-.5 1-.2h104.2zm255.4 0h-96.3v-2h96.3z"/><path fill="#3a414a" d="m662.6 347.3.1 1h-1v-2h1z"/><path fill="#3a414a" stroke="#3a414a" stroke-width=".1" d="M662.7 347.3v1h-1.1v-2h1.2zm-1-1v2h1v-2z"/><path fill="#3a414a" d="m297.1 490.5-4.6-14.3h9.3z"/><path fill="#3a414a" stroke="#3a414a" stroke-width=".1" d="m297.1 493.7-6-18.5h12zm-3.2-16.5 3.2 10 3.3-10z"/><use xlink:href="#w" transform="translate(406.2 353.8)"/><use xlink:href="#t" transform="translate(466.9 353.8)"/><use xlink:href="#x" transform="translate(513.8 353.8)"/><path fill="#fff" stroke="#3a414a" stroke-width="2" d="M840.4 1066a6 6 0 0 1 6-6h148a6 6 0 0 1 6 6v108a6 6 0 0 1-6 6h-148a6 6 0 0 1-6-6z"/><use xlink:href="#y" transform="translate(853.7 1116)"/><use xlink:href="#z" transform="translate(906.6 1116)"/><use xlink:href="#A" transform="translate(880.8 1141.3)"/><path fill="none" stroke="#3a414a" stroke-width="2" d="M1191.3 627.4V666"/><path fill="#3a414a" stroke="#3a414a" stroke-width=".1" d="M1192.3 627.4h-2v-1h2z"/><path fill="#3a414a" stroke="#3a414a" stroke-width="2" d="m1191.3 681.2-4.7-14.2h9.3z"/><path fill="#fff" stroke="#3a414a" stroke-width="2" d="M500.6 1066a6 6 0 0 1 6-6h148a6 6 0 0 1 6 6v108a6 6 0 0 1-6 6h-148a6 6 0 0 1-6-6z"/><use xlink:href="#B" transform="translate(514.4 1116)"/><use xlink:href="#C" transform="translate(560.2 1116)"/><use xlink:href="#D" transform="translate(522.3 1141.4)"/><use xlink:href="#e" transform="translate(590.5 1141.4)"/><path fill="#dfe3e8" stroke="#3a414a" stroke-width="2" d="M799 120c17.7 0 32 17.9 32 40s-14.3 40-32 40h-96c-17.7 0-32-17.9-32-40s14.3-40 32-40z"/><use xlink:href="#E" transform="translate(718.7 169.1)"/><path fill="#3a414a" stroke="#3a414a" stroke-width=".1" d="m298.1 1233 .1.8.2.8.3.7.4.7.5.6.6.5.7.4.7.3.7.2H745l1 .2 1.1.2 1 .4 1 .6.8.7.7.8.6 1 .4 1 .3 1.1v56.5h-2v-56.3l-.2-.7-.3-.7-.4-.7-.5-.6-.6-.5-.7-.4-.7-.3-.7-.2h-.9l-442.8-.1-1.1-.3-1-.4-1-.6-.8-.7-.8-.8-.5-1-.4-1-.3-1V925.6h2zm0-330h-2V627.4h2z"/><path fill="#3a414a" d="M297.1 626.3h1v1h-2v-1z"/><path fill="#3a414a" stroke="#3a414a" stroke-width=".1" d="m297.1 626.3 1-.1v1.1h-2v-1.1zm-1 1h2v-1h-2z"/><path fill="#3a414a" d="m751 1315.8-4.6-14.3h9.2z"/><path fill="#3a414a" stroke="#3a414a" stroke-width=".1" d="m751 1319-6-18.5h12Zm-3.3-16.5 3.3 10 3.2-10z"/><use xlink:href="#F" transform="translate(278.2 920.9)"/><path fill="#3a414a" stroke="#3a414a" stroke-width=".1" d="M751 480.5h-2v-20.2h2zm1-42.8h-2v-23.1h2z"/><path fill="#3a414a" d="M751 413.6h1v1h-2v-1z"/><path fill="#3a414a" stroke="#3a414a" stroke-width=".1" d="m751 413.6 1-.1v1.1h-2v-1.1zm-1 1h2v-1h-2z"/><path fill="#3a414a" d="m750 495.8-4.6-14.3h9.2z"/><path fill="#3a414a" stroke="#3a414a" stroke-width=".1" d="m750 499-6-18.5h12zm-3.3-16.5 3.3 10 3.3-10z"/><use xlink:href="#G" transform="translate(664.5 455.5)"/><use xlink:href="#t" transform="translate(739 455.5)"/><use xlink:href="#x" transform="translate(786 455.5)"/><path fill="#fff" stroke="#3a414a" stroke-width="2" d="M1111.8 871.4a6 6 0 0 1 6-6h148a6 6 0 0 1 6 6v108a6 6 0 0 1-6 6h-148a6 6 0 0 1-6-6z"/><use xlink:href="#H" transform="translate(1137 906.4)"/><use xlink:href="#I" transform="translate(1181.1 906.4)"/><use xlink:href="#J" transform="translate(1227 906.4)"/><use xlink:href="#K" transform="translate(1146.7 931.8)"/><use xlink:href="#L" transform="translate(1215 931.8)"/><use xlink:href="#M" transform="translate(1125.6 957.2)"/><use xlink:href="#e" transform="translate(1209.5 957.2)"/><path fill="none" stroke="#3a414a" stroke-width="2" d="M1191.3 807.4V846"/><path fill="#3a414a" stroke="#3a414a" stroke-width=".1" d="M1192.3 807.4h-2v-1h2z"/><path fill="#3a414a" stroke="#3a414a" stroke-width="2" d="m1191.3 861.2-4.7-14.2h9.3z"/><path fill="#fff" stroke="#3a414a" stroke-width="2" d="M460 508.7a6 6 0 0 1 6-6h148a6 6 0 0 1 6 6v108a6 6 0 0 1-6 6H466a6 6 0 0 1-6-6z"/><use xlink:href="#B" transform="translate(473.7 558.7)"/><use xlink:href="#C" transform="translate(519.6 558.7)"/><use xlink:href="#M" transform="translate(473.9 584)"/><use xlink:href="#e" transform="translate(557.7 584)"/><path fill="none" stroke="#3a414a" stroke-width="2" d="M750 627.4V666"/><path fill="#3a414a" stroke="#3a414a" stroke-width=".1" d="M751 627.4h-2v-1h2z"/><path fill="#3a414a" stroke="#3a414a" stroke-width="2" d="m750 681.2-4.6-14.2h9.2z"/><path fill="#3a414a" stroke="#3a414a" stroke-width=".1" d="M921.4 1040.5h-2V1021h2zm-6-108.7 1.1.3 1 .4 1 .5.8.8.7.8.6 1 .4 1 .3 1V976h-2v-38.1l-.2-.7-.3-.8-.4-.6-.5-.6-.6-.5-.7-.4-.7-.3-.8-.2h-75.8v-2h75.1z"/><path fill="#3a414a" d="M839.4 933.7h-1.1v-2h1z"/><path fill="#3a414a" stroke="#3a414a" stroke-width=".1" d="M839.4 933.8h-1.2l.1-1v-1.1h1zm-1.1-2v1.9h1v-2z"/><path fill="#3a414a" d="m920.4 1055.8-4.7-14.3h9.3Z"/><path fill="#3a414a" stroke="#3a414a" stroke-width=".1" d="m920.4 1059-6-18.5h12zm-3.3-16.5 3.3 10 3.2-10z"/><use xlink:href="#N" transform="translate(862.2 993.7)"/><use xlink:href="#O" transform="translate(903 993.7)"/><use xlink:href="#P" transform="translate(850.2 1016.3)"/><use xlink:href="#Q" transform="translate(903.7 1016.3)"/><use xlink:href="#R" transform="translate(946.9 1016.3)"/><path fill="#3a414a" stroke="#3a414a" stroke-width=".1" d="M581.6 1040.5h-2v-18.4h2zm78-106.8h-73.8l-.7.3-.7.3-.7.4-.6.5-.5.6-.4.7-.3.7-.2.7v39h-2v-39.2l.3-1.1.4-1 .6-1 .7-.8.8-.8 1-.5 1-.4 1-.3h74.1z"/><path fill="#3a414a" d="M660.7 932.7v1h-1v-2h1z"/><path fill="#3a414a" stroke="#3a414a" stroke-width=".1" d="m660.7 932.7.1 1h-1.2v-2h1.2zm-1-1v2h1v-2z"/><path fill="#3a414a" d="m580.6 1055.8-4.6-14.3h9.3z"/><path fill="#3a414a" stroke="#3a414a" stroke-width=".1" d="m580.6 1059-6-18.5h12zm-3.2-16.5 3.2 10 3.3-10z"/><use xlink:href="#N" transform="translate(496.6 994.8)"/><use xlink:href="#S" transform="translate(537.4 994.8)"/><use xlink:href="#T" transform="translate(617.3 994.8)"/><use xlink:href="#U" transform="translate(499 1017.3)"/><use xlink:href="#V" transform="translate(520 1017.3)"/><use xlink:href="#Q" transform="translate(575.5 1017.3)"/><use xlink:href="#R" transform="translate(618.7 1017.3)"/><path fill="#3a414a" stroke="#3a414a" stroke-width=".1" d="M402 561h-15.9v-2h16zm38.5 0h-9.7v-2h9.7z"/><path fill="#3a414a" d="M386.2 561H385l.1-1v-1h1z"/><path fill="#3a414a" stroke="#3a414a" stroke-width=".1" d="M386.2 561H385l.1-1-.1-1h1.2zm-1.1-2v2h1v-2Z"/><path fill="#3a414a" d="m455.8 560-14.3 4.6v-9.2z"/><path fill="#3a414a" stroke="#3a414a" stroke-width=".1" d="m459 560-18.5 6v-12zm-16.5 3.3 10-3.3-10-3.3z"/><use xlink:href="#W" transform="translate(402 566.5)"/><path fill="none" stroke="#3a414a" stroke-width="2" d="M622 562.7h28.5"/><path fill="#3a414a" stroke="#3a414a" stroke-width=".1" d="M622 563.7h-1v-2h1Z"/><path fill="#3a414a" stroke="#3a414a" stroke-width="2" d="m665.8 562.7-14.3 4.7V558z"/><path fill="#dfe3e8" stroke="#3a414a" stroke-width="2" d="M799 1320c17.7 0 32 17.9 32 40s-14.3 40-32 40h-96c-17.7 0-32-17.9-32-40s14.3-40 32-40z"/><use xlink:href="#X" transform="translate(683.7 1369.1)"/><use xlink:href="#Y" transform="translate(772.7 1369.1)"/><path fill="none" stroke="#3a414a" stroke-width="2" d="M580.6 1182v51a6 6 0 0 0 6 6H745a6 6 0 0 1 6 6v55.5"/><path fill="#3a414a" stroke="#3a414a" stroke-width=".1" d="M581.6 1182h-2v-1h2z"/><path fill="#3a414a" stroke="#3a414a" stroke-width="2" d="m751 1315.8-4.6-14.3h9.2z"/><path fill="none" stroke="#3a414a" stroke-width="2" d="M749.5 807.4v40.5"/><path fill="#3a414a" stroke="#3a414a" stroke-width=".1" d="M750.5 807.4h-2v-1h2z"/><path fill="#3a414a" stroke="#3a414a" stroke-width="2" d="m749.5 863.2-4.6-14.3h9.2z"/><path fill="none" stroke="#3a414a" stroke-width="2" d="M751 202v60.5"/><path fill="#3a414a" stroke="#3a414a" stroke-width=".1" d="M752 202h-2v-1h2z"/><path fill="#3a414a" stroke="#3a414a" stroke-width="2" d="m751 277.8-4.6-14.3h9.2z"/><path fill="#3a414a" stroke="#3a414a" stroke-width=".1" d="m1192.8 1232.6-.1 1-.3 1.1-.4 1-.6 1-.7.8-.8.7-1 .6-1 .4-1 .3H757l-.8.1-.7.2-.8.3-.6.4-.6.5-.5.6-.5.7-.3.7-.1.7-.1 56.8h-2v-57l.3-1.1.4-1 .6-1 .7-.8.9-.7 1-.6 1-.4 1-.2 1-.1 429.7-.1.7-.2.7-.3.7-.4.6-.5.5-.6.4-.7.3-.7.2-.7v-246h2z"/><path fill="#3a414a" d="M1192.8 987.4h-2v-1h2z"/><path fill="#3a414a" stroke="#3a414a" stroke-width=".1" d="M1192.8 987.5h-2v-1.1h2zm-2-1v.9h2v-1z"/><path fill="#3a414a" d="m751 1315.8-4.6-14.3h9.2z"/><path fill="#3a414a" stroke="#3a414a" stroke-width=".1" d="m751 1319-6-18.5h12Zm-3.3-16.5 3.3 10 3.2-10z"/><path fill="none" stroke="#3a414a" stroke-width="2" d="M920.4 1182v50.6a6 6 0 0 1-6 6H757a6 6 0 0 0-6 6v55.9"/><path fill="#3a414a" stroke="#3a414a" stroke-width=".1" d="M921.4 1182h-2v-1h2z"/><path fill="#3a414a" stroke="#3a414a" stroke-width="2" d="m751 1315.8-4.6-14.3h9.2z"/><defs><path id="Z" fill="#3a414a" d="M402 12C199 12 35-153 35-355s164-367 367-367c202 0 367 165 367 367 0 69-19 133-52 188L922 0H697l-75-61c-62 46-138 73-220 73ZM195-355c-4 147 156 264 299 190l-101-82 90-110 107 87c62-143-45-300-188-298-116 0-207 98-207 213"/><path id="aa" fill="#3a414a" d="M245 11C121 11 56-79 56-215v-285h151v259c0 73 21 115 77 115 57 0 94-39 94-131v-243h151V0H378v-51c-24 35-68 62-133 62"/><path id="ab" fill="#3a414a" d="M297 11C142 11 32-99 32-251c0-150 114-260 265-260 144 0 273 98 267 296H179c7 51 45 96 126 96 44 0 84-20 96-47h158C527-62 423 11 297 11Zm100-322c-30-118-194-95-214 0h214"/><path id="ac" fill="#3a414a" d="M62 0v-500h151v75c22-57 90-98 168-75v153c-89-36-168 9-168 110V0H62"/><path id="ad" fill="#3a414a" d="M267 209H104L208-29 0-500h165l124 309 123-309h166"/><path id="ae" fill="#3a414a" d="M566-467c0 137-107 242-250 242h-82V0H75v-710h241c143 0 250 106 250 243zm-154 0c0-53-41-93-98-93h-80v186h80c57 0 98-41 98-93"/><path id="af" fill="#3a414a" d="M62 0v-750h151V0H62"/><path id="ag" fill="#3a414a" d="M264 11C133 11 32-108 32-250s101-261 232-261c67 0 116 34 136 61v-50h151V0H400v-50c-20 27-69 61-136 61zm34-137c68 0 114-52 114-124s-46-124-114-124-114 52-114 124 46 124 114 124"/><path id="ah" fill="#3a414a" d="M62 0v-500h151v51c24-34 74-62 139-62 123 0 194 91 194 222V0H395v-263c0-69-27-111-81-111-57 0-101 41-101 131V0H62"/><path id="ai" fill="#3a414a" d="M94 0v-710h413v88H187v215h253v88H187V0H94"/><path id="aj" fill="#3a414a" d="M185-695c0 34-26 61-60 61s-62-27-62-61c0-33 28-61 62-61s60 28 60 61zM81 0v-500h86V0H81"/><path id="ak" fill="#3a414a" d="M81 0v-500h86v77c34-59 94-87 159-87 112 0 189 78 189 202V0h-85v-295c0-84-48-136-118-136-81 0-145 66-145 183V0H81"/><path id="al" fill="#3a414a" d="M42-250c0-143 105-260 245-260 75 0 143 39 176 87v-327h86V0h-86v-77c-33 48-101 87-176 87C147 10 42-107 42-250Zm428 0c0-101-69-181-170-181s-171 80-171 181S199-69 300-69s170-80 170-181"/><path id="am" fill="#3a414a" d="M46-355c0-207 160-367 368-367 179 0 309 117 340 246h-98c-31-89-124-158-242-158-158 0-275 122-275 279S256-76 414-76c118 0 211-69 242-158h98C723-105 593 12 414 12 206 12 46-148 46-355"/><path id="an" fill="#3a414a" d="M42-250c0-143 105-260 245-260 75 0 143 39 176 87v-77h86V0h-86v-77c-33 48-101 87-176 87C147 10 42-107 42-250Zm428 0c0-101-69-181-170-181s-171 80-171 181S199-69 300-69s170-80 170-181"/><path id="ao" fill="#3a414a" d="M555-176C527-68 429 10 303 10 151 10 42-107 42-250s109-260 261-260c126 0 224 78 252 186h-92c-22-63-82-107-160-107-104 0-174 80-174 181S199-69 303-69c78 0 138-44 160-107h92"/><path id="ap" fill="#3a414a" d="M81 0v-750h86v327c34-59 94-87 159-87 112 0 189 78 189 202V0h-85v-295c0-84-48-136-118-136-81 0-145 66-145 183V0H81"/><path id="aq" fill="#3a414a" d="M528-152C503-64 421 10 294 10 148 10 42-101 42-250c0-146 98-260 254-260 157 0 252 128 240 283H129c3 91 76 159 166 159 62 0 115-24 145-84zm-83-143c-27-186-281-187-312 0h312"/><path id="ar" fill="#3a414a" d="M94 0v-710h414v88H187v215h261v88H187v231h321V0H94"/><path id="as" fill="#3a414a" d="M352-7c-113 35-230-6-230-141v-273H16v-79h106v-139h86v139h144v79H208v262c-8 91 77 95 144 75v77"/><path id="at" fill="#3a414a" d="M81 0v-500h86v97c28-75 96-115 179-98v89c-98-29-179 27-179 164V0H81"/><path id="au" fill="#3a414a" d="M214 209h-96L227-26 8-500h95l172 379 171-379h96"/><path id="av" fill="#3a414a" d="M46-355c0-207 160-367 368-367 168 0 296 104 336 222H647c-38-77-126-134-233-134-158 0-275 122-275 279S256-76 414-76c146 0 248-103 261-243H410v-87h360C790-147 621 12 414 12 206 12 46-148 46-355"/><path id="aw" fill="#3a414a" d="M237 0 6-500h96l171 378 171-378h96L309 0h-72"/><path id="ax" fill="#3a414a" d="M81 0v-750h86V0H81"/><path id="ay" fill="#3a414a" d="M74-193v-307h86v294c0 84 44 137 113 137 78 0 139-68 139-183v-248h86V0h-86v-77c-33 58-91 87-154 87C148 10 74-69 74-193"/><path id="az" fill="#3a414a" d="M311-710c148 0 244 98 244 226s-96 225-244 225H187V0H94v-710zm0 365c98 0 152-60 152-139s-54-139-152-139H187v278h124"/><path id="aA" fill="#3a414a" d="M426-135c0 99-80 145-184 145C135 10 46-44 39-145h88c12 61 64 82 116 82 54 0 96-22 96-66 0-65-95-84-155-99-86-22-129-76-129-147 0-83 72-135 173-135 107 0 173 63 182 143h-86c-13-44-49-71-96-71-48 0-86 24-86 62 0 64 100 78 156 93 83 22 128 73 128 148"/><path id="aB" fill="#3a414a" d="M123 0v-421H17v-79h106v-101c-3-134 117-180 231-142v76c-67-21-145-16-145 75v92h145v79H209V0h-86"/><path id="aC" fill="#3a414a" d="M564-250c0 144-111 260-261 260C152 10 41-106 41-250s111-260 262-260c150 0 261 116 261 260zm-435 0c0 100 70 180 174 180s173-80 173-180-69-180-173-180-174 80-174 180"/><path id="aD" fill="#3a414a" d="M81 0v-500h86v77c29-53 84-87 151-87 75 0 129 41 154 107 27-66 90-107 164-107 109 0 175 81 175 203V0h-86v-294c0-81-34-137-99-137-81 0-137 70-137 183V0h-86v-294c0-81-33-137-98-137-81 0-138 70-138 183V0H81"/><path id="aE" fill="#3a414a" d="M647 0 474-482 300 0h-83L23-710h97l149 554 204-566 205 566 149-554h97L730 0h-83"/><path id="aF" fill="#3a414a" d="M59 46h84c23 66 79 97 160 97 90 0 158-60 158-173v-59C427-39 361-1 287-1 148-1 42-113 42-256c0-142 106-254 245-254 74 0 140 37 174 87v-77h86v469c0 167-110 250-246 250-134 0-227-72-242-173Zm409-302c0-100-69-175-169-175s-169 75-169 175c0 101 69 175 169 175s169-74 169-175"/><path id="aG" fill="#24292f" d="M46-355c0-207 160-367 368-367 179 0 309 117 340 246h-98c-31-89-124-158-242-158-158 0-275 122-275 279S256-76 414-76c118 0 211-69 242-158h98C723-105 593 12 414 12 206 12 46-148 46-355"/><path id="aH" fill="#24292f" d="M564-250c0 144-111 260-261 260C152 10 41-106 41-250s111-260 262-260c150 0 261 116 261 260zm-435 0c0 100 70 180 174 180s173-80 173-180-69-180-173-180-174 80-174 180"/><path id="aI" fill="#24292f" d="M81 0v-500h86v77c29-53 84-87 151-87 75 0 129 41 154 107 27-66 90-107 164-107 109 0 175 81 175 203V0h-86v-294c0-81-34-137-99-137-81 0-137 70-137 183V0h-86v-294c0-81-33-137-98-137-81 0-138 70-138 183V0H81"/><path id="aJ" fill="#24292f" d="M81 209v-709h86v77c33-48 101-87 176-87 139 0 245 117 245 260S482 10 343 10c-75 0-143-39-176-87v286zm419-459c0-101-69-181-170-181s-170 80-170 181S229-69 330-69s170-80 170-181"/><path id="aK" fill="#24292f" d="M42-250c0-143 105-260 245-260 75 0 143 39 176 87v-77h86V0h-86v-77c-33 48-101 87-176 87C147 10 42-107 42-250Zm428 0c0-101-69-181-170-181s-171 80-171 181S199-69 300-69s170-80 170-181"/><path id="aL" fill="#24292f" d="M81 0v-500h86v97c28-75 96-115 179-98v89c-98-29-179 27-179 164V0H81"/><path id="aM" fill="#24292f" d="M528-152C503-64 421 10 294 10 148 10 42-101 42-250c0-146 98-260 254-260 157 0 252 128 240 283H129c3 91 76 159 166 159 62 0 115-24 145-84zm-83-143c-27-186-281-187-312 0h312"/><path id="aN" fill="#24292f" d="M114 0 8-486h82c27 138 60 271 80 416h4c24-134 59-257 88-386h82c28 129 61 255 88 386h4c20-144 53-278 80-416h76L488 0H382c-29-133-62-225-80-376h-4c-18 151-50 242-78 376H114"/><path id="aO" fill="#24292f" d="M540-242c0 155-89 254-240 254S60-87 60-242c0-156 88-256 240-256s240 100 240 256zm-395 0c0 109 50 186 155 186s155-78 155-186c0-109-49-188-155-188s-155 79-155 188"/><path id="aP" fill="#24292f" d="M428-424c-102 7-152 58-200 139V0h-82v-486h68l7 115h3c50-91 183-163 313-107l-19 71c-35-11-46-17-90-17"/><path id="aQ" fill="#24292f" d="M106 0v-712h82v482h4l262-256h94L354-295 574 0h-92L303-245 188-132V0h-82"/><path id="aR" fill="#24292f" d="M518-183C574-2 335 47 177-10c-41-15-76-33-106-54l38-54c56 38 117 66 211 66 76 2 138-32 118-102-28-41-84-49-147-64-63-13-111-32-143-54s-47-51-47-88c4-177 298-159 398-76l-40 53c-42-28-96-51-163-51-67-1-106 19-112 70 0 21 11 37 33 48 86 42 272 40 301 133"/><path id="aS" fill="#24292f" d="M311 0 8-710h103l240 564 239-564h101L389 0h-78"/><path id="aT" fill="#24292f" d="M81 0v-750h86V0H81"/><path id="aU" fill="#24292f" d="M74-193v-307h86v294c0 84 44 137 113 137 78 0 139-68 139-183v-248h86V0h-86v-77c-33 58-91 87-154 87C148 10 74-69 74-193"/><path id="aV" fill="#24292f" d="M426-135c0 99-80 145-184 145C135 10 46-44 39-145h88c12 61 64 82 116 82 54 0 96-22 96-66 0-65-95-84-155-99-86-22-129-76-129-147 0-83 72-135 173-135 107 0 173 63 182 143h-86c-13-44-49-71-96-71-48 0-86 24-86 62 0 64 100 78 156 93 83 22 128 73 128 148"/><path id="aW" fill="#333" d="M699 0h-80L187-553V0H94v-710h81l432 553v-553h92V0"/><path id="aX" fill="#333" d="M564-250c0 144-111 260-261 260C152 10 41-106 41-250s111-260 262-260c150 0 261 116 261 260zm-435 0c0 100 70 180 174 180s173-80 173-180-69-180-173-180-174 80-174 180"/><path id="aY" fill="#333" d="M94 0v-710h414v88H187v215h261v88H187v231h321V0H94"/><path id="aZ" fill="#333" d="M81 0v-500h86v77c34-59 94-87 159-87 112 0 189 78 189 202V0h-85v-295c0-84-48-136-118-136-81 0-145 66-145 183V0H81"/><path id="ba" fill="#333" d="M352-7c-113 35-230-6-230-141v-273H16v-79h106v-139h86v139h144v79H208v262c-8 91 77 95 144 75v77"/><path id="bb" fill="#333" d="M81 0v-500h86v97c28-75 96-115 179-98v89c-98-29-179 27-179 164V0H81"/><path id="bc" fill="#333" d="M214 209h-96L227-26 8-500h95l172 379 171-379h96"/><path id="bd" fill="#333" d="M94 0v-710h413v88H187v215h253v88H187V0H94"/><path id="be" fill="#333" d="M74-193v-307h86v294c0 84 44 137 113 137 78 0 139-68 139-183v-248h86V0h-86v-77c-33 58-91 87-154 87C148 10 74-69 74-193"/><path id="bf" fill="#333" d="M42-250c0-143 105-260 245-260 75 0 143 39 176 87v-327h86V0h-86v-77c-33 48-101 87-176 87C147 10 42-107 42-250Zm428 0c0-101-69-181-170-181s-171 80-171 181S199-69 300-69s170-80 170-181"/><path id="bg" fill="#333" d="M245 160h-70C4-148 4-492 175-800h70C82-478 82-162 245 160"/><path id="bh" fill="#333" d="M442-151 234-438V0H75v-710h145l222 306 222-306h145V0H649v-438"/><path id="bi" fill="#333" d="M137-568c-51 0-94-42-94-94a94.5 94.5 0 0 1 189 0c0 52-42 94-95 94zM62 0v-500h151V0H62"/><path id="bj" fill="#333" d="M264 11C128 11 36-65 31-163h159c2 40 36 60 79 60 39 0 56-14 56-32 0-22-18-32-57-42l-101-26C80-225 41-286 41-360c0-87 77-151 209-151 110 0 200 56 207 162H305c-6-37-32-46-58-46-31 0-51 12-51 32 0 26 28 33 51 39l91 24c101 27 141 78 141 157 0 93-89 154-215 154"/><path id="bk" fill="#333" d="M62 0v-500h151v51c24-34 74-62 139-62 123 0 194 91 194 222V0H395v-263c0-69-27-111-81-111-57 0-101 41-101 131V0H62"/><path id="bl" fill="#333" d="M298 219C155 219 62 135 54 27h147c28 99 206 91 201-36v-59C379-34 327-7 266-7 138-7 32-119 32-259s106-252 234-252c61 0 113 27 136 61v-50h151v469c0 185-126 250-255 250zm1-363c61 0 115-45 115-115s-54-115-115-115-115 45-115 115 54 115 115 115"/><path id="bm" fill="#333" d="M29 160c163-322 163-638 0-960h70c171 308 171 652 0 960H29"/><path id="bn" fill="#333" d="m-1 0 304-710h144L751 0H585l-63-150H228L165 0Zm287-288h178l-89-214"/><path id="bo" fill="#333" d="M295 11C143 11 32-105 32-250s111-261 263-261c142 0 231 89 258 206H397c-18-40-49-70-102-70-63 0-111 47-111 125s48 125 111 125c53 0 84-30 102-70h156C526-78 437 11 295 11"/><path id="bp" fill="#333" d="M407-4C262 31 116-22 116-183v-186H16v-131h100v-139h151v139h140v131H267v155c0 60 25 85 85 85 23 0 39-3 55-9V-4"/><path id="bq" fill="#333" d="M218 0-1-500h167l122 303 121-303h168L358 0H218"/><path id="br" fill="#333" d="M297 11C142 11 32-99 32-251c0-150 114-260 265-260 144 0 273 98 267 296H179c7 51 45 96 126 96 44 0 84-20 96-47h158C527-62 423 11 297 11Zm100-322c-30-118-194-95-214 0h214"/><path id="bs" fill="#3a414a" d="M94 0v-710h242c131 0 212 79 212 196 0 104-66 174-175 190L646 0H529L256-323h-69V0Zm93-406h138c81 0 130-37 130-108 0-72-49-110-130-110H187v218"/><path id="bt" fill="#3a414a" d="M75 0v-710h159V0H75"/><path id="bu" fill="#3a414a" d="M295 11C143 11 32-105 32-250s111-261 263-261c142 0 231 89 258 206H397c-18-40-49-70-102-70-63 0-111 47-111 125s48 125 111 125c53 0 84-30 102-70h156C526-78 437 11 295 11"/><path id="bv" fill="#3a414a" d="M407-4C262 31 116-22 116-183v-186H16v-131h100v-139h151v139h140v131H267v155c0 60 25 85 85 85 23 0 39-3 55-9V-4"/><path id="bw" fill="#3a414a" d="M137-568c-51 0-94-42-94-94a94.5 94.5 0 0 1 189 0c0 52-42 94-95 94zM62 0v-500h151V0H62"/><path id="bx" fill="#3a414a" d="M218 0-1-500h167l122 303 121-303h168L358 0H218"/><path id="by" fill="#3a414a" d="M94 0v-710h233c132 0 212 88 212 188 0 70-31 117-76 145 69 25 123 75 123 170C586-89 492 0 348 0Zm93-405h140c76 0 121-47 121-110 0-60-45-111-121-111H187Zm0 321h165c95 0 143-50 143-120 0-69-48-121-142-121H187v241"/><path id="bz" fill="#3a414a" d="m-1 0 304-710h144L751 0H585l-63-150H228L165 0Zm287-288h178l-89-214"/><path id="bA" fill="#3a414a" d="m703 0-67-62c-62 46-139 74-224 74A364 364 0 0 1 45-355c0-206 163-367 367-367 205 0 367 161 367 367 0 89-30 170-81 233L830 0ZM139-355c0 156 118 279 273 279 59 0 113-18 157-48L456-229l57-64 118 109c35-47 55-106 55-171 0-156-118-279-274-279-155 0-273 123-273 279"/><path id="bB" fill="#333" d="M311-710c148 0 244 98 244 226s-96 225-244 225H187V0H94v-710zm0 365c98 0 152-60 152-139s-54-139-152-139H187v278h124"/><path id="bC" fill="#333" d="M42-250c0-143 105-260 245-260 75 0 143 39 176 87v-77h86V0h-86v-77c-33 48-101 87-176 87C147 10 42-107 42-250Zm428 0c0-101-69-181-170-181s-171 80-171 181S199-69 300-69s170-80 170-181"/><path id="bD" fill="#333" d="M426-135c0 99-80 145-184 145C135 10 46-44 39-145h88c12 61 64 82 116 82 54 0 96-22 96-66 0-65-95-84-155-99-86-22-129-76-129-147 0-83 72-135 173-135 107 0 173 63 182 143h-86c-13-44-49-71-96-71-48 0-86 24-86 62 0 64 100 78 156 93 83 22 128 73 128 148"/><path id="bE" fill="#333" d="M75 0v-710h159V0H75"/><path id="bF" fill="#333" d="M264 11C133 11 32-108 32-250s101-261 232-261c67 0 116 34 136 61v-50h151V0H400v-50c-20 27-69 61-136 61zm34-137c68 0 114-52 114-124s-46-124-114-124-114 52-114 124 46 124 114 124"/><path id="bG" fill="#3a414a" d="m6 0 314-710h77L712 0h-97l-91-207H193L102 0Zm223-291h258L358-584"/><path id="bH" fill="#333" d="M81 0v-750h86V0H81"/><path id="bI" fill="#333" d="M81 209v-709h86v77c33-48 101-87 176-87 139 0 245 117 245 260S482 10 343 10c-75 0-143-39-176-87v286zm419-459c0-101-69-181-170-181s-170 80-170 181S229-69 330-69s170-80 170-181"/><path id="bJ" fill="#333" d="M528-152C503-64 421 10 294 10 148 10 42-101 42-250c0-146 98-260 254-260 157 0 252 128 240 283H129c3 91 76 159 166 159 62 0 115-24 145-84zm-83-143c-27-186-281-187-312 0h312"/><path id="bK" fill="#333" d="M123 0v-421H17v-79h106v-101c-3-134 117-180 231-142v76c-67-21-145-16-145 75v92h145v79H209V0h-86"/><path id="bL" fill="#333" d="M81 0v-500h86v77c29-53 84-87 151-87 75 0 129 41 154 107 27-66 90-107 164-107 109 0 175 81 175 203V0h-86v-294c0-81-34-137-99-137-81 0-137 70-137 183V0h-86v-294c0-81-33-137-98-137-81 0-138 70-138 183V0H81"/><path id="bM" fill="#333" d="M505 0 382-360 258 0h-76L12-500h90l121 365 125-365h66l125 365 121-365h91L581 0h-76"/><path id="bN" fill="#333" d="M81 0v-750h86v327c34-59 94-87 159-87 112 0 189 78 189 202V0h-85v-295c0-84-48-136-118-136-81 0-145 66-145 183V0H81"/><path id="bO" fill="#333" d="M463 209V-77c-33 48-101 87-176 87C147 10 42-107 42-250s105-260 245-260c75 0 143 39 176 87v-77h86v709zm7-459c0-101-69-181-170-181s-171 80-171 181S199-69 300-69s170-80 170-181"/><path id="bP" fill="#333" d="M167-77V0H81v-750h86v327c33-48 101-87 176-87 139 0 245 117 245 260S482 10 343 10c-75 0-143-39-176-87zm333-173c0-101-69-181-170-181s-170 80-170 181S229-69 330-69s170-80 170-181"/><path id="bQ" fill="#333" d="M185-695c0 34-26 61-60 61s-62-27-62-61c0-33 28-61 62-61s60 28 60 61zM81 0v-500h86V0H81"/><path id="bR" fill="#3a414a" d="m6 0 205-253L23-500h104l138 180 137-180h105L319-253 523 0H417L265-189 113 0H6"/><g id="a"><use xlink:href="#Z" transform="scale(.02444)"/><use xlink:href="#aa" transform="translate(20.4) scale(.02444)"/><use xlink:href="#ab" transform="translate(34.9) scale(.02444)"/><use xlink:href="#ac" transform="translate(49.4) scale(.02444)"/><use xlink:href="#ad" transform="translate(59.3) scale(.02444)"/></g><g id="b"><use xlink:href="#ae" transform="scale(.02444)"/><use xlink:href="#af" transform="translate(14.3) scale(.02444)"/><use xlink:href="#ag" transform="translate(21) scale(.02444)"/><use xlink:href="#ah" transform="translate(36) scale(.02444)"/><use xlink:href="#ah" transform="translate(50.7) scale(.02444)"/><use xlink:href="#ab" transform="translate(65.4) scale(.02444)"/><use xlink:href="#ac" transform="translate(80) scale(.02444)"/></g><g id="c"><use xlink:href="#ai" transform="scale(.02)"/><use xlink:href="#aj" transform="translate(10.6) scale(.02)"/><use xlink:href="#ak" transform="translate(15.6) scale(.02)"/><use xlink:href="#al" transform="translate(27.4) scale(.02)"/></g><g id="d"><use xlink:href="#am" transform="scale(.02)"/><use xlink:href="#an" transform="translate(15.8) scale(.02)"/><use xlink:href="#ao" transform="translate(28.4) scale(.02)"/><use xlink:href="#ap" transform="translate(40.1) scale(.02)"/><use xlink:href="#aq" transform="translate(51.9) scale(.02)"/></g><g id="e"><use xlink:href="#ar" transform="scale(.02)"/><use xlink:href="#ak" transform="translate(11) scale(.02)"/><use xlink:href="#as" transform="translate(22.6) scale(.02)"/><use xlink:href="#at" transform="translate(30.2) scale(.02)"/><use xlink:href="#au" transform="translate(37.5) scale(.02)"/></g><g id="f"><use xlink:href="#av" transform="scale(.02)"/><use xlink:href="#aq" transform="translate(16.3) scale(.02)"/><use xlink:href="#ak" transform="translate(27.9) scale(.02)"/><use xlink:href="#aq" transform="translate(39.7) scale(.02)"/><use xlink:href="#at" transform="translate(51.3) scale(.02)"/><use xlink:href="#an" transform="translate(58.2) scale(.02)"/><use xlink:href="#as" transform="translate(70.8) scale(.02)"/><use xlink:href="#aq" transform="translate(78.3) scale(.02)"/></g><g id="g"><use xlink:href="#an" transform="scale(.02)"/><use xlink:href="#ak" transform="translate(12.6) scale(.02)"/><use xlink:href="#al" transform="translate(24.4) scale(.02)"/></g><g id="h"><use xlink:href="#ar" transform="scale(.02)"/><use xlink:href="#aw" transform="translate(10.7) scale(.02)"/><use xlink:href="#an" transform="translate(21.4) scale(.02)"/><use xlink:href="#ax" transform="translate(34) scale(.02)"/><use xlink:href="#ay" transform="translate(39) scale(.02)"/><use xlink:href="#an" transform="translate(50.6) scale(.02)"/><use xlink:href="#as" transform="translate(63.2) scale(.02)"/><use xlink:href="#aq" transform="translate(70.6) scale(.02)"/></g><g id="i"><use xlink:href="#am" transform="scale(.02)"/><use xlink:href="#an" transform="translate(15.8) scale(.02)"/><use xlink:href="#ak" transform="translate(28.4) scale(.02)"/><use xlink:href="#al" transform="translate(40.1) scale(.02)"/><use xlink:href="#aj" transform="translate(52.7) scale(.02)"/><use xlink:href="#al" transform="translate(57.7) scale(.02)"/><use xlink:href="#an" transform="translate(70.3) scale(.02)"/><use xlink:href="#as" transform="translate(83) scale(.02)"/><use xlink:href="#aq" transform="translate(90.4) scale(.02)"/></g><g id="j"><use xlink:href="#az" transform="scale(.02)"/><use xlink:href="#ax" transform="translate(11.7) scale(.02)"/><use xlink:href="#an" transform="translate(16.7) scale(.02)"/><use xlink:href="#ak" transform="translate(29.3) scale(.02)"/><use xlink:href="#aA" transform="translate(41) scale(.02)"/></g><g id="k"><use xlink:href="#ar" transform="scale(.02)"/><use xlink:href="#aw" transform="translate(10.7) scale(.02)"/><use xlink:href="#an" transform="translate(21.4) scale(.02)"/><use xlink:href="#ax" transform="translate(34) scale(.02)"/><use xlink:href="#ay" transform="translate(39) scale(.02)"/><use xlink:href="#an" transform="translate(50.6) scale(.02)"/><use xlink:href="#as" transform="translate(63.2) scale(.02)"/><use xlink:href="#aq" transform="translate(70.6) scale(.02)"/></g><g id="l"><use xlink:href="#az" transform="scale(.02)"/><use xlink:href="#aq" transform="translate(11.4) scale(.02)"/><use xlink:href="#at" transform="translate(23) scale(.02)"/><use xlink:href="#aB" transform="translate(30.3) scale(.02)"/><use xlink:href="#aC" transform="translate(37.4) scale(.02)"/><use xlink:href="#at" transform="translate(49.5) scale(.02)"/><use xlink:href="#aD" transform="translate(56.8) scale(.02)"/><use xlink:href="#an" transform="translate(74.5) scale(.02)"/><use xlink:href="#ak" transform="translate(87.1) scale(.02)"/><use xlink:href="#ao" transform="translate(98.9) scale(.02)"/><use xlink:href="#aq" transform="translate(110.7) scale(.02)"/></g><g id="m"><use xlink:href="#am" transform="scale(.02)"/><use xlink:href="#ap" transform="translate(15.8) scale(.02)"/><use xlink:href="#aC" transform="translate(27.5) scale(.02)"/><use xlink:href="#aC" transform="translate(39.7) scale(.02)"/><use xlink:href="#aA" transform="translate(51.8) scale(.02)"/><use xlink:href="#aq" transform="translate(61.1) scale(.02)"/></g><g id="n"><use xlink:href="#aE" transform="scale(.02)"/><use xlink:href="#aj" transform="translate(19) scale(.02)"/><use xlink:href="#ak" transform="translate(24) scale(.02)"/><use xlink:href="#ak" transform="translate(35.7) scale(.02)"/><use xlink:href="#aj" transform="translate(47.5) scale(.02)"/><use xlink:href="#ak" transform="translate(52.5) scale(.02)"/><use xlink:href="#aF" transform="translate(64.2) scale(.02)"/></g><g id="o"><use xlink:href="#az" transform="scale(.02)"/><use xlink:href="#ax" transform="translate(11.7) scale(.02)"/><use xlink:href="#an" transform="translate(16.7) scale(.02)"/><use xlink:href="#ak" transform="translate(29.3) scale(.02)"/></g><g id="p"><use xlink:href="#aG" transform="scale(.02)"/><use xlink:href="#aH" transform="translate(15.8) scale(.02)"/><use xlink:href="#aI" transform="translate(27.9) scale(.02)"/><use xlink:href="#aJ" transform="translate(45.6) scale(.02)"/><use xlink:href="#aK" transform="translate(58.2) scale(.02)"/><use xlink:href="#aL" transform="translate(70.8) scale(.02)"/><use xlink:href="#aM" transform="translate(77.8) scale(.02)"/></g><g id="q"><use xlink:href="#aN" transform="scale(.02)"/><use xlink:href="#aO" transform="translate(12) scale(.02)"/><use xlink:href="#aP" transform="translate(24) scale(.02)"/><use xlink:href="#aQ" transform="translate(36) scale(.02)"/><use xlink:href="#aR" transform="translate(48) scale(.02)"/></g><g id="r"><use xlink:href="#aS" transform="scale(.02)"/><use xlink:href="#aK" transform="translate(12.8) scale(.02)"/><use xlink:href="#aT" transform="translate(25.4) scale(.02)"/><use xlink:href="#aU" transform="translate(30.4) scale(.02)"/><use xlink:href="#aM" transform="translate(42) scale(.02)"/><use xlink:href="#aV" transform="translate(53.6) scale(.02)"/></g><g id="s"><use xlink:href="#aW" transform="scale(.01778)"/><use xlink:href="#aX" transform="translate(14) scale(.01778)"/></g><g id="t"><use xlink:href="#aY" transform="scale(.01778)"/><use xlink:href="#aZ" transform="translate(9.7) scale(.01778)"/><use xlink:href="#ba" transform="translate(20) scale(.01778)"/><use xlink:href="#bb" transform="translate(26.8) scale(.01778)"/><use xlink:href="#bc" transform="translate(33.4) scale(.01778)"/></g><g id="u"><use xlink:href="#bd" transform="scale(.01778)"/><use xlink:href="#aX" transform="translate(8.8) scale(.01778)"/><use xlink:href="#be" transform="translate(19.5) scale(.01778)"/><use xlink:href="#aZ" transform="translate(29.8) scale(.01778)"/><use xlink:href="#bf" transform="translate(40.3) scale(.01778)"/></g><g id="v"><use xlink:href="#bg" transform="scale(.01778)"/><use xlink:href="#bh" transform="translate(4.9) scale(.01778)"/><use xlink:href="#bi" transform="translate(20.4) scale(.01778)"/><use xlink:href="#bj" transform="translate(25.3) scale(.01778)"/><use xlink:href="#bj" transform="translate(34.4) scale(.01778)"/><use xlink:href="#bi" transform="translate(43.5) scale(.01778)"/><use xlink:href="#bk" transform="translate(48.4) scale(.01778)"/><use xlink:href="#bl" transform="translate(59) scale(.01778)"/><use xlink:href="#bm" transform="translate(70) scale(.01778)"/></g><g id="w"><use xlink:href="#bn" transform="scale(.01778)"/><use xlink:href="#bo" transform="translate(13) scale(.01778)"/><use xlink:href="#bp" transform="translate(23.2) scale(.01778)"/><use xlink:href="#bi" transform="translate(31) scale(.01778)"/><use xlink:href="#bq" transform="translate(35.9) scale(.01778)"/><use xlink:href="#br" transform="translate(45.8) scale(.01778)"/></g><g id="x"><use xlink:href="#bd" transform="scale(.01778)"/><use xlink:href="#aX" transform="translate(8.8) scale(.01778)"/><use xlink:href="#be" transform="translate(19.5) scale(.01778)"/><use xlink:href="#aZ" transform="translate(29.8) scale(.01778)"/><use xlink:href="#bf" transform="translate(40.3) scale(.01778)"/></g><g id="y"><use xlink:href="#ar" transform="scale(.02)"/><use xlink:href="#ak" transform="translate(11) scale(.02)"/><use xlink:href="#as" transform="translate(22.6) scale(.02)"/><use xlink:href="#at" transform="translate(30.2) scale(.02)"/><use xlink:href="#au" transform="translate(37.5) scale(.02)"/></g><g id="z"><use xlink:href="#bs" transform="scale(.02)"/><use xlink:href="#aq" transform="translate(12.4) scale(.02)"/><use xlink:href="#aD" transform="translate(24) scale(.02)"/><use xlink:href="#an" transform="translate(41.7) scale(.02)"/><use xlink:href="#aj" transform="translate(54.3) scale(.02)"/><use xlink:href="#ak" transform="translate(59.3) scale(.02)"/><use xlink:href="#aA" transform="translate(71) scale(.02)"/></g><g id="A"><use xlink:href="#bt" transform="scale(.02)"/><use xlink:href="#ah" transform="translate(6) scale(.02)"/><use xlink:href="#ag" transform="translate(18) scale(.02)"/><use xlink:href="#bu" transform="translate(30.2) scale(.02)"/><use xlink:href="#bv" transform="translate(41.6) scale(.02)"/><use xlink:href="#bw" transform="translate(50.4) scale(.02)"/><use xlink:href="#bx" transform="translate(56) scale(.02)"/><use xlink:href="#ab" transform="translate(67.1) scale(.02)"/></g><g id="B"><use xlink:href="#az" transform="scale(.02)"/><use xlink:href="#ax" transform="translate(11.7) scale(.02)"/><use xlink:href="#an" transform="translate(16.7) scale(.02)"/><use xlink:href="#ak" transform="translate(29.3) scale(.02)"/></g><g id="C"><use xlink:href="#by" transform="scale(.02)"/><use xlink:href="#aq" transform="translate(12.6) scale(.02)"/><use xlink:href="#ao" transform="translate(24.2) scale(.02)"/><use xlink:href="#aC" transform="translate(36) scale(.02)"/><use xlink:href="#aD" transform="translate(48) scale(.02)"/><use xlink:href="#aq" transform="translate(65.7) scale(.02)"/><use xlink:href="#aA" transform="translate(77.3) scale(.02)"/></g><g id="D"><use xlink:href="#bz" transform="scale(.02)"/><use xlink:href="#bu" transform="translate(14.7) scale(.02)"/><use xlink:href="#bv" transform="translate(26) scale(.02)"/><use xlink:href="#bw" transform="translate(34.9) scale(.02)"/><use xlink:href="#bx" transform="translate(40.4) scale(.02)"/><use xlink:href="#ab" transform="translate(51.5) scale(.02)"/></g><g id="E"><use xlink:href="#bA" transform="scale(.02222)"/><use xlink:href="#ay" transform="translate(18.6) scale(.02222)"/><use xlink:href="#aq" transform="translate(31.5) scale(.02222)"/><use xlink:href="#at" transform="translate(44.4) scale(.02222)"/><use xlink:href="#au" transform="translate(52.5) scale(.02222)"/></g><g id="F"><use xlink:href="#bB" transform="scale(.01778)"/><use xlink:href="#bC" transform="translate(10.2) scale(.01778)"/><use xlink:href="#bD" transform="translate(21.4) scale(.01778)"/><use xlink:href="#bD" transform="translate(29.7) scale(.01778)"/></g><g id="G"><use xlink:href="#bE" transform="scale(.01778)"/><use xlink:href="#bk" transform="translate(5.3) scale(.01778)"/><use xlink:href="#bF" transform="translate(16) scale(.01778)"/><use xlink:href="#bo" transform="translate(26.9) scale(.01778)"/><use xlink:href="#bp" transform="translate(37) scale(.01778)"/><use xlink:href="#bi" transform="translate(44.8) scale(.01778)"/><use xlink:href="#bq" transform="translate(49.7) scale(.01778)"/><use xlink:href="#br" transform="translate(59.6) scale(.01778)"/></g><g id="H"><use xlink:href="#bG" transform="scale(.02)"/><use xlink:href="#al" transform="translate(14.2) scale(.02)"/><use xlink:href="#al" transform="translate(26.8) scale(.02)"/></g><g id="I"><use xlink:href="#az" transform="scale(.02)"/><use xlink:href="#ax" transform="translate(11.7) scale(.02)"/><use xlink:href="#an" transform="translate(16.7) scale(.02)"/><use xlink:href="#ak" transform="translate(29.3) scale(.02)"/></g><g id="J"><use xlink:href="#as" transform="scale(.02)"/><use xlink:href="#aC" transform="translate(7.5) scale(.02)"/></g><g id="K"><use xlink:href="#am" transform="scale(.02)"/><use xlink:href="#an" transform="translate(15.8) scale(.02)"/><use xlink:href="#ao" transform="translate(28.4) scale(.02)"/><use xlink:href="#ap" transform="translate(40.1) scale(.02)"/><use xlink:href="#aq" transform="translate(51.9) scale(.02)"/></g><g id="L"><use xlink:href="#an" transform="scale(.02)"/><use xlink:href="#aA" transform="translate(12.6) scale(.02)"/></g><g id="M"><use xlink:href="#bt" transform="scale(.02)"/><use xlink:href="#ah" transform="translate(6) scale(.02)"/><use xlink:href="#ag" transform="translate(18) scale(.02)"/><use xlink:href="#bu" transform="translate(30.2) scale(.02)"/><use xlink:href="#bv" transform="translate(41.6) scale(.02)"/><use xlink:href="#bw" transform="translate(50.4) scale(.02)"/><use xlink:href="#bx" transform="translate(56) scale(.02)"/><use xlink:href="#ab" transform="translate(67.1) scale(.02)"/></g><g id="N"><use xlink:href="#bB" transform="scale(.01778)"/><use xlink:href="#bH" transform="translate(10.4) scale(.01778)"/><use xlink:href="#bC" transform="translate(14.8) scale(.01778)"/><use xlink:href="#aZ" transform="translate(26) scale(.01778)"/></g><g id="O"><use xlink:href="#bI" transform="scale(.01778)"/><use xlink:href="#bJ" transform="translate(11.2) scale(.01778)"/><use xlink:href="#bb" transform="translate(21.5) scale(.01778)"/><use xlink:href="#bK" transform="translate(28) scale(.01778)"/><use xlink:href="#aX" transform="translate(34.3) scale(.01778)"/><use xlink:href="#bb" transform="translate(45) scale(.01778)"/><use xlink:href="#bL" transform="translate(51.6) scale(.01778)"/><use xlink:href="#bD" transform="translate(67.3) scale(.01778)"/></g><g id="P"><use xlink:href="#bM" transform="scale(.01778)"/><use xlink:href="#aX" transform="translate(13.5) scale(.01778)"/><use xlink:href="#bb" transform="translate(24.3) scale(.01778)"/><use xlink:href="#bD" transform="translate(30.6) scale(.01778)"/><use xlink:href="#bJ" transform="translate(39) scale(.01778)"/></g><g id="Q"><use xlink:href="#ba" transform="scale(.01778)"/><use xlink:href="#bN" transform="translate(6.8) scale(.01778)"/><use xlink:href="#bC" transform="translate(17.2) scale(.01778)"/><use xlink:href="#aZ" transform="translate(28.4) scale(.01778)"/></g><g id="R"><use xlink:href="#bJ" transform="scale(.01778)"/><use xlink:href="#aZ" transform="translate(10.3) scale(.01778)"/><use xlink:href="#ba" transform="translate(20.7) scale(.01778)"/><use xlink:href="#bb" transform="translate(27.4) scale(.01778)"/><use xlink:href="#bc" transform="translate(34) scale(.01778)"/></g><g id="S"><use xlink:href="#bI" transform="scale(.01778)"/><use xlink:href="#bJ" transform="translate(11.2) scale(.01778)"/><use xlink:href="#bb" transform="translate(21.5) scale(.01778)"/><use xlink:href="#bK" transform="translate(28) scale(.01778)"/><use xlink:href="#aX" transform="translate(34.3) scale(.01778)"/><use xlink:href="#bb" transform="translate(45) scale(.01778)"/><use xlink:href="#bL" transform="translate(51.6) scale(.01778)"/><use xlink:href="#bD" transform="translate(67.3) scale(.01778)"/></g><g id="T"><use xlink:href="#bJ" transform="scale(.01778)"/><use xlink:href="#bO" transform="translate(10.3) scale(.01778)"/><use xlink:href="#be" transform="translate(21.5) scale(.01778)"/><use xlink:href="#bC" transform="translate(31.8) scale(.01778)"/><use xlink:href="#bH" transform="translate(43) scale(.01778)"/></g><g id="U"><use xlink:href="#aX" transform="scale(.01778)"/><use xlink:href="#bb" transform="translate(10.8) scale(.01778)"/></g><g id="V"><use xlink:href="#bP" transform="scale(.01778)"/><use xlink:href="#bJ" transform="translate(11.2) scale(.01778)"/><use xlink:href="#ba" transform="translate(21.4) scale(.01778)"/><use xlink:href="#ba" transform="translate(28.1) scale(.01778)"/><use xlink:href="#bJ" transform="translate(34.8) scale(.01778)"/><use xlink:href="#bb" transform="translate(45) scale(.01778)"/></g><g id="W"><use xlink:href="#bd" transform="scale(.01778)"/><use xlink:href="#bC" transform="translate(8.8) scale(.01778)"/><use xlink:href="#bQ" transform="translate(20) scale(.01778)"/><use xlink:href="#bH" transform="translate(24.4) scale(.01778)"/></g><g id="X"><use xlink:href="#ar" transform="scale(.02222)"/><use xlink:href="#bR" transform="translate(12.4) scale(.02222)"/><use xlink:href="#aq" transform="translate(23.7) scale(.02222)"/><use xlink:href="#ao" transform="translate(36.6) scale(.02222)"/><use xlink:href="#ay" transform="translate(49.7) scale(.02222)"/><use xlink:href="#as" transform="translate(62.5) scale(.02222)"/><use xlink:href="#aq" transform="translate(70.8) scale(.02222)"/></g><g id="Y"><use xlink:href="#az" transform="scale(.02222)"/><use xlink:href="#ax" transform="translate(13) scale(.02222)"/><use xlink:href="#an" transform="translate(18.5) scale(.02222)"/><use xlink:href="#ak" transform="translate(32.5) scale(.02222)"/></g></defs></g></svg>