<svg xmlns="http://www.w3.org/2000/svg" height="400" width="582"><path d="M-1-1h584v402H-1z" fill="#fff"/><path d="M8.5 45h565v326H8.5z" fill="#fff" stroke="#000"/><path stroke-opacity="null" d="M30.3 169.7h116v147.2l-58 36.8-58-36.8V169.7z" fill="#efefef" stroke="#000" stroke-width="2"/><path d="M51.5 200h68v19h-68z" fill="#00bf00" stroke="#000" stroke-width="1.5"/><path d="M64.3 206.7h1v1l.7-.8q.5-.3 1.2-.3t1.2.4l.5.6q.3-.5.8-.8l1-.2q1.3 0 1.8.9.2.5.2 1.3v4.2h-1v-4.4q0-.6-.4-.8-.3-.3-.8-.3-.6 0-1 .5-.5.4-.5 1.3v3.7h-1v-4.1q0-.6-.2-1t-.9-.4q-.6 0-1 .5-.6.5-.6 1.7v3.3h-1v-6.3zm12.4 5.6q1.1 0 1.5-.8.4-.8.4-1.7 0-1-.3-1.5-.5-.8-1.5-.8t-1.4.7q-.5.7-.5 1.8 0 1 .5 1.7.4.6 1.3.6zm0-5.8q1.3 0 2.1.9.9.8.9 2.3 0 1.5-.8 2.5-.7 1-2.3 1-1.2 0-2-.8-.8-1-.8-2.4 0-1.6.8-2.5.8-1 2.2-1zm0 0zm4.3.2h1v1q.4-.6.9-.9l1-.2q1.4 0 1.9 1 .3.4.3 1.4v4H85v-4q0-.5-.2-.9-.3-.6-1-.6l-.6.1q-.5.1-.8.5l-.3.7-.1 1v3.2h-1v-6.3zm2.4-.1zm6.4 0q.8 0 1.3.4l.6.6v-.8h1v5.7q0 1.2-.3 1.9-.7 1.3-2.5 1.3-1 0-1.7-.5t-.8-1.4h1q.1.4.4.6.3.4 1.1.4 1.2 0 1.6-.9.2-.5.2-1.8-.3.5-.8.7-.4.3-1.2.3-1 0-1.7-.7-.8-.8-.8-2.4 0-1.6.8-2.5.7-.9 1.8-.9zm2 3.2q0-1.1-.5-1.7-.5-.6-1.3-.6-1 0-1.5 1-.2.6-.2 1.5 0 1.1.4 1.7.4.5 1.2.5 1.1 0 1.6-1 .2-.6.2-1.4zm-1.8-3.2zm6.8 5.7q1 0 1.4-.8.4-.8.4-1.7 0-1-.3-1.5-.4-.8-1.5-.8-1 0-1.4.7-.4.7-.4 1.8 0 1 .4 1.7.4.6 1.4.6zm0-5.8q1.2 0 2 .9 1 .8 1 2.3 0 1.5-.8 2.5t-2.3 1q-1.3 0-2-.8-.8-1-.8-2.4 0-1.6.8-2.5.8-1 2.1-1zm0 0zm4.8 3.5q0 1 .5 1.6.4.7 1.3.7.8 0 1.2-.6.5-.7.5-1.8 0-1.2-.5-1.8-.5-.6-1.2-.6-.8 0-1.3.6-.5.7-.5 1.8zm1.6-3.4q.8 0 1.2.3l.7.6v-3.1h1v8.6h-1v-.9q-.3.6-.8.9-.5.2-1.2.2-1 0-1.8-.9-.8-.8-.8-2.3 0-1.4.7-2.4t2-1z" font-size="12" font-family="Helvetica,Arial,sans-serif" fill="#fff"/><path d="M64.5 224h68v19h-68z" fill="#00bf00" stroke="#000" stroke-width="1.5"/><path d="M77.3 230.7h1v1l.7-.8q.5-.3 1.2-.3t1.2.4l.5.6q.3-.5.8-.8l1-.2q1.3 0 1.8.9.2.5.2 1.3v4.2h-1v-4.4q0-.6-.4-.8-.3-.3-.8-.3-.6 0-1 .5-.5.4-.5 1.3v3.7h-1v-4.1q0-.6-.2-1t-.9-.4q-.6 0-1 .5-.6.5-.6 1.7v3.3h-1v-6.3zm12.4 5.6q1.1 0 1.5-.8.4-.8.4-1.7 0-1-.3-1.5-.5-.8-1.5-.8t-1.4.7q-.5.7-.5 1.8 0 1 .5 1.7.4.6 1.3.6zm0-5.8q1.3 0 2.1.9.9.8.9 2.3 0 1.5-.8 2.5-.7 1-2.3 1-1.2 0-2-.8-.8-1-.8-2.4 0-1.6.8-2.5.8-1 2.2-1zm0 0zm4.3.2h1v1q.4-.6.9-.9l1-.2q1.4 0 1.9 1 .3.4.3 1.4v4H98v-4q0-.5-.2-.9-.3-.6-1-.6l-.6.1q-.5.1-.8.5l-.3.7-.1 1v3.2h-1v-6.3zm2.4-.1zm6.4 0q.8 0 1.3.4l.6.6v-.8h1v5.7q0 1.2-.3 1.9-.7 1.3-2.5 1.3-1 0-1.7-.5t-.8-1.4h1q.1.4.4.6.3.4 1.1.4 1.2 0 1.6-.9.2-.5.2-1.8-.3.5-.8.7-.4.3-1.1.3-1 0-1.8-.7-.8-.8-.8-2.4 0-1.6.8-2.5.7-.9 1.8-.9zm2 3.2q0-1.1-.6-1.7-.4-.6-1.2-.6-1 0-1.5 1-.2.6-.2 1.5 0 1.1.4 1.7.4.5 1.2.5 1.1 0 1.6-1 .2-.6.2-1.4zm-1.8-3.2zm6.8 5.7q1 0 1.4-.8.4-.8.4-1.7 0-1-.3-1.5-.4-.8-1.5-.8-1 0-1.4.7-.4.7-.4 1.8 0 1 .4 1.7.4.6 1.4.6zm0-5.8q1.2 0 2 .9 1 .8 1 2.3 0 1.5-.8 2.5t-2.3 1q-1.3 0-2-.8-.8-1-.8-2.4 0-1.6.8-2.5.8-1 2.1-1zm0 0zm4.8 3.5q0 1 .5 1.6.4.7 1.3.7.8 0 1.2-.6.5-.7.5-1.8 0-1.2-.5-1.8-.5-.6-1.2-.6-.8 0-1.3.6-.5.7-.5 1.8zm1.6-3.4q.8 0 1.2.3l.7.6v-3.1h1v8.6h-1v-.9q-.3.6-.8.9-.5.2-1.2.2-1 0-1.8-.9-.8-.8-.8-2.3 0-1.4.7-2.4t2-1z" font-size="12" font-family="Helvetica,Arial,sans-serif" fill="#fff"/><path d="M51.5 248h68v19h-68z" fill="#00bf00" stroke="#000" stroke-width="1.5"/><path d="M64.3 255.7h1v1l.7-.8q.5-.3 1.2-.3t1.2.4l.5.6q.3-.5.8-.8l1-.2q1.3 0 1.8.9.2.5.2 1.3v4.2h-1v-4.4q0-.6-.4-.8-.3-.3-.8-.3-.6 0-1 .5-.5.4-.5 1.3v3.7h-1v-4.1q0-.6-.2-1t-.9-.4q-.6 0-1 .5-.6.5-.6 1.7v3.3h-1v-6.3zm12.4 5.6q1.1 0 1.5-.8.4-.8.4-1.7 0-1-.3-1.5-.5-.8-1.5-.8t-1.4.7q-.5.7-.5 1.8 0 1 .5 1.7.4.6 1.3.6zm0-5.8q1.3 0 2.1.9.9.8.9 2.3 0 1.5-.8 2.5-.7 1-2.3 1-1.2 0-2-.8-.8-1-.8-2.4 0-1.6.8-2.5.8-1 2.2-1zm0 0zm4.3.2h1v1q.4-.6.9-.9l1-.2q1.4 0 1.9 1 .3.4.3 1.4v4H85v-4q0-.5-.2-.9-.3-.6-1-.6l-.6.1q-.5.1-.8.5l-.3.7-.1 1v3.2h-1v-6.3zm2.4-.1zm6.4 0q.8 0 1.3.4l.6.6v-.8h1v5.7q0 1.2-.3 1.9-.7 1.3-2.5 1.3-1 0-1.7-.5t-.8-1.4h1q.1.4.4.6.3.4 1.1.4 1.2 0 1.6-.9.2-.5.2-1.8-.3.5-.8.7-.4.3-1.2.3-1 0-1.7-.7-.8-.8-.8-2.4 0-1.6.8-2.5.7-.9 1.8-.9zm2 3.2q0-1.1-.5-1.7-.5-.6-1.3-.6-1 0-1.5 1-.2.6-.2 1.5 0 1.1.4 1.7.4.5 1.2.5 1.1 0 1.6-1 .2-.6.2-1.4zm-1.8-3.2zm6.8 5.7q1 0 1.4-.8.4-.8.4-1.7 0-1-.3-1.5-.4-.8-1.5-.8-1 0-1.4.7-.4.7-.4 1.8 0 1 .4 1.7.4.6 1.4.6zm0-5.8q1.2 0 2 .9 1 .8 1 2.3 0 1.5-.8 2.5t-2.3 1q-1.3 0-2-.8-.8-1-.8-2.4 0-1.6.8-2.5.8-1 2.1-1zm0 0zm4.8 3.5q0 1 .5 1.6.4.7 1.3.7.8 0 1.2-.6.5-.7.5-1.8 0-1.2-.5-1.8-.5-.6-1.2-.6-.8 0-1.3.6-.5.7-.5 1.8zm1.6-3.4q.8 0 1.2.3l.7.6v-3.1h1v8.6h-1v-.9q-.3.6-.8.9-.5.2-1.2.2-1 0-1.8-.9-.8-.8-.8-2.3 0-1.4.7-2.4t2-1z" font-size="12" font-family="Helvetica,Arial,sans-serif" fill="#fff"/><path d="M67.5 187.8q0 .8.4 1.3.6 1 2.3 1 .8 0 1.4-.2 1.3-.4 1.3-1.5 0-.8-.6-1.2-.5-.3-1.6-.6l-1.3-.3q-1.4-.3-2-.6-.9-.7-.9-2t1-2.1q.9-.9 2.6-.9 1.6 0 2.7.8 1 .7 1 2.4h-1.2q0-.8-.4-1.2-.7-.8-2.1-.8-1.2 0-1.8.5-.5.5-.5 1.2t.6 1q.4.3 1.8.6l1.5.3q1 .2 1.5.6 1 .8 1 2 0 1.8-1.2 2.5t-2.9.7q-1.8 0-2.9-1-1-1-1-2.5h1.3zm2.7-7.1zm5.5.3H77v3.7l.7-.8q.6-.4 1.5-.4 1.6 0 2.2 1.1.3.6.3 1.7v4.7h-1.3v-4.6q0-.8-.2-1.2-.3-.6-1.2-.6-.8 0-1.4.5-.6.6-.6 2v3.9h-1.3v-10zm8.8 8q0 .6.4.9.3.3.9.3.6 0 1.2-.3 1-.5 1-1.6v-1l-.5.2-.7.2H86l-1 .3q-.5.3-.5 1zm3-2.4q.4 0 .5-.4v-.5q0-.6-.4-.9-.4-.3-1.2-.3-1 0-1.4.6-.2.2-.3.8h-1.1q0-1.3.8-1.9.9-.5 2-.5 1.3 0 2 .5.9.5.9 1.5v4.5q.1.2.4.2h.4v.8l-.4.1h-.4q-.7 0-1-.4l-.2-.7q-.4.5-1 .9-.8.3-1.6.3-1 0-1.7-.6-.6-.6-.6-1.5 0-1 .6-1.6.6-.6 1.7-.7l2-.2zm-1-3.1zm4.8.2h1.2v1.2l.7-.9q.6-.5 1.3-.5h.4v1.3h-.4q-1 0-1.4.6-.5.6-.5 1.4v4.2h-1.3v-7.3zm5.5 3.7q0 1.2.5 2t1.6.8q.8 0 1.4-.7.5-.8.5-2.2 0-1.3-.5-2-.6-.7-1.4-.7-1 0-1.6.7-.5.7-.5 2.1zm1.8-3.9q.9 0 1.4.4.4.2.8.7V181h1.2v10h-1.2v-1q-.4.7-1 1-.6.3-1.3.3-1.2 0-2.1-1-1-1.1-1-2.8 0-1.6.9-2.8.8-1.2 2.3-1.2zm9.5.5v-.9q1.3-.1 1.9-.4.5-.3.7-1.4h1v9.7h-1.3v-7h-2.3z" font-size="14" font-family="Helvetica,Arial,sans-serif"/><path stroke-opacity="null" d="M163.3 168.7h116v147.2l-58 36.8-58-36.8V168.7z" fill="#efefef" stroke="#000" stroke-width="2"/><path d="M181.5 198h68v19h-68z" fill="#00bf00" stroke="#000" stroke-width="1.5"/><path d="M194.3 204.7h1v1l.7-.8q.5-.3 1.2-.3t1.2.4l.5.6q.3-.5.8-.8l1-.2q1.3 0 1.8.9.2.5.2 1.3v4.2h-1v-4.4q0-.6-.4-.8-.3-.3-.8-.3-.6 0-1 .5-.5.4-.5 1.3v3.7h-1v-4.1q0-.6-.2-1t-.9-.4q-.6 0-1 .5-.6.5-.6 1.7v3.3h-1v-6.3zm12.4 5.6q1.1 0 1.5-.8.4-.8.4-1.7 0-1-.3-1.5-.5-.8-1.5-.8t-1.4.7q-.5.7-.5 1.8 0 1 .5 1.7.4.6 1.3.6zm0-5.8q1.3 0 2.1.9.9.8.9 2.3 0 1.5-.8 2.5-.7 1-2.3 1-1.2 0-2-.8-.8-1-.8-2.4 0-1.6.8-2.5.8-1 2.2-1zm0 0zm4.3.2h1v1q.4-.6.9-.9l1-.2q1.4 0 1.9 1 .3.4.3 1.4v4H215v-4q0-.5-.2-.9-.3-.6-1-.6l-.6.1q-.5.1-.8.5l-.3.7-.1 1v3.2h-1v-6.3zm2.4-.1zm6.4 0q.8 0 1.3.4l.6.6v-.8h1v5.7q0 1.2-.3 1.9-.7 1.3-2.5 1.3-1 0-1.7-.5t-.8-1.4h1q.1.4.4.6.3.4 1.1.4 1.2 0 1.6-.9.2-.5.2-1.8-.3.5-.8.7-.4.3-1.2.3-1 0-1.7-.7-.8-.8-.8-2.4 0-1.6.8-2.5.7-.9 1.8-.9zm2 3.2q0-1.1-.6-1.7-.4-.6-1.2-.6-1 0-1.5 1-.2.6-.2 1.5 0 1.1.4 1.7.4.5 1.2.5 1.1 0 1.6-1 .2-.6.2-1.4zm-1.8-3.2zm6.8 5.7q1 0 1.4-.8.4-.8.4-1.7 0-1-.3-1.5-.4-.8-1.5-.8-1 0-1.4.7-.4.7-.4 1.8 0 1 .4 1.7.4.6 1.4.6zm0-5.8q1.2 0 2 .9 1 .8 1 2.3 0 1.5-.8 2.5t-2.3 1q-1.3 0-2-.8-.8-1-.8-2.4 0-1.6.8-2.5.8-1 2.1-1zm0 0zm4.8 3.5q0 1 .5 1.6.4.7 1.3.7.8 0 1.2-.6.5-.7.5-1.8 0-1.2-.5-1.8-.5-.6-1.2-.6-.8 0-1.3.6-.5.7-.5 1.8zm1.6-3.4q.8 0 1.2.3l.7.6v-3.1h1v8.6h-1v-.9q-.3.6-.8.9-.5.2-1.2.2-1 0-1.8-.9-.8-.8-.8-2.3 0-1.4.7-2.4t2-1z" font-size="12" font-family="Helvetica,Arial,sans-serif" fill="#fff"/><path d="M194.5 222h68v19h-68z" fill="#00bf00" stroke="#000" stroke-width="1.5"/><path d="M207.3 228.7h1v1l.7-.8q.5-.3 1.2-.3t1.2.4l.5.6q.3-.5.8-.8l1-.2q1.3 0 1.8.9.2.5.2 1.3v4.2h-1v-4.4q0-.6-.4-.8-.3-.3-.8-.3-.6 0-1 .5-.5.4-.5 1.3v3.7h-1v-4.1q0-.6-.2-1t-.9-.4q-.6 0-1 .5-.6.5-.6 1.7v3.3h-1v-6.3zm12.4 5.6q1.1 0 1.5-.8.4-.8.4-1.7 0-1-.3-1.5-.5-.8-1.5-.8t-1.4.7q-.5.7-.5 1.8 0 1 .5 1.7.4.6 1.3.6zm0-5.8q1.3 0 2.1.9.9.8.9 2.3 0 1.5-.8 2.5-.7 1-2.3 1-1.2 0-2-.8-.8-1-.8-2.4 0-1.6.8-2.5.8-1 2.2-1zm0 0zm4.3.2h1v1q.4-.6.9-.9l1-.2q1.4 0 1.9 1 .3.4.3 1.4v4H228v-4q0-.5-.2-.9-.3-.6-1-.6l-.6.1q-.5.1-.8.5l-.3.7-.1 1v3.2h-1v-6.3zm2.4-.1zm6.4 0q.8 0 1.3.4l.6.6v-.8h1v5.7q0 1.2-.3 1.9-.7 1.3-2.5 1.3-1 0-1.7-.5t-.8-1.4h1q.1.4.4.6.3.4 1.1.4 1.2 0 1.6-.9.2-.5.2-1.8-.3.5-.8.7-.4.3-1.2.3-1 0-1.7-.7-.8-.8-.8-2.4 0-1.6.8-2.5.7-.9 1.8-.9zm2 3.2q0-1.1-.6-1.7-.4-.6-1.2-.6-1 0-1.5 1-.2.6-.2 1.5 0 1.1.4 1.7.4.5 1.2.5 1.1 0 1.6-1 .2-.6.2-1.4zm-1.8-3.2zm6.8 5.7q1 0 1.4-.8.4-.8.4-1.7 0-1-.3-1.5-.4-.8-1.5-.8-1 0-1.4.7-.4.7-.4 1.8 0 1 .4 1.7.4.6 1.4.6zm0-5.8q1.2 0 2 .9 1 .8 1 2.3 0 1.5-.8 2.5t-2.3 1q-1.3 0-2-.8-.8-1-.8-2.4 0-1.6.8-2.5.8-1 2.1-1zm0 0zm4.8 3.5q0 1 .5 1.6.4.7 1.3.7.8 0 1.2-.6.5-.7.5-1.8 0-1.2-.5-1.8-.5-.6-1.2-.6-.8 0-1.3.6-.5.7-.5 1.8zm1.6-3.4q.8 0 1.2.3l.7.6v-3.1h1v8.6h-1v-.9q-.3.6-.8.9-.5.2-1.2.2-1 0-1.8-.9-.8-.8-.8-2.3 0-1.4.7-2.4t2-1z" font-size="12" font-family="Helvetica,Arial,sans-serif" fill="#fff"/><path d="M181.5 246h68v19h-68z" fill="#00bf00" stroke="#000" stroke-width="1.5"/><path d="M194.3 253.7h1v1l.7-.8q.5-.3 1.2-.3t1.2.4l.5.6q.3-.5.8-.8l1-.2q1.3 0 1.8.9.2.5.2 1.3v4.2h-1v-4.4q0-.6-.4-.8-.3-.3-.8-.3-.6 0-1 .5-.5.4-.5 1.3v3.7h-1v-4.1q0-.6-.2-1t-.9-.4q-.6 0-1 .5-.6.5-.6 1.7v3.3h-1v-6.3zm12.4 5.6q1.1 0 1.5-.8.4-.8.4-1.7 0-1-.3-1.5-.5-.8-1.5-.8t-1.4.7q-.5.7-.5 1.8 0 1 .5 1.7.4.6 1.3.6zm0-5.8q1.3 0 2.1.9.9.8.9 2.3 0 1.5-.8 2.5-.7 1-2.3 1-1.2 0-2-.8-.8-1-.8-2.4 0-1.6.8-2.5.8-1 2.2-1zm0 0zm4.3.2h1v1q.4-.6.9-.9l1-.2q1.4 0 1.9 1 .3.4.3 1.4v4H215v-4q0-.5-.2-.9-.3-.6-1-.6l-.6.1q-.5.1-.8.5l-.3.7-.1 1v3.2h-1v-6.3zm2.4-.1zm6.4 0q.8 0 1.3.4l.6.6v-.8h1v5.7q0 1.2-.3 1.9-.7 1.3-2.5 1.3-1 0-1.7-.5t-.8-1.4h1q.1.4.4.6.3.4 1.1.4 1.2 0 1.6-.9.2-.5.2-1.8-.3.5-.8.7-.4.3-1.2.3-1 0-1.7-.7-.8-.8-.8-2.4 0-1.6.8-2.5.7-.9 1.8-.9zm2 3.2q0-1.1-.6-1.7-.4-.6-1.2-.6-1 0-1.5 1-.2.6-.2 1.5 0 1.1.4 1.7.4.5 1.2.5 1.1 0 1.6-1 .2-.6.2-1.4zm-1.8-3.2zm6.8 5.7q1 0 1.4-.8.4-.8.4-1.7 0-1-.3-1.5-.4-.8-1.5-.8-1 0-1.4.7-.4.7-.4 1.8 0 1 .4 1.7.4.6 1.4.6zm0-5.8q1.2 0 2 .9 1 .8 1 2.3 0 1.5-.8 2.5t-2.3 1q-1.3 0-2-.8-.8-1-.8-2.4 0-1.6.8-2.5.8-1 2.1-1zm0 0zm4.8 3.5q0 1 .5 1.6.4.7 1.3.7.8 0 1.2-.6.5-.7.5-1.8 0-1.2-.5-1.8-.5-.6-1.2-.6-.8 0-1.3.6-.5.7-.5 1.8zm1.6-3.4q.8 0 1.2.3l.7.6v-3.1h1v8.6h-1v-.9q-.3.6-.8.9-.5.2-1.2.2-1 0-1.8-.9-.8-.8-.8-2.3 0-1.4.7-2.4t2-1z" font-size="12" font-family="Helvetica,Arial,sans-serif" fill="#fff"/><path d="M197.5 185.8q0 .8.4 1.3.6 1 2.3 1 .8 0 1.4-.2 1.3-.4 1.3-1.5 0-.8-.6-1.2-.5-.3-1.6-.6l-1.3-.3q-1.4-.3-2-.6-.9-.7-.9-2t1-2.1q.9-.9 2.6-.9 1.6 0 2.7.8 1 .7 1 2.4h-1.2q0-.8-.4-1.2-.7-.8-2.1-.8-1.2 0-1.8.5-.5.5-.5 1.2t.6 1q.4.3 1.8.6l1.5.3q1 .2 1.5.6 1 .8 1 2 0 1.8-1.2 2.5t-2.9.7q-1.8 0-2.9-1-1-1-1-2.5h1.3zm2.7-7.1zm5.5.3h1.3v3.7l.7-.8q.6-.4 1.5-.4 1.6 0 2.2 1.1.3.6.3 1.7v4.7h-1.3v-4.6q0-.8-.2-1.2-.3-.6-1.2-.6-.8 0-1.4.5-.6.6-.6 2v3.9h-1.3v-10zm8.8 8q0 .6.4.9.3.3.9.3.6 0 1.2-.3 1-.5 1-1.6v-1l-.5.2-.7.2h-.8l-1 .3q-.5.3-.5 1zm3-2.4q.4 0 .5-.4v-.5q0-.6-.4-.9-.4-.3-1.2-.3-1 0-1.4.6-.2.2-.3.8h-1.1q0-1.3.8-1.9.9-.5 2-.5 1.3 0 2 .5.9.5.9 1.5v4.5q.1.2.4.2h.4v.8l-.4.1h-.4q-.7 0-1-.4l-.2-.7q-.4.5-1 .9-.8.3-1.6.3-1 0-1.7-.6-.6-.6-.6-1.5 0-1 .6-1.6.6-.6 1.7-.7l2-.2zm-1-3.1zm4.8.2h1.2v1.2l.7-.9q.6-.5 1.3-.5h.4v1.3h-.4q-1 0-1.4.6-.5.6-.5 1.4v4.2h-1.3v-7.3zm5.5 3.7q0 1.2.5 2t1.6.8q.8 0 1.4-.7.5-.8.5-2.2 0-1.3-.5-2-.6-.7-1.4-.7-1 0-1.6.7-.5.7-.5 2.1zm1.8-3.9q.9 0 1.4.4.4.2.8.7V179h1.2v10h-1.2v-1q-.4.7-1 1-.6.3-1.3.3-1.2 0-2.1-1-1-1.1-1-2.8 0-1.6.9-2.8.8-1.2 2.3-1.2zm8.6 7.5q0-1.3.5-2.2.5-1 1.8-1.7l1.3-.8 1.2-.8q.6-.6.6-1.3 0-.9-.5-1.4-.5-.5-1.4-.5-1.2 0-1.7 1-.3.5-.3 1.4h-1.3q0-1.3.5-2.1.8-1.4 2.8-1.4 1.7 0 2.5.9t.8 2q0 1.2-.9 2-.4.5-1.7 1.2l-1 .5-1 .7q-.6.6-.8 1.3h5.3v1.2h-6.7z" font-size="14" font-family="Helvetica,Arial,sans-serif"/><path stroke-opacity="null" d="M426.3 168.7h116v147.2l-58 36.8-58-36.8V168.7z" fill="#a0a0a0" stroke="#000" stroke-width="2"/><path d="M442.5 197h68v19h-68z" fill="#00bf00" stroke="#000" stroke-width="1.5"/><path d="M455.3 203.7h1v1l.7-.8q.5-.3 1.2-.3t1.2.4l.5.6q.3-.5.8-.8l1-.2q1.3 0 1.8.9.2.5.2 1.3v4.2h-1v-4.4q0-.6-.4-.8-.3-.3-.8-.3-.6 0-1 .5-.5.4-.5 1.3v3.7h-1v-4.1q0-.6-.2-1t-.9-.4q-.6 0-1 .5-.6.5-.6 1.7v3.3h-1v-6.3zm12.4 5.6q1.1 0 1.5-.8.4-.8.4-1.7 0-1-.3-1.5-.5-.8-1.5-.8t-1.4.7q-.5.7-.5 1.8 0 1 .5 1.7.4.6 1.3.6zm0-5.8q1.3 0 2.1.9.9.8.9 2.3 0 1.5-.8 2.5-.7 1-2.3 1-1.2 0-2-.8-.8-1-.8-2.4 0-1.6.8-2.5.8-1 2.2-1zm0 0zm4.3.2h1v1q.4-.6.9-.9l1-.2q1.4 0 1.9 1 .3.4.3 1.4v4H476v-4q0-.5-.2-.9-.3-.6-1-.6l-.6.1q-.5.1-.8.5l-.3.7-.1 1v3.2h-1v-6.3zm2.4-.1zm6.4 0q.8 0 1.3.4l.6.6v-.8h1v5.7q0 1.2-.3 1.9-.7 1.3-2.5 1.3-1 0-1.7-.5t-.8-1.4h1q.1.4.4.6.3.4 1.1.4 1.2 0 1.6-.9.2-.5.2-1.8-.3.5-.8.7-.4.3-1.2.3-1 0-1.7-.7-.8-.8-.8-2.4 0-1.6.8-2.5.7-.9 1.8-.9zm2 3.2q0-1.1-.6-1.7-.4-.6-1.2-.6-1 0-1.5 1-.2.6-.2 1.5 0 1.1.4 1.7.4.5 1.2.5 1.1 0 1.6-1 .2-.6.2-1.4zm-1.8-3.2zm6.8 5.7q1 0 1.4-.8.4-.8.4-1.7 0-1-.3-1.5-.4-.8-1.5-.8-1 0-1.4.7-.4.7-.4 1.8 0 1 .4 1.7.4.6 1.4.6zm0-5.8q1.2 0 2 .9 1 .8 1 2.3 0 1.5-.8 2.5t-2.3 1q-1.3 0-2-.8-.8-1-.8-2.4 0-1.6.8-2.5.8-1 2.1-1zm0 0zm4.8 3.5q0 1 .5 1.6.4.7 1.3.7.8 0 1.2-.6.5-.7.5-1.8 0-1.2-.5-1.8-.5-.6-1.2-.6-.8 0-1.3.6-.5.7-.5 1.8zm1.6-3.4q.8 0 1.2.3l.7.6v-3.1h1v8.6h-1v-.9q-.3.6-.8.9-.5.2-1.2.2-1 0-1.8-.9-.8-.8-.8-2.3 0-1.4.7-2.4t2-1z" font-size="12" font-family="Helvetica,Arial,sans-serif" fill="#fff"/><path d="M455.5 221h68v19h-68z" fill="#00bf00" stroke="#000" stroke-width="1.5"/><path d="M468.3 227.7h1v1l.7-.8q.5-.3 1.2-.3t1.2.4l.5.6q.3-.5.8-.8l1-.2q1.3 0 1.8.9.2.5.2 1.3v4.2h-1v-4.4q0-.6-.4-.8-.3-.3-.8-.3-.6 0-1 .5-.5.4-.5 1.3v3.7h-1v-4.1q0-.6-.2-1t-.9-.4q-.6 0-1 .5-.6.5-.6 1.7v3.3h-1v-6.3zm12.4 5.6q1.1 0 1.5-.8.4-.8.4-1.7 0-1-.3-1.5-.5-.8-1.5-.8t-1.4.7q-.5.7-.5 1.8 0 1 .5 1.7.4.6 1.3.6zm0-5.8q1.3 0 2.1.9.9.8.9 2.3 0 1.5-.8 2.5-.7 1-2.3 1-1.2 0-2-.8-.8-1-.8-2.4 0-1.6.8-2.5.8-1 2.2-1zm0 0zm4.3.2h1v1q.4-.6.9-.9l1-.2q1.4 0 1.9 1 .3.4.3 1.4v4H489v-4q0-.5-.2-.9-.3-.6-1-.6l-.6.1q-.5.1-.8.5l-.3.7-.1 1v3.2h-1v-6.3zm2.4-.1zm6.4 0q.8 0 1.3.4l.6.6v-.8h1v5.7q0 1.2-.3 1.9-.7 1.3-2.5 1.3-1 0-1.7-.5t-.8-1.4h1q.1.4.4.6.3.4 1.1.4 1.2 0 1.6-.9.2-.5.2-1.8-.3.5-.8.7-.4.3-1.2.3-1 0-1.7-.7-.8-.8-.8-2.4 0-1.6.8-2.5.7-.9 1.8-.9zm2 3.2q0-1.1-.6-1.7-.4-.6-1.2-.6-1 0-1.5 1-.2.6-.2 1.5 0 1.1.4 1.7.4.5 1.2.5 1.1 0 1.6-1 .2-.6.2-1.4zm-1.8-3.2zm6.8 5.7q1 0 1.4-.8.4-.8.4-1.7 0-1-.3-1.5-.4-.8-1.5-.8-1 0-1.4.7-.4.7-.4 1.8 0 1 .4 1.7.4.6 1.4.6zm0-5.8q1.2 0 2 .9 1 .8 1 2.3 0 1.5-.8 2.5t-2.3 1q-1.3 0-2-.8-.8-1-.8-2.4 0-1.6.8-2.5.8-1 2.1-1zm0 0zm4.8 3.5q0 1 .5 1.6.4.7 1.3.7.8 0 1.2-.6.5-.7.5-1.8 0-1.2-.5-1.8-.5-.6-1.2-.6-.8 0-1.3.6-.5.7-.5 1.8zm1.6-3.4q.8 0 1.2.3l.7.6v-3.1h1v8.6h-1v-.9q-.3.6-.8.9-.5.2-1.2.2-1 0-1.8-.9-.8-.8-.8-2.3 0-1.4.7-2.4t2-1z" font-size="12" font-family="Helvetica,Arial,sans-serif" fill="#fff"/><path d="M442.5 245h68v19h-68z" fill="#00bf00" stroke="#000" stroke-width="1.5"/><path d="M455.3 252.7h1v1l.7-.8q.5-.3 1.2-.3t1.2.4l.5.6q.3-.5.8-.8l1-.2q1.3 0 1.8.9.2.5.2 1.3v4.2h-1v-4.4q0-.6-.4-.8-.3-.3-.8-.3-.6 0-1 .5-.5.4-.5 1.3v3.7h-1v-4.1q0-.6-.2-1t-.9-.4q-.6 0-1 .5-.6.5-.6 1.7v3.3h-1v-6.3zm12.4 5.6q1.1 0 1.5-.8.4-.8.4-1.7 0-1-.3-1.5-.5-.8-1.5-.8t-1.4.7q-.5.7-.5 1.8 0 1 .5 1.7.4.6 1.3.6zm0-5.8q1.3 0 2.1.9.9.8.9 2.3 0 1.5-.8 2.5-.7 1-2.3 1-1.2 0-2-.8-.8-1-.8-2.4 0-1.6.8-2.5.8-1 2.2-1zm0 0zm4.3.2h1v1q.4-.6.9-.9l1-.2q1.4 0 1.9 1 .3.4.3 1.4v4H476v-4q0-.5-.2-.9-.3-.6-1-.6l-.6.1q-.5.1-.8.5l-.3.7-.1 1v3.2h-1v-6.3zm2.4-.1zm6.4 0q.8 0 1.3.4l.6.6v-.8h1v5.7q0 1.2-.3 1.9-.7 1.3-2.5 1.3-1 0-1.7-.5t-.8-1.4h1q.1.4.4.6.3.4 1.1.4 1.2 0 1.6-.9.2-.5.2-1.8-.3.5-.8.7-.4.3-1.2.3-1 0-1.7-.7-.8-.8-.8-2.4 0-1.6.8-2.5.7-.9 1.8-.9zm2 3.2q0-1.1-.6-1.7-.4-.6-1.2-.6-1 0-1.5 1-.2.6-.2 1.5 0 1.1.4 1.7.4.5 1.2.5 1.1 0 1.6-1 .2-.6.2-1.4zm-1.8-3.2zm6.8 5.7q1 0 1.4-.8.4-.8.4-1.7 0-1-.3-1.5-.4-.8-1.5-.8-1 0-1.4.7-.4.7-.4 1.8 0 1 .4 1.7.4.6 1.4.6zm0-5.8q1.2 0 2 .9 1 .8 1 2.3 0 1.5-.8 2.5t-2.3 1q-1.3 0-2-.8-.8-1-.8-2.4 0-1.6.8-2.5.8-1 2.1-1zm0 0zm4.8 3.5q0 1 .5 1.6.4.7 1.3.7.8 0 1.2-.6.5-.7.5-1.8 0-1.2-.5-1.8-.5-.6-1.2-.6-.8 0-1.3.6-.5.7-.5 1.8zm1.6-3.4q.8 0 1.2.3l.7.6v-3.1h1v8.6h-1v-.9q-.3.6-.8.9-.5.2-1.2.2-1 0-1.8-.9-.8-.8-.8-2.3 0-1.4.7-2.4t2-1z" font-size="12" font-family="Helvetica,Arial,sans-serif" fill="#fff"/><path d="M458.5 184.8q0 .8.4 1.3.6 1 2.3 1 .8 0 1.4-.2 1.3-.4 1.3-1.5 0-.8-.6-1.2-.5-.3-1.6-.6l-1.3-.3q-1.4-.3-2-.6-.9-.7-.9-2t1-2.1q.9-.9 2.6-.9 1.6 0 2.7.8 1 .7 1 2.4h-1.2q0-.8-.4-1.2-.7-.8-2.1-.8-1.2 0-1.8.5-.5.5-.5 1.2t.6 1q.4.3 1.8.6l1.5.3q1 .2 1.5.6 1 .8 1 2 0 1.8-1.2 2.5t-2.9.7q-1.8 0-2.9-1-1-1-1-2.5h1.3zm2.7-7.1zm5.5.3h1.3v3.7l.7-.8q.6-.4 1.5-.4 1.6 0 2.2 1.1.3.6.3 1.7v4.7h-1.3v-4.6q0-.8-.2-1.2-.3-.6-1.2-.6-.8 0-1.4.5-.6.6-.6 2v3.9h-1.3v-10zm8.8 8q0 .6.4.9.3.3.9.3.6 0 1.2-.3 1-.5 1-1.6v-1l-.5.2-.7.2h-.8l-1 .3q-.5.3-.5 1zm3-2.4q.4 0 .5-.4v-.5q0-.6-.4-.9-.4-.3-1.2-.3-1 0-1.4.6-.2.2-.3.8h-1.1q0-1.3.8-1.9.9-.5 2-.5 1.3 0 2 .5.9.5.9 1.5v4.5q.1.2.4.2h.4v.8l-.4.1h-.4q-.7 0-1-.4l-.2-.7q-.4.5-1 .9-.8.3-1.6.3-1 0-1.7-.6-.6-.6-.6-1.5 0-1 .6-1.6.6-.6 1.7-.7l2-.2zm-1-3.1zm4.8.2h1.2v1.2l.7-.9q.6-.5 1.3-.5h.4v1.3h-.4q-1 0-1.4.6-.5.6-.5 1.4v4.2h-1.3v-7.3zm5.5 3.7q0 1.2.5 2t1.6.8q.8 0 1.4-.7.5-.8.5-2.2 0-1.3-.5-2-.6-.7-1.4-.7-1 0-1.6.7-.5.7-.5 2.1zm1.8-3.9q.9 0 1.4.4.4.2.8.7V178h1.2v10h-1.2v-1q-.4.7-1 1-.6.3-1.3.3-1.2 0-2.1-1-1-1.1-1-2.8 0-1.6.9-2.8.8-1.2 2.3-1.2zm12.8 4v-4.4l-3.1 4.4h3zm0 3.5v-2.4h-4.3v-1.2l4.5-6.2h1v6.3h1.5v1.1h-1.5v2.4h-1.2z" font-size="14" font-family="Helvetica,Arial,sans-serif"/><path d="M72.5 298.4h.2v2h-.5q-1.2 0-1.6.7-.2.4-.2 1.3v3.6h-2v-7.5h1.8v1.3l.8-1q.6-.4 1.5-.4zm4.7 6.2q.8 0 1.3-.6t.5-1.7q0-1.1-.5-1.7-.5-.6-1.3-.6-.9 0-1.3.6-.5.6-.5 1.7t.5 1.7q.4.6 1.3.6zm3.8-2.3q0 1.6-1 2.8-.9 1.2-2.8 1.2-2 0-2.9-1.2-1-1.2-1-2.8 0-1.6 1-2.8 1-1.2 2.9-1.2 2 0 2.9 1.2 1 1.2 1 2.8zm-3.8-4zm9.2.1q1.5 0 2.3 1 .8 1.1.8 2.8 0 1.7-.8 2.9-.8 1.1-2.3 1.1-.9 0-1.5-.4l-.7-.7v.9h-1.9v-10h2v3.5q.3-.5.8-.8.5-.3 1.3-.3zm-.5 6.2q.8 0 1.2-.6.4-.6.4-1.6 0-.8-.2-1.3-.4-1-1.4-1-1.1 0-1.5 1-.2.5-.2 1.3 0 1 .4 1.6.4.6 1.3.6zm8.4 0q.8 0 1.3-.6t.5-1.7q0-1.1-.5-1.7-.5-.6-1.3-.6-.9 0-1.3.6-.5.6-.5 1.7t.5 1.7q.4.6 1.3.6zm3.8-2.3q0 1.6-1 2.8-.9 1.2-2.8 1.2-2 0-2.9-1.2-1-1.2-1-2.8 0-1.6 1-2.8 1-1.2 2.9-1.2 2 0 2.9 1.2.9 1.2.9 2.8zm-3.8-4zm4.4 1.7v-1.4h1v-2h2v2h1.2v1.4h-1.2v4.5l.8.1h.4v1.5h-1q-1.3 0-1.8-.5-.4-.3-.4-1V300h-1zm364.5-4.2h.7v1.6h-.6q-.3 0-.5.2l-.1.4v.6h1.3v1.4h-1.3v6h-2v-6h-1v-1.4h1v-.5q0-1.2.4-1.6.4-.7 2-.7zm5.9 2.6h.3v2h-.6q-1.1 0-1.5.7-.3.4-.3 1.3v3.6h-2v-7.5h2v1.3l.7-1q.6-.4 1.4-.4zm3.4.1v4.5l.1 1q.3.6 1 .6 1 0 1.4-.8.2-.5.2-1.2v-4h2v7.4h-1.9v-1l-.1.2-.3.3q-.4.4-.9.5-.4.2-1 .2-1.6 0-2.2-1.2-.3-.7-.3-2v-4.5h2zm1.3-.1zm7.2-.7h-1.9v-1.8h2v1.8zm-1.9.8h2v7.5h-2v-7.5zm3.1 1.5v-1.4h1v-2h2v2h1.2v1.4h-1.2v4.5l.8.1h.4v1.5h-1q-1.3 0-1.8-.5-.4-.3-.4-1V300h-1zm8.8 4.6q.8 0 1.3-.6t.5-1.7q0-1.1-.5-1.7-.5-.6-1.3-.6-.9 0-1.3.6-.5.6-.5 1.7t.5 1.7q.4.6 1.3.6zm3.8-2.3q0 1.6-1 2.8-.9 1.2-2.8 1.2-2 0-2.9-1.2-1-1.2-1-2.8 0-1.6 1-2.8 1-1.2 2.9-1.2 2 0 2.9 1.2.9 1.2.9 2.8zm-3.8-4zm6.7 5.3q0 .5.3.8.3.3 1.3.3l1-.1q.2-.2.2-.5 0-.4-.2-.5-.3-.2-2-.6-1.3-.3-1.8-.8-.6-.5-.6-1.3 0-1 .8-1.8.9-.8 2.3-.8t2.3.6q.9.6 1 2h-2l-.1-.7q-.4-.4-1.1-.4-.7 0-1 .2-.2.2-.2.5t.3.5l2 .5q1.2.3 1.7.8.6.6.6 1.4 0 1.2-.8 1.9t-2.6.7q-1.7 0-2.5-.8-.9-.7-.9-1.9h2zm1.5-5.2z" font-weight="700" font-size="14" font-family="Helvetica,Arial,sans-serif"/><path d="M223 25q0 1.2.5 1.9.9 1.3 3 1.3 1 0 1.9-.3 1.5-.6 1.5-2 0-1-.6-1.5-.7-.4-2.1-.7l-1.8-.4q-1.7-.4-2.4-.9-1.2-.8-1.2-2.4 0-1.8 1.2-2.9 1.2-1 3.4-1 2 0 3.4.9 1.5 1 1.5 3.1h-1.7q-.1-1-.5-1.6-.8-1-2.8-1-1.5 0-2.2.7-.7.6-.7 1.5 0 1 .8 1.4.6.3 2.4.7l1.8.4q1.3.3 2 .8 1.2 1 1.2 2.6 0 2.2-1.5 3.1-1.6 1-3.6 1-2.4 0-3.8-1.3-1.4-1.2-1.3-3.3h1.6zm3.5-9zm7.1.3h1.6V21l1-1q.8-.5 2-.5 2 0 2.7 1.4.4.8.4 2.2v6h-1.6v-5.9q0-1-.3-1.5-.4-.8-1.6-.8-1 0-1.8.7t-.8 2.6v5h-1.6v-13zm11.3 10.4q0 .7.5 1.1.5.4 1.2.4.8 0 1.6-.4 1.3-.6 1.3-2v-1.3l-.8.3-.9.1-1 .2q-.8 0-1.2.3-.7.4-.7 1.3zm3.8-3.2q.5 0 .7-.4l.1-.6q0-.8-.5-1.2-.6-.4-1.7-.4-1.2 0-1.7.7-.3.4-.4 1.1h-1.5q0-1.7 1.1-2.4t2.5-.7q1.7 0 2.7.6 1 .7 1 2v5.4q0 .3.2.4 0 .2.4.2h.5v1l-.5.2h-.6q-.8 0-1.2-.5-.2-.3-.2-.9-.5.6-1.4 1.1-1 .5-2 .5-1.3 0-2.2-.8-.8-.8-.8-2 0-1.3.8-2 .8-.8 2.2-1l2.5-.3zm-1.3-3.9zm6.3.2h1.5v1.7q.2-.5 1-1.2.6-.7 1.6-.7h.5v1.7h-.5q-1.2 0-1.9.8-.6.7-.6 1.7v5.5h-1.6v-9.5zm7 4.9q0 1.5.6 2.5.7 1 2 1 1.2 0 1.9-1 .7-.9.7-2.7 0-1.7-.7-2.6-.8-.9-1.8-.9-1.2 0-2 1-.7.9-.7 2.7zm2.4-5q1 0 1.8.4l1 1v-4.8h1.5v13h-1.5v-1.4q-.5 1-1.3 1.3-.7.4-1.7.4-1.6 0-2.7-1.3-1.2-1.4-1.2-3.6 0-2 1-3.5 1.1-1.5 3-1.5zm10.5-.1q1 0 2 .5t1.4 1.2q.5.7.6 1.7.2.6.2 2h-7q.1 1.5.7 2.4.7.8 2 .8 1.2 0 2-.8.4-.5.6-1.1h1.5q0 .5-.4 1.2l-.7 1q-.8.7-1.8 1h-1.3q-1.8 0-3-1.2-1.2-1.3-1.2-3.6 0-2.2 1.2-3.7 1.2-1.4 3.2-1.4zm2.5 4.2q0-1-.4-1.7-.7-1-2.2-1-1 0-1.8.7-.7.8-.8 2h5.2zm-2.6-4.2zm7.2 5.1q0 1.5.7 2.5.6 1 2 1 1.1 0 1.8-1 .7-.9.7-2.7 0-1.7-.7-2.6-.7-.9-1.8-.9-1.2 0-2 1-.7.9-.7 2.7zm2.4-5q1 0 1.8.4l1 1v-4.8h1.5v13H286v-1.4q-.6 1-1.3 1.3-.8.4-1.8.4-1.5 0-2.7-1.3-1.1-1.4-1.1-3.6 0-2 1-3.5t3-1.5zm17.3-3.7q2.4 0 3.8 1.3 1.3 1.3 1.5 3H304q-.3-1.3-1.2-2-.8-.8-2.4-.8-1.9 0-3 1.4-1.3 1.3-1.3 4 0 2.3 1.1 3.7 1 1.4 3.2 1.4 1.9 0 3-1.4.4-.8.7-2.1h1.7q-.2 2-1.5 3.4-1.5 1.7-4.1 1.7-2.3 0-3.8-1.4-2-1.8-2-5.5 0-2.9 1.5-4.7 1.6-2 4.5-2zm-.4 0zm7.8.3h1.6v13h-1.6v-13zm5.5 3.5v6.3q0 .7.3 1.2.4.8 1.5.8 1.7 0 2.3-1.5.3-.8.3-2.1v-4.7h1.6v9.4h-1.5V28q-.3.5-.8.9-.9.7-2.1.7-2 0-2.8-1.3-.4-.8-.4-2v-6.4h1.6zm2.2-.2zm7.2 6.7q0 .8.4 1.2.6.8 2 .8 1 0 1.6-.4.7-.4.7-1.2 0-.6-.5-1l-1.4-.4-1.3-.3q-1.2-.3-1.7-.6-1-.7-1-1.8 0-1.4 1-2.2.9-.8 2.5-.8 2.1 0 3 1.2.7.8.6 1.7h-1.5q0-.5-.3-1-.6-.6-2-.6-.8 0-1.3.4-.4.3-.4.9 0 .6.6 1l1 .4 1 .2q1.8.4 2.3.8 1 .6 1 2 0 1.2-1 2.1-1 1-2.9 1-2.1 0-3-1-.8-1-1-2.4h1.6zm2.3-6.7zm6.1-2.4h1.6v2.6h1.5v1.3h-1.5v6.2q0 .5.4.6l.6.1h.5v1.2l-.5.2h-.7q-1 0-1.5-.6-.4-.5-.4-1.4V21h-1.3v-1.3h1.3v-2.6zm8.7 2.4q1 0 1.9.5 1 .5 1.4 1.2.5.7.7 1.7l.1 2H337q0 1.5.7 2.4.6.8 2 .8 1.2 0 2-.8l.5-1.1h1.6q0 .5-.4 1.2l-.8 1q-.7.7-1.8 1h-1.3q-1.8 0-3-1.2-1.2-1.3-1.2-3.6 0-2.2 1.2-3.7 1.3-1.4 3.3-1.4zm2.5 4.2q-.1-1-.5-1.7-.6-1-2.1-1-1.1 0-1.9.7-.7.8-.8 2h5.3zm-2.7-4.2zm6.3.2h1.5v1.7q.2-.5.9-1.2t1.7-.7h.5v1.7h-.5q-1.2 0-1.9.8-.6.7-.6 1.7v5.5h-1.6v-9.5z" font-weight="400" font-size="18" font-family="Helvetica,Arial,sans-serif"/><path d="M43.5 79h68v19h-68zm13 24h68v19h-68zm-13 24h68v19h-68z" fill="#fff" stroke="#000" stroke-width="1.5"/><path d="M45 60.2q1.7 0 2.6.8.9.9 1 2h-1.2q-.1-.9-.7-1.3-.6-.5-1.6-.5-1.3 0-2.1.9t-.8 2.7q0 1.5.7 2.5.7.9 2.1.9 1.3 0 2-1 .3-.5.5-1.4h1.2q-.2 1.4-1 2.3-1 1.1-2.8 1.1-1.5 0-2.5-.9-1.4-1.2-1.4-3.7 0-1.9 1-3.1 1.1-1.3 3-1.3zm-.2 0zm7.6 8.1q1 0 1.5-.8.4-.8.4-1.7 0-1-.3-1.5-.5-.8-1.6-.8-1 0-1.4.7-.4.7-.4 1.8 0 1 .4 1.7.5.6 1.4.6zm0-5.8q1.3 0 2.1.9.9.8.9 2.3 0 1.5-.8 2.5-.7 1-2.3 1-1.3 0-2-.8-.8-1-.8-2.4 0-1.6.8-2.5.8-1 2.2-1zm0 0zm4.2.2h1v1q.5-.6 1-.9l1-.2q1.4 0 1.9 1 .2.4.2 1.4v4h-1v-4q0-.5-.2-.9-.3-.6-1-.6l-.6.1q-.5.1-.8.5-.3.3-.3.7l-.1 1V69h-1v-6.3zm2.5-.1zm4.5-.8q0-.7.2-1 .4-.5 1.4-.5h.5v1h-.4q-.5 0-.6.2v1.3h1v.8h-1V69h-1.1v-5.4h-.9v-.8h.9v-1zm3.1 1h1V69h-1v-6.2zm0-2.4h1v1.2h-1v-1.2zm4.8 2.2q.8 0 1.3.4l.6.6v-.8h1v5.7q0 1.2-.3 1.9-.7 1.3-2.5 1.3-1 0-1.7-.5t-.8-1.4h1l.4.6q.3.4 1.1.4 1.2 0 1.6-.9.2-.5.2-1.8-.3.5-.8.7-.4.3-1.1.3-1 0-1.8-.7-.8-.8-.8-2.4 0-1.6.8-2.5.8-.9 1.8-.9zm2 3.2q0-1.1-.5-1.7-.5-.6-1.3-.6-1 0-1.5 1-.2.6-.2 1.5 0 1.1.4 1.7.5.5 1.2.5 1.1 0 1.6-1 .2-.6.2-1.4zm-1.8-3.2zm8.5 3.6q0 .8.4 1.2.6.9 2 .9.7 0 1.2-.2 1-.4 1-1.3 0-.7-.4-1-.4-.3-1.4-.5l-1-.3q-1.2-.3-1.7-.6-.8-.5-.8-1.6t.8-1.9q.8-.7 2.3-.7 1.4 0 2.3.6 1 .7 1 2.1h-1.1q-.1-.7-.4-1-.6-.7-1.8-.7-1 0-1.5.4-.5.5-.5 1 0 .7.6 1l1.5.4 1.2.3q1 .2 1.4.5.8.6.8 1.8 0 1.4-1 2-1 .7-2.5.7-1.6 0-2.5-.9-.9-.8-.9-2.2h1.1zm2.4-6zm7.4 2.4q.6 0 1.2.3.7.3 1 .8.3.5.4 1.1l.1 1.4h-4.6q0 1 .5 1.5.4.6 1.3.6.8 0 1.3-.5l.4-.8h1q0 .4-.3.8l-.5.7q-.5.5-1.2.6l-.8.1q-1.2 0-2-.8-.8-.9-.8-2.4t.8-2.5q.8-1 2.1-1zm1.6 2.8q0-.7-.3-1.1-.4-.8-1.4-.8-.7 0-1.2.5-.5.6-.6 1.4h3.5zm-1.8-2.8zm4.2.1h1v1.1l.6-.8q.5-.4 1.2-.4h.3v1.1h-.4q-.8 0-1.2.5-.4.5-.4 1.2V69h-1v-6.3zm4.5 0l1.7 5.1 1.8-5h1.1l-2.4 6.2h-1l-2.4-6.3h1.2zm8.1-.1q.7 0 1.3.3.7.3 1 .8.3.5.4 1.1v1.4h-4.5q0 1 .4 1.5.5.6 1.4.6.8 0 1.3-.5l.4-.8h1q0 .4-.3.8l-.5.7q-.5.5-1.2.6l-.8.1q-1.2 0-2-.8-.8-.9-.8-2.4t.8-2.5q.8-1 2.1-1zm1.7 2.8q0-.7-.3-1.1-.4-.8-1.4-.8-.8 0-1.3.5-.4.6-.5 1.4h3.5zm-1.8-2.8zm4.2.1h1v1.1l.6-.8q.5-.4 1.1-.4h.4v1.1h-.4q-.8 0-1.2.5-.4.5-.4 1.2V69h-1v-6.3zm4.6 4.3q0 .6.3.8.4.5 1.4.5.6 0 1-.2.5-.3.5-.8 0-.4-.4-.6l-1-.3-.7-.2q-.8-.2-1.2-.5-.7-.4-.7-1.1 0-1 .6-1.5.7-.5 1.8-.5 1.4 0 2 .8.4.5.4 1.1h-1q0-.3-.3-.6-.3-.4-1.2-.4-.6 0-1 .2-.2.2-.2.6 0 .4.4.7l.7.2.7.2 1.5.5q.6.4.6 1.3 0 .8-.6 1.4-.7.6-2 .6-1.4 0-2-.6-.5-.6-.6-1.6h1zm1.6-4.4zM55.3 86.7h1v1l.7-.8q.5-.3 1.2-.3t1.2.4l.5.6q.3-.5.8-.8l1-.2q1.3 0 1.8.9.2.5.2 1.3V93h-1v-4.4q0-.6-.4-.8-.3-.3-.8-.3-.6 0-1 .5-.5.4-.5 1.3V93h-1v-4.1q0-.6-.2-1t-.9-.4q-.6 0-1 .5-.6.5-.6 1.7V93h-1v-6.3zm12.4 5.6q1.1 0 1.5-.8.4-.8.4-1.7 0-1-.3-1.5-.5-.8-1.5-.8t-1.4.7q-.5.7-.5 1.8 0 1 .5 1.7.4.6 1.3.6zm0-5.8q1.3 0 2.1.9.9.8.9 2.3 0 1.5-.8 2.5-.7 1-2.3 1-1.2 0-2-.8-.8-1-.8-2.4 0-1.6.8-2.5.8-1 2.2-1zm0 0zm4.3.2h1v1q.4-.6.9-.9l1-.2q1.4 0 1.9 1 .3.4.3 1.4v4H76v-4q0-.5-.2-.9-.3-.6-1-.6l-.6.1q-.5.1-.8.5l-.3.7-.1 1V93h-1v-6.3zm2.4-.1zm6.4 0q.8 0 1.3.4l.6.6v-.8h1v5.7q0 1.2-.3 1.9-.7 1.3-2.5 1.3-1 0-1.7-.5t-.8-1.4h1q.1.4.4.6.3.4 1.1.4 1.2 0 1.6-.9.2-.5.2-1.8-.3.5-.8.7-.4.3-1.2.3-1 0-1.7-.7-.8-.8-.8-2.4 0-1.6.8-2.5.7-.9 1.8-.9zm2 3.2q0-1.1-.5-1.7-.5-.6-1.3-.6-1 0-1.5 1-.2.6-.2 1.5 0 1.1.4 1.7.4.5 1.2.5 1.1 0 1.6-1 .2-.6.2-1.4zM81 86.6zm6.8 5.7q1 0 1.4-.8.4-.8.4-1.7 0-1-.3-1.5-.4-.8-1.5-.8-1 0-1.4.7-.4.7-.4 1.8 0 1 .4 1.7.4.6 1.4.6zm0-5.8q1.2 0 2 .9 1 .8 1 2.3 0 1.5-.8 2.5t-2.3 1q-1.3 0-2-.8-.8-1-.8-2.4 0-1.6.8-2.5.8-1 2.1-1zm0 0zm4.8 3.5q0 1 .5 1.6.4.7 1.3.7.8 0 1.2-.6.5-.7.5-1.8 0-1.2-.5-1.8-.5-.6-1.2-.6-.8 0-1.3.6-.5.7-.5 1.8zm1.6-3.4q.8 0 1.2.3l.7.6v-3.1h1V93h-1v-.9q-.3.6-.8.9-.5.2-1.2.2-1 0-1.8-.9-.8-.8-.8-2.3 0-1.4.7-2.4t2-1zm-38.9 48.1h1v1l.7-.8q.5-.3 1.2-.3t1.2.4l.5.6q.3-.5.8-.8l1-.2q1.3 0 1.8.9.2.5.2 1.3v4.2h-1v-4.4q0-.6-.4-.8-.3-.3-.8-.3-.6 0-1 .5-.5.4-.5 1.3v3.7h-1v-4.1q0-.6-.2-1t-.9-.4q-.6 0-1 .5-.6.5-.6 1.7v3.3h-1v-6.3zm12.4 5.6q1.1 0 1.5-.8.4-.8.4-1.7 0-1-.3-1.5-.5-.8-1.5-.8t-1.4.7q-.5.7-.5 1.8 0 1 .5 1.7.4.6 1.3.6zm0-5.8q1.3 0 2.1.9.9.8.9 2.3 0 1.5-.8 2.5-.7 1-2.3 1-1.2 0-2-.8-.8-1-.8-2.4 0-1.6.8-2.5.8-1 2.2-1zm0 0zm4.3.2h1v1q.4-.6.9-.9l1-.2q1.4 0 1.9 1 .3.4.3 1.4v4H76v-4q0-.5-.2-.9-.3-.6-1-.6l-.6.1q-.5.1-.8.5l-.3.7-.1 1v3.2h-1v-6.3zm2.4-.1zm6.4 0q.8 0 1.3.4l.6.6v-.8h1v5.7q0 1.2-.3 1.9-.7 1.3-2.5 1.3-1 0-1.7-.5t-.8-1.4h1q.1.4.4.6.3.4 1.1.4 1.2 0 1.6-.9.2-.5.2-1.8-.3.5-.8.7-.4.3-1.2.3-1 0-1.7-.7-.8-.8-.8-2.4 0-1.6.8-2.5.7-.9 1.8-.9zm2 3.2q0-1.1-.5-1.7-.5-.6-1.3-.6-1 0-1.5 1-.2.6-.2 1.5 0 1.1.4 1.7.4.5 1.2.5 1.1 0 1.6-1 .2-.6.2-1.4zm-1.8-3.2zm6.8 5.7q1 0 1.4-.8.4-.8.4-1.7 0-1-.3-1.5-.4-.8-1.5-.8-1 0-1.4.7-.4.7-.4 1.8 0 1 .4 1.7.4.6 1.4.6zm0-5.8q1.2 0 2 .9 1 .8 1 2.3 0 1.5-.8 2.5t-2.3 1q-1.3 0-2-.8-.8-1-.8-2.4 0-1.6.8-2.5.8-1 2.1-1zm0 0zm4.8 3.5q0 1 .5 1.6.4.7 1.3.7.8 0 1.2-.6.5-.7.5-1.8 0-1.2-.5-1.8-.5-.6-1.2-.6-.8 0-1.3.6-.5.7-.5 1.8zm1.6-3.4q.8 0 1.2.3l.7.6v-3.1h1v8.6h-1v-.9q-.3.6-.8.9-.5.2-1.2.2-1 0-1.8-.9-.8-.8-.8-2.3 0-1.4.7-2.4t2-1zm-24.9-24.9h1v1l.7-.8q.5-.3 1.2-.3t1.2.4l.5.6q.3-.5.8-.8l1-.2q1.3 0 1.8.9.2.5.2 1.3v4.2h-1v-4.4q0-.6-.4-.8-.3-.3-.8-.3-.6 0-1 .5-.5.4-.5 1.3v3.7h-1v-4.1q0-.6-.2-1t-.9-.4q-.6 0-1 .5-.6.5-.6 1.7v3.3h-1v-6.3zm12.4 5.6q1.1 0 1.5-.8.4-.8.4-1.7 0-1-.3-1.5-.5-.8-1.5-.8t-1.4.7q-.5.7-.5 1.8 0 1 .5 1.7.4.6 1.3.6zm0-5.8q1.3 0 2.1.9.9.8.9 2.3 0 1.5-.8 2.5-.7 1-2.3 1-1.2 0-2-.8-.8-1-.8-2.4 0-1.6.8-2.5.8-1 2.2-1zm0 0zm4.3.2h1v1q.4-.6.9-.9l1-.2q1.4 0 1.9 1 .3.4.3 1.4v4H90v-4q0-.5-.2-.9-.3-.6-1-.6l-.6.1q-.5.1-.8.5l-.3.7-.1 1v3.2h-1v-6.3zm2.4-.1zm6.4 0q.8 0 1.3.4l.6.6v-.8h1v5.7q0 1.2-.3 1.9-.7 1.3-2.5 1.3-1 0-1.7-.5t-.8-1.4h1q.1.4.4.6.3.4 1.1.4 1.2 0 1.6-.9.2-.5.2-1.8-.3.5-.8.7-.4.3-1.2.3-1 0-1.7-.7-.8-.8-.8-2.4 0-1.6.8-2.5.7-.9 1.8-.9zm2 3.2q0-1.1-.5-1.7-.5-.6-1.3-.6-1 0-1.5 1-.2.6-.2 1.5 0 1.1.4 1.7.4.5 1.2.5 1.1 0 1.6-1 .2-.6.2-1.4zm-1.8-3.2zm6.8 5.7q1 0 1.4-.8.4-.8.4-1.7 0-1-.3-1.5-.4-.8-1.5-.8-1 0-1.4.7-.4.7-.4 1.8 0 1 .4 1.7.4.6 1.4.6zm0-5.8q1.2 0 2 .9 1 .8 1 2.3 0 1.5-.8 2.5t-2.3 1q-1.3 0-2-.8-.8-1-.8-2.4 0-1.6.8-2.5.8-1 2.1-1zm0 0zm4.8 3.5q0 1 .5 1.6.4.7 1.3.7.8 0 1.2-.6.5-.7.5-1.8 0-1.2-.5-1.8-.5-.6-1.2-.6-.8 0-1.3.6-.5.7-.5 1.8zm1.6-3.4q.8 0 1.2.3l.7.6v-3.1h1v8.6h-1v-.9q-.3.6-.8.9-.5.2-1.2.2-1 0-1.8-.9-.8-.8-.8-2.3 0-1.4.7-2.4t2-1z" font-size="12" font-family="Helvetica,Arial,sans-serif"/><path d="M251.5 78h68v19h-68z" fill="#fff" stroke="#000" stroke-width="1.5"/><path d="M265.3 84.7h1v1l.7-.8q.5-.3 1.2-.3t1.2.4l.5.6q.3-.5.8-.8l1-.2q1.3 0 1.8.9.2.5.2 1.3V91h-1v-4.4q0-.6-.4-.8-.3-.3-.8-.3-.6 0-1 .5-.5.4-.5 1.3V91h-1v-4.1q0-.6-.2-1t-.9-.4q-.6 0-1 .5-.6.5-.6 1.7V91h-1v-6.3zm12.4 5.6q1.1 0 1.5-.8.4-.8.4-1.7 0-1-.3-1.5-.5-.8-1.5-.8t-1.4.7q-.5.7-.5 1.8 0 1 .5 1.7.4.6 1.3.6zm0-5.8q1.3 0 2.1.9.9.8.9 2.3 0 1.5-.8 2.5-.7 1-2.3 1-1.2 0-2-.8-.8-1-.8-2.4 0-1.6.8-2.5.8-1 2.2-1zm0 0zm4.3.2h1v1q.4-.6.9-.9l1-.2q1.4 0 1.9 1 .3.4.3 1.4v4H286v-4q0-.5-.2-.9-.3-.6-1-.6l-.6.1q-.5.1-.8.5l-.3.7-.1 1V91h-1v-6.3zm2.4-.1zm6.4 0q.8 0 1.3.4l.6.6v-.8h1v5.7q0 1.2-.3 1.9-.7 1.3-2.5 1.3-1 0-1.7-.5t-.8-1.4h1q.1.4.4.6.3.4 1.1.4 1.2 0 1.6-.9.2-.5.2-1.8-.3.5-.8.7-.4.3-1.2.3-1 0-1.7-.7-.8-.8-.8-2.4 0-1.6.8-2.5.7-.9 1.8-.9zm2 3.2q0-1.1-.6-1.7-.4-.6-1.2-.6-1 0-1.5 1-.2.6-.2 1.5 0 1.1.4 1.7.4.5 1.2.5 1.1 0 1.6-1 .2-.6.2-1.4zm-1.8-3.2zm6.8 5.7q1 0 1.4-.8.4-.8.4-1.7 0-1-.3-1.5-.4-.8-1.5-.8-1 0-1.4.7-.4.7-.4 1.8 0 1 .4 1.7.4.6 1.4.6zm0-5.8q1.2 0 2 .9 1 .8 1 2.3 0 1.5-.8 2.5t-2.3 1q-1.3 0-2-.8-.8-1-.8-2.4 0-1.6.8-2.5.8-1 2.1-1zm0 0zm4.8 4.5q0 .6.3.8.4.5 1.4.5l1-.2q.4-.3.4-.8 0-.4-.3-.6l-1-.3-.8-.2q-.8-.2-1.2-.5-.6-.4-.6-1.1 0-1 .6-1.5t1.7-.5q1.5 0 2 .8.5.5.5 1.1h-1q0-.3-.3-.6-.4-.4-1.2-.4-.6 0-1 .2-.3.2-.3.6 0 .4.4.7l.7.2.7.2 1.6.5q.6.4.6 1.3 0 .8-.7 1.4-.6.6-1.9.6-1.4 0-2-.6-.6-.6-.6-1.6h1zm1.6-4.4zm-32.8-23.3q.8 0 1.3-.3t.5-1.2q0-.9-.7-1.2-.3-.2-1-.2h-2.8v3h2.7zm-3.8-4h4q1 0 1.6.4 1.2.5 1.2 2 0 .8-.3 1.3-.4.5-1 .8.6.2.8.5.3.3.3 1v1.2l.1.8q.1.4.4.5v.2h-1.4l-.1-.3V65l-.1-1.4q0-.8-.7-1.1-.3-.2-1-.2h-2.7V66h-1.1v-8.6zm10.8 8q1 0 1.5-.8.4-.8.4-1.7 0-1-.3-1.5-.5-.8-1.6-.8-1 0-1.4.7-.4.7-.4 1.8 0 1 .4 1.7.5.6 1.4.6zm0-5.8q1.3 0 2.1.9.9.8.9 2.3 0 1.5-.8 2.5-.7 1-2.3 1-1.3 0-2-.8-.8-1-.8-2.4 0-1.6.8-2.5.8-1 2.2-1zm0 0zm5.3.2V64l.1.8q.3.5 1 .5 1.2 0 1.6-1 .2-.5.2-1.4v-3h1V66h-1v-1q-.1.4-.4.7-.6.5-1.5.5-1.3 0-1.8-1-.3-.4-.3-1.2v-4.3h1zm1.4-.1zm4.4-1.6h1v1.7h1v.9h-1v4q0 .4.3.5h.8v.9h-.4l-.4.1q-.8 0-1-.4-.3-.4-.3-1v-4.1h-.8v-.9h.8V58zm5.8 1.6q.6 0 1.3.3.6.3 1 .8l.3 1.1.1 1.4h-4.6q0 1 .5 1.5.4.6 1.3.6.8 0 1.3-.5l.4-.8h1l-.2.8-.5.7q-.5.5-1.2.6l-.9.1q-1.2 0-2-.8-.8-.9-.8-2.4t.8-2.5q.8-1 2.2-1zm1.7 2.8l-.3-1.1q-.5-.8-1.5-.8-.7 0-1.2.5-.5.6-.5 1.4h3.5zm-1.8-2.8zm4.2.1h1v1.1q0-.3.6-.8.5-.4 1-.4h.4v1.1h-.3q-.8 0-1.3.5-.4.5-.4 1.2V66h-1v-6.3z" font-size="12" font-family="Helvetica,Arial,sans-serif"/><path stroke-opacity="null" d="M294.3 168.7h116v147.2l-58 36.8-58-36.8V168.7z" fill="#a0a0a0" stroke="#000" stroke-width="2"/><path d="M310.5 197h68v19h-68z" fill="#00bf00" stroke="#000" stroke-width="1.5"/><path d="M323.3 203.7h1v1l.7-.8q.5-.3 1.2-.3t1.2.4l.5.6q.3-.5.8-.8l1-.2q1.3 0 1.8.9.2.5.2 1.3v4.2h-1v-4.4q0-.6-.4-.8-.3-.3-.8-.3-.6 0-1 .5-.5.4-.5 1.3v3.7h-1v-4.1q0-.6-.2-1t-.9-.4q-.6 0-1 .5-.6.5-.6 1.7v3.3h-1v-6.3zm12.4 5.6q1.1 0 1.5-.8.4-.8.4-1.7 0-1-.3-1.5-.5-.8-1.5-.8t-1.4.7q-.5.7-.5 1.8 0 1 .5 1.7.4.6 1.3.6zm0-5.8q1.3 0 2.1.9.9.8.9 2.3 0 1.5-.8 2.5-.7 1-2.3 1-1.2 0-2-.8-.8-1-.8-2.4 0-1.6.8-2.5.8-1 2.2-1zm0 0zm4.3.2h1v1q.4-.6.9-.9l1-.2q1.4 0 1.9 1 .3.4.3 1.4v4H344v-4q0-.5-.2-.9-.3-.6-1-.6l-.6.1q-.5.1-.8.5l-.3.7-.1 1v3.2h-1v-6.3zm2.4-.1zm6.4 0q.8 0 1.3.4l.6.6v-.8h1v5.7q0 1.2-.3 1.9-.7 1.3-2.5 1.3-1 0-1.7-.5t-.8-1.4h1q.1.4.4.6.3.4 1.1.4 1.2 0 1.6-.9.2-.5.2-1.8-.3.5-.8.7-.4.3-1.2.3-1 0-1.7-.7-.8-.8-.8-2.4 0-1.6.8-2.5.7-.9 1.8-.9zm2 3.2q0-1.1-.6-1.7-.4-.6-1.2-.6-1 0-1.5 1-.2.6-.2 1.5 0 1.1.4 1.7.4.5 1.2.5 1.1 0 1.6-1 .2-.6.2-1.4zm-1.8-3.2zm6.8 5.7q1 0 1.4-.8.4-.8.4-1.7 0-1-.3-1.5-.4-.8-1.5-.8-1 0-1.4.7-.4.7-.4 1.8 0 1 .4 1.7.4.6 1.4.6zm0-5.8q1.2 0 2 .9 1 .8 1 2.3 0 1.5-.8 2.5t-2.3 1q-1.3 0-2-.8-.8-1-.8-2.4 0-1.6.8-2.5.8-1 2.1-1zm0 0zm4.8 3.5q0 1 .5 1.6.4.7 1.3.7.8 0 1.2-.6.5-.7.5-1.8 0-1.2-.5-1.8-.5-.6-1.2-.6-.8 0-1.3.6-.5.7-.5 1.8zm1.6-3.4q.8 0 1.2.3l.7.6v-3.1h1v8.6h-1v-.9q-.3.6-.8.9-.5.2-1.2.2-1 0-1.8-.9-.8-.8-.8-2.3 0-1.4.7-2.4t2-1z" font-size="12" font-family="Helvetica,Arial,sans-serif" fill="#fff"/><path d="M323.5 221h68v19h-68z" fill="#00bf00" stroke="#000" stroke-width="1.5"/><path d="M336.3 227.7h1v1l.7-.8q.5-.3 1.2-.3t1.2.4l.5.6q.3-.5.8-.8l1-.2q1.3 0 1.8.9.2.5.2 1.3v4.2h-1v-4.4q0-.6-.4-.8-.3-.3-.8-.3-.6 0-1 .5-.5.4-.5 1.3v3.7h-1v-4.1q0-.6-.2-1t-.9-.4q-.6 0-1 .5-.6.5-.6 1.7v3.3h-1v-6.3zm12.4 5.6q1.1 0 1.5-.8.4-.8.4-1.7 0-1-.3-1.5-.5-.8-1.5-.8t-1.4.7q-.5.7-.5 1.8 0 1 .5 1.7.4.6 1.3.6zm0-5.8q1.3 0 2.1.9.9.8.9 2.3 0 1.5-.8 2.5-.7 1-2.3 1-1.2 0-2-.8-.8-1-.8-2.4 0-1.6.8-2.5.8-1 2.2-1zm0 0zm4.3.2h1v1q.4-.6.9-.9l1-.2q1.4 0 1.9 1 .3.4.3 1.4v4H357v-4q0-.5-.2-.9-.3-.6-1-.6l-.6.1q-.5.1-.8.5l-.3.7-.1 1v3.2h-1v-6.3zm2.4-.1zm6.4 0q.8 0 1.3.4l.6.6v-.8h1v5.7q0 1.2-.3 1.9-.7 1.3-2.5 1.3-1 0-1.7-.5t-.8-1.4h1q.1.4.4.6.3.4 1.1.4 1.2 0 1.6-.9.2-.5.2-1.8-.3.5-.8.7-.4.3-1.2.3-1 0-1.7-.7-.8-.8-.8-2.4 0-1.6.8-2.5.7-.9 1.8-.9zm2 3.2q0-1.1-.6-1.7-.4-.6-1.2-.6-1 0-1.5 1-.2.6-.2 1.5 0 1.1.4 1.7.4.5 1.2.5 1.1 0 1.6-1 .2-.6.2-1.4zm-1.8-3.2zm6.8 5.7q1 0 1.4-.8.4-.8.4-1.7 0-1-.3-1.5-.4-.8-1.5-.8-1 0-1.4.7-.4.7-.4 1.8 0 1 .4 1.7.4.6 1.4.6zm0-5.8q1.2 0 2 .9 1 .8 1 2.3 0 1.5-.8 2.5t-2.3 1q-1.3 0-2-.8-.8-1-.8-2.4 0-1.6.8-2.5.8-1 2.1-1zm0 0zm4.8 3.5q0 1 .5 1.6.4.7 1.3.7.8 0 1.2-.6.5-.7.5-1.8 0-1.2-.5-1.8-.5-.6-1.2-.6-.8 0-1.3.6-.5.7-.5 1.8zm1.6-3.4q.8 0 1.2.3l.7.6v-3.1h1v8.6h-1v-.9q-.3.6-.8.9-.5.2-1.2.2-1 0-1.8-.9-.8-.8-.8-2.3 0-1.4.7-2.4t2-1z" font-size="12" font-family="Helvetica,Arial,sans-serif" fill="#fff"/><path d="M310.5 245h68v19h-68z" fill="#00bf00" stroke="#000" stroke-width="1.5"/><path d="M323.3 252.7h1v1l.7-.8q.5-.3 1.2-.3t1.2.4l.5.6q.3-.5.8-.8l1-.2q1.3 0 1.8.9.2.5.2 1.3v4.2h-1v-4.4q0-.6-.4-.8-.3-.3-.8-.3-.6 0-1 .5-.5.4-.5 1.3v3.7h-1v-4.1q0-.6-.2-1t-.9-.4q-.6 0-1 .5-.6.5-.6 1.7v3.3h-1v-6.3zm12.4 5.6q1.1 0 1.5-.8.4-.8.4-1.7 0-1-.3-1.5-.5-.8-1.5-.8t-1.4.7q-.5.7-.5 1.8 0 1 .5 1.7.4.6 1.3.6zm0-5.8q1.3 0 2.1.9.9.8.9 2.3 0 1.5-.8 2.5-.7 1-2.3 1-1.2 0-2-.8-.8-1-.8-2.4 0-1.6.8-2.5.8-1 2.2-1zm0 0zm4.3.2h1v1q.4-.6.9-.9l1-.2q1.4 0 1.9 1 .3.4.3 1.4v4H344v-4q0-.5-.2-.9-.3-.6-1-.6l-.6.1q-.5.1-.8.5l-.3.7-.1 1v3.2h-1v-6.3zm2.4-.1zm6.4 0q.8 0 1.3.4l.6.6v-.8h1v5.7q0 1.2-.3 1.9-.7 1.3-2.5 1.3-1 0-1.7-.5t-.8-1.4h1q.1.4.4.6.3.4 1.1.4 1.2 0 1.6-.9.2-.5.2-1.8-.3.5-.8.7-.4.3-1.2.3-1 0-1.7-.7-.8-.8-.8-2.4 0-1.6.8-2.5.7-.9 1.8-.9zm2 3.2q0-1.1-.6-1.7-.4-.6-1.2-.6-1 0-1.5 1-.2.6-.2 1.5 0 1.1.4 1.7.4.5 1.2.5 1.1 0 1.6-1 .2-.6.2-1.4zm-1.8-3.2zm6.8 5.7q1 0 1.4-.8.4-.8.4-1.7 0-1-.3-1.5-.4-.8-1.5-.8-1 0-1.4.7-.4.7-.4 1.8 0 1 .4 1.7.4.6 1.4.6zm0-5.8q1.2 0 2 .9 1 .8 1 2.3 0 1.5-.8 2.5t-2.3 1q-1.3 0-2-.8-.8-1-.8-2.4 0-1.6.8-2.5.8-1 2.1-1zm0 0zm4.8 3.5q0 1 .5 1.6.4.7 1.3.7.8 0 1.2-.6.5-.7.5-1.8 0-1.2-.5-1.8-.5-.6-1.2-.6-.8 0-1.3.6-.5.7-.5 1.8zm1.6-3.4q.8 0 1.2.3l.7.6v-3.1h1v8.6h-1v-.9q-.3.6-.8.9-.5.2-1.2.2-1 0-1.8-.9-.8-.8-.8-2.3 0-1.4.7-2.4t2-1z" font-size="12" font-family="Helvetica,Arial,sans-serif" fill="#fff"/><path d="M326.5 184.8q0 .8.4 1.3.6 1 2.3 1 .8 0 1.4-.2 1.3-.4 1.3-1.5 0-.8-.6-1.2-.5-.3-1.6-.6l-1.3-.3q-1.4-.3-2-.6-.9-.7-.9-2t1-2.1q.9-.9 2.6-.9 1.6 0 2.7.8 1 .7 1 2.4h-1.2q0-.8-.4-1.2-.7-.8-2.1-.8-1.2 0-1.8.5-.5.5-.5 1.2t.6 1q.4.3 1.8.6l1.5.3q1 .2 1.5.6 1 .8 1 2 0 1.8-1.2 2.5t-2.9.7q-1.8 0-2.9-1-1-1-1-2.5h1.3zm2.7-7.1zm5.5.3h1.3v3.7l.7-.8q.6-.4 1.5-.4 1.6 0 2.2 1.1.3.6.3 1.7v4.7h-1.3v-4.6q0-.8-.2-1.2-.3-.6-1.2-.6-.8 0-1.4.5-.6.6-.6 2v3.9h-1.3v-10zm8.8 8q0 .6.4.9.3.3.9.3.6 0 1.2-.3 1-.5 1-1.6v-1l-.5.2-.7.2h-.8l-1 .3q-.5.3-.5 1zm3-2.4q.4 0 .5-.4v-.5q0-.6-.4-.9-.4-.3-1.2-.3-1 0-1.4.6-.2.2-.3.8h-1.1q0-1.3.8-1.9.9-.5 2-.5 1.3 0 2 .5.9.5.9 1.5v4.5q.1.2.4.2h.4v.8l-.4.1h-.4q-.7 0-1-.4l-.2-.7q-.4.5-1 .9-.8.3-1.6.3-1 0-1.7-.6-.6-.6-.6-1.5 0-1 .6-1.6.6-.6 1.7-.7l2-.2zm-1-3.1zm4.8.2h1.2v1.2l.7-.9q.6-.5 1.3-.5h.4v1.3h-.4q-1 0-1.4.6-.5.6-.5 1.4v4.2h-1.3v-7.3zm5.5 3.7q0 1.2.5 2t1.6.8q.8 0 1.4-.7.5-.8.5-2.2 0-1.3-.5-2-.6-.7-1.4-.7-1 0-1.6.7-.5.7-.5 2.1zm1.8-3.9q.9 0 1.4.4.4.2.8.7V178h1.2v10h-1.2v-1q-.4.7-1 1-.6.3-1.3.3-1.2 0-2.1-1-1-1.1-1-2.8 0-1.6.9-2.8.8-1.2 2.3-1.2zm11.8 7.8q-1.7 0-2.5-1t-.8-2.3h1.3q0 1 .3 1.4.5.7 1.8.7 1 0 1.5-.5.6-.5.6-1.3 0-1-.6-1.4-.6-.4-1.7-.4h-.5v-1.1h.6q.7 0 1.1-.2.8-.4.8-1.4 0-.7-.5-1-.6-.5-1.2-.5-1.3 0-1.7.8-.3.5-.3 1.3h-1.3q0-1 .5-1.8.7-1.4 2.6-1.4 1.5 0 2.3.7.9.6.9 1.9 0 .9-.5 1.5l-.8.5q.8.2 1.2.8.4.6.4 1.5 0 1.4-.9 2.3-1 .9-2.6.9z" font-size="14" font-family="Helvetica,Arial,sans-serif"/><path d="M332.2 295.8h.7v1.6h-.6q-.3 0-.5.2l-.1.4v.6h1.3v1.4h-1.3v6h-2v-6h-1v-1.4h1v-.5q0-1.2.4-1.6.4-.7 2-.7zm5.9 2.6h.3v2h-.6q-1.1 0-1.5.7-.3.4-.3 1.3v3.6h-2v-7.5h2v1.3l.7-1q.6-.4 1.4-.4zm3.4.1v4.5l.1 1q.3.6 1 .6 1 0 1.4-.8.2-.5.2-1.2v-4h2v7.4h-1.9v-1l-.1.2-.3.3q-.4.4-.9.5-.4.2-1 .2-1.6 0-2.2-1.2-.3-.7-.3-2v-4.5h2zm1.3-.1zm7.2-.7h-1.9v-1.8h2v1.8zm-1.9.8h2v7.5h-2v-7.5zm3.1 1.5v-1.4h1v-2h2v2h1.2v1.4h-1.2v4.5l.8.1h.4v1.5h-1q-1.3 0-1.8-.5-.4-.3-.4-1V300h-1zm8.8 4.6q.8 0 1.3-.6t.5-1.7q0-1.1-.5-1.7-.5-.6-1.3-.6-.9 0-1.3.6-.5.6-.5 1.7t.5 1.7q.4.6 1.3.6zm3.8-2.3q0 1.6-1 2.8-.9 1.2-2.8 1.2-2 0-2.9-1.2-1-1.2-1-2.8 0-1.6 1-2.8 1-1.2 2.9-1.2 2 0 2.9 1.2.9 1.2.9 2.8zm-3.8-4zm6.7 5.3q0 .5.3.8.3.3 1.3.3l1-.1q.2-.2.2-.5 0-.4-.2-.5-.3-.2-2-.6-1.3-.3-1.8-.8-.6-.5-.6-1.3 0-1 .8-1.8.9-.8 2.3-.8t2.3.6q.9.6 1 2h-2l-.1-.7q-.4-.4-1.1-.4-.7 0-1 .2-.2.2-.2.5t.3.5l2 .5q1.2.3 1.7.8.6.6.6 1.4 0 1.2-.8 1.9t-2.6.7q-1.7 0-2.5-.8-.9-.7-.9-1.9h2zm1.5-5.2zm-160.7 0h.2v2h-.5q-1.2 0-1.6.7-.2.4-.2 1.3v3.6h-2v-7.5h1.8v1.3l.8-1q.6-.4 1.5-.4zm4.7 6.2q.8 0 1.3-.6t.5-1.7q0-1.1-.5-1.7-.5-.6-1.3-.6-.9 0-1.3.6-.5.6-.5 1.7t.5 1.7q.4.6 1.3.6zm3.8-2.3q0 1.6-1 2.8-.9 1.2-2.8 1.2-2 0-2.9-1.2-1-1.2-1-2.8 0-1.6 1-2.8 1-1.2 2.9-1.2 2 0 2.9 1.2 1 1.2 1 2.8zm-3.8-4zm9.2.1q1.5 0 2.3 1 .8 1.1.8 2.8 0 1.7-.8 2.9-.8 1.1-2.3 1.1-.9 0-1.5-.4l-.7-.7v.9h-1.9v-10h2v3.5q.3-.5.8-.8.5-.3 1.3-.3zm-.5 6.2q.8 0 1.2-.6.4-.6.4-1.6 0-.8-.2-1.3-.4-1-1.4-1-1.1 0-1.5 1-.2.5-.2 1.3 0 1 .4 1.6.4.6 1.3.6zm8.4 0q.8 0 1.3-.6t.5-1.7q0-1.1-.5-1.7-.5-.6-1.3-.6-.9 0-1.3.6-.5.6-.5 1.7t.5 1.7q.4.6 1.3.6zm3.8-2.3q0 1.6-1 2.8-.9 1.2-2.8 1.2-2 0-2.9-1.2-1-1.2-1-2.8 0-1.6 1-2.8 1-1.2 2.9-1.2 2 0 2.9 1.2.9 1.2.9 2.8zm-3.8-4zm4.4 1.7v-1.4h1v-2h2v2h1.2v1.4h-1.2v4.5l.8.1h.4v1.5h-1q-1.3 0-1.8-.5-.4-.3-.4-1V300h-1z" font-weight="700" font-size="14" font-family="Helvetica,Arial,sans-serif"/></svg>