<?xml version="1.0" encoding="UTF-8" standalone="no"?>
<svg
   xmlns:dc="http://purl.org/dc/elements/1.1/"
   xmlns:cc="http://creativecommons.org/ns#"
   xmlns:rdf="http://www.w3.org/1999/02/22-rdf-syntax-ns#"
   xmlns:svg="http://www.w3.org/2000/svg"
   xmlns="http://www.w3.org/2000/svg"
   xmlns:sodipodi="http://sodipodi.sourceforge.net/DTD/sodipodi-0.dtd"
   xmlns:inkscape="http://www.inkscape.org/namespaces/inkscape"
   width="740"
   height="280"
   version="1.1"
   id="svg110"
   sodipodi:docname="replica-set-delayed-member.svg"
   inkscape:version="0.92.5 (2060ec1f9f, 2020-04-08)">
  <metadata
     id="metadata116">
    <rdf:RDF>
      <cc:Work
         rdf:about="">
        <dc:format>image/svg+xml</dc:format>
        <dc:type
           rdf:resource="http://purl.org/dc/dcmitype/StillImage" />
      </cc:Work>
    </rdf:RDF>
  </metadata>
  <defs
     id="defs114" />
  <sodipodi:namedview
     pagecolor="#ffffff"
     bordercolor="#666666"
     borderopacity="1"
     objecttolerance="10"
     gridtolerance="10"
     guidetolerance="10"
     inkscape:pageopacity="0"
     inkscape:pageshadow="2"
     inkscape:window-width="1516"
     inkscape:window-height="850"
     id="namedview112"
     showgrid="false"
     inkscape:zoom="1.5081081"
     inkscape:cx="370"
     inkscape:cy="140"
     inkscape:window-x="0"
     inkscape:window-y="27"
     inkscape:window-maximized="0"
     inkscape:current-layer="svg110" />
  <path
     d="M245 109.61c0-1.165-2.906-2.11-6.496-2.11H51.496c-3.586 0-6.496.945-6.496 2.11v60.778c0 1.166 2.91 2.112 6.496 2.112h187.008c3.59 0 6.496-.946 6.496-2.112V109.61"
     fill="#5CA831"
     id="path64" />
  <text
     transform="translate(145 140)"
     id="text68">
    <tspan
       x="-76.087"
       y="12.242"
       font-family="GillSans"
       font-size="36"
       fill="#FFFFFE"
       id="tspan66">Secondary</tspan>
  </text>
  <path
     d="M470 109.61c0-1.165-2.906-2.11-6.496-2.11H276.496c-3.586 0-6.496.945-6.496 2.11v60.778c0 1.166 2.91 2.112 6.496 2.112h187.008c3.59 0 6.496-.946 6.496-2.112V109.61"
     fill="#2A86C0"
     id="path70" />
  <text
     transform="translate(370 140)"
     id="text74">
    <tspan
       x="-57.357"
       y="12"
       font-family="GillSans"
       font-size="36"
       fill="#FFF"
       id="tspan72">Primary</tspan>
  </text>
  <path
     d="M694.863 109.61c0-1.165-2.905-2.11-6.496-2.11H501.359c-3.586 0-6.496.945-6.496 2.11v60.778c0 1.166 2.91 2.112 6.496 2.112h187.008c3.591 0 6.496-.946 6.496-2.112V109.61"
     fill="#818181"
     id="path76" />
  <text
     transform="translate(594.863 140)"
     id="text80">
    <tspan
       x="-76.087"
       y="12"
       font-family="GillSans"
       font-size="36"
       fill="#FFF"
       id="tspan78">Secondary</tspan>
  </text>
  <text
     id="text84"
     x="543.66101"
     y="181.647">
    <tspan
       x="523.10901"
       y="182.52699"
       font-size="11"
       id="tspan82"
       style="font-size:11px;font-family:GillSans-Light">priority: 0</tspan>
  </text>
  <text
     id="text88"
     x="548.70502"
     y="195.549">
    <tspan
       x="522.93402"
       y="196.51601"
       font-size="11"
       id="tspan86"
       style="font-size:11px;font-family:GillSans-Light">hidden: true</tspan>
  </text>
  <text
     id="text92"
     x="558.91803"
     y="207.647">
    <tspan
       x="523.47101"
       y="208.701"
       font-size="11"
       id="tspan90"
       style="font-size:11px;font-family:GillSans-Light">secondaryDelaySecs: 3600</tspan>
  </text>
  <g
     id="g100">
    <path
       d="M470 12.11c0-1.165-2.906-2.11-6.496-2.11H276.496c-3.586 0-6.496.945-6.496 2.11v60.778c0 1.166 2.91 2.112 6.496 2.112h187.008c3.59 0 6.496-.946 6.496-2.112V12.11"
       fill="#5CA831"
       id="path94" />
    <text
       transform="translate(370 42.5)"
       id="text98">
      <tspan
         x="-76.087"
         y="12"
         font-family="GillSans"
         font-size="36"
         fill="#FFFFFE"
         id="tspan96">Secondary</tspan>
    </text>
  </g>
  <g
     id="g108">
    <path
       d="M470 207.11c0-1.165-2.906-2.11-6.496-2.11H276.496c-3.586 0-6.496.945-6.496 2.11v60.778c0 1.166 2.91 2.112 6.496 2.112h187.008c3.59 0 6.496-.946 6.496-2.112V207.11"
       fill="#5CA831"
       id="path102" />
    <text
       transform="translate(370 237.5)"
       id="text106">
      <tspan
         x="-76.087"
         y="12"
         font-family="GillSans"
         font-size="36"
         fill="#FFFFFE"
         id="tspan104">Secondary</tspan>
    </text>
  </g>
</svg>
