<svg xmlns="http://www.w3.org/2000/svg" xmlns:xlink="http://www.w3.org/1999/xlink" height="600" width="1200"><path d="M595 90v265" fill="none" stroke="#9b0d28" stroke-width="4"/><path d="M595 355l-4.6-14.3h9.2z" fill="#9b0d28" stroke="#9b0d28" stroke-width="4"/><path d="M285 35a5 5 0 0 1 5-5h170a5 5 0 0 1 5 5v50a5 5 0 0 1-5 5H290a5 5 0 0 1-5-5z" fill="none" stroke="#000" stroke-width="2"/><use height="100%" width="100%" transform="translate(297.2 66.8)" xlink:href="#a"/><use height="100%" width="100%" transform="translate(328.3 66.8)" xlink:href="#b"/><use height="100%" width="100%" transform="translate(359.4 66.8)" xlink:href="#c"/><use height="100%" width="100%" transform="translate(390.6 66.8)" xlink:href="#d"/><use height="100%" width="100%" transform="translate(437.2 66.8)" xlink:href="#e"/><path d="M505 35a5 5 0 0 1 5-5h170a5 5 0 0 1 5 5v50a5 5 0 0 1-5 5H510a5 5 0 0 1-5-5z" fill="none" stroke="#000" stroke-width="2"/><use height="100%" width="100%" transform="translate(517.2 66.8)" xlink:href="#a"/><use height="100%" width="100%" transform="translate(548.3 66.8)" xlink:href="#b"/><use height="100%" width="100%" transform="translate(579.4 66.8)" xlink:href="#c"/><use height="100%" width="100%" transform="translate(610.6 66.8)" xlink:href="#f"/><use height="100%" width="100%" transform="translate(657.2 66.8)" xlink:href="#e"/><path d="M725 35a5 5 0 0 1 5-5h170a5 5 0 0 1 5 5v50a5 5 0 0 1-5 5H730a5 5 0 0 1-5-5z" fill="none" stroke="#000" stroke-width="2"/><use height="100%" width="100%" transform="translate(737.2 66.8)" xlink:href="#a"/><use height="100%" width="100%" transform="translate(768.3 66.8)" xlink:href="#b"/><use height="100%" width="100%" transform="translate(799.4 66.8)" xlink:href="#c"/><use height="100%" width="100%" transform="translate(830.6 66.8)" xlink:href="#g"/><use height="100%" width="100%" transform="translate(877.2 66.8)" xlink:href="#e"/><path d="M375 90v180a5 5 0 0 1-5 5H195a5 5 0 0 0-5 5v80" fill="none" stroke="#3aa6dd" stroke-width="4"/><path d="M190 360l-4.6-14.3h9.2z" fill="#3aa6dd" stroke="#3aa6dd" stroke-width="4"/><path d="M815 90v180a5 5 0 0 0 5 5h175a5 5 0 0 1 5 5v75" fill="none" stroke="#ff8f80" stroke-width="4"/><path d="M1000 355l-4.6-14.3h9.2z" fill="#ff8f80" stroke="#ff8f80" stroke-width="4"/><path d="M330 205a5 5 0 0 1 5-5h510a5 5 0 0 1 5 5v50a5 5 0 0 1-5 5H335a5 5 0 0 1-5-5z" fill="#de4f01" stroke="#fff" stroke-width="2"/><use height="100%" width="100%" transform="translate(503.6 239.8)" xlink:href="#h"/><path d="M1108 440a71 71 0 0 1 72 70 71 71 0 0 1-72 70H892a71 71 0 0 1-72-70 71 71 0 0 1 72-70z" fill="#69b241" stroke="#000" stroke-width="2"/><path d="M880 385a5 5 0 0 1 5-5h230a5 5 0 0 1 5 5v50a5 5 0 0 1-5 5H885a5 5 0 0 1-5-5z" fill="none"/><use height="100%" width="100%" transform="translate(942.9 420.7)" xlink:href="#i"/><use height="100%" width="100%" transform="translate(1035.1 420.7)" xlink:href="#j"/><path d="M840 469a5 5 0 0 1 5-5h310a5 5 0 0 1 5 5v82a5 5 0 0 1-5 5H845a5 5 0 0 1-5-5z" fill="none"/><use height="100%" width="100%" transform="translate(866.7 519.8)" xlink:href="#k"/><use height="100%" width="100%" transform="translate(920 519.8)" xlink:href="#l"/><use height="100%" width="100%" transform="translate(955.6 519.8)" xlink:href="#m"/><use height="100%" width="100%" transform="translate(991.1 519.8)" xlink:href="#n"/><use height="100%" width="100%" transform="translate(1026.7 519.8)" xlink:href="#o"/><path d="M308 440a71 71 0 0 1 72 70 71 71 0 0 1-72 70H92a71 71 0 0 1-72-70 71 71 0 0 1 72-70z" fill="#69b241" stroke="#000" stroke-width="2"/><path d="M80 385a5 5 0 0 1 5-5h230a5 5 0 0 1 5 5v50a5 5 0 0 1-5 5H85a5 5 0 0 1-5-5z" fill="none"/><use height="100%" width="100%" transform="translate(143.5 420.7)" xlink:href="#i"/><use height="100%" width="100%" transform="translate(235.7 420.7)" xlink:href="#p"/><path d="M40 469a5 5 0 0 1 5-5h310a5 5 0 0 1 5 5v82a5 5 0 0 1-5 5H45a5 5 0 0 1-5-5z" fill="none"/><use height="100%" width="100%" transform="translate(66.7 519.8)" xlink:href="#q"/><use height="100%" width="100%" transform="translate(191.1 519.8)" xlink:href="#l"/><use height="100%" width="100%" transform="translate(226.7 519.8)" xlink:href="#m"/><use height="100%" width="100%" transform="translate(262.2 519.8)" xlink:href="#n"/><use height="100%" width="100%" transform="translate(297.8 519.8)" xlink:href="#r"/><path d="M708 440a71 71 0 0 1 72 70 71 71 0 0 1-72 70H492a71 71 0 0 1-72-70 71 71 0 0 1 72-70z" fill="#69b241" stroke="#000" stroke-width="2"/><path d="M480 385a5 5 0 0 1 5-5h230a5 5 0 0 1 5 5v50a5 5 0 0 1-5 5H485a5 5 0 0 1-5-5z" fill="none"/><use height="100%" width="100%" transform="translate(545.1 420.7)" xlink:href="#i"/><use height="100%" width="100%" transform="translate(637.4 420.7)" xlink:href="#s"/><path d="M440 469a5 5 0 0 1 5-5h310a5 5 0 0 1 5 5v82a5 5 0 0 1-5 5H445a5 5 0 0 1-5-5z" fill="none"/><use height="100%" width="100%" transform="translate(502.2 519.8)" xlink:href="#t"/><use height="100%" width="100%" transform="translate(555.6 519.8)" xlink:href="#l"/><use height="100%" width="100%" transform="translate(591.1 519.8)" xlink:href="#m"/><use height="100%" width="100%" transform="translate(626.7 519.8)" xlink:href="#n"/><use height="100%" width="100%" transform="translate(662.2 519.8)" xlink:href="#u"/><defs><path id="v" d="M163-116c0-78-36-122-110-112v-56c35-1 55 6 86-22 64-88-23-208 73-291 58-51 122-38 196-40v57c-53 2-103-8-135 13-38 24-40 73-40 93 0 24 2 46 2 70 3 68-35 130-87 148 38 13 85 50 85 155 0 81-20 142 38 187 33 26 82 15 136 17v56c-78-2-144 12-192-30-80-70-52-144-52-245"/><use height="100%" width="100%" id="a" xlink:href="#v" transform="scale(.03111)"/><path id="w" d="M379-624h70L291-319 468 0h-79L251-247 117 0H41l170-318L44-624h75l131 237"/><use height="100%" width="100%" id="b" xlink:href="#w" transform="scale(.03111)"/><path id="x" d="M298-365c0 31-26 57-59 57s-60-25-60-57c0-31 27-58 60-58s59 27 59 58zm0 319c0 31-26 57-59 57s-60-25-60-57c0-31 27-58 60-58s59 27 59 58"/><use height="100%" width="100%" id="c" xlink:href="#x" transform="scale(.03111)"/><path id="y" d="M244-566c-67 0-104 39-115 80l-51-40c37-63 103-101 174-101 102 0 181 78 181 175 0 90-64 153-110 196-45 42-117 104-169 195h261c11 1 12-12 24-9V0H73v-44c52-104 110-168 181-232 45-41 110-95 110-171 0-67-54-119-120-119"/><path id="z" d="M106-623h316v63H165l-10 179c141-67 290 9 290 184C445 36 163 71 64-85l62-46c9 6 3 15 7 23 3 7 48 58 115 58s126-52 126-148c0-163-166-190-245-90l-44-18"/><g id="d"><use height="100%" width="100%" xlink:href="#y" transform="scale(.03111)"/><use height="100%" width="100%" xlink:href="#z" transform="translate(15.6) scale(.03111)"/></g><path id="A" d="M352-256c-52-19-90-80-87-148 0-24 3-46 3-70 0-20-2-69-40-93-32-21-83-11-136-13v-57c74 2 140-14 196 40 65 62 49 118 47 206 0 24 2 61 26 85 30 29 52 21 87 22v56c-74-10-110 34-110 112 0 101 28 175-52 245-48 42-115 28-193 30v-56c54-2 104 9 137-17 58-45 38-106 38-187 0-105 46-142 84-155"/><use height="100%" width="100%" id="e" xlink:href="#A" transform="scale(.03111)"/><path id="B" d="M375-520c-19-29-21-48-87-48-45 0-148 28-152 241 91-141 303-73 303 129C439 10 210 83 114-72 44-186 51-340 94-475c53-167 213-199 330-98zm-4 325c0-190-167-178-231-62-8 116 48 205 124 205 53 0 107-46 107-143"/><g id="f"><use height="100%" width="100%" xlink:href="#y" transform="scale(.03111)"/><use height="100%" width="100%" xlink:href="#B" transform="translate(15.6) scale(.03111)"/></g><path id="C" d="M432-584C350-397 277-203 214 0h-79c63-190 134-378 210-557H79v-66h353v39"/><g id="g"><use height="100%" width="100%" xlink:href="#y" transform="scale(.03111)"/><use height="100%" width="100%" xlink:href="#C" transform="translate(15.6) scale(.03111)"/></g><path id="D" d="M1139-1397h200V0h-200v-608H354V0H154v-1397h200v604h785v-604" fill="#fff"/><path id="E" d="M279 14C154 14 49-84 55-209c11-240 284-270 473-344 10-137-37-215-166-215-99 0-196 51-290 154v-199c71-83 172-125 305-125 171 0 301 80 323 228s4 380 7 548c0 31 11 47 32 47 22 0 56-16 103-49v111c-70 41-94 69-178 69-78 0-124-31-138-92-77 60-160 90-247 90zm-43-254c-2 75 56 129 131 129 58 0 112-24 161-71v-273c-79 31-209 74-254 121-25 26-38 57-38 94" fill="#fff"/><path id="F" d="M391 16C248 13 200-13 84-66v-196c78 54 186 115 293 121 64 4 138-37 139-95 0-27-8-48-26-66s-56-44-115-77c-117-65-195-121-231-167s-54-97-54-152c-1-149 137-240 295-240 90 0 182 25 277 76v180c-108-65-196-98-265-98-93 0-157 78-89 143 29 27 119 78 169 107 153 87 230 183 230 288C708-83 559 21 391 16" fill="#fff"/><path id="G" d="M537-793c-115 4-158 59-230 134V0H125v-1397h182v598c105-135 293-188 448-93 113 70 144 170 144 368V0H717v-569c3-122-65-228-180-224" fill="#fff"/><path id="H" d="M156-1397h745v178H356v390h545v178H356V0H156v-1397" fill="#fff"/><path id="I" d="M307-395c4 175 28 260 187 260 87 0 160-42 221-127v-658h182V0H715v-117C629-10 424 68 274-28c-116-74-149-155-149-365v-527h182v525" fill="#fff"/><path id="J" d="M717-524c-3-169-33-262-187-262-86 0-159 43-219 129V0H125v-920h186v117c117-131 280-184 437-91 117 70 151 162 151 368V0H717v-524" fill="#fff"/><path id="K" d="M262-461c0 187 127 307 316 307 70 0 150-20 241-61v180C728-1 638 16 551 16 268 16 78-172 78-455c0-278 181-487 454-483 122 2 168 22 267 64v194c-92-59-177-88-256-88-165 0-281 138-281 307" fill="#fff"/><path id="L" d="M0-774l342-336v190h291v164H342v451c0 105 44 158 131 158 65 0 134-22 207-66v170C550 33 349 44 243-57c-73-70-84-127-83-291v-408H0v-18" fill="#fff"/><path id="M" d="M117-1200c0-54 52-107 106-107 58 0 109 49 109 107 0 57-51 108-109 108-54 0-106-53-106-108zm16 280h182V0H133v-920" fill="#fff"/><path id="N" d="M76-451c0-267 222-471 493-471s488 207 488 476c0 265-225 462-496 462C296 16 76-188 76-451zm796-4c0-172-139-303-313-303-172 0-299 133-299 305 0 174 132 299 307 299 174 0 305-128 305-301" fill="#fff"/><g id="h"><use height="100%" width="100%" xlink:href="#D" transform="scale(.0152)"/><use height="100%" width="100%" xlink:href="#E" transform="translate(22.7) scale(.01519)"/><use height="100%" width="100%" xlink:href="#F" transform="translate(36) scale(.01519)"/><use height="100%" width="100%" xlink:href="#G" transform="translate(48) scale(.01519)"/><use height="100%" width="100%" xlink:href="#H" transform="translate(63.5) scale(.01519)"/><use height="100%" width="100%" xlink:href="#I" transform="translate(78) scale(.01519)"/><use height="100%" width="100%" xlink:href="#J" transform="translate(93.6) scale(.01519)"/><use height="100%" width="100%" xlink:href="#K" transform="translate(109.2) scale(.01519)"/><use height="100%" width="100%" xlink:href="#L" transform="translate(122.8) scale(.01519)"/><use height="100%" width="100%" xlink:href="#M" transform="translate(133.2) scale(.01519)"/><use height="100%" width="100%" xlink:href="#N" transform="translate(140) scale(.01519)"/><use height="100%" width="100%" xlink:href="#J" transform="translate(157.2) scale(.01519)"/></g><path id="O" d="M307-694c0 306 244 526 555 526 169 0 335-52 496-156v220C1119 35 700 64 453-78 260-188 105-411 100-694c-8-401 347-721 754-721 147 0 310 38 489 115v215c-163-93-323-140-479-140-306 0-557 229-557 531" fill="#666"/><path id="P" d="M537-793c-115 4-158 59-230 134V0H125v-1397h182v598c105-135 293-188 448-93 113 70 144 170 144 368V0H717v-569c3-122-65-228-180-224" fill="#666"/><path id="Q" d="M307-395c4 175 28 260 187 260 87 0 160-42 221-127v-658h182V0H715v-117C629-10 424 68 274-28c-116-74-149-155-149-365v-527h182v525" fill="#666"/><path id="R" d="M717-524c-3-169-33-262-187-262-86 0-159 43-219 129V0H125v-920h186v117c117-131 280-184 437-91 117 70 151 162 151 368V0H717v-524" fill="#666"/><path id="S" d="M727-920h217L551-469 1024 0H780L319-469zm-598-477h182V0H129v-1397" fill="#666"/><g id="i"><use height="100%" width="100%" xlink:href="#O" transform="scale(.0152)"/><use height="100%" width="100%" xlink:href="#P" transform="translate(22) scale(.01519)"/><use height="100%" width="100%" xlink:href="#Q" transform="translate(37.6) scale(.01519)"/><use height="100%" width="100%" xlink:href="#R" transform="translate(53.1) scale(.01519)"/><use height="100%" width="100%" xlink:href="#S" transform="translate(68.7) scale(.01519)"/></g><use height="100%" width="100%" id="j" xlink:href="#O" transform="scale(.0152)"/><path id="T" d="M251-627c96 0 199 113 199 326C450-87 342 11 252 11 153 11 50-105 50-307c0-199 102-320 201-320zm98 142c-27-55-65-81-99-81-62 0-135 88-135 247 0 44 5 84 14 118zm23 67L152-138c27 55 66 85 103 85 55 0 130-66 130-240 0-48-5-90-13-125"/><g id="k"><use height="100%" width="100%" xlink:href="#y" transform="scale(.03556)"/><use height="100%" width="100%" xlink:href="#T" transform="translate(17.8) scale(.03556)"/></g><path id="U" d="M458-496v-71L35-344v48L461-47v-76L111-319"/><g id="l"><use height="100%" width="100%" xlink:href="#U" transform="scale(.03556)"/><path d="M-1.8 2.7h21.3v1.7H-1.8z"/></g><use height="100%" width="100%" id="m" xlink:href="#w" transform="scale(.03556)"/><use height="100%" width="100%" id="n" xlink:href="#U" transform="scale(.03556)"/><path id="V" d="M173-413c-33-7-69 65-69 108V0H38v-457h66v45c21-32 56-56 93-56 41 0 74 29 81 67 27-65 127-96 174-30 21 30 18 69 18 107V1h-68v-325c5-38-4-96-42-91-51 6-72 68-73 113V0h-67v-318c7-41-11-101-47-95"/><path id="W" d="M366-269c2-83-14-137-109-139-42 0-94 12-131 51l-35-46c43-44 101-64 163-64 110 0 181 69 181 184V0h-68v-50C317-9 259 11 203 11 23 8-5-195 154-249c63-21 138-20 212-20zm3 55c-54 1-120-4-167 7-57 14-81 51-81 84 0 41 35 79 96 79 60 0 104-36 120-54 39-46 31-65 32-116"/><path id="X" d="M362-457h74L288-235 456 0h-82L248-178 129 0H47l161-232L50-457h79l119 169"/><path id="Y" d="M126-624c2 12-9 15-9 26v262l260-292c26 6 49 5 78 5L219-354 471 1c-49 0-89 3-89 3L166-312l-49 54V0H42v-624h84"/><path id="Z" d="M259-468c75 0 160 39 181 162 4 27 6 57 3 88H118c5 137 95 170 156 170 45 0 88-18 118-51l40 39c-39 47-99 70-164 70C144 10 49-71 49-223c0-167 101-245 210-245zM121-274h251c9-74-44-139-118-139-49 0-119 31-133 139"/><path id="aa" d="M60 71c12 22 12 44 61 44 61 0 93-68 110-117L46-457h89c0 12-6 19-2 30L267-91c40-122 91-235 121-366h75C406-283 326-121 275 52c-29 99-167 167-253 83"/><g id="o"><use height="100%" width="100%" xlink:href="#V" transform="scale(.03556)"/><use height="100%" width="100%" xlink:href="#W" transform="translate(17.8) scale(.03556)"/><use height="100%" width="100%" xlink:href="#X" transform="translate(35.6) scale(.03556)"/><use height="100%" width="100%" xlink:href="#Y" transform="translate(53.3) scale(.03556)"/><use height="100%" width="100%" xlink:href="#Z" transform="translate(71.1) scale(.03556)"/><use height="100%" width="100%" xlink:href="#aa" transform="translate(88.9) scale(.03556)"/></g><path id="ab" d="M600-1405h141L1366 0h-205L975-414H381L205 0H0zm293 813l-225-506-209 506h434" fill="#666"/><use height="100%" width="100%" id="p" xlink:href="#ab" transform="scale(.0152)"/><path id="ac" d="M106-457h183v399h107V0H100v-58h117v-341H106v-58zm149-199c29 0 51 23 51 51a51.4 51.4 0 1 1-103 0c0-28 23-51 52-51"/><path id="ad" d="M274-405c-78 10-132 62-132 142V0H68v-457h74v81c34-51 89-92 151-92 88 0 139 91 139 191V0h-71v-275c9-55-27-138-87-130"/><g id="q"><use height="100%" width="100%" xlink:href="#V" transform="scale(.03556)"/><use height="100%" width="100%" xlink:href="#ac" transform="translate(17.8) scale(.03556)"/><use height="100%" width="100%" xlink:href="#ad" transform="translate(35.6) scale(.03556)"/><use height="100%" width="100%" xlink:href="#Y" transform="translate(53.3) scale(.03556)"/><use height="100%" width="100%" xlink:href="#Z" transform="translate(71.1) scale(.03556)"/><use height="100%" width="100%" xlink:href="#aa" transform="translate(88.9) scale(.03556)"/></g><path id="ae" d="M298-624v570h112V1H116v-55h115v-483l-123 36-17-39 160-84h47"/><g id="r"><use height="100%" width="100%" xlink:href="#ae" transform="scale(.03556)"/><use height="100%" width="100%" xlink:href="#T" transform="translate(17.8) scale(.03556)"/></g><path id="af" d="M776-739c182 31 334 160 334 358 0 166-92 267-216 328C823-18 734 0 627 0H154v-1397c212 7 494-22 636 47 116 56 199 157 199 316 0 137-71 236-213 295zm-289-60c185 3 295-63 295-219 0-134-85-201-256-201H354v420h133zm272 204c-77-32-277-25-405-26v443c125-1 352 2 420-26 102-41 175-202 92-312-26-35-62-60-107-79" fill="#666"/><use height="100%" width="100%" id="s" xlink:href="#af" transform="scale(.0152)"/><g id="t"><use height="100%" width="100%" xlink:href="#ae" transform="scale(.03556)"/><use height="100%" width="100%" xlink:href="#T" transform="translate(17.8) scale(.03556)"/></g><g id="u"><use height="100%" width="100%" xlink:href="#y" transform="scale(.03556)"/><use height="100%" width="100%" xlink:href="#T" transform="translate(17.8) scale(.03556)"/></g></defs></svg>