<svg xmlns="http://www.w3.org/2000/svg" xmlns:xlink="http://www.w3.org/1999/xlink" xmlns:lucid="lucid" width="1534" height="708"><g transform="translate(-237 283)" lucid:page-tab-id="5SYUuiq3PcCF"><path d="M0-500h2000V500H0z" fill="#fff"/><path d="M1439.73-154a6 6 0 0 1 6-6h228a6 6 0 0 1 6 6v388a6 6 0 0 1-6 6h-228a6 6 0 0 1-6-6z" stroke="#00ed64" stroke-opacity=".1" stroke-width="2" fill="#00ed64" fill-opacity=".1"/><path d="M960 40c0-22.16 17.98-40.14 40.14-40.14 10.67 0 20.87 4.26 28.4 11.72 7.48 7.55 11.73 17.74 11.73 28.42 0 22.16-17.98 40.14-40.13 40.14C977.98 80.14 960 62.16 960 40z" stroke="#000" stroke-opacity="0" fill="#001e2b"/><path d="M640.27-154a6 6 0 0 1 6-6h228a6 6 0 0 1 6 6v388a6 6 0 0 1-6 6h-228a6 6 0 0 1-6-6zM320.54-154a6 6 0 0 1 6-6h228a6 6 0 0 1 6 6v388a6 6 0 0 1-6 6h-228a6 6 0 0 1-6-6z" stroke="#00ed64" stroke-opacity=".1" stroke-width="2" fill="#e3fcf7" fill-opacity=".5"/><path d="M1120-154a6 6 0 0 1 6-6h228a6 6 0 0 1 6 6v388a6 6 0 0 1-6 6h-228a6 6 0 0 1-6-6z" stroke="#00ed64" stroke-opacity=".1" stroke-width="2" fill="#00ed64" fill-opacity=".1"/><path d="M730-90c0-16.56 13.44-30 30-30 7.98 0 15.6 3.18 21.24 8.76C786.82-105.6 790-97.98 790-90c0 16.56-13.44 30-30 30-16.56 0-30-13.44-30-30zM730 40c0-16.56 13.44-30 30-30 7.98 0 15.6 3.18 21.24 8.76C786.82 24.4 790 32.02 790 40c0 16.56-13.44 30-30 30-16.56 0-30-13.44-30-30zM730 170c0-16.56 13.44-30 30-30 7.98 0 15.6 3.18 21.24 8.76 5.58 5.64 8.76 13.26 8.76 21.24 0 16.56-13.44 30-30 30-16.56 0-30-13.44-30-30z" stroke="#006eff" fill="#006eff"/><path d="M1210-90c0-16.56 13.44-30 30-30 7.98 0 15.6 3.18 21.24 8.76 5.58 5.64 8.76 13.26 8.76 21.24 0 16.56-13.44 30-30 30-16.56 0-30-13.44-30-30zM1210 40c0-16.56 13.44-30 30-30 7.98 0 15.6 3.18 21.24 8.76 5.58 5.64 8.76 13.26 8.76 21.24 0 16.56-13.44 30-30 30-16.56 0-30-13.44-30-30zM1210 170c0-16.56 13.44-30 30-30 7.98 0 15.6 3.18 21.24 8.76 5.58 5.64 8.76 13.26 8.76 21.24 0 16.56-13.44 30-30 30-16.56 0-30-13.44-30-30z" stroke="#000" stroke-opacity="0" fill="#00684a"/><path d="M1529.73-54.03c0-14.5 11.75-26.24 26.24-26.24 6.97 0 13.64 2.78 18.57 7.66 4.88 4.92 7.66 11.6 7.66 18.57 0 14.48-11.75 26.23-26.23 26.23-14.5 0-26.24-11.75-26.24-26.23zM1529.73 133.63c0-14.5 11.75-26.24 26.24-26.24 6.97 0 13.64 2.77 18.57 7.65 4.88 4.93 7.66 11.6 7.66 18.58 0 14.48-11.75 26.23-26.23 26.23-14.5 0-26.24-11.75-26.24-26.23z" stroke="#000" stroke-opacity="0" fill="#00ed64"/><path d="M414.3-53.76c0-14.5 11.76-26.24 26.24-26.24 6.98 0 13.64 2.78 18.58 7.66 4.88 4.93 7.66 11.6 7.66 18.58 0 14.48-11.75 26.23-26.24 26.23-14.48 0-26.24-11.75-26.24-26.23zM414.3 133.9c0-14.48 11.76-26.24 26.24-26.24 6.98 0 13.64 2.78 18.58 7.66 4.88 4.94 7.66 11.6 7.66 18.58 0 14.48-11.75 26.24-26.24 26.24-14.48 0-26.24-11.76-26.24-26.24z" stroke="#00d2ff" fill="#00d2ff"/><path d="M959.5 40l-2.88-.07-3.22-.2-3.1-.33-2.95-.43-2.87-.55-2.8-.66L939 37l-2.7-.87-2.63-.98-2.62-1.1-2.6-1.22-2.62-1.37-2.63-1.53-2.67-1.7-2.74-1.9-2.82-2.14-2.93-2.44-3.08-2.78-3.3-3.23-3.6-3.83L898 7.24l-4.8-6.06-6.47-8.93-29.43-43.43-4.8-6.06-4.03-4.68-3.6-3.83-3.3-3.23-3.08-2.78-2.94-2.43-2.82-2.13-2.73-1.9-2.67-1.7-2.64-1.53-2.63-1.37-2.6-1.22-2.62-1.1-2.64-.98-2.67-.87-2.72-.77-2.78-.65-1.12-.2" stroke="#023430" stroke-linejoin="round" fill="none"/><path d="M960.03 39.53L960 40l.02.48-.54-.02v-.95z" stroke="#023430" stroke-width=".05" fill="#023430"/><path d="M791.5-89.9l13.64-6.24-1.42 14.93z" stroke="#023430" fill="#023430"/><path d="M959.5 40H805" stroke="#023430" fill="none"/><path d="M960 40l.02.48h-.53v-.95h.53z" stroke="#023430" stroke-width=".05" fill="#023430"/><path d="M791.5 40l13-7.5v15z" stroke="#023430" fill="#023430"/><path d="M959.5 40l-2.88.07-3.22.2-3.1.33-2.95.43-2.87.55-2.8.66-2.7.76-2.7.87-2.63.98-2.62 1.1-2.6 1.22-2.62 1.37-2.63 1.53-2.67 1.7-2.74 1.9-2.82 2.14-2.93 2.44-3.08 2.78-3.3 3.23-3.6 3.83-4.02 4.68-4.8 6.06-6.47 8.93-29.43 43.43-4.8 6.06-4.03 4.68-3.6 3.83-3.3 3.23-3.08 2.78-2.94 2.43-2.82 2.13-2.73 1.9-2.67 1.7-2.64 1.53-2.63 1.36-2.6 1.23-2.62 1.1-2.64.98-2.67.87-2.72.76-2.78.66-1.12.2" stroke="#023430" stroke-linejoin="round" fill="none"/><path d="M960 40l.02.48h-.52l-.02-.94.55-.02z" stroke="#023430" stroke-width=".05" fill="#023430"/><path d="M791.5 169.9l12.22-8.7 1.42 14.94z" stroke="#023430" fill="#023430"/><path d="M729-90l-25.5.52-20.47 1.27-17.16 1.8-15.36 2.25-15.04 2.88-17.97 4.24L561.3-62.5l-15.05 2.88-15.36 2.27-17.15 1.8-20.48 1.27-25.5.5" stroke="#023430" stroke-linejoin="round" fill="none"/><path d="M729.5-90l.02.47-.53.02-.03-.97h.57zM467.8-53.3h-.56l.04-.47-.06-.47h.57z" stroke="#023430" stroke-width=".05" fill="#023430"/><path d="M729 40l-10.4-.22-9.8-.62-8.97-.94-8.27-1.22-7.72-1.47-7.3-1.7-7-1.96-6.75-2.2-6.66-2.47-6.65-2.8-6.82-3.2-7.18-3.76-8-4.63-10.02-6.36-48.2-33-8-4.64-7.18-3.76-6.8-3.2-6.66-2.8-6.65-2.48-6.77-2.2-6.98-1.94-7.3-1.7-7.73-1.5-8.27-1.2-8.95-.94-9.82-.62-10.4-.2" stroke="#023430" stroke-linejoin="round" fill="none"/><path d="M729.54 39.53l-.04.46.02.48-.55-.02.02-.95zM467.8-54.24v.95h-.56l.04-.47-.06-.47z" stroke="#023430" stroke-width=".05" fill="#023430"/><path d="M729 40l-10.38.22-9.8.62-8.95.94-8.27 1.2-7.7 1.48-7.3 1.7-6.98 1.96-6.76 2.2-6.64 2.47-6.64 2.78-6.8 3.2-7.18 3.75-7.98 4.62-9.95 6.33-48.5 33.27-8 4.6-7.17 3.77-6.8 3.2-6.64 2.8-6.64 2.46-6.76 2.2-6.97 1.94-7.3 1.7-7.72 1.5-8.26 1.2-8.95.94-9.8.6-10.4.23" stroke="#023430" stroke-linejoin="round" fill="none"/><path d="M729.5 40l.02.48H729l-.03-.94.57-.02zM467.8 134.37h-.56l.04-.48-.06-.48h.57z" stroke="#023430" stroke-width=".05" fill="#023430"/><path d="M729 170l-25.58-.52-20.53-1.28-17.2-1.8-15.4-2.27-15.12-2.88-18.2-4.3-55.38-14.3-15.1-2.88-15.4-2.27-17.2-1.8-20.54-1.28-25.58-.5" stroke="#023430" stroke-linejoin="round" fill="none"/><path d="M729.54 169.53l-.04.46.02.48h-.55l.02-.97zM467.8 133.42v.95h-.56l.04-.48-.06-.48z" stroke="#023430" stroke-width=".05" fill="#023430"/><path d="M1040.77 40l2.9-.07 3.22-.2 3.08-.33 2.97-.44 2.88-.55 2.8-.64 2.73-.76 2.68-.87 2.64-1 2.63-1.1 2.62-1.22 2.62-1.36 2.65-1.53 2.67-1.7 2.74-1.9 2.84-2.15 2.94-2.43 3.1-2.8 3.3-3.22 3.6-3.84 4.05-4.7 4.8-6.1 6.53-9 29.27-43.13 4.8-6.1 4.07-4.7 3.6-3.83 3.3-3.23 3.1-2.8 2.93-2.42 2.83-2.15 2.74-1.9 2.68-1.7 2.65-1.54 2.62-1.37 2.6-1.24 2.64-1.1 2.63-1 2.68-.86 2.74-.76 2.8-.66 1.16-.22" stroke="#00684a" stroke-linejoin="round" fill="none"/><path d="M1040.8 40.46l-.56.02.03-.48-.02-.48h.53z" stroke="#00684a" stroke-width=".05" fill="#00684a"/><path d="M1209-89.9l-12.22 8.7-1.4-14.95z" stroke="#00684a" fill="#00684a"/><path d="M1040.77 40h154.74" stroke="#00684a" stroke-linejoin="round" fill="none"/><path d="M1040.8 40.48h-.56l.03-.48-.02-.48h.54z" stroke="#00684a" stroke-width=".05" fill="#00684a"/><path d="M1209 40l-13 7.5v-15z" stroke="#00684a" fill="#00684a"/><path d="M1040.77 40l2.9.07 3.22.2 3.08.33 2.97.44 2.88.55 2.8.64 2.73.76 2.68.87 2.64 1 2.63 1.1 2.62 1.22 2.62 1.36 2.65 1.53 2.67 1.7 2.74 1.9 2.84 2.15 2.94 2.43 3.1 2.78 3.3 3.24 3.6 3.84 4.05 4.7 4.8 6.1 6.53 9 29.27 43.13 4.8 6.1 4.07 4.7 3.6 3.83 3.3 3.24 3.1 2.78 2.93 2.43 2.83 2.15 2.74 1.9 2.68 1.7 2.65 1.54 2.62 1.37 2.6 1.24 2.64 1.1 2.63 1 2.68.86 2.74.76 2.8.66 1.16.22" stroke="#00684a" stroke-linejoin="round" fill="none"/><path d="M1040.8 39.54l-.02.95-.54-.03.03-.47-.02-.48z" stroke="#00684a" stroke-width=".05" fill="#00684a"/><path d="M1209 169.9l-13.63 6.25 1.4-14.94z" stroke="#00684a" fill="#00684a"/><path d="M1529.23-54.04l-26.2-.54-24.95-1.57-25.53-2.7-32.05-4.77-114.1-19.5-33.46-3.5-2.7-.23" stroke="#00684a" stroke-linejoin="round" fill="none"/><path d="M1529.77-54.5l-.04.47v.47h-.53l.02-.96zM1270.3-87.33l-.1.95-.5-.04.08-.95z" stroke="#00684a" stroke-width=".05" fill="#00684a"/><path d="M1529.22-54.02l-10.16.2-9.62.6-8.8.93-8.1 1.2-7.6 1.45-7.17 1.68-6.86 1.92-6.64 2.16-6.53 2.44-6.52 2.74-6.65 3.14-7 3.66-7.75 4.48-9.45 6-50.42 34.85-7.74 4.48-7.02 3.67-6.66 3.13-6.52 2.75-6.53 2.43-6.65 2.16-6.86 1.9-7.17 1.7-7.6 1.44-8.12 1.2-8.8.92-9.6.6-10.18.2" stroke="#00684a" stroke-linejoin="round" fill="none"/><path d="M1529.73-54.03v.47h-.5l-.03-.94h.57zM1270.5 40.48h-.54l.04-.48-.02-.48h.53z" stroke="#00684a" stroke-width=".05" fill="#00684a"/><path d="M1529.22 133.62l-10.2-.2-9.66-.62-8.82-.92-8.14-1.2-7.6-1.45-7.2-1.7-6.88-1.9-6.67-2.17-6.55-2.44-6.55-2.75-6.68-3.15-7.05-3.7-7.8-4.5-9.6-6.1-49.5-34.1-7.8-4.52-7.06-3.7-6.7-3.14-6.53-2.75-6.55-2.43L1329 48l-6.87-1.9-7.2-1.7-7.6-1.45-8.14-1.2-8.83-.92-9.66-.6-10.2-.22" stroke="#00684a" stroke-linejoin="round" fill="none"/><path d="M1529.77 133.15l-.04.48v.47h-.53l.02-.96zM1270.5 39.52v.95h-.54l.04-.47-.02-.48z" stroke="#00684a" stroke-width=".05" fill="#00684a"/><path d="M1529.22 133.64l-24.94.5-20.1 1.25-16.86 1.75-15.07 2.22-14.68 2.8-17.1 4.04-58.3 15.25-14.7 2.8-15.07 2.23-16.86 1.76-20.1 1.25-24.94.5" stroke="#00684a" stroke-linejoin="round" fill="none"/><path d="M1529.73 133.63v.47h-.5l-.03-.94h.57zM1270.5 170.47h-.54l.04-.47-.02-.47h.53z" stroke="#00684a" stroke-width=".05" fill="#00684a"/><path d="M973.8 16a6 6 0 0 1 6-6h40.67a6 6 0 0 1 6 6v47.17a6 6 0 0 1-6 6H979.8a6 6 0 0 1-6-6z" fill="none"/><use xlink:href="#a" transform="matrix(1,0,0,1,978.7971769196299,15.00000000000001) translate(5.5 17.912000000000003)"/><use xlink:href="#b" transform="matrix(1,0,0,1,978.7971769196299,15.00000000000001) translate(0.16666666666666785 44.727999999999994)"/><path d="M382.2-194a6 6 0 0 1 6-6h104.68a6 6 0 0 1 6 6v25.94a6 6 0 0 1-6 6H388.2a6 6 0 0 1-6-6z" fill="none"/><use xlink:href="#c" transform="matrix(1,0,0,1,387.20370767851983,-195) translate(0.1666666666666714 21.9)"/><use xlink:href="#d" transform="matrix(1,0,0,1,387.20370767851983,-195) translate(93.5 21.9)"/><path d="M701.93-194a6 6 0 0 1 6-6H812.6a6 6 0 0 1 6 6v25.94a6 6 0 0 1-6 6H707.94a6 6 0 0 1-6-6z" fill="none"/><use xlink:href="#c" transform="matrix(1,0,0,1,706.9326871725932,-195) translate(0.1666666666666714 21.9)"/><use xlink:href="#e" transform="matrix(1,0,0,1,706.9326871725932,-195) translate(93.5 21.9)"/><path d="M1181.66-194a6 6 0 0 1 6-6h104.68a6 6 0 0 1 6 6v25.94a6 6 0 0 1-6 6h-104.68a6 6 0 0 1-6-6z" fill="none"/><use xlink:href="#f" transform="matrix(1,0,0,1,1186.6616666666666,-195) translate(0.1666666666666714 21.9)"/><use xlink:href="#g" transform="matrix(1,0,0,1,1186.6616666666666,-195) translate(93.5 21.9)"/><path d="M1501.4-194a6 6 0 0 1 6-6h104.67a6 6 0 0 1 6 6v25.94a6 6 0 0 1-6 6H1507.4a6 6 0 0 1-6-6z" fill="none"/><use xlink:href="#f" transform="matrix(1,0,0,1,1506.39064616074,-195) translate(0.1666666666666714 21.9)"/><use xlink:href="#h" transform="matrix(1,0,0,1,1506.39064616074,-195) translate(93.5 21.9)"/><path d="M440 266a6 6 0 0 1 6-6h304.68a6 6 0 0 1 6 6v25.94a6 6 0 0 1-6 6H446a6 6 0 0 1-6-6z" fill="none"/><use xlink:href="#i" transform="matrix(1,0,0,1,445,265) translate(0.16666666666662877 21.9)"/><use xlink:href="#j" transform="matrix(1,0,0,1,445,265) translate(26.833333333333297 21.9)"/><path d="M1240 266a6 6 0 0 1 6-6h304.68a6 6 0 0 1 6 6v25.94a6 6 0 0 1-6 6H1246a6 6 0 0 1-6-6z" fill="none"/><g><use xlink:href="#k" transform="matrix(1,0,0,1,1245.0000000000002,265) translate(0.1666666666666572 21.9)"/><use xlink:href="#l" transform="matrix(1,0,0,1,1245.0000000000002,265) translate(293.5 21.9)"/></g><path d="M828.08 303.94a6 6 0 0 1 6-6h332.12a6 6 0 0 1 6 6v59.3a6 6 0 0 1-6 6H834.07a6 6 0 0 1-6-6z" fill="none"/><g><use xlink:href="#m" transform="matrix(1,0,0,1,833.0749546974077,302.9433333333333) translate(80.83333333333333 22.21777777777778)"/><use xlink:href="#n" transform="matrix(1,0,0,1,833.0749546974077,302.9433333333333) translate(0.44444444444442865 56.09333333333333)"/><use xlink:href="#o" transform="matrix(1,0,0,1,833.0749546974077,302.9433333333333) translate(78.6 56.09333333333333)"/><use xlink:href="#p" transform="matrix(1,0,0,1,833.0749546974077,302.9433333333333) translate(168.88888888888889 56.09333333333333)"/><use xlink:href="#q" transform="matrix(1,0,0,1,833.0749546974077,302.9433333333333) translate(183.86666666666667 56.09333333333333)"/><use xlink:href="#r" transform="matrix(1,0,0,1,833.0749546974077,302.9433333333333) translate(228.86666666666667 56.09333333333333)"/></g><defs><path fill="#fff" d="M92 0v-652h432v124H240v131h241v123H240v150h294V0H92" id="s"/><path fill="#fff" d="M186-467c22 140 24 303 21 467H66v-652h151c65 155 133 308 193 468h4c-22-140-24-304-21-468h141V0H383c-65-155-132-308-193-467h-4" id="t"/><path fill="#fff" d="M226 0v-528H31v-124h538v124H374V0H226" id="u"/><g id="a"><use transform="matrix(0.017777777777777778,0,0,0.017777777777777778,0,0)" xlink:href="#s"/><use transform="matrix(0.017777777777777778,0,0,0.017777777777777778,10.666666666666666,0)" xlink:href="#t"/><use transform="matrix(0.017777777777777778,0,0,0.017777777777777778,21.333333333333332,0)" xlink:href="#u"/></g><path fill="#00ed64" d="M60 140V69h480v71H60" id="v"/><path fill="#00ed64" d="M138-591c65-9 118-22 164-47h61v570h167V0H97v-68h184v-470H138v-53" id="w"/><path fill="#00ed64" d="M193-65c102-10 218-4 329-6V0H73v-49c115-104 215-190 296-298 73-97 40-243-100-236-68 4-116 40-153 77l-47-47c54-53 109-97 210-97 125 2 208 65 208 188 0 113-73 176-141 250-44 45-95 94-153 147" id="x"/><path fill="#00ed64" d="M518-170C522 17 252 53 114-34 92-47 73-62 57-78l42-54c43 38 101 78 183 76 84-2 153-37 153-117 0-108-109-125-232-127v-63c112-2 209-21 209-119 0-67-59-102-130-101-67 0-120 31-157 65l-44-52c49-42 116-80 204-80 116 3 211 48 211 162 0 87-68 127-136 152v4c82 20 155 64 158 162" id="y"/><g id="b"><use transform="matrix(0.017777777777777778,0,0,0.017777777777777778,0,0)" xlink:href="#v"/><use transform="matrix(0.017777777777777778,0,0,0.017777777777777778,10.666666666666666,0)" xlink:href="#w"/><use transform="matrix(0.017777777777777778,0,0,0.017777777777777778,21.333333333333332,0)" xlink:href="#x"/><use transform="matrix(0.017777777777777778,0,0,0.017777777777777778,32,0)" xlink:href="#y"/></g><path fill="#023430" d="M394-51c-32 31-80 62-138 63C111 5 47-97 47-248c0-148 72-260 212-260 61 0 93 21 125 53h4c-10-74-6-162-7-246h147V0H408l-11-51h-3zM198-250c0 85 23 138 96 142 43-2 64-18 87-46v-201c-23-20-46-32-83-33-66 4-103 59-100 138" id="z"/><path fill="#023430" d="M527-46c-50 32-121 57-197 58C162 6 55-79 55-248c0-161 100-255 258-260 172-5 257 127 227 304H202c14 71 65 103 148 104 54-1 88-15 128-35zM318-396c-65 1-101 36-114 93h212c-7-62-40-93-98-93" id="A"/><path fill="#023430" d="M553-256c0 153-72 256-215 268-45 0-86-18-122-54h-4c9 69 7 148 7 226H72v-680h120l11 50h3c35-31 87-61 148-62 140 7 199 107 199 252zM219-141c22 20 50 32 85 33 70-5 98-60 98-146 0-146-110-169-183-88v201" id="B"/><path fill="#023430" d="M550-15c-47 14-98 28-162 27-144 0-215-74-214-218v-175H49v-109l132-6 19-152h121v152h210v115H321v174c0 76 30 103 105 104 39 0 68-8 98-18" id="C"/><path fill="#023430" d="M320-383c-51 2-70 24-101 52V0H72v-701h147c0 92 2 186-8 267h3c38-37 88-76 165-74 224-5 147 301 161 508H393v-287c-1-62-13-95-73-96" id="D"/><path fill="#023430" d="M416-428c1 66-49 119-116 117-67 2-117-51-116-117 4-72 43-118 116-118s112 46 116 118zm0 323c1 66-49 119-116 117-67 2-117-51-116-117 4-72 43-118 116-118s112 46 116 118" id="E"/><g id="c"><use transform="matrix(0.022222222222222223,0,0,0.022222222222222223,0,0)" xlink:href="#z"/><use transform="matrix(0.022222222222222223,0,0,0.022222222222222223,13.333333333333334,0)" xlink:href="#A"/><use transform="matrix(0.022222222222222223,0,0,0.022222222222222223,26.666666666666668,0)" xlink:href="#B"/><use transform="matrix(0.022222222222222223,0,0,0.022222222222222223,40,0)" xlink:href="#C"/><use transform="matrix(0.022222222222222223,0,0,0.022222222222222223,53.333333333333336,0)" xlink:href="#D"/><use transform="matrix(0.022222222222222223,0,0,0.022222222222222223,66.66666666666667,0)" xlink:href="#E"/></g><path fill="#023430" d="M269-116c81-11 175-7 266-8V0H58v-84c104-91 210-169 282-280 48-73 15-174-82-168-57 3-95 36-128 65l-79-79c56-56 117-101 227-101 134 5 224 69 224 202 0 115-82 179-145 247-28 28-57 55-88 82" id="F"/><use transform="matrix(0.022222222222222223,0,0,0.022222222222222223,0,0)" xlink:href="#F" id="d"/><path fill="#023430" d="M109-577c72-10 130-27 180-58h108v516h144V0H79v-119h171v-367H109v-91" id="G"/><use transform="matrix(0.022222222222222223,0,0,0.022222222222222223,0,0)" xlink:href="#G" id="e"/><path fill="#00684a" d="M394-51c-32 31-80 62-138 63C111 5 47-97 47-248c0-148 72-260 212-260 61 0 93 21 125 53h4c-10-74-6-162-7-246h147V0H408l-11-51h-3zM198-250c0 85 23 138 96 142 43-2 64-18 87-46v-201c-23-20-46-32-83-33-66 4-103 59-100 138" id="H"/><path fill="#00684a" d="M527-46c-50 32-121 57-197 58C162 6 55-79 55-248c0-161 100-255 258-260 172-5 257 127 227 304H202c14 71 65 103 148 104 54-1 88-15 128-35zM318-396c-65 1-101 36-114 93h212c-7-62-40-93-98-93" id="I"/><path fill="#00684a" d="M553-256c0 153-72 256-215 268-45 0-86-18-122-54h-4c9 69 7 148 7 226H72v-680h120l11 50h3c35-31 87-61 148-62 140 7 199 107 199 252zM219-141c22 20 50 32 85 33 70-5 98-60 98-146 0-146-110-169-183-88v201" id="J"/><path fill="#00684a" d="M550-15c-47 14-98 28-162 27-144 0-215-74-214-218v-175H49v-109l132-6 19-152h121v152h210v115H321v174c0 76 30 103 105 104 39 0 68-8 98-18" id="K"/><path fill="#00684a" d="M320-383c-51 2-70 24-101 52V0H72v-701h147c0 92 2 186-8 267h3c38-37 88-76 165-74 224-5 147 301 161 508H393v-287c-1-62-13-95-73-96" id="L"/><path fill="#00684a" d="M416-428c1 66-49 119-116 117-67 2-117-51-116-117 4-72 43-118 116-118s112 46 116 118zm0 323c1 66-49 119-116 117-67 2-117-51-116-117 4-72 43-118 116-118s112 46 116 118" id="M"/><g id="f"><use transform="matrix(0.022222222222222223,0,0,0.022222222222222223,0,0)" xlink:href="#H"/><use transform="matrix(0.022222222222222223,0,0,0.022222222222222223,13.333333333333334,0)" xlink:href="#I"/><use transform="matrix(0.022222222222222223,0,0,0.022222222222222223,26.666666666666668,0)" xlink:href="#J"/><use transform="matrix(0.022222222222222223,0,0,0.022222222222222223,40,0)" xlink:href="#K"/><use transform="matrix(0.022222222222222223,0,0,0.022222222222222223,53.333333333333336,0)" xlink:href="#L"/><use transform="matrix(0.022222222222222223,0,0,0.022222222222222223,66.66666666666667,0)" xlink:href="#M"/></g><path fill="#00684a" d="M109-577c72-10 130-27 180-58h108v516h144V0H79v-119h171v-367H109v-91" id="N"/><use transform="matrix(0.022222222222222223,0,0,0.022222222222222223,0,0)" xlink:href="#N" id="g"/><path fill="#00684a" d="M269-116c81-11 175-7 266-8V0H58v-84c104-91 210-169 282-280 48-73 15-174-82-168-57 3-95 36-128 65l-79-79c56-56 117-101 227-101 134 5 224 69 224 202 0 115-82 179-145 247-28 28-57 55-88 82" id="O"/><use transform="matrix(0.022222222222222223,0,0,0.022222222222222223,0,0)" xlink:href="#O" id="h"/><path fill="#023430" d="M291 17L13-250v-4l278-267 70 79-150 132h357v116H211L361-62" id="P"/><use transform="matrix(0.022222222222222223,0,0,0.022222222222222223,0,0)" xlink:href="#P" id="i"/><path fill="#023430" d="M518-365c-116-39-219 10-255 107V0H116v-496h120l12 108h3c46-93 174-152 297-100" id="Q"/><path fill="#023430" d="M218 0L31-496h148c42 128 87 253 123 387h4c35-135 80-259 122-387h141L387 0H218" id="R"/><path fill="#023430" d="M540-148C533 12 315 37 165-10 122-25 85-43 53-64l63-92c55 34 118 53 200 59 62 5 110-52 54-75-113-47-288-41-286-181 2-153 211-180 350-133 36 14 67 29 93 46l-66 88c-45-27-97-41-162-47-56-5-97 48-43 69 108 39 289 34 284 182" id="S"/><path fill="#023430" d="M60 164V54h480v110H60" id="T"/><path fill="#023430" d="M544-15c-46 14-88 28-149 27-126 2-189-82-189-206v-391H50v-116h303v513c-8 88 96 94 158 65" id="U"/><path fill="#023430" d="M400-56c-45 33-103 68-176 68C125 9 61-42 61-138c0-158 168-165 327-181-7-50-44-73-106-72-61 1-103 24-151 46l-52-96c63-35 139-67 232-67 142 1 224 76 224 224V0H415l-11-56h-4zM210-179c-29 41 9 80 61 77 50-3 86-24 117-47v-82c-77 6-147 8-178 52" id="V"/><path fill="#023430" d="M278 0v-381H79v-115h346V0H278zm165-663c1 55-43 90-98 89-55 1-99-34-98-89-1-55 43-93 98-92 55-1 99 37 98 92" id="W"/><path fill="#023430" d="M553-248c0 161-97 260-253 260S47-87 47-248s97-260 253-260 253 99 253 260zm-355 0c0 78 28 140 102 141 74-1 102-63 102-141s-28-140-102-141c-74 1-102 63-102 141" id="X"/><path fill="#023430" d="M320-383c-51 2-70 24-101 52V0H72v-496h120l11 66h4c41-39 92-79 171-78 225-5 148 300 162 508H393v-287c-1-62-13-95-73-96" id="Y"/><g id="j"><use transform="matrix(0.022222222222222223,0,0,0.022222222222222223,0,0)" xlink:href="#Q"/><use transform="matrix(0.022222222222222223,0,0,0.022222222222222223,13.333333333333334,0)" xlink:href="#A"/><use transform="matrix(0.022222222222222223,0,0,0.022222222222222223,26.666666666666668,0)" xlink:href="#R"/><use transform="matrix(0.022222222222222223,0,0,0.022222222222222223,40,0)" xlink:href="#A"/><use transform="matrix(0.022222222222222223,0,0,0.022222222222222223,53.333333333333336,0)" xlink:href="#Q"/><use transform="matrix(0.022222222222222223,0,0,0.022222222222222223,66.66666666666667,0)" xlink:href="#S"/><use transform="matrix(0.022222222222222223,0,0,0.022222222222222223,80,0)" xlink:href="#A"/><use transform="matrix(0.022222222222222223,0,0,0.022222222222222223,93.33333333333334,0)" xlink:href="#T"/><use transform="matrix(0.022222222222222223,0,0,0.022222222222222223,106.66666666666666,0)" xlink:href="#Q"/><use transform="matrix(0.022222222222222223,0,0,0.022222222222222223,119.99999999999999,0)" xlink:href="#A"/><use transform="matrix(0.022222222222222223,0,0,0.022222222222222223,133.33333333333331,0)" xlink:href="#U"/><use transform="matrix(0.022222222222222223,0,0,0.022222222222222223,146.66666666666666,0)" xlink:href="#V"/><use transform="matrix(0.022222222222222223,0,0,0.022222222222222223,160,0)" xlink:href="#C"/><use transform="matrix(0.022222222222222223,0,0,0.022222222222222223,173.33333333333334,0)" xlink:href="#W"/><use transform="matrix(0.022222222222222223,0,0,0.022222222222222223,186.66666666666669,0)" xlink:href="#X"/><use transform="matrix(0.022222222222222223,0,0,0.022222222222222223,200.00000000000006,0)" xlink:href="#Y"/><use transform="matrix(0.022222222222222223,0,0,0.022222222222222223,213.33333333333337,0)" xlink:href="#S"/><use transform="matrix(0.022222222222222223,0,0,0.022222222222222223,226.6666666666667,0)" xlink:href="#D"/><use transform="matrix(0.022222222222222223,0,0,0.022222222222222223,240.00000000000006,0)" xlink:href="#W"/><use transform="matrix(0.022222222222222223,0,0,0.022222222222222223,253.33333333333337,0)" xlink:href="#B"/><use transform="matrix(0.022222222222222223,0,0,0.022222222222222223,266.66666666666674,0)" xlink:href="#S"/></g><path fill="#00684a" d="M557-578c-78-31-217-38-197 82h171v115H360V0H213v-381H82v-109l131-6c-8-173 129-241 303-209 25 5 48 12 69 19" id="Z"/><path fill="#00684a" d="M553-248c0 161-97 260-253 260S47-87 47-248s97-260 253-260 253 99 253 260zm-355 0c0 78 28 140 102 141 74-1 102-63 102-141s-28-140-102-141c-74 1-102 63-102 141" id="aa"/><path fill="#00684a" d="M518-365c-116-39-219 10-255 107V0H116v-496h120l12 108h3c46-93 174-152 297-100" id="ab"/><path fill="#00684a" d="M85 0L4-496h142c17 125 35 248 47 377h3c12-110 36-208 54-311h107c19 104 43 203 57 311h4c11-128 26-253 42-377h136L520 0H347c-17-102-35-198-45-308h-4c-9 103-27 209-43 308H85" id="ac"/><path fill="#00684a" d="M400-56c-45 33-103 68-176 68C125 9 61-42 61-138c0-158 168-165 327-181-7-50-44-73-106-72-61 1-103 24-151 46l-52-96c63-35 139-67 232-67 142 1 224 76 224 224V0H415l-11-56h-4zM210-179c-29 41 9 80 61 77 50-3 86-24 117-47v-82c-77 6-147 8-178 52" id="ad"/><path fill="#00684a" d="M60 164V54h480v110H60" id="ae"/><path fill="#00684a" d="M544-15c-46 14-88 28-149 27-126 2-189-82-189-206v-391H50v-116h303v513c-8 88 96 94 158 65" id="af"/><path fill="#00684a" d="M278 0v-381H79v-115h346V0H278zm165-663c1 55-43 90-98 89-55 1-99-34-98-89-1-55 43-93 98-92 55-1 99 37 98 92" id="ag"/><path fill="#00684a" d="M320-383c-51 2-70 24-101 52V0H72v-496h120l11 66h4c41-39 92-79 171-78 225-5 148 300 162 508H393v-287c-1-62-13-95-73-96" id="ah"/><path fill="#00684a" d="M540-148C533 12 315 37 165-10 122-25 85-43 53-64l63-92c55 34 118 53 200 59 62 5 110-52 54-75-113-47-288-41-286-181 2-153 211-180 350-133 36 14 67 29 93 46l-66 88c-45-27-97-41-162-47-56-5-97 48-43 69 108 39 289 34 284 182" id="ai"/><g id="k"><use transform="matrix(0.022222222222222223,0,0,0.022222222222222223,0,0)" xlink:href="#Z"/><use transform="matrix(0.022222222222222223,0,0,0.022222222222222223,13.333333333333334,0)" xlink:href="#aa"/><use transform="matrix(0.022222222222222223,0,0,0.022222222222222223,26.666666666666668,0)" xlink:href="#ab"/><use transform="matrix(0.022222222222222223,0,0,0.022222222222222223,40,0)" xlink:href="#ac"/><use transform="matrix(0.022222222222222223,0,0,0.022222222222222223,53.333333333333336,0)" xlink:href="#ad"/><use transform="matrix(0.022222222222222223,0,0,0.022222222222222223,66.66666666666667,0)" xlink:href="#ab"/><use transform="matrix(0.022222222222222223,0,0,0.022222222222222223,80,0)" xlink:href="#H"/><use transform="matrix(0.022222222222222223,0,0,0.022222222222222223,93.33333333333334,0)" xlink:href="#ae"/><use transform="matrix(0.022222222222222223,0,0,0.022222222222222223,106.66666666666666,0)" xlink:href="#ab"/><use transform="matrix(0.022222222222222223,0,0,0.022222222222222223,119.99999999999999,0)" xlink:href="#I"/><use transform="matrix(0.022222222222222223,0,0,0.022222222222222223,133.33333333333331,0)" xlink:href="#af"/><use transform="matrix(0.022222222222222223,0,0,0.022222222222222223,146.66666666666666,0)" xlink:href="#ad"/><use transform="matrix(0.022222222222222223,0,0,0.022222222222222223,160,0)" xlink:href="#K"/><use transform="matrix(0.022222222222222223,0,0,0.022222222222222223,173.33333333333334,0)" xlink:href="#ag"/><use transform="matrix(0.022222222222222223,0,0,0.022222222222222223,186.66666666666669,0)" xlink:href="#aa"/><use transform="matrix(0.022222222222222223,0,0,0.022222222222222223,200.00000000000006,0)" xlink:href="#ah"/><use transform="matrix(0.022222222222222223,0,0,0.022222222222222223,213.33333333333337,0)" xlink:href="#ai"/><use transform="matrix(0.022222222222222223,0,0,0.022222222222222223,226.6666666666667,0)" xlink:href="#L"/><use transform="matrix(0.022222222222222223,0,0,0.022222222222222223,240.00000000000006,0)" xlink:href="#ag"/><use transform="matrix(0.022222222222222223,0,0,0.022222222222222223,253.33333333333337,0)" xlink:href="#J"/><use transform="matrix(0.022222222222222223,0,0,0.022222222222222223,266.66666666666674,0)" xlink:href="#ai"/></g><path fill="#00684a" d="M308 17l-69-79 150-132H31v-116h358L239-442l69-79 278 267v4" id="aj"/><use transform="matrix(0.022222222222222223,0,0,0.022222222222222223,0,0)" xlink:href="#aj" id="l"/><path d="M502-285c66 115-27 238-149 246v149h-98V-36c-72-8-147-39-191-79l64-100c57 32 103 56 181 62 60 5 101-48 53-80-97-61-271-64-271-218 0-96 74-150 164-163v-131h98v130c72 9 119 41 160 82l-73 84c-43-29-74-46-139-50-64-4-93 51-47 76 81 45 203 58 248 138" id="ak"/><path d="M547-61c-50 44-121 73-204 73C175 12 67-79 67-248c0-170 118-252 287-260 79-1 144 30 186 67l-68 91c-96-80-254-32-254 102 0 84 57 142 139 141 55 1 97-24 131-47" id="al"/><path d="M553-248c0 161-97 260-253 260S47-87 47-248s97-260 253-260 253 99 253 260zm-355 0c0 78 28 140 102 141 74-1 102-63 102-141s-28-140-102-141c-74 1-102 63-102 141" id="am"/><path d="M320-383c-51 2-70 24-101 52V0H72v-496h120l11 66h4c41-39 92-79 171-78 225-5 148 300 162 508H393v-287c-1-62-13-95-73-96" id="an"/><path d="M400-56c-45 33-103 68-176 68C125 9 61-42 61-138c0-158 168-165 327-181-7-50-44-73-106-72-61 1-103 24-151 46l-52-96c63-35 139-67 232-67 142 1 224 76 224 224V0H415l-11-56h-4zM210-179c-29 41 9 80 61 77 50-3 86-24 117-47v-82c-77 6-147 8-178 52" id="ao"/><path d="M550-15c-47 14-98 28-162 27-144 0-215-74-214-218v-175H49v-109l132-6 19-152h121v152h210v115H321v174c0 76 30 103 105 104 39 0 68-8 98-18" id="ap"/><path d="M295-540c-20 90-44 183-66 270h137c-21-88-48-179-67-270h-4zM9 0l203-652h176L591 0H435l-39-155H199L159 0H9" id="aq"/><path d="M518-365c-116-39-219 10-255 107V0H116v-496h120l12 108h3c46-93 174-152 297-100" id="ar"/><path d="M375 5C336 133 238 226 67 184L93 72c81 22 140-20 153-85L31-496h146c45 120 96 234 133 362h4c35-125 77-243 118-362h139" id="as"/><path d="M540-148C533 12 315 37 165-10 122-25 85-43 53-64l63-92c55 34 118 53 200 59 62 5 110-52 54-75-113-47-288-41-286-181 2-153 211-180 350-133 36 14 67 29 93 46l-66 88c-45-27-97-41-162-47-56-5-97 48-43 69 108 39 289 34 284 182" id="at"/><g id="m"><use transform="matrix(0.022222222222222223,0,0,0.022222222222222223,0,0)" xlink:href="#ak"/><use transform="matrix(0.022222222222222223,0,0,0.022222222222222223,13.333333333333334,0)" xlink:href="#al"/><use transform="matrix(0.022222222222222223,0,0,0.022222222222222223,26.666666666666668,0)" xlink:href="#am"/><use transform="matrix(0.022222222222222223,0,0,0.022222222222222223,40,0)" xlink:href="#an"/><use transform="matrix(0.022222222222222223,0,0,0.022222222222222223,53.333333333333336,0)" xlink:href="#al"/><use transform="matrix(0.022222222222222223,0,0,0.022222222222222223,66.66666666666667,0)" xlink:href="#ao"/><use transform="matrix(0.022222222222222223,0,0,0.022222222222222223,80,0)" xlink:href="#ap"/><use transform="matrix(0.022222222222222223,0,0,0.022222222222222223,93.33333333333334,0)" xlink:href="#aq"/><use transform="matrix(0.022222222222222223,0,0,0.022222222222222223,106.66666666666666,0)" xlink:href="#ar"/><use transform="matrix(0.022222222222222223,0,0,0.022222222222222223,119.99999999999999,0)" xlink:href="#ar"/><use transform="matrix(0.022222222222222223,0,0,0.022222222222222223,133.33333333333331,0)" xlink:href="#ao"/><use transform="matrix(0.022222222222222223,0,0,0.022222222222222223,146.66666666666666,0)" xlink:href="#as"/><use transform="matrix(0.022222222222222223,0,0,0.022222222222222223,160,0)" xlink:href="#at"/></g><path d="M444-116C417-46 351 10 258 10 129 10 72-71 72-203v-319h76v304c0 98 36 160 131 160 92 0 155-56 155-147v-317h75V0h-74l-3-110" id="au"/><path d="M306-463c-93 5-158 54-158 145V0H73v-522h74l3 109-12 5c25-72 99-125 192-125 129 0 176 83 176 216V0h-76v-313c1-94-33-151-124-150" id="av"/><path d="M93 0v-522h75V0H93zm94-689c0 33-23 55-57 54-36 1-57-20-57-54s22-56 57-55c35 0 57 20 57 55" id="aw"/><path d="M346-635c-31-45-137-47-137 32V0h-76v-603c-12-126 162-176 239-91zM40-448v-70h302v70H40" id="ax"/><path d="M506-69c-46 44-115 79-203 79C139 10 36-95 36-259c0-167 95-275 259-275 161 0 244 112 232 287H92l-11-63h389l-18 17c1-103-57-169-157-169-121 0-181 74-182 198 3 127 72 203 200 203 71 0 105-22 154-62" id="ay"/><path d="M491-137C468-48 392 10 285 10 129 10 36-103 36-261s93-272 248-272c111 0 189 59 212 152l-23-8v-351h75V0h-74l-2-130zM114-262c0 118 66 203 182 203 115 0 181-85 181-203s-67-203-181-203c-116 0-182 85-182 203" id="az"/><g id="n"><use transform="matrix(0.022222222222222223,0,0,0.022222222222222223,0,0)" xlink:href="#au"/><use transform="matrix(0.022222222222222223,0,0,0.022222222222222223,12.933333333333334,0)" xlink:href="#av"/><use transform="matrix(0.022222222222222223,0,0,0.022222222222222223,25.733333333333334,0)" xlink:href="#aw"/><use transform="matrix(0.022222222222222223,0,0,0.022222222222222223,31.48888888888889,0)" xlink:href="#ax"/><use transform="matrix(0.022222222222222223,0,0,0.022222222222222223,39.88888888888889,0)" xlink:href="#aw"/><use transform="matrix(0.022222222222222223,0,0,0.022222222222222223,45.644444444444446,0)" xlink:href="#ay"/><use transform="matrix(0.022222222222222223,0,0,0.022222222222222223,58.13333333333333,0)" xlink:href="#az"/></g><path d="M145 0v-659h75V0h-75zM27-450v-72h325v72H27" id="aA"/><path d="M196 0L15-522l80-1L236-98l-25-2 153-342h45l154 342-30 2 144-424h79L575 0h-44L369-372l30 2L242 0h-46" id="aB"/><path d="M571-263C571-99 468 10 304 10 139 10 36-98 36-263c0-163 105-270 268-270 162 0 267 107 267 270zM304-462c-118 0-188 80-190 199 2 120 72 202 190 202s189-83 189-202-71-199-189-199" id="aC"/><path d="M347-440c-109-37-198 34-198 144V0H73v-522h75l2 139-8-19c26-84 111-155 226-122" id="aD"/><path d="M140-168l-3-87 273-267h101zM73 0v-740h75V0H73zm358 0L211-255l53-52L529 0h-98" id="aE"/><g id="o"><use transform="matrix(0.022222222222222223,0,0,0.022222222222222223,0,0)" xlink:href="#av"/><use transform="matrix(0.022222222222222223,0,0,0.022222222222222223,12.8,0)" xlink:href="#ay"/><use transform="matrix(0.022222222222222223,0,0,0.022222222222222223,25.28888888888889,0)" xlink:href="#aA"/><use transform="matrix(0.022222222222222223,0,0,0.022222222222222223,33.53333333333334,0)" xlink:href="#aB"/><use transform="matrix(0.022222222222222223,0,0,0.022222222222222223,50.333333333333336,0)" xlink:href="#aC"/><use transform="matrix(0.022222222222222223,0,0,0.022222222222222223,63.82222222222222,0)" xlink:href="#aD"/><use transform="matrix(0.022222222222222223,0,0,0.022222222222222223,72.11111111111111,0)" xlink:href="#aE"/></g><path d="M56-241v-75h282v75H56" id="aF"/><use transform="matrix(0.022222222222222223,0,0,0.022222222222222223,0,0)" xlink:href="#aF" id="p"/><g id="q"><use transform="matrix(0.022222222222222223,0,0,0.022222222222222223,0,0)" xlink:href="#aC"/><use transform="matrix(0.022222222222222223,0,0,0.022222222222222223,13.488888888888889,0)" xlink:href="#av"/><use transform="matrix(0.022222222222222223,0,0,0.022222222222222223,26.28888888888889,0)" xlink:href="#ay"/></g><path d="M586-261c0 158-92 271-246 271-105 0-183-62-209-143h18v353H73v-742h75l2 127-14 2c24-81 101-139 203-139 154 0 247 113 247 271zm-442-1c0 117 69 200 184 200s183-83 183-199c0-117-68-200-183-200s-184 82-184 199" id="aG"/><g id="r"><use transform="matrix(0.022222222222222223,0,0,0.022222222222222223,0,0)" xlink:href="#aD"/><use transform="matrix(0.022222222222222223,0,0,0.022222222222222223,7.800000000000001,0)" xlink:href="#aC"/><use transform="matrix(0.022222222222222223,0,0,0.022222222222222223,21.28888888888889,0)" xlink:href="#au"/><use transform="matrix(0.022222222222222223,0,0,0.022222222222222223,34.22222222222223,0)" xlink:href="#av"/><use transform="matrix(0.022222222222222223,0,0,0.022222222222222223,47.022222222222226,0)" xlink:href="#az"/><use transform="matrix(0.022222222222222223,0,0,0.022222222222222223,60.82222222222222,0)" xlink:href="#aF"/><use transform="matrix(0.022222222222222223,0,0,0.022222222222222223,69.57777777777778,0)" xlink:href="#aA"/><use transform="matrix(0.022222222222222223,0,0,0.022222222222222223,77.82222222222222,0)" xlink:href="#aD"/><use transform="matrix(0.022222222222222223,0,0,0.022222222222222223,86.11111111111111,0)" xlink:href="#aw"/><use transform="matrix(0.022222222222222223,0,0,0.022222222222222223,91.86666666666667,0)" xlink:href="#aG"/></g></defs></g></svg>