<?xml version="1.0" encoding="UTF-8"?>
<!DOCTYPE svg PUBLIC "-//W3C//DTD SVG 1.1//EN" "http://www.w3.org/Graphics/SVG/1.1/DTD/svg11.dtd">
<svg version="1.1" xmlns="http://www.w3.org/2000/svg" xmlns:xlink="http://www.w3.org/1999/xlink" x="0" y="0" width="640" height="130" viewBox="0, 0, 640, 130">
  <g id="Layer_1">
    <g id="cmd">
      <text transform="matrix(1, 0, 0, 1, 124.5, 17.5)">
        <tspan x="-119.5" y="7.5" font-family="Inconsolata" font-size="24" fill="#004571">db.users.updateOne(</tspan>
      </text>
      <text transform="matrix(1, 0, 0, 1, 71.5, 17.5)">
        <tspan x="-30.5" y="7.5" font-family="Inconsolata" font-size="24" fill="#3299CC">users</tspan>
      </text>
      <text transform="matrix(1, 0, 0, 1, 179.5, 47.156)">
        <tspan x="-144.5" y="7.5" font-family="Inconsolata" font-size="24" fill="#3299CC">{ age : { $lt : 18 } } , </tspan>
      </text>
      <text transform="matrix(1, 0, 0, 1, 209.5, 77.5)">
        <tspan x="-174.5" y="7.5" font-family="Inconsolata" font-size="24" fill="#3299CC">{ $set: { status : "reject" } </tspan>
      </text>
      <text transform="matrix(1, 0, 0, 1, 11.5, 107.5)">
        <tspan x="-6.5" y="7.5" font-family="Inconsolata" font-size="24" fill="#004069">)</tspan>
      </text>
    </g>
    <g id="collection">
      <g>
        <path d="M402,12 L401.965,27 L392,19.407 L402,12 z" fill="#6CB340"/>
        <path d="M490,19.505 L402,19.3" fill-opacity="0" stroke="#6CB340" stroke-width="2"/>
      </g>
      <text transform="matrix(1, 0, 0, 1, 547.891, 17.5)">
        <tspan x="-47.891" y="7.5" font-family="GillSans" font-size="24" fill="#3299CC">collection</tspan>
      </text>
    </g>
    <g id="filter">
      <g>
        <path d="M402,41.5 L401.965,56.5 L392,48.906 L402,41.5 z" fill="#6CB340"/>
        <path d="M490,48.806 L402,48.6" fill-opacity="0" stroke="#6CB340" stroke-width="2"/>
      </g>
      <text transform="matrix(1, 0, 0, 1, 559.943, 47.5)">
        <tspan x="-59.943" y="7.5" font-family="GillSans" font-size="24" fill="#3299CC">update filter</tspan>
      </text>
    </g>
    <g id="action">
      <g>
        <path d="M490,79.5 L402,79.5" fill-opacity="0" stroke="#6CB340" stroke-width="2"/>
        <path d="M402,72 L401.965,87 L392,79.406 L402,72 z" fill="#6CB340"/>
      </g>
      <text transform="matrix(1, 0, 0, 1, 566.441, 77.5)">
        <tspan x="-66.441" y="7.5" font-family="GillSans" font-size="24" fill="#3299CC">update action</tspan>
      </text>
    </g>
  </g>
</svg>
