<svg version="1.1" viewBox="0.0 0.0 960.0 320.0" fill="none" stroke="none" stroke-linecap="square" stroke-miterlimit="10" xmlns:xlink="http://www.w3.org/1999/xlink" xmlns="http://www.w3.org/2000/svg" height="320" width="960"><clipPath id="p.0"><path d="m0 0l960.0 0l0 320.0l-960.0 0l0 -320.0z" clip-rule="nonzero"/></clipPath><g clip-path="url(#p.0)"><path fill="#ffffff" d="m0 0l960.0 0l0 320.0l-960.0 0z" fill-rule="evenodd"/><path fill="#ffffff" d="m19.860893 79.432106l0 0c0 -13.367905 10.8368225 -24.204727 24.204723 -24.204727l72.97638 0l0 0c6.4194946 0 12.576065 2.5501328 17.115326 7.0893974c4.539261 4.5392647 7.0894012 10.695835 7.0894012 17.11533l0 0l0 0c0 13.367897 -10.8368225 24.20472 -24.204727 24.20472l-72.97638 0c-13.367901 0 -24.204723 -10.8368225 -24.204723 -24.20472z" fill-rule="evenodd"/><path stroke="#001e2b" stroke-width="1.3884514435695539" stroke-linejoin="round" stroke-linecap="butt" d="m19.860893 79.432106l0 0c0 -13.367905 10.8368225 -24.204727 24.204723 -24.204727l72.97638 0l0 0c6.4194946 0 12.576065 2.5501328 17.115326 7.0893974c4.539261 4.5392647 7.0894012 10.695835 7.0894012 17.11533l0 0l0 0c0 13.367897 -10.8368225 24.20472 -24.204727 24.20472l-72.97638 0c-13.367901 0 -24.204723 -10.8368225 -24.204723 -24.20472z" fill-rule="evenodd"/><path fill="#001e2b" d="m51.42908 85.42826l0 -11.65625l4.609375 0q0.90625 0 1.640625 0.453125q0.734375 0.453125 1.15625 1.25q0.4375 0.78125 0.4375 1.765625q0 1.03125 -0.4375 1.84375q-0.421875 0.796875 -1.15625 1.28125q-0.734375 0.46875 -1.640625 0.46875l-3.3125 0l0 4.59375l-1.296875 0zm1.296875 -5.859375l3.375 0q0.515625 0 0.921875 -0.296875q0.40625 -0.3125 0.65625 -0.828125q0.25 -0.53125 0.25 -1.21875q0 -0.609375 -0.25 -1.09375q-0.25 -0.5 -0.65625 -0.796875q-0.40625 -0.296875 -0.921875 -0.296875l-3.375 0l0 4.53125zm8.553619 5.859375l0 -8.6875l1.25 0l0.03125 2.3125l-0.140625 -0.3125q0.1875 -0.578125 0.59375 -1.078125q0.40625 -0.5 0.96875 -0.796875q0.5781212 -0.3125 1.2499962 -0.3125q0.28125 0 0.53125 0.046875q0.25 0.046875 0.421875 0.109375l-0.34375 1.390625q-0.21875 -0.09375 -0.453125 -0.125q-0.21875 -0.046875 -0.421875 -0.046875q-0.5625 0 -1.0156212 0.203125q-0.453125 0.1875 -0.765625 0.546875q-0.3125 0.359375 -0.484375 0.828125q-0.15625 0.46875 -0.15625 1.0l0 4.921875l-1.265625 0zm6.5350914 0l0 -8.6875l1.25 0l0 8.6875l-1.25 0zm0.609375 -10.5625q-0.453125 0 -0.703125 -0.234375q-0.234375 -0.25 -0.234375 -0.671875q0 -0.40625 0.25 -0.65625q0.25 -0.25 0.6875 -0.25q0.453125 0 0.703125 0.25q0.25 0.234375 0.25 0.65625q0 0.40625 -0.25 0.65625q-0.25 0.25 -0.703125 0.25zm3.3568115 10.5625l0 -8.6875l1.25 0l0.03125 1.984375l-0.25 0.078125q0.125 -0.5 0.4375 -0.90625q0.3125 -0.40625 0.734375 -0.703125q0.4375 -0.296875 0.953125 -0.453125q0.515625 -0.171875 1.078125 -0.171875q0.6875 0 1.21875 0.234375q0.546875 0.21875 0.921875 0.765625q0.375 0.53125 0.578125 1.421875l-0.296875 -0.15625l0.109375 -0.28125q0.171875 -0.375 0.484375 -0.734375q0.328125 -0.359375 0.75 -0.640625q0.4375 -0.28125 0.9375 -0.4375q0.515625 -0.171875 1.046875 -0.171875q0.90625 0 1.53125 0.390625q0.640625 0.390625 0.96875 1.203125q0.328125 0.796875 0.328125 2.03125l0 5.234375l-1.28125 0l0 -5.171875q0 -0.875 -0.21875 -1.421875q-0.21875 -0.546875 -0.640625 -0.8125q-0.421875 -0.28125 -1.078125 -0.28125q-0.5625 0 -1.046875 0.1875q-0.46875 0.1875 -0.8125 0.53125q-0.328125 0.34375 -0.53125 0.78125q-0.1875 0.4375 -0.1875 0.921875l0 5.265625l-1.265625 0l0 -5.1875q0 -0.84375 -0.234375 -1.390625q-0.21875 -0.546875 -0.65625 -0.828125q-0.421875 -0.28125 -1.046875 -0.28125q-0.5625 0 -1.03125 0.1875q-0.453125 0.1875 -0.796875 0.53125q-0.34375 0.328125 -0.53125 0.765625q-0.1875 0.421875 -0.1875 0.921875l0 5.28125l-1.265625 0zm18.565887 0.171875q-1.125 0 -2.046875 -0.59375q-0.921875 -0.59375 -1.453125 -1.609375q-0.53125 -1.03125 -0.53125 -2.328125q0 -1.3125 0.546875 -2.328125q0.5625 -1.015625 1.484375 -1.59375q0.921875 -0.59375 2.0625 -0.59375q0.6875 0 1.265625 0.203125q0.578125 0.203125 1.03125 0.5625q0.46875 0.359375 0.765625 0.828125q0.3125 0.46875 0.4375 1.03125l-0.375 -0.1875l0.0625 -2.25l1.25 0l0 8.6875l-1.265625 0l0 -2.125l0.328125 -0.21875q-0.125 0.5 -0.453125 0.953125q-0.328125 0.453125 -0.8125 0.8125q-0.46875 0.34375 -1.0625 0.546875q-0.578125 0.203125 -1.234375 0.203125zm0.28125 -1.203125q0.859375 0 1.546875 -0.421875q0.6875 -0.421875 1.078125 -1.171875q0.390625 -0.765625 0.390625 -1.734375q0 -0.96875 -0.390625 -1.71875q-0.390625 -0.75 -1.078125 -1.171875q-0.6875 -0.4375 -1.546875 -0.4375q-0.875 0 -1.5625 0.4375q-0.671875 0.421875 -1.0625 1.171875q-0.390625 0.75 -0.390625 1.71875q0 0.953125 0.375 1.71875q0.390625 0.75 1.078125 1.1875q0.6875 0.421875 1.5625 0.421875zm6.64534 1.03125l0 -8.6875l1.25 0l0.03125 2.3125l-0.140625 -0.3125q0.1875 -0.578125 0.59375 -1.078125q0.40625 -0.5 0.96875 -0.796875q0.578125 -0.3125 1.25 -0.3125q0.28125 0 0.53125 0.046875q0.25 0.046875 0.421875 0.109375l-0.34375 1.390625q-0.21875 -0.09375 -0.453125 -0.125q-0.21875 -0.046875 -0.421875 -0.046875q-0.5625 0 -1.015625 0.203125q-0.453125 0.1875 -0.765625 0.546875q-0.3125 0.359375 -0.484375 0.828125q-0.15625 0.46875 -0.15625 1.0l0 4.921875l-1.265625 0zm7.660095 3.828125l1.6875 -4.09375l0.109375 1.1875l-4.359375 -9.609375l1.421875 0l2.984375 6.65625q0.125 0.265625 0.25 0.625q0.140625 0.359375 0.265625 0.703125l-0.46875 -0.046875q0.109375 -0.28125 0.21875 -0.578125q0.109375 -0.296875 0.21875 -0.578125l2.609375 -6.78125l1.421875 0l-3.5 8.6875l-1.5 3.828125l-1.359375 0z" fill-rule="nonzero"/><path fill="#00ed64" d="m236.52266 21.160105l256.25195 0l0 48.409454l-256.25195 0z" fill-rule="evenodd"/><path stroke="#001e2b" stroke-width="1.041994750656168" stroke-linejoin="round" stroke-linecap="butt" d="m236.52266 21.160105l256.25195 0l0 48.409454l-256.25195 0z" fill-rule="evenodd"/><path fill="#000000" d="m304.16492 51.354588l0 -11.65625l4.5625 0q1.0 0 1.828125 0.484375q0.828125 0.46875 1.3125 1.296875q0.484375 0.8125 0.484375 1.84375q0 0.953125 -0.46875 1.734375q-0.46875 0.78125 -1.265625 1.25q-0.796875 0.453125 -1.796875 0.453125l-3.359375 0l0 4.59375l-1.296875 0zm7.09375 0l-2.921875 -5.125l1.25 -0.4375l3.21875 5.5625l-1.546875 0zm-5.796875 -5.859375l3.46875 0q0.625 0 1.078125 -0.28125q0.46875 -0.28125 0.734375 -0.765625q0.265625 -0.5 0.265625 -1.125q0 -0.6875 -0.3125 -1.21875q-0.3125 -0.53125 -0.875 -0.828125q-0.546875 -0.3125 -1.265625 -0.3125l-3.09375 0l0 4.53125zm12.680969 6.03125q-1.296875 0 -2.3125 -0.5625q-1.0 -0.578125 -1.578125 -1.59375q-0.5625 -1.015625 -0.5625 -2.328125q0 -1.015625 0.3125 -1.828125q0.328125 -0.828125 0.890625 -1.4375q0.578125 -0.625 1.375 -0.96875q0.8125 -0.34375 1.734375 -0.34375q0.890625 0 1.609375 0.328125q0.71875 0.3125 1.234375 0.875q0.53125 0.546875 0.796875 1.3125q0.265625 0.765625 0.234375 1.6875l-0.015625 0.578125l-7.234375 0l-0.1875 -1.046875l6.484375 0l-0.3125 0.28125l0 -0.40625q-0.03125 -0.59375 -0.34375 -1.140625q-0.3125 -0.5625 -0.890625 -0.90625q-0.578125 -0.359375 -1.375 -0.359375q-0.921875 0 -1.609375 0.375q-0.6875 0.375 -1.0625 1.109375q-0.359375 0.734375 -0.359375 1.8125q0 1.03125 0.390625 1.796875q0.40625 0.75 1.140625 1.171875q0.75 0.40625 1.796875 0.40625q0.625 0 1.21875 -0.203125q0.609375 -0.21875 1.34375 -0.828125l0.65625 0.90625q-0.390625 0.375 -0.921875 0.671875q-0.53125 0.28125 -1.171875 0.46875q-0.625 0.171875 -1.28125 0.171875zm8.914551 0q-1.125 0 -2.046875 -0.59375q-0.921875 -0.59375 -1.453125 -1.609375q-0.53125 -1.03125 -0.53125 -2.328125q0 -1.3125 0.546875 -2.328125q0.5625 -1.015625 1.484375 -1.59375q0.921875 -0.59375 2.0625 -0.59375q0.6875 0 1.265625 0.203125q0.578125 0.203125 1.03125 0.5625q0.46875 0.359375 0.765625 0.828125q0.3125 0.46875 0.4375 1.03125l-0.375 -0.1875l0.0625 -2.25l1.25 0l0 8.6875l-1.265625 0l0 -2.125l0.328125 -0.21875q-0.125 0.5 -0.453125 0.953125q-0.328125 0.453125 -0.8125 0.8125q-0.46875 0.34375 -1.0625 0.546875q-0.578125 0.203125 -1.234375 0.203125zm0.28125 -1.203125q0.859375 0 1.546875 -0.421875q0.6875 -0.421875 1.078125 -1.171875q0.390625 -0.765625 0.390625 -1.734375q0 -0.96875 -0.390625 -1.71875q-0.390625 -0.75 -1.078125 -1.171875q-0.6875 -0.4375 -1.546875 -0.4375q-0.875 0 -1.5625 0.4375q-0.671875 0.421875 -1.0625 1.171875q-0.390625 0.75 -0.390625 1.71875q0 0.953125 0.375 1.71875q0.390625 0.75 1.078125 1.1875q0.6875 0.421875 1.5625 0.421875zm10.176575 1.203125q-1.1875 0 -2.125 -0.578125q-0.9375 -0.59375 -1.484375 -1.609375q-0.546875 -1.03125 -0.546875 -2.328125q0 -1.3125 0.546875 -2.328125q0.5625 -1.03125 1.484375 -1.609375q0.9375 -0.59375 2.09375 -0.59375q0.65625 0 1.265625 0.203125q0.609375 0.203125 1.09375 0.5625q0.484375 0.359375 0.796875 0.8125q0.3125 0.453125 0.375 0.953125l-0.375 -0.125l0 -5.84375l1.25 0l0 12.3125l-1.234375 0l-0.03125 -2.15625l0.3125 -0.125q-0.0625 0.46875 -0.375 0.90625q-0.3125 0.4375 -0.78125 0.796875q-0.453125 0.34375 -1.046875 0.546875q-0.59375 0.203125 -1.21875 0.203125zm0.171875 -1.15625q0.875 0 1.546875 -0.421875q0.6875 -0.4375 1.078125 -1.203125q0.390625 -0.765625 0.390625 -1.75q0 -0.984375 -0.390625 -1.734375q-0.390625 -0.765625 -1.078125 -1.203125q-0.671875 -0.4375 -1.546875 -0.4375q-0.890625 0 -1.578125 0.4375q-0.671875 0.4375 -1.0625 1.203125q-0.390625 0.75 -0.390625 1.734375q0 0.96875 0.375 1.734375q0.390625 0.765625 1.078125 1.203125q0.6875 0.4375 1.578125 0.4375zm16.587006 1.15625q-1.21875 0 -2.265625 -0.4375q-1.03125 -0.453125 -1.8125 -1.25q-0.765625 -0.796875 -1.203125 -1.890625q-0.421875 -1.09375 -0.421875 -2.390625q0 -1.296875 0.421875 -2.375q0.4375 -1.09375 1.203125 -1.90625q0.78125 -0.8125 1.8125 -1.25q1.046875 -0.4375 2.265625 -0.4375q1.25 0 2.28125 0.4375q1.046875 0.4375 1.828125 1.25q0.78125 0.8125 1.203125 1.90625q0.421875 1.078125 0.421875 2.375q0 1.28125 -0.421875 2.375q-0.421875 1.09375 -1.203125 1.90625q-0.78125 0.796875 -1.828125 1.25q-1.03125 0.4375 -2.28125 0.4375zm0 -1.28125q0.953125 0 1.75 -0.34375q0.8125 -0.34375 1.390625 -0.96875q0.59375 -0.640625 0.921875 -1.5q0.328125 -0.859375 0.328125 -1.875q0 -1.03125 -0.328125 -1.875q-0.328125 -0.859375 -0.921875 -1.484375q-0.578125 -0.640625 -1.390625 -0.984375q-0.796875 -0.359375 -1.75 -0.359375q-0.9375 0 -1.75 0.359375q-0.8125 0.34375 -1.390625 0.984375q-0.578125 0.625 -0.90625 1.484375q-0.3125 0.84375 -0.3125 1.875q0 1.015625 0.3125 1.875q0.328125 0.859375 0.90625 1.5q0.578125 0.625 1.390625 0.96875q0.8125 0.34375 1.75 0.34375zm7.7660522 4.765625l0 -12.34375l1.25 0l0.03125 2.109375l-0.234375 0.03125q0.140625 -0.625 0.640625 -1.140625q0.5 -0.53125 1.21875 -0.84375q0.71875 -0.328125 1.515625 -0.328125q1.171875 0 2.09375 0.59375q0.921875 0.578125 1.46875 1.59375q0.546875 1.015625 0.546875 2.328125q0 1.296875 -0.53125 2.3125q-0.53125 1.015625 -1.46875 1.609375q-0.921875 0.59375 -2.09375 0.59375q-0.8125 0 -1.546875 -0.328125q-0.734375 -0.34375 -1.25 -0.875q-0.515625 -0.546875 -0.671875 -1.1875l0.296875 0l0 5.875l-1.265625 0zm4.234375 -4.6875q0.890625 0 1.5625 -0.421875q0.6875 -0.4375 1.078125 -1.1875q0.40625 -0.75 0.40625 -1.703125q0 -0.96875 -0.40625 -1.71875q-0.390625 -0.75 -1.078125 -1.171875q-0.671875 -0.4375 -1.5625 -0.4375q-0.875 0 -1.578125 0.421875q-0.6875 0.421875 -1.09375 1.171875q-0.390625 0.75 -0.390625 1.71875q0 0.96875 0.390625 1.71875q0.40625 0.75 1.09375 1.1875q0.703125 0.421875 1.578125 0.421875zm9.944244 1.203125q-1.296875 0 -2.3125 -0.5625q-1.0 -0.578125 -1.578125 -1.59375q-0.5625 -1.015625 -0.5625 -2.328125q0 -1.015625 0.3125 -1.828125q0.328125 -0.828125 0.890625 -1.4375q0.578125 -0.625 1.375 -0.96875q0.8125 -0.34375 1.734375 -0.34375q0.890625 0 1.609375 0.328125q0.71875 0.3125 1.234375 0.875q0.53125 0.546875 0.796875 1.3125q0.265625 0.765625 0.234375 1.6875l-0.015625 0.578125l-7.234375 0l-0.1875 -1.046875l6.484375 0l-0.3125 0.28125l0 -0.40625q-0.03125 -0.59375 -0.34375 -1.140625q-0.3125 -0.5625 -0.890625 -0.90625q-0.578125 -0.359375 -1.375 -0.359375q-0.921875 0 -1.609375 0.375q-0.6875 0.375 -1.0625 1.109375q-0.359375 0.734375 -0.359375 1.8125q0 1.03125 0.390625 1.796875q0.40625 0.75 1.140625 1.171875q0.75 0.40625 1.796875 0.40625q0.625 0 1.21875 -0.203125q0.609375 -0.21875 1.34375 -0.828125l0.65625 0.90625q-0.390625 0.375 -0.921875 0.671875q-0.53125 0.28125 -1.171875 0.46875q-0.625 0.171875 -1.28125 0.171875zm5.523926 -0.171875l0 -8.6875l1.25 0l0.03125 2.3125l-0.140625 -0.3125q0.1875 -0.578125 0.59375 -1.078125q0.40625 -0.5 0.96875 -0.796875q0.578125 -0.3125 1.25 -0.3125q0.28125 0 0.53125 0.046875q0.25 0.046875 0.421875 0.109375l-0.34375 1.390625q-0.21875 -0.09375 -0.453125 -0.125q-0.21875 -0.046875 -0.421875 -0.046875q-0.5625 0 -1.015625 0.203125q-0.453125 0.1875 -0.765625 0.546875q-0.3125 0.359375 -0.484375 0.828125q-0.15625 0.46875 -0.15625 1.0l0 4.921875l-1.265625 0zm9.231171 0.171875q-1.125 0 -2.046875 -0.59375q-0.921875 -0.59375 -1.453125 -1.609375q-0.53125 -1.03125 -0.53125 -2.328125q0 -1.3125 0.546875 -2.328125q0.5625 -1.015625 1.484375 -1.59375q0.921875 -0.59375 2.0625 -0.59375q0.6875 0 1.265625 0.203125q0.578125 0.203125 1.03125 0.5625q0.46875 0.359375 0.765625 0.828125q0.3125 0.46875 0.4375 1.03125l-0.375 -0.1875l0.0625 -2.25l1.25 0l0 8.6875l-1.265625 0l0 -2.125l0.328125 -0.21875q-0.125 0.5 -0.453125 0.953125q-0.328125 0.453125 -0.8125 0.8125q-0.46875 0.34375 -1.0625 0.546875q-0.578125 0.203125 -1.234375 0.203125zm0.28125 -1.203125q0.859375 0 1.546875 -0.421875q0.6875 -0.421875 1.078125 -1.171875q0.390625 -0.765625 0.390625 -1.734375q0 -0.96875 -0.390625 -1.71875q-0.390625 -0.75 -1.078125 -1.171875q-0.6875 -0.4375 -1.546875 -0.4375q-0.875 0 -1.5625 0.4375q-0.671875 0.421875 -1.0625 1.171875q-0.390625 0.75 -0.390625 1.71875q0 0.953125 0.375 1.71875q0.390625 0.75 1.078125 1.1875q0.6875 0.421875 1.5625 0.421875zm7.8328247 1.03125l0 -10.96875l1.25 0l0 10.96875l-1.25 0zm-1.953125 -7.484375l0 -1.203125l5.40625 0l0 1.203125l-5.40625 0zm7.267456 7.484375l0 -8.6875l1.25 0l0 8.6875l-1.25 0zm0.609375 -10.5625q-0.453125 0 -0.703125 -0.234375q-0.234375 -0.25 -0.234375 -0.671875q0 -0.40625 0.25 -0.65625q0.25 -0.25 0.6875 -0.25q0.453125 0 0.703125 0.25q0.25 0.234375 0.25 0.65625q0 0.40625 -0.25 0.65625q-0.25 0.25 -0.703125 0.25zm7.2161865 10.734375q-1.296875 0 -2.3125 -0.578125q-1.0 -0.59375 -1.578125 -1.625q-0.578125 -1.03125 -0.578125 -2.34375q0 -1.296875 0.578125 -2.3125q0.578125 -1.015625 1.578125 -1.59375q1.015625 -0.59375 2.3125 -0.59375q1.28125 0 2.28125 0.59375q1.015625 0.578125 1.578125 1.59375q0.578125 1.015625 0.578125 2.3125q0 1.3125 -0.578125 2.34375q-0.5625 1.03125 -1.578125 1.625q-1.0 0.578125 -2.28125 0.578125zm0 -1.1875q0.90625 0 1.625 -0.4375q0.71875 -0.4375 1.109375 -1.1875q0.40625 -0.765625 0.40625 -1.734375q0 -0.96875 -0.40625 -1.71875q-0.390625 -0.75 -1.109375 -1.171875q-0.71875 -0.421875 -1.625 -0.421875q-0.921875 0 -1.640625 0.421875q-0.71875 0.421875 -1.140625 1.1875q-0.40625 0.75 -0.390625 1.703125q-0.015625 0.96875 0.390625 1.734375q0.421875 0.75 1.140625 1.1875q0.71875 0.4375 1.640625 0.4375zm6.2571106 1.015625l0 -8.6875l1.234375 0l0.046875 1.8125l-0.203125 0.078125q0.171875 -0.5625 0.640625 -1.015625q0.484375 -0.46875 1.15625 -0.765625q0.6875 -0.296875 1.390625 -0.296875q0.96875 0 1.609375 0.390625q0.65625 0.375 0.984375 1.1875q0.34375 0.796875 0.34375 2.015625l0 5.28125l-1.265625 0l0 -5.203125q0 -0.875 -0.234375 -1.421875q-0.21875 -0.5625 -0.6875 -0.828125q-0.453125 -0.265625 -1.140625 -0.25q-0.5625 0 -1.046875 0.1875q-0.484375 0.1875 -0.84375 0.53125q-0.34375 0.328125 -0.546875 0.765625q-0.1875 0.421875 -0.1875 0.921875l0 5.296875l-0.625 0q-0.109375 0 -0.265625 0q-0.140625 0 -0.359375 0z" fill-rule="nonzero"/><path fill="#e3fcf7" d="m296.77768 89.472466l148.25198 0l0 48.409447l-148.25198 0z" fill-rule="evenodd"/><path stroke="#001e2b" stroke-width="1.041994750656168" stroke-linejoin="round" stroke-linecap="butt" d="m296.77768 89.472466l148.25198 0l0 48.409447l-148.25198 0z" fill-rule="evenodd"/><path fill="#000000" d="m334.93146 119.66695l0 -11.65625l1.265625 0l4.46875 7.28125l-0.59375 -0.015625l4.515625 -7.265625l1.1875 0l0 11.65625l-1.296875 0l0 -5.328125q0 -1.5 0.046875 -2.6875q0.046875 -1.203125 0.1875 -2.390625l0.234375 0.46875l-4.171875 6.5625l-0.90625 0l-4.0625 -6.46875l0.1875 -0.5625q0.125 1.125 0.171875 2.296875q0.0625 1.171875 0.0625 2.78125l0 5.328125l-1.296875 0zm14.105835 0l0 -8.6875l1.25 0l0 8.6875l-1.25 0zm0.609375 -10.5625q-0.453125 0 -0.703125 -0.234375q-0.234375 -0.25 -0.234375 -0.671875q0 -0.40625 0.25 -0.65625q0.25 -0.25 0.6875 -0.25q0.453125 0 0.703125 0.25q0.25 0.234375 0.25 0.65625q0 0.40625 -0.25 0.65625q-0.25 0.25 -0.703125 0.25zm7.1068115 14.390625q-0.953125 0 -1.828125 -0.296875q-0.859375 -0.296875 -1.421875 -0.75l0.5 -1.046875q0.328125 0.265625 0.765625 0.46875q0.4375 0.203125 0.953125 0.328125q0.515625 0.125 1.046875 0.125q0.96875 0 1.640625 -0.359375q0.671875 -0.34375 1.03125 -1.046875q0.359375 -0.703125 0.359375 -1.734375l0 -1.65625l0.203125 -0.0625q-0.15625 0.640625 -0.65625 1.1875q-0.484375 0.53125 -1.203125 0.859375q-0.71875 0.328125 -1.515625 0.328125q-1.21875 0 -2.171875 -0.578125q-0.953125 -0.59375 -1.515625 -1.609375q-0.546875 -1.03125 -0.546875 -2.328125q0 -1.3125 0.5625 -2.328125q0.5625 -1.03125 1.5 -1.609375q0.953125 -0.59375 2.140625 -0.59375q0.515625 0 1.0 0.125q0.484375 0.125 0.890625 0.359375q0.40625 0.234375 0.734375 0.53125q0.328125 0.296875 0.546875 0.65625q0.234375 0.34375 0.328125 0.71875l-0.34375 -0.0625l0.046875 -2.140625l1.25 0l0 8.15625q0 1.046875 -0.296875 1.84375q-0.296875 0.8125 -0.875 1.375q-0.578125 0.5625 -1.375 0.84375q-0.78125 0.296875 -1.75 0.296875zm0.015625 -4.859375q0.890625 0 1.578125 -0.421875q0.6875 -0.421875 1.078125 -1.171875q0.40625 -0.75 0.40625 -1.734375q0 -0.96875 -0.390625 -1.71875q-0.390625 -0.75 -1.09375 -1.171875q-0.6875 -0.4375 -1.578125 -0.4375q-0.890625 0 -1.578125 0.4375q-0.6875 0.421875 -1.09375 1.171875q-0.40625 0.75 -0.40625 1.71875q0 0.953125 0.390625 1.71875q0.390625 0.75 1.078125 1.1875q0.703125 0.421875 1.609375 0.421875zm6.71698 1.03125l0 -8.6875l1.25 0l0.03125 2.3125l-0.140625 -0.3125q0.1875 -0.578125 0.59375 -1.078125q0.40625 -0.5 0.96875 -0.796875q0.578125 -0.3125 1.25 -0.3125q0.28125 0 0.53125 0.046875q0.25 0.046875 0.421875 0.109375l-0.34375 1.390625q-0.21875 -0.09375 -0.453125 -0.125q-0.21875 -0.046875 -0.421875 -0.046875q-0.5625 0 -1.015625 0.203125q-0.453125 0.1875 -0.765625 0.546875q-0.3125 0.359375 -0.484375 0.828125q-0.15625 0.46875 -0.15625 1.0l0 4.921875l-1.265625 0zm9.231171 0.171875q-1.125 0 -2.046875 -0.59375q-0.921875 -0.59375 -1.453125 -1.609375q-0.53125 -1.03125 -0.53125 -2.328125q0 -1.3125 0.546875 -2.328125q0.5625 -1.015625 1.484375 -1.59375q0.921875 -0.59375 2.0625 -0.59375q0.6875 0 1.265625 0.203125q0.578125 0.203125 1.03125 0.5625q0.46875 0.359375 0.765625 0.828125q0.3125 0.46875 0.4375 1.03125l-0.375 -0.1875l0.0625 -2.25l1.25 0l0 8.6875l-1.265625 0l0 -2.125l0.328125 -0.21875q-0.125 0.5 -0.453125 0.953125q-0.328125 0.453125 -0.8125 0.8125q-0.46875 0.34375 -1.0625 0.546875q-0.578125 0.203125 -1.234375 0.203125zm0.28125 -1.203125q0.859375 0 1.546875 -0.421875q0.6875 -0.421875 1.078125 -1.171875q0.390625 -0.765625 0.390625 -1.734375q0 -0.96875 -0.390625 -1.71875q-0.390625 -0.75 -1.078125 -1.171875q-0.6875 -0.4375 -1.546875 -0.4375q-0.875 0 -1.5625 0.4375q-0.671875 0.421875 -1.0625 1.171875q-0.390625 0.75 -0.390625 1.71875q0 0.953125 0.375 1.71875q0.390625 0.75 1.078125 1.1875q0.6875 0.421875 1.5625 0.421875zm7.8328247 1.03125l0 -10.96875l1.25 0l0 10.96875l-1.25 0zm-1.953125 -7.484375l0 -1.203125l5.40625 0l0 1.203125l-5.40625 0zm7.267456 7.484375l0 -8.6875l1.25 0l0 8.6875l-1.25 0zm0.609375 -10.5625q-0.453125 0 -0.703125 -0.234375q-0.234375 -0.25 -0.234375 -0.671875q0 -0.40625 0.25 -0.65625q0.25 -0.25 0.6875 -0.25q0.453125 0 0.703125 0.25q0.25 0.234375 0.25 0.65625q0 0.40625 -0.25 0.65625q-0.25 0.25 -0.703125 0.25zm7.2161865 10.734375q-1.296875 0 -2.3125 -0.578125q-1.0 -0.59375 -1.578125 -1.625q-0.578125 -1.03125 -0.578125 -2.34375q0 -1.296875 0.578125 -2.3125q0.578125 -1.015625 1.578125 -1.59375q1.015625 -0.59375 2.3125 -0.59375q1.28125 0 2.28125 0.59375q1.015625 0.578125 1.578125 1.59375q0.578125 1.015625 0.578125 2.3125q0 1.3125 -0.578125 2.34375q-0.5625 1.03125 -1.578125 1.625q-1.0 0.578125 -2.28125 0.578125zm0 -1.1875q0.90625 0 1.625 -0.4375q0.71875 -0.4375 1.109375 -1.1875q0.40625 -0.765625 0.40625 -1.734375q0 -0.96875 -0.40625 -1.71875q-0.390625 -0.75 -1.109375 -1.171875q-0.71875 -0.421875 -1.625 -0.421875q-0.921875 0 -1.640625 0.421875q-0.71875 0.421875 -1.140625 1.1875q-0.40625 0.75 -0.390625 1.703125q-0.015625 0.96875 0.390625 1.734375q0.421875 0.75 1.140625 1.1875q0.71875 0.4375 1.640625 0.4375zm6.2571106 1.015625l0 -8.6875l1.234375 0l0.046875 1.8125l-0.203125 0.078125q0.171875 -0.5625 0.640625 -1.015625q0.484375 -0.46875 1.15625 -0.765625q0.6875 -0.296875 1.390625 -0.296875q0.96875 0 1.609375 0.390625q0.65625 0.375 0.984375 1.1875q0.34375 0.796875 0.34375 2.015625l0 5.28125l-1.265625 0l0 -5.203125q0 -0.875 -0.234375 -1.421875q-0.21875 -0.5625 -0.6875 -0.828125q-0.453125 -0.265625 -1.140625 -0.25q-0.5625 0 -1.046875 0.1875q-0.484375 0.1875 -0.84375 0.53125q-0.34375 0.328125 -0.546875 0.765625q-0.1875 0.421875 -0.1875 0.921875l0 5.296875l-0.625 0q-0.109375 0 -0.265625 0q-0.140625 0 -0.359375 0z" fill-rule="nonzero"/><path fill="#000000" fill-opacity="0.0" d="m141.24672 79.432106l43.40158 0.06298828" fill-rule="evenodd"/><path stroke="#001e2b" stroke-width="1.041994750656168" stroke-linejoin="round" stroke-linecap="round" d="m141.24672 79.432106l43.40158 0.06298828" fill-rule="evenodd"/><path fill="#000000" fill-opacity="0.0" d="m184.63457 44.722523l51.860107 0" fill-rule="evenodd"/><path stroke="#001e2b" stroke-width="1.041994750656168" stroke-linejoin="round" stroke-linecap="round" d="m184.63457 44.722523l51.860107 0" fill-rule="evenodd"/><path fill="#000000" fill-opacity="0.0" d="m184.62164 44.7178l0 34.752758" fill-rule="evenodd"/><path stroke="#001e2b" stroke-width="1.041994750656168" stroke-linejoin="round" stroke-linecap="round" d="m184.62164 44.7178l0 34.752758" fill-rule="evenodd"/><path fill="#000000" fill-opacity="0.0" d="m184.68872 114.11509l112.10104 0" fill-rule="evenodd"/><path stroke="#001e2b" stroke-width="1.041994750656168" stroke-linejoin="round" stroke-linecap="round" d="m184.68872 114.11509l112.10104 0" fill-rule="evenodd"/><path fill="#000000" fill-opacity="0.0" d="m184.66078 114.11981l0 -34.752754" fill-rule="evenodd"/><path stroke="#001e2b" stroke-width="1.041994750656168" stroke-linejoin="round" stroke-linecap="round" d="m184.66078 114.11981l0 -34.752754" fill-rule="evenodd"/><path fill="#000000" fill-opacity="0.0" d="m445.04245 113.90809l47.18112 0.09448242" fill-rule="evenodd"/><path stroke="#001e2b" stroke-width="1.041994750656168" stroke-linejoin="round" stroke-linecap="round" d="m445.04245 113.90809l47.18112 0.09448242" fill-rule="evenodd"/><path fill="#f9ebff" d="m492.78885 89.472466l224.6614 0l0 48.409447l-224.6614 0z" fill-rule="evenodd"/><path stroke="#001e2b" stroke-width="1.041994750656168" stroke-linejoin="round" stroke-linecap="butt" d="m492.78885 89.472466l224.6614 0l0 48.409447l-224.6614 0z" fill-rule="evenodd"/><path fill="#000000" d="m509.64978 119.84523q-1.296875 0 -2.1875 -0.578125q-0.875 -0.59375 -1.234375 -1.625q-0.359375 -1.03125 -0.078125 -2.34375q0.265625 -1.296875 1.0625 -2.3125q0.796875 -1.015625 1.921875 -1.59375q1.140625 -0.59375 2.4375 -0.59375q1.28125 0 2.15625 0.59375q0.890625 0.578125 1.234375 1.59375q0.359375 1.015625 0.09375 2.3125q-0.28125 1.3125 -1.078125 2.34375q-0.78125 1.03125 -1.921875 1.625q-1.125 0.578125 -2.40625 0.578125zm0.25 -1.1875q0.90625 0 1.71875 -0.4375q0.8125 -0.4375 1.359375 -1.1875q0.5625 -0.765625 0.78125 -1.734375q0.203125 -0.96875 -0.046875 -1.71875q-0.234375 -0.75 -0.859375 -1.171875q-0.625 -0.421875 -1.53125 -0.421875q-0.921875 0 -1.734375 0.421875q-0.8125 0.421875 -1.390625 1.1875q-0.578125 0.75 -0.75 1.703125q-0.234375 0.96875 0.015625 1.734375q0.265625 0.75 0.890625 1.1875q0.625 0.4375 1.546875 0.4375zm6.038391 1.015625l1.84375 -8.6875l1.25 0l-0.453125 2.3125l-0.078125 -0.3125q0.3125 -0.578125 0.8125 -1.078125q0.515625 -0.5 1.15625 -0.796875q0.640625 -0.3125 1.3125 -0.3125q0.28125 0 0.515625 0.046875q0.234375 0.046875 0.40625 0.109375l-0.640625 1.390625q-0.203125 -0.09375 -0.421875 -0.125q-0.21875 -0.046875 -0.421875 -0.046875q-0.5625 0 -1.0625 0.203125q-0.484375 0.1875 -0.875 0.546875q-0.390625 0.359375 -0.65625 0.828125q-0.265625 0.46875 -0.375 1.0l-1.046875 4.921875l-1.265625 0zm5.42572 3.6562424l2.625 -12.343742l1.25 0l-0.421875 2.109375l-0.234375 0.03125q0.28125 -0.625 0.890625 -1.140625q0.609375 -0.53125 1.390625 -0.84375q0.796875 -0.328125 1.59375 -0.328125q1.171875 0 1.96875 0.59375q0.796875 0.578125 1.125 1.59375q0.328125 1.015625 0.046875 2.328125q-0.28125 1.296875 -1.03125 2.3125q-0.734375 1.015625 -1.796875 1.609375q-1.046875 0.59375 -2.21875 0.59375q-0.8125 0 -1.484375 -0.328125q-0.65625 -0.34375 -1.0625 -0.875q-0.40625 -0.546875 -0.421875 -1.1875l0.296875 0l-1.25 5.8749924l-1.265625 0zm5.234375 -4.6874924q0.890625 0 1.65625 -0.421875q0.78125 -0.4375 1.328125 -1.1875q0.5625 -0.75 0.765625 -1.703125q0.203125 -0.96875 -0.03125 -1.71875q-0.234375 -0.75 -0.828125 -1.171875q-0.59375 -0.4375 -1.484375 -0.4375q-0.875 0 -1.65625 0.421875q-0.78125 0.421875 -1.34375 1.171875q-0.5625 0.75 -0.765625 1.71875q-0.203125 0.96875 0.03125 1.71875q0.25 0.75 0.84375 1.1875q0.609375 0.421875 1.484375 0.421875zm5.897339 1.03125l2.609375 -12.3125l1.25 0l-1.171875 5.515625l-0.296875 0.25q0.3125 -0.671875 0.921875 -1.1875q0.609375 -0.53125 1.359375 -0.828125q0.75 -0.3125 1.4375 -0.3125q1.0 0 1.578125 0.390625q0.578125 0.375 0.734375 1.1875q0.15625 0.796875 -0.09375 2.015625l-1.125 5.28125l-1.265625 0l1.109375 -5.203125q0.1875 -0.875 0.078125 -1.421875q-0.109375 -0.5625 -0.515625 -0.828125q-0.40625 -0.265625 -1.109375 -0.25q-0.546875 0 -1.078125 0.1875q-0.515625 0.1875 -0.9375 0.53125q-0.421875 0.328125 -0.71875 0.765625q-0.28125 0.421875 -0.390625 0.921875l-1.125 5.296875l-0.625 0q-0.109375 0 -0.265625 0q-0.140625 0 -0.359375 0zm12.944397 0.171875q-1.125 0 -1.921875 -0.59375q-0.796875 -0.59375 -1.109375 -1.609375q-0.3125 -1.03125 -0.046875 -2.328125q0.28125 -1.3125 1.046875 -2.328125q0.78125 -1.015625 1.828125 -1.59375q1.046875 -0.59375 2.1875 -0.59375q0.6875 0 1.21875 0.203125q0.53125 0.203125 0.90625 0.5625q0.390625 0.359375 0.59375 0.828125q0.21875 0.46875 0.21875 1.03125l-0.328125 -0.1875l0.53125 -2.25l1.25 0l-1.84375 8.6875l-1.265625 0l0.453125 -2.125l0.375 -0.21875q-0.234375 0.5 -0.65625 0.953125q-0.421875 0.453125 -0.984375 0.8125q-0.546875 0.34375 -1.171875 0.546875q-0.625 0.203125 -1.28125 0.203125zm0.53125 -1.203125q0.859375 0 1.640625 -0.421875q0.78125 -0.421875 1.328125 -1.171875q0.546875 -0.765625 0.75 -1.734375q0.203125 -0.96875 -0.03125 -1.71875q-0.21875 -0.75 -0.8125 -1.171875q-0.59375 -0.4375 -1.453125 -0.4375q-0.875 0 -1.65625 0.4375q-0.765625 0.421875 -1.328125 1.171875q-0.546875 0.75 -0.75 1.71875q-0.203125 0.953125 0.015625 1.71875q0.234375 0.75 0.828125 1.1875q0.59375 0.421875 1.46875 0.421875zm6.4266357 1.03125l1.84375 -8.6875l1.234375 0l-0.328125 1.8125l-0.234375 0.078125q0.296875 -0.5625 0.875 -1.015625q0.578125 -0.46875 1.3125 -0.765625q0.75 -0.296875 1.453125 -0.296875q0.96875 0 1.53125 0.390625q0.5625 0.375 0.71875 1.1875q0.171875 0.796875 -0.078125 2.015625l-1.125 5.28125l-1.265625 0l1.109375 -5.203125q0.1875 -0.875 0.078125 -1.421875q-0.109375 -0.5625 -0.515625 -0.828125q-0.40625 -0.265625 -1.09375 -0.25q-0.5625 0 -1.09375 0.1875q-0.515625 0.1875 -0.9375 0.53125q-0.421875 0.328125 -0.71875 0.765625q-0.28125 0.421875 -0.390625 0.921875l-1.125 5.296875l-0.625 0q-0.109375 0 -0.265625 0q-0.140625 0 -0.359375 0zm14.881897 0.171875q-1.25 0 -2.21875 -0.4375q-0.953125 -0.453125 -1.546875 -1.25q-0.578125 -0.8125 -0.78125 -1.90625q-0.1875 -1.109375 0.078125 -2.40625q0.28125 -1.28125 0.9375 -2.34375q0.65625 -1.078125 1.609375 -1.875q0.953125 -0.8125 2.078125 -1.25q1.125 -0.4375 2.34375 -0.4375q0.828125 0 1.5625 0.265625q0.75 0.25 1.3125 0.703125q0.578125 0.453125 0.890625 1.03125l-1.09375 0.9375q-0.3125 -0.5 -0.78125 -0.859375q-0.453125 -0.375 -1.015625 -0.578125q-0.546875 -0.203125 -1.15625 -0.203125q-0.921875 0 -1.796875 0.34375q-0.875 0.34375 -1.59375 0.96875q-0.71875 0.609375 -1.234375 1.453125q-0.5 0.84375 -0.71875 1.84375q-0.21875 1.03125 -0.078125 1.90625q0.15625 0.859375 0.625 1.484375q0.484375 0.625 1.21875 0.96875q0.75 0.34375 1.765625 0.34375q0.59375 0 1.234375 -0.171875q0.640625 -0.1875 1.203125 -0.5q0.578125 -0.3125 1.0 -0.71875l0.453125 1.078125q-0.484375 0.46875 -1.203125 0.828125q-0.71875 0.359375 -1.53125 0.578125q-0.796875 0.203125 -1.5625 0.203125zm5.9834595 -0.171875l2.609375 -12.3125l1.25 0l-2.609375 12.3125l-1.25 0zm7.3432007 0.171875q-1.296875 0 -2.1875 -0.5625q-0.890625 -0.578125 -1.25 -1.59375q-0.34375 -1.015625 -0.0625 -2.328125q0.203125 -1.015625 0.703125 -1.828125q0.5 -0.828125 1.203125 -1.4375q0.703125 -0.625 1.578125 -0.96875q0.875 -0.34375 1.796875 -0.34375q0.890625 0 1.53125 0.328125q0.65625 0.3125 1.0625 0.875q0.40625 0.546875 0.5 1.3125q0.109375 0.765625 -0.109375 1.6875l-0.140625 0.578125l-7.234375 0l0.03125 -1.046875l6.484375 0l-0.375 0.28125l0.09375 -0.40625q0.09375 -0.59375 -0.109375 -1.140625q-0.1875 -0.5625 -0.6875 -0.90625q-0.5 -0.359375 -1.296875 -0.359375q-0.921875 0 -1.703125 0.375q-0.765625 0.375 -1.296875 1.109375q-0.515625 0.734375 -0.734375 1.8125q-0.21875 1.03125 0.015625 1.796875q0.234375 0.75 0.890625 1.171875q0.65625 0.40625 1.703125 0.40625q0.625 0 1.265625 -0.203125q0.65625 -0.21875 1.515625 -0.828125l0.46875 0.90625q-0.484375 0.375 -1.078125 0.671875q-0.578125 0.28125 -1.25 0.46875q-0.671875 0.171875 -1.328125 0.171875zm8.914551 0q-1.125 0 -1.921875 -0.59375q-0.796875 -0.59375 -1.109375 -1.609375q-0.3125 -1.03125 -0.046875 -2.328125q0.28125 -1.3125 1.046875 -2.328125q0.78125 -1.015625 1.828125 -1.59375q1.046875 -0.59375 2.1875 -0.59375q0.6875 0 1.21875 0.203125q0.53125 0.203125 0.90625 0.5625q0.390625 0.359375 0.59375 0.828125q0.21875 0.46875 0.21875 1.03125l-0.328125 -0.1875l0.53125 -2.25l1.25 0l-1.84375 8.6875l-1.265625 0l0.453125 -2.125l0.375 -0.21875q-0.234375 0.5 -0.65625 0.953125q-0.421875 0.453125 -0.984375 0.8125q-0.546875 0.34375 -1.171875 0.546875q-0.625 0.203125 -1.28125 0.203125zm0.53125 -1.203125q0.859375 0 1.640625 -0.421875q0.78125 -0.421875 1.328125 -1.171875q0.546875 -0.765625 0.75 -1.734375q0.203125 -0.96875 -0.03125 -1.71875q-0.21875 -0.75 -0.8125 -1.171875q-0.59375 -0.4375 -1.453125 -0.4375q-0.875 0 -1.65625 0.4375q-0.765625 0.421875 -1.328125 1.171875q-0.546875 0.75 -0.75 1.71875q-0.203125 0.953125 0.015625 1.71875q0.234375 0.75 0.828125 1.1875q0.59375 0.421875 1.46875 0.421875zm6.4265747 1.03125l1.84375 -8.6875l1.234375 0l-0.328125 1.8125l-0.234375 0.078125q0.296875 -0.5625 0.875 -1.015625q0.578125 -0.46875 1.3125 -0.765625q0.75 -0.296875 1.453125 -0.296875q0.96875 0 1.53125 0.390625q0.5625 0.375 0.71875 1.1875q0.171875 0.796875 -0.078125 2.015625l-1.125 5.28125l-1.265625 0l1.109375 -5.203125q0.1875 -0.875 0.078125 -1.421875q-0.109375 -0.5625 -0.515625 -0.828125q-0.40625 -0.265625 -1.09375 -0.25q-0.5625 0 -1.09375 0.1875q-0.515625 0.1875 -0.9375 0.53125q-0.421875 0.328125 -0.71875 0.765625q-0.28125 0.421875 -0.390625 0.921875l-1.125 5.296875l-0.625 0q-0.109375 0 -0.265625 0q-0.140625 0 -0.359375 0zm12.631897 0.171875q-1.0 0 -1.609375 -0.40625q-0.609375 -0.421875 -0.796875 -1.203125q-0.1875 -0.78125 0.0625 -1.9375l1.125 -5.3125l1.265625 0l-1.078125 5.0625q-0.1875 0.875 -0.078125 1.46875q0.125 0.59375 0.546875 0.890625q0.421875 0.296875 1.140625 0.296875q0.546875 0 1.046875 -0.1875q0.515625 -0.1875 0.9375 -0.515625q0.421875 -0.34375 0.71875 -0.78125q0.296875 -0.453125 0.390625 -0.953125l1.125 -5.28125l1.25 0l-1.84375 8.6875l-1.234375 0l0.34375 -1.828125l0.21875 -0.109375q-0.328125 0.59375 -0.890625 1.0625q-0.5625 0.46875 -1.265625 0.765625q-0.703125 0.28125 -1.375 0.28125zm5.8567505 3.4843674l2.625 -12.343742l1.25 0l-0.421875 2.109375l-0.234375 0.03125q0.28125 -0.625 0.890625 -1.140625q0.609375 -0.53125 1.390625 -0.84375q0.796875 -0.328125 1.59375 -0.328125q1.171875 0 1.96875 0.59375q0.796875 0.578125 1.125 1.59375q0.328125 1.015625 0.046875 2.328125q-0.28125 1.296875 -1.03125 2.3125q-0.734375 1.015625 -1.796875 1.609375q-1.046875 0.59375 -2.21875 0.59375q-0.8125 0 -1.484375 -0.328125q-0.65625 -0.34375 -1.0625 -0.875q-0.40625 -0.546875 -0.421875 -1.1875l0.296875 0l-1.25 5.8749924l-1.265625 0zm5.234375 -4.6874924q0.890625 0 1.65625 -0.421875q0.78125 -0.4375 1.328125 -1.1875q0.5625 -0.75 0.765625 -1.703125q0.203125 -0.96875 -0.03125 -1.71875q-0.234375 -0.75 -0.828125 -1.171875q-0.59375 -0.4375 -1.484375 -0.4375q-0.875 0 -1.65625 0.421875q-0.78125 0.421875 -1.34375 1.171875q-0.5625 0.75 -0.765625 1.71875q-0.203125 0.96875 0.03125 1.71875q0.25 0.75 0.84375 1.1875q0.609375 0.421875 1.484375 0.421875zm6.397339 1.03125l2.484375 -11.65625l4.390625 0q1.203125 0 2.09375 0.4375q0.890625 0.421875 1.453125 1.203125q0.578125 0.78125 0.75 1.84375q0.171875 1.0625 -0.109375 2.34375q-0.265625 1.28125 -0.890625 2.359375q-0.625 1.078125 -1.53125 1.859375q-0.890625 0.765625 -1.96875 1.1875q-1.078125 0.421875 -2.28125 0.421875l-4.390625 0zm1.515625 -1.03125l-0.109375 -0.234375l3.171875 0q0.90625 0 1.75 -0.3125q0.84375 -0.328125 1.53125 -0.9375q0.703125 -0.609375 1.171875 -1.4375q0.484375 -0.84375 0.703125 -1.875q0.21875 -1.03125 0.09375 -1.859375q-0.125 -0.828125 -0.578125 -1.4375q-0.4375 -0.609375 -1.140625 -0.9375q-0.6875 -0.328125 -1.59375 -0.328125l-3.21875 0l0.25 -0.1875l-2.03125 9.546875zm14.145264 1.203125q-1.296875 0 -2.1875 -0.5625q-0.890625 -0.578125 -1.25 -1.59375q-0.34375 -1.015625 -0.0625 -2.328125q0.203125 -1.015625 0.703125 -1.828125q0.5 -0.828125 1.203125 -1.4375q0.703125 -0.625 1.578125 -0.96875q0.875 -0.34375 1.796875 -0.34375q0.890625 0 1.53125 0.328125q0.65625 0.3125 1.0625 0.875q0.40625 0.546875 0.5 1.3125q0.109375 0.765625 -0.109375 1.6875l-0.140625 0.578125l-7.234375 0l0.03125 -1.046875l6.484375 0l-0.375 0.28125l0.09375 -0.40625q0.09375 -0.59375 -0.109375 -1.140625q-0.1875 -0.5625 -0.6875 -0.90625q-0.5 -0.359375 -1.296875 -0.359375q-0.921875 0 -1.703125 0.375q-0.765625 0.375 -1.296875 1.109375q-0.515625 0.734375 -0.734375 1.8125q-0.21875 1.03125 0.015625 1.796875q0.234375 0.75 0.890625 1.171875q0.65625 0.40625 1.703125 0.40625q0.625 0 1.265625 -0.203125q0.65625 -0.21875 1.515625 -0.828125l0.46875 0.90625q-0.484375 0.375 -1.078125 0.671875q-0.578125 0.28125 -1.25 0.46875q-0.671875 0.171875 -1.328125 0.171875zm5.586426 -0.171875l2.609375 -12.3125l1.25 0l-2.609375 12.3125l-1.25 0zm6.9057617 0.171875q-1.125 0 -1.921875 -0.59375q-0.796875 -0.59375 -1.109375 -1.609375q-0.3125 -1.03125 -0.046875 -2.328125q0.28125 -1.3125 1.046875 -2.328125q0.78125 -1.015625 1.828125 -1.59375q1.046875 -0.59375 2.1875 -0.59375q0.6875 0 1.21875 0.203125q0.53125 0.203125 0.90625 0.5625q0.390625 0.359375 0.59375 0.828125q0.21875 0.46875 0.21875 1.03125l-0.328125 -0.1875l0.53125 -2.25l1.25 0l-1.84375 8.6875l-1.265625 0l0.453125 -2.125l0.375 -0.21875q-0.234375 0.5 -0.65625 0.953125q-0.421875 0.453125 -0.984375 0.8125q-0.546875 0.34375 -1.171875 0.546875q-0.625 0.203125 -1.28125 0.203125zm0.53125 -1.203125q0.859375 0 1.640625 -0.421875q0.78125 -0.421875 1.328125 -1.171875q0.546875 -0.765625 0.75 -1.734375q0.203125 -0.96875 -0.03125 -1.71875q-0.21875 -0.75 -0.8125 -1.171875q-0.59375 -0.4375 -1.453125 -0.4375q-0.875 0 -1.65625 0.4375q-0.765625 0.421875 -1.328125 1.171875q-0.546875 0.75 -0.75 1.71875q-0.203125 0.953125 0.015625 1.71875q0.234375 0.75 0.828125 1.1875q0.59375 0.421875 1.46875 0.421875zm6.8673096 4.8593674l2.5625 -4.0937424l-0.15625 1.1875l-2.3125 -9.609375l1.421875 0l1.578125 6.65625q0.0625 0.265625 0.109375 0.625q0.0625 0.359375 0.125 0.703125l-0.46875 -0.046875q0.171875 -0.28125 0.34375 -0.578125q0.171875 -0.296875 0.34375 -0.578125l4.046875 -6.78125l1.421875 0l-5.34375 8.6875l-2.3125 3.8281174l-1.359375 0zm12.354492 -3.6562424q-0.875 0 -1.625 -0.25q-0.734375 -0.25 -1.28125 -0.75q-0.53125 -0.5 -0.875 -1.234375l1.125 -1.0q0.546875 1.109375 1.265625 1.5625q0.71875 0.453125 1.75 0.453125q0.75 0 1.421875 -0.25q0.671875 -0.25 1.109375 -0.703125q0.453125 -0.453125 0.578125 -1.03125q0.078125 -0.375 0.015625 -0.671875q-0.046875 -0.3125 -0.25 -0.53125q-0.203125 -0.234375 -0.53125 -0.421875q-0.328125 -0.1875 -0.78125 -0.328125q-0.4375 -0.15625 -0.984375 -0.3125q-0.796875 -0.1875 -1.390625 -0.46875q-0.578125 -0.28125 -0.9375 -0.671875q-0.359375 -0.40625 -0.46875 -0.921875q-0.109375 -0.53125 0.046875 -1.25q0.140625 -0.671875 0.546875 -1.25q0.421875 -0.59375 1.03125 -1.015625q0.609375 -0.421875 1.34375 -0.65625q0.75 -0.234375 1.546875 -0.234375q0.90625 0 1.5625 0.25q0.65625 0.234375 1.109375 0.703125q0.453125 0.46875 0.703125 1.109375l-1.09375 0.90625q-0.25 -0.5625 -0.609375 -0.953125q-0.34375 -0.40625 -0.828125 -0.609375q-0.46875 -0.203125 -1.109375 -0.203125q-0.71875 0 -1.34375 0.25q-0.609375 0.25 -1.015625 0.6875q-0.40625 0.4375 -0.53125 1.0q-0.078125 0.421875 0 0.75q0.078125 0.3125 0.34375 0.5625q0.265625 0.234375 0.75 0.4375q0.5 0.1875 1.1875 0.359375q0.828125 0.1875 1.453125 0.484375q0.625 0.28125 1.03125 0.671875q0.421875 0.390625 0.5625 0.90625q0.15625 0.515625 0.015625 1.171875q-0.21875 1.03125 -0.90625 1.8125q-0.671875 0.765625 -1.6875 1.203125q-1.015625 0.4375 -2.25 0.4375zm10.054993 0q-1.296875 0 -2.1875 -0.5625q-0.890625 -0.578125 -1.25 -1.59375q-0.34375 -1.015625 -0.0625 -2.328125q0.203125 -1.015625 0.703125 -1.828125q0.5 -0.828125 1.203125 -1.4375q0.703125 -0.625 1.578125 -0.96875q0.875 -0.34375 1.796875 -0.34375q0.890625 0 1.53125 0.328125q0.65625 0.3125 1.0625 0.875q0.40625 0.546875 0.5 1.3125q0.109375 0.765625 -0.109375 1.6875l-0.140625 0.578125l-7.234375 0l0.03125 -1.046875l6.484375 0l-0.375 0.28125l0.09375 -0.40625q0.09375 -0.59375 -0.109375 -1.140625q-0.1875 -0.5625 -0.6875 -0.90625q-0.5 -0.359375 -1.296875 -0.359375q-0.921875 0 -1.703125 0.375q-0.765625 0.375 -1.296875 1.109375q-0.515625 0.734375 -0.734375 1.8125q-0.21875 1.03125 0.015625 1.796875q0.234375 0.75 0.890625 1.171875q0.65625 0.40625 1.703125 0.40625q0.625 0 1.265625 -0.203125q0.65625 -0.21875 1.515625 -0.828125l0.46875 0.90625q-0.484375 0.375 -1.078125 0.671875q-0.578125 0.28125 -1.25 0.46875q-0.671875 0.171875 -1.328125 0.171875zm9.180176 0q-1.234375 0 -2.078125 -0.59375q-0.828125 -0.59375 -1.171875 -1.609375q-0.34375 -1.03125 -0.078125 -2.328125q0.28125 -1.296875 1.0625 -2.3125q0.78125 -1.03125 1.859375 -1.609375q1.09375 -0.59375 2.34375 -0.59375q1.109375 0 1.9375 0.453125q0.828125 0.4375 1.203125 1.21875l-0.921875 0.890625q-0.234375 -0.40625 -0.609375 -0.71875q-0.375 -0.328125 -0.84375 -0.5q-0.46875 -0.171875 -0.96875 -0.171875q-0.875 0 -1.671875 0.4375q-0.796875 0.4375 -1.375 1.1875q-0.5625 0.75 -0.765625 1.71875q-0.203125 0.96875 0.046875 1.734375q0.25 0.75 0.859375 1.1875q0.609375 0.421875 1.46875 0.421875q0.5 0 1.015625 -0.15625q0.515625 -0.15625 1.0 -0.453125q0.5 -0.3125 0.96875 -0.75l0.546875 0.890625q-0.734375 0.75 -1.78125 1.203125q-1.03125 0.453125 -2.046875 0.453125zm7.9404907 0q-1.109375 0 -1.90625 -0.421875q-0.796875 -0.421875 -1.171875 -1.09375l1.046875 -0.765625q0.359375 0.578125 0.953125 0.875q0.59375 0.296875 1.40625 0.296875q0.421875 0 0.765625 -0.078125q0.34375 -0.09375 0.625 -0.28125q0.296875 -0.1875 0.484375 -0.4375q0.1875 -0.25 0.25 -0.546875q0.109375 -0.546875 -0.28125 -0.90625q-0.1875 -0.15625 -0.546875 -0.3125q-0.359375 -0.15625 -0.90625 -0.3125q-0.875 -0.265625 -1.4375 -0.53125q-0.546875 -0.28125 -0.8125 -0.65625q-0.1875 -0.296875 -0.25 -0.640625q-0.046875 -0.34375 0.046875 -0.765625q0.109375 -0.53125 0.421875 -0.984375q0.328125 -0.453125 0.8125 -0.78125q0.484375 -0.34375 1.078125 -0.515625q0.59375 -0.1875 1.234375 -0.1875q0.625 0 1.1875 0.171875q0.5625 0.171875 1.015625 0.484375q0.453125 0.3125 0.71875 0.75l-0.953125 0.828125q-0.234375 -0.328125 -0.5625 -0.59375q-0.328125 -0.265625 -0.734375 -0.40625q-0.390625 -0.15625 -0.828125 -0.15625q-0.40625 0 -0.765625 0.09375q-0.34375 0.09375 -0.625 0.28125q-0.28125 0.171875 -0.46875 0.421875q-0.171875 0.25 -0.234375 0.546875q-0.0625 0.25 -0.015625 0.453125q0.0625 0.1875 0.21875 0.34375q0.1875 0.1875 0.578125 0.34375q0.390625 0.15625 1.0 0.3125q0.6875 0.203125 1.15625 0.421875q0.46875 0.203125 0.734375 0.484375q0.375 0.328125 0.46875 0.765625q0.09375 0.4375 -0.015625 0.984375q-0.15625 0.734375 -0.6875 1.296875q-0.515625 0.5625 -1.3125 0.890625q-0.78125 0.328125 -1.6875 0.328125z" fill-rule="nonzero"/><path fill="#f9ebff" d="m717.448 89.472466l158.23627 0l0 48.409447l-158.23627 0z" fill-rule="evenodd"/><path stroke="#001e2b" stroke-width="1.041994750656168" stroke-linejoin="round" stroke-linecap="butt" d="m717.448 89.472466l158.23627 0l0 48.409447l-158.23627 0z" fill-rule="evenodd"/><path fill="#000000" d="m735.8619 119.84523q-1.21875 0 -2.265625 -0.4375q-1.03125 -0.453125 -1.8125 -1.25q-0.765625 -0.796875 -1.203125 -1.890625q-0.421875 -1.09375 -0.421875 -2.390625q0 -1.296875 0.421875 -2.375q0.4375 -1.09375 1.203125 -1.90625q0.78125 -0.8125 1.8125 -1.25q1.046875 -0.4375 2.265625 -0.4375q1.25 0 2.28125 0.4375q1.046875 0.4375 1.828125 1.25q0.78125 0.8125 1.203125 1.90625q0.421875 1.078125 0.421875 2.375q0 1.28125 -0.421875 2.375q-0.421875 1.09375 -1.203125 1.90625q-0.78125 0.796875 -1.828125 1.25q-1.03125 0.4375 -2.28125 0.4375zm0 -1.28125q0.953125 0 1.75 -0.34375q0.8125 -0.34375 1.390625 -0.96875q0.59375 -0.640625 0.921875 -1.5q0.328125 -0.859375 0.328125 -1.875q0 -1.03125 -0.328125 -1.875q-0.328125 -0.859375 -0.921875 -1.484375q-0.578125 -0.640625 -1.390625 -0.984375q-0.796875 -0.359375 -1.75 -0.359375q-0.9375 0 -1.75 0.359375q-0.8125 0.34375 -1.390625 0.984375q-0.578125 0.625 -0.90625 1.484375q-0.3125 0.84375 -0.3125 1.875q0 1.015625 0.3125 1.875q0.328125 0.859375 0.90625 1.5q0.578125 0.625 1.390625 0.96875q0.8125 0.34375 1.75 0.34375zm7.7660522 1.109375l0 -8.6875l1.25 0l0.03125 2.3125l-0.140625 -0.3125q0.1875 -0.578125 0.59375 -1.078125q0.40625 -0.5 0.96875 -0.796875q0.578125 -0.3125 1.25 -0.3125q0.28125 0 0.53125 0.046875q0.25 0.046875 0.421875 0.109375l-0.34375 1.390625q-0.21875 -0.09375 -0.453125 -0.125q-0.21875 -0.046875 -0.421875 -0.046875q-0.5625 0 -1.015625 0.203125q-0.453125 0.1875 -0.765625 0.546875q-0.3125 0.359375 -0.484375 0.828125q-0.15625 0.46875 -0.15625 1.0l0 4.921875l-1.265625 0zm6.20697 3.6562424l0 -12.343742l1.25 0l0.03125 2.109375l-0.234375 0.03125q0.140625 -0.625 0.640625 -1.140625q0.5 -0.53125 1.21875 -0.84375q0.71875 -0.328125 1.515625 -0.328125q1.171875 0 2.09375 0.59375q0.921875 0.578125 1.46875 1.59375q0.546875 1.015625 0.546875 2.328125q0 1.296875 -0.53125 2.3125q-0.53125 1.015625 -1.46875 1.609375q-0.921875 0.59375 -2.09375 0.59375q-0.8125 0 -1.546875 -0.328125q-0.734375 -0.34375 -1.25 -0.875q-0.515625 -0.546875 -0.671875 -1.1875l0.296875 0l0 5.8749924l-1.265625 0zm4.234375 -4.6874924q0.890625 0 1.5625 -0.421875q0.6875 -0.4375 1.078125 -1.1875q0.40625 -0.75 0.40625 -1.703125q0 -0.96875 -0.40625 -1.71875q-0.390625 -0.75 -1.078125 -1.171875q-0.671875 -0.4375 -1.5625 -0.4375q-0.875 0 -1.578125 0.421875q-0.6875 0.421875 -1.09375 1.171875q-0.390625 0.75 -0.390625 1.71875q0 0.96875 0.390625 1.71875q0.40625 0.75 1.09375 1.1875q0.703125 0.421875 1.578125 0.421875zm6.116089 1.03125l0 -12.3125l1.25 0l0 5.515625l-0.25 0.25q0.171875 -0.671875 0.671875 -1.1875q0.5 -0.53125 1.171875 -0.828125q0.6875 -0.3125 1.375 -0.3125q1.0 0 1.65625 0.390625q0.671875 0.375 1.0 1.1875q0.328125 0.796875 0.328125 2.015625l0 5.28125l-1.265625 0l0 -5.203125q0 -0.875 -0.234375 -1.421875q-0.21875 -0.5625 -0.6875 -0.828125q-0.453125 -0.265625 -1.15625 -0.25q-0.546875 0 -1.03125 0.1875q-0.484375 0.1875 -0.84375 0.53125q-0.34375 0.328125 -0.546875 0.765625q-0.1875 0.421875 -0.1875 0.921875l0 5.296875l-0.625 0q-0.109375 0 -0.265625 0q-0.140625 0 -0.359375 0zm12.975647 0.171875q-1.125 0 -2.046875 -0.59375q-0.921875 -0.59375 -1.453125 -1.609375q-0.53125 -1.03125 -0.53125 -2.328125q0 -1.3125 0.546875 -2.328125q0.5625 -1.015625 1.484375 -1.59375q0.921875 -0.59375 2.0625 -0.59375q0.6875 0 1.265625 0.203125q0.578125 0.203125 1.03125 0.5625q0.46875 0.359375 0.765625 0.828125q0.3125 0.46875 0.4375 1.03125l-0.375 -0.1875l0.0625 -2.25l1.25 0l0 8.6875l-1.265625 0l0 -2.125l0.328125 -0.21875q-0.125 0.5 -0.453125 0.953125q-0.328125 0.453125 -0.8125 0.8125q-0.46875 0.34375 -1.0625 0.546875q-0.578125 0.203125 -1.234375 0.203125zm0.28125 -1.203125q0.859375 0 1.546875 -0.421875q0.6875 -0.421875 1.078125 -1.171875q0.390625 -0.765625 0.390625 -1.734375q0 -0.96875 -0.390625 -1.71875q-0.390625 -0.75 -1.078125 -1.171875q-0.6875 -0.4375 -1.546875 -0.4375q-0.875 0 -1.5625 0.4375q-0.671875 0.421875 -1.0625 1.171875q-0.390625 0.75 -0.390625 1.71875q0 0.953125 0.375 1.71875q0.390625 0.75 1.078125 1.1875q0.6875 0.421875 1.5625 0.421875zm6.6453857 1.03125l0 -8.6875l1.234375 0l0.046875 1.8125l-0.203125 0.078125q0.171875 -0.5625 0.640625 -1.015625q0.484375 -0.46875 1.15625 -0.765625q0.6875 -0.296875 1.390625 -0.296875q0.96875 0 1.609375 0.390625q0.65625 0.375 0.984375 1.1875q0.34375 0.796875 0.34375 2.015625l0 5.28125l-1.265625 0l0 -5.203125q0 -0.875 -0.234375 -1.421875q-0.21875 -0.5625 -0.6875 -0.828125q-0.453125 -0.265625 -1.140625 -0.25q-0.5625 0 -1.046875 0.1875q-0.484375 0.1875 -0.84375 0.53125q-0.34375 0.328125 -0.546875 0.765625q-0.1875 0.421875 -0.1875 0.921875l0 5.296875l-0.625 0q-0.109375 0 -0.265625 0q-0.140625 0 -0.359375 0zm19.57251 0.171875q-1.25 0 -2.3125 -0.4375q-1.046875 -0.453125 -1.8125 -1.25q-0.75 -0.8125 -1.1875 -1.90625q-0.421875 -1.109375 -0.421875 -2.40625q0 -1.28125 0.421875 -2.34375q0.4375 -1.078125 1.21875 -1.875q0.78125 -0.8125 1.8125 -1.25q1.03125 -0.4375 2.25 -0.4375q0.828125 0 1.625 0.265625q0.796875 0.25 1.46875 0.703125q0.671875 0.453125 1.109375 1.03125l-0.90625 0.9375q-0.40625 -0.5 -0.953125 -0.859375q-0.53125 -0.375 -1.140625 -0.578125q-0.59375 -0.203125 -1.203125 -0.203125q-0.921875 0 -1.734375 0.34375q-0.796875 0.34375 -1.390625 0.96875q-0.578125 0.609375 -0.90625 1.453125q-0.328125 0.84375 -0.328125 1.84375q0 1.03125 0.328125 1.90625q0.328125 0.859375 0.9375 1.484375q0.609375 0.625 1.421875 0.96875q0.828125 0.34375 1.84375 0.34375q0.59375 0 1.1875 -0.171875q0.609375 -0.1875 1.109375 -0.5q0.5 -0.3125 0.84375 -0.71875l0.671875 1.078125q-0.375 0.46875 -1.015625 0.828125q-0.640625 0.359375 -1.40625 0.578125q-0.765625 0.203125 -1.53125 0.203125zm5.9522095 -0.171875l0 -12.3125l1.25 0l0 12.3125l-1.25 0zm7.3744507 0.171875q-1.296875 0 -2.3125 -0.5625q-1.0 -0.578125 -1.578125 -1.59375q-0.5625 -1.015625 -0.5625 -2.328125q0 -1.015625 0.3125 -1.828125q0.328125 -0.828125 0.890625 -1.4375q0.578125 -0.625 1.375 -0.96875q0.8125 -0.34375 1.734375 -0.34375q0.890625 0 1.609375 0.328125q0.71875 0.3125 1.234375 0.875q0.53125 0.546875 0.796875 1.3125q0.265625 0.765625 0.234375 1.6875l-0.015625 0.578125l-7.234375 0l-0.1875 -1.046875l6.484375 0l-0.3125 0.28125l0 -0.40625q-0.03125 -0.59375 -0.34375 -1.140625q-0.3125 -0.5625 -0.890625 -0.90625q-0.578125 -0.359375 -1.375 -0.359375q-0.921875 0 -1.609375 0.375q-0.6875 0.375 -1.0625 1.109375q-0.359375 0.734375 -0.359375 1.8125q0 1.03125 0.390625 1.796875q0.40625 0.75 1.140625 1.171875q0.75 0.40625 1.796875 0.40625q0.625 0 1.21875 -0.203125q0.609375 -0.21875 1.34375 -0.828125l0.65625 0.90625q-0.390625 0.375 -0.921875 0.671875q-0.53125 0.28125 -1.171875 0.46875q-0.625 0.171875 -1.28125 0.171875zm8.914551 0q-1.125 0 -2.046875 -0.59375q-0.921875 -0.59375 -1.453125 -1.609375q-0.53125 -1.03125 -0.53125 -2.328125q0 -1.3125 0.546875 -2.328125q0.5625 -1.015625 1.484375 -1.59375q0.921875 -0.59375 2.0625 -0.59375q0.6875 0 1.265625 0.203125q0.578125 0.203125 1.03125 0.5625q0.46875 0.359375 0.765625 0.828125q0.3125 0.46875 0.4375 1.03125l-0.375 -0.1875l0.0625 -2.25l1.25 0l0 8.6875l-1.265625 0l0 -2.125l0.328125 -0.21875q-0.125 0.5 -0.453125 0.953125q-0.328125 0.453125 -0.8125 0.8125q-0.46875 0.34375 -1.0625 0.546875q-0.578125 0.203125 -1.234375 0.203125zm0.28125 -1.203125q0.859375 0 1.546875 -0.421875q0.6875 -0.421875 1.078125 -1.171875q0.390625 -0.765625 0.390625 -1.734375q0 -0.96875 -0.390625 -1.71875q-0.390625 -0.75 -1.078125 -1.171875q-0.6875 -0.4375 -1.546875 -0.4375q-0.875 0 -1.5625 0.4375q-0.671875 0.421875 -1.0625 1.171875q-0.390625 0.75 -0.390625 1.71875q0 0.953125 0.375 1.71875q0.390625 0.75 1.078125 1.1875q0.6875 0.421875 1.5625 0.421875zm6.6453857 1.03125l0 -8.6875l1.234375 0l0.046875 1.8125l-0.203125 0.078125q0.171875 -0.5625 0.640625 -1.015625q0.484375 -0.46875 1.15625 -0.765625q0.6875 -0.296875 1.390625 -0.296875q0.96875 0 1.609375 0.390625q0.65625 0.375 0.984375 1.1875q0.34375 0.796875 0.34375 2.015625l0 5.28125l-1.265625 0l0 -5.203125q0 -0.875 -0.234375 -1.421875q-0.21875 -0.5625 -0.6875 -0.828125q-0.453125 -0.265625 -1.140625 -0.25q-0.5625 0 -1.046875 0.1875q-0.484375 0.1875 -0.84375 0.53125q-0.34375 0.328125 -0.546875 0.765625q-0.1875 0.421875 -0.1875 0.921875l0 5.296875l-0.625 0q-0.109375 0 -0.265625 0q-0.140625 0 -0.359375 0zm9.303772 -4.015625l0 -1.25l4.6875 0l0 1.25l-4.6875 0zm9.9157715 4.1875q-1.0 0 -1.703125 -0.40625q-0.6875 -0.421875 -1.046875 -1.203125q-0.34375 -0.78125 -0.34375 -1.9375l0 -5.3125l1.265625 0l0 5.0625q0 0.875 0.234375 1.46875q0.25 0.59375 0.734375 0.890625q0.484375 0.296875 1.203125 0.296875q0.546875 0 1.015625 -0.1875q0.46875 -0.1875 0.8125 -0.515625q0.359375 -0.34375 0.546875 -0.78125q0.203125 -0.453125 0.203125 -0.953125l0 -5.28125l1.25 0l0 8.6875l-1.234375 0l-0.046875 -1.828125l0.203125 -0.109375q-0.203125 0.59375 -0.671875 1.0625q-0.46875 0.46875 -1.109375 0.765625q-0.640625 0.28125 -1.3125 0.28125zm6.6067505 3.4843674l0 -12.343742l1.25 0l0.03125 2.109375l-0.234375 0.03125q0.140625 -0.625 0.640625 -1.140625q0.5 -0.53125 1.21875 -0.84375q0.71875 -0.328125 1.515625 -0.328125q1.171875 0 2.09375 0.59375q0.921875 0.578125 1.46875 1.59375q0.546875 1.015625 0.546875 2.328125q0 1.296875 -0.53125 2.3125q-0.53125 1.015625 -1.46875 1.609375q-0.921875 0.59375 -2.09375 0.59375q-0.8125 0 -1.546875 -0.328125q-0.734375 -0.34375 -1.25 -0.875q-0.515625 -0.546875 -0.671875 -1.1875l0.296875 0l0 5.8749924l-1.265625 0zm4.234375 -4.6874924q0.890625 0 1.5625 -0.421875q0.6875 -0.4375 1.078125 -1.1875q0.40625 -0.75 0.40625 -1.703125q0 -0.96875 -0.40625 -1.71875q-0.390625 -0.75 -1.078125 -1.171875q-0.671875 -0.4375 -1.5625 -0.4375q-0.875 0 -1.578125 0.421875q-0.6875 0.421875 -1.09375 1.171875q-0.390625 0.75 -0.390625 1.71875q0 0.96875 0.390625 1.71875q0.40625 0.75 1.09375 1.1875q0.703125 0.421875 1.578125 0.421875z" fill-rule="nonzero"/><path fill="#000000" fill-opacity="0.0" d="m492.7875 44.87736l447.8425 -2.0472412" fill-rule="evenodd"/><path stroke="#001e2b" stroke-width="1.041994750656168" stroke-linejoin="round" stroke-linecap="butt" d="m492.78748 44.877365l443.89337 -2.0291939" fill-rule="evenodd"/><path fill="#001e2b" stroke="#001e2b" stroke-width="1.041994750656168" stroke-linecap="butt" d="m940.109 42.8325c0.004333496 0.94665146 -0.7595825 1.7175713 -1.7062378 1.7219009c-0.9466553 0.0043258667 -1.7175293 -0.7595787 -1.7218628 -1.7062302c-0.004333496 -0.94665146 0.7595825 -1.7175713 1.7061768 -1.7218971c0.9466553 -0.0043296814 1.7175903 0.7595749 1.7219238 1.7062263z" fill-rule="nonzero"/><path fill="#000000" fill-opacity="0.0" d="m875.68427 113.67719l64.566895 -0.62992096" fill-rule="evenodd"/><path stroke="#001e2b" stroke-width="1.041994750656168" stroke-linejoin="round" stroke-linecap="butt" d="m875.6842 113.67719l60.61798 -0.5913849" fill-rule="evenodd"/><path fill="#001e2b" stroke="#001e2b" stroke-width="1.041994750656168" stroke-linecap="butt" d="m939.73016 113.05236c0.009277344 0.9466095 -0.7506714 1.7214813 -1.6972656 1.7307205c-0.94659424 0.009231567 -1.7214966 -0.75066376 -1.7307129 -1.6972809c-0.009216309 -0.9466171 0.7506714 -1.721489 1.6972656 -1.7307205c0.94659424 -0.009231567 1.7214966 0.75066376 1.7307129 1.6972809z" fill-rule="nonzero"/><path fill="#00ed64" d="m267.38837 178.0l447.84253 0l0 48.409454l-447.84253 0z" fill-rule="evenodd"/><path stroke="#001e2b" stroke-width="1.041994750656168" stroke-linejoin="round" stroke-linecap="butt" d="m267.38837 178.0l447.84253 0l0 48.409454l-447.84253 0z" fill-rule="evenodd"/><path fill="#000000" d="m430.8259 208.19447l0 -11.65625l4.5625 0q1.0 0 1.828125 0.484375q0.828125 0.46875 1.3125 1.296875q0.484375 0.8125 0.484375 1.84375q0 0.953125 -0.46875 1.734375q-0.46875 0.78125 -1.265625 1.25q-0.796875 0.453125 -1.796875 0.453125l-3.359375 0l0 4.59375l-1.296875 0zm7.09375 0l-2.921875 -5.125l1.25 -0.4375l3.21875 5.5625l-1.546875 0zm-5.796875 -5.859375l3.46875 0q0.625 0 1.078125 -0.28125q0.46875 -0.28125 0.734375 -0.765625q0.265625 -0.5 0.265625 -1.125q0 -0.6875 -0.3125 -1.21875q-0.3125 -0.53125 -0.875 -0.828125q-0.546875 -0.3125 -1.265625 -0.3125l-3.09375 0l0 4.53125zm12.680969 6.03125q-1.296875 0 -2.3125 -0.5625q-1.0 -0.578125 -1.578125 -1.59375q-0.5625 -1.015625 -0.5625 -2.328125q0 -1.015625 0.3125 -1.828125q0.328125 -0.828125 0.890625 -1.4375q0.578125 -0.625 1.375 -0.96875q0.8125 -0.34375 1.734375 -0.34375q0.890625 0 1.609375 0.328125q0.71875 0.3125 1.234375 0.875q0.53125 0.546875 0.796875 1.3125q0.265625 0.765625 0.234375 1.6875l-0.015625 0.578125l-7.234375 0l-0.1875 -1.046875l6.484375 0l-0.3125 0.28125l0 -0.40625q-0.03125 -0.59375 -0.34375 -1.140625q-0.3125 -0.5625 -0.890625 -0.90625q-0.578125 -0.359375 -1.375 -0.359375q-0.921875 0 -1.609375 0.375q-0.6875 0.375 -1.0625 1.109375q-0.359375 0.734375 -0.359375 1.8125q0 1.03125 0.390625 1.796875q0.40625 0.75 1.140625 1.171875q0.75 0.40625 1.796875 0.40625q0.625 0 1.21875 -0.203125q0.609375 -0.21875 1.34375 -0.828125l0.65625 0.90625q-0.390625 0.375 -0.921875 0.671875q-0.53125 0.28125 -1.171875 0.46875q-0.625 0.171875 -1.28125 0.171875zm8.914551 0q-1.125 0 -2.046875 -0.59375q-0.921875 -0.59375 -1.453125 -1.609375q-0.53125 -1.03125 -0.53125 -2.328125q0 -1.3125 0.546875 -2.328125q0.5625 -1.015625 1.484375 -1.59375q0.921875 -0.59375 2.0625 -0.59375q0.6875 0 1.265625 0.203125q0.578125 0.203125 1.03125 0.5625q0.46875 0.359375 0.765625 0.828125q0.3125 0.46875 0.4375 1.03125l-0.375 -0.1875l0.0625 -2.25l1.25 0l0 8.6875l-1.265625 0l0 -2.125l0.328125 -0.21875q-0.125 0.5 -0.453125 0.953125q-0.328125 0.453125 -0.8125 0.8125q-0.46875 0.34375 -1.0625 0.546875q-0.578125 0.203125 -1.234375 0.203125zm0.28125 -1.203125q0.859375 0 1.546875 -0.421875q0.6875 -0.421875 1.078125 -1.171875q0.390625 -0.765625 0.390625 -1.734375q0 -0.96875 -0.390625 -1.71875q-0.390625 -0.75 -1.078125 -1.171875q-0.6875 -0.4375 -1.546875 -0.4375q-0.875 0 -1.5625 0.4375q-0.671875 0.421875 -1.0625 1.171875q-0.390625 0.75 -0.390625 1.71875q0 0.953125 0.375 1.71875q0.390625 0.75 1.078125 1.1875q0.6875 0.421875 1.5625 0.421875zm10.176605 1.203125q-1.1875 0 -2.125 -0.578125q-0.9375 -0.59375 -1.484375 -1.609375q-0.546875 -1.03125 -0.546875 -2.328125q0 -1.3125 0.546875 -2.328125q0.5625 -1.03125 1.484375 -1.609375q0.9375 -0.59375 2.09375 -0.59375q0.65625 0 1.265625 0.203125q0.609375 0.203125 1.09375 0.5625q0.484375 0.359375 0.796875 0.8125q0.3125 0.453125 0.375 0.953125l-0.375 -0.125l0 -5.84375l1.25 0l0 12.3125l-1.234375 0l-0.03125 -2.15625l0.3125 -0.125q-0.0625 0.46875 -0.375 0.90625q-0.3125 0.4375 -0.78125 0.796875q-0.453125 0.34375 -1.046875 0.546875q-0.59375 0.203125 -1.21875 0.203125zm0.171875 -1.15625q0.875 0 1.546875 -0.421875q0.6875 -0.4375 1.078125 -1.203125q0.390625 -0.765625 0.390625 -1.75q0 -0.984375 -0.390625 -1.734375q-0.390625 -0.765625 -1.078125 -1.203125q-0.671875 -0.4375 -1.546875 -0.4375q-0.890625 0 -1.578125 0.4375q-0.671875 0.4375 -1.0625 1.203125q-0.390625 0.75 -0.390625 1.734375q0 0.96875 0.375 1.734375q0.390625 0.765625 1.078125 1.203125q0.6875 0.4375 1.578125 0.4375zm16.586975 1.15625q-1.21875 0 -2.265625 -0.4375q-1.03125 -0.453125 -1.8125 -1.25q-0.765625 -0.796875 -1.203125 -1.890625q-0.421875 -1.09375 -0.421875 -2.390625q0 -1.296875 0.421875 -2.375q0.4375 -1.09375 1.203125 -1.90625q0.78125 -0.8125 1.8125 -1.25q1.046875 -0.4375 2.265625 -0.4375q1.25 0 2.28125 0.4375q1.046875 0.4375 1.828125 1.25q0.78125 0.8125 1.203125 1.90625q0.421875 1.078125 0.421875 2.375q0 1.28125 -0.421875 2.375q-0.421875 1.09375 -1.203125 1.90625q-0.78125 0.796875 -1.828125 1.25q-1.03125 0.4375 -2.28125 0.4375zm0 -1.28125q0.953125 0 1.75 -0.34375q0.8125 -0.34375 1.390625 -0.96875q0.59375 -0.640625 0.921875 -1.5q0.328125 -0.859375 0.328125 -1.875q0 -1.03125 -0.328125 -1.875q-0.328125 -0.859375 -0.921875 -1.484375q-0.578125 -0.640625 -1.390625 -0.984375q-0.796875 -0.359375 -1.75 -0.359375q-0.9375 0 -1.75 0.359375q-0.8125 0.34375 -1.390625 0.984375q-0.578125 0.625 -0.90625 1.484375q-0.3125 0.84375 -0.3125 1.875q0 1.015625 0.3125 1.875q0.328125 0.859375 0.90625 1.5q0.578125 0.625 1.390625 0.96875q0.8125 0.34375 1.75 0.34375zm7.7660522 4.765625l0 -12.34375l1.25 0l0.03125 2.109375l-0.234375 0.03125q0.140625 -0.625 0.640625 -1.140625q0.5 -0.53125 1.21875 -0.84375q0.71875 -0.328125 1.515625 -0.328125q1.171875 0 2.09375 0.59375q0.921875 0.578125 1.46875 1.59375q0.546875 1.015625 0.546875 2.328125q0 1.296875 -0.53125 2.3125q-0.53125 1.015625 -1.46875 1.609375q-0.921875 0.59375 -2.09375 0.59375q-0.8125 0 -1.546875 -0.328125q-0.734375 -0.34375 -1.25 -0.875q-0.515625 -0.546875 -0.671875 -1.1875l0.296875 0l0 5.875l-1.265625 0zm4.234375 -4.6875q0.890625 0 1.5625 -0.421875q0.6875 -0.4375 1.078125 -1.1875q0.40625 -0.75 0.40625 -1.703125q0 -0.96875 -0.40625 -1.71875q-0.390625 -0.75 -1.078125 -1.171875q-0.671875 -0.4375 -1.5625 -0.4375q-0.875 0 -1.578125 0.421875q-0.6875 0.421875 -1.09375 1.171875q-0.390625 0.75 -0.390625 1.71875q0 0.96875 0.390625 1.71875q0.40625 0.75 1.09375 1.1875q0.703125 0.421875 1.578125 0.421875zm9.944244 1.203125q-1.296875 0 -2.3125 -0.5625q-1.0 -0.578125 -1.578125 -1.59375q-0.5625 -1.015625 -0.5625 -2.328125q0 -1.015625 0.3125 -1.828125q0.328125 -0.828125 0.890625 -1.4375q0.578125 -0.625 1.375 -0.96875q0.8125 -0.34375 1.734375 -0.34375q0.890625 0 1.609375 0.328125q0.71875 0.3125 1.234375 0.875q0.53125 0.546875 0.796875 1.3125q0.265625 0.765625 0.234375 1.6875l-0.015625 0.578125l-7.234375 0l-0.1875 -1.046875l6.484375 0l-0.3125 0.28125l0 -0.40625q-0.03125 -0.59375 -0.34375 -1.140625q-0.3125 -0.5625 -0.890625 -0.90625q-0.578125 -0.359375 -1.375 -0.359375q-0.921875 0 -1.609375 0.375q-0.6875 0.375 -1.0625 1.109375q-0.359375 0.734375 -0.359375 1.8125q0 1.03125 0.390625 1.796875q0.40625 0.75 1.140625 1.171875q0.75 0.40625 1.796875 0.40625q0.625 0 1.21875 -0.203125q0.609375 -0.21875 1.34375 -0.828125l0.65625 0.90625q-0.390625 0.375 -0.921875 0.671875q-0.53125 0.28125 -1.171875 0.46875q-0.625 0.171875 -1.28125 0.171875zm5.523926 -0.171875l0 -8.6875l1.25 0l0.03125 2.3125l-0.140625 -0.3125q0.1875 -0.578125 0.59375 -1.078125q0.40625 -0.5 0.96875 -0.796875q0.578125 -0.3125 1.2500305 -0.3125q0.28125 0 0.53125 0.046875q0.25 0.046875 0.421875 0.109375l-0.34375 1.390625q-0.21875 -0.09375 -0.453125 -0.125q-0.21875 -0.046875 -0.421875 -0.046875q-0.5625305 0 -1.0156555 0.203125q-0.453125 0.1875 -0.765625 0.546875q-0.3125 0.359375 -0.484375 0.828125q-0.15625 0.46875 -0.15625 1.0l0 4.921875l-1.265625 0zm9.231171 0.171875q-1.125 0 -2.046875 -0.59375q-0.921875 -0.59375 -1.453125 -1.609375q-0.53125 -1.03125 -0.53125 -2.328125q0 -1.3125 0.546875 -2.328125q0.5625 -1.015625 1.484375 -1.59375q0.921875 -0.59375 2.0625 -0.59375q0.6875 0 1.265625 0.203125q0.578125 0.203125 1.03125 0.5625q0.46875 0.359375 0.765625 0.828125q0.3125 0.46875 0.4375 1.03125l-0.375 -0.1875l0.0625 -2.25l1.25 0l0 8.6875l-1.265625 0l0 -2.125l0.328125 -0.21875q-0.125 0.5 -0.453125 0.953125q-0.328125 0.453125 -0.8125 0.8125q-0.46875 0.34375 -1.0625 0.546875q-0.578125 0.203125 -1.234375 0.203125zm0.28125 -1.203125q0.859375 0 1.546875 -0.421875q0.6875 -0.421875 1.078125 -1.171875q0.390625 -0.765625 0.390625 -1.734375q0 -0.96875 -0.390625 -1.71875q-0.390625 -0.75 -1.078125 -1.171875q-0.6875 -0.4375 -1.546875 -0.4375q-0.875 0 -1.5625 0.4375q-0.671875 0.421875 -1.0625 1.171875q-0.390625 0.75 -0.390625 1.71875q0 0.953125 0.375 1.71875q0.390625 0.75 1.078125 1.1875q0.6875 0.421875 1.5625 0.421875zm7.8328247 1.03125l0 -10.96875l1.25 0l0 10.96875l-1.25 0zm-1.953125 -7.484375l0 -1.203125l5.40625 0l0 1.203125l-5.40625 0zm7.267456 7.484375l0 -8.6875l1.25 0l0 8.6875l-1.25 0zm0.609375 -10.5625q-0.453125 0 -0.703125 -0.234375q-0.234375 -0.25 -0.234375 -0.671875q0 -0.40625 0.25 -0.65625q0.25 -0.25 0.6875 -0.25q0.453125 0 0.703125 0.25q0.25 0.234375 0.25 0.65625q0 0.40625 -0.25 0.65625q-0.25 0.25 -0.703125 0.25zm7.2161865 10.734375q-1.296875 0 -2.3125 -0.578125q-1.0 -0.59375 -1.578125 -1.625q-0.578125 -1.03125 -0.578125 -2.34375q0 -1.296875 0.578125 -2.3125q0.578125 -1.015625 1.578125 -1.59375q1.015625 -0.59375 2.3125 -0.59375q1.28125 0 2.28125 0.59375q1.015625 0.578125 1.578125 1.59375q0.578125 1.015625 0.578125 2.3125q0 1.3125 -0.578125 2.34375q-0.5625 1.03125 -1.578125 1.625q-1.0 0.578125 -2.28125 0.578125zm0 -1.1875q0.90625 0 1.625 -0.4375q0.71875 -0.4375 1.109375 -1.1875q0.40625 -0.765625 0.40625 -1.734375q0 -0.96875 -0.40625 -1.71875q-0.390625 -0.75 -1.109375 -1.171875q-0.71875 -0.421875 -1.625 -0.421875q-0.921875 0 -1.640625 0.421875q-0.71875 0.421875 -1.140625 1.1875q-0.40625 0.75 -0.390625 1.703125q-0.015625 0.96875 0.390625 1.734375q0.421875 0.75 1.140625 1.1875q0.71875 0.4375 1.640625 0.4375zm6.257141 1.015625l0 -8.6875l1.234375 0l0.046875 1.8125l-0.203125 0.078125q0.171875 -0.5625 0.640625 -1.015625q0.484375 -0.46875 1.15625 -0.765625q0.6875 -0.296875 1.390625 -0.296875q0.96875 0 1.609375 0.390625q0.65625 0.375 0.984375 1.1875q0.34375 0.796875 0.34375 2.015625l0 5.28125l-1.265625 0l0 -5.203125q0 -0.875 -0.234375 -1.421875q-0.21875 -0.5625 -0.6875 -0.828125q-0.453125 -0.265625 -1.140625 -0.25q-0.5625 0 -1.046875 0.1875q-0.484375 0.1875 -0.84375 0.53125q-0.34375 0.328125 -0.546875 0.765625q-0.1875 0.421875 -0.1875 0.921875l0 5.296875l-0.625 0q-0.109375 0 -0.265625 0q-0.140625 0 -0.359375 0z" fill-rule="nonzero"/><path fill="#000000" fill-opacity="0.0" d="m137.35881 238.44133l47.18109 0.09448242" fill-rule="evenodd"/><path stroke="#001e2b" stroke-width="1.041994750656168" stroke-linejoin="round" stroke-linecap="round" d="m137.35881 238.44133l47.18109 0.09448242" fill-rule="evenodd"/><path fill="#000000" fill-opacity="0.0" d="m184.57205 203.81708l83.549774 0" fill-rule="evenodd"/><path stroke="#001e2b" stroke-width="1.041994750656168" stroke-linejoin="round" stroke-linecap="round" d="m184.57205 203.81708l83.549774 0" fill-rule="evenodd"/><path fill="#000000" fill-opacity="0.0" d="m184.55122 203.81236l0 34.752747" fill-rule="evenodd"/><path stroke="#001e2b" stroke-width="1.041994750656168" stroke-linejoin="round" stroke-linecap="round" d="m184.55122 203.81236l0 34.752747" fill-rule="evenodd"/><path fill="#000000" fill-opacity="0.0" d="m184.70985 273.20673l533.32336 0" fill-rule="evenodd"/><path stroke="#001e2b" stroke-width="1.041994750656168" stroke-linejoin="round" stroke-linecap="round" d="m184.70985 273.20673l533.32336 0" fill-rule="evenodd"/><path fill="#000000" fill-opacity="0.0" d="m184.57695 273.21143l0 -34.752747" fill-rule="evenodd"/><path stroke="#001e2b" stroke-width="1.041994750656168" stroke-linejoin="round" stroke-linecap="round" d="m184.57695 273.21143l0 -34.752747" fill-rule="evenodd"/><path fill="#f9ebff" d="m718.0081 248.90843l157.66931 0l0 48.40944l-157.66931 0z" fill-rule="evenodd"/><path stroke="#001e2b" stroke-width="1.041994750656168" stroke-linejoin="round" stroke-linecap="butt" d="m718.0081 248.90843l157.66931 0l0 48.40944l-157.66931 0z" fill-rule="evenodd"/><path fill="#000000" d="m736.13855 269.2876q-1.21875 0 -2.265625 -0.4375q-1.03125 -0.453125 -1.8125 -1.25q-0.765625 -0.796875 -1.203125 -1.890625q-0.421875 -1.09375 -0.421875 -2.390625q0 -1.296875 0.421875 -2.375q0.4375 -1.09375 1.203125 -1.90625q0.78125 -0.8125 1.8125 -1.25q1.046875 -0.4375 2.265625 -0.4375q1.25 0 2.28125 0.4375q1.046875 0.4375 1.828125 1.25q0.78125 0.8125 1.203125 1.90625q0.421875 1.078125 0.421875 2.375q0 1.28125 -0.421875 2.375q-0.421875 1.09375 -1.203125 1.90625q-0.78125 0.796875 -1.828125 1.25q-1.03125 0.4375 -2.28125 0.4375zm0 -1.28125q0.953125 0 1.75 -0.34375q0.8125 -0.34375 1.390625 -0.96875q0.59375 -0.640625 0.921875 -1.5q0.328125 -0.859375 0.328125 -1.875q0 -1.03125 -0.328125 -1.875q-0.328125 -0.859375 -0.921875 -1.484375q-0.578125 -0.640625 -1.390625 -0.984375q-0.796875 -0.359375 -1.75 -0.359375q-0.9375 0 -1.75 0.359375q-0.8125 0.34375 -1.390625 0.984375q-0.578125 0.625 -0.90625 1.484375q-0.3125 0.84375 -0.3125 1.875q0 1.015625 0.3125 1.875q0.328125 0.859375 0.90625 1.5q0.578125 0.625 1.390625 0.96875q0.8125 0.34375 1.75 0.34375zm7.7660522 1.109375l0 -8.6875l1.25 0l0.03125 2.3125l-0.140625 -0.3125q0.1875 -0.578125 0.59375 -1.078125q0.40625 -0.5 0.96875 -0.796875q0.578125 -0.3125 1.25 -0.3125q0.28125 0 0.53125 0.046875q0.25 0.046875 0.421875 0.109375l-0.34375 1.390625q-0.21875 -0.09375 -0.453125 -0.125q-0.21875 -0.046875 -0.421875 -0.046875q-0.5625 0 -1.015625 0.203125q-0.453125 0.1875 -0.765625 0.546875q-0.3125 0.359375 -0.484375 0.828125q-0.15625 0.46875 -0.15625 1.0l0 4.921875l-1.265625 0zm6.20697 3.65625l0 -12.34375l1.25 0l0.03125 2.109375l-0.234375 0.03125q0.140625 -0.625 0.640625 -1.140625q0.5 -0.53125 1.21875 -0.84375q0.71875 -0.328125 1.515625 -0.328125q1.171875 0 2.09375 0.59375q0.921875 0.578125 1.46875 1.59375q0.546875 1.015625 0.546875 2.328125q0 1.296875 -0.53125 2.3125q-0.53125 1.015625 -1.46875 1.609375q-0.921875 0.59375 -2.09375 0.59375q-0.8125 0 -1.546875 -0.328125q-0.734375 -0.34375 -1.25 -0.875q-0.515625 -0.546875 -0.671875 -1.1875l0.296875 0l0 5.875l-1.265625 0zm4.234375 -4.6875q0.890625 0 1.5625 -0.421875q0.6875 -0.4375 1.078125 -1.1875q0.40625 -0.75 0.40625 -1.703125q0 -0.96875 -0.40625 -1.71875q-0.390625 -0.75 -1.078125 -1.171875q-0.671875 -0.4375 -1.5625 -0.4375q-0.875 0 -1.578125 0.421875q-0.6875 0.421875 -1.09375 1.171875q-0.390625 0.75 -0.390625 1.71875q0 0.96875 0.390625 1.71875q0.40625 0.75 1.09375 1.1875q0.703125 0.421875 1.578125 0.421875zm6.116089 1.03125l0 -12.3125l1.25 0l0 5.515625l-0.25 0.25q0.171875 -0.671875 0.671875 -1.1875q0.5 -0.53125 1.171875 -0.828125q0.6875 -0.3125 1.375 -0.3125q1.0 0 1.65625 0.390625q0.671875 0.375 1.0 1.1875q0.328125 0.796875 0.328125 2.015625l0 5.28125l-1.265625 0l0 -5.203125q0 -0.875 -0.234375 -1.421875q-0.21875 -0.5625 -0.6875 -0.828125q-0.453125 -0.265625 -1.15625 -0.25q-0.546875 0 -1.03125 0.1875q-0.484375 0.1875 -0.84375 0.53125q-0.34375 0.328125 -0.546875 0.765625q-0.1875 0.421875 -0.1875 0.921875l0 5.296875l-0.625 0q-0.109375 0 -0.265625 0q-0.140625 0 -0.359375 0zm12.975647 0.171875q-1.125 0 -2.046875 -0.59375q-0.921875 -0.59375 -1.453125 -1.609375q-0.53125 -1.03125 -0.53125 -2.328125q0 -1.3125 0.546875 -2.328125q0.5625 -1.015625 1.484375 -1.59375q0.921875 -0.59375 2.0625 -0.59375q0.6875 0 1.265625 0.203125q0.578125 0.203125 1.03125 0.5625q0.46875 0.359375 0.765625 0.828125q0.3125 0.46875 0.4375 1.03125l-0.375 -0.1875l0.0625 -2.25l1.25 0l0 8.6875l-1.265625 0l0 -2.125l0.328125 -0.21875q-0.125 0.5 -0.453125 0.953125q-0.328125 0.453125 -0.8125 0.8125q-0.46875 0.34375 -1.0625 0.546875q-0.578125 0.203125 -1.234375 0.203125zm0.28125 -1.203125q0.859375 0 1.546875 -0.421875q0.6875 -0.421875 1.078125 -1.171875q0.390625 -0.765625 0.390625 -1.734375q0 -0.96875 -0.390625 -1.71875q-0.390625 -0.75 -1.078125 -1.171875q-0.6875 -0.4375 -1.546875 -0.4375q-0.875 0 -1.5625 0.4375q-0.671875 0.421875 -1.0625 1.171875q-0.390625 0.75 -0.390625 1.71875q0 0.953125 0.375 1.71875q0.390625 0.75 1.078125 1.1875q0.6875 0.421875 1.5625 0.421875zm6.6453247 1.03125l0 -8.6875l1.234375 0l0.046875 1.8125l-0.203125 0.078125q0.171875 -0.5625 0.640625 -1.015625q0.484375 -0.46875 1.15625 -0.765625q0.6875 -0.296875 1.390625 -0.296875q0.96875 0 1.609375 0.390625q0.65625 0.375 0.984375 1.1875q0.34375 0.796875 0.34375 2.015625l0 5.28125l-1.265625 0l0 -5.203125q0 -0.875 -0.234375 -1.421875q-0.21875 -0.5625 -0.6875 -0.828125q-0.453125 -0.265625 -1.140625 -0.25q-0.5625 0 -1.046875 0.1875q-0.484375 0.1875 -0.84375 0.53125q-0.34375 0.328125 -0.546875 0.765625q-0.1875 0.421875 -0.1875 0.921875l0 5.296875l-0.625 0q-0.109375 0 -0.265625 0q-0.140625 0 -0.359375 0zm19.57257 0.171875q-1.25 0 -2.3125 -0.4375q-1.046875 -0.453125 -1.8125 -1.25q-0.75 -0.8125 -1.1875 -1.90625q-0.421875 -1.109375 -0.421875 -2.40625q0 -1.28125 0.421875 -2.34375q0.4375 -1.078125 1.21875 -1.875q0.78125 -0.8125 1.8125 -1.25q1.03125 -0.4375 2.25 -0.4375q0.828125 0 1.625 0.265625q0.796875 0.25 1.46875 0.703125q0.671875 0.453125 1.109375 1.03125l-0.90625 0.9375q-0.40625 -0.5 -0.953125 -0.859375q-0.53125 -0.375 -1.140625 -0.578125q-0.59375 -0.203125 -1.203125 -0.203125q-0.921875 0 -1.734375 0.34375q-0.796875 0.34375 -1.390625 0.96875q-0.578125 0.609375 -0.90625 1.453125q-0.328125 0.84375 -0.328125 1.84375q0 1.03125 0.328125 1.90625q0.328125 0.859375 0.9375 1.484375q0.609375 0.625 1.421875 0.96875q0.828125 0.34375 1.84375 0.34375q0.59375 0 1.1875 -0.171875q0.609375 -0.1875 1.109375 -0.5q0.5 -0.3125 0.84375 -0.71875l0.671875 1.078125q-0.375 0.46875 -1.015625 0.828125q-0.640625 0.359375 -1.40625 0.578125q-0.765625 0.203125 -1.53125 0.203125zm5.9522095 -0.171875l0 -12.3125l1.25 0l0 12.3125l-1.25 0zm7.3744507 0.171875q-1.296875 0 -2.3125 -0.5625q-1.0 -0.578125 -1.578125 -1.59375q-0.5625 -1.015625 -0.5625 -2.328125q0 -1.015625 0.3125 -1.828125q0.328125 -0.828125 0.890625 -1.4375q0.578125 -0.625 1.375 -0.96875q0.8125 -0.34375 1.734375 -0.34375q0.890625 0 1.609375 0.328125q0.71875 0.3125 1.234375 0.875q0.53125 0.546875 0.796875 1.3125q0.265625 0.765625 0.234375 1.6875l-0.015625 0.578125l-7.234375 0l-0.1875 -1.046875l6.484375 0l-0.3125 0.28125l0 -0.40625q-0.03125 -0.59375 -0.34375 -1.140625q-0.3125 -0.5625 -0.890625 -0.90625q-0.578125 -0.359375 -1.375 -0.359375q-0.921875 0 -1.609375 0.375q-0.6875 0.375 -1.0625 1.109375q-0.359375 0.734375 -0.359375 1.8125q0 1.03125 0.390625 1.796875q0.40625 0.75 1.140625 1.171875q0.75 0.40625 1.796875 0.40625q0.625 0 1.21875 -0.203125q0.609375 -0.21875 1.34375 -0.828125l0.65625 0.90625q-0.390625 0.375 -0.921875 0.671875q-0.53125 0.28125 -1.171875 0.46875q-0.625 0.171875 -1.28125 0.171875zm8.914551 0q-1.125 0 -2.046875 -0.59375q-0.921875 -0.59375 -1.453125 -1.609375q-0.53125 -1.03125 -0.53125 -2.328125q0 -1.3125 0.546875 -2.328125q0.5625 -1.015625 1.484375 -1.59375q0.921875 -0.59375 2.0625 -0.59375q0.6875 0 1.265625 0.203125q0.578125 0.203125 1.03125 0.5625q0.46875 0.359375 0.765625 0.828125q0.3125 0.46875 0.4375 1.03125l-0.375 -0.1875l0.0625 -2.25l1.25 0l0 8.6875l-1.265625 0l0 -2.125l0.328125 -0.21875q-0.125 0.5 -0.453125 0.953125q-0.328125 0.453125 -0.8125 0.8125q-0.46875 0.34375 -1.0625 0.546875q-0.578125 0.203125 -1.234375 0.203125zm0.28125 -1.203125q0.859375 0 1.546875 -0.421875q0.6875 -0.421875 1.078125 -1.171875q0.390625 -0.765625 0.390625 -1.734375q0 -0.96875 -0.390625 -1.71875q-0.390625 -0.75 -1.078125 -1.171875q-0.6875 -0.4375 -1.546875 -0.4375q-0.875 0 -1.5625 0.4375q-0.671875 0.421875 -1.0625 1.171875q-0.390625 0.75 -0.390625 1.71875q0 0.953125 0.375 1.71875q0.390625 0.75 1.078125 1.1875q0.6875 0.421875 1.5625 0.421875zm6.6453247 1.03125l0 -8.6875l1.234375 0l0.046875 1.8125l-0.203125 0.078125q0.171875 -0.5625 0.640625 -1.015625q0.484375 -0.46875 1.15625 -0.765625q0.6875 -0.296875 1.390625 -0.296875q0.96875 0 1.609375 0.390625q0.65625 0.375 0.984375 1.1875q0.34375 0.796875 0.34375 2.015625l0 5.28125l-1.265625 0l0 -5.203125q0 -0.875 -0.234375 -1.421875q-0.21875 -0.5625 -0.6875 -0.828125q-0.453125 -0.265625 -1.140625 -0.25q-0.5625 0 -1.046875 0.1875q-0.484375 0.1875 -0.84375 0.53125q-0.34375 0.328125 -0.546875 0.765625q-0.1875 0.421875 -0.1875 0.921875l0 5.296875l-0.625 0q-0.109375 0 -0.265625 0q-0.140625 0 -0.359375 0zm9.303772 -4.015625l0 -1.25l4.6875 0l0 1.25l-4.6875 0zm9.9158325 4.1875q-1.0 0 -1.703125 -0.40625q-0.6875 -0.421875 -1.046875 -1.203125q-0.34375 -0.78125 -0.34375 -1.9375l0 -5.3125l1.265625 0l0 5.0625q0 0.875 0.234375 1.46875q0.25 0.59375 0.734375 0.890625q0.484375 0.296875 1.203125 0.296875q0.546875 0 1.015625 -0.1875q0.46875 -0.1875 0.8125 -0.515625q0.359375 -0.34375 0.546875 -0.78125q0.203125 -0.453125 0.203125 -0.953125l0 -5.28125l1.25 0l0 8.6875l-1.234375 0l-0.046875 -1.828125l0.203125 -0.109375q-0.203125 0.59375 -0.671875 1.0625q-0.46875 0.46875 -1.109375 0.765625q-0.640625 0.28125 -1.3125 0.28125zm6.6066895 3.484375l0 -12.34375l1.25 0l0.03125 2.109375l-0.234375 0.03125q0.140625 -0.625 0.640625 -1.140625q0.5 -0.53125 1.21875 -0.84375q0.71875 -0.328125 1.515625 -0.328125q1.171875 0 2.09375 0.59375q0.921875 0.578125 1.46875 1.59375q0.546875 1.015625 0.546875 2.328125q0 1.296875 -0.53125 2.3125q-0.53125 1.015625 -1.46875 1.609375q-0.921875 0.59375 -2.09375 0.59375q-0.8125 0 -1.546875 -0.328125q-0.734375 -0.34375 -1.25 -0.875q-0.515625 -0.546875 -0.671875 -1.1875l0.296875 0l0 5.875l-1.265625 0zm4.234375 -4.6875q0.890625 0 1.5625 -0.421875q0.6875 -0.4375 1.078125 -1.1875q0.40625 -0.75 0.40625 -1.703125q0 -0.96875 -0.40625 -1.71875q-0.390625 -0.75 -1.078125 -1.171875q-0.671875 -0.4375 -1.5625 -0.4375q-0.875 0 -1.578125 0.421875q-0.6875 0.421875 -1.09375 1.171875q-0.390625 0.75 -0.390625 1.71875q0 0.96875 0.390625 1.71875q0.40625 0.75 1.09375 1.1875q0.703125 0.421875 1.578125 0.421875z" fill-rule="nonzero"/><path fill="#000000" d="m754.7385 289.1029l0 -11.65625l4.5625 0q1.0 0 1.828125 0.484375q0.828125 0.46875 1.3125 1.296875q0.484375 0.8125 0.484375 1.84375q0 0.953125 -0.46875 1.734375q-0.46875 0.78125 -1.265625 1.25q-0.796875 0.453125 -1.796875 0.453125l-3.359375 0l0 4.59375l-1.296875 0zm7.09375 0l-2.921875 -5.125l1.25 -0.4375l3.21875 5.5625l-1.546875 0zm-5.796875 -5.859375l3.46875 0q0.625 0 1.078125 -0.28125q0.46875 -0.28125 0.734375 -0.765625q0.265625 -0.5 0.265625 -1.125q0 -0.6875 -0.3125 -1.21875q-0.3125 -0.53125 -0.875 -0.828125q-0.546875 -0.3125 -1.265625 -0.3125l-3.09375 0l0 4.53125zm12.680969 6.03125q-1.296875 0 -2.3125 -0.5625q-1.0 -0.578125 -1.578125 -1.59375q-0.5625 -1.015625 -0.5625 -2.328125q0 -1.015625 0.3125 -1.828125q0.328125 -0.828125 0.890625 -1.4375q0.578125 -0.625 1.375 -0.96875q0.8125 -0.34375 1.734375 -0.34375q0.890625 0 1.609375 0.328125q0.71875 0.3125 1.234375 0.875q0.53125 0.546875 0.796875 1.3125q0.265625 0.765625 0.234375 1.6875l-0.015625 0.578125l-7.234375 0l-0.1875 -1.046875l6.484375 0l-0.3125 0.28125l0 -0.40625q-0.03125 -0.59375 -0.34375 -1.140625q-0.3125 -0.5625 -0.890625 -0.90625q-0.578125 -0.359375 -1.375 -0.359375q-0.921875 0 -1.609375 0.375q-0.6875 0.375 -1.0625 1.109375q-0.359375 0.734375 -0.359375 1.8125q0 1.03125 0.390625 1.796875q0.40625 0.75 1.140625 1.171875q0.75 0.40625 1.796875 0.40625q0.625 0 1.21875 -0.203125q0.609375 -0.21875 1.34375 -0.828125l0.65625 0.90625q-0.390625 0.375 -0.921875 0.671875q-0.53125 0.28125 -1.171875 0.46875q-0.625 0.171875 -1.28125 0.171875zm5.523926 3.484375l0 -12.34375l1.25 0l0.03125 2.109375l-0.234375 0.03125q0.140625 -0.625 0.640625 -1.140625q0.5 -0.53125 1.21875 -0.84375q0.71875 -0.328125 1.515625 -0.328125q1.171875 0 2.09375 0.59375q0.921875 0.578125 1.46875 1.59375q0.546875 1.015625 0.546875 2.328125q0 1.296875 -0.53125 2.3125q-0.53125 1.015625 -1.46875 1.609375q-0.921875 0.59375 -2.09375 0.59375q-0.8125 0 -1.546875 -0.328125q-0.734375 -0.34375 -1.25 -0.875q-0.515625 -0.546875 -0.671875 -1.1875l0.296875 0l0 5.875l-1.265625 0zm4.234375 -4.6875q0.890625 0 1.5625 -0.421875q0.6875 -0.4375 1.078125 -1.1875q0.40625 -0.75 0.40625 -1.703125q0 -0.96875 -0.40625 -1.71875q-0.390625 -0.75 -1.078125 -1.171875q-0.671875 -0.4375 -1.5625 -0.4375q-0.875 0 -1.578125 0.421875q-0.6875 0.421875 -1.09375 1.171875q-0.390625 0.75 -0.390625 1.71875q0 0.96875 0.390625 1.71875q0.40625 0.75 1.09375 1.1875q0.703125 0.421875 1.578125 0.421875zm6.147339 1.03125l0 -12.3125l1.25 0l0 12.3125l-1.25 0zm4.0410156 0l0 -8.6875l1.25 0l0 8.6875l-1.25 0zm0.609375 -10.5625q-0.453125 0 -0.703125 -0.234375q-0.234375 -0.25 -0.234375 -0.671875q0 -0.40625 0.25 -0.65625q0.25 -0.25 0.6875 -0.25q0.453125 0 0.703125 0.25q0.25 0.234375 0.25 0.65625q0 0.40625 -0.25 0.65625q-0.25 0.25 -0.703125 0.25zm7.0286865 10.734375q-1.234375 0 -2.203125 -0.59375q-0.953125 -0.59375 -1.515625 -1.609375q-0.5625 -1.03125 -0.5625 -2.328125q0 -1.296875 0.5625 -2.3125q0.5625 -1.03125 1.515625 -1.609375q0.96875 -0.59375 2.21875 -0.59375q1.109375 0 2.03125 0.453125q0.921875 0.4375 1.46875 1.21875l-0.734375 0.890625q-0.3125 -0.40625 -0.765625 -0.71875q-0.4375 -0.328125 -0.953125 -0.5q-0.5 -0.171875 -1.0 -0.171875q-0.875 0 -1.578125 0.4375q-0.703125 0.4375 -1.109375 1.1875q-0.40625 0.75 -0.40625 1.71875q0 0.96875 0.40625 1.734375q0.40625 0.75 1.109375 1.1875q0.703125 0.421875 1.5625 0.421875q0.5 0 0.984375 -0.15625q0.484375 -0.15625 0.90625 -0.453125q0.4375 -0.3125 0.8125 -0.75l0.734375 0.890625q-0.578125 0.75 -1.53125 1.203125q-0.9375 0.453125 -1.953125 0.453125zm8.487366 0q-1.125 0 -2.046875 -0.59375q-0.921875 -0.59375 -1.453125 -1.609375q-0.53125 -1.03125 -0.53125 -2.328125q0 -1.3125 0.546875 -2.328125q0.5625 -1.015625 1.484375 -1.59375q0.921875 -0.59375 2.0625 -0.59375q0.6875 0 1.265625 0.203125q0.578125 0.203125 1.03125 0.5625q0.46875 0.359375 0.765625 0.828125q0.3125 0.46875 0.4375 1.03125l-0.375 -0.1875l0.0625 -2.25l1.25 0l0 8.6875l-1.265625 0l0 -2.125l0.328125 -0.21875q-0.125 0.5 -0.453125 0.953125q-0.328125 0.453125 -0.8125 0.8125q-0.46875 0.34375 -1.0625 0.546875q-0.578125 0.203125 -1.234375 0.203125zm0.28125 -1.203125q0.859375 0 1.546875 -0.421875q0.6875 -0.421875 1.078125 -1.171875q0.390625 -0.765625 0.390625 -1.734375q0 -0.96875 -0.390625 -1.71875q-0.390625 -0.75 -1.078125 -1.171875q-0.6875 -0.4375 -1.546875 -0.4375q-0.875 0 -1.5625 0.4375q-0.671875 0.421875 -1.0625 1.171875q-0.390625 0.75 -0.390625 1.71875q0 0.953125 0.375 1.71875q0.390625 0.75 1.078125 1.1875q0.6875 0.421875 1.5625 0.421875zm7.8328857 1.03125l0 -10.96875l1.25 0l0 10.96875l-1.25 0zm-1.953125 -7.484375l0 -1.203125l5.40625 0l0 1.203125l-5.40625 0zm7.267395 7.484375l0 -8.6875l1.25 0l0 8.6875l-1.25 0zm0.609375 -10.5625q-0.453125 0 -0.703125 -0.234375q-0.234375 -0.25 -0.234375 -0.671875q0 -0.40625 0.25 -0.65625q0.25 -0.25 0.6875 -0.25q0.453125 0 0.703125 0.25q0.25 0.234375 0.25 0.65625q0 0.40625 -0.25 0.65625q-0.25 0.25 -0.703125 0.25zm7.2161865 10.734375q-1.296875 0 -2.3125 -0.578125q-1.0 -0.59375 -1.578125 -1.625q-0.578125 -1.03125 -0.578125 -2.34375q0 -1.296875 0.578125 -2.3125q0.578125 -1.015625 1.578125 -1.59375q1.015625 -0.59375 2.3125 -0.59375q1.28125 0 2.28125 0.59375q1.015625 0.578125 1.578125 1.59375q0.578125 1.015625 0.578125 2.3125q0 1.3125 -0.578125 2.34375q-0.5625 1.03125 -1.578125 1.625q-1.0 0.578125 -2.28125 0.578125zm0 -1.1875q0.90625 0 1.625 -0.4375q0.71875 -0.4375 1.109375 -1.1875q0.40625 -0.765625 0.40625 -1.734375q0 -0.96875 -0.40625 -1.71875q-0.390625 -0.75 -1.109375 -1.171875q-0.71875 -0.421875 -1.625 -0.421875q-0.921875 0 -1.640625 0.421875q-0.71875 0.421875 -1.140625 1.1875q-0.40625 0.75 -0.390625 1.703125q-0.015625 0.96875 0.390625 1.734375q0.421875 0.75 1.140625 1.1875q0.71875 0.4375 1.640625 0.4375zm6.257141 1.015625l0 -8.6875l1.234375 0l0.046875 1.8125l-0.203125 0.078125q0.171875 -0.5625 0.640625 -1.015625q0.484375 -0.46875 1.15625 -0.765625q0.6875 -0.296875 1.390625 -0.296875q0.96875 0 1.609375 0.390625q0.65625 0.375 0.984375 1.1875q0.34375 0.796875 0.34375 2.015625l0 5.28125l-1.265625 0l0 -5.203125q0 -0.875 -0.234375 -1.421875q-0.21875 -0.5625 -0.6875 -0.828125q-0.453125 -0.265625 -1.140625 -0.25q-0.5625 0 -1.046875 0.1875q-0.484375 0.1875 -0.84375 0.53125q-0.34375 0.328125 -0.546875 0.765625q-0.1875 0.421875 -0.1875 0.921875l0 5.296875l-0.625 0q-0.109375 0 -0.265625 0q-0.140625 0 -0.359375 0z" fill-rule="nonzero"/><path fill="#000000" fill-opacity="0.0" d="m717.448 202.21623l222.80316 0" fill-rule="evenodd"/><path stroke="#001e2b" stroke-width="1.041994750656168" stroke-linejoin="round" stroke-linecap="butt" d="m717.448 202.21623l218.854 0" fill-rule="evenodd"/><path fill="#001e2b" stroke="#001e2b" stroke-width="1.041994750656168" stroke-linecap="butt" d="m939.73016 202.21623c0 0.9466553 -0.76745605 1.7140808 -1.7141113 1.7140808c-0.9466553 0 -1.7140503 -0.76742554 -1.7140503 -1.7140808c0 -0.94667053 0.767395 -1.7140808 1.7140503 -1.7140808c0.9466553 0 1.7141113 0.7674103 1.7141113 1.7140808z" fill-rule="nonzero"/><path fill="#000000" fill-opacity="0.0" d="m875.6774 273.11316l64.47247 -0.62991333" fill-rule="evenodd"/><path stroke="#001e2b" stroke-width="1.041994750656168" stroke-linejoin="round" stroke-linecap="butt" d="m875.6774 273.11316l60.523438 -0.5913086" fill-rule="evenodd"/><path fill="#001e2b" stroke="#001e2b" stroke-width="1.041994750656168" stroke-linecap="butt" d="m939.6289 272.48834c0.009216309 0.94662476 -0.7506714 1.7214966 -1.6972656 1.7307434c-0.9466553 0.009246826 -1.7214966 -0.75064087 -1.7307739 -1.6972656c-0.009216309 -0.94659424 0.7506714 -1.7214966 1.6972656 -1.7307434c0.94659424 -0.009246826 1.7214966 0.75064087 1.7307739 1.6972656z" fill-rule="nonzero"/><path fill="#ff0000" d="m748.5035 178.65985l13.726624 13.726624l0 19.664871l-13.726624 13.726624l-19.412842 0l-13.726624 -13.726624l0 -19.664871l13.726624 -13.726624z" fill-rule="evenodd"/><path stroke="#595959" stroke-width="1.041994750656168" stroke-linejoin="round" stroke-linecap="butt" d="m748.5035 178.65985l13.726624 13.726624l0 19.664871l-13.726624 13.726624l-19.412842 0l-13.726624 -13.726624l0 -19.664871l13.726624 -13.726624z" fill-rule="evenodd"/><path fill="#ffffff" d="m19.860893 238.51526l0 0c0 -13.367889 10.8368225 -24.204727 24.204723 -24.204727l72.97638 0l0 0c6.4194946 0 12.576065 2.5501404 17.115326 7.0894012c4.539261 4.539276 7.0894012 10.695831 7.0894012 17.115326l0 0l0 0c0 13.367905 -10.8368225 24.204742 -24.204727 24.204742l-72.97638 0c-13.367901 0 -24.204723 -10.836838 -24.204723 -24.204742z" fill-rule="evenodd"/><path stroke="#001e2b" stroke-width="1.3884514435695539" stroke-linejoin="round" stroke-linecap="butt" d="m19.860893 238.51526l0 0c0 -13.367889 10.8368225 -24.204727 24.204723 -24.204727l72.97638 0l0 0c6.4194946 0 12.576065 2.5501404 17.115326 7.0894012c4.539261 4.539276 7.0894012 10.695831 7.0894012 17.115326l0 0l0 0c0 13.367905 -10.8368225 24.204742 -24.204727 24.204742l-72.97638 0c-13.367901 0 -24.204723 -10.836838 -24.204723 -24.204742z" fill-rule="evenodd"/><path fill="#001e2b" d="m43.71207 244.6833q-0.875 0 -1.671875 -0.25q-0.78125 -0.25 -1.4375 -0.75q-0.640625 -0.5 -1.140625 -1.234375l0.90625 -1.0q0.78125 1.109375 1.59375 1.5625q0.828125 0.453125 1.859375 0.453125q0.75 0 1.359375 -0.25q0.625 -0.25 0.96875 -0.703125q0.359375 -0.453125 0.359375 -1.03125q0 -0.375 -0.125 -0.671875q-0.125 -0.3125 -0.375 -0.53125q-0.25 -0.234375 -0.625 -0.421875q-0.359375 -0.1875 -0.84375 -0.328125q-0.46875 -0.15625 -1.046875 -0.3125q-0.84375 -0.1875 -1.484375 -0.46875q-0.640625 -0.28125 -1.09375 -0.671875q-0.4375 -0.40625 -0.65625 -0.921875q-0.21875 -0.53125 -0.21875 -1.25q0 -0.671875 0.28125 -1.25q0.296875 -0.59375 0.8125 -1.015625q0.515625 -0.421875 1.203125 -0.65625q0.703125 -0.234375 1.5 -0.234375q0.90625 0 1.609375 0.25q0.71875 0.234375 1.265625 0.703125q0.546875 0.46875 0.9375 1.109375l-0.90625 0.90625q-0.359375 -0.5625 -0.796875 -0.953125q-0.4375 -0.40625 -0.96875 -0.609375q-0.515625 -0.203125 -1.15625 -0.203125q-0.71875 0 -1.28125 0.25q-0.5625 0.25 -0.875 0.6875q-0.3125 0.4375 -0.3125 1.0q0 0.421875 0.140625 0.75q0.15625 0.3125 0.46875 0.5625q0.328125 0.234375 0.859375 0.4375q0.53125 0.1875 1.25 0.359375q0.875 0.1875 1.5625 0.484375q0.6875 0.28125 1.171875 0.671875q0.5 0.390625 0.75 0.90625q0.265625 0.515625 0.265625 1.171875q0 1.03125 -0.515625 1.8125q-0.515625 0.765625 -1.4375 1.203125q-0.921875 0.4375 -2.15625 0.4375zm10.055023 0q-1.296875 0 -2.3125 -0.5625q-1.0 -0.578125 -1.578125 -1.59375q-0.5625 -1.015625 -0.5625 -2.328125q0 -1.015625 0.3125 -1.828125q0.328125 -0.828125 0.890625 -1.4375q0.578125 -0.625 1.375 -0.96875q0.8125 -0.34375 1.734375 -0.34375q0.890625 0 1.609375 0.328125q0.71875 0.3125 1.234375 0.875q0.53125 0.546875 0.796875 1.3125q0.265625 0.765625 0.234375 1.6875l-0.015625 0.578125l-7.234375 0l-0.1875 -1.046875l6.484375 0l-0.3125 0.28125l0 -0.40625q-0.03125 -0.59375 -0.34375 -1.140625q-0.3125 -0.5625 -0.890625 -0.90625q-0.578125 -0.359375 -1.375 -0.359375q-0.921875 0 -1.609375 0.375q-0.6875 0.375 -1.0625 1.109375q-0.359375 0.734375 -0.359375 1.8125q0 1.03125 0.390625 1.796875q0.40625 0.75 1.140625 1.171875q0.75 0.40625 1.796875 0.40625q0.625 0 1.21875 -0.203125q0.609375 -0.21875 1.34375 -0.828125l0.65625 0.90625q-0.390625 0.375 -0.921875 0.671875q-0.53125 0.28125 -1.171875 0.46875q-0.625 0.171875 -1.28125 0.171875zm9.180176 0q-1.234375 0 -2.203125 -0.59375q-0.953125 -0.59375 -1.515625 -1.609375q-0.5625 -1.03125 -0.5625 -2.328125q0 -1.296875 0.5625 -2.3125q0.5625 -1.03125 1.515625 -1.609375q0.96875 -0.59375 2.21875 -0.59375q1.1093712 0 2.0312462 0.453125q0.921875 0.4375 1.46875 1.21875l-0.734375 0.890625q-0.3125 -0.40625 -0.765625 -0.71875q-0.4375 -0.328125 -0.953125 -0.5q-0.4999962 -0.171875 -0.9999962 -0.171875q-0.875 0 -1.578125 0.4375q-0.703125 0.4375 -1.109375 1.1875q-0.40625 0.75 -0.40625 1.71875q0 0.96875 0.40625 1.734375q0.40625 0.75 1.109375 1.1875q0.703125 0.421875 1.5625 0.421875q0.5 0 0.984375 -0.15625q0.4843712 -0.15625 0.9062462 -0.453125q0.4375 -0.3125 0.8125 -0.75l0.734375 0.890625q-0.578125 0.75 -1.53125 1.203125q-0.9374962 0.453125 -1.9531212 0.453125zm8.940487 0q-1.296875 0 -2.3125 -0.578125q-1.0 -0.59375 -1.578125 -1.625q-0.578125 -1.03125 -0.578125 -2.34375q0 -1.296875 0.578125 -2.3125q0.578125 -1.015625 1.578125 -1.59375q1.015625 -0.59375 2.3125 -0.59375q1.28125 0 2.28125 0.59375q1.015625 0.578125 1.578125 1.59375q0.578125 1.015625 0.578125 2.3125q0 1.3125 -0.578125 2.34375q-0.5625 1.03125 -1.578125 1.625q-1.0 0.578125 -2.28125 0.578125zm0 -1.1875q0.90625 0 1.625 -0.4375q0.71875 -0.4375 1.109375 -1.1875q0.40625 -0.765625 0.40625 -1.734375q0 -0.96875 -0.40625 -1.71875q-0.390625 -0.75 -1.109375 -1.171875q-0.71875 -0.421875 -1.625 -0.421875q-0.921875 0 -1.640625 0.421875q-0.71875 0.421875 -1.140625 1.1875q-0.40625 0.75 -0.390625 1.703125q-0.015625 0.96875 0.390625 1.734375q0.421875 0.75 1.140625 1.1875q0.71875 0.4375 1.640625 0.4375zm6.257126 1.015625l0 -8.6875l1.234375 0l0.046875 1.8125l-0.203125 0.078125q0.171875 -0.5625 0.640625 -1.015625q0.484375 -0.46875 1.15625 -0.765625q0.6875 -0.296875 1.390625 -0.296875q0.96875 0 1.609375 0.390625q0.65625 0.375 0.984375 1.1875q0.34375 0.796875 0.34375 2.015625l0 5.28125l-1.265625 0l0 -5.203125q0 -0.875 -0.234375 -1.421875q-0.21875 -0.5625 -0.6875 -0.828125q-0.453125 -0.265625 -1.140625 -0.25q-0.5625 0 -1.046875 0.1875q-0.484375 0.1875 -0.84375 0.53125q-0.34375 0.328125 -0.546875 0.765625q-0.1875 0.421875 -0.1875 0.921875l0 5.296875l-0.625 0q-0.109375 0 -0.265625 0q-0.140625 0 -0.359375 0zm13.116272 0.171875q-1.1875 0 -2.125 -0.578125q-0.9375 -0.59375 -1.484375 -1.609375q-0.546875 -1.03125 -0.546875 -2.328125q0 -1.3125 0.546875 -2.328125q0.5625 -1.03125 1.484375 -1.609375q0.9375 -0.59375 2.09375 -0.59375q0.65625 0 1.265625 0.203125q0.609375 0.203125 1.09375 0.5625q0.484375 0.359375 0.796875 0.8125q0.3125 0.453125 0.375 0.953125l-0.375 -0.125l0 -5.84375l1.25 0l0 12.3125l-1.234375 0l-0.03125 -2.15625l0.3125 -0.125q-0.0625 0.46875 -0.375 0.90625q-0.3125 0.4375 -0.78125 0.796875q-0.453125 0.34375 -1.046875 0.546875q-0.59375 0.203125 -1.21875 0.203125zm0.171875 -1.15625q0.875 0 1.546875 -0.421875q0.6875 -0.4375 1.078125 -1.203125q0.390625 -0.765625 0.390625 -1.75q0 -0.984375 -0.390625 -1.734375q-0.390625 -0.765625 -1.078125 -1.203125q-0.671875 -0.4375 -1.546875 -0.4375q-0.890625 0 -1.578125 0.4375q-0.671875 0.4375 -1.0625 1.203125q-0.390625 0.75 -0.390625 1.734375q0 0.96875 0.375 1.734375q0.390625 0.765625 1.078125 1.203125q0.6875 0.4375 1.578125 0.4375zm10.021347 1.15625q-1.125 0 -2.046875 -0.59375q-0.921875 -0.59375 -1.453125 -1.609375q-0.53125 -1.03125 -0.53125 -2.328125q0 -1.3125 0.546875 -2.328125q0.5625 -1.015625 1.484375 -1.59375q0.921875 -0.59375 2.0625 -0.59375q0.6875 0 1.265625 0.203125q0.578125 0.203125 1.03125 0.5625q0.46875 0.359375 0.765625 0.828125q0.3125 0.46875 0.4375 1.03125l-0.375 -0.1875l0.0625 -2.25l1.25 0l0 8.6875l-1.265625 0l0 -2.125l0.328125 -0.21875q-0.125 0.5 -0.453125 0.953125q-0.328125 0.453125 -0.8125 0.8125q-0.46875 0.34375 -1.0625 0.546875q-0.578125 0.203125 -1.234375 0.203125zm0.28125 -1.203125q0.859375 0 1.546875 -0.421875q0.6875 -0.421875 1.078125 -1.171875q0.390625 -0.765625 0.390625 -1.734375q0 -0.96875 -0.390625 -1.71875q-0.390625 -0.75 -1.078125 -1.171875q-0.6875 -0.4375 -1.546875 -0.4375q-0.875 0 -1.5625 0.4375q-0.671875 0.421875 -1.0625 1.171875q-0.390625 0.75 -0.390625 1.71875q0 0.953125 0.375 1.71875q0.390625 0.75 1.078125 1.1875q0.6875 0.421875 1.5625 0.421875zm6.64534 1.03125l0 -8.6875l1.25 0l0.03125 2.3125l-0.140625 -0.3125q0.1875 -0.578125 0.59375 -1.078125q0.40625 -0.5 0.96875 -0.796875q0.578125 -0.3125 1.25 -0.3125q0.28125 0 0.53125 0.046875q0.25 0.046875 0.421875 0.109375l-0.34375 1.390625q-0.21875 -0.09375 -0.453125 -0.125q-0.21875 -0.046875 -0.421875 -0.046875q-0.5625 0 -1.015625 0.203125q-0.453125 0.1875 -0.765625 0.546875q-0.3125 0.359375 -0.484375 0.828125q-0.15625 0.46875 -0.15625 1.0l0 4.921875l-1.265625 0zm7.660095 3.828125l1.6875 -4.09375l0.109375 1.1875l-4.359375 -9.609375l1.421875 0l2.984375 6.65625q0.125 0.265625 0.25 0.625q0.140625 0.359375 0.265625 0.703125l-0.46875 -0.046875q0.109375 -0.28125 0.21875 -0.578125q0.109375 -0.296875 0.21875 -0.578125l2.609375 -6.78125l1.421875 0l-3.5 8.6875l-1.5 3.828125l-1.359375 0z" fill-rule="nonzero"/><path fill="#000000" fill-opacity="0.0" d="m701.45874 181.62346l74.677124 0l0 39.968506l-74.677124 0z" fill-rule="evenodd"/><path fill="#ffffff" d="m723.85565 207.26044q-0.875 0 -1.625 -0.234375q-0.734375 -0.234375 -1.34375 -0.6875q-0.59375 -0.46875 -1.0625 -1.15625l1.125 -1.296875q0.75 1.0625 1.4375 1.484375q0.6875 0.40625 1.640625 0.40625q0.578125 0 1.046875 -0.171875q0.46875 -0.1875 0.734375 -0.5q0.28125 -0.328125 0.28125 -0.75q0 -0.265625 -0.09375 -0.515625q-0.078125 -0.25 -0.28125 -0.4375q-0.1875 -0.203125 -0.484375 -0.375q-0.296875 -0.171875 -0.703125 -0.296875q-0.390625 -0.125 -0.90625 -0.21875q-0.828125 -0.171875 -1.4375 -0.4375q-0.609375 -0.28125 -1.03125 -0.6875q-0.40625 -0.421875 -0.609375 -0.9375q-0.1875 -0.53125 -0.1875 -1.1875q0 -0.640625 0.28125 -1.1875q0.28125 -0.5625 0.78125 -0.953125q0.5 -0.40625 1.171875 -0.625q0.671875 -0.234375 1.453125 -0.234375q0.8125 0 1.5 0.21875q0.6875 0.21875 1.21875 0.640625q0.546875 0.40625 0.890625 1.015625l-1.15625 1.15625q-0.3125 -0.5 -0.703125 -0.84375q-0.375 -0.34375 -0.828125 -0.515625q-0.453125 -0.1875 -0.96875 -0.1875q-0.609375 0 -1.046875 0.1875q-0.4375 0.1875 -0.6875 0.515625q-0.25 0.328125 -0.25 0.765625q0 0.3125 0.109375 0.59375q0.125 0.265625 0.375 0.46875q0.25 0.203125 0.671875 0.359375q0.4375 0.15625 1.03125 0.28125q0.84375 0.1875 1.5 0.46875q0.65625 0.28125 1.109375 0.671875q0.46875 0.375 0.703125 0.859375q0.234375 0.46875 0.234375 1.015625q0 1.015625 -0.484375 1.765625q-0.46875 0.75 -1.34375 1.15625q-0.859375 0.40625 -2.0625 0.40625zm8.260193 -0.15625l0 -9.09375l-3.0 0l0 -1.59375l7.734375 0l0 1.59375l-3.09375 0l0 9.09375l-1.640625 0zm10.772522 0.15625q-1.125 0 -2.078125 -0.40625q-0.953125 -0.421875 -1.671875 -1.15625q-0.703125 -0.75 -1.09375 -1.75q-0.390625 -1.0 -0.390625 -2.1875q0 -1.1875 0.390625 -2.1875q0.390625 -1.0 1.09375 -1.734375q0.71875 -0.75 1.671875 -1.15625q0.953125 -0.421875 2.078125 -0.421875q1.125 0 2.078125 0.421875q0.953125 0.40625 1.65625 1.15625q0.71875 0.75 1.109375 1.75q0.390625 1.0 0.390625 2.171875q0 1.171875 -0.390625 2.171875q-0.390625 1.0 -1.109375 1.75q-0.703125 0.75 -1.65625 1.171875q-0.953125 0.40625 -2.078125 0.40625zm0 -1.609375q0.78125 0 1.421875 -0.28125q0.65625 -0.296875 1.125 -0.8125q0.46875 -0.53125 0.734375 -1.234375q0.28125 -0.71875 0.28125 -1.5625q0 -0.84375 -0.28125 -1.546875q-0.265625 -0.71875 -0.734375 -1.234375q-0.46875 -0.53125 -1.125 -0.8125q-0.640625 -0.296875 -1.421875 -0.296875q-0.78125 0 -1.4375 0.296875q-0.640625 0.28125 -1.125 0.796875q-0.46875 0.515625 -0.734375 1.234375q-0.265625 0.703125 -0.265625 1.5625q0 0.84375 0.265625 1.5625q0.265625 0.71875 0.734375 1.234375q0.484375 0.515625 1.125 0.8125q0.65625 0.28125 1.4375 0.28125zm7.468994 1.453125l0 -10.6875l4.34375 0q0.875 0 1.578125 0.4375q0.71875 0.4375 1.140625 1.1875q0.421875 0.75 0.421875 1.65625q0 0.921875 -0.421875 1.671875q-0.421875 0.75 -1.140625 1.203125q-0.703125 0.4375 -1.578125 0.4375l-2.703125 0l0 4.09375l-1.640625 0zm1.640625 -5.671875l2.671875 0q0.421875 0 0.75 -0.234375q0.34375 -0.25 0.546875 -0.640625q0.203125 -0.390625 0.203125 -0.859375q0 -0.46875 -0.203125 -0.84375q-0.203125 -0.390625 -0.546875 -0.609375q-0.328125 -0.234375 -0.75 -0.234375l-2.671875 0l0 3.421875z" fill-rule="nonzero"/></g></svg>