<svg width="32" height="32" viewBox="0 0 32 32" fill="none" xmlns="http://www.w3.org/2000/svg">
<path fill-rule="evenodd" clip-rule="evenodd" d="M15.9907 3.49417C9.67173 3.49417 4.42304 8.19422 3.55771 14.3111L3.06841 14.2419C3.96759 7.88574 9.42104 3 15.9907 3C23.0373 3 28.7769 8.5969 29.0402 15.6021L31.6274 12.6321L32 12.9567L29.2015 16.1693C29.0017 16.4069 28.6701 16.3838 28.4714 16.2177L28.4669 16.2139L25.264 13.4036L25.5899 13.0321L28.5466 15.6263C28.2959 8.88126 22.7709 3.49417 15.9907 3.49417ZM3.43371 16.5843L6.43032 19.1979L6.75514 18.8255L3.53299 16.0152L3.5291 16.0119C3.33033 15.8456 2.99852 15.8227 2.79878 16.0606L7.62939e-06 19.2927L0.373584 19.6162L2.94158 16.6506C2.95857 17.1054 2.99846 17.5522 3.06878 17.9904C3.98828 24.3258 9.4218 29.1911 15.9907 29.1911C22.5602 29.1911 27.9941 24.3248 28.9128 17.9885L28.4237 17.9176C27.5396 24.0158 22.3097 28.6969 15.9907 28.6969C9.67157 28.6969 4.44174 24.0158 3.55757 17.9176L3.55699 17.9138C3.48772 17.4828 3.44904 17.0398 3.43371 16.5843Z" fill="#001E2B"/>
<path d="M23.1097 14.8509L22.2224 14.5551C22.1731 14.5551 22.1238 14.5058 22.1238 14.5058C21.483 14.2099 21.1872 13.4211 21.5323 12.7801L21.9266 11.942C22.0745 11.5968 22.0745 11.2024 21.9266 10.8573C21.6309 10.2163 20.8421 9.92049 20.2013 10.2656L19.3632 10.6601C19.3139 10.6601 19.2646 10.7094 19.2646 10.7094C18.5745 10.9559 17.8843 10.6107 17.6378 9.92049L17.2928 9.03302C17.1449 8.68789 16.8984 8.39207 16.504 8.24416C15.8139 8.04694 15.0744 8.39207 14.8279 9.03302L14.5322 9.92049C14.5322 9.9698 14.4829 10.0191 14.4829 10.0684C14.1871 10.7094 13.3984 11.0052 12.7575 10.6601L11.9195 10.2656C11.5744 10.1177 11.18 10.1177 10.8349 10.2656C10.1941 10.5614 9.89831 11.3503 10.1941 11.9913L10.5885 12.8294C10.5885 12.8787 10.6378 12.928 10.6378 12.9773C10.8842 13.6676 10.5392 14.3578 9.84901 14.6044L8.96168 14.9002C8.6166 15.0481 8.32082 15.2946 8.17294 15.6891C7.92645 16.3793 8.27153 17.0696 8.96168 17.3161L9.84901 17.6119C9.89831 17.6119 9.9476 17.6612 9.9476 17.6612C10.5885 17.957 10.8842 18.7459 10.5392 19.3868L10.1448 20.225C9.9969 20.5701 9.9969 20.9646 10.1448 21.3097C10.4406 21.9507 11.2293 22.2465 11.8702 21.9014L12.7082 21.5069C12.7575 21.5069 12.8068 21.4576 12.8068 21.4576C13.4969 21.2111 14.1871 21.5562 14.4336 22.2465L14.7294 23.134C14.8772 23.4791 15.1237 23.7749 15.5181 23.9228C16.2082 24.1693 16.9477 23.8242 17.1449 23.134L17.4407 22.2465C17.4407 22.1972 17.49 22.1479 17.49 22.1479C17.7857 21.5069 18.5745 21.2111 19.2153 21.5562L20.0534 21.9507C20.3984 22.0986 20.7928 22.0986 21.1379 21.9507C21.7787 21.6548 22.0745 20.866 21.7787 20.225L21.3844 19.3868C21.3844 19.3375 21.3351 19.2882 21.3351 19.2882C21.0886 18.598 21.4337 17.9077 22.1238 17.6612L23.0112 17.3654C23.3562 17.2175 23.652 16.971 23.7999 16.5765C24.0957 15.837 23.7506 15.0974 23.1097 14.8509ZM16.0604 19.0417C14.4336 19.0417 13.1026 17.7105 13.1026 16.0835C13.1026 14.4565 14.4336 13.1252 16.0604 13.1252C17.6871 13.1252 19.0181 14.4565 19.0181 16.0835C19.0181 17.7105 17.6871 19.0417 16.0604 19.0417Z" fill="#00ED64"/>
<path fill-rule="evenodd" clip-rule="evenodd" d="M14.5973 8.94433C14.8935 8.17417 15.769 7.77716 16.5719 8.00658L16.5815 8.00931L16.5908 8.01281C17.063 8.1899 17.3523 8.54471 17.5199 8.9357L17.5215 8.93956L17.8706 9.83737C18.0686 10.3918 18.6004 10.6628 19.1433 10.4896C19.1481 10.4862 19.1531 10.4827 19.1584 10.4791C19.1811 10.464 19.2279 10.4352 19.2907 10.4211L20.0903 10.0448C20.8626 9.63344 21.7999 9.993 22.151 10.7537L22.1538 10.7599C22.3283 11.1672 22.3283 11.632 22.1537 12.0393L22.152 12.0432L21.753 12.8914L21.7498 12.8972C21.4761 13.4056 21.7083 14.0418 22.2274 14.2814L22.2674 14.2999L22.2819 14.3145L23.1932 14.6183L23.1985 14.6203C23.9732 14.9183 24.373 15.8052 24.0303 16.6658C23.8529 17.1365 23.4988 17.4252 23.1085 17.5925L23.099 17.5965L22.2046 17.8947C21.6519 18.0934 21.3819 18.6246 21.5549 19.167C21.5583 19.1717 21.5618 19.1767 21.5653 19.182C21.5805 19.2047 21.6093 19.2516 21.6233 19.3144L22.0031 20.1215C22.3567 20.8878 22.0047 21.8227 21.2414 22.175L21.2353 22.1778C20.828 22.3524 20.3633 22.3523 19.956 22.1778L19.9521 22.1761L19.1041 21.7769L19.0982 21.7738C18.5899 21.5001 17.9539 21.7323 17.7143 22.2514L17.6958 22.2914L17.6813 22.306L17.3809 23.2072C17.1386 24.0438 16.245 24.4449 15.435 24.1555L15.4313 24.1542C14.9592 23.9771 14.6698 23.6223 14.5022 23.2313L14.4982 23.2218L14.2 22.3272C14.0014 21.7744 13.4703 21.5045 12.9281 21.6774C12.9234 21.6808 12.9184 21.6843 12.9131 21.6878C12.8903 21.703 12.8435 21.7318 12.7807 21.7459L11.9812 22.1222C11.2089 22.5335 10.2715 22.174 9.92044 21.4132L9.91759 21.4071C9.74307 20.9998 9.74316 20.535 9.91768 20.1277L9.91938 20.1237L10.3184 19.2756L10.3216 19.2697C10.5953 18.7613 10.3631 18.1251 9.84405 17.8855L9.80403 17.8671L9.78947 17.8525L8.87854 17.5488C8.06548 17.2584 7.6459 16.4302 7.94024 15.606L7.94155 15.6023C8.1186 15.1301 8.47338 14.8407 8.86433 14.6731L8.87378 14.669L9.76828 14.3708C10.3339 14.1675 10.6034 13.6159 10.4051 13.0604L10.3907 13.0201V13.011C10.385 12.9998 10.3739 12.9775 10.3648 12.9531C10.3597 12.9395 10.354 12.9222 10.3494 12.9018L9.96973 12.0948C9.61608 11.3284 9.96816 10.3936 10.7314 10.0413L10.7376 10.0384C11.1448 9.86387 11.6096 9.86396 12.0168 10.0385L12.0208 10.0402L12.8688 10.4393L12.8747 10.4425C13.373 10.7109 13.9943 10.4928 14.2441 9.99476C14.2486 9.97491 14.2542 9.95799 14.2592 9.94468C14.2684 9.92032 14.2794 9.89807 14.2851 9.88681V9.8804L14.5953 8.94957L14.5973 8.94433ZM15.0605 9.11677L14.7749 9.97369C14.7702 10.0025 14.7625 10.0265 14.7558 10.0442C14.7467 10.0686 14.7356 10.0908 14.73 10.1021V10.1227L14.7072 10.1719C14.3562 10.9327 13.4188 11.2922 12.6465 10.8809L11.8183 10.4911C11.5374 10.3719 11.2163 10.372 10.9354 10.4914C10.4193 10.7317 10.1812 11.3725 10.4181 11.8869C10.4182 11.8872 10.4183 11.8875 10.4184 11.8877L10.8355 12.7742V12.7957C10.8412 12.807 10.8523 12.8293 10.8614 12.8536C10.8679 12.8709 10.8754 12.8942 10.8801 12.9221C11.1553 13.7371 10.736 14.5499 9.93213 14.8371L9.92718 14.8388L9.04991 15.1312C8.75559 15.2594 8.52271 15.4616 8.40498 15.774C8.20788 16.3288 8.47742 16.8795 9.04243 17.0826L9.90229 17.3692C9.97469 17.3811 10.0289 17.4143 10.0539 17.431C10.0648 17.4383 10.0745 17.4454 10.0829 17.452C10.8218 17.8143 11.1655 18.7363 10.76 19.4978L10.3703 20.3261C10.2511 20.6071 10.2512 20.9283 10.3706 21.2092C10.6112 21.7262 11.2458 21.957 11.753 21.6838L11.7589 21.6806L12.653 21.2598H12.6551L12.6714 21.2436L12.7237 21.2249C13.5479 20.9305 14.3759 21.3503 14.6663 22.1634L14.668 22.1683L14.9604 23.0457C15.0886 23.3401 15.2907 23.573 15.6031 23.6908C16.171 23.8926 16.7531 23.6058 16.9073 23.0661L16.9088 23.0609L17.198 22.1932C17.2099 22.1208 17.2431 22.0666 17.2597 22.0416C17.267 22.0307 17.2742 22.021 17.2807 22.0126C17.6429 21.2737 18.5649 20.9298 19.3263 21.3354L20.1545 21.7252C20.4355 21.8444 20.7565 21.8443 21.0374 21.7249C21.5535 21.4846 21.7916 20.8437 21.5548 20.3293C21.5546 20.3291 21.5545 20.3288 21.5544 20.3285L21.1373 19.4421V19.4399L21.1211 19.4237L21.1024 19.3713C20.808 18.5471 21.2276 17.7189 22.0407 17.4285L22.0457 17.4268L22.9229 17.1343C23.2178 17.0059 23.451 16.8032 23.5685 16.4898L23.5704 16.4848C23.8167 15.869 23.5291 15.2801 23.026 15.0834L22.1691 14.7978C22.0967 14.7858 22.0425 14.7526 22.0176 14.736C22.0066 14.7287 21.9969 14.7215 21.9885 14.715C21.2497 14.3527 20.9059 13.4307 21.3114 12.6691L21.7011 11.8409C21.8203 11.5598 21.8202 11.2387 21.7009 10.9577C21.4602 10.4407 20.8257 10.21 20.3184 10.4832L20.3125 10.4863L19.4185 10.9071H19.4163L19.4001 10.9234L19.3477 10.942C18.5246 11.2361 17.6978 10.8179 17.4064 10.0069L17.0641 9.12662C16.937 8.83204 16.7365 8.59839 16.4265 8.47903C15.8539 8.3205 15.2581 8.61091 15.0605 9.11677ZM16.0604 13.3723C14.5701 13.3723 13.3497 14.5929 13.3497 16.0835C13.3497 17.5741 14.5701 18.7946 16.0604 18.7946C17.5506 18.7946 18.7711 17.5741 18.7711 16.0835C18.7711 14.5929 17.5506 13.3723 16.0604 13.3723ZM12.8555 16.0835C12.8555 14.32 14.2971 12.8782 16.0604 12.8782C17.8236 12.8782 19.2652 14.32 19.2652 16.0835C19.2652 17.8469 17.8236 19.2888 16.0604 19.2888C14.2971 19.2888 12.8555 17.8469 12.8555 16.0835Z" fill="#001E2B"/>
</svg>
