<svg width="405" height="273" viewBox="0 0 405 273" fill="none" xmlns="http://www.w3.org/2000/svg">
<path d="M117.837 136.164C110.351 136.164 103.172 139.137 97.879 144.43C92.5859 149.722 89.6123 156.901 89.6123 164.386C89.6123 171.871 92.5859 179.049 97.879 184.342C103.172 189.634 110.351 192.608 117.837 192.608C125.322 192.61 132.499 195.585 137.792 200.877C143.084 206.169 146.059 213.346 146.061 220.83C146.061 228.315 149.035 235.493 154.328 240.786C159.621 246.078 166.8 249.052 174.286 249.052C181.771 249.052 188.95 246.078 194.243 240.786C199.536 235.493 202.51 228.315 202.51 220.83V192.361C202.518 177.459 208.442 163.17 218.98 152.632C229.518 142.095 243.809 136.172 258.712 136.164H287.164C294.649 136.164 301.828 133.19 307.121 127.898C312.415 122.605 315.388 115.427 315.388 107.942C315.388 100.457 312.415 93.2785 307.121 87.9859C301.828 82.6932 294.649 79.7198 287.164 79.7198H230.735C223.25 79.7172 216.072 76.743 210.78 71.4509C205.487 66.1588 202.513 58.982 202.51 51.4979C202.51 44.0129 199.536 36.8346 194.243 31.5419C188.95 26.2493 181.771 23.2759 174.286 23.2759C166.8 23.2759 159.621 26.2493 154.328 31.5419C149.035 36.8346 146.061 44.0129 146.061 51.4979V107.942C145.834 123.519 133.416 136.164 117.837 136.164Z" fill="#F9EBFF"/>
<g clip-path="url(#clip0_56_17083)">
<path d="M202.126 183.82V197.841C202.126 207.497 209.954 215.325 219.611 215.325H262.699" stroke="black" stroke-width="0.581897" stroke-linecap="square" stroke-linejoin="round" stroke-dasharray="1.16 1.16"/>
<path d="M335.504 230.899H230.736V157.236C230.736 152.661 234.425 148.972 239 148.972H327.24C331.815 148.972 335.504 152.661 335.504 157.236V230.899Z" fill="white" stroke="black" stroke-width="0.581897" stroke-linecap="round" stroke-linejoin="round"/>
<path d="M321.552 148.972H283.696V230.854H321.552V148.972Z" fill="#00ED64"/>
<path d="M335.498 230.989H230.731V237.163H335.498V230.989Z" fill="black" stroke="black" stroke-width="0.581897" stroke-linecap="round" stroke-linejoin="round"/>
<path d="M241.396 199.575C242.721 199.575 243.796 198.5 243.796 197.174C243.796 195.849 242.721 194.774 241.396 194.774C240.07 194.774 238.995 195.849 238.995 197.174C238.995 198.5 240.07 199.575 241.396 199.575Z" fill="black" stroke="black" stroke-width="0.581897" stroke-linecap="round" stroke-linejoin="round"/>
<path d="M335.504 199.174V190.69C335.504 188.114 333.414 185.98 330.793 185.98C328.172 185.98 326.082 188.069 326.082 190.69V210.193C326.082 212.769 323.993 214.904 321.372 214.904C318.751 214.904 316.661 212.814 316.661 210.193V173.407C316.661 170.831 314.571 168.696 311.95 168.696C309.329 168.696 307.24 170.786 307.24 173.407V195.401C307.24 197.976 305.15 200.111 302.529 200.111C299.908 200.111 297.818 198.021 297.818 195.401V185.804C297.818 183.229 295.728 181.094 293.108 181.094C290.487 181.094 288.397 183.183 288.397 185.804V207.928C288.397 210.504 286.307 212.639 283.686 212.639C281.065 212.639 278.975 210.549 278.975 207.928V191.667C278.975 189.092 276.886 186.957 274.265 186.957C271.644 186.957 269.554 189.046 269.554 191.667V207.928C269.554 210.504 267.464 212.639 264.843 212.639C262.222 212.639 260.133 210.549 260.133 207.928V188.069C260.133 185.494 258.043 183.359 255.422 183.359C252.801 183.359 250.711 185.448 250.711 188.069V219.97C250.711 222.546 248.622 224.681 246.001 224.681C243.38 224.681 241.29 222.591 241.29 219.97V197.711" stroke="black" stroke-width="0.581897" stroke-linecap="round" stroke-linejoin="round"/>
<path d="M241.395 198.553C242.156 198.553 242.773 197.936 242.773 197.174C242.773 196.413 242.156 195.796 241.395 195.796C240.634 195.796 240.017 196.413 240.017 197.174C240.017 197.936 240.634 198.553 241.395 198.553Z" fill="white" stroke="white" stroke-width="0.581897" stroke-linecap="round" stroke-linejoin="round"/>
<path d="M328.683 152.976L322.434 148.972H314.952L314.772 152.33L314.421 160.343L321.552 156.69L328.683 152.976Z" fill="black" stroke="black" stroke-width="0.581897" stroke-linecap="round" stroke-linejoin="round"/>
<path d="M335.504 230.899H230.736V157.236C230.736 152.661 234.425 148.972 239 148.972H327.24C331.815 148.972 335.504 152.661 335.504 157.236V230.899Z" stroke="black" stroke-width="0.581897" stroke-linecap="round" stroke-linejoin="round"/>
<path d="M284.604 136.45L252.396 95.674L220.188 55.124H195.391L155.771 136.45H190.525V181.404H249.845V136.45H284.604Z" fill="black" stroke="black" stroke-width="0.581897" stroke-linecap="round" stroke-linejoin="round"/>
<path d="M259.807 136.45L227.599 95.674L195.391 55.124L163.183 95.674L130.975 136.45H165.734V181.404H224.823V136.45H259.807Z" fill="#B3FD34" stroke="black" stroke-width="0.581897" stroke-linecap="round" stroke-linejoin="round"/>
<path d="M159.87 204.09L154.167 198.207L156.929 189.382L162.757 194.969L159.87 204.09Z" fill="black" stroke="black" stroke-width="0.581897" stroke-linecap="round" stroke-linejoin="round"/>
<path d="M159.931 204.09L167.994 202.501L170.7 193.677L162.757 194.969L159.931 204.09Z" fill="white" stroke="black" stroke-width="0.581897" stroke-linecap="round" stroke-linejoin="round"/>
<path d="M164.872 188.205L156.929 189.382L162.757 194.97L170.7 193.677L164.872 188.205Z" fill="white" stroke="black" stroke-width="0.581897" stroke-linecap="round" stroke-linejoin="round"/>
<path d="M299.798 123.892L306.563 128.186L313.269 132.541L306.152 136.189L299.031 139.897L299.442 131.894L299.798 123.892Z" fill="white" stroke="black" stroke-width="0.581897" stroke-linecap="round" stroke-linejoin="round"/>
<path d="M303.917 131.895L299.031 139.897L313.269 132.541L303.917 131.895Z" fill="black"/>
<path d="M304.133 132.36L300.013 124.358" stroke="black" stroke-width="0.581897" stroke-linecap="round" stroke-linejoin="round"/>
<path d="M173.682 117.628H68.9146V44.0094C68.9146 39.4343 72.6029 35.7461 77.1783 35.7461H165.418C169.994 35.7461 173.682 39.4343 173.682 44.0094V117.628Z" fill="#FFE212" stroke="black" stroke-width="0.581897" stroke-linecap="round" stroke-linejoin="round"/>
<path d="M173.682 104.168V99.8133C173.682 97.2376 171.592 95.1028 168.971 95.1028C166.35 95.1028 164.26 97.1925 164.26 99.8133V102.259C164.26 104.834 162.171 106.969 159.55 106.969C156.929 106.969 154.839 104.88 154.839 102.259V99.0165C154.839 96.4408 152.749 94.3061 150.128 94.3061C147.508 94.3061 145.418 96.3957 145.418 99.0165V105.501C145.418 108.077 143.328 110.211 140.707 110.211C138.086 110.211 135.996 108.122 135.996 105.501V103.677C135.996 101.101 133.907 98.9664 131.286 98.9664C128.665 98.9664 126.575 101.056 126.575 103.677V109.054C126.575 111.63 124.485 113.764 121.864 113.764C119.243 113.764 117.154 111.675 117.154 109.054V98.791C117.154 96.2153 115.064 94.0806 112.443 94.0806C109.822 94.0806 107.732 96.1702 107.732 98.791V107.766C107.732 110.342 105.643 112.476 103.022 112.476C100.401 112.476 98.311 110.387 98.311 107.766V105.546C98.311 102.97 96.2212 100.836 93.6003 100.836C90.9794 100.836 88.8896 102.925 88.8896 105.546V107.325C88.8896 109.901 86.7999 112.035 84.1789 112.035C81.558 112.035 79.4683 109.946 79.4683 107.325V102.75" stroke="black" stroke-width="0.581897" stroke-linecap="round" stroke-linejoin="round"/>
<path d="M173.682 117.718H68.9146V123.892H173.682V117.718Z" fill="black" stroke="black" stroke-width="0.581897" stroke-linecap="round" stroke-linejoin="round"/>
<path d="M79.6236 104.349C80.9493 104.349 82.024 103.274 82.024 101.948C82.024 100.623 80.9493 99.5479 79.6236 99.5479C78.2979 99.5479 77.2231 100.623 77.2231 101.948C77.2231 103.274 78.2979 104.349 79.6236 104.349Z" fill="black" stroke="black" stroke-width="0.581897" stroke-linecap="round" stroke-linejoin="round"/>
<path d="M79.6236 81.5978C80.9493 81.5978 82.024 80.5231 82.024 79.1974C82.024 77.8718 80.9493 76.7971 79.6236 76.7971C78.2979 76.7971 77.2231 77.8718 77.2231 79.1974C77.2231 80.5231 78.2979 81.5978 79.6236 81.5978Z" fill="black" stroke="black" stroke-width="0.581897" stroke-linecap="round" stroke-linejoin="round"/>
<path d="M173.682 81.4175V77.0629C173.682 74.4872 171.592 72.3524 168.971 72.3524C166.35 72.3524 164.26 74.4421 164.26 77.0629V84.6597C164.26 87.2354 162.171 89.3702 159.55 89.3702C156.929 89.3702 154.839 87.2805 154.839 84.6597V71.3752C154.839 68.7995 152.749 66.6648 150.128 66.6648C147.508 66.6648 145.418 68.7544 145.418 71.3752V82.7956C145.418 85.3713 143.328 87.506 140.707 87.506C138.086 87.506 135.996 85.4164 135.996 82.7956V80.9715C135.996 78.3958 133.907 76.2611 131.286 76.2611C128.665 76.2611 126.575 78.3507 126.575 80.9715V87.6363C126.575 90.2121 124.485 92.3468 121.864 92.3468C119.243 92.3468 117.154 90.2572 117.154 87.6363V73.51C117.154 70.9343 115.064 68.7995 112.443 68.7995C109.822 68.7995 107.732 70.8892 107.732 73.51V85.0606C107.732 87.6363 105.643 89.7711 103.022 89.7711C100.401 89.7711 98.311 87.6814 98.311 85.0606V82.8407C98.311 80.265 96.2212 78.1302 93.6003 78.1302C90.9794 78.1302 88.8896 80.2199 88.8896 82.8407V84.6196C88.8896 87.1954 86.7999 89.3301 84.1789 89.3301C81.558 89.3301 79.4683 87.2405 79.4683 84.6196V80.0445" stroke="black" stroke-width="0.581897" stroke-linecap="round" stroke-linejoin="round"/>
<path d="M79.6236 58.8524C80.9493 58.8524 82.024 57.7777 82.024 56.4521C82.024 55.1264 80.9493 54.0518 79.6236 54.0518C78.2979 54.0518 77.2231 55.1264 77.2231 56.4521C77.2231 57.7777 78.2979 58.8524 79.6236 58.8524Z" fill="black" stroke="black" stroke-width="0.581897" stroke-linecap="round" stroke-linejoin="round"/>
<path d="M173.682 58.6721V54.3174C173.682 51.7417 171.592 49.607 168.971 49.607C166.35 49.607 164.26 51.6966 164.26 54.3174V56.7628C164.26 59.3386 162.171 61.4733 159.55 61.4733C156.929 61.4733 154.839 59.3837 154.839 56.7628V48.3642C154.839 45.7885 152.749 43.6538 150.128 43.6538C147.508 43.6538 145.418 45.7434 145.418 48.3642V60.0501C145.418 62.6259 143.328 64.7606 140.707 64.7606C138.086 64.7606 135.996 62.671 135.996 60.0501V58.2261C135.996 55.6504 133.907 53.5156 131.286 53.5156C128.665 53.5156 126.575 55.6053 126.575 58.2261V64.8909C126.575 67.4666 124.485 69.6013 121.864 69.6013C119.243 69.6013 117.154 67.5117 117.154 64.8909V45.563C117.154 42.9873 115.064 40.8525 112.443 40.8525C109.822 40.8525 107.732 42.9422 107.732 45.563V62.2701C107.732 64.8458 105.643 66.9805 103.022 66.9805C100.401 66.9805 98.311 64.8909 98.311 62.2701V60.0501C98.311 57.4744 96.2212 55.3397 93.6003 55.3397C90.9794 55.3397 88.8896 57.4293 88.8896 60.0501V61.8291C88.8896 64.4048 86.7999 66.5395 84.1789 66.5395C81.558 66.5395 79.4683 64.4499 79.4683 61.8291V57.2539" stroke="black" stroke-width="0.581897" stroke-linecap="round" stroke-linejoin="round"/>
<path d="M79.6237 57.8301C80.3848 57.8301 81.0019 57.2131 81.0019 56.452C81.0019 55.691 80.3848 55.074 79.6237 55.074C78.8626 55.074 78.2456 55.691 78.2456 56.452C78.2456 57.2131 78.8626 57.8301 79.6237 57.8301Z" fill="white" stroke="white" stroke-width="0.581897" stroke-linecap="round" stroke-linejoin="round"/>
<path d="M79.6237 80.5757C80.3848 80.5757 81.0019 79.9587 81.0019 79.1976C81.0019 78.4366 80.3848 77.8196 79.6237 77.8196C78.8626 77.8196 78.2456 78.4366 78.2456 79.1976C78.2456 79.9587 78.8626 80.5757 79.6237 80.5757Z" fill="white" stroke="white" stroke-width="0.581897" stroke-linecap="round" stroke-linejoin="round"/>
<path d="M79.6237 103.326C80.3848 103.326 81.0019 102.709 81.0019 101.948C81.0019 101.187 80.3848 100.57 79.6237 100.57C78.8626 100.57 78.2456 101.187 78.2456 101.948C78.2456 102.709 78.8626 103.326 79.6237 103.326Z" fill="white" stroke="white" stroke-width="0.581897" stroke-linecap="round" stroke-linejoin="round"/>
<path d="M180.537 172.956L172.92 174.344L170.7 181.404H185.038L185.98 178.458L180.537 172.956Z" fill="black" stroke="black" stroke-width="0.581897" stroke-linecap="round" stroke-linejoin="round"/>
<path d="M259.807 90.4175L281.877 118.264" stroke="black" stroke-width="0.581897" stroke-linecap="square" stroke-linejoin="round" stroke-dasharray="1.16 1.16"/>
<path d="M238.494 63.5178L253.914 82.971" stroke="black" stroke-width="0.581897" stroke-linecap="square" stroke-linejoin="round" stroke-dasharray="1.16 1.16"/>
<path d="M257.843 73.2444L285.365 107.976" stroke="black" stroke-width="0.581897" stroke-linecap="square" stroke-linejoin="round" stroke-dasharray="1.16 1.16"/>
</g>
<defs>
<clipPath id="clip0_56_17083">
<rect width="267.091" height="201.918" fill="white" transform="translate(68.6636 35.4956)"/>
</clipPath>
</defs>
</svg>
