<svg width="24" height="24" viewBox="0 0 24 24" fill="none" xmlns="http://www.w3.org/2000/svg">
<g clip-path="url(#clip0_1176_18024)">
<path fill-rule="evenodd" clip-rule="evenodd" d="M10.5231 19.5692C10.5231 21.2006 9.20062 22.523 7.56926 22.523C5.9379 22.523 4.61542 21.2006 4.61542 19.5692C4.61542 17.9378 5.9379 16.6154 7.56926 16.6154C7.79507 16.6154 7.9943 16.6382 8.19476 16.6849C8.32849 16.7161 8.47094 16.6829 8.56794 16.5857L15.8801 9.26073C15.9892 9.15148 16.0172 8.98649 15.9618 8.84241C15.7877 8.38993 15.6923 7.89841 15.6923 7.3846C15.6923 5.14148 17.5107 3.32307 19.7539 3.32307C20.1282 3.32307 20.4908 3.37373 20.835 3.46856C21.0859 3.53765 21.1486 3.84751 20.9662 4.03303L18.9028 6.13167C18.7607 6.27621 18.7617 6.50829 18.9051 6.65162L20.4752 8.22176C20.6188 8.3654 20.8515 8.36603 20.9959 8.22318L23.0968 6.14508C23.2813 5.96259 23.5906 6.02354 23.6614 6.27318C23.7617 6.62641 23.8154 6.99924 23.8154 7.3846C23.8154 9.62772 21.997 11.4461 19.7539 11.4461C19.2889 11.4461 18.8422 11.368 18.4261 11.2241C18.2847 11.1753 18.126 11.2053 18.0203 11.3111L10.5904 18.7476C10.5002 18.8379 10.4647 18.9682 10.4851 19.0942C10.5101 19.2489 10.5231 19.4075 10.5231 19.5692ZM7.56922 20.6769C8.18098 20.6769 8.67691 20.181 8.67691 19.5692C8.67691 18.9574 8.18098 18.4615 7.56922 18.4615C6.95746 18.4615 6.46153 18.9574 6.46153 19.5692C6.46153 20.181 6.95746 20.6769 7.56922 20.6769Z" fill="#00ED64"/>
<path d="M9.96926 4.43076V10.1538H4.24619V10.5231H10.3385V4.43076H9.96926Z" fill="#001E2B"/>
<path fill-rule="evenodd" clip-rule="evenodd" d="M6.27691 19.5692C6.27691 18.8555 6.8555 18.2769 7.56922 18.2769C8.28294 18.2769 8.86152 18.8555 8.86152 19.5692C8.86152 20.2829 8.28294 20.8615 7.56922 20.8615C6.8555 20.8615 6.27691 20.2829 6.27691 19.5692ZM7.56922 18.6461C7.05942 18.6461 6.64614 19.0594 6.64614 19.5692C6.64614 20.079 7.05942 20.4923 7.56922 20.4923C8.07902 20.4923 8.49229 20.079 8.49229 19.5692C8.49229 19.0594 8.07902 18.6461 7.56922 18.6461Z" fill="#001E2B"/>
<path fill-rule="evenodd" clip-rule="evenodd" d="M17.7231 3.23748V0H18.0923V3.32307C18.0923 3.3799 18.0838 3.43474 18.0679 3.48635C18.5847 3.26252 19.1548 3.13846 19.7539 3.13846C20.145 3.13846 20.524 3.19138 20.8841 3.29057C21.2911 3.4027 21.3637 3.89203 21.0979 4.16246L19.0345 6.26111C18.9634 6.33338 18.9639 6.44942 19.0356 6.52108L20.6057 8.09122C20.6775 8.16303 20.7939 8.16335 20.8661 8.09192L22.967 6.01383C23.236 5.74775 23.7241 5.81776 23.839 6.22277C23.9439 6.59223 24 6.98202 24 7.3846C24 9.72968 22.0989 11.6307 19.7539 11.6307C19.2681 11.6307 18.801 11.5491 18.3658 11.3986C18.285 11.3707 18.2022 11.3902 18.1509 11.4416L10.721 18.878C10.6775 18.9216 10.6553 18.9901 10.6674 19.0648C10.6939 19.2291 10.7077 19.3976 10.7077 19.5692C10.7077 21.3025 9.30258 22.7076 7.56926 22.7076C5.83594 22.7076 4.43081 21.3025 4.43081 19.5692C4.43081 19.209 4.49147 18.8631 4.60313 18.5409C1.83461 16.7673 0 13.697 0 10.2007C0 4.6544 4.60755 0.184615 10.3022 0.184615C13.132 0.184615 15.7162 1.28474 17.5931 3.10858C17.6369 3.15114 17.6802 3.19411 17.7231 3.23748ZM14.2154 3.87692H17.3602C16.2418 4.64164 15.5077 5.9274 15.5077 7.3846C15.5077 7.92142 15.6074 8.43539 15.7895 8.9087C15.8212 8.99107 15.8024 9.07729 15.7495 9.1303L8.43729 16.4553C8.3907 16.5019 8.31588 16.5236 8.23664 16.5051C8.02179 16.4551 7.80846 16.4307 7.56926 16.4307C6.32902 16.4307 5.25681 17.1501 4.74715 18.1944C2.10921 16.4794 0.36923 13.5406 0.36923 10.2007C0.36923 4.86823 4.80141 0.553845 10.3022 0.553845C13.0352 0.553845 15.5272 1.61598 17.3357 3.37338C17.3813 3.41763 17.4263 3.4624 17.471 3.50769H14.2154V3.87692ZM19.7539 3.50769C17.6127 3.50769 15.8769 5.24344 15.8769 7.3846C15.8769 7.87539 15.968 8.34446 16.1341 8.77613C16.2133 8.9819 16.176 9.22567 16.0108 9.39115L8.6986 16.7161C8.55118 16.8638 8.3411 16.9086 8.15288 16.8647C7.96683 16.8214 7.78167 16.8 7.56926 16.8C6.03986 16.8 4.80004 18.0398 4.80004 19.5692C4.80004 21.0986 6.03986 22.3384 7.56926 22.3384C9.09866 22.3384 10.3385 21.0986 10.3385 19.5692C10.3385 19.4174 10.3263 19.2686 10.3029 19.1237C10.2742 18.9462 10.3229 18.7542 10.4598 18.6171L17.8897 11.1806C18.0499 11.0204 18.2844 10.9798 18.4864 11.0497C18.8833 11.1869 19.3097 11.2615 19.7539 11.2615C21.895 11.2615 23.6308 9.52576 23.6308 7.3846C23.6308 7.01645 23.5795 6.66059 23.4838 6.3236C23.4683 6.26893 23.43 6.23776 23.3827 6.22752C23.3332 6.21681 23.2736 6.22986 23.2267 6.27634L21.1258 8.35443C20.9091 8.56871 20.5601 8.56776 20.3446 8.3523L18.7745 6.78217C18.5595 6.56717 18.558 6.21905 18.7712 6.00224L20.8346 3.9036C20.881 3.85634 20.8938 3.7966 20.8828 3.74711C20.8724 3.69981 20.8409 3.66167 20.786 3.64654C20.4576 3.55607 20.1115 3.50769 19.7539 3.50769Z" fill="#001E2B"/>
</g>
<defs>
<clipPath id="clip0_1176_18024">
<rect width="24" height="24" fill="white"/>
</clipPath>
</defs>
</svg>
