<svg width="24" height="24" viewBox="0 0 24 24" fill="none" xmlns="http://www.w3.org/2000/svg">
<path fill-rule="evenodd" clip-rule="evenodd" d="M8.67312 3.19276C8.76576 1.39416 10.2056 0 12.0188 0C13.8322 0 15.27 1.4291 15.3644 3.19276H19.8958C20.4515 3.19276 20.8718 3.61897 20.8718 4.17557V8.75082C22.6204 8.88105 24 10.3309 24 12.1195C24 13.908 22.6204 15.3579 20.8718 15.4881V20.0633C20.8718 20.6199 20.4515 21.0462 19.8958 21.0462H4.14192C3.58623 21.0462 3.16585 20.6199 3.16585 20.0633V15.492C1.3797 15.3978 0 13.944 0 12.1195C0 10.2948 1.41432 8.84299 3.16585 8.74712V4.17557C3.16585 3.61897 3.58623 3.19276 4.14192 3.19276H8.67312ZM12.0188 0.369231C10.3509 0.369231 9.03762 1.69143 9.03762 3.37738C9.03762 3.47934 8.95496 3.56199 8.853 3.56199H4.14192C3.79309 3.56199 3.53508 3.81994 3.53508 4.17557V8.9267C3.53508 9.02866 3.45242 9.11131 3.35046 9.11131C1.71878 9.11131 0.369231 10.435 0.369231 12.1195C0.369231 13.8054 1.68253 15.1276 3.35046 15.1276C3.45242 15.1276 3.53508 15.2103 3.53508 15.3122V20.0633C3.53508 20.419 3.79309 20.6769 4.14192 20.6769H19.8958C20.2446 20.6769 20.5026 20.419 20.5026 20.0633V15.3122C20.5026 15.2118 20.5828 15.1298 20.6832 15.1276C22.3174 15.0918 23.6308 13.7666 23.6308 12.1195C23.6308 10.4723 22.3174 9.1471 20.6832 9.11127C20.5828 9.10907 20.5026 9.02708 20.5026 8.9267V4.17557C20.5026 3.81994 20.2446 3.56199 19.8958 3.56199H15.1847C15.0827 3.56199 15.0001 3.47934 15.0001 3.37738C15.0001 1.728 13.6854 0.369231 12.0188 0.369231Z" fill="#001E2B"/>
<path d="M12.5504 6.83077H11.4496C11.1418 6.83077 10.8923 7.06326 10.8923 7.35006V16.6499C10.8923 16.9367 11.1418 17.1692 11.4496 17.1692H12.5504C12.8582 17.1692 13.1077 16.9367 13.1077 16.6499V7.35006C13.1077 7.06326 12.8582 6.83077 12.5504 6.83077Z" fill="#00ED64"/>
<path fill-rule="evenodd" clip-rule="evenodd" d="M11.4496 7.01538C11.2313 7.01538 11.0769 7.17728 11.0769 7.35006V16.6499C11.0769 16.8227 11.2313 16.9846 11.4496 16.9846H12.5504C12.7687 16.9846 12.9231 16.8227 12.9231 16.6499V7.35006C12.9231 7.17728 12.7687 7.01538 12.5504 7.01538H11.4496ZM10.7077 7.35006C10.7077 6.94925 11.0523 6.64615 11.4496 6.64615H12.5504C12.9477 6.64615 13.2923 6.94925 13.2923 7.35006V16.6499C13.2923 17.0508 12.9477 17.3538 12.5504 17.3538H11.4496C11.0523 17.3538 10.7077 17.0508 10.7077 16.6499V7.35006Z" fill="#001E2B"/>
<path fill-rule="evenodd" clip-rule="evenodd" d="M7.75336 11.4462C7.5328 11.4462 7.38462 11.6049 7.38462 11.7647V16.666C7.38462 16.8259 7.53281 16.9846 7.75336 16.9846H8.86203C9.08258 16.9846 9.23077 16.8259 9.23077 16.666V11.7647C9.23077 11.6049 9.08258 11.4462 8.86203 11.4462H7.75336ZM7.01538 11.7647C7.01538 11.3687 7.3627 11.0769 7.75336 11.0769H8.86203C9.2527 11.0769 9.6 11.3687 9.6 11.7647V16.666C9.6 17.062 9.2527 17.3538 8.86203 17.3538H7.75336C7.3627 17.3538 7.01538 17.062 7.01538 16.666V11.7647Z" fill="#001E2B"/>
<path fill-rule="evenodd" clip-rule="evenodd" d="M15.1419 9.23077C14.9203 9.23077 14.7692 9.39151 14.7692 9.55619V16.6592C14.7692 16.8239 14.9203 16.9846 15.1419 16.9846H16.2427C16.4643 16.9846 16.6154 16.8239 16.6154 16.6592V9.55619C16.6154 9.39151 16.4643 9.23077 16.2427 9.23077H15.1419ZM14.4 9.55619C14.4 9.1575 14.7479 8.86154 15.1419 8.86154H16.2427C16.6367 8.86154 16.9846 9.1575 16.9846 9.55619V16.6592C16.9846 17.0579 16.6367 17.3538 16.2427 17.3538H15.1419C14.7479 17.3538 14.4 17.0579 14.4 16.6592V9.55619Z" fill="#001E2B"/>
</svg>
