<svg width="32" height="32" viewBox="0 0 32 32" fill="none" xmlns="http://www.w3.org/2000/svg">
<path d="M29.3333 27.5556H2.66666C2.17777 27.5556 1.77777 27.1556 1.77777 26.6667V5.33335C1.77777 4.84446 2.17777 4.44446 2.66666 4.44446H29.2889C29.7778 4.44446 30.1778 4.84446 30.1778 5.33335V26.6222C30.2222 27.1556 29.8222 27.5556 29.3333 27.5556Z" stroke="#001E2B" stroke-miterlimit="10" stroke-linejoin="round"/>
<path d="M30.2222 8.8889H1.77777V5.37779C1.77777 4.84446 2.17777 4.44446 2.7111 4.44446H29.2889C29.8222 4.44446 30.2222 4.84446 30.2222 5.37779V8.8889Z" fill="#00ED64" stroke="#001E2B" stroke-miterlimit="10" stroke-linecap="round" stroke-linejoin="round"/>
<path d="M19.0825 17.6935C18.7919 16.2198 17.5347 15.1111 16.0278 15.1111C14.8197 15.1111 13.7598 15.8436 13.2401 16.8888C13.1582 17.0533 12.9837 17.1533 12.8 17.1533C11.8154 17.0682 10.6667 17.9736 10.6667 19.1955C10.6667 20.4173 11.6218 21.3334 12.8 21.3334H19.7744C20.6354 21.3334 21.3334 20.684 21.3334 19.7911C21.3334 18.8982 20.6354 18.1744 19.7744 18.1744C19.462 18.1744 19.1429 17.9999 19.0825 17.6935Z" fill="#00ED64" stroke="#001E2B"/>
</svg>
