<svg xmlns="http://www.w3.org/2000/svg" xmlns:xlink="http://www.w3.org/1999/xlink" viewBox="0 0 24 24"><defs><style>.cls-1{fill:#2f9fc5;}.cls-2{fill:#1a567e;}.cls-3{fill:url(#linear-gradient);}</style><linearGradient id="linear-gradient" x1="12.34" y1="5.79" x2="12.34" y2="16.06" gradientUnits="userSpaceOnUse"><stop offset="0" stop-color="#b9eacd"/><stop offset="0.15" stop-color="#b9eacd"/><stop offset="1" stop-color="#007daf"/></linearGradient></defs><g id="Layer_1" data-name="Layer 1"><path class="cls-1" d="M20.26,4,13,11.13,9.16,6.42a.75.75,0,0,0-.59-.29A.79.79,0,0,0,8,6.38L.68,14.06A11.69,11.69,0,0,1,.5,12,11.5,11.5,0,0,1,20.26,4Z"/><path class="cls-2" d="M20.83,19.37a11.5,11.5,0,0,1-17.66,0Z"/><path class="cls-3" d="M23.5,12A11.48,11.48,0,0,1,22,17.76H2a12.36,12.36,0,0,1-.87-1.88L8.5,8.15l3.86,4.68a.8.8,0,0,0,1.18.06L21.3,5.24A11.46,11.46,0,0,1,23.5,12Z"/></g></svg>
