<svg xmlns="http://www.w3.org/2000/svg" xmlns:xlink="http://www.w3.org/1999/xlink" viewBox="0 0 24 24"><defs><style>.cls-1{fill:url(#linear-gradient);}.cls-2{fill:url(#linear-gradient-2);}.cls-3{fill:url(#linear-gradient-3);}.cls-4{fill:#007caa;}.cls-5{fill:url(#linear-gradient-4);}</style><linearGradient id="linear-gradient" x1="1.72" y1="19.75" x2="19.7" y2="19.41" gradientUnits="userSpaceOnUse"><stop offset="0" stop-color="#116149"/><stop offset="0.37" stop-color="#13a752"/><stop offset="0.65" stop-color="#0acd5b"/><stop offset="0.93" stop-color="#69d696"/><stop offset="1" stop-color="#80d8a4"/></linearGradient><linearGradient id="linear-gradient-2" x1="-3.21" y1="12" x2="11.75" y2="12" gradientUnits="userSpaceOnUse"><stop offset="0" stop-color="#116149"/><stop offset="0.47" stop-color="#13a752"/><stop offset="0.65" stop-color="#0acd5b"/></linearGradient><linearGradient id="linear-gradient-3" x1="27.86" y1="20.07" x2="1.92" y2="20.07" xlink:href="#linear-gradient"/><linearGradient id="linear-gradient-4" x1="6.21" y1="12" x2="25.72" y2="12" xlink:href="#linear-gradient"/></defs><g id="Layer_1" data-name="Layer 1"><path class="cls-1" d="M7.84,22.72h.92a3,3,0,1,0,0-6.07H1.48A11.54,11.54,0,0,0,7.84,22.72Z"/><path class="cls-2" d="M4.13,12A4.64,4.64,0,0,1,5.28,9H.91A11.51,11.51,0,0,0,.91,15H5.27A4.63,4.63,0,0,1,4.13,12Z"/><path class="cls-3" d="M13.41,19.68a4.65,4.65,0,0,1-2,3.8l.57,0a11.5,11.5,0,0,0,10.52-6.85H12.27A4.58,4.58,0,0,1,13.41,19.68Z"/><path class="cls-4" d="M12,.5A11.51,11.51,0,0,0,1.48,7.34h21A11.51,11.51,0,0,0,12,.5Z"/><path class="cls-5" d="M5.74,12a3.05,3.05,0,0,0,3,3H23.09a11.48,11.48,0,0,0,0-6.08H8.78A3.05,3.05,0,0,0,5.74,12Z"/></g></svg>
