<svg width="72" height="72" viewBox="0 0 72 72" fill="none" xmlns="http://www.w3.org/2000/svg">
<path d="M30.6414 62C33.1266 62 35.1414 59.9853 35.1414 57.5C35.1414 55.0147 33.1266 53 30.6414 53C28.1561 53 26.1414 55.0147 26.1414 57.5C26.1414 59.9853 28.1561 62 30.6414 62Z" fill="#00ED64" stroke="#001E2B" stroke-miterlimit="10"/>
<path d="M8.5 62C10.9853 62 13 59.9853 13 57.5C13 55.0147 10.9853 53 8.5 53C6.01472 53 4 55.0147 4 57.5C4 59.9853 6.01472 62 8.5 62Z" fill="#00ED64" stroke="#001E2B" stroke-miterlimit="10"/>
<path d="M13.0001 58H26M8.18542 53L16.2294 39.4557M30.8146 53L22.7674 39.4501" stroke="#001E2B"/>
<path d="M19.5 41C21.9853 41 24 38.9853 24 36.5C24 34.0147 21.9853 32 19.5 32C17.0147 32 15 34.0147 15 36.5C15 38.9853 17.0147 41 19.5 41Z" fill="#00ED64" stroke="#001E2B" stroke-miterlimit="10"/>
<path d="M52.5 19C54.9853 19 57 16.9853 57 14.5C57 12.0147 54.9853 10 52.5 10C50.0147 10 48 12.0147 48 14.5C48 16.9853 50.0147 19 52.5 19Z" stroke="#001E2B" stroke-miterlimit="10"/>
<path d="M63.5 41C65.9853 41 68 38.9853 68 36.5C68 34.0147 65.9853 32 63.5 32C61.0147 32 59 34.0147 59 36.5C59 38.9853 61.0147 41 63.5 41Z" stroke="#001E2B" stroke-miterlimit="10"/>
<path d="M41.5 41C43.9853 41 46 38.9853 46 36.5C46 34.0147 43.9853 32 41.5 32C39.0147 32 37 34.0147 37 36.5C37 38.9853 39.0147 41 41.5 41Z" stroke="#001E2B" stroke-miterlimit="10"/>
<path d="M49.5 18L41.1854 32M55.5 18L63.8146 32M46.0001 37H59" stroke="#001E2B"/>
<path d="M58.294 56.5898L50.1439 55.7517C49.8614 55.7026 49.6872 55.455 49.7375 55.174L50.604 47.0673M24.6164 13.6454C32.2234 9.81602 41.0943 10.2306 48.1498 14.3284M49.7463 55.537C50.7443 54.8414 51.7423 54.1457 52.5411 53.343C56.6558 49.4911 59.1988 44.4194 60 39.0796M46.8025 57.3429C42.923 59.2958 38.704 60.1524 34.559 59.9779M21.5314 15.4267C11.7931 22.2143 8.47429 34.7643 12.9824 45.2022M12.9824 14.3741L21.1326 15.2123C21.4151 15.2614 21.5892 15.509 21.539 15.79L20.6725 23.8967" stroke="#001E2B" stroke-miterlimit="10"/>
</svg>
