<svg width="32" height="32" viewBox="0 0 32 32" fill="none" xmlns="http://www.w3.org/2000/svg">
<path fill-rule="evenodd" clip-rule="evenodd" d="M16 0.561404C7.4735 0.561404 0.561404 7.4735 0.561404 16C0.561404 24.5265 7.4735 31.4386 16 31.4386C24.5265 31.4386 31.4386 24.5265 31.4386 16C31.4386 7.4735 24.5265 0.561404 16 0.561404ZM0 16C0 7.16344 7.16344 0 16 0C24.8366 0 32 7.16344 32 16C32 24.8366 24.8366 32 16 32C7.16344 32 0 24.8366 0 16Z" fill="#001E2B"/>
<path d="M12.9829 19.0524L15.8678 24.2477C16.1123 24.6398 16.5035 24.8849 16.9924 24.8359C17.4325 24.7869 17.8237 24.4928 17.9704 24.0517L22.8112 10.6713C22.9579 10.2302 22.8601 9.78911 22.5178 9.44602C22.1755 9.10294 21.7354 9.05392 21.2954 9.20096L7.94645 14.0532C7.50637 14.2002 7.21299 14.5923 7.16409 15.0334C7.1152 15.4745 7.35968 15.9156 7.75086 16.1607L12.9829 19.0524Z" fill="#00ED64"/>
<path fill-rule="evenodd" clip-rule="evenodd" d="M21.2064 8.93473C21.7226 8.76225 22.2821 8.81235 22.7165 9.24777C23.1341 9.66631 23.2576 10.2185 23.0775 10.7599L23.0752 10.7669L18.2355 24.1439C18.0515 24.6924 17.5653 25.0545 17.0235 25.1149L17.0204 25.1152C16.4057 25.1768 15.9196 24.8613 15.6296 24.3963C15.6271 24.3922 15.6247 24.3882 15.6224 24.384L12.7766 19.2591L7.61508 16.4064C7.61059 16.4039 7.60618 16.4013 7.60184 16.3986C7.13358 16.1052 6.82258 15.5665 6.8851 15.0025C6.9452 14.4603 7.30594 13.9729 7.85381 13.7882L21.2064 8.93473ZM21.3877 9.46609L8.03543 14.3195C7.70522 14.4298 7.48065 14.7255 7.44309 15.0644C7.40804 15.3805 7.58348 15.7216 7.89377 15.919L13.1186 18.8068C13.1647 18.8322 13.2027 18.8701 13.2283 18.9162L16.1096 24.105C16.3083 24.42 16.6026 24.5923 16.9629 24.5567C17.2994 24.5187 17.5939 24.2943 17.704 23.9631L17.7063 23.9562L22.5459 10.5795C22.6577 10.2398 22.5852 9.91104 22.3191 9.64427C22.0697 9.39429 21.7502 9.34589 21.3877 9.46609Z" fill="#001E2B"/>
</svg>
