<svg xmlns="http://www.w3.org/2000/svg" xmlns:xlink="http://www.w3.org/1999/xlink" viewBox="0 0 24 24"><defs><style>.cls-1{fill:#13a752;}.cls-2{fill:url(#linear-gradient);}.cls-3{fill:#80d8a4;}.cls-4{fill:url(#linear-gradient-2);}</style><linearGradient id="linear-gradient" x1="11.58" y1="24.39" x2="3.15" y2="12.6" gradientUnits="userSpaceOnUse"><stop offset="0" stop-color="#116149"/><stop offset="0.37" stop-color="#13a752"/><stop offset="0.65" stop-color="#0acd5b"/><stop offset="0.93" stop-color="#69d696"/><stop offset="1" stop-color="#80d8a4"/></linearGradient><linearGradient id="linear-gradient-2" x1="20.3" y1="9.84" x2="5.18" y2="18.88" gradientUnits="userSpaceOnUse"><stop offset="0" stop-color="#83dba7"/><stop offset="0.07" stop-color="#69d997"/><stop offset="0.35" stop-color="#0ad05b"/><stop offset="0.63" stop-color="#13aa52"/><stop offset="1" stop-color="#116149"/></linearGradient></defs><g id="Layer_1" data-name="Layer 1"><path class="cls-1" d="M21.19,18.91a11.42,11.42,0,0,1-6.14,4.18L19.7,3.46A11.5,11.5,0,0,1,21.19,18.91Z"/><path class="cls-1" d="M18.08,2.24.5,12.14a11.5,11.5,0,0,1,17.58-9.9Z"/><path class="cls-2" d="M12.88,23.47A11.49,11.49,0,0,1,.74,14.33l9,.68Z"/><path class="cls-3" d="M17.87,4.21h0L13.81,21.35,11.07,14a.94.94,0,0,0-.27-.37.81.81,0,0,0-.43-.16l-7.85-.59Z"/><path class="cls-4" d="M17.87,4.2h0L13.81,21.35,11.07,14a.8.8,0,0,0-.28-.37.86.86,0,0,0-.42-.16l-7.85-.59Z"/></g></svg>
