<svg width="24" height="24" viewBox="0 0 24 24" fill="none" xmlns="http://www.w3.org/2000/svg">
<path d="M17.4625 5.98974C17.9227 5.98974 18.2958 5.61664 18.2958 5.15641C18.2958 4.69617 17.9227 4.32307 17.4625 4.32307C17.0022 4.32307 16.6292 4.69617 16.6292 5.15641C16.6292 5.61664 17.0022 5.98974 17.4625 5.98974Z" fill="#00ED64"/>
<path fill-rule="evenodd" clip-rule="evenodd" d="M17.5985 2.83692C16.2505 2.76336 15.1366 3.83016 15.1471 5.15911L15.1471 5.16043C15.1471 5.36344 15.1684 5.55183 15.22 5.73843L15.2261 5.76025V5.7829C15.2261 5.81845 15.2217 5.85672 15.2112 5.89361C15.2014 5.92824 15.1823 5.97489 15.1436 6.01372L6.85389 14.3095C6.77685 14.3869 6.65597 14.4226 6.53804 14.364C6.1643 14.182 5.74572 14.0738 5.3029 14.0413C3.23474 13.901 1.50008 15.544 1.50008 17.5985C1.50008 18.0314 1.57551 18.4424 1.71581 18.8323L1.716 18.8328C1.72365 18.8543 1.74062 18.8685 1.76223 18.8736C1.78441 18.8789 1.80215 18.8726 1.81312 18.8616L1.81387 18.8609L3.62044 17.0707C3.93149 16.7728 4.43007 16.7689 4.73353 17.0734L5.61599 17.9589C5.91259 18.2707 5.91638 18.7701 5.61325 19.0743L5.61214 19.0754L3.8053 20.8545L3.80296 20.8566C3.77613 20.8811 3.78045 20.9338 3.82581 20.9501L3.82779 20.9508C4.20374 21.0909 4.6126 21.1667 5.04406 21.1667C7.0901 21.1667 8.72808 19.4381 8.58847 17.3503C8.55602 16.9391 8.45916 16.5401 8.29888 16.1745C8.24313 16.058 8.27842 15.939 8.35468 15.8624L16.681 7.51861C16.7484 7.43323 16.8586 7.4077 16.9477 7.43138C17.1191 7.46332 17.2861 7.48364 17.4505 7.48364C18.7751 7.48364 19.8384 6.36536 19.7541 5.01234L19.754 5.01103C19.691 3.85105 18.7549 2.91115 17.5985 2.83692ZM14.8138 5.1611C14.8021 3.63855 16.0787 2.41969 17.6175 2.50413L17.619 2.50421C18.9433 2.58878 20.0142 3.6629 20.0868 4.99223C20.1827 6.53625 18.9678 7.81697 17.4505 7.81697C17.2666 7.81697 17.0853 7.79515 16.908 7.763L8.61734 16.0711C8.78575 16.4648 8.88663 16.8901 8.92085 17.3251L8.921 17.327C9.07406 19.6074 7.28355 21.5 5.04406 21.5C4.57356 21.5 4.12555 21.4174 3.71224 21.2635C3.44376 21.1664 3.35799 20.8148 3.57566 20.6128L5.37714 18.839C5.37731 18.8388 5.37747 18.8387 5.37763 18.8385C5.54733 18.6677 5.55136 18.3761 5.37567 18.19L4.49742 17.3087C4.32747 17.1382 4.03726 17.134 3.852 17.3105L2.04923 19.0969C2.04909 19.097 2.04896 19.0972 2.04882 19.0973C1.84633 19.2999 1.49817 19.2141 1.4021 18.945C1.2492 18.52 1.16675 18.0709 1.16675 17.5985C1.16675 15.3525 3.06348 13.555 5.32604 13.7087L5.32695 13.7088C5.79359 13.7431 6.24067 13.855 6.64593 14.0461L14.8903 5.79569C14.8355 5.58578 14.8138 5.37706 14.8138 5.1611ZM14.8138 5.1611C14.8138 5.16088 14.8138 5.16065 14.8138 5.16043H14.9805L14.8138 5.16174C14.8138 5.16153 14.8138 5.16132 14.8138 5.1611ZM6.61778 14.0743C6.61773 14.0743 6.61784 14.0742 6.61778 14.0743Z" fill="#001E2B"/>
<path d="M9.16063 6.89202L8.2809 7.77479C8.04405 8.01246 7.6493 8.01246 7.40118 7.77479L4.55898 4.91143C4.51387 4.86616 4.51387 4.79826 4.55898 4.75299L6.14926 3.1572C6.19437 3.11193 6.26204 3.11193 6.30716 3.1572L9.16063 6.02056C9.39748 6.25823 9.39748 6.65435 9.16063 6.89202Z" fill="#00ED64"/>
<path d="M17.8678 13.8749C18.1046 13.6373 18.4994 13.6373 18.7475 13.8749L21.9393 17.0778C22.9093 18.0512 22.9093 19.6243 21.9393 20.5976C20.9694 21.5709 19.4017 21.5709 18.4317 20.5976L15.2399 17.3947C15.003 17.1571 15.003 16.7609 15.2399 16.512" fill="#00ED64"/>
<path d="M15.2399 16.512C15.4768 16.2743 15.4768 15.8782 15.2399 15.6292C15.0031 15.3915 14.6083 15.3915 14.3602 15.6292C14.1121 15.8669 13.7286 15.8669 13.4805 15.6292C13.2323 15.3915 13.2436 14.9954 13.4805 14.7464L16.1084 12.1094C16.3452 11.8717 16.74 11.8717 16.9881 12.1094C17.225 12.3471 17.225 12.7432 16.9881 12.9922C16.7513 13.2299 16.7513 13.626 16.9881 13.875C17.225 14.1239 17.6197 14.1126 17.8678 13.875" fill="#00ED64"/>
<path fill-rule="evenodd" clip-rule="evenodd" d="M6.22837 3.31408L4.71541 4.83228L7.51803 7.65577C7.70331 7.83181 7.9932 7.82754 8.16301 7.65714L9.04274 6.77437C9.21477 6.60174 9.21477 6.31083 9.04274 6.1382L6.22837 3.31408ZM6.03136 3.03955C6.14161 2.92892 6.31513 2.92892 6.42537 3.03955L9.27885 5.90291C9.58051 6.20562 9.58051 6.70695 9.27885 7.00966L8.95621 7.33341L14.7944 13.1918L15.9903 11.9917C16.2938 11.6872 16.7924 11.6911 17.1034 11.989L17.1062 11.9917L17.1062 11.9917C17.4093 12.2959 17.4055 12.7952 17.1089 13.107L17.1062 13.1098L17.1062 13.1098C16.9356 13.281 16.9318 13.5739 17.1089 13.7601C17.2746 13.9343 17.5612 13.9355 17.7502 13.7568C18.0537 13.4528 18.5519 13.4568 18.8628 13.7546L18.8656 13.7573L18.8656 13.7573L22.0574 16.9602C23.0922 17.9985 23.0922 19.6769 22.0574 20.7153C21.0223 21.7539 19.3488 21.7539 18.3137 20.7153L15.1218 17.5124C14.8187 17.2082 14.8225 16.7089 15.1191 16.3971L15.2409 16.5129L15.1219 16.3943C15.292 16.2236 15.2963 15.9317 15.1205 15.7455C14.9501 15.576 14.6602 15.5726 14.4755 15.7495C14.1629 16.049 13.6778 16.049 13.3652 15.7495C13.0436 15.4415 13.0666 14.9396 13.3597 14.6315L13.3624 14.6287L13.3624 14.6288L14.5591 13.4279L8.72092 7.56952L8.39912 7.89244C8.09566 8.19694 7.59709 8.19308 7.28605 7.89515L7.28301 7.89224L7.28305 7.8922L4.44109 5.02907L4.44093 5.02892C4.33116 4.9186 4.33121 4.74559 4.44109 4.63533L6.03136 3.03955ZM17.4625 4.48974C17.0943 4.48974 16.7958 4.78821 16.7958 5.1564C16.7958 5.52459 17.0943 5.82307 17.4625 5.82307C17.8307 5.82307 18.1291 5.52459 18.1291 5.1564C18.1291 4.78821 17.8307 4.48974 17.4625 4.48974ZM16.4625 5.1564C16.4625 4.60412 16.9102 4.1564 17.4625 4.1564C18.0148 4.1564 18.4625 4.60412 18.4625 5.1564C18.4625 5.70869 18.0148 6.1564 17.4625 6.1564C16.9102 6.1564 16.4625 5.70869 16.4625 5.1564ZM17.9858 13.9926C18.1557 13.8222 18.4457 13.8179 18.6309 13.9941L21.8213 17.1955C22.7264 18.1038 22.7264 19.5717 21.8213 20.48C20.9165 21.3879 19.4546 21.3879 18.5498 20.48L15.3579 17.2771C15.1881 17.1066 15.1836 16.8155 15.3584 16.6292C15.6611 16.325 15.6572 15.826 15.3607 15.5143L15.3607 15.5143L15.358 15.5115C15.0545 15.207 14.556 15.2109 14.2449 15.5088C14.0613 15.6847 13.7794 15.6847 13.5958 15.5088C13.4215 15.3419 13.4206 15.0525 13.6 14.8626L16.2264 12.227C16.3963 12.0566 16.6861 12.0524 16.8714 12.2284C17.0403 12.3994 17.044 12.6903 16.8685 12.8761C16.5669 13.1804 16.5713 13.6786 16.8674 13.9898C17.1747 14.3129 17.6758 14.2897 17.9831 13.9953L17.8688 13.8759L17.9858 13.9926Z" fill="#001E2B"/>
</svg>
