<svg width="72" height="72" viewBox="0 0 72 72" fill="none" xmlns="http://www.w3.org/2000/svg">
<path d="M33.8359 53.9889C37.7677 53.9968 41.6134 52.8381 44.8864 50.6595C48.1594 48.4809 50.7125 45.3803 52.2225 41.7501C53.7326 38.1199 54.1319 34.1233 53.3697 30.2662C52.6075 26.409 50.7181 22.8646 47.9408 20.0817C45.1634 17.2987 41.6229 15.4022 37.7672 14.6323C33.9116 13.8623 29.9142 14.2535 26.281 15.7563C22.6478 17.259 19.542 19.8059 17.3568 23.0745C15.1717 26.343 14.0052 30.1864 14.0052 34.1182C14.0052 39.3813 16.0933 44.4294 19.8111 48.1548C23.5289 51.8801 28.5728 53.9783 33.8359 53.9889Z" fill="#00ED64"/>
<path fill-rule="evenodd" clip-rule="evenodd" d="M64.7015 9.16986V9.66986H64.0496L62.3211 29.2397L62.3185 29.2753L62.3102 29.3828C62.303 29.4758 62.2923 29.6098 62.2784 29.7746C62.2508 30.104 62.2105 30.5569 62.1601 31.0504C62.1584 31.0675 62.1558 31.0845 62.1523 31.1013C62.0192 31.7422 61.6619 32.3145 61.1445 32.7154C60.6305 33.1137 59.992 33.3168 59.3425 33.2889H54.2297C54.3499 36.2389 53.8278 39.193 52.6842 41.9422C51.4903 44.8123 49.6604 47.3595 47.3465 49.3993L68.1501 67.6867L67.4899 68.4378L46.5712 50.0492C46.118 50.4103 45.6484 50.7529 45.1634 51.0758C41.8081 53.3092 37.8656 54.497 33.835 54.4889C33.5347 54.4883 33.2352 54.4811 32.9366 54.4673V61.7224C32.9507 62.9756 32.4699 64.1839 31.5984 65.0846C30.7261 65.9862 29.5332 66.5068 28.2791 66.5332L28.2685 66.5334L11.9762 66.5333L11.9609 66.5331C10.7147 66.4951 9.53307 65.9694 8.6704 65.0692C7.80845 64.1697 7.33372 62.968 7.3481 61.7223V52.1411C7.35918 51.5063 7.11823 50.893 6.67791 50.4356C6.23872 49.9794 5.63701 49.7155 5.00406 49.7012H3.84998V48.6512H5.00494C5.31723 48.6453 5.62536 48.5782 5.91186 48.4537C6.19961 48.3286 6.45991 48.1481 6.67789 47.9225C6.89587 47.6968 7.06726 47.4305 7.18226 47.1386C7.29727 46.8467 7.35365 46.535 7.34818 46.2213L7.34803 46.2125L7.3481 40.8962C7.34234 39.6462 7.82871 38.4442 8.70211 37.5499C9.5758 36.6553 10.7665 36.1406 12.0168 36.1171L12.0261 36.1169L13.6035 36.117C13.5383 35.4556 13.5052 34.7886 13.5052 34.1182C13.5053 30.0875 14.701 26.1474 16.9412 22.7966C19.1814 19.4458 22.3653 16.8349 26.0899 15.2943C29.1345 14.0349 32.4286 13.5371 35.6888 13.8284L35.2905 9.66986H34.3557C33.958 9.66986 33.5766 9.51188 33.2954 9.23066C33.0142 8.94944 32.8562 8.56803 32.8562 8.17033V5.06179C32.8562 4.66409 33.0142 4.28268 33.2954 4.00146C33.5766 3.72024 33.958 3.56226 34.3557 3.56226H64.6515C65.0492 3.56226 65.4306 3.72024 65.7119 4.00146C65.9931 4.28267 66.1511 4.66408 66.1511 5.06179V8.14566C66.1578 8.53376 66.0137 8.90943 65.7491 9.19358C65.4831 9.47918 65.1162 9.64982 64.7264 9.66924L64.7015 9.16986ZM34.3557 4.56226C34.2232 4.56226 34.0962 4.61489 34.0025 4.70857C33.9088 4.80225 33.8562 4.9293 33.8562 5.06179V8.17033C33.8562 8.30282 33.9088 8.42987 34.0025 8.52355C34.0962 8.61723 34.2232 8.66986 34.3557 8.66986H64.6869C64.8129 8.66098 64.931 8.60465 65.0173 8.51203C65.1059 8.41688 65.1539 8.29094 65.1512 8.16096L65.151 8.15034L65.1511 5.06179C65.1511 4.92931 65.0984 4.80225 65.0048 4.70857C64.9111 4.61488 64.784 4.56226 64.6515 4.56226H34.3557ZM35.786 14.842C32.6252 14.5287 29.4253 14.9969 26.4721 16.2183C22.9303 17.6833 19.9027 20.1661 17.7725 23.3524C15.6423 26.5387 14.5053 30.2854 14.5052 34.1182C14.5052 34.7888 14.54 35.4559 14.6086 36.1169H28.2791C29.5332 36.1434 30.7261 36.6641 31.5984 37.5656C32.4699 38.4664 32.9508 39.6746 32.9366 40.9278V46.2212C32.9311 46.5349 32.9874 46.8466 33.1024 47.1385C33.2174 47.4304 33.3888 47.6968 33.6068 47.9224C33.8248 48.1481 34.0851 48.3286 34.3728 48.4536C34.6593 48.5781 34.9675 48.6452 35.2798 48.6511H36.3447V49.6511H35.2841C34.9667 49.6576 34.6537 49.7271 34.3633 49.8556C34.0725 49.9842 33.8102 50.1693 33.5917 50.4002C33.3731 50.6311 33.2026 50.9031 33.0901 51.2005C32.9776 51.4979 32.9254 51.8146 32.9364 52.1324L32.9367 52.1411V53.4662C33.2359 53.4807 33.5361 53.4883 33.837 53.4889C37.6698 53.4966 41.4187 52.3671 44.6093 50.2433C47.8 48.1195 50.2888 45.097 51.7609 41.5581C52.8536 38.9312 53.3497 36.1076 53.2289 33.2888H40.0869C39.4027 33.2989 38.7387 33.0562 38.2223 32.6071C37.7048 32.1571 37.372 31.5317 37.2878 30.851L37.2865 30.8399C37.2309 30.2892 37.1907 29.7845 37.1642 29.4176C37.1509 29.234 37.1411 29.0847 37.1347 28.981L37.1274 28.8611L37.1255 28.8294L36.4217 21.4799L34.8717 22.3391C34.6321 22.477 34.3668 22.5646 34.0921 22.5963C33.8157 22.6282 33.5358 22.6029 33.2696 22.5221C33.0034 22.4412 32.7567 22.3065 32.5448 22.1263C32.3329 21.9461 32.1603 21.7242 32.0377 21.4745L31.9865 21.3703V21.3252C31.8873 21.1165 31.8232 20.8925 31.7972 20.6622C31.7661 20.3859 31.7903 20.1062 31.8687 19.8394C31.947 19.5726 32.0778 19.3242 32.2534 19.1086C32.4279 18.8943 32.6432 18.7168 32.8868 18.5863L35.9797 16.864L35.786 14.842ZM54.1643 32.2889H59.3538L59.3625 32.2889L59.3776 32.2894C59.7935 32.3092 60.2029 32.18 60.532 31.9249C60.8548 31.6748 61.0797 31.3198 61.1681 30.9217C61.2164 30.4463 61.2551 30.0102 61.2819 29.6909C61.2956 29.5284 61.3061 29.3963 61.3132 29.305L61.3213 29.2001L61.3233 29.1729L61.3245 29.1565L63.0457 9.66992H36.2951L36.7045 13.9449C37.0925 13.9993 37.4795 14.065 37.8652 14.142C39.9287 14.5541 41.9042 15.2809 43.7262 16.2875L47.5688 14.1585C47.5646 14.1397 47.5607 14.1209 47.557 14.1019C47.4595 13.6023 47.512 13.0851 47.7079 12.6152C47.9038 12.1454 48.2344 11.7441 48.658 11.4618C49.0815 11.1795 49.5792 11.0288 50.0882 11.0288H50.0906C50.4306 11.0304 50.7669 11.099 51.0804 11.2306C51.3939 11.3622 51.6784 11.5543 51.9177 11.7959C52.157 12.0374 52.3463 12.3238 52.4749 12.6385C52.6035 12.9532 52.6689 13.2902 52.6672 13.6302L52.1672 13.6278L52.6672 13.6326C52.6623 14.1416 52.5069 14.6378 52.2206 15.0586C51.9342 15.4795 51.5297 15.8062 51.0581 15.9976C50.5864 16.189 50.0686 16.2365 49.57 16.1342C49.0714 16.0319 48.6142 15.7844 48.256 15.4227C48.1505 15.3163 48.055 15.2013 47.9703 15.0793L44.7254 16.8772C46.0117 17.6866 47.21 18.6416 48.2947 19.7285C51.1419 22.5815 53.0788 26.2151 53.8602 30.1693C53.9991 30.8723 54.1004 31.5798 54.1643 32.2889ZM43.7189 17.4348C45.1225 18.2629 46.4234 19.2691 47.5869 20.4349C50.2943 23.1479 52.1362 26.603 52.8792 30.3631C53.0054 31.0019 53.0989 31.6446 53.1601 32.2888L40.083 32.2887L40.0748 32.2888C39.6359 32.296 39.2098 32.1406 38.8785 31.8525C38.5485 31.5656 38.3359 31.1673 38.2809 30.7336C38.2269 30.1971 38.1875 29.7046 38.1616 29.3456C38.1486 29.1656 38.139 29.0194 38.1327 28.9185L38.1257 28.8026L38.1239 28.7728L38.1228 28.7531L37.3757 20.9511L43.7189 17.4348ZM42.6832 16.8656L37.2717 19.8653L36.8029 14.97C37.0924 15.0142 37.3812 15.0651 37.6693 15.1226C39.4222 15.4727 41.1082 16.0616 42.6832 16.8656ZM31.9367 53.3917V52.1581C31.9223 51.7109 31.9965 51.2652 32.1548 50.8467C32.3142 50.4253 32.5558 50.0399 32.8655 49.7127C33.0704 49.4962 33.3025 49.3081 33.5554 49.1529C33.3116 49.0036 33.0871 48.8237 32.8876 48.6172C32.5783 48.2971 32.3352 47.9191 32.172 47.505C32.0094 47.0923 31.9294 46.6518 31.9366 46.2083V40.9189C31.9484 39.9283 31.5686 38.973 30.8797 38.2609C30.192 37.5501 29.2518 37.1391 28.2631 37.1169H14.7387C14.8667 37.9338 15.0465 38.7395 15.2763 39.5291C19.5418 40.0829 23.8728 39.8731 28.0666 38.9084L28.2907 39.883C24.1341 40.8391 19.8463 41.0736 15.6142 40.5784C16.5662 43.2694 18.1103 45.7427 20.165 47.8016C23.339 50.982 27.5045 52.9459 31.9367 53.3917ZM14.1922 39.3639C13.4898 39.2449 12.7929 39.0942 12.1039 38.9122L11.8485 39.8791C12.7239 40.1103 13.6113 40.293 14.5066 40.4265C15.4895 43.4443 17.1734 46.2196 19.4572 48.508C22.8189 51.8765 27.2383 53.9473 31.9366 54.3965L31.9365 61.7253L31.9366 61.7313C31.9485 62.722 31.5686 63.6773 30.8797 64.3893C30.192 65.1001 29.2518 65.5111 28.2631 65.5333H11.984C11.0024 65.5015 10.0721 65.0866 9.39242 64.3773C8.71106 63.6662 8.33609 62.7161 8.3481 61.7314V52.154C8.36257 51.2562 8.02116 50.389 7.39832 49.7421C7.18573 49.5213 6.94628 49.3322 6.68736 49.1782C6.94741 49.0241 7.18623 48.8356 7.39712 48.6173C7.70635 48.2971 7.94949 47.9192 8.11265 47.5051C8.27526 47.0924 8.35525 46.6518 8.3481 46.2084L8.34811 40.895L8.3481 40.8926C8.34329 39.905 8.72746 38.9551 9.41752 38.2486C10.1065 37.5431 11.0452 37.1367 12.031 37.117H13.7271C13.8401 37.8761 13.9956 38.6262 14.1922 39.3639ZM36.3177 20.3942L36.0837 17.9506L33.3613 19.4666C33.2334 19.5348 33.1203 19.6277 33.0287 19.7401C32.9372 19.8525 32.869 19.982 32.8282 20.1211C32.7873 20.2602 32.7747 20.4061 32.7909 20.5501C32.8072 20.6941 32.852 20.8335 32.9228 20.96L32.9865 21.0738V21.1259C33.0425 21.2153 33.1119 21.2959 33.1926 21.3645C33.3001 21.4559 33.4252 21.5242 33.5602 21.5652C33.6952 21.6062 33.8372 21.619 33.9774 21.6029C34.1176 21.5867 34.2529 21.5419 34.375 21.4712L34.3831 21.4666L36.3177 20.3942ZM51.5492 13.0168C51.628 13.2096 51.6681 13.416 51.6672 13.6242C51.664 13.9354 51.5689 14.2388 51.3938 14.4961C51.2185 14.7538 50.9708 14.9538 50.6821 15.071C50.3933 15.1882 50.0763 15.2173 49.771 15.1546C49.4657 15.092 49.1858 14.9404 48.9664 14.719C48.7471 14.4976 48.5982 14.2162 48.5385 13.9103C48.4788 13.6045 48.511 13.2878 48.6309 13.0001C48.7509 12.7125 48.9532 12.4667 49.2126 12.2939C49.4716 12.1213 49.7758 12.0291 50.087 12.0288C50.2953 12.03 50.5013 12.072 50.6933 12.1527C50.8857 12.2334 51.0604 12.3513 51.2072 12.4996C51.3541 12.6478 51.4703 12.8236 51.5492 13.0168Z" fill="#001E2B"/>
</svg>
