<svg width="32" height="32" viewBox="0 0 32 32" fill="none" xmlns="http://www.w3.org/2000/svg">
<path d="M31.7538 8.16923H0.246154V4.28C0.246154 3.68923 0.68923 3.24615 1.28 3.24615H30.72C31.3107 3.24615 31.7538 3.68923 31.7538 4.28V8.16923Z" fill="#00ED64"/>
<path fill-rule="evenodd" clip-rule="evenodd" d="M11.8154 13.5846C11.8154 12.6117 12.5656 11.8615 13.5384 11.8615C14.5113 11.8615 15.2615 12.6117 15.2615 13.5846V15.5538C15.2615 16.4721 14.5166 17.2769 13.5384 17.2769C12.5656 17.2769 11.8154 16.5267 11.8154 15.5538V13.5846ZM13.5384 12.3538C12.8375 12.3538 12.3077 12.8836 12.3077 13.5846V15.5538C12.3077 16.2548 12.8375 16.7846 13.5384 16.7846C14.2341 16.7846 14.7692 16.2109 14.7692 15.5538V13.5846C14.7692 12.8836 14.2394 12.3538 13.5384 12.3538Z" fill="#001E2B"/>
<path d="M6.8923 17.0307V12.1077H7.38461V17.0307H6.8923Z" fill="#001E2B"/>
<path d="M19.6923 17.0308V12.1077H20.1846V17.0308H19.6923Z" fill="#001E2B"/>
<path d="M24.6154 17.0308V12.1077H25.1077V17.0308H24.6154Z" fill="#001E2B"/>
<path fill-rule="evenodd" clip-rule="evenodd" d="M13.5384 19.7384C12.5656 19.7384 11.8154 20.4887 11.8154 21.4615V23.4308C11.8154 24.4036 12.5656 25.1538 13.5384 25.1538C14.5166 25.1538 15.2615 24.349 15.2615 23.4308V21.4615C15.2615 20.4887 14.5113 19.7384 13.5384 19.7384ZM12.3077 21.4615C12.3077 20.7605 12.8375 20.2308 13.5384 20.2308C14.2394 20.2308 14.7692 20.7605 14.7692 21.4615V23.4308C14.7692 24.0879 14.2341 24.6615 13.5384 24.6615C12.8375 24.6615 12.3077 24.1317 12.3077 23.4308V21.4615Z" fill="#001E2B"/>
<path d="M6.8923 19.9846V24.9077H7.38461V19.9846H6.8923Z" fill="#001E2B"/>
<path d="M19.6923 19.9846V24.9077H20.1846V19.9846H19.6923Z" fill="#001E2B"/>
<path d="M24.6154 19.9846V24.9077H25.1077V19.9846H24.6154Z" fill="#001E2B"/>
<path fill-rule="evenodd" clip-rule="evenodd" d="M0 4.23077C0 3.55295 0.554259 3 1.23219 3H30.764C31.41 3 31.9437 3.50204 31.9926 4.13577C31.9975 4.18298 32 4.2311 32 4.28V8.16923C32 8.18391 31.9987 8.19828 31.9962 8.21226V27.8025C32.0515 28.5353 31.4925 29.0923 30.8133 29.0923H1.23219C0.554259 29.0923 0 28.5393 0 27.8615V4.23077ZM1.28 3.49231C0.825177 3.49231 0.492307 3.82518 0.492307 4.28V7.92307H31.5039V4.23077C31.5039 4.21377 31.5033 4.1969 31.5022 4.18017C31.4572 3.77729 31.1408 3.49231 30.72 3.49231H1.28ZM31.5039 8.41538H0.492307V27.8615C0.492307 28.2668 0.825482 28.6 1.23219 28.6H30.8133C31.2155 28.6 31.5418 28.2762 31.5048 27.8328C31.5042 27.8259 31.5039 27.8191 31.5039 27.8123V8.41538Z" fill="#001E2B"/>
</svg>
