<svg width="24" height="24" viewBox="0 0 24 24" fill="none" xmlns="http://www.w3.org/2000/svg">
<path d="M16.7385 4.24615C18.3631 4.24615 19.6923 5.57538 19.6923 7.2C19.6923 8.82462 18.3631 10.1538 16.7385 10.1538C15.1138 10.1538 13.7846 8.82462 13.7846 7.2C13.7846 5.57538 15.1138 4.24615 16.7385 4.24615Z" fill="#00ED64"/>
<path d="M16.7385 13.8462C18.3631 13.8462 19.6923 15.1754 19.6923 16.8C19.6923 18.4246 18.3631 19.7538 16.7385 19.7538C15.1138 19.7538 13.7846 18.4246 13.7846 16.8C13.7846 15.1754 15.1138 13.8462 16.7385 13.8462Z" fill="#00ED64"/>
<path d="M11.2 20.8615C11.2 22.4862 9.87077 23.8154 8.24615 23.8154C6.62154 23.8154 5.29231 22.4862 5.29231 20.8615C5.29231 19.2369 6.62154 17.9077 8.24615 17.9077C9.87077 17.9077 11.2 19.2369 11.2 20.8615Z" fill="#00ED64"/>
<path d="M11.2 3.13846C11.2 4.76308 9.87077 6.09231 8.24615 6.09231C6.62154 6.09231 5.29231 4.76308 5.29231 3.13846C5.29231 1.51385 6.62154 0.184615 8.24615 0.184615C9.87077 0.184615 11.2 1.51385 11.2 3.13846Z" fill="#00ED64"/>
<path fill-rule="evenodd" clip-rule="evenodd" d="M8.24615 0C6.51958 0 5.10769 1.41189 5.10769 3.13846C5.10769 4.78628 6.39371 6.14747 8.01196 6.26822L7.99004 7.94238C5.75923 8.03872 4 9.89555 4 12.1846C4 14.4852 5.77704 16.3492 8.02387 16.4282V17.7309C6.40003 17.8459 5.10769 19.2097 5.10769 20.8615C5.10769 22.5881 6.51958 24 8.24615 24C9.97273 24 11.3846 22.5881 11.3846 20.8615C11.3846 19.1842 10.0521 17.8039 8.3931 17.7265V16.425C9.65502 16.3589 10.7629 15.7291 11.482 14.7779L13.73 15.9075C13.6454 16.1906 13.6 16.4903 13.6 16.8C13.6 18.5266 15.0119 19.9385 16.7385 19.9385C18.465 19.9385 19.8769 18.5266 19.8769 16.8C19.8769 15.0734 18.465 13.6615 16.7385 13.6615C15.4523 13.6615 14.3408 14.445 13.8574 15.5583L11.6934 14.4709C12.1061 13.8116 12.3446 13.0274 12.3446 12.1846C12.3446 11.3418 12.1061 10.5576 11.6934 9.89827L14.0046 8.73699C14.5445 9.69108 15.5693 10.3385 16.7385 10.3385C18.465 10.3385 19.8769 8.92658 19.8769 7.2C19.8769 5.47342 18.465 4.06154 16.7385 4.06154C15.0119 4.06154 13.6 5.47342 13.6 7.2C13.6 7.62655 13.6862 8.03389 13.842 8.40548L11.482 9.59131C10.7565 8.63162 9.63523 7.99913 8.3593 7.94259L8.38115 6.27404C10.0457 6.20275 11.3846 4.81982 11.3846 3.13846C11.3846 1.41189 9.97273 0 8.24615 0ZM5.47692 3.13846C5.47692 1.61581 6.7235 0.369231 8.24615 0.369231C9.76881 0.369231 11.0154 1.61581 11.0154 3.13846C11.0154 4.66112 9.76881 5.90769 8.24615 5.90769C6.7235 5.90769 5.47692 4.66112 5.47692 3.13846ZM13.9692 7.2C13.9692 5.67734 15.2158 4.43077 16.7385 4.43077C18.2611 4.43077 19.5077 5.67734 19.5077 7.2C19.5077 8.72266 18.2611 9.96923 16.7385 9.96923C15.2158 9.96923 13.9692 8.72266 13.9692 7.2ZM13.9692 16.8C13.9692 15.2773 15.2158 14.0308 16.7385 14.0308C18.2611 14.0308 19.5077 15.2773 19.5077 16.8C19.5077 18.3227 18.2611 19.5692 16.7385 19.5692C15.2158 19.5692 13.9692 18.3227 13.9692 16.8ZM5.47692 20.8615C5.47692 19.3389 6.7235 18.0923 8.24615 18.0923C9.76881 18.0923 11.0154 19.3389 11.0154 20.8615C11.0154 22.3842 9.76881 23.6308 8.24615 23.6308C6.7235 23.6308 5.47692 22.3842 5.47692 20.8615ZM8.17231 8.30769C6.06609 8.30769 4.36923 10.0311 4.36923 12.1846C4.36923 14.3382 6.06609 16.0615 8.17231 16.0615C10.2785 16.0615 11.9754 14.3382 11.9754 12.1846C11.9754 10.0311 10.2785 8.30769 8.17231 8.30769Z" fill="#001E2B"/>
</svg>
