<?xml version="1.0" encoding="UTF-8" standalone="no"?>
<svg
   width="486.07007"
   height="247.89565"
   viewBox="0 0 486.07007 247.89565"
   fill="none"
   version="1.1"
   id="svg22"
   sodipodi:docname="langgraph-dark.svg"
   inkscape:version="1.2 (dc2aeda, 2022-05-15)"
   xmlns:inkscape="http://www.inkscape.org/namespaces/inkscape"
   xmlns:sodipodi="http://sodipodi.sourceforge.net/DTD/sodipodi-0.dtd"
   xmlns="http://www.w3.org/2000/svg"
   xmlns:svg="http://www.w3.org/2000/svg">
  <defs
     id="defs26">
    <clipPath
       clipPathUnits="userSpaceOnUse"
       id="clipPath458">
      <rect
         style="opacity:0.41;fill:#000000;stroke-width:0.931542"
         id="rect460"
         width="499.07693"
         height="250.88005"
         x="-9.3912325"
         y="0" />
    </clipPath>
    <clipPath
       clipPathUnits="userSpaceOnUse"
       id="clipPath462">
      <rect
         style="opacity:0.41;fill:#000000;stroke-width:0.931542"
         id="rect464"
         width="499.07693"
         height="250.88005"
         x="-9.3912325"
         y="0" />
    </clipPath>
    <clipPath
       clipPathUnits="userSpaceOnUse"
       id="clipPath466">
      <rect
         style="opacity:0.41;fill:#000000;stroke-width:0.931542"
         id="rect468"
         width="499.07693"
         height="250.88005"
         x="-9.3912325"
         y="0" />
    </clipPath>
    <clipPath
       clipPathUnits="userSpaceOnUse"
       id="clipPath470">
      <rect
         style="opacity:0.41;fill:#000000;stroke-width:0.931542"
         id="rect472"
         width="499.07693"
         height="250.88005"
         x="-9.3912325"
         y="0" />
    </clipPath>
    <clipPath
       clipPathUnits="userSpaceOnUse"
       id="clipPath474">
      <rect
         style="opacity:0.41;fill:#000000;stroke-width:0.931542"
         id="rect476"
         width="499.07693"
         height="250.88005"
         x="-9.3912325"
         y="0" />
    </clipPath>
    <clipPath
       clipPathUnits="userSpaceOnUse"
       id="clipPath478">
      <rect
         style="opacity:0.41;fill:#000000;stroke-width:0.931542"
         id="rect480"
         width="499.07693"
         height="250.88005"
         x="-9.3912325"
         y="0" />
    </clipPath>
    <clipPath
       clipPathUnits="userSpaceOnUse"
       id="clipPath482">
      <rect
         style="opacity:0.41;fill:#000000;stroke-width:0.931542"
         id="rect484"
         width="499.07693"
         height="250.88005"
         x="-9.3912325"
         y="0" />
    </clipPath>
    <clipPath
       clipPathUnits="userSpaceOnUse"
       id="clipPath486">
      <rect
         style="opacity:0.41;fill:#000000;stroke-width:0.931542"
         id="rect488"
         width="499.07693"
         height="250.88005"
         x="-9.3912325"
         y="0" />
    </clipPath>
    <clipPath
       clipPathUnits="userSpaceOnUse"
       id="clipPath490">
      <rect
         style="opacity:0.41;fill:#000000;stroke-width:0.931542"
         id="rect492"
         width="499.07693"
         height="250.88005"
         x="-9.3912325"
         y="0" />
    </clipPath>
    <clipPath
       clipPathUnits="userSpaceOnUse"
       id="clipPath494">
      <rect
         style="opacity:0.41;fill:#000000;stroke-width:0.931542"
         id="rect496"
         width="499.07693"
         height="250.88005"
         x="-9.3912325"
         y="0" />
    </clipPath>
  </defs>
  <sodipodi:namedview
     id="namedview24"
     pagecolor="#ffffff"
     bordercolor="#000000"
     borderopacity="0.25"
     inkscape:showpageshadow="2"
     inkscape:pageopacity="0.0"
     inkscape:pagecheckerboard="0"
     inkscape:deskcolor="#d1d1d1"
     showgrid="false"
     inkscape:zoom="0.74537608"
     inkscape:cx="6.7080232"
     inkscape:cy="133.48966"
     inkscape:window-width="1425"
     inkscape:window-height="819"
     inkscape:window-x="151"
     inkscape:window-y="189"
     inkscape:window-maximized="0"
     inkscape:current-layer="layer2" />
  <g
     inkscape:groupmode="layer"
     id="layer2"
     inkscape:label="bg">
    <path
       style="opacity:1;fill:#1c3c3c;fill-opacity:1;stroke-width:1.37044"
       d="m 76.498644,15.164419 c 0,42.599395 0,85.198771 0,127.798181 0,16.65308 -0.778496,33.12145 1.772228,49.5933 0.993948,6.41863 3.544473,12.62594 3.544473,19.07436 0,1.55624 -0.682748,9.16975 0,9.53717 3.946395,2.12375 21.591005,-1.47913 28.355775,-1.90741 26.04898,-1.64922 51.96934,-5.76354 77.97837,-7.62976 20.14686,-1.44559 40.14893,1.90743 60.25601,1.90743 36.48501,0 73.64194,-1.99267 109.8786,1.90744 4.96118,0.53398 10.98558,-1.06866 15.95015,0 1.83182,0.39431 3.46002,1.68541 5.3167,1.90744 0.9305,0.11132 42.88173,3.44022 44.3059,1.90745 0.83543,-0.89919 0,-2.54326 0,-3.81489 0,-2.54325 0,-5.08648 0,-7.62973 0,-28.75027 -5.31672,-56.98093 -5.31672,-85.83459 0,-15.3427 2.16131,-48.569474 0,-64.852798 -0.81142,-6.113215 -1.77223,-10.82281 -1.77223,-17.166934 0,-0.138486 0.12788,-24.727846 0,-24.796659 -6.89374,-3.709805 -26.83125,1.206189 -33.67248,1.907443 -14.16295,1.451755 -28.33815,2.79631 -42.53365,3.814871 -23.32107,1.673337 -47.51899,0 -70.88944,0 -7.67968,0 -15.41867,-1.025214 -23.03906,0 -1.85367,0.249376 -3.45787,1.707373 -5.31671,1.907429 -9.94711,1.070597 -20.17184,-0.974144 -30.128,0 -20.64728,2.020217 1.66013,1.445657 -15.95012,3.814867 -17.44542,2.347041 -35.67142,-1.883029 -53.16708,0 -0.85081,0.09156 -28.5678,3.586669 -30.128,1.907451 -0.41772,-0.44959 0.41772,-1.457861 0,-1.907451 -1.29157,-1.390075 -7.11318,-0.02602 -8.86117,-1.907419 -0.41773,-0.449593 0.41771,-1.45786 0,-1.907448 -1.54942,-1.667622 -17.47618,1.737927 -19.494601,0 -2.609481,-2.24683 -4.725973,-5.086491 -7.088945,-7.629743 z"
       id="path2450" />
  </g>
  <path
     style="opacity:1;fill:#ffffff;fill-opacity:1;stroke-width:1.3416"
     d="M 99.949543,247.3353 C 52.704053,237.16803 14.363669,198.29834 4.490941,150.55889 1.160543,134.45479 2.528077,106.15419 7.357859,91.229117 20.469782,50.710437 49.665563,21.480437 89.607043,8.8835372 c 18.788537,-5.9256 32.467297,-6.40918 166.639447,-5.89109 l 124.09842,0.47919 12.92964,3.51502 c 41.53378,11.2912598 73.65258,41.2050798 86.8508,80.8884498 10.52089,31.633343 8.36295,62.671823 -6.43595,92.570723 -15.74417,31.80865 -43.14632,54.78311 -77.91603,65.32616 l -10.06204,3.05106 -138.18527,0.26662 C 128.7788,249.31879 108.01975,249.07197 99.949543,247.3353 Z m 85.706447,-40.23864 c 4.74722,-3.14157 5.74177,-3.33085 10.30999,-1.96218 5.05536,1.51463 11.98274,-0.058 11.98274,-2.72032 0,-1.95882 -5.10615,-3.85667 -10.37632,-3.85667 -7.31023,0 -8.57963,-1.7756 -5.53655,-7.74443 1.37326,-2.69355 2.49682,-6.58086 2.49682,-8.6385 0,-2.05763 0.22675,-3.74114 0.50387,-3.74114 0.27712,0 4.05038,1.53808 8.38503,3.41795 4.89378,2.12237 9.7264,5.53109 12.74919,8.99272 4.7786,5.47238 5.07172,5.5923 15.95727,6.52777 6.09908,0.52414 11.90779,0.63887 12.90824,0.25496 2.83373,-1.0874 2.14836,-3.91133 -1.53503,-6.32478 -1.8447,-1.20871 -3.35401,-2.96679 -3.35401,-3.90685 0,-0.94005 -2.35865,-4.01235 -5.24143,-6.82732 -3.36161,-3.28253 -6.31158,-8.07151 -8.22529,-13.35292 -4.26386,-11.76736 -13.50625,-29.65824 -20.39122,-39.47212 -3.25278,-4.63652 -14.45142,-17.43539 -24.88588,-28.441933 -15.5151,-16.36572 -19.95479,-21.96703 -24.36704,-30.74256 -6.4198,-12.76836 -11.97085,-19.43374 -19.29775,-23.17165 -6.76057,-3.44898 -19.03929,-4.6584 -25.53384,-2.515 -5.00728,1.65255 -11.58444,8.7165 -11.58444,12.44184 0,1.13678 -1.565767,3.09281 -3.479497,4.34674 -5.11111,3.34893 -9.05161,13.17232 -8.22515,20.50472 0.37037,3.28584 1.56785,6.86871 2.66107,7.96194 1.75584,1.75584 2.09302,1.56797 2.89081,-1.61067 0.79994,-3.18723 1.31798,-3.47291 4.53415,-2.50047 1.997067,0.60384 6.156107,1.04267 9.242317,0.97518 5.4862,-0.11996 5.67532,0.0262 8.48402,6.55515 1.58,3.67281 4.64006,14.909813 6.80014,24.971123 4.82987,22.49682 8.4429,30.08795 20.22289,42.48922 8.99648,9.47095 9.19285,9.83014 9.23939,16.8996 0.0262,3.97263 0.8775,8.72235 1.8919,10.55493 1.32627,2.396 1.46035,4.0495 0.4773,5.88635 -1.22016,2.27989 -2.41958,2.46541 -11.16152,1.72645 -10.69399,-0.90397 -17.36359,0.62457 -19.41004,4.44842 -1.5801,2.95242 -0.20228,4.54084 2.20548,2.54258 2.12205,-1.76115 5.82526,0.63764 5.82526,3.77337 0,1.20399 0.62938,1.53568 1.67701,0.88379 0.92235,-0.57394 3.79003,-1.12417 6.37262,-1.22275 2.58259,-0.0986 7.10892,-1.11726 10.05852,-2.26373 2.9496,-1.14647 5.93848,-1.72878 6.64195,-1.294 0.73699,0.45549 0.59634,1.01805 -0.33189,1.32746 -0.88601,0.29533 -1.61093,1.26908 -1.61093,2.16388 0,1.86485 12.44146,1.97089 16.66757,0.14207 2.0877,-0.90345 2.40807,-0.68785 1.67701,1.12852 -0.49705,1.23493 -1.30691,3.24664 -1.7997,4.47047 -0.76719,1.90533 -0.24011,2.09396 3.66747,1.31245 2.50988,-0.50198 6.92776,-2.47733 9.8175,-4.38966 z m 162.89618,-8.13914 c 6.78207,-5.06356 8.98547,-9.43845 8.98547,-17.84089 0,-5.8886 -0.70625,-8.80032 -2.82345,-11.64066 -9.06408,-12.1599 -27.85936,-11.9506 -35.50495,0.39537 -3.55356,5.73824 -3.49163,17.12971 0.12544,23.06233 5.47509,8.98022 20.97701,12.17628 29.21753,6.02385 z m -25.37723,-45.54016 c 0.28547,-0.21696 -1.9713,-4.21678 -5.01504,-8.88849 -5.1749,-7.94274 -5.42893,-8.7725 -3.9143,-12.78521 l 1.61976,-4.29122 h 15.80512 15.80512 v -5.36641 -5.36642 h -15.394 -15.394 l -2.13579,-4.13018 c -2.10418,-4.06901 -2.05113,-4.26013 3.58224,-12.906563 5.54677,-8.51352 5.63985,-8.83478 3.10755,-10.72578 -6.58186,-4.91502 -6.77013,-4.85705 -13.11886,4.0399 -5.73141,8.031863 -6.26936,8.425283 -10.79733,7.896673 -5.86018,-0.68415 -15.1663,3.62516 -18.8767,8.74106 -3.90724,5.38733 -4.33479,17.26663 -0.82279,22.861 3.98239,6.34369 10.25174,9.69826 18.1979,9.73728 l 6.70803,0.0329 5.74887,8.75037 5.74887,8.75036 4.31316,-2.9774 c 2.37224,-1.63757 4.54673,-3.15491 4.83219,-3.37189 z m 67.29333,-13.47012 c 9.02081,-5.32657 12.48927,-19.49439 7.08012,-28.92052 -3.45907,-6.02788 -12.90082,-10.74742 -20.02423,-10.00929 -5.45006,0.56474 -5.56025,0.48729 -11.25491,-7.910303 -6.0353,-8.89997 -6.2353,-8.96541 -12.68371,-4.15004 -2.53286,1.89142 -2.4425,2.20725 3.03848,10.61976 5.61041,8.611213 5.6351,8.703553 3.61669,13.534273 -2.51878,6.02828 -2.58649,11.77647 -0.20503,17.40303 4.7548,11.2339 19.59342,15.83337 30.43259,9.43309 z M 346.96386,81.001677 c 10.29421,-4.88492 14.29382,-18.99111 8.28214,-29.21024 -10.83837,-18.4239 -38.61727,-10.80382 -38.61727,10.59318 0,16.05292 15.58392,25.61697 30.33513,18.61706 z"
     id="path2454" />
</svg>
