<svg width="26" height="26" viewBox="0 0 26 26" fill="none" xmlns="http://www.w3.org/2000/svg">
<path d="M10.0771 8.03335C10.3503 8.16248 10.6624 8.17725 10.9462 8.07448C11.23 7.97171 11.4627 7.75963 11.5943 7.48393C11.5943 7.48393 11.5943 7.41416 11.6371 7.37056L11.9114 6.59439C11.9874 6.36659 12.1316 6.16873 12.3238 6.0286C12.5159 5.88847 12.7464 5.81311 12.9829 5.81311C13.2193 5.81311 13.4498 5.88847 13.6419 6.0286C13.8341 6.16873 13.9783 6.36659 14.0543 6.59439L14.3286 7.37056C14.4313 7.65963 14.6419 7.89586 14.9146 8.02808C15.1874 8.16031 15.5003 8.17787 15.7857 8.07696L15.8886 8.03335L16.6257 7.67579C16.7602 7.61087 16.9059 7.57358 17.0546 7.56606C17.2033 7.55855 17.3519 7.58095 17.4921 7.63199C17.6322 7.68303 17.7611 7.7617 17.8713 7.8635C17.9815 7.96529 18.0709 8.08821 18.1343 8.22522C18.2061 8.38074 18.2434 8.55047 18.2434 8.72231C18.2434 8.89416 18.2061 9.06389 18.1343 9.21941L17.7914 9.96942C17.7263 10.1067 17.6886 10.2557 17.6805 10.4079C17.6724 10.5601 17.6941 10.7125 17.7443 10.8561C17.7946 10.9997 17.8723 11.1317 17.9731 11.2445C18.0739 11.3572 18.1957 11.4485 18.3314 11.513L18.4343 11.5566L19.2057 11.8357C19.3467 11.8855 19.4765 11.9633 19.5876 12.0647C19.6986 12.1661 19.7887 12.289 19.8525 12.4262C19.9164 12.5635 19.9527 12.7123 19.9594 12.8639C19.9661 13.0156 19.943 13.1671 19.8914 13.3096C19.8347 13.4725 19.743 13.6205 19.6229 13.7427C19.5027 13.8649 19.3573 13.9583 19.1971 14.016L18.4343 14.295C18.1508 14.3977 17.9187 14.6103 17.7887 14.8864C17.6586 15.1625 17.6411 15.4797 17.74 15.7689L17.7914 15.8823L18.1343 16.6323C18.1978 16.7696 18.234 16.9184 18.2408 17.07C18.2476 17.2217 18.2248 17.3732 18.1739 17.5158C18.1229 17.6585 18.0447 17.7895 17.9437 17.9013C17.8428 18.0131 17.7211 18.1034 17.5857 18.1672C17.436 18.2406 17.2719 18.2787 17.1057 18.2787C16.9395 18.2787 16.7754 18.2406 16.6257 18.1672L15.8886 17.8096C15.6154 17.6805 15.3033 17.6657 15.0195 17.7685C14.7357 17.8713 14.503 18.0833 14.3714 18.359C14.3714 18.359 14.3714 18.4288 14.3286 18.4724L14.0543 19.2486C13.9743 19.4724 13.8286 19.6657 13.637 19.8023C13.4453 19.939 13.2169 20.0123 12.9829 20.0123C12.7488 20.0123 12.5205 19.939 12.3288 19.8023C12.1371 19.6657 11.9914 19.4724 11.9114 19.2486L11.6371 18.4637C11.5362 18.1753 11.3273 17.9391 11.0559 17.8068C10.7846 17.6745 10.4728 17.6567 10.1886 17.7573L10.0771 17.8096L9.34 18.1585C9.1309 18.2459 8.90095 18.2682 8.67939 18.2224C8.45782 18.1766 8.25465 18.0648 8.0957 17.9012C7.93675 17.7376 7.8292 17.5296 7.78672 17.3036C7.74424 17.0777 7.76876 16.844 7.85715 16.6323L8.20858 15.8823C8.27373 15.745 8.31144 15.596 8.31952 15.4438C8.3276 15.2915 8.30589 15.1392 8.25566 14.9956C8.20542 14.852 8.12766 14.72 8.02688 14.6072C7.9261 14.4944 7.80431 14.4032 7.66858 14.3386L7.56572 14.295L6.79429 14.016C6.57433 13.9346 6.3843 13.7864 6.25002 13.5913C6.11573 13.3963 6.0437 13.164 6.0437 12.9258C6.0437 12.6877 6.11573 12.4554 6.25002 12.2603C6.3843 12.0653 6.57433 11.9171 6.79429 11.8357L7.55715 11.5566C7.69888 11.5078 7.82959 11.4305 7.94158 11.3295C8.05356 11.2285 8.14457 11.1057 8.20926 10.9684C8.27394 10.8311 8.31099 10.682 8.31824 10.5299C8.32548 10.3779 8.30277 10.2258 8.25143 10.0828C8.24241 10.0432 8.22799 10.005 8.20858 9.96942L7.85715 9.21941C7.73083 8.9404 7.71757 8.622 7.82023 8.33311C7.9229 8.04423 8.13323 7.80809 8.40572 7.67579C8.5571 7.60285 8.72251 7.56501 8.89 7.56501C9.0575 7.56501 9.22291 7.60285 9.37429 7.67579L10.0771 8.03335Z" stroke="#116149" stroke-linecap="round" stroke-linejoin="round"/>
<path d="M13.0001 10.2659C13.5172 10.2659 14.0226 10.4219 14.4526 10.7141C14.8825 11.0064 15.2176 11.4218 15.4154 11.9079C15.6133 12.3939 15.6651 12.9287 15.5642 13.4447C15.4633 13.9607 15.2143 14.4346 14.8487 14.8066C14.4831 15.1786 14.0173 15.4319 13.5102 15.5346C13.003 15.6372 12.4774 15.5845 11.9997 15.3832C11.522 15.1819 11.1137 14.841 10.8264 14.4035C10.5392 13.9661 10.3859 13.4519 10.3859 12.9258C10.3801 12.5749 10.4437 12.2263 10.573 11.9009C10.7024 11.5756 10.8947 11.28 11.1387 11.0318C11.3826 10.7836 11.6731 10.5879 11.9929 10.4563C12.3127 10.3247 12.6552 10.26 13.0001 10.2659Z" stroke="#116149" stroke-linecap="round" stroke-linejoin="round"/>
<path d="M24.9999 21.3068H21.1685V17.4085" stroke="#116149" stroke-linecap="round" stroke-linejoin="round"/>
<path d="M1 4.68451H4.83143V8.59152" stroke="#116149" stroke-linecap="round" stroke-linejoin="round"/>
<path d="M17.5429 24.08C15.0404 25.1385 12.2561 25.2885 9.65778 24.5048C7.05943 23.7211 4.8053 22.0514 3.27405 19.7763C1.74279 17.5013 1.02768 14.7593 1.24886 12.0111C1.47003 9.2629 2.61401 6.67584 4.48863 4.68451" stroke="#116149" stroke-linecap="round" stroke-linejoin="round"/>
<path d="M8.45703 1.91995C10.9595 0.86151 13.7438 0.711544 16.3422 1.49525C18.9405 2.27895 21.1946 3.94857 22.7259 6.22365C24.2571 8.49874 24.9723 11.2407 24.7511 13.9889C24.5299 16.7371 23.3859 19.3242 21.5113 21.3155" stroke="#116149" stroke-linecap="round" stroke-linejoin="round"/>
</svg>
