<svg width="28" height="29" viewBox="0 0 28 29" fill="none" xmlns="http://www.w3.org/2000/svg">
<g clip-path="url(#clip0_1351_59986)">
<path d="M21.4071 19.2155L5.67676 28.5347L26.0337 27.1688L27.6199 6.63563L21.4071 19.2155Z" fill="url(#paint0_linear_1351_59986)"/>
<path d="M26.0779 27.1467L24.3154 15.0736L19.5566 21.3746L26.0779 27.1467Z" fill="url(#paint1_linear_1351_59986)"/>
<path d="M26.0996 27.1468L13.2774 26.1333L5.74268 28.5127L26.0996 27.1468Z" fill="url(#paint2_linear_1351_59986)"/>
<path d="M5.76509 28.5127L8.98163 18.0257L1.93164 19.5459L5.76509 28.5127Z" fill="url(#paint3_linear_1351_59986)"/>
<path d="M19.5569 21.3967L16.6047 9.85228L8.18872 17.7615L19.5569 21.3967Z" fill="url(#paint4_linear_1351_59986)"/>
<path d="M26.937 10.0285L18.9617 3.50718L16.7585 10.6894L26.937 10.0285Z" fill="url(#paint5_linear_1351_59986)"/>
<path d="M23.2137 1.19392L18.521 3.77158L15.5688 1.14986L23.2137 1.19392Z" fill="url(#paint6_linear_1351_59986)"/>
<path d="M0.0810547 23.049L2.04184 19.4799L0.455589 15.2059L0.0810547 23.049Z" fill="url(#paint7_linear_1351_59986)"/>
<path d="M0.345215 15.0736L1.9535 19.6121L8.89334 18.0479L16.8246 10.6894L19.0718 3.57331L15.5468 1.08378L9.5543 3.33097C7.65958 5.09347 4.00241 8.55237 3.87022 8.61847C3.716 8.68457 1.44678 13.0027 0.345215 15.0736Z" fill="white"/>
<path d="M5.96338 6.92199C10.0612 2.86825 15.3267 0.466839 17.3536 2.51575C19.3804 4.56466 17.2214 9.52171 13.1456 13.5755C9.04777 17.6292 3.82634 20.1628 1.79947 18.1139C-0.205381 16.065 1.86556 10.9757 5.96338 6.92199Z" fill="url(#paint8_linear_1351_59986)"/>
<path d="M5.76514 28.5127L8.93765 17.9818L19.4906 21.3746C15.6792 24.9657 11.4492 27.984 5.76514 28.5127Z" fill="url(#paint9_linear_1351_59986)"/>
<path d="M16.825 10.6674L19.5348 21.3966C22.7293 18.0479 25.5934 14.4348 26.9814 9.98443L16.825 10.6674Z" fill="url(#paint10_linear_1351_59986)"/>
<path d="M26.9594 10.0285C28.0389 6.74581 28.3033 2.05317 23.192 1.19395L19.0061 3.50724L26.9594 10.0285Z" fill="url(#paint11_linear_1351_59986)"/>
<path d="M0.0810547 23.0049C0.235274 28.4025 4.13482 28.4906 5.78715 28.5347L1.95372 19.59L0.0810547 23.0049Z" fill="#9E1209"/>
<path d="M16.8469 10.6674C19.2924 12.1655 24.2275 15.2058 24.3376 15.2499C24.4918 15.338 26.4746 11.9232 26.9152 9.98443L16.8469 10.6674Z" fill="url(#paint12_radial_1351_59986)"/>
<path d="M8.93774 17.9818L13.1898 26.1774C15.7013 24.8115 17.6621 23.1591 19.4687 21.3746L8.93774 17.9818Z" fill="url(#paint13_radial_1351_59986)"/>
<path d="M1.93152 19.59L1.33667 26.7502C2.4823 28.2924 4.02449 28.4466 5.67685 28.3144C4.48715 25.3843 2.10777 19.4799 1.93152 19.59Z" fill="url(#paint14_linear_1351_59986)"/>
<path d="M18.9614 3.52927L27.3994 4.71896C26.9588 2.80224 25.5708 1.56849 23.2135 1.19395L18.9614 3.52927Z" fill="url(#paint15_linear_1351_59986)"/>
</g>
<defs>
<linearGradient id="paint0_linear_1351_59986" x1="24.267" y1="31.0423" x2="18.4574" y2="20.7852" gradientUnits="userSpaceOnUse">
<stop stop-color="#FB7655"/>
<stop offset="0.41" stop-color="#E42B1E"/>
<stop offset="0.99" stop-color="#990000"/>
<stop offset="1" stop-color="#990000"/>
</linearGradient>
<linearGradient id="paint1_linear_1351_59986" x1="27.161" y1="22.4257" x2="19.6738" y2="17.4014" gradientUnits="userSpaceOnUse">
<stop stop-color="#871101"/>
<stop offset="0.99" stop-color="#911209"/>
<stop offset="1" stop-color="#911209"/>
</linearGradient>
<linearGradient id="paint2_linear_1351_59986" x1="21.1702" y1="31.353" x2="13.6833" y2="26.3288" gradientUnits="userSpaceOnUse">
<stop stop-color="#871101"/>
<stop offset="0.99" stop-color="#911209"/>
<stop offset="1" stop-color="#911209"/>
</linearGradient>
<linearGradient id="paint3_linear_1351_59986" x1="5.45051" y1="18.7884" x2="6.61118" y2="26.3318" gradientUnits="userSpaceOnUse">
<stop stop-color="white"/>
<stop offset="0.23" stop-color="#E57252"/>
<stop offset="0.46" stop-color="#DE3B20"/>
<stop offset="0.99" stop-color="#A60003"/>
<stop offset="1" stop-color="#A60003"/>
</linearGradient>
<linearGradient id="paint4_linear_1351_59986" x1="13.4342" y1="11.7451" x2="13.8618" y2="19.4435" gradientUnits="userSpaceOnUse">
<stop stop-color="white"/>
<stop offset="0.23" stop-color="#E4714E"/>
<stop offset="0.56" stop-color="#BE1A0D"/>
<stop offset="0.99" stop-color="#A80D00"/>
<stop offset="1" stop-color="#A80D00"/>
</linearGradient>
<linearGradient id="paint5_linear_1351_59986" x1="20.5184" y1="4.62952" x2="21.7987" y2="10.147" gradientUnits="userSpaceOnUse">
<stop stop-color="white"/>
<stop offset="0.18" stop-color="#E46342"/>
<stop offset="0.4" stop-color="#C82410"/>
<stop offset="0.99" stop-color="#A80D00"/>
<stop offset="1" stop-color="#A80D00"/>
</linearGradient>
<linearGradient id="paint6_linear_1351_59986" x1="16.6089" y1="2.68643" x2="22.1258" y2="-0.0720206" gradientUnits="userSpaceOnUse">
<stop stop-color="white"/>
<stop offset="0.54" stop-color="#C81F11"/>
<stop offset="0.99" stop-color="#BF0905"/>
<stop offset="1" stop-color="#BF0905"/>
</linearGradient>
<linearGradient id="paint7_linear_1351_59986" x1="0.614388" y1="16.8657" x2="1.06848" y2="21.4119" gradientUnits="userSpaceOnUse">
<stop stop-color="white"/>
<stop offset="0.31" stop-color="#DE4024"/>
<stop offset="0.99" stop-color="#BF190B"/>
<stop offset="1" stop-color="#BF190B"/>
</linearGradient>
<linearGradient id="paint8_linear_1351_59986" x1="-2.50725" y1="22.6406" x2="18.8382" y2="0.69157" gradientUnits="userSpaceOnUse">
<stop stop-color="#BD0012"/>
<stop offset="0.07" stop-color="white"/>
<stop offset="0.17" stop-color="white"/>
<stop offset="0.27" stop-color="#C82F1C"/>
<stop offset="0.33" stop-color="#820C01"/>
<stop offset="0.46" stop-color="#A31601"/>
<stop offset="0.72" stop-color="#B31301"/>
<stop offset="0.99" stop-color="#E82609"/>
<stop offset="1" stop-color="#E82609"/>
</linearGradient>
<linearGradient id="paint9_linear_1351_59986" x1="13.8429" y1="24.8548" x2="7.41335" y2="23.268" gradientUnits="userSpaceOnUse">
<stop stop-color="#8C0C01"/>
<stop offset="0.54" stop-color="#990C00"/>
<stop offset="0.99" stop-color="#A80D0E"/>
<stop offset="1" stop-color="#A80D0E"/>
</linearGradient>
<linearGradient id="paint10_linear_1351_59986" x1="24.8862" y1="17.138" x2="19.1745" y2="12.0188" gradientUnits="userSpaceOnUse">
<stop stop-color="#7E110B"/>
<stop offset="0.99" stop-color="#9E0C00"/>
<stop offset="1" stop-color="#9E0C00"/>
</linearGradient>
<linearGradient id="paint11_linear_1351_59986" x1="26.9845" y1="7.74525" x2="24.1394" y2="4.70363" gradientUnits="userSpaceOnUse">
<stop stop-color="#79130D"/>
<stop offset="0.99" stop-color="#9E120B"/>
<stop offset="1" stop-color="#9E120B"/>
</linearGradient>
<radialGradient id="paint12_radial_1351_59986" cx="0" cy="0" r="1" gradientUnits="userSpaceOnUse" gradientTransform="translate(20.0638 12.1168) scale(6.99945)">
<stop stop-color="#A80D00"/>
<stop offset="0.99" stop-color="#7E0E08"/>
<stop offset="1" stop-color="#7E0E08"/>
</radialGradient>
<radialGradient id="paint13_radial_1351_59986" cx="0" cy="0" r="1" gradientUnits="userSpaceOnUse" gradientTransform="translate(10.3704 21.3408) scale(9.30484)">
<stop stop-color="#A30C00"/>
<stop offset="0.99" stop-color="#800E08"/>
<stop offset="1" stop-color="#800E08"/>
</radialGradient>
<linearGradient id="paint14_linear_1351_59986" x1="3.77893" y1="28.5109" x2="1.46029" y2="20.6446" gradientUnits="userSpaceOnUse">
<stop stop-color="#8B2114"/>
<stop offset="0.43" stop-color="#9E100A"/>
<stop offset="0.99" stop-color="#B3100C"/>
<stop offset="1" stop-color="#B3100C"/>
</linearGradient>
<linearGradient id="paint15_linear_1351_59986" x1="21.5658" y1="2.44405" x2="26.7638" y2="4.7385" gradientUnits="userSpaceOnUse">
<stop stop-color="#B31000"/>
<stop offset="0.44" stop-color="#910F08"/>
<stop offset="0.99" stop-color="#791C12"/>
<stop offset="1" stop-color="#791C12"/>
</linearGradient>
<clipPath id="clip0_1351_59986">
<rect width="28" height="28" fill="white" transform="translate(0 0.809265)"/>
</clipPath>
</defs>
</svg>
