<svg width="22" height="20" viewBox="0 0 22 20" fill="none" xmlns="http://www.w3.org/2000/svg">
<path d="M2.33571 19C1.98269 19 1.64403 18.8548 1.39374 18.5961C1.14345 18.3374 1.00189 17.9862 1 17.6194V2.48454C1 2.09081 1.15051 1.71321 1.41842 1.43481C1.68633 1.15641 2.04969 1 2.42857 1H19.5714C19.9503 1 20.3137 1.15641 20.5816 1.43481C20.8495 1.71321 21 2.09081 21 2.48454V17.508C21 17.9018 20.8495 18.2794 20.5816 18.5578C20.3137 18.8362 19.9503 18.9926 19.5714 18.9926L2.33571 19Z" stroke="#116149" stroke-linecap="round" stroke-linejoin="round"/>
<path d="M21 5.14929H1" stroke="#116149" stroke-linecap="round" stroke-linejoin="round"/>
<path d="M5 9L9 12L5 15" stroke="#116149" stroke-linecap="round" stroke-linejoin="round"/>
<path d="M11 15H16.15" stroke="#116149" stroke-linecap="round" stroke-linejoin="round"/>
</svg>
