<svg width="24" height="24" viewBox="0 0 24 24" fill="none" xmlns="http://www.w3.org/2000/svg">
<path d="M12.3328 10.6666C12.1661 10.6333 11.9995 10.5333 11.9995 10.3333V8.33329C11.9995 8.13329 11.8661 7.99996 11.6662 7.99996H9.66627C9.49963 7.99996 9.36629 8.13329 9.33296 8.33329C9.16631 9.66663 8.03295 10.6666 6.66644 10.6666C5.29994 10.6666 4.13325 9.63329 3.99993 8.33329C3.9666 8.16663 3.86659 7.99996 3.66661 7.99996H1.66673C1.46675 7.99996 1.33341 8.13329 1.33341 8.33329V18.3333C1.33341 18.5333 1.46675 18.6666 1.66673 18.6666H11.6662C11.8661 18.6666 11.9995 18.5333 11.9995 18.3333V16.3333C11.9995 16.1666 12.1328 16.0333 12.3328 16C13.666 15.8333 14.666 14.7 14.666 13.3333C14.6993 11.9666 13.6326 10.8 12.3328 10.6666Z" fill="#00ED64"/>
<path fill-rule="evenodd" clip-rule="evenodd" d="M17.3334 5.49996C16.0123 5.49996 14.9571 6.43955 14.8326 7.68324L14.8318 7.69136L14.8302 7.69936C14.8077 7.81174 14.7523 7.92344 14.672 8.00947C14.5916 8.09572 14.4752 8.16663 14.3334 8.16663H12.1667V10.3333C12.1667 10.3581 12.1791 10.3918 12.2178 10.4281C12.255 10.463 12.3069 10.49 12.3589 10.5017C13.7866 10.6476 14.8334 11.8628 14.8334 13.3333C14.8334 14.7737 13.7841 15.9851 12.3606 16.1645C12.308 16.176 12.2555 16.2032 12.2178 16.2385C12.1791 16.2748 12.1667 16.3085 12.1667 16.3333V18.5H22.3334C22.3952 18.5 22.4341 18.48 22.4571 18.4569C22.4802 18.4337 22.5001 18.3948 22.5001 18.3333V8.33329C22.5001 8.24125 22.4255 8.16663 22.3334 8.16663H20.3334C20.1916 8.16663 20.0752 8.09572 19.9948 8.00947C19.9145 7.92344 19.8592 7.81174 19.8367 7.69936L19.8355 7.69338L19.8347 7.68733C19.6783 6.43819 18.619 5.49996 17.3334 5.49996ZM11.8334 18.5V16.3333C11.8334 16.1922 11.9039 16.0759 11.9899 15.9952C12.0758 15.9148 12.1877 15.8589 12.3011 15.8365L12.307 15.8353L12.313 15.8346C13.5694 15.6792 14.5001 14.6112 14.5001 13.3333C14.5001 12.02 13.568 10.9562 12.317 10.8325L12.309 10.8317L12.3011 10.8301C12.1877 10.8077 12.0758 10.7518 11.9899 10.6713C11.9039 10.5907 11.8334 10.4744 11.8334 10.3333V8.16663H9.66675C9.64165 8.16663 9.60803 8.17905 9.57188 8.2178C9.53669 8.25553 9.50949 8.30826 9.49792 8.36085C9.31744 9.77495 8.11644 10.8333 6.66675 10.8333C5.1867 10.8333 3.98196 9.77746 3.83518 8.35909C3.8234 8.30708 3.79641 8.25511 3.76161 8.2178C3.72547 8.17905 3.69184 8.16663 3.66675 8.16663H1.66675C1.5747 8.16663 1.50008 8.24125 1.50008 8.33329V18.3333C1.50008 18.3948 1.51997 18.4337 1.54305 18.4569C1.56608 18.48 1.60495 18.5 1.66675 18.5H11.8334ZM14.5018 7.64083C14.6486 6.22246 15.8534 5.16663 17.3334 5.16663C18.7831 5.16663 19.9841 6.22497 20.1646 7.63908C20.1762 7.69167 20.2034 7.74439 20.2385 7.78211C20.2747 7.82087 20.3083 7.83329 20.3334 7.83329H22.3334C22.6096 7.83329 22.8334 8.05715 22.8334 8.33329V18.3333C22.8334 18.4709 22.7866 18.5986 22.693 18.6923C22.5994 18.7862 22.4716 18.8333 22.3334 18.8333H1.66675C1.52855 18.8333 1.40075 18.7862 1.30711 18.6923C1.21353 18.5986 1.16675 18.4709 1.16675 18.3333V8.33329C1.16675 8.05715 1.39061 7.83329 1.66675 7.83329H3.66675C3.80858 7.83329 3.92493 7.9042 4.00537 7.99045C4.08562 8.07648 4.14099 8.18818 4.1635 8.30056L4.1651 8.30856L4.16592 8.31668C4.29048 9.56037 5.34561 10.5 6.66675 10.5C7.95233 10.5 9.01165 9.56173 9.16804 8.31259L9.1688 8.30654L9.16999 8.30056C9.1925 8.18818 9.24788 8.07648 9.32812 7.99045C9.40857 7.9042 9.52492 7.83329 9.66675 7.83329H14.3334C14.3585 7.83329 14.3921 7.82087 14.4283 7.78211C14.4631 7.74481 14.4901 7.69283 14.5018 7.64083Z" fill="#001E2B"/>
</svg>
