<svg width="22" height="22" viewBox="0 0 22 22" fill="none" xmlns="http://www.w3.org/2000/svg">
<path d="M9 17C13.4183 17 17 13.4183 17 9C17 4.58172 13.4183 1 9 1C4.58172 1 1 4.58172 1 9C1 13.4183 4.58172 17 9 17Z" stroke="#116149" stroke-linecap="round" stroke-linejoin="round"/>
<path d="M14.6571 14.6571L21 21" stroke="#116149" stroke-linecap="round" stroke-linejoin="round"/>
<path d="M3.66432 9.67145C3.66338 9.4082 3.71442 9.14736 3.81451 8.90389C3.91459 8.66041 4.06176 8.43909 4.24758 8.25262C4.43339 8.06614 4.65418 7.91818 4.8973 7.81723C5.14042 7.71627 5.40107 7.6643 5.66432 7.66431H12.3358C12.8656 7.66619 13.3732 7.87751 13.7479 8.25217C14.1226 8.62684 14.3339 9.13445 14.3358 9.66431" stroke="#116149" stroke-linecap="round" stroke-linejoin="round"/>
<path d="M9 19.6643V21" stroke="#116149" stroke-linecap="round" stroke-linejoin="round"/>
<path d="M6.30713 21H11.6357" stroke="#116149" stroke-linecap="round" stroke-linejoin="round"/>
<path d="M9 7.66431V14.3357" stroke="#116149" stroke-linecap="round" stroke-linejoin="round"/>
</svg>
