<svg width="24" height="24" viewBox="0 0 24 24" fill="none" xmlns="http://www.w3.org/2000/svg">
<path d="M6.12099 14.9859C6.12099 15.8779 6.2318 16.7537 6.49036 17.5715C7.30297 17.8316 8.18946 17.9408 9.07595 17.9408C13.9886 17.9408 17.9408 14.0195 17.9408 9.07595C17.9408 8.18389 17.83 7.30808 17.5715 6.49036C16.7588 6.23017 15.8724 6.12099 14.9859 6.12099C10.0732 6.12099 6.12099 10.0424 6.12099 14.9859Z" fill="#00ED64"/>
<path fill-rule="evenodd" clip-rule="evenodd" d="M6.36234 17.7393C2.6754 16.5856 0 13.1432 0 9.07595C0 4.06344 4.06344 0 9.07595 0C13.1432 0 16.5856 2.67539 17.7393 6.36234C17.7539 6.38147 17.7653 6.40318 17.7727 6.42673C18.039 7.26898 18.1519 8.16687 18.1519 9.07595C18.1519 11.5263 17.203 13.7317 15.6532 15.3547L24 23.7015L23.7015 24L15.3546 15.6531C13.7268 17.2057 11.517 18.1519 9.07595 18.1519C8.17303 18.1519 7.26401 18.0408 6.426 17.7725C6.40273 17.765 6.38127 17.7537 6.36234 17.7393ZM0.422137 9.07595C0.422137 4.29658 4.29658 0.422137 9.07595 0.422137C12.837 0.422137 16.0377 2.82149 17.2309 6.17306C16.5088 5.9885 15.7452 5.90992 14.9859 5.90992C9.95716 5.90992 5.90992 9.92531 5.90992 14.9859C5.90992 15.7511 5.9899 16.5084 6.17404 17.2312C2.82197 16.0383 0.422137 12.8374 0.422137 9.07595ZM9.07595 17.7298C8.23541 17.7298 7.42287 17.6099 6.65446 17.3864C6.43003 16.6278 6.33206 15.8164 6.33206 14.9859C6.33206 10.1594 10.1893 6.33206 14.9859 6.33206C15.8116 6.33206 16.6319 6.42868 17.3863 6.654C17.6099 7.42254 17.7298 8.23525 17.7298 9.07595C17.7298 13.8553 13.8553 17.7298 9.07595 17.7298Z" fill="#001E2B"/>
</svg>
