<svg width="32" height="32" viewBox="0 0 32 32" fill="none" xmlns="http://www.w3.org/2000/svg">
<path d="M24.8889 17.7773C25.6253 17.7773 26.2222 17.1804 26.2222 16.444C26.2222 15.7076 25.6253 15.1107 24.8889 15.1107C24.1525 15.1107 23.5556 15.7076 23.5556 16.444C23.5556 17.1804 24.1525 17.7773 24.8889 17.7773Z" fill="#00ED64"/>
<path d="M16.4 8.1329C15.9556 7.95512 15.2 7.95512 14.7111 8.1329L5.77778 11.5551L14.7111 14.9773C15.1556 15.1551 15.9111 15.1551 16.4 14.9773L25.3333 11.5551L16.4 8.1329Z" fill="#00ED64"/>
<path fill-rule="evenodd" clip-rule="evenodd" d="M11.3333 19.9996H10.8889V13.7511L5.69828 11.7626C5.61232 11.7297 5.55556 11.6472 5.55556 11.5551C5.55556 11.4631 5.61232 11.3805 5.69828 11.3476L14.6352 7.92403C14.9102 7.824 15.2484 7.77734 15.5722 7.77734C15.8943 7.77734 16.224 7.82353 16.481 7.92594L16.4825 7.92657L25.4128 11.3476C25.4988 11.3805 25.5556 11.4631 25.5556 11.5551C25.5556 11.6472 25.4988 11.7297 25.4128 11.7626L25.1111 11.8782V14.9042C25.865 15.012 26.4444 15.6603 26.4444 16.444C26.4444 17.3031 25.748 17.9996 24.8889 17.9996C24.0298 17.9996 23.3333 17.3031 23.3333 16.444C23.3333 15.6604 23.9128 15.012 24.6667 14.9042V12.0485L20.2222 13.7511V19.9996H19.7778C19.7778 18.8983 18.9025 18.0309 17.7778 18.0309C16.6531 18.0309 15.7778 18.8983 15.7778 19.9996H15.3333C15.3333 18.8983 14.458 18.0309 13.3333 18.0309C12.2086 18.0309 11.3333 18.8983 11.3333 19.9996ZM19.7778 13.9213L16.476 15.1862C16.2009 15.2862 15.8627 15.3329 15.5389 15.3329C15.2168 15.3329 14.887 15.2867 14.6301 15.1843L11.3333 13.9213V18.5976C11.7733 17.9818 12.5004 17.5864 13.3333 17.5864C14.3278 17.5864 15.1713 18.15 15.5556 18.9794C15.9398 18.15 16.7833 17.5864 17.7778 17.5864C18.6107 17.5864 19.3378 17.9818 19.7778 18.5976V13.9213ZM24.6667 11.5725L16.3223 14.7691C16.1087 14.8465 15.8254 14.8885 15.5389 14.8885C15.2505 14.8885 14.981 14.8459 14.7937 14.771L6.39897 11.5551L14.7888 8.34112C15.0024 8.26377 15.2857 8.22179 15.5722 8.22179C15.8606 8.22179 16.1301 8.26432 16.3175 8.33925L24.7121 11.5551H24.6667V11.5725ZM24.8889 15.3329C24.2752 15.3329 23.7778 15.8304 23.7778 16.444C23.7778 17.0577 24.2752 17.5551 24.8889 17.5551C25.5025 17.5551 26 17.0577 26 16.444C26 15.8304 25.5025 15.3329 24.8889 15.3329Z" fill="#001E2B"/>
<path fill-rule="evenodd" clip-rule="evenodd" d="M1.55556 4.88845C1.55556 4.27684 2.05505 3.77734 2.66667 3.77734H29.3333C29.945 3.77734 30.4444 4.27684 30.4444 4.88845V22.6662C30.4444 23.2779 29.945 23.7773 29.3333 23.7773H19.542L20.6202 27.0881C20.7098 27.371 20.669 27.6585 20.5037 27.8778C20.3384 28.0972 20.0686 28.2218 19.7518 28.2218H12.2482C11.9403 28.2218 11.6682 28.1144 11.4986 27.8975C11.328 27.6792 11.2928 27.3901 11.3781 27.0937L11.3792 27.09L12.458 23.7773H2.66667C2.05505 23.7773 1.55556 23.2779 1.55556 22.6662V4.88845ZM2.66667 4.22179C2.30051 4.22179 2 4.5223 2 4.88845V22.6662C2 23.0324 2.30051 23.3329 2.66667 23.3329H29.3333C29.6995 23.3329 30 23.0324 30 22.6662V4.88845C30 4.5223 29.6995 4.22179 29.3333 4.22179H2.66667ZM12.9254 23.7773L11.8042 27.2201C11.7503 27.4106 11.7854 27.5427 11.8488 27.6238C11.9138 27.7069 12.0403 27.7773 12.2482 27.7773H19.7518C19.9508 27.7773 20.0797 27.702 20.1488 27.6103C20.2179 27.5186 20.2475 27.3842 20.1968 27.2231L20.1965 27.2222L19.0746 23.7773H12.9254Z" fill="#001E2B"/>
</svg>
