<svg width="66" height="56" viewBox="0 0 66 56" fill="none" xmlns="http://www.w3.org/2000/svg">
<path d="M25.7192 45L23.0812 53.1C22.7647 54.2 23.3978 55 24.5585 55H41.4415C42.6022 55 43.2353 54.1 42.9188 53.1L40.2808 45M63 45H3C1.9 45 1 44.1 1 43V3C1 1.9 1.9 1 3 1H63C64.1 1 65 1.9 65 3V43C65 44.1 64.1 45 63 45Z" stroke="#001E2B" stroke-miterlimit="10"/>
<path d="M42 22.5986V37C42 34.2394 39.8 32.0704 37 32.0704C34.2 32.0704 32 34.2394 32 37C32 34.2394 29.8 32.0704 27 32.0704C24.2 32.0704 22 34.2394 22 37V22.5" stroke="#001E2B" stroke-miterlimit="10"/>
<path d="M53 18V26" stroke="#001E2B" stroke-miterlimit="10"/>
<path d="M53 32C54.6569 32 56 30.6569 56 29C56 27.3431 54.6569 26 53 26C51.3431 26 50 27.3431 50 29C50 30.6569 51.3431 32 53 32Z" fill="#00ED64" stroke="#001E2B" stroke-miterlimit="10" stroke-linecap="round" stroke-linejoin="round"/>
<path d="M33.9 10.3C32.9 9.9 31.2 9.9 30.1 10.3L10 18L30.1 25.7C31.1 26.1 32.8 26.1 33.9 25.7L54 18L33.9 10.3Z" fill="#00ED64" stroke="#001E2B" stroke-miterlimit="10" stroke-linecap="round" stroke-linejoin="round"/>
</svg>
