<svg width="22" height="22" viewBox="0 0 22 22" fill="none" xmlns="http://www.w3.org/2000/svg">
<path d="M4.44085 20.3998C4.06285 20.7802 3.55017 20.9939 3.0156 20.9939C2.48103 20.9939 1.96835 20.7802 1.59036 20.3998C1.21236 20.0194 1 19.5034 1 18.9654C1 18.4274 1.21236 17.9115 1.59036 17.5311L7.23433 11.851L10.0848 14.7197L4.44085 20.3998Z" stroke="#116149" stroke-linecap="round" stroke-linejoin="round"/>
<path d="M16.6695 5.26006L8.67383 13.3068" stroke="#116149" stroke-linecap="round" stroke-linejoin="round"/>
<path d="M18.5436 5.26007C18.42 5.38391 18.2735 5.48206 18.1123 5.54891C17.951 5.61576 17.7783 5.64999 17.6039 5.64966C17.4296 5.64933 17.257 5.61443 17.096 5.54697C16.9351 5.47951 16.7889 5.3808 16.6658 5.25648C16.5427 5.13216 16.4452 4.98466 16.3788 4.82241C16.3124 4.66016 16.2784 4.48633 16.2787 4.31085C16.279 4.13537 16.3137 3.96167 16.3807 3.79967C16.4478 3.63768 16.5458 3.49055 16.6694 3.3667L19.021 1L20.8952 2.89336L18.5436 5.26007Z" stroke="#116149" stroke-linecap="round" stroke-linejoin="round"/>
<path d="M9.67151 7.71196L7.64053 5.66081C7.8808 5.05805 7.94136 4.3979 7.8148 3.76106C7.68824 3.12422 7.38005 2.53829 6.92791 2.0749C6.39191 1.54143 5.68991 1.20971 4.93969 1.13539C5.25987 1.64721 5.39775 2.25332 5.33072 2.85434C5.2637 3.45537 4.99575 4.01564 4.57081 4.4433C4.14587 4.87096 3.58916 5.14062 2.99196 5.20807C2.39475 5.27552 1.7925 5.13676 1.28394 4.81454C1.3372 5.32403 1.50688 5.81421 1.7797 6.24672C2.05252 6.67923 2.42108 7.04235 2.85655 7.30766C3.29201 7.57298 3.78257 7.73329 4.28984 7.77605C4.79711 7.81882 5.30733 7.74288 5.78059 7.55418L7.20583 8.98854" stroke="#116149" stroke-linecap="round" stroke-linejoin="round"/>
<path d="M12.9923 14.8416L14.5743 16.4266C14.2949 17.1429 14.269 17.9342 14.5011 18.6674C14.7332 19.4007 15.2091 20.0311 15.8488 20.4527C16.4885 20.8743 17.2529 21.0613 18.0136 20.9823C18.7742 20.9033 19.4846 20.5632 20.0252 20.019C20.5659 19.4749 20.9039 18.76 20.9824 17.9945C21.0609 17.229 20.875 16.4597 20.4561 15.8159C20.0372 15.1721 19.4108 14.6932 18.6822 14.4596C17.9537 14.226 17.1674 14.252 16.4557 14.5333L14.218 12.2885" stroke="#116149" stroke-linecap="round" stroke-linejoin="round"/>
<path d="M17.4249 17.4091C17.4723 17.3633 17.5317 17.3322 17.5962 17.3195C17.6606 17.3068 17.7273 17.313 17.7884 17.3374C17.8505 17.3612 17.904 17.4034 17.9418 17.4585C17.9795 17.5136 17.9997 17.5789 17.9997 17.6458C17.9997 17.7127 17.9795 17.7781 17.9418 17.8331C17.904 17.8882 17.8505 17.9304 17.7884 17.9542C17.7273 17.9786 17.6606 17.9848 17.5962 17.9721C17.5317 17.9594 17.4723 17.9283 17.4249 17.8825C17.3631 17.8194 17.3285 17.7344 17.3285 17.6458C17.3285 17.5572 17.3631 17.4722 17.4249 17.4091" stroke="#116149" stroke-linecap="round" stroke-linejoin="round"/>
</svg>
