<svg xmlns="http://www.w3.org/2000/svg" height="300" width="582"><path d="M-1-1h584v302H-1z" fill="#fff"/><path d="M10.5 54h565v216h-565z" fill="#fff" stroke="#000" stroke-width="4"/><path d="M33.4 73.6h272v123.2l-136 30.8-136-30.8V73.6z" stroke-opacity="null" fill="#eaedea" stroke="#000" stroke-width="1.5"/><path d="M40.5 100h68v19h-68z" fill="#00bf00" stroke="#000" stroke-width="1.5"/><path d="M53.3 106.7h1v1l.7-.8q.5-.3 1.2-.3t1.2.4l.5.6q.3-.5.8-.8l1-.2q1.3 0 1.8.9.2.5.2 1.3v4.2h-1v-4.4q0-.6-.4-.8-.3-.3-.8-.3-.6 0-1 .5-.5.4-.5 1.3v3.7h-1v-4.1q0-.6-.2-1t-.9-.4q-.6 0-1 .5-.6.5-.6 1.7v3.3h-1v-6.3zm12.4 5.6q1.1 0 1.5-.8.4-.8.4-1.7 0-1-.3-1.5-.5-.8-1.5-.8t-1.4.7q-.5.7-.5 1.8 0 1 .5 1.7.4.6 1.3.6zm0-5.8q1.3 0 2.1.9.9.8.9 2.3 0 1.5-.8 2.5-.7 1-2.3 1-1.2 0-2-.8-.8-1-.8-2.4 0-1.6.8-2.5.8-1 2.2-1zm0 0zm4.3.2h1v1q.4-.6.9-.9l1-.2q1.4 0 1.9 1 .3.4.3 1.4v4H74v-4q0-.5-.2-.9-.3-.6-1-.6l-.6.1q-.5.1-.8.5l-.3.7-.1 1v3.2h-1v-6.3zm2.4-.1zm6.4 0q.8 0 1.3.4l.6.6v-.8h1v5.7q0 1.2-.3 1.9-.7 1.3-2.5 1.3-1 0-1.7-.5t-.8-1.4h1q.1.4.4.6.3.4 1.1.4 1.2 0 1.6-.9.2-.5.2-1.8-.3.5-.8.7-.4.3-1.2.3-1 0-1.7-.7-.8-.8-.8-2.4 0-1.6.8-2.5.7-.9 1.8-.9zm2 3.2q0-1.1-.5-1.7-.5-.6-1.3-.6-1 0-1.5 1-.2.6-.2 1.5 0 1.1.4 1.7.4.5 1.2.5 1.1 0 1.6-1 .2-.6.2-1.4zm-1.8-3.2zm6.8 5.7q1 0 1.4-.8.4-.8.4-1.7 0-1-.3-1.5-.4-.8-1.5-.8-1 0-1.4.7-.4.7-.4 1.8 0 1 .4 1.7.4.6 1.4.6zm0-5.8q1.2 0 2 .9 1 .8 1 2.3 0 1.5-.8 2.5t-2.3 1q-1.3 0-2-.8-.8-1-.8-2.4 0-1.6.8-2.5.8-1 2.1-1zm0 0zm4.8 3.5q0 1 .5 1.6.4.7 1.3.7.8 0 1.2-.6.5-.7.5-1.8 0-1.2-.5-1.8-.5-.6-1.2-.6-.8 0-1.3.6-.5.7-.5 1.8zm1.6-3.4q.8 0 1.2.3l.7.6v-3.1h1v8.6h-1v-.9q-.3.6-.8.9-.5.2-1.2.2-1 0-1.8-.9-.8-.8-.8-2.3 0-1.4.7-2.4t2-1z" font-size="12" font-family="Helvetica,Arial,sans-serif" fill="#fff"/><path d="M53.5 124h68v19h-68z" fill="#00bf00" stroke="#000" stroke-width="1.5"/><path d="M66.3 130.7h1v1l.7-.8q.5-.3 1.2-.3t1.2.4l.5.6q.3-.5.8-.8l1-.2q1.3 0 1.8.9.2.5.2 1.3v4.2h-1v-4.4q0-.6-.4-.8-.3-.3-.8-.3-.6 0-1 .5-.5.4-.5 1.3v3.7h-1v-4.1q0-.6-.2-1t-.9-.4q-.6 0-1 .5-.6.5-.6 1.7v3.3h-1v-6.3zm12.4 5.6q1.1 0 1.5-.8.4-.8.4-1.7 0-1-.3-1.5-.5-.8-1.5-.8t-1.4.7q-.5.7-.5 1.8 0 1 .5 1.7.4.6 1.3.6zm0-5.8q1.3 0 2.1.9.9.8.9 2.3 0 1.5-.8 2.5-.7 1-2.3 1-1.2 0-2-.8-.8-1-.8-2.4 0-1.6.8-2.5.8-1 2.2-1zm0 0zm4.3.2h1v1q.4-.6.9-.9l1-.2q1.4 0 1.9 1 .3.4.3 1.4v4H87v-4q0-.5-.2-.9-.3-.6-1-.6l-.6.1q-.5.1-.8.5l-.3.7-.1 1v3.2h-1v-6.3zm2.4-.1zm6.4 0q.8 0 1.3.4l.6.6v-.8h1v5.7q0 1.2-.3 1.9-.7 1.3-2.5 1.3-1 0-1.7-.5t-.8-1.4h1q.1.4.4.6.3.4 1.1.4 1.2 0 1.6-.9.2-.5.2-1.8-.3.5-.8.7-.4.3-1.2.3-1 0-1.7-.7-.8-.8-.8-2.4 0-1.6.8-2.5.7-.9 1.8-.9zm2 3.2q0-1.1-.5-1.7-.5-.6-1.3-.6-1 0-1.5 1-.2.6-.2 1.5 0 1.1.4 1.7.4.5 1.2.5 1.1 0 1.6-1 .2-.6.2-1.4zm-1.8-3.2zm6.8 5.7q1 0 1.4-.8.4-.8.4-1.7 0-1-.3-1.5-.4-.8-1.5-.8-1 0-1.4.7-.4.7-.4 1.8 0 1 .4 1.7.4.6 1.4.6zm0-5.8q1.2 0 2 .9 1 .8 1 2.3 0 1.5-.8 2.5t-2.3 1q-1.3 0-2-.8-.8-1-.8-2.4 0-1.6.8-2.5.8-1 2.1-1zm0 0zm4.8 3.5q0 1 .5 1.6.4.7 1.3.7.8 0 1.2-.6.5-.7.5-1.8 0-1.2-.5-1.8-.5-.6-1.2-.6-.8 0-1.3.6-.5.7-.5 1.8zm1.6-3.4q.8 0 1.2.3l.7.6v-3.1h1v8.6h-1v-.9q-.3.6-.8.9-.5.2-1.2.2-1 0-1.8-.9-.8-.8-.8-2.3 0-1.4.7-2.4t2-1z" font-size="12" font-family="Helvetica,Arial,sans-serif" fill="#fff"/><path d="M40.5 148h68v19h-68z" fill="#00bf00" stroke="#000" stroke-width="1.5"/><path d="M53.3 155.7h1v1l.7-.8q.5-.3 1.2-.3t1.2.4l.5.6q.3-.5.8-.8l1-.2q1.3 0 1.8.9.2.5.2 1.3v4.2h-1v-4.4q0-.6-.4-.8-.3-.3-.8-.3-.6 0-1 .5-.5.4-.5 1.3v3.7h-1v-4.1q0-.6-.2-1t-.9-.4q-.6 0-1 .5-.6.5-.6 1.7v3.3h-1v-6.3zm12.4 5.6q1.1 0 1.5-.8.4-.8.4-1.7 0-1-.3-1.5-.5-.8-1.5-.8t-1.4.7q-.5.7-.5 1.8 0 1 .5 1.7.4.6 1.3.6zm0-5.8q1.3 0 2.1.9.9.8.9 2.3 0 1.5-.8 2.5-.7 1-2.3 1-1.2 0-2-.8-.8-1-.8-2.4 0-1.6.8-2.5.8-1 2.2-1zm0 0zm4.3.2h1v1q.4-.6.9-.9l1-.2q1.4 0 1.9 1 .3.4.3 1.4v4H74v-4q0-.5-.2-.9-.3-.6-1-.6l-.6.1q-.5.1-.8.5l-.3.7-.1 1v3.2h-1v-6.3zm2.4-.1zm6.4 0q.8 0 1.3.4l.6.6v-.8h1v5.7q0 1.2-.3 1.9-.7 1.3-2.5 1.3-1 0-1.7-.5t-.8-1.4h1q.1.4.4.6.3.4 1.1.4 1.2 0 1.6-.9.2-.5.2-1.8-.3.5-.8.7-.4.3-1.2.3-1 0-1.7-.7-.8-.8-.8-2.4 0-1.6.8-2.5.7-.9 1.8-.9zm2 3.2q0-1.1-.5-1.7-.5-.6-1.3-.6-1 0-1.5 1-.2.6-.2 1.5 0 1.1.4 1.7.4.5 1.2.5 1.1 0 1.6-1 .2-.6.2-1.4zm-1.8-3.2zm6.8 5.7q1 0 1.4-.8.4-.8.4-1.7 0-1-.3-1.5-.4-.8-1.5-.8-1 0-1.4.7-.4.7-.4 1.8 0 1 .4 1.7.4.6 1.4.6zm0-5.8q1.2 0 2 .9 1 .8 1 2.3 0 1.5-.8 2.5t-2.3 1q-1.3 0-2-.8-.8-1-.8-2.4 0-1.6.8-2.5.8-1 2.1-1zm0 0zm4.8 3.5q0 1 .5 1.6.4.7 1.3.7.8 0 1.2-.6.5-.7.5-1.8 0-1.2-.5-1.8-.5-.6-1.2-.6-.8 0-1.3.6-.5.7-.5 1.8zm1.6-3.4q.8 0 1.2.3l.7.6v-3.1h1v8.6h-1v-.9q-.3.6-.8.9-.5.2-1.2.2-1 0-1.8-.9-.8-.8-.8-2.3 0-1.4.7-2.4t2-1z" font-size="12" font-family="Helvetica,Arial,sans-serif" fill="#fff"/><path d="M130.5 100h68v19h-68z" fill="#00bf00" stroke="#000" stroke-width="1.5"/><path d="M143.3 106.7h1v1l.7-.8q.5-.3 1.2-.3t1.2.4l.5.6q.3-.5.8-.8l1-.2q1.3 0 1.8.9.2.5.2 1.3v4.2h-1v-4.4q0-.6-.4-.8-.3-.3-.8-.3-.6 0-1 .5-.5.4-.5 1.3v3.7h-1v-4.1q0-.6-.2-1t-.9-.4q-.6 0-1 .5-.6.5-.6 1.7v3.3h-1v-6.3zm12.4 5.6q1.1 0 1.5-.8.4-.8.4-1.7 0-1-.3-1.5-.5-.8-1.5-.8t-1.4.7q-.5.7-.5 1.8 0 1 .5 1.7.4.6 1.3.6zm0-5.8q1.3 0 2.1.9.9.8.9 2.3 0 1.5-.8 2.5-.7 1-2.3 1-1.2 0-2-.8-.8-1-.8-2.4 0-1.6.8-2.5.8-1 2.2-1zm0 0zm4.3.2h1v1q.4-.6.9-.9l1-.2q1.4 0 1.9 1 .3.4.3 1.4v4H164v-4q0-.5-.2-.9-.3-.6-1-.6l-.6.1q-.5.1-.8.5l-.3.7-.1 1v3.2h-1v-6.3zm2.4-.1zm6.4 0q.8 0 1.3.4l.6.6v-.8h1v5.7q0 1.2-.3 1.9-.7 1.3-2.5 1.3-1 0-1.7-.5t-.8-1.4h1q.1.4.4.6.3.4 1.1.4 1.2 0 1.6-.9.2-.5.2-1.8-.3.5-.8.7-.4.3-1.2.3-1 0-1.7-.7-.8-.8-.8-2.4 0-1.6.8-2.5.7-.9 1.8-.9zm2 3.2q0-1.1-.6-1.7-.4-.6-1.2-.6-1 0-1.5 1-.2.6-.2 1.5 0 1.1.4 1.7.4.5 1.2.5 1.1 0 1.6-1 .2-.6.2-1.4zm-1.8-3.2zm6.8 5.7q1 0 1.4-.8.4-.8.4-1.7 0-1-.3-1.5-.4-.8-1.5-.8-1 0-1.4.7-.4.7-.4 1.8 0 1 .4 1.7.4.6 1.4.6zm0-5.8q1.2 0 2 .9 1 .8 1 2.3 0 1.5-.8 2.5t-2.3 1q-1.3 0-2-.8-.8-1-.8-2.4 0-1.6.8-2.5.8-1 2.1-1zm0 0zm4.8 3.5q0 1 .5 1.6.4.7 1.3.7.8 0 1.2-.6.5-.7.5-1.8 0-1.2-.5-1.8-.5-.6-1.2-.6-.8 0-1.3.6-.5.7-.5 1.8zm1.6-3.4q.8 0 1.2.3l.7.6v-3.1h1v8.6h-1v-.9q-.3.6-.8.9-.5.2-1.2.2-1 0-1.8-.9-.8-.8-.8-2.3 0-1.4.7-2.4t2-1z" font-size="12" font-family="Helvetica,Arial,sans-serif" fill="#fff"/><path d="M143.5 124h68v19h-68z" fill="#00bf00" stroke="#000" stroke-width="1.5"/><path d="M156.3 130.7h1v1l.7-.8q.5-.3 1.2-.3t1.2.4l.5.6q.3-.5.8-.8l1-.2q1.3 0 1.8.9.2.5.2 1.3v4.2h-1v-4.4q0-.6-.4-.8-.3-.3-.8-.3-.6 0-1 .5-.5.4-.5 1.3v3.7h-1v-4.1q0-.6-.2-1t-.9-.4q-.6 0-1 .5-.6.5-.6 1.7v3.3h-1v-6.3zm12.4 5.6q1.1 0 1.5-.8.4-.8.4-1.7 0-1-.3-1.5-.5-.8-1.5-.8t-1.4.7q-.5.7-.5 1.8 0 1 .5 1.7.4.6 1.3.6zm0-5.8q1.3 0 2.1.9.9.8.9 2.3 0 1.5-.8 2.5-.7 1-2.3 1-1.2 0-2-.8-.8-1-.8-2.4 0-1.6.8-2.5.8-1 2.2-1zm0 0zm4.3.2h1v1q.4-.6.9-.9l1-.2q1.4 0 1.9 1 .3.4.3 1.4v4H177v-4q0-.5-.2-.9-.3-.6-1-.6l-.6.1q-.5.1-.8.5l-.3.7-.1 1v3.2h-1v-6.3zm2.4-.1zm6.4 0q.8 0 1.3.4l.6.6v-.8h1v5.7q0 1.2-.3 1.9-.7 1.3-2.5 1.3-1 0-1.7-.5t-.8-1.4h1q.1.4.4.6.3.4 1.1.4 1.2 0 1.6-.9.2-.5.2-1.8-.3.5-.8.7-.4.3-1.2.3-1 0-1.7-.7-.8-.8-.8-2.4 0-1.6.8-2.5.7-.9 1.8-.9zm2 3.2q0-1.1-.6-1.7-.4-.6-1.2-.6-1 0-1.5 1-.2.6-.2 1.5 0 1.1.4 1.7.4.5 1.2.5 1.1 0 1.6-1 .2-.6.2-1.4zm-1.8-3.2zm6.8 5.7q1 0 1.4-.8.4-.8.4-1.7 0-1-.3-1.5-.4-.8-1.5-.8-1 0-1.4.7-.4.7-.4 1.8 0 1 .4 1.7.4.6 1.4.6zm0-5.8q1.2 0 2 .9 1 .8 1 2.3 0 1.5-.8 2.5t-2.3 1q-1.3 0-2-.8-.8-1-.8-2.4 0-1.6.8-2.5.8-1 2.1-1zm0 0zm4.8 3.5q0 1 .5 1.6.4.7 1.3.7.8 0 1.2-.6.5-.7.5-1.8 0-1.2-.5-1.8-.5-.6-1.2-.6-.8 0-1.3.6-.5.7-.5 1.8zm1.6-3.4q.8 0 1.2.3l.7.6v-3.1h1v8.6h-1v-.9q-.3.6-.8.9-.5.2-1.2.2-1 0-1.8-.9-.8-.8-.8-2.3 0-1.4.7-2.4t2-1z" font-size="12" font-family="Helvetica,Arial,sans-serif" fill="#fff"/><path d="M130.5 148h68v19h-68z" fill="#00bf00" stroke="#000" stroke-width="1.5"/><path d="M143.3 155.7h1v1l.7-.8q.5-.3 1.2-.3t1.2.4l.5.6q.3-.5.8-.8l1-.2q1.3 0 1.8.9.2.5.2 1.3v4.2h-1v-4.4q0-.6-.4-.8-.3-.3-.8-.3-.6 0-1 .5-.5.4-.5 1.3v3.7h-1v-4.1q0-.6-.2-1t-.9-.4q-.6 0-1 .5-.6.5-.6 1.7v3.3h-1v-6.3zm12.4 5.6q1.1 0 1.5-.8.4-.8.4-1.7 0-1-.3-1.5-.5-.8-1.5-.8t-1.4.7q-.5.7-.5 1.8 0 1 .5 1.7.4.6 1.3.6zm0-5.8q1.3 0 2.1.9.9.8.9 2.3 0 1.5-.8 2.5-.7 1-2.3 1-1.2 0-2-.8-.8-1-.8-2.4 0-1.6.8-2.5.8-1 2.2-1zm0 0zm4.3.2h1v1q.4-.6.9-.9l1-.2q1.4 0 1.9 1 .3.4.3 1.4v4H164v-4q0-.5-.2-.9-.3-.6-1-.6l-.6.1q-.5.1-.8.5l-.3.7-.1 1v3.2h-1v-6.3zm2.4-.1zm6.4 0q.8 0 1.3.4l.6.6v-.8h1v5.7q0 1.2-.3 1.9-.7 1.3-2.5 1.3-1 0-1.7-.5t-.8-1.4h1q.1.4.4.6.3.4 1.1.4 1.2 0 1.6-.9.2-.5.2-1.8-.3.5-.8.7-.4.3-1.2.3-1 0-1.7-.7-.8-.8-.8-2.4 0-1.6.8-2.5.7-.9 1.8-.9zm2 3.2q0-1.1-.6-1.7-.4-.6-1.2-.6-1 0-1.5 1-.2.6-.2 1.5 0 1.1.4 1.7.4.5 1.2.5 1.1 0 1.6-1 .2-.6.2-1.4zm-1.8-3.2zm6.8 5.7q1 0 1.4-.8.4-.8.4-1.7 0-1-.3-1.5-.4-.8-1.5-.8-1 0-1.4.7-.4.7-.4 1.8 0 1 .4 1.7.4.6 1.4.6zm0-5.8q1.2 0 2 .9 1 .8 1 2.3 0 1.5-.8 2.5t-2.3 1q-1.3 0-2-.8-.8-1-.8-2.4 0-1.6.8-2.5.8-1 2.1-1zm0 0zm4.8 3.5q0 1 .5 1.6.4.7 1.3.7.8 0 1.2-.6.5-.7.5-1.8 0-1.2-.5-1.8-.5-.6-1.2-.6-.8 0-1.3.6-.5.7-.5 1.8zm1.6-3.4q.8 0 1.2.3l.7.6v-3.1h1v8.6h-1v-.9q-.3.6-.8.9-.5.2-1.2.2-1 0-1.8-.9-.8-.8-.8-2.3 0-1.4.7-2.4t2-1z" font-size="12" font-family="Helvetica,Arial,sans-serif" fill="#fff"/><path d="M219.5 100h68v19h-68z" fill="#00bf00" stroke="#000" stroke-width="1.5"/><path d="M232.3 106.7h1v1l.7-.8q.5-.3 1.2-.3t1.2.4l.5.6q.3-.5.8-.8l1-.2q1.3 0 1.8.9.2.5.2 1.3v4.2h-1v-4.4q0-.6-.4-.8-.3-.3-.8-.3-.6 0-1 .5-.5.4-.5 1.3v3.7h-1v-4.1q0-.6-.2-1t-.9-.4q-.6 0-1 .5-.6.5-.6 1.7v3.3h-1v-6.3zm12.4 5.6q1.1 0 1.5-.8.4-.8.4-1.7 0-1-.3-1.5-.5-.8-1.5-.8t-1.4.7q-.5.7-.5 1.8 0 1 .5 1.7.4.6 1.3.6zm0-5.8q1.3 0 2.1.9.9.8.9 2.3 0 1.5-.8 2.5-.7 1-2.3 1-1.2 0-2-.8-.8-1-.8-2.4 0-1.6.8-2.5.8-1 2.2-1zm0 0zm4.3.2h1v1q.4-.6.9-.9l1-.2q1.4 0 1.9 1 .3.4.3 1.4v4H253v-4q0-.5-.2-.9-.3-.6-1-.6l-.6.1q-.5.1-.8.5l-.3.7-.1 1v3.2h-1v-6.3zm2.4-.1zm6.4 0q.8 0 1.3.4l.6.6v-.8h1v5.7q0 1.2-.3 1.9-.7 1.3-2.5 1.3-1 0-1.7-.5t-.8-1.4h1q.1.4.4.6.3.4 1.1.4 1.2 0 1.6-.9.2-.5.2-1.8-.3.5-.8.7-.4.3-1.2.3-1 0-1.7-.7-.8-.8-.8-2.4 0-1.6.8-2.5.7-.9 1.8-.9zm2 3.2q0-1.1-.6-1.7-.4-.6-1.2-.6-1 0-1.5 1-.2.6-.2 1.5 0 1.1.4 1.7.4.5 1.2.5 1.1 0 1.6-1 .2-.6.2-1.4zm-1.8-3.2zm6.8 5.7q1 0 1.4-.8.4-.8.4-1.7 0-1-.3-1.5-.4-.8-1.5-.8-1 0-1.4.7-.4.7-.4 1.8 0 1 .4 1.7.4.6 1.4.6zm0-5.8q1.2 0 2 .9 1 .8 1 2.3 0 1.5-.8 2.5t-2.3 1q-1.3 0-2-.8-.8-1-.8-2.4 0-1.6.8-2.5.8-1 2.1-1zm0 0zm4.8 3.5q0 1 .5 1.6.4.7 1.3.7.8 0 1.2-.6.5-.7.5-1.8 0-1.2-.5-1.8-.5-.6-1.2-.6-.8 0-1.3.6-.5.7-.5 1.8zm1.6-3.4q.8 0 1.2.3l.7.6v-3.1h1v8.6h-1v-.9q-.3.6-.8.9-.5.2-1.2.2-1 0-1.8-.9-.8-.8-.8-2.3 0-1.4.7-2.4t2-1z" font-size="12" font-family="Helvetica,Arial,sans-serif" fill="#fff"/><path d="M232.5 124h68v19h-68z" fill="#00bf00" stroke="#000" stroke-width="1.5"/><path d="M245.3 130.7h1v1l.7-.8q.5-.3 1.2-.3t1.2.4l.5.6q.3-.5.8-.8l1-.2q1.3 0 1.8.9.2.5.2 1.3v4.2h-1v-4.4q0-.6-.4-.8-.3-.3-.8-.3-.6 0-1 .5-.5.4-.5 1.3v3.7h-1v-4.1q0-.6-.2-1t-.9-.4q-.6 0-1 .5-.6.5-.6 1.7v3.3h-1v-6.3zm12.4 5.6q1.1 0 1.5-.8.4-.8.4-1.7 0-1-.3-1.5-.5-.8-1.5-.8t-1.4.7q-.5.7-.5 1.8 0 1 .5 1.7.4.6 1.3.6zm0-5.8q1.3 0 2.1.9.9.8.9 2.3 0 1.5-.8 2.5-.7 1-2.3 1-1.2 0-2-.8-.8-1-.8-2.4 0-1.6.8-2.5.8-1 2.2-1zm0 0zm4.3.2h1v1q.4-.6.9-.9l1-.2q1.4 0 1.9 1 .3.4.3 1.4v4H266v-4q0-.5-.2-.9-.3-.6-1-.6l-.6.1q-.5.1-.8.5l-.3.7-.1 1v3.2h-1v-6.3zm2.4-.1zm6.4 0q.8 0 1.3.4l.6.6v-.8h1v5.7q0 1.2-.3 1.9-.7 1.3-2.5 1.3-1 0-1.7-.5t-.8-1.4h1q.1.4.4.6.3.4 1.1.4 1.2 0 1.6-.9.2-.5.2-1.8-.3.5-.8.7-.4.3-1.2.3-1 0-1.7-.7-.8-.8-.8-2.4 0-1.6.8-2.5.7-.9 1.8-.9zm2 3.2q0-1.1-.6-1.7-.4-.6-1.2-.6-1 0-1.5 1-.2.6-.2 1.5 0 1.1.4 1.7.4.5 1.2.5 1.1 0 1.6-1 .2-.6.2-1.4zm-1.8-3.2zm6.8 5.7q1 0 1.4-.8.4-.8.4-1.7 0-1-.3-1.5-.4-.8-1.5-.8-1 0-1.4.7-.4.7-.4 1.8 0 1 .4 1.7.4.6 1.4.6zm0-5.8q1.2 0 2 .9 1 .8 1 2.3 0 1.5-.8 2.5t-2.3 1q-1.3 0-2-.8-.8-1-.8-2.4 0-1.6.8-2.5.8-1 2.1-1zm0 0zm4.8 3.5q0 1 .5 1.6.4.7 1.3.7.8 0 1.2-.6.5-.7.5-1.8 0-1.2-.5-1.8-.5-.6-1.2-.6-.8 0-1.3.6-.5.7-.5 1.8zm1.6-3.4q.8 0 1.2.3l.7.6v-3.1h1v8.6h-1v-.9q-.3.6-.8.9-.5.2-1.2.2-1 0-1.8-.9-.8-.8-.8-2.3 0-1.4.7-2.4t2-1z" font-size="12" font-family="Helvetica,Arial,sans-serif" fill="#fff"/><path d="M219.5 148h68v19h-68z" fill="#00bf00" stroke="#000" stroke-width="1.5"/><path d="M232.3 155.7h1v1l.7-.8q.5-.3 1.2-.3t1.2.4l.5.6q.3-.5.8-.8l1-.2q1.3 0 1.8.9.2.5.2 1.3v4.2h-1v-4.4q0-.6-.4-.8-.3-.3-.8-.3-.6 0-1 .5-.5.4-.5 1.3v3.7h-1v-4.1q0-.6-.2-1t-.9-.4q-.6 0-1 .5-.6.5-.6 1.7v3.3h-1v-6.3zm12.4 5.6q1.1 0 1.5-.8.4-.8.4-1.7 0-1-.3-1.5-.5-.8-1.5-.8t-1.4.7q-.5.7-.5 1.8 0 1 .5 1.7.4.6 1.3.6zm0-5.8q1.3 0 2.1.9.9.8.9 2.3 0 1.5-.8 2.5-.7 1-2.3 1-1.2 0-2-.8-.8-1-.8-2.4 0-1.6.8-2.5.8-1 2.2-1zm0 0zm4.3.2h1v1q.4-.6.9-.9l1-.2q1.4 0 1.9 1 .3.4.3 1.4v4H253v-4q0-.5-.2-.9-.3-.6-1-.6l-.6.1q-.5.1-.8.5l-.3.7-.1 1v3.2h-1v-6.3zm2.4-.1zm6.4 0q.8 0 1.3.4l.6.6v-.8h1v5.7q0 1.2-.3 1.9-.7 1.3-2.5 1.3-1 0-1.7-.5t-.8-1.4h1q.1.4.4.6.3.4 1.1.4 1.2 0 1.6-.9.2-.5.2-1.8-.3.5-.8.7-.4.3-1.2.3-1 0-1.7-.7-.8-.8-.8-2.4 0-1.6.8-2.5.7-.9 1.8-.9zm2 3.2q0-1.1-.6-1.7-.4-.6-1.2-.6-1 0-1.5 1-.2.6-.2 1.5 0 1.1.4 1.7.4.5 1.2.5 1.1 0 1.6-1 .2-.6.2-1.4zm-1.8-3.2zm6.8 5.7q1 0 1.4-.8.4-.8.4-1.7 0-1-.3-1.5-.4-.8-1.5-.8-1 0-1.4.7-.4.7-.4 1.8 0 1 .4 1.7.4.6 1.4.6zm0-5.8q1.2 0 2 .9 1 .8 1 2.3 0 1.5-.8 2.5t-2.3 1q-1.3 0-2-.8-.8-1-.8-2.4 0-1.6.8-2.5.8-1 2.1-1zm0 0zm4.8 3.5q0 1 .5 1.6.4.7 1.3.7.8 0 1.2-.6.5-.7.5-1.8 0-1.2-.5-1.8-.5-.6-1.2-.6-.8 0-1.3.6-.5.7-.5 1.8zm1.6-3.4q.8 0 1.2.3l.7.6v-3.1h1v8.6h-1v-.9q-.3.6-.8.9-.5.2-1.2.2-1 0-1.8-.9-.8-.8-.8-2.3 0-1.4.7-2.4t2-1z" font-size="12" font-family="Helvetica,Arial,sans-serif" fill="#fff"/><path d="M56.2 88.2q0 .8.3 1.2.6.9 2 .9.7 0 1.3-.2 1-.4 1-1.3 0-.7-.4-1-.5-.3-1.4-.5l-1.2-.3q-1.1-.3-1.6-.6-.8-.5-.8-1.6t.8-1.9q.8-.7 2.2-.7 1.4 0 2.3.6 1 .7 1 2.1h-1.1q0-.7-.4-1-.5-.7-1.8-.7-1 0-1.5.4-.4.5-.4 1 0 .7.5 1l1.6.4 1.2.3q.8.2 1.3.5.8.6.8 1.8 0 1.4-1 2-1 .7-2.4.7-1.6 0-2.5-.9-1-.8-1-2.2h1.2zm2.3-6zm4.8.2h1v3.2l.7-.7q.5-.3 1.3-.3 1.3 0 1.8 1 .3.4.3 1.4v4h-1.1v-4q0-.6-.2-1-.3-.5-1-.5t-1.2.5q-.6.4-.6 1.7V91h-1v-8.6zm7.5 6.9q0 .5.3.8.3.2.8.2l1-.2q1-.5 1-1.4v-.9l-.6.2-.6.1-.6.1q-.6 0-.9.3-.4.2-.4.8zm2.5-2.1q.4 0 .5-.3v-.4q0-.6-.3-.8-.4-.2-1.1-.2-.8 0-1.2.4-.2.3-.2.7h-1q0-1.1.7-1.6.8-.4 1.7-.4 1.1 0 1.8.4t.7 1.3v3.9h.7v.8l-.4.1H75q-.6 0-.8-.4-.2-.2-.2-.5-.3.4-1 .7-.5.3-1.3.3t-1.4-.5q-.5-.5-.5-1.3 0-1 .5-1.4.5-.5 1.4-.6l1.7-.2zm-.9-2.6zm4.3.1h1v1.1q0-.3.6-.8.4-.4 1-.4h.4v1.1h-.3q-.8 0-1.3.5-.4.5-.4 1.2V91h-1v-6.3zm4.6 3.3q0 1 .4 1.6.5.7 1.4.7.7 0 1.2-.6.5-.7.5-1.8 0-1.2-.5-1.8-.5-.6-1.2-.6-.8 0-1.3.6-.5.7-.5 1.8zm1.6-3.4q.7 0 1.2.3l.6.6v-3.1h1V91h-.9v-.9q-.4.6-.9.9-.5.2-1.1.2-1 0-1.8-.9-.8-.8-.8-2.3 0-1.4.7-2.4t2-1zm8.1.4v-.8q1.2 0 1.6-.3.5-.3.7-1.3h.8V91H93v-6h-2zm54.2 3.2q0 .8.3 1.2.6.9 2 .9.7 0 1.3-.2 1-.4 1-1.3 0-.7-.4-1-.5-.3-1.4-.5l-1.2-.3q-1.1-.3-1.6-.6-.8-.5-.8-1.6t.8-1.9q.8-.7 2.2-.7 1.4 0 2.3.6 1 .7 1 2.1h-1.1q0-.7-.4-1-.5-.7-1.8-.7-1 0-1.5.4-.4.5-.4 1 0 .7.5 1l1.6.4 1.2.3q.8.2 1.3.5.8.6.8 1.8 0 1.4-1 2-1 .7-2.4.7-1.6 0-2.5-.9-1-.8-1-2.2h1.2zm2.3-6zm4.8.2h1v3.2l.7-.7q.5-.3 1.3-.3 1.3 0 1.8 1 .3.4.3 1.4v4h-1.1v-4q0-.6-.2-1-.3-.5-1-.5t-1.2.5q-.6.4-.6 1.7V91h-1v-8.6zm7.5 6.9q0 .5.3.8.3.2.8.2l1-.2q1-.5 1-1.4v-.9l-.6.2-.6.1-.6.1q-.6 0-.9.3-.4.2-.4.8zm2.5-2.1q.4 0 .5-.3v-.4q0-.6-.3-.8-.4-.2-1.1-.2-.8 0-1.2.4-.2.3-.2.7h-1q0-1.1.7-1.6.8-.4 1.7-.4 1.1 0 1.8.4t.7 1.3v3.9h.7v.8l-.4.1h-.3q-.6 0-.8-.4-.2-.2-.2-.5-.3.4-1 .7-.5.3-1.3.3t-1.4-.5q-.5-.5-.5-1.3 0-1 .5-1.4.5-.5 1.4-.6l1.7-.2zm-.9-2.6zm4.3.1h1v1.1q0-.3.6-.8.4-.4 1-.4h.4v1.1h-.3q-.8 0-1.3.5-.4.5-.4 1.2V91h-1v-6.3zm4.6 3.3q0 1 .4 1.6.5.7 1.4.7.7 0 1.2-.6.5-.7.5-1.8 0-1.2-.5-1.8-.5-.6-1.2-.6-.8 0-1.3.6-.5.7-.5 1.8zm1.6-3.4q.7 0 1.2.3l.6.6v-3.1h1V91h-.9v-.9q-.4.6-.9.9-.5.2-1.1.2-1 0-1.8-.9-.8-.8-.8-2.3 0-1.4.7-2.4t2-1zm8 5.1h1.2V91H180v-1.3zm3.3 0h1.2V91h-1.2v-1.3zm3.3 0h1.3V91h-1.3v-1.3zm49.7-1.5q0 .8.3 1.2.6.9 2 .9.7 0 1.3-.2 1-.4 1-1.3 0-.7-.4-1-.5-.3-1.4-.5l-1.2-.3q-1.1-.3-1.6-.6-.8-.5-.8-1.6t.8-1.9q.8-.7 2.2-.7 1.4 0 2.3.6 1 .7 1 2.1h-1.1q0-.7-.4-1-.5-.7-1.8-.7-1 0-1.5.4-.4.5-.4 1 0 .7.5 1l1.6.4 1.2.3q.8.2 1.3.5.8.6.8 1.8 0 1.4-1 2-1 .7-2.4.7-1.6 0-2.5-.9-1-.8-1-2.2h1.2zm2.3-6zm4.8.2h1v3.2l.7-.7q.5-.3 1.3-.3 1.3 0 1.8 1 .3.4.3 1.4v4h-1.1v-4q0-.6-.2-1-.3-.5-1-.5t-1.2.5q-.6.4-.6 1.7V91h-1v-8.6zm7.5 6.9q0 .5.3.8.3.2.8.2l1-.2q1-.5 1-1.4v-.9l-.6.2-.6.1-.6.1q-.6 0-.9.3-.4.2-.4.8zm2.5-2.1q.4 0 .5-.3v-.4q0-.6-.3-.8-.4-.2-1.1-.2-.8 0-1.2.4-.2.3-.2.7h-1q0-1.1.7-1.6.8-.4 1.7-.4 1.1 0 1.8.4t.7 1.3v3.9h.7v.8l-.4.1h-.3q-.6 0-.8-.4-.2-.2-.2-.5-.3.4-1 .7-.5.3-1.3.3t-1.4-.5q-.5-.5-.5-1.3 0-1 .5-1.4.5-.5 1.4-.6l1.7-.2zm-.9-2.6zm4.3.1h1v1.1q0-.3.6-.8.4-.4 1-.4h.4v1.1h-.3q-.8 0-1.3.5-.4.5-.4 1.2V91h-1v-6.3zm4.6 3.3q0 1 .4 1.6.5.7 1.4.7.7 0 1.2-.6.5-.7.5-1.8 0-1.2-.5-1.8-.5-.6-1.2-.6-.8 0-1.3.6-.5.7-.5 1.8zm1.6-3.4q.7 0 1.2.3l.6.6v-3.1h1V91h-.9v-.9q-.4.6-.9.9-.5.2-1.1.2-1 0-1.8-.9-.8-.8-.8-2.3 0-1.4.7-2.4t2-1zm7.9-2.2h1.4l4.3 7v-7h1.1V91h-1.3l-4.4-7v7h-1.1v-8.6zm3.3 0z" font-size="12" font-family="Helvetica,Arial,sans-serif"/><path d="M112.6 189.2h2.4l4.3 7.5v-7.5h2V200h-2.2l-4.4-7.7v7.7h-2v-10.8zm4.5 0zm9.8 9.3q1 0 1.4-.6.5-.7.5-1.9t-.5-1.8q-.5-.7-1.4-.7-1 0-1.4.7-.5.6-.5 1.8 0 1.2.5 1.9.5.6 1.4.6zm4-2.5q0 1.8-1 3-1 1.3-3 1.3t-3-1.3q-1-1.2-1-3 0-1.7 1-3 1-1.2 3-1.2t3 1.2q1 1.3 1 3zm-4-4.2zm9.9 0h.3v2.2h-.6q-1.3 0-1.7.8-.3.4-.3 1.4v3.8h-2v-8h2v1.4q.4-.8.8-1 .6-.6 1.5-.6zm.7 1.8V192h1v-2.2h2.1v2.2h1.3v1.5h-1.3v4.2q0 .5.2.6l.7.1h.4v1.6h-1q-1.4 0-2-.5-.3-.4-.3-1.1v-5h-1.1zm10.2-1.8q.7 0 1.3.3.6.2 1 .8.4.4.4.9l.1 1.5v4.7h-2.1v-4.9q0-.6-.2-1-.3-.6-1.1-.6-.9 0-1.3.6t-.4 1.6v4.3h-2v-10.8h2v3.9q.4-.7 1-1 .6-.3 1.3-.3zm12 4.2h2.8l-1.4-4.3-1.4 4.2zm.2-6.8h2.5l3.9 10.8h-2.5l-.7-2.2h-4l-.7 2.2H156l3.9-10.8zm1.2 0zm15.3 2.6l1 .2 1 .8q.3.4.4 1v6.2h-2v-5q0-.5-.2-.8-.3-.6-1-.6-1 0-1.2.7-.2.4-.2 1v4.7h-2.1v-4.8q0-.7-.2-1-.2-.6-1-.6-.9 0-1.2.6-.2.3-.2 1v4.8h-2v-8h2v1.2q.3-.6.7-.9.6-.5 1.6-.5.9 0 1.4.4.5.4.7 1 .4-.7 1-1 .7-.4 1.5-.4zm7.6 1.7q-.8 0-1.2.5-.4.4-.5 1.2h3.3q0-.8-.5-1.2-.5-.5-1.1-.5zm0-1.7q1 0 1.8.4t1.3 1.2q.5.7.6 1.6v1.6h-5.4q0 1.2.8 1.7.4.3 1 .3t1-.4q.3-.2.4-.5h2.2q-.1.7-.8 1.4-1 1.2-2.9 1.2-1.5 0-2.6-1-1.2-1-1.2-3.2 0-2 1-3.2 1.1-1.1 2.8-1.1zm.1 0zm9.4 0h.3v2.2h-.6q-1.3 0-1.7.8-.2.4-.2 1.4v3.8h-2.1v-8h2v1.4q.4-.8.8-1 .6-.6 1.5-.6zm3.6-.8h-2v-1.9h2v2zm-2 1h2v8h-2v-8zm8.9 2.9q-.1-.5-.4-.8-.3-.5-1-.5-1.1 0-1.5 1-.2.6-.2 1.5t.2 1.4q.4 1 1.4 1 .7 0 1-.4.4-.4.4-1h2.1q0 1-.6 1.8-1 1.4-3 1.4-1.9 0-2.8-1.2-.9-1.1-.9-3 0-2 1-3.1 1-1.2 2.8-1.2 1.5 0 2.4.7 1 .7 1.2 2.4h-2.2zm-1.5-3.1zm9.5 4.3l-.5.2-.5.2h-.5l-1 .3q-.4.3-.4 1 0 .5.3.7.3.2.7.2.7 0 1.2-.4.6-.4.6-1.4v-.8zm-1.4-1l.9-.1q.4-.2.4-.6 0-.5-.3-.7-.4-.2-1-.2-.8 0-1 .4-.3.2-.4.7h-2q0-1 .6-1.7.8-1 2.9-1 1.3 0 2.3.4 1 .6 1 2v4.7l.1.6.3.2v.3h-2.2l-.2-.5v-.4l-1 .8q-.7.3-1.5.3-1.1 0-1.8-.6t-.7-1.7q0-1.5 1.1-2.2.6-.3 1.8-.5h.7zm.2-3.3z" font-weight="700" font-size="15" font-family="Helvetica,Arial,sans-serif"/><path d="M333.4 73.6h212v123.2l-106 30.8-106-30.8V73.6z" stroke-opacity="null" fill="#eaedea" stroke="#000" stroke-width="1.5"/><path d="M358.5 100h68v19h-68z" fill="#00bf00" stroke="#000" stroke-width="1.5"/><path d="M371.3 106.7h1v1l.7-.8q.5-.3 1.2-.3t1.2.4l.5.6q.3-.5.8-.8l1-.2q1.3 0 1.8.9.2.5.2 1.3v4.2h-1v-4.4q0-.6-.4-.8-.3-.3-.8-.3-.6 0-1 .5-.5.4-.5 1.3v3.7h-1v-4.1q0-.6-.2-1t-.9-.4q-.6 0-1 .5-.6.5-.6 1.7v3.3h-1v-6.3zm12.4 5.6q1.1 0 1.5-.8.4-.8.4-1.7 0-1-.3-1.5-.5-.8-1.5-.8t-1.4.7q-.5.7-.5 1.8 0 1 .5 1.7.4.6 1.3.6zm0-5.8q1.3 0 2.1.9.9.8.9 2.3 0 1.5-.8 2.5-.7 1-2.3 1-1.2 0-2-.8-.8-1-.8-2.4 0-1.6.8-2.5.8-1 2.2-1zm0 0zm4.3.2h1v1q.4-.6.9-.9l1-.2q1.4 0 1.9 1 .3.4.3 1.4v4H392v-4q0-.5-.2-.9-.3-.6-1-.6l-.6.1q-.5.1-.8.5l-.3.7-.1 1v3.2h-1v-6.3zm2.4-.1zm6.4 0q.8 0 1.3.4l.6.6v-.8h1v5.7q0 1.2-.3 1.9-.7 1.3-2.5 1.3-1 0-1.7-.5t-.8-1.4h1q.1.4.4.6.3.4 1.1.4 1.2 0 1.6-.9.2-.5.2-1.8-.3.5-.8.7-.4.3-1.2.3-1 0-1.7-.7-.8-.8-.8-2.4 0-1.6.8-2.5.7-.9 1.8-.9zm2 3.2q0-1.1-.6-1.7-.4-.6-1.2-.6-1 0-1.5 1-.2.6-.2 1.5 0 1.1.4 1.7.4.5 1.2.5 1.1 0 1.6-1 .2-.6.2-1.4zm-1.8-3.2zm6.8 5.7q1 0 1.4-.8.4-.8.4-1.7 0-1-.3-1.5-.4-.8-1.5-.8-1 0-1.4.7-.4.7-.4 1.8 0 1 .4 1.7.4.6 1.4.6zm0-5.8q1.2 0 2 .9 1 .8 1 2.3 0 1.5-.8 2.5t-2.3 1q-1.3 0-2-.8-.8-1-.8-2.4 0-1.6.8-2.5.8-1 2.1-1zm0 0zm4.8 3.5q0 1 .5 1.6.4.7 1.3.7.8 0 1.2-.6.5-.7.5-1.8 0-1.2-.5-1.8-.5-.6-1.2-.6-.8 0-1.3.6-.5.7-.5 1.8zm1.6-3.4q.8 0 1.2.3l.7.6v-3.1h1v8.6h-1v-.9q-.3.6-.8.9-.5.2-1.2.2-1 0-1.8-.9-.8-.8-.8-2.3 0-1.4.7-2.4t2-1z" font-size="12" font-family="Helvetica,Arial,sans-serif" fill="#fff"/><path d="M371.5 124h68v19h-68z" fill="#00bf00" stroke="#000" stroke-width="1.5"/><path d="M384.3 130.7h1v1l.7-.8q.5-.3 1.2-.3t1.2.4l.5.6q.3-.5.8-.8l1-.2q1.3 0 1.8.9.2.5.2 1.3v4.2h-1v-4.4q0-.6-.4-.8-.3-.3-.8-.3-.6 0-1 .5-.5.4-.5 1.3v3.7h-1v-4.1q0-.6-.2-1t-.9-.4q-.6 0-1 .5-.6.5-.6 1.7v3.3h-1v-6.3zm12.4 5.6q1.1 0 1.5-.8.4-.8.4-1.7 0-1-.3-1.5-.5-.8-1.5-.8t-1.4.7q-.5.7-.5 1.8 0 1 .5 1.7.4.6 1.3.6zm0-5.8q1.3 0 2.1.9.9.8.9 2.3 0 1.5-.8 2.5-.7 1-2.3 1-1.2 0-2-.8-.8-1-.8-2.4 0-1.6.8-2.5.8-1 2.2-1zm0 0zm4.3.2h1v1q.4-.6.9-.9l1-.2q1.4 0 1.9 1 .3.4.3 1.4v4H405v-4q0-.5-.2-.9-.3-.6-1-.6l-.6.1q-.5.1-.8.5l-.3.7-.1 1v3.2h-1v-6.3zm2.4-.1zm6.4 0q.8 0 1.3.4l.6.6v-.8h1v5.7q0 1.2-.3 1.9-.7 1.3-2.5 1.3-1 0-1.7-.5t-.8-1.4h1q.1.4.4.6.3.4 1.1.4 1.2 0 1.6-.9.2-.5.2-1.8-.3.5-.8.7-.4.3-1.2.3-1 0-1.7-.7-.8-.8-.8-2.4 0-1.6.8-2.5.7-.9 1.8-.9zm2 3.2q0-1.1-.6-1.7-.4-.6-1.2-.6-1 0-1.5 1-.2.6-.2 1.5 0 1.1.4 1.7.4.5 1.2.5 1.1 0 1.6-1 .2-.6.2-1.4zm-1.8-3.2zm6.8 5.7q1 0 1.4-.8.4-.8.4-1.7 0-1-.3-1.5-.4-.8-1.5-.8-1 0-1.4.7-.4.7-.4 1.8 0 1 .4 1.7.4.6 1.4.6zm0-5.8q1.2 0 2 .9 1 .8 1 2.3 0 1.5-.8 2.5t-2.3 1q-1.3 0-2-.8-.8-1-.8-2.4 0-1.6.8-2.5.8-1 2.1-1zm0 0zm4.8 3.5q0 1 .5 1.6.4.7 1.3.7.8 0 1.2-.6.5-.7.5-1.8 0-1.2-.5-1.8-.5-.6-1.2-.6-.8 0-1.3.6-.5.7-.5 1.8zm1.6-3.4q.8 0 1.2.3l.7.6v-3.1h1v8.6h-1v-.9q-.3.6-.8.9-.5.2-1.2.2-1 0-1.8-.9-.8-.8-.8-2.3 0-1.4.7-2.4t2-1z" font-size="12" font-family="Helvetica,Arial,sans-serif" fill="#fff"/><path d="M358.5 148h68v19h-68z" fill="#00bf00" stroke="#000" stroke-width="1.5"/><path d="M371.3 155.7h1v1l.7-.8q.5-.3 1.2-.3t1.2.4l.5.6q.3-.5.8-.8l1-.2q1.3 0 1.8.9.2.5.2 1.3v4.2h-1v-4.4q0-.6-.4-.8-.3-.3-.8-.3-.6 0-1 .5-.5.4-.5 1.3v3.7h-1v-4.1q0-.6-.2-1t-.9-.4q-.6 0-1 .5-.6.5-.6 1.7v3.3h-1v-6.3zm12.4 5.6q1.1 0 1.5-.8.4-.8.4-1.7 0-1-.3-1.5-.5-.8-1.5-.8t-1.4.7q-.5.7-.5 1.8 0 1 .5 1.7.4.6 1.3.6zm0-5.8q1.3 0 2.1.9.9.8.9 2.3 0 1.5-.8 2.5-.7 1-2.3 1-1.2 0-2-.8-.8-1-.8-2.4 0-1.6.8-2.5.8-1 2.2-1zm0 0zm4.3.2h1v1q.4-.6.9-.9l1-.2q1.4 0 1.9 1 .3.4.3 1.4v4H392v-4q0-.5-.2-.9-.3-.6-1-.6l-.6.1q-.5.1-.8.5l-.3.7-.1 1v3.2h-1v-6.3zm2.4-.1zm6.4 0q.8 0 1.3.4l.6.6v-.8h1v5.7q0 1.2-.3 1.9-.7 1.3-2.5 1.3-1 0-1.7-.5t-.8-1.4h1q.1.4.4.6.3.4 1.1.4 1.2 0 1.6-.9.2-.5.2-1.8-.3.5-.8.7-.4.3-1.2.3-1 0-1.7-.7-.8-.8-.8-2.4 0-1.6.8-2.5.7-.9 1.8-.9zm2 3.2q0-1.1-.6-1.7-.4-.6-1.2-.6-1 0-1.5 1-.2.6-.2 1.5 0 1.1.4 1.7.4.5 1.2.5 1.1 0 1.6-1 .2-.6.2-1.4zm-1.8-3.2zm6.8 5.7q1 0 1.4-.8.4-.8.4-1.7 0-1-.3-1.5-.4-.8-1.5-.8-1 0-1.4.7-.4.7-.4 1.8 0 1 .4 1.7.4.6 1.4.6zm0-5.8q1.2 0 2 .9 1 .8 1 2.3 0 1.5-.8 2.5t-2.3 1q-1.3 0-2-.8-.8-1-.8-2.4 0-1.6.8-2.5.8-1 2.1-1zm0 0zm4.8 3.5q0 1 .5 1.6.4.7 1.3.7.8 0 1.2-.6.5-.7.5-1.8 0-1.2-.5-1.8-.5-.6-1.2-.6-.8 0-1.3.6-.5.7-.5 1.8zm1.6-3.4q.8 0 1.2.3l.7.6v-3.1h1v8.6h-1v-.9q-.3.6-.8.9-.5.2-1.2.2-1 0-1.8-.9-.8-.8-.8-2.3 0-1.4.7-2.4t2-1z" font-size="12" font-family="Helvetica,Arial,sans-serif" fill="#fff"/><path d="M447.5 100h68v19h-68z" fill="#00bf00" stroke="#000" stroke-width="1.5"/><path d="M460.3 106.7h1v1l.7-.8q.5-.3 1.2-.3t1.2.4l.5.6q.3-.5.8-.8l1-.2q1.3 0 1.8.9.2.5.2 1.3v4.2h-1v-4.4q0-.6-.4-.8-.3-.3-.8-.3-.6 0-1 .5-.5.4-.5 1.3v3.7h-1v-4.1q0-.6-.2-1t-.9-.4q-.6 0-1 .5-.6.5-.6 1.7v3.3h-1v-6.3zm12.4 5.6q1.1 0 1.5-.8.4-.8.4-1.7 0-1-.3-1.5-.5-.8-1.5-.8t-1.4.7q-.5.7-.5 1.8 0 1 .5 1.7.4.6 1.3.6zm0-5.8q1.3 0 2.1.9.9.8.9 2.3 0 1.5-.8 2.5-.7 1-2.3 1-1.2 0-2-.8-.8-1-.8-2.4 0-1.6.8-2.5.8-1 2.2-1zm0 0zm4.3.2h1v1q.4-.6.9-.9l1-.2q1.4 0 1.9 1 .3.4.3 1.4v4H481v-4q0-.5-.2-.9-.3-.6-1-.6l-.6.1q-.5.1-.8.5l-.3.7-.1 1v3.2h-1v-6.3zm2.4-.1zm6.4 0q.8 0 1.3.4l.6.6v-.8h1v5.7q0 1.2-.3 1.9-.7 1.3-2.5 1.3-1 0-1.7-.5t-.8-1.4h1q.1.4.4.6.3.4 1.1.4 1.2 0 1.6-.9.2-.5.2-1.8-.3.5-.8.7-.4.3-1.2.3-1 0-1.7-.7-.8-.8-.8-2.4 0-1.6.8-2.5.7-.9 1.8-.9zm2 3.2q0-1.1-.6-1.7-.4-.6-1.2-.6-1 0-1.5 1-.2.6-.2 1.5 0 1.1.4 1.7.4.5 1.2.5 1.1 0 1.6-1 .2-.6.2-1.4zm-1.8-3.2zm6.8 5.7q1 0 1.4-.8.4-.8.4-1.7 0-1-.3-1.5-.4-.8-1.5-.8-1 0-1.4.7-.4.7-.4 1.8 0 1 .4 1.7.4.6 1.4.6zm0-5.8q1.2 0 2 .9 1 .8 1 2.3 0 1.5-.8 2.5t-2.3 1q-1.3 0-2-.8-.8-1-.8-2.4 0-1.6.8-2.5.8-1 2.1-1zm0 0zm4.8 3.5q0 1 .5 1.6.4.7 1.3.7.8 0 1.2-.6.5-.7.5-1.8 0-1.2-.5-1.8-.5-.6-1.2-.6-.8 0-1.3.6-.5.7-.5 1.8zm1.6-3.4q.8 0 1.2.3l.7.6v-3.1h1v8.6h-1v-.9q-.3.6-.8.9-.5.2-1.2.2-1 0-1.8-.9-.8-.8-.8-2.3 0-1.4.7-2.4t2-1z" font-size="12" font-family="Helvetica,Arial,sans-serif" fill="#fff"/><path d="M460.5 124h68v19h-68z" fill="#00bf00" stroke="#000" stroke-width="1.5"/><path d="M473.3 130.7h1v1l.7-.8q.5-.3 1.2-.3t1.2.4l.5.6q.3-.5.8-.8l1-.2q1.3 0 1.8.9.2.5.2 1.3v4.2h-1v-4.4q0-.6-.4-.8-.3-.3-.8-.3-.6 0-1 .5-.5.4-.5 1.3v3.7h-1v-4.1q0-.6-.2-1t-.9-.4q-.6 0-1 .5-.6.5-.6 1.7v3.3h-1v-6.3zm12.4 5.6q1.1 0 1.5-.8.4-.8.4-1.7 0-1-.3-1.5-.5-.8-1.5-.8t-1.4.7q-.5.7-.5 1.8 0 1 .5 1.7.4.6 1.3.6zm0-5.8q1.3 0 2.1.9.9.8.9 2.3 0 1.5-.8 2.5-.7 1-2.3 1-1.2 0-2-.8-.8-1-.8-2.4 0-1.6.8-2.5.8-1 2.2-1zm0 0zm4.3.2h1v1q.4-.6.9-.9l1-.2q1.4 0 1.9 1 .3.4.3 1.4v4H494v-4q0-.5-.2-.9-.3-.6-1-.6l-.6.1q-.5.1-.8.5l-.3.7-.1 1v3.2h-1v-6.3zm2.4-.1zm6.4 0q.8 0 1.3.4l.6.6v-.8h1v5.7q0 1.2-.3 1.9-.7 1.3-2.5 1.3-1 0-1.7-.5t-.8-1.4h1q.1.4.4.6.3.4 1.1.4 1.2 0 1.6-.9.2-.5.2-1.8-.3.5-.8.7-.4.3-1.2.3-1 0-1.7-.7-.8-.8-.8-2.4 0-1.6.8-2.5.7-.9 1.8-.9zm2 3.2q0-1.1-.6-1.7-.4-.6-1.2-.6-1 0-1.5 1-.2.6-.2 1.5 0 1.1.4 1.7.4.5 1.2.5 1.1 0 1.6-1 .2-.6.2-1.4zm-1.8-3.2zm6.8 5.7q1 0 1.4-.8.4-.8.4-1.7 0-1-.3-1.5-.4-.8-1.5-.8-1 0-1.4.7-.4.7-.4 1.8 0 1 .4 1.7.4.6 1.4.6zm0-5.8q1.2 0 2 .9 1 .8 1 2.3 0 1.5-.8 2.5t-2.3 1q-1.3 0-2-.8-.8-1-.8-2.4 0-1.6.8-2.5.8-1 2.1-1zm0 0zm4.8 3.5q0 1 .5 1.6.4.7 1.3.7.8 0 1.2-.6.5-.7.5-1.8 0-1.2-.5-1.8-.5-.6-1.2-.6-.8 0-1.3.6-.5.7-.5 1.8zm1.6-3.4q.8 0 1.2.3l.7.6v-3.1h1v8.6h-1v-.9q-.3.6-.8.9-.5.2-1.2.2-1 0-1.8-.9-.8-.8-.8-2.3 0-1.4.7-2.4t2-1z" font-size="12" font-family="Helvetica,Arial,sans-serif" fill="#fff"/><path d="M447.5 148h68v19h-68z" fill="#00bf00" stroke="#000" stroke-width="1.5"/><path d="M460.3 155.7h1v1l.7-.8q.5-.3 1.2-.3t1.2.4l.5.6q.3-.5.8-.8l1-.2q1.3 0 1.8.9.2.5.2 1.3v4.2h-1v-4.4q0-.6-.4-.8-.3-.3-.8-.3-.6 0-1 .5-.5.4-.5 1.3v3.7h-1v-4.1q0-.6-.2-1t-.9-.4q-.6 0-1 .5-.6.5-.6 1.7v3.3h-1v-6.3zm12.4 5.6q1.1 0 1.5-.8.4-.8.4-1.7 0-1-.3-1.5-.5-.8-1.5-.8t-1.4.7q-.5.7-.5 1.8 0 1 .5 1.7.4.6 1.3.6zm0-5.8q1.3 0 2.1.9.9.8.9 2.3 0 1.5-.8 2.5-.7 1-2.3 1-1.2 0-2-.8-.8-1-.8-2.4 0-1.6.8-2.5.8-1 2.2-1zm0 0zm4.3.2h1v1q.4-.6.9-.9l1-.2q1.4 0 1.9 1 .3.4.3 1.4v4H481v-4q0-.5-.2-.9-.3-.6-1-.6l-.6.1q-.5.1-.8.5l-.3.7-.1 1v3.2h-1v-6.3zm2.4-.1zm6.4 0q.8 0 1.3.4l.6.6v-.8h1v5.7q0 1.2-.3 1.9-.7 1.3-2.5 1.3-1 0-1.7-.5t-.8-1.4h1q.1.4.4.6.3.4 1.1.4 1.2 0 1.6-.9.2-.5.2-1.8-.3.5-.8.7-.4.3-1.2.3-1 0-1.7-.7-.8-.8-.8-2.4 0-1.6.8-2.5.7-.9 1.8-.9zm2 3.2q0-1.1-.6-1.7-.4-.6-1.2-.6-1 0-1.5 1-.2.6-.2 1.5 0 1.1.4 1.7.4.5 1.2.5 1.1 0 1.6-1 .2-.6.2-1.4zm-1.8-3.2zm6.8 5.7q1 0 1.4-.8.4-.8.4-1.7 0-1-.3-1.5-.4-.8-1.5-.8-1 0-1.4.7-.4.7-.4 1.8 0 1 .4 1.7.4.6 1.4.6zm0-5.8q1.2 0 2 .9 1 .8 1 2.3 0 1.5-.8 2.5t-2.3 1q-1.3 0-2-.8-.8-1-.8-2.4 0-1.6.8-2.5.8-1 2.1-1zm0 0zm4.8 3.5q0 1 .5 1.6.4.7 1.3.7.8 0 1.2-.6.5-.7.5-1.8 0-1.2-.5-1.8-.5-.6-1.2-.6-.8 0-1.3.6-.5.7-.5 1.8zm1.6-3.4q.8 0 1.2.3l.7.6v-3.1h1v8.6h-1v-.9q-.3.6-.8.9-.5.2-1.2.2-1 0-1.8-.9-.8-.8-.8-2.3 0-1.4.7-2.4t2-1z" font-size="12" font-family="Helvetica,Arial,sans-serif" fill="#fff"/><path d="M367.2 88.2q0 .8.3 1.2.6.9 2 .9.7 0 1.3-.2 1-.4 1-1.3 0-.7-.4-1-.5-.3-1.4-.5l-1.2-.3q-1.1-.3-1.6-.6-.8-.5-.8-1.6t.8-1.9q.8-.7 2.2-.7 1.4 0 2.3.6 1 .7 1 2.1h-1.1q0-.7-.4-1-.5-.7-1.8-.7-1 0-1.5.4-.4.5-.4 1 0 .7.5 1l1.6.4 1.2.3q.8.2 1.3.5.8.6.8 1.8 0 1.4-1 2-1 .7-2.4.7-1.6 0-2.5-.9-1-.8-1-2.2h1.2zm2.3-6zm4.8.2h1v3.2l.7-.7q.5-.3 1.3-.3 1.3 0 1.8 1 .3.4.3 1.4v4h-1.1v-4q0-.6-.2-1-.3-.5-1-.5t-1.2.5q-.6.4-.6 1.7V91h-1v-8.6zm7.5 6.9q0 .5.3.8.3.2.8.2l1-.2q1-.5 1-1.4v-.9l-.6.2-.6.1-.6.1q-.6 0-.9.3-.4.2-.4.8zm2.5-2.1q.4 0 .5-.3v-.4q0-.6-.3-.8-.4-.2-1.1-.2-.8 0-1.2.4-.2.3-.2.7h-1q0-1.1.7-1.6.8-.4 1.7-.4 1.1 0 1.8.4t.7 1.3v3.9h.7v.8l-.4.1h-.3q-.6 0-.8-.4-.2-.2-.2-.5-.3.4-1 .7-.5.3-1.3.3t-1.4-.5q-.5-.5-.5-1.3 0-1 .5-1.4.5-.5 1.4-.6l1.7-.2zm-.9-2.6zm4.3.1h1v1.1q0-.3.6-.8.4-.4 1-.4h.4v1.1h-.3q-.8 0-1.3.5-.4.5-.4 1.2V91h-1v-6.3zm4.6 3.3q0 1 .4 1.6.5.7 1.4.7.7 0 1.2-.6.5-.7.5-1.8 0-1.2-.5-1.8-.5-.6-1.2-.6-.8 0-1.3.6-.5.7-.5 1.8zm1.6-3.4q.7 0 1.2.3l.6.6v-3.1h1V91h-.9v-.9q-.4.6-.9.9-.5.2-1.1.2-1 0-1.8-.9-.8-.8-.8-2.3 0-1.4.7-2.4t2-1zm7.9-2.2h1.4l4.3 7v-7h1.1V91h-1.3l-4.4-7v7h-1.1v-8.6zm3.3 0zm4.9 6v-1h2.6V85h1v2.5h2.6v1h-2.6V91h-1v-2.6h-2.5zm7.7-3.4v-.8q1.1 0 1.6-.3.4-.3.6-1.3h.9V91h-1.2v-6h-2zm37.5 3.2q0 .8.3 1.2.6.9 2 .9.7 0 1.3-.2 1-.4 1-1.3 0-.7-.4-1-.5-.3-1.4-.5l-1.2-.3q-1.1-.3-1.6-.6-.8-.5-.8-1.6t.8-1.9q.8-.7 2.2-.7 1.4 0 2.3.6 1 .7 1 2.1h-1.1q0-.7-.4-1-.5-.7-1.8-.7-1 0-1.5.4-.4.5-.4 1 0 .7.5 1l1.6.4 1.2.3q.8.2 1.3.5.8.6.8 1.8 0 1.4-1 2-1 .7-2.4.7-1.6 0-2.5-.9-1-.8-1-2.2h1.2zm2.3-6zm4.8.2h1v3.2l.7-.7q.5-.3 1.3-.3 1.3 0 1.8 1 .3.4.3 1.4v4h-1.1v-4q0-.6-.2-1-.3-.5-1-.5t-1.2.5q-.6.4-.6 1.7V91h-1v-8.6zm7.5 6.9q0 .5.3.8.3.2.8.2l1-.2q1-.5 1-1.4v-.9l-.6.2-.6.1-.6.1q-.6 0-.9.3-.4.2-.4.8zm2.5-2.1q.4 0 .5-.3v-.4q0-.6-.3-.8-.4-.2-1.1-.2-.8 0-1.2.4-.2.3-.2.7h-1q0-1.1.7-1.6.8-.4 1.7-.4 1.1 0 1.8.4t.7 1.3v3.9h.7v.8l-.4.1h-.3q-.6 0-.8-.4-.2-.2-.2-.5-.3.4-1 .7-.5.3-1.3.3t-1.4-.5q-.5-.5-.5-1.3 0-1 .5-1.4.5-.5 1.4-.6l1.7-.2zm-.9-2.6zm4.3.1h1v1.1q0-.3.6-.8.4-.4 1-.4h.4v1.1h-.3q-.8 0-1.3.5-.4.5-.4 1.2V91h-1v-6.3zm4.6 3.3q0 1 .4 1.6.5.7 1.4.7.7 0 1.2-.6.5-.7.5-1.8 0-1.2-.5-1.8-.5-.6-1.2-.6-.8 0-1.3.6-.5.7-.5 1.8zm1.6-3.4q.7 0 1.2.3l.6.6v-3.1h1V91h-.9v-.9q-.4.6-.9.9-.5.2-1.1.2-1 0-1.8-.9-.8-.8-.8-2.3 0-1.4.7-2.4t2-1zm7.9-2.2h1.4l4.3 7v-7h1.1V91h-1.3l-4.4-7v7h-1.1v-8.6zm3.3 0zm4.9 6v-1h2.6V85h1v2.5h2.6v1h-2.6V91h-1v-2.6h-2.5zm6.9 2.6q0-1 .4-1.9.4-.8 1.6-1.4l1-.7 1.2-.7q.4-.5.4-1.2t-.4-1.1q-.4-.5-1.2-.5-1 0-1.5.9-.2.4-.2 1.2H505q0-1.1.4-1.8.7-1.2 2.4-1.2 1.5 0 2.1.8.7.7.7 1.7t-.7 1.7q-.4.4-1.5 1l-.8.5-.9.6q-.6.5-.7 1.1h4.6v1h-5.8z" font-size="12" font-family="Helvetica,Arial,sans-serif"/><path d="M421.6 191.1H416v2.3h5.3v1.9H416v2.8h6v1.9h-8.2v-10.8h8v2zm4 .9v4.8l.1 1q.3.7 1.2.7 1 0 1.4-.9.2-.5.2-1.2V192h2.1v8h-2v-1.1l-.1.2-.3.3q-.5.5-1 .6-.4.2-1 .2-1.8 0-2.4-1.3-.4-.7-.4-2V192h2.2zm1.4-.2zm10 0h.3v2.2h-.6q-1.3 0-1.7.8-.3.4-.3 1.4v3.8h-2v-8h2v1.4q.4-.8.8-1 .6-.6 1.5-.6zm5 6.7q1 0 1.5-.6.5-.7.5-1.9t-.5-1.8q-.5-.7-1.4-.7-1 0-1.4.7-.5.6-.5 1.8 0 1.2.5 1.9.5.6 1.4.6zm4.2-2.5q0 1.8-1 3-1 1.3-3.1 1.3-2 0-3-1.3-1.1-1.2-1.1-3 0-1.7 1-3 1-1.2 3-1.2 2.1 0 3.2 1.2 1 1.3 1 3zm-4.1-4.2zm11 4.2q0-1-.4-1.6-.4-.7-1.4-.7-1 0-1.5 1-.2.6-.2 1.5 0 1.4.7 2 .4.3 1 .3 1 0 1.4-.7.4-.7.4-1.8zm-1.2-4.2q1.4 0 2.4 1 1 1.1 1 3.1 0 2.1-1 3.2t-2.4 1.1q-1 0-1.6-.4l-.7-.8v4.1h-2v-11h2v1.1q.3-.5.7-.8.7-.6 1.6-.6zm8.1 1.7q-.8 0-1.2.5-.4.4-.5 1.2h3.2q0-.8-.5-1.2-.4-.5-1-.5zm0-1.7q1 0 1.7.4.8.4 1.3 1.2.5.7.6 1.6l.1 1.6h-5.5q0 1.2.8 1.7.4.3 1 .3.7 0 1-.4l.5-.5h2.1q0 .7-.7 1.4-1 1.2-2.9 1.2-1.5 0-2.7-1-1.2-1-1.2-3.2 0-2 1-3.2 1.1-1.1 2.8-1.1zm0 0z" font-weight="700" font-size="15" font-family="Helvetica,Arial,sans-serif"/><path d="M224.8 35q.1.9.5 1.3.7.8 2.3.8 1 0 1.5-.2 1.1-.4 1.1-1.5 0-.6-.5-1l-1.8-.6-1.4-.3q-2-.5-2.7-1-1.4-.9-1.4-2.8 0-1.7 1.3-2.9 1.3-1.1 3.7-1.1 2 0 3.5 1 1.5 1.1 1.5 3.2h-2.6q0-1.2-1-1.7-.6-.3-1.6-.3t-1.6.4q-.7.5-.7 1.2t.7 1q.4.3 1.6.6l2.3.5q1.5.4 2.2 1 1.2.9 1.2 2.6 0 1.8-1.4 3-1.4 1.1-3.8 1.1-2.6 0-4-1.1-1.5-1.2-1.5-3.2h2.6zm2.6-9.4zm12.6 3.6q.8 0 1.5.3.8.3 1.2 1 .4.5.5 1l.1 1.9V39h-2.6v-5.8q0-.8-.2-1.3-.4-.6-1.3-.6-1 0-1.5.6-.5.7-.5 2V39h-2.5V26h2.5v4.7q.5-.9 1.2-1.2.7-.3 1.5-.3zm11 5.1l-.6.3-.6.2h-.6l-1.1.4q-.6.3-.6 1t.4 1q.3.3.8.3.8 0 1.5-.5t.7-1.7v-1zm-1.6-1.1l1-.2q.5-.3.5-.8t-.4-.8q-.4-.2-1.2-.2-.9 0-1.2.4-.3.4-.4 1h-2.4q0-1.3.7-2.1 1-1.3 3.4-1.3 1.6 0 2.8.6 1.2.6 1.2 2.4v5.4q0 .6.2.7.1.2.4.3v.4h-2.8l-.1-.5v-.6l-1.3 1q-.8.4-1.8.4-1.3 0-2.2-.7-.8-.8-.8-2.1 0-1.8 1.4-2.6.7-.4 2.2-.6l.8-.1zm.1-4zm11.4 0h.3v2.6h-.7q-1.5 0-2 1-.3.5-.3 1.6V39h-2.6v-9.6h2.4v1.7q.6-1 1-1.3.7-.6 1.9-.6zm5.3 0q.9 0 1.5.4.7.4 1.1 1v-4.5h2.6V39h-2.5v-1.3q-.5.8-1.2 1.2-.7.4-1.7.4-1.7 0-2.8-1.4-1.2-1.3-1.2-3.4 0-2.5 1.2-3.9 1.1-1.4 3-1.4zm.5 8q1.1 0 1.7-.8.5-.8.5-2 0-1.8-.9-2.6-.5-.4-1.2-.4-1.1 0-1.7.8-.5.8-.5 2 0 1.4.5 2.2.6.8 1.6.8zm10.7-6q-.8 0-1.3.6-.5.5-.6 1.5h3.9q0-1-.6-1.6-.6-.5-1.4-.5zm0-2q1.2 0 2.2.4 1 .5 1.6 1.4.5.9.7 2v2h-6.5q0 1.4 1 2 .5.4 1.2.4.8 0 1.2-.5.3-.2.5-.6h2.6q-.1.8-1 1.7-1.2 1.4-3.4 1.4-1.8 0-3.2-1.2-1.4-1.1-1.4-3.8 0-2.5 1.3-3.8 1.2-1.3 3.2-1.3zm.2 0zm9.6 0q.9 0 1.6.4.6.4 1 1v-4.5h2.6V39H290v-1.3q-.6.8-1.3 1.2-.6.4-1.7.4-1.6 0-2.8-1.4-1.1-1.3-1.1-3.4 0-2.5 1-3.9 1.2-1.4 3.1-1.4zm.6 8q1 0 1.6-.8.5-.8.5-2 0-1.8-.9-2.6-.5-.4-1.2-.4-1.1 0-1.6.8t-.5 2q0 1.4.5 2.2.5.8 1.6.8zm11.5-4.6q0-3.4 1.8-5.2 1.6-1.6 4-1.6 3.3 0 4.8 2.1.9 1.2 1 2.5H308q-.2-1-.6-1.4-.8-.9-2.2-.9-1.5 0-2.4 1.2-.8 1.2-.8 3.4t.9 3.2q.9 1.1 2.3 1.1t2.2-1q.4-.4.6-1.4h2.7q-.3 2.1-1.8 3.4-1.4 1.4-3.7 1.4-2.8 0-4.4-1.8-1.6-1.8-1.6-5zm5.8-7zM315.2 39h-2.5V26h2.5v13zm5-9.6v5.8q0 .8.2 1.2.3.8 1.3.8 1.3 0 1.8-1 .2-.6.2-1.6v-5.2h2.6V39h-2.5v-1.4l-.2.3q0 .2-.3.4l-1.1.7q-.6.2-1.3.2-2.1 0-2.9-1.5-.4-.9-.4-2.5v-5.8h2.6zm1.7-.2zm8.7 6.8q.1.6.4.9.4.5 1.7.5.7 0 1.2-.2.4-.2.4-.7 0-.4-.3-.6l-2.7-.8q-1.6-.4-2.2-1-.7-.6-.7-1.7 0-1.3 1-2.3 1-1 3-1 1.8 0 2.9.8 1.1.7 1.3 2.4H334q0-.4-.3-.7-.4-.5-1.4-.5-.8 0-1.2.2-.3.3-.3.6 0 .4.4.6.3.2 2.6.7 1.5.4 2.2 1.1.7.7.7 1.8 0 1.4-1 2.3-1 1-3.3 1t-3.3-1q-1.1-1-1.1-2.5h2.5zm2-6.8zm5.1 2.1v-1.8h1.4v-2.7h2.4v2.7h1.6v1.8h-1.6v5q0 .6.2.8l.9.1h.5v1.9h-1.2q-1.8 0-2.4-.6-.4-.4-.4-1.3v-6h-1.4zm10.8-.1q-.9 0-1.4.6-.4.5-.6 1.5h4q-.1-1-.7-1.6-.5-.5-1.3-.5zm0-2q1.2 0 2.1.4 1 .5 1.6 1.4.6.9.8 2v2h-6.5q0 1.4.9 2 .5.4 1.2.4.8 0 1.3-.5.3-.2.5-.6h2.5q0 .8-.9 1.7-1.2 1.4-3.4 1.4-1.8 0-3.2-1.2-1.4-1.1-1.4-3.8 0-2.5 1.2-3.8 1.3-1.3 3.3-1.3zm.2 0zm11.3 0h.3v2.6h-.7q-1.6 0-2 1-.4.5-.4 1.6V39h-2.5v-9.6h2.4v1.7q.6-1 1-1.3.7-.6 1.8-.6z" font-weight="700" font-size="18" font-family="Helvetica,Arial,sans-serif"/><path d="M141.2 237.5l-.2 4.6h-1l-.2-4.6h1.4zm-2.6 0l-.3 4.6h-1l-.2-4.6h1.5zm4.8 0h1.8l5.8 9.3v-9.3h1.5V249h-1.7l-6-9.3v9.3h-1.4v-11.5zm4.5 0zm12.9 6.8l-1.7-5-1.9 5h3.6zm-2.5-6.8h1.7l4.2 11.5h-1.7l-1.2-3.4h-4.5l-1.3 3.4H154l4.3-11.5zm.8 0zm10 0l-.2 4.6h-1l-.2-4.6h1.4zm-2.6 0l-.3 4.6h-1l-.2-4.6h1.5zm8.4 10.2l7-8.8h-6.5v-1.4h8.5v1.4l-7 8.7h7v1.4h-9v-1.3zm4.8-10.2zm9 10.5q1.4 0 1.9-1t.5-2.3q0-1.2-.4-2-.6-1-2-1-1.3 0-1.9.9-.6 1-.6 2.4 0 1.3.6 2.2.6.9 1.9.9zm0-7.6q1.6 0 2.8 1 1 1.1 1 3.2 0 2-1 3.4-.9 1.3-3 1.3-1.7 0-2.7-1.2-1-1.1-1-3.1 0-2.1 1-3.4 1.1-1.2 3-1.2zm0 0zm5.6.2h1.3v1.2q.6-.7 1.2-1 .7-.4 1.5-.4 1.8 0 2.4 1.3.4.7.4 2v5.3h-1.5v-5.3q0-.7-.2-1.2-.4-.8-1.3-.8l-.9.1q-.5.2-1 .7-.3.4-.4.9l-.1 1.2v4.4h-1.5v-8.4zm3.3-.2zm9 0q1 0 1.8.5.8.4 1.2 1 .5.7.6 1.5l.1 1.9h-6.1q0 1.2.6 2t1.7.8q1.1 0 1.8-.7.4-.5.5-1h1.4q0 .4-.4 1l-.6 1q-.7.6-1.6.8l-1.2.1q-1.5 0-2.6-1.1-1.1-1.2-1.1-3.2t1-3.3q1.2-1.3 3-1.3zm2.3 3.7q-.1-.9-.4-1.4-.6-1-2-1-1 0-1.6.7-.6.7-.7 1.7h4.7zm-2.4-3.7zm205.7-2.9l-.2 4.6h-1l-.2-4.6h1.4zm-2.6 0l-.3 4.6h-1l-.2-4.6h1.5zm5 0h8.3v1.4h-6.8v3.5h6.3v1.3h-6.3v4h7v1.3h-8.5v-11.5zm4.2 0zm8 0v7.1q0 1.3.4 2.1.7 1.2 2.4 1.2 2 0 2.7-1.3.4-.7.4-2v-7h1.5v6.4q0 2-.5 3.2-1 2.1-4 2.1-2.9 0-4-2-.5-1.2-.5-3.3v-6.5h1.6zm3 0zm10.3 0l-.2 4.6h-1l-.2-4.6h1.4zm-2.6 0l-.3 4.6h-1l-.2-4.6h1.5zm8.4 10.2l7-8.8h-6.5v-1.4h8.5v1.4l-7 8.7h7v1.4h-9v-1.3zm4.8-10.2zm9 10.5q1.4 0 1.9-1t.5-2.3q0-1.2-.4-2-.6-1-2-1-1.3 0-1.9.9-.6 1-.6 2.4 0 1.3.6 2.2.6.9 1.9.9zm0-7.6q1.6 0 2.8 1 1 1.1 1 3.2 0 2-1 3.4-.9 1.3-3 1.3-1.7 0-2.7-1.2-1-1.1-1-3.1 0-2.1 1-3.4 1.1-1.2 3-1.2zm0 0zm5.6.2h1.3v1.2q.6-.7 1.2-1 .7-.4 1.5-.4 1.8 0 2.4 1.3.4.7.4 2v5.3h-1.5v-5.3q0-.7-.2-1.2-.4-.8-1.3-.8l-.9.1q-.5.2-1 .7-.3.4-.4.9l-.1 1.2v4.4h-1.4v-8.4zm3.3-.2zm9 0q1 0 1.8.5.8.4 1.2 1 .5.7.6 1.5l.1 1.9h-6.1q0 1.2.6 2t1.7.8q1.1 0 1.8-.7.4-.5.5-1h1.4q0 .4-.4 1l-.6 1q-.7.6-1.6.8l-1.2.1q-1.5 0-2.6-1.1-1.1-1.2-1.1-3.2t1-3.3q1.2-1.3 3-1.3zm2.3 3.7q-.1-.9-.4-1.4-.6-1-2-1-1 0-1.6.7-.6.7-.7 1.7h4.7zm-2.4-3.7z" font-size="16" font-family="Helvetica,Arial,sans-serif"/></svg>