<svg width="215.8" height="157.4" xmlns="http://www.w3.org/2000/svg"><path d="M215.3 5.6c0-2.8-3.1-5.1-7-5.1H7.5c-3.9 0-7 2.3-7 5v146.3c0 2.9 3.1 5.1 7 5.1h200.8c3.9 0 7-2.2 7-5V5.5" fill="#5ca831"/><path d="M215.3 5.6c0-2.8-3.1-5.1-7-5.1H7.5c-3.9 0-7 2.3-7 5v146.3c0 2.9 3.1 5.1 7 5.1h200.8c3.9 0 7-2.2 7-5V5.5" stroke="#aed675" stroke-dasharray="3, 2" fill="none"/><path d="m-31.6-.5-1.8-1q-1.6-1.1-2.4-2-.7-1-.7-2.4 0-1.9 1.4-3.1 1.3-1.2 3.5-1.2 2 0 3.7 1.1v2.7q-1.7-1.7-3.8-1.7-1.1 0-1.9.5-.7.6-.7 1.4 0 .7.5 1.4.6.6 1.8 1.3l1.8 1q3 1.9 3 4.6 0 2-1.3 3.2Q-30 6.6-32 6.6q-2.4 0-4.4-1.5V2q2 2.4 4.4 2.4 1.1 0 1.8-.6.8-.6.8-1.6 0-1.5-2.2-2.8zM-25-10h2.2v7q1.3-1.6 3.3-1.6 1 0 2 .5.8.6 1.2 1.5.4 1 .4 2.8v6.2H-18V-.3q0-1.2-.6-1.9t-1.5-.7q-.7 0-1.4.3-.6.4-1.3 1.2v7.8H-25zM-6.1-.1v4.6q0 .5.3.5.4 0 1.2-.6v1.3l-1.1.7-1 .2q-1.3 0-1.6-1.1-1.3 1-2.9 1-1 0-1.8-.7-.8-.8-.8-1.9 0-1 .7-1.8.8-.8 2.1-1.3l2.8-1v-.5q0-2-2-2-1.7 0-3.4 1.9v-2.4q1.3-1.4 3.6-1.4 1.7 0 2.8.9l.6.8.4 1v1.8zm-2.1 4.3V1l-1.5.6q-1 .4-1.5.9-.5.4-.5 1 0 .7.5 1.1.4.5 1 .5 1 0 2-.9zm7.8-8.6V-2l.2-.2q1.5-2.5 3-2.5 1.3 0 2.6 1.2l-1.2 2q-1-1-2-1t-1.8.9Q-.4-.6-.4.7v5.7h-2.1V-4.4zM13.7-10h2.1V6.4h-4.5q-2.4 0-3.8-1.5Q6 3.3 6 .8q0-2.4 1.5-4Q9-4.5 11.4-4.5q1 0 2.3.4zm0 14.5v-6.8q-1-.5-2-.5-1.6 0-2.6 1-.9 1-.9 2.9 0 1.6.8 2.5.5.6 1 .8l2 .1zm14.8-14.6H30l7.4 16.5H35l-2.2-4.9h-7l-2 4.9h-2.4zm3.4 9.5-2.6-5.9-2.5 6z" style="font-size:24px;font-family:GillSans;fill:#fffffe" transform="translate(69 15.6)" aria-label="Shard A"/><path d="M143.5 9.3h47.7V67h-47.7z" fill="#fff"/><path d="M143.5 9.3h47.7V67h-47.7z" stroke="#0c60b2" fill="none"/><path d="M135 15.9h49.2v58.3H135z" fill="#fff"/><path d="M135 15.9h49.2v58.3H135z" stroke="#0c60b2" fill="none"/><path d="m-19-7.6.9 1q-1.1.7-1.8 1.5-.8.8-1.1 2 .7-.4 1.5-.4 1 0 1.9.8.7.8.7 2 0 1.1-.8 2-.8.8-2 .8-1.4 0-2.2-1-.9-.9-.9-2.4 0-1.2.5-2.3.4-1.1 1.2-2.1.8-1 2-1.9zm-2.3 5.9-.1.7q0 .8.5 1.3.4.6 1.2.6.6 0 1-.5.5-.4.5-1.1 0-.7-.5-1.1-.4-.5-1.2-.5-.4 0-.7.2-.3 0-.7.4zm9.9-6h.5v5.4h1.1v1.1h-1V2h-1.4v-3.2h-4v-.5zm-.8 5.4v-2.8l-2.2 2.8zM-7.9.5q.4 0 .6.2.3.3.3.6t-.3.6q-.2.2-.6.2-.3 0-.5-.2-.3-.3-.3-.6t.3-.6q.2-.2.5-.2zm4.4-8H-2V2h-1.4zm16.7 0h1.3V2H13v-7.4l-3 3.7-3-3.7V2H5.7v-9.5H7l3 3.9zM19.8 2h-3.3v-9.5h2.6q1.1 0 1.8.3t1 .8q.4.6.4 1.3 0 1.4-1.5 2 1 .2 1.7 1 .6.6.6 1.5 0 .7-.4 1.3-.4.6-1.1 1-.7.3-1.8.3ZM19-6.3h-1.2v2.8h1q1 0 1.5-.4.4-.4.4-1 0-1.4-1.7-1.4zm.1 4h-1.3v3h2.9l.6-.6q.3-.4.3-.8 0-.5-.3-.8-.2-.4-.7-.6l-1.5-.1z" style="font-size:14px;font-family:GillSans;fill:#301e12" transform="translate(159 47.3)" aria-label="64.1 MB"/><path d="M143.5 86.7h47.7v63.7h-47.7z" fill="#fff"/><path d="M143.5 86.7h47.7v63.7h-47.7z" stroke="#0c60b2" fill="none"/><path d="M135 93.2h49.2v58.3H135z" fill="#fff"/><path d="M135 93.2h49.2v58.3H135z" stroke="#0c60b2" fill="none"/><path d="m-19-7.6.9 1q-1.1.7-1.8 1.5-.8.8-1.1 2 .7-.4 1.5-.4 1 0 1.9.8.7.8.7 2 0 1.1-.8 2-.8.8-2 .8-1.4 0-2.2-1-.9-.9-.9-2.4 0-1.2.5-2.3.4-1.1 1.2-2.1.8-1 2-1.9zm-2.3 5.9-.1.7q0 .8.5 1.3.4.6 1.2.6.6 0 1-.5.5-.4.5-1.1 0-.7-.5-1.1-.4-.5-1.2-.5-.4 0-.7.2-.3 0-.7.4zm9.9-6h.5v5.4h1.1v1.1h-1V2h-1.4v-3.2h-4v-.5zm-.8 5.4v-2.8l-2.2 2.8zM-7.9.5q.4 0 .6.2.3.3.3.6t-.3.6q-.2.2-.6.2-.3 0-.5-.2-.3-.3-.3-.6t.3-.6q.2-.2.5-.2zm4.4-8H-2V2h-1.4zm16.7 0h1.3V2H13v-7.4l-3 3.7-3-3.7V2H5.7v-9.5H7l3 3.9zM19.8 2h-3.3v-9.5h2.6q1.1 0 1.8.3t1 .8q.4.6.4 1.3 0 1.4-1.5 2 1 .2 1.7 1 .6.6.6 1.5 0 .7-.4 1.3-.4.6-1.1 1-.7.3-1.8.3ZM19-6.3h-1.2v2.8h1q1 0 1.5-.4.4-.4.4-1 0-1.4-1.7-1.4zm.1 4h-1.3v3h2.9l.6-.6q.3-.4.3-.8 0-.5-.3-.8-.2-.4-.7-.6l-1.5-.1z" style="font-size:14px;font-family:GillSans;fill:#301e12" transform="translate(159.6 125.2)" aria-label="64.1 MB"/><path d="M39.2 46H87v57.5H39.2Z" fill="#fff"/><path d="M39.2 46H87v57.5H39.2Z" stroke="#0c60b2" stroke-width=".9" stroke-dasharray="1.858, 0.929" fill="none"/><path d="M30.7 52.4H80v58.3H30.7Z" fill="#fff"/><path d="M30.7 52.4H80v58.3H30.7Z" stroke="#0c60b2" stroke-width=".9" stroke-dasharray="1.858, 0.929" fill="none"/><path d="M-21-4.3h1.2v8.2H-21zm6 7h3.2V4H-17v-.1l.5-.6 1.9-2.4.8-1.5q.3-.5.3-1 0-.7-.4-1.2-.4-.4-1-.4t-1 .3l-1 .8v-1.5q1-.7 2-.7 1.1 0 1.8.7t.7 1.8l-.2 1q-.1.6-.6 1.3-.4.8-1.5 2zm4.2-4.8q0-1 .7-1.7.7-.6 1.8-.6 1 0 1.7.6.7.7.7 1.7t-1 1.8q1.1.6 1.1 2 0 1-.7 1.6-.7.7-1.9.7-1 0-1.8-.7t-.8-1.7q0-1.2 1.2-2-.6-.3-.8-.8-.2-.4-.2-1zm3.7 0q0-.5-.3-.9-.4-.3-1-.3-.5 0-.9.3-.3.4-.3.9t.3.9q.4.3 1 .3.5 0 .9-.3.3-.4.3-.9zm.1 3.8v-.2q0-.5-.4-.9-.4-.3-1-.3t-1 .3q-.4.4-.4 1 0 .5.4.9.4.3 1 .3.7 0 1-.3.4-.3.4-.8zm3 .9.4.2q.2.2.2.5t-.2.5q-.2.2-.5.2t-.5-.2q-.2-.2-.2-.5t.2-.5q.2-.2.5-.2zm3.7.1h3.1V4h-5.2v-.1l.5-.6L0 .8.9-.7l.2-1Q1-2.4.7-3q-.4-.4-1-.4t-1 .3q-.5.3-.9.8v-1.5q1-.7 2-.7t1.7.7q.7.7.7 1.8l-.1 1L1.5.5 0 2.4Zm14.3-7h1v8.2h-1v-6.4L11.4.7h-.2L8.6-2.5v6.4H7.4v-8.2h1.1L11.3-1zm5.6 8.2h-2.8v-8.2H19q1 0 1.6.2.5.3.8.8.3.5.3 1.1 0 1.2-1.2 1.7.9.2 1.4.8.5.5.5 1.3 0 .7-.3 1.1-.3.5-1 .8-.5.4-1.5.4ZM19-3.3h-1v2.5h.8q1 0 1.3-.4.4-.3.4-1 0-1-1.5-1zm.1 3.5h-1v2.6h1l1.4-.1.5-.5q.2-.3.2-.7 0-.4-.2-.7-.2-.3-.6-.4Q20 .2 19 .2Z" style="font-size:12px;font-family:GillSans;fill:#301e12" transform="translate(54.8 83)" aria-label="128.2 MB"/><g stroke="#0c60b2"><path d="M84.4 79.6 121 57.8" stroke-dasharray="2, 1" fill="none"/><path d="m122.5 60.4 5.3-6.7-8.4 1.5z" fill="#0c60b2"/></g><g stroke="#0c60b2"><path d="m84.4 82.2 36.5 21.7" stroke-dasharray="2, 1" fill="none"/><path d="m119.4 106.5 8.4 1.5-5.3-6.6z" fill="#0c60b2"/></g><path d="m-8.7.5-1-.6q-1-.6-1.4-1.2-.4-.6-.4-1.3 0-1.2.7-1.9.8-.7 2-.7 1.3 0 2.3.7V-3q-1-1-2.2-1-.7 0-1.1.4-.5.3-.5.8 0 .4.3.8l1 .8 1.1.6Q-6.1.4-6.1 2q0 1.2-.8 1.9t-2 .7q-1.4 0-2.6-.9V2q1.1 1.4 2.6 1.4.6 0 1-.3.5-.4.5-1 0-.8-1.3-1.6zm3.8 7.2v-9.5h2.2q1.7 0 2.6.8 1 .9 1 2.4 0 1.4-1 2.3-.8 1-2.2 1-.6 0-1.3-.4v3.4zm2.2-8.3h-1v3.8q.7.3 1.3.3.9 0 1.4-.6.6-.6.6-1.5Q-.4.7-.7.3q-.2-.5-.7-.7-.5-.2-1.3-.2zM2.2-5h1.3v9.5H2.2Zm3.8.6.4.2q.3.2.3.5t-.3.5L6-3l-.5-.2q-.2-.2-.2-.5t.2-.5q.2-.2.5-.2zm-.7 2.6h1.2v6.3H5.3Zm2.1 1L9.8-3v1.3h2v1.1h-2v3.1q0 1.1.9 1.1.6 0 1.4-.5v1.2q-.7.4-1.6.4-.8 0-1.4-.5l-.3-.3-.2-.5v-4H7.3z" style="font-size:14px;font-family:GillSans;fill:#0c60b2" transform="rotate(-31 158.7 -152)" aria-label="Split"/><path d="m-8.7.5-1-.6q-1-.6-1.4-1.2-.4-.6-.4-1.3 0-1.2.7-1.9.8-.7 2-.7 1.3 0 2.3.7V-3q-1-1-2.2-1-.7 0-1.1.4-.5.3-.5.8 0 .4.3.8l1 .8 1.1.6Q-6.1.4-6.1 2q0 1.2-.8 1.9t-2 .7q-1.4 0-2.6-.9V2q1.1 1.4 2.6 1.4.6 0 1-.3.5-.4.5-1 0-.8-1.3-1.6zm3.8 7.2v-9.5h2.2q1.7 0 2.6.8 1 .9 1 2.4 0 1.4-1 2.3-.8 1-2.2 1-.6 0-1.3-.4v3.4zm2.2-8.3h-1v3.8q.7.3 1.3.3.9 0 1.4-.6.6-.6.6-1.5Q-.4.7-.7.3q-.2-.5-.7-.7-.5-.2-1.3-.2zM2.2-5h1.3v9.5H2.2Zm3.8.6.4.2q.3.2.3.5t-.3.5L6-3l-.5-.2q-.2-.2-.2-.5t.2-.5q.2-.2.5-.2zm-.7 2.6h1.2v6.3H5.3Zm2.1 1L9.8-3v1.3h2v1.1h-2v3.1q0 1.1.9 1.1.6 0 1.4-.5v1.2q-.7.4-1.6.4-.8 0-1.4-.5l-.3-.3-.2-.5v-4H7.3z" style="font-size:14px;font-family:GillSans;fill:#0c60b2" transform="rotate(29 -138.7 244.1)" aria-label="Split"/></svg>