<?xml version="1.0" encoding="UTF-8"?>
<!DOCTYPE svg PUBLIC "-//W3C//DTD SVG 1.1//EN" "http://www.w3.org/Graphics/SVG/1.1/DTD/svg11.dtd">
<svg version="1.1" xmlns="http://www.w3.org/2000/svg" xmlns:xlink="http://www.w3.org/1999/xlink" x="0px" y="0px" width="590" height="200" viewBox="0, 0, 590, 200">
  <g id="Layer 1">
    <g>
      <g>
        <g>
          <path d="M295.975,26.212 L253.048,26.013" fill-opacity="0" stroke="#5CA831" stroke-width="2"/>
          <path d="M253.065,22.413 L243.448,25.969 L253.031,29.613 z" fill="#5CA831" fill-opacity="1" stroke="#5CA831" stroke-width="2" stroke-opacity="1"/>
        </g>
        <text transform="matrix(1, 0, 0, 1, 359.916, 23.822)">
          <tspan x="-49.957" y="7.5" font-family="GillSans" font-size="24" fill="#2A86C0">collection</tspan>
        </text>
      </g>
      <g>
        <g>
          <path d="M295.975,80.195 L253.048,79.995" fill-opacity="0" stroke="#5CA831" stroke-width="2"/>
          <path d="M253.065,76.396 L243.448,79.951 L253.031,83.595 z" fill="#5CA831" fill-opacity="1" stroke="#5CA831" stroke-width="2" stroke-opacity="1"/>
        </g>
        <text transform="matrix(1, 0, 0, 1, 369.797, 80.654)">
          <tspan x="-59.839" y="6.414" font-family="GillSans" font-size="24" fill="#2A86C0">field: value</tspan>
        </text>
      </g>
      <g>
        <g>
          <path d="M295.975,106.781 L253.048,106.581" fill-opacity="0" stroke="#5CA831" stroke-width="2"/>
          <path d="M253.065,102.981 L243.448,106.537 L253.031,110.181 z" fill="#5CA831" fill-opacity="1" stroke="#5CA831" stroke-width="2" stroke-opacity="1"/>
        </g>
        <text transform="matrix(1, 0, 0, 1, 369.797, 107.24)">
          <tspan x="-59.839" y="6.414" font-family="GillSans" font-size="24" fill="#2A86C0">field: value</tspan>
        </text>
      </g>
      <g>
        <g>
          <path d="M295.975,133.34 L253.048,133.141" fill-opacity="0" stroke="#5CA831" stroke-width="2"/>
          <path d="M253.065,129.541 L243.448,133.097 L253.031,136.741 z" fill="#5CA831" fill-opacity="1" stroke="#5CA831" stroke-width="2" stroke-opacity="1"/>
        </g>
        <text transform="matrix(1, 0, 0, 1, 369.797, 133.799)">
          <tspan x="-59.839" y="6.414" font-family="GillSans" font-size="24" fill="#2A86C0">field: value</tspan>
        </text>
      </g>
    </g>
    <text transform="matrix(1, 0, 0, 1, 116.249, 103.156)">
      <tspan x="-109.558" y="-70.5" font-family="Inconsolata" font-size="24" fill="#06345E">db.</tspan>
      <tspan x="-73.558" y="-70.5" font-family="Inconsolata" font-size="24" fill="#2A86C0">users</tspan>
      <tspan x="-13.558" y="-70.5" font-family="Inconsolata" font-size="24" fill="#06345E">.insert (</tspan>
      <tspan x="-109.558" y="-44.5" font-family="Inconsolata" font-size="24" fill="#D33907">   </tspan>
      <tspan x="-73.558" y="-44.5" font-family="Inconsolata" font-size="24" fill="#2A86C0">{ </tspan>
      <tspan x="-109.558" y="-18.5" font-family="Inconsolata" font-size="24" fill="#D33907">     </tspan>
      <tspan x="-49.558" y="-18.5" font-family="Inconsolata" font-size="24" fill="#2A86C0">name: "sue", </tspan>
      <tspan x="-109.558" y="7.5" font-family="Inconsolata" font-size="24" fill="#D33907">     </tspan>
      <tspan x="-49.558" y="7.5" font-family="Inconsolata" font-size="24" fill="#2A86C0">age: 26,</tspan>
      <tspan x="-109.558" y="33.5" font-family="Inconsolata" font-size="24" fill="#D33907">     </tspan>
      <tspan x="-49.558" y="33.5" font-family="Inconsolata" font-size="24" fill="#2A86C0">status: "A"</tspan>
      <tspan x="-109.558" y="59.5" font-family="Inconsolata" font-size="24" fill="#D33907">   </tspan>
      <tspan x="-73.558" y="59.5" font-family="Inconsolata" font-size="24" fill="#2A86C0">}</tspan>
      <tspan x="-109.558" y="85.5" font-family="Inconsolata" font-size="24" fill="#053056">)</tspan>
    </text>
    <path d="M602.883,354.44 L602.833,354.833" fill-opacity="0" stroke="#5CA831" stroke-width="2"/>
    <path d="M429.277,50.677 L431.304,51.685 L434.782,53.506 L437.498,55.661 L439.123,57.929 L440.082,59.951 L440.53,61.152 L440.504,61.072 L441.041,62.992 L441.571,67.143 L441.52,74.197 L441.066,81.663 L440.885,86.572 L441.054,91.182 L441.807,95.284 L442.502,97.139 L442.502,97.139 C442.53,97.214 442.568,97.282 442.613,97.342 L442.613,97.342 L443.099,97.983 L444.891,99.206 L446.771,100.197 L447.883,101.217 L447.835,101.526 L447.821,100.907 L447.64,101.987 L446.717,103.713 L445.242,106.253 L443.687,109.786 L443.169,111.991 L443.169,111.991 C443.152,112.072 443.141,112.15 443.134,112.225 L443.134,112.225 L442.851,115.56 L442.583,122.155 L442.431,128.448 L442.039,134.34 L441.074,139.733 L439.262,144.454 L437.357,147.275 L435.896,148.788 L433.999,150.347 L431.596,151.903 L430.267,152.623 L430.267,152.623 C428.959,153.35 427.84,154.822 427.768,155.912 C427.695,157.002 428.697,157.296 430.005,156.569 L431.993,155.446 L435.446,153.093 L438.444,150.461 L441.004,147.513 L443.686,143.168 L445.758,137.517 L446.775,131.708 L447.173,125.678 L447.324,119.436 L447.582,112.994 L447.866,109.657 L447.831,109.89 L447.985,108.812 L449.125,106.103 L450.912,102.966 L452.331,99.733 L452.513,98.651 L452.513,98.651 C452.551,98.419 452.546,98.21 452.498,98.032 L452.498,98.032 L452.062,96.914 L450.637,95.679 L448.89,94.765 L447.478,93.897 L446.992,93.256 L447.104,93.459 L446.509,91.958 L445.796,88.226 L445.626,83.842 L445.803,79.011 L446.263,71.368 L446.292,63.946 L445.7,59.483 L445.163,57.562 L445.163,57.562 C445.155,57.535 445.146,57.509 445.137,57.483 L445.137,57.483 L444.627,56.139 L443.517,53.864 L441.607,51.3 L438.647,48.987 L435.138,47.15 L433.11,46.141 C433.11,46.141 433.11,46.141 433.11,46.141 C432.338,45.758 430.854,46.462 429.796,47.714 C428.737,48.967 428.505,50.293 429.277,50.677 L429.277,50.677" fill="#311F13"/>
    <text transform="matrix(1, 0, 0, 1, 516.251, 94.393)">
      <tspan x="-51.873" y="7.5" font-family="GillSans" font-size="24" fill="#312013">document</tspan>
    </text>
  </g>
  <defs/>
</svg>
