<svg xmlns="http://www.w3.org/2000/svg" height="320" width="460"><path d="M22 62c0 1 1.4 2 3 2h169c1.7 0 3-1 3-2V21c0-1.2-1.3-2-3-2H25c-1.6 0-3 .8-3 2v41" fill="#5a5955"/><path d="M76.1 48V31.8h5.5q3.4 0 5.3 1 2 1 3.1 3t1.1 4.2q0 1.7-.6 3.2-.6 1.5-1.8 2.6-1.2 1.2-2.8 1.8l-1.7.5h-8.1zm5.3-14.2h-3V46h3q1.8 0 2.8-.3 1-.2 1.6-.6.6-.3 1.2-.9 1.7-1.7 1.7-4.4T87 35.5q-.6-.6-1.5-1l-1.6-.6h-2.4zM96 37.3v2.5l.2-.2q1.5-2.5 3-2.5 1.3 0 2.6 1.2l-1.1 1.9q-1.1-1-2-1-1.1 0-1.9 1-.7 1-.7 2.3V48h-2.2V37.3h2.2zm8.4-4.5q.5 0 .9.3.4.4.4 1 0 .4-.4.8t-.9.4q-.5 0-.9-.4-.3-.4-.3-.9t.3-.8q.4-.4.9-.4zm-1 4.5h2v10.8h-2V37.3zm11.7 0h2.4l-4.8 11h-.7l-4.9-11h2.3l3 6.6 2.7-6.6zm12.7 5.6h-7.6q0 1.5 1 2.4 1 1 2.5 1 2.1 0 3.9-1.3v2q-1 .7-2 1-1 .3-2.2.3-1.8 0-3-.8-1-.7-1.7-2-.6-1.2-.6-2.9 0-2.4 1.3-4 1.4-1.5 3.7-1.5 2.1 0 3.4 1.5 1.3 1.5 1.3 4v.3zm-7.6-1.3h5.5q-.1-1.3-.8-2-.7-.6-1.8-.6-1.2 0-2 .6-.6.7-.9 2zm12.2-4.3v2.5-.2q1.6-2.5 3.2-2.5 1.2 0 2.5 1.2l-1.1 1.9q-1.1-1-2.1-1t-1.8 1q-.7 1-.7 2.3V48h-2.2V37.3h2.2zM74.8 246v-16.5H80q2.4 0 3.8 1.3 1.4 1.2 1.4 3.4 0 1.4-.7 2.5-.8 1.1-2 1.6t-3.6.5h-1.7v7.1h-2.4zm4.8-14.4h-2.4v5.1h2.6q1.4 0 2.2-.6.7-.7.7-2 0-2.5-3-2.5zm9.6 3.5v2.5l.1-.2q1.6-2.5 3.1-2.5 1.2 0 2.5 1.2l-1 2q-1.2-1.1-2.2-1.1-1 0-1.7 1-.8 1-.8 2.3v5.6h-2.1v-10.8h2.1zm8.3-4.5q.6 0 1 .4.3.3.3.8 0 .6-.4 1-.3.3-.9.3-.5 0-.8-.4-.4-.3-.4-.9 0-.4.4-.8.3-.4.8-.4zm-1 4.5h2.1V246h-2.1v-10.8zm14 2.9v8h-2.1v-6q0-1.9-.5-2.6-.5-.7-1.7-.7-.7 0-1.2.3-.6.3-1.3 1v8h-2.1v-11h2.1v1.4q1.7-1.6 3.2-1.6 2 0 3.2 2 1.7-2 3.6-2 1.5 0 2.5 1.1 1 1.2 1 3.5v6.4h-2v-6.4q0-1.3-.6-2-.6-.8-1.6-.8-1.3 0-2.5 1.4zm16.5 1.4v4.6q0 .6.3.6.4 0 1.2-.6v1.3q-.7.5-1.2.6-.4.2-.9.2-1.4 0-1.6-1-1.4 1-2.9 1-1.1 0-1.9-.8-.7-.7-.7-1.8 0-1 .7-1.9.7-.8 2.1-1.2l2.7-1v-.5q0-2-2-2-1.7 0-3.3 1.8v-2.3q1.2-1.5 3.6-1.5 1.7 0 2.8 1l.6.7q.3.5.3 1l.1 1.8zm-2.2 4.4v-3.2l-1.4.5q-1 .5-1.5 1-.5.3-.5 1t.4 1q.5.5 1.1.5 1 0 2-.8zm7.9-8.7v2.5l.1-.2q1.6-2.5 3.1-2.5 1.2 0 2.5 1.2l-1 2q-1.2-1.1-2.2-1.1-1 0-1.7 1-.8 1-.8 2.3v5.6h-2.1v-10.8h2.1zm14.5 0h2.4l-7.6 16.3h-2.4l3.7-7.8-4.2-8.5h2.4l3 6.1 2.7-6z" font-size="24" font-family="GillSans" fill="#fffffe"/><path d="M246.5 136v2.2l-16.5-6.6v-.5l13.4-5.3-13.4-5.4v-.5l16.5-6.6v2.3l-11.3 4.5 11.3 4.6v2.2l-11.3 4.5 11.3 4.5zm-5.6 6h-2.5l.2.2q2.5 1.6 2.5 3.1 0 1.2-1.2 2.5l-1.9-1.1q1-1.1 1-2 0-1.1-1-1.9-1-.7-2.3-.7h-5.6v-2.2H241v2.2zm4.5 8.4q0 .5-.3 1-.4.3-1 .3-.4 0-.8-.4t-.4-.9q0-.5.4-.8.4-.4.9-.4t.8.4q.4.3.4.8zm-4.5-1v2.1H230v-2.1h11zm-1.7 3.6l4 4h-2.3v3.5h-2V157h-5.2q-1.9 0-1.9 1.5 0 1.1.8 2.4h-2q-.7-1.2-.7-2.7 0-1.4.9-2.4.2-.3.6-.5l.8-.3q.5-.2 2-.2h4.8V153h.2zm-3.9 18.8v-7.6q-1.5 0-2.4 1-1 1-1 2.5 0 2.1 1.4 3.9h-2.1q-.7-1-1-2-.3-1-.3-2.2 0-1.8.8-3 .7-1 2-1.7 1.2-.6 2.9-.6 2.4 0 4 1.4 1.5 1.3 1.5 3.6 0 2.1-1.5 3.4-1.5 1.3-4 1.3h-.3zm1.3-7.6v5.5q1.3-.1 2-.8.7-.7.7-1.8 0-1.2-.7-2-.7-.6-2-.9z" font-size="24" font-family="GillSans" fill="#3299cc"/><g stroke="#3299cc" stroke-width="4"><path d="M224.1 45.4l1.2 183.5" fill="none"/><path d="M220.5 229l4.9 12.7L230 229z" fill="#3299cc"/></g><path d="M197 229.8c0-.8-2.5-1.5-5.6-1.5H27.7c-3 0-5.6.7-5.6 1.5v42c0 .9 2.5 1.5 5.6 1.5h163.7c3.1 0 5.7-.6 5.7-1.4v-42.1" fill="#2a86c0"/><path d="M85.2 250.4v7.8H83v-6q0-1.8-.4-2.5-.5-.7-1.7-.7-.7 0-1.3.3l-1.2 1v7.9h-2.2v-10.8h2.2v1.4q1.6-1.6 3.2-1.6 2 0 3.1 2 1.8-2 3.6-2 1.6 0 2.6 1.1 1 1.2 1 3.5v6.4h-2.1v-6.4q0-1.3-.6-2-.5-.8-1.6-.8-1.3 0-2.4 1.4zm14.8-3q2.4 0 4 1.6 1.7 1.6 1.7 4 0 2.3-1.7 3.9-1.6 1.5-4.1 1.5-2.5 0-4-1.6-1.7-1.5-1.7-3.9t1.6-4q1.7-1.5 4.2-1.5zm-.2 2q-1.5 0-2.5 1t-1 2.5q0 1.5 1 2.5t2.6 1q1.6 0 2.6-1t1-2.5q0-1.6-1-2.6t-2.7-1zm10.4-2v1.4q1.4-1.6 3.2-1.6 1 0 1.9.5.8.6 1.3 1.5t.5 2.8v6.2h-2.2v-6.1q0-1.7-.5-2.4t-1.7-.7q-1.5 0-2.5 1.5v7.7H108v-10.8h2.2zm9.3 3.7q0-1.7 1.2-2.7 1.3-1 3.5-1h4.4v1.7h-2.2q.7.6 1 1.2.2.5.2 1.2 0 .8-.5 1.6t-1.3 1.3q-.7.4-2.4.7-1.2.1-1.2.8 0 .4.4.6l1.6.5q2 .4 2.6.7.6.2 1 .7.8.8.8 2 0 1.5-1.4 2.4-1.3.9-3.6.9t-3.7-1q-1.4-.8-1.4-2.4 0-2.2 2.7-2.8-1-.7-1-1.4 0-.5.4-1 .5-.3 1.3-.5-2.4-1.1-2.4-3.5zm4-1.8q-.9 0-1.5.6-.6.5-.6 1.4 0 .8.6 1.3.6.6 1.5.6 1 0 1.5-.6.6-.5.6-1.4 0-.8-.6-1.4-.6-.5-1.5-.5zm-.5 9.4q-1.1 0-1.8.5-.7.4-.7 1.1 0 1.7 3 1.7 1.5 0 2.2-.4.8-.4.8-1.2 0-.7-1-1.2t-2.5-.5zm12.2-11.3q2.5 0 4.1 1.6 1.6 1.6 1.6 4 0 2.3-1.6 3.9-1.7 1.5-4.2 1.5-2.4 0-4-1.6-1.7-1.5-1.7-3.9t1.7-4q1.6-1.5 4.1-1.5zm-.1 2q-1.5 0-2.5 1t-1 2.5q0 1.5 1 2.5t2.6 1q1.6 0 2.6-1t1-2.5q0-1.6-1-2.6-1.1-1-2.7-1zm15.4-7.6h2.1v16.4h-4.5q-2.4 0-3.9-1.5-1.4-1.5-1.4-4 0-2.4 1.5-4 1.5-1.5 3.8-1.5 1.1 0 2.4.4v-5.8zm0 14.6v-6.9q-1-.5-2-.5-1.6 0-2.6 1-1 1.1-1 2.9 0 1.7.9 2.6.5.5 1 .7.6.2 2 .2h1.7z" font-size="24" font-family="GillSans" fill="#fff"/><g stroke="#3299cc" stroke-width="4"><path d="M300.3 247.2V63.7" fill="none"/><path d="M305.1 63.7l-4.8-12.8-4.8 12.8z" fill="#3299cc"/></g><path d="M306 98.4h16.4v4.2q0 2.4-1.2 3.9-1.3 1.5-3.4 1.5-1.4 0-2.4-.8-1-.7-1.6-2-.5.8-1.4 1.5-.9.8-3.1 2.1l-2.1 1.4-1.2.9v-2.8l1-.7.3-.2.6-.4 1.2-.8 1.3-.7 1.6-1.4.9-1q.2-.5.2-1.7v-.6h-7v-2.4zm14.4 3.1v-.7h-5.2v.9q0 1.8.3 2.4.3.7 1 1 .6.4 1.3.4.8 0 1.4-.4.7-.4 1-1.1.2-.8.2-2.5zm-9.2 20.3v-7.6q-1.5.1-2.4 1-1 1-1 2.5 0 2.1 1.4 4H307q-.7-1-1-2-.3-1-.3-2.3 0-1.8.8-2.9.7-1 2-1.8 1.2-.6 2.9-.6 2.4 0 4 1.4 1.5 1.4 1.5 3.6t-1.5 3.4q-1.5 1.3-4 1.3h-.3zm1.3-7.5v5.4q1.3 0 2-.8.7-.6.7-1.8 0-1.1-.7-1.9-.7-.7-2-1zm-5.7 9.3h2.3l-1 1.8q-.4 1-.4 1.6 0 .7.3 1.2.3.4.8.4.4 0 .8-.3l.9-1.3q1.1-2 2-2.7.7-.7 1.7-.7 1.2 0 2 1t.8 2.5q0 1.6-.9 3.2h-2q1-1.9 1-3 0-.7-.2-1-.3-.4-.7-.4-.4 0-.7.3-.4.4-.8 1.2l-.5.8q-1.5 2.7-3.4 2.7-1.3 0-2.1-1-.9-1.1-.9-2.7 0-1 .2-1.7.2-.8.8-2zm-6.3 9.5h16.3v3.8q0 2.9-1.4 4.5-1.5 1.6-4 1.6t-4-1.6q-1.6-1.5-1.6-3.8 0-1 .5-2.3h-5.8v-2.2zm14.3 3.7v-1.5h-6.6q-.5 1-.5 2 0 1.6 1 2.5 1 1 2.7 1 1 0 1.9-.5.8-.4 1.1-1.2.4-.8.4-2.3zm2 13.6q0 2.5-1.6 4.1-1.6 1.7-4 1.7-2.3 0-3.8-1.7-1.6-1.6-1.6-4.1 0-2.5 1.6-4.1 1.6-1.6 3.9-1.6 2.4 0 4 1.6 1.5 1.7 1.5 4.1zm-1.9 0q0-1.6-1-2.6t-2.6-1q-1.5 0-2.5 1t-1 2.6q0 1.6 1 2.6t2.5 1q1.6 0 2.6-1t1-2.7zm1.9 10.2h-1.4q1.6 1.5 1.6 3.3 0 1-.5 1.9-.5.8-1.5 1.3-.9.4-2.8.4H306v-2.1h6.2q1.6 0 2.3-.5.7-.5.7-1.7 0-1.5-1.5-2.6H306v-2.1h10.8v2.1zm-10 9.4h2.3l-1 1.8q-.4 1-.4 1.6 0 .7.3 1.2.3.4.8.4.4 0 .8-.3l.9-1.3q1.1-2 2-2.7.7-.6 1.7-.6 1.2 0 2 1 .8.9.8 2.4 0 1.6-.9 3.3h-2q1-2 1-3.2 0-.6-.2-1-.3-.3-.7-.3-.4 0-.7.3-.4.4-.8 1.2l-.5.8q-1.5 2.7-3.4 2.7-1.3 0-2.1-1-.9-1-.9-2.7 0-1 .2-1.7.2-.8.8-2zm4.4 18.9v-7.6q-1.5 0-2.4 1-1 1-1 2.5 0 2.1 1.4 3.9H307q-.7-1-1-2-.3-1-.3-2.2 0-1.8.8-3 .7-1 2-1.7 1.2-.6 2.9-.6 2.4 0 4 1.4 1.5 1.4 1.5 3.6 0 2.1-1.5 3.4-1.5 1.3-4 1.3h-.3zm1.3-7.6v5.5q1.3-.1 2-.8.7-.7.7-1.8 0-1.2-.7-1.9t-2-1z" font-size="24" font-family="GillSans" fill="#3299cc"/><g stroke="#3299cc" stroke-width="4"><path d="M224 259.3c-.2 42.2 54.4 48.4 67.6 16" fill="none"/><path d="M296.3 276.1l-2.4-13.4-7 11.8z" fill="#3299cc"/></g><path d="M237.3 295.3h1.6l7.4 16.4h-2.5l-2.1-4.8h-7l-2 4.8h-2.5l7-16.4zm3.4 9.5l-2.6-6-2.5 6h5.1zm6.9 12.4V301h3.8q2.9 0 4.4 1.5 1.7 1.4 1.7 4 0 2.4-1.6 4-1.5 1.5-3.8 1.5-1 0-2.3-.4v5.7h-2.2zm3.7-14.3h-1.5v6.7q1 .5 2 .5 1.6 0 2.5-1 1-1.1 1-2.8 0-1-.5-1.8-.4-.8-1.2-1.2-.8-.4-2.3-.4zm8.3 14.3V301h3.8q2.9 0 4.4 1.5 1.7 1.4 1.7 4 0 2.4-1.6 4-1.5 1.5-3.8 1.5-1 0-2.3-.4v5.7h-2.2zm3.7-14.3h-1.5v6.7q1 .5 2 .5 1.6 0 2.5-1 1-1.1 1-2.8 0-1-.5-1.8-.4-.8-1.2-1.2-.8-.4-2.3-.4zm8.5-7.6h2.2v16.4h-2.2v-16.4zm11.6 5.7h2.4l-7.6 16.2h-2.4l3.7-7.8-4.2-8.5h2.5l2.9 6.1 2.7-6z" font-size="24" font-family="GillSans" fill="#3299cc"/><path d="M197.6 42h250" stroke="#5a5955" stroke-width="4" fill="none"/><path d="M198.4 253.3h250" stroke="#3299cc" stroke-width="4" fill="none"/><path d="M217.7 85.4v1.3h-.7l-6 1.2 5.9 1.4v.8l-5.8 1.7 2.6.4 1.7.3h1.1l1 .1h.2v1.2l-4.2-.6-4-.8v-1.2l5.3-1.5-5.4-1.4V87l8.3-1.7zm0 10.6v1.3H216q.9.3 1.3 1.1.5.9.5 1.8 0 1.3-1 2.2l-1.2-.6.5-.4.3-.3.2-.4v-.6q0-.6-.2-1-.3-.6-.8-1-.4-.4-1-.6-.6-.3-1.3-.3h-4V96h8.3zm0 9v3.3h-7.2v2h-1v-5.4h1v2.2h6.1v-2h1zm3.3 2q.3.3.3.7 0 .4-.3.7-.3.3-.7.3-.4 0-.6-.3-.3-.3-.3-.7 0-.4.3-.6.2-.3.6-.3.4 0 .7.3zm-1.1 8.5l.2 1.5-.3-.1h-.2l-2-.3v2.7h-1v-2.7l-3-.1h-1.4q-.6 0-1 .2-.3.1-.5.4-.2.3-.2.8 0 .8.7 1.8l-1 .4q-1-1.2-1-2.5t.9-2q.8-.5 2.5-.4h1.7l2.3.1v-1.9h1v2l2.3.1zm-2 10.3q0 .7-.3 1.3-.2.6-.7 1-.4.5-1.2.8-.7.3-1.7.3h-.6v-6q-.9.1-1.5.4-.6.2-1 .6-.3.4-.4 1-.2.4-.2.9 0 1.3 1 2.1l-.8.7q-1.2-1-1.2-2.9 0-.9.2-1.6.3-.8.9-1.3.5-.5 1.3-.8.8-.3 1.8-.3t1.9.3q.8.3 1.3.8.6.6.9 1.2.3.7.3 1.5zm-3.5-2.5v4.5h.3l.8-.1.7-.5.5-.7q.2-.3.2-.8 0-.8-.6-1.5t-2-.9zm3.7 14h.4q.5-.4.9-1 .3-.6.3-1.2t-.3-1.2q-.3-.5-.9-1l-1.5-.6q-.8-.2-2-.2-1 0-1.9.2l-1.5.7q-.6.4-1 1l-.2 1.2q0 .7.3 1.3.4.6 1 1l-.6 1-.8-.7-.6-.8-.3-.9-.1-.8q0-1 .3-1.8.3-.7 1-1.3.7-.6 1.8-1 1.1-.3 2.6-.3 1.7 0 2.7.4 1.2.4 1.8 1 .7.7 1 1.4.3.7.3 1.4 0 .6-.2 1.1l-.5 1q-.2.5-.7.8-.4.4-.9.6l-.6-1.2h.2zm-.2 6.4q0 .8-.3 1.4-.3.7-.9 1.2-.6.5-1.4.8-.8.3-1.7.3-1 0-1.8-.3-.8-.2-1.4-.8-.6-.5-.9-1.1-.3-.7-.3-1.5t.4-1.5q.3-.7.8-1.2.6-.5 1.4-.8.8-.3 1.7-.3 1 0 1.7.3.9.3 1.4.8.6.6 1 1.3.3.7.3 1.4zm-4.4 2.4q.8 0 1.4-.2l1-.5.6-.8q.3-.4.3-1 0-.4-.3-.9-.2-.4-.6-.7-.4-.4-1-.6-.6-.2-1.3-.2-.7 0-1.3.2-.6.2-1 .6-.5.3-.7.7l-.2 1 .1 1 .7.7q.4.4 1 .5.6.2 1.3.2zm-4 3.3h8.2v1.3h-1.5q.8.5 1.2 1.2.5.7.5 1.5l-.2 1q-.2.5-.6.8l-1 .5q-.7.2-1.7.2h-5v-1.3h5q1.3 0 1.8-.4t.5-1l-.1-1-.6-.7-.8-.6q-.4-.2-1-.2h-4.7v-1.3zm6.8 16l-1-1h.2l.3-.2q.2 0 .4-.4.5-.6.5-1.7l-.2-1q-.2-.5-.6-.8-.4-.4-1-.6-.5-.2-1.2-.2t-1.3.2q-.6.2-1 .6-.5.4-.7.9-.3.5-.3 1.1 0 1.3 1 2.2l-.9.7q-1.2-1.2-1.2-3 0-.8.3-1.6.3-.7.9-1.3.6-.5 1.3-.8.8-.3 1.8-.3.9 0 1.7.3.8.3 1.3.8.6.6 1 1.3.2.8.2 1.7 0 1-.4 1.8t-1 1.3zm1.6 5.4q0 .7-.3 1.3-.2.6-.7 1-.4.5-1.2.8-.7.3-1.7.3h-.6v-6q-.9.1-1.5.4-.6.2-1 .6-.3.4-.4 1-.2.4-.2.9 0 1.3 1 2.1l-.8.7q-1.2-1-1.2-2.9 0-.9.2-1.6.3-.7.9-1.3.5-.5 1.3-.8.8-.3 1.8-.3t1.9.3q.8.3 1.3.8.6.6.9 1.2.3.7.3 1.5zm-3.5-2.5v4.5h.3l.8-.1.7-.5.5-.7q.2-.3.2-.8 0-.8-.6-1.5t-2-.9zm3.3 8.7v1.3H216q.9.3 1.3 1.1.5.9.5 1.8 0 1.3-1 2.2l-1.2-.6.5-.4.3-.3.2-.4v-.6q0-.6-.2-1-.3-.6-.8-1-.4-.4-1-.6-.6-.3-1.3-.3h-4V177h8.3zm-8.2 8.4h8.2v1.3h-1.5q.8.5 1.2 1.2.5.7.5 1.5l-.2 1q-.2.5-.6.8l-1 .5q-.7.2-1.7.2h-5v-1.3h5q1.3 0 1.8-.4t.5-1l-.1-1-.6-.7-.8-.6q-.4-.2-1-.2h-4.7v-1.3zm7.3 12.8q-.4.3-.8.3t-.7-.3q-.3-.3-.3-.8 0-.4.3-.7.3-.3.7-.3.5 0 .8.3.3.3.3.7 0 .4-.3.8zm-5.8 0q-.3.3-.7.3-.4 0-.7-.3-.3-.3-.3-.8 0-.4.2-.7.3-.3.8-.3.4 0 .7.3.3.3.3.7 0 .4-.3.8zM189.7 88h1.8q1.2 0 1.6-.4.5-.4.5-1.1V86h1v.3q0 .9.4 1.3.5.4 1.5.4h1.3q3.1 0 3.1 3.3v1h-1V91q0-1.7-2-1.7h-1.2q-2 0-2.6-1.5-.5 1.5-2.8 1.5h-1.5q-1.3 0-1.7.5-.5.5-.5 1.8v.9h-1v-2.2q.1-.7.5-1.3.8-1 2.6-1zm8 15.4v1.3h-.7l-6 1.2 5.9 1.4v.8l-5.8 1.7 2.6.4 1.7.3h1.1l1 .1h.2v1.2l-4.2-.6-4-.8v-1.2l5.3-1.5-5.4-1.4V105l8.3-1.7zm-.9 13.8q-.4.3-.8.3t-.7-.3q-.3-.3-.3-.8 0-.4.3-.7.3-.3.7-.3.5 0 .8.3.3.3.3.7 0 .4-.3.8zm-5.8 0q-.3.3-.7.3-.4 0-.7-.3-.3-.3-.3-.8 0-.4.2-.7.3-.3.8-.3.4 0 .7.3.3.3.3.7 0 .4-.3.8zm9.7 18.3h-11.2v-1.2h9.6l-.6-2.3.7-.3 1.5 3v.8zm-2.9 18.7h-1.3q-1 0-1.5.4-.4.4-.4 1.3v.3h-1v-.4q0-.7-.5-1.2-.4-.4-1.6-.4h-1.8q-1.6 0-2.3-.6-.8-.8-.8-2.3v-1.5h1v2l.2.3.1.2q.5.7 1.9.7h1.5q2.2 0 2.8 1.5.6-1.6 2.6-1.6h1.3q1 0 1.4-.4.5-.4.5-1.3v-1.4h1v1.9q0 .6-.4 1.2t-1 1q-.6.3-1.7.3z" font-size="18" font-family="Inconsolata" fill="#3299cc"/></svg>