<svg xmlns="http://www.w3.org/2000/svg" xmlns:xlink="http://www.w3.org/1999/xlink" width="900" height="1692"><g transform="translate(0 0)"><g opacity=".5"><path d="M10 130c0-5.52 4.48-10 10-10h860c5.52 0 10 4.48 10 10v1420c0 5.52-4.48 10-10 10H20c-5.52 0-10-4.48-10-10z" stroke="#ccc" stroke-width="4" fill="none"/><use xlink:href="#a" transform="matrix(1,0,0,1,18.000000000000227,128) translate(393.075 15.6)"/></g><path d="M10 125c0-2.76 2.24-5 5-5h200c2.76 0 5 2.24 5 5v80c0 2.76-2.24 5-5 5H15c-2.76 0-5-2.24-5-5z" fill="none"/><use xlink:href="#b" transform="matrix(1,0,0,1,10,120) translate(12.061631944444443 55.69444444444444)"/><use xlink:href="#c" transform="matrix(1,0,0,1,10,120) translate(103.64800347222221 55.69444444444444)"/><path d="M470 30c0 11.05-8.95 20-20 20s-20-8.95-20-20 8.95-20 20-20 20 8.95 20 20z" stroke="#000" stroke-width="2"/><path d="M450 50v70" stroke="#000" stroke-width="2" fill="none"/><path d="M450 50h-1v-.13zm1 0h-1l1-.04zM450 120l-4.64-14.27h9.28z"/><path d="M451.05 120h-2.1L444 104.73h12zm-4.3-13.27l3.25 10.03 3.26-10.03z"/><path d="M382 120c-17.67 0-32 14.33-32 32v96c0 17.67 14.33 32 32 32h136c17.67 0 32-14.33 32-32v-96c0-17.67-14.33-32-32-32z" stroke="#000" stroke-width="2" fill="#fff"/><use xlink:href="#d" transform="matrix(1,0,0,1,358,128) translate(4.879774305555571 64.82986111111111)"/><use xlink:href="#e" transform="matrix(1,0,0,1,358,128) translate(66.3576388888889 64.82986111111111)"/><use xlink:href="#f" transform="matrix(1,0,0,1,358,128) translate(13.812065972222229 100.55902777777777)"/><use xlink:href="#g" transform="matrix(1,0,0,1,358,128) translate(101.84375 100.55902777777777)"/><path d="M450 280v80" stroke="#000" stroke-width="2" fill="none"/><path d="M450 360l-4.64-14.27h9.28z"/><path d="M450.37 362.1l-.7.1-5.68-17.47h12zm-3.63-15.37l3.26 10.03 3.26-10.03z"/><path d="M446.46 363.54c1.96-1.96 5.12-1.96 7.08 0l12.92 12.92c1.96 1.96 1.96 5.12 0 7.08l-12.92 12.92c-1.96 1.96-5.12 1.96-7.08 0l-12.92-12.92c-1.96-1.96-1.96-5.12 0-7.08z" stroke="#000" stroke-width="2" fill="#fff"/><path d="M432.16 380H165c-2.76 0-5 2.24-5 5v55" stroke="#000" stroke-width="2" fill="none"/><path d="M432.27 381h-.1v-1zm-.1-1.68V379h.1zM160 440l-4.64-14.27h9.28z"/><path d="M161.05 440h-2.1L154 424.73h12zm-4.3-13.27l3.25 10.03 3.26-10.03z"/><path fill="#fff" d="M264.42 363.04h77.8v33.9h-77.8z"/><use xlink:href="#h" transform="matrix(1,0,0,1,264.41548640500923,363.0444444444444) translate(0 25.51111111111111)"/><path d="M72 440c-17.67 0-32 14.33-32 32v96c0 17.67 14.33 32 32 32h176c17.67 0 32-14.33 32-32v-96c0-17.67-14.33-32-32-32z" stroke="#000" stroke-width="2" fill="#fff"/><use xlink:href="#i" transform="matrix(1,0,0,1,48,448) translate(60.31271701388889 64.82986111111111)"/><use xlink:href="#j" transform="matrix(1,0,0,1,48,448) translate(1.6148003472222285 100.55902777777777)"/><use xlink:href="#k" transform="matrix(1,0,0,1,48,448) translate(61.77105034722223 100.55902777777777)"/><path d="M160 600v140" stroke="#000" stroke-width="2" fill="none"/><path d="M160 740l-4.64-14.27h9.28z"/><path d="M160.37 742.1l-.7.1-5.68-17.47h12zm-3.63-15.37l3.26 10.03 3.26-10.03z"/><path d="M156.46 743.54c1.96-1.96 5.12-1.96 7.08 0l12.92 12.92c1.96 1.96 1.96 5.12 0 7.08l-12.92 12.92c-1.96 1.96-5.12 1.96-7.08 0l-12.92-12.92c-1.96-1.96-1.96-5.12 0-7.08z" stroke="#000" stroke-width="2" fill="#fff"/><path d="M160 777.84V1400" stroke="#000" stroke-width="2" fill="none"/><path d="M159.32 777.84H159v-.1zm1.68 0h-1l1-.1zM160 1400l-4.64-14.27h9.28z"/><path d="M161.05 1400h-2.1l-4.96-15.27h12zm-4.3-13.27l3.25 10.03 3.26-10.03z"/><path fill="#fff" d="M128.9 1071.97h62.22v33.9H128.9z"/><use xlink:href="#l" transform="matrix(1,0,0,1,128.88888888888889,1071.9668255078996) translate(0 25.51111111111111)"/><path d="M72 1400c-17.67 0-32 14.33-32 32v96c0 17.67 14.33 32 32 32h176c17.67 0 32-14.33 32-32v-96c0-17.67-14.33-32-32-32z" stroke="#000" stroke-width="2" fill="#fff"/><use xlink:href="#m" transform="matrix(1,0,0,1,48,1408) translate(52.37543402777778 42.16527777777778)"/><use xlink:href="#n" transform="matrix(1,0,0,1,48,1408) translate(72.79969618055556 77.89444444444445)"/><use xlink:href="#o" transform="matrix(1,0,0,1,48,1408) translate(38.771918402777786 113.6236111111111)"/><use xlink:href="#P" transform="matrix(1,0,0,1,48,1408) translate(112 135.19375)"/><path d="M467.84 380H735c2.76 0 5 2.24 5 5v295" stroke="#000" stroke-width="2" fill="none"/><path d="M467.84 381h-.1l.1-.32zm0-1l-.1-1h.1zM740 680l-4.64-14.27h9.28z"/><path d="M741.05 680h-2.1L734 664.73h12zm-4.3-13.27l3.25 10.03 3.26-10.03z"/><path fill="#fff" d="M535.46 363.04H659.9v33.9H535.47z"/><use xlink:href="#q" transform="matrix(1,0,0,1,535.4572168869594,363.0444444444444) translate(0 25.51111111111111)"/><use xlink:href="#r" transform="matrix(1,0,0,1,535.4572168869594,363.0444444444444) translate(46.666666666666664 25.51111111111111)"/><path d="M652 680c-17.67 0-32 14.33-32 32v96c0 17.67 14.33 32 32 32h176c17.67 0 32-14.33 32-32v-96c0-17.67-14.33-32-32-32z" stroke="#000" stroke-width="2" fill="#fff"/><use xlink:href="#s" transform="matrix(1,0,0,1,628,688) translate(52.37543402777778 64.82986111111111)"/><use xlink:href="#t" transform="matrix(1,0,0,1,628,688) translate(11.967447916666657 100.55902777777777)"/><use xlink:href="#u" transform="matrix(1,0,0,1,628,688) translate(148.54947916666666 100.55902777777777)"/><path d="M740 840v80" stroke="#000" stroke-width="2" fill="none"/><path d="M740 920l-4.64-14.27h9.28z"/><path d="M741.05 920h-2.1L734 904.73h12zm-4.3-13.27l3.25 10.03 3.26-10.03z"/><path d="M652 920c-17.67 0-32 14.33-32 32v96c0 17.67 14.33 32 32 32h176c17.67 0 32-14.33 32-32v-96c0-17.67-14.33-32-32-32z" stroke="#000" stroke-width="2" fill="#fff"/><use xlink:href="#v" transform="matrix(1,0,0,1,628,928) translate(60.31271701388889 64.82986111111111)"/><use xlink:href="#w" transform="matrix(1,0,0,1,628,928) translate(11.967447916666657 100.55902777777777)"/><use xlink:href="#u" transform="matrix(1,0,0,1,628,928) translate(148.54947916666666 100.55902777777777)"/><path d="M740 1080v80" stroke="#000" stroke-width="2" fill="none"/><path d="M740 1160l-4.64-14.27h9.28z"/><path d="M741.05 1160h-2.1l-4.96-15.27h12zm-4.3-13.27l3.25 10.03 3.26-10.03z"/><path d="M652 1160c-17.67 0-32 14.33-32 32v96c0 17.67 14.33 32 32 32h176c17.67 0 32-14.33 32-32v-96c0-17.67-14.33-32-32-32z" stroke="#000" stroke-width="2" fill="#fff"/><use xlink:href="#x" transform="matrix(1,0,0,1,628,1168) translate(62.60655381944444 64.82986111111111)"/><use xlink:href="#y" transform="matrix(1,0,0,1,628,1168) translate(28.92057291666667 100.55902777777777)"/><use xlink:href="#z" transform="matrix(1,0,0,1,628,1168) translate(143.56684027777777 100.55902777777777)"/><path d="M740 1320v80" stroke="#000" stroke-width="2" fill="none"/><path d="M740 1400l-4.64-14.27h9.28z"/><path d="M741.05 1400h-2.1l-4.96-15.27h12zm-4.3-13.27l3.25 10.03 3.26-10.03z"/><path d="M652 1400c-17.67 0-32 14.33-32 32v96c0 17.67 14.33 32 32 32h176c17.67 0 32-14.33 32-32v-96c0-17.67-14.33-32-32-32z" stroke="#000" stroke-width="2" fill="#fff"/><use xlink:href="#A" transform="matrix(1,0,0,1,628,1408) translate(68.41710069444446 64.82986111111111)"/><use xlink:href="#B" transform="matrix(1,0,0,1,628,1408) translate(33.81206597222223 100.55902777777777)"/><use xlink:href="#g" transform="matrix(1,0,0,1,628,1408) translate(121.84375 100.55902777777777)"/><path d="M620 1480H280" stroke="#000" stroke-width="2" fill="none"/><path d="M294.27 1484.64L280 1480l14.27-4.64z"/><path d="M295.27 1486l-15.27-4.95v-2.1l15.27-4.96zm-12.03-6l10.03 3.26v-6.52z"/><path d="M470 1660c0 11.05-8.95 20-20 20s-20-8.95-20-20 8.95-20 20-20 20 8.95 20 20z" stroke="#000" stroke-width="2" fill="#fff"/><path d="M462 1660c0 6.63-5.37 12-12 12s-12-5.37-12-12 5.37-12 12-12 12 5.37 12 12z" stroke="#000" stroke-width="2"/><path d="M420 5c0-2.76 2.24-5 5-5h230c2.76 0 5 2.24 5 5v50c0 2.76-2.24 5-5 5H425c-2.76 0-5-2.24-5-5z" fill="none"/><g><use xlink:href="#C" transform="matrix(1,0,0,1,420,0) translate(66.6796875 43.75)"/></g><path d="M160 1560v35c0 2.76 2.24 5 5 5h280c2.76 0 5 2.24 5 5v35" stroke="#000" stroke-width="2" fill="none"/><path d="M450 1640l-4.64-14.27h9.28z"/><path d="M451 1640.13l-1-.13-1.04.04-4.97-15.3h12zm-4.26-13.4l3.26 10.03 3.26-10.03z"/><path d="M425 1635c0-2.76 2.24-5 5-5h230c2.76 0 5 2.24 5 5v50c0 2.76-2.24 5-5 5H430c-2.76 0-5-2.24-5-5z" fill="none"/><g><use xlink:href="#D" transform="matrix(1,0,0,1,425,1630) translate(61.904296875 43.75)"/></g><path d="M177.84 760H352.5" stroke="#000" stroke-width="2" fill="none"/><path d="M177.84 761h-.1l.1-.32zm0-1l-.1-1h.1zM352.5 760l-14.27 4.64v-9.28z"/><path d="M352.5 758.95v2.1L337.23 766v-12zm-13.27 4.3l10.03-3.25-10.03-3.26z"/><path fill="#fff" d="M234.06 743.04h62.23v33.9h-62.24z"/><g><use xlink:href="#E" transform="matrix(1,0,0,1,234.06126995234402,743.0444444444445) translate(0 25.51111111111111)"/></g><path d="M384.5 680c-17.67 0-32 14.33-32 32v96c0 17.67 14.33 32 32 32h131c17.67 0 32-14.33 32-32v-96c0-17.67-14.33-32-32-32z" stroke="#000" stroke-width="2" fill="#fff"/><g><use xlink:href="#F" transform="matrix(1,0,0,1,360.5,688) translate(15.489583333333343 64.82986111111111)"/><use xlink:href="#G" transform="matrix(1,0,0,1,360.5,688) translate(84.12239583333334 64.82986111111111)"/><use xlink:href="#g" transform="matrix(1,0,0,1,360.5,688) translate(55.327907986111114 100.55902777777777)"/></g><path d="M547.5 760H619" stroke="#000" stroke-width="2" fill="none"/><path d="M619 760l-14.27 4.64v-9.28z"/><path d="M620 759.27v1.46L603.73 766v-12zm-14.27 4l10.03-3.27-10.03-3.26z"/><defs><path d="M212-179c-10-28-35-45-73-45-59 0-87 40-87 99 0 60 29 101 89 101 43 0 62-24 78-52l27 14C228-24 195 4 139 4 59 4 22-46 18-125c-6-104 99-153 187-111 19 9 31 26 39 46" id="H"/><path d="M100-194c62-1 85 37 85 99 1 63-27 99-86 99S16-35 15-95c0-66 28-99 85-99zM99-20c44 1 53-31 53-75 0-43-8-75-51-75s-53 32-53 75 10 74 51 75" id="I"/><path d="M117-194c89-4 53 116 60 194h-32v-121c0-31-8-49-39-48C34-167 62-67 57 0H25l-1-190h30c1 10-1 24 2 32 11-22 29-35 61-36" id="J"/><path d="M59-47c-2 24 18 29 38 22v24C64 9 27 4 27-40v-127H5v-23h24l9-43h21v43h35v23H59v120" id="K"/><path d="M141-36C126-15 110 5 73 4 37 3 15-17 15-53c-1-64 63-63 125-63 3-35-9-54-41-54-24 1-41 7-42 31l-33-3c5-37 33-52 76-52 45 0 72 20 72 64v82c-1 20 7 32 28 27v20c-31 9-61-2-59-35zM48-53c0 20 12 33 32 33 41-3 63-29 60-74-43 2-92-5-92 41" id="L"/><path d="M24-231v-30h32v30H24zM24 0v-190h32V0H24" id="M"/><path d="M100-194c63 0 86 42 84 106H49c0 40 14 67 53 68 26 1 43-12 49-29l28 8c-11 28-37 45-77 45C44 4 14-33 15-96c1-61 26-98 85-98zm52 81c6-60-76-77-97-28-3 7-6 17-6 28h103" id="N"/><path d="M114-163C36-179 61-72 57 0H25l-1-190h30c1 12-1 29 2 39 6-27 23-49 58-41v29" id="O"/><g id="a"><use transform="matrix(0.05,0,0,0.05,0,0)" xlink:href="#H"/><use transform="matrix(0.05,0,0,0.05,12.950000000000001,0)" xlink:href="#I"/><use transform="matrix(0.05,0,0,0.05,22.950000000000003,0)" xlink:href="#J"/><use transform="matrix(0.05,0,0,0.05,32.95,0)" xlink:href="#K"/><use transform="matrix(0.05,0,0,0.05,37.95,0)" xlink:href="#L"/><use transform="matrix(0.05,0,0,0.05,47.95,0)" xlink:href="#M"/><use transform="matrix(0.05,0,0,0.05,51.900000000000006,0)" xlink:href="#J"/><use transform="matrix(0.05,0,0,0.05,61.900000000000006,0)" xlink:href="#N"/><use transform="matrix(0.05,0,0,0.05,71.9,0)" xlink:href="#O"/></g><path d="M1595-702c0 359-266 650-581 702 143 57 341 115 409 115 40 0 87-9 140-27l-201 195c-152-10-283-55-404-112-70-33-165-90-282-171C362-46 90-341 90-694c0-413 334-723 752-723 414 0 753 307 753 715zm-206 4c0-302-242-529-547-529S298-995 298-692c0 296 244 524 544 524 296 0 547-237 547-530" id="P"/><path d="M307-395c4 175 28 260 187 260 87 0 160-42 221-127v-658h182V0H715v-117C629-10 424 68 274-28c-116-74-149-155-149-365v-527h182v525" id="Q"/><path d="M512-938c262 0 413 213 401 494H266c6 169 125 288 299 288 120 0 231-37 332-112v178C790-20 702 12 537 14c-210 1-322-95-397-232-39-71-56-154-56-247 0-265 171-473 428-473zm221 385c-7-136-83-227-221-227-143 0-220 95-242 227h463" id="R"/><path d="M541-764c-125-1-217 148-217 283V0H141v-920h183v211c142-236 286-310 489-125l-96 160c-63-60-122-90-176-90" id="S"/><path d="M692-920h205L246 469H43l313-666L0-920h207l248 519" id="T"/><g id="b"><use transform="matrix(0.015190972222222222,0,0,0.015190972222222222,0,0)" xlink:href="#P"/><use transform="matrix(0.015190972222222222,0,0,0.015190972222222222,25.611979166666668,0)" xlink:href="#Q"/><use transform="matrix(0.015190972222222222,0,0,0.015190972222222222,41.16753472222222,0)" xlink:href="#R"/><use transform="matrix(0.015190972222222222,0,0,0.015190972222222222,56.06987847222222,0)" xlink:href="#S"/><use transform="matrix(0.015190972222222222,0,0,0.015190972222222222,69.31640625,0)" xlink:href="#T"/></g><path d="M586-1399c254-5 439 151 438 398-1 173-100 299-228 353-93 39-292 44-452 42V0H143v-1399h443zm-23 615c154 1 254-73 254-222 0-143-89-215-266-215H344v437h219" id="U"/><path d="M133-1397h182V0H133v-1397" id="V"/><path d="M279 14C154 14 49-84 55-209c11-240 284-270 473-344 10-137-37-215-166-215-99 0-196 51-290 154v-199c71-83 172-125 305-125 171 0 301 80 323 228s4 380 7 548c0 31 11 47 32 47 22 0 56-16 103-49v111c-70 41-94 69-178 69-78 0-124-31-138-92-77 60-160 90-247 90zm-43-254c-2 75 56 129 131 129 58 0 112-24 161-71v-273c-79 31-209 74-254 121-25 26-38 57-38 94" id="W"/><path d="M717-524c-3-169-33-262-187-262-86 0-159 43-219 129V0H125v-920h186v117c117-131 280-184 437-91 117 70 151 162 151 368V0H717v-524" id="X"/><g id="c"><use transform="matrix(0.015190972222222222,0,0,0.015190972222222222,0,0)" xlink:href="#U"/><use transform="matrix(0.015190972222222222,0,0,0.015190972222222222,15.859375,0)" xlink:href="#V"/><use transform="matrix(0.015190972222222222,0,0,0.015190972222222222,22.68012152777778,0)" xlink:href="#W"/><use transform="matrix(0.015190972222222222,0,0,0.015190972222222222,35.95703125,0)" xlink:href="#X"/><use transform="matrix(0.015190972222222222,0,0,0.015190972222222222,51.51258680555556,0)" xlink:href="#X"/><use transform="matrix(0.015190972222222222,0,0,0.015190972222222222,67.06814236111111,0)" xlink:href="#R"/><use transform="matrix(0.015190972222222222,0,0,0.015190972222222222,81.97048611111111,0)" xlink:href="#S"/></g><path d="M156-1397h745v178H356v390h545v178H356V0H156v-1397" id="Y"/><path d="M117-1200c0-54 52-107 106-107 58 0 109 49 109 107 0 57-51 108-109 108-54 0-106-53-106-108zm16 280h182V0H133v-920" id="Z"/><path d="M90-475c0-262 193-465 453-465 61 0 128 13 200 39v-496h183V0H537C263 3 90-196 90-475zm481-307c-186-2-297 138-297 329 0 141 61 243 159 281 51 21 218 15 310 16v-583c-57-29-114-43-172-43" id="aa"/><g id="d"><use transform="matrix(0.015190972222222222,0,0,0.015190972222222222,0,0)" xlink:href="#Y"/><use transform="matrix(0.015190972222222222,0,0,0.015190972222222222,14.598524305555555,0)" xlink:href="#Z"/><use transform="matrix(0.015190972222222222,0,0,0.015190972222222222,21.419270833333332,0)" xlink:href="#X"/><use transform="matrix(0.015190972222222222,0,0,0.015190972222222222,36.974826388888886,0)" xlink:href="#aa"/></g><path d="M1266-1397h186V0h-201v-1087L821-547h-37l-434-540V0H150v-1397h188l465 574" id="ab"/><path d="M0-774l342-336v190h291v164H342v451c0 105 44 158 131 158 65 0 134-22 207-66v170C550 33 349 44 243-57c-73-70-84-127-83-291v-408H0v-18" id="ac"/><path d="M262-461c0 187 127 307 316 307 70 0 150-20 241-61v180C728-1 638 16 551 16 268 16 78-172 78-455c0-278 181-487 454-483 122 2 168 22 267 64v194c-92-59-177-88-256-88-165 0-281 138-281 307" id="ad"/><path d="M537-793c-115 4-158 59-230 134V0H125v-1397h182v598c105-135 293-188 448-93 113 70 144 170 144 368V0H717v-569c3-122-65-228-180-224" id="ae"/><path d="M139-178c0-74 75-116 146-133C150-371 82-468 82-602c1-211 175-318 401-318h379v142H676c60 65 96 100 96 203 0 107-72 207-146 248-43 24-114 48-212 59-101 12-138 80-64 124 55 33 329 79 356 100 81 34 157 118 154 226-6 199-205 287-428 287C206 469 0 381 0 180 0 55 77-25 231-61c-61-39-92-78-92-117zm467-416c0-96-84-168-182-168-94 0-178 78-178 170 0 96 82 164 180 164 97 0 180-71 180-166zm-8 678c-123-61-426-72-426 98 0 95 85 142 256 142 81 0 144-12 188-36s66-57 66-100-28-76-84-104" id="af"/><g id="e"><use transform="matrix(0.015190972222222222,0,0,0.015190972222222222,0,0)" xlink:href="#ab"/><use transform="matrix(0.015190972222222222,0,0,0.015190972222222222,24.290364583333332,0)" xlink:href="#W"/><use transform="matrix(0.015190972222222222,0,0,0.015190972222222222,37.56727430555556,0)" xlink:href="#ac"/><use transform="matrix(0.015190972222222222,0,0,0.015190972222222222,47.927517361111114,0)" xlink:href="#ad"/><use transform="matrix(0.015190972222222222,0,0,0.015190972222222222,61.55381944444445,0)" xlink:href="#ae"/><use transform="matrix(0.015190972222222222,0,0,0.015190972222222222,77.109375,0)" xlink:href="#Z"/><use transform="matrix(0.015190972222222222,0,0,0.015190972222222222,83.93012152777777,0)" xlink:href="#X"/><use transform="matrix(0.015190972222222222,0,0,0.015190972222222222,99.48567708333333,0)" xlink:href="#af"/></g><path d="M307-694c0 306 244 526 555 526 169 0 335-52 496-156v220C1119 35 700 64 453-78 260-188 105-411 100-694c-8-401 347-721 754-721 147 0 310 38 489 115v215c-163-93-323-140-479-140-306 0-557 229-557 531" id="ag"/><g id="f"><use transform="matrix(0.015190972222222222,0,0,0.015190972222222222,0,0)" xlink:href="#ag"/><use transform="matrix(0.015190972222222222,0,0,0.015190972222222222,22.02690972222222,0)" xlink:href="#W"/><use transform="matrix(0.015190972222222222,0,0,0.015190972222222222,35.30381944444444,0)" xlink:href="#ad"/><use transform="matrix(0.015190972222222222,0,0,0.015190972222222222,48.93012152777778,0)" xlink:href="#ae"/><use transform="matrix(0.015190972222222222,0,0,0.015190972222222222,64.48567708333333,0)" xlink:href="#R"/></g><path d="M154-1397h792v178H354v426h572v179H354v434h611V-2H154v-1395" id="ah"/><g id="g"><use transform="matrix(0.015190972222222222,0,0,0.015190972222222222,0,0)" xlink:href="#ah"/><use transform="matrix(0.015190972222222222,0,0,0.015190972222222222,15.555555555555555,0)" xlink:href="#X"/><use transform="matrix(0.015190972222222222,0,0,0.015190972222222222,31.11111111111111,0)" xlink:href="#ac"/><use transform="matrix(0.015190972222222222,0,0,0.015190972222222222,41.471354166666664,0)" xlink:href="#S"/><use transform="matrix(0.015190972222222222,0,0,0.015190972222222222,54.71788194444444,0)" xlink:href="#T"/></g><path d="M41-623h55l154 305 157-306h53V1h-66v-471L259-219h-27L106-467V1H41v-624" id="ai"/><path d="M366-269c2-83-14-137-109-139-42 0-94 12-131 51l-35-46c43-44 101-64 163-64 110 0 181 69 181 184V0h-68v-50C317-9 259 11 203 11 23 8-5-195 154-249c63-21 138-20 212-20zm3 55c-54 1-120-4-167 7-57 14-81 51-81 84 0 41 35 79 96 79 60 0 104-36 120-54 39-46 31-65 32-116" id="aj"/><path d="M298 9c-94 0-131-85-131-173 0-78 4-156 10-234H70l1-59h109l8-122 79-13c4 10-4 16-6 27-5 25-12 108-12 108h150v59H249c-9 66-12 213-6 267 6 55 43 73 77 73 28 0 63-12 102-41l22 57C405-14 352 9 298 9" id="ak"/><path d="M457-381l-51 59c-8-6-3-15-7-23-3-5-40-60-118-60-84 0-151 65-151 169 0 107 68 182 157 182 46 0 90-21 121-56l42 49c-44 47-105 72-169 72C152 11 56-90 56-228c0-137 96-238 230-238 73 0 135 32 171 85" id="al"/><path d="M276-405c-78 10-133 62-133 142V0H70v-665h83c3 11-10 14-10 24v265c34-51 90-92 152-92 88 0 138 91 138 191V0h-71v-275c9-55-26-138-86-130" id="am"/><g id="h"><use transform="matrix(0.03111111111111111,0,0,0.03111111111111111,0,0)" xlink:href="#ai"/><use transform="matrix(0.03111111111111111,0,0,0.03111111111111111,15.555555555555555,0)" xlink:href="#aj"/><use transform="matrix(0.03111111111111111,0,0,0.03111111111111111,31.11111111111111,0)" xlink:href="#ak"/><use transform="matrix(0.03111111111111111,0,0,0.03111111111111111,46.666666666666664,0)" xlink:href="#al"/><use transform="matrix(0.03111111111111111,0,0,0.03111111111111111,62.22222222222222,0)" xlink:href="#am"/></g><path d="M692-920h197L483 16h-61L6-920h199l248 566" id="an"/><g id="i"><use transform="matrix(0.015190972222222222,0,0,0.015190972222222222,0,0)" xlink:href="#ah"/><use transform="matrix(0.015190972222222222,0,0,0.015190972222222222,15.555555555555555,0)" xlink:href="#an"/><use transform="matrix(0.015190972222222222,0,0,0.015190972222222222,29.18185763888889,0)" xlink:href="#W"/><use transform="matrix(0.015190972222222222,0,0,0.015190972222222222,42.458767361111114,0)" xlink:href="#V"/><use transform="matrix(0.015190972222222222,0,0,0.015190972222222222,49.27951388888889,0)" xlink:href="#Q"/><use transform="matrix(0.015190972222222222,0,0,0.015190972222222222,64.83506944444444,0)" xlink:href="#W"/><use transform="matrix(0.015190972222222222,0,0,0.015190972222222222,78.11197916666666,0)" xlink:href="#ac"/><use transform="matrix(0.015190972222222222,0,0,0.015190972222222222,88.47222222222221,0)" xlink:href="#R"/></g><g id="j"><use transform="matrix(0.015190972222222222,0,0,0.015190972222222222,0,0)" xlink:href="#U"/><use transform="matrix(0.015190972222222222,0,0,0.015190972222222222,15.859375,0)" xlink:href="#V"/><use transform="matrix(0.015190972222222222,0,0,0.015190972222222222,22.68012152777778,0)" xlink:href="#W"/><use transform="matrix(0.015190972222222222,0,0,0.015190972222222222,35.95703125,0)" xlink:href="#X"/></g><path d="M522-1235c-182-2-191 119-190 315h164v164H332V0H150v-756H18v-164h132c-6-169 22-306 94-386 96-107 202-131 362-91v178c-29-11-57-16-84-16" id="ao"/><path d="M76-451c0-267 222-471 493-471s488 207 488 476c0 265-225 462-496 462C296 16 76-188 76-451zm796-4c0-172-139-303-313-303-172 0-299 133-299 305 0 174 132 299 307 299 174 0 305-128 305-301" id="ap"/><path d="M1276-545c1-139-53-237-182-237-75 0-146 38-211 114V0H700v-512c-4-181-24-274-184-274-109 0-143 48-213 118V0H121v-920h182v121c93-93 183-139 272-139 117 0 207 55 271 166 97-112 199-168 305-168 205 0 307 161 307 397V0h-182v-545" id="aq"/><g id="k"><use transform="matrix(0.015190972222222222,0,0,0.015190972222222222,0,0)" xlink:href="#U"/><use transform="matrix(0.015190972222222222,0,0,0.015190972222222222,15.084635416666666,0)" xlink:href="#R"/><use transform="matrix(0.015190972222222222,0,0,0.015190972222222222,29.986979166666664,0)" xlink:href="#S"/><use transform="matrix(0.015190972222222222,0,0,0.015190972222222222,42.306857638888886,0)" xlink:href="#ao"/><use transform="matrix(0.015190972222222222,0,0,0.015190972222222222,49.78081597222222,0)" xlink:href="#ap"/><use transform="matrix(0.015190972222222222,0,0,0.015190972222222222,66.94661458333333,0)" xlink:href="#S"/><use transform="matrix(0.015190972222222222,0,0,0.015190972222222222,79.26649305555554,0)" xlink:href="#aq"/><use transform="matrix(0.015190972222222222,0,0,0.015190972222222222,103.25303819444443,0)" xlink:href="#W"/><use transform="matrix(0.015190972222222222,0,0,0.015190972222222222,116.52994791666666,0)" xlink:href="#X"/><use transform="matrix(0.015190972222222222,0,0,0.015190972222222222,132.0855034722222,0)" xlink:href="#ad"/><use transform="matrix(0.015190972222222222,0,0,0.015190972222222222,145.71180555555554,0)" xlink:href="#R"/></g><path d="M456-448c0 100-85 173-202 173H131V0H59v-623h190c118-13 207 74 207 175zm-72 4c0-65-58-113-135-113H131l-1 220h126c73 8 128-44 128-107" id="ar"/><path d="M432-396l-42 63c-7 0-3-13-7-18-17-22-62-62-127-62-88-1-140 75-51 117 43 21 116 31 168 60 54 30 67 72 67 104 0 69-65 142-190 142-69 0-139-22-193-72l41-72c9 7 1 12 8 20 14 16 65 64 143 64 102 0 167-82 71-131-33-17-83-27-122-41-25-9-112-38-112-118 0-68 70-128 176-128 68 0 128 25 170 72" id="as"/><g id="l"><use transform="matrix(0.03111111111111111,0,0,0.03111111111111111,0,0)" xlink:href="#ar"/><use transform="matrix(0.03111111111111111,0,0,0.03111111111111111,15.555555555555555,0)" xlink:href="#aj"/><use transform="matrix(0.03111111111111111,0,0,0.03111111111111111,31.11111111111111,0)" xlink:href="#as"/><use transform="matrix(0.03111111111111111,0,0,0.03111111111111111,46.666666666666664,0)" xlink:href="#as"/></g><path d="M872-158c82 0 197-24 306-61v-291H909v-178h469v592C1022 67 560 63 312-186 176-323 104-488 104-686c0-412 338-741 754-729 217 5 305 45 492 119v204c-167-97-332-145-496-145-296 0-543 244-543 539 0 315 243 540 561 540" id="at"/><g id="m"><use transform="matrix(0.015190972222222222,0,0,0.015190972222222222,0,0)" xlink:href="#at"/><use transform="matrix(0.015190972222222222,0,0,0.015190972222222222,23.02951388888889,0)" xlink:href="#R"/><use transform="matrix(0.015190972222222222,0,0,0.015190972222222222,37.931857638888886,0)" xlink:href="#X"/><use transform="matrix(0.015190972222222222,0,0,0.015190972222222222,53.48741319444444,0)" xlink:href="#R"/><use transform="matrix(0.015190972222222222,0,0,0.015190972222222222,68.38975694444444,0)" xlink:href="#S"/><use transform="matrix(0.015190972222222222,0,0,0.015190972222222222,80.70963541666666,0)" xlink:href="#W"/><use transform="matrix(0.015190972222222222,0,0,0.015190972222222222,93.98654513888889,0)" xlink:href="#ac"/><use transform="matrix(0.015190972222222222,0,0,0.015190972222222222,104.34678819444444,0)" xlink:href="#R"/></g><path d="M971-1008c-1 178-98 292-236 344 146 109 184 183 311 385 82 131 116 178 191 279H999c-84-122-160-249-241-375-61-94-125-160-206-211-31-20-121-24-192-22V0H160v-1397h350c263-5 462 139 461 389zm-242-122c-63-101-185-96-369-97v441c101 2 244-5 284-26 67-34 120-103 120-198 0-44-12-84-35-120" id="au"/><path d="M391 16C248 13 200-13 84-66v-196c78 54 186 115 293 121 64 4 138-37 139-95 0-27-8-48-26-66s-56-44-115-77c-117-65-195-121-231-167s-54-97-54-152c-1-149 137-240 295-240 90 0 182 25 277 76v180c-108-65-196-98-265-98-93 0-157 78-89 143 29 27 119 78 169 107 153 87 230 183 230 288C708-83 559 21 391 16" id="av"/><g id="n"><use transform="matrix(0.015190972222222222,0,0,0.015190972222222222,0,0)" xlink:href="#au"/><use transform="matrix(0.015190972222222222,0,0,0.015190972222222222,18.79123263888889,0)" xlink:href="#R"/><use transform="matrix(0.015190972222222222,0,0,0.015190972222222222,33.693576388888886,0)" xlink:href="#av"/><use transform="matrix(0.015190972222222222,0,0,0.015190972222222222,45.6640625,0)" xlink:href="#Q"/><use transform="matrix(0.015190972222222222,0,0,0.015190972222222222,61.21961805555556,0)" xlink:href="#V"/><use transform="matrix(0.015190972222222222,0,0,0.015190972222222222,68.04036458333333,0)" xlink:href="#ac"/></g><path d="M156-2v-1395c320 6 719-24 922 85 196 105 362 331 362 614 0 389-252 626-590 686C683 18 359-5 156-2zm659-1206c-102-18-324-9-459-11v1039c154-2 375 6 489-20 233-53 388-252 388-509 0-263-178-456-418-499" id="aw"/><g id="o"><use transform="matrix(0.015190972222222222,0,0,0.015190972222222222,0,0)" xlink:href="#aw"/><use transform="matrix(0.015190972222222222,0,0,0.015190972222222222,23.333333333333332,0)" xlink:href="#ap"/><use transform="matrix(0.015190972222222222,0,0,0.015190972222222222,40.49913194444444,0)" xlink:href="#ad"/><use transform="matrix(0.015190972222222222,0,0,0.015190972222222222,54.12543402777778,0)" xlink:href="#Q"/><use transform="matrix(0.015190972222222222,0,0,0.015190972222222222,69.68098958333333,0)" xlink:href="#aq"/><use transform="matrix(0.015190972222222222,0,0,0.015190972222222222,93.66753472222221,0)" xlink:href="#R"/><use transform="matrix(0.015190972222222222,0,0,0.015190972222222222,108.56987847222221,0)" xlink:href="#X"/><use transform="matrix(0.015190972222222222,0,0,0.015190972222222222,124.12543402777777,0)" xlink:href="#ac"/><use transform="matrix(0.015190972222222222,0,0,0.015190972222222222,134.48567708333331,0)" xlink:href="#av"/></g><path d="M454-624c1 13-7 14-7 27V1h-55L117-490V0H50v-623h68l262 462v-463h74" id="ax"/><path d="M460-226c0 151-97 238-205 238C140 12 40-86 40-225c0-141 101-242 217-242 104 0 203 83 203 241zm-72 3c1-245-271-238-272-8-5 228 272 366 272 8" id="ay"/><g id="q"><use transform="matrix(0.03111111111111111,0,0,0.03111111111111111,0,0)" xlink:href="#ax"/><use transform="matrix(0.03111111111111111,0,0,0.03111111111111111,15.555555555555555,0)" xlink:href="#ay"/></g><g id="r"><use transform="matrix(0.03111111111111111,0,0,0.03111111111111111,0,0)" xlink:href="#ai"/><use transform="matrix(0.03111111111111111,0,0,0.03111111111111111,15.555555555555555,0)" xlink:href="#aj"/><use transform="matrix(0.03111111111111111,0,0,0.03111111111111111,31.11111111111111,0)" xlink:href="#ak"/><use transform="matrix(0.03111111111111111,0,0,0.03111111111111111,46.666666666666664,0)" xlink:href="#al"/><use transform="matrix(0.03111111111111111,0,0,0.03111111111111111,62.22222222222222,0)" xlink:href="#am"/></g><g id="s"><use transform="matrix(0.015190972222222222,0,0,0.015190972222222222,0,0)" xlink:href="#at"/><use transform="matrix(0.015190972222222222,0,0,0.015190972222222222,23.02951388888889,0)" xlink:href="#R"/><use transform="matrix(0.015190972222222222,0,0,0.015190972222222222,37.931857638888886,0)" xlink:href="#X"/><use transform="matrix(0.015190972222222222,0,0,0.015190972222222222,53.48741319444444,0)" xlink:href="#R"/><use transform="matrix(0.015190972222222222,0,0,0.015190972222222222,68.38975694444444,0)" xlink:href="#S"/><use transform="matrix(0.015190972222222222,0,0,0.015190972222222222,80.70963541666666,0)" xlink:href="#W"/><use transform="matrix(0.015190972222222222,0,0,0.015190972222222222,93.98654513888889,0)" xlink:href="#ac"/><use transform="matrix(0.015190972222222222,0,0,0.015190972222222222,104.34678819444444,0)" xlink:href="#R"/></g><g id="t"><use transform="matrix(0.015190972222222222,0,0,0.015190972222222222,0,0)" xlink:href="#ag"/><use transform="matrix(0.015190972222222222,0,0,0.015190972222222222,22.02690972222222,0)" xlink:href="#W"/><use transform="matrix(0.015190972222222222,0,0,0.015190972222222222,35.30381944444444,0)" xlink:href="#X"/><use transform="matrix(0.015190972222222222,0,0,0.015190972222222222,50.859375,0)" xlink:href="#aa"/><use transform="matrix(0.015190972222222222,0,0,0.015190972222222222,66.71875,0)" xlink:href="#Z"/><use transform="matrix(0.015190972222222222,0,0,0.015190972222222222,73.53949652777777,0)" xlink:href="#aa"/><use transform="matrix(0.015190972222222222,0,0,0.015190972222222222,89.39887152777777,0)" xlink:href="#W"/><use transform="matrix(0.015190972222222222,0,0,0.015190972222222222,102.67578125,0)" xlink:href="#ac"/><use transform="matrix(0.015190972222222222,0,0,0.015190972222222222,113.03602430555556,0)" xlink:href="#R"/></g><g id="u"><use transform="matrix(0.015190972222222222,0,0,0.015190972222222222,0,0)" xlink:href="#U"/><use transform="matrix(0.015190972222222222,0,0,0.015190972222222222,15.859375,0)" xlink:href="#V"/><use transform="matrix(0.015190972222222222,0,0,0.015190972222222222,22.68012152777778,0)" xlink:href="#W"/><use transform="matrix(0.015190972222222222,0,0,0.015190972222222222,35.95703125,0)" xlink:href="#X"/><use transform="matrix(0.015190972222222222,0,0,0.015190972222222222,51.51258680555556,0)" xlink:href="#av"/></g><g id="v"><use transform="matrix(0.015190972222222222,0,0,0.015190972222222222,0,0)" xlink:href="#ah"/><use transform="matrix(0.015190972222222222,0,0,0.015190972222222222,15.555555555555555,0)" xlink:href="#an"/><use transform="matrix(0.015190972222222222,0,0,0.015190972222222222,29.18185763888889,0)" xlink:href="#W"/><use transform="matrix(0.015190972222222222,0,0,0.015190972222222222,42.458767361111114,0)" xlink:href="#V"/><use transform="matrix(0.015190972222222222,0,0,0.015190972222222222,49.27951388888889,0)" xlink:href="#Q"/><use transform="matrix(0.015190972222222222,0,0,0.015190972222222222,64.83506944444444,0)" xlink:href="#W"/><use transform="matrix(0.015190972222222222,0,0,0.015190972222222222,78.11197916666666,0)" xlink:href="#ac"/><use transform="matrix(0.015190972222222222,0,0,0.015190972222222222,88.47222222222221,0)" xlink:href="#R"/></g><g id="w"><use transform="matrix(0.015190972222222222,0,0,0.015190972222222222,0,0)" xlink:href="#ag"/><use transform="matrix(0.015190972222222222,0,0,0.015190972222222222,22.02690972222222,0)" xlink:href="#W"/><use transform="matrix(0.015190972222222222,0,0,0.015190972222222222,35.30381944444444,0)" xlink:href="#X"/><use transform="matrix(0.015190972222222222,0,0,0.015190972222222222,50.859375,0)" xlink:href="#aa"/><use transform="matrix(0.015190972222222222,0,0,0.015190972222222222,66.71875,0)" xlink:href="#Z"/><use transform="matrix(0.015190972222222222,0,0,0.015190972222222222,73.53949652777777,0)" xlink:href="#aa"/><use transform="matrix(0.015190972222222222,0,0,0.015190972222222222,89.39887152777777,0)" xlink:href="#W"/><use transform="matrix(0.015190972222222222,0,0,0.015190972222222222,102.67578125,0)" xlink:href="#ac"/><use transform="matrix(0.015190972222222222,0,0,0.015190972222222222,113.03602430555556,0)" xlink:href="#R"/></g><g id="x"><use transform="matrix(0.015190972222222222,0,0,0.015190972222222222,0,0)" xlink:href="#ag"/><use transform="matrix(0.015190972222222222,0,0,0.015190972222222222,22.02690972222222,0)" xlink:href="#ae"/><use transform="matrix(0.015190972222222222,0,0,0.015190972222222222,37.58246527777778,0)" xlink:href="#ap"/><use transform="matrix(0.015190972222222222,0,0,0.015190972222222222,54.748263888888886,0)" xlink:href="#ap"/><use transform="matrix(0.015190972222222222,0,0,0.015190972222222222,71.9140625,0)" xlink:href="#av"/><use transform="matrix(0.015190972222222222,0,0,0.015190972222222222,83.88454861111111,0)" xlink:href="#R"/></g><path d="M1933-1397h199L1567 6h-43l-457-1136L606 6h-43L0-1397h201l385 963 387-963h190l389 963" id="az"/><g id="y"><use transform="matrix(0.015190972222222222,0,0,0.015190972222222222,0,0)" xlink:href="#az"/><use transform="matrix(0.015190972222222222,0,0,0.015190972222222222,32.41753472222222,0)" xlink:href="#Z"/><use transform="matrix(0.015190972222222222,0,0,0.015190972222222222,39.23828125,0)" xlink:href="#X"/><use transform="matrix(0.015190972222222222,0,0,0.015190972222222222,54.79383680555556,0)" xlink:href="#X"/><use transform="matrix(0.015190972222222222,0,0,0.015190972222222222,70.34939236111111,0)" xlink:href="#Z"/><use transform="matrix(0.015190972222222222,0,0,0.015190972222222222,77.17013888888889,0)" xlink:href="#X"/><use transform="matrix(0.015190972222222222,0,0,0.015190972222222222,92.72569444444444,0)" xlink:href="#af"/></g><g id="z"><use transform="matrix(0.015190972222222222,0,0,0.015190972222222222,0,0)" xlink:href="#U"/><use transform="matrix(0.015190972222222222,0,0,0.015190972222222222,15.859375,0)" xlink:href="#V"/><use transform="matrix(0.015190972222222222,0,0,0.015190972222222222,22.68012152777778,0)" xlink:href="#W"/><use transform="matrix(0.015190972222222222,0,0,0.015190972222222222,35.95703125,0)" xlink:href="#X"/></g><g id="A"><use transform="matrix(0.015190972222222222,0,0,0.015190972222222222,0,0)" xlink:href="#ag"/><use transform="matrix(0.015190972222222222,0,0,0.015190972222222222,22.02690972222222,0)" xlink:href="#S"/><use transform="matrix(0.015190972222222222,0,0,0.015190972222222222,33.72395833333333,0)" xlink:href="#R"/><use transform="matrix(0.015190972222222222,0,0,0.015190972222222222,48.62630208333333,0)" xlink:href="#W"/><use transform="matrix(0.015190972222222222,0,0,0.015190972222222222,61.90321180555555,0)" xlink:href="#ac"/><use transform="matrix(0.015190972222222222,0,0,0.015190972222222222,72.2634548611111,0)" xlink:href="#R"/></g><g id="B"><use transform="matrix(0.015190972222222222,0,0,0.015190972222222222,0,0)" xlink:href="#ag"/><use transform="matrix(0.015190972222222222,0,0,0.015190972222222222,22.02690972222222,0)" xlink:href="#W"/><use transform="matrix(0.015190972222222222,0,0,0.015190972222222222,35.30381944444444,0)" xlink:href="#ad"/><use transform="matrix(0.015190972222222222,0,0,0.015190972222222222,48.93012152777778,0)" xlink:href="#ae"/><use transform="matrix(0.015190972222222222,0,0,0.015190972222222222,64.48567708333333,0)" xlink:href="#R"/></g><g id="C"><use transform="matrix(0.01953125,0,0,0.01953125,0,0)" xlink:href="#P"/><use transform="matrix(0.01953125,0,0,0.01953125,32.9296875,0)" xlink:href="#Q"/><use transform="matrix(0.01953125,0,0,0.01953125,52.9296875,0)" xlink:href="#R"/><use transform="matrix(0.01953125,0,0,0.01953125,72.08984375,0)" xlink:href="#S"/><use transform="matrix(0.01953125,0,0,0.01953125,89.12109375,0)" xlink:href="#T"/></g><g id="D"><use transform="matrix(0.01953125,0,0,0.01953125,0,0)" xlink:href="#au"/><use transform="matrix(0.01953125,0,0,0.01953125,24.16015625,0)" xlink:href="#R"/><use transform="matrix(0.01953125,0,0,0.01953125,43.3203125,0)" xlink:href="#av"/><use transform="matrix(0.01953125,0,0,0.01953125,58.7109375,0)" xlink:href="#Q"/><use transform="matrix(0.01953125,0,0,0.01953125,78.7109375,0)" xlink:href="#V"/><use transform="matrix(0.01953125,0,0,0.01953125,87.48046875,0)" xlink:href="#ac"/><use transform="matrix(0.01953125,0,0,0.01953125,100.80078125,0)" xlink:href="#av"/></g><path d="M78-624h359v61H148v196h233v61H148V0H78v-624" id="aA"/><path d="M106-457h183v399h107V0H100v-58h117v-341H106v-58zm149-199c29 0 51 23 51 51s-22 52-51 52-52-24-52-52 23-51 52-51" id="aB"/><path d="M85-665h202v607h134V0H79v-58h135v-549H85v-58" id="aC"/><g id="E"><use transform="matrix(0.03111111111111111,0,0,0.03111111111111111,0,0)" xlink:href="#aA"/><use transform="matrix(0.03111111111111111,0,0,0.03111111111111111,15.555555555555555,0)" xlink:href="#aj"/><use transform="matrix(0.03111111111111111,0,0,0.03111111111111111,31.11111111111111,0)" xlink:href="#aB"/><use transform="matrix(0.03111111111111111,0,0,0.03111111111111111,46.666666666666664,0)" xlink:href="#aC"/></g><g id="F"><use transform="matrix(0.015190972222222222,0,0,0.015190972222222222,0,0)" xlink:href="#ah"/><use transform="matrix(0.015190972222222222,0,0,0.015190972222222222,15.555555555555555,0)" xlink:href="#an"/><use transform="matrix(0.015190972222222222,0,0,0.015190972222222222,29.18185763888889,0)" xlink:href="#Z"/><use transform="matrix(0.015190972222222222,0,0,0.015190972222222222,36.002604166666664,0)" xlink:href="#ad"/><use transform="matrix(0.015190972222222222,0,0,0.015190972222222222,49.62890625,0)" xlink:href="#ac"/></g><g id="G"><use transform="matrix(0.015190972222222222,0,0,0.015190972222222222,0,0)" xlink:href="#ag"/><use transform="matrix(0.015190972222222222,0,0,0.015190972222222222,22.02690972222222,0)" xlink:href="#W"/><use transform="matrix(0.015190972222222222,0,0,0.015190972222222222,35.30381944444444,0)" xlink:href="#ad"/><use transform="matrix(0.015190972222222222,0,0,0.015190972222222222,48.93012152777778,0)" xlink:href="#ae"/><use transform="matrix(0.015190972222222222,0,0,0.015190972222222222,64.48567708333333,0)" xlink:href="#R"/></g></defs></g></svg>
