<?xml version="1.0" encoding="UTF-8"?>
<!DOCTYPE svg PUBLIC "-//W3C//DTD SVG 1.1//EN" "http://www.w3.org/Graphics/SVG/1.1/DTD/svg11.dtd">
<svg version="1.1" xmlns="http://www.w3.org/2000/svg" xmlns:xlink="http://www.w3.org/1999/xlink" x="0" y="0" width="640" height="560" viewBox="0, 0, 640, 560">
  <g id="Layer_1">
    <path d="M255.9,494.796 C255.9,495.961 252.995,496.906 249.404,496.906 L62.395,496.906 C58.81,496.906 55.9,495.961 55.9,494.796 L55.9,434.019 C55.9,432.852 58.81,431.906 62.395,431.906 L249.404,431.906 C252.995,431.906 255.9,432.852 255.9,434.019 L255.9,494.796" fill="#5CA831"/>
    <g>
      <text transform="matrix(1, 0, 0, 1, 95.256, 464.906)">
        <tspan x="-17.356" y="11.5" font-family="GillSans" font-size="36" kerning="-0.021" fill="#FFFFFE">Se</tspan>
      </text>
      <text transform="matrix(1, 0, 0, 1, 119.974, 464.906)">
        <tspan x="-8.384" y="11.5" font-family="GillSans" font-size="36" kerning="-0.595" fill="#FFFFFE">c</tspan>
      </text>
      <text transform="matrix(1, 0, 0, 1, 178.547, 464.906)">
        <tspan x="-51.784" y="11.5" font-family="GillSans" font-size="36" kerning="-0.021" fill="#FFFFFE">ondary</tspan>
      </text>
    </g>
    <path d="M571.931,494.796 C571.931,495.961 569.025,496.906 565.435,496.906 L378.427,496.906 C374.84,496.906 371.931,495.961 371.931,494.796 L371.931,434.019 C371.931,432.852 374.84,431.906 378.427,431.906 L565.435,431.906 C569.025,431.906 571.931,432.852 571.931,434.019 L571.931,494.796" fill="#5CA831"/>
    <g>
      <text transform="matrix(1, 0, 0, 1, 412.752, 464.906)">
        <tspan x="-17.366" y="11.5" font-family="GillSans" font-size="36" kerning="0" fill="#FFFFFE">Se</tspan>
      </text>
      <text transform="matrix(1, 0, 0, 1, 437.503, 464.906)">
        <tspan x="-8.384" y="11.5" font-family="GillSans" font-size="36" kerning="-0.574" fill="#FFFFFE">c</tspan>
      </text>
      <text transform="matrix(1, 0, 0, 1, 495.613, 464.906)">
        <tspan x="-51.301" y="11.5" font-family="GillSans" font-size="36" kerning="0" fill="#FFFFFE">ondary</tspan>
      </text>
    </g>
    <path d="M413.354,323.442 C413.354,324.607 410.448,325.552 406.858,325.552 L219.85,325.552 C216.263,325.552 213.354,324.607 213.354,323.442 L213.354,262.663 C213.354,261.497 216.263,260.552 219.85,260.552 L406.858,260.552 C410.448,260.552 413.354,261.497 413.354,262.663 L413.354,323.442" fill="#2A86C0"/>
    <g>
      <text transform="matrix(1, 0, 0, 1, 265.577, 290.552)">
        <tspan x="-9.676" y="11.5" font-family="GillSans" font-size="36" kerning="-1.015" fill="#FFFFFE">P</tspan>
      </text>
      <text transform="matrix(1, 0, 0, 1, 321.383, 290.552)">
        <tspan x="-48.146" y="11.5" font-family="GillSans" font-size="36" kerning="0" fill="#FFFFFE">rimary</tspan>
      </text>
    </g>
    <path d="M106.784,130.944 C106.784,133.624 108.324,135.796 110.224,135.796 L529.777,135.796 C531.676,135.796 533.216,133.624 533.216,130.944 L533.216,18.049 C533.216,15.369 531.676,13.197 529.777,13.197 L110.224,13.197 C108.324,13.197 106.784,15.369 106.784,18.049 L106.784,130.944" fill="#484743"/>
    <g>
      <text transform="matrix(1, 0, 0, 1, 230.954, 46.38)">
        <tspan x="-44.753" y="11.5" font-family="GillSans" font-size="36" fill="#FFFFFE">Client</tspan>
      </text>
      <text transform="matrix(1, 0, 0, 1, 362.541, 46.38)">
        <tspan x="-82.836" y="11.5" font-family="GillSans" font-size="36" fill="#FFFFFE">Application</tspan>
      </text>
    </g>
    <path d="M106.784,75 L533.216,75" fill-opacity="0" stroke="#ECEBE9" stroke-width="1"/>
    <g>
      <text transform="matrix(1, 0, 0, 1, 292.078, 105.38)">
        <tspan x="-25.074" y="11.5" font-family="GillSans" font-size="36" kerning="0" fill="#FFFFFE">Dri</tspan>
      </text>
      <text transform="matrix(1, 0, 0, 1, 324.536, 105.38)">
        <tspan x="-8.384" y="11.5" font-family="GillSans" font-size="36" kerning="-0.245" fill="#FFFFFE">v</tspan>
      </text>
      <text transform="matrix(1, 0, 0, 1, 347.925, 105.38)">
        <tspan x="-16.25" y="11.5" font-family="GillSans" font-size="36" kerning="0" fill="#FFFFFE">er</tspan>
      </text>
    </g>
    <path d="M290.006,148 L290.006,237 L282.004,237 L295.159,259.773 L308.314,237 L300.006,237 L300.006,148 L290.006,148" fill="#2A86C0"/>
    <g>
      <text transform="matrix(0.001, 1, -1, 0.001, 275.255, 161.013)">
        <tspan x="-13.004" y="7.5" font-family="GillSans" font-size="24" kerning="-1.05" fill="#2A86C0">W</tspan>
      </text>
      <text transform="matrix(0.001, 1, -1, 0.001, 275.283, 189.594)">
        <tspan x="-17.627" y="7.5" font-family="GillSans" font-size="24" kerning="0" fill="#2A86C0">rite</tspan>
      </text>
    </g>
    <g>
      <text transform="matrix(0, 1, -1, -0, 514.321, 282.393)">
        <tspan x="-133.098" y="7.5" font-family="GillSans" font-size="24" kerning="0" fill="#E78A27">Read with Read Preference </tspan>
      </text>
      <text transform="matrix(0, 1, -1, -0, 486.321, 199.283)">
        <tspan x="-49.988" y="7.5" font-family="GillSans" font-size="24" kerning="0" fill="#E78A27">secondary</tspan>
      </text>
    </g>
    <g>
      <text transform="matrix(0.747, -0.665, 0.665, 0.747, 188.039, 390.846)">
        <tspan x="-7.748" y="7.5" font-family="GillSans" font-size="24" kerning="-1.47" fill="#2A86C0">R</tspan>
      </text>
      <text transform="matrix(0.747, -0.665, 0.665, 0.747, 205.061, 375.692)">
        <tspan x="-17.51" y="7.5" font-family="GillSans" font-size="24" kerning="0" fill="#2A86C0">epli</tspan>
      </text>
      <text transform="matrix(0.747, -0.665, 0.665, 0.747, 221.694, 360.885)">
        <tspan x="-5.756" y="7.5" font-family="GillSans" font-size="24" kerning="-0.81" fill="#2A86C0">c</tspan>
      </text>
      <text transform="matrix(0.747, -0.665, 0.665, 0.747, 243.219, 341.723)">
        <tspan x="-24.869" y="7.5" font-family="GillSans" font-size="24" kerning="0" fill="#2A86C0">ation</tspan>
      </text>
    </g>
    <g>
      <path d="M282.258,329.297 L187.664,414.746" fill-opacity="0" stroke="#2A86C0" stroke-width="8" stroke-dasharray="16,8"/>
      <g>
        <path d="M182.837,409.403 L173.416,427.616 L192.49,420.089 z" fill="#2A86C0"/>
        <path d="M182.837,409.403 L173.416,427.616 L192.49,420.089 z" fill-opacity="0" stroke="#2A86C0" stroke-width="8"/>
      </g>
    </g>
    <g>
      <path d="M343.46,329.297 L438.055,414.746" fill-opacity="0" stroke="#2A86C0" stroke-width="8" stroke-dasharray="16,8"/>
      <g>
        <path d="M433.228,420.089 L452.303,427.616 L442.881,409.403 z" fill="#2A86C0"/>
        <path d="M433.228,420.089 L452.303,427.616 L442.881,409.403 z" fill-opacity="0" stroke="#2A86C0" stroke-width="8"/>
      </g>
    </g>
    <text transform="matrix(0.743, 0.669, -0.669, 0.743, 404.686, 366.217)">
      <tspan x="-54.383" y="7.5" font-family="GillSans" font-size="24" fill="#2A86C0">Replication</tspan>
    </text>
    <g>
      <path d="M471.821,148 L472.021,402.536" fill-opacity="0" stroke="#E78A26" stroke-width="8"/>
      <g>
        <path d="M464.821,402.541 L472.036,421.736 L479.221,402.53 z" fill="#E78A26"/>
        <path d="M464.821,402.541 L472.036,421.736 L479.221,402.53 z" fill-opacity="0" stroke="#E78A26" stroke-width="8"/>
      </g>
    </g>
  </g>
</svg>
