<svg xmlns="http://www.w3.org/2000/svg" width="26.211" height="26.211"><path d="M18.3 22.635 12.743 11l12.182 4.266-3.672 1.92 4.958 4.45-1.45 1.763-5.155-4.63z" style="fill:#5d6c74;fill-opacity:1;fill-rule:nonzero;stroke:none;stroke-width:1.3329" transform="translate(0 1.405)"/><path d="M1.333 1.333V0A1.333 1.333 0 0 0 0 1.333Zm16.594 0h1.333A1.333 1.333 0 0 0 17.927 0Zm0 17.358v1.333a1.333 1.333 0 0 0 1.333-1.333zm-16.594 0H0a1.333 1.333 0 0 0 1.333 1.333zM0 1.333V2.78h2.667V1.333Zm0 4.34v2.894h2.667V5.673Zm0 5.786v2.893h2.667v-2.893zm0 5.785v1.447h2.667v-1.447Zm1.333 2.78h1.383v-2.667H1.333Zm4.148 0h2.766v-2.667H5.48Zm5.532 0h2.766v-2.667h-2.766zm5.531 0h1.383v-2.667h-1.383zm2.716-1.333v-1.447h-2.667v1.447zm0-4.34v-2.894h-2.667v2.894zm0-5.786V5.672h-2.667v2.893zm0-5.785V1.333h-2.667V2.78ZM17.927 0h-1.383v2.667h1.383zm-4.148 0h-2.766v2.667h2.766zM8.247 0H5.48v2.667h2.766ZM2.716 0H1.333v2.667h1.383z" style="fill:#5d6c74;fill-opacity:1;fill-rule:nonzero;stroke:none;stroke-width:1.33333" transform="translate(0 1.405)"/></svg>