<?xml version="1.0" encoding="UTF-8"?>
<!DOCTYPE svg PUBLIC "-//W3C//DTD SVG 1.1//EN" "http://www.w3.org/Graphics/SVG/1.1/DTD/svg11.dtd">
<svg version="1.1" xmlns="http://www.w3.org/2000/svg" xmlns:xlink="http://www.w3.org/1999/xlink" x="0px" y="0px" width="720" height="260" viewBox="0, 0, 720, 260">
  <g id="Layer 1">
    <g>
      <path d="M630.872,24.908 L693.925,24.908 L693.925,104.685 L630.872,104.685 z" fill="#FFFFFF"/>
      <path d="M630.872,24.908 L693.925,24.908 L693.925,104.685 L630.872,104.685 z" fill-opacity="0" stroke="#0176C0" stroke-width="0.929"/>
    </g>
    <g>
      <path d="M621.187,32.581 L685.997,32.581 L685.997,110.486 L621.187,110.486 z" fill="#FFFFFF"/>
      <path d="M621.187,32.581 L685.997,32.581 L685.997,110.486 L621.187,110.486 z" fill-opacity="0" stroke="#0176C0" stroke-width="0.929"/>
    </g>
    <text transform="matrix(1, 0, 0, 1, 649.711, 14.833)">
      <tspan x="-36.665" y="6" font-family="GillSans" font-size="18" fill="#0176C0">collection</tspan>
    </text>
    <g>
      <path d="M612.307,41.225 L677.117,41.225 L677.117,119.13 L612.307,119.13 z" fill="#FFFFFF"/>
      <path d="M612.307,41.225 L677.117,41.225 L677.117,119.13 L612.307,119.13 z" fill-opacity="0" stroke="#0176C0" stroke-width="0.929"/>
    </g>
    <text transform="matrix(1, 0, 0, 1, 644.165, 80.119)">
      <tspan x="-27.631" y="-26.085" font-family="GillSans" font-size="12" fill="#0176C0">{ </tspan>
      <tspan x="-27.631" y="-12.085" font-family="GillSans" font-size="12" fill="#0176C0">  </tspan>
      <tspan x="-20.963" y="-12.085" font-family="GillSans" font-size="12" fill="#DE4F01">score</tspan>
      <tspan x="5.791" y="-12.085" font-family="GillSans" font-size="12" fill="#0176C0">: </tspan>
      <tspan x="10.555" y="-12.085" font-family="GillSans" font-size="12" fill="#E04D01">30</tspan>
      <tspan x="22.555" y="-12.085" font-family="GillSans" font-size="12" fill="#0176C0">, </tspan>
      <tspan x="-27.631" y="1.915" font-family="GillSans" font-size="12" fill="#0176C0">  </tspan>
      <tspan x="-20.963" y="1.915" font-family="GillSans" font-size="12" fill="#0176C0">userid: ...,</tspan>
      <tspan x="-27.631" y="15.915" font-family="GillSans" font-size="12" fill="#0176C0">  </tspan>
      <tspan x="-20.963" y="15.915" font-family="GillSans" font-size="12" fill="#0176C0">...</tspan>
      <tspan x="-27.631" y="29.915" font-family="GillSans" font-size="12" fill="#0176C0">}</tspan>
    </text>
    <path d="M28.514,140.891 L688.803,140.891 L688.803,160.086 L28.514,160.086 z" fill="#0C60B2"/>
    <path d="M95.578,137.049 L95.578,176.783" fill-opacity="0" stroke="#AFD1E8" stroke-width="1.5" stroke-dasharray="3,1.5"/>
    <path d="M240.072,137.049 L240.072,176.783" fill-opacity="0" stroke="#AFD1E8" stroke-width="1.5" stroke-dasharray="3,1.5"/>
    <path d="M438.697,137.049 L438.697,176.783" fill-opacity="0" stroke="#AFD1E8" stroke-width="1.5" stroke-dasharray="3,1.5"/>
    <text transform="matrix(1, 0, 0, 1, 93.216, 191.495)">
      <tspan x="-21" y="-4.5" font-family="Inconsolata" font-size="14" fill="#0C60B2">"aa1", </tspan>
      <tspan x="-7" y="11.5" font-family="Inconsolata" font-size="14" fill="#DE4C01">45</tspan>
      <tspan x="7" y="11.5" font-family="GillSans" font-size="14" fill="#DE4C01"> </tspan>
    </text>
    <text transform="matrix(1, 0, 0, 1, 239.469, 192.508)">
      <tspan x="-21" y="-4.5" font-family="Inconsolata" font-size="14" fill="#0C60B2">"ca2", </tspan>
      <tspan x="-7" y="10.5" font-family="Inconsolata" font-size="14" fill="#DE4D01">75</tspan>
    </text>
    <text transform="matrix(1, 0, 0, 1, 28.063, 184.508)">
      <tspan x="-10.5" y="3.5" font-family="Inconsolata" font-size="14" fill="#0C60B2">min</tspan>
    </text>
    <text transform="matrix(1, 0, 0, 1, 435.379, 192.508)">
      <tspan x="-21" y="-4.5" font-family="Inconsolata" font-size="14" fill="#0C60B2">"nb1", </tspan>
      <tspan x="-7" y="10.5" font-family="Inconsolata" font-size="14" fill="#E04D01">30</tspan>
      <tspan x="7" y="10.5" font-family="Inconsolata" font-size="14" fill="#0C60B2"> </tspan>
    </text>
    <text transform="matrix(1, 0, 0, 1, 687.098, 184.834)">
      <tspan x="-10.5" y="3.174" font-family="Inconsolata" font-size="14" fill="#0C60B2">max </tspan>
    </text>
    <path d="M29.877,136.916 L29.877,176.783" fill-opacity="0" stroke="#AFD1E8" stroke-width="1.5" stroke-dasharray="3,1.5"/>
    <path d="M689.646,138.419 L689.646,176.783" fill-opacity="0" stroke="#AFD1E8" stroke-width="1.5" stroke-dasharray="3,1.5"/>
    <path d="M588.237,137.049 L588.237,176.783" fill-opacity="0" stroke="#AFD1E8" stroke-width="1.5" stroke-dasharray="3,1.5"/>
    <text transform="matrix(1, 0, 0, 1, 587.934, 192.508)">
      <tspan x="-21" y="-4.5" font-family="Inconsolata" font-size="14" fill="#0C60B2">"xyz", </tspan>
      <tspan x="-7" y="10.5" font-family="Inconsolata" font-size="14" fill="#E04D01">90</tspan>
      <tspan x="7" y="10.5" font-family="Inconsolata" font-size="14" fill="#EB6D01"> </tspan>
    </text>
    <text transform="matrix(1, 0, 0, 1, 360, 242.443)">
      <tspan x="-160.007" y="6.368" font-family="Inconsolata" font-size="21" fill="#0A60B2"> </tspan>
      <tspan x="-149.507" y="6.368" font-family="Inconsolata" font-size="21" fill="#1D4595">{ </tspan>
      <tspan x="-128.507" y="6.368" font-family="Inconsolata" font-size="21" fill="#0076C0">userid</tspan>
      <tspan x="-65.507" y="6.368" font-family="Inconsolata" font-size="21" fill="#1D4595">: 1, </tspan>
      <tspan x="-13.007" y="6.368" font-family="Inconsolata" font-size="21" fill="#DE4F4F">score</tspan>
      <tspan x="39.493" y="6.368" font-family="Inconsolata" font-size="21" fill="#1D4595">: -1 } </tspan>
      <tspan x="112.993" y="6.368" font-family="GillSans" font-size="21" fill="#1D4595">Index</tspan>
    </text>
    <path d="M295.37,137.637 L295.37,177.371" fill-opacity="0" stroke="#AFD1E8" stroke-width="1.5" stroke-dasharray="3,1.5"/>
    <text transform="matrix(1, 0, 0, 1, 294.767, 192.508)">
      <tspan x="-21" y="-4.5" font-family="Inconsolata" font-size="14" fill="#0C60B2">"ca2", </tspan>
      <tspan x="-7" y="10.5" font-family="Inconsolata" font-size="14" fill="#E04C01">55</tspan>
    </text>
    <path d="M353.908,137.637 L353.908,177.371" fill-opacity="0" stroke="#AFD1E8" stroke-width="1.5" stroke-dasharray="3,1.5"/>
    <text transform="matrix(1, 0, 0, 1, 350.59, 192.508)">
      <tspan x="-21" y="-4.5" font-family="Inconsolata" font-size="14" fill="#0C60B2">"ca2", </tspan>
      <tspan x="-7" y="10.5" font-family="Inconsolata" font-size="14" fill="#E04D01">30</tspan>
      <tspan x="7" y="10.5" font-family="Inconsolata" font-size="14" fill="#0C60B2"> </tspan>
    </text>
  </g>
  <defs/>
</svg>
