<?xml version="1.0" encoding="UTF-8"?>
<!DOCTYPE svg PUBLIC "-//W3C//DTD SVG 1.1//EN" "http://www.w3.org/Graphics/SVG/1.1/DTD/svg11.dtd">
<svg version="1.1" xmlns="http://www.w3.org/2000/svg" xmlns:xlink="http://www.w3.org/1999/xlink" x="0px" y="0px" width="570" height="170" viewBox="0, 0, 570, 170">
  <g id="Layer 1">
    <g>
      <g>
        <path d="M445.144,42.007 L402.217,41.808" fill-opacity="0" stroke="#2D1B11" stroke-width="2"/>
        <path d="M402.234,38.208 L392.617,41.763 L402.2,45.408 z" fill="#2D1B11" fill-opacity="1" stroke="#2D1B11" stroke-width="2" stroke-opacity="1"/>
      </g>
      <text transform="matrix(1, 0, 0, 1, 514.129, 42.466)">
        <tspan x="-55.001" y="6.414" font-family="GillSans" font-size="24" fill="#173182">field</tspan>
        <tspan x="-14.009" y="6.414" font-family="GillSans" font-size="24" fill="#2A86C0">: value </tspan>
      </text>
    </g>
    <g>
      <g>
        <path d="M445.144,68.742 L402.217,68.542" fill-opacity="0" stroke="#2D1B11" stroke-width="2"/>
        <path d="M402.234,64.942 L392.617,68.498 L402.2,72.142 z" fill="#2D1B11" fill-opacity="1" stroke="#2D1B11" stroke-width="2" stroke-opacity="1"/>
      </g>
      <g>
        <path d="M445.144,95.301 L402.217,95.102" fill-opacity="0" stroke="#2D1B11" stroke-width="2"/>
        <path d="M402.234,91.502 L392.617,95.058 L402.201,98.702 z" fill="#2D1B11" fill-opacity="1" stroke="#2D1B11" stroke-width="2" stroke-opacity="1"/>
      </g>
    </g>
    <text transform="matrix(1, 0, 0, 1, 514.129, 69.052)">
      <tspan x="-55.001" y="6.414" font-family="GillSans" font-size="24" fill="#173182">field</tspan>
      <tspan x="-14.009" y="6.414" font-family="GillSans" font-size="24" fill="#2A86C0">: value</tspan>
    </text>
    <text transform="matrix(1, 0, 0, 1, 514.13, 95.612)">
      <tspan x="-55.001" y="6.414" font-family="GillSans" font-size="24" fill="#173182">field</tspan>
      <tspan x="-14.009" y="6.414" font-family="GillSans" font-size="24" fill="#2A86C0">: value</tspan>
    </text>
    <text transform="matrix(1, 0, 0, 1, 186.389, 82.513)">
      <tspan x="-184.255" y="-58.555" font-family="Inconsolata" font-size="24" fill="#5CA831">{</tspan>
      <tspan x="-172.255" y="-58.555" font-family="Inconsolata" font-size="24" fill="#2A86C0"> </tspan>
      <tspan x="-184.255" y="-32.555" font-family="Inconsolata" font-size="24" fill="#D33907">  </tspan>
      <tspan x="-160.255" y="-32.555" font-family="Inconsolata" font-size="24" fill="#173182">name</tspan>
      <tspan x="-112.255" y="-32.555" font-family="Inconsolata" font-size="24" fill="#2A86C0">: "sue", </tspan>
      <tspan x="-184.255" y="-6.555" font-family="Inconsolata" font-size="24" fill="#D33907">  </tspan>
      <tspan x="-160.255" y="-6.555" font-family="Inconsolata" font-size="24" fill="#173182">age</tspan>
      <tspan x="-124.255" y="-6.555" font-family="Inconsolata" font-size="24" fill="#2A86C0">: 26,</tspan>
      <tspan x="-184.255" y="19.445" font-family="Inconsolata" font-size="24" fill="#D33907">  </tspan>
      <tspan x="-160.255" y="19.445" font-family="Inconsolata" font-size="24" fill="#173182">status</tspan>
      <tspan x="-88.255" y="19.445" font-family="Inconsolata" font-size="24" fill="#2A86C0">: "A",</tspan>
      <tspan x="-184.255" y="45.445" font-family="Inconsolata" font-size="24" fill="#D33907">  </tspan>
      <tspan x="-160.255" y="45.445" font-family="Inconsolata" font-size="24" fill="#173182">groups</tspan>
      <tspan x="-88.255" y="45.445" font-family="Inconsolata" font-size="24" fill="#2A86C0">: [ "news", "sports" ]</tspan>
      <tspan x="-184.255" y="71.445" font-family="Inconsolata" font-size="24" fill="#5CA831">}</tspan>
    </text>
    <path d="M602.883,354.44 L602.833,354.833" fill-opacity="0" stroke="#5CA831" stroke-width="2"/>
    <g>
      <path d="M445.144,124.295 L402.217,124.096" fill-opacity="0" stroke="#2D1B11" stroke-width="2"/>
      <path d="M402.234,120.496 L392.617,124.051 L402.2,127.696 z" fill="#2D1B11" fill-opacity="1" stroke="#2D1B11" stroke-width="2" stroke-opacity="1"/>
    </g>
    <text transform="matrix(1, 0, 0, 1, 514.129, 124.754)">
      <tspan x="-55.001" y="6.414" font-family="GillSans" font-size="24" fill="#173182">field</tspan>
      <tspan x="-14.009" y="6.414" font-family="GillSans" font-size="24" fill="#2A86C0">: value </tspan>
    </text>
  </g>
  <defs/>
</svg>
