<svg xmlns="http://www.w3.org/2000/svg" height="460" width="900"><path d="M29.4 183.6h660v19.7h-660z" fill="#1f66af"/><path d="M30 179.8V217m129-37.2V217m115.2-37.2V217m165.2-37.2V217m188.4-37.2V217m62.1-37.2V217" stroke="#b0c8db" stroke-dasharray="2,2" fill="none"/><path d="M17.5 235.6V226h1.3v1q.4-.6.9-1 .5-.3 1.1-.3.6 0 1 .4.6.4.7 1 .3-.6.9-1 .5-.4 1.2-.4 1 0 1.5.7.4.7.4 1.8v7.4h-1.4v-7.8q-.1-.5-.3-.6l-.2-.3h-.4l-.6.2-.5.5-.3.8-.1.8v6.4h-1.4v-6.7q0-1.2-.3-1.6-.2-.4-.7-.4-.5 0-1 .6t-.5 1.7v6.4h-1.3zm11.9-9.6h3.8v8.3h2.3v1.3h-6.2v-1.3h2.4v-7.1h-2.3V226zm2.3-3.9q.3-.3.8-.3.4 0 .7.3.4.3.4.8 0 .4-.4.7-.3.3-.7.3-.5 0-.8-.3-.3-.3-.3-.7 0-.5.3-.8zm7.3 13.5V226h1.6v1.7q.6-1 1.4-1.4.9-.6 1.8-.6.6 0 1.1.3.6.2 1 .7.4.4.6 1.2.2.7.2 1.8v5.9h-1.5v-5.8q0-1.5-.5-2.1-.5-.6-1.2-.6l-1 .2-1 .6-.6.9q-.3.5-.3 1.2v5.6h-1.5zm114.2-13.1l.2 13.2H152l-.2-11.3-2.7.8-.3-.8 3.4-1.8h1zm13.1 2.8q0 1-.6 1.8-.5.8-1.5 1.4 1.2.5 1.9 1.4.7 1 .7 2.1 0 .8-.3 1.5-.3.6-.8 1.1-.5.5-1.3.8-.7.3-1.5.3-.9 0-1.6-.3-.7-.2-1.3-.7-.5-.4-.9-1-.3-.7-.3-1.4 0-1.2.7-2.2.7-1 1.9-1.5-1-.5-1.5-1.3-.6-.8-.6-1.8 0-.6.3-1.2.2-.6.7-1 .5-.5 1.1-.8.6-.3 1.4-.3.7 0 1.4.3.6.2 1 .6.5.4.8 1l.3 1.2zm-3.8 3.8q-1 .4-1.6 1.2-.6.8-.6 1.8 0 .5.2.9l.6.7.8.5 1 .2 1-.2.7-.5q.4-.3.6-.7l.1-1q0-1-.8-1.7-.7-.8-2-1.2zm-1.4-2.6l.7.7 1 .6.3.2q.8-.5 1.3-1.2.4-.7.4-1.5l-.1-.7-.5-.6-.7-.4-.8-.1-.8.2q-.4.1-.6.4-.3.2-.4.6-.2.3-.2.7 0 .6.4 1.1zm110.6-.7q0 .9-.5 1.7-.5.8-1.4 1 1 .4 1.6 1.4.6.9.6 2 0 .8-.3 1.5-.2.7-.8 1.3-.5.5-1.3.8-.8.3-1.8.3-1.9 0-3.2-1.5l1-1.3.2.3.1.3.3.3.7.3 1 .2q.6 0 1.1-.2l.9-.5.5-.9.2-1q0-1.2-.8-1.8-.9-.7-2.3-.7h-.6v-1.1q1 0 1.6-.2.7-.2 1-.6.5-.3.6-.7l.2-1-.1-.7-.5-.7-.7-.4q-.4-.2-1-.2-1.3 0-2.2 1l-.8-.9q1.3-1.4 3.1-1.4.8 0 1.4.3l1.2.7q.5.5.7 1 .3.7.3 1.4zm10-1.7q.6.9 1 2.2.4 1.3.4 3 0 1.6-.4 2.8-.4 1.3-1 2-.6.9-1.3 1.3-.8.4-1.6.4t-1.5-.5q-.8-.5-1.4-1.3-.6-1-1-2.1-.2-1.3-.2-2.8 0-1.5.3-2.7.3-1.2 1-2.1.5-1 1.3-1.4.7-.5 1.5-.5 1.7 0 3 1.7zm-.8 1.3q-.4-.9-1-1.3-.5-.4-1-.4-.6 0-1.1.4-.5.3-.9 1l-.7 1.6q-.2 1-.2 2.2 0 1.3.3 2.4l4.6-6zm.5 1.4l-4.6 5.9q.5 1 1 1.3.6.4 1.2.4.5 0 1-.3t.9-1l.6-1.6q.2-1 .2-2.1V228l-.3-1.2zm152.7-4.3h1.3v8.1h1.7v1.3h-1.7v3.7h-1.6v-3.7h-5.2v-1l5.5-8.4zm-.2 2.3l-3.9 5.8h3.9v-5.8zm6.4-2.3h6.6v1.3h-5.4l-.2 3.8q1-.5 2.2-.5.8 0 1.5.3t1.3.8q.5.6.8 1.4.3.8.3 1.8t-.3 1.9q-.3.8-.9 1.3-.5.6-1.3.9-.7.3-1.6.3-1.2 0-2.2-.5-1-.6-1.7-1.5l1.3-1 .1.3v.2l.3.3.6.4.7.4 1 .1 1-.2q.4-.2.7-.6.4-.4.6-1 .2-.6.2-1.3 0-.8-.2-1.3-.2-.6-.6-1-.3-.4-.8-.6l-1-.2q-.7 0-1.4.3-.6.3-1.1 1l-1-.5.5-6.6zm185.4.8l-2.5 6q-1.1 3.1-2 6.3h-1.8l2.1-6 2.4-5.7h-5.6v-1.4h7.4v.8zm3.6-.8h6.7v1.3h-5.4l-.2 3.8q1-.5 2.1-.5.8 0 1.6.3.7.3 1.2.8.6.6.9 1.4.3.8.3 1.8t-.4 1.9q-.3.8-.8 1.3-.6.6-1.3.9-.8.3-1.7.3-1.2 0-2.2-.5-1-.6-1.6-1.5l1.3-1v.3l.1.2.3.3q.2.3.5.4l.8.4 1 .1.9-.2q.5-.2.8-.6l.6-1q.2-.6.2-1.3 0-.8-.2-1.3l-.6-1q-.4-.4-.9-.6l-1-.2q-.7 0-1.3.3-.7.3-1.2 1l-.9-.5.4-6.6zm42 12v-9.6h1.4v1q.3-.6.8-.9.6-.3 1.1-.3.7 0 1.1.4.5.4.6 1 .3-.6.9-1 .6-.4 1.3-.4 1 0 1.4.7.5.7.4 1.7v7.4H679v-6.8l-.1-1q0-.4-.2-.6l-.3-.2-.4-.1q-.3 0-.5.2-.3.2-.5.6l-.4.7v7.2H675v-6.7q0-1.2-.2-1.6-.2-.4-.8-.4-.5 0-1 .6-.4.6-.4 1.7v6.4h-1.4zm11.6-8.5q1.3-1.3 3.4-1.3 1.8 0 2.8.9 1 .9 1 3v5.9h-1.4v-1q-1.5 1.2-3.4 1.2-.8 0-1.4-.2-.6-.2-1-.6l-.7-.9q-.2-.4-.2-1 0-1.4 1.3-2.2 1.2-.9 3.6-1h1.8v-.3q0-1.4-.6-2-.6-.6-1.9-.6-1.5 0-2.6 1.1l-.7-1zm5.8 4h-1.4q-1.1 0-1.9.2-.7.1-1.1.4-.5.3-.6.6-.2.3-.2.7 0 .7.6 1.2t1.5.5q.6 0 1.1-.2l.9-.5.6-.6.3-.5q.2-.4.2-1.2v-.6zm10.3-5h1.6l-3 4.6 3.5 4.9h-1.8l-2.6-3.7-2.5 3.7h-1.7l3.4-4.9-3.4-4.7h1.7l2.5 3.6 2.4-3.6z" font-size="21" font-family="Inconsolata" fill="#cd5a2b"/><path d="M29.8 176h244v34.8h-244z" opacity=".5" fill="#2476c0"/><g font-size="24" font-family="Inconsolata"><path d="M33.6 74v-6.5h1.8v.3l-.2.4v14.2l.1 1h-1.7v-1.8q-.6 1-1.5 1.6-1 .5-1.9.5-.9 0-1.7-.4-.8-.3-1.4-1-.6-.8-1-1.9-.3-1-.3-2.6 0-1.5.4-2.5.4-1.1 1-1.8.7-.7 1.5-1 .8-.3 1.7-.3 1.1 0 2 .5.8.5 1.2 1.4zm-5.1.4q-1 1-1 3.2 0 2 .7 3.3.8 1.3 2.4 1.3l.7-.2q.4 0 .8-.4.4-.2.6-.6l.5-.8q.2-.9.2-2.3v-1.5l-.3-1q-.1-.5-.4-.8-.2-.3-.6-.5l-.8-.4-.7-.1q-.7 0-1.2.2l-1 .6zm9.6-6.9h2l-.1.3-.1.2v6.2q.5-1 1.4-1.5.9-.5 1.8-.5 1 0 1.8.4.8.3 1.4 1 .6.7 1 1.8.4 1 .4 2.4 0 1.5-.5 2.6-.3 1.1-1 1.9-.6.7-1.5 1-.8.4-1.6.4-1 0-1.9-.5-.8-.4-1.4-1.2l-.6 1.4h-1v-16zm3 14.3l.8.3h.7l1-.1q.6-.2 1.1-.6.5-.5.8-1.3.4-.7.4-2 0-2.1-1-3.3-.8-1.1-2.5-1.1-.6 0-1.3.4-.6.5-1 1.2-.2.7-.2 2.3v1.7q0 .7.2 1.2l.4.8.6.5zm14.3-.4q.4.4.4 1 0 .5-.4.9t-1 .4q-.6 0-1-.4t-.4-1q0-.5.4-1 .4-.4 1-.4.5 0 1 .5zm6.8-8.9h1.7v6q0 1.1.2 1.9.2.7.5 1.1l.8.6 1 .2q.6 0 1.1-.3.6-.2 1-.6.4-.5.6-1.2.3-.7.3-1.7v-6H71v10l.1 1h-1.8v-1.8q-.5.9-1.4 1.4-1 .5-2 .5-.9 0-1.5-.3-.7-.3-1.2-1-.6-.5-.9-1.5-.2-1-.2-2.3v-6.1zM83 74l-1 1.4v-.1l-.1-.3-1.2-1q-.8-.5-1.8-.5l-1 .1-.7.3-.5.5q-.2.3-.2.7 0 .3.2.5.1.3.4.5l.9.4 1.5.5q2 .5 2.9 1.3.8.7.8 1.9 0 .7-.3 1.3-.3.7-.9 1.1-.6.5-1.4.8-.9.3-2 .3-2.7 0-4.5-1.7l1-1.8v.3l.2.3.5.5 1.2.6.8.3h1.9l.9-.4.6-.6q.3-.3.3-.7 0-.6-.6-1-.6-.5-2.1-1l-1.4-.4q-.9-.3-1.3-.6l-.7-.6-.5-.8q-.2-.4-.2-1 0-.5.4-1 .3-.6.8-1 .6-.4 1.4-.6.8-.3 1.7-.3 2.5 0 4 1.7zm7.9-1.8q.9 0 1.7.3.8.3 1.4 1 .6.6 1 1.6t.4 2.3v.8h-7.9q0 1.2.4 2l.9 1.2q.5.5 1.2.7.6.2 1.3.2 1.7 0 2.8-1.2l1 .9q-1.4 1.7-3.9 1.7-1.2 0-2.2-.4-1-.4-1.7-1-.7-.8-1-1.9-.4-1-.4-2.4t.3-2.5l1.1-1.8q.7-.7 1.6-1.1 1-.4 2-.4zM87.6 77h6v-.4q0-.6-.2-1.1-.2-.6-.6-1-.4-.4-1-.6-.4-.3-1-.3-1.1 0-2 .8-1 .8-1.2 2.6zM99 72.5h1.9v2q.4-1 1.5-1.7 1.1-.6 2.3-.6 1.8 0 3 1.2l-.8 1.7-.5-.6q-.2-.3-.5-.4l-.5-.3-.7-.1q-.8 0-1.5.4-.7.3-1.3 1-.5.6-.8 1.4-.3.7-.3 1.6v5.4h-1.7v-11zm20 1.5l-1 1.4v-.1l-.1-.3-1.2-1q-.8-.5-1.8-.5l-1 .1-.7.3-.5.5q-.2.3-.2.7 0 .3.2.5.1.3.4.5l.9.4 1.5.5q2 .5 2.9 1.3.8.7.8 1.9 0 .7-.3 1.3-.3.7-.9 1.1-.6.5-1.4.8-.9.3-2 .3-2.7 0-4.5-1.7l1-1.8v.3l.2.3.5.5 1.2.6.8.3h1.9l.9-.4.6-.6q.3-.3.3-.7 0-.6-.6-1-.6-.5-2.1-1l-1.4-.4q-.9-.3-1.3-.6l-.7-.6-.5-.8q-.2-.4-.2-1 0-.5.4-1 .3-.6.8-1 .6-.4 1.4-.6.8-.3 1.7-.3 2.5 0 4 1.7zm8.4 7.4q.4.4.4 1 0 .5-.4.9t-1 .4q-.6 0-1-.4t-.4-1q0-.5.4-1 .4-.4 1-.4.5 0 1 .5zM141 67.3q2 0 3.3 1.5l-.8 1.6q-.2 0-.2-.2V70q-.4-.6-1-1-.7-.3-1.5-.3-.6 0-1 .2-.5.2-.9.6l-.5 1q-.2.8-.2 1.8v.8h3.6v1.4h-3.6v9h-1.6v-9h-2.4V73h2.4v-1q0-1.3.3-2.2.3-1 1-1.5.5-.5 1.3-.8.8-.3 1.7-.3zm6.2 5.2h4.4V82h2.6v1.4H147V82h2.8v-8h-2.7v-1.4zM150 68q.4-.4.9-.4t.8.4q.4.3.4.8t-.4 1q-.3.3-.8.3t-.9-.4q-.3-.4-.3-.9t.3-.8zm8.3 15.4v-11h1.8v2q.6-1 1.6-1.6 1-.6 2-.6.7 0 1.3.3.6.2 1 .8.5.5.8 1.4.3.8.3 2v6.7h-1.8v-6.6q0-1.7-.6-2.4-.5-.7-1.4-.7-.5 0-1.1.3-.6.2-1 .7-.5.4-.8 1-.3.6-.3 1.4v6.3h-1.8zm19.3-9.4v-6.5h1.8v.3l-.2.4v14.2l.1 1h-1.7v-1.8q-.6 1-1.5 1.6-1 .5-1.9.5-.9 0-1.7-.4-.8-.3-1.4-1-.6-.8-1-1.9-.3-1-.3-2.6 0-1.5.4-2.5.4-1.1 1-1.8.7-.7 1.5-1 .8-.3 1.7-.3 1.1 0 2 .5.8.5 1.2 1.4zm-5.1.4q-1 1-1 3.2 0 2 .7 3.3.8 1.3 2.4 1.3l.7-.2q.4 0 .8-.4.4-.2.6-.6l.5-.8q.2-.9.2-2.3v-1.5l-.3-1q-.1-.5-.4-.8-.2-.3-.6-.5l-.8-.4-.7-.1q-.7 0-1.2.2l-1 .6zm18.1-5.4h-.5q-2 1.3-3.2 3.4-1.2 2.2-1.2 4.9 0 1.3.3 2.7.4 1.3 1 2.5.7 1.1 1.7 2.1t2.2 1.7l-.8 1.3q-1.4-.8-2.6-1.9-1-1-1.9-2.4-.7-1.3-1.2-2.9-.4-1.5-.4-3.2 0-1.6.4-3 .5-1.6 1.3-2.9.7-1.3 1.8-2.2 1.2-1 2.6-1.6l.7 1.4h-.2zm17.9 14l.1-2.3q0-1.6-.6-2.2-.5-.5-1.6-.5h-.4v-1.4h.4q1.1 0 1.7-.6.5-.6.5-2v-1.7q0-4.1 4.4-4.1h1.5v1.3h-2q-2.2 0-2.2 2.6v1.6q0 2.7-2 3.6 2 .7 2 3.7l-.1 2q0 1.7.7 2.3.7.6 2.3.6h1.3v1.4h-1l-2-.1q-1-.1-1.7-.7-1.3-1-1.3-3.4zm30.5-9l-1 1.4v-.1l-.1-.3-1.2-1q-.8-.5-1.8-.5l-1 .1-.7.3-.5.5q-.2.3-.2.7 0 .3.2.5.1.3.4.5l.9.4 1.5.5q2 .5 2.9 1.3.8.7.8 1.9 0 .7-.3 1.3-.3.7-.9 1.1-.6.5-1.4.8-.9.3-2 .3-2.7 0-4.5-1.7l1-1.8v.3l.2.3.5.5 1.2.6.8.3h1.9l.9-.4.6-.6q.3-.3.3-.7 0-.6-.6-1-.6-.5-2.1-1l-1.4-.4q-.9-.3-1.3-.6l-.7-.6-.5-.8q-.2-.4-.2-1 0-.5.4-1 .3-.6.8-1 .6-.4 1.4-.6.8-.3 1.7-.3 2.5 0 4 1.7zm12.7.3l-1.3 1.4v-.1l-.1-.3-.2-.3-.6-.6q-.8-.7-2.2-.7-.7 0-1.3.3-.7.3-1.1.8-.5.6-.8 1.3-.3.8-.3 1.7 0 1 .3 1.8.3.7.8 1.3.5.6 1.2 1 .7.2 1.5.2 1.7 0 2.9-1.3l1 1.2q-1.6 1.7-4 1.7-1.2 0-2.2-.4-1-.5-1.7-1.2-.8-.8-1.2-1.8-.4-1-.4-2.3 0-1.3.4-2.3.4-1 1.2-1.8.7-.8 1.7-1.2 1-.4 2.2-.4 1.3 0 2.4.5 1 .5 1.8 1.5zm7.1-2.1q1 0 1.9.4.9.4 1.6 1.2.6.7 1 1.8.4 1 .4 2.4 0 1.3-.4 2.4-.3 1-1 1.8-.7.7-1.6 1.1-1 .4-2 .4t-2-.4q-.8-.4-1.5-1.2-.7-.7-1.1-1.8-.5-1-.5-2.3 0-1.2.5-2.3.4-1 1-1.8.8-.8 1.7-1.2 1-.5 2-.5zM262 78q0-1-.3-1.8l-.7-1.4-1-.8q-.6-.3-1.3-.3-.6 0-1.2.3t-1 .8q-.5.6-.8 1.4-.2.7-.2 1.7t.2 1.8q.3.8.7 1.3l1 1 1.4.2 1.2-.2q.6-.3 1-.8.5-.6.7-1.4.3-.8.3-1.8zm5-5.5h1.9v2q.4-1 1.5-1.7 1.1-.6 2.3-.6 1.8 0 3 1.2l-.8 1.7-.5-.6q-.2-.3-.5-.4l-.5-.3-.7-.1q-.8 0-1.5.4-.7.3-1.3 1-.5.6-.8 1.4-.3.7-.3 1.6v5.4h-1.7v-11zm15.9-.3q.9 0 1.7.3.8.3 1.4 1 .6.6 1 1.6t.4 2.3v.8h-7.9q0 1.2.4 2l.9 1.2q.5.5 1.2.7.6.2 1.3.2 1.7 0 2.8-1.2l1 .9q-1.4 1.7-3.9 1.7-1.2 0-2.2-.4-1-.4-1.7-1-.7-.8-1-1.9-.4-1-.4-2.4t.3-2.5l1.1-1.8q.7-.7 1.6-1.1 1-.4 2-.4zm-3.3 4.7h6v-.4q0-.6-.2-1.1-.2-.6-.6-1-.4-.4-1-.6-.4-.3-1-.3-1.1 0-2 .8-1 .8-1.2 2.6zm15.8-3.2q.4.4.4 1 0 .5-.4 1-.4.3-1 .3t-1-.4q-.4-.4-.4-1 0-.5.4-.9t1-.4q.5 0 1 .4zm0 7.7q.4.4.4 1 0 .5-.4.9t-1 .4q-.6 0-1-.4t-.4-1q0-.5.4-1 .4-.4 1-.4.5 0 1 .5zm21.1 1.6l.1-2.3q0-1.6-.6-2.2-.5-.5-1.6-.5h-.4v-1.4h.4q1.1 0 1.7-.6.5-.6.5-2v-1.7q0-4.1 4.4-4.1h1.5v1.3h-2q-2.2 0-2.2 2.6v1.6q0 2.7-2 3.6 2 .7 2 3.7l-.1 2q0 1.7.7 2.3.7.6 2.3.6h1.3v1.4h-1l-2-.1q-1-.1-1.7-.7-1.3-1-1.3-3.4zm27.7-12.7l-.1-1.5q0-.7.3-1 .3-.3.7-.3.4 0 .8.3.3.4.3 1.2 0 .7-.8 3l-.6 1.6-1.3-.4.5-1.6.2-1.3zm-4 0l-.3-1.5q0-.7.4-1 .3-.3.7-.3.4 0 .7.3.4.4.4 1.2 0 .8-.8 3l-.6 1.6-1.4-.4.6-1.6.1-.7.1-.6zm14.1-2.5h1.6v.3q-.2 0-.2.2v1q2.3.2 3.6 1.8l-1 1.3q-.2 0-.2-.2l-.1-.3q-.8-1-2.3-1.3v4.7l1.8.7q.8.3 1.2.8.5.4.8 1 .2.6.2 1.3 0 .7-.3 1.3-.2.7-.8 1.2-.5.6-1.2 1l-1.7.5v1.5h-1.4V83q-2.6-.2-4.2-2l1-1.4q.2.1.2.3v.2q1.2 1.3 3 1.5v-5.3q-1.8-.6-2.8-1.5-1-.8-1-2.2 0-.6.3-1.2t.8-1q.5-.5 1.2-.8.7-.3 1.5-.4v-1.5zm1.4 9v4.9q1.2-.3 1.8-1 .7-.7.7-1.5 0-.9-.6-1.4-.6-.5-1.9-1zm-1.4-2v-4.2q-1 .1-1.6.7-.5.5-.5 1.2 0 1.4 2.1 2.3zm8.4-7.3h4.9V82h3.2v1.4h-8.2V82h3.2V69h-3v-1.4zm14.5 2l1.9-.3v.4l-.2.3-.2 2.6h3.6v1.4h-3.6q-.3 2.1-.3 4v2l.3 1.2q.2.4.6.7.4.2 1 .2 1.2 0 2.5-1l.5 1.4q-1.6 1.3-3.4 1.3-1.7 0-2.5-1-.8-1.1-.7-3.5V77l.2-3.1h-2.5v-1.4h2.6l.2-3zm15 .8l-.1-1.5q0-.7.3-1 .3-.3.7-.3.4 0 .8.3.3.4.3 1.2 0 .7-.8 3l-.6 1.6-1.3-.4.5-1.6.2-1.3zm-4 0l-.3-1.5q0-.7.4-1 .3-.3.7-.3.4 0 .7.3.4.4.4 1.2 0 .8-.8 3l-.6 1.6-1.4-.4.6-1.6.1-.7.1-.6zm15.2 3.4q.4.4.4 1 0 .5-.4 1-.4.3-1 .3t-1-.4q-.4-.4-.4-1 0-.5.4-.9t1-.4q.5 0 1 .4zm0 7.7q.4.4.4 1 0 .5-.4.9t-1 .4q-.6 0-1-.4t-.4-1q0-.5.4-1 .4-.4 1-.4.5 0 1 .5z" fill="#133a80"/><path d="M430.5 72.2q0 1.1-.6 2-.6.9-1.6 1.3 1.2.4 1.9 1.4.7 1 .7 2.4 0 1-.4 1.7-.3.8-.9 1.4-.6.6-1.5 1-.9.3-2 .3-2.2 0-3.8-1.7l1.3-1.5.2.3.1.4.4.3.7.4q.6.3 1.3.3.6 0 1.2-.3l1-.6.5-1q.3-.6.3-1.2 0-1.3-1-2-1-.8-2.6-.8h-.7V75q1.1 0 1.9-.2l1.2-.6q.4-.4.6-1l.2-1q0-.5-.2-.9-.1-.4-.5-.7l-.8-.5-1-.2q-1.6 0-2.6 1.2l-1-1q1.5-1.7 3.6-1.7.9 0 1.6.4.8.2 1.3.8.6.5 1 1.2l.2 1.4zm11.5-1.8q.6 1 1 2.4.5 1.5.5 3.4 0 2-.4 3.3-.5 1.4-1.2 2.4-.6.9-1.5 1.3-.9.5-1.7.5-1 0-1.8-.5-.9-.6-1.6-1.6-.6-1-1-2.4t-.4-3.1q0-1.7.4-3.1.4-1.4 1-2.4.7-1 1.6-1.6.8-.6 1.8-.6 1.8 0 3.2 2zm-1 1.4q-.4-1-1-1.4-.7-.5-1.3-.5-.6 0-1.2.4t-1 1.2q-.5.8-.8 1.9-.3 1-.3 2.4 0 1.5.4 2.8l5.3-6.8zm.6 1.6l-5.3 6.7q.6 1.1 1.2 1.6.7.5 1.3.5.7 0 1.2-.4.6-.4 1-1.2.4-.7.7-1.8.2-1 .2-2.4v-1.6l-.3-1.4z" fill="#cd5a2b"/><path d="M464.8 72.3v1.8q0 1.3.5 2 .6.5 1.7.5h.4V78h-.5q-1 0-1.6.5-.5.6-.5 2.2V83q0 2-.9 3.1-1 1-3 1h-2V86h2.2l.5-.1.3-.1.3-.2q1-.7 1-2.5v-2q0-3 2-3.7-2.2-.9-2.2-3.6l.1-1.6q0-1.4-.6-2-.6-.6-1.8-.6h-1.8v-1.3h2.5q.9 0 1.6.5.8.5 1.3 1.3.5.9.5 2.3zm24 0v1.8q0 1.3.5 2 .6.5 1.7.5h.4V78h-.5q-1 0-1.6.5-.5.6-.5 2.2V83q0 2-.9 3.1-1 1-3 1h-2V86h2.2l.5-.1.3-.1.3-.2q1-.7 1-2.5v-2q0-3 2-3.7-2.2-.9-2.2-3.6l.1-1.6q0-1.4-.6-2-.6-.6-1.8-.6h-1.8v-1.3h2.5q.9 0 1.6.5.8.5 1.3 1.3.5.9.5 2.3zm17.8-3.3l.4-1.5q1.5.7 2.7 1.7 1.2 1 2 2.4.8 1.3 1.3 2.8.4 1.5.4 3 0 1.6-.5 3.2-.4 1.5-1.3 2.8-.8 1.4-2 2.4-1.2 1.1-2.7 1.8l-.5-1.4q1.2-.7 2.2-1.6 1-1 1.7-2 .7-1.2 1-2.5.4-1.2.4-2.6 0-1.3-.4-2.6-.3-1.3-1-2.4l-1.6-2q-1-1-2.1-1.5z" fill="#133a80"/></g><path d="M60 28v2.6Q57.5 32 54 32q-2.7 0-4.6-1.1-1.9-1.1-3-3-1.1-2-1.1-4.2 0-3.6 2.5-6 2.6-2.5 6.3-2.5 2.6 0 5.8 1.4V19q-3-1.7-5.7-1.7-2.8 0-4.6 1.8-1.9 1.8-1.9 4.5t1.8 4.4q1.9 1.7 4.7 1.7 3 0 5.8-1.8zm7.8-7q2.5 0 4.1 1.6 1.6 1.6 1.6 4 0 2.3-1.6 3.8-1.7 1.6-4.2 1.6-2.4 0-4-1.6Q62 29 62 26.5t1.7-4q1.6-1.5 4.1-1.5zm-.1 2q-1.5 0-2.5 1t-1 2.5q0 1.5 1 2.5t2.6 1q1.6 0 2.6-1t1-2.5q0-1.6-1-2.6-1.1-1-2.7-1zm8.3-7.6h2v16.4h-2V15.4zm5.2 0h2.1v16.4h-2V15.4zm14.5 11.2H88q0 1.5 1 2.5 1 .9 2.5.9 2 0 3.9-1.3v2q-1 .7-2 1-1 .3-2.3.3-1.7 0-2.8-.8-1.1-.7-1.8-2-.7-1.2-.7-2.9 0-2.4 1.4-4 1.4-1.5 3.7-1.5 2.1 0 3.4 1.5 1.3 1.5 1.3 4v.3zM88 25.3h5.4q0-1.3-.7-2-.7-.6-1.8-.6-1.2 0-2 .6-.7.7-.9 2zm18 4v2q-1.6.7-3.1.7-2.5 0-4-1.5t-1.5-4q0-2.6 1.4-4.1 1.5-1.6 3.9-1.6.8 0 1.5.2.6.1 1.6.6v2.2q-1.6-1-3-1t-2.4 1q-.9 1-.9 2.6t1 2.6q1 1 2.7 1 1.2 0 2.8-.7zm1-6.6l4-4V21h3.4v2h-3.5v5.2q0 1.9 1.6 1.9 1.1 0 2.4-.8v2q-1.2.7-2.7.7-1.4 0-2.4-.9l-.5-.5-.4-.9V23h-2v-.2zm10.6-6.2q.5 0 .9.3.3.4.3 1 0 .4-.3.8-.4.4-1 .4-.4 0-.8-.4t-.4-.9q0-.5.4-.8.4-.4.9-.4zm-1 4.5h2v10.8h-2V21zm10.3 0q2.4 0 4 1.6 1.7 1.6 1.7 4 0 2.3-1.7 3.8-1.6 1.6-4.1 1.6-2.4 0-4-1.6-1.7-1.5-1.7-3.9t1.6-4q1.7-1.5 4.2-1.5zm-.1 2q-1.6 0-2.6 1t-1 2.5q0 1.5 1 2.5t2.6 1q1.6 0 2.6-1t1-2.5q0-1.6-1-2.6t-2.6-1zm10.2-2v1.4q1.5-1.6 3.3-1.6 1 0 1.9.5.9.5 1.3 1.5.5.9.5 2.8v6.2h-2.2v-6.1q0-1.7-.5-2.4t-1.7-.7q-1.5 0-2.5 1.5v7.7h-2.2V21h2.2z" font-size="24" font-family="GillSans" fill="#468bbe"/><g stroke="#468bbe"><path d="M88.3 39.3v15.6" fill="none"/><path d="M85.3 55l3 8 3-8z" fill="#468bbe"/></g><path d="M280 32.8l-2.3 2.3q-1 0-2.3-.4-1.2-.3-2.4-.9-1.3-.6-3.3-2-3-.5-5-2.8-1.9-2.3-1.9-5.3 0-3.7 2.5-6.1 2.5-2.4 6.3-2.4t6.3 2.4q2.5 2.4 2.5 6 0 3-1.9 5.3-1.8 2.3-4.9 2.9l.7.2q2.9 1.1 4.1 1.1.7 0 1.7-.3zm-8.4-15.4q-2.7 0-4.5 1.8-1.9 1.8-1.9 4.5 0 2.6 1.9 4.4 1.8 1.7 4.5 1.7t4.6-1.8q1.8-1.8 1.8-4.4 0-2.7-1.8-4.4-1.8-1.8-4.6-1.8zm18.3 14.4v-1.4q-.7.8-1.6 1.2-.9.4-1.7.4-1 0-2-.5-.8-.5-1.2-1.4-.4-.9-.4-3v-6h2v6q0 1.8.6 2.4.5.7 1.7.7 1.5 0 2.6-1.5V21h2.1v10.8h-2.1zm14.3-5.2h-7.6q0 1.5 1 2.5 1 .9 2.5.9 2.1 0 3.9-1.3v2q-1 .7-2 1-1 .3-2.2.3-1.8 0-2.9-.8-1.1-.7-1.8-2-.6-1.2-.6-2.9 0-2.4 1.4-4 1.4-1.5 3.6-1.5 2.1 0 3.4 1.5 1.3 1.5 1.3 4v.3zm-7.5-1.3h5.4q-.1-1.3-.8-2-.7-.6-1.8-.6-1.2 0-1.9.6-.7.7-1 2zm12.1-4.3v2.5-.2q1.6-2.5 3.2-2.5 1.2 0 2.5 1.2l-1.1 1.9q-1.1-1-2-1-1.1 0-1.9 1-.7 1-.7 2.3v5.6h-2.2V21h2.2zm14.5 0h2.4l-7.6 16.3h-2.4l3.7-7.8-4.2-8.5h2.4l3 6 2.7-6zm25 7v2.6q-2.6 1.4-6 1.4-2.7 0-4.6-1.1-2-1.1-3-3-1.2-2-1.2-4.2 0-3.6 2.6-6 2.5-2.5 6.3-2.5 2.5 0 5.7 1.4V19q-2.9-1.7-5.6-1.7-2.8 0-4.7 1.8-1.9 1.8-1.9 4.5t1.9 4.4q1.8 1.7 4.7 1.7 3 0 5.8-1.8zm4.9-7v2.5-.2q1.6-2.5 3.2-2.5 1.2 0 2.5 1.2l-1.1 1.9q-1.1-1-2-1-1.1 0-1.9 1-.7 1-.7 2.3v5.6H351V21h2.2zm8.3-4.5q.5 0 .9.3.4.4.4 1 0 .4-.4.8t-.9.4q-.5 0-.9-.4-.3-.4-.3-.9t.3-.8q.4-.4.9-.4zm-1 4.5h2v10.8h-2V21zm3.6 1.7l4-4V21h3.4v2h-3.4v5.2q0 1.9 1.6 1.9 1.1 0 2.4-.8v2q-1.2.7-2.7.7-1.4 0-2.4-.9l-.5-.5-.4-.9V23h-2v-.2zm18.7 3.9h-7.5q0 1.5 1 2.5 1 .9 2.5.9 2 0 3.9-1.3v2q-1 .7-2 1-1 .3-2.3.3-1.7 0-2.8-.8-1.1-.7-1.8-2-.7-1.2-.7-2.9 0-2.4 1.4-4 1.4-1.5 3.6-1.5t3.5 1.5q1.2 1.5 1.2 4v.3zm-7.5-1.3h5.4q0-1.3-.7-2-.7-.6-1.9-.6-1.1 0-1.8.6-.8.7-1 2zm12.1-4.3v2.5l.1-.2q1.6-2.5 3.1-2.5 1.2 0 2.6 1.2l-1.2 2q-1-1-2-1t-1.8 1q-.8 1-.8 2.3v5.6h-2.1V21h2.1zm8.4-4.5q.5 0 .9.3.3.4.3 1 0 .4-.3.8-.4.4-1 .4-.4 0-.8-.4t-.4-.9q0-.5.4-.8.4-.4.9-.4zm-1 4.5h2v10.8h-2V21zm11.9 4.3V30q0 .5.4.5.3 0 1.2-.5v1.3l-1.2.6q-.4.2-1 .2-1.3 0-1.5-1.1-1.4 1-3 1-1 0-1.8-.7t-.8-1.9q0-1 .8-1.8.7-.8 2-1.2l2.8-1v-.6q0-2-2-2-1.7 0-3.4 1.9v-2.3q1.3-1.5 3.6-1.5 1.8 0 2.8 1 .4.2.6.7l.4 1v1.8zm-2.1 4.4v-3.2l-1.4.5q-1.1.4-1.6.9-.4.4-.4 1 0 .7.4 1.2.4.4 1.1.4 1 0 1.9-.8z" font-size="24" font-family="GillSans" fill="#468bbe"/><path d="M205.6 60.6h286V100h-286z" opacity=".3" fill="#2476c0"/><g stroke="#468bbe"><path d="M342.3 38.8v15.6" fill="none"/><path d="M339.3 54.4l3 8 3-8z" fill="#468bbe"/></g><path d="M30.3 177L206 100.4m68.2 76.6l213-76.5" stroke="#96bee1" fill="none"/><g font-size="21"><path d="M714.7 198l.1-2q0-1.5-.5-2-.5-.4-1.4-.4h-.4v-1.2h.4q1 0 1.5-.5.5-.6.5-1.8v-1.5q0-3.6 3.7-3.6h1.4v1.2h-1.7q-2 0-2 2.2v1.5q0 2.3-1.8 3 1.8.7 1.8 3.3v1.8q0 1.4.5 2 .7.5 2 .5h1.2v1.2h-.8l-1.8-.1q-.8 0-1.5-.5-1.2-1-1.2-3z" font-family="Inconsolata" fill="#123a80"/><path d="M741.5 190l-1 1.4v-.4q-.4-.5-1.1-1-.7-.3-1.6-.3h-.8l-.6.3-.5.5-.1.6v.4l.5.4.7.4 1.3.4q1.9.5 2.6 1.2.7.6.7 1.6l-.2 1.2-.8 1q-.6.4-1.3.6-.7.3-1.6.3-2.5 0-4.1-1.6l.9-1.5v.2l.2.4.5.4 1 .5q.3.2.7.2h1.6l.8-.3q.4-.2.6-.5l.2-.6q0-.6-.5-1-.5-.3-1.9-.7l-1.2-.4-1-.5-.7-.5-.4-.7q-.2-.4-.2-.9t.3-1l.7-.8 1.2-.6q.7-.2 1.5-.2 2.2 0 3.6 1.5zm11 .3l-1 1.3-.2-.1v-.3l-.1-.3-.5-.5q-.8-.6-2-.6-.6 0-1.2.3-.5.2-1 .7-.4.5-.6 1.2-.3.6-.3 1.4 0 .9.3 1.5.2.7.7 1.2.4.5 1 .8.6.3 1.4.3 1.4 0 2.5-1.2l.9 1q-1.5 1.6-3.6 1.6-1 0-1.9-.4-.8-.4-1.5-1-.6-.7-1-1.6-.3-1-.3-2 0-1.1.3-2 .4-1 1-1.6.7-.7 1.6-1 .9-.4 2-.4 1 0 2 .4 1 .5 1.5 1.3zm6.2-1.8q1 0 1.7.4.8.3 1.4 1 .6.6 1 1.6.3.9.3 2 0 1.2-.4 2.2-.3.9-.9 1.6-.6.6-1.4 1-.8.3-1.7.3-1 0-1.7-.4-.8-.4-1.4-1-.6-.7-1-1.6-.4-1-.4-2t.4-2q.4-1 1-1.6.6-.7 1.4-1 .9-.5 1.7-.5zm2.9 5.1q0-.9-.3-1.6-.2-.7-.6-1.2-.4-.5-1-.7-.5-.3-1-.3-.6 0-1.1.3-.5.2-1 .7l-.5 1.2q-.3.7-.3 1.5 0 .9.3 1.5.2.7.6 1.2.4.5.9.8.5.3 1.1.3.6 0 1.1-.2l1-.8q.3-.4.5-1.1.3-.7.3-1.6zm4.4-4.9h1.6v1.9q.4-1 1.3-1.5 1-.6 2-.6 1.6 0 2.6 1l-.7 1.5-.4-.5-.4-.4-.5-.2h-.6q-.7 0-1.3.3-.6.3-1.1.8l-.7 1.2q-.3.7-.3 1.5v4.7H766v-9.7zm13.8-.2q.8 0 1.5.3t1.3.8q.5.6.8 1.4.3.9.3 2v.8H777q0 1 .3 1.7.3.6.8 1 .5.5 1 .7l1.2.1q1.4 0 2.4-1l.9.8q-1.2 1.5-3.4 1.5-1 0-2-.4-.8-.3-1.4-1-.6-.6-1-1.5-.3-1-.3-2.1 0-1.2.4-2.2.3-1 1-1.6.5-.6 1.3-1 .8-.3 1.7-.3zm-2.9 4h5.3v-.2q0-.6-.2-1l-.5-.9-.8-.5q-.4-.2-1-.2-1 0-1.7.7-.8.7-1 2.2z" font-family="Inconsolata" fill="#cd5a2b"/><path d="M790.8 189.8q.4.4.4.9t-.4.8q-.4.4-.9.4t-.9-.4q-.3-.3-.3-.8t.3-.9q.4-.3.9-.3t.9.3zm0 6.7q.4.4.4.9t-.4.8q-.4.4-.9.4t-.9-.4q-.3-.3-.3-.8t.3-.9q.4-.3.9-.3t.9.3zm21.4-11.3v13.1h-1.5v-11.2l-2.6.7-.3-.8 3.4-1.8h1zm21.8 3.4v1.5q0 1.2.4 1.8.5.5 1.5.5h.4v1.2h-.4q-1 0-1.4.4-.5.5-.5 2v2q0 1.9-.8 2.8-.8.9-2.6.9h-1.7v-1.2h1.8l.5-.1.3-.1.2-.1q.9-.7.9-2.2v-1.8q0-2.6 1.7-3.2-1.8-.8-1.8-3.1v-1.5q0-1.2-.5-1.7t-1.6-.5h-1.6V185h2.2q.8 0 1.5.5.6.4 1 1.1.5.7.5 2z" font-family="Inconsolata" fill="#123a80"/><path d="M849.5 184h2v14.3h-2V184zm6.8 5v1.1q1.3-1.4 2.9-1.4.9 0 1.6.5.8.4 1.2 1.2.4.8.4 2.6v5.3h-1.9V193q0-1.5-.4-2-.5-.7-1.5-.7-1.3 0-2.3 1.3v6.7h-1.9V189h2zm15-5h1.8v14.3h-4q-2 0-3.3-1.3-1.2-1.3-1.2-3.5 0-2.1 1.3-3.5 1.3-1.3 3.3-1.3 1 0 2 .4v-5zm0 12.7v-6q-.9-.4-1.8-.4-1.4 0-2.2 1-.8.9-.8 2.4t.7 2.2q.4.5.9.7l1.7.1h1.5zm12.4-2.9h-6.6q0 1.3.9 2.1.8.8 2.2.8 1.8 0 3.4-1.1v1.8q-.9.6-1.8.8-.8.3-2 .3-1.5 0-2.5-.7-1-.6-1.5-1.7-.6-1-.6-2.5 0-2.2 1.2-3.5 1.3-1.4 3.2-1.4 1.9 0 3 1.3 1.1 1.4 1.1 3.6v.2zm-6.6-1.1h4.8q-.1-1.1-.7-1.7-.6-.7-1.6-.7t-1.6.7q-.7.6-.9 1.7zm15.1-3.7h2.4l-3.9 4.6 4.2 4.7h-2.4l-3-3.3-2.7 3.3h-2.4l4-4.7-4-4.7h2.4l2.8 3.3 2.6-3.3z" font-family="GillSans" fill="#123a80"/></g><path d="M28.3 311h77.3v92.5H28.3z" fill="#fff"/><path d="M28.3 311h77.3v92.5H28.3z" stroke="#0c60b2" stroke-width=".9" fill="none"/><g font-size="12" font-family="Inconsolata"><path d="M31 339v-1.2q0-.8-.3-1-.3-.3-.8-.3h-.2v-.7h.2q.6 0 .8-.3.3-.3.3-1v-.9q0-2 2.2-2h.8v.6h-1q-1.1 0-1.1 1.3v.8q0 1.4-1 1.8 1 .4 1 1.9v1q0 .8.3 1.1.3.3 1.1.3h.6v.7h-1.4q-.5 0-.9-.4-.6-.5-.6-1.7z" fill="#0c60b2"/><path d="M43.6 350.4l-.5.8v-.1l-.1-.1q-.2-.3-.6-.5-.4-.3-1-.3l-.4.1-.3.1-.3.3v.6l.2.2.4.2.8.3q1 .2 1.4.6.5.4.5 1l-.2.6q-.1.4-.4.6l-.8.4-1 .1q-1.3 0-2.2-.8l.5-1v.2l.1.2.3.2.5.3.5.2h.9l.4-.2.4-.3v-.4q0-.3-.2-.5l-1-.5-.8-.2-.6-.3q-.2 0-.3-.3-.2-.1-.3-.4v-1l.5-.5.7-.3.8-.1q1.3 0 2 .8zm6.3.2l-.6.7h-.1v-.3l-.4-.3q-.4-.4-1.1-.4l-.7.2q-.3.1-.5.4l-.4.6q-.2.4-.2.9t.2.9l.4.6q.2.3.6.5l.8.1q.8 0 1.4-.6l.5.6q-.8.8-2 .8-.6 0-1.1-.2-.5-.2-.9-.6l-.5-.9q-.2-.5-.2-1.1 0-.7.2-1.2l.5-.9q.4-.4 1-.6.4-.2 1-.2.7 0 1.2.3.5.2.9.7zm3.5-1l1 .2.8.6q.3.3.5.9.2.5.2 1.2l-.2 1.2-.5.9-.8.5-1 .2-1-.2-.8-.6q-.3-.3-.5-.9-.2-.5-.2-1.1l.2-1.2.5-.9q.4-.4.9-.6.4-.2 1-.2zm1.6 2.9l-.1-1-.4-.6q-.2-.3-.5-.4l-.6-.2-.6.2q-.3.1-.5.4-.3.3-.4.7l-.1.8.1 1 .4.6q.2.3.5.4l.6.2.6-.1.6-.4.3-.7.1-1zm2.6-2.8h.9v1q.2-.5.7-.8.6-.3 1.2-.3 1 0 1.5.6l-.4.8-.3-.3-.2-.2-.3-.1h-.3l-.8.1-.6.5-.4.7-.1.8v2.7h-1v-5.5zm7.9-.1l.8.1.7.5q.4.3.5.8.2.5.2 1.2v.4h-3.9q0 .6.2 1l.4.6.6.3.7.1q.8 0 1.4-.6l.5.5q-.7.8-2 .8l-1-.2-.9-.5-.5-1q-.2-.4-.2-1.1 0-.7.2-1.3l.5-.9.8-.5 1-.2zm-1.7 2.3h3v-.7l-.4-.5q-.1-.2-.4-.3l-.6-.2q-.5 0-1 .4-.4.4-.6 1.3z" fill="#c45127"/><path d="M71.8 350.3q.2.2.2.5t-.3.5q-.2.2-.5.2l-.4-.2q-.3-.2-.3-.5t.3-.5l.4-.2q.3 0 .5.2zm0 3.9l.2.4q0 .3-.3.5-.2.2-.5.2t-.5-.2q-.2-.2-.2-.5 0-.2.3-.4.2-.3.4-.3.3 0 .5.3z" fill="#0c60b2"/><path d="M81.3 348.9q.3-.6.9-.9.6-.3 1.2-.3l.9.1.7.5q.3.3.4.7.2.3.2.8l-.1.6-.3.6-.4.6-.4.4-.8.7-.3.4-.4.4-.3.5-.4.5h3.2l.2-.1v.8h-4.3v-.5q.4-1 1-1.5.4-.7 1-1.1l.5-.5.5-.5.3-.5.1-.4v-.9l-.4-.5-.4-.3-.5-.1-.6.1-.4.2-.3.3-.1.2v.2l-.7-.5zm6.4-1.2h3.8v.8h-3.1l-.2 2.1q.6-.3 1.3-.3.5 0 .9.2l.7.5.5.8.1 1-.1 1q-.2.5-.6.9l-.7.5-1 .1q-.6 0-1.2-.3t-1-.8l.8-.6v.4l.3.2.3.2.4.2H90l.4-.4.4-.5v-1.5l-.4-.6-.5-.3q-.2-.2-.6-.2l-.7.2-.7.5-.5-.2.3-3.8z" fill="#c55127"/><path d="M96 355q0 .9-1.2 2.2l-.4-.3.5-.7.2-.6v-.2l-.3-.2-.2-.2v-.3l.1-.5q.2-.2.5-.2.4 0 .6.2.3.3.3.8zm-63.6 14.2l.2.4q0 .3-.2.5t-.5.2q-.3 0-.5-.2t-.2-.5l.2-.4q.2-.3.5-.3t.5.3zm6 0l.2.4q0 .3-.2.5t-.5.2q-.3 0-.5-.2t-.2-.5l.2-.4q.2-.3.5-.3t.5.3zm6 0l.2.4q0 .3-.2.5t-.5.2q-.3 0-.5-.2t-.2-.5l.2-.4q.2-.3.5-.3t.5.3zm-11.3 9.4v.9q0 .7.3 1 .3.3.8.3h.2v.7h-.2q-.5 0-.8.2-.3.3-.3 1.1v1.2q0 1-.4 1.6-.5.5-1.5.5h-1v-.7h1.5l.1-.2q.5-.3.5-1.2v-1q0-1.5 1-1.9-1-.4-1-1.8v-.8q0-.7-.3-1-.3-.3-1-.3h-.8v-.6h1.2q.5 0 .8.2l.7.7q.2.4.2 1.1z" fill="#0c60b2"/></g><g stroke="#96bee1"><path d="M67 285v17" fill="none"/><path d="M64 302l3 8 3-8z" fill="#96bee1"/></g><path d="M182 311h77.3v92.5h-77.4z" fill="#fff"/><path d="M182 311h77.3v92.5h-77.4z" stroke="#0c60b2" stroke-width=".9" fill="none"/><g font-size="12" font-family="Inconsolata"><path d="M184.6 339v-1.2q0-.8-.3-1-.2-.3-.7-.3h-.3v-.7h.2q.6 0 .9-.3.3-.3.3-1v-.9q0-2 2.1-2h.8v.6h-1q-1.1 0-1.1 1.3v.8q0 1.4-1 1.8 1 .4 1 1.9v1q0 .8.3 1.1.3.3 1.1.3h.7v.7H186q-.5 0-.8-.4-.7-.5-.7-1.7z" fill="#0c60b2"/><path d="M199.9 350.4l-.5.8-.1-.1v-.1q-.2-.3-.6-.5-.4-.3-1-.3l-.4.1-.4.1-.2.3-.1.3v.3l.3.2.4.2.8.3q1 .2 1.4.6.5.4.5 1l-.2.6q-.2.4-.5.6l-.7.4-1 .1q-1.3 0-2.2-.8l.5-1v.4l.3.2.6.3.4.2h1l.4-.2.3-.3.2-.4q0-.3-.3-.5l-1-.5-.8-.2-.6-.3q-.2 0-.3-.3-.2-.1-.3-.4v-1l.5-.5.7-.3.8-.1q1.3 0 2 .8zm6.3.2l-.7.7v-.2l-.1-.1-.3-.3q-.4-.4-1.1-.4-.4 0-.7.2-.3.1-.5.4l-.4.6q-.2.4-.2.9t.2.9l.4.6q.2.3.6.5l.7.1q.9 0 1.5-.6l.5.6q-.8.8-2 .8-.6 0-1.1-.2-.5-.2-.9-.6l-.5-.9q-.3-.5-.3-1.1 0-.7.3-1.2l.5-.9q.4-.4.9-.6.5-.2 1.1-.2.7 0 1.2.3.5.2.9.7zm3.5-1l1 .2.8.6q.3.3.5.9.2.5.2 1.2l-.2 1.2-.5.9-.8.5-1 .2-1-.2-.8-.6q-.3-.3-.5-.9-.2-.5-.2-1.1l.2-1.2.5-.9q.4-.4.9-.6.4-.2 1-.2zm1.6 2.9l-.1-1-.4-.6q-.2-.3-.5-.4l-.6-.2-.6.2-.6.4-.3.7-.1.8.1 1 .3.6.6.4.6.2.6-.1.6-.4.3-.7.1-1zm2.6-2.8h.9v1q.2-.5.7-.8.6-.3 1.2-.3.9 0 1.5.6l-.4.8-.3-.3-.2-.2-.3-.1h-.3l-.8.1-.6.5-.4.7-.2.8v2.7h-.8v-5.5zm7.9-.1l.8.1.7.5.5.8q.2.5.2 1.2v.4h-4l.3 1 .4.6.6.3.7.1q.8 0 1.4-.6l.5.5q-.7.8-2 .8-.6 0-1-.2l-1-.5q-.3-.4-.4-1-.2-.4-.2-1.1 0-.7.2-1.3l.5-.9.8-.5 1-.2zm-1.7 2.3h3v-.7l-.4-.5-.4-.3-.6-.2q-.5 0-1 .4t-.6 1.3z" fill="#c45127"/><path d="M228 350.3q.2.2.2.5t-.2.5q-.2.2-.5.2l-.5-.2q-.2-.2-.2-.5t.2-.5l.5-.2q.3 0 .5.2zm0 3.9l.2.4q0 .3-.2.5t-.5.2q-.3 0-.5-.2t-.2-.5l.2-.4q.3-.3.5-.3.3 0 .5.3z" fill="#0c60b2"/><path d="M240.4 347.7h.7v4.7h1v.7h-1v2.1h-.8v-2h-3v-.7l3.1-4.8zm-.1 1.3l-2.2 3.4h2.2V349zm3.7-1.3h3.7v.8h-3l-.2 2.1q.6-.3 1.3-.3l.8.2.8.5q.3.3.4.8l.2 1q0 .6-.2 1-.1.5-.5.9l-.7.5-1 .1q-.6 0-1.2-.3t-1-.8l.8-.6v.4l.2.2.3.2.5.2h1.1l.4-.4.3-.5.2-.8q0-.4-.2-.7 0-.4-.3-.6l-.5-.3q-.2-.2-.6-.2-.4 0-.7.2l-.7.5-.5-.2.2-3.8z" fill="#cd5a2b"/><path d="M252.3 355q0 .9-1.2 2.2l-.4-.3.5-.7.2-.6v-.2l-.3-.2-.2-.2v-.3l.1-.5q.2-.2.5-.2l.6.2q.2.3.2.8zM186 370.2q.3.2.3.4 0 .3-.3.5-.2.2-.5.2t-.5-.2q-.2-.2-.2-.5l.2-.4q.3-.3.5-.3.3 0 .5.3zm6 0q.3.2.3.4 0 .3-.3.5-.2.2-.5.2t-.5-.2q-.2-.2-.2-.5l.2-.4q.3-.3.5-.3.3 0 .5.3zm6 0q.3.2.3.4 0 .3-.3.5-.2.2-.5.2t-.5-.2q-.2-.2-.2-.5l.2-.4q.3-.3.5-.3.3 0 .5.3zm-11.3 9.4v.9q0 .7.3 1 .3.3.8.3h.3v.7h-.3q-.5 0-.8.2-.3.3-.3 1.1v1.2q0 1-.4 1.6-.5.5-1.5.5h-1v-.7h1.5l.1-.2q.5-.3.5-1.2v-1q0-1.5 1-1.9-1-.4-1-1.8v-.8q0-.7-.3-1-.3-.3-1-.3h-.8v-.6h1.2q.5 0 .9.2l.6.7q.2.4.2 1.1z" fill="#0c60b2"/></g><path d="M105.6 311H182v92.5h-76.3z" fill="#fff"/><path d="M105.6 311H182v92.5h-76.3z" stroke="#0c60b2" stroke-width=".9" fill="none"/><g font-size="12" font-family="Inconsolata"><path d="M108.3 339v-1.2q0-.8-.3-1-.2-.3-.8-.3h-.2v-.7h.2q.6 0 .9-.3.2-.3.2-1v-.9q0-2 2.2-2h.8v.6h-1q-1.1 0-1.1 1.3v.8q0 1.4-1 1.8 1 .4 1 1.9v1q0 .8.3 1.1.3.3 1.1.3h.7v.7h-1.5q-.5 0-.9-.4-.6-.5-.6-1.7z" fill="#0c60b2"/><path d="M123.6 350.4l-.6.8v-.2l-.6-.5q-.4-.3-1-.3l-.4.1-.4.1-.2.3-.1.3v.3l.3.2.4.2.8.3q1 .2 1.4.6.4.4.4 1l-.1.6q-.2.4-.5.6l-.7.4-1 .1q-1.3 0-2.2-.8l.4-1v.2l.2.2.2.2.6.3.4.2h1l.4-.2.3-.3.2-.4q0-.3-.3-.5l-1-.5-.8-.2-.6-.3q-.2 0-.4-.3l-.2-.4-.1-.4.2-.6q.1-.3.4-.5l.7-.3.8-.1q1.3 0 2 .8zm6.3.2l-.7.7v-.2l-.1-.1-.3-.3q-.4-.4-1.1-.4-.4 0-.7.2-.3.1-.5.4l-.4.6q-.2.4-.2.9t.2.9l.4.6q.2.3.6.5l.7.1q.9 0 1.5-.6l.5.6q-.8.8-2 .8-.6 0-1.1-.2-.5-.2-.9-.6-.4-.4-.6-.9-.2-.5-.2-1.1 0-.7.2-1.2t.6-.9q.4-.4.9-.6.5-.2 1.1-.2.6 0 1.2.3.5.2.9.7zm3.5-1l1 .2.8.6q.3.3.5.9.2.5.2 1.2l-.2 1.2-.5.9-.8.5-1 .2-1-.2-.8-.6q-.3-.3-.5-.9-.3-.5-.3-1.1 0-.6.3-1.2l.5-.9.8-.6 1-.2zm1.6 2.9l-.1-1-.4-.6q-.2-.3-.5-.4l-.6-.2-.6.2-.6.4-.3.7-.1.8v1l.4.6.6.4.6.2.6-.1.5-.4q.3-.3.4-.7l.1-1zm2.6-2.8h.9v1q.2-.5.7-.8.6-.3 1.2-.3.9 0 1.5.6l-.4.8-.3-.3-.2-.2-.3-.1h-.3l-.8.1-.6.5q-.3.3-.4.7l-.2.8v2.7h-.8v-5.5zm7.9-.1l.8.1.7.5.5.8q.2.5.2 1.2v.4h-4l.3 1 .4.6.6.3.7.1q.8 0 1.4-.6l.5.5q-.7.8-2 .8-.6 0-1-.2l-1-.5-.5-1-.1-1.1.1-1.3.6-.9.8-.5q.4-.2 1-.2zm-1.7 2.3h3v-.7l-.4-.5-.4-.3-.6-.2q-.5 0-1 .4t-.6 1.3z" fill="#c45127"/><path d="M151.7 350.3q.2.2.2.5t-.2.5q-.2.2-.5.2t-.5-.2q-.2-.2-.2-.5t.2-.5q.2-.2.5-.2t.5.2zm0 3.9l.2.4q0 .3-.2.5t-.5.2q-.3 0-.5-.2t-.2-.5l.2-.4q.2-.3.5-.3t.5.3z" fill="#0c60b2"/><path d="M161.6 347.7h3.8v.8h-3l-.2 2.1q.6-.3 1.3-.3l.8.2.8.5q.3.3.4.8l.2 1q0 .6-.2 1l-.5.9-.7.5-1 .1q-.6 0-1.2-.3t-1-.8l.8-.6v.4l.2.2.3.2.5.2h1.1l.4-.4.3-.5.2-.8q0-.4-.2-.7 0-.4-.3-.6l-.5-.3-.6-.2q-.4 0-.7.2l-.7.5-.5-.2.2-3.8zm8.2-.1q1 0 1.7.7l-.6.7-.2-.2-.1-.2-.4-.2h-.4l-.5.1-.6.4q-.3.3-.5 1-.2.5-.2 1.4l.7-.7q.4-.2.9-.2l.8.2.6.4.5.8.1 1-.1 1-.5.8q-.3.4-.7.5l-.8.2q-.6 0-1-.2l-.7-.7-.5-1.1-.1-1.5q0-1 .2-1.8.1-.8.5-1.3.3-.5.8-.8.5-.3 1.1-.3zm-1.8 4.5v.3l.1.9.4.6.4.5.6.2q.6 0 1-.5.3-.4.3-1.3l-.1-.7-.3-.6-.4-.3-.5-.1q-.4 0-.8.3l-.7.7z" fill="#cd5a2b"/><path d="M176 355q0 .9-1.2 2.2l-.5-.3.6-.7.2-.6v-.2l-.3-.2-.2-.2v-.3l.1-.5q.2-.2.5-.2l.6.2q.2.3.2.8zm-66.3 15.2l.2.4q0 .3-.2.5t-.5.2q-.3 0-.5-.2t-.2-.5l.2-.4q.2-.3.5-.3t.5.3zm6 0l.2.4q0 .3-.2.5t-.5.2q-.3 0-.5-.2t-.2-.5l.2-.4q.2-.3.5-.3t.5.3zm6 0l.2.4q0 .3-.2.5t-.5.2q-.3 0-.5-.2t-.2-.5l.2-.4q.2-.3.5-.3t.5.3zm-11.3 9.4v.9q0 .7.3 1 .3.3.8.3h.2v.7h-.2q-.5 0-.8.2-.3.3-.3 1.1v1.2q0 1-.4 1.6-.5.5-1.5.5h-1v-.7h1.5l.1-.2q.5-.3.5-1.2v-1q0-1.5 1-1.9-1-.4-1-1.8v-.8q0-.7-.3-1-.3-.3-1-.3h-.8v-.6h1.3q.4 0 .7.2l.7.7q.2.4.2 1.1z" fill="#0c60b2"/></g><path d="M259.3 311h77.3v92.5h-77.3z" fill="#fff"/><path d="M259.3 311h77.3v92.5h-77.3z" stroke="#0c60b2" stroke-width=".9" fill="none"/><g font-size="12" font-family="Inconsolata"><path d="M262 339v-1.2q0-.8-.3-1-.3-.3-.8-.3h-.3v-.7h.3q.5 0 .8-.3.3-.3.3-1v-.9q0-2 2.1-2h.8v.6h-1q-1.1 0-1.1 1.3v.8q0 1.4-1 1.8 1 .4 1 1.9v1q0 .8.3 1.1.4.3 1.2.3h.6v.7h-1.4q-.5 0-1-.4-.6-.5-.6-1.7z" fill="#0c60b2"/><path d="M277.2 350.4l-.5.8v-.1l-.1-.1q-.2-.3-.6-.5-.4-.3-1-.3l-.4.1-.3.1-.3.3v.6l.2.2.5.2.7.3q1 .2 1.5.6.4.4.4 1l-.2.6q-.1.4-.4.6l-.7.4-1 .1q-1.4 0-2.3-.8l.5-1v.2l.1.2.3.2.6.3.4.2h.9l.5-.2.3-.3.1-.4q0-.3-.3-.5l-1-.5-.7-.2q-.5-.1-.7-.3-.2 0-.3-.3-.2-.1-.3-.4v-1l.5-.5.7-.3.8-.1q1.3 0 2 .8zm6.3.2l-.6.7-.1-.2v-.1l-.4-.3q-.4-.4-1-.4l-.8.2q-.3.1-.5.4l-.4.6-.1.9.1.9.4.6.6.5.8.1q.8 0 1.4-.6l.5.6q-.8.8-2 .8-.6 0-1-.2-.6-.2-1-.6l-.5-.9q-.2-.5-.2-1.1 0-.7.2-1.2l.5-.9q.4-.4 1-.6.4-.2 1-.2.7 0 1.2.3.6.2.9.7zm3.5-1q.6 0 1 .2.5.2.8.6.3.3.5.9.2.5.2 1.2l-.2 1.2-.5.9-.8.5q-.4.2-1 .2l-1-.2-.8-.6q-.3-.3-.5-.9-.2-.5-.2-1.1l.2-1.2q.2-.5.6-.9.3-.4.8-.6.4-.2 1-.2zm1.7 2.9l-.2-1-.3-.6-.6-.4-.6-.2-.6.2q-.3.1-.5.4l-.4.7-.1.8.1 1 .4.6q.2.3.5.4l.6.2.7-.1.5-.4.3-.7q.2-.4.2-1zm2.5-2.8h.9v1q.2-.5.8-.8.5-.3 1.1-.3 1 0 1.5.6l-.4.8-.2-.3-.3-.2-.3-.1h-.3l-.8.1-.6.5-.4.7-.1.8v2.7h-1v-5.5zm7.9-.1l.9.1.7.5.5.8.1 1.2v.4h-3.9q0 .6.2 1l.5.6.5.3.7.1q.8 0 1.4-.6l.5.5q-.7.8-2 .8l-1-.2-.9-.5-.5-1q-.2-.4-.2-1.1 0-.7.2-1.3l.5-.9.8-.5 1-.2zm-1.6 2.3h3v-.2l-.1-.5-.3-.5-.5-.3q-.2-.2-.5-.2-.6 0-1 .4-.5.4-.6 1.3z" fill="#c45127"/><path d="M305.4 350.3q.2.2.2.5t-.2.5l-.5.2q-.3 0-.5-.2t-.2-.5q0-.3.2-.5t.5-.2l.5.2zm0 3.9l.2.4q0 .3-.2.5t-.5.2q-.3 0-.5-.2t-.2-.5l.2-.4q.2-.3.5-.3.2 0 .5.3z" fill="#0c60b2"/><path d="M319.2 348.2q-.8 1.7-1.4 3.5-.7 1.7-1.2 3.5h-1l1.2-3.4 1.3-3.3H315v-.8h4.2v.5zm2.1-.5h3.8v.8H322l-.1 2.1q.6-.3 1.2-.3.5 0 .9.2l.7.5.5.8.1 1-.1 1-.5.9-.8.5-1 .1q-.6 0-1.2-.3t-1-.8l.8-.6v.2l.1.1.2.2.3.2.4.2h1.1l.4-.4q.3-.2.4-.5v-1.5q-.1-.4-.4-.6l-.4-.3-.6-.2-.8.2q-.4.2-.6.5l-.6-.2.3-3.8z" fill="#c45129"/><path d="M329.7 355q0 .9-1.3 2.2l-.4-.3.5-.7.3-.6-.1-.2-.2-.2-.3-.2v-.3l.1-.5q.2-.2.6-.2.3 0 .5.2.3.3.3.8zm-66.3 15.2l.2.4q0 .3-.2.5t-.5.2q-.3 0-.5-.2t-.2-.5l.2-.4q.2-.3.5-.3.2 0 .5.3zm6 0l.2.4q0 .3-.2.5t-.5.2q-.3 0-.5-.2t-.2-.5l.2-.4q.2-.3.5-.3.2 0 .5.3zm6 0l.2.4q0 .3-.2.5t-.5.2q-.3 0-.5-.2t-.2-.5l.2-.4q.2-.3.5-.3.2 0 .5.3zm-11.4 9.4v.9q0 .7.3 1 .3.3.8.3h.3v.7h-.3q-.5 0-.8.2-.2.3-.2 1.1v1.2q0 1-.5 1.6-.5.5-1.5.5h-1v-.7h1.5l.2-.2q.5-.3.5-1.2v-1q0-1.5 1-1.9-1.1-.4-1.1-1.8v-.8q0-.7-.3-1-.3-.3-.9-.3h-.9v-.6h1.2q.5 0 .9.2.4.3.6.7.3.4.3 1.1z" fill="#0c60b2"/></g><path d="M336.3 311h77.4v92.5h-77.4z" fill="#fff"/><path d="M336.3 311h77.4v92.5h-77.4z" stroke="#0c60b2" stroke-width=".9" fill="none"/><g font-size="12" font-family="Inconsolata"><path d="M339 339v-1.2q0-.8-.2-1-.3-.3-.8-.3h-.3v-.7h.2q.6 0 .9-.3.3-.3.3-1v-.9q0-2 2.1-2h.8v.6h-1q-1.1 0-1.1 1.3v.8q0 1.4-1 1.8 1 .4 1 1.9v1q0 .8.3 1.1.4.3 1.2.3h.6v.7h-1.5q-.5 0-.8-.4-.7-.5-.7-1.7z" fill="#0c60b2"/><path d="M354.3 350.4l-.5.8-.1-.1v-.1q-.2-.3-.6-.5-.4-.3-1-.3l-.4.1-.3.1-.3.3-.1.3v.3l.3.2.4.2.8.3q1 .2 1.4.6.5.4.5 1l-.2.6q-.1.4-.4.6l-.8.4-1 .1q-1.3 0-2.2-.8l.5-1v.4l.4.2q.1.2.5.3l.5.2h.9l.4-.2.4-.3v-.4q0-.3-.2-.5l-1-.5-.8-.2-.6-.3q-.2 0-.3-.3-.2-.1-.3-.4v-1l.5-.5.7-.3.8-.1q1.3 0 2 .8zm6.3.2l-.6.7h-.1v-.2l-.1-.1-.3-.3q-.4-.4-1.1-.4-.4 0-.7.2-.3.1-.5.4l-.4.6q-.2.4-.2.9t.2.9l.4.6q.2.3.6.5l.8.1q.8 0 1.4-.6l.5.6q-.8.8-2 .8-.6 0-1.1-.2-.5-.2-.9-.6l-.5-.9q-.2-.5-.2-1.1 0-.7.2-1.2l.5-.9q.4-.4.9-.6.5-.2 1.1-.2.7 0 1.2.3.5.2.9.7zm3.5-1l1 .2.8.6q.3.3.5.9.2.5.2 1.2l-.2 1.2-.5.9-.8.5-1 .2-1-.2-.8-.6q-.3-.3-.5-.9-.2-.5-.2-1.1l.2-1.2.5-.9q.4-.4.9-.6.4-.2 1-.2zm1.6 2.9l-.1-1-.4-.6q-.2-.3-.5-.4l-.6-.2-.6.2q-.3.1-.5.4-.3.3-.4.7l-.1.8.1 1 .4.6q.2.3.5.4l.6.2.6-.1.6-.4.3-.7.1-1zm2.6-2.8h.9v1q.2-.5.7-.8.6-.3 1.2-.3.9 0 1.5.6l-.4.8-.3-.3-.2-.2-.3-.1h-.3l-.8.1-.6.5-.4.7-.2.8v2.7h-.8v-5.5zm7.9-.1l.8.1.7.5q.4.3.5.8.2.5.2 1.2v.4h-3.9q0 .6.2 1l.4.6.6.3.7.1q.8 0 1.4-.6l.5.5q-.7.8-2 .8-.6 0-1-.2l-.9-.5-.5-1q-.2-.4-.2-1.1 0-.7.2-1.3l.5-.9.8-.5 1-.2zm-1.7 2.3h3v-.7l-.4-.5-.4-.3-.6-.2q-.5 0-1 .4-.4.4-.6 1.3z" fill="#c45127"/><path d="M382.4 350.3q.3.2.3.5t-.3.5q-.2.2-.5.2l-.5-.2q-.2-.2-.2-.5t.2-.5l.5-.2q.3 0 .5.2zm0 3.9q.3.2.3.4 0 .3-.3.5-.2.2-.5.2t-.5-.2q-.2-.2-.2-.5l.2-.4q.3-.3.5-.3.3 0 .5.3z" fill="#0c60b2"/><path d="M392.4 347.7h3.7v.8h-3l-.2 2.1q.6-.3 1.3-.3l.9.2.7.5.5.8.1 1q0 .6-.2 1-.1.5-.5.9l-.7.5-1 .1q-.6 0-1.2-.3t-1-.8l.8-.6v.4l.2.2.3.2.5.2h1.1l.4-.4.4-.5v-1.5l-.4-.6-.5-.3q-.2-.2-.6-.2l-.7.2-.7.5-.5-.2.3-3.8z" fill="#cd5a2b"/><path d="M400.8 355q0 .9-1.3 2.2l-.4-.3.5-.7.2-.6v-.2l-.3-.2-.2-.2v-.3l.1-.5q.2-.2.5-.2.4 0 .6.2.3.3.3.8zm-60.4 15.2q.3.2.3.4 0 .3-.3.5-.2.2-.5.2t-.5-.2q-.2-.2-.2-.5l.2-.4q.3-.3.5-.3.3 0 .5.3zm6 0q.3.2.3.4 0 .3-.3.5-.2.2-.5.2t-.5-.2q-.2-.2-.2-.5l.2-.4q.3-.3.5-.3.3 0 .5.3zm6 0q.3.2.3.4 0 .3-.3.5-.2.2-.5.2t-.5-.2q-.2-.2-.2-.5l.2-.4q.3-.3.5-.3.3 0 .5.3zm-11.3 9.4v.9q0 .7.3 1 .3.3.8.3h.3v.7h-.3q-.5 0-.8.2-.3.3-.3 1.1v1.2q0 1-.4 1.6-.5.5-1.5.5h-1v-.7h1.5l.1-.2q.5-.3.5-1.2v-1q0-1.5 1-1.9-1-.4-1-1.8v-.8q0-.7-.3-1-.3-.3-1-.3h-.8v-.6h1.2q.5 0 .9.2l.6.7q.2.4.2 1.1z" fill="#0c60b2"/></g><g stroke="#96bee1"><path d="M375 273v29" fill="none"/><path d="M372 302l3 8 3-8z" fill="#96bee1"/></g><path d="M69.9 199.3V273m-2.2-78.8a3 3 0 1 1 4.3 4.3 3 3 0 0 1-4.3-4.3m2.2 78.8H375" stroke="#96bee1" fill="none"/><path d="M646.4 311h77.4v92.5h-77.4z" fill="#fff"/><path d="M646.4 311h77.4v92.5h-77.4z" stroke="#0c60b2" stroke-width=".9" fill="none"/><g font-size="12" font-family="Inconsolata"><path d="M649.1 339v-1.2q0-.8-.2-1-.3-.3-.8-.3h-.3v-.7h.3q.5 0 .8-.3.3-.3.3-1v-.9q0-2 2.1-2h.8v.6h-1q-1.1 0-1.1 1.3v.8q0 1.4-1 1.8 1 .4 1 1.9v1q0 .8.3 1.1.4.3 1.2.3h.6v.7h-1.5q-.5 0-.8-.4-.7-.5-.7-1.7z" fill="#0c60b2"/><path d="M664.4 350.4l-.5.8v-.1l-.1-.1q-.2-.3-.6-.5-.4-.3-1-.3l-.4.1-.3.1-.3.3v.6l.2.2.4.2.8.3q1 .2 1.4.6.5.4.5 1l-.2.6q-.1.4-.4.6l-.8.4-1 .1q-1.3 0-2.2-.8l.5-1v.2l.1.2.3.2.6.3.4.2h.9l.4-.2.4-.3v-.4q0-.3-.2-.5l-1-.5-.8-.2-.6-.3q-.2 0-.3-.3-.2-.1-.3-.4v-1l.5-.5.7-.3.8-.1q1.3 0 2 .8zm6.3.2l-.6.7-.1-.2v-.1l-.4-.3q-.4-.4-1-.4l-.8.2q-.3.1-.5.4l-.4.6-.1.9.1.9.4.6q.2.3.6.5l.8.1q.8 0 1.4-.6l.5.6q-.8.8-2 .8-.6 0-1.1-.2-.5-.2-.9-.6l-.5-.9q-.2-.5-.2-1.1 0-.7.2-1.2l.5-.9q.4-.4 1-.6.4-.2 1-.2.7 0 1.2.3.5.2.9.7zm3.5-1l1 .2.8.6q.3.3.5.9.2.5.2 1.2l-.2 1.2-.5.9-.8.5-1 .2-1-.2-.8-.6q-.3-.3-.5-.9-.2-.5-.2-1.1l.2-1.2.5-.9q.4-.4.9-.6.4-.2 1-.2zm1.6 2.9v-1l-.5-.6q-.2-.3-.5-.4l-.6-.2-.6.2q-.3.1-.5.4-.3.3-.4.7l-.1.8.1 1 .4.6q.2.3.5.4l.6.2.7-.1.5-.4.3-.7.1-1zm2.6-2.8h.9v1q.2-.5.7-.8.6-.3 1.2-.3 1 0 1.5.6l-.4.8-.2-.3-.3-.2-.3-.1h-.3l-.8.1-.6.5-.4.7-.1.8v2.7h-1v-5.5zm7.9-.1l.8.1.7.5q.4.3.5.8.2.5.2 1.2v.4h-3.9q0 .6.2 1l.4.6.6.3.7.1q.8 0 1.4-.6l.5.5q-.7.8-2 .8l-1-.2-.9-.5-.5-1q-.2-.4-.2-1.1 0-.7.2-1.3l.5-.9.8-.5 1-.2zm-1.7 2.3h3v-.7l-.4-.5q-.1-.2-.4-.3l-.6-.2q-.5 0-1 .4-.4.4-.6 1.3z" fill="#c45127"/><path d="M692.6 350.3q.2.2.2.5t-.2.5l-.6.2-.4-.2q-.3-.2-.3-.5t.3-.5l.4-.2.6.2zm0 3.9l.2.4q0 .3-.2.5l-.6.2q-.3 0-.5-.2t-.2-.5q0-.2.3-.4.2-.3.4-.3.3 0 .6.3z" fill="#0c60b2"/><path d="M706.1 349.6q0 .5-.3 1-.3.4-.8.6.6.2 1 .7.3.6.3 1.2 0 .5-.2.9-.1.4-.4.7l-.8.5-1 .1q-1.1 0-1.9-.8l.7-.8v.2l.1.2.2.1.4.2.6.2.6-.2q.3 0 .5-.3l.3-.5v-.6q0-.6-.4-1-.5-.4-1.3-.4h-.3v-.6l.9-.1.6-.3.3-.5.1-.6v-.4l-.3-.3-.4-.3h-.6q-.7 0-1.3.5l-.4-.5q.7-.8 1.8-.8l.8.2.6.4q.3.2.5.6l.1.7zm5.7-.9q.4.4.6 1.2.2.7.2 1.7t-.2 1.6q-.2.7-.6 1.2-.3.5-.7.7l-1 .2-.8-.2-.8-.8-.5-1.2q-.2-.7-.2-1.6 0-.8.2-1.5l.5-1.2q.4-.6.8-.8.4-.3.9-.3 1 0 1.6 1zm-.4.7l-.6-.7q-.3-.3-.6-.3l-.6.2q-.3.2-.5.6-.3.4-.4 1l-.1 1.2.1 1.4 2.7-3.4zm.3.8l-2.7 3.3q.3.6.6.8.3.3.7.3l.6-.2.4-.6q.3-.4.4-1l.1-1.1v-.8l-.1-.7z" fill="#cd5a2b"/><path d="M716.9 355q0 .9-1.3 2.2l-.4-.3.5-.7.3-.6-.1-.2-.3-.2-.2-.2v-.3l.1-.5q.2-.2.5-.2.4 0 .6.2.3.3.3.8zm-66.3 15.2l.2.4q0 .3-.2.5l-.6.2q-.3 0-.5-.2t-.2-.5q0-.2.3-.4.2-.3.4-.3.3 0 .6.3zm6 0l.2.4q0 .3-.2.5l-.6.2q-.3 0-.5-.2t-.2-.5q0-.2.3-.4.2-.3.4-.3.3 0 .6.3zm6 0l.2.4q0 .3-.2.5l-.6.2q-.3 0-.5-.2t-.2-.5q0-.2.3-.4.2-.3.4-.3.3 0 .6.3zm-11.4 9.4v.9q0 .7.3 1 .3.3.8.3h.3v.7h-.3q-.5 0-.8.2-.3.3-.3 1.1v1.2q0 1-.4 1.6-.5.5-1.5.5h-1v-.7h1.5l.2-.2q.4-.3.4-1.2v-1q0-1.5 1-1.9-1-.4-1-1.8v-.8q0-.7-.3-1-.3-.3-.9-.3h-.9v-.6h1.2q.5 0 .9.2.4.3.6.7.2.4.2 1.1z" fill="#0c60b2"/></g><path d="M414 311h77.2v92.5H414z" fill="#fff"/><path d="M414 311h77.2v92.5H414z" stroke="#0c60b2" stroke-width=".9" fill="none"/><g font-size="12" font-family="Inconsolata"><path d="M416.6 339v-1.2q0-.8-.3-1-.2-.3-.8-.3h-.2v-.7h.2q.6 0 .9-.3.2-.3.2-1v-.9q0-2 2.2-2h.8v.6h-1q-1.1 0-1.1 1.3v.8q0 1.4-1 1.8 1 .4 1 1.9v1q0 .8.3 1.1.3.3 1.1.3h.6v.7h-1.4q-.5 0-.9-.4-.6-.5-.6-1.7z" fill="#0c60b2"/><path d="M431.8 350.4l-.5.8v-.2l-.7-.5q-.3-.3-.9-.3l-.4.1-.4.1-.2.3-.1.3v.3l.3.2.4.2.8.3q1 .2 1.4.6.4.4.4 1l-.1.6q-.2.4-.5.6l-.7.4-1 .1q-1.3 0-2.3-.8l.5-1v.2l.2.2.2.2.6.3.4.2h1l.4-.2.3-.3.2-.4q0-.3-.3-.5l-1-.5-.8-.2-.6-.3q-.2 0-.4-.3l-.2-.4-.1-.4.2-.6q.1-.3.4-.5l.7-.3.8-.1q1.3 0 2 .8zm6.3.2l-.6.7v-.2l-.1-.1-.3-.3q-.4-.4-1.1-.4-.4 0-.7.2-.3.1-.5.4l-.4.6q-.2.4-.2.9t.2.9l.4.6q.2.3.6.5l.7.1q.9 0 1.5-.6l.5.6q-.9.8-2 .8-.6 0-1.1-.2-.5-.2-.9-.6-.4-.4-.6-.9-.2-.5-.2-1.1 0-.7.2-1.2t.6-.9q.4-.4.9-.6.5-.2 1.1-.2.6 0 1.2.3.5.2.8.7zm3.6-1l1 .2.8.6q.3.3.5.9.2.5.2 1.2l-.2 1.2-.5.9-.8.5-1 .2-1-.2q-.5-.2-.8-.6l-.6-.9q-.2-.5-.2-1.1l.2-1.2.6-.9.8-.6 1-.2zm1.6 2.9l-.1-1-.4-.6q-.2-.3-.5-.4l-.6-.2-.6.2-.6.4-.3.7-.1.8v1l.4.6.6.4.6.2.6-.1.5-.4q.3-.3.4-.7l.1-1zm2.6-2.8h.9v1q.2-.5.7-.8.6-.3 1.2-.3.9 0 1.5.6l-.4.8-.3-.3-.2-.2-.3-.1h-.4l-.7.1-.6.5q-.3.3-.4.7l-.2.8v2.7h-.8v-5.5zm7.9-.1l.8.1.7.5.5.8q.2.5.2 1.2v.4h-4l.3 1 .4.6.6.3.7.1q.8 0 1.4-.6l.4.5q-.6.8-1.9.8-.6 0-1-.2l-1-.5-.5-1-.1-1.1.1-1.3q.2-.5.6-.9l.8-.5q.4-.2 1-.2zm-1.7 2.3h3v-.7l-.4-.5-.4-.3-.6-.2q-.6 0-1 .4-.5.4-.6 1.3z" fill="#c45127"/><path d="M460 350.3q.2.2.2.5t-.2.5q-.2.2-.5.2t-.5-.2q-.2-.2-.2-.5t.2-.5q.2-.2.5-.2t.5.2zm0 3.9l.2.4q0 .3-.2.5t-.5.2q-.3 0-.5-.2t-.2-.5l.2-.4q.2-.3.5-.3t.5.3z" fill="#0c60b2"/><path d="M472.4 347.7h.7v4.7h1v.7h-1v2.1h-.8v-2h-3v-.7l3.1-4.8zm-.1 1.3l-2.2 3.4h2.2V349zm7-.3q.3.4.5 1.2.3.7.3 1.7t-.3 1.6l-.5 1.2q-.3.5-.8.7l-.8.2-1-.2q-.4-.3-.7-.8l-.5-1.2q-.2-.7-.2-1.6 0-.8.2-1.5l.5-1.2q.3-.6.8-.8.4-.3.9-.3.9 0 1.6 1zm-.4.7l-.6-.7q-.3-.3-.6-.3l-.6.2-.6.6-.3 1q-.2.5-.2 1.2l.2 1.4 2.7-3.4zm.2.8l-2.6 3.3q.3.6.6.8.3.3.6.3l.6-.2q.3-.2.5-.6l.4-1v-2.6z" fill="#cd5a2b"/><path d="M484.3 355q0 .9-1.2 2.2l-.5-.3.6-.7.2-.6v-.2l-.3-.2-.2-.2v-.3l.1-.5q.2-.2.5-.2l.6.2q.2.3.2.8zM418 370.2l.2.4q0 .3-.2.5t-.5.2q-.3 0-.5-.2t-.2-.5l.2-.4q.2-.3.5-.3t.5.3zm6 0l.2.4q0 .3-.2.5t-.5.2q-.3 0-.5-.2t-.2-.5l.2-.4q.2-.3.5-.3t.5.3zm6 0l.2.4q0 .3-.2.5t-.5.2q-.3 0-.5-.2t-.2-.5l.2-.4q.2-.3.5-.3t.5.3zm-11.3 9.4v.9q0 .7.3 1 .3.3.8.3h.2v.7h-.2q-.5 0-.8.2-.3.3-.3 1.1v1.2q0 1-.4 1.6-.5.5-1.5.5h-1v-.7h1.5l.1-.2q.5-.3.5-1.2v-1q0-1.5 1-1.9-1-.4-1-1.8v-.8q0-.7-.3-1-.3-.3-1-.3h-.8v-.6h1.2q.5 0 .8.2l.7.7q.2.4.2 1.1z" fill="#0c60b2"/></g><path d="M491.8 311h77.4v92.5h-77.4z" fill="#fff"/><path d="M491.8 311h77.4v92.5h-77.4z" stroke="#0c60b2" stroke-width=".9" fill="none"/><g font-size="12" font-family="Inconsolata"><path d="M494.5 339v-1.2q0-.8-.2-1-.3-.3-.8-.3h-.3v-.7h.2q.6 0 .9-.3.3-.3.3-1v-.9q0-2 2.1-2h.8v.6h-1q-1.1 0-1.1 1.3v.8q0 1.4-1 1.8 1 .4 1 1.9v1q0 .8.3 1.1.4.3 1.2.3h.6v.7H496q-.5 0-.8-.4-.7-.5-.7-1.7z" fill="#0c60b2"/><path d="M509.8 350.4l-.5.8-.1-.1v-.1q-.2-.3-.6-.5-.4-.3-1-.3l-.4.1-.3.1-.3.3-.1.3v.3l.3.2.4.2.8.3q1 .2 1.4.6.5.4.5 1l-.2.6q-.1.4-.4.6l-.8.4-1 .1q-1.3 0-2.2-.8l.5-1v.4l.4.2q.1.2.5.3l.5.2h.9l.4-.2.4-.3v-.4q0-.3-.2-.5l-1-.5-.8-.2-.6-.3q-.2 0-.3-.3-.2-.1-.3-.4v-1l.5-.5.7-.3.8-.1q1.3 0 2 .8zm6.2.2l-.5.7h-.1v-.2l-.1-.1-.3-.3q-.4-.4-1.1-.4-.4 0-.7.2-.3.1-.5.4l-.4.6q-.2.4-.2.9t.2.9l.4.6q.2.3.6.5l.8.1q.8 0 1.4-.6l.5.6q-.8.8-2 .8-.6 0-1.1-.2-.5-.2-.9-.6l-.5-.9q-.2-.5-.2-1.1 0-.7.2-1.2l.5-.9q.4-.4.9-.6.5-.2 1.1-.2.7 0 1.2.3.5.2.9.7zm3.6-1l1 .2.8.6q.3.3.5.9.2.5.2 1.2l-.2 1.2-.5.9-.8.5-1 .2-1-.2-.8-.6q-.3-.3-.5-.9-.2-.5-.2-1.1l.2-1.2.5-.9q.4-.4.9-.6.4-.2 1-.2zm1.6 2.9l-.1-1-.4-.6q-.2-.3-.5-.4l-.6-.2-.6.2q-.3.1-.5.4-.3.3-.4.7l-.1.8.1 1 .4.6q.2.3.5.4l.6.2.6-.1.6-.4.3-.7.1-1zm2.6-2.8h.9v1q.2-.5.7-.8.6-.3 1.2-.3.9 0 1.5.6l-.4.8-.3-.3-.2-.2-.3-.1h-.3l-.8.1-.6.5-.4.7-.2.8v2.7h-.8v-5.5zm7.9-.1l.8.1.7.5q.4.3.5.8.2.5.2 1.2v.4H530q0 .6.2 1l.4.6.6.3.7.1q.8 0 1.4-.6l.5.5q-.7.8-2 .8-.6 0-1-.2l-.9-.5-.5-1q-.2-.4-.2-1.1 0-.7.2-1.3l.5-.9.8-.5 1-.2zm-1.7 2.3h3v-.7l-.4-.5-.4-.3-.6-.2q-.5 0-1 .4-.4.4-.6 1.3z" fill="#c45127"/><path d="M538 350.3q.2.2.2.5t-.3.5q-.2.2-.5.2l-.5-.2q-.2-.2-.2-.5t.2-.5l.5-.2q.3 0 .5.2zm0 3.9l.2.4q0 .3-.3.5-.2.2-.5.2t-.5-.2q-.2-.2-.2-.5l.2-.4q.3-.3.5-.3.3 0 .5.3z" fill="#0c60b2"/><path d="M550.2 347.7v7.5h-.9v-6.4l-1.5.4-.2-.5 2-1h.6zm7.4 1.7q0 .5-.3 1t-.9.8q.7.3 1 .9.5.5.5 1.2l-.2.8q-.2.4-.5.6l-.7.5-1 .1-.8-.1-.7-.5q-.3-.2-.5-.6l-.2-.8q0-.6.4-1.2t1.1-.9q-.5-.2-.8-.7-.3-.5-.3-1l.1-.7q.2-.4.5-.6.2-.3.6-.4.3-.2.8-.2.4 0 .7.2.4.1.7.4l.4.5.1.7zm-2.2 2.2q-.5.2-.9.6-.3.5-.3 1v.5l.4.5.4.3h1.2l.4-.3.3-.4.1-.5q0-.6-.4-1-.4-.5-1.2-.7zm-.7-1.6l.3.5.6.3.2.1q.4-.2.7-.6.3-.5.3-.9v-.4l-.3-.3-.4-.3h-.9l-.4.3q-.2.1-.2.3l-.1.4.2.6z" fill="#cd5a2b"/><path d="M562.3 355q0 .9-1.3 2.2l-.4-.3.5-.7.2-.6v-.2l-.3-.2-.2-.2v-.3l.1-.5q.2-.2.5-.2.4 0 .6.2.3.3.3.8zM496 370.2l.2.4q0 .3-.3.5-.2.2-.5.2t-.5-.2q-.2-.2-.2-.5l.2-.4q.3-.3.5-.3.3 0 .5.3zm6 0l.2.4q0 .3-.3.5-.2.2-.5.2t-.5-.2q-.2-.2-.2-.5l.2-.4q.3-.3.5-.3.3 0 .5.3zm6 0l.2.4q0 .3-.3.5-.2.2-.5.2t-.5-.2q-.2-.2-.2-.5l.2-.4q.3-.3.5-.3.3 0 .5.3zm-11.4 9.4v.9q0 .7.3 1 .3.3.8.3h.3v.7h-.3q-.5 0-.8.2-.3.3-.3 1.1v1.2q0 1-.4 1.6-.5.5-1.5.5h-1v-.7h1.5l.1-.2q.5-.3.5-1.2v-1q0-1.5 1-1.9-1-.4-1-1.8v-.8q0-.7-.3-1-.3-.3-1-.3h-.8v-.6h1.2q.5 0 .9.2l.6.7q.2.4.2 1.1z" fill="#0c60b2"/></g><g stroke="#b9d3eb"><path d="M530.5 261.7v40.2" fill="none"/><path d="M527.5 302l3 8 3-8z" fill="#b9d3eb"/></g><path d="M568.6 311h77.3v92.5h-77.3z" fill="#fff"/><path d="M568.6 311h77.3v92.5h-77.3z" stroke="#0c60b2" stroke-width=".9" fill="none"/><path d="M580.8 368.2l.2.4q0 .3-.2.5t-.5.2q-.3 0-.5-.2t-.2-.5l.2-.4q.2-.3.5-.3t.5.3zm6 0l.2.4q0 .3-.2.5t-.5.2q-.3 0-.5-.2t-.2-.5l.2-.4q.2-.3.5-.3t.5.3zm6 0l.2.4q0 .3-.2.5t-.5.2q-.3 0-.5-.2t-.2-.5l.2-.4q.2-.3.5-.3t.5.3z" font-size="12" font-family="Inconsolata" fill="#0c60b2"/><path d="M349 433.4h1.6v5.3q0 1 .2 1.6.1.6.4 1l.7.5q.4.2.9.2t1-.3l.8-.6.5-1q.3-.6.3-1.4v-5.3h1.5v9.6h-1.5v-1.5q-.5.8-1.3 1.2-.8.5-1.7.5-.7 0-1.3-.3-.6-.2-1.1-.8-.5-.5-.7-1.4-.2-.8-.2-2v-5.3zm18.3 1.2l-.9 1.4v-.2l-.1-.2q-.4-.5-1-.9-.8-.4-1.7-.4h-.7l-.7.3q-.3.2-.4.5-.2.2-.2.6l.1.4.4.4.8.4 1.3.4q1.8.5 2.5 1.2.8.6.8 1.6 0 .6-.3 1.2l-.8 1q-.5.4-1.2.6-.8.3-1.7.3-2.4 0-4-1.5l.8-1.6v.3l.2.3.5.4 1 .5q.3.2.7.2l.8.1.9-.1.8-.3.5-.5.2-.6q0-.6-.5-1l-1.8-.7-1.2-.4-1.1-.5q-.4-.2-.6-.5l-.5-.7-.1-.9.2-1 .8-.8 1.2-.5q.7-.3 1.5-.3 2.2 0 3.5 1.5zm6.9-1.5q.7 0 1.5.3.7.3 1.2.8.5.6.9 1.5.3.8.3 2v.7h-6.9q0 1 .4 1.7.3.7.7 1 .5.5 1 .7l1.2.2q1.5 0 2.5-1.1l.8.8q-1.2 1.5-3.3 1.5-1 0-2-.3-.8-.4-1.4-1-.6-.6-1-1.6-.3-1-.3-2.1 0-1.2.3-2.2.4-1 1-1.5.6-.7 1.4-1 .8-.4 1.7-.4zm-3 4.1h5.4v-.3q0-.6-.2-1l-.5-.8-.8-.6-1-.2q-1 0-1.8.7t-1 2.2zm10.1-3.8h1.6v1.8q.4-1 1.4-1.5 1-.6 2-.6 1.6 0 2.6 1l-.7 1.5-.4-.5-.5-.4-.4-.2h-.7q-.7 0-1.3.3-.6.3-1 .8l-.8 1.2q-.2.7-.2 1.5v4.7h-1.6v-9.6zm17.5 1.2l-.9 1.4v-.2l-.1-.2q-.4-.5-1-.9-.8-.4-1.7-.4h-.7l-.7.3q-.3.2-.4.5-.2.2-.2.6l.1.4.4.4.8.4 1.3.4q1.8.5 2.5 1.2.8.6.8 1.6 0 .6-.3 1.2l-.8 1q-.5.4-1.2.6-.8.3-1.7.3-2.4 0-4-1.5l.8-1.6v.3l.2.3.5.4 1 .5q.3.2.7.2l.8.1.9-.1.8-.3.5-.5.2-.6q0-.6-.5-1l-1.8-.7-1.2-.4-1.1-.5q-.4-.2-.6-.5l-.5-.7-.1-.9.2-1 .8-.8 1.2-.5q.7-.3 1.5-.3 2.2 0 3.5 1.5z" font-size="21" font-family="Inconsolata" fill="#315480"/><path d="M158.5 199l1.2 62.7m-3.4-67.7a3 3 0 1 1 4.3 4 3 3 0 0 1-4.3-4m76.9 5.3V285m-2.2-90.8a3 3 0 1 1 4.3 4.3 3 3 0 0 1-4.3-4.3M67 285h166.2M159 261.7h371.5" stroke="#96bee1" fill="none"/></svg>