<svg xmlns="http://www.w3.org/2000/svg" height="500" width="660"><path d="M284.8 169.8h3v20.5h-3v-9h-11.5v9h-2.9v-20.5h3v8.8h11.4v-8.8zm18.6 13.9h-9.5q.1 2 1.3 3.1 1.2 1.2 3 1.2 2.7 0 5-1.7v2.6q-1.3.9-2.5 1.2-1.2.4-2.8.4-2.2 0-3.6-1-1.4-.9-2.2-2.4-.9-1.6-.9-3.7 0-3 1.8-5 1.7-1.9 4.5-1.9 2.7 0 4.3 1.9 1.6 1.9 1.6 5v.3zm-9.4-1.5h6.8q-.1-1.6-1-2.5-.8-.9-2.3-.9-1.4 0-2.3.9-1 .9-1.2 2.5zm20.7 0v5.7q0 .7.5.7t1.5-.7v1.6q-.9.6-1.5.8-.5.2-1.1.2-1.7 0-2-1.4-1.7 1.4-3.6 1.4-1.4 0-2.4-1-1-.9-1-2.3 0-1.3 1-2.3 1-1 2.6-1.6l3.4-1.1v-.8q0-2.4-2.4-2.4-2.2 0-4.3 2.3v-3q1.6-1.8 4.5-1.8 2.2 0 3.5 1.2.4.3.8 1 .3.5.4 1.2l.1 2.3zm-2.6 5.4v-4l-1.8.7q-1.3.5-2 1-.5.6-.5 1.4 0 .9.6 1.4.5.5 1.3.5 1.3 0 2.4-1zm9.9-10.8v3l.1-.2q2-3 3.9-3 1.5 0 3.1 1.4l-1.4 2.4q-1.4-1.3-2.6-1.3-1.3 0-2.2 1.2-1 1.2-1 3v7h-2.6v-13.5h2.7zm7.7 2.2l5-5v2.8h4.3v2.4h-4.3v6.6q0 2.3 2 2.3 1.3 0 3-1v2.5q-1.6.9-3.4.9-1.8 0-3-1l-.7-.8-.4-1q-.2-.7-.2-2.5v-6h-2.3v-.3zm11.8-9.2h2.6v8q1.8-1.3 3.7-1.3 2.6 0 4.2 2 1.7 1.9 1.7 4.9 0 3.2-2 5.2-2 1.9-5.2 1.9-1.3 0-2.7-.3-1.5-.3-2.3-.7v-19.7zm2.6 10.5v7.3q1.4.4 2.8.4 1.8 0 3-1.3 1-1.2 1-3.2t-1-3.3q-1-1.2-2.7-1.2-1.5 0-3 1.3zm23.9 3.4h-9.4q.1 2 1.3 3.1 1.2 1.2 3 1.2 2.7 0 5-1.7v2.6q-1.3.9-2.5 1.2-1.2.4-2.8.4-2.3 0-3.6-1-1.4-.9-2.2-2.4-.9-1.6-.9-3.7 0-3 1.8-5 1.7-1.9 4.5-1.9 2.7 0 4.3 1.9 1.6 1.9 1.6 5v.3zm-9.3-1.5h6.7q0-1.6-1-2.5-.8-.9-2.2-.9-1.4 0-2.4.9-.9.9-1.1 2.5zm20.7 0v5.7q0 .7.5.7t1.5-.7v1.6l-1.5.8q-.5.2-1.1.2-1.7 0-2-1.4-1.7 1.4-3.7 1.4-1.4 0-2.3-1-1-.9-1-2.3 0-1.3 1-2.3.9-1 2.6-1.6l3.4-1.1v-.8q0-2.4-2.4-2.4-2.2 0-4.3 2.3v-3q1.6-1.8 4.5-1.8 2.2 0 3.5 1.2.4.3.8 1 .3.5.4 1.2l.1 2.3zm-2.6 5.4v-4l-1.8.7q-1.4.5-2 1-.5.6-.5 1.4 0 .9.5 1.4.6.5 1.4.5 1.3 0 2.4-1zm5.1-8.6l5-5v2.8h4.3v2.4h-4.3v6.6q0 2.3 2 2.3 1.4 0 3-1v2.5q-1.6.9-3.4.9-1.8 0-3-1l-.7-.8-.4-1q-.2-.7-.2-2.5v-6H382v-.3z" font-size="30" font-family="GillSans" fill="#4f4c4b"/><g stroke="#4f4c4b" stroke-width="4"><path d="M256.1 195.6h147.7" fill="none"/><path d="M256.1 190.8l-12.8 4.8 12.8 4.8zm147.8 9.6l12.8-4.8-12.8-4.8z" fill="#4f4c4b"/></g><path d="M10.3 142.4h639v85.1h-639z" stroke="#d33907" stroke-width="2" stroke-dasharray="4,4" fill="none"/><g stroke="#301e13" stroke-width="10"><path d="M330 240.8v54.8" fill="none"/><path d="M321.6 295.6L330 318l8.4-22.4z" fill="#301e13"/></g><path d="M145.3 109.7h14v3.1h-10.5v7.5h10v3.1h-10v7.7h10.7v3.1h-14.2v-24.5zm17.7 0h3.1v24.5H163v-24.5zm21.6 16.7h-11.4q.1 2.4 1.5 3.7 1.5 1.4 3.8 1.4 3.1 0 5.8-2v3.2q-1.5 1-3 1.4-1.4.4-3.3.4-2.7 0-4.4-1.1-1.6-1.1-2.6-3t-1-4.3q0-3.7 2.1-6 2-2.3 5.4-2.3 3.2 0 5.2 2.2 1.9 2.3 1.9 6v.4zm-11.3-1.9h8.1q-.1-1.9-1.1-3-1-1-2.8-1-1.7 0-2.8 1-1 1.1-1.4 3zm26.9 6v3.1q-2.5 1-4.8 1-3.8 0-6-2.3-2.3-2.3-2.3-6 0-3.9 2.2-6.2 2.2-2.3 5.8-2.3 1.3 0 2.2.2 1 .2 2.5.9v3.4q-2.4-1.6-4.5-1.6-2.2 0-3.6 1.6-1.3 1.5-1.3 3.8 0 2.5 1.5 4 1.5 1.4 4 1.4 1.9 0 4.3-1zm1.3-9.9l6-5.9v3.4h5.1v2.9h-5v7.9q0 2.8 2.2 2.8 1.7 0 3.7-1.2v3q-1.9 1-4 1-2.3 0-3.7-1.3-.5-.3-.8-.8-.3-.5-.5-1.3t-.2-3V121h-2.8v-.4zm15.9-9.3q.8 0 1.4.5.6.6.6 1.3 0 .8-.6 1.4-.6.5-1.4.5-.7 0-1.3-.5-.5-.6-.5-1.4 0-.7.5-1.3.6-.5 1.3-.5zM216 118h3.2v16.1H216V118zm15.4 0q3.7 0 6.1 2.4 2.5 2.4 2.5 6 0 3.5-2.5 5.8t-6.2 2.3q-3.7 0-6.1-2.3-2.5-2.4-2.5-5.9 0-3.5 2.5-5.9 2.5-2.4 6.2-2.4zm-.2 3q-2.3 0-3.8 1.4-1.4 1.5-1.4 3.9 0 2.3 1.5 3.8 1.5 1.4 3.9 1.4 2.3 0 3.8-1.4 1.5-1.5 1.5-3.9 0-2.3-1.5-3.8-1.6-1.5-4-1.5zm15.5-3v2.1q2.1-2.3 4.9-2.3 1.5 0 2.8.7 1.3.8 2 2.2.6 1.3.6 4.3v9.2h-3.2V125q0-2.4-.7-3.5-.8-1-2.6-1-2.2 0-3.8 2.2v11.5h-3.3v-16.1h3.3zm25.2 0v-.9q0-3.9 1.6-5.8 1.7-2 4-2 1 0 2.4.4v3.1q-.8-.3-1.5-.3-1.9 0-2.6 1-.7 1-.7 3.6v1h2.8v2.9h-2.8v13.2h-3.2V121h-2.4v-3h2.4zm16 0q3.7 0 6.1 2.4 2.4 2.4 2.4 6 0 3.5-2.4 5.8-2.5 2.3-6.3 2.3-3.6 0-6-2.3-2.5-2.4-2.5-5.9 0-3.5 2.5-5.9 2.4-2.4 6.2-2.4zm-.2 3q-2.3 0-3.8 1.4-1.5 1.5-1.5 3.9 0 2.3 1.5 3.8 1.6 1.4 4 1.4 2.3 0 3.8-1.4 1.5-1.5 1.5-3.9 0-2.3-1.6-3.8-1.5-1.5-4-1.5zm15.7-3v3.8l.2-.3q2.3-3.7 4.6-3.7 1.8 0 3.8 1.8l-1.7 2.8q-1.7-1.6-3.1-1.6-1.5 0-2.7 1.5-1.1 1.5-1.1 3.5v8.4h-3.2v-16.1h3.2zm40.8-8.3h3.3v24.5h-3L328 115.3v19h-3.3v-24.6h2.8l16.6 19v-19zm21.9 16.7h-11.4q.2 2.4 1.6 3.7 1.4 1.4 3.7 1.4 3.2 0 5.8-2v3.2q-1.4 1-2.9 1.4-1.4.4-3.4.4-2.7 0-4.3-1.1-1.7-1.1-2.7-3-1-1.9-1-4.3 0-3.7 2.1-6t5.5-2.3q3.2 0 5.1 2.2 2 2.3 2 6v.4zm-11.3-1.9h8.2q-.2-1.9-1.2-3-1-1-2.7-1-1.7 0-2.9 1-1 1.1-1.4 3zm34.4-6.5h3.4l-7.1 16.5h-1l-4.8-11.2-4.7 11.2h-1l-7.3-16.4h3.5l4.2 9.8 4.1-9.8h2.4l4 9.8 4.3-9.8zm15.9 16.2v-24.6h7.8q3.5 0 5.6 2 2.1 1.8 2.1 5 0 2.2-1 3.8-1.1 1.7-3 2.4-1.9.8-5.4.8h-2.6v10.6h-3.5zm7.2-21.4h-3.7v7.7h3.9q2.1 0 3.3-1 1.2-1 1.2-3 0-3.7-4.7-3.7zm14.3 5.2v3.8l.2-.3q2.3-3.7 4.7-3.7 1.8 0 3.7 1.8l-1.6 2.8q-1.7-1.6-3.1-1.6-1.6 0-2.7 1.5-1.2 1.5-1.2 3.5v8.4h-3.2v-16.1h3.2zm12.5-6.7q.8 0 1.4.5.6.6.6 1.3 0 .8-.6 1.4-.6.5-1.4.5-.7 0-1.3-.5-.5-.6-.5-1.4 0-.7.5-1.3.6-.5 1.3-.5zm-1.5 6.8h3.2v16.1h-3.2v-16.1zm21 4.4v11.7h-3.2v-9q0-2.6-.7-3.7-.7-1-2.5-1-1 0-1.9.4-.8.4-1.9 1.6v11.7h-3.2v-16.1h3.2v2.1q2.5-2.4 4.8-2.4 3 0 4.8 2.9 2.5-3 5.3-3 2.4 0 3.9 1.7 1.5 1.8 1.5 5.3v9.5h-3.2v-9.5q0-2-.8-3.1t-2.4-1.1q-2 0-3.7 2zm24.6 2v6.9q0 .8.6.8t1.8-.8v2l-1.8.9q-.6.2-1.3.2-2 0-2.5-1.6-2 1.6-4.3 1.6-1.7 0-2.8-1.1-1.1-1.1-1.1-2.8 0-1.6 1-2.8 1.2-1.2 3.2-1.9l4-1.4v-.8q0-3-2.8-3-2.7 0-5.1 2.7V120q1.8-2.1 5.3-2.1 2.6 0 4.2 1.3.6.5 1 1.2t.5 1.5l.1 2.7zm-3.1 6.5v-4.8l-2.2.9q-1.6.6-2.3 1.3-.7.6-.7 1.6t.7 1.7q.6.6 1.7.6 1.5 0 2.8-1.3zm11.8-13v3.8l.2-.3q2.3-3.7 4.6-3.7 1.8 0 3.8 1.8l-1.7 2.8q-1.7-1.6-3-1.6-1.6 0-2.8 1.5-1.1 1.5-1.1 3.5v8.4h-3.2v-16.1h3.2zm21.8 0h3.6l-11.4 24.5h-3.6l5.5-11.7-6.3-12.7h3.7l4.3 9 4.2-9zM196.3 349.3h3.3v24.5h-3L180.2 355v19h-3.3v-24.6h2.8l16.6 19v-19zm21.9 16.7h-11.4q.2 2.3 1.6 3.7 1.4 1.4 3.7 1.4 3.2 0 5.8-2v3.1q-1.4 1-2.9 1.4-1.4.5-3.4.5-2.7 0-4.3-1.1-1.7-1.1-2.7-3-1-1.9-1-4.3 0-3.7 2.1-6 2.1-2.4 5.5-2.4 3.2 0 5.1 2.3 2 2.2 2 6v.4zm-11.3-1.9h8.2q-.2-2-1.2-3t-2.7-1q-1.8 0-2.9 1-1 1-1.4 3zm34.4-6.4h3.4l-7.1 16.4h-1l-4.8-11.3-4.7 11.3h-1l-7.3-16.4h3.5l4.2 9.8 4.1-9.8h2.4l4 9.8 4.3-9.8zm15.9 16.1v-24.6h7.8q3.5 0 5.6 2 2.1 1.8 2.1 5 0 2.2-1 3.8-1.1 1.7-3 2.4-1.9.8-5.4.8h-2.6v10.6h-3.5zm7.2-21.4h-3.7v7.6h3.9q2.1 0 3.3-1 1.2-1 1.2-2.9 0-3.7-4.7-3.7zm14.3 5.3v3.7l.2-.3q2.3-3.8 4.7-3.8 1.8 0 3.7 1.9l-1.6 2.8q-1.7-1.6-3.1-1.6-1.6 0-2.7 1.5-1.2 1.4-1.2 3.5v8.4h-3.2v-16.1h3.2zm12.5-6.8q.8 0 1.4.5.6.5.6 1.3t-.6 1.4q-.6.5-1.4.5-.7 0-1.3-.5-.5-.6-.5-1.4 0-.7.5-1.3.6-.5 1.3-.5zm-1.5 6.8h3.2v16.1h-3.2v-16.1zm21 4.3v11.8h-3.2v-9q0-2.7-.7-3.7t-2.5-1q-1 0-1.9.4-.8.4-1.9 1.6v11.7h-3.2v-16.1h3.2v2q2.5-2.4 4.8-2.4 3 0 4.8 3 2.5-3 5.3-3 2.4 0 3.9 1.7t1.5 5.3v9.5h-3.2v-9.6q0-2-.8-3-.8-1.1-2.4-1.1-2 0-3.7 2zm24.6 2.1v6.9q0 .8.6.8t1.8-.9v2q-1 .7-1.8 1-.6.2-1.3.2-2 0-2.5-1.6-2 1.6-4.3 1.6-1.7 0-2.8-1.1-1.1-1.2-1.1-2.8 0-1.6 1-2.8 1.2-1.2 3.2-1.9l4-1.4v-.9q0-2.9-2.8-2.9-2.7 0-5.1 2.7v-3.5q1.8-2.2 5.3-2.2 2.6 0 4.2 1.4.6.4 1 1.2.4.7.5 1.4l.1 2.8zm-3.1 6.5v-4.8l-2.2.9q-1.6.6-2.3 1.3-.7.6-.7 1.6t.7 1.6q.6.7 1.6.7 1.6 0 2.9-1.3zm11.8-12.9v3.7l.2-.3q2.3-3.8 4.6-3.8 1.8 0 3.8 1.9l-1.7 2.8q-1.7-1.6-3-1.6-1.6 0-2.8 1.5-1.1 1.4-1.1 3.5v8.4h-3.2v-16.1h3.2zm21.8 0h3.6L357.9 382h-3.5l5.5-11.7-6.3-12.7h3.7l4.3 9 4.2-9zm16.2-8.4h14v3.1h-10.4v7.5h10v3.1h-10v7.7h10.7v3h-14.2v-24.4zm17.7 0h3.2v24.5h-3.2v-24.5zm21.7 16.7H410q.1 2.3 1.5 3.7 1.5 1.4 3.7 1.4 3.2 0 5.9-2v3.1q-1.5 1-3 1.4-1.4.5-3.4.5-2.6 0-4.3-1.1-1.6-1.1-2.6-3t-1-4.3q0-3.7 2-6 2.2-2.4 5.5-2.4 3.2 0 5.1 2.3 2 2.2 2 6v.4zm-11.3-1.9h8q0-2-1-3t-2.8-1q-1.7 0-2.8 1-1.1 1-1.4 3zM437 370v3.2q-2.5 1-4.8 1-3.8 0-6-2.3-2.3-2.3-2.3-6 0-3.9 2.2-6.2 2.2-2.4 5.8-2.4 1.2 0 2.2.3 1 .2 2.5.9v3.4q-2.4-1.6-4.5-1.6-2.2 0-3.6 1.6-1.4 1.5-1.4 3.8 0 2.5 1.5 4 1.5 1.4 4 1.4 2 0 4.3-1zm1.3-9.8l6-5.9v3.4h5.1v2.8h-5.1v8q0 2.7 2.3 2.7 1.7 0 3.6-1.1v3q-1.8 1-4 1t-3.6-1.3l-.8-.8q-.3-.5-.5-1.3t-.2-3v-7.2h-2.8v-.3zm28.1 5.8H455q.1 2.3 1.5 3.7 1.5 1.4 3.7 1.4 3.2 0 5.9-2v3.1q-1.5 1-3 1.4-1.4.5-3.4.5-2.6 0-4.3-1.1-1.6-1.1-2.6-3t-1-4.3q0-3.7 2-6 2.2-2.4 5.5-2.4 3.2 0 5.1 2.3 2 2.2 2 6v.4zm-11.3-1.9h8q0-2-1-3t-2.8-1q-1.7 0-2.8 1-1.1 1-1.4 3zm25.5-14.8h3.2v24.5H477q-3.6 0-5.8-2.2-2-2.3-2-6.1 0-3.6 2.1-5.9 2.3-2.3 5.8-2.3 1.6 0 3.5.7v-8.7zm0 21.8v-10.3q-1.5-.7-3-.7-2.4 0-3.8 1.5-1.5 1.6-1.5 4.3 0 2.5 1.3 3.8.7.8 1.5 1.1.9.3 3 .3h2.5z" font-size="36" font-family="GillSans" fill="#301e13"/><path d="M225 154.9c0-1.2-3-2.1-6.5-2.1h-187c-3.6 0-6.5.9-6.5 2v60.8c0 1.2 3 2.2 6.5 2.2h187c3.6 0 6.5-1 6.5-2.2V155" fill="#5ca831"/><path d="M57.7 187.2l-2.7-1.6q-2.5-1.6-3.6-3-1-1.5-1-3.5 0-2.9 2-4.7 2-1.8 5.2-1.8 3.1 0 5.7 1.7v4q-2.7-2.5-5.7-2.5-1.8 0-2.9.8-1 .8-1 2 0 1.1.7 2.1.8 1 2.7 2l2.6 1.6q4.5 2.7 4.5 6.8 0 3-2 4.8-2 1.9-5 1.9-3.7 0-6.7-2.3v-4.4q2.8 3.6 6.6 3.6 1.6 0 2.7-1 1.1-.9 1.1-2.3 0-2.2-3.2-4.2zm23.8 2.5H70q.1 2.3 1.6 3.7 1.4 1.4 3.7 1.4 3.1 0 5.8-2v3.1q-1.5 1-3 1.4-1.4.4-3.3.4-2.7 0-4.3-1-1.7-1.2-2.7-3-1-2-1-4.4 0-3.7 2.1-6t5.4-2.3q3.3 0 5.2 2.3 1.9 2.2 1.9 6v.4zm-11.3-2h8.1q-.1-1.8-1.1-2.9-1-1-2.8-1-1.7 0-2.8 1-1 1-1.4 3zm26.8 6v3.2q-2.3.9-4.7.9-3.7 0-6-2.3-2.3-2.2-2.3-6t2.2-6.2q2.2-2.3 5.8-2.3 1.3 0 2.2.3 1 .2 2.5.8v3.4q-2.4-1.5-4.5-1.5-2.2 0-3.5 1.5-1.4 1.5-1.4 3.9 0 2.5 1.5 4 1.5 1.4 4 1.4 1.9 0 4.3-1zm11.4-12.4q3.7 0 6.1 2.4 2.5 2.4 2.5 6 0 3.5-2.5 5.8t-6.2 2.3q-3.7 0-6.1-2.4-2.5-2.3-2.5-5.8 0-3.6 2.5-6 2.5-2.3 6.2-2.3zm-.2 2.9q-2.3 0-3.7 1.5-1.5 1.5-1.5 3.8 0 2.4 1.5 3.8 1.5 1.5 3.9 1.5 2.3 0 3.8-1.5t1.5-3.8q0-2.3-1.5-3.8-1.6-1.5-4-1.5zm15.5-2.9v2q2.2-2.3 4.9-2.3 1.5 0 2.8.8 1.3.8 2 2.1.6 1.4.6 4.3v9.3h-3.2v-9.2q0-2.5-.7-3.5-.8-1.1-2.5-1.1-2.3 0-3.9 2.2v11.6h-3.3v-16.2h3.3zm25.6-8.3h3.2v24.5h-6.8q-3.6 0-5.7-2.3-2.2-2.2-2.2-6 0-3.6 2.3-6 2.2-2.2 5.7-2.2 1.6 0 3.5.7v-8.8zm0 21.8v-10.3q-1.5-.8-3-.8-2.4 0-3.8 1.6t-1.4 4.2q0 2.5 1.2 3.9.7.8 1.6 1 .8.4 3 .4h2.4zm17.7-7v6.8q0 .9.6.9t1.8-.9v2l-1.8 1q-.6.2-1.3.2-2 0-2.5-1.6-2 1.5-4.3 1.5-1.7 0-2.8-1-1.1-1.2-1.1-2.9 0-1.5 1-2.7 1.2-1.2 3.2-2l4-1.3v-.9q0-3-2.8-3-2.7 0-5.1 2.8v-3.5q1.8-2.2 5.3-2.2 2.6 0 4.2 1.4.5.4 1 1.2.4.7.5 1.4l.1 2.8zm-3.1 6.5v-4.8l-2.2.8q-1.6.7-2.3 1.3-.7.7-.7 1.7t.7 1.6q.6.6 1.6.6 1.6 0 2.9-1.2zm11.8-13v3.7l.2-.2q2.3-3.8 4.6-3.8 1.8 0 3.8 1.8l-1.7 2.8q-1.7-1.5-3.1-1.5-1.5 0-2.7 1.4-1.1 1.5-1.1 3.5v8.5h-3.2v-16.2h3.2zm21.8 0h3.6l-11.5 24.4h-3.5l5.5-11.7-6.3-12.7h3.7l4.3 9.1 4.2-9z" font-size="36" font-family="GillSans" fill="#fffffe"/><path d="M225 408.1c0-1.2-3-2.1-6.5-2.1h-187c-3.6 0-6.5 1-6.5 2.1V469c0 1.2 3 2.1 6.5 2.1h187c3.6 0 6.5-1 6.5-2.1v-61" fill="#2a86c0"/><path d="M70.2 450.5v-24.6h7.7q3.6 0 5.7 2 2 1.8 2 5 0 2.1-1 3.8-1.1 1.7-3 2.4-1.8.7-5.3.7h-2.6v10.7h-3.5zm7.1-21.5h-3.6v7.7h3.8q2.2 0 3.3-1 1.2-1 1.2-2.9 0-3.8-4.7-3.8zm14.4 5.3v3.7l.2-.2q2.3-3.8 4.6-3.8 1.8 0 3.8 1.8l-1.7 2.9q-1.7-1.6-3.1-1.6-1.5 0-2.7 1.4-1.1 1.5-1.1 3.5v8.5h-3.2v-16.2h3.2zm12.5-6.8q.8 0 1.3.6.6.5.6 1.3t-.6 1.3q-.5.6-1.3.6t-1.3-.6q-.6-.5-.6-1.3 0-.7.6-1.3.5-.6 1.3-.6zm-1.6 6.8h3.2v16.2h-3.2v-16.2zm21.1 4.5v11.7h-3.3v-9q0-2.7-.7-3.7-.7-1.1-2.5-1.1-1 0-1.8.4-.9.5-2 1.7v11.7h-3.1v-16.2h3.2v2.2q2.4-2.5 4.8-2.5 3 0 4.7 3 2.6-3 5.4-3 2.3 0 3.8 1.7 1.6 1.7 1.6 5.3v9.5h-3.2v-9.6q0-2-.9-3-.8-1.1-2.3-1.1-2 0-3.7 2zm24.6 2v6.9q0 .8.5.8.6 0 1.8-.9v2l-1.7 1-1.4.2q-2 0-2.4-1.6-2 1.5-4.3 1.5-1.7 0-2.9-1-1-1.2-1-2.9 0-1.5 1-2.7 1.1-1.2 3.1-2l4.1-1.3v-.9q0-2.9-2.9-2.9-2.6 0-5 2.7v-3.5q1.8-2.2 5.3-2.2 2.6 0 4.2 1.4.5.4 1 1.2l.5 1.4v2.8zm-3.2 6.5v-4.8l-2.1.8q-1.7.7-2.3 1.3-.7.7-.7 1.7t.6 1.6q.7.6 1.7.6 1.5 0 2.8-1.2zm11.9-13v3.7l.1-.2q2.3-3.8 4.7-3.8 1.8 0 3.7 1.8l-1.7 2.9q-1.6-1.6-3-1.6-1.6 0-2.7 1.4-1.2 1.5-1.2 3.5v8.5h-3.2v-16.2h3.2zm21.7 0h3.6L171 458.7h-3.6l5.5-11.7-6.2-12.7h3.6l4.4 9.2 4.1-9.2z" font-size="36" font-family="GillSans" fill="#fff"/><path d="M430 26.1c0-1.2-3-2.1-6.5-2.1h-187c-3.6 0-6.5 1-6.5 2.1V87c0 1.2 3 2.1 6.5 2.1h187c3.6 0 6.5-1 6.5-2.1V26" fill="#2a86c0"/><path d="M275.2 68.5V43.9h7.7q3.6 0 5.7 2 2 1.8 2 5 0 2.1-1 3.8-1.1 1.7-3 2.4-1.8.7-5.3.7h-2.6v10.7h-3.5zm7.1-21.5h-3.6v7.7h3.8q2.2 0 3.3-1 1.2-1 1.2-2.9 0-3.8-4.7-3.8zm14.4 5.3V56l.2-.2q2.3-3.8 4.6-3.8 1.8 0 3.8 1.8l-1.7 2.9q-1.7-1.6-3.1-1.6-1.5 0-2.7 1.4-1.1 1.5-1.1 3.5v8.5h-3.2V52.3h3.2zm12.5-6.8q.8 0 1.3.6.6.5.6 1.3t-.6 1.3q-.5.6-1.3.6t-1.3-.6q-.6-.5-.6-1.3 0-.7.6-1.3.5-.6 1.3-.6zm-1.6 6.8h3.2v16.2h-3.2V52.3zm21.1 4.5v11.7h-3.3v-9q0-2.7-.7-3.7-.7-1.1-2.5-1.1-1 0-1.8.4-.9.5-2 1.7v11.7h-3.1V52.3h3.2v2.2q2.4-2.5 4.8-2.5 3 0 4.7 3 2.6-3 5.4-3 2.3 0 3.8 1.7 1.6 1.7 1.6 5.3v9.5h-3.2v-9.6q0-2-.9-3-.8-1.1-2.3-1.1-2 0-3.7 2zm24.6 2v6.9q0 .8.5.8.6 0 1.8-.9v2l-1.7 1-1.4.2q-2 0-2.4-1.6-2 1.5-4.3 1.5-1.7 0-2.9-1-1-1.2-1-2.9 0-1.5 1-2.7 1.1-1.2 3.1-2l4.1-1.3v-.9q0-2.9-2.9-2.9-2.6 0-5 2.7v-3.5q1.8-2.2 5.3-2.2 2.6 0 4.2 1.4.5.4 1 1.2l.5 1.4v2.8zm-3.2 6.5v-4.8l-2.1.8q-1.7.7-2.3 1.3-.7.7-.7 1.7t.6 1.6q.7.6 1.7.6 1.5 0 2.8-1.2zm11.9-13V56l.1-.2q2.3-3.8 4.7-3.8 1.8 0 3.7 1.8l-1.7 2.9q-1.6-1.6-3-1.6-1.6 0-2.7 1.4-1.2 1.5-1.2 3.5v8.5h-3.2V52.3h3.2zm21.7 0h3.6L376 76.7h-3.6l5.5-11.7-6.2-12.7h3.6l4.4 9.2 4.1-9.2z" font-size="36" font-family="GillSans" fill="#fff"/><path d="M10.3 394.9h639V480h-639z" stroke="#d33907" stroke-width="2" stroke-dasharray="4,4" fill="none"/><path d="M284.8 428h3v20.5h-3v-9h-11.5v9h-2.9V428h3v8.9h11.4V428zm18.6 14h-9.5q.1 2 1.3 3 1.2 1.2 3 1.2 2.7 0 5-1.6v2.6q-1.3.8-2.5 1.2-1.2.3-2.8.3-2.2 0-3.6-1-1.4-.8-2.2-2.4-.9-1.6-.9-3.6 0-3 1.8-5 1.7-2 4.5-2 2.7 0 4.3 2 1.6 1.8 1.6 5v.3zm-9.4-1.6h6.8q-.1-1.6-1-2.5-.8-.8-2.3-.8-1.4 0-2.3.8-1 .9-1.2 2.5zm20.7 0v5.7q0 .7.5.7t1.5-.7v1.6q-.9.6-1.5.8-.5.2-1.1.2-1.7 0-2-1.3-1.7 1.3-3.6 1.3-1.4 0-2.4-1-1-.9-1-2.3 0-1.2 1-2.2 1-1 2.6-1.6l3.4-1.2v-.7q0-2.5-2.4-2.5-2.2 0-4.3 2.3v-3q1.6-1.7 4.5-1.7 2.2 0 3.5 1.1l.8 1 .4 1.2.1 2.3zm-2.6 5.4v-4l-1.8.7q-1.3.6-2 1.1-.5.6-.5 1.4 0 .8.6 1.3.5.6 1.3.6 1.3 0 2.4-1zM322 435v3.1l.1-.2q2-3.1 3.9-3.1 1.5 0 3.1 1.5l-1.4 2.3q-1.4-1.3-2.6-1.3-1.3 0-2.2 1.2-1 1.3-1 3v7h-2.6V435h2.7zm7.7 2.2l5-5v2.8h4.3v2.4h-4.3v6.6q0 2.3 2 2.3 1.3 0 3-1v2.6q-1.6.8-3.4.8-1.8 0-3-1l-.7-.8-.4-1q-.2-.7-.2-2.5v-6h-2.3v-.2zm11.8-9.2h2.6v8q1.8-1.3 3.7-1.3 2.6 0 4.2 2 1.7 1.9 1.7 5 0 3.2-2 5.1-2 2-5.2 2-1.3 0-2.7-.3-1.5-.3-2.3-.7V428zm2.6 10.5v7.3q1.4.4 2.8.4 1.8 0 3-1.2 1-1.3 1-3.3 0-2-1-3.2-1-1.3-2.7-1.3-1.5 0-3 1.3zM368 442h-9.4q.1 2 1.3 3 1.2 1.2 3 1.2 2.7 0 5-1.6v2.6q-1.3.8-2.5 1.2-1.2.3-2.8.3-2.3 0-3.6-1-1.4-.8-2.2-2.4-.9-1.6-.9-3.6 0-3 1.8-5 1.7-2 4.5-2 2.7 0 4.3 2 1.6 1.8 1.6 5v.3zm-9.3-1.6h6.7q0-1.6-1-2.5-.8-.8-2.2-.8-1.4 0-2.4.8-.9.9-1.1 2.5zm20.7 0v5.7q0 .7.5.7t1.5-.7v1.6l-1.5.8q-.5.2-1.1.2-1.7 0-2-1.3-1.7 1.3-3.7 1.3-1.4 0-2.3-1-1-.9-1-2.3 0-1.2 1-2.2.9-1 2.6-1.6l3.4-1.2v-.7q0-2.5-2.4-2.5-2.2 0-4.3 2.3v-3q1.6-1.7 4.5-1.7 2.2 0 3.5 1.1l.8 1 .4 1.2.1 2.3zm-2.6 5.4v-4l-1.8.7q-1.4.6-2 1.1-.5.6-.5 1.4 0 .8.5 1.3.6.6 1.4.6 1.3 0 2.4-1zm5.1-8.6l5-5v2.8h4.3v2.4h-4.3v6.6q0 2.3 2 2.3 1.4 0 3-1v2.6q-1.6.8-3.4.8-1.8 0-3-1l-.7-.8-.4-1q-.2-.7-.2-2.5v-6H382v-.2z" font-size="30" font-family="GillSans" fill="#4f4c4b"/><g stroke="#4f4c4b" stroke-width="4"><path d="M256.1 453.8h147.7" fill="none"/><path d="M256.1 449l-12.8 4.8 12.8 4.8zm147.8 9.6l12.8-4.8-12.8-4.8z" fill="#4f4c4b"/></g><path d="M227.9 12l204.5 89.2m-204.9-.2L432 11.7" stroke="#ab2b1f" stroke-width="10" fill="none"/><path d="M636 154.9c0-1.2-3-2.1-6.5-2.1h-187c-3.6 0-6.5.9-6.5 2v60.8c0 1.2 3 2.2 6.5 2.2h187c3.6 0 6.5-1 6.5-2.2V155" fill="#e88b09"/><path d="M492.7 170.5h2.5l11 24.7h-3.6l-3.3-7.2H489l-3.1 7.2h-3.6l10.5-24.7zm5.2 14.3l-4-8.9-3.7 9h7.7zM512 179v3.8-.3q2.4-3.8 4.7-3.8 1.8 0 3.8 1.9l-1.7 2.8q-1.6-1.6-3-1.6-1.6 0-2.8 1.5-1 1.5-1 3.5v8.4h-3.3v-16.1h3.2zm10.6-8.3h3.2v9.5q2.1-1.5 4.5-1.5 3 0 5 2.3t2 6q0 3.9-2.4 6.2-2.3 2.3-6.2 2.3-1.6 0-3.3-.3-1.8-.4-2.8-.9v-23.6zm3.2 12.6v8.7q1.7.5 3.4.5 2.1 0 3.4-1.5 1.4-1.5 1.4-3.9t-1.3-3.9q-1.2-1.5-3.2-1.5-1.8 0-3.7 1.6zm16.6-11q.8 0 1.4.5.5.5.5 1.3t-.5 1.4q-.6.5-1.4.5-.7 0-1.3-.5-.5-.6-.5-1.4 0-.7.5-1.3.6-.5 1.3-.5zm-1.6 6.8h3.2v16.1h-3.2v-16.1zm5.6 2.5l6-5.9v3.4h5.1v2.8h-5.1v8q0 2.7 2.3 2.7 1.7 0 3.6-1.1v3q-1.8 1-4 1t-3.7-1.3l-.7-.8q-.3-.5-.5-1.3t-.2-3V182h-2.8v-.3zm28 5.8h-11.3q0 2.3 1.5 3.7 1.5 1.4 3.7 1.4 3.2 0 5.9-2v3.1q-1.5 1-3 1.5-1.4.4-3.4.4-2.6 0-4.3-1.1-1.6-1.1-2.6-3t-1-4.3q0-3.7 2-6 2.2-2.4 5.5-2.4 3.2 0 5.1 2.3 2 2.2 2 6v.4zm-11.3-1.9h8.2q-.1-1.9-1.2-3-1-1-2.7-1-1.7 0-2.8 1-1.1 1.1-1.5 3zm18.2-6.5v3.8l.2-.3q2.3-3.8 4.6-3.8 1.8 0 3.8 1.9l-1.7 2.8q-1.6-1.6-3-1.6-1.6 0-2.8 1.5-1 1.5-1 3.5v8.4H578v-16.1h3.2z" font-size="36" font-family="GillSans" fill="#fffffe"/><path d="M636 408.1c0-1.2-3-2.1-6.5-2.1h-187c-3.6 0-6.5 1-6.5 2.1V469c0 1.2 3 2.1 6.5 2.1h187c3.6 0 6.5-1 6.5-2.1v-61" fill="#e88b09"/><path d="M492.7 423.8h2.5l11 24.7h-3.6l-3.3-7.3H489l-3.1 7.3h-3.6l10.5-24.7zM498 438l-4-9-3.7 9h7.7zm14-5.7v3.7-.3q2.4-3.7 4.7-3.7 1.8 0 3.8 1.8l-1.7 2.8q-1.6-1.6-3-1.6-1.6 0-2.8 1.5-1 1.5-1 3.5v8.5h-3.3v-16.2h3.2zm10.6-8.3h3.2v9.5q2.1-1.5 4.5-1.5 3 0 5 2.3t2 6q0 3.8-2.4 6.2-2.3 2.3-6.2 2.3-1.6 0-3.3-.4-1.8-.3-2.8-.8v-23.7zm3.2 12.5v8.8q1.7.5 3.4.5 2.1 0 3.4-1.5 1.4-1.6 1.4-4 0-2.3-1.3-3.8-1.2-1.6-3.2-1.6-1.8 0-3.7 1.6zm16.6-11q.8 0 1.4.5.5.6.5 1.4 0 .8-.5 1.3-.6.6-1.4.6-.7 0-1.3-.6-.5-.6-.5-1.3 0-.8.5-1.3.6-.6 1.3-.6zm-1.6 6.8h3.2v16.2h-3.2v-16.2zm5.6 2.6l6-6v3.4h5.1v2.9h-5.1v8q0 2.7 2.3 2.7 1.7 0 3.6-1.2v3q-1.8 1-4 1t-3.7-1.2l-.7-.9-.5-1.2q-.2-.8-.2-3v-7.2h-2.8v-.3zm28 5.8h-11.3q0 2.3 1.5 3.7 1.5 1.3 3.7 1.3 3.2 0 5.9-2v3.2q-1.5 1-3 1.4-1.4.4-3.4.4-2.6 0-4.3-1-1.6-1.2-2.6-3-1-2-1-4.4 0-3.7 2-6 2.2-2.3 5.5-2.3 3.2 0 5.1 2.2 2 2.3 2 6v.5zm-11.3-2h8.2q-.1-1.9-1.2-2.9-1-1-2.7-1-1.7 0-2.8 1-1.1 1-1.5 3zm18.2-6.4v3.7l.2-.3q2.3-3.7 4.6-3.7 1.8 0 3.8 1.8l-1.7 2.8q-1.6-1.6-3-1.6-1.6 0-2.8 1.5-1 1.5-1 3.5v8.5H578v-16.2h3.2z" font-size="36" font-family="GillSans" fill="#fffffe"/></svg>