<svg xmlns="http://www.w3.org/2000/svg" height="280" width="740"><g stroke="#4f4c4b" stroke-width="4"><path d="M500.9 208.5l-107.6-96.1" fill="none"/><path d="M497.7 212.1l12.7 5-6.3-12.2zM396.5 108.8l-12.7-5L390 116z" fill="#4f4c4b"/></g><g stroke="#4f4c4b" stroke-width="4"><path d="M241.3 208.5L349 112.4" fill="none"/><path d="M238.1 205l-6.3 12 12.7-4.9zM352 116l6.4-12.1-12.7 5z" fill="#4f4c4b"/></g><path d="M220 207.1c0-1.2-3-2.1-6.5-2.1h-187c-3.6 0-6.5 1-6.5 2.1V268c0 1.2 3 2.1 6.5 2.1h187c3.6 0 6.5-1 6.5-2.1v-61" fill="#5ca831"/><path d="M52.7 239.4l-2.7-1.6q-2.5-1.5-3.6-3-1-1.5-1-3.4 0-3 2-4.7 2-1.8 5.2-1.8 3.1 0 5.7 1.7v4q-2.7-2.6-5.7-2.6-1.8 0-2.9.8-1 .8-1 2t.7 2.2q.8 1 2.7 2l2.6 1.6q4.5 2.6 4.5 6.8 0 3-2 4.8-2 1.8-5 1.8-3.7 0-6.7-2.2v-4.5q2.8 3.6 6.6 3.6 1.6 0 2.7-.9 1.1-1 1.1-2.3 0-2.3-3.2-4.3zm23.8 2.6H65q.1 2.3 1.6 3.6 1.4 1.4 3.7 1.4 3.1 0 5.8-2v3.2q-1.5 1-3 1.4-1.4.4-3.3.4-2.7 0-4.3-1.1-1.7-1.1-2.7-3-1-1.9-1-4.3 0-3.7 2.1-6t5.4-2.3q3.3 0 5.2 2.2 1.9 2.3 1.9 6v.4zm-11.3-2h8.1q-.1-1.9-1.1-3-1-1-2.8-1-1.7 0-2.8 1-1 1.1-1.4 3zm26.8 6v3.1q-2.3 1-4.7 1-3.7 0-6-2.3t-2.3-6q0-3.9 2.2-6.2 2.2-2.3 5.8-2.3 1.3 0 2.2.2 1 .2 2.5.9v3.4q-2.4-1.6-4.5-1.6-2.2 0-3.5 1.6-1.4 1.5-1.4 3.8 0 2.5 1.5 4 1.5 1.4 4 1.4 1.9 0 4.3-1zm11.4-12.5q3.7 0 6.1 2.4 2.5 2.4 2.5 6 0 3.5-2.5 5.8t-6.2 2.3q-3.7 0-6.1-2.3-2.5-2.4-2.5-5.9 0-3.5 2.5-5.9 2.5-2.4 6.2-2.4zm-.2 3q-2.3 0-3.7 1.4-1.5 1.5-1.5 3.9 0 2.3 1.5 3.8 1.5 1.4 3.9 1.4 2.3 0 3.8-1.4 1.5-1.5 1.5-3.9 0-2.3-1.5-3.8-1.6-1.5-4-1.5zm15.5-2.9v2q2.2-2.3 4.9-2.3 1.5 0 2.8.7 1.3.8 2 2.2.6 1.3.6 4.3v9.2h-3.2v-9.2q0-2.4-.7-3.5-.8-1-2.5-1-2.3 0-3.9 2.2v11.5h-3.3v-16.1h3.3zm25.6-8.4h3.2v24.5h-6.8q-3.6 0-5.7-2.2-2.2-2.3-2.2-6.1 0-3.6 2.3-5.9 2.2-2.3 5.7-2.3 1.6 0 3.5.7v-8.7zm0 21.8v-10.2q-1.5-.8-3-.8-2.4 0-3.8 1.6-1.4 1.5-1.4 4.2 0 2.5 1.2 3.8.7.8 1.6 1.1.8.3 3 .3h2.4zm17.7-7v6.9q0 .8.6.8t1.8-.8v2l-1.8.9q-.6.2-1.3.2-2 0-2.5-1.6-2 1.6-4.3 1.6-1.7 0-2.8-1.1-1.1-1.1-1.1-2.8 0-1.6 1-2.8 1.2-1.2 3.2-1.9l4-1.4v-.8q0-3-2.8-3-2.7 0-5.1 2.7v-3.4q1.8-2.2 5.3-2.2 2.6 0 4.2 1.3l1 1.2q.4.7.5 1.5l.1 2.7zm-3.1 6.5v-4.8l-2.2.9q-1.6.6-2.3 1.3-.7.6-.7 1.6t.7 1.7q.6.6 1.6.6 1.6 0 2.9-1.3zm11.8-12.9v3.7l.2-.3q2.3-3.7 4.6-3.7 1.8 0 3.8 1.8l-1.7 2.8q-1.7-1.6-3.1-1.6-1.5 0-2.7 1.5-1.1 1.5-1.1 3.5v8.4h-3.2v-16.1h3.2zm21.8 0h3.6L184.6 258h-3.5l5.5-11.7-6.3-12.7h3.7l4.3 9 4.2-9z" font-size="36" font-family="GillSans" fill="#fffffe"/><path d="M720 207.1c0-1.2-3-2.1-6.5-2.1h-187c-3.6 0-6.5 1-6.5 2.1V268c0 1.2 3 2.1 6.5 2.1h187c3.6 0 6.5-1 6.5-2.1v-61" fill="#5ca831"/><path d="M552.7 239.4l-2.7-1.6q-2.5-1.5-3.6-3-1-1.5-1-3.4 0-3 2-4.7 2-1.8 5.2-1.8 3.1 0 5.7 1.7v4q-2.7-2.6-5.7-2.6-1.8 0-2.9.8-1 .8-1 2t.7 2.2q.8 1 2.7 2l2.6 1.6q4.5 2.6 4.5 6.8 0 3-2 4.8-2 1.8-5 1.8-3.7 0-6.7-2.2v-4.5q2.8 3.6 6.6 3.6 1.6 0 2.7-.9 1.1-1 1.1-2.3 0-2.3-3.2-4.3zm23.8 2.6H565q.1 2.3 1.6 3.6 1.4 1.4 3.7 1.4 3.1 0 5.8-2v3.2q-1.5 1-3 1.4-1.4.4-3.3.4-2.7 0-4.3-1.1-1.7-1.1-2.7-3-1-1.9-1-4.3 0-3.7 2.1-6t5.4-2.3q3.3 0 5.2 2.2 1.9 2.3 1.9 6v.4zm-11.3-2h8.1q-.1-1.9-1.1-3-1-1-2.8-1-1.7 0-2.8 1-1 1.1-1.4 3zm26.8 6v3.1q-2.3 1-4.7 1-3.7 0-6-2.3t-2.3-6q0-3.9 2.2-6.2 2.2-2.3 5.8-2.3 1.3 0 2.2.2 1 .2 2.5.9v3.4q-2.4-1.6-4.5-1.6-2.2 0-3.5 1.6-1.4 1.5-1.4 3.8 0 2.5 1.5 4 1.5 1.4 4 1.4 1.9 0 4.3-1zm11.4-12.5q3.7 0 6.1 2.4 2.5 2.4 2.5 6 0 3.5-2.5 5.8t-6.2 2.3q-3.7 0-6.1-2.3-2.5-2.4-2.5-5.9 0-3.5 2.5-5.9 2.5-2.4 6.2-2.4zm-.2 3q-2.3 0-3.7 1.4-1.5 1.5-1.5 3.9 0 2.3 1.5 3.8 1.5 1.4 3.9 1.4 2.3 0 3.8-1.4 1.5-1.5 1.5-3.9 0-2.3-1.5-3.8-1.6-1.5-4-1.5zm15.5-2.9v2q2.2-2.3 4.9-2.3 1.5 0 2.8.7 1.3.8 2 2.2.6 1.3.6 4.3v9.2h-3.2v-9.2q0-2.4-.7-3.5-.8-1-2.5-1-2.3 0-3.9 2.2v11.5h-3.3v-16.1h3.3zm25.6-8.4h3.2v24.5h-6.8q-3.6 0-5.7-2.2-2.2-2.3-2.2-6.1 0-3.6 2.3-5.9 2.2-2.3 5.7-2.3 1.6 0 3.5.7v-8.7zm0 21.8v-10.2q-1.5-.8-3-.8-2.4 0-3.8 1.6-1.4 1.5-1.4 4.2 0 2.5 1.2 3.8.7.8 1.6 1.1.8.3 3 .3h2.4zm17.7-7v6.9q0 .8.6.8t1.8-.8v2l-1.8.9q-.6.2-1.3.2-2 0-2.5-1.6-2 1.6-4.3 1.6-1.7 0-2.8-1.1-1.1-1.1-1.1-2.8 0-1.6 1-2.8 1.2-1.2 3.2-1.9l4-1.4v-.8q0-3-2.8-3-2.7 0-5.1 2.7v-3.4q1.8-2.2 5.3-2.2 2.6 0 4.2 1.3l1 1.2q.4.7.5 1.5l.1 2.7zm-3.1 6.5v-4.8l-2.2.9q-1.6.6-2.3 1.3-.7.6-.7 1.6t.7 1.7q.6.6 1.6.6 1.6 0 2.9-1.3zm11.8-12.9v3.7l.2-.3q2.3-3.7 4.6-3.7 1.8 0 3.8 1.8l-1.7 2.8q-1.7-1.6-3.1-1.6-1.5 0-2.7 1.5-1.1 1.5-1.1 3.5v8.4h-3.2v-16.1h3.2zm21.8 0h3.6L684.6 258h-3.5l5.5-11.7-6.3-12.7h3.7l4.3 9 4.2-9z" font-size="36" font-family="GillSans" fill="#fffffe"/><path d="M147.7 154.6l-13.2-15.7 4-3.3q2.3-2 4.7-2 2.4 0 4 2 1.2 1.4 1.4 3 .1 1.5-.7 3.1 1.1-.1 2.6.1 1.4.3 4.5 1.3l3 .9 1.7.4-2.6 2.3-1.6-.5h-.3l-1-.3-1.6-.6-1.8-.6q-1.5-.4-2.5-.4h-1.8q-.6.2-1.7 1l-.6.6 5.7 6.8-2.2 1.9zm-8.7-16.2l-.7.5 4.2 5 .8-.7q1.8-1.5 2.1-2.3.4-.8.3-1.7-.2-.9-.8-1.7-.6-.7-1.5-1-.9-.2-1.8.1-1 .4-2.6 1.8zm26.8-7.6l-7.2 6.1q1.3 1.4 3 1.5 1.6.1 3-1 2-1.8 2.7-4.5l1.7 2q-.4 1.5-1.1 2.5-.7 1-2 2.1-1.7 1.4-3.3 1.6-1.7.2-3.3-.5-1.6-.6-3-2.2-2-2.4-1.8-5 0-2.6 2.2-4.4 2-1.7 4.5-1.3 2.4.4 4.4 2.9l.2.2zm-8.2 4.8l5.2-4.3q-1.1-1.2-2.3-1.3-1.2-.1-2.3.8-1.1 1-1.3 2.2-.1 1.2.7 2.6zm18.9 3.7l-13-15.6 3.5-3q2.7-2.3 5.4-2.2 2.7.1 4.8 2.6 2 2.3 1.7 5-.2 2.7-2.4 4.6-1 .8-2.5 1.4l4.6 5.5-2.1 1.7zm-8-16.6l-1.4 1.2 5.3 6.3q1.4-.3 2.4-1.1 1.5-1.2 1.5-3 .1-1.8-1.2-3.3-.9-1-2-1.5-1-.4-2 0-1.1.2-2.5 1.4zm2.1-14.1l2-1.7 13.2 15.7-2 1.7-13.2-15.7zm6.9-4.1q.5-.4 1.2-.4.6 0 1 .6.5.5.4 1.1 0 .7-.6 1.1-.4.4-1 .3-.8 0-1.2-.5-.4-.5-.3-1.1 0-.7.5-1.1zm2.7 5.2l2-1.7 8.7 10.3-2 1.7-8.7-10.3zm19.3-2.7l1.7 2q-1 1.8-2.5 3-2.4 2-5 1.8-2.7-.2-4.8-2.6-2-2.4-1.8-5.1.1-2.7 2.4-4.6.8-.7 1.5-1l2-.8 2 2.2q-2.5.3-3.8 1.4-1.4 1.2-1.4 2.9-.1 1.7 1.2 3.2 1.3 1.6 3 1.7 1.8.1 3.4-1.2 1.2-1 2.1-3zm5.6-11.3l3.7 4.4q.5.6.8.3.4-.4.7-1.6l1 1.3-.6 1.5q-.2.5-.7 1-1.3 1-2.4.2-.5 2.1-2 3.3-1 1-2.3.8-1.3 0-2.2-1.2-.9-1-.8-2.3 0-1.3 1-2.9l1.8-3-.4-.6q-1.6-1.9-3.5-.3-1.6 1.4-1.8 4.4l-1.8-2.2q0-2.4 2.2-4.3 1.7-1.4 3.4-1.3l1.3.2q.6.2 1 .6l1.6 1.7zm1.5 5.9l-2.5-3-1 1.6q-.7 1.3-.8 2 0 .9.5 1.5t1.3.7q.7 0 1.4-.5 1-.8 1.1-2.3zm-1.6-9.9l.6-7 1.8 2.1 3.3-2.7 1.5 1.8-3.2 2.8 4.2 5q1.5 1.8 3 .5 1-.9 1.7-2.6l1.6 1.9q-.7 1.6-2 2.8-1.5 1.2-3 1.1l-1-.1-1-.6q-.6-.4-1.7-1.8l-3.9-4.5-1.8 1.5-.1-.2zm5.1-14.6q.5-.4 1.2-.3.6 0 1 .5.5.5.4 1.2 0 .6-.6 1-.4.5-1.1.4-.7 0-1-.6-.5-.4-.4-1 0-.8.5-1.2zm2.6 5.2l2-1.7 8.8 10.3-2 1.8-8.8-10.4zm9.9-8.3q2.4-2 5.2-1.8 2.9.2 4.8 2.5t1.5 5q-.3 2.9-2.7 4.9-2.3 2-5.1 1.8-2.9-.2-4.8-2.5t-1.5-5q.3-3 2.6-5zm1.5 2q-1.5 1.2-1.6 3-.2 1.7 1 3.2 1.3 1.4 3 1.6 1.8 0 3.4-1.2 1.5-1.2 1.6-3 .2-1.7-1-3.2-1.3-1.5-3.1-1.6-1.8-.2-3.3 1.1zm8.3-10.2l1.1 1.3q.1-2.6 1.9-4.1 1-.8 2.2-1 1.2-.2 2.4.3t2.7 2.4l5 5.9-2 1.7-5-5.9q-1.3-1.5-2.4-1.8-1-.3-2.2.7-1.4 1.2-1.2 3.5l6.2 7.3L239 78l-8.7-10.3 2.1-1.8z" font-size="30" font-family="GillSans" fill="#2a86c0"/><g stroke="#2a86c0" stroke-width="8"><path d="M260.5 77.5L139 179.5" fill="none"/><path d="M134.4 174l-10.1 18 19.3-6.9z" fill="#2a86c0"/></g><path d="M469.3 22.4c0-1.1-3-2-6.5-2h-187c-3.6 0-6.5.9-6.5 2v60.8c0 1.2 2.9 2.1 6.5 2.1h187c3.6 0 6.5-1 6.5-2v-61" fill="#2a86c0"/><path d="M314.4 64.8V40.2h7.8q3.5 0 5.6 2 2.1 1.8 2.1 5 0 2.2-1 3.8-1.1 1.7-3 2.4-1.9.8-5.3.8H318v10.6h-3.6zm7.2-21.4H318V51h3.8q2.2 0 3.3-1 1.2-1 1.2-2.9 0-3.7-4.7-3.7zm14.4 5.3v3.7l.1-.3q2.4-3.8 4.7-3.8 1.8 0 3.8 1.9l-1.7 2.8q-1.7-1.6-3.1-1.6-1.6 0-2.7 1.5-1.1 1.4-1.1 3.5v8.4h-3.3V48.7h3.3zm12.5-6.9q.8 0 1.3.6.6.5.6 1.3t-.6 1.4q-.5.5-1.3.5t-1.3-.5q-.6-.6-.6-1.4 0-.7.6-1.3.5-.6 1.3-.6zm-1.6 6.9h3.2v16.1h-3.2V48.7zM368 53v11.8h-3.3v-9q0-2.7-.7-3.7t-2.5-1q-1 0-1.9.4-.8.4-1.9 1.6v11.7h-3.2V48.7h3.2v2q2.5-2.4 4.8-2.4 3.1 0 4.8 3 2.6-3 5.3-3 2.4 0 4 1.7 1.4 1.7 1.4 5.3v9.5h-3.2v-9.6q0-2-.8-3-.8-1.1-2.4-1.1-2 0-3.7 2zm24.5 2.1V62q0 .8.6.8t1.8-.9v2l-1.7 1-1.4.2q-2 0-2.4-1.6-2 1.6-4.4 1.6-1.7 0-2.8-1.1-1.1-1.2-1.1-2.8 0-1.6 1-2.8 1.2-1.2 3.2-1.9l4.1-1.4v-.9q0-2.9-3-2.9-2.5 0-5 2.7v-3.5q1.8-2.2 5.3-2.2 2.7 0 4.2 1.4.6.4 1 1.2.4.7.5 1.4l.1 2.8zm-3.1 6.5v-4.8l-2.1.9q-1.7.6-2.4 1.3-.6.6-.6 1.6t.6 1.6q.7.7 1.7.7 1.5 0 2.8-1.3zm11.8-12.9v3.7l.2-.3q2.3-3.8 4.6-3.8 1.8 0 3.8 1.9l-1.7 2.8q-1.6-1.6-3-1.6-1.6 0-2.8 1.5-1 1.4-1 3.5v8.4H398V48.7h3.2zm21.8 0h3.6L415.2 73h-3.6l5.5-11.7-6.3-12.7h3.7l4.3 9 4.2-9z" font-size="36" font-family="GillSans" fill="#fff"/><path d="M492.5 70.3l13.1-15.7 4 3.3q2.3 2 2.7 4.3.4 2.4-1.2 4.4-1.2 1.4-2.7 1.8-1.5.4-3.2-.2.3 1.1.3 2.6t-.5 4.7l-.3 3-.1 1.9-2.7-2.2.2-1.6v-1.4l.3-1.7.3-1.8V69q0-1-.3-1.7t-1.4-1.6l-.6-.5-5.7 6.8-2.2-1.8zm14.4-11.4l-.6-.5-4.2 5 .9.6q1.7 1.5 2.5 1.7 1 .2 1.8 0 .8-.3 1.5-1 .6-.8.7-1.8.1-.9-.4-1.7-.5-.9-2.2-2.3zM519 84l-7.2-6q-1.2 1.5-1 3.1.1 1.7 1.6 2.9 2 1.7 4.8 1.9l-1.7 2q-1.5-.2-2.6-.7-1.2-.5-2.4-1.6-1.7-1.4-2.2-3-.4-1.6 0-3.3.3-1.7 1.6-3.3 2-2.4 4.6-2.7 2.5-.4 4.7 1.4 2 1.7 2 4.2t-2 4.9l-.2.2zm-6.2-7.2L518 81q1-1.3.9-2.5-.1-1.2-1.2-2.1-1.1-1-2.4-.9-1.2.1-2.5 1.2zm-.3 19.2l13-15.6 3.6 3q2.8 2.3 3.2 5 .4 2.7-1.7 5.1-2 2.3-4.7 2.6-2.6.3-4.9-1.6-1-.8-1.8-2.2l-4.6 5.5-2.1-1.8zm15-10.7l-1.5-1.2-5.3 6.3q.6 1.3 1.6 2.2 1.4 1.2 3.2 1 1.7-.3 3-1.8.9-1 1.1-2.2.2-1.1-.2-2.1-.5-1-1.9-2.2zm14.2-.4l2 1.7-13 15.7-2.1-1.7 13.1-15.7zM547 91q.5.4.5 1 .1.7-.3 1.2t-1.1.6q-.7 0-1.2-.4-.4-.4-.5-1 0-.7.4-1.2t1-.5q.7-.1 1.2.3zm-4.7 3.5l2 1.7-8.6 10.3-2-1.7 8.6-10.3zm6.1 18.5l-1.7 2.1q-2-.7-3.5-2-2.4-2-2.7-4.6-.2-2.7 1.8-5 2-2.5 4.7-2.8 2.7-.4 5 1.6.8.6 1.3 1.3.5.7 1 1.9l-1.8 2.2q-.7-2.3-2-3.4-1.4-1.2-3-1-1.8.3-3 1.8-1.4 1.6-1.2 3.3.2 1.7 1.8 3.1 1.2 1 3.3 1.6zm12 3.7l-3.7 4.4q-.5.5-.1.8.4.3 1.6.4l-1 1.3-1.7-.4-1-.5q-1.3-1.1-.7-2.4-2.1 0-3.6-1.3-1-.9-1.2-2.2 0-1.3.8-2.4.8-1 2.2-1.2 1.3-.1 3 .5l3.4 1.3.4-.6q1.6-1.8-.3-3.4-1.6-1.4-4.7-1l1.9-2.2q2.4-.4 4.6 1.4 1.7 1.4 2 3.2v1.2l-.5 1.2q-.3.6-1.4 1.9zm-5.5 2.4l2.5-3-1.8-.6q-1.4-.5-2.2-.4-.7 0-1.3.6-.5.7-.4 1.4 0 .8.7 1.3 1 .8 2.5.7zm9.4-3.3l7-.6-1.7 2.2 3.2 2.7-1.5 1.8-3.3-2.7-4.2 5q-1.5 1.8 0 3 1 1 2.9 1.3l-1.6 1.9q-1.7-.3-3.1-1.5-1.4-1.2-1.7-2.8v-1q0-.4.4-1l1.4-2 3.9-4.6-1.8-1.5.1-.2zm15.2 2.5q.5.5.6 1.1 0 .7-.3 1.2-.5.5-1.1.5-.7 0-1.2-.3-.5-.4-.5-1.1 0-.7.3-1.2.4-.4 1.1-.5.7 0 1.1.3zm-4.6 3.5l2 1.8-8.6 10.3-2-1.7 8.6-10.4zm9.9 8.3q2.4 2 2.7 4.9.2 2.8-1.7 5-1.9 2.3-4.7 2.5-2.8.1-5.2-1.9-2.3-2-2.6-4.8-.3-2.8 1.6-5 1.9-2.3 4.7-2.5 2.8-.2 5.2 1.8zm-1.6 1.8q-1.5-1.2-3.3-1-1.7.1-3 1.6-1.2 1.5-1 3.2.2 1.8 1.7 3 1.5 1.3 3.2 1.2 1.8-.2 3-1.7 1.3-1.4 1-3.2-.1-1.8-1.6-3.1zm11.4 6.5l-1.1 1.3q2.6-.4 4.3 1 1 .9 1.4 2 .4 1.3.1 2.5-.3 1.2-1.8 3.1l-5 6-2-1.8 4.9-5.9q1.3-1.6 1.4-2.6.1-1.1-1-2-1.5-1.3-3.7-.7l-6.2 7.4-2-1.8 8.6-10.3 2 1.8z" font-size="30" font-family="GillSans" fill="#2a86c0"/><g stroke="#2a86c0" stroke-width="8"><path d="M480 77.5l121.4 101.8" fill="none"/><path d="M596.8 184.8l19.3 6.8-10-17.9z" fill="#2a86c0"/></g><path d="M324.8 211.5h3V232h-3v-9h-11.5v9h-2.9v-20.5h3v8.9h11.4v-8.9zm18.6 14h-9.5q.1 2 1.3 3 1.2 1.2 3 1.2 2.7 0 5-1.6v2.6q-1.3.8-2.5 1.2-1.2.3-2.8.3-2.2 0-3.6-1-1.4-.8-2.2-2.4-.9-1.6-.9-3.6 0-3 1.8-5 1.7-2 4.5-2 2.7 0 4.3 2 1.6 1.8 1.6 5v.3zm-9.4-1.6h6.8q-.1-1.6-1-2.5-.8-.8-2.3-.8-1.4 0-2.3.8-1 .9-1.2 2.5zm20.7 0v5.7q0 .7.5.7t1.5-.7v1.6q-.9.6-1.5.8-.5.2-1.1.2-1.7 0-2-1.3-1.7 1.3-3.6 1.3-1.4 0-2.4-1-1-.9-1-2.3 0-1.2 1-2.2 1-1 2.6-1.6l3.4-1.2v-.7q0-2.4-2.4-2.4-2.2 0-4.3 2.2v-3q1.6-1.7 4.5-1.7 2.2 0 3.5 1.1l.8 1 .4 1.2.1 2.3zm-2.6 5.4v-4l-1.8.7q-1.3.6-2 1.1-.5.6-.5 1.4 0 .8.6 1.3.5.6 1.3.6 1.3 0 2.4-1zm9.9-10.8v3.1l.1-.2q2-3.1 3.9-3.1 1.5 0 3.1 1.5l-1.4 2.3q-1.4-1.3-2.6-1.3-1.3 0-2.2 1.2-1 1.3-1 3v7h-2.6v-13.5h2.7zm7.7 2.2l5-5v2.8h4.3v2.4h-4.3v6.6q0 2.3 2 2.3 1.3 0 3-1v2.6q-1.6.8-3.4.8-1.8 0-3-1l-.7-.8-.4-1q-.2-.7-.2-2.5v-6h-2.3v-.2zm11.8-9.2h2.6v8q1.8-1.3 3.7-1.3 2.6 0 4.2 2 1.7 1.9 1.7 5 0 3.2-2 5.1-2 2-5.2 2-1.3 0-2.7-.3-1.5-.3-2.3-.7v-19.8zM384 222v7.3q1.4.4 2.8.4 1.8 0 3-1.2 1-1.3 1-3.3 0-2-1-3.2-1-1.3-2.7-1.3-1.5 0-3 1.3zm24 3.5h-9.4q.1 2 1.3 3 1.2 1.2 3 1.2 2.7 0 5-1.6v2.6q-1.3.8-2.5 1.2-1.2.3-2.8.3-2.3 0-3.6-1-1.4-.8-2.2-2.4-.9-1.6-.9-3.6 0-3 1.8-5 1.7-2 4.5-2 2.7 0 4.3 2 1.6 1.8 1.6 5v.3zm-9.3-1.6h6.7q0-1.6-1-2.5-.8-.8-2.2-.8-1.4 0-2.4.8-.9.9-1.1 2.5zm20.7 0v5.7q0 .7.5.7t1.5-.7v1.6l-1.5.8q-.5.2-1.1.2-1.7 0-2-1.3-1.7 1.3-3.7 1.3-1.4 0-2.3-1-1-.9-1-2.3 0-1.2 1-2.2.9-1 2.6-1.6l3.4-1.2v-.7q0-2.4-2.4-2.4-2.2 0-4.3 2.2v-3q1.6-1.7 4.5-1.7 2.2 0 3.5 1.1l.8 1 .4 1.2.1 2.3zm-2.6 5.4v-4l-1.8.7q-1.4.6-2 1.1-.5.6-.5 1.4 0 .8.5 1.3.6.6 1.4.6 1.3 0 2.4-1zm5.1-8.6l5-5v2.8h4.3v2.4h-4.3v6.6q0 2.3 2 2.3 1.4 0 3-1v2.6q-1.6.8-3.4.8-1.8 0-3-1l-.7-.8-.4-1q-.2-.7-.2-2.5v-6H422v-.2z" font-size="30" font-family="GillSans" fill="#4f4c4b"/><g stroke="#4f4c4b" stroke-width="4"><path d="M246.5 237.5h247.2" fill="none"/><path d="M246.5 232.7l-12.8 4.8 12.8 4.8zm247.2 9.6l12.8-4.8-12.8-4.8z" fill="#4f4c4b"/></g></svg>