<svg width="1244" height="1349" viewBox="0 0 1244 1349" fill="none" xmlns="http://www.w3.org/2000/svg">
<rect width="1244" height="1349" fill="white"/>
<rect width="597.408" height="83.3361" transform="matrix(0.921185 0.389124 0.00174531 0.999998 71.8618 1031.39)" fill="#EBFAFF"/>
<rect width="597.498" height="83.4054" transform="matrix(0.920505 -0.390731 0 1 622.139 1265.59)" fill="#EBFAFF"/>
<path d="M1172.14 1031V1116M622.138 1263V1348M72.1382 1031V1116M72.3325 1115.54L622.333 1347.54M621.944 1347.54L1171.94 1115.54M1172.14 1031.5L621.814 1263.36L72.1382 1031.5L621.814 799L1172.14 1031.5Z" stroke="black" stroke-linejoin="round"/>
<path d="M113.862 620.707V1023.6C113.862 1038.2 136.25 1050.08 163.862 1050.08C191.474 1050.08 213.862 1038.25 213.862 1023.6V620.707H113.901H113.862Z" fill="#E1F7FF" stroke="black" stroke-width="2" stroke-linecap="round" stroke-linejoin="round"/>
<path d="M163.579 637.439C190.735 637.439 212.749 629.953 212.749 620.719C212.749 611.486 190.735 604 163.579 604C136.424 604 114.41 611.486 114.41 620.719C114.41 629.953 136.424 637.439 163.579 637.439Z" fill="#00684A" stroke="black" stroke-width="2" stroke-linejoin="round"/>
<path d="M342.861 698.396V1101.29C342.861 1115.89 365.249 1127.77 392.861 1127.77C420.473 1127.77 442.861 1115.94 442.861 1101.29V698.396H342.901H342.861Z" fill="#E1F7FF" stroke="black" stroke-width="2" stroke-linecap="round" stroke-linejoin="round"/>
<path d="M392.579 715.127C419.734 715.127 441.748 707.641 441.748 698.408C441.748 689.174 419.734 681.688 392.579 681.688C365.423 681.688 343.409 689.174 343.409 698.408C343.409 707.641 365.423 715.127 392.579 715.127Z" fill="#00684A" stroke="black" stroke-width="2" stroke-linejoin="round"/>
<path d="M800.861 698.396V1101.29C800.861 1115.89 823.249 1127.77 850.861 1127.77C878.473 1127.77 900.861 1115.94 900.861 1101.29V698.396H800.901H800.861Z" fill="#E1F7FF" stroke="black" stroke-width="2" stroke-linecap="round" stroke-linejoin="round"/>
<path d="M850.579 715.127C877.734 715.127 899.748 707.641 899.748 698.408C899.748 689.174 877.734 681.688 850.579 681.688C823.423 681.688 801.409 689.174 801.409 698.408C801.409 707.641 823.423 715.127 850.579 715.127Z" fill="#00684A" stroke="black" stroke-width="2" stroke-linejoin="round"/>
<path d="M571.861 793.626V1196.52C571.861 1211.12 594.249 1223 621.861 1223C649.473 1223 671.861 1211.17 671.861 1196.52V793.626H571.901H571.861Z" fill="#E1F7FF" stroke="black" stroke-width="2" stroke-linecap="round" stroke-linejoin="round"/>
<path d="M1029.86 620.707V1023.6C1029.86 1038.2 1052.25 1050.08 1079.86 1050.08C1107.47 1050.08 1129.86 1038.25 1129.86 1023.6V620.707H1029.9H1029.86Z" fill="#E1F7FF" stroke="black" stroke-width="2" stroke-linecap="round" stroke-linejoin="round"/>
<path d="M1079.58 637.439C1106.73 637.439 1128.75 629.953 1128.75 620.719C1128.75 611.486 1106.73 604 1079.58 604C1052.42 604 1030.41 611.486 1030.41 620.719C1030.41 629.953 1052.42 637.439 1079.58 637.439Z" fill="#00684A" stroke="black" stroke-width="2" stroke-linejoin="round"/>
<path d="M1171.86 536V621" stroke="black" stroke-miterlimit="10"/>
<path d="M621.861 768V853" stroke="black" stroke-miterlimit="10"/>
<path d="M71.8618 536V621" stroke="black" stroke-miterlimit="10"/>
<path d="M1171.86 536.496L621.538 768.361L71.8618 536.496L621.538 304L1171.86 536.496Z" fill="white" stroke="black" stroke-linecap="round" stroke-linejoin="round"/>
<line x1="72.0561" y1="620.539" x2="622.056" y2="852.539" stroke="black"/>
<line x1="621.667" y1="852.539" x2="1171.67" y2="620.539" stroke="black"/>
<rect width="597.408" height="83.3361" transform="matrix(0.921185 0.389124 0.00174531 0.999998 71.8618 536.386)" fill="#EBFAFF"/>
<rect width="597.498" height="83.4054" transform="matrix(0.920505 -0.390731 0 1 622.139 770.594)" fill="#EBFAFF"/>
<path d="M1172.14 536V621M622.138 768V853M72.1382 536V621M72.3325 620.539L622.333 852.539M621.944 852.539L1171.94 620.539M1172.14 536.496L621.814 768.361L72.1382 536.496L621.814 304L1172.14 536.496Z" stroke="black" stroke-linejoin="round"/>
<g clip-path="url(#clip0_6_603)">
<path d="M333.097 201.363L347.511 211.297L361.936 221.232L346.115 228.738L330.293 236.243L331.7 218.803L333.097 201.363Z" fill="white" stroke="black" stroke-width="1.13506" stroke-linecap="round" stroke-linejoin="round"/>
<path d="M341.531 219.103L330.293 236.243L361.936 221.232L341.531 219.103Z" fill="black"/>
<path d="M341.531 219.103L333.098 201.363" stroke="black" stroke-width="1.13506" stroke-linecap="round" stroke-linejoin="round"/>
<path d="M414.286 123.662H819.345C831.204 123.662 840.837 133.286 840.837 145.134V448.743H392.794V145.134C392.794 133.286 402.428 123.662 414.286 123.662Z" fill="#011F2B"/>
<path d="M401.713 111.111H806.638C818.496 111.111 828.13 120.725 828.13 132.583V436.182H380.221V132.573C380.221 120.725 389.844 111.101 401.713 111.101V111.111Z" fill="#F3FFFD"/>
<path d="M598.349 175.362H620.866C621.332 175.362 621.704 175.734 621.704 176.2V180.283C621.704 180.748 621.332 181.121 620.866 181.121H612.919C612.702 181.121 612.484 181.203 612.329 181.369L607.683 186.011C607.528 186.166 607.311 186.259 607.093 186.259H603.71C603.492 186.259 603.275 186.176 603.12 186.011L598.132 181.028C597.998 180.893 597.905 180.707 597.894 180.511L597.522 176.272C597.48 175.786 597.863 175.362 598.349 175.362Z" fill="#00ED64"/>
<path d="M622.242 281.503H618.703C618.24 281.503 617.865 281.878 617.865 282.341V284.553C617.865 285.016 618.24 285.391 618.703 285.391H622.242C622.705 285.391 623.08 285.016 623.08 284.553V282.341C623.08 281.878 622.705 281.503 622.242 281.503Z" fill="#00ED64"/>
<path d="M598.525 270.431H595.876C595.413 270.431 595.038 270.806 595.038 271.269V274.949C595.038 275.412 595.413 275.787 595.876 275.787H598.525C598.988 275.787 599.363 275.412 599.363 274.949V271.269C599.363 270.806 598.988 270.431 598.525 270.431Z" fill="#00ED64"/>
<path d="M827.291 212.352H824.083C823.866 212.352 823.649 212.269 823.494 212.104L814.957 203.575C814.802 203.42 814.584 203.327 814.367 203.327H786.946C786.728 203.327 786.511 203.244 786.356 203.078L778.699 195.428C778.543 195.273 778.326 195.18 778.109 195.18H697.552C697.335 195.18 697.118 195.263 696.962 195.428L684.897 207.482C684.742 207.638 684.525 207.731 684.307 207.731H671.642C671.424 207.731 671.207 207.813 671.052 207.979L666.406 212.621C666.251 212.776 666.033 212.869 665.816 212.869H654.03C653.813 212.869 653.595 212.951 653.44 213.117L644.386 222.163C644.231 222.318 644.013 222.411 643.796 222.411H637.225C637.008 222.411 636.791 222.328 636.636 222.163L632.476 218.007C632.155 217.686 632.155 217.159 632.476 216.828L634.638 214.667C634.959 214.347 635.497 214.347 635.818 214.667L638.943 217.79C639.098 217.945 639.316 218.038 639.533 218.038H643.01C643.475 218.038 643.848 217.665 643.848 217.2V213.137C643.848 212.92 643.765 212.703 643.6 212.548L638.105 207.059C637.95 206.904 637.732 206.811 637.515 206.811H613.436C613.219 206.811 613.001 206.893 612.846 207.059L592.213 227.673C592.058 227.828 591.965 228.045 591.965 228.262V234.889C591.965 235.106 592.058 235.323 592.213 235.478L594.376 237.639C594.696 237.959 595.224 237.959 595.555 237.639L598.877 234.32C599.198 234 599.725 234 600.057 234.32L601.35 235.612C601.505 235.767 601.598 235.985 601.598 236.202V239.138C601.598 239.355 601.691 239.572 601.847 239.727L604.154 242.032C604.475 242.353 605.003 242.353 605.334 242.032L608.335 239.034C608.49 238.879 608.583 238.662 608.583 238.445V229.275C608.583 229.058 608.666 228.841 608.831 228.686L618.506 219.02C618.827 218.699 619.355 218.699 619.686 219.02L622.19 221.522C622.511 221.842 622.511 222.38 622.19 222.7L616.53 228.355C616.375 228.51 616.282 228.727 616.282 228.944V242.591C616.282 242.808 616.199 243.025 616.033 243.18L609.783 249.424C609.628 249.579 609.411 249.672 609.194 249.672H591.333C591.116 249.672 590.899 249.755 590.744 249.92L584.359 256.299C584.204 256.454 583.987 256.547 583.769 256.547H578.606C578.14 256.547 577.768 256.919 577.768 257.384V258.449C577.768 258.666 577.85 258.883 578.016 259.038L582.228 263.246C582.383 263.401 582.476 263.618 582.476 263.835V267.144C582.476 267.609 582.103 267.981 581.638 267.981H572.832C572.615 267.981 572.397 268.064 572.242 268.229L569.914 270.555C569.759 270.71 569.665 270.927 569.665 271.144V276.5C569.665 276.717 569.748 276.934 569.914 277.089L572.925 280.097C573.08 280.252 573.173 280.469 573.173 280.686V285.163C573.173 285.38 573.091 285.576 572.946 285.731L558.097 301.497C557.952 301.652 557.869 301.859 557.869 302.066V320.116C557.869 320.333 557.952 320.55 558.117 320.705L569.717 332.294C569.872 332.449 570.09 332.542 570.307 332.542H596.838C597.304 332.542 597.677 332.914 597.677 333.38V341.981C597.677 342.198 597.77 342.415 597.925 342.57L604.34 348.98C604.496 349.135 604.589 349.352 604.589 349.569V372.044C604.589 372.261 604.672 372.478 604.837 372.633L608.542 376.334C608.697 376.489 608.79 376.707 608.79 376.924V392.793C608.79 393.01 608.883 393.227 609.038 393.382L612.598 396.938C612.753 397.093 612.97 397.186 613.188 397.186H620.379C620.597 397.186 620.814 397.104 620.969 396.938L631.244 386.672C631.4 386.517 631.493 386.3 631.493 386.083V373.719C631.493 373.502 631.586 373.285 631.741 373.13L642.648 362.233C642.803 362.078 642.896 361.861 642.896 361.644V345.62C642.896 345.403 642.979 345.186 643.144 345.031L657.31 330.878C657.465 330.723 657.559 330.506 657.559 330.289V323.6C657.559 323.135 657.186 322.762 656.72 322.762H649.374C649.156 322.762 648.939 322.68 648.784 322.514L629.972 303.709C629.651 303.389 629.651 302.851 629.972 302.531L634.545 297.961C634.866 297.641 635.394 297.641 635.725 297.961L656.079 318.296C656.4 318.617 656.938 318.617 657.258 318.296L667.347 308.217C667.668 307.896 667.668 307.359 667.347 307.038L654.972 294.674C654.651 294.353 654.651 293.816 654.972 293.495L658.148 290.322C658.469 290.001 658.997 290.001 659.328 290.322L669.841 300.825C669.996 300.98 670.214 301.073 670.431 301.073H682.238C682.455 301.073 682.672 301.156 682.827 301.321L692.12 310.605C692.275 310.76 692.368 310.977 692.368 311.194V316.663C692.368 316.88 692.451 317.097 692.616 317.252L696.776 321.408C696.931 321.563 697.024 321.78 697.024 321.997V325.378C697.024 325.843 697.397 326.215 697.863 326.215H702.157C702.623 326.215 702.995 325.843 702.995 325.378V308.155C702.995 307.69 703.368 307.317 703.833 307.317H722.718C722.935 307.317 723.152 307.4 723.308 307.565L731.617 315.867C731.772 316.022 731.865 316.239 731.865 316.456V330.144C731.865 330.361 731.948 330.578 732.113 330.733L736.998 335.613C737.318 335.933 737.856 335.933 738.177 335.613L740.164 333.628C740.485 333.307 740.485 332.77 740.164 332.449L737.722 330.009C737.401 329.689 737.401 329.151 737.722 328.831L747.821 318.741C747.976 318.586 748.07 318.369 748.07 318.152V315.061C748.07 314.595 747.697 314.223 747.231 314.223H742.658C742.192 314.223 741.82 313.851 741.82 313.386V307.824C741.82 307.359 742.192 306.987 742.658 306.987H755.954C756.172 306.987 756.389 306.904 756.544 306.738L762.96 300.329C763.115 300.174 763.208 299.957 763.208 299.74V288.605C763.208 288.388 763.125 288.171 762.96 288.016L761.666 286.724C761.346 286.403 761.346 285.866 761.666 285.545L766.581 280.635C766.737 280.48 766.83 280.263 766.83 280.045V279.063C766.83 278.598 766.457 278.226 765.992 278.226H763.581C763.115 278.226 762.743 277.854 762.743 277.389V274.804C762.743 274.339 763.115 273.967 763.581 273.967H767.461C767.678 273.967 767.896 274.049 768.051 274.215L773.835 279.994C773.99 280.149 774.084 280.366 774.084 280.583V285.08C774.084 285.824 774.984 286.197 775.512 285.669L777.933 283.25C778.088 283.095 778.181 282.878 778.181 282.661V273.512C778.181 273.295 778.264 273.078 778.43 272.923L792.358 259.007C792.513 258.852 792.606 258.635 792.606 258.418V252.463C792.606 252.246 792.523 252.029 792.358 251.874L789.274 248.793C788.953 248.473 788.953 247.946 789.274 247.615L802.84 234.062C802.995 233.907 803.212 233.814 803.43 233.814H813.715C813.932 233.814 814.15 233.731 814.305 233.565L827.964 219.919C828.119 219.764 828.212 219.547 828.212 219.33V213.189C828.212 212.724 827.84 212.352 827.374 212.352H827.291ZM638.198 287.83C638.198 288.047 638.115 288.264 637.95 288.419L635.756 290.611C635.601 290.766 635.383 290.859 635.166 290.859H603.595C603.378 290.859 603.161 290.776 603.006 290.611L594.158 281.772C594.003 281.617 593.786 281.524 593.569 281.524H582.217C581.752 281.524 581.379 281.152 581.379 280.686V279.725C581.379 279.508 581.472 279.291 581.627 279.136L593.62 267.154C593.776 266.999 593.993 266.906 594.21 266.906H598.049C598.266 266.906 598.484 266.988 598.639 267.154L604.423 272.933C604.744 273.253 604.744 273.791 604.423 274.111L601.909 276.624C601.588 276.944 601.588 277.482 601.909 277.802L605.789 281.679C606.11 281.999 606.638 281.999 606.969 281.679L612.432 276.22C612.753 275.9 612.753 275.373 612.432 275.042L604.361 266.978C604.04 266.658 604.04 266.12 604.361 265.8L605.82 264.342C606.141 264.021 606.669 264.021 607 264.342L615.64 272.974C615.795 273.129 615.888 273.346 615.888 273.563V278.164C615.888 278.629 616.261 279.001 616.727 279.001H619.376C619.841 279.001 620.214 278.629 620.214 278.164V274.494C620.214 273.75 621.114 273.377 621.642 273.905L625.512 277.771C625.667 277.926 625.76 278.143 625.76 278.36V280.811C625.76 281.276 626.133 281.648 626.598 281.648H635.735C635.953 281.648 636.17 281.731 636.325 281.896L637.96 283.529C638.115 283.684 638.208 283.902 638.208 284.119V287.83H638.198ZM646.88 270.845C646.88 271.31 646.507 271.682 646.042 271.682H640.226C640.009 271.682 639.792 271.599 639.636 271.434L637.153 268.953C636.998 268.798 636.78 268.705 636.563 268.705H631.638C631.42 268.705 631.203 268.787 631.048 268.953L629.392 270.607C629.237 270.762 629.02 270.855 628.802 270.855H624.643C624.177 270.855 623.804 270.483 623.804 270.018V267.474C623.804 267.257 623.887 267.04 624.053 266.885L628.295 262.646C628.451 262.491 628.668 262.398 628.885 262.398H640.485C640.702 262.398 640.919 262.481 641.075 262.646L646.621 268.188C646.776 268.343 646.869 268.56 646.869 268.777V270.845H646.88ZM667.927 276.665L662.981 281.607C662.66 281.927 662.132 281.927 661.801 281.607L657.869 277.678C657.714 277.523 657.621 277.306 657.621 277.089V271.579C657.621 271.361 657.538 271.144 657.372 270.989L653.016 266.637C652.85 266.472 652.768 266.244 652.768 266.017L652.788 265.469C652.788 265.262 652.881 265.066 653.037 264.911L656.306 261.644C656.462 261.489 656.679 261.396 656.896 261.396H662.763C663.229 261.396 663.602 261.768 663.602 262.233V265.303C663.602 265.52 663.519 265.738 663.353 265.893L661.439 267.805C661.118 268.126 661.118 268.653 661.439 268.984L667.927 275.466C668.248 275.786 668.248 276.313 667.927 276.644V276.665Z" fill="#00ED64"/>
<path d="M577.664 233.896L575.026 236.533C574.87 236.688 574.777 236.905 574.777 237.122V240.906C574.777 241.123 574.86 241.34 575.026 241.495L578.492 244.958C578.813 245.279 578.813 245.816 578.492 246.137L576.526 248.101C576.371 248.256 576.278 248.473 576.278 248.69V250.944C576.278 251.409 576.65 251.781 577.116 251.781H584.101C584.318 251.781 584.535 251.699 584.69 251.533L586.201 250.024C586.356 249.869 586.45 249.652 586.45 249.435V246.664C586.45 246.447 586.367 246.23 586.201 246.075L582 241.877C581.845 241.722 581.752 241.505 581.752 241.288V234.506C581.752 234.041 581.379 233.669 580.914 233.669H578.244C578.027 233.669 577.809 233.752 577.654 233.917L577.664 233.896Z" fill="#00ED64"/>
<path d="M570.441 244.72L568.434 246.726C568.279 246.881 568.186 247.098 568.186 247.315V250.468C568.186 250.934 568.558 251.306 569.024 251.306H571.031C571.497 251.306 571.869 250.934 571.869 250.468V245.299C571.869 244.555 570.969 244.183 570.441 244.71V244.72Z" fill="#00ED64"/>
<path d="M677.363 184.698L661.604 200.442C661.449 200.597 661.355 200.815 661.355 201.032V203.823C661.355 204.04 661.438 204.257 661.604 204.412L664.563 207.369C664.884 207.689 665.422 207.689 665.743 207.369L668.526 204.588C668.847 204.267 668.847 203.73 668.526 203.409L666.716 201.6C666.395 201.28 666.395 200.742 666.716 200.422L678.543 188.605C678.698 188.45 678.915 188.357 679.133 188.357H686.862C687.328 188.357 687.701 187.985 687.701 187.52V185.266C687.701 184.801 687.328 184.429 686.862 184.429H677.953C677.736 184.429 677.519 184.511 677.363 184.677V184.698Z" fill="#00ED64"/>
<path d="M656.586 360.114L648.328 368.364C648.173 368.519 648.08 368.736 648.08 368.953V381.111C648.08 381.576 648.453 381.948 648.918 381.948H655.386C655.851 381.948 656.224 381.576 656.224 381.111V369.635C656.224 369.418 656.306 369.201 656.472 369.046L661.077 364.446C661.232 364.291 661.325 364.074 661.325 363.856V360.703C661.325 360.238 660.953 359.866 660.487 359.866H657.176C656.958 359.866 656.741 359.949 656.586 360.114Z" fill="#00ED64"/>
<path d="M708.665 328.976H704.971C704.508 328.976 704.133 329.351 704.133 329.813V334.052C704.133 334.514 704.508 334.889 704.971 334.889H708.665C709.128 334.889 709.503 334.514 709.503 334.052V329.813C709.503 329.351 709.128 328.976 708.665 328.976Z" fill="#00ED64"/>
<path d="M724.312 334.083V335.757C724.312 335.974 724.394 336.192 724.56 336.347L727.799 339.582C727.954 339.737 728.047 339.955 728.047 340.172V344.193C728.047 344.41 728.13 344.627 728.295 344.782L738.043 354.521C738.364 354.841 738.902 354.841 739.223 354.521L743.517 350.231C743.672 350.076 743.765 349.858 743.765 349.641V343.346C743.765 342.88 743.393 342.508 742.927 342.508H735.911C735.694 342.508 735.477 342.425 735.321 342.26L726.536 333.483C726.381 333.328 726.164 333.235 725.936 333.235H725.15C724.694 333.235 724.322 333.617 724.322 334.072L724.312 334.083Z" fill="#00ED64"/>
<path d="M758.439 330.495L747.801 341.123C747.48 341.443 747.48 341.981 747.801 342.301L754.434 348.928C754.589 349.083 754.806 349.176 755.024 349.176H758.097C758.563 349.176 758.935 348.804 758.935 348.339V339.593C758.935 339.376 759.018 339.159 759.184 339.004L764.306 333.886C764.626 333.566 764.626 333.028 764.306 332.708L762.112 330.516C761.957 330.361 761.75 330.268 761.522 330.268H759.039C758.821 330.258 758.604 330.34 758.449 330.506L758.439 330.495Z" fill="#00ED64"/>
<path d="M764.398 312.352V318.152C764.398 318.369 764.481 318.586 764.646 318.741L767.978 322.07C768.134 322.225 768.227 322.442 768.227 322.659V329.1C768.227 329.317 768.309 329.534 768.475 329.689L769.593 330.806C769.748 330.961 769.965 331.054 770.182 331.054H773.721C774.187 331.054 774.559 330.682 774.559 330.216V325.606C774.559 325.389 774.477 325.171 774.311 325.016L768.465 319.175C768.309 319.02 768.216 318.803 768.216 318.586V312.332C768.216 311.866 767.844 311.494 767.378 311.494H765.226C764.76 311.494 764.388 311.866 764.388 312.332L764.398 312.352Z" fill="#00ED64"/>
<path d="M768.257 338.218L762.908 343.563C762.752 343.718 762.659 343.935 762.659 344.152V348.101C762.659 348.318 762.742 348.535 762.908 348.691L764.232 350.014C764.387 350.169 764.605 350.262 764.822 350.262H766.933C767.398 350.262 767.771 349.89 767.771 349.425V344.193C767.771 343.976 767.854 343.759 768.019 343.604L771.331 340.296C771.486 340.141 771.579 339.924 771.579 339.707V338.807C771.579 338.342 771.206 337.97 770.741 337.97H768.857C768.64 337.97 768.423 338.053 768.268 338.218H768.257Z" fill="#00ED64"/>
<path d="M774.343 338.363V339.366C774.343 339.583 774.426 339.8 774.591 339.955L775.885 341.247C776.04 341.402 776.257 341.495 776.474 341.495H777.126C777.592 341.495 777.964 341.123 777.964 340.658V339.831C777.964 339.614 777.882 339.397 777.716 339.242L776.278 337.804C776.133 337.66 775.936 337.577 775.74 337.567L775.233 337.536C774.757 337.505 774.353 337.887 774.353 338.363H774.343Z" fill="#00ED64"/>
<path d="M770.1 352.598H745.297C744.834 352.598 744.459 352.973 744.459 353.436V356.775C744.459 357.237 744.834 357.612 745.297 357.612H770.1C770.563 357.612 770.939 357.237 770.939 356.775V353.436C770.939 352.973 770.563 352.598 770.1 352.598Z" fill="#00ED64"/>
<path d="M781.379 342.653L780.303 343.728C779.982 344.049 779.982 344.586 780.303 344.907L782.507 347.109C782.662 347.264 782.88 347.357 783.097 347.357H788.219C788.436 347.357 788.654 347.44 788.809 347.605L791.209 350.003C791.365 350.159 791.458 350.376 791.458 350.593V354.273C791.458 354.738 791.83 355.11 792.296 355.11H801.547C801.764 355.11 801.981 355.193 802.137 355.359L806.731 359.949C807.052 360.269 807.59 360.269 807.911 359.949L809.939 357.922C810.26 357.602 810.26 357.064 809.939 356.744L799.074 345.889C798.919 345.734 798.701 345.641 798.484 345.641H791.717C791.499 345.641 791.282 345.558 791.127 345.393L788.395 342.663C788.24 342.508 788.022 342.415 787.805 342.415H781.969C781.752 342.415 781.534 342.498 781.379 342.653Z" fill="#00ED64"/>
<path d="M768.258 301.787L766.167 303.875C765.847 304.195 765.847 304.733 766.167 305.053L767.378 306.263C767.699 306.583 768.237 306.583 768.558 306.263L770.876 303.947C771.031 303.792 771.124 303.575 771.124 303.358V302.365C771.124 301.9 770.751 301.528 770.286 301.528H768.847C768.63 301.528 768.413 301.611 768.258 301.776V301.787Z" fill="#00ED64"/>
<path d="M804.847 264.156V265.955C804.847 266.172 804.764 266.389 804.598 266.544L801.287 269.852C801.132 270.007 800.915 270.1 800.697 270.1H798.535C798.317 270.1 798.1 270.183 797.945 270.348L790.629 277.657C790.474 277.813 790.257 277.906 790.039 277.906H787.597C787.38 277.906 787.163 277.988 787.007 278.154L779.381 285.773C779.06 286.093 779.06 286.631 779.381 286.951L782.185 289.753C782.506 290.073 783.044 290.073 783.365 289.753L787.256 285.866C787.411 285.711 787.628 285.618 787.846 285.618H793.692C793.909 285.618 794.127 285.535 794.282 285.37L799.425 280.232C799.58 280.077 799.673 279.859 799.673 279.642V278.64C799.673 278.174 800.046 277.802 800.511 277.802H805.333C805.55 277.802 805.768 277.719 805.923 277.554L810.248 273.233C810.404 273.078 810.497 272.861 810.497 272.643V267.34C810.497 267.123 810.414 266.906 810.248 266.751L807.041 263.546C806.875 263.381 806.658 263.298 806.43 263.298L805.664 263.319C805.209 263.329 804.847 263.701 804.847 264.156Z" fill="#00ED64"/>
<path d="M813.653 347.005L812.37 348.287C812.215 348.442 811.997 348.535 811.78 348.535H807.9C807.434 348.535 807.062 348.908 807.062 349.373V351.316C807.062 351.782 807.434 352.154 807.9 352.154H817.823C818.289 352.154 818.661 351.782 818.661 351.316V347.605C818.661 347.14 818.289 346.768 817.823 346.768H814.232C814.015 346.768 813.798 346.85 813.643 347.016L813.653 347.005Z" fill="#00ED64"/>
<path d="M781.42 358.718L765.837 374.287C765.681 374.442 765.464 374.536 765.247 374.536H760.063C759.845 374.536 759.628 374.618 759.473 374.784L751.94 382.31C751.785 382.465 751.691 382.682 751.691 382.899V396.132C751.691 396.349 751.774 396.566 751.94 396.721L753.285 398.065C753.44 398.22 753.657 398.313 753.875 398.313H762.743C762.96 398.313 763.177 398.23 763.333 398.065L768.217 393.185C768.372 393.03 768.589 392.937 768.806 392.937H783.128C783.345 392.937 783.562 393.02 783.717 393.185L795.772 405.229C795.928 405.384 796.145 405.477 796.362 405.477H813.467C813.684 405.477 813.902 405.395 814.057 405.229L817.099 402.19C817.254 402.035 817.347 401.818 817.347 401.601V384.181C817.347 383.964 817.265 383.747 817.099 383.592L803.957 370.462C803.802 370.307 803.709 370.09 803.709 369.873V361.623C803.709 361.158 803.337 360.786 802.871 360.786H796.787C796.321 360.786 795.948 361.158 795.948 361.623V368.498C795.948 368.963 795.576 369.335 795.11 369.335H789.833C789.367 369.335 788.995 368.963 788.995 368.498V359.318C788.995 358.853 788.622 358.48 788.157 358.48H781.979C781.762 358.48 781.544 358.563 781.389 358.729L781.42 358.718Z" fill="#00ED64"/>
<path d="M802.746 414.492L803.864 415.609C804.185 415.929 804.723 415.929 805.044 415.609L808.138 412.518C808.293 412.363 808.386 412.146 808.386 411.929V410.688C808.386 410.223 808.013 409.851 807.548 409.851H803.336C802.871 409.851 802.498 410.223 802.498 410.688V413.903C802.498 414.12 802.581 414.337 802.746 414.492Z" fill="#00ED64"/>
<path d="M381.06 209.261H435.934C436.399 209.261 436.772 208.889 436.772 208.423V197.072C436.772 196.607 437.144 196.235 437.61 196.235H441.346C441.811 196.235 442.184 196.607 442.184 197.072V208.909C442.184 209.126 442.266 209.344 442.432 209.499L447.192 214.254C447.513 214.575 448.051 214.575 448.372 214.254L452.417 210.212C452.738 209.891 452.738 209.354 452.417 209.033L447.109 203.73C446.954 203.575 446.861 203.358 446.861 203.141V197.072C446.861 196.607 447.233 196.235 447.699 196.235H463.603C463.821 196.235 464.038 196.318 464.193 196.483L471.085 203.368C471.24 203.523 471.457 203.616 471.674 203.616H476.766C476.983 203.616 477.2 203.699 477.355 203.864L489.917 216.415C490.238 216.735 490.238 217.273 489.917 217.593L486.275 221.232C485.954 221.553 485.416 221.553 485.095 221.232L481.629 217.769C481.308 217.449 480.77 217.449 480.449 217.769L479.818 218.4C479.497 218.72 479.497 219.258 479.818 219.578L486.41 226.164C486.73 226.484 486.73 227.022 486.41 227.342L482.86 230.888C482.54 231.209 482.001 231.209 481.681 230.888L473.475 222.69C473.32 222.535 473.102 222.442 472.885 222.442H465.518C465.052 222.442 464.679 222.07 464.679 221.605V220.147C464.679 219.682 465.052 219.309 465.518 219.309H468.125C468.343 219.309 468.56 219.227 468.715 219.061L471.83 215.95C472.15 215.629 472.15 215.092 471.83 214.771L464.214 207.162C463.893 206.842 463.355 206.842 463.034 207.162L439.628 230.547C439.307 230.867 439.307 231.405 439.628 231.726L447.875 239.965C448.03 240.12 448.247 240.213 448.465 240.213H454.725C455.191 240.213 455.563 240.585 455.563 241.05V249.859C455.563 250.324 455.936 250.696 456.401 250.696H463.862C464.328 250.696 464.7 250.324 464.7 249.859V229.1C464.7 228.634 465.073 228.262 465.538 228.262H471.757C471.975 228.262 472.192 228.345 472.347 228.51L479.632 235.788C479.787 235.943 480.004 236.036 480.222 236.036H485.24C485.458 236.036 485.675 236.119 485.83 236.285L498.061 248.504C498.216 248.659 498.309 248.876 498.309 249.093V252.981C498.309 253.198 498.392 253.415 498.558 253.57L504.632 259.638C505.16 260.166 504.787 261.065 504.042 261.065H494.263C493.518 261.065 493.146 260.166 493.674 259.638L496.188 257.126C496.509 256.806 496.509 256.268 496.188 255.948L494.181 253.942C494.025 253.787 493.808 253.694 493.591 253.694H478.618C478.152 253.694 477.78 254.066 477.78 254.531V257.095C477.78 257.56 478.152 257.933 478.618 257.933H482.871C483.336 257.933 483.709 258.305 483.709 258.77V262.688C483.709 263.153 484.081 263.525 484.547 263.525H485.83C486.047 263.525 486.265 263.443 486.42 263.277L488.262 261.437C488.583 261.117 489.121 261.117 489.441 261.437L491.138 263.133C491.459 263.453 491.459 263.991 491.138 264.311L485.737 269.708C485.416 270.028 484.878 270.028 484.557 269.708L480.967 266.12C480.646 265.8 480.108 265.8 479.787 266.12L458.874 287.014C458.719 287.169 458.626 287.386 458.626 287.603V295.046C458.626 295.263 458.709 295.48 458.874 295.636L460.768 297.527C460.923 297.682 461.016 297.9 461.016 298.117V300.308C461.016 300.774 460.644 301.146 460.178 301.146H459.05C458.833 301.146 458.616 301.063 458.461 300.898L455.418 297.858C455.263 297.703 455.17 297.486 455.17 297.269V293.434C455.17 292.968 454.797 292.596 454.332 292.596H440.466C440.249 292.596 440.031 292.679 439.876 292.844L435.882 296.835C435.727 296.99 435.634 297.207 435.634 297.424V307.617C435.634 307.834 435.716 308.052 435.882 308.207L439.235 311.556C439.39 311.711 439.607 311.804 439.824 311.804H443.467C443.684 311.804 443.901 311.722 444.057 311.556L448.103 307.514C448.423 307.193 448.961 307.193 449.282 307.514L451.486 309.716C451.807 310.036 451.807 310.574 451.486 310.895L448.879 313.5C448.558 313.82 448.558 314.358 448.879 314.678L450.493 316.291C450.814 316.611 451.352 316.611 451.672 316.291L453.576 314.389C453.897 314.068 454.435 314.068 454.756 314.389L457.54 317.17C457.695 317.325 457.788 317.542 457.788 317.759V323.89C457.788 324.355 458.16 324.727 458.626 324.727H467.318C467.535 324.727 467.753 324.644 467.908 324.479L470.95 321.439C471.105 321.284 471.323 321.191 471.54 321.191H486.223C486.441 321.191 486.658 321.274 486.813 321.439L493.56 328.18C493.715 328.335 493.932 328.428 494.15 328.428H499.965C500.182 328.428 500.4 328.511 500.555 328.676L514.586 342.694C514.741 342.85 514.959 342.943 515.176 342.943H522.337C522.554 342.943 522.771 343.025 522.926 343.191L530.356 350.613C530.511 350.769 530.604 350.986 530.604 351.203V355.793C530.604 356.01 530.522 356.227 530.356 356.382L524.913 361.82C524.758 361.975 524.665 362.192 524.665 362.409V368.281C524.665 368.498 524.582 368.715 524.417 368.871L513.179 380.098C513.024 380.253 512.931 380.47 512.931 380.687V386.931C512.931 387.148 512.848 387.365 512.682 387.52L485.52 414.658C485.364 414.813 485.271 415.03 485.271 415.247V419.548C485.271 419.765 485.189 419.982 485.023 420.137L478.266 426.888C478.111 427.043 478.018 427.26 478.018 427.477V435.406C478.018 435.872 477.645 436.244 477.179 436.244H473.413C473.196 436.244 472.978 436.161 472.823 435.996L470.474 433.649C470.319 433.494 470.226 433.277 470.226 433.06V401.591C470.226 401.373 470.309 401.156 470.474 401.001L473.258 398.22C473.413 398.065 473.506 397.848 473.506 397.631V366.751C473.506 366.534 473.423 366.317 473.258 366.162L464.4 357.313C464.245 357.157 464.152 356.94 464.152 356.723V353.684C464.152 353.219 463.779 352.846 463.314 352.846H459.423C458.957 352.846 458.585 352.474 458.585 352.009V347.677C458.585 347.212 458.957 346.84 459.423 346.84H463.593C464.059 346.84 464.431 346.468 464.431 346.003V331.571C464.431 331.354 464.348 331.136 464.183 330.981L462.217 329.017C461.896 328.697 461.358 328.697 461.037 329.017L459.526 330.527C459.371 330.682 459.154 330.775 458.937 330.775H454.901C454.684 330.775 454.466 330.692 454.311 330.527L442.36 318.586C442.204 318.431 441.987 318.338 441.77 318.338H431.96C431.743 318.338 431.526 318.255 431.37 318.09L423.092 309.819C422.937 309.664 422.844 309.447 422.844 309.23V305.271C422.844 305.054 422.761 304.836 422.596 304.681L410.53 292.627C410.375 292.472 410.158 292.379 409.94 292.379C409.195 292.379 408.823 293.278 409.351 293.806L416.47 300.918C416.625 301.073 416.718 301.29 416.718 301.508V304.257C416.718 304.723 416.346 305.095 415.88 305.095H412.714C412.496 305.095 412.279 305.012 412.124 304.847L409.278 302.004C409.123 301.849 408.906 301.756 408.688 301.756H405.387C404.922 301.756 404.549 301.384 404.549 300.918V292.441C404.549 292.224 404.466 292.007 404.301 291.852L399.934 287.489C399.779 287.334 399.686 287.117 399.686 286.9V277.895C399.686 277.678 399.603 277.461 399.437 277.306L394.584 272.458C394.429 272.302 394.336 272.085 394.336 271.868V259.99C394.336 259.773 394.253 259.556 394.088 259.401L385.903 251.223C385.748 251.068 385.53 250.975 385.313 250.975H381.039C380.574 250.975 380.201 250.603 380.201 250.138V210.078C380.201 209.612 380.574 209.24 381.039 209.24L381.06 209.261Z" fill="#00ED64"/>
<path d="M394.15 198.768L397.348 195.573C397.503 195.418 397.72 195.325 397.938 195.325H405.595C405.812 195.325 406.03 195.408 406.185 195.573L409.475 198.861C409.631 199.016 409.848 199.109 410.065 199.109H421.375C421.592 199.109 421.81 199.191 421.965 199.357L426.973 204.36C427.501 204.888 427.128 205.787 426.383 205.787H408.492C408.275 205.787 408.058 205.704 407.903 205.539L403.484 201.125C403.329 200.97 403.112 200.876 402.894 200.876H395.734C395.568 200.876 395.403 200.825 395.258 200.732L394.244 200.039C393.809 199.739 393.757 199.129 394.13 198.768H394.15Z" fill="#00ED64"/>
<path d="M420.608 188.75H406.411C405.948 188.75 405.573 189.125 405.573 189.587V191.49C405.573 191.952 405.948 192.327 406.411 192.327H420.608C421.071 192.327 421.447 191.952 421.447 191.49V189.587C421.447 189.125 421.071 188.75 420.608 188.75Z" fill="#00ED64"/>
<path d="M402.945 182.299L397.347 187.892C397.192 188.047 397.099 188.264 397.099 188.481V188.74C397.099 189.205 397.471 189.577 397.937 189.577H399.799C400.017 189.577 400.234 189.494 400.389 189.329L406.246 183.478C406.774 182.95 406.401 182.051 405.656 182.051H403.535C403.318 182.051 403.1 182.134 402.945 182.299Z" fill="#00ED64"/>
<path d="M411.202 180.293V183.612C411.202 184.077 411.575 184.449 412.04 184.449H413.53C413.748 184.449 413.965 184.367 414.12 184.201L416.066 182.258C416.386 181.937 416.386 181.4 416.066 181.079L414.751 179.766C414.596 179.611 414.4 179.528 414.193 179.518L412.071 179.456C411.606 179.446 411.212 179.818 411.212 180.293H411.202Z" fill="#00ED64"/>
<path d="M423.331 177.295L421.189 179.435C420.868 179.756 420.868 180.293 421.189 180.614L424.179 183.602C424.335 183.757 424.552 183.85 424.769 183.85H431.009C431.226 183.85 431.443 183.767 431.599 183.602L433.637 181.565C433.958 181.245 433.958 180.707 433.637 180.386L433.202 179.952C433.047 179.797 432.83 179.704 432.613 179.704H427.377C426.911 179.704 426.539 179.332 426.539 178.867V177.864C426.539 177.399 426.166 177.027 425.7 177.027H423.921C423.703 177.027 423.486 177.109 423.331 177.275V177.295Z" fill="#00ED64"/>
<path d="M432.074 187.768H425.483C425.02 187.768 424.645 188.143 424.645 188.605V190.59C424.645 191.053 425.02 191.427 425.483 191.427H432.074C432.537 191.427 432.912 191.053 432.912 190.59V188.605C432.912 188.143 432.537 187.768 432.074 187.768Z" fill="#00ED64"/>
<path d="M430.077 194.829L427.003 197.899C426.683 198.22 426.683 198.757 427.003 199.078L430.325 202.396C430.646 202.717 431.184 202.717 431.505 202.396L433.729 200.174C433.884 200.019 433.978 199.802 433.978 199.584V197.434C433.978 197.217 433.895 197 433.729 196.845L431.711 194.829C431.556 194.674 431.339 194.581 431.122 194.581H430.666C430.449 194.581 430.232 194.674 430.077 194.829Z" fill="#00ED64"/>
<path d="M436.317 184.863L435.52 185.659C435.199 185.979 435.199 186.517 435.52 186.837L436.203 187.52C436.358 187.675 436.575 187.768 436.793 187.768H439.307C439.524 187.768 439.742 187.85 439.897 188.016L444.833 192.947C444.988 193.102 445.205 193.195 445.423 193.195H460.934C461.399 193.195 461.772 192.823 461.772 192.358V190.569C461.772 190.104 461.399 189.732 460.934 189.732H447.885C447.668 189.732 447.451 189.649 447.296 189.484L442.649 184.842C442.494 184.687 442.277 184.594 442.06 184.594H436.896C436.679 184.604 436.462 184.697 436.306 184.852L436.317 184.863Z" fill="#00ED64"/>
<path d="M443.436 167.722L436.648 174.504C436.327 174.825 436.327 175.362 436.648 175.683L447.244 186.269C447.399 186.424 447.616 186.517 447.834 186.517H461.43C461.648 186.517 461.865 186.434 462.02 186.269L478.69 169.614C478.846 169.459 479.063 169.366 479.28 169.366H486.762C487.227 169.366 487.6 168.994 487.6 168.529V163.287C487.6 162.822 487.227 162.45 486.762 162.45H461.368C461.151 162.45 460.944 162.533 460.799 162.677L455.998 167.226C455.843 167.371 455.636 167.454 455.429 167.454H444.036C443.819 167.454 443.601 167.536 443.446 167.702L443.436 167.722Z" fill="#00ED64"/>
<path d="M486.513 176.437L495.691 167.267C495.846 167.112 496.064 167.019 496.281 167.019H561.006C561.471 167.019 561.844 167.391 561.844 167.857V173.78C561.844 173.997 561.761 174.215 561.595 174.37L553.824 182.134C553.669 182.289 553.576 182.506 553.576 182.723V194.312C553.576 194.529 553.493 194.746 553.328 194.901L549.892 198.333C549.737 198.488 549.644 198.706 549.644 198.923V206.056C549.644 206.273 549.561 206.49 549.395 206.645L544.18 211.856C544.025 212.011 543.808 212.104 543.59 212.104H535.374C535.157 212.104 534.94 212.186 534.785 212.352L515.041 232.077C514.72 232.397 514.182 232.397 513.862 232.077L500.451 218.679C500.296 218.524 500.203 218.307 500.203 218.089V196.576C500.203 196.359 500.12 196.142 499.954 195.987L492.359 188.398C492.204 188.243 491.987 188.15 491.769 188.15H475.006C474.54 188.15 474.168 187.778 474.168 187.313V177.574C474.168 177.12 474.54 176.747 474.996 176.737L485.913 176.665C486.13 176.665 486.337 176.572 486.492 176.417L486.513 176.437Z" fill="#00ED64"/>
<path d="M549.21 215.422L545.681 218.948C545.36 219.268 545.36 219.806 545.681 220.126L549.779 224.22C549.934 224.375 550.151 224.468 550.369 224.468H556.443C556.66 224.468 556.877 224.385 557.032 224.22L561.937 219.32C562.258 218.999 562.258 218.462 561.937 218.141L559.143 215.35C558.988 215.195 558.771 215.102 558.543 215.102L549.779 215.174C549.561 215.174 549.354 215.267 549.199 215.422H549.21Z" fill="#00ED64"/>
<path d="M452.345 220.953L450.907 222.39C450.586 222.711 450.586 223.248 450.907 223.569L452.976 225.636C453.131 225.791 453.349 225.884 453.566 225.884H458.823C459.288 225.884 459.661 225.512 459.661 225.047V221.542C459.661 221.077 459.288 220.705 458.823 220.705H452.935C452.717 220.705 452.5 220.788 452.345 220.953Z" fill="#00ED64"/>
<path d="M380.221 150.385H828.264" stroke="#001E2B" stroke-width="1.13506" stroke-linecap="round" stroke-linejoin="round"/>
<path d="M806.638 111.111H401.713C389.844 111.111 380.221 120.726 380.221 132.584V150.396H828.119V132.584C828.119 120.726 818.496 111.111 806.627 111.111H806.638Z" fill="#1EC75A" stroke="#011E2A" stroke-width="1.13506" stroke-linecap="round" stroke-linejoin="round"/>
<path d="M401.713 111.111H806.782C818.641 111.111 828.274 120.736 828.274 132.583V436.182H380.221V132.573C380.221 120.725 389.854 111.101 401.713 111.101V111.111Z" stroke="#001E2B" stroke-width="1.13506" stroke-linecap="round" stroke-linejoin="round"/>
<path d="M400.761 138.755C404.887 138.755 408.232 135.414 408.232 131.291C408.232 127.169 404.887 123.827 400.761 123.827C396.635 123.827 393.29 127.169 393.29 131.291C393.29 135.414 396.635 138.755 400.761 138.755Z" fill="#B1FF05" stroke="#011E2A" stroke-width="1.13506" stroke-linecap="round" stroke-linejoin="round"/>
<path d="M419.274 138.755C423.4 138.755 426.745 135.414 426.745 131.291C426.745 127.169 423.4 123.827 419.274 123.827C415.148 123.827 411.803 127.169 411.803 131.291C411.803 135.414 415.148 138.755 419.274 138.755Z" fill="#B1FF05" stroke="#011E2A" stroke-width="1.13506" stroke-linecap="round" stroke-linejoin="round"/>
<path d="M437.362 138.755C441.488 138.755 444.833 135.414 444.833 131.291C444.833 127.169 441.488 123.827 437.362 123.827C433.236 123.827 429.891 127.169 429.891 131.291C429.891 135.414 433.236 138.755 437.362 138.755Z" fill="#B1FF05" stroke="#011E2A" stroke-width="1.13506" stroke-linecap="round" stroke-linejoin="round"/>
<path d="M397.098 283.468C402.938 283.468 407.673 278.737 407.673 272.902C407.673 267.067 402.938 262.337 397.098 262.337C391.257 262.337 386.522 267.067 386.522 272.902C386.522 278.737 391.257 283.468 397.098 283.468Z" fill="#00ED64" stroke="#01232F" stroke-width="1.13506" stroke-linecap="round" stroke-linejoin="round"/>
<path d="M397.097 279.767C400.892 279.767 403.968 276.693 403.968 272.902C403.968 269.111 400.892 266.038 397.097 266.038C393.303 266.038 390.227 269.111 390.227 272.902C390.227 276.693 393.303 279.767 397.097 279.767Z" fill="#1EC75A"/>
<path d="M397.098 276.096C398.864 276.096 400.295 274.666 400.295 272.902C400.295 271.138 398.864 269.708 397.098 269.708C395.332 269.708 393.9 271.138 393.9 272.902C393.9 274.666 395.332 276.096 397.098 276.096Z" fill="#12875B"/>
<path d="M446.973 271.972C452.813 271.972 457.548 267.242 457.548 261.406C457.548 255.571 452.813 250.841 446.973 250.841C441.132 250.841 436.397 255.571 436.397 261.406C436.397 267.242 441.132 271.972 446.973 271.972Z" fill="#00ED64" stroke="#01232F" stroke-width="1.13506" stroke-linecap="round" stroke-linejoin="round"/>
<path d="M446.972 268.271C450.767 268.271 453.843 265.198 453.843 261.406C453.843 257.615 450.767 254.542 446.972 254.542C443.178 254.542 440.102 257.615 440.102 261.406C440.102 265.198 443.178 268.271 446.972 268.271Z" fill="#1EC75A"/>
<path d="M446.973 264.601C448.739 264.601 450.17 263.17 450.17 261.406C450.17 259.642 448.739 258.212 446.973 258.212C445.207 258.212 443.775 259.642 443.775 261.406C443.775 263.17 445.207 264.601 446.973 264.601Z" fill="#12875B"/>
<path d="M465.734 286.341C471.575 286.341 476.31 281.611 476.31 275.776C476.31 269.941 471.575 265.21 465.734 265.21C459.894 265.21 455.159 269.941 455.159 275.776C455.159 281.611 459.894 286.341 465.734 286.341Z" fill="#00ED64" stroke="#01232F" stroke-width="1.13506" stroke-linecap="round" stroke-linejoin="round"/>
<path d="M465.734 282.641C469.529 282.641 472.605 279.567 472.605 275.776C472.605 271.985 469.529 268.912 465.734 268.912C461.939 268.912 458.863 271.985 458.863 275.776C458.863 279.567 461.939 282.641 465.734 282.641Z" fill="#1EC75A"/>
<path d="M465.735 278.97C467.5 278.97 468.932 277.54 468.932 275.776C468.932 274.012 467.5 272.581 465.735 272.581C463.969 272.581 462.537 274.012 462.537 275.776C462.537 277.54 463.969 278.97 465.735 278.97Z" fill="#12875B"/>
<path d="M599.373 262.326C605.214 262.326 609.948 257.596 609.948 251.761C609.948 245.926 605.214 241.195 599.373 241.195C593.533 241.195 588.798 245.926 588.798 251.761C588.798 257.596 593.533 262.326 599.373 262.326Z" fill="#00ED64" stroke="#01232F" stroke-width="1.13506" stroke-linecap="round" stroke-linejoin="round"/>
<path d="M599.373 258.625C603.167 258.625 606.244 255.552 606.244 251.761C606.244 247.97 603.167 244.896 599.373 244.896C595.578 244.896 592.502 247.97 592.502 251.761C592.502 255.552 595.578 258.625 599.373 258.625Z" fill="#1EC75A"/>
<path d="M599.373 254.955C601.139 254.955 602.571 253.525 602.571 251.761C602.571 249.996 601.139 248.566 599.373 248.566C597.607 248.566 596.176 249.996 596.176 251.761C596.176 253.525 597.607 254.955 599.373 254.955Z" fill="#12875B"/>
<path d="M665.475 317.087C671.315 317.087 676.05 312.357 676.05 306.521C676.05 300.686 671.315 295.956 665.475 295.956C659.634 295.956 654.899 300.686 654.899 306.521C654.899 312.357 659.634 317.087 665.475 317.087Z" fill="#00ED64" stroke="#01232F" stroke-width="1.13506" stroke-linecap="round" stroke-linejoin="round"/>
<path d="M665.474 313.386C669.269 313.386 672.345 310.313 672.345 306.521C672.345 302.73 669.269 299.657 665.474 299.657C661.68 299.657 658.604 302.73 658.604 306.521C658.604 310.313 661.68 313.386 665.474 313.386Z" fill="#1EC75A"/>
<path d="M665.475 309.716C667.241 309.716 668.672 308.285 668.672 306.521C668.672 304.757 667.241 303.327 665.475 303.327C663.709 303.327 662.277 304.757 662.277 306.521C662.277 308.285 663.709 309.716 665.475 309.716Z" fill="#12875B"/>
<path d="M734.027 341.816C739.868 341.816 744.603 337.086 744.603 331.25C744.603 325.415 739.868 320.685 734.027 320.685C728.187 320.685 723.452 325.415 723.452 331.25C723.452 337.086 728.187 341.816 734.027 341.816Z" fill="#00ED64" stroke="#01232F" stroke-width="1.13506" stroke-linecap="round" stroke-linejoin="round"/>
<path d="M734.028 338.115C737.823 338.115 740.899 335.042 740.899 331.25C740.899 327.459 737.823 324.386 734.028 324.386C730.233 324.386 727.157 327.459 727.157 331.25C727.157 335.042 730.233 338.115 734.028 338.115Z" fill="#1EC75A"/>
<path d="M734.028 334.445C735.793 334.445 737.225 333.014 737.225 331.25C737.225 329.486 735.793 328.056 734.028 328.056C732.262 328.056 730.83 329.486 730.83 331.25C730.83 333.014 732.262 334.445 734.028 334.445Z" fill="#12875B"/>
<path d="M815.568 401.229C821.409 401.229 826.144 396.498 826.144 390.663C826.144 384.828 821.409 380.098 815.568 380.098C809.728 380.098 804.993 384.828 804.993 390.663C804.993 396.498 809.728 401.229 815.568 401.229Z" fill="#00ED64" stroke="#01232F" stroke-width="1.13506" stroke-linecap="round" stroke-linejoin="round"/>
<path d="M815.568 397.528C819.363 397.528 822.439 394.454 822.439 390.663C822.439 386.872 819.363 383.799 815.568 383.799C811.773 383.799 808.697 386.872 808.697 390.663C808.697 394.454 811.773 397.528 815.568 397.528Z" fill="#1EC75A"/>
<path d="M815.569 393.857C817.334 393.857 818.766 392.427 818.766 390.663C818.766 388.899 817.334 387.469 815.569 387.469C813.803 387.469 812.371 388.899 812.371 390.663C812.371 392.427 813.803 393.857 815.569 393.857Z" fill="#12875B"/>
<path d="M518.011 390.663C523.851 390.663 528.586 385.933 528.586 380.098C528.586 374.263 523.851 369.532 518.011 369.532C512.17 369.532 507.436 374.263 507.436 380.098C507.436 385.933 512.17 390.663 518.011 390.663Z" fill="#00ED64" stroke="#01232F" stroke-width="1.13506" stroke-linecap="round" stroke-linejoin="round"/>
<path d="M518.01 386.962C521.805 386.962 524.881 383.889 524.881 380.098C524.881 376.307 521.805 373.233 518.01 373.233C514.216 373.233 511.14 376.307 511.14 380.098C511.14 383.889 514.216 386.962 518.01 386.962Z" fill="#1EC75A"/>
<path d="M518.011 383.292C519.777 383.292 521.208 381.862 521.208 380.098C521.208 378.333 519.777 376.903 518.011 376.903C516.245 376.903 514.813 378.333 514.813 380.098C514.813 381.862 516.245 383.292 518.011 383.292Z" fill="#12875B"/>
<path d="M617.864 401.766C623.705 401.766 628.44 397.036 628.44 391.201C628.44 385.366 623.705 380.635 617.864 380.635C612.024 380.635 607.289 385.366 607.289 391.201C607.289 397.036 612.024 401.766 617.864 401.766Z" fill="#00ED64" stroke="#01232F" stroke-width="1.13506" stroke-linecap="round" stroke-linejoin="round"/>
<path d="M617.864 398.065C621.659 398.065 624.735 394.992 624.735 391.201C624.735 387.41 621.659 384.336 617.864 384.336C614.069 384.336 610.993 387.41 610.993 391.201C610.993 394.992 614.069 398.065 617.864 398.065Z" fill="#1EC75A"/>
<path d="M617.864 394.395C619.63 394.395 621.062 392.965 621.062 391.201C621.062 389.436 619.63 388.006 617.864 388.006C616.099 388.006 614.667 389.436 614.667 391.201C614.667 392.965 616.099 394.395 617.864 394.395Z" fill="#12875B"/>
<path d="M759.318 130.702L759.339 130.785L776.951 127.404L782.052 111.111H748.888L746.735 117.976L759.297 130.774L759.318 130.702Z" fill="black"/>
<path d="M738.178 119.433L725.616 106.635L731.659 87.3232L744.387 99.5739L738.178 119.433Z" fill="black" stroke="black" stroke-width="1.13506" stroke-linecap="round" stroke-linejoin="round"/>
<path d="M738.219 119.444L755.83 116.063L761.863 96.7517L744.427 99.5843L738.219 119.444Z" fill="white" stroke="black" stroke-width="1.13506" stroke-linecap="round" stroke-linejoin="round"/>
<path d="M749.033 84.718L731.659 87.3232L744.428 99.5842L761.864 96.7515L749.033 84.718Z" fill="white" stroke="black" stroke-width="1.13506" stroke-linecap="round" stroke-linejoin="round"/>
<path d="M666.768 99.9667C666.561 99.9667 666.354 99.977 666.137 99.9873C658.128 77.4813 636.636 61.3643 611.356 61.3643C586.077 61.3643 564.295 77.7088 556.42 100.453C537.909 103.389 523.753 119.413 523.753 138.734C523.753 160.145 541.127 177.502 562.557 177.502H666.758C688.188 177.502 705.561 160.145 705.561 138.734C705.561 117.324 688.188 99.9667 666.758 99.9667H666.768Z" fill="#011F2B"/>
<path d="M666.768 84.5216C666.561 84.5216 666.354 84.5319 666.137 84.5423C658.128 62.0363 636.636 45.9192 611.356 45.9192C586.077 45.9192 564.295 62.2637 556.42 85.0075C537.909 87.9435 523.753 103.968 523.753 123.289C523.753 144.7 541.127 162.057 562.557 162.057H666.758C688.188 162.057 705.561 144.7 705.561 123.289C705.561 101.879 688.188 84.5216 666.758 84.5216H666.768Z" fill="white" stroke="#001E2B" stroke-width="1.13506" stroke-linecap="round" stroke-linejoin="round"/>
<path d="M615.351 102.489C615.165 103.254 614.999 103.967 614.823 104.681C614.119 107.606 613.426 110.522 612.722 113.447C612.702 113.551 612.66 113.664 612.629 113.768C612.474 114.192 612.288 114.336 611.833 114.347C611.253 114.347 610.674 114.347 610.105 114.347C609.701 114.347 609.442 114.161 609.318 113.789C609.09 113.106 608.873 112.424 608.666 111.731C607.518 107.948 606.369 104.174 605.22 100.39C605.138 100.122 605.034 99.8631 605.034 99.5737C605.034 99.2946 605.148 99.1498 605.427 99.1498C606.069 99.1498 606.721 99.1291 607.362 99.1602C607.673 99.1808 607.89 99.3359 608.004 99.6254C608.263 100.277 608.387 100.959 608.552 101.631C609.359 104.774 610.156 107.927 610.953 111.08C610.963 111.132 610.994 111.194 611.025 111.297C611.336 109.994 611.626 108.754 611.915 107.513C612.495 105.043 613.074 102.572 613.664 100.101C613.85 99.2946 614.037 99.1602 614.875 99.1602C615.34 99.1602 615.806 99.1602 616.272 99.1705C616.675 99.1705 616.924 99.3979 617.017 99.7701C617.193 100.452 617.348 101.135 617.513 101.817C618.269 105.001 619.024 108.196 619.811 111.39C619.893 111.08 619.976 110.78 620.059 110.47C620.949 107.027 621.839 103.585 622.729 100.153C622.946 99.2945 623.132 99.1602 624.022 99.1602C624.446 99.1602 624.871 99.1602 625.295 99.1602C625.709 99.1602 625.854 99.3256 625.792 99.7287C625.678 100.411 625.409 101.062 625.212 101.724C624.001 105.621 622.78 109.519 621.559 113.427C621.29 114.274 621.145 114.388 620.256 114.378C619.79 114.378 619.324 114.378 618.859 114.357C618.393 114.336 618.217 114.181 618.093 113.727C617.927 113.127 617.793 112.527 617.648 111.928C616.913 108.868 616.179 105.808 615.444 102.747C615.423 102.685 615.403 102.623 615.371 102.499L615.351 102.489Z" fill="#2B3A4E"/>
<path d="M614.12 129.513C605.542 129.347 597.822 126.711 591.034 121.439C590.382 120.932 589.741 120.384 589.12 119.836C589.037 119.764 588.965 119.681 588.913 119.578C588.83 119.412 588.82 119.247 588.934 119.102C589.048 118.957 589.203 118.906 589.389 118.947C589.524 118.968 589.648 119.04 589.762 119.102C592.524 120.684 595.401 121.987 598.412 123.01C601.289 123.992 604.228 124.716 607.239 125.191C609.743 125.584 612.257 125.791 614.793 125.812C617.152 125.832 619.511 125.667 621.85 125.346C626.237 124.747 630.48 123.599 634.577 121.893C634.815 121.79 635.053 121.718 635.312 121.769C635.881 121.883 636.109 122.493 635.736 122.938C635.653 123.041 635.54 123.124 635.436 123.206C632.88 125.067 630.066 126.401 627.096 127.424C624.623 128.272 622.088 128.851 619.511 129.192C617.721 129.43 615.931 129.554 614.12 129.523V129.513Z" fill="#FBA701"/>
<path d="M600.739 112.383C600.181 113.013 599.58 113.561 598.856 113.954C597.294 114.791 595.648 114.988 593.951 114.492C592.275 114.006 591.147 112.558 591.013 110.811C590.899 109.405 591.168 108.113 592.172 107.048C592.999 106.17 594.034 105.694 595.214 105.477C596.683 105.218 598.142 105.384 599.591 105.653C599.86 105.704 600.119 105.766 600.388 105.828C600.47 105.849 600.553 105.87 600.553 105.725C600.543 104.908 600.605 104.081 600.429 103.265C600.15 101.962 599.425 101.342 598.07 101.156C596.373 100.928 594.779 101.28 593.217 101.9C592.979 101.993 592.751 102.096 592.492 102.148C592.213 102.2 592.058 102.117 592.027 101.838C591.975 101.362 591.965 100.876 592.047 100.391C592.089 100.132 592.306 99.9977 592.513 99.884C593.175 99.5221 593.9 99.2843 594.624 99.0983C596.352 98.6537 598.09 98.5917 599.839 99.0156C601.847 99.5118 602.912 100.845 603.254 102.83C603.347 103.389 603.368 103.947 603.368 104.505C603.368 106.076 603.368 107.638 603.368 109.209C603.368 110.439 603.523 111.618 604.165 112.703C604.361 113.024 604.299 113.282 603.999 113.51C603.595 113.809 603.181 114.088 602.747 114.337C602.436 114.523 602.147 114.45 601.857 114.151C601.474 113.758 601.205 113.292 600.957 112.807C600.884 112.672 600.822 112.538 600.739 112.383ZM597.532 107.389C597.035 107.389 596.528 107.4 596.042 107.524C594.996 107.772 594.262 108.33 594.044 109.436C593.972 109.819 593.982 110.191 594.024 110.574C594.138 111.535 594.738 112.238 595.69 112.414C596.983 112.651 598.184 112.383 599.26 111.618C599.974 111.101 600.398 110.408 600.512 109.519C600.574 109.033 600.584 108.537 600.605 108.051C600.605 107.834 600.543 107.762 600.346 107.72C599.425 107.534 598.494 107.4 597.542 107.389H597.532Z" fill="#2B3A4E"/>
<path d="M632.373 114.812C630.841 114.812 629.537 114.554 628.265 114.099C628.182 114.068 628.089 114.026 628.006 113.995C627.313 113.737 626.93 113.282 627.033 112.507C627.064 112.289 627.033 112.062 627.054 111.845C627.085 111.545 627.251 111.431 627.54 111.473C627.758 111.504 627.944 111.586 628.141 111.68C629.62 112.321 631.162 112.579 632.756 112.465C633.439 112.424 634.101 112.279 634.68 111.876C635.839 111.059 635.767 109.436 634.535 108.733C633.873 108.351 633.138 108.175 632.424 107.937C631.472 107.627 630.479 107.4 629.579 106.934C627.623 105.942 626.692 103.699 627.468 101.745C627.985 100.442 628.999 99.6357 630.282 99.1498C631.648 98.6329 633.056 98.6329 634.473 98.8603C635.156 98.974 635.818 99.1394 636.46 99.3876C636.688 99.4806 636.905 99.5943 637.102 99.7494C637.319 99.9148 637.464 100.132 637.484 100.411C637.505 100.783 637.526 101.155 637.484 101.528C637.443 101.848 637.277 101.962 636.967 101.889C636.791 101.848 636.626 101.776 636.47 101.714C634.949 101.062 633.366 100.876 631.742 101.186C631.493 101.238 631.255 101.321 631.028 101.445C629.848 102.065 629.724 103.657 630.81 104.433C631.317 104.805 631.897 105.011 632.487 105.208C633.552 105.57 634.649 105.839 635.694 106.273C636.677 106.676 637.495 107.276 637.981 108.268C638.861 110.077 638.281 112.31 636.605 113.582C635.663 114.295 634.577 114.605 633.428 114.771C633.035 114.822 632.631 114.843 632.414 114.833L632.373 114.812Z" fill="#2B3A4E"/>
<path d="M635.27 119.93C634.008 119.94 632.745 120.074 631.493 120.229C631.38 120.24 631.276 120.25 631.162 120.25C630.841 120.25 630.717 120.023 630.883 119.754C630.966 119.609 631.09 119.516 631.224 119.423C632.311 118.689 633.532 118.296 634.815 118.089C636.284 117.852 637.754 117.841 639.213 118.162C639.409 118.203 639.606 118.275 639.803 118.327C640.258 118.462 640.444 118.782 640.465 119.237C640.527 120.384 640.299 121.491 639.947 122.586C639.43 124.209 638.664 125.698 637.433 126.908C637.288 127.052 637.133 127.187 636.967 127.301C636.802 127.414 636.605 127.497 636.429 127.352C636.264 127.208 636.336 127.021 636.398 126.856C636.802 125.853 637.205 124.84 637.526 123.806C637.785 122.99 638.033 122.173 638.064 121.304C638.085 120.519 637.878 120.26 637.112 120.074C636.967 120.043 636.833 120.012 636.688 119.992C636.212 119.93 635.736 119.919 635.26 119.919L635.27 119.93Z" fill="#FBA701"/>
<path d="M930.364 275.487C930.437 274.277 930.488 273.057 930.488 271.827C930.488 239.758 904.464 213.758 872.355 213.758C847.065 213.758 825.563 229.896 817.564 252.422C802.622 253.229 789.946 262.481 784.193 275.476C771.134 277.575 761.159 288.875 761.159 302.51C761.159 317.635 773.432 329.906 788.58 329.906H925.873C941.012 329.906 953.295 317.645 953.295 302.51C953.295 288.906 943.371 277.627 930.364 275.487Z" fill="#011F2B"/>
<path d="M930.364 260.041C930.437 258.832 930.488 257.612 930.488 256.382C930.488 224.313 904.464 198.313 872.355 198.313C847.065 198.313 825.563 214.45 817.564 236.977C802.622 237.784 789.946 247.036 784.193 260.031C771.134 262.13 761.159 273.429 761.159 287.065C761.159 302.19 773.432 314.461 788.58 314.461H925.873C941.012 314.461 953.295 302.2 953.295 287.065C953.295 273.46 943.371 262.181 930.364 260.041Z" fill="white" stroke="#001E2B" stroke-width="1.13506" stroke-linecap="round" stroke-linejoin="round"/>
<path d="M886.832 283.685C873.504 283.685 860.187 283.685 846.859 283.685C846.766 283.685 846.673 283.716 846.59 283.654C847.169 283.55 847.749 283.447 848.318 283.344C849.518 283.137 850.719 282.93 851.909 282.723C853.099 282.517 854.289 282.31 855.479 282.113C856.668 281.907 857.858 281.71 859.048 281.504C860.249 281.297 861.449 281.09 862.639 280.883C864.088 280.635 865.536 280.387 866.985 280.139C868.185 279.932 869.386 279.725 870.576 279.529C870.7 279.508 870.824 279.477 870.948 279.457C870.928 279.353 870.865 279.302 870.814 279.25C866.644 274.019 862.484 268.777 858.314 263.546C858.221 263.433 858.2 263.329 858.252 263.184C860.425 257.085 862.587 250.975 864.76 244.865C864.791 244.783 864.822 244.7 864.853 244.607C864.936 244.638 864.957 244.721 864.988 244.772C866.882 248.132 868.765 251.502 870.659 254.873C874.746 262.151 878.833 269.418 882.921 276.696C884.183 278.95 885.445 281.193 886.708 283.447C886.749 283.53 886.801 283.602 886.822 283.695L886.832 283.685Z" fill="#0084CE"/>
<path d="M862.712 241.474C862.732 241.567 862.681 241.629 862.65 241.702C861.211 244.886 859.773 248.06 858.335 251.244C854.651 259.38 850.978 267.526 847.294 275.662C846.828 276.686 846.362 277.709 845.907 278.733C845.855 278.857 845.783 278.898 845.659 278.898C841.778 278.898 837.908 278.898 834.028 278.898C833.966 278.898 833.904 278.898 833.842 278.888C833.842 278.795 833.883 278.743 833.925 278.681C838.302 270.824 842.679 262.967 847.056 255.121C847.118 255.007 847.19 254.914 847.294 254.831C850.346 252.185 853.399 249.538 856.451 246.892C858.48 245.134 860.508 243.377 862.526 241.619C862.577 241.567 862.629 241.505 862.712 241.485V241.474Z" fill="#0084CE"/>
<path d="M452.27 398.386C442.181 381.204 423.504 369.656 402.115 369.656C376.526 369.656 354.816 386.187 347.045 409.137C329.547 412.89 316.416 428.428 316.416 447.037C316.416 468.447 333.79 485.805 355.22 485.805H450.936C475.108 485.805 494.696 466.224 494.696 442.085C494.696 417.945 475.811 399.099 452.26 398.396L452.27 398.386Z" fill="#011F2B"/>
<path d="M452.27 382.951C442.181 365.769 423.504 354.222 402.115 354.222C376.526 354.222 354.816 370.752 347.045 393.703C329.547 397.456 316.416 412.994 316.416 431.602C316.416 453.012 333.79 470.37 355.22 470.37H450.936C475.108 470.37 494.696 450.79 494.696 426.65C494.696 402.511 475.811 383.665 452.26 382.962L452.27 382.951Z" fill="white" stroke="#001E2B" stroke-width="1.13506" stroke-linecap="round" stroke-linejoin="round"/>
<path d="M417.109 438.994H405.509C405.581 435.862 405.55 432.719 405.529 429.586C409.317 429.586 413.094 429.576 416.881 429.566C417.357 429.566 417.833 429.566 418.299 429.483C421.206 428.966 423.224 426.557 423.214 423.652C423.203 420.758 421.154 418.39 418.216 417.884C417.636 417.78 417.343 417.432 417.336 416.84C417.295 413.076 415.908 409.944 412.969 407.535C413.063 407.297 413.27 407.153 413.435 406.977C415.474 404.93 417.512 402.883 419.551 400.836C419.716 400.857 419.809 400.981 419.923 401.084C422.748 403.72 424.735 406.874 425.863 410.575C425.976 410.968 426.183 411.226 426.504 411.464C429.215 413.511 431.057 416.157 432.051 419.403C432.34 420.344 432.413 421.316 432.661 422.257L432.568 425.462C432.537 425.555 432.547 425.658 432.537 425.751C431.492 432.398 426.794 437.381 420.285 438.725H420.244C419.209 438.922 418.164 439.004 417.119 439.004L417.109 438.994Z" fill="#5197F3"/>
<path d="M394.075 438.994C392.926 438.994 391.777 438.911 390.66 438.663H390.649C388.435 438.167 386.407 437.268 384.606 435.882C385.217 435.262 385.827 434.642 386.438 434.032C388.073 432.388 389.718 430.744 391.353 429.101C392.688 429.638 394.095 429.586 395.503 429.586C398.845 429.586 402.187 429.586 405.529 429.586C405.55 432.719 405.581 435.862 405.509 438.994H394.075Z" fill="#3EB066"/>
<path d="M412.969 407.525C411.997 406.894 411.055 406.243 409.969 405.809C405.374 403.927 400.138 405.106 396.806 408.796C395.171 408.517 393.526 408.435 391.881 408.641C389.46 408.941 387.266 409.83 385.217 411.112C384.958 410.936 385.145 410.74 385.196 410.564C386.345 406.76 388.414 403.545 391.374 400.908C395.606 397.145 400.594 395.326 406.254 395.512C411.314 395.677 415.763 397.476 419.561 400.826C417.522 402.873 415.484 404.92 413.445 406.967C413.27 407.142 413.063 407.287 412.98 407.525H412.969Z" fill="#ED5B44"/>
<path d="M385.207 411.102C387.256 409.82 389.46 408.931 391.871 408.631C393.527 408.434 395.162 408.507 396.796 408.786C399.539 409.386 401.991 410.574 404.081 412.466C404.702 413.025 405.271 413.635 405.799 414.286C405.933 414.451 405.996 414.565 405.799 414.761C403.616 416.953 401.443 419.155 399.218 421.398C398.804 420.716 398.452 420.117 397.945 419.631C396.145 417.935 394.054 417.439 391.747 418.297C389.501 419.124 388.187 420.809 387.96 423.187C387.722 425.72 388.808 427.622 391.002 428.904C391.116 428.966 391.229 429.038 391.343 429.1C389.708 430.744 388.063 432.388 386.428 434.032C385.818 434.652 385.207 435.262 384.597 435.882C382.837 434.683 381.503 433.091 380.468 431.251C376.629 424.428 378.471 416.043 384.804 411.422C384.938 411.319 385.062 411.205 385.197 411.102H385.207Z" fill="#F9C201"/>
<path d="M752.52 462.182H856.244V379.736" stroke="#001E2B" stroke-width="1.13506" stroke-linecap="round" stroke-linejoin="round"/>
<path d="M802.509 477.689H871.766V408.528" stroke="#001E2B" stroke-width="1.13506" stroke-linecap="round" stroke-linejoin="round"/>
<path d="M698.433 477.689H774.55" stroke="#001E2B" stroke-width="1.13506" stroke-linecap="round" stroke-linejoin="round"/>
</g>
<path d="M772.416 546.96C775.92 546.96 778.32 549.384 778.32 552.528C778.32 555.672 775.92 558.096 772.416 558.096H769.8V564H766.992V546.96H772.416ZM772.392 555.456C774.384 555.456 775.56 554.184 775.56 552.528C775.56 550.872 774.384 549.6 772.392 549.6H769.8V555.456H772.392ZM791.552 560.232C790.88 562.488 788.72 564.24 785.672 564.24C782.096 564.24 779.528 561.6 779.528 558C779.528 554.448 782 551.76 785.696 551.76C789.368 551.76 791.936 554.568 791.696 558.648H782.144C782.24 560.472 783.632 561.912 785.768 561.912C787.088 561.912 788.24 561.384 788.792 560.232H791.552ZM785.624 553.968C783.968 553.968 782.6 554.928 782.24 556.776H788.864C788.456 554.832 787.088 553.968 785.624 553.968ZM794.407 564V552H797.047V554.136C797.503 552.768 798.847 551.88 800.215 551.88C800.551 551.88 800.887 551.904 801.247 551.976V554.688C800.791 554.544 800.407 554.472 799.927 554.472C798.415 554.472 797.047 555.744 797.047 558.144V564H794.407ZM804.652 564V554.352H802.156V552H804.652V549.984C804.652 547.296 806.452 545.856 808.756 545.856C809.572 545.856 810.22 545.976 810.724 546.144V548.496C810.34 548.352 809.812 548.256 809.308 548.256C807.94 548.256 807.292 548.808 807.292 550.296V552H810.724V554.352H807.292V564H804.652ZM824.236 558C824.236 561.48 821.5 564.24 817.948 564.24C814.396 564.24 811.66 561.48 811.66 558C811.66 554.52 814.396 551.76 817.948 551.76C821.5 551.76 824.236 554.52 824.236 558ZM814.324 558C814.324 560.136 815.812 561.792 817.948 561.792C820.06 561.792 821.548 560.136 821.548 558C821.548 555.864 820.06 554.208 817.948 554.208C815.812 554.208 814.324 555.864 814.324 558ZM826.891 564V552H829.531V554.136C829.987 552.768 831.331 551.88 832.699 551.88C833.035 551.88 833.371 551.904 833.731 551.976V554.688C833.275 554.544 832.891 554.472 832.411 554.472C830.899 554.472 829.531 555.744 829.531 558.144V564H826.891ZM836.008 564V552H838.648V553.632C839.32 552.504 840.52 551.76 842.056 551.76C843.832 551.76 845.128 552.648 845.776 554.136C846.496 552.6 848.032 551.76 849.616 551.76C852.328 551.76 853.936 553.752 853.936 556.824V564H851.296V557.256C851.296 555.384 850.6 554.16 849.16 554.16C847.456 554.16 846.304 555.576 846.304 558.096V564H843.664V557.256C843.664 555.384 842.968 554.16 841.528 554.16C839.824 554.16 838.648 555.576 838.648 558.096V564H836.008ZM856.449 558C856.449 554.568 858.945 551.76 862.233 551.76C863.961 551.76 865.401 552.648 866.073 553.608V552H868.713V564H866.073V562.392C865.401 563.352 863.961 564.24 862.233 564.24C858.945 564.24 856.449 561.432 856.449 558ZM866.289 558C866.289 555.84 864.849 554.16 862.713 554.16C860.577 554.16 859.137 555.84 859.137 558C859.137 560.16 860.577 561.84 862.713 561.84C864.849 561.84 866.289 560.16 866.289 558ZM872.29 564V552H874.93V553.632C875.65 552.432 877.018 551.76 878.578 551.76C881.362 551.76 883.162 553.728 883.162 556.776V564H880.522V557.208C880.522 555.312 879.562 554.16 878.026 554.16C876.274 554.16 874.93 555.528 874.93 558.096V564H872.29ZM898.06 559.608C897.412 562.272 895.132 564.24 891.964 564.24C888.316 564.24 885.676 561.456 885.676 558C885.676 554.544 888.316 551.76 891.964 551.76C895.132 551.76 897.412 553.728 898.06 556.392H895.276C894.796 555.096 893.62 554.16 891.964 554.16C889.828 554.16 888.364 555.768 888.364 558C888.364 560.232 889.828 561.84 891.964 561.84C893.62 561.84 894.796 560.904 895.276 559.608H898.06ZM911.739 560.232C911.067 562.488 908.907 564.24 905.859 564.24C902.283 564.24 899.715 561.6 899.715 558C899.715 554.448 902.187 551.76 905.883 551.76C909.555 551.76 912.123 554.568 911.883 558.648H902.331C902.427 560.472 903.819 561.912 905.955 561.912C907.275 561.912 908.427 561.384 908.979 560.232H911.739ZM905.811 553.968C904.155 553.968 902.787 554.928 902.427 556.776H909.051C908.643 554.832 907.275 553.968 905.811 553.968Z" fill="black"/>
<line x1="1089.36" y1="545" x2="1089.36" y2="470" stroke="black" stroke-width="3"/>
<circle cx="1089.86" cy="545.551" r="8" fill="#2A2A2A"/>
<line x1="837.869" y1="646" x2="837.869" y2="581" stroke="black" stroke-width="3"/>
<circle cx="838.861" cy="646.447" r="8" fill="#2A2A2A"/>
<line x1="620.869" y1="711" x2="620.869" y2="646" stroke="black" stroke-width="3"/>
<circle cx="621.861" cy="711.447" r="8" fill="#2A2A2A"/>
<path d="M1064.24 408.48C1064.24 403.512 1068.06 399.672 1073.12 399.672C1077.22 399.672 1080.51 402.336 1081.33 405.672H1078.3C1077.58 403.728 1075.52 402.384 1073.12 402.384C1069.57 402.384 1067.07 405.048 1067.07 408.48C1067.07 411.912 1069.57 414.576 1073.12 414.576C1075.52 414.576 1077.58 413.232 1078.3 411.288H1081.33C1080.51 414.624 1077.22 417.288 1073.12 417.288C1068.06 417.288 1064.24 413.448 1064.24 408.48ZM1095.56 411C1095.56 414.48 1092.83 417.24 1089.28 417.24C1085.72 417.24 1082.99 414.48 1082.99 411C1082.99 407.52 1085.72 404.76 1089.28 404.76C1092.83 404.76 1095.56 407.52 1095.56 411ZM1085.65 411C1085.65 413.136 1087.14 414.792 1089.28 414.792C1091.39 414.792 1092.88 413.136 1092.88 411C1092.88 408.864 1091.39 407.208 1089.28 407.208C1087.14 407.208 1085.65 408.864 1085.65 411ZM1107.15 413.688C1107.15 416.016 1105.13 417.24 1102.44 417.24C1099.64 417.24 1097.45 415.752 1097.31 413.352H1100.04C1100.26 414.648 1101.34 415.128 1102.52 415.128C1103.67 415.128 1104.46 414.672 1104.46 413.856C1104.46 413.04 1103.93 412.584 1102.68 412.272L1100.72 411.744C1098.65 411.216 1097.64 409.872 1097.64 408.12C1097.64 406.104 1099.42 404.76 1102.11 404.76C1104.7 404.76 1106.5 406.2 1106.69 408.36H1104.05C1103.81 407.352 1103.02 406.872 1102.08 406.872C1101.08 406.872 1100.33 407.328 1100.33 408.096C1100.33 408.864 1100.93 409.272 1101.94 409.536L1103.96 410.064C1106.12 410.616 1107.15 411.864 1107.15 413.688ZM1116.76 416.856C1116.23 417.024 1115.61 417.12 1114.79 417.12C1112.49 417.12 1110.69 415.848 1110.69 413.136V407.352H1108.19V405H1110.69V401.664H1113.33V405H1116.76V407.352H1113.33V412.704C1113.33 414.192 1113.98 414.744 1115.35 414.744C1115.85 414.744 1116.38 414.648 1116.76 414.504V416.856ZM1034.63 436.48C1034.63 441.4 1030.69 445.288 1025.82 445.288C1020.93 445.288 1017.01 441.4 1017.01 436.48C1017.01 431.56 1020.93 427.672 1025.82 427.672C1030.69 427.672 1034.63 431.56 1034.63 436.48ZM1019.85 436.48C1019.85 439.864 1022.44 442.576 1025.82 442.576C1029.18 442.576 1031.77 439.864 1031.77 436.48C1031.77 433.096 1029.18 430.384 1025.82 430.384C1022.44 430.384 1019.85 433.096 1019.85 436.48ZM1037.33 450.016V433H1039.97V434.608C1040.64 433.648 1042.1 432.76 1043.83 432.76C1047.12 432.76 1049.62 435.568 1049.62 439C1049.62 442.432 1047.12 445.24 1043.83 445.24C1042.1 445.24 1040.64 444.352 1039.97 443.392V450.016H1037.33ZM1046.93 439C1046.93 436.84 1045.46 435.16 1043.35 435.16C1041.22 435.16 1039.75 436.84 1039.75 439C1039.75 441.16 1041.22 442.84 1043.35 442.84C1045.46 442.84 1046.93 441.16 1046.93 439ZM1059.25 444.856C1058.72 445.024 1058.09 445.12 1057.28 445.12C1054.97 445.12 1053.17 443.848 1053.17 441.136V435.352H1050.68V433H1053.17V429.664H1055.81V433H1059.25V435.352H1055.81V440.704C1055.81 442.192 1056.46 442.744 1057.83 442.744C1058.33 442.744 1058.86 442.648 1059.25 442.504V444.856ZM1064.82 428.608C1064.82 429.592 1064.05 430.384 1063.07 430.384C1062.11 430.384 1061.29 429.592 1061.29 428.608C1061.29 427.648 1062.11 426.856 1063.07 426.856C1064.05 426.856 1064.82 427.648 1064.82 428.608ZM1061.75 445V433H1064.39V445H1061.75ZM1067.94 445V433H1070.58V434.632C1071.25 433.504 1072.45 432.76 1073.99 432.76C1075.76 432.76 1077.06 433.648 1077.71 435.136C1078.43 433.6 1079.96 432.76 1081.55 432.76C1084.26 432.76 1085.87 434.752 1085.87 437.824V445H1083.23V438.256C1083.23 436.384 1082.53 435.16 1081.09 435.16C1079.39 435.16 1078.23 436.576 1078.23 439.096V445H1075.59V438.256C1075.59 436.384 1074.9 435.16 1073.46 435.16C1071.75 435.16 1070.58 436.576 1070.58 439.096V445H1067.94ZM1092.31 428.608C1092.31 429.592 1091.55 430.384 1090.56 430.384C1089.6 430.384 1088.79 429.592 1088.79 428.608C1088.79 427.648 1089.6 426.856 1090.56 426.856C1091.55 426.856 1092.31 427.648 1092.31 428.608ZM1089.24 445V433H1091.88V445H1089.24ZM1094.61 445V442.912L1100.9 435.4H1094.71V433H1104.31V435.112L1098.05 442.6H1104.5V445H1094.61ZM1106.17 439C1106.17 435.568 1108.66 432.76 1111.95 432.76C1113.68 432.76 1115.12 433.648 1115.79 434.608V433H1118.43V445H1115.79V443.392C1115.12 444.352 1113.68 445.24 1111.95 445.24C1108.66 445.24 1106.17 442.432 1106.17 439ZM1116.01 439C1116.01 436.84 1114.57 435.16 1112.43 435.16C1110.3 435.16 1108.86 436.84 1108.86 439C1108.86 441.16 1110.3 442.84 1112.43 442.84C1114.57 442.84 1116.01 441.16 1116.01 439ZM1129.18 444.856C1128.66 445.024 1128.03 445.12 1127.22 445.12C1124.91 445.12 1123.11 443.848 1123.11 441.136V435.352H1120.62V433H1123.11V429.664H1125.75V433H1129.18V435.352H1125.75V440.704C1125.75 442.192 1126.4 442.744 1127.77 442.744C1128.27 442.744 1128.8 442.648 1129.18 442.504V444.856ZM1134.76 428.608C1134.76 429.592 1133.99 430.384 1133.01 430.384C1132.05 430.384 1131.23 429.592 1131.23 428.608C1131.23 427.648 1132.05 426.856 1133.01 426.856C1133.99 426.856 1134.76 427.648 1134.76 428.608ZM1131.69 445V433H1134.33V445H1131.69ZM1149.59 439C1149.59 442.48 1146.85 445.24 1143.3 445.24C1139.75 445.24 1137.01 442.48 1137.01 439C1137.01 435.52 1139.75 432.76 1143.3 432.76C1146.85 432.76 1149.59 435.52 1149.59 439ZM1139.68 439C1139.68 441.136 1141.16 442.792 1143.3 442.792C1145.41 442.792 1146.9 441.136 1146.9 439C1146.9 436.864 1145.41 435.208 1143.3 435.208C1141.16 435.208 1139.68 436.864 1139.68 439ZM1152.24 445V433H1154.88V434.632C1155.6 433.432 1156.97 432.76 1158.53 432.76C1161.31 432.76 1163.11 434.728 1163.11 437.776V445H1160.47V438.208C1160.47 436.312 1159.51 435.16 1157.98 435.16C1156.23 435.16 1154.88 436.528 1154.88 439.096V445H1152.24Z" fill="black"/>
<line x1="162.362" y1="545" x2="162.362" y2="470" stroke="black" stroke-width="3"/>
<circle cx="162.862" cy="545.551" r="8" fill="#2A2A2A"/>
<path d="M112.533 408.48C112.533 413.4 108.597 417.288 103.725 417.288C98.8287 417.288 94.9167 413.4 94.9167 408.48C94.9167 403.56 98.8287 399.672 103.725 399.672C108.597 399.672 112.533 403.56 112.533 408.48ZM97.7487 408.48C97.7487 411.864 100.341 414.576 103.725 414.576C107.085 414.576 109.677 411.864 109.677 408.48C109.677 405.096 107.085 402.384 103.725 402.384C100.341 402.384 97.7487 405.096 97.7487 408.48ZM115.232 422.016V405H117.872V406.608C118.544 405.648 120.008 404.76 121.736 404.76C125.024 404.76 127.52 407.568 127.52 411C127.52 414.432 125.024 417.24 121.736 417.24C120.008 417.24 118.544 416.352 117.872 415.392V422.016H115.232ZM124.832 411C124.832 408.84 123.368 407.16 121.256 407.16C119.12 407.16 117.656 408.84 117.656 411C117.656 413.16 119.12 414.84 121.256 414.84C123.368 414.84 124.832 413.16 124.832 411ZM141.392 413.232C140.72 415.488 138.56 417.24 135.512 417.24C131.936 417.24 129.368 414.6 129.368 411C129.368 407.448 131.84 404.76 135.536 404.76C139.208 404.76 141.776 407.568 141.536 411.648H131.984C132.08 413.472 133.472 414.912 135.608 414.912C136.928 414.912 138.08 414.384 138.632 413.232H141.392ZM135.464 406.968C133.808 406.968 132.44 407.928 132.08 409.776H138.704C138.296 407.832 136.928 406.968 135.464 406.968ZM144.247 417V405H146.887V407.136C147.343 405.768 148.687 404.88 150.055 404.88C150.391 404.88 150.727 404.904 151.087 404.976V407.688C150.631 407.544 150.247 407.472 149.767 407.472C148.255 407.472 146.887 408.744 146.887 411.144V417H144.247ZM152.102 411C152.102 407.568 154.598 404.76 157.886 404.76C159.614 404.76 161.054 405.648 161.726 406.608V405H164.366V417H161.726V415.392C161.054 416.352 159.614 417.24 157.886 417.24C154.598 417.24 152.102 414.432 152.102 411ZM161.942 411C161.942 408.84 160.502 407.16 158.366 407.16C156.23 407.16 154.79 408.84 154.79 411C154.79 413.16 156.23 414.84 158.366 414.84C160.502 414.84 161.942 413.16 161.942 411ZM175.119 416.856C174.591 417.024 173.967 417.12 173.151 417.12C170.847 417.12 169.047 415.848 169.047 413.136V407.352H166.551V405H169.047V401.664H171.687V405H175.119V407.352H171.687V412.704C171.687 414.192 172.335 414.744 173.703 414.744C174.207 414.744 174.735 414.648 175.119 414.504V416.856ZM180.694 400.608C180.694 401.592 179.926 402.384 178.942 402.384C177.982 402.384 177.166 401.592 177.166 400.608C177.166 399.648 177.982 398.856 178.942 398.856C179.926 398.856 180.694 399.648 180.694 400.608ZM177.622 417V405H180.262V417H177.622ZM195.522 411C195.522 414.48 192.786 417.24 189.234 417.24C185.682 417.24 182.946 414.48 182.946 411C182.946 407.52 185.682 404.76 189.234 404.76C192.786 404.76 195.522 407.52 195.522 411ZM185.61 411C185.61 413.136 187.098 414.792 189.234 414.792C191.346 414.792 192.834 413.136 192.834 411C192.834 408.864 191.346 407.208 189.234 407.208C187.098 407.208 185.61 408.864 185.61 411ZM198.177 417V405H200.817V406.632C201.537 405.432 202.905 404.76 204.465 404.76C207.249 404.76 209.049 406.728 209.049 409.776V417H206.409V410.208C206.409 408.312 205.449 407.16 203.913 407.16C202.161 407.16 200.817 408.528 200.817 411.096V417H198.177ZM211.563 411C211.563 407.568 214.059 404.76 217.347 404.76C219.075 404.76 220.515 405.648 221.187 406.608V405H223.827V417H221.187V415.392C220.515 416.352 219.075 417.24 217.347 417.24C214.059 417.24 211.563 414.432 211.563 411ZM221.403 411C221.403 408.84 219.963 407.16 217.827 407.16C215.691 407.16 214.251 408.84 214.251 411C214.251 413.16 215.691 414.84 217.827 414.84C219.963 414.84 221.403 413.16 221.403 411ZM227.403 417V399H230.043V417H227.403ZM108.102 445V427.96H118.35V430.648H110.91V435.016H116.91V437.704H110.91V442.312H118.35V445H108.102ZM122.067 445V435.352H119.571V433H122.067V430.984C122.067 428.296 123.867 426.856 126.171 426.856C126.987 426.856 127.635 426.976 128.139 427.144V429.496C127.755 429.352 127.227 429.256 126.723 429.256C125.355 429.256 124.707 429.808 124.707 431.296V433H128.139V435.352H124.707V445H122.067ZM131.371 445V435.352H128.875V433H131.371V430.984C131.371 428.296 133.171 426.856 135.475 426.856C136.291 426.856 136.939 426.976 137.443 427.144V429.496C137.059 429.352 136.531 429.256 136.027 429.256C134.659 429.256 134.011 429.808 134.011 431.296V433H137.443V435.352H134.011V445H131.371ZM142.62 428.608C142.62 429.592 141.852 430.384 140.868 430.384C139.908 430.384 139.092 429.592 139.092 428.608C139.092 427.648 139.908 426.856 140.868 426.856C141.852 426.856 142.62 427.648 142.62 428.608ZM139.548 445V433H142.188V445H139.548ZM157.255 440.608C156.607 443.272 154.327 445.24 151.159 445.24C147.511 445.24 144.871 442.456 144.871 439C144.871 435.544 147.511 432.76 151.159 432.76C154.327 432.76 156.607 434.728 157.255 437.392H154.471C153.991 436.096 152.815 435.16 151.159 435.16C149.023 435.16 147.559 436.768 147.559 439C147.559 441.232 149.023 442.84 151.159 442.84C152.815 442.84 153.991 441.904 154.471 440.608H157.255ZM162.823 428.608C162.823 429.592 162.055 430.384 161.071 430.384C160.111 430.384 159.295 429.592 159.295 428.608C159.295 427.648 160.111 426.856 161.071 426.856C162.055 426.856 162.823 427.648 162.823 428.608ZM159.751 445V433H162.391V445H159.751ZM177.123 441.232C176.451 443.488 174.291 445.24 171.243 445.24C167.667 445.24 165.099 442.6 165.099 439C165.099 435.448 167.571 432.76 171.267 432.76C174.939 432.76 177.507 435.568 177.267 439.648H167.715C167.811 441.472 169.203 442.912 171.339 442.912C172.659 442.912 173.811 442.384 174.363 441.232H177.123ZM171.195 434.968C169.539 434.968 168.171 435.928 167.811 437.776H174.435C174.027 435.832 172.659 434.968 171.195 434.968ZM179.978 445V433H182.618V434.632C183.338 433.432 184.706 432.76 186.266 432.76C189.05 432.76 190.85 434.728 190.85 437.776V445H188.21V438.208C188.21 436.312 187.25 435.16 185.714 435.16C183.962 435.16 182.618 436.528 182.618 439.096V445H179.978ZM205.748 440.608C205.1 443.272 202.82 445.24 199.652 445.24C196.004 445.24 193.364 442.456 193.364 439C193.364 435.544 196.004 432.76 199.652 432.76C202.82 432.76 205.1 434.728 205.748 437.392H202.964C202.484 436.096 201.308 435.16 199.652 435.16C197.516 435.16 196.052 436.768 196.052 439C196.052 441.232 197.516 442.84 199.652 442.84C201.308 442.84 202.484 441.904 202.964 440.608H205.748ZM211.943 450.016H209.039L211.607 444.352L206.447 433H209.351L213.047 441.496L216.719 433H219.647L211.943 450.016Z" fill="black"/>
<path d="M567.442 613V595.96H573.586C576.754 595.96 578.746 598 578.746 600.808C578.746 603.208 577.33 604.768 574.882 605.344L581.218 613H577.762L571.522 605.512H570.25V613H567.442ZM570.25 603.064H573.25C574.906 603.064 575.938 602.272 575.938 600.808C575.938 599.344 574.906 598.552 573.25 598.552H570.25V603.064ZM593.337 609.232C592.665 611.488 590.505 613.24 587.457 613.24C583.881 613.24 581.313 610.6 581.313 607C581.313 603.448 583.785 600.76 587.481 600.76C591.153 600.76 593.721 603.568 593.481 607.648H583.929C584.025 609.472 585.417 610.912 587.553 610.912C588.873 610.912 590.025 610.384 590.577 609.232H593.337ZM587.409 602.968C585.753 602.968 584.385 603.928 584.025 605.776H590.649C590.241 603.832 588.873 602.968 587.409 602.968ZM596.192 613V595H598.832V613H596.192ZM605.452 596.608C605.452 597.592 604.684 598.384 603.7 598.384C602.74 598.384 601.924 597.592 601.924 596.608C601.924 595.648 602.74 594.856 603.7 594.856C604.684 594.856 605.452 595.648 605.452 596.608ZM602.38 613V601H605.02V613H602.38ZM607.703 607C607.703 603.568 610.199 600.76 613.487 600.76C615.215 600.76 616.655 601.648 617.327 602.608V601H619.967V613H617.327V611.392C616.655 612.352 615.215 613.24 613.487 613.24C610.199 613.24 607.703 610.432 607.703 607ZM617.543 607C617.543 604.84 616.103 603.16 613.967 603.16C611.831 603.16 610.391 604.84 610.391 607C610.391 609.16 611.831 610.84 613.967 610.84C616.103 610.84 617.543 609.16 617.543 607ZM626.184 611.392V613H623.544V595H626.184V602.608C626.856 601.648 628.32 600.76 630.048 600.76C633.336 600.76 635.832 603.568 635.832 607C635.832 610.432 633.336 613.24 630.048 613.24C628.32 613.24 626.856 612.352 626.184 611.392ZM633.144 607C633.144 604.84 631.68 603.16 629.568 603.16C627.432 603.16 625.968 604.84 625.968 607C625.968 609.16 627.432 610.84 629.568 610.84C631.68 610.84 633.144 609.16 633.144 607ZM641.592 596.608C641.592 597.592 640.824 598.384 639.84 598.384C638.88 598.384 638.064 597.592 638.064 596.608C638.064 595.648 638.88 594.856 639.84 594.856C640.824 594.856 641.592 595.648 641.592 596.608ZM638.52 613V601H641.16V613H638.52ZM644.708 613V595H647.348V613H644.708ZM653.967 596.608C653.967 597.592 653.199 598.384 652.215 598.384C651.255 598.384 650.439 597.592 650.439 596.608C650.439 595.648 651.255 594.856 652.215 594.856C653.199 594.856 653.967 595.648 653.967 596.608ZM650.895 613V601H653.535V613H650.895ZM664.259 612.856C663.731 613.024 663.107 613.12 662.291 613.12C659.987 613.12 658.187 611.848 658.187 609.136V603.352H655.691V601H658.187V597.664H660.827V601H664.259V603.352H660.827V608.704C660.827 610.192 661.475 610.744 662.843 610.744C663.347 610.744 663.875 610.648 664.259 610.504V612.856ZM670.602 618.016H667.698L670.266 612.352L665.106 601H668.01L671.706 609.496L675.378 601H678.306L670.602 618.016Z" fill="black"/>
<line x1="391.869" y1="646" x2="391.869" y2="581" stroke="black" stroke-width="3"/>
<circle cx="392.861" cy="646.447" r="8" fill="#2A2A2A"/>
<path d="M347.165 559.104H349.973C350.189 560.832 351.797 561.672 353.357 561.672C354.965 561.672 356.213 560.856 356.213 559.512C356.213 558.36 355.469 557.544 353.861 557.016L351.773 556.32C349.085 555.456 347.597 553.896 347.597 551.4C347.573 548.448 349.829 546.672 353.021 546.672C356.573 546.672 358.517 549.168 358.685 551.544H355.877C355.469 549.936 354.197 549.288 352.973 549.288C351.557 549.288 350.429 550.032 350.405 551.256C350.405 552.504 351.197 553.176 352.709 553.68L354.821 554.352C357.485 555.216 359.045 556.824 359.045 559.416C359.045 562.296 356.741 564.288 353.381 564.288C349.565 564.288 347.285 561.792 347.165 559.104ZM373.04 560.232C372.368 562.488 370.208 564.24 367.16 564.24C363.584 564.24 361.016 561.6 361.016 558C361.016 554.448 363.488 551.76 367.184 551.76C370.856 551.76 373.424 554.568 373.184 558.648H363.632C363.728 560.472 365.12 561.912 367.256 561.912C368.576 561.912 369.728 561.384 370.28 560.232H373.04ZM367.112 553.968C365.456 553.968 364.088 554.928 363.728 556.776H370.352C369.944 554.832 368.576 553.968 367.112 553.968ZM387.415 559.608C386.767 562.272 384.487 564.24 381.319 564.24C377.671 564.24 375.031 561.456 375.031 558C375.031 554.544 377.671 551.76 381.319 551.76C384.487 551.76 386.767 553.728 387.415 556.392H384.631C384.151 555.096 382.975 554.16 381.319 554.16C379.183 554.16 377.719 555.768 377.719 558C377.719 560.232 379.183 561.84 381.319 561.84C382.975 561.84 384.151 560.904 384.631 559.608H387.415ZM389.743 559.176V552H392.383V558.744C392.383 560.664 393.247 561.84 394.783 561.84C396.487 561.84 397.711 560.472 397.711 557.904V552H400.351V564H397.711V562.368C397.015 563.568 395.743 564.24 394.207 564.24C391.447 564.24 389.743 562.248 389.743 559.176ZM403.903 564V552H406.543V554.136C406.999 552.768 408.343 551.88 409.711 551.88C410.047 551.88 410.383 551.904 410.743 551.976V554.688C410.287 554.544 409.903 554.472 409.423 554.472C407.911 554.472 406.543 555.744 406.543 558.144V564H403.903ZM416.092 547.608C416.092 548.592 415.324 549.384 414.34 549.384C413.38 549.384 412.564 548.592 412.564 547.608C412.564 546.648 413.38 545.856 414.34 545.856C415.324 545.856 416.092 546.648 416.092 547.608ZM413.02 564V552H415.66V564H413.02ZM426.384 563.856C425.856 564.024 425.232 564.12 424.416 564.12C422.112 564.12 420.312 562.848 420.312 560.136V554.352H417.816V552H420.312V548.664H422.952V552H426.384V554.352H422.952V559.704C422.952 561.192 423.6 561.744 424.968 561.744C425.472 561.744 426 561.648 426.384 561.504V563.856ZM432.727 569.016H429.823L432.391 563.352L427.231 552H430.135L433.831 560.496L437.503 552H440.431L432.727 569.016Z" fill="black"/>
<line x1="349.861" y1="581.5" x2="434.861" y2="581.5" stroke="black"/>
<line x1="578.861" y1="645.5" x2="663.861" y2="645.5" stroke="black"/>
<line x1="119.862" y1="469.5" x2="204.862" y2="469.5" stroke="black"/>
<line x1="1046.86" y1="469.5" x2="1131.86" y2="469.5" stroke="black"/>
<line x1="795.861" y1="581.5" x2="880.861" y2="581.5" stroke="black"/>
<defs>
<clipPath id="clip0_6_603">
<rect width="637.902" height="440.402" fill="white" transform="translate(315.91 45.4023)"/>
</clipPath>
</defs>
</svg>
