<svg width="589" height="396" viewBox="0 0 589 396" fill="none" xmlns="http://www.w3.org/2000/svg">
<path d="M211.801 198.282C190.103 198.288 169.287 189.699 153.911 174.397C138.534 159.094 129.85 138.325 129.759 116.635V116.32C129.73 105.491 131.839 94.7631 135.965 84.7504C140.091 74.7376 146.153 65.6372 153.803 57.9706C161.454 50.3041 170.543 44.2221 180.549 40.0733C190.556 35.9245 201.283 33.7904 212.116 33.7932H335.26C345.976 33.7872 356.259 38.0156 363.868 45.5567C371.478 53.0979 375.797 63.3402 375.884 74.0512V75.4826C375.919 80.8366 374.894 86.1447 372.868 91.101C370.841 96.0572 367.854 100.564 364.078 104.361C360.302 108.158 355.812 111.171 350.866 113.226C345.92 115.281 340.616 116.338 335.26 116.335H333.828C323.076 116.354 312.77 120.634 305.17 128.237C297.57 135.84 293.295 146.145 293.284 156.893V157.716C293.293 168.48 297.578 178.799 305.195 186.405C312.813 194.012 323.14 198.284 333.907 198.282H375.948C386.739 198.181 397.443 200.218 407.441 204.276C417.44 208.334 426.535 214.333 434.201 221.925C441.867 229.517 447.953 238.552 452.105 248.508C456.258 258.465 458.397 269.145 458.397 279.932C458.397 290.72 456.258 301.4 452.105 311.356C447.953 321.313 441.867 330.348 434.201 337.94C426.535 345.532 417.44 351.53 407.441 355.588C397.443 359.646 386.739 361.684 375.948 361.583H375.354C364.62 361.592 353.989 359.488 344.069 355.389C334.149 351.291 325.134 345.279 317.539 337.697C309.943 330.115 303.916 321.111 299.803 311.201C295.689 301.29 293.569 290.666 293.563 279.936C293.56 269.207 291.443 258.584 287.332 248.673C283.221 238.763 277.197 229.759 269.604 222.176C262.011 214.594 252.999 208.581 243.08 204.481C233.162 200.381 222.533 198.274 211.801 198.282Z" fill="#E3FCF7"/>
<g clip-path="url(#clip0_90_19542)">
<path d="M164.697 217.026V299.602L287.4 263.944V181.367L164.697 217.026ZM255.083 211.366C255.083 213.98 252.966 216.718 250.358 217.478L201.739 231.604C199.131 232.364 197.013 230.858 197.013 228.244C197.013 225.629 199.131 222.892 201.739 222.132L250.358 208.005C252.966 207.246 255.083 208.751 255.083 211.366Z" fill="#00ED64" stroke="black" stroke-width="0.844828" stroke-linecap="round" stroke-linejoin="round"/>
<path d="M424.001 303.641L287.4 263.944V181.367L424.001 221.064V303.641Z" fill="#00ED64" stroke="black" stroke-width="0.844828" stroke-linecap="round" stroke-linejoin="round"/>
<path d="M301.291 339.484L424.001 303.825V221.249L301.291 256.908V339.484Z" fill="#B3FD34" stroke="black" stroke-width="0.844828" stroke-miterlimit="10"/>
<path d="M338.333 271.486L386.951 257.36C389.56 256.6 391.677 253.869 391.677 251.248C391.677 248.633 389.56 247.127 386.951 247.887L338.333 262.014C335.724 262.773 333.607 265.504 333.607 268.126C333.607 270.74 335.724 272.246 338.333 271.486Z" fill="white" stroke="black" stroke-width="0.844828" stroke-miterlimit="10"/>
<path d="M164.697 300.034L301.291 339.731V257.154L164.697 217.458V300.034Z" fill="#B3FD34" stroke="black" stroke-width="0.844828" stroke-miterlimit="10"/>
<path d="M221.544 316.549L164.697 300.034V217.458L198.502 227.279L221.544 316.549Z" fill="black"/>
<path d="M185.164 118.147H129.628C128.489 118.147 127.566 119.072 127.566 120.214V120.57C127.566 121.711 128.489 122.637 129.628 122.637H185.164C186.303 122.637 187.227 121.711 187.227 120.57V120.214C187.227 119.072 186.303 118.147 185.164 118.147Z" fill="#B3FD34" stroke="black" stroke-width="0.844828" stroke-miterlimit="10"/>
<path d="M354.293 84.2539H261.564C260.425 84.2539 259.502 85.1793 259.502 86.3209V86.6768C259.502 87.8183 260.425 88.7438 261.564 88.7438H354.293C355.432 88.7438 356.356 87.8183 356.356 86.6768V86.3209C356.356 85.1793 355.432 84.2539 354.293 84.2539Z" fill="#B3FD34" stroke="black" stroke-width="0.844828" stroke-miterlimit="10"/>
<path d="M244.805 62.9341H215.302C214.163 62.9341 213.24 63.8595 213.24 65.0011V65.357C213.24 66.4985 214.163 67.4239 215.302 67.4239H244.805C245.944 67.4239 246.868 66.4985 246.868 65.357V65.0011C246.868 63.8595 245.944 62.9341 244.805 62.9341Z" fill="#00D2FF" stroke="black" stroke-width="0.844828" stroke-miterlimit="10"/>
<path d="M299.946 51.0317H241.52C237.111 51.0317 233.537 54.6139 233.537 59.0327V91.6252C233.537 96.044 237.111 99.6261 241.52 99.6261H299.946C304.355 99.6261 307.929 96.044 307.929 91.6252V59.0327C307.929 54.6139 304.355 51.0317 299.946 51.0317Z" fill="#FFF5F4" stroke="black" stroke-width="0.844828" stroke-miterlimit="10"/>
<path d="M283.132 99.6261V51.0317" stroke="black" stroke-width="0.844828" stroke-miterlimit="10" stroke-linecap="round"/>
<path d="M258.334 99.6261V51.0317" stroke="black" stroke-width="0.844828" stroke-miterlimit="10" stroke-linecap="round"/>
<path d="M307.929 66.2671L283.132 77.9092L258.334 99.0854L233.537 83.7269" stroke="black" stroke-width="0.844828" stroke-linecap="round" stroke-linejoin="round"/>
<path d="M307.929 72.0847C311.135 72.0847 313.734 69.4801 313.734 66.2671C313.734 63.0541 311.135 60.4495 307.929 60.4495C304.723 60.4495 302.124 63.0541 302.124 66.2671C302.124 69.4801 304.723 72.0847 307.929 72.0847Z" fill="#00D2FF" stroke="black" stroke-width="0.844828" stroke-miterlimit="10"/>
<path d="M307.929 69.7649C309.856 69.7649 311.419 68.199 311.419 66.2674C311.419 64.3359 309.856 62.77 307.929 62.77C306.002 62.77 304.439 64.3359 304.439 66.2674C304.439 68.199 306.002 69.7649 307.929 69.7649Z" fill="#0D427C"/>
<path d="M283.131 83.7271C286.337 83.7271 288.936 81.1224 288.936 77.9094C288.936 74.6964 286.337 72.0918 283.131 72.0918C279.926 72.0918 277.327 74.6964 277.327 77.9094C277.327 81.1224 279.926 83.7271 283.131 83.7271Z" fill="#00D2FF" stroke="black" stroke-width="0.844828" stroke-miterlimit="10"/>
<path d="M283.132 81.4067C285.059 81.4067 286.621 79.8409 286.621 77.9093C286.621 75.9777 285.059 74.4119 283.132 74.4119C281.204 74.4119 279.642 75.9777 279.642 77.9093C279.642 79.8409 281.204 81.4067 283.132 81.4067Z" fill="#0D427C"/>
<path d="M258.334 104.903C261.54 104.903 264.139 102.298 264.139 99.0855C264.139 95.8725 261.54 93.2678 258.334 93.2678C255.128 93.2678 252.529 95.8725 252.529 99.0855C252.529 102.298 255.128 104.903 258.334 104.903Z" fill="#00D2FF" stroke="black" stroke-width="0.844828" stroke-miterlimit="10"/>
<path d="M258.334 102.583C260.262 102.583 261.824 101.017 261.824 99.0856C261.824 97.154 260.262 95.5881 258.334 95.5881C256.407 95.5881 254.844 97.154 254.844 99.0856C254.844 101.017 256.407 102.583 258.334 102.583Z" fill="#0D427C"/>
<path d="M233.537 89.5447C236.743 89.5447 239.342 86.9401 239.342 83.7271C239.342 80.5141 236.743 77.9094 233.537 77.9094C230.331 77.9094 227.732 80.5141 227.732 83.7271C227.732 86.9401 230.331 89.5447 233.537 89.5447Z" fill="#00D2FF" stroke="black" stroke-width="0.844828" stroke-miterlimit="10"/>
<path d="M233.537 87.2243C235.464 87.2243 237.026 85.6585 237.026 83.7269C237.026 81.7953 235.464 80.2295 233.537 80.2295C231.609 80.2295 230.047 81.7953 230.047 83.7269C230.047 85.6585 231.609 87.2243 233.537 87.2243Z" fill="#0D427C"/>
<path d="M195.443 320.443L261.257 339.566" stroke="black" stroke-width="0.844828" stroke-miterlimit="10" stroke-linecap="square" stroke-dasharray="1.69 1.69"/>
<path d="M199.827 331.127L248.268 345.206" stroke="black" stroke-width="0.844828" stroke-miterlimit="10" stroke-linecap="square" stroke-dasharray="1.69 1.69"/>
<path d="M364.667 118.174H286.785C277.918 118.174 270.729 125.378 270.729 134.265C270.729 143.152 277.918 150.356 286.785 150.356H364.667C373.535 150.356 380.723 143.152 380.723 134.265C380.723 125.378 373.535 118.174 364.667 118.174Z" fill="white" stroke="black" stroke-width="0.844828" stroke-miterlimit="10"/>
<path d="M282.012 137.886L291.013 134.272L282.012 130.631V126.613L296.585 132.718V135.819L282.012 141.91V137.886Z" fill="#00D2FF" stroke="black" stroke-width="0.844828" stroke-miterlimit="10"/>
<path d="M282.012 137.886L291.013 134.272L282.012 130.631V126.613L296.585 132.718V135.819L282.012 141.91V137.886Z" fill="#00D2FF" stroke="black" stroke-width="0.844828" stroke-miterlimit="10"/>
<path d="M301.468 134.265H368.587" stroke="black" stroke-width="0.844828" stroke-miterlimit="10" stroke-linecap="square" stroke-dasharray="1.69 1.69"/>
<path d="M218 107.395H159.575C155.166 107.395 151.591 110.977 151.591 115.395V147.988C151.591 152.407 155.166 155.989 159.575 155.989H218C222.409 155.989 225.983 152.407 225.983 147.988V115.395C225.983 110.977 222.409 107.395 218 107.395Z" fill="#FFF5F4" stroke="black" stroke-width="0.844828" stroke-miterlimit="10"/>
<path d="M201.179 155.982V107.395" stroke="black" stroke-width="0.844828" stroke-miterlimit="10" stroke-linecap="round"/>
<path d="M176.389 155.982V107.395" stroke="black" stroke-width="0.844828" stroke-miterlimit="10" stroke-linecap="round"/>
<path d="M225.977 140.083L201.179 120.303L176.389 107.395L151.591 140.083" stroke="black" stroke-width="0.844828" stroke-linecap="round" stroke-linejoin="round"/>
<path d="M225.977 145.9C229.183 145.9 231.782 143.296 231.782 140.083C231.782 136.87 229.183 134.265 225.977 134.265C222.771 134.265 220.172 136.87 220.172 140.083C220.172 143.296 222.771 145.9 225.977 145.9Z" fill="#00D2FF" stroke="black" stroke-width="0.844828" stroke-miterlimit="10"/>
<path d="M225.977 143.58C227.904 143.58 229.466 142.014 229.466 140.083C229.466 138.151 227.904 136.585 225.977 136.585C224.049 136.585 222.487 138.151 222.487 140.083C222.487 142.014 224.049 143.58 225.977 143.58Z" fill="#0D427C"/>
<path d="M201.179 126.121C204.385 126.121 206.984 123.516 206.984 120.303C206.984 117.09 204.385 114.485 201.179 114.485C197.973 114.485 195.374 117.09 195.374 120.303C195.374 123.516 197.973 126.121 201.179 126.121Z" fill="#00D2FF" stroke="black" stroke-width="0.844828" stroke-miterlimit="10"/>
<path d="M201.179 123.8C203.106 123.8 204.669 122.234 204.669 120.303C204.669 118.371 203.106 116.805 201.179 116.805C199.252 116.805 197.689 118.371 197.689 120.303C197.689 122.234 199.252 123.8 201.179 123.8Z" fill="#0D427C"/>
<path d="M176.389 113.212C179.595 113.212 182.194 110.608 182.194 107.395C182.194 104.182 179.595 101.577 176.389 101.577C173.183 101.577 170.584 104.182 170.584 107.395C170.584 110.608 173.183 113.212 176.389 113.212Z" fill="#00D2FF" stroke="black" stroke-width="0.844828" stroke-miterlimit="10"/>
<path d="M176.389 110.892C178.316 110.892 179.879 109.326 179.879 107.394C179.879 105.463 178.316 103.897 176.389 103.897C174.461 103.897 172.899 105.463 172.899 107.394C172.899 109.326 174.461 110.892 176.389 110.892Z" fill="#0D427C"/>
<path d="M151.591 145.9C154.797 145.9 157.396 143.296 157.396 140.083C157.396 136.87 154.797 134.265 151.591 134.265C148.385 134.265 145.786 136.87 145.786 140.083C145.786 143.296 148.385 145.9 151.591 145.9Z" fill="#00D2FF" stroke="black" stroke-width="0.844828" stroke-miterlimit="10"/>
<path d="M151.591 143.58C153.519 143.58 155.081 142.014 155.081 140.083C155.081 138.151 153.519 136.585 151.591 136.585C149.664 136.585 148.101 138.151 148.101 140.083C148.101 142.014 149.664 143.58 151.591 143.58Z" fill="#0D427C"/>
<path d="M447.494 97.1213H370.486C362.32 97.1213 355.7 103.756 355.7 111.939V114.485C355.7 122.669 362.32 129.303 370.486 129.303H447.494C455.66 129.303 462.279 122.669 462.279 114.485V111.939C462.279 103.756 455.66 97.1213 447.494 97.1213Z" fill="white" stroke="black" stroke-width="0.844828" stroke-miterlimit="10"/>
<path d="M366.976 116.833L375.977 113.219L366.976 109.578V105.56L381.549 111.665V114.766L366.976 120.857V116.833Z" fill="#00ED64"/>
<path d="M366.976 116.833L375.977 113.219L366.976 109.578V105.56L381.549 111.665V114.766L366.976 120.857V116.833Z" fill="#00ED64" stroke="black" stroke-width="0.844828" stroke-linecap="round" stroke-linejoin="round"/>
<path d="M386.432 113.212H450.137" stroke="black" stroke-width="0.844828" stroke-miterlimit="10" stroke-linecap="square" stroke-dasharray="1.69 1.69"/>
<path d="M407.993 160.273C407.993 166.173 406.395 170.622 403.192 173.62C399.989 176.672 395.29 178.171 389.151 178.171H311.712C308.407 178.171 305.928 178.897 304.227 180.341C302.527 181.792 301.646 183.859 301.646 186.501V189.088L300.048 190.689H293.027L291.429 189.088V186.501C291.429 183.811 290.603 181.792 288.848 180.341C287.147 178.89 284.668 178.171 281.363 178.171H203.918C197.724 178.171 193.025 176.672 189.877 173.62C186.674 170.567 185.076 166.118 185.076 160.273V153.86L186.674 152.259H191.167L192.766 153.86V158.514C192.766 163.121 195.449 165.393 200.77 165.393H279.649C284.142 165.393 287.858 166.481 290.849 168.603C293.84 170.725 295.595 173.62 296.114 177.24H297.098C297.617 173.62 299.42 170.725 302.466 168.603C305.511 166.481 309.329 165.393 313.877 165.393H392.401C397.721 165.393 400.405 163.114 400.405 158.514V153.86L402.003 152.259H406.497L408.095 153.86L407.993 160.273Z" fill="black" stroke="black" stroke-width="0.844828" stroke-linecap="round" stroke-linejoin="round"/>
<path d="M407.993 160.273C407.993 166.173 406.395 170.622 403.192 173.62C399.989 176.672 395.29 178.171 389.151 178.171H311.712C308.407 178.171 305.928 178.897 304.227 180.341C302.527 181.792 301.646 183.859 301.646 186.501V189.088L300.048 190.689H293.027L291.429 189.088V186.501C291.429 183.811 290.603 181.792 288.848 180.341C287.147 178.89 284.668 178.171 281.363 178.171H203.918C197.724 178.171 193.025 176.672 189.877 173.62C186.674 170.567 185.076 166.118 185.076 160.273V153.86L186.674 152.259H191.167L192.766 153.86V158.514C192.766 163.121 195.449 165.393 200.77 165.393H279.649C284.142 165.393 287.858 166.481 290.849 168.603C293.84 170.725 295.595 173.62 296.114 177.24H297.098C297.617 173.62 299.42 170.725 302.466 168.603C305.511 166.481 309.329 165.393 313.877 165.393H392.401C397.721 165.393 400.405 163.114 400.405 158.514V153.86L402.003 152.259H406.497L408.095 153.86L407.993 160.273Z" fill="black" stroke="black" stroke-width="0.844828" stroke-linecap="round" stroke-linejoin="round"/>
<path d="M296.585 177.24H296.121C295.602 173.62 293.847 170.725 290.856 168.603C287.864 166.481 284.142 165.393 279.655 165.393H200.77C195.449 165.393 192.766 163.114 192.766 158.514V153.86L191.167 152.259H186.674L185.076 153.86V160.273C185.076 166.118 186.674 170.567 189.877 173.62C193.025 176.672 197.724 178.171 203.918 178.171H281.356C284.661 178.171 287.14 178.897 288.841 180.341C290.596 181.792 291.422 183.804 291.422 186.501V189.088L293.021 190.689H296.585V177.24Z" fill="white" stroke="black" stroke-width="0.844828" stroke-linecap="round" stroke-linejoin="round"/>
<path d="M335.028 52.6333L343.79 57.6981L352.552 62.7697L343.79 67.8413L335.028 72.9129V62.7697V52.6333Z" fill="white" stroke="black" stroke-width="0.844828" stroke-linecap="round" stroke-linejoin="round"/>
<path d="M340.703 62.4893L335.028 72.9131L352.552 62.7699L340.703 62.4893Z" fill="black"/>
<path d="M340.703 62.4891L335.028 52.6333" stroke="black" stroke-width="0.844828" stroke-linecap="round" stroke-linejoin="round"/>
<path d="M424.001 192.12V202.92L433.33 208.32L442.659 202.92V192.12L433.33 186.72L424.001 192.12Z" fill="white" stroke="black" stroke-width="0.844828" stroke-linecap="round" stroke-linejoin="round"/>
<path d="M442.658 202.92V192.12L433.33 197.52V208.32L442.658 202.92Z" fill="black" stroke="black" stroke-width="0.211207" stroke-linecap="round" stroke-linejoin="round"/>
<path d="M424.001 192.12L433.33 197.52" stroke="black" stroke-width="0.844828" stroke-linecap="round" stroke-linejoin="round"/>
</g>
<defs>
<clipPath id="clip0_90_19542">
<rect width="335.397" height="294.845" fill="white" transform="translate(127.224 50.6897)"/>
</clipPath>
</defs>
</svg>
