<?xml version="1.0" encoding="UTF-8"?>
<!DOCTYPE svg PUBLIC "-//W3C//DTD SVG 1.1//EN" "http://www.w3.org/Graphics/SVG/1.1/DTD/svg11.dtd">
<svg version="1.1" xmlns="http://www.w3.org/2000/svg" xmlns:xlink="http://www.w3.org/1999/xlink" x="0" y="0" width="640" height="190" viewBox="0, 0, 640, 190">
  <g id="Layer_1">
    <g>
      <text transform="matrix(1, 0, 0, 1, 41.5, 17.5)">
        <tspan x="-36.5" y="7.5" font-family="Inconsolata" font-size="24" fill="#004571">UPDATE</tspan>
      </text>
      <text transform="matrix(1, 0, 0, 1, 116.5, 17.5)">
        <tspan x="-30.5" y="7.5" font-family="Inconsolata" font-size="24" fill="#3299CC">users </tspan>
      </text>
      <text transform="matrix(1, 0, 0, 1, 23.5, 47.5)">
        <tspan x="-18.5" y="7.5" font-family="Inconsolata" font-size="24" fill="#004571">SET</tspan>
      </text>
      <text transform="matrix(1, 0, 0, 1, 201.5, 47.5)">
        <tspan x="-114.5" y="7.5" font-family="Inconsolata" font-size="24" fill="#3299CC">name = 'amy' </tspan>
      </text>
      <text transform="matrix(1, 0, 0, 1, 35.5, 137.5)">
        <tspan x="-30.5" y="7.5" font-family="Inconsolata" font-size="24" fill="#004069">WHERE</tspan>
      </text>
      <text transform="matrix(1, 0, 0, 1, 189.167, 137.5)">
        <tspan x="-103.167" y="7.5" font-family="Inconsolata" font-size="24" fill="#3299CC">name = 'sue'</tspan>
      </text>
      <text transform="matrix(1, 0, 0, 1, 201.5, 77.5)" id="age_=_'26'">
        <tspan x="-114.5" y="7.5" font-family="Inconsolata" font-size="24" fill="#3299CC">age = '25'</tspan>
      </text>
      <text transform="matrix(1, 0, 0, 1, 201.5, 107.167)" id="status_=_'enrolled'">
        <tspan x="-114.5" y="7.5" font-family="Inconsolata" font-size="24" fill="#3299CC">status = 'enrolled'</tspan>
      </text>
      <text transform="matrix(1, 0, 0, 1, 98, 167.5)">
        <tspan x="-12" y="7.5" font-family="Inconsolata" font-size="24" fill="#3299CC">1</tspan>
      </text>
      <text transform="matrix(1, 0, 0, 1, 35.5, 167.5)">
        <tspan x="-30.5" y="7.5" font-family="Inconsolata" font-size="24" fill="#004069">LIMIT</tspan>
      </text>
    </g>
    <g>
      <g>
        <path d="M471,19.6 L331,19.4" fill-opacity="0" stroke="#6CB340" stroke-width="2"/>
        <path d="M331,12 L330.965,27 L321,19.408 L331,12 z" fill="#6CB340"/>
      </g>
      <text transform="matrix(1, 0, 0, 1, 504.996, 17.5)">
        <tspan x="-23.996" y="7.5" font-family="GillSans" font-size="24" fill="#3299CC">table</tspan>
      </text>
    </g>
    <g>
      <text transform="matrix(1, 0, 0, 1, 547.441, 49.5)">
        <tspan x="-66.441" y="7.5" font-family="GillSans" font-size="24" fill="#3299CC">update action</tspan>
      </text>
      <g>
        <path d="M471,49.7 L331,49.5" fill-opacity="0" stroke="#6CB340" stroke-width="2"/>
        <path d="M331,42 L330.965,57 L321,49.408 L331,42 z" fill="#6CB340"/>
      </g>
      <text transform="matrix(1, 0, 0, 1, 547.559, 79.5)">
        <tspan x="-66.441" y="7.5" font-family="GillSans" font-size="24" fill="#3299CC">update action</tspan>
      </text>
      <g>
        <path d="M471.117,79.9 L331.117,79.7" fill-opacity="0" stroke="#6CB340" stroke-width="2"/>
        <path d="M331.117,72 L331.082,87 L321.117,79.408 L331.117,72 z" fill="#6CB340"/>
      </g>
      <text transform="matrix(1, 0, 0, 1, 547.559, 109.5)">
        <tspan x="-66.441" y="7.5" font-family="GillSans" font-size="24" fill="#3299CC">update action</tspan>
      </text>
      <g>
        <path d="M471.117,109.2 L331.117,109" fill-opacity="0" stroke="#6CB340" stroke-width="2"/>
        <path d="M331,101.5 L330.965,116.5 L321,108.908 L331,101.5 z" fill="#6CB340"/>
      </g>
    </g>
    <g>
      <text transform="matrix(1, 0, 0, 1, 540.943, 139.5)">
        <tspan x="-59.943" y="7.5" font-family="GillSans" font-size="24" fill="#3299CC">update filter</tspan>
      </text>
      <g>
        <path d="M471,139.6 L331,139.4" fill-opacity="0" stroke="#6CB340" stroke-width="2"/>
        <path d="M331,132 L330.965,147 L321,139.408 L331,132 z" fill="#6CB340"/>
      </g>
    </g>
    <g>
      <text transform="matrix(1, 0, 0, 1, 538.957, 167.5)">
        <tspan x="-57.957" y="7.5" font-family="GillSans" font-size="24" fill="#3299CC">update limit</tspan>
      </text>
      <g>
        <path d="M471,169.8 L331,169.6" fill-opacity="0" stroke="#6CB340" stroke-width="2"/>
        <path d="M331,162 L330.965,177 L321,169.408 L331,162 z" fill="#6CB340"/>
      </g>
    </g>
  </g>
</svg>
