<svg width="680px" height="580px" viewBox="0 0 680 580" xmlns="http://www.w3.org/2000/svg">
  <defs>
    <marker id="arrow" viewBox="0 0 10 10" refX="8" refY="5" markerWidth="6" markerHeight="6" orient="auto-start-reverse">
      <path d="M2 1L8 5L2 9" fill="none" stroke="context-stroke" stroke-width="1.5" stroke-linecap="round" stroke-linejoin="round"/>
    </marker>
  <mask id="imagine-text-gaps-70u4lk" maskUnits="userSpaceOnUse"><rect x="0" y="0" width="680" height="580" fill="white"/><rect x="81.05724334716797" y="16.680551528930664" width="127.88550567626953" height="18.63889980316162" fill="black" rx="2"/><rect x="204.66305541992188" y="58.91666030883789" width="270.6737976074219" height="18.166677474975586" fill="black" rx="2"/><rect x="153.61477661132812" y="97.44444274902344" width="62.77043914794922" height="19.111122131347656" fill="black" rx="2"/><rect x="156.8244171142578" y="118.33332824707031" width="56.35116195678711" height="15.333341598510742" fill="black" rx="2"/><rect x="323.6147766113281" y="97.44444274902344" width="62.77043914794922" height="19.111122131347656" fill="black" rx="2"/><rect x="326.8244323730469" y="118.33332824707031" width="56.35116195678711" height="15.333341598510742" fill="black" rx="2"/><rect x="466" y="100.08332824707031" width="100.32691955566406" height="16.34935188293457" fill="black" rx="2"/><rect x="466" y="114.08332824707031" width="67.30085372924805" height="16.277786254882812" fill="black" rx="2"/><rect x="276.40032958984375" y="160.08331298828125" width="127.19930267333984" height="16.34935188293457" fill="black" rx="2"/><rect x="246.6321258544922" y="306.6805419921875" width="86.73573303222656" height="18.63889980316162" fill="black" rx="2"/><rect x="241.54466247558594" y="325.3333435058594" width="96.91065216064453" height="15.333341598510742" fill="black" rx="2"/><rect x="112" y="344.08331298828125" width="113.78523254394531" height="16.277786254882812" fill="black" rx="2"/><rect x="112" y="364.08331298828125" width="130.2687530517578" height="16.277786254882812" fill="black" rx="2"/><rect x="112" y="384.0833435058594" width="139.440185546875" height="16.34935188293457" fill="black" rx="2"/><rect x="137.5" y="488.44439697265625" width="119" height="19.111122131347656" fill="black" rx="2"/><rect x="160" y="509.86114501953125" width="74" height="16.277786254882812" fill="black" rx="2"/><rect x="312.5" y="488.44439697265625" width="119" height="19.111122131347656" fill="black" rx="2"/><rect x="335" y="509.86114501953125" width="74" height="16.277786254882812" fill="black" rx="2"/><rect x="476" y="492.08331298828125" width="73.4175796508789" height="16.277786254882812" fill="black" rx="2"/><rect x="476" y="506.0833435058594" width="58.12937545776367" height="16.277786254882812" fill="black" rx="2"/></mask></defs>

  <!-- Kubernetes Cluster outer container -->
  <rect x="30" y="20" width="620" height="540" rx="16" fill="none" stroke="#00684A" stroke-width="1.5" stroke-dasharray="6 4"/>
  <rect x="50" y="10" width="190" height="24" rx="6" fill="#00684A"/>
  <text x="145" y="26" text-anchor="middle" dominant-baseline="central" font-family="sans-serif" font-size="13" font-weight="600" fill="#ffffff">Kubernetes Cluster</text>

  <!-- Operator-Managed Sharded Cluster container -->
  <rect x="55" y="44" width="590" height="180" rx="12" fill="#E3F5ED" stroke="#00684A" stroke-width="1" stroke-dasharray="5 3"/>
  <text x="340" y="68" text-anchor="middle" dominant-baseline="central" font-family="sans-serif" font-size="12" font-weight="600" fill="#00684A">Operator-Managed MongoDB Sharded Cluster</text>

  <!-- shard-0 -->
  <rect x="120" y="84" width="130" height="56" rx="8" fill="#ffffff" stroke="#00684A" stroke-width="1.5"/>
  <text x="185" y="107" text-anchor="middle" dominant-baseline="central" font-family="monospace" font-size="13" font-weight="700" fill="#001E2B">shard-0</text>
  <text x="185" y="126" text-anchor="middle" dominant-baseline="central" font-family="sans-serif" font-size="10" fill="#3D4F58">ReplicaSet</text>

  <!-- shard-1 -->
  <rect x="290" y="84" width="130" height="56" rx="8" fill="#ffffff" stroke="#00684A" stroke-width="1.5"/>
  <text x="355" y="107" text-anchor="middle" dominant-baseline="central" font-family="monospace" font-size="13" font-weight="700" fill="#001E2B">shard-1</text>
  <text x="355" y="126" text-anchor="middle" dominant-baseline="central" font-family="sans-serif" font-size="10" fill="#3D4F58">ReplicaSet</text>

  <!-- mongod managed label -->
  <text x="470" y="112" font-family="sans-serif" font-size="11" fill="#3D4F58">(mongod managed</text>
  <text x="470" y="126" font-family="sans-serif" font-size="11" fill="#3D4F58"> by operator)</text>

  <!-- TLS label and arrows down -->
  <text x="340" y="172" text-anchor="middle" font-family="sans-serif" font-size="11" fill="#3D4F58">TLS (SNI-based routing)</text>
  <line x1="185" y1="140" x2="185" y2="285" stroke="#00684A" stroke-width="1.2" marker-end="url(#arrow)"/>
  <line x1="355" y1="140" x2="355" y2="285" stroke="#00684A" stroke-width="1.2" marker-end="url(#arrow)" mask="url(#imagine-text-gaps-70u4lk)"/>

  <!-- Envoy Proxy box -->
  <rect x="80" y="290" width="420" height="110" rx="10" fill="#001E2B" stroke="#00ED64" stroke-width="1.5"/>
  <text x="290" y="316" text-anchor="middle" dominant-baseline="central" font-family="sans-serif" font-size="13" font-weight="700" fill="#00ED64">Envoy Proxy</text>
  <text x="290" y="333" text-anchor="middle" dominant-baseline="central" font-family="sans-serif" font-size="10" fill="#9BCFC3">(operator-managed)</text>
  <circle cx="104" cy="352" r="3" fill="#00ED64"/>
  <text x="116" y="356" font-family="sans-serif" font-size="11" fill="#C0DED9">Listens on port 27029</text>
  <circle cx="104" cy="372" r="3" fill="#00ED64"/>
  <text x="116" y="376" font-family="sans-serif" font-size="11" fill="#C0DED9">Routes by SNI hostname</text>
  <circle cx="104" cy="392" r="3" fill="#00ED64"/>
  <text x="116" y="396" font-family="sans-serif" font-size="11" fill="#C0DED9">mTLS to mongot backends</text>

  <!-- Arrows from Envoy down to mongot StatefulSets -->
  <line x1="200" y1="400" x2="200" y2="470" stroke="#00684A" stroke-width="1.2" marker-end="url(#arrow)" mask="url(#imagine-text-gaps-70u4lk)"/>
  <line x1="370" y1="400" x2="370" y2="470" stroke="#00684A" stroke-width="1.2" marker-end="url(#arrow)"/>

  <!-- mongot-shard-0 StatefulSet -->
  <rect x="120" y="475" width="155" height="64" rx="8" fill="#ffffff" stroke="#00684A" stroke-width="1.5"/>
  <text x="197" y="498" text-anchor="middle" dominant-baseline="central" font-family="monospace" font-size="13" font-weight="700" fill="#001E2B">mongot-shard-0</text>
  <text x="197" y="518" text-anchor="middle" dominant-baseline="central" font-family="sans-serif" font-size="11" fill="#3D4F58">(StatefulSets)</text>

  <!-- mongot-shard-1 StatefulSet -->
  <rect x="295" y="475" width="155" height="64" rx="8" fill="#ffffff" stroke="#00684A" stroke-width="1.5"/>
  <text x="372" y="498" text-anchor="middle" dominant-baseline="central" font-family="monospace" font-size="13" font-weight="700" fill="#001E2B">mongot-shard-1</text>
  <text x="372" y="518" text-anchor="middle" dominant-baseline="central" font-family="sans-serif" font-size="11" fill="#3D4F58">(StatefulSets)</text>

  <!-- Search pods label -->
  <text x="480" y="504" font-family="sans-serif" font-size="11" fill="#3D4F58">(Search pods</text>
  <text x="480" y="518" font-family="sans-serif" font-size="11" fill="#3D4F58"> per shard)</text>

  <!-- MongoDB leaf logo mark (simplified) -->
  <g transform="translate(612, 32)">
    <path d="M10 0 C10 0, 18 8, 18 16 C18 24, 10 28, 10 28 C10 28, 2 24, 2 16 C2 8, 10 0, 10 0Z" fill="#00ED64"/>
    <line x1="10" y1="14" x2="10" y2="30" stroke="#00684A" stroke-width="2" stroke-linecap="round"/>
  </g>
</svg>
