<svg xmlns="http://www.w3.org/2000/svg" viewBox="0, 0, 820, 590" height="590" width="820"><path d="M339 210.3h111.1v17.5h-111z" fill="#afd1e8"/><path d="M343 222.8q1 0 1.7-.8l.6.7q-1 1-2.3 1-1 0-1.7-.4-.7-.5-1.1-1.2-.4-.8-.4-1.7 0-1 .4-1.7.4-.8 1.1-1.2.7-.5 1.7-.5.7 0 1.4.4.6.3 1 .8l-.7.6q-.4-.5-.8-.7-.4-.2-1-.2t-1 .3q-.5.3-.8.8-.3.6-.3 1.3 0 .7.3 1.3.3.6.8.9.5.3 1.1.3zm1.6-4h.1v.1h-.1zm.1 0q.1.2 0 .1zm4.3 4.9q-1 0-1.5-.7-.6-.8-.6-2.3v-3.5h1v3.5q0 1.2.4 1.7t1 .5q.8 0 1.2-.6.5-.5.5-1.6v-3.5h1v5.9l.2.5h-1l-.1-.5v-.5q-.3.5-.9.8-.5.3-1.1.3zm8-3.9q1.1.4 1.6.8t.5 1.1q0 .9-.6 1.4-.7.6-2 .6-1.6 0-2.7-1l.5-1q.5.6 1 .9.4.3 1.2.3.8 0 1.2-.3.4-.3.4-.8 0-.4-.3-.6-.4-.3-1.3-.6-2.4-.7-2.4-2 0-.7.6-1.2.6-.4 1.8-.4.8 0 1.4.3.6.2 1.1.7l-.5.7-.9-.7-1-.2q-.7 0-1 .2-.5.2-.5.6 0 .3.4.6t1.4.6zm1.3-1q0-.1.1 0h-.1zm.1 0zm-3.9 2.9h-.1.1zm-.1 0zm11.8 1.3q-1 .7-2 .7-1.1 0-1.5-.7-.5-.6-.5-2v-1l.2-2H361v-.8h1.4l.1-1.7 1.1-.2h.2l-.2.3v.3l-.2 1.3h2.2v.8h-2.2l-.1 2.2v.7q0 1.1.2 1.5.2.4.8.4l.8-.1.8-.5.3.8zm1.3 1.7v-.9h6v.9h-6zm7.9-1.1v-.8h1.6V218h-1.5v-.8h2.5v5.6h1.5v.8h-4.1zm2-7.8l-.4-.2q-.2-.2-.2-.5l.1-.5.6-.2q.3 0 .5.2t.2.5q0 .3-.2.5t-.5.2zm6.9 7.9q-.7 0-1.3-.4-.6-.4-1-1.1-.4-.8-.4-1.9 0-1.1.4-1.8.4-.8 1-1.1.6-.4 1.3-.4.7 0 1.1.3.5.3.8.8v-3.8h1v9.3h-1v-1q-.4.5-.9.8-.4.3-1 .3zm.1-.9q.9 0 1.3-.7t.4-1.8q0-1.1-.5-1.8-.4-.7-1.3-.7-.8 0-1.3.7-.4.6-.4 1.6 0 1.3.5 2 .4.7 1.3.7zm6.9-3.5q-.3 0-.6-.3-.2-.2-.2-.5 0-.4.2-.6.3-.3.6-.3t.6.3q.3.2.3.6 0 .3-.3.5-.3.3-.6.3zm0 4.4l-.6-.2q-.2-.2-.2-.6l.2-.6.6-.2.6.2q.3.3.3.6t-.3.6q-.2.2-.6.2zm13.7-9.4v1.7l-.2 1.2v.7h-.7v-.7l-.2-1.2v-1.7h1zm2 0v2.9l-.1.7h-.7v-.7l-.2-1.2v-1.7h1zm7.7 9.3l-.8-2.6H411l-1 2.6h-.9l3.2-9h.1l3.3 9h-1zm-3.4-3.3h2.3l-1.1-3.4-1.2 3.4zm7.9 3.3V216l-1.8.6-.2-.6 2.3-1.2h.7v8.8h-1zm4.8-.8l1.1-1.2 1.7-1.7 1-1.3q.3-.7.3-1.4 0-.8-.4-1.2-.4-.4-1.1-.4-.6 0-1.1.3l-.7.6-.2.3v.3l-.8-.6q.4-.8 1.1-1.3.8-.4 1.7-.4 1.1 0 1.8.7.7.6.7 1.8 0 .7-.4 1.4-.3.8-1 1.4l-1.5 1.6-1 1h3.7l.2-.1h.1v1H424v-.8zm10.3-3.8q.8.2 1.2.8.5.5.5 1.4 0 .7-.4 1.3-.3.5-.8.9-.6.3-1.5.3-.7 0-1.3-.2-.6-.3-1-.8l.6-.7.7.6q.4.3 1 .3.8 0 1.2-.5.4-.5.4-1.3t-.5-1.3q-.5-.4-1.5-.4h-.4v-.8q1.2 0 1.7-.4.5-.5.5-1.3 0-.6-.4-1-.3-.3-.9-.3-.9 0-1.6.7l-.6-.6q.9-1 2.2-1 1 0 1.6.7.7.6.7 1.6 0 .7-.4 1.2-.3.5-1 .7zm-2.5 3h-.2v-.2l.2.1zm-.2 0v-.1zm8.4-7.7v1.7l-.2 1.2v.7h-.7v-.7l-.2-1.2v-1.7h1zm2 0v2.9l-.1.7h-.7v-.7l-.2-1.2v-1.7h1zm4.3 11.2l.6-.8q.3-.4.3-.7v-.2l-.3-.2-.3-.3-.1-.4q0-.3.2-.5.2-.3.6-.3.4 0 .7.4.3.3.3.8 0 1-1.5 2.6l-.5-.4z" font-size="14" font-family="Inconsolata" fill="#13206f"/><path d="M340 319.4h111.2v17.5H340z" fill="#afd1e8"/><path d="M344 333.1q1 0 1.7-.8l.6.7q-1 1-2.3 1-1 0-1.7-.4t-1.1-1.2q-.4-.8-.4-1.7 0-1 .4-1.7.4-.8 1.1-1.2.8-.4 1.7-.4.7 0 1.4.3.6.3 1 .8l-.6.7q-.5-.6-.9-.8-.4-.2-1-.2t-1 .3q-.5.3-.8.9-.3.5-.3 1.2t.3 1.3q.3.6.8 1 .5.2 1.1.2zm1.6-4l.1.1h-.1zm.1 0q.1.2 0 .1zm4.3 4.9q-1 0-1.5-.7-.6-.8-.6-2.2v-3.6h1v3.6q0 1.1.4 1.6t1 .5q.8 0 1.3-.5.5-.6.5-1.7v-3.5h1v6.4h-.9l-.1-.4v-.6q-.3.5-.9.8-.5.3-1.1.3zm8-3.9q1.2.4 1.7.8t.5 1.1q0 .9-.7 1.5-.7.5-2 .5-1.6 0-2.7-1l.6-1q.4.6.9.9.4.3 1.2.3.8 0 1.2-.3.5-.3.5-.7 0-.4-.4-.7-.3-.3-1.2-.6-2.5-.7-2.5-2 0-.7.6-1.1.7-.5 1.8-.5.9 0 1.5.3.6.2 1 .7l-.5.7q-.3-.4-.9-.6-.5-.3-1-.3-.7 0-1 .2-.4.2-.4.6 0 .3.3.6.4.3 1.5.6zm1.3-1h.1-.1zm.2 0zm-4 3h-.1v-.2h.1v.1zm-.1 0v-.1zm11.8 1.2q-1 .7-2 .7t-1.5-.7q-.5-.6-.5-2v-.9l.2-2H362v-1h1.4l.1-1.6 1.2-.2h.1l-.1.3v.3l-.2 1.3h2v.8h-2.1l-.1 2.2v.7q0 1.1.2 1.5.3.4.8.4l.8-.1.8-.5.3.8zm1.3 1.7v-.8h6v.8h-6zm7.9-1.1v-.8h1.6v-4.8h-1.5v-.8h2.5v5.6h1.5v.8h-4.1zm2-7.8l-.4-.2q-.2-.2-.2-.5t.2-.5q.2-.2.5-.2t.5.2q.2.2.2.5t-.2.5q-.2.2-.5.2zm6.9 7.9q-.7 0-1.3-.4-.6-.3-1-1.1t-.4-1.9q0-1 .4-1.8t1-1.1q.6-.4 1.3-.4.7 0 1.1.3.5.3.8.8v-3.8h1v9.3h-1v-1q-.4.5-.9.8-.4.3-1 .3zm.1-.9q.9 0 1.3-.6.4-.7.4-1.8 0-1.2-.4-1.9-.5-.7-1.4-.7-.8 0-1.2.7-.5.6-.5 1.7 0 1.2.5 2 .4.6 1.3.6zm6.9-3.5q-.3 0-.5-.3-.3-.2-.3-.5 0-.4.2-.6l.6-.2q.4 0 .6.2.3.2.3.6 0 .3-.3.5-.2.3-.6.3zm0 4.4l-.6-.2q-.2-.2-.2-.6 0-.3.2-.5.3-.3.6-.3.4 0 .6.3.3.2.3.5 0 .4-.3.6-.2.2-.6.2zm13.7-9.4v1.7l-.1 1.2-.1.7h-.7v-.7l-.2-1.2v-1.7h1.1zm2.1 0v1.7l-.1 1.2-.1.7h-.7v-.7l-.2-1.2v-1.7h1.1zm7.7 9.3l-1-2.6h-2.7l-1 2.6h-.9l3.2-8.9h.2l3.2 8.9h-1zm-3.5-3.3h2.3l-1.1-3.4-1.2 3.4zm7.9 3.3v-7.5l-1.7.5-.3-.6 2.3-1.2h.7v8.8h-1zm4.8-.8l1.2-1.1 1.6-1.8 1-1.3q.3-.6.3-1.3 0-.9-.4-1.3-.4-.3-1-.3-.7 0-1.2.2l-.7.6q0 .2-.2.3v.3l-.8-.6q.4-.8 1.2-1.2.7-.5 1.6-.5 1.1 0 1.8.7t.7 1.8q0 .8-.4 1.5-.3.7-.9 1.3l-1.6 1.7-1 1h3.3l.3-.1.2-.1h.1v1h-5v-.8zm10.3-3.8q.8.2 1.2.8.5.5.5 1.4 0 .7-.3 1.3-.3.6-1 .9-.5.3-1.3.3l-1.4-.2q-.6-.3-1-.8l.6-.7.7.7q.4.2 1 .2.8 0 1.2-.5.5-.5.5-1.3t-.6-1.3q-.5-.4-1.4-.4h-.5v-.7q1.3 0 1.7-.5.5-.5.5-1.3 0-.6-.4-.9-.3-.4-.9-.4-.9 0-1.6.7l-.6-.6q.9-.9 2.2-.9 1 0 1.7.6.6.6.6 1.6 0 .7-.4 1.2-.3.6-1 .8zm-2.5 3h-.2l.1-.1zm-.2 0v-.1zm8.4-7.7v1.7l-.1 1.2-.1.7h-.7v-.7l-.2-1.2v-1.7h1.1zm2.1 0v1.7l-.1 1.2-.1.7h-.7v-.7l-.2-1.2v-1.7h1.1zm4.2 11.2q.4-.3.6-.8.3-.4.3-.7v-.2l-.3-.2-.3-.3-.1-.3q0-.4.2-.6.3-.3.6-.3.4 0 .7.4.3.3.3.8 0 1.1-1.5 2.6l-.5-.4z" font-size="14" font-family="Inconsolata" fill="#13206f"/><path d="M310 185h172.2v320.2H310z" stroke="#13206f" fill="none"/><path d="M330.8 320q-1 0-1.7-.3-.7-.2-1-.7-.3-.5-.3-1.5v-1.4q0-.9-.2-1.2-.3-.4-1-.4h-.3v-.7h.3q.7 0 1-.4.3-.4.3-1.1v-1q0-2.5 2.5-2.5h.9v.8h-1.2q-1.3 0-1.3 1.5v1q0 1.5-1.1 2 1.1.4 1.1 2.2v1.2q0 1 .4 1.3.4.4 1.4.4h.7v.8h-.5zm13.8 22.2q1.3 0 2 .7.8.7.8 2.4v3.4h-1.1v-1q-.6 1.2-2.2 1.2-1 0-1.7-.5-.6-.5-.6-1.3 0-.7.5-1.2.4-.5 1.1-.7.8-.3 1.7-.3h1.4q0-1-.6-1.4-.5-.5-1.4-.5l-1 .2-.7.5-.5-.6q.9-1 2.3-1zm-.4 6q1 0 1.6-.7.6-.6.7-1.8H345q-1 0-1.6.3-.7.3-.7 1 0 1.1 1.4 1.1zm4.5-5.9h.9v.7q.2-.4.6-.6.3-.2.7-.2.4 0 .7.2.4.3.4.7.2-.4.6-.7.4-.2.9-.2.6 0 1 .4.2.5.2 1.2v5h-1v-5.6q-.2-.3-.5-.3t-.5.3l-.4.6-.1.7v4.2h-1v-4.4l-.1-1q-.2-.4-.6-.4l-.4.2-.4.6-.1.8v4.2h-1v-6.4zm9.9 6.5q-.8 0-1.5-.4t-1-1.2q-.4-.7-.4-1.7t.4-1.7q.3-.8 1-1.2.7-.4 1.5-.4.9 0 1.6.4.6.4 1 1.2.4.8.4 1.7 0 1-.4 1.7-.4.8-1 1.2-.7.4-1.6.4zm0-.8q.6 0 1-.3t.7-.9q.2-.6.2-1.3 0-1-.5-1.8-.5-.7-1.4-.7-.8 0-1.3.7t-.5 1.8q0 .7.2 1.3.2.6.7.9.4.3 1 .3zm6.6.9q-1 0-1.6-.8-.6-.7-.6-2.2v-3.6h1v3.6q0 1.1.4 1.7.4.5 1 .5.8 0 1.3-.6t.5-1.6v-3.6h1v6l.1.4h-1v-1q-.4.6-1 .9-.4.3-1 .3zm5-6.6h1v1.2q.3-.6.9-1 .6-.3 1.2-.3.9 0 1.4.6.5.7.5 2v4h-1v-4q0-.9-.3-1.3t-.9-.4l-.9.2-.7.7q-.3.5-.3 1v3.7h-1v-6.4zm12.2 5.8q-1 .7-2 .7-1.1 0-1.6-.6-.4-.7-.4-2.1v-.8l.1-2.1h-1.4v-.9h1.5v-1.7l1.2-.2h.2v.1l-.2.2v.4l-.2 1.2h2.1v.9h-2.2v2.1l-.1.8q0 1 .2 1.5.3.4.9.4l.8-.2.8-.5.3.8zm4.1-3.7l-.6-.2-.2-.6.2-.6q.2-.2.6-.2l.6.2.2.6-.2.6-.6.2zm0 4.5q-.4 0-.6-.2-.3-.3-.3-.6 0-.4.3-.6.2-.2.6-.2l.6.2q.2.2.2.6 0 .3-.2.5-.3.3-.6.3zm11.7-.9l1.1-1.2 1.7-1.8q.6-.6.9-1.3.3-.6.3-1.3 0-.8-.4-1.2-.4-.4-1-.4t-1.2.3q-.5.2-.6.6l-.2.3v.2h-.1l-.7-.6q.4-.8 1.1-1.2.7-.4 1.6-.4 1.2 0 1.8.6.7.7.7 1.8 0 .8-.3 1.5l-1 1.4-1.5 1.6-1 1h3.6l.2-.2v1h-5v-.8zm9.5-5q.8 0 1.4.4.6.4 1 1 .3.7.3 1.6 0 .9-.4 1.5-.3.7-1 1-.6.4-1.4.4-.8 0-1.5-.4-.6-.3-1-1l.7-.6.8.9q.4.2 1 .2l1-.2.5-.8q.3-.4.3-1 0-1-.5-1.6-.5-.5-1.3-.5-.5 0-.9.2t-.7.6l-.7-.3.3-4.4h4.5v.9h-3.6l-.2 2.5q.7-.3 1.4-.3zm-1.9 4q0-.2 0 0zm.2 0h-.1v-.1zm8.6-7q1.3 0 2 1.1.7 1.2.7 3.3 0 2.2-.7 3.3-.7 1.2-2 1.2t-2-1.2q-.7-1.1-.7-3.3 0-2 .7-3.3.8-1.2 2-1.2zm0 .8q-.8 0-1.2 1-.4 1-.4 2.6v1.6l3-3.8q-.2-.7-.5-1-.4-.4-.9-.4zm0 7.2q.8 0 1.3-1 .4-.8.4-2.6V343l-3 3.8q.4 1.2 1.3 1.2zm5.9 2.7l.6-.8q.3-.4.3-.7l-.1-.2-.3-.3-.3-.3v-.3l.2-.6q.2-.2.6-.2.4 0 .6.3.3.3.3.8 0 1.1-1.5 2.7l-.4-.4zM345.1 362q1.2.3 1.7.8.5.4.5 1 0 1-.7 1.5-.7.6-2 .6-1.6 0-2.7-1l.6-1q.5.6 1 .8.4.3 1.2.3.7 0 1.2-.2.4-.3.4-.8 0-.4-.3-.7l-1.3-.5q-2.4-.7-2.4-2 0-.8.6-1.2.6-.4 1.7-.4 1 0 1.5.2.6.3 1 .8l-.5.7q-.3-.5-.8-.7-.6-.3-1.1-.3-.6 0-1 .2-.4.3-.4.6 0 .4.4.7.4.3 1.4.6zm1.3-1q0-.1.2 0h-.1zm.2-.1zm-4 3v-.1zm0 0h-.1zm11.8 1.2q-1 .7-2 .7-1.1 0-1.6-.6-.4-.7-.4-2.1v-.8l.1-2.1h-1.4v-.9h1.5v-1.7l1.2-.2h.2v.1l-.2.2v.4l-.2 1.2h2.1v.9h-2.2v2.1l-.1.8q0 1 .2 1.5.3.4.9.4l.8-.2.8-.5.3.8zm4.2-5.9q1.3 0 2 .7.8.7.8 2.4v3.4h-1.1v-1q-.6 1.2-2.2 1.2-1 0-1.7-.5-.6-.5-.6-1.3 0-.7.5-1.2.4-.5 1.1-.7.8-.3 1.7-.3h1.4q0-1-.6-1.4-.5-.5-1.4-.5l-1 .2-.7.5-.5-.6q.9-1 2.3-1zm-.4 6q1 0 1.6-.7.6-.6.7-1.8H359q-1 0-1.6.3-.7.3-.7 1 0 1.1 1.4 1.1zm10.2-.1q-1 .7-2 .7-1.1 0-1.6-.6-.4-.7-.4-2.1v-.8l.1-2.1h-1.4v-.9h1.5v-1.7l1.2-.2h.2v.1l-.2.2v.4l-.2 1.2h2.1v.9h-2.2v2.1l-.1.8q0 1 .2 1.5.3.4.9.4l.8-.2.8-.5.3.8zm3.8.8q-1 0-1.6-.8-.6-.7-.6-2.2v-3.6h1v3.6q0 1.1.4 1.7.4.5 1 .5.8 0 1.3-.6t.5-1.6v-3.6h1v6l.1.4h-1v-1q-.4.6-1 .9-.4.3-1 .3zm7.9-3.9q1.2.3 1.7.8.5.4.5 1 0 1-.7 1.5-.7.6-2 .6-1.6 0-2.7-1l.6-1q.5.6 1 .8.4.3 1.2.3.7 0 1.2-.2.4-.3.4-.8 0-.4-.3-.7l-1.3-.5q-2.4-.7-2.4-2 0-.8.6-1.2.6-.4 1.7-.4 1 0 1.5.2.6.3 1 .8l-.5.7q-.3-.5-.8-.7-.6-.3-1.1-.3-.6 0-1 .2-.4.3-.4.6 0 .4.4.7.4.3 1.4.6zm1.3-1q0-.1.2 0h-.1zm.2-.1zm-4 3v-.1zm0 0h-.1zm8.9-2.5l-.6-.2-.2-.6.2-.6q.2-.2.6-.2l.6.2.2.6-.2.6-.6.2zm0 4.5q-.4 0-.6-.2-.3-.3-.3-.6 0-.4.3-.6.2-.2.6-.2l.6.2q.2.2.2.6 0 .3-.2.5-.3.3-.6.3zm13.7-9.5v1.8l-.2 1.2v.6h-.7l-.1-.6-.1-1.2v-1.8h1zm2 0v3l-.2.6h-.6l-.1-.6-.1-1.2v-1.8h1zm7.8 9.3l-1-2.5h-2.8l-.9 2.5h-1l3.3-8.8h.1l3.2 8.8h-1zm-3.5-3.3h2.3l-1.2-3.3-1.1 3.3zm7.7-6v1.8l-.2 1.2v.6h-.7l-.1-.6-.1-1.2v-1.8h1zm2 0v3l-.2.6h-.6l-.1-.6-.1-1.2v-1.8h1zM326.4 384v-.8h.7q1 0 1.3-.4.4-.4.4-1.3v-1.2q0-1.8 1.2-2.2-1.2-.5-1.2-2v-1q0-1.5-1.3-1.5h-1.2v-.8h1q2.5 0 2.5 2.4v1q0 .8.3 1.2.3.4 1 .4h.2v.7h-.3q-.6 0-1 .4-.2.3-.2 1.2v1.4q0 1-.3 1.5t-1 .7q-.6.3-1.6.3h-.5zm4.4-173.2q-1 0-1.7-.2t-1-.7q-.3-.6-.3-1.5V207q0-1-.2-1.2-.3-.4-1-.4h-.3v-.8h.3q.7 0 1-.3.3-.4.3-1.2v-1q0-2.4 2.5-2.4h.9v.8h-1.2q-1.3 0-1.3 1.5v1q0 1.5-1.1 2 1.1.4 1.1 2.2v1.2q0 .9.4 1.3.4.3 1.4.3h.7v.8h-.5zm13.8 22.2q1.3 0 2 .8.8.7.8 2.4v3.4h-1.1v-1q-.6 1.1-2.2 1.1-1 0-1.7-.4-.6-.5-.6-1.3 0-.7.5-1.2.4-.5 1.1-.8l1.6-.2h1.5q0-1-.6-1.5-.5-.4-1.4-.4l-1 .2q-.4.1-.7.5l-.5-.7q.9-.8 2.3-.8zm-.4 6q1 0 1.6-.6.6-.6.7-1.8H345q-1 0-1.6.3-.7.3-.7 1 0 1 1.4 1zm4.5-5.8h.9v.6q.2-.3.6-.5.3-.3.7-.3.4 0 .7.3.4.3.4.7.2-.4.6-.7.4-.3.9-.3.6 0 1 .5.2.5.2 1.2v4.9h-1V234q-.2-.3-.5-.3t-.5.2l-.4.6-.1.8v4.2h-1V235l-.1-1q-.2-.3-.6-.3l-.4.2-.4.5-.1.8v4.3h-1v-6.4zm9.9 6.5q-.8 0-1.5-.4t-1-1.2q-.4-.7-.4-1.7t.4-1.7q.3-.8 1-1.2.7-.4 1.5-.4.9 0 1.6.4.6.4 1 1.2.4.7.4 1.7t-.4 1.7q-.4.8-1 1.2-.7.4-1.6.4zm0-.8q.6 0 1-.4.4-.3.7-.8.2-.6.2-1.3 0-1.1-.5-1.8t-1.4-.7q-.8 0-1.3.7t-.5 1.8q0 .7.2 1.3.2.5.7.8.4.4 1 .4zm6.6.8q-1 0-1.6-.7-.6-.8-.6-2.2v-3.6h1v3.6q0 1.1.4 1.6t1 .5q.8 0 1.3-.5.5-.6.5-1.7v-3.5h1v6l.1.4h-1v-1q-.4.5-1 .9-.4.2-1 .2zm5-6.5h1v1.1q.3-.6.9-1 .6-.3 1.2-.3.9 0 1.4.7.5.6.5 2v3.9h-1v-3.9q0-1-.3-1.3-.3-.5-.9-.5-.4 0-.9.3-.4.2-.7.7-.3.4-.3 1v3.7h-1v-6.4zm12.2 5.8q-1 .7-2 .7-1.1 0-1.6-.7-.4-.6-.4-2v-.9l.1-2h-1.4v-1h1.5v-1.6l1.2-.2h.2l-.2.3v.3l-.2 1.3h2.1v.8h-2.2v2.2l-.1.7q0 1.2.2 1.6.3.4.9.4l.8-.2.8-.5.3.8zm4.1-3.7q-.3 0-.6-.3-.3-.2-.3-.5 0-.4.3-.6.2-.2.6-.2l.6.2q.2.2.2.6 0 .3-.2.5-.3.3-.6.3zm0 4.4q-.4 0-.6-.2-.3-.2-.3-.6 0-.3.3-.5.2-.3.6-.3.3 0 .6.3.2.2.2.5 0 .4-.2.6l-.6.2zm14.2-5.7q.8 0 1.4.3.6.3 1 1 .3.7.3 1.5 0 1-.4 1.6-.3.6-1 1-.6.3-1.4.3-.8 0-1.5-.3-.6-.4-1-1l.7-.6q.4.6.8.8.4.3 1 .3.5 0 1-.3.3-.2.5-.7.3-.5.3-1 0-1-.5-1.6-.5-.6-1.3-.6-.5 0-.9.3l-.8.6-.6-.3.3-4.4h4.5v.9h-3.6l-.2 2.5q.7-.4 1.4-.4zm-1.9 3.8q0-.1 0 0zm.2 0h-.1zm8.6-7q1.3 0 2 1.2t.7 3.3q0 2.1-.7 3.3-.7 1.1-2 1.1t-2-1.1q-.7-1.2-.7-3.3 0-2.1.7-3.3.8-1.2 2-1.2zm0 .9q-.8 0-1.2 1-.5 1-.5 2.6 0 .9.2 1.6l3-3.8q-.3-.7-.6-1-.4-.4-.9-.4zm0 7.2q.8 0 1.3-1 .4-.9.4-2.6v-1.4l-3 3.8q.4 1.2 1.3 1.2zm7-8.1q1.3 0 2 1.2t.7 3.3q0 2.1-.7 3.3-.7 1.1-2 1.1t-2-1.1q-.7-1.2-.7-3.3 0-2.1.7-3.3.8-1.2 2-1.2zm0 .9q-.8 0-1.2 1-.5 1-.5 2.6 0 .9.2 1.6l3-3.8q-.3-.7-.6-1-.4-.4-.9-.4zm0 7.2q.8 0 1.3-1 .4-.9.4-2.6v-1.4l-3 3.8q.4 1.2 1.3 1.2zm5.9 2.6l.6-.8.3-.6-.1-.3-.3-.2-.3-.3v-.3q0-.4.2-.6.2-.3.6-.3.4 0 .6.4.3.3.3.8 0 1.1-1.5 2.6l-.4-.4zm-75.4 11.3q1.2.4 1.7.8t.5 1.1q0 .9-.7 1.5-.7.5-2 .5-1.6 0-2.7-1l.6-1 1 1q.4.2 1.2.2.7 0 1.2-.3.4-.3.4-.7 0-.4-.3-.7-.4-.3-1.3-.6-2.4-.6-2.4-2 0-.7.6-1.1.6-.5 1.7-.5 1 0 1.5.3.6.2 1 .7l-.5.7q-.3-.4-.8-.6-.6-.3-1.1-.3-.6 0-1 .2t-.4.6q0 .3.4.6t1.4.6zm1.3-1h.2-.2zm.2 0zm-4 3v-.2.1zm0 0l-.1-.1zm11.8 1.2q-1 .7-2 .7-1.1 0-1.6-.7-.4-.6-.4-2v-.9l.1-2h-1.4v-1h1.5v-1.6l1.2-.2h.2l-.2.3v.3l-.2 1.3h2.1v.8h-2.2v2.2l-.1.7q0 1.2.2 1.6.3.3.9.3l.8-.1.8-.5.3.8zm4.2-6q1.3 0 2 .8.8.7.8 2.4v3.4h-1.1v-1q-.6 1.1-2.2 1.1-1 0-1.7-.4-.6-.5-.6-1.3 0-.7.5-1.2.4-.5 1.1-.8l1.6-.2h1.5q0-1-.6-1.5-.5-.4-1.4-.4l-1 .2q-.4.1-.7.5l-.5-.7q.9-.8 2.3-.8zm-.4 6q1 0 1.6-.6.6-.6.7-1.8H359q-1 0-1.6.3-.7.3-.7 1 0 1 1.4 1zm10.2 0q-1 .7-2 .7-1.1 0-1.6-.7-.4-.6-.4-2v-.9l.1-2h-1.4v-1h1.5v-1.6l1.2-.2h.2l-.2.3v.3l-.2 1.3h2.1v.8h-2.2v2.2l-.1.7q0 1.2.2 1.6.3.3.9.3l.8-.1.8-.5.3.8zm3.8.7q-1 0-1.6-.7-.6-.8-.6-2.2v-3.6h1v3.6q0 1.1.4 1.6t1 .5q.8 0 1.3-.5.5-.6.5-1.7v-3.5h1v6l.1.4h-1v-1q-.4.5-1 .9-.4.2-1 .2zm7.9-3.9q1.2.4 1.7.8t.5 1.1q0 .9-.7 1.5-.7.5-2 .5-1.6 0-2.7-1l.6-1 1 1q.4.2 1.2.2.7 0 1.2-.3.4-.3.4-.7 0-.4-.3-.7-.4-.3-1.3-.6-2.4-.6-2.4-2 0-.7.6-1.1.6-.5 1.7-.5 1 0 1.5.3.6.2 1 .7l-.5.7q-.3-.4-.8-.6-.6-.3-1.1-.3-.6 0-1 .2t-.4.6q0 .3.4.6t1.4.6zm1.3-1h.2-.2zm.2 0zm-4 3v-.2.1zm0 0l-.1-.1zm8.9-2.5q-.3 0-.6-.3-.3-.2-.3-.5 0-.4.3-.6.2-.2.6-.2l.6.2q.2.2.2.6 0 .3-.2.5-.3.3-.6.3zm0 4.4q-.4 0-.6-.2-.3-.2-.3-.6 0-.3.3-.5.2-.3.6-.3.3 0 .6.3.2.2.2.5 0 .4-.2.6l-.6.2zm13.7-9.4v1.7l-.2 1.2v.7h-.7l-.1-.7-.1-1.2v-1.7h1zm2 0v2.9l-.2.7h-.6l-.1-.7-.1-1.2v-1.7h1zm7.8 9.3l-1-2.6h-2.8l-.9 2.6h-1l3.3-8.9h.1l3.2 8.9h-1zm-3.5-3.3h2.3l-1.2-3.3-1.1 3.3zm7.7-6v1.7l-.2 1.2v.7h-.7l-.1-.7-.1-1.2v-1.7h1zm2 0v2.9l-.2.7h-.6l-.1-.7-.1-1.2v-1.7h1zm-89.8 27.5v-.8h.7q1 0 1.3-.3.4-.4.4-1.3v-1.2q0-1.8 1.2-2.2-1.2-.5-1.2-2v-1q0-1.5-1.3-1.5h-1.2v-.8h1q2.5 0 2.5 2.4v1q0 .8.3 1.2.3.3 1 .3h.2v.8h-.3q-.6 0-1 .3-.2.4-.2 1.3v1.4q0 1-.3 1.5t-1 .7q-.6.2-1.6.2h-.5z" font-size="14" font-family="Inconsolata" fill="#25337c"/><path d="M309.8 292.7h172.5M309.8 398.6h172.5" stroke="#25337c" fill="none"/><path d="M330.6 425.6q-1 0-1.7-.2-.6-.2-1-.8-.3-.5-.2-1.5v-1.4q0-.9-.3-1.2-.3-.3-1-.3h-.2v-.8h.3q.6 0 1-.4.3-.3.3-1.1v-1q0-2.5 2.5-2.5h.9v.8H330q-1.3 0-1.3 1.5v1q0 1.5-1.2 2 1.2.5 1.2 2.2v1.2q0 1 .4 1.3.4.4 1.3.4h.8v.8h-.6zm13.8 22.2q1.4 0 2.1.7.7.7.7 2.4v3.4h-1v-1q-.6 1.2-2.2 1.2-1.1 0-1.7-.5-.6-.5-.6-1.3 0-.6.4-1.1.5-.5 1.2-.8.7-.3 1.6-.3h1.5q-.1-1-.6-1.4-.5-.5-1.4-.5l-1 .2-.8.5-.5-.6q1-.9 2.3-.9zm-.3 6q1 0 1.6-.7.6-.6.7-1.7l-1.4-.1q-1 0-1.7.3-.6.4-.6 1 0 1.1 1.4 1.1zm4.4-5.8h1v.6q.2-.4.5-.6l.8-.2q.4 0 .7.3.3.2.4.6.2-.4.6-.6.4-.3.8-.3.7 0 1 .5.3.4.3 1.1v5h-1v-4.6l-.1-1q-.2-.3-.4-.3-.3 0-.5.3-.3.2-.4.6l-.2.7v4.2h-1V449q-.2-.3-.6-.3l-.4.2-.4.5-.1.8v4.2h-1V448zm10 6.5q-.8 0-1.5-.5-.7-.4-1-1.1-.4-.8-.4-1.8t.3-1.7q.4-.7 1-1.2.8-.4 1.6-.4.9 0 1.5.4.7.5 1 1.2.5.8.5 1.7 0 1-.4 1.8-.4.7-1 1.1-.7.5-1.6.5zm0-.9q.6 0 1-.3t.7-.9q.2-.6.2-1.3 0-1-.5-1.8-.6-.7-1.4-.7-.8 0-1.3.7-.6.7-.6 1.8 0 .7.3 1.3.2.6.6.9.5.3 1 .3zm6.6.9q-1 0-1.6-.7-.6-.8-.6-2.3V448h1v3.6q0 1.2.4 1.7t1 .5q.8 0 1.3-.6.5-.5.5-1.6V448h1v6l.1.4h-1v-.4l-.1-.5q-.3.5-.8.8-.6.3-1.2.3zm4.9-6.5h1v1q.4-.5 1-.9.5-.3 1.2-.3.8 0 1.3.7.5.6.5 2v3.8h-1v-3.8q0-1-.3-1.4-.3-.4-.8-.4l-.9.2-.7.7q-.3.5-.3 1v3.7h-1V448zm12.2 5.8q-.9.6-2 .6-1 0-1.5-.6-.4-.6-.4-2.1v-.8l.1-2.1H377v-.9h1.5v-1.7l1.2-.1h.1l-.1.3v.3l-.2 1.2h2.1v.9h-2.2l-.1 2.1v.8q0 1.1.2 1.5.3.4.9.4.4 0 .7-.2l.8-.4.3.8zm4.1-3.8q-.3 0-.5-.2-.3-.2-.3-.6 0-.3.3-.5.2-.3.5-.3.4 0 .6.3.3.2.3.5 0 .4-.3.6-.2.2-.6.2zm0 4.5q-.3 0-.5-.2-.3-.3-.3-.6t.3-.6q.2-.2.5-.2.4 0 .6.2.3.3.3.6t-.3.6q-.2.2-.6.2zm11.7-.9l1.2-1.2 1.7-1.8.9-1.2q.3-.7.3-1.4 0-.8-.4-1.2-.4-.4-1-.4-.7 0-1.2.3l-.7.6-.1.3-.1.2h.1-.2l-.7-.5q.4-.8 1.2-1.3.7-.4 1.6-.4 1.1 0 1.8.6.7.7.7 1.9 0 .7-.3 1.4l-1 1.4-1.6 1.6-.9 1h3.6l.2-.1v1h-5v-.8zm9.5-8q1.3 0 2 1.2.7 1.1.7 3.2 0 2.2-.7 3.3-.7 1.2-2 1.2t-2-1.2q-.7-1.1-.7-3.3 0-2 .7-3.2.7-1.2 2-1.2zm0 .8q-.8 0-1.2 1-.5 1-.5 2.6l.1 1.6 3-3.8q-.2-.7-.6-1-.3-.4-.8-.4zm0 7.2q.8 0 1.3-.9.4-1 .4-2.7v-1.4l-3 3.8q.4 1.2 1.3 1.2zm7-8q1.3 0 2 1.2.7 1.1.7 3.2 0 2.2-.7 3.3-.7 1.2-2 1.2t-2-1.2q-.7-1.1-.7-3.3 0-2 .7-3.2.7-1.2 2-1.2zm0 .8q-.8 0-1.2 1-.5 1-.5 2.6l.1 1.6 3-3.8q-.2-.7-.6-1-.3-.4-.8-.4zm0 7.2q.8 0 1.3-.9.4-1 .4-2.7v-1.4l-3 3.8q.4 1.2 1.3 1.2zm5.8 2.7l.7-.8.2-.7v-.2l-.3-.3-.3-.3v-.3l.1-.6.6-.2q.4 0 .7.3.3.4.3.9 0 1-1.5 2.6l-.5-.4zM345 467.6q1.2.3 1.7.8.5.4.5 1 0 1-.7 1.5-.7.6-2 .6-1.6 0-2.7-1l.6-1q.4.6.9.9.5.2 1.3.2.7 0 1.1-.2.5-.3.5-.8 0-.4-.4-.6-.3-.3-1.2-.6-2.4-.7-2.4-2 0-.7.6-1.2.6-.4 1.7-.4.9 0 1.5.2.6.3 1 .8l-.5.7q-.3-.4-.9-.7-.5-.3-1-.3-.7 0-1 .3-.4.2-.4.5 0 .4.4.7.4.3 1.4.6zm1.3-1q0-.1.1 0zm.2 0zm-4 2.9v-.1zm-.1 0zm11.8 1.3q-.9.6-2 .6-1 0-1.5-.6-.4-.6-.4-2.1v-.8l.1-2.1H349v-.9h1.5v-1.7l1.2-.1h.1l-.1.3v.3l-.2 1.2h2.1v.9h-2.2l-.1 2.1v.8q0 1.1.2 1.5.3.4.9.4.4 0 .7-.2l.8-.4.3.8zm4.2-6q1.4 0 2.1.7.7.7.7 2.4v3.4h-1v-1q-.6 1.2-2.2 1.2-1.1 0-1.7-.5-.6-.5-.6-1.3 0-.6.4-1.1.5-.5 1.2-.8.7-.3 1.6-.3h1.5q-.1-1-.6-1.4-.5-.5-1.4-.5l-1 .2-.8.5-.5-.6q1-.9 2.3-.9zm-.3 6q1 0 1.6-.7.6-.6.7-1.7l-1.4-.1q-1 0-1.7.3-.6.4-.6 1 0 1.1 1.4 1.1zm10.1 0q-.9.6-2 .6-1 0-1.5-.6-.4-.6-.4-2.1v-.8l.1-2.1H363v-.9h1.5v-1.7l1.2-.1h.1l-.1.3v.3l-.2 1.2h2.1v.9h-2.2l-.1 2.1v.8q0 1.1.2 1.5.3.4.9.4.4 0 .7-.2l.8-.4.3.8zm3.9.7q-1 0-1.6-.7-.6-.8-.6-2.3V465h1v3.6q0 1.2.4 1.7t1 .5q.8 0 1.3-.6.5-.5.5-1.6V465h1v6l.1.4h-1v-.4l-.1-.5q-.3.5-.8.8-.6.3-1.2.3zm7.9-3.9q1.2.3 1.7.8.5.4.5 1 0 1-.7 1.5-.7.6-2 .6-1.6 0-2.7-1l.6-1q.4.6.9.9.5.2 1.3.2.7 0 1.1-.2.5-.3.5-.8 0-.4-.4-.6-.3-.3-1.2-.6-2.4-.7-2.4-2 0-.7.6-1.2.6-.4 1.7-.4.9 0 1.5.2.6.3 1 .8l-.5.7q-.3-.4-.9-.7-.5-.3-1-.3-.7 0-1 .3-.4.2-.4.5 0 .4.4.7.4.3 1.4.6zm1.3-1q0-.1.1 0zm.2 0zm-4 2.9v-.1zm-.1 0zm8.9-2.5q-.3 0-.5-.2-.3-.2-.3-.6 0-.3.3-.5.2-.3.5-.3.4 0 .6.3.3.2.3.5 0 .4-.3.6-.2.2-.6.2zm0 4.5q-.3 0-.5-.2-.3-.3-.3-.6t.3-.6q.2-.2.5-.2.4 0 .6.2.3.3.3.6t-.3.6q-.2.2-.6.2zM400 462v1.8l-.1 1.2-.1.6h-.7v-.6l-.2-1.2V462h1.1zm2.1 0v1.8l-.1 1.2-.1.6h-.7v-.6l-.2-1.2V462h1.1zm7.7 9.3l-.9-2.5h-2.8l-.9 2.5h-1l3.3-8.8 3.3 8.8h-1zm-3.4-3.3h2.2l-1.1-3.3-1.1 3.3zm7.6-6v1.8l-.1 1.2-.1.6h-.7v-.6l-.2-1.2V462h1.1zm2.1 0v1.8l-.1 1.2-.1.6h-.7v-.6l-.2-1.2V462h1.1zm-89.9 27.6v-.8h.7q1 0 1.4-.4.4-.4.4-1.3V486q0-1.7 1.2-2.1-1.3-.6-1.3-2.1v-1q0-1.5-1.2-1.5h-1.2v-.8h.9q2.5 0 2.5 2.5v1q0 .8.3 1.1.4.4 1 .4h.3v.8h-.3q-.6 0-1 .3-.3.3-.3 1.2l.1 1.4q0 1-.3 1.5-.3.6-1 .8-.6.2-1.7.2h-.5z" font-size="14" font-family="Inconsolata" fill="#25337c"/><path d="M339.6 425.5h111V443h-111z" fill="#a3a3a3"/><path d="M343.6 438q1 0 1.7-.8l.6.7q-1 1-2.3 1-1 0-1.7-.5-.7-.4-1.1-1.1-.4-.8-.4-1.8t.4-1.7q.4-.7 1.1-1.2.7-.4 1.7-.4.7 0 1.4.3.6.3 1 .9l-.7.6q-.4-.5-.8-.7-.4-.2-1-.2t-1 .3q-.5.3-.8.8-.3.6-.3 1.3 0 .7.3 1.3.3.5.8.8.5.4 1.1.4zm1.6-4h.1v.1h-.1zm.1 0q.1.1 0 0zm4.4 4.9q-1 0-1.6-.8-.6-.7-.6-2.2v-3.6h1v3.6q0 1.1.4 1.7.4.5 1 .5.8 0 1.2-.6.5-.6.5-1.6v-3.6h1v6l.2.4h-1l-.1-.4v-.6q-.3.6-.9.9-.5.3-1.1.3zm7.8-3.9q1.2.3 1.7.8.5.4.5 1 0 1-.6 1.5-.7.6-2 .6-1.6 0-2.7-1l.5-1q.5.6 1 .8.4.3 1.2.3.8 0 1.2-.2.4-.3.4-.8 0-.4-.3-.7l-1.3-.5q-2.4-.7-2.4-2 0-.8.6-1.2.6-.4 1.8-.4.8 0 1.4.2.6.3 1.1.8l-.5.7q-.4-.5-.9-.7-.5-.3-1-.3-.7 0-1 .2-.5.3-.5.6 0 .4.4.7.4.3 1.4.6zm1.4-1q0-.1.1 0h-.1zm.1-.1zm-3.9 3h-.1v-.1h.1zm-.1 0zm11.8 1.2q-1 .7-2 .7-1.1 0-1.5-.6-.5-.7-.5-2.1v-.8l.2-2.1h-1.4v-.9h1.4l.1-1.7 1.1-.2h.2v.1l-.2.2v.4l-.2 1.2h2.2v.9H364l-.1 2.1v.8q0 1 .2 1.5.2.4.8.4l.8-.2.8-.5.3.8zm1.2 1.7v-.8h6.1v.8h-6zm8-1.1v-.8h1.6v-4.8h-1.5v-.8h2.5v5.6h1.5v.8H376zm2-7.7l-.4-.2q-.2-.2-.2-.5l.1-.5q.3-.3.6-.3t.5.3q.2.2.2.5t-.2.5q-.2.2-.5.2zm6.9 7.9q-.7 0-1.3-.4-.6-.4-1-1.2-.4-.7-.4-1.8t.4-1.9q.4-.7 1-1 .6-.4 1.3-.4.7 0 1.1.3.5.3.8.8v-3.9h1v9.3h-1v-1q-.4.6-.9.9-.4.3-1 .3zm.1-1q.9 0 1.3-.6.4-.7.4-1.8t-.5-1.8q-.4-.7-1.3-.7-.8 0-1.3.6-.4.6-.4 1.7 0 1.2.5 2 .4.7 1.3.7zm7-3.5q-.4 0-.7-.2l-.2-.6.2-.6.6-.2.6.2q.3.3.3.6t-.3.6l-.6.2zm0 4.5q-.4 0-.7-.2l-.2-.6q0-.4.2-.6l.6-.2.6.2q.3.2.3.6 0 .3-.3.5-.2.3-.6.3zm13.6-9.5v1.8l-.2 1.2v.6h-.7v-.6l-.2-1.2v-1.8h1zm2 0v3l-.1.6h-.7v-.6l-.2-1.2v-1.8h1zm2.7.6h2.4q1.5 0 2.2.6.7.5.7 1.5 0 .7-.3 1.2-.4.5-1 .8.8.2 1.2.8.5.7.5 1.4 0 1.1-.8 1.8-.8.6-2.5.6h-2.4V430zm2.3 3.6q2 0 2-1.4 0-.6-.4-1-.5-.4-1.5-.4h-1.5v2.8h1.4zm.3 4.3q2 0 2-1.7 0-1.8-2.3-1.8h-1.4v3.5h1.7zm4.7.1l1.1-1.2q1.2-1.1 1.7-1.8.6-.6 1-1.3.3-.6.3-1.3 0-.8-.4-1.2-.4-.4-1.1-.4-.6 0-1.1.3-.5.2-.7.6l-.2.3v.2l-.8-.6q.4-.8 1.1-1.2.8-.4 1.7-.4 1.1 0 1.8.6.7.7.7 1.8 0 .8-.4 1.5-.3.7-1 1.4l-1.5 1.6-1 1h3.7l.2-.2h.1v1h-5.1v-.8zm9.2.7v-7.5l-1.8.5-.2-.5 2.3-1.2h.7v8.7h-1zm4.8-.7l1.1-1.2q1.2-1.1 1.7-1.8.6-.6 1-1.3.3-.6.3-1.3 0-.8-.4-1.2-.4-.4-1.1-.4-.6 0-1.1.3-.5.2-.7.6l-.2.3v.2l-.8-.6q.4-.8 1.1-1.2.8-.4 1.7-.4 1.1 0 1.8.6.7.7.7 1.8 0 .8-.4 1.5-.3.7-1 1.4l-1.5 1.6-1 1h3.7l.2-.2h.1v1h-5.1v-.8zm9-8.6v1.8l-.2 1.2v.6h-.7v-.6l-.2-1.2v-1.8h1zm2 0v3l-.1.6h-.7v-.6l-.2-1.2v-1.8h1zm4.3 11.3l.6-.8q.3-.4.3-.7v-.2l-.3-.3-.3-.3-.1-.3.2-.6q.2-.2.6-.2.4 0 .7.3.3.3.3.8 0 1.1-1.5 2.7l-.5-.4z" font-size="14" font-family="Inconsolata" fill="#25337c"/><path d="M11.2 131.8h172.2v427H11.2z" stroke="#13206f" fill="none"/><path d="M32 152.6q-1 0-1.7-.2t-1-.8q-.3-.5-.3-1.5v-1.4q0-.9-.2-1.2-.3-.3-1-.3h-.3v-.8h.3q.7 0 1-.4.3-.3.3-1.1v-1q0-2.5 2.5-2.5h1v.8h-1.2q-1.3 0-1.3 1.5v1q0 1.5-1.2 2 1.2.5 1.2 2.2v1.2q0 1 .3 1.3.4.4 1.4.4h.7v.8H32zm14.4 13q1 0 1.7-.8l.6.7q-1 1-2.4 1-.9 0-1.6-.4-.7-.5-1.2-1.2-.4-.8-.4-1.7 0-1 .4-1.8.5-.7 1.2-1.1.7-.5 1.6-.5.8 0 1.4.3.7.4 1 1l-.6.5q-.4-.5-.8-.7l-1-.2q-.6 0-1.1.3-.5.3-.7.8-.3.6-.3 1.3 0 .7.3 1.3.2.5.8.9.5.3 1.1.3zm1.6-4v.1zm.1 0v.1zm4.3 4.9q-1 0-1.6-.7-.6-.8-.5-2.3V160h1v3.5q0 1.2.3 1.7.4.5 1.1.5.7 0 1.2-.6.5-.5.5-1.6V160h1v5.9l.1.4h-1v-.9q-.4.5-.9.8-.5.3-1.2.3zm7.9-3.9q1.2.3 1.7.8.5.4.5 1 0 1-.7 1.5-.6.6-2 .6-1.6 0-2.6-1l.5-1q.5.6 1 .9.4.2 1.2.2.8 0 1.2-.2.4-.3.4-.8 0-.4-.3-.6-.4-.3-1.3-.6-2.4-.7-2.4-2 0-.7.6-1.2.6-.4 1.8-.4.8 0 1.4.2.6.3 1.1.8l-.6.7q-.3-.4-.8-.7l-1.1-.2q-.6 0-1 .2t-.4.6q0 .3.4.6t1.4.6zm1.4-1q0-.1 0 0zm.1 0zm-4 2.9v-.1zm0 0h-.1zm11.8 1.3q-1 .6-2 .6-1.1 0-1.6-.6-.4-.6-.4-2.1v-.8l.1-2.1h-1.4v-.8h1.5l.1-1.8 1.1-.1h.2l-.2.3v.3l-.2 1.3H69v.8h-2.1l-.2 2.1v.8q0 1.1.3 1.5.2.4.8.4l.8-.1.8-.5.3.8zm1.2 1.7v-.9h6v.9h-6zm8-1.2v-.8h1.6v-4.7h-1.6v-.9h2.6v5.6h1.5v.8h-4.1zm2-7.7q-.3 0-.5-.2t-.2-.5q0-.3.2-.5t.5-.2q.3 0 .5.2.3.2.3.5t-.3.5q-.2.2-.5.2zm6.8 7.9q-.7 0-1.3-.4-.6-.4-1-1.2-.3-.7-.3-1.8t.4-1.9q.4-.7 1-1 .6-.4 1.3-.4.6 0 1.1.3.5.3.7.8V157h1.1v.1l-.1.2v8.6l.1.4h-1v-.9q-.4.5-.9.8-.5.3-1 .3zm.2-.9q.9 0 1.3-.7t.4-1.8q0-1.1-.5-1.8-.4-.7-1.3-.7-.8 0-1.3.6-.4.7-.4 1.7 0 1.3.4 2 .5.7 1.4.7zm6.9-3.6l-.6-.2q-.2-.2-.2-.6 0-.3.2-.5.3-.3.6-.3t.6.3q.2.2.2.5 0 .4-.2.6l-.6.2zm0 4.5q-.4 0-.6-.2l-.2-.6.2-.6.6-.2.6.2.2.6-.2.6-.6.2zm13.7-9.5v1.8l-.2 1.2v.7h-.7l-.1-.7-.1-1.2V157h1zm2 0v3l-.2.7h-.6l-.1-.7-.1-1.2V157h1zm7.7 9.3l-.9-2.5h-2.8l-.9 2.5h-1l3.3-8.8h.1l3.2 8.8h-1zm-3.4-3.3h2.3l-1.2-3.3-1.1 3.3zm7.9 3.3v-7.5l-1.8.5-.2-.5 2.3-1.2h.7v8.7h-1zm4.8-.7l1.1-1.2 1.7-1.8 1-1.2q.3-.7.3-1.4 0-.8-.5-1.2-.4-.4-1-.4t-1.2.3q-.5.3-.6.6l-.2.3v.2h-.1l-.7-.5q.4-.8 1.1-1.3.7-.4 1.7-.4t1.8.6q.7.7.7 1.9 0 .7-.4 1.4l-1 1.4-1.5 1.6-1 1h3.6l.2-.1h.1v1h-5.1v-.8zm10.3-3.9q.7.3 1.2.8.4.6.4 1.5 0 .7-.3 1.2-.3.6-.9 1-.6.3-1.4.3-.7 0-1.3-.2-.6-.3-1-.8l.6-.8q.3.5.7.7.4.3 1 .3.8 0 1.2-.5.4-.5.4-1.3 0-.9-.5-1.3t-1.5-.4h-.4v-.8q1.2 0 1.7-.4.4-.5.4-1.3 0-.6-.3-1-.4-.3-1-.3-.8 0-1.5.7l-.6-.6q.9-1 2.2-1 1 0 1.6.7.6.6.6 1.5 0 .8-.3 1.3-.4.5-1 .7zm-2.6 3zm-.1 0zm8.4-7.7v1.8l-.2 1.2v.7h-.7l-.1-.7-.1-1.2V157h1zm2 0v3l-.2.7h-.6l-.1-.7-.1-1.2V157h1zm4.3 11.3l.6-.8q.3-.4.3-.7l-.1-.2-.2-.3-.3-.3-.1-.3.2-.6q.2-.2.6-.2.4 0 .6.3.3.4.3.9 0 1-1.5 2.6l-.4-.4zm-103.9 8.5q1.3 0 2 .7.8.7.8 2.4v3.4h-1.1v-1q-.6 1.2-2.2 1.2-1 0-1.7-.5-.6-.5-.6-1.3 0-.6.5-1.1.4-.5 1.1-.8.8-.3 1.7-.3l1.4.1q0-1-.6-1.5-.4-.5-1.4-.5l-1 .2-.7.5-.5-.6q.9-.9 2.3-.9zm-.4 6q1 0 1.6-.7.6-.6.7-1.7l-1.4-.1q-1 0-1.6.3-.7.4-.7 1 0 1.1 1.4 1.1zm4.5-5.8h1v.6q.1-.4.5-.6.3-.2.7-.2.4 0 .7.3.4.2.4.6.2-.4.6-.6.4-.3.9-.3.6 0 1 .5.2.4.2 1.1v5H55v-4.6q0-.8-.2-1-.1-.3-.4-.3-.3 0-.5.3l-.4.6-.1.7v4.2h-1V179l-.1-1q-.2-.3-.6-.3l-.4.2-.4.5v5h-1V177zm10 6.5q-.9 0-1.6-.5-.6-.4-1-1.1-.4-.8-.4-1.8t.4-1.7q.4-.7 1-1.2.7-.4 1.6-.4.8 0 1.5.4.7.5 1 1.2.4.8.4 1.7 0 1-.4 1.8-.3.7-1 1.1-.7.5-1.5.5zm0-.9q.5 0 1-.3.4-.3.6-.9.2-.6.2-1.3 0-1-.5-1.8-.5-.7-1.3-.7-.9 0-1.4.8-.5.6-.5 1.7 0 .7.2 1.3.3.6.7.9.4.3 1 .3zm6.5.9q-1 0-1.6-.7-.6-.8-.5-2.3V177h1v3.5q0 1.2.3 1.7.4.5 1.1.5.7 0 1.2-.6.5-.5.5-1.6V177h1v5.9l.1.4h-1v-.9q-.4.5-.9.8-.5.3-1.2.3zm5-6.5h1v1q.3-.5.9-.9.6-.3 1.2-.3.9 0 1.4.7.5.6.5 2v3.8h-1v-3.8q0-1-.3-1.4-.3-.4-.9-.4l-.9.2-.7.7q-.3.5-.3 1v3.7h-1V177zm12.2 5.8q-1 .6-2 .6-1.1 0-1.6-.6-.4-.6-.4-2.1v-.8l.1-2.1h-1.4v-.8h1.5l.1-1.8 1.1-.1h.2l-.2.3v.3l-.2 1.3H83v.8h-2.1l-.2 2.1v.8q0 1.1.3 1.5.2.4.8.4l.8-.1.8-.5.3.8zm4.1-3.8l-.6-.2q-.2-.2-.2-.6 0-.3.2-.5.3-.3.6-.3t.6.3q.2.2.2.5 0 .4-.2.6l-.6.2zm0 4.5q-.4 0-.6-.2l-.2-.6.2-.6.6-.2.6.2.2.6-.2.6-.6.2zm14.3-5.8q.7 0 1.3.3.6.4 1 1 .3.7.3 1.6 0 .9-.4 1.5-.3.7-1 1-.6.4-1.4.4-.8 0-1.4-.3-.7-.4-1.2-1l.8-.6.8.8q.4.2 1.1.2l.8-.2.7-.7q.2-.5.2-1.1 0-1-.5-1.5-.5-.6-1.3-.6-.5 0-.9.2t-.7.6l-.7-.2.3-4.5h4.5v1h-3.6l-.2 2.4q.7-.3 1.5-.3zm-2 3.9q0-.2 0 0zm.2 0h-.1v-.1h.1zm8.7-7q1.2 0 2 1.2.7 1.2.7 3.2 0 2.2-.7 3.3-.7 1.2-2 1.2t-2-1.2q-.7-1.1-.7-3.3 0-2 .7-3.2.7-1.2 2-1.2zm0 .8q-.8 0-1.3 1-.4 1-.4 2.6v1.6l3-3.8q-.2-.7-.5-1-.4-.4-.8-.4zm0 7.2q.8 0 1.2-.9.4-1 .4-2.7v-1.4l-3 3.8q.4 1.2 1.4 1.2zm7-8q1.2 0 2 1.2.7 1.2.7 3.2 0 2.2-.7 3.3-.7 1.2-2 1.2t-2-1.2q-.7-1.1-.7-3.3 0-2 .7-3.2.7-1.2 2-1.2zm0 .8q-.8 0-1.3 1-.4 1-.4 2.6v1.6l3-3.8q-.2-.7-.5-1-.4-.4-.8-.4zm0 7.2q.8 0 1.2-.9.4-1 .4-2.7v-1.4l-3 3.8q.4 1.2 1.4 1.2zm5.8 2.7l.6-.8q.3-.4.3-.7l-.1-.2-.2-.3-.3-.3-.1-.3.2-.6q.2-.2.6-.2.4 0 .6.3.3.4.3.9 0 1-1.5 2.6l-.4-.4zm-75.4 11.3q1.2.3 1.7.8.5.4.5 1 0 1-.7 1.5-.6.6-2 .6-1.6 0-2.6-1l.5-1q.5.6 1 .9.4.2 1.2.2.8 0 1.2-.2.4-.3.4-.8 0-.4-.3-.6-.4-.3-1.3-.6-2.4-.7-2.4-2 0-.7.6-1.2.6-.4 1.8-.4.8 0 1.4.2.6.3 1.1.8l-.6.7q-.3-.4-.8-.7l-1.1-.2q-.6 0-1 .2t-.4.6q0 .3.4.6t1.4.6zm1.4-1q0-.1 0 0zm.1 0zm-4 2.9v-.1zm0 0h-.1zm11.8 1.3q-1 .6-2 .6-1.1 0-1.6-.6-.4-.6-.4-2.1v-.8l.1-2.1h-1.4v-.8h1.5l.1-1.8 1.1-.1h.2l-.2.3v.3l-.2 1.3H55v.8h-2.1l-.2 2.1v.8q0 1.1.3 1.5.2.4.8.4l.8-.1.8-.5.3.8zm4.2-6q1.3 0 2 .7.8.7.8 2.4v3.4h-1.1v-1q-.6 1.2-2.2 1.2-1 0-1.7-.5-.6-.5-.6-1.3 0-.6.5-1.1.4-.5 1.1-.8.8-.3 1.7-.3l1.4.1q0-1-.6-1.5-.4-.5-1.4-.5l-1 .2-.7.5-.5-.6q.9-.9 2.3-.9zm-.4 6q1 0 1.6-.7.6-.6.7-1.7l-1.4-.1q-1 0-1.6.3-.7.4-.7 1 0 1.1 1.4 1.1zm10.2 0q-1 .6-2 .6-1.1 0-1.6-.6-.4-.6-.4-2.1v-.8l.1-2.1h-1.4v-.8h1.5l.1-1.8 1.1-.1h.2l-.2.3v.3l-.2 1.3H69v.8h-2.1l-.2 2.1v.8q0 1.1.3 1.5.2.4.8.4l.8-.1.8-.5.3.8zm3.8.7q-1 0-1.6-.7-.6-.8-.6-2.3V194h1v3.5q0 1.2.4 1.7t1.1.5q.7 0 1.2-.6.5-.5.5-1.6V194h1v5.9l.1.4h-1v-.9q-.4.5-.9.8-.5.3-1.2.3zm7.9-3.9q1.2.3 1.7.8.5.4.5 1 0 1-.7 1.5-.6.6-2 .6-1.6 0-2.6-1l.5-1q.5.6 1 .9.4.2 1.2.2.8 0 1.2-.2.4-.3.4-.8 0-.4-.3-.6-.4-.3-1.3-.6-2.4-.7-2.4-2 0-.7.6-1.2.6-.4 1.8-.4.8 0 1.4.2.6.3 1.1.8l-.6.7q-.3-.4-.8-.7l-1.1-.2q-.6 0-1 .2t-.4.6q0 .3.4.6t1.4.6zm1.4-1q0-.1 0 0zm.1 0zm-4 2.9v-.1zm0 0h-.1zm8.9-2.5l-.6-.2q-.2-.2-.2-.6 0-.3.2-.5.3-.3.6-.3t.6.3q.2.2.2.5 0 .4-.2.6l-.6.2zm0 4.5q-.4 0-.6-.2l-.2-.6.2-.6.6-.2.6.2.2.6-.2.6-.6.2zm13.7-9.5v1.8l-.2 1.2v.7h-.7l-.1-.7-.1-1.2V191h1zm2 0v3l-.2.7h-.6l-.1-.7-.1-1.2V191h1zm7.7 9.3l-.9-2.5h-2.8l-.9 2.5h-1l3.3-8.8h.1l3.2 8.8h-1zm-3.4-3.3h2.3l-1.2-3.3-1.1 3.3zm7.7-6v1.8l-.2 1.2v.7h-.7l-.1-.7-.1-1.2V191h1zm2 0v3l-.2.7h-.6l-.1-.7-.1-1.2V191h1zm-89.8 27.6v-.8h.7q1 0 1.3-.4.4-.4.4-1.3V215q0-1.7 1.2-2.1-1.2-.6-1.2-2.1v-1q0-1.5-1.3-1.5h-1.1v-.8h.8q2.6 0 2.6 2.5v1q0 .8.3 1.1.3.4 1 .4h.2v.8h-.3q-.6 0-1 .3-.2.3-.2 1.2v1.4q0 1-.2 1.5-.4.6-1 .8-.7.2-1.7.2h-.5z" font-size="14" font-family="Inconsolata" fill="#25337c"/><path d="M11.2 238.7h172.5" stroke="#25337c" fill="none"/><path d="M32 258.7q-1 0-1.7-.2t-1-.7q-.3-.6-.3-1.5v-1.4q0-1-.2-1.3-.3-.3-1-.3h-.3v-.8h.3q.7 0 1-.3.3-.4.3-1.2v-1q0-2.4 2.5-2.4h1v.8h-1.2q-1.3 0-1.3 1.4v1q0 1.6-1.2 2.1 1.2.4 1.2 2.2v1.1q0 1 .3 1.3.4.4 1.4.4h.7v.8H32zm14.4 13q1 0 1.7-.8l.6.7q-1 1-2.4 1-.9 0-1.6-.4-.7-.4-1.2-1.2-.4-.8-.4-1.7 0-1 .4-1.7.5-.8 1.2-1.2.7-.4 1.6-.4.8 0 1.4.3.7.3 1 .8l-.6.7q-.4-.6-.8-.8l-1-.2q-.6 0-1.1.3-.5.3-.7.9-.3.5-.3 1.2t.3 1.3q.2.6.8 1 .5.2 1.1.2zm1.6-4v.1zm.1 0v.1zm4.3 4.9q-1 0-1.6-.7-.6-.8-.5-2.2V266h1v3.6q0 1.1.3 1.6.4.5 1.1.5.7 0 1.2-.5.5-.6.5-1.7V266h1v5.9l.1.5h-1v-1q-.4.5-.9.8-.5.3-1.2.3zm7.9-3.9q1.2.4 1.7.8t.5 1.1q0 .9-.7 1.5-.6.5-2 .5-1.6 0-2.6-1l.5-1q.5.6 1 .9.4.3 1.2.3.8 0 1.2-.3.4-.3.4-.7 0-.4-.3-.7-.4-.3-1.3-.6-2.4-.7-2.4-2 0-.7.6-1.1.6-.5 1.8-.5.8 0 1.4.3.6.2 1.1.7l-.6.7q-.3-.4-.8-.6-.6-.3-1.1-.3-.6 0-1 .2t-.4.6q0 .3.4.6t1.4.6zm1.4-1zm.1 0zm-4 3v-.2.1zm0 0l-.1-.1zm11.8 1.2q-1 .7-2 .7-1.1 0-1.6-.7-.4-.6-.4-2v-.9l.1-2h-1.4v-1h1.5l.1-1.6 1.1-.2h.2l-.2.3v.3l-.2 1.3H69v.8h-2.1l-.2 2.2v.7q0 1.1.3 1.5.2.4.8.4l.8-.1.8-.5.3.8zm1.2 1.7v-.9h6v.9h-6zm8-1.1v-.8h1.6v-4.8h-1.6v-.8h2.6v5.6h1.5v.8h-4.1zm2-7.8q-.3 0-.5-.2t-.2-.5q0-.3.2-.5t.5-.2q.3 0 .5.2.3.2.3.5t-.3.5q-.2.2-.5.2zm6.8 7.9q-.7 0-1.3-.4-.6-.3-1-1.1-.3-.8-.3-1.9 0-1 .4-1.8t1-1.1q.6-.4 1.3-.4.6 0 1.1.3.5.3.7.8v-3.8h1.1l-.1.3v8.6l.1.4h-1v-1q-.4.5-.9.8-.5.3-1 .3zm.2-.9q.9 0 1.3-.6.4-.7.4-1.9 0-1-.5-1.8-.4-.7-1.3-.7-.8 0-1.3.7-.4.6-.4 1.7 0 1.2.4 2 .5.6 1.4.6zm6.9-3.5q-.3 0-.6-.3-.2-.2-.2-.5 0-.4.2-.6l.6-.2.6.2q.2.2.2.6 0 .3-.2.5-.3.3-.6.3zm0 4.4q-.4 0-.6-.2-.2-.2-.2-.6 0-.3.2-.5.3-.3.6-.3t.6.3q.2.2.2.5 0 .4-.2.6l-.6.2zm13.7-9.4v1.7l-.2 1.2v.7h-.7l-.1-.7-.1-1.2v-1.7h1zm2 0v2.9l-.2.7h-.6l-.1-.7-.1-1.2v-1.7h1zm7.7 9.3l-.9-2.6h-2.8l-.9 2.6h-1l3.3-8.9h.1l3.2 8.9h-1zm-3.4-3.3h2.3l-1.2-3.4-1.1 3.4zm7.9 3.3V265l-1.8.5-.2-.6 2.3-1.2h.7v8.8h-1zm4.8-.8l1.1-1.1 1.7-1.8 1-1.3q.3-.6.3-1.3 0-.9-.5-1.3-.4-.3-1-.3l-1.2.2q-.5.3-.6.6l-.2.3v.3h-.1l-.7-.6q.4-.8 1.1-1.2.7-.5 1.7-.5t1.8.7q.7.7.7 1.8 0 .8-.4 1.5t-1 1.3l-1.5 1.7-1 1h3.3l.3-.1.2-.1h.1v1h-5.1v-.8zm10.3-3.8q.7.2 1.2.8.4.5.4 1.4 0 .7-.3 1.3-.3.6-.9.9-.6.3-1.4.3-.7 0-1.3-.2-.6-.3-1-.8l.6-.7.7.7q.4.2 1 .2.8 0 1.2-.5.4-.5.4-1.3t-.5-1.3q-.5-.4-1.5-.4h-.4v-.7q1.2 0 1.7-.5.4-.5.4-1.3 0-.6-.3-.9-.4-.4-1-.4-.8 0-1.5.7l-.6-.6q.9-.9 2.2-.9 1 0 1.6.6.6.6.6 1.6 0 .7-.3 1.2-.4.6-1 .8zm-2.6 3v-.1zm-.1 0v-.1zm8.4-7.7v1.7l-.2 1.2v.7h-.7l-.1-.7-.1-1.2v-1.7h1zm2 0v2.9l-.2.7h-.6l-.1-.7-.1-1.2v-1.7h1zm4.3 11.2q.4-.3.6-.8.3-.4.3-.7l-.1-.2-.2-.2-.3-.3-.1-.3q0-.4.2-.6.2-.3.6-.3.4 0 .6.4.3.3.3.8 0 1.1-1.5 2.6l-.4-.4zM45.8 283q1.3 0 2 .7.8.7.8 2.4v3.4h-1.1v-1q-.6 1.1-2.2 1.1-1 0-1.7-.4-.6-.5-.6-1.3 0-.7.5-1.2.4-.5 1.1-.8.8-.3 1.7-.3l1.4.1q0-1-.6-1.5-.4-.4-1.4-.4l-1 .2q-.4.1-.7.5l-.5-.7q.9-.9 2.3-.9zm-.4 5.9q1 0 1.6-.6.6-.6.7-1.8l-1.4-.1q-1 0-1.6.4-.7.3-.7 1 0 1 1.4 1zm4.5-5.9h1v.7q.1-.3.5-.5.3-.3.7-.3.4 0 .7.3.4.3.4.7.2-.4.6-.7.4-.3.9-.3.6 0 1 .5.2.4.2 1.2v4.9H55v-4.6q0-.8-.2-1-.1-.2-.4-.2-.3 0-.5.2l-.4.6-.1.8v4.2h-1V285l-.1-1q-.2-.3-.6-.3l-.4.2-.4.5v5.1h-1V283zm10 6.6q-.9 0-1.6-.4-.6-.4-1-1.2-.4-.8-.4-1.7 0-1 .4-1.7.4-.8 1-1.2.7-.5 1.6-.5.8 0 1.5.5.7.4 1 1.2.4.7.4 1.7t-.4 1.7q-.3.8-1 1.2-.7.4-1.5.4zm0-.8q.5 0 1-.4.4-.3.6-.8.2-.6.2-1.3 0-1.1-.5-1.8t-1.3-.7q-.9 0-1.4.7-.5.7-.5 1.8 0 .7.2 1.3.3.5.7.8.4.4 1 .4zm6.5.8q-1 0-1.6-.7-.6-.8-.5-2.2V283h1v3.6q0 1.1.3 1.6.4.5 1.1.5.7 0 1.2-.5.5-.6.5-1.7V283h1v5.9l.1.5h-1v-1q-.4.5-.9.8-.5.3-1.2.3zm5-6.6h1v1.2q.3-.6.9-1 .6-.3 1.2-.3.9 0 1.4.7.5.6.5 2v3.9h-1v-3.9q0-1-.3-1.4-.3-.4-.9-.4-.4 0-.9.3-.4.2-.7.7-.3.4-.3 1v3.7h-1V283zm12.2 5.9q-1 .7-2 .7-1.1 0-1.6-.7-.4-.6-.4-2v-.9l.1-2h-1.4v-1h1.5l.1-1.6 1.1-.2h.2l-.2.3v.3l-.2 1.3H83v.8h-2.1l-.2 2.2v.7q0 1.1.3 1.5.2.4.8.4l.8-.1.8-.5.3.8zm4.1-3.7q-.3 0-.6-.3-.2-.2-.2-.5 0-.4.2-.6l.6-.2.6.2q.2.2.2.6 0 .3-.2.5-.3.3-.6.3zm0 4.4q-.4 0-.6-.2-.2-.2-.2-.6 0-.3.2-.5.3-.3.6-.3t.6.3q.2.2.2.5 0 .4-.2.6l-.6.2zm11.7-.9l1.1-1.1 1.7-1.8 1-1.3q.3-.6.3-1.3 0-.9-.5-1.3-.4-.3-1-.3l-1.2.2q-.5.3-.6.6l-.2.3v.3h-.1l-.7-.6q.4-.8 1.1-1.2.7-.5 1.7-.5t1.8.7q.7.7.7 1.8 0 .8-.4 1.5t-1 1.3l-1.5 1.7-1 1h3.3l.3-.1.2-.1h.1v1h-5.1v-.8zm9.6-4.9q.7 0 1.3.4.6.3 1 1 .3.7.3 1.5 0 1-.4 1.6-.3.6-1 1-.6.3-1.4.3-.8 0-1.4-.3-.7-.4-1.2-1l.8-.6q.4.6.8.8.4.3 1.1.3.4 0 .8-.3.4-.2.7-.7.2-.5.2-1.1 0-1-.5-1.5-.5-.6-1.3-.6-.5 0-.9.2l-.7.7-.7-.3.3-4.4h4.5v.8h-3.6l-.2 2.5q.7-.3 1.5-.3zm-2 3.9q0-.1 0 0zm.2 0h-.1.1zm8.7-7q1.2 0 2 1.2.7 1.2.7 3.3 0 2.1-.7 3.3-.7 1.1-2 1.1t-2-1.1q-.7-1.2-.7-3.3 0-2.1.7-3.3.7-1.2 2-1.2zm0 .9q-.8 0-1.3 1-.4 1-.4 2.6v1.6l3-3.9-.5-1q-.4-.3-.8-.3zm0 7.2q.8 0 1.2-1 .4-.9.4-2.6v-1.4l-3 3.8q.4 1.2 1.4 1.2zm5.8 2.6q.4-.3.6-.8.3-.4.3-.7l-.1-.2-.2-.2-.3-.3-.1-.3q0-.4.2-.6.2-.3.6-.3.4 0 .6.4.3.3.3.8 0 1.1-1.5 2.6l-.4-.4zm-75.4 11.3q1.2.4 1.7.8t.5 1.1q0 .9-.7 1.5-.6.5-2 .5-1.6 0-2.6-1l.5-1q.5.6 1 .9.4.3 1.2.3.8 0 1.2-.3.4-.3.4-.7 0-.4-.3-.7-.4-.3-1.3-.6-2.4-.7-2.4-2 0-.7.6-1.1.6-.5 1.8-.5.8 0 1.4.3.6.2 1.1.7l-.6.7q-.3-.4-.8-.6-.6-.3-1.1-.3-.6 0-1 .2t-.4.6q0 .3.4.6t1.4.6zm1.4-1zm.1 0zm-4 3v-.2.1zm0 0l-.1-.1zm11.8 1.2q-1 .7-2 .7-1.1 0-1.6-.7-.4-.6-.4-2v-.9l.1-2h-1.4v-1h1.5l.1-1.6 1.1-.2h.2l-.2.3v.3l-.2 1.3H55v.8h-2.1l-.2 2.2v.7q0 1.1.3 1.5.2.4.8.4l.8-.1.8-.5.3.8zm4.2-5.9q1.3 0 2 .7.8.7.8 2.4v3.4h-1.1v-1q-.6 1.1-2.2 1.1-1 0-1.7-.4-.6-.5-.6-1.3 0-.7.5-1.2.4-.5 1.1-.8.8-.3 1.7-.3l1.4.1q0-1-.6-1.5-.4-.4-1.4-.4l-1 .2q-.4.1-.7.5l-.5-.7q.9-.9 2.3-.9zm-.4 5.9q1 0 1.6-.6.6-.6.7-1.8l-1.4-.1q-1 0-1.6.4-.7.3-.7 1 0 1 1.4 1zm10.2 0q-1 .7-2 .7-1.1 0-1.6-.7-.4-.6-.4-2v-.9l.1-2h-1.4v-1h1.5l.1-1.6 1.1-.2h.2l-.2.3v.3l-.2 1.3H69v.8h-2.1l-.2 2.2v.7q0 1.1.3 1.5.2.4.8.4l.8-.1.8-.5.3.8zm3.8.7q-1 0-1.6-.7-.6-.8-.6-2.2V300h1v3.6q0 1.1.4 1.6t1.1.5q.7 0 1.2-.5.5-.6.5-1.7V300h1v5.9l.1.5h-1v-1q-.4.5-.9.8-.5.3-1.2.3zm7.9-3.9q1.2.4 1.7.8t.5 1.1q0 .9-.7 1.5-.6.5-2 .5-1.6 0-2.6-1l.5-1q.5.6 1 .9.4.3 1.2.3.8 0 1.2-.3.4-.3.4-.7 0-.4-.3-.7-.4-.3-1.3-.6-2.4-.7-2.4-2 0-.7.6-1.1.6-.5 1.8-.5.8 0 1.4.3.6.2 1.1.7l-.6.7q-.3-.4-.8-.6-.6-.3-1.1-.3-.6 0-1 .2t-.4.6q0 .3.4.6t1.4.6zm1.4-1zm.1 0zm-4 3v-.2.1zm0 0l-.1-.1zm8.9-2.5q-.3 0-.6-.3-.2-.2-.2-.5 0-.4.2-.6l.6-.2.6.2q.2.2.2.6 0 .3-.2.5-.3.3-.6.3zm0 4.4q-.4 0-.6-.2-.2-.2-.2-.6 0-.3.2-.5.3-.3.6-.3t.6.3q.2.2.2.5 0 .4-.2.6l-.6.2zm13.7-9.4v1.7l-.2 1.2v.7h-.7l-.1-.7-.1-1.2v-1.7h1zm2 0v2.9l-.2.7h-.6l-.1-.7-.1-1.2v-1.7h1zm7.7 9.3l-.9-2.6h-2.8l-.9 2.6h-1l3.3-8.9h.1l3.2 8.9h-1zm-3.4-3.3h2.3l-1.2-3.4-1.1 3.4zm7.7-6v1.7l-.2 1.2v.7h-.7l-.1-.7-.1-1.2v-1.7h1zm2 0v2.9l-.2.7h-.6l-.1-.7-.1-1.2v-1.7h1zm-89.8 27.5v-.8h.7q1 0 1.3-.4.4-.3.4-1.3v-1.1q0-1.8 1.2-2.2-1.2-.5-1.2-2v-1q0-1.5-1.3-1.5h-1.1v-.8h.8q2.6 0 2.6 2.4v1q0 .8.3 1.2.3.3 1 .3h.2v.8h-.3q-.6 0-1 .3-.2.4-.2 1.3v1.4q0 1-.2 1.5-.4.5-1 .7-.7.2-1.7.2h-.5z" font-size="14" font-family="Inconsolata" fill="#25337c"/><path d="M11.2 344.6h172.5" stroke="#25337c" fill="none"/><path d="M32 365.6q-1 0-1.7-.2t-1-.8q-.3-.5-.3-1.5v-1.4q0-.9-.2-1.2-.3-.3-1-.3h-.3v-.8h.3q.7 0 1-.4.3-.3.3-1.1v-1q0-2.5 2.5-2.5h1v.8h-1.2q-1.3 0-1.3 1.5v1q0 1.5-1.2 2 1.2.5 1.2 2.2v1.2q0 1 .3 1.3.4.4 1.4.4h.7v.8H32zm14.4 13q1 0 1.7-.8l.6.7q-1 1-2.4 1-.9 0-1.6-.4-.7-.5-1.2-1.2-.4-.8-.4-1.7 0-1 .4-1.8.5-.7 1.2-1.1.7-.5 1.6-.5.8 0 1.4.3.7.4 1 1l-.6.5q-.4-.5-.8-.7l-1-.2q-.6 0-1.1.3-.5.3-.7.8-.3.6-.3 1.3 0 .7.3 1.3.2.5.8.9.5.3 1.1.3zm1.6-4v.1zm.1 0v.1zm4.3 4.9q-1 0-1.6-.7-.6-.8-.5-2.3V373h1v3.6q0 1.2.3 1.7.4.5 1.1.5.7 0 1.2-.6.5-.5.5-1.6V373h1v5.9l.1.4h-1v-.9q-.4.5-.9.8-.5.3-1.2.3zm7.9-3.9q1.2.3 1.7.8.5.4.5 1 0 1-.7 1.5-.6.6-2 .6-1.6 0-2.6-1l.5-1q.5.6 1 .9.4.2 1.2.2.8 0 1.2-.2.4-.3.4-.8 0-.4-.3-.6-.4-.3-1.3-.6-2.4-.7-2.4-2 0-.7.6-1.2.6-.4 1.8-.4.8 0 1.4.2.6.3 1.1.8l-.6.7q-.3-.4-.8-.7l-1.1-.2q-.6 0-1 .2t-.4.5q0 .4.4.7.4.3 1.4.6zm1.4-1q0-.1 0 0zm.1 0zm-4 2.9v-.1zm0 0h-.1zm11.8 1.3q-1 .6-2 .6-1.1 0-1.6-.6-.4-.6-.4-2.1v-.8l.1-2.1h-1.4v-.9h1.5l.1-1.7 1.1-.1h.2l-.2.3v.3l-.2 1.2H69v.9h-2.1l-.2 2.1v.8q0 1.1.3 1.5.2.4.8.4l.8-.1.8-.5.3.8zm1.2 1.7v-.9h6v.9h-6zm8-1.2v-.8h1.6v-4.7h-1.6v-.9h2.6v5.6h1.5v.8h-4.1zm2-7.7q-.3 0-.5-.2t-.2-.5q0-.3.2-.5t.5-.2q.3 0 .5.2.3.2.3.5t-.3.5q-.2.2-.5.2zm6.8 7.9q-.7 0-1.3-.4-.6-.4-1-1.2-.3-.7-.3-1.8t.4-1.9q.4-.7 1-1 .6-.4 1.3-.4.6 0 1.1.3.5.3.7.8V370h1.1v.1l-.1.2v8.6l.1.4h-1v-.9q-.4.5-.9.8-.5.3-1 .3zm.2-.9q.9 0 1.3-.7t.4-1.8q0-1.1-.5-1.8-.4-.7-1.3-.7-.8 0-1.3.6-.4.7-.4 1.7 0 1.3.4 2 .5.7 1.4.7zm6.9-3.6l-.6-.2q-.2-.2-.2-.6 0-.3.2-.5.3-.3.6-.3t.6.3q.2.2.2.5 0 .4-.2.6l-.6.2zm0 4.5q-.4 0-.6-.2l-.2-.6.2-.6.6-.2.6.2.2.6-.2.6-.6.2zm13.7-9.5v1.8l-.2 1.2v.7h-.7l-.1-.7-.1-1.2V370h1zm2 0v3l-.2.7h-.6l-.1-.7-.1-1.2V370h1zm2.6.6h2.5q1.5 0 2.2.6.7.6.7 1.5 0 .7-.3 1.2-.4.6-1 .8.7.2 1.2.9.5.6.5 1.3 0 1.1-.9 1.8-.8.6-2.4.6H113v-8.7zm2.4 3.6q2 0 2-1.3 0-.7-.4-1-.5-.4-1.5-.4H114v2.7h1.4zm.3 4.3q2 0 2-1.7t-2.3-1.7H114v3.4h1.7zm4.7.1l1.1-1.2 1.7-1.8 1-1.2q.3-.7.3-1.4 0-.8-.5-1.2-.4-.4-1-.4t-1.2.3q-.5.3-.6.6l-.2.3v.2h-.1l-.7-.5q.4-.8 1.1-1.3.7-.4 1.7-.4t1.8.6q.7.7.7 1.9 0 .7-.4 1.4l-1 1.4-1.5 1.6-1 1h3.6l.2-.1h.1v1h-5.1v-.8zm9.2.7v-7.5l-1.8.5-.2-.5 2.3-1.2h.7v8.7h-1zm4.8-.7l1.1-1.2 1.7-1.8 1-1.2q.3-.7.3-1.4 0-.8-.5-1.2-.4-.4-1-.4t-1.2.3q-.5.3-.6.6l-.2.3v.2h-.1l-.7-.5q.4-.8 1.1-1.3.7-.4 1.7-.4t1.8.6q.7.7.7 1.9 0 .7-.4 1.4l-1 1.4-1.5 1.6-1 1h3.6l.2-.1h.1v1h-5.1v-.8zm9-8.6v1.8l-.2 1.2v.7h-.7l-.1-.7-.1-1.2V370h1zm2 0v3l-.2.7h-.6l-.1-.7-.1-1.2V370h1zm4.3 11.3l.6-.8q.3-.4.3-.7l-.1-.2-.2-.3-.3-.3-.1-.3.2-.6q.2-.2.6-.2.4 0 .6.3.3.4.3.9 0 1-1.5 2.6l-.4-.4zm-103.9 8.5q1.3 0 2 .7.8.7.8 2.4v3.4h-1.1v-1q-.6 1.2-2.2 1.2-1 0-1.7-.5-.6-.5-.6-1.3 0-.6.5-1.1.4-.5 1.1-.8.8-.3 1.7-.3l1.4.1q0-1-.6-1.5-.4-.5-1.4-.5l-1 .2q-.4.2-.7.6l-.5-.7q.9-.9 2.3-.9zm-.4 6q1 0 1.6-.7.6-.6.7-1.7l-1.4-.1q-1 0-1.6.3-.7.4-.7 1 0 1.1 1.4 1.1zm4.5-5.8h1v.6q.1-.4.5-.6.3-.2.7-.2.4 0 .7.3.4.2.4.6.2-.4.6-.6.4-.3.9-.3.6 0 1 .5.2.4.2 1.1v5H55v-4.6q0-.8-.2-1-.1-.3-.4-.3-.3 0-.5.3l-.4.6-.1.7v4.2h-1V392l-.1-1q-.2-.3-.6-.3l-.4.2-.4.5v5h-1V390zm10 6.5q-.9 0-1.6-.5-.6-.4-1-1.1-.4-.8-.4-1.8t.4-1.7q.4-.7 1-1.2.7-.4 1.6-.4.8 0 1.5.4.7.5 1 1.2.4.8.4 1.7 0 1-.4 1.8-.3.7-1 1.1-.7.5-1.5.5zm0-.9q.5 0 1-.3.4-.3.6-.9.2-.6.2-1.3 0-1-.5-1.7t-1.3-.7q-.9 0-1.4.7-.5.6-.5 1.7 0 .7.2 1.3.3.6.7.9.4.3 1 .3zm6.5.9q-1 0-1.6-.7-.6-.8-.5-2.3V390h1v3.6q0 1.2.3 1.7.4.5 1.1.5.7 0 1.2-.6.5-.5.5-1.6V390h1v5.9l.1.4h-1v-.9q-.4.5-.9.8-.5.3-1.2.3zm5-6.5h1v1q.3-.5.9-.9.6-.3 1.2-.3.9 0 1.4.7.5.6.5 2v3.8h-1v-3.8q0-1-.3-1.4-.3-.4-.9-.4l-.9.2-.7.7q-.3.5-.3 1v3.7h-1V390zm12.2 5.8q-1 .6-2 .6-1.1 0-1.6-.6-.4-.6-.4-2.1v-.8l.1-2.1h-1.4v-.9h1.5l.1-1.7 1.1-.1h.2l-.2.3v.3l-.2 1.2H83v.9h-2.1l-.2 2.1v.8q0 1.1.3 1.5.2.4.8.4l.8-.1.8-.5.3.8zm4.1-3.8l-.6-.2q-.2-.2-.2-.6 0-.3.2-.5.3-.3.6-.3t.6.3q.2.2.2.5 0 .4-.2.6l-.6.2zm0 4.5q-.4 0-.6-.2l-.2-.6.2-.6.6-.2.6.2.2.6-.2.6-.6.2zm11.7-.9l1.1-1.2 1.7-1.8 1-1.2q.3-.7.3-1.4 0-.8-.5-1.2-.4-.4-1-.4t-1.2.3q-.5.3-.6.6l-.2.3v.2h-.1l-.7-.5q.4-.8 1.1-1.3.7-.4 1.7-.4t1.8.6q.7.7.7 1.9 0 .7-.4 1.4l-1 1.4-1.5 1.6-1 1h3.6l.2-.1h.1v1h-5.1v-.8zm9.5-8q1.2 0 2 1.2.7 1.1.7 3.2 0 2.2-.7 3.3-.7 1.2-2 1.2t-2-1.2q-.7-1.1-.7-3.3 0-2 .7-3.2.7-1.2 2-1.2zm0 .8q-.8 0-1.3 1-.4 1-.4 2.6v1.6l3-3.8q-.2-.7-.5-1-.4-.4-.8-.4zm0 7.2q.8 0 1.2-.9.4-1 .4-2.7v-1.4l-3 3.8q.4 1.2 1.4 1.2zm7-8q1.2 0 2 1.2.7 1.1.7 3.2 0 2.2-.7 3.3-.7 1.2-2 1.2t-2-1.2q-.7-1.1-.7-3.3 0-2 .7-3.2.7-1.2 2-1.2zm0 .8q-.8 0-1.3 1-.4 1-.4 2.6v1.6l3-3.8q-.2-.7-.5-1-.4-.4-.8-.4zm0 7.2q.8 0 1.2-.9.4-1 .4-2.7v-1.4l-3 3.8q.4 1.2 1.4 1.2zm5.8 2.7l.6-.8q.3-.4.3-.7l-.1-.2-.2-.3-.3-.3-.1-.3.2-.6q.2-.2.6-.2.4 0 .6.3.3.4.3.9 0 1-1.5 2.6l-.4-.4zm-75.4 11.3q1.2.3 1.7.8.5.4.5 1 0 1-.7 1.5-.6.6-2 .6-1.6 0-2.6-1l.5-1q.5.6 1 .9.4.2 1.2.2.8 0 1.2-.2.4-.3.4-.8 0-.4-.3-.6-.4-.3-1.3-.6-2.4-.7-2.4-2 0-.7.6-1.2.6-.4 1.8-.4.8 0 1.4.2.6.3 1.1.8l-.6.7q-.3-.4-.8-.7l-1.1-.2q-.6 0-1 .2t-.4.5q0 .4.4.7.4.3 1.4.6zm1.4-1q0-.1 0 0zm.1 0zm-4 2.9v-.1zm0 0h-.1zm11.8 1.3q-1 .6-2 .6-1.1 0-1.6-.6-.4-.6-.4-2.1v-.8l.1-2.1h-1.4v-.9h1.5l.1-1.7 1.1-.1h.2l-.2.3v.3l-.2 1.2H55v.9h-2.1l-.2 2.1v.8q0 1.1.3 1.5.2.4.8.4l.8-.1.8-.5.3.8zm4.2-6q1.3 0 2 .7.8.7.8 2.4v3.4h-1.1v-1q-.6 1.2-2.2 1.2-1 0-1.7-.5-.6-.5-.6-1.3 0-.6.5-1.1.4-.5 1.1-.8.8-.3 1.7-.3l1.4.1q0-1-.6-1.5-.4-.5-1.4-.5l-1 .2q-.4.2-.7.6l-.5-.7q.9-.9 2.3-.9zm-.4 6q1 0 1.6-.7.6-.6.7-1.7l-1.4-.1q-1 0-1.6.3-.7.4-.7 1 0 1.1 1.4 1.1zm10.2 0q-1 .6-2 .6-1.1 0-1.6-.6-.4-.6-.4-2.1v-.8l.1-2.1h-1.4v-.9h1.5l.1-1.7 1.1-.1h.2l-.2.3v.3l-.2 1.2H69v.9h-2.1l-.2 2.1v.8q0 1.1.3 1.5.2.4.8.4l.8-.1.8-.5.3.8zm3.8.7q-1 0-1.6-.7-.6-.8-.6-2.3V407h1v3.6q0 1.2.4 1.7t1.1.5q.7 0 1.2-.6.5-.5.5-1.6V407h1v5.9l.1.4h-1v-.9q-.4.5-.9.8-.5.3-1.2.3zm7.9-3.9q1.2.3 1.7.8.5.4.5 1 0 1-.7 1.5-.6.6-2 .6-1.6 0-2.6-1l.5-1q.5.6 1 .9.4.2 1.2.2.8 0 1.2-.2.4-.3.4-.8 0-.4-.3-.6-.4-.3-1.3-.6-2.4-.7-2.4-2 0-.7.6-1.2.6-.4 1.8-.4.8 0 1.4.2.6.3 1.1.8l-.6.7q-.3-.4-.8-.7l-1.1-.2q-.6 0-1 .2t-.4.5q0 .4.4.7.4.3 1.4.6zm1.4-1q0-.1 0 0zm.1 0zm-4 2.9v-.1zm0 0h-.1zm8.9-2.5l-.6-.2q-.2-.2-.2-.6 0-.3.2-.5.3-.3.6-.3t.6.3q.2.2.2.5 0 .4-.2.6l-.6.2zm0 4.5q-.4 0-.6-.2l-.2-.6.2-.6.6-.2.6.2.2.6-.2.6-.6.2zm13.7-9.5v1.8l-.2 1.2v.7h-.7l-.1-.7-.1-1.2V404h1zm2 0v3l-.2.7h-.6l-.1-.7-.1-1.2V404h1zm7.7 9.3l-.9-2.5h-2.8l-.9 2.5h-1l3.3-8.8h.1l3.2 8.8h-1zm-3.4-3.3h2.3l-1.2-3.3-1.1 3.3zm7.7-6v1.8l-.2 1.2v.7h-.7l-.1-.7-.1-1.2V404h1zm2 0v3l-.2.7h-.6l-.1-.7-.1-1.2V404h1zm-89.8 27.6v-.8h.7q1 0 1.3-.4.4-.4.4-1.3V428q0-1.7 1.2-2.1-1.2-.6-1.2-2.1v-1q0-1.5-1.3-1.5h-1.1v-.8h.8q2.6 0 2.6 2.5v1q0 .8.3 1.1.3.4 1 .4h.2v.8h-.3q-.6 0-1 .3-.2.3-.2 1.2v1.4q0 1-.2 1.5-.4.6-1 .8-.7.2-1.7.2h-.5z" font-size="14" font-family="Inconsolata" fill="#25337c"/><path d="M11 451.2h172.5" stroke="#25337c" fill="none"/><path d="M32 472.4q-1 0-1.7-.2t-1-.8q-.3-.5-.3-1.5v-1.4q0-.9-.2-1.2-.3-.3-1-.3h-.3v-.8h.3q.7 0 1-.4.3-.3.3-1.1v-1q0-2.5 2.5-2.5h1v.8h-1.2q-1.3 0-1.3 1.5v1q0 1.5-1.2 2 1.2.5 1.2 2.2v1.2q0 1 .3 1.3.4.4 1.4.4h.7v.8H32zm14.4 13q1 0 1.7-.8l.6.7q-1 1-2.4 1-.9 0-1.6-.4-.7-.5-1.2-1.2-.4-.8-.4-1.7 0-1 .4-1.7.5-.8 1.2-1.2.7-.5 1.6-.5.8 0 1.4.3.7.4 1 1l-.6.5q-.4-.5-.8-.7l-1-.2q-.6 0-1.1.3-.5.3-.7.8-.3.6-.3 1.3 0 .7.3 1.3.2.6.8.9.5.3 1.1.3zm1.6-4v.1zm.1 0v.1zm4.3 4.9q-1 0-1.6-.7-.6-.8-.5-2.3v-3.5h1v3.5q0 1.2.3 1.7.4.5 1.1.5.7 0 1.2-.6.5-.5.5-1.6v-3.5h1v5.9l.1.5h-1v-1q-.4.5-.9.8-.5.3-1.2.3zm7.9-3.9q1.2.3 1.7.8.5.4.5 1 0 1-.7 1.5-.6.6-2 .6-1.6 0-2.6-1l.5-1q.5.6 1 .9.4.3 1.2.3.8 0 1.2-.3.4-.3.4-.8 0-.4-.3-.6-.4-.3-1.3-.6-2.4-.7-2.4-2 0-.7.6-1.2.6-.4 1.8-.4.8 0 1.4.3.6.2 1.1.7l-.6.7q-.3-.4-.8-.7l-1.1-.2q-.6 0-1 .2t-.4.6q0 .3.4.6t1.4.6zm1.4-1q0-.1 0 0zm.1 0zm-4 2.9zm0 0h-.1zm11.8 1.3q-1 .6-2 .6-1.1 0-1.6-.6-.4-.6-.4-2v-1l.1-2h-1.4v-.8h1.5l.1-1.8 1.1-.1h.2l-.2.3v.3l-.2 1.3H69v.8h-2.1l-.2 2.1v.8q0 1.1.3 1.5.2.4.8.4l.8-.1.8-.5.3.8zm1.2 1.7v-.9h6v.9h-6zm8-1.1v-.9h1.6v-4.7h-1.6v-.8h2.6v5.5h1.5v.9h-4.1zm2-7.8q-.3 0-.5-.2t-.2-.5q0-.3.2-.5t.5-.2q.3 0 .5.2.3.2.3.5t-.3.5q-.2.2-.5.2zm6.8 7.9q-.7 0-1.3-.4-.6-.4-1-1.1-.3-.8-.3-2 0-1 .4-1.8.4-.7 1-1 .6-.4 1.3-.4.6 0 1.1.3.5.3.7.8v-3.9h1.1v.1l-.1.2v8.6l.1.5h-1v-1q-.4.5-.9.8-.5.3-1 .3zm.2-.9q.9 0 1.3-.7t.4-1.8q0-1.1-.5-1.8-.4-.7-1.3-.7-.8 0-1.3.6-.4.7-.4 1.7 0 1.3.4 2 .5.7 1.4.7zm6.9-3.6l-.6-.2q-.2-.2-.2-.6 0-.3.2-.5.3-.3.6-.3t.6.3q.2.2.2.5 0 .4-.2.6l-.6.2zm0 4.5q-.4 0-.6-.2l-.2-.6.2-.6.6-.2.6.2.2.6-.2.6-.6.2zm13.7-9.5v1.8l-.2 1.2v.7h-.7l-.1-.7-.1-1.2v-1.8h1zm2 0v3l-.2.7h-.6l-.1-.7-.1-1.2v-1.8h1zm7.7 9.4l-.9-2.6h-2.8l-.9 2.6h-1l3.3-9h.1l3.2 9h-1zm-3.4-3.4h2.3l-1.2-3.3-1.1 3.3zm7.9 3.4v-7.6l-1.8.6-.2-.6 2.3-1.2h.7v8.8h-1zm4.8-.8l1.1-1.2 1.7-1.8 1-1.2q.3-.7.3-1.4 0-.8-.5-1.2-.4-.4-1-.4t-1.2.3q-.5.3-.6.6l-.2.3v.3h-.1l-.7-.6q.4-.8 1.1-1.3.7-.4 1.7-.4t1.8.6q.7.7.7 1.9 0 .7-.4 1.4-.4.8-1 1.4l-1.5 1.6-1 1h3.6l.2-.1h.1v1h-5.1v-.8zm10.3-3.9q.7.3 1.2.8.4.6.4 1.5 0 .7-.3 1.2-.3.6-.9 1-.6.3-1.4.3-.7 0-1.3-.2-.6-.3-1-.8l.6-.8q.3.5.7.7.4.3 1 .3.8 0 1.2-.5.4-.5.4-1.3 0-.9-.5-1.3t-1.5-.4h-.4v-.8q1.2 0 1.7-.4.4-.5.4-1.3 0-.6-.3-1-.4-.3-1-.3-.8 0-1.5.7l-.6-.6q.9-1 2.2-1 1 0 1.6.7.6.6.6 1.5 0 .8-.3 1.3-.4.5-1 .7zm-2.6 3zm-.1 0zm8.4-7.7v1.8l-.2 1.2v.7h-.7l-.1-.7-.1-1.2v-1.8h1zm2 0v3l-.2.7h-.6l-.1-.7-.1-1.2v-1.8h1zm4.3 11.2q.4-.3.6-.7.3-.4.3-.7l-.1-.2-.2-.2-.3-.4-.1-.3.2-.6q.2-.2.6-.2.4 0 .6.3.3.4.3.9 0 1-1.5 2.6l-.4-.4zm-103.9 8.6q1.3 0 2 .7.8.7.8 2.4v3.5h-1.1v-1q-.6 1.1-2.2 1.1-1 0-1.7-.5-.6-.5-.6-1.3 0-.6.5-1.1.4-.5 1.1-.8.8-.3 1.7-.3l1.4.1q0-1-.6-1.5-.4-.5-1.4-.5l-1 .2q-.4.2-.7.6l-.5-.7q.9-.9 2.3-.9zm-.4 6q1 0 1.6-.7.6-.6.7-1.7l-1.4-.1q-1 0-1.6.3-.7.4-.7 1 0 1.1 1.4 1.1zm4.5-5.8h1v.6q.1-.4.5-.6.3-.2.7-.2.4 0 .7.3.4.2.4.6.2-.4.6-.6.4-.3.9-.3.6 0 1 .5.2.4.2 1.1v5H55v-4.6q0-.8-.2-1-.1-.3-.4-.3-.3 0-.5.3l-.4.6-.1.7v4.3h-1v-4.5l-.1-1q-.2-.3-.6-.3l-.4.2-.4.5v5.1h-1v-6.4zm10 6.5q-.9 0-1.6-.5-.6-.4-1-1.1-.4-.8-.4-1.8t.4-1.7q.4-.7 1-1.2.7-.4 1.6-.4.8 0 1.5.4.7.5 1 1.2.4.8.4 1.7 0 1-.4 1.8-.3.7-1 1.1-.7.5-1.5.5zm0-.9q.5 0 1-.3.4-.3.6-.9.2-.6.2-1.3 0-1-.5-1.7t-1.3-.7q-.9 0-1.4.7-.5.6-.5 1.7 0 .7.2 1.3.3.6.7.9.4.3 1 .3zm6.5.9q-1 0-1.6-.7-.6-.8-.5-2.3v-3.5h1v3.5q0 1.2.3 1.7.4.5 1.1.5.7 0 1.2-.6.5-.5.5-1.6v-3.5h1v5.9l.1.5h-1v-1q-.4.5-.9.8-.5.3-1.2.3zm5-6.5h1v1q.3-.5.9-.9.6-.3 1.2-.3.9 0 1.4.7.5.6.5 2v3.9h-1v-3.9q0-1-.3-1.4-.3-.4-.9-.4l-.9.2-.7.7q-.3.5-.3 1v3.8h-1v-6.4zm12.2 5.8q-1 .6-2 .6-1.1 0-1.6-.6-.4-.6-.4-2v-1l.1-2h-1.4v-.8h1.5l.1-1.8 1.1-.1h.2l-.2.3v.3l-.2 1.3H83v.8h-2.1l-.2 2.1v.8q0 1.1.3 1.5.2.4.8.4l.8-.1.8-.5.3.8zm4.1-3.8l-.6-.2q-.2-.2-.2-.6 0-.3.2-.5.3-.3.6-.3t.6.3q.2.2.2.5 0 .4-.2.6l-.6.2zm0 4.5q-.4 0-.6-.2l-.2-.6.2-.6.6-.2.6.2.2.6-.2.6-.6.2zm15-4.8q.7.3 1.2.8.4.6.4 1.5 0 .7-.3 1.2-.3.6-.9 1-.6.3-1.4.3-.7 0-1.3-.2-.6-.3-1-.8l.6-.8q.3.5.7.7.4.3 1 .3.8 0 1.2-.5.4-.5.4-1.3 0-.9-.5-1.3t-1.5-.4h-.4v-.8q1.2 0 1.7-.4.4-.5.4-1.3 0-.6-.3-1-.4-.3-1-.3-.8 0-1.5.7l-.6-.6q.9-1 2.2-1 1 0 1.6.7.6.6.6 1.5 0 .8-.3 1.3-.4.5-1 .7zm-2.6 3zm-.1 0zm8.9-7.1q1.2 0 2 1.2.7 1.2.7 3.2 0 2.2-.7 3.3-.7 1.2-2 1.2t-2-1.2q-.7-1.1-.7-3.3 0-2 .7-3.2.7-1.2 2-1.2zm0 .8q-.8 0-1.3 1-.4 1-.4 2.6v1.6l3-3.8q-.2-.7-.5-1-.4-.4-.8-.4zm0 7.3q.8 0 1.2-1 .4-1 .4-2.7v-1.4l-3 3.8q.4 1.3 1.4 1.3zm7-8.1q1.2 0 2 1.2.7 1.2.7 3.2 0 2.2-.7 3.3-.7 1.2-2 1.2t-2-1.2q-.7-1.1-.7-3.3 0-2 .7-3.2.7-1.2 2-1.2zm0 .8q-.8 0-1.3 1-.4 1-.4 2.6v1.6l3-3.8q-.2-.7-.5-1-.4-.4-.8-.4zm0 7.3q.8 0 1.2-1 .4-1 .4-2.7v-1.4l-3 3.8q.4 1.3 1.4 1.3zm5.8 2.5q.4-.3.6-.7.3-.4.3-.7l-.1-.2-.2-.2-.3-.4-.1-.3.2-.6q.2-.2.6-.2.4 0 .6.3.3.4.3.9 0 1-1.5 2.6l-.4-.4zm-75.4 11.4q1.2.4 1.7.8t.5 1q0 1-.7 1.5-.6.6-2 .6-1.6 0-2.6-1l.5-1q.5.6 1 .9.4.3 1.2.3.8 0 1.2-.3.4-.3.4-.8 0-.4-.3-.6-.4-.3-1.3-.6-2.4-.7-2.4-2 0-.7.6-1.2.6-.4 1.8-.4.8 0 1.4.3.6.2 1.1.7l-.6.7q-.3-.4-.8-.7l-1.1-.2q-.6 0-1 .2t-.4.6q0 .3.4.6t1.4.6zm1.4-1q0-.1 0 0zm.1 0zm-4 2.9zm0 0h-.1zm11.8 1.3q-1 .7-2 .7-1.1 0-1.6-.7-.4-.6-.4-2v-1l.1-2h-1.4v-.8h1.5l.1-1.8 1.1-.1h.2l-.2.3v.3l-.2 1.3H55v.8h-2.1l-.2 2.2v.7q0 1.1.3 1.5.2.4.8.4l.8-.1.8-.5.3.8zm4.2-6q1.3 0 2 .7.8.7.8 2.5v3.4h-1.1v-1q-.6 1.1-2.2 1.1-1 0-1.7-.5-.6-.5-.6-1.3 0-.6.5-1.1.4-.5 1.1-.8.8-.3 1.7-.3l1.4.1q0-1-.6-1.5-.4-.5-1.4-.5l-1 .2q-.4.2-.7.6l-.5-.7q.9-.9 2.3-.9zm-.4 6q1 0 1.6-.7.6-.6.7-1.7l-1.4-.1q-1 0-1.6.3-.7.4-.7 1 0 1.1 1.4 1.1zm10.2 0q-1 .7-2 .7-1.1 0-1.6-.7-.4-.6-.4-2v-1l.1-2h-1.4v-.8h1.5l.1-1.8 1.1-.1h.2l-.2.3v.3l-.2 1.3H69v.8h-2.1l-.2 2.2v.7q0 1.1.3 1.5.2.4.8.4l.8-.1.8-.5.3.8zm3.8.7q-1 0-1.6-.7-.6-.8-.6-2.3v-3.5h1v3.5q0 1.2.4 1.7t1.1.5q.7 0 1.2-.6.5-.5.5-1.6v-3.5h1v5.9l.1.5h-1v-1q-.4.5-.9.8-.5.3-1.2.3zm7.9-3.9q1.2.4 1.7.8t.5 1q0 1-.7 1.5-.6.6-2 .6-1.6 0-2.6-1l.5-1q.5.6 1 .9.4.3 1.2.3.8 0 1.2-.3.4-.3.4-.8 0-.4-.3-.6-.4-.3-1.3-.6-2.4-.7-2.4-2 0-.7.6-1.2.6-.4 1.8-.4.8 0 1.4.3.6.2 1.1.7l-.6.7q-.3-.4-.8-.7l-1.1-.2q-.6 0-1 .2t-.4.6q0 .3.4.6t1.4.6zm1.4-1q0-.1 0 0zm.1 0zm-4 2.9zm0 0h-.1zm8.9-2.5l-.6-.2q-.2-.2-.2-.6 0-.3.2-.5.3-.3.6-.3t.6.3q.2.2.2.5 0 .4-.2.6l-.6.2zm0 4.5q-.4 0-.6-.2l-.2-.6.2-.6.6-.2.6.2.2.6-.2.6-.6.2zm13.7-9.5v1.8l-.2 1.2v.7h-.7l-.1-.7-.1-1.2v-1.8h1zm2 0v3l-.2.7h-.6l-.1-.7-.1-1.2v-1.8h1zm2.7.6h2q1.1 0 1.7.3.7.3 1.1 1 .9 1 .9 3.1 0 2.2-1 3.3-.9 1-2.8 1h-2v-8.7zm1.8 8q3 0 3-3.5-.1-1.8-.7-2.7-.7-1-2.1-1h-1v7.2h.8zm7.5-8.6v1.8l-.2 1.2v.7h-.7l-.1-.7-.1-1.2v-1.8h1zm2 0v3l-.2.7h-.6l-.1-.7-.1-1.2v-1.8h1zm-89.8 27.6v-.8h.7q1 0 1.3-.4.4-.3.4-1.3v-1.2q0-1.7 1.2-2.1-1.2-.6-1.2-2.1v-1q0-1.5-1.3-1.5h-1.1v-.8h.8q2.6 0 2.6 2.5v1q0 .8.3 1.1.3.4 1 .4h.2v.8h-.3q-.6 0-1 .3-.2.3-.2 1.2v1.4q0 1-.2 1.5-.4.6-1 .8-.7.2-1.7.2h-.5z" font-size="14" font-family="Inconsolata" fill="#25337c"/><path d="M640.8 272.5h86.5V290h-86.5z" fill="#afd1e8"/><path d="M641.3 287.2v-.8h6v.8h-6zm7.9-1.1v-.8h1.6v-4.8h-1.5v-.8h2.5v5.6h1.5v.8h-4.1zm2-7.7q-.2 0-.4-.3-.3-.2-.3-.5t.2-.5q.2-.2.6-.2.3 0 .5.2t.2.5q0 .3-.2.5-.2.3-.5.3zm6.8 7.8q-.6 0-1.2-.3-.6-.4-1-1.2-.4-.8-.4-1.9 0-1 .4-1.8t1-1.1q.6-.4 1.3-.4.6 0 1.1.3.5.3.8.8v-3.8h1v.3l-.1.3v8.3l.2.4h-1l-.2-.4v-.6q-.3.5-.8.8-.5.3-1 .3zm.2-.8q.9 0 1.3-.7t.4-1.8q0-1.2-.5-1.9-.4-.6-1.3-.6-.8 0-1.3.6-.4.6-.4 1.7 0 1.2.4 2 .5.7 1.4.7zm6.9-3.6q-.3 0-.6-.3-.2-.2-.2-.5l.2-.6.6-.2.6.2.2.6q0 .3-.2.5-.3.3-.6.3zm0 4.5q-.3 0-.6-.3-.2-.2-.2-.5 0-.4.2-.6.3-.3.6-.3t.6.3q.2.2.2.6 0 .3-.2.5-.2.3-.6.3zm13.7-9.5v1.7l-.2 1.2v.7h-.7l-.1-.7-.1-1.2v-1.7h1zm2 0v2.9l-.1.7h-.7l-.1-.7-.1-1.2v-1.7h1zm7.7 9.3l-.8-2.5h-2.9l-.8 2.5h-1l3.2-8.9h.1l3.2 8.9h-1zm-3.4-3.3h2.3l-1.1-3.3-1.2 3.3zm7.9 3.3v-7.5l-1.8.5-.2-.5 2.3-1.2h.7v8.7h-1zm4.8-.8l1.1-1.1 1.7-1.8 1-1.3q.3-.6.3-1.3 0-.9-.4-1.2-.4-.4-1.1-.4-.6 0-1.1.2l-.7.6-.2.4v.2h-.1l-.7-.6q.4-.8 1.1-1.2.8-.5 1.7-.5 1 0 1.8.7.7.7.7 1.8 0 .8-.4 1.5t-1 1.3l-1.5 1.7-1 1h3.7l.2-.2h.1v1h-5.1v-.8zm10.2-3.8q.9.2 1.3.8.4.6.4 1.4 0 .7-.3 1.3-.3.6-.9 1-.5.3-1.4.3-.7 0-1.3-.3l-1-.7.6-.8.7.7q.4.2 1 .2.8 0 1.2-.5.4-.4.4-1.2 0-1-.5-1.3-.5-.5-1.5-.5h-.4v-.7q1.2 0 1.7-.5.4-.5.4-1.3 0-.5-.3-.9-.3-.3-.9-.3-1 0-1.6.6l-.6-.6q.9-.9 2.2-.9 1 0 1.6.6.7.6.7 1.6 0 .7-.4 1.2-.3.6-1 .8zm-2.5 3v-.1zm-.1 0q0-.1 0 0zm8.4-7.7v1.7l-.2 1.2v.7h-.7l-.1-.7-.1-1.2v-1.7h1zm2 0v2.9l-.1.7h-.7l-.1-.7-.1-1.2v-1.7h1zM720 288q.5-.3.7-.8l.3-.6v-.2l-.3-.3-.3-.3-.1-.3q0-.4.2-.6.2-.2.6-.2.4 0 .7.3.3.3.3.8 0 1.1-1.5 2.7l-.5-.5z" font-size="14" font-family="Inconsolata" fill="#13206f"/><path d="M630.7 273.3q-1 0-1.7-.3-.7-.2-1-.7-.3-.5-.3-1.5v-1.4q0-.9-.2-1.2-.3-.4-1-.4h-.3v-.7h.3q.7 0 1-.4.3-.4.3-1.1v-1q0-2.5 2.5-2.5h.9v.8h-1.1q-1.3 0-1.3 1.5v1q0 1.5-1.2 2 1.2.4 1.2 2.2v1.2q0 1 .3 1.3.4.4 1.4.4h.7v.8h-.5zm16.6 28.1q-1 .7-2 .7-1.1 0-1.6-.6-.4-.7-.4-2.1v-.8l.1-2.1H642v-.9h1.5l.1-1.7 1.1-.2h.2v.1l-.2.2v.4l-.2 1.2h2.1v.9h-2.1l-.2 2.1v.8q0 1 .2 1.5.3.4.9.4l.8-.2.8-.5.3.8zm4.2.7q-.8 0-1.5-.4-.6-.4-1-1.2-.4-.7-.4-1.7t.4-1.7q.4-.8 1-1.2.7-.4 1.5-.4.9 0 1.6.4.6.4 1 1.2.4.8.4 1.7 0 1-.4 1.7-.4.8-1 1.2-.7.4-1.6.4zm0-.8q.6 0 1-.3t.7-.9q.2-.6.2-1.3 0-1-.5-1.8-.5-.7-1.4-.7-.8 0-1.3.7t-.5 1.8q0 .7.2 1.3.2.6.7.9.4.3 1 .3zm9.8.1q-1 .7-2 .7-1.1 0-1.6-.6-.4-.7-.4-2.1v-.8l.1-2.1H656v-.9h1.5l.1-1.7 1.1-.2h.2v.1l-.2.2v.4l-.2 1.2h2.1v.9h-2.1l-.2 2.1v.8q0 1 .2 1.5.3.4.9.4l.8-.2.8-.5.3.8zm4.2-5.9q1.3 0 2 .7.8.7.8 2.4v3.4h-1.1v-1q-.6 1.2-2.2 1.2-1 0-1.7-.5-.6-.5-.6-1.3 0-.7.5-1.2.4-.5 1.1-.7.8-.3 1.7-.3h1.4q0-1-.6-1.4-.5-.5-1.4-.5l-1 .2-.7.5-.5-.6q.9-1 2.3-1zm-.4 6q1 0 1.6-.7.6-.6.7-1.8H666q-1 0-1.6.3-.7.3-.7 1 0 1.1 1.4 1.1zm5.1.5v-.8h1.8v-7.7h-1.8v-.8h2.9v8.5h1.8v.8h-4.7zm9.2-4.3l-.6-.2-.2-.6.2-.6q.2-.2.6-.2l.6.2.2.6-.2.6-.6.2zm0 4.5q-.4 0-.6-.2l-.2-.6q0-.4.2-.6.2-.2.6-.2l.6.2q.2.2.2.6 0 .3-.2.5-.3.3-.6.3zm12.8-.2q1.2-4 2.7-7.8h-3.7v-.9h4.9v.6q-1.7 4.3-2.8 8.1h-1zm8.4-5.6q.8 0 1.4.3.6.4 1 1 .3.7.3 1.6 0 .9-.4 1.5-.3.7-1 1-.6.4-1.4.4-.8 0-1.5-.4-.6-.3-1-1l.7-.6.8.9q.4.2 1 .2l1-.2.5-.8q.3-.4.3-1 0-1-.5-1.6-.5-.5-1.3-.5-.5 0-.9.2t-.7.6l-.7-.3.3-4.4h4.5v.9h-3.6l-.2 2.5q.7-.3 1.4-.3zm-1.9 3.8zm.2 0q0 .1-.1 0h.1zm8.6-7q1.3 0 2 1.2.8 1.2.8 3.3 0 2.2-.7 3.3-.7 1.2-2 1.2-1.4 0-2-1.2-.8-1.1-.8-3.3 0-2 .7-3.3.8-1.2 2-1.2zm0 .9q-.7 0-1.2 1-.4 1-.4 2.6v1.6l3-3.8q-.2-.7-.5-1-.4-.4-.9-.4zm0 7.2q.8 0 1.3-1 .4-.8.4-2.6v-1.4l-3 3.8q.4 1.2 1.3 1.2zm-81.2 19v-.8h.7q1 0 1.3-.4.4-.4.4-1.3v-1.2q0-1.8 1.2-2.2-1.2-.5-1.2-2v-1q0-1.5-1.3-1.5h-1.2v-.8h1q2.5 0 2.5 2.4v1q0 .8.3 1.2.3.4 1 .4h.2v.7h-.3q-.6 0-1 .4-.2.3-.2 1.2v1.4q0 1-.2 1.5-.4.5-1 .7-.7.3-1.7.3h-.5z" font-size="14" font-family="Inconsolata" fill="#25337c"/><path d="M639.2 382.6h88.1V400h-88.1z" fill="#a3a3a3"/><path d="M640.1 397.6v-.9h6v.9h-6zm7.9-1.2v-.8h1.6v-4.8h-1.5v-.8h2.6v5.6h1.5v.8H648zm2.1-7.7q-.3 0-.5-.2t-.2-.5q0-.3.2-.5t.5-.2q.3 0 .5.2t.2.5q0 .3-.2.5t-.5.2zm6.8 7.9q-.7 0-1.3-.4-.6-.4-1-1.2-.4-.7-.4-1.8t.4-1.9q.4-.7 1-1 .7-.4 1.3-.4.7 0 1.2.3t.7.8v-4h1v8.9l.1.4h-1l-.1-.4v-.6q-.3.6-.8.9-.5.3-1.1.3zm.1-1q1 0 1.3-.6.4-.7.4-1.8t-.4-1.8q-.5-.7-1.3-.7-.9 0-1.3.6-.5.6-.5 1.7 0 1.3.5 2t1.3.7zm7-3.5q-.4 0-.6-.2-.3-.3-.3-.6t.3-.5q.2-.3.5-.3.4 0 .6.3.3.2.3.5t-.3.6q-.2.2-.6.2zm0 4.5q-.4 0-.6-.2-.3-.3-.3-.6t.3-.6q.2-.2.5-.2.4 0 .6.2.3.3.3.6t-.3.6q-.2.2-.6.2zm13.6-9.5v1.8l-.1 1.2-.1.6h-.7v-.6l-.2-1.2V387h1.1zm2.1 0v1.8l-.1 1.2-.1.6h-.7v-.6l-.2-1.2V387h1.1zm2.6.6h2.5q1.4 0 2.1.6.8.5.8 1.5 0 .7-.4 1.2-.3.5-1 .8.8.2 1.2.8.5.7.5 1.4 0 1.1-.8 1.8-.8.6-2.5.6h-2.4v-8.7zm2.3 3.6q2 0 2-1.4 0-.6-.4-1t-1.4-.4h-1.6v2.8h1.4zm.3 4.3q2 0 2-1.7t-2.2-1.7h-1.5v3.4h1.7zm4.7.1l1.2-1.2 1.7-1.8.9-1.2q.3-.7.3-1.4 0-.8-.4-1.2-.4-.4-1-.4-.7 0-1.2.3-.5.2-.7.6l-.1.3-.1.2h.1-.2l-.7-.5q.4-.9 1.2-1.3.7-.4 1.6-.4 1.1 0 1.8.6.7.7.7 1.8 0 .8-.3 1.5l-1 1.4-1.6 1.6-1 1h3.8l.2-.2v1h-5v-.7zm9.2.7V389l-1.7.5-.3-.5 2.3-1.2h.7v8.7h-1zm4.8-.7l1.2-1.2 1.7-1.8.9-1.2q.3-.7.3-1.4 0-.8-.4-1.2-.4-.4-1-.4-.7 0-1.2.3-.5.2-.7.6l-.1.3-.1.2h.1-.2l-.7-.5q.4-.9 1.2-1.3.7-.4 1.6-.4 1.1 0 1.8.6.7.7.7 1.8 0 .8-.3 1.5l-1 1.4-1.6 1.6-1 1h3.8l.2-.2v1h-5v-.7zm9-8.6v1.8l-.1 1.2-.1.6h-.7v-.6l-.2-1.2V387h1.1zm2.1 0v1.8l-.1 1.2-.1.6h-.7v-.6l-.2-1.2V387h1.1zm4.3 11.3l.6-.8.2-.7v-.2l-.3-.3-.3-.3v-.3l.1-.6.6-.2q.4 0 .7.3.3.4.3.9 0 1-1.5 2.6l-.5-.4z" font-size="14" font-family="Inconsolata" fill="#13206f"/><path d="M629.2 383.6q-1 0-1.7-.2t-1-.8q-.3-.5-.2-1.5v-1.4q0-.9-.3-1.2-.3-.3-1-.3h-.2v-.8h.2q.7 0 1-.4.3-.3.3-1.1v-1q0-2.5 2.6-2.5h.8v.8h-1.1q-1.3 0-1.3 1.5v1q0 1.5-1.2 2 1.2.5 1.2 2.2v1.2q0 1 .4 1.3.4.4 1.3.4h.7v.8h-.5zm16.6 28.2q-1 .6-2 .6t-1.5-.6q-.5-.6-.5-2.1v-.8l.2-2.1h-1.4v-.9h1.4l.1-1.7 1.2-.1h.1l-.1.3-.1.3-.2 1.2h2.2v.9H643l-.1 2.1v.8q0 1.1.2 1.5.3.4.8.4l.8-.1.8-.5.3.8zm4.2.7q-.8 0-1.4-.5-.7-.4-1-1.1-.5-.8-.5-1.8t.4-1.7q.4-.7 1-1.2.7-.4 1.6-.4.8 0 1.5.4.7.5 1 1.2.4.8.4 1.7 0 1-.3 1.8-.4.7-1 1.1-.8.5-1.6.5zm0-.9q.6 0 1-.3.5-.3.7-.9.3-.6.3-1.3 0-1-.6-1.7-.5-.7-1.3-.7t-1.4.7q-.5.6-.5 1.7 0 .7.2 1.3.3.6.7.9.4.3 1 .3zm9.8.2q-1 .6-2 .6t-1.5-.6q-.5-.6-.5-2.1v-.8l.2-2.1h-1.4v-.9h1.4l.1-1.7 1.2-.1h.1l-.1.3-.1.3-.2 1.2h2.2v.9H657l-.1 2.1v.8q0 1.1.2 1.5.3.4.8.4l.8-.1.8-.5.3.8zm4.2-6q1.4 0 2 .7.8.7.8 2.4v3.4h-1v-1q-.7 1.2-2.3 1.2-1 0-1.6-.5-.6-.5-.6-1.3 0-.6.4-1.1.4-.5 1.2-.8.7-.3 1.6-.3l1.4.1q0-1-.5-1.5t-1.5-.5l-.9.2-.8.6-.5-.7q1-.9 2.3-.9zm-.4 6q1 0 1.7-.7.6-.6.6-1.7l-1.3-.1q-1 0-1.7.3-.6.4-.6 1 0 1.1 1.3 1.1zm5.1.5v-.8h1.9V404h-1.8v-.9h2.8v8.5h1.9v.8h-4.8zm9.3-4.3q-.4 0-.7-.2-.2-.2-.2-.6 0-.3.2-.5.3-.3.6-.3.4 0 .6.3.3.2.3.5 0 .4-.3.6-.2.2-.6.2zm0 4.5q-.4 0-.7-.2l-.2-.6.2-.6.6-.2q.4 0 .6.2.3.3.3.6t-.3.6q-.2.2-.6.2zm11.6-.9l1.1-1.2q1.2-1.1 1.7-1.8l1-1.2q.3-.7.3-1.4 0-.8-.4-1.2-.4-.4-1.1-.4-.6 0-1.1.3l-.7.6-.2.3v.2l-.8-.5q.4-.8 1.1-1.3.8-.4 1.7-.4 1.1 0 1.8.6.7.7.7 1.9 0 .7-.4 1.4-.3.7-1 1.4l-1.5 1.6-1 1h3.7l.2-.1h.1v1h-5v-.8zm9.4-8q1.4 0 2 1.2.8 1.1.8 3.2 0 2.2-.7 3.3-.7 1.2-2 1.2t-2-1.2q-.7-1.1-.7-3.3 0-2 .7-3.2.7-1.2 2-1.2zm0 .8q-.7 0-1.2 1-.4 1-.4 2.6l.1 1.6 3-3.8q-.2-.7-.6-1-.3-.4-.8-.4zm0 7.2q.9 0 1.3-.9.5-1 .5-2.7l-.1-1.4-3 3.8q.5 1.2 1.4 1.2zm7-8q1.4 0 2 1.2.8 1.1.8 3.2 0 2.2-.7 3.3-.7 1.2-2 1.2t-2-1.2q-.7-1.1-.7-3.3 0-2 .7-3.2.7-1.2 2-1.2zm0 .8q-.7 0-1.2 1-.4 1-.4 2.6l.1 1.6 3-3.8q-.2-.7-.6-1-.3-.4-.8-.4zm0 7.2q.9 0 1.3-.9.5-1 .5-2.7l-.1-1.4-3 3.8q.5 1.2 1.4 1.2zm-81.2 19v-.8h.7q1 0 1.4-.4.4-.4.4-1.3V427q0-1.7 1.1-2.1-1.2-.6-1.2-2.1v-1q0-1.5-1.3-1.5h-1.1v-.8h.9q2.5 0 2.5 2.5v1q0 .8.3 1.1.3.4 1 .4h.3v.8h-.3q-.7 0-1 .3-.3.3-.3 1.2v1.4q.1 1-.2 1.5-.3.6-1 .8-.6.2-1.7.2h-.5z" font-size="14" font-family="Inconsolata" fill="#25337c"/><path d="M602.1 237.2h172.4v213.5H602z" stroke="#13206f" fill="none"/><path d="M602 344.8h172.5" stroke="#25337c" fill="none"/><path d="M15.2 54.4q-1 0-1.9-.5-.8-.6-1.4-1.7-.5-1.1-.5-2.7 0-1.5.6-2.6.5-1 1.4-1.6.9-.5 1.9-.5.9 0 1.6.4.7.5 1 1.2v-5.5h1.5v.1l-.1.3v12.3l.2.6H18l-.2-.6v-.8q-.5.7-1.2 1.2-.7.4-1.5.4zm.2-1.3q1.2 0 1.8-1 .6-1 .6-2.5 0-1.6-.6-2.6-.7-1-2-1-1.1 0-1.8.9-.6.9-.6 2.4 0 1.8.7 2.8.6 1 1.9 1zm10.4 1.3q-.8 0-1.5-.3-.7-.4-1.2-1.1l-.5 1.2h-.9V40.9h1.6v.1l-.1.3v5.2q.4-.8 1.1-1.2.8-.5 1.6-.5 1.7 0 2.7 1.2 1 1.2 1 3.5 0 1.6-.5 2.7T27.7 54q-.9.5-1.9.5zm-.2-1.3q1.1 0 1.8-.8.8-.9.8-2.7 0-1.7-.7-2.6-.7-1-1.8-1t-1.8 1q-.7 1-.7 2.7 0 3.4 2.4 3.4zm9.7 1.3q-.5 0-.9-.3-.3-.4-.3-.8 0-.5.3-.8.4-.4.9-.4.4 0 .8.4.3.3.3.8 0 .4-.3.8-.4.3-.8.3zm10.2 0q-1.2 0-2.2-.6-1-.6-1.5-1.7t-.5-2.5q0-1.4.5-2.4.6-1.1 1.5-1.7 1-.6 2.2-.6 1.2 0 2.2.6 1 .6 1.5 1.7.5 1 .5 2.4t-.5 2.5q-.6 1-1.5 1.7-1 .6-2.2.6zm0-1.2q.8 0 1.4-.5.6-.5 1-1.3.3-.8.3-1.8 0-1.6-.8-2.5-.7-1-1.9-1t-2 1q-.7 1-.7 2.5 0 1 .3 1.8.4.8 1 1.3t1.4.5zM59 47q-.6-.6-1-.7-.3-.2-.9-.2-.7 0-1.3.3-.7.4-1 1.1-.5.8-.5 1.9v4.8H53v-9.1h1.5v1.6q.3-.9 1.1-1.4.8-.5 1.7-.5 1.5 0 2.5 1L59 47zm0 0q.2.1 0 0zm-.2 0h.2v.1h-.2zm6.4 7.4q-1 0-1.9-.5-.8-.6-1.4-1.7-.5-1.1-.5-2.7 0-1.5.6-2.6.5-1 1.4-1.6.9-.5 1.9-.5.9 0 1.6.4.7.5 1 1.2v-5.5h1.5v.1l-.1.3v12.3l.2.6H68l-.2-.6v-.8q-.5.7-1.2 1.2-.7.4-1.5.4zm.2-1.3q1.2 0 1.8-1 .6-1 .6-2.5 0-1.6-.6-2.6-.7-1-2-1-1.1 0-1.8.9-.6.9-.6 2.4 0 1.8.7 2.8.6 1 1.9 1zM76 54.4q-2.1 0-3.3-1.2-1.2-1.3-1.2-3.5 0-1.5.5-2.6.6-1.1 1.5-1.7 1-.6 2.2-.6 1.6 0 2.7 1.1 1 1.1 1 3.3v.6h-6.5q0 1.7.9 2.6.9.8 2.2.8 1.4 0 2.3-1l.8.8Q78 54.4 76 54.4zm2-5.7q0-1.3-.7-2-.7-.8-1.7-.8t-1.8.7q-.7.7-.9 2.1h5zM89 47q-.6-.6-1-.7-.3-.2-.9-.2-.7 0-1.3.3-.7.4-1 1.1-.5.8-.5 1.9v4.8H83v-9.1h1.5v1.6q.3-.9 1.1-1.4.8-.5 1.7-.5 1.5 0 2.5 1L89 47zm0 0q.2.1 0 0zm-.2 0h.2v.1h-.2zm7.4 1.8q1.7.5 2.4 1.2.7.6.7 1.5 0 1.3-1 2.1t-2.8.8q-2.3 0-3.9-1.4l.8-1.4q.7.8 1.4 1.2.6.4 1.8.4 1 0 1.7-.4.6-.4.6-1t-.5-1q-.5-.4-1.8-.8-3.6-1-3.6-3 0-1 .9-1.6.9-.7 2.5-.7 1.2 0 2 .4 1 .3 1.6 1l-.8 1v.1q-.4-.6-1.2-1-.8-.4-1.6-.4t-1.4.3q-.5.3-.5.9 0 .5.5.9.6.4 2 .8zm1.9-1.5h.1v.1H98zm.2 0v.1-.1zm-5.6 4.2q0 .1-.2 0h.2zm-.2 0q-.1 0 0 0zm12.8 2.9q-.5 0-.9-.3-.3-.4-.3-.8 0-.5.3-.8.4-.4.9-.4.4 0 .8.4.3.3.3.8 0 .4-.3.8-.4.3-.8.3zm10.1-9.5q2 0 3 1t1 3.4v4.9h-1.6v-1.4q-.8 1.6-3 1.6-1.6 0-2.5-.7-.8-.7-.8-1.8 0-1 .6-1.7t1.7-1q1-.5 2.3-.5l2 .1q0-1.5-.8-2.1-.7-.7-2-.7-.7 0-1.3.3-.7.3-1.2.8l-.7-1q1.3-1.2 3.3-1.2zm-.5 8.4q1.4 0 2.3-.8.9-1 1-2.6l-2-.1q-1.5 0-2.4.5-.9.5-.9 1.5 0 1.5 2 1.5zM130 46h-.5q-1 0-1.6.4.3.7.3 1.5 0 .9-.4 1.6-.4.8-1.1 1.2-.7.4-1.7.4-.7 0-1.4-.3-.4.5-.4.9t.6.7q.7.2 2.2.2 2 0 2.7.6.7.5.7 1.7t-1 2q-1 .7-3 .7t-3-.6q-1.1-.6-1.1-1.7 0-.7.4-1.3.4-.5 1-.8-.7-.4-.7-1.2 0-.8.8-1.7-.5-.4-.7-1-.3-.7-.3-1.4 0-.9.4-1.6.4-.7 1.1-1.2.8-.4 1.7-.4 1.5 0 2.4 1 .4-.5 1-.7l1-.2h.4l.2 1.2zm-5 3.9q.9 0 1.4-.6.6-.6.6-1.4 0-.8-.6-1.4-.5-.6-1.4-.6-.8 0-1.4.6-.6.6-.6 1.4 0 .8.6 1.4.6.6 1.4.6zm3 5.2l-.1-.8q-.2-.2-.7-.3-.5-.2-1.5-.2-1.4 0-2.3-.2l-.6.6q-.2.4-.2 1t.7 1q.8.4 2.2.4 1.3 0 2-.4.6-.4.6-1.1zm12-9.1h-.5q-1 0-1.6.4.3.7.3 1.5 0 .9-.4 1.6-.4.8-1.1 1.2-.7.4-1.7.4-.7 0-1.4-.3-.4.5-.4.9t.6.7q.7.2 2.2.2 2 0 2.7.6.7.5.7 1.7t-1 2q-1 .7-3 .7t-3-.6q-1.1-.6-1.1-1.7 0-.7.4-1.3.4-.5 1-.8-.7-.4-.7-1.2 0-.8.8-1.7-.5-.4-.7-1-.3-.7-.3-1.4 0-.9.4-1.6.4-.7 1.1-1.2.8-.4 1.7-.4 1.5 0 2.4 1 .4-.5 1-.7l1-.2h.4l.2 1.2zm-5 3.9q.9 0 1.4-.6.6-.6.6-1.4 0-.8-.6-1.4-.5-.6-1.4-.6-.8 0-1.4.6-.6.6-.6 1.4 0 .8.6 1.4.6.6 1.4.6zm3 5.2l-.1-.8q-.2-.2-.7-.3-.5-.2-1.5-.2-1.4 0-2.3-.2l-.6.6q-.2.4-.2 1t.7 1q.8.4 2.2.4 1.3 0 2-.4.6-.4.6-1.1zm11-8.1q-.6-.6-1-.7-.3-.2-.9-.2-.7 0-1.3.3-.7.4-1 1.1-.5.8-.5 1.9v4.8H143v-9.1h1.5v1.6q.3-.9 1.1-1.4.8-.5 1.7-.5 1.5 0 2.5 1L149 47zm0 0q.2.1 0 0zm-.2 0h.2v.1h-.2zm7.2 7.4q-2.1 0-3.3-1.2-1.2-1.3-1.2-3.5 0-1.5.5-2.6.6-1.1 1.5-1.7 1-.6 2.2-.6 1.6 0 2.7 1.1 1 1.1 1 3.3v.6h-6.5q0 1.7.9 2.6.9.8 2.2.8 1.4 0 2.3-1l.8.8q-1.1 1.4-3.2 1.4zm2-5.7q0-1.3-.7-2-.7-.8-1.7-.8t-1.8.7q-.7.7-.9 2.1h5zm12-2.7h-.5q-1 0-1.6.4.3.7.3 1.5 0 .9-.4 1.6-.4.8-1.1 1.2-.7.4-1.7.4-.7 0-1.4-.3-.4.5-.4.9t.6.7q.7.2 2.2.2 2 0 2.7.6.7.5.7 1.7t-1 2q-1 .7-3 .7t-3-.6q-1.1-.6-1.1-1.7 0-.7.4-1.3.4-.5 1-.8-.7-.4-.7-1.2 0-.8.8-1.7-.5-.4-.7-1-.3-.7-.3-1.4 0-.9.4-1.6.4-.7 1.1-1.2.8-.4 1.7-.4 1.5 0 2.4 1 .4-.5 1-.7l1-.2h.4l.2 1.2zm-5 3.9q.9 0 1.4-.6.6-.6.6-1.4 0-.8-.6-1.4-.5-.6-1.4-.6-.8 0-1.4.6-.6.6-.6 1.4 0 .8.6 1.4.6.6 1.4.6zm3 5.2l-.1-.8q-.2-.2-.7-.3-.5-.2-1.5-.2-1.4 0-2.3-.2l-.6.6q-.2.4-.2 1t.7 1q.8.4 2.2.4 1.3 0 2-.4.6-.4.6-1.1zm7.4-10.2q2 0 3 1t1 3.4v4.9h-1.6v-1.4q-.8 1.6-3 1.6-1.6 0-2.5-.7-.8-.7-.8-1.8 0-1 .6-1.7t1.7-1q1-.5 2.3-.5l2 .1q0-1.5-.8-2.1-.7-.7-2-.7-.7 0-1.3.3-.7.3-1.2.8l-.7-1q1.3-1.2 3.3-1.2zm-.5 8.4q1.4 0 2.3-.8.9-1 1-2.6l-2-.1q-1.5 0-2.4.5-.9.5-.9 1.5 0 1.5 2 1.5zm14.5.1q-1.3 1-3 1-1.4 0-2-1-.7-.9-.7-3v-1.2l.2-3h-2v-1.1h2.1l.1-2.5 1.6-.2h.2q0 .3-.2.4v.4l-.3 1.9h3v1.1h-3l-.2 3.1v1.1q0 1.6.3 2.2.4.5 1.2.5.6 0 1.1-.2l1.1-.7.5 1.2zm6.6 1q-2.1 0-3.3-1.2-1.2-1.3-1.2-3.5 0-1.5.5-2.6.6-1.1 1.5-1.7 1-.6 2.2-.6 1.6 0 2.7 1.1 1 1.1 1 3.3v.6h-6.5q0 1.7.9 2.6.9.8 2.2.8 1.4 0 2.3-1l.8.8q-1.1 1.4-3.2 1.4zm2-5.7q0-1.3-.7-2-.7-.8-1.7-.8t-1.8.7q-.7.7-.9 2.1h5zm10.4 9q-1.6-.8-2.9-2.1-1.2-1.3-1.9-3-.7-1.6-.7-3.4 0-1.8.7-3.4.7-1.6 1.9-2.9 1.2-1.2 2.8-2l.4 1.2q-2 1.1-3.2 3-1.1 2-1.1 4.2t1.2 4.2q1.2 2 3.2 3l-.4 1.2zm14.7-1.7V40.8h5.7V42h-4.4v12.8h4.5V56H223z" font-size="20" font-family="Inconsolata" fill="#13206f"/><path d="M161.8 71.5l36-.5" stroke="#2a86c0" fill="none"/><path d="M197.8 74l8-3-8-3z" fill="#2a86c0"/><path d="M197.8 74l8-3-8-3zm-36 18.4l36-.5" stroke="#2a86c0" fill="none"/><path d="M197.8 95l8-3.2-8-2.9z" fill="#2a86c0"/><path d="M197.8 95l8-3.2-8-2.9z" stroke="#2a86c0" fill="none"/><path d="M56.2 75q-2-.2-3.2-1.5l.8-1v.1l.1.2q1 1 2.3 1.1v-4q-1.5-.4-2.1-1-.7-.8-.7-1.7 0-1 .7-1.7.8-.8 2-1v-1h1.2v1q1.6.2 2.6 1.4l-.8 1v-.2l-.2-.2q-.6-.7-1.7-.9v3.5q1.6.5 2.3 1.1.7.7.7 1.7 0 .7-.3 1.4-.4.6-1 1-.8.5-1.7.6V76h-1v-1zm0-9.4q-.8 0-1.2.5-.4.4-.4 1 0 1 1.6 1.6v-3.1zm1 8.3q.9-.2 1.4-.7.5-.5.5-1.2 0-.6-.5-1-.4-.4-1.4-.7v3.6zm4.4-6.9h1.2v.8q.3-.5.8-.7.4-.3.9-.3t1 .3l.5.9q.2-.6.7-.9.5-.3 1.1-.3.8 0 1.2.6.4.5.4 1.5v6.3h-1.2v-5.8q0-1-.2-1.4-.2-.3-.6-.3-.3 0-.6.3l-.5.8-.2 1v5.4H65v-5.7q0-1-.2-1.4-.2-.3-.7-.3-.3 0-.5.2l-.5.7q-.2.4-.2 1v5.5h-1.2V67zm12.7-.2q1.8 0 2.7 1 1 .8 1 3v4.4h-1.4v-1.3q-.8 1.5-2.9 1.5-1.3 0-2-.6-.9-.6-.9-1.7 0-.8.6-1.5.5-.6 1.5-1 1-.3 2-.3h2q-.2-1.3-.8-1.9-.6-.5-1.8-.5-.7 0-1.2.2-.6.2-1 .7l-.7-.9q1.2-1.1 3-1.1zm-.4 7.6q1.3 0 2-.8.9-.8 1-2.2l-1.8-.2q-1.4 0-2.2.5-.8.4-.8 1.4 0 1.3 1.8 1.3zm13.1 0q-1.2 1-2.7 1-1.3 0-2-.9-.5-.8-.5-2.7v-1L82 68h-1.8v-1h1.9l.1-2.2 1.5-.3h.1v.1l-.1.3-.1.4-.2 1.7h2.7v1h-2.8l-.1 2.8v1q0 1.4.3 2 .3.4 1 .4.6 0 1-.2.5-.1 1-.6l.4 1zm6.2-.2q1.2 0 2-1l.9.9q-1.3 1.3-3 1.3-1.2 0-2.1-.6-1-.5-1.5-1.5t-.5-2.2q0-1.2.5-2.2.5-1 1.5-1.5.9-.6 2-.6 1 0 1.9.4.8.4 1.3 1.1l-.8.8-1.1-.9q-.6-.3-1.4-.3-.7 0-1.3.4-.6.4-1 1-.3.8-.3 1.7 0 1 .4 1.7.3.7 1 1.1.6.4 1.5.4zm2-5q0-.1.1 0h-.1zm.1 0q.1 0 0 0zm3-6h1.4v.2l-.2.2v4.8q.5-.7 1.2-1.2.8-.4 1.5-.4 1.2 0 1.9.8.6.8.6 2.6v5h-1.2v-5q0-1.2-.4-1.7-.5-.6-1.1-.6-.6 0-1.2.3-.5.3-1 1-.3.5-.3 1.3v4.7h-1.2v-12zm21.7 7.2q1.6.4 2.2 1 .7.5.7 1.4 0 1.1-1 1.9-.8.7-2.4.7-2.1 0-3.5-1.3l.7-1.2q.6.7 1.2 1 .6.4 1.6.4t1.5-.3q.6-.4.6-1 0-.5-.5-.9-.4-.3-1.6-.7-3-.9-3-2.6 0-1 .7-1.5.8-.5 2.3-.5 1 0 1.8.3t1.4 1l-.7.9q-.4-.6-1.1-1-.7-.3-1.4-.3-.8 0-1.3.3t-.5.8q0 .4.5.8t1.8.8zm1.8-1.4h.1v.1h-.1zm.2 0q0 .1 0 0zm-5 3.8h-.2v-.1h.1zm-.3 0zm15.3 1.6q-1.2 1-2.7 1-1.3 0-2-.9-.5-.8-.5-2.7v-1l.2-2.8h-1.8v-1h1.9l.1-2.2 1.5-.3h.1v.1l-.1.3-.1.4-.2 1.7h2.7v1h-2.8l-.1 2.8v1q0 1.4.3 2 .3.4 1 .4.6 0 1-.2.5-.1 1-.6l.4 1zm5.3-7.6q1.8 0 2.7 1 1 .8 1 3v4.4h-1.4v-1.3q-.8 1.5-2.9 1.5-1.3 0-2-.6-.9-.6-.9-1.7 0-.8.6-1.5.5-.6 1.5-1 1-.3 2-.3h2q-.2-1.3-.8-1.9-.6-.5-1.8-.5-.7 0-1.2.2-.6.2-1 .7l-.7-.9q1.2-1.1 3-1.1zm-.4 7.6q1.3 0 2-.8.9-.8 1-2.2l-1.8-.2q-1.4 0-2.2.5-.8.4-.8 1.4 0 1.3 1.8 1.3zm13.6-6.6h-.5q-.8 0-1.4.4.3.6.3 1.3 0 .8-.4 1.5-.3.7-1 1-.6.4-1.5.4-.7 0-1.3-.2-.3.4-.3.7 0 .4.6.6.5.2 2 .2 1.7 0 2.3.6.7.5.7 1.5t-.9 1.8q-.9.7-2.7.7-1.8 0-2.8-.5-1-.6-1-1.6 0-.7.4-1.1.4-.5 1-.8-.7-.4-.7-1 0-.8.8-1.6-.5-.4-.7-1-.3-.5-.3-1.2 0-.8.4-1.4.3-.7 1-1 .7-.4 1.5-.4 1.3 0 2.1.8l1-.6q.4-.2 1-.2h.2l.2 1.1zm-4.5 3.5q.8 0 1.3-.5t.5-1.3q0-.7-.5-1.2-.5-.6-1.3-.6t-1.3.6q-.5.5-.5 1.2 0 .8.5 1.3t1.3.5zm2.8 4.7q0-.4-.2-.7-.1-.2-.6-.3l-1.3-.1q-1.3 0-2.1-.3l-.6.6q-.2.3-.2.8 0 .6.7 1 .7.3 2 .3 1.1 0 1.7-.3.6-.4.6-1zm7-.6q-1.8 0-2.9-1.1-1-1.2-1-3.2 0-1.3.4-2.3.5-1 1.4-1.5.9-.5 2-.5 1.4 0 2.3 1 1 1 1 2.9v.6h-6q.1 1.5 1 2.3.7.7 1.9.7 1.3 0 2.1-.9l.7.7q-1 1.3-2.9 1.3zm1.8-5.1q0-1.2-.5-1.8-.6-.7-1.6-.7-.9 0-1.5.6-.7.6-.9 1.9h4.5zM56.2 96q-2-.2-3.2-1.5l.8-1v.1l.1.2q1 1 2.3 1.1v-4q-1.5-.4-2.1-1-.7-.8-.7-1.7 0-1 .7-1.7.8-.8 2-1v-1h1.2v1q1.6.2 2.6 1.4l-.8 1v-.2l-.2-.2q-.6-.7-1.7-.9v3.5q1.6.5 2.3 1.1.7.7.7 1.7 0 .7-.3 1.4-.4.6-1 1-.8.5-1.7.6V97h-1v-1zm0-9.4q-.8 0-1.2.5-.4.4-.4 1 0 1 1.6 1.6v-3.1zm1 8.3q.9-.2 1.4-.7.5-.5.5-1.2 0-.6-.5-1-.4-.4-1.4-.7v3.6zm12.3-6.1H69q-.8 0-1.4.4.3.6.3 1.3 0 .8-.4 1.5-.3.7-1 1-.6.4-1.5.4-.7 0-1.3-.2-.3.4-.3.7 0 .4.6.6.5.2 2 .2 1.7 0 2.3.6.7.5.7 1.5t-.9 1.8q-.9.7-2.7.7-1.8 0-2.8-.5-1-.6-1-1.6 0-.7.4-1.1.4-.5 1-.8-.7-.4-.7-1 0-.8.8-1.6-.5-.4-.7-1-.3-.5-.3-1.2 0-.8.4-1.4.3-.7 1-1 .7-.4 1.5-.4 1.3 0 2.1.8l1-.6q.4-.2 1-.2h.2l.2 1.1zM65 92.3q.8 0 1.3-.5t.5-1.3q0-.7-.5-1.2-.5-.6-1.3-.6t-1.3.6q-.5.5-.5 1.2 0 .8.5 1.3t1.3.5zm2.8 4.7q0-.4-.2-.7-.1-.2-.6-.3l-1.3-.1q-1.3 0-2.1-.3l-.6.6q-.2.3-.2.8 0 .6.7 1 .7.3 2 .3 1.1 0 1.7-.3.6-.4.6-1zm9.8-7.3q-.5-.5-.9-.6-.3-.2-.8-.2-.6 0-1.2.3t-1 1q-.3.7-.3 1.6v4.4h-1.3V88h1.3v1.5q.3-.8 1-1.3.8-.4 1.6-.4 1.3 0 2.2.9l-.6 1zm0 0q.1.1 0 0zm-.2 0h.2v.1h-.2zm6.1 6.6q-1.1 0-2-.5-.9-.5-1.4-1.5-.4-1-.4-2.2 0-1.3.4-2.2.5-1 1.4-1.5.9-.6 2-.6 1 0 2 .6.8.5 1.3 1.5.4 1 .4 2.2 0 1.2-.4 2.2-.5 1-1.4 1.5-.9.5-2 .5zm0-1q.7 0 1.2-.4.6-.5.9-1.2.3-.7.3-1.6 0-1.4-.7-2.3-.7-1-1.7-1-1.1 0-1.8 1-.7.9-.7 2.3 0 .9.3 1.6l.9 1.2q.5.4 1.3.4zm8.5 1.1q-1.4 0-2.1-1-.8-1-.8-2.8V88h1.3v4.6q0 1.4.5 2.1.5.7 1.4.7.9 0 1.5-.8.7-.7.7-2V88h1.2v7.6l.2.6h-1.2l-.2-.6V95q-.4.7-1.1 1.1-.7.4-1.5.4zm6-8.4h1.3v1.6q.3-.9 1-1.4.6-.4 1.5-.4 1 0 1.8.5.7.4 1.2 1.4.5 1 .5 2.3 0 1.4-.5 2.4t-1.3 1.5q-.8.5-1.7.5-.7 0-1.4-.3-.6-.4-1-1v4.1H98V88zm3.6 7.3q1 0 1.7-.8.6-.7.6-2.4 0-1.6-.6-2.4-.6-.8-1.7-.8-1 0-1.6.9-.7.8-.7 2.6 0 1.4.7 2.1.6.8 1.6.8zm18.4-3.9q1.6.4 2.2 1 .7.5.7 1.4 0 1.1-1 1.9-.8.7-2.4.7-2.1 0-3.5-1.3l.7-1.2q.6.7 1.2 1 .6.4 1.6.4t1.5-.3q.6-.4.6-1 0-.5-.5-.9-.4-.3-1.6-.7-3-.9-3-2.6 0-1 .7-1.5.8-.5 2.3-.5 1 0 1.8.3t1.4 1l-.7.9q-.4-.6-1.1-1-.7-.3-1.4-.3-.8 0-1.3.3t-.5.8q0 .4.5.8t1.8.8zm1.8-1.4h.1v.1h-.1zm.2 0q0 .1 0 0zm-5 3.8h-.2v-.1h.1zm-.3 0zm15.3 1.6q-1.2 1-2.7 1-1.3 0-2-.9-.5-.8-.5-2.7v-1l.2-2.8h-1.8v-1h1.9l.1-2.2 1.5-.3h.1v.1l-.1.3-.1.4-.2 1.7h2.7v1h-2.8l-.1 2.8v1q0 1.4.3 2 .3.4 1 .4.6 0 1-.2.5-.1 1-.6l.4 1zm5.3-7.6q1.8 0 2.7 1 1 .8 1 3v4.4h-1.4v-1.3q-.8 1.5-2.9 1.5-1.3 0-2-.6-.9-.6-.9-1.7 0-.8.6-1.5.5-.6 1.5-1 1-.3 2-.3h2q-.2-1.3-.8-1.9-.6-.5-1.8-.5-.7 0-1.2.2-.6.2-1 .7l-.7-.9q1.2-1.1 3-1.1zm-.4 7.6q1.3 0 2-.8.9-.8 1-2.2l-1.8-.2q-1.4 0-2.2.5-.8.4-.8 1.4 0 1.3 1.8 1.3zm13.6-6.6h-.5q-.8 0-1.4.4.3.6.3 1.3 0 .8-.4 1.5-.3.7-1 1-.6.4-1.5.4-.7 0-1.3-.2-.3.4-.3.7 0 .4.6.6.5.2 2 .2 1.7 0 2.3.6.7.5.7 1.5t-.9 1.8q-.9.7-2.7.7-1.8 0-2.8-.5-1-.6-1-1.6 0-.7.4-1.1.4-.5 1-.8-.7-.4-.7-1 0-.8.8-1.6-.5-.4-.7-1-.3-.5-.3-1.2 0-.8.4-1.4.3-.7 1-1 .7-.4 1.5-.4 1.3 0 2.1.8l1-.6q.4-.2 1-.2h.2l.2 1.1zm-4.5 3.5q.8 0 1.3-.5t.5-1.3q0-.7-.5-1.2-.5-.6-1.3-.6t-1.3.6q-.5.5-.5 1.2 0 .8.5 1.3t1.3.5zm2.8 4.7q0-.4-.2-.7-.1-.2-.6-.3l-1.3-.1q-1.3 0-2.1-.3l-.6.6q-.2.3-.2.8 0 .6.7 1 .7.3 2 .3 1.1 0 1.7-.3.6-.4.6-1zm7-.6q-1.8 0-2.9-1.1-1-1.2-1-3.2 0-1.3.4-2.3.5-1 1.4-1.5.9-.5 2-.5 1.4 0 2.3 1 1 1 1 2.9v.6h-6q.1 1.5 1 2.3.7.7 1.9.7 1.3 0 2.1-.9l.7.7q-1 1.3-2.9 1.3zm1.8-5.1q0-1.2-.5-1.8-.6-.7-1.6-.7-.9 0-1.5.6-.7.6-.9 1.9h4.5zm-129-74.6q.7 0 1.3-.4.6-.4 1-1l.9.6q-.6 1-1.3 1.4-.8.4-1.9.4-1.2 0-2.2-.6-1-.6-1.6-1.9-.6-1.3-.6-3.2 0-2 .7-3.3.6-1.3 1.6-1.9 1-.5 2-.5 1.3 0 2.1.6.9.5 1.4 1.6l-1.1.5q-.5-1-1-1.4-.7-.3-1.4-.3-1.4 0-2.2 1.2-.8 1.2-.8 3.4 0 1.4.4 2.5.4 1 1.1 1.7.7.6 1.6.6zm2-7.8l.2.1h-.1zm.3 0V9zm6.1 8.8q-1 0-2-.5-.8-.6-1.3-1.5-.5-1-.5-2.3 0-1.2.5-2.2.5-1 1.3-1.5 1-.5 2-.5 1.1 0 2 .5.8.6 1.3 1.5.5 1 .5 2.2 0 1.3-.5 2.3-.5 1-1.3 1.5-.9.5-2 .5zm0-1q.7 0 1.3-.5.5-.4.8-1.1.3-.8.3-1.7 0-1.4-.6-2.3-.7-.9-1.8-.9-1 0-1.7 1-.7.8-.7 2.2 0 1 .3 1.7t.9 1.1q.5.4 1.2.4zm6 .9v-1h2.4v-10H43v-1h3.7v11H49v1h-6.2zm9 0v-1h2.4v-10H52v-1h3.7v11H58v1h-6.2zm12.4.1q-1.8 0-3-1-1-1.2-1-3.2 0-1.4.5-2.3.5-1 1.3-1.5 1-.6 2-.6 1.5 0 2.4 1 1 1 1 3l-.1.5h-5.9q.1 1.6.9 2.3.8.8 2 .8t2-1l.8.8q-1 1.2-2.9 1.2zm1.8-5q0-1.2-.6-1.9t-1.5-.7q-1 0-1.6.7-.6.6-.8 1.8h4.5zm7.5 3.9q1.3 0 2.2-1l.7.9q-1.2 1.3-3 1.3-1.1 0-2-.6-1-.6-1.6-1.5-.5-1-.5-2.2 0-1.3.5-2.2.6-1 1.5-1.6 1-.5 2.1-.5 1 0 1.8.4t1.3 1.1l-.8.8q-.5-.7-1-1-.6-.2-1.4-.2-.7 0-1.3.4-.6.3-1 1-.3.8-.3 1.7 0 .9.3 1.6.4.8 1 1.2.7.4 1.5.4zm2-5q0-.2.2 0h-.1zm.2 0q.1 0 0 0zm9.6 5.2q-1.2.9-2.6.9-1.4 0-2-.8-.5-.9-.5-2.7V13l.2-2.7h-1.8v-1h1.9V7l1.5-.2h.2V7l-.2.3v.4L82 9.3h2.7v1.1h-2.8l-.2 2.8v1q0 1.4.3 2 .4.4 1 .4t1-.2l1.1-.6.4 1zm2.8.8v-1h2.1v-6.2h-2v-1h3.3v7.1h2v1h-5.4zm2.7-10q-.4 0-.7-.3-.2-.2-.2-.6 0-.4.2-.7.3-.2.7-.2.4 0 .6.2.3.3.3.7 0 .4-.3.6-.2.3-.6.3zm9 10.1q-1 0-2-.5-.8-.6-1.3-1.5-.5-1-.5-2.3 0-1.2.5-2.2.5-1 1.3-1.5 1-.5 2-.5 1.1 0 2 .5.8.6 1.3 1.5.5 1 .5 2.2 0 1.3-.5 2.3-.5 1-1.3 1.5-.9.5-2 .5zm0-1q.7 0 1.3-.5.5-.4.8-1.1.3-.8.3-1.7 0-1.4-.6-2.3-.7-.9-1.8-.9-1 0-1.7 1-.7.8-.7 2.2 0 1 .3 1.7t.9 1.1q.5.4 1.2.4zm5.8-7.4h1.3v1.5q.5-.8 1.2-1.2.7-.5 1.6-.5 1 0 1.7.9.7.8.7 2.6v5H111v-5q0-1.2-.4-1.8-.4-.5-1.1-.5-.6 0-1.1.3-.6.3-1 1-.3.5-.3 1.2v4.8h-1.3V9.3z" font-size="18" font-family="Inconsolata" fill="#2a86c0"/><path d="M74.3 578.2q-1 0-2-.5-.8-.5-1.3-1.5t-.5-2.2q0-1.3.5-2.2.5-1 1.4-1.6.8-.5 2-.5 1 0 1.9.5.9.6 1.3 1.6.5 1 .5 2.2 0 1.2-.5 2.2-.4 1-1.3 1.5t-2 .5zm0-1q.7 0 1.3-.5.5-.4.8-1 .4-.8.4-1.7 0-1.4-.7-2.3-.7-1-1.8-1-1 0-1.7 1-.7.9-.7 2.3 0 .9.3 1.6.3.7.9 1.1.5.5 1.2.5zm12.2-5.6q-.5-.5-.9-.6-.3-.2-.8-.2-.6 0-1.2.3t-1 1q-.3.7-.3 1.6v4.4H81V570h1.3v1.5q.3-.8 1-1.3.8-.4 1.6-.4 1.3 0 2.2.9l-.6 1zm0 0q.1.1 0 0zm-.2 0h.2v.1h-.2zm5.7 6.7q-.8 0-1.6-.5t-1.3-1.5q-.5-1-.5-2.4t.5-2.4q.6-1 1.3-1.4.8-.4 1.7-.4.8 0 1.5.3.6.4 1 1v-4.9h1.3v.2l-.2.2v11l.2.6h-1.3l-.1-.6v-.7q-.4.7-1 1.1-.7.4-1.5.4zm.2-1.2q1.2 0 1.7-.8.5-1 .5-2.4t-.6-2.3q-.5-.9-1.7-.9-1 0-1.6.8-.6.8-.6 2.2 0 1.6.6 2.5.6 1 1.7 1zm9.5 1.2q-1.8 0-2.9-1.1-1-1.2-1-3.2 0-1.3.4-2.3.5-1 1.4-1.5.8-.5 1.9-.5 1.5 0 2.4 1 1 1 1 2.9v.6h-6q.1 1.5.9 2.3.8.7 2 .7 1.3 0 2-.9l.8.7q-1 1.3-2.9 1.3zm1.8-5.1q0-1.2-.6-1.9-.5-.6-1.5-.6-.9 0-1.6.6-.6.6-.8 1.9h4.5zm10-1.6q-.5-.5-.9-.6-.3-.2-.8-.2-.6 0-1.2.3t-1 1q-.3.7-.3 1.6v4.4H108V570h1.3v1.5q.3-.8 1-1.3.8-.4 1.6-.4 1.3 0 2.2.9l-.6 1zm0 0q.1.1 0 0zm-.2 0h.2v.1h-.2zm6.7 1.7q1.5.4 2.1 1 .7.5.7 1.4 0 1.1-1 1.9-.8.7-2.4.7-2.1 0-3.5-1.3l.7-1.2q.6.7 1.2 1 .6.4 1.6.4t1.5-.3q.6-.4.6-1 0-.5-.5-.9-.4-.3-1.6-.7-3-.9-3-2.6 0-1 .7-1.5.8-.5 2.2-.5 1.1 0 2 .3.7.3 1.3 1l-.7.9q-.4-.6-1.1-1-.7-.3-1.4-.3-.8 0-1.3.3t-.5.8q0 .4.5.8t1.8.8zm1.7-1.4h.1v.1h-.1zm.2 0q0 .1 0 0h-.1zm-5.1 3.8h-.2v-.1h.2zm-.2 0zm539.3-354.9h3.3q1.9 0 2.8.8.9.9.9 2.4 0 1-.7 1.8-.6 1-1.6 1.2l2.6 5h-1.4l-2.5-5h-2.2v5H656v-11.2zm3.4 5.1q1.2 0 1.7-.5.6-.5.6-1.4 0-1-.6-1.5-.5-.5-1.7-.5h-2.2v4h2.2zm9.4 6.3q-1.8 0-2.9-1.2-1-1-1-3.1 0-1.4.4-2.3.5-1 1.4-1.5.8-.5 2-.5 1.4 0 2.3 1 1 1 1 2.9v.6h-6q.1 1.5 1 2.2.7.8 1.9.8 1.3 0 2.1-1l.7.8q-1 1.3-2.9 1.3zm1.8-5.2q0-1.1-.6-1.8-.5-.7-1.5-.7-.9 0-1.5.7-.7.6-.9 1.8h4.5zm7.5.1q1.5.5 2.1 1 .7.6.7 1.5 0 1.1-1 1.8-.8.8-2.4.8-2.1 0-3.5-1.3l.7-1.3q.6.8 1.2 1.1.6.4 1.6.4t1.5-.4q.6-.3.6-1 0-.5-.5-.8-.4-.3-1.6-.7-3-.9-3-2.6 0-1 .7-1.5.8-.5 2.2-.5 1.2 0 2 .3.7.3 1.3 1l-.7.8q-.4-.5-1.1-.8-.7-.4-1.4-.4-.8 0-1.3.3t-.5.8q0 .4.5.8t1.8.7zm1.7-1.3h.1-.1zm.2 0zm-5 3.8h-.3l.1-.1h.1zm-.3 0zm11.2 2.6q-1.3 0-2-1-.8-1-.8-2.9v-4.6h1.3v4.6q0 1.5.5 2.2.5.6 1.3.6 1 0 1.6-.7.7-.7.7-2.1v-4.6h1.2v7.7l.2.6h-1.2l-.2-.6v-.7q-.4.7-1.1 1.1-.7.4-1.5.4zm6.5-.2v-1h2.4v-10h-2.3v-1h3.6v11h2.4v1h-6.1zm15.5-.8q-1.1.9-2.6.9-1.3 0-2-.8-.5-.9-.5-2.7v-1l.2-2.8h-1.8v-1h1.9l.1-2.2 1.5-.3h.1v.1l-.1.3-.1.4-.2 1.7h2.7v1h-2.8l-.1 2.8v1q0 1.4.2 2 .4.4 1.1.4.6 0 1-.2l1-.6.4 1zm6.2-4.1q1.5.5 2.1 1 .7.6.7 1.5 0 1.1-1 1.8-.8.8-2.4.8-2.1 0-3.5-1.3l.7-1.3q.6.8 1.2 1.1.6.4 1.6.4t1.5-.4q.6-.3.6-1 0-.5-.5-.8-.4-.3-1.6-.7-3-.9-3-2.6 0-1 .7-1.5.8-.5 2.2-.5 1.2 0 2 .3.7.3 1.3 1l-.7.8q-.4-.5-1.1-.8-.7-.4-1.4-.4-.8 0-1.3.3t-.5.8q0 .4.5.8t1.8.7zm1.7-1.3h.1-.1zm.2 0zm-5 3.8h-.3l.1-.1h.1zm-.3 0z" font-size="18" font-family="Inconsolata" fill="#13206f"/><path d="M494 345.8h82.2" stroke="#358ec4" stroke-width="4" fill="none"/><path d="M576.2 350.6l12.8-4.8-12.8-4.8z" fill="#358ec4"/><path d="M576.2 350.6l12.8-4.8-12.8-4.8zm-373.4-5.3h82" stroke="#358ec4" stroke-width="4" fill="none"/><path d="M284.9 350.1l12.8-4.8-12.8-4.8z" fill="#358ec4"/><path d="M284.9 350.1l12.8-4.8-12.8-4.8z" stroke="#358ec4" stroke-width="4" fill="none"/><path d="M218.8 360.4q-1.9 0-3.1-1.4l.7-1 .1.1v.2q1 1 2.3 1.1v-4q-1.4-.4-2.1-1-.7-.8-.7-1.7 0-1 .8-1.7.8-.8 2-1v-1h1.2v.2l-.1.2v.6q1.6.2 2.7 1.4l-.8 1-.1-.2-.1-.2q-.6-.7-1.7-.9v3.5q1.6.5 2.3 1.1.7.7.7 1.7 0 .7-.4 1.4-.4.6-1 1-.7.5-1.6.6v1.1h-1v-1zm0-9.3q-.7 0-1.2.5-.4.4-.4 1 0 1 1.6 1.6v-3.1zm1 8.3q1-.2 1.4-.7.5-.5.5-1.2 0-.6-.4-1t-1.4-.7v3.6zm4.5-6.9h1.2v.8q.3-.5.7-.7.5-.3 1-.3t.9.3q.4.4.5.9.2-.6.7-.9.5-.3 1.2-.3.8 0 1.2.6.4.5.3 1.5v6.3h-1.2v-5.8l-.1-1.4q-.2-.3-.6-.3-.3 0-.7.3l-.5.8-.1 1v5.4h-1.2V355q0-1-.2-1.4-.2-.3-.7-.3l-.6.2-.5.7-.1 1v5.5h-1.2v-8.2zm12.7-.2q1.8 0 2.7 1 1 .8 1 3v4.4h-1.5v-1.3q-.8 1.5-2.8 1.5-1.4 0-2.1-.6-.8-.6-.8-1.7 0-.8.5-1.5.6-.6 1.5-1 1-.3 2.1-.3h1.9q-.1-1.3-.8-1.9-.6-.5-1.8-.5l-1.2.2q-.5.2-1 .7l-.6-.9q1.1-1.1 2.9-1.1zm-.5 7.6q1.4 0 2.1-.8.8-.8.9-2.2-.8-.2-1.8-.2-1.3 0-2.1.5-.8.4-.8 1.4 0 1.3 1.7 1.3zm13.1.1q-1.2.8-2.6.8-1.4 0-2-.8-.5-.8-.5-2.7v-1l.2-2.8h-1.8v-1h1.8l.2-2.2 1.4-.3h.2v.1l-.2.3v.4l-.3 1.7h2.8v1H246l-.2 2.8v1q0 1.4.3 2 .3.4 1 .4.6 0 1-.2l1-.6.5 1zm6.2-.3q1.2 0 2.1-1l.8.9q-1.2 1.3-3 1.3-1.2 0-2.1-.6-1-.5-1.5-1.5t-.5-2.2q0-1.2.5-2.2.6-1 1.5-1.5 1-.6 2.1-.6 1 0 1.8.4t1.3 1.1l-.8.8q-.5-.6-1-.9-.6-.3-1.4-.3-.7 0-1.3.4-.6.4-1 1-.4.8-.4 1.7 0 1 .4 1.7t1 1.1q.7.4 1.5.4zm2-5q0-.1.2 0h-.2zm.2 0zm3-6h1.3v.2l-.1.2v4.8q.5-.7 1.2-1.2.7-.4 1.5-.4 1.1 0 1.8.8t.7 2.6v5H266v-5q0-1.2-.4-1.7-.4-.6-1.1-.6-.6 0-1.1.3-.6.3-1 1-.3.5-.3 1.3v4.7h-1.3v-12zm251.5 11.7q-2 0-3.1-1.4l.7-1 .1.1v.2q1 1 2.3 1.1v-4q-1.4-.4-2.1-1-.7-.8-.7-1.7 0-1 .8-1.7.8-.8 2-1v-1h1.2v.2l-.1.2v.6q1.6.2 2.6 1.4l-.7 1-.1-.2-.1-.2q-.6-.7-1.7-.9v3.5q1.6.5 2.3 1.1.7.7.7 1.7 0 .7-.4 1.4-.4.6-1 1-.7.5-1.6.6v1.1h-1v-1zm0-9.3q-.8 0-1.2.5-.4.4-.4 1 0 1 1.6 1.6v-3.1zm1 8.3q.9-.2 1.4-.7.5-.5.5-1.2 0-.6-.4-1-.5-.4-1.4-.7v3.6zm12.3-6.1h-.4q-.9 0-1.5.4.3.6.3 1.3 0 .8-.3 1.5-.4.7-1 1-.7.4-1.5.4-.7 0-1.3-.2-.4.4-.4.7 0 .4.6.6.5.2 2 .2 1.7 0 2.3.6.7.5.7 1.5t-.9 1.8q-.8.7-2.7.7-1.7 0-2.7-.5-1-.6-1-1.6 0-.7.3-1.1.4-.5 1-.8-.6-.4-.6-1 0-.8.7-1.6-.5-.4-.7-1-.2-.5-.2-1.2 0-.8.3-1.4.4-.7 1-1 .7-.4 1.6-.4 1.3 0 2 .8l1-.6q.4-.2 1-.2h.3l.1 1.1zm-4.4 3.5q.7 0 1.2-.5.6-.5.6-1.3 0-.7-.6-1.2-.5-.6-1.2-.6-.8 0-1.3.6-.5.5-.5 1.2 0 .8.5 1.3t1.3.5zm2.7 4.7q0-.4-.2-.7-.1-.2-.6-.3l-1.3-.1q-1.3 0-2-.3l-.7.6-.1.8q0 .6.6 1 .7.3 2 .3 1.1 0 1.7-.3.6-.4.6-1zm9.9-7.3q-.6-.5-1-.6-.3-.2-.7-.2-.7 0-1.3.3-.5.3-.9 1t-.4 1.6v4.4h-1.3v-8.2h1.4v1.5q.3-.8 1-1.3.7-.4 1.5-.4 1.4 0 2.2.9l-.5 1zm0 0q0 .1 0 0zm-.2 0h.1v.1h-.1zm6 6.6q-1.1 0-2-.5-.8-.5-1.3-1.5t-.5-2.2q0-1.3.5-2.2.5-1 1.3-1.5.9-.6 2-.6 1 0 2 .6.8.5 1.3 1.5t.5 2.2q0 1.2-.5 2.2-.5 1-1.4 1.5-.8.5-2 .5zm0-1q.7 0 1.2-.5.6-.4.9-1 .3-.8.3-1.7 0-1.4-.7-2.3-.7-1-1.7-1t-1.8 1q-.6.9-.6 2.3 0 .9.3 1.6.3.7.8 1.1.6.5 1.3.5zm8.5 1.1q-1.3 0-2.1-1t-.8-2.8v-4.6h1.3v4.6q0 1.4.5 2.1.5.7 1.4.7 1 0 1.6-.8.6-.7.6-2v-4.6h1.3v7.6l.1.6H551l-.2-.6v-.7q-.4.7-1 1.1-.7.4-1.5.4zm6.1-8.4h1.3v1.6q.2-1 1-1.4.6-.4 1.5-.4 1 0 1.7.5.8.4 1.2 1.4.5 1 .5 2.3 0 1.4-.5 2.4t-1.3 1.5q-.8.5-1.7.5-.7 0-1.3-.3-.7-.4-1.1-1v4.1h-1.3v-11.2zm3.5 7.3q1 0 1.7-.8.7-.7.7-2.4 0-1.6-.6-2.4-.6-.8-1.7-.8-1 0-1.7.9-.6.8-.6 2.6 0 1.4.6 2.1.6.8 1.6.8z" font-size="18" font-family="Inconsolata" fill="#2a86c0"/><path d="M241.4 77.2q-1.5 0-2.4-.3-1-.3-1.4-1-.5-.8-.4-2.2v-2q0-1.3-.4-1.8t-1.3-.5h-.4v-1h.4q.9 0 1.4-.6.4-.5.4-1.6v-1.5q0-3.4 3.6-3.4h1.3v1.1h-1.7q-1.8 0-1.8 2.1V66q0 2.2-1.7 3 1.7.5 1.7 3v1.8q0 1.3.5 1.8.6.6 2 .6h1v1h-.8zm17.3-3.5q-2.1-.1-3.5-1.6l.9-1.2v.2l.1.2q1 1.1 2.5 1.3v-4.4q-1.6-.6-2.3-1.3-.8-.7-.8-1.8t.9-2q.8-.7 2.2-1V61h1.3v.2l-.1.2v.8q1.8.2 3 1.5l-.9 1-.1-.1-.1-.2q-.7-.8-2-1v3.8q1.9.6 2.6 1.3.8.7.8 1.9 0 .7-.4 1.5-.4.7-1.2 1.2-.7.5-1.7.6v1.2h-1.2v-1.2zm0-10.4q-.8.1-1.3.6-.5.4-.5 1 0 1.2 1.8 1.9v-3.5zm1.2 9.2q1-.2 1.5-.7.5-.6.5-1.3 0-.7-.5-1.2-.4-.4-1.5-.8v4zm4.9-7.6h1.3v.9q.3-.5.8-.8.5-.4 1-.4.7 0 1.1.4.5.4.6 1 .2-.6.8-1 .6-.4 1.2-.4 1 0 1.4.7.4.6.4 1.7v7h-1.3v-6.5q0-1.1-.2-1.5-.3-.3-.7-.3-.3 0-.7.3l-.5 1q-.2.4-.2 1v6h-1.4v-6.4q0-1-.2-1.5-.2-.4-.8-.4-.3 0-.6.3l-.5.8q-.2.5-.2 1.1V74h-1.3v-9.1zm14.1-.2q2 0 3 1t1 3.4V74h-1.5v-1.4q-.9 1.6-3.2 1.6-1.5 0-2.3-.7-.9-.7-.9-1.8 0-1 .6-1.7t1.7-1q1-.5 2.3-.5l2 .1q0-1.5-.8-2.1-.6-.7-2-.7-.7 0-1.3.3l-1.2.8-.7-1q1.3-1.2 3.3-1.2zm-.5 8.4q1.5 0 2.3-.8.9-1 1-2.6l-2-.1q-1.5 0-2.4.5-.9.5-.9 1.5 0 1.5 2 1.5zm14.5.1q-1.3 1-2.9 1-1.5 0-2.2-1-.6-.9-.6-3V69l.2-3h-2v-1h2.1l.2-2.5 1.6-.2h.2l-.2.4-.1.4-.2 1.9h3v1h-3.1l-.2 3.1v1.1q0 1.6.3 2.2.4.5 1.2.5.6 0 1.1-.2l1.2-.7.4 1.2zm6.9-.2q1.4 0 2.4-1.2l.8 1q-1.3 1.4-3.3 1.4-1.3 0-2.3-.6-1-.6-1.7-1.7-.6-1.1-.6-2.5 0-1.3.6-2.4.6-1 1.7-1.7 1-.6 2.3-.6 1.1 0 2 .4.9.5 1.5 1.3l-1 .9q-.5-.8-1.2-1-.6-.4-1.5-.4-.7 0-1.4.4-.7.5-1 1.2-.5.8-.5 1.8t.4 1.9q.4.8 1.2 1.3.7.4 1.6.4zm2.2-5.7q0-.1.2 0v.1l-.2-.1zm.2 0q.1.1 0 0zm3.3-6.6h1.6v.1l-.2.3v5.4q.5-.9 1.3-1.4.8-.5 1.7-.5 1.3 0 2 1 .8.9.8 2.9V74h-1.4v-5.5q0-1.4-.5-2-.5-.6-1.2-.6t-1.3.4q-.6.3-1 1-.4.6-.4 1.4V74h-1.4V60.7zm13.3 7.1q-.5 0-.8-.3-.4-.3-.4-.8t.3-.8q.4-.4.9-.4t.8.4q.4.3.4.8t-.4.8q-.3.3-.8.3zm0 6.4q-.5 0-.9-.3-.3-.3-.3-.8t.3-.8q.4-.4.9-.4t.8.4q.4.3.4.8 0 .4-.4.8-.3.3-.8.3zm22.6 3q-1.5 0-2.4-.3-1-.3-1.4-1-.5-.8-.4-2.2v-2q0-1.3-.4-1.8t-1.3-.5h-.4v-1h.4q.9 0 1.4-.6.4-.5.4-1.6v-1.5q0-3.4 3.6-3.4h1.3v1.1h-1.7q-1.8 0-1.8 2.1V66q0 2.2-1.7 3 1.7.5 1.7 3v1.8q0 1.3.5 1.8.6.6 2 .6h1v1h-.8zm18.3-8.6q1.7.5 2.4 1.2.7.6.7 1.5 0 1.3-1 2.1t-2.8.8q-2.3 0-3.8-1.4l.8-1.4q.6.8 1.3 1.2.6.4 1.8.4 1 0 1.7-.4.6-.4.6-1t-.5-1q-.5-.4-1.8-.8-3.4-1-3.4-2.9 0-1 .8-1.6.9-.7 2.5-.7 1.3 0 2.1.4.9.3 1.6 1l-.9 1v.1q-.4-.6-1.2-1-.7-.4-1.5-.4-.9 0-1.5.3-.5.3-.5.9 0 .5.6.9.5.4 2 .8zm1.9-1.5h.2l-.1.1h-.1zm.2 0v.1-.1zm-5.6 4.2q0 .1-.2 0h.2zm-.2 0zm16.9 1.9q-1.3 1-2.9 1-1.5 0-2.2-1-.6-.9-.6-3V69l.2-3h-2v-1h2.1l.2-2.5 1.6-.2h.2l-.2.4-.1.4-.2 1.9h3v1h-3.1l-.2 3.1v1.1q0 1.6.3 2.2.4.5 1.2.5.6 0 1.1-.2l1.2-.7.4 1.2zm6-8.5q2 0 3 1t1 3.4V74h-1.5v-1.4q-.9 1.6-3.2 1.6-1.5 0-2.3-.7-.9-.7-.9-1.8 0-1 .6-1.7t1.7-1q1-.5 2.3-.5l2 .1q0-1.5-.8-2.1-.6-.7-2-.7-.7 0-1.3.3l-1.2.8-.7-1q1.3-1.2 3.3-1.2zm-.5 8.4q1.5 0 2.3-.8.9-1 1-2.6l-2-.1q-1.5 0-2.4.5-.9.5-.9 1.5 0 1.5 2 1.5zm14.5.1q-1.3 1-2.9 1-1.5 0-2.2-1-.6-.9-.6-3V69l.2-3h-2v-1h2.1l.2-2.5 1.6-.2h.2l-.2.4-.1.4-.2 1.9h3v1h-3.1l-.2 3.1v1.1q0 1.6.3 2.2.4.5 1.2.5.6 0 1.1-.2l1.2-.7.4 1.2zm5.5 1q-1.4 0-2.3-1-.8-1.1-.8-3.2v-5.1h1.4v5q0 1.7.6 2.4.6.8 1.5.8 1 0 1.7-.8.8-.9.8-2.4v-5h1.4v8.5l.2.6h-1.4l-.2-.6v-.8q-.5.8-1.2 1.2-.8.4-1.7.4zm11.3-5.6q1.7.5 2.4 1.2.7.6.7 1.5 0 1.3-1 2.1t-2.8.8q-2.3 0-3.8-1.4l.8-1.4q.6.8 1.3 1.2.6.4 1.8.4 1 0 1.7-.4.6-.4.6-1t-.5-1q-.5-.4-1.8-.8-3.4-1-3.4-2.9 0-1 .8-1.6.9-.7 2.5-.7 1.3 0 2.1.4.9.3 1.6 1l-.9 1v.1q-.4-.6-1.2-1-.7-.4-1.5-.4-.9 0-1.5.3-.5.3-.5.9 0 .5.6.9.5.4 2 .8zm1.9-1.5h.2l-.1.1h-.1zm.2 0v.1-.1zm-5.6 4.2q0 .1-.2 0h.2zm-.2 0zm12.8-3.5q-.5 0-.8-.3-.4-.3-.4-.8t.3-.8q.4-.4.9-.4t.8.4q.4.3.4.8t-.4.8q-.3.3-.8.3zm0 6.4q-.5 0-.9-.3-.3-.3-.3-.8t.3-.8q.4-.4.9-.4t.8.4q.4.3.4.8 0 .4-.4.8-.3.3-.8.3zm19.5-13.5v2.5l-.2 1.7-.1 1h-1v-1l-.2-1.7v-2.5h1.5zm3 0v2.5l-.2 1.7-.1 1h-1v-1l-.2-1.7v-2.5h1.5zm11 13.3l-1.3-3.6h-4l-1.3 3.6h-1.4l4.6-12.7h.2l4.6 12.7h-1.4zm-5-4.7h3.3l-1.6-4.8-1.6 4.8zm11-8.6v2.5l-.2 1.7-.1 1h-1v-1l-.2-1.7v-2.5h1.5zm3 0v2.5l-.2 1.7-.1 1h-1v-1l-.2-1.7v-2.5h1.5zm13.8 16.5V76h1q1.4 0 2-.6.6-.5.6-1.8l-.1-1.7q0-2.6 1.7-3.1-1.7-.8-1.7-3v-1.4q0-2.1-1.9-2.1h-1.6v-1.1h1.3q3.6 0 3.6 3.4v1.5q0 1.1.4 1.6.5.5 1.4.5h.4v1.1h-.4q-1 0-1.4.5-.4.5-.4 1.8v2q.1 1.4-.3 2.1-.5.8-1.4 1-1 .4-2.5.4h-.7zm20 0V76h1q1.4 0 2-.6.6-.5.6-1.8l-.1-1.7q0-2.6 1.7-3.1-1.7-.8-1.7-3v-1.4q0-2.1-1.9-2.1h-1.6v-1.1h1.3q3.6 0 3.6 3.4v1.5q0 1.1.4 1.6.5.5 1.4.5h.4v1.1h-.4q-1 0-1.4.5-.4.5-.4 1.8v2q.1 1.4-.3 2.1-.5.8-1.4 1-1 .4-2.5.4h-.7zm12.2-.4l1-1.2q.3-.6.3-1v-.2l-.4-.4-.5-.4-.1-.5q0-.5.3-.8.4-.4.9-.4t1 .5q.3.5.3 1.2 0 1.6-2.1 3.8l-.7-.6zm-265.9 23.4q-1.5 0-2.4-.3-1-.3-1.4-1-.5-.8-.4-2.2v-2q0-1.3-.4-1.8t-1.3-.5h-.4v-1h.4q.9 0 1.4-.6.4-.5.4-1.6v-1.5q0-3.4 3.6-3.4h1.3v1.1h-1.7q-1.8 0-1.8 2.1V89q0 2.2-1.7 3 1.7.5 1.7 3v1.8q0 1.3.5 1.8.6.6 2 .6h1v1h-.8zm17.3-3.5q-2.1-.1-3.5-1.6l.9-1.2v.2l.1.2q1 1.1 2.5 1.3v-4.4q-1.6-.6-2.3-1.3-.8-.7-.8-1.8t.9-2q.8-.7 2.2-1V84h1.3v.2l-.1.2v.8q1.8.2 3 1.5l-.9 1-.1-.1-.1-.2q-.7-.8-2-1v3.8q1.9.6 2.6 1.3.8.7.8 1.9 0 .7-.4 1.5-.4.7-1.2 1.2-.7.5-1.7.6v1.2h-1.2v-1.2zm0-10.4q-.8.1-1.3.6-.5.4-.5 1 0 1.2 1.8 1.9v-3.5zm1.2 9.2q1-.2 1.5-.7.5-.6.5-1.3 0-.7-.5-1.2-.4-.4-1.5-.8v4zm13.6-6.7h-.5q-1 0-1.6.4.3.7.3 1.5 0 .9-.4 1.6-.3.8-1 1.2-.8.4-1.8.4-.7 0-1.4-.3-.3.5-.3.9t.6.7q.6.2 2.2.2 1.9 0 2.6.6.7.5.7 1.7t-1 2q-.9.7-3 .7-1.9 0-3-.6t-1.1-1.7q0-.7.4-1.3.4-.5 1-.8-.7-.4-.7-1.2 0-.8.9-1.7-.5-.4-.8-1-.3-.7-.3-1.4 0-.9.4-1.6.4-.7 1.1-1.2.8-.4 1.7-.4 1.5 0 2.4 1 .5-.5 1-.7.5-.2 1.1-.2h.3l.2 1.2zm-5 3.9q.9 0 1.5-.6.5-.6.5-1.4 0-.8-.5-1.4-.6-.6-1.5-.6-.8 0-1.4.6-.6.6-.6 1.4 0 .8.6 1.4.6.6 1.4.6zm3.1 5.2q0-.5-.2-.8-.1-.2-.6-.3-.5-.2-1.5-.2-1.5 0-2.3-.2l-.7.6q-.2.4-.2 1t.8 1q.7.4 2 .4 1.4 0 2-.4.7-.4.7-1.1zm10.9-8.1q-.5-.6-1-.7-.3-.2-.8-.2-.8 0-1.4.3-.6.4-1 1.1-.4.8-.4 1.9V97h-1.5v-9h1.5v1.6q.3-.9 1.1-1.4.8-.5 1.8-.5 1.4 0 2.4 1l-.7 1.2zm0 0q.2.1.1 0h-.1zm-.2 0h.2v.1h-.2zm6.7 7.4q-1.2 0-2.2-.6-1-.6-1.5-1.7t-.5-2.5q0-1.4.5-2.4.6-1.1 1.5-1.7 1-.6 2.2-.6 1.2 0 2.2.6 1 .6 1.5 1.7.5 1 .5 2.4t-.5 2.5q-.5 1-1.5 1.7-1 .6-2.2.6zm0-1.2q.8 0 1.4-.5.6-.5 1-1.3.3-.8.3-1.8 0-1.6-.7-2.5-.8-1-2-1t-2 1q-.7 1-.7 2.5 0 1 .4 1.8.3.8 1 1.3.5.5 1.3.5zm9.4 1.2q-1.4 0-2.3-1-.8-1.1-.8-3.2v-5.1h1.4v5q0 1.7.6 2.4.6.8 1.5.8 1 0 1.7-.8.8-.9.8-2.4v-5h1.4v8.5l.2.6h-1.4l-.2-.6v-.8q-.5.8-1.2 1.2-.8.4-1.7.4zm6.8-9.3h1.5v1.8q.3-1 1-1.5.8-.5 1.8-.5t1.9.5q.8.5 1.4 1.6.5 1 .5 2.6 0 1.5-.6 2.6-.5 1.1-1.4 1.7-.9.5-1.9.5-.8 0-1.5-.3-.7-.4-1.2-1.1v4.5h-1.5V88zm4 8q1 0 1.8-.8t.8-2.7q0-1.7-.7-2.6-.6-.9-1.9-.9-1.1 0-1.8 1-.7.9-.7 2.8 0 1.6.7 2.4.6.9 1.8.9zm9.6-5.1q-.5 0-.8-.3-.4-.3-.4-.8t.3-.8q.4-.4.9-.4t.8.4q.4.3.4.8t-.4.8q-.3.3-.8.3zm0 6.4q-.5 0-.9-.3-.3-.3-.3-.8t.3-.8q.4-.4.9-.4t.8.4q.4.3.4.8 0 .4-.4.8-.3.3-.8.3zm22.6 3q-1.5 0-2.4-.3-1-.3-1.4-1-.5-.8-.4-2.2v-2q0-1.3-.4-1.8t-1.3-.5h-.4v-1h.4q.9 0 1.4-.6.4-.5.4-1.6v-1.5q0-3.4 3.6-3.4h1.3v1.1h-1.7q-1.8 0-1.8 2.1V89q0 2.2-1.7 3 1.7.5 1.7 3v1.8q0 1.3.5 1.8.6.6 2 .6h1v1h-.8zm13.3-1.6v-1.2h8.6v1.2h-8.6zM366 97v-1.2h2.4V89H366v-1h3.7v8h2.1v1H366zm3-11q-.4 0-.7-.4-.3-.3-.3-.7 0-.4.3-.7.3-.3.7-.3.4 0 .7.3.3.3.3.7 0 .4-.3.7-.3.3-.7.3zm9.7 11.2q-1 0-1.8-.5-.9-.6-1.4-1.7-.6-1.1-.6-2.7 0-1.5.6-2.6.5-1 1.4-1.6.9-.5 1.9-.5.9 0 1.6.4.7.5 1 1.2v-5.5h1.6v.1l-.2.3v12.3l.2.6h-1.4l-.2-.6v-.8q-.5.7-1.2 1.2-.6.4-1.5.4zm.2-1.3q1.3 0 1.8-1 .6-1 .6-2.5 0-1.6-.6-2.6t-1.9-1q-1.2 0-1.8.9-.7.9-.7 2.4 0 1.8.7 2.8.7 1 2 1zm9.9-5.1q-.5 0-.8-.3-.4-.3-.4-.8t.3-.8q.4-.4.9-.4t.8.4q.4.3.4.8t-.4.8q-.3.3-.8.3zm0 6.4q-.5 0-.9-.3-.3-.3-.3-.8t.3-.8q.4-.4.9-.4t.8.4q.4.3.4.8 0 .4-.4.8-.3.3-.8.3zm19.5-13.5v2.5l-.2 1.7-.1 1h-1v-1l-.2-1.7v-2.5h1.5zm3 0v2.5l-.2 1.7-.1 1h-1v-1l-.2-1.7v-2.5h1.5zm7.4 13q-2.1-.1-3.5-1.6l.9-1.2v.2l.1.2q1 1.1 2.5 1.3v-4.4q-1.6-.6-2.3-1.3-.8-.7-.8-1.8t.9-2q.8-.7 2.2-1V84h1.3v.2l-.1.2v.8q1.8.2 3 1.5l-.9 1-.1-.1-.1-.2q-.7-.8-2-1v3.8q1.9.6 2.6 1.3.8.7.8 1.9 0 .7-.4 1.5-.4.7-1.2 1.2-.7.5-1.7.6v1.2h-1.2v-1.2zm0-10.4q-.8.1-1.3.6-.5.4-.5 1 0 1.2 1.8 1.9v-3.5zm1.2 9.2q1-.2 1.5-.7.5-.6.5-1.3 0-.7-.5-1.2-.4-.4-1.5-.8v4zm9.9.5q1.4 0 2.4-1.2l.8 1q-1.3 1.4-3.3 1.4-1.3 0-2.3-.6-1-.6-1.7-1.7-.6-1.1-.6-2.5 0-1.3.6-2.4.6-1 1.7-1.7 1-.6 2.3-.6 1.1 0 2 .4.9.5 1.5 1.3l-1 .9q-.5-.8-1.2-1-.6-.4-1.5-.4-.7 0-1.4.4-.7.5-1 1.2-.5.8-.5 1.8t.4 1.9q.4.8 1.2 1.3.7.4 1.6.4zm2.2-5.7q0-.1.2 0v.1l-.2-.1zm.2 0q.1.1 0 0zm6.2 6.9q-1.4 0-2.3-1-.8-1.1-.8-3.2v-5.1h1.4v5q0 1.7.6 2.4.6.8 1.5.8 1 0 1.7-.8.8-.9.8-2.4v-5h1.4v8.5l.2.6h-1.4l-.2-.6v-.8q-.5.8-1.2 1.2-.8.4-1.7.4zm11.3-5.6q1.7.5 2.4 1.2.7.6.7 1.5 0 1.3-1 2.1t-2.8.8q-2.3 0-3.8-1.4l.8-1.4q.6.8 1.3 1.2.6.4 1.8.4 1 0 1.7-.4.6-.4.6-1t-.5-1q-.5-.4-1.8-.8-3.4-1-3.4-2.9 0-1 .8-1.6.9-.7 2.5-.7 1.3 0 2.1.4.9.3 1.6 1l-.9 1v.1q-.4-.6-1.2-1-.7-.4-1.5-.4-.9 0-1.5.3-.5.3-.5.9 0 .5.6.9.5.4 2 .8zm1.9-1.5h.2l-.1.1h-.1zm.2 0v.1-.1zm-5.6 4.2q0 .1-.2 0h.2zm-.2 0zm16.9 1.9q-1.3 1-2.9 1-1.5 0-2.2-1-.6-.9-.6-3V92l.2-3h-2v-1h2.1l.2-2.5 1.6-.2h.2l-.2.4-.1.4-.2 1.9h3v1h-3.1l-.2 3.1v1.1q0 1.6.3 2.2.4.5 1.2.5.6 0 1.1-.2l1.2-.7.4 1.2zm1.8 2.4v-1.2h8.6v1.2h-8.6zM476 97v-1.2h2.4V89H476v-1h3.7v8h2.1v1H476zm3-11q-.4 0-.7-.4-.3-.3-.3-.7 0-.4.3-.7.3-.3.7-.3.4 0 .7.3.3.3.3.7 0 .4-.3.7-.3.3-.7.3zm9.7 11.2q-1 0-1.8-.5-.9-.6-1.4-1.7-.6-1.1-.6-2.7 0-1.5.6-2.6.5-1 1.4-1.6.9-.5 1.9-.5.9 0 1.6.4.7.5 1 1.2v-5.5h1.6v.1l-.2.3v12.3l.2.6h-1.4l-.2-.6v-.8q-.5.7-1.2 1.2-.6.4-1.5.4zm.2-1.3q1.3 0 1.8-1 .6-1 .6-2.5 0-1.6-.6-2.6t-1.9-1q-1.2 0-1.8.9-.7.9-.7 2.4 0 1.8.7 2.8.7 1 2 1zm9.4-12.2v2.5l-.2 1.7-.1 1h-1v-1l-.2-1.7v-2.5h1.5zm3 0v2.5l-.2 1.7-.1 1h-1v-1l-.2-1.7v-2.5h1.5zm6 16.1l1-1.2q.3-.6.3-1v-.2l-.4-.4-.5-.4-.1-.5q0-.5.3-.8.4-.4.9-.4t1 .5q.3.5.3 1.2 0 1.6-2.1 3.8l-.7-.6zm15.6-3.6q-1.3 1-2.9 1-1.5 0-2.2-1-.6-.9-.6-3V92l.2-3h-2v-1h2.1l.2-2.5 1.6-.2h.2l-.2.4-.1.4-.2 1.9h3v1h-3.1l-.2 3.1v1.1q0 1.6.3 2.2.4.5 1.2.5.6 0 1.1-.2l1.2-.7.4 1.2zm6.1 1q-1.2 0-2.2-.6-1-.6-1.5-1.7t-.5-2.5q0-1.4.5-2.4.6-1.1 1.5-1.7 1-.6 2.2-.6 1.2 0 2.2.6 1 .6 1.5 1.7.5 1 .5 2.4t-.5 2.5q-.5 1-1.5 1.7-1 .6-2.2.6zm0-1.2q.8 0 1.4-.5.6-.5 1-1.3.3-.8.3-1.8 0-1.6-.7-2.5-.8-1-2-1t-2 1q-.7 1-.7 2.5 0 1 .4 1.8.3.8 1 1.3.5.5 1.3.5zm13.9.2q-1.3 1-2.9 1-1.5 0-2.2-1-.6-.9-.6-3V92l.2-3h-2v-1h2.1l.2-2.5 1.6-.2h.2l-.2.4-.1.4-.2 1.9h3v1h-3.1l-.2 3.1v1.1q0 1.6.3 2.2.4.5 1.2.5.6 0 1.1-.2l1.2-.7.4 1.2zm6-8.5q2 0 3 1t1 3.4V97h-1.5v-1.4q-.9 1.6-3.2 1.6-1.5 0-2.3-.7-.9-.7-.9-1.8 0-1 .6-1.7t1.7-1q1-.5 2.3-.5l2 .1q0-1.5-.8-2.1-.6-.7-2-.7-.7 0-1.3.3l-1.2.8-.7-1q1.3-1.2 3.3-1.2zm-.5 8.4q1.5 0 2.3-.8.9-1 1-2.6l-2-.1q-1.5 0-2.4.5-.9.5-.9 1.5 0 1.5 2 1.5zm7.2.9v-1.2h2.7v-11h-2.6v-1.1h4v12.1h2.7V97h-6.8zm13.2-6.2q-.5 0-.8-.3-.4-.3-.4-.8t.3-.8q.4-.4.9-.4t.8.4q.4.3.4.8t-.4.8q-.3.3-.8.3zm0 6.4q-.5 0-.9-.3-.3-.3-.3-.8t.3-.8q.4-.4.9-.4t.8.4q.4.3.4.8 0 .4-.4.8-.3.3-.8.3zm22.6 3q-1.5 0-2.4-.3-1-.3-1.4-1-.5-.8-.4-2.2v-2q0-1.3-.4-1.8t-1.3-.5h-.4v-1h.4q.9 0 1.4-.6.4-.5.4-1.6v-1.5q0-3.4 3.6-3.4h1.3v1.1h-1.7q-1.8 0-1.8 2.1V89q0 2.2-1.7 3 1.7.5 1.7 3v1.8q0 1.3.5 1.8.6.6 2 .6h1v1h-.8zm17.3-3.5q-2.1-.1-3.5-1.6l.9-1.2v.2l.1.2q1 1.1 2.5 1.3v-4.4q-1.6-.6-2.3-1.3-.8-.7-.8-1.8t.9-2q.8-.7 2.2-1V84h1.3v.2l-.1.2v.8q1.8.2 3 1.5l-.9 1-.1-.1-.1-.2q-.7-.8-2-1v3.8q1.9.6 2.6 1.3.8.7.8 1.9 0 .7-.4 1.5-.4.7-1.2 1.2-.7.5-1.7.6v1.2h-1.2v-1.2zm0-10.4q-.8.1-1.3.6-.5.4-.5 1 0 1.2 1.8 1.9v-3.5zm1.2 9.2q1-.2 1.5-.7.5-.6.5-1.3 0-.7-.5-1.2-.4-.4-1.5-.8v4zm9.8-3.9q1.7.5 2.4 1.2.7.6.7 1.5 0 1.3-1 2.1t-2.8.8q-2.3 0-3.8-1.4l.8-1.4q.6.8 1.3 1.2.6.4 1.8.4 1 0 1.7-.4.6-.4.6-1t-.5-1q-.5-.4-1.8-.8-3.4-1-3.4-2.9 0-1 .8-1.6.9-.7 2.5-.7 1.3 0 2.1.4.9.3 1.6 1l-.9 1v.1q-.4-.6-1.2-1-.7-.4-1.5-.4-.9 0-1.5.3-.5.3-.5.9 0 .5.6.9.5.4 2 .8zm1.9-1.5h.2l-.1.1h-.1zm.2 0v.1-.1zm-5.6 4.2q0 .1-.2 0h.2zm-.2 0zm12.4 2.9q-1.4 0-2.3-1-.8-1.1-.8-3.2v-5.1h1.4v5q0 1.7.6 2.4.6.8 1.5.8 1 0 1.7-.8.8-.9.8-2.4v-5h1.4v8.5l.2.6h-1.4l-.2-.6v-.8q-.5.8-1.2 1.2-.8.4-1.7.4zm6.4-9.3h1.3v.9q.3-.5.8-.8.5-.4 1-.4.7 0 1.1.4.5.4.6 1 .2-.6.8-1 .6-.4 1.2-.4 1 0 1.4.7.4.6.4 1.7v7h-1.3v-6.5q0-1.1-.2-1.5-.3-.3-.7-.3-.3 0-.7.3l-.5 1q-.2.4-.2 1v6h-1.4v-6.4q0-1-.2-1.5-.2-.4-.8-.4-.3 0-.6.3l-.5.8q-.2.5-.2 1.1V97h-1.3v-9.1zm14 2.9q-.5 0-.8-.3-.4-.3-.4-.8t.3-.8q.4-.4.9-.4t.8.4q.4.3.4.8t-.4.8q-.3.3-.8.3zm0 6.4q-.5 0-.9-.3-.3-.3-.3-.8t.3-.8q.4-.4.9-.4t.8.4q.4.3.4.8 0 .4-.4.8-.3.3-.8.3zm19.5-13.5v2.5l-.2 1.7-.1 1h-1v-1l-.2-1.7v-2.5h1.5zm3 0v2.5l-.2 1.7-.1 1h-1v-1l-.2-1.7v-2.5h1.5zm7.4 13q-2.1-.1-3.5-1.6l.9-1.2v.2l.1.2q1 1.1 2.5 1.3v-4.4q-1.6-.6-2.3-1.3-.8-.7-.8-1.8t.9-2q.8-.7 2.2-1V84h1.3v.2l-.1.2v.8q1.8.2 3 1.5l-.9 1-.1-.1-.1-.2q-.7-.8-2-1v3.8q1.9.6 2.6 1.3.8.7.8 1.9 0 .7-.4 1.5-.4.7-1.2 1.2-.7.5-1.7.6v1.2h-1.2v-1.2zm0-10.4q-.8.1-1.3.6-.5.4-.5 1 0 1.2 1.8 1.9v-3.5zm1.2 9.2q1-.2 1.5-.7.5-.6.5-1.3 0-.7-.5-1.2-.4-.4-1.5-.8v4zm9-7.8q2 0 3 1t1 3.4V97h-1.5v-1.4q-.9 1.6-3.2 1.6-1.5 0-2.3-.7-.9-.7-.9-1.8 0-1 .6-1.7t1.7-1q1-.5 2.3-.5l2 .1q0-1.5-.8-2.1-.6-.7-2-.7-.7 0-1.3.3l-1.2.8-.7-1q1.3-1.2 3.3-1.2zm-.5 8.4q1.5 0 2.3-.8.9-1 1-2.6l-2-.1q-1.5 0-2.4.5-.9.5-.9 1.5 0 1.5 2 1.5zm6.4-8.2h1.3v.9q.3-.5.8-.8.5-.4 1-.4.7 0 1.1.4.5.4.6 1 .2-.6.8-1 .6-.4 1.2-.4 1 0 1.4.7.4.6.4 1.7v7h-1.3v-6.5q0-1.1-.2-1.5-.3-.3-.7-.3-.3 0-.7.3l-.5 1q-.2.4-.2 1v6h-1.4v-6.4q0-1-.2-1.5-.2-.4-.8-.4-.3 0-.6.3l-.5.8q-.2.5-.2 1.1V97h-1.3v-9.1zm14.2 9.3q-1.2 0-2.2-.6-1-.6-1.5-1.7t-.5-2.5q0-1.4.5-2.4.6-1.1 1.5-1.7 1-.6 2.2-.6 1.2 0 2.2.6 1 .6 1.5 1.7.5 1 .5 2.4t-.5 2.5q-.5 1-1.5 1.7-1 .6-2.2.6zm0-1.2q.8 0 1.4-.5.6-.5 1-1.3.3-.8.3-1.8 0-1.6-.7-2.5-.8-1-2-1t-2 1q-.7 1-.7 2.5 0 1 .4 1.8.3.8 1 1.3.5.5 1.3.5zm9.4 1.2q-1.4 0-2.3-1-.8-1.1-.8-3.2v-5.1h1.4v5q0 1.7.6 2.4.6.8 1.5.8 1 0 1.7-.8.8-.9.8-2.4v-5h1.4v8.5l.2.6h-1.4l-.2-.6v-.8q-.5.8-1.2 1.2-.8.4-1.7.4zm7.1-9.3h1.4v1.6q.5-.9 1.3-1.4.8-.5 1.8-.5 1.2 0 1.9 1 .7.9.7 2.9V97h-1.4v-5.5q0-1.4-.4-2-.5-.6-1.2-.6t-1.3.4q-.6.3-1 1-.4.6-.4 1.4V97h-1.4v-9.1zm17.4 8.3q-1.3 1-2.9 1-1.5 0-2.2-1-.6-.9-.6-3V92l.2-3h-2v-1h2.1l.2-2.5 1.6-.2h.2l-.2.4-.1.4-.2 1.9h3v1h-3.1l-.2 3.1v1.1q0 1.6.3 2.2.4.5 1.2.5.6 0 1.1-.2l1.2-.7.4 1.2zm5.4-12.5v2.5l-.2 1.7-.1 1h-1v-1l-.2-1.7v-2.5h1.5zm3 0v2.5l-.2 1.7-.1 1h-1v-1l-.2-1.7v-2.5h1.5zm13.8 16.5V99h1q1.4 0 2-.6.6-.5.6-1.8l-.1-1.7q0-2.6 1.7-3.1-1.7-.8-1.7-3v-1.4q0-2.1-1.9-2.1h-1.6v-1.1h1.3q3.6 0 3.6 3.4v1.5q0 1.1.4 1.6.5.5 1.4.5h.4v1.1h-.4q-1 0-1.4.5-.4.5-.4 1.8v2q.1 1.4-.3 2.1-.5.8-1.4 1-1 .4-2.5.4h-.7zm20 0V99h1q1.4 0 2-.6.6-.5.6-1.8l-.1-1.7q0-2.6 1.7-3.1-1.7-.8-1.7-3v-1.4q0-2.1-1.9-2.1h-1.6v-1.1h1.3q3.6 0 3.6 3.4v1.5q0 1.1.4 1.6.5.5 1.4.5h.4v1.1h-.4q-1 0-1.4.5-.4.5-.4 1.8v2q.1 1.4-.3 2.1-.5.8-1.4 1-1 .4-2.5.4h-.7zm20 0V99h1q1.4 0 2-.6.6-.5.6-1.8l-.1-1.7q0-2.6 1.7-3.1-1.7-.8-1.7-3v-1.4q0-2.1-1.9-2.1h-1.6v-1.1h1.3q3.6 0 3.6 3.4v1.5q0 1.1.4 1.6.5.5 1.4.5h.4v1.1h-.4q-1 0-1.4.5-.4.5-.4 1.8v2q.1 1.4-.3 2.1-.5.8-1.4 1-1 .4-2.5.4h-.7zm-600.7 18.4h-5.7v-1.2h4.4v-12.8h-4.4v-1.2h5.7v15.2zm13.9.4q2-1 3.2-3 1.2-2 1.2-4.2t-1.1-4q-1.2-2-3.2-3l.4-1.3q1.6.7 2.8 2 1.2 1.3 1.9 3 .7 1.5.7 3.3 0 1.7-.7 3.4t-2 3q-1.2 1.3-2.8 2l-.4-1.1z" font-size="20" font-family="Inconsolata" fill="#13206f"/><path d="M70.3 19.5v9" stroke="#358ec4" fill="none"/><path d="M67.3 28.5l3 8 3-8z" fill="#358ec4"/><path d="M67.3 28.5l3 8 3-8z" stroke="#358ec4" fill="none"/></svg>