<svg xmlns="http://www.w3.org/2000/svg" xmlns:xlink="http://www.w3.org/1999/xlink" height="560" width="680"><path d="M650 0a30 30 0 0 1 30 30v500a30 30 0 0 1-30 30H30a30 30 0 0 1-30-30V30A30 30 0 0 1 30 0z" opacity=".8" fill="#ccc" stroke="#000" stroke-width="2"/><path d="M140.8 495.4v4.5c0 10.2-10.9 20.5-24.4 20.5v-4.6c13.5 0 24.4-10.3 24.4-20.4z" fill="#9e5622"/><path d="M140.8 495.4v6.6-6.6m0 2v4.6l-.7 2.6V500c.3-.8.5-1.7.6-2.6m-.6 2.6v4.6c-.3 1-.8 2.1-1.4 3.2v-4.5c.6-1 1-2.2 1.4-3.3m-1.4 3.3v4.5a25.7 25.7 0 0 1-22.3 12.6v-4.6c10 0 18.4-5.6 22.3-12.5" fill="#9e5622"/><path d="M117.6 515l-1.2 5.4h-72l-1.2-5.4h74.4z" fill="#9e5622"/><path d="M44.5 515.8v4.6c-13.6 0-24.5-10.3-24.5-20.5v-4.5c0 10.1 11 20.4 24.5 20.4z" fill="#9e5622"/><path d="M44.5 515.8v4.6c-13.6 0-24.5-10.3-24.5-20.5v-4.5c0 10.1 11 20.4 24.5 20.4" fill="#9e5622"/><path d="M66.6 440c12.4 0 23.2 7.6 28 18.4a15.6 15.6 0 0 1 24.5 12.5c12.3 1 21.7 13 21.7 22.4v2c0 10.2-10.9 20.5-24.4 20.5h-72C31 515.8 20 505.5 20 495.4v-2.1c0-7.9 6.5-18.7 15.7-21.3l-.1-.9A31 31 0 0 1 66.4 440z" fill="#f58535"/><path d="M50.2 476.4l-8 28.6H47l1.8-7h8.3l1.8 7h4.7L56 476.4h-5.9zm-.6 18l3.4-14.2h.1l3.3 14.1h-6.8zm34.2 4.3L80 476.4h-4.8l-3.7 22.2h-.1l-3.8-22.2h-4.5l5.4 28.6h5.3l3.6-21.6 3.8 21.6h5.2l5.6-28.6h-4.4l-3.8 22.3zm22.8-9.3l-3-1.2c-3-1-4.3-2.4-4.3-4.8 0-3 1.8-4.1 3.9-4.1 2.7 0 4 1.5 4 4.1v.6h4.5v-.6c0-3-.9-7.6-8-7.6-5.5 0-9 3-9 8.1 0 4.1 1.9 6.3 6 7.9l3 1c2.7.8 4.1 2.2 4.1 5.1a4 4 0 0 1-4.3 4.3c-3.1 0-4.5-1.9-4.5-5.3v-.7h-4.6v.6c0 4 1.6 8.8 8.6 8.8 5.7 0 9.4-2.6 9.4-8.6 0-4-1.8-6.2-5.8-7.6z" fill="#fff"/><use height="100%" width="100%" transform="translate(33.7 536.5)" xlink:href="#a"/><use height="100%" width="100%" transform="translate(76.3 536.5)" xlink:href="#b"/><path d="M212 50a30 30 0 0 1 30 30v140a30 30 0 0 1-30 30H73a30 30 0 0 1-30-30V80a30 30 0 0 1 30-30z" fill="none"/><path d="M242 146.7v6.6m0 33.4V220l-.4 5-1.2 4.8-2 4.6-2.8 4.1-3.4 3.7-4 3-4.4 2.4-4.7 1.6-5 .7-2.1.1h-33.1m-33.1 0h-6.6m-33.1 0H73l-5-.4-4.8-1.2-4.6-2-4.1-2.8-3.7-3.4-3-4-2.4-4.4-1.6-4.7-.7-5-.1-2.1v-33.3m0-33.4v-6.6m0-33.4V80l.4-5 1.2-4.8 2-4.6 2.8-4.1 3.4-3.7 4-3 4.4-2.4 4.7-1.6 5-.7L73 50h33.1m33.1 0h6.6m33.1 0H212l5 .4 4.8 1.2 4.6 2 4.1 2.8 3.7 3.4 3 4 2.4 4.4 1.6 4.7.7 5 .1 2.1v33.3" fill="none" stroke="#f90" stroke-width="5"/><use height="100%" width="100%" transform="translate(81.7 246.5)" xlink:href="#c"/><use height="100%" width="100%" transform="translate(164.1 246.5)" xlink:href="#d"/><path d="M610 50a30 30 0 0 1 30 30v140a30 30 0 0 1-30 30H471a30 30 0 0 1-30-30V80a30 30 0 0 1 30-30z" fill="none"/><path d="M640 146.7v6.6m0 33.4V220l-.4 5-1.2 4.8-2 4.6-2.8 4.1-3.4 3.7-4 3-4.4 2.4-4.7 1.6-5 .7-2.1.1h-33.1m-33.1 0h-6.6m-33.1 0H471l-5-.4-4.8-1.2-4.6-2-4.1-2.8-3.7-3.4-3-4-2.4-4.4-1.6-4.7-.7-5-.1-2.1v-33.3m0-33.4v-6.6m0-33.4V80l.4-5 1.2-4.8 2-4.6 2.8-4.1 3.4-3.7 4-3 4.4-2.4 4.7-1.6 5-.7 2.1-.1h33.1m33.1 0h6.6m33.1 0H610l5 .4 4.8 1.2 4.6 2 4.1 2.8 3.7 3.4 3 4 2.4 4.4 1.6 4.7.7 5 .1 2.1v33.3" fill="none" stroke="#f90" stroke-width="5"/><use height="100%" width="100%" transform="translate(479.7 246.5)" xlink:href="#e"/><use height="100%" width="100%" transform="translate(562.1 246.5)" xlink:href="#f"/><path d="M411 310a30 30 0 0 1 30 30v140a30 30 0 0 1-30 30H272a30 30 0 0 1-30-30V340a30 30 0 0 1 30-30z" fill="none"/><path d="M441 406.7v6.6m0 33.4V480l-.4 5-1.2 4.8-2 4.6-2.8 4.1-3.4 3.7-4 3-4.4 2.4-4.7 1.6-5 .7-2.1.1h-33.1m-33.1 0h-6.6m-33.1 0H272l-5-.4-4.8-1.2-4.6-2-4.1-2.8-3.7-3.4-3-4-2.4-4.4-1.6-4.7-.7-5-.1-2.1v-33.3m0-33.4v-6.6m0-33.4V340l.4-5 1.2-4.8 2-4.6 2.8-4.1 3.4-3.7 4-3 4.4-2.4 4.7-1.6 5-.7 2.1-.1h33.1m33.1 0h6.6m33.1 0H411l5 .4 4.8 1.2 4.6 2 4.1 2.8 3.7 3.4 3 4 2.4 4.4 1.6 4.7.7 5 .1 2.1v33.4" fill="none" stroke="#f90" stroke-width="5"/><use height="100%" width="100%" transform="translate(280.7 506.5)" xlink:href="#e"/><use height="100%" width="100%" transform="translate(363.1 506.5)" xlink:href="#f"/><path d="M102.8 101v7.4c.8 3.2 4.1 4.9 9.9 6.8 10.9 2.4 15 3.4 29.7 3.5 14.8 0 18.7-1 30-3.4 4.3-1.2 9.5-3.7 9.8-7v-7.7c-8 .2-79.4-.6-79.4.4z" fill="#698c4d"/><path d="M182.3 101.2c0 6.2-17.8 11.2-39.8 11.2-22 0-39.8-5-39.8-11.2 0-6.2 17.8-11.2 39.8-11.2 22 0 39.8 5 39.8 11.2z" fill="#a3d977"/><path d="M102.9 172.3v7.4c.7 3.1 3.9 4.4 9.6 6.3 10.9 2.4 15.3 3.3 30 3.5 14.7 0 20.7-1.2 32-3.5 4.3-1.3 7.4-3.1 7.6-6.4v-7.7c-7.8.1-79.3-.6-79.3.4z" fill="#698c4d"/><path d="M102.9 113.9v59.6c.7 3.1 3.9 4.4 9.6 6.3 10.9 2.4 15.3 3.3 30 3.5 14.7 0 20.7-1.2 32-3.5 4.3-1.3 7.4-3.1 7.6-6.4v-59.9c-5.9 14.4-77.9 9-79.3.4z" fill="#a3d977"/><use height="100%" width="100%" transform="translate(111.2 205)" xlink:href="#g"/><path d="M500.8 101v7.4c.8 3.2 4.1 4.9 9.8 6.8 11 2.4 15 3.4 29.8 3.5 14.7 0 18.6-1 30-3.4 4.2-1.2 9.5-3.7 9.7-7v-7.7c-8 .2-79.3-.6-79.3.4z" fill="#698c4d"/><path d="M580.3 101.2c0 6.2-17.8 11.2-39.8 11.2-22 0-39.8-5-39.8-11.2 0-6.2 17.8-11.2 39.8-11.2 22 0 39.8 5 39.8 11.2z" fill="#a3d977"/><path d="M500.9 172.3v7.4c.7 3.1 3.9 4.4 9.6 6.3 10.9 2.4 15.3 3.3 30 3.5 14.7 0 20.7-1.2 32-3.5 4.3-1.3 7.4-3.1 7.6-6.4v-7.7c-7.9.1-79.3-.6-79.3.4z" fill="#698c4d"/><path d="M500.9 113.9v59.6c.7 3.1 3.9 4.4 9.6 6.3 10.9 2.4 15.3 3.3 30 3.5 14.7 0 20.7-1.2 32-3.5 4.3-1.3 7.4-3.1 7.6-6.4v-59.9c-5.9 14.4-77.9 9-79.3.4z" fill="#a3d977"/><use height="100%" width="100%" transform="translate(509.2 205)" xlink:href="#g"/><path d="M301.8 361v7.4c.8 3.2 4.1 4.9 9.8 6.8 11 2.4 15 3.4 29.8 3.5 14.7 0 18.6-1 30-3.4 4.2-1.2 9.5-3.7 9.7-7v-7.7c-8 .2-79.3-.6-79.3.4z" fill="#698c4d"/><path d="M381.3 361.2c0 6.2-17.8 11.2-39.8 11.2-22 0-39.8-5-39.8-11.2 0-6.2 17.8-11.2 39.8-11.2 22 0 39.8 5 39.8 11.2z" fill="#a3d977"/><path d="M301.9 432.3v7.4c.7 3.1 3.9 4.4 9.6 6.3 10.9 2.4 15.3 3.3 30 3.5 14.7 0 20.7-1.2 32-3.5 4.3-1.3 7.4-3.1 7.6-6.4v-7.7c-7.9.1-79.3-.6-79.3.4z" fill="#698c4d"/><path d="M301.9 373.9v59.6c.7 3.1 3.9 4.4 9.6 6.3 10.9 2.4 15.3 3.3 30 3.5 14.7 0 20.7-1.2 32-3.5 4.3-1.3 7.4-3.1 7.6-6.4v-59.9c-5.9 14.4-77.9 9-79.3.4z" fill="#a3d977"/><use height="100%" width="100%" transform="translate(310.2 465)" xlink:href="#g"/><defs><path id="h" d="M600-1405h141L1366 0h-205L975-414H381L205 0H0zm293 813l-225-506-209 506h434"/><path id="i" d="M1933-1397h199L1567 6h-43l-457-1136L606 6h-43L0-1397h201l385 963 387-963h190l389 963"/><path id="j" d="M465-160c115 0 219-75 219-184 0-85-61-167-184-242-115-71-295-172-356-264-38-58-60-121-60-194 0-224 182-371 412-371 117 0 224 33 321 98v227c-101-97-209-145-325-145-114 0-223 58-224 162 0 42 15 81 46 118 59 73 208 148 302 205 170 102 256 231 256 388 0 225-175 378-405 378-138 0-264-42-377-127v-254c108 137 233 205 375 205"/><g id="a"><use height="100%" width="100%" xlink:href="#h" transform="scale(.00879)"/><use height="100%" width="100%" xlink:href="#i" transform="translate(10.6) scale(.00879)"/><use height="100%" width="100%" xlink:href="#j" transform="translate(29.3) scale(.00879)"/></g><path id="k" d="M971-1008c-1 178-98 292-236 344 146 109 184 183 311 385 82 131 116 178 191 279H999c-84-122-160-249-241-375-61-94-125-160-206-211-31-20-121-24-192-22V0H160v-1397h350c263-5 462 139 461 389zm-242-122c-63-101-185-96-369-97v441c101 2 244-5 284-26 67-34 120-103 120-198 0-44-12-84-35-120"/><path id="l" d="M512-938c262 0 413 213 401 494H266c6 169 125 288 299 288 120 0 231-37 332-112v178C790-20 702 12 537 14c-210 1-322-95-397-232-39-71-56-154-56-247 0-265 171-473 428-473zm221 385c-7-136-83-227-221-227-143 0-220 95-242 227h463"/><path id="m" d="M139-178c0-74 75-116 146-133C150-371 82-468 82-602c1-211 175-318 401-318h379v142H676c60 65 96 100 96 203 0 107-72 207-146 248-43 24-114 48-212 59-101 12-138 80-64 124 55 33 329 79 356 100 81 34 157 118 154 226-6 199-205 287-428 287C206 469 0 381 0 180 0 55 77-25 231-61c-61-39-92-78-92-117zm467-416c0-96-84-168-182-168-94 0-178 78-178 170 0 96 82 164 180 164 97 0 180-71 180-166zm-8 678c-123-61-426-72-426 98 0 95 85 142 256 142 81 0 144-12 188-36s66-57 66-100-28-76-84-104"/><path id="n" d="M117-1200c0-54 52-107 106-107 58 0 109 49 109 107 0 57-51 108-109 108-54 0-106-53-106-108zm16 280h182V0H133v-920"/><path id="o" d="M76-451c0-267 222-471 493-471s488 207 488 476c0 265-225 462-496 462C296 16 76-188 76-451zm796-4c0-172-139-303-313-303-172 0-299 133-299 305 0 174 132 299 307 299 174 0 305-128 305-301"/><path id="p" d="M717-524c-3-169-33-262-187-262-86 0-159 43-219 129V0H125v-920h186v117c117-131 280-184 437-91 117 70 151 162 151 368V0H717v-524"/><g id="b"><use height="100%" width="100%" xlink:href="#k" transform="scale(.00879)"/><use height="100%" width="100%" xlink:href="#l" transform="translate(10.9) scale(.00879)"/><use height="100%" width="100%" xlink:href="#m" transform="translate(19.5) scale(.00879)"/><use height="100%" width="100%" xlink:href="#n" transform="translate(27.2) scale(.00879)"/><use height="100%" width="100%" xlink:href="#o" transform="translate(31.1) scale(.00879)"/><use height="100%" width="100%" xlink:href="#p" transform="translate(41) scale(.00879)"/></g><path id="q" d="M692-920h197L483 16h-61L6-920h199l248 566"/><path id="r" d="M279 14C154 14 49-84 55-209c11-240 284-270 473-344 10-137-37-215-166-215-99 0-196 51-290 154v-199c71-83 172-125 305-125 171 0 301 80 323 228s4 380 7 548c0 31 11 47 32 47 22 0 56-16 103-49v111c-70 41-94 69-178 69-78 0-124-31-138-92-77 60-160 90-247 90zm-43-254c-2 75 56 129 131 129 58 0 112-24 161-71v-273c-79 31-209 74-254 121-25 26-38 57-38 94"/><path id="s" d="M133-1397h182V0H133v-1397"/><path id="t" d="M465 16c-112 0-271-29-344-67v-1346h182v543c79-57 163-86 252-86 242-3 397 217 397 471 0 292-196 485-487 485zm303-477c0-168-98-310-258-309-68 0-137 30-207 90v498c62 19 126 28 191 28 164 0 274-138 274-307"/><path id="u" d="M0-774l342-336v190h291v164H342v451c0 105 44 158 131 158 65 0 134-22 207-66v170C550 33 349 44 243-57c-73-70-84-127-83-291v-408H0v-18"/><path id="v" d="M692-920h205L246 469H43l313-666L0-920h207l248 519"/><g id="c"><use height="100%" width="100%" xlink:href="#h" transform="scale(.00879)"/><use height="100%" width="100%" xlink:href="#q" transform="translate(11.6) scale(.00879)"/><use height="100%" width="100%" xlink:href="#r" transform="translate(19.4) scale(.00879)"/><use height="100%" width="100%" xlink:href="#n" transform="translate(27.1) scale(.00879)"/><use height="100%" width="100%" xlink:href="#s" transform="translate(31) scale(.00879)"/><use height="100%" width="100%" xlink:href="#r" transform="translate(35) scale(.00879)"/><use height="100%" width="100%" xlink:href="#t" transform="translate(42.7) scale(.00879)"/><use height="100%" width="100%" xlink:href="#n" transform="translate(51.7) scale(.00879)"/><use height="100%" width="100%" xlink:href="#s" transform="translate(55.6) scale(.00879)"/><use height="100%" width="100%" xlink:href="#n" transform="translate(59.6) scale(.00879)"/><use height="100%" width="100%" xlink:href="#u" transform="translate(63.5) scale(.00879)"/><use height="100%" width="100%" xlink:href="#v" transform="translate(69.5) scale(.00879)"/></g><path id="w" d="M82-1399h1204L393-178h893V0H25l895-1221H82v-178"/><g id="d"><use height="100%" width="100%" xlink:href="#w" transform="scale(.00879)"/><use height="100%" width="100%" xlink:href="#o" transform="translate(11.6) scale(.00879)"/><use height="100%" width="100%" xlink:href="#p" transform="translate(21.6) scale(.00879)"/><use height="100%" width="100%" xlink:href="#l" transform="translate(30.6) scale(.00879)"/></g><g id="e"><use height="100%" width="100%" xlink:href="#h" transform="scale(.00879)"/><use height="100%" width="100%" xlink:href="#q" transform="translate(11.6) scale(.00879)"/><use height="100%" width="100%" xlink:href="#r" transform="translate(19.4) scale(.00879)"/><use height="100%" width="100%" xlink:href="#n" transform="translate(27.1) scale(.00879)"/><use height="100%" width="100%" xlink:href="#s" transform="translate(31) scale(.00879)"/><use height="100%" width="100%" xlink:href="#r" transform="translate(35) scale(.00879)"/><use height="100%" width="100%" xlink:href="#t" transform="translate(42.7) scale(.00879)"/><use height="100%" width="100%" xlink:href="#n" transform="translate(51.7) scale(.00879)"/><use height="100%" width="100%" xlink:href="#s" transform="translate(55.6) scale(.00879)"/><use height="100%" width="100%" xlink:href="#n" transform="translate(59.6) scale(.00879)"/><use height="100%" width="100%" xlink:href="#u" transform="translate(63.5) scale(.00879)"/><use height="100%" width="100%" xlink:href="#v" transform="translate(69.5) scale(.00879)"/></g><g id="f"><use height="100%" width="100%" xlink:href="#w" transform="scale(.00879)"/><use height="100%" width="100%" xlink:href="#o" transform="translate(11.6) scale(.00879)"/><use height="100%" width="100%" xlink:href="#p" transform="translate(21.6) scale(.00879)"/><use height="100%" width="100%" xlink:href="#l" transform="translate(30.6) scale(.00879)"/></g><path id="x" d="M41-623h55l154 305 157-306h53V1h-66v-471L259-219h-27L106-467V1H41v-624"/><path id="y" d="M460-226c0 151-97 238-205 238C140 12 40-86 40-225c0-141 101-242 217-242 104 0 203 83 203 241zm-72 3c1-245-271-238-272-8-5 228 272 366 272 8"/><path id="z" d="M274-405c-78 10-132 62-132 142V0H68v-457h74v81c34-51 89-92 151-92 88 0 139 91 139 191V0h-71v-275c9-55-27-138-87-130"/><path id="A" d="M126-314c0 55 45 100 101 100s100-45 100-100-44-101-100-101-101 46-101 101zm11 199c9 36 35 35 92 35 52 0 107-6 155 13 49 20 71 59 71 99 0 61-55 140-210 140C85 172 38 114 38 64c0-36 26-70 75-101-29-15-37-42-37-61 0-29 19-60 52-88-42-27-68-74-68-124 0-133 184-217 279-118 35-30 81-45 127-41l9 59c-41-6-74 2-106 20 77 121-53 276-200 223-4 4-32 28-32 52zm107 233c53 0 145-29 145-81 0-20-11-48-54-53s-135-1-174-8c-52 25-92 93-12 127 35 14 74 15 95 15"/><path id="B" d="M460-313C457-127 378 7 187 1H54v-624h145c184-10 263 137 261 310zM120-564v510c75-2 122 10 180-28 50-33 90-102 90-221 0-89-20-179-78-226-59-48-109-32-192-35"/><path id="C" d="M457-173C457-69 349 0 224 0H48v-623h177c109-13 207 59 207 152 0 60-36 114-92 137 70 24 117 88 117 161zm-95-291c0-61-72-100-146-100h-99v199h98c73 9 147-36 147-99zm21 284c0-74-75-126-164-126H117v245h119c82 8 147-49 147-119"/><g id="g"><use height="100%" width="100%" xlink:href="#x" transform="scale(.018)"/><use height="100%" width="100%" xlink:href="#y" transform="translate(9) scale(.018)"/><use height="100%" width="100%" xlink:href="#z" transform="translate(18) scale(.018)"/><use height="100%" width="100%" xlink:href="#A" transform="translate(27) scale(.018)"/><use height="100%" width="100%" xlink:href="#y" transform="translate(36) scale(.018)"/><use height="100%" width="100%" xlink:href="#B" transform="translate(45) scale(.018)"/><use height="100%" width="100%" xlink:href="#C" transform="translate(54) scale(.018)"/></g></defs></svg>