<?xml version="1.0" encoding="UTF-8"?>
<!DOCTYPE svg PUBLIC "-//W3C//DTD SVG 1.1//EN" "http://www.w3.org/Graphics/SVG/1.1/DTD/svg11.dtd">
<svg version="1.1" xmlns="http://www.w3.org/2000/svg" xmlns:xlink="http://www.w3.org/1999/xlink" x="0px" y="0px" width="550" height="120" viewBox="0, 0, 550, 120">
  <g id="Layer 1">
    <g>
      <text transform="matrix(1, 0, 0, 1, 160.664, 60.618)">
        <tspan x="-145.859" y="-32.643" font-family="Inconsolata" font-size="24" fill="#06345E">SELECT</tspan>
        <tspan x="-73.859" y="-32.643" font-family="Inconsolata" font-size="24" fill="#D33907"> </tspan>
        <tspan x="-61.859" y="-32.643" font-family="Inconsolata" font-size="24" fill="#2A86C0">name, address</tspan>
        <tspan x="94.141" y="-32.643" font-family="Inconsolata" font-size="24" fill="#D33907"> </tspan>
        <tspan x="-145.859" y="-6.643" font-family="Inconsolata" font-size="24" fill="#053056">FROM</tspan>
        <tspan x="-97.859" y="-6.643" font-family="Inconsolata" font-size="24" fill="#D33907">   </tspan>
        <tspan x="-61.859" y="-6.643" font-family="Inconsolata" font-size="24" fill="#2A86C0">users</tspan>
        <tspan x="-145.859" y="19.357" font-family="Inconsolata" font-size="24" fill="#053056">WHERE</tspan>
        <tspan x="-85.859" y="19.357" font-family="Inconsolata" font-size="24" fill="#D33907">  </tspan>
        <tspan x="-61.859" y="19.357" font-family="Inconsolata" font-size="24" fill="#2A86C0">age &gt; 18</tspan>
        <tspan x="-145.859" y="45.357" font-family="Inconsolata" font-size="24" fill="#053056">LIMIT</tspan>
        <tspan x="-85.859" y="45.357" font-family="Inconsolata" font-size="24" fill="#D33907">  </tspan>
        <tspan x="-61.859" y="45.357" font-family="Inconsolata" font-size="24" fill="#2A86C0">5</tspan>
      </text>
      <g>
        <g>
          <path d="M361.75,23.63 L318.823,23.431" fill-opacity="0" stroke="#5CA831" stroke-width="2"/>
          <path d="M318.84,19.831 L309.223,23.386 L318.807,27.031 z" fill="#5CA831" fill-opacity="1" stroke="#5CA831" stroke-width="2" stroke-opacity="1"/>
        </g>
        <text transform="matrix(1, 0, 0, 1, 425.691, 21.239)">
          <tspan x="-49.957" y="7.5" font-family="GillSans" font-size="24" fill="#2A86C0">projection</tspan>
        </text>
      </g>
      <g>
        <g>
          <path d="M361.75,47.47 L318.823,47.271" fill-opacity="0" stroke="#5CA831" stroke-width="2"/>
          <path d="M318.84,43.671 L309.223,47.226 L318.807,50.871 z" fill="#5CA831" fill-opacity="1" stroke="#5CA831" stroke-width="2" stroke-opacity="1"/>
        </g>
        <text transform="matrix(1, 0, 0, 1, 425.691, 46.843)">
          <tspan x="-49.957" y="7.5" font-family="GillSans" font-size="24" fill="#2A86C0">table</tspan>
        </text>
      </g>
      <g>
        <g>
          <path d="M361.75,72.696 L318.823,72.497" fill-opacity="0" stroke="#5CA831" stroke-width="2"/>
          <path d="M318.84,68.897 L309.223,72.453 L318.807,76.097 z" fill="#5CA831" fill-opacity="1" stroke="#5CA831" stroke-width="2" stroke-opacity="1"/>
        </g>
        <text transform="matrix(1, 0, 0, 1, 455.465, 71.782)">
          <tspan x="-79.73" y="7.5" font-family="GillSans" font-size="24" fill="#2A86C0">select criteria</tspan>
        </text>
      </g>
      <g>
        <g>
          <path d="M361.75,99.388 L318.823,99.189" fill-opacity="0" stroke="#5CA831" stroke-width="2"/>
          <path d="M318.84,95.589 L309.223,99.144 L318.807,102.788 z" fill="#5CA831" fill-opacity="1" stroke="#5CA831" stroke-width="2" stroke-opacity="1"/>
        </g>
        <text transform="matrix(1, 0, 0, 1, 455.465, 98.761)">
          <tspan x="-79.73" y="7.5" font-family="GillSans" font-size="24" fill="#0A3359">cursor modifier</tspan>
        </text>
      </g>
    </g>
  </g>
  <defs/>
</svg>
