<?xml version="1.0" encoding="UTF-8"?>
<!DOCTYPE svg PUBLIC "-//W3C//DTD SVG 1.1//EN" "http://www.w3.org/Graphics/SVG/1.1/DTD/svg11.dtd">
<svg version="1.1" xmlns="http://www.w3.org/2000/svg" xmlns:xlink="http://www.w3.org/1999/xlink" x="0px" y="0px" width="620" height="120" viewBox="0, 0, 620, 120">
  <g id="Layer 1">
    <text transform="matrix(1, 0, 0, 1, 220.838, 58.5)">
      <tspan x="-206.033" y="-31.5" font-family="Inconsolata" font-size="24" fill="#053056">INSERT INTO</tspan>
      <tspan x="-74.033" y="-31.5" font-family="Inconsolata" font-size="24" fill="#D33907"> </tspan>
      <tspan x="-62.033" y="-31.5" font-family="Inconsolata" font-size="24" fill="#2A86C0">users </tspan>
      <tspan x="-206.033" y="-5.5" font-family="Inconsolata" font-size="24" fill="#2A86C0">      </tspan>
      <tspan x="-134.033" y="-5.5" font-family="Inconsolata" font-size="24" fill="#053056">      </tspan>
      <tspan x="-62.033" y="-5.5" font-family="Inconsolata" font-size="24" fill="#2A86C0">( name, age,</tspan>
      <tspan x="81.967" y="-5.5" font-family="Inconsolata" font-size="24" fill="#2A86C0"> status</tspan>
      <tspan x="165.967" y="-5.5" font-family="Inconsolata" font-size="24" fill="#2A86C0"> ) </tspan>
      <tspan x="-206.033" y="20.5" font-family="Inconsolata" font-size="24" fill="#053056">VALUES      </tspan>
      <tspan x="-62.033" y="20.5" font-family="Inconsolata" font-size="24" fill="#2A86C0">( "sue", 26, "A" )</tspan>
    </text>
    <g>
      <g>
        <path d="M500.75,23.891 L457.823,23.691" fill-opacity="0" stroke="#5CA831" stroke-width="2"/>
        <path d="M457.84,20.092 L448.223,23.647 L457.807,27.291 z" fill="#5CA831" fill-opacity="1" stroke="#5CA831" stroke-width="2" stroke-opacity="1"/>
      </g>
      <text transform="matrix(1, 0, 0, 1, 564.691, 21.5)">
        <tspan x="-49.957" y="7.5" font-family="GillSans" font-size="24" fill="#2A86C0">collection</tspan>
      </text>
    </g>
    <g>
      <g>
        <path d="M500.75,47.73 L457.823,47.531" fill-opacity="0" stroke="#5CA831" stroke-width="2"/>
        <path d="M457.84,43.931 L448.223,47.487 L457.807,51.131 z" fill="#5CA831" fill-opacity="1" stroke="#5CA831" stroke-width="2" stroke-opacity="1"/>
      </g>
      <text transform="matrix(1, 0, 0, 1, 564.691, 47.104)">
        <tspan x="-49.957" y="7.5" font-family="GillSans" font-size="24" fill="#2A86C0">fields</tspan>
      </text>
    </g>
    <g>
      <path d="M500.75,72.957 L457.823,72.758" fill-opacity="0" stroke="#5CA831" stroke-width="2"/>
      <path d="M457.84,69.158 L448.223,72.713 L457.807,76.358 z" fill="#5CA831" fill-opacity="1" stroke="#5CA831" stroke-width="2" stroke-opacity="1"/>
    </g>
    <text transform="matrix(1, 0, 0, 1, 564.691, 72.043)">
      <tspan x="-49.957" y="7.5" font-family="GillSans" font-size="24" fill="#2A86C0">values</tspan>
    </text>
  </g>
  <defs/>
</svg>
