<?xml version="1.0" encoding="UTF-8"?>
<!DOCTYPE svg PUBLIC "-//W3C//DTD SVG 1.1//EN" "http://www.w3.org/Graphics/SVG/1.1/DTD/svg11.dtd">
<svg version="1.1" xmlns="http://www.w3.org/2000/svg" xmlns:xlink="http://www.w3.org/1999/xlink" x="0" y="0" width="495.34" height="141.167" viewBox="0, 0, 495.34, 141.167">
  <defs>
    <linearGradient id="Gradient_1" gradientUnits="userSpaceOnUse" x1="231" y1="68" x2="231" y2="68">
      <stop offset="0.324" stop-color="#FFFFFF"/>
      <stop offset="1" stop-color="#000000"/>
    </linearGradient>
  </defs>
  <g id="g7">
    <path d="M210.813,25.888 L284.527,25.888 C291.155,25.888 296.527,31.261 296.527,37.888 L296.527,93.839 C296.527,100.466 291.155,105.839 284.527,105.839 L210.813,105.839 C204.185,105.839 198.813,100.466 198.813,93.839 L198.813,37.888 C198.813,31.261 204.185,25.888 210.813,25.888 z" fill="#89C263"/>
    <g>
      <path d="M378.586,42.877 L477.819,42.877 L477.819,126.611 L378.586,126.611 L378.586,42.877 z" fill="#FFFFFF"/>
      <path d="M378.586,42.877 L477.819,42.877 L477.819,126.611 L378.586,126.611 L378.586,42.877 z" fill-opacity="0" stroke="#6CB33E" stroke-width="2"/>
    </g>
    <g>
      <text transform="matrix(1, 0, 0, 1, 247.67, 65.863)" id="tspan4201">
        <tspan x="-34.569" y="-12" font-family="GillSans" font-size="15" fill="#FFFFFF">Business</tspan>
        <tspan x="-34.569" y="5" font-family="GillSans" font-size="15" fill="#FFFFFF">Intelligence</tspan>
        <tspan x="-34.569" y="22" font-family="GillSans" font-size="15" fill="#FFFFFF">Connector</tspan>
      </text>
    </g>
    <g>
      <g id="path17810">
        <path d="M130.85,58.881 L192.791,42.284" fill="#358EC4"/>
        <path d="M130.85,58.881 L192.791,42.284" fill-opacity="0" stroke="#358EC4" stroke-width="3.606" stroke-miterlimit="10"/>
      </g>
      <g id="path17832">
        <path d="M124.825,60.495 L135.009,50.3 L138.742,64.232 L124.825,60.495 z" fill="#358EC4"/>
        <path d="M124.825,60.495 L135.009,50.3 L138.742,64.232 L124.825,60.495 z" fill-opacity="0" stroke="#358EC4" stroke-width="0.4"/>
      </g>
    </g>
    <text transform="matrix(0.966, -0.259, 0.259, 0.966, 154.622, 40.533)" id="tspan17836">
      <tspan x="-22.996" y="5" font-family="GillSans" font-size="15" fill="#2A86C0">schema</tspan>
    </text>
    <g>
      <g id="path17810-9">
        <path d="M124.825,86.452 L186.766,69.855" fill="#6CB33F"/>
        <path d="M124.825,86.452 L186.766,69.855" fill-opacity="0" stroke="#6CB33F" stroke-width="3.606" stroke-linecap="square" stroke-miterlimit="10"/>
      </g>
      <g id="path17685">
        <path d="M192.791,68.24 L182.607,78.435 L178.874,64.504 L192.791,68.24 z" fill="#6CB33F"/>
        <path d="M192.791,68.24 L182.607,78.435 L178.874,64.504 L192.791,68.24 z" fill-opacity="0" stroke="#6CB33F" stroke-width="0.4" stroke-linecap="square" stroke-miterlimit="10"/>
      </g>
    </g>
    <text transform="matrix(0.966, -0.259, 0.259, 0.966, 154.622, 64.875)" id="tspan19197">
      <tspan x="-22.685" y="5" font-family="GillSans" font-size="15" fill="#6CB33F">queries</tspan>
    </text>
    <g>
      <g id="path17810-2">
        <path d="M130.85,108.418 L192.791,91.821" fill="#358EC4"/>
        <path d="M130.85,108.418 L192.791,91.821" fill-opacity="0" stroke="#358EC4" stroke-width="3.606" stroke-linecap="square" stroke-miterlimit="10"/>
      </g>
      <g id="path17832-7">
        <path d="M124.825,110.032 L135.009,99.838 L138.742,113.769 L124.825,110.032 z" fill="#358EC4"/>
        <path d="M124.825,110.032 L135.009,99.838 L138.742,113.769 L124.825,110.032 z" fill-opacity="0" stroke="#358EC4" stroke-width="0.4" stroke-linecap="square" stroke-miterlimit="10"/>
      </g>
    </g>
    <text transform="matrix(0.966, -0.259, 0.259, 0.966, 154.622, 89.174)" id="tspan17836-46">
      <tspan x="-30.8" y="5" font-family="GillSans" font-size="15" fill="#2A86C0">responses</tspan>
    </text>
    <g>
      <g id="path17810-9-1">
        <path d="M303.295,60.334 L365.236,76.931" fill="#6CB33F"/>
        <path d="M303.295,60.334 L365.236,76.931" fill-opacity="0" stroke="#6CB33F" stroke-width="3.606" stroke-linecap="square" stroke-miterlimit="10"/>
      </g>
      <g id="path17685-5">
        <path d="M371.261,78.546 L357.344,82.282 L361.077,68.351 L371.261,78.546 z" fill="#6CB33F"/>
        <path d="M371.261,78.546 L357.344,82.282 L361.077,68.351 L371.261,78.546 z" fill-opacity="0" stroke="#6CB33F" stroke-width="0.4" stroke-linecap="square" stroke-miterlimit="10"/>
      </g>
    </g>
    <text transform="matrix(0.966, 0.259, -0.259, 0.966, 341.859, 56.848)" id="tspan19197-8">
      <tspan x="-22.685" y="5" font-family="GillSans" font-size="15" fill="#6CB33F">queries</tspan>
    </text>
    <g>
      <g id="path17810-2-9">
        <path d="M307.32,92.246 L369.261,108.843" fill="#358EC4"/>
        <path d="M307.32,92.246 L369.261,108.843" fill-opacity="0" stroke="#358EC4" stroke-width="3.606" stroke-linecap="square" stroke-miterlimit="10"/>
      </g>
      <g id="path17832-7-3">
        <path d="M301.295,90.631 L315.212,86.895 L311.479,100.826 L301.295,90.631 z" fill="#358EC4"/>
        <path d="M301.295,90.631 L315.212,86.895 L311.479,100.826 L301.295,90.631 z" fill-opacity="0" stroke="#358EC4" stroke-width="0.4" stroke-linecap="square" stroke-miterlimit="10"/>
      </g>
    </g>
    <text transform="matrix(0.966, 0.259, -0.259, 0.966, 339.278, 87.174)" id="tspan17836-46-6">
      <tspan x="-30.8" y="5" font-family="GillSans" font-size="15" fill="#2A86C0">responses</tspan>
    </text>
    <g>
      <path d="M17.215,52.283 L100.199,52.283 C108.05,52.283 114.414,59.651 114.414,68.739 L114.414,120.762 C114.414,129.851 108.05,137.219 100.199,137.219 L17.215,137.219 C9.364,137.219 3,129.851 3,120.762 L3,68.739 C3,59.651 9.364,52.283 17.215,52.283 z" fill="#FFFFFF"/>
      <path d="M17.215,52.283 L100.199,52.283 C108.05,52.283 114.414,59.651 114.414,68.739 L114.414,120.762 C114.414,129.851 108.05,137.219 100.199,137.219 L17.215,137.219 C9.364,137.219 3,129.851 3,120.762 L3,68.739 C3,59.651 9.364,52.283 17.215,52.283 z" fill-opacity="0" stroke="#358EC4" stroke-width="2"/>
    </g>
    <text transform="matrix(1, 0, 0, 1, 58.707, 94.751)">
      <tspan x="-43.526" y="-14.86" font-family="GillSans" font-size="18" fill="#4B4B4B">Business </tspan>
      <tspan x="-43.526" y="6.14" font-family="GillSans" font-size="18" fill="#4B4B4B">Intelligence </tspan>
      <tspan x="-43.526" y="27.14" font-family="GillSans" font-size="18" fill="#4B4B4B">Tool</tspan>
    </text>
    <text transform="matrix(1, 0, 0, 1, 434.293, 94.751)">
      <tspan x="-43.526" y="-14.86" font-family="GillSans" font-size="18" fill="#4B4B4B">MongoDB</tspan>
    </text>
    <g>
      <path d="M428.202,48.471 C400.8,48.471 378.586,45.967 378.586,42.877 C378.586,39.788 400.8,37.284 428.202,37.284 C455.605,37.284 477.819,39.788 477.819,42.877 C477.819,45.967 455.605,48.471 428.202,48.471 z" fill="#FFFFFF"/>
      <path d="M428.202,48.471 C400.8,48.471 378.586,45.967 378.586,42.877 C378.586,39.788 400.8,37.284 428.202,37.284 C455.605,37.284 477.819,39.788 477.819,42.877 C477.819,45.967 455.605,48.471 428.202,48.471 z" fill-opacity="0" stroke="#6CB33E" stroke-width="2"/>
    </g>
    <g>
      <path d="M428.202,132.359 C400.8,132.359 378.586,129.855 378.586,126.766 C378.586,123.676 400.8,121.172 428.202,121.172 C455.605,121.172 477.819,123.676 477.819,126.766 C477.819,129.855 455.605,132.359 428.202,132.359 z" fill="#FFFFFF"/>
      <path d="M428.202,132.359 C400.8,132.359 378.586,129.855 378.586,126.766 C378.586,123.676 400.8,121.172 428.202,121.172 C455.605,121.172 477.819,123.676 477.819,126.766 C477.819,129.855 455.605,132.359 428.202,132.359 z" fill-opacity="0" stroke="#6CB33E" stroke-width="2"/>
    </g>
    <g>
      <path d="M584,62 L584,62" fill="#FFFFFF"/>
      <path d="M583.999,62.001 L583.999,62.001 L583.999,62.001 C584,62.001 584.001,62.001 584.001,62 C584.001,61.999 584.001,61.999 584.001,61.999 L584.001,61.999 C584.001,61.999 584.001,61.999 584.001,61.999 C584,61.999 583.999,61.999 583.999,62 C583.999,62.001 583.999,62.001 583.999,62.001 L583.999,62.001" fill="#6CB33E"/>
    </g>
    <path d="M428.202,128.172 C400.8,128.172 378.586,126.515 378.586,124.471 C378.586,122.426 400.8,120.769 428.202,120.769 C455.605,120.769 477.819,122.426 477.819,124.471 C477.819,126.515 455.605,128.172 428.202,128.172 z" fill="#FFFFFF"/>
    <path d="M231,68 L231,68" fill="url(#Gradient_1)"/>
  </g>
</svg>
