<svg width="258" height="258" viewBox="0 0 258 258" fill="none" xmlns="http://www.w3.org/2000/svg">
<g clip-path="url(#clip0_9078_2923)">
<path d="M64.5 225.75C64.4974 217.198 61.0987 208.996 55.0513 202.949C49.0038 196.901 40.8024 193.503 32.25 193.5C23.6976 193.497 15.4962 190.099 9.44873 184.051C3.40126 178.004 0.00265068 169.802 0 161.25V64.5C0 47.3935 6.79551 30.9877 18.8916 18.8916C30.9877 6.79552 47.3935 0 64.5 0C81.6065 0 98.0123 6.79552 110.108 18.8916C122.204 30.9877 129 47.3935 129 64.5C129.008 81.604 135.806 98.0052 147.9 110.1C159.995 122.194 176.396 128.992 193.5 129C210.606 129 227.012 135.796 239.108 147.892C251.204 159.988 258 176.394 258 193.5C258 210.606 251.204 227.012 239.108 239.108C227.012 251.204 210.606 258 193.5 258H96.75C88.1976 257.997 79.9962 254.599 73.9487 248.551C67.9013 242.504 64.5026 234.302 64.5 225.75Z" fill="#F9EBFF"/>
<path d="M187.39 112.23C186.48 112.23 185.58 112.23 184.68 112.23C182.673 99.7727 176.357 88.4152 166.834 80.1375C157.311 71.8597 145.184 67.1867 132.569 66.9332C119.954 66.6797 107.65 70.8618 97.8017 78.7503C87.9537 86.6388 81.1867 97.7334 78.6803 110.1C67.9741 111.076 57.9402 115.744 50.2965 123.303C42.6528 130.863 37.8748 140.845 36.7803 151.54C30.4741 152.304 24.6909 155.427 20.5934 160.281C16.4959 165.135 14.3879 171.36 14.6931 177.705C14.9984 184.05 17.6944 190.045 22.239 194.483C26.7836 198.921 32.8399 201.475 39.1903 201.63L185.3 204.87C191.384 205.004 197.436 203.939 203.108 201.735C208.781 199.531 213.963 196.232 218.361 192.025C222.758 187.818 226.284 182.786 228.736 177.217C231.189 171.647 232.521 165.649 232.655 159.565C232.79 153.481 231.725 147.43 229.521 141.757C227.317 136.085 224.017 130.902 219.81 126.504C215.603 122.107 210.572 118.581 205.002 116.129C199.433 113.676 193.434 112.344 187.35 112.21L187.39 112.23Z" fill="black" stroke="black" stroke-miterlimit="10"/>
<path d="M187.65 100.49C186.74 100.49 185.84 100.49 184.94 100.49C182.932 88.0329 176.616 76.6755 167.093 68.3977C157.57 60.12 145.444 55.447 132.829 55.1935C120.213 54.94 107.909 59.122 98.0612 67.0106C88.2132 74.8991 81.4462 85.9936 78.9398 98.3601C68.2351 99.336 58.2025 104.002 50.559 111.56C42.9155 119.118 38.1364 129.097 37.0398 139.79C30.7194 140.538 24.9179 143.655 20.8057 148.513C16.6935 153.37 14.5768 159.607 14.8826 165.964C15.1884 172.321 17.8939 178.326 22.4534 182.766C27.0129 187.207 33.0868 189.752 39.4498 189.89L185.56 193.12C191.694 193.335 197.81 192.33 203.552 190.162C209.295 187.993 214.549 184.706 219.01 180.491C223.472 176.275 227.051 171.215 229.541 165.605C232.031 159.994 233.381 153.945 233.513 147.809C233.646 141.672 232.558 135.57 230.313 129.858C228.067 124.145 224.71 118.935 220.434 114.531C216.159 110.127 211.051 106.616 205.408 104.202C199.764 101.788 193.698 100.52 187.56 100.47L187.65 100.49Z" fill="white" stroke="black" stroke-miterlimit="10"/>
<path d="M130.59 203.72C130.573 203.541 130.54 203.363 130.49 203.19C130.49 203.19 130.53 203.37 130.59 203.72Z" fill="#001F2C"/>
<path d="M185.101 206.54C187.461 217.67 167.041 231.44 139.481 237.3C111.921 243.16 87.6505 238.88 85.2905 227.76L80.5605 205.5L180.371 184.28L185.101 206.54Z" fill="black" stroke="black" stroke-miterlimit="10"/>
<path d="M183.56 199.3C185.93 210.43 165.5 224.2 137.94 230.06C110.38 235.92 86.11 231.65 83.75 220.52L79 198.26L178.83 177L183.56 199.3Z" fill="#00ED64" stroke="black" stroke-miterlimit="10"/>
<path d="M180.82 186.4C183.18 197.52 162.76 211.29 135.19 217.15C107.62 223.01 83.3695 218.74 81.0095 207.61L76.2695 185.35L176.09 164.14L180.82 186.4Z" fill="#00ED64" stroke="black" stroke-miterlimit="10"/>
<path d="M130.459 194.888C158.021 189.03 178.447 175.259 176.081 164.131C173.716 153.002 149.455 148.73 121.893 154.589C94.3315 160.447 73.9058 174.218 76.2713 185.346C78.6367 196.475 102.898 200.747 130.459 194.888Z" fill="white" stroke="black" stroke-miterlimit="10"/>
<path d="M130.35 181.59C129.513 181.886 128.658 182.126 127.79 182.31C122.79 183.36 118.41 182.49 117.96 180.38L117.23 176.97L117.17 176.64C120.17 176.24 123.17 175.71 126.26 175.05L127.47 174.79C128.07 174.663 128.66 174.523 129.24 174.37L128.83 174.48L130.35 181.59Z" fill="#B1FF05" stroke="black" stroke-miterlimit="10"/>
<path d="M136 176.94C136.014 177.056 136.014 177.174 136 177.29C135.984 177.368 135.964 177.445 135.94 177.52C135.718 178.072 135.377 178.567 134.94 178.97C134.864 179.057 134.78 179.138 134.69 179.21L134.17 179.63L133.7 179.95C133.61 180 133.54 180.06 133.45 180.1C133.36 180.14 133.29 180.2 133.21 180.25L132.71 180.52L132.35 180.71C132.22 180.77 132.09 180.82 131.97 180.89L131.73 181L131.42 181.15L131.03 181.31L130.73 181.43L130.42 181.54H130.36L128.84 174.46L129.25 174.35L129.51 174.29C131.46 173.83 133.37 173.29 135.22 172.79C135.22 172.79 135.22 172.88 135.28 173.11C135.37 173.57 135.58 174.59 136 176.52C136.016 176.66 136.016 176.801 136 176.94Z" fill="black" stroke="black" stroke-miterlimit="10"/>
<path d="M171.801 144C174.171 155.13 153.741 168.9 126.181 174.75C98.6209 180.6 74.3609 176.34 71.9909 165.21L66.2109 138L166.001 116.77L171.801 144Z" fill="#00ED64" stroke="black" stroke-miterlimit="10"/>
<path d="M167.621 124.32C169.991 135.45 149.561 149.22 122.001 155.08C94.4408 160.94 70.1808 156.67 67.8108 145.54L63.3008 124.33L163.121 103.11L167.621 124.32Z" fill="#00ED64" stroke="black" stroke-miterlimit="10"/>
<path d="M117.494 133.868C145.056 128.01 165.482 114.239 163.117 103.111C160.751 91.9823 136.49 87.7102 108.929 93.5686C81.3667 99.4271 60.941 113.198 63.3064 124.326C65.6718 135.455 89.9327 139.727 117.494 133.868Z" fill="white" stroke="black" stroke-miterlimit="10"/>
<path d="M158.83 83C161.2 94.13 140.77 107.9 113.21 113.76C85.6502 119.62 61.3902 115.35 59.0202 104.22L53.2402 77L153.05 55.79L158.83 83Z" fill="#00ED64" stroke="black" stroke-miterlimit="10"/>
<path d="M154.43 62.2398C156.79 73.3598 136.36 87.1298 108.8 92.9898C81.2401 98.8498 56.9801 94.5798 54.6101 83.4498L50.3301 63.2998L150.14 42.0898L154.43 62.2398Z" fill="#00ED64" stroke="black" stroke-miterlimit="10"/>
<path d="M93.8098 155.14C93.7872 155.061 93.7705 154.981 93.7598 154.9C93.7862 154.978 93.803 155.058 93.8098 155.14Z" fill="#001F2C" stroke="black" stroke-miterlimit="10"/>
<path d="M117.311 120.25C116.476 120.551 115.621 120.792 114.751 120.97C109.751 122.02 105.371 121.15 104.921 119.05L104.191 115.64L104.131 115.3C107.131 114.91 110.131 114.37 113.221 113.72L114.431 113.46L116.211 113.03L115.801 113.15L117.311 120.25Z" fill="#B1FF05" stroke="black" stroke-miterlimit="10"/>
<path d="M123 115.6C123.015 115.716 123.015 115.834 123 115.95C122.989 116.029 122.969 116.106 122.94 116.18C122.722 116.734 122.38 117.23 121.94 117.63C121.868 117.718 121.787 117.798 121.7 117.87L121.17 118.29L120.7 118.61C120.624 118.667 120.544 118.717 120.46 118.76L120.21 118.91L119.71 119.18L119.35 119.37L118.96 119.55C118.887 119.595 118.81 119.632 118.73 119.66L118.42 119.81L118.02 119.97L117.72 120.09L117.41 120.21H117.35L115.84 113.13L116.25 113.01L116.51 112.95C118.45 112.49 120.36 111.95 122.21 111.45C122.21 111.45 122.21 111.54 122.27 111.77C122.36 112.23 122.57 113.25 122.99 115.18C123.009 115.319 123.013 115.46 123 115.6Z" fill="black" stroke="black" stroke-miterlimit="10"/>
<path d="M153.051 55.7498L150.141 42.0898C151.471 48.3298 145.631 55.3898 135.391 61.4298L144.081 102.3C154.321 96.2998 160.161 89.1998 158.831 82.9598L153.051 55.7498Z" fill="black" stroke="black" stroke-miterlimit="10"/>
<path d="M104.522 72.8483C132.084 66.9898 152.509 53.2192 150.144 42.0908C147.779 30.9623 123.518 26.6901 95.9559 32.5486C68.3941 38.407 47.9683 52.1776 50.3338 63.3061C52.6992 74.4345 76.96 78.7067 104.522 72.8483Z" fill="#B1FF05" stroke="black" stroke-miterlimit="10"/>
<path d="M163.121 103.11C164.451 109.35 158.611 116.41 148.381 122.45L157.061 163.33C167.301 157.33 173.141 150.23 171.811 143.99L166.001 116.77L163.121 103.11Z" fill="black" stroke="black" stroke-miterlimit="10"/>
<path d="M178.83 177L176.09 164.1C177.41 170.33 171.57 177.4 161.34 183.44L170.34 225.84C180.58 219.84 186.41 212.74 185.09 206.5L180.36 184.24L178.83 177Z" fill="black" stroke="black" stroke-miterlimit="10"/>
</g>
<defs>
<clipPath id="clip0_9078_2923">
<rect width="258" height="258" fill="white"/>
</clipPath>
</defs>
</svg>
