<?xml version="1.0" encoding="UTF-8"?>
<!DOCTYPE svg PUBLIC "-//W3C//DTD SVG 1.1//EN" "http://www.w3.org/Graphics/SVG/1.1/DTD/svg11.dtd">
<svg version="1.1" xmlns="http://www.w3.org/2000/svg" xmlns:xlink="http://www.w3.org/1999/xlink" x="0" y="0" width="230" height="288" viewBox="0, 0, 230, 288">
  <g id="Snapshot_Primary">
    <g>
      <path d="M97.5,60.5 L121.7,60.5" fill-opacity="0" stroke="#212121" stroke-width="2" stroke-dasharray="6,4"/>
      <path d="M121.7,64.1 L131.3,60.5 L121.7,56.9 z" fill="#212121" fill-opacity="1" stroke="#212121" stroke-width="2" stroke-opacity="1"/>
    </g>
    <g id="Primary">
      <text transform="matrix(1, 0, 0, 1, 49, 38.682)">
        <tspan x="-5.625" y="5.545" font-family="Euclid Circular A" font-size="18" fill="#212121">P</tspan>
      </text>
      <path d="M49,24.125 C39.419,24.125 30.755,25.292 24.316,27.287 C21.097,28.285 18.445,29.483 16.441,30.956 C14.437,32.429 13,34.335 13,36.534 L13,95.716 C13,97.915 14.437,99.791 16.441,101.264 C18.445,102.737 21.097,103.936 24.316,104.933 C30.755,106.929 39.419,108.125 49,108.125 C58.581,108.125 67.245,106.929 73.684,104.933 C76.903,103.936 79.555,102.737 81.559,101.264 C83.563,99.791 85,97.915 85,95.716 L85,36.534 C85,34.335 83.563,32.429 81.559,30.956 C79.555,29.483 76.903,28.285 73.684,27.287 C67.245,25.292 58.581,24.125 49,24.125 z M49,27.943 C58.19,27.943 66.484,29.096 72.294,30.896 C75.199,31.797 77.462,32.868 78.879,33.909 C80.295,34.95 80.765,35.825 80.765,36.534 C80.765,37.243 80.295,38.088 78.879,39.129 C77.462,40.17 75.199,41.242 72.294,42.142 C66.484,43.942 58.19,45.125 49,45.125 C39.81,45.125 31.516,43.942 25.706,42.142 C22.801,41.242 20.538,40.17 19.121,39.129 C17.705,38.088 17.235,37.243 17.235,36.534 C17.235,35.825 17.705,34.95 19.121,33.909 C20.538,32.868 22.801,31.797 25.706,30.896 C31.516,29.096 39.81,27.943 49,27.943 z M17.235,42.619 C19.129,43.849 21.499,44.878 24.316,45.751 C30.755,47.747 39.419,48.943 49,48.943 C58.581,48.943 67.245,47.747 73.684,45.751 C76.501,44.878 78.871,43.849 80.765,42.619 L80.765,56.401 C80.762,56.46 80.762,56.52 80.765,56.58 C80.765,57.289 80.295,58.134 78.879,59.175 C77.462,60.216 75.199,61.287 72.294,62.188 C66.484,63.988 58.19,65.17 49,65.17 C39.81,65.17 31.516,63.988 25.706,62.188 C22.801,61.287 20.538,60.216 19.121,59.175 C17.705,58.134 17.235,57.289 17.235,56.58 C17.238,56.52 17.238,56.46 17.235,56.401 L17.235,42.619 z M17.235,62.695 C19.129,63.924 21.499,64.924 24.316,65.797 C30.755,67.792 39.419,68.989 49,68.989 C58.581,68.989 67.245,67.792 73.684,65.797 C76.501,64.924 78.871,63.924 80.765,62.695 L80.765,75.491 C80.762,75.551 80.762,75.611 80.765,75.67 C80.765,76.379 80.295,77.225 78.879,78.266 C77.462,79.307 75.199,80.378 72.294,81.278 C66.484,83.079 58.19,84.261 49,84.261 C39.81,84.261 31.516,83.079 25.706,81.278 C22.801,80.378 20.538,79.307 19.121,78.266 C17.705,77.225 17.235,76.379 17.235,75.67 C17.238,75.611 17.238,75.551 17.235,75.491 L17.235,62.695 z M17.235,81.786 C19.129,83.015 21.499,84.015 24.316,84.888 C30.755,86.883 39.419,88.08 49,88.08 C58.581,88.08 67.245,86.883 73.684,84.888 C76.501,84.015 78.871,83.015 80.765,81.786 L80.765,95.716 C80.765,96.425 80.295,97.27 78.879,98.311 C77.462,99.352 75.199,100.424 72.294,101.324 C66.484,103.124 58.19,104.307 49,104.307 C39.81,104.307 31.516,103.124 25.706,101.324 C22.801,100.424 20.538,99.352 19.121,98.311 C17.705,97.27 17.235,96.425 17.235,95.716 L17.235,81.786 z" fill="#69B241" id="Primary"/>
    </g>
    <g id="Snapshot">
      <text transform="matrix(1, 0, 0, 1, 181, 38.682)">
        <tspan x="-5.625" y="5.545" font-family="Euclid Circular A" font-size="18" fill="#424243">P</tspan>
      </text>
      <path d="M181,24.125 C171.419,24.125 162.755,25.292 156.316,27.287 C153.097,28.285 150.445,29.483 148.441,30.956 C146.437,32.429 145,34.335 145,36.534 L145,95.716 C145,97.915 146.437,99.791 148.441,101.264 C150.445,102.737 153.097,103.936 156.316,104.933 C162.755,106.929 171.419,108.125 181,108.125 C190.581,108.125 199.245,106.929 205.684,104.933 C208.903,103.936 211.555,102.737 213.559,101.264 C215.563,99.791 217,97.915 217,95.716 L217,36.534 C217,34.335 215.563,32.429 213.559,30.956 C211.555,29.483 208.903,28.285 205.684,27.287 C199.245,25.292 190.581,24.125 181,24.125 z M181,27.943 C190.19,27.943 198.484,29.096 204.294,30.896 C207.199,31.797 209.462,32.868 210.879,33.909 C212.295,34.95 212.765,35.825 212.765,36.534 C212.765,37.243 212.295,38.088 210.879,39.129 C209.462,40.17 207.199,41.242 204.294,42.142 C198.484,43.942 190.19,45.125 181,45.125 C171.81,45.125 163.516,43.942 157.706,42.142 C154.801,41.242 152.538,40.17 151.121,39.129 C149.705,38.088 149.235,37.243 149.235,36.534 C149.235,35.825 149.705,34.95 151.121,33.909 C152.538,32.868 154.801,31.797 157.706,30.896 C163.516,29.096 171.81,27.943 181,27.943 z M149.235,42.619 C151.129,43.849 153.499,44.878 156.316,45.751 C162.755,47.747 171.419,48.943 181,48.943 C190.581,48.943 199.245,47.747 205.684,45.751 C208.501,44.878 210.871,43.849 212.765,42.619 L212.765,56.401 C212.762,56.46 212.762,56.52 212.765,56.58 C212.765,57.289 212.295,58.134 210.879,59.175 C209.462,60.216 207.199,61.287 204.294,62.188 C198.484,63.988 190.19,65.17 181,65.17 C171.81,65.17 163.516,63.988 157.706,62.188 C154.801,61.287 152.538,60.216 151.121,59.175 C149.705,58.134 149.235,57.289 149.235,56.58 C149.238,56.52 149.238,56.46 149.235,56.401 L149.235,42.619 z M149.235,62.695 C151.129,63.924 153.499,64.924 156.316,65.797 C162.755,67.792 171.419,68.989 181,68.989 C190.581,68.989 199.245,67.792 205.684,65.797 C208.501,64.924 210.871,63.924 212.765,62.695 L212.765,75.491 C212.762,75.551 212.762,75.611 212.765,75.67 C212.765,76.379 212.295,77.225 210.879,78.266 C209.462,79.307 207.199,80.378 204.294,81.278 C198.484,83.079 190.19,84.261 181,84.261 C171.81,84.261 163.516,83.079 157.706,81.278 C154.801,80.378 152.538,79.307 151.121,78.266 C149.705,77.225 149.235,76.379 149.235,75.67 C149.238,75.611 149.238,75.551 149.235,75.491 L149.235,62.695 z M149.235,81.786 C151.129,83.015 153.499,84.015 156.316,84.888 C162.755,86.883 171.419,88.08 181,88.08 C190.581,88.08 199.245,86.883 205.684,84.888 C208.501,84.015 210.871,83.015 212.765,81.786 L212.765,95.716 C212.765,96.425 212.295,97.27 210.879,98.311 C209.462,99.352 207.199,100.424 204.294,101.324 C198.484,103.124 190.19,104.307 181,104.307 C171.81,104.307 163.516,103.124 157.706,101.324 C154.801,100.424 152.538,99.352 151.121,98.311 C149.705,97.27 149.235,96.425 149.235,95.716 L149.235,81.786 z" fill="#C2E0B4" id="Snapshot"/>
    </g>
    <g id="Secondary1">
      <text transform="matrix(1, 0, 0, 1, 49, 182.557)">
        <tspan x="-6.003" y="5.545" font-family="Euclid Circular A" font-size="18" fill="#212121">S</tspan>
      </text>
      <path d="M49,168 C39.419,168 30.755,169.167 24.316,171.162 C21.097,172.16 18.445,173.358 16.441,174.831 C14.437,176.304 13,178.21 13,180.409 L13,239.591 C13,241.79 14.437,243.666 16.441,245.139 C18.445,246.612 21.097,247.811 24.316,248.808 C30.755,250.804 39.419,252 49,252 C58.581,252 67.245,250.804 73.684,248.808 C76.903,247.811 79.555,246.612 81.559,245.139 C83.563,243.666 85,241.79 85,239.591 L85,180.409 C85,178.21 83.563,176.304 81.559,174.831 C79.555,173.358 76.903,172.16 73.684,171.162 C67.245,169.167 58.581,168 49,168 z M49,171.818 C58.19,171.818 66.484,172.971 72.294,174.771 C75.199,175.672 77.462,176.743 78.879,177.784 C80.295,178.825 80.765,179.7 80.765,180.409 C80.765,181.118 80.295,181.963 78.879,183.004 C77.462,184.045 75.199,185.117 72.294,186.017 C66.484,187.817 58.19,189 49,189 C39.81,189 31.516,187.817 25.706,186.017 C22.801,185.117 20.538,184.045 19.121,183.004 C17.705,181.963 17.235,181.118 17.235,180.409 C17.235,179.7 17.705,178.825 19.121,177.784 C20.538,176.743 22.801,175.672 25.706,174.771 C31.516,172.971 39.81,171.818 49,171.818 z M17.235,186.494 C19.129,187.724 21.499,188.753 24.316,189.626 C30.755,191.622 39.419,192.818 49,192.818 C58.581,192.818 67.245,191.622 73.684,189.626 C76.501,188.753 78.871,187.724 80.765,186.494 L80.765,200.276 C80.762,200.335 80.762,200.395 80.765,200.455 C80.765,201.164 80.295,202.009 78.879,203.05 C77.462,204.091 75.199,205.162 72.294,206.062 C66.484,207.863 58.19,209.045 49,209.045 C39.81,209.045 31.516,207.863 25.706,206.062 C22.801,205.162 20.538,204.091 19.121,203.05 C17.705,202.009 17.235,201.164 17.235,200.455 C17.238,200.395 17.238,200.335 17.235,200.276 L17.235,186.494 z M17.235,206.57 C19.129,207.799 21.499,208.799 24.316,209.672 C30.755,211.667 39.419,212.864 49,212.864 C58.581,212.864 67.245,211.667 73.684,209.672 C76.501,208.799 78.871,207.799 80.765,206.57 L80.765,219.366 C80.762,219.426 80.762,219.486 80.765,219.545 C80.765,220.254 80.295,221.1 78.879,222.141 C77.462,223.182 75.199,224.253 72.294,225.153 C66.484,226.954 58.19,228.136 49,228.136 C39.81,228.136 31.516,226.954 25.706,225.153 C22.801,224.253 20.538,223.182 19.121,222.141 C17.705,221.1 17.235,220.254 17.235,219.545 C17.238,219.486 17.238,219.426 17.235,219.366 L17.235,206.57 z M17.235,225.661 C19.129,226.89 21.499,227.89 24.316,228.763 C30.755,230.758 39.419,231.955 49,231.955 C58.581,231.955 67.245,230.758 73.684,228.763 C76.501,227.89 78.871,226.89 80.765,225.661 L80.765,239.591 C80.765,240.3 80.295,241.145 78.879,242.186 C77.462,243.227 75.199,244.299 72.294,245.199 C66.484,246.999 58.19,248.182 49,248.182 C39.81,248.182 31.516,246.999 25.706,245.199 C22.801,244.299 20.538,243.227 19.121,242.186 C17.705,241.145 17.235,240.3 17.235,239.591 L17.235,225.661 z" fill="#69B241" id="Secondary"/>
    </g>
    <g id="Secondary2">
      <text transform="matrix(1, 0, 0, 1, 181, 182.557)">
        <tspan x="-6.003" y="5.545" font-family="Euclid Circular A" font-size="18" fill="#212121">S</tspan>
      </text>
      <path d="M181,168 C171.419,168 162.755,169.167 156.316,171.162 C153.097,172.16 150.445,173.358 148.441,174.831 C146.437,176.304 145,178.21 145,180.409 L145,239.591 C145,241.79 146.437,243.666 148.441,245.139 C150.445,246.612 153.097,247.811 156.316,248.808 C162.755,250.804 171.419,252 181,252 C190.581,252 199.245,250.804 205.684,248.808 C208.903,247.811 211.555,246.612 213.559,245.139 C215.563,243.666 217,241.79 217,239.591 L217,180.409 C217,178.21 215.563,176.304 213.559,174.831 C211.555,173.358 208.903,172.16 205.684,171.162 C199.245,169.167 190.581,168 181,168 z M181,171.818 C190.19,171.818 198.484,172.971 204.294,174.771 C207.199,175.672 209.462,176.743 210.879,177.784 C212.295,178.825 212.765,179.7 212.765,180.409 C212.765,181.118 212.295,181.963 210.879,183.004 C209.462,184.045 207.199,185.117 204.294,186.017 C198.484,187.817 190.19,189 181,189 C171.81,189 163.516,187.817 157.706,186.017 C154.801,185.117 152.538,184.045 151.121,183.004 C149.705,181.963 149.235,181.118 149.235,180.409 C149.235,179.7 149.705,178.825 151.121,177.784 C152.538,176.743 154.801,175.672 157.706,174.771 C163.516,172.971 171.81,171.818 181,171.818 z M149.235,186.494 C151.129,187.724 153.499,188.753 156.316,189.626 C162.755,191.622 171.419,192.818 181,192.818 C190.581,192.818 199.245,191.622 205.684,189.626 C208.501,188.753 210.871,187.724 212.765,186.494 L212.765,200.276 C212.762,200.335 212.762,200.395 212.765,200.455 C212.765,201.164 212.295,202.009 210.879,203.05 C209.462,204.091 207.199,205.162 204.294,206.062 C198.484,207.863 190.19,209.045 181,209.045 C171.81,209.045 163.516,207.863 157.706,206.062 C154.801,205.162 152.538,204.091 151.121,203.05 C149.705,202.009 149.235,201.164 149.235,200.455 C149.238,200.395 149.238,200.335 149.235,200.276 L149.235,186.494 z M149.235,206.57 C151.129,207.799 153.499,208.799 156.316,209.672 C162.755,211.667 171.419,212.864 181,212.864 C190.581,212.864 199.245,211.667 205.684,209.672 C208.501,208.799 210.871,207.799 212.765,206.57 L212.765,219.366 C212.762,219.426 212.762,219.486 212.765,219.545 C212.765,220.254 212.295,221.1 210.879,222.141 C209.462,223.182 207.199,224.253 204.294,225.153 C198.484,226.954 190.19,228.136 181,228.136 C171.81,228.136 163.516,226.954 157.706,225.153 C154.801,224.253 152.538,223.182 151.121,222.141 C149.705,221.1 149.235,220.254 149.235,219.545 C149.238,219.486 149.238,219.426 149.235,219.366 L149.235,206.57 z M149.235,225.661 C151.129,226.89 153.499,227.89 156.316,228.763 C162.755,230.758 171.419,231.955 181,231.955 C190.581,231.955 199.245,230.758 205.684,228.763 C208.501,227.89 210.871,226.89 212.765,225.661 L212.765,239.591 C212.765,240.3 212.295,241.145 210.879,242.186 C209.462,243.227 207.199,244.299 204.294,245.199 C198.484,246.999 190.19,248.182 181,248.182 C171.81,248.182 163.516,246.999 157.706,245.199 C154.801,244.299 152.538,243.227 151.121,242.186 C149.705,241.145 149.235,240.3 149.235,239.591 L149.235,225.661 z" fill="#69B241" id="Secondary"/>
    </g>
    <g id="Region_3">
      <path d="M145.5,156.5 L217.5,156.5 C224.127,156.5 229.5,161.873 229.5,168.5 L229.5,252.5 C229.5,259.127 224.127,264.5 217.5,264.5 L145.5,264.5 C138.873,264.5 133.5,259.127 133.5,252.5 L133.5,168.5 C133.5,161.873 138.873,156.5 145.5,156.5 z" fill-opacity="0" stroke="#212121" stroke-width="2"/>
      <text transform="matrix(1, 0, 0, 1, 181, 270)">
        <tspan x="-19.375" y="3" font-family="Euclid Circular A" font-size="10" fill="#000000">Region 3</tspan>
      </text>
    </g>
    <g id="Region_2">
      <path d="M13.5,156.5 L85.5,156.5 C92.127,156.5 97.5,161.873 97.5,168.5 L97.5,252.5 C97.5,259.127 92.127,264.5 85.5,264.5 L13.5,264.5 C6.873,264.5 1.5,259.127 1.5,252.5 L1.5,168.5 C1.5,161.873 6.873,156.5 13.5,156.5 z" fill-opacity="0" stroke="#212121" stroke-width="2"/>
      <text transform="matrix(1, 0, 0, 1, 49, 270)">
        <tspan x="-19.375" y="3" font-family="Euclid Circular A" font-size="10" fill="#000000">Region 2</tspan>
      </text>
    </g>
    <g id="Region_1">
      <path d="M12.357,12.5 L218.643,12.5 C224.639,12.5 229.5,17.873 229.5,24.5 L229.5,108.5 C229.5,115.127 224.639,120.5 218.643,120.5 L12.357,120.5 C6.361,120.5 1.5,115.127 1.5,108.5 L1.5,24.5 C1.5,17.873 6.361,12.5 12.357,12.5 z" fill-opacity="0" stroke="#212121" stroke-width="2"/>
      <text transform="matrix(1, 0, 0, 1, 115, 126)">
        <tspan x="-19.375" y="3" font-family="Euclid Circular A" font-size="10" fill="#000000">Region 1</tspan>
      </text>
    </g>
  </g>
  <g id="Snapshot_Secondary" display="none">
    <g>
      <path d="M97.5,60.5 L121.7,60.5" fill-opacity="0" stroke="#212121" stroke-width="2" stroke-dasharray="6,4"/>
      <path d="M121.7,64.1 L131.3,60.5 L121.7,56.9 z" fill="#212121" fill-opacity="1" stroke="#212121" stroke-width="2" stroke-opacity="1"/>
    </g>
    <g id="Primary">
      <text transform="matrix(1, 0, 0, 1, 49, 38.682)">
        <tspan x="-6.003" y="5.545" font-family="Euclid Circular A" font-size="18" fill="#212121">S</tspan>
      </text>
      <path d="M49,24.125 C39.419,24.125 30.755,25.292 24.316,27.287 C21.097,28.285 18.445,29.483 16.441,30.956 C14.437,32.429 13,34.335 13,36.534 L13,95.716 C13,97.915 14.437,99.791 16.441,101.264 C18.445,102.737 21.097,103.936 24.316,104.933 C30.755,106.929 39.419,108.125 49,108.125 C58.581,108.125 67.245,106.929 73.684,104.933 C76.903,103.936 79.555,102.737 81.559,101.264 C83.563,99.791 85,97.915 85,95.716 L85,36.534 C85,34.335 83.563,32.429 81.559,30.956 C79.555,29.483 76.903,28.285 73.684,27.287 C67.245,25.292 58.581,24.125 49,24.125 z M49,27.943 C58.19,27.943 66.484,29.096 72.294,30.896 C75.199,31.797 77.462,32.868 78.879,33.909 C80.295,34.95 80.765,35.825 80.765,36.534 C80.765,37.243 80.295,38.088 78.879,39.129 C77.462,40.17 75.199,41.242 72.294,42.142 C66.484,43.942 58.19,45.125 49,45.125 C39.81,45.125 31.516,43.942 25.706,42.142 C22.801,41.242 20.538,40.17 19.121,39.129 C17.705,38.088 17.235,37.243 17.235,36.534 C17.235,35.825 17.705,34.95 19.121,33.909 C20.538,32.868 22.801,31.797 25.706,30.896 C31.516,29.096 39.81,27.943 49,27.943 z M17.235,42.619 C19.129,43.849 21.499,44.878 24.316,45.751 C30.755,47.747 39.419,48.943 49,48.943 C58.581,48.943 67.245,47.747 73.684,45.751 C76.501,44.878 78.871,43.849 80.765,42.619 L80.765,56.401 C80.762,56.46 80.762,56.52 80.765,56.58 C80.765,57.289 80.295,58.134 78.879,59.175 C77.462,60.216 75.199,61.287 72.294,62.188 C66.484,63.988 58.19,65.17 49,65.17 C39.81,65.17 31.516,63.988 25.706,62.188 C22.801,61.287 20.538,60.216 19.121,59.175 C17.705,58.134 17.235,57.289 17.235,56.58 C17.238,56.52 17.238,56.46 17.235,56.401 L17.235,42.619 z M17.235,62.695 C19.129,63.924 21.499,64.924 24.316,65.797 C30.755,67.792 39.419,68.989 49,68.989 C58.581,68.989 67.245,67.792 73.684,65.797 C76.501,64.924 78.871,63.924 80.765,62.695 L80.765,75.491 C80.762,75.551 80.762,75.611 80.765,75.67 C80.765,76.379 80.295,77.225 78.879,78.266 C77.462,79.307 75.199,80.378 72.294,81.278 C66.484,83.079 58.19,84.261 49,84.261 C39.81,84.261 31.516,83.079 25.706,81.278 C22.801,80.378 20.538,79.307 19.121,78.266 C17.705,77.225 17.235,76.379 17.235,75.67 C17.238,75.611 17.238,75.551 17.235,75.491 L17.235,62.695 z M17.235,81.786 C19.129,83.015 21.499,84.015 24.316,84.888 C30.755,86.883 39.419,88.08 49,88.08 C58.581,88.08 67.245,86.883 73.684,84.888 C76.501,84.015 78.871,83.015 80.765,81.786 L80.765,95.716 C80.765,96.425 80.295,97.27 78.879,98.311 C77.462,99.352 75.199,100.424 72.294,101.324 C66.484,103.124 58.19,104.307 49,104.307 C39.81,104.307 31.516,103.124 25.706,101.324 C22.801,100.424 20.538,99.352 19.121,98.311 C17.705,97.27 17.235,96.425 17.235,95.716 L17.235,81.786 z" fill="#69B241" id="Primary"/>
    </g>
    <g id="Snapshot">
      <text transform="matrix(1, 0, 0, 1, 181, 38.682)">
        <tspan x="-6.003" y="5.545" font-family="Euclid Circular A" font-size="18" fill="#424243">S</tspan>
      </text>
      <path d="M181,24.125 C171.419,24.125 162.755,25.292 156.316,27.287 C153.097,28.285 150.445,29.483 148.441,30.956 C146.437,32.429 145,34.335 145,36.534 L145,95.716 C145,97.915 146.437,99.791 148.441,101.264 C150.445,102.737 153.097,103.936 156.316,104.933 C162.755,106.929 171.419,108.125 181,108.125 C190.581,108.125 199.245,106.929 205.684,104.933 C208.903,103.936 211.555,102.737 213.559,101.264 C215.563,99.791 217,97.915 217,95.716 L217,36.534 C217,34.335 215.563,32.429 213.559,30.956 C211.555,29.483 208.903,28.285 205.684,27.287 C199.245,25.292 190.581,24.125 181,24.125 z M181,27.943 C190.19,27.943 198.484,29.096 204.294,30.896 C207.199,31.797 209.462,32.868 210.879,33.909 C212.295,34.95 212.765,35.825 212.765,36.534 C212.765,37.243 212.295,38.088 210.879,39.129 C209.462,40.17 207.199,41.242 204.294,42.142 C198.484,43.942 190.19,45.125 181,45.125 C171.81,45.125 163.516,43.942 157.706,42.142 C154.801,41.242 152.538,40.17 151.121,39.129 C149.705,38.088 149.235,37.243 149.235,36.534 C149.235,35.825 149.705,34.95 151.121,33.909 C152.538,32.868 154.801,31.797 157.706,30.896 C163.516,29.096 171.81,27.943 181,27.943 z M149.235,42.619 C151.129,43.849 153.499,44.878 156.316,45.751 C162.755,47.747 171.419,48.943 181,48.943 C190.581,48.943 199.245,47.747 205.684,45.751 C208.501,44.878 210.871,43.849 212.765,42.619 L212.765,56.401 C212.762,56.46 212.762,56.52 212.765,56.58 C212.765,57.289 212.295,58.134 210.879,59.175 C209.462,60.216 207.199,61.287 204.294,62.188 C198.484,63.988 190.19,65.17 181,65.17 C171.81,65.17 163.516,63.988 157.706,62.188 C154.801,61.287 152.538,60.216 151.121,59.175 C149.705,58.134 149.235,57.289 149.235,56.58 C149.238,56.52 149.238,56.46 149.235,56.401 L149.235,42.619 z M149.235,62.695 C151.129,63.924 153.499,64.924 156.316,65.797 C162.755,67.792 171.419,68.989 181,68.989 C190.581,68.989 199.245,67.792 205.684,65.797 C208.501,64.924 210.871,63.924 212.765,62.695 L212.765,75.491 C212.762,75.551 212.762,75.611 212.765,75.67 C212.765,76.379 212.295,77.225 210.879,78.266 C209.462,79.307 207.199,80.378 204.294,81.278 C198.484,83.079 190.19,84.261 181,84.261 C171.81,84.261 163.516,83.079 157.706,81.278 C154.801,80.378 152.538,79.307 151.121,78.266 C149.705,77.225 149.235,76.379 149.235,75.67 C149.238,75.611 149.238,75.551 149.235,75.491 L149.235,62.695 z M149.235,81.786 C151.129,83.015 153.499,84.015 156.316,84.888 C162.755,86.883 171.419,88.08 181,88.08 C190.581,88.08 199.245,86.883 205.684,84.888 C208.501,84.015 210.871,83.015 212.765,81.786 L212.765,95.716 C212.765,96.425 212.295,97.27 210.879,98.311 C209.462,99.352 207.199,100.424 204.294,101.324 C198.484,103.124 190.19,104.307 181,104.307 C171.81,104.307 163.516,103.124 157.706,101.324 C154.801,100.424 152.538,99.352 151.121,98.311 C149.705,97.27 149.235,96.425 149.235,95.716 L149.235,81.786 z" fill="#C2E0B4" id="Snapshot"/>
    </g>
    <g id="Secondary1">
      <text transform="matrix(1, 0, 0, 1, 49, 182.557)">
        <tspan x="-6.003" y="5.545" font-family="Euclid Circular A" font-size="18" fill="#212121">S</tspan>
      </text>
      <path d="M49,168 C39.419,168 30.755,169.167 24.316,171.162 C21.097,172.16 18.445,173.358 16.441,174.831 C14.437,176.304 13,178.21 13,180.409 L13,239.591 C13,241.79 14.437,243.666 16.441,245.139 C18.445,246.612 21.097,247.811 24.316,248.808 C30.755,250.804 39.419,252 49,252 C58.581,252 67.245,250.804 73.684,248.808 C76.903,247.811 79.555,246.612 81.559,245.139 C83.563,243.666 85,241.79 85,239.591 L85,180.409 C85,178.21 83.563,176.304 81.559,174.831 C79.555,173.358 76.903,172.16 73.684,171.162 C67.245,169.167 58.581,168 49,168 z M49,171.818 C58.19,171.818 66.484,172.971 72.294,174.771 C75.199,175.672 77.462,176.743 78.879,177.784 C80.295,178.825 80.765,179.7 80.765,180.409 C80.765,181.118 80.295,181.963 78.879,183.004 C77.462,184.045 75.199,185.117 72.294,186.017 C66.484,187.817 58.19,189 49,189 C39.81,189 31.516,187.817 25.706,186.017 C22.801,185.117 20.538,184.045 19.121,183.004 C17.705,181.963 17.235,181.118 17.235,180.409 C17.235,179.7 17.705,178.825 19.121,177.784 C20.538,176.743 22.801,175.672 25.706,174.771 C31.516,172.971 39.81,171.818 49,171.818 z M17.235,186.494 C19.129,187.724 21.499,188.753 24.316,189.626 C30.755,191.622 39.419,192.818 49,192.818 C58.581,192.818 67.245,191.622 73.684,189.626 C76.501,188.753 78.871,187.724 80.765,186.494 L80.765,200.276 C80.762,200.335 80.762,200.395 80.765,200.455 C80.765,201.164 80.295,202.009 78.879,203.05 C77.462,204.091 75.199,205.162 72.294,206.062 C66.484,207.863 58.19,209.045 49,209.045 C39.81,209.045 31.516,207.863 25.706,206.062 C22.801,205.162 20.538,204.091 19.121,203.05 C17.705,202.009 17.235,201.164 17.235,200.455 C17.238,200.395 17.238,200.335 17.235,200.276 L17.235,186.494 z M17.235,206.57 C19.129,207.799 21.499,208.799 24.316,209.672 C30.755,211.667 39.419,212.864 49,212.864 C58.581,212.864 67.245,211.667 73.684,209.672 C76.501,208.799 78.871,207.799 80.765,206.57 L80.765,219.366 C80.762,219.426 80.762,219.486 80.765,219.545 C80.765,220.254 80.295,221.1 78.879,222.141 C77.462,223.182 75.199,224.253 72.294,225.153 C66.484,226.954 58.19,228.136 49,228.136 C39.81,228.136 31.516,226.954 25.706,225.153 C22.801,224.253 20.538,223.182 19.121,222.141 C17.705,221.1 17.235,220.254 17.235,219.545 C17.238,219.486 17.238,219.426 17.235,219.366 L17.235,206.57 z M17.235,225.661 C19.129,226.89 21.499,227.89 24.316,228.763 C30.755,230.758 39.419,231.955 49,231.955 C58.581,231.955 67.245,230.758 73.684,228.763 C76.501,227.89 78.871,226.89 80.765,225.661 L80.765,239.591 C80.765,240.3 80.295,241.145 78.879,242.186 C77.462,243.227 75.199,244.299 72.294,245.199 C66.484,246.999 58.19,248.182 49,248.182 C39.81,248.182 31.516,246.999 25.706,245.199 C22.801,244.299 20.538,243.227 19.121,242.186 C17.705,241.145 17.235,240.3 17.235,239.591 L17.235,225.661 z" fill="#69B241" id="Secondary"/>
    </g>
    <g id="Secondary2">
      <text transform="matrix(1, 0, 0, 1, 181, 182.557)">
        <tspan x="-5.625" y="5.545" font-family="Euclid Circular A" font-size="18" fill="#212121">P</tspan>
      </text>
      <path d="M181,168 C171.419,168 162.755,169.167 156.316,171.162 C153.097,172.16 150.445,173.358 148.441,174.831 C146.437,176.304 145,178.21 145,180.409 L145,239.591 C145,241.79 146.437,243.666 148.441,245.139 C150.445,246.612 153.097,247.811 156.316,248.808 C162.755,250.804 171.419,252 181,252 C190.581,252 199.245,250.804 205.684,248.808 C208.903,247.811 211.555,246.612 213.559,245.139 C215.563,243.666 217,241.79 217,239.591 L217,180.409 C217,178.21 215.563,176.304 213.559,174.831 C211.555,173.358 208.903,172.16 205.684,171.162 C199.245,169.167 190.581,168 181,168 z M181,171.818 C190.19,171.818 198.484,172.971 204.294,174.771 C207.199,175.672 209.462,176.743 210.879,177.784 C212.295,178.825 212.765,179.7 212.765,180.409 C212.765,181.118 212.295,181.963 210.879,183.004 C209.462,184.045 207.199,185.117 204.294,186.017 C198.484,187.817 190.19,189 181,189 C171.81,189 163.516,187.817 157.706,186.017 C154.801,185.117 152.538,184.045 151.121,183.004 C149.705,181.963 149.235,181.118 149.235,180.409 C149.235,179.7 149.705,178.825 151.121,177.784 C152.538,176.743 154.801,175.672 157.706,174.771 C163.516,172.971 171.81,171.818 181,171.818 z M149.235,186.494 C151.129,187.724 153.499,188.753 156.316,189.626 C162.755,191.622 171.419,192.818 181,192.818 C190.581,192.818 199.245,191.622 205.684,189.626 C208.501,188.753 210.871,187.724 212.765,186.494 L212.765,200.276 C212.762,200.335 212.762,200.395 212.765,200.455 C212.765,201.164 212.295,202.009 210.879,203.05 C209.462,204.091 207.199,205.162 204.294,206.062 C198.484,207.863 190.19,209.045 181,209.045 C171.81,209.045 163.516,207.863 157.706,206.062 C154.801,205.162 152.538,204.091 151.121,203.05 C149.705,202.009 149.235,201.164 149.235,200.455 C149.238,200.395 149.238,200.335 149.235,200.276 L149.235,186.494 z M149.235,206.57 C151.129,207.799 153.499,208.799 156.316,209.672 C162.755,211.667 171.419,212.864 181,212.864 C190.581,212.864 199.245,211.667 205.684,209.672 C208.501,208.799 210.871,207.799 212.765,206.57 L212.765,219.366 C212.762,219.426 212.762,219.486 212.765,219.545 C212.765,220.254 212.295,221.1 210.879,222.141 C209.462,223.182 207.199,224.253 204.294,225.153 C198.484,226.954 190.19,228.136 181,228.136 C171.81,228.136 163.516,226.954 157.706,225.153 C154.801,224.253 152.538,223.182 151.121,222.141 C149.705,221.1 149.235,220.254 149.235,219.545 C149.238,219.486 149.238,219.426 149.235,219.366 L149.235,206.57 z M149.235,225.661 C151.129,226.89 153.499,227.89 156.316,228.763 C162.755,230.758 171.419,231.955 181,231.955 C190.581,231.955 199.245,230.758 205.684,228.763 C208.501,227.89 210.871,226.89 212.765,225.661 L212.765,239.591 C212.765,240.3 212.295,241.145 210.879,242.186 C209.462,243.227 207.199,244.299 204.294,245.199 C198.484,246.999 190.19,248.182 181,248.182 C171.81,248.182 163.516,246.999 157.706,245.199 C154.801,244.299 152.538,243.227 151.121,242.186 C149.705,241.145 149.235,240.3 149.235,239.591 L149.235,225.661 z" fill="#69B241" id="Secondary"/>
    </g>
    <g id="Region_3">
      <path d="M145.5,156.5 L217.5,156.5 C224.127,156.5 229.5,161.873 229.5,168.5 L229.5,252.5 C229.5,259.127 224.127,264.5 217.5,264.5 L145.5,264.5 C138.873,264.5 133.5,259.127 133.5,252.5 L133.5,168.5 C133.5,161.873 138.873,156.5 145.5,156.5 z" fill-opacity="0" stroke="#212121" stroke-width="2"/>
      <text transform="matrix(1, 0, 0, 1, 181, 270)">
        <tspan x="-19.375" y="3" font-family="Euclid Circular A" font-size="10" fill="#000000">Region 3</tspan>
      </text>
    </g>
    <g id="Region_2">
      <path d="M13.5,156.5 L85.5,156.5 C92.127,156.5 97.5,161.873 97.5,168.5 L97.5,252.5 C97.5,259.127 92.127,264.5 85.5,264.5 L13.5,264.5 C6.873,264.5 1.5,259.127 1.5,252.5 L1.5,168.5 C1.5,161.873 6.873,156.5 13.5,156.5 z" fill-opacity="0" stroke="#212121" stroke-width="2"/>
      <text transform="matrix(1, 0, 0, 1, 49, 270)">
        <tspan x="-19.375" y="3" font-family="Euclid Circular A" font-size="10" fill="#000000">Region 2</tspan>
      </text>
    </g>
    <g id="Region_1">
      <path d="M12.357,12.5 L218.643,12.5 C224.639,12.5 229.5,17.873 229.5,24.5 L229.5,108.5 C229.5,115.127 224.639,120.5 218.643,120.5 L12.357,120.5 C6.361,120.5 1.5,115.127 1.5,108.5 L1.5,24.5 C1.5,17.873 6.361,12.5 12.357,12.5 z" fill-opacity="0" stroke="#212121" stroke-width="2"/>
      <text transform="matrix(1, 0, 0, 1, 115, 126)">
        <tspan x="-19.375" y="3" font-family="Euclid Circular A" font-size="10" fill="#000000">Region 1</tspan>
      </text>
    </g>
  </g>
  <g id="Moved_Primary" display="none">
    <g>
      <path d="M181.5,156.5 L181.5,132.3" fill-opacity="0" stroke="#212121" stroke-width="2" stroke-dasharray="6,4"/>
      <path d="M185.1,132.3 L181.5,122.7 L177.9,132.3 z" fill="#212121" fill-opacity="1" stroke="#212121" stroke-width="2" stroke-opacity="1"/>
    </g>
    <g id="Primary">
      <text transform="matrix(1, 0, 0, 1, 49, 38.682)">
        <tspan x="-6.003" y="5.545" font-family="Euclid Circular A" font-size="18" fill="#212121">S</tspan>
      </text>
      <path d="M49,24.125 C39.419,24.125 30.755,25.292 24.316,27.287 C21.097,28.285 18.445,29.483 16.441,30.956 C14.437,32.429 13,34.335 13,36.534 L13,95.716 C13,97.915 14.437,99.791 16.441,101.264 C18.445,102.737 21.097,103.936 24.316,104.933 C30.755,106.929 39.419,108.125 49,108.125 C58.581,108.125 67.245,106.929 73.684,104.933 C76.903,103.936 79.555,102.737 81.559,101.264 C83.563,99.791 85,97.915 85,95.716 L85,36.534 C85,34.335 83.563,32.429 81.559,30.956 C79.555,29.483 76.903,28.285 73.684,27.287 C67.245,25.292 58.581,24.125 49,24.125 z M49,27.943 C58.19,27.943 66.484,29.096 72.294,30.896 C75.199,31.797 77.462,32.868 78.879,33.909 C80.295,34.95 80.765,35.825 80.765,36.534 C80.765,37.243 80.295,38.088 78.879,39.129 C77.462,40.17 75.199,41.242 72.294,42.142 C66.484,43.942 58.19,45.125 49,45.125 C39.81,45.125 31.516,43.942 25.706,42.142 C22.801,41.242 20.538,40.17 19.121,39.129 C17.705,38.088 17.235,37.243 17.235,36.534 C17.235,35.825 17.705,34.95 19.121,33.909 C20.538,32.868 22.801,31.797 25.706,30.896 C31.516,29.096 39.81,27.943 49,27.943 z M17.235,42.619 C19.129,43.849 21.499,44.878 24.316,45.751 C30.755,47.747 39.419,48.943 49,48.943 C58.581,48.943 67.245,47.747 73.684,45.751 C76.501,44.878 78.871,43.849 80.765,42.619 L80.765,56.401 C80.762,56.46 80.762,56.52 80.765,56.58 C80.765,57.289 80.295,58.134 78.879,59.175 C77.462,60.216 75.199,61.287 72.294,62.188 C66.484,63.988 58.19,65.17 49,65.17 C39.81,65.17 31.516,63.988 25.706,62.188 C22.801,61.287 20.538,60.216 19.121,59.175 C17.705,58.134 17.235,57.289 17.235,56.58 C17.238,56.52 17.238,56.46 17.235,56.401 L17.235,42.619 z M17.235,62.695 C19.129,63.924 21.499,64.924 24.316,65.797 C30.755,67.792 39.419,68.989 49,68.989 C58.581,68.989 67.245,67.792 73.684,65.797 C76.501,64.924 78.871,63.924 80.765,62.695 L80.765,75.491 C80.762,75.551 80.762,75.611 80.765,75.67 C80.765,76.379 80.295,77.225 78.879,78.266 C77.462,79.307 75.199,80.378 72.294,81.278 C66.484,83.079 58.19,84.261 49,84.261 C39.81,84.261 31.516,83.079 25.706,81.278 C22.801,80.378 20.538,79.307 19.121,78.266 C17.705,77.225 17.235,76.379 17.235,75.67 C17.238,75.611 17.238,75.551 17.235,75.491 L17.235,62.695 z M17.235,81.786 C19.129,83.015 21.499,84.015 24.316,84.888 C30.755,86.883 39.419,88.08 49,88.08 C58.581,88.08 67.245,86.883 73.684,84.888 C76.501,84.015 78.871,83.015 80.765,81.786 L80.765,95.716 C80.765,96.425 80.295,97.27 78.879,98.311 C77.462,99.352 75.199,100.424 72.294,101.324 C66.484,103.124 58.19,104.307 49,104.307 C39.81,104.307 31.516,103.124 25.706,101.324 C22.801,100.424 20.538,99.352 19.121,98.311 C17.705,97.27 17.235,96.425 17.235,95.716 L17.235,81.786 z" fill="#69B241" id="Primary"/>
    </g>
    <g id="Snapshot">
      <text transform="matrix(1, 0, 0, 1, 181, 38.682)">
        <tspan x="-5.625" y="5.545" font-family="Euclid Circular A" font-size="18" fill="#424243">P</tspan>
      </text>
      <path d="M181,24.125 C171.419,24.125 162.755,25.292 156.316,27.287 C153.097,28.285 150.445,29.483 148.441,30.956 C146.437,32.429 145,34.335 145,36.534 L145,95.716 C145,97.915 146.437,99.791 148.441,101.264 C150.445,102.737 153.097,103.936 156.316,104.933 C162.755,106.929 171.419,108.125 181,108.125 C190.581,108.125 199.245,106.929 205.684,104.933 C208.903,103.936 211.555,102.737 213.559,101.264 C215.563,99.791 217,97.915 217,95.716 L217,36.534 C217,34.335 215.563,32.429 213.559,30.956 C211.555,29.483 208.903,28.285 205.684,27.287 C199.245,25.292 190.581,24.125 181,24.125 z M181,27.943 C190.19,27.943 198.484,29.096 204.294,30.896 C207.199,31.797 209.462,32.868 210.879,33.909 C212.295,34.95 212.765,35.825 212.765,36.534 C212.765,37.243 212.295,38.088 210.879,39.129 C209.462,40.17 207.199,41.242 204.294,42.142 C198.484,43.942 190.19,45.125 181,45.125 C171.81,45.125 163.516,43.942 157.706,42.142 C154.801,41.242 152.538,40.17 151.121,39.129 C149.705,38.088 149.235,37.243 149.235,36.534 C149.235,35.825 149.705,34.95 151.121,33.909 C152.538,32.868 154.801,31.797 157.706,30.896 C163.516,29.096 171.81,27.943 181,27.943 z M149.235,42.619 C151.129,43.849 153.499,44.878 156.316,45.751 C162.755,47.747 171.419,48.943 181,48.943 C190.581,48.943 199.245,47.747 205.684,45.751 C208.501,44.878 210.871,43.849 212.765,42.619 L212.765,56.401 C212.762,56.46 212.762,56.52 212.765,56.58 C212.765,57.289 212.295,58.134 210.879,59.175 C209.462,60.216 207.199,61.287 204.294,62.188 C198.484,63.988 190.19,65.17 181,65.17 C171.81,65.17 163.516,63.988 157.706,62.188 C154.801,61.287 152.538,60.216 151.121,59.175 C149.705,58.134 149.235,57.289 149.235,56.58 C149.238,56.52 149.238,56.46 149.235,56.401 L149.235,42.619 z M149.235,62.695 C151.129,63.924 153.499,64.924 156.316,65.797 C162.755,67.792 171.419,68.989 181,68.989 C190.581,68.989 199.245,67.792 205.684,65.797 C208.501,64.924 210.871,63.924 212.765,62.695 L212.765,75.491 C212.762,75.551 212.762,75.611 212.765,75.67 C212.765,76.379 212.295,77.225 210.879,78.266 C209.462,79.307 207.199,80.378 204.294,81.278 C198.484,83.079 190.19,84.261 181,84.261 C171.81,84.261 163.516,83.079 157.706,81.278 C154.801,80.378 152.538,79.307 151.121,78.266 C149.705,77.225 149.235,76.379 149.235,75.67 C149.238,75.611 149.238,75.551 149.235,75.491 L149.235,62.695 z M149.235,81.786 C151.129,83.015 153.499,84.015 156.316,84.888 C162.755,86.883 171.419,88.08 181,88.08 C190.581,88.08 199.245,86.883 205.684,84.888 C208.501,84.015 210.871,83.015 212.765,81.786 L212.765,95.716 C212.765,96.425 212.295,97.27 210.879,98.311 C209.462,99.352 207.199,100.424 204.294,101.324 C198.484,103.124 190.19,104.307 181,104.307 C171.81,104.307 163.516,103.124 157.706,101.324 C154.801,100.424 152.538,99.352 151.121,98.311 C149.705,97.27 149.235,96.425 149.235,95.716 L149.235,81.786 z" fill="#C2E0B4" id="Snapshot"/>
    </g>
    <g id="Secondary1">
      <text transform="matrix(1, 0, 0, 1, 49, 182.557)">
        <tspan x="-6.003" y="5.545" font-family="Euclid Circular A" font-size="18" fill="#212121">S</tspan>
      </text>
      <path d="M49,168 C39.419,168 30.755,169.167 24.316,171.162 C21.097,172.16 18.445,173.358 16.441,174.831 C14.437,176.304 13,178.21 13,180.409 L13,239.591 C13,241.79 14.437,243.666 16.441,245.139 C18.445,246.612 21.097,247.811 24.316,248.808 C30.755,250.804 39.419,252 49,252 C58.581,252 67.245,250.804 73.684,248.808 C76.903,247.811 79.555,246.612 81.559,245.139 C83.563,243.666 85,241.79 85,239.591 L85,180.409 C85,178.21 83.563,176.304 81.559,174.831 C79.555,173.358 76.903,172.16 73.684,171.162 C67.245,169.167 58.581,168 49,168 z M49,171.818 C58.19,171.818 66.484,172.971 72.294,174.771 C75.199,175.672 77.462,176.743 78.879,177.784 C80.295,178.825 80.765,179.7 80.765,180.409 C80.765,181.118 80.295,181.963 78.879,183.004 C77.462,184.045 75.199,185.117 72.294,186.017 C66.484,187.817 58.19,189 49,189 C39.81,189 31.516,187.817 25.706,186.017 C22.801,185.117 20.538,184.045 19.121,183.004 C17.705,181.963 17.235,181.118 17.235,180.409 C17.235,179.7 17.705,178.825 19.121,177.784 C20.538,176.743 22.801,175.672 25.706,174.771 C31.516,172.971 39.81,171.818 49,171.818 z M17.235,186.494 C19.129,187.724 21.499,188.753 24.316,189.626 C30.755,191.622 39.419,192.818 49,192.818 C58.581,192.818 67.245,191.622 73.684,189.626 C76.501,188.753 78.871,187.724 80.765,186.494 L80.765,200.276 C80.762,200.335 80.762,200.395 80.765,200.455 C80.765,201.164 80.295,202.009 78.879,203.05 C77.462,204.091 75.199,205.162 72.294,206.062 C66.484,207.863 58.19,209.045 49,209.045 C39.81,209.045 31.516,207.863 25.706,206.062 C22.801,205.162 20.538,204.091 19.121,203.05 C17.705,202.009 17.235,201.164 17.235,200.455 C17.238,200.395 17.238,200.335 17.235,200.276 L17.235,186.494 z M17.235,206.57 C19.129,207.799 21.499,208.799 24.316,209.672 C30.755,211.667 39.419,212.864 49,212.864 C58.581,212.864 67.245,211.667 73.684,209.672 C76.501,208.799 78.871,207.799 80.765,206.57 L80.765,219.366 C80.762,219.426 80.762,219.486 80.765,219.545 C80.765,220.254 80.295,221.1 78.879,222.141 C77.462,223.182 75.199,224.253 72.294,225.153 C66.484,226.954 58.19,228.136 49,228.136 C39.81,228.136 31.516,226.954 25.706,225.153 C22.801,224.253 20.538,223.182 19.121,222.141 C17.705,221.1 17.235,220.254 17.235,219.545 C17.238,219.486 17.238,219.426 17.235,219.366 L17.235,206.57 z M17.235,225.661 C19.129,226.89 21.499,227.89 24.316,228.763 C30.755,230.758 39.419,231.955 49,231.955 C58.581,231.955 67.245,230.758 73.684,228.763 C76.501,227.89 78.871,226.89 80.765,225.661 L80.765,239.591 C80.765,240.3 80.295,241.145 78.879,242.186 C77.462,243.227 75.199,244.299 72.294,245.199 C66.484,246.999 58.19,248.182 49,248.182 C39.81,248.182 31.516,246.999 25.706,245.199 C22.801,244.299 20.538,243.227 19.121,242.186 C17.705,241.145 17.235,240.3 17.235,239.591 L17.235,225.661 z" fill="#69B241" id="Secondary"/>
    </g>
    <g id="Secondary2">
      <text transform="matrix(1, 0, 0, 1, 181, 182.557)">
        <tspan x="-5.625" y="5.545" font-family="Euclid Circular A" font-size="18" fill="#212121">P</tspan>
      </text>
      <path d="M181,168 C171.419,168 162.755,169.167 156.316,171.162 C153.097,172.16 150.445,173.358 148.441,174.831 C146.437,176.304 145,178.21 145,180.409 L145,239.591 C145,241.79 146.437,243.666 148.441,245.139 C150.445,246.612 153.097,247.811 156.316,248.808 C162.755,250.804 171.419,252 181,252 C190.581,252 199.245,250.804 205.684,248.808 C208.903,247.811 211.555,246.612 213.559,245.139 C215.563,243.666 217,241.79 217,239.591 L217,180.409 C217,178.21 215.563,176.304 213.559,174.831 C211.555,173.358 208.903,172.16 205.684,171.162 C199.245,169.167 190.581,168 181,168 z M181,171.818 C190.19,171.818 198.484,172.971 204.294,174.771 C207.199,175.672 209.462,176.743 210.879,177.784 C212.295,178.825 212.765,179.7 212.765,180.409 C212.765,181.118 212.295,181.963 210.879,183.004 C209.462,184.045 207.199,185.117 204.294,186.017 C198.484,187.817 190.19,189 181,189 C171.81,189 163.516,187.817 157.706,186.017 C154.801,185.117 152.538,184.045 151.121,183.004 C149.705,181.963 149.235,181.118 149.235,180.409 C149.235,179.7 149.705,178.825 151.121,177.784 C152.538,176.743 154.801,175.672 157.706,174.771 C163.516,172.971 171.81,171.818 181,171.818 z M149.235,186.494 C151.129,187.724 153.499,188.753 156.316,189.626 C162.755,191.622 171.419,192.818 181,192.818 C190.581,192.818 199.245,191.622 205.684,189.626 C208.501,188.753 210.871,187.724 212.765,186.494 L212.765,200.276 C212.762,200.335 212.762,200.395 212.765,200.455 C212.765,201.164 212.295,202.009 210.879,203.05 C209.462,204.091 207.199,205.162 204.294,206.062 C198.484,207.863 190.19,209.045 181,209.045 C171.81,209.045 163.516,207.863 157.706,206.062 C154.801,205.162 152.538,204.091 151.121,203.05 C149.705,202.009 149.235,201.164 149.235,200.455 C149.238,200.395 149.238,200.335 149.235,200.276 L149.235,186.494 z M149.235,206.57 C151.129,207.799 153.499,208.799 156.316,209.672 C162.755,211.667 171.419,212.864 181,212.864 C190.581,212.864 199.245,211.667 205.684,209.672 C208.501,208.799 210.871,207.799 212.765,206.57 L212.765,219.366 C212.762,219.426 212.762,219.486 212.765,219.545 C212.765,220.254 212.295,221.1 210.879,222.141 C209.462,223.182 207.199,224.253 204.294,225.153 C198.484,226.954 190.19,228.136 181,228.136 C171.81,228.136 163.516,226.954 157.706,225.153 C154.801,224.253 152.538,223.182 151.121,222.141 C149.705,221.1 149.235,220.254 149.235,219.545 C149.238,219.486 149.238,219.426 149.235,219.366 L149.235,206.57 z M149.235,225.661 C151.129,226.89 153.499,227.89 156.316,228.763 C162.755,230.758 171.419,231.955 181,231.955 C190.581,231.955 199.245,230.758 205.684,228.763 C208.501,227.89 210.871,226.89 212.765,225.661 L212.765,239.591 C212.765,240.3 212.295,241.145 210.879,242.186 C209.462,243.227 207.199,244.299 204.294,245.199 C198.484,246.999 190.19,248.182 181,248.182 C171.81,248.182 163.516,246.999 157.706,245.199 C154.801,244.299 152.538,243.227 151.121,242.186 C149.705,241.145 149.235,240.3 149.235,239.591 L149.235,225.661 z" fill="#69B241" id="Secondary"/>
    </g>
    <g id="Region_3">
      <path d="M145.5,12.5 L217.5,12.5 C224.127,12.5 229.5,17.873 229.5,24.5 L229.5,252.5 C229.5,259.127 224.127,264.5 217.5,264.5 L145.5,264.5 C138.873,264.5 133.5,259.127 133.5,252.5 L133.5,24.5 C133.5,17.873 138.873,12.5 145.5,12.5 z" fill-opacity="0" stroke="#212121" stroke-width="2"/>
      <text transform="matrix(1, 0, 0, 1, 181, 277.806)">
        <tspan x="-19.375" y="-4.806" font-family="Euclid Circular A" font-size="10" fill="#000000">Region 3</tspan>
      </text>
    </g>
    <g id="Region_2">
      <path d="M13.5,156.5 L85.5,156.5 C92.127,156.5 97.5,161.873 97.5,168.5 L97.5,252.5 C97.5,259.127 92.127,264.5 85.5,264.5 L13.5,264.5 C6.873,264.5 1.5,259.127 1.5,252.5 L1.5,168.5 C1.5,161.873 6.873,156.5 13.5,156.5 z" fill-opacity="0" stroke="#212121" stroke-width="2"/>
      <text transform="matrix(1, 0, 0, 1, 49, 270)">
        <tspan x="-19.375" y="3" font-family="Euclid Circular A" font-size="10" fill="#000000">Region 2</tspan>
      </text>
    </g>
    <g id="Region_1">
      <path d="M13.5,12.5 L85.5,12.5 C92.127,12.5 97.5,17.873 97.5,24.5 L97.5,108.5 C97.5,115.127 92.127,120.5 85.5,120.5 L13.5,120.5 C6.873,120.5 1.5,115.127 1.5,108.5 L1.5,24.5 C1.5,17.873 6.873,12.5 13.5,12.5 z" fill-opacity="0" stroke="#212121" stroke-width="2"/>
      <text transform="matrix(1, 0, 0, 1, 49, 126)">
        <tspan x="-19.375" y="3" font-family="Euclid Circular A" font-size="10" fill="#000000">Region 1</tspan>
      </text>
    </g>
  </g>
</svg>
