<svg xmlns="http://www.w3.org/2000/svg" viewBox="0, 0, 230, 288" height="288" width="230"><g stroke="#212121" stroke-width="2"><path d="M97.5 60.5h24.2" stroke-dasharray="6,4" fill="none"/><path d="M121.7 64.1l9.6-3.6-9.6-3.6z" fill="#212121"/></g><path d="M53.7 35.1q0 .9-.3 1.6-.3.8-.9 1.3-.6.7-1.6 1-.9.3-2.3.3H47v5h-2V31h3.6q1.2 0 2 .2t1.4.7q.8.5 1.2 1.2.4.8.4 1.9zm-1.8 0q0-.6-.3-1.1-.2-.5-.7-.9l-1-.3q-.5-.2-1.3-.2h-1.7V38h1.4q1.1 0 1.8-.2.6-.2 1-.6.4-.4.6-1 .2-.4.2-1z" font-size="18" font-family="AkzidenzGroteskStd-Regular" fill="#212121"/><path d="M49 24.1c-9.6 0-18.2 1.2-24.7 3.2-3.2 1-5.9 2.2-7.9 3.7-2 1.4-3.4 3.3-3.4 5.5v59.2c0 2.2 1.4 4 3.4 5.6 2 1.4 4.7 2.6 8 3.6 6.4 2 15 3.2 24.6 3.2 9.6 0 18.2-1.2 24.7-3.2 3.2-1 5.9-2.2 7.9-3.6 2-1.5 3.4-3.4 3.4-5.6V36.5c0-2.2-1.4-4-3.4-5.5s-4.7-2.7-8-3.7c-6.4-2-15-3.2-24.6-3.2zm0 3.8c9.2 0 17.5 1.2 23.3 3 2.9.9 5.2 2 6.6 3 1.4 1 1.9 2 1.9 2.6 0 .7-.5 1.6-2 2.6-1.3 1-3.6 2.1-6.5 3-5.8 1.8-14.1 3-23.3 3-9.2 0-17.5-1.2-23.3-3-2.9-.9-5.2-2-6.6-3-1.4-1-1.9-1.9-1.9-2.6 0-.7.5-1.6 2-2.6 1.3-1 3.6-2.1 6.5-3 5.8-1.8 14.1-3 23.3-3zM17.2 42.6c2 1.2 4.3 2.3 7.1 3.2 6.5 2 15.1 3.1 24.7 3.1s18.2-1.2 24.7-3.1c2.8-1 5.2-2 7-3.2v14c0 .7-.4 1.5-1.8 2.6-1.4 1-3.7 2-6.6 3-5.8 1.8-14.1 3-23.3 3-9.2 0-17.5-1.2-23.3-3-2.9-1-5.2-2-6.6-3-1.4-1-1.9-2-1.9-2.6v-14zm0 20c2 1.3 4.3 2.3 7.1 3.2 6.5 2 15.1 3.2 24.7 3.2s18.2-1.2 24.7-3.2c2.8-.9 5.2-1.9 7-3.1v13c0 .7-.4 1.5-1.8 2.6-1.4 1-3.7 2-6.6 3-5.8 1.8-14.1 3-23.3 3-9.2 0-17.5-1.2-23.3-3-2.9-1-5.2-2-6.6-3-1.4-1-1.9-2-1.9-2.6v-13zm0 19.2c2 1.2 4.3 2.2 7.1 3 6.5 2 15.1 3.3 24.7 3.3s18.2-1.2 24.7-3.2c2.8-.9 5.2-1.9 7-3.1v14c0 .6-.4 1.5-1.8 2.5s-3.7 2.1-6.6 3c-5.8 1.8-14.1 3-23.3 3-9.2 0-17.5-1.2-23.3-3-2.9-.9-5.2-2-6.6-3-1.4-1-1.9-1.9-1.9-2.6v-14z" fill="#69b241"/><path d="M185.7 35.1q0 .9-.3 1.6-.3.8-.9 1.3-.6.7-1.6 1-.9.3-2.3.3H179v5h-2V31h3.6q1.2 0 2 .2t1.4.7q.8.5 1.2 1.2.4.8.4 1.9zm-1.8 0q0-.6-.3-1.1-.2-.5-.7-.9l-1-.3q-.5-.2-1.3-.2h-1.7V38h1.4q1.1 0 1.8-.2.6-.2 1-.6.4-.4.6-1 .2-.4.2-1z" font-size="18" font-family="AkzidenzGroteskStd-Regular" fill="#424243"/><path d="M181 24.1c-9.6 0-18.2 1.2-24.7 3.2-3.2 1-5.9 2.2-7.9 3.7-2 1.4-3.4 3.3-3.4 5.5v59.2c0 2.2 1.4 4 3.4 5.6 2 1.4 4.7 2.6 8 3.6 6.4 2 15 3.2 24.6 3.2 9.6 0 18.2-1.2 24.7-3.2 3.2-1 5.9-2.2 7.9-3.6 2-1.5 3.4-3.4 3.4-5.6V36.5c0-2.2-1.4-4-3.4-5.5s-4.7-2.7-8-3.7c-6.4-2-15-3.2-24.6-3.2zm0 3.8c9.2 0 17.5 1.2 23.3 3 2.9.9 5.2 2 6.6 3 1.4 1 1.9 2 1.9 2.6 0 .7-.5 1.6-2 2.6-1.3 1-3.6 2.1-6.5 3-5.8 1.8-14.1 3-23.3 3-9.2 0-17.5-1.2-23.3-3-2.9-.9-5.2-2-6.6-3-1.4-1-1.9-1.9-1.9-2.6 0-.7.5-1.6 2-2.6 1.3-1 3.6-2.1 6.5-3 5.8-1.8 14.1-3 23.3-3zm-31.8 14.7c2 1.2 4.3 2.3 7.1 3.2 6.5 2 15.1 3.1 24.7 3.1s18.2-1.2 24.7-3.1c2.8-1 5.2-2 7-3.2v14c0 .7-.4 1.5-1.8 2.6-1.4 1-3.7 2-6.6 3-5.8 1.8-14.1 3-23.3 3-9.2 0-17.5-1.2-23.3-3-2.9-1-5.2-2-6.6-3-1.4-1-1.9-2-1.9-2.6v-14zm0 20c2 1.3 4.3 2.3 7.1 3.2 6.5 2 15.1 3.2 24.7 3.2s18.2-1.2 24.7-3.2c2.8-.9 5.2-1.9 7-3.1v13c0 .7-.4 1.5-1.8 2.6-1.4 1-3.7 2-6.6 3-5.8 1.8-14.1 3-23.3 3-9.2 0-17.5-1.2-23.3-3-2.9-1-5.2-2-6.6-3-1.4-1-1.9-2-1.9-2.6v-13zm0 19.2c2 1.2 4.3 2.2 7.1 3 6.5 2 15.1 3.3 24.7 3.3s18.2-1.2 24.7-3.2c2.8-.9 5.2-1.9 7-3.1v14c0 .6-.4 1.5-1.8 2.5s-3.7 2.1-6.6 3c-5.8 1.8-14.1 3-23.3 3-9.2 0-17.5-1.2-23.3-3-2.9-.9-5.2-2-6.6-3-1.4-1-1.9-1.9-1.9-2.6v-14z" fill="#c2e0b4"/><path d="M54.3 184.4q0 .7-.4 1.5-.3.7-1 1.2-.7.6-1.6 1-1 .2-2.3.2-1.4 0-2.5-.2-1.2-.3-2.3-.8V185h.1q1 .8 2.3 1.3 1.3.4 2.4.4 1.7 0 2.5-.6 1-.6 1-1.6 0-.9-.5-1.3-.4-.4-1.3-.6l-1.4-.3-1.6-.3q-1.8-.4-2.6-1.2-.8-1-.8-2.4 0-1.6 1.3-2.7 1.4-1 3.6-1 1.3 0 2.5.2l2 .7v2q-.8-.6-2-1-1.3-.4-2.5-.4-1.4 0-2.3.6-.8.5-.8 1.5 0 .8.4 1.2.4.5 1.5.8l1.6.2 1.7.4q1.5.4 2.2 1.2.8.8.8 2.2z" font-size="18" font-family="AkzidenzGroteskStd-Regular" fill="#212121"/><path d="M49 168c-9.6 0-18.2 1.2-24.7 3.2-3.2 1-5.9 2.2-7.9 3.6-2 1.5-3.4 3.4-3.4 5.6v59.2c0 2.2 1.4 4 3.4 5.5s4.7 2.7 8 3.7c6.4 2 15 3.2 24.6 3.2 9.6 0 18.2-1.2 24.7-3.2 3.2-1 5.9-2.2 7.9-3.7 2-1.4 3.4-3.3 3.4-5.5v-59.2c0-2.2-1.4-4.1-3.4-5.6-2-1.4-4.7-2.6-8-3.6-6.4-2-15-3.2-24.6-3.2zm0 3.8c9.2 0 17.5 1.2 23.3 3 2.9.9 5.2 2 6.6 3 1.4 1 1.9 1.9 1.9 2.6 0 .7-.5 1.6-2 2.6-1.3 1-3.6 2.1-6.5 3-5.8 1.8-14.1 3-23.3 3-9.2 0-17.5-1.2-23.3-3-2.9-.9-5.2-2-6.6-3-1.4-1-1.9-1.9-1.9-2.6 0-.7.5-1.6 2-2.6 1.3-1 3.6-2.1 6.5-3 5.8-1.8 14.1-3 23.3-3zm-31.8 14.7c2 1.2 4.3 2.3 7.1 3.1 6.5 2 15.1 3.2 24.7 3.2s18.2-1.2 24.7-3.2c2.8-.8 5.2-1.9 7-3.1v14c0 .7-.4 1.5-1.8 2.6-1.4 1-3.7 2-6.6 3-5.8 1.8-14.1 3-23.3 3-9.2 0-17.5-1.2-23.3-3-2.9-1-5.2-2-6.6-3-1.4-1-1.9-2-1.9-2.6v-14zm0 20c2 1.3 4.3 2.3 7.1 3.2 6.5 2 15.1 3.2 24.7 3.2s18.2-1.2 24.7-3.2c2.8-.9 5.2-1.9 7-3.1v12.9c0 .8-.4 1.6-1.8 2.6s-3.7 2.2-6.6 3a79 79 0 0 1-23.3 3 79 79 0 0 1-23.3-3c-2.9-.8-5.2-2-6.6-3-1.4-1-1.9-1.8-1.9-2.6v-12.9zm0 19.2c2 1.2 4.3 2.2 7.1 3 6.5 2 15.1 3.3 24.7 3.3s18.2-1.2 24.7-3.2c2.8-1 5.2-2 7-3.1v13.9c0 .7-.4 1.5-1.8 2.6-1.4 1-3.7 2.1-6.6 3-5.8 1.8-14.1 3-23.3 3-9.2 0-17.5-1.2-23.3-3-2.9-.9-5.2-2-6.6-3-1.4-1-1.9-1.9-1.9-2.6v-14z" fill="#69b241"/><path d="M186.3 184.4q0 .7-.4 1.5-.3.7-1 1.2-.7.6-1.6 1-1 .2-2.3.2-1.4 0-2.5-.2-1.2-.3-2.3-.8V185h.1q1 .8 2.3 1.3 1.3.4 2.4.4 1.7 0 2.5-.6 1-.6 1-1.6 0-.9-.5-1.3-.4-.4-1.3-.6l-1.4-.3-1.6-.3q-1.8-.4-2.6-1.2-.8-1-.8-2.4 0-1.6 1.3-2.7 1.4-1 3.6-1 1.3 0 2.5.2l2 .7v2q-.8-.6-2-1-1.3-.4-2.5-.4-1.4 0-2.3.6-.8.5-.8 1.5 0 .8.4 1.2.4.5 1.5.8l1.6.2 1.7.4q1.5.4 2.2 1.2.8.8.8 2.2z" font-size="18" font-family="AkzidenzGroteskStd-Regular" fill="#212121"/><path d="M181 168c-9.6 0-18.2 1.2-24.7 3.2-3.2 1-5.9 2.2-7.9 3.6-2 1.5-3.4 3.4-3.4 5.6v59.2c0 2.2 1.4 4 3.4 5.5s4.7 2.7 8 3.7c6.4 2 15 3.2 24.6 3.2 9.6 0 18.2-1.2 24.7-3.2 3.2-1 5.9-2.2 7.9-3.7 2-1.4 3.4-3.3 3.4-5.5v-59.2c0-2.2-1.4-4.1-3.4-5.6-2-1.4-4.7-2.6-8-3.6-6.4-2-15-3.2-24.6-3.2zm0 3.8c9.2 0 17.5 1.2 23.3 3 2.9.9 5.2 2 6.6 3 1.4 1 1.9 1.9 1.9 2.6 0 .7-.5 1.6-2 2.6-1.3 1-3.6 2.1-6.5 3-5.8 1.8-14.1 3-23.3 3-9.2 0-17.5-1.2-23.3-3-2.9-.9-5.2-2-6.6-3-1.4-1-1.9-1.9-1.9-2.6 0-.7.5-1.6 2-2.6 1.3-1 3.6-2.1 6.5-3 5.8-1.8 14.1-3 23.3-3zm-31.8 14.7c2 1.2 4.3 2.3 7.1 3.1 6.5 2 15.1 3.2 24.7 3.2s18.2-1.2 24.7-3.2c2.8-.8 5.2-1.9 7-3.1v14c0 .7-.4 1.5-1.8 2.6-1.4 1-3.7 2-6.6 3-5.8 1.8-14.1 3-23.3 3-9.2 0-17.5-1.2-23.3-3-2.9-1-5.2-2-6.6-3-1.4-1-1.9-2-1.9-2.6v-14zm0 20c2 1.3 4.3 2.3 7.1 3.2 6.5 2 15.1 3.2 24.7 3.2s18.2-1.2 24.7-3.2c2.8-.9 5.2-1.9 7-3.1v12.9c0 .8-.4 1.6-1.8 2.6s-3.7 2.2-6.6 3a79 79 0 0 1-23.3 3 79 79 0 0 1-23.3-3c-2.9-.8-5.2-2-6.6-3-1.4-1-1.9-1.8-1.9-2.6v-12.9zm0 19.2c2 1.2 4.3 2.2 7.1 3 6.5 2 15.1 3.3 24.7 3.3s18.2-1.2 24.7-3.2c2.8-1 5.2-2 7-3.1v13.9c0 .7-.4 1.5-1.8 2.6-1.4 1-3.7 2.1-6.6 3-5.8 1.8-14.1 3-23.3 3-9.2 0-17.5-1.2-23.3-3-2.9-.9-5.2-2-6.6-3-1.4-1-1.9-1.9-1.9-2.6v-14z" fill="#69b241"/><path d="M95.4 273h-1.2l-2.5-2.9h-1.3v2.9h-1v-7.3h2l1.1.1.8.3q.4.3.6.7.3.3.3 1t-.4 1.2q-.4.6-1.1.8l2.7 3.2zm-2.2-5.2l-.2-.6q0-.2-.3-.4l-.5-.2h-1.8v2.7H92l.6-.4.3-.4q.2-.3.2-.7zm7.6 2.6h-4q0 .5.2.8.1.4.4.7l.6.3.8.1 1-.2q.7-.2.9-.4v1l-1 .3-1 .1q-1.3 0-2-.7-.8-.7-.8-2.1 0-1.3.7-2.1.8-.8 2-.8 1 0 1.6.6.6.7.6 1.9v.5zm-.8-.7q0-.8-.4-1.2-.4-.3-1.1-.3-.7 0-1.2.4-.4.4-.5 1h3.2zm6.7 2.7q0 1.4-.7 2-.6.7-2 .7l-.8-.1-.8-.2v-1l.8.3 1 .1h.7l.5-.4.3-.4v-1.1l-.8.5-1 .1q-.9 0-1.5-.7-.5-.7-.5-2 0-.7.2-1.2l.5-.9.8-.5q.4-.2.9-.2h.8l.6.4.1-.3h.9v4.9zm-1-.9v-3l-.6-.2h-.7q-.7 0-1.2.4-.4.5-.4 1.5t.3 1.4q.4.5 1.1.5l.8-.2q.4-.1.7-.4zm3.8-4.9h-1v-1h1v1zm-.1 6.4h-1v-5.5h1v5.5zm6.5-2.7q0 1.3-.7 2-.7.9-1.8.9-1.2 0-1.9-.8t-.7-2.1q0-1.4.7-2.1.7-.8 1.9-.8 1.1 0 1.8.8.7.7.7 2zm-1 0q0-1-.4-1.6-.4-.5-1.1-.5-.8 0-1.2.5-.4.5-.4 1.6 0 1 .4 1.5.4.6 1.2.6.7 0 1.1-.6.4-.5.4-1.5zm7 2.7h-1v-3.8q0-.3-.2-.5 0-.2-.3-.3l-.6-.1-.8.2-.8.4v4.1h-.9v-5.5h1v.7q.3-.4.8-.6l1-.2q.8 0 1.3.5.5.6.5 1.6v3.5zm9.6 0h-4v-.7h1.6v-5h-1.5v-.6h.7q.3 0 .5-.2l.3-.3q.2-.2.2-.5h.7v6.6h1.5v.7z" font-size="10" font-family="AkzidenzGroteskStd-Regular"/><path d="M13.5 12.5h204a12 12 0 0 1 12 12v228a12 12 0 0 1-12 12h-204a12 12 0 0 1-12-12v-228a12 12 0 0 1 12-12z" stroke="#212121" stroke-width="2" fill="none"/></svg>