<svg xmlns="http://www.w3.org/2000/svg" xmlns:xlink="http://www.w3.org/1999/xlink" xmlns:lucid="lucid" width="892" height="340.52"><g transform="translate(1623.3333333697135 259.9999999999999)" lucid:page-tab-id="0_0"><path d="M-2000-500h1500V500h-1500z" fill="#fff"/><path d="M-972.33-146a6 6 0 0 1 6-6h228a6 6 0 0 1 6 6v108a6 6 0 0 1-6 6h-228a6 6 0 0 1-6-6z" fill="#f9ebff"/><path d="M-954.12-152h8.14m8.15 0h8.14m8.15 0h8.14m8.14 0h8.14m8.14 0h8.15m8.14 0h8.15m8.14 0h8.14m8.14 0h8.14m8.15 0h8.14m8.15 0h8.14m8.14 0h8.14m8.14 0h8.15m8.14 0h8.15m8.14 0h4.07l.94.07.92.22.87.35.8.5.7.6.62.72.5.8.35.88.22.9.07.95v3.86m0 7.7v7.73m0 7.7v7.7m0 7.73v7.7m0 7.73v7.7m0 7.73v7.7m0 7.7v7.73m0 7.7V-38l-.08.94-.23.9-.36.88-.48.8-.6.72-.73.6-.8.5-.88.37-.9.23-.95.07h-4.07m-8.15 0h-8.14m-8.13 0h-8.15m-8.14 0h-8.14m-8.14 0h-8.15m-8.14 0h-8.13m-8.15 0h-8.14m-8.14 0h-8.14m-8.15 0h-8.14m-8.13 0h-8.15m-8.14 0h-8.14m-8.14 0h-8.15m-8.14 0h-8.13m-8.15 0h-8.14m-8.14 0h-4.07l-.94-.07-.92-.22-.86-.35-.8-.5-.72-.6-.6-.72-.5-.8-.36-.88-.22-.9-.07-.95v-3.86m0-7.7v-7.73m0-7.7v-7.7m0-7.73v-7.7m0-7.73v-7.7m0-7.73v-7.7m0-7.7v-7.73m0-7.7V-146l.07-.94.22-.9.36-.88.5-.8.6-.72.72-.6.8-.5.87-.37.93-.23.94-.07h4.07" stroke="#4c535d" stroke-width="2" fill="none"/><use xlink:href="#a" transform="matrix(1,0,0,1,-967.3333333333328,-146.9999999999999) translate(42.78888888888889 63.84722222222222)"/><use xlink:href="#b" transform="matrix(1,0,0,1,-967.3333333333328,-146.9999999999999) translate(94.87777777777778 63.84722222222222)"/><path d="M-1622.33-146a6 6 0 0 1 6-6h226.66a6 6 0 0 1 6 6v108a6 6 0 0 1-6 6h-226.66a6 6 0 0 1-6-6z" fill="#e3fcf7"/><path d="M-1604.2-152h8.1m8.1 0h8.1m8.1 0h8.1m8.08 0h8.1m8.1 0h8.1m8.08 0h8.1m8.1 0h8.1m8.08 0h8.1m8.1 0h8.1m8.08 0h8.1m8.1 0h8.1m8.1 0h8.08m8.1 0h8.1m8.1 0h4.03l.94.07.92.22.86.35.8.5.72.6.6.72.5.8.36.88.22.9.07.95v3.86m0 7.7v7.73m0 7.7v7.7m0 7.73v7.7m0 7.73v7.7m0 7.73v7.7m0 7.7v7.73m0 7.7V-38l-.07.94-.22.9-.36.88-.5.8-.6.72-.72.6-.8.5-.87.37-.93.23-.94.07h-4.04m-8.1 0h-8.1m-8.1 0h-8.1m-8.1 0h-8.1m-8.08 0h-8.1m-8.1 0h-8.1m-8.08 0h-8.1m-8.1 0h-8.1m-8.08 0h-8.1m-8.1 0h-8.1m-8.08 0h-8.1m-8.1 0h-8.1m-8.1 0h-8.08m-8.1 0h-8.1m-8.1 0h-4.03l-.94-.07-.92-.22-.86-.35-.8-.5-.72-.6-.6-.72-.5-.8-.36-.88-.22-.9-.07-.95v-3.86m0-7.7v-7.73m0-7.7v-7.7m0-7.73v-7.7m0-7.73v-7.7m0-7.73v-7.7m0-7.7v-7.73m0-7.7V-146l.07-.94.22-.9.36-.88.5-.8.6-.72.72-.6.8-.5.87-.37.93-.23.94-.07h4.04" stroke="#4c535d" stroke-width="2" fill="none"/><use xlink:href="#c" transform="matrix(1,0,0,1,-1617.333333333333,-146.9999999999999) translate(41.766666666666666 63.84722222222222)"/><use xlink:href="#d" transform="matrix(1,0,0,1,-1617.333333333333,-146.9999999999999) translate(127.87777777777778 63.84722222222222)"/><path d="M-1380.17-144h381.97" stroke="#3a414a" stroke-width="5" fill="none"/><path d="M-1380.1-141.53h-2.57v-4.5l-.03-.45h2.6z" stroke="#3a414a" stroke-width=".05" fill="#3a414a"/><path d="M-981.42-144l-14.27 4.63v-9.26z" stroke="#3a414a" stroke-width="5" fill="#3a414a"/><path d="M-975.83-45.33h-381.97" stroke="#3a414a" stroke-width="5" fill="none"/><path d="M-973.33-42.86h-2.57v-4.95h2.57z" stroke="#3a414a" stroke-width=".05" fill="#3a414a"/><path d="M-1374.58-45.33l14.27-4.64v9.27z" stroke="#3a414a" stroke-width="5" fill="#3a414a"/><path d="M-1383.67-254a6 6 0 0 1 6-6h86.34a6 6 0 0 1 6 6v80a6 6 0 0 1-6 6h-86.34a6 6 0 0 1-6-6z" fill="none"/><use xlink:href="#e" transform="matrix(1,0,0,1,-1383.6666666666665,-259.9999999999999) translate(0 17.77777777777778)"/><use xlink:href="#f" transform="matrix(1,0,0,1,-1383.6666666666665,-259.9999999999999) translate(0 40.32)"/><use xlink:href="#g" transform="matrix(1,0,0,1,-1383.6666666666665,-259.9999999999999) translate(56.391111111111115 40.32)"/><use xlink:href="#h" transform="matrix(1,0,0,1,-1383.6666666666665,-259.9999999999999) translate(0 62.86222222222222)"/><use xlink:href="#i" transform="matrix(1,0,0,1,-1383.6666666666665,-259.9999999999999) translate(0 85.40444444444444)"/><use xlink:href="#j" transform="matrix(1,0,0,1,-1383.6666666666665,-259.9999999999999) translate(0 107.31590277777778)"/><path d="M-1070.67-238a6 6 0 0 1 6-6h86.34a6 6 0 0 1 6 6v80a6 6 0 0 1-6 6h-86.34a6 6 0 0 1-6-6z" fill="none"/><g><use xlink:href="#k" transform="matrix(1,0,0,1,-1070.6666666666665,-243.9999999999999) translate(29.63111111111111 18.693333333333335)"/><use xlink:href="#f" transform="matrix(1,0,0,1,-1070.6666666666665,-243.9999999999999) translate(19.47999999999999 41.23555555555556)"/><use xlink:href="#l" transform="matrix(1,0,0,1,-1070.6666666666665,-243.9999999999999) translate(75.8711111111111 41.23555555555556)"/><use xlink:href="#m" transform="matrix(1,0,0,1,-1070.6666666666665,-243.9999999999999) translate(62.342222222222226 63.77777777777778)"/><use xlink:href="#n" transform="matrix(1,0,0,1,-1070.6666666666665,-243.9999999999999) translate(31.195555555555543 86.32)"/></g><path d="M-1383.67-26a6 6 0 0 1 6-6h86.34a6 6 0 0 1 6 6v80a6 6 0 0 1-6 6h-86.34a6 6 0 0 1-6-6z" fill="none"/><g><use xlink:href="#k" transform="matrix(1,0,0,1,-1383.6666666666665,-31.99999999999983) translate(0 17.77777777777778)"/><use xlink:href="#f" transform="matrix(1,0,0,1,-1383.6666666666665,-31.99999999999983) translate(0 40.32)"/><use xlink:href="#o" transform="matrix(1,0,0,1,-1383.6666666666665,-31.99999999999983) translate(56.391111111111115 40.32)"/><use xlink:href="#h" transform="matrix(1,0,0,1,-1383.6666666666665,-31.99999999999983) translate(0 62.86222222222222)"/><use xlink:href="#i" transform="matrix(1,0,0,1,-1383.6666666666665,-31.99999999999983) translate(0 85.40444444444444)"/><use xlink:href="#p" transform="matrix(1,0,0,1,-1383.6666666666665,-31.99999999999983) translate(0 107.31590277777778)"/></g><path d="M-1070.67-26a6 6 0 0 1 6-6h86.34a6 6 0 0 1 6 6v80a6 6 0 0 1-6 6h-86.34a6 6 0 0 1-6-6z" fill="none"/><g><use xlink:href="#e" transform="matrix(1,0,0,1,-1070.6666666666665,-31.99999999999983) translate(13.346666666666664 18.693333333333335)"/><use xlink:href="#f" transform="matrix(1,0,0,1,-1070.6666666666665,-31.99999999999983) translate(19.47999999999999 41.23555555555556)"/><use xlink:href="#l" transform="matrix(1,0,0,1,-1070.6666666666665,-31.99999999999983) translate(75.8711111111111 41.23555555555556)"/><use xlink:href="#m" transform="matrix(1,0,0,1,-1070.6666666666665,-31.99999999999983) translate(62.342222222222226 63.77777777777778)"/><use xlink:href="#n" transform="matrix(1,0,0,1,-1070.6666666666665,-31.99999999999983) translate(31.195555555555543 86.32)"/></g><defs><path d="M267 0v-299L8-710h185l153 256 155-256h185L427-298V0H267" id="q"/><path d="M294 11C150 11 31-103 31-250s119-261 263-261 263 114 263 261S438 11 294 11zm0-141c63 0 111-49 111-120s-48-120-111-120-111 49-111 120 48 120 111 120" id="r"/><path d="M245 11C121 11 56-79 56-215v-285h151v259c0 73 21 115 77 115 57 0 94-39 94-131v-243h151V0H378v-51c-24 35-68 62-133 62" id="s"/><path d="M62 0v-500h151v75c22-57 90-98 168-75v153c-89-36-168 9-168 110V0H62" id="t"/><g id="a"><use transform="matrix(0.022222222222222223,0,0,0.022222222222222223,0,0)" xlink:href="#q"/><use transform="matrix(0.022222222222222223,0,0,0.022222222222222223,12.4,0)" xlink:href="#r"/><use transform="matrix(0.022222222222222223,0,0,0.022222222222222223,25.46666666666667,0)" xlink:href="#s"/><use transform="matrix(0.022222222222222223,0,0,0.022222222222222223,38.6,0)" xlink:href="#t"/></g><path d="M717 0H580L234-439V0H75v-710h137l345 438v-438h160V0" id="u"/><path d="M297 11C142 11 32-99 32-251c0-150 114-260 265-260 144 0 273 98 267 296H179c7 51 45 96 126 96 44 0 84-20 96-47h158C527-62 423 11 297 11zm100-322c-30-118-194-95-214 0h214" id="v"/><path d="M407-4C262 31 116-22 116-183v-186H16v-131h100v-139h151v139h140v131H267v155c0 60 25 85 85 85 23 0 39-3 55-9V-4" id="w"/><path d="M491 0l-85-265L320 0H168L3-500h162l87 306 95-306h116l95 306 87-306h162L643 0H491" id="x"/><path d="M62 0v-750h151v429l146-179h179L354-274 582 0H399L213-224V0H62" id="y"/><g id="b"><use transform="matrix(0.022222222222222223,0,0,0.022222222222222223,0,0)" xlink:href="#u"/><use transform="matrix(0.022222222222222223,0,0,0.022222222222222223,17.311111111111114,0)" xlink:href="#v"/><use transform="matrix(0.022222222222222223,0,0,0.022222222222222223,30.28888888888889,0)" xlink:href="#w"/><use transform="matrix(0.022222222222222223,0,0,0.022222222222222223,40.06666666666667,0)" xlink:href="#x"/><use transform="matrix(0.022222222222222223,0,0,0.022222222222222223,57.86666666666667,0)" xlink:href="#r"/><use transform="matrix(0.022222222222222223,0,0,0.022222222222222223,70.93333333333334,0)" xlink:href="#t"/><use transform="matrix(0.022222222222222223,0,0,0.022222222222222223,79.88888888888889,0)" xlink:href="#y"/></g><path d="M409 12C192 12 36-149 36-355s156-367 373-367c156 0 304 99 345 256H581c-30-66-102-102-172-102-130 0-213 94-213 213s83 213 213 213c70 0 142-36 172-102h173C713-87 565 12 409 12" id="z"/><path d="M62 0v-500h151v51c24-34 74-62 139-62 123 0 194 91 194 222V0H395v-263c0-69-27-111-81-111-57 0-101 41-101 131V0H62" id="A"/><path d="M62 0v-750h151V0H62" id="B"/><g id="c"><use transform="matrix(0.022222222222222223,0,0,0.022222222222222223,0,0)" xlink:href="#z"/><use transform="matrix(0.022222222222222223,0,0,0.022222222222222223,17.288888888888888,0)" xlink:href="#r"/><use transform="matrix(0.022222222222222223,0,0,0.022222222222222223,30.355555555555558,0)" xlink:href="#A"/><use transform="matrix(0.022222222222222223,0,0,0.022222222222222223,43.6,0)" xlink:href="#w"/><use transform="matrix(0.022222222222222223,0,0,0.022222222222222223,53.37777777777778,0)" xlink:href="#t"/><use transform="matrix(0.022222222222222223,0,0,0.022222222222222223,61.93333333333334,0)" xlink:href="#r"/><use transform="matrix(0.022222222222222223,0,0,0.022222222222222223,75,0)" xlink:href="#B"/></g><path d="M566-467c0 137-107 242-250 242h-82V0H75v-710h241c143 0 250 106 250 243zm-154 0c0-53-41-93-98-93h-80v186h80c57 0 98-41 98-93" id="C"/><path d="M264 11C133 11 32-108 32-250s101-261 232-261c67 0 116 34 136 61v-50h151V0H400v-50c-20 27-69 61-136 61zm34-137c68 0 114-52 114-124s-46-124-114-124-114 52-114 124 46 124 114 124" id="D"/><g id="d"><use transform="matrix(0.022222222222222223,0,0,0.022222222222222223,0,0)" xlink:href="#C"/><use transform="matrix(0.022222222222222223,0,0,0.022222222222222223,13.000000000000004,0)" xlink:href="#B"/><use transform="matrix(0.022222222222222223,0,0,0.022222222222222223,19.111111111111114,0)" xlink:href="#D"/><use transform="matrix(0.022222222222222223,0,0,0.022222222222222223,32.733333333333334,0)" xlink:href="#A"/><use transform="matrix(0.022222222222222223,0,0,0.022222222222222223,46.111111111111114,0)" xlink:href="#v"/></g><path d="M779-355c0 206-162 367-367 367C208 12 45-149 45-355s163-367 367-367c205 0 367 161 367 367zm-640 0c0 156 118 279 273 279 156 0 274-123 274-279S568-634 412-634c-155 0-273 123-273 279" id="E"/><path d="M74-193v-307h86v294c0 84 44 137 113 137 78 0 139-68 139-183v-248h86V0h-86v-77c-33 58-91 87-154 87C148 10 74-69 74-193" id="F"/><path d="M352-7c-113 35-230-6-230-141v-273H16v-79h106v-139h86v139h144v79H208v262c-8 91 77 95 144 75v77" id="G"/><path d="M167-77V0H81v-750h86v327c33-48 101-87 176-87 139 0 245 117 245 260S482 10 343 10c-75 0-143-39-176-87zm333-173c0-101-69-181-170-181s-170 80-170 181S229-69 330-69s170-80 170-181" id="H"/><path d="M564-250c0 144-111 260-261 260C152 10 41-106 41-250s111-260 262-260c150 0 261 116 261 260zm-435 0c0 100 70 180 174 180s173-80 173-180-69-180-173-180-174 80-174 180" id="I"/><path d="M81 0v-500h86v77c34-59 94-87 159-87 112 0 189 78 189 202V0h-85v-295c0-84-48-136-118-136-81 0-145 66-145 183V0H81" id="J"/><path d="M42-250c0-143 105-260 245-260 75 0 143 39 176 87v-327h86V0h-86v-77c-33 48-101 87-176 87C147 10 42-107 42-250zm428 0c0-101-69-181-170-181s-171 80-171 181S199-69 300-69s170-80 170-181" id="K"/><g id="e"><use transform="matrix(0.017777777777777778,0,0,0.017777777777777778,0,0)" xlink:href="#E"/><use transform="matrix(0.017777777777777778,0,0,0.017777777777777778,14.648888888888889,0)" xlink:href="#F"/><use transform="matrix(0.017777777777777778,0,0,0.017777777777777778,24.942222222222224,0)" xlink:href="#G"/><use transform="matrix(0.017777777777777778,0,0,0.017777777777777778,31.715555555555557,0)" xlink:href="#H"/><use transform="matrix(0.017777777777777778,0,0,0.017777777777777778,42.91555555555556,0)" xlink:href="#I"/><use transform="matrix(0.017777777777777778,0,0,0.017777777777777778,53.68888888888889,0)" xlink:href="#F"/><use transform="matrix(0.017777777777777778,0,0,0.017777777777777778,63.98222222222222,0)" xlink:href="#J"/><use transform="matrix(0.017777777777777778,0,0,0.017777777777777778,74.45333333333333,0)" xlink:href="#K"/></g><path d="M81 0v-500h86v97c28-75 96-115 179-98v89c-98-29-179 27-179 164V0H81" id="L"/><path d="M42-250c0-143 105-260 245-260 75 0 143 39 176 87v-77h86V0h-86v-77c-33 48-101 87-176 87C147 10 42-107 42-250zm428 0c0-101-69-181-170-181s-171 80-171 181S199-69 300-69s170-80 170-181" id="M"/><path d="M123 0v-421H17v-79h106v-101c-3-134 117-180 231-142v76c-67-21-145-16-145 75v92h145v79H209V0h-86" id="N"/><path d="M185-695c0 34-26 61-60 61s-62-27-62-61c0-33 28-61 62-61s60 28 60 61zM81 0v-500h86V0H81" id="O"/><path d="M555-176C527-68 429 10 303 10 151 10 42-107 42-250s109-260 261-260c126 0 224 78 252 186h-92c-22-63-82-107-160-107-104 0-174 80-174 181S199-69 303-69c78 0 138-44 160-107h92" id="P"/><g id="f"><use transform="matrix(0.017777777777777778,0,0,0.017777777777777778,0,0)" xlink:href="#G"/><use transform="matrix(0.017777777777777778,0,0,0.017777777777777778,6.773333333333333,0)" xlink:href="#L"/><use transform="matrix(0.017777777777777778,0,0,0.017777777777777778,12.977777777777778,0)" xlink:href="#M"/><use transform="matrix(0.017777777777777778,0,0,0.017777777777777778,24.177777777777777,0)" xlink:href="#N"/><use transform="matrix(0.017777777777777778,0,0,0.017777777777777778,30.702222222222222,0)" xlink:href="#N"/><use transform="matrix(0.017777777777777778,0,0,0.017777777777777778,37.22666666666667,0)" xlink:href="#O"/><use transform="matrix(0.017777777777777778,0,0,0.017777777777777778,41.653333333333336,0)" xlink:href="#P"/></g><path d="M81 0v-500h86v77c29-53 84-87 151-87 75 0 129 41 154 107 27-66 90-107 164-107 109 0 175 81 175 203V0h-86v-294c0-81-34-137-99-137-81 0-137 70-137 183V0h-86v-294c0-81-33-137-98-137-81 0-138 70-138 183V0H81" id="Q"/><g id="g"><use transform="matrix(0.017777777777777778,0,0,0.017777777777777778,0,0)" xlink:href="#N"/><use transform="matrix(0.017777777777777778,0,0,0.017777777777777778,6.524444444444445,0)" xlink:href="#L"/><use transform="matrix(0.017777777777777778,0,0,0.017777777777777778,12.711111111111114,0)" xlink:href="#I"/><use transform="matrix(0.017777777777777778,0,0,0.017777777777777778,23.484444444444446,0)" xlink:href="#Q"/></g><path d="M46-355c0-207 160-367 368-367 179 0 309 117 340 246h-98c-31-89-124-158-242-158-158 0-275 122-275 279S256-76 414-76c118 0 211-69 242-158h98C723-105 593 12 414 12 206 12 46-148 46-355" id="R"/><path d="M81 0v-750h86V0H81" id="S"/><g id="h"><use transform="matrix(0.017777777777777778,0,0,0.017777777777777778,0,0)" xlink:href="#R"/><use transform="matrix(0.017777777777777778,0,0,0.017777777777777778,14.008888888888889,0)" xlink:href="#I"/><use transform="matrix(0.017777777777777778,0,0,0.017777777777777778,24.782222222222224,0)" xlink:href="#J"/><use transform="matrix(0.017777777777777778,0,0,0.017777777777777778,35.14666666666667,0)" xlink:href="#G"/><use transform="matrix(0.017777777777777778,0,0,0.017777777777777778,41.92,0)" xlink:href="#L"/><use transform="matrix(0.017777777777777778,0,0,0.017777777777777778,48.10666666666667,0)" xlink:href="#I"/><use transform="matrix(0.017777777777777778,0,0,0.017777777777777778,58.88,0)" xlink:href="#S"/></g><path d="M81 209v-709h86v77c33-48 101-87 176-87 139 0 245 117 245 260S482 10 343 10c-75 0-143-39-176-87v286H81zm419-459c0-101-69-181-170-181s-170 80-170 181S229-69 330-69s170-80 170-181" id="T"/><path d="M528-152C503-64 421 10 294 10 148 10 42-101 42-250c0-146 98-260 254-260 157 0 252 128 240 283H129c3 91 76 159 166 159 62 0 115-24 145-84h88zm-83-143c-27-186-281-187-312 0h312" id="U"/><g id="i"><use transform="matrix(0.017777777777777778,0,0,0.017777777777777778,0,0)" xlink:href="#T"/><use transform="matrix(0.017777777777777778,0,0,0.017777777777777778,11.217777777777778,0)" xlink:href="#S"/><use transform="matrix(0.017777777777777778,0,0,0.017777777777777778,15.644444444444446,0)" xlink:href="#M"/><use transform="matrix(0.017777777777777778,0,0,0.017777777777777778,26.844444444444445,0)" xlink:href="#J"/><use transform="matrix(0.017777777777777778,0,0,0.017777777777777778,37.315555555555555,0)" xlink:href="#U"/></g><path d="M87 75C49 33 22-17 22-94c0-76 28-126 65-167h31c-38 41-64 92-64 168S80 34 118 75H87" id="V"/><path d="M631 20c-350 0-501-215-501-562 0-355 162-560 502-560 250 0 399 118 446 323l-192 14c-23-124-109-196-262-196-242 0-305 171-305 415 1 245 61 427 304 427 151 0 248-77 267-215l190 12C1039-107 883 20 631 20" id="W"/><path d="M615-1102c343 0 484 203 482 560-1 347-147 562-488 562-336 0-475-219-479-562-4-349 156-560 485-560zm-8 989c240 0 301-180 301-429 0-245-55-427-290-427-236 0-299 181-299 427 0 243 61 429 288 429" id="X"/><path d="M706-1102c241 0 344 136 343 381V0H868v-695c1-168-57-273-220-268-190 6-283 138-283 336V0H185c-3-360 6-732-6-1082h170c4 54 7 126 8 185h3c63-121 164-204 346-205" id="Y"/><path d="M682 16c-209 0-323-80-324-285v-671H190v-142h170l58-282h120v282h432v142H538v652c2 114 60 155 182 155 106 0 209-16 297-34v137C921-4 806 16 682 16" id="Z"/><path d="M839-1102c70 0 148 7 206 17v167c-112-18-268-36-363 15-129 69-208 203-208 395V0H294c-10-367 32-789-52-1082h171c21 75 41 161 48 250h5c67-152 152-270 373-270" id="aa"/><path d="M736-142h380V0H134v-142h422v-1200H267v-142h469v1342" id="ab"/><path d="M622-1349c296 4 497 117 497 404 0 282-193 424-485 431H353V0H162v-1349h460zm-15 684c195-3 320-88 320-277 0-184-129-255-328-254H353v531h254" id="ac"/><path d="M1000-272c3 95 12 159 101 161 21 0 41-3 59-7V-6c-44 10-86 16-139 16-141 2-191-84-197-217h-6C748-76 648 20 446 20c-207 0-318-120-318-322 0-266 194-348 454-354l236-4c12-191-40-305-222-305-140 0-220 47-232 172l-188-17c33-204 181-292 423-292 255 0 401 118 401 364v466zm-683-27c0 109 63 184 175 182 166-3 259-96 306-217 24-65 20-120 20-200-232 7-501-28-501 235" id="ad"/><path d="M617-1102c355 0 481 238 477 599H322c5 222 84 388 301 388 144 0 244-59 284-166l158 45C1002-72 854 20 623 20c-342 0-490-220-490-568 0-346 151-554 484-554zm291 461c-18-192-90-328-289-328-194 0-287 128-295 328h584" id="ae"/><path d="M496 0v-299h235V0H496" id="af"/><path d="M528 20c-247 0-343-132-343-381v-721h180v686c-4 177 45 284 224 277 194-8 279-136 279-336v-627h181c3 360-6 732 6 1082H885c-4-54-7-126-8-185h-3C809-64 714 20 528 20" id="ag"/><path d="M365-904c58-129 161-200 334-200 130 0 228 46 293 138s98 233 98 420c0 189-34 331-102 425S824 20 698 20c-170 0-275-64-336-184 0 55-3 116-9 164H179c5-68 6-147 6-223v-1261h180c-2 193 4 394-4 580h4zm283 791c221 0 256-197 256-427 0-229-34-425-254-425-236 0-285 195-285 441 0 237 53 411 283 411" id="ah"/><path d="M865-914c-3-187-2-380-2-570h180v1261c0 76 1 155 6 223H877c-8-49-9-116-10-174h-5C801-44 708 26 530 26c-135 0-234-46-297-139s-95-232-95-419c0-377 131-566 392-566 176 0 271 63 335 184zm-286-51c-222 0-255 197-255 427 0 229 31 425 253 425 237 0 286-195 286-441 0-238-52-411-284-411" id="ai"/><path d="M33-261c38 41 65 92 65 168S71 34 33 75H2C39 34 66-17 66-93S39-220 2-261h31" id="aj"/><g id="j"><use transform="matrix(0.04938271604938272,0,0,0.04938271604938272,0,0)" xlink:href="#V"/><use transform="matrix(0.008680555555555556,0,0,0.008680555555555556,5.8765432098765435,0)" xlink:href="#W"/><use transform="matrix(0.008680555555555556,0,0,0.008680555555555556,16.544945987654323,0)" xlink:href="#X"/><use transform="matrix(0.008680555555555556,0,0,0.008680555555555556,27.2133487654321,0)" xlink:href="#Y"/><use transform="matrix(0.008680555555555556,0,0,0.008680555555555556,37.88175154320988,0)" xlink:href="#Z"/><use transform="matrix(0.008680555555555556,0,0,0.008680555555555556,48.55015432098766,0)" xlink:href="#aa"/><use transform="matrix(0.008680555555555556,0,0,0.008680555555555556,59.21855709876544,0)" xlink:href="#X"/><use transform="matrix(0.008680555555555556,0,0,0.008680555555555556,69.88695987654322,0)" xlink:href="#ab"/><use transform="matrix(0.008680555555555556,0,0,0.008680555555555556,80.55536265432099,0)" xlink:href="#ac"/><use transform="matrix(0.008680555555555556,0,0,0.008680555555555556,91.22376543209876,0)" xlink:href="#ab"/><use transform="matrix(0.008680555555555556,0,0,0.008680555555555556,101.89216820987653,0)" xlink:href="#ad"/><use transform="matrix(0.008680555555555556,0,0,0.008680555555555556,112.5605709876543,0)" xlink:href="#Y"/><use transform="matrix(0.008680555555555556,0,0,0.008680555555555556,123.22897376543207,0)" xlink:href="#ae"/><use transform="matrix(0.008680555555555556,0,0,0.008680555555555556,133.89737654320984,0)" xlink:href="#af"/><use transform="matrix(0.008680555555555556,0,0,0.008680555555555556,144.5657793209876,0)" xlink:href="#X"/><use transform="matrix(0.008680555555555556,0,0,0.008680555555555556,155.2341820987654,0)" xlink:href="#ag"/><use transform="matrix(0.008680555555555556,0,0,0.008680555555555556,165.90258487654316,0)" xlink:href="#Z"/><use transform="matrix(0.008680555555555556,0,0,0.008680555555555556,176.57098765432093,0)" xlink:href="#ah"/><use transform="matrix(0.008680555555555556,0,0,0.008680555555555556,187.2393904320987,0)" xlink:href="#X"/><use transform="matrix(0.008680555555555556,0,0,0.008680555555555556,197.90779320987647,0)" xlink:href="#ag"/><use transform="matrix(0.008680555555555556,0,0,0.008680555555555556,208.57619598765424,0)" xlink:href="#Y"/><use transform="matrix(0.008680555555555556,0,0,0.008680555555555556,219.24459876543202,0)" xlink:href="#ai"/><use transform="matrix(0.04938271604938272,0,0,0.04938271604938272,229.91300154320982,0)" xlink:href="#aj"/></g><path d="M94 0v-710h93V0H94" id="ak"/><g id="k"><use transform="matrix(0.017777777777777778,0,0,0.017777777777777778,0,0)" xlink:href="#ak"/><use transform="matrix(0.017777777777777778,0,0,0.017777777777777778,4.96,0)" xlink:href="#J"/><use transform="matrix(0.017777777777777778,0,0,0.017777777777777778,15.431111111111111,0)" xlink:href="#H"/><use transform="matrix(0.017777777777777778,0,0,0.017777777777777778,26.63111111111111,0)" xlink:href="#I"/><use transform="matrix(0.017777777777777778,0,0,0.017777777777777778,37.404444444444444,0)" xlink:href="#F"/><use transform="matrix(0.017777777777777778,0,0,0.017777777777777778,47.69777777777777,0)" xlink:href="#J"/><use transform="matrix(0.017777777777777778,0,0,0.017777777777777778,58.16888888888889,0)" xlink:href="#K"/></g><g id="l"><use transform="matrix(0.017777777777777778,0,0,0.017777777777777778,0,0)" xlink:href="#N"/><use transform="matrix(0.017777777777777778,0,0,0.017777777777777778,6.293333333333335,0)" xlink:href="#I"/><use transform="matrix(0.017777777777777778,0,0,0.017777777777777778,17.066666666666666,0)" xlink:href="#L"/></g><path d="M214 209h-96L227-26 8-500h95l172 379 171-379h96" id="al"/><g id="m"><use transform="matrix(0.017777777777777778,0,0,0.017777777777777778,0,0)" xlink:href="#al"/><use transform="matrix(0.017777777777777778,0,0,0.017777777777777778,9.528888888888888,0)" xlink:href="#I"/><use transform="matrix(0.017777777777777778,0,0,0.017777777777777778,20.30222222222222,0)" xlink:href="#F"/><use transform="matrix(0.017777777777777778,0,0,0.017777777777777778,30.595555555555553,0)" xlink:href="#L"/></g><path d="M505 0L382-360 258 0h-76L12-500h90l121 365 125-365h66l125 365 121-365h91L581 0h-76" id="am"/><path d="M81 0v-750h86v445l218-195h114L253-279 554 0H438L167-250V0H81" id="an"/><g id="n"><use transform="matrix(0.017777777777777778,0,0,0.017777777777777778,0,0)" xlink:href="#J"/><use transform="matrix(0.017777777777777778,0,0,0.017777777777777778,10.471111111111112,0)" xlink:href="#U"/><use transform="matrix(0.017777777777777778,0,0,0.017777777777777778,20.64,0)" xlink:href="#G"/><use transform="matrix(0.017777777777777778,0,0,0.017777777777777778,27.413333333333334,0)" xlink:href="#am"/><use transform="matrix(0.017777777777777778,0,0,0.017777777777777778,40.94222222222223,0)" xlink:href="#I"/><use transform="matrix(0.017777777777777778,0,0,0.017777777777777778,51.71555555555556,0)" xlink:href="#L"/><use transform="matrix(0.017777777777777778,0,0,0.017777777777777778,58.22222222222223,0)" xlink:href="#an"/></g><g id="o"><use transform="matrix(0.017777777777777778,0,0,0.017777777777777778,0,0)" xlink:href="#G"/><use transform="matrix(0.017777777777777778,0,0,0.017777777777777778,6.648888888888889,0)" xlink:href="#I"/></g><path d="M745-142h380V0H143v-142h422v-798H246v-142h499v940zM545-1292v-192h200v192H545" id="ao"/><g id="p"><use transform="matrix(0.04938271604938272,0,0,0.04938271604938272,0,0)" xlink:href="#V"/><use transform="matrix(0.008680555555555556,0,0,0.008680555555555556,5.8765432098765435,0)" xlink:href="#W"/><use transform="matrix(0.008680555555555556,0,0,0.008680555555555556,16.544945987654323,0)" xlink:href="#X"/><use transform="matrix(0.008680555555555556,0,0,0.008680555555555556,27.2133487654321,0)" xlink:href="#Y"/><use transform="matrix(0.008680555555555556,0,0,0.008680555555555556,37.88175154320988,0)" xlink:href="#Z"/><use transform="matrix(0.008680555555555556,0,0,0.008680555555555556,48.55015432098766,0)" xlink:href="#aa"/><use transform="matrix(0.008680555555555556,0,0,0.008680555555555556,59.21855709876544,0)" xlink:href="#X"/><use transform="matrix(0.008680555555555556,0,0,0.008680555555555556,69.88695987654322,0)" xlink:href="#ab"/><use transform="matrix(0.008680555555555556,0,0,0.008680555555555556,80.55536265432099,0)" xlink:href="#ac"/><use transform="matrix(0.008680555555555556,0,0,0.008680555555555556,91.22376543209876,0)" xlink:href="#ab"/><use transform="matrix(0.008680555555555556,0,0,0.008680555555555556,101.89216820987653,0)" xlink:href="#ad"/><use transform="matrix(0.008680555555555556,0,0,0.008680555555555556,112.5605709876543,0)" xlink:href="#Y"/><use transform="matrix(0.008680555555555556,0,0,0.008680555555555556,123.22897376543207,0)" xlink:href="#ae"/><use transform="matrix(0.008680555555555556,0,0,0.008680555555555556,133.89737654320984,0)" xlink:href="#af"/><use transform="matrix(0.008680555555555556,0,0,0.008680555555555556,144.5657793209876,0)" xlink:href="#ao"/><use transform="matrix(0.008680555555555556,0,0,0.008680555555555556,155.2341820987654,0)" xlink:href="#Y"/><use transform="matrix(0.008680555555555556,0,0,0.008680555555555556,165.90258487654316,0)" xlink:href="#ah"/><use transform="matrix(0.008680555555555556,0,0,0.008680555555555556,176.57098765432093,0)" xlink:href="#X"/><use transform="matrix(0.008680555555555556,0,0,0.008680555555555556,187.2393904320987,0)" xlink:href="#ag"/><use transform="matrix(0.008680555555555556,0,0,0.008680555555555556,197.90779320987647,0)" xlink:href="#Y"/><use transform="matrix(0.008680555555555556,0,0,0.008680555555555556,208.57619598765424,0)" xlink:href="#ai"/><use transform="matrix(0.04938271604938272,0,0,0.04938271604938272,219.24459876543202,0)" xlink:href="#aj"/></g></defs></g></svg>