<?xml version="1.0" encoding="UTF-8"?>
<!DOCTYPE svg PUBLIC "-//W3C//DTD SVG 1.1//EN" "http://www.w3.org/Graphics/SVG/1.1/DTD/svg11.dtd">
<svg version="1.1" xmlns="http://www.w3.org/2000/svg" xmlns:xlink="http://www.w3.org/1999/xlink" x="0px" y="0px" width="600" height="150" viewBox="0, 0, 600, 150">
  <g id="Layer 1">
    <text transform="matrix(1, 0, 0, 1, 187.146, 76.328)">
      <tspan x="-179.396" y="-47.672" font-family="Inconsolata" font-size="24" fill="#004571">db.</tspan>
      <tspan x="-143.396" y="-47.672" font-family="Inconsolata" font-size="24" fill="#3299CC">users</tspan>
      <tspan x="-83.396" y="-47.672" font-family="Inconsolata" font-size="24" fill="#004571">.update(</tspan>
      <tspan x="-179.396" y="-21.672" font-family="Inconsolata" font-size="24" fill="#DD4F01">   </tspan>
      <tspan x="-143.396" y="-21.672" font-family="Inconsolata" font-size="24" fill="#3299CC">{ age: { $gt: 18 } }, </tspan>
      <tspan x="-179.396" y="4.328" font-family="Inconsolata" font-size="24" fill="#DD4F01">   </tspan>
      <tspan x="-143.396" y="4.328" font-family="Inconsolata" font-size="24" fill="#48A3D1">{</tspan>
      <tspan x="-131.396" y="4.328" font-family="Inconsolata" font-size="24" fill="#DD4F01"> </tspan>
      <tspan x="-119.396" y="4.328" font-family="Inconsolata" font-size="24" fill="#3299CC">$set: { status: "A" } }, </tspan>
      <tspan x="-179.396" y="30.328" font-family="Inconsolata" font-size="24" fill="#DE4F01">   </tspan>
      <tspan x="-143.396" y="30.328" font-family="Inconsolata" font-size="24" fill="#48A3D1">{</tspan>
      <tspan x="-131.396" y="30.328" font-family="Inconsolata" font-size="24" fill="#DE4F01"> </tspan>
      <tspan x="-119.396" y="30.328" font-family="Inconsolata" font-size="24" fill="#3299CC">multi: true }</tspan>
      <tspan x="-179.396" y="56.328" font-family="Inconsolata" font-size="24" fill="#004069">)</tspan>
    </text>
    <g>
      <g>
        <path d="M421.77,24.547 L378.843,24.348" fill-opacity="0" stroke="#6CB340" stroke-width="2"/>
        <path d="M378.86,20.748 L369.243,24.303 L378.826,27.948 z" fill="#6CB340" fill-opacity="1" stroke="#6CB340" stroke-width="2" stroke-opacity="1"/>
      </g>
      <text transform="matrix(1, 0, 0, 1, 485.711, 22.156)">
        <tspan x="-49.957" y="7.5" font-family="GillSans" font-size="24" fill="#3299CC">collection</tspan>
      </text>
    </g>
    <g>
      <g>
        <path d="M421.77,48.547 L378.843,48.348" fill-opacity="0" stroke="#6CB340" stroke-width="2"/>
        <path d="M378.86,44.748 L369.243,48.303 L378.826,51.948 z" fill="#6CB340" fill-opacity="1" stroke="#6CB340" stroke-width="2" stroke-opacity="1"/>
      </g>
      <text transform="matrix(1, 0, 0, 1, 515.484, 49.006)">
        <tspan x="-79.73" y="6.414" font-family="GillSans" font-size="24" fill="#3299CC">update criteria</tspan>
      </text>
    </g>
    <g>
      <g>
        <path d="M421.77,75.547 L378.843,75.348" fill-opacity="0" stroke="#6CB340" stroke-width="2"/>
        <path d="M378.86,71.748 L369.243,75.303 L378.826,78.948 z" fill="#6CB340" fill-opacity="1" stroke="#6CB340" stroke-width="2" stroke-opacity="1"/>
      </g>
      <text transform="matrix(1, 0, 0, 1, 515.484, 74.633)">
        <tspan x="-79.73" y="7.5" font-family="GillSans" font-size="24" fill="#3299CC">update action</tspan>
      </text>
    </g>
    <g>
      <g>
        <path d="M421.77,100.547 L378.843,100.348" fill-opacity="0" stroke="#6CB340" stroke-width="2"/>
        <path d="M378.86,96.748 L369.243,100.303 L378.826,103.948 z" fill="#6CB340" fill-opacity="1" stroke="#6CB340" stroke-width="2" stroke-opacity="1"/>
      </g>
      <text transform="matrix(1, 0, 0, 1, 515.484, 99.92)">
        <tspan x="-79.73" y="7.5" font-family="GillSans" font-size="24" fill="#3299CC">update option</tspan>
      </text>
    </g>
  </g>
  <defs/>
</svg>
