<svg xmlns="http://www.w3.org/2000/svg" height="120" width="620"><path d="M494.8 23.9l-43-.2" stroke="#5ca831" stroke-width="2" fill="none"/><path d="M451.8 20l-9.6 3.6 9.6 3.7z" fill="#5ca831"/><path d="M451.8 20l-9.6 3.6 9.6 3.7z" stroke="#5ca831" stroke-width="2" fill="none"/><path d="M508.7 20l4-4v2.2h3.5v2h-3.5v5.2q0 1.9 1.6 1.9 1.1 0 2.4-.8v2q-1.2.7-2.7.7-1.4 0-2.4-.9l-.5-.5-.4-.9v-6.8h-2V20zm16.3 2.5v4.6q0 .6.4.6t1.2-.6v1.3l-1.2.6q-.4.2-.9.2-1.3 0-1.6-1-1.3 1-2.9 1-1.1 0-1.9-.8-.7-.7-.7-1.8 0-1 .7-1.9.8-.8 2.1-1.2l2.7-1V22q0-1.9-2-1.9-1.7 0-3.3 1.8v-2.3q1.2-1.5 3.6-1.5 1.7 0 2.8 1l.6.7.4 1v1.8zm-2 4.4v-3.2l-1.5.5-1.5.9q-.5.4-.5 1 0 .8.4 1.2.5.4 1.2.4 1 0 1.8-.8zm5.4-14.3h2.2V19q1.3-1 3-1 2 0 3.3 1.5 1.3 1.6 1.3 4 0 2.6-1.6 4.2-1.5 1.5-4.1 1.5l-2.2-.2-1.9-.6V12.6zm2.2 8.4v6q1 .3 2.2.3 1.4 0 2.3-1 1-1 1-2.6t-1-2.6q-.8-1-2.1-1-1.2 0-2.4 1zm10-8.4h2.1V29h-2.1V12.6zM555 23.8h-7.6q.1 1.5 1 2.5 1 .9 2.5.9 2.1 0 4-1.3v2q-1 .7-2 1-1 .3-2.3.3-1.8 0-2.9-.8-1-.7-1.7-2-.7-1.2-.7-2.8 0-2.5 1.4-4 1.4-1.6 3.6-1.6t3.4 1.5q1.3 1.5 1.3 4v.3zm-7.5-1.3h5.4q0-1.3-.8-2-.6-.6-1.8-.6-1.1 0-1.9.7-.7.6-1 2z" font-size="24" font-family="GillSans" fill="#2a86c0"/><path d="M494.8 47.7l-43-.2" stroke="#5ca831" stroke-width="2" fill="none"/><path d="M451.8 44l-9.6 3.5 9.6 3.6z" fill="#5ca831"/><path d="M451.8 44l-9.6 3.5 9.6 3.6z" stroke="#5ca831" stroke-width="2" fill="none"/><path d="M518.3 52v2.2q-1.6.6-3.1.6-2.5 0-4-1.5-1.6-1.5-1.6-4 0-2.6 1.5-4.1 1.5-1.6 3.9-1.6.8 0 1.5.2.6.1 1.6.6v2.2q-1.6-1-3-1t-2.4 1q-.9 1-.9 2.6 0 1.7 1 2.6 1 1 2.7 1 1.2 0 2.8-.7zm7.6-8.2q2.5 0 4 1.6 1.7 1.6 1.7 4 0 2.3-1.6 3.9-1.7 1.5-4.2 1.5-2.4 0-4-1.6-1.7-1.5-1.7-3.9 0-2.3 1.7-4 1.6-1.5 4.1-1.5zm-.1 2q-1.6 0-2.5 1-1 1-1 2.5t1 2.5q1 1 2.6 1 1.5 0 2.5-1t1-2.5q0-1.6-1-2.6t-2.6-1zm8.2-7.6h2.1v16.4h-2V38.2zm12.1 16.4v-1.4q-.7.8-1.5 1.2-.9.4-1.8.4-1 0-1.9-.5-.8-.5-1.3-1.4-.4-.9-.4-2.9v-6.2h2.1V50q0 1.7.5 2.4.5.6 1.7.6 1.6 0 2.6-1.5v-7.7h2.2v10.8H546zm14-7.8v7.8H558v-6q0-1.8-.5-2.5t-1.7-.7q-.7 0-1.2.3-.6.3-1.3 1v7.9h-2.1V43.8h2.1v1.4q1.6-1.6 3.2-1.6 2 0 3.2 2 1.7-2 3.5-2 1.6 0 2.6 1.1 1 1.2 1 3.5v6.4h-2.1v-6.4q0-1.3-.5-2-.6-.8-1.6-.8-1.4 0-2.5 1.4zm11.8-3v1.4q1.4-1.6 3.2-1.6 1 0 1.9.5.9.6 1.3 1.5.5.9.5 2.8v6.2h-2.2v-6.1q0-1.7-.5-2.4t-1.7-.7q-1.5 0-2.5 1.5v7.7h-2.2V43.8h2.2zm9.3 10v-2.3q1 .7 1.8 1 1 .5 1.6.5.7 0 1.2-.4.5-.3.5-.8 0-.4-.4-.7-.3-.4-1.3-1-2-1-2.7-1.9-.6-.8-.6-1.8 0-1.2 1-2t2.4-.8q1.6 0 3.3.9v2.1q-2-1.1-3.1-1.1-.7 0-1 .2-.4.3-.4.7 0 .4.3.7l1.2.9.8.4q2.7 1.5 2.7 3.4 0 1.3-1 2.1-1 .9-2.7.9-1 0-1.7-.2-.8-.2-1.9-.8z" font-size="24" font-family="GillSans" fill="#2a86c0"/><path d="M494.8 73l-43-.2" stroke="#5ca831" stroke-width="2" fill="none"/><path d="M451.8 69.2l-9.6 3.5 9.6 3.7z" fill="#5ca831"/><path d="M451.8 69.2l-9.6 3.5 9.6 3.7z" stroke="#5ca831" stroke-width="2" fill="none"/><g font-size="24" font-family="GillSans"><path d="M516.8 68.8h2.4l-4.8 11h-.7l-4.9-11h2.3l3 6.6 2.7-6.6zm10.7 4.2v4.6q0 .6.4.6t1.2-.6V79l-1.2.7-.9.1q-1.4 0-1.6-1-1.4 1-2.9 1-1.1 0-1.9-.7-.7-.8-.7-2 0-1 .7-1.7.7-.8 2-1.3l2.8-1v-.5q0-2-2-2-1.7 0-3.3 1.8V70q1.2-1.4 3.6-1.4 1.7 0 2.8.9l.6.8q.3.4.3 1l.1 1.8zm-2 4.4v-3.2l-1.5.6q-1.1.4-1.6.8-.4.5-.4 1.1 0 .7.4 1.1.5.4 1.1.4 1 0 2-.8zm5.5-14.2h2.2v16.3H531V63.2zm12.2 16.3v-1.3q-.7.7-1.6 1.1-.9.4-1.7.4-1 0-1.9-.5-.9-.5-1.3-1.4-.4-.8-.4-2.9v-6.1h2v6.1q0 1.7.6 2.4.5.7 1.7.7 1.5 0 2.6-1.5v-7.7h2.1v10.7h-2.1zm14.3-5.2h-7.6q.1 1.6 1 2.5 1 1 2.5 1 2.1 0 4-1.4v2q-1 .7-2 1-1 .3-2.3.3-1.8 0-2.9-.7-1-.8-1.8-2-.6-1.3-.6-3 0-2.4 1.4-3.9t3.6-1.5q2.1 0 3.4 1.5 1.3 1.5 1.3 4v.2zm-7.5-1.2h5.4q-.1-1.3-.8-2-.7-.7-1.8-.7-1.2 0-1.9.7t-1 2zm9.3 5.7v-2.3l1.8 1q1 .4 1.6.4.7 0 1.1-.3.5-.4.5-.8 0-.5-.3-.8l-1.3-.9q-2-1.1-2.7-2-.7-.8-.7-1.7 0-1.3 1-2 1-.8 2.5-.8 1.6 0 3.2.8v2.2q-1.9-1.2-3-1.2-.7 0-1 .3-.4.2-.4.7 0 .3.3.7l1.2.8.8.4q2.7 1.6 2.7 3.4 0 1.3-1 2.2-1.1.8-2.7.8-1 0-1.7-.2l-2-.7zm8.2 1l4.7-16.9h1.7l-4.7 16.9h-1.7z" fill="#2a86c0"/><path d="M578 68.8v2.4l.1-.2q1.6-2.4 3.1-2.4 1.2 0 2.5 1.2l-1 1.8q-1.2-1-2.1-1-1 0-1.8 1t-.8 2.3v5.6h-2V68.8h2.1zm11.8-.1q2.5 0 4 1.6 1.7 1.6 1.7 4 0 2.3-1.6 3.9-1.7 1.5-4.2 1.5-2.4 0-4-1.5-1.7-1.6-1.7-4 0-2.3 1.7-3.9 1.6-1.6 4-1.6zm-.1 2q-1.6 0-2.5 1-1 1-1 2.5 0 1.6 1 2.6t2.6 1q1.5 0 2.5-1t1-2.6q0-1.5-1-2.5t-2.6-1zm21.3-1.9h2.4l-4.8 11h-.7l-3.2-7.6-3.1 7.5h-.7l-4.8-11h2.3l2.8 6.6 2.8-6.5h1.5l2.8 6.5 2.8-6.5z" fill="#2f1d12"/></g><g font-size="24" font-family="Inconsolata"><path d="M17 12h7.3v1.5h-3v12.1h3.2V27h-7.8v-1.4h3V13.5h-2.8V12zm11 15V12h1.6L36 23.1v-11h1.8v.2l-.2.4V27h-1.3l-6.6-11.8V27H28zm21.2-13.2l-1 1.5-.2-.2v-.3q-.5-.6-1.3-1-.7-.5-1.9-.5-1 0-1.8.7-.7.6-.7 1.5l.1 1 .6.7 1 .7 2 .8 1.8 1q.7.4 1.1.9.5.5.6 1 .2.6.2 1.3 0 .8-.3 1.6-.3.7-.9 1.4-.6.6-1.5 1-1 .3-2.3.3-2.9 0-4.6-1.9l1-1.7v.2l.1.3q.6.7 1.5 1.2 1 .4 2.3.4l1.2-.2q.6-.2 1-.6.4-.4.6-.9.3-.5.3-1t-.2-.9q-.1-.4-.5-.7l-1-.6-1.8-.8-2-1-1.2-.9q-.5-.5-.7-1l-.2-1.2q0-.8.4-1.5.3-.8 1-1.3.6-.5 1.4-.8.8-.3 1.8-.3 1.2 0 2.3.5 1 .4 1.8 1.3zm3-1.8h9.2v1.5h-7.6v5h6.3V20h-6.3v5.5h7.5V27h-9V12zm11.9 0h4.5q2.6 0 3.8 1.2 1.1 1.2 1.1 3.1 0 .7-.2 1.3l-.6 1.2-1 1q-.5.4-1.2.5l3.4 6.7h-1.8l-3.3-6.6h-3V27h-1.7V12zm1.8 1.6V19h2.9q1.6 0 2.3-.7.7-.7.7-1.9 0-.6-.2-1l-.5-.9-1-.6q-.5-.2-1.3-.2h-3zm9.6-1.6H86v1.5h-4.4V27h-1.7V13.5h-4.3V12zm25.5 0h7.3v1.5h-3v12.1h3.2V27h-7.8v-1.4h3V13.5h-2.8V12zm11 15V12h1.6l6.3 11.1v-11h1.8v.2l-.2.4V27h-1.3l-6.6-11.8V27H112zm11.5-15H134v1.5h-4.4V27h-1.7V13.5h-4.3V12zm17.4 15.2q-1.2 0-2.2-.5-1-.6-1.7-1.6t-1.1-2.4q-.4-1.5-.4-3.2 0-1.7.4-3.2.4-1.4 1.1-2.4.7-1 1.7-1.5t2.2-.5q1.1 0 2 .4 1 .5 1.7 1.4.7 1 1.1 2.4.4 1.4.4 3.4 0 2.2-.4 3.7-.5 1.4-1.2 2.3-.8 1-1.7 1.4-1 .3-1.9.3zm-2.5-3q1.1 1.4 2.5 1.4.6 0 1.3-.3.6-.3 1.1-1 .5-.7.8-1.8.3-1.2.3-3t-.3-3q-.3-1-.9-1.8l-1-1q-.6-.2-1.3-.2-.7 0-1.3.2-.6.3-1.2 1-.5.6-1 1.7-.2 1.2-.2 3 0 1.6.3 2.9.4 1.2.9 2z" fill="#053056"/><path d="M160.3 16h1.7v6.2q0 1 .2 1.7t.6 1.2q.3.4.8.6.4.2 1 .2.5 0 1-.3l1-.7q.4-.4.7-1.1.2-.7.2-1.7v-6h1.7v10q0 .5.2.9h-1.9v-1.7q-.5 1-1.4 1.5-1 .5-2 .5-.8 0-1.5-.3t-1.2-1q-.6-.6-.8-1.5-.3-1-.3-2.3V16zm20.9 1.5l-1 1.5q-.2 0-.2-.2v-.2q-.4-.6-1.2-1-.8-.5-1.8-.5l-1 .1-.7.3-.5.5q-.2.3-.2.7 0 .3.2.5l.4.4 1 .5 1.4.4q2 .6 2.9 1.4.9.7.9 1.8 0 .7-.3 1.4-.4.6-1 1.1-.6.5-1.4.8-.8.2-1.9.2-2.8 0-4.6-1.7l1-1.7v.2l.2.4.5.5 1.2.6.8.2 1 .1 1-.1.8-.4q.4-.2.6-.5.3-.3.3-.8 0-.6-.6-1t-2-1l-1.4-.4-1.2-.6-.7-.6-.5-.8-.2-1q0-.6.3-1 .3-.6.8-1l1.4-.7q.8-.2 1.7-.2 2.5 0 4 1.7zm7.8-1.7q.9 0 1.7.3.8.3 1.4 1 .6.6 1 1.5.4 1 .4 2.4v.8h-7.9q0 1.1.4 2 .4.7 1 1.2l1 .7 1.4.1q1.7 0 2.8-1.2l1 1q-1.4 1.6-3.9 1.6-1.2 0-2.2-.3-1-.4-1.7-1.1-.7-.7-1-1.8-.4-1-.4-2.4t.4-2.5q.4-1.1 1-1.8.7-.8 1.7-1.1.9-.4 2-.4zm-3.3 4.6h6V20q0-.6-.2-1-.2-.6-.6-1l-.9-.7q-.5-.2-1.1-.2-1.1 0-2 .8-1 .8-1.2 2.5zm11.5-4.4h1.8v2.1q.4-1.1 1.5-1.7 1.1-.6 2.4-.6 1.7 0 2.9 1.2l-.8 1.6-.5-.6-.5-.4q-.2-.2-.5-.2l-.7-.1q-.8 0-1.5.3-.7.4-1.2 1l-.9 1.4q-.3.8-.3 1.7V27h-1.7V16zm20 1.5l-1 1.5q-.2 0-.2-.2v-.2q-.4-.6-1.2-1-.8-.5-1.8-.5l-1 .1-.7.3-.5.5q-.2.3-.2.7 0 .3.2.5l.4.4 1 .5 1.4.4q2 .6 2.9 1.4.9.7.9 1.8 0 .7-.3 1.4-.4.6-1 1.1-.6.5-1.4.8-.8.2-1.9.2-2.8 0-4.6-1.7l1-1.7v.2l.2.4.5.5 1.2.6.8.2 1 .1 1-.1.8-.4q.4-.2.6-.5.3-.3.3-.8 0-.6-.6-1t-2-1l-1.4-.4-1.2-.6-.7-.6-.5-.8-.2-1q0-.6.3-1 .3-.6.8-1l1.4-.7q.8-.2 1.7-.2 2.5 0 4 1.7zm-48.5 21h-.4Q166 39.9 165 42q-1.2 2.1-1.2 4.9 0 1.3.4 2.6.3 1.3 1 2.5t1.6 2.2q1 1 2.2 1.7l-.8 1.3q-1.4-.8-2.5-1.9-1.2-1-2-2.4-.7-1.4-1.2-2.9-.4-1.6-.4-3.2t.4-3.1q.5-1.5 1.3-2.8.8-1.3 1.9-2.3 1.1-1 2.5-1.6l.7 1.5h-.2zM184.4 53V42h1.8v2q.6-1 1.6-1.6 1-.6 2-.6.7 0 1.3.2.7.3 1.1.8.5.6.7 1.4.3.9.3 2.2V53h-1.7v-6.6q0-1.7-.6-2.4t-1.4-.7l-1.2.2-1 .7q-.5.4-.8 1-.3.7-.3 1.5V53h-1.8zm12.6-9.7q1.5-1.5 3.9-1.5 2 0 3.2 1 1.1 1 1.1 3.4V53h-1.6v-1.2q-1.7 1.5-4 1.5-.8 0-1.5-.3t-1.1-.7q-.5-.4-.8-1l-.2-1q0-1.7 1.4-2.7 1.4-1 4.1-1h2V46q0-1.6-.6-2.2-.7-.7-2.1-.7-1.8 0-3 1.2l-.8-1zm6.7 4.6H202l-2.1.1q-.9.2-1.4.5-.4.3-.6.7-.2.4-.2.9 0 .7.7 1.3.7.5 1.6.5.8 0 1.3-.2l1-.5.7-.7.4-.6q.3-.5.3-1.3v-.7zm4 5.1V42h1.6v1.1q.4-.6 1-1 .6-.3 1.3-.3.7 0 1.2.4.5.5.7 1.2.3-.7 1-1.2.6-.4 1.4-.4 1.2 0 1.7.8t.5 2V53h-1.6v-9l-.3-.6-.4-.3h-.4l-.6.2-.6.6-.4 1-.1.9V53H212v-7.6q0-1.4-.3-1.9-.2-.4-.8-.4-.6 0-1.2.7-.5.7-.5 1.9V53h-1.6zM225 41.8q.9 0 1.7.3.8.3 1.4 1 .6.6 1 1.5.4 1 .4 2.4v.8h-7.9q0 1.1.4 2 .4.7 1 1.2l1 .7 1.4.1q1.7 0 2.8-1.2l1 1q-1.4 1.6-3.9 1.6-1.2 0-2.2-.3-1-.4-1.7-1.1-.7-.7-1-1.8-.4-1-.4-2.4t.4-2.5q.4-1.1 1-1.8.7-.8 1.7-1.1.9-.4 2-.4zm-3.3 4.6h6V46q0-.6-.2-1-.2-.6-.6-1l-.9-.7q-.5-.2-1.1-.2-1.1 0-2 .8-1 .8-1.2 2.5zm16.4 6.1q0 2-2.5 4.5l-.8-.7q.6-.6 1-1.3.5-.8.5-1.2l-.2-.5-.4-.3-.4-.5q-.2-.2-.2-.6 0-.6.4-1t1-.4q.6 0 1.1.6.5.5.5 1.4zm18.9-9.2q1.5-1.5 3.9-1.5 2 0 3.2 1 1.1 1 1.1 3.4V53h-1.6v-1.2q-1.7 1.5-4 1.5-.8 0-1.5-.3t-1.1-.7q-.5-.4-.8-1l-.2-1q0-1.7 1.4-2.7 1.4-1 4.1-1h2V46q0-1.6-.6-2.2-.7-.7-2.1-.7-1.8 0-3 1.2l-.8-1zm6.7 4.6H262l-2.1.1q-.9.2-1.4.5-.4.3-.6.7-.2.4-.2.9 0 .7.7 1.3.7.5 1.6.5.8 0 1.3-.2l1-.5.7-.7.4-.6q.3-.5.3-1.3v-.7zm6.8-4.1l-.5.8q-.2.4-.2.9l.2.9.5.8.8.5q.4.2 1 .2l.9-.2q.4-.2.7-.6.4-.3.6-.7l.2-1-.2-.8q-.2-.5-.6-.8-.3-.4-.8-.6-.4-.2-.9-.2-1 0-1.7.8zm4.4-1q1.2-1 2.8-1h.3l.2 1.4h-.6q-1.1 0-2 .4.6.9.6 1.9 0 .8-.3 1.5-.3.6-.9 1.2-.5.5-1.2.8-.7.3-1.5.3-.7 0-1.4-.3-.8.7-.8 1.2 0 .4.4.7.5.2 1.3.2h1.8l1.9.1q.8.2 1.3.6l.7.9.2 1q0 .7-.3 1.3-.3.6-1 1.1-.5.5-1.5.7-1 .3-2.2.3-1.3 0-2.3-.2-1-.2-1.5-.5-.6-.4-.9-.9-.3-.4-.3-1 0-1.3 1.8-2.4-.9-.4-.9-1.5 0-1 1.3-2-.8-.6-1.2-1.4-.5-.8-.5-1.6 0-.9.4-1.6.3-.7.9-1.2.5-.5 1.3-.8.7-.3 1.5-.3 1.6 0 2.6 1zm-4.2 9.6q-1.4.8-1.4 1.7 0 .5.3.8l.7.5 1.1.3 1.4.1q1.4 0 2.4-.5t1-1.4q-.1-.7-.6-1-.5-.4-1.5-.4h-3.4zM285 41.8q.9 0 1.7.3.8.3 1.4 1 .6.6 1 1.5.4 1 .4 2.4v.8h-7.9q0 1.1.4 2 .4.7 1 1.2l1 .7 1.4.1q1.7 0 2.8-1.2l1 1q-1.4 1.6-3.9 1.6-1.2 0-2.2-.3-1-.4-1.7-1.1-.7-.7-1-1.8-.4-1-.4-2.4t.4-2.5q.4-1.1 1-1.8.7-.8 1.7-1.1.9-.4 2-.4zm-3.3 4.6h6V46q0-.6-.2-1-.2-.6-.6-1l-.9-.7q-.5-.2-1.1-.2-1.1 0-2 .8-1 .8-1.2 2.5zm16.4 6.1q0 2-2.5 4.5l-.8-.7q.6-.6 1-1.3.5-.8.5-1.2l-.2-.5-.4-.3-.4-.5q-.2-.2-.2-.6 0-.6.4-1t1-.4q.6 0 1.1.6.5.5.5 1.4zm27.1-9l-1 1.5q-.2 0-.2-.2v-.2q-.4-.6-1.2-1-.8-.5-1.8-.5l-1 .1-.7.3-.5.5q-.2.3-.2.7 0 .3.2.5l.4.4 1 .5 1.4.4q2 .6 2.9 1.4.9.7.9 1.8 0 .7-.3 1.4-.4.6-1 1.1-.6.5-1.4.8-.8.2-1.9.2-2.8 0-4.6-1.7l1-1.7v.2l.2.4.5.5 1.2.6.8.2 1 .1 1-.1.8-.4q.4-.2.6-.5.3-.3.3-.8 0-.6-.6-1t-2-1l-1.4-.4-1.2-.6-.7-.6-.5-.8-.2-1q0-.6.3-1 .3-.6.8-1l1.4-.7q.8-.2 1.7-.2 2.5 0 4 1.7zm6.1-4.4l2-.3-.2.4v.2l-.3 2.6h3.6v1.4h-3.6l-.2 4v2q0 .8.3 1.2.2.5.6.8.3.2 1 .2 1 0 2.4-1l.6 1.4q-1.7 1.2-3.4 1.2-1.8 0-2.6-1t-.7-3.4v-2.2l.3-3.2h-2.6V42h2.6l.2-2.9zm9.7 4.2q1.5-1.5 3.9-1.5 2 0 3.2 1 1.1 1 1.1 3.4V53h-1.6v-1.2q-1.7 1.5-4 1.5-.8 0-1.5-.3t-1.1-.7q-.5-.4-.8-1l-.2-1q0-1.7 1.4-2.7 1.4-1 4.1-1h2V46q0-1.6-.6-2.2-.7-.7-2.1-.7-1.8 0-3 1.2l-.8-1zm6.7 4.6H346l-2.1.1q-.9.2-1.4.5-.4.3-.6.7-.2.4-.2.9 0 .7.7 1.3.7.5 1.6.5.8 0 1.3-.2l1-.5.7-.7.4-.6q.3-.5.3-1.3v-.7zm7.6-8.8l2-.3-.2.4v.2l-.3 2.6h3.6v1.4h-3.6l-.2 4v2q0 .8.3 1.2.2.5.6.8.3.2 1 .2 1 0 2.4-1l.6 1.4q-1.7 1.2-3.4 1.2-1.8 0-2.6-1t-.7-3.4v-2.2l.3-3.2h-2.6V42h2.6l.2-2.9zm9 2.9h1.7v6.2q0 1 .2 1.7t.6 1.2q.3.4.8.6.4.2 1 .2.5 0 1-.3l1-.7q.4-.4.7-1.1.2-.7.2-1.7v-6h1.7v10q0 .5.2.9h-1.9v-1.7q-.5 1-1.4 1.5-1 .5-2 .5-.8 0-1.5-.3t-1.2-1q-.6-.6-.8-1.5-.3-1-.3-2.3V42zm20.9 1.5l-1 1.5q-.2 0-.2-.2v-.2q-.4-.6-1.2-1-.8-.5-1.8-.5l-1 .1-.7.3-.5.5q-.2.3-.2.7 0 .3.2.5l.4.4 1 .5 1.4.4q2 .6 2.9 1.4.9.7.9 1.8 0 .7-.3 1.4-.4.6-1 1.1-.6.5-1.4.8-.8.2-1.9.2-2.8 0-4.6-1.7l1-1.7v.2l.2.4.5.5 1.2.6.8.2 1 .1 1-.1.8-.4q.4-.2.6-.5.3-.3.3-.8 0-.6-.6-1t-2-1l-1.4-.4-1.2-.6-.7-.6-.5-.8-.2-1q0-.6.3-1 .3-.6.8-1l1.4-.7q.8-.2 1.7-.2 2.5 0 4 1.7zm15.5-5l.4-1.5q1.5.7 2.7 1.8 1.2 1 2 2.3.8 1.3 1.3 2.8.4 1.5.4 3.1t-.4 3.1q-.5 1.6-1.4 2.9-.8 1.3-2 2.4-1.2 1-2.7 1.8l-.5-1.5q1.3-.6 2.2-1.5 1-1 1.7-2 .7-1.2 1-2.5.4-1.3.4-2.6 0-1.4-.3-2.6-.4-1.3-1-2.4-.8-1.1-1.7-2-1-1-2.1-1.6z" fill="#2a86c0"/><path d="M15.4 64h1.8L21 75.5 24.6 64h1.7l-5 15.1h-.8l-5.1-15zm11.8 15l5.2-15.2h.2L38.4 79h-1.7L35 74.6h-4.7L28.8 79h-1.6zm7.4-5.7l-2-5.7-2 5.7h4zm5.8-9.3h2l-.2.4v13.1h7.1V79h-9V64zM52 64h2v.4l-.2.4v9q0 1.3.2 2t.7 1.1q.4.5 1 .7.6.2 1.3.2l1.2-.2q.6-.2 1-.6.5-.5.7-1.2.3-.7.3-2V64h1.6v9.8q0 1.4-.3 2.4t-1 1.7q-.7.7-1.6 1-.9.4-2 .4-1 0-2-.4-.8-.3-1.5-1-.6-.6-1-1.5-.3-1-.3-2.6V64zm12.2 0h9.2v1.5h-7.6v5h6.3V72h-6.3v5.5h7.5V79h-9V64zm21 1.8l-1 1.5-.2-.2v-.3q-.5-.6-1.3-1-.7-.5-1.9-.5-1 0-1.8.7-.7.6-.7 1.5l.1 1 .6.7 1 .7 2 .8 1.8 1q.7.4 1.1.9.5.5.6 1 .2.6.2 1.3 0 .8-.3 1.6-.3.7-.9 1.4-.6.6-1.5 1-1 .3-2.3.3-2.9 0-4.6-1.9l1-1.7v.2l.1.3q.6.7 1.5 1.2 1 .4 2.3.4l1.2-.2q.6-.2 1-.6.4-.4.6-.9.3-.5.3-1t-.2-.9q-.1-.4-.5-.7l-1-.6-1.8-.8-2-1-1.2-.9q-.5-.5-.7-1l-.2-1.2q0-.8.4-1.5.3-.8 1-1.3.6-.5 1.4-.8.8-.3 1.8-.3 1.2 0 2.3.5 1 .4 1.8 1.3z" fill="#053056"/><path d="M168.7 64.5h-.4Q166 65.9 165 68q-1.2 2.1-1.2 4.9 0 1.3.4 2.6.3 1.3 1 2.5t1.6 2.2q1 1 2.2 1.7l-.8 1.3q-1.4-.8-2.5-1.9-1.2-1-2-2.4-.7-1.4-1.2-2.9-.4-1.6-.4-3.2t.4-3.1q.5-1.5 1.3-2.8.8-1.3 1.9-2.3 1.1-1 2.5-1.6l.7 1.5h-.2zm21.7 1.3l-.2-1.5q0-.6.3-1 .3-.3.8-.3.4 0 .7.4.3.3.3 1.1t-.8 3l-.6 1.6-1.3-.3.5-1.6q.3-.8.3-1.4zm-4.2 0l-.1-1.5q0-.6.3-1 .3-.3.7-.3.4 0 .7.4.4.3.4 1.1t-.8 3l-.6 1.6-1.3-.3.5-1.6.2-.7v-.7zm19 3.7l-1 1.5q-.2 0-.2-.2v-.2q-.4-.6-1.2-1-.8-.5-1.8-.5l-1 .1-.7.3-.5.5q-.2.3-.2.7 0 .3.2.5l.4.4 1 .5 1.4.4q2 .6 2.9 1.4.9.7.9 1.8 0 .7-.3 1.4-.4.6-1 1.1-.6.5-1.4.8-.8.2-1.9.2-2.8 0-4.6-1.7l1-1.7v.2l.2.4.5.5 1.2.6.8.2 1 .1 1-.1.8-.4q.4-.2.6-.5.3-.3.3-.8 0-.6-.6-1t-2-1l-1.4-.4-1.2-.6-.7-.6-.5-.8-.2-1q0-.6.3-1 .3-.6.8-1l1.4-.7q.8-.2 1.7-.2 2.5 0 4 1.7zm3.1-1.5h1.7v6.2q0 1 .2 1.7t.6 1.2q.3.4.8.6.4.2 1 .2.5 0 1-.3l1-.7q.4-.4.7-1.1.2-.7.2-1.7v-6h1.7v10q0 .5.2.9h-1.9v-1.7q-.5 1-1.4 1.5-1 .5-2 .5-.8 0-1.5-.3t-1.2-1q-.6-.6-.8-1.5-.3-1-.3-2.3V68zm16.7-.2q.9 0 1.7.3.8.3 1.4 1 .6.6 1 1.5.4 1 .4 2.4v.8h-7.9q0 1.1.4 2 .4.7 1 1.2l1 .7 1.4.1q1.7 0 2.8-1.2l1 1q-1.4 1.6-3.9 1.6-1.2 0-2.2-.3-1-.4-1.7-1.1-.7-.7-1-1.8-.4-1-.4-2.4t.4-2.5q.4-1.1 1-1.8.7-.8 1.7-1.1.9-.4 2-.4zm-3.3 4.6h6V72q0-.6-.2-1-.2-.6-.6-1l-.9-.7q-.5-.2-1.1-.2-1.1 0-2 .8-1 .8-1.2 2.5zm16.7-6.6l-.2-1.5q0-.6.3-1 .3-.3.8-.3.4 0 .7.4.3.3.3 1.1t-.8 3l-.6 1.6-1.3-.3.5-1.6q.3-.8.3-1.4zm-4.2 0l-.1-1.5q0-.6.3-1 .3-.3.7-.3.4 0 .7.4.4.3.4 1.1t-.8 3l-.6 1.6-1.3-.3.5-1.6.2-.7v-.7zm15.9 12.7q0 2-2.5 4.5l-.8-.7q.6-.6 1-1.3.5-.8.5-1.2l-.2-.5-.4-.3-.4-.5q-.2-.2-.2-.6 0-.6.4-1t1-.4q.6 0 1.1.6.5.5.5 1.4zm18.6-12.1q.6-1.2 1.7-1.8 1.2-.6 2.5-.6.8 0 1.6.3t1.4.9q.6.6 1 1.3.3.8.3 1.7l-.2 1.3-.5 1.2-.8 1-1 1-1.4 1.3-.7.7-.8.9-.7 1-.6 1h6.3l.2-.2h.3V79h-8.7v-1q.8-1.8 1.9-3 1-1.4 2-2.2l1.1-1 1-1 .6-1 .3-.8v-.8q0-.6-.2-1l-.6-1-.9-.5q-.5-.3-1-.3-.6 0-1.1.2l-.9.4-.6.6-.2.4-.1.3-1.2-1zm17-2.5q1.9 0 3.3 1.3l-1.2 1.3-.3-.4q0-.2-.3-.3-.4-.3-.8-.3l-.7-.1-1 .2q-.7.2-1.3.8l-1 1.8q-.3 1.2-.3 3 .5-.9 1.3-1.4.9-.4 1.8-.4t1.6.3q.8.3 1.3 1 .6.6.9 1.6.3.8.3 2 0 1-.3 2-.3.9-1 1.6-.5.6-1.3 1-.7.3-1.6.3-1.2 0-2-.4-.9-.5-1.5-1.5-.6-.9-.9-2.2-.3-1.3-.3-3 0-2 .4-3.5t1-2.6q.7-1 1.7-1.6 1-.5 2.2-.5zm-3.5 9v.5q0 1 .2 1.7.2.8.6 1.4.4.6 1 1 .5.3 1.1.3 1 0 1.8-1 .8-.8.8-2.5 0-1-.2-1.6l-.7-1q-.3-.5-.8-.7l-1-.2q-.8 0-1.6.6t-1.2 1.4zm15.9 5.6q0 2-2.5 4.5l-.8-.7q.6-.6 1-1.3.5-.8.5-1.2l-.2-.5-.4-.3-.4-.5q-.2-.2-.2-.6 0-.6.4-1t1-.4q.6 0 1.1.6.5.5.5 1.4zm24.3-12.7l-.2-1.5q0-.6.3-1 .3-.3.8-.3.4 0 .7.4.3.3.3 1.1t-.8 3l-.6 1.6-1.3-.3.5-1.6q.3-.8.3-1.4zm-4.2 0l-.1-1.5q0-.6.3-1 .3-.3.7-.3.4 0 .7.4.4.3.4 1.1t-.8 3l-.6 1.6-1.3-.3.5-1.6.2-.7v-.7zm9 13.2l5.2-15.2h.2l5.8 15.2h-1.7l-1.7-4.4h-4.7l-1.5 4.4h-1.6zm7.4-5.7l-2-5.7-2 5.7h4zm11.8-7.5l-.2-1.5q0-.6.3-1 .3-.3.8-.3.4 0 .7.4.3.3.3 1.1t-.8 3l-.6 1.6-1.3-.3.5-1.6q.3-.8.3-1.4zm-4.2 0l-.1-1.5q0-.6.3-1 .3-.3.7-.3.4 0 .7.4.4.3.4 1.1t-.8 3l-.6 1.6-1.3-.3.5-1.6.2-.7v-.7zm22.5-1.3l.4-1.5q1.5.7 2.7 1.8 1.2 1 2 2.3.8 1.3 1.3 2.8.4 1.5.4 3.1t-.4 3.1q-.5 1.6-1.4 2.9-.8 1.3-2 2.4-1.2 1-2.7 1.8l-.5-1.5q1.3-.6 2.2-1.5 1-1 1.7-2 .7-1.2 1-2.5.4-1.3.4-2.6 0-1.4-.3-2.6-.4-1.3-1-2.4-.8-1.1-1.7-2-1-1-2.1-1.6z" fill="#2a86c0"/></g></svg>