<?xml version="1.0" encoding="UTF-8"?>
<!DOCTYPE svg PUBLIC "-//W3C//DTD SVG 1.1//EN" "http://www.w3.org/Graphics/SVG/1.1/DTD/svg11.dtd">
<svg version="1.1" xmlns="http://www.w3.org/2000/svg" xmlns:xlink="http://www.w3.org/1999/xlink" x="0px" y="0px" width="330" height="280" viewBox="0, 0, 330, 280">
  <g id="Layer 1">
    <g>
      <path d="M13.591,10.044 L200.191,10.044 L200.191,157.086 L13.591,157.086 z" fill-opacity="0" stroke="#5CA831" stroke-width="2"/>
      <text transform="matrix(1, 0, 0, 1, 104.524, 82.044)">
        <tspan x="-86.433" y="-44.5" font-family="Inconsolata" font-size="24" fill="#5CA831">{</tspan>
        <tspan x="-74.433" y="-44.5" font-family="Inconsolata" font-size="24" fill="#2A86C0"> </tspan>
        <tspan x="-86.433" y="-18.5" font-family="Inconsolata" font-size="24" fill="#D33907">  </tspan>
        <tspan x="-62.433" y="-18.5" font-family="Inconsolata" font-size="24" fill="#173182">name</tspan>
        <tspan x="-14.433" y="-18.5" font-family="Inconsolata" font-size="24" fill="#2A86C0">: "sue", </tspan>
        <tspan x="-86.433" y="7.5" font-family="Inconsolata" font-size="24" fill="#D33907">  </tspan>
        <tspan x="-62.433" y="7.5" font-family="Inconsolata" font-size="24" fill="#173182">age</tspan>
        <tspan x="-26.433" y="7.5" font-family="Inconsolata" font-size="24" fill="#2A86C0">: 26,</tspan>
        <tspan x="-86.433" y="33.5" font-family="Inconsolata" font-size="24" fill="#D33907">  </tspan>
        <tspan x="-62.433" y="33.5" font-family="Inconsolata" font-size="24" fill="#173182">status</tspan>
        <tspan x="9.567" y="33.5" font-family="Inconsolata" font-size="24" fill="#2A86C0">: "A"</tspan>
        <tspan x="-86.433" y="59.5" font-family="Inconsolata" font-size="24" fill="#62AB37">}</tspan>
      </text>
    </g>
    <g>
      <g>
        <path d="M70.576,40.296 L257.176,40.296 L257.176,187.337 L70.576,187.337 z" fill="#FFFFFF"/>
        <path d="M70.576,40.296 L257.176,40.296 L257.176,187.337 L70.576,187.337 z" fill-opacity="0" stroke="#5CA831" stroke-width="2"/>
      </g>
      <text transform="matrix(1, 0, 0, 1, 161.508, 112.296)">
        <tspan x="-86.433" y="-44.5" font-family="Inconsolata" font-size="24" fill="#5CA831">{</tspan>
        <tspan x="-74.433" y="-44.5" font-family="Inconsolata" font-size="24" fill="#2A86C0"> </tspan>
        <tspan x="-86.433" y="-18.5" font-family="Inconsolata" font-size="24" fill="#D33907">  </tspan>
        <tspan x="-62.433" y="-18.5" font-family="Inconsolata" font-size="24" fill="#173182">name</tspan>
        <tspan x="-14.433" y="-18.5" font-family="Inconsolata" font-size="24" fill="#2A86C0">: "lee", </tspan>
        <tspan x="-86.433" y="7.5" font-family="Inconsolata" font-size="24" fill="#D33907">  </tspan>
        <tspan x="-62.433" y="7.5" font-family="Inconsolata" font-size="24" fill="#173182">age</tspan>
        <tspan x="-26.433" y="7.5" font-family="Inconsolata" font-size="24" fill="#2A86C0">: 38,</tspan>
        <tspan x="-86.433" y="33.5" font-family="Inconsolata" font-size="24" fill="#D33907">  </tspan>
        <tspan x="-62.433" y="33.5" font-family="Inconsolata" font-size="24" fill="#173182">status</tspan>
        <tspan x="9.567" y="33.5" font-family="Inconsolata" font-size="24" fill="#2A86C0">: "A"</tspan>
        <tspan x="-86.433" y="59.5" font-family="Inconsolata" font-size="24" fill="#5CA831">}</tspan>
      </text>
    </g>
    <g>
      <g>
        <path d="M128.5,70.217 L315.1,70.217 L315.1,217.259 L128.5,217.259 z" fill="#FFFFFF"/>
        <path d="M128.5,70.217 L315.1,70.217 L315.1,217.259 L128.5,217.259 z" fill-opacity="0" stroke="#5CA831" stroke-width="2"/>
      </g>
      <text transform="matrix(1, 0, 0, 1, 219.433, 142.217)">
        <tspan x="-86.433" y="-44.5" font-family="Inconsolata" font-size="24" fill="#5CA831">{</tspan>
        <tspan x="-74.433" y="-44.5" font-family="Inconsolata" font-size="24" fill="#2A86C0"> </tspan>
        <tspan x="-86.433" y="-18.5" font-family="Inconsolata" font-size="24" fill="#D33907">  </tspan>
        <tspan x="-62.433" y="-18.5" font-family="Inconsolata" font-size="24" fill="#173182">name</tspan>
        <tspan x="-14.433" y="-18.5" font-family="Inconsolata" font-size="24" fill="#2A86C0">: "al", </tspan>
        <tspan x="-86.433" y="7.5" font-family="Inconsolata" font-size="24" fill="#D33907">  </tspan>
        <tspan x="-62.433" y="7.5" font-family="Inconsolata" font-size="24" fill="#173182">age</tspan>
        <tspan x="-26.433" y="7.5" font-family="Inconsolata" font-size="24" fill="#2A86C0">: 18,</tspan>
        <tspan x="-86.433" y="33.5" font-family="Inconsolata" font-size="24" fill="#D33907">  </tspan>
        <tspan x="-62.433" y="33.5" font-family="Inconsolata" font-size="24" fill="#173182">status</tspan>
        <tspan x="9.567" y="33.5" font-family="Inconsolata" font-size="24" fill="#2A86C0">: "D"</tspan>
        <tspan x="-86.433" y="59.5" font-family="Inconsolata" font-size="24" fill="#5CA831">}</tspan>
      </text>
    </g>
    <path d="M602.883,354.44 L602.833,354.833" fill-opacity="0" stroke="#5CA831" stroke-width="2"/>
    <text transform="matrix(1, 0, 0, 1, 175, 248.924)">
      <tspan x="-60.488" y="9.342" font-family="GillSans" font-size="28" fill="#173182">Collection</tspan>
    </text>
  </g>
  <defs/>
</svg>
