<svg xmlns="http://www.w3.org/2000/svg" height="580" width="640"><path d="M68.8 84.6l.1-2.4q0-1.6-.6-2.1-.5-.6-1.5-.6h-.5v-1.3h.4q1.1 0 1.7-.6.6-.6.6-2V74q0-4.2 4.3-4.2h1.5v1.4h-2q-2.2 0-2.2 2.5v1.7q0 2.7-2 3.6 2 .6 2 3.7v2q0 1.6.6 2.2.7.7 2.3.7h1.3v1.3h-2.9q-1-.2-1.7-.7-1.4-1-1.4-3.5zM96.6 116v-11h1.8v2q.6-1 1.6-1.6 1-.6 2-.6.7 0 1.3.2.7.3 1.1.8.5.6.7 1.4.3.9.3 2.2v6.6h-1.7v-6.6q0-1.7-.6-2.4t-1.5-.7l-1 .2q-.7.3-1.1.7-.5.4-.8 1-.3.7-.3 1.5v6.3h-1.8zm12.6-9.7q1.4-1.5 3.9-1.5 2 0 3.2 1 1.1 1 1.1 3.4v6.8h-1.6v-1.2q-1.7 1.5-4 1.5-.8 0-1.5-.3t-1.1-.7q-.5-.4-.8-1l-.2-1q0-1.7 1.4-2.7 1.4-1 4.1-1h2v-.5q0-1.6-.6-2.2-.7-.7-2.1-.7-1.8 0-3 1.2l-.8-1zm6.7 4.6h-1.7l-2.1.1q-.9.2-1.4.5-.4.3-.6.7-.2.4-.2.9 0 .7.7 1.3.6.5 1.6.5.8 0 1.3-.2l1-.5.7-.7.4-.6q.3-.5.3-1.3v-.7zm4.1 5.1v-11h1.5v1.1q.4-.6 1-1 .6-.3 1.3-.3.6 0 1.2.4.5.5.7 1.2.3-.7 1-1.2.6-.4 1.4-.4 1.1 0 1.7.8.5.8.5 2v8.4h-1.6v-7.8l-.1-1.2q0-.4-.2-.6l-.4-.3h-.4l-.6.2-.6.6-.4 1-.1.9v7.2h-1.6v-7.6q0-1.4-.3-1.9-.2-.4-.8-.4-.6 0-1.2.7-.5.7-.5 1.9v7.3h-1.6zm17.2-11.2q.9 0 1.7.3.8.3 1.4 1 .6.6 1 1.5.4 1 .4 2.4v.8h-7.9q0 1.1.4 2l.9 1.2 1.2.7 1.3.1q1.7 0 2.8-1.2l1 1q-1.4 1.6-3.9 1.6-1.2 0-2.2-.3-1-.4-1.7-1.1-.7-.7-1-1.8-.4-1-.4-2.4t.4-2.5q.4-1.1 1-1.8.7-.8 1.6-1.1 1-.4 2-.4zm-3.3 4.6h6v-.4q0-.6-.2-1-.2-.6-.6-1l-.9-.7q-.5-.2-1.1-.2-1.1 0-2 .8-1 .8-1.2 2.5zm15.8-3.1q.5.4.5 1 0 .5-.5.9-.4.4-1 .4-.5 0-1-.4-.4-.4-.4-1 0-.5.4-1 .5-.4 1-.4.6 0 1 .5zm0 7.6q.5.4.5 1 0 .5-.5 1-.4.4-1 .4t-1-.4q-.4-.4-.4-1t.4-1q.5-.4 1-.4.6 0 1 .4zm24.9-11.1l-.2-1.5q0-.6.3-1 .3-.3.7-.3.5 0 .8.4.3.3.3 1.1t-.8 3l-.6 1.6-1.3-.3.5-1.6q.3-.8.3-1.4zm-4.2 0l-.1-1.5q0-.6.3-1 .3-.3.7-.3.4 0 .7.4.4.3.4 1.1t-.8 3l-.6 1.6-1.3-.3.5-1.6.2-.7v-.7zm19 3.7l-1 1.5q-.2 0-.2-.2v-.2q-.4-.6-1.2-1-.8-.5-1.8-.5l-1 .1-.7.3-.5.5q-.2.3-.2.7 0 .3.2.5l.4.4.9.5 1.5.4q2 .6 2.9 1.4.9.7.9 1.8 0 .7-.4 1.4-.3.6-.9 1.1-.6.5-1.4.8-.8.2-1.9.2-2.8 0-4.6-1.7l1-1.7v.2l.2.4.5.5 1.2.6.8.2 1 .1 1-.1.8-.4q.4-.2.6-.5.3-.3.3-.8 0-.6-.6-1t-2.1-.9l-1.4-.4-1.2-.6-.7-.6q-.4-.4-.5-.8l-.2-1q0-.6.3-1 .3-.6.8-1l1.4-.7q.8-.2 1.7-.2 2.5 0 4 1.7zm3.1-1.5h1.7v6.2q0 1 .2 1.7t.6 1.2q.3.4.8.6.4.2 1 .2.5 0 1-.3l1-.7q.4-.4.6-1.1.3-.7.3-1.7v-6h1.7v10q0 .5.2.9h-1.9v-1.7q-.5 1-1.4 1.5-1 .5-2 .5-.8 0-1.5-.3t-1.2-1q-.6-.6-.8-1.5-.3-1-.3-2.3V105zm16.7-.2q.9 0 1.7.3.8.3 1.4 1 .6.6 1 1.5.4 1 .4 2.4v.8h-7.9q0 1.1.4 2l.9 1.2 1.2.7 1.3.1q1.7 0 2.8-1.2l1 1q-1.4 1.6-3.9 1.6-1.2 0-2.2-.3-1-.4-1.7-1.1-.7-.7-1-1.8-.4-1-.4-2.4t.4-2.5q.4-1.1 1-1.8.7-.8 1.6-1.1 1-.4 2-.4zm-3.3 4.6h6v-.4q0-.6-.2-1-.2-.6-.6-1l-.9-.7q-.5-.2-1.1-.2-1.1 0-2 .8-1 .8-1.2 2.5zm16.7-6.6l-.2-1.5q0-.6.3-1 .3-.3.7-.3.5 0 .8.4.3.3.3 1.1t-.8 3l-.6 1.6-1.3-.3.5-1.6q.3-.8.3-1.4zm-4.2 0l-.1-1.5q0-.6.3-1 .3-.3.7-.3.4 0 .7.4.4.3.4 1.1t-.8 3l-.6 1.6-1.3-.3.5-1.6.2-.7v-.7zm15.9 12.7q0 2-2.5 4.5l-.8-.7q.6-.6 1-1.3.5-.8.5-1.2l-.2-.5-.4-.3-.4-.5q-.2-.2-.2-.6 0-.6.4-1t1-.4q.6 0 1.1.6.5.5.5 1.4zM97.2 135.3q1.4-1.5 3.9-1.5 2 0 3.2 1 1.1 1 1.1 3.4v6.8h-1.6v-1.2q-1.7 1.5-4 1.5-.8 0-1.5-.3t-1.1-.7q-.5-.4-.8-1l-.2-1q0-1.7 1.4-2.7 1.4-1 4.1-1h2v-.5q0-1.6-.6-2.2-.7-.7-2.1-.7-1.8 0-3 1.2l-.8-1zm6.7 4.6h-1.7l-2.1.1q-.9.2-1.4.5-.4.3-.6.7-.2.4-.2.9 0 .7.7 1.3.6.5 1.6.5.8 0 1.3-.2l1-.5.7-.7.4-.6q.3-.5.3-1.3v-.7zm6.8-4.1l-.5.8q-.2.4-.2.9l.2.9.5.8.8.5q.4.2 1 .2l.9-.2q.4-.2.7-.6.4-.3.6-.7l.1-1-.1-.8q-.2-.5-.6-.8-.3-.4-.8-.6-.4-.2-.9-.2-1 0-1.7.8zm4.4-1q1.2-1 2.8-1h.3l.2 1.4h-.6q-1.1 0-2 .4.6.9.6 1.9 0 .8-.3 1.5-.3.6-.9 1.2-.5.5-1.2.8-.7.3-1.6.3-.6 0-1.3-.3-.8.7-.8 1.2 0 .4.4.7.5.2 1.3.2h1.8l1.9.1q.8.2 1.3.6l.7.9.2 1q0 .7-.3 1.3-.3.6-1 1.1-.6.5-1.5.7-1 .3-2.2.3-1.3 0-2.3-.2-1-.2-1.5-.5-.6-.4-.9-.9-.3-.4-.3-1 0-1.3 1.8-2.4-.9-.4-.9-1.5 0-1 1.3-2-.8-.6-1.2-1.4-.5-.8-.5-1.6 0-.9.4-1.6.3-.7.9-1.2.5-.5 1.3-.8.7-.3 1.5-.3 1.6 0 2.6 1zm-4.2 9.6q-1.4.8-1.4 1.7 0 .5.3.8.2.3.7.5l1.1.3 1.4.1q1.4 0 2.4-.5t1-1.4q-.1-.7-.6-1-.5-.4-1.6-.4H111zm14.3-10.6q.9 0 1.7.3.8.3 1.4 1 .6.6 1 1.5.4 1 .4 2.4v.8h-7.9q0 1.1.4 2l.9 1.2 1.2.7 1.3.1q1.7 0 2.8-1.2l1 1q-1.4 1.6-3.9 1.6-1.2 0-2.2-.3-1-.4-1.7-1.1-.7-.7-1-1.8-.4-1-.4-2.4t.4-2.5q.4-1.1 1-1.8.7-.8 1.6-1.1 1-.4 2-.4zm-3.3 4.6h6v-.4q0-.6-.2-1-.2-.6-.6-1l-.9-.7q-.5-.2-1.1-.2-1.1 0-2 .8-1 .8-1.2 2.5zm15.8-3.1q.5.4.5 1 0 .5-.5.9-.4.4-1 .4-.5 0-1-.4-.4-.4-.4-1 0-.5.4-1 .5-.4 1-.4.6 0 1 .5zm0 7.6q.5.4.5 1 0 .5-.5 1-.4.4-1 .4t-1-.4q-.4-.4-.4-1t.4-1q.5-.4 1-.4.6 0 1 .4zm19.2-10.5q.6-1.2 1.7-1.8 1.2-.6 2.4-.6 1 0 1.7.3.8.3 1.4.9.6.6 1 1.3.3.8.3 1.7l-.2 1.3-.6 1.2-.7 1-1 1-1.4 1.3-.7.7-.8.9-.7 1-.6 1h6.3l.2-.2h.3v1.6h-8.7v-1q.8-1.8 1.9-3 1-1.4 2-2.2l1.1-1 1-1 .6-1 .3-.8v-.8q0-.6-.2-1l-.6-1-.9-.5q-.5-.3-1-.3-.6 0-1.1.2l-.9.4-.6.6-.2.4-.1.3-1.2-1zm17-2.5q1.9 0 3.3 1.3l-1.2 1.3-.3-.4q0-.2-.3-.3-.4-.3-.8-.3l-.7-.1-1 .2q-.7.2-1.3.8l-1 1.8q-.3 1.2-.3 3 .5-.9 1.3-1.4.9-.4 1.8-.4t1.6.3q.8.3 1.3 1 .6.6.9 1.6.3.8.3 2 0 1-.3 2-.3.9-1 1.6-.5.6-1.3 1-.7.3-1.6.3-1.2 0-2-.4-.9-.5-1.5-1.5-.6-.9-.9-2.2-.3-1.3-.3-3 0-2 .4-3.5t1-2.6q.7-1 1.7-1.6 1-.5 2.2-.5zm-3.5 9v.5q0 1 .2 1.7.2.8.6 1.4.4.6 1 1 .5.3 1.1.3 1 0 1.8-1 .8-.8.8-2.5 0-1-.2-1.6l-.7-1q-.3-.5-.8-.7l-1-.2q-.8 0-1.6.6t-1.2 1.4zm15.9 5.6q0 2-2.5 4.5l-.8-.7q.6-.6 1-1.3.5-.8.5-1.2l-.2-.5-.4-.3-.4-.5q-.2-.2-.2-.6 0-.6.4-1t1-.4q.6 0 1.1.6.5.5.5 1.4zm-80.9 21l-1 1.5q-.2 0-.2-.2v-.2q-.4-.6-1.2-1-.8-.5-1.8-.5l-1 .1-.7.3-.5.5q-.2.3-.2.7 0 .3.2.5l.4.4.9.5 1.5.4q2 .6 2.9 1.4.9.7.9 1.8 0 .7-.4 1.4-.3.6-.9 1.1-.6.5-1.4.8-.8.2-1.9.2-2.8 0-4.6-1.7l1-1.7v.2l.2.4.5.5 1.2.6.8.2 1 .1 1-.1.8-.4q.4-.2.6-.5.3-.3.3-.8 0-.6-.6-1t-2.1-.9l-1.4-.4-1.2-.6-.7-.6q-.4-.4-.5-.8l-.2-1q0-.6.3-1 .3-.6.8-1l1.4-.7q.8-.2 1.7-.2 2.5 0 4 1.7zm6.1-4.4l2-.3-.2.4v.2l-.3 2.6h3.6v1.4H113l-.2 4v2q0 .8.2 1.2l.6.8q.4.2 1 .2 1.2 0 2.5-1l.6 1.4q-1.7 1.2-3.5 1.2-1.7 0-2.5-1t-.7-3.4v-2.2l.2-3.2h-2.5V164h2.6l.2-2.9zm9.7 4.2q1.4-1.5 3.9-1.5 2 0 3.2 1 1.1 1 1.1 3.4v6.8h-1.6v-1.2q-1.7 1.5-4 1.5-.8 0-1.5-.3t-1.1-.7q-.5-.4-.8-1l-.2-1q0-1.7 1.4-2.7 1.4-1 4.1-1h2v-.5q0-1.6-.6-2.2-.7-.7-2.1-.7-1.8 0-3 1.2l-.8-1zm6.7 4.6h-1.7l-2.1.1q-.9.2-1.4.5-.4.3-.6.7-.2.4-.2.9 0 .7.7 1.3.6.5 1.6.5.8 0 1.3-.2l1-.5.7-.7.4-.6q.3-.5.3-1.3v-.7zm7.6-8.8l2-.3-.2.4v.2l-.3 2.6h3.6v1.4H137l-.2 4v2q0 .8.2 1.2l.6.8q.4.2 1 .2 1.2 0 2.5-1l.6 1.4q-1.7 1.2-3.5 1.2-1.7 0-2.5-1t-.7-3.4v-2.2l.2-3.2h-2.5V164h2.6l.2-2.9zm9 2.9h1.7v6.2q0 1 .2 1.7t.6 1.2q.3.4.8.6.4.2 1 .2.5 0 1-.3l1-.7q.4-.4.6-1.1.3-.7.3-1.7v-6h1.7v10q0 .5.2.9h-1.9v-1.7q-.5 1-1.4 1.5-1 .5-2 .5-.8 0-1.5-.3t-1.2-1q-.6-.6-.8-1.5-.3-1-.3-2.3V164zm20.9 1.5l-1 1.5q-.2 0-.2-.2v-.2q-.4-.6-1.2-1-.8-.5-1.8-.5l-1 .1-.7.3-.5.5q-.2.3-.2.7 0 .3.2.5l.4.4.9.5 1.5.4q2 .6 2.9 1.4.9.7.9 1.8 0 .7-.4 1.4-.3.6-.9 1.1-.6.5-1.4.8-.8.2-1.9.2-2.8 0-4.6-1.7l1-1.7v.2l.2.4.5.5 1.2.6.8.2 1 .1 1-.1.8-.4q.4-.2.6-.5.3-.3.3-.8 0-.6-.6-1t-2.1-.9l-1.4-.4-1.2-.6-.7-.6q-.4-.4-.5-.8l-.2-1q0-.6.3-1 .3-.6.8-1l1.4-.7q.8-.2 1.7-.2 2.5 0 4 1.7zm8.3-.2q.5.4.5 1 0 .5-.5.9-.4.4-1 .4-.5 0-1-.4-.4-.4-.4-1 0-.5.4-1 .5-.4 1-.4.6 0 1 .5zm0 7.6q.5.4.5 1 0 .5-.5 1-.4.4-1 .4t-1-.4q-.4-.4-.4-1t.4-1q.5-.4 1-.4.6 0 1 .4zm24.9-11.1l-.2-1.5q0-.6.3-1 .3-.3.7-.3.5 0 .8.4.3.3.3 1.1t-.8 3l-.6 1.6-1.3-.3.5-1.6q.3-.8.3-1.4zm-4.2 0l-.1-1.5q0-.6.3-1 .3-.3.7-.3.4 0 .7.4.4.3.4 1.1t-.8 3l-.6 1.6-1.3-.3.5-1.6.2-.7v-.7zm10 2.2h1.8v1.7q.5-.9 1.5-1.4.9-.5 1.8-.5 1 0 1.8.4.8.3 1.4 1 .7.7 1 1.7.4 1 .4 2.5t-.4 2.6q-.4 1-1 1.8-.7.7-1.5 1.1-.8.4-1.7.4-1 0-1.9-.5-.8-.4-1.4-1.2v5.4h-1.8v-15zm1.8 6.4q0 1.8.8 2.6t1.9.8l1.2-.2q.6-.2 1.1-.7.5-.5.8-1.2.3-.8.3-2 0-2-.9-3.2-.8-1.2-2.4-1.2l-1 .1-1 .6-.6 1.1q-.2.7-.2 1.7v1.6zm15-6.6q.9 0 1.7.3.8.3 1.4 1 .6.6 1 1.5.4 1 .4 2.4v.8h-7.9q0 1.1.4 2l.9 1.2 1.2.7 1.3.1q1.7 0 2.8-1.2l1 1q-1.4 1.6-3.9 1.6-1.2 0-2.2-.3-1-.4-1.7-1.1-.7-.7-1-1.8-.4-1-.4-2.4t.4-2.5q.4-1.1 1-1.8.7-.8 1.6-1.1 1-.4 2-.4zm-3.3 4.6h6v-.4q0-.6-.2-1-.2-.6-.6-1l-.9-.7q-.5-.2-1.1-.2-1.1 0-2 .8-1 .8-1.2 2.5zm10.7 6.6v-11h1.8v2q.6-1 1.6-1.6 1-.6 2-.6.7 0 1.3.2.7.3 1.1.8.5.6.7 1.4.3.9.3 2.2v6.6h-1.7v-6.6q0-1.7-.6-2.4t-1.5-.7l-1 .2q-.7.3-1.1.7-.5.4-.8 1-.3.7-.3 1.5v6.3h-1.8zm19.3-9.4V159h1.9l-.2.4V175H248v-1.8q-.6 1-1.5 1.5-1 .5-1.9.5-.9 0-1.7-.3-.8-.4-1.4-1.1-.6-.7-1-1.8-.3-1.1-.3-2.6t.4-2.6q.4-1 1-1.7.7-.7 1.5-1 .8-.4 1.7-.4 1.1 0 2 .6.8.5 1.2 1.3zm-5.1.4q-1 1-1 3.1t.8 3.4q.7 1.2 2.3 1.2h.7l.8-.5.7-.6.4-.8q.3-.9.3-2.3l-.1-1.6q0-.6-.3-1l-.3-.7-.6-.5-.9-.4-.6-.1q-.7 0-1.2.2-.5.1-1 .6zm10.7-2h4.4v9.6h2.6v1.4h-7.1v-1.4h2.8v-8.2h-2.7V164zm2.7-4.4q.4-.3.9-.3t.9.3q.3.4.3.9t-.3.9q-.4.3-.9.3t-.9-.3q-.3-.4-.3-.9t.3-.9zm8.4 15.4v-11h1.8v2q.6-1 1.6-1.6 1-.6 2-.6.7 0 1.3.2.7.3 1.1.8.5.6.7 1.4.3.9.3 2.2v6.6h-1.7v-6.6q0-1.7-.6-2.4t-1.5-.7l-1 .2q-.7.3-1.1.7-.5.4-.8 1-.3.7-.3 1.5v6.3h-1.8zm14.1-9.2l-.5.8q-.2.4-.2.9l.2.9.5.8.8.5q.4.2 1 .2l.9-.2q.4-.2.7-.6.4-.3.6-.7l.1-1-.1-.8q-.2-.5-.6-.8-.3-.4-.8-.6-.4-.2-.9-.2-1 0-1.7.8zm4.4-1q1.2-1 2.8-1h.3l.2 1.4h-.6q-1.1 0-2 .4.6.9.6 1.9 0 .8-.3 1.5-.3.6-.9 1.2-.5.5-1.2.8-.7.3-1.6.3-.6 0-1.3-.3-.8.7-.8 1.2 0 .4.4.7.5.2 1.3.2h1.8l1.9.1q.8.2 1.3.6l.7.9.2 1q0 .7-.3 1.3-.3.6-1 1.1-.6.5-1.5.7-1 .3-2.2.3-1.3 0-2.3-.2-1-.2-1.5-.5-.6-.4-.9-.9-.3-.4-.3-1 0-1.3 1.8-2.4-.9-.4-.9-1.5 0-1 1.3-2-.8-.6-1.2-1.4-.5-.8-.5-1.6 0-.9.4-1.6.3-.7.9-1.2.5-.5 1.3-.8.7-.3 1.5-.3 1.6 0 2.6 1zm-4.2 9.6q-1.4.8-1.4 1.7 0 .5.3.8.2.3.7.5l1.1.3 1.4.1q1.4 0 2.4-.5t1-1.4q-.1-.7-.6-1-.5-.4-1.6-.4H279zm15.7-12.6l-.2-1.5q0-.6.3-1 .3-.3.7-.3.5 0 .8.4.3.3.3 1.1t-.8 3l-.6 1.6-1.3-.3.5-1.6q.3-.8.3-1.4zm-4.2 0l-.1-1.5q0-.6.3-1 .3-.3.7-.3.4 0 .7.4.4.3.4 1.1t-.8 3l-.6 1.6-1.3-.3.5-1.6.2-.7v-.7zM73.1 193.9v1.7q0 1.4.5 2 .6.6 1.7.6h.5v1.3h-.6q-1 0-1.5.6-.6.5-.6 2.1v2.4q0 2.2-.9 3.2-1 1-3 1h-2v-1.3h2.2l.5-.1.4-.2.2-.1q1-.7 1-2.5v-2q0-3 2-3.7-2.1-1-2.1-3.6v-1.7q0-1.3-.6-2-.6-.5-1.8-.5h-1.8v-1.4h2.5q.9.1 1.7.6.7.4 1.2 1.3.5.8.5 2.3zm11.2 10.6q0 2-2.5 4.5l-.8-.7q.6-.6 1-1.3.5-.8.5-1.2l-.2-.5-.4-.3-.4-.5q-.2-.2-.2-.6 0-.6.4-1t1-.4q.6 0 1.1.6.5.5.5 1.4zm-15.5 30.4l.1-2.4q0-1.6-.6-2.2-.5-.5-1.5-.5h-.5v-1.4h.4q1.1 0 1.7-.6.6-.6.6-2v-1.7q0-4.1 4.3-4.1h1.5v1.3h-2q-2.2 0-2.2 2.6v1.7q0 2.6-2 3.5 2 .7 2 3.7v2q0 1.7.6 2.3.7.6 2.3.6h1.3v1.4h-.9l-2-.1q-1-.1-1.7-.7-1.4-1-1.4-3.4zm27.8 31.4v-11h1.8v2q.6-1 1.6-1.7 1-.6 2-.6.7 0 1.3.3.7.2 1.1.8.5.5.7 1.4.3.9.3 2.1v6.7h-1.7v-6.6q0-1.8-.6-2.5t-1.5-.7q-.5 0-1 .3-.7.2-1.1.7-.5.4-.8 1-.3.6-.3 1.4v6.4h-1.8zm12.6-9.7q1.4-1.6 3.9-1.6 2 0 3.2 1 1.1 1 1.1 3.5v6.7h-1.6V265q-1.7 1.5-4 1.5-.8 0-1.5-.3-.7-.2-1.1-.6l-.8-1-.2-1.1q0-1.7 1.4-2.7 1.4-1 4.1-1h2v-.4q0-1.6-.6-2.3-.7-.6-2.1-.6-1.8 0-3 1.2l-.8-1.1zm6.7 4.5h-1.7q-1.3 0-2.1.2-.9.1-1.4.5-.4.3-.6.7l-.2.8q0 .8.7 1.3.6.6 1.6.6.8 0 1.3-.2l1-.6.7-.6.4-.7q.3-.5.3-1.3v-.7zm4.1 5.2v-11h1.5v1q.4-.5 1-.9t1.3-.4q.6 0 1.2.5.5.4.7 1.1.3-.7 1-1.1.6-.5 1.4-.5 1.1 0 1.7.8.5.8.5 2v8.5h-1.6v-7.8l-.1-1.2q0-.4-.2-.6-.2-.3-.4-.3l-.4-.1q-.3 0-.6.3l-.6.6-.4.9-.1.9v7.3h-1.6v-7.7q0-1.4-.3-1.8-.2-.5-.8-.5-.6 0-1.2.7-.5.7-.5 2v7.3h-1.6zm17.2-11.3q.9 0 1.7.3.8.3 1.4 1 .6.6 1 1.6t.4 2.3v.8h-7.9q0 1.2.4 2l.9 1.2q.5.5 1.2.7.6.2 1.3.2 1.7 0 2.8-1.2l1 1q-1.4 1.6-3.9 1.6-1.2 0-2.2-.4-1-.4-1.7-1-.7-.8-1-1.8-.4-1.1-.4-2.5t.4-2.5q.4-1 1-1.8.7-.7 1.6-1.1 1-.4 2-.4zm-3.3 4.7h6v-.4q0-.6-.2-1.1-.2-.6-.6-1-.4-.4-.9-.6-.5-.3-1.1-.3-1.1 0-2 .9-1 .7-1.2 2.5zm15.8-3.2q.5.4.5 1 0 .5-.5 1-.4.4-1 .4-.5 0-1-.5-.4-.4-.4-1 0-.5.4-.9.5-.4 1-.4.6 0 1 .4zm0 7.7q.5.4.5 1 0 .5-.5 1-.4.3-1 .3t-1-.4q-.4-.4-.4-1 0-.5.4-1 .5-.3 1-.3.6 0 1 .4zm24.9-11.1l-.2-1.5q0-.7.3-1 .3-.3.7-.3.5 0 .8.3.3.4.3 1.2 0 .7-.8 3l-.6 1.6-1.3-.4.5-1.6q.3-.7.3-1.3zm-4.2 0l-.1-1.5q0-.7.3-1 .3-.3.7-.3.4 0 .7.3.4.4.4 1.2 0 .8-.8 3l-.6 1.6-1.3-.4.5-1.6.2-.7v-.6zm10-2.8h2v.3q-.2 0-.2.2v6.2q.5-1 1.4-1.5 1-.5 1.9-.5.9 0 1.7.4.8.3 1.4 1 .6.7 1 1.8.4 1 .4 2.5 0 1.4-.4 2.6-.4 1-1 1.8-.7.7-1.5 1-.9.4-1.7.4-1 0-1.9-.4-.8-.5-1.4-1.3l-.6 1.4h-1v-16zm3 14.3l.9.3h1.6q.7-.3 1.1-.7.5-.5.9-1.3.3-.7.3-2 0-2-.9-3.2-.9-1.2-2.6-1.2-.6 0-1.2.4-.7.5-1 1.2-.3.7-.3 2.3v1.7q0 .7.2 1.2l.4.8.6.5zm13.7-9.6q1 0 1.9.5.9.3 1.6 1 .6.8 1 1.9.4 1 .4 2.4 0 1.3-.3 2.4-.4 1-1.1 1.8-.7.7-1.6 1.2-.9.3-2 .3-1 0-2-.4-.8-.4-1.5-1.2-.7-.7-1.1-1.8-.4-1-.4-2.3 0-1.2.4-2.3.4-1 1.1-1.8.7-.8 1.7-1.2.9-.5 1.9-.5zm3.2 5.8q0-1-.3-1.8-.2-.8-.7-1.4l-1-.8q-.6-.3-1.3-.3-.6 0-1.2.3t-1 .8q-.5.6-.8 1.4-.2.7-.2 1.7t.2 1.8l.7 1.4q.5.5 1.1.8.6.4 1.3.4.6 0 1.2-.3t1-.8q.5-.6.7-1.4.3-.8.3-1.8zm4.1-10.5h2v.3q-.2 0-.2.2v6.2q.5-1 1.4-1.5 1-.5 1.9-.5.9 0 1.7.4.8.3 1.4 1 .6.7 1 1.8.4 1 .4 2.5 0 1.4-.4 2.6-.4 1-1 1.8-.7.7-1.5 1-.9.4-1.7.4-1 0-1.9-.4-.8-.5-1.4-1.3l-.6 1.4h-1v-16zm3 14.3l.9.3h1.6q.7-.3 1.1-.7.5-.5.9-1.3.3-.7.3-2 0-2-.9-3.2-.9-1.2-2.6-1.2-.6 0-1.2.4-.7.5-1 1.2-.3.7-.3 2.3v1.7q0 .7.2 1.2l.4.8.6.5zm15.2-11.5l-.2-1.5q0-.7.3-1 .3-.3.7-.3.5 0 .8.3.3.4.3 1.2 0 .7-.8 3l-.6 1.6-1.3-.4.5-1.6q.3-.7.3-1.3zm-4.2 0l-.1-1.5q0-.7.3-1 .3-.3.7-.3.4 0 .7.3.4.4.4 1.2 0 .8-.8 3l-.6 1.6-1.3-.4.5-1.6.2-.7v-.6zm15.9 12.7q0 1.9-2.5 4.5l-.8-.7 1-1.4q.5-.7.5-1.2l-.2-.4-.4-.4-.4-.4-.2-.6q0-.6.4-1t1-.4q.6 0 1.1.5.5.6.5 1.5zM97.2 285.6q1.4-1.6 3.9-1.6 2 0 3.2 1 1.1 1 1.1 3.5v6.7h-1.6V294q-1.7 1.5-4 1.5-.8 0-1.5-.3-.7-.2-1.1-.6l-.8-1-.2-1.1q0-1.7 1.4-2.7 1.4-1 4.1-1h2v-.4q0-1.6-.6-2.3-.7-.6-2.1-.6-1.8 0-3 1.2l-.8-1.1zm6.7 4.5h-1.7q-1.3 0-2.1.2-.9.1-1.4.5-.4.3-.6.7l-.2.8q0 .8.7 1.3.6.6 1.6.6.8 0 1.3-.2l1-.6.7-.6.4-.7q.3-.5.3-1.3v-.7zm6.8-4.1l-.5.8q-.2.4-.2 1l.2.8.5.8.8.5q.4.2 1 .2l.9-.2.7-.5q.4-.3.6-.8l.1-.9-.1-.9q-.2-.5-.6-.8l-.8-.5q-.4-.2-.9-.2-1 0-1.7.7zm4.4-1q1.2-1 2.8-1h.3l.2 1.4h-.6q-1.1 0-2 .5.6.8.6 1.8 0 .8-.3 1.5t-.9 1.2q-.5.5-1.2.8-.7.3-1.6.3-.6 0-1.3-.3-.8.8-.8 1.3 0 .4.4.6.5.3 1.3.3h1l.8-.1q1.1 0 1.9.2.8.2 1.3.6.4.3.7.8.2.5.2 1.1 0 .7-.3 1.3-.3.6-1 1-.6.5-1.5.8-1 .3-2.2.3-1.3 0-2.3-.2-1-.2-1.5-.6l-.9-.8q-.3-.5-.3-1 0-1.3 1.8-2.4-.9-.5-.9-1.5t1.3-2.1q-.8-.5-1.2-1.3-.5-.8-.5-1.7 0-.8.4-1.5.3-.7.9-1.2.5-.6 1.3-.9.7-.3 1.5-.3 1.6 0 2.6 1zm-4.2 9.7q-1.4.7-1.4 1.7 0 .4.3.7.2.4.7.6l1.1.3h1.4q1.4 0 2.4-.4 1-.6 1-1.5-.1-.6-.6-1-.5-.3-1.6-.3h-2.1l-1.2-.1zm14.3-10.7q.9 0 1.7.3.8.3 1.4 1 .6.6 1 1.6t.4 2.3v.8h-7.9q0 1.2.4 2l.9 1.2q.5.5 1.2.7.6.2 1.3.2 1.7 0 2.8-1.2l1 1q-1.4 1.6-3.9 1.6-1.2 0-2.2-.4-1-.4-1.7-1-.7-.8-1-1.9-.4-1-.4-2.4t.4-2.5q.4-1 1-1.8.7-.7 1.6-1.1 1-.4 2-.4zm-3.3 4.7h6v-.4q0-.6-.2-1.1-.2-.6-.6-1-.4-.4-.9-.6-.5-.3-1.1-.3-1.1 0-2 .9-1 .7-1.2 2.5zm15.8-3.2q.5.4.5 1 0 .5-.5 1-.4.4-1 .4-.5 0-1-.5-.4-.4-.4-1 0-.5.4-.9.5-.4 1-.4.6 0 1 .4zm0 7.7q.5.4.5 1 0 .5-.5 1-.4.3-1 .3t-1-.4q-.4-.4-.4-1 0-.5.4-1 .5-.3 1-.3.6 0 1 .4zm19.2-10.6q.6-1.1 1.7-1.8 1.2-.6 2.4-.6 1 0 1.7.3.8.3 1.4 1 .6.5 1 1.3.3.7.3 1.6 0 .7-.2 1.3l-.6 1.2-.7 1.1-1 1-1.4 1.3-.7.7-.8.8-.7 1-.6 1h6.3l.2-.1.3-.1v1.6h-8.7v-1q.8-1.8 1.9-3 1-1.3 2-2.2l1.1-1 1-1 .6-1 .3-.8v-.8l-.2-1q-.2-.5-.6-.9-.4-.4-.9-.6l-1-.2q-.6 0-1.1.2-.5.1-.9.4-.4.2-.6.5l-.2.5-.1.3-1.2-1zm12.6-2.3h7.6v1.5H171l-.3 4.3q1.2-.6 2.5-.6 1 0 1.7.4.9.3 1.5 1 .6.6 1 1.6.3.9.3 2 0 1.2-.4 2.1-.3 1-1 1.6-.6.6-1.5 1-.8.3-1.8.3-1.4 0-2.6-.6-1.1-.6-1.9-1.7l1.5-1 .1.2v.3l.4.4.6.4.9.4 1 .2q.6 0 1.2-.3l.9-.7q.4-.5.6-1.1.3-.7.3-1.5 0-.9-.3-1.5-.2-.7-.6-1.1-.4-.5-1-.7-.5-.3-1.2-.3-.8 0-1.5.4-.8.4-1.3 1l-1-.4.4-7.6zm16.8 14.5q0 1.9-2.5 4.5l-.8-.7 1-1.4q.5-.7.5-1.2l-.2-.4-.4-.4-.4-.4-.2-.6q0-.6.4-1t1-.4q.6 0 1.1.5.5.6.5 1.5zm-80.9 20.9l-1 1.6q-.2 0-.2-.2v-.3q-.4-.5-1.2-1-.8-.5-1.8-.5l-1 .2-.7.2-.5.5q-.2.3-.2.7l.2.6.4.4.9.4 1.5.5q2 .5 2.9 1.3.9.8.9 1.9 0 .7-.4 1.3-.3.7-.9 1.2l-1.4.7q-.8.3-1.9.3-2.8 0-4.6-1.7l1-1.8v.3l.2.3.5.5 1.2.6.8.3h2l.8-.4q.4-.2.6-.6.3-.3.3-.7 0-.6-.6-1-.6-.5-2.1-1l-1.4-.4q-.9-.3-1.2-.6-.4-.2-.7-.6-.4-.3-.5-.7l-.2-1q0-.6.3-1.1.3-.6.8-1 .6-.4 1.4-.6.8-.3 1.7-.3 2.5 0 4 1.7zm6.1-4.3l2-.4q0 .3-.2.4v.3l-.3 2.6h3.6v1.4H113l-.2 4v2q0 .7.2 1.2l.6.7q.4.3 1 .3 1.2 0 2.5-1l.6 1.3q-1.7 1.3-3.5 1.3-1.7 0-2.5-1-.8-1.1-.7-3.5v-2.2l.2-3.1h-2.5v-1.4h2.6l.2-3zm9.7 4.2q1.4-1.6 3.9-1.6 2 0 3.2 1 1.1 1 1.1 3.5v6.7h-1.6V324q-1.7 1.5-4 1.5-.8 0-1.5-.3-.7-.2-1.1-.6l-.8-1-.2-1.1q0-1.7 1.4-2.7 1.4-1 4.1-1h2v-.4q0-1.6-.6-2.3-.7-.6-2.1-.6-1.8 0-3 1.2l-.8-1.1zm6.7 4.5h-1.7q-1.3 0-2.1.2-.9.1-1.4.5-.4.3-.6.7l-.2.8q0 .8.7 1.3.6.6 1.6.6.8 0 1.3-.2l1-.6.7-.6.4-.7q.3-.5.3-1.3v-.7zm7.6-8.7l2-.4q0 .3-.2.4v.3l-.3 2.6h3.6v1.4H137l-.2 4v2q0 .7.2 1.2l.6.7q.4.3 1 .3 1.2 0 2.5-1l.6 1.3q-1.7 1.3-3.5 1.3-1.7 0-2.5-1-.8-1.1-.7-3.5v-2.2l.2-3.1h-2.5v-1.4h2.6l.2-3zm9 2.9h1.7v6.1q0 1 .2 1.8.2.7.6 1.1.3.4.8.6.4.2 1 .2.5 0 1-.3.6-.2 1-.6.4-.5.6-1.2.3-.7.3-1.7v-6h1.7v10l.2 1h-1.9v-1.7q-.5.9-1.4 1.4-1 .5-2 .5-.8 0-1.5-.3t-1.2-1q-.6-.5-.8-1.5-.3-1-.3-2.3v-6.1zm20.9 1.4l-1 1.6q-.2 0-.2-.2v-.3q-.4-.5-1.2-1-.8-.5-1.8-.5l-1 .2-.7.2-.5.5q-.2.3-.2.7l.2.6.4.4.9.4 1.5.5q2 .5 2.9 1.3.9.8.9 1.9 0 .7-.4 1.3-.3.7-.9 1.2l-1.4.7q-.8.3-1.9.3-2.8 0-4.6-1.7l1-1.8v.3l.2.3.5.5 1.2.6.8.3h2l.8-.4q.4-.2.6-.6.3-.3.3-.7 0-.6-.6-1-.6-.5-2.1-1l-1.4-.4q-.9-.3-1.2-.6-.4-.2-.7-.6-.4-.3-.5-.7l-.2-1q0-.6.3-1.1.3-.6.8-1 .6-.4 1.4-.6.8-.3 1.7-.3 2.5 0 4 1.7zm8.3-.2q.5.4.5 1 0 .5-.5 1-.4.4-1 .4-.5 0-1-.5-.4-.4-.4-1 0-.5.4-.9.5-.4 1-.4.6 0 1 .4zm0 7.7q.5.4.5 1 0 .5-.5 1-.4.3-1 .3t-1-.4q-.4-.4-.4-1 0-.5.4-1 .5-.3 1-.3.6 0 1 .4zm24.9-11.1l-.2-1.5q0-.7.3-1 .3-.3.7-.3.5 0 .8.3.3.4.3 1.2 0 .7-.8 3l-.6 1.6-1.3-.3.5-1.7q.3-.7.3-1.3zm-4.2 0l-.1-1.5q0-.7.3-1 .3-.3.7-.3.4 0 .7.3.4.4.4 1.2 0 .8-.8 3l-.6 1.6-1.3-.3.5-1.7.2-.7v-.6zm14.8 1.9q.9 0 1.7.3.8.3 1.4 1 .6.6 1 1.6t.4 2.3v.8h-7.9q0 1.2.4 2l.9 1.2q.5.5 1.2.7.6.2 1.3.2 1.7 0 2.8-1.2l1 1q-1.4 1.6-3.9 1.6-1.2 0-2.2-.4-1-.4-1.7-1-.7-.8-1-1.9-.4-1-.4-2.4t.4-2.5q.4-1 1-1.8.7-.7 1.6-1.1 1-.4 2-.4zm-3.3 4.7h6v-.4q0-.6-.2-1.1-.2-.6-.6-1-.4-.4-.9-.6-.5-.3-1.1-.3-1.1 0-2 .9-1 .7-1.2 2.5zm10.7 6.6v-11h1.8v2q.6-1 1.6-1.7 1-.6 2-.6.7 0 1.3.3.7.2 1.1.8.5.5.7 1.4.3.9.3 2.1v6.6h-1.7v-6.5q0-1.8-.6-2.5t-1.5-.7q-.5 0-1 .3-.7.2-1.1.7-.5.4-.8 1-.3.6-.3 1.4v6.4h-1.8zm12.8-11h1.8v2q.4-1 1.5-1.7 1.1-.6 2.4-.6 1.7 0 2.9 1.2l-.8 1.7-.5-.6q-.2-.3-.5-.4l-.5-.3h-.7q-.8 0-1.5.3t-1.2 1l-.9 1.4q-.3.8-.3 1.6v5.4h-1.7v-11zm15.7-.3q1 0 1.9.4.9.4 1.6 1.2.6.7 1 1.8.4 1 .4 2.4 0 1.3-.3 2.4-.4 1-1.1 1.8-.7.7-1.6 1.2-.9.3-2 .3-1 0-2-.4-.8-.4-1.5-1.2-.7-.7-1.1-1.8-.4-1-.4-2.3 0-1.2.4-2.3.4-1 1.1-1.8.7-.8 1.7-1.2.9-.5 1.9-.5zm3.2 5.8q0-1-.3-1.8-.2-.8-.7-1.4l-1-.8q-.6-.3-1.3-.3-.6 0-1.2.3t-1 .8q-.5.6-.8 1.4-.2.7-.2 1.7t.2 1.8q.3.8.7 1.3.5.6 1.1 1 .6.2 1.3.2l1.2-.2q.6-.3 1-.8.5-.6.7-1.4.3-.8.3-1.8zm4.7-10.5h4.9v14.6h3.2v1.4h-8.2v-1.4h3.2v-13.2h-3v-1.4zm12 0h4.9v14.6h3.2v1.4h-8.2v-1.4h3.2v-13.2h-3v-1.4zm16.2 4.7q.9 0 1.7.3.8.3 1.4 1 .6.6 1 1.6t.4 2.3v.8h-7.9q0 1.2.4 2l.9 1.2q.5.5 1.2.7.6.2 1.3.2 1.7 0 2.8-1.2l1 1q-1.4 1.6-3.9 1.6-1.2 0-2.2-.4-1-.4-1.7-1-.7-.8-1-1.9-.4-1-.4-2.4t.4-2.5q.4-1 1-1.8.7-.7 1.6-1.1 1-.4 2-.4zm-3.3 4.7h6v-.4q0-.6-.2-1.1-.2-.6-.6-1-.4-.4-.9-.6-.5-.3-1.1-.3-1.1 0-2 .9-1 .7-1.2 2.5zm18-2.8v-6.6h1.9l-.2.3v15.6H296v-1.7q-.6 1-1.5 1.5-1 .5-1.9.5-.9 0-1.7-.4-.8-.3-1.4-1-.6-.8-1-1.9-.3-1-.3-2.5 0-1.6.4-2.6t1-1.8q.7-.7 1.5-1 .8-.3 1.7-.3 1.1 0 2 .5.8.5 1.2 1.4zm-5.1.3q-1 1-1 3.2 0 2 .8 3.3.7 1.3 2.3 1.3l.7-.1.8-.4.7-.7q.3-.3.4-.8.3-.9.3-2.3l-.1-1.5q0-.6-.3-1l-.3-.8-.6-.5-.9-.3-.6-.2q-.7 0-1.2.2l-1 .6zm15.8-4.1l-.2-1.5q0-.7.3-1 .3-.3.7-.3.5 0 .8.3.3.4.3 1.2 0 .7-.8 3l-.6 1.6-1.3-.3.5-1.7q.3-.7.3-1.3zm-4.2 0l-.1-1.5q0-.7.3-1 .3-.3.7-.3.4 0 .7.3.4.4.4 1.2 0 .8-.8 3l-.6 1.6-1.3-.3.5-1.7.2-.7v-.6zm-229.3 32v1.8q0 1.3.5 2 .6.5 1.7.5h.5v1.4h-.6q-1 0-1.5.5-.6.6-.6 2.2v2.4q0 2.1-.9 3.1-1 1-3 1h-2v-1.3h2.2l.5-.1.4-.1.2-.2q1-.7 1-2.5v-2q0-3 2-3.7-2.1-.9-2.1-3.5v-1.7q0-1.4-.6-2-.6-.6-1.8-.6h-1.8V340h2.5q.9 0 1.7.5.7.5 1.2 1.3.5.9.5 2.3zm11.2 10.7q0 1.9-2.5 4.5l-.8-.7 1-1.4q.5-.7.5-1.2l-.2-.4-.4-.4-.4-.4-.2-.6q0-.6.4-1t1-.4q.6 0 1.1.5.5.6.5 1.5zm-15.5 29.8l.1-2.4q0-1.6-.6-2.1-.5-.6-1.5-.6h-.5v-1.3h.4q1.1 0 1.7-.6.6-.6.6-2V374q0-4.2 4.3-4.2h1.5v1.4h-2q-2.2 0-2.2 2.5v1.7q0 2.7-2 3.6 2 .6 2 3.7v2q0 1.6.6 2.2.7.7 2.3.7h1.3v1.3h-2.9q-1-.2-1.7-.7-1.4-1-1.4-3.5zM96.6 416v-11h1.8v2q.6-1 1.6-1.6 1-.6 2-.6.7 0 1.3.2.7.3 1.1.8.5.6.7 1.4.3.9.3 2.2v6.6h-1.7v-6.6q0-1.7-.6-2.4t-1.5-.7l-1 .2q-.7.3-1.1.7-.5.4-.8 1-.3.7-.3 1.5v6.3h-1.8zm12.6-9.7q1.4-1.5 3.9-1.5 2 0 3.2 1 1.1 1 1.1 3.4v6.8h-1.6v-1.2q-1.7 1.5-4 1.5-.8 0-1.5-.3t-1.1-.7q-.5-.4-.8-1l-.2-1q0-1.7 1.4-2.7 1.4-1 4.1-1h2v-.5q0-1.6-.6-2.2-.7-.7-2.1-.7-1.8 0-3 1.2l-.8-1zm6.7 4.6h-1.7l-2.1.1q-.9.2-1.4.5-.4.3-.6.7-.2.4-.2.9 0 .7.7 1.3.6.5 1.6.5.8 0 1.3-.2l1-.5.7-.7.4-.6q.3-.5.3-1.3v-.7zm4.1 5.1v-11h1.5v1.1q.4-.6 1-1 .6-.3 1.3-.3.6 0 1.2.4.5.5.7 1.2.3-.7 1-1.2.6-.4 1.4-.4 1.1 0 1.7.8.5.8.5 2v8.4h-1.6v-7.8l-.1-1.2q0-.4-.2-.6l-.4-.3h-.4l-.6.2-.6.6-.4 1-.1.9v7.2h-1.6v-7.6q0-1.4-.3-1.9-.2-.4-.8-.4-.6 0-1.2.7-.5.7-.5 1.9v7.3h-1.6zm17.2-11.2q.9 0 1.7.3.8.3 1.4 1 .6.6 1 1.5.4 1 .4 2.4v.8h-7.9q0 1.1.4 2l.9 1.2 1.2.7 1.3.1q1.7 0 2.8-1.2l1 1q-1.4 1.6-3.9 1.6-1.2 0-2.2-.3-1-.4-1.7-1.1-.7-.7-1-1.8-.4-1-.4-2.4t.4-2.5q.4-1.1 1-1.8.7-.8 1.6-1.1 1-.4 2-.4zm-3.3 4.6h6v-.4q0-.6-.2-1-.2-.6-.6-1l-.9-.7q-.5-.2-1.1-.2-1.1 0-2 .8-1 .8-1.2 2.5zm15.8-3.1q.5.4.5 1 0 .5-.5.9-.4.4-1 .4-.5 0-1-.4-.4-.4-.4-1 0-.5.4-1 .5-.4 1-.4.6 0 1 .5zm0 7.6q.5.4.5 1 0 .5-.5 1-.4.4-1 .4t-1-.4q-.4-.4-.4-1t.4-1q.5-.4 1-.4.6 0 1 .4zm24.9-11.1l-.2-1.5q0-.6.3-1 .3-.3.7-.3.5 0 .8.4.3.3.3 1.1t-.8 3l-.6 1.6-1.3-.3.5-1.6q.3-.8.3-1.4zm-4.2 0l-.1-1.5q0-.6.3-1 .3-.3.7-.3.4 0 .7.4.4.3.4 1.1t-.8 3l-.6 1.6-1.3-.3.5-1.6.2-.7v-.7zm10.8 3.5q1.4-1.5 3.9-1.5 2 0 3.2 1 1.1 1 1.1 3.4v6.8h-1.6v-1.2q-1.7 1.5-4 1.5-.8 0-1.5-.3t-1.1-.7q-.5-.4-.8-1l-.2-1q0-1.7 1.4-2.7 1.4-1 4.1-1h2v-.5q0-1.6-.6-2.2-.7-.7-2.1-.7-1.8 0-3 1.2l-.8-1zm6.7 4.6h-1.7l-2.1.1q-.9.2-1.4.5-.4.3-.6.7-.2.4-.2.9 0 .7.7 1.3.6.5 1.6.5.8 0 1.3-.2l1-.5.7-.7.4-.6q.3-.5.3-1.3v-.7zm4.7 5.1v-11h1.8v2q.6-1 1.6-1.6 1-.6 2-.6.7 0 1.3.2.7.3 1.1.8.5.6.7 1.4.3.9.3 2.2v6.6h-1.7v-6.6q0-1.7-.6-2.4t-1.5-.7l-1 .2q-.7.3-1.1.7-.5.4-.8 1-.3.7-.3 1.5v6.3h-1.8zm12 0v-11h1.8v2q.6-1 1.6-1.6 1-.6 2-.6.7 0 1.3.2.7.3 1.1.8.5.6.7 1.4.3.9.3 2.2v6.6h-1.7v-6.6q0-1.7-.6-2.4t-1.5-.7l-1 .2q-.7.3-1.1.7-.5.4-.8 1-.3.7-.3 1.5v6.3h-1.8zm18-13.2l-.2-1.5q0-.6.3-1 .3-.3.7-.3.5 0 .8.4.3.3.3 1.1t-.8 3l-.6 1.6-1.3-.3.5-1.6q.3-.8.3-1.4zm-4.2 0l-.1-1.5q0-.6.3-1 .3-.3.7-.3.4 0 .7.4.4.3.4 1.1t-.8 3l-.6 1.6-1.3-.3.5-1.6.2-.7v-.7zm15.9 12.7q0 2-2.5 4.5l-.8-.7q.6-.6 1-1.3.5-.8.5-1.2l-.2-.5-.4-.3-.4-.5q-.2-.2-.2-.6 0-.6.4-1t1-.4q.6 0 1.1.6.5.5.5 1.4zM97.2 435.3q1.4-1.5 3.9-1.5 2 0 3.2 1 1.1 1 1.1 3.4v6.8h-1.6v-1.2q-1.7 1.5-4 1.5-.8 0-1.5-.3t-1.1-.7q-.5-.4-.8-1l-.2-1q0-1.7 1.4-2.7 1.4-1 4.1-1h2v-.5q0-1.6-.6-2.2-.7-.7-2.1-.7-1.8 0-3 1.2l-.8-1zm6.7 4.6h-1.7l-2.1.1q-.9.2-1.4.5-.4.3-.6.7-.2.4-.2.9 0 .7.7 1.3.6.5 1.6.5.8 0 1.3-.2l1-.5.7-.7.4-.6q.3-.5.3-1.3v-.7zm6.8-4.1l-.5.8q-.2.4-.2.9l.2.9.5.8.8.5q.4.2 1 .2l.9-.2q.4-.2.7-.6.4-.3.6-.7l.1-1-.1-.8q-.2-.5-.6-.8-.3-.4-.8-.6-.4-.2-.9-.2-1 0-1.7.8zm4.4-1q1.2-1 2.8-1h.3l.2 1.4h-.6q-1.1 0-2 .4.6.9.6 1.9 0 .8-.3 1.5-.3.6-.9 1.2-.5.5-1.2.8-.7.3-1.6.3-.6 0-1.3-.3-.8.7-.8 1.2 0 .4.4.7.5.2 1.3.2h1.8l1.9.1q.8.2 1.3.6l.7.9.2 1q0 .7-.3 1.3-.3.6-1 1.1-.6.5-1.5.7-1 .3-2.2.3-1.3 0-2.3-.2-1-.2-1.5-.5-.6-.4-.9-.9-.3-.4-.3-1 0-1.3 1.8-2.4-.9-.4-.9-1.5 0-1 1.3-2-.8-.6-1.2-1.4-.5-.8-.5-1.6 0-.9.4-1.6.3-.7.9-1.2.5-.5 1.3-.8.7-.3 1.5-.3 1.6 0 2.6 1zm-4.2 9.6q-1.4.8-1.4 1.7 0 .5.3.8.2.3.7.5l1.1.3 1.4.1q1.4 0 2.4-.5t1-1.4q-.1-.7-.6-1-.5-.4-1.6-.4H111zm14.3-10.6q.9 0 1.7.3.8.3 1.4 1 .6.6 1 1.5.4 1 .4 2.4v.8h-7.9q0 1.1.4 2l.9 1.2 1.2.7 1.3.1q1.7 0 2.8-1.2l1 1q-1.4 1.6-3.9 1.6-1.2 0-2.2-.3-1-.4-1.7-1.1-.7-.7-1-1.8-.4-1-.4-2.4t.4-2.5q.4-1.1 1-1.8.7-.8 1.6-1.1 1-.4 2-.4zm-3.3 4.6h6v-.4q0-.6-.2-1-.2-.6-.6-1l-.9-.7q-.5-.2-1.1-.2-1.1 0-2 .8-1 .8-1.2 2.5zm15.8-3.1q.5.4.5 1 0 .5-.5.9-.4.4-1 .4-.5 0-1-.4-.4-.4-.4-1 0-.5.4-1 .5-.4 1-.4.6 0 1 .5zm0 7.6q.5.4.5 1 0 .5-.5 1-.4.4-1 .4t-1-.4q-.4-.4-.4-1t.4-1q.5-.4 1-.4.6 0 1 .4zm19.2-10.5q.6-1.2 1.7-1.8 1.2-.6 2.4-.6 1 0 1.7.3.8.3 1.4.9.6.6 1 1.3.3.8.3 1.7l-.2 1.3-.6 1.2-.7 1-1 1-1.4 1.3-.7.7-.8.9-.7 1-.6 1h6.3l.2-.2h.3v1.6h-8.7v-1q.8-1.8 1.9-3 1-1.4 2-2.2l1.1-1 1-1 .6-1 .3-.8v-.8q0-.6-.2-1l-.6-1-.9-.5q-.5-.3-1-.3-.6 0-1.1.2l-.9.4-.6.6-.2.4-.1.3-1.2-1zm20.1 1q0 1-.6 2t-1.7 1.6q1.3.6 2 1.7.9 1.1.9 2.4 0 .9-.4 1.7-.3.7-1 1.3-.6.5-1.4.8-.8.3-1.8.3t-1.8-.3q-.8-.3-1.5-.8-.6-.6-1-1.3-.3-.7-.3-1.6 0-1.3.9-2.4.8-1.1 2.1-1.7-1-.6-1.6-1.5-.6-1-.6-2 0-.8.3-1.5t.8-1.2q.6-.5 1.3-.8.7-.2 1.6-.2.8 0 1.5.2.7.3 1.3.8.5.5.8 1.1.3.7.3 1.4zm-4.3 4.3q-1 .5-1.8 1.4-.7.9-.7 2l.2 1q.2.5.6.8.4.4 1 .6.4.2 1 .2l1.2-.2.9-.5.6-.8.2-1q0-1.2-.9-2-.8-1-2.3-1.5zm-1.5-3q.3.5.7.8l1.1.7.4.2q.9-.5 1.5-1.3.5-.8.5-1.6l-.1-.9-.5-.7-.8-.4q-.4-.2-1-.2l-.9.2q-.4.1-.7.4l-.5.7-.1.8q0 .7.4 1.3zm15.1 9.8q0 2-2.5 4.5l-.8-.7q.6-.6 1-1.3.5-.8.5-1.2l-.2-.5-.4-.3-.4-.5q-.2-.2-.2-.6 0-.6.4-1t1-.4q.6 0 1.1.6.5.5.5 1.4zm-80.9 21l-1 1.5q-.2 0-.2-.2v-.2q-.4-.6-1.2-1-.8-.5-1.8-.5l-1 .1-.7.3-.5.5q-.2.3-.2.7 0 .3.2.5l.4.4.9.5 1.5.4q2 .6 2.9 1.4.9.7.9 1.8 0 .7-.4 1.4-.3.6-.9 1.1-.6.5-1.4.8-.8.2-1.9.2-2.8 0-4.6-1.7l1-1.7v.2l.2.4.5.5 1.2.6.8.2 1 .1 1-.1.8-.4q.4-.2.6-.5.3-.3.3-.8 0-.6-.6-1t-2.1-.9l-1.4-.4-1.2-.6-.7-.6q-.4-.4-.5-.8l-.2-1q0-.6.3-1 .3-.6.8-1l1.4-.7q.8-.2 1.7-.2 2.5 0 4 1.7zm6.1-4.4l2-.3-.2.4v.2l-.3 2.6h3.6v1.4H113l-.2 4v2q0 .8.2 1.2l.6.8q.4.2 1 .2 1.2 0 2.5-1l.6 1.4q-1.7 1.2-3.5 1.2-1.7 0-2.5-1t-.7-3.4v-2.2l.2-3.2h-2.5V464h2.6l.2-2.9zm9.7 4.2q1.4-1.5 3.9-1.5 2 0 3.2 1 1.1 1 1.1 3.4v6.8h-1.6v-1.2q-1.7 1.5-4 1.5-.8 0-1.5-.3t-1.1-.7q-.5-.4-.8-1l-.2-1q0-1.7 1.4-2.7 1.4-1 4.1-1h2v-.5q0-1.6-.6-2.2-.7-.7-2.1-.7-1.8 0-3 1.2l-.8-1zm6.7 4.6h-1.7l-2.1.1q-.9.2-1.4.5-.4.3-.6.7-.2.4-.2.9 0 .7.7 1.3.6.5 1.6.5.8 0 1.3-.2l1-.5.7-.7.4-.6q.3-.5.3-1.3v-.7zm7.6-8.8l2-.3-.2.4v.2l-.3 2.6h3.6v1.4H137l-.2 4v2q0 .8.2 1.2l.6.8q.4.2 1 .2 1.2 0 2.5-1l.6 1.4q-1.7 1.2-3.5 1.2-1.7 0-2.5-1t-.7-3.4v-2.2l.2-3.2h-2.5V464h2.6l.2-2.9zm9 2.9h1.7v6.2q0 1 .2 1.7t.6 1.2q.3.4.8.6.4.2 1 .2.5 0 1-.3l1-.7q.4-.4.6-1.1.3-.7.3-1.7v-6h1.7v10q0 .5.2.9h-1.9v-1.7q-.5 1-1.4 1.5-1 .5-2 .5-.8 0-1.5-.3t-1.2-1q-.6-.6-.8-1.5-.3-1-.3-2.3V464zm20.9 1.5l-1 1.5q-.2 0-.2-.2v-.2q-.4-.6-1.2-1-.8-.5-1.8-.5l-1 .1-.7.3-.5.5q-.2.3-.2.7 0 .3.2.5l.4.4.9.5 1.5.4q2 .6 2.9 1.4.9.7.9 1.8 0 .7-.4 1.4-.3.6-.9 1.1-.6.5-1.4.8-.8.2-1.9.2-2.8 0-4.6-1.7l1-1.7v.2l.2.4.5.5 1.2.6.8.2 1 .1 1-.1.8-.4q.4-.2.6-.5.3-.3.3-.8 0-.6-.6-1t-2.1-.9l-1.4-.4-1.2-.6-.7-.6q-.4-.4-.5-.8l-.2-1q0-.6.3-1 .3-.6.8-1l1.4-.7q.8-.2 1.7-.2 2.5 0 4 1.7zm8.3-.2q.5.4.5 1 0 .5-.5.9-.4.4-1 .4-.5 0-1-.4-.4-.4-.4-1 0-.5.4-1 .5-.4 1-.4.6 0 1 .5zm0 7.6q.5.4.5 1 0 .5-.5 1-.4.4-1 .4t-1-.4q-.4-.4-.4-1t.4-1q.5-.4 1-.4.6 0 1 .4zm24.9-11.1l-.2-1.5q0-.6.3-1 .3-.3.7-.3.5 0 .8.4.3.3.3 1.1t-.8 3l-.6 1.6-1.3-.3.5-1.6q.3-.8.3-1.4zm-4.2 0l-.1-1.5q0-.6.3-1 .3-.3.7-.3.4 0 .7.4.4.3.4 1.1t-.8 3l-.6 1.6-1.3-.3.5-1.6.2-.7v-.7zm14.8 2q.9 0 1.7.3.8.3 1.4 1 .6.6 1 1.5.4 1 .4 2.4v.8h-7.9q0 1.1.4 2l.9 1.2 1.2.7 1.3.1q1.7 0 2.8-1.2l1 1q-1.4 1.6-3.9 1.6-1.2 0-2.2-.3-1-.4-1.7-1.1-.7-.7-1-1.8-.4-1-.4-2.4t.4-2.5q.4-1.1 1-1.8.7-.8 1.6-1.1 1-.4 2-.4zm-3.3 4.6h6v-.4q0-.6-.2-1-.2-.6-.6-1l-.9-.7q-.5-.2-1.1-.2-1.1 0-2 .8-1 .8-1.2 2.5zm10.7 6.6v-11h1.8v2q.6-1 1.6-1.6 1-.6 2-.6.7 0 1.3.2.7.3 1.1.8.5.6.7 1.4.3.9.3 2.2v6.6h-1.7v-6.6q0-1.7-.6-2.4t-1.5-.7l-1 .2q-.7.3-1.1.7-.5.4-.8 1-.3.7-.3 1.5v6.3h-1.8zm12.8-11h1.8v2.1q.4-1.1 1.5-1.7 1.1-.6 2.4-.6 1.7 0 2.9 1.2l-.8 1.6-.5-.6-.5-.4q-.2-.2-.5-.2l-.7-.1q-.8 0-1.5.3-.7.4-1.2 1l-.9 1.4q-.3.8-.3 1.7v5.3h-1.7v-11zm15.7-.2q1 0 1.9.4.9.4 1.6 1.1.6.8 1 1.9.4 1 .4 2.3 0 1.4-.3 2.4-.4 1-1.1 1.9-.7.7-1.6 1.1-.9.4-2 .4-1 0-2-.4-.8-.5-1.5-1.2-.7-.8-1.1-1.8-.4-1.1-.4-2.3 0-1.2.4-2.3.4-1.1 1.1-1.9.7-.7 1.7-1.2.9-.4 1.9-.4zm3.2 5.8q0-1-.3-1.8-.2-.9-.7-1.4-.5-.6-1-.9-.6-.2-1.3-.2l-1.2.2q-.6.3-1 .9-.5.5-.8 1.3-.2.8-.2 1.8t.2 1.7l.7 1.4q.5.6 1.1.9.6.3 1.3.3.6 0 1.2-.3t1-.8q.5-.5.7-1.3.3-.8.3-1.8zM253 459h4.9v14.6h3.2v1.4h-8.2v-1.4h3.2v-13.2h-3V459zm12 0h4.9v14.6h3.2v1.4h-8.2v-1.4h3.2v-13.2h-3V459zm16.2 4.8q.9 0 1.7.3.8.3 1.4 1 .6.6 1 1.5.4 1 .4 2.4v.8h-7.9q0 1.1.4 2l.9 1.2 1.2.7 1.3.1q1.7 0 2.8-1.2l1 1q-1.4 1.6-3.9 1.6-1.2 0-2.2-.3-1-.4-1.7-1.1-.7-.7-1-1.8-.4-1-.4-2.4t.4-2.5q.4-1.1 1-1.8.7-.8 1.6-1.1 1-.4 2-.4zm-3.3 4.6h6v-.4q0-.6-.2-1-.2-.6-.6-1l-.9-.7q-.5-.2-1.1-.2-1.1 0-2 .8-1 .8-1.2 2.5zm18-2.8V459h1.9l-.2.4V475H296v-1.8q-.6 1-1.5 1.5-1 .5-1.9.5-.9 0-1.7-.3-.8-.4-1.4-1.1-.6-.7-1-1.8-.3-1.1-.3-2.6t.4-2.6q.4-1 1-1.7.7-.7 1.5-1 .8-.4 1.7-.4 1.1 0 2 .6.8.5 1.2 1.3zm-5.1.4q-1 1-1 3.1t.8 3.4q.7 1.2 2.3 1.2h.7l.8-.5.7-.6.4-.8q.3-.9.3-2.3l-.1-1.6q0-.6-.3-1l-.3-.7-.6-.5-.9-.4-.6-.1q-.7 0-1.2.2-.5.1-1 .6zm15.8-4.2l-.2-1.5q0-.6.3-1 .3-.3.7-.3.5 0 .8.4.3.3.3 1.1t-.8 3l-.6 1.6-1.3-.3.5-1.6q.3-.8.3-1.4zm-4.2 0l-.1-1.5q0-.6.3-1 .3-.3.7-.3.4 0 .7.4.4.3.4 1.1t-.8 3l-.6 1.6-1.3-.3.5-1.6.2-.7v-.7zM73.1 493.9v1.7q0 1.4.5 2 .6.6 1.7.6h.5v1.3h-.6q-1 0-1.5.6-.6.5-.6 2.1v2.4q0 2.2-.9 3.2-1 1-3 1h-2v-1.3h2.2l.5-.1.4-.2.2-.1q1-.7 1-2.5v-2q0-3 2-3.7-2.1-1-2.1-3.6v-1.7q0-1.3-.6-2-.6-.5-1.8-.5h-1.8v-1.4h2.5q.9.1 1.7.6.7.4 1.2 1.3.5.8.5 2.3z" font-size="24" font-family="Inconsolata" fill="#2a86c0"/><path d="M329 12v15l-10-7.6 10-7.4z" fill="#5ca831"/><path d="M375 19.4h-46" stroke="#5ca831" stroke-width="2" fill="none"/><path d="M396 15.9l-1.3 1.4V17l-.1-.2-.2-.4-.5-.5q-.9-.7-2.3-.7-.7 0-1.3.3-.6.3-1.1.8-.5.5-.8 1.3-.3.7-.3 1.7t.3 1.7q.3.8.8 1.4.5.6 1.2.9.7.3 1.5.3 1.7 0 2.9-1.3l1 1.1q-1.6 1.8-4 1.8-1.2 0-2.2-.5-1-.4-1.7-1.2-.7-.7-1.1-1.8-.5-1-.5-2.3 0-1.2.5-2.3.4-1 1-1.8.8-.7 1.8-1.2 1-.4 2.3-.4 1.3 0 2.3.6 1.1.5 1.8 1.5zm7.1-2.1q1 0 1.9.4.9.4 1.6 1.1.6.8 1 1.9.4 1 .4 2.3 0 1.4-.3 2.4-.4 1-1.1 1.9-.7.7-1.6 1.1-.9.4-2 .4-1 0-2-.4-.8-.5-1.5-1.2-.7-.8-1.1-1.8-.4-1.1-.4-2.3 0-1.2.4-2.3.4-1.1 1.1-1.9.7-.7 1.7-1.2.9-.4 1.9-.4zm3.2 5.8q0-1-.3-1.8-.2-.9-.7-1.4-.5-.6-1-.9-.6-.2-1.3-.2l-1.2.2q-.6.3-1 .9-.5.5-.8 1.3-.2.8-.2 1.8t.2 1.7l.7 1.4q.5.6 1.1.9.6.3 1.3.3.6 0 1.2-.3t1-.8q.5-.5.7-1.3.3-.8.3-1.8zM411 9h4.9v14.6h3.2V25h-8.2v-1.4h3.2V10.4h-3V9zm12 0h4.9v14.6h3.2V25h-8.2v-1.4h3.2V10.4h-3V9zm16.2 4.8q.9 0 1.7.3.8.3 1.4 1 .6.6 1 1.5.4 1 .4 2.4v.8h-7.9q0 1.1.4 2l.9 1.2 1.2.7 1.3.1q1.7 0 2.8-1.2l1 1q-1.4 1.6-3.9 1.6-1.2 0-2.2-.3-1-.4-1.7-1.1-.7-.7-1-1.8-.4-1-.4-2.4t.4-2.5q.4-1.1 1-1.8.7-.8 1.6-1.1 1-.4 2-.4zm-3.3 4.6h6V18q0-.6-.2-1-.2-.6-.6-1l-.9-.7q-.5-.2-1.1-.2-1.1 0-2 .8-1 .8-1.2 2.5zm20.1-2.5l-1.3 1.4V17l-.1-.2-.2-.4-.5-.5q-.9-.7-2.3-.7-.7 0-1.3.3-.6.3-1.1.8-.5.5-.8 1.3-.3.7-.3 1.7t.3 1.7q.3.8.8 1.4.5.6 1.2.9.7.3 1.5.3 1.7 0 2.9-1.3l1 1.1q-1.6 1.8-4 1.8-1.2 0-2.2-.5-1-.4-1.7-1.2-.7-.7-1.1-1.8-.5-1-.5-2.3 0-1.2.5-2.3.4-1 1-1.8.8-.7 1.8-1.2 1-.4 2.3-.4 1.3 0 2.3.6 1.1.5 1.8 1.5zm5.5-4.8l2-.3-.2.4v.2L463 14h3.6v1.4H463l-.2 4v2q0 .8.2 1.2l.6.8q.4.2 1 .2 1.2 0 2.5-1l.6 1.4q-1.7 1.2-3.5 1.2-1.7 0-2.5-1t-.7-3.4v-2.2l.2-3.2h-2.5V14h2.6l.2-2.9zm10 2.9h4.4v9.6h2.6V25h-7.1v-1.4h2.8v-8.2h-2.7V14zm2.7-4.4q.4-.3.9-.3t.9.3q.3.4.3.9t-.3.9q-.4.3-.9.3t-.9-.3q-.3-.4-.3-.9t.3-.9zm12.9 4.2q1 0 1.9.4.9.4 1.6 1.1.6.8 1 1.9.4 1 .4 2.3 0 1.4-.3 2.4-.4 1-1.1 1.9-.7.7-1.6 1.1-.9.4-2 .4-1 0-2-.4-.8-.5-1.5-1.2-.7-.8-1.1-1.8-.4-1.1-.4-2.3 0-1.2.4-2.3.4-1.1 1.1-1.9.7-.7 1.7-1.2.9-.4 1.9-.4zm3.2 5.8q0-1-.3-1.8-.2-.9-.7-1.4-.5-.6-1-.9-.6-.2-1.3-.2l-1.2.2q-.6.3-1 .9-.5.5-.8 1.3-.2.8-.2 1.8t.2 1.7l.7 1.4q.5.6 1.1.9.6.3 1.3.3.6 0 1.2-.3t1-.8q.5-.5.7-1.3.3-.8.3-1.8zm4.3 5.4V14h1.8v2q.6-1 1.6-1.6 1-.6 2-.6.7 0 1.3.2.7.3 1.1.8.5.6.7 1.4.3.9.3 2.2V25h-1.7v-6.6q0-1.7-.6-2.4t-1.5-.7l-1 .2q-.7.3-1.1.7-.5.4-.8 1-.3.7-.3 1.5V25h-1.8z" font-size="24" font-family="Inconsolata" fill="#2a86c0"/><path d="M329 103v15l-10-7.6 10-7.4z" fill="#5ca831"/><path d="M375 110.6l-46-.2" stroke="#5ca831" stroke-width="2" fill="none"/><path d="M386.8 105.5v-.7q0-2.6 1-3.9 1.2-1.2 2.7-1.2l1.6.2v2l-1-.1q-1.2 0-1.7.6-.5.7-.5 2.4v.7h2v1.9h-2v8.8h-2.1v-8.8h-1.6v-2h1.6zm6.8-4.5q.5 0 1 .3.3.4.3.9t-.4.9q-.4.3-.9.3t-.9-.3q-.3-.4-.3-1 0-.4.3-.8.4-.4 1-.4zm-1 4.5h2v10.7h-2v-10.7zM407 111h-7.6q0 1.6 1 2.5 1 1 2.5 1 2 0 3.9-1.4v2q-1 .7-2 1-1 .3-2.3.3-1.7 0-2.8-.7-1.1-.8-1.8-2-.7-1.3-.7-2.9 0-2.5 1.4-4t3.7-1.5q2 0 3.4 1.5 1.2 1.5 1.2 4v.2zm-7.6-1.2h5.4q0-1.3-.7-2t-1.8-.7q-1.2 0-2 .7-.7.7-.9 2zm9.9-9.9h2.1v16.3h-2.1V100zm12.4 0h2.2v16.3h-4.6q-2.4 0-3.8-1.5t-1.4-4q0-2.4 1.5-4 1.5-1.5 3.8-1.5 1 0 2.3.5v-5.8zm0 14.5v-6.8q-1-.5-2-.5-1.6 0-2.5 1-1 1-1 2.8 0 1.7.9 2.6.5.5 1 .7.6.2 2 .2h1.6zm6.1-.8q.6 0 1 .4t.4 1q0 .6-.4 1t-1 .4q-.6 0-1-.4t-.4-1q0-.6.4-1t1-.4zm.2-8.3q.6 0 1 .4t.4 1q0 .6-.4 1t-1 .4q-.6 0-1-.4t-.4-1q0-.6.4-1t1-.4zm14.9.2h2.3l-4.8 11h-.7l-4.8-11h2.3l2.9 6.6 2.8-6.6zm10.7 4.3v4.5q0 .6.3.6.4 0 1.2-.6v1.3l-1.1.7-1 .1q-1.3 0-1.6-1-1.3 1-2.8 1-1.2 0-2-.7-.7-.8-.7-1.9 0-1 .8-1.8.7-.8 2-1.3l2.8-1v-.5q0-2-2-2-1.7 0-3.4 1.9v-2.4q1.3-1.4 3.6-1.4 1.7 0 2.8.9.4.3.6.8.3.4.4 1v1.8zm-2.1 4.3V111l-1.5.6q-1 .4-1.5.8-.5.5-.5 1.1 0 .7.5 1.1.4.4 1 .4 1.1 0 2-.8zm5.6-14.2h2.1v16.3h-2V100zm12.1 16.3V115q-.7.7-1.5 1.1-.9.4-1.8.4-1 0-1.9-.5-.8-.5-1.3-1.4-.4-.8-.4-2.9v-6.1h2.1v6.1q0 1.7.5 2.4t1.7.7q1.6 0 2.6-1.5v-7.7h2.2v10.7h-2.2zm14.3-5.2H476q0 1.6 1 2.5 1 1 2.5 1 2 0 3.9-1.4v2q-1 .7-2 1-1 .3-2.3.3-1.7 0-2.8-.7-1.1-.8-1.8-2-.7-1.3-.7-2.9 0-2.5 1.4-4t3.6-1.5q2.2 0 3.5 1.5 1.2 1.5 1.2 4v.2zm-7.5-1.2h5.4q0-1.3-.7-2t-1.9-.7q-1.1 0-1.8.7-.8.7-1 2z" font-size="24" font-family="GillSans" fill="#2a86c0"/><path d="M329 132.5v15l-10-7.6 10-7.4z" fill="#5ca831"/><path d="M375 139.6l-47-.2" stroke="#5ca831" stroke-width="2" fill="none"/><path d="M386.8 134.2v-.6q0-2.6 1-3.9 1.2-1.3 2.7-1.3l1.6.2v2.1l-1-.2q-1.2 0-1.7.7t-.5 2.4v.6h2v2h-2v8.8h-2.1v-8.9h-1.6v-1.9h1.6zm6.8-4.5q.5 0 1 .3.3.4.3 1 0 .5-.4.8-.4.4-.9.4t-.9-.4q-.3-.4-.3-.9t.3-.8q.4-.4 1-.4zm-1 4.5h2V145h-2v-10.8zm14.4 5.6h-7.6q0 1.5 1 2.5 1 .9 2.5.9 2 0 3.9-1.3v2q-1 .7-2 1-1 .3-2.3.3-1.7 0-2.8-.8-1.1-.7-1.8-2-.7-1.2-.7-2.8 0-2.5 1.4-4 1.4-1.6 3.7-1.6 2 0 3.4 1.5 1.2 1.5 1.2 4v.3zm-7.6-1.3h5.4q0-1.3-.7-2-.7-.6-1.8-.6-1.2 0-2 .7-.7.6-.9 2zm9.9-9.9h2.1V145h-2.1v-16.4zm12.4 0h2.2V145h-4.6q-2.4 0-3.8-1.5t-1.4-4q0-2.4 1.5-4 1.5-1.5 3.8-1.5 1 0 2.3.4v-5.8zm0 14.6v-6.9q-1-.5-2-.5-1.6 0-2.5 1-1 1.1-1 2.9 0 1.7.9 2.6.5.5 1 .7.6.2 2 .2h1.6zm6.1-.9q.6 0 1 .5.4.4.4 1t-.4 1q-.4.4-1 .4t-1-.4q-.4-.4-.4-1t.4-1q.4-.5 1-.5zm.2-8.3q.6 0 1 .4.4.5.4 1 0 .6-.4 1-.4.5-1 .5t-1-.4q-.4-.5-.4-1 0-.6.4-1 .4-.5 1-.5zm14.9.2h2.3l-4.8 11h-.7l-4.8-11h2.3l2.9 6.7 2.8-6.7zm10.7 4.3v4.6q0 .6.3.6.4 0 1.2-.6v1.3l-1.1.6-1 .2q-1.3 0-1.6-1-1.3 1-2.8 1-1.2 0-2-.8-.7-.7-.7-1.8 0-1 .8-1.9.7-.8 2-1.2l2.8-1v-.6q0-1.9-2-1.9-1.7 0-3.4 1.8v-2.3q1.3-1.5 3.6-1.5 1.7 0 2.8 1 .4.2.6.7l.4 1v1.8zm-2.1 4.4v-3.2l-1.5.5-1.5.9q-.5.4-.5 1 0 .8.5 1.2.4.4 1 .4 1.1 0 2-.8zm5.6-14.3h2.1V145h-2v-16.4zm12.1 16.4v-1.4q-.7.8-1.5 1.2-.9.4-1.8.4-1 0-1.9-.5-.8-.5-1.3-1.4-.4-.9-.4-3v-6h2.1v6q0 1.8.5 2.4.5.7 1.7.7 1.6 0 2.6-1.5v-7.7h2.2V145h-2.2zm14.3-5.2H476q0 1.5 1 2.5 1 .9 2.5.9 2 0 3.9-1.3v2q-1 .7-2 1-1 .3-2.3.3-1.7 0-2.8-.8-1.1-.7-1.8-2-.7-1.2-.7-2.8 0-2.5 1.4-4 1.4-1.6 3.6-1.6t3.5 1.5q1.2 1.5 1.2 4v.3zm-7.5-1.3h5.4q0-1.3-.7-2-.7-.6-1.9-.6-1.1 0-1.8.7-.8.6-1 2z" font-size="24" font-family="GillSans" fill="#2a86c0"/><path d="M329 162v15l-10-7.6 10-7.4z" fill="#5ca831"/><path d="M375 169.6l-46-.2" stroke="#5ca831" stroke-width="2" fill="none"/><path d="M386.8 164.2v-.6q0-2.6 1-3.9 1.2-1.3 2.7-1.3l1.6.2v2.1l-1-.2q-1.2 0-1.7.7t-.5 2.4v.6h2v2h-2v8.8h-2.1v-8.9h-1.6v-1.9h1.6zm6.8-4.5q.5 0 1 .3.3.4.3 1 0 .5-.4.8-.4.4-.9.4t-.9-.4q-.3-.4-.3-.9t.3-.8q.4-.4 1-.4zm-1 4.5h2V175h-2v-10.8zm14.4 5.6h-7.6q0 1.5 1 2.5 1 .9 2.5.9 2 0 3.9-1.3v2q-1 .7-2 1-1 .3-2.3.3-1.7 0-2.8-.8-1.1-.7-1.8-2-.7-1.2-.7-2.8 0-2.5 1.4-4 1.4-1.6 3.7-1.6 2 0 3.4 1.5 1.2 1.5 1.2 4v.3zm-7.6-1.3h5.4q0-1.3-.7-2-.7-.6-1.8-.6-1.2 0-2 .7-.7.6-.9 2zm9.9-9.9h2.1V175h-2.1v-16.4zm12.4 0h2.2V175h-4.6q-2.4 0-3.8-1.5t-1.4-4q0-2.4 1.5-4 1.5-1.5 3.8-1.5 1 0 2.3.4v-5.8zm0 14.6v-6.9q-1-.5-2-.5-1.6 0-2.5 1-1 1.1-1 2.9 0 1.7.9 2.6.5.5 1 .7.6.2 2 .2h1.6zm6.1-.9q.6 0 1 .5.4.4.4 1t-.4 1q-.4.4-1 .4t-1-.4q-.4-.4-.4-1t.4-1q.4-.5 1-.5zm.2-8.3q.6 0 1 .4.4.5.4 1 0 .6-.4 1-.4.5-1 .5t-1-.4q-.4-.5-.4-1 0-.6.4-1 .4-.5 1-.5zm14.9.2h2.3l-4.8 11h-.7l-4.8-11h2.3l2.9 6.7 2.8-6.7zm10.7 4.3v4.6q0 .6.3.6.4 0 1.2-.6v1.3l-1.1.6-1 .2q-1.3 0-1.6-1-1.3 1-2.8 1-1.2 0-2-.8-.7-.7-.7-1.8 0-1 .8-1.9.7-.8 2-1.2l2.8-1v-.6q0-1.9-2-1.9-1.7 0-3.4 1.8v-2.3q1.3-1.5 3.6-1.5 1.7 0 2.8 1 .4.2.6.7l.4 1v1.8zm-2.1 4.4v-3.2l-1.5.5-1.5.9q-.5.4-.5 1 0 .8.5 1.2.4.4 1 .4 1.1 0 2-.8zm5.6-14.3h2.1V175h-2v-16.4zm12.1 16.4v-1.4q-.7.8-1.5 1.2-.9.4-1.8.4-1 0-1.9-.5-.8-.5-1.3-1.4-.4-.9-.4-3v-6h2.1v6q0 1.8.5 2.4.5.7 1.7.7 1.6 0 2.6-1.5v-7.7h2.2V175h-2.2zm14.3-5.2H476q0 1.5 1 2.5 1 .9 2.5.9 2 0 3.9-1.3v2q-1 .7-2 1-1 .3-2.3.3-1.7 0-2.8-.8-1.1-.7-1.8-2-.7-1.2-.7-2.8 0-2.5 1.4-4 1.4-1.6 3.6-1.6t3.5 1.5q1.2 1.5 1.2 4v.3zm-7.5-1.3h5.4q0-1.3-.7-2-.7-.6-1.9-.6-1.1 0-1.8.7-.8.6-1 2z" font-size="24" font-family="GillSans" fill="#2a86c0"/><g font-size="24" font-family="Inconsolata"><path d="M8.6 555.3l.4-1.5q1.5.7 2.7 1.8 1.2 1 2 2.3.8 1.3 1.3 2.8.4 1.5.4 3.1t-.5 3.1q-.4 1.6-1.3 2.9-.8 1.3-2 2.4-1.2 1-2.7 1.8l-.5-1.5q1.2-.6 2.2-1.5 1-1 1.7-2 .7-1.2 1-2.5.4-1.3.4-2.6 0-1.4-.4-2.6-.3-1.3-1-2.4-.7-1.1-1.6-2-1-1-2.1-1.6z" fill="#053056"/><path d="M13.9 15.6V9h1.9l-.2.4V25H14v-1.8q-.6 1-1.5 1.5-1 .5-1.9.5-.9 0-1.7-.3-.8-.4-1.4-1.1-.6-.7-1-1.8-.3-1.1-.3-2.6t.4-2.6q.4-1 1-1.7.7-.7 1.5-1 .8-.4 1.7-.4 1.1 0 2 .6.8.5 1.2 1.3zm-5.1.4q-1 1-1 3.1t.8 3.4q.7 1.2 2.3 1.2h.7l.8-.5.7-.6.4-.8q.3-.9.3-2.3l-.1-1.6q0-.6-.3-1l-.3-.7-.6-.5-.9-.4-.6-.1q-.7 0-1.2.2-.5.1-1 .6zm9.6-7h2v.3q-.2.1-.2.3v6.1q.5-.9 1.4-1.4 1-.5 1.9-.5.9 0 1.7.3.8.4 1.4 1 .6.8 1 1.8t.4 2.5q0 1.5-.4 2.6-.4 1-1 1.8-.7.7-1.5 1.1-.9.4-1.7.4-1 0-1.9-.5-.8-.4-1.4-1.2l-.6 1.4h-1V9zm3 14.3l.9.4h.6l1-.1q.7-.2 1.1-.7.5-.4.9-1.2.3-.8.3-2 0-2.1-.9-3.3-.9-1.1-2.6-1.1-.6 0-1.2.4-.7.4-1 1.1-.3.8-.3 2.4v1.7q0 .7.2 1.2l.4.7.6.5zm14.3-.3q.5.3.5.9 0 .5-.5 1-.4.4-1 .4t-1-.4q-.4-.4-.4-1t.4-1q.5-.4 1-.4.6 0 1 .4zm6.8-9h1.7v6.2q0 1 .2 1.7t.6 1.2q.3.4.8.6.4.2 1 .2.5 0 1-.3l1-.7q.4-.4.6-1.1.3-.7.3-1.7v-6h1.7v10q0 .5.2.9h-1.9v-1.7q-.5 1-1.4 1.5-1 .5-2 .5-.8 0-1.5-.3t-1.2-1q-.6-.6-.8-1.5-.3-1-.3-2.3V14zm20.9 1.5l-1 1.5q-.2 0-.2-.2v-.2q-.4-.6-1.2-1-.8-.5-1.8-.5l-1 .1-.7.3-.5.5q-.2.3-.2.7 0 .3.2.5l.4.4.9.5 1.5.4q2 .6 2.9 1.4.9.7.9 1.8 0 .7-.4 1.4-.3.6-.9 1.1-.6.5-1.4.8-.8.2-1.9.2-2.8 0-4.6-1.7l1-1.7v.2l.2.4.5.5 1.2.6.8.2 1 .1 1-.1.8-.4q.4-.2.6-.5.3-.3.3-.8 0-.6-.6-1t-2.1-.9l-1.4-.4-1.2-.6-.7-.6q-.4-.4-.5-.8l-.2-1q0-.6.3-1 .3-.6.8-1l1.4-.7q.8-.2 1.7-.2 2.5 0 4 1.7zm7.8-1.7q.9 0 1.7.3.8.3 1.4 1 .6.6 1 1.5.4 1 .4 2.4v.8h-7.9q0 1.1.4 2l.9 1.2 1.2.7 1.3.1q1.7 0 2.8-1.2l1 1q-1.4 1.6-3.9 1.6-1.2 0-2.2-.3-1-.4-1.7-1.1-.7-.7-1-1.8-.4-1-.4-2.4t.4-2.5q.4-1.1 1-1.8.7-.8 1.6-1.1 1-.4 2-.4zM68 18.4h6V18q0-.6-.2-1-.2-.6-.6-1l-.9-.7q-.5-.2-1.1-.2-1.1 0-2 .8-1 .8-1.2 2.5zM79.4 14h1.8v2.1q.4-1.1 1.5-1.7 1.1-.6 2.4-.6 1.7 0 2.9 1.2l-.8 1.6-.5-.6-.5-.4q-.2-.2-.5-.2l-.7-.1q-.8 0-1.5.3-.7.4-1.2 1l-.9 1.4q-.3.8-.3 1.7V25h-1.7V14zm20 1.5l-1 1.5q-.2 0-.2-.2v-.2q-.4-.6-1.2-1-.8-.5-1.8-.5l-1 .1-.7.3-.5.5q-.2.3-.2.7 0 .3.2.5l.4.4.9.5 1.5.4q2 .6 2.9 1.4.9.7.9 1.8 0 .7-.4 1.4-.3.6-.9 1.1-.6.5-1.4.8-.8.2-1.9.2-2.8 0-4.6-1.7l1-1.7v.2l.2.4.5.5 1.2.6.8.2 1 .1 1-.1.8-.4q.4-.2.6-.5.3-.3.3-.8 0-.6-.6-1t-2.1-.9l-1.4-.4-1.2-.6-.7-.6q-.4-.4-.5-.8l-.2-1q0-.6.3-1 .3-.6.8-1l1.4-.7q.8-.2 1.7-.2 2.5 0 4 1.7zm8.3 7.5q.5.3.5.9 0 .5-.5 1-.4.4-1 .4t-1-.4q-.4-.4-.4-1t.4-1q.5-.4 1-.4.6 0 1 .4zm7.8-9h4.4v9.6h2.6V25h-7.1v-1.4h2.8v-8.2h-2.7V14zm2.7-4.4q.4-.3.9-.3t.9.3q.3.4.3.9t-.3.9q-.4.3-.9.3t-.9-.3q-.3-.4-.3-.9t.3-.9zm8.4 15.4V14h1.8v2q.6-1 1.6-1.6 1-.6 2-.6.7 0 1.3.2.7.3 1.1.8.5.6.7 1.4.3.9.3 2.2V25h-1.7v-6.6q0-1.7-.6-2.4t-1.5-.7l-1 .2q-.7.3-1.1.7-.5.4-.8 1-.3.7-.3 1.5V25h-1.8zm20.8-9.5l-1 1.5q-.2 0-.2-.2v-.2q-.4-.6-1.2-1-.8-.5-1.8-.5l-1 .1-.7.3-.5.5q-.2.3-.2.7 0 .3.2.5l.4.4.9.5 1.5.4q2 .6 2.9 1.4.9.7.9 1.8 0 .7-.4 1.4-.3.6-.9 1.1-.6.5-1.4.8-.8.2-1.9.2-2.8 0-4.6-1.7l1-1.7v.2l.2.4.5.5 1.2.6.8.2 1 .1 1-.1.8-.4q.4-.2.6-.5.3-.3.3-.8 0-.6-.6-1t-2.1-.9l-1.4-.4-1.2-.6-.7-.6q-.4-.4-.5-.8l-.2-1q0-.6.3-1 .3-.6.8-1l1.4-.7q.8-.2 1.7-.2 2.5 0 4 1.7zm7.8-1.7q.9 0 1.7.3.8.3 1.4 1 .6.6 1 1.5.4 1 .4 2.4v.8h-7.9q0 1.1.4 2l.9 1.2 1.2.7 1.3.1q1.7 0 2.8-1.2l1 1q-1.4 1.6-3.9 1.6-1.2 0-2.2-.3-1-.4-1.7-1.1-.7-.7-1-1.8-.4-1-.4-2.4t.4-2.5q.4-1.1 1-1.8.7-.8 1.6-1.1 1-.4 2-.4zm-3.3 4.6h6V18q0-.6-.2-1-.2-.6-.6-1l-.9-.7q-.5-.2-1.1-.2-1.1 0-2 .8-1 .8-1.2 2.5zm11.5-4.4h1.8v2.1q.4-1.1 1.5-1.7 1.1-.6 2.4-.6 1.7 0 2.9 1.2l-.8 1.6-.5-.6-.5-.4q-.2-.2-.5-.2l-.7-.1q-.8 0-1.5.3-.7.4-1.2 1l-.9 1.4q-.3.8-.3 1.7V25h-1.7V14zm14.1-2.9l2-.3-.2.4v.2L179 14h3.6v1.4H179l-.2 4v2q0 .8.2 1.2l.6.8q.4.2 1 .2 1.2 0 2.5-1l.6 1.4q-1.7 1.2-3.5 1.2-1.7 0-2.5-1t-.7-3.4v-2.2l.2-3.2h-2.5V14h2.6l.2-2.9zM186 10h1.3l3.7 7.4 3.8-7.4h1.2v15h-1.5V13.7l-3.3 6h-.6l-3-6V25H186V10zm13.2 5.3q1.4-1.5 3.9-1.5 2 0 3.2 1 1.1 1 1.1 3.4V25h-1.6v-1.2q-1.7 1.5-4 1.5-.8 0-1.5-.3t-1.1-.7q-.5-.4-.8-1l-.2-1q0-1.7 1.4-2.7 1.4-1 4.1-1h2V18q0-1.6-.6-2.2-.7-.7-2.1-.7-1.8 0-3 1.2l-.8-1zm6.7 4.6h-1.7l-2.1.1q-.9.2-1.4.5-.4.3-.6.7-.2.4-.2.9 0 .7.7 1.3.6.5 1.6.5.8 0 1.3-.2l1-.5.7-.7.4-.6q.3-.5.3-1.3v-.7zm4.7 5.1V14h1.8v2q.6-1 1.6-1.6 1-.6 2-.6.7 0 1.3.2.7.3 1.1.8.5.6.7 1.4.3.9.3 2.2V25h-1.7v-6.6q0-1.7-.6-2.4t-1.5-.7l-1 .2q-.7.3-1.1.7-.5.4-.8 1-.3.7-.3 1.5V25h-1.8zm11.8-10.2l-.3-.8h2.1v.8l3.2 8 2.1-5.9.5-1.5.3-1.4h1.8l-.5 1.4-.6 1.8-3 7.8-.4 1.2q-.6 1.7-1.5 2.3-.9.7-2 .7-1.6 0-2.6-1l1-1.5v.2l.1.2.1.1q.1.2.3.2.1.2.4.3h.5q.7 0 1.2-.4.6-.4 1.1-1.5l.3-.8-4-10.2zm20.6-4.3h-.5q-2.2 1.3-3.3 3.5-1.2 2.1-1.2 4.9 0 1.3.4 2.6.3 1.3 1 2.5t1.6 2.2q1 1 2.2 1.7l-.8 1.3q-1.4-.8-2.5-1.9-1.2-1-2-2.4-.7-1.4-1.2-2.9-.4-1.6-.4-3.2t.4-3.1q.5-1.5 1.3-2.8.8-1.3 1.9-2.3 1-1 2.5-1.6l.7 1.5h-.2z" fill="#06345e"/><path d="M42.5 14h1.7v6.2q0 1 .2 1.7t.6 1.2q.3.4.8.6.4.2 1 .2.5 0 1-.3l1-.7q.4-.4.6-1.1.3-.7.3-1.7v-6h1.7v10q0 .5.2.9h-1.9v-1.7q-.5 1-1.4 1.5-1 .5-2 .5-.8 0-1.5-.3t-1.2-1q-.6-.6-.8-1.5-.3-1-.3-2.3V14zm20.9 1.5l-1 1.5q-.2 0-.2-.2v-.2q-.4-.6-1.2-1-.8-.5-1.8-.5l-1 .1-.7.3-.5.5q-.2.3-.2.7 0 .3.2.5l.4.4.9.5 1.5.4q2 .6 2.9 1.4.9.7.9 1.8 0 .7-.4 1.4-.3.6-.9 1.1-.6.5-1.4.8-.8.2-1.9.2-2.8 0-4.6-1.7l1-1.7v.2l.2.4.5.5 1.2.6.8.2 1 .1 1-.1.8-.4q.4-.2.6-.5.3-.3.3-.8 0-.6-.6-1t-2.1-.9l-1.4-.4-1.2-.6-.7-.6q-.4-.4-.5-.8l-.2-1q0-.6.3-1 .3-.6.8-1l1.4-.7q.8-.2 1.7-.2 2.5 0 4 1.7zm7.8-1.7q.9 0 1.7.3.8.3 1.4 1 .6.6 1 1.5.4 1 .4 2.4v.8h-7.9q0 1.1.4 2l.9 1.2 1.2.7 1.3.1q1.7 0 2.8-1.2l1 1q-1.4 1.6-3.9 1.6-1.2 0-2.2-.3-1-.4-1.7-1.1-.7-.7-1-1.8-.4-1-.4-2.4t.4-2.5q.4-1.1 1-1.8.7-.8 1.6-1.1 1-.4 2-.4zM68 18.4h6V18q0-.6-.2-1-.2-.6-.6-1l-.9-.7q-.5-.2-1.1-.2-1.1 0-2 .8-1 .8-1.2 2.5zM79.4 14h1.8v2.1q.4-1.1 1.5-1.7 1.1-.6 2.4-.6 1.7 0 2.9 1.2l-.8 1.6-.5-.6-.5-.4q-.2-.2-.5-.2l-.7-.1q-.8 0-1.5.3-.7.4-1.2 1l-.9 1.4q-.3.8-.3 1.7V25h-1.7V14zm20 1.5l-1 1.5q-.2 0-.2-.2v-.2q-.4-.6-1.2-1-.8-.5-1.8-.5l-1 .1-.7.3-.5.5q-.2.3-.2.7 0 .3.2.5l.4.4.9.5 1.5.4q2 .6 2.9 1.4.9.7.9 1.8 0 .7-.4 1.4-.3.6-.9 1.1-.6.5-1.4.8-.8.2-1.9.2-2.8 0-4.6-1.7l1-1.7v.2l.2.4.5.5 1.2.6.8.2 1 .1 1-.1.8-.4q.4-.2.6-.5.3-.3.3-.8 0-.6-.6-1t-2.1-.9l-1.4-.4-1.2-.6-.7-.6q-.4-.4-.5-.8l-.2-1q0-.6.3-1 .3-.6.8-1l1.4-.7q.8-.2 1.7-.2 2.5 0 4 1.7z" fill="#2a86c0"/></g><path d="M496.5 98.5l2 .8 3.5 1.5 2.7 1.7 1.7 1.8 1 1.7.4 1v-.1l.5 1.6.5 3.3v5.7l-.5 6.1-.2 4 .2 3.7.7 3.4.7 1.5.1.1.5.5 1.8 1 2 .8 1 .9v.2-.5l-.2.9-1 1.4-1.4 2-1.6 3-.5 1.7v.2l-.3 2.7-.3 5.4-.1 5-.4 4.8-1 4.4-1.8 3.8-2 2.3-1.4 1.3-1.9 1.2-2.4 1.3-1.3.6c-1.3.6-2.4 1.8-2.5 2.6 0 1 1 1.2 2.2.6l2-1 3.5-1.8 3-2.2 2.5-2.4 2.7-3.5 2-4.6 1.1-4.7.4-4.9.2-5 .2-5.3.3-2.7v.2l.1-.9 1.2-2.2 1.7-2.5 1.5-2.6.1-1v-.4l-.4-1-1.4-1-1.8-.7-1.4-.7-.5-.5.1.2-.6-1.2-.7-3-.1-3.6.1-4 .5-6.1v-6l-.6-3.7-.5-1.5v-.1l-.5-1.1-1.1-1.8-2-2.1-3-2-3.4-1.4-2-.8c-.8-.3-2.3.2-3.4 1.3-1 1-1.3 2-.5 2.4" fill="#311f13"/><path d="M538.7 128.5h2.2V145h-4.6q-2.4 0-3.8-1.5t-1.4-4q0-2.5 1.4-4 1.5-1.5 3.9-1.5 1 0 2.3.4v-5.8zm0 14.6v-6.9q-1-.5-2-.5-1.6 0-2.6 1-.9 1.1-.9 2.9 0 1.6.8 2.5.5.6 1 .8.6.2 2 .2h1.7zm10.2-9.1q2.5 0 4 1.7 1.7 1.6 1.7 4 0 2.3-1.6 3.8-1.7 1.6-4.2 1.6-2.4 0-4-1.6-1.7-1.6-1.7-3.9 0-2.4 1.7-4 1.6-1.5 4.1-1.5zm-.1 2q-1.6 0-2.5 1-1 1-1 2.6 0 1.5 1 2.5t2.6 1q1.5 0 2.5-1t1-2.5q0-1.6-1-2.6t-2.6-1zm16.2 6.4v2q-1.6.7-3 .7-2.6 0-4.1-1.5-1.5-1.5-1.5-4 0-2.6 1.4-4.1 1.5-1.6 3.9-1.6.8 0 1.5.2l1.6.5v2.3q-1.6-1-3-1t-2.4 1q-.9 1-.9 2.6t1 2.6q1 1 2.7 1 1.3 0 2.9-.7zm9.3 2.5v-1.4q-.6.8-1.5 1.2-.9.4-1.8.4-1 0-1.8-.5-.9-.5-1.3-1.4-.5-.9-.5-3v-6h2.2v6q0 1.8.4 2.4.5.7 1.7.7 1.6 0 2.6-1.5v-7.7h2.2V145h-2.2zm14-7.9v7.9h-2.1v-6q0-1.8-.5-2.5t-1.7-.7q-.7 0-1.2.3-.6.3-1.3 1v7.9h-2.1V134h2.1v1.4q1.6-1.6 3.2-1.6 2 0 3.2 2 1.7-2 3.5-2 1.6 0 2.6 1.1 1 1.2 1 3.5v6.4h-2v-6.4q0-1.3-.6-2-.6-.8-1.6-.8-1.4 0-2.5 1.4zm18.8 2.7h-7.6q.1 1.5 1 2.4 1 1 2.5 1 2.2 0 4-1.3v2q-1 .7-2 1-1 .3-2.3.3-1.8 0-2.9-.8-1-.7-1.7-2-.7-1.2-.7-2.9 0-2.4 1.4-4 1.4-1.5 3.6-1.5t3.4 1.5q1.3 1.5 1.3 4v.3zm-7.5-1.3h5.4q0-1.3-.8-2-.6-.6-1.8-.6-1.1 0-1.9.6-.7.7-1 2zm12-4.3v1.4q1.4-1.6 3.2-1.6 1 0 1.9.5.8.5 1.3 1.5.4.9.4 2.8v6.2h-2v-6.1q0-1.7-.6-2.4-.5-.7-1.7-.7-1.5 0-2.5 1.5v7.7h-2.2V134h2.2zm8.4 1.7l4-4v2.3h3.3v2H624v5.2q0 1.9 1.5 1.9 1.2 0 2.5-.8v2q-1.3.7-2.7.7-1.5 0-2.4-.9-.4-.2-.6-.6l-.3-.8-.1-2V136H620v-.2z" font-size="24" font-family="GillSans" fill="#312013"/><path d="M38.1 39h7v1.4h-5.4v15.4H45V57h-6.9V39zm5.8 480v18H37v-1.3h5.3v-15.4H37v-1.5h7z" font-size="24" font-family="Inconsolata" fill="#2a86c0"/><path d="M320.6 248.8l2 .8 3.6 1.5 2.8 1.7 1.7 1.8 1 1.7.4 1v-.1l.5 1.6.6 3.3v5.7l-.5 6.1-.2 4 .1 3.7.8 3.4.7 1.5.1.1.5.5 1.9 1 2 .8 1 .9v.2-.5l-.2.9-1 1.4-1.5 2-1.5 3-.6 1.7v.2l-.3 2.7-.3 5.4-.1 5-.4 4.8-1 4.4-1.9 3.8-2 2.3-1.4 1.3-2 1.2-2.5 1.3-1.3.6c-1.4.6-2.5 1.8-2.6 2.6 0 1 1 1.2 2.3.6l2-1 3.6-1.8 3-2.2 2.7-2.4 2.8-3.5 2-4.6 1.1-4.7.4-4.9.2-5 .3-5.3.2-2.7v.2l.2-.9 1.1-2.2 1.9-2.5 1.4-2.6.2-1v-.4l-.4-1-1.5-1-1.8-.7-1.5-.7-.5-.5.2.2-.7-1.2-.7-3-.2-3.6.2-4 .5-6.1v-6l-.6-3.7-.5-1.5v-.1l-.6-1.1-1.1-1.8-2-2.1-3-2-3.6-1.4-2.1-.8c-.8-.3-2.3.2-3.4 1.3-1.1 1-1.3 2-.5 2.4" fill="#311f13"/><path d="M393.7 279.6h2.2V296h-4.6q-2.4 0-3.8-1.5t-1.4-4q0-2.4 1.4-4 1.5-1.5 3.9-1.5 1 0 2.3.4v-5.8zm0 14.6v-6.9q-1-.5-2-.5-1.6 0-2.6 1-.9 1.1-.9 2.9 0 1.7.8 2.6.5.5 1 .7.6.2 2 .2h1.7zm10.2-9q2.5 0 4 1.6 1.7 1.6 1.7 4 0 2.3-1.6 3.9-1.7 1.5-4.2 1.5-2.4 0-4-1.6-1.7-1.5-1.7-3.9t1.7-4q1.6-1.5 4.1-1.5zm-.1 2q-1.6 0-2.5 1-1 1-1 2.5t1 2.5q1 1 2.6 1 1.5 0 2.5-1t1-2.5q0-1.6-1-2.6t-2.6-1zm16.2 6.3v2q-1.6.7-3 .7-2.6 0-4.1-1.5-1.5-1.5-1.5-4 0-2.6 1.4-4.1 1.5-1.6 3.9-1.6.8 0 1.5.2.6.1 1.6.6v2.2q-1.6-1-3-1t-2.4 1q-.9 1-.9 2.6t1 2.6q1 1 2.7 1 1.3 0 2.9-.7zm9.3 2.5v-1.4q-.6.8-1.5 1.2-.9.4-1.8.4-1 0-1.8-.5-.9-.5-1.3-1.4-.5-.9-.5-3v-6h2.2v6q0 1.8.4 2.5.5.6 1.7.6 1.6 0 2.6-1.5v-7.7h2.2V296h-2.2zm14-7.8v7.8h-2.1v-6q0-1.8-.5-2.5t-1.7-.7q-.7 0-1.2.3-.6.3-1.3 1v7.9h-2.1v-10.8h2.1v1.4q1.6-1.6 3.2-1.6 2 0 3.2 2 1.7-2 3.5-2 1.6 0 2.6 1.1 1 1.2 1 3.5v6.4h-2v-6.4q0-1.3-.6-2-.6-.8-1.6-.8-1.4 0-2.5 1.4zm18.8 2.6h-7.6q.1 1.5 1 2.5 1 .9 2.5.9 2.2 0 4-1.3v2q-1 .7-2 1-1 .3-2.3.3-1.8 0-2.9-.8-1-.7-1.7-2-.7-1.2-.7-2.8 0-2.5 1.4-4 1.4-1.6 3.6-1.6t3.4 1.5q1.3 1.5 1.3 4v.3zm-7.5-1.3h5.4q0-1.3-.8-2-.6-.6-1.8-.6-1.1 0-1.9.7-.7.6-1 2zm12-4.3v1.4q1.4-1.6 3.2-1.6 1 0 1.9.5.8.6 1.3 1.5.4.9.4 2.8v6.2h-2v-6.1q0-1.7-.6-2.4-.5-.7-1.7-.7-1.5 0-2.5 1.5v7.7h-2.2v-10.8h2.2zm8.4 1.8l4-4v2.2h3.3v2H479v5.2q0 1.9 1.5 1.9 1.2 0 2.5-.8v2q-1.3.7-2.7.7-1.5 0-2.4-.9-.4-.2-.6-.5l-.3-.9-.1-2v-4.8H475v-.2z" font-size="24" font-family="GillSans" fill="#312013"/><path d="M320.6 398.8l2 .8 3.6 1.5 2.8 1.7 1.7 1.8 1 1.7.4 1v-.1l.5 1.6.6 3.3v5.7l-.5 6.1-.2 4 .1 3.7.8 3.4.7 1.5.1.1.5.5 1.9 1 2 .8 1 .9v.2-.5l-.2.9-1 1.4-1.5 2-1.5 3-.6 1.7v.2l-.3 2.7-.3 5.4-.1 5-.4 4.8-1 4.4-1.9 3.8-2 2.3-1.4 1.3-2 1.2-2.5 1.3-1.3.6c-1.4.6-2.5 1.8-2.6 2.6 0 1 1 1.2 2.3.6l2-1 3.6-1.8 3-2.2 2.7-2.4 2.8-3.5 2-4.6 1.1-4.7.4-4.9.2-5 .3-5.3.2-2.7v.2l.2-.9 1.1-2.2 1.9-2.5 1.4-2.6.2-1v-.4l-.4-1-1.5-1-1.8-.7-1.5-.7-.5-.5.2.2-.7-1.2-.7-3-.2-3.6.2-4 .5-6.1v-6l-.6-3.7-.5-1.5v-.1l-.6-1.1-1.1-1.8-2-2.1-3-2-3.6-1.4-2.1-.8c-.8-.3-2.3.2-3.4 1.3-1.1 1-1.3 2-.5 2.4" fill="#311f13"/><path d="M393.7 428.6h2.2V445h-4.6q-2.4 0-3.8-1.5t-1.4-4q0-2.4 1.4-4 1.5-1.5 3.9-1.5 1 0 2.3.4v-5.8zm0 14.6v-6.9q-1-.5-2-.5-1.6 0-2.6 1-.9 1.1-.9 2.9 0 1.7.8 2.6.5.5 1 .7.6.2 2 .2h1.7zm10.2-9q2.5 0 4 1.6 1.7 1.6 1.7 4 0 2.3-1.6 3.9-1.7 1.5-4.2 1.5-2.4 0-4-1.6-1.7-1.5-1.7-3.9t1.7-4q1.6-1.5 4.1-1.5zm-.1 2q-1.6 0-2.5 1-1 1-1 2.5t1 2.5q1 1 2.6 1 1.5 0 2.5-1t1-2.5q0-1.6-1-2.6t-2.6-1zm16.2 6.3v2q-1.6.7-3 .7-2.6 0-4.1-1.5-1.5-1.5-1.5-4 0-2.6 1.4-4.1 1.5-1.6 3.9-1.6.8 0 1.5.2.6.1 1.6.6v2.2q-1.6-1-3-1t-2.4 1q-.9 1-.9 2.6t1 2.6q1 1 2.7 1 1.3 0 2.9-.7zm9.3 2.5v-1.4q-.6.8-1.5 1.2-.9.4-1.8.4-1 0-1.8-.5-.9-.5-1.3-1.4-.5-.9-.5-3v-6h2.2v6q0 1.8.4 2.5.5.6 1.7.6 1.6 0 2.6-1.5v-7.7h2.2V445h-2.2zm14-7.8v7.8h-2.1v-6q0-1.8-.5-2.5t-1.7-.7q-.7 0-1.2.3-.6.3-1.3 1v7.9h-2.1v-10.8h2.1v1.4q1.6-1.6 3.2-1.6 2 0 3.2 2 1.7-2 3.5-2 1.6 0 2.6 1.1 1 1.2 1 3.5v6.4h-2v-6.4q0-1.3-.6-2-.6-.8-1.6-.8-1.4 0-2.5 1.4zm18.8 2.6h-7.6q.1 1.5 1 2.5 1 .9 2.5.9 2.2 0 4-1.3v2q-1 .7-2 1-1 .3-2.3.3-1.8 0-2.9-.8-1-.7-1.7-2-.7-1.2-.7-2.8 0-2.5 1.4-4 1.4-1.6 3.6-1.6t3.4 1.5q1.3 1.5 1.3 4v.3zm-7.5-1.3h5.4q0-1.3-.8-2-.6-.6-1.8-.6-1.1 0-1.9.7-.7.6-1 2zm12-4.3v1.4q1.4-1.6 3.2-1.6 1 0 1.9.5.8.6 1.3 1.5.4.9.4 2.8v6.2h-2v-6.1q0-1.7-.6-2.4-.5-.7-1.7-.7-1.5 0-2.5 1.5v7.7h-2.2v-10.8h2.2zm8.4 1.8l4-4v2.2h3.3v2H479v5.2q0 1.9 1.5 1.9 1.2 0 2.5-.8v2q-1.3.7-2.7.7-1.5 0-2.4-.9-.4-.2-.6-.5l-.3-.9-.1-2v-4.8H475v-.2z" font-size="24" font-family="GillSans" fill="#312013"/></svg>