<svg xmlns="http://www.w3.org/2000/svg" viewBox="0, 0, 900, 450" height="450" width="900"><path d="M28.8 110.4h146.8v309H28.8z" fill="#fff"/><path d="M28.8 110.4h146.8v309H28.8zm0 44.2h146.8M28.8 242.8h146.8M28.8 198.7h146.8M28.8 287h146.8M28.8 331h146.8M28.8 375.2h146.8" stroke="#173182" fill="none"/><path d="M40 136.8q-1.4 0-2.2-.2-.9-.3-1.3-1t-.3-2V132q0-1.2-.4-1.6-.4-.4-1.2-.4h-.3v-1h.3q.8 0 1.3-.5.4-.5.4-1.5v-1.3q0-3.1 3.2-3.1h1.1v1h-1.4q-1.7 0-1.7 2v1.2q0 2-1.5 2.7 1.5.5 1.5 2.7v1.6q0 1.2.5 1.6.5.5 1.7.5h1v1H40zm15.7-11.2q1.8 0 2.7.9 1 .9 1 3v4.5h-1.5v-1.3q-.8 1.5-2.8 1.5-1.4 0-2.1-.6-.8-.7-.8-1.7 0-.9.5-1.5.6-.7 1.5-1 1-.4 2.1-.4l1.9.1q-.1-1.3-.8-1.9-.6-.6-1.8-.6-.6 0-1.2.3l-1 .6-.6-.8q1.1-1.1 2.9-1.1zm-.5 7.6q1.4 0 2.1-.8.8-.8.9-2.3h-1.8q-1.3 0-2.1.4t-.8 1.3q0 1.4 1.7 1.4zm13.6-6.6h-.4q-.9 0-1.5.3.3.7.3 1.4 0 .8-.3 1.5-.4.6-1 1-.7.4-1.5.4-.7 0-1.3-.3-.3.4-.3.8t.5.6q.6.2 2 .2 1.7 0 2.4.5.6.6.6 1.6t-.9 1.7q-.8.8-2.7.8-1.7 0-2.7-.6-1-.5-1-1.6 0-.6.3-1 .4-.5 1-.8-.6-.4-.6-1.1 0-.7.7-1.5l-.7-1q-.2-.5-.2-1.2 0-.8.3-1.4.4-.7 1-1 .7-.5 1.6-.5 1.3 0 2 .9l1-.6q.4-.2 1-.2h.3l.1 1zm-4.4 3.5q.7 0 1.2-.5.6-.5.6-1.3t-.6-1.3q-.5-.5-1.2-.5-.8 0-1.3.5t-.5 1.3q0 .8.5 1.3t1.3.5zm2.7 4.7l-.1-.7-.6-.4H65q-1.3 0-2-.3l-.7.6-.1.8q0 .6.7 1 .6.3 1.9.3 1.1 0 1.7-.4.6-.3.6-1zm7.1-.7q-1.8 0-3-1-1-1.2-1-3.2 0-1.4.5-2.3.5-1 1.3-1.5.9-.6 2-.6 1.5 0 2.4 1 1 1 1 3l-.1.5h-5.9q0 1.6.9 2.3.7.8 2 .8 1.2 0 2-1l.8.8q-1 1.2-3 1.2zm1.8-5q0-1.2-.6-1.9t-1.5-.7q-1 0-1.6.7-.7.6-.8 1.8H76zm6.6-.7q-.4 0-.8-.3-.3-.3-.3-.7 0-.4.3-.7.3-.3.8-.3.4 0 .7.3.4.3.4.7 0 .4-.4.7-.3.3-.7.3zm0 5.8q-.5 0-.8-.3-.3-.3-.3-.8 0-.4.3-.7.3-.3.8-.3.4 0 .7.3.4.3.4.7 0 .5-.4.8-.3.3-.7.3zm17.8-.2v-9.7l-2.2.7-.3-.7 3-1.6h.8V134h-1.3zm9.4.1q-1 0-1.8-.4-.8-.3-1.2-1-.4-.7-.4-1.6 0-1 .6-1.8t1.6-1.3q-.7-.4-1.2-1-.5-.8-.5-1.6 0-1.2.8-2t2.2-.8q1.5 0 2.2.8.8.7.8 1.9 0 .8-.5 1.5T111 128q1 .4 1.5 1.3.6.8.6 1.8 0 .8-.4 1.5t-1.2 1.1q-.8.4-1.8.4zm.3-6.6q.7-.4 1.1-1 .4-.6.4-1.2 0-.7-.4-1.1-.5-.5-1.3-.5-.9 0-1.3.4-.5.5-.5 1.2t.5 1.2q.5.5 1.5 1zm-.3 5.5q1 0 1.6-.5.6-.6.6-1.4 0-.9-.7-1.5-.6-.7-1.7-1-.9.3-1.4 1-.5.6-.5 1.4 0 .9.5 1.4.6.6 1.6.6zm7.5 3.4q.5-.4.8-1 .3-.5.3-.8v-.3l-.4-.3-.4-.4v-.4q0-.5.2-.8.3-.3.8-.3t.8.4q.4.5.4 1.1 0 1.4-2 3.4l-.5-.6zm19.3-2.2q-.5 0-.8-.3-.3-.3-.3-.8 0-.4.3-.7.3-.3.8-.3.4 0 .7.3.3.3.3.7 0 .5-.3.8-.3.3-.7.3zm9 0q-.5 0-.8-.3-.3-.3-.3-.8 0-.4.3-.7.3-.3.8-.3.4 0 .7.3.3.3.3.7 0 .5-.3.8-.3.3-.7.3zm9 0q-.5 0-.8-.3-.3-.3-.3-.8 0-.4.3-.7.3-.3.8-.3.4 0 .7.3.3.3.3.7 0 .5-.3.8-.3.3-.7.3zm5.7 2.6v-1h1q1.1 0 1.7-.5.5-.4.5-1.6V132q0-2.2 1.4-2.7-1.5-.7-1.5-2.7v-1.3q0-1.9-1.7-1.9h-1.4v-1h1.1q3.3 0 3.3 3.1v1.3q0 1 .4 1.5t1.2.5h.4v1h-.4q-.8 0-1.2.4-.4.4-.4 1.6v1.8q.1 1.2-.3 1.9t-1.3 1q-.8.2-2.2.2h-.6z" font-size="18" font-family="Inconsolata" fill="#173182"/><path d="M40 184q-1.4 0-2.2-.3-.9-.3-1.3-1t-.3-2V179q0-1.2-.4-1.6-.4-.4-1.2-.4h-.3v-1h.3q.8 0 1.3-.5.4-.5.4-1.5v-1.3q0-3.1 3.2-3.1h1.1v1h-1.4q-1.7 0-1.7 2v1.2q0 2-1.5 2.7 1.5.5 1.5 2.8v1.5q0 1.2.5 1.6.5.5 1.7.5h1v1H40zm15.7-11.3q1.8 0 2.7.9 1 .9 1 3.1v4.4h-1.5v-1.3q-.8 1.5-2.8 1.5-1.4 0-2.1-.6-.8-.7-.8-1.7 0-.9.5-1.5.6-.7 1.5-1 1-.4 2.1-.4l1.9.1q-.1-1.3-.8-1.9-.6-.6-1.8-.6-.6 0-1.2.3l-1 .6-.6-.8q1.1-1.1 2.9-1.1zm-.5 7.6q1.4 0 2.1-.8.8-.8.9-2.3h-1.8q-1.3 0-2.1.4t-.8 1.3q0 1.4 1.7 1.4zm13.6-6.6h-.4q-.9 0-1.5.4.3.6.3 1.3 0 .8-.3 1.5-.4.6-1 1-.7.4-1.5.4-.7 0-1.3-.3-.3.4-.3.8t.5.6q.6.2 2 .2 1.7 0 2.4.5.6.6.6 1.6t-.9 1.7q-.8.8-2.7.8-1.7 0-2.7-.6-1-.5-1-1.6 0-.6.3-1 .4-.5 1-.8-.6-.4-.6-1.1 0-.7.7-1.5l-.7-1q-.2-.5-.2-1.2 0-.8.3-1.4.4-.7 1-1 .7-.5 1.6-.5 1.3 0 2 .9l1-.6q.4-.2 1-.2h.3l.1 1zm-4.4 3.5q.7 0 1.2-.5.6-.5.6-1.3t-.6-1.3q-.5-.5-1.2-.5-.8 0-1.3.5t-.5 1.3q0 .8.5 1.3t1.3.5zm2.7 4.7l-.1-.7-.6-.3q-.5-.2-1.4-.2-1.3 0-2-.2l-.7.6-.1.8q0 .6.7 1 .6.3 1.9.3 1.1 0 1.7-.4.6-.3.6-1zm7.1-.6q-1.8 0-3-1.2-1-1-1-3.1 0-1.4.5-2.3.5-1 1.3-1.5.9-.6 2-.6 1.5 0 2.4 1 1 1 1 3l-.1.5h-5.9q0 1.6.9 2.3.7.8 2 .8 1.2 0 2-1l.8.8q-1 1.3-3 1.3zM76 176q0-1.1-.6-1.8t-1.5-.7q-1 0-1.6.7-.7.6-.8 1.8H76zm6.6-.5q-.4 0-.8-.3-.3-.3-.3-.7 0-.4.3-.7.3-.3.8-.3.4 0 .7.3.4.3.4.7 0 .4-.4.7-.3.3-.7.3zm0 5.8q-.5 0-.8-.3-.3-.3-.3-.8 0-.4.3-.7.3-.3.8-.3.4 0 .7.3.4.3.4.7 0 .5-.4.8-.3.3-.7.3zm15-1.3l1.5-1.4 2.1-2.3q.8-.8 1.2-1.6.4-.9.4-1.7 0-1.1-.5-1.6t-1.4-.5q-.7 0-1.4.3l-.9.8-.2.4v.4l-.1-.1-1-.7q.6-1 1.5-1.6 1-.6 2.1-.6 1.5 0 2.3.8 1 1 1 2.4 0 1-.5 1.9-.5.9-1.2 1.7-.7.9-2 2.1l-1.3 1.3h4.6l.3-.2h.1v1.3h-6.6v-1zm12.2 1.3q-1 0-1.8-.4t-1.2-1.1q-.4-.7-.4-1.6 0-1 .6-1.8t1.6-1.3q-.7-.4-1.2-1-.5-.8-.5-1.6 0-1.2.8-2t2.2-.8q1.5 0 2.2.8.8.7.8 1.9 0 .8-.5 1.5t-1.3 1.2q1 .4 1.5 1.3.6.8.6 1.8 0 .8-.4 1.5t-1.2 1.2q-.8.4-1.8.4zm.3-6.7q.7-.4 1.1-1 .4-.6.4-1.2 0-.7-.4-1.1-.5-.5-1.3-.5-.9 0-1.3.4-.5.5-.5 1.2t.5 1.2q.5.5 1.5 1zm-.3 5.5q1 0 1.6-.5.6-.6.6-1.4 0-.9-.7-1.5-.6-.7-1.7-1-.9.3-1.4 1-.5.6-.5 1.4 0 .9.5 1.4.6.6 1.6.6zm7.5 3.5l.8-1q.3-.6.3-1v-.2l-.4-.3-.4-.4v-.4q0-.5.2-.8.3-.3.8-.3t.8.4q.4.5.4 1.1 0 1.4-2 3.4l-.5-.5zm19.3-2.3q-.5 0-.8-.3-.3-.3-.3-.8 0-.4.3-.7.3-.3.8-.3.4 0 .7.3.3.3.3.7 0 .5-.3.8-.3.3-.7.3zm9 0q-.5 0-.8-.3-.3-.3-.3-.8 0-.4.3-.7.3-.3.8-.3.4 0 .7.3.3.3.3.7 0 .5-.3.8-.3.3-.7.3zm9 0q-.5 0-.8-.3-.3-.3-.3-.8 0-.4.3-.7.3-.3.8-.3.4 0 .7.3.3.3.3.7 0 .5-.3.8-.3.3-.7.3zm5.7 2.7v-1h1q1.1 0 1.7-.6.5-.4.5-1.6v-1.5q0-2.3 1.4-2.8-1.5-.7-1.5-2.7v-1.3q0-1.9-1.7-1.9h-1.4v-1h1.1q3.3 0 3.3 3.1v1.3q0 1 .4 1.5t1.2.5h.4v1h-.4q-.8 0-1.2.4-.4.4-.4 1.6v1.8q.1 1.2-.3 2-.4.6-1.3.9-.8.2-2.2.2h-.6z" font-size="18" font-family="Inconsolata" fill="#26408c"/><path d="M39.8 272.7q-1.3 0-2.2-.3-.8-.3-1.2-1-.4-.7-.4-1.9l.1-1.8q0-1.1-.4-1.6-.4-.4-1.2-.4H34v-1h.4q.8 0 1.2-.5.4-.4.4-1.4v-1.3q0-3.2 3.3-3.2h1.1v1H39q-1.6 0-1.6 2v1.2q0 2-1.6 2.7 1.6.5 1.6 2.8l-.1 1.5q0 1.2.5 1.7.5.4 1.8.4h.9v1h-.7zm15.8-11.3q1.7 0 2.6.9 1 1 1 3.1v4.4h-1.4v-1.3Q57 270 55 270q-1.4 0-2.2-.6-.8-.7-.8-1.7 0-.8.6-1.5.6-.6 1.5-1 1-.3 2-.3h2q-.2-1.3-.8-1.9-.6-.6-1.8-.6-.6 0-1.2.3-.6.2-1 .7l-.7-.9q1.2-1.1 3-1.1zM55 269q1.3 0 2-.8.9-.8 1-2.2l-1.8-.2q-1.4 0-2.2.5-.8.4-.8 1.3 0 1.4 1.8 1.4zm13.7-6.6h-.5q-.8 0-1.4.4.3.6.3 1.3 0 .8-.4 1.5-.3.6-1 1-.6.4-1.5.4-.7 0-1.2-.3-.4.4-.4.8t.6.6q.5.2 2 .2 1.7 0 2.3.6.7.5.7 1.5t-.9 1.8q-.9.7-2.7.7-1.8 0-2.8-.6-1-.5-1-1.5 0-.7.4-1.2l1-.7q-.7-.4-.7-1 0-.8.8-1.6-.5-.4-.7-1-.3-.5-.3-1.2 0-.8.4-1.4.4-.7 1-1 .7-.4 1.5-.4 1.3 0 2.1.8l1-.6q.4-.2 1-.2h.2l.2 1.1zm-4.5 3.5q.8 0 1.3-.5t.5-1.3q0-.7-.5-1.3-.5-.5-1.3-.5-.7 0-1.3.5-.5.6-.5 1.3 0 .8.5 1.3.6.5 1.3.5zm2.8 4.7q0-.4-.2-.7-.1-.2-.6-.3-.4-.2-1.3-.2-1.3 0-2-.2l-.7.6q-.2.3-.2.8 0 .6.7 1 .7.3 2 .3 1.1 0 1.7-.3.6-.4.6-1zm7-.6q-1.8 0-2.9-1.1-1-1.2-1-3.2 0-1.3.4-2.3.6-1 1.4-1.5.9-.5 2-.5 1.4 0 2.3 1 1 1 1 2.9v.6h-6q.2 1.5 1 2.3.7.7 1.9.7 1.3 0 2.1-.9l.7.7q-1 1.3-2.8 1.3zm1.9-5.1q0-1.2-.6-1.9-.6-.6-1.6-.6-.9 0-1.5.6-.7.6-.9 1.9H76zm6.5-.7q-.4 0-.7-.3-.3-.3-.3-.7 0-.4.3-.7.3-.3.7-.3.5 0 .8.3.3.3.3.7 0 .4-.3.7-.3.3-.8.3zm0 5.8q-.4 0-.7-.3-.3-.3-.3-.7 0-.5.3-.8.3-.3.7-.3.5 0 .8.3.3.3.3.8 0 .4-.3.7-.3.3-.8.3zm19.3-6.1q1 .3 1.6 1 .5.7.5 1.8 0 1-.3 1.7-.4.7-1.2 1.2-.8.4-1.8.4t-1.7-.3q-.8-.4-1.4-1l.8-1q.5.6 1 .9.5.3 1.2.3 1 0 1.6-.6.6-.6.6-1.6 0-1.2-.7-1.7-.7-.6-2-.6h-.5v-1q1.6 0 2.2-.5.6-.6.6-1.7 0-.7-.5-1.2-.4-.4-1.1-.4-1.2 0-2 .8l-.8-.7q1-1.2 2.8-1.2 1.3 0 2 .8.9.7.9 2 0 1-.5 1.6-.4.7-1.3 1zm-3.3 3.8h-.1v-.1h.1zm-.2 0q0-.1 0 0zm11.5 2.3q-1 0-1.9-.4-.7-.4-1.1-1.1-.5-.7-.5-1.5 0-1 .7-1.9.6-.8 1.6-1.3-.8-.4-1.3-1-.4-.8-.4-1.6 0-1.2.8-2 .7-.8 2.2-.8 1.4 0 2.2.8.7.7.7 1.9 0 .8-.5 1.5-.5.8-1.3 1.2 1 .4 1.6 1.3.6.8.6 1.8 0 .9-.4 1.6-.4.7-1.2 1-.8.5-1.8.5zm.3-6.7q.6-.3 1-1 .5-.5.5-1.2t-.5-1.1q-.4-.5-1.3-.5-.8 0-1.3.5-.4.4-.4 1 0 .8.5 1.3t1.5 1zm-.3 5.5q1 0 1.6-.5.5-.6.5-1.4 0-.8-.6-1.5-.7-.7-1.8-1-.8.3-1.3 1-.6.6-.6 1.4 0 .9.6 1.5.6.5 1.6.5zm7.4 3.5l.9-1q.3-.6.3-1v-.2q-.2 0-.4-.3l-.4-.4-.1-.4q0-.5.3-.8.3-.3.7-.3.5 0 .9.5.4.4.4 1 0 1.4-2 3.4l-.6-.5zm19.3-2.3q-.4 0-.7-.3-.3-.3-.3-.7 0-.5.3-.8.3-.3.7-.3.5 0 .8.3.3.3.3.8 0 .4-.3.7-.3.3-.8.3zm9 0q-.4 0-.7-.3-.3-.3-.3-.7 0-.5.3-.8.3-.3.7-.3.5 0 .8.3.3.3.3.8 0 .4-.3.7-.3.3-.8.3zm9 0q-.4 0-.7-.3-.3-.3-.3-.7 0-.5.3-.8.3-.3.7-.3.5 0 .8.3.3.3.3.8 0 .4-.3.7-.3.3-.8.3zm5.8 2.7v-1h.9q1.2 0 1.7-.5t.5-1.7V268q0-2.3 1.5-2.8-1.6-.7-1.6-2.7v-1.2q0-2-1.6-2h-1.5v-1h1.2q3.2 0 3.2 3.2v1.3q0 1 .4 1.4.4.5 1.3.5h.3v1h-.3q-.9 0-1.3.4-.4.5-.4 1.6l.1 1.8q0 1.2-.3 2-.4.6-1.3.9-.8.3-2.2.3h-.6z" font-size="18" font-family="Inconsolata" fill="#173182"/><path d="M40 227.5q-1.4 0-2.2-.3-.9-.3-1.3-1-.4-.6-.3-1.9v-1.8q0-1.1-.4-1.5-.4-.5-1.2-.5h-.3v-1h.3q.8 0 1.3-.4.4-.5.4-1.5v-1.3q0-3.1 3.2-3.1h1.1v1h-1.4q-1.7 0-1.7 1.9v1.3q0 2-1.5 2.6 1.5.5 1.5 2.8v1.5q0 1.2.5 1.7t1.7.5h1v1H40zm15.7-11.3q1.8 0 2.7 1 1 .9 1 3v4.4h-1.5v-1.2q-.8 1.4-2.8 1.4-1.4 0-2.1-.6-.8-.6-.8-1.6t.5-1.6q.6-.6 1.5-1 1-.3 2.1-.3l1.9.1q-.1-1.4-.8-2-.6-.5-1.8-.5l-1.2.2q-.5.2-1 .7l-.6-.8q1.1-1.2 2.9-1.2zm-.5 7.6q1.4 0 2.1-.7.8-.8.9-2.3l-1.8-.1q-1.3 0-2.1.4-.8.5-.8 1.4 0 1.3 1.7 1.3zm13.6-6.6h-.4q-.9 0-1.5.4.3.6.3 1.4 0 .8-.3 1.4-.4.7-1 1-.7.4-1.5.4-.7 0-1.3-.2-.3.4-.3.7 0 .5.5.7l2 .1q1.7 0 2.4.6.6.5.6 1.5 0 1.1-.9 1.8-.8.7-2.7.7-1.7 0-2.7-.5-1-.6-1-1.6 0-.7.3-1.1.4-.5 1-.8-.6-.4-.6-1 0-.8.7-1.6l-.7-1q-.2-.5-.2-1.1 0-.8.3-1.5.4-.7 1-1 .7-.4 1.6-.4 1.3 0 2 .8.5-.4 1-.5.4-.2 1-.2h.3l.1 1zm-4.4 3.6q.7 0 1.2-.6.6-.5.6-1.2 0-.8-.6-1.3-.5-.5-1.2-.5-.8 0-1.3.5t-.5 1.3q0 .7.5 1.2.5.6 1.3.6zm2.7 4.6l-.1-.6q-.2-.3-.6-.4l-1.4-.1q-1.3 0-2-.3l-.7.6-.1.9q0 .6.7 1 .6.2 1.9.2 1.1 0 1.7-.3.6-.4.6-1zm7.1-.6q-1.8 0-3-1.1-1-1.1-1-3.2 0-1.3.5-2.3.5-1 1.3-1.5.9-.5 2-.5 1.5 0 2.4 1 1 1 1 3l-.1.5h-5.9q0 1.5.9 2.3.7.8 2 .8 1.2 0 2-1l.8.7q-1 1.3-3 1.3zm1.8-5.1q0-1.2-.6-1.8-.6-.7-1.5-.7-1 0-1.6.6-.7.7-.8 1.9H76zm6.6-.7l-.8-.2q-.3-.3-.3-.7 0-.5.3-.8.3-.3.8-.3.4 0 .7.3.4.3.4.8 0 .4-.4.7-.3.3-.7.3zm0 5.8q-.5 0-.8-.3-.3-.3-.3-.7 0-.4.3-.7.3-.3.8-.3.4 0 .7.3.4.3.4.7 0 .4-.4.7-.3.3-.7.3zm15-1.2l1.5-1.5 2.1-2.2q.8-.9 1.2-1.7.4-.8.4-1.7 0-1-.5-1.6-.5-.5-1.4-.5-.7 0-1.4.4-.6.3-.9.7l-.2.4v.4h-.1l-1-.8q.6-1 1.5-1.6 1-.6 2.1-.6 1.5 0 2.3.9 1 .9 1 2.3 0 1-.5 2-.5.9-1.2 1.7l-2 2-1.3 1.3h4.6q.2 0 .3-.2h.1v1.3h-6.6v-1zm11.8 1V215l-2.2.6-.3-.7 3-1.5h.8v11.2h-1.3zm7.9 2.5l.8-1q.3-.5.3-.9v-.3l-.4-.3-.4-.4v-.4q0-.4.2-.7.3-.3.8-.3t.8.4q.4.4.4 1 0 1.5-2 3.4l-.5-.5zm19.3-2.3q-.5 0-.8-.3-.3-.3-.3-.7 0-.4.3-.7.3-.3.8-.3.4 0 .7.3.3.3.3.7 0 .4-.3.7-.3.3-.7.3zm9 0q-.5 0-.8-.3-.3-.3-.3-.7 0-.4.3-.7.3-.3.8-.3.4 0 .7.3.3.3.3.7 0 .4-.3.7-.3.3-.7.3zm9 0q-.5 0-.8-.3-.3-.3-.3-.7 0-.4.3-.7.3-.3.8-.3.4 0 .7.3.3.3.3.7 0 .4-.3.7-.3.3-.7.3zm5.7 2.7v-1h1q1.1 0 1.7-.5.5-.5.5-1.7v-1.5q0-2.3 1.4-2.8-1.5-.7-1.5-2.6V216q0-2-1.7-2h-1.4v-1h1.1q3.3 0 3.3 3.2v1.3q0 1 .4 1.5.4.4 1.2.4h.4v1h-.4q-.8 0-1.2.5-.4.4-.4 1.5v1.8q.1 1.3-.3 2-.4.6-1.3 1-.8.2-2.2.2h-.6z" font-size="18" font-family="Inconsolata" fill="#1a3485"/><path d="M40 404q-1.4 0-2.2-.2-.9-.3-1.3-1-.4-.6-.3-1.9v-1.8q0-1.1-.4-1.5-.4-.5-1.2-.5h-.3v-1h.3q.8 0 1.3-.4.4-.5.4-1.5v-1.3q0-3.2 3.2-3.2h1.1v1h-1.4q-1.7 0-1.7 2v1.2q0 2-1.5 2.7 1.5.5 1.5 2.8v1.5q0 1.2.5 1.7t1.7.5h1v1H40zm15.7-11.2q1.8 0 2.7 1 1 .8 1 3v4.4h-1.5V400q-.8 1.4-2.8 1.4-1.4 0-2.1-.6-.8-.6-.8-1.7 0-.8.5-1.5.6-.6 1.5-1 1-.3 2.1-.3h1.9q-.1-1.3-.8-1.9-.6-.5-1.8-.5l-1.2.2q-.5.2-1 .7l-.6-.8q1.1-1.2 2.9-1.2zm-.5 7.6q1.4 0 2.1-.8.8-.7.9-2.2l-1.8-.1q-1.3 0-2.1.4-.8.5-.8 1.4 0 1.3 1.7 1.3zm13.6-6.6h-.4q-.9 0-1.5.4.3.6.3 1.3 0 .9-.3 1.5-.4.7-1 1-.7.4-1.5.4-.7 0-1.3-.2-.3.4-.3.7 0 .5.5.7l2 .1q1.7 0 2.4.6.6.5.6 1.5t-.9 1.8q-.8.7-2.7.7-1.7 0-2.7-.5-1-.6-1-1.6 0-.7.3-1.1.4-.5 1-.8-.6-.4-.6-1 0-.8.7-1.6l-.7-1q-.2-.5-.2-1.2t.3-1.4q.4-.7 1-1 .7-.4 1.6-.4 1.3 0 2 .8.5-.4 1-.5.4-.2 1-.2h.3l.1 1zm-4.4 3.5q.7 0 1.2-.5.6-.5.6-1.3 0-.7-.6-1.2-.5-.6-1.2-.6-.8 0-1.3.6-.5.5-.5 1.2 0 .8.5 1.3t1.3.5zM67 402l-.1-.7-.6-.3-1.4-.1q-1.3 0-2-.3l-.7.6-.1.8q0 .7.7 1 .6.3 1.9.3 1.1 0 1.7-.3.6-.4.6-1zm7.2-.6q-1.8 0-3-1.1-1-1.1-1-3.2 0-1.3.5-2.3.5-1 1.3-1.5.9-.5 2-.5 1.5 0 2.4 1 1 1 1 2.9l-.1.6h-5.9q0 1.5.9 2.3.7.7 2 .7 1.2 0 2-.9l.8.7q-1 1.3-3 1.3zm1.8-5.1q0-1.2-.6-1.8-.6-.7-1.5-.7-1 0-1.6.6-.7.6-.8 1.9H76zm6.6-.6q-.4 0-.8-.3-.3-.3-.3-.8 0-.4.3-.7.3-.3.8-.3.4 0 .7.3.4.3.4.7 0 .5-.4.8-.3.3-.7.3zm0 5.7q-.5 0-.8-.3-.3-.3-.3-.7 0-.4.3-.8.3-.3.8-.3.4 0 .7.3.4.4.4.8t-.4.7q-.3.3-.7.3zm19.2-6.1q1 .3 1.6 1 .6.7.6 1.8 0 1-.4 1.7t-1.2 1.2q-.7.4-1.8.4-.9 0-1.7-.3-.8-.3-1.4-1l.9-1 1 1q.4.2 1.2.2 1 0 1.5-.6.6-.6.6-1.6 0-1.1-.7-1.7-.7-.6-1.9-.6h-.6v-1q1.6 0 2.2-.5.6-.6.6-1.6 0-.8-.4-1.2-.5-.5-1.2-.5-1.2 0-2 .8l-.8-.7q1.1-1.2 2.8-1.2 1.3 0 2.1.8t.8 2q0 1-.4 1.6-.5.7-1.4 1zm-3.2 3.8h-.2v-.1h.2zm-.2 0q0-.1 0 0zm11 2.1v-9.7l-2.2.7-.3-.7 3-1.5h.8v11.2h-1.3zm7.9 2.5l.8-1 .3-.9v-.3l-.4-.3-.4-.4v-.4q0-.4.2-.7.3-.3.8-.3t.8.4q.4.4.4 1 0 1.5-2 3.4l-.5-.5zm19.3-2.3q-.5 0-.8-.3-.3-.3-.3-.7 0-.4.3-.7.3-.3.8-.3.4 0 .7.3.3.3.3.7 0 .4-.3.7-.3.3-.7.3zm9 0q-.5 0-.8-.3-.3-.3-.3-.7 0-.4.3-.7.3-.3.8-.3.4 0 .7.3.3.3.3.7 0 .4-.3.7-.3.3-.7.3zm9 0q-.5 0-.8-.3-.3-.3-.3-.7 0-.4.3-.7.3-.3.8-.3.4 0 .7.3.3.3.3.7 0 .4-.3.7-.3.3-.7.3zm5.7 2.6v-1h1q1.1 0 1.7-.4.5-.5.5-1.7v-1.5q0-2.3 1.4-2.8-1.5-.7-1.5-2.7v-1.2q0-2-1.7-2h-1.4v-1h1.1q3.3 0 3.3 3.2v1.3q0 1 .4 1.5.4.4 1.2.4h.4v1h-.4q-.8 0-1.2.5-.4.4-.4 1.5v1.8q.1 1.3-.3 2-.4.6-1.3.9-.8.3-2.2.3h-.6zM40 316.4q-1.4 0-2.2-.3-.9-.3-1.3-1t-.3-1.9v-1.8q0-1.1-.4-1.6-.4-.4-1.2-.4h-.3v-1h.3q.8 0 1.3-.5.4-.4.4-1.4v-1.3q0-3.2 3.2-3.2h1.1v1h-1.4q-1.7 0-1.7 2v1.2q0 2-1.5 2.7 1.5.5 1.5 2.8v1.5q0 1.2.5 1.7.5.4 1.7.4h1v1H40zM55.7 305q1.8 0 2.7 1 1 1 1 3.1v4.4h-1.5v-1.3q-.8 1.5-2.8 1.5-1.4 0-2.1-.6-.8-.7-.8-1.7 0-.8.5-1.5.6-.6 1.5-1 1-.3 2.1-.3h1.9q-.1-1.3-.8-1.9-.6-.6-1.8-.6-.6 0-1.2.3-.5.2-1 .7l-.6-.9q1.1-1.1 2.9-1.1zm-.5 7.7q1.4 0 2.1-.8.8-.8.9-2.2-.8-.2-1.8-.2-1.3 0-2.1.5-.8.4-.8 1.4 0 1.3 1.7 1.3zm13.6-6.6h-.4q-.9 0-1.5.4.3.6.3 1.3 0 .8-.3 1.5-.4.6-1 1-.7.4-1.5.4-.7 0-1.3-.2-.3.3-.3.7 0 .4.5.6.6.2 2 .2 1.7 0 2.4.6.6.5.6 1.5t-.9 1.8q-.8.7-2.7.7-1.7 0-2.7-.6-1-.5-1-1.5 0-.7.3-1.2l1-.7q-.6-.4-.6-1 0-.8.7-1.6l-.7-1q-.2-.5-.2-1.2 0-.8.3-1.4.4-.7 1-1 .7-.4 1.6-.4 1.3 0 2 .8l1-.6q.4-.2 1-.2h.3l.1 1.1zm-4.4 3.5q.7 0 1.2-.5.6-.5.6-1.3 0-.7-.6-1.3-.5-.5-1.2-.5-.8 0-1.3.5-.5.6-.5 1.3 0 .8.5 1.3t1.3.5zm2.7 4.7l-.1-.7-.6-.3-1.4-.1q-1.3 0-2-.3l-.7.6-.1.8q0 .6.7 1 .6.3 1.9.3 1.1 0 1.7-.3.6-.4.6-1zm7.1-.6q-1.8 0-3-1.1-1-1.2-1-3.2 0-1.3.5-2.3.5-1 1.3-1.5.9-.5 2-.5 1.5 0 2.4 1 1 1 1 2.9l-.1.6h-5.9q0 1.5.9 2.3.7.7 2 .7 1.2 0 2-.9l.8.7q-1 1.3-3 1.3zm1.8-5.1q0-1.2-.6-1.9-.6-.6-1.5-.6-1 0-1.6.6-.7.6-.8 1.9H76zm6.6-.6q-.4 0-.8-.4-.3-.3-.3-.7 0-.4.3-.7.3-.3.8-.3.4 0 .7.3.4.3.4.7 0 .4-.4.7-.3.3-.7.3zm0 5.7q-.5 0-.8-.3-.3-.3-.3-.7 0-.5.3-.8.3-.3.8-.3.4 0 .7.3.4.3.4.8 0 .4-.4.7-.3.3-.7.3zm17.8-.2v-9.7l-2.2.7-.3-.7 3-1.5h.8v11.2h-1.3zm9.4.2q-1 0-1.8-.4t-1.2-1.1q-.4-.7-.4-1.5 0-1 .6-1.9.6-.8 1.6-1.3-.7-.4-1.2-1-.5-.8-.5-1.6 0-1.2.8-2t2.2-.8q1.5 0 2.2.8.8.7.8 1.9 0 .8-.5 1.5-.5.8-1.3 1.2 1 .4 1.5 1.3.6.8.6 1.8 0 .9-.4 1.6-.4.7-1.2 1-.8.5-1.8.5zm.3-6.7q.7-.3 1.1-1 .4-.5.4-1.2 0-.6-.4-1.1-.5-.5-1.3-.5-.9 0-1.3.5-.5.4-.5 1 0 .8.5 1.3t1.5 1zm-.3 5.5q1 0 1.6-.5.6-.6.6-1.4 0-.8-.7-1.5-.6-.7-1.7-1-.9.3-1.4 1-.5.6-.5 1.4 0 .9.5 1.5.6.5 1.6.5zm7.5 3.5l.8-1q.3-.6.3-1v-.2l-.4-.3-.4-.4v-.4l.2-.8q.3-.3.8-.3t.8.5q.4.4.4 1 0 1.4-2 3.4l-.5-.5zm19.3-2.3q-.5 0-.8-.3-.3-.3-.3-.7 0-.4.3-.8.3-.3.8-.3.4 0 .7.3.3.4.3.8t-.3.7q-.3.3-.7.3zm9 0q-.5 0-.8-.3-.3-.3-.3-.7 0-.4.3-.8.3-.3.8-.3.4 0 .7.3.3.4.3.8t-.3.7q-.3.3-.7.3zm9 0q-.5 0-.8-.3-.3-.3-.3-.7 0-.4.3-.8.3-.3.8-.3.4 0 .7.3.3.4.3.8t-.3.7q-.3.3-.7.3zm5.7 2.7v-1h1q1.1 0 1.7-.5.5-.5.5-1.7v-1.5q0-2.3 1.4-2.8-1.5-.7-1.5-2.7V305q0-2-1.7-2h-1.4v-1h1.1q3.3 0 3.3 3.2v1.3q0 1 .4 1.4.4.5 1.2.5h.4v1h-.4q-.8 0-1.2.4-.4.5-.4 1.6v1.8q.1 1.2-.3 2-.4.6-1.3.9-.8.3-2.2.3h-.6zM40 359.2q-1.4 0-2.2-.3-.9-.2-1.3-1-.4-.6-.3-1.9v-1.8q0-1-.4-1.5t-1.2-.5h-.3v-1h.3q.8 0 1.3-.4.4-.5.4-1.5V348q0-3.1 3.2-3.1h1.1v1h-1.4q-1.7 0-1.7 1.9v1.3q0 2-1.5 2.6 1.5.5 1.5 2.8v1.5q0 1.2.5 1.7t1.7.5h1v1H40zM55.7 348q1.8 0 2.7.8 1 1 1 3.2v4.3h-1.5v-1.2q-.8 1.4-2.8 1.4-1.4 0-2.1-.6-.8-.6-.8-1.6t.5-1.6q.6-.6 1.5-1 1-.3 2.1-.3l1.9.1q-.1-1.4-.8-2-.6-.5-1.8-.5l-1.2.2-1 .7-.6-.8q1.1-1.2 2.9-1.2zm-.5 7.5q1.4 0 2.1-.7.8-.8.9-2.3l-1.8-.1q-1.3 0-2.1.4-.8.5-.8 1.4 0 1.3 1.7 1.3zm13.6-6.5h-.4q-.9 0-1.5.3.3.6.3 1.4 0 .8-.3 1.4-.4.7-1 1-.7.4-1.5.4-.7 0-1.3-.2-.3.4-.3.7 0 .5.5.7.6.2 2 .2 1.7 0 2.4.5.6.5.6 1.5 0 1.1-.9 1.8-.8.7-2.7.7-1.7 0-2.7-.5-1-.6-1-1.6 0-.6.3-1.1.4-.5 1-.8-.6-.3-.6-1 0-.8.7-1.6l-.7-1q-.2-.5-.2-1.1 0-.8.3-1.5.4-.6 1-1 .7-.4 1.6-.4 1.3 0 2 .8.5-.4 1-.5.4-.2 1-.2h.3l.1 1zm-4.4 3.5q.7 0 1.2-.6.6-.5.6-1.2 0-.8-.6-1.3-.5-.5-1.2-.5-.8 0-1.3.5t-.5 1.3q0 .7.5 1.2.5.6 1.3.6zM67 357l-.1-.6q-.2-.3-.6-.4H65q-1.3 0-2-.2-.5.2-.7.5l-.1.9q0 .6.7 1 .6.3 1.9.3 1.1 0 1.7-.4.6-.3.6-1zm7.2-.5q-1.8 0-3-1.1-1-1.1-1-3.2 0-1.3.5-2.3.5-1 1.3-1.5.9-.5 2-.5 1.5 0 2.4 1 1 1 1 3l-.1.5h-5.9q0 1.5.9 2.3.7.8 2 .8 1.2 0 2-1l.8.7q-1 1.3-3 1.3zm1.8-5.1q0-1.2-.6-1.8-.6-.7-1.5-.7-1 0-1.6.6-.7.7-.8 1.9H76zm6.6-.6q-.4 0-.8-.3-.3-.3-.3-.7 0-.5.3-.8.3-.3.8-.3.4 0 .7.3.4.3.4.8 0 .4-.4.7-.3.3-.7.3zm0 5.7q-.5 0-.8-.3-.3-.3-.3-.7 0-.4.3-.7.3-.3.8-.3.4 0 .7.3.4.3.4.7 0 .4-.4.7-.3.3-.7.3zm19.2-6.1q1 .3 1.6 1 .6.8.6 1.9 0 .9-.4 1.6-.4.7-1.2 1.2-.7.4-1.8.4-.9 0-1.7-.3-.8-.3-1.4-1l.9-1 1 1q.4.2 1.2.2 1 0 1.5-.6.6-.6.6-1.6 0-1.1-.7-1.7-.7-.5-1.9-.5h-.6v-1q1.6 0 2.2-.6.6-.6.6-1.6 0-.8-.4-1.2-.5-.5-1.2-.5-1.2 0-2 .9l-.8-.8q1.1-1.2 2.8-1.2 1.3 0 2.1.8t.8 2q0 1-.4 1.6-.5.7-1.4 1zm-3.2 3.8h-.2.2zm-.2 0zm11.4 2.3q-1 0-1.8-.4t-1.2-1q-.4-.8-.4-1.6 0-1 .6-1.8.6-.9 1.6-1.3-.7-.4-1.2-1.1-.5-.7-.5-1.6 0-1.2.8-2 .8-.7 2.2-.7 1.5 0 2.2.7.8.8.8 2 0 .7-.5 1.5-.5.7-1.3 1.1 1 .5 1.5 1.3.6.9.6 1.8t-.4 1.6q-.4.7-1.2 1.1-.8.4-1.8.4zm.3-6.6q.7-.4 1.1-1 .4-.6.4-1.2 0-.7-.4-1.2-.5-.5-1.3-.5-.9 0-1.3.5-.5.5-.5 1.1 0 .8.5 1.3l1.5 1zm-.3 5.5q1 0 1.6-.6.6-.5.6-1.4 0-.8-.7-1.5-.6-.7-1.7-1-.9.3-1.4 1-.5.7-.5 1.5t.5 1.4q.6.6 1.6.6zm7.5 3.4l.8-1q.3-.5.3-.9v-.2l-.4-.4-.4-.4v-.4q0-.4.2-.7.3-.3.8-.3t.8.4q.4.4.4 1 0 1.5-2 3.5l-.5-.6zm19.3-2.3q-.5 0-.8-.3-.3-.3-.3-.7 0-.4.3-.7.3-.3.8-.3.4 0 .7.3.3.3.3.7 0 .4-.3.7-.3.3-.7.3zm9 0q-.5 0-.8-.3-.3-.3-.3-.7 0-.4.3-.7.3-.3.8-.3.4 0 .7.3.3.3.3.7 0 .4-.3.7-.3.3-.7.3zm9 0q-.5 0-.8-.3-.3-.3-.3-.7 0-.4.3-.7.3-.3.8-.3.4 0 .7.3.3.3.3.7 0 .4-.3.7-.3.3-.7.3zm5.7 2.7v-1h1q1.1 0 1.7-.5.5-.5.5-1.7v-1.5q0-2.3 1.4-2.8-1.5-.7-1.5-2.6v-1.3q0-2-1.7-2h-1.4v-1h1.1q3.3 0 3.3 3.2v1.3q0 1 .4 1.5.4.4 1.2.4h.4v1h-.4q-.8 0-1.2.5-.4.4-.4 1.5v1.8q.1 1.3-.3 2t-1.3 1q-.8.2-2.2.2h-.6z" font-size="18" font-family="Inconsolata" fill="#173182"/><path d="M73.2 443.5q-1.5 0-2.4-1.1-1-1.2-1-3.4v-5.4h1.6v5.4q0 1.7.5 2.5.7.7 1.6.7 1.1 0 1.9-.8.7-.9.7-2.5v-5.3h1.5v9l.2.6h-1.4l-.2-.6v-.8q-.5.8-1.3 1.2-.8.5-1.7.5zm11.8-5.9q1.8.5 2.5 1.2.8.6.8 1.6 0 1.3-1 2.2-1 .8-3 .8-2.4 0-4-1.5l.8-1.4 1.3 1.3q.7.4 2 .4 1 0 1.7-.4t.7-1.1q0-.7-.6-1-.5-.5-1.8-.9-3.7-1-3.7-3 0-1 1-1.7.9-.7 2.6-.7 1.3 0 2.2.4.9.3 1.6 1.1l-.9 1q-.4-.6-1.2-1-.8-.4-1.7-.4-.9 0-1.5.4-.5.3-.5.8 0 .6.5 1 .6.4 2.2.9zm2-1.6h.2l-.1.1H87zm.2 0q0 .1 0 0zm-5.9 4.4q0 .1-.2 0h.2zm-.2 0zm14.1 3q-2.1 0-3.4-1.3-1.2-1.3-1.2-3.6 0-1.6.5-2.7.6-1.2 1.6-1.8 1-.6 2.3-.6 1.7 0 2.8 1.2 1 1.1 1 3.4v.7H92q0 1.7 1 2.6.9 1 2.3 1 1.5 0 2.5-1.1l.8.8q-1.2 1.4-3.4 1.4zm2.1-6q0-1.3-.7-2-.6-.8-1.7-.8-1 0-1.9.7-.7.7-1 2.2h5.3zm11.7-1.8l-1-.7-1-.2q-.8 0-1.4.4-.7.4-1.1 1.1-.4.8-.4 2v5h-1.6v-9.6h1.6v1.8q.4-1 1.2-1.5.8-.5 1.8-.5 1.5 0 2.5 1l-.6 1.2zm0 0q.1.2 0 .2v-.1zm-.3.1h.2v.1h-.2zm7.8 1.9q1.8.5 2.5 1.2.8.6.8 1.6 0 1.3-1 2.2-1 .8-3 .8-2.4 0-4-1.5l.8-1.4 1.3 1.3q.7.4 2 .4 1 0 1.7-.4t.7-1.1q0-.7-.6-1-.5-.5-1.8-.9-3.7-1-3.7-3 0-1 1-1.7.9-.7 2.6-.7 1.3 0 2.2.4.9.3 1.6 1.1l-.9 1q-.4-.6-1.2-1-.8-.4-1.7-.4-.9 0-1.5.4-.5.3-.5.8 0 .6.5 1 .6.4 2.2.9zm2-1.6h.2l-.1.1h-.1zm.2 0q0 .1 0 0zm-5.9 4.4q0 .1-.2 0h.2zm-.2 0z" font-size="21" font-family="Inconsolata" fill="#173182"/><g stroke="#2a86c0" stroke-width="6"><path d="M190.4 264.8l129 .1" fill="none"/><path d="M319.4 271l16-6-16-6z" fill="#2a86c0"/></g><path d="M206 300l-2 2q-1 0-2.1-.3l-2.1-.8q-1.1-.5-3-1.8-2.5-.4-4.2-2.4-1.7-2-1.7-4.7 0-3.2 2.2-5.3 2.1-2 5.5-2 3.3 0 5.5 2t2.2 5.2q0 2.7-1.7 4.7-1.6 2-4.3 2.5l.6.2q2.5 1 3.6 1 .7 0 1.5-.3zm-7.4-13.4q-2.4 0-4 1.5-1.6 1.6-1.6 4 0 2.2 1.6 3.8 1.6 1.5 4 1.5t4-1.6q1.6-1.5 1.6-3.8 0-2.4-1.6-4-1.6-1.4-4-1.4zm15.9 12.5V298q-.5.7-1.3 1-.8.4-1.5.4-1 0-1.7-.4-.7-.5-1.1-1.2-.4-.8-.4-2.6v-5.4h1.9v5.4q0 1.5.4 2 .4.7 1.5.7 1.3 0 2.2-1.3v-6.8h2v9.4h-2zm12.5-4.5h-6.6q.1 1.3 1 2.1.8.8 2.1.8 1.9 0 3.4-1.1v1.8q-.8.6-1.7.8-.8.3-2 .3-1.5 0-2.5-.7-1-.6-1.5-1.7-.6-1-.6-2.5 0-2.2 1.2-3.5 1.2-1.4 3.2-1.4 1.8 0 3 1.3 1 1.3 1 3.5v.3zm-6.5-1.1h4.7q0-1.2-.6-1.8-.6-.6-1.6-.6t-1.7.6q-.6.6-.8 1.8zm10.5-3.8v2.2l.2-.2q1.3-2.2 2.7-2.2 1 0 2.2 1l-1 1.7q-1-.9-1.8-.9-.9 0-1.6.9-.6.8-.6 2v5h-1.9v-9.5h1.9zm12.8 0h2.1l-6.7 14.2h-2l3.2-6.8-3.7-7.4h2.1l2.6 5.3 2.4-5.3zm21.8 6.1v2.3q-2.2 1.2-5.2 1.2-2.4 0-4-1-1.7-1-2.7-2.6-1-1.7-1-3.7 0-3.1 2.3-5.2 2.2-2.2 5.5-2.2 2.2 0 5 1.2v2.2q-2.5-1.4-5-1.4-2.4 0-4 1.5-1.6 1.6-1.6 4 0 2.3 1.6 3.8t4 1.5q2.7 0 5.1-1.6zm4.4-6.1v2.2-.2q1.4-2.2 2.7-2.2 1 0 2.2 1l-1 1.7q-1-.9-1.7-.9-1 0-1.6.9-.7.8-.7 2v5h-1.8v-9.5h1.8zm7.2-4q.5 0 .8.4.3.3.3.7 0 .5-.3.8-.3.3-.8.3-.4 0-.7-.3-.4-.3-.4-.8 0-.4.4-.7.3-.4.7-.4zm-.9 4h1.9v9.4h-1.9v-9.4zm3.2 1.5l3.5-3.4v1.9h3v1.7h-3v4.6q0 1.6 1.4 1.6 1 0 2.1-.6v1.7q-1 .6-2.3.6-1.3 0-2.2-.7l-.4-.5-.3-.8-.1-1.7v-4.2h-1.7v-.2zm16.4 3.4h-6.6q0 1.3.9 2.1.8.8 2.1.8 1.9 0 3.4-1.1v1.8q-.8.6-1.7.8-.8.3-2 .3-1.5 0-2.5-.7-1-.6-1.5-1.7-.6-1-.6-2.5 0-2.2 1.2-3.5 1.2-1.4 3.2-1.4 1.9 0 3 1.3t1.1 3.5v.3zm-6.6-1.1h4.8q-.1-1.2-.7-1.8-.6-.6-1.6-.6t-1.7.6q-.6.6-.8 1.8zm10.7-3.8v2.2-.2q1.4-2.2 2.7-2.2 1 0 2.2 1l-1 1.7q-1-.9-1.8-.9-.9 0-1.5.9-.7.8-.7 2v5H298v-9.5h2zm7.2-4q.5 0 .8.4.3.3.3.7 0 .5-.3.8-.3.3-.8.3-.4 0-.8-.3-.3-.3-.3-.8 0-.4.3-.7.4-.4.8-.4zm-1 4h2v9.4h-2v-9.4zm10.6 3.8v4q0 .5.3.5t1-.5v1q-.6.5-1 .6l-.8.2q-1.2 0-1.4-1-1.2 1-2.5 1-1 0-1.7-.7-.6-.6-.6-1.6 0-.9.6-1.6.7-.7 1.8-1.1l2.4-.8v-.5q0-1.7-1.7-1.7-1.5 0-3 1.5v-2q1.1-1.3 3.2-1.3 1.5 0 2.4.8l.6.7.3.9v1.6zm-1.9 3.8v-2.8l-1.2.5q-1 .3-1.4.7-.4.4-.4 1t.4 1q.4.3 1 .3.9 0 1.6-.7z" font-size="21" font-family="GillSans" fill="#2a86c0"/><path d="M352.8 154.5h144.6V375H352.8z" fill="#fff"/><path d="M352.8 154.5h144.6V375H352.8zm0 89.9h144.6m-144.6 44.1h144.6" stroke="#173182" fill="none"/><path d="M363.9 184q-1.4 0-2.3-.3-.8-.3-1.2-1-.4-.7-.4-2l.1-1.7q0-1.2-.4-1.6-.4-.4-1.2-.4h-.4v-1h.4q.8 0 1.2-.5.5-.5.5-1.5v-1.3q0-3.1 3.2-3.1h1.1v1H363q-1.6 0-1.6 2v1.2q0 2-1.6 2.7 1.6.5 1.6 2.8v1.5q0 1.2.4 1.6.6.5 1.8.5h1v1h-.7zm15.7-11.3q1.7 0 2.7.9.9.9.9 3.1v4.4h-1.4v-1.3q-.8 1.5-2.8 1.5-1.4 0-2.2-.6-.7-.7-.7-1.7 0-.9.5-1.5.6-.7 1.5-1 1-.4 2.1-.4l1.9.1q-.2-1.3-.8-1.9-.6-.6-1.8-.6-.6 0-1.2.3-.6.2-1 .6l-.7-.8q1.2-1.1 3-1.1zm-.5 7.6q1.3 0 2.1-.8t.9-2.3h-1.8q-1.4 0-2.1.4-.8.4-.8 1.3 0 1.4 1.7 1.4zm13.6-6.6h-.4q-.9 0-1.5.4.3.6.3 1.3 0 .8-.3 1.5-.4.6-1 1-.7.4-1.6.4-.6 0-1.2-.3-.4.4-.4.8t.6.6q.5.2 2 .2 1.7 0 2.3.5.7.6.7 1.6t-.9 1.7q-.8.8-2.7.8-1.7 0-2.7-.6-1-.5-1-1.6 0-.6.3-1 .4-.5 1-.8-.7-.4-.7-1.1 0-.7.8-1.5-.5-.4-.7-1-.2-.5-.2-1.2 0-.8.3-1.4.4-.7 1-1 .7-.5 1.5-.5 1.4 0 2.2.9l.8-.6 1-.2h.4l.1 1zm-4.5 3.5q.8 0 1.3-.5t.5-1.3q0-.8-.5-1.3t-1.3-.5q-.7 0-1.2.5-.6.5-.6 1.3t.6 1.3q.5.5 1.2.5zm2.8 4.7q0-.5-.2-.7-.1-.2-.6-.3-.4-.2-1.3-.2-1.3 0-2-.2l-.7.6-.1.8q0 .6.6 1 .7.3 2 .3 1.1 0 1.7-.4.6-.3.6-1zm7-.6q-1.8 0-2.9-1.2-1-1-1-3.1 0-1.4.5-2.3.5-1 1.3-1.5.9-.6 2-.6 1.4 0 2.4 1 .9 1 .9 3v.5h-5.9q0 1.6.9 2.3.7.8 2 .8 1.2 0 2-1l.8.8q-1 1.3-3 1.3zm1.9-5.2q0-1.1-.6-1.8t-1.5-.7q-1 0-1.6.7-.7.6-.8 1.8h4.5zm6.6-.6q-.4 0-.8-.3-.3-.3-.3-.7 0-.4.3-.7.3-.3.8-.3.4 0 .7.3.3.3.3.7 0 .4-.3.7-.3.3-.7.3zm0 5.8q-.5 0-.8-.3-.3-.3-.3-.8 0-.4.3-.7.3-.3.8-.3.4 0 .7.3.3.3.3.7 0 .5-.3.8-.3.3-.7.3zm15-1.3l1.5-1.4 2.1-2.3q.8-.8 1.2-1.6.4-.9.4-1.7 0-1.1-.5-1.6t-1.4-.5q-.7 0-1.4.3-.7.4-.9.8l-.2.4-.1.2h.2l-.1.2-.2-.1-.9-.7q.6-1 1.5-1.6 1-.6 2.1-.6 1.4 0 2.3.8 1 1 1 2.4 0 1-.5 1.9-.5.9-1.2 1.7l-2 2.1-1.3 1.3h4.6l.3-.2v1.3h-6.5v-1zm12.2 1.3q-1 0-1.8-.4t-1.2-1.1q-.4-.7-.4-1.6 0-1 .6-1.8t1.6-1.3q-.8-.4-1.2-1-.5-.8-.5-1.6 0-1.2.8-2 .7-.8 2.2-.8 1.4 0 2.2.8.7.7.7 1.9 0 .8-.4 1.5-.5.7-1.3 1.2 1 .4 1.5 1.3.6.8.6 1.8 0 .8-.4 1.5t-1.2 1.2q-.8.4-1.8.4zm.3-6.7q.7-.4 1-1 .5-.6.5-1.2 0-.7-.5-1.1-.4-.5-1.3-.5-.8 0-1.3.4-.4.5-.4 1.2t.5 1.2q.5.5 1.5 1zm-.3 5.5q1 0 1.6-.5.5-.6.5-1.4 0-.9-.6-1.5-.7-.7-1.8-1-.8.3-1.3 1-.5.6-.5 1.4 0 .9.5 1.4.6.6 1.6.6zm7.5 3.5l.8-1q.3-.6.3-1v-.2l-.4-.3-.4-.4-.1-.4q0-.5.3-.8.3-.3.8-.3t.8.4q.4.5.4 1.1 0 1.4-2 3.4l-.5-.5zm19.3-2.3q-.5 0-.8-.3-.3-.3-.3-.8 0-.4.3-.7.3-.3.8-.3.4 0 .7.3.3.3.3.7 0 .5-.3.8-.3.3-.7.3zm9 0q-.5 0-.8-.3-.3-.3-.3-.8 0-.4.3-.7.3-.3.8-.3.4 0 .7.3.3.3.3.7 0 .5-.3.8-.3.3-.7.3zm9 0q-.5 0-.8-.3-.3-.3-.3-.8 0-.4.3-.7.3-.3.8-.3.4 0 .7.3.3.3.3.7 0 .5-.3.8-.3.3-.7.3zm5.7 2.7v-1h.9q1.2 0 1.7-.6.6-.4.6-1.6l-.1-1.5q0-2.3 1.5-2.8-1.5-.7-1.5-2.7v-1.3q0-1.9-1.7-1.9h-1.4v-1h1q3.4 0 3.4 3.1v1.3q0 1 .3 1.5.5.5 1.3.5h.3v1h-.3q-.8 0-1.2.4-.4.4-.4 1.6v1.8q0 1.2-.3 2-.4.6-1.3.9-.8.2-2.2.2h-.6zm-120.5 88.7q-1.3 0-2.2-.3-.8-.3-1.3-1-.3-.7-.3-1.9v-1.8q0-1.1-.3-1.6-.4-.4-1.2-.4h-.4v-1h.3q.9 0 1.3-.5.4-.4.4-1.4v-1.3q0-3.2 3.3-3.2h1v1H363q-1.7 0-1.7 2v1.2q0 2-1.5 2.7 1.5.5 1.5 2.8v1.5q0 1.2.5 1.7.5.4 1.8.4h.9v1h-.7zm15.7-11.3q1.8 0 2.7.9 1 1 1 3.1v4.4h-1.5v-1.3q-.7 1.5-2.8 1.5-1.3 0-2.1-.6-.8-.7-.8-1.7 0-.8.6-1.5.5-.6 1.5-1 1-.3 2-.3h2q-.2-1.3-.8-1.9-.6-.6-1.9-.6-.6 0-1.1.3-.6.2-1 .7l-.7-.9q1.2-1.1 3-1.1zm-.4 7.6q1.3 0 2-.8.8-.8 1-2.2l-1.8-.2q-1.4 0-2.2.5-.8.4-.8 1.3 0 1.4 1.8 1.4zm13.6-6.6h-.5q-.8 0-1.4.4.3.6.3 1.3 0 .8-.4 1.5-.3.6-1 1-.6.4-1.5.4-.7 0-1.3-.3-.3.4-.3.8t.5.6q.6.2 2 .2 1.8 0 2.4.6.7.5.7 1.5t-1 1.8q-.8.7-2.6.7t-2.8-.6q-1-.5-1-1.5 0-.7.4-1.2.3-.4.9-.7-.6-.4-.6-1 0-.8.7-1.6-.4-.4-.6-1-.3-.5-.3-1.2 0-.8.4-1.4.3-.7 1-1 .6-.4 1.5-.4 1.3 0 2.1.8.4-.4.9-.6l1-.2h.3l.2 1.1zM388 266q.8 0 1.3-.5t.5-1.3q0-.7-.5-1.3-.5-.5-1.3-.5t-1.3.5q-.5.6-.5 1.3 0 .8.5 1.3t1.3.5zm2.8 4.7q0-.4-.2-.7-.1-.2-.6-.3-.4-.2-1.3-.2-1.3 0-2.1-.2l-.6.6q-.2.3-.2.8 0 .6.7 1 .7.3 2 .3 1 0 1.7-.3.6-.4.6-1zm7.2-.7q-1.9 0-3-1.1-1-1.2-1-3.2 0-1.3.4-2.3.5-1 1.4-1.5.8-.5 1.9-.5 1.5 0 2.4 1 1 1 1 2.9v.6h-6q.1 1.5 1 2.3.7.7 1.9.7 1.3 0 2.1-.9l.7.7q-1 1.3-2.9 1.3zm1.7-5.1q0-1.2-.6-1.9-.5-.6-1.5-.6-.9 0-1.6.6-.6.6-.8 1.9h4.5zm6.6-.7q-.4 0-.7-.3-.3-.3-.3-.7 0-.4.3-.7.3-.3.7-.3.5 0 .8.3.3.3.3.7 0 .4-.3.7-.3.3-.8.3zm0 5.8q-.4 0-.7-.3-.3-.3-.3-.7 0-.5.3-.8.3-.3.7-.3.5 0 .8.3.3.3.3.8 0 .4-.3.7-.3.3-.8.3zm19.3-6.1q1 .3 1.6 1 .5.7.5 1.8 0 1-.4 1.7t-1.1 1.2q-.8.4-1.8.4t-1.7-.3q-.8-.4-1.4-1l.8-1q.5.6 1 .9.5.3 1.2.3 1 0 1.6-.6.5-.6.5-1.6 0-1.2-.7-1.7-.6-.6-1.8-.6h-.6v-1q1.6 0 2.2-.5.6-.6.6-1.7 0-.7-.5-1.2-.4-.4-1.1-.4-1.2 0-2.1.8l-.8-.7q1.1-1.2 2.8-1.2 1.4 0 2.2.8.8.7.8 2 0 1-.5 1.6-.4.7-1.3 1zm-3.3 3.8h-.1v-.1h.1zm-.2 0q0-.1 0 0zm11.4 2.3q-1 0-1.8-.4-.7-.4-1.2-1.1-.4-.7-.4-1.5 0-1 .6-1.9.6-.8 1.7-1.3-.8-.4-1.3-1-.4-.8-.4-1.6 0-1.2.7-2 .8-.8 2.2-.8 1.5 0 2.2.8.8.7.8 1.9 0 .8-.5 1.5-.5.8-1.3 1.2 1 .4 1.6 1.3.6.8.6 1.8 0 .9-.5 1.6-.4.7-1.2 1-.7.5-1.8.5zm.3-6.7q.7-.3 1.1-1 .5-.5.5-1.2t-.5-1.1q-.5-.5-1.3-.5t-1.3.5q-.4.4-.4 1 0 .8.5 1.3.4.5 1.4 1zm-.2 5.5q1 0 1.5-.5.6-.6.6-1.4 0-.8-.6-1.5-.7-.7-1.8-1-.8.3-1.4 1-.5.6-.5 1.4 0 .9.6 1.5.6.5 1.6.5zm7.4 3.5l.8-1q.4-.6.4-1l-.1-.2-.3-.3-.4-.4-.1-.4q0-.5.3-.8.3-.3.7-.3.5 0 .9.5.4.4.4 1 0 1.4-2 3.4l-.6-.5zm19.3-2.3q-.4 0-.7-.3-.3-.3-.3-.7 0-.5.3-.8.3-.3.7-.3.4 0 .7.3.4.3.4.8 0 .4-.4.7-.3.3-.7.3zm9 0q-.4 0-.7-.3-.3-.3-.3-.7 0-.5.3-.8.3-.3.7-.3.4 0 .7.3.4.3.4.8 0 .4-.4.7-.3.3-.7.3zm9 0q-.4 0-.7-.3-.3-.3-.3-.7 0-.5.3-.8.3-.3.7-.3.4 0 .7.3.4.3.4.8 0 .4-.4.7-.3.3-.7.3zm5.7 2.7v-1h1q1.2 0 1.7-.5t.5-1.7V268q0-2.3 1.5-2.8-1.6-.7-1.6-2.7v-1.2q0-2-1.6-2H484v-1h1.1q3.3 0 3.3 3.2v1.3q0 1 .4 1.4.4.5 1.3.5h.3v1h-.4q-.8 0-1.2.4-.4.5-.4 1.6l.1 1.8q0 1.2-.4 2-.4.6-1.2.9-.9.3-2.2.3h-.7zm-120.1-45.2q-1.4 0-2.3-.3-.8-.3-1.2-1-.4-.6-.4-1.9l.1-1.8q0-1.1-.4-1.5-.4-.5-1.2-.5h-.4v-1h.4q.8 0 1.2-.4.5-.5.5-1.5v-1.3q0-3.1 3.2-3.1h1.1v1H363q-1.6 0-1.6 1.9v1.3q0 2-1.6 2.6 1.6.5 1.6 2.8v1.5q0 1.2.4 1.7.6.5 1.8.5h1v1h-.7zm15.7-11.3q1.7 0 2.7 1 .9.9.9 3v4.4h-1.4v-1.2q-.8 1.4-2.8 1.4-1.4 0-2.2-.6-.7-.6-.7-1.6t.5-1.6q.6-.6 1.5-1 1-.3 2.1-.3l1.9.1q-.2-1.4-.8-2-.6-.5-1.8-.5l-1.2.2q-.6.2-1 .7l-.7-.8q1.2-1.2 3-1.2zm-.5 7.6q1.3 0 2.1-.7.8-.8.9-2.3l-1.8-.1q-1.4 0-2.1.4-.8.5-.8 1.4 0 1.3 1.7 1.3zm13.6-6.6h-.4q-.9 0-1.5.4.3.6.3 1.4 0 .8-.3 1.4-.4.7-1 1-.7.4-1.6.4l-1.2-.2q-.4.4-.4.7 0 .5.6.7l2 .1q1.7 0 2.3.6.7.5.7 1.5 0 1.1-.9 1.8-.8.7-2.7.7-1.7 0-2.7-.5-1-.6-1-1.6 0-.7.3-1.1.4-.5 1-.8-.7-.4-.7-1 0-.8.8-1.6-.5-.4-.7-1-.2-.5-.2-1.1 0-.8.3-1.5.4-.7 1-1 .7-.4 1.5-.4 1.4 0 2.2.8.4-.4.8-.5l1-.2h.4l.1 1zm-4.5 3.6q.8 0 1.3-.6.5-.5.5-1.2 0-.8-.5-1.3t-1.3-.5q-.7 0-1.2.5-.6.5-.6 1.3 0 .7.6 1.2.5.6 1.2.6zm2.8 4.6q0-.4-.2-.6-.1-.3-.6-.4l-1.3-.1q-1.3 0-2-.3l-.7.6-.1.9q0 .6.6 1 .7.2 2 .2 1.1 0 1.7-.3.6-.4.6-1zm7-.6q-1.8 0-2.9-1.1-1-1.1-1-3.2 0-1.3.5-2.3.5-1 1.3-1.5.9-.5 2-.5 1.4 0 2.4 1 .9 1 .9 3v.5h-5.9q0 1.5.9 2.3.7.8 2 .8 1.2 0 2-1l.8.7q-1 1.3-3 1.3zm1.9-5.1q0-1.2-.6-1.8-.6-.7-1.5-.7-1 0-1.6.6-.7.7-.8 1.9h4.5zm6.6-.7l-.8-.2q-.3-.3-.3-.7 0-.5.3-.8.3-.3.8-.3.4 0 .7.3.3.3.3.8 0 .4-.3.7-.3.3-.7.3zm0 5.8q-.5 0-.8-.3-.3-.3-.3-.7 0-.4.3-.7.3-.3.8-.3.4 0 .7.3.3.3.3.7 0 .4-.3.7-.3.3-.7.3zm15-1.2l1.5-1.5 2.1-2.2q.8-.9 1.2-1.7.4-.8.4-1.7 0-1-.5-1.6-.5-.5-1.4-.5-.7 0-1.4.4-.7.3-.9.7l-.2.4-.1.3h.2l-.1.1h-.2l-.9-.8q.6-1 1.5-1.6 1-.6 2.1-.6 1.4 0 2.3.9 1 .9 1 2.3 0 1-.5 2-.5.9-1.2 1.7l-2 2-1.3 1.3h4.6l.3-.2v1.3h-6.5v-1zm11.8 1V215l-2.2.6-.3-.7 2.9-1.5h.9v11.2h-1.3zm7.9 2.5l.8-1q.3-.5.3-.9v-.3q-.2 0-.4-.3l-.4-.4-.1-.4q0-.4.3-.7.3-.3.8-.3t.8.4q.4.4.4 1 0 1.5-2 3.4l-.5-.5zm19.3-2.3q-.5 0-.8-.3-.3-.3-.3-.7 0-.4.3-.7.3-.3.8-.3.4 0 .7.3.3.3.3.7 0 .4-.3.7-.3.3-.7.3zm9 0q-.5 0-.8-.3-.3-.3-.3-.7 0-.4.3-.7.3-.3.8-.3.4 0 .7.3.3.3.3.7 0 .4-.3.7-.3.3-.7.3zm9 0q-.5 0-.8-.3-.3-.3-.3-.7 0-.4.3-.7.3-.3.8-.3.4 0 .7.3.3.3.3.7 0 .4-.3.7-.3.3-.7.3zm5.7 2.7v-1h.9q1.2 0 1.7-.5.6-.5.6-1.7l-.1-1.5q0-2.3 1.5-2.8-1.5-.7-1.5-2.6V216q0-2-1.7-2h-1.4v-1h1q3.4 0 3.4 3.2v1.3q0 1 .3 1.5.5.4 1.3.4h.3v1h-.3q-.8 0-1.2.5-.4.4-.4 1.5v1.8q0 1.3-.3 2-.4.6-1.3 1-.8.2-2.2.2h-.6zM363.9 360q-1.4 0-2.3-.2-.8-.3-1.2-1-.4-.6-.4-1.9l.1-1.8q0-1.1-.4-1.5-.4-.5-1.2-.5h-.4v-1h.4q.8 0 1.2-.4.5-.5.5-1.5v-1.3q0-3.2 3.2-3.2h1.1v1H363q-1.6 0-1.6 2v1.2q0 2-1.6 2.7 1.6.5 1.6 2.8v1.5q0 1.2.4 1.7.6.5 1.8.5h1v1h-.7zm15.7-11.2q1.7 0 2.7 1 .9.8.9 3v4.4h-1.4V356q-.8 1.4-2.8 1.4-1.4 0-2.2-.6-.7-.6-.7-1.7 0-.8.5-1.5.6-.6 1.5-1 1-.3 2.1-.3h1.9q-.2-1.3-.8-1.9-.6-.5-1.8-.5l-1.2.2q-.6.2-1 .7l-.7-.8q1.2-1.2 3-1.2zm-.5 7.6q1.3 0 2.1-.8.8-.7.9-2.2l-1.8-.1q-1.4 0-2.1.4-.8.5-.8 1.4 0 1.3 1.7 1.3zm13.6-6.6h-.4q-.9 0-1.5.4.3.6.3 1.3 0 .9-.3 1.5-.4.7-1 1-.7.4-1.6.4l-1.2-.2q-.4.4-.4.7 0 .5.6.7l2 .1q1.7 0 2.3.6.7.5.7 1.5t-.9 1.8q-.8.7-2.7.7-1.7 0-2.7-.5-1-.6-1-1.6 0-.7.3-1.1.4-.5 1-.8-.7-.4-.7-1 0-.8.8-1.6-.5-.4-.7-1-.2-.5-.2-1.2t.3-1.4q.4-.7 1-1 .7-.4 1.5-.4 1.4 0 2.2.8.4-.4.8-.5l1-.2h.4l.1 1zm-4.5 3.5q.8 0 1.3-.5t.5-1.3q0-.7-.5-1.2-.5-.6-1.3-.6-.7 0-1.2.6-.6.5-.6 1.2 0 .8.6 1.3.5.5 1.2.5zm2.8 4.7q0-.4-.2-.7-.1-.2-.6-.3l-1.3-.1q-1.3 0-2-.3l-.7.6-.1.8q0 .7.6 1 .7.3 2 .3 1.1 0 1.7-.3.6-.4.6-1zm7-.6q-1.8 0-2.9-1.1-1-1.1-1-3.2 0-1.3.5-2.3.5-1 1.3-1.5.9-.5 2-.5 1.4 0 2.4 1 .9 1 .9 2.9v.6h-5.9q0 1.5.9 2.3.7.7 2 .7 1.2 0 2-.9l.8.7q-1 1.3-3 1.3zm1.9-5.1q0-1.2-.6-1.8-.6-.7-1.5-.7-1 0-1.6.6-.7.6-.8 1.9h4.5zm6.6-.6q-.4 0-.8-.3-.3-.3-.3-.8 0-.4.3-.7.3-.3.8-.3.4 0 .7.3.3.3.3.7 0 .5-.3.8-.3.3-.7.3zm0 5.7q-.5 0-.8-.3-.3-.3-.3-.7 0-.4.3-.8.3-.3.8-.3.4 0 .7.3.3.4.3.8t-.3.7q-.3.3-.7.3zm19.2-6.1q1 .3 1.6 1 .6.7.6 1.8 0 1-.4 1.7t-1.2 1.2q-.7.4-1.8.4-.9 0-1.7-.3-.8-.3-1.4-1l.9-1q.4.6.9 1 .5.2 1.2.2 1 0 1.6-.6.6-.6.6-1.6 0-1.1-.7-1.7-.7-.6-1.9-.6h-.6v-1q1.6 0 2.2-.5.6-.6.6-1.6 0-.8-.5-1.2-.4-.5-1.1-.5-1.2 0-2 .8l-.8-.7q1-1.2 2.8-1.2 1.3 0 2.1.8t.8 2q0 1-.5 1.6-.4.7-1.3 1zm-3.2 3.8h-.2v-.1h.2zm-.2 0q-.1-.1 0 0zm11 2.1v-9.7l-2.2.7-.3-.7 2.9-1.5h.9v11.2h-1.3zm7.9 2.5l.8-1 .3-.9v-.3q-.2 0-.4-.3l-.4-.4-.1-.4q0-.4.3-.7.3-.3.8-.3t.8.4q.4.4.4 1 0 1.5-2 3.4l-.5-.5zm19.3-2.3q-.5 0-.8-.3-.3-.3-.3-.7 0-.4.3-.7.3-.3.8-.3.4 0 .7.3.3.3.3.7 0 .4-.3.7-.3.3-.7.3zm9 0q-.5 0-.8-.3-.3-.3-.3-.7 0-.4.3-.7.3-.3.8-.3.4 0 .7.3.3.3.3.7 0 .4-.3.7-.3.3-.7.3zm9 0q-.5 0-.8-.3-.3-.3-.3-.7 0-.4.3-.7.3-.3.8-.3.4 0 .7.3.3.3.3.7 0 .4-.3.7-.3.3-.7.3zm5.7 2.6v-1h.9q1.2 0 1.7-.4.6-.5.6-1.7l-.1-1.5q0-2.3 1.5-2.8-1.5-.7-1.5-2.7v-1.2q0-2-1.7-2h-1.4v-1h1q3.4 0 3.4 3.2v1.3q0 1 .3 1.5.5.4 1.3.4h.3v1h-.3q-.8 0-1.2.5-.4.4-.4 1.5v1.8q0 1.3-.3 2-.4.6-1.3 1-.8.2-2.2.2h-.6zm-120.3-43.8q-1.4 0-2.3-.3-.8-.2-1.2-1-.4-.6-.4-1.9l.1-1.8q0-1-.4-1.5t-1.2-.5h-.4v-1h.4q.8 0 1.2-.4.5-.5.5-1.5V305q0-3.1 3.2-3.1h1.1v1H363q-1.6 0-1.6 1.9v1.3q0 2-1.6 2.6 1.6.5 1.6 2.8v1.5q0 1.2.4 1.7.6.5 1.8.5h1v1h-.7zm15.7-11.2q1.7 0 2.7.8.9 1 .9 3.2v4.3h-1.4v-1.2q-.8 1.4-2.8 1.4-1.4 0-2.2-.6-.7-.6-.7-1.6t.5-1.6q.6-.6 1.5-1 1-.3 2.1-.3l1.9.1q-.2-1.4-.8-2-.6-.5-1.8-.5l-1.2.2-1 .7-.7-.8q1.2-1.2 3-1.2zm-.5 7.5q1.3 0 2.1-.7.8-.8.9-2.3l-1.8-.1q-1.4 0-2.1.4-.8.5-.8 1.4 0 1.3 1.7 1.3zm13.6-6.5h-.4q-.9 0-1.5.3.3.6.3 1.4 0 .8-.3 1.4-.4.7-1 1-.7.4-1.6.4l-1.2-.2q-.4.4-.4.7 0 .5.6.7.5.2 2 .2 1.7 0 2.3.5.7.5.7 1.5 0 1.1-.9 1.8-.8.7-2.7.7-1.7 0-2.7-.5-1-.6-1-1.6 0-.6.3-1.1.4-.5 1-.8-.7-.3-.7-1 0-.8.8-1.6-.5-.4-.7-1-.2-.5-.2-1.1 0-.8.3-1.5.4-.6 1-1 .7-.4 1.5-.4 1.4 0 2.2.8.4-.4.8-.5l1-.2h.4l.1 1zm-4.5 3.5q.8 0 1.3-.6.5-.5.5-1.2 0-.8-.5-1.3t-1.3-.5q-.7 0-1.2.5-.6.5-.6 1.3 0 .7.6 1.2.5.6 1.2.6zm2.8 4.6q0-.4-.2-.6-.1-.3-.6-.4l-1.3-.1q-1.3 0-2-.2-.5.2-.7.5l-.1.9q0 .6.6 1 .7.3 2 .3 1.1 0 1.7-.4.6-.3.6-1zm7-.6q-1.8 0-2.9-1.1-1-1.1-1-3.2 0-1.3.5-2.3.5-1 1.3-1.5.9-.5 2-.5 1.4 0 2.4 1 .9 1 .9 3v.5h-5.9q0 1.5.9 2.3.7.8 2 .8 1.2 0 2-1l.8.7q-1 1.3-3 1.3zm1.9-5.1q0-1.2-.6-1.8-.6-.7-1.5-.7-1 0-1.6.6-.7.7-.8 1.9h4.5zm6.6-.6q-.4 0-.8-.3-.3-.3-.3-.7 0-.5.3-.8.3-.3.8-.3.4 0 .7.3.3.3.3.8 0 .4-.3.7-.3.3-.7.3zm0 5.7q-.5 0-.8-.3-.3-.3-.3-.7 0-.4.3-.7.3-.3.8-.3.4 0 .7.3.3.3.3.7 0 .4-.3.7-.3.3-.7.3zm19.2-6.1q1 .3 1.6 1 .6.8.6 1.8t-.4 1.7q-.4.7-1.2 1.2-.7.4-1.8.4-.9 0-1.7-.3-.8-.3-1.4-1l.9-1q.4.6.9 1 .5.2 1.2.2 1 0 1.6-.6.6-.6.6-1.6 0-1.1-.7-1.7-.7-.5-1.9-.5h-.6v-1q1.6 0 2.2-.6.6-.6.6-1.6 0-.8-.5-1.2-.4-.5-1.1-.5-1.2 0-2 .9l-.8-.8q1-1.2 2.8-1.2 1.3 0 2.1.8t.8 2q0 1-.5 1.6-.4.7-1.3 1zm-3.2 3.8h-.2.2zm-.2 0q-.1 0 0 0zm11.4 2.3q-1 0-1.8-.4t-1.2-1q-.4-.8-.4-1.6 0-1 .6-1.8.6-.9 1.6-1.3-.8-.4-1.2-1.1-.5-.7-.5-1.6 0-1.2.8-2 .7-.7 2.2-.7 1.4 0 2.2.7.7.8.7 2 0 .7-.4 1.5-.5.7-1.3 1.1 1 .5 1.5 1.3.6.9.6 1.8t-.4 1.6q-.4.7-1.2 1.1-.8.4-1.8.4zm.3-6.6q.7-.4 1-1 .5-.6.5-1.2 0-.7-.5-1.2-.4-.5-1.3-.5-.8 0-1.3.5-.4.5-.4 1.1 0 .8.5 1.3l1.5 1zm-.3 5.5q1 0 1.6-.6.5-.5.5-1.4 0-.8-.6-1.5-.7-.7-1.8-1-.8.3-1.3 1t-.5 1.5q0 .8.5 1.4.6.6 1.6.6zm7.5 3.4l.8-1q.3-.5.3-.9v-.2l-.4-.4-.4-.4-.1-.4q0-.4.3-.7.3-.3.8-.3t.8.4q.4.4.4 1 0 1.5-2 3.5l-.5-.6zm19.3-2.3q-.5 0-.8-.3-.3-.3-.3-.7 0-.4.3-.7.3-.3.8-.3.4 0 .7.3.3.3.3.7 0 .4-.3.7-.3.3-.7.3zm9 0q-.5 0-.8-.3-.3-.3-.3-.7 0-.4.3-.7.3-.3.8-.3.4 0 .7.3.3.3.3.7 0 .4-.3.7-.3.3-.7.3zm9 0q-.5 0-.8-.3-.3-.3-.3-.7 0-.4.3-.7.3-.3.8-.3.4 0 .7.3.3.3.3.7 0 .4-.3.7-.3.3-.7.3zm5.7 2.7v-1h.9q1.2 0 1.7-.5.6-.5.6-1.7l-.1-1.5q0-2.3 1.5-2.8-1.5-.7-1.5-2.6v-1.3q0-2-1.7-2h-1.4v-1h1q3.4 0 3.4 3.2v1.3q0 1 .3 1.5.5.4 1.3.4h.3v1h-.3q-.8 0-1.2.5-.4.4-.4 1.5v1.8q0 1.3-.3 2-.4.7-1.3 1-.8.2-2.2.2h-.6z" font-size="18" font-family="Inconsolata" fill="#173182"/><path d="M352.8 201h144.6M352.8 331.4h144.6" stroke="#173182" fill="none"/><path d="M552.3 284.8h1.9v14.3h-2V288l-4.5 5.5h-.4L543 288v11h-2v-14.3h1.9l4.7 5.9 4.8-5.9zm9.2 4.9q2.2 0 3.6 1.4t1.4 3.5q0 2-1.4 3.4-1.5 1.3-3.7 1.3-2.1 0-3.5-1.4-1.5-1.3-1.5-3.4 0-2 1.5-3.4 1.4-1.4 3.6-1.4zm-.1 1.7q-1.3 0-2.2.8-.9 1-.9 2.3 0 1.3 1 2.2.8.9 2.2.9 1.4 0 2.2-.9 1-.9 1-2.2 0-1.4-1-2.3-1-.8-2.3-.8zm13.5-6.6h1.8v14.3h-4q-2 0-3.3-1.3-1.2-1.3-1.2-3.5 0-2.1 1.3-3.5 1.3-1.3 3.3-1.3 1 0 2 .4v-5zm0 12.7v-6q-1-.4-1.8-.4-1.4 0-2.2 1-.9.8-.9 2.4 0 1.4.8 2.2.4.5.9.7l1.7.1h1.5zm5.3-11.8q.5 0 .8.4.3.3.3.7 0 .5-.3.8-.3.3-.8.3-.4 0-.7-.3-.4-.3-.4-.8 0-.4.4-.7.3-.4.7-.4zm-.9 4h1.9v9.4h-1.9v-9.4zm4.7 0v-.6q0-2.2 1-3.4 1-1 2.4-1l1.3.1v1.8l-.8-.1q-1.1 0-1.5.6-.5.5-.5 2v.6h1.7v1.7H586v7.7h-1.8v-7.7h-1.4v-1.7h1.4zm6-4q.5 0 .9.4.3.3.3.7 0 .5-.3.8-.4.3-.8.3-.5 0-.8-.3-.3-.3-.3-.8 0-.4.3-.7.3-.4.8-.4zm-.9 4h2v9.4h-2v-9.4zm12.6 4.9h-6.6q0 1.3 1 2.1.7.8 2 .8 2 0 3.5-1.1v1.8q-.9.6-1.7.8-.9.3-2 .3-1.6 0-2.5-.7-1-.6-1.6-1.7-.6-1-.6-2.5 0-2.2 1.3-3.5 1.2-1.4 3.1-1.4 1.9 0 3 1.3t1.1 3.5v.3zm-6.6-1.1h4.8q0-1.2-.7-1.8-.6-.6-1.6-.6t-1.6.6q-.7.6-.9 1.8zm10.6-3.8v2.2l.2-.2q1.3-2.2 2.7-2.2 1 0 2.2 1l-1 1.7q-1-.9-1.8-.9-1 0-1.6.9-.7.8-.7 2v5H604v-9.5h1.8z" font-size="21" font-family="GillSans" fill="#2a86c0"/><g stroke="#2a86c0" stroke-width="6"><path d="M508 264.7l129 .1" fill="none"/><path d="M637 270.8l16-6-16-6z" fill="#2a86c0"/></g><path d="M671.8 154.5h144.6V375H671.8z" fill="#fff"/><path d="M671.8 154.5h144.6V375H671.8zm0 89.9h144.6m-144.6 44.1h144.6" stroke="#173182" fill="none"/><path d="M682.9 184q-1.4 0-2.2-.3-.9-.3-1.3-1t-.3-2V179q0-1.2-.4-1.6-.4-.4-1.2-.4h-.3v-1h.3q.8 0 1.3-.5.4-.5.4-1.5v-1.3q0-3.1 3.2-3.1h1.1v1h-1.4q-1.7 0-1.7 2v1.2q0 2-1.5 2.7 1.5.5 1.5 2.8v1.5q0 1.2.5 1.6.5.5 1.7.5h1v1h-.7zm15.7-11.3q1.8 0 2.7.9 1 .9 1 3.1v4.4h-1.5v-1.3q-.8 1.5-2.8 1.5-1.4 0-2.1-.6-.8-.7-.8-1.7 0-.9.5-1.5.6-.7 1.5-1 1-.4 2.1-.4l1.9.1q-.1-1.3-.8-1.9-.6-.6-1.8-.6-.6 0-1.2.3l-1 .6-.6-.8q1.1-1.1 2.9-1.1zm-.5 7.6q1.4 0 2.1-.8.8-.8.9-2.3h-1.8q-1.3 0-2.1.4t-.8 1.3q0 1.4 1.7 1.4zm13.6-6.6h-.4q-.9 0-1.5.3.3.7.3 1.4 0 .8-.3 1.5-.4.6-1 1-.7.4-1.5.4-.7 0-1.3-.3-.3.4-.3.8t.5.6q.6.2 2 .2 1.7 0 2.4.5.6.6.6 1.6t-.9 1.7q-.8.8-2.7.8-1.7 0-2.7-.6-1-.5-1-1.6 0-.6.3-1 .4-.5 1-.8-.6-.4-.6-1.1 0-.7.7-1.5l-.7-1q-.2-.5-.2-1.2 0-.8.3-1.4.4-.7 1-1 .7-.5 1.6-.5 1.3 0 2 .9l1-.6q.4-.2 1-.2h.3l.1 1zm-4.4 3.5q.7 0 1.2-.5.6-.5.6-1.3t-.6-1.3q-.5-.5-1.2-.5-.8 0-1.3.5t-.5 1.3q0 .8.5 1.3t1.3.5zm2.7 4.7l-.1-.7-.6-.3q-.5-.2-1.4-.2-1.3 0-2-.2l-.7.6-.1.8q0 .6.7 1 .6.3 1.9.3 1.1 0 1.7-.4.6-.3.6-1zm7-.7q-1.7 0-2.8-1-1.1-1.2-1.1-3.2 0-1.4.5-2.3.5-1 1.3-1.5.9-.6 2-.6 1.5 0 2.4 1 1 1 1 3l-.1.5h-5.9q0 1.6.9 2.3.7.8 2 .8 1.2 0 2-1l.8.8q-1 1.2-3 1.2zm1.9-5q0-1.2-.6-1.9t-1.5-.7q-1 0-1.6.7-.7.6-.8 1.8h4.5zm6.6-.7q-.4 0-.8-.3-.3-.3-.3-.7 0-.4.3-.7.3-.3.8-.3.4 0 .7.3.4.3.4.7 0 .4-.4.7-.3.3-.7.3zm0 5.8q-.5 0-.8-.3-.3-.3-.3-.8 0-.4.3-.7.3-.3.8-.3.4 0 .7.3.4.3.4.7 0 .5-.4.8-.3.3-.7.3zm15-1.3l1.5-1.4 2.1-2.3q.8-.8 1.2-1.6.4-.9.4-1.7 0-1.1-.5-1.6t-1.4-.5q-.7 0-1.4.3l-.9.8-.2.4v.4l-.1-.1-1-.7q.6-1 1.5-1.6 1-.6 2.1-.6 1.5 0 2.3.8 1 1 1 2.4 0 1-.5 1.9-.5.9-1.2 1.7-.7.9-2 2.1L742 180h4.7l.3-.2h.1v1.3h-6.6v-1zm11.8 1v-9.6l-2.2.7-.3-.7 3-1.6h.8v11.3h-1.3zm7.9 2.6l.8-1q.3-.6.3-1v-.2l-.4-.3-.4-.4v-.4q0-.5.2-.8.3-.3.8-.3t.8.4q.4.5.4 1.1 0 1.4-2 3.4l-.5-.5zm19.3-2.3q-.5 0-.8-.3-.3-.3-.3-.8 0-.4.3-.7.3-.3.8-.3.4 0 .7.3.3.3.3.7 0 .5-.3.8-.3.3-.7.3zm9 0q-.5 0-.8-.3-.3-.3-.3-.8 0-.4.3-.7.3-.3.8-.3.4 0 .7.3.3.3.3.7 0 .5-.3.8-.3.3-.7.3zm9 0q-.5 0-.8-.3-.3-.3-.3-.8 0-.4.3-.7.3-.3.8-.3.4 0 .7.3.3.3.3.7 0 .5-.3.8-.3.3-.7.3zm5.7 2.7v-1h1q1.1 0 1.7-.6.5-.4.5-1.6v-1.5q0-2.3 1.4-2.8-1.5-.7-1.5-2.7v-1.3q0-1.9-1.7-1.9h-1.4v-1h1.1q3.3 0 3.3 3.1v1.3q0 1 .4 1.5t1.2.5h.4v1h-.4q-.8 0-1.2.4-.4.4-.4 1.6v1.8q.1 1.2-.3 2-.4.6-1.3.9-.8.2-2.2.2h-.6zm-120.5 88.7q-1.3 0-2.2-.3-.8-.3-1.2-1-.4-.7-.4-1.9v-1.8q0-1.1-.3-1.6-.4-.4-1.2-.4h-.4v-1h.4q.8 0 1.2-.5.4-.4.4-1.4v-1.3q0-3.2 3.3-3.2h1.1v1h-1.5q-1.6 0-1.6 2v1.2q0 2-1.6 2.7 1.6.5 1.6 2.8l-.1 1.5q0 1.2.5 1.7.5.4 1.8.4h.9v1h-.7zm15.8-11.3q1.7 0 2.6.9 1 1 1 3.1v4.4h-1.4v-1.3q-.8 1.5-2.8 1.5-1.4 0-2.2-.6-.8-.7-.8-1.7 0-.8.6-1.5.6-.6 1.5-1 1-.3 2-.3h2q-.2-1.3-.8-1.9-.6-.6-1.8-.6-.7 0-1.2.3-.6.2-1 .7l-.7-.9q1.2-1.1 3-1.1zm-.5 7.6q1.3 0 2-.8.9-.8 1-2.2l-1.8-.2q-1.4 0-2.2.5-.8.4-.8 1.3 0 1.4 1.8 1.4zm13.6-6.6h-.5q-.8 0-1.4.4.3.6.3 1.3 0 .8-.4 1.5-.3.6-1 1-.6.4-1.5.4-.7 0-1.3-.3-.3.4-.3.8t.6.6q.5.2 2 .2 1.7 0 2.3.6.7.5.7 1.5t-.9 1.8q-.9.7-2.7.7-1.8 0-2.8-.6-1-.5-1-1.5 0-.7.4-1.2l1-.7q-.7-.4-.7-1 0-.8.8-1.6-.5-.4-.7-1-.3-.5-.3-1.2 0-.8.4-1.4.3-.7 1-1 .7-.4 1.5-.4 1.3 0 2.1.8l1-.6q.4-.2 1-.2h.2l.2 1.1zm-4.5 3.5q.8 0 1.3-.5t.5-1.3q0-.7-.5-1.3-.5-.5-1.3-.5-.7 0-1.3.5-.5.6-.5 1.3 0 .8.5 1.3.6.5 1.3.5zm2.8 4.7q0-.4-.2-.7-.1-.2-.6-.3-.4-.2-1.3-.2-1.3 0-2-.2l-.7.6q-.2.3-.2.8 0 .6.7 1 .7.3 2 .3 1.1 0 1.7-.3.6-.4.6-1zm7.1-.6q-1.9 0-3-1.1-1-1.2-1-3.2 0-1.3.4-2.3.5-1 1.4-1.5.9-.5 2-.5 1.4 0 2.3 1 1 1 1 2.9v.6h-6q.2 1.5 1 2.3.7.7 1.9.7 1.3 0 2.1-.9l.7.7q-1 1.3-2.8 1.3zm1.8-5.1q0-1.2-.6-1.9-.6-.6-1.6-.6-.9 0-1.5.6-.7.6-.9 1.9h4.6zm6.5-.7q-.4 0-.7-.3-.3-.3-.3-.7 0-.4.3-.7.3-.3.7-.3.5 0 .8.3.3.3.3.7 0 .4-.3.7-.3.3-.8.3zm0 5.8q-.4 0-.7-.3-.3-.3-.3-.7 0-.5.3-.8.3-.3.7-.3.5 0 .8.3.3.3.3.8 0 .4-.3.7-.3.3-.8.3zm19.3-6.1q1 .3 1.6 1 .5.7.5 1.8 0 1-.4 1.7-.3.7-1.1 1.2-.8.4-1.8.4t-1.7-.3q-.8-.4-1.4-1l.8-1q.5.6 1 .9.5.3 1.2.3 1 0 1.6-.6.5-.6.5-1.6 0-1.2-.6-1.7-.7-.6-2-.6h-.5v-1q1.6 0 2.2-.5.6-.6.6-1.7 0-.7-.5-1.2-.4-.4-1.1-.4-1.2 0-2 .8l-.8-.7q1-1.2 2.8-1.2 1.3 0 2 .8.9.7.9 2 0 1-.5 1.6-.4.7-1.3 1zm-3.3 3.8h-.1v-.1h.1zm-.2 0q0-.1 0 0zm11.1 2.1V260l-2.3.7-.3-.7 3-1.5h.9v11.2h-1.3zm7.8 2.5l.9-1q.3-.6.3-1v-.2q-.2 0-.4-.3l-.4-.4-.1-.4q0-.5.3-.8.3-.3.7-.3.5 0 .9.5.4.4.4 1 0 1.4-2 3.4l-.6-.5zm19.3-2.3q-.4 0-.7-.3-.3-.3-.3-.7 0-.5.3-.8.3-.3.7-.3.5 0 .8.3.3.3.3.8 0 .4-.3.7-.3.3-.8.3zm9 0q-.4 0-.7-.3-.3-.3-.3-.7 0-.5.3-.8.3-.3.7-.3.5 0 .8.3.3.3.3.8 0 .4-.3.7-.3.3-.8.3zm9 0q-.4 0-.7-.3-.3-.3-.3-.7 0-.5.3-.8.3-.3.7-.3.5 0 .8.3.3.3.3.8 0 .4-.3.7-.3.3-.8.3zm5.7 2.7v-1h1q1.2 0 1.7-.5t.5-1.7V268q0-2.3 1.5-2.8-1.6-.7-1.6-2.7v-1.2q0-2-1.6-2H803v-1h1.2q3.2 0 3.2 3.2v1.3q0 1 .4 1.4.4.5 1.3.5h.3v1h-.3q-.9 0-1.3.4-.4.5-.4 1.6l.1 1.8q0 1.2-.3 2-.4.6-1.3.9-.8.3-2.2.3h-.7zm-120.1-45.2q-1.4 0-2.2-.3-.9-.3-1.3-1-.4-.6-.3-1.9v-1.8q0-1.1-.4-1.5-.4-.5-1.2-.5h-.3v-1h.3q.8 0 1.3-.4.4-.5.4-1.5v-1.3q0-3.1 3.2-3.1h1.1v1h-1.4q-1.7 0-1.7 1.9v1.3q0 2-1.5 2.6 1.5.5 1.5 2.8v1.5q0 1.2.5 1.7t1.7.5h1v1h-.7zm15.7-11.3q1.8 0 2.7 1 1 .9 1 3v4.4h-1.5v-1.2q-.8 1.4-2.8 1.4-1.4 0-2.1-.6-.8-.6-.8-1.6t.5-1.6q.6-.6 1.5-1 1-.3 2.1-.3l1.9.1q-.1-1.4-.8-2-.6-.5-1.8-.5l-1.2.2q-.5.2-1 .7l-.6-.8q1.1-1.2 2.9-1.2zm-.5 7.6q1.4 0 2.1-.7.8-.8.9-2.3l-1.8-.1q-1.3 0-2.1.4-.8.5-.8 1.4 0 1.3 1.7 1.3zm13.6-6.6h-.4q-.9 0-1.5.4.3.6.3 1.4 0 .8-.3 1.4-.4.7-1 1-.7.4-1.5.4-.7 0-1.3-.2-.3.4-.3.7 0 .5.5.7l2 .1q1.7 0 2.4.6.6.5.6 1.5 0 1.1-.9 1.8-.8.7-2.7.7-1.7 0-2.7-.5-1-.6-1-1.6 0-.7.3-1.1.4-.5 1-.8-.6-.4-.6-1 0-.8.7-1.6l-.7-1q-.2-.5-.2-1.1 0-.8.3-1.5.4-.7 1-1 .7-.4 1.6-.4 1.3 0 2 .8.5-.4 1-.5.4-.2 1-.2h.3l.1 1zm-4.4 3.6q.7 0 1.2-.6.6-.5.6-1.2 0-.8-.6-1.3-.5-.5-1.2-.5-.8 0-1.3.5t-.5 1.3q0 .7.5 1.2.5.6 1.3.6zm2.7 4.6l-.1-.6q-.2-.3-.6-.4l-1.4-.1q-1.3 0-2-.3l-.7.6-.1.9q0 .6.7 1 .6.2 1.9.2 1.1 0 1.7-.3.6-.4.6-1zm7-.6q-1.7 0-2.8-1.1-1.1-1.1-1.1-3.2 0-1.3.5-2.3.5-1 1.3-1.5.9-.5 2-.5 1.5 0 2.4 1 1 1 1 3l-.1.5h-5.9q0 1.5.9 2.3.7.8 2 .8 1.2 0 2-1l.8.7q-1 1.3-3 1.3zm1.9-5.1q0-1.2-.6-1.8-.6-.7-1.5-.7-1 0-1.6.6-.7.7-.8 1.9h4.5zm6.6-.7l-.8-.2q-.3-.3-.3-.7 0-.5.3-.8.3-.3.8-.3.4 0 .7.3.4.3.4.8 0 .4-.4.7-.3.3-.7.3zm0 5.8q-.5 0-.8-.3-.3-.3-.3-.7 0-.4.3-.7.3-.3.8-.3.4 0 .7.3.4.3.4.7 0 .4-.4.7-.3.3-.7.3zm15-1.2l1.5-1.5 2.1-2.2q.8-.9 1.2-1.7.4-.8.4-1.7 0-1-.5-1.6-.5-.5-1.4-.5-.7 0-1.4.4-.6.3-.9.7l-.2.4v.4h-.1l-1-.8q.6-1 1.5-1.6 1-.6 2.1-.6 1.5 0 2.3.9 1 .9 1 2.3 0 1-.5 2-.5.9-1.2 1.7l-2 2-1.3 1.3h4.6q.2 0 .3-.2h.1v1.3h-6.6v-1zm12.2 1.2q-1 0-1.8-.4t-1.2-1q-.4-.8-.4-1.6 0-1 .6-1.8.6-.9 1.6-1.3-.7-.4-1.2-1.1-.5-.8-.5-1.6 0-1.2.8-2 .8-.7 2.2-.7 1.5 0 2.2.7.8.8.8 2 0 .7-.5 1.5-.5.7-1.3 1.1 1 .5 1.5 1.3.6.9.6 1.8t-.4 1.6q-.4.7-1.2 1.1-.8.4-1.8.4zm.3-6.6q.7-.4 1.1-1 .4-.6.4-1.2 0-.7-.4-1.2-.5-.5-1.3-.5-.9 0-1.3.5-.5.4-.5 1.1 0 .8.5 1.3l1.5 1zm-.3 5.5q1 0 1.6-.6.6-.5.6-1.4 0-.8-.7-1.5-.6-.7-1.7-1-.9.3-1.4 1-.5.7-.5 1.5t.5 1.4q.6.6 1.6.6zm7.5 3.4l.8-1q.3-.5.3-.9v-.3l-.4-.3-.4-.4v-.4q0-.4.2-.7.3-.3.8-.3t.8.4q.4.4.4 1 0 1.5-2 3.4l-.5-.5zm19.3-2.3q-.5 0-.8-.3-.3-.3-.3-.7 0-.4.3-.7.3-.3.8-.3.4 0 .7.3.3.3.3.7 0 .4-.3.7-.3.3-.7.3zm9 0q-.5 0-.8-.3-.3-.3-.3-.7 0-.4.3-.7.3-.3.8-.3.4 0 .7.3.3.3.3.7 0 .4-.3.7-.3.3-.7.3zm9 0q-.5 0-.8-.3-.3-.3-.3-.7 0-.4.3-.7.3-.3.8-.3.4 0 .7.3.3.3.3.7 0 .4-.3.7-.3.3-.7.3zm5.7 2.7v-1h1q1.1 0 1.7-.5.5-.5.5-1.7v-1.5q0-2.3 1.4-2.8-1.5-.7-1.5-2.6V216q0-2-1.7-2h-1.4v-1h1.1q3.3 0 3.3 3.2v1.3q0 1 .4 1.5.4.4 1.2.4h.4v1h-.4q-.8 0-1.2.5-.4.4-.4 1.5v1.8q.1 1.3-.3 2-.4.6-1.3 1-.8.2-2.2.2h-.6zM682.9 360q-1.4 0-2.2-.2-.9-.3-1.3-1-.4-.6-.3-1.9v-1.8q0-1.1-.4-1.5-.4-.5-1.2-.5h-.3v-1h.3q.8 0 1.3-.4.4-.5.4-1.5v-1.3q0-3.2 3.2-3.2h1.1v1h-1.4q-1.7 0-1.7 2v1.2q0 2-1.5 2.7 1.5.5 1.5 2.8v1.5q0 1.2.5 1.7t1.7.5h1v1h-.7zm15.7-11.2q1.8 0 2.7 1 1 .8 1 3v4.4h-1.5V356q-.8 1.4-2.8 1.4-1.4 0-2.1-.6-.8-.6-.8-1.7 0-.8.5-1.5.6-.6 1.5-1 1-.3 2.1-.3h1.9q-.1-1.3-.8-1.9-.6-.5-1.8-.5l-1.2.2q-.5.2-1 .7l-.6-.8q1.1-1.2 2.9-1.2zm-.5 7.6q1.4 0 2.1-.8.8-.7.9-2.2l-1.8-.1q-1.3 0-2.1.4-.8.5-.8 1.4 0 1.3 1.7 1.3zm13.6-6.6h-.4q-.9 0-1.5.4.3.6.3 1.3 0 .9-.3 1.5-.4.7-1 1-.7.4-1.5.4-.7 0-1.3-.2-.3.4-.3.7 0 .5.5.7l2 .1q1.7 0 2.4.6.6.5.6 1.5t-.9 1.8q-.8.7-2.7.7-1.7 0-2.7-.5-1-.6-1-1.6 0-.7.3-1.1.4-.5 1-.8-.6-.4-.6-1 0-.8.7-1.6l-.7-1q-.2-.5-.2-1.2t.3-1.4q.4-.7 1-1 .7-.4 1.6-.4 1.3 0 2 .8.5-.4 1-.5.4-.2 1-.2h.3l.1 1zm-4.4 3.5q.7 0 1.2-.5.6-.5.6-1.3 0-.7-.6-1.2-.5-.6-1.2-.6-.8 0-1.3.6-.5.5-.5 1.2 0 .8.5 1.3t1.3.5zm2.7 4.7l-.1-.7-.6-.3-1.4-.1q-1.3 0-2-.3l-.7.6-.1.8q0 .7.7 1 .6.3 1.9.3 1.1 0 1.7-.3.6-.4.6-1zm7-.6q-1.7 0-2.8-1.1-1.1-1.1-1.1-3.2 0-1.3.5-2.3.5-1 1.3-1.5.9-.5 2-.5 1.5 0 2.4 1 1 1 1 2.9l-.1.6h-5.9q0 1.5.9 2.3.7.7 2 .7 1.2 0 2-.9l.8.7q-1 1.3-3 1.3zm1.9-5.1q0-1.2-.6-1.8-.6-.7-1.5-.7-1 0-1.6.6-.7.6-.8 1.9h4.5zm6.6-.6q-.4 0-.8-.3-.3-.3-.3-.8 0-.4.3-.7.3-.3.8-.3.4 0 .7.3.4.3.4.7 0 .5-.4.8-.3.3-.7.3zm0 5.7q-.5 0-.8-.3-.3-.3-.3-.7 0-.4.3-.8.3-.3.8-.3.4 0 .7.3.4.4.4.8t-.4.7q-.3.3-.7.3zm19.2-6.1q1 .3 1.6 1 .6.7.6 1.8 0 1-.4 1.7t-1.2 1.2q-.7.4-1.8.4-.9 0-1.7-.3-.8-.3-1.4-1l.9-1 1 1q.4.2 1.2.2 1 0 1.5-.6.6-.6.6-1.6 0-1.1-.7-1.7-.7-.6-1.9-.6h-.6v-1q1.6 0 2.2-.5.6-.6.6-1.6 0-.8-.4-1.2-.5-.5-1.2-.5-1.2 0-2 .8l-.8-.7q1.1-1.2 2.8-1.2 1.3 0 2.1.8t.8 2q0 1-.4 1.6-.5.7-1.4 1zm-3.2 3.8h-.2v-.1h.2zm-.2 0q0-.1 0 0zm11.4 2.3q-1 0-1.8-.4t-1.2-1q-.4-.8-.4-1.6 0-1 .6-1.8.6-.9 1.6-1.3-.7-.4-1.2-1.1-.5-.8-.5-1.6 0-1.2.8-2 .8-.7 2.2-.7 1.5 0 2.2.7.8.7.8 2 0 .7-.5 1.5-.5.7-1.3 1.1 1 .5 1.5 1.3.6.8.6 1.8 0 .9-.4 1.6-.4.7-1.2 1.1-.8.4-1.8.4zm.3-6.6q.7-.4 1.1-1 .4-.6.4-1.2 0-.7-.4-1.2-.5-.5-1.3-.5-.9 0-1.3.5-.5.4-.5 1.1 0 .8.5 1.2.5.5 1.5 1zm-.3 5.5q1 0 1.6-.6.6-.5.6-1.4 0-.8-.7-1.5-.6-.7-1.7-1-.9.3-1.4 1-.5.7-.5 1.5t.5 1.4q.6.6 1.6.6zm7.5 3.4l.8-1 .3-.9v-.3l-.4-.3-.4-.4v-.4q0-.4.2-.7.3-.3.8-.3t.8.4q.4.4.4 1 0 1.5-2 3.4l-.5-.5zm19.3-2.3q-.5 0-.8-.3-.3-.3-.3-.7 0-.4.3-.7.3-.3.8-.3.4 0 .7.3.3.3.3.7 0 .4-.3.7-.3.3-.7.3zm9 0q-.5 0-.8-.3-.3-.3-.3-.7 0-.4.3-.7.3-.3.8-.3.4 0 .7.3.3.3.3.7 0 .4-.3.7-.3.3-.7.3zm9 0q-.5 0-.8-.3-.3-.3-.3-.7 0-.4.3-.7.3-.3.8-.3.4 0 .7.3.3.3.3.7 0 .4-.3.7-.3.3-.7.3zm5.7 2.6v-1h1q1.1 0 1.7-.4.5-.5.5-1.7v-1.5q0-2.3 1.4-2.8-1.5-.7-1.5-2.7v-1.2q0-2-1.7-2h-1.4v-1h1.1q3.3 0 3.3 3.2v1.3q0 1 .4 1.5.4.4 1.2.4h.4v1h-.4q-.8 0-1.2.5-.4.4-.4 1.5v1.8q.1 1.3-.3 2-.4.6-1.3.9-.8.3-2.2.3h-.6zm-120.3-43.8q-1.4 0-2.2-.3-.9-.2-1.3-1-.4-.6-.3-1.9v-1.8q0-1-.4-1.5t-1.2-.5h-.3v-1h.3q.8 0 1.3-.4.4-.5.4-1.5V305q0-3.1 3.2-3.1h1.1v1h-1.4q-1.7 0-1.7 1.9v1.3q0 2-1.5 2.6 1.5.5 1.5 2.8v1.5q0 1.2.5 1.7t1.7.5h1v1h-.7zm15.7-11.2q1.8 0 2.7.8 1 1 1 3.2v4.3h-1.5v-1.2q-.8 1.4-2.8 1.4-1.4 0-2.1-.6-.8-.6-.8-1.6t.5-1.6q.6-.6 1.5-1 1-.3 2.1-.3l1.9.1q-.1-1.4-.8-2-.6-.5-1.8-.5l-1.2.2-1 .7-.6-.8q1.1-1.2 2.9-1.2zm-.5 7.5q1.4 0 2.1-.7.8-.8.9-2.3l-1.8-.1q-1.3 0-2.1.4-.8.5-.8 1.4 0 1.3 1.7 1.3zm13.6-6.5h-.4q-.9 0-1.5.3.3.6.3 1.4 0 .8-.3 1.4-.4.7-1 1-.7.4-1.5.4-.7 0-1.3-.2-.3.4-.3.7 0 .5.5.7.6.2 2 .2 1.7 0 2.4.5.6.5.6 1.5 0 1.1-.9 1.8-.8.7-2.7.7-1.7 0-2.7-.5-1-.6-1-1.6 0-.6.3-1.1.4-.5 1-.8-.6-.3-.6-1 0-.8.7-1.6l-.7-1q-.2-.5-.2-1.1 0-.8.3-1.5.4-.6 1-1 .7-.4 1.6-.4 1.3 0 2 .8.5-.4 1-.5.4-.2 1-.2h.3l.1 1zm-4.4 3.5q.7 0 1.2-.6.6-.5.6-1.2 0-.8-.6-1.3-.5-.5-1.2-.5-.8 0-1.3.5t-.5 1.3q0 .7.5 1.2.5.6 1.3.6zm2.7 4.6l-.1-.6q-.2-.3-.6-.4l-1.4-.1q-1.3 0-2-.2-.5.2-.7.5l-.1.9q0 .6.7 1 .6.3 1.9.3 1.1 0 1.7-.4.6-.3.6-1zm7-.6q-1.7 0-2.8-1.1-1.1-1.1-1.1-3.2 0-1.3.5-2.3.5-1 1.3-1.5.9-.5 2-.5 1.5 0 2.4 1 1 1 1 3l-.1.5h-5.9q0 1.5.9 2.3.7.8 2 .8 1.2 0 2-1l.8.7q-1 1.3-3 1.3zm1.9-5.1q0-1.2-.6-1.8-.6-.7-1.5-.7-1 0-1.6.6-.7.7-.8 1.9h4.5zm6.6-.6q-.4 0-.8-.3-.3-.3-.3-.7 0-.5.3-.8.3-.3.8-.3.4 0 .7.3.4.3.4.8 0 .4-.4.7-.3.3-.7.3zm0 5.7q-.5 0-.8-.3-.3-.3-.3-.7 0-.4.3-.7.3-.3.8-.3.4 0 .7.3.4.3.4.7 0 .4-.4.7-.3.3-.7.3zm19.2-6.1q1 .3 1.6 1 .6.8.6 1.8t-.4 1.7q-.4.7-1.2 1.2-.7.4-1.8.4-.9 0-1.7-.3-.8-.3-1.4-1l.9-1 1 1q.4.2 1.2.2 1 0 1.5-.6.6-.6.6-1.6 0-1.1-.7-1.7-.7-.5-1.9-.5h-.6v-1q1.6 0 2.2-.6.6-.6.6-1.6 0-.8-.4-1.2-.5-.5-1.2-.5-1.2 0-2 .9l-.8-.8q1.1-1.2 2.8-1.2 1.3 0 2.1.8t.8 2q0 1-.4 1.6-.5.7-1.4 1zm-3.2 3.8h-.2.2zm-.2 0zm11.4 2.3q-1 0-1.8-.4t-1.2-1q-.4-.8-.4-1.6 0-1 .6-1.8.6-.9 1.6-1.3-.7-.4-1.2-1.1-.5-.7-.5-1.6 0-1.2.8-2 .8-.7 2.2-.7 1.5 0 2.2.7.8.8.8 2 0 .7-.5 1.5-.5.7-1.3 1.1 1 .5 1.5 1.3.6.9.6 1.8t-.4 1.6q-.4.7-1.2 1.1-.8.4-1.8.4zm.3-6.6q.7-.4 1.1-1 .4-.6.4-1.2 0-.7-.4-1.2-.5-.5-1.3-.5-.9 0-1.3.5-.5.5-.5 1.1 0 .8.5 1.3l1.5 1zm-.3 5.5q1 0 1.6-.6.6-.5.6-1.4 0-.8-.7-1.5-.6-.7-1.7-1-.9.3-1.4 1-.5.7-.5 1.5t.5 1.4q.6.6 1.6.6zm7.5 3.4l.8-1q.3-.5.3-.9v-.2l-.4-.4-.4-.4v-.4q0-.4.2-.7.3-.3.8-.3t.8.4q.4.4.4 1 0 1.5-2 3.5l-.5-.6zm19.3-2.3q-.5 0-.8-.3-.3-.3-.3-.7 0-.4.3-.7.3-.3.8-.3.4 0 .7.3.3.3.3.7 0 .4-.3.7-.3.3-.7.3zm9 0q-.5 0-.8-.3-.3-.3-.3-.7 0-.4.3-.7.3-.3.8-.3.4 0 .7.3.3.3.3.7 0 .4-.3.7-.3.3-.7.3zm9 0q-.5 0-.8-.3-.3-.3-.3-.7 0-.4.3-.7.3-.3.8-.3.4 0 .7.3.3.3.3.7 0 .4-.3.7-.3.3-.7.3zm5.7 2.7v-1h1q1.1 0 1.7-.5.5-.5.5-1.7v-1.5q0-2.3 1.4-2.8-1.5-.7-1.5-2.6v-1.3q0-2-1.7-2h-1.4v-1h1.1q3.3 0 3.3 3.2v1.3q0 1 .4 1.5.4.4 1.2.4h.4v1h-.4q-.8 0-1.2.5-.4.4-.4 1.5v1.8q.1 1.3-.3 2t-1.3 1q-.8.2-2.2.2h-.6z" font-size="18" font-family="Inconsolata" fill="#173182"/><path d="M671.8 201h144.6M671.8 331.4h144.6" stroke="#173182" fill="none"/><path d="M712.6 404.4v-14.3h3.6q2.2 0 3.5 1.1 1.2 1 1.2 3 0 1.2-.6 2-.6 1-1.8 1.4.7.5 1.4 1.3.6.7 1.8 2.7l1.2 1.8.8 1h-2.5l-.6-.9-.1-.2-.4-.5-.7-1-.6-1.2-1.2-1.4-1-.8q-.4-.2-1.4-.2h-.5v6.2h-2zm2.7-12.5h-.6v4.5h.8q1.5 0 2-.3.7-.2 1-.8.3-.5.3-1.2t-.3-1.2q-.4-.6-1-.8-.7-.2-2.2-.2zm17.7 8h-6.6q.1 1.3 1 2.1.8.8 2 .8 2 0 3.5-1.1v1.8q-.9.6-1.7.8-.9.3-2 .3-1.6 0-2.5-.7-1-.6-1.6-1.7-.5-1-.5-2.5 0-2.2 1.2-3.5 1.2-1.4 3.1-1.4 2 0 3 1.3 1.2 1.4 1.2 3.6v.2zm-6.5-1.1h4.7q0-1.1-.7-1.7-.5-.7-1.6-.7-1 0-1.6.7-.6.6-.8 1.7zm8.1 5v-2l1.6.9q.9.3 1.4.3.6 0 1-.3t.4-.7q0-.4-.2-.7l-1.2-.7q-1.8-1-2.4-1.8-.5-.7-.5-1.5 0-1.1.8-1.8.9-.7 2.2-.7 1.4 0 2.8.8v1.9q-1.6-1-2.7-1-.5 0-.9.2-.3.2-.3.6 0 .3.3.6l1 .7.7.4q2.4 1.3 2.4 3 0 1.1-1 1.9-.8.7-2.2.7-.9 0-1.5-.2-.7-.1-1.7-.6zm14.5.6v-1.2q-.6.7-1.3 1-.8.4-1.6.4-.9 0-1.6-.4-.8-.5-1.2-1.2-.3-.8-.3-2.6V395h1.8v5.4q0 1.5.5 2 .4.7 1.5.7 1.3 0 2.2-1.3V395h1.9v9.4h-2zm4.6-14.3h1.8v14.3h-1.8v-14.3zm3.3 6.4l3.4-3.4v2h3v1.6h-3v4.6q0 1.6 1.4 1.6 1 0 2.1-.6v1.7q-1 .6-2.4.6-1.2 0-2-.7l-.5-.5-.3-.8-.1-1.7v-4.2h-1.7v-.2zm7.8 7.3v-2l1.6.9q.8.3 1.4.3.6 0 1-.3t.4-.7q0-.4-.2-.7l-1.2-.7q-1.8-1-2.4-1.8-.5-.7-.5-1.5 0-1.1.8-1.8.9-.7 2.2-.7 1.4 0 2.8.8v1.9q-1.6-1-2.7-1-.5 0-.9.2-.3.2-.3.6 0 .3.3.6l1 .7.7.4q2.4 1.3 2.4 3 0 1.1-1 1.9-.8.7-2.3.7-.8 0-1.5-.2-.6-.1-1.6-.6z" font-size="21" font-family="GillSans" fill="#2a86c0"/><path d="M14.7 59.4q-1.6 0-3-1-1.3-.8-2.2-2.6-.9-1.7-.9-4.2 0-2.6 1-4.2.8-1.7 2.2-2.5 1.4-.9 3-.9 1.5 0 2.6.7 1 .7 1.7 1.9v-8.8h2.4v.2l-.3.4V58l.4 1h-2.3l-.3-1v-1.2q-.7 1.2-1.9 1.9-1 .7-2.4.7zm.3-2q2 0 3-1.6.9-1.6.9-4.2t-1-4.1q-1-1.6-3-1.6t-3 1.5q-1 1.4-1 3.8 0 2.8 1 4.5 1.1 1.6 3.1 1.6zm16.7 2q-1.3 0-2.4-.6-1.2-.6-2-1.7l-.7 2H25V37.7h2.6v.2l-.2.4v8.3q.6-1.1 1.8-1.8 1.2-.7 2.5-.7 2.7 0 4.4 1.9 1.6 1.9 1.6 5.6 0 2.5-.9 4.3-.8 1.7-2.2 2.6-1.4.9-3 .9zm-.3-2q1.7 0 2.9-1.4 1.1-1.4 1.1-4.3 0-2.8-1-4.2-1.1-1.5-3-1.5-1.7 0-2.8 1.6-1.2 1.6-1.2 4.2 0 5.5 4 5.5zm15.4 2q-.8 0-1.3-.6-.6-.5-.6-1.2 0-.8.6-1.3.5-.6 1.3-.6.7 0 1.3.6.5.5.5 1.3 0 .7-.5 1.2-.6.6-1.3.6zm15.5 0q-2.3 0-3.7-1.7-1.4-1.7-1.4-5.1v-8.2h2.3v8.2q0 2.6 1 3.8.8 1.1 2.3 1.1 1.7 0 2.8-1.3 1.2-1.3 1.2-3.7v-8H69V58l.3 1h-2.2l-.3-1v-1.2q-.7 1.2-2 2-1.1.6-2.5.6zm17.9-9q2.8.9 4 1.8 1 1 1 2.6 0 2-1.5 3.3-1.5 1.3-4.5 1.3-3.7 0-6.2-2.4l1.3-2.1q1 1.3 2.1 1.9 1 .6 2.9.6 1.7 0 2.7-.6 1-.6 1-1.7 0-1-.8-1.5-.8-.6-2.9-1.3-5.5-1.6-5.5-4.6 0-1.7 1.4-2.7 1.4-1 4-1 2 0 3.3.6 1.4.6 2.5 1.8L83.7 48q-.7-1-2-1.6-1.2-.6-2.4-.6-1.4 0-2.3.5-.9.4-.9 1.3 0 .8 1 1.5.8.7 3.1 1.3zm3.1-2.3q0-.2.3 0l-.1.1-.2-.1zm.4-.1v.2l-.1-.1V48zm-9 6.7q0 .2-.3 0v-.1l.3.1zm-.4.1v-.1.1zm21.6 4.6q-3.3 0-5.2-2-2-2-2-5.6 0-2.4 1-4.2.9-1.7 2.4-2.6 1.5-1 3.4-1 2.6 0 4.3 1.8 1.6 1.8 1.6 5.2v1H91q0 2.7 1.5 4.1 1.3 1.4 3.5 1.4 2.3 0 3.7-1.6L101 57q-1.8 2.3-5.1 2.3zm3.2-9.1q0-2-1-3.3-1-1.2-2.8-1.2-1.6 0-2.8 1.1-1.1 1.2-1.4 3.4h8zm17.7-2.9q-1-.8-1.5-1-.7-.4-1.5-.4-1.1 0-2.2.6-1 .6-1.6 1.8-.7 1.1-.7 2.9V59H107V44.4h2.4v2.7q.5-1.4 1.8-2.2 1.3-.8 2.8-.8 2.3 0 3.8 1.6l-1 1.7zm0 0l.1.2h-.1v-.1zm-.3.2q0-.1 0 0h.3l-.1.1h-.2v-.1zm11.7 2.8q2.8.9 4 1.8 1 1 1 2.6 0 2-1.5 3.3-1.5 1.3-4.5 1.3-3.7 0-6.2-2.4l1.3-2.1q1 1.3 2.1 1.9 1 .6 2.9.6 1.7 0 2.7-.6 1-.6 1-1.7 0-1-.8-1.5-.8-.6-2.9-1.3-5.5-1.6-5.5-4.6 0-1.7 1.4-2.7 1.4-1 4-1 2 0 3.3.6 1.4.6 2.5 1.8l-1.3 1.6q-.7-1-2-1.6-1.2-.6-2.4-.6-1.4 0-2.3.5-.9.4-.9 1.3 0 .8 1 1.5.8.7 3.1 1.3zm3.1-2.3q0-.2.3 0l-.1.1-.2-.1zm.4-.1v.2l-.1-.1V48zm-9 6.7q0 .2-.3 0v-.1l.3.1zm-.4.1v-.1.1zm20.5 4.6q-.8 0-1.3-.6-.6-.5-.6-1.2 0-.8.6-1.3.5-.6 1.3-.6.7 0 1.3.6.5.5.5 1.3 0 .7-.5 1.2-.6.6-1.3.6zm22.3-18.1q-1-1.1-1.6-1.5-.6-.4-1.7-.4-1.5 0-2.4 1-.8.8-.8 2.8v1.2h4.8v1.8h-4.8V59h-2.2V46.2h-3.2v-1.8h3.2v-1.2q0-2.8 1.4-4.2 1.5-1.4 4-1.4 1.4 0 2.5.5 1.3.5 2 1.5l-1.2 1.7zm-.4 0h.2l.1.1v.1l-.3-.1zm.4 0q.2.3 0 .2v-.1zm5.3 17.7v-1.8h3.7v-11h-3.5v-1.8h5.8v12.8h3.5V59h-9.5zm4.8-17.7q-.7 0-1.2-.4-.5-.5-.5-1.2t.5-1.2q.5-.5 1.2-.5.6 0 1.1.6.5.4.5 1.1 0 .7-.5 1.2-.5.4-1.1.4zm10.3 3.1h2.2V47q.9-1.3 2.2-2.1 1.3-.8 2.8-.8 2 0 3.1 1.5 1.2 1.4 1.2 4.6V59h-2.3v-8.8q0-2.1-.7-3.1t-2-1q-1 0-2 .5-1 .6-1.6 1.7-.7 1-.7 2.3V59h-2.2V44.4zm21.2 15q-1.6 0-3-1-1.3-.8-2.2-2.6-.9-1.7-.9-4.2 0-2.6 1-4.2.8-1.7 2.2-2.5 1.4-.9 3-.9 1.5 0 2.6.7 1 .7 1.7 1.9v-8.8h2.4v.2l-.3.4V58l.4 1h-2.3l-.3-1v-1.2q-.7 1.2-1.9 1.9-1 .7-2.4.7zm.3-2q2 0 3-1.6.9-1.6.9-4.2t-1-4.1q-1-1.6-3-1.6t-3 1.5q-1 1.4-1 3.8 0 2.8 1 4.5 1.1 1.6 3.1 1.6zm20.8 7.2q-2.6-1.2-4.6-3.3-2-2.1-3-4.8-1.1-2.7-1.1-5.5t1-5.4q1.1-2.6 3-4.6 2-2 4.5-3.2l.6 2q-3 1.6-5 4.7-1.8 3-1.8 6.6 0 3.6 1.9 6.7 2 3.2 5.1 4.9l-.6 1.9zm31.2-.5q-2.4 0-3.9-.5-1.5-.4-2.2-1.7-.7-1.2-.6-3.4l.1-3.2q0-2-.7-2.8-.7-.8-2.2-.8h-.6V50h.6q1.5 0 2.2-.8.8-.8.8-2.6v-2.3q0-5.6 5.7-5.6h2v1.9h-2.6q-3 0-3 3.4l.1 2.2q0 3.5-2.8 4.7 2.7 1 2.7 5v2.7q0 2.1.9 3 1 .8 3 .8h1.7v1.8h-1.1zM287 44q3.1 0 4.8 1.7 1.6 1.7 1.6 5.6V59H291v-2.2q-1.3 2.6-5 2.6-2.4 0-3.8-1.1-1.3-1.1-1.3-3 0-1.5 1-2.6 1-1.2 2.6-1.8 1.7-.6 3.7-.6 1.8 0 3.3.2-.2-2.5-1.3-3.5-1-1-3.3-1-1 0-2 .4t-1.9 1.2l-1.1-1.5q2-2 5.2-2zm-.8 13.6q2.3 0 3.7-1.4 1.4-1.4 1.5-4-1.4-.2-3-.2-2.5 0-4 .8-1.3.8-1.3 2.4 0 2.4 3 2.4zM310.4 46l-.8-.1q-1.6 0-2.6.7.5 1 .5 2.4t-.6 2.6q-.6 1.1-1.8 1.8-1.1.7-2.7.7-1.2 0-2.2-.5-.6.7-.6 1.4t1 1q1 .4 3.5.4 3 0 4.2 1 1.1.9 1.1 2.7 0 2-1.5 3.2-1.5 1.2-4.8 1.2-3.1 0-5-1-1.7-.9-1.7-2.7 0-1.2.6-2 .7-.9 1.7-1.3-1-.7-1-2t1.2-2.7q-.8-.7-1.2-1.7-.4-1-.4-2.1 0-1.5.6-2.6.6-1.2 1.8-1.9 1.2-.6 2.7-.6 2.4 0 3.8 1.5.7-.7 1.5-1 .9-.4 1.9-.4h.5l.3 2zm-8 6.2q1.4 0 2.3-1 1-.9 1-2.2 0-1.4-1-2.3-.9-1-2.3-1t-2.3 1q-.9 1-.9 2.3 0 1.3 1 2.2.8 1 2.2 1zm5 8.3q0-.8-.4-1.2-.2-.5-1-.7-.8-.2-2.4-.2-2.3 0-3.7-.4-.8.5-1 1-.4.6-.4 1.5 0 1 1.2 1.7 1.2.6 3.4.6 2.1 0 3.2-.6 1-.6 1-1.7zm12.5-1.1q-3.3 0-5.2-2-2-2-2-5.6 0-2.4 1-4.2.9-1.7 2.4-2.6 1.5-1 3.4-1 2.6 0 4.3 1.8 1.6 1.8 1.6 5.2v1H315q0 2.7 1.5 4.1 1.3 1.4 3.5 1.4 2.3 0 3.7-1.6L325 57q-1.8 2.3-5.1 2.3zm3.2-9.1q0-2-1-3.3-1-1.2-2.8-1.2-1.6 0-2.8 1.1-1.2 1.2-1.4 3.4h8zm11.7-1.1q-.7 0-1.3-.6-.6-.5-.6-1.2 0-.8.6-1.4.5-.5 1.3-.5t1.3.5q.6.6.6 1.4 0 .7-.6 1.2-.5.6-1.3.6zm0 10.2q-.8 0-1.3-.5-.6-.6-.6-1.3 0-.8.6-1.4.5-.5 1.3-.5t1.3.5q.6.6.6 1.4 0 .7-.5 1.2-.6.6-1.4.6zm36.2 4.7q-2.4 0-3.9-.5-1.5-.4-2.2-1.7-.7-1.2-.6-3.4l.1-3.2q0-2-.7-2.8-.7-.8-2.2-.8h-.6V50h.6q1.5 0 2.2-.8.8-.8.8-2.6v-2.3q0-5.6 5.7-5.6h2v1.9h-2.6q-3 0-3 3.4l.1 2.2q0 3.5-2.8 4.7 2.7 1 2.7 5v2.7q0 2.1.9 3 1 .8 3 .8h1.7v1.8h-1.1zm27.7-5.5q-3.4-.2-5.6-2.6l1.4-1.9.1.4.1.3q1.6 1.7 4 2v-7.1q-2.5-.9-3.8-2-1.2-1.2-1.2-3 0-1.7 1.4-3t3.6-1.6v-1.9h2v.4l-.1.3V40q3 .3 4.7 2.5l-1.3 1.7q-.2 0-.2-.3l-.2-.4q-1-1.3-3-1.6v6.2q2.8.9 4 2 1.3 1.1 1.3 3 0 1.3-.7 2.4-.6 1.1-1.8 2-1.2.7-2.8 1v2h-1.9v-2zm0-16.7q-1.4.2-2.1 1-.8.6-.8 1.6 0 1.8 3 3v-5.6zm1.9 14.8q1.5-.3 2.3-1.3 1-.9 1-2 0-1.2-.8-1.8-.8-.7-2.5-1.3v6.4zM422.4 46l-.8-.1q-1.6 0-2.6.7.5 1 .5 2.4t-.6 2.6q-.6 1.1-1.8 1.8-1.1.7-2.7.7-1.2 0-2.2-.5-.6.7-.6 1.4t1 1q1 .4 3.5.4 3 0 4.2 1 1.1.9 1.1 2.7 0 2-1.5 3.2-1.5 1.2-4.8 1.2-3.1 0-5-1-1.7-.9-1.7-2.7 0-1.2.6-2 .7-.9 1.7-1.3-1-.7-1-2t1.2-2.7q-.8-.7-1.2-1.7-.4-1-.4-2.1 0-1.5.6-2.6.7-1.2 1.8-1.9 1.2-.6 2.7-.6 2.4 0 3.8 1.5.7-.7 1.5-1 .9-.4 1.9-.4h.5l.3 2zm-8 6.2q1.4 0 2.3-1 1-.9 1-2.2 0-1.4-1-2.3-.9-1-2.3-1t-2.3 1q-.9 1-.9 2.3 0 1.3 1 2.2.8 1 2.2 1zm5 8.3q0-.8-.4-1.2-.2-.5-1-.7-.8-.2-2.4-.2-2.3 0-3.7-.4-.8.5-1 1-.4.6-.4 1.5 0 1 1.2 1.7 1.3.6 3.4.6 2.1 0 3.2-.6 1-.6 1-1.7zm18-2.8q-2.1 1.6-4.6 1.6-2.5 0-3.5-1.5t-1-4.8v-2l.4-4.8h-3.3v-1.9h3.4l.2-3.9 2.6-.4h.3v.1l-.3.6-.2.7-.3 3h4.9v1.8h-5l-.3 5V53q0 2.5.5 3.4.6 1 2 1 .9 0 1.7-.4l1.8-1.1.7 1.8zm9.4-8.5q-.7 0-1.3-.6-.6-.5-.6-1.2 0-.8.6-1.4.5-.5 1.3-.5t1.4.5q.5.6.5 1.4 0 .7-.5 1.2-.6.6-1.4.6zm0 10.2q-.8 0-1.3-.5-.6-.6-.6-1.3 0-.8.6-1.4.5-.5 1.3-.5t1.4.5q.5.6.5 1.4 0 .7-.5 1.2-.6.6-1.4.6zm31.8-.4V41.8l-4 1.2-.6-1.2 5.2-2.7h1.6v20h-2.2zm16.6.4q-1.8 0-3.2-.8-1.4-.7-2.2-1.9-.7-1.2-.7-2.7 0-1.7 1.1-3.2 1-1.5 3-2.4-1.5-.7-2.3-2-.8-1.2-.8-2.6 0-2.2 1.3-3.6 1.4-1.4 4-1.4t3.9 1.4q1.3 1.3 1.3 3.4 0 1.4-.8 2.7-.9 1.3-2.3 2 1.7.9 2.7 2.4 1.1 1.5 1.1 3.2 0 1.5-.8 2.8-.7 1.2-2.1 2-1.4.7-3.2.7zm.5-11.8q1.2-.7 2-1.8.8-1 .8-2.2 0-1.2-.9-2-.8-.9-2.3-.9-1.5 0-2.3.9-.8.8-.8 2 0 1.3.9 2.2.8.8 2.6 1.8zm-.4 9.7q1.7 0 2.7-1 1-1 1-2.4 0-1.5-1.1-2.7-1.2-1.3-3.1-1.9-1.5.6-2.5 1.9-.9 1.2-.9 2.6 0 1.5 1 2.5t2.9 1zm25.7 6.8v-1.8h1.6q2.2 0 3-.8 1-.9 1-3v-2.7q0-4 2.6-5-2.7-1.2-2.7-4.7v-2.2q0-3.4-3-3.4H521v-1.9h2q5.9 0 5.9 5.6l-.1 2.3q0 1.8.7 2.6.8.8 2.3.8h.6v1.8h-.7q-1.4 0-2.1.8-.7.8-.7 2.8v3.2q.2 2.2-.6 3.4-.7 1.3-2.2 1.7-1.5.5-3.9.5H521zm32 0v-1.8h1.6q2.2 0 3-.8 1-.9 1-3v-2.7q0-4 2.6-5-2.7-1.2-2.7-4.7v-2.2q0-3.4-3-3.4H553v-1.9h2q5.9 0 5.9 5.6l-.1 2.3q0 1.8.7 2.6.8.8 2.3.8h.6v1.8h-.7q-1.4 0-2.1.8-.7.8-.7 2.8v3.2q.2 2.2-.6 3.4-.7 1.3-2.2 1.7-1.5.5-3.9.5H553zm33.8-1.4q3.3-1.7 5.2-4.9 2-3 2-6.7 0-3.5-2-6.6-1.8-3-5-4.8l.6-2q2.6 1.3 4.5 3.3 2 2 3 4.6 1 2.6 1 5.4 0 2.8-1 5.5t-3 4.8q-2 2-4.7 3.3l-.6-2zm20-3.3q-.8 0-1.3-.6-.5-.5-.5-1.2 0-.8.5-1.3.5-.6 1.3-.6.7 0 1.3.6.5.5.5 1.3 0 .7-.5 1.2-.6.6-1.3.6zm17.4-9q2.8.9 4 1.8 1 1 1 2.6 0 2-1.5 3.3-1.5 1.3-4.5 1.3-3.7 0-6.2-2.4l1.3-2.1q1 1.3 2.1 1.9 1 .6 2.9.6 1.7 0 2.7-.6 1-.6 1-1.7 0-1-.8-1.5-.8-.6-2.9-1.3-5.5-1.6-5.5-4.6 0-1.7 1.4-2.7 1.4-1 4-1 2 0 3.3.6 1.4.6 2.5 1.8l-1.3 1.6q-.7-1-2-1.6-1.2-.6-2.4-.6-1.4 0-2.3.5-.9.4-.9 1.3 0 .8 1 1.5.8.7 3.1 1.3zm3.1-2.3q0-.2.3 0l-.1.1-.2-.1zm.4-.1v.2l-.1-.1V48zm-9 6.7q0 .2-.3 0v-.1l.3.1zm-.4.1v-.1.1zm20.9 4.5q-2 0-3.5-1t-2.4-2.7q-.9-1.7-.9-3.9t.9-4q.9-1.7 2.4-2.6 1.5-1 3.5-1t3.5 1q1.5 1 2.4 2.7.8 1.7.8 4 0 2.1-.8 3.8-.9 1.8-2.4 2.7-1.6 1-3.5 1zm0-2q1.2 0 2.2-.7 1-.7 1.5-2 .6-1.3.6-3 0-2.4-1.2-4t-3.1-1.6q-1.9 0-3.1 1.6-1.2 1.6-1.2 4 0 1.7.5 3 .6 1.3 1.5 2 1 .8 2.3.8zm21.6-9.9q-1-.8-1.5-1-.7-.4-1.5-.4-1.1 0-2.2.6-1 .6-1.6 1.8-.7 1.1-.7 2.9V59H651V44.4h2.4v2.7q.5-1.4 1.8-2.2 1.3-.8 2.8-.8 2.3 0 3.8 1.6l-1 1.7zm0 0l.1.2h-.1v-.1zm-.3.2q0-.1 0 0h.3l-.1.1h-.2v-.1zm16.9 10.1q-2.1 1.6-4.6 1.6-2.5 0-3.5-1.5t-1-4.8v-2l.4-4.8h-3.3v-1.9h3.4l.2-3.9 2.6-.4h.3v.1l-.3.6-.2.7-.3 3h4.9v1.8h-5l-.3 5V53q0 2.5.5 3.4.6 1 2 1 .9 0 1.7-.4l1.8-1.1.7 1.8zm14.4 6.9q-2.6-1.2-4.6-3.3-2-2.1-3-4.8-1.1-2.7-1.1-5.5t1-5.4q1.1-2.6 3-4.6 2-2 4.5-3.2l.6 2q-3 1.6-5 4.7-1.8 3-1.8 6.6 0 3.6 1.9 6.7 2 3.2 5.1 4.9l-.6 1.9zm31.2-.5q-2.4 0-3.9-.5-1.5-.4-2.2-1.7-.7-1.2-.6-3.4l.1-3.2q0-2-.7-2.8-.7-.8-2.2-.8h-.6V50h.6q1.5 0 2.2-.8.8-.8.8-2.6v-2.3q0-5.6 5.7-5.6h2v1.9h-2.6q-3 0-3 3.4l.1 2.2q0 3.5-2.8 4.7 2.7 1 2.7 5v2.7q0 2.1.9 3 1 .8 3 .8h1.7v1.8h-1.1zM735 44q3.1 0 4.8 1.7 1.6 1.7 1.6 5.6V59H739v-2.2q-1.3 2.6-5 2.6-2.4 0-3.8-1.1-1.3-1.1-1.3-3 0-1.5 1-2.6 1-1.2 2.6-1.8 1.7-.6 3.7-.6 1.8 0 3.3.2-.2-2.5-1.3-3.5-1-1-3.3-1-1 0-2 .4t-1.9 1.2l-1.1-1.5q2-2 5.2-2zm-.8 13.6q2.3 0 3.7-1.4 1.4-1.4 1.5-4-1.4-.2-3-.2-2.5 0-4 .8-1.3.8-1.3 2.4 0 2.4 3 2.4zM758.4 46l-.8-.1q-1.6 0-2.6.7.5 1 .5 2.4t-.6 2.6q-.6 1.1-1.8 1.8-1.1.7-2.7.7-1.2 0-2.2-.5-.6.7-.6 1.4t1 1q1 .4 3.5.4 3 0 4.2 1 1.1.9 1.1 2.7 0 2-1.5 3.2-1.5 1.2-4.8 1.2-3.1 0-5-1-1.7-.9-1.7-2.7 0-1.2.6-2 .7-.9 1.7-1.3-1-.7-1-2t1.2-2.7q-.8-.7-1.2-1.7-.4-1-.4-2.1 0-1.5.6-2.6.6-1.2 1.8-1.9 1.2-.6 2.7-.6 2.4 0 3.8 1.5.7-.7 1.5-1 .9-.4 1.9-.4h.5l.3 2zm-8 6.2q1.4 0 2.3-1 1-.9 1-2.2 0-1.4-1-2.3-.9-1-2.3-1t-2.3 1q-.9 1-.9 2.3 0 1.3 1 2.2.8 1 2.2 1zm5 8.3q0-.8-.4-1.2-.2-.5-1-.7-.8-.2-2.4-.2-2.3 0-3.7-.4-.8.5-1 1-.4.6-.4 1.5 0 1 1.2 1.7 1.2.6 3.4.6 2.1 0 3.2-.6 1-.6 1-1.7zm12.5-1.1q-3.3 0-5.2-2-2-2-2-5.6 0-2.4 1-4.2.8-1.7 2.4-2.6 1.5-1 3.4-1 2.6 0 4.3 1.8 1.6 1.8 1.6 5.2v1H763q0 2.7 1.5 4.1 1.3 1.4 3.5 1.4 2.3 0 3.7-1.6L773 57q-1.8 2.3-5.1 2.3zm3.2-9.1q0-2-1-3.3-1-1.2-2.8-1.2-1.6 0-2.8 1.1-1.2 1.2-1.4 3.4h8zm11.7-1.1q-.7 0-1.3-.6-.6-.5-.6-1.2 0-.8.6-1.4.5-.5 1.3-.5t1.4.5q.5.6.5 1.4 0 .7-.5 1.2-.6.6-1.4.6zm0 10.2q-.8 0-1.3-.5-.6-.6-.6-1.3 0-.8.6-1.4.5-.5 1.3-.5t1.4.5q.5.6.5 1.4 0 .7-.5 1.2-.6.6-1.4.6zm31.7-.4V41.8l-4 1.2-.5-1.2 5.2-2.7h1.6v20h-2.2zm26.5 5.1v-1.8h1.6q2.2 0 3-.8 1-.9 1-3v-2.7q0-4 2.6-5-2.7-1.2-2.7-4.7v-2.2q0-3.4-3-3.4H841v-1.9h2q5.9 0 5.9 5.6l-.1 2.3q0 1.8.7 2.6.8.8 2.3.8h.6v1.8h-.7q-1.4 0-2.1.8-.7.8-.7 2.8v3.2q.2 2.2-.6 3.4-.7 1.3-2.2 1.7-1.5.5-3.9.5H841zm33.8-1.4q3.3-1.7 5.2-4.9 2-3 2-6.7 0-3.5-2-6.6-1.8-3-5-4.8l.6-2q2.6 1.3 4.5 3.3 2 2 3 4.6 1 2.6 1 5.4 0 2.8-1 5.5t-3 4.8q-2 2-4.7 3.3l-.6-2z" font-size="32" font-family="Inconsolata" fill="#173182"/><path d="M65.5 22.7V25q-2.2 1.2-5.2 1.2-2.4 0-4-1-1.7-1-2.7-2.6-1-1.7-1-3.7 0-3.1 2.3-5.2 2.2-2.2 5.5-2.2 2.2 0 5 1.2v2.2q-2.5-1.4-5-1.4-2.4 0-4 1.5-1.6 1.6-1.6 4 0 2.3 1.6 3.8t4 1.5q2.7 0 5.1-1.6zm6.8-6.1q2.2 0 3.6 1.4t1.4 3.5q0 2-1.4 3.4-1.5 1.3-3.6 1.3-2.2 0-3.6-1.4-1.4-1.3-1.4-3.4 0-2 1.4-3.4 1.5-1.4 3.6-1.4zm0 1.7q-1.4 0-2.3.8-.8 1-.8 2.3 0 1.3.8 2.2 1 .9 2.3.9 1.4 0 2.3-1 .8-.8.8-2.1 0-1.4-.9-2.3-.9-.8-2.3-.8zm7.1-6.6h1.9V26h-1.9V11.7zm4.6 0h2V26h-2V11.7zm12.7 9.8h-6.6q0 1.3.9 2.1.8.8 2.1.8 1.9 0 3.4-1.1V25q-.8.6-1.7.8-.8.3-2 .3-1.5 0-2.5-.7-1-.6-1.5-1.7-.6-1.1-.6-2.5 0-2.2 1.2-3.5 1.2-1.4 3.2-1.4 1.9 0 3 1.3t1.1 3.5v.3zm-6.6-1.1H95q-.1-1.2-.7-1.8-.6-.6-1.6-.6t-1.7.6q-.6.6-.8 1.8zm15.7 3.4v1.9q-1.4.5-2.8.5-2.2 0-3.5-1.3-1.3-1.3-1.3-3.5 0-2.3 1.3-3.6 1.2-1.4 3.3-1.4.8 0 1.3.2.6 0 1.5.5v2q-1.4-1-2.6-1-1.3 0-2.1 1-.8.8-.8 2.2 0 1.5.8 2.3 1 .9 2.4.9 1 0 2.5-.7zm.8-5.7l3.5-3.4v1.9h3v1.7h-3v4.6q0 1.6 1.3 1.6 1 0 2.1-.7v1.8q-1 .6-2.3.6-1.3 0-2.1-.8l-.5-.5-.3-.7v-5.9h-1.7V18zm9.3-5.5q.4 0 .8.3.3.4.3.8 0 .5-.3.8-.4.3-.8.3-.5 0-.8-.3-.3-.3-.3-.8 0-.4.3-.7.3-.4.8-.4zm-1 4h2V26h-2v-9.4zm9.1 0q2.2 0 3.6 1.4t1.4 3.5q0 2-1.4 3.4-1.5 1.3-3.7 1.3-2 0-3.5-1.4-1.4-1.3-1.4-3.4 0-2 1.4-3.4t3.6-1.4zm0 1.7q-1.4 0-2.3.8-.9 1-.9 2.3 0 1.3 1 2.2.8.9 2.2.9 1.4 0 2.2-1 1-.8 1-2.1 0-1.4-1-2.3-.9-.8-2.3-.8zm9-1.7v1.2q1.2-1.4 2.8-1.4.9 0 1.6.5.8.4 1.2 1.2.4.8.4 2.5V26h-2v-5.3q0-1.5-.4-2.1-.5-.6-1.5-.6-1.3 0-2.3 1.3V26H131v-9.4h2zm257.4 8.2l-2 2q-1 0-2-.3l-2.2-.8-2.9-1.8q-2.6-.5-4.3-2.5-1.7-2-1.7-4.6 0-3.2 2.2-5.3 2.2-2.1 5.5-2.1 3.4 0 5.5 2 2.2 2.1 2.2 5.3 0 2.7-1.6 4.7-1.7 2-4.3 2.5l.5.2q2.6 1 3.7 1 .6 0 1.4-.3zM383 11.3q-2.4 0-4 1.6-1.5 1.5-1.5 4 0 2.2 1.5 3.8 1.6 1.5 4 1.5t4-1.6q1.6-1.6 1.6-3.9T387 13q-1.5-1.6-4-1.6zm16 12.6v-1.2q-.6.7-1.4 1-.7.4-1.5.4-.9 0-1.6-.5-.8-.4-1.2-1.2-.4-.8-.4-2.5v-5.4h2v5.4q0 1.4.3 2 .5.6 1.5.6 1.4 0 2.3-1.3v-6.7h1.9v9.4h-2zm12.5-4.5H405q0 1.3.9 2.1.8.8 2.2.8 1.8 0 3.4-1.1V23q-.9.6-1.8.8-.8.2-2 .2-1.5 0-2.5-.6t-1.5-1.7q-.6-1.1-.6-2.6 0-2.1 1.2-3.5 1.3-1.3 3.2-1.3 1.9 0 3 1.3t1.1 3.5v.3zm-6.6-1.2h4.8q0-1-.7-1.7-.6-.6-1.6-.6t-1.6.6q-.7.6-.9 1.7zm10.6-3.7v2.1l.1-.1q1.4-2.2 2.7-2.2 1.1 0 2.2 1l-1 1.7q-1-1-1.7-1-1 0-1.6 1-.7.8-.7 2v4.9h-1.8v-9.4h1.8zm12.7 0h2.2l-6.7 14.2h-2.1l3.2-6.8-3.6-7.4h2l2.6 5.3 2.4-5.3zm21.8 6.1v2.2q-2.2 1.3-5.1 1.3-2.4 0-4-1-1.8-1-2.7-2.7-1-1.6-1-3.6 0-3.1 2.2-5.3 2.3-2.1 5.5-2.1 2.3 0 5 1.2v2.2q-2.5-1.5-4.9-1.5-2.4 0-4 1.6-1.7 1.6-1.7 3.9t1.6 3.9q1.6 1.5 4.1 1.5 2.6 0 5-1.6zm4.4-6.1v2.1-.1q1.4-2.2 2.8-2.2 1 0 2.2 1l-1 1.7q-1-1-1.8-1-.9 0-1.6 1-.6.8-.6 2v4.9h-1.9v-9.4h1.9zm7.3-4q.4 0 .8.3.3.3.3.8t-.3.8q-.4.3-.8.3-.5 0-.8-.3-.3-.4-.3-.8t.3-.8q.3-.3.8-.3zm-1 4h2v9.4h-2v-9.4zM464 16l3.5-3.5v2h3v1.7h-3v4.6q0 1.6 1.3 1.6 1 0 2.1-.7v1.8q-1 .6-2.3.6-1.3 0-2.1-.8l-.5-.5-.3-.7v-5.9H464V16zm16.3 3.4h-6.6q0 1.3 1 2.1.8.8 2 .8 2 0 3.5-1.1V23q-.9.6-1.7.8-.9.2-2 .2-1.6 0-2.5-.6-1-.6-1.6-1.7-.6-1.1-.6-2.6 0-2.1 1.3-3.5 1.2-1.3 3.1-1.3 2 0 3 1.3 1.1 1.3 1.1 3.5v.3zm-6.5-1.2h4.7q0-1-.7-1.7-.6-.6-1.6-.6t-1.6.6q-.6.6-.8 1.7zm10.6-3.7v2.1-.1q1.4-2.2 2.8-2.2 1 0 2.2 1l-1 1.7q-1-1-1.8-1-1 0-1.6 1-.6.8-.6 2v4.9h-2v-9.4h2zm7.2-4q.5 0 .8.3.4.3.4.8t-.4.8q-.3.3-.8.3-.4 0-.7-.3-.3-.4-.3-.8t.3-.8q.3-.3.7-.3zm-.9 4h1.9v9.4h-1.9v-9.4zm10.5 3.7v4q0 .5.3.5.4 0 1-.5v1.2q-.5.4-1 .5-.3.2-.7.2-1.2 0-1.5-1-1.1 1-2.5 1-1 0-1.6-.7-.7-.7-.7-1.6 0-1 .7-1.6.6-.7 1.8-1.1l2.4-.9v-.5q0-1.7-1.7-1.7-1.6 0-3 1.6v-2q1-1.3 3.1-1.3 1.5 0 2.5.8.3.2.5.7.3.4.3.8l.1 1.6zm-1.8 3.8v-2.8l-1.3.5q-1 .4-1.3.8-.4.4-.4 1 0 .5.3.9.4.4 1 .4 1 0 1.7-.8zm215-11.4h2V25h-2.1V13.8l-4.4 5.6h-.4l-4.5-5.6V25h-2V10.6h2l4.7 6 4.7-6zm9.3 4.9q2.1 0 3.5 1.4 1.5 1.4 1.5 3.5 0 2-1.5 3.4-1.4 1.3-3.6 1.3-2.1 0-3.6-1.3-1.4-1.4-1.4-3.5 0-2 1.4-3.4 1.5-1.4 3.7-1.4zm-.1 1.7q-1.4 0-2.3.9-.8.9-.8 2.2 0 1.4.9 2.2.9.9 2.2.9 1.4 0 2.3-.9.9-.8.9-2.2 0-1.3-1-2.2-.9-.9-2.2-.9zm13.4-6.6h1.9V25h-4q-2.1 0-3.3-1.4-1.3-1.3-1.3-3.5 0-2 1.3-3.4t3.4-1.4q.9 0 2 .4v-5zm0 12.8v-6q-.9-.4-1.8-.4-1.4 0-2.2.9-.8.9-.8 2.4t.7 2.3q.4.4 1 .6.4.2 1.7.2h1.4zm5.4-11.8q.4 0 .8.3.3.3.3.8 0 .4-.3.7-.4.4-.8.4-.5 0-.8-.4-.3-.3-.3-.7 0-.5.3-.8.3-.3.8-.3zm-1 4h2V25h-2v-9.5zm4.8-.1V15q0-2.3 1-3.4t2.3-1.1l1.4.1v1.9q-.4-.2-.9-.2-1 0-1.5.6-.4.6-.4 2v.6h1.7v1.7H748V25h-1.9v-7.8H745v-1.7h1.3zm6-3.9q.5 0 .8.3.3.3.3.8 0 .4-.3.7-.3.4-.8.4-.4 0-.7-.4-.4-.3-.4-.7 0-.5.4-.8.3-.3.7-.3zm-.9 4h1.9V25h-1.9v-9.5zm12.6 4.8h-6.6q0 1.4.9 2.2.8.8 2.1.8 1.9 0 3.4-1.2V24q-.8.6-1.7.9-.8.2-2 .2-1.5 0-2.5-.6-1-.7-1.5-1.8-.6-1-.6-2.5 0-2.2 1.2-3.5 1.2-1.3 3.2-1.3 1.9 0 3 1.3 1 1.3 1 3.5v.2zm-6.6-1.1h4.7q0-1.1-.6-1.7-.6-.6-1.6-.6t-1.7.6q-.6.6-.8 1.7zm10.6-3.8v2.2l.1-.2q1.4-2.1 2.7-2.1 1 0 2.2 1l-1 1.7q-1-1-1.8-1-.9 0-1.5.9-.7.9-.7 2v5H766v-9.5h1.9z" font-size="21" font-family="GillSans" fill="#2a86c0"/><path d="M-57-36.5l-.6-.3c-.7-.4-2.2.3-3.3 1.6-1 1.2-1.3 2.6-.5 3l.4.2c.8.4 2.3-.3 3.3-1.5 1.1-1.3 1.4-2.6.6-3"/></svg>