<svg xmlns="http://www.w3.org/2000/svg" viewBox="0, 0, 640, 130" height="130" width="640"><path d="M11 25.2q-1.2 0-2.3-.6-1-.7-1.6-2-.7-1.3-.7-3.2 0-1.9.7-3.2.7-1.2 1.7-1.8 1-.7 2.2-.7 1.2 0 2 .5.8.6 1.2 1.4V9h1.9v.2l-.2.3v14.8l.2.7h-1.7l-.2-.7v-1q-.6 1-1.4 1.4-.8.5-1.8.5zm.2-1.5q1.5 0 2.2-1.1.7-1.2.7-3.1 0-2-.8-3.2-.7-1.1-2.2-1.1-1.5 0-2.2 1-.8 1.1-.8 3 0 2 .8 3.3.8 1.2 2.3 1.2zm12.5 1.6q-1 0-1.8-.5-.8-.4-1.4-1.2l-.6 1.4h-1.1V9h2v.2l-.2.3v6.2q.5-.9 1.3-1.4 1-.5 1.9-.5 2 0 3.3 1.4 1.2 1.4 1.2 4.2 0 1.9-.6 3.2-.7 1.3-1.7 2-1.1.7-2.3.7zm-.2-1.6q1.3 0 2.2-1 .8-1 .8-3.2 0-2.1-.8-3.2-.8-1-2.1-1-1.4 0-2.2 1.2-.9 1.2-.9 3 0 4.2 3 4.2zM35 25.3q-.5 0-1-.4-.3-.5-.3-1 0-.6.4-1t1-.4q.5 0 1 .4.3.4.3 1 0 .5-.4 1-.4.4-1 .4zm11.6 0Q45 25.3 44 24t-1-3.8V14h1.7v6.2q0 2 .6 2.8.7.9 1.9.9t2-1q1-1 1-2.8v-6h1.6v10.2l.2.7h-1.6l-.2-.7v-1q-.6 1-1.5 1.5t-2 .5zm13.5-6.8q2 .7 3 1.4.8.7.8 2 0 1.4-1.2 2.4-1.1 1-3.3 1-2.8 0-4.7-1.8l1-1.6q.8 1 1.5 1.4.8.5 2.2.5 1.3 0 2-.5.8-.4.8-1.3 0-.6-.6-1.1-.6-.5-2.2-1-4.1-1.1-4.1-3.4 0-1.2 1-2 1-.7 3-.7 1.5 0 2.5.4t1.9 1.3l-1 1.2q-.5-.7-1.4-1.2-1-.4-2-.4t-1.6.3q-.7.4-.7 1t.7 1.1q.7.5 2.4 1zm2.3-1.7q0-.2.2 0h-.2zm.3 0zm-6.7 5h-.3l.1-.1h.2zm-.3 0zm16.2 3.4q-2.5 0-4-1.4-1.4-1.5-1.4-4.2 0-1.8.7-3.1.7-1.4 1.8-2 1.1-.7 2.6-.7 2 0 3.2 1.3Q76 16.4 76 19v.8h-7.8q0 2 1 3 1.1 1 2.7 1 1.7 0 2.8-1.2l1 1q-1.4 1.6-3.8 1.6zm2.4-6.8q0-1.5-.8-2.4-.8-1-2-1-1.3 0-2.2 1-.8.8-1 2.4h6zm13.3-2.1q-.7-.6-1.2-.8-.5-.2-1.1-.2-.9 0-1.6.4-.8.4-1.3 1.3t-.5 2.2V25h-1.7V14H82v2q.4-1 1.3-1.6 1-.6 2.1-.6 1.8 0 3 1.2l-.8 1.3zm0 0q.1.2 0 .2v-.2zm-.3.1h.2v.1h-.2zm8.8 2.1q2 .7 3 1.4.8.7.8 2 0 1.4-1.2 2.4-1.1 1-3.3 1-2.8 0-4.7-1.8l1-1.6q.8 1 1.5 1.4.8.5 2.2.5 1.3 0 2-.5.8-.4.8-1.3 0-.6-.6-1.1-.6-.5-2.2-1-4.1-1.1-4.1-3.4 0-1.2 1-2 1-.7 3-.7 1.5 0 2.5.4t1.9 1.3l-1 1.2q-.5-.7-1.4-1.2-1-.4-2-.4t-1.6.3q-.7.4-.7 1t.7 1.1q.7.5 2.4 1zm2.3-1.7q0-.2.2 0h-.2zm.3 0zm-6.7 5h-.3l.1-.1h.2zm-.3 0zm15.3 3.5q-.5 0-1-.4-.3-.5-.3-1 0-.6.4-1t1-.4q.5 0 1 .4.3.4.3 1 0 .5-.4 1-.4.4-1 .4zm11.6 0q-1.7 0-2.7-1.3-1-1.3-1-3.8V14h1.7v6.2q0 2 .6 2.8.7.9 1.9.9t2-1q1-1 1-2.8v-6h1.6v10.2l.2.7h-1.6l-.2-.7v-1q-.6 1-1.5 1.5t-2 .5zm8.2-11.3h1.7v2.2q.4-1.2 1.3-1.8.9-.6 2-.6 1.3 0 2.3.6 1.1.7 1.7 2 .6 1.2.6 3 0 1.9-.6 3.2-.6 1.3-1.7 2-1 .7-2.3.7-1 0-1.8-.5-.9-.4-1.4-1.2V29h-1.8V14zm4.7 9.8q1.3 0 2.2-1 1-1 1-3.3 0-2-.8-3.1t-2.3-1.1q-1.4 0-2.2 1.1-.9 1.2-.9 3.5 0 1.9.9 2.9.8 1 2.1 1zm11.5 1.4q-1.2 0-2.3-.6-1-.7-1.6-2-.7-1.3-.7-3.2 0-1.9.7-3.2.7-1.2 1.7-1.8 1-.7 2.2-.7 1.2 0 2 .5.8.6 1.2 1.4V9h1.9v.2l-.2.3v14.8l.2.7h-1.7l-.2-.7v-1q-.6 1-1.4 1.4-.8.5-1.8.5zm.2-1.5q1.5 0 2.2-1.1.7-1.2.7-3.1 0-2-.8-3.2-.7-1.1-2.2-1.1-1.5 0-2.2 1-.8 1.1-.8 3 0 2 .8 3.3.8 1.2 2.3 1.2zm12-9.9q2.3 0 3.6 1.2 1.2 1.2 1.2 4.2V25h-1.9v-1.7q-1 2-3.7 2-1.8 0-2.9-.9-1-.8-1-2.2 0-1.1.8-2 .7-.8 2-1.3 1.2-.5 2.7-.5 1.4 0 2.5.2-.1-1.9-1-2.6-.8-.8-2.4-.8-.8 0-1.6.3t-1.4 1l-.8-1.2q1.5-1.5 3.9-1.5zm-.6 10.1q1.7 0 2.8-1 1-1 1.1-3-1-.2-2.3-.2-1.8 0-3 .6-1 .6-1 1.8 0 1.8 2.4 1.8zm17.4.1q-1.6 1.2-3.5 1.2-1.8 0-2.6-1.1-.7-1.1-.7-3.6V19l.2-3.6H163V14h2.5l.2-2.9 2-.3h.2v.1l-.3.4v.5l-.3 2.2h3.6v1.4h-3.7l-.2 3.8-.1 1.2q0 2 .4 2.7.5.6 1.5.6.7 0 1.3-.2l1.4-.9.5 1.4zm7.9 1.2q-2.5 0-4-1.4-1.4-1.5-1.4-4.2 0-1.8.7-3.1.7-1.4 1.8-2 1.1-.7 2.6-.7 2 0 3.2 1.3 1.2 1.3 1.2 3.9v.8h-7.8q0 2 1 3 1.1 1 2.7 1 1.7 0 2.8-1.2l1 1q-1.4 1.6-3.8 1.6zm2.4-6.8q0-1.5-.8-2.4-.8-1-2-1-1.3 0-2.2 1-.8.8-1 2.4h6zm4 6.6V10h1.3l3.7 7.4 3.8-7.4h1.3v15h-1.6V13.7l-3.2 6h-.7l-3-6V25h-1.6zm16.9-11.2q2.3 0 3.6 1.2 1.2 1.2 1.2 4.2V25h-1.9v-1.7q-1 2-3.7 2-1.8 0-2.9-.9-1-.8-1-2.2 0-1.1.8-2 .7-.8 2-1.3 1.2-.5 2.7-.5 1.4 0 2.5.2-.1-1.9-1-2.6-.8-.8-2.4-.8-.8 0-1.6.3t-1.4 1l-.8-1.2q1.5-1.5 3.9-1.5zm-.6 10.1q1.7 0 2.8-1 1-1 1.1-3-1-.2-2.3-.2-1.8 0-3 .6-1 .6-1 1.8 0 1.8 2.4 1.8zM211 14h1.7v2q.7-1 1.7-1.6 1-.6 2-.6 1.5 0 2.4 1.1.9 1.1.9 3.5V25H218v-6.6q0-1.6-.6-2.4-.5-.7-1.4-.7-.8 0-1.5.4-.8.4-1.3 1.2-.5.8-.5 1.8V25h-1.6V14zm21 0l-.5 2-.8 2.5-2.8 7.7q-.5 1.6-1.4 2.3-.9.7-2.1.7-1.6 0-2.5-1l.7-1.1.9.5q.4.2 1 .2.9 0 1.4-.7.5-.6 1-2l-4.5-11h1.8l3.4 8.7 1.5-4.4.8-2.5.3-1.9h1.8zm-9.1 13h-.2v-.2l.2.1zm-.3 0zm20.2 2.2q-2-1-3.4-2.5-1.5-1.6-2.3-3.6-.8-2-.8-4.1 0-2.1.8-4 .7-2 2.2-3.5 1.5-1.5 3.4-2.5l.4 1.5q-2.3 1.3-3.7 3.6-1.4 2.3-1.4 5t1.4 5q1.4 2.4 3.9 3.6l-.5 1.5z" font-size="24" font-family="Inconsolata" fill="#004571"/><path d="M46.6 25.3Q45 25.3 44 24t-1-3.8V14h1.7v6.2q0 2 .6 2.8.7.9 1.9.9t2-1q1-1 1-2.8v-6h1.6v10.2l.2.7h-1.6l-.2-.7v-1q-.6 1-1.5 1.5t-2 .5zm13.5-6.8q2 .7 3 1.4.8.7.8 2 0 1.4-1.2 2.4-1.1 1-3.3 1-2.8 0-4.7-1.8l1-1.6q.8 1 1.5 1.4.8.5 2.2.5 1.3 0 2-.5.8-.4.8-1.3 0-.6-.6-1.1-.6-.5-2.2-1-4.1-1.1-4.1-3.4 0-1.2 1-2 1-.7 3-.7 1.5 0 2.5.4t1.9 1.3l-1 1.2q-.5-.7-1.4-1.2-1-.4-2-.4t-1.6.3q-.7.4-.7 1t.7 1.1q.7.5 2.4 1zm2.3-1.7q0-.2.2 0h-.2zm.3 0zm-6.8 5h-.2l.1-.1h.1zm-.2 0zm16.2 3.4q-2.5 0-4-1.4-1.4-1.5-1.4-4.2 0-1.8.7-3.1.7-1.4 1.8-2 1.1-.7 2.5-.7 2 0 3.3 1.3Q76 16.4 76 19v.8h-7.8q0 2 1 3 1.1 1 2.7 1 1.7 0 2.8-1.2l1 1q-1.4 1.6-3.8 1.6zm2.4-6.8q0-1.5-.8-2.4-.8-1-2-1-1.3 0-2.2 1-.8.8-1 2.4h6zm13.3-2.1q-.7-.6-1.2-.8-.5-.2-1.1-.2-.9 0-1.6.4-.8.4-1.3 1.3t-.5 2.2V25h-1.7V14H82v2q.4-1 1.3-1.6 1-.6 2.1-.6 1.8 0 3 1.2l-.8 1.3zm0 0q.1.2 0 .2v-.2zm-.3.1h.2v.1h-.2zm8.8 2.1q2 .7 3 1.4.8.7.8 2 0 1.4-1.2 2.4-1.1 1-3.3 1-2.8 0-4.7-1.8l1-1.6q.8 1 1.5 1.4.8.5 2.2.5 1.3 0 2-.5.8-.4.8-1.3 0-.6-.6-1.1-.6-.5-2.2-1-4.1-1.1-4.1-3.4 0-1.2 1-2 1-.7 3-.7 1.5 0 2.5.4t1.9 1.3l-1 1.2q-.5-.7-1.4-1.2-1-.4-2-.4t-1.6.3q-.7.4-.7 1t.7 1.1q.7.5 2.4 1zm2.3-1.7q0-.2.2 0h-.2zm.3 0zm-6.8 5h-.2l.1-.1h.1zm-.2 0zm-47.5 37q-1.8 0-3-.3-1-.4-1.6-1.3-.5-1-.5-2.6l.1-2.4q0-1.5-.5-2-.5-.7-1.6-.7h-.5v-1.3h.5q1 0 1.6-.6.6-.6.6-2V44q0-4.2 4.3-4.2h1.5v1.4h-2Q41 41 41 43.6v1.7q0 2.6-2 3.6 2 .6 2 3.7v2q0 1.6.6 2.2.7.7 2.4.7h1v1.3h-.9zm21-15q2.3 0 3.6 1.2 1.2 1.2 1.2 4.2V55h-1.9v-1.7q-1 2-3.7 2-1.8 0-2.9-.9-1-.8-1-2.2 0-1.1.8-2 .7-.8 2-1.3 1.2-.5 2.7-.5 1.4 0 2.5.2-.1-1.9-1-2.6-.8-.8-2.4-.8-.8 0-1.6.3t-1.4 1l-.8-1.2q1.5-1.5 3.9-1.5zm-.6 10.1q1.7 0 2.8-1 1-1 1.1-3-1-.2-2.3-.2-1.9 0-3 .6-1 .6-1 1.8 0 1.8 2.4 1.8zm18.1-8.7h-.6q-1.1 0-2 .4.5.9.5 1.8 0 1.1-.5 2-.4.9-1.3 1.4-.9.5-2 .5-1 0-1.7-.4-.5.6-.5 1 0 .6.7.9.8.2 2.7.2 2.3 0 3.1.8 1 .6 1 2t-1.2 2.4q-1.2 1-3.6 1-2.4 0-3.7-.8-1.4-.7-1.4-2.1 0-.9.5-1.5t1.2-1q-.7-.5-.7-1.4 0-1 1-2-.7-.6-1-1.3-.3-.8-.3-1.7 0-1 .5-1.9.5-.9 1.3-1.4 1-.5 2-.5 1.8 0 2.9 1.2.5-.6 1.1-.8.7-.3 1.4-.3h.4l.2 1.5zm-6 4.6q1 0 1.8-.7.7-.7.7-1.7t-.7-1.7q-.7-.7-1.7-.7t-1.8.7q-.6.7-.6 1.7t.6 1.7q.7.7 1.8.7zm3.7 6.3q0-.6-.2-1l-.8-.4q-.6-.2-1.8-.2-1.7 0-2.7-.3l-.9.8q-.2.4-.2 1.1 0 .8 1 1.3.9.4 2.5.4t2.3-.4q.8-.5.8-1.3zm9.5-.9q-2.5 0-4-1.4-1.4-1.5-1.4-4.2 0-1.8.7-3.1.7-1.4 1.8-2 1.1-.7 2.5-.7 2 0 3.3 1.3Q94 46.4 94 49v.8h-7.8q0 2 1 3 1.1 1 2.7 1 1.7 0 2.8-1.2l1 1q-1.4 1.6-3.8 1.6zm2.4-6.8q0-1.5-.8-2.4-.8-1-2-1-1.3 0-2.2 1-.8.8-1 2.4h6zm8.7-.8q-.5 0-1-.4-.4-.4-.4-1 0-.5.4-1 .5-.4 1-.4.6 0 1 .5.5.4.5 1 0 .5-.4.9-.5.4-1 .4zm0 7.7q-.6 0-1-.4t-.4-1q0-.6.4-1 .5-.4 1-.4.6 0 1 .4.5.4.5 1 0 .5-.4 1-.5.4-1 .4zm27.2 3.5q-1.8 0-3-.3-1-.4-1.6-1.3-.5-1-.5-2.6l.1-2.4q0-1.5-.5-2-.5-.7-1.6-.7h-.5v-1.3h.5q1 0 1.6-.6.6-.6.6-2V44q0-4.2 4.3-4.2h1.5v1.4h-2q-2.2 0-2.2 2.5v1.7q0 2.6-2 3.6 2 .6 2 3.7v2q0 1.6.6 2.2.7.7 2.4.7h1.2v1.3h-.9zm20.8-4.1q-2.6-.2-4.2-2l1-1.4.1.3v.2q1.2 1.3 3 1.5V48q-1.8-.7-2.8-1.5-.9-1-.9-2.2 0-1.3 1-2.3 1.1-1 2.8-1.2v-1.4h1.5v.2l-.1.3v.9q2.2.2 3.5 1.8l-1 1.3-.1-.2q0-.2-.2-.3-.8-1-2.2-1.2v4.6q2.1.7 3 1.6 1 .8 1 2.3 0 .9-.5 1.7-.5.9-1.4 1.5-1 .6-2.1.7v1.5H149v-1.4zm0-12.5q-1 .1-1.6.6-.6.6-.6 1.3 0 1.4 2.2 2.2v-4.1zm1.4 11q1-.2 1.7-.9t.7-1.5q0-.9-.6-1.4-.5-.5-1.8-1v4.8zm6.8 1.8v-1.4h3.3V40.4h-3.1V39h4.8v14.6h3.2V55h-8.2zm20.8-1q-1.6 1.2-3.5 1.2-1.8 0-2.6-1.1-.7-1.1-.7-3.6V49l.2-3.6H169V44h2.5l.2-2.9 2-.3h.2v.1l-.3.4v.5l-.3 2.2h3.6v1.4h-3.7l-.3 3.8v1.2q0 2 .4 2.7.5.6 1.5.6.7 0 1.3-.2l1.4-.9.5 1.4zm7-6.4q-.5 0-1-.4-.4-.4-.4-1 0-.5.4-1 .5-.4 1-.4.6 0 1 .5.5.4.5 1 0 .5-.4.9-.5.4-1 .4zm0 7.7q-.6 0-1-.4t-.4-1q0-.6.4-1 .5-.4 1-.4.6 0 1 .4.5.4.5 1 0 .5-.4 1-.5.4-1 .4zm23.9-.3V42.1l-3 .9-.5-1 4-2h1.1v15H209zm12.4.2q-1.3 0-2.4-.5-1-.5-1.6-1.4-.5-1-.5-2 0-1.4.8-2.5t2.2-1.7q-1-.6-1.7-1.5-.6-1-.6-2 0-1.7 1-2.7 1-1 3-1t3 1q1 1 1 2.5 0 1-.7 2T223 47q1.3.6 2.1 1.7t.8 2.4q0 1.2-.6 2.1-.5 1-1.6 1.5-1 .5-2.4.5zm.4-8.8q1-.5 1.5-1.3.6-.8.6-1.6 0-1-.6-1.6-.7-.6-1.8-.6t-1.7.6q-.6.6-.6 1.5 0 1 .6 1.6.7.7 2 1.4zm-.3 7.3q1.3 0 2-.7.8-.7.8-1.9 0-1-.9-2-.8-1-2.3-1.4-1 .5-1.8 1.4-.7 1-.7 2t.8 1.9q.8.7 2 .7zm19.3 5.1v-1.3h1.2q1.6 0 2.3-.7.7-.6.7-2.2v-2q0-3 2-3.7-2.1-1-2.1-3.6v-1.7q0-2.5-2.2-2.5h-2v-1.4h1.5q4.4 0 4.4 4.2v1.7q0 1.4.5 2 .6.6 1.7.6h.4v1.3h-.4q-1.1 0-1.7.6-.5.6-.5 2.1l.1 2.4q0 1.7-.5 2.6-.5.9-1.6 1.3-1.2.3-3 .3h-.8zm24 0v-1.3h1.2q1.6 0 2.3-.7.7-.6.7-2.2v-2q0-3 2-3.7-2.1-1-2.1-3.6v-1.7q0-2.5-2.2-2.5h-2v-1.4h1.5q4.4 0 4.4 4.2v1.7q0 1.4.5 2 .6.6 1.7.6h.4v1.3h-.4q-1.1 0-1.7.6-.5.6-.5 2.1l.1 2.4q0 1.7-.5 2.6-.5.9-1.6 1.3-1.2.3-3 .3h-.8zm14.6-.5q.7-.6 1.1-1.3.5-.8.5-1.2l-.2-.4-.4-.4-.5-.5q-.2-.2-.2-.6 0-.6.4-1t1-.4q.7 0 1.2.6t.5 1.4q0 1.9-2.6 4.5l-.8-.7zM43.9 88.8q-1.8 0-3-.3-1-.4-1.6-1.3-.6-1-.5-2.6l.1-2.4q0-1.5-.5-2-.5-.7-1.6-.7h-.5v-1.3h.4q1.2 0 1.7-.6.6-.6.6-2V74q0-4.2 4.3-4.2h1.5v1.4h-2q-2.2 0-2.2 2.5v1.7q0 2.6-2 3.6 2 .6 2 3.7v2q0 1.6.6 2.2.7.7 2.3.7h1.3v1.3h-.9zm20.7-4.1q-2.5-.2-4.2-2l1-1.4.2.3v.2q1.2 1.3 3 1.5V78q-1.9-.7-2.8-1.5-.9-1-.9-2.2 0-1.3 1-2.3 1-1 2.7-1.2v-1.4h1.6v.2l-.2.3v.9q2.3.2 3.6 1.8l-1 1.3-.2-.2v-.3q-.9-1-2.4-1.2v4.6q2.2.7 3.1 1.6 1 .8 1 2.3 0 .9-.6 1.7-.4.9-1.4 1.5-.9.6-2 .7v1.5h-1.5v-1.4zm0-12.5q-1 .1-1.6.6-.5.6-.5 1.3 0 1.4 2.1 2.2v-4.1zm1.4 11q1.2-.2 1.8-.9.7-.7.7-1.5 0-.9-.6-1.4-.5-.5-1.9-1v4.8zm11.8-4.7q2 .7 2.9 1.4.9.7.9 2 0 1.4-1.2 2.4t-3.4 1q-2.8 0-4.6-1.8l1-1.6q.7 1 1.5 1.4.8.5 2.2.5 1.3 0 2-.5.8-.4.8-1.3 0-.6-.6-1.1-.6-.5-2.2-1-4.1-1.1-4.1-3.4 0-1.2 1-2 1-.7 3-.7 1.5 0 2.5.4t1.9 1.3l-1 1.2q-.5-.7-1.5-1.2-.9-.4-1.9-.4-1 0-1.7.3-.6.4-.6 1t.7 1.1q.6.5 2.4 1zm2.3-1.7q0-.2.2 0H80zm.3 0h-.1zm-6.8 5h-.2v-.1h.2zm-.2 0h-.1.1zm16.1 3.4q-2.4 0-3.9-1.4-1.4-1.5-1.4-4.2 0-1.8.6-3.1.7-1.4 1.8-2 1.2-.7 2.6-.7 2 0 3.2 1.3 1.3 1.3 1.3 3.9v.8h-7.9q.1 2 1.2 3 1 1 2.6 1 1.7 0 2.8-1.2l1 1q-1.4 1.6-3.9 1.6zm2.4-6.8q0-1.5-.8-2.4-.7-1-2-1-1.2 0-2 1-1 .8-1.2 2.4h6zm13.8 5.6q-1.6 1.2-3.5 1.2-1.8 0-2.6-1.1t-.8-3.6V79l.3-3.6h-2.4V74h2.5l.2-2.9 1.9-.3h.2v.1l-.2.4-.1.5-.3 2.2h3.7v1.4h-3.8l-.2 3.8v1.2q0 2 .4 2.7.5.6 1.4.6.8 0 1.4-.2l1.3-.9.6 1.4zm7-6.4q-.5 0-1-.4-.4-.4-.4-1 0-.5.4-1 .4-.4 1-.4t1 .5q.5.4.5 1 0 .5-.5.9-.4.4-1 .4zm0 7.7q-.6 0-1-.4t-.4-1q0-.6.4-1t1-.4q.6 0 1 .4.5.4.5 1 0 .5-.5 1-.4.4-1 .4zm27.2 3.5q-1.8 0-3-.3-1-.4-1.6-1.3-.6-1-.5-2.6l.1-2.4q0-1.5-.5-2-.5-.7-1.6-.7h-.5v-1.3h.4q1.2 0 1.7-.6.6-.6.6-2V74q0-4.2 4.3-4.2h1.5v1.4h-2q-2.2 0-2.2 2.5v1.7q0 2.6-2 3.6 2 .6 2 3.7v2q0 1.6.6 2.2.7.7 2.3.7h1.3v1.3h-.9zm21.9-10.3q2 .7 2.9 1.4.9.7.9 2 0 1.4-1.2 2.4t-3.4 1q-2.8 0-4.6-1.8l1-1.6q.7 1 1.5 1.4.8.5 2.2.5 1.3 0 2-.5.8-.4.8-1.3 0-.6-.6-1.1-.6-.5-2.2-1-4.1-1.1-4.1-3.4 0-1.2 1-2 1-.7 3-.7 1.5 0 2.5.4t1.9 1.3l-1 1.2q-.5-.7-1.5-1.2-.9-.4-1.9-.4-1 0-1.7.3-.6.4-.6 1t.7 1.1q.6.5 2.4 1zm2.3-1.7q0-.2.2 0h-.2zm.3 0h-.1zm-6.8 5h-.2v-.1h.2zm-.2 0h-.1.1zm20.3 2.2q-1.6 1.2-3.5 1.2-1.8 0-2.6-1.1t-.8-3.6V79l.3-3.6h-2.4V74h2.5l.2-2.9 1.9-.3h.2v.1l-.2.4-.1.5-.3 2.2h3.7v1.4h-3.8l-.2 3.8v1.2q0 2 .4 2.7.5.6 1.4.6.8 0 1.4-.2l1.3-.9.6 1.4zm7.2-10.2q2.3 0 3.5 1.2 1.3 1.2 1.3 4.2V85h-1.9v-1.7q-1 2-3.7 2-1.9 0-2.9-.9-1-.8-1-2.2 0-1.1.7-2 .8-.8 2-1.3 1.3-.5 2.8-.5 1.4 0 2.5.2-.2-1.9-1-2.6-.8-.8-2.5-.8-.8 0-1.5.3-.8.3-1.4 1l-.9-1.2q1.6-1.5 4-1.5zm-.7 10.1q1.8 0 2.8-1 1-1 1.2-3-1.1-.2-2.4-.2-1.8 0-2.8.6-1.1.6-1.1 1.8 0 1.8 2.3 1.8zm17.5.1q-1.6 1.2-3.5 1.2-1.8 0-2.6-1.1t-.8-3.6V79l.3-3.6h-2.4V74h2.5l.2-2.9 1.9-.3h.2v.1l-.2.4-.1.5-.3 2.2h3.7v1.4h-3.8l-.2 3.8v1.2q0 2 .4 2.7.5.6 1.4.6.8 0 1.4-.2l1.3-.9.6 1.4zm6.6 1.3q-1.7 0-2.8-1.3-1-1.3-1-3.8V74h1.7v6.2q0 2 .7 2.8.7.9 1.8.9 1.3 0 2.1-1 .9-1 .9-2.8v-6h1.7v10.2l.2.7H212l-.3-.7v-1q-.5 1-1.4 1.5-1 .5-2 .5zm13.5-6.8q2 .7 2.9 1.4.9.7.9 2 0 1.4-1.2 2.4t-3.4 1q-2.8 0-4.6-1.8l1-1.6q.7 1 1.5 1.4.8.5 2.2.5 1.3 0 2-.5.8-.4.8-1.3 0-.6-.6-1.1-.6-.5-2.2-1-4.1-1.1-4.1-3.4 0-1.2 1-2 1-.7 3-.7 1.5 0 2.5.4t1.9 1.3l-1 1.2q-.5-.7-1.5-1.2-.9-.4-1.9-.4-1 0-1.7.3-.6.4-.6 1t.7 1.1q.6.5 2.4 1zm2.3-1.7q0-.2.2 0h-.2zm.3 0h-.1zm-6.8 5h-.2v-.1h.2zm-.2 0h-.1.1zm15.3-4.2q-.5 0-1-.4-.4-.4-.4-1 0-.5.4-1 .4-.4 1-.4t1 .5q.5.4.5 1 0 .5-.5.9-.4.4-1 .4zm0 7.7q-.6 0-1-.4t-.4-1q0-.6.4-1t1-.4q.6 0 1 .4.5.4.5 1 0 .5-.5 1-.4.4-1 .4zM256.2 69l-.1 3-.2 2-.1 1.2h-1.2l-.1-1.1-.2-2v-3h1.9zm3.6 0l-.1 3-.2 2-.1 1.2h-1.2l-.1-1.1-.2-2v-3h1.9zm13.4 7.3q-.7-.6-1.2-.8-.4-.2-1-.2-.9 0-1.7.4-.7.4-1.2 1.3t-.5 2.2V85H266V74h1.8v2q.4-1 1.3-1.6 1-.6 2-.6 1.8 0 3 1.2l-.8 1.3zm0 0l.1.2h-.1v-.2zm-.2.1h.2v.1h-.2zm8.5 8.8q-2.4 0-3.9-1.4-1.4-1.5-1.4-4.2 0-1.8.6-3.1.7-1.4 1.8-2 1.2-.7 2.6-.7 2 0 3.2 1.3 1.3 1.3 1.3 3.9v.8h-7.9q.1 2 1.2 3 1 1 2.6 1 1.7 0 2.8-1.2l1 1q-1.4 1.6-3.9 1.6zm2.4-6.8q0-1.5-.8-2.4-.7-1-2-1-1.2 0-2 1-1 .8-1.2 2.4h6zm12-4.4v10.5q0 2.3-1.2 3.5-1.2 1.2-3 1.2-1.1 0-2-.4-1-.4-1.5-1.2l1-1.3q.4.7 1 1 .6.4 1.4.4 1.2 0 1.8-.8.7-.7.7-2.3v-9.2h-4V74h5.8zm-6.5 12.3h-.2v-.1h.2zm-.3 0v-.1.1zm5.7-14.6q-.5 0-.8-.3-.4-.4-.4-.9t.4-.9q.3-.3.8-.3.6 0 1 .3.3.4.3.9t-.4.9q-.3.3-.9.3zm10.7 13.5q-2.4 0-3.9-1.4-1.4-1.5-1.4-4.2 0-1.8.6-3.1.7-1.4 1.8-2 1.2-.7 2.6-.7 2 0 3.2 1.3 1.3 1.3 1.3 3.9v.8h-7.9q.1 2 1.2 3 1 1 2.6 1 1.7 0 2.8-1.2l1 1q-1.4 1.6-3.9 1.6zm2.4-6.8q0-1.5-.8-2.4-.7-1-2-1-1.2 0-2 1-1 .8-1.2 2.4h6zm10.1 5.3q1.6 0 2.8-1.3l1 1.1q-1.6 1.8-4 1.8-1.5 0-2.8-.8-1.2-.7-2-2-.7-1.3-.7-3 0-1.6.7-2.9.8-1.3 2-2 1.3-.8 2.8-.8 1.3 0 2.4.6 1.1.5 1.8 1.5l-1.1 1q-.7-.9-1.5-1.2-.7-.4-1.8-.4-1 0-1.7.5-.8.5-1.3 1.4-.5 1-.5 2.2 0 1.2.5 2.2.5 1 1.4 1.6.9.5 2 .5zm2.6-6.7q0-.2.2 0h-.2zm.3 0q0 .1 0 0zm12.8 7q-1.6 1.2-3.5 1.2-1.8 0-2.6-1.1t-.8-3.6V79l.3-3.6h-2.4V74h2.5l.2-2.9 1.9-.3h.2v.1l-.2.4-.1.5-.3 2.2h3.7v1.4h-3.8l-.2 3.8v1.2q0 2 .4 2.7.5.6 1.4.6.8 0 1.4-.2l1.3-.9.6 1.4zm6.5-15l-.1 3-.2 2-.1 1.2h-1.2l-.1-1.1-.2-2v-3h1.9zm3.6 0l-.1 3-.2 2-.1 1.2h-1.2l-.1-1.1-.2-2v-3h1.9zm16.5 19.8v-1.3h1.2q1.7 0 2.4-.7.7-.6.7-2.2l-.1-2q0-3 2-3.7-2-1-2-3.6v-1.7q0-2.5-2.2-2.5h-2v-1.4h1.5q4.4 0 4.4 4.2v1.7q0 1.4.5 2 .5.6 1.7.6h.4v1.3h-.5q-1 0-1.6.6-.5.6-.5 2.1v2.4q.1 1.7-.4 2.6-.5.9-1.7 1.3-1 .3-3 .3h-.8zm24 0v-1.3h1.2q1.7 0 2.4-.7.7-.6.7-2.2l-.1-2q0-3 2-3.7-2-1-2-3.6v-1.7q0-2.5-2.2-2.5h-2v-1.4h1.5q4.4 0 4.4 4.2v1.7q0 1.4.5 2 .5.6 1.7.6h.4v1.3h-.5q-1 0-1.6.6-.5.6-.5 2.1v2.4q.1 1.7-.4 2.6-.5.9-1.7 1.3-1 .3-3 .3h-.8z" font-size="24" font-family="Inconsolata" fill="#3299cc"/><path d="M7.7 117.7q2.5-1.2 3.9-3.6 1.4-2.3 1.4-5t-1.4-5q-1.4-2.3-3.7-3.6l.4-1.5q2 1 3.4 2.5 1.5 1.5 2.3 3.4.7 2 .7 4.1 0 2.1-.8 4.1-.8 2-2.3 3.6-1.4 1.6-3.4 2.5l-.5-1.5z" font-size="24" font-family="Inconsolata" fill="#004069"/><path d="M480 19.5l-65-.3" stroke="#6cb340" stroke-width="2" fill="none"/><path d="M415 12l-10 7.4 10 7.6z" fill="#6cb340"/><path d="M415 12l-10 7.4 10 7.6z" stroke="#6cb340" stroke-width="2" fill="none"/><path d="M499.6 22.5v2q-1.6.7-3.1.7-2.6 0-4-1.5-1.6-1.5-1.6-4 0-2.6 1.5-4.1 1.4-1.6 3.8-1.6.9 0 1.5.2.7.1 1.7.6V17q-1.7-1-3-1-1.5 0-2.4 1-1 1-1 2.6t1 2.6q1 1 2.8 1 1.2 0 2.8-.7zm7.6-8.3q2.4 0 4 1.6 1.7 1.6 1.7 4 0 2.3-1.7 3.9-1.6 1.5-4.1 1.5-2.5 0-4-1.6-1.7-1.5-1.7-3.9t1.6-4q1.7-1.5 4.2-1.5zm-.1 2q-1.6 0-2.6 1t-1 2.5q0 1.5 1 2.5t2.6 1q1.6 0 2.6-1t1-2.5q0-1.6-1-2.6t-2.6-1zm8.2-7.6h2.1V25h-2.1V8.6zm5.3 0h2.1V25h-2.1V8.6zM535 19.8h-7.6q.1 1.5 1 2.5 1 .9 2.5.9 2.1 0 4-1.3v2q-1 .7-2 1-1 .3-2.3.3-1.8 0-2.9-.8-1-.7-1.7-2-.7-1.2-.7-2.8 0-2.5 1.4-4 1.4-1.6 3.6-1.6t3.4 1.5q1.3 1.5 1.3 4v.3zm-7.5-1.3h5.4q0-1.3-.8-2-.6-.6-1.8-.6-1.1 0-1.9.7-.7.6-1 2zm17.9 4v2q-1.6.7-3.1.7-2.6 0-4-1.5-1.6-1.5-1.6-4 0-2.6 1.5-4.1 1.4-1.6 3.8-1.6.9 0 1.5.2.7.1 1.7.6V17q-1.7-1-3-1-1.5 0-2.4 1-1 1-1 2.6t1 2.6q1 1 2.8 1 1.2 0 2.8-.7zm.9-6.5l4-4v2.2h3.4v2h-3.4v5.2q0 1.9 1.5 1.9 1.2 0 2.5-.8v2q-1.3.7-2.7.7-1.5 0-2.5-.9l-.5-.5-.3-.9-.1-2v-4.8h-1.9V16zM557 9.7q.5 0 .8.3.4.4.4 1 0 .5-.4.8-.3.4-.9.4-.5 0-.8-.4-.4-.4-.4-.9t.4-.8q.3-.4.8-.4zm-1.1 4.5h2.1V25h-2.1V14.2zm10.3 0q2.5 0 4.1 1.6 1.6 1.6 1.6 4 0 2.3-1.6 3.9-1.7 1.5-4.2 1.5-2.4 0-4-1.6-1.6-1.5-1.6-3.9t1.6-4q1.6-1.5 4.1-1.5zm0 2q-1.6 0-2.6 1t-1 2.5q0 1.5 1 2.5t2.6 1q1.6 0 2.6-1t1-2.5q0-1.6-1-2.6-1.1-1-2.7-1zm10.2-2v1.4q1.5-1.6 3.3-1.6 1 0 1.8.5 1 .6 1.4 1.5.4.9.4 2.8V25h-2.1v-6.1q0-1.7-.5-2.4t-1.7-.7q-1.5 0-2.6 1.5V25h-2.2V14.2h2.2z" font-size="24" font-family="GillSans" fill="#3299cc"/><path d="M480 49.8h-65" stroke="#6cb340" stroke-width="2" fill="none"/><path d="M415 42.5l-10 7.4 10 7.6z" fill="#6cb340"/><path d="M415 42.5l-10 7.4 10 7.6z" stroke="#6cb340" stroke-width="2" fill="none"/><path d="M498.4 55v-1.4q-.7.8-1.6 1.2-.8.4-1.7.4-1 0-1.9-.5-.9-.5-1.3-1.4-.4-.9-.4-3v-6h2.1v6q0 1.8.5 2.5.5.6 1.7.6 1.5 0 2.6-1.5v-7.7h2.1V55h-2.1zm5 5.5V44.2h3.7q2.9 0 4.5 1.4 1.6 1.5 1.6 4t-1.5 4q-1.5 1.6-3.9 1.6-1 0-2.2-.5v5.8h-2.2zm3.7-14.3h-1.5v6.6q1 .5 2 .5 1.5 0 2.5-1t1-2.7q0-1-.5-1.8-.5-.9-1.3-1.2-.7-.4-2.2-.4zm15.6-7.6h2.2V55h-4.6q-2.4 0-3.8-1.5t-1.4-4q0-2.4 1.4-4 1.5-1.5 3.9-1.5 1 0 2.3.4v-5.8zm0 14.6v-6.9q-1-.5-2-.5-1.6 0-2.6 1-.9 1.1-.9 2.9 0 1.7.8 2.6.5.5 1 .7.6.2 2 .2h1.7zm11.8-4.7v4.6q0 .6.4.6t1.2-.6v1.3l-1.2.6q-.4.2-.9.2-1.4 0-1.6-1-1.4 1-2.9 1-1.1 0-1.9-.8-.7-.7-.7-1.8 0-1 .7-1.9.7-.8 2-1.2l2.8-1V48q0-1.9-2-1.9-1.7 0-3.3 1.8v-2.3q1.2-1.5 3.6-1.5 1.7 0 2.8 1l.6.7q.3.5.3 1l.1 1.8zm-2 4.4v-3.2l-1.5.5q-1.1.5-1.6.9-.4.4-.4 1 0 .8.4 1.2.5.4 1.1.4 1 0 2-.8zm4-6.9l4-4v2.2h3.4v2h-3.4v5.2q0 1.9 1.5 1.9 1.2 0 2.5-.8v2q-1.3.7-2.7.7-1.5 0-2.5-.9l-.5-.5-.3-.9-.1-2v-4.8h-1.9V46zm18.7 3.8h-7.6q.1 1.5 1 2.5 1 .9 2.5.9 2.1 0 4-1.3v2q-1 .7-2 1-1 .3-2.3.3-1.8 0-2.9-.8-1-.7-1.7-2-.7-1.2-.7-2.8 0-2.5 1.4-4 1.4-1.6 3.6-1.6t3.4 1.5q1.3 1.5 1.3 4v.3zm-7.5-1.3h5.4q0-1.3-.8-2-.6-.6-1.8-.6-1.1 0-1.9.7-.7.6-1 2zm16.7-4.3v-.6q0-2.6 1.1-3.9 1.1-1.3 2.7-1.3l1.6.2v2.1l-1-.2q-1.3 0-1.8.7t-.5 2.4v.6h2v2h-2V55h-2v-8.9h-1.6v-1.9h1.5zm6.9-4.5q.5 0 .9.3.3.4.3 1 0 .5-.3.8-.4.4-1 .4-.4 0-.8-.4t-.4-.9q0-.5.4-.8.4-.4.9-.4zm-1 4.5h2V55h-2V44.2zm5.2-5.6h2.1V55h-2.1V38.6zm3.7 7.4l4-4v2.2h3.4v2h-3.4v5.2q0 1.9 1.5 1.9 1.2 0 2.5-.8v2q-1.3.7-2.7.7-1.5 0-2.4-.9-.4-.2-.6-.5l-.3-.9-.1-2v-4.8h-1.9V46zm18.8 3.8h-7.7q.1 1.5 1 2.5 1 .9 2.5.9 2.1 0 4-1.3v2q-1 .7-2 1-1 .3-2.3.3-1.8 0-2.9-.8-1-.7-1.7-2-.7-1.2-.7-2.8 0-2.5 1.4-4 1.4-1.6 3.6-1.6t3.4 1.5q1.3 1.5 1.3 4v.3zm-7.6-1.3h5.4q0-1.3-.8-2-.6-.6-1.8-.6-1.1 0-1.9.7-.7.6-1 2zm12.1-4.3v2.5l.1-.2q1.6-2.5 3.1-2.5 1.2 0 2.5 1.2l-1 1.9q-1.2-1-2.2-1-1 0-1.8 1-.7 1-.7 2.3V55h-2.1V44.2h2.1z" font-size="24" font-family="GillSans" fill="#3299cc"/><path d="M480.8 79.5l-65-.2" stroke="#6cb340" stroke-width="2" fill="none"/><path d="M415 72l-10 7.4 10 7.6z" fill="#6cb340"/><path d="M415 72l-10 7.4 10 7.6z" stroke="#6cb340" stroke-width="2" fill="none"/><path d="M500.1 85.1v-1.3q-.6.7-1.5 1.1-.9.4-1.8.4-1 0-1.8-.5-.9-.5-1.3-1.4-.5-.8-.5-2.9v-6.1h2.2v6.1q0 1.7.4 2.4.5.7 1.7.7 1.6 0 2.6-1.5v-7.7h2.2V85H500zm5 5.5V74.4h3.8q2.8 0 4.4 1.4 1.6 1.4 1.6 4 0 2.4-1.5 4-1.5 1.5-3.8 1.5-1 0-2.3-.4v5.7h-2.2zm3.7-14.3h-1.5V83q1 .5 2 .5 1.6 0 2.5-1 1-1.1 1-2.7 0-1.1-.5-2-.4-.7-1.2-1-.8-.5-2.3-.5zm15.7-7.5h2.1V85H522q-2.3 0-3.8-1.5-1.4-1.5-1.4-4 0-2.4 1.5-4 1.5-1.5 3.8-1.5 1.1 0 2.4.5v-5.8zm0 14.5v-6.8q-1-.5-2-.5-1.6 0-2.6 1t-1 2.8q0 1.7.9 2.6.5.5 1 .7.6.2 2 .2h1.7zm11.8-4.6v4.5q0 .6.3.6.4 0 1.3-.6v1.3l-1.2.6q-.4.2-1 .2-1.3 0-1.5-1-1.4 1-3 1-1 0-1.8-.7-.8-.8-.8-2 0-1 .8-1.7.7-.8 2-1.3l2.8-1v-.5q0-2-2-2-1.7 0-3.4 1.8v-2.3q1.3-1.5 3.6-1.5 1.8 0 2.8 1 .4.2.6.7l.4 1v1.9zm-2.1 4.3v-3.2l-1.5.6q-1 .4-1.5.8-.4.5-.4 1.1 0 .7.4 1.1.4.4 1 .4 1.1 0 2-.8zm4.1-7l4-3.9v2.3h3.4v1.9h-3.4v5.3q0 1.8 1.5 1.8 1.1 0 2.4-.8v2q-1.2.7-2.7.7-1.4 0-2.4-.8l-.5-.6-.3-.9q-.2-.5-.2-2v-4.7h-1.8V76zm18.7 4h-7.6q0 1.5 1 2.4 1 .9 2.5.9 2.1 0 3.9-1.3v2q-1 .7-2 1-1 .3-2.2.3-1.8 0-3-.7-1-.8-1.7-2-.6-1.3-.6-3 0-2.4 1.3-4 1.4-1.5 3.7-1.5 2.1 0 3.4 1.5 1.3 1.5 1.3 4v.3zm-7.6-1.3h5.5q-.1-1.3-.8-2-.7-.7-1.8-.7-1.2 0-2 .7-.6.7-.9 2zm23.3 0v4.5q0 .6.4.6t1.2-.6v1.3q-.7.5-1.2.6-.4.2-1 .2-1.3 0-1.5-1-1.4 1-3 1-1 0-1.8-.7-.7-.8-.7-2 0-1 .7-1.7.7-.8 2-1.3l2.8-1v-.5q0-2-2-2-1.7 0-3.3 1.8v-2.3q1.2-1.5 3.5-1.5 1.8 0 2.8 1 .4.2.7.7l.3 1 .1 1.9zm-2.1 4.3v-3.2l-1.4.6q-1.1.4-1.6.8-.4.5-.4 1.1 0 .7.4 1.1.4.4 1.1.4 1 0 1.9-.8zm13.7-.4v2.1q-1.6.6-3.2.6-2.5 0-4-1.5t-1.5-4q0-2.5 1.5-4.1 1.4-1.6 3.8-1.6.8 0 1.5.2l1.6.6v2.3q-1.6-1-3-1t-2.3 1q-1 1-1 2.5 0 1.7 1 2.7 1 1 2.7 1 1.3 0 2.9-.8zm.9-6.6l4-3.9v2.3h3.4v1.9h-3.4v5.3q0 1.8 1.5 1.8 1.2 0 2.4-.8v2q-1.2.7-2.6.7-1.5 0-2.5-.8l-.5-.6-.3-.9-.1-2v-4.7h-2V76zm10.6-6.2q.5 0 1 .4.3.3.3.9 0 .5-.4.9-.4.3-.9.3t-.9-.3q-.3-.4-.3-1 0-.4.3-.8.4-.4.9-.4zm-1 4.6h2V85h-2V74.4zm10.3-.1q2.5 0 4.1 1.6 1.6 1.6 1.6 4 0 2.3-1.6 3.9-1.7 1.5-4.2 1.5-2.4 0-4-1.5-1.7-1.6-1.7-4 0-2.3 1.7-3.9 1.6-1.6 4.1-1.6zm-.1 2q-1.5 0-2.5 1t-1 2.5q0 1.6 1 2.6t2.6 1q1.6 0 2.6-1t1-2.6q0-1.5-1-2.5-1.1-1-2.7-1zm10.3-1.9v1.3q1.4-1.6 3.3-1.6 1 0 1.8.6.9.5 1.3 1.4.5.9.5 2.9v6h-2.1v-6q0-1.7-.5-2.4t-1.7-.7q-1.5 0-2.6 1.5v7.7h-2.2V74.4h2.2z" font-size="24" font-family="GillSans" fill="#3299cc"/></svg>