<svg xmlns="http://www.w3.org/2000/svg" viewBox="0, 0, 640, 100" height="100" width="640"><g font-size="24" font-family="Inconsolata"><path d="M7 25v-1.4h2.9V11.5H7.1V10h7.4v1.5h-3v12.1h3.2V25H6.9zm11.2-15h1.6l6.3 11.1v-11H28v.1l-.1.3V25h-1.4l-6.6-11.8V25h-1.6V10zm18 6.7q2 1 2.9 1.9.8.9.8 2.3 0 1.1-.5 2.1-.6 1-1.7 1.6-1.1.6-2.8.6-2.9 0-4.7-1.9l1-1.5q.6.9 1.6 1.4 1 .5 2.4.5 1.3 0 2.2-.7.9-.8.9-1.8 0-.7-.3-1.2t-1-1l-2.2-1q-2.2-.9-3.1-2-1-1-1-2.4 0-1.7 1.3-2.7 1.2-1 3.3-1 1.2 0 2.3.5 1 .4 1.8 1.3l-.9 1.3q-.7-1-1.5-1.4-.8-.4-2-.4-1.1 0-1.8.7-.7.6-.7 1.5 0 .7.2 1.3.4.5 1.1 1l2.4 1zm2-3.7h.2v.2l-.2-.1zm.3 0q.1.2 0 .1V13zm-7.1 8.7q0 .1-.1 0h-.1.2zm-.3.1q-.1-.2 0 0zM42.4 25V10h9.2v1.5H44v5h6.3V18H44v5.5h7.5V25h-9zm11.9-15h4.5q2.5 0 3.7 1.2 1.2 1.1 1.2 3.1 0 1.3-.8 2.5-.9 1.2-2.2 1.5L64 25h-1.8L59 18.4h-3V25h-1.7V10zm4.7 7q1.5 0 2.3-.8.7-.7.7-1.9t-.8-2q-.7-.7-2.2-.7h-3V17h3zm11 8V11.5h-4.3V10h10.4v1.5h-4.4V25H70zm21 0v-1.4h2.9V11.5h-2.8V10h7.4v1.5h-3v12.1h3.2V25h-7.8zm11.2-15h1.6l6.3 11.1v-11h1.8v.1l-.1.3V25h-1.4l-6.6-11.8V25h-1.6V10zM118 25V11.5h-4.3V10h10.4v1.5h-4.4V25H118zm13 .3q-2.6 0-4-2t-1.4-5.7q0-3.6 1.4-5.6 1.5-2 4-2t4 2q1.4 2 1.4 5.6 0 3.7-1.4 5.7t-4 2zm0-1.5q1.7 0 2.7-1.6 1-1.6 1-4.6 0-2.8-1-4.5-1-1.7-2.7-1.7-1.7 0-2.7 1.7-1 1.7-1 4.5 0 3 1 4.6 1 1.6 2.7 1.6z" fill="#053056"/><path d="M152.3 25.3q-1.7 0-2.8-1.3-1-1.3-1-3.8V14h1.7v6.2q0 2 .7 2.8.7.9 1.8.9 1.3 0 2.1-1 .9-1 .9-2.8v-6h1.7v10.2l.2.7H156l-.3-.7v-1q-.5 1-1.4 1.5-1 .5-2 .5zm13.5-6.8q2 .7 2.9 1.4.9.7.9 2 0 1.4-1.2 2.4t-3.4 1q-2.8 0-4.6-1.8l1-1.6q.7 1 1.5 1.4.8.5 2.2.5 1.3 0 2-.5.8-.4.8-1.3 0-.6-.6-1.1-.6-.5-2.2-1-4.1-1.1-4.1-3.4 0-1.2 1-2 1-.7 3-.7 1.5 0 2.5.4t1.9 1.3l-1 1.2q-.5-.7-1.5-1.2-.9-.4-1.9-.4-1 0-1.7.3-.6.4-.6 1t.7 1.1q.6.5 2.4 1zm2.3-1.7q0-.2.2 0h-.2zm.3 0h-.1zm-6.8 5h-.2v-.1h.2zm-.2 0h-.1.1zm16.1 3.4q-2.4 0-3.9-1.4-1.4-1.5-1.4-4.2 0-1.8.6-3.1.7-1.4 1.8-2 1.2-.7 2.6-.7 2 0 3.2 1.3 1.3 1.3 1.3 3.9v.8h-7.9q.1 2 1.2 3 1 1 2.6 1 1.7 0 2.8-1.2l1 1q-1.4 1.6-3.9 1.6zm2.4-6.8q0-1.5-.8-2.4-.7-1-2-1-1.2 0-2 1-1 .8-1.2 2.4h6zm13.3-2.1q-.7-.6-1.2-.8-.4-.2-1-.2-.9 0-1.7.4-.7.4-1.2 1.3t-.5 2.2V25H186V14h1.8v2q.4-1 1.3-1.6 1-.6 2-.6 1.8 0 3 1.2l-.8 1.3zm0 0l.1.2h-.1v-.2zm-.2.1h.2v.1h-.2zm8.8 2.1q2 .7 2.9 1.4.9.7.9 2 0 1.4-1.2 2.4t-3.4 1q-2.8 0-4.6-1.8l1-1.6q.7 1 1.5 1.4.8.5 2.2.5 1.3 0 2-.5.8-.4.8-1.3 0-.6-.6-1.1-.6-.5-2.2-1-4.1-1.1-4.1-3.4 0-1.2 1-2 1-.7 3-.7 1.5 0 2.5.4t1.9 1.3l-1 1.2q-.5-.7-1.5-1.2-.9-.4-1.9-.4-1 0-1.7.3-.6.4-.6 1t.7 1.1q.6.5 2.4 1zm2.3-1.7q0-.2.2 0h-.2zm.3 0h-.1zm-6.8 5h-.2v-.1h.2zm-.2 0h-.1.1zm-40.9 37.4q-2-1-3.5-2.5-1.5-1.6-2.3-3.6-.8-2-.8-4.1 0-2.1.8-4 .8-2 2.3-3.5 1.4-1.5 3.3-2.5l.5 1.5q-2.4 1.3-3.8 3.6t-1.4 5q0 2.7 1.5 5 1.4 2.4 3.8 3.6l-.4 1.5zM172.7 44h1.7v2q.7-1 1.6-1.6 1-.6 2.1-.6 1.5 0 2.4 1.1.8 1.1.8 3.5V55h-1.6v-6.6q0-1.6-.6-2.4-.5-.7-1.5-.7-.7 0-1.5.4-.7.4-1.2 1.2-.5.8-.5 1.8V55h-1.7V44zm16.2-.2q2.3 0 3.5 1.2 1.3 1.2 1.3 4.2V55h-1.9v-1.7q-1 2-3.7 2-1.9 0-2.9-.9-1-.8-1-2.2 0-1.1.7-2 .8-.8 2-1.3 1.3-.5 2.8-.5 1.4 0 2.5.2-.2-1.9-1-2.6-.8-.8-2.5-.8-.8 0-1.5.3-.8.3-1.4 1l-.9-1.2q1.6-1.5 4-1.5zm-.7 10.1q1.8 0 2.8-1 1-1 1.2-3-1.1-.2-2.4-.2-1.8 0-2.8.6-1.1.6-1.1 1.8 0 1.8 2.3 1.8zM196 44h1.5v1.1q.4-.6 1-1 .6-.3 1.2-.3.7 0 1.3.4.5.5.7 1.2.3-.7 1-1.2.6-.4 1.4-.4 1.1 0 1.7.8.5.7.5 2V55h-1.6v-7.8q0-1.3-.3-1.8-.3-.4-.8-.4-.4 0-.8.4l-.7 1.1q-.2.6-.2 1.3V55h-1.6v-7.6q0-1.4-.3-1.8-.2-.5-1-.5-.3 0-.7.3-.3.3-.6 1-.2.5-.2 1.3V55h-1.6V44zm17.5 11.2q-2.4 0-3.9-1.4-1.4-1.5-1.4-4.2 0-1.8.6-3.1.7-1.4 1.8-2 1.2-.7 2.6-.7 2 0 3.2 1.3 1.3 1.3 1.3 3.9v.8h-7.9q.1 2 1.2 3 1 1 2.6 1 1.7 0 2.8-1.2l1 1q-1.4 1.6-3.9 1.6zm2.4-6.8q0-1.5-.8-2.4-.7-1-2-1-1.2 0-2 1-1 .8-1.2 2.4h6zm7.1 9.9q.6-.6 1-1.3.5-.8.5-1.2l-.1-.4-.4-.4-.5-.5q-.2-.2-.2-.6 0-.6.4-1t1-.4q.7 0 1.1.6.5.6.5 1.4 0 1.9-2.5 4.5l-.8-.7zm25.9-14.5q2.3 0 3.5 1.2 1.3 1.2 1.3 4.2V55h-1.9v-1.7q-1 2-3.7 2-1.9 0-2.9-.9-1-.8-1-2.2 0-1.1.7-2 .8-.8 2-1.3 1.3-.5 2.8-.5 1.4 0 2.5.2-.2-1.9-1-2.6-.8-.8-2.5-.8-.8 0-1.5.3-.8.3-1.4 1l-.9-1.2q1.6-1.5 4-1.5zm-.7 10.1q1.8 0 2.8-1 1-1 1.2-3-1.1-.2-2.4-.2-1.8 0-2.8.6-1.1.6-1.1 1.8 0 1.8 2.3 1.8zm18.2-8.7h-.6q-1.2 0-2 .4.5.9.5 1.8 0 1.1-.5 2-.5.9-1.4 1.4-.8.5-2 .5-.9 0-1.7-.4-.4.6-.4 1 0 .6.7.9.8.2 2.6.2 2.4 0 3.2.8.9.6.9 2t-1.2 2.4q-1.1 1-3.6 1-2.3 0-3.7-.8-1.3-.7-1.3-2.1 0-.9.5-1.5t1.2-1q-.8-.5-.8-1.4 0-1 1-2-.6-.6-.9-1.3-.3-.8-.3-1.7 0-1 .4-1.9.5-.9 1.4-1.4.9-.5 2-.5 1.8 0 2.8 1.2.6-.6 1.2-.8.6-.3 1.4-.3h.4l.2 1.5zm-6 4.6q1 0 1.7-.7t.7-1.7q0-1-.7-1.7-.6-.7-1.7-.7-1 0-1.7.7t-.7 1.7q0 1 .7 1.7t1.7.7zm3.7 6.3q0-.6-.2-1l-.8-.4q-.6-.2-1.8-.2-1.7 0-2.8-.3l-.8.8q-.2.4-.2 1.1 0 .8 1 1.3.8.4 2.5.4 1.5 0 2.3-.4.8-.5.8-1.3zm9.4-.9q-2.4 0-3.9-1.4-1.4-1.5-1.4-4.2 0-1.8.6-3.1.7-1.4 1.8-2 1.2-.7 2.6-.7 2 0 3.2 1.3 1.3 1.3 1.3 3.9v.8h-7.9q.1 2 1.2 3 1 1 2.6 1 1.7 0 2.8-1.2l1 1q-1.4 1.6-3.9 1.6zm2.4-6.8q0-1.5-.8-2.4-.7-1-2-1-1.2 0-2 1-1 .8-1.2 2.4h6zm7.1 9.9q.6-.6 1-1.3.5-.8.5-1.2l-.1-.4-.4-.4-.5-.5q-.2-.2-.2-.6 0-.6.4-1t1-.4q.7 0 1.1.6.5.6.5 1.4 0 1.9-2.5 4.5l-.8-.7zm26.8-9.8q2 .7 2.9 1.4.9.7.9 2 0 1.4-1.2 2.4t-3.4 1q-2.8 0-4.6-1.8l1-1.6q.7 1 1.5 1.4.8.5 2.2.5 1.3 0 2-.5.8-.4.8-1.3 0-.6-.6-1.1-.6-.5-2.2-1-4.1-1.1-4.1-3.4 0-1.2 1-2 1-.7 3-.7 1.5 0 2.5.4t1.9 1.3l-1 1.2q-.5-.7-1.5-1.2-.9-.4-1.9-.4-1 0-1.7.3-.6.4-.6 1t.7 1.1q.6.5 2.4 1zm2.3-1.7q0-.2.2 0h-.2zm.3 0h-.1zm-6.8 5h-.2v-.1h.2zm-.2 0h-.1.1zm20.3 2.2q-1.6 1.2-3.5 1.2-1.8 0-2.6-1.1t-.8-3.6V49l.3-3.6h-2.4V44h2.5l.2-2.9 1.9-.3h.2v.1l-.2.4-.1.5-.3 2.2h3.7v1.4h-3.8l-.2 3.8v1.2q0 2 .4 2.7.5.6 1.4.6.8 0 1.4-.2l1.3-.9.6 1.4zm7.2-10.2q2.3 0 3.5 1.2 1.3 1.2 1.3 4.2V55h-1.9v-1.7q-1 2-3.7 2-1.9 0-2.9-.9-1-.8-1-2.2 0-1.1.7-2 .8-.8 2-1.3 1.3-.5 2.8-.5 1.4 0 2.5.2-.2-1.9-1-2.6-.8-.8-2.5-.8-.8 0-1.5.3-.8.3-1.4 1l-.9-1.2q1.6-1.5 4-1.5zm-.7 10.1q1.8 0 2.8-1 1-1 1.2-3-1.1-.2-2.4-.2-1.8 0-2.8.6-1.1.6-1.1 1.8 0 1.8 2.3 1.8zm17.5.1q-1.6 1.2-3.5 1.2-1.8 0-2.6-1.1t-.8-3.6V49l.3-3.6h-2.4V44h2.5l.2-2.9 1.9-.3h.2v.1l-.2.4-.1.5-.3 2.2h3.7v1.4h-3.8l-.2 3.8v1.2q0 2 .4 2.7.5.6 1.4.6.8 0 1.4-.2l1.3-.9.6 1.4zm6.6 1.3q-1.7 0-2.8-1.3-1-1.3-1-3.8V44h1.7v6.2q0 2 .7 2.8.7.9 1.8.9 1.3 0 2.1-1 .9-1 .9-2.8v-6h1.7v10.2l.2.7H360l-.3-.7v-1q-.5 1-1.4 1.5-1 .5-2 .5zm13.5-6.8q2 .7 2.9 1.4.9.7.9 2 0 1.4-1.2 2.4t-3.4 1q-2.8 0-4.6-1.8l1-1.6q.7 1 1.5 1.4.8.5 2.2.5 1.3 0 2-.5.8-.4.8-1.3 0-.6-.6-1.1-.6-.5-2.2-1-4.1-1.1-4.1-3.4 0-1.2 1-2 1-.7 3-.7 1.5 0 2.5.4t1.9 1.3l-1 1.2q-.5-.7-1.5-1.2-.9-.4-1.9-.4-1 0-1.7.3-.6.4-.6 1t.7 1.1q.6.5 2.4 1zm2.3-1.7q0-.2.2 0h-.2zm.3 0h-.1zm-6.8 5h-.2v-.1h.2zm-.2 0h-.1.1zm24.3 5.9q2.5-1.2 3.9-3.6 1.4-2.3 1.4-5t-1.4-5q-1.4-2.3-3.7-3.6l.4-1.5q2 1 3.4 2.5 1.5 1.5 2.3 3.4.7 2 .7 4.1 0 2.1-.8 4.1-.8 2-2.3 3.6-1.4 1.6-3.4 2.5l-.5-1.5z" fill="#2a86c0"/><path d="M10.7 85.1l-5.1-15h1.8l3.8 11.4L14.8 70h1.7l-5 15.1h-.8zm16.2-.1l-1.5-4.4h-4.8L19 85h-1.6l5.5-15.2h.2L28.6 85H27zM21 79.3h4l-2-5.7-2 5.7zm9.6-9.3h2v.2l-.2.3v13.1h7.1V85h-9V70zM47 85.3q-2.4 0-3.6-1.5-1.2-1.4-1.2-4V70h1.9v.2l-.2.3V80q0 1.9.7 3 .7 1 2.4 1 1.8 0 2.5-1 .8-1.1.8-3.1V70h1.6v9.8q0 2.7-1.3 4.1-1.3 1.4-3.6 1.4zm7.4-.3V70h9.2v1.5H56v5h6.3V78H56v5.5h7.5V85h-9zm17.8-8.3q2 1 2.9 1.9.8.9.8 2.3 0 1.1-.5 2.1-.6 1-1.7 1.6-1.1.6-2.8.6-2.9 0-4.7-1.9l1-1.5q.6.9 1.6 1.4 1 .5 2.4.5 1.3 0 2.2-.7.9-.8.9-1.8 0-.7-.3-1.2t-1-1l-2.2-1q-2.2-.9-3.1-2-1-1-1-2.4 0-1.7 1.3-2.7 1.2-1 3.3-1 1.2 0 2.3.5 1 .4 1.8 1.3l-.9 1.3q-.7-1-1.5-1.4-.8-.4-2-.4-1.1 0-1.8.7-.7.6-.7 1.5 0 .7.2 1.3.4.5 1.1 1l2.4 1zm2-3.7h.2v.2l-.2-.1zm.3 0q.1.2 0 .1V73zm-7.1 8.7q0 .1-.1 0h-.1.2zm-.3.1q-.1-.2 0 0z" fill="#053056"/><path d="M156.5 89.2q-2-1-3.5-2.5-1.5-1.6-2.3-3.6-.8-2-.8-4.1 0-2.1.8-4 .8-2 2.3-3.5 1.4-1.5 3.3-2.5l.5 1.5q-2.4 1.3-3.8 3.6t-1.4 5q0 2.7 1.5 5 1.4 2.4 3.8 3.6l-.4 1.5zM176.2 69l-.1 3-.2 2-.1 1.2h-1.2l-.1-1.1-.2-2v-3h1.9zm3.6 0l-.1 3-.2 2-.1 1.2h-1.2l-.1-1.1-.2-2v-3h1.9zm10 9.5q2 .7 2.9 1.4.9.7.9 2 0 1.4-1.2 2.4t-3.4 1q-2.8 0-4.6-1.8l1-1.6q.7 1 1.5 1.4.8.5 2.2.5 1.3 0 2-.5.8-.4.8-1.3 0-.6-.6-1.1-.6-.5-2.2-1-4.1-1.1-4.1-3.4 0-1.2 1-2 1-.7 3-.7 1.5 0 2.5.4t1.9 1.3l-1 1.2q-.5-.7-1.5-1.2-.9-.4-1.9-.4-1 0-1.7.3-.6.4-.6 1t.7 1.1q.6.5 2.4 1zm2.3-1.7q0-.2.2 0h-.2zm.3 0h-.1zm-6.8 5h-.2v-.1h.2zm-.2 0h-.1.1zm14.9 3.5q-1.7 0-2.8-1.3-1-1.3-1-3.8V74h1.7v6.2q0 2 .7 2.8.7.9 1.8.9 1.3 0 2.1-1 .9-1 .9-2.8v-6h1.7v10.2l.2.7H204l-.3-.7v-1q-.5 1-1.4 1.5-1 .5-2 .5zm13.2-.1q-2.4 0-3.9-1.4-1.4-1.5-1.4-4.2 0-1.8.6-3.1.7-1.4 1.8-2 1.2-.7 2.6-.7 2 0 3.2 1.3 1.3 1.3 1.3 3.9v.8h-7.9q.1 2 1.2 3 1 1 2.6 1 1.7 0 2.8-1.2l1 1q-1.4 1.6-3.9 1.6zm2.4-6.8q0-1.5-.8-2.4-.7-1-2-1-1.2 0-2 1-1 .8-1.2 2.4h6zm8.3-9.4l-.1 3-.2 2-.1 1.2h-1.2l-.1-1.1-.2-2v-3h1.9zm3.6 0l-.1 3-.2 2-.1 1.2h-1.2l-.1-1.1-.2-2v-3h1.9zm7.2 19.3q.6-.6 1-1.3.5-.8.5-1.2l-.1-.4-.4-.4-.5-.5q-.2-.2-.2-.6 0-.6.4-1t1-.4q.7 0 1.1.6.5.6.5 1.4 0 1.9-2.5 4.5l-.8-.7zm21.8-4.6l1.9-2 2.9-3q1-1.2 1.6-2.2.5-1.1.5-2.3 0-1.5-.7-2.1-.7-.7-1.8-.7-1 0-2 .5-.8.4-1 1l-.4.5-.1.3h.2v.2h-.3l-1.2-1q.7-1.4 2-2.2 1.2-.7 2.8-.7 1.9 0 3 1.1 1.3 1.2 1.3 3.1 0 1.3-.7 2.5-.6 1.3-1.6 2.4l-2.7 2.8-1.6 1.6h6.1l.4-.2h.1V85h-8.7v-1.3zm16.6-8.3q1.2 0 2.1.6 1 .6 1.5 1.7t.5 2.5q0 1.5-.5 2.6-.6 1.2-1.6 1.8-1 .6-2.1.6-2.2 0-3.5-1.8-1.2-2-1.2-5.2 0-2.7.7-4.5.6-1.9 1.8-2.9 1.2-1 2.8-1 1.9 0 3.3 1.4l-1 1.2h-.1q-.5-.6-1-.8-.4-.2-1.2-.2-.8 0-1.6.5t-1.4 1.7q-.6 1.3-.6 3.6.5-.9 1.3-1.4.9-.4 1.8-.4zm2.4-2.9q0-.1.2 0v.1h-.2zm.3 0q.1.2 0 .1v-.1zm-2.8 11.3q1.1 0 1.9-1 .7-.9.7-2.5 0-1.2-.4-2-.4-.7-1-1.1-.6-.4-1.2-.4-.9 0-1.6.6-.8.5-1.3 1.4v.7q0 1 .3 2 .4 1 1 1.6.7.7 1.6.7zm9.7 4.5q.6-.6 1-1.3.5-.8.5-1.2l-.1-.4-.4-.4-.5-.5q-.2-.2-.2-.6 0-.6.4-1t1-.4q.7 0 1.1.6.5.6.5 1.4 0 1.9-2.5 4.5l-.8-.7zM308.2 69l-.1 3-.2 2-.1 1.2h-1.2l-.1-1.1-.2-2v-3h1.9zm3.6 0l-.1 3-.2 2-.1 1.2h-1.2l-.1-1.1-.2-2v-3h1.9zm4.6 5h1.8v2.2q.4-1.2 1.2-1.8 1-.6 2.1-.6 1.3 0 2.3.6 1 .7 1.7 2 .6 1.2.6 3 0 1.9-.6 3.2-.7 1.3-1.8 2-1 .7-2.2.7-1 0-1.9-.5-.8-.4-1.4-1.2V89h-1.8V74zm4.8 9.8q1.3 0 2.2-1 1-1 1-3.3 0-2-.9-3.1-.8-1.1-2.2-1.1-1.4 0-2.3 1.1-.8 1.2-.8 3.5 0 1.9.8 2.9t2.2 1zm12.3 1.4q-2.4 0-3.9-1.4-1.4-1.5-1.4-4.2 0-1.8.6-3.1.7-1.4 1.8-2 1.2-.7 2.6-.7 2 0 3.2 1.3 1.3 1.3 1.3 3.9v.8h-7.9q.1 2 1.2 3 1 1 2.6 1 1.7 0 2.8-1.2l1 1q-1.4 1.6-3.9 1.6zm2.4-6.8q0-1.5-.8-2.4-.7-1-2-1-1.2 0-2 1-1 .8-1.2 2.4h6zm4.8-4.4h1.7v2q.7-1 1.6-1.6 1-.6 2.1-.6 1.5 0 2.4 1.1.8 1.1.8 3.5V85h-1.6v-6.6q0-1.6-.6-2.4-.5-.7-1.5-.7-.7 0-1.5.4-.7.4-1.2 1.2-.5.8-.5 1.8V85h-1.7V74zm15.9 11.2q-1.2 0-2.2-.6-1-.7-1.7-2-.6-1.3-.6-3.2 0-1.9.7-3.2.6-1.2 1.7-1.8 1-.7 2.2-.7 1.1 0 2 .5.8.6 1.2 1.4V69h1.8v.2l-.2.3v14.8l.3.7H360l-.2-.7v-1q-.6 1-1.4 1.4-.9.5-1.9.5zm.3-1.5q1.5 0 2.2-1.1.7-1.2.7-3.1 0-2-.8-3.2-.8-1.1-2.3-1.1-1.4 0-2.2 1-.7 1.1-.7 3 0 2 .8 3.3.8 1.2 2.3 1.2zm8.5 1.3v-1.4h2.8v-8.2h-2.7V74h4.4v9.6h2.6V85h-7.1zm3.6-13.3q-.5 0-.9-.3-.3-.4-.3-.9t.3-.9q.3-.3.9-.3.5 0 .8.3.4.4.4.9t-.4.9q-.3.3-.8.3zm7.7 2.3h1.7v2q.7-1 1.6-1.6 1-.6 2.1-.6 1.5 0 2.4 1.1.8 1.1.8 3.5V85h-1.6v-6.6q0-1.6-.6-2.4-.5-.7-1.5-.7-.7 0-1.5.4-.7.4-1.2 1.2-.5.8-.5 1.8V85h-1.7V74zm21.7 1.2h-.6q-1.2 0-2 .4.5.9.5 1.8 0 1.1-.5 2-.5.9-1.4 1.4-.8.5-2 .5-.9 0-1.7-.4-.4.6-.4 1 0 .6.7.9.8.2 2.6.2 2.4 0 3.2.8.9.6.9 2t-1.2 2.4q-1.1 1-3.6 1-2.3 0-3.7-.8-1.3-.7-1.3-2.1 0-.9.5-1.5t1.2-1q-.8-.5-.8-1.4 0-1 1-2-.6-.6-.9-1.3-.3-.8-.3-1.7 0-1 .4-1.9.5-.9 1.4-1.4.9-.5 2-.5 1.8 0 2.8 1.2.6-.6 1.2-.8.6-.3 1.4-.3h.4l.2 1.5zm-6 4.6q1 0 1.7-.7t.7-1.7q0-1-.7-1.7-.6-.7-1.7-.7-1 0-1.7.7t-.7 1.7q0 1 .7 1.7t1.7.7zm3.7 6.3q0-.6-.2-1l-.8-.4q-.6-.2-1.8-.2-1.7 0-2.8-.3l-.8.8q-.2.4-.2 1.1 0 .8 1 1.3.8.4 2.5.4 1.5 0 2.3-.4.8-.5.8-1.3zm8.1-17.1l-.1 3-.2 2-.1 1.2h-1.2l-.1-1.1-.2-2v-3h1.9zm3.6 0l-.1 3-.2 2-.1 1.2h-1.2l-.1-1.1-.2-2v-3h1.9zm17.9 18.7q2.5-1.2 3.9-3.6 1.4-2.3 1.4-5t-1.4-5q-1.4-2.3-3.7-3.6l.4-1.5q2 1 3.4 2.5 1.5 1.5 2.3 3.4.7 2 .7 4.1 0 2.1-.8 4.1-.8 2-2.3 3.6-1.4 1.6-3.4 2.5l-.5-1.5z" fill="#2a86c0"/></g><path d="M452 12v15l-10-7.5 10-7.4z" fill="#5ca831"/><path d="M500 19.9l-48-.2" stroke="#5ca831" stroke-width="2" fill="none"/><path d="M510 16l4-4v2.2h3.4v2H514v5.2q0 1.9 1.5 1.9 1.2 0 2.5-.8v2q-1.3.7-2.7.7-1.5 0-2.5-.9l-.5-.5-.3-.9-.1-2v-4.8H510V16zm16.3 2.5v4.6q0 .6.4.6t1.2-.6v1.3l-1.2.6q-.4.2-.9.2-1.4 0-1.6-1-1.4 1-3 1-1 0-1.8-.8-.7-.7-.7-1.8 0-1 .7-1.9.7-.8 2-1.2l2.8-1V18q0-1.9-2-1.9-1.7 0-3.3 1.8v-2.3q1.2-1.5 3.5-1.5 1.8 0 2.8 1 .4.2.7.7l.3 1 .1 1.8zm-2.1 4.4v-3.2l-1.4.5q-1.1.5-1.6.9-.4.4-.4 1 0 .8.4 1.2.4.4 1.1.4 1 0 1.9-.8zm5.5-14.3h2.1V15q1.4-1 3-1 2 0 3.3 1.5 1.3 1.6 1.3 4 0 2.6-1.5 4.2-1.6 1.5-4.2 1.5l-2.2-.2-1.8-.6V8.6zm2.1 8.4v6q1.1.3 2.3.3 1.4 0 2.3-1 .9-1 .9-2.6t-.9-2.6q-.8-1-2.1-1-1.2 0-2.5 1zm10-8.4h2.2V25h-2.2V8.6zm14.5 11.2h-7.6q0 1.5 1 2.5 1 .9 2.5.9 2.1 0 3.9-1.3v2q-1 .7-2 1-1 .3-2.2.3-1.8 0-3-.8-1-.7-1.7-2-.6-1.2-.6-2.8 0-2.5 1.4-4 1.4-1.6 3.6-1.6 2.1 0 3.4 1.5 1.3 1.5 1.3 4v.3zm-7.6-1.3h5.5q-.1-1.3-.8-2-.7-.6-1.8-.6-1.2 0-2 .7-.6.6-.9 2z" font-size="24" font-family="GillSans" fill="#2a86c0"/><path d="M452 42v15l-10-7.6 10-7.4z" fill="#5ca831"/><path d="M500 50.2l-48-.2" stroke="#5ca831" stroke-width="2" fill="none"/><path d="M519.6 52.5v2q-1.6.7-3.1.7-2.6 0-4-1.5-1.6-1.5-1.6-4 0-2.6 1.5-4.1 1.4-1.6 3.8-1.6.9 0 1.5.2.7.1 1.7.6V47q-1.7-1-3-1-1.5 0-2.4 1-1 1-1 2.6t1 2.6q1 1 2.8 1 1.2 0 2.8-.7zm7.6-8.3q2.4 0 4 1.6 1.7 1.6 1.7 4 0 2.3-1.7 3.9-1.6 1.5-4.1 1.5-2.5 0-4-1.6-1.7-1.5-1.7-3.9t1.6-4q1.7-1.5 4.2-1.5zm-.1 2q-1.6 0-2.6 1t-1 2.5q0 1.5 1 2.5t2.6 1q1.6 0 2.6-1t1-2.5q0-1.6-1-2.6t-2.6-1zm8.2-7.6h2.1V55h-2.1V38.6zM547.4 55v-1.4q-.7.8-1.6 1.2-.8.4-1.7.4-1 0-1.9-.5-.8-.5-1.3-1.4-.4-.9-.4-3v-6h2.1v6q0 1.8.5 2.5.5.6 1.7.6 1.5 0 2.6-1.5v-7.7h2.1V55h-2.1zm14-7.8V55h-2.2v-6q0-1.8-.5-2.5-.4-.7-1.6-.7-.7 0-1.3.3l-1.2 1V55h-2.2V44.2h2.2v1.4q1.6-1.6 3.2-1.6 2 0 3.1 2 1.7-2 3.6-2 1.6 0 2.6 1.1 1 1.2 1 3.5V55H566v-6.4q0-1.3-.6-2-.5-.8-1.6-.8-1.3 0-2.4 1.4zm11.7-3v1.4q1.5-1.6 3.3-1.6 1 0 1.9.5.8.6 1.3 1.5.4.9.4 2.8V55h-2v-6.1q0-1.7-.5-2.4t-1.7-.7q-1.5 0-2.6 1.5V55H571V44.2h2.2zm9.4 10V52q.9.7 1.8 1 1 .4 1.6.4.7 0 1.2-.3.4-.3.4-.8 0-.4-.3-.7-.3-.4-1.3-1-2-1-2.7-1.9-.7-.8-.7-1.8 0-1.2 1-2t2.5-.8q1.6 0 3.2.9v2q-1.9-1.1-3-1.1-.7 0-1 .2-.4.3-.4.7 0 .4.3.7.3.4 1.2.9l.8.4q2.7 1.5 2.7 3.4 0 1.3-1 2.1-1.1.9-2.7.9-1 0-1.7-.2-.8-.2-2-.8z" font-size="24" font-family="GillSans" fill="#2a86c0"/><path d="M452 72v15l-10-7.6 10-7.4z" fill="#5ca831"/><path d="M500 79.8l-48-.2" stroke="#5ca831" stroke-width="2" fill="none"/><path d="M518.1 74.2h2.3l-4.7 11h-.8l-4.8-11h2.3l3 6.7 2.7-6.7zm10.7 4.3v4.6q0 .6.4.6.3 0 1.2-.6v1.3l-1.2.6q-.4.2-1 .2-1.3 0-1.5-1-1.4 1-3 1-1 0-1.8-.8-.8-.7-.8-1.8 0-1 .8-1.9.7-.8 2-1.2l2.8-1V78q0-1.9-2-1.9-1.7 0-3.4 1.8v-2.3q1.3-1.5 3.6-1.5 1.8 0 2.8 1 .4.2.7.7l.3 1v1.8zm-2.1 4.4v-3.2l-1.4.5q-1.1.5-1.6.9-.4.4-.4 1 0 .8.4 1.2.4.4 1.1.4 1 0 1.9-.8zm5.6-14.3h2.2V85h-2.2V68.6zM544.4 85v-1.4q-.6.8-1.5 1.2-.9.4-1.8.4-1 0-1.8-.5-.9-.5-1.3-1.4-.5-.9-.5-3v-6h2.2v6q0 1.8.4 2.4.5.7 1.8.7 1.5 0 2.5-1.5v-7.7h2.2V85h-2.2zm14.4-5.2h-7.6q0 1.5 1 2.5 1 .9 2.5.9 2 0 3.9-1.3v2q-1 .7-2 1-1 .3-2.2.3-1.8 0-3-.8-1-.7-1.7-2-.7-1.2-.7-2.8 0-2.5 1.4-4 1.4-1.6 3.7-1.6 2.1 0 3.4 1.5 1.3 1.5 1.3 4v.3zm-7.6-1.3h5.5q-.1-1.3-.8-2-.7-.6-1.8-.6-1.2 0-2 .7-.7.6-.9 2zm9.3 5.7V82q1 .7 1.9 1 1 .4 1.6.4.6 0 1.1-.3.5-.3.5-.8 0-.4-.3-.7-.3-.4-1.4-1-2-1-2.7-1.9-.6-.8-.6-1.8 0-1.2 1-2t2.5-.8q1.5 0 3.2.9v2q-1.9-1.1-3.1-1.1-.6 0-1 .2-.4.3-.4.7 0 .4.4.7.3.4 1.2.9l.7.4q2.7 1.5 2.7 3.4 0 1.3-1 2.1-1 .9-2.7.9-1 0-1.7-.2l-1.9-.8zm8.3 1l4.7-16.8h1.7l-4.7 16.8h-1.7zm10.5-11v2.5l.1-.2q1.5-2.5 3-2.5 1.3 0 2.6 1.2l-1.1 1.9q-1.1-1-2-1-1.1 0-1.9 1-.7 1-.7 2.3V85H577V74.2h2.2zm11.7 0q2.5 0 4.1 1.6 1.7 1.6 1.7 4 0 2.3-1.7 3.9-1.6 1.5-4.1 1.5-2.5 0-4-1.6-1.7-1.5-1.7-3.9t1.6-4q1.7-1.5 4.2-1.5zm0 2q-1.6 0-2.6 1t-1 2.5q0 1.5 1 2.5t2.6 1q1.6 0 2.6-1t1-2.5q0-1.6-1-2.6t-2.7-1zm21.4-2h2.2l-4.7 11h-.7l-3.2-7.5-3.1 7.5h-.7l-4.8-11h2.3l2.8 6.6 2.7-6.6h1.6l2.7 6.6 2.9-6.6z" font-size="24" font-family="GillSans" fill="#2a86c0"/><path d="M579.3 74.2v2.5l.1-.2q1.5-2.5 3-2.5 1.3 0 2.6 1.2l-1.1 1.9q-1.1-1-2-1-1.1 0-1.9 1-.7 1-.7 2.3V85H577V74.2h2.2zm11.7 0q2.5 0 4.1 1.6 1.7 1.6 1.7 4 0 2.3-1.7 3.9-1.6 1.5-4.1 1.5-2.5 0-4-1.6-1.7-1.5-1.7-3.9t1.6-4q1.7-1.5 4.2-1.5zm0 2q-1.6 0-2.6 1t-1 2.5q0 1.5 1 2.5t2.6 1q1.6 0 2.6-1t1-2.5q0-1.6-1-2.6t-2.7-1zm21.4-2h2.2l-4.7 11h-.7l-3.2-7.5-3.1 7.5h-.7l-4.8-11h2.3l2.8 6.6 2.7-6.6h1.6l2.7 6.6 2.9-6.6z" font-size="24" font-family="GillSans" fill="#2f1d12"/></svg>