<svg xmlns="http://www.w3.org/2000/svg" viewBox="0, 0, 600, 150" height="150" width="600"><g font-size="24" font-family="Inconsolata"><path d="M13.4 28.9q-1.2 0-2.2-.7-1-.6-1.7-2-.7-1.3-.7-3.1 0-2 .7-3.2.7-1.3 1.7-1.9 1-.6 2.3-.6 1 0 1.9.5.8.5 1.3 1.4v-6.6h1.8v.2q-.2.1-.2.3V28l.2.7h-1.7l-.2-.8v-1q-.5 1-1.4 1.5-.8.5-1.8.5zm.2-1.5q1.5 0 2.2-1.2.7-1.2.7-3 0-2-.8-3.2-.7-1.2-2.2-1.2-1.5 0-2.2 1.1-.8 1-.8 2.9 0 2.1.8 3.4.8 1.2 2.3 1.2zM26.1 29q-1 0-1.8-.5T23 27.2l-.6 1.5h-1.1v-16h2v.2q-.2.1-.2.3v6.2q.5-1 1.4-1.4.9-.6 1.8-.6 2 0 3.3 1.5 1.2 1.4 1.2 4.2 0 1.8-.6 3.2-.7 1.3-1.7 2-1 .6-2.3.6zm-.2-1.6q1.3 0 2.2-1 .8-1 .8-3.2t-.8-3.2q-.8-1-2.1-1-1.4 0-2.2 1.1-.9 1.2-.9 3.1 0 4.2 3 4.2zM37.5 29q-.6 0-1-.5-.4-.4-.4-1 0-.5.4-1 .4-.3 1-.3.5 0 1 .4.3.4.3 1 0 .5-.4 1-.4.3-1 .3z" fill="#004571"/><path d="M49 29q-1.7 0-2.7-1.4-1-1.2-1-3.8v-6.1H47v6.1q0 2 .7 2.9.7.8 1.8.8 1.2 0 2-1 1-1 1-2.8v-6H54V28q0 .3.3.7h-1.7l-.2-.8v-1q-.6 1-1.5 1.5t-2 .5zm13.5-6.8q2.1.6 3 1.4.8.7.8 1.9 0 1.5-1.2 2.4-1.1 1-3.3 1-2.8 0-4.7-1.7l1-1.7q.8 1 1.6 1.5t2.1.5q1.3 0 2-.5.8-.5.8-1.3 0-.7-.6-1.1-.6-.5-2.2-1-4-1.2-4-3.4 0-1.3 1-2 1-.8 3-.8 1.4 0 2.4.5 1 .4 2 1.3l-1 1.2q-.6-.8-1.5-1.2-1-.5-1.9-.5-1 0-1.7.4-.7.3-.7 1 0 .6.7 1 .7.6 2.4 1.1zm2.3-1.8q0-.1.2 0v.1h-.2zm.3 0v.1-.1zm-6.7 5H58h.4zm-.3.1v-.1.1zm16.2 3.4q-2.5 0-4-1.5Q69 26 69 23.2q0-1.8.7-3 .7-1.4 1.8-2 1.1-.8 2.6-.8 2 0 3.2 1.3 1.2 1.4 1.2 4v.7h-7.8q0 2 1.1 3 1 1.1 2.6 1.1 1.8 0 2.9-1.2l1 1q-1.5 1.6-4 1.6zm2.4-6.8q0-1.6-.8-2.4-.8-1-2-1-1.3 0-2.1.9-1 .8-1.1 2.5h6zM90 20q-.7-.7-1.2-.9l-1-.2q-1 0-1.7.4-.8.5-1.3 1.4-.4.8-.4 2.1v5.9h-1.8v-11h1.8v2q.4-1 1.3-1.7 1-.6 2.1-.6 1.8 0 3 1.2L90 20zm0 0q.1.1 0 .1V20zm-.3 0h.2v.2l-.2-.1zm8.8 2.2q2.1.6 3 1.4.8.7.8 1.9 0 1.5-1.2 2.4-1.1 1-3.3 1-2.8 0-4.7-1.7l1-1.7q.8 1 1.6 1.5t2.1.5q1.3 0 2-.5.8-.5.8-1.3 0-.7-.6-1.1-.6-.5-2.2-1-4-1.2-4-3.4 0-1.3 1-2 1-.8 3-.8 1.4 0 2.4.5 1 .4 2 1.3l-1 1.2q-.6-.8-1.5-1.2-1-.5-1.9-.5-1 0-1.7.4-.7.3-.7 1 0 .6.7 1 .7.6 2.4 1.1zm2.3-1.8q0-.1.2 0v.1h-.2zm.3 0v.1-.1zm-6.7 5q0 .1-.2 0h.2zm-.3.1v-.1.1z" fill="#3299cc"/><path d="M109.5 29q-.6 0-1-.5-.4-.4-.4-1 0-.5.4-1 .4-.3 1-.3.5 0 1 .4.3.4.3 1 0 .5-.4 1-.4.3-1 .3zm11.5 0q-1.7 0-2.7-1.4-1-1.2-1-3.8v-6.1h1.7v6.1q0 2 .7 2.9.7.8 1.8.8 1.2 0 2-1 1-1 1-2.8v-6h1.6V28q0 .3.3.7h-1.7l-.2-.8v-1q-.6 1-1.5 1.5t-2 .5zm8.2-11.3h1.7v2.1q.4-1.2 1.3-1.8.9-.6 2-.6 1.3 0 2.4.7 1 .6 1.6 1.9.7 1.3.7 3 0 2-.7 3.3-.6 1.3-1.7 2-1 .6-2.3.6-1 0-1.8-.4-.9-.5-1.4-1.3v5.5h-1.8v-15zm4.7 9.7q1.4 0 2.2-1 1-1 1-3.2 0-2-.8-3.2-.8-1-2.3-1-1.4 0-2.2 1-.9 1.2-.9 3.5 0 2 .9 3 .8 1 2.1 1zm11.5 1.5q-1.2 0-2.2-.7-1-.6-1.7-2-.7-1.3-.7-3.1 0-2 .7-3.2.7-1.3 1.7-1.9 1-.6 2.3-.6 1 0 1.9.5.8.5 1.3 1.4v-6.6h1.8v.2q-.2.1-.2.3V28l.2.7h-1.7l-.2-.8v-1q-.5 1-1.4 1.5-.8.5-1.8.5zm.2-1.5q1.5 0 2.2-1.2.7-1.2.7-3 0-2-.8-3.2-.7-1.2-2.2-1.2-1.5 0-2.2 1.1-.8 1-.8 2.9 0 2.1.8 3.4.8 1.2 2.3 1.2zm12-10q2.4 0 3.6 1.3 1.2 1.2 1.2 4.1v5.9h-1.8V27q-1 2-3.8 2-1.8 0-2.8-.9-1-.8-1-2.2 0-1.2.7-2 .7-.9 2-1.3 1.2-.5 2.7-.5l2.5.1q-.1-1.8-1-2.6-.8-.7-2.4-.7-.8 0-1.6.3-.7.3-1.4.9l-.8-1.1q1.5-1.6 4-1.6zm-.6 10.2q1.8 0 2.8-1 1-1 1.1-3-1-.2-2.3-.2-1.8 0-2.9.6-1 .6-1 1.8 0 1.8 2.3 1.8zm17.4 0q-1.6 1.2-3.5 1.2-1.8 0-2.6-1-.7-1.2-.7-3.7v-1.4l.3-3.6h-2.5v-1.4h2.5l.2-3 2-.3h.2v.2l-.3.4v.5l-.3 2.2h3.6V19h-3.7l-.2 3.7V24q0 2 .3 2.6.5.7 1.5.7.7 0 1.3-.3.6-.2 1.4-.8l.5 1.3zm7.9 1.3q-2.5 0-4-1.5-1.4-1.5-1.4-4.2 0-1.8.7-3 .7-1.4 1.8-2 1.1-.8 2.6-.8 2 0 3.2 1.3 1.2 1.4 1.2 4v.7h-7.8q0 2 1.1 3 1 1.1 2.6 1.1 1.8 0 2.9-1.2l1 1q-1.5 1.6-4 1.6zm2.4-6.8q0-1.6-.8-2.4-.8-1-2-1-1.3 0-2.1.9-1 .8-1.1 2.5h6zm12.5 10.7q-2-.9-3.4-2.5-1.5-1.5-2.3-3.5-.8-2-.8-4.1 0-2.2.8-4.1.8-2 2.2-3.5 1.5-1.5 3.4-2.4l.4 1.5q-2.3 1.3-3.7 3.6-1.4 2.3-1.4 5 0 2.6 1.4 5 1.5 2.3 3.9 3.6l-.5 1.4z" fill="#004571"/><path d="M52.7 58.5q-1.9 0-3-.4-1.1-.3-1.7-1.3-.5-.9-.4-2.5v-2.4q0-1.5-.5-2.1-.5-.6-1.6-.6H45v-1.4h.5q1.1 0 1.7-.6.5-.6.5-2v-1.7q0-4.1 4.3-4.1h1.5v1.3h-2q-2.2 0-2.2 2.6V45q0 2.6-2 3.5 2 .7 2 3.7v2q0 1.7.7 2.3.7.6 2.3.6h1.2v1.4h-.8zm20.9-15.1q2.4 0 3.6 1.3 1.2 1.2 1.2 4.1v5.9h-1.8V53q-1 2-3.8 2-1.8 0-2.8-1-1-.8-1-2.2 0-1.2.7-2 .7-.9 2-1.3 1.2-.5 2.7-.5l2.5.1q-.1-1.8-1-2.6-.8-.7-2.4-.7-.8 0-1.6.3-.7.3-1.4.9l-.8-1.1q1.5-1.6 4-1.6zM73 53.6q1.8 0 2.8-1 1-1 1.1-3-1-.2-2.3-.2-1.8 0-2.9.6-1 .6-1 1.8 0 1.8 2.3 1.8zm18.2-8.8h-.7q-1.1 0-1.9.5.4.8.4 1.8t-.5 2q-.4.8-1.3 1.3t-2 .5q-1 0-1.7-.3-.5.5-.5 1 0 .6.8.8.7.3 2.6.3 2.3 0 3.2.7.8.7.8 2 0 1.5-1.1 2.4-1.2 1-3.6 1-2.4 0-3.7-.7-1.3-.8-1.3-2.1 0-1 .4-1.5.5-.7 1.3-1-.8-.5-.8-1.5t1-2q-.6-.5-1-1.3-.3-.7-.3-1.6 0-1 .5-2 .5-.8 1.3-1.3 1-.5 2-.5 1.8 0 2.9 1.1l1.2-.8q.6-.2 1.3-.2h.4l.3 1.4zm-6 4.7q1 0 1.7-.7t.7-1.7q0-1-.7-1.7t-1.7-.7q-1 0-1.8.7-.6.7-.6 1.7t.6 1.7q.7.7 1.8.7zm3.6 6.2q0-.5-.2-.9-.2-.3-.8-.4-.6-.2-1.8-.2-1.7 0-2.7-.3-.6.4-.8.8-.3.4-.3 1 0 .9 1 1.3.9.5 2.5.5t2.4-.5q.7-.4.7-1.3zm9.5-.8q-2.5 0-4-1.5Q93 52 93 49.2q0-1.8.7-3 .7-1.4 1.8-2 1.2-.8 2.6-.8 2 0 3.2 1.3 1.2 1.4 1.2 4v.7h-7.8q0 2 1.1 3 1 1.1 2.6 1.1 1.8 0 2.9-1.2l1 1q-1.5 1.6-4 1.6zm2.4-6.8q0-1.6-.8-2.4-.8-1-2-1-1.3 0-2.1.9-1 .8-1.1 2.5h6zm8.8-.8q-.6 0-1-.4-.5-.5-.5-1 0-.6.5-1 .4-.4 1-.4.5 0 1 .4.4.4.4 1 0 .5-.4 1-.5.4-1 .4zm0 7.6q-.6 0-1-.4-.5-.4-.5-1 0-.5.5-1 .4-.3 1-.3.5 0 1 .4.4.4.4 1 0 .5-.4 1-.4.3-1 .3zm27.2 3.6q-1.9 0-3-.4-1.1-.3-1.7-1.3-.5-.9-.4-2.5v-2.4q0-1.5-.5-2.1-.5-.6-1.6-.6h-.5v-1.4h.5q1.1 0 1.7-.6.5-.6.5-2v-1.7q0-4.1 4.3-4.1h1.5v1.3h-2q-2.2 0-2.2 2.6V45q0 2.6-2 3.5 2 .7 2 3.7v2q0 1.7.7 2.3.7.6 2.3.6h1.2v1.4h-.8zm20.7-4.2q-2.6-.1-4.2-1.9l1-1.4.1.2v.3q1.3 1.2 3 1.4v-5.3q-1.8-.6-2.7-1.5-1-.9-1-2.1 0-1.4 1-2.3 1.1-1 2.8-1.2V39h1.5v.3l-.1.2v1q2.2.2 3.6 1.8l-1 1.3q-.2 0-.2-.2l-.1-.3q-.9-1-2.3-1.2v4.6q2.1.7 3 1.5 1 .9 1 2.3 0 1-.5 1.8t-1.4 1.4q-1 .6-2.1.8v1.5h-1.4v-1.5zm0-12.5q-1 .2-1.6.7-.6.5-.6 1.3 0 1.3 2.2 2.2v-4.2zm1.4 11q1.1-.1 1.8-.8.6-.7.6-1.6 0-.8-.5-1.3-.6-.6-2-1v4.8zm16.4-8h-.7q-1.1 0-1.9.5.4.8.4 1.8t-.5 2q-.4.8-1.3 1.3t-2 .5q-1 0-1.7-.3-.5.5-.5 1 0 .6.8.8.7.3 2.6.3 2.3 0 3.2.7.8.7.8 2 0 1.5-1.1 2.4-1.2 1-3.6 1-2.4 0-3.7-.7-1.3-.8-1.3-2.1 0-1 .4-1.5.5-.7 1.3-1-.8-.5-.8-1.5t1-2q-.6-.5-1-1.3-.3-.7-.3-1.6 0-1 .5-2 .5-.8 1.3-1.3 1-.5 2-.5 1.8 0 2.9 1.1l1.2-.8q.6-.2 1.3-.2h.4l.3 1.4zm-6 4.7q1 0 1.7-.7t.7-1.7q0-1-.7-1.7t-1.7-.7q-1 0-1.8.7-.6.7-.6 1.7t.6 1.7q.7.7 1.8.7zm3.6 6.2q0-.5-.2-.9-.2-.3-.8-.4-.6-.2-1.8-.2-1.7 0-2.7-.3-.6.4-.8.8-.3.4-.3 1 0 .9 1 1.3.9.5 2.5.5t2.4-.5q.7-.4.7-1.3zm13.6-2.1q-1.6 1.2-3.5 1.2-1.8 0-2.6-1-.7-1.2-.7-3.7v-1.4l.3-3.6h-2.5v-1.4h2.6l.1-3 2-.3h.2v.2l-.3.4v.5l-.3 2.2h3.6V45h-3.7l-.2 3.7V50q0 2 .4 2.6.4.7 1.4.7.7 0 1.3-.3.6-.2 1.4-.8l.5 1.3zm7.1-6.3q-.6 0-1-.4-.5-.5-.5-1 0-.6.5-1 .4-.4 1-.4.5 0 1 .4.4.4.4 1 0 .5-.4 1-.5.4-1 .4zm0 7.6q-.6 0-1-.4-.5-.4-.5-1 0-.5.5-1 .4-.3 1-.3.5 0 1 .4.4.4.4 1 0 .5-.4 1-.4.3-1 .3zm23.8-.2v-13l-3 1-.4-1 3.9-2h1.2v15h-1.7zm12.5.2q-1.4 0-2.5-.5-1-.6-1.6-1.5-.5-.9-.5-2 0-1.3.8-2.4.8-1.2 2.2-1.8-1-.5-1.7-1.5-.6-1-.6-2 0-1.6 1-2.6t3-1q2 0 3 1 1 .9 1 2.5 0 1-.7 2t-1.7 1.6q1.3.6 2 1.7.8 1.1.8 2.4 0 1.1-.5 2-.6 1-1.6 1.6-1 .5-2.4.5zm.4-8.8q.8-.5 1.4-1.3.6-.8.6-1.7 0-.9-.6-1.5-.6-.7-1.8-.7-1.1 0-1.7.7-.6.6-.6 1.4 0 1 .7 1.7.6.6 2 1.4zm-.4 7.3q1.3 0 2-.7.8-.8.8-2 0-1-.8-2-.9-.9-2.4-1.3-1 .4-1.8 1.4-.7.9-.7 2 0 1 .8 1.8t2.1.8zm19.2 5.1V57h1.3q1.6 0 2.3-.6.7-.6.7-2.3v-2q0-3 2-3.7-2.1-.9-2.1-3.5v-1.7q0-2.6-2.2-2.6h-2v-1.3h1.6q4.3 0 4.3 4.1v1.8q0 1.3.5 2 .6.5 1.7.5h.5v1.4h-.5q-1.1 0-1.6.6-.6.6-.6 2l.1 2.5q0 1.6-.5 2.5-.5 1-1.6 1.3-1.1.4-3 .4h-.8zm24 0V57h1.3q1.6 0 2.3-.6.7-.6.7-2.3v-2q0-3 2-3.7-2.1-.9-2.1-3.5v-1.7q0-2.6-2.2-2.6h-2v-1.3h1.6q4.3 0 4.3 4.1v1.8q0 1.3.5 2 .6.5 1.7.5h.5v1.4h-.5q-1.1 0-1.6.6-.6.6-.6 2l.1 2.5q0 1.6-.5 2.5-.5 1-1.6 1.3-1.1.4-3 .4h-.8zm14.7-.5q.7-.7 1.1-1.4.5-.7.5-1.2 0-.2-.2-.3 0-.2-.4-.4l-.5-.6q-.2-.2-.2-.5 0-.6.4-1t1-.4q.7 0 1.2.6.5.5.5 1.4 0 1.8-2.6 4.5l-.8-.7z" fill="#3299cc"/><path d="M52.7 84.5q-1.9 0-3-.4-1.1-.3-1.7-1.3-.5-.9-.4-2.5v-2.4q0-1.5-.5-2.1-.5-.6-1.6-.6H45v-1.4h.5q1.1 0 1.7-.6.5-.6.5-2v-1.7q0-4.1 4.3-4.1h1.5v1.3h-2q-2.2 0-2.2 2.6V71q0 2.6-2 3.5 2 .7 2 3.7v2q0 1.7.7 2.3.7.6 2.3.6h1.2v1.4h-.8z" fill="#48a3d1"/><path d="M73.4 80.3q-2.6-.1-4.2-1.9l1-1.4.1.2v.3q1.3 1.2 3 1.4v-5.3q-1.8-.6-2.7-1.5-1-.9-1-2.1 0-1.4 1-2.3 1.1-1 2.8-1.2V65h1.5v.3l-.1.2v1q2.2.2 3.6 1.8l-1 1.3q-.2 0-.2-.2L77 69q-.9-1-2.3-1.2v4.6q2.1.7 3 1.5 1 .9 1 2.3 0 1-.5 1.8t-1.4 1.4q-1 .6-2.1.8v1.5h-1.4v-1.5zm0-12.5q-1 .2-1.6.7-.6.5-.6 1.3 0 1.3 2.2 2.2v-4.2zm1.4 11q1.1-.1 1.8-.8.6-.7.6-1.6 0-.8-.5-1.3-.6-.6-2-1v4.8zm11.7-4.6q2.1.6 3 1.4.8.7.8 1.9 0 1.5-1.2 2.4-1.1 1-3.3 1-2.8 0-4.7-1.7l1-1.7q.8 1 1.6 1.5t2.1.5q1.3 0 2-.5.8-.5.8-1.3 0-.7-.6-1.1-.6-.5-2.2-1-4-1.2-4-3.4 0-1.3 1-2 1-.8 3-.8 1.4 0 2.4.5 1 .4 2 1.3l-1 1.2q-.6-.8-1.5-1.2-1-.5-1.9-.5-1 0-1.7.4-.7.3-.7 1 0 .6.7 1 .7.6 2.4 1.1zm2.3-1.8q0-.1.2 0v.1h-.2zm.3 0v.1-.1zm-6.7 5H82h.4zm-.3.1v-.1.1zm16.2 3.4q-2.5 0-4-1.5Q93 78 93 75.2q0-1.8.7-3 .7-1.4 1.8-2 1.1-.8 2.6-.8 2 0 3.2 1.3 1.2 1.4 1.2 4v.7h-7.8q0 2 1.1 3 1 1.1 2.6 1.1 1.8 0 2.9-1.2l1 1q-1.5 1.6-4 1.6zm2.4-6.8q0-1.6-.8-2.4-.8-1-2-1-1.3 0-2.1.9-1 .8-1.1 2.5h6zm13.7 5.5q-1.6 1.2-3.5 1.2-1.8 0-2.6-1-.7-1.2-.7-3.7v-1.4l.3-3.6h-2.5v-1.4h2.5l.2-3 2-.3h.2v.2l-.3.4v.5l-.3 2.2h3.6V71h-3.7l-.2 3.7V76q0 2 .3 2.6.5.7 1.5.7.7 0 1.3-.3.6-.2 1.4-.8l.5 1.3zm7.1-6.3q-.6 0-1-.4-.5-.5-.5-1 0-.6.5-1 .4-.4 1-.4.5 0 1 .4.4.4.4 1 0 .5-.4 1-.5.4-1 .4zm0 7.6q-.6 0-1-.4-.5-.4-.5-1 0-.5.5-1 .4-.3 1-.3.5 0 1 .4.4.4.4 1 0 .5-.4 1-.4.3-1 .3zm27.2 3.6q-1.9 0-3-.4-1.1-.3-1.7-1.3-.5-.9-.4-2.5v-2.4q0-1.5-.5-2.1-.5-.6-1.6-.6h-.5v-1.4h.5q1.1 0 1.7-.6.5-.6.5-2v-1.7q0-4.1 4.3-4.1h1.5v1.3h-2q-2.2 0-2.2 2.6V71q0 2.6-2 3.5 2 .7 2 3.7v2q0 1.7.7 2.3.7.6 2.3.6h1.2v1.4h-.8zm21.8-10.3q2.1.6 3 1.4.8.7.8 1.9 0 1.5-1.2 2.4-1.1 1-3.3 1-2.8 0-4.7-1.7l1-1.7q.8 1 1.6 1.5t2.1.5q1.3 0 2-.5.8-.5.8-1.3 0-.7-.6-1.1-.6-.5-2.2-1-4-1.2-4-3.4 0-1.3 1-2 1-.8 3-.8 1.4 0 2.4.5 1 .4 2 1.3l-1 1.2q-.6-.8-1.5-1.2-1-.5-1.9-.5-1 0-1.7.4-.7.3-.7 1 0 .6.7 1 .7.6 2.4 1.1zm2.3-1.8q0-.1.2 0v.1h-.2zm.3 0v.1-.1zm-6.7 5h-.3.3zm-.3.1v-.1.1zm20.3 2.1q-1.6 1.2-3.5 1.2-1.8 0-2.6-1-.7-1.2-.7-3.7v-1.4l.3-3.6h-2.5v-1.4h2.5l.2-3 2-.3h.2v.2l-.3.4v.5l-.3 2.2h3.6V71h-3.7l-.2 3.7V76q0 2 .3 2.6.5.7 1.5.7.7 0 1.3-.3.6-.2 1.4-.8l.5 1.3zm7.2-10.2q2.4 0 3.6 1.3 1.2 1.2 1.2 4.1v5.9h-1.8V79q-1 2-3.8 2-1.8 0-2.8-.9-1-.8-1-2.2 0-1.2.7-2 .7-.9 2-1.3 1.2-.5 2.7-.5l2.5.1q-.1-1.8-1-2.6-.8-.7-2.4-.7-.8 0-1.6.3-.7.3-1.4.9l-.8-1.1q1.5-1.6 4-1.6zm-.6 10.2q1.8 0 2.8-1 1-1 1.1-3-1-.2-2.3-.2-1.8 0-2.9.6-1 .6-1 1.8 0 1.8 2.3 1.8zm17.4 0q-1.6 1.2-3.5 1.2-1.8 0-2.6-1-.7-1.2-.7-3.7v-1.4l.3-3.6h-2.5v-1.4h2.5l.2-3 2-.3h.2v.2l-.3.4v.5l-.3 2.2h3.6V71h-3.7l-.2 3.7V76q0 2 .3 2.6.5.7 1.5.7.7 0 1.3-.3.6-.2 1.4-.8l.5 1.3zM217 81q-1.7 0-2.7-1.4-1-1.2-1-3.8v-6.1h1.7v6.1q0 2 .7 2.9.7.8 1.8.8 1.2 0 2-1 1-1 1-2.8v-6h1.6V80q0 .3.3.7h-1.7l-.2-.8v-1q-.6 1-1.5 1.5t-2 .5zm13.5-6.8q2.1.6 3 1.4.8.7.8 1.9 0 1.5-1.2 2.4-1.1 1-3.3 1-2.8 0-4.7-1.7l1-1.7q.8 1 1.6 1.5t2.1.5q1.3 0 2-.5.8-.5.8-1.3 0-.7-.6-1.1-.6-.5-2.2-1-4-1.2-4-3.4 0-1.3 1-2 1-.8 3-.8 1.4 0 2.4.5 1 .4 2 1.3l-1 1.2q-.6-.8-1.5-1.2-1-.5-1.9-.5-1 0-1.7.4-.7.3-.7 1 0 .6.7 1 .7.6 2.4 1.1zm2.3-1.8q0-.1.2 0v.1h-.2zm.3 0v.1-.1zm-6.7 5h-.3.3zm-.3.1v-.1.1zm15.4-4.2q-.6 0-1-.4-.5-.5-.5-1 0-.6.5-1 .4-.4 1-.4.5 0 1 .4.4.4.4 1 0 .5-.4 1-.5.4-1 .4zm0 7.6q-.6 0-1-.4-.5-.4-.5-1 0-.5.5-1 .4-.3 1-.3.5 0 1 .4.4.4.4 1 0 .5-.4 1-.4.3-1 .3zM265 64.7q0 2-.2 3l-.1 2-.2 1.2h-1.1l-.2-1.2-.2-2v-3h2zm3.5 0v3l-.2 2-.2 1.2H267l-.2-1.2-.2-2v-3h2zm13.1 16l-1.5-4.4h-4.8l-1.5 4.4H272l5.6-15.3h.1l5.6 15.3h-1.8zm-5.8-5.7h3.9l-2-5.7-2 5.7zM289 64.7q0 2-.2 3l-.1 2-.2 1.2h-1.1l-.2-1.2-.2-2v-3h2zm3.5 0v3l-.2 2-.2 1.2H291l-.2-1.2-.2-2v-3h2zM309 84.5V83h1.3q1.6 0 2.3-.6.7-.6.7-2.3v-2q0-3 2-3.7-2.1-.9-2.1-3.5v-1.7q0-2.6-2.2-2.6h-2v-1.3h1.6q4.3 0 4.3 4.1v1.8q0 1.3.5 2 .6.5 1.7.5h.5v1.4h-.5q-1.1 0-1.6.6-.6.6-.6 2l.1 2.5q0 1.6-.5 2.5-.5 1-1.6 1.3-1.1.4-3 .4h-.8zm24 0V83h1.3q1.6 0 2.3-.6.7-.6.7-2.3v-2q0-3 2-3.7-2.1-.9-2.1-3.5v-1.7q0-2.6-2.2-2.6h-2v-1.3h1.6q4.3 0 4.3 4.1v1.8q0 1.3.5 2 .6.5 1.7.5h.5v1.4h-.5q-1.1 0-1.6.6-.6.6-.6 2l.1 2.5q0 1.6-.5 2.5-.5 1-1.6 1.3-1.1.4-3 .4h-.8zm14.7-.5q.7-.7 1.1-1.4.5-.7.5-1.2 0-.2-.2-.3 0-.2-.4-.4l-.5-.6q-.2-.2-.2-.5 0-.6.4-1t1-.4q.7 0 1.2.6.5.5.5 1.4 0 1.8-2.6 4.5l-.8-.7z" fill="#3299cc"/><path d="M52.7 110.5q-1.9 0-3-.4-1.1-.3-1.7-1.3-.5-.9-.4-2.5v-2.4q0-1.5-.5-2.1-.5-.6-1.6-.6H45v-1.4h.5q1.1 0 1.7-.6.5-.6.5-2v-1.7q0-4.1 4.3-4.1h1.5v1.3h-2q-2.2 0-2.2 2.6V97q0 2.6-2 3.5 2 .7 2 3.7v2q0 1.7.7 2.3.7.6 2.3.6h1.2v1.4h-.8z" fill="#48a3d1"/><path d="M68.7 95.7h1.5v1q.4-.5 1-.9t1.3-.4q.7 0 1.2.5.6.4.7 1.1.3-.7 1-1.1.7-.5 1.5-.5 1 0 1.6.8.6.8.5 2v8.5h-1.6v-7.8q0-1.4-.2-1.8-.3-.4-.8-.4-.4 0-.9.4-.4.4-.6 1-.3.7-.3 1.3v7.3H73V99q0-1.3-.2-1.8-.3-.5-1-.5-.3 0-.7.4-.4.3-.6.9-.3.6-.3 1.3v7.4h-1.5v-11zM85 107q-1.7 0-2.7-1.4-1-1.2-1-3.8v-6.1H83v6.1q0 2 .7 2.9.7.8 1.8.8 1.2 0 2-1 1-1 1-2.8v-6H90V106q0 .3.3.7h-1.7l-.2-.8v-1q-.6 1-1.5 1.5t-2 .5zm8.6-.3v-1.4H97V92h-3.1v-1.4h4.8v14.6h3.3v1.4h-8.3zm20.8-1.1q-1.6 1.2-3.5 1.2-1.8 0-2.6-1-.7-1.2-.7-3.7v-1.4l.3-3.6h-2.5v-1.4h2.5l.2-3 2-.3h.2v.2l-.3.4v.5l-.3 2.2h3.6V97h-3.7l-.2 3.7v1.3q0 2 .3 2.6.5.7 1.5.7.7 0 1.3-.3.6-.2 1.4-.8l.5 1.3zm3.7 1.1v-1.4h2.9V97h-2.7v-1.4h4.4v9.6h2.6v1.4H118zm3.6-13.3q-.5 0-.8-.4-.4-.3-.4-.8 0-.6.3-1 .4-.3 1-.3.4 0 .8.4t.4.9q0 .5-.4.8-.4.4-.9.4zm11.8 5.9q-.6 0-1-.4-.5-.5-.5-1 0-.6.5-1 .4-.4 1-.4.5 0 1 .4.4.4.4 1 0 .5-.4 1-.5.4-1 .4zm0 7.6q-.6 0-1-.4-.5-.4-.5-1 0-.5.5-1 .4-.3 1-.3.5 0 1 .4.4.4.4 1 0 .5-.4 1-.4.3-1 .3zm28.9-1.3q-1.6 1.2-3.5 1.2-1.8 0-2.6-1-.7-1.2-.7-3.7v-1.4l.3-3.6h-2.5v-1.4h2.5l.2-3 2-.3h.2v.2l-.3.4v.5l-.3 2.2h3.6V97h-3.7l-.2 3.7v1.3q0 2 .3 2.6.5.7 1.5.7.7 0 1.3-.3.6-.2 1.4-.8l.5 1.3zM174 98q-.7-.7-1.2-.9l-1-.2q-1 0-1.7.4-.8.5-1.3 1.4-.4.8-.4 2.1v5.9h-1.8v-11h1.8v2q.4-1 1.3-1.7 1-.6 2.1-.6 1.8 0 3 1.2L174 98zm0 0q.1.1 0 .1V98zm-.3 0h.2v.2l-.2-.1zm7.3 9q-1.7 0-2.7-1.4-1-1.2-1-3.8v-6.1h1.7v6.1q0 2 .7 2.9.7.8 1.8.8 1.2 0 2-1 1-1 1-2.8v-6h1.6V106q0 .3.3.7h-1.7l-.2-.8v-1q-.6 1-1.5 1.5t-2 .5zm13.3-.1q-2.5 0-4-1.5-1.4-1.5-1.4-4.2 0-1.8.7-3 .7-1.4 1.8-2 1.1-.8 2.6-.8 2 0 3.2 1.3 1.2 1.4 1.2 4v.7h-7.8q0 2 1.1 3 1 1.1 2.6 1.1 1.8 0 2.9-1.2l1 1q-1.5 1.6-4 1.6zm2.4-6.8q0-1.6-.8-2.4-.8-1-2-1-1.3 0-2.1.9-1 .8-1.1 2.5h6zm16.3 10.4V109h1.3q1.6 0 2.3-.6.7-.6.7-2.3v-2q0-3 2-3.7-2.1-.9-2.1-3.5v-1.7q0-2.6-2.2-2.6h-2v-1.3h1.6q4.3 0 4.3 4.1v1.8q0 1.3.5 2 .6.5 1.7.5h.5v1.4h-.5q-1.1 0-1.6.6-.6.6-.6 2l.1 2.5q0 1.6-.5 2.5-.5 1-1.6 1.3-1.1.4-3 .4h-.8z" fill="#3299cc"/><path d="M10.5 135.4q2.4-1.3 3.8-3.6 1.5-2.4 1.5-5 0-2.7-1.4-5t-3.8-3.6l.5-1.5q2 1 3.3 2.4 1.5 1.6 2.3 3.5.8 2 .8 4 0 2.2-.8 4.2t-2.3 3.5q-1.5 1.6-3.5 2.5l-.4-1.4z" fill="#004069"/></g><g stroke="#6cb340" stroke-width="2"><path d="M421.8 24.5l-43-.2" fill="none"/><path d="M378.9 20.7l-9.7 3.6 9.6 3.6z" fill="#6cb340"/></g><path d="M445.4 27.1v2.1q-1.7.6-3.2.6-2.5 0-4-1.5t-1.5-4q0-2.5 1.4-4 1.5-1.6 3.9-1.6l1.5.1 1.6.6v2.3q-1.6-1-3-1t-2.3 1q-1 1-1 2.6t1 2.6q1 1 2.7 1 1.3 0 2.9-.8zm7.6-8.2q2.4 0 4 1.5 1.6 1.6 1.6 4t-1.6 4q-1.7 1.4-4.2 1.4-2.4 0-4-1.5-1.7-1.6-1.7-4 0-2.3 1.7-3.9 1.6-1.5 4.1-1.5zm-.2 1.9q-1.5 0-2.5 1t-1 2.5q0 1.6 1 2.6t2.6 1q1.6 0 2.6-1t1-2.6q0-1.5-1-2.5-1.1-1-2.7-1zm8.2-7.5h2.2v16.4H461V13.3zm5.3 0h2.2v16.4h-2.2V13.3zm14.5 11.2h-7.6q0 1.5 1 2.4 1 1 2.5 1 2.1 0 3.9-1.4v2.1q-1 .7-2 1-1 .2-2.2.2-1.8 0-3-.7-1-.8-1.7-2-.6-1.3-.6-2.9 0-2.5 1.3-4 1.4-1.5 3.7-1.5 2.1 0 3.4 1.5 1.3 1.5 1.3 4v.3zm-7.6-1.3h5.5q-.1-1.3-.8-2-.7-.7-1.8-.7-1.2 0-2 .7-.6.7-.9 2zm17.9 3.9v2.1q-1.6.6-3 .6-2.6 0-4.1-1.5-1.5-1.5-1.5-4t1.4-4q1.5-1.6 3.9-1.6l1.5.1 1.6.6v2.3q-1.6-1-3-1t-2.4 1q-.9 1-.9 2.6t1 2.6q1 1 2.7 1 1.3 0 2.8-.8zm.9-6.5l4-4V19h3.5v1.9H496v5.3q0 1.8 1.5 1.8 1.1 0 2.4-.7v2q-1.2.6-2.7.6-1.4 0-2.4-.8l-.5-.6-.3-.8q-.2-.6-.2-2v-4.8H492v-.2zm10.7-6.3q.5 0 .9.4t.4.9q0 .5-.4.9t-1 .4q-.4 0-.8-.4t-.4-1q0-.4.4-.8t.9-.4zm-1 4.6h2v10.8h-2V18.9zm10.3 0q2.4 0 4 1.5 1.7 1.6 1.7 4t-1.6 4q-1.7 1.4-4.2 1.4-2.4 0-4-1.5-1.7-1.6-1.7-4 0-2.3 1.6-3.9 1.7-1.5 4.2-1.5zm-.1 1.9q-1.6 0-2.6 1t-1 2.5q0 1.6 1 2.6t2.7 1q1.5 0 2.5-1t1-2.6q0-1.5-1-2.5t-2.6-1zm10.3-1.9v1.3q1.4-1.5 3.2-1.5 1 0 1.9.5.9.5 1.3 1.4.5 1 .5 2.9v6.2h-2.2v-6.2q0-1.6-.5-2.3-.5-.8-1.7-.8-1.5 0-2.5 1.6v7.7H520V18.9h2.2z" font-size="24" font-family="GillSans" fill="#3299cc"/><g stroke="#6cb340" stroke-width="2"><path d="M421.8 48.5l-43-.2" fill="none"/><path d="M378.9 44.7l-9.7 3.6 9.6 3.6z" fill="#6cb340"/></g><path d="M444.1 55.4V54q-.6.8-1.5 1.2-.9.4-1.8.4-1 0-1.8-.5-.9-.5-1.3-1.4-.5-.9-.5-2.9v-6.2h2.2v6.2q0 1.7.4 2.4.5.6 1.7.6 1.6 0 2.6-1.5v-7.7h2.2v10.8H444zm5 5.6V44.5h3.8q2.8 0 4.4 1.5 1.6 1.4 1.6 4 0 2.4-1.5 4-1.5 1.5-3.8 1.5-1 0-2.3-.4v5.7h-2.2zm3.7-14.4h-1.5v6.7q1 .5 2 .5 1.6 0 2.5-1 1-1.1 1-2.8 0-1-.5-1.8-.4-.8-1.2-1.2-.8-.4-2.3-.4zm15.7-7.6h2.1v16.4H466q-2.3 0-3.8-1.5-1.4-1.5-1.4-4 0-2.4 1.5-4 1.5-1.5 3.8-1.5 1.1 0 2.4.5V39zm0 14.6v-6.8q-1-.5-2-.5-1.6 0-2.6 1t-1 2.8q0 1.7.9 2.6.5.5 1 .7.6.2 2 .2h1.7zm11.8-4.6v4.5q0 .6.3.6.4 0 1.3-.6v1.3l-1.2.6q-.4.2-1 .2-1.3 0-1.5-1-1.4 1-3 1-1 0-1.8-.8-.8-.7-.8-1.8 0-1 .8-1.8.7-.9 2-1.3l2.8-1v-.5q0-2-2-2-1.7 0-3.4 1.8V46q1.3-1.5 3.6-1.5 1.8 0 2.8 1 .4.2.6.7l.4 1V49zm-2.1 4.3V50l-1.5.5q-1 .5-1.5 1-.4.4-.4 1 0 .7.4 1.1.4.4 1 .4 1.1 0 2-.8zm4.1-7l4-3.9v2.2h3.4v2h-3.4v5.2q0 1.9 1.5 1.9 1.1 0 2.4-.8v2q-1.2.7-2.7.7-1.4 0-2.4-.8l-.5-.6-.3-.9q-.2-.5-.2-2v-4.7h-1.8v-.3zm18.7 3.9h-7.6q0 1.6 1 2.5 1 .9 2.5.9 2.1 0 3.9-1.3v2q-1 .7-2 1-1 .3-2.2.3-1.8 0-3-.8-1-.7-1.7-2-.6-1.2-.6-2.8 0-2.5 1.3-4 1.4-1.6 3.7-1.6 2.1 0 3.4 1.5 1.3 1.5 1.3 4v.3zm-7.6-1.3h5.5q-.1-1.2-.8-2-.7-.6-1.8-.6-1.2 0-2 .7-.6.7-.9 2zm24.6 4V55q-1.6.6-3.1.6-2.6 0-4-1.5-1.6-1.5-1.6-4 0-2.6 1.5-4.1 1.5-1.6 3.8-1.6.9 0 1.5.2.7.1 1.7.6v2.3q-1.6-1-3-1-1.5 0-2.4 1-1 1-1 2.5 0 1.7 1 2.6 1 1 2.8 1 1.2 0 2.8-.7zm4.7-8.3v2.5l.1-.2q1.6-2.5 3.1-2.5 1.2 0 2.5 1.2l-1 2q-1.2-1.1-2.1-1.1-1 0-1.8 1t-.8 2.3v5.6h-2.1V44.6h2.1zm8.3-4.5q.6 0 1 .4.3.3.3.9 0 .5-.4.8-.3.4-.9.4-.5 0-.8-.4-.4-.3-.4-.8t.4-1q.3-.3.8-.3zm-1 4.5h2.1v10.8H530V44.6zm3.7 1.7l4-3.9v2.2h3.4v2h-3.4v5.2q0 1.9 1.5 1.9 1.2 0 2.4-.8v2q-1.2.7-2.6.7-1.5 0-2.5-.8l-.5-.6-.3-.9-.1-2v-4.7h-2v-.3zm18.7 3.9h-7.6q0 1.6 1 2.5 1 .9 2.5.9 2.1 0 3.9-1.3v2q-1 .7-2 1-1 .3-2.2.3-1.8 0-2.9-.8-1.1-.7-1.8-2-.6-1.2-.6-2.8 0-2.5 1.4-4 1.4-1.6 3.6-1.6 2.1 0 3.4 1.5 1.3 1.5 1.3 4v.3zm-7.5-1.3h5.4q-.1-1.2-.8-2-.7-.6-1.8-.6-1.2 0-1.9.7t-1 2zm12.1-4.3v2.5-.2q1.6-2.5 3.2-2.5 1.2 0 2.5 1.2l-1.1 2q-1.1-1.1-2-1.1-1.1 0-1.9 1-.7 1-.7 2.3v5.6h-2.2V44.6h2.2zm8.3-4.5q.5 0 1 .4.3.3.3.9 0 .5-.4.8-.4.4-.9.4t-.9-.4q-.3-.3-.3-.8t.3-1q.4-.3.9-.3zm-1 4.5h2v10.8h-2V44.6zm11.9 4.4v4.5q0 .6.4.6t1.2-.6v1.3q-.7.5-1.2.6-.4.2-.9.2-1.3 0-1.6-1-1.4 1-2.9 1-1.1 0-1.9-.8-.7-.7-.7-1.8 0-1 .7-1.8.8-.9 2.1-1.3l2.7-1v-.5q0-2-2-2-1.7 0-3.3 1.8V46q1.2-1.5 3.6-1.5 1.7 0 2.8 1l.6.7q.3.5.3 1l.1 1.8zm-2 4.3V50l-1.5.5q-1 .5-1.5 1-.5.4-.5 1 0 .7.4 1.1.5.4 1.1.4 1 0 2-.8z" font-size="24" font-family="GillSans" fill="#3299cc"/><g stroke="#6cb340" stroke-width="2"><path d="M421.8 75.5l-43-.2" fill="none"/><path d="M378.9 71.7l-9.7 3.6 9.6 3.6z" fill="#6cb340"/></g><path d="M444.1 82.1v-1.3q-.6.7-1.5 1.1-.9.4-1.8.4-1 0-1.8-.5-.9-.5-1.3-1.4-.5-.8-.5-2.9v-6.1h2.2v6.1q0 1.7.4 2.4.5.7 1.7.7 1.6 0 2.6-1.5v-7.7h2.2V82H444zm5 5.5V71.4h3.8q2.8 0 4.4 1.4 1.6 1.4 1.6 4 0 2.4-1.5 4-1.5 1.5-3.8 1.5-1 0-2.3-.4v5.7h-2.2zm3.7-14.3h-1.5V80q1 .5 2 .5 1.6 0 2.5-1 1-1.1 1-2.7 0-1.1-.5-2-.4-.7-1.2-1-.8-.5-2.3-.5zm15.7-7.5h2.1V82H466q-2.3 0-3.8-1.5-1.4-1.5-1.4-4 0-2.4 1.5-4 1.5-1.5 3.8-1.5 1.1 0 2.4.5v-5.8zm0 14.5v-6.8q-1-.5-2-.5-1.6 0-2.6 1t-1 2.8q0 1.7.9 2.6.5.5 1 .7.6.2 2 .2h1.7zm11.8-4.6v4.5q0 .6.3.6.4 0 1.3-.6v1.3l-1.2.6q-.4.2-1 .2-1.3 0-1.5-1-1.4 1-3 1-1 0-1.8-.7-.8-.8-.8-2 0-1 .8-1.7.7-.8 2-1.3l2.8-1v-.5q0-2-2-2-1.7 0-3.4 1.8v-2.3q1.3-1.5 3.6-1.5 1.8 0 2.8 1 .4.2.6.7l.4 1v1.9zm-2.1 4.3v-3.2l-1.5.6q-1 .4-1.5.8-.4.5-.4 1.1 0 .7.4 1.1.4.4 1 .4 1.1 0 2-.8zm4.1-7l4-3.9v2.3h3.4v1.9h-3.4v5.3q0 1.8 1.5 1.8 1.1 0 2.4-.8v2q-1.2.7-2.7.7-1.4 0-2.4-.8l-.5-.6-.3-.9q-.2-.5-.2-2v-4.7h-1.8V73zm18.7 4h-7.6q0 1.5 1 2.4 1 .9 2.5.9 2.1 0 3.9-1.3v2q-1 .7-2 1-1 .3-2.2.3-1.8 0-3-.7-1-.8-1.7-2-.6-1.3-.6-3 0-2.4 1.3-4 1.4-1.5 3.7-1.5 2.1 0 3.4 1.5 1.3 1.5 1.3 4v.3zm-7.6-1.3h5.5q-.1-1.3-.8-2-.7-.7-1.8-.7-1.2 0-2 .7-.6.7-.9 2zm23.3 0v4.5q0 .6.4.6t1.2-.6v1.3q-.7.5-1.2.6-.4.2-1 .2-1.3 0-1.5-1-1.4 1-3 1-1 0-1.8-.7-.7-.8-.7-2 0-1 .7-1.7.7-.8 2-1.3l2.8-1v-.5q0-2-2-2-1.7 0-3.3 1.8v-2.3q1.2-1.5 3.5-1.5 1.8 0 2.8 1 .4.2.7.7l.3 1 .1 1.9zm-2.1 4.3v-3.2l-1.4.6q-1.1.4-1.6.8-.4.5-.4 1.1 0 .7.4 1.1.4.4 1.1.4 1 0 1.9-.8zm13.7-.4v2.1q-1.6.6-3.2.6-2.5 0-4-1.5t-1.5-4q0-2.5 1.5-4.1 1.4-1.6 3.8-1.6.8 0 1.5.2l1.6.6v2.3q-1.6-1-3-1t-2.3 1q-1 1-1 2.5 0 1.7 1 2.7 1 1 2.7 1 1.3 0 2.9-.8zm.9-6.6l4-3.9v2.3h3.4v1.9h-3.4v5.3q0 1.8 1.5 1.8 1.2 0 2.4-.8v2q-1.2.7-2.6.7-1.5 0-2.5-.8l-.5-.6-.3-.9-.1-2v-4.7h-2V73zm10.6-6.2q.5 0 1 .4.3.3.3.9 0 .5-.4.9-.4.3-.9.3t-.9-.3q-.3-.4-.3-1 0-.4.3-.8.4-.4.9-.4zm-1 4.6h2V82h-2V71.4zm10.3-.1q2.5 0 4.1 1.6 1.6 1.6 1.6 4 0 2.3-1.6 3.9-1.7 1.5-4.2 1.5-2.4 0-4-1.5-1.7-1.6-1.7-4 0-2.3 1.7-3.9 1.6-1.6 4.1-1.6zm-.1 2q-1.5 0-2.5 1t-1 2.5q0 1.6 1 2.6t2.6 1q1.6 0 2.6-1t1-2.6q0-1.5-1-2.5-1.1-1-2.7-1zm10.3-1.9v1.3q1.4-1.6 3.3-1.6 1 0 1.8.6.9.5 1.3 1.4.5.9.5 2.9v6h-2.1v-6q0-1.7-.5-2.4t-1.7-.7q-1.5 0-2.6 1.5v7.7h-2.2V71.4h2.2z" font-size="24" font-family="GillSans" fill="#3299cc"/><g stroke="#6cb340" stroke-width="2"><path d="M421.8 100.5l-43-.2" fill="none"/><path d="M378.9 96.7l-9.7 3.6 9.6 3.6z" fill="#6cb340"/></g><path d="M444.1 107.4V106q-.6.8-1.5 1.2-.9.4-1.8.4-1 0-1.8-.5-.9-.5-1.3-1.4-.5-.9-.5-2.9v-6.2h2.2v6.2q0 1.7.4 2.4.5.6 1.7.6 1.6 0 2.6-1.5v-7.7h2.2v10.8H444zm5 5.6V96.5h3.8q2.8 0 4.4 1.5 1.6 1.4 1.6 4 0 2.4-1.5 4-1.5 1.5-3.8 1.5-1 0-2.3-.4v5.7h-2.2zm3.7-14.4h-1.5v6.7q1 .5 2 .5 1.6 0 2.5-1 1-1.1 1-2.8 0-1-.5-1.8-.4-.8-1.2-1.2-.8-.4-2.3-.4zm15.7-7.6h2.1v16.4H466q-2.3 0-3.8-1.5-1.4-1.5-1.4-4 0-2.4 1.5-4 1.5-1.5 3.8-1.5 1.1 0 2.4.5V91zm0 14.6v-6.8q-1-.5-2-.5-1.6 0-2.6 1t-1 2.8q0 1.7.9 2.6.5.5 1 .7.6.2 2 .2h1.7zm11.8-4.6v4.5q0 .6.3.6.4 0 1.3-.6v1.3l-1.2.6q-.4.2-1 .2-1.3 0-1.5-1-1.4 1-3 1-1 0-1.8-.8-.8-.7-.8-1.8 0-1 .8-1.8.7-.9 2-1.3l2.8-1v-.5q0-2-2-2-1.7 0-3.4 1.8V98q1.3-1.5 3.6-1.5 1.8 0 2.8 1 .4.2.6.7l.4 1v1.8zm-2.1 4.3V102l-1.5.5q-1 .5-1.5 1-.4.4-.4 1 0 .7.4 1.1.4.4 1 .4 1.1 0 2-.8zm4.1-7l4-3.9v2.2h3.4v2h-3.4v5.2q0 1.9 1.5 1.9 1.1 0 2.4-.8v2q-1.2.7-2.7.7-1.4 0-2.4-.8l-.5-.6-.3-.9q-.2-.5-.2-2v-4.7h-1.8v-.3zm18.7 3.9h-7.6q0 1.6 1 2.5 1 .9 2.5.9 2.1 0 3.9-1.3v2q-1 .7-2 1-1 .3-2.2.3-1.8 0-3-.8-1-.7-1.7-2-.6-1.2-.6-2.8 0-2.5 1.3-4 1.4-1.6 3.7-1.6 2.1 0 3.4 1.5 1.3 1.5 1.3 4v.3zm-7.6-1.3h5.5q-.1-1.2-.8-2-.7-.6-1.8-.6-1.2 0-2 .7-.6.7-.9 2zm21.6-4.3q2.5 0 4.2 1.6 1.6 1.6 1.6 4 0 2.3-1.7 3.9-1.6 1.5-4.1 1.5-2.4 0-4-1.6-1.7-1.5-1.7-3.9 0-2.3 1.6-3.9 1.7-1.6 4.2-1.6zm0 2q-1.6 0-2.6 1t-1 2.5q0 1.6 1 2.5 1 1 2.7 1 1.5 0 2.5-1t1-2.5q0-1.5-1-2.6-1-1-2.6-1zm8 14.4V96.5h3.7q3 0 4.5 1.5 1.6 1.4 1.6 4 0 2.4-1.5 4-1.5 1.5-3.8 1.5-1 0-2.3-.4v5.7H523zm3.7-14.4h-1.5v6.7q1 .5 2 .5 1.5 0 2.5-1 1-1.1 1-2.8 0-1-.5-1.8-.4-.8-1.2-1.2-.8-.4-2.3-.4zm6.9-.3l4-3.9v2.2h3.4v2h-3.4v5.2q0 1.9 1.6 1.9 1.1 0 2.4-.8v2q-1.2.7-2.7.7-1.5 0-2.4-.8l-.5-.6-.4-.9-.1-2v-4.7h-1.9v-.3zm10.7-6.2q.5 0 .9.4.3.3.3.9 0 .5-.3.8-.4.4-1 .4-.4 0-.8-.4-.4-.3-.4-.8t.4-1q.4-.3.9-.3zm-1.1 4.5h2.1v10.8h-2.1V96.6zm10.4 0q2.4 0 4 1.6 1.7 1.6 1.7 4 0 2.3-1.7 3.9-1.6 1.5-4.1 1.5-2.5 0-4-1.6-1.7-1.5-1.7-3.9 0-2.3 1.6-3.9 1.7-1.6 4.2-1.6zm-.2 2q-1.5 0-2.5 1t-1 2.5q0 1.6 1 2.5 1 1 2.6 1t2.6-1q1-1 1-2.5t-1-2.6q-1-1-2.7-1zm10.4-2V98q1.4-1.6 3.2-1.6 1 0 1.9.6.8.5 1.3 1.4.4.9.4 2.9v6.1h-2v-6.1q0-1.7-.6-2.4-.5-.7-1.7-.7-1.5 0-2.5 1.5v7.7h-2.2V96.6h2.2z" font-size="24" font-family="GillSans" fill="#3299cc"/></svg>