<?xml version="1.0" encoding="UTF-8"?>
<!DOCTYPE svg PUBLIC "-//W3C//DTD SVG 1.1//EN" "http://www.w3.org/Graphics/SVG/1.1/DTD/svg11.dtd">
<svg version="1.1" xmlns="http://www.w3.org/2000/svg" xmlns:xlink="http://www.w3.org/1999/xlink" x="0" y="0" width="640" height="100" viewBox="0, 0, 640, 100">
  <g id="Layer_1">
    <g id="CMD">
      <text transform="matrix(1, 0, 0, 1, 137.833, 20)">
        <tspan x="-132.833" y="5" font-family="Inconsolata" font-size="24" fill="#06345E">db.users.deleteOne(</tspan>
      </text>
      <text transform="matrix(1, 0, 0, 1, 71.5, 20)">
        <tspan x="-30.5" y="5" font-family="Inconsolata" font-size="24" fill="#2A86C0">users</tspan>
      </text>
      <text transform="matrix(1, 0, 0, 1, 170.333, 50)">
        <tspan x="-135.333" y="5" font-family="Inconsolata" font-size="24" fill="#2A86C0">{ status: "Rejected" }</tspan>
      </text>
      <text transform="matrix(1, 0, 0, 1, 11.5, 77.5)">
        <tspan x="-6.5" y="7.5" font-family="Inconsolata" font-size="24" fill="#053056">)</tspan>
      </text>
    </g>
    <g id="criteria">
      <g>
        <path d="M450,49.599 L320,49.4" fill-opacity="0" stroke="#5CA831" stroke-width="2"/>
        <g>
          <path d="M319,42 L309,49.406 L318.965,57 z" fill="#5CA831"/>
          <path d="M319,42 L309,49.406 L318.965,57 z" fill-opacity="0" stroke="#5CA831" stroke-width="2"/>
        </g>
      </g>
      <text transform="matrix(1, 0, 0, 1, 535.5, 47.5)">
        <tspan x="-75.5" y="7.5" font-family="GillSans" font-size="24" fill="#2A86C0">delete filter</tspan>
      </text>
    </g>
    <g id="coll">
      <g>
        <path d="M450,19.599 L320,19.4" fill-opacity="0" stroke="#5CA831" stroke-width="2"/>
        <g>
          <path d="M319,12.333 L309,19.74 L318.965,27.333 z" fill="#5CA831"/>
          <path d="M319,12.333 L309,19.74 L318.965,27.333 z" fill-opacity="0" stroke="#5CA831" stroke-width="2"/>
        </g>
      </g>
      <text transform="matrix(1, 0, 0, 1, 507.891, 17.5)">
        <tspan x="-47.891" y="7.5" font-family="GillSans" font-size="24" fill="#2A86C0">collection</tspan>
      </text>
    </g>
  </g>
</svg>
