<?xml version="1.0" encoding="UTF-8"?>
<!DOCTYPE svg PUBLIC "-//W3C//DTD SVG 1.1//EN" "http://www.w3.org/Graphics/SVG/1.1/DTD/svg11.dtd">
<svg version="1.1" xmlns="http://www.w3.org/2000/svg" xmlns:xlink="http://www.w3.org/1999/xlink" x="0" y="0" width="640" height="250" viewBox="0, 0, 640, 250">
  <g id="Layer_1">
    <g id="cmd">
      <text transform="matrix(1, 0, 0, 1, 137.167, 30.5)">
        <tspan x="-132.167" y="-5.5" font-family="Inconsolata" font-size="24" fill="#004571">db.users.replaceOne(</tspan>
      </text>
      <text transform="matrix(1, 0, 0, 1, 71.5, 17.5)">
        <tspan x="-30.5" y="7.5" font-family="Inconsolata" font-size="24" fill="#3299CC">users</tspan>
      </text>
      <text transform="matrix(1, 0, 0, 1, 179.5, 50)">
        <tspan x="-144.5" y="5" font-family="Inconsolata" font-size="24" fill="#3299CC">{ name: "sue" } , </tspan>
      </text>
      <text transform="matrix(1, 0, 0, 1, 50, 80)">
        <tspan x="-15" y="5" font-family="Inconsolata" font-size="24" fill="#3299CC">{      </tspan>
      </text>
      <text transform="matrix(1, 0, 0, 1, 185.667, 146.5)">
        <tspan x="-120" y="-31.5" font-family="Inconsolata" font-size="24" fill="#3299CC">name: "amy",</tspan>
      </text>
      <text transform="matrix(1, 0, 0, 1, 115, 140)">
        <tspan x="-50" y="5" font-family="Inconsolata" font-size="24" fill="#3299CC">age: 25,</tspan>
      </text>
      <text transform="matrix(1, 0, 0, 1, 175, 170)">
        <tspan x="-110" y="5" font-family="Inconsolata" font-size="24" fill="#3299CC">status: "enrolled"</tspan>
      </text>
      <text transform="matrix(1, 0, 0, 1, 50, 200)">
        <tspan x="-15" y="5" font-family="Inconsolata" font-size="24" fill="#3299CC">}      </tspan>
      </text>
      <text transform="matrix(1, 0, 0, 1, 11.5, 227.5)">
        <tspan x="-6.5" y="7.5" font-family="Inconsolata" font-size="24" fill="#004069">)</tspan>
      </text>
    </g>
    <g id="collection">
      <g>
        <path d="M298,12 L297.965,27 L288,19.407 L298,12 z" fill="#6CB340"/>
        <path d="M386,19.505 L298,19.3" fill-opacity="0" stroke="#6CB340" stroke-width="2"/>
      </g>
      <text transform="matrix(1, 0, 0, 1, 443.891, 17.5)">
        <tspan x="-47.891" y="7.5" font-family="GillSans" font-size="24" fill="#3299CC">collection</tspan>
      </text>
    </g>
    <g id="filter">
      <g>
        <path d="M298,41.5 L297.965,56.5 L288,48.906 L298,41.5 z" fill="#6CB340"/>
        <path d="M386,48.806 L298,48.6" fill-opacity="0" stroke="#6CB340" stroke-width="2"/>
      </g>
      <text transform="matrix(1, 0, 0, 1, 470.61, 61.5)">
        <tspan x="-74.61" y="-6.5" font-family="GillSans" font-size="24" fill="#3299CC">replace filter</tspan>
      </text>
    </g>
    <g id="Curly">
      <path d="M361.589,98.765 L363.719,99.583 L367.373,101.06 L370.226,102.808 L371.933,104.648 L372.94,106.289 L373.411,107.263 L373.384,107.198 L373.948,108.756 L374.505,112.124 L374.451,117.847 L373.974,123.904 L373.784,127.887 L373.962,131.627 L374.753,134.955 L375.483,136.46 L375.483,136.46 C375.512,136.521 375.552,136.576 375.599,136.625 L375.599,136.625 L376.11,137.145 L377.993,138.137 L379.968,138.941 L381.136,139.769 L381.085,140.019 L381.071,139.517 L380.881,140.393 L379.911,141.794 L378.361,143.854 L376.728,146.721 L376.184,148.51 L376.184,148.51 C376.166,148.575 376.154,148.639 376.147,148.699 L376.147,148.699 L375.849,151.405 L375.568,156.756 L375.408,161.861 L374.996,166.642 L373.983,171.017 L372.079,174.847 L370.078,177.136 L368.543,178.363 L366.55,179.628 L364.025,180.891 L362.629,181.475 L362.629,181.475 C361.255,182.065 360.08,183.259 360.004,184.143 C359.927,185.028 360.98,185.266 362.354,184.676 L364.443,183.765 L368.07,181.856 L371.22,179.721 L373.909,177.329 L376.727,173.804 L378.903,169.219 L379.972,164.506 L380.39,159.614 L380.549,154.55 L380.82,149.323 L381.118,146.616 L381.081,146.805 L381.243,145.93 L382.441,143.733 L384.318,141.187 L385.809,138.565 L386,137.687 L386,137.687 C386.04,137.498 386.035,137.329 385.984,137.184 L385.984,137.184 L385.526,136.277 L384.029,135.275 L382.194,134.534 L380.71,133.83 L380.2,133.31 L380.318,133.474 L379.692,132.257 L378.943,129.229 L378.765,125.672 L378.951,121.753 L379.434,115.552 L379.464,109.53 L378.843,105.909 L378.278,104.351 L378.278,104.351 C378.27,104.329 378.261,104.308 378.251,104.287 L378.251,104.287 L377.715,103.196 L376.549,101.35 L374.543,99.27 L371.433,97.394 L367.747,95.903 L365.616,95.085 C365.616,95.085 365.616,95.085 365.616,95.085 C364.805,94.774 363.246,95.345 362.134,96.361 C361.022,97.377 360.778,98.453 361.589,98.765 L361.589,98.765" fill="#311F13"/>
      <text transform="matrix(1, 0, 0, 1, 521.157, 138)">
        <tspan x="-125.157" y="7.5" font-family="GillSans" font-size="24" fill="#3299CC">replacement document</tspan>
      </text>
    </g>
  </g>
</svg>
