<svg xmlns="http://www.w3.org/2000/svg" height="100" width="640"><path d="M13.9 15.6V9h1.9l-.2.4V25H14v-1.8q-.6 1-1.5 1.5-1 .5-1.9.5-.9 0-1.7-.3-.8-.4-1.4-1.1-.6-.7-1-1.8-.3-1.1-.3-2.6t.4-2.6q.4-1 1-1.7.7-.7 1.5-1 .8-.4 1.7-.4 1.1 0 2 .6.8.5 1.2 1.3zm-5.1.4q-1 1-1 3.1t.8 3.4q.7 1.2 2.3 1.2h.7l.8-.5.7-.6.4-.8q.3-.9.3-2.3l-.1-1.6q0-.6-.3-1l-.3-.7-.6-.5-.9-.4-.6-.1q-.7 0-1.2.2-.5.1-1 .6zm9.6-7h2v.3q-.2.1-.2.3v6.1q.5-.9 1.4-1.4 1-.5 1.9-.5.9 0 1.7.3.8.4 1.4 1 .6.8 1 1.8t.4 2.5q0 1.5-.4 2.6-.4 1-1 1.8-.7.7-1.5 1.1-.9.4-1.7.4-1 0-1.9-.5-.8-.4-1.4-1.2l-.6 1.4h-1V9zm3 14.3l.9.4h.6l1-.1q.7-.2 1.1-.7.5-.4.9-1.2.3-.8.3-2 0-2.1-.9-3.3-.9-1.1-2.6-1.1-.6 0-1.2.4-.7.4-1 1.1-.3.8-.3 2.4v1.7q0 .7.2 1.2l.4.7.6.5zm14.3-.3q.5.3.5.9 0 .5-.5 1-.4.4-1 .4t-1-.4q-.4-.4-.4-1t.4-1q.5-.4 1-.4.6 0 1 .4zm6.8-9h1.7v6.2q0 1 .2 1.7t.6 1.2q.3.4.8.6.4.2 1 .2.5 0 1-.3l1-.7q.4-.4.6-1.1.3-.7.3-1.7v-6h1.7v10q0 .5.2.9h-1.9v-1.7q-.5 1-1.4 1.5-1 .5-2 .5-.8 0-1.5-.3t-1.2-1q-.6-.6-.8-1.5-.3-1-.3-2.3V14zm20.9 1.5l-1 1.5q-.2 0-.2-.2v-.2q-.4-.6-1.2-1-.8-.5-1.8-.5l-1 .1-.7.3-.5.5q-.2.3-.2.7 0 .3.2.5l.4.4.9.5 1.5.4q2 .6 2.9 1.4.9.7.9 1.8 0 .7-.4 1.4-.3.6-.9 1.1-.6.5-1.4.8-.8.2-1.9.2-2.8 0-4.6-1.7l1-1.7v.2l.2.4.5.5 1.2.6.8.2 1 .1 1-.1.8-.4q.4-.2.6-.5.3-.3.3-.8 0-.6-.6-1t-2.1-.9l-1.4-.4-1.2-.6-.7-.6q-.4-.4-.5-.8l-.2-1q0-.6.3-1 .3-.6.8-1l1.4-.7q.8-.2 1.7-.2 2.5 0 4 1.7zm7.8-1.7q.9 0 1.7.3.8.3 1.4 1 .6.6 1 1.5.4 1 .4 2.4v.8h-7.9q0 1.1.4 2l.9 1.2 1.2.7 1.3.1q1.7 0 2.8-1.2l1 1q-1.4 1.6-3.9 1.6-1.2 0-2.2-.3-1-.4-1.7-1.1-.7-.7-1-1.8-.4-1-.4-2.4t.4-2.5q.4-1.1 1-1.8.7-.8 1.6-1.1 1-.4 2-.4zM68 18.4h6V18q0-.6-.2-1-.2-.6-.6-1l-.9-.7q-.5-.2-1.1-.2-1.1 0-2 .8-1 .8-1.2 2.5zM79.4 14h1.8v2.1q.4-1.1 1.5-1.7 1.1-.6 2.4-.6 1.7 0 2.9 1.2l-.8 1.6-.5-.6-.5-.4q-.2-.2-.5-.2l-.7-.1q-.8 0-1.5.3-.7.4-1.2 1l-.9 1.4q-.3.8-.3 1.7V25h-1.7V14zm20 1.5l-1 1.5q-.2 0-.2-.2v-.2q-.4-.6-1.2-1-.8-.5-1.8-.5l-1 .1-.7.3-.5.5q-.2.3-.2.7 0 .3.2.5l.4.4.9.5 1.5.4q2 .6 2.9 1.4.9.7.9 1.8 0 .7-.4 1.4-.3.6-.9 1.1-.6.5-1.4.8-.8.2-1.9.2-2.8 0-4.6-1.7l1-1.7v.2l.2.4.5.5 1.2.6.8.2 1 .1 1-.1.8-.4q.4-.2.6-.5.3-.3.3-.8 0-.6-.6-1t-2.1-.9l-1.4-.4-1.2-.6-.7-.6q-.4-.4-.5-.8l-.2-1q0-.6.3-1 .3-.6.8-1l1.4-.7q.8-.2 1.7-.2 2.5 0 4 1.7zm8.3 7.5q.5.3.5.9 0 .5-.5 1-.4.4-1 .4t-1-.4q-.4-.4-.4-1t.4-1q.5-.4 1-.4.6 0 1 .4zm14.2-7.4V9h1.9l-.2.4V25H122v-1.8q-.6 1-1.5 1.5-1 .5-1.9.5-.9 0-1.7-.3-.8-.4-1.4-1.1-.6-.7-1-1.8-.3-1.1-.3-2.6t.4-2.6q.4-1 1-1.7.7-.7 1.5-1 .8-.4 1.7-.4 1.1 0 2 .6.8.5 1.2 1.3zm-5.1.4q-1 1-1 3.1t.8 3.4q.7 1.2 2.3 1.2h.7l.8-.5.7-.6.4-.8q.3-.9.3-2.3l-.1-1.6q0-.6-.3-1l-.3-.7-.6-.5-.9-.4-.6-.1q-.7 0-1.2.2-.5.1-1 .6zm14.4-2.2q.9 0 1.7.3.8.3 1.4 1 .6.6 1 1.5.4 1 .4 2.4v.8h-7.9q0 1.1.4 2l.9 1.2 1.2.7 1.3.1q1.7 0 2.8-1.2l1 1q-1.4 1.6-3.9 1.6-1.2 0-2.2-.3-1-.4-1.7-1.1-.7-.7-1-1.8-.4-1-.4-2.4t.4-2.5q.4-1.1 1-1.8.7-.8 1.6-1.1 1-.4 2-.4zm-3.3 4.6h6V18q0-.6-.2-1-.2-.6-.6-1l-.9-.7q-.5-.2-1.1-.2-1.1 0-2 .8-1 .8-1.2 2.5zM139 9h4.9v14.6h3.2V25h-8.2v-1.4h3.2V10.4h-3V9zm16.2 4.8q.9 0 1.7.3.8.3 1.4 1 .6.6 1 1.5.4 1 .4 2.4v.8h-7.9q0 1.1.4 2l.9 1.2 1.2.7 1.3.1q1.7 0 2.8-1.2l1 1q-1.4 1.6-3.9 1.6-1.2 0-2.2-.3-1-.4-1.7-1.1-.7-.7-1-1.8-.4-1-.4-2.4t.4-2.5q.4-1.1 1-1.8.7-.8 1.6-1.1 1-.4 2-.4zm-3.3 4.6h6V18q0-.6-.2-1-.2-.6-.6-1l-.9-.7q-.5-.2-1.1-.2-1.1 0-2 .8-1 .8-1.2 2.5zm13.6-7.3l2-.3-.2.4v.2L167 14h3.6v1.4H167l-.2 4v2q0 .8.2 1.2l.6.8q.4.2 1 .2 1.2 0 2.5-1l.6 1.4q-1.7 1.2-3.5 1.2-1.7 0-2.5-1t-.7-3.4v-2.2l.2-3.2h-2.5V14h2.6l.2-2.9zm13.7 2.7q.9 0 1.7.3.8.3 1.4 1 .6.6 1 1.5.4 1 .4 2.4v.8h-7.9q0 1.1.4 2l.9 1.2 1.2.7 1.3.1q1.7 0 2.8-1.2l1 1q-1.4 1.6-3.9 1.6-1.2 0-2.2-.3-1-.4-1.7-1.1-.7-.7-1-1.8-.4-1-.4-2.4t.4-2.5q.4-1.1 1-1.8.7-.8 1.6-1.1 1-.4 2-.4zm-3.3 4.6h6V18q0-.6-.2-1-.2-.6-.6-1l-.9-.7q-.5-.2-1.1-.2-1.1 0-2 .8-1 .8-1.2 2.5zm15.2 6.8q-1.2 0-2.2-.5-1-.6-1.7-1.6t-1.1-2.4q-.4-1.5-.4-3.2 0-1.7.4-3.2.4-1.4 1.1-2.4.7-1 1.7-1.5t2.2-.5q1.1 0 2 .4 1 .5 1.7 1.4.7 1 1.1 2.4.4 1.4.4 3.4 0 2.2-.5 3.7-.4 1.4-1.2 2.3-.7 1-1.6 1.4-1 .3-1.9.3zm-2.5-3q1.1 1.4 2.5 1.4.6 0 1.3-.3.6-.3 1.1-1 .5-.7.8-1.8.3-1.2.3-3t-.3-3q-.3-1-.9-1.8l-1-1q-.6-.2-1.3-.2-.7 0-1.3.2-.6.3-1.2 1-.6.6-1 1.7-.2 1.2-.2 3 0 1.6.3 2.9.3 1.2.9 2zm10 2.8V14h1.8v2q.6-1 1.6-1.6 1-.6 2-.6.7 0 1.3.2.7.3 1.1.8.5.6.7 1.4.3.9.3 2.2V25h-1.7v-6.6q0-1.7-.6-2.4t-1.5-.7l-1 .2q-.7.3-1.1.7-.5.4-.8 1-.3.7-.3 1.5V25h-1.8zm16.6-11.2q.9 0 1.7.3.8.3 1.4 1 .6.6 1 1.5.4 1 .4 2.4v.8h-7.9q0 1.1.4 2l.9 1.2 1.2.7 1.3.1q1.7 0 2.8-1.2l1 1q-1.4 1.6-3.9 1.6-1.2 0-2.2-.3-1-.4-1.7-1.1-.7-.7-1-1.8-.4-1-.4-2.4t.4-2.5q.4-1.1 1-1.8.7-.8 1.6-1.1 1-.4 2-.4zm-3.3 4.6h6V18q0-.6-.2-1-.2-.6-.6-1l-.9-.7q-.5-.2-1.1-.2-1.1 0-2 .8-1 .8-1.2 2.5zm19.1-7.9h-.5q-2.2 1.3-3.3 3.5-1.2 2.1-1.2 4.9 0 1.3.4 2.6.3 1.3 1 2.5t1.6 2.2q1 1 2.2 1.7l-.8 1.3q-1.4-.8-2.5-1.9-1.2-1-2-2.4-.7-1.4-1.2-2.9-.4-1.6-.4-3.2t.4-3.1q.5-1.5 1.3-2.8.8-1.3 1.9-2.3 1-1 2.5-1.6l.7 1.5h-.2z" font-size="24" font-family="Inconsolata" fill="#06345e"/><path d="M42.5 14h1.7v6.2q0 1 .2 1.7t.6 1.2q.3.4.8.6.4.2 1 .2.5 0 1-.3l1-.7q.4-.4.6-1.1.3-.7.3-1.7v-6h1.7v10q0 .5.2.9h-1.9v-1.7q-.5 1-1.4 1.5-1 .5-2 .5-.8 0-1.5-.3t-1.2-1q-.6-.6-.8-1.5-.3-1-.3-2.3V14zm20.9 1.5l-1 1.5q-.2 0-.2-.2v-.2q-.4-.6-1.2-1-.8-.5-1.8-.5l-1 .1-.7.3-.5.5q-.2.3-.2.7 0 .3.2.5l.4.4.9.5 1.5.4q2 .6 2.9 1.4.9.7.9 1.8 0 .7-.4 1.4-.3.6-.9 1.1-.6.5-1.4.8-.8.2-1.9.2-2.8 0-4.6-1.7l1-1.7v.2l.2.4.5.5 1.2.6.8.2 1 .1 1-.1.8-.4q.4-.2.6-.5.3-.3.3-.8 0-.6-.6-1t-2.1-.9l-1.4-.4-1.2-.6-.7-.6q-.4-.4-.5-.8l-.2-1q0-.6.3-1 .3-.6.8-1l1.4-.7q.8-.2 1.7-.2 2.5 0 4 1.7zm7.8-1.7q.9 0 1.7.3.8.3 1.4 1 .6.6 1 1.5.4 1 .4 2.4v.8h-7.9q0 1.1.4 2l.9 1.2 1.2.7 1.3.1q1.7 0 2.8-1.2l1 1q-1.4 1.6-3.9 1.6-1.2 0-2.2-.3-1-.4-1.7-1.1-.7-.7-1-1.8-.4-1-.4-2.4t.4-2.5q.4-1.1 1-1.8.7-.8 1.6-1.1 1-.4 2-.4zM68 18.4h6V18q0-.6-.2-1-.2-.6-.6-1l-.9-.7q-.5-.2-1.1-.2-1.1 0-2 .8-1 .8-1.2 2.5zM79.4 14h1.8v2.1q.4-1.1 1.5-1.7 1.1-.6 2.4-.6 1.7 0 2.9 1.2l-.8 1.6-.5-.6-.5-.4q-.2-.2-.5-.2l-.7-.1q-.8 0-1.5.3-.7.4-1.2 1l-.9 1.4q-.3.8-.3 1.7V25h-1.7V14zm20 1.5l-1 1.5q-.2 0-.2-.2v-.2q-.4-.6-1.2-1-.8-.5-1.8-.5l-1 .1-.7.3-.5.5q-.2.3-.2.7 0 .3.2.5l.4.4.9.5 1.5.4q2 .6 2.9 1.4.9.7.9 1.8 0 .7-.4 1.4-.3.6-.9 1.1-.6.5-1.4.8-.8.2-1.9.2-2.8 0-4.6-1.7l1-1.7v.2l.2.4.5.5 1.2.6.8.2 1 .1 1-.1.8-.4q.4-.2.6-.5.3-.3.3-.8 0-.6-.6-1t-2.1-.9l-1.4-.4-1.2-.6-.7-.6q-.4-.4-.5-.8l-.2-1q0-.6.3-1 .3-.6.8-1l1.4-.7q.8-.2 1.7-.2 2.5 0 4 1.7zM38.8 54.6l.1-2.4q0-1.6-.6-2.1-.5-.6-1.5-.6h-.5v-1.3h.4q1.1 0 1.7-.6.6-.6.6-2V44q0-4.2 4.3-4.2h1.5v1.4h-2q-2.2 0-2.2 2.5v1.7q0 2.7-2 3.6 2 .6 2 3.7v2q0 1.6.6 2.2.7.7 2.3.7h1.3v1.3h-2.9q-1-.2-1.7-.7-1.4-1-1.4-3.5zm30.6-9.1l-1 1.5q-.2 0-.2-.2v-.2q-.4-.6-1.2-1-.8-.5-1.8-.5l-1 .1-.7.3-.5.5q-.2.3-.2.7 0 .3.2.5l.4.4.9.5 1.5.4q2 .6 2.9 1.4.9.7.9 1.8 0 .7-.4 1.4-.3.6-.9 1.1-.6.5-1.4.8-.8.2-1.9.2-2.8 0-4.6-1.7l1-1.7v.2l.2.4.5.5 1.2.6.8.2 1 .1 1-.1.8-.4q.4-.2.6-.5.3-.3.3-.8 0-.6-.6-1t-2.1-.9l-1.4-.4-1.2-.6-.7-.6q-.4-.4-.5-.8l-.2-1q0-.6.3-1 .3-.6.8-1l1.4-.7q.8-.2 1.7-.2 2.5 0 4 1.7zm6.1-4.4l2-.3-.2.4v.2L77 44h3.6v1.4H77l-.2 4v2q0 .8.2 1.2l.6.8q.4.2 1 .2 1.2 0 2.5-1l.6 1.4q-1.7 1.2-3.5 1.2-1.7 0-2.5-1t-.7-3.4v-2.2l.2-3.2h-2.5V44h2.6l.2-2.9zm9.7 4.2q1.4-1.5 3.9-1.5 2 0 3.2 1 1.1 1 1.1 3.4V55h-1.6v-1.2q-1.7 1.5-4 1.5-.8 0-1.5-.3t-1.1-.7q-.5-.4-.8-1l-.2-1q0-1.7 1.4-2.7 1.4-1 4.1-1h2V48q0-1.6-.6-2.2-.7-.7-2.1-.7-1.8 0-3 1.2l-.8-1zm6.7 4.6h-1.7l-2.1.1q-.9.2-1.4.5-.4.3-.6.7-.2.4-.2.9 0 .7.7 1.3.6.5 1.6.5.8 0 1.3-.2l1-.5.7-.7.4-.6q.3-.5.3-1.3v-.7zm7.6-8.8l2-.3-.2.4v.2L101 44h3.6v1.4H101l-.2 4v2q0 .8.2 1.2l.6.8q.4.2 1 .2 1.2 0 2.5-1l.6 1.4q-1.7 1.2-3.5 1.2-1.7 0-2.5-1t-.7-3.4v-2.2l.2-3.2h-2.5V44h2.6l.2-2.9zm9 2.9h1.7v6.2q0 1 .2 1.7t.6 1.2q.3.4.8.6.4.2 1 .2.5 0 1-.3l1-.7q.4-.4.6-1.1.3-.7.3-1.7v-6h1.7v10q0 .5.2.9h-1.9v-1.7q-.5 1-1.4 1.5-1 .5-2 .5-.8 0-1.5-.3t-1.2-1q-.6-.6-.8-1.5-.3-1-.3-2.3V44zm20.9 1.5l-1 1.5q-.2 0-.2-.2v-.2q-.4-.6-1.2-1-.8-.5-1.8-.5l-1 .1-.7.3-.5.5q-.2.3-.2.7 0 .3.2.5l.4.4.9.5 1.5.4q2 .6 2.9 1.4.9.7.9 1.8 0 .7-.4 1.4-.3.6-.9 1.1-.6.5-1.4.8-.8.2-1.9.2-2.8 0-4.6-1.7l1-1.7v.2l.2.4.5.5 1.2.6.8.2 1 .1 1-.1.8-.4q.4-.2.6-.5.3-.3.3-.8 0-.6-.6-1t-2.1-.9l-1.4-.4-1.2-.6-.7-.6q-.4-.4-.5-.8l-.2-1q0-.6.3-1 .3-.6.8-1l1.4-.7q.8-.2 1.7-.2 2.5 0 4 1.7zm8.3-.2q.5.4.5 1 0 .5-.5.9-.4.4-1 .4-.5 0-1-.4-.4-.4-.4-1 0-.5.4-1 .5-.4 1-.4.6 0 1 .5zm0 7.6q.5.4.5 1 0 .5-.5 1-.4.4-1 .4t-1-.4q-.4-.4-.4-1t.4-1q.5-.4 1-.4.6 0 1 .4zm24.9-11.1l-.2-1.5q0-.6.3-1 .3-.3.7-.3.5 0 .8.4.3.3.3 1.1t-.8 3l-.6 1.6-1.3-.3.5-1.6q.3-.8.3-1.4zm-4.2 0l-.1-1.5q0-.6.3-1 .3-.3.7-.3.4 0 .7.4.4.3.4 1.1t-.8 3l-.6 1.6-1.3-.3.5-1.6.2-.7v-.7zm9.9-1.8h4.5q2.6 0 3.8 1.2 1.1 1.2 1.1 3.1 0 .7-.2 1.3l-.6 1.2-1 1q-.5.4-1.2.5L178 55h-1.8l-3.3-6.6h-3V55h-1.7V40zm1.7 1.6V47h3q1.6 0 2.3-.7.7-.7.7-1.9 0-.6-.2-1l-.5-.9-1-.6q-.5-.2-1.3-.2h-3zm15.2 2.2q.9 0 1.7.3.8.3 1.4 1 .6.6 1 1.5.4 1 .4 2.4v.8h-7.9q0 1.1.4 2l.9 1.2 1.2.7 1.3.1q1.7 0 2.8-1.2l1 1q-1.4 1.6-3.9 1.6-1.2 0-2.2-.3-1-.4-1.7-1.1-.7-.7-1-1.8-.4-1-.4-2.4t.4-2.5q.4-1.1 1-1.8.7-.8 1.6-1.1 1-.4 2-.4zm-3.3 4.6h6V48q0-.6-.2-1-.2-.6-.6-1l-.9-.7q-.5-.2-1.1-.2-1.1 0-2 .8-1 .8-1.2 2.5zM194 44h5.9v10.5q0 1.2-.4 2-.3 1-1 1.5-.5.6-1.3.8-.8.3-1.7.4-2.1 0-3.3-1.6l1-1.4q.2 0 .2.2l.1.3.3.3.7.4q.5.3 1.1.3 1.1 0 1.8-.8.7-.7.7-2.3v-9.2h-4V44zm4.1-4.4q.4-.3.9-.3t.9.3q.3.4.3.9t-.3.9q-.4.3-1 .3-.4 0-.8-.3-.4-.4-.4-.9t.4-.9zm11.1 4.2q.9 0 1.7.3.8.3 1.4 1 .6.6 1 1.5.4 1 .4 2.4v.8h-7.9q0 1.1.4 2l.9 1.2 1.2.7 1.3.1q1.7 0 2.8-1.2l1 1q-1.4 1.6-3.9 1.6-1.2 0-2.2-.3-1-.4-1.7-1.1-.7-.7-1-1.8-.4-1-.4-2.4t.4-2.5q.4-1.1 1-1.8.7-.8 1.6-1.1 1-.4 2-.4zm-3.3 4.6h6V48q0-.6-.2-1-.2-.6-.6-1l-.9-.7q-.5-.2-1.1-.2-1.1 0-2 .8-1 .8-1.2 2.5zm20.1-2.5l-1.3 1.4V47l-.1-.2-.2-.4-.5-.5q-.9-.7-2.3-.7-.7 0-1.3.3-.6.3-1.1.8-.5.5-.8 1.3-.3.7-.3 1.7t.3 1.7q.3.8.8 1.4.5.6 1.2.9.7.3 1.5.3 1.7 0 2.9-1.3l1 1.1q-1.6 1.8-4 1.8-1.2 0-2.2-.5-1-.4-1.7-1.2-.7-.7-1.1-1.8-.5-1-.5-2.3 0-1.2.5-2.3.4-1 1-1.8.8-.7 1.8-1.2 1-.4 2.3-.4 1.3 0 2.3.6 1.1.5 1.8 1.5zm5.5-4.8l2-.3-.2.4v.2L233 44h3.6v1.4H233l-.2 4v2q0 .8.2 1.2l.6.8q.4.2 1 .2 1.2 0 2.5-1l.6 1.4q-1.7 1.2-3.5 1.2-1.7 0-2.5-1t-.7-3.4v-2.2l.2-3.2h-2.5V44h2.6l.2-2.9zm13.7 2.7q.9 0 1.7.3.8.3 1.4 1 .6.6 1 1.5.4 1 .4 2.4v.8h-7.9q0 1.1.4 2l.9 1.2 1.2.7 1.3.1q1.7 0 2.8-1.2l1 1q-1.4 1.6-3.9 1.6-1.2 0-2.2-.3-1-.4-1.7-1.1-.7-.7-1-1.8-.4-1-.4-2.4t.4-2.5q.4-1.1 1-1.8.7-.8 1.6-1.1 1-.4 2-.4zm-3.3 4.6h6V48q0-.6-.2-1-.2-.6-.6-1l-.9-.7q-.5-.2-1.1-.2-1.1 0-2 .8-1 .8-1.2 2.5zm18-2.8V39h1.9l-.2.4V55H260v-1.8q-.6 1-1.5 1.5-1 .5-1.9.5-.9 0-1.7-.3-.8-.4-1.4-1.1-.6-.7-1-1.8-.3-1.1-.3-2.6t.4-2.6q.4-1 1-1.7.7-.7 1.5-1 .8-.4 1.7-.4 1.1 0 2 .6.8.5 1.2 1.3zm-5.1.4q-1 1-1 3.1t.8 3.4q.7 1.2 2.3 1.2h.7l.8-.5.7-.6.4-.8q.3-.9.3-2.3l-.1-1.6q0-.6-.3-1l-.3-.7-.6-.5-.9-.4-.6-.1q-.7 0-1.2.2-.5.1-1 .6zm15.8-4.2l-.2-1.5q0-.6.3-1 .3-.3.7-.3.5 0 .8.4.3.3.3 1.1t-.8 3l-.6 1.6-1.3-.3.5-1.6q.3-.8.3-1.4zm-4.2 0l-.1-1.5q0-.6.3-1 .3-.3.7-.3.4 0 .7.4.4.3.4 1.1t-.8 3l-.6 1.6-1.3-.3.5-1.6.2-.7v-.7zm28.7 2.1v1.7q0 1.4.5 2 .6.6 1.7.6h.5v1.3h-.6q-1 0-1.5.6-.6.5-.6 2.1v2.4q0 2.2-.9 3.2-1 1-3 1h-2v-1.3h2.2l.5-.1.4-.2.2-.1q1-.7 1-2.5v-2q0-3 2-3.7-2.1-1-2.1-3.6v-1.7q0-1.3-.6-2-.6-.5-1.8-.5h-1.8v-1.4h2.5q.9.1 1.7.6.7.4 1.2 1.3.5.8.5 2.3z" font-size="24" font-family="Inconsolata" fill="#2a86c0"/><path d="M6.9 70.5l.4-1.5q1.5.7 2.7 1.8 1.2 1 2 2.3.8 1.3 1.3 2.8.4 1.5.4 3.1t-.4 3.1q-.5 1.6-1.4 2.9-.8 1.3-2 2.4-1.2 1-2.7 1.8l-.5-1.5Q8 87.1 9 86.2q1-1 1.7-2 .7-1.2 1-2.5.4-1.3.4-2.6 0-1.4-.4-2.6-.3-1.3-1-2.4Q10 73 9 72t-2.1-1.6z" font-size="24" font-family="Inconsolata" fill="#053056"/><path d="M450 49.6l-130-.2" stroke="#5ca831" stroke-width="2" fill="none"/><path d="M319 42l-10 7.4 10 7.6z" fill="#5ca831"/><path d="M319 42l-10 7.4 10 7.6z" stroke="#5ca831" stroke-width="2" fill="none"/><path d="M468.7 38.6h2.2V55h-4.6q-2.4 0-3.8-1.5t-1.4-4q0-2.4 1.4-4 1.5-1.5 3.9-1.5 1 0 2.3.4v-5.8zm0 14.6v-6.9q-1-.5-2-.5-1.6 0-2.6 1-.9 1.1-.9 2.9 0 1.7.8 2.6.5.5 1 .7.6.2 2 .2h1.7zm14.3-3.4h-7.6q0 1.5 1 2.5 1 .9 2.5.9 2 0 3.8-1.3v2q-1 .7-2 1-.9.3-2.2.3-1.8 0-2.9-.8-1-.7-1.7-2-.7-1.2-.7-2.8 0-2.5 1.4-4 1.4-1.6 3.6-1.6t3.5 1.5q1.2 1.5 1.2 4v.3zm-7.6-1.3h5.4q0-1.3-.7-2-.7-.6-1.9-.6-1.1 0-1.9.7-.7.6-.9 2zm9.9-9.9h2.1V55h-2.1V38.6zm14.4 11.2h-7.6q.1 1.5 1 2.5 1 .9 2.5.9 2.1 0 4-1.3v2q-1 .7-2 1-1 .3-2.3.3-1.8 0-2.9-.8-1-.7-1.7-2-.7-1.2-.7-2.8 0-2.5 1.4-4 1.4-1.6 3.6-1.6t3.4 1.5q1.3 1.5 1.3 4v.3zm-7.5-1.3h5.4q0-1.3-.8-2-.6-.6-1.8-.6-1.1 0-1.9.7-.7.6-1 2zm8.3-2.5l4-4v2.2h3.4v2h-3.4v5.2q0 1.9 1.5 1.9 1.2 0 2.5-.8v2q-1.3.7-2.7.7-1.5 0-2.5-.9l-.5-.5-.3-.9-.1-2v-4.8h-1.9V46zm18.7 3.8h-7.6q.1 1.5 1 2.5 1 .9 2.5.9 2.1 0 4-1.3v2q-1 .7-2 1-1 .3-2.3.3-1.8 0-2.9-.8-1-.7-1.7-2-.7-1.2-.7-2.8 0-2.5 1.4-4 1.4-1.6 3.6-1.6t3.4 1.5q1.3 1.5 1.3 4v.3zm-7.5-1.3h5.4q0-1.3-.8-2-.6-.6-1.8-.6-1.1 0-1.9.7-.7.6-1 2zm16.7-4.3v-.6q0-2.6 1.1-3.9 1.1-1.3 2.7-1.3l1.6.2v2.1l-1-.2q-1.3 0-1.8.7t-.5 2.4v.6h2v2h-2V55h-2v-8.9h-1.6v-1.9h1.5zm6.9-4.5q.5 0 .9.3.3.4.3 1 0 .5-.3.8-.4.4-1 .4-.4 0-.8-.4t-.4-.9q0-.5.4-.8.4-.4.9-.4zm-1 4.5h2V55h-2V44.2zm5.2-5.6h2.1V55h-2.1V38.6zm3.7 7.4l4-4v2.2h3.4v2h-3.4v5.2q0 1.9 1.5 1.9 1.2 0 2.5-.8v2q-1.3.7-2.7.7-1.5 0-2.4-.9-.4-.2-.6-.5l-.3-.9-.1-2v-4.8h-1.9V46zm18.8 3.8h-7.7q.1 1.5 1 2.5 1 .9 2.5.9 2.1 0 4-1.3v2q-1 .7-2 1-1 .3-2.3.3-1.8 0-2.9-.8-1-.7-1.7-2-.7-1.2-.7-2.8 0-2.5 1.4-4 1.4-1.6 3.6-1.6t3.4 1.5q1.3 1.5 1.3 4v.3zm-7.6-1.3h5.4q0-1.3-.8-2-.6-.6-1.8-.6-1.1 0-1.9.7-.7.6-1 2zm12.1-4.3v2.5l.1-.2q1.6-2.5 3.1-2.5 1.2 0 2.5 1.2l-1 1.9q-1.2-1-2.2-1-1 0-1.8 1-.7 1-.7 2.3V55h-2.1V44.2h2.1z" font-size="24" font-family="GillSans" fill="#2a86c0"/><path d="M450 19.6l-130-.2" stroke="#5ca831" stroke-width="2" fill="none"/><path d="M319 12.3l-10 7.4 10 7.6z" fill="#5ca831"/><path d="M319 12.3l-10 7.4 10 7.6z" stroke="#5ca831" stroke-width="2" fill="none"/><path d="M469.6 22.5v2q-1.6.7-3.1.7-2.6 0-4-1.5-1.6-1.5-1.6-4 0-2.6 1.5-4.1 1.4-1.6 3.8-1.6.9 0 1.5.2.7.1 1.7.6V17q-1.7-1-3-1-1.5 0-2.4 1-1 1-1 2.6t1 2.6q1 1 2.8 1 1.2 0 2.8-.7zm7.6-8.3q2.4 0 4 1.6 1.7 1.6 1.7 4 0 2.3-1.7 3.9-1.6 1.5-4.1 1.5-2.5 0-4-1.6-1.7-1.5-1.7-3.9t1.6-4q1.7-1.5 4.2-1.5zm-.1 2q-1.6 0-2.6 1t-1 2.5q0 1.5 1 2.5t2.6 1q1.6 0 2.6-1t1-2.5q0-1.6-1-2.6t-2.6-1zm8.2-7.6h2.1V25h-2.1V8.6zm5.3 0h2.1V25h-2.1V8.6zM505 19.8h-7.6q.1 1.5 1 2.5 1 .9 2.5.9 2.1 0 4-1.3v2q-1 .7-2 1-1 .3-2.3.3-1.8 0-2.9-.8-1-.7-1.7-2-.7-1.2-.7-2.8 0-2.5 1.4-4 1.4-1.6 3.6-1.6t3.4 1.5q1.3 1.5 1.3 4v.3zm-7.5-1.3h5.4q0-1.3-.8-2-.6-.6-1.8-.6-1.1 0-1.9.7-.7.6-1 2zm17.9 4v2q-1.6.7-3.1.7-2.6 0-4-1.5-1.6-1.5-1.6-4 0-2.6 1.5-4.1 1.4-1.6 3.8-1.6.9 0 1.5.2.7.1 1.7.6V17q-1.7-1-3-1-1.5 0-2.4 1-1 1-1 2.6t1 2.6q1 1 2.8 1 1.2 0 2.8-.7zm.9-6.5l4-4v2.2h3.4v2h-3.4v5.2q0 1.9 1.5 1.9 1.2 0 2.5-.8v2q-1.3.7-2.7.7-1.5 0-2.5-.9l-.5-.5-.3-.9-.1-2v-4.8h-1.9V16zM527 9.7q.5 0 .8.3.4.4.4 1 0 .5-.4.8-.3.4-.9.4-.5 0-.8-.4-.4-.4-.4-.9t.4-.8q.3-.4.8-.4zm-1.1 4.5h2.1V25h-2.1V14.2zm10.3 0q2.5 0 4.1 1.6 1.6 1.6 1.6 4 0 2.3-1.6 3.9-1.7 1.5-4.2 1.5-2.4 0-4-1.6-1.6-1.5-1.6-3.9t1.6-4q1.6-1.5 4.1-1.5zm0 2q-1.6 0-2.6 1t-1 2.5q0 1.5 1 2.5t2.6 1q1.6 0 2.6-1t1-2.5q0-1.6-1-2.6-1.1-1-2.7-1zm10.2-2v1.4q1.5-1.6 3.3-1.6 1 0 1.8.5 1 .6 1.4 1.5.4.9.4 2.8V25h-2.1v-6.1q0-1.7-.5-2.4t-1.7-.7q-1.5 0-2.6 1.5V25h-2.2V14.2h2.2z" font-size="24" font-family="GillSans" fill="#2a86c0"/></svg>