<svg xmlns="http://www.w3.org/2000/svg" width="520" height="540" fill="none"><path fill="#fff" d="M0 0h520v540H0z"/><path fill="#5A5955" d="M22 62c0 1 1.4 2 3 2h169c1.7 0 3-1 3-2V21c0-1.2-1.3-2-3-2H25c-1.6 0-3 .8-3 2z"/><path fill="#FFFFFE" d="M76.1 48V31.8h5.5q3.4 0 5.3 1 2 1 3.1 3t1.1 4.2q0 1.7-.6 3.2t-1.8 2.6q-1.2 1.2-2.8 1.8l-1.7.5h-8.1zm5.3-14.2h-3V46h3q1.8 0 2.8-.3 1-.201 1.6-.6.6-.3 1.2-.9 1.7-1.7 1.7-4.4T87 35.5q-.6-.6-1.5-1l-1.6-.6h-2.4zM96 37.3v2.5l.2-.2q1.5-2.5 3-2.5 1.3 0 2.601 1.2l-1.1 1.9q-1.1-1-2-1-1.1 0-1.9 1-.7 1-.7 2.3V48h-2.2V37.3h2.2zm8.401-4.5q.5 0 .9.3.4.4.4 1 0 .4-.4.8t-.9.4-.9-.4q-.3-.4-.3-.9t.3-.8q.399-.4.9-.4m-1 4.5h2v10.8h-2zm11.7 0h2.4l-4.8 11h-.7l-4.9-11h2.3l3 6.6zm12.7 5.6h-7.6q0 1.5 1 2.4 1 1 2.5 1 2.1 0 3.9-1.3v2q-1 .7-2 1t-2.2.3q-1.8 0-3-.8-1-.7-1.7-2-.6-1.2-.6-2.9 0-2.4 1.3-4 1.4-1.5 3.7-1.5 2.1 0 3.4 1.5t1.3 4zm-7.6-1.3h5.5q-.1-1.3-.8-2-.7-.6-1.8-.6-1.2 0-2 .6-.6.7-.9 2m12.2-4.3v2.5-.2q1.6-2.5 3.2-2.5 1.2 0 2.5 1.2l-1.1 1.9q-1.101-1-2.1-1t-1.8 1q-.7 1-.7 2.3V48h-2.2V37.3zM74.801 246v-16.5H80q2.4 0 3.8 1.3 1.4 1.2 1.4 3.4 0 1.4-.7 2.5a4.66 4.66 0 0 1-2 1.6q-1.2.5-3.6.5h-1.7v7.1h-2.4zm4.8-14.4h-2.4v5.1h2.6q1.4 0 2.2-.6.7-.7.7-2 0-2.5-3-2.5zm9.6 3.5v2.5l.1-.2q1.6-2.5 3.1-2.5 1.2 0 2.5 1.2l-1 2q-1.2-1.1-2.2-1.1t-1.7 1a3.58 3.58 0 0 0-.8 2.3v5.6h-2.1v-10.8zm8.3-4.5q.6 0 1 .4.3.3.3.8 0 .6-.4 1-.3.3-.9.3a.95.95 0 0 1-.8-.4q-.4-.3-.4-.9 0-.4.4-.8a.95.95 0 0 1 .8-.4m-1 4.5h2.1V246h-2.1v-10.9m14 2.9v8h-2.1v-6q0-1.9-.5-2.6t-1.7-.7q-.7 0-1.2.3-.6.3-1.3 1v8h-2.1v-11h2.1v1.4q1.7-1.6 3.2-1.6 2 0 3.2 2 1.7-2 3.6-2 1.5 0 2.5 1.1 1 1.2 1 3.5v6.4h-2v-6.4q0-1.3-.6-2-.6-.8-1.6-.8-1.3 0-2.5 1.4m16.5 1.4v4.6q0 .6.3.6.399 0 1.2-.6v1.3q-.7.5-1.2.6-.4.2-.9.2-1.4 0-1.6-1-1.4 1-2.9 1-1.1 0-1.9-.8-.7-.7-.7-1.8 0-1 .7-1.9.699-.801 2.1-1.2l2.7-1v-.5q0-2-2-2-1.701 0-3.3 1.8v-2.3q1.2-1.5 3.6-1.5 1.7 0 2.8 1l.6.7q.3.5.3 1l.1 1.8zm-2.2 4.4v-3.2l-1.4.5q-1 .5-1.5 1-.5.3-.5 1t.4 1q.5.5 1.1.5 1 0 2-.8zm7.9-8.7v2.5l.1-.2q1.6-2.5 3.1-2.5 1.2 0 2.5 1.2l-1 2q-1.2-1.1-2.2-1.1t-1.7 1a3.57 3.57 0 0 0-.8 2.3v5.6h-2.1v-10.8zm14.5 0h2.4l-7.6 16.3h-2.4l3.7-7.8-4.2-8.5h2.4l3 6.1 2.7-6z"/><path fill="#3299CC" d="M246.5 131.4v2.3L230 127v-.5l13.4-5.4-13.4-5.4v-.5l16.5-6.6v2.4l-11.3 4.5 11.3 4.5v2.2l-11.3 4.6 11.3 4.5zm-5.6 6.1h-2.5l.2.2q2.5 1.5 2.5 3 0 1.3-1.2 2.6L238 142q1-1 1-2t-1-1.8a3.57 3.57 0 0 0-2.3-.8h-5.6v-2.1H241v2.1zm4.5 8.4q0 .5-.3.9-.4.3-1 .3-.4 0-.8-.3a1.36 1.36 0 0 1-.4-1q0-.4.4-.8t.9-.4.8.4q.4.399.4.9m-4.5-1v2H230v-2h11zm-1.7 3.6 4 4h-2.3v3.4h-2v-3.4h-5.2q-1.9 0-1.9 1.5 0 1.2.8 2.5h-2a5.63 5.63 0 0 1-.7-2.7q0-1.5.9-2.4.201-.4.6-.6l.8-.3 2-.1h4.8v-1.9zm-3.9 18.7v-7.6q-1.5.1-2.4 1-1 1-1 2.5 0 2.2 1.4 4h-2.1q-.7-1-1-2t-.3-2.3q0-1.8.8-2.9.7-1 2-1.7 1.2-.7 2.9-.7 2.4 0 4 1.4 1.5 1.4 1.5 3.6t-1.5 3.4q-1.5 1.3-4 1.3zm1.3-7.5v5.4q1.3 0 2-.8.7-.6.7-1.8 0-1.1-.7-1.9-.7-.7-2-1z"/><path stroke="#3299CC" stroke-width="4" d="m224.1 47.3 1.2 183.5"/><path fill="#3299CC" d="m220.5 230.8 4.9 12.8 4.7-12.8z"/><path stroke="#3299CC" stroke-width="4" d="m220.5 230.8 4.9 12.8 4.7-12.8z"/><path fill="#2A86C0" d="M197 229.8c0-.8-2.5-1.5-5.6-1.5H27.7c-3 0-5.6.7-5.6 1.5v42c0 .9 2.5 1.5 5.6 1.5h163.7c3.1 0 5.7-.6 5.7-1.4v-42.1"/><path fill="#fff" d="M76.5 258.2v-16.4h5.2q2.3 0 3.7 1.3 1.4 1.2 1.4 3.4 0 1.4-.7 2.5t-2 1.6q-1.2.5-3.5.5h-1.7v7.1zm4.8-14.3h-2.4v5.1h2.5q1.5 0 2.2-.7.8-.6.8-1.9 0-2.5-3.1-2.5m9.6 3.5v2.5-.2q1.6-2.5 3.2-2.5 1.2 0 2.5 1.2l-1.1 1.9q-1.1-1-2.1-1t-1.8 1q-.7 1-.7 2.3v5.6h-2.2v-10.8H91zm8.3-4.5q.5 0 .9.3.4.4.4 1a.95.95 0 0 1-.4.8q-.4.4-1 .4-.4 0-.8-.4-.3-.4-.3-.9t.3-.8q.4-.4.9-.4m-1 4.5h2v10.8h-2zm14 3v7.8H110v-6q0-1.8-.4-2.5-.5-.7-1.7-.7-.7 0-1.3.3l-1.2 1v7.9h-2.2v-10.8h2.2v1.4q1.6-1.6 3.2-1.6 2 0 3.1 2 1.8-2 3.6-2 1.6 0 2.6 1.1 1 1.2 1 3.5v6.4h-2.1v-6.4q0-1.3-.6-2-.5-.8-1.6-.8-1.3 0-2.4 1.4m16.4 1.3v4.6q0 .6.4.6.3 0 1.2-.6v1.3l-1.2.6q-.4.2-1 .2-1.3 0-1.5-1-1.4 1-3 1-1 0-1.8-.8-.8-.7-.8-1.8 0-1 .8-1.9.7-.801 2-1.2l2.8-1v-.6q0-1.9-2-1.9-1.7 0-3.4 1.8v-2.3q1.3-1.5 3.6-1.5 1.8 0 2.8 1 .4.2.6.7l.4 1v1.8zm-2.1 4.4v-3.2l-1.4.5q-1.1.5-1.6.9-.4.4-.4 1 0 .8.4 1.2t1.1.4q1 0 1.9-.8m7.9-8.7v2.5-.2q1.6-2.5 3.2-2.5 1.2 0 2.5 1.2l-1.1 1.9q-1.1-1-2.1-1t-1.8 1q-.7 1-.7 2.3v5.6h-2.2v-10.8zm14.5 0h2.4l-7.6 16.3h-2.4l3.7-7.8-4.2-8.5h2.4l3 6.1 2.7-6z"/><path fill="#5CA831" d="M197 363.7c0-.8-2.5-1.5-5.6-1.5H27.7c-3 0-5.6.7-5.6 1.5v42c0 .9 2.5 1.5 5.6 1.5h163.7c3.1 0 5.7-.6 5.7-1.4v-42"/><path fill="#FFFFFE" d="m64.7 385.4-1.8-1q-1.7-1.1-2.4-2-.7-.999-.7-2.4 0-1.9 1.4-3.1 1.3-1.2 3.4-1.2 2.101 0 3.8 1.1v2.7q-1.8-1.7-3.8-1.7-1.1 0-1.9.5-.7.6-.7 1.4 0 .7.5 1.4.6.6 1.8 1.3l1.8 1q3 1.9 3 4.6 0 2-1.4 3.2-1.3 1.3-3.4 1.3-2.4 0-4.4-1.5v-3q1.9 2.4 4.4 2.4 1.001 0 1.8-.6t.8-1.6q0-1.5-2.2-2.8m15.9 1.6H73q0 1.6 1 2.5 1 1 2.5 1 2.001 0 3.9-1.4v2.1q-1 .7-2 1-1 .2-2.3.2-1.7 0-2.8-.7t-1.8-2q-.7-1.2-.7-2.9 0-2.4 1.4-4 1.401-1.5 3.7-1.5 2.1 0 3.4 1.5 1.301 1.5 1.3 4v.3zm-7.6-1.2h5.4q0-1.3-.7-2-.699-.7-1.8-.7-1.2 0-2 .7-.699.7-.9 2m18 3.9v2.2q-1.7.6-3.2.6-2.5 0-4-1.5t-1.5-4q0-2.6 1.4-4.2 1.5-1.5 3.9-1.5l1.5.1 1.6.6v2.3q-1.599-1-3-1-1.4 0-2.4 1-.9 1-.9 2.6t1 2.6 2.7 1q1.2 0 2.8-.8zm7.5-8.2q2.5 0 4.001 1.6 1.7 1.5 1.7 4 0 2.3-1.6 3.8-1.701 1.6-4.2 1.6-2.4 0-4-1.6-1.7-1.6-1.7-4 0-2.3 1.7-3.9 1.6-1.5 4.1-1.5m-.1 1.9q-1.5 0-2.5 1t-1 2.6q0 1.5 1 2.5t2.6 1 2.501-1q1-1 1-2.6 0-1.5-1-2.5t-2.6-1m10.301-1.9v1.4q1.4-1.6 3.2-1.6 1 0 2 .5.8.5 1.2 1.4.5 1 .5 2.9v6.2h-2.1V386q0-1.6-.5-2.3-.6-.7-1.7-.7-1.5 0-2.6 1.5v7.7h-2.2v-10.8h2.2zm17.1-5.6h2.1v16.4h-4.6q-2.3 0-3.8-1.5-1.4-1.6-1.4-4.1 0-2.4 1.5-4 1.5-1.4 3.8-1.4 1.1 0 2.4.4v-5.8m0 14.5v-6.8q-1-.5-2-.5-1.6 0-2.6 1t-1 2.9q0 1.6.9 2.5.5.6 1 .8l2 .1zm11.8-4.6v4.6q0 .5.3.5.4 0 1.3-.6v1.3l-1.2.7q-.4.2-1 .2-1.3 0-1.5-1.1-1.401 1-3 1-1 0-1.8-.7-.8-.8-.8-1.9 0-.999.8-1.8.7-.8 2-1.3l2.8-1v-.5q0-2-2-2-1.7 0-3.4 1.9v-2.4q1.299-1.4 3.6-1.4 1.8 0 2.8.9.399.3.6.8l.4 1v1.8zm-2.1 4.3V387l-1.5.6q-1 .4-1.5.9-.4.4-.4 1 0 .7.4 1.1.4.5 1 .5 1.1 0 2-.9zm7.9-8.6v2.5-.2q1.6-2.5 3.2-2.5 1.2 0 2.5 1.2l-1.1 1.9q-1.2-1-2.1-1-1 0-1.8.9-.7 1-.7 2.3v5.7h-2.2v-10.8zm14.5 0h2.4l-7.6 16.3h-2.4l3.6-7.8-4.1-8.5h2.4l3 6z"/><path stroke="#3299CC" stroke-width="4" d="M224.001 259.3c-.2 42.2 54.4 48.4 67.6 16"/><path fill="#3299CC" d="m296.3 276.1-2.4-13.4-7 11.8z"/><path stroke="#3299CC" stroke-width="4" d="m296.3 276.1-2.4-13.4-7 11.8z"/><path fill="#3299CC" d="M237.299 295.3h1.6l7.4 16.4h-2.5l-2.1-4.8h-7l-2 4.8h-2.5l7-16.4zm3.4 9.5-2.6-6-2.5 6zm6.9 12.4V301h3.8q2.9 0 4.4 1.5 1.7 1.4 1.7 4 0 2.4-1.6 4-1.5 1.5-3.8 1.5-1 0-2.3-.4v5.7h-2.2zm3.7-14.3h-1.5v6.7q1 .5 2 .5 1.6 0 2.5-1 1-1.1 1-2.8 0-.999-.5-1.8a2.6 2.6 0 0 0-1.2-1.2q-.8-.4-2.3-.4m8.3 14.3V301h3.8q2.9 0 4.4 1.5 1.7 1.4 1.7 4 0 2.4-1.6 4-1.5 1.5-3.8 1.5-1 0-2.3-.4v5.7h-2.2zm3.7-14.3h-1.5v6.7q1 .5 2 .5 1.6 0 2.5-1 1-1.1 1-2.8 0-.999-.5-1.8a2.6 2.6 0 0 0-1.2-1.2q-.8-.4-2.3-.4m8.5-7.6h2.2v16.4h-2.2zm11.6 5.7h2.4l-7.6 16.2h-2.4l3.7-7.8-4.2-8.5h2.5l2.9 6.1zm38.6-31.3h16.3v4.1q0 2.5-1.2 4-1.2 1.4-3.3 1.4-1.5 0-2.5-.7t-1.6-2q-.5.801-1.4 1.5-.9.801-3 2.1l-2.2 1.4-1.1.9v-2.8l1-.7.2-.2.7-.4 1.2-.8 1.2-.8 1.7-1.3.8-1q.3-.6.3-1.7v-.6h-7.1zm14.3 3v-.6h-5.1v.9q0 1.8.3 2.4.3.7.9 1 .6.4 1.4.4t1.4-.4q.6-.399.9-1.2.2-.699.2-2.4zm-9.1 20.4v-7.6q-1.6.1-2.5 1-1 1-1 2.5 0 2.1 1.4 4h-2q-.7-1-1-2t-.3-2.3q0-1.8.7-2.9a8.8 8.8 0 0 1 2-1.8q1.3-.6 2.9-.6 2.5 0 4 1.4 1.5 1.401 1.5 3.6 0 2.1-1.5 3.4t-4 1.3zm1.2-7.5v5.4q1.3 0 2-.8.7-.699.7-1.8 0-1.2-.7-1.9t-2-1zm-11.9 9.7h16.2v3.7q0 2.901-1.4 4.5t-4 1.6q-2.4 0-4-1.6-1.5-1.5-1.5-3.8 0-1 .4-2.3h-5.7zm14.2 3.6v-1.5h-6.6q-.5 1-.5 2 0 1.6 1 2.5 1 1 2.7 1 1 0 1.9-.5a2.6 2.6 0 0 0 1.2-1.2q.3-.8.3-2.3m7.6 8.5v2.2h-16.3v-2.2zm-1 6.4q0 .501-.4.9-.399.4-.9.4-.5 0-.9-.4-.3-.4-.3-1 0-.4.3-.8.4-.4 1-.4.4 0 .8.4t.4.9m-4.6-1v2h-10.7v-2zm-8.2 13.2h-2.1q-.6-1.6-.6-3.1 0-2.5 1.5-4 1.5-1.6 4-1.6t4 1.5q1.6 1.5 1.6 3.9l-.1 1.5-.6 1.6h-2.3q1-1.599 1-3 0-1.4-1-2.4-1-.9-2.5-.9-1.7 0-2.7 1t-1 2.7q0 1.2.8 2.8m3.9 9.2h-4.4q-.6 0-.6.4t.6 1.2h-1.3l-.7-1.2-.1-.9q0-1.4 1-1.6-1-1.4-1-2.9 0-1.1.7-1.9a2.8 2.8 0 0 1 1.9-.7q1 0 1.8.7t1.3 2l1 2.8h.5q2 0 2-2 0-1.7-1.9-3.3h2.4q1.4 1.2 1.4 3.5 0 1.8-.9 2.8-.3.4-.8.7-.4.3-1 .3l-1.8.1zm-4.3-2h3.2l-.6-1.5q-.4-1.1-.8-1.6-.5-.4-1.1-.4-.7 0-1.1.4t-.4 1.1q0 1 .8 2m6.9 4 4 4h-2.3v3.4h-1.9v-3.4h-5.3q-1.8 0-1.8 1.5 0 1.2.8 2.5h-2a5.6 5.6 0 0 1-.7-2.7q0-1.5.8-2.5l.6-.5.8-.3 2-.1h4.8v-2h.2zm-3.8 18.8v-7.7q-1.6.1-2.5 1-1 1-1 2.5 0 2.1 1.4 4h-2q-.7-1-1-2t-.3-2.3q0-1.8.7-2.9a7.2 7.2 0 0 1 2-1.7q1.3-.7 2.9-.7 2.5 0 4 1.4 1.5 1.401 1.5 3.6 0 2.2-1.5 3.4-1.5 1.3-4 1.3h-.2zm1.2-7.6v5.4q1.3 0 2-.8.7-.6.7-1.8 0-1.1-.7-1.9-.7-.7-2-1z"/><path stroke="#3299CC" stroke-width="4" d="M310.5 259.3v102.5"/><path fill="#3299CC" d="m305.699 361.8 4.8 12.8 4.8-12.8z"/><path stroke="#3299CC" stroke-width="4" d="m305.699 361.8 4.8 12.8 4.8-12.8z"/><path stroke="#5A5955" stroke-width="4" d="M197.6 42h300"/><path stroke="#3299CC" stroke-width="4" d="M198.4 253.3h300"/><path stroke="#5BA831" stroke-width="4" d="M198.4 384.6h300"/><path stroke="#2A86C0" stroke-dasharray="8 8" stroke-width="4" d="m381.4 378.2.5-102.5"/><path fill="#2A86C0" d="m386.7 275.7-4.7-12.8-4.9 12.7z"/><path stroke="#2A86C0" stroke-width="4" d="m386.7 275.7-4.7-12.8-4.9 12.7z"/><path fill="#5CA831" d="M197 473.5c0-.8-2.5-1.4-5.6-1.4H27.7c-3 0-5.6.6-5.6 1.4v42.1c0 .8 2.5 1.5 5.6 1.5h163.7c3.1 0 5.7-.7 5.7-1.5v-42"/><path fill="#FFFFFE" d="m64.7 495.2-1.8-1q-1.7-1-2.4-2t-.7-2.3q0-2 1.4-3.2 1.3-1.2 3.4-1.2 2.101 0 3.8 1.2v2.6q-1.8-1.7-3.8-1.7-1.1 0-1.9.6-.7.5-.7 1.3t.5 1.4q.6.7 1.8 1.4l1.8 1q3 1.8 3 4.6 0 2-1.4 3.2-1.3 1.2-3.4 1.2-2.4 0-4.4-1.5v-3q1.9 2.4 4.4 2.4 1.001 0 1.8-.6t.8-1.5q0-1.5-2.2-2.9m15.9 1.8H73q0 1.5 1 2.4t2.5.9q2.001 0 3.9-1.3v2q-1 .7-2 1t-2.3.3q-1.7 0-2.8-.8-1.1-.7-1.8-2-.7-1.2-.7-2.8 0-2.5 1.4-4 1.401-1.6 3.7-1.6 2.1 0 3.4 1.5 1.301 1.5 1.3 4v.4m-7.6-1.4h5.4q0-1.2-.7-2-.699-.6-1.8-.6-1.2 0-2 .7-.699.7-.9 2zm18 4v2.1q-1.7.6-3.2.6-2.5 0-4-1.5t-1.5-4q0-2.6 1.4-4.1 1.5-1.6 3.9-1.6.801 0 1.5.2.6.1 1.6.6v2.2q-1.599-1-3-1-1.4 0-2.4 1-.9 1-.9 2.6 0 1.7 1 2.6 1 1 2.7 1 1.2 0 2.8-.7zm7.5-8.3q2.5 0 4.001 1.6 1.7 1.6 1.7 4 0 2.3-1.6 3.9-1.701 1.5-4.2 1.5-2.4 0-4-1.6-1.7-1.5-1.7-3.9 0-2.3 1.7-4 1.6-1.5 4.1-1.5m-.1 2q-1.5 0-2.5 1t-1 2.5 1 2.5 2.6 1 2.501-1q1-1 1-2.5 0-1.6-1-2.6t-2.6-1zm10.301-2v1.4q1.4-1.6 3.2-1.6 1 0 2 .5.8.6 1.2 1.5.5.9.5 2.8v6.2h-2.1V496q0-1.7-.5-2.4-.6-.7-1.7-.7-1.5 0-2.6 1.5v7.7h-2.2v-10.8zm17.1-5.6h2.1v16.4h-4.6q-2.3 0-3.8-1.5-1.4-1.5-1.4-4 0-2.4 1.5-4 1.5-1.5 3.8-1.5 1.1 0 2.4.5zm0 14.6v-6.9q-1-.5-2-.5-1.6 0-2.6 1-1 1.1-1 2.9 0 1.7.9 2.6.5.5 1 .7.6.2 2 .2zm11.8-4.7v4.6q0 .6.3.6.4 0 1.3-.6v1.3l-1.2.6q-.4.2-1 .2-1.3 0-1.5-1-1.401 1-3 1-1 0-1.8-.8-.8-.7-.8-1.8 0-1 .8-1.9.7-.8 2-1.2l2.8-1v-.5q0-2-2-2-1.7 0-3.4 1.8v-2.3q1.299-1.5 3.6-1.5 1.8 0 2.8 1 .399.2.6.7l.4 1v1.8zm-2.1 4.4v-3.2l-1.5.5q-1 .5-1.5 1-.4.3-.4 1t.4 1q.4.5 1 .5 1.1 0 2-.8m7.9-8.7v2.5-.2q1.6-2.5 3.2-2.5 1.2 0 2.5 1.2l-1.1 2q-1.2-1.1-2.1-1.1-1 0-1.8 1-.7 1-.7 2.3v5.6h-2.2v-10.8zm14.5 0h2.4l-7.6 16.3h-2.4l3.6-7.8-4.1-8.5h2.4l3 6.1 2.7-6z"/><path stroke="#5BA831" stroke-width="4" d="M198.4 495h300"/><path fill="#3299CC" d="M417 269.7h16.3v4.1q0 2.5-1.2 4-1.2 1.4-3.3 1.4-1.5 0-2.5-.7t-1.6-2q-.5.801-1.4 1.5-.9.801-3 2.1l-2.2 1.4-1.1.9v-2.8l1-.7.2-.2.7-.4 1.2-.8 1.3-.8 1.6-1.3.8-1q.3-.6.3-1.7v-.6H417zm14.3 3v-.6h-5.1v.9q0 1.8.3 2.4.3.7.9 1 .6.4 1.4.4t1.4-.4q.6-.399.9-1.2.2-.699.2-2.4zm-9.1 20.4v-7.6q-1.6.1-2.5 1-1 1-1 2.5 0 2.1 1.4 4h-2q-.7-1-1-2t-.3-2.3q0-1.8.7-2.9.8-.999 2-1.8 1.3-.6 3-.6 2.4 0 3.9 1.4 1.6 1.401 1.6 3.6 0 2.1-1.5 3.4t-4 1.3zm1.2-7.5v5.4q1.3 0 2-.8.7-.699.7-1.8 0-1.2-.7-1.9t-2-1zm-11.9 9.7h16.2v3.7q0 2.901-1.4 4.5t-4 1.6q-2.4 0-4-1.6-1.5-1.5-1.5-3.8 0-1 .4-2.3h-5.7zm14.2 3.6v-1.5h-6.6q-.5 1-.5 2 0 1.6 1 2.5 1.1 1 2.7 1 1 0 1.9-.5a2.6 2.6 0 0 0 1.2-1.2q.3-.8.3-2.3m7.6 8.5v2.2H417v-2.2zm-1 6.4q0 .501-.4.9-.4.4-.9.4t-.9-.4q-.3-.4-.3-1 0-.4.3-.8.4-.4 1-.4.4 0 .8.4t.4.9m-4.6-1v2H417v-2zm-8.2 13.2h-2.1q-.6-1.6-.6-3.1 0-2.5 1.5-4 1.5-1.6 4-1.6t4 1.5q1.7 1.5 1.7 3.9 0 .801-.2 1.5l-.6 1.6h-2.3q1-1.599 1-3 0-1.4-1-2.4-1-.9-2.5-.9-1.7 0-2.7 1t-1 2.7q0 1.2.8 2.8m3.9 9.2H419q-.6 0-.6.4t.6 1.2h-1.3l-.7-1.2-.1-.9q0-1.4 1-1.6-1-1.4-1-2.9 0-1.1.7-1.9.8-.7 2-.7 1 0 1.7.7.8.7 1.3 2l1 2.8h.5q2 0 2-2 0-1.7-1.8-3.3h2.3q1.5 1.2 1.5 3.5 0 1.8-1 2.8l-.7.7q-.5.3-1 .3l-1.9.1zm-4.3-2h3.2l-.6-1.5q-.4-1.1-.8-1.6-.5-.4-1.1-.4-.7 0-1.1.4t-.4 1.1q0 1 .8 2m6.9 4 4 4h-2.3v3.4h-1.9v-3.4h-5.3q-1.8 0-1.8 1.5 0 1.2.8 2.5h-2a5.6 5.6 0 0 1-.7-2.7q0-1.5.8-2.5l.6-.5.8-.3 2-.1h4.8v-2h.2zm-3.8 18.8v-7.7q-1.6.1-2.5 1-1 1-1 2.5 0 2.1 1.4 4h-2q-.7-1-1-2t-.3-2.3q0-1.8.7-2.9a7.1 7.1 0 0 1 2-1.7q1.3-.7 3-.7 2.4 0 3.9 1.4 1.6 1.401 1.6 3.6 0 2.2-1.5 3.4-1.5 1.3-4 1.3h-.3zm1.2-7.6v5.4q1.3 0 2-.8.7-.6.7-1.8 0-1.1-.7-1.9-.7-.7-2-1z"/><path stroke="#3299CC" stroke-width="4" d="M403.5 259.3 402 474.2"/><path fill="#3299CC" d="m397.301 474.2 4.7 12.8 5-12.8z"/><path stroke="#3299CC" stroke-width="4" d="m397.301 474.2 4.7 12.8 5-12.8z"/><path fill="#3299CC" d="m215.001 83.5-8.2 1.7v1.1l5.3 1.5-5.3 1.5v1.2c2.7.6 5.5 1 8.2 1.4v-1.2c-1 0-1.9 0-6.5-.8l5.8-1.7v-.8l-5.9-1.4 6-1.2h.7v-1.3zm0 10.5h-8.2v1.3h4c.5 0 1 0 2 .6 1.1.8 1.3 1.7 1.3 2.3 0 .7-.3 1.1-.6 1.4l-.4.3 1.2.6a3 3 0 0 0 1-2.2c0-1.2-.7-2.4-1.8-3h1.5zm0 9.2h-1v2h-6.1V103h-1v5.3h1v-2h7.2v-3.2zm3.6 2.6c0-.5-.4-1-.9-1a.997.997 0 0 0-1 1c0 .5.5 1 1 1s1-.5 1-1zm-1.3 7.8-2.3-.1v-2h-1v2c-1.4-.2-2.8-.2-4.2-.2-.8 0-1.6 0-2.3.4-.5.4-.8 1-.8 2 0 .9.4 1.8.9 2.5l1-.4c-.5-.7-.7-1.3-.7-1.8 0-.6.3-1.3 1.3-1.4h1.6l3.2.1v2.7h1v-2.7l2 .2c.2 0 .3.2.5.1zm-2.1 10.3c0-2-1.4-3.8-4.4-3.8-2.7 0-4.2 1.7-4.2 4a4 4 0 0 0 1.3 2.9l.7-.7c-.6-.6-1-1.4-1-2.2 0-1 .7-2.7 3.2-2.8v5.9h1.5c2.2-.5 3-2 3-3.3zm-3.5-2.5c2 .2 2.5 1.5 2.5 2.4a2 2 0 0 1-2.5 2zm6.4 11.8c0-1.7-1.2-4.2-5.7-4.2-4.4 0-5.8 2.4-5.8 4.2 0 1.4.7 2.6 1.9 3.3l.6-1a2.796 2.796 0 0 1-1.4-2.2c0-1.6 1.7-3.1 4.8-3.1 3 0 4.6 1.4 4.6 3 0 .9-.5 1.7-1.3 2.1l-.2.1h-.3l.6 1.3c1.4-.6 2.2-2 2.2-3.5m-7.2 12.3c2.8 0 4.3-1.8 4.3-3.6 0-2.1-1.8-4-4.3-4s-4.3 1.9-4.3 4c0 1.9 1.6 3.6 4.3 3.6m3.2-3.7c0 1.2-1 2.4-3.3 2.4-2 0-3-1.2-3-2.4 0-1.3 1.2-2.5 3.2-2.5s3.1 1.2 3.1 2.5m-7.3 5.6v1.4h4.8c.5 0 1 0 1.4.4.4.3 1.1 1 1.1 2 0 .3-.2.8-.5 1-.5.5-1.2.5-1.8.5h-5v1.3h5c.6 0 1.3 0 2-.3 1-.4 1.4-1.3 1.4-2.2 0-1.1-.7-2.1-1.6-2.7h1.4v-1.4zm6.9 16c1-.6 1.5-1.7 1.5-3 0-2.5-1.8-4.2-4.3-4.2-2.4 0-4.3 1.7-4.3 4 0 1.2.5 2.3 1.3 3.1l.9-.7a3 3 0 0 1-1-2.2c0-1.6 1.3-2.8 3.3-2.8 1.8 0 3 1.2 3 2.7 0 1.4-1 2-1 2.1l-.5.1 1 1zm1.5 5.5c0-2-1.4-3.8-4.4-3.8-2.7 0-4.2 1.7-4.2 4a4 4 0 0 0 1.3 2.9l.7-.7c-.6-.6-1-1.4-1-2.2 0-1 .7-2.7 3.2-2.8v5.9h1.5c2.2-.5 3-2 3-3.3zm-3.5-2.5c2 .2 2.5 1.5 2.5 2.4a2 2 0 0 1-2.5 2zm3.3 8.6h-8.2v1.3h4c.5 0 1 0 2 .6 1.1.8 1.3 1.7 1.3 2.3 0 .7-.3 1.1-.6 1.4l-.4.3 1.2.6a3 3 0 0 0 1-2.2c0-1.2-.7-2.4-1.8-3h1.5zm-8.2 8.5v1.3h4.8c.5 0 1 0 1.4.4.4.3 1.1 1.1 1.1 2 0 .4-.2.8-.5 1-.5.5-1.2.5-1.8.5h-5v1.3h5c.6 0 1.3 0 2-.3 1-.4 1.4-1.2 1.4-2.2s-.7-2.1-1.6-2.7h1.4v-1.3zm6.6 13.1c.6 0 1-.5 1-1 0-.7-.4-1.1-1-1.1a.997.997 0 0 0-1 1c0 .6.4 1.1 1 1.1m-5.7 0c.5 0 1-.5 1-1 0-.7-.5-1.1-1-1.1a.997.997 0 0 0-1 1c0 .6.4 1.1 1 1.1m-15.7-131.8h-1v.4c0 .3 0 .8-.4 1.2-.4.3-1 .4-1.7.4h-1.8c-.6 0-1.9 0-2.6 1-.6.8-.5 1.7-.5 2.8v.6h1v-.6c0-.8 0-1.3.3-1.8.4-.7 1.2-.8 1.8-.8h1.5c2 0 2.6-.7 2.8-1.4.3.5.7 1 1.2 1.3.5.2 1 .2 1.5.2h1.3c.3 0 1.2 0 1.6.7.3.5.3 1 .3 1.8v.7h1v-.6c0-1 0-2.1-.7-3-.8-.8-1.8-.9-2.5-.9h-1.1c-.5 0-1.1 0-1.6-.4-.4-.4-.4-.9-.4-1.2zm3 17.4-8.2 1.6V85l5.3 1.4-5.3 1.6v1.2l8.2 1.4v-1.2c-1 0-1.9 0-6.5-.8l5.8-1.7V86l-5.9-1.5 6-1.1h.7v-1.3zm-1.6 14.1c.6 0 1-.5 1-1.1s-.4-1-1-1a1 1 0 0 0-1 1c0 .6.4 1 1 1zm-5.7 0c.5 0 1-.5 1-1.1a1.002 1.002 0 0 0-1.707-.707 1 1 0 0 0-.293.707c0 .6.4 1 1 1zm10 19.7c.8 0 1.1-.4 1.1-.8 0-.3-.3-.7-1-.7h-1.1l-1-.1-1.2-.4-.3 1 1.2.4a7 7 0 0 0 2.3.6m0-3c.8 0 1.1-.5 1.1-.9 0-.3-.3-.7-1-.7h-1.1a3 3 0 0 1-1-.1l-1.2-.4-.3 1 1.2.4c1.3.5 1.8.6 2.3.6zm-10.9 5.6v1.2h5.5c.4 0 .8 0 1.2.2.5.3.7.7.7 1s-.1.6-.6.8h-6.8v1.3h5.5c.4 0 .7 0 1.3.3.2.2.7.5.7 1 0 .2-.2.5-.5.6-.3.2-.8.1-1.2.1h-5.8v1.3h5.9c.6 0 1.3 0 1.9-.4.5-.3.6-.8.6-1.2a2 2 0 0 0-1.1-1.9c.6-.1 1.1-.7 1.1-1.4s-.4-1.4-1-1.7h.8v-1.2zm7.2 9.9-.7.7c.7.6.9 1.6.9 2.3 0 1-.4 1.5-.8 1.7-.5.3-1 .3-1.4.3h-.3v-.3c0-1.2 0-2.5-.4-3.5-.5-1.3-1.4-2-2.3-2-1.3 0-2.4 1.1-2.4 2.8a5 5 0 0 0 1.1 3h-.9v1.2h5.1c.7 0 1.3 0 2-.4.9-.5 1.3-1.6 1.3-2.8a4 4 0 0 0-.238-1.615 4 4 0 0 0-.862-1.385zm-3.3 5h-.6c-.4 0-1 0-1.5-.5-.3-.3-1-1.1-1-2.2 0-1 .7-1.7 1.4-1.7.6 0 1.3.4 1.6 1.4v3zm4.3 4.6h-1v3.1h-6.8a3 3 0 0 1-1.4-.2 2 2 0 0 1-1-1.7c0-1 .7-1.5.8-1.6l.3-.1-1-.9a3 3 0 0 0-1.2 2.5c0 1.2.5 2.4 1.6 3 .7.3 1.4.3 2 .3h7.8v-4.4zm3.6 3.8c0-.6-.4-1-.9-1-.2.066-.374.193-.498.363a1.005 1.005 0 0 0 0 1.173c.124.171.298.298.498.364.5 0 1-.4 1-1zm-7.7 11.3c2.8 0 4.3-1.8 4.3-3.7 0-2.1-1.8-3.9-4.3-3.9s-4.3 1.8-4.3 3.8 1.6 3.8 4.3 3.8m3.2-3.8c0 1.2-1 2.4-3.3 2.4-2 0-3-1.1-3-2.3 0-1.3 1.2-2.5 3.2-2.5s3.1 1.1 3.1 2.4m.9 6.2h-8.2v1.3h4c.5 0 1 0 2 .6 1.1.8 1.3 1.7 1.3 2.3 0 .7-.3 1.1-.6 1.4l-.4.3 1.2.6a3 3 0 0 0 1-2.2c0-1.2-.7-2.4-1.8-3h1.5zm0 9.1h-1v2h-6.1v-2h-1v5.3h1v-2h7.2v-3.3zm3.6 2.7c0-.5-.4-1-.9-1a.997.997 0 0 0-1 1c0 .5.5 1 1 1s1-.5 1-1zm-1.3 7.8-2.3-.1v-2h-1v2l-4.2-.3c-.8 0-1.6 0-2.3.5-.5.4-.8 1-.8 1.9 0 1 .4 2 .9 2.6l1-.4c-.5-.7-.7-1.3-.7-1.8 0-.6.3-1.3 1.3-1.4h1.6l3.2.1v2.7h1v-2.7l2 .2c.2 0 .3.2.5.1zm-2.3 6.4-8.2 3.4-.5-.3c-.4-.2-.7-.3-1-.6-.4-.3-.5-.7-.5-1.1 0-.6.4-1 .4-1l.4-.1-1.2-.7c-.5.5-.7 1.1-.7 1.8s.3 1.5.9 2c.4.4.8.6 1.3.8l6.8 2.5 2.4.8v-1.3l-2.2-.6-4.4-1.6 6-2.4h.5zm2.7 15.4c.8 0 1.1-.5 1.1-.9 0-.3-.3-.8-1-.8l-1.1.2-1-.2-1.2-.4-.3 1 1.2.4a7 7 0 0 0 2.3.6zm0-3.2c.8 0 1.1-.4 1.1-.8 0-.3-.3-.7-1-.7h-1.1a3 3 0 0 1-1-.1l-1.2-.4-.3 1 1.2.4c1.3.5 1.8.6 2.3.6m-5.7 22.1v-.4c0-.3 0-.8.3-1.2.5-.4 1.1-.5 1.6-.5h1.2c.7 0 1.7 0 2.5-.8.8-.9.7-2 .7-3v-.5h-1v.6c0 .8 0 1.3-.3 1.8-.4.7-1.3.7-1.6.7h-1.4c-.4 0-1 0-1.5.2-.522.303-.94.756-1.2 1.3-.2-.6-.9-1.5-2.8-1.5h-1.5c-.6 0-1.4 0-1.8-.7-.4-.5-.3-1-.3-1.8v-.6h-1v.6c0 1.1 0 2 .5 2.8.7 1 2 1 2.6 1h1.8c.8 0 1.3.1 1.7.4.3.4.3.9.3 1.2v.4h1.2"/><path stroke="#3299CC" stroke-width="4" d="M381.6 248.6V65"/><path fill="#3299CC" d="m386.401 65-4.8-12.8-4.8 12.8z"/><path stroke="#3299CC" stroke-width="4" d="m386.401 65-4.8-12.8-4.8 12.8z"/><path fill="#3299CC" d="M387.299 99.8h16.4v4.1q0 2.5-1.2 4-1.3 1.4-3.4 1.4-1.4 0-2.4-.7t-1.6-2q-.5.699-1.4 1.5-.9.7-3.1 2l-2.1 1.5-1.2.8v-2.8l1.1-.7.2-.1.6-.5 1.2-.7 1.3-.8 1.6-1.3.9-1.1q.2-.5.2-1.6v-.6h-7v-2.4zm14.4 3v-.6h-5.2v.8q0 1.8.3 2.5.3.6 1 1 .6.4 1.4.4.7 0 1.4-.4.6-.4.8-1.2.3-.7.3-2.4zm-9.2 20.4v-7.6q-1.5 0-2.4 1-1 1-1 2.5 0 2.1 1.4 3.9h-2.1q-.7-1-1-2-.2-1-.2-2.2 0-1.8.7-3 .7-1 2-1.7 1.2-.7 2.9-.7 2.4 0 4 1.4 1.5 1.4 1.5 3.7 0 2.1-1.5 3.4t-4 1.3zm1.3-7.6v5.5q1.3-.1 2-.8t.7-1.8q0-1.2-.7-2-.7-.6-2-.9m-5.8 9.4h2.4a7.8 7.8 0 0 0-1 1.8q-.4 1-.4 1.6t.3 1.1.8.5.8-.3l.9-1.4q1.1-2.001 2-2.7.7-.6 1.7-.6 1.2 0 2 1t.8 2.5-.9 3.2h-2q1-1.9 1-3.1 0-.6-.2-1-.3-.4-.7-.4t-.7.4q-.4.3-.8 1.2l-.5.7q-1.5 2.7-3.3 2.7-1.4 0-2.2-1-.9-1-.9-2.7 0-1 .2-1.7l.8-1.9zm-6.2 9.5h16.3v3.7q0 3-1.4 4.5-1.5 1.6-4 1.6-2.4 0-4-1.5t-1.7-3.8q0-1 .5-2.3h-5.8v-2.2zm14.3 3.7v-1.5h-6.6q-.5 1-.5 2 0 1.6 1 2.5 1 1 2.7 1 1 0 1.9-.5.8-.4 1.1-1.2.4-.8.4-2.3m2 13.6q0 2.5-1.6 4-1.6 1.7-4 1.7-2.3 0-3.8-1.6-1.6-1.701-1.6-4.2 0-2.4 1.6-4 1.6-1.7 4-1.7 2.3 0 3.8 1.7 1.6 1.6 1.6 4.1m-1.9-.1q0-1.5-1-2.5t-2.6-1q-1.5 0-2.5 1t-1 2.6 1 2.5q1 1 2.6 1 1.5 0 2.5-1t1-2.6m1.9 10.3h-1.4q1.6 1.4 1.6 3.2 0 1-.5 2-.5.8-1.4 1.2-.999.5-3 .5h-6v-2.1h6q1.701 0 2.4-.5.7-.5.7-1.7 0-1.5-1.5-2.6h-7.7v-2.2h10.8zm-10.1 9.3h2.4l-1 1.9q-.4 1-.4 1.6t.3 1.1.8.5.8-.3l.9-1.3q1.1-2.1 2-2.8.7-.6 1.7-.6 1.2 0 2 1t.8 2.5-.9 3.2h-2q1-1.9 1-3 0-.7-.2-1.1-.3-.4-.7-.4t-.7.4q-.4.3-.8 1.2l-.5.7q-1.5 2.7-3.3 2.7-1.4 0-2.2-1-.9-1-.9-2.7 0-1 .2-1.7l.8-1.9zm4.5 18.9v-7.5q-1.5 0-2.4 1-1 1-1 2.5 0 2 1.4 3.9h-2.1q-.7-1-1-2-.2-1-.2-2.3 0-1.7.7-2.8.7-1.101 2-1.8 1.2-.7 2.9-.7 2.4 0 4 1.4 1.5 1.4 1.5 3.6t-1.5 3.5q-1.5 1.2-4 1.2zm1.3-7.5v5.4q1.3 0 2-.7t.7-1.9q0-1.101-.7-1.8-.7-.8-2-1"/><path stroke="#3299CC" stroke-width="4" d="M312.301 386.4c-.1 42.2 54.4 48.5 67.7 16"/><path fill="#3299CC" d="m384.699 403.3-2.5-13.5-7 11.8z"/><path stroke="#3299CC" stroke-width="4" d="m384.699 403.3-2.5-13.5-7 11.8z"/><path fill="#3299CC" d="M325.6 422.4h1.7l7.3 16.5h-2.4L330 434h-7l-2 4.9h-2.4zm3.5 9.5-2.7-6-2.4 6h5.1m6.9 12.5V428h3.7q2.9 0 4.5 1.4t1.6 4q0 2.4-1.5 4-1.5 1.5-3.8 1.5-1 0-2.3-.4v5.8H336zm3.7-14.3h-1.5v6.6q1 .5 2 .5 1.5 0 2.5-1 1-.999 1-2.7 0-1-.5-1.9-.501-.8-1.2-1.2-.8-.3-2.3-.3m8.3 14.3V428h3.7q2.9 0 4.5 1.4t1.6 4q0 2.4-1.5 4-1.5 1.5-3.8 1.5-1 0-2.3-.4v5.8H348zm3.7-14.3h-1.5v6.6q1 .5 2 .5 1.5 0 2.5-1 1-.999 1-2.7 0-1-.5-1.9-.501-.8-1.2-1.2-.8-.3-2.3-.3m8.5-7.6h2.1v16.4h-2.1zm11.6 5.5h2.4l-7.6 16.4h-2.4l3.7-7.8-4.2-8.5h2.4l3 6 2.7-6z"/></svg>