<?xml version="1.0" encoding="UTF-8"?>
<!DOCTYPE svg PUBLIC "-//W3C//DTD SVG 1.1//EN" "http://www.w3.org/Graphics/SVG/1.1/DTD/svg11.dtd">
<svg version="1.1" xmlns="http://www.w3.org/2000/svg" xmlns:xlink="http://www.w3.org/1999/xlink" x="0px" y="0px" width="810" height="400" viewBox="0, 0, 810, 400">
  <g id="Layer 1">
    <g>
      <g>
        <path d="M8.859,42.652 L193.216,42.652 L193.216,351.555 L8.859,351.555 z" fill="#FFFFFF"/>
        <path d="M8.859,42.652 L193.216,42.652 L193.216,351.555 L8.859,351.555 z" fill-opacity="0" stroke="#173182" stroke-width="1"/>
      </g>
      <path d="M8.859,86.781 L193.216,86.781" fill-opacity="0" stroke="#173182" stroke-width="1"/>
      <path d="M8.859,175.039 L193.216,175.039" fill-opacity="0" stroke="#173182" stroke-width="1"/>
      <path d="M8.859,130.91 L193.216,130.91" fill-opacity="0" stroke="#173182" stroke-width="1"/>
      <path d="M8.859,219.168 L193.216,219.168" fill-opacity="0" stroke="#173182" stroke-width="1"/>
      <path d="M8.859,263.297 L193.216,263.297" fill-opacity="0" stroke="#173182" stroke-width="1"/>
      <path d="M8.859,307.426 L193.216,307.426" fill-opacity="0" stroke="#173182" stroke-width="1"/>
    </g>
    <text transform="matrix(1, 0, 0, 1, 100.848, 66.732)">
      <tspan x="-87.489" y="3.436" font-family="Inconsolata" font-size="18" fill="#173182">{ status: "A", ...}</tspan>
    </text>
    <text transform="matrix(1, 0, 0, 1, 100.848, 111.199)">
      <tspan x="-87.489" y="2.074" font-family="Inconsolata" font-size="18" fill="#26408C">{ status: "A", ...}</tspan>
    </text>
    <text transform="matrix(1, 0, 0, 1, 100.779, 198.888)">
      <tspan x="-87.557" y="3.105" font-family="Inconsolata" font-size="18" fill="#173182">{ status: "P", ...}</tspan>
    </text>
    <text transform="matrix(1, 0, 0, 1, 100.848, 154.211)">
      <tspan x="-87.489" y="2.617" font-family="Inconsolata" font-size="18" fill="#1A3485">{ status: "D", ...}</tspan>
    </text>
    <text transform="matrix(1, 0, 0, 1, 102.409, 367.125)">
      <tspan x="-22.534" y="6.5" font-family="GillSans" font-size="21" fill="#2A86C0">users</tspan>
    </text>
    <text transform="matrix(1, 0, 0, 1, 262.008, 236.928)">
      <tspan x="-65.496" y="1.905" font-family="Inconsolata" font-size="21" fill="#2A86C0">{status:"D"}</tspan>
    </text>
    <g>
      <path d="M202.508,197.045 L301.509,197.142" fill-opacity="0" stroke="#2A86C0" stroke-width="6"/>
      <path d="M301.503,203.142 L317.509,197.157 L301.514,191.142 z" fill="#2A86C0" fill-opacity="1" stroke="#2A86C0" stroke-width="6" stroke-opacity="1"/>
    </g>
    <text transform="matrix(1, -0, 0, 1, 100.779, 18.294)">
      <tspan x="-44.302" y="6.5" font-family="GillSans" font-size="21" fill="#2A86C0">Collection</tspan>
    </text>
    <text transform="matrix(1, 0, 0, 1, 261.206, 173.447)">
      <tspan x="-30.038" y="5.436" font-family="GillSans" font-size="21" fill="#2A86C0">Query</tspan>
    </text>
    <text transform="matrix(1, 0, 0, 1, 100.779, 242.787)">
      <tspan x="-87.489" y="2.617" font-family="Inconsolata" font-size="18" fill="#1A3485">{ status: "D", ...}</tspan>
    </text>
    <text transform="matrix(1, 0, 0, 1, 100.779, 286.544)">
      <tspan x="-87.489" y="2.617" font-family="Inconsolata" font-size="18" fill="#1A3485">{ status: "D", ...}</tspan>
    </text>
    <text transform="matrix(1, 0, 0, 1, 100.848, 331.228)">
      <tspan x="-87.489" y="2.074" font-family="Inconsolata" font-size="18" fill="#26408C">{ status: "A", ...}</tspan>
    </text>
    <g>
      <g>
        <g>
          <path d="M334.325,42.652 L522.424,42.652 L522.424,351.555 L334.325,351.555 z" fill-opacity="0" stroke="#173182" stroke-width="1"/>
          <path d="M334.325,86.781 L522.424,86.781" fill-opacity="0" stroke="#173182" stroke-width="1"/>
          <path d="M334.325,175.039 L522.424,175.039" fill-opacity="0" stroke="#173182" stroke-width="1"/>
          <path d="M334.325,130.91 L522.424,130.91" fill-opacity="0" stroke="#173182" stroke-width="1"/>
          <path d="M334.325,219.168 L522.424,219.168" fill-opacity="0" stroke="#173182" stroke-width="1"/>
          <path d="M334.325,263.297 L522.424,263.297" fill-opacity="0" stroke="#173182" stroke-width="1"/>
          <path d="M334.325,307.426 L522.424,307.426" fill-opacity="0" stroke="#173182" stroke-width="1"/>
        </g>
        <text transform="matrix(1, 0, 0, 1, 426.315, 66.732)">
          <tspan x="-87.489" y="3.436" font-family="Inconsolata" font-size="18" fill="#173182">{ status: "A", ...}</tspan>
        </text>
        <text transform="matrix(1, 0, 0, 1, 426.315, 111.199)">
          <tspan x="-87.489" y="2.074" font-family="Inconsolata" font-size="18" fill="#26408C">{ status: "A", ...}</tspan>
        </text>
        <text transform="matrix(1, 0, 0, 1, 426.247, 198.888)">
          <tspan x="-87.557" y="3.105" font-family="Inconsolata" font-size="18" fill="#173182">{ status: "P", ...}</tspan>
        </text>
        <text transform="matrix(1, 0, 0, 1, 426.315, 154.211)">
          <tspan x="-87.489" y="2.617" font-family="Inconsolata" font-size="18" fill="#1A3485">{ status: "D", ...}</tspan>
        </text>
        <text transform="matrix(1, 0, 0, 1, 426.247, 242.787)">
          <tspan x="-87.489" y="2.617" font-family="Inconsolata" font-size="18" fill="#1A3485">{ status: "D", ...}</tspan>
        </text>
        <text transform="matrix(1, 0, 0, 1, 426.247, 286.544)">
          <tspan x="-87.489" y="2.617" font-family="Inconsolata" font-size="18" fill="#1A3485">{ status: "D", ...}</tspan>
        </text>
        <text transform="matrix(1, 0, 0, 1, 426.315, 331.228)">
          <tspan x="-87.489" y="2.074" font-family="Inconsolata" font-size="18" fill="#26408C">{ status: "A", ...}</tspan>
        </text>
      </g>
      <g opacity="0.33">
        <path d="M334.401,131.371 L522.5,131.371 L522.5,175.5 L334.401,175.5 z" fill="#2A86C0"/>
        <path d="M334.401,131.371 L522.5,131.371 L522.5,175.5 L334.401,175.5 z" fill-opacity="0" stroke="#000A27" stroke-width="1"/>
      </g>
      <g opacity="0.33">
        <path d="M334.401,219.223 L522.5,219.223 L522.5,263.352 L334.401,263.352 z" fill="#2A86C0"/>
        <path d="M334.401,219.223 L522.5,219.223 L522.5,263.352 L334.401,263.352 z" fill-opacity="0" stroke="#000A27" stroke-width="1"/>
      </g>
      <g opacity="0.33">
        <path d="M334.401,263.98 L522.5,263.98 L522.5,308.109 L334.401,308.109 z" fill="#2A86C0"/>
        <path d="M334.401,263.98 L522.5,263.98 L522.5,308.109 L334.401,308.109 z" fill-opacity="0" stroke="#000A27" stroke-width="1"/>
      </g>
    </g>
    <g>
      <path d="M528.284,197.045 L587.284,197.045" fill-opacity="0" stroke="#2A86C0" stroke-width="6"/>
      <path d="M587.284,203.045 L603.284,197.045 L587.284,191.045 z" fill="#2A86C0" fill-opacity="1" stroke="#2A86C0" stroke-width="6" stroke-opacity="1"/>
    </g>
    <text transform="matrix(1, 0, 0, 1, 571.805, 173.834)">
      <tspan x="-37.536" y="5.38" font-family="GillSans" font-size="21" fill="#2A86C0">remove</tspan>
    </text>
    <g>
      <path d="M616.286,108.604 L804.385,108.604 L804.385,285.12 L616.286,285.12 z" fill="#FFFFFF"/>
      <path d="M616.286,108.604 L804.385,108.604 L804.385,285.12 L616.286,285.12 z" fill-opacity="0" stroke="#173182" stroke-width="1"/>
    </g>
    <path d="M616.286,196.862 L804.385,196.862" fill-opacity="0" stroke="#173182" stroke-width="1"/>
    <path d="M616.286,152.733 L804.385,152.733" fill-opacity="0" stroke="#173182" stroke-width="1"/>
    <path d="M616.286,240.991 L804.385,240.991" fill-opacity="0" stroke="#173182" stroke-width="1"/>
    <text transform="matrix(1, 0, 0, 1, 708.276, 133.022)">
      <tspan x="-87.489" y="2.074" font-family="Inconsolata" font-size="18" fill="#26408C">{ status: "A", ...}</tspan>
    </text>
    <text transform="matrix(1, 0, 0, 1, 708.208, 220.711)">
      <tspan x="-87.557" y="3.105" font-family="Inconsolata" font-size="18" fill="#173182">{ status: "P", ...}</tspan>
    </text>
    <text transform="matrix(1, 0, 0, 1, 708.207, 264.007)">
      <tspan x="-87.489" y="2.074" font-family="Inconsolata" font-size="18" fill="#26408C">{ status: "A", ...}</tspan>
    </text>
    <text transform="matrix(1, 0, 0, 1, 708.208, 175.889)">
      <tspan x="-87.489" y="3.436" font-family="Inconsolata" font-size="18" fill="#173182">{ status: "A", ...}</tspan>
    </text>
    <text transform="matrix(1, 0, 0, 1, 708.207, 299)">
      <tspan x="-22.534" y="6.5" font-family="GillSans" font-size="21" fill="#2A86C0">users</tspan>
    </text>
    <text transform="matrix(1, -0, 0, 1, 702.563, 84.797)">
      <tspan x="-44.302" y="6.5" font-family="GillSans" font-size="21" fill="#2A86C0">Collection</tspan>
    </text>
  </g>
  <defs/>
</svg>
