<svg xmlns="http://www.w3.org/2000/svg" viewBox="0, 0, 640, 70" height="70" width="640"><g font-size="24" font-family="Inconsolata"><path d="M6.3 10h3.5q1.8 0 2.9.6 1 .4 1.9 1.5 1.4 2 1.4 5.5-.1 3.6-1.6 5.6-1.6 1.8-5 1.8h-3V10zm3.1 13.7q5 0 5-6 0-3-1.2-4.6-1-1.6-3.5-1.6H7.9v12.2h1.5zm9 1.3V10h9.2v1.5H20v5h6.3V18H20v5.5h7.5V25h-9zm12.2-15h2v.2l-.2.3v13.1h7.1V25h-9V10zm11.8 15V10h9.2v1.5H44v5h6.3V18H44v5.5h7.5V25h-9zM58 25V11.5h-4.3V10h10.4v1.5h-4.4V25H58zm8.4 0V10h9.2v1.5H68v5h6.3V18H68v5.5h7.5V25h-9zm24.5 0V10h8.6v1.5h-7v4.7h5.6v1.5h-5.5V25h-1.7zm11.4-15h4.5q2.5 0 3.7 1.2 1.2 1.1 1.2 3.1 0 1.3-.8 2.5-.9 1.2-2.2 1.5L112 25h-1.8l-3.3-6.6h-3V25h-1.7V10zm4.7 7q1.5 0 2.3-.8.7-.7.7-1.9t-.8-2q-.7-.7-2.2-.7h-3V17h3zm12 8.3q-2.6 0-4-2t-1.4-5.7q0-3.6 1.4-5.6 1.5-2 4-2t4 2q1.4 2 1.4 5.6 0 3.7-1.4 5.7t-4 2zm0-1.5q1.7 0 2.7-1.6 1-1.6 1-4.6 0-2.8-1-4.5-1-1.7-2.7-1.7-1.7 0-2.7 1.7-1 1.7-1 4.5 0 3 1 4.6 1 1.6 2.7 1.6zm7 1.2V10h1.3l3.7 7.4 3.8-7.4h1.2v15h-1.5V13.7l-3.3 6h-.6l-3-6V25H126z" fill="#06345e"/><path d="M151.3 25.3q-1.7 0-2.8-1.3-1-1.3-1-3.8V14h1.7v6.2q0 2 .7 2.8.7.9 1.8.9 1.3 0 2.1-1 .9-1 .9-2.8v-6h1.7v10.2l.2.7H155l-.3-.7v-1q-.5 1-1.4 1.5-1 .5-2 .5zm13.5-6.8q2 .7 2.9 1.4.9.7.9 2 0 1.4-1.2 2.4t-3.4 1q-2.8 0-4.6-1.8l1-1.6q.7 1 1.5 1.4.8.5 2.2.5 1.3 0 2-.5.8-.4.8-1.3 0-.6-.6-1.1-.6-.5-2.2-1-4.1-1.1-4.1-3.4 0-1.2 1-2 1-.7 3-.7 1.5 0 2.5.4t1.9 1.3l-1 1.2q-.5-.7-1.5-1.2-.9-.4-1.9-.4-1 0-1.7.3-.6.4-.6 1t.7 1.1q.6.5 2.4 1zm2.3-1.7q0-.2.2 0h-.2zm.3 0h-.1zm-6.8 5h-.2v-.1h.2zm-.2 0h-.1.1zm16.1 3.4q-2.4 0-3.9-1.4-1.4-1.5-1.4-4.2 0-1.8.6-3.1.7-1.4 1.8-2 1.2-.7 2.6-.7 2 0 3.2 1.3 1.3 1.3 1.3 3.9v.8h-7.9q.1 2 1.2 3 1 1 2.6 1 1.7 0 2.8-1.2l1 1q-1.4 1.6-3.9 1.6zm2.4-6.8q0-1.5-.8-2.4-.7-1-2-1-1.2 0-2 1-1 .8-1.2 2.4h6zm13.3-2.1q-.7-.6-1.2-.8-.4-.2-1-.2-.9 0-1.7.4-.7.4-1.2 1.3t-.5 2.2V25H185V14h1.8v2q.4-1 1.3-1.6 1-.6 2-.6 1.8 0 3 1.2l-.8 1.3zm0 0l.1.2h-.1v-.2zm-.2.1h.2v.1h-.2zm8.8 2.1q2 .7 2.9 1.4.9.7.9 2 0 1.4-1.2 2.4t-3.4 1q-2.8 0-4.6-1.8l1-1.6q.7 1 1.5 1.4.8.5 2.2.5 1.3 0 2-.5.8-.4.8-1.3 0-.6-.6-1.1-.6-.5-2.2-1-4.1-1.1-4.1-3.4 0-1.2 1-2 1-.7 3-.7 1.5 0 2.5.4t1.9 1.3l-1 1.2q-.5-.7-1.5-1.2-.9-.4-1.9-.4-1 0-1.7.3-.6.4-.6 1t.7 1.1q.6.5 2.4 1zm2.3-1.7q0-.2.2 0h-.2zm.3 0h-.1zm-6.8 5h-.2v-.1h.2zm-.2 0h-.1.1z" fill="#2a86c0"/><path d="M7.8 55L5.4 40H7l1.6 10.2 2.4-9h.5l2.4 9L15.3 40h1.4l-2.4 15h-.6L11 45.2 8.5 55h-.7zm10.4-15h2v.2l-.2.3v5.9h5.8V40h2v.2l-.2.3V55h-1.8v-7.1H20V55h-1.8V40zm12.2 15V40h9.2v1.5H32v5h6.3V48H32v5.5h7.5V55h-9zm11.9-15h4.5q2.5 0 3.7 1.2 1.2 1.1 1.2 3.1 0 1.3-.8 2.5-.9 1.2-2.2 1.5L52 55h-1.8L47 48.4h-3V55h-1.7V40zm4.7 7q1.5 0 2.3-.8.7-.7.7-1.9t-.8-2q-.7-.7-2.2-.7h-3V47h3zm7.4 8V40h9.2v1.5H56v5h6.3V48H56v5.5h7.5V55h-9z" fill="#053056"/><path d="M152.8 48.5q2 .7 2.9 1.4.9.7.9 2 0 1.4-1.2 2.4t-3.4 1q-2.8 0-4.6-1.8l1-1.6q.7 1 1.5 1.4.8.5 2.2.5 1.3 0 2-.5.8-.4.8-1.3 0-.6-.6-1.1-.6-.5-2.2-1-4.1-1.1-4.1-3.4 0-1.2 1-2 1-.7 3-.7 1.5 0 2.5.4t1.9 1.3l-1 1.2q-.5-.7-1.5-1.2-.9-.4-1.9-.4-1 0-1.7.3-.6.4-.6 1t.7 1.1q.6.5 2.4 1zm2.3-1.7q0-.2.2 0h-.2zm.3 0h-.1zm-6.8 5h-.2v-.1h.2zm-.2 0h-.1.1zm20.3 2.2q-1.6 1.2-3.5 1.2-1.8 0-2.6-1.1t-.8-3.6V49l.3-3.6h-2.4V44h2.5l.2-2.9 1.9-.3h.2v.1l-.2.4-.1.5-.3 2.2h3.7v1.4h-3.8l-.2 3.8v1.2q0 2 .4 2.7.5.6 1.4.6.8 0 1.4-.2l1.3-.9.6 1.4zm7.2-10.2q2.3 0 3.5 1.2 1.3 1.2 1.3 4.2V55h-1.9v-1.7q-1 2-3.7 2-1.9 0-2.9-.9-1-.8-1-2.2 0-1.1.7-2 .8-.8 2-1.3 1.3-.5 2.8-.5 1.4 0 2.5.2-.2-1.9-1-2.6-.8-.8-2.5-.8-.8 0-1.5.3-.8.3-1.4 1l-.9-1.2q1.6-1.5 4-1.5zm-.7 10.1q1.8 0 2.8-1 1-1 1.2-3-1.1-.2-2.4-.2-1.8 0-2.8.6-1.1.6-1.1 1.8 0 1.8 2.3 1.8zm17.5.1q-1.6 1.2-3.5 1.2-1.8 0-2.6-1.1t-.8-3.6V49l.3-3.6h-2.4V44h2.5l.2-2.9 1.9-.3h.2v.1l-.2.4-.1.5-.3 2.2h3.7v1.4h-3.8l-.2 3.8v1.2q0 2 .4 2.7.5.6 1.4.6.8 0 1.4-.2l1.3-.9.6 1.4zm6.6 1.3q-1.7 0-2.8-1.3-1-1.3-1-3.8V44h1.7v6.2q0 2 .7 2.8.7.9 1.8.9 1.3 0 2.1-1 .9-1 .9-2.8v-6h1.7v10.2l.2.7H203l-.3-.7v-1q-.5 1-1.4 1.5-1 .5-2 .5zm13.5-6.8q2 .7 2.9 1.4.9.7.9 2 0 1.4-1.2 2.4t-3.4 1q-2.8 0-4.6-1.8l1-1.6q.7 1 1.5 1.4.8.5 2.2.5 1.3 0 2-.5.8-.4.8-1.3 0-.6-.6-1.1-.6-.5-2.2-1-4.1-1.1-4.1-3.4 0-1.2 1-2 1-.7 3-.7 1.5 0 2.5.4t1.9 1.3l-1 1.2q-.5-.7-1.5-1.2-.9-.4-1.9-.4-1 0-1.7.3-.6.4-.6 1t.7 1.1q.6.5 2.4 1zm2.3-1.7q0-.2.2 0h-.2zm.3 0h-.1zm-6.8 5h-.2v-.1h.2zm-.2 0h-.1.1zM231 46v-1.5h10V46h-10zm0 3.7v-1.4h10v1.4h-10zM261 39l-.1 3-.2 2-.1 1.2h-1.2l-.1-1.1-.2-2v-3h1.9zm15.2 7.3q-.7-.6-1.2-.8-.4-.2-1-.2-.9 0-1.7.4-.7.4-1.2 1.3t-.5 2.2V55H269V44h1.8v2q.4-1 1.3-1.6 1-.6 2-.6 1.8 0 3 1.2l-.8 1.3zm0 0l.1.2h-.1v-.2zm-.2.1h.2v.1h-.2zm8.5 8.8q-2.4 0-3.9-1.4-1.4-1.5-1.4-4.2 0-1.8.6-3.1.7-1.4 1.8-2 1.2-.7 2.6-.7 2 0 3.2 1.3 1.3 1.3 1.3 3.9v.8h-7.9q.1 2 1.2 3 1 1 2.6 1 1.7 0 2.8-1.2l1 1q-1.4 1.6-3.9 1.6zm2.4-6.8q0-1.5-.8-2.4-.7-1-2-1-1.2 0-2 1-1 .8-1.2 2.4h6zm12-4.4v10.5q0 2.3-1.2 3.5-1.2 1.2-3 1.2-1.1 0-2-.4-1-.4-1.5-1.2l1-1.3q.4.7 1 1 .6.4 1.4.4 1.2 0 1.8-.8.7-.7.7-2.3v-9.2h-4V44h5.8zm-6.5 12.3h-.2v-.1h.2zm-.3 0v-.1.1zm5.7-14.6q-.5 0-.8-.3-.4-.4-.4-.9t.4-.9q.3-.3.8-.3.6 0 1 .3.3.4.3.9t-.4.9q-.3.3-.9.3zm10.7 13.5q-2.4 0-3.9-1.4-1.4-1.5-1.4-4.2 0-1.8.6-3.1.7-1.4 1.8-2 1.2-.7 2.6-.7 2 0 3.2 1.3 1.3 1.3 1.3 3.9v.8h-7.9q.1 2 1.2 3 1 1 2.6 1 1.7 0 2.8-1.2l1 1q-1.4 1.6-3.9 1.6zm2.4-6.8q0-1.5-.8-2.4-.7-1-2-1-1.2 0-2 1-1 .8-1.2 2.4h6zm10.1 5.3q1.6 0 2.8-1.3l1 1.1q-1.6 1.8-4 1.8-1.5 0-2.8-.8-1.2-.7-2-2-.7-1.3-.7-3 0-1.6.7-2.9.8-1.3 2-2 1.3-.8 2.8-.8 1.3 0 2.4.6 1.1.5 1.8 1.5l-1.1 1q-.7-.9-1.5-1.2-.7-.4-1.8-.4-1 0-1.7.5-.8.5-1.3 1.4-.5 1-.5 2.2 0 1.2.5 2.2.5 1 1.4 1.6.9.5 2 .5zm2.6-6.7q0-.2.2 0h-.2zm.3 0q0 .1 0 0zm12.8 7q-1.6 1.2-3.5 1.2-1.8 0-2.6-1.1t-.8-3.6V49l.3-3.6h-2.4V44h2.5l.2-2.9 1.9-.3h.2v.1l-.2.4-.1.5-.3 2.2h3.7v1.4h-3.8l-.2 3.8v1.2q0 2 .4 2.7.5.6 1.4.6.8 0 1.4-.2l1.3-.9.6 1.4zm8.3-15l-.1 3-.2 2-.1 1.2h-1.2l-.1-1.1-.2-2v-3h1.9z" fill="#2a86c0"/></g><path d="M475 20l-117-.2" stroke="#5ca831" stroke-width="2" fill="none"/><path d="M367 12.5l-10 7.4 10 7.6z" fill="#5ca831"/><path d="M367 12.5l-10 7.4 10 7.6z" stroke="#5ca831" stroke-width="2" fill="none"/><path d="M485 15.6l4-4v2.2h3.4v2H489V21q0 1.8 1.5 1.8 1.2 0 2.5-.8v2q-1.3.7-2.7.7-1.5 0-2.4-.8l-.6-.6-.3-.9-.1-2v-4.7H485v-.2zm16.3 2.5v4.6q0 .6.4.6t1.2-.6V24q-.7.5-1.2.6-.4.2-.9.2-1.4 0-1.6-1-1.4 1-3 1-1 0-1.8-.7-.7-.8-.7-2 0-1 .7-1.7.7-.8 2-1.3l2.8-1v-.5q0-2-2-2-1.7 0-3.3 1.8v-2.3q1.2-1.5 3.5-1.5 1.8 0 2.8 1 .4.2.7.7.3.5.3 1l.1 1.8zm-2 4.4v-3.2l-1.5.5q-1.1.5-1.6 1-.4.4-.4 1 0 .7.4 1.1.4.4 1.1.4 1 0 2-.8zm5.4-14.2h2.1v6.3q1.4-1 3-1 2 0 3.3 1.6 1.3 1.5 1.3 4t-1.5 4q-1.6 1.6-4.2 1.6l-2.2-.2q-1.1-.2-1.8-.6V8.3zm2.1 8.4v5.8q1.1.3 2.3.3 1.4 0 2.3-1 .9-1 .9-2.6t-.9-2.6q-.8-1-2.1-1-1.2 0-2.5 1zm10-8.4h2.2v16.3h-2.2V8.3zm14.5 11.1h-7.6q0 1.6 1 2.5 1 .9 2.5.9 2.1 0 3.9-1.3v2q-1 .7-2 1-1 .3-2.2.3-1.8 0-3-.7-1-.8-1.7-2-.6-1.3-.6-3 0-2.4 1.4-4 1.4-1.5 3.6-1.5 2.1 0 3.4 1.5 1.3 1.5 1.3 4v.3zm-7.6-1.3h5.5q-.1-1.2-.8-2-.7-.6-1.8-.6-1.2 0-1.9.7t-1 2zm-30 20.9h2.2v16.4h-4.6q-2.4 0-3.8-1.5t-1.4-4q0-2.5 1.4-4 1.5-1.5 3.9-1.5 1 0 2.3.4V39zm0 14.6v-6.9q-1-.5-2-.5-1.6 0-2.5 1-1 1.1-1 2.9 0 1.6.8 2.6.5.5 1 .7.6.2 2 .2h1.7zm14.3-3.4h-7.6q0 1.5 1 2.5 1 .9 2.5.9 2 0 3.9-1.3v2q-1 .7-2 1-1 .3-2.3.3-1.7 0-2.9-.8-1-.7-1.7-2-.7-1.2-.7-2.9 0-2.4 1.4-4 1.4-1.5 3.6-1.5t3.5 1.5q1.2 1.5 1.2 4v.3zm-7.6-1.3h5.4q0-1.3-.7-2-.7-.6-1.9-.6-1.1 0-1.8.6-.8.7-1 2zm9.9-9.9h2.1v16.4h-2.1V39zm14.4 11.2h-7.6q.1 1.5 1 2.5 1 .9 2.5.9 2.2 0 4-1.3v2q-1 .7-2 1-1 .3-2.3.3-1.8 0-2.9-.8-1-.7-1.7-2-.7-1.2-.7-2.9 0-2.4 1.4-4 1.4-1.5 3.6-1.5t3.4 1.5q1.3 1.5 1.3 4v.3zm-7.5-1.3h5.4q0-1.3-.8-2-.6-.6-1.8-.6-1.1 0-1.9.6-.7.7-1 2zm8.3-2.6l4-4v2.3h3.4v2h-3.4v5.2q0 1.9 1.5 1.9 1.2 0 2.5-.8v2q-1.3.7-2.7.7-1.5 0-2.4-.9-.4-.2-.6-.5l-.3-.9-.1-2v-4.8h-1.9v-.2zm18.7 3.9h-7.6q.1 1.5 1 2.5 1 .9 2.5.9 2.2 0 4-1.3v2q-1 .7-2 1-1 .3-2.3.3-1.8 0-2.9-.8-1-.7-1.7-2-.7-1.2-.7-2.9 0-2.4 1.4-4 1.4-1.5 3.6-1.5t3.4 1.5q1.3 1.5 1.3 4v.3zm-7.5-1.3h5.4q0-1.3-.8-2-.6-.6-1.8-.6-1.1 0-1.9.6-.7.7-1 2zm16.7-4.3V44q0-2.6 1.1-4 1.1-1.2 2.7-1.2l1.6.2v2.1l-1-.2q-1.3 0-1.8.7-.4.7-.4 2.4v.6h1.9v2h-2v8.8h-2v-8.9h-1.6v-1.9h1.5zm6.9-4.6q.5 0 .9.4t.4 1q0 .4-.4.8t-1 .4q-.4 0-.8-.4t-.4-.9q0-.5.4-.8.4-.4.9-.4zm-1 4.6h2v10.8h-2V44.6zm5.2-5.6h2.1v16.4h-2.1V39zm3.7 7.3l4-4v2.3h3.4v2h-3.4v5.2q0 1.9 1.6 1.9 1.1 0 2.4-.8v2q-1.3.7-2.7.7-1.5 0-2.4-.9l-.5-.5-.4-.9-.1-2v-4.8h-1.9v-.2zm18.8 3.9h-7.7q.1 1.5 1 2.5 1 .9 2.5.9 2.2 0 4-1.3v2q-1 .7-2 1-1 .3-2.3.3-1.8 0-2.9-.8-1-.7-1.7-2-.7-1.2-.7-2.9 0-2.4 1.4-4 1.4-1.5 3.6-1.5t3.4 1.5q1.3 1.5 1.3 4v.3zm-7.6-1.3h5.4q0-1.3-.7-2-.7-.6-1.9-.6-1.1 0-1.9.6-.7.7-1 2zm12.1-4.3v2.5l.1-.2q1.6-2.5 3.1-2.5 1.2 0 2.5 1.2l-1 1.9q-1.2-1-2.2-1-1 0-1.7 1-.8 1-.8 2.3v5.6h-2.1V44.6h2.1z" font-size="24" font-family="GillSans" fill="#2a86c0"/><path d="M473.5 49.8l-117-.2" stroke="#5ca831" stroke-width="2" fill="none"/><path d="M367.5 42.3l-10 7.4 10 7.5z" fill="#5ca831"/><path d="M367.5 42.3l-10 7.4 10 7.5z" stroke="#5ca831" stroke-width="2" fill="none"/></svg>