<?xml version="1.0" encoding="UTF-8"?>
<!DOCTYPE svg PUBLIC "-//W3C//DTD SVG 1.1//EN" "http://www.w3.org/Graphics/SVG/1.1/DTD/svg11.dtd">
<svg version="1.1" xmlns="http://www.w3.org/2000/svg" xmlns:xlink="http://www.w3.org/1999/xlink" x="0px" y="0px" width="520" height="540" viewBox="0, 0, 520, 540">
  <g id="Layer 1">
    <path d="M22.061,61.915 C22.061,63.018 23.371,63.911 24.988,63.911 L194.135,63.911 C195.752,63.911 197.061,63.018 197.061,61.915 L197.061,20.908 C197.061,19.805 195.752,18.911 194.135,18.911 L24.988,18.911 C23.371,18.911 22.061,19.805 22.061,20.908 L22.061,61.915" fill="#5A5955"/>
    <text transform="matrix(1, 0, 0, 1, 109.561, 41.411)">
      <tspan x="-35.29" y="6.68" font-family="GillSans" font-size="24" fill="#FFFFFE">Dri</tspan>
      <tspan x="-2.525" y="6.68" font-family="GillSans" font-size="24" fill="#FFFFFE">v</tspan>
      <tspan x="7.507" y="6.68" font-family="GillSans" font-size="24" fill="#FFFFFE">e</tspan>
      <tspan x="19.003" y="6.68" font-family="GillSans" font-size="24" fill="#FFFFFE">r</tspan>
    </text>
    <text transform="matrix(1, 0, 0, 1, 112.86, 238.41)">
      <tspan x="-39.689" y="7.5" font-family="GillSans" font-size="24" fill="#FFFFFE">Primary</tspan>
    </text>
    <text transform="matrix(-0, 1, -1, -0, 235.276, 140.328)">
      <tspan x="-31.619" y="5.166" font-family="GillSans" font-size="24" fill="#3299CC">Write</tspan>
    </text>
    <g>
      <path d="M224.11,47.28 L225.286,230.797" fill-opacity="0" stroke="#3299CC" stroke-width="4"/>
      <path d="M220.487,230.828 L225.368,243.597 L230.086,230.766 z" fill="#3299CC" fill-opacity="1" stroke="#3299CC" stroke-width="4" stroke-opacity="1"/>
    </g>
    <g>
      <path d="M197.061,229.784 C197.061,228.977 194.519,228.323 191.377,228.323 L27.746,228.323 C24.607,228.323 22.061,228.977 22.061,229.784 L22.061,271.861 C22.061,272.668 24.607,273.323 27.746,273.323 L191.377,273.323 C194.519,273.323 197.061,272.668 197.061,271.861 L197.061,229.784" fill="#2A86C0"/>
      <text transform="matrix(1, 0, 0, 1, 113.868, 250.823)">
        <tspan x="-39.039" y="7.378" font-family="GillSans" font-size="24" fill="#FFFFFF">Primary</tspan>
      </text>
    </g>
    <g>
      <path d="M197.061,363.709 C197.061,362.903 194.519,362.249 191.377,362.249 L27.746,362.249 C24.607,362.249 22.061,362.903 22.061,363.709 L22.061,405.787 C22.061,406.594 24.607,407.249 27.746,407.249 L191.377,407.249 C194.519,407.249 197.061,406.594 197.061,405.787 L197.061,363.709" fill="#5CA831"/>
      <text transform="matrix(1, 0, 0, 1, 109.561, 384.749)">
        <tspan x="-50.725" y="7.52" font-family="GillSans" font-size="24" fill="#FFFFFE">Secondary</tspan>
      </text>
    </g>
    <g>
      <g>
        <path d="M223.942,259.267 C223.834,301.502 278.362,307.743 291.612,275.299" fill-opacity="0" stroke="#3299CC" stroke-width="4"/>
        <path d="M296.336,276.146 L293.87,262.7 L286.887,274.452 z" fill="#3299CC" fill-opacity="1" stroke="#3299CC" stroke-width="4" stroke-opacity="1"/>
      </g>
      <text transform="matrix(1, 0, 0, 1, 258.819, 304.22)">
        <tspan x="-28.576" y="7.5" font-family="GillSans" font-size="24" fill="#3299CC">Apply</tspan>
      </text>
    </g>
    <text transform="matrix(-0, 1, -1, -0, 329.454, 314.6)">
      <tspan x="-46.734" y="7.5" font-family="GillSans" font-size="24" fill="#3299CC">Replicate</tspan>
    </text>
    <g>
      <path d="M310.458,259.267 L310.458,361.837" fill-opacity="0" stroke="#3299CC" stroke-width="4"/>
      <path d="M305.658,361.837 L310.458,374.637 L315.258,361.837 z" fill="#3299CC" fill-opacity="1" stroke="#3299CC" stroke-width="4" stroke-opacity="1"/>
    </g>
    <path d="M197.561,42.077 L497.561,42.077" fill-opacity="0" stroke="#5A5955" stroke-width="4"/>
    <path d="M198.439,253.267 L498.439,253.267" fill-opacity="0" stroke="#3299CC" stroke-width="4"/>
    <path d="M198.439,384.6 L498.439,384.6" fill-opacity="0" stroke="#5BA831" stroke-width="4"/>
    <g>
      <path d="M381.427,378.237 L381.935,275.667" fill-opacity="0" stroke="#2A86C0" stroke-width="4" stroke-dasharray="8,8"/>
      <path d="M386.735,275.691 L381.999,262.867 L377.135,275.643 z" fill="#2A86C0" fill-opacity="1" stroke="#2A86C0" stroke-width="4" stroke-opacity="1"/>
    </g>
    <g>
      <path d="M197.061,473.549 C197.061,472.743 194.519,472.089 191.377,472.089 L27.746,472.089 C24.607,472.089 22.061,472.743 22.061,473.549 L22.061,515.627 C22.061,516.434 24.607,517.089 27.746,517.089 L191.377,517.089 C194.519,517.089 197.061,516.434 197.061,515.627 L197.061,473.549" fill="#5CA831"/>
      <text transform="matrix(1, 0, 0, 1, 109.561, 494.589)">
        <tspan x="-50.725" y="7.52" font-family="GillSans" font-size="24" fill="#FFFFFE">Secondary</tspan>
      </text>
    </g>
    <path d="M198.439,495.089 L498.439,495.089" fill-opacity="0" stroke="#5BA831" stroke-width="4"/>
    <text transform="matrix(-0, 1, -1, -0, 424.458, 314.6)">
      <tspan x="-46.734" y="7.5" font-family="GillSans" font-size="24" fill="#3299CC">Replicate</tspan>
    </text>
    <g>
      <path d="M403.462,259.267 L402.119,474.201" fill-opacity="0" stroke="#3299CC" stroke-width="4"/>
      <path d="M397.319,474.171 L402.039,487 L406.919,474.231 z" fill="#3299CC" fill-opacity="1" stroke="#3299CC" stroke-width="4" stroke-opacity="1"/>
    </g>
    <text transform="matrix(-0, 1, -1, -0, 200.332, 143.507)">
      <tspan x="-60.257" y="-6.5" font-family="Inconsolata" font-size="18" fill="#3299CC">writeConcern:</tspan>
      <tspan x="-60.257" y="13.5" font-family="Inconsolata" font-size="18" fill="#3299CC">  { w: 2 }</tspan>
    </text>
    <g>
      <path d="M381.637,248.555 L381.637,65.038" fill-opacity="0" stroke="#3299CC" stroke-width="4"/>
      <path d="M386.437,65.038 L381.637,52.238 L376.837,65.038 z" fill="#3299CC" fill-opacity="1" stroke="#3299CC" stroke-width="4" stroke-opacity="1"/>
    </g>
    <text transform="matrix(-0, 1, -1, -0, 395.229, 146.239)">
      <tspan x="-48.305" y="7.908" font-family="GillSans" font-size="24" fill="#3299CC">Response</tspan>
    </text>
    <g>
      <g>
        <path d="M312.289,386.406 C312.181,428.641 366.709,434.883 379.959,402.438" fill-opacity="0" stroke="#3299CC" stroke-width="4"/>
        <path d="M384.683,403.285 L382.217,389.839 L375.234,401.592 z" fill="#3299CC" fill-opacity="1" stroke="#3299CC" stroke-width="4" stroke-opacity="1"/>
      </g>
      <text transform="matrix(1, 0, 0, 1, 347.166, 431.359)">
        <tspan x="-28.576" y="7.5" font-family="GillSans" font-size="24" fill="#3299CC">Apply</tspan>
      </text>
    </g>
  </g>
  <defs/>
</svg>
