<?xml version="1.0" encoding="UTF-8"?>
<!DOCTYPE svg PUBLIC "-//W3C//DTD SVG 1.1//EN" "http://www.w3.org/Graphics/SVG/1.1/DTD/svg11.dtd">
<svg version="1.1" xmlns="http://www.w3.org/2000/svg" xmlns:xlink="http://www.w3.org/1999/xlink" x="0" y="0" width="640" height="100" viewBox="0, 0, 640, 100">
  <g id="Layer_1">
    <g id="CMD">
      <text transform="matrix(1, 0, 0, 1, 71.5, 17.5)">
        <tspan x="-66.5" y="7.5" font-family="Inconsolata" font-size="24" fill="#053056">INSERT INTO</tspan>
      </text>
      <text transform="matrix(1, 0, 0, 1, 177.5, 17.5)">
        <tspan x="-30.5" y="7.5" font-family="Inconsolata" font-size="24" fill="#2A86C0">users </tspan>
      </text>
      <text transform="matrix(1, 0, 0, 1, 273.5, 47.5)">
        <tspan x="-126.5" y="7.5" font-family="Inconsolata" font-size="24" fill="#2A86C0">( name, age, status )</tspan>
      </text>
      <text transform="matrix(1, 0, 0, 1, 41.5, 77.5)">
        <tspan x="-36.5" y="7.5" font-family="Inconsolata" font-size="24" fill="#053056">VALUES </tspan>
      </text>
      <text transform="matrix(1, 0, 0, 1, 291.5, 77.5)">
        <tspan x="-144.5" y="7.5" font-family="Inconsolata" font-size="24" fill="#2A86C0">( "sue", 26, "pending" ) </tspan>
      </text>
    </g>
    <g>
      <g>
        <path d="M452,12.092 L451.966,27.092 L442,19.499 L452,12.092 z" fill="#5CA831"/>
        <path d="M500,19.891 L452,19.691" fill-opacity="0" stroke="#5CA831" stroke-width="2"/>
      </g>
      <text transform="matrix(1, 0, 0, 1, 533.996, 17.5)">
        <tspan x="-23.996" y="7.5" font-family="GillSans" font-size="24" fill="#2A86C0">table</tspan>
      </text>
    </g>
    <g>
      <g>
        <path d="M452,42 L451.966,57 L442,49.407 L452,42 z" fill="#5CA831"/>
        <path d="M500,50.2 L452,50" fill-opacity="0" stroke="#5CA831" stroke-width="2"/>
      </g>
      <text transform="matrix(1, 0, 0, 1, 550.877, 47.5)">
        <tspan x="-40.877" y="7.5" font-family="GillSans" font-size="24" fill="#2A86C0">columns</tspan>
      </text>
    </g>
    <g>
      <g>
        <path d="M452,72 L451.966,87 L442,79.407 L452,72 z" fill="#5CA831"/>
        <path d="M500,79.799 L452,79.599" fill-opacity="0" stroke="#5CA831" stroke-width="2"/>
      </g>
      <text transform="matrix(1, 0, 0, 1, 574.242, 77.5)">
        <tspan x="-64.242" y="7.5" font-family="GillSans" font-size="24" fill="#2A86C0">values/row</tspan>
      </text>
      <text transform="matrix(1, 0, 0, 1, 595.572, 77.5)">
        <tspan x="-20.088" y="7.5" font-family="GillSans" font-size="24" fill="#2F1D12">row</tspan>
      </text>
    </g>
  </g>
</svg>
