<?xml version="1.0" encoding="UTF-8"?>
<!DOCTYPE svg PUBLIC "-//W3C//DTD SVG 1.1//EN" "http://www.w3.org/Graphics/SVG/1.1/DTD/svg11.dtd">
<svg version="1.1" xmlns="http://www.w3.org/2000/svg" xmlns:xlink="http://www.w3.org/1999/xlink" x="0px" y="0px" width="810" height="400" viewBox="0, 0, 810, 400">
  <g id="Layer 1">
    <g>
      <g>
        <path d="M8.859,42.652 L155.658,42.652 L155.658,351.555 L8.859,351.555 z" fill="#FFFFFF"/>
        <path d="M8.859,42.652 L155.658,42.652 L155.658,351.555 L8.859,351.555 z" fill-opacity="0" stroke="#173182" stroke-width="1"/>
      </g>
      <path d="M8.859,86.781 L155.658,86.781" fill-opacity="0" stroke="#173182" stroke-width="1"/>
      <path d="M8.859,175.039 L155.658,175.039" fill-opacity="0" stroke="#173182" stroke-width="1"/>
      <path d="M8.859,130.91 L155.658,130.91" fill-opacity="0" stroke="#173182" stroke-width="1"/>
      <path d="M8.859,219.168 L155.658,219.168" fill-opacity="0" stroke="#173182" stroke-width="1"/>
      <path d="M8.859,263.297 L155.658,263.297" fill-opacity="0" stroke="#173182" stroke-width="1"/>
      <path d="M8.859,307.426 L155.658,307.426" fill-opacity="0" stroke="#173182" stroke-width="1"/>
    </g>
    <text transform="matrix(1, 0, 0, 1, 83.232, 63.554)">
      <tspan x="-69.873" y="2.614" font-family="Inconsolata" font-size="18" fill="#173182">{ age: 18, ...}</tspan>
    </text>
    <text transform="matrix(1, 0, 0, 1, 83.232, 108.597)">
      <tspan x="-69.873" y="4.677" font-family="Inconsolata" font-size="18" fill="#26408C">{ age: 28, ...}</tspan>
    </text>
    <text transform="matrix(1, 0, 0, 1, 83.163, 198.167)">
      <tspan x="-69.941" y="3.826" font-family="Inconsolata" font-size="18" fill="#173182">{ age: 38, ...}</tspan>
    </text>
    <text transform="matrix(1, 0, 0, 1, 83.232, 152.699)">
      <tspan x="-69.873" y="4.129" font-family="Inconsolata" font-size="18" fill="#1A3485">{ age: 21, ...}</tspan>
    </text>
    <text transform="matrix(1, 0, 0, 1, 83.232, 328.882)">
      <tspan x="-69.873" y="4.534" font-family="Inconsolata" font-size="18" fill="#173182">{ age: 31, ...}</tspan>
    </text>
    <text transform="matrix(1, 0, 0, 1, 83.232, 241.787)">
      <tspan x="-69.873" y="3.909" font-family="Inconsolata" font-size="18" fill="#173182">{ age: 18, ...}</tspan>
    </text>
    <text transform="matrix(1, 0, 0, 1, 83.232, 283.738)">
      <tspan x="-69.873" y="4.793" font-family="Inconsolata" font-size="18" fill="#173182">{ age: 38, ...}</tspan>
    </text>
    <text transform="matrix(1, 0, 0, 1, 83.163, 367.758)">
      <tspan x="-22.534" y="6.5" font-family="GillSans" font-size="21" fill="#2A86C0">users</tspan>
    </text>
    <text transform="matrix(1, 0, 0, 1, 245.008, 236.345)">
      <tspan x="-74.695" y="1.905" font-family="Inconsolata" font-size="21" fill="#2A86C0">{age:{$gt:18}}</tspan>
    </text>
    <g>
      <path d="M170.508,197.045 L299.509,197.146" fill-opacity="0" stroke="#2A86C0" stroke-width="6"/>
      <path d="M299.504,203.146 L315.509,197.158 L299.513,191.146 z" fill="#2A86C0" fill-opacity="1" stroke="#2A86C0" stroke-width="6" stroke-opacity="1"/>
    </g>
    <text transform="matrix(1, -0, 0, 1, 78.446, 17.789)">
      <tspan x="-44.302" y="6.5" font-family="GillSans" font-size="21" fill="#2A86C0">Collection</tspan>
    </text>
    <text transform="matrix(1, 0, 0, 1, 240.008, 170.429)">
      <tspan x="-30.038" y="5.436" font-family="GillSans" font-size="21" fill="#2A86C0">Query</tspan>
    </text>
    <g>
      <g>
        <path d="M332.878,86.664 L477.491,86.664 L477.491,307.309 L332.878,307.309 z" fill="#FFFFFF"/>
        <path d="M332.878,86.664 L477.491,86.664 L477.491,307.309 L332.878,307.309 z" fill-opacity="0" stroke="#173182" stroke-width="1"/>
      </g>
      <path d="M332.878,176.603 L477.491,176.667" fill-opacity="0" stroke="#173182" stroke-width="1"/>
      <path d="M332.878,220.732 L477.491,220.667" fill-opacity="0" stroke="#173182" stroke-width="1"/>
      <text transform="matrix(1, 0, 0, 1, 406.215, 108.597)">
        <tspan x="-68.974" y="4.677" font-family="Inconsolata" font-size="18" fill="#173182">{ age: 28, ...}</tspan>
      </text>
      <text transform="matrix(1, 0, 0, 1, 406.146, 198.167)">
        <tspan x="-69.043" y="3.826" font-family="Inconsolata" font-size="18" fill="#173182">{ age: 38, ...}</tspan>
      </text>
      <text transform="matrix(1, 0, 0, 1, 406.215, 152.699)">
        <tspan x="-68.974" y="4.129" font-family="Inconsolata" font-size="18" fill="#173182">{ age: 21, ...}</tspan>
      </text>
      <text transform="matrix(1, 0, 0, 1, 406.215, 286.282)">
        <tspan x="-68.974" y="3.134" font-family="Inconsolata" font-size="18" fill="#173182">{ age: 31, ...}</tspan>
      </text>
      <text transform="matrix(1, 0, 0, 1, 406.215, 241.705)">
        <tspan x="-68.974" y="3.826" font-family="Inconsolata" font-size="18" fill="#173182">{ age: 38, ...}</tspan>
      </text>
      <path d="M332.878,133.115 L477.491,133.179" fill-opacity="0" stroke="#173182" stroke-width="1"/>
      <path d="M332.878,263.585 L477.491,263.648" fill-opacity="0" stroke="#173182" stroke-width="1"/>
    </g>
    <text transform="matrix(1, 0, 0, 1, 561.918, 170.429)">
      <tspan x="-38.996" y="5.436" font-family="GillSans" font-size="21" fill="#2A86C0">Modifier</tspan>
    </text>
    <g>
      <path d="M488.146,196.928 L617.146,197.029" fill-opacity="0" stroke="#2A86C0" stroke-width="6"/>
      <path d="M617.141,203.029 L633.146,197.041 L617.15,191.029 z" fill="#2A86C0" fill-opacity="1" stroke="#2A86C0" stroke-width="6" stroke-opacity="1"/>
    </g>
    <text transform="matrix(1, 0, 0, 1, 562.646, 234.254)">
      <tspan x="-68.526" y="3.996" font-family="Inconsolata" font-size="21" fill="#2A86C0">sort({age:1})</tspan>
    </text>
    <g>
      <g>
        <path d="M651.895,86.664 L796.508,86.664 L796.508,307.309 L651.895,307.309 z" fill="#FFFFFF"/>
        <path d="M651.895,86.664 L796.508,86.664 L796.508,307.309 L651.895,307.309 z" fill-opacity="0" stroke="#173182" stroke-width="1"/>
      </g>
      <path d="M651.895,176.603 L796.508,176.667" fill-opacity="0" stroke="#173182" stroke-width="1"/>
      <path d="M651.895,220.732 L796.508,220.667" fill-opacity="0" stroke="#173182" stroke-width="1"/>
      <text transform="matrix(1, 0, 0, 1, 725.232, 110.436)">
        <tspan x="-68.974" y="2.837" font-family="Inconsolata" font-size="18" fill="#173182">{ age: 21, ...}</tspan>
      </text>
      <text transform="matrix(1, 0, 0, 1, 725.163, 198.109)">
        <tspan x="-69.043" y="3.885" font-family="Inconsolata" font-size="18" fill="#173182">{ age: 31, ...}</tspan>
      </text>
      <text transform="matrix(1, 0, 0, 1, 725.232, 162.328)">
        <tspan x="-68.974" y="-5.5" font-family="Inconsolata" font-size="18" fill="#173182">{ age: 28, ...}</tspan>
        <tspan x="-68.974" y="18.5" font-family="Inconsolata" font-size="21" fill="#173182">  </tspan>
      </text>
      <text transform="matrix(1, 0, 0, 1, 725.231, 285.339)">
        <tspan x="-68.974" y="4.077" font-family="Inconsolata" font-size="18" fill="#173182">{ age: 38, ...}</tspan>
      </text>
      <text transform="matrix(1, 0, 0, 1, 725.232, 241.705)">
        <tspan x="-68.974" y="3.826" font-family="Inconsolata" font-size="18" fill="#173182">{ age: 38, ...}</tspan>
      </text>
      <path d="M651.895,133.115 L796.508,133.179" fill-opacity="0" stroke="#173182" stroke-width="1"/>
      <path d="M651.895,263.585 L796.508,263.648" fill-opacity="0" stroke="#173182" stroke-width="1"/>
    </g>
    <text transform="matrix(1, 0, 0, 1, 723.701, 64.732)">
      <tspan x="-32.656" y="5.436" font-family="GillSans" font-size="21" fill="#2A86C0">Results</tspan>
    </text>
  </g>
  <defs/>
</svg>
