<svg xmlns="http://www.w3.org/2000/svg" viewBox="0, 0, 640, 580" height="580" width="640"><path d="M73.9 88.8q-1.8 0-3-.3-1-.4-1.6-1.3-.6-1-.5-2.6l.1-2.4q0-1.5-.5-2-.5-.7-1.6-.7h-.5v-1.3h.4q1.2 0 1.7-.6.6-.6.6-2V74q0-4.2 4.3-4.2h1.5v1.4h-2q-2.2 0-2.2 2.5v1.7q0 2.6-2 3.6 2 .6 2 3.7v2q0 1.6.6 2.2.7.7 2.3.7h1.3v1.3h-.9zM96.7 105h1.7v2q.7-1 1.6-1.6 1-.6 2.1-.6 1.5 0 2.4 1.1.8 1.1.8 3.5v6.6h-1.6v-6.6q0-1.6-.6-2.4-.5-.7-1.5-.7-.7 0-1.5.4-.7.4-1.2 1.2-.5.8-.5 1.8v6.3h-1.7v-11zm16.2-.2q2.3 0 3.5 1.2 1.3 1.2 1.3 4.2v5.8h-1.9v-1.7q-1 2-3.7 2-1.9 0-2.9-.9-1-.8-1-2.2 0-1.1.7-2 .8-.8 2-1.3 1.3-.5 2.8-.5 1.4 0 2.5.2-.2-1.9-1-2.6-.8-.8-2.5-.8-.8 0-1.5.3-.8.3-1.4 1l-.9-1.2q1.6-1.5 4-1.5zm-.7 10.1q1.8 0 2.8-1 1-1 1.2-3-1.1-.2-2.4-.2-1.8 0-2.8.6-1.1.6-1.1 1.8 0 1.8 2.3 1.8zm7.8-9.9h1.5v1.1q.4-.6 1-1 .6-.3 1.2-.3.7 0 1.3.4.5.5.7 1.2.3-.7 1-1.2.6-.4 1.4-.4 1.1 0 1.7.8.5.7.5 2v8.4h-1.6v-7.8q0-1.3-.3-1.8-.3-.4-.8-.4-.4 0-.8.4l-.7 1.1q-.2.6-.2 1.3v7.2h-1.6v-7.6q0-1.4-.3-1.8-.2-.5-1-.5-.3 0-.7.3-.3.3-.6 1-.2.5-.2 1.3v7.3h-1.6v-11zm17.5 11.2q-2.4 0-3.9-1.4-1.4-1.5-1.4-4.2 0-1.8.6-3.1.7-1.4 1.8-2 1.2-.7 2.6-.7 2 0 3.2 1.3 1.3 1.3 1.3 3.9v.8h-7.9q.1 2 1.2 3 1 1 2.6 1 1.7 0 2.8-1.2l1 1q-1.4 1.6-3.9 1.6zm2.4-6.8q0-1.5-.8-2.4-.7-1-2-1-1.2 0-2 1-1 .8-1.2 2.4h6zm8.8-.8q-.5 0-1-.4-.4-.4-.4-1 0-.5.4-1 .4-.4 1-.4t1 .5q.5.4.5 1 0 .5-.5.9-.4.4-1 .4zm0 7.7q-.6 0-1-.4t-.4-1q0-.6.4-1t1-.4q.6 0 1 .4.5.4.5 1 0 .5-.5 1-.4.4-1 .4zm23.5-16.3l-.1 3-.2 2-.1 1.2h-1.2l-.1-1.1-.2-2v-3h1.9zm3.6 0l-.1 3-.2 2-.1 1.2h-1.2l-.1-1.1-.2-2v-3h1.9zm10 9.5q2 .7 2.9 1.4.9.7.9 2 0 1.4-1.2 2.4t-3.4 1q-2.8 0-4.6-1.8l1-1.6q.7 1 1.5 1.4.8.5 2.2.5 1.3 0 2-.5.8-.4.8-1.3 0-.6-.6-1.1-.6-.5-2.2-1-4.1-1.1-4.1-3.4 0-1.2 1-2 1-.7 3-.7 1.5 0 2.5.4t1.9 1.3l-1 1.2q-.5-.7-1.5-1.2-.9-.4-1.9-.4-1 0-1.7.3-.6.4-.6 1t.7 1.1q.6.5 2.4 1zm2.3-1.7q0-.2.2 0h-.2zm.3 0h-.1zm-6.8 5h-.2v-.1h.2zm-.2 0h-.1.1zm14.9 3.5q-1.7 0-2.8-1.3-1-1.3-1-3.8V105h1.7v6.2q0 2 .7 2.8.7.9 1.8.9 1.3 0 2.1-1 .9-1 .9-2.8v-6h1.7v10.2l.2.7H200l-.3-.7v-1q-.5 1-1.4 1.5-1 .5-2 .5zm13.2-.1q-2.4 0-3.9-1.4-1.4-1.5-1.4-4.2 0-1.8.6-3.1.7-1.4 1.8-2 1.2-.7 2.6-.7 2 0 3.2 1.3 1.3 1.3 1.3 3.9v.8h-7.9q.1 2 1.2 3 1 1 2.6 1 1.7 0 2.8-1.2l1 1q-1.4 1.6-3.9 1.6zm2.4-6.8q0-1.5-.8-2.4-.7-1-2-1-1.2 0-2 1-1 .8-1.2 2.4h6zm8.3-9.4l-.1 3-.2 2-.1 1.2h-1.2l-.1-1.1-.2-2v-3h1.9zm3.6 0l-.1 3-.2 2-.1 1.2h-1.2l-.1-1.1-.2-2v-3h1.9zm7.2 19.3q.6-.6 1-1.3.5-.8.5-1.2l-.1-.4-.4-.4-.5-.5q-.2-.2-.2-.6 0-.6.4-1t1-.4q.7 0 1.1.6.5.6.5 1.4 0 1.9-2.5 4.5l-.8-.7zm-130.1 14.5q2.3 0 3.5 1.2 1.3 1.2 1.3 4.2v5.8h-1.9v-1.7q-1 2-3.7 2-1.9 0-2.9-.9-1-.8-1-2.2 0-1.1.7-2 .8-.8 2-1.3 1.3-.5 2.8-.5 1.4 0 2.5.2-.2-1.9-1-2.6-.8-.8-2.5-.8-.8 0-1.5.3-.8.3-1.4 1l-.9-1.2q1.6-1.5 4-1.5zm-.7 10.1q1.8 0 2.8-1 1-1 1.2-3-1.1-.2-2.4-.2-1.8 0-2.8.6-1.1.6-1.1 1.8 0 1.8 2.3 1.8zm18.2-8.7h-.6q-1.2 0-2 .4.5.9.5 1.8 0 1.1-.5 2-.5.9-1.4 1.4-.8.5-2 .5-.9 0-1.7-.4-.4.6-.4 1 0 .6.7.9.8.2 2.6.2 2.4 0 3.2.8.9.6.9 2t-1.2 2.4q-1.1 1-3.6 1-2.3 0-3.7-.8-1.3-.7-1.3-2.1 0-.9.5-1.5t1.2-1q-.8-.5-.8-1.4 0-1 1-2-.6-.6-.9-1.3-.3-.8-.3-1.7 0-1 .4-1.9.5-.9 1.4-1.4.9-.5 2-.5 1.8 0 2.8 1.2.6-.6 1.2-.8.6-.3 1.4-.3h.4l.2 1.5zm-6 4.6q1 0 1.7-.7t.7-1.7q0-1-.7-1.7-.6-.7-1.7-.7-1 0-1.7.7t-.7 1.7q0 1 .7 1.7t1.7.7zm3.7 6.3q0-.6-.2-1l-.8-.4q-.6-.2-1.8-.2-1.7 0-2.8-.3l-.8.8q-.2.4-.2 1.1 0 .8 1 1.3.8.4 2.5.4 1.5 0 2.3-.4.8-.5.8-1.3zm9.4-.9q-2.4 0-3.9-1.4-1.4-1.5-1.4-4.2 0-1.8.6-3.1.7-1.4 1.8-2 1.2-.7 2.6-.7 2 0 3.2 1.3 1.3 1.3 1.3 3.9v.8h-7.9q.1 2 1.2 3 1 1 2.6 1 1.7 0 2.8-1.2l1 1q-1.4 1.6-3.9 1.6zm2.4-6.8q0-1.5-.8-2.4-.7-1-2-1-1.2 0-2 1-1 .8-1.2 2.4h6zm8.8-.8q-.5 0-1-.4-.4-.4-.4-1 0-.5.4-1 .4-.4 1-.4t1 .5q.5.4.5 1 0 .5-.5.9-.4.4-1 .4zm0 7.7q-.6 0-1-.4t-.4-1q0-.6.4-1t1-.4q.6 0 1 .4.5.4.5 1 0 .5-.5 1-.4.4-1 .4zm20.1-1.6l1.9-2 2.9-3q1-1.2 1.6-2.2.5-1.1.5-2.3 0-1.5-.7-2.1-.7-.7-1.8-.7-1 0-2 .5-.8.4-1 1l-.4.5-.1.3h.2v.2h-.3l-1.2-1q.7-1.4 2-2.2 1.2-.7 2.8-.7 1.9 0 3 1.1 1.3 1.2 1.3 3.1 0 1.3-.7 2.5-.6 1.3-1.6 2.4l-2.7 2.8-1.6 1.6h6.1l.4-.2h.1v1.7h-8.7v-1.3zm16.6-8.3q1.2 0 2.1.6 1 .6 1.5 1.7t.5 2.5q0 1.5-.5 2.6-.6 1.2-1.6 1.8-1 .6-2.1.6-2.2 0-3.5-1.8-1.2-2-1.2-5.2 0-2.7.7-4.5.6-1.9 1.8-2.9 1.2-1 2.8-1 1.9 0 3.3 1.4l-1 1.2h-.1q-.5-.6-1-.8-.4-.2-1.2-.2-.8 0-1.6.5t-1.4 1.7q-.6 1.3-.6 3.6.5-.9 1.3-1.4.9-.4 1.8-.4zm2.4-2.9q0-.1.2 0v.1h-.2zm.3 0q.1.2 0 .1v-.1zm-2.8 11.3q1.1 0 1.9-1 .7-.9.7-2.5 0-1.2-.4-2-.4-.7-1-1.1-.6-.4-1.2-.4-.9 0-1.6.6-.8.5-1.3 1.4v.7q0 1 .3 2 .4 1 1 1.6.7.7 1.6.7zm9.7 4.5q.6-.6 1-1.3.5-.8.5-1.2l-.1-.4-.4-.4-.5-.5q-.2-.2-.2-.6 0-.6.4-1t1-.4q.7 0 1.1.6.5.6.5 1.4 0 1.9-2.5 4.5l-.8-.7zm-81.2 20.2q2 .7 2.9 1.4.9.7.9 2 0 1.4-1.2 2.4t-3.4 1q-2.8 0-4.6-1.8l1-1.6q.7 1 1.5 1.4.8.5 2.2.5 1.3 0 2-.5.8-.4.8-1.3 0-.6-.6-1.1-.6-.5-2.2-1-4.1-1.1-4.1-3.4 0-1.2 1-2 1-.7 3-.7 1.5 0 2.5.4t1.9 1.3l-1 1.2q-.5-.7-1.5-1.2-.9-.4-1.9-.4-1 0-1.7.3-.6.4-.6 1t.7 1.1q.6.5 2.4 1zm2.3-1.7q0-.2.2 0h-.2zm.3 0h-.1zm-6.8 5h-.2v-.1h.2zm-.2 0h-.1.1zm20.3 2.2q-1.6 1.2-3.5 1.2-1.8 0-2.6-1.1t-.8-3.6V169l.3-3.6h-2.4V164h2.5l.2-2.9 1.9-.3h.2v.1l-.2.4-.1.5-.3 2.2h3.7v1.4h-3.8l-.2 3.8v1.2q0 2 .4 2.7.5.6 1.4.6.8 0 1.4-.2l1.3-.9.6 1.4zm7.2-10.2q2.3 0 3.5 1.2 1.3 1.2 1.3 4.2v5.8h-1.9v-1.7q-1 2-3.7 2-1.9 0-2.9-.9-1-.8-1-2.2 0-1.1.7-2 .8-.8 2-1.3 1.3-.5 2.8-.5 1.4 0 2.5.2-.2-1.9-1-2.6-.8-.8-2.5-.8-.8 0-1.5.3-.8.3-1.4 1l-.9-1.2q1.6-1.5 4-1.5zm-.7 10.1q1.8 0 2.8-1 1-1 1.2-3-1.1-.2-2.4-.2-1.8 0-2.8.6-1.1.6-1.1 1.8 0 1.8 2.3 1.8zm17.5.1q-1.6 1.2-3.5 1.2-1.8 0-2.6-1.1t-.8-3.6V169l.3-3.6h-2.4V164h2.5l.2-2.9 1.9-.3h.2v.1l-.2.4-.1.5-.3 2.2h3.7v1.4h-3.8l-.2 3.8v1.2q0 2 .4 2.7.5.6 1.4.6.8 0 1.4-.2l1.3-.9.6 1.4zm6.6 1.3q-1.7 0-2.8-1.3-1-1.3-1-3.8V164h1.7v6.2q0 2 .7 2.8.7.9 1.8.9 1.3 0 2.1-1 .9-1 .9-2.8v-6h1.7v10.2l.2.7H152l-.3-.7v-1q-.5 1-1.4 1.5-1 .5-2 .5zm13.5-6.8q2 .7 2.9 1.4.9.7.9 2 0 1.4-1.2 2.4t-3.4 1q-2.8 0-4.6-1.8l1-1.6q.7 1 1.5 1.4.8.5 2.2.5 1.3 0 2-.5.8-.4.8-1.3 0-.6-.6-1.1-.6-.5-2.2-1-4.1-1.1-4.1-3.4 0-1.2 1-2 1-.7 3-.7 1.5 0 2.5.4t1.9 1.3l-1 1.2q-.5-.7-1.5-1.2-.9-.4-1.9-.4-1 0-1.7.3-.6.4-.6 1t.7 1.1q.6.5 2.4 1zm2.3-1.7q0-.2.2 0h-.2zm.3 0h-.1zm-6.8 5h-.2v-.1h.2zm-.2 0h-.1.1zm15.3-4.2q-.5 0-1-.4-.4-.4-.4-1 0-.5.4-1 .4-.4 1-.4t1 .5q.5.4.5 1 0 .5-.5.9-.4.4-1 .4zm0 7.7q-.6 0-1-.4t-.4-1q0-.6.4-1t1-.4q.6 0 1 .4.5.4.5 1 0 .5-.5 1-.4.4-1 .4zm23.5-16.3l-.1 3-.2 2-.1 1.2h-1.2l-.1-1.1-.2-2v-3h1.9zm3.6 0l-.1 3-.2 2-.1 1.2h-1.2l-.1-1.1-.2-2v-3h1.9zm4.6 5h1.8v2.2q.4-1.2 1.2-1.8 1-.6 2.1-.6 1.3 0 2.3.6 1 .7 1.7 2 .6 1.2.6 3 0 1.9-.6 3.2-.7 1.3-1.8 2-1 .7-2.2.7-1 0-1.9-.5-.8-.4-1.4-1.2v5.4h-1.8v-15zm4.8 9.8q1.3 0 2.2-1 1-1 1-3.3 0-2-.9-3.1-.8-1.1-2.2-1.1-1.4 0-2.3 1.1-.8 1.2-.8 3.5 0 1.9.8 2.9t2.2 1zm12.3 1.4q-2.4 0-3.9-1.4-1.4-1.5-1.4-4.2 0-1.8.6-3.1.7-1.4 1.8-2 1.2-.7 2.6-.7 2 0 3.2 1.3 1.3 1.3 1.3 3.9v.8h-7.9q.1 2 1.2 3 1 1 2.6 1 1.7 0 2.8-1.2l1 1q-1.4 1.6-3.9 1.6zm2.4-6.8q0-1.5-.8-2.4-.7-1-2-1-1.2 0-2 1-1 .8-1.2 2.4h6zm4.8-4.4h1.7v2q.7-1 1.6-1.6 1-.6 2.1-.6 1.5 0 2.4 1.1.8 1.1.8 3.5v6.6h-1.6v-6.6q0-1.6-.6-2.4-.5-.7-1.5-.7-.7 0-1.5.4-.7.4-1.2 1.2-.5.8-.5 1.8v6.3h-1.7v-11zm15.9 11.2q-1.2 0-2.2-.6-1-.7-1.7-2-.6-1.3-.6-3.2 0-1.9.7-3.2.6-1.2 1.7-1.8 1-.7 2.2-.7 1.1 0 2 .5.8.6 1.2 1.4V159h1.8v.2l-.2.3v14.8l.3.7H248l-.2-.7v-1q-.6 1-1.4 1.4-.9.5-1.9.5zm.3-1.5q1.5 0 2.2-1.1.7-1.2.7-3.1 0-2-.8-3.2-.8-1.1-2.3-1.1-1.4 0-2.2 1-.7 1.1-.7 3 0 2 .8 3.3.8 1.2 2.3 1.2zm8.5 1.3v-1.4h2.8v-8.2h-2.7V164h4.4v9.6h2.6v1.4h-7.1zm3.6-13.3q-.5 0-.9-.3-.3-.4-.3-.9t.3-.9q.3-.3.9-.3.5 0 .8.3.4.4.4.9t-.4.9q-.3.3-.8.3zm7.7 2.3h1.7v2q.7-1 1.6-1.6 1-.6 2.1-.6 1.5 0 2.4 1.1.8 1.1.8 3.5v6.6h-1.6v-6.6q0-1.6-.6-2.4-.5-.7-1.5-.7-.7 0-1.5.4-.7.4-1.2 1.2-.5.8-.5 1.8v6.3h-1.7v-11zm21.7 1.2h-.6q-1.2 0-2 .4.5.9.5 1.8 0 1.1-.5 2-.5.9-1.4 1.4-.8.5-2 .5-.9 0-1.7-.4-.4.6-.4 1 0 .6.7.9.8.2 2.6.2 2.4 0 3.2.8.9.6.9 2t-1.2 2.4q-1.1 1-3.6 1-2.3 0-3.7-.8-1.3-.7-1.3-2.1 0-.9.5-1.5t1.2-1q-.8-.5-.8-1.4 0-1 1-2-.6-.6-.9-1.3-.3-.8-.3-1.7 0-1 .4-1.9.5-.9 1.4-1.4.9-.5 2-.5 1.8 0 2.8 1.2.6-.6 1.2-.8.6-.3 1.4-.3h.4l.2 1.5zm-6 4.6q1 0 1.7-.7t.7-1.7q0-1-.7-1.7-.6-.7-1.7-.7-1 0-1.7.7t-.7 1.7q0 1 .7 1.7t1.7.7zm3.7 6.3q0-.6-.2-1l-.8-.4q-.6-.2-1.8-.2-1.7 0-2.8-.3l-.8.8q-.2.4-.2 1.1 0 .8 1 1.3.8.4 2.5.4 1.5 0 2.3-.4.8-.5.8-1.3zm8.1-17.1l-.1 3-.2 2-.1 1.2h-1.2l-.1-1.1-.2-2v-3h1.9zm3.6 0l-.1 3-.2 2-.1 1.2h-1.2l-.1-1.1-.2-2v-3h1.9zM66.3 208.8v-1.3h1.2q1.7 0 2.4-.7.7-.6.7-2.2l-.1-2q0-3 2-3.7-2-1-2-3.6v-1.7q0-2.5-2.2-2.5h-2v-1.4h1.5q4.4 0 4.4 4.2v1.7q0 1.4.5 2 .5.6 1.7.6h.4v1.3h-.5q-1 0-1.6.6-.5.6-.5 2.1v2.4q.1 1.7-.4 2.6-.5.9-1.7 1.3-1 .3-3 .3h-.8zm14.7-.5q.6-.6 1-1.3.5-.8.5-1.2l-.1-.4-.4-.4-.5-.5q-.2-.2-.2-.6 0-.6.4-1t1-.4q.7 0 1.1.6.5.6.5 1.4 0 1.9-2.5 4.5l-.8-.7zM73.9 239q-1.8 0-3-.3-1-.4-1.6-1.3-.6-.9-.5-2.5l.1-2.4q0-1.5-.5-2.1-.5-.6-1.6-.6h-.5v-1.4h.4q1.2 0 1.7-.6.6-.6.6-2v-1.7q0-4.1 4.3-4.1h1.5v1.3h-2q-2.2 0-2.2 2.6v1.7q0 2.6-2 3.5 2 .7 2 3.7v2q0 1.7.6 2.3.7.6 2.3.6h1.3v1.4h-.9zm22.8 16.3h1.7v2q.7-1 1.6-1.7 1-.6 2.1-.6 1.5 0 2.4 1.1.8 1.1.8 3.5v6.7h-1.6v-6.6q0-1.7-.6-2.4-.5-.8-1.5-.8-.7 0-1.5.5-.7.4-1.2 1.2-.5.8-.5 1.7v6.4h-1.7v-11zm16.2-.3q2.3 0 3.5 1.3 1.3 1.2 1.3 4.1v5.9h-1.9v-1.7q-1 2-3.7 2-1.9 0-2.9-.9-1-.8-1-2.2 0-1.2.7-2 .8-.9 2-1.3 1.3-.5 2.8-.5l2.5.1q-.2-1.8-1-2.6-.8-.7-2.5-.7-.8 0-1.5.3-.8.3-1.4.9l-.9-1.1q1.6-1.6 4-1.6zm-.7 10.2q1.8 0 2.8-1 1-1 1.2-3-1.1-.2-2.4-.2-1.8 0-2.8.6-1.1.6-1.1 1.8 0 1.8 2.3 1.8zm7.8-9.9h1.5v1q.4-.5 1-.9t1.2-.4q.7 0 1.3.5.5.4.7 1.1.3-.7 1-1.1.6-.5 1.4-.5 1.1 0 1.7.8.5.8.5 2v8.5h-1.6v-7.8q0-1.4-.3-1.8-.3-.4-.8-.4-.4 0-.8.4l-.7 1-.2 1.3v7.3h-1.6v-7.7q0-1.3-.3-1.8-.2-.5-1-.5-.3 0-.7.4l-.6.9q-.2.6-.2 1.3v7.3h-1.6v-11zm17.5 11.2q-2.4 0-3.9-1.5-1.4-1.5-1.4-4.2 0-1.8.6-3 .7-1.4 1.8-2 1.2-.8 2.6-.8 2 0 3.2 1.3 1.3 1.4 1.3 4v.7h-7.9q.1 2 1.2 3 1 1.1 2.6 1.1 1.7 0 2.8-1.2l1 1q-1.4 1.6-3.9 1.6zm2.4-6.8q0-1.6-.8-2.4-.7-1-2-1-1.2 0-2 .9-1 .8-1.2 2.5h6zm8.8-.8q-.5 0-1-.4-.4-.5-.4-1 0-.6.4-1t1-.4q.6 0 1 .4.5.4.5 1 0 .5-.5 1-.4.4-1 .4zm0 7.6q-.6 0-1-.4t-.4-1q0-.5.4-1 .4-.3 1-.3t1 .4q.5.4.5 1 0 .5-.5 1-.4.3-1 .3zm23.5-16.2l-.1 3-.2 2-.1 1.2h-1.2l-.1-1.2-.2-2v-3h1.9zm3.6 0l-.1 3-.2 2-.1 1.2h-1.2l-.1-1.2-.2-2v-3h1.9zm9.6 16.2q-1 0-1.8-.4-.9-.5-1.5-1.3l-.6 1.4h-1v-16h2v.3l-.3.3v6.2q.5-1 1.4-1.5 1-.5 1.9-.5 2 0 3.2 1.5 1.3 1.4 1.3 4.2 0 1.8-.7 3.2-.6 1.3-1.7 2-1 .6-2.2.6zm-.2-1.5q1.3 0 2.1-1 .9-1 .9-3.2t-.8-3.2q-.8-1-2.2-1-1.3 0-2.2 1.1-.8 1.2-.8 3.1 0 4.2 3 4.2zm11.8 1.4q-1.5 0-2.6-.7-1.2-.7-1.8-2-.7-1.3-.7-3 0-1.6.7-2.9.6-1.3 1.8-2 1.1-.8 2.6-.8t2.6.8q1.2.7 1.8 2 .7 1.3.7 3 0 1.6-.7 3-.6 1.2-1.8 2-1.1.6-2.6.6zm0-1.4q1 0 1.7-.5.7-.6 1.1-1.6.4-1 .4-2.2 0-1.8-.9-3t-2.3-1.2q-1.4 0-2.3 1.2-1 1.2-1 3 0 1.3.5 2.2.4 1 1.1 1.6.8.5 1.7.5zm12.4 1.5q-1 0-1.8-.4-.9-.5-1.5-1.3l-.6 1.4h-1v-16h2v.3l-.3.3v6.2q.5-1 1.4-1.5 1-.5 1.9-.5 2 0 3.2 1.5 1.3 1.4 1.3 4.2 0 1.8-.7 3.2-.6 1.3-1.7 2-1 .6-2.2.6zm-.2-1.5q1.3 0 2.1-1 .9-1 .9-3.2t-.8-3.2q-.8-1-2.2-1-1.3 0-2.2 1.1-.8 1.2-.8 3.1 0 4.2 3 4.2zm11-14.7l-.1 3-.2 2-.1 1.2h-1.2l-.1-1.2-.2-2v-3h1.9zm3.6 0l-.1 3-.2 2-.1 1.2h-1.2l-.1-1.2-.2-2v-3h1.9zm7.2 19.3l1-1.4q.5-.7.5-1.2l-.1-.3-.4-.4-.5-.6q-.2-.2-.2-.5 0-.6.4-1t1-.4q.7 0 1.1.6.5.5.5 1.4 0 1.8-2.5 4.5l-.8-.7zM100.9 284q2.3 0 3.5 1.3 1.3 1.2 1.3 4.1v5.8h-1.9v-1.6q-1 2-3.7 2-1.9 0-2.9-.9-1-.8-1-2.2 0-1.2.7-2 .8-.9 2-1.3 1.3-.5 2.8-.5l2.5.1q-.2-1.8-1-2.6-.8-.7-2.5-.7-.8 0-1.5.3-.8.3-1.4.9l-.9-1.1q1.6-1.6 4-1.6zm-.7 10.2q1.8 0 2.8-1 1-1 1.2-3-1.1-.2-2.4-.2-1.8 0-2.8.6-1.1.6-1.1 1.8 0 1.8 2.3 1.8zm18.2-8.8h-.6q-1.2 0-2 .5.5.8.5 1.8t-.5 2q-.5.8-1.4 1.3-.8.5-2 .5-.9 0-1.7-.3-.4.5-.4 1 0 .6.7.8.8.3 2.6.3 2.4 0 3.2.7.9.7.9 2 0 1.5-1.2 2.4-1.1 1-3.6 1-2.3 0-3.7-.7-1.3-.8-1.3-2.2 0-.8.5-1.4.5-.7 1.2-1-.8-.6-.8-1.5 0-1 1-2-.6-.5-.9-1.3-.3-.7-.3-1.6 0-1 .4-2 .5-.8 1.4-1.3.9-.5 2-.5 1.8 0 2.8 1.1l1.2-.8q.6-.2 1.4-.2h.4l.2 1.4zm-6 4.7q1 0 1.7-.7t.7-1.7q0-1-.7-1.7-.6-.7-1.7-.7-1 0-1.7.7t-.7 1.7q0 1 .7 1.7t1.7.7zm3.7 6.2q0-.5-.2-.9-.2-.3-.8-.4-.6-.2-1.8-.2-1.7 0-2.8-.3l-.8.8q-.2.4-.2 1 0 .9 1 1.3.8.5 2.5.5 1.5 0 2.3-.5.8-.5.8-1.3zm9.4-.8q-2.4 0-3.9-1.5-1.4-1.5-1.4-4.2 0-1.8.6-3 .7-1.4 1.8-2 1.2-.8 2.6-.8 2 0 3.2 1.3 1.3 1.4 1.3 4v.7h-7.9q.1 2 1.2 3 1 1.1 2.6 1.1 1.7 0 2.8-1.2l1 1q-1.4 1.6-3.9 1.6zm2.4-6.8q0-1.6-.8-2.4-.7-1-2-1-1.2 0-2 .9-1 .8-1.2 2.5h6zm8.8-.8q-.5 0-1-.4-.4-.5-.4-1 0-.6.4-1t1-.4q.6 0 1 .4.5.4.5 1 0 .5-.5 1-.4.4-1 .4zm0 7.6q-.6 0-1-.4t-.4-1q0-.5.4-1 .4-.3 1-.3t1 .4q.5.4.5 1 0 .5-.5 1-.4.3-1 .3zm20.1-1.5l1.9-2 2.9-3.1q1-1.1 1.6-2.2.5-1.1.5-2.3 0-1.4-.7-2-.7-.7-1.8-.7-1 0-2 .4-.8.5-1 1l-.4.6-.1.3h.2v.2l-.3-.1-1.2-1q.7-1.4 2-2.1 1.2-.8 2.8-.8 1.9 0 3 1.2 1.3 1.1 1.3 3 0 1.4-.7 2.6-.6 1.2-1.6 2.3l-2.7 2.8-1.6 1.7h6.1l.4-.3h.1v1.7h-8.7V294zm16.4-8.5q1.3 0 2.3.7 1 .6 1.6 1.7.6 1.1.6 2.6 0 1.6-.6 2.7t-1.7 1.7q-1 .6-2.4.6t-2.6-.6q-1.1-.6-1.9-1.7l1.4-1q.7 1 1.3 1.4.7.4 1.9.4.7 0 1.4-.4t1-1.2q.5-.8.5-2 0-1.6-1-2.5-.8-1-2.1-1-.8 0-1.5.4-.8.4-1.3 1l-1-.4.4-7.6h7.6v1.5H171l-.3 4.3q1.2-.6 2.5-.6zm-3.3 6.7q-.1-.2 0 0zm.3 0q0 .1-.2 0v-.1h.2zm12.8 6.4l1-1.4q.5-.7.5-1.2l-.1-.3-.4-.4-.5-.6q-.2-.2-.2-.5 0-.6.4-1t1-.4q.7 0 1.1.6.5.5.5 1.4 0 1.8-2.5 4.5l-.8-.7zm-81.2 20.2q2 .6 2.9 1.4.9.7.9 1.9 0 1.4-1.2 2.4t-3.4 1q-2.8 0-4.6-1.7l1-1.7q.7 1 1.5 1.5.8.4 2.2.4 1.3 0 2-.4.8-.5.8-1.3 0-.7-.6-1.2-.6-.4-2.2-1-4.1-1-4.1-3.3 0-1.3 1-2 1-.8 3-.8 1.5 0 2.5.4 1 .5 1.9 1.3l-1 1.2q-.5-.7-1.5-1.1-.9-.5-1.9-.5-1 0-1.7.4-.6.3-.6 1 0 .6.7 1 .6.6 2.4 1zm2.3-1.8q0-.1.2 0v.1h-.2zm.3 0q0 .1 0 0h-.1zm-6.8 5q0 .1-.2 0h.2zm-.2.1l-.1-.1h.1v.1zm20.3 2.1q-1.6 1.2-3.5 1.2-1.8 0-2.6-1-.8-1.2-.8-3.7v-1.4l.3-3.6h-2.4v-1.4h2.5l.2-3 1.9-.3h.2v.2l-.2.4-.1.5-.3 2.2h3.7v1.4h-3.8l-.2 3.7v1.3q0 2 .4 2.6.5.7 1.4.7.8 0 1.4-.3.6-.2 1.3-.8l.6 1.3zm7.2-10.2q2.3 0 3.5 1.3 1.3 1.2 1.3 4.1v5.8h-1.9v-1.6q-1 2-3.7 2-1.9 0-2.9-.9-1-.8-1-2.2 0-1.2.7-2 .8-.9 2-1.3 1.3-.5 2.8-.5l2.5.1q-.2-1.8-1-2.6-.8-.7-2.5-.7-.8 0-1.5.3-.8.3-1.4.9l-.9-1.1q1.6-1.6 4-1.6zm-.7 10.2q1.8 0 2.8-1 1-1 1.2-3-1.1-.2-2.4-.2-1.8 0-2.8.6-1.1.6-1.1 1.8 0 1.8 2.3 1.8zm17.5 0q-1.6 1.2-3.5 1.2-1.8 0-2.6-1-.8-1.2-.8-3.7v-1.4l.3-3.6h-2.4v-1.4h2.5l.2-3 1.9-.3h.2v.2l-.2.4-.1.5-.3 2.2h3.7v1.4h-3.8l-.2 3.7v1.3q0 2 .4 2.6.5.7 1.4.7.8 0 1.4-.3.6-.2 1.3-.8l.6 1.3zm6.6 1.3q-1.7 0-2.8-1.3-1-1.3-1-3.8v-6.1h1.7v6.1q0 2 .7 2.9.7.8 1.8.8 1.3 0 2.1-1 .9-1 .9-2.8v-6h1.7v10.2l.2.8H152l-.3-.8v-1q-.5 1-1.4 1.5-1 .5-2 .5zm13.5-6.7q2 .6 2.9 1.4.9.7.9 1.9 0 1.4-1.2 2.4t-3.4 1q-2.8 0-4.6-1.7l1-1.7q.7 1 1.5 1.5.8.4 2.2.4 1.3 0 2-.4.8-.5.8-1.3 0-.7-.6-1.2-.6-.4-2.2-1-4.1-1-4.1-3.3 0-1.3 1-2 1-.8 3-.8 1.5 0 2.5.4 1 .5 1.9 1.3l-1 1.2q-.5-.7-1.5-1.1-.9-.5-1.9-.5-1 0-1.7.4-.6.3-.6 1 0 .6.7 1 .6.6 2.4 1zm2.3-1.8q0-.1.2 0v.1h-.2zm.3 0q0 .1 0 0h-.1zm-6.8 5q0 .1-.2 0h.2zm-.2.1l-.1-.1h.1v.1zm15.3-4.2q-.5 0-1-.4-.4-.5-.4-1 0-.6.4-1t1-.4q.6 0 1 .4.5.4.5 1 0 .5-.5 1-.4.4-1 .4zm0 7.6q-.6 0-1-.4t-.4-1q0-.5.4-1 .4-.3 1-.3t1 .4q.5.4.5 1 0 .5-.5 1-.4.3-1 .3zm23.5-16.2l-.1 3-.2 2-.1 1.2h-1.2l-.1-1.2-.2-2v-3h1.9zm3.6 0l-.1 3-.2 2-.1 1.2h-1.2l-.1-1.2-.2-2v-3h1.9zm9.7 16.2q-2.4 0-3.9-1.5-1.4-1.5-1.4-4.2 0-1.8.6-3 .7-1.4 1.8-2 1.2-.8 2.6-.8 2 0 3.2 1.3 1.3 1.4 1.3 4v.7h-7.9q.1 2 1.2 3 1 1.1 2.6 1.1 1.7 0 2.8-1.2l1 1q-1.4 1.6-3.9 1.6zm2.4-6.8q0-1.6-.8-2.4-.7-1-2-1-1.2 0-2 .9-1 .8-1.2 2.5h6zm4.8-4.4h1.7v2q.7-1 1.6-1.7 1-.6 2.1-.6 1.5 0 2.4 1.1.8 1.1.8 3.5v6.6h-1.6v-6.5q0-1.7-.6-2.4-.5-.8-1.5-.8-.7 0-1.5.5-.7.4-1.2 1.2-.5.8-.5 1.7v6.4h-1.7v-11zm20.5 2.3q-.7-.7-1.2-.9-.4-.2-1-.2-.9 0-1.7.4-.7.5-1.2 1.4-.5.8-.5 2.1v5.9H230v-11h1.8v2q.4-1 1.3-1.7 1-.6 2-.6 1.8 0 3 1.2l-.8 1.4zm0 0l.1.1h-.1v-.1zm-.2 0h.2v.2l-.2-.1zm8 8.8q-1.5 0-2.6-.7-1.2-.7-1.8-2-.7-1.3-.7-3 0-1.6.7-2.9.6-1.3 1.8-2 1.1-.8 2.6-.8t2.6.8q1.2.7 1.8 2 .7 1.3.7 3 0 1.6-.7 3-.6 1.2-1.8 2-1.1.6-2.6.6zm0-1.4q1 0 1.7-.5.7-.6 1.1-1.6.4-1 .4-2.2 0-1.8-.9-3t-2.3-1.2q-1.4 0-2.3 1.2-1 1.2-1 3 0 1.3.5 2.2.4 1 1.1 1.6.8.5 1.7.5zm7.9 1.3v-1.4h3.2v-13.2h-3v-1.4h4.8v14.6h3.2v1.4h-8.2zm12 0v-1.4h3.2v-13.2h-3v-1.4h4.8v14.6h3.2v1.4h-8.2zm16.6.2q-2.4 0-3.9-1.5-1.4-1.5-1.4-4.2 0-1.8.6-3 .7-1.4 1.8-2 1.2-.8 2.6-.8 2 0 3.2 1.3 1.3 1.4 1.3 4v.7h-7.9q.1 2 1.2 3 1 1.1 2.6 1.1 1.7 0 2.8-1.2l1 1q-1.4 1.6-3.9 1.6zm2.4-6.8q0-1.6-.8-2.4-.7-1-2-1-1.2 0-2 .9-1 .8-1.2 2.5h6zm8.7 6.8q-1.2 0-2.2-.7-1-.6-1.7-2-.6-1.3-.6-3.1 0-2 .7-3.2.6-1.3 1.7-1.9 1-.6 2.2-.6 1.1 0 2 .5.8.5 1.2 1.4v-6.6h1.8v.2l-.2.3v14.7l.3.7H296q-.2-.3-.2-.7v-1q-.6 1-1.4 1.5-.9.5-1.9.5zm.3-1.5q1.5 0 2.2-1.2.7-1.2.7-3 0-2-.8-3.2-.8-1.2-2.3-1.2-1.4 0-2.2 1-.7 1.1-.7 3 0 2.1.8 3.4.8 1.2 2.3 1.2zm11.3-14.7l-.1 3-.2 2-.1 1.2h-1.2l-.1-1.2-.2-2v-3h1.9zm3.6 0l-.1 3-.2 2-.1 1.2h-1.2l-.1-1.2-.2-2v-3h1.9zM66.3 359v-1.3h1.2q1.7 0 2.4-.6.7-.7.7-2.3l-.1-2q0-3 2-3.7-2-1-2-3.5v-1.7q0-2.6-2.2-2.6h-2V340h1.5q4.4 0 4.4 4.1v1.8q0 1.3.5 2 .5.5 1.7.5h.4v1.4h-.5q-1 0-1.6.6-.5.6-.5 2v2.5q.1 1.6-.4 2.5-.5 1-1.7 1.3-1 .4-3 .4h-.8zm14.7-.4l1-1.4q.5-.7.5-1.2l-.1-.3-.4-.4-.5-.6q-.2-.2-.2-.5 0-.6.4-1t1-.4q.7 0 1.1.6.5.5.5 1.4 0 1.8-2.5 4.5l-.8-.7zm-7.1 30.2q-1.8 0-3-.3-1-.4-1.6-1.3-.6-1-.5-2.6l.1-2.4q0-1.5-.5-2-.5-.7-1.6-.7h-.5v-1.3h.4q1.2 0 1.7-.6.6-.6.6-2V374q0-4.2 4.3-4.2h1.5v1.4h-2q-2.2 0-2.2 2.5v1.7q0 2.6-2 3.6 2 .6 2 3.7v2q0 1.6.6 2.2.7.7 2.3.7h1.3v1.3h-.9zM96.7 405h1.7v2q.7-1 1.6-1.6 1-.6 2.1-.6 1.5 0 2.4 1.1.8 1.1.8 3.5v6.6h-1.6v-6.6q0-1.6-.6-2.4-.5-.7-1.5-.7-.7 0-1.5.4-.7.4-1.2 1.2-.5.8-.5 1.8v6.3h-1.7v-11zm16.2-.2q2.3 0 3.5 1.2 1.3 1.2 1.3 4.2v5.8h-1.9v-1.7q-1 2-3.7 2-1.9 0-2.9-.9-1-.8-1-2.2 0-1.1.7-2 .8-.8 2-1.3 1.3-.5 2.8-.5 1.4 0 2.5.2-.2-1.9-1-2.6-.8-.8-2.5-.8-.8 0-1.5.3-.8.3-1.4 1l-.9-1.2q1.6-1.5 4-1.5zm-.7 10.1q1.8 0 2.8-1 1-1 1.2-3-1.1-.2-2.4-.2-1.8 0-2.8.6-1.1.6-1.1 1.8 0 1.8 2.3 1.8zm7.8-9.9h1.5v1.1q.4-.6 1-1 .6-.3 1.2-.3.7 0 1.3.4.5.5.7 1.2.3-.7 1-1.2.6-.4 1.4-.4 1.1 0 1.7.8.5.7.5 2v8.4h-1.6v-7.8q0-1.3-.3-1.8-.3-.4-.8-.4-.4 0-.8.4l-.7 1.1q-.2.6-.2 1.3v7.2h-1.6v-7.6q0-1.4-.3-1.8-.2-.5-1-.5-.3 0-.7.3-.3.3-.6 1-.2.5-.2 1.3v7.3h-1.6v-11zm17.5 11.2q-2.4 0-3.9-1.4-1.4-1.5-1.4-4.2 0-1.8.6-3.1.7-1.4 1.8-2 1.2-.7 2.6-.7 2 0 3.2 1.3 1.3 1.3 1.3 3.9v.8h-7.9q.1 2 1.2 3 1 1 2.6 1 1.7 0 2.8-1.2l1 1q-1.4 1.6-3.9 1.6zm2.4-6.8q0-1.5-.8-2.4-.7-1-2-1-1.2 0-2 1-1 .8-1.2 2.4h6zm8.8-.8q-.5 0-1-.4-.4-.4-.4-1 0-.5.4-1 .4-.4 1-.4t1 .5q.5.4.5 1 0 .5-.5.9-.4.4-1 .4zm0 7.7q-.6 0-1-.4t-.4-1q0-.6.4-1t1-.4q.6 0 1 .4.5.4.5 1 0 .5-.5 1-.4.4-1 .4zm23.5-16.3l-.1 3-.2 2-.1 1.2h-1.2l-.1-1.1-.2-2v-3h1.9zm3.6 0l-.1 3-.2 2-.1 1.2h-1.2l-.1-1.1-.2-2v-3h1.9zm9.1 4.8q2.3 0 3.5 1.2 1.3 1.2 1.3 4.2v5.8h-1.9v-1.7q-1 2-3.7 2-1.9 0-2.9-.9-1-.8-1-2.2 0-1.1.7-2 .8-.8 2-1.3 1.3-.5 2.8-.5 1.4 0 2.5.2-.2-1.9-1-2.6-.8-.8-2.5-.8-.8 0-1.5.3-.8.3-1.4 1l-.9-1.2q1.6-1.5 4-1.5zm-.7 10.1q1.8 0 2.8-1 1-1 1.2-3-1.1-.2-2.4-.2-1.8 0-2.8.6-1.1.6-1.1 1.8 0 1.8 2.3 1.8zm8.5-9.9h1.7v2q.7-1 1.6-1.6 1-.6 2.1-.6 1.5 0 2.4 1.1.8 1.1.8 3.5v6.6h-1.6v-6.6q0-1.6-.6-2.4-.5-.7-1.5-.7-.7 0-1.5.4-.7.4-1.2 1.2-.5.8-.5 1.8v6.3h-1.7v-11zm12 0h1.7v2q.7-1 1.6-1.6 1-.6 2.1-.6 1.5 0 2.4 1.1.8 1.1.8 3.5v6.6h-1.6v-6.6q0-1.6-.6-2.4-.5-.7-1.5-.7-.7 0-1.5.4-.7.4-1.2 1.2-.5.8-.5 1.8v6.3h-1.7v-11zm15.5-5l-.1 3-.2 2-.1 1.2h-1.2l-.1-1.1-.2-2v-3h1.9zm3.6 0l-.1 3-.2 2-.1 1.2h-1.2l-.1-1.1-.2-2v-3h1.9zm7.2 19.3q.6-.6 1-1.3.5-.8.5-1.2l-.1-.4-.4-.4-.5-.5q-.2-.2-.2-.6 0-.6.4-1t1-.4q.7 0 1.1.6.5.6.5 1.4 0 1.9-2.5 4.5l-.8-.7zm-130.1 14.5q2.3 0 3.5 1.2 1.3 1.2 1.3 4.2v5.8h-1.9v-1.7q-1 2-3.7 2-1.9 0-2.9-.9-1-.8-1-2.2 0-1.1.7-2 .8-.8 2-1.3 1.3-.5 2.8-.5 1.4 0 2.5.2-.2-1.9-1-2.6-.8-.8-2.5-.8-.8 0-1.5.3-.8.3-1.4 1l-.9-1.2q1.6-1.5 4-1.5zm-.7 10.1q1.8 0 2.8-1 1-1 1.2-3-1.1-.2-2.4-.2-1.8 0-2.8.6-1.1.6-1.1 1.8 0 1.8 2.3 1.8zm18.2-8.7h-.6q-1.2 0-2 .4.5.9.5 1.8 0 1.1-.5 2-.5.9-1.4 1.4-.8.5-2 .5-.9 0-1.7-.4-.4.6-.4 1 0 .6.7.9.8.2 2.6.2 2.4 0 3.2.8.9.6.9 2t-1.2 2.4q-1.1 1-3.6 1-2.3 0-3.7-.8-1.3-.7-1.3-2.1 0-.9.5-1.5t1.2-1q-.8-.5-.8-1.4 0-1 1-2-.6-.6-.9-1.3-.3-.8-.3-1.7 0-1 .4-1.9.5-.9 1.4-1.4.9-.5 2-.5 1.8 0 2.8 1.2.6-.6 1.2-.8.6-.3 1.4-.3h.4l.2 1.5zm-6 4.6q1 0 1.7-.7t.7-1.7q0-1-.7-1.7-.6-.7-1.7-.7-1 0-1.7.7t-.7 1.7q0 1 .7 1.7t1.7.7zm3.7 6.3q0-.6-.2-1l-.8-.4q-.6-.2-1.8-.2-1.7 0-2.8-.3l-.8.8q-.2.4-.2 1.1 0 .8 1 1.3.8.4 2.5.4 1.5 0 2.3-.4.8-.5.8-1.3zm9.4-.9q-2.4 0-3.9-1.4-1.4-1.5-1.4-4.2 0-1.8.6-3.1.7-1.4 1.8-2 1.2-.7 2.6-.7 2 0 3.2 1.3 1.3 1.3 1.3 3.9v.8h-7.9q.1 2 1.2 3 1 1 2.6 1 1.7 0 2.8-1.2l1 1q-1.4 1.6-3.9 1.6zm2.4-6.8q0-1.5-.8-2.4-.7-1-2-1-1.2 0-2 1-1 .8-1.2 2.4h6zm8.8-.8q-.5 0-1-.4-.4-.4-.4-1 0-.5.4-1 .4-.4 1-.4t1 .5q.5.4.5 1 0 .5-.5.9-.4.4-1 .4zm0 7.7q-.6 0-1-.4t-.4-1q0-.6.4-1t1-.4q.6 0 1 .4.5.4.5 1 0 .5-.5 1-.4.4-1 .4zm20.1-1.6l1.9-2 2.9-3q1-1.2 1.6-2.2.5-1.1.5-2.3 0-1.5-.7-2.1-.7-.7-1.8-.7-1 0-2 .5-.8.4-1 1l-.4.5-.1.3h.2v.2h-.3l-1.2-1q.7-1.4 2-2.2 1.2-.7 2.8-.7 1.9 0 3 1.1 1.3 1.2 1.3 3.1 0 1.3-.7 2.5-.6 1.3-1.6 2.4l-2.7 2.8-1.6 1.6h6.1l.4-.2h.1v1.7h-8.7v-1.3zm16.2 1.5q-1.4 0-2.4-.5t-1.6-1.4q-.6-1-.6-2 0-1.4.9-2.5.8-1.1 2.1-1.7-1-.6-1.6-1.5-.6-1-.6-2 0-1.7 1-2.7 1-1 3-1 1.9 0 2.9 1t1 2.5q0 1-.7 2-.6 1-1.7 1.6 1.3.6 2 1.7.9 1.1.9 2.4 0 1.2-.6 2.1-.5 1-1.6 1.5-1 .5-2.4.5zm.4-8.8q.9-.5 1.5-1.3.5-.8.5-1.6 0-1-.6-1.6-.6-.6-1.7-.6-1.2 0-1.8.6-.5.6-.5 1.5 0 1 .6 1.6.7.7 2 1.4zm-.4 7.3q1.4 0 2.1-.7.8-.7.8-1.9 0-1-.9-2-.8-1-2.3-1.4-1.1.5-1.8 1.4-.7 1-.7 2t.7 1.9q.8.7 2.1.7zm10 4.6q.6-.6 1-1.3.5-.8.5-1.2l-.1-.4-.4-.4-.5-.5q-.2-.2-.2-.6 0-.6.4-1t1-.4q.7 0 1.1.6.5.6.5 1.4 0 1.9-2.5 4.5l-.8-.7zm-81.2 20.2q2 .7 2.9 1.4.9.7.9 2 0 1.4-1.2 2.4t-3.4 1q-2.8 0-4.6-1.8l1-1.6q.7 1 1.5 1.4.8.5 2.2.5 1.3 0 2-.5.8-.4.8-1.3 0-.6-.6-1.1-.6-.5-2.2-1-4.1-1.1-4.1-3.4 0-1.2 1-2 1-.7 3-.7 1.5 0 2.5.4t1.9 1.3l-1 1.2q-.5-.7-1.5-1.2-.9-.4-1.9-.4-1 0-1.7.3-.6.4-.6 1t.7 1.1q.6.5 2.4 1zm2.3-1.7q0-.2.2 0h-.2zm.3 0h-.1zm-6.8 5h-.2v-.1h.2zm-.2 0h-.1.1zm20.3 2.2q-1.6 1.2-3.5 1.2-1.8 0-2.6-1.1t-.8-3.6V469l.3-3.6h-2.4V464h2.5l.2-2.9 1.9-.3h.2v.1l-.2.4-.1.5-.3 2.2h3.7v1.4h-3.8l-.2 3.8v1.2q0 2 .4 2.7.5.6 1.4.6.8 0 1.4-.2l1.3-.9.6 1.4zm7.2-10.2q2.3 0 3.5 1.2 1.3 1.2 1.3 4.2v5.8h-1.9v-1.7q-1 2-3.7 2-1.9 0-2.9-.9-1-.8-1-2.2 0-1.1.7-2 .8-.8 2-1.3 1.3-.5 2.8-.5 1.4 0 2.5.2-.2-1.9-1-2.6-.8-.8-2.5-.8-.8 0-1.5.3-.8.3-1.4 1l-.9-1.2q1.6-1.5 4-1.5zm-.7 10.1q1.8 0 2.8-1 1-1 1.2-3-1.1-.2-2.4-.2-1.8 0-2.8.6-1.1.6-1.1 1.8 0 1.8 2.3 1.8zm17.5.1q-1.6 1.2-3.5 1.2-1.8 0-2.6-1.1t-.8-3.6V469l.3-3.6h-2.4V464h2.5l.2-2.9 1.9-.3h.2v.1l-.2.4-.1.5-.3 2.2h3.7v1.4h-3.8l-.2 3.8v1.2q0 2 .4 2.7.5.6 1.4.6.8 0 1.4-.2l1.3-.9.6 1.4zm6.6 1.3q-1.7 0-2.8-1.3-1-1.3-1-3.8V464h1.7v6.2q0 2 .7 2.8.7.9 1.8.9 1.3 0 2.1-1 .9-1 .9-2.8v-6h1.7v10.2l.2.7H152l-.3-.7v-1q-.5 1-1.4 1.5-1 .5-2 .5zm13.5-6.8q2 .7 2.9 1.4.9.7.9 2 0 1.4-1.2 2.4t-3.4 1q-2.8 0-4.6-1.8l1-1.6q.7 1 1.5 1.4.8.5 2.2.5 1.3 0 2-.5.8-.4.8-1.3 0-.6-.6-1.1-.6-.5-2.2-1-4.1-1.1-4.1-3.4 0-1.2 1-2 1-.7 3-.7 1.5 0 2.5.4t1.9 1.3l-1 1.2q-.5-.7-1.5-1.2-.9-.4-1.9-.4-1 0-1.7.3-.6.4-.6 1t.7 1.1q.6.5 2.4 1zm2.3-1.7q0-.2.2 0h-.2zm.3 0h-.1zm-6.8 5h-.2v-.1h.2zm-.2 0h-.1.1zm15.3-4.2q-.5 0-1-.4-.4-.4-.4-1 0-.5.4-1 .4-.4 1-.4t1 .5q.5.4.5 1 0 .5-.5.9-.4.4-1 .4zm0 7.7q-.6 0-1-.4t-.4-1q0-.6.4-1t1-.4q.6 0 1 .4.5.4.5 1 0 .5-.5 1-.4.4-1 .4zm23.5-16.3l-.1 3-.2 2-.1 1.2h-1.2l-.1-1.1-.2-2v-3h1.9zm3.6 0l-.1 3-.2 2-.1 1.2h-1.2l-.1-1.1-.2-2v-3h1.9zm9.7 16.2q-2.4 0-3.9-1.4-1.4-1.5-1.4-4.2 0-1.8.6-3.1.7-1.4 1.8-2 1.2-.7 2.6-.7 2 0 3.2 1.3 1.3 1.3 1.3 3.9v.8h-7.9q.1 2 1.2 3 1 1 2.6 1 1.7 0 2.8-1.2l1 1q-1.4 1.6-3.9 1.6zm2.4-6.8q0-1.5-.8-2.4-.7-1-2-1-1.2 0-2 1-1 .8-1.2 2.4h6zm4.8-4.4h1.7v2q.7-1 1.6-1.6 1-.6 2.1-.6 1.5 0 2.4 1.1.8 1.1.8 3.5v6.6h-1.6v-6.6q0-1.6-.6-2.4-.5-.7-1.5-.7-.7 0-1.5.4-.7.4-1.2 1.2-.5.8-.5 1.8v6.3h-1.7v-11zm20.5 2.3q-.7-.6-1.2-.8-.4-.2-1-.2-.9 0-1.7.4-.7.4-1.2 1.3t-.5 2.2v5.8H230v-11h1.8v2q.4-1 1.3-1.6 1-.6 2-.6 1.8 0 3 1.2l-.8 1.3zm0 0l.1.2h-.1v-.2zm-.2.1h.2v.1h-.2zm8 8.8q-1.5 0-2.6-.7-1.2-.7-1.8-2-.7-1.3-.7-3t.7-3q.6-1.2 1.8-2 1.1-.7 2.6-.7t2.6.7q1.2.8 1.8 2 .7 1.3.7 3t-.7 3q-.6 1.3-1.8 2-1.1.7-2.6.7zm0-1.4q1 0 1.7-.6t1.1-1.5q.4-1 .4-2.2 0-1.9-.9-3-.9-1.3-2.3-1.3t-2.3 1.2q-1 1.2-1 3 0 1.3.5 2.3.4 1 1.1 1.5.8.6 1.7.6zm7.9 1.2v-1.4h3.2v-13.2h-3V459h4.8v14.6h3.2v1.4h-8.2zm12 0v-1.4h3.2v-13.2h-3V459h4.8v14.6h3.2v1.4h-8.2zm16.6.2q-2.4 0-3.9-1.4-1.4-1.5-1.4-4.2 0-1.8.6-3.1.7-1.4 1.8-2 1.2-.7 2.6-.7 2 0 3.2 1.3 1.3 1.3 1.3 3.9v.8h-7.9q.1 2 1.2 3 1 1 2.6 1 1.7 0 2.8-1.2l1 1q-1.4 1.6-3.9 1.6zm2.4-6.8q0-1.5-.8-2.4-.7-1-2-1-1.2 0-2 1-1 .8-1.2 2.4h6zm8.7 6.8q-1.2 0-2.2-.6-1-.7-1.7-2-.6-1.3-.6-3.2 0-1.9.7-3.2.6-1.2 1.7-1.8 1-.7 2.2-.7 1.1 0 2 .5.8.6 1.2 1.4V459h1.8v.2l-.2.3v14.8l.3.7H296l-.2-.7v-1q-.6 1-1.4 1.4-.9.5-1.9.5zm.3-1.5q1.5 0 2.2-1.1.7-1.2.7-3.1 0-2-.8-3.2-.8-1.1-2.3-1.1-1.4 0-2.2 1-.7 1.1-.7 3 0 2 .8 3.3.8 1.2 2.3 1.2zm11.3-14.7l-.1 3-.2 2-.1 1.2h-1.2l-.1-1.1-.2-2v-3h1.9zm3.6 0l-.1 3-.2 2-.1 1.2h-1.2l-.1-1.1-.2-2v-3h1.9zM66.3 508.8v-1.3h1.2q1.7 0 2.4-.7.7-.6.7-2.2l-.1-2q0-3 2-3.7-2-1-2-3.6v-1.7q0-2.5-2.2-2.5h-2v-1.4h1.5q4.4 0 4.4 4.2v1.7q0 1.4.5 2 .5.6 1.7.6h.4v1.3h-.5q-1 0-1.6.6-.5.6-.5 2.1v2.4q.1 1.7-.4 2.6-.5.9-1.7 1.3-1 .3-3 .3h-.8z" font-size="24" font-family="Inconsolata" fill="#2a86c0"/><path d="M329 12v15l-10-7.6 10-7.4z" fill="#5ca831"/><path d="M375 19.4h-46" stroke="#5ca831" stroke-width="2" fill="none"/><path d="M392 23.7q1.6 0 2.8-1.3l1 1.1q-1.6 1.8-4 1.8-1.5 0-2.8-.8-1.2-.7-2-2-.7-1.3-.7-3 0-1.6.7-2.9.8-1.3 2-2 1.3-.8 2.8-.8 1.3 0 2.4.6 1.1.5 1.8 1.5l-1.1 1q-.7-.9-1.5-1.2-.7-.4-1.8-.4-1 0-1.7.5-.8.5-1.3 1.4-.5 1-.5 2.2 0 1.2.5 2.2.5 1 1.4 1.6.9.5 2 .5zm2.6-6.7q0-.2.2 0h-.2zm.3 0q0 .1 0 0zm8.1 8.2q-1.5 0-2.6-.7-1.2-.7-1.8-2-.7-1.3-.7-3t.7-3q.6-1.2 1.8-2 1.1-.7 2.6-.7t2.6.7q1.2.8 1.8 2 .7 1.3.7 3t-.7 3q-.6 1.3-1.8 2-1.1.7-2.6.7zm0-1.4q1 0 1.7-.6t1.1-1.5q.4-1 .4-2.2 0-1.9-.9-3-.9-1.3-2.3-1.3t-2.3 1.2q-1 1.2-1 3 0 1.3.5 2.3.4 1 1.1 1.5.8.6 1.7.6zm7.9 1.2v-1.4h3.2V10.4h-3V9h4.8v14.6h3.2V25h-8.2zm12 0v-1.4h3.2V10.4h-3V9h4.8v14.6h3.2V25h-8.2zm16.6.2q-2.4 0-3.9-1.4-1.4-1.5-1.4-4.2 0-1.8.6-3.1.7-1.4 1.8-2 1.2-.7 2.6-.7 2 0 3.2 1.3 1.3 1.3 1.3 3.9v.8h-7.9q.1 2 1.2 3 1 1 2.6 1 1.7 0 2.8-1.2l1 1q-1.4 1.6-3.9 1.6zm2.4-6.8q0-1.5-.8-2.4-.7-1-2-1-1.2 0-2 1-1 .8-1.2 2.4h6zm10.1 5.3q1.6 0 2.8-1.3l1 1.1q-1.6 1.8-4 1.8-1.5 0-2.8-.8-1.2-.7-2-2-.7-1.3-.7-3 0-1.6.7-2.9.8-1.3 2-2 1.3-.8 2.8-.8 1.3 0 2.4.6 1.1.5 1.8 1.5l-1.1 1q-.7-.9-1.5-1.2-.7-.4-1.8-.4-1 0-1.7.5-.8.5-1.3 1.4-.5 1-.5 2.2 0 1.2.5 2.2.5 1 1.4 1.6.9.5 2 .5zm2.6-6.7q0-.2.2 0h-.2zm.3 0q0 .1 0 0zm12.8 7q-1.6 1.2-3.5 1.2-1.8 0-2.6-1.1t-.8-3.6V19l.3-3.6h-2.4V14h2.5l.2-2.9 1.9-.3h.2v.1l-.2.4-.1.5-.3 2.2h3.7v1.4h-3.8l-.2 3.8v1.2q0 2 .4 2.7.5.6 1.4.6.8 0 1.4-.2l1.3-.9.6 1.4zm3.7 1v-1.4h2.8v-8.2h-2.7V14h4.4v9.6h2.6V25h-7.1zm3.6-13.3q-.5 0-.9-.3-.3-.4-.3-.9t.3-.9q.3-.3.9-.3.5 0 .8.3.4.4.4.9t-.4.9q-.3.3-.8.3zm12 13.5q-1.5 0-2.6-.7-1.2-.7-1.8-2-.7-1.3-.7-3t.7-3q.6-1.2 1.8-2 1.1-.7 2.6-.7t2.6.7q1.2.8 1.8 2 .7 1.3.7 3t-.7 3q-.6 1.3-1.8 2-1.1.7-2.6.7zm0-1.4q1 0 1.7-.6t1.1-1.5q.4-1 .4-2.2 0-1.9-.9-3-.9-1.3-2.3-1.3t-2.3 1.2q-1 1.2-1 3 0 1.3.5 2.3.4 1 1.1 1.5.8.6 1.7.6zm7.7-9.8h1.7v2q.7-1 1.6-1.6 1-.6 2.1-.6 1.5 0 2.4 1.1.8 1.1.8 3.5V25h-1.6v-6.6q0-1.6-.6-2.4-.5-.7-1.5-.7-.7 0-1.5.4-.7.4-1.2 1.2-.5.8-.5 1.8V25h-1.7V14z" font-size="24" font-family="Inconsolata" fill="#2a86c0"/><path d="M329 103v15l-10-7.6 10-7.4z" fill="#5ca831"/><path d="M375 110.6l-46-.2" stroke="#5ca831" stroke-width="2" fill="none"/><path d="M386.8 105.5v-.7q0-2.6 1-3.9 1.2-1.2 2.7-1.2l1.6.2v2l-1-.1q-1.2 0-1.7.6-.5.7-.5 2.4v.7h2v1.9h-2v8.8h-2.1v-8.8h-1.6v-2h1.6zm6.8-4.5q.5 0 1 .3.3.4.3.9t-.4.9q-.4.3-.9.3t-.9-.3q-.3-.4-.3-1 0-.4.3-.8.4-.4 1-.4zm-1 4.5h2v10.7h-2v-10.7zM407 111h-7.6q0 1.6 1 2.5 1 1 2.5 1 2 0 3.9-1.4v2q-1 .7-2 1-1 .3-2.3.3-1.7 0-2.8-.7-1.1-.8-1.8-2-.7-1.3-.7-2.9 0-2.5 1.4-4t3.7-1.5q2 0 3.4 1.5 1.2 1.5 1.2 4v.2zm-7.6-1.2h5.4q0-1.3-.7-2t-1.8-.7q-1.2 0-2 .7-.7.7-.9 2zm9.9-9.9h2.1v16.3h-2.1V100zm12.4 0h2.2v16.3h-4.6q-2.4 0-3.8-1.5t-1.4-4q0-2.4 1.5-4 1.5-1.5 3.8-1.5 1 0 2.3.5v-5.8zm0 14.5v-6.8q-1-.5-2-.5-1.6 0-2.5 1-1 1-1 2.8 0 1.7.9 2.6.5.5 1 .7.6.2 2 .2h1.6zm6.1-.8q.6 0 1 .4t.4 1q0 .6-.4 1t-1 .4q-.6 0-1-.4t-.4-1q0-.6.4-1t1-.4zm.2-8.3q.6 0 1 .4t.4 1q0 .6-.4 1t-1 .4q-.6 0-1-.4t-.4-1q0-.6.4-1t1-.4zm14.9.2h2.3l-4.8 11h-.7l-4.8-11h2.3l2.9 6.6 2.8-6.6zm10.7 4.3v4.5q0 .6.3.6.4 0 1.2-.6v1.3l-1.1.7-1 .1q-1.3 0-1.6-1-1.3 1-2.8 1-1.2 0-2-.7-.7-.8-.7-1.9 0-1 .8-1.8.7-.8 2-1.3l2.8-1v-.5q0-2-2-2-1.7 0-3.4 1.9v-2.4q1.3-1.4 3.6-1.4 1.7 0 2.8.9.4.3.6.8.3.4.4 1v1.8zm-2.1 4.3V111l-1.5.6q-1 .4-1.5.8-.5.5-.5 1.1 0 .7.5 1.1.4.4 1 .4 1.1 0 2-.8zm5.6-14.2h2.1v16.3h-2V100zm12.1 16.3V115q-.7.7-1.5 1.1-.9.4-1.8.4-1 0-1.9-.5-.8-.5-1.3-1.4-.4-.8-.4-2.9v-6.1h2.1v6.1q0 1.7.5 2.4t1.7.7q1.6 0 2.6-1.5v-7.7h2.2v10.7h-2.2zm14.3-5.2H476q0 1.6 1 2.5 1 1 2.5 1 2 0 3.9-1.4v2q-1 .7-2 1-1 .3-2.3.3-1.7 0-2.8-.7-1.1-.8-1.8-2-.7-1.3-.7-2.9 0-2.5 1.4-4t3.6-1.5q2.2 0 3.5 1.5 1.2 1.5 1.2 4v.2zm-7.5-1.2h5.4q0-1.3-.7-2t-1.9-.7q-1.1 0-1.8.7-.8.7-1 2z" font-size="24" font-family="GillSans" fill="#2a86c0"/><path d="M329 132.5v15l-10-7.6 10-7.4z" fill="#5ca831"/><path d="M375 139.6l-47-.2" stroke="#5ca831" stroke-width="2" fill="none"/><path d="M386.8 134.2v-.6q0-2.6 1-3.9 1.2-1.3 2.7-1.3l1.6.2v2.1l-1-.2q-1.2 0-1.7.7t-.5 2.4v.6h2v2h-2v8.8h-2.1v-8.9h-1.6v-1.9h1.6zm6.8-4.5q.5 0 1 .3.3.4.3 1 0 .5-.4.8-.4.4-.9.4t-.9-.4q-.3-.4-.3-.9t.3-.8q.4-.4 1-.4zm-1 4.5h2V145h-2v-10.8zm14.4 5.6h-7.6q0 1.5 1 2.5 1 .9 2.5.9 2 0 3.9-1.3v2q-1 .7-2 1-1 .3-2.3.3-1.7 0-2.8-.8-1.1-.7-1.8-2-.7-1.2-.7-2.8 0-2.5 1.4-4 1.4-1.6 3.7-1.6 2 0 3.4 1.5 1.2 1.5 1.2 4v.3zm-7.6-1.3h5.4q0-1.3-.7-2-.7-.6-1.8-.6-1.2 0-2 .7-.7.6-.9 2zm9.9-9.9h2.1V145h-2.1v-16.4zm12.4 0h2.2V145h-4.6q-2.4 0-3.8-1.5t-1.4-4q0-2.4 1.5-4 1.5-1.5 3.8-1.5 1 0 2.3.4v-5.8zm0 14.6v-6.9q-1-.5-2-.5-1.6 0-2.5 1-1 1.1-1 2.9 0 1.7.9 2.6.5.5 1 .7.6.2 2 .2h1.6zm6.1-.9q.6 0 1 .5.4.4.4 1t-.4 1q-.4.4-1 .4t-1-.4q-.4-.4-.4-1t.4-1q.4-.5 1-.5zm.2-8.3q.6 0 1 .4.4.5.4 1 0 .6-.4 1-.4.5-1 .5t-1-.4q-.4-.5-.4-1 0-.6.4-1 .4-.5 1-.5zm14.9.2h2.3l-4.8 11h-.7l-4.8-11h2.3l2.9 6.7 2.8-6.7zm10.7 4.3v4.6q0 .6.3.6.4 0 1.2-.6v1.3l-1.1.6-1 .2q-1.3 0-1.6-1-1.3 1-2.8 1-1.2 0-2-.8-.7-.7-.7-1.8 0-1 .8-1.9.7-.8 2-1.2l2.8-1v-.6q0-1.9-2-1.9-1.7 0-3.4 1.8v-2.3q1.3-1.5 3.6-1.5 1.7 0 2.8 1 .4.2.6.7l.4 1v1.8zm-2.1 4.4v-3.2l-1.5.5-1.5.9q-.5.4-.5 1 0 .8.5 1.2.4.4 1 .4 1.1 0 2-.8zm5.6-14.3h2.1V145h-2v-16.4zm12.1 16.4v-1.4q-.7.8-1.5 1.2-.9.4-1.8.4-1 0-1.9-.5-.8-.5-1.3-1.4-.4-.9-.4-3v-6h2.1v6q0 1.8.5 2.4.5.7 1.7.7 1.6 0 2.6-1.5v-7.7h2.2V145h-2.2zm14.3-5.2H476q0 1.5 1 2.5 1 .9 2.5.9 2 0 3.9-1.3v2q-1 .7-2 1-1 .3-2.3.3-1.7 0-2.8-.8-1.1-.7-1.8-2-.7-1.2-.7-2.8 0-2.5 1.4-4 1.4-1.6 3.6-1.6t3.5 1.5q1.2 1.5 1.2 4v.3zm-7.5-1.3h5.4q0-1.3-.7-2-.7-.6-1.9-.6-1.1 0-1.8.7-.8.6-1 2z" font-size="24" font-family="GillSans" fill="#2a86c0"/><path d="M329 162v15l-10-7.6 10-7.4z" fill="#5ca831"/><path d="M375 169.6l-46-.2" stroke="#5ca831" stroke-width="2" fill="none"/><path d="M386.8 164.2v-.6q0-2.6 1-3.9 1.2-1.3 2.7-1.3l1.6.2v2.1l-1-.2q-1.2 0-1.7.7t-.5 2.4v.6h2v2h-2v8.8h-2.1v-8.9h-1.6v-1.9h1.6zm6.8-4.5q.5 0 1 .3.3.4.3 1 0 .5-.4.8-.4.4-.9.4t-.9-.4q-.3-.4-.3-.9t.3-.8q.4-.4 1-.4zm-1 4.5h2V175h-2v-10.8zm14.4 5.6h-7.6q0 1.5 1 2.5 1 .9 2.5.9 2 0 3.9-1.3v2q-1 .7-2 1-1 .3-2.3.3-1.7 0-2.8-.8-1.1-.7-1.8-2-.7-1.2-.7-2.8 0-2.5 1.4-4 1.4-1.6 3.7-1.6 2 0 3.4 1.5 1.2 1.5 1.2 4v.3zm-7.6-1.3h5.4q0-1.3-.7-2-.7-.6-1.8-.6-1.2 0-2 .7-.7.6-.9 2zm9.9-9.9h2.1V175h-2.1v-16.4zm12.4 0h2.2V175h-4.6q-2.4 0-3.8-1.5t-1.4-4q0-2.4 1.5-4 1.5-1.5 3.8-1.5 1 0 2.3.4v-5.8zm0 14.6v-6.9q-1-.5-2-.5-1.6 0-2.5 1-1 1.1-1 2.9 0 1.7.9 2.6.5.5 1 .7.6.2 2 .2h1.6zm6.1-.9q.6 0 1 .5.4.4.4 1t-.4 1q-.4.4-1 .4t-1-.4q-.4-.4-.4-1t.4-1q.4-.5 1-.5zm.2-8.3q.6 0 1 .4.4.5.4 1 0 .6-.4 1-.4.5-1 .5t-1-.4q-.4-.5-.4-1 0-.6.4-1 .4-.5 1-.5zm14.9.2h2.3l-4.8 11h-.7l-4.8-11h2.3l2.9 6.7 2.8-6.7zm10.7 4.3v4.6q0 .6.3.6.4 0 1.2-.6v1.3l-1.1.6-1 .2q-1.3 0-1.6-1-1.3 1-2.8 1-1.2 0-2-.8-.7-.7-.7-1.8 0-1 .8-1.9.7-.8 2-1.2l2.8-1v-.6q0-1.9-2-1.9-1.7 0-3.4 1.8v-2.3q1.3-1.5 3.6-1.5 1.7 0 2.8 1 .4.2.6.7l.4 1v1.8zm-2.1 4.4v-3.2l-1.5.5-1.5.9q-.5.4-.5 1 0 .8.5 1.2.4.4 1 .4 1.1 0 2-.8zm5.6-14.3h2.1V175h-2v-16.4zm12.1 16.4v-1.4q-.7.8-1.5 1.2-.9.4-1.8.4-1 0-1.9-.5-.8-.5-1.3-1.4-.4-.9-.4-3v-6h2.1v6q0 1.8.5 2.4.5.7 1.7.7 1.6 0 2.6-1.5v-7.7h2.2V175h-2.2zm14.3-5.2H476q0 1.5 1 2.5 1 .9 2.5.9 2 0 3.9-1.3v2q-1 .7-2 1-1 .3-2.3.3-1.7 0-2.8-.8-1.1-.7-1.8-2-.7-1.2-.7-2.8 0-2.5 1.4-4 1.4-1.6 3.6-1.6t3.5 1.5q1.2 1.5 1.2 4v.3zm-7.5-1.3h5.4q0-1.3-.7-2-.7-.6-1.9-.6-1.1 0-1.8.7-.8.6-1 2z" font-size="24" font-family="GillSans" fill="#2a86c0"/><g font-size="24" font-family="Inconsolata"><path d="M9.4 572.5q2.5-1.2 3.9-3.6 1.4-2.3 1.4-5t-1.4-5q-1.4-2.3-3.7-3.6l.4-1.5q2 1 3.4 2.5 1.5 1.5 2.2 3.4.8 2 .8 4.1 0 2.1-.8 4.1-.8 2-2.3 3.6Q12 573 10 574l-.5-1.5z" fill="#053056"/><path d="M10.6 25.2q-1.2 0-2.2-.6-1-.7-1.7-2-.6-1.3-.6-3.2 0-1.9.7-3.2.6-1.2 1.7-1.8 1-.7 2.2-.7 1.1 0 2 .5.8.6 1.2 1.4V9h1.8v.2l-.2.3v14.8l.3.7H14l-.2-.7v-1q-.6 1-1.4 1.4-.9.5-1.9.5zm.3-1.5q1.5 0 2.2-1.1.7-1.2.7-3.1 0-2-.8-3.2-.8-1.1-2.3-1.1-1.4 0-2.2 1-.7 1.1-.7 3 0 2 .8 3.3.8 1.2 2.3 1.2zm12.5 1.6q-1 0-1.8-.5-.9-.4-1.5-1.2l-.6 1.4h-1V9h2v.2l-.3.3v6.2q.5-.9 1.4-1.4 1-.5 1.9-.5 2 0 3.2 1.4 1.3 1.4 1.3 4.2 0 1.9-.7 3.2-.6 1.3-1.7 2-1 .7-2.2.7zm-.2-1.6q1.3 0 2.1-1 .9-1 .9-3.2 0-2.1-.8-3.2-.8-1-2.2-1-1.3 0-2.2 1.2-.8 1.2-.8 3 0 4.2 3 4.2zm11.5 1.6q-.6 0-1-.4-.4-.5-.4-1 0-.6.4-1t1-.4q.6 0 1 .4t.4 1q0 .5-.4 1-.4.4-1 .4zm11.6 0q-1.7 0-2.8-1.3-1-1.3-1-3.8V14h1.7v6.2q0 2 .7 2.8.7.9 1.8.9 1.3 0 2.1-1 .9-1 .9-2.8v-6h1.7v10.2l.2.7H50l-.3-.7v-1q-.5 1-1.4 1.5-1 .5-2 .5zm13.5-6.8q2 .7 2.9 1.4.9.7.9 2 0 1.4-1.2 2.4t-3.4 1q-2.8 0-4.6-1.8l1-1.6q.7 1 1.5 1.4.8.5 2.2.5 1.3 0 2-.5.8-.4.8-1.3 0-.6-.6-1.1-.6-.5-2.2-1-4.1-1.1-4.1-3.4 0-1.2 1-2 1-.7 3-.7 1.5 0 2.5.4t1.9 1.3l-1 1.2q-.5-.7-1.5-1.2-.9-.4-1.9-.4-1 0-1.7.3-.6.4-.6 1t.7 1.1q.6.5 2.4 1zm2.3-1.7q0-.2.2 0H62zm.3 0h-.1zm-6.8 5h-.2v-.1h.2zm-.2 0h-.1.1zm16.1 3.4q-2.4 0-3.9-1.4-1.4-1.5-1.4-4.2 0-1.8.6-3.1.7-1.4 1.8-2 1.2-.7 2.6-.7 2 0 3.2 1.3 1.3 1.3 1.3 3.9v.8h-7.9q.1 2 1.2 3 1 1 2.6 1 1.7 0 2.8-1.2l1 1q-1.4 1.6-3.9 1.6zm2.4-6.8q0-1.5-.8-2.4-.7-1-2-1-1.2 0-2 1-1 .8-1.2 2.4h6zm13.3-2.1q-.7-.6-1.2-.8-.4-.2-1-.2-.9 0-1.7.4-.7.4-1.2 1.3t-.5 2.2V25H80V14h1.8v2q.4-1 1.3-1.6 1-.6 2-.6 1.8 0 3 1.2l-.8 1.3zm0 0l.1.2h-.1v-.2zm-.2.1h.2v.1H87zm8.8 2.1q2 .7 2.9 1.4.9.7.9 2 0 1.4-1.2 2.4t-3.4 1q-2.8 0-4.6-1.8l1-1.6q.7 1 1.5 1.4.8.5 2.2.5 1.3 0 2-.5.8-.4.8-1.3 0-.6-.6-1.1-.6-.5-2.2-1-4.1-1.1-4.1-3.4 0-1.2 1-2 1-.7 3-.7 1.5 0 2.5.4t1.9 1.3l-1 1.2q-.5-.7-1.5-1.2-.9-.4-1.9-.4-1 0-1.7.3-.6.4-.6 1t.7 1.1q.6.5 2.4 1zm2.3-1.7q0-.2.2 0H98zm.3 0h-.1zm-6.8 5h-.2v-.1h.2zm-.2 0h-.1.1zm15.3 3.5q-.6 0-1-.4-.4-.5-.4-1 0-.6.4-1t1-.4q.6 0 1 .4t.4 1q0 .5-.4 1-.4.4-1 .4zm8.7-.3v-1.4h2.8v-8.2h-2.7V14h4.4v9.6h2.6V25h-7.1zm3.6-13.3q-.5 0-.9-.3-.3-.4-.3-.9t.3-.9q.3-.3.9-.3.5 0 .8.3.4.4.4.9t-.4.9q-.3.3-.8.3zm7.7 2.3h1.7v2q.7-1 1.6-1.6 1-.6 2.1-.6 1.5 0 2.4 1.1.8 1.1.8 3.5V25h-1.6v-6.6q0-1.6-.6-2.4-.5-.7-1.5-.7-.7 0-1.5.4-.7.4-1.2 1.2-.5.8-.5 1.8V25h-1.7V14zm17.1 4.5q2 .7 2.9 1.4.9.7.9 2 0 1.4-1.2 2.4t-3.4 1q-2.8 0-4.6-1.8l1-1.6q.7 1 1.5 1.4.8.5 2.2.5 1.3 0 2-.5.8-.4.8-1.3 0-.6-.6-1.1-.6-.5-2.2-1-4.1-1.1-4.1-3.4 0-1.2 1-2 1-.7 3-.7 1.5 0 2.5.4t1.9 1.3l-1 1.2q-.5-.7-1.5-1.2-.9-.4-1.9-.4-1 0-1.7.3-.6.4-.6 1t.7 1.1q.6.5 2.4 1zm2.3-1.7q0-.2.2 0h-.2zm.3 0h-.1zm-6.8 5h-.2v-.1h.2zm-.2 0h-.1.1zm16.1 3.4q-2.4 0-3.9-1.4-1.4-1.5-1.4-4.2 0-1.8.6-3.1.7-1.4 1.8-2 1.2-.7 2.6-.7 2 0 3.2 1.3 1.3 1.3 1.3 3.9v.8h-7.9q.1 2 1.2 3 1 1 2.6 1 1.7 0 2.8-1.2l1 1q-1.4 1.6-3.9 1.6zm2.4-6.8q0-1.5-.8-2.4-.7-1-2-1-1.2 0-2 1-1 .8-1.2 2.4h6zm13.3-2.1q-.7-.6-1.2-.8-.4-.2-1-.2-.9 0-1.7.4-.7.4-1.2 1.3t-.5 2.2V25H164V14h1.8v2q.4-1 1.3-1.6 1-.6 2-.6 1.8 0 3 1.2l-.8 1.3zm0 0l.1.2h-.1v-.2zm-.2.1h.2v.1h-.2zm12.7 7.6q-1.6 1.2-3.5 1.2-1.8 0-2.6-1.1t-.8-3.6V19l.3-3.6h-2.4V14h2.5l.2-2.9 1.9-.3h.2v.1l-.2.4-.1.5-.3 2.2h3.7v1.4h-3.8l-.2 3.8v1.2q0 2 .4 2.7.5.6 1.4.6.8 0 1.4-.2l1.3-.9.6 1.4zm2.3 1V10h1.3l3.7 7.4 3.8-7.4h1.2v15h-1.5V13.7l-3.3 6h-.6l-3-6V25H186zm16.9-11.2q2.3 0 3.5 1.2 1.3 1.2 1.3 4.2V25h-1.9v-1.7q-1 2-3.7 2-1.9 0-2.9-.9-1-.8-1-2.2 0-1.1.7-2 .8-.8 2-1.3 1.3-.5 2.8-.5 1.4 0 2.5.2-.2-1.9-1-2.6-.8-.8-2.5-.8-.8 0-1.5.3-.8.3-1.4 1l-.9-1.2q1.6-1.5 4-1.5zm-.7 10.1q1.8 0 2.8-1 1-1 1.2-3-1.1-.2-2.4-.2-1.8 0-2.8.6-1.1.6-1.1 1.8 0 1.8 2.3 1.8zm8.5-9.9h1.7v2q.7-1 1.6-1.6 1-.6 2.1-.6 1.5 0 2.4 1.1.8 1.1.8 3.5V25h-1.6v-6.6q0-1.6-.6-2.4-.5-.7-1.5-.7-.7 0-1.5.4-.7.4-1.2 1.2-.5.8-.5 1.8V25h-1.7V14zm20.9 0l-.4 2-.9 2.5-2.7 7.7q-.6 1.6-1.4 2.3-1 .7-2.2.7-1.5 0-2.5-1l.8-1.1.8.5 1 .2q1 0 1.5-.7.5-.6 1-2L222 14h1.8l3.4 8.7 1.5-4.4.7-2.5.4-1.9h1.7zm-9 13h-.3l.1-.2.2.1zm-.3 0q-.1 0 0 0zm20.2 2.2q-2-1-3.5-2.5-1.5-1.6-2.3-3.6-.8-2-.8-4.1 0-2.1.8-4 .8-2 2.3-3.5 1.4-1.5 3.3-2.5l.5 1.5q-2.4 1.3-3.8 3.6t-1.4 5q0 2.7 1.5 5 1.4 2.4 3.8 3.6l-.4 1.5z" fill="#06345e"/><path d="M46.3 25.3q-1.7 0-2.8-1.3-1-1.3-1-3.8V14h1.7v6.2q0 2 .7 2.8.7.9 1.8.9 1.3 0 2.1-1 .9-1 .9-2.8v-6h1.7v10.2l.2.7H50l-.3-.7v-1q-.5 1-1.4 1.5-1 .5-2 .5zm13.5-6.8q2 .7 2.9 1.4.9.7.9 2 0 1.4-1.2 2.4t-3.4 1q-2.8 0-4.6-1.8l1-1.6q.7 1 1.5 1.4.8.5 2.2.5 1.3 0 2-.5.8-.4.8-1.3 0-.6-.6-1.1-.6-.5-2.2-1-4.1-1.1-4.1-3.4 0-1.2 1-2 1-.7 3-.7 1.5 0 2.5.4t1.9 1.3l-1 1.2q-.5-.7-1.5-1.2-.9-.4-1.9-.4-1 0-1.7.3-.6.4-.6 1t.7 1.1q.6.5 2.4 1zm2.3-1.7q0-.2.2 0H62zm.3 0h-.1zm-6.8 5h-.2v-.1h.2zm-.2 0h-.1.1zm16.1 3.4q-2.4 0-3.9-1.4-1.4-1.5-1.4-4.2 0-1.8.6-3.1.7-1.4 1.8-2 1.2-.7 2.6-.7 2 0 3.2 1.3 1.3 1.3 1.3 3.9v.8h-7.9q.1 2 1.2 3 1 1 2.6 1 1.7 0 2.8-1.2l1 1q-1.4 1.6-3.9 1.6zm2.4-6.8q0-1.5-.8-2.4-.7-1-2-1-1.2 0-2 1-1 .8-1.2 2.4h6zm13.3-2.1q-.7-.6-1.2-.8-.4-.2-1-.2-.9 0-1.7.4-.7.4-1.2 1.3t-.5 2.2V25H80V14h1.8v2q.4-1 1.3-1.6 1-.6 2-.6 1.8 0 3 1.2l-.8 1.3zm0 0l.1.2h-.1v-.2zm-.2.1h.2v.1H87zm8.8 2.1q2 .7 2.9 1.4.9.7.9 2 0 1.4-1.2 2.4t-3.4 1q-2.8 0-4.6-1.8l1-1.6q.7 1 1.5 1.4.8.5 2.2.5 1.3 0 2-.5.8-.4.8-1.3 0-.6-.6-1.1-.6-.5-2.2-1-4.1-1.1-4.1-3.4 0-1.2 1-2 1-.7 3-.7 1.5 0 2.5.4t1.9 1.3l-1 1.2q-.5-.7-1.5-1.2-.9-.4-1.9-.4-1 0-1.7.3-.6.4-.6 1t.7 1.1q.6.5 2.4 1zm2.3-1.7q0-.2.2 0H98zm.3 0h-.1zm-6.8 5h-.2v-.1h.2zm-.2 0h-.1.1z" fill="#2a86c0"/></g><path d="M496.5 98.5l2 .8 3.5 1.5 2.7 1.7 1.7 1.8 1 1.7.4 1v-.1l.5 1.6.5 3.3v5.7l-.5 6.1-.2 4 .2 3.7.7 3.4.7 1.5.1.1.5.5 1.8 1 2 .8 1 .9v.2-.5l-.2.9-1 1.4-1.4 2-1.6 3-.5 1.7v.2l-.3 2.7-.3 5.4-.1 5-.4 4.8-1 4.4-1.8 3.8-2 2.3-1.4 1.3-1.9 1.2-2.4 1.3-1.3.6c-1.3.6-2.4 1.8-2.5 2.6 0 1 1 1.2 2.2.6l2-1 3.5-1.8 3-2.2 2.5-2.4 2.7-3.5 2-4.6 1.1-4.7.4-4.9.2-5 .2-5.3.3-2.7v.2l.1-.9 1.2-2.2 1.7-2.5 1.5-2.6.1-1v-.4l-.4-1-1.4-1-1.8-.7-1.4-.7-.5-.5.1.2-.6-1.2-.7-3-.1-3.6.1-4 .5-6.1v-6l-.6-3.7-.5-1.5v-.1l-.5-1.1-1.1-1.8-2-2.1-3-2-3.4-1.4-2-.8c-.8-.3-2.3.2-3.4 1.3-1 1-1.3 2-.5 2.4" fill="#311f13"/><path d="M538.7 128.5h2.2V145h-4.6q-2.4 0-3.8-1.5t-1.4-4q0-2.5 1.4-4 1.5-1.5 3.9-1.5 1 0 2.3.4v-5.8zm0 14.6v-6.9q-1-.5-2-.5-1.6 0-2.6 1-.9 1.1-.9 2.9 0 1.6.8 2.5.5.6 1 .8.6.2 2 .2h1.7zm10.2-9.1q2.5 0 4 1.7 1.7 1.6 1.7 4 0 2.3-1.6 3.8-1.7 1.6-4.2 1.6-2.4 0-4-1.6-1.7-1.6-1.7-3.9 0-2.4 1.7-4 1.6-1.5 4.1-1.5zm-.1 2q-1.6 0-2.5 1-1 1-1 2.6 0 1.5 1 2.5t2.6 1q1.5 0 2.5-1t1-2.5q0-1.6-1-2.6t-2.6-1zm16.2 6.4v2q-1.6.7-3 .7-2.6 0-4.1-1.5-1.5-1.5-1.5-4 0-2.6 1.4-4.1 1.5-1.6 3.9-1.6.8 0 1.5.2l1.6.5v2.3q-1.6-1-3-1t-2.4 1q-.9 1-.9 2.6t1 2.6q1 1 2.7 1 1.3 0 2.9-.7zm9.3 2.5v-1.4q-.6.8-1.5 1.2-.9.4-1.8.4-1 0-1.8-.5-.9-.5-1.3-1.4-.5-.9-.5-3v-6h2.2v6q0 1.8.4 2.4.5.7 1.7.7 1.6 0 2.6-1.5v-7.7h2.2V145h-2.2zm14-7.9v7.9h-2.1v-6q0-1.8-.5-2.5t-1.7-.7q-.7 0-1.2.3-.6.3-1.3 1v7.9h-2.1V134h2.1v1.4q1.6-1.6 3.2-1.6 2 0 3.2 2 1.7-2 3.5-2 1.6 0 2.6 1.1 1 1.2 1 3.5v6.4h-2v-6.4q0-1.3-.6-2-.6-.8-1.6-.8-1.4 0-2.5 1.4zm18.8 2.7h-7.6q.1 1.5 1 2.4 1 1 2.5 1 2.2 0 4-1.3v2q-1 .7-2 1-1 .3-2.3.3-1.8 0-2.9-.8-1-.7-1.7-2-.7-1.2-.7-2.9 0-2.4 1.4-4 1.4-1.5 3.6-1.5t3.4 1.5q1.3 1.5 1.3 4v.3zm-7.5-1.3h5.4q0-1.3-.8-2-.6-.6-1.8-.6-1.1 0-1.9.6-.7.7-1 2zm12-4.3v1.4q1.4-1.6 3.2-1.6 1 0 1.9.5.8.5 1.3 1.5.4.9.4 2.8v6.2h-2v-6.1q0-1.7-.6-2.4-.5-.7-1.7-.7-1.5 0-2.5 1.5v7.7h-2.2V134h2.2zm8.4 1.7l4-4v2.3h3.3v2H624v5.2q0 1.9 1.5 1.9 1.2 0 2.5-.8v2q-1.3.7-2.7.7-1.5 0-2.4-.9-.4-.2-.6-.6l-.3-.8-.1-2V136H620v-.2z" font-size="24" font-family="GillSans" fill="#312013"/><path d="M38.1 57.1V39h7v1.5h-5.4v15.4H45V57h-6.9zm6.9 480h-6.9v-1.3h5.4v-15.4h-5.3v-1.5H45v18.2z" font-size="24" font-family="Inconsolata" fill="#2a86c0"/><path d="M320.6 248.8l2 .8 3.6 1.5 2.8 1.7 1.7 1.8 1 1.7.4 1v-.1l.5 1.6.6 3.3v5.7l-.5 6.1-.2 4 .1 3.7.8 3.4.7 1.5.1.1.5.5 1.9 1 2 .8 1 .9v.2-.5l-.2.9-1 1.4-1.5 2-1.5 3-.6 1.7v.2l-.3 2.7-.3 5.4-.1 5-.4 4.8-1 4.4-1.9 3.8-2 2.3-1.4 1.3-2 1.2-2.5 1.3-1.3.6c-1.4.6-2.5 1.8-2.6 2.6 0 1 1 1.2 2.3.6l2-1 3.6-1.8 3-2.2 2.7-2.4 2.8-3.5 2-4.6 1.1-4.7.4-4.9.2-5 .3-5.3.2-2.7v.2l.2-.9 1.1-2.2 1.9-2.5 1.4-2.6.2-1v-.4l-.4-1-1.5-1-1.8-.7-1.5-.7-.5-.5.2.2-.7-1.2-.7-3-.2-3.6.2-4 .5-6.1v-6l-.6-3.7-.5-1.5v-.1l-.6-1.1-1.1-1.8-2-2.1-3-2-3.6-1.4-2.1-.8c-.8-.3-2.3.2-3.4 1.3-1.1 1-1.3 2-.5 2.4" fill="#311f13"/><path d="M393.7 279.6h2.2V296h-4.6q-2.4 0-3.8-1.5t-1.4-4q0-2.4 1.4-4 1.5-1.5 3.9-1.5 1 0 2.3.4v-5.8zm0 14.6v-6.9q-1-.5-2-.5-1.6 0-2.6 1-.9 1.1-.9 2.9 0 1.7.8 2.6.5.5 1 .7.6.2 2 .2h1.7zm10.2-9q2.5 0 4 1.6 1.7 1.6 1.7 4 0 2.3-1.6 3.9-1.7 1.5-4.2 1.5-2.4 0-4-1.6-1.7-1.5-1.7-3.9t1.7-4q1.6-1.5 4.1-1.5zm-.1 2q-1.6 0-2.5 1-1 1-1 2.5t1 2.5q1 1 2.6 1 1.5 0 2.5-1t1-2.5q0-1.6-1-2.6t-2.6-1zm16.2 6.3v2q-1.6.7-3 .7-2.6 0-4.1-1.5-1.5-1.5-1.5-4 0-2.6 1.4-4.1 1.5-1.6 3.9-1.6.8 0 1.5.2.6.1 1.6.6v2.2q-1.6-1-3-1t-2.4 1q-.9 1-.9 2.6t1 2.6q1 1 2.7 1 1.3 0 2.9-.7zm9.3 2.5v-1.4q-.6.8-1.5 1.2-.9.4-1.8.4-1 0-1.8-.5-.9-.5-1.3-1.4-.5-.9-.5-3v-6h2.2v6q0 1.8.4 2.5.5.6 1.7.6 1.6 0 2.6-1.5v-7.7h2.2V296h-2.2zm14-7.8v7.8h-2.1v-6q0-1.8-.5-2.5t-1.7-.7q-.7 0-1.2.3-.6.3-1.3 1v7.9h-2.1v-10.8h2.1v1.4q1.6-1.6 3.2-1.6 2 0 3.2 2 1.7-2 3.5-2 1.6 0 2.6 1.1 1 1.2 1 3.5v6.4h-2v-6.4q0-1.3-.6-2-.6-.8-1.6-.8-1.4 0-2.5 1.4zm18.8 2.6h-7.6q.1 1.5 1 2.5 1 .9 2.5.9 2.2 0 4-1.3v2q-1 .7-2 1-1 .3-2.3.3-1.8 0-2.9-.8-1-.7-1.7-2-.7-1.2-.7-2.8 0-2.5 1.4-4 1.4-1.6 3.6-1.6t3.4 1.5q1.3 1.5 1.3 4v.3zm-7.5-1.3h5.4q0-1.3-.8-2-.6-.6-1.8-.6-1.1 0-1.9.7-.7.6-1 2zm12-4.3v1.4q1.4-1.6 3.2-1.6 1 0 1.9.5.8.6 1.3 1.5.4.9.4 2.8v6.2h-2v-6.1q0-1.7-.6-2.4-.5-.7-1.7-.7-1.5 0-2.5 1.5v7.7h-2.2v-10.8h2.2zm8.4 1.8l4-4v2.2h3.3v2H479v5.2q0 1.9 1.5 1.9 1.2 0 2.5-.8v2q-1.3.7-2.7.7-1.5 0-2.4-.9-.4-.2-.6-.5l-.3-.9-.1-2v-4.8H475v-.2z" font-size="24" font-family="GillSans" fill="#312013"/><path d="M320.6 398.8l2 .8 3.6 1.5 2.8 1.7 1.7 1.8 1 1.7.4 1v-.1l.5 1.6.6 3.3v5.7l-.5 6.1-.2 4 .1 3.7.8 3.4.7 1.5.1.1.5.5 1.9 1 2 .8 1 .9v.2-.5l-.2.9-1 1.4-1.5 2-1.5 3-.6 1.7v.2l-.3 2.7-.3 5.4-.1 5-.4 4.8-1 4.4-1.9 3.8-2 2.3-1.4 1.3-2 1.2-2.5 1.3-1.3.6c-1.4.6-2.5 1.8-2.6 2.6 0 1 1 1.2 2.3.6l2-1 3.6-1.8 3-2.2 2.7-2.4 2.8-3.5 2-4.6 1.1-4.7.4-4.9.2-5 .3-5.3.2-2.7v.2l.2-.9 1.1-2.2 1.9-2.5 1.4-2.6.2-1v-.4l-.4-1-1.5-1-1.8-.7-1.5-.7-.5-.5.2.2-.7-1.2-.7-3-.2-3.6.2-4 .5-6.1v-6l-.6-3.7-.5-1.5v-.1l-.6-1.1-1.1-1.8-2-2.1-3-2-3.6-1.4-2.1-.8c-.8-.3-2.3.2-3.4 1.3-1.1 1-1.3 2-.5 2.4" fill="#311f13"/><path d="M393.7 428.6h2.2V445h-4.6q-2.4 0-3.8-1.5t-1.4-4q0-2.4 1.4-4 1.5-1.5 3.9-1.5 1 0 2.3.4v-5.8zm0 14.6v-6.9q-1-.5-2-.5-1.6 0-2.6 1-.9 1.1-.9 2.9 0 1.7.8 2.6.5.5 1 .7.6.2 2 .2h1.7zm10.2-9q2.5 0 4 1.6 1.7 1.6 1.7 4 0 2.3-1.6 3.9-1.7 1.5-4.2 1.5-2.4 0-4-1.6-1.7-1.5-1.7-3.9t1.7-4q1.6-1.5 4.1-1.5zm-.1 2q-1.6 0-2.5 1-1 1-1 2.5t1 2.5q1 1 2.6 1 1.5 0 2.5-1t1-2.5q0-1.6-1-2.6t-2.6-1zm16.2 6.3v2q-1.6.7-3 .7-2.6 0-4.1-1.5-1.5-1.5-1.5-4 0-2.6 1.4-4.1 1.5-1.6 3.9-1.6.8 0 1.5.2.6.1 1.6.6v2.2q-1.6-1-3-1t-2.4 1q-.9 1-.9 2.6t1 2.6q1 1 2.7 1 1.3 0 2.9-.7zm9.3 2.5v-1.4q-.6.8-1.5 1.2-.9.4-1.8.4-1 0-1.8-.5-.9-.5-1.3-1.4-.5-.9-.5-3v-6h2.2v6q0 1.8.4 2.5.5.6 1.7.6 1.6 0 2.6-1.5v-7.7h2.2V445h-2.2zm14-7.8v7.8h-2.1v-6q0-1.8-.5-2.5t-1.7-.7q-.7 0-1.2.3-.6.3-1.3 1v7.9h-2.1v-10.8h2.1v1.4q1.6-1.6 3.2-1.6 2 0 3.2 2 1.7-2 3.5-2 1.6 0 2.6 1.1 1 1.2 1 3.5v6.4h-2v-6.4q0-1.3-.6-2-.6-.8-1.6-.8-1.4 0-2.5 1.4zm18.8 2.6h-7.6q.1 1.5 1 2.5 1 .9 2.5.9 2.2 0 4-1.3v2q-1 .7-2 1-1 .3-2.3.3-1.8 0-2.9-.8-1-.7-1.7-2-.7-1.2-.7-2.8 0-2.5 1.4-4 1.4-1.6 3.6-1.6t3.4 1.5q1.3 1.5 1.3 4v.3zm-7.5-1.3h5.4q0-1.3-.8-2-.6-.6-1.8-.6-1.1 0-1.9.7-.7.6-1 2zm12-4.3v1.4q1.4-1.6 3.2-1.6 1 0 1.9.5.8.6 1.3 1.5.4.9.4 2.8v6.2h-2v-6.1q0-1.7-.6-2.4-.5-.7-1.7-.7-1.5 0-2.5 1.5v7.7h-2.2v-10.8h2.2zm8.4 1.8l4-4v2.2h3.3v2H479v5.2q0 1.9 1.5 1.9 1.2 0 2.5-.8v2q-1.3.7-2.7.7-1.5 0-2.4-.9-.4-.2-.6-.5l-.3-.9-.1-2v-4.8H475v-.2z" font-size="24" font-family="GillSans" fill="#312013"/></svg>