<?xml version="1.0" encoding="UTF-8"?>
<!DOCTYPE svg PUBLIC "-//W3C//DTD SVG 1.1//EN" "http://www.w3.org/Graphics/SVG/1.1/DTD/svg11.dtd">
<svg version="1.1" xmlns="http://www.w3.org/2000/svg" xmlns:xlink="http://www.w3.org/1999/xlink" x="0px" y="0px" width="810" height="450" viewBox="0, 0, 810, 450">
  <g id="Layer 1">
    <g>
      <g>
        <path d="M22.319,106.051 L169.118,106.051 L169.118,414.953 L22.319,414.953 z" fill="#FFFFFF"/>
        <path d="M22.319,106.051 L169.118,106.051 L169.118,414.953 L22.319,414.953 z" fill-opacity="0" stroke="#1D4494" stroke-width="1"/>
      </g>
      <path d="M22.319,150.18 L169.118,150.18" fill-opacity="0" stroke="#1D4494" stroke-width="1"/>
      <path d="M22.319,238.438 L169.118,238.438" fill-opacity="0" stroke="#1D4494" stroke-width="1"/>
      <path d="M22.319,194.309 L169.118,194.309" fill-opacity="0" stroke="#1D4494" stroke-width="1"/>
      <path d="M22.319,282.566 L169.118,282.566" fill-opacity="0" stroke="#1D4494" stroke-width="1"/>
      <path d="M22.319,326.695 L169.118,326.695" fill-opacity="0" stroke="#1D4494" stroke-width="1"/>
      <path d="M22.319,370.824 L169.118,370.824" fill-opacity="0" stroke="#1D4494" stroke-width="1"/>
    </g>
    <text transform="matrix(1, 0, 0, 1, 96.692, 126.952)">
      <tspan x="-69.873" y="2.614" font-family="Inconsolata" font-size="18" fill="#1D4494">{ age: 18, ...}</tspan>
    </text>
    <text transform="matrix(1, 0, 0, 1, 96.692, 171.995)">
      <tspan x="-69.873" y="4.677" font-family="Inconsolata" font-size="18" fill="#32559E">{ age: 28, ...}</tspan>
    </text>
    <text transform="matrix(1, 0, 0, 1, 96.623, 261.566)">
      <tspan x="-69.941" y="3.826" font-family="Inconsolata" font-size="18" fill="#1D4494">{ age: 38, ...}</tspan>
    </text>
    <text transform="matrix(1, 0, 0, 1, 96.692, 216.098)">
      <tspan x="-69.873" y="4.129" font-family="Inconsolata" font-size="18" fill="#224897">{ age: 21, ...}</tspan>
    </text>
    <text transform="matrix(1, 0, 0, 1, 96.692, 392.28)">
      <tspan x="-69.873" y="4.534" font-family="Inconsolata" font-size="18" fill="#1D4494">{ age: 31, ...}</tspan>
    </text>
    <text transform="matrix(1, 0, 0, 1, 96.692, 305.186)">
      <tspan x="-69.873" y="3.909" font-family="Inconsolata" font-size="18" fill="#1D4494">{ age: 18, ...}</tspan>
    </text>
    <text transform="matrix(1, 0, 0, 1, 96.692, 347.137)">
      <tspan x="-69.873" y="4.793" font-family="Inconsolata" font-size="18" fill="#1D4494">{ age: 38, ...}</tspan>
    </text>
    <text transform="matrix(1, 0, 0, 1, 96.623, 431.156)">
      <tspan x="-22.534" y="6.5" font-family="GillSans" font-size="21" fill="#1D4494">users</tspan>
    </text>
    <g>
      <path d="M181.968,260.443 L300.968,260.344" fill-opacity="0" stroke="#3299CC" stroke-width="6"/>
      <path d="M300.973,266.344 L316.968,260.33 L300.963,254.344 z" fill="#3299CC" fill-opacity="1" stroke="#3299CC" stroke-width="6" stroke-opacity="1"/>
    </g>
    <text transform="matrix(1, 0, 0, 1, 248.468, 286.814)">
      <tspan x="-70" y="5.436" font-family="GillSans" font-size="21" fill="#3299CC">Query Criteria</tspan>
    </text>
    <g>
      <g>
        <path d="M334.338,216.674 L478.951,216.674 L478.951,306.02 L334.338,306.02 z" fill="#FFFFFF"/>
        <path d="M334.338,216.674 L478.951,216.674 L478.951,306.02 L334.338,306.02 z" fill-opacity="0" stroke="#1D4494" stroke-width="1"/>
      </g>
      <path d="M334.338,261.001 L478.951,261.065" fill-opacity="0" stroke="#1D4494" stroke-width="1"/>
      <text transform="matrix(1, 0, 0, 1, 408.606, 284.566)">
        <tspan x="-69.043" y="3.826" font-family="Inconsolata" font-size="18" fill="#1D4494">{ age: 18, ...}</tspan>
      </text>
      <text transform="matrix(1, 0, 0, 1, 408.675, 240.098)">
        <tspan x="-68.974" y="4.129" font-family="Inconsolata" font-size="18" fill="#1D4494">{ age: 18, ...}</tspan>
      </text>
    </g>
    <text transform="matrix(1, 0, 0, 1, 556.105, 286.827)">
      <tspan x="-45.263" y="5.436" font-family="GillSans" font-size="21" fill="#3299CC">Projection</tspan>
    </text>
    <g>
      <path d="M490.605,260.326 L609.605,260.426" fill-opacity="0" stroke="#3299CC" stroke-width="6"/>
      <path d="M609.6,266.426 L625.605,260.439 L609.61,254.426 z" fill="#3299CC" fill-opacity="1" stroke="#3299CC" stroke-width="6" stroke-opacity="1"/>
    </g>
    <text transform="matrix(1, 0, 0, 1, 718.336, 329.189)">
      <tspan x="-32.656" y="5.436" font-family="GillSans" font-size="21" fill="#3299CC">Results</tspan>
    </text>
    <g>
      <path d="M644.068,216.674 L788.681,216.674 L788.681,306.02 L644.068,306.02 z" fill="#FFFFFF"/>
      <path d="M644.068,216.674 L788.681,216.674 L788.681,306.02 L644.068,306.02 z" fill-opacity="0" stroke="#1D4494" stroke-width="1"/>
    </g>
    <path d="M644.068,261.001 L788.681,261.065" fill-opacity="0" stroke="#1D4494" stroke-width="1"/>
    <text transform="matrix(1, 0, 0, 1, 718.336, 285.721)">
      <tspan x="-69.043" y="2.671" font-family="Inconsolata" font-size="18" fill="#1D4494">{ name: "bob" }</tspan>
    </text>
    <text transform="matrix(1, 0, 0, 1, 713.571, 239.499)">
      <tspan x="-64.141" y="4.728" font-family="Inconsolata" font-size="18" fill="#1D4494">{ name: "al" }</tspan>
    </text>
    <g>
      <text transform="matrix(1, 0, 0, 1, 405, 49.359)">
        <tspan x="-394.064" y="10" font-family="Inconsolata" font-size="32" fill="#1D4495">db.users.find( { age: 18 }, { name: 1, _id: 0 } )</tspan>
      </text>
      <text transform="matrix(1, -0, 0, 1, 99.661, 19.859)">
        <tspan x="-44.302" y="6.5" font-family="GillSans" font-size="21" fill="#3299CC">Collection</tspan>
      </text>
      <text transform="matrix(1, 0, 0, 1, 321.982, 19.859)">
        <tspan x="-66.759" y="5.436" font-family="GillSans" font-size="21" fill="#3299CC">Query Criteria</tspan>
      </text>
      <text transform="matrix(1, 0, 0, 1, 614.363, 18.795)">
        <tspan x="-46.386" y="5.436" font-family="GillSans" font-size="21" fill="#3299CC">Projection</tspan>
      </text>
    </g>
  </g>
  <defs/>
</svg>
