<?xml version="1.0" encoding="UTF-8"?>
<!DOCTYPE svg PUBLIC "-//W3C//DTD SVG 1.1//EN" "http://www.w3.org/Graphics/SVG/1.1/DTD/svg11.dtd">
<svg version="1.1" xmlns="http://www.w3.org/2000/svg" xmlns:xlink="http://www.w3.org/1999/xlink" x="0px" y="0px" width="460" height="320" viewBox="0, 0, 460, 320">
  <g id="Layer 1">
    <path d="M22.061,61.915 C22.061,63.018 23.371,63.911 24.988,63.911 L194.135,63.911 C195.752,63.911 197.061,63.018 197.061,61.915 L197.061,20.908 C197.061,19.805 195.752,18.911 194.135,18.911 L24.988,18.911 C23.371,18.911 22.061,19.805 22.061,20.908 L22.061,61.915" fill="#5A5955"/>
    <text transform="matrix(1, 0, 0, 1, 109.561, 41.411)">
      <tspan x="-35.29" y="6.68" font-family="GillSans" font-size="24" fill="#FFFFFE">Dri</tspan>
      <tspan x="-2.525" y="6.68" font-family="GillSans" font-size="24" fill="#FFFFFE">v</tspan>
      <tspan x="7.507" y="6.68" font-family="GillSans" font-size="24" fill="#FFFFFE">e</tspan>
      <tspan x="19.003" y="6.68" font-family="GillSans" font-size="24" fill="#FFFFFE">r</tspan>
    </text>
    <text transform="matrix(1, 0, 0, 1, 112.86, 238.41)">
      <tspan x="-39.689" y="7.5" font-family="GillSans" font-size="24" fill="#FFFFFE">Primary</tspan>
    </text>
    <text transform="matrix(-0, 1, -1, -0, 222.276, 140.328)">
      <tspan x="-31.619" y="5.166" font-family="GillSans" font-size="24" fill="#3299CC">Write</tspan>
    </text>
    <g>
      <path d="M211.11,47.28 L212.286,230.797" fill-opacity="0" stroke="#3299CC" stroke-width="4"/>
      <path d="M207.487,230.828 L212.368,243.597 L217.086,230.766 z" fill="#3299CC" fill-opacity="1" stroke="#3299CC" stroke-width="4" stroke-opacity="1"/>
    </g>
    <text transform="matrix(-0, 1, -1, -0, 251.028, 140.328)">
      <tspan x="-87.752" y="-6.5" font-family="GillSans" font-size="24" fill="#E2962E">getLastError  w:0</tspan>
    </text>
    <g>
      <path d="M249.13,46.659 L249.13,230.797" fill-opacity="0" stroke="#E2962E" stroke-width="4"/>
      <path d="M244.33,230.797 L249.13,243.597 L253.93,230.797 z" fill="#E2962E" fill-opacity="1" stroke="#E2962E" stroke-width="4" stroke-opacity="1"/>
    </g>
    <g>
      <path d="M197.061,229.784 C197.061,228.977 194.519,228.323 191.377,228.323 L27.746,228.323 C24.607,228.323 22.061,228.977 22.061,229.784 L22.061,271.861 C22.061,272.668 24.607,273.323 27.746,273.323 L191.377,273.323 C194.519,273.323 197.061,272.668 197.061,271.861 L197.061,229.784" fill="#2A86C0"/>
      <text transform="matrix(1, 0, 0, 1, 118.661, 252.034)">
        <tspan x="-43.832" y="6.168" font-family="GillSans" font-size="24" fill="#FFFFFF">mongod</tspan>
      </text>
    </g>
    <g>
      <path d="M288.665,247.197 L288.665,63.68" fill-opacity="0" stroke="#E2962D" stroke-width="4"/>
      <path d="M293.465,63.68 L288.665,50.88 L283.865,63.68 z" fill="#E2962D" fill-opacity="1" stroke="#E2962D" stroke-width="4" stroke-opacity="1"/>
    </g>
    <text transform="matrix(-0, 1, -1, -0, 316.665, 158.224)">
      <tspan x="-88.473" y="-6.5" font-family="GillSans" font-size="24" fill="#E2962E">getLastError</tspan>
      <tspan x="-88.473" y="21.5" font-family="GillSans" font-size="24" fill="#E2962E">Response</tspan>
    </text>
    <g>
      <path d="M300.665,253.41 C300.557,295.645 355.085,301.886 368.334,269.442" fill-opacity="0" stroke="#3299CC" stroke-width="4"/>
      <path d="M373.059,270.289 L370.593,256.843 L363.61,268.595 z" fill="#3299CC" fill-opacity="1" stroke="#3299CC" stroke-width="4" stroke-opacity="1"/>
    </g>
    <text transform="matrix(1, 0, 0, 1, 335.541, 298.363)">
      <tspan x="-28.576" y="7.5" font-family="GillSans" font-size="24" fill="#3299CC">Apply</tspan>
    </text>
    <path d="M198.439,42.22 L448.439,42.22" fill-opacity="0" stroke="#5A5955" stroke-width="4"/>
    <path d="M199.316,253.41 L449.316,253.41" fill-opacity="0" stroke="#3299CC" stroke-width="4"/>
  </g>
  <defs/>
</svg>
