<svg xmlns="http://www.w3.org/2000/svg" viewBox="0, 0, 810, 450" height="450" width="810"><path d="M22.3 106h146.8v309H22.3z" fill="#fff"/><path d="M22.3 106h146.8v309H22.3zm0 44.2h146.8M22.3 238.4h146.8M22.3 194.3h146.8M22.3 282.6h146.8M22.3 326.7h146.8M22.3 370.8h146.8" stroke="#1d4494" fill="none"/><path d="M33.5 132.4q-1.4 0-2.2-.2-.9-.3-1.3-1t-.3-2v-1.7q0-1.2-.3-1.6-.4-.4-1.3-.4h-.3v-1h.3q.9 0 1.3-.5t.4-1.5v-1.3q0-3.1 3.2-3.1h1.2v1h-1.5q-1.7 0-1.7 2v1.2q0 2-1.5 2.7 1.5.5 1.5 2.7v1.6q0 1.2.5 1.6.5.5 1.7.5h1v1h-.7zm15.7-11.2q1.8 0 2.7.9 1 .9 1 3v4.5h-1.5v-1.3q-.7 1.5-2.8 1.5-1.4 0-2.1-.6-.8-.7-.8-1.7 0-.9.6-1.5.5-.7 1.5-1 1-.4 2-.4l1.9.1q-.1-1.3-.7-1.9-.7-.6-1.9-.6-.6 0-1.2.3l-1 .6-.6-.8q1.1-1.1 3-1.1zm-.5 7.6q1.4 0 2.1-.8.8-.8.9-2.3h-1.8q-1.3 0-2.1.4t-.8 1.3q0 1.4 1.7 1.4zm13.7-6.6h-.5q-.9 0-1.4.3.3.7.3 1.4 0 .8-.4 1.5-.3.6-1 1-.6.4-1.5.4-.7 0-1.3-.3-.3.4-.3.8t.5.6q.6.2 2 .2 1.8 0 2.4.5.6.6.6 1.6t-.8 1.7q-.9.8-2.7.8-1.8 0-2.8-.6-1-.5-1-1.6 0-.6.4-1 .3-.5.9-.8-.6-.4-.6-1.1 0-.7.7-1.5l-.7-1q-.2-.5-.2-1.2 0-.8.3-1.4.4-.7 1-1 .7-.5 1.6-.5 1.3 0 2 .9l1-.6q.4-.2 1-.2h.3l.2 1zm-4.5 3.5q.8 0 1.3-.5t.5-1.3q0-.8-.5-1.3t-1.3-.5q-.8 0-1.3.5T56 124q0 .8.5 1.3t1.3.5zm2.7 4.7l-.1-.7-.6-.3q-.5-.2-1.4-.2-1.3 0-2-.2-.5.3-.6.6-.2.3-.2.8 0 .6.7 1 .7.3 1.9.3t1.7-.4q.6-.3.6-1zm7.1-.7q-1.8 0-3-1-1-1.2-1-3.2 0-1.4.5-2.3.5-1 1.4-1.5.8-.6 1.9-.6 1.5 0 2.4 1 1 1 1 3l-.1.5h-5.9q.1 1.6.9 2.3.8.8 2 .8t2-1l.8.8q-1 1.2-2.9 1.2zm1.8-5q0-1.2-.6-1.9t-1.5-.7q-1 0-1.6.7-.6.6-.8 1.8h4.5zm6.6-.7q-.4 0-.7-.3-.4-.3-.4-.7 0-.4.3-.7.4-.3.8-.3t.8.3q.3.3.3.7 0 .4-.3.7-.4.3-.8.3zm0 5.8q-.4 0-.8-.3-.3-.3-.3-.8 0-.4.3-.7.4-.3.8-.3t.8.3q.3.3.3.7 0 .5-.3.8-.3.3-.8.3zm17.9-.2v-9.7l-2.3.7-.3-.7 3-1.6h.8v11.3H94zm9.3.1q-1 0-1.8-.3-.8-.4-1.2-1.1-.4-.7-.4-1.6 0-1 .6-1.8t1.6-1.3q-.7-.4-1.2-1-.5-.8-.5-1.6 0-1.2.8-2t2.2-.8q1.5 0 2.2.8.8.7.8 1.9 0 .8-.5 1.5t-1.3 1.2q1 .4 1.6 1.3.6.8.6 1.8 0 .8-.5 1.5-.4.7-1.2 1.2-.8.3-1.8.3zm.3-6.6q.7-.4 1.1-1 .5-.6.5-1.2 0-.7-.5-1.1-.5-.5-1.3-.5-.9 0-1.3.4-.5.5-.5 1.2t.5 1.2q.5.5 1.5 1zm-.2 5.5q1 0 1.5-.5.6-.6.6-1.4 0-.9-.7-1.5-.6-.7-1.7-1-.8.3-1.4 1-.5.6-.5 1.4 0 .9.6 1.4.6.6 1.6.6zm7.4 3.4q.5-.4.8-1 .4-.5.4-.8l-.1-.3-.4-.3-.3-.4-.2-.4q0-.5.3-.8.3-.3.8-.3t.8.4q.4.5.4 1.1 0 1.4-1.9 3.4l-.6-.5zm19.3-2.2q-.4 0-.7-.3-.3-.3-.3-.8 0-.4.3-.7.3-.3.7-.3.4 0 .7.3.3.3.3.7 0 .5-.3.8-.3.3-.7.3zm9 0q-.4 0-.7-.3-.3-.3-.3-.8 0-.4.3-.7.3-.3.7-.3.4 0 .7.3.3.3.3.7 0 .5-.3.8-.3.3-.7.3zm9 0q-.4 0-.7-.3-.3-.3-.3-.8 0-.4.3-.7.3-.3.7-.3.4 0 .7.3.3.3.3.7 0 .5-.3.8-.3.3-.7.3zm5.7 2.6v-1h1q1.2 0 1.7-.5.5-.4.5-1.6v-1.6q0-2.2 1.5-2.7-1.6-.7-1.6-2.7V121q0-1.9-1.6-1.9h-1.5v-1h1.1q3.3 0 3.3 3.1v1.3q0 1 .4 1.5t1.2.5h.4v1h-.4q-.8 0-1.2.4-.4.4-.4 1.6v1.8q.1 1.2-.3 1.9t-1.2 1q-.9.2-2.2.2h-.7z" font-size="18" font-family="Inconsolata" fill="#1d4494"/><path d="M33.5 179.5q-1.4 0-2.2-.2-.9-.3-1.3-1t-.3-2v-1.7q0-1.2-.3-1.6-.4-.4-1.3-.4h-.3v-1h.3q.9 0 1.3-.5t.4-1.5v-1.3q0-3 3.2-3h1.2v1h-1.5q-1.7 0-1.7 1.8v1.3q0 2-1.5 2.7 1.5.5 1.5 2.8v1.5q0 1.2.5 1.6.5.5 1.7.5h1v1h-.7zm15.7-11.2q1.8 0 2.7.9 1 .9 1 3.1v4.4h-1.5v-1.3q-.7 1.5-2.8 1.5-1.4 0-2.1-.6-.8-.7-.8-1.7 0-.9.6-1.5.5-.7 1.5-1 1-.4 2-.4l1.9.1q-.1-1.3-.7-1.9-.7-.6-1.9-.6-.6 0-1.2.3l-1 .6-.6-.8q1.1-1.1 3-1.1zm-.5 7.6q1.4 0 2.1-.8.8-.8.9-2.3h-1.8q-1.3 0-2.1.4t-.8 1.3q0 1.4 1.7 1.4zm13.7-6.6h-.5q-.9 0-1.4.4.3.6.3 1.3 0 .8-.4 1.5-.3.6-1 1-.6.4-1.5.4-.7 0-1.3-.3-.3.4-.3.8t.5.6q.6.2 2 .2 1.8 0 2.4.5.6.6.6 1.6T61 179q-.9.8-2.7.8-1.8 0-2.8-.6-1-.5-1-1.6 0-.6.4-1 .3-.5.9-.8-.6-.4-.6-1.1 0-.7.7-1.5l-.7-1q-.2-.5-.2-1.2 0-.8.3-1.4.4-.7 1-1 .7-.5 1.6-.5 1.3 0 2 .9l1-.6q.4-.2 1-.2h.3l.2 1zm-4.5 3.5q.8 0 1.3-.5t.5-1.3q0-.8-.5-1.3t-1.3-.5q-.8 0-1.3.5T56 171q0 .8.5 1.3t1.3.5zm2.7 4.7l-.1-.7-.6-.3q-.5-.2-1.4-.2-1.3 0-2-.2-.5.3-.6.6-.2.3-.2.8 0 .6.7 1 .7.3 1.9.3t1.7-.4q.6-.3.6-1zm7.1-.6q-1.8 0-3-1.2-1-1-1-3.1 0-1.4.5-2.3.5-1 1.4-1.5.8-.6 1.9-.6 1.5 0 2.4 1 1 1 1 3l-.1.5h-5.9q.1 1.6.9 2.3.8.8 2 .8t2-1l.8.8q-1 1.3-2.9 1.3zm1.8-5.2q0-1.1-.6-1.8t-1.5-.7q-1 0-1.6.7-.6.6-.8 1.8h4.5zm6.6-.6q-.4 0-.7-.3-.4-.3-.4-.7 0-.4.3-.7.4-.3.8-.3t.8.3q.3.3.3.7 0 .4-.3.7-.4.3-.8.3zm0 5.8q-.4 0-.8-.3-.3-.3-.3-.8 0-.4.3-.7.4-.3.8-.3t.8.3q.3.3.3.7 0 .5-.3.8-.3.3-.8.3zm15-1.2l1.5-1.5 2.2-2.3q.7-.8 1.1-1.6.5-.9.5-1.7 0-1.1-.6-1.6-.5-.5-1.3-.5t-1.5.3q-.6.4-.8.8l-.3.4v.2h.1v.2l-.2-.1-1-.7q.6-1 1.5-1.6 1-.6 2.1-.6 1.5 0 2.4.9.9.8.9 2.3 0 1-.5 1.9-.5.9-1.2 1.7-.7.9-2 2.1l-1.2 1.3h4.5l.3-.2h.1v1.3h-6.6v-1zm12.2 1.2q-1 0-1.8-.4t-1.2-1.1q-.4-.7-.4-1.6 0-1 .6-1.8t1.6-1.3q-.7-.4-1.2-1-.5-.8-.5-1.6 0-1.2.8-2t2.2-.8q1.5 0 2.2.8.8.7.8 1.9 0 .8-.5 1.5t-1.3 1.2q1 .4 1.6 1.3.6.8.6 1.8 0 .8-.5 1.5-.4.7-1.2 1.2-.8.4-1.8.4zm.3-6.7q.7-.3 1.1-1 .5-.6.5-1.2 0-.7-.5-1.1-.5-.5-1.3-.5-.9 0-1.3.4-.5.5-.5 1.2t.5 1.2q.5.5 1.5 1zm-.2 5.5q1 0 1.5-.5.6-.6.6-1.4 0-.9-.7-1.5-.6-.7-1.7-1-.8.3-1.4 1-.5.6-.5 1.4 0 .9.6 1.4.6.6 1.6.6zm7.4 3.5l.8-1q.4-.6.4-1l-.1-.2-.4-.3-.3-.4-.2-.4q0-.5.3-.8.3-.3.8-.3t.8.4q.4.5.4 1.1 0 1.4-1.9 3.4l-.6-.5zm19.3-2.3q-.4 0-.7-.3-.3-.3-.3-.8 0-.4.3-.7.3-.3.7-.3.4 0 .7.3.3.3.3.7 0 .5-.3.8-.3.3-.7.3zm9 0q-.4 0-.7-.3-.3-.3-.3-.8 0-.4.3-.7.3-.3.7-.3.4 0 .7.3.3.3.3.7 0 .5-.3.8-.3.3-.7.3zm9 0q-.4 0-.7-.3-.3-.3-.3-.8 0-.4.3-.7.3-.3.7-.3.4 0 .7.3.3.3.3.7 0 .5-.3.8-.3.3-.7.3zm5.7 2.6v-1h1q1.2 0 1.7-.5.5-.4.5-1.6v-1.5q0-2.3 1.5-2.8-1.6-.7-1.6-2.7v-1.3q0-1.9-1.6-1.9h-1.5v-1h1.1q3.3 0 3.3 3.1v1.3q0 1 .4 1.5t1.2.5h.4v1h-.4q-.8 0-1.2.4-.4.5-.4 1.6v1.8q.1 1.2-.3 2-.4.6-1.2.9-.9.2-2.2.2h-.7z" font-size="18" font-family="Inconsolata" fill="#32559e"/><path d="M33.4 268.3q-1.4 0-2.3-.3-.8-.3-1.2-1-.4-.7-.4-1.9l.1-1.8q0-1.1-.4-1.6-.4-.4-1.2-.4h-.4v-1h.4q.8 0 1.2-.5.5-.4.5-1.4V257q0-3.2 3.2-3.2H34v1h-1.5q-1.6 0-1.6 2v1.2q0 2-1.6 2.7 1.6.5 1.6 2.8v1.5q0 1.2.4 1.7.6.4 1.8.4h1v1h-.7zM49 257q1.8 0 2.8.9.9 1 .9 3.1v4.4h-1.4V264q-.8 1.5-2.8 1.5-1.4 0-2.2-.6-.7-.7-.7-1.7 0-.8.5-1.5.6-.6 1.5-1 1-.3 2.1-.3h1.9q-.2-1.3-.8-1.9-.6-.6-1.8-.6-.6 0-1.2.3-.6.2-1 .7l-.7-.9q1.2-1.1 3-1.1zm-.4 7.6q1.3 0 2.1-.8t.9-2.2l-1.8-.2q-1.4 0-2.1.5-.8.4-.8 1.4 0 1.3 1.7 1.3zm13.6-6.6h-.4q-.9 0-1.5.4.3.6.3 1.3 0 .8-.3 1.5-.4.6-1 1-.7.4-1.6.4-.6 0-1.2-.3-.4.4-.4.8t.6.6q.5.2 2 .2 1.7 0 2.3.6.7.5.7 1.5t-.9 1.8q-.8.7-2.7.7-1.7 0-2.7-.6-1-.5-1-1.5 0-.7.3-1.2l1-.7q-.7-.4-.7-1 0-.8.8-1.6-.5-.4-.7-1-.2-.5-.2-1.2 0-.8.3-1.4.4-.7 1-1 .7-.4 1.5-.4 1.4 0 2.2.8l.8-.6 1-.2h.4l.1 1.1zm-4.5 3.5q.8 0 1.3-.5t.5-1.3q0-.7-.5-1.3-.5-.5-1.3-.5-.7 0-1.2.5-.6.6-.6 1.3 0 .8.6 1.3.5.5 1.2.5zm2.8 4.7q0-.4-.2-.7-.1-.2-.6-.3-.4-.2-1.3-.2-1.3 0-2-.2l-.7.6-.1.8q0 .6.6 1 .7.3 2 .3 1.1 0 1.7-.3.6-.4.6-1zm7.1-.6q-1.9 0-3-1.1-1-1.2-1-3.2 0-1.3.5-2.3.5-1 1.3-1.5.9-.5 2-.5 1.4 0 2.4 1 .9 1 .9 2.9v.6h-5.9q0 1.5.9 2.3.7.7 2 .7 1.2 0 2-.9l.8.7q-1 1.3-3 1.3zm1.8-5.1q0-1.2-.6-1.9-.6-.6-1.5-.6-1 0-1.6.6-.7.6-.8 1.9h4.5zm6.6-.7q-.4 0-.8-.3-.3-.3-.3-.7 0-.4.3-.7.3-.3.8-.3.4 0 .7.3.3.3.3.7 0 .4-.3.7-.3.3-.7.3zm0 5.8q-.5 0-.8-.3-.3-.3-.3-.7 0-.5.3-.8.3-.3.8-.3.4 0 .7.3.3.3.3.8 0 .4-.3.7-.3.3-.7.3zm19.2-6.1q1 .3 1.6 1 .6.7.6 1.8 0 1-.4 1.7t-1.2 1.2q-.7.4-1.8.4-.9 0-1.7-.3-.8-.4-1.4-1l.9-1q.4.6 1 .9.4.3 1.1.3 1 0 1.6-.6.6-.6.6-1.6 0-1.2-.7-1.7-.7-.6-1.9-.6h-.6v-1q1.6 0 2.2-.5.6-.6.6-1.7 0-.7-.5-1.2-.4-.4-1.1-.4-1.2 0-2 .8l-.8-.7q1-1.2 2.8-1.2 1.3 0 2.1.8.8.7.8 2 0 1-.5 1.6-.4.7-1.3 1zm-3.2 3.8h-.2v-.1h.2zm-.2 0q-.1-.1 0 0zm11.4 2.3q-1 0-1.8-.4t-1.2-1.1q-.4-.7-.4-1.5 0-1 .6-1.9.6-.8 1.6-1.3-.8-.4-1.2-1-.5-.8-.5-1.6 0-1.2.8-2 .7-.8 2.2-.8 1.4 0 2.2.8.7.7.7 1.9 0 .8-.4 1.5-.5.8-1.3 1.2 1 .4 1.5 1.3.6.8.6 1.8 0 .9-.4 1.6-.4.7-1.2 1-.8.5-1.8.5zm.3-6.7q.7-.3 1-1 .5-.5.5-1.2t-.5-1.1q-.4-.5-1.3-.5-.8 0-1.3.5-.4.4-.4 1 0 .8.5 1.3t1.5 1zm-.3 5.5q1 0 1.6-.5.5-.6.5-1.4 0-.8-.6-1.5-.7-.7-1.8-1-.8.3-1.3 1-.5.6-.5 1.4 0 .9.5 1.5.6.5 1.6.5zm7.5 3.5l.8-1q.3-.6.3-1v-.2q-.2 0-.4-.3l-.4-.4-.1-.4q0-.5.3-.8.3-.3.8-.3t.8.5q.4.4.4 1 0 1.4-2 3.4l-.5-.5zm19.3-2.3q-.5 0-.8-.3-.3-.3-.3-.7 0-.5.3-.8.3-.3.8-.3.4 0 .7.3.3.3.3.8 0 .4-.3.7-.3.3-.7.3zm9 0q-.5 0-.8-.3-.3-.3-.3-.7 0-.5.3-.8.3-.3.8-.3.4 0 .7.3.3.3.3.8 0 .4-.3.7-.3.3-.7.3zm9 0q-.5 0-.8-.3-.3-.3-.3-.7 0-.5.3-.8.3-.3.8-.3.4 0 .7.3.3.3.3.8 0 .4-.3.7-.3.3-.7.3zm5.7 2.7v-1h.9q1.2 0 1.7-.5.6-.5.6-1.7l-.1-1.5q0-2.3 1.5-2.8-1.5-.7-1.5-2.7V257q0-2-1.7-2h-1.4v-1h1q3.4 0 3.4 3.2v1.3q0 1 .3 1.4.5.5 1.3.5h.3v1h-.3q-.8 0-1.2.4-.4.5-.4 1.6v1.8q0 1.2-.3 2-.4.6-1.3.9-.8.3-2.2.3h-.6z" font-size="18" font-family="Inconsolata" fill="#1d4494"/><path d="M33.5 223q-1.4 0-2.2-.2-.9-.3-1.3-1-.4-.6-.3-1.9v-1.8q0-1-.3-1.5-.4-.5-1.3-.5h-.3v-1h.3q.9 0 1.3-.4.4-.5.4-1.5v-1.3q0-3.1 3.2-3.1h1.2v1h-1.5q-1.7 0-1.7 1.9v1.3q0 2-1.5 2.6 1.5.5 1.5 2.8v1.5q0 1.2.5 1.7t1.7.5h1v1h-.7zm15.7-11.2q1.8 0 2.7 1 1 .9 1 3v4.4h-1.5V219q-.7 1.4-2.8 1.4-1.4 0-2.1-.6-.8-.6-.8-1.6t.6-1.6q.5-.6 1.5-1 1-.3 2-.3l1.9.1q-.1-1.4-.7-2-.7-.5-1.9-.5l-1.2.2-1 .7-.6-.8q1.1-1.2 3-1.2zm-.5 7.6q1.4 0 2.1-.7.8-.8.9-2.3l-1.8-.1q-1.3 0-2.1.4-.8.5-.8 1.4 0 1.3 1.7 1.3zm13.7-6.6h-.5q-.9 0-1.4.4.3.6.3 1.4 0 .8-.4 1.4-.3.7-1 1-.6.4-1.5.4-.7 0-1.3-.2-.3.4-.3.7 0 .5.5.7.6.2 2 .2 1.8 0 2.4.5.6.5.6 1.5 0 1.1-.8 1.8-.9.7-2.7.7-1.8 0-2.8-.5-1-.6-1-1.6 0-.6.4-1.1.3-.5.9-.8-.6-.4-.6-1 0-.8.7-1.6l-.7-1q-.2-.5-.2-1.1 0-.8.3-1.5.4-.6 1-1 .7-.4 1.6-.4 1.3 0 2 .8.5-.4 1-.5.4-.2 1-.2h.3l.2 1zm-4.5 3.6q.8 0 1.3-.6.5-.5.5-1.2 0-.8-.5-1.3t-1.3-.5q-.8 0-1.3.5t-.5 1.3q0 .7.5 1.2.5.6 1.3.6zm2.7 4.6l-.1-.6q-.2-.3-.6-.4l-1.4-.1q-1.3 0-2-.2-.5.2-.6.5-.2.4-.2.9 0 .6.7 1 .7.3 1.9.3t1.7-.4q.6-.4.6-1zm7.1-.6q-1.8 0-3-1.1-1-1.1-1-3.2 0-1.3.5-2.3.5-1 1.4-1.5.8-.5 1.9-.5 1.5 0 2.4 1 1 1 1 3l-.1.5h-5.9q.1 1.5.9 2.3.8.8 2 .8t2-1l.8.7q-1 1.3-2.9 1.3zm1.8-5.1q0-1.2-.6-1.8-.6-.7-1.5-.7-1 0-1.6.6-.6.7-.8 1.9h4.5zm6.6-.6q-.4 0-.7-.3-.4-.3-.4-.7 0-.5.3-.8.4-.3.8-.3t.8.3q.3.3.3.8 0 .4-.3.7-.4.3-.8.3zm0 5.7q-.4 0-.8-.3-.3-.3-.3-.7 0-.4.3-.7.4-.3.8-.3t.8.3q.3.3.3.7 0 .4-.3.7-.3.3-.8.3zm15-1.2l1.5-1.5 2.2-2.2 1.1-1.7q.5-.8.5-1.7 0-1-.6-1.6-.5-.5-1.3-.5t-1.5.4q-.6.3-.8.7l-.3.5v.2h.1v.1h-.2l-1-.8q.6-1 1.5-1.6 1-.6 2.1-.6 1.5 0 2.4 1 .9.8.9 2.2 0 1-.5 2-.5.9-1.2 1.7l-2 2-1.2 1.3h4.5q.2 0 .3-.2h.1v1.3h-6.6v-1zm11.9 1v-9.6l-2.3.6-.3-.7 3-1.5h.8v11.2H103zm7.8 2.5l.8-1q.4-.5.4-.9l-.1-.2-.4-.4-.3-.4q-.2-.1-.2-.4 0-.4.3-.7.3-.3.8-.3t.8.4q.4.4.4 1 0 1.5-1.9 3.5l-.6-.6zm19.3-2.3q-.4 0-.7-.3-.3-.3-.3-.7 0-.4.3-.7.3-.3.7-.3.4 0 .7.3.3.3.3.7 0 .4-.3.7-.3.3-.7.3zm9 0q-.4 0-.7-.3-.3-.3-.3-.7 0-.4.3-.7.3-.3.7-.3.4 0 .7.3.3.3.3.7 0 .4-.3.7-.3.3-.7.3zm9 0q-.4 0-.7-.3-.3-.3-.3-.7 0-.4.3-.7.3-.3.7-.3.4 0 .7.3.3.3.3.7 0 .4-.3.7-.3.3-.7.3zm5.7 2.6v-1h1q1.2 0 1.7-.4.5-.5.5-1.7v-1.5q0-2.3 1.5-2.8-1.6-.7-1.6-2.6v-1.3q0-2-1.6-2h-1.5v-1h1.1q3.3 0 3.3 3.2v1.3q0 1 .4 1.5.4.4 1.2.4h.4v1h-.4q-.8 0-1.2.5-.4.4-.4 1.5v1.8q.1 1.3-.3 2-.4.6-1.2 1-.9.2-2.2.2h-.7z" font-size="18" font-family="Inconsolata" fill="#224897"/><path d="M33.5 399.7q-1.4 0-2.2-.3-.9-.3-1.3-1-.4-.6-.3-1.9v-1.8q0-1.1-.3-1.5-.4-.5-1.3-.5h-.3v-1h.3q.9 0 1.3-.4.4-.5.4-1.5v-1.3q0-3.2 3.2-3.2h1.2v1h-1.5q-1.7 0-1.7 2v1.2q0 2-1.5 2.7 1.5.5 1.5 2.8v1.5q0 1.2.5 1.7t1.7.5h1v1h-.7zm15.7-11.3q1.8 0 2.7 1 1 .8 1 3v4.4h-1.5v-1.2q-.7 1.4-2.8 1.4-1.4 0-2.1-.6-.8-.6-.8-1.7 0-.8.6-1.5.5-.6 1.5-1 1-.3 2-.3h1.9q-.1-1.3-.7-1.9-.7-.5-1.9-.5l-1.2.2q-.5.2-1 .7l-.6-.8q1.1-1.2 3-1.2zm-.5 7.6q1.4 0 2.1-.8.8-.7.9-2.2l-1.8-.1q-1.3 0-2.1.4-.8.5-.8 1.4 0 1.3 1.7 1.3zm13.7-6.6h-.5q-.9 0-1.4.4.3.6.3 1.3 0 .9-.4 1.5-.3.7-1 1-.6.4-1.5.4-.7 0-1.3-.2-.3.4-.3.7 0 .5.5.7l2 .1q1.8 0 2.4.6.6.5.6 1.5t-.8 1.8q-.9.7-2.7.7-1.8 0-2.8-.5-1-.6-1-1.6 0-.7.4-1.1.3-.5.9-.8-.6-.4-.6-1 0-.8.7-1.6l-.7-1q-.2-.5-.2-1.2t.3-1.4q.4-.7 1-1 .7-.4 1.6-.4 1.3 0 2 .8.5-.4 1-.5.4-.2 1-.2h.3l.2 1zm-4.5 3.5q.8 0 1.3-.5t.5-1.3q0-.7-.5-1.2-.5-.6-1.3-.6t-1.3.6q-.5.5-.5 1.2 0 .8.5 1.3t1.3.5zm2.7 4.7l-.1-.7-.6-.3-1.4-.1q-1.3 0-2-.3-.5.3-.6.6-.2.3-.2.8 0 .7.7 1 .7.3 1.9.3t1.7-.3q.6-.4.6-1zm7.1-.6q-1.8 0-3-1.1-1-1.1-1-3.2 0-1.3.5-2.3.5-1 1.4-1.5.8-.5 1.9-.5 1.5 0 2.4 1 1 1 1 2.9l-.1.6h-5.9q.1 1.5.9 2.3.8.7 2 .7t2-.9l.8.7q-1 1.3-2.9 1.3zm1.8-5.1q0-1.2-.6-1.8-.6-.7-1.5-.7-1 0-1.6.6-.6.6-.8 1.9h4.5zm6.6-.6q-.4 0-.7-.3-.4-.3-.4-.8 0-.4.3-.7.4-.3.8-.3t.8.3q.3.3.3.7 0 .5-.3.8-.4.3-.8.3zm0 5.7q-.4 0-.8-.3-.3-.3-.3-.7 0-.4.3-.8.4-.3.8-.3t.8.3q.3.4.3.8t-.3.7q-.3.3-.8.3zm19.3-6.1q1 .3 1.5 1 .6.7.6 1.8 0 1-.4 1.7t-1.1 1.2q-.8.4-1.9.4-.9 0-1.7-.3-.8-.3-1.3-1l.8-1 1 1q.4.2 1.2.2 1 0 1.6-.6.5-.6.5-1.6 0-1.1-.7-1.7-.6-.6-1.9-.6h-.5v-1q1.6 0 2.1-.5.6-.6.6-1.6 0-.8-.4-1.2-.5-.5-1.2-.5-1.1 0-2 .8l-.8-.7q1.1-1.2 2.8-1.2 1.4 0 2.1.8.8.8.8 2 0 1-.4 1.6-.5.7-1.3 1zm-3.3 3.8h-.2l.1-.1h.1zm-.2 0q0-.1 0 0zm11.1 2.1v-9.7l-2.3.7-.3-.7 3-1.5h.8v11.2H103zm7.8 2.5l.8-1q.4-.6.4-.9l-.1-.3-.4-.3-.3-.4q-.2-.1-.2-.4 0-.4.3-.7.3-.3.8-.3t.8.4q.4.4.4 1 0 1.5-1.9 3.4l-.6-.5zm19.3-2.3q-.4 0-.7-.3-.3-.3-.3-.7 0-.4.3-.7.3-.3.7-.3.4 0 .7.3.3.3.3.7 0 .4-.3.7-.3.3-.7.3zm9 0q-.4 0-.7-.3-.3-.3-.3-.7 0-.4.3-.7.3-.3.7-.3.4 0 .7.3.3.3.3.7 0 .4-.3.7-.3.3-.7.3zm9 0q-.4 0-.7-.3-.3-.3-.3-.7 0-.4.3-.7.3-.3.7-.3.4 0 .7.3.3.3.3.7 0 .4-.3.7-.3.3-.7.3zm5.7 2.7v-1h1q1.2 0 1.7-.5t.5-1.7V395q0-2.3 1.5-2.8-1.6-.7-1.6-2.7v-1.2q0-2-1.6-2h-1.5v-1h1.1q3.3 0 3.3 3.2v1.3q0 1 .4 1.5.4.4 1.2.4h.4v1h-.4q-.8 0-1.2.5-.4.4-.4 1.5v1.8q.1 1.3-.3 2-.4.6-1.2 1-.9.2-2.2.2h-.7zM33.5 312q-1.4 0-2.2-.3-.9-.3-1.3-1t-.3-1.9V307q0-1.1-.3-1.6-.4-.4-1.3-.4h-.3v-1h.3q.9 0 1.3-.5.4-.4.4-1.4v-1.3q0-3.2 3.2-3.2h1.2v1h-1.5q-1.7 0-1.7 2v1.2q0 2-1.5 2.7 1.5.5 1.5 2.8v1.5q0 1.2.5 1.7.5.4 1.7.4h1v1h-.7zm15.7-11.3q1.8 0 2.7 1 1 .8 1 3v4.4h-1.5v-1.3q-.7 1.5-2.8 1.5-1.4 0-2.1-.6-.8-.6-.8-1.7 0-.8.6-1.5.5-.6 1.5-1 1-.3 2-.3h1.9q-.1-1.3-.7-1.9-.7-.5-1.9-.5l-1.2.2q-.5.2-1 .7l-.6-.9q1.1-1.1 3-1.1zm-.5 7.6q1.4 0 2.1-.8.8-.8.9-2.2-.8-.2-1.8-.2-1.3 0-2.1.5-.8.4-.8 1.4 0 1.3 1.7 1.3zm13.7-6.6h-.5q-.9 0-1.4.4.3.6.3 1.3 0 .8-.4 1.5-.3.6-1 1-.6.4-1.5.4-.7 0-1.3-.2-.3.3-.3.7 0 .4.5.6.6.2 2 .2 1.8 0 2.4.6.6.5.6 1.5t-.8 1.8q-.9.7-2.7.7-1.8 0-2.8-.5-1-.6-1-1.6 0-.7.4-1.1.3-.5.9-.8-.6-.4-.6-1 0-.8.7-1.6l-.7-1q-.2-.5-.2-1.2 0-.8.3-1.4.4-.7 1-1 .7-.4 1.6-.4 1.3 0 2 .8l1-.6q.4-.2 1-.2h.3l.2 1.1zm-4.5 3.5q.8 0 1.3-.5t.5-1.3q0-.7-.5-1.3-.5-.5-1.3-.5t-1.3.5q-.5.6-.5 1.3 0 .8.5 1.3t1.3.5zm2.7 4.7l-.1-.7-.6-.3-1.4-.1q-1.3 0-2-.3-.5.3-.6.6-.2.3-.2.8 0 .6.7 1 .7.3 1.9.3t1.7-.3q.6-.4.6-1zm7.1-.6q-1.8 0-3-1.1-1-1.2-1-3.2 0-1.3.5-2.3.5-1 1.4-1.5.8-.5 1.9-.5 1.5 0 2.4 1 1 1 1 2.9l-.1.6h-5.9q.1 1.5.9 2.3.8.7 2 .7t2-.9l.8.7q-1 1.3-2.9 1.3zm1.8-5.1q0-1.2-.6-1.9-.6-.6-1.5-.6-1 0-1.6.6-.6.6-.8 1.9h4.5zm6.6-.6q-.4 0-.7-.4-.4-.3-.4-.7 0-.4.3-.7.4-.3.8-.3t.8.3q.3.3.3.7 0 .4-.3.7-.4.4-.8.4zm0 5.7q-.4 0-.8-.3-.3-.3-.3-.7 0-.5.3-.8.4-.3.8-.3t.8.3q.3.3.3.8 0 .4-.3.7-.3.3-.8.3zM94 309v-9.6l-2.3.7-.3-.7 3-1.5h.8V309H94zm9.3.3q-1 0-1.8-.4t-1.2-1.1q-.4-.7-.4-1.5 0-1 .6-1.8.6-.9 1.6-1.4-.7-.4-1.2-1-.5-.8-.5-1.6 0-1.2.8-2t2.2-.8q1.5 0 2.2.8.8.7.8 1.9 0 .8-.5 1.5-.5.8-1.3 1.2 1 .5 1.6 1.3.6.8.6 1.8 0 .9-.5 1.6-.4.7-1.2 1-.8.5-1.8.5zm.3-6.6q.7-.4 1.1-1 .5-.6.5-1.3 0-.6-.5-1.1-.5-.5-1.3-.5-.9 0-1.3.5-.5.4-.5 1 0 .8.5 1.3t1.5 1zm-.2 5.4q1 0 1.5-.5.6-.6.6-1.4 0-.8-.7-1.5-.6-.7-1.7-1-.8.3-1.4 1-.5.7-.5 1.4 0 .9.6 1.5.6.5 1.6.5zm7.4 3.5l.8-1q.4-.6.4-1l-.1-.2-.4-.3-.3-.4-.2-.4q0-.4.3-.8.3-.3.8-.3t.8.5q.4.4.4 1 0 1.4-1.9 3.4l-.6-.5zm19.3-2.3q-.4 0-.7-.3-.3-.3-.3-.7 0-.4.3-.8.3-.3.7-.3.4 0 .7.3.3.4.3.8t-.3.7q-.3.3-.7.3zm9 0q-.4 0-.7-.3-.3-.3-.3-.7 0-.4.3-.8.3-.3.7-.3.4 0 .7.3.3.4.3.8t-.3.7q-.3.3-.7.3zm9 0q-.4 0-.7-.3-.3-.3-.3-.7 0-.4.3-.8.3-.3.7-.3.4 0 .7.3.3.4.3.8t-.3.7q-.3.3-.7.3zm5.7 2.7v-1h1q1.2 0 1.7-.5t.5-1.7v-1.5q0-2.3 1.5-2.8-1.6-.7-1.6-2.7v-1.2q0-2-1.6-2h-1.5v-1h1.1q3.3 0 3.3 3.2v1.3q0 1 .4 1.4.4.5 1.2.5h.4v1h-.4q-.8 0-1.2.4-.4.5-.4 1.6v1.8q.1 1.2-.3 2-.4.6-1.2.9-.9.3-2.2.3h-.7zM33.5 354.8q-1.4 0-2.2-.3-.9-.2-1.3-1-.4-.6-.3-1.9v-1.8q0-1-.3-1.5-.4-.5-1.3-.5h-.3v-1h.3q.9 0 1.3-.4.4-.5.4-1.5v-1.3q0-3.1 3.2-3.1h1.2v1h-1.5q-1.7 0-1.7 1.9v1.3q0 2-1.5 2.6 1.5.5 1.5 2.8v1.5q0 1.2.5 1.7t1.7.5h1v1h-.7zm15.7-11.3q1.8 0 2.7 1 1 .9 1 3v4.4h-1.5v-1.2q-.7 1.4-2.8 1.4-1.4 0-2.1-.6-.8-.6-.8-1.6 0-.9.6-1.6.5-.6 1.5-1 1-.3 2-.3l1.9.1q-.1-1.4-.7-2-.7-.5-1.9-.5l-1.2.2-1 .7-.6-.8q1.1-1.2 3-1.2zm-.5 7.6q1.4 0 2.1-.7.8-.8.9-2.3l-1.8-.1q-1.3 0-2.1.4-.8.5-.8 1.4 0 1.3 1.7 1.3zm13.7-6.5h-.5q-.9 0-1.4.3.3.6.3 1.4 0 .8-.4 1.4-.3.7-1 1-.6.4-1.5.4-.7 0-1.3-.2-.3.4-.3.7 0 .5.5.7.6.2 2 .2 1.8 0 2.4.5.6.5.6 1.5 0 1.1-.8 1.8-.9.7-2.7.7-1.8 0-2.8-.5-1-.6-1-1.6 0-.6.4-1.1.3-.5.9-.8-.6-.3-.6-1 0-.8.7-1.6l-.7-1q-.2-.5-.2-1.1 0-.8.3-1.5.4-.6 1-1 .7-.4 1.6-.4 1.3 0 2 .8.5-.4 1-.5.4-.2 1-.2h.3l.2 1zm-4.5 3.5q.8 0 1.3-.6.5-.5.5-1.2 0-.8-.5-1.3t-1.3-.5q-.8 0-1.3.5t-.5 1.3q0 .7.5 1.2.5.6 1.3.6zm2.7 4.6l-.1-.6q-.2-.3-.6-.4l-1.4-.1q-1.3 0-2-.2-.5.2-.6.5-.2.4-.2.9 0 .6.7 1 .7.3 1.9.3t1.7-.4q.6-.3.6-1zm7.1-.6q-1.8 0-3-1.1-1-1.1-1-3.2 0-1.3.5-2.3.5-1 1.4-1.5.8-.5 1.9-.5 1.5 0 2.4 1 1 1 1 3l-.1.5h-5.9q.1 1.5.9 2.3.8.8 2 .8t2-1l.8.8q-1 1.2-2.9 1.2zm1.8-5.1q0-1.2-.6-1.8-.6-.7-1.5-.7-1 0-1.6.6-.6.7-.8 1.9h4.5zm6.6-.6q-.4 0-.7-.3-.4-.3-.4-.7 0-.5.3-.8.4-.3.8-.3t.8.3q.3.3.3.8 0 .4-.3.7-.4.3-.8.3zm0 5.7q-.4 0-.8-.3-.3-.3-.3-.7 0-.4.3-.7.4-.3.8-.3t.8.3q.3.3.3.7 0 .4-.3.7-.3.3-.8.3zm19.3-6.1q1 .3 1.5 1 .6.8.6 1.9 0 .9-.4 1.6-.4.7-1.1 1.2-.8.4-1.9.4-.9 0-1.7-.3-.8-.3-1.3-1l.8-1 1 1q.4.2 1.2.2 1 0 1.6-.6.5-.6.5-1.6 0-1.1-.7-1.7-.6-.5-1.9-.5h-.5v-1q1.6 0 2.1-.6.6-.6.6-1.6 0-.8-.4-1.2-.5-.5-1.2-.5-1.1 0-2 .9l-.8-.8q1.1-1.2 2.8-1.2 1.4 0 2.1.8.8.8.8 2 0 1-.4 1.6-.5.7-1.3 1zm-3.3 3.8h-.2.2zm-.2 0zm11.4 2.3q-1 0-1.8-.4t-1.2-1q-.4-.7-.4-1.6 0-1 .6-1.8.6-.9 1.6-1.3-.7-.4-1.2-1.1-.5-.7-.5-1.6 0-1.2.8-2 .8-.7 2.2-.7 1.5 0 2.2.7.8.8.8 2 0 .7-.5 1.5-.5.7-1.3 1.1 1 .5 1.6 1.3.6.9.6 1.8t-.5 1.6q-.4.7-1.2 1.1-.8.4-1.8.4zm.3-6.6q.7-.4 1.1-1 .5-.6.5-1.2 0-.7-.5-1.2t-1.3-.5q-.9 0-1.3.5-.5.5-.5 1.1 0 .8.5 1.3l1.5 1zm-.2 5.5q1 0 1.5-.6.6-.5.6-1.4 0-.8-.7-1.5-.6-.7-1.7-1-.8.3-1.4 1-.5.7-.5 1.5t.6 1.4q.6.6 1.6.6zm7.4 3.4l.8-1q.4-.5.4-.9l-.1-.2-.4-.4-.3-.4q-.2-.1-.2-.4 0-.4.3-.7.3-.3.8-.3t.8.4q.4.4.4 1 0 1.5-1.9 3.5l-.6-.6zm19.3-2.3q-.4 0-.7-.3-.3-.3-.3-.7 0-.4.3-.7.3-.3.7-.3.4 0 .7.3.3.3.3.7 0 .4-.3.7-.3.3-.7.3zm9 0q-.4 0-.7-.3-.3-.3-.3-.7 0-.4.3-.7.3-.3.7-.3.4 0 .7.3.3.3.3.7 0 .4-.3.7-.3.3-.7.3zm9 0q-.4 0-.7-.3-.3-.3-.3-.7 0-.4.3-.7.3-.3.7-.3.4 0 .7.3.3.3.3.7 0 .4-.3.7-.3.3-.7.3zm5.7 2.7v-1h1q1.2 0 1.7-.5t.5-1.7v-1.5q0-2.3 1.5-2.8-1.6-.7-1.6-2.6v-1.3q0-2-1.6-2h-1.5v-1h1.1q3.3 0 3.3 3.2v1.3q0 1 .4 1.5.4.4 1.2.4h.4v1h-.4q-.8 0-1.2.5-.4.4-.4 1.5v1.8q.1 1.3-.3 2t-1.2 1q-.9.2-2.2.2h-.7z" font-size="18" font-family="Inconsolata" fill="#1d4494"/><path d="M81.4 437.7v-1.2q-.6.6-1.3 1-.8.3-1.6.3-.9 0-1.6-.4-.8-.5-1.1-1.2-.4-.8-.4-2.6v-5.4h1.8v5.4q0 1.5.5 2 .4.7 1.5.7 1.3 0 2.2-1.3v-6.8h1.9v9.5h-1.9zm4.1-.7v-2l1.6.9q.8.3 1.4.3.5 0 1-.3.4-.3.4-.7 0-.4-.3-.6l-1.2-.8q-1.8-1-2.3-1.7-.6-.8-.6-1.6 0-1 .9-1.8.8-.7 2.1-.7 1.4 0 2.9.8v1.9q-1.7-1-2.7-1-.6 0-1 .2-.3.2-.3.6 0 .3.3.6l1.1.7.7.4q2.3 1.4 2.3 3 0 1.1-.9 1.9-.9.7-2.3.7-.8 0-1.5-.2-.7-.1-1.6-.6zm16.5-3.9h-6.6q0 1.4.9 2.2.8.8 2.1.8 1.9 0 3.4-1.2v1.8q-.8.6-1.7.9-.8.2-2 .2-1.5 0-2.5-.6-1-.7-1.5-1.8-.6-1-.6-2.5 0-2.2 1.2-3.5Q96 428 98 428q1.9 0 3 1.4 1 1.3 1 3.5v.2zm-6.6-1.1h4.7q0-1.1-.6-1.7-.6-.6-1.6-.6t-1.7.6q-.6.6-.8 1.7zm10.6-3.8v2.2l.1-.2q1.4-2.2 2.7-2.2 1 0 2.2 1.1l-1 1.6q-1-.9-1.8-.9-.9 0-1.5.9-.7.8-.7 2v5h-1.9v-9.5h1.9zm5.9 8.8v-2l1.6.9q.8.3 1.4.3.6 0 1-.3t.4-.7q0-.4-.3-.6-.2-.3-1.2-.8-1.8-1-2.3-1.7-.6-.8-.6-1.6 0-1 .9-1.8.8-.7 2.2-.7 1.3 0 2.8.8v1.9q-1.7-1-2.7-1-.6 0-1 .2-.2.2-.2.6 0 .3.3.6l1 .7.7.4q2.4 1.4 2.4 3 0 1.1-1 1.9-.9.7-2.3.7-.8 0-1.5-.2-.6-.1-1.6-.6z" font-size="21" font-family="GillSans" fill="#1d4494"/><g stroke="#3299cc" stroke-width="6"><path d="M182 260.4h119" fill="none"/><path d="M301 266.3l16-6-16-6z" fill="#3299cc"/></g><path d="M194.5 293.2l-2 2-2-.4-2.2-.8q-1.1-.5-2.9-1.8-2.6-.4-4.3-2.4-1.7-2-1.7-4.7 0-3.2 2.2-5.3 2.2-2 5.5-2t5.5 2q2.2 2 2.2 5.3 0 2.6-1.6 4.6-1.7 2-4.3 2.5l.5.3q2.5 1 3.7 1 .6 0 1.4-.3zm-7.4-13.5q-2.4 0-4 1.5-1.6 1.6-1.6 4 0 2.3 1.6 3.8t4 1.5q2.4 0 4-1.5 1.6-1.6 1.6-4 0-2.3-1.6-3.8t-4-1.5zm15.9 12.5v-1.1q-.5.6-1.3 1-.8.3-1.5.3-1 0-1.7-.4-.7-.5-1.1-1.2-.4-.8-.4-2.6v-5.4h1.9v5.4q0 1.5.4 2 .4.7 1.5.7 1.3 0 2.3-1.3v-6.8h1.8v9.4h-1.8zm12.6-4.5H209q0 1.4.9 2.2.8.8 2.1.8 1.9 0 3.4-1.2v1.8q-.8.6-1.7.8-.8.3-2 .3-1.5 0-2.5-.7-1-.6-1.5-1.7-.6-1-.6-2.5 0-2.2 1.2-3.5 1.2-1.4 3.2-1.4 1.9 0 3 1.3 1.1 1.4 1.1 3.6v.2zm-6.6-1.1h4.8q-.1-1.1-.7-1.7-.6-.6-1.6-.6t-1.7.6q-.6.6-.8 1.7zm10.6-3.8v2.2l.1-.2q1.4-2.2 2.7-2.2 1 0 2.2 1.1l-1 1.6q-1-.9-1.8-.9-.9 0-1.5.9-.7.8-.7 2v5h-1.9v-9.5h2zm12.7 0h2.1l-6.7 14.3h-2l3.2-6.9-3.7-7.4h2.1l2.6 5.3 2.4-5.3zm21.9 6.2v2.2q-2.3 1.2-5.2 1.2-2.4 0-4.1-1-1.7-1-2.7-2.6-1-1.7-1-3.7 0-3 2.3-5.2 2.2-2.2 5.5-2.2 2.3 0 5 1.2v2.2q-2.5-1.4-4.9-1.4-2.5 0-4 1.5-1.7 1.6-1.7 4 0 2.3 1.6 3.8t4 1.5q2.7 0 5.2-1.6zm4.2-6.2v2.2l.2-.2q1.3-2.2 2.7-2.2 1 0 2.2 1.1l-1 1.6q-1-.9-1.8-.9-1 0-1.6.9-.7.8-.7 2v5h-1.8v-9.5h1.8zm7.3-4q.5 0 .8.4.4.3.4.7 0 .5-.4.8-.3.4-.8.4-.4 0-.7-.4-.3-.3-.3-.8 0-.4.3-.7.3-.4.7-.4zm-.9 4h1.9v9.4h-1.9v-9.4zm3.2 1.5l3.6-3.4v2h3v1.6h-3v4.6q0 1.6 1.3 1.6 1 0 2.1-.6v1.7q-1 .6-2.3.6-1.3 0-2.2-.7l-.4-.5-.3-.8-.1-1.7v-4.2H268v-.2zm16.4 3.4h-6.6q0 1.4.9 2.2.8.8 2.2.8 1.8 0 3.4-1.2v1.8q-.9.6-1.8.8-.8.3-2 .3-1.5 0-2.5-.7-1-.6-1.5-1.7-.6-1-.6-2.5 0-2.2 1.2-3.5 1.3-1.4 3.2-1.4 1.9 0 3 1.3 1.1 1.4 1.1 3.6v.2zm-6.6-1.1h4.8q-.1-1.1-.7-1.7-.6-.6-1.6-.6t-1.6.6q-.7.6-.9 1.7zm10.6-3.8v2.2l.1-.2q1.4-2.2 2.7-2.2 1.1 0 2.2 1.1l-1 1.6q-1-.9-1.7-.9-1 0-1.6.9-.7.8-.7 2v5h-1.8v-9.5h1.8zm7.3-4q.5 0 .8.4.3.3.3.7 0 .5-.3.8-.3.4-.8.4-.4 0-.7-.4-.4-.3-.4-.8 0-.4.4-.7.3-.4.7-.4zm-.9 4h1.9v9.4h-1.9v-9.4zm10.5 3.8v4q0 .5.3.5t1-.5v1.1l-1 .6-.8.1q-1.2 0-1.4-1-1.2 1-2.5 1-1 0-1.7-.7-.6-.6-.6-1.6 0-.9.6-1.6.7-.7 1.9-1.1l2.3-.8v-.5q0-1.7-1.7-1.7-1.5 0-3 1.6v-2q1.2-1.4 3.2-1.4 1.5 0 2.4.8.4.3.6.7l.3.9v1.6zm-1.9 3.8v-2.8l-1.2.5q-1 .3-1.4.7-.4.4-.4 1t.4 1q.4.3 1 .3.9 0 1.6-.7z" font-size="21" font-family="GillSans" fill="#3299cc"/><path d="M334.3 216.7H479V306H334.3z" fill="#fff"/><path d="M334.3 216.7H479V306H334.3zm0 44.3H479" stroke="#1d4494" fill="none"/><path d="M346.2 291.3q-1.3 0-2.2-.3-.8-.3-1.2-1-.4-.7-.4-1.9l.1-1.8q0-1.1-.4-1.6-.4-.4-1.2-.4h-.4v-1h.4q.8 0 1.2-.5.4-.4.4-1.4V280q0-3.2 3.3-3.2h1.1v1h-1.5q-1.6 0-1.6 2v1.2q0 2-1.6 2.7 1.6.5 1.6 2.8l-.1 1.5q0 1.2.5 1.7.5.4 1.8.4h.9v1h-.7zM362 280q1.7 0 2.6.9 1 1 1 3.1v4.4h-1.4V287q-.8 1.5-2.8 1.5-1.4 0-2.2-.6-.8-.7-.8-1.7 0-.8.6-1.5.6-.6 1.5-1 1-.3 2-.3h2q-.2-1.3-.8-1.9-.6-.6-1.8-.6-.6 0-1.2.3-.6.2-1 .7l-.7-.9q1.2-1.1 3-1.1zm-.5 7.6q1.3 0 2-.8.9-.8 1-2.2l-1.8-.2q-1.4 0-2.2.5-.8.4-.8 1.4 0 1.3 1.8 1.3zm13.6-6.6h-.5q-.8 0-1.4.4.3.6.3 1.3 0 .8-.3 1.5-.4.6-1 1-.7.4-1.6.4-.7 0-1.2-.3-.4.4-.4.8t.6.6q.5.2 2 .2 1.7 0 2.3.6.7.5.7 1.5t-.9 1.8q-.9.7-2.7.7-1.8 0-2.8-.6-1-.5-1-1.5 0-.7.4-1.2l1-.7q-.7-.4-.7-1 0-.8.8-1.6-.5-.4-.7-1-.2-.5-.2-1.2 0-.8.3-1.4.4-.7 1-1 .7-.4 1.5-.4 1.3 0 2.1.8l1-.6q.4-.2 1-.2h.3l.1 1.1zm-4.5 3.5q.8 0 1.3-.5t.5-1.3q0-.7-.5-1.3-.5-.5-1.3-.5-.7 0-1.3.5-.5.6-.5 1.3 0 .8.5 1.3.6.5 1.3.5zm2.8 4.7q0-.4-.2-.7-.1-.2-.6-.3-.4-.2-1.3-.2-1.3 0-2-.2l-.7.6q-.2.3-.2.8 0 .6.7 1 .7.3 2 .3 1.1 0 1.7-.3.6-.4.6-1zm7.1-.6q-1.9 0-3-1.1-1-1.2-1-3.2 0-1.3.4-2.3.6-1 1.4-1.5.9-.5 2-.5 1.4 0 2.3 1 1 1 1 2.9v.6h-6q.2 1.5 1 2.3.7.7 1.9.7 1.3 0 2.1-.9l.7.7q-1 1.3-2.8 1.3zm1.8-5.1q0-1.2-.6-1.9-.6-.6-1.6-.6-.9 0-1.5.6-.7.6-.9 1.9h4.6zm6.5-.7q-.4 0-.7-.3-.3-.3-.3-.7 0-.4.3-.7.3-.3.7-.3.5 0 .8.3.3.3.3.7 0 .4-.3.7-.3.3-.8.3zm0 5.8q-.4 0-.7-.3-.3-.3-.3-.7 0-.5.3-.8.3-.3.7-.3.5 0 .8.3.3.3.3.8 0 .4-.3.7-.3.3-.8.3zm17.9-.2v-9.7l-2.3.7-.3-.7 3-1.5h.9v11.2h-1.3zm9.3.2q-1 0-1.8-.4-.7-.4-1.1-1.1-.5-.7-.5-1.5 0-1 .7-1.9.6-.8 1.6-1.3-.8-.4-1.2-1-.5-.8-.5-1.6 0-1.2.8-2 .7-.8 2.2-.8 1.4 0 2.2.8.7.7.7 1.9 0 .8-.5 1.5-.4.8-1.3 1.2 1 .4 1.6 1.3.6.8.6 1.8 0 .9-.4 1.6-.4.7-1.2 1-.8.5-1.8.5zm.4-6.7q.6-.3 1-1 .5-.5.5-1.2t-.5-1.1q-.4-.5-1.3-.5-.8 0-1.3.5-.4.4-.4 1 0 .8.5 1.3t1.5 1zm-.3 5.5q1 0 1.6-.5.5-.6.5-1.4 0-.8-.6-1.5-.7-.7-1.8-1-.8.3-1.3 1-.6.6-.6 1.4 0 .9.6 1.5.6.5 1.6.5zm7.4 3.5l.9-1q.3-.6.3-1v-.2q-.2 0-.4-.3l-.4-.4-.1-.4q0-.5.3-.8.3-.3.7-.3.5 0 .9.5.4.4.4 1 0 1.4-2 3.4l-.6-.5zm19.3-2.3q-.4 0-.7-.3-.3-.3-.3-.7 0-.5.3-.8.3-.3.7-.3.5 0 .8.3.3.3.3.8 0 .4-.3.7-.3.3-.8.3zm9 0q-.4 0-.7-.3-.3-.3-.3-.7 0-.5.3-.8.3-.3.7-.3.5 0 .8.3.3.3.3.8 0 .4-.3.7-.3.3-.8.3zm9 0q-.4 0-.7-.3-.3-.3-.3-.7 0-.5.3-.8.3-.3.7-.3.5 0 .8.3.3.3.3.8 0 .4-.3.7-.3.3-.8.3zm5.8 2.7v-1h.9q1.2 0 1.7-.5t.5-1.7v-1.5q0-2.3 1.5-2.8-1.6-.7-1.6-2.7V280q0-2-1.6-2h-1.5v-1h1.2q3.2 0 3.2 3.2v1.3q0 1 .4 1.4.4.5 1.3.5h.3v1h-.3q-.9 0-1.3.4-.4.5-.4 1.6l.1 1.8q0 1.2-.3 2-.4.6-1.3.9-.8.3-2.2.3h-.6zM346.4 247q-1.4 0-2.2-.2-.9-.3-1.3-1-.4-.6-.3-1.9v-1.8q0-1-.4-1.5t-1.2-.5h-.3v-1h.3q.8 0 1.3-.4.4-.5.4-1.5v-1.3q0-3.1 3.2-3.1h1.1v1h-1.4q-1.7 0-1.7 1.9v1.3q0 2-1.5 2.6 1.5.5 1.5 2.8v1.5q0 1.2.5 1.7t1.7.5h1v1h-.7zm15.6-11.2q1.9 0 2.8 1 1 .9 1 3v4.4h-1.5V243q-.7 1.4-2.8 1.4-1.4 0-2.1-.6-.8-.6-.8-1.6t.5-1.6q.6-.6 1.5-1 1-.3 2.1-.3l1.9.1q-.1-1.4-.8-2-.6-.5-1.8-.5l-1.2.2-1 .7-.6-.8q1.1-1.2 2.9-1.2zm-.4 7.6q1.4 0 2.1-.7.8-.8.9-2.3l-1.8-.1q-1.3 0-2.1.4-.8.5-.8 1.4 0 1.3 1.7 1.3zm13.7-6.6h-.5q-.9 0-1.5.4.3.6.3 1.4 0 .8-.3 1.4-.4.7-1 1-.7.4-1.5.4-.7 0-1.3-.2-.3.4-.3.7 0 .5.5.7.6.2 2 .2 1.7 0 2.4.5.6.5.6 1.5 0 1.1-.9 1.8-.8.7-2.7.7-1.7 0-2.7-.5-1-.6-1-1.6 0-.6.3-1.1.4-.5 1-.8-.6-.4-.6-1 0-.8.7-1.6l-.7-1q-.2-.5-.2-1.1 0-.8.3-1.5.4-.6 1-1 .7-.4 1.6-.4 1.3 0 2 .8.5-.4 1-.5.4-.2 1-.2h.3l.2 1zm-4.5 3.6q.7 0 1.2-.6.6-.5.6-1.2 0-.8-.6-1.3-.5-.5-1.2-.5-.8 0-1.3.5t-.5 1.3q0 .7.5 1.2.5.6 1.3.6zm2.7 4.6l-.1-.6q-.2-.3-.6-.4l-1.4-.1q-1.3 0-2-.2-.5.2-.7.5l-.1.9q0 .6.7 1 .6.3 1.9.3 1.2 0 1.7-.4.6-.4.6-1zm7.1-.6q-1.8 0-3-1.1-1-1.1-1-3.2 0-1.3.5-2.3.5-1 1.3-1.5.9-.5 2-.5 1.5 0 2.4 1 1 1 1 3l-.1.5h-5.9q.1 1.5.9 2.3.7.8 2 .8 1.2 0 2-1l.8.7q-1 1.3-2.9 1.3zm1.8-5.1q0-1.2-.6-1.8-.6-.7-1.5-.7-1 0-1.6.6-.7.7-.8 1.9h4.5zm6.6-.6q-.4 0-.8-.3-.3-.3-.3-.7 0-.5.3-.8.4-.3.8-.3t.7.3q.4.3.4.8 0 .4-.4.7-.3.3-.7.3zm0 5.7q-.5 0-.8-.3-.3-.3-.3-.7 0-.4.3-.7.4-.3.8-.3t.7.3q.4.3.4.7 0 .4-.4.7-.3.3-.7.3zm17.8-.2v-9.6l-2.2.6-.3-.7 3-1.5h.8v11.2h-1.3zm9.4.2q-1 0-1.8-.4t-1.2-1q-.4-.8-.4-1.6 0-1 .6-1.8.6-.9 1.6-1.3-.7-.4-1.2-1.1-.5-.7-.5-1.6 0-1.2.8-2 .8-.7 2.2-.7 1.5 0 2.2.7.8.8.8 2 0 .7-.5 1.5-.5.7-1.3 1.1 1 .5 1.5 1.3.6.9.6 1.8t-.4 1.6q-.4.7-1.2 1.1-.8.4-1.8.4zm.3-6.6q.7-.4 1.1-1 .4-.6.4-1.2 0-.7-.4-1.2-.5-.5-1.3-.5-.9 0-1.3.5-.5.4-.5 1.1 0 .8.5 1.3l1.5 1zm-.3 5.5q1 0 1.6-.6.6-.5.6-1.4 0-.8-.7-1.5-.6-.7-1.7-1-.9.3-1.4 1-.5.7-.5 1.5t.6 1.4q.5.6 1.5.6zm7.5 3.4l.8-1q.3-.5.3-.9v-.2l-.4-.4-.4-.4v-.4q0-.4.2-.7.3-.3.8-.3t.8.4q.4.4.4 1 0 1.5-2 3.5l-.5-.6zm19.3-2.3q-.4 0-.8-.3-.3-.3-.3-.7 0-.4.3-.7.4-.3.8-.3t.7.3q.3.3.3.7 0 .4-.3.7-.3.3-.7.3zm9 0q-.4 0-.8-.3-.3-.3-.3-.7 0-.4.3-.7.4-.3.8-.3t.7.3q.3.3.3.7 0 .4-.3.7-.3.3-.7.3zm9 0q-.4 0-.8-.3-.3-.3-.3-.7 0-.4.3-.7.4-.3.8-.3t.7.3q.3.3.3.7 0 .4-.3.7-.3.3-.7.3zm5.7 2.6v-1h1q1.1 0 1.7-.4.5-.5.5-1.7v-1.5q0-2.3 1.5-2.8-1.6-.7-1.6-2.6v-1.3q0-2-1.7-2h-1.4v-1h1.1q3.3 0 3.3 3.2v1.3q0 1 .4 1.5.4.4 1.2.4h.4v1h-.4q-.8 0-1.2.5-.4.4-.4 1.5v1.8q.1 1.3-.3 2-.4.6-1.2 1-.9.2-2.3.2h-.6z" font-size="18" font-family="Inconsolata" fill="#1d4494"/><path d="M512.3 292.3v-14.4h4.6q2 0 3.2 1.1 1.2 1.1 1.2 3 0 1.2-.6 2.2-.6 1-1.7 1.4-1 .4-3.1.4h-1.5v6.3h-2zm4.2-12.6h-2.1v4.5h2.2q1.3 0 2-.6.6-.6.6-1.7 0-2.2-2.7-2.2zm8.4 3.1v2.2-.2q1.4-2.2 2.8-2.2 1 0 2.2 1.1l-1 1.7q-1-1-1.8-1-1 0-1.6.9-.6.9-.6 2v5h-2v-9.5h2zm10.3 0q2.1 0 3.6 1.4 1.4 1.4 1.4 3.5 0 2-1.5 3.4-1.4 1.3-3.6 1.3-2.1 0-3.6-1.3-1.4-1.4-1.4-3.5 0-2 1.5-3.4 1.4-1.4 3.6-1.4zm-.1 1.7q-1.4 0-2.2.9-.9.9-.9 2.2 0 1.4.9 2.2.9.9 2.3.9 1.3 0 2.2-.9.9-.8.9-2.2 0-1.3-1-2.2-.8-1-2.2-1zm7.9-5.6q.6 0 .9.3.3.3.3.8 0 .4-.3.7-.3.4-.8.4-.4 0-.8-.4-.3-.3-.3-.7 0-.5.3-.8.4-.3.8-.3zm-.8 4h1.9v10.7q0 2.5-2 3.5l-1.3-1.4q.6-.2 1-.8.4-.5.4-1.3v-10.8zm12.7 4.8h-6.7q.1 1.4 1 2.2.8.8 2 .8 2 0 3.5-1.2v1.8q-.9.6-1.7.9-.9.2-2 .2-1.6 0-2.5-.6-1-.7-1.6-1.8-.5-1-.5-2.5 0-2.2 1.2-3.5 1.2-1.4 3.2-1.4 1.8 0 3 1.4 1 1.3 1 3.5v.2zm-6.6-1.1h4.7q0-1.1-.7-1.7-.5-.6-1.5-.6t-1.7.6q-.6.6-.8 1.7zM564 290v1.9q-1.5.5-2.8.5-2.2 0-3.5-1.3-1.4-1.3-1.4-3.5t1.3-3.6q1.3-1.4 3.4-1.4.7 0 1.3.2.6.1 1.4.5v2q-1.4-1-2.6-1-1.2 0-2 1-.9.9-.9 2.2 0 1.5 1 2.3.8.9 2.3.9 1 0 2.4-.6zm.7-5.7l3.5-3.4v2h3v1.6h-3v4.6q0 1.7 1.4 1.7 1 0 2.1-.7v1.7q-1 .6-2.3.6-1.3 0-2.2-.7l-.4-.5-.3-.8-.1-1.7v-4.2h-1.7v-.2zm9.3-5.4q.5 0 .8.3.4.3.4.8 0 .4-.4.7-.3.4-.8.4-.4 0-.7-.4-.4-.3-.4-.7 0-.5.4-.8.3-.3.7-.3zm-.9 4h1.9v9.4h-2v-9.5zm9.1-.1q2.1 0 3.6 1.4 1.4 1.4 1.4 3.5 0 2-1.5 3.4-1.4 1.3-3.6 1.3-2.1 0-3.6-1.3-1.4-1.4-1.4-3.5 0-2 1.5-3.4 1.4-1.4 3.6-1.4zm-.1 1.7q-1.4 0-2.2.9-.9.9-.9 2.2 0 1.4.9 2.2.9.9 2.3.9 1.3 0 2.2-.9.9-.8.9-2.2 0-1.3-1-2.2-.8-1-2.2-1zm9-1.7v1.2q1.3-1.4 2.8-1.4 1 0 1.7.5t1.1 1.3q.4.7.4 2.5v5.4h-1.8v-5.4q0-1.5-.5-2-.4-.7-1.5-.7-1.3 0-2.2 1.3v6.8h-2v-9.5h2z" font-size="21" font-family="GillSans" fill="#3299cc"/><g stroke="#3299cc" stroke-width="6"><path d="M490.6 260.3l119 .1" fill="none"/><path d="M609.6 266.4l16-6-16-6z" fill="#3299cc"/></g><path d="M687.3 334.6v-14.3h3.6q2.2 0 3.5 1 1.2 1.2 1.2 3 0 1.2-.6 2.2-.6.9-1.8 1.3l1.4 1.2 1.8 2.8 1.2 1.8.8 1h-2.5l-.6-1h-.1l-.4-.7-.7-1-.6-1.1-1.2-1.4-1-.8q-.4-.2-1.4-.2h-.5v6.2h-2zM690 322h-.6v4.6h.8q1.5 0 2-.3.7-.3 1-.8.3-.5.3-1.2t-.3-1.3q-.4-.5-1-.7-.7-.3-2.2-.3zm17.8 8H701q0 1.4 1 2.2.8.8 2 .8 2 0 3.5-1.1v1.8q-.9.6-1.7.8-.9.3-2 .3-1.6 0-2.5-.7-1-.6-1.6-1.7-.5-1.1-.5-2.5 0-2.2 1.2-3.5 1.2-1.4 3.1-1.4 2 0 3 1.3 1.2 1.3 1.2 3.5v.3zm-6.6-1h4.7q0-1.2-.7-1.8-.6-.6-1.6-.6t-1.6.6q-.6.6-.8 1.8zm8.1 5v-2l1.6.8q.8.4 1.4.4.6 0 1-.3t.4-.7q0-.4-.2-.7l-1.2-.8q-1.8-1-2.4-1.7-.5-.7-.5-1.5 0-1.1.8-1.8.9-.7 2.2-.7 1.4 0 2.8.8v1.8q-1.6-1-2.7-1-.5 0-.9.3-.3.2-.3.6 0 .3.3.6l1 .7.7.4q2.4 1.3 2.4 3 0 1.1-1 1.9-.8.7-2.2.7-.9 0-1.5-.2l-1.7-.7zm14.5.6v-1.2q-.6.7-1.3 1-.8.4-1.6.4-.9 0-1.6-.5-.8-.4-1.2-1.2-.3-.7-.3-2.5v-5.4h1.8v5.4q0 1.5.5 2 .4.6 1.4.6 1.4 0 2.3-1.3v-6.7h1.9v9.4h-1.9zm4.5-14.3h2v14.3h-2v-14.3zm3.3 6.4l3.5-3.5v2h3v1.7h-3v4.6q0 1.6 1.4 1.6 1 0 2-.7v1.8q-1 .6-2.3.6-1.2 0-2-.8-.4-.2-.5-.5-.2-.2-.3-.7l-.1-1.7v-4.2h-1.7v-.2zm7.9 7.3v-2l1.6.8q.8.4 1.4.4.6 0 1-.3t.4-.7q0-.4-.3-.7l-1.1-.8q-1.8-1-2.4-1.7-.5-.7-.5-1.5 0-1.1.8-1.8t2.2-.7q1.4 0 2.8.8v1.8q-1.6-1-2.7-1-.5 0-.9.3-.3.2-.3.6 0 .3.3.6l1 .7.7.4q2.4 1.3 2.4 3 0 1.1-1 1.9-.8.7-2.3.7-.8 0-1.5-.2l-1.6-.7z" font-size="21" font-family="GillSans" fill="#3299cc"/><path d="M644 216.7h144.7V306H644z" fill="#fff"/><path d="M644 216.7h144.7V306H644zm0 44.3h144.7" stroke="#1d4494" fill="none"/><path d="M656 291.3q-1.4 0-2.2-.3-.9-.3-1.3-1t-.3-1.9v-1.8q0-1.1-.4-1.6-.4-.4-1.2-.4h-.4v-1h.4q.8 0 1.2-.5.5-.4.5-1.4V280q0-3.2 3.2-3.2h1.1v1h-1.4q-1.7 0-1.7 2v1.2q0 2-1.5 2.7 1.5.5 1.5 2.8v1.5q0 1.2.5 1.7.5.4 1.7.4h1v1h-.7zm12.6-11.1h1.2v1.4q.5-.7 1.3-1.2.7-.4 1.5-.4 1.1 0 1.8.8t.7 2.6v5h-1.3v-5q0-1.2-.4-1.7-.4-.6-1.1-.6-.6 0-1.2.3-.5.4-.9 1-.4.5-.4 1.3v4.7h-1.2v-8.2zm12.1-.2q1.7 0 2.7.9.9 1 .9 3.1v4.4h-1.4V287q-.8 1.5-2.8 1.5-1.4 0-2.2-.6-.7-.7-.7-1.7 0-.8.5-1.5.6-.6 1.5-1 1-.3 2.1-.3h1.9q-.1-1.3-.8-1.9-.6-.6-1.8-.6-.6 0-1.2.3-.6.2-1 .7l-.6-.9q1.1-1.1 2.9-1.1zm-.5 7.6q1.3 0 2.1-.8t.9-2.2q-.8-.2-1.8-.2-1.3 0-2.1.5-.8.4-.8 1.4 0 1.3 1.7 1.3zm5.8-7.4h1.2v.8q.3-.5.7-.7.5-.3 1-.3t.9.3q.4.4.5.9.2-.6.7-.9.5-.3 1.2-.3.8 0 1.2.6.4.5.3 1.5v6.3h-1.2v-5.8q0-1-.2-1.4-.1-.3-.5-.3t-.7.3l-.5.8-.1 1v5.4h-1.2v-5.7q0-1-.2-1.4-.2-.3-.7-.3l-.6.2q-.3.2-.5.7l-.1 1v5.5H686v-8.2zm13.2 8.4q-1.8 0-3-1.1-1-1.2-1-3.2 0-1.3.5-2.3.5-1 1.3-1.5.9-.5 2-.5 1.4 0 2.4 1 .9 1 .9 2.9v.6h-5.9q0 1.5.9 2.3.7.7 2 .7 1.2 0 2-.9l.8.7q-1 1.3-3 1.3zm1.8-5.1q0-1.2-.6-1.9-.6-.6-1.5-.6-1 0-1.6.6-.7.6-.8 1.9h4.5zm6.6-.7q-.4 0-.8-.3-.3-.3-.3-.7 0-.4.3-.7.3-.3.8-.3.4 0 .7.3.4.3.4.7 0 .4-.4.7-.3.3-.7.3zm0 5.8q-.5 0-.8-.3-.3-.3-.3-.7 0-.5.3-.8.3-.3.8-.3.4 0 .7.3.4.3.4.8 0 .4-.4.7-.3.3-.7.3zm17.6-12.2v2.3l-.2 1.5-.1.9h-.9l-.1-.9-.1-1.5v-2.3h1.4zm2.7 0v2.3l-.2 1.5-.1.9h-.9l-.1-.9-.1-1.5v-2.3h1.4zm7.1 12.2q-.7 0-1.3-.3-.6-.4-1-1l-.5 1h-.8v-11.9h1.4v.4l-.1.4v4.2q.4-.6 1-1 .7-.4 1.4-.4 1.6 0 2.5 1 1 1.1 1 3.2 0 1.4-.6 2.4-.5 1-1.2 1.5-.8.5-1.7.5zm0-1.2q.9 0 1.5-.7.7-.8.7-2.4 0-1.6-.6-2.4-.6-.8-1.6-.8t-1.7.9q-.6.9-.6 2.3 0 3.1 2.2 3.1zm8.8 1.1q-1.1 0-2-.5-.8-.5-1.3-1.5t-.5-2.2q0-1.3.5-2.2.5-1 1.3-1.6.9-.5 2-.5 1 0 2 .5.8.6 1.3 1.6t.5 2.2q0 1.2-.5 2.2-.5 1-1.3 1.5-1 .5-2 .5zm0-1q.7 0 1.2-.5.6-.4.9-1 .3-.8.3-1.7 0-1.5-.7-2.3-.6-1-1.7-1-1 0-1.8 1-.6.8-.6 2.3 0 .9.3 1.6.3.7.8 1.1.6.5 1.3.5zm9.2 1.1q-.7 0-1.3-.3-.6-.4-1-1l-.5 1h-.8v-11.9h1.4v.4l-.1.4v4.2q.4-.6 1-1 .7-.4 1.4-.4 1.6 0 2.5 1 1 1.1 1 3.2 0 1.4-.6 2.4-.5 1-1.2 1.5-.8.5-1.7.5zm0-1.2q.9 0 1.5-.7.7-.8.7-2.4 0-1.6-.6-2.4-.6-.8-1.6-.8t-1.7.9q-.6.9-.6 2.3 0 3.1 2.2 3.1zm8.2-11v2.3l-.2 1.5-.1.9h-.9l-.1-.9-.1-1.5v-2.3h1.4zm2.7 0v2.3l-.2 1.5-.1.9h-.9l-.1-.9-.1-1.5v-2.3h1.4zm12.4 14.9v-1h.9q1.2 0 1.7-.5.6-.5.6-1.7v-1.5q0-2.3 1.4-2.8-1.5-.7-1.5-2.7V280q0-2-1.7-2h-1.4v-1h1.1q3.3 0 3.3 3.2v1.3q0 1 .4 1.4.4.5 1.2.5h.4v1h-.4q-.8 0-1.2.4-.4.5-.4 1.6v1.8q.1 1.2-.3 2-.4.6-1.3.9-.8.3-2.2.3h-.6zM656.1 247q-1.4 0-2.2-.2-.9-.3-1.3-1-.4-.6-.3-1.9v-1.8q0-1-.3-1.5-.4-.5-1.3-.5h-.3v-1h.3q.9 0 1.3-.4.4-.5.4-1.5v-1.3q0-3.1 3.2-3.1h1.2v1h-1.5q-1.7 0-1.7 1.9v1.3q0 2-1.5 2.6 1.5.5 1.5 2.8v1.5q0 1.2.5 1.7t1.7.5h1v1h-.7zm12.6-11h1.3v1.5q.5-.8 1.2-1.2.7-.5 1.6-.5 1 0 1.7.8.7.9.7 2.6v5h-1.3v-5q0-1.1-.4-1.7-.4-.6-1-.6t-1.2.4q-.6.3-1 .9-.3.6-.3 1.3v4.7h-1.3V236zm12.1-.2q1.8 0 2.7 1 1 .9 1 3v4.4H683V243q-.7 1.4-2.8 1.4-1.3 0-2.1-.6t-.8-1.6q0-1 .6-1.6.5-.6 1.5-1 1-.3 2-.3l2 .1q-.2-1.4-.8-2-.6-.5-1.9-.5l-1.2.2-1 .7-.6-.8q1.1-1.2 3-1.2zm-.4 7.6q1.3 0 2-.7.8-.8 1-2.3l-1.8-.1q-1.4 0-2.2.4-.8.5-.8 1.4 0 1.3 1.8 1.3zm5.7-7.4h1.2v.8l.7-.7q.5-.3 1-.3t1 .3q.3.4.4 1 .3-.6.8-1 .5-.3 1-.3.9 0 1.3.6t.4 1.5v6.3h-1.2v-5.8q0-1-.2-1.3-.2-.3-.6-.3-.3 0-.6.3l-.5.8q-.2.4-.2.9v5.4h-1.2v-5.7q0-1-.2-1.3-.2-.4-.7-.4l-.6.2-.4.7-.2 1v5.5h-1.2V236zm13.2 8.4q-1.8 0-3-1.1-1-1.1-1-3.2 0-1.3.5-2.3.5-1 1.4-1.5.8-.5 1.9-.5 1.5 0 2.4 1 1 1 1 3l-.1.5h-5.8q0 1.5.8 2.3.8.8 2 .8 1.3 0 2-1l.8.7q-1 1.3-2.9 1.3zm1.8-5.1q0-1.2-.6-1.8-.5-.7-1.5-.7-.9 0-1.6.6-.6.7-.8 1.9h4.5zm6.6-.6q-.4 0-.7-.3-.3-.3-.3-.7 0-.5.3-.8.3-.3.7-.3.4 0 .8.3.3.3.3.8 0 .4-.3.7-.4.3-.8.3zm0 5.7q-.4 0-.7-.3-.3-.3-.3-.7 0-.4.3-.7.3-.3.7-.3.4 0 .8.3.3.3.3.7 0 .4-.3.7-.3.3-.8.3zm17.6-12.1v2.2l-.2 1.5v.9h-1v-.9l-.2-1.5v-2.2h1.4zm2.7 0v2.2l-.2 1.5v.9h-1v-.9l-.2-1.5v-2.2h1.4zm6.8 3.5q1.8 0 2.7 1 1 .9 1 3v4.4H737V243q-.7 1.4-2.8 1.4-1.3 0-2.1-.6t-.8-1.6q0-1 .6-1.6.5-.6 1.5-1 1-.3 2-.3l2 .1q-.2-1.4-.8-2-.6-.5-1.9-.5l-1.2.2-1 .7-.6-.8q1.1-1.2 3-1.2zm-.4 7.6q1.3 0 2-.7.8-.8 1-2.3l-1.8-.1q-1.4 0-2.2.4-.8.5-.8 1.4 0 1.3 1.8 1.3zm6.5.8v-1h2.4v-9.9H741v-1h3.6v10.9h2.4v1h-6zm11.4-11.9v2.2l-.2 1.5v.9h-1v-.9l-.2-1.5v-2.2h1.4zm2.7 0v2.2l-.2 1.5v.9h-1v-.9l-.2-1.5v-2.2h1.4zm12.4 14.7v-1h1q1.2 0 1.7-.4.5-.5.5-1.7v-1.5q0-2.3 1.5-2.8-1.6-.7-1.6-2.6v-1.3q0-2-1.6-2h-1.5v-1h1.1q3.3 0 3.3 3.2v1.3q0 1 .4 1.5.4.4 1.3.4h.3v1h-.4q-.8 0-1.2.5-.4.4-.4 1.5v1.8q.1 1.3-.3 2-.4.6-1.2 1-.9.2-2.2.2h-.7z" font-size="18" font-family="Inconsolata" fill="#1d4494"/><path d="M18.4 59.7q-1.5 0-3-.9-1.3-.9-2.2-2.6-.8-1.8-.8-4.3t.9-4.2q.9-1.7 2.3-2.5t3-.8q1.4 0 2.5.6 1.1.7 1.7 1.9V38h2.4v.2l-.2.4v19.8q0 .4.3 1H23l-.3-1V57q-.7 1.2-1.8 2-1.1.6-2.5.6zm.4-2q2 0 2.9-1.6 1-1.6 1-4.1 0-2.6-1.1-4.2-1-1.6-3-1.6t-3 1.5q-1 1.4-1 3.9 0 2.8 1 4.4 1.2 1.7 3.2 1.7zm16.6 2q-1.3 0-2.4-.6-1.1-.6-1.9-1.7l-.8 2H29V38h2.6v.2l-.3.4V47q.7-1.2 1.9-2 1.2-.6 2.4-.6 2.8 0 4.4 1.9 1.7 2 1.7 5.6 0 2.5-.9 4.3-.9 1.8-2.3 2.6-1.4 1-3 1zm-.2-2q1.7 0 2.8-1.4 1.2-1.4 1.2-4.3 0-2.8-1.1-4.2-1-1.4-2.9-1.4-1.8 0-2.9 1.6-1.1 1.6-1.1 4 0 5.7 4 5.7zm15.4 2q-.8 0-1.4-.5-.5-.6-.5-1.3 0-.7.5-1.3.6-.5 1.4-.5.7 0 1.2.5.6.6.6 1.3 0 .7-.6 1.3-.5.5-1.2.5zm15.4 0q-2.3 0-3.7-1.7-1.3-1.7-1.3-5v-8.2h2.3V53q0 2.6.9 3.8.9 1.2 2.4 1.2 1.6 0 2.8-1.3 1.1-1.3 1.1-3.8v-8h2.3v13.4q0 .4.3 1h-2.2q-.3-.5-.3-1V57q-.8 1.2-2 2-1.2.6-2.6.6zm18-8.9q2.7.8 3.9 1.8 1.1 1 1.1 2.5 0 2-1.6 3.3-1.5 1.3-4.4 1.3-3.7 0-6.2-2.3l1.2-2.2h.1q1 1.3 2 2 1.1.6 3 .6 1.7 0 2.7-.6 1-.7 1-1.8 0-.9-.9-1.5-.8-.6-2.8-1.3-5.5-1.6-5.5-4.5 0-1.7 1.3-2.7 1.4-1 4-1 2 0 3.4.6 1.3.5 2.5 1.7l-1.4 1.6q-.7-1-1.9-1.6-1.2-.6-2.5-.6-1.4 0-2.3.5-.8.5-.8 1.3t.9 1.5q.9.7 3.2 1.4zm3-2.4q0-.2.3 0v.1l-.2-.1zm.4 0q.1 0 0 0 0 .1 0 0zm-9 6.7h-.3l.1-.2.2.1zm-.3 0q-.1 0 0 0zm21.5 4.6q-3.2 0-5.2-2-1.9-2-1.9-5.6 0-2.4.9-4.1.9-1.8 2.4-2.7 1.5-1 3.4-1 2.7 0 4.3 1.8 1.7 1.8 1.7 5.2v1H94.6q.1 2.8 1.5 4.1 1.4 1.4 3.5 1.4 2.3 0 3.8-1.6l1.3 1.2q-1.9 2.3-5.2 2.3zm3.2-9.1q0-2-1-3.2-1-1.3-2.7-1.3-1.6 0-2.8 1.2-1.2 1-1.5 3.3h8zm17.8-2.8q-1-.9-1.6-1.1-.6-.3-1.4-.3-1.2 0-2.2.5-1 .6-1.7 1.8-.6 1.2-.6 3v7.7h-2.4V44.7h2.4v2.7q.6-1.4 1.8-2.2 1.3-.8 2.8-.8 2.4 0 3.9 1.6l-1 1.8zm0 0q.2.2 0 .2l-.1-.1zm-.4.1h.3v.2l-.3-.2zm11.8 2.9q2.7.8 3.9 1.8 1.1 1 1.1 2.5 0 2-1.6 3.3-1.5 1.3-4.4 1.3-3.7 0-6.2-2.3l1.2-2.2h.1q1 1.3 2 2 1.1.6 3 .6 1.7 0 2.7-.6 1-.7 1-1.8 0-.9-.9-1.5-.8-.6-2.8-1.3-5.5-1.6-5.5-4.5 0-1.7 1.3-2.7 1.4-1 4-1 2 0 3.4.6 1.3.5 2.5 1.7l-1.4 1.6q-.7-1-1.9-1.6-1.2-.6-2.5-.6-1.4 0-2.3.5-.8.5-.8 1.3t.9 1.5q.9.7 3.2 1.4zm3-2.4q0-.2.3 0v.1l-.2-.1zm.4 0q.1 0 0 0 0 .1 0 0zm-9 6.7h-.3l.1-.2.2.1zm-.3 0q-.1 0 0 0zm20.5 4.6q-.8 0-1.4-.5-.5-.6-.5-1.3 0-.7.5-1.3.6-.5 1.4-.5.7 0 1.2.5.6.6.6 1.3 0 .7-.6 1.3-.5.5-1.2.5zm22.3-18.1l-1.6-1.5q-.6-.4-1.7-.4-1.5 0-2.4 1-.9.8-.9 2.8v1.2h4.8v1.9h-4.8v12.8h-2.2V46.6H157v-1.9h3.1v-1.2q0-2.8 1.5-4.2 1.4-1.4 3.9-1.4 1.4 0 2.6.5 1.2.5 2 1.5l-1.2 1.7zm-.4.1q0-.1.1 0h.2l-.1.2-.2-.2zm.3 0q.2.2 0 .1v-.2zm5.3 17.7v-1.9h3.8v-11h-3.6v-1.8h5.9v12.8h3.4v1.9h-9.5zm4.8-17.7q-.7 0-1.1-.5-.5-.5-.5-1.2t.4-1.2q.5-.4 1.2-.4t1.2.5q.5.5.5 1.1 0 .7-.5 1.2t-1.2.5zm10.3 3h2.3v2.6q.8-1.3 2.2-2.1 1.3-.8 2.7-.8 2 0 3.1 1.5 1.2 1.5 1.2 4.6v8.9h-2.2v-8.8q0-2.2-.7-3.2-.8-1-2-1-1 0-2 .6t-1.7 1.6q-.6 1-.6 2.3v8.5h-2.3V44.7zm21.2 15q-1.5 0-3-.9-1.3-.9-2.2-2.6-.8-1.8-.8-4.3t.9-4.2q.9-1.7 2.3-2.5t3-.8q1.4 0 2.5.6 1.1.7 1.7 1.9V38h2.4v.2l-.2.4v19.8q0 .4.3 1H215l-.3-1V57q-.7 1.2-1.8 2-1.1.6-2.5.6zm.4-2q2 0 2.9-1.6 1-1.6 1-4.1 0-2.6-1.1-4.2-1-1.6-3-1.6t-3 1.5q-1 1.4-1 3.9 0 2.8 1 4.4 1.2 1.7 3.2 1.7zm20.8 7.3q-2.6-1.3-4.6-3.4-2-2.1-3.1-4.8-1-2.6-1-5.4 0-2.9 1-5.4 1-2.6 3-4.7 2-2 4.5-3.2l.6 2q-3.1 1.7-5 4.7-1.9 3.1-1.9 6.7 0 3.5 2 6.7 1.9 3.1 5 4.8l-.5 2zm31.2-.6q-2.4 0-4-.4-1.4-.5-2.2-1.7-.7-1.2-.6-3.5l.2-3.2q0-2-.8-2.7-.7-.8-2.1-.8h-.7v-1.8h.6q1.5 0 2.3-.8.7-.9.7-2.7v-2.3q0-5.5 5.8-5.5h2v1.8h-2.6q-3 0-3 3.4v2.2q0 3.6-2.7 4.8 2.7.9 2.7 5l-.1 2.6q0 2.2 1 3 .9.9 3 .9h1.7v1.7h-1.2zm27.9-20q3.2 0 4.8 1.6 1.7 1.7 1.7 5.6v7.8h-2.5V57q-1.4 2.6-5 2.6-2.4 0-3.8-1-1.4-1.2-1.4-3 0-1.6 1-2.7 1-1.2 2.7-1.8 1.6-.6 3.7-.6 1.8 0 3.3.2-.2-2.5-1.4-3.5-1-1-3.2-1-1.1 0-2.1.4t-1.9 1.2l-1-1.4q2-2 5.1-2zM290 58q2.4 0 3.8-1.4 1.3-1.4 1.5-4-1.5-.3-3.1-.3-2.5 0-3.9.8t-1.4 2.5q0 2.4 3.1 2.4zm24.1-11.8h-.8q-1.5 0-2.6.7.6 1 .6 2.4t-.7 2.6q-.6 1.2-1.7 1.8-1.2.7-2.7.7-1.2 0-2.3-.4-.6.7-.6 1.3 0 .8 1 1.1 1 .3 3.5.3 3.1 0 4.2 1 1.2 1 1.2 2.7 0 2-1.6 3.2-1.5 1.3-4.8 1.3-3.1 0-4.9-1-1.7-1-1.7-2.8 0-1.2.6-2t1.6-1.3q-1-.7-1-2 0-1.2 1.3-2.6-.8-.8-1.2-1.7-.5-1-.5-2.2 0-1.4.7-2.6.6-1.2 1.7-1.8 1.2-.7 2.8-.7 2.3 0 3.7 1.5.8-.7 1.6-1 .8-.4 1.8-.4h.5l.3 2zm-8 6.3q1.4 0 2.3-1 1-.9 1-2.2 0-1.4-1-2.3-.9-1-2.2-1-1.4 0-2.3 1-1 1-1 2.3 0 1.3 1 2.3.9.9 2.3.9zm5 8.3q0-.8-.3-1.2-.3-.4-1-.6-.9-.2-2.5-.2-2.3 0-3.7-.5-.7.5-1 1-.3.6-.3 1.5 0 1.1 1.2 1.7 1.2.6 3.4.6 2 0 3.1-.6 1-.6 1-1.7zm12.5-1.1q-3.2 0-5.2-2-1.9-2-1.9-5.6 0-2.4.9-4.1.9-1.8 2.4-2.7 1.5-1 3.4-1 2.7 0 4.3 1.8 1.7 1.8 1.7 5.2v1h-10.5q.1 2.8 1.5 4.1 1.4 1.4 3.5 1.4 2.3 0 3.8-1.6l1.3 1.2q-1.9 2.3-5.2 2.3zm3.2-9.1q0-2-1-3.2-1-1.3-2.7-1.3-1.6 0-2.8 1.2-1.2 1-1.5 3.3h8zm11.8-1.1q-.8 0-1.4-.5-.5-.6-.5-1.3 0-.8.5-1.3.6-.6 1.4-.6.7 0 1.3.6.6.5.6 1.3 0 .7-.6 1.3-.6.5-1.3.5zm0 10.2q-.8 0-1.4-.5-.5-.5-.5-1.3t.5-1.3q.6-.6 1.4-.6.7 0 1.3.6.6.5.6 1.3 0 .7-.6 1.3-.5.5-1.3.5zm31.7-.3V42.2l-4 1.2-.5-1.3 5.2-2.7h1.5v20h-2.2zm16.7.3q-1.9 0-3.3-.7t-2.1-2q-.7-1.2-.7-2.7 0-1.7 1-3.2 1.1-1.5 3-2.3-1.4-.7-2.3-2-.8-1.3-.8-2.7 0-2.1 1.4-3.5t3.9-1.4q2.6 0 4 1.3 1.3 1.3 1.3 3.4 0 1.4-.9 2.8-.9 1.2-2.3 2 1.7.8 2.8 2.3 1 1.5 1 3.2 0 1.5-.7 2.8-.8 1.2-2.2 2-1.3.7-3.2.7zm.5-11.8q1.2-.7 2-1.7.7-1.1.7-2.2 0-1.2-.8-2-.9-1-2.4-1t-2.3.9q-.7.8-.7 2 0 1.3.8 2.2.9.8 2.7 1.8zm-.5 9.8q1.8 0 2.8-1 1-1 1-2.5t-1.2-2.7q-1.1-1.2-3-1.8-1.6.6-2.5 1.8-1 1.2-1 2.6 0 1.5 1 2.5 1.1 1 2.9 1zm25.7 6.7v-1.7h1.6q2.2 0 3.1-1 1-.7 1-2.9l-.1-2.7q0-4 2.7-5-2.8-1.1-2.8-4.7v-2.2q0-3.4-3-3.4h-2.5V39h2q5.8 0 5.8 5.5v2.3q0 1.8.7 2.7.7.8 2.2.8h.6V52h-.6q-1.5 0-2.2.8-.7.7-.7 2.7l.1 3.2q.1 2.3-.6 3.5-.7 1.2-2.2 1.7-1.5.4-4 .4h-1.1zm19.5-.6q1-.9 1.5-1.8.6-1 .6-1.6 0-.3-.2-.5l-.5-.5-.7-.7q-.2-.3-.2-.7 0-.8.5-1.4.5-.5 1.4-.5.8 0 1.5.7.6.8.6 2 0 2.4-3.4 6l-1-1zm38.6.6q-2.4 0-4-.4-1.4-.5-2.2-1.7-.7-1.2-.6-3.5l.2-3.2q0-2-.8-2.7-.7-.8-2.1-.8h-.7v-1.8h.6q1.5 0 2.3-.8.7-.9.7-2.7v-2.3q0-5.5 5.8-5.5h2v1.8h-2.6q-3 0-3 3.4v2.2q0 3.6-2.7 4.8 2.7.9 2.7 5l-.1 2.6q0 2.2 1 3 .9.9 3 .9h1.7v1.7h-1.2zm22.4-19.7h2.3v2.6q.8-1.3 2.2-2.1 1.3-.8 2.7-.8 2 0 3.1 1.5 1.2 1.5 1.2 4.6v8.9h-2.2v-8.8q0-2.2-.7-3.2-.8-1-2-1-1 0-2 .6t-1.7 1.6q-.6 1-.6 2.3v8.5h-2.3V44.7zm21.5-.3q3.2 0 4.8 1.6 1.7 1.7 1.7 5.6v7.8h-2.5V57q-1.4 2.6-5 2.6-2.4 0-3.8-1-1.4-1.2-1.4-3 0-1.6 1-2.7 1-1.2 2.7-1.8 1.6-.6 3.7-.6 1.8 0 3.3.2-.2-2.5-1.4-3.5-1-1-3.2-1-1.1 0-2.1.4t-1.9 1.2l-1-1.4q2-2 5.1-2zM514 58q2.4 0 3.8-1.4 1.3-1.4 1.5-4-1.5-.3-3.1-.3-2.5 0-3.9.8t-1.4 2.5q0 2.4 3.1 2.4zm10.2-13.3h2v1.5q.6-.8 1.4-1.3.8-.5 1.6-.5 1 0 1.7.6t1 1.5q.3-1 1.2-1.5 1-.6 2-.6 1.5 0 2.2 1 .7 1 .6 2.7v11.3h-2V49q0-1.8-.4-2.4-.4-.5-1-.5t-1.2.5l-.9 1.4q-.3.9-.3 1.7v9.7H530V49.2q0-1.8-.4-2.4-.3-.7-1.2-.7-.5 0-1 .5-.5.4-.8 1.2-.3.8-.3 1.8v9.8h-2.1V44.7zm23.4 15q-3.2 0-5.2-2-1.9-2-1.9-5.6 0-2.4.9-4.1.9-1.8 2.4-2.7 1.5-1 3.4-1 2.7 0 4.3 1.8 1.7 1.8 1.7 5.2v1h-10.5q.1 2.8 1.5 4.1 1.4 1.4 3.5 1.4 2.3 0 3.8-1.6l1.3 1.2q-1.9 2.3-5.2 2.3zm3.2-9.1q0-2-1-3.2-1-1.3-2.7-1.3-1.6 0-2.8 1.2-1.2 1-1.5 3.3h8zm11.8-1.1q-.8 0-1.4-.5-.5-.6-.5-1.3 0-.8.5-1.3.6-.6 1.4-.6.7 0 1.3.6.6.5.6 1.3 0 .7-.6 1.3-.6.5-1.3.5zm0 10.2q-.8 0-1.4-.5-.5-.5-.5-1.3t.5-1.3q.6-.6 1.4-.6.7 0 1.3.6.6.5.6 1.3 0 .7-.6 1.3-.5.5-1.3.5zm31.7-.3V42.2l-4 1.2-.5-1.3 5.2-2.7h1.5v20h-2.2zm13.9 4.4q1-.9 1.5-1.8.6-1 .6-1.6 0-.3-.2-.5l-.5-.5-.7-.7q-.2-.3-.2-.7 0-.8.5-1.4.5-.5 1.4-.5.8 0 1.5.7.6.8.6 2 0 2.4-3.4 6l-1-1zM636 62v-2h13.8v2h-13.7zm18.1-2.6v-1.9h3.8v-11h-3.6v-1.8h5.9v12.8h3.4v1.9h-9.5zm4.8-17.7q-.7 0-1.1-.5-.5-.5-.5-1.2t.4-1.2q.5-.4 1.2-.4t1.2.5q.5.5.5 1.1 0 .7-.5 1.2t-1.2.5zm15.5 18q-1.5 0-3-.9-1.3-.9-2.2-2.6-.8-1.8-.8-4.3t.9-4.2q.9-1.7 2.3-2.5t3-.8q1.4 0 2.5.6 1.1.7 1.7 1.9V38h2.4v.2l-.2.4v19.8q0 .4.3 1H679l-.3-1V57q-.7 1.2-1.8 2-1.1.6-2.5.6zm.4-2q2 0 2.9-1.6 1-1.6 1-4.1 0-2.6-1.1-4.2-1-1.6-3-1.6t-3 1.5q-1 1.4-1 3.9 0 2.8 1 4.4 1.2 1.7 3.2 1.7zm15.8-8.2q-.8 0-1.4-.5-.5-.6-.5-1.3 0-.8.5-1.3.6-.6 1.4-.6.7 0 1.3.6.6.5.6 1.3 0 .7-.6 1.3-.6.5-1.3.5zm0 10.2q-.8 0-1.4-.5-.5-.5-.5-1.3t.5-1.3q.6-.6 1.4-.6.7 0 1.3.6.6.5.6 1.3 0 .7-.6 1.3-.5.5-1.3.5zM723 39.3q2.9 0 4.5 2.7t1.6 7.5q0 4.9-1.6 7.6-1.6 2.6-4.6 2.6-3 0-4.5-2.6-1.6-2.7-1.6-7.6 0-4.8 1.6-7.5t4.5-2.7zm0 2q-1.9 0-3 2.2-1 2.2-1 6 0 2 .4 3.7l6.7-8.8q-.4-1.5-1.3-2.3-.8-.9-1.9-.9zm0 16.5q1.8 0 2.8-2.2 1-2.1 1-6.1 0-1.9-.2-3.2l-6.8 8.6q1 2.9 3.1 2.9zm25.7 6.6v-1.7h1.6q2.2 0 3.1-1 1-.7 1-2.9l-.1-2.7q0-4 2.7-5-2.8-1.1-2.8-4.7v-2.2q0-3.4-3-3.4h-2.5V39h2q5.8 0 5.8 5.5v2.3q0 1.8.7 2.7.7.8 2.2.8h.6V52h-.6q-1.5 0-2.2.8-.7.7-.7 2.7l.1 3.2q.1 2.3-.6 3.5-.7 1.2-2.2 1.7-1.5.4-4 .4h-1.1zm33.9-1.4q3.2-1.7 5.1-4.8 2-3.2 2-6.7 0-3.6-2-6.7-1.8-3-5-4.7l.7-2q2.5 1.2 4.5 3.2t3 4.7q1 2.5 1 5.4 0 2.8-1 5.4-1.1 2.7-3.1 4.8-2 2.1-4.6 3.3l-.6-1.9z" font-size="32" font-family="Inconsolata" fill="#1d4495"/><path d="M69.3 23v2.3Q67 26.5 64 26.5q-2.4 0-4.1-1-1.7-.9-2.6-2.6-1-1.7-1-3.7 0-3 2.2-5.2t5.5-2.2q2.3 0 5 1.2v2.2q-2.5-1.4-4.9-1.4-2.4 0-4 1.6-1.7 1.5-1.7 3.8 0 2.4 1.6 4 1.6 1.4 4.1 1.4 2.6 0 5-1.6zm6.7-6.1q2.2 0 3.7 1.4 1.4 1.4 1.4 3.5 0 2-1.5 3.4-1.4 1.3-3.6 1.3-2.1 0-3.5-1.3-1.5-1.4-1.5-3.5 0-2 1.5-3.4 1.4-1.4 3.6-1.4zm0 1.7q-1.4 0-2.2.9-.9.9-.9 2.2 0 1.4.9 2.2.9.9 2.3.9 1.3 0 2.2-.9.9-.9.9-2.2 0-1.3-1-2.2-.8-1-2.2-1zm7.2-6.6H85v14.4h-1.8V12zm4.6 0h1.9v14.4h-1.9V12zm12.6 9.8h-6.6q0 1.4 1 2.2.8.8 2 .8 2 0 3.5-1.2v1.8q-.9.6-1.7.9-.9.2-2 .2-1.6 0-2.5-.6-1-.7-1.6-1.8-.6-1-.6-2.5 0-2.2 1.3-3.5 1.2-1.4 3.1-1.4 2 0 3 1.4 1.1 1.3 1.1 3.5v.2zM94 20.7h4.7q0-1.1-.7-1.7-.6-.6-1.6-.6t-1.6.6q-.7.6-.8 1.7zm15.5 3.5V26q-1.4.5-2.7.5-2.2 0-3.6-1.3-1.3-1.3-1.3-3.5t1.3-3.6q1.3-1.4 3.4-1.4.7 0 1.3.2.6.1 1.4.5v2q-1.4-1-2.6-1-1.3 0-2 1-.9.9-.9 2.2 0 1.5.9 2.3.9.9 2.4.9 1 0 2.4-.6zm.8-5.8l3.5-3.4v2h3v1.6h-3v4.6q0 1.7 1.4 1.7 1 0 2-.7v1.7q-1 .6-2.3.6-1.2 0-2-.7l-.5-.5-.3-.8-.1-1.7v-4.2h-1.7v-.2zm9.3-5.4q.5 0 .8.3.3.3.3.8 0 .4-.3.7-.3.4-.8.4-.4 0-.7-.4-.4-.3-.4-.7 0-.5.4-.8.3-.3.7-.3zm-.9 4h1.9v9.4h-1.9v-9.5zm9.1-.1q2.1 0 3.5 1.4 1.5 1.4 1.5 3.5 0 2-1.5 3.4-1.4 1.3-3.6 1.3-2.1 0-3.6-1.3-1.4-1.4-1.4-3.5 0-2 1.4-3.4 1.5-1.4 3.7-1.4zm-.1 1.7q-1.4 0-2.2.9-1 .9-1 2.2 0 1.4 1 2.2.9.9 2.2.9 1.4 0 2.3-.9.9-.9.9-2.2 0-1.3-1-2.2-.9-1-2.2-1zm9-1.6v1q1.2-1.4 2.8-1.4.9 0 1.7.5.7.5 1.1 1.3.4.7.4 2.5v5.4h-1.9V21q0-1.5-.4-2-.4-.7-1.5-.7-1.3 0-2.2 1.3v6.8h-2v-9.5h2zm134.5 9.2l-2 2q-1 0-2-.4-1-.2-2.2-.8l-2.8-1.7q-2.7-.5-4.4-2.5-1.7-2-1.7-4.6 0-3.2 2.2-5.3 2.2-2.1 5.6-2.1 3.3 0 5.5 2 2.2 2.1 2.2 5.3 0 2.7-1.7 4.7-1.6 2-4.3 2.5l.6.2q2.5 1 3.6 1 .6 0 1.4-.3zM264 12.7q-2.5 0-4 1.6-1.6 1.5-1.6 3.9 0 2.3 1.6 3.8 1.6 1.6 4 1.6 2.3 0 4-1.6 1.6-1.6 1.6-3.9t-1.6-3.8q-1.6-1.6-4-1.6zm15.8 12.6V24q-.6.6-1.3 1-.8.4-1.6.4-.9 0-1.6-.5-.8-.4-1.1-1.2-.4-.8-.4-2.5v-5.4h1.8v5.3q0 1.5.5 2.1.4.6 1.5.6 1.3 0 2.2-1.3V16h1.9v9.4h-1.9zm12.6-4.6h-6.7q0 1.4 1 2.2.8.8 2 .8 2 0 3.5-1.2v1.9l-1.7.8q-.9.2-2 .2-1.6 0-2.5-.6-1-.7-1.6-1.7-.5-1.1-.5-2.6 0-2.1 1.2-3.5 1.2-1.3 3.1-1.3 2 0 3 1.3 1.2 1.3 1.2 3.5v.2zm-6.6-1h4.7q0-1.2-.7-1.8-.6-.6-1.6-.6t-1.6.6q-.6.6-.8 1.7zm10.6-3.8V18q1.4-2.2 2.8-2.2 1 0 2.2 1l-1 1.7q-1-1-1.8-1-1 0-1.6 1-.6.8-.6 2v4.9h-2V16h2zm12.6 0h2.2L304.5 30h-2l3.1-6.8-3.6-7.4h2.1l2.5 5.3 2.5-5.3zm22 6.1v2.2q-2.3 1.3-5.3 1.3-2.4 0-4-1-1.7-1-2.7-2.7-1-1.7-1-3.6 0-3.1 2.2-5.3 2.3-2.1 5.5-2.1 2.3 0 5 1.2v2.2q-2.4-1.5-4.8-1.5-2.5 0-4.1 1.6-1.7 1.5-1.7 3.9 0 2.3 1.6 3.9 1.6 1.5 4.1 1.5 2.6 0 5.1-1.6zm4.2-6.1V18l.1-.1q1.4-2.2 2.7-2.2 1 0 2.2 1l-1 1.7q-1-1-1.8-1-.9 0-1.5 1-.7.8-.7 2v4.9h-1.9v-9.4h1.9zm7.3-4q.5 0 .8.3.3.3.3.8 0 .4-.3.8-.3.3-.8.3-.4 0-.8-.3-.3-.4-.3-.8t.3-.8q.4-.3.8-.3zm-1 4h2v9.4h-2v-9.4zm3.3 1.5l3.5-3.5v2h3v1.6h-3v4.7q0 1.6 1.4 1.6 1 0 2-.7V25q-1 .6-2.3.6-1.3 0-2.1-.8-.3-.2-.4-.5l-.3-.7q-.2-.5-.2-1.8v-4.2h-1.6v-.1zm16.4 3.3h-6.7q.1 1.4 1 2.2.8.8 2.1.8 1.9 0 3.4-1.2v1.9q-.8.5-1.7.8-.8.2-2 .2-1.5 0-2.5-.6-1-.7-1.5-1.7-.6-1.1-.6-2.6 0-2.1 1.2-3.5 1.2-1.3 3.2-1.3 1.8 0 3 1.3 1 1.3 1 3.5v.2zm-6.6-1h4.7q0-1.2-.6-1.8-.6-.6-1.6-.6t-1.7.6q-.6.6-.8 1.7zm10.6-3.8V18q1.4-2.2 2.8-2.2 1 0 2.2 1l-1 1.7q-1-1-1.8-1-.9 0-1.6 1-.6.8-.6 2v4.9h-1.9V16h1.9zm7.3-4q.4 0 .8.3.3.3.3.8 0 .4-.3.8-.4.3-.8.3-.5 0-.8-.3-.3-.4-.3-.8t.3-.8q.3-.3.8-.3zm-1 4h2v9.4h-2v-9.4zm10.5 3.7v4q0 .5.4.5.3 0 1-.5v1.2l-1 .5-.8.2q-1.2 0-1.4-1-1.2 1-2.6 1-1 0-1.6-.7-.7-.7-.7-1.6 0-1 .7-1.6.6-.7 1.8-1.2l2.4-.8v-.5q0-1.7-1.7-1.7-1.5 0-3 1.6v-2q1.1-1.3 3.1-1.3 1.6 0 2.5.8l.6.7.3.8v1.6zm-1.8 3.8v-2.8l-1.3.5q-1 .4-1.3.8-.4.4-.4 1 0 .5.4.9t1 .4q.8 0 1.6-.8zm189.2.8V10h4.6q2 0 3.3 1 1.2 1.2 1.2 3 0 1.3-.6 2.3-.7 1-1.8 1.4-1 .4-3 .4h-1.6v6.2h-2zm4.2-12.5h-2.1v4.5h2.2q1.3 0 2-.6t.7-1.7q0-2.2-2.8-2.2zm8.4 3.1V17l.1-.2q1.4-2.2 2.7-2.2 1 0 2.2 1l-1 1.7q-1-.9-1.8-.9-.9 0-1.5.9-.7.8-.7 2v5h-1.9v-9.5h1.9zm10.3 0q2.2 0 3.6 1.4t1.4 3.5q0 2-1.4 3.4-1.5 1.3-3.7 1.3-2.1 0-3.5-1.4-1.4-1.3-1.4-3.4 0-2 1.4-3.4t3.6-1.4zm0 1.7q-1.4 0-2.3.8-.9 1-.9 2.3 0 1.3 1 2.2.8.9 2.2.9 1.4 0 2.2-1 1-.8 1-2.1 0-1.4-1-2.3-1-.8-2.3-.8zm7.9-5.7q.5 0 .8.4.3.3.3.7 0 .5-.3.8-.3.3-.8.3-.4 0-.7-.3-.4-.3-.4-.8 0-.4.4-.7.3-.4.7-.4zm-.9 4h2v10.8q0 2.4-2 3.4l-1.4-1.3q.7-.2 1-.8.4-.6.4-1.3V14.8zm12.7 4.9h-6.6q0 1.3.9 2.1.8.8 2.1.8 1.9 0 3.4-1.1v1.8q-.8.6-1.7.8-.8.3-2 .3-1.5 0-2.5-.7-1-.6-1.5-1.7-.6-1.1-.6-2.5 0-2.2 1.2-3.5 1.2-1.4 3.2-1.4 1.9 0 3 1.3t1.1 3.5v.3zm-6.6-1.1h4.8q-.1-1.2-.7-1.8-.6-.6-1.6-.6t-1.7.6q-.6.6-.8 1.8zM621 22v2q-1.3.5-2.7.5-2.2 0-3.5-1.3-1.3-1.3-1.3-3.5 0-2.3 1.3-3.6 1.2-1.4 3.3-1.4.8 0 1.3.2.6 0 1.5.5v2q-1.4-1-2.6-1-1.3 0-2.1 1-.8.8-.8 2.2 0 1.4.8 2.3 1 .9 2.4.9 1 0 2.5-.7zm.9-5.7l3.5-3.5v2h3v1.7h-3V21q0 1.6 1.3 1.6 1 0 2.1-.7v1.8q-1 .6-2.3.6-1.3 0-2.1-.8l-.5-.5q-.2-.2-.3-.7v-5.9h-1.7v-.2zm9.3-5.5q.4 0 .8.3.3.4.3.8 0 .5-.3.8-.4.3-.8.3-.5 0-.8-.3-.3-.3-.3-.8 0-.4.3-.7.3-.4.8-.4zm-1 4h2v9.4h-2v-9.4zm9.1 0q2.2 0 3.6 1.4t1.4 3.5q0 2-1.4 3.4-1.5 1.3-3.7 1.3-2 0-3.5-1.4-1.4-1.3-1.4-3.4 0-2 1.4-3.4t3.6-1.4zm0 1.7q-1.4 0-2.3.8-.9 1-.9 2.3 0 1.3 1 2.2.8.9 2.2.9 1.4 0 2.2-1 1-.8 1-2.1 0-1.4-1-2.3-.9-.8-2.3-.8zm8.9-1.7V16q1.3-1.4 2.9-1.4.9 0 1.6.5.8.4 1.2 1.2.4.8.4 2.5v5.4h-1.9V19q0-1.5-.4-2.1-.5-.6-1.5-.6-1.3 0-2.3 1.3v6.7h-1.9v-9.4h2z" font-size="21" font-family="GillSans" fill="#3299cc"/></svg>