<?xml version="1.0" encoding="UTF-8"?>
<!DOCTYPE svg PUBLIC "-//W3C//DTD SVG 1.1//EN" "http://www.w3.org/Graphics/SVG/1.1/DTD/svg11.dtd">
<svg version="1.1" xmlns="http://www.w3.org/2000/svg" xmlns:xlink="http://www.w3.org/1999/xlink" x="0" y="0" width="640" height="580" viewBox="0, 0, 640, 580">
  <g id="Layer_1">
    <g id="Document_1">
      <text transform="matrix(1, 0, 0, 1, 71.5, 77.5)">
        <tspan x="-6.5" y="7.5" font-family="Inconsolata" font-size="24" fill="#2A86C0">{ </tspan>
      </text>
      <text transform="matrix(1, 0, 0, 1, 167.5, 108.5)">
        <tspan x="-72.5" y="7.5" font-family="Inconsolata" font-size="24" fill="#2A86C0">name: "sue", </tspan>
      </text>
      <text transform="matrix(1, 0, 0, 1, 143.5, 137.5)">
        <tspan x="-48.5" y="7.5" font-family="Inconsolata" font-size="24" fill="#2A86C0">age: 26,</tspan>
      </text>
      <text transform="matrix(1, 0, 0, 1, 197.5, 167.5)">
        <tspan x="-102.5" y="7.5" font-family="Inconsolata" font-size="24" fill="#2A86C0">status: "pending"</tspan>
      </text>
      <text transform="matrix(1, 0, 0, 1, 77.5, 197.5)">
        <tspan x="-12.5" y="7.5" font-family="Inconsolata" font-size="24" fill="#2A86C0">},</tspan>
      </text>
    </g>
    <g id="Document_2">
      <text transform="matrix(1, 0, 0, 1, 71.5, 227.75)">
        <tspan x="-6.5" y="7.5" font-family="Inconsolata" font-size="24" fill="#2A86C0">{ </tspan>
      </text>
      <text transform="matrix(1, 0, 0, 1, 167.5, 258.75)">
        <tspan x="-72.5" y="7.5" font-family="Inconsolata" font-size="24" fill="#2A86C0">name: "bob", </tspan>
      </text>
      <text transform="matrix(1, 0, 0, 1, 143.5, 287.75)">
        <tspan x="-48.5" y="7.5" font-family="Inconsolata" font-size="24" fill="#2A86C0">age: 25,</tspan>
      </text>
      <text transform="matrix(1, 0, 0, 1, 203.5, 317.75)">
        <tspan x="-108.5" y="7.5" font-family="Inconsolata" font-size="24" fill="#2A86C0">status: "enrolled"</tspan>
      </text>
      <text transform="matrix(1, 0, 0, 1, 77.5, 347.75)">
        <tspan x="-12.5" y="7.5" font-family="Inconsolata" font-size="24" fill="#2A86C0">},</tspan>
      </text>
    </g>
    <g id="Document_3">
      <text transform="matrix(1, 0, 0, 1, 71.5, 377.5)">
        <tspan x="-6.5" y="7.5" font-family="Inconsolata" font-size="24" fill="#2A86C0">{ </tspan>
      </text>
      <text transform="matrix(1, 0, 0, 1, 167.5, 408.5)">
        <tspan x="-72.5" y="7.5" font-family="Inconsolata" font-size="24" fill="#2A86C0">name: "ann", </tspan>
      </text>
      <text transform="matrix(1, 0, 0, 1, 143.5, 437.5)">
        <tspan x="-48.5" y="7.5" font-family="Inconsolata" font-size="24" fill="#2A86C0">age: 28,</tspan>
      </text>
      <text transform="matrix(1, 0, 0, 1, 203.5, 467.5)">
        <tspan x="-108.5" y="7.5" font-family="Inconsolata" font-size="24" fill="#2A86C0">status: "enrolled"</tspan>
      </text>
      <text transform="matrix(1, 0, 0, 1, 71.5, 497.5)">
        <tspan x="-6.5" y="7.5" font-family="Inconsolata" font-size="24" fill="#2A86C0">}</tspan>
      </text>
    </g>
    <g id="Pointers">
      <g id="Collection">
        <g id="arrow">
          <path d="M329,12 L328.964,27 L319,19.408 L329,12 z" fill="#5CA831"/>
          <path d="M375,19.4 L329,19.4" fill-opacity="0" stroke="#5CA831" stroke-width="2"/>
        </g>
        <text transform="matrix(1, 0, 0, 1, 445.5, 20)">
          <tspan x="-60.5" y="5" font-family="Inconsolata" font-size="24" fill="#2A86C0">collection</tspan>
        </text>
      </g>
      <g>
        <g id="arrow">
          <path d="M329,103 L328.964,118 L319,110.408 L329,103 z" fill="#5CA831"/>
          <path d="M375,110.6 L329,110.4" fill-opacity="0" stroke="#5CA831" stroke-width="2"/>
        </g>
        <text transform="matrix(1, 0, 0, 1, 437.5, 108.746)">
          <tspan x="-52.5" y="7.5" font-family="GillSans" font-size="24" fill="#2A86C0">field: value</tspan>
        </text>
      </g>
      <g>
        <g id="arrow">
          <path d="M329,132.5 L328.964,147.5 L319,139.908 L329,132.5 z" fill="#5CA831"/>
          <path d="M375,139.627 L328,139.427" fill-opacity="0" stroke="#5CA831" stroke-width="2"/>
        </g>
        <text transform="matrix(1, 0, 0, 1, 435.516, 137.5)">
          <tspan x="-50.516" y="7.5" font-family="GillSans" font-size="24" fill="#2A86C0">field: value</tspan>
        </text>
      </g>
      <g>
        <g id="arrow">
          <path d="M329,162 L328.964,177 L319,169.408 L329,162 z" fill="#5CA831"/>
          <path d="M375,169.6 L329,169.4" fill-opacity="0" stroke="#5CA831" stroke-width="2"/>
        </g>
        <text transform="matrix(1, 0, 0, 1, 437.5, 168)">
          <tspan x="-52.5" y="7" font-family="GillSans" font-size="24" fill="#2A86C0">field: value</tspan>
        </text>
      </g>
    </g>
    <g id="cmd">
      <text transform="matrix(1, 0, 0, 1, 13.191, 562.401)">
        <tspan x="-6.5" y="7.401" font-family="Inconsolata" font-size="24" fill="#053056">)</tspan>
      </text>
      <text transform="matrix(1, 0, 0, 1, 140.167, 17.599)">
        <tspan x="-135.167" y="7.401" font-family="Inconsolata" font-size="24" fill="#06345E">db.user.insertMany(</tspan>
      </text>
      <text transform="matrix(1, 0, 0, 1, 65.5, 17.599)">
        <tspan x="-24.5" y="7.401" font-family="Inconsolata" font-size="24" fill="#2A86C0">user</tspan>
      </text>
    </g>
    <g id="Curly_Doc">
      <path d="M496.513,98.466 L498.54,99.284 L502.018,100.761 L504.734,102.509 L506.359,104.349 L507.318,105.99 L507.766,106.964 L507.74,106.899 L508.277,108.457 L508.807,111.825 L508.756,117.548 L508.302,123.605 L508.121,127.588 L508.29,131.328 L509.043,134.656 L509.738,136.161 L509.738,136.161 C509.766,136.222 509.804,136.277 509.849,136.326 L509.849,136.326 L510.335,136.846 L512.127,137.838 L514.007,138.642 L515.119,139.469 L515.071,139.72 L515.057,139.218 L514.876,140.094 L513.953,141.494 L512.478,143.555 L510.923,146.422 L510.405,148.211 L510.405,148.211 C510.388,148.276 510.377,148.34 510.37,148.4 L510.37,148.4 L510.087,151.106 L509.819,156.457 L509.667,161.562 L509.275,166.343 L508.31,170.718 L506.498,174.548 L504.593,176.837 L503.132,178.064 L501.235,179.329 L498.832,180.592 L497.503,181.176 L497.503,181.176 C496.195,181.766 495.076,182.96 495.004,183.844 C494.931,184.729 495.933,184.967 497.241,184.377 L499.229,183.466 L502.682,181.557 L505.68,179.422 L508.24,177.03 L510.922,173.505 L512.994,168.92 L514.011,164.207 L514.409,159.315 L514.56,154.251 L514.818,149.024 L515.102,146.317 L515.067,146.506 L515.221,145.631 L516.361,143.434 L518.148,140.888 L519.567,138.265 L519.749,137.388 L519.749,137.388 C519.787,137.199 519.782,137.03 519.734,136.885 L519.734,136.885 L519.298,135.978 L517.873,134.976 L516.126,134.235 L514.714,133.531 L514.228,133.011 L514.34,133.175 L513.745,131.958 L513.032,128.93 L512.862,125.373 L513.039,121.453 L513.499,115.253 L513.528,109.231 L512.936,105.61 L512.399,104.052 L512.399,104.052 C512.391,104.03 512.382,104.009 512.373,103.988 L512.373,103.988 L511.863,102.897 L510.753,101.051 L508.843,98.971 L505.883,97.095 L502.374,95.604 L500.346,94.786 C500.346,94.786 500.346,94.786 500.346,94.786 C499.574,94.475 498.09,95.046 497.032,96.062 C495.973,97.078 495.741,98.154 496.513,98.466 L496.513,98.466" fill="#311F13"/>
      <text transform="matrix(1, 0, 0, 1, 579.49, 137.391)">
        <tspan x="-49.49" y="7.5" font-family="GillSans" font-size="24" fill="#312013">document</tspan>
      </text>
    </g>
    <text transform="matrix(1, 0, 0, 1, 41.504, 47.5)">
      <tspan x="-6.5" y="7.5" font-family="Inconsolata" font-size="24" fill="#2A86C0">[</tspan>
    </text>
    <text transform="matrix(1, 0, 0, 1, 41.504, 527.5)">
      <tspan x="-6.5" y="7.5" font-family="Inconsolata" font-size="24" fill="#2A86C0">]</tspan>
    </text>
    <g id="Curly_Doc">
      <path d="M386.553,248.765 L388.635,249.583 L392.207,251.06 L394.996,252.808 L396.664,254.649 L397.649,256.289 L398.109,257.263 L398.082,257.199 L398.634,258.756 L399.178,262.124 L399.126,267.847 L398.66,273.904 L398.474,277.887 L398.647,281.627 L399.421,284.955 L400.134,286.46 L400.134,286.46 C400.163,286.521 400.202,286.576 400.248,286.625 L400.248,286.625 L400.747,287.145 L402.588,288.137 L404.518,288.941 L405.66,289.769 L405.611,290.019 L405.596,289.517 L405.41,290.394 L404.463,291.793 L402.948,293.854 L401.351,296.721 L400.819,298.51 L400.819,298.51 C400.802,298.575 400.79,298.639 400.783,298.699 L400.783,298.699 L400.493,301.405 L400.217,306.756 L400.061,311.861 L399.659,316.641 L398.668,321.017 L396.807,324.847 L394.851,327.136 L393.351,328.363 L391.402,329.628 L388.935,330.89 L387.57,331.475 L387.57,331.475 C386.227,332.065 385.078,333.259 385.004,334.143 C384.929,335.028 385.958,335.266 387.301,334.676 L389.343,333.766 L392.888,331.857 L395.967,329.721 L398.596,327.329 L401.35,323.804 L403.478,319.22 L404.522,314.506 L404.931,309.614 L405.086,304.55 L405.351,299.323 L405.643,296.616 L405.607,296.805 L405.765,295.931 L406.935,293.733 L408.771,291.188 L410.228,288.565 L410.415,287.686 L410.415,287.686 C410.454,287.498 410.448,287.329 410.399,287.184 L410.399,287.184 L409.951,286.278 L408.488,285.275 L406.694,284.534 L405.244,283.83 L404.745,283.31 L404.86,283.475 L404.249,282.256 L403.517,279.229 L403.342,275.672 L403.524,271.753 L403.996,265.552 L404.026,259.531 L403.418,255.91 L402.867,254.351 L402.867,254.351 C402.859,254.329 402.849,254.308 402.84,254.286 L402.84,254.286 L402.316,253.197 L401.177,251.351 L399.215,249.271 L396.176,247.394 L392.572,245.904 L390.49,245.084 C390.49,245.084 390.49,245.084 390.49,245.084 C389.697,244.774 388.173,245.345 387.086,246.361 C385.999,247.378 385.761,248.454 386.553,248.765 L386.553,248.765" fill="#311F13"/>
      <text transform="matrix(1, 0, 0, 1, 470.822, 288.592)">
        <tspan x="-50.822" y="7.408" font-family="GillSans" font-size="24" fill="#312013">document</tspan>
      </text>
    </g>
    <g id="Curly_Doc">
      <path d="M386.553,398.765 L388.635,399.583 L392.207,401.06 L394.996,402.809 L396.664,404.649 L397.649,406.289 L398.109,407.263 L398.082,407.198 L398.634,408.756 L399.178,412.124 L399.126,417.847 L398.66,423.904 L398.474,427.887 L398.647,431.627 L399.421,434.955 L400.134,436.46 L400.134,436.46 C400.163,436.521 400.202,436.577 400.248,436.624 L400.248,436.624 L400.747,437.145 L402.588,438.137 L404.518,438.941 L405.66,439.768 L405.611,440.019 L405.596,439.518 L405.41,440.393 L404.463,441.794 L402.948,443.855 L401.351,446.721 L400.819,448.509 L400.819,448.509 C400.802,448.575 400.79,448.639 400.783,448.7 L400.783,448.7 L400.493,451.406 L400.217,456.756 L400.061,461.861 L399.659,466.642 L398.668,471.018 L396.807,474.847 L394.851,477.136 L393.351,478.363 L391.402,479.628 L388.935,480.891 L387.57,481.475 L387.57,481.475 C386.227,482.065 385.078,483.259 385.004,484.144 C384.929,485.027 385.958,485.266 387.301,484.676 L389.343,483.765 L392.888,481.857 L395.967,479.721 L398.596,477.329 L401.35,473.804 L403.478,469.219 L404.522,464.507 L404.931,459.614 L405.086,454.55 L405.351,449.324 L405.643,446.617 L405.607,446.806 L405.765,445.931 L406.935,443.732 L408.771,441.188 L410.228,438.565 L410.415,437.687 L410.415,437.687 C410.454,437.498 410.448,437.329 410.399,437.185 L410.399,437.185 L409.951,436.278 L408.488,435.276 L406.694,434.534 L405.244,433.83 L404.745,433.31 L404.86,433.475 L404.249,432.256 L403.517,429.229 L403.342,425.672 L403.524,421.753 L403.996,415.551 L404.026,409.53 L403.418,405.91 L402.867,404.351 L402.867,404.351 C402.859,404.329 402.849,404.308 402.84,404.286 L402.84,404.286 L402.316,403.197 L401.177,401.351 L399.215,399.271 L396.176,397.393 L392.572,395.904 L390.49,395.085 C390.49,395.085 390.49,395.085 390.49,395.085 C389.697,394.774 388.173,395.345 387.086,396.361 C385.999,397.378 385.761,398.453 386.553,398.765 L386.553,398.765" fill="#311F13"/>
      <text transform="matrix(1, 0, 0, 1, 470.822, 437.431)">
        <tspan x="-50.822" y="7.569" font-family="GillSans" font-size="24" fill="#312013">document</tspan>
      </text>
    </g>
  </g>
</svg>
