<svg xmlns="http://www.w3.org/2000/svg" viewBox="0, 0, 500, 100" height="100" width="500"><g font-size="24" font-family="Inconsolata"><path d="M15.9 29.9q-2.4 0-3.6-1.4-1.3-1.4-1.3-4v-9.8h2v.1l-.3.4v9.3q0 2 .7 3 .8 1 2.5 1t2.5-1q.7-1 .7-3v-9.8h1.6v9.7q0 2.8-1.3 4.1Q18.2 30 16 30zm7.4-15.2H28q2.3 0 3.5 1.2 1.2 1.1 1.2 3 0 1.8-1.2 3-1.1 1.1-3.4 1.1H25v6.6h-1.7v-15zm4.7 6.8q1.6 0 2.3-.6.8-.7.8-2 0-1.1-.8-1.9-.8-.7-2.3-.7h-3v5.2h3zm7.1-6.8h3.5q1.9 0 3 .5 1 .5 1.8 1.5 1.5 2 1.5 5.5-.2 3.7-1.7 5.6-1.5 1.9-4.9 1.9h-3.2v-15zm3.2 13.6q5 0 5-6-.1-3-1.2-4.6-1.1-1.6-3.6-1.6h-1.8v12.2h1.6zm17.4 1.3l-1.5-4.3h-4.8l-1.5 4.3h-1.7l5.6-15.2h.1l5.6 15.2h-1.8zM50 24h3.9l-2-5.7-2 5.7zm12.8 5.6V16.2h-4.2v-1.5H69v1.5h-4.5v13.4h-1.7zm8.5 0v-15h9.1v1.5h-7.6v5h6.3v1.5h-6.3v5.5h7.6v1.5h-9.1z" fill="#004571"/><path d="M99.2 29.9q-1.8 0-2.8-1.3-1-1.3-1-3.8v-6.1h1.7v6q0 2 .7 3 .7.8 1.8.8 1.2 0 2-1 1-1 1-2.8v-6h1.6v10.2q0 .3.3.7h-1.7q-.2-.3-.2-.7v-1q-.6 1-1.5 1.5t-2 .5zm13.4-6.7q2.1.6 3 1.3.8.8.8 2 0 1.4-1.2 2.4-1.1 1-3.3 1-2.8 0-4.7-1.8l1-1.6q.8 1 1.6 1.4.8.5 2.1.5t2-.4q.8-.5.8-1.3 0-.7-.6-1.2-.6-.4-2.2-1-4-1.1-4-3.3 0-1.3 1-2 1-.8 3-.8 1.4 0 2.4.4t2 1.3l-1 1.2q-.6-.7-1.5-1.2-1-.4-2-.4t-1.6.4q-.7.3-.7 1 0 .6.7 1 .7.6 2.4 1zm2.3-1.8q0-.1.2 0v.1l-.2-.1zm.3 0zm-6.7 5h-.3l.1-.1h.2v.1zm-.3 0zm16.2 3.5q-2.5 0-4-1.5-1.4-1.5-1.4-4.2 0-1.8.7-3.1t1.8-2q1.1-.7 2.6-.7 2 0 3.2 1.3 1.2 1.3 1.2 3.9v.8h-7.8q0 2 1.1 3 1 1 2.6 1 1.8 0 2.9-1.1l1 .9q-1.5 1.7-4 1.7zm2.4-6.8q0-1.6-.8-2.5-.8-.9-2-.9-1.3 0-2.1.9-1 .8-1.1 2.5h6zM140 21q-.6-.7-1.1-.9l-1-.2q-1 0-1.7.4-.8.4-1.3 1.3-.4.9-.4 2.2v5.9h-1.8v-11h1.8v2q.4-1.1 1.3-1.7 1-.6 2.1-.6 1.8 0 3 1.2l-.8 1.3zm0 0q.2.1.1 0zm-.2 0h.2v.2l-.2-.1zm8.8 2.2q2.1.6 3 1.3.8.8.8 2 0 1.4-1.2 2.4-1.1 1-3.3 1-2.8 0-4.7-1.8l1-1.6q.8 1 1.6 1.4.8.5 2.1.5t2-.4q.8-.5.8-1.3 0-.7-.6-1.2-.6-.4-2.2-1-4-1.1-4-3.3 0-1.3 1-2 1-.8 3-.8 1.4 0 2.4.4t2 1.3l-1 1.2q-.6-.7-1.5-1.2-1-.4-1.9-.4-1 0-1.7.4-.7.3-.7 1 0 .6.7 1 .7.6 2.4 1zm2.3-1.8q0-.1.2 0v.1l-.2-.1zm.3 0zm-6.7 5h-.3l.1-.1h.2v.1zm-.3 0z" fill="#3299cc"/><path d="M17 47.4q2.1.9 3 1.8.8 1 .8 2.3 0 1.2-.6 2.1-.5 1-1.6 1.6-1.2.7-2.8.7-3 0-4.7-2l.9-1.4q.6.8 1.6 1.4 1 .5 2.4.5 1.3 0 2.2-.8 1-.7 1-1.8 0-.7-.4-1.2-.2-.4-1-.9-.7-.5-2.1-1-2.2-1-3.2-2-1-1.2-1-2.5 0-1.7 1.3-2.7 1.2-1 3.3-1 1.3 0 2.3.5 1.1.5 1.9 1.4l-1 1.2q-.7-1-1.5-1.3-.8-.4-2-.4-1 0-1.8.6-.7.6-.7 1.6 0 .7.3 1.2t1 1q.9.5 2.4 1zm2-3.7q0-.1.2 0v.1l-.1-.1zm.3 0q.2.1 0 0zm-7 8.7H12v-.2l.1.1zm-.3 0q-.2-.2 0 0zm11.3 3.2v-15h9.1v1.5h-7.6v5h6.3v1.5h-6.3v5.5h7.6v1.5h-9.1zm15.5 0V42.2h-4.2v-1.5H45v1.5h-4.5v13.4h-1.7z" fill="#004571"/><path d="M100.6 49.2q2.1.6 3 1.3.8.8.8 2 0 1.4-1.2 2.4-1.1 1-3.3 1-2.8 0-4.7-1.8l1-1.6q.8 1 1.6 1.4.8.5 2.1.5t2-.4q.8-.5.8-1.3 0-.7-.6-1.2-.6-.4-2.2-1-4-1.1-4-3.3 0-1.3 1-2 1-.8 3-.8 1.4 0 2.4.4t2 1.3l-1 1.2q-.6-.7-1.5-1.2-1-.4-2-.4t-1.6.4q-.7.3-.7 1 0 .6.7 1 .7.6 2.4 1zm2.3-1.8q0-.1.2 0v.1l-.2-.1zm.3 0zm-6.7 5h-.3l.1-.1h.2v.1zm-.3 0zm20.3 2.2q-1.6 1.2-3.5 1.2-1.8 0-2.6-1.1-.7-1.1-.7-3.6v-1.4l.3-3.6h-2.5v-1.4h2.5l.2-3 2-.3h.2v.1l-.3.4v.6l-.3 2.2h3.6V46h-3.7l-.2 3.7V51q0 1.9.3 2.6.5.7 1.5.7.7 0 1.3-.3l1.4-.8.5 1.3zm7.2-10.2q2.4 0 3.6 1.2 1.2 1.3 1.2 4.2v5.8h-1.8V54q-1 2-3.8 2-1.8 0-2.8-.8-1-.9-1-2.2 0-1.2.7-2 .7-1 2-1.4 1.2-.4 2.7-.4l2.5.1q-.1-1.9-1-2.6-.8-.8-2.4-.8-.8 0-1.6.3l-1.4 1-.8-1.1q1.5-1.6 3.9-1.6zm-.6 10.2q1.8 0 2.8-1 1-1.1 1.1-3-1-.3-2.3-.3-1.8 0-2.9.6-1 .6-1 1.9 0 1.8 2.3 1.8zm17.4 0q-1.6 1.2-3.5 1.2-1.8 0-2.6-1.1-.7-1.1-.7-3.6v-1.4l.3-3.6h-2.5v-1.4h2.5l.2-3 2-.3h.2v.1l-.3.4v.6l-.3 2.2h3.6V46h-3.7l-.2 3.7V51q0 1.9.3 2.6.5.7 1.5.7.7 0 1.3-.3l1.4-.8.5 1.3zm6.7 1.3q-1.8 0-2.8-1.3-1-1.3-1-3.8v-6.1h1.7v6q0 2 .7 3 .7.8 1.8.8 1.2 0 2-1 1-1 1-2.8v-6h1.6v10.2q0 .3.3.7h-1.7q-.2-.3-.2-.7v-1q-.6 1-1.5 1.5t-2 .5zm13.4-6.7q2.1.6 3 1.3.8.8.8 2 0 1.4-1.2 2.4-1.1 1-3.3 1-2.8 0-4.7-1.8l1-1.6q.8 1 1.6 1.4.8.5 2.1.5t2-.4q.8-.5.8-1.3 0-.7-.6-1.2-.6-.4-2.2-1-4-1.1-4-3.3 0-1.3 1-2 1-.8 3-.8 1.4 0 2.4.4t2 1.3l-1 1.2q-.6-.7-1.5-1.2-1-.4-1.9-.4-1 0-1.7.4-.7.3-.7 1 0 .6.7 1 .7.6 2.4 1zm2.3-1.8q0-.1.2 0v.1l-.2-.1zm.3 0zm-6.7 5h-.3l.1-.1h.2v.1zm-.3 0zm22.8-5.8V45h9.8v1.5h-9.9zm0 3.7V49h9.8v1.4h-9.9zm29.8-10.6v3l-.2 2-.2 1.2h-1.1l-.2-1.2-.2-2v-3h2zm14.9 15.9l-1.5-4.3h-4.8l-1.5 4.3h-1.7l5.6-15.2h.1l5.6 15.2h-1.8zM218 50h3.9l-2-5.7-2 5.7zm14.8-10.3v3l-.2 2-.2 1.2h-1.1l-.2-1.2-.2-2v-3h2z" fill="#3299cc"/><path d="M12.7 81.6l-2.4-15h1.5l1.6 10.2 2.4-9h.6l2.4 9L20 66.7h1.5l-2.4 15h-.7L16 71.8l-2.6 9.7h-.7zM23 66.7h2v.1l-.2.4V73h5.9v-6.4h2v.1l-.3.4v14.5h-1.8v-7.2h-5.8v7.1H23v-15zm12.3 14.9v-15h9.1v1.5h-7.6v5h6.3v1.5h-6.3v5.5h7.6v1.5h-9.1zm11.9-14.9h4.4q2.6 0 3.8 1.1 1.2 1.1 1.2 3.1 0 1.4-.9 2.5-.8 1.2-2.2 1.6l3.5 6.6h-2L51.8 75h-3v6.6h-1.6v-15zm4.6 6.8q1.6 0 2.3-.6.7-.7.7-2 0-1.2-.7-1.9-.8-.7-2.3-.7h-3v5.2h3zm7.5 8.1v-15h9.1v1.5h-7.6v5h6.3v1.5h-6.3v5.5h7.6v1.5h-9.1z" fill="#004069"/><path d="M99.7 70.4q2.4 0 3.6 1.2 1.2 1.3 1.2 4.2v5.8h-1.8V80q-1 2-3.8 2-1.8 0-2.8-.8-1-.9-1-2.2 0-1.2.7-2 .7-1 2-1.4 1.2-.4 2.7-.4l2.5.1q-.1-1.9-1-2.6-.8-.8-2.4-.8-.8 0-1.6.3l-1.4 1-.8-1.1q1.5-1.6 3.9-1.6zm-.6 10.2q1.8 0 2.8-1 1-1.1 1.1-3-1-.3-2.3-.3-1.8 0-2.9.6-1 .6-1 1.9 0 1.8 2.3 1.8zm18.1-8.8h-.6q-1.1 0-1.9.5.4.8.4 1.8t-.5 2q-.4.8-1.3 1.3t-2 .5q-1 0-1.7-.3-.5.5-.5 1 0 .6.8.8.7.3 2.6.3 2.3 0 3.2.7.8.7.8 2 0 1.5-1.1 2.4-1.2 1-3.6 1-2.4 0-3.7-.8-1.3-.7-1.3-2 0-1 .4-1.6.5-.6 1.3-1-.8-.5-.8-1.4 0-1 1-2-.6-.6-1-1.3-.3-.7-.3-1.6 0-1 .5-2 .5-.8 1.3-1.3 1-.5 2-.5 1.8 0 2.9 1l1.2-.7q.6-.3 1.3-.3h.4l.2 1.5zm-6 4.7q1.1 0 1.8-.7t.7-1.7q0-1-.7-1.7t-1.7-.7q-1 0-1.8.7-.6.7-.6 1.7t.6 1.7q.7.7 1.8.7zm3.7 6.2q0-.6-.2-.9-.2-.3-.8-.5l-1.8-.1q-1.7 0-2.7-.3-.6.3-.8.8-.3.4-.3 1 0 .8 1 1.3.9.5 2.5.5t2.4-.5q.7-.5.7-1.3zm9.5-.8q-2.5 0-4-1.5-1.4-1.5-1.4-4.2 0-1.8.7-3.1t1.8-2q1.1-.7 2.6-.7 2 0 3.2 1.3 1.2 1.3 1.2 3.9v.8h-7.8q0 2 1.1 3 1 1 2.6 1 1.8 0 2.9-1.1l1 .9q-1.5 1.7-4 1.7zm2.4-6.8q0-1.6-.8-2.5-.8-.9-2-.9-1.3 0-2.1.9-1 .8-1.1 2.5h6zm16 5.4v-1.8l8.4-4.7-8.3-4.3V68l10.1 5.4v1.1l-10.2 6zm28.6 1.1V68.7l-3 1-.4-1 3.9-2h1.1v15h-1.6zm12.4.3q-1.3 0-2.4-.6-1-.5-1.6-1.4-.5-1-.5-2 0-1.3.8-2.5.8-1 2.2-1.7-1-.5-1.7-1.5-.6-1-.6-2 0-1.6 1-2.7 1-1 3-1t3 1q1 1 1 2.5 0 1.1-.7 2.1t-1.7 1.5q1.2.6 2 1.8.8 1 .8 2.4 0 1.1-.5 2-.6 1-1.7 1.5-1 .6-2.4.6zm.5-8.9q.8-.5 1.4-1.3.6-.8.6-1.6 0-1-.6-1.6-.7-.6-1.8-.6t-1.7.6q-.6.6-.6 1.5 0 1 .7 1.7.6.6 2 1.3zm-.4 7.4q1.3 0 2-.8.8-.7.8-1.8t-.8-2q-.9-1-2.4-1.4-1 .4-1.8 1.3-.7 1-.7 2 0 1.1.8 1.9.8.8 2 .8z" fill="#3299cc"/></g><g stroke="#6cb340" stroke-width="2"><path d="M311 24.5l-43-.2" fill="none"/><path d="M268.1 20.7l-9.6 3.6 9.6 3.6z" fill="#6cb340"/></g><path d="M325 20.6l4-4v2.2h3.4v2H329V26q0 1.8 1.5 1.8 1.2 0 2.5-.8v2q-1.3.7-2.7.7-1.5 0-2.4-.8l-.6-.6-.3-.9-.1-2v-4.7H325v-.2zm16.3 2.5v4.6q0 .6.4.6t1.2-.6V29q-.7.5-1.2.6-.4.2-.9.2-1.4 0-1.6-1-1.4 1-3 1-1 0-1.8-.7-.7-.8-.7-2 0-1 .7-1.7.7-.8 2-1.3l2.8-1v-.5q0-2-2-2-1.7 0-3.3 1.8v-2.3q1.2-1.5 3.5-1.5 1.8 0 2.8 1 .4.2.7.7.3.5.3 1l.1 1.8zm-2 4.4v-3.2l-1.5.5q-1.1.5-1.6 1-.4.4-.4 1 0 .7.4 1.1.4.4 1.1.4 1 0 2-.8zm5.4-14.2h2.1v6.3q1.4-1 3-1 2 0 3.3 1.6 1.3 1.5 1.3 4t-1.5 4q-1.6 1.6-4.2 1.6l-2.2-.2q-1.1-.2-1.8-.6V13.3zm2.1 8.4v5.8q1.1.3 2.3.3 1.4 0 2.3-1 .9-1 .9-2.6t-.9-2.6q-.8-1-2.1-1-1.2 0-2.5 1zm10-8.4h2.2v16.3h-2.2V13.3zm14.5 11.1h-7.6q0 1.6 1 2.5 1 .9 2.5.9 2.1 0 3.9-1.3v2q-1 .7-2 1-1 .3-2.2.3-1.8 0-3-.7-1-.8-1.7-2-.6-1.3-.6-3 0-2.4 1.4-4 1.4-1.5 3.6-1.5 2.1 0 3.4 1.5 1.3 1.5 1.3 4v.3zm-7.6-1.3h5.5q-.1-1.2-.8-2-.7-.6-1.8-.6-1.2 0-1.9.7t-1 2z" font-size="24" font-family="GillSans" fill="#3299cc"/><g stroke="#6cb340" stroke-width="2"><path d="M311 48.5l-43-.2" fill="none"/><path d="M268.1 44.7l-9.6 3.6 9.6 3.6z" fill="#6cb340"/></g><path d="M333.4 55.4V54q-.7.8-1.6 1.2-.8.4-1.7.4-1 0-1.9-.5-.9-.5-1.3-1.4-.4-.9-.4-3v-6h2.1v6q0 1.8.5 2.4.5.7 1.7.7 1.5 0 2.6-1.5v-7.7h2.1v10.8h-2.1zm5 5.5V44.6h3.7q2.9 0 4.5 1.4 1.6 1.5 1.6 4t-1.5 4q-1.5 1.6-3.9 1.6-1 0-2.2-.5V61h-2.2zm3.7-14.3h-1.5v6.6q1 .5 2 .5 1.5 0 2.5-1t1-2.7q0-1-.5-1.8-.5-.9-1.3-1.2-.7-.4-2.2-.4zm15.6-7.6h2.2v16.4h-4.6q-2.4 0-3.8-1.5t-1.4-4q0-2.5 1.4-4 1.5-1.5 3.9-1.5 1 0 2.3.4V39zm0 14.6v-6.9q-1-.5-2-.5-1.6 0-2.5 1-1 1.1-1 2.9 0 1.6.8 2.6.5.5 1 .7.6.2 2 .2h1.7zm11.8-4.6v4.5q0 .5.4.5t1.2-.5v1.3l-1.2.6q-.4.2-.9.2-1.4 0-1.6-1.1-1.4 1-2.9 1-1.1 0-1.9-.7-.7-.7-.7-1.9 0-1 .7-1.8t2.1-1.2l2.7-1v-.6q0-2-2-2-1.7 0-3.3 1.9v-2.3q1.2-1.5 3.6-1.5 1.7 0 2.8 1l.6.7q.3.5.3 1l.1 1.8zm-2 4.3V50l-1.5.5q-1 .4-1.6.9-.4.4-.4 1 0 .7.4 1.2.5.4 1.1.4 1 0 2-.8zm4-7l4-4v2.3h3.4v2h-3.4v5.2q0 1.9 1.5 1.9 1.2 0 2.5-.8v2q-1.3.7-2.7.7-1.5 0-2.4-.9-.4-.2-.6-.5l-.3-.9-.1-2v-4.8h-1.9v-.2zm18.7 3.9h-7.6q.1 1.5 1 2.5 1 .9 2.5.9 2.2 0 4-1.3v2q-1 .7-2 1-1 .3-2.3.3-1.8 0-2.9-.8-1-.7-1.7-2-.7-1.2-.7-2.9 0-2.4 1.4-4 1.4-1.5 3.6-1.5t3.4 1.5q1.3 1.5 1.3 4v.3zm-7.5-1.3h5.4q0-1.3-.8-2-.6-.6-1.8-.6-1.1 0-1.9.6-.7.7-1 2zm23.3.1v4.5q0 .5.3.5.4 0 1.2-.5v1.3l-1.1.6-1 .2q-1.3 0-1.6-1.1-1.3 1-2.9 1-1.1 0-1.8-.7-.8-.7-.8-1.9 0-1 .7-1.8.8-.8 2.1-1.2l2.7-1v-.6q0-2-1.9-2-1.7 0-3.4 1.9v-2.3q1.2-1.5 3.6-1.5 1.7 0 2.8 1l.6.7.4 1v1.8zm-2.2 4.3V50l-1.4.5q-1 .4-1.5.9-.5.4-.5 1 0 .7.4 1.2.5.4 1.2.4 1 0 1.8-.8zm13.7-.4v2q-1.6.7-3.1.7-2.5 0-4-1.5-1.6-1.5-1.6-4 0-2.6 1.5-4.1 1.5-1.6 3.9-1.6.8 0 1.4.2.7.1 1.7.6v2.2q-1.6-1-3-1-1.5 0-2.4 1-.9 1-.9 2.6t1 2.6q1 1 2.7 1 1.2 0 2.8-.7zm.9-6.6l4-4v2.3h3.4v2h-3.4v5.2q0 1.9 1.6 1.9 1.1 0 2.4-.8v2q-1.2.7-2.7.7-1.5 0-2.4-.9l-.5-.5-.4-.9-.1-2v-4.8h-1.9v-.2zM429 40q.6 0 1 .4.3.4.3 1 0 .4-.3.8-.4.4-1 .4-.4 0-.8-.4t-.4-.9q0-.5.4-.8.4-.4.9-.4zm-1 4.6h2.1v10.8H428V44.6zm10.4 0q2.4 0 4 1.6 1.7 1.6 1.7 4 0 2.3-1.7 3.8-1.6 1.6-4.1 1.6-2.5 0-4-1.6-1.7-1.5-1.7-3.9t1.6-4q1.7-1.5 4.2-1.5zm-.2 2q-1.5 0-2.5 1t-1 2.5q0 1.5 1 2.5t2.6 1q1.6 0 2.6-1t1-2.5q0-1.6-1-2.6t-2.7-1zm10.4-2V46q1.4-1.6 3.2-1.6 1 0 1.9.5.8.5 1.3 1.5.4.9.4 2.8v6.2h-2v-6.1q0-1.7-.6-2.4-.5-.7-1.7-.7-1.5 0-2.5 1.5v7.7h-2.2V44.6h2.2z" font-size="24" font-family="GillSans" fill="#3299cc"/><g stroke="#6cb340" stroke-width="2"><path d="M311 74.1l-43-.2" fill="none"/><path d="M268.1 70.3l-9.6 3.6 9.6 3.6z" fill="#6cb340"/></g><path d="M333.4 80.7v-1.4q-.7.8-1.6 1.2-.8.4-1.7.4-1 0-1.9-.5-.9-.5-1.3-1.4-.4-.9-.4-2.9v-6.2h2.1v6.2q0 1.7.5 2.4.5.6 1.7.6 1.5 0 2.6-1.5V70h2.1v10.8h-2.1zm5 5.5V69.9h3.7q2.9 0 4.5 1.5 1.6 1.4 1.6 4 0 2.4-1.5 4-1.5 1.5-3.9 1.5-1 0-2.2-.5v5.8h-2.2zm3.7-14.3h-1.5v6.7q1 .5 2 .5 1.5 0 2.5-1 1-1.1 1-2.8 0-1-.5-1.8t-1.3-1.2q-.7-.4-2.2-.4zm15.6-7.6h2.2v16.4h-4.6q-2.4 0-3.8-1.5t-1.4-4q0-2.4 1.4-4 1.5-1.5 3.9-1.5 1 0 2.3.4v-5.8zm0 14.6V72q-1-.5-2-.5-1.6 0-2.5 1-1 1.1-1 2.9 0 1.7.8 2.6.5.5 1 .7.6.2 2 .2h1.7zm11.8-4.7v4.6q0 .6.4.6t1.2-.6V80q-.7.5-1.2.6-.4.2-.9.2-1.4 0-1.6-1-1.4 1-2.9 1-1.1 0-1.9-.8-.7-.7-.7-1.8 0-1 .7-1.9.7-.8 2.1-1.2l2.7-1v-.5q0-2-2-2-1.7 0-3.3 1.8v-2.3q1.2-1.5 3.6-1.5 1.7 0 2.8 1l.6.7q.3.5.3 1l.1 1.8zm-2 4.4v-3.2l-1.5.5-1.6.9q-.4.4-.4 1 0 .8.4 1.2.5.4 1.1.4 1 0 2-.8zm4-7l4-3.9v2.2h3.4v2h-3.4V77q0 1.9 1.5 1.9 1.2 0 2.5-.8v2q-1.3.7-2.7.7-1.5 0-2.4-.9-.4-.2-.6-.5l-.3-.9-.1-2v-4.8h-1.9v-.2zm18.7 3.9h-7.6q.1 1.6 1 2.5 1 .9 2.5.9 2.2 0 4-1.3v2q-1 .7-2 1-1 .3-2.3.3-1.8 0-2.9-.8-1-.7-1.7-2-.7-1.2-.7-2.8 0-2.5 1.4-4 1.4-1.6 3.6-1.6t3.4 1.5q1.3 1.5 1.3 4v.3zm-7.5-1.3h5.4q0-1.3-.8-2-.6-.6-1.8-.6-1.1 0-1.9.7-.7.6-1 2zm24.6 4v2.1q-1.6.6-3.2.6-2.5 0-4-1.5t-1.5-4q0-2.6 1.4-4.1 1.5-1.6 3.9-1.6.8 0 1.5.2.7.1 1.6.6v2.2q-1.6-1-3-1t-2.3 1q-1 1-1 2.6 0 1.7 1 2.6 1 1 2.7 1 1.3 0 2.9-.7zM412 70v2.4-.2q1.6-2.5 3.2-2.5 1.2 0 2.5 1.2l-1.1 2q-1.2-1.1-2.1-1.1-1 0-1.8 1-.7 1-.7 2.3v5.6h-2.2V70h2.2zm8.3-4.6q.5 0 .9.4.4.3.4.8 0 .6-.4 1-.4.3-1 .3-.4 0-.8-.4t-.4-.9q0-.4.4-.8t.9-.4zm-1 4.5h2v10.8h-2V70zm3.7 1.7l4-3.9v2.2h3.3v2H427V77q0 1.9 1.6 1.9 1.1 0 2.4-.8v2q-1.2.7-2.7.7-1.5 0-2.4-.9l-.5-.5-.4-.9-.1-2v-4.8H423v-.2zm18.6 3.9h-7.5q0 1.6 1 2.5 1 .9 2.5.9 2 0 3.9-1.3v2q-1 .7-2 1-1 .3-2.3.3-1.7 0-2.8-.8-1.1-.7-1.8-2-.7-1.2-.7-2.8 0-2.5 1.4-4 1.4-1.6 3.6-1.6t3.5 1.5q1.2 1.5 1.2 4v.3zm-7.5-1.3h5.4q0-1.3-.7-2-.7-.6-1.9-.6-1.1 0-1.8.7-.8.6-1 2zm12.1-4.2v2.4l.1-.2q1.6-2.5 3.1-2.5 1.2 0 2.6 1.2l-1.2 2q-1-1.1-2-1.1t-1.8 1q-.8 1-.8 2.3v5.6h-2.1V70h2.1zm8.4-4.6q.5 0 .9.4.3.3.3.8 0 .6-.3 1-.4.3-1 .3-.4 0-.8-.4t-.4-.9q0-.4.4-.8t.9-.4zm-1.1 4.5h2.1v10.8h-2.1V70zm12 4.3v4.6q0 .6.4.6.3 0 1.2-.6V80l-1.2.6q-.4.2-1 .2-1.3 0-1.5-1-1.4 1-3 1-1 0-1.8-.8-.8-.7-.8-1.8 0-1 .8-1.9.7-.8 2-1.2l2.8-1v-.5q0-2-2-2-1.7 0-3.4 1.8v-2.3q1.3-1.5 3.6-1.5 1.8 0 2.8 1 .4.2.6.7l.4 1v1.8zm-2.1 4.4v-3.2l-1.5.5-1.5.9q-.4.4-.4 1 0 .8.4 1.2.4.4 1 .4 1.1 0 2-.8z" font-size="24" font-family="GillSans" fill="#3299cc"/></svg>