<?xml version="1.0" encoding="UTF-8"?>
<!DOCTYPE svg PUBLIC "-//W3C//DTD SVG 1.1//EN" "http://www.w3.org/Graphics/SVG/1.1/DTD/svg11.dtd">
<svg version="1.1" xmlns="http://www.w3.org/2000/svg" xmlns:xlink="http://www.w3.org/1999/xlink" x="0" y="0" width="640" height="250" viewBox="0, 0, 640, 250">
  <g id="Layer_1">
    <g id="cmd">
      <text transform="matrix(1, 0, 0, 1, 125.5, 17.5)">
        <tspan x="-120.5" y="7.5" font-family="Inconsolata" font-size="24" fill="#004571">db.users.replaceOne(</tspan>
      </text>
      <text transform="matrix(1, 0, 0, 1, 71.5, 17.5)">
        <tspan x="-30.5" y="7.5" font-family="Inconsolata" font-size="24" fill="#3299CC">users</tspan>
      </text>
      <text transform="matrix(1, 0, 0, 1, 137.5, 47.5)">
        <tspan x="-102.5" y="7.5" font-family="Inconsolata" font-size="24" fill="#3299CC">{ name: "sue" } , </tspan>
      </text>
      <text transform="matrix(1, 0, 0, 1, 41.5, 77.5)">
        <tspan x="-6.5" y="7.5" font-family="Inconsolata" font-size="24" fill="#3299CC">{ </tspan>
      </text>
      <text transform="matrix(1, 0, 0, 1, 138.167, 107.5)">
        <tspan x="-72.5" y="7.5" font-family="Inconsolata" font-size="24" fill="#3299CC">name: "amy",</tspan>
      </text>
      <text transform="matrix(1, 0, 0, 1, 113.5, 137.5)">
        <tspan x="-48.5" y="7.5" font-family="Inconsolata" font-size="24" fill="#3299CC">age: 25,</tspan>
      </text>
      <text transform="matrix(1, 0, 0, 1, 173.5, 167.5)">
        <tspan x="-108.5" y="7.5" font-family="Inconsolata" font-size="24" fill="#3299CC">status: "enrolled"</tspan>
      </text>
      <text transform="matrix(1, 0, 0, 1, 41.5, 197.5)">
        <tspan x="-6.5" y="7.5" font-family="Inconsolata" font-size="24" fill="#3299CC">} </tspan>
      </text>
      <text transform="matrix(1, 0, 0, 1, 11.5, 227.5)">
        <tspan x="-6.5" y="7.5" font-family="Inconsolata" font-size="24" fill="#004069">)</tspan>
      </text>
    </g>
    <g id="collection">
      <g>
        <path d="M298,12 L297.965,27 L288,19.407 L298,12 z" fill="#6CB340"/>
        <path d="M386,19.505 L298,19.3" fill-opacity="0" stroke="#6CB340" stroke-width="2"/>
      </g>
      <text transform="matrix(1, 0, 0, 1, 443.891, 17.5)">
        <tspan x="-47.891" y="7.5" font-family="GillSans" font-size="24" fill="#3299CC">collection</tspan>
      </text>
    </g>
    <g id="filter">
      <g>
        <path d="M298,41.5 L297.965,56.5 L288,48.906 L298,41.5 z" fill="#6CB340"/>
        <path d="M386,48.806 L298,48.6" fill-opacity="0" stroke="#6CB340" stroke-width="2"/>
      </g>
      <text transform="matrix(1, 0, 0, 1, 457.977, 47.5)">
        <tspan x="-61.977" y="7.5" font-family="GillSans" font-size="24" fill="#3299CC">replace filter</tspan>
      </text>
    </g>
    <g id="Curly">
      <path d="M289.589,98.765 L291.719,99.583 L295.373,101.06 L298.226,102.808 L299.933,104.648 L300.94,106.289 L301.411,107.263 L301.384,107.198 L301.948,108.756 L302.505,112.124 L302.451,117.847 L301.974,123.904 L301.784,127.887 L301.962,131.627 L302.753,134.955 L303.483,136.46 L303.483,136.46 C303.512,136.521 303.552,136.576 303.599,136.625 L303.599,136.625 L304.11,137.145 L305.993,138.137 L307.968,138.941 L309.136,139.769 L309.085,140.019 L309.071,139.517 L308.881,140.393 L307.911,141.794 L306.361,143.854 L304.728,146.721 L304.184,148.51 L304.184,148.51 C304.166,148.575 304.154,148.639 304.147,148.699 L304.147,148.699 L303.849,151.405 L303.568,156.756 L303.408,161.861 L302.996,166.642 L301.983,171.017 L300.079,174.847 L298.078,177.136 L296.543,178.363 L294.55,179.628 L292.025,180.891 L290.629,181.475 L290.629,181.475 C289.255,182.065 288.08,183.259 288.004,184.143 C287.927,185.028 288.98,185.266 290.354,184.676 L292.443,183.765 L296.07,181.856 L299.22,179.721 L301.909,177.329 L304.727,173.804 L306.903,169.219 L307.972,164.506 L308.39,159.614 L308.549,154.55 L308.82,149.323 L309.118,146.616 L309.081,146.805 L309.243,145.93 L310.441,143.733 L312.318,141.187 L313.809,138.565 L314,137.687 L314,137.687 C314.04,137.498 314.035,137.329 313.984,137.184 L313.984,137.184 L313.526,136.277 L312.029,135.275 L310.194,134.534 L308.71,133.83 L308.2,133.31 L308.318,133.474 L307.692,132.257 L306.943,129.229 L306.765,125.672 L306.951,121.753 L307.434,115.552 L307.464,109.53 L306.843,105.909 L306.278,104.351 L306.278,104.351 C306.27,104.329 306.261,104.308 306.251,104.287 L306.251,104.287 L305.715,103.196 L304.549,101.35 L302.543,99.27 L299.433,97.394 L295.747,95.903 L293.616,95.085 C293.616,95.085 293.616,95.085 293.616,95.085 C292.805,94.774 291.246,95.345 290.134,96.361 C289.022,97.377 288.778,98.453 289.589,98.765 L289.589,98.765" fill="#311F13"/>
      <text transform="matrix(1, 0, 0, 1, 508.836, 138)">
        <tspan x="-112.836" y="7.5" font-family="GillSans" font-size="24" fill="#3299CC">replacement document</tspan>
      </text>
    </g>
  </g>
</svg>
