<svg xmlns="http://www.w3.org/2000/svg" viewBox="0, 0, 590, 200" height="200" width="590"><g stroke="#5ca831" stroke-width="2"><path d="M296 26.2l-43-.2" fill="none"/><path d="M253 22.4l-9.6 3.6 9.6 3.6z" fill="#5ca831"/></g><path d="M319.6 28.8v2.1q-1.6.6-3.2.6-2.5 0-4-1.5t-1.5-4q0-2.6 1.4-4.1 1.5-1.6 3.9-1.6.8 0 1.5.2.6.1 1.6.6v2.3q-1.6-1-3-1t-2.3 1q-1 1-1 2.5 0 1.7 1 2.6 1 1 2.7 1 1.3 0 2.9-.7zm7.5-8.3q2.5 0 4.1 1.6 1.6 1.6 1.6 4 0 2.3-1.6 3.9-1.7 1.5-4.2 1.5-2.4 0-4-1.5-1.7-1.6-1.7-4 0-2.3 1.7-3.9 1.6-1.6 4.1-1.6zm0 2q-1.6 0-2.6 1t-1 2.5q0 1.6 1 2.5 1 1 2.6 1t2.6-1q1-1 1-2.5t-1-2.6q-1.1-1-2.7-1zm8.1-7.5h2.2v16.3h-2.2V15zm5.3 0h2.2v16.3h-2.2V15zM355 26.1h-7.6q0 1.6 1 2.5 1 .9 2.5.9 2.1 0 3.9-1.3v2q-1 .7-2 1-1 .3-2.2.3-1.8 0-3-.8-1-.7-1.7-2-.6-1.2-.6-2.8 0-2.5 1.4-4 1.3-1.6 3.6-1.6 2.1 0 3.4 1.5 1.3 1.5 1.3 4v.3zm-7.6-1.3h5.5q-.1-1.2-.8-2-.7-.6-1.8-.6-1.2 0-2 .7-.6.7-.9 2zm18 4v2.1q-1.7.6-3.2.6-2.5 0-4-1.5t-1.5-4q0-2.6 1.4-4.1 1.5-1.6 3.9-1.6.8 0 1.5.2.6.1 1.6.6v2.3q-1.6-1-3-1t-2.3 1q-1 1-1 2.5 0 1.7 1 2.6 1 1 2.7 1 1.3 0 2.9-.7zm.9-6.5l4-4v2.2h3.4v2h-3.4v5.2q0 1.9 1.5 1.9 1.1 0 2.4-.8v2q-1.2.7-2.7.7-1.4 0-2.4-.8l-.5-.6-.3-.9q-.2-.5-.2-2v-4.7h-1.8v-.2zm10.6-6.3q.5 0 .9.4.4.3.4.9 0 .5-.4.9-.4.3-1 .3-.4 0-.8-.3-.4-.4-.4-1 0-.4.4-.8t.9-.4zm-1 4.5h2v10.8h-2V20.5zm10.3 0q2.5 0 4 1.6 1.7 1.6 1.7 4 0 2.3-1.6 3.9-1.7 1.5-4.2 1.5-2.4 0-4-1.5-1.7-1.6-1.7-4 0-2.3 1.7-3.9 1.6-1.6 4-1.6zm-.1 2q-1.6 0-2.5 1-1 1-1 2.5 0 1.6 1 2.5 1 1 2.6 1 1.5 0 2.5-1t1-2.5q0-1.5-1-2.6-1-1-2.6-1zm10.3-2V22q1.4-1.6 3.2-1.6 1 0 2 .6.8.5 1.2 1.4.5.9.5 2.9v6.1H401v-6.1q0-1.7-.5-2.4t-1.6-.7q-1.6 0-2.6 1.5v7.7h-2.2V20.5h2.2z" font-size="24" font-family="GillSans" fill="#2a86c0"/><g stroke="#5ca831" stroke-width="2"><path d="M296 80.2l-43-.2" fill="none"/><path d="M253 76.4l-9.6 3.6 9.6 3.6z" fill="#5ca831"/></g><path d="M311.7 76.3v-.7q0-2.6 1.1-3.8 1.1-1.3 2.7-1.3l1.6.2v2l-1-.1q-1.3 0-1.8.7-.5.6-.5 2.3v.7h2v2h-2V87h-2v-8.9h-1.6v-2h1.5zm6.9-4.5q.5 0 .9.3.3.4.3 1 0 .4-.3.8-.4.4-1 .4-.4 0-.8-.4t-.4-.9q0-.5.4-.9.4-.3.9-.3zm-1 4.5h2V87h-2V76.3zm14.4 5.6h-7.7q.1 1.5 1 2.4 1 1 2.5 1 2.1 0 4-1.4V86q-1 .7-2 1-1 .2-2.3.2-1.8 0-2.9-.7-1-.7-1.8-2-.6-1.2-.6-2.9 0-2.4 1.4-4 1.4-1.5 3.6-1.5t3.4 1.5q1.3 1.5 1.3 4v.3zm-7.6-1.3h5.4q0-1.3-.8-2-.6-.7-1.8-.7-1.1 0-1.9.7-.7.7-1 2zm9.9-9.9h2v16.4h-2V70.7zm12.4 0h2.1v16.4h-4.5q-2.4 0-3.8-1.5-1.5-1.6-1.5-4.1 0-2.4 1.5-4 1.5-1.4 3.9-1.4 1 0 2.3.4v-5.8zm0 14.5v-6.8q-1-.5-2-.5-1.6 0-2.6 1-.9 1-.9 2.9 0 1.6.8 2.5.5.6 1 .8l2 .1h1.7zm6-.8q.6 0 1 .4.5.5.5 1 0 .6-.4 1-.5.5-1 .5-.6 0-1-.5-.5-.4-.5-1 0-.5.4-1 .4-.4 1-.4zm.2-8.3q.6 0 1 .4.5.4.5 1t-.4 1q-.5.4-1 .4-.6 0-1-.4-.5-.4-.5-1t.4-1q.4-.4 1-.4zm14.9.2h2.4l-4.8 11h-.7l-4.9-11h2.3l3 6.6 2.7-6.6zm10.7 4.3v4.6q0 .5.4.5t1.2-.6v1.3l-1.2.7q-.4.2-.9.2-1.4 0-1.6-1.1-1.4 1-2.9 1-1.1 0-1.9-.7-.7-.8-.7-1.9 0-1 .7-1.8t2.1-1.3l2.7-1V80q0-2-2-2-1.7 0-3.3 1.9v-2.4q1.2-1.4 3.6-1.4 1.7 0 2.8.9l.6.8q.3.5.3 1l.1 1.8zm-2 4.3v-3.2l-1.5.6q-1 .4-1.5.9-.5.4-.5 1 0 .7.4 1.1.5.5 1.1.5 1 0 2-.9zm5.5-14.2h2.2v16.4h-2.1V70.7zM394.2 87v-1.3q-.7.7-1.6 1.1-.8.5-1.7.5-1 0-1.9-.5-.9-.6-1.3-1.4-.4-1-.4-3v-6.1h2.1v6.1q0 1.7.5 2.4t1.7.7q1.5 0 2.6-1.5v-7.7h2.1V87h-2.1zm14.3-5.1h-7.6q.1 1.5 1 2.4 1 1 2.5 1 2.1 0 4-1.4V86q-1 .7-2 1-1 .2-2.3.2-1.8 0-2.9-.7-1-.7-1.8-2-.6-1.2-.6-2.9 0-2.4 1.4-4 1.4-1.5 3.6-1.5 2.1 0 3.4 1.5 1.3 1.5 1.3 4v.3zm-7.5-1.3h5.4q0-1.3-.8-2-.6-.7-1.8-.7-1.1 0-1.9.7-.7.7-1 2z" font-size="24" font-family="GillSans" fill="#2a86c0"/><g stroke="#5ca831" stroke-width="2"><path d="M296 106.8l-43-.2" fill="none"/><path d="M253 103l-9.6 3.5 9.6 3.7z" fill="#5ca831"/></g><path d="M311.7 102.9v-.7q0-2.6 1.1-3.9 1.1-1.2 2.7-1.2l1.6.2v2l-1-.1q-1.3 0-1.8.6-.5.7-.5 2.4v.7h2v1.9h-2v8.9h-2v-9h-1.6V103h1.5zm6.9-4.6q.5 0 .9.4.3.4.3.9t-.3.9q-.4.4-1 .4-.4 0-.8-.4t-.4-1q0-.4.4-.8t.9-.4zm-1 4.6h2v10.8h-2v-10.8zm14.4 5.6h-7.7q.1 1.5 1 2.4 1 1 2.5 1 2.1 0 4-1.4v2.1q-1 .7-2 1-1 .2-2.3.2-1.8 0-2.9-.7-1-.8-1.8-2-.6-1.3-.6-2.9 0-2.5 1.4-4t3.6-1.5q2.2 0 3.4 1.5 1.3 1.5 1.3 4v.3zm-7.6-1.3h5.4q0-1.3-.8-2-.6-.7-1.8-.7-1.1 0-1.9.7-.7.7-1 2zm9.9-9.9h2v16.4h-2V97.3zm12.4 0h2.1v16.4h-4.5q-2.4 0-3.8-1.6-1.5-1.5-1.5-4 0-2.4 1.5-4 1.5-1.5 3.9-1.5 1 0 2.3.5v-5.8zm0 14.5V105q-1-.5-2-.5-1.6 0-2.6 1-.9 1-.9 2.8 0 1.7.8 2.6.5.6 1 .7.6.2 2 .2h1.7zm6-.8q.6 0 1 .4.5.4.5 1t-.4 1q-.5.4-1 .4-.6 0-1-.4-.5-.4-.5-1t.4-1q.4-.4 1-.4zm.2-8.3q.6 0 1 .4.5.4.5 1t-.4 1q-.5.4-1 .4-.6 0-1-.4-.5-.4-.5-1t.4-1q.4-.4 1-.4zm14.9.2h2.4l-4.8 11h-.7l-4.9-11h2.3l3 6.6 2.7-6.6zm10.7 4.3v4.6q0 .5.4.5t1.2-.6v1.3l-1.2.7-.9.1q-1.4 0-1.6-1-1.4 1-2.9 1-1.1 0-1.9-.7-.7-.8-.7-1.9 0-1 .7-1.8t2.1-1.3l2.7-1v-.5q0-2-2-2-1.7 0-3.3 1.9V104q1.2-1.4 3.6-1.4 1.7 0 2.8.9l.6.8q.3.4.3 1l.1 1.8zm-2 4.3v-3.2l-1.5.6q-1 .4-1.5.9-.5.4-.5 1 0 .7.4 1.1.5.5 1.1.5 1 0 2-.9zm5.5-14.2h2.2v16.4h-2.1V97.3zm12.2 16.4v-1.4q-.7.7-1.6 1.1-.8.4-1.7.4-1 0-1.9-.5-.9-.5-1.3-1.3-.4-1-.4-3v-6h2.1v6.1q0 1.7.5 2.4t1.7.7q1.5 0 2.6-1.5V103h2.1v10.8h-2.1zm14.3-5.2h-7.6q.1 1.5 1 2.4 1 1 2.5 1 2.1 0 4-1.4v2.1q-1 .7-2 1-1 .2-2.3.2-1.8 0-2.9-.7-1-.8-1.8-2-.6-1.3-.6-2.9 0-2.5 1.4-4t3.6-1.5q2.1 0 3.4 1.5 1.3 1.5 1.3 4v.3zm-7.5-1.3h5.4q0-1.3-.8-2-.6-.7-1.8-.7-1.1 0-1.9.7-.7.7-1 2z" font-size="24" font-family="GillSans" fill="#2a86c0"/><g stroke="#5ca831" stroke-width="2"><path d="M296 133.3l-43-.2" fill="none"/><path d="M253 129.5l-9.6 3.6 9.6 3.6z" fill="#5ca831"/></g><path d="M311.7 129.4v-.6q0-2.6 1.1-3.9 1.1-1.3 2.7-1.3l1.6.2v2.1l-1-.2q-1.3 0-1.8.7t-.5 2.4v.6h2v2h-2v8.8h-2v-8.8h-1.6v-2h1.5zm6.9-4.5q.5 0 .9.4.3.3.3.9 0 .5-.3.8-.4.4-1 .4-.4 0-.8-.4-.4-.3-.4-.8t.4-1q.4-.3.9-.3zm-1 4.5h2v10.8h-2v-10.8zM332 135h-7.7q.1 1.6 1 2.5 1 .9 2.5.9 2.1 0 4-1.3v2q-1 .7-2 1-1 .3-2.3.3-1.8 0-2.9-.8-1-.7-1.8-2-.6-1.2-.6-2.8 0-2.5 1.4-4 1.4-1.6 3.6-1.6t3.4 1.5q1.3 1.5 1.3 4v.3zm-7.6-1.3h5.4q0-1.2-.8-2-.6-.6-1.8-.6-1.1 0-1.9.7-.7.7-1 2zm9.9-9.9h2v16.4h-2v-16.4zm12.4 0h2.1v16.4h-4.5q-2.4 0-3.8-1.5-1.5-1.5-1.5-4 0-2.4 1.5-4 1.5-1.5 3.9-1.5 1 0 2.3.5v-5.9zm0 14.6v-6.8q-1-.6-2-.6-1.6 0-2.6 1-.9 1.1-.9 2.9 0 1.7.8 2.6.5.5 1 .7.6.2 2 .2h1.7zm6-.8q.6 0 1 .4.5.4.5 1t-.4 1q-.5.4-1 .4-.6 0-1-.4-.5-.4-.5-1t.4-1q.4-.4 1-.4zm.2-8.4q.6 0 1 .4.5.5.5 1 0 .6-.4 1-.5.5-1 .5-.6 0-1-.4-.5-.5-.5-1 0-.6.4-1 .4-.5 1-.5zm14.9.2h2.4l-4.8 11h-.7l-4.9-11h2.3l3 6.7 2.7-6.7zm10.7 4.3v4.6q0 .6.4.6t1.2-.6v1.3q-.7.5-1.2.6-.4.2-.9.2-1.4 0-1.6-1-1.4 1-2.9 1-1.1 0-1.9-.8-.7-.7-.7-1.8 0-1 .7-1.9.7-.8 2.1-1.2l2.7-1v-.5q0-2-2-2-1.7 0-3.3 1.8v-2.3q1.2-1.5 3.6-1.5 1.7 0 2.8 1l.6.7q.3.5.3 1l.1 1.8zm-2 4.4v-3.2l-1.5.5q-1 .5-1.5 1-.5.3-.5 1t.4 1q.5.5 1.1.5 1 0 2-.8zm5.5-14.3h2.2v16.4h-2.1v-16.4zm12.2 16.4v-1.4q-.7.8-1.6 1.2-.8.4-1.7.4-1 0-1.9-.5-.9-.5-1.3-1.4-.4-.9-.4-2.9v-6.2h2.1v6.2q0 1.7.5 2.4.5.6 1.7.6 1.5 0 2.6-1.5v-7.7h2.1v10.8h-2.1zm14.3-5.2h-7.6q.1 1.6 1 2.5 1 .9 2.5.9 2.1 0 4-1.3v2q-1 .7-2 1-1 .3-2.3.3-1.8 0-2.9-.8-1-.7-1.8-2-.6-1.2-.6-2.8 0-2.5 1.4-4 1.4-1.6 3.6-1.6 2.1 0 3.4 1.5 1.3 1.5 1.3 4v.3zm-7.5-1.3h5.4q0-1.2-.8-2-.6-.6-1.8-.6-1.1 0-1.9.7-.7.7-1 2z" font-size="24" font-family="GillSans" fill="#2a86c0"/><g font-size="24" font-family="Inconsolata"><path d="M12.3 32.9q-1.2 0-2.2-.7-1-.6-1.7-2-.6-1.3-.6-3.1 0-2 .6-3.2.7-1.3 1.8-1.9 1-.6 2.2-.6 1.1 0 2 .5.8.5 1.2 1.4v-6.6h1.8v.2l-.2.3V32l.3.7h-1.7l-.3-.8v-1q-.5 1-1.3 1.5-.9.5-1.9.5zm.3-1.5q1.5 0 2.2-1.2.7-1.2.7-3 0-2-.8-3.2-.8-1.2-2.3-1.2-1.4 0-2.2 1.1-.7 1-.7 2.9 0 2.1.7 3.4.9 1.2 2.4 1.2zM25 33q-1 0-1.7-.5-.9-.5-1.5-1.3l-.6 1.5h-1v-16H22v.2l-.2.3v6.2q.5-1 1.4-1.4 1-.6 1.8-.6 2.1 0 3.3 1.5 1.3 1.4 1.3 4.2 0 1.8-.7 3.2-.6 1.3-1.7 2-1 .6-2.2.6zm-.1-1.6q1.3 0 2.1-1 .9-1 .9-3.2T27 24q-.8-1-2.2-1-1.3 0-2.2 1.1-.8 1.2-.8 3.1 0 4.2 3 4.2zM36.4 33q-.6 0-1-.5-.4-.4-.4-1 0-.5.4-1 .4-.3 1-.3t1 .4q.4.4.4 1 0 .5-.4 1-.4.3-1 .3z" fill="#06345e"/><path d="M48 33q-1.7 0-2.8-1.4-1-1.2-1-3.8v-6.1H46v6.1q0 2 .7 2.9.7.8 1.8.8 1.3 0 2.1-1 .9-1 .9-2.8v-6H53V32l.2.7h-1.7l-.2-.8v-1q-.5 1-1.4 1.5-1 .5-2 .5zm13.5-6.8q2 .6 2.9 1.4.9.7.9 1.9 0 1.5-1.2 2.4-1.2 1-3.4 1-2.8 0-4.6-1.7l1-1.7q.7 1 1.5 1.5t2.2.5q1.3 0 2-.5t.7-1.3q0-.7-.6-1.1-.6-.5-2.1-1-4.1-1.2-4.1-3.4 0-1.3 1-2 1-.8 3-.8 1.5 0 2.5.5 1 .4 1.9 1.3l-1 1.2q-.6-.8-1.5-1.2-.9-.5-1.9-.5-1 0-1.7.4-.6.3-.6 1 0 .6.7 1 .6.6 2.4 1.1zm2.3-1.8q0-.1.2 0v.1h-.2zm.3 0v.1H64v-.1zm-6.8 5q0 .1-.2 0h.2zm-.3.1v-.1.1zm16.2 3.4q-2.4 0-3.9-1.5Q68 30 68 27.2q0-1.8.6-3 .7-1.4 1.8-2 1.2-.8 2.6-.8 2 0 3.2 1.3 1.3 1.4 1.3 4v.7h-7.9q.1 2 1.2 3 1 1.1 2.6 1.1 1.7 0 2.8-1.2l1 1q-1.4 1.6-3.9 1.6zm2.4-6.8q0-1.6-.8-2.4-.7-1-2-1-1.2 0-2.1.9-.9.8-1.1 2.5h6zM89 24q-.8-.7-1.3-.9-.4-.2-1-.2-.9 0-1.7.4-.7.5-1.2 1.4-.5.8-.5 2.1v5.9h-1.8v-11h1.8v2q.5-1 1.4-1.7 1-.6 2-.6 1.8 0 3 1.2l-.8 1.4zm0 0v.1h-.1V24zm-.3 0h.2v.2l-.2-.1zm8.8 2.2q2 .6 2.9 1.4.9.7.9 1.9 0 1.5-1.2 2.4-1.2 1-3.4 1-2.8 0-4.6-1.7l1-1.7q.7 1 1.5 1.5t2.2.5q1.3 0 2-.5t.7-1.3q0-.7-.6-1.1-.6-.5-2.1-1-4.1-1.2-4.1-3.4 0-1.3 1-2 1-.8 3-.8 1.5 0 2.5.5 1 .4 1.9 1.3l-1 1.2q-.6-.8-1.5-1.2-.9-.5-1.9-.5-1 0-1.7.4-.6.3-.6 1 0 .6.7 1 .6.6 2.4 1.1zm2.3-1.8q0-.1.2 0v.1h-.2zm.3 0v.1h-.1v-.1zm-6.8 5q0 .1-.2 0h.2zm-.3.1v-.1.1z" fill="#2a86c0"/><path d="M108.4 33q-.6 0-1-.5-.4-.4-.4-1 0-.5.4-1 .4-.3 1-.3t1 .4q.4.4.4 1 0 .5-.4 1-.4.3-1 .3zm8.6-.3v-1.4h2.9V23h-2.7v-1.4h4.4v9.6h2.6v1.4h-7.1zm3.7-13.3q-.5 0-.9-.4-.4-.3-.4-.8 0-.6.4-1 .3-.3.9-.3.5 0 .8.4.4.4.4.9t-.4.8q-.3.4-.8.4zm7.7 2.3h1.7v2q.6-1 1.6-1.7 1-.6 2.1-.6 1.5 0 2.3 1.2 1 1 1 3.4v6.7h-1.7V26q0-1.7-.6-2.4-.5-.8-1.5-.8-.7 0-1.5.5-.7.4-1.2 1.2-.5.8-.5 1.7v6.4h-1.7v-11zm17.1 4.5q2 .6 2.9 1.4.9.7.9 1.9 0 1.5-1.2 2.4-1.2 1-3.4 1-2.8 0-4.6-1.7l1-1.7q.7 1 1.5 1.5t2.2.5q1.3 0 2-.5t.7-1.3q0-.7-.6-1.1-.6-.5-2.1-1-4.1-1.2-4.1-3.4 0-1.3 1-2 1-.8 3-.8 1.5 0 2.5.5 1 .4 1.9 1.3l-1 1.2q-.6-.8-1.5-1.2-.9-.5-1.9-.5-1 0-1.7.4-.6.3-.6 1 0 .6.7 1 .6.6 2.4 1.1zm2.3-1.8q0-.1.2 0v.1h-.2zm.3 0v.1h-.1v-.1zm-6.8 5q0 .1-.2 0h.2zm-.3.1v-.1.1zm16.2 3.4q-2.4 0-3.9-1.5-1.4-1.5-1.4-4.2 0-1.8.6-3 .7-1.4 1.8-2 1.2-.8 2.6-.8 2 0 3.2 1.3 1.3 1.4 1.3 4v.7h-7.9q.1 2 1.2 3 1 1.1 2.6 1.1 1.7 0 2.8-1.2l1 1q-1.4 1.6-3.9 1.6zm2.4-6.8q0-1.6-.8-2.4-.7-1-2-1-1.2 0-2.1.9-.9.8-1.1 2.5h6zM173 24q-.8-.7-1.3-.9-.4-.2-1-.2-.9 0-1.7.4-.7.5-1.2 1.4-.5.8-.5 2.1v5.9h-1.8v-11h1.8v2q.5-1 1.4-1.7 1-.6 2-.6 1.8 0 3 1.2l-.8 1.4zm0 0v.1h-.1V24zm-.3 0h.2v.2l-.2-.1zm12.6 7.6q-1.5 1.2-3.4 1.2t-2.6-1q-.8-1.2-.8-3.7v-1.4l.3-3.6h-2.4v-1.4h2.5l.2-3 1.9-.3h.2v.2l-.2.4-.1.5-.3 2.2h3.7V23h-3.8l-.2 3.7V28q0 2 .4 2.6.4.7 1.4.7.8 0 1.4-.3.6-.2 1.3-.8l.5 1.3zm22.9 5.2q-2-.9-3.5-2.5-1.5-1.5-2.3-3.5-.8-2-.8-4.1 0-2.2.8-4.1.8-2 2.2-3.5 1.5-1.5 3.4-2.4l.5 1.5q-2.4 1.3-3.8 3.6t-1.4 5q0 2.6 1.5 5 1.4 2.3 3.8 3.6l-.4 1.4z" fill="#06345e"/><path d="M51.6 62.5q-1.8 0-3-.4-1-.3-1.6-1.3-.6-.9-.5-2.5l.1-2.4q0-1.5-.5-2.1-.6-.6-1.7-.6H44v-1.4h.4q1.1 0 1.7-.6.6-.6.6-2l-.1-1.7q0-4.1 4.4-4.1h1.5v1.3h-2q-2.2 0-2.2 2.6V49q0 2.6-2 3.5 2 .7 2 3.7v2q0 1.7.6 2.3.7.6 2.3.6h1.3v1.4h-.9zm16.8 11.2h1.7v2q.6-1 1.6-1.7 1-.6 2.1-.6 1.5 0 2.3 1.2 1 1 1 3.4v6.7h-1.7V78q0-1.7-.6-2.4-.5-.8-1.5-.8-.7 0-1.5.5-.7.4-1.2 1.2-.5.8-.5 1.7v6.4h-1.7v-11zm16.1-.3q2.4 0 3.6 1.3 1.3 1.2 1.3 4.1v5.9h-1.9V83q-1 2-3.7 2-1.9 0-2.9-.9-1-.8-1-2.2 0-1.2.7-2 .8-.9 2-1.3 1.3-.5 2.8-.5l2.5.1q-.2-1.8-1-2.6-.8-.7-2.5-.7-.8 0-1.6.3-.7.3-1.3.9l-.9-1.1q1.6-1.6 4-1.6zM84 83.6q1.8 0 2.8-1 1-1 1.2-3-1.1-.2-2.4-.2-1.8 0-2.8.6-1.1.6-1.1 1.8 0 1.8 2.3 1.8zm7.6-9.9h1.6v1q.4-.5 1-.9t1.2-.4q.7 0 1.3.5.5.4.7 1.1.3-.7 1-1.1.6-.5 1.4-.5 1.1 0 1.6.8.6.8.5 2v8.5h-1.5v-7.8q0-1.4-.3-1.8-.3-.4-.8-.4-.4 0-.8.4l-.7 1-.2 1.3v7.3H96V77q0-1.3-.3-1.8-.2-.5-1-.5-.3 0-.7.4l-.6.9q-.2.6-.2 1.3v7.4h-1.6v-11zm17.6 11.2q-2.4 0-3.9-1.5-1.4-1.5-1.4-4.2 0-1.8.6-3 .7-1.4 1.8-2 1.2-.8 2.6-.8 2 0 3.2 1.3 1.3 1.4 1.3 4v.7h-7.9q.1 2 1.2 3 1 1.1 2.6 1.1 1.7 0 2.8-1.2l1 1q-1.4 1.6-3.9 1.6zm2.4-6.8q0-1.6-.8-2.4-.7-1-2-1-1.2 0-2.1.9-.9.8-1.1 2.5h6zm8.8-.8q-.5 0-1-.4-.4-.5-.4-1 0-.6.4-1t1-.4q.6 0 1 .4t.4 1q0 .5-.4 1-.4.4-1 .4zm0 7.6q-.6 0-1-.4t-.4-1q0-.5.4-1 .4-.3 1-.3t1 .4q.4.4.4 1 0 .5-.4 1-.4.3-1 .3zm23.5-16.2l-.1 3-.2 2-.1 1.2h-1.2l-.1-1.2-.2-2v-3h1.9zm3.6 0l-.1 3-.2 2-.1 1.2h-1.2l-.1-1.2-.2-2v-3h1.9zm10 9.5q2 .6 2.9 1.4.9.7.9 1.9 0 1.5-1.2 2.4-1.2 1-3.4 1-2.8 0-4.6-1.7l1-1.7q.7 1 1.5 1.5t2.2.5q1.3 0 2-.5t.7-1.3q0-.7-.6-1.1-.6-.5-2.1-1-4.1-1.2-4.1-3.4 0-1.3 1-2 1-.8 3-.8 1.5 0 2.5.5 1 .4 1.9 1.3l-1 1.2q-.6-.8-1.5-1.2-.9-.5-1.9-.5-1 0-1.7.4-.6.3-.6 1 0 .6.7 1 .6.6 2.4 1.1zm2.3-1.8q0-.1.2 0v.1h-.2zm.3 0v.1h-.1v-.1zm-6.8 5q0 .1-.2 0h.2zm-.3.1v-.1.1zm15 3.5q-1.7 0-2.8-1.4-1-1.2-1-3.8v-6.1h1.7v6.1q0 2 .7 2.9.7.8 1.8.8 1.3 0 2.1-1 .9-1 .9-2.8v-6h1.7V84l.2.7h-1.7l-.2-.8v-1q-.5 1-1.4 1.5-1 .5-2 .5zm13.2-.1q-2.4 0-3.9-1.5-1.4-1.5-1.4-4.2 0-1.8.6-3 .7-1.4 1.8-2 1.2-.8 2.6-.8 2 0 3.2 1.3 1.3 1.4 1.3 4v.7h-7.9q.1 2 1.2 3 1 1.1 2.6 1.1 1.7 0 2.8-1.2l1 1q-1.4 1.6-3.9 1.6zm2.4-6.8q0-1.6-.8-2.4-.7-1-2-1-1.2 0-2.1.9-.9.8-1.1 2.5h6zm8.3-9.4l-.1 3-.2 2-.1 1.2h-1.2l-.1-1.2-.2-2v-3h1.9zm3.6 0l-.1 3-.2 2-.1 1.2h-1.2l-.1-1.2-.2-2v-3h1.9zm7.2 19.3l1-1.4q.5-.7.5-1.2l-.1-.3-.4-.4-.5-.6q-.2-.2-.2-.5 0-.6.4-1t1-.4q.7 0 1.1.6.5.5.5 1.4 0 1.8-2.5 4.5l-.8-.7zM72.5 99.4q2.4 0 3.6 1.3 1.3 1.2 1.3 4.1v5.9h-1.9V109q-1 2-3.7 2-1.9 0-2.9-.9-1-.8-1-2.2 0-1.2.7-2 .8-.9 2-1.3 1.3-.5 2.8-.5l2.5.1q-.2-1.8-1-2.6-.8-.7-2.5-.7-.8 0-1.6.3-.7.3-1.3.9l-.9-1.1q1.6-1.6 4-1.6zm-.6 10.2q1.8 0 2.8-1 1-1 1.2-3-1.1-.2-2.4-.2-1.8 0-2.8.6-1.1.6-1.1 1.8 0 1.8 2.3 1.8zm18.1-8.8h-.5q-1.2 0-2 .5.5.8.5 1.8t-.5 2q-.5.8-1.4 1.3-.8.5-2 .5-.9 0-1.7-.3-.4.5-.4 1 0 .6.7.8.7.3 2.6.3 2.4 0 3.2.7.9.7.9 2 0 1.5-1.2 2.4-1.1 1-3.6 1-2.3 0-3.7-.7-1.3-.8-1.3-2.1 0-1 .5-1.5.5-.7 1.2-1-.8-.5-.8-1.5t1-2q-.6-.5-1-1.3-.2-.7-.2-1.6 0-1 .4-2 .5-.8 1.4-1.3.9-.5 2-.5 1.8 0 2.8 1.1l1.2-.8q.6-.2 1.4-.2h.4l.2 1.4zm-5.9 4.7q1 0 1.7-.7t.7-1.7q0-1-.7-1.7t-1.7-.7q-1 0-1.7.7t-.7 1.7q0 1 .7 1.7t1.7.7zm3.7 6.2q0-.5-.2-.9-.2-.3-.8-.4-.6-.2-1.8-.2-1.7 0-2.8-.3-.6.4-.8.8-.2.4-.2 1 0 .9.9 1.3 1 .5 2.5.5 1.6 0 2.4-.5.8-.4.8-1.3zm9.4-.8q-2.4 0-3.9-1.5-1.4-1.5-1.4-4.2 0-1.8.6-3 .7-1.4 1.8-2 1.2-.8 2.6-.8 2 0 3.2 1.3 1.3 1.4 1.3 4v.7h-7.9q.1 2 1.2 3 1 1.1 2.6 1.1 1.7 0 2.8-1.2l1 1q-1.4 1.6-3.9 1.6zm2.4-6.8q0-1.6-.8-2.4-.7-1-2-1-1.2 0-2.1.9-.9.8-1.1 2.5h6zm8.8-.8q-.5 0-1-.4-.4-.5-.4-1 0-.6.4-1t1-.4q.6 0 1 .4t.4 1q0 .5-.4 1-.4.4-1 .4zm0 7.6q-.6 0-1-.4t-.4-1q0-.5.4-1 .4-.3 1-.3t1 .4q.4.4.4 1 0 .5-.4 1-.4.3-1 .3zm20-1.6l2-2q2-1.9 2.9-3 1-1.1 1.6-2.2.5-1 .5-2.3 0-1.4-.7-2-.7-.7-1.8-.7-1 0-2 .4-.8.5-1 1l-.4.6-.1.3h.2v.2l-.3-.1-1.2-1q.7-1.4 2-2.1 1.2-.8 2.8-.8 1.9 0 3 1.2 1.3 1.1 1.3 3 0 1.4-.7 2.6-.6 1.2-1.6 2.3l-2.7 2.8-1.6 1.7h6.1l.4-.2h.1v1.7h-8.8v-1.4zm16.7-8.3q1.2 0 2 .6 1 .6 1.6 1.8.5 1 .5 2.5t-.5 2.6q-.6 1.1-1.6 1.8-1 .6-2.1.6-2.3 0-3.5-1.9-1.2-1.9-1.2-5.2 0-2.6.6-4.5.7-1.8 1.9-2.8 1.2-1 2.8-1 1.9 0 3.3 1.4l-1 1.2h-.1q-.5-.6-1-.8-.5-.3-1.2-.3-.8 0-1.6.5t-1.4 1.8q-.6 1.3-.6 3.5.5-.8 1.3-1.3.9-.5 1.8-.5zm2.4-2.8q0-.2.2 0v.1l-.2-.1zm.3 0q.1.1 0 0zm-2.8 11.2q1.1 0 1.9-.9.7-1 .7-2.6 0-1.1-.4-1.9-.4-.8-1-1.1-.6-.4-1.2-.4-.9 0-1.7.5-.7.6-1.2 1.5l-.1.6q0 1 .4 2 .3 1 1 1.7.7.6 1.6.6zm9.7 4.6l1-1.4q.5-.7.5-1.2l-.1-.3-.4-.4-.5-.6q-.2-.2-.2-.5 0-.6.4-1t1-.4q.7 0 1.1.6.5.5.5 1.4 0 1.8-2.5 4.5l-.8-.7zm-81.2 16.2q2 .6 2.9 1.4.9.7.9 1.9 0 1.5-1.2 2.4-1.2 1-3.4 1-2.8 0-4.6-1.7l1-1.7q.7 1 1.5 1.5t2.2.5q1.3 0 2-.5t.7-1.3q0-.7-.6-1.1-.6-.5-2.1-1-4.1-1.2-4.1-3.4 0-1.3 1-2 1-.8 3-.8 1.5 0 2.5.5 1 .4 1.9 1.3l-1 1.2q-.6-.8-1.5-1.2-.9-.5-1.9-.5-1 0-1.7.4-.6.3-.6 1 0 .6.7 1 .6.6 2.4 1.1zm2.3-1.8q0-.1.2 0v.1h-.2zm.3 0v.1H76v-.1zm-6.8 5q0 .1-.2 0h.2zm-.3.1v-.1.1zm20.3 2.1q-1.5 1.2-3.4 1.2t-2.6-1q-.8-1.2-.8-3.7v-1.4l.3-3.6h-2.4v-1.4h2.5l.2-3 1.9-.3h.2v.2l-.2.4-.1.5-.3 2.2h3.7v1.4h-3.8l-.2 3.7v1.3q0 2 .4 2.6.4.7 1.4.7.8 0 1.4-.3.6-.2 1.3-.8l.5 1.3zm7.2-10.2q2.4 0 3.6 1.3 1.3 1.2 1.3 4.1v5.9h-1.9V135q-1 2-3.7 2-1.9 0-2.9-.9-1-.8-1-2.2 0-1.2.7-2 .8-.9 2-1.3 1.3-.5 2.8-.5l2.5.1q-.2-1.8-1-2.6-.8-.7-2.5-.7-.8 0-1.6.3-.7.3-1.3.9l-.9-1.1q1.6-1.6 4-1.6zm-.6 10.2q1.8 0 2.8-1 1-1 1.2-3-1.1-.2-2.4-.2-1.8 0-2.8.6-1.1.6-1.1 1.8 0 1.8 2.3 1.8zm17.4 0q-1.5 1.2-3.4 1.2t-2.6-1q-.8-1.2-.8-3.7v-1.4l.3-3.6h-2.4v-1.4h2.5l.2-3 1.9-.3h.2v.2l-.2.4-.1.5-.3 2.2h3.7v1.4h-3.8l-.2 3.7v1.3q0 2 .4 2.6.4.7 1.4.7.8 0 1.4-.3.6-.2 1.3-.8l.5 1.3zm6.7 1.4q-1.7 0-2.8-1.4-1-1.2-1-3.8v-6.1h1.7v6.1q0 2 .7 2.9.7.8 1.8.8 1.3 0 2.1-1 .9-1 .9-2.8v-6h1.7V136l.2.7h-1.7l-.2-.8v-1q-.5 1-1.4 1.5-1 .5-2 .5zm13.5-6.8q2 .6 2.9 1.4.9.7.9 1.9 0 1.5-1.2 2.4-1.2 1-3.4 1-2.8 0-4.6-1.7l1-1.7q.7 1 1.5 1.5t2.2.5q1.3 0 2-.5t.7-1.3q0-.7-.6-1.1-.6-.5-2.1-1-4.1-1.2-4.1-3.4 0-1.3 1-2 1-.8 3-.8 1.5 0 2.5.5 1 .4 1.9 1.3l-1 1.2q-.6-.8-1.5-1.2-.9-.5-1.9-.5-1 0-1.7.4-.6.3-.6 1 0 .6.7 1 .6.6 2.4 1.1zm2.3-1.8q0-.1.2 0v.1h-.2zm.3 0v.1h-.1v-.1zm-6.8 5q0 .1-.2 0h.2zm-.3.1v-.1.1zm15.4-4.2q-.5 0-1-.4-.4-.5-.4-1 0-.6.4-1t1-.4q.6 0 1 .4t.4 1q0 .5-.4 1-.4.4-1 .4zm0 7.6q-.6 0-1-.4t-.4-1q0-.5.4-1 .4-.3 1-.3t1 .4q.4.4.4 1 0 .5-.4 1-.4.3-1 .3zm23.5-16.2l-.1 3-.2 2-.1 1.2h-1.2l-.1-1.2-.2-2v-3h1.9zm3.6 0l-.1 3-.2 2-.1 1.2h-1.2l-.1-1.2-.2-2v-3h1.9zm13.1 16l-1.5-4.4h-4.9l-1.5 4.4h-1.6l5.5-15.3h.2l5.5 15.3h-1.7zm-5.9-5.7h4l-2-5.7-2 5.7zm13.2-10.3l-.1 3-.2 2-.1 1.2h-1.2l-.1-1.2-.2-2v-3h1.9zm3.6 0l-.1 3-.2 2-.1 1.2h-1.2l-.1-1.2-.2-2v-3h1.9zM44 166.5V165h1.2q1.7 0 2.4-.6t.7-2.3l-.1-2q0-3 2-3.7-2-.9-2-3.5v-1.7q0-2.6-2.2-2.6h-2v-1.3h1.5q4.4 0 4.4 4.1v1.8q0 1.3.5 2 .5.5 1.7.5h.4v1.4H52q-1 0-1.6.6-.5.6-.5 2v2.5q.1 1.6-.4 2.5-.5 1-1.7 1.3-1.1.4-3 .4H44z" fill="#2a86c0"/><path d="M9.4 191.4q2.5-1.3 3.9-3.6 1.4-2.4 1.4-5 0-2.7-1.4-5t-3.7-3.6l.4-1.5q2 1 3.4 2.4 1.5 1.6 2.2 3.5.8 2 .8 4 0 2.2-.8 4.2t-2.3 3.5Q12 192 10 192.8l-.5-1.4z" fill="#053056"/></g><path d="M602.9 354.4v.4" stroke="#5ca831" stroke-width="2" fill="none"/><path d="M429.3 50.7l2 1 3.5 1.8 2.7 2.2 1.6 2.2 1 2 .4 1.3V61l.5 1.9.6 4.1v7.1l-.5 7.5-.2 4.9.2 4.6.7 4 .7 2 .1.1.5.7 1.8 1.2 1.9 1 1 1v.3-.6l-.2 1-.9 1.8-1.5 2.6-1.5 3.5-.5 2.2v.2l-.3 3.4-.3 6.6-.2 6.2-.4 6-1 5.3-1.7 4.8-2 2.8-1.4 1.5-1.9 1.5-2.4 1.6-1.3.7c-1.3.8-2.5 2.2-2.5 3.3-.1 1.1.9 1.4 2.2.7l2-1.2 3.4-2.3 3-2.6 2.6-3 2.7-4.3 2-5.7 1-5.8.5-6 .1-6.3.3-6.4.3-3.3v.2-1l1.2-2.8 1.8-3.1 1.4-3.3.2-1V98l-.4-1-1.5-1.3-1.7-1-1.4-.8-.5-.6.1.2-.6-1.5-.7-3.8-.2-4.4.2-4.8.5-7.6v-7.5l-.6-4.4-.5-2-.6-1.4-1-2.2-2-2.6-3-2.3-3.5-1.9-2-1c-.8-.3-2.2.4-3.3 1.6-1 1.3-1.3 2.6-.5 3" fill="#311f13"/><path d="M473 85.5h2.2V102h-4.5q-2.4 0-3.8-1.5-1.5-1.5-1.5-4t1.5-4q1.5-1.5 3.8-1.5 1.1 0 2.4.4v-5.8zm0 14.6v-6.9q-1-.5-2-.5-1.5 0-2.5 1-1 1.1-1 2.9 0 1.6 1 2.6.4.5 1 .7.5.2 2 .2h1.6zm10.3-9.1q2.4 0 4 1.7 1.7 1.6 1.7 4 0 2.3-1.7 3.8-1.6 1.6-4.1 1.6-2.4 0-4-1.6-1.7-1.5-1.7-3.9t1.6-4q1.7-1.5 4.2-1.5zm-.1 2q-1.6 0-2.6 1t-1 2.6q0 1.5 1 2.5t2.7 1q1.5 0 2.5-1t1-2.5q0-1.6-1-2.6t-2.6-1zm16.2 6.4v2q-1.6.7-3.1.7-2.5 0-4-1.5-1.6-1.5-1.6-4 0-2.6 1.5-4.1 1.5-1.6 3.9-1.6.8 0 1.5.2.6.1 1.6.6v2.2q-1.6-1-3-1t-2.4 1q-.9 1-.9 2.6t1 2.6q1 1 2.7 1 1.2 0 2.8-.7zm9.3 2.5v-1.4q-.7.8-1.5 1.2-1 .4-1.8.4-1 0-1.9-.5-.8-.5-1.3-1.4-.4-.9-.4-3v-6h2.1v6q0 1.8.5 2.4.5.7 1.7.7 1.5 0 2.6-1.5v-7.7h2.1V102h-2zm14-7.9v7.9h-2.2v-6q0-1.8-.4-2.5-.5-.7-1.7-.7-.7 0-1.3.3l-1.2 1v7.9h-2.2V91h2.2v1.4q1.6-1.6 3.2-1.6 2 0 3.1 2 1.8-2 3.6-2 1.6 0 2.6 1.1 1 1.2 1 3.5v6.4h-2.1v-6.4q0-1.3-.6-2-.5-.8-1.5-.8-1.4 0-2.5 1.4zm18.8 2.7h-7.6q.1 1.5 1 2.5 1 .9 2.5.9 2.1 0 4-1.3v2q-1 .7-2 1-1 .3-2.3.3-1.8 0-2.9-.8-1-.7-1.8-2-.6-1.2-.6-2.9 0-2.4 1.4-4 1.4-1.5 3.6-1.5 2.1 0 3.4 1.5 1.3 1.5 1.3 4v.3zm-7.5-1.3h5.4q0-1.3-.8-2-.7-.6-1.8-.6t-1.9.6q-.7.7-1 2zm12-4.3v1.4q1.4-1.6 3.2-1.6 1 0 1.8.5 1 .5 1.4 1.5.4.9.4 2.8v6.2h-2.1v-6.1q0-1.7-.5-2.4t-1.7-.7q-1.5 0-2.6 1.5v7.7h-2.2V91h2.2zm8.3 1.7l4-4v2.3h3.4v2h-3.4v5.2q0 1.9 1.5 1.9 1.2 0 2.5-.8v2q-1.3.7-2.7.7-1.5 0-2.5-.9l-.5-.5-.3-.9-.1-2V93h-2v-.2z" font-size="24" font-family="GillSans" fill="#312013"/></svg>