<svg xmlns="http://www.w3.org/2000/svg" height="130" width="640"><path d="M13.9 15.6V9h1.9l-.2.4V25H14v-1.8q-.6 1-1.5 1.5-1 .5-1.9.5-.9 0-1.7-.3-.8-.4-1.4-1.1-.6-.7-1-1.8-.3-1.1-.3-2.6t.4-2.6q.4-1 1-1.7.7-.7 1.5-1 .8-.4 1.7-.4 1.1 0 2 .6.8.5 1.2 1.3zm-5.1.4q-1 1-1 3.1t.8 3.4q.7 1.2 2.3 1.2h.7l.8-.5.7-.6.4-.8q.3-.9.3-2.3l-.1-1.6q0-.6-.3-1l-.3-.7-.6-.5-.9-.4-.6-.1q-.7 0-1.2.2-.5.1-1 .6zm9.6-7h2v.3q-.2.1-.2.3v6.1q.5-.9 1.4-1.4 1-.5 1.9-.5.9 0 1.7.3.8.4 1.4 1 .6.8 1 1.8t.4 2.5q0 1.5-.4 2.6-.4 1-1 1.8-.7.7-1.5 1.1-.9.4-1.7.4-1 0-1.9-.5-.8-.4-1.4-1.2l-.6 1.4h-1V9zm3 14.3l.9.4h.6l1-.1q.7-.2 1.1-.7.5-.4.9-1.2.3-.8.3-2 0-2.1-.9-3.3-.9-1.1-2.6-1.1-.6 0-1.2.4-.7.4-1 1.1-.3.8-.3 2.4v1.7q0 .7.2 1.2l.4.7.6.5zm14.3-.3q.5.3.5.9 0 .5-.5 1-.4.4-1 .4t-1-.4q-.4-.4-.4-1t.4-1q.5-.4 1-.4.6 0 1 .4zm6.8-9h1.7v6.2q0 1 .2 1.7t.6 1.2q.3.4.8.6.4.2 1 .2.5 0 1-.3l1-.7q.4-.4.6-1.1.3-.7.3-1.7v-6h1.7v10q0 .5.2.9h-1.9v-1.7q-.5 1-1.4 1.5-1 .5-2 .5-.8 0-1.5-.3t-1.2-1q-.6-.6-.8-1.5-.3-1-.3-2.3V14zm20.9 1.5l-1 1.5q-.2 0-.2-.2v-.2q-.4-.6-1.2-1-.8-.5-1.8-.5l-1 .1-.7.3-.5.5q-.2.3-.2.7 0 .3.2.5l.4.4.9.5 1.5.4q2 .6 2.9 1.4.9.7.9 1.8 0 .7-.4 1.4-.3.6-.9 1.1-.6.5-1.4.8-.8.2-1.9.2-2.8 0-4.6-1.7l1-1.7v.2l.2.4.5.5 1.2.6.8.2 1 .1 1-.1.8-.4q.4-.2.6-.5.3-.3.3-.8 0-.6-.6-1t-2.1-.9l-1.4-.4-1.2-.6-.7-.6q-.4-.4-.5-.8l-.2-1q0-.6.3-1 .3-.6.8-1l1.4-.7q.8-.2 1.7-.2 2.5 0 4 1.7zm7.8-1.7q.9 0 1.7.3.8.3 1.4 1 .6.6 1 1.5.4 1 .4 2.4v.8h-7.9q0 1.1.4 2l.9 1.2 1.2.7 1.3.1q1.7 0 2.8-1.2l1 1q-1.4 1.6-3.9 1.6-1.2 0-2.2-.3-1-.4-1.7-1.1-.7-.7-1-1.8-.4-1-.4-2.4t.4-2.5q.4-1.1 1-1.8.7-.8 1.6-1.1 1-.4 2-.4zM68 18.4h6V18q0-.6-.2-1-.2-.6-.6-1l-.9-.7q-.5-.2-1.1-.2-1.1 0-2 .8-1 .8-1.2 2.5zM79.4 14h1.8v2.1q.4-1.1 1.5-1.7 1.1-.6 2.4-.6 1.7 0 2.9 1.2l-.8 1.6-.5-.6-.5-.4q-.2-.2-.5-.2l-.7-.1q-.8 0-1.5.3-.7.4-1.2 1l-.9 1.4q-.3.8-.3 1.7V25h-1.7V14zm20 1.5l-1 1.5q-.2 0-.2-.2v-.2q-.4-.6-1.2-1-.8-.5-1.8-.5l-1 .1-.7.3-.5.5q-.2.3-.2.7 0 .3.2.5l.4.4.9.5 1.5.4q2 .6 2.9 1.4.9.7.9 1.8 0 .7-.4 1.4-.3.6-.9 1.1-.6.5-1.4.8-.8.2-1.9.2-2.8 0-4.6-1.7l1-1.7v.2l.2.4.5.5 1.2.6.8.2 1 .1 1-.1.8-.4q.4-.2.6-.5.3-.3.3-.8 0-.6-.6-1t-2.1-.9l-1.4-.4-1.2-.6-.7-.6q-.4-.4-.5-.8l-.2-1q0-.6.3-1 .3-.6.8-1l1.4-.7q.8-.2 1.7-.2 2.5 0 4 1.7zm8.3 7.5q.5.3.5.9 0 .5-.5 1-.4.4-1 .4t-1-.4q-.4-.4-.4-1t.4-1q.5-.4 1-.4.6 0 1 .4zm6.8-9h1.7v6.2q0 1 .2 1.7t.6 1.2q.3.4.8.6.4.2 1 .2.5 0 1-.3l1-.7q.4-.4.6-1.1.3-.7.3-1.7v-6h1.7v10q0 .5.2.9h-1.9v-1.7q-.5 1-1.4 1.5-1 .5-2 .5-.8 0-1.5-.3t-1.2-1q-.6-.6-.8-1.5-.3-1-.3-2.3V14zm11.9 0h1.8v1.7q.5-.9 1.5-1.4.9-.5 1.8-.5 1 0 1.8.4.8.3 1.4 1 .7.7 1 1.7.4 1 .4 2.5t-.4 2.6q-.4 1-1 1.8-.7.7-1.5 1.1-.8.4-1.7.4-1 0-1.9-.5-.8-.4-1.4-1.2V29h-1.8V14zm1.8 6.4q0 1.8.8 2.6t1.9.8l1.2-.2q.6-.2 1.1-.7.5-.5.8-1.2.3-.8.3-2 0-2-.9-3.2-.8-1.2-2.4-1.2l-1 .1-1 .6-.6 1.1q-.2.7-.2 1.7v1.6zm17.7-4.8V9h1.9l-.2.4V25H146v-1.8q-.6 1-1.5 1.5-1 .5-1.9.5-.9 0-1.7-.3-.8-.4-1.4-1.1-.6-.7-1-1.8-.3-1.1-.3-2.6t.4-2.6q.4-1 1-1.7.7-.7 1.5-1 .8-.4 1.7-.4 1.1 0 2 .6.8.5 1.2 1.3zm-5.1.4q-1 1-1 3.1t.8 3.4q.7 1.2 2.3 1.2h.7l.8-.5.7-.6.4-.8q.3-.9.3-2.3l-.1-1.6q0-.6-.3-1l-.3-.7-.6-.5-.9-.4-.6-.1q-.7 0-1.2.2-.5.1-1 .6zm10.4-.7q1.4-1.5 3.9-1.5 2 0 3.2 1 1.1 1 1.1 3.4V25h-1.6v-1.2q-1.7 1.5-4 1.5-.8 0-1.5-.3t-1.1-.7q-.5-.4-.8-1l-.2-1q0-1.7 1.4-2.7 1.4-1 4.1-1h2V18q0-1.6-.6-2.2-.7-.7-2.1-.7-1.8 0-3 1.2l-.8-1zm6.7 4.6h-1.7l-2.1.1q-.9.2-1.4.5-.4.3-.6.7-.2.4-.2.9 0 .7.7 1.3.6.5 1.6.5.8 0 1.3-.2l1-.5.7-.7.4-.6q.3-.5.3-1.3v-.7zm7.6-8.8l2-.3-.2.4v.2L167 14h3.6v1.4H167l-.2 4v2q0 .8.2 1.2l.6.8q.4.2 1 .2 1.2 0 2.5-1l.6 1.4q-1.7 1.2-3.5 1.2-1.7 0-2.5-1t-.7-3.4v-2.2l.2-3.2h-2.5V14h2.6l.2-2.9zm13.7 2.7q.9 0 1.7.3.8.3 1.4 1 .6.6 1 1.5.4 1 .4 2.4v.8h-7.9q0 1.1.4 2l.9 1.2 1.2.7 1.3.1q1.7 0 2.8-1.2l1 1q-1.4 1.6-3.9 1.6-1.2 0-2.2-.3-1-.4-1.7-1.1-.7-.7-1-1.8-.4-1-.4-2.4t.4-2.5q.4-1.1 1-1.8.7-.8 1.6-1.1 1-.4 2-.4zm-3.3 4.6h6V18q0-.6-.2-1-.2-.6-.6-1l-.9-.7q-.5-.2-1.1-.2-1.1 0-2 .8-1 .8-1.2 2.5zm15.2 6.8q-1.2 0-2.2-.5-1-.6-1.7-1.6t-1.1-2.4q-.4-1.5-.4-3.2 0-1.7.4-3.2.4-1.4 1.1-2.4.7-1 1.7-1.5t2.2-.5q1.1 0 2 .4 1 .5 1.7 1.4.7 1 1.1 2.4.4 1.4.4 3.4 0 2.2-.5 3.7-.4 1.4-1.2 2.3-.7 1-1.6 1.4-1 .3-1.9.3zm-2.5-3q1.1 1.4 2.5 1.4.6 0 1.3-.3.6-.3 1.1-1 .5-.7.8-1.8.3-1.2.3-3t-.3-3q-.3-1-.9-1.8l-1-1q-.6-.2-1.3-.2-.7 0-1.3.2-.6.3-1.2 1-.6.6-1 1.7-.2 1.2-.2 3 0 1.6.3 2.9.3 1.2.9 2zm10 2.8V14h1.8v2q.6-1 1.6-1.6 1-.6 2-.6.7 0 1.3.2.7.3 1.1.8.5.6.7 1.4.3.9.3 2.2V25h-1.7v-6.6q0-1.7-.6-2.4t-1.5-.7l-1 .2q-.7.3-1.1.7-.5.4-.8 1-.3.7-.3 1.5V25h-1.8zm16.6-11.2q.9 0 1.7.3.8.3 1.4 1 .6.6 1 1.5.4 1 .4 2.4v.8h-7.9q0 1.1.4 2l.9 1.2 1.2.7 1.3.1q1.7 0 2.8-1.2l1 1q-1.4 1.6-3.9 1.6-1.2 0-2.2-.3-1-.4-1.7-1.1-.7-.7-1-1.8-.4-1-.4-2.4t.4-2.5q.4-1.1 1-1.8.7-.8 1.6-1.1 1-.4 2-.4zm-3.3 4.6h6V18q0-.6-.2-1-.2-.6-.6-1l-.9-.7q-.5-.2-1.1-.2-1.1 0-2 .8-1 .8-1.2 2.5zm19.1-7.9h-.5q-2.2 1.3-3.3 3.5-1.2 2.1-1.2 4.9 0 1.3.4 2.6.3 1.3 1 2.5t1.6 2.2q1 1 2.2 1.7l-.8 1.3q-1.4-.8-2.5-1.9-1.2-1-2-2.4-.7-1.4-1.2-2.9-.4-1.6-.4-3.2t.4-3.1q.5-1.5 1.3-2.8.8-1.3 1.9-2.3 1-1 2.5-1.6l.7 1.5h-.2z" font-size="24" font-family="Inconsolata" fill="#004571"/><path d="M42.5 14h1.7v6.2q0 1 .2 1.7t.6 1.2q.3.4.8.6.4.2 1 .2.5 0 1-.3l1-.7q.4-.4.6-1.1.3-.7.3-1.7v-6h1.7v10q0 .5.2.9h-1.9v-1.7q-.5 1-1.4 1.5-1 .5-2 .5-.8 0-1.5-.3t-1.2-1q-.6-.6-.8-1.5-.3-1-.3-2.3V14zm20.9 1.5l-1 1.5q-.2 0-.2-.2v-.2q-.4-.6-1.2-1-.8-.5-1.8-.5l-1 .1-.7.3-.5.5q-.2.3-.2.7 0 .3.2.5l.4.4.9.5 1.5.4q2 .6 2.9 1.4.9.7.9 1.8 0 .7-.4 1.4-.3.6-.9 1.1-.6.5-1.4.8-.8.2-1.9.2-2.8 0-4.6-1.7l1-1.7v.2l.2.4.5.5 1.2.6.8.2 1 .1 1-.1.8-.4q.4-.2.6-.5.3-.3.3-.8 0-.6-.6-1t-2.1-.9l-1.4-.4-1.2-.6-.7-.6q-.4-.4-.5-.8l-.2-1q0-.6.3-1 .3-.6.8-1l1.4-.7q.8-.2 1.7-.2 2.5 0 4 1.7zm7.8-1.7q.9 0 1.7.3.8.3 1.4 1 .6.6 1 1.5.4 1 .4 2.4v.8h-7.9q0 1.1.4 2l.9 1.2 1.2.7 1.3.1q1.7 0 2.8-1.2l1 1q-1.4 1.6-3.9 1.6-1.2 0-2.2-.3-1-.4-1.7-1.1-.7-.7-1-1.8-.4-1-.4-2.4t.4-2.5q.4-1.1 1-1.8.7-.8 1.6-1.1 1-.4 2-.4zM68 18.4h6V18q0-.6-.2-1-.2-.6-.6-1l-.9-.7q-.5-.2-1.1-.2-1.1 0-2 .8-1 .8-1.2 2.5zM79.4 14h1.8v2.1q.4-1.1 1.5-1.7 1.1-.6 2.4-.6 1.7 0 2.9 1.2l-.8 1.6-.5-.6-.5-.4q-.2-.2-.5-.2l-.7-.1q-.8 0-1.5.3-.7.4-1.2 1l-.9 1.4q-.3.8-.3 1.7V25h-1.7V14zm20 1.5l-1 1.5q-.2 0-.2-.2v-.2q-.4-.6-1.2-1-.8-.5-1.8-.5l-1 .1-.7.3-.5.5q-.2.3-.2.7 0 .3.2.5l.4.4.9.5 1.5.4q2 .6 2.9 1.4.9.7.9 1.8 0 .7-.4 1.4-.3.6-.9 1.1-.6.5-1.4.8-.8.2-1.9.2-2.8 0-4.6-1.7l1-1.7v.2l.2.4.5.5 1.2.6.8.2 1 .1 1-.1.8-.4q.4-.2.6-.5.3-.3.3-.8 0-.6-.6-1t-2.1-.9l-1.4-.4-1.2-.6-.7-.6q-.4-.4-.5-.8l-.2-1q0-.6.3-1 .3-.6.8-1l1.4-.7q.8-.2 1.7-.2 2.5 0 4 1.7zM38.8 54.3l.1-2.4q0-1.6-.6-2.2-.5-.5-1.5-.5h-.5v-1.4h.4q1.1 0 1.7-.6.6-.6.6-2v-1.7q0-4.1 4.3-4.1h1.5v1.3h-2q-2.2 0-2.2 2.6V45q0 2.6-2 3.5 2 .7 2 3.7v2q0 1.7.6 2.3.7.6 2.3.6h1.3v1.4h-.9l-2-.1q-1-.1-1.7-.6-1.4-1.1-1.4-3.5zM61.2 45q1.4-1.6 3.9-1.6 2 0 3.2 1 1.1 1 1.1 3.5v6.8h-1.6v-1.2q-1.7 1.4-4 1.4-.8 0-1.5-.2-.7-.3-1.1-.7l-.8-1-.2-1.1q0-1.7 1.4-2.6 1.4-1 4.1-1.1h2v-.4q0-1.6-.6-2.3-.7-.6-2.1-.6-1.8 0-3 1.2l-.8-1.1zm6.7 4.5h-1.7q-1.3 0-2.1.2-.9.2-1.4.5-.4.3-.6.7l-.2.8q0 .8.7 1.3.6.6 1.6.6.8 0 1.3-.2l1-.6.7-.6.4-.7q.3-.4.3-1.3v-.7zm6.8-4.1l-.5.8q-.2.4-.2 1l.2.9.5.7.8.5q.4.2 1 .2l.9-.2.7-.5q.4-.3.6-.8l.1-.9-.1-.9-.6-.8-.8-.5q-.4-.2-.9-.2-1 0-1.7.7zm4.4-1q1.2-1 2.8-1h.3l.2 1.4h-.6q-1.1 0-2 .5.6.8.6 1.8 0 .8-.3 1.5t-.9 1.2q-.5.5-1.2.8-.7.3-1.6.3-.6 0-1.3-.3-.8.8-.8 1.3 0 .4.4.6.5.3 1.3.3h1l.8-.1q1.1 0 1.9.2.8.2 1.3.6.4.3.7.8.2.5.2 1.1 0 .7-.3 1.3-.3.6-1 1-.6.5-1.5.8-1 .3-2.2.3-1.3 0-2.3-.2-1-.2-1.5-.6-.6-.3-.9-.8-.3-.5-.3-1 0-1.3 1.8-2.4-.9-.5-.9-1.5t1.3-2.1q-.8-.5-1.2-1.3-.5-.8-.5-1.7 0-.8.4-1.5.3-.7.9-1.2.5-.6 1.3-.9.7-.3 1.5-.3 1.6 0 2.6 1zM75 54q-1.4.7-1.4 1.7 0 .4.3.8.2.3.7.5l1.1.3H77q1.4 0 2.4-.4 1-.6 1-1.5-.1-.6-.6-1-.5-.3-1.6-.3h-2.1L75 54zm14.2-10.6q.9 0 1.7.3.8.3 1.4 1 .6.6 1 1.6t.4 2.3v.8h-7.9q0 1.2.4 2l.9 1.2q.5.5 1.2.7.6.2 1.3.2 1.7 0 2.8-1.2l1 1q-1.4 1.6-3.9 1.6-1.2 0-2.2-.4-1-.3-1.7-1-.7-.8-1-1.8-.4-1.1-.4-2.5t.4-2.5q.4-1 1-1.8.7-.7 1.6-1 1-.5 2-.5zM86 48.1h6v-.4q0-.6-.2-1.1-.2-.6-.6-1-.4-.4-.9-.6-.5-.3-1.1-.3-1.1 0-2 .9-1 .8-1.2 2.5zm27.7-3.1q.5.3.5.9 0 .5-.5 1-.4.4-1 .4-.5 0-1-.4-.4-.5-.4-1 0-.6.4-1 .5-.4 1-.4.6 0 1 .4zm0 7.6q.5.4.5 1 0 .5-.5 1-.4.3-1 .3t-1-.4q-.4-.4-.4-1 0-.5.4-1 .5-.3 1-.3.6 0 1 .4zm21.1 1.7l.1-2.4q0-1.6-.6-2.2-.5-.5-1.5-.5h-.5v-1.4h.4q1.1 0 1.7-.6.6-.6.6-2v-1.7q0-4.1 4.3-4.1h1.5v1.3h-2q-2.2 0-2.2 2.6V45q0 2.6-2 3.5 2 .7 2 3.7v2q0 1.7.6 2.3.7.6 2.3.6h1.3v1.4h-.9l-2-.1q-1-.1-1.7-.6-1.4-1.1-1.4-3.5zM160.6 39h1.6v.3l-.2.2v1q2.3.2 3.6 1.8l-1 1.3-.2-.2V43q-1-1-2.4-1.2v4.6l1.8.7 1.3.8q.5.4.7 1 .2.6.2 1.3l-.2 1.4-.8 1.2q-.5.5-1.3.9-.7.4-1.7.5v1.5h-1.4v-1.5q-2.6-.2-4.2-1.9l1-1.4q.2 0 .2.2v.3q1.2 1.3 3 1.4v-5.3q-1.8-.6-2.8-1.4-.9-1-.9-2.2 0-.7.3-1.3.2-.6.7-1 .5-.5 1.2-.8.7-.3 1.5-.4V39zm1.4 9.1v4.8q1.2-.2 1.8-1 .7-.7.7-1.5 0-.9-.6-1.4-.6-.5-1.9-.9zm-1.4-2.1v-4.2q-1 .2-1.6.7-.5.6-.5 1.3 0 1.3 2.1 2.2zm8.4-7.3h4.9v14.6h3.2v1.4h-8.2v-1.4h3.2V40h-3v-1.4zm14.5 2.1l2-.4q0 .3-.2.4v.3l-.3 2.6h3.6V45H185l-.2 4v2q0 .7.2 1.2l.6.7q.4.3 1 .3 1.2 0 2.5-1l.6 1.3Q188 55 186.2 55q-1.7 0-2.5-1-.8-1.1-.7-3.5v-2.2l.2-3.1h-2.5v-1.4h2.6l.2-3zm26.2 4.2q.5.3.5.9 0 .5-.5 1-.4.4-1 .4-.5 0-1-.4-.4-.5-.4-1 0-.6.4-1 .5-.4 1-.4.6 0 1 .4zm0 7.6q.5.4.5 1 0 .5-.5 1-.4.3-1 .3t-1-.4q-.4-.4-.4-1 0-.5.4-1 .5-.3 1-.3.6 0 1 .4zm24.5-12.9v15h-1.7v-13l-3 1-.4-1 4-2h1zM249 43q0 1.1-.6 2.1t-1.7 1.6q1.3.6 2 1.7.9 1.1.9 2.4 0 .9-.4 1.6-.3.8-1 1.3-.6.6-1.4.9-.8.3-1.8.3t-1.8-.3q-.8-.3-1.5-.9-.6-.5-1-1.2-.3-.8-.3-1.6 0-1.3.9-2.4.8-1.2 2.1-1.8-1-.5-1.6-1.5-.6-1-.6-2 0-.8.3-1.4.3-.7.8-1.2.6-.5 1.3-.8.7-.3 1.6-.3.8 0 1.5.3t1.3.8q.5.4.8 1.1.3.6.3 1.4zm-4.3 4.4q-1 .4-1.8 1.4-.7.8-.7 2l.2 1 .6.8q.4.4 1 .6.4.2 1 .2l1.2-.2q.5-.2.9-.6l.6-.8.2-1q0-1.1-.9-2-.8-1-2.3-1.4zm-1.5-3l.7.8 1.1.6.4.3q.9-.5 1.5-1.3.5-.8.5-1.7l-.1-.8-.5-.7-.8-.5q-.4-.2-1-.2l-.9.2-.7.5-.5.6-.1.8q0 .8.4 1.4zm27.9-.9v1.8q0 1.3.5 2 .6.5 1.7.5h.5v1.4h-.6q-1 0-1.5.5-.6.6-.6 2.2v2.4q0 2.1-.9 3.1-1 1-3 1h-2v-1.3h2.7l.4-.2.2-.2q1-.7 1-2.5v-2q0-3 2-3.7-2.1-.9-2.1-3.5v-1.7q0-1.4-.6-2-.6-.6-1.8-.6h-1.8v-1.3h2.5q.9 0 1.7.5.7.5 1.2 1.3.5.9.5 2.3zm24 0v1.8q0 1.3.5 2 .6.5 1.7.5h.5v1.4h-.6q-1 0-1.5.5-.6.6-.6 2.2v2.4q0 2.1-.9 3.1-1 1-3 1h-2v-1.3h2.7l.4-.2.2-.2q1-.7 1-2.5v-2q0-3 2-3.7-2.1-.9-2.1-3.5v-1.7q0-1.4-.6-2-.6-.6-1.8-.6h-1.8v-1.3h2.5q.9 0 1.7.5.7.5 1.2 1.3.5.9.5 2.3zm23.2 10.7q0 1.9-2.5 4.5l-.8-.7 1-1.4q.5-.7.5-1.2l-.2-.4-.4-.4-.4-.4-.2-.6q0-.6.4-1t1-.4q.6 0 1.1.5.5.6.5 1.5zM38.8 84.6l.1-2.4q0-1.6-.6-2.1-.5-.6-1.5-.6h-.5v-1.3h.4q1.1 0 1.7-.6.6-.6.6-2V74q0-4.2 4.3-4.2h1.5v1.4h-2q-2.2 0-2.2 2.5v1.7q0 2.7-2 3.6 2 .6 2 3.7v2q0 1.6.6 2.2.7.7 2.3.7h1.3v1.3h-2.9q-1-.2-1.7-.7-1.4-1-1.4-3.5zm25.8-15.2h1.6v.2l-.2.3v.9q2.3.3 3.6 1.8l-1 1.3-.2-.2v-.3q-1-1-2.4-1.2v4.6l1.8.7q.8.4 1.3.9.5.4.7 1 .2.5.2 1.3 0 .7-.2 1.3l-.8 1.2-1.3 1q-.7.3-1.7.4v1.5h-1.4v-1.4q-2.6-.2-4.2-2l1-1.4q.2 0 .2.2v.3q1.2 1.3 3 1.5V78q-1.8-.6-2.8-1.5-.9-.9-.9-2.2 0-.7.3-1.2.2-.6.7-1l1.2-.9q.7-.3 1.5-.4v-1.4zm1.4 9v4.8q1.2-.2 1.8-.9.7-.7.7-1.5 0-1-.6-1.4-.6-.5-1.9-1zm-1.4-2v-4.2q-1 .1-1.6.7-.5.5-.5 1.2 0 1.4 2.1 2.2zm16.8-.9l-1 1.5q-.2 0-.2-.2v-.2q-.4-.6-1.2-1-.8-.5-1.8-.5l-1 .1-.7.3-.5.5q-.2.3-.2.7 0 .3.2.5l.4.4.9.5 1.5.4q2 .6 2.9 1.4.9.7.9 1.8 0 .7-.4 1.4-.3.6-.9 1.1-.6.5-1.4.8-.8.2-1.9.2-2.8 0-4.6-1.7l1-1.7v.2l.2.4.5.5 1.2.6.8.2 1 .1 1-.1.8-.4q.4-.2.6-.5.3-.3.3-.8 0-.6-.6-1t-2.1-.9l-1.4-.4-1.2-.6-.7-.6q-.4-.4-.5-.8l-.2-1q0-.6.3-1 .3-.6.8-1l1.4-.7q.8-.2 1.7-.2 2.5 0 4 1.7zm7.8-1.7q.9 0 1.7.3.8.3 1.4 1 .6.6 1 1.5.4 1 .4 2.4v.8h-7.9q0 1.1.4 2l.9 1.2 1.2.7 1.3.1q1.7 0 2.8-1.2l1 1q-1.4 1.6-3.9 1.6-1.2 0-2.2-.3-1-.4-1.7-1.1-.7-.7-1-1.8-.4-1-.4-2.4t.4-2.5q.4-1.1 1-1.8.7-.8 1.6-1.1 1-.4 2-.4zM86 78.4h6V78q0-.6-.2-1-.2-.6-.6-1l-.9-.7q-.5-.2-1.1-.2-1.1 0-2 .8-1 .8-1.2 2.5zm13.5-7.3l2-.3-.2.4v.2L101 74h3.6v1.4H101l-.2 4v2q0 .8.2 1.2l.6.8q.4.2 1 .2 1.2 0 2.5-1l.6 1.4q-1.7 1.2-3.5 1.2-1.7 0-2.5-1t-.7-3.4v-2.2l.2-3.2h-2.5V74h2.6l.2-2.9zm14.2 4.2q.5.4.5 1 0 .5-.5.9-.4.4-1 .4-.5 0-1-.4-.4-.4-.4-1 0-.5.4-1 .5-.4 1-.4.6 0 1 .5zm0 7.6q.5.4.5 1 0 .5-.5 1-.4.4-1 .4t-1-.4q-.4-.4-.4-1t.4-1q.5-.4 1-.4.6 0 1 .4zm21.1 1.7l.1-2.4q0-1.6-.6-2.1-.5-.6-1.5-.6h-.5v-1.3h.4q1.1 0 1.7-.6.6-.6.6-2V74q0-4.2 4.3-4.2h1.5v1.4h-2q-2.2 0-2.2 2.5v1.7q0 2.7-2 3.6 2 .6 2 3.7v2q0 1.6.6 2.2.7.7 2.3.7h1.3v1.3h-2.9q-1-.2-1.7-.7-1.4-1-1.4-3.5zm30.6-9.1l-1 1.5q-.2 0-.2-.2v-.2q-.4-.6-1.2-1-.8-.5-1.8-.5l-1 .1-.7.3-.5.5q-.2.3-.2.7 0 .3.2.5l.4.4.9.5 1.5.4q2 .6 2.9 1.4.9.7.9 1.8 0 .7-.4 1.4-.3.6-.9 1.1-.6.5-1.4.8-.8.2-1.9.2-2.8 0-4.6-1.7l1-1.7v.2l.2.4.5.5 1.2.6.8.2 1 .1 1-.1.8-.4q.4-.2.6-.5.3-.3.3-.8 0-.6-.6-1t-2.1-.9l-1.4-.4-1.2-.6-.7-.6q-.4-.4-.5-.8l-.2-1q0-.6.3-1 .3-.6.8-1l1.4-.7q.8-.2 1.7-.2 2.5 0 4 1.7zm6.1-4.4l2-.3-.2.4v.2L173 74h3.6v1.4H173l-.2 4v2q0 .8.2 1.2l.6.8q.4.2 1 .2 1.2 0 2.5-1l.6 1.4q-1.7 1.2-3.5 1.2-1.7 0-2.5-1t-.7-3.4v-2.2l.2-3.2h-2.5V74h2.6l.2-2.9zm9.7 4.2q1.4-1.5 3.9-1.5 2 0 3.2 1 1.1 1 1.1 3.4V85h-1.6v-1.2q-1.7 1.5-4 1.5-.8 0-1.5-.3t-1.1-.7q-.5-.4-.8-1l-.2-1q0-1.7 1.4-2.7 1.4-1 4.1-1h2V78q0-1.6-.6-2.2-.7-.7-2.1-.7-1.8 0-3 1.2l-.8-1zm6.7 4.6h-1.7l-2.1.1q-.9.2-1.4.5-.4.3-.6.7-.2.4-.2.9 0 .7.7 1.3.6.5 1.6.5.8 0 1.3-.2l1-.5.7-.7.4-.6q.3-.5.3-1.3v-.7zm7.6-8.8l2-.3-.2.4v.2L197 74h3.6v1.4H197l-.2 4v2q0 .8.2 1.2l.6.8q.4.2 1 .2 1.2 0 2.5-1l.6 1.4q-1.7 1.2-3.5 1.2-1.7 0-2.5-1t-.7-3.4v-2.2l.2-3.2h-2.5V74h2.6l.2-2.9zm9 2.9h1.7v6.2q0 1 .2 1.7t.6 1.2q.3.4.8.6.4.2 1 .2.5 0 1-.3l1-.7q.4-.4.6-1.1.3-.7.3-1.7v-6h1.7v10q0 .5.2.9h-1.9v-1.7q-.5 1-1.4 1.5-1 .5-2 .5-.8 0-1.5-.3t-1.2-1q-.6-.6-.8-1.5-.3-1-.3-2.3V74zm20.9 1.5l-1 1.5q-.2 0-.2-.2v-.2q-.4-.6-1.2-1-.8-.5-1.8-.5l-1 .1-.7.3-.5.5q-.2.3-.2.7 0 .3.2.5l.4.4.9.5 1.5.4q2 .6 2.9 1.4.9.7.9 1.8 0 .7-.4 1.4-.3.6-.9 1.1-.6.5-1.4.8-.8.2-1.9.2-2.8 0-4.6-1.7l1-1.7v.2l.2.4.5.5 1.2.6.8.2 1 .1 1-.1.8-.4q.4-.2.6-.5.3-.3.3-.8 0-.6-.6-1t-2.1-.9l-1.4-.4-1.2-.6-.7-.6q-.4-.4-.5-.8l-.2-1q0-.6.3-1 .3-.6.8-1l1.4-.7q.8-.2 1.7-.2 2.5 0 4 1.7zm20.3-.2q.5.4.5 1 0 .5-.5.9-.4.4-1 .4-.5 0-1-.4-.4-.4-.4-1 0-.5.4-1 .5-.4 1-.4.6 0 1 .5zm0 7.6q.5.4.5 1 0 .5-.5 1-.4.4-1 .4t-1-.4q-.4-.4-.4-1t.4-1q.5-.4 1-.4.6 0 1 .4zm24.9-11.1l-.2-1.5q0-.6.3-1 .3-.3.7-.3.5 0 .8.4.3.3.3 1.1t-.8 3l-.6 1.6-1.3-.3.5-1.6q.3-.8.3-1.4zm-4.2 0l-.1-1.5q0-.6.3-1 .3-.3.7-.3.4 0 .7.4.4.3.4 1.1t-.8 3l-.6 1.6-1.3-.3.5-1.6.2-.7v-.7zm11 2.2h1.8v2.1q.4-1.1 1.5-1.7 1.1-.6 2.4-.6 1.7 0 2.9 1.2l-.8 1.6-.5-.6-.5-.4q-.2-.2-.5-.2l-.7-.1q-.8 0-1.5.3-.7.4-1.2 1l-.9 1.4q-.3.8-.3 1.7V85h-1.7V74zm15.8-.2q.9 0 1.7.3.8.3 1.4 1 .6.6 1 1.5.4 1 .4 2.4v.8h-7.9q0 1.1.4 2l.9 1.2 1.2.7 1.3.1q1.7 0 2.8-1.2l1 1q-1.4 1.6-3.9 1.6-1.2 0-2.2-.3-1-.4-1.7-1.1-.7-.7-1-1.8-.4-1-.4-2.4t.4-2.5q.4-1.1 1-1.8.7-.8 1.6-1.1 1-.4 2-.4zm-3.3 4.6h6V78q0-.6-.2-1-.2-.6-.6-1l-.9-.7q-.5-.2-1.1-.2-1.1 0-2 .8-1 .8-1.2 2.5zM302 74h5.9v10.5q0 1.2-.4 2-.3 1-1 1.5-.5.6-1.3.8-.8.3-1.7.4-2.1 0-3.3-1.6l1-1.4q.2 0 .2.2l.1.3.3.3.7.4q.5.3 1.1.3 1.1 0 1.8-.8.7-.7.7-2.3v-9.2h-4V74zm4.1-4.4q.4-.3.9-.3t.9.3q.3.4.3.9t-.3.9q-.4.3-1 .3-.4 0-.8-.3-.4-.4-.4-.9t.4-.9zm11.1 4.2q.9 0 1.7.3.8.3 1.4 1 .6.6 1 1.5.4 1 .4 2.4v.8h-7.9q0 1.1.4 2l.9 1.2 1.2.7 1.3.1q1.7 0 2.8-1.2l1 1q-1.4 1.6-3.9 1.6-1.2 0-2.2-.3-1-.4-1.7-1.1-.7-.7-1-1.8-.4-1-.4-2.4t.4-2.5q.4-1.1 1-1.8.7-.8 1.6-1.1 1-.4 2-.4zm-3.3 4.6h6V78q0-.6-.2-1-.2-.6-.6-1l-.9-.7q-.5-.2-1.1-.2-1.1 0-2 .8-1 .8-1.2 2.5zm20.1-2.5l-1.3 1.4V77l-.1-.2-.2-.4-.5-.5q-.9-.7-2.3-.7-.7 0-1.3.3-.6.3-1.1.8-.5.5-.8 1.3-.3.7-.3 1.7t.3 1.7q.3.8.8 1.4.5.6 1.2.9.7.3 1.5.3 1.7 0 2.9-1.3l1 1.1q-1.6 1.8-4 1.8-1.2 0-2.2-.5-1-.4-1.7-1.2-.7-.7-1.1-1.8-.5-1-.5-2.3 0-1.2.5-2.3.4-1 1-1.8.8-.7 1.8-1.2 1-.4 2.3-.4 1.3 0 2.3.6 1.1.5 1.8 1.5zm5.5-4.8l2-.3-.2.4v.2L341 74h3.6v1.4H341l-.2 4v2q0 .8.2 1.2l.6.8q.4.2 1 .2 1.2 0 2.5-1l.6 1.4q-1.7 1.2-3.5 1.2-1.7 0-2.5-1t-.7-3.4v-2.2l.2-3.2h-2.5V74h2.6l.2-2.9zm15.1.7l-.2-1.5q0-.6.3-1 .3-.3.7-.3.5 0 .8.4.3.3.3 1.1t-.8 3l-.6 1.6-1.3-.3.5-1.6q.3-.8.3-1.4zm-4.2 0l-.1-1.5q0-.6.3-1 .3-.3.7-.3.4 0 .7.4.4.3.4 1.1t-.8 3l-.6 1.6-1.3-.3.5-1.6.2-.7v-.7zm28.7 2.1v1.7q0 1.4.5 2 .6.6 1.7.6h.5v1.3h-.6q-1 0-1.5.6-.6.5-.6 2.1v2.4q0 2.2-.9 3.2-1 1-3 1h-2v-1.3h2.2l.5-.1.4-.2.2-.1q1-.7 1-2.5v-2q0-3 2-3.7-2.1-1-2.1-3.6v-1.7q0-1.3-.6-2-.6-.5-1.8-.5h-1.8v-1.4h2.5q.9.1 1.7.6.7.4 1.2 1.3.5.8.5 2.3z" font-size="24" font-family="Inconsolata" fill="#3299cc"/><path d="M6.9 100.5l.4-1.5q1.5.7 2.7 1.8 1.2 1 2 2.3.8 1.3 1.3 2.8.4 1.5.4 3.1t-.4 3.1q-.5 1.6-1.4 2.9-.8 1.3-2 2.4-1.2 1-2.7 1.8l-.5-1.5q1.3-.6 2.2-1.5 1-1 1.7-2 .7-1.2 1-2.5.4-1.3.4-2.6 0-1.4-.4-2.6-.3-1.3-1-2.4-.7-1.1-1.6-2-1-1-2.1-1.6z" font-size="24" font-family="Inconsolata" fill="#004069"/><path d="M402 12v15l-10-7.6 10-7.4z" fill="#6cb340"/><path d="M490 19.5l-88-.2" stroke="#6cb340" stroke-width="2" fill="none"/><path d="M509.6 22.5v2q-1.6.7-3.1.7-2.6 0-4-1.5-1.6-1.5-1.6-4 0-2.6 1.5-4.1 1.4-1.6 3.8-1.6.9 0 1.5.2.7.1 1.7.6V17q-1.7-1-3-1-1.5 0-2.4 1-1 1-1 2.6t1 2.6q1 1 2.8 1 1.2 0 2.8-.7zm7.6-8.3q2.4 0 4 1.6 1.7 1.6 1.7 4 0 2.3-1.7 3.9-1.6 1.5-4.1 1.5-2.5 0-4-1.6-1.7-1.5-1.7-3.9t1.6-4q1.7-1.5 4.2-1.5zm-.1 2q-1.6 0-2.6 1t-1 2.5q0 1.5 1 2.5t2.6 1q1.6 0 2.6-1t1-2.5q0-1.6-1-2.6t-2.6-1zm8.2-7.6h2.1V25h-2.1V8.6zm5.3 0h2.1V25h-2.1V8.6zM545 19.8h-7.6q.1 1.5 1 2.5 1 .9 2.5.9 2.1 0 4-1.3v2q-1 .7-2 1-1 .3-2.3.3-1.8 0-2.9-.8-1-.7-1.7-2-.7-1.2-.7-2.8 0-2.5 1.4-4 1.4-1.6 3.6-1.6t3.4 1.5q1.3 1.5 1.3 4v.3zm-7.5-1.3h5.4q0-1.3-.8-2-.6-.6-1.8-.6-1.1 0-1.9.7-.7.6-1 2zm17.9 4v2q-1.6.7-3.1.7-2.6 0-4-1.5-1.6-1.5-1.6-4 0-2.6 1.5-4.1 1.4-1.6 3.8-1.6.9 0 1.5.2.7.1 1.7.6V17q-1.7-1-3-1-1.5 0-2.4 1-1 1-1 2.6t1 2.6q1 1 2.8 1 1.2 0 2.8-.7zm.9-6.5l4-4v2.2h3.4v2h-3.4v5.2q0 1.9 1.5 1.9 1.2 0 2.5-.8v2q-1.3.7-2.7.7-1.5 0-2.5-.9l-.5-.5-.3-.9-.1-2v-4.8h-1.9V16zM567 9.7q.5 0 .8.3.4.4.4 1 0 .5-.4.8-.3.4-.9.4-.5 0-.8-.4-.4-.4-.4-.9t.4-.8q.3-.4.8-.4zm-1.1 4.5h2.1V25h-2.1V14.2zm10.3 0q2.5 0 4.1 1.6 1.6 1.6 1.6 4 0 2.3-1.6 3.9-1.7 1.5-4.2 1.5-2.4 0-4-1.6-1.6-1.5-1.6-3.9t1.6-4q1.6-1.5 4.1-1.5zm0 2q-1.6 0-2.6 1t-1 2.5q0 1.5 1 2.5t2.6 1q1.6 0 2.6-1t1-2.5q0-1.6-1-2.6-1.1-1-2.7-1zm10.2-2v1.4q1.5-1.6 3.3-1.6 1 0 1.8.5 1 .6 1.4 1.5.4.9.4 2.8V25h-2.1v-6.1q0-1.7-.5-2.4t-1.7-.7q-1.5 0-2.6 1.5V25h-2.2V14.2h2.2z" font-size="24" font-family="GillSans" fill="#3299cc"/><path d="M402 41.5v15l-10-7.6 10-7.4z" fill="#6cb340"/><path d="M490 48.8l-88-.2" stroke="#6cb340" stroke-width="2" fill="none"/><path d="M508.4 55v-1.4q-.7.8-1.6 1.2-.8.4-1.7.4-1 0-1.9-.5-.9-.5-1.3-1.4-.4-.9-.4-3v-6h2.1v6q0 1.8.5 2.5.5.6 1.7.6 1.5 0 2.6-1.5v-7.7h2.1V55h-2.1zm5 5.5V44.2h3.7q2.9 0 4.5 1.4 1.6 1.5 1.6 4t-1.5 4q-1.5 1.6-3.9 1.6-1 0-2.2-.5v5.8h-2.2zm3.7-14.3h-1.5v6.6q1 .5 2 .5 1.5 0 2.5-1t1-2.7q0-1-.5-1.8-.5-.9-1.3-1.2-.7-.4-2.2-.4zm15.6-7.6h2.2V55h-4.6q-2.4 0-3.8-1.5t-1.4-4q0-2.4 1.4-4 1.5-1.5 3.9-1.5 1 0 2.3.4v-5.8zm0 14.6v-6.9q-1-.5-2-.5-1.6 0-2.6 1-.9 1.1-.9 2.9 0 1.7.8 2.6.5.5 1 .7.6.2 2 .2h1.7zm11.8-4.7v4.6q0 .6.4.6t1.2-.6v1.3l-1.2.6q-.4.2-.9.2-1.4 0-1.6-1-1.4 1-2.9 1-1.1 0-1.9-.8-.7-.7-.7-1.8 0-1 .7-1.9.7-.8 2-1.2l2.8-1V48q0-1.9-2-1.9-1.7 0-3.3 1.8v-2.3q1.2-1.5 3.6-1.5 1.7 0 2.8 1l.6.7q.3.5.3 1l.1 1.8zm-2 4.4v-3.2l-1.5.5q-1.1.5-1.6.9-.4.4-.4 1 0 .8.4 1.2.5.4 1.1.4 1 0 2-.8zm4-6.9l4-4v2.2h3.4v2h-3.4v5.2q0 1.9 1.5 1.9 1.2 0 2.5-.8v2q-1.3.7-2.7.7-1.5 0-2.5-.9l-.5-.5-.3-.9-.1-2v-4.8h-1.9V46zm18.7 3.8h-7.6q.1 1.5 1 2.5 1 .9 2.5.9 2.1 0 4-1.3v2q-1 .7-2 1-1 .3-2.3.3-1.8 0-2.9-.8-1-.7-1.7-2-.7-1.2-.7-2.8 0-2.5 1.4-4 1.4-1.6 3.6-1.6t3.4 1.5q1.3 1.5 1.3 4v.3zm-7.5-1.3h5.4q0-1.3-.8-2-.6-.6-1.8-.6-1.1 0-1.9.7-.7.6-1 2zm16.7-4.3v-.6q0-2.6 1.1-3.9 1.1-1.3 2.7-1.3l1.6.2v2.1l-1-.2q-1.3 0-1.8.7t-.5 2.4v.6h2v2h-2V55h-2v-8.9h-1.6v-1.9h1.5zm6.9-4.5q.5 0 .9.3.3.4.3 1 0 .5-.3.8-.4.4-1 .4-.4 0-.8-.4t-.4-.9q0-.5.4-.8.4-.4.9-.4zm-1 4.5h2V55h-2V44.2zm5.2-5.6h2.1V55h-2.1V38.6zm3.7 7.4l4-4v2.2h3.4v2h-3.4v5.2q0 1.9 1.5 1.9 1.2 0 2.5-.8v2q-1.3.7-2.7.7-1.5 0-2.4-.9-.4-.2-.6-.5l-.3-.9-.1-2v-4.8h-1.9V46zm18.8 3.8h-7.7q.1 1.5 1 2.5 1 .9 2.5.9 2.1 0 4-1.3v2q-1 .7-2 1-1 .3-2.3.3-1.8 0-2.9-.8-1-.7-1.7-2-.7-1.2-.7-2.8 0-2.5 1.4-4 1.4-1.6 3.6-1.6t3.4 1.5q1.3 1.5 1.3 4v.3zm-7.6-1.3h5.4q0-1.3-.8-2-.6-.6-1.8-.6-1.1 0-1.9.7-.7.6-1 2zm12.1-4.3v2.5l.1-.2q1.6-2.5 3.1-2.5 1.2 0 2.5 1.2l-1 1.9q-1.2-1-2.2-1-1 0-1.8 1-.7 1-.7 2.3V55h-2.1V44.2h2.1z" font-size="24" font-family="GillSans" fill="#3299cc"/><path d="M490 79.5h-88" stroke="#6cb340" stroke-width="2" fill="none"/><path d="M402 72v15l-10-7.6 10-7.4z" fill="#6cb340"/><path d="M508.4 85v-1.4q-.7.8-1.6 1.2-.8.4-1.7.4-1 0-1.9-.5-.9-.5-1.3-1.4-.4-.9-.4-3v-6h2.1v6q0 1.8.5 2.4.5.7 1.7.7 1.5 0 2.6-1.5v-7.7h2.1V85h-2.1zm5 5.5V74.2h3.7q2.9 0 4.5 1.4 1.6 1.5 1.6 4t-1.5 4q-1.5 1.6-3.9 1.6-1 0-2.2-.5v5.8h-2.2zm3.7-14.3h-1.5v6.6q1 .5 2 .5 1.5 0 2.5-1t1-2.7q0-1-.5-1.8-.5-.9-1.3-1.2-.7-.4-2.2-.4zm15.6-7.6h2.2V85h-4.6q-2.4 0-3.8-1.5t-1.4-4q0-2.4 1.4-4 1.5-1.5 3.9-1.5 1 0 2.3.4v-5.8zm0 14.6v-6.9q-1-.5-2-.5-1.6 0-2.6 1-.9 1.1-.9 2.9 0 1.7.8 2.6.5.5 1 .7.6.2 2 .2h1.7zm11.8-4.7v4.6q0 .6.4.6t1.2-.6v1.3l-1.2.6q-.4.2-.9.2-1.4 0-1.6-1-1.4 1-2.9 1-1.1 0-1.9-.8-.7-.7-.7-1.8 0-1 .7-1.9.7-.8 2-1.2l2.8-1V78q0-1.9-2-1.9-1.7 0-3.3 1.8v-2.3q1.2-1.5 3.6-1.5 1.7 0 2.8 1l.6.7q.3.5.3 1l.1 1.8zm-2 4.4v-3.2l-1.5.5q-1.1.5-1.6.9-.4.4-.4 1 0 .8.4 1.2.5.4 1.1.4 1 0 2-.8zm4-6.9l4-4v2.2h3.4v2h-3.4v5.2q0 1.9 1.5 1.9 1.2 0 2.5-.8v2q-1.3.7-2.7.7-1.5 0-2.5-.9l-.5-.5-.3-.9-.1-2v-4.8h-1.9V76zm18.7 3.8h-7.6q.1 1.5 1 2.5 1 .9 2.5.9 2.1 0 4-1.3v2q-1 .7-2 1-1 .3-2.3.3-1.8 0-2.9-.8-1-.7-1.7-2-.7-1.2-.7-2.8 0-2.5 1.4-4 1.4-1.6 3.6-1.6t3.4 1.5q1.3 1.5 1.3 4v.3zm-7.5-1.3h5.4q0-1.3-.8-2-.6-.6-1.8-.6-1.1 0-1.9.7-.7.6-1 2zm23.3 0v4.6q0 .6.3.6.4 0 1.2-.6v1.3l-1.1.6-1 .2q-1.3 0-1.6-1-1.3 1-2.9 1-1.1 0-1.8-.8-.8-.7-.8-1.8 0-1 .7-1.9.8-.8 2.1-1.2l2.7-1V78q0-1.9-1.9-1.9-1.7 0-3.4 1.8v-2.3q1.2-1.5 3.6-1.5 1.7 0 2.8 1l.6.7.4 1v1.8zm-2.2 4.4v-3.2l-1.4.5-1.5.9q-.5.4-.5 1 0 .8.4 1.2.5.4 1.2.4 1 0 1.8-.8zm13.7-.4v2q-1.6.7-3.1.7-2.6 0-4-1.5-1.6-1.5-1.6-4 0-2.6 1.5-4.1 1.5-1.6 3.9-1.6.8 0 1.4.2.7.1 1.7.6V77q-1.6-1-3-1-1.5 0-2.4 1-1 1-1 2.6 0 1.7 1 2.6 1.1 1 2.8 1 1.2 0 2.8-.7zm.9-6.5l4-4v2.2h3.4v2h-3.4v5.2q0 1.9 1.6 1.9 1.1 0 2.4-.8v2q-1.2.7-2.7.7-1.5 0-2.4-.9l-.5-.5-.4-.9-.1-2v-4.8h-1.9V76zm10.6-6.3q.6 0 1 .3.3.4.3 1 0 .5-.3.8-.4.4-1 .4-.4 0-.8-.4t-.4-.9q0-.5.4-.8.4-.4.9-.4zm-1 4.5h2.1V85H603V74.2zm10.4 0q2.4 0 4 1.6 1.7 1.6 1.7 4 0 2.3-1.7 3.9-1.6 1.5-4.1 1.5-2.5 0-4-1.6-1.7-1.5-1.7-3.9t1.6-4q1.7-1.5 4.2-1.5zm-.2 2q-1.5 0-2.5 1t-1 2.5q0 1.5 1 2.5t2.6 1q1.6 0 2.6-1t1-2.5q0-1.6-1-2.6t-2.7-1zm10.4-2v1.4q1.4-1.6 3.2-1.6 1 0 1.9.5.8.6 1.3 1.5.4.9.4 2.8V85h-2v-6.1q0-1.7-.6-2.4-.5-.7-1.7-.7-1.5 0-2.5 1.5V85h-2.2V74.2h2.2z" font-size="24" font-family="GillSans" fill="#3299cc"/></svg>