<svg xmlns="http://www.w3.org/2000/svg" viewBox="0, 0, 850, 650" height="650" width="850"><path d="M550.4 262h278.3v353.7H550.4z" fill="#fff"/><path d="M550.4 262h278.3v353.7H550.4zm0 44.1h278.3m-278.3 88.3h278.3m-278.3-44.1h278.3m-278.3 88.2l278.7.2m-278.7 44h278.3m-278.3 44.1h278.3" stroke="#173182" fill="none"/><path d="M561.6 288.4q-1.4 0-2.2-.3-.8-.2-1.3-1-.4-.6-.3-1.9v-1.8q0-1-.3-1.5-.4-.5-1.2-.5h-.4v-1h.3q.9 0 1.3-.4.4-.5.4-1.5v-1.3q0-3.1 3.2-3.1h1.2v1h-1.5q-1.7 0-1.7 1.9v1.3q0 2-1.5 2.6 1.5.5 1.5 2.8v1.5q0 1.2.5 1.7t1.7.5h1v1h-.7zm12.6-11.1h1.3v1.5q.5-.8 1.2-1.2.8-.5 1.6-.5 1 0 1.7.9.7.8.7 2.5v5h-1.3v-5q0-1.1-.4-1.7-.4-.6-1-.6t-1.2.4q-.6.3-1 .9-.3.6-.3 1.3v4.7h-1.3v-8.2zm12.1-.2q1.8 0 2.7 1 1 .9 1 3v4.4h-1.5v-1.2q-.7 1.4-2.8 1.4-1.3 0-2.1-.6t-.8-1.6q0-.9.6-1.6.5-.6 1.5-1 1-.3 2-.3l2 .1q-.2-1.4-.8-2-.6-.5-1.9-.5-.6 0-1.1.2l-1 .7-.7-.8q1.1-1.2 3-1.2zm-.4 7.6q1.3 0 2-.7.8-.8 1-2.3l-1.8-.1q-1.4 0-2.2.4-.8.5-.8 1.4 0 1.3 1.8 1.3zm5.7-7.4h1.2v.8l.7-.7q.5-.3 1-.3t1 .3q.3.4.4 1 .3-.6.8-1 .5-.3 1.1-.3.8 0 1.2.6.4.6.4 1.5v6.3h-1.2v-5.8q0-1-.2-1.3-.2-.3-.6-.3-.3 0-.6.3l-.5.8q-.2.4-.2.9v5.4h-1.2v-5.7q0-1-.2-1.3-.2-.4-.7-.4l-.6.2-.4.7-.2 1v5.5h-1.2v-8.2zm13.2 8.4q-1.8 0-2.9-1.1-1-1.1-1-3.2 0-1.3.4-2.3.5-1 1.4-1.5.8-.5 1.9-.5 1.5 0 2.4 1 1 1 1 3v.5h-6q.1 1.5 1 2.3.7.8 1.9.8 1.3 0 2-1l.8.8q-1 1.2-2.9 1.2zm1.8-5.1q0-1.2-.6-1.8-.5-.7-1.5-.7-.9 0-1.6.6-.6.7-.8 1.9h4.5zm6.6-.6q-.4 0-.7-.3-.3-.3-.3-.7 0-.5.3-.8.3-.3.7-.3.5 0 .8.3.3.3.3.8 0 .4-.3.7-.3.3-.8.3zm0 5.7q-.4 0-.7-.3-.3-.3-.3-.7 0-.4.3-.7.3-.3.7-.3.5 0 .8.3.3.3.3.7 0 .4-.3.7-.3.3-.8.3zm17.6-12.1v2.2l-.2 1.5v.9h-1v-.9l-.2-1.5v-2.2h1.4zm2.7 0v2.2l-.2 1.5v.9h-1v-.9l-.2-1.5v-2.2h1.4zm6.8 3.5q1.8 0 2.7 1 1 .9 1 3v4.4h-1.5v-1.2q-.7 1.4-2.8 1.4-1.3 0-2.1-.6t-.8-1.6q0-.9.6-1.6.5-.6 1.5-1 1-.3 2-.3l2 .1q-.2-1.4-.8-2-.6-.5-1.9-.5-.6 0-1.1.2l-1 .7-.7-.8q1.1-1.2 3-1.2zm-.4 7.6q1.3 0 2-.7.8-.8 1-2.3l-1.8-.1q-1.4 0-2.2.4-.8.5-.8 1.4 0 1.3 1.8 1.3zm6.5.8v-1h2.4v-9.9h-2.3v-1h3.6v10.9h2.4v1h-6.1zm11.4-11.9v2.2l-.2 1.5v.9h-1v-.9l-.2-1.5v-2.2h1.4zm2.7 0v2.2l-.2 1.5v.9h-1v-.9l-.2-1.5v-2.2h1.4zM666 288l.7-1q.4-.5.4-.9l-.1-.2-.3-.4-.4-.4-.1-.4q0-.4.2-.7.4-.3.8-.3.5 0 .9.4.3.4.3 1 0 1.5-1.9 3.5l-.6-.6zm19.3-10.9q1.8 0 2.7 1 1 .9 1 3v4.4h-1.5v-1.2q-.7 1.4-2.8 1.4-1.3 0-2.1-.6t-.8-1.6q0-.9.6-1.6.5-.6 1.5-1 1-.3 2-.3l2 .1q-.2-1.4-.8-2-.6-.5-1.9-.5-.6 0-1.1.2l-1 .7-.7-.8q1.1-1.2 3-1.2zm-.4 7.6q1.3 0 2-.7.8-.8 1-2.3l-1.8-.1q-1.4 0-2.2.4-.8.5-.8 1.4 0 1.3 1.8 1.3zm13.6-6.5h-.5q-.8 0-1.4.3.3.6.3 1.4 0 .8-.4 1.4-.3.7-1 1-.6.4-1.5.4-.7 0-1.3-.2-.3.4-.3.7 0 .5.5.7.6.2 2 .2 1.8 0 2.4.5.6.5.6 1.5 0 1.1-.8 1.8-.9.7-2.7.7-1.8 0-2.8-.5-1-.6-1-1.6 0-.6.4-1.1.3-.5.9-.8-.6-.3-.6-1 0-.8.7-1.6-.4-.4-.6-1-.3-.5-.3-1.1 0-.8.4-1.5.3-.6 1-1 .6-.4 1.5-.4 1.3 0 2.1.8.4-.4.9-.5l1-.2h.3l.2 1zm-4.5 3.5q.8 0 1.3-.6.5-.5.5-1.2 0-.8-.5-1.3t-1.3-.5q-.8 0-1.3.5t-.5 1.3q0 .7.5 1.2.5.6 1.3.6zm2.8 4.6q0-.4-.2-.6-.1-.3-.6-.4l-1.3-.1q-1.3 0-2.1-.2-.4.2-.6.5-.2.4-.2.9 0 .6.7 1 .7.3 1.9.3t1.8-.4q.6-.3.6-1zm7-.6q-1.8 0-2.9-1.1-1-1.1-1-3.2 0-1.3.4-2.3.5-1 1.4-1.5.8-.5 1.9-.5 1.5 0 2.4 1 1 1 1 3v.5h-6q.1 1.5 1 2.3.7.8 1.9.8 1.3 0 2-1l.8.8q-1 1.2-2.9 1.2zm1.8-5.1q0-1.2-.6-1.8-.5-.7-1.5-.7-.9 0-1.6.6-.6.7-.8 1.9h4.5zm6.6-.6q-.4 0-.7-.3-.3-.3-.3-.7 0-.5.3-.8.3-.3.7-.3.5 0 .8.3.3.3.3.8 0 .4-.3.7-.3.3-.8.3zm0 5.7q-.4 0-.7-.3-.3-.3-.3-.7 0-.4.3-.7.3-.3.7-.3.5 0 .8.3.3.3.3.7 0 .4-.3.7-.3.3-.8.3zm17.8-.2V276l-2.2.6-.3-.7 3-1.5h.8v11.2h-1.2zm9.4.2q-1 0-1.8-.4t-1.2-1q-.4-.7-.4-1.6 0-1 .6-1.8.6-.9 1.7-1.3-.8-.4-1.3-1.1-.4-.7-.4-1.6 0-1.2.7-2 .8-.7 2.2-.7 1.5 0 2.2.7.8.8.8 2 0 .7-.5 1.5-.5.7-1.3 1.1 1 .5 1.6 1.3.6.9.6 1.8t-.5 1.6q-.4.7-1.2 1.1-.7.4-1.8.4zm.3-6.6q.7-.4 1.1-1 .5-.6.5-1.2 0-.7-.5-1.2t-1.3-.5q-.9 0-1.3.5t-.4 1.1q0 .8.5 1.3l1.4 1zm-.2 5.5q1 0 1.5-.6.6-.5.6-1.4 0-.8-.6-1.5-.7-.7-1.8-1-.8.3-1.4 1-.5.7-.5 1.5t.6 1.4q.6.6 1.6.6zm7.5 3.4l.7-1q.4-.5.4-.9l-.1-.2-.3-.4-.4-.4-.1-.4q0-.4.2-.7.4-.3.8-.3.5 0 .9.4.3.4.3 1 0 1.5-1.9 3.5l-.6-.6zm19.2-2.3q-.4 0-.7-.3-.3-.3-.3-.7 0-.4.3-.7.3-.3.7-.3.4 0 .7.3.3.3.3.7 0 .4-.3.7-.3.3-.7.3zm9 0q-.4 0-.7-.3-.3-.3-.3-.7 0-.4.3-.7.3-.3.7-.3.4 0 .7.3.3.3.3.7 0 .4-.3.7-.3.3-.7.3zm9 0q-.4 0-.7-.3-.3-.3-.3-.7 0-.4.3-.7.3-.3.7-.3.4 0 .7.3.3.3.3.7 0 .4-.3.7-.3.3-.7.3zm14.8 2.7v-1h.8q1.3 0 1.8-.5t.5-1.7v-1.5q0-2.3 1.5-2.8-1.6-.7-1.6-2.6V277q0-2-1.6-2h-1.5v-1h1.1q3.3 0 3.3 3.2v1.3q0 1 .4 1.5.4.4 1.3.4h.3v1h-.4q-.8 0-1.2.5-.4.4-.4 1.5v1.8q.1 1.3-.3 2t-1.2 1q-.9.2-2.2.2h-.7z" font-size="18" font-family="Inconsolata" fill="#173182"/><path d="M561.6 335.5q-1.4 0-2.2-.3-.8-.2-1.3-1-.4-.6-.3-1.9v-1.8q0-1-.3-1.5-.4-.5-1.2-.5h-.4v-1h.3q.9 0 1.3-.4.4-.5.4-1.5v-1.3q0-3.1 3.2-3.1h1.2v1h-1.5q-1.7 0-1.7 1.9v1.3q0 2-1.5 2.6 1.5.5 1.5 2.8v1.5q0 1.2.5 1.7t1.7.5h1v1h-.7zm12.6-11.1h1.3v1.5q.5-.8 1.2-1.2.8-.5 1.6-.5 1 0 1.7.9.7.8.7 2.6v5h-1.3v-5q0-1.2-.4-1.8-.4-.6-1-.6t-1.2.4q-.6.3-1 .9-.3.6-.3 1.3v4.7h-1.3v-8.2zm12.1-.2q1.8 0 2.7 1 1 .9 1 3v4.4h-1.5v-1.2q-.7 1.4-2.8 1.4-1.3 0-2.1-.6t-.8-1.6q0-.9.6-1.5.5-.7 1.5-1 1-.4 2-.4l2 .1q-.2-1.4-.8-2-.6-.5-1.9-.5-.6 0-1.1.2l-1 .7-.7-.8q1.1-1.2 3-1.2zm-.4 7.6q1.3 0 2-.7.8-.8 1-2.3l-1.8-.1q-1.4 0-2.2.4-.8.5-.8 1.4 0 1.3 1.8 1.3zm5.7-7.4h1.2v.8l.7-.7q.5-.3 1-.3t1 .4q.3.3.4.8.3-.5.8-.8.5-.4 1.1-.4.8 0 1.2.6.4.6.4 1.5v6.3h-1.2v-5.8q0-1-.2-1.3-.2-.3-.6-.3-.3 0-.6.3l-.5.8q-.2.4-.2.9v5.4h-1.2V327q0-1-.2-1.3-.2-.4-.7-.4-.3 0-.6.3l-.4.6-.2 1v5.5h-1.2v-8.2zm13.2 8.4q-1.8 0-2.9-1.1-1-1.1-1-3.1 0-1.4.4-2.4.5-1 1.4-1.5.8-.5 1.9-.5 1.5 0 2.4 1 1 1 1 3v.5h-6q.1 1.5 1 2.3.7.8 1.9.8 1.3 0 2-1l.8.8q-1 1.2-2.9 1.2zm1.8-5.1q0-1.1-.6-1.8-.5-.7-1.5-.7-.9 0-1.6.6-.6.7-.8 1.9h4.5zm6.6-.7q-.4 0-.7-.2-.3-.3-.3-.7 0-.5.3-.8.3-.3.7-.3.5 0 .8.3.3.3.3.8 0 .4-.3.7-.3.3-.8.3zm0 5.8q-.4 0-.7-.3-.3-.3-.3-.7 0-.4.3-.7.3-.3.7-.3.5 0 .8.3.3.3.3.7 0 .4-.3.7-.3.3-.8.3zm17.6-12.1v2.2l-.2 1.5v1h-1v-1l-.2-1.5v-2.2h1.4zm2.7 0v2.2l-.2 1.5v1h-1v-1l-.2-1.5v-2.2h1.4zm3.9 11.9v-1h2.4v-9.9h-2.3v-1h3.6v10.9h2.4v1h-6.1zm12.4.2q-1.8 0-2.9-1.1-1-1.1-1-3.1 0-1.4.4-2.4.5-1 1.4-1.5.8-.5 1.9-.5 1.5 0 2.4 1 1 1 1 3v.5h-6q.1 1.5 1 2.3.7.8 1.9.8 1.3 0 2-1l.8.8q-1 1.2-2.9 1.2zm1.8-5.1q0-1.1-.6-1.8-.5-.7-1.5-.7-.9 0-1.6.6-.6.7-.8 1.9h4.5zm7.2 5.1q-1.8 0-2.9-1.1-1-1.1-1-3.1 0-1.4.4-2.4.5-1 1.4-1.5.8-.5 1.9-.5 1.5 0 2.4 1 1 1 1 3v.5h-6q.1 1.5 1 2.3.7.8 1.9.8 1.3 0 2-1l.8.8q-1 1.2-2.9 1.2zm1.8-5.1q0-1.1-.6-1.8-.5-.7-1.5-.7-.9 0-1.6.6-.6.7-.8 1.9h4.5zm6.2-7v2.2l-.2 1.5v1h-1v-1l-.2-1.5v-2.2h1.4zm2.7 0v2.2l-.2 1.5v1h-1v-1l-.2-1.5v-2.2h1.4zm5.5 14.4l.7-1q.4-.5.4-.9l-.1-.2-.3-.4-.4-.4-.1-.4q0-.4.2-.7.4-.3.8-.3.5 0 .9.4.3.4.3 1 0 1.5-1.9 3.5l-.6-.6zm19.3-10.9q1.8 0 2.7 1 1 .9 1 3v4.4h-1.5v-1.2q-.7 1.4-2.8 1.4-1.3 0-2.1-.6t-.8-1.6q0-.9.6-1.5.5-.7 1.5-1 1-.4 2-.4l2 .1q-.2-1.4-.8-2-.6-.5-1.9-.5-.6 0-1.1.2l-1 .7-.7-.8q1.1-1.2 3-1.2zm-.4 7.6q1.3 0 2-.7.8-.8 1-2.3l-1.8-.1q-1.4 0-2.2.4-.8.5-.8 1.4 0 1.3 1.8 1.3zm13.6-6.5h-.5q-.8 0-1.4.3.3.6.3 1.4 0 .8-.4 1.4-.3.7-1 1-.6.4-1.5.4-.7 0-1.3-.2-.3.4-.3.8t.5.6q.6.2 2 .2 1.8 0 2.4.5.6.5.6 1.5 0 1.1-.8 1.8-.9.7-2.7.7-1.8 0-2.8-.5-1-.5-1-1.6 0-.6.4-1.1.3-.5.9-.7-.6-.4-.6-1.1 0-.8.7-1.6-.4-.4-.6-1-.3-.5-.3-1.1 0-.8.4-1.5.3-.6 1-1 .6-.4 1.5-.4 1.3 0 2.1.9.4-.4.9-.6l1-.2h.3l.2 1zm-4.5 3.5q.8 0 1.3-.6.5-.5.5-1.2 0-.8-.5-1.3t-1.3-.5q-.8 0-1.3.5t-.5 1.3q0 .7.5 1.2.5.6 1.3.6zm2.8 4.6q0-.4-.2-.6-.1-.3-.6-.4l-1.3-.1q-1.3 0-2.1-.2-.4.2-.6.6-.2.3-.2.8 0 .6.7 1 .7.3 1.9.3t1.8-.4q.6-.3.6-1zm7-.6q-1.8 0-2.9-1.1-1-1.1-1-3.1 0-1.4.4-2.4.5-1 1.4-1.5.8-.5 1.9-.5 1.5 0 2.4 1 1 1 1 3v.5h-6q.1 1.5 1 2.3.7.8 1.9.8 1.3 0 2-1l.8.8q-1 1.2-2.9 1.2zm1.8-5.1q0-1.1-.6-1.8-.5-.7-1.5-.7-.9 0-1.6.6-.6.7-.8 1.9h4.5zm6.6-.7q-.4 0-.7-.2-.3-.3-.3-.7 0-.5.3-.8.3-.3.7-.3.5 0 .8.3.3.3.3.8 0 .4-.3.7-.3.3-.8.3zm0 5.8q-.4 0-.7-.3-.3-.3-.3-.7 0-.4.3-.7.3-.3.7-.3.5 0 .8.3.3.3.3.7 0 .4-.3.7-.3.3-.8.3zm15.1-1.2l1.4-1.4 2.2-2.3 1.2-1.7q.4-.8.4-1.7 0-1-.5-1.6-.6-.5-1.4-.5-.8 0-1.5.4-.6.3-.8.7l-.2.5-.1.2h.1v.1h-.2l-1-.8q.6-1 1.6-1.6.9-.5 2-.5 1.5 0 2.4.8.9.9.9 2.4 0 1-.5 1.8-.4 1-1.2 1.8l-2 2.1-1.2 1.2h4.6l.2-.1h.1v1.2h-6.5v-1zm12.1 1.2q-1 0-1.8-.4t-1.2-1q-.4-.7-.4-1.6 0-1 .6-1.8.6-.9 1.7-1.3-.8-.4-1.3-1.1-.4-.7-.4-1.5 0-1.3.7-2 .8-.8 2.2-.8 1.5 0 2.2.7.8.8.8 2 0 .8-.5 1.5t-1.3 1.1q1 .5 1.6 1.3.6.9.6 1.8t-.5 1.6q-.4.7-1.2 1.1-.7.4-1.8.4zm.3-6.6q.7-.4 1.1-1 .5-.6.5-1.2 0-.7-.5-1.2t-1.3-.5q-.9 0-1.3.5t-.4 1.1q0 .8.5 1.3.4.5 1.4 1zm-.2 5.5q1 0 1.5-.6.6-.5.6-1.4 0-.8-.6-1.5-.7-.7-1.8-1-.8.3-1.4 1-.5.7-.5 1.5t.6 1.4q.6.6 1.6.6zm7.5 3.4l.7-1q.4-.5.4-.9l-.1-.2-.3-.4-.4-.4-.1-.4q0-.4.2-.7.4-.3.8-.3.5 0 .9.4.3.4.3 1 0 1.5-1.9 3.5l-.6-.6zm19.2-2.3q-.4 0-.7-.3-.3-.3-.3-.7 0-.4.3-.7.3-.3.7-.3.4 0 .7.3.3.3.3.7 0 .4-.3.7-.3.3-.7.3zm9 0q-.4 0-.7-.3-.3-.3-.3-.7 0-.4.3-.7.3-.3.7-.3.4 0 .7.3.3.3.3.7 0 .4-.3.7-.3.3-.7.3zm9 0q-.4 0-.7-.3-.3-.3-.3-.7 0-.4.3-.7.3-.3.7-.3.4 0 .7.3.3.3.3.7 0 .4-.3.7-.3.3-.7.3zm14.8 2.7v-1h.8q1.3 0 1.8-.5t.5-1.7v-1.5q0-2.3 1.5-2.8-1.6-.7-1.6-2.6V324q0-1.9-1.6-1.9h-1.5v-1h1.1q3.3 0 3.3 3.1v1.3q0 1 .4 1.5.4.4 1.3.4h.3v1h-.4q-.8 0-1.2.5-.4.4-.4 1.5v1.8q.1 1.3-.3 2t-1.2 1q-.9.2-2.2.2h-.7z" font-size="18" font-family="Inconsolata" fill="#26408c"/><path d="M561.4 424.2q-1.4 0-2.3-.3-.8-.3-1.2-1-.4-.6-.4-1.9l.1-1.8q0-1.1-.4-1.5-.4-.5-1.2-.5h-.4v-1h.4q.8 0 1.2-.4.5-.5.5-1.5V413q0-3.1 3.2-3.1h1.1v1h-1.4q-1.7 0-1.7 1.9v1.3q0 2-1.6 2.6 1.6.5 1.6 2.8v1.5q0 1.2.4 1.7.6.5 1.8.5h1v1h-.7zm12.6-11.1h1.2v1.5q.5-.8 1.3-1.2.7-.5 1.5-.5 1.1 0 1.8.8.6.9.6 2.6v5h-1.2v-5q0-1.1-.4-1.7-.4-.6-1.1-.6-.6 0-1.2.4-.5.3-.9.9-.4.6-.4 1.3v4.7H574v-8.2zm12-.1q1.8 0 2.8.8.9 1 .9 3.2v4.3h-1.4v-1.2q-.8 1.4-2.8 1.4-1.4 0-2.2-.6-.7-.6-.7-1.6t.5-1.6q.6-.6 1.5-1 1-.3 2.1-.3l1.9.1q-.1-1.4-.8-2-.6-.5-1.8-.5l-1.2.2-1 .7-.7-.8q1.2-1.2 3-1.2zm-.4 7.5q1.3 0 2.1-.7.8-.8.9-2.3l-1.8-.1q-1.4 0-2.1.4-.8.5-.8 1.4 0 1.3 1.7 1.3zm5.8-7.4h1.2v.8q.2-.4.7-.7.4-.3 1-.3.5 0 .9.3.4.4.5 1 .2-.6.7-1 .5-.3 1.1-.3.9 0 1.2.6.5.6.4 1.5v6.3H598v-5.8q0-1-.2-1.3-.2-.3-.5-.3-.4 0-.7.3l-.5.8q-.2.4-.2.9v5.4h-1.2v-5.7q0-1-.2-1.3-.1-.4-.7-.4l-.5.2-.5.7-.1 1v5.5h-1.2v-8.2zm13.2 8.4q-1.9 0-3-1.1-1-1.1-1-3.2 0-1.3.5-2.3.5-1 1.3-1.5.9-.5 2-.5 1.4 0 2.4 1 .9 1 .9 3v.5h-5.9q0 1.5.9 2.3.7.8 2 .8 1.2 0 2-1l.8.7q-1 1.3-3 1.3zm1.8-5.1q0-1.2-.6-1.8-.6-.7-1.5-.7-1 0-1.6.6-.7.7-.8 1.9h4.5zm6.6-.6q-.4 0-.8-.3-.3-.3-.3-.7 0-.5.3-.8.3-.3.8-.3.4 0 .7.3.3.3.3.8 0 .4-.3.7-.3.3-.7.3zm0 5.7q-.5 0-.8-.3-.3-.3-.3-.7 0-.4.3-.7.3-.3.8-.3.4 0 .7.3.3.3.3.7 0 .4-.3.7-.3.3-.7.3zm17.6-12.1l-.1 2.2-.1 1.5-.1.9h-.9l-.1-.9-.2-1.5v-2.2h1.5zm2.7 0l-.1 2.2-.1 1.5-.1.9h-.9l-.1-.9-.2-1.5v-2.2h1.5zm6 7.8l-1.1 1v3.1h-1.3v-12h1.4v.2l-.1.2v7.2l4.1-3.8h1.4l-3.4 3.3 4 5h-1.7l-3.3-4.2zm9.7-4.2q1.8 0 2.8.8.9 1 .9 3.2v4.3h-1.4v-1.2q-.8 1.4-2.8 1.4-1.4 0-2.2-.6-.7-.6-.7-1.6t.5-1.6q.6-.6 1.5-1 1-.3 2.1-.3l1.9.1q-.1-1.4-.8-2-.6-.5-1.8-.5l-1.2.2-1 .7-.7-.8q1.2-1.2 3-1.2zm-.4 7.5q1.3 0 2.1-.7.8-.8.9-2.3l-1.8-.1q-1.4 0-2.1.4-.8.5-.8 1.4 0 1.3 1.7 1.3zm6.9.8v-1h2V414h-2v-1h3.4v7.2h2v1h-5.4zm2.7-10q-.4 0-.7-.2-.3-.3-.3-.6 0-.4.3-.7.3-.3.7-.3.3 0 .6.3t.3.7q0 .3-.3.6t-.6.3zm8.4-1.9l-.1 2.2-.1 1.5-.1.9h-.9l-.1-.9-.2-1.5v-2.2h1.5zm2.7 0l-.1 2.2-.1 1.5-.1.9h-.9l-.1-.9-.2-1.5v-2.2h1.5zm5.4 14.4l.8-1q.3-.5.3-.9v-.2l-.4-.4-.4-.4v-.4q0-.4.2-.7.3-.3.8-.3t.8.4q.4.4.4 1 0 1.5-2 3.5l-.5-.6zM694 413q1.8 0 2.8.8.9 1 .9 3.2v4.3h-1.4v-1.2q-.8 1.4-2.8 1.4-1.4 0-2.2-.6-.7-.6-.7-1.6t.5-1.6q.6-.6 1.5-1 1-.3 2.1-.3l1.9.1q-.1-1.4-.8-2-.6-.5-1.8-.5l-1.2.2-1 .7-.7-.8q1.2-1.2 3-1.2zm-.4 7.5q1.3 0 2.1-.7.8-.8.9-2.3l-1.8-.1q-1.4 0-2.1.4-.8.5-.8 1.4 0 1.3 1.7 1.3zm13.6-6.5h-.4q-.9 0-1.5.3.3.6.3 1.4 0 .8-.3 1.4-.4.7-1 1-.7.4-1.5.4-.7 0-1.3-.2-.4.4-.4.7 0 .5.6.7.5.2 2 .2 1.7 0 2.3.5.7.5.7 1.5 0 1.1-.9 1.8-.8.7-2.7.7-1.7 0-2.7-.5-1-.6-1-1.6 0-.6.3-1.1.4-.5 1-.8-.6-.4-.6-1 0-.8.7-1.6-.5-.4-.7-1-.2-.5-.2-1.1 0-.8.3-1.5.4-.6 1-1 .7-.4 1.6-.4 1.3 0 2 .8.5-.4 1-.5.4-.2 1-.2h.3l.1 1zm-4.4 3.5q.7 0 1.2-.6.6-.5.6-1.2 0-.8-.6-1.3-.5-.5-1.2-.5-.8 0-1.3.5t-.5 1.3q0 .7.5 1.2.5.6 1.3.6zm2.7 4.6q0-.4-.2-.6-.1-.3-.6-.4l-1.3-.1q-1.3 0-2-.2-.5.2-.7.5l-.1.9q0 .6.6 1 .7.3 2 .3 1.1 0 1.7-.4.6-.4.6-1zm7.1-.6q-1.9 0-3-1.1-1-1.1-1-3.2 0-1.3.5-2.3.5-1 1.3-1.5.9-.5 2-.5 1.4 0 2.4 1 .9 1 .9 3v.5h-5.9q0 1.5.9 2.3.7.8 2 .8 1.2 0 2-1l.8.7q-1 1.3-3 1.3zm1.8-5.1q0-1.2-.6-1.8-.6-.7-1.5-.7-1 0-1.6.6-.7.7-.8 1.9h4.5zm6.6-.6q-.4 0-.8-.3-.3-.3-.3-.7 0-.5.3-.8.3-.3.8-.3.4 0 .7.3.3.3.3.8 0 .4-.3.7-.3.3-.7.3zm0 5.7q-.5 0-.8-.3-.3-.3-.3-.7 0-.4.3-.7.3-.3.8-.3.4 0 .7.3.3.3.3.7 0 .4-.3.7-.3.3-.7.3zm19.2-6.1q1 .3 1.6 1 .6.8.6 1.8t-.4 1.7q-.4.7-1.2 1.2-.7.4-1.8.4-.9 0-1.7-.3-.8-.3-1.4-1l.9-1q.4.6 1 1 .4.2 1.1.2 1 0 1.6-.6.6-.6.6-1.6 0-1.1-.7-1.7-.7-.5-1.9-.5h-.6v-1q1.6 0 2.2-.6.6-.6.6-1.6 0-.8-.5-1.2-.4-.5-1.1-.5-1.2 0-2 .8l-.8-.7q1-1.2 2.8-1.2 1.3 0 2.1.8t.8 2q0 1-.5 1.6-.4.7-1.3 1zm-3.2 3.8h-.2.2zm-.2 0q-.1 0 0 0zm11.4 2.3q-1 0-1.8-.4t-1.2-1q-.4-.8-.4-1.6 0-1 .6-1.8.6-.9 1.6-1.3-.8-.4-1.2-1.1-.5-.8-.5-1.6 0-1.2.8-2 .8-.7 2.2-.7 1.4 0 2.2.7.7.8.7 2 0 .7-.4 1.5-.5.7-1.3 1.1 1 .5 1.5 1.3.6.9.6 1.8t-.4 1.6q-.4.7-1.2 1.1-.8.4-1.8.4zm.3-6.6q.7-.4 1-1 .5-.6.5-1.2 0-.7-.4-1.2-.5-.5-1.4-.5-.8 0-1.3.5-.4.4-.4 1.1 0 .8.5 1.3l1.5 1zm-.3 5.5q1 0 1.6-.6.5-.5.5-1.4 0-.8-.6-1.5-.7-.7-1.8-1-.8.3-1.3 1t-.5 1.5q0 .8.5 1.4.6.6 1.6.6zm7.5 3.4l.8-1q.3-.5.3-.9v-.2l-.4-.4-.4-.4v-.4q0-.4.2-.7.3-.3.8-.3t.8.4q.4.4.4 1 0 1.5-2 3.5l-.5-.6zm19.3-2.3q-.5 0-.8-.3-.3-.3-.3-.7 0-.4.3-.7.3-.3.8-.3.4 0 .7.3.3.3.3.7 0 .4-.3.7-.3.3-.7.3zm9 0q-.5 0-.8-.3-.3-.3-.3-.7 0-.4.3-.7.3-.3.8-.3.4 0 .7.3.3.3.3.7 0 .4-.3.7-.3.3-.7.3zm9 0q-.5 0-.8-.3-.3-.3-.3-.7 0-.4.3-.7.3-.3.8-.3.4 0 .7.3.3.3.3.7 0 .4-.3.7-.3.3-.7.3zm14.7 2.7v-1h.9q1.2 0 1.7-.5.6-.5.6-1.7v-1.5q0-2.3 1.4-2.8-1.5-.7-1.5-2.6v-1.3q0-2-1.7-2h-1.4v-1h1q3.4 0 3.4 3.2v1.3q0 1 .3 1.5.5.4 1.3.4h.3v1h-.3q-.8 0-1.2.5-.4.4-.4 1.5v1.8q0 1.3-.3 2-.4.6-1.3 1-.8.2-2.2.2h-.6z" font-size="18" font-family="Inconsolata" fill="#173182"/><path d="M561.6 379q-1.4 0-2.2-.2-.8-.3-1.3-1-.4-.7-.3-1.9v-1.8q0-1.1-.3-1.6-.4-.4-1.2-.4h-.4v-1h.3q.9 0 1.3-.5.4-.4.4-1.4v-1.3q0-3.2 3.2-3.2h1.2v1h-1.5q-1.7 0-1.7 2v1.2q0 2-1.5 2.7 1.5.5 1.5 2.8v1.5q0 1.2.5 1.7.5.4 1.7.4h1v1h-.7zm12.6-11h1.3v1.4q.5-.7 1.2-1.2.8-.4 1.6-.4 1 0 1.7.8t.7 2.6v5h-1.3v-5q0-1.2-.4-1.7-.4-.6-1-.6t-1.2.3q-.6.3-1 1-.3.5-.3 1.3v4.7h-1.3V368zm12.1-.2q1.8 0 2.7.9 1 1 1 3.1v4.4h-1.5v-1.3q-.7 1.5-2.8 1.5-1.3 0-2.1-.6-.8-.7-.8-1.7 0-.8.6-1.5.5-.6 1.5-1 1-.3 2-.3h2q-.2-1.3-.8-1.9-.6-.6-1.9-.6-.6 0-1.1.3-.6.2-1 .7l-.7-.9q1.1-1.1 3-1.1zm-.4 7.6q1.3 0 2-.8.8-.8 1-2.2l-1.8-.2q-1.4 0-2.2.5-.8.4-.8 1.3 0 1.4 1.8 1.4zm5.7-7.4h1.2v.8q.3-.5.7-.7.5-.3 1-.3t1 .3q.3.4.4.9.3-.6.8-.9.5-.3 1.1-.3.8 0 1.2.6.4.5.4 1.5v6.3h-1.2v-5.8q0-1-.2-1.4-.2-.3-.6-.3-.3 0-.6.3l-.5.8-.2 1v5.4h-1.2v-5.7q0-1-.2-1.4-.2-.3-.7-.3l-.6.2-.4.7q-.2.4-.2 1v5.5h-1.2V368zm13.2 8.4q-1.8 0-2.9-1.1-1-1.2-1-3.2 0-1.3.4-2.3.5-1 1.4-1.5.8-.5 1.9-.5 1.5 0 2.4 1 1 1 1 2.9v.6h-6q.1 1.5 1 2.3.7.7 1.9.7 1.3 0 2-.9l.8.7q-1 1.3-2.9 1.3zm1.8-5.1q0-1.2-.6-1.9-.5-.6-1.5-.6-.9 0-1.6.6-.6.6-.8 1.9h4.5zm6.6-.7q-.4 0-.7-.3-.3-.3-.3-.7 0-.4.3-.7.3-.3.7-.3.5 0 .8.3.3.3.3.7 0 .4-.3.7-.3.3-.8.3zm0 5.8q-.4 0-.7-.3-.3-.3-.3-.7 0-.5.3-.8.3-.3.7-.3.5 0 .8.3.3.3.3.8 0 .4-.3.7-.3.3-.8.3zm17.6-12.2v2.3l-.2 1.5v.9h-1v-.9l-.2-1.5v-2.3h1.4zm2.7 0v2.3l-.2 1.5v.9h-1v-.9l-.2-1.5v-2.3h1.4zm9.1 3.8v7.8q0 1.8-.9 2.6-.9 1-2.3 1-.8 0-1.4-.4-.7-.3-1.2-.8l.7-1q.4.5.8.7.5.3 1.1.3.9 0 1.4-.6.5-.5.5-1.7V369h-3v-1h4.3zm-4.9 9.1q0 .1 0 0h-.1.1zm-.2 0zm4.3-10.9q-.4 0-.6-.2-.3-.3-.3-.7 0-.4.3-.6.2-.3.6-.3.4 0 .7.3.3.2.3.6 0 .4-.3.7-.3.2-.7.2zm7.5 1.6q1.8 0 2.7.9 1 1 1 3.1v4.4h-1.5v-1.3q-.7 1.5-2.8 1.5-1.3 0-2.1-.6-.8-.7-.8-1.7 0-.8.6-1.5.5-.6 1.5-1 1-.3 2-.3h2q-.2-1.3-.8-1.9-.6-.6-1.9-.6-.6 0-1.1.3-.6.2-1 .7l-.7-.9q1.1-1.1 3-1.1zm-.4 7.6q1.3 0 2-.8.8-.8 1-2.2l-1.8-.2q-1.4 0-2.2.5-.8.4-.8 1.3 0 1.4 1.8 1.4zm6.3-7.4h1.3v1.4q.5-.7 1.2-1.2.8-.4 1.6-.4 1 0 1.7.8t.7 2.6v5h-1.3v-5q0-1.2-.4-1.7-.4-.6-1-.6t-1.2.3q-.6.3-1 1-.3.5-.3 1.3v4.7h-1.3V368zm11.6-3.8v2.3l-.2 1.5v.9h-1v-.9l-.2-1.5v-2.3h1.4zm2.7 0v2.3l-.2 1.5v.9h-1v-.9l-.2-1.5v-2.3h1.4zm5.5 14.5l.7-1q.4-.6.4-1l-.1-.2-.3-.3-.4-.4-.1-.4q0-.5.2-.8.4-.3.8-.3.5 0 .9.5.3.4.3 1 0 1.4-1.9 3.4l-.6-.5zm19.3-10.9q1.8 0 2.7.9 1 1 1 3.1v4.4h-1.5v-1.3q-.7 1.5-2.8 1.5-1.3 0-2.1-.6-.8-.7-.8-1.7 0-.8.6-1.5.5-.6 1.5-1 1-.3 2-.3h2q-.2-1.3-.8-1.9-.6-.6-1.9-.6-.6 0-1.1.3-.6.2-1 .7l-.7-.9q1.1-1.1 3-1.1zm-.4 7.6q1.3 0 2-.8.8-.8 1-2.2l-1.8-.2q-1.4 0-2.2.5-.8.4-.8 1.3 0 1.4 1.8 1.4zm13.6-6.6h-.5q-.8 0-1.4.4.3.6.3 1.3 0 .8-.4 1.5-.3.6-1 1-.6.4-1.5.4-.7 0-1.3-.3-.3.4-.3.8t.5.6q.6.2 2 .2 1.8 0 2.4.6.6.5.6 1.5t-.8 1.8q-.9.7-2.7.7-1.8 0-2.8-.6-1-.5-1-1.5 0-.7.4-1.2.3-.4.9-.7-.6-.4-.6-1 0-.8.7-1.6-.4-.4-.6-1-.3-.5-.3-1.2 0-.8.4-1.4.3-.7 1-1 .6-.4 1.5-.4 1.3 0 2.1.8.4-.4.9-.6l1-.2h.3l.2 1.1zm-4.5 3.5q.8 0 1.3-.5t.5-1.3q0-.7-.5-1.3-.5-.5-1.3-.5t-1.3.5q-.5.6-.5 1.3 0 .8.5 1.3t1.3.5zm2.8 4.7q0-.4-.2-.7-.1-.2-.6-.3-.4-.2-1.3-.2-1.3 0-2.1-.2l-.6.6q-.2.3-.2.8 0 .6.7 1 .7.3 1.9.3t1.8-.3q.6-.4.6-1zm7-.6q-1.8 0-2.9-1.1-1-1.2-1-3.2 0-1.3.4-2.3.5-1 1.4-1.5.8-.5 1.9-.5 1.5 0 2.4 1 1 1 1 2.9v.6h-6q.1 1.5 1 2.3.7.7 1.9.7 1.3 0 2-.9l.8.7q-1 1.3-2.9 1.3zm1.8-5.1q0-1.2-.6-1.9-.5-.6-1.5-.6-.9 0-1.6.6-.6.6-.8 1.9h4.5zm6.6-.7q-.4 0-.7-.3-.3-.3-.3-.7 0-.4.3-.7.3-.3.7-.3.5 0 .8.3.3.3.3.7 0 .4-.3.7-.3.3-.8.3zm0 5.8q-.4 0-.7-.3-.3-.3-.3-.7 0-.5.3-.8.3-.3.7-.3.5 0 .8.3.3.3.3.8 0 .4-.3.7-.3.3-.8.3zm15.1-1.2l1.4-1.5 2.2-2.3 1.2-1.6q.4-.8.4-1.7 0-1.1-.5-1.6-.6-.5-1.4-.5-.8 0-1.5.3-.6.4-.8.8l-.2.4-.1.2h.1v.2l-.2-.1-1-.7q.6-1 1.6-1.6.9-.6 2-.6 1.5 0 2.4.9.9.8.9 2.3 0 1-.5 1.9-.5 1-1.2 1.7l-2 2.2-1.2 1.2h4.6l.2-.2h.1v1.3h-6.5v-1zm11.7 1v-9.7l-2.2.7-.3-.7 3-1.5h.8v11.2h-1.2zm8 2.5l.7-1q.4-.6.4-1l-.1-.2-.3-.3-.4-.4-.1-.4q0-.5.2-.8.4-.3.8-.3.5 0 .9.5.3.4.3 1 0 1.4-1.9 3.4l-.6-.5zm19.2-2.3q-.4 0-.7-.3-.3-.3-.3-.7 0-.5.3-.8.3-.3.7-.3.4 0 .7.3.3.3.3.8 0 .4-.3.7-.3.3-.7.3zm9 0q-.4 0-.7-.3-.3-.3-.3-.7 0-.5.3-.8.3-.3.7-.3.4 0 .7.3.3.3.3.8 0 .4-.3.7-.3.3-.7.3zm9 0q-.4 0-.7-.3-.3-.3-.3-.7 0-.5.3-.8.3-.3.7-.3.4 0 .7.3.3.3.3.8 0 .4-.3.7-.3.3-.7.3zM808 379v-1h.8q1.3 0 1.8-.4.5-.5.5-1.7v-1.5q0-2.3 1.5-2.8-1.6-.7-1.6-2.7v-1.2q0-2-1.6-2h-1.5v-1h1.1q3.3 0 3.3 3.2v1.3q0 1 .4 1.4.4.5 1.3.5h.3v1h-.4q-.8 0-1.2.4-.4.5-.4 1.6v1.8q.1 1.2-.3 2-.4.6-1.2.9-.9.3-2.2.3h-.7z" font-size="18" font-family="Inconsolata" fill="#1a3485"/><g font-size="18" font-family="Inconsolata"><path d="M561.6 555.6q-1.4 0-2.2-.2-.8-.3-1.3-1-.4-.7-.3-2v-1.7q0-1.1-.3-1.6-.4-.4-1.2-.4h-.4v-1h.3q.9 0 1.3-.5t.4-1.5v-1.3q0-3 3.2-3h1.2v1h-1.5q-1.7 0-1.7 1.8v1.3q0 2-1.5 2.7 1.5.5 1.5 2.8v1.5q0 1.2.5 1.6.5.5 1.7.5h1v1h-.7zm12.6-11h1.3v1.4q.5-.7 1.2-1.2.8-.4 1.6-.4 1 0 1.7.8t.7 2.6v5h-1.3v-5q0-1.2-.4-1.8-.4-.5-1-.5t-1.2.3q-.6.3-1 1-.3.5-.3 1.2v4.8h-1.3v-8.2zm12.1-.2q1.8 0 2.7.9 1 1 1 3.1v4.4h-1.5v-1.3q-.7 1.5-2.8 1.5-1.3 0-2.1-.6-.8-.7-.8-1.7 0-.9.6-1.5.5-.6 1.5-1t2-.4l2 .2q-.2-1.4-.8-2-.6-.6-1.9-.6-.6 0-1.1.3-.6.2-1 .7l-.7-.9q1.1-1.1 3-1.1zm-.4 7.6q1.3 0 2-.8.8-.8 1-2.3H587q-1.4 0-2.2.4-.8.4-.8 1.3 0 1.4 1.8 1.4zm5.7-7.4h1.2v.8q.3-.5.7-.8l1-.2q.5 0 1 .3.3.3.4.9.3-.6.8-.9.5-.3 1.1-.3.8 0 1.2.5.4.6.4 1.6v6.3h-1.2v-5.9q0-1-.2-1.3-.2-.3-.6-.3-.3 0-.6.3l-.5.8-.2 1v5.4h-1.2V547q0-1-.2-1.4-.2-.4-.7-.4-.3 0-.6.3l-.4.7q-.2.4-.2 1v5.5h-1.2v-8.2zm13.2 8.4q-1.8 0-2.9-1.2-1-1-1-3.1 0-1.4.4-2.3.5-1 1.4-1.5.8-.5 1.9-.5 1.5 0 2.4 1 1 1 1 2.9v.6h-6q.1 1.5 1 2.2.7.8 1.9.8 1.3 0 2-.9l.8.7q-1 1.3-2.9 1.3zm1.8-5.2q0-1.1-.6-1.8-.5-.7-1.5-.7-.9 0-1.6.7-.6.6-.8 1.8h4.5zm6.6-.6q-.4 0-.7-.3-.3-.3-.3-.7 0-.4.3-.7.3-.3.7-.3.5 0 .8.3.3.3.3.7 0 .4-.3.7-.3.3-.8.3zm0 5.8q-.4 0-.7-.3-.3-.3-.3-.7 0-.5.3-.8.3-.3.7-.3.5 0 .8.3.3.3.3.8 0 .4-.3.7-.3.3-.8.3zm17.6-12.2v2.2l-.2 1.6v.9h-1v-1l-.2-1.4v-2.3h1.4zm2.7 0v2.2l-.2 1.6v.9h-1v-1l-.2-1.4v-2.3h1.4zm10.1 5.5l-.9-.7-.8-.1q-.6 0-1.2.3t-1 1q-.3.6-.3 1.6v4.4H638v-8.2h1.3v1.5q.3-.8 1-1.3.8-.4 1.6-.4 1.3 0 2.2.9l-.6 1zm0 0q.1 0 0 0zm-.2 0h.2v.1h-.2zm9.6-1.7l-.4 1.4-.7 2-2 5.7q-.4 1.2-1 1.7-.8.5-1.7.5-1.1 0-1.9-.7l.6-.9.6.4.8.2q.7 0 1-.5.5-.5.8-1.6l-3.3-8.2h1.3l2.6 6.5 1-3.3.6-1.9.3-1.3h1.3zm-6.9 9.7h-.2l.1-.1h.1zm-.2 0zm12.4-9.9q1.8 0 2.7.9 1 1 1 3.1v4.4h-1.5v-1.3q-.7 1.5-2.8 1.5-1.3 0-2.1-.6-.8-.7-.8-1.7 0-.9.6-1.5.5-.6 1.5-1t2-.4l2 .2q-.2-1.4-.8-2-.6-.6-1.9-.6-.6 0-1.1.3-.6.2-1 .7l-.7-.9q1.1-1.1 3-1.1zm-.4 7.6q1.3 0 2-.8.8-.8 1-2.3H659q-1.4 0-2.2.4-.8.4-.8 1.3 0 1.4 1.8 1.4zm6.3-7.4h1.3v1.4q.5-.7 1.2-1.2.8-.4 1.6-.4 1 0 1.7.8t.7 2.6v5h-1.3v-5q0-1.2-.4-1.8-.4-.5-1-.5t-1.2.3q-.6.3-1 1-.3.5-.3 1.2v4.8h-1.3v-8.2zm11.6-3.8v2.2l-.2 1.6v.9h-1v-1l-.2-1.4v-2.3h1.4zm2.7 0v2.2l-.2 1.6v.9h-1v-1l-.2-1.4v-2.3h1.4zm5.5 14.5l.7-1q.4-.6.4-1l-.1-.2-.3-.3-.4-.4-.1-.4q0-.5.2-.8.4-.3.8-.3.5 0 .9.5.3.4.3 1 0 1.4-1.9 3.4l-.6-.5z" fill="#173182"/><path d="M703.3 544.4q1.8 0 2.7.9 1 1 1 3.1v4.4h-1.5v-1.3q-.7 1.5-2.8 1.5-1.3 0-2.1-.6-.8-.7-.8-1.7 0-.9.6-1.5.5-.6 1.5-1t2-.4l2 .2q-.2-1.4-.8-2-.6-.6-1.9-.6-.6 0-1.1.3-.6.2-1 .7l-.7-.9q1.1-1.1 3-1.1zm-.4 7.6q1.3 0 2-.8.8-.8 1-2.3H704q-1.4 0-2.2.4-.8.4-.8 1.3 0 1.4 1.8 1.4zm13.6-6.6h-.5q-.8 0-1.4.4.3.6.3 1.3 0 .8-.4 1.5-.3.6-1 1-.6.4-1.5.4-.7 0-1.3-.3-.3.4-.3.8t.5.6q.6.2 2 .2 1.8 0 2.4.5.6.6.6 1.6t-.8 1.8q-.9.7-2.7.7-1.8 0-2.8-.6-1-.5-1-1.5 0-.7.4-1.2.3-.4.9-.7-.6-.4-.6-1.1 0-.7.7-1.5-.4-.4-.6-1-.3-.5-.3-1.2 0-.8.4-1.4.3-.7 1-1 .6-.5 1.5-.5 1.3 0 2.1.9.4-.4.9-.6l1-.2h.3l.2 1.1zm-4.5 3.5q.8 0 1.3-.5t.5-1.3q0-.7-.5-1.3-.5-.5-1.3-.5t-1.3.5q-.5.6-.5 1.3 0 .8.5 1.3t1.3.5zm2.8 4.7q0-.4-.2-.7-.1-.2-.6-.3-.4-.2-1.3-.2-1.3 0-2.1-.2l-.6.6q-.2.3-.2.8 0 .6.7 1 .7.3 1.9.3t1.8-.4q.6-.3.6-1zm7-.6q-1.8 0-2.9-1.2-1-1-1-3.1 0-1.4.4-2.3.5-1 1.4-1.5.8-.5 1.9-.5 1.5 0 2.4 1 1 1 1 2.9v.6h-6q.1 1.5 1 2.2.7.8 1.9.8 1.3 0 2-.9l.8.7q-1 1.3-2.9 1.3zm1.8-5.2q0-1.1-.6-1.8-.5-.7-1.5-.7-.9 0-1.6.7-.6.6-.8 1.8h4.5zm6.6-.6q-.4 0-.7-.3-.3-.3-.3-.7 0-.4.3-.7.3-.3.7-.3.5 0 .8.3.3.3.3.7 0 .4-.3.7-.3.3-.8.3zm0 5.8q-.4 0-.7-.3-.3-.3-.3-.7 0-.5.3-.8.3-.3.7-.3.5 0 .8.3.3.3.3.8 0 .4-.3.7-.3.3-.8.3zm19.3-6.2q1 .4 1.5 1 .6.8.6 1.9 0 .9-.4 1.7-.4.7-1.1 1.1-.8.5-1.8.5t-1.8-.3q-.7-.4-1.3-1l.8-1q.5.6 1 .9.4.3 1.2.3 1 0 1.6-.6.5-.6.5-1.7 0-1-.7-1.6-.6-.6-1.8-.6h-.6v-1q1.6 0 2.2-.6.6-.5.6-1.6 0-.7-.5-1.2-.4-.4-1.2-.4-1.1 0-2 .8l-.8-.8q1.1-1.1 2.8-1.1 1.4 0 2.2.8.7.7.7 2 0 .9-.4 1.6-.5.7-1.3 1zm-3.3 3.9h-.1v-.1h.1zm-.2 0v-.1zm11 2.1V543l-2.2.7-.3-.7 3-1.6h.8v11.3h-1.2zm8 2.5l.7-1q.4-.6.4-1l-.1-.2-.3-.3-.4-.4-.1-.4q0-.5.2-.8.4-.3.8-.3.5 0 .9.5.3.4.3 1 0 1.4-1.9 3.4l-.6-.5zm19.2-2.3q-.4 0-.7-.3-.3-.3-.3-.7 0-.5.3-.8.3-.3.7-.3.4 0 .7.3.3.3.3.8 0 .4-.3.7-.3.3-.7.3zm9 0q-.4 0-.7-.3-.3-.3-.3-.7 0-.5.3-.8.3-.3.7-.3.4 0 .7.3.3.3.3.8 0 .4-.3.7-.3.3-.7.3zm9 0q-.4 0-.7-.3-.3-.3-.3-.7 0-.5.3-.8.3-.3.7-.3.4 0 .7.3.3.3.3.8 0 .4-.3.7-.3.3-.7.3zm14.8 2.6v-1h.8q1.3 0 1.8-.5.5-.4.5-1.6V551q0-2.3 1.5-2.8-1.6-.7-1.6-2.7v-1.3q0-1.9-1.6-1.9h-1.5v-1h1.1q3.3 0 3.3 3.1v1.3q0 1 .4 1.5t1.3.5h.3v1h-.4q-.8 0-1.2.4-.4.5-.4 1.6v1.8q.1 1.2-.3 2-.4.6-1.2.9-.9.2-2.2.2h-.7z" fill="#142372"/></g><path d="M561.6 468q-1.4 0-2.2-.3-.8-.3-1.3-1-.4-.7-.3-2V463q0-1.2-.3-1.6-.4-.4-1.2-.4h-.4v-1h.3q.9 0 1.3-.5t.4-1.5v-1.3q0-3.1 3.2-3.1h1.2v1h-1.5q-1.7 0-1.7 2v1.2q0 2-1.5 2.7 1.5.5 1.5 2.7v1.6q0 1.2.5 1.6.5.5 1.7.5h1v1h-.7zm12.6-11.2h1.3v1.5q.5-.8 1.2-1.2.8-.5 1.6-.5 1 0 1.7.9.7.8.7 2.6v5h-1.3v-5q0-1.2-.4-1.8-.4-.5-1-.5t-1.2.3q-.6.3-1 1-.3.5-.3 1.2v4.8h-1.3v-8.3zm12.1-.1q1.8 0 2.7.9 1 .9 1 3v4.5h-1.5v-1.3q-.7 1.5-2.8 1.5-1.3 0-2.1-.7-.8-.6-.8-1.6 0-.9.6-1.5.5-.7 1.5-1 1-.4 2-.4l2 .1q-.2-1.4-.8-2-.6-.5-1.9-.5-.6 0-1.1.2l-1 .7-.7-.8q1.1-1.1 3-1.1zm-.4 7.6q1.3 0 2-.8.8-.8 1-2.3l-1.8-.1q-1.4 0-2.2.4-.8.5-.8 1.4 0 1.4 1.8 1.4zm5.7-7.5h1.2v.8l.7-.7q.5-.3 1-.3t1 .4q.3.3.4.8.3-.5.8-.8.5-.4 1.1-.4.8 0 1.2.6.4.6.4 1.5v6.4h-1.2v-5.9q0-1-.2-1.3-.2-.3-.6-.3-.3 0-.6.3l-.5.8-.2 1v5.4h-1.2v-5.8q0-1-.2-1.3-.2-.4-.7-.4-.3 0-.6.3l-.4.7q-.2.4-.2 1v5.5h-1.2v-8.3zm13.2 8.4q-1.8 0-2.9-1-1-1.2-1-3.2 0-1.4.4-2.3.5-1 1.4-1.5.8-.6 1.9-.6 1.5 0 2.4 1 1 1 1 3v.5h-6q.1 1.5 1 2.3.7.8 1.9.8 1.3 0 2-1l.8.8q-1 1.2-2.9 1.2zm1.8-5q0-1.2-.6-1.9-.5-.7-1.5-.7-.9 0-1.6.7-.6.6-.8 1.8h4.5zm6.6-.7q-.4 0-.7-.3-.3-.3-.3-.7 0-.4.3-.7.3-.4.7-.4.5 0 .8.4.3.3.3.7 0 .4-.3.7-.3.3-.8.3zm0 5.8q-.4 0-.7-.3-.3-.3-.3-.8 0-.4.3-.7.3-.3.7-.3.5 0 .8.3.3.3.3.7 0 .4-.3.8-.3.3-.8.3zm17.6-12.3v2.3l-.2 1.6v.8h-1v-.8l-.2-1.6v-2.2h1.4zm2.7 0v2.3l-.2 1.6v.8h-1v-.8l-.2-1.6v-2.2h1.4zm7.5 7.2q1.6.5 2.2 1 .7.6.7 1.5 0 1-1 1.8-.8.7-2.4.7-2.1 0-3.5-1.3l.7-1.2q.6.7 1.2 1.1.6.4 1.6.4t1.5-.4q.6-.3.6-1 0-.5-.5-.8-.4-.4-1.6-.7-3-1-3-2.6 0-1 .7-1.5.8-.6 2.2-.6 1.2 0 2 .4.7.3 1.3 1l-.7.8q-.4-.5-1.1-.9-.7-.3-1.4-.3-.8 0-1.3.3-.5.2-.5.7 0 .5.5.9l1.8.7zm1.8-1.3q0-.1.1 0h-.1zm.2 0h-.1zm-5.1 3.7q0 .1-.2 0h.2zm-.2.1zm11.6-6q1.8 0 2.7.9 1 .9 1 3v4.5h-1.5v-1.3q-.7 1.5-2.8 1.5-1.3 0-2.1-.7-.8-.6-.8-1.6 0-.9.6-1.5.5-.7 1.5-1 1-.4 2-.4l2 .1q-.2-1.4-.8-2-.6-.5-1.9-.5-.6 0-1.1.2l-1 .7-.7-.8q1.1-1.1 3-1.1zm-.4 7.6q1.3 0 2-.8.8-.8 1-2.3l-1.8-.1q-1.4 0-2.2.4-.8.5-.8 1.4 0 1.4 1.8 1.4zm5.7-7.5h1.2v.8l.7-.7q.5-.3 1-.3t1 .4q.3.3.4.8.3-.5.8-.8.5-.4 1.1-.4.8 0 1.2.6.4.6.4 1.5v6.4h-1.2v-5.9q0-1-.2-1.3-.2-.3-.6-.3-.3 0-.6.3l-.5.8-.2 1v5.4h-1.2v-5.8q0-1-.2-1.3-.2-.4-.7-.4-.3 0-.6.3l-.4.7q-.2.4-.2 1v5.5h-1.2v-8.3zm12.2-3.8v2.3l-.2 1.6v.8h-1v-.8l-.2-1.6v-2.2h1.4zm2.7 0v2.3l-.2 1.6v.8h-1v-.8l-.2-1.6v-2.2h1.4zm5.5 14.5l.7-1q.4-.5.4-.8l-.1-.3-.3-.3-.4-.4-.1-.4q0-.5.2-.8.4-.3.8-.3.5 0 .9.4.3.5.3 1.1 0 1.4-1.9 3.4l-.6-.6zm19.3-10.8q1.8 0 2.7.9 1 .9 1 3v4.5h-1.5v-1.3q-.7 1.5-2.8 1.5-1.3 0-2.1-.7-.8-.6-.8-1.6 0-.9.6-1.5.5-.7 1.5-1 1-.4 2-.4l2 .1q-.2-1.4-.8-2-.6-.5-1.9-.5-.6 0-1.1.2l-1 .7-.7-.8q1.1-1.1 3-1.1zm-.4 7.6q1.3 0 2-.8.8-.8 1-2.3l-1.8-.1q-1.4 0-2.2.4-.8.5-.8 1.4 0 1.4 1.8 1.4zm13.6-6.6h-.5q-.8 0-1.4.3.3.7.3 1.4 0 .8-.4 1.5-.3.6-1 1-.6.4-1.5.4-.7 0-1.3-.3-.3.4-.3.8t.5.6q.6.2 2 .2 1.8 0 2.4.5.6.5.6 1.6 0 1-.8 1.7-.9.8-2.7.8-1.8 0-2.8-.6-1-.5-1-1.6 0-.6.4-1 .3-.6.9-.8-.6-.4-.6-1.1 0-.7.7-1.5-.4-.4-.6-1-.3-.5-.3-1.2 0-.8.4-1.5.3-.6 1-1 .6-.4 1.5-.4 1.3 0 2.1.9.4-.4.9-.6l1-.2h.3l.2 1zm-4.5 3.5q.8 0 1.3-.5.5-.6.5-1.3 0-.8-.5-1.3t-1.3-.5q-.8 0-1.3.5t-.5 1.3q0 .7.5 1.3.5.5 1.3.5zm2.8 4.7q0-.5-.2-.7-.1-.2-.6-.4h-1.3q-1.3 0-2.1-.3l-.6.6q-.2.3-.2.8 0 .6.7 1 .7.3 1.9.3t1.8-.4q.6-.3.6-1zm7-.7q-1.8 0-2.9-1-1-1.2-1-3.2 0-1.4.4-2.3.5-1 1.4-1.5.8-.6 1.9-.6 1.5 0 2.4 1 1 1 1 3v.5h-6q.1 1.5 1 2.3.7.8 1.9.8 1.3 0 2-1l.8.8q-1 1.2-2.9 1.2zm1.8-5q0-1.2-.6-1.9-.5-.7-1.5-.7-.9 0-1.6.7-.6.6-.8 1.8h4.5zm6.6-.7q-.4 0-.7-.3-.3-.3-.3-.7 0-.4.3-.7.3-.4.7-.4.5 0 .8.4.3.3.3.7 0 .4-.3.7-.3.3-.8.3zm0 5.8q-.4 0-.7-.3-.3-.3-.3-.8 0-.4.3-.7.3-.3.7-.3.5 0 .8.3.3.3.3.7 0 .4-.3.8-.3.3-.8.3zm17.8-.3v-9.6l-2.2.7-.3-.7 3-1.6h.8v11.3h-1.2zm9.4.2q-1 0-1.8-.4t-1.2-1q-.4-.7-.4-1.6 0-1 .6-1.8t1.7-1.3q-.8-.4-1.3-1.1-.4-.7-.4-1.5 0-1.2.7-2 .8-.8 2.2-.8 1.5 0 2.2.8.8.7.8 1.9 0 .8-.5 1.5t-1.3 1.2q1 .4 1.6 1.3.6.8.6 1.8 0 .8-.5 1.5-.4.7-1.2 1.1-.7.4-1.8.4zm.3-6.6q.7-.4 1.1-1 .5-.6.5-1.2 0-.7-.5-1.2-.5-.4-1.3-.4-.9 0-1.3.4-.4.5-.4 1.1 0 .8.5 1.3.4.5 1.4 1zm-.2 5.5q1 0 1.5-.5.6-.6.6-1.4 0-.9-.6-1.6-.7-.7-1.8-1-.8.3-1.4 1-.5.7-.5 1.5 0 .9.6 1.4.6.6 1.6.6zm7.5 3.4l.7-1q.4-.5.4-.8l-.1-.3-.3-.3-.4-.4-.1-.4q0-.5.2-.8.4-.3.8-.3.5 0 .9.4.3.5.3 1.1 0 1.4-1.9 3.4l-.6-.6zm19.2-2.2q-.4 0-.7-.3-.3-.4-.3-.8t.3-.7q.3-.3.7-.3.4 0 .7.3.3.3.3.7 0 .4-.3.8-.3.3-.7.3zm9 0q-.4 0-.7-.3-.3-.4-.3-.8t.3-.7q.3-.3.7-.3.4 0 .7.3.3.3.3.7 0 .4-.3.8-.3.3-.7.3zm9 0q-.4 0-.7-.3-.3-.4-.3-.8t.3-.7q.3-.3.7-.3.4 0 .7.3.3.3.3.7 0 .4-.3.8-.3.3-.7.3zM808 468v-1h.8q1.3 0 1.8-.6.5-.4.5-1.6v-1.6q0-2.2 1.5-2.7-1.6-.7-1.6-2.7v-1.3q0-1.9-1.6-1.9h-1.5v-1h1.1q3.3 0 3.3 3.1v1.3q0 1 .4 1.5.4.4 1.3.4h.3v1h-.4q-.8 0-1.2.5-.4.4-.4 1.6v1.8q.1 1.2-.3 1.9t-1.2 1q-.9.2-2.2.2h-.7zm-246.4 42.8q-1.4 0-2.2-.3-.8-.3-1.3-1-.4-.7-.3-1.9v-1.8q0-1.1-.3-1.6-.4-.4-1.2-.4h-.4v-1h.3q.9 0 1.3-.5.4-.4.4-1.4v-1.3q0-3.2 3.2-3.2h1.2v1h-1.5q-1.7 0-1.7 2v1.2q0 2-1.5 2.7 1.5.5 1.5 2.8v1.5q0 1.2.5 1.7.5.4 1.7.4h1v1h-.7zm12.6-11.1h1.3v1.4q.5-.7 1.2-1.2.8-.4 1.6-.4 1 0 1.7.8t.7 2.6v5h-1.3v-5q0-1.2-.4-1.7-.4-.6-1-.6t-1.2.3q-.6.4-1 1-.3.5-.3 1.3v4.7h-1.3v-8.2zm12.1-.2q1.8 0 2.7 1 1 .8 1 3v4.4h-1.5v-1.3q-.7 1.5-2.8 1.5-1.3 0-2.1-.6t-.8-1.7q0-.8.6-1.5.5-.6 1.5-1 1-.3 2-.3h2q-.2-1.3-.8-1.9-.6-.5-1.9-.5-.6 0-1.1.2-.6.2-1 .7l-.7-.9q1.1-1.1 3-1.1zm-.4 7.6q1.3 0 2-.8.8-.8 1-2.2l-1.8-.2q-1.4 0-2.2.5-.8.4-.8 1.4 0 1.3 1.8 1.3zm5.7-7.4h1.2v.8q.3-.5.7-.7.5-.3 1-.3t1 .3q.3.4.4.9.3-.6.8-.9.5-.3 1.1-.3.8 0 1.2.6.4.5.4 1.5v6.3h-1.2v-5.8q0-1-.2-1.4-.2-.3-.6-.3-.3 0-.6.3l-.5.8-.2 1v5.4h-1.2v-5.7q0-1-.2-1.4-.2-.3-.7-.3l-.6.2-.4.7q-.2.4-.2 1v5.5h-1.2v-8.2zm13.2 8.3q-1.8 0-2.9-1-1-1.2-1-3.2 0-1.3.4-2.3.5-1 1.4-1.5.8-.5 1.9-.5 1.5 0 2.4 1 1 1 1 2.9v.6h-6q.1 1.5 1 2.3.7.7 1.9.7 1.3 0 2-.9l.8.7q-1 1.3-2.9 1.3zm1.8-5q0-1.2-.6-1.9-.5-.6-1.5-.6-.9 0-1.6.6-.6.6-.8 1.9h4.5zm6.6-.6q-.4 0-.7-.4-.3-.3-.3-.7 0-.4.3-.7.3-.3.7-.3.5 0 .8.3.3.3.3.7 0 .4-.3.7-.3.4-.8.4zm0 5.7q-.4 0-.7-.3-.3-.3-.3-.7 0-.5.3-.8.3-.3.7-.3.5 0 .8.3.3.3.3.8 0 .4-.3.7-.3.3-.8.3zm17.6-12.1v2.2l-.2 1.5v.9h-1v-.9l-.2-1.5v-2.3h1.4zm2.7 0v2.2l-.2 1.5v.9h-1v-.9l-.2-1.5v-2.3h1.4zm3.1 3.7h1.2v.8q.3-.5.7-.7.5-.3 1-.3t1 .3q.3.4.4.9.3-.6.8-.9.5-.3 1.1-.3.8 0 1.2.6.4.5.4 1.5v6.3h-1.2v-5.8q0-1-.2-1.4-.2-.3-.6-.3-.3 0-.6.3l-.5.8-.2 1v5.4h-1.2v-5.7q0-1-.2-1.4-.2-.3-.7-.3l-.6.2-.4.7q-.2.4-.2 1v5.5h-1.2v-8.2zm13.2 8.3q-1.8 0-2.9-1-1-1.2-1-3.2 0-1.3.4-2.3.5-1 1.4-1.5.8-.5 1.9-.5 1.5 0 2.4 1 1 1 1 2.9v.6h-6q.1 1.5 1 2.3.7.7 1.9.7 1.3 0 2-.9l.8.7q-1 1.3-2.9 1.3zm1.8-5q0-1.2-.6-1.9-.5-.6-1.5-.6-.9 0-1.6.6-.6.6-.8 1.9h4.5zm3.8 4.9v-1h2.4v-10h-2.3v-1h3.6v11h2.4v1h-6.1zm11.4-11.9v2.2l-.2 1.5v.9h-1v-.9l-.2-1.5v-2.3h1.4zm2.7 0v2.2l-.2 1.5v.9h-1v-.9l-.2-1.5v-2.3h1.4zm5.5 14.4l.7-1q.4-.6.4-1l-.1-.2-.3-.3-.4-.4-.1-.4.2-.8q.4-.3.8-.3.5 0 .9.5.3.4.3 1 0 1.4-1.9 3.4l-.6-.5zm19.3-10.9q1.8 0 2.7 1 1 .8 1 3v4.4h-1.5v-1.3q-.7 1.5-2.8 1.5-1.3 0-2.1-.6t-.8-1.7q0-.8.6-1.5.5-.6 1.5-1 1-.3 2-.3h2q-.2-1.3-.8-1.9-.6-.5-1.9-.5-.6 0-1.1.2-.6.2-1 .7l-.7-.9q1.1-1.1 3-1.1zm-.4 7.6q1.3 0 2-.8.8-.8 1-2.2l-1.8-.2q-1.4 0-2.2.5-.8.4-.8 1.4 0 1.3 1.8 1.3zm13.6-6.6h-.5q-.8 0-1.4.4.3.6.3 1.3 0 .8-.4 1.5-.3.6-1 1-.6.4-1.5.4-.7 0-1.3-.2-.3.3-.3.7 0 .4.5.6.6.2 2 .2 1.8 0 2.4.6.6.5.6 1.5t-.8 1.8q-.9.7-2.7.7-1.8 0-2.8-.5-1-.6-1-1.6 0-.7.4-1.1.3-.5.9-.8-.6-.4-.6-1 0-.8.7-1.6-.4-.4-.6-1-.3-.5-.3-1.2 0-.8.4-1.4.3-.7 1-1 .6-.4 1.5-.4 1.3 0 2.1.8.4-.4.9-.6l1-.2h.3l.2 1.1zM703 504q.8 0 1.3-.5t.5-1.3q0-.7-.5-1.3-.5-.5-1.3-.5t-1.3.5q-.5.6-.5 1.3 0 .8.5 1.3t1.3.5zm2.8 4.7q0-.4-.2-.7-.1-.2-.6-.3l-1.3-.1q-1.3 0-2.1-.3l-.6.6q-.2.3-.2.8 0 .6.7 1 .7.3 1.9.3t1.8-.3q.6-.4.6-1zm7-.7q-1.8 0-2.9-1-1-1.2-1-3.2 0-1.3.4-2.3.5-1 1.4-1.5.8-.5 1.9-.5 1.5 0 2.4 1 1 1 1 2.9v.6h-6q.1 1.5 1 2.3.7.7 1.9.7 1.3 0 2-.9l.8.7q-1 1.3-2.9 1.3zm1.8-5q0-1.2-.6-1.9-.5-.6-1.5-.6-.9 0-1.6.6-.6.6-.8 1.9h4.5zm6.6-.6q-.4 0-.7-.4-.3-.3-.3-.7 0-.4.3-.7.3-.3.7-.3.5 0 .8.3.3.3.3.7 0 .4-.3.7-.3.4-.8.4zm0 5.7q-.4 0-.7-.3-.3-.3-.3-.7 0-.5.3-.8.3-.3.7-.3.5 0 .8.3.3.3.3.8 0 .4-.3.7-.3.3-.8.3zm19.3-6.1q1 .3 1.5 1 .6.7.6 1.8 0 1-.4 1.7t-1.1 1.2q-.8.4-1.8.4t-1.8-.3q-.7-.4-1.3-1l.8-1 1 1q.4.2 1.2.2 1 0 1.6-.6.5-.6.5-1.6 0-1.2-.7-1.7-.6-.6-1.8-.6h-.6v-1q1.6 0 2.2-.5.6-.6.6-1.7 0-.7-.5-1.2-.4-.4-1.2-.4-1.1 0-2 .8l-.8-.7q1.1-1.2 2.8-1.2 1.4 0 2.2.8.7.7.7 2 0 1-.4 1.6-.5.7-1.3 1zm-3.3 3.8h-.1v-.1h.1zm-.2 0q0-.1 0 0zm11.4 2.2q-1 0-1.8-.3-.8-.4-1.2-1.1-.4-.7-.4-1.5 0-1 .6-1.8.6-.9 1.7-1.4-.8-.4-1.3-1-.4-.8-.4-1.6 0-1.2.7-2 .8-.8 2.2-.8 1.5 0 2.2.8.8.7.8 1.9 0 .8-.5 1.5-.5.8-1.3 1.2 1 .5 1.6 1.3.6.8.6 1.8 0 .9-.5 1.6-.4.7-1.2 1-.7.5-1.8.5zm.3-6.5q.7-.4 1.1-1 .5-.6.5-1.3 0-.6-.5-1.1-.5-.5-1.3-.5-.9 0-1.3.5-.4.4-.4 1 0 .8.5 1.3.4.5 1.4 1zm-.2 5.4q1 0 1.5-.5.6-.6.6-1.4 0-.8-.6-1.5-.7-.7-1.8-1-.8.3-1.4 1-.5.7-.5 1.4 0 .9.6 1.5.6.5 1.6.5zm7.5 3.5l.7-1q.4-.6.4-1l-.1-.2-.3-.3-.4-.4-.1-.4.2-.8q.4-.3.8-.3.5 0 .9.5.3.4.3 1 0 1.4-1.9 3.4l-.6-.5zm19.2-2.4q-.4 0-.7-.2-.3-.3-.3-.7 0-.4.3-.8.3-.3.7-.3.4 0 .7.3.3.4.3.8t-.3.7q-.3.3-.7.3zm9 0q-.4 0-.7-.2-.3-.3-.3-.7 0-.4.3-.8.3-.3.7-.3.4 0 .7.3.3.4.3.8t-.3.7q-.3.3-.7.3zm9 0q-.4 0-.7-.2-.3-.3-.3-.7 0-.4.3-.8.3-.3.7-.3.4 0 .7.3.3.4.3.8t-.3.7q-.3.3-.7.3zm14.8 2.8v-1h.8q1.3 0 1.8-.5t.5-1.7V506q0-2.3 1.5-2.8-1.6-.7-1.6-2.7v-1.2q0-2-1.6-2h-1.5v-1h1.1q3.3 0 3.3 3.2v1.3q0 1 .4 1.4.4.5 1.3.5h.3v1h-.4q-.8 0-1.2.4-.4.5-.4 1.6v1.8q.1 1.2-.3 2-.4.6-1.2.9-.9.3-2.2.3h-.7z" font-size="18" font-family="Inconsolata" fill="#173182"/><path d="M666.3 637.4q-1.5 0-2.4-1-.9-1.2-.9-3.4v-5.4h1.5v5.4q0 1.7.6 2.5.6.7 1.6.7 1.1 0 1.8-.8.8-.9.8-2.5v-5.3h1.5v8.9q0 .4.2.7h-1.5l-.2-.7v-.8q-.5.8-1.3 1.3-.7.4-1.7.4zm11.8-5.9q1.8.6 2.6 1.2.7.7.7 1.7 0 1.3-1 2.2-1 .8-3 .8-2.4 0-4-1.5l.8-1.4q.7.8 1.4 1.2.7.4 1.9.4 1.1 0 1.8-.4.6-.4.6-1 0-.7-.5-1.1-.5-.4-1.9-.8-3.6-1-3.6-3 0-1.1 1-1.8.8-.6 2.5-.6 1.3 0 2.2.3 1 .4 1.7 1.2l-.9 1q-.5-.6-1.3-1t-1.6-.4q-1 0-1.5.3-.6.3-.6.9 0 .5.6 1 .6.4 2.1.8zm2-1.5q0-.1.2 0v.1l-.2-.1zm.3 0zm-6 4.4h-.1v-.1h.2zm-.2 0zm14.2 3q-2.1 0-3.4-1.3-1.3-1.3-1.3-3.7 0-1.5.6-2.7.6-1.1 1.6-1.7 1-.6 2.2-.6 1.8 0 2.8 1.1 1.1 1.2 1.1 3.4v.7h-6.8q0 1.8 1 2.7.9.9 2.2.9 1.6 0 2.5-1l.9.7q-1.3 1.5-3.4 1.5zm2.1-6q0-1.3-.7-2-.7-.9-1.8-.9-1 0-1.8.8-.8.7-1 2.1h5.3zm11.6-1.8q-.6-.6-1-.7-.4-.2-1-.2-.7 0-1.4.3-.6.4-1 1.2-.5.8-.5 2v5h-1.5v-9.6h1.6v1.8q.3-1 1.1-1.5.9-.5 1.9-.5 1.5 0 2.5 1l-.7 1.2zm0 0l.1.1h-.1zm-.2 0h.2v.2l-.2-.1zm7.7 1.9q1.8.6 2.6 1.2.7.7.7 1.7 0 1.3-1 2.2-1 .8-3 .8-2.4 0-4-1.5l.8-1.4q.7.8 1.4 1.2.7.4 1.9.4 1.1 0 1.8-.4.6-.4.6-1 0-.7-.5-1.1-.5-.4-1.9-.8-3.6-1-3.6-3 0-1.1 1-1.8.8-.6 2.5-.6 1.3 0 2.2.3 1 .4 1.7 1.2l-.9 1q-.5-.6-1.3-1t-1.6-.4q-1 0-1.5.3-.6.3-.6.9 0 .5.6 1 .6.4 2.1.8zm2-1.5q0-.1.2 0v.1l-.2-.1zm.3 0zm-6 4.4h-.1v-.1h.2zm-.2 0z" font-size="21" font-family="Inconsolata" fill="#173182"/><path d="M16.4 70.6q-1.2 0-2.2-.6-1-.7-1.7-2t-.7-3.2q0-1.9.7-3.2.7-1.2 1.7-1.8 1.1-.7 2.3-.7 1 0 1.9.6.8.5 1.3 1.3v-6.6h1.8v.2l-.2.3v14.8l.2.7h-1.7l-.2-.7v-1q-.5 1-1.4 1.4-.8.5-1.8.5zm.2-1.5q1.5 0 2.2-1.1.7-1.2.7-3.1 0-2-.7-3.2-.8-1.1-2.3-1.1-1.4 0-2.2 1-.8 1.1-.8 3 0 2 .8 3.3.8 1.2 2.3 1.2zm12.6 1.6q-1 0-1.9-.5-.8-.4-1.4-1.2l-.6 1.4h-1v-16h1.9v.2l-.2.3v6.2q.5-.9 1.4-1.4.9-.5 1.8-.5 2 0 3.3 1.4 1.2 1.5 1.2 4.2 0 1.9-.6 3.2-.7 1.3-1.7 2t-2.2.7zm-.3-1.6q1.3 0 2.2-1 .9-1 .9-3.2 0-2.1-.9-3.2-.7-1-2.1-1-1.4 0-2.2 1.2-.8 1.2-.8 3 0 4.2 3 4.2zm11.6 1.6q-.6 0-1-.4t-.4-1q0-.6.4-1t1-.4q.5 0 1 .4.3.4.3 1t-.4 1q-.4.4-1 .4zm11.5 0q-1.7 0-2.7-1.3-1-1.3-1-3.8v-6.2H50v6.2q0 2 .7 2.8.7.9 1.8.9 1.3 0 2-1 1-1 1-2.8v-6H57v10.2l.3.7h-1.7l-.2-.7v-1q-.5 1-1.5 1.5-.8.5-2 .5zM65.6 64q2 .6 2.9 1.3.8.7.8 2 0 1.4-1.1 2.4-1.2 1-3.4 1-2.8 0-4.7-1.8l1-1.6q.8 1 1.6 1.4.8.5 2.1.5t2-.5q.8-.4.8-1.2 0-.7-.6-1.2t-2.1-1q-4.2-1.1-4.2-3.4 0-1.2 1-2 1.1-.7 3-.7 1.6 0 2.6.4t1.8 1.3l-1 1.2q-.5-.7-1.4-1.2-1-.4-1.9-.4-1 0-1.7.3-.6.4-.6 1T63 63q.7.5 2.5 1zm2.3-1.8q0-.1.2 0h-.2zm.2 0q.1 0 0 0zm-6.7 5h-.2V67h.2zm-.3 0zm16.2 3.4q-2.5 0-4-1.4Q72 67.7 72 65q0-1.8.7-3.1.7-1.4 1.8-2 1.2-.7 2.6-.7 2 0 3.2 1.3 1.2 1.3 1.2 3.9v.8h-7.8q.1 2 1.1 3t2.6 1q1.8 0 2.9-1.2l1 1q-1.5 1.6-3.9 1.6zm2.4-6.8q0-1.5-.8-2.4-.8-1-2-1t-2.1 1q-1 .8-1.1 2.4h6zM93 61.7q-.7-.6-1.2-.8-.4-.2-1-.2-1 0-1.7.4-.8.4-1.2 1.3-.5.9-.5 2.2v5.8h-1.8v-11h1.8v2q.4-1 1.4-1.6 1-.6 2-.6 1.8 0 3 1.2l-.8 1.3zm0 0q.2.2 0 .2v-.2zm-.3.1h.2v.1h-.2zm8.9 2.2q2 .6 2.9 1.3.8.7.8 2 0 1.4-1.1 2.4-1.2 1-3.4 1-2.8 0-4.7-1.8l1-1.6q.8 1 1.6 1.4.8.5 2.1.5t2-.5q.8-.4.8-1.2 0-.7-.6-1.2t-2.1-1q-4.2-1.1-4.2-3.4 0-1.2 1-2 1.1-.7 3-.7 1.6 0 2.6.4t1.8 1.3l-1 1.2q-.5-.7-1.4-1.2-1-.4-1.9-.4-1 0-1.7.3-.6.4-.6 1T99 63q.7.5 2.5 1zm2.3-1.8q0-.1.2 0h-.2zm.2 0q.1 0 0 0zm-6.7 5h-.2V67h.2zm-.3 0zm15.4 3.5q-.6 0-1-.4t-.4-1q0-.6.4-1t1-.4q.5 0 1 .4.3.4.3 1t-.4 1q-.4.4-1 .4zm8.7-.3V69h2.8v-8.2h-2.7v-1.4h4.4V69h2.6v1.4h-7.1zm3.5-13.3q-.5 0-.8-.3-.4-.4-.4-.9t.4-.9q.3-.3.8-.3t1 .3q.3.4.3 1 0 .4-.4.8-.4.3-.9.3zm7.8 2.3h1.7v2q.6-1 1.6-1.6 1-.6 2.1-.6 1.5 0 2.3 1.1 1 1.1 1 3.5v6.6h-1.8v-6.6q0-1.6-.5-2.4-.6-.7-1.5-.7-.7 0-1.5.4-.7.4-1.2 1.2-.5.8-.5 1.8v6.3h-1.7v-11zm17.1 4.6q2 .6 2.9 1.3.8.7.8 2 0 1.4-1.1 2.4-1.2 1-3.4 1-2.8 0-4.7-1.8l1-1.6q.8 1 1.6 1.4.8.5 2.1.5t2-.5q.8-.4.8-1.2 0-.7-.6-1.2t-2.1-1q-4.2-1.1-4.2-3.4 0-1.2 1-2 1.1-.7 3-.7 1.6 0 2.6.4t1.8 1.3l-1 1.2q-.5-.7-1.4-1.2-1-.4-1.9-.4-1 0-1.7.3-.6.4-.6 1t.6 1.1q.7.5 2.5 1zm2.3-1.8q0-.1.2 0h-.2zm.2 0q.1 0 0 0zm-6.7 5h-.2V67h.2zm-.3 0zm16.2 3.4q-2.5 0-4-1.4-1.4-1.5-1.4-4.2 0-1.8.7-3.1.7-1.4 1.8-2 1.2-.7 2.6-.7 2 0 3.2 1.3 1.2 1.3 1.2 3.9v.8h-7.8q.1 2 1.1 3t2.6 1q1.8 0 2.9-1.2l1 1q-1.5 1.6-3.9 1.6zm2.4-6.8q0-1.5-.8-2.4-.8-1-2-1t-2.1 1q-1 .8-1.1 2.4h6zm13.3-2.1q-.7-.6-1.2-.8-.4-.2-1-.2-1 0-1.7.4-.8.4-1.2 1.3-.5.9-.5 2.2v5.8h-1.8v-11h1.8v2q.4-1 1.4-1.6 1-.6 2-.6 1.8 0 3 1.2l-.8 1.3zm0 0q.2.2 0 .2v-.2zm-.3.1h.2v.1h-.2zm12.7 7.6q-1.6 1.2-3.5 1.2-1.8 0-2.5-1.1-.8-1.1-.8-3.6v-1.4l.3-3.6h-2.5v-1.5h2.6l.1-2.9 2-.3h.2v.1l-.2.4-.1.6-.3 2.1h3.6V61h-3.7l-.2 3.7v1.2q0 2 .4 2.7.4.6 1.4.6.7 0 1.3-.2l1.4-.9.5 1.4zm10.8 5.2q-2-1-3.4-2.5-1.5-1.6-2.3-3.6-.8-2-.8-4.1 0-2.1.8-4 .8-2 2.2-3.5 1.5-1.5 3.4-2.5l.5 1.5q-2.4 1.3-3.8 3.6t-1.4 5q0 2.7 1.4 5 1.5 2.4 3.9 3.6l-.5 1.5z" font-size="24" font-family="Inconsolata" fill="#173182"/><path d="M48.9 19v2.3q-2.3 1.3-5.2 1.3-2.4 0-4-1-1.7-1-2.7-2.6-1-1.7-1-3.7 0-3.1 2.2-5.3 2.3-2 5.5-2 2.3 0 5 1.2v2.2Q46.2 10 43.8 10q-2.4 0-4 1.5Q38 13 38 15.3q0 2.4 1.6 3.9t4.1 1.5q2.6 0 5.1-1.6zm6.8-6q2.2 0 3.6 1.4 1.4 1.3 1.4 3.4 0 2-1.4 3.4-1.5 1.4-3.7 1.4-2.1 0-3.5-1.4-1.5-1.4-1.5-3.4t1.5-3.5q1.4-1.3 3.6-1.3zm-.1 1.6q-1.3 0-2.2 1-.9.8-.9 2.2 0 1.3 1 2.2.8.8 2.2.8 1.4 0 2.2-.8 1-.9 1-2.3 0-1.3-1-2.2-1-.9-2.3-.9zM62.8 8h1.9v14.4h-1.9V8.1zm4.6 0h1.9v14.4h-1.9V8.1zM80 17.9h-6.6q.1 1.3 1 2.1.8.8 2.1.8 1.8 0 3.4-1.1v1.8q-.9.6-1.7.8-.9.3-2 .3-1.6 0-2.5-.7-1-.6-1.6-1.7-.5-1.1-.5-2.6 0-2.1 1.2-3.5 1.2-1.3 3.2-1.3 1.8 0 3 1.3 1 1.3 1 3.5v.3zm-6.5-1.2h4.7q0-1-.6-1.7-.6-.6-1.6-.6t-1.7.6q-.6.6-.8 1.7zm15.6 3.5v1.9q-1.4.5-2.7.5-2.2 0-3.5-1.3-1.3-1.3-1.3-3.6 0-2.2 1.2-3.5 1.3-1.4 3.4-1.4l1.3.1 1.4.6v2q-1.4-1-2.6-1-1.2 0-2 1-.9.8-.9 2.2 0 1.4 1 2.3.8.8 2.3.8 1 0 2.4-.6zm.9-5.7l3.4-3.5v2h3v1.7h-3v4.6q0 1.6 1.4 1.6 1 0 2.1-.7V22q-1 .6-2.3.6-1.3 0-2.2-.8l-.4-.5-.3-.7-.1-1.8v-4.1h-1.7v-.2zM99.2 9q.5 0 .8.3.4.3.4.8t-.4.8q-.3.3-.8.3-.4 0-.7-.3-.3-.4-.3-.8t.3-.8q.3-.3.7-.3zm-.9 4h1.9v9.4h-1.9V13zm9.1 0q2.1 0 3.6 1.4 1.4 1.3 1.4 3.4 0 2-1.5 3.4-1.4 1.4-3.6 1.4-2.1 0-3.6-1.4-1.4-1.4-1.4-3.4t1.5-3.5q1.4-1.3 3.6-1.3zm-.1 1.6q-1.4 0-2.2 1-.9.8-.9 2.2 0 1.3.9 2.2.9.8 2.3.8 1.3 0 2.2-.8.9-.9.9-2.3 0-1.3-1-2.2-.8-.9-2.2-.9zm9-1.6v1.2q1.3-1.4 2.8-1.4 1 0 1.7.5.7.4 1.1 1.2.4.8.4 2.5v5.4h-1.8V17q0-1.4-.5-2-.4-.6-1.5-.6-1.3 0-2.2 1.3v6.7h-2V13h2zM264 22V7.9h4.9q2.9 0 4.6.8 1.7 1 2.7 2.6 1 1.7 1 3.7 0 1.5-.5 2.8Q276 19 275 20q-1 1-2.5 1.5l-1.4.5H264zm4.7-12.4H266v10.6h2.6q1.6 0 2.4-.2.9-.2 1.4-.5.6-.3 1-.8 1.6-1.5 1.6-3.9 0-2.3-1.6-3.7-.5-.6-1.3-1l-1.4-.4-2.1-.1zm15.3 3q2.2 0 3.6 1.4t1.4 3.5q0 2-1.4 3.4-1.5 1.3-3.7 1.3-2 0-3.5-1.3-1.4-1.4-1.4-3.4 0-2.1 1.4-3.5 1.5-1.4 3.6-1.4zm0 1.7q-1.4 0-2.3.9-.8.9-.8 2.2 0 1.4.8 2.3 1 .8 2.3.8 1.4 0 2.3-.9.8-.8.8-2.2 0-1.3-.9-2.2-.9-.9-2.3-.9zm14.2 5.6v1.8q-1.4.5-2.8.5-2.2 0-3.5-1.3-1.3-1.3-1.3-3.5t1.2-3.6q1.3-1.3 3.4-1.3l1.3.1 1.5.5v2q-1.5-.9-2.7-.9-1.2 0-2 .9-.9.9-.9 2.3t1 2.3q.8.8 2.3.8 1 0 2.5-.6zm8.1 2.1v-1q-.6.6-1.4 1-.7.3-1.5.3-.9 0-1.7-.4-.7-.4-1-1.2-.5-.8-.5-2.5v-5.4h1.9V18q0 1.5.4 2.1.4.6 1.5.6 1.3 0 2.3-1.3v-6.7h1.8V22h-1.8zm12.2-6.8v6.9h-1.9v-5.3q0-1.5-.4-2.2-.4-.6-1.5-.6-.5 0-1 .3t-1.1 1V22h-2v-9.4h2v1.2q1.4-1.4 2.7-1.4 1.8 0 2.8 1.7 1.5-1.8 3.2-1.8 1.3 0 2.2 1 .9 1 .9 3.1V22h-1.9v-5.6q0-1.2-.4-1.8-.5-.6-1.4-.6-1.2 0-2.2 1.1zm16.5 2.3h-6.7q.1 1.4 1 2.2.8.8 2.1.8 1.8 0 3.4-1.2v1.9l-1.7.8q-.8.2-2 .2-1.5 0-2.5-.6-1-.7-1.6-1.8-.5-1-.5-2.5 0-2.1 1.2-3.5 1.2-1.3 3.2-1.3 1.8 0 3 1.3 1 1.3 1 3.5v.2zm-6.6-1h4.7q0-1.2-.6-1.8-.6-.6-1.6-.6t-1.7.6q-.6.6-.8 1.7zm10.4-3.8v1.2q1.3-1.4 2.9-1.4.9 0 1.6.4.8.5 1.2 1.3.4.8.4 2.5V22H343v-5.4q0-1.4-.4-2-.5-.7-1.5-.7-1.3 0-2.3 1.3V22H337v-9.4h2zm7.4 1.4l3.5-3.4v2h3v1.6h-3V19q0 1.6 1.3 1.6 1 0 2.1-.7v1.7q-1 .6-2.3.6-1.3 0-2.1-.7l-.5-.5-.3-.7-.1-1.8v-4.2h-1.6v-.2z" font-size="21" font-family="GillSans" fill="#2a86c0"/><path d="M236.3 175.4h-.7q-1.1 0-1.9.5.4.8.4 1.8t-.5 2q-.4.8-1.3 1.3t-2 .5q-1 0-1.7-.3-.4.5-.4 1 0 .6.7.8.7.3 2.6.3 2.3 0 3.2.7.8.7.8 2 0 1.5-1.1 2.4-1.2 1-3.6 1-2.4 0-3.7-.8-1.3-.7-1.3-2 0-1 .5-1.6.4-.6 1.2-1-.8-.5-.8-1.4 0-1 1-2-.6-.5-1-1.3-.3-.7-.3-1.6 0-1 .5-2 .5-.8 1.3-1.3 1-.5 2-.5 1.8 0 2.9 1l1.2-.7q.6-.2 1.3-.2h.4l.3 1.4zm-6 4.7q1 0 1.7-.7t.7-1.7q0-1-.7-1.7t-1.7-.7q-1 0-1.7.7t-.7 1.7q0 1 .7 1.7t1.7.7zm3.7 6.2q0-.6-.3-.9-.1-.3-.7-.5l-1.8-.1q-1.8 0-2.8-.3-.6.4-.8.8-.2.4-.2 1 0 .9.9 1.3.9.5 2.5.5t2.4-.5q.8-.5.8-1.3zm13-9.8l-1-.8q-.5-.2-1.2-.2-.8 0-1.6.4-.8.5-1.2 1.3-.5 1-.5 2.2v5.9h-1.8v-11h1.8v2q.4-1.1 1.4-1.7 1-.6 2-.6 1.8 0 3 1.2l-.8 1.3zm0 0l.2.2h-.2v-.1zm-.2.1h.2v.2l-.2-.1zm8.1 8.8q-1.5 0-2.7-.7-1.1-.7-1.8-2-.6-1.3-.6-3 0-1.6.6-3 .7-1.2 1.8-2 1.2-.7 2.7-.7 1.4 0 2.6.8 1.1.7 1.8 2 .6 1.3.6 3 0 1.6-.6 2.9-.7 1.3-1.8 2-1.2.7-2.6.7zm0-1.4q.9 0 1.6-.6.8-.5 1.2-1.5.4-1 .4-2.2 0-1.9-1-3-.8-1.2-2.2-1.2-1.5 0-2.4 1.2-.9 1.1-.9 3 0 1.2.4 2.2.5 1 1.2 1.5.7.6 1.7.6zm11.3 1.5q-1.8 0-2.8-1.3-1-1.3-1-3.8v-6.1h1.7v6q0 2 .7 3 .7.8 1.8.8 1.2 0 2-1 1-1 1-2.8v-6h1.6v10.2l.3.7h-1.7q-.2-.3-.2-.7v-1q-.6 1-1.5 1.5t-2 .5zm8.1-11.2h1.8v2.1q.3-1.2 1.2-1.8.9-.6 2-.6 1.3 0 2.4.7 1 .6 1.7 1.9.6 1.2.6 3 0 2-.7 3.3-.6 1.3-1.7 2-1 .6-2.3.6-1 0-1.8-.4-.9-.5-1.4-1.3v5.4h-1.8v-15zm4.8 9.7q1.3 0 2.2-1 .9-1 .9-3.3 0-2-.8-3-.8-1.2-2.3-1.2-1.3 0-2.2 1.2-.8 1-.8 3.4 0 2 .8 2.9.8 1 2.2 1zm12.6-5.2q2 .6 2.9 1.3.8.8.8 2 0 1.4-1.2 2.4-1.1 1-3.3 1-2.8 0-4.7-1.8l1-1.6q.8 1 1.6 1.5.8.4 2.1.4t2-.4q.8-.5.8-1.3 0-.7-.6-1.2-.6-.4-2.1-1-4.2-1.1-4.2-3.3 0-1.3 1-2 1.1-.8 3-.8 1.6 0 2.6.4t1.8 1.3l-1 1.2q-.5-.7-1.4-1.1-1-.5-1.9-.5-1 0-1.7.4-.6.3-.6 1 0 .6.6 1 .7.6 2.5 1zm2.3-1.8q0-.1.2 0l-.1.1-.1-.1zm.2 0q.1 0 0 0 0 .1 0 0zm-6.7 5q0 .1-.2 0v-.1h.2v.1zm-.3 0zm15.4-4.2q-.6 0-1-.4t-.4-1q0-.5.4-1 .4-.3 1-.3t1 .4q.4.4.4 1 0 .5-.4 1-.4.3-1 .3zm0 7.7q-.6 0-1-.4t-.4-1q0-.5.4-1 .4-.4 1-.4t1 .4q.4.5.4 1 0 .6-.4 1t-1 .4zm21.4 1.9v-18.2h6.9v1.4h-5.4V186h5.4v1.4H324zm26-18.1v3l-.2 2-.2 1.2h-1.1l-.2-1.2-.1-2-.1-3h2zm3.6 0v3l-.2 2-.2 1.2h-1.1l-.2-1.2-.1-2-.1-3h2zm5 5h1.7v2q.6-1.1 1.6-1.7 1-.6 2-.6 1.6 0 2.4 1.1 1 1.1 1 3.5v6.6h-1.8v-6.6q0-1.6-.5-2.3-.6-.8-1.5-.8-.7 0-1.5.4-.7.5-1.2 1.3-.5.7-.5 1.7v6.3h-1.7v-11zm16.8 11.2q-2.5 0-4-1.5-1.4-1.5-1.4-4.2 0-1.8.7-3.1t1.8-2q1.2-.7 2.6-.7 2 0 3.2 1.3 1.2 1.3 1.2 4v.7h-7.8q0 2 1.1 3 1 1 2.6 1 1.8 0 2.9-1.1l1 .9q-1.5 1.7-4 1.7zm2.4-6.8q0-1.6-.8-2.5-.8-.9-2-.9t-2.1.9q-1 .8-1.1 2.5h6zm3.4-4.4h1.6l1.7 8.8 2-7.8h1l2.3 7.8.8-6 .2-2.5v-.3h1.6q-.7 5.5-1.8 11H389l-2-7.1-2 7h-1.5l-2.3-11zm18.5 4.5q2 .6 2.9 1.3.8.8.8 2 0 1.4-1.2 2.4-1.1 1-3.3 1-2.8 0-4.7-1.8l1-1.6q.8 1 1.6 1.5.8.4 2.1.4t2-.4q.8-.5.8-1.3 0-.7-.6-1.2-.6-.4-2.1-1-4.2-1.1-4.2-3.3 0-1.3 1-2 1.1-.8 3-.8 1.6 0 2.6.4t1.8 1.3l-1 1.2q-.5-.7-1.4-1.1-1-.5-1.9-.5-1 0-1.7.4-.6.3-.6 1 0 .6.6 1 .7.6 2.5 1zm2.3-1.8q0-.1.2 0l-.1.1-.1-.1zm.2 0q.1 0 0 0 0 .1 0 0zm-6.7 5q0 .1-.2 0v-.1h.2v.1zm-.3 0zm14.8-12.7v3l-.2 2-.2 1.2h-1.1l-.2-1.2-.1-2-.1-3h2zm3.6 0v3l-.2 2-.2 1.2h-1.1l-.2-1.2-.1-2-.1-3h2zm7.2 19.2q.7-.6 1.1-1.3.5-.7.5-1.2l-.1-.3-.5-.5-.5-.5-.1-.5q0-.6.3-1 .5-.4 1-.4.7 0 1.2.5.5.6.5 1.5 0 1.8-2.6 4.5l-.8-.8zm25.2-19.2v3l-.2 2-.2 1.2h-1.1l-.2-1.2-.1-2-.1-3h2zm3.6 0v3l-.2 2-.2 1.2h-1.1l-.2-1.2-.1-2-.1-3h2zm10.1 9.5q2 .6 2.9 1.3.8.8.8 2 0 1.4-1.2 2.4-1.1 1-3.3 1-2.8 0-4.7-1.8l1-1.6q.8 1 1.6 1.5.8.4 2.1.4t2-.4q.8-.5.8-1.3 0-.7-.6-1.2-.6-.4-2.1-1-4.2-1.1-4.2-3.3 0-1.3 1-2 1.1-.8 3-.8 1.6 0 2.6.4t1.8 1.3l-1 1.2q-.5-.7-1.4-1.1-1-.5-1.9-.5-1 0-1.7.4-.6.3-.6 1 0 .6.6 1 .7.6 2.5 1zm2.3-1.8q0-.1.2 0l-.1.1-.1-.1zm.2 0q.1 0 0 0 0 .1 0 0zm-6.7 5q0 .1-.2 0v-.1h.2v.1zm-.3 0zm11.1-7.7h1.8v2.1q.3-1.2 1.2-1.8.9-.6 2-.6 1.3 0 2.4.7 1 .6 1.7 1.9.6 1.2.6 3 0 2-.7 3.3-.6 1.3-1.7 2-1 .6-2.3.6-1 0-1.8-.4-.9-.5-1.4-1.3v5.4h-1.8v-15zm4.8 9.7q1.3 0 2.2-1 .9-1 .9-3.3 0-2-.8-3-.8-1.2-2.3-1.2-1.3 0-2.2 1.2-.8 1-.8 3.4 0 2 .8 2.9.8 1 2.2 1zm11.8 1.4q-1.5 0-2.7-.7-1.1-.7-1.8-2-.6-1.3-.6-3 0-1.6.6-3 .7-1.2 1.8-2 1.2-.7 2.7-.7 1.4 0 2.6.8 1.1.7 1.8 2 .6 1.3.6 3 0 1.6-.6 2.9-.7 1.3-1.8 2-1.2.7-2.6.7zm0-1.4q.9 0 1.6-.6.8-.5 1.2-1.5.4-1 .4-2.2 0-1.9-1-3-.8-1.2-2.2-1.2-1.5 0-2.4 1.2-.9 1.1-.9 3 0 1.2.4 2.2.5 1 1.2 1.5.7.6 1.7.6zm16.1-7.5l-1-.8q-.5-.2-1.2-.2-.8 0-1.6.4-.8.5-1.2 1.3-.5 1-.5 2.2v5.9h-1.8v-11h1.8v2q.4-1.1 1.4-1.7 1-.6 2-.6 1.8 0 3 1.2l-.8 1.3zm0 0l.2.2h-.2v-.1zm-.2.1h.2v.2l-.2-.1zm12.7 7.6q-1.6 1.2-3.5 1.2-1.8 0-2.6-1.1-.7-1.1-.7-3.6v-1.4l.3-3.6h-2.5v-1.4h2.6l.1-3 2-.3h.2v.1l-.2.5-.1.5-.3 2.2h3.6v1.4h-3.7l-.2 3.7v1.3q0 1.9.4 2.6.4.7 1.4.7.7 0 1.3-.3l1.4-.8.5 1.3zm8.2-5.4q2 .6 2.9 1.3.8.8.8 2 0 1.4-1.2 2.4-1.1 1-3.3 1-2.8 0-4.7-1.8l1-1.6q.8 1 1.6 1.5.8.4 2.1.4t2-.4q.8-.5.8-1.3 0-.7-.6-1.2-.6-.4-2.1-1-4.2-1.1-4.2-3.3 0-1.3 1-2 1.1-.8 3-.8 1.6 0 2.6.4t1.8 1.3l-1 1.2q-.5-.7-1.4-1.1-1-.5-1.9-.5-1 0-1.7.4-.6.3-.6 1 0 .6.6 1 .7.6 2.5 1zm2.3-1.8q0-.1.2 0l-.1.1-.1-.1zm.2 0q0 .1 0 0zm-6.7 5q0 .1-.2 0v-.1h.2v.1zm-.3 0zm14.8-12.7v3l-.2 2-.2 1.2h-1.1l-.2-1.2-.1-2-.1-3h2zm3.6 0v3l-.2 2-.2 1.2h-1.1l-.2-1.2-.1-2-.1-3h2zm25.3 18.1H552V186h5.4v-15.4H552v-1.4h6.9v18.2z" font-size="24" font-family="Inconsolata" fill="#12206f"/><g font-size="24" font-family="Inconsolata"><path d="M266.6 123.8q2.4 0 3.6 1.3 1.3 1.2 1.3 4.1v5.9h-1.9v-1.7q-1 2-3.7 2-1.9 0-2.9-.9-1-.8-1-2.2 0-1.2.7-2 .8-.9 2-1.3 1.3-.5 2.8-.5l2.5.1q-.2-1.8-1-2.6-.8-.7-2.5-.7-.8 0-1.6.3-.7.3-1.3.9l-.9-1.1q1.6-1.6 4-1.6zM266 134q1.8 0 2.8-1 1-1 1.2-3-1.1-.2-2.4-.2-1.8 0-2.9.6-1 .6-1 1.8 0 1.8 2.3 1.8zm18.2-8.8h-.6q-1.2 0-2 .5.5.8.5 1.8t-.5 2q-.5.8-1.4 1.3-.8.5-2 .5-.9 0-1.7-.3-.4.5-.4 1 0 .6.7.8.7.3 2.6.3 2.4 0 3.2.7.9.7.9 2 0 1.5-1.2 2.4-1.1 1-3.6 1-2.3 0-3.7-.7-1.3-.8-1.3-2.2 0-.8.5-1.4.5-.7 1.2-1-.8-.6-.8-1.5 0-1 1-2-.6-.5-1-1.3-.2-.7-.2-1.6 0-1 .4-2 .5-.8 1.4-1.3.9-.5 2-.5 1.8 0 2.8 1.1l1.2-.8q.6-.2 1.4-.2h.4l.2 1.4zm-6 4.7q1 0 1.7-.7t.7-1.7q0-1-.7-1.7t-1.7-.7q-1 0-1.7.7t-.7 1.7q0 1 .7 1.7t1.7.7zm3.7 6.2q0-.5-.2-.9-.2-.3-.8-.4-.6-.2-1.8-.2-1.8 0-2.8-.3-.6.4-.8.8-.2.4-.2 1 0 .9.9 1.3 1 .5 2.5.5 1.6 0 2.4-.5.8-.5.8-1.3zm9.4-.8q-2.4 0-3.9-1.5-1.4-1.5-1.4-4.2 0-1.8.6-3 .7-1.4 1.8-2 1.2-.8 2.6-.8 2 0 3.2 1.3 1.3 1.4 1.3 4v.7h-7.9q.1 2 1.1 3 1 1.1 2.7 1.1 1.7 0 2.8-1.2l1 1q-1.4 1.6-3.9 1.6zm2.4-6.8q0-1.6-.8-2.4-.7-1-2-1-1.2 0-2.1.9-.9.8-1.1 2.5h6zm8.8-.8q-.6 0-1-.4-.4-.5-.4-1 0-.6.4-1t1-.4q.6 0 1 .4t.4 1q0 .5-.4 1-.4.4-1 .4zm0 7.6q-.6 0-1-.4t-.4-1q0-.5.4-1 .4-.3 1-.3t1 .4q.4.4.4 1 0 .5-.4 1-.4.3-1 .3z" fill="#163182"/><path d="M322.5 133.7l2-2q2-1.9 2.9-3 1-1.1 1.5-2.2.6-1.1.6-2.3 0-1.4-.7-2-.7-.7-1.8-.7-1 0-2 .4-.8.5-1 1l-.4.6-.1.3h.1v.2l-.2-.1-1.2-1q.7-1.4 2-2.1 1.2-.8 2.8-.8 1.9 0 3 1.2 1.3 1.1 1.3 3 0 1.4-.7 2.6-.6 1.2-1.6 2.3l-2.7 2.8-1.6 1.7h6.1l.4-.3h.1v1.8h-8.8v-1.4zm16.7-8.3q1.1 0 2 .6 1 .6 1.6 1.8.5 1 .5 2.5t-.6 2.6q-.5 1.1-1.5 1.8-1 .6-2.1.6-2.3 0-3.5-1.9-1.2-1.9-1.2-5.2 0-2.6.6-4.5.7-1.8 1.9-2.8 1.2-1 2.8-1 1.8 0 3.3 1.4l-1 1.2h-.1q-.5-.6-1-.8-.5-.3-1.2-.3-.8 0-1.6.5t-1.4 1.8q-.6 1.3-.6 3.5.5-.8 1.3-1.3.9-.5 1.8-.5zm2.4-2.8q0-.2.2 0h-.2zm.3 0q.1.1 0 0zm-2.8 11.2q1.1 0 1.8-1 .8-.8.8-2.5 0-1.1-.4-1.9-.4-.8-1-1.1-.6-.4-1.2-.4-.9 0-1.7.5-.7.6-1.3 1.5v.6q0 1 .4 2 .3 1 1 1.7.7.6 1.6.6z" fill="#111f6f"/><path d="M348.7 138.4l1.2-1.4q.4-.7.4-1.2l-.1-.3-.4-.4-.5-.6q-.2-.2-.2-.5 0-.6.4-1t1-.4q.6 0 1.1.6.5.5.5 1.4 0 1.8-2.5 4.5l-.9-.7z" fill="#12206f"/></g><g font-size="24" font-family="Inconsolata"><path d="M231.8 154.7q2 .6 2.9 1.3.9.7.9 2 0 1.4-1.2 2.4t-3.4 1q-2.8 0-4.6-1.8l1-1.6q.7 1 1.5 1.4.8.5 2.2.5 1.3 0 2-.4.8-.5.8-1.3 0-.7-.6-1.2-.6-.4-2.2-1-4.1-1.1-4.1-3.4 0-1.2 1-2 1-.7 3-.7 1.5 0 2.5.4t1.9 1.3l-1 1.2q-.5-.7-1.5-1.2-.9-.4-1.9-.4-1 0-1.7.3-.6.4-.6 1t.7 1.2q.6.5 2.4 1zm2.3-1.8q0-.1.2 0v.1l-.2-.1zm.3 0h-.1zm-6.8 5h-.2v-.1h.2v.1zm-.2 0h-.1.1zm20.3 2.2q-1.6 1.2-3.5 1.2-1.8 0-2.6-1.1t-.8-3.6v-1.4l.3-3.6h-2.4V150h2.5l.2-2.9 1.9-.3h.2v.1l-.2.4-.1.6-.3 2.1h3.7v1.5h-3.8l-.2 3.7v1.3q0 1.9.4 2.6.5.6 1.4.6.8 0 1.4-.2l1.3-.9.6 1.4zm7.2-10.1q2.3 0 3.5 1.1 1.3 1.3 1.3 4.2v5.8h-1.9v-1.7q-1 2-3.7 2-1.9 0-2.9-.8-1-.9-1-2.2 0-1.2.7-2 .8-1 2-1.4 1.3-.5 2.8-.5 1.4 0 2.5.2-.2-1.9-1-2.6-.8-.8-2.5-.8-.8 0-1.5.3-.8.3-1.4 1l-.9-1.2q1.6-1.5 4-1.5zm-.7 10q1.8 0 2.8-1 1-1 1.2-3-1.1-.2-2.4-.2-1.8 0-2.8.6-1.1.6-1.1 1.9 0 1.8 2.3 1.8zm17.5.1q-1.6 1.2-3.5 1.2-1.8 0-2.6-1.1t-.8-3.6v-1.4l.3-3.6h-2.4V150h2.5l.2-2.9 1.9-.3h.2v.1l-.2.4-.1.6-.3 2.1h3.7v1.5h-3.8l-.2 3.7v1.3q0 1.9.4 2.6.5.6 1.4.6.8 0 1.4-.2l1.3-.9.6 1.4zm6.6 1.3q-1.7 0-2.8-1.3-1-1.3-1-3.8V150h1.7v6.2q0 2 .7 2.8.7.9 1.8.9 1.3 0 2.1-1 .9-1 .9-2.8v-6h1.7v10.2l.2.7H282l-.3-.7v-1q-.5 1-1.4 1.5-1 .5-2 .5zm13.5-6.7q2 .6 2.9 1.3.9.7.9 2 0 1.4-1.2 2.4t-3.4 1q-2.8 0-4.6-1.8l1-1.6q.7 1 1.5 1.4.8.5 2.2.5 1.3 0 2-.4.8-.5.8-1.3 0-.7-.6-1.2-.6-.4-2.2-1-4.1-1.1-4.1-3.4 0-1.2 1-2 1-.7 3-.7 1.5 0 2.5.4t1.9 1.3l-1 1.2q-.5-.7-1.5-1.2-.9-.4-1.9-.4-1 0-1.7.3-.6.4-.6 1t.7 1.2q.6.5 2.4 1zm2.3-1.8q0-.1.2 0v.1l-.2-.1zm.3 0h-.1zm-6.8 5h-.2v-.1h.2v.1zm-.2 0h-.1.1zm15.3-4.2q-.5 0-1-.4-.4-.4-.4-1 0-.5.4-1 .4-.3 1-.3t1 .4q.5.4.5 1 0 .5-.5 1-.4.3-1 .3zm0 7.7q-.6 0-1-.4t-.4-1q0-.6.4-1t1-.4q.6 0 1 .4.5.4.5 1t-.5 1q-.4.4-1 .4z" fill="#153182"/><path d="M326.2 145.2l-.1 3-.2 2-.1 1.1h-1.2l-.1-1.1-.2-2v-3h1.9zm3.6 0l-.1 3-.2 2-.1 1.1h-1.2l-.1-1.1-.2-2v-3h1.9zm13.1 15.9l-1.5-4.4h-4.8l-1.6 4.4h-1.6l5.5-15.2h.2l5.5 15.2H343zm-5.9-5.6h4l-2-5.8-2 5.8zm13.2-10.3l-.1 3-.2 2-.1 1.1h-1.2l-.1-1.1-.2-2v-3h1.9zm3.6 0l-.1 3-.2 2-.1 1.1h-1.2l-.1-1.1-.2-2v-3h1.9z" fill="#143182"/><path d="M361 164.4q.6-.6 1-1.3.5-.7.5-1.2l-.1-.4-.4-.4-.5-.5q-.2-.2-.2-.5 0-.6.4-1 .4-.5 1-.5.7 0 1.1.6.5.6.5 1.4 0 2-2.5 4.5l-.8-.7z" fill="#12206f"/></g><path d="M209.1 213v-1.4h1.2q1.7 0 2.4-.6.7-.7.7-2.3l-.1-2q0-3 2-3.7-2-1-2-3.6v-1.6q0-2.6-2.3-2.6h-2V194h1.6q4.4 0 4.4 4.1v1.8q0 1.3.5 2 .5.5 1.6.5h.5v1.4h-.5q-1 0-1.6.6-.5.5-.5 2v2.5q.1 1.6-.4 2.5-.6 1-1.7 1.3-1.1.4-3 .4h-.8z" font-size="24" font-family="Inconsolata" fill="#111f6f"/><g font-size="24" font-family="Inconsolata"><path d="M36.8 388q-1.9 0-3-.4t-1.7-1.3q-.5-.9-.4-2.5v-2.4q0-1.5-.4-2.1-.6-.6-1.7-.6h-.5v-1.4h.5q1.1 0 1.7-.6.5-.6.5-2V373q0-4.1 4.3-4.1h1.6v1.3h-2q-2.2 0-2.2 2.6v1.7q0 2.6-2 3.5 2 .7 2 3.7l-.1 2q0 1.7.7 2.3.7.6 2.3.6h1.2v1.4h-.8z" fill="#5ca831"/><path d="M53.6 399.2h1.7v2q.6-1 1.6-1.7 1-.6 2.1-.6 1.5 0 2.3 1.1 1 1.2 1 3.5v6.7h-1.8v-6.6q0-1.7-.5-2.4-.6-.8-1.5-.8-.7 0-1.5.5-.7.4-1.2 1.2-.5.8-.5 1.7v6.4h-1.7v-11zm16.1-.2q2.4 0 3.6 1.2 1.2 1.2 1.2 4.1v5.9h-1.8v-1.7q-1 2-3.8 2-1.8 0-2.8-.9-1-.8-1-2.2 0-1.2.7-2 .7-.9 2-1.3 1.3-.5 2.8-.5l2.4.1q-.1-1.8-1-2.6-.8-.7-2.4-.7-.8 0-1.6.3-.7.3-1.3.9l-.9-1.1q1.5-1.6 4-1.6zm-.6 10.1q1.8 0 2.8-1 1-1 1.1-3-1-.2-2.3-.2-1.8 0-2.9.6-1 .6-1 1.8 0 1.8 2.3 1.8zm7.7-9.9h1.6v1q.3-.5 1-.9.5-.4 1.2-.4t1.2.5q.6.4.7 1.1.4-.7 1-1.1.7-.5 1.5-.5 1 0 1.6.8.6.8.5 2v8.5h-1.6v-7.8q0-1.4-.2-1.8-.3-.4-.8-.4-.4 0-.8.4l-.7 1-.2 1.3v7.3H81v-7.7q0-1.3-.2-1.8-.3-.5-1-.5-.3 0-.7.4-.4.3-.6.9-.2.6-.2 1.3v7.4h-1.6v-11zm17.6 11.2q-2.5 0-4-1.5-1.4-1.5-1.4-4.2 0-1.8.7-3 .7-1.4 1.8-2 1.2-.8 2.6-.8 2 0 3.2 1.3 1.2 1.4 1.2 4v.7h-7.8q.1 2 1.1 3 1 1.1 2.6 1.1 1.8 0 2.9-1.2l1 1q-1.5 1.6-3.9 1.6zm2.4-6.8q0-1.6-.8-2.4-.8-1-2-1t-2.1.9q-1 .8-1.1 2.5h6z" fill="#173182"/><path d="M105.6 402.8q-.6 0-1-.4-.4-.5-.4-1 0-.6.4-1t1-.4q.6 0 1 .4t.4 1q0 .5-.4 1-.4.4-1 .4zm0 7.6q-.6 0-1-.4t-.4-1q0-.5.4-1 .4-.3 1-.3t1 .4q.4.4.4 1 0 .5-.4 1-.4.3-1 .3z" fill="#163182"/><path d="M129 394.2v3l-.2 2-.2 1.2h-1.1l-.2-1.2-.1-2v-3h1.8zm3.6 0v3l-.2 2-.2 1.2h-1.1l-.2-1.2-.1-2v-3h1.8zm10.1 9.5q2 .6 2.9 1.4.8.7.8 1.9 0 1.4-1.1 2.4-1.2 1-3.4 1-2.8 0-4.7-1.7l1-1.7q.8 1 1.6 1.5t2.1.5q1.3 0 2-.5.8-.5.8-1.3 0-.7-.6-1.2-.6-.4-2.1-1-4.2-1-4.2-3.3 0-1.3 1-2 1.1-.8 3-.8 1.6 0 2.6.5 1 .4 1.8 1.2l-1 1.2q-.5-.7-1.4-1.1-1-.5-1.9-.5-1 0-1.7.4-.6.3-.6 1 0 .6.6 1 .7.6 2.5 1.1zm2.3-1.8q0-.1.2 0l-.1.1h-.1zm.2 0q.1 0 0 0 0 .1 0 0zm-6.7 5q0 .1-.2 0h.2zm-.3.1v-.1.1zm15 3.4q-1.8 0-2.8-1.3-1-1.3-1-3.8v-6.1h1.7v6.1q0 2 .7 2.9.7.8 1.8.8 1.3 0 2-1 1-1 1-2.8v-6h1.6v10.3l.3.7h-1.7l-.2-.8v-1q-.5 1-1.5 1.5-.8.5-2 .5zm13.2 0q-2.5 0-4-1.5-1.4-1.5-1.4-4.2 0-1.8.7-3 .7-1.4 1.8-2 1.2-.8 2.6-.8 2 0 3.2 1.3 1.2 1.4 1.2 4v.7h-7.8q.1 2 1.1 3 1 1.1 2.6 1.1 1.8 0 2.9-1.2l1 1q-1.5 1.6-3.9 1.6zm2.4-6.8q0-1.6-.8-2.4-.8-1-2-1t-2.1.9q-1 .8-1.1 2.5h6zm8.2-9.4v3l-.2 2-.2 1.2h-1.1l-.2-1.2-.1-2v-3h1.8zm3.6 0v3l-.2 2-.2 1.2h-1.1l-.2-1.2-.1-2v-3h1.8z" fill="#2a86c0"/><path d="M187.8 413.5q.7-.7 1.1-1.4.5-.7.5-1.2l-.1-.3-.5-.4-.5-.6-.1-.5q0-.6.3-1 .5-.4 1-.4.7 0 1.2.6.5.5.5 1.4 0 1.8-2.6 4.5l-.8-.7z" fill="#163082"/><path d="M57.7 425q2.4 0 3.6 1.2 1.2 1.2 1.2 4.1v5.9h-1.8v-1.7q-1 2-3.8 2-1.8 0-2.8-.9-1-.8-1-2.2 0-1.2.7-2 .7-.9 2-1.3 1.3-.5 2.8-.5l2.4.1q-.1-1.8-1-2.6-.8-.7-2.4-.7-.8 0-1.6.3-.7.3-1.3.9l-.9-1.1q1.5-1.6 4-1.6zm-.6 10.1q1.8 0 2.8-1 1-1 1.1-3-1-.2-2.3-.2-1.8 0-2.9.6-1 .6-1 1.8 0 1.8 2.3 1.8zm18.2-8.8h-.7q-1.1 0-1.9.5.4.8.4 1.8t-.4 2q-.5.8-1.4 1.3-.9.5-2 .5-1 0-1.7-.3-.4.5-.4 1 0 .6.7.8.7.3 2.6.3 2.3 0 3.2.7.8.7.8 2 0 1.5-1.1 2.4-1.2 1-3.6 1-2.4 0-3.7-.7-1.3-.8-1.3-2.2 0-.8.5-1.4.4-.7 1.2-1-.8-.5-.8-1.5t1-2q-.6-.5-1-1.3-.2-.7-.2-1.6 0-1 .4-2 .5-.8 1.4-1.3.8-.5 2-.5 1.7 0 2.8 1.1l1.2-.8q.6-.2 1.3-.2h.5l.2 1.4zm-6 4.7q1 0 1.7-.7t.7-1.7q0-1-.7-1.7t-1.7-.7q-1 0-1.7.7t-.7 1.7q0 1 .7 1.7t1.7.7zm3.7 6.2q0-.5-.3-.9-.1-.3-.7-.4-.6-.2-1.8-.2-1.8 0-2.8-.3-.6.4-.8.8-.2.4-.2 1 0 .9.9 1.3.9.5 2.5.5t2.4-.5q.8-.5.8-1.3zm9.4-.8q-2.5 0-4-1.5-1.4-1.5-1.4-4.2 0-1.8.7-3 .7-1.4 1.8-2 1.2-.8 2.6-.8 2 0 3.2 1.3 1.2 1.4 1.2 4v.7h-7.8q.1 2 1.1 3 1 1.1 2.6 1.1 1.8 0 2.9-1.2l1 1q-1.5 1.6-3.9 1.6zm2.4-6.8q0-1.6-.8-2.4-.8-1-2-1t-2.1.9q-1 .8-1.1 2.5h6z" fill="#173182"/><path d="M93.6 428.8q-.6 0-1-.4-.4-.5-.4-1 0-.6.4-1t1-.4q.6 0 1 .4t.4 1q0 .5-.4 1-.4.4-1 .4zm0 7.6q-.6 0-1-.4t-.4-1q0-.5.4-1 .4-.3 1-.3t1 .4q.4.4.4 1 0 .5-.4 1-.4.3-1 .3z" fill="#163182"/><path d="M113.6 434.8l2-2q2-1.9 2.9-3 1-1.1 1.5-2.2.6-1 .6-2.3 0-1.4-.7-2-.7-.7-1.8-.7-1 0-2 .4-.8.5-1.1 1l-.3.6-.1.3h.2l-.1.2-.2-.1-1.2-1q.7-1.4 2-2.1 1.2-.8 2.7-.8 2 0 3.1 1.2 1.2 1.1 1.2 3 0 1.4-.6 2.6-.6 1.2-1.6 2.3l-2.7 2.8-1.6 1.7h6.1l.3-.3h.2v1.8h-8.8v-1.4zm16.7-8.3q1.1 0 2 .6 1 .6 1.6 1.8.5 1 .5 2.5t-.6 2.6q-.5 1.1-1.5 1.8-1 .6-2.2.6-2.2 0-3.4-1.9-1.2-1.9-1.2-5.2 0-2.6.6-4.5.7-1.8 1.8-2.8 1.2-1 2.9-1 1.8 0 3.2 1.4l-1 1.2q-.5-.6-1-.8-.5-.3-1.2-.3-.8 0-1.6.5t-1.4 1.8q-.6 1.3-.7 3.5.5-.8 1.4-1.3.8-.5 1.8-.5zm2.4-2.8q0-.2.2 0h-.2zm.3 0q.1.1 0 0zm-2.8 11.2q1 0 1.8-1 .8-.8.8-2.5 0-1.1-.4-1.9-.4-.8-1-1.1-.6-.4-1.2-.4-.9 0-1.7.5-.8.6-1.3 1.5v.6q0 1 .3 2 .4 1 1.1 1.7.7.6 1.6.6z" fill="#2a86c0"/><path d="M139.8 439.5q.7-.7 1.1-1.4.5-.7.5-1.2l-.1-.3-.5-.4-.5-.6-.1-.5q0-.6.3-1 .5-.4 1-.4.7 0 1.2.6.5.5.5 1.4 0 1.8-2.6 4.5l-.8-.7z" fill="#163180"/><path d="M58.7 455.7q2 .6 2.9 1.4.8.7.8 1.9 0 1.4-1.1 2.4-1.2 1-3.4 1-2.8 0-4.7-1.7l1-1.7q.8 1 1.6 1.5t2.1.5q1.3 0 2-.5.8-.5.8-1.3 0-.7-.6-1.2-.6-.4-2.1-1-4.2-1-4.2-3.3 0-1.3 1-2 1.1-.8 3-.8 1.6 0 2.6.5 1 .4 1.8 1.2l-1 1.2q-.5-.7-1.4-1.1-1-.5-1.9-.5-1 0-1.7.4-.6.3-.6 1 0 .6.6 1 .7.6 2.5 1.1zm2.3-1.8q0-.1.2 0l-.1.1H61zm.2 0q.1 0 0 0 0 .1 0 0zm-6.7 5q0 .1-.2 0h.2zm-.3.1v-.1.1zm20.3 2.1q-1.6 1.2-3.5 1.2-1.8 0-2.5-1-.8-1.2-.8-3.7v-1.4l.3-3.6h-2.5v-1.4h2.6l.1-3 2-.3h.2v.2l-.2.4-.1.5-.3 2.2h3.6v1.4h-3.7l-.2 3.7v1.3q0 2 .4 2.6.4.7 1.4.7.7 0 1.3-.3.6-.2 1.4-.8l.5 1.3zm7.2-10.1q2.4 0 3.6 1.2 1.2 1.2 1.2 4.1v5.9h-1.8v-1.7q-1 2-3.8 2-1.8 0-2.8-.9-1-.8-1-2.2 0-1.2.7-2 .7-.9 2-1.3 1.3-.5 2.8-.5l2.4.1q-.1-1.8-1-2.6-.8-.7-2.4-.7-.8 0-1.6.3-.7.3-1.3.9l-.9-1.1q1.5-1.6 4-1.6zm-.6 10.1q1.8 0 2.8-1 1-1 1.1-3-1-.2-2.3-.2-1.8 0-2.9.6-1 .6-1 1.8 0 1.8 2.3 1.8zm17.4 0q-1.6 1.2-3.5 1.2-1.8 0-2.5-1-.8-1.2-.8-3.7v-1.4l.3-3.6h-2.5v-1.4h2.6l.1-3 2-.3h.2v.2l-.2.4-.1.5-.3 2.2h3.6v1.4h-3.7l-.2 3.7v1.3q0 2 .4 2.6.4.7 1.4.7.7 0 1.3-.3.6-.2 1.4-.8l.5 1.3zm6.7 1.3q-1.8 0-2.8-1.3-1-1.3-1-3.8v-6.1h1.7v6.1q0 2 .7 2.9.7.8 1.8.8 1.3 0 2-1 1-1 1-2.8v-6h1.6v10.3l.3.7h-1.7l-.2-.8v-1q-.5 1-1.5 1.5-.8.5-2 .5zm13.5-6.7q2 .6 2.9 1.4.8.7.8 1.9 0 1.4-1.1 2.4-1.2 1-3.4 1-2.8 0-4.7-1.7l1-1.7q.8 1 1.6 1.5t2.1.5q1.3 0 2-.5.8-.5.8-1.3 0-.7-.6-1.2-.6-.4-2.1-1-4.2-1-4.2-3.3 0-1.3 1-2 1.1-.8 3-.8 1.6 0 2.6.5 1 .4 1.8 1.2l-1 1.2q-.5-.7-1.4-1.1-1-.5-1.9-.5-1 0-1.7.4-.6.3-.6 1 0 .6.6 1 .7.6 2.5 1.1zm2.3-1.8q0-.1.2 0l-.1.1h-.1zm.2 0q.1 0 0 0 0 .1 0 0zm-6.7 5q0 .1-.2 0h.2zm-.3.1v-.1.1z" fill="#173182"/><path d="M129.6 454.8q-.6 0-1-.4-.4-.5-.4-1 0-.6.4-1t1-.4q.6 0 1 .4t.4 1q0 .5-.4 1-.4.4-1 .4zm0 7.6q-.6 0-1-.4t-.4-1q0-.5.4-1 .4-.3 1-.3t1 .4q.4.4.4 1 0 .5-.4 1-.4.3-1 .3z" fill="#163182"/><path d="M153 446.2v3l-.2 2-.2 1.2h-1.1l-.2-1.2-.1-2v-3h1.8zm3.6 0v3l-.2 2-.2 1.2h-1.1l-.2-1.2-.1-2v-3h1.8zm13.2 16l-1.6-4.4h-4.8l-1.5 4.4h-1.6l5.5-15.3h.2l5.5 15.3h-1.7zm-6-5.7h4l-2-5.7-2 5.7zm13.2-10.3v3l-.2 2-.2 1.2h-1.1l-.2-1.2-.1-2v-3h1.8zm3.6 0v3l-.2 2-.2 1.2h-1.1l-.2-1.2-.1-2v-3h1.8z" fill="#2a86c0"/><path d="M187.8 465.5q.7-.7 1.1-1.4.5-.7.5-1.2l-.1-.3-.5-.4-.5-.6-.1-.5q0-.6.3-1 .5-.4 1-.4.7 0 1.2.6.5.5.5 1.4 0 1.8-2.6 4.5l-.8-.7z" fill="#163182"/><path d="M63.3 478.3h-.7q-1.1 0-1.9.5.4.8.4 1.8t-.4 2q-.5.8-1.4 1.3-.9.5-2 .5-1 0-1.7-.3-.4.5-.4 1 0 .6.7.8.7.3 2.6.3 2.3 0 3.2.7.8.7.8 2 0 1.5-1.1 2.4-1.2 1-3.6 1-2.4 0-3.7-.7-1.3-.8-1.3-2.2 0-.8.5-1.4.4-.7 1.2-1-.8-.6-.8-1.5 0-1 1-2-.6-.5-1-1.3-.2-.7-.2-1.6 0-1 .4-2 .5-.8 1.4-1.3.8-.5 2-.5 1.7 0 2.8 1.1l1.2-.8q.6-.2 1.3-.2h.5l.2 1.4zm-6 4.7q1 0 1.7-.7t.7-1.7q0-1-.7-1.7t-1.7-.7q-1 0-1.7.7t-.7 1.7q0 1 .7 1.7t1.7.7zm3.7 6.2q0-.5-.3-.9-.1-.3-.7-.4-.6-.2-1.8-.2-1.8 0-2.8-.3-.6.4-.8.8-.2.4-.2 1 0 .9.9 1.3.9.5 2.5.5t2.4-.5q.8-.5.8-1.3zm13-9.7q-.6-.7-1-.9-.5-.2-1.2-.2-.8 0-1.6.4-.8.5-1.2 1.4-.5.8-.5 2.1v5.9h-1.8v-11h1.8v2q.4-1 1.4-1.7 1-.6 2-.6 1.8 0 3 1.2l-.8 1.4zm0 0l.2.1H74v-.1zm-.2 0h.2v.2l-.2-.1zm8.1 8.8q-1.5 0-2.6-.7-1.2-.7-1.8-2-.7-1.3-.7-3 0-1.6.7-2.9.6-1.3 1.8-2 1.1-.8 2.6-.8 1.4 0 2.6.8 1.1.7 1.8 2 .6 1.3.6 3 0 1.6-.6 3-.7 1.2-1.8 2-1.2.6-2.6.6zm0-1.4q.9 0 1.6-.5.8-.6 1.2-1.6.4-1 .4-2.2 0-1.8-.9-3-1-1.2-2.3-1.2-1.4 0-2.4 1.2-.9 1.2-.9 3 0 1.3.4 2.2.5 1 1.2 1.6.7.5 1.7.5zm11.3 1.5q-1.8 0-2.8-1.3-1-1.3-1-3.8v-6.1h1.7v6.1q0 2 .7 2.9.7.8 1.8.8 1.3 0 2-1 1-1 1-2.8v-6h1.6v10.3l.3.7h-1.7l-.2-.8v-1q-.5 1-1.5 1.5-.8.5-2 .5zm8.1-11.2h1.8v2.1q.3-1.2 1.2-1.8.9-.6 2.1-.6 1.2 0 2.3.7 1 .6 1.7 1.9.6 1.3.6 3 0 2-.7 3.3-.6 1.3-1.7 2-1 .6-2.3.6-1 0-1.8-.4-.9-.5-1.4-1.3v5.5h-1.8v-15zm4.8 9.7q1.3 0 2.2-1 .9-1 .9-3.2 0-2-.8-3.2-.8-1-2.3-1-1.3 0-2.2 1-.8 1.2-.8 3.5 0 2 .8 3t2.2 1zm12.6-5.2q2 .6 2.9 1.4.8.7.8 1.9 0 1.4-1.1 2.4-1.2 1-3.4 1-2.8 0-4.7-1.7l1-1.7q.8 1 1.6 1.5t2.1.5q1.3 0 2-.5.8-.5.8-1.3 0-.7-.6-1.2-.6-.4-2.1-1-4.2-1-4.2-3.3 0-1.3 1-2 1.1-.8 3-.8 1.6 0 2.6.5 1 .4 1.8 1.2l-1 1.2q-.5-.7-1.4-1.1-1-.5-1.9-.5-1 0-1.7.4-.6.3-.6 1 0 .6.6 1 .7.6 2.5 1.1zm2.3-1.8q0-.1.2 0l-.1.1h-.1zm.2 0q.1 0 0 0 0 .1 0 0zm-6.7 5q0 .1-.2 0h.2zm-.3.1v-.1.1z" fill="#173182"/><path d="M129.6 480.8q-.6 0-1-.4-.4-.5-.4-1 0-.6.4-1t1-.4q.6 0 1 .4t.4 1q0 .5-.4 1-.4.4-1 .4zm0 7.6q-.6 0-1-.4t-.4-1q0-.5.4-1 .4-.3 1-.3t1 .4q.4.4.4 1 0 .5-.4 1-.4.3-1 .3z" fill="#163182"/><path d="M151 490.3V472h6.9v1.4h-5.4V489h5.4v1.4H151zm26-18.1v3l-.2 2-.2 1.2h-1.1l-.2-1.2-.1-2v-3h1.8zm3.6 0v3l-.2 2-.2 1.2h-1.1l-.2-1.2-.1-2v-3h1.8zm5 5h1.7v2q.6-1 1.6-1.7 1-.6 2.1-.6 1.5 0 2.3 1.1 1 1.2 1 3.5v6.7h-1.8v-6.6q0-1.7-.5-2.4-.6-.8-1.5-.8-.7 0-1.5.5-.7.4-1.2 1.2-.5.8-.5 1.7v6.4h-1.7v-11zm16.8 11.2q-2.5 0-4-1.5-1.4-1.5-1.4-4.2 0-1.8.7-3 .7-1.4 1.8-2 1.2-.8 2.6-.8 2 0 3.2 1.3 1.2 1.4 1.2 4v.7h-7.8q.1 2 1.1 3 1 1.1 2.6 1.1 1.8 0 2.9-1.2l1 1q-1.5 1.6-3.9 1.6zm2.4-6.8q0-1.6-.8-2.4-.8-1-2-1t-2.1.9q-1 .8-1.1 2.5h6zm3.5-4.4h1.5l1.7 8.8 2-7.8h1l2.3 7.8.8-6 .2-2.5v-.3h1.6q-.7 5.6-1.8 11H216l-2-7.1-2 7h-1.5l-2.2-11zm18.4 4.5q2 .6 2.9 1.4.8.7.8 1.9 0 1.4-1.1 2.4-1.2 1-3.4 1-2.8 0-4.7-1.7l1-1.7q.8 1 1.6 1.5t2.1.5q1.3 0 2-.5.8-.5.8-1.3 0-.7-.6-1.2-.6-.4-2.1-1-4.2-1-4.2-3.3 0-1.3 1-2 1.1-.8 3-.8 1.6 0 2.6.5 1 .4 1.8 1.2l-1 1.2q-.5-.7-1.4-1.1-1-.5-1.9-.5-1 0-1.7.4-.6.3-.6 1 0 .6.6 1 .7.6 2.5 1.1zm2.3-1.8q0-.1.2 0l-.1.1h-.1zm.2 0q.1 0 0 0 0 .1 0 0zm-6.7 5q0 .1-.2 0h.2zm-.3.1v-.1.1zm14.8-12.8v3l-.2 2-.2 1.2h-1.1l-.2-1.2-.1-2v-3h1.8zm3.6 0v3l-.2 2-.2 1.2h-1.1l-.2-1.2-.1-2v-3h1.8zm7.2 19.3q.7-.7 1.1-1.4.5-.7.5-1.2l-.1-.3-.5-.4-.5-.6-.1-.5q0-.6.3-1 .5-.4 1-.4.7 0 1.2.6.5.5.5 1.4 0 1.8-2.6 4.5l-.8-.7zm25.2-19.3v3l-.2 2-.2 1.2h-1.1l-.2-1.2-.1-2v-3h1.8zm3.6 0v3l-.2 2-.2 1.2h-1.1l-.2-1.2-.1-2v-3h1.8zm10.1 9.5q2 .6 2.9 1.4.8.7.8 1.9 0 1.4-1.1 2.4-1.2 1-3.4 1-2.8 0-4.7-1.7l1-1.7q.8 1 1.6 1.5t2.1.5q1.3 0 2-.5.8-.5.8-1.3 0-.7-.6-1.2-.6-.4-2.1-1-4.2-1-4.2-3.3 0-1.3 1-2 1.1-.8 3-.8 1.6 0 2.6.5 1 .4 1.8 1.2l-1 1.2q-.5-.7-1.4-1.1-1-.5-1.9-.5-1 0-1.7.4-.6.3-.6 1 0 .6.6 1 .7.6 2.5 1.1zm2.3-1.8q0-.1.2 0l-.1.1h-.1zm.2 0q.1 0 0 0 0 .1 0 0zm-6.7 5q0 .1-.2 0h.2zm-.3.1v-.1.1zm11.1-7.8h1.8v2.1q.3-1.2 1.2-1.8.9-.6 2.1-.6 1.2 0 2.3.7 1 .6 1.7 1.9.6 1.3.6 3 0 2-.7 3.3-.6 1.3-1.7 2-1 .6-2.3.6-1 0-1.8-.4-.9-.5-1.4-1.3v5.5h-1.8v-15zm4.8 9.7q1.3 0 2.2-1 .9-1 .9-3.2 0-2-.8-3.2-.8-1-2.3-1-1.3 0-2.2 1-.8 1.2-.8 3.5 0 2 .8 3t2.2 1zm11.8 1.4q-1.5 0-2.6-.7-1.2-.7-1.8-2-.7-1.3-.7-3 0-1.6.7-2.9.6-1.3 1.8-2 1.1-.8 2.6-.8 1.4 0 2.6.8 1.1.7 1.8 2 .6 1.3.6 3 0 1.6-.6 3-.7 1.2-1.8 2-1.2.6-2.6.6zm0-1.4q1 0 1.6-.5.8-.6 1.2-1.6.4-1 .4-2.2 0-1.8-.9-3-1-1.2-2.3-1.2-1.4 0-2.4 1.2-.9 1.2-.9 3 0 1.3.4 2.2.5 1 1.2 1.6.7.5 1.7.5zm16.1-7.4q-.6-.7-1-.9-.5-.2-1.2-.2-.8 0-1.6.4-.8.5-1.2 1.4-.5.8-.5 2.1v5.9h-1.8v-11h1.8v2q.4-1 1.4-1.7 1-.6 2-.6 1.8 0 3 1.2l-.8 1.4zm0 0l.2.1h-.2v-.1zm-.2 0h.2v.2l-.2-.1zm12.7 7.6q-1.6 1.2-3.5 1.2-1.8 0-2.5-1-.8-1.2-.8-3.7v-1.4l.3-3.6h-2.5v-1.4h2.6l.1-3 2-.3h.2v.2l-.2.4-.1.5-.3 2.2h3.6v1.4h-3.7l-.2 3.7v1.3q0 2 .4 2.6.4.7 1.4.7.7 0 1.3-.3.6-.2 1.4-.8l.5 1.3zm8.2-5.4q2 .6 2.9 1.4.8.7.8 1.9 0 1.4-1.1 2.4-1.2 1-3.4 1-2.8 0-4.7-1.7l1-1.7q.8 1 1.6 1.5t2.1.5q1.3 0 2-.5.8-.5.8-1.3 0-.7-.6-1.2-.6-.4-2.1-1-4.2-1-4.2-3.3 0-1.3 1-2 1.1-.8 3-.8 1.6 0 2.6.5 1 .4 1.8 1.2l-1 1.2q-.5-.7-1.4-1.1-1-.5-1.9-.5-1 0-1.7.4-.6.3-.6 1 0 .6.6 1 .7.6 2.5 1.1zm2.3-1.8q0-.1.2 0l-.1.1h-.1zm.2 0q.1 0 0 0 0 .1 0 0zm-6.7 5q0 .1-.2 0h.2zm-.3.1v-.1.1zm14.8-12.8v3l-.2 2-.2 1.2h-1.1l-.2-1.2-.1-2v-3h1.8zm3.6 0v3l-.2 2-.2 1.2h-1.1l-.2-1.2-.1-2v-3h1.8zm25.3 18.1H379v-1.4h5.4v-15.4H379v-1.4h6.9v18.2z" fill="#2a86c0"/><path d="M29.2 518v-1.4h1.2q1.6 0 2.3-.6.7-.6.7-2.3v-2q0-3 2-3.7-2-.9-2-3.5v-1.7q0-2.6-2.3-2.6h-2V499h1.6q4.3 0 4.3 4.1v1.8q0 1.3.5 2 .6.5 1.7.5h.5v1.4h-.5q-1.1 0-1.6.6-.6.6-.6 2l.1 2.5q.1 1.6-.4 2.5-.6 1-1.7 1.3-1.1.4-3 .4h-.8z" fill="#5ca831"/></g><path d="M32 341.5v-14.3h4.8q3 0 4.7 1 1.7.8 2.7 2.5 1 1.7 1 3.7 0 1.4-.6 2.7-.5 1.4-1.6 2.4-1 1-2.4 1.5l-1.5.4-2.6.1H32zm4.6-12.4h-2.5v10.6h2.6q1.5 0 2.4-.2l1.4-.5 1-.8q1.6-1.6 1.6-4 0-2.2-1.6-3.7l-1.3-.9-1.4-.4-2.2-.1zm15.4 3q2.1 0 3.6 1.4 1.4 1.4 1.4 3.5 0 2-1.4 3.4-1.5 1.3-3.7 1.3-2.1 0-3.5-1.3-1.5-1.4-1.5-3.5 0-2 1.5-3.4 1.4-1.4 3.6-1.4zm-.1 1.7q-1.3 0-2.2.9-.9.9-.9 2.2 0 1.4 1 2.2.8.9 2.2.9 1.3 0 2.2-.9.9-.9.9-2.2 0-1.3-1-2.2-.8-1-2.2-1zm14.2 5.6v1.8q-1.4.5-2.7.5-2.2 0-3.6-1.3-1.3-1.3-1.3-3.5t1.3-3.6q1.3-1.4 3.4-1.4.7 0 1.3.2.6.1 1.4.5v2q-1.4-1-2.6-1-1.3 0-2 1-.9.9-.9 2.2 0 1.5.9 2.3.9.9 2.4.9 1 0 2.4-.6zm8.1 2.2v-1.2q-.5.6-1.3 1-.8.3-1.5.3-1 0-1.7-.4-.7-.5-1.1-1.2-.4-.8-.4-2.6v-5.4h1.9v5.4q0 1.5.4 2 .4.7 1.5.7 1.3 0 2.2-1.3V332h2v9.5h-2zm12.3-6.9v6.9h-2v-5.3q0-1.6-.3-2.2-.4-.6-1.5-.6-.6 0-1 .3-.6.2-1.2 1v6.8h-1.8V332h1.8v1.3q1.4-1.5 2.8-1.5 1.8 0 2.8 1.7 1.5-1.7 3.1-1.7 1.4 0 2.3 1 .9 1 .9 3v5.7h-1.9V336q0-1.2-.5-1.8-.5-.7-1.4-.7-1.1 0-2.1 1.2zM103 337h-6.7q0 1.4 1 2.2.7.8 2 .8 2 0 3.5-1.2v1.8q-.9.6-1.7.9-.9.2-2 .2-1.6 0-2.5-.6-1-.7-1.6-1.8-.6-1-.6-2.5 0-2.2 1.3-3.5 1.2-1.4 3.1-1.4 1.9 0 3 1.4 1.1 1.3 1.1 3.5v.2zm-6.7-1.1h4.8q0-1.1-.7-1.7-.6-.6-1.6-.6t-1.6.6q-.7.6-.9 1.7zm10.5-3.8v1.2q1.3-1.4 2.9-1.4.8 0 1.6.5t1.1 1.3q.4.7.4 2.5v5.4H111v-5.4q0-1.5-.5-2-.4-.7-1.4-.7-1.4 0-2.3 1.3v6.8H105V332h2zm7.3 1.5l3.5-3.4v2h3v1.6h-3v4.6q0 1.7 1.4 1.7 1 0 2.1-.7v1.7q-1 .6-2.4.6-1.2 0-2-.7l-.5-.5-.3-.8-.1-1.7v-4.2H114v-.2zm544.6-88.8v2.3q-2.3 1.2-5.2 1.2-2.4 0-4-1-1.8-1-2.7-2.6-1-1.7-1-3.7 0-3.1 2.2-5.2 2.3-2.2 5.5-2.2 2.3 0 5 1.2v2.2q-2.5-1.4-4.9-1.4-2.4 0-4 1.5-1.7 1.6-1.7 4 0 2.3 1.6 3.8t4.1 1.5q2.6 0 5.1-1.6zm6.8-6.1q2.2 0 3.6 1.4t1.4 3.5q0 2-1.4 3.4-1.5 1.3-3.7 1.3-2.1 0-3.5-1.4-1.5-1.3-1.5-3.4 0-2 1.5-3.4 1.4-1.4 3.6-1.4zm-.1 1.7q-1.3 0-2.2.9-.9.8-.9 2.2 0 1.4 1 2.2.8.9 2.2.9 1.4 0 2.2-.9.9-.9.9-2.2 0-1.4-1-2.2-.8-1-2.2-1zm7.2-6.6h1.9v14.3h-2v-14.3zm4.6 0h1.9v14.3h-1.9v-14.3zm12.7 9.8h-6.7q.1 1.3 1 2.1.8.8 2 .8 2 0 3.5-1.1v1.8q-.9.6-1.7.8-.9.3-2 .3-1.6 0-2.5-.7-1-.6-1.6-1.7-.5-1-.5-2.5 0-2.2 1.2-3.5 1.2-1.4 3.1-1.4 2 0 3 1.3 1.2 1.4 1.2 3.6v.2zm-6.6-1.1h4.7q0-1.1-.7-1.7-.5-.7-1.6-.7-1 0-1.6.7-.6.6-.8 1.7zM699 246v1.8q-1.5.5-2.8.5-2.2 0-3.5-1.3-1.4-1.3-1.4-3.5t1.3-3.6q1.3-1.4 3.4-1.4.7 0 1.3.2.6.1 1.4.5v2q-1.4-1-2.6-1-1.2 0-2 1-.9.8-.9 2.2 0 1.5 1 2.3.8.9 2.3.9 1 0 2.4-.7zm.7-5.8l3.5-3.4v2h3v1.6h-3v4.6q0 1.6 1.4 1.6 1 0 2.1-.6v1.7q-1 .6-2.3.6-1.3 0-2.2-.7l-.4-.5-.3-.8-.1-1.7v-4.2h-1.7v-.2zm9.3-5.5q.5 0 .8.4.4.3.4.7 0 .5-.4.8-.3.3-.8.3-.4 0-.7-.3-.4-.3-.4-.8 0-.4.4-.7.3-.4.7-.4zm-.9 4h1.9v9.4h-2v-9.4zm9.1 0q2.1 0 3.6 1.4 1.4 1.4 1.4 3.5 0 2-1.5 3.4-1.4 1.3-3.6 1.3-2.1 0-3.6-1.4-1.4-1.3-1.4-3.4 0-2 1.5-3.4 1.4-1.4 3.6-1.4zm-.1 1.7q-1.4 0-2.2.9-.9.8-.9 2.2 0 1.4.9 2.2.9.9 2.3.9 1.3 0 2.2-.9.9-.9.9-2.2 0-1.4-1-2.2-.8-1-2.2-1zm9-1.7v1.2q1.2-1.4 2.8-1.4 1 0 1.7.5.7.4 1.1 1.2.4.8.4 2.6v5.3h-1.8v-5.3q0-1.5-.5-2-.4-.7-1.5-.7-1.3 0-2.2 1.3v6.7h-2v-9.4h2z" font-size="21" font-family="GillSans" fill="#2a86c0"/><path d="M19.8 346.8h382.6v184H19.8z" stroke="#5ba831" stroke-width="2" fill="none"/><g stroke="#2a86c0" stroke-width="6"><path d="M419.5 438.8h89.8" fill="none"/><path d="M509.3 444.8l16-6-16-6z" fill="#2a86c0"/></g><path d="M444.2 418.3q.5 0 .8.4.4.3.4.7 0 .5-.4.8-.3.4-.8.4-.4 0-.7-.4-.4-.3-.4-.8 0-.4.4-.7.3-.4.7-.4zm-.9 4h1.9v9.4h-1.9v-9.4zm6.4 0v1.2q1.3-1.4 2.9-1.4.9 0 1.6.5.8.4 1.2 1.2.4.8.4 2.6v5.3h-2v-5.3q0-1.5-.3-2-.5-.7-1.5-.7-1.3 0-2.3 1.3v6.7h-1.9v-9.4h2zm8.2 8.7v-2l1.6 1q.8.3 1.4.3.6 0 1-.3t.4-.7q0-.4-.2-.6l-1.2-.8q-1.8-1-2.4-1.7-.5-.8-.5-1.6 0-1 .8-1.8.9-.7 2.2-.7 1.4 0 2.8.8v1.9q-1.6-1-2.7-1-.5 0-.9.2-.3.2-.3.6 0 .3.3.6l1 .7.7.4q2.4 1.3 2.4 3 0 1.1-1 1.9-.8.7-2.3.7-.8 0-1.4-.2-.7-.1-1.7-.6zm16.5-3.8h-6.6q0 1.4 1 2.2.7.8 2 .8 2 0 3.5-1.2v1.8q-.9.6-1.7.8-.9.3-2 .3-1.6 0-2.5-.7-1-.6-1.6-1.7-.6-1-.6-2.5 0-2.2 1.3-3.5 1.2-1.4 3.1-1.4 2 0 3 1.3 1.1 1.4 1.1 3.6v.2zm-6.6-1.1h4.8q0-1.1-.7-1.7-.6-.6-1.6-.6t-1.6.6q-.7.6-.9 1.7zm10.6-3.8v2.2l.2-.2q1.3-2.2 2.7-2.2 1 0 2.2 1.1l-1 1.6q-1-.9-1.8-.9-1 0-1.6.9-.7.8-.7 2v5h-1.8v-9.5h1.8zm5.5 1.5l3.5-3.4v2h3v1.6h-3v4.6q0 1.6 1.3 1.6 1 0 2.1-.6v1.7q-1 .6-2.3.6-1.3 0-2.1-.7l-.5-.5-.3-.8-.1-1.7V424h-1.6v-.2z" font-size="21" font-family="GillSans" fill="#2a86c0"/><path d="M549.5 572.7h279.2" stroke="#173182" fill="none"/><g opacity=".7"><path d="M550.6 572.7h278.1v43h-278z" fill="#b9d7ea"/><path d="M550.6 572.7h278.1v43h-278z" stroke="#173182" fill="none"/></g><path d="M560.4 602.9q-1.4 0-2.3-.3-.8-.3-1.2-1-.4-.6-.4-1.9l.1-1.8q0-1.1-.4-1.5-.4-.5-1.2-.5h-.4v-1h.4q.8 0 1.2-.5.5-.4.5-1.4v-1.3q0-3.2 3.2-3.2h1.1v1h-1.4q-1.7 0-1.7 2v1.2q0 2-1.6 2.7 1.6.5 1.6 2.8v1.5q0 1.2.4 1.7.6.5 1.8.5h1v1h-.7zm12.6-11.1h1.2v1.4q.5-.7 1.3-1.2.7-.4 1.5-.4 1.1 0 1.8.8.6.9.6 2.6v5h-1.2v-5q0-1.2-.4-1.7-.4-.6-1.1-.6-.6 0-1.2.3-.5.4-.9 1-.4.5-.4 1.3v4.7H573v-8.2zm12-.2q1.8 0 2.8 1 .9.8.9 3v4.4h-1.4v-1.3q-.8 1.5-2.8 1.5-1.4 0-2.2-.6-.7-.6-.7-1.7 0-.8.5-1.5.6-.6 1.5-1 1-.3 2.1-.3h1.9q-.1-1.3-.8-1.9-.6-.5-1.8-.5l-1.2.2q-.6.2-1 .7l-.7-.8q1.2-1.2 3-1.2zm-.4 7.6q1.3 0 2.1-.8.8-.7.9-2.2-.8-.2-1.8-.2-1.4 0-2.1.5-.8.4-.8 1.4 0 1.3 1.7 1.3zm5.8-7.4h1.2v.8q.2-.5.7-.7.4-.3 1-.3.5 0 .9.3.4.4.5.9.2-.5.7-.9.5-.3 1.1-.3.9 0 1.2.6.5.6.4 1.5v6.3H597v-5.8q0-1-.2-1.4-.2-.3-.5-.3-.4 0-.7.3l-.5.8-.1 1v5.4h-1.3v-5.7q0-1-.2-1.4-.1-.3-.7-.3l-.5.2-.5.7-.1 1v5.5h-1.2v-8.2zm13.2 8.4q-1.9 0-3-1.1-1-1.1-1-3.2 0-1.3.5-2.3.5-1 1.3-1.5.9-.5 2-.5 1.4 0 2.4 1 .9 1 .9 2.9v.6h-5.9q0 1.5.9 2.3.7.7 2 .7 1.2 0 2-.9l.8.7q-1 1.3-3 1.3zm1.8-5.1q0-1.2-.6-1.8-.6-.7-1.5-.7-1 0-1.6.6-.7.6-.8 1.9h4.5zm6.6-.6q-.4 0-.8-.3-.3-.3-.3-.8 0-.4.3-.7.3-.3.8-.3.4 0 .7.3.3.3.3.7 0 .5-.3.8-.3.3-.7.3zm0 5.7q-.5 0-.8-.3-.3-.3-.3-.7 0-.5.3-.8.3-.3.8-.3.4 0 .7.3.3.3.3.8 0 .4-.3.7-.3.3-.7.3zm17.6-12.2l-.1 2.3-.1 1.5-.1.9h-.9l-.1-.9-.1-1.5V588h1.4zm2.7 0l-.1 2.3-.1 1.5-.1.9h-.9l-.1-.9-.1-1.5V588h1.4zm7.5 7.2q1.5.4 2.2 1 .6.5.6 1.4 0 1.1-.9 1.9-.8.7-2.5.7-2 0-3.5-1.3l.7-1.2q.6.7 1.2 1 .6.4 1.6.4t1.6-.3q.5-.4.5-1 0-.5-.4-.9l-1.6-.7q-3.1-.9-3.1-2.5 0-1 .7-1.6.8-.5 2.3-.5 1.1 0 1.9.3.7.3 1.4 1l-.8.9q-.4-.6-1-.9-.8-.3-1.5-.3-.8 0-1.3.2-.4.3-.4.8 0 .4.5.8t1.8.8zm1.7-1.4h.2l-.1.1zm.2 0q0 .1 0 0zm-5 3.8h-.2.1zm-.3 0zm11.3 2.6q-1.3 0-2.1-1t-.8-2.8v-4.6h1.3v4.6q0 1.4.5 2.1.5.7 1.4.7 1 0 1.6-.8.6-.7.6-2v-4.6h1.3v7.7l.1.5h-1.2l-.2-.5v-.8q-.4.7-1 1.1-.7.4-1.5.4zm9.9 0q-1.9 0-3-1.1-1-1.1-1-3.2 0-1.3.5-2.3.5-1 1.3-1.5.9-.5 2-.5 1.4 0 2.4 1 .9 1 .9 2.9v.6h-5.9q0 1.5.9 2.3.7.7 2 .7 1.2 0 2-.9l.8.7q-1 1.3-3 1.3zm1.8-5.1q0-1.2-.6-1.8-.6-.7-1.5-.7-1 0-1.6.6-.7.6-.8 1.9h4.5zm6.2-7.1l-.1 2.3-.1 1.5-.1.9h-.9l-.1-.9-.1-1.5V588h1.4zm2.7 0l-.1 2.3-.1 1.5-.1.9h-.9l-.1-.9-.1-1.5V588h1.4zm5.4 14.5l.8-1 .3-.9v-.3q-.2 0-.4-.3l-.4-.4v-.4q0-.4.2-.7.3-.3.8-.3t.8.4q.4.4.4 1 0 1.5-2 3.4l-.5-.5zm19.3-10.9q1.8 0 2.8 1 .9.8.9 3v4.4h-1.4v-1.3q-.8 1.5-2.8 1.5-1.4 0-2.2-.6-.7-.6-.7-1.7 0-.8.5-1.5.6-.6 1.5-1 1-.3 2.1-.3h1.9q-.1-1.3-.8-1.9-.6-.5-1.8-.5l-1.2.2q-.6.2-1 .7l-.7-.8q1.2-1.2 3-1.2zm-.4 7.6q1.3 0 2.1-.8.8-.7.9-2.2-.8-.2-1.8-.2-1.4 0-2.1.5-.8.4-.8 1.4 0 1.3 1.7 1.3zm13.6-6.6h-.4q-.9 0-1.5.4.3.6.3 1.3 0 .8-.3 1.5-.4.7-1 1-.7.4-1.5.4-.7 0-1.3-.2-.3.4-.3.7 0 .5.5.7l2 .1q1.7 0 2.3.6.7.5.7 1.5t-.9 1.8q-.8.7-2.7.7-1.7 0-2.7-.5-1-.6-1-1.6 0-.7.3-1.1.4-.5 1-.8-.6-.4-.6-1 0-.8.7-1.6-.5-.4-.7-1-.2-.5-.2-1.2 0-.8.3-1.4.4-.7 1-1 .7-.4 1.6-.4 1.3 0 2 .8l1-.6q.4-.2 1-.2h.3l.1 1.1zm-4.4 3.5q.7 0 1.2-.5.6-.5.6-1.3 0-.7-.6-1.2-.5-.6-1.2-.6-.8 0-1.3.6-.5.5-.5 1.2 0 .8.5 1.3t1.3.5zm2.7 4.7q0-.4-.2-.7-.1-.2-.5-.3l-1.4-.1q-1.3 0-2-.3l-.7.6-.1.8q0 .6.6 1 .7.3 2 .3 1.1 0 1.7-.3.6-.4.6-1zm7.1-.6q-1.9 0-3-1.1-1-1.1-1-3.2 0-1.3.5-2.3.5-1 1.3-1.5.9-.5 2-.5 1.4 0 2.4 1 .9 1 .9 2.9v.6h-5.9q0 1.5.9 2.3.7.7 2 .7 1.2 0 2-.9l.8.7q-1 1.3-3 1.3zm1.8-5.1q0-1.2-.6-1.8-.6-.7-1.5-.7-1 0-1.6.6-.7.6-.8 1.9h4.5zm6.6-.6q-.4 0-.8-.3-.3-.3-.3-.8 0-.4.3-.7.3-.3.8-.3.4 0 .7.3.3.3.3.7 0 .5-.3.8-.3.3-.7.3zm0 5.7q-.5 0-.8-.3-.3-.3-.3-.7 0-.5.3-.8.3-.3.8-.3.4 0 .7.3.3.3.3.8 0 .4-.3.7-.3.3-.7.3zm15-1.2l1.5-1.5 2.1-2.3q.8-.8 1.2-1.6.4-.8.4-1.7 0-1.1-.5-1.6t-1.4-.5q-.7 0-1.4.4-.7.3-.9.7l-.2.4-.1.3h.2v.1h-.3l-.9-.8q.6-1 1.5-1.6 1-.6 2.1-.6 1.5 0 2.3.9 1 .8 1 2.3 0 1-.5 2l-1.2 1.7-2 2-1.3 1.3h4.6q.2 0 .3-.2v1.3H735v-1zm12.5-6.2q.9 0 1.6.4.7.5 1 1.3.5.9.5 2 0 1-.4 1.9-.5.8-1.2 1.3t-1.6.5q-1.7 0-2.6-1.4-1-1.4-1-3.9 0-2 .6-3.4.5-1.4 1.3-2.1 1-.7 2.2-.7 1.4 0 2.4 1l-.8.9q-.4-.5-.7-.6-.4-.2-1-.2-.5 0-1.1.4-.6.3-1.1 1.3-.4 1-.5 2.6.4-.6 1-1 .7-.3 1.4-.3zm1.8-2.2h.2l-.1.1zm.2 0q.1.2 0 .1zm-2 8.5q.7 0 1.3-.7.6-.7.6-2 0-.8-.3-1.4-.3-.6-.8-.8-.4-.3-.9-.3-.6 0-1.2.4t-1 1v.6l.2 1.5q.3.7.8 1.2.6.5 1.2.5zm7.2 3.4l.8-1 .3-.9v-.3q-.2 0-.4-.3l-.4-.4v-.4q0-.4.2-.7.3-.3.8-.3t.8.4q.4.4.4 1 0 1.5-2 3.4l-.5-.5zm19.3-2.3q-.5 0-.8-.3-.3-.3-.3-.7 0-.4.3-.7.3-.3.8-.3.4 0 .7.3.3.3.3.7 0 .4-.3.7-.3.3-.7.3zm9 0q-.5 0-.8-.3-.3-.3-.3-.7 0-.4.3-.7.3-.3.8-.3.4 0 .7.3.3.3.3.7 0 .4-.3.7-.3.3-.7.3zm9 0q-.5 0-.8-.3-.3-.3-.3-.7 0-.4.3-.7.3-.3.8-.3.4 0 .7.3.3.3.3.7 0 .4-.3.7-.3.3-.7.3zm14.7 2.7v-1h.9q1.2 0 1.7-.5.6-.5.6-1.7v-1.5q0-2.3 1.4-2.8-1.5-.7-1.5-2.7v-1.2q0-2-1.7-2h-1.4v-1h1q3.4 0 3.4 3.2v1.3q0 1 .3 1.4.5.5 1.3.5h.3v1h-.3q-.8 0-1.2.5-.4.4-.4 1.5v1.8q0 1.3-.3 2-.4.6-1.3.9-.8.3-2.2.3h-.6z" font-size="18" font-family="Inconsolata" fill="#173182"/><path d="M217 97.4q-1.8 0-3-.3-1-.4-1.6-1.3-.5-1-.5-2.6l.1-2.4q0-1.5-.5-2-.5-.7-1.6-.7h-.5v-1.3h.4q1.2 0 1.7-.6.6-.6.6-2v-1.7q0-4.2 4.3-4.2h1.5v1.4h-2q-2.2 0-2.2 2.5V84q0 2.6-2 3.6 2 .6 2 3.7v2q0 1.6.6 2.2.7.7 2.4.7h1.2v1.3h-.9z" font-size="24" font-family="Inconsolata" fill="#153082"/><g font-size="24" font-family="Inconsolata"><path d="M250.5 101h1.7v2q.6-1 1.6-1.7 1-.6 2-.6 1.6 0 2.4 1.2 1 1 1 3.4v6.7h-1.8v-6.6q0-1.7-.5-2.4-.6-.8-1.5-.8-.7 0-1.5.5-.7.4-1.2 1.2-.5.8-.5 1.8v6.3h-1.7v-11zm16.1-.2q2.4 0 3.6 1.2 1.2 1.2 1.2 4.1v5.9h-1.8v-1.7q-1 2-3.8 2-1.8 0-2.8-.9-1-.8-1-2.2 0-1.1.7-2 .7-.9 2-1.3 1.2-.5 2.8-.5l2.4.1q-.1-1.8-1-2.6-.8-.7-2.4-.7-.8 0-1.6.3-.7.3-1.4.9l-.8-1.1q1.5-1.5 4-1.5zm-.6 10.1q1.8 0 2.8-1 1-1 1.1-3-1-.2-2.3-.2-1.8 0-2.9.6-1 .6-1 1.8 0 1.8 2.3 1.8zm7.7-9.9h1.6v1q.3-.5 1-.9.5-.4 1.2-.4t1.2.5q.6.4.7 1.1.3-.7 1-1.1.7-.5 1.5-.5 1 0 1.6.8.6.8.5 2v8.5h-1.6v-7.8q0-1.4-.2-1.8-.3-.4-.8-.4-.4 0-.8.4l-.7 1-.2 1.3v7.3H278v-7.7q0-1.3-.2-1.8-.3-.4-1-.4-.3 0-.7.3-.4.3-.6.9-.2.6-.2 1.3v7.4h-1.6v-11zm17.6 11.2q-2.5 0-4-1.5-1.4-1.5-1.4-4.2 0-1.8.7-3 .7-1.4 1.8-2 1.2-.8 2.6-.8 2 0 3.2 1.4 1.2 1.3 1.2 3.8v.8h-7.8q0 2 1.1 3 1 1.1 2.6 1.1 1.8 0 2.9-1.2l1 1q-1.5 1.6-4 1.6zm2.4-6.8q0-1.5-.8-2.4-.8-1-2-1t-2.1.9q-1 .8-1.1 2.5h6zm8.8-.8q-.6 0-1-.4t-.4-1q0-.6.4-1t1-.4q.6 0 1 .4t.4 1q0 .6-.4 1t-1 .4zm0 7.6q-.6 0-1-.4t-.4-1q0-.5.4-1 .4-.3 1-.3t1 .4q.4.4.4 1 0 .5-.4 1-.4.3-1 .3z" fill="#173082"/><path d="M326 96l-.1 3-.2 2-.2 1.2h-1.1l-.2-1.2-.1-2-.1-3h2zm3.5 0v3l-.2 2-.2 1.2H328l-.2-1.2-.1-2-.1-3h2zm10.1 9.5q2 .6 2.9 1.4.8.7.8 1.9 0 1.5-1.2 2.4-1.1 1-3.3 1-2.8 0-4.7-1.7l1-1.7q.8 1 1.6 1.5t2.1.5q1.3 0 2-.5.8-.5.8-1.3 0-.7-.6-1.1-.6-.5-2.1-1-4.2-1.2-4.2-3.4 0-1.3 1-2 1.1-.8 3-.8 1.6 0 2.6.5 1 .4 1.8 1.3l-1 1.2q-.5-.8-1.4-1.2-1-.5-1.9-.5-1 0-1.7.4-.6.4-.6 1t.6 1.1q.7.5 2.5 1zm2.3-1.8h.2l-.1.2-.1-.2zm.2 0q.1 0 0 .1v-.1zm-6.7 5q0 .1-.2 0h.2zm-.3.1v-.1.1zm14.9 3.4q-1.7 0-2.7-1.2-1-1.3-1-3.9V101h1.7v6.1q0 2 .7 2.9.7.8 1.8.8 1.2 0 2-1 1-.9 1-2.8v-6h1.6v10.3l.3.7h-1.7l-.2-.8v-1q-.6 1-1.5 1.5t-2 .5zm13.3 0q-2.5 0-4-1.5-1.4-1.5-1.4-4.2 0-1.8.7-3 .7-1.4 1.8-2 1.2-.8 2.6-.8 2 0 3.2 1.4 1.2 1.3 1.2 3.8v.8h-7.8q0 2 1.1 3 1 1.1 2.6 1.1 1.8 0 2.9-1.2l1 1q-1.5 1.6-4 1.6zm2.4-6.8q0-1.5-.8-2.4-.8-1-2-1t-2.1.9q-1 .8-1.1 2.5h6zM374 96l-.1 3-.2 2-.2 1.2h-1.1l-.2-1.2-.1-2-.1-3h2zm3.5 0v3l-.2 2-.2 1.2H376l-.2-1.2-.1-2-.1-3h2zm7.2 19.3q.7-.6 1.1-1.4.5-.7.5-1.1l-.1-.4-.5-.4-.5-.6-.1-.5q0-.6.3-1 .5-.4 1-.4.7 0 1.2.6.5.5.5 1.4 0 1.9-2.6 4.5l-.8-.7z" fill="#152f82"/></g><path d="M194.6 234.4q2.4-1.3 3.9-3.6 1.4-2.4 1.4-5 0-2.7-1.4-5-1.4-2.4-3.7-3.6l.4-1.5q2 .9 3.4 2.4t2.2 3.5q.8 2 .8 4 0 2.2-.8 4.1-.8 2-2.3 3.6-1.5 1.6-3.4 2.5l-.5-1.4z" font-size="24" font-family="Inconsolata" fill="#173282"/><g stroke="#2a86c0"><path d="M73.4 30.4v11.1" fill="none"/><path d="M70.4 41.5l3 8 3-8z" fill="#2a86c0"/></g><g stroke="#2a86c0"><path d="M297.5 31.2v26.3" fill="none"/><path d="M294.5 57.5l3 8 3-8z" fill="#2a86c0"/></g></svg>