<?xml version="1.0" encoding="UTF-8"?>
<!DOCTYPE svg PUBLIC "-//W3C//DTD SVG 1.1//EN" "http://www.w3.org/Graphics/SVG/1.1/DTD/svg11.dtd">
<svg version="1.1" xmlns="http://www.w3.org/2000/svg" xmlns:xlink="http://www.w3.org/1999/xlink" x="0" y="0" width="640" height="160" viewBox="0, 0, 640, 160">
  <g id="Layer_1">
    <g id="Values/row_1">
      <g>
        <text transform="matrix(1, 0, 0, 1, 553.242, 107.5)">
          <tspan x="-33.242" y="7.5" font-family="GillSans" font-size="24" fill="#2A86C0">values/</tspan>
        </text>
        <text transform="matrix(1, 0, 0, 1, 606.061, 107.5)">
          <tspan x="-20.088" y="7.5" font-family="GillSans" font-size="24" fill="#2F1D12">row</tspan>
        </text>
      </g>
      <path d="M465.513,68.556 L467.54,69.328 L471.018,70.723 L473.734,72.374 L475.359,74.112 L476.318,75.662 L476.766,76.582 L476.74,76.52 L477.277,77.992 L477.807,81.173 L477.756,86.578 L477.302,92.298 L477.121,96.06 L477.29,99.592 L478.043,102.735 L478.738,104.157 L478.738,104.157 C478.766,104.214 478.804,104.266 478.849,104.312 L478.849,104.312 L479.335,104.804 L481.127,105.741 L483.007,106.5 L484.119,107.282 L484.071,107.518 L484.057,107.044 L483.876,107.871 L482.953,109.194 L481.478,111.14 L479.923,113.848 L479.405,115.537 L479.405,115.537 C479.388,115.599 479.377,115.659 479.37,115.716 L479.37,115.716 L479.087,118.271 L478.819,123.325 L478.667,128.146 L478.275,132.662 L477.31,136.794 L475.498,140.411 L473.593,142.573 L472.132,143.732 L470.235,144.926 L467.832,146.119 L466.503,146.671 L466.503,146.671 C465.195,147.228 464.076,148.356 464.004,149.191 C463.931,150.026 464.933,150.251 466.241,149.694 L468.229,148.834 L471.682,147.031 L474.68,145.014 L477.24,142.755 L479.922,139.426 L481.994,135.096 L483.011,130.645 L483.409,126.024 L483.56,121.242 L483.818,116.305 L484.102,113.748 L484.067,113.927 L484.221,113.101 L485.361,111.026 L487.148,108.621 L488.567,106.145 L488.749,105.316 L488.749,105.316 C488.787,105.137 488.782,104.977 488.734,104.84 L488.734,104.84 L488.298,103.984 L486.873,103.038 L485.126,102.338 L483.714,101.673 L483.228,101.182 L483.34,101.337 L482.745,100.187 L482.032,97.327 L481.862,93.968 L482.039,90.267 L482.499,84.41 L482.528,78.723 L481.936,75.303 L481.399,73.832 L481.399,73.832 C481.391,73.811 481.382,73.791 481.373,73.771 L481.373,73.771 L480.863,72.741 L479.753,70.997 L477.843,69.033 L474.883,67.261 L471.374,65.853 L469.346,65.08 C469.346,65.08 469.346,65.08 469.346,65.08 C468.574,64.787 467.09,65.326 466.032,66.285 C464.973,67.245 464.741,68.261 465.513,68.556 L465.513,68.556" fill="#311F13"/>
    </g>
    <g id="Cmd">
      <text transform="matrix(1, 0, 0, 1, 71.5, 17.5)">
        <tspan x="-66.5" y="7.5" font-family="Inconsolata" font-size="24" fill="#053056">INSERT INTO</tspan>
      </text>
      <text transform="matrix(1, 0, 0, 1, 171.5, 17.5)">
        <tspan x="-24.5" y="7.5" font-family="Inconsolata" font-size="24" fill="#2A86C0">user</tspan>
      </text>
      <text transform="matrix(1, 0, 0, 1, 297.5, 47.5)">
        <tspan x="-150.5" y="7.5" font-family="Inconsolata" font-size="24" fill="#2A86C0">( name, age, status)</tspan>
      </text>
      <text transform="matrix(1, 0, 0, 1, 41.5, 77.5)">
        <tspan x="-36.5" y="7.5" font-family="Inconsolata" font-size="24" fill="#053056">VALUES </tspan>
      </text>
    </g>
    <g id="Values">
      <text transform="matrix(1, 0, 0, 1, 305.5, 107.5)">
        <tspan x="-158.5" y="7.5" font-family="Inconsolata" font-size="24" fill="#2A86C0">( "bob", 25, "enrolled" ),</tspan>
      </text>
      <text transform="matrix(1, 0, 0, 1, 297.5, 137.5)">
        <tspan x="-150.5" y="7.5" font-family="Inconsolata" font-size="24" fill="#2A86C0">( "ann", 28, "enrolled" )</tspan>
      </text>
      <text transform="matrix(1, 0, 0, 1, 297.501, 80)">
        <tspan x="-150.5" y="5" font-family="Inconsolata" font-size="24" fill="#2A86C0">( "sue", 26, "pending" ),</tspan>
      </text>
    </g>
    <g id="table">
      <g>
        <path d="M474,12 L473.966,27 L464,19.408 L474,12 z" fill="#5CA831"/>
        <path d="M510,19.872 L474,19.673" fill-opacity="0" stroke="#5CA831" stroke-width="2"/>
      </g>
      <text transform="matrix(1, 0, 0, 1, 543.996, 19.5)">
        <tspan x="-23.996" y="7.5" font-family="GillSans" font-size="24" fill="#2A86C0">table</tspan>
      </text>
    </g>
    <g id="Column">
      <g>
        <path d="M474,41.327 L473.966,56.327 L464,48.735 L474,41.327 z" fill="#5CA831"/>
        <path d="M510,49.199 L474,49" fill-opacity="0" stroke="#5CA831" stroke-width="2"/>
      </g>
      <text transform="matrix(1, 0, 0, 1, 560.877, 47.5)">
        <tspan x="-40.877" y="7.5" font-family="GillSans" font-size="24" fill="#2A86C0">columns</tspan>
      </text>
    </g>
  </g>
</svg>
