<svg xmlns="http://www.w3.org/2000/svg" height="170" width="570"><g stroke="#2d1b11" stroke-width="2"><path d="M445.1 42l-42.9-.2" fill="none"/><path d="M402.2 38.2l-9.6 3.6 9.6 3.6z" fill="#2d1b11"/></g><g font-size="24" font-family="GillSans"><path d="M460.9 38.1v-.6q0-2.6 1-4 1.2-1.2 2.7-1.2l1.6.2v2h-1q-1.2 0-1.7.6t-.5 2.4v.6h2v2h-2v8.8h-2V40h-1.6v-1.9h1.6zm6.8-4.5q.6 0 1 .3.3.4.3 1 0 .4-.4.8-.3.4-.9.4-.5 0-.8-.4-.4-.4-.4-.9t.4-.8q.3-.4.8-.4zm-1 4.5h2.1v10.8h-2.1V38zm14.3 5.6h-7.5q0 1.5 1 2.4 1 1 2.5 1 2.1 0 3.9-1.4v2.1q-1 .7-2 1-1 .2-2.2.2-1.8 0-3-.7-1-.7-1.7-2-.6-1.2-.6-2.9 0-2.4 1.4-4 1.4-1.5 3.6-1.5 2.1 0 3.4 1.5 1.3 1.5 1.3 4v.3zm-7.5-1.3h5.5q-.1-1.3-.8-2-.7-.7-1.8-.7-1.2 0-2 .7-.6.7-.9 2zm9.9-9.9h2.2V49h-2.2V32.5zm12.5 0h2.1V49h-4.5q-2.4 0-3.9-1.5-1.4-1.5-1.4-4t1.5-4q1.5-1.5 3.8-1.5 1.1 0 2.4.4v-5.8zm0 14.6v-6.9q-1-.5-2-.5-1.6 0-2.6 1-1 1.1-1 2.9 0 1.6.9 2.5.5.6 1 .8.6.2 2 .2h1.7z" fill="#173182"/><path d="M502.6 46.2q.6 0 1 .4.5.5.5 1 0 .6-.4 1-.5.5-1 .5-.6 0-1-.4-.5-.5-.5-1 0-.6.4-1 .4-.5 1-.5zm.2-8.3q.6 0 1 .4.5.4.5 1t-.5 1q-.4.4-1 .4-.5 0-1-.4-.4-.4-.4-1t.4-1q.4-.4 1-.4zm14.9.2h2.4l-4.8 11h-.7l-4.9-11h2.3l3 6.6 2.7-6.6zm10.7 4.3V47q0 .5.4.5t1.2-.5v1.3l-1.2.6q-.4.2-.9.2-1.4 0-1.6-1.1-1.4 1-2.9 1-1.1 0-1.9-.7-.7-.7-.7-1.9 0-1 .7-1.8t2-1.3l2.8-.9v-.6q0-2-2-2-1.7 0-3.3 1.9v-2.3q1.2-1.5 3.6-1.5 1.7 0 2.8.9l.6.8q.3.5.3 1l.1 1.8zm-2 4.3v-3.2l-1.5.6q-1.1.4-1.6.9-.4.4-.4 1 0 .7.4 1.2.5.4 1.1.4 1 0 2-.9zm5.6-14.2h2V49h-2V32.5zm12 16.4v-1.4q-.6.7-1.5 1.2-.8.4-1.7.4-1 0-1.9-.5-.9-.6-1.3-1.4-.4-.9-.4-3v-6.1h2.1v6.2q0 1.7.5 2.3.5.7 1.7.7 1.5 0 2.6-1.5v-7.7h2.1v10.8h-2.1zm14.4-5.2h-7.6q.1 1.5 1 2.4 1 1 2.5 1 2.1 0 4-1.4v2.1q-1 .7-2 1-1 .2-2.3.2-1.8 0-2.9-.7-1-.7-1.8-2-.6-1.2-.6-2.9 0-2.4 1.4-4 1.4-1.5 3.6-1.5 2.1 0 3.4 1.5 1.3 1.5 1.3 4v.3zm-7.5-1.3h5.4q0-1.3-.8-2-.7-.7-1.8-.7-1.2 0-1.9.7t-1 2z" fill="#2a86c0"/></g><g stroke="#2d1b11" stroke-width="2"><path d="M445.1 68.7l-42.9-.2" fill="none"/><path d="M402.2 65l-9.6 3.5 9.6 3.6z" fill="#2d1b11"/><path d="M445.1 95.3l-42.9-.2" fill="none"/><path d="M402.2 91.5l-9.6 3.6 9.6 3.6z" fill="#2d1b11"/></g><g font-size="24" font-family="GillSans"><path d="M460.9 64.7V64q0-2.6 1-3.8 1.2-1.3 2.7-1.3l1.6.2v2l-1-.1q-1.2 0-1.7.7-.5.6-.5 2.3v.7h2v2h-2v8.8h-2v-8.9h-1.6v-2h1.6zm6.8-4.6q.6 0 1 .4.3.4.3.9t-.4.9q-.3.4-.9.4-.5 0-.8-.4-.4-.4-.4-.9t.4-.9q.3-.4.8-.4zm-1 4.6h2.1v10.8h-2.1V64.7zm14.3 5.6h-7.5q0 1.5 1 2.4 1 1 2.5 1 2.1 0 3.9-1.4v2.1q-1 .7-2 1-1 .2-2.2.2-1.8 0-3-.7-1-.7-1.7-2-.6-1.2-.6-2.9 0-2.4 1.4-4 1.4-1.5 3.6-1.5 2.1 0 3.4 1.5 1.3 1.5 1.3 4v.3zm-7.5-1.3h5.5q-.1-1.3-.8-2-.7-.7-1.8-.7-1.2 0-2 .7-.6.7-.9 2zm9.9-10h2.2v16.5h-2.2V59zm12.5 0h2.1v16.5h-4.5q-2.4 0-3.9-1.5-1.4-1.6-1.4-4.1 0-2.4 1.5-4 1.5-1.4 3.8-1.4 1.1 0 2.4.4v-5.8zm0 14.6v-6.8q-1-.5-2-.5-1.6 0-2.6 1t-1 2.9q0 1.6.9 2.5.5.6 1 .8l2 .1h1.7z" fill="#173182"/><path d="M502.6 72.8q.6 0 1 .4.5.4.5 1t-.4 1q-.5.5-1 .5-.6 0-1-.5-.5-.4-.5-1t.4-1q.4-.4 1-.4zm.2-8.3q.6 0 1 .4.5.4.5 1t-.5 1q-.4.4-1 .4-.5 0-1-.4-.4-.4-.4-1t.4-1q.4-.4 1-.4zm14.9.2h2.4l-4.8 11h-.7l-4.9-11h2.3l3 6.6 2.7-6.6zm10.7 4.3v4.6q0 .5.4.5t1.2-.6v1.3l-1.2.7q-.4.2-.9.2-1.4 0-1.6-1.1-1.4 1-2.9 1-1.1 0-1.9-.7-.7-.8-.7-1.9 0-1 .7-1.8t2-1.3l2.8-1v-.5q0-2-2-2-1.7 0-3.3 1.9v-2.4q1.2-1.4 3.6-1.4 1.7 0 2.8.9l.6.8q.3.5.3 1l.1 1.8zm-2 4.3v-3.2l-1.5.6q-1.1.4-1.6.9-.4.4-.4 1 0 .7.4 1.1.5.5 1.1.5 1 0 2-.9zM532 59h2v16.5h-2V59zm12 16.5V74q-.6.7-1.5 1.1-.8.5-1.7.5-1 0-1.9-.6-.9-.5-1.3-1.3-.4-1-.4-3v-6.1h2.1v6.1q0 1.7.5 2.4t1.7.7q1.5 0 2.6-1.5v-7.7h2.1v10.8h-2.1zm14.4-5.2h-7.6q.1 1.5 1 2.4 1 1 2.5 1 2.1 0 4-1.4v2.1q-1 .7-2 1-1 .2-2.3.2-1.8 0-2.9-.7-1-.7-1.8-2-.6-1.2-.6-2.9 0-2.4 1.4-4 1.4-1.5 3.6-1.5 2.1 0 3.4 1.5 1.3 1.5 1.3 4v.3zm-7.5-1.3h5.4q0-1.3-.8-2-.7-.7-1.8-.7-1.2 0-1.9.7t-1 2z" fill="#2a86c0"/></g><g font-size="24" font-family="GillSans"><path d="M460.9 91.2v-.6q0-2.6 1-3.9 1.2-1.3 2.7-1.3.7 0 1.6.3v2l-1-.1q-1.2 0-1.7.6-.5.7-.5 2.4v.6h2v2h-2v8.8h-2v-8.8h-1.6v-2h1.6zm6.8-4.5q.6 0 1 .4.3.3.3.9 0 .5-.4.9-.3.3-.9.3-.4 0-.8-.3-.4-.4-.4-1 0-.4.4-.8t.8-.4zm-1 4.5h2.1V102h-2.1V91.2zm14.3 5.6h-7.5q0 1.6 1 2.5 1 .9 2.5.9 2.1 0 3.9-1.3v2q-1 .7-2 1-1 .3-2.2.3-1.8 0-3-.7-1-.8-1.7-2-.6-1.3-.6-3 0-2.4 1.4-4 1.4-1.5 3.6-1.5 2.1 0 3.4 1.5 1.3 1.5 1.3 4v.3zm-7.5-1.3h5.5q-.1-1.2-.8-2-.7-.6-1.8-.6-1.2 0-2 .7-.6.7-.9 2zm9.9-9.8h2.2V102h-2.2V85.7zm12.5 0h2.1V102h-4.5q-2.4 0-3.9-1.5-1.4-1.5-1.4-4 0-2.4 1.5-4 1.5-1.5 3.8-1.5 1.1 0 2.4.5v-5.8zm0 14.5v-6.8q-1-.5-2-.5-1.6 0-2.6 1t-1 2.8q0 1.7.9 2.6.5.5 1 .7.6.2 2 .2h1.7z" fill="#173182"/><path d="M502.6 99.4q.6 0 1 .4.5.4.5 1t-.4 1q-.5.4-1 .4-.6 0-1-.4-.5-.4-.5-1t.4-1q.4-.4 1-.4zm.2-8.4q.6 0 1 .5.5.4.5 1t-.5 1q-.4.4-1 .4-.5 0-1-.4-.4-.4-.4-1t.4-1q.4-.5 1-.5zm14.9.2h2.4l-4.8 11h-.7l-4.9-11h2.3l3 6.7 2.7-6.7zm10.7 4.3v4.6q0 .6.4.6t1.2-.6v1.3q-.7.5-1.2.6-.4.2-.9.2-1.4 0-1.6-1-1.4 1-2.9 1-1.1 0-1.9-.7-.7-.8-.7-2 0-1 .7-1.7.7-.8 2-1.3l2.8-1V95q0-2-2-2-1.7 0-3.3 1.8v-2.3q1.2-1.5 3.6-1.5 1.7 0 2.8 1l.6.7q.3.5.3 1l.1 1.8zm-2 4.4v-3.2l-1.5.5q-1.1.5-1.6 1-.4.4-.4 1 0 .7.4 1.1.5.4 1.1.4 1 0 2-.8zm5.6-14.2h2V102h-2V85.7zm12 16.3v-1.3q-.6.7-1.5 1.1-.8.4-1.7.4-1 0-1.9-.5-.9-.5-1.3-1.4-.4-.9-.4-2.9v-6.2h2.1v6.2q0 1.7.5 2.4.5.6 1.7.6 1.5 0 2.6-1.4v-7.8h2.1V102h-2.1zm14.4-5.2h-7.6q.1 1.6 1 2.5 1 .9 2.5.9 2.1 0 4-1.3v2q-1 .7-2 1-1 .3-2.3.3-1.8 0-2.9-.7-1-.8-1.8-2-.6-1.3-.6-3 0-2.4 1.4-4 1.4-1.5 3.6-1.5 2.1 0 3.4 1.5 1.3 1.5 1.3 4v.3zm-7.5-1.3h5.4q0-1.2-.8-2-.7-.6-1.8-.6t-1.9.7q-.7.7-1 2z" fill="#2a86c0"/></g><g font-size="24" font-family="Inconsolata"><path d="M6 23.6v-2.4q0-1.6-.5-2.2-.6-.5-1.6-.5h-.5V17H4q1 0 1.6-.6.6-.6.6-2v-1.7q0-4.1 4.3-4.1H12V10h-2q-2.2 0-2.2 2.6v1.7q0 2.6-2 3.5 2 .7 2 3.7v2q0 1.7.7 2.3.7.6 2.3.6H12v1.4h-1l-2-.1q-1 0-1.7-.6Q6 26 6 23.6z" fill="#5ca831"/><path d="M27.8 50V39h1.7v2q.7-1 1.6-1.7 1-.6 2-.6.7 0 1.4.3.6.2 1 .8.5.5.7 1.4.3.9.3 2.1V50h-1.7v-6.6q0-1.8-.6-2.5t-1.4-.7q-.6 0-1.1.3-.6.2-1.1.7-.5.4-.8 1-.3.7-.3 1.4V50h-1.7zm12.5-9.7q1.5-1.5 4-1.5 2 0 3.1 1 1.2 1 1.2 3.4V50h-1.7v-1.2q-1.7 1.4-3.9 1.4-.9 0-1.6-.2l-1.1-.7q-.5-.5-.7-1-.3-.6-.3-1.1 0-1.7 1.4-2.6 1.5-1 4.2-1.1h2v-.4q0-1.6-.7-2.3-.6-.6-2-.6-1.9 0-3 1.2l-.9-1.1zm6.7 4.5h-1.6q-1.4 0-2.2.2-.8.2-1.3.5t-.7.7l-.2.8q0 .8.7 1.4.7.5 1.7.5.7 0 1.3-.2l1-.6.7-.6.4-.7q.2-.4.2-1.3v-.7zm4 5.2V39h1.6v1q.4-.5 1-.9t1.3-.4q.7 0 1.2.5.6.4.7 1.1.3-.7 1-1.1.7-.5 1.5-.5 1 0 1.6.8.5.8.5 2V50h-1.6v-9l-.3-.6-.3-.3-.5-.1q-.3 0-.6.3-.3.2-.5.6-.3.4-.4.9l-.2 1V50h-1.6v-7.7q0-1.3-.2-1.8-.3-.5-1-.5-.5 0-1 .7-.6.7-.6 2V50H51zm17.4-11.3q.8 0 1.6.3.8.4 1.4 1 .7.6 1 1.6.4 1 .4 2.3v.8H65q0 1.2.4 2 .3.7.8 1.2.6.5 1.2.7l1.3.2q1.7 0 2.8-1.2l1 1q-1.4 1.6-3.8 1.6-1.2 0-2.2-.4-1-.3-1.7-1-.7-.8-1.1-1.8-.4-1.1-.4-2.5t.4-2.5q.4-1 1-1.8.8-.7 1.7-1 .9-.5 2-.5zM65 43.4h6V43q0-.6-.2-1.1-.2-.6-.6-1-.3-.4-.9-.6-.5-.3-1-.3-1.2 0-2.1.9-1 .8-1.2 2.5z" fill="#173182"/><path d="M80.9 40.2q.4.4.4 1t-.4 1q-.5.4-1 .4-.6 0-1-.4-.5-.4-.5-1t.5-1q.4-.4 1-.4.5 0 1 .4zm0 7.7q.4.4.4 1 0 .5-.4 1-.5.3-1 .3-.7 0-1-.4-.5-.4-.5-1 0-.5.5-1 .4-.3 1-.3.5 0 1 .4zm24.8-11.1l-.1-1.5q0-.7.3-1 .3-.3.7-.3.4 0 .7.3.4.4.4 1.2 0 .7-.9 3l-.5 1.6-1.3-.3.5-1.7.2-1.3zm-4.1 0l-.2-1.5q0-.7.3-1 .3-.3.7-.3.4 0 .8.3.3.4.3 1.2 0 .8-.8 3l-.6 1.6-1.3-.3.5-1.7.2-.6v-.7zm18.9 3.7l-1 1.5-.1-.2v-.3l-1.3-1q-.8-.5-1.8-.5-.5 0-.9.2-.4 0-.7.3-.3.1-.5.5-.2.2-.2.6l.1.6.5.4.8.4 1.5.5q2 .6 3 1.3.8.8.8 1.9 0 .7-.3 1.3-.3.7-1 1.2-.5.4-1.4.7-.8.3-1.9.3-2.7 0-4.6-1.7l1-1.8v.3l.3.3q0 .3.5.5l1.2.6.8.3h1.9l.8-.4.7-.5.2-.8q0-.6-.6-1-.5-.5-2-1l-1.5-.4-1.2-.5-.7-.6-.5-.8-.2-1q0-.6.3-1.1.3-.6.9-1 .6-.4 1.3-.6.8-.3 1.7-.3 2.5 0 4.1 1.8zm3.1-1.5h1.8v6q0 1 .2 1.8.2.7.5 1.1l.8.6q.4.2 1 .2.5 0 1-.3.6-.2 1-.6l.7-1.2q.2-.7.2-1.7v-6h1.8v11H131v-1.6q-.6.9-1.5 1.4-.9.5-2 .5-.8 0-1.5-.3-.6-.3-1.2-.9-.5-.6-.8-1.6-.3-1-.3-2.3V39zm16.8-.3q.8 0 1.6.3.8.4 1.4 1 .7.6 1 1.6.4 1 .4 2.3v.8H137q0 1.2.4 2 .3.7.8 1.2.6.5 1.2.7l1.3.2q1.7 0 2.8-1.2l1 1q-1.4 1.6-3.8 1.6-1.2 0-2.2-.4-1-.3-1.7-1-.7-.8-1.1-1.8-.4-1.1-.4-2.5t.4-2.5q.4-1 1-1.8.8-.7 1.7-1 .9-.5 2-.5zm-3.4 4.7h6V43q0-.6-.2-1.1-.2-.6-.6-1-.3-.4-.9-.6-.5-.3-1-.3-1.2 0-2.1.9-1 .8-1.2 2.5zm16.7-6.6l-.1-1.5q0-.7.3-1 .3-.3.7-.3.4 0 .7.3.4.4.4 1.2 0 .7-.9 3l-.5 1.6-1.3-.3.5-1.7.2-1.3zm-4.1 0l-.2-1.5q0-.7.3-1 .3-.3.7-.3.4 0 .8.3.3.4.3 1.2 0 .8-.8 3l-.6 1.6-1.3-.3.5-1.7.2-.6v-.7zm15.9 12.7q0 1.9-2.6 4.5l-.8-.7q.7-.7 1.1-1.4.5-.7.5-1.1 0-.3-.2-.5l-.5-.4-.4-.4-.2-.6q0-.6.4-1t1-.4q.7 0 1.2.5.5.6.5 1.5z" fill="#2a86c0"/><path d="M28.3 66.3q1.5-1.5 4-1.5 2 0 3.1 1 1.2 1 1.2 3.4V76h-1.7v-1.2q-1.7 1.4-3.9 1.4-.9 0-1.6-.2l-1.1-.7q-.5-.5-.7-1-.3-.6-.3-1.1 0-1.7 1.4-2.6 1.5-1 4.2-1.1h2v-.4q0-1.6-.7-2.3-.6-.6-2-.6-1.9 0-3 1.2l-.9-1.1zm6.7 4.5h-1.6q-1.4 0-2.2.2-.8.2-1.3.5t-.7.7l-.2.8q0 .8.7 1.3.7.6 1.7.6.7 0 1.3-.2l1-.6.7-.6.4-.7q.2-.4.2-1.3v-.7zm6.9-4.1l-.6.8-.1 1 .2.9q.1.4.5.7l.7.5 1 .2q.5 0 .9-.2l.8-.5.5-.8q.2-.4.2-.9t-.2-.9l-.5-.8-.8-.5-1-.2q-1 0-1.6.7zm4.4-1q1.1-1 2.7-1h.3l.2 1.4H49q-1 0-2 .5.6.8.6 1.8 0 .8-.3 1.5t-.8 1.2q-.6.5-1.3.8-.7.3-1.5.3l-1.4-.2q-.8.7-.8 1.2 0 .4.5.6.5.3 1.3.3h.9l.9-.1q1 0 1.8.2t1.3.6q.5.3.7.8.3.5.3 1.1 0 .7-.4 1.3-.3.6-.9 1-.6.5-1.6.8-1 .3-2.2.3-1.3 0-2.3-.2-.9-.2-1.5-.6-.6-.3-.9-.8-.3-.5-.3-1 0-1.3 1.8-2.4-.8-.5-.8-1.5t1.2-2.1q-.8-.5-1.2-1.3-.4-.8-.4-1.7 0-.8.3-1.5t.9-1.2q.6-.6 1.3-.9.7-.3 1.5-.3 1.6 0 2.7 1zM42 75.4q-1.4.7-1.4 1.7 0 .4.3.8l.7.5 1.1.3h1.4q1.5 0 2.4-.4 1-.6 1-1.5 0-.6-.6-1-.5-.3-1.5-.3h-2.2l-1.3-.1zm14.4-10.7q.8 0 1.6.3t1.4 1q.7.6 1 1.6.4 1 .4 2.3v.8H53q0 1.2.4 2 .3.7.8 1.2.6.5 1.2.7l1.3.2q1.7 0 2.8-1.2l1 1q-1.4 1.6-3.8 1.6-1.2 0-2.2-.4-1-.3-1.7-1-.7-.8-1.1-1.8-.4-1.1-.4-2.5t.4-2.5q.4-1 1-1.8.8-.7 1.7-1 .9-.5 2-.5zM53 69.4h6V69q0-.6-.2-1.1-.2-.6-.6-1-.3-.4-.9-.6-.5-.3-1-.3-1.2 0-2.1.9-1 .8-1.2 2.5z" fill="#173182"/><path d="M68.9 66.2q.4.4.4 1 0 .5-.4 1-.5.4-1 .4-.6 0-1-.4-.5-.5-.5-1 0-.6.5-1 .4-.4 1-.4.5 0 1 .4zm0 7.7q.4.4.4 1 0 .5-.4 1-.5.3-1 .3-.7 0-1-.4-.5-.4-.5-1 0-.5.5-1 .4-.3 1-.3.5 0 1 .4zM88 63.3q.7-1.1 1.8-1.7 1-.7 2.4-.7.9 0 1.7.3.8.4 1.4 1 .6.5.9 1.3.3.7.3 1.6 0 .7-.2 1.3l-.5 1.2-.8 1.1-1 1-1.4 1.3-.7.7-.7.8-.7 1-.7 1h6.3l.2-.1.3-.1V76H88v-1.1q.9-1.8 2-3l1.9-2.2 1.2-1 1-1 .5-1 .3-.8v-.8l-.1-1-.7-.9q-.4-.4-.9-.6-.4-.2-1-.2t-1 .2q-.6.1-1 .4l-.5.5-.3.5v.3l-1.3-1zm17-2.5q1.9 0 3.3 1.4l-1.2 1.3-.3-.4q0-.3-.3-.4l-.7-.3h-.7l-1.2.2q-.6.2-1.1.8-.6.6-1 1.8-.4 1.1-.4 3 .5-1 1.3-1.4 1-.5 1.9-.5.8 0 1.6.4.7.3 1.2 1 .6.6 1 1.5.3.9.3 2t-.4 2q-.3 1-.9 1.6-.6.7-1.3 1-.8.4-1.7.4-1.1 0-2-.5-.9-.5-1.5-1.4-.5-1-.8-2.2-.4-1.3-.4-3 0-2 .4-3.5.4-1.6 1-2.6.8-1 1.7-1.6 1-.6 2.2-.6zm-3.5 9v.6q0 .9.2 1.7.2.8.6 1.4.4.5 1 .9.5.3 1.2.3 1 0 1.8-.9.7-.9.7-2.6 0-.9-.2-1.5-.2-.7-.6-1-.4-.5-.9-.7-.4-.2-.9-.2-.8 0-1.6.6-.8.5-1.3 1.4zm16 5.7q0 1.9-2.6 4.5l-.8-.7q.7-.7 1.1-1.4.5-.7.5-1.2l-.2-.4-.5-.4-.4-.4-.2-.6q0-.6.4-1t1-.4q.7 0 1.2.5.5.6.5 1.5z" fill="#2a86c0"/><path d="M36.5 92.5l-1 1.5-.1-.2v-.3l-1.3-1q-.8-.5-1.8-.5-.5 0-.9.2-.4 0-.7.3-.3.1-.5.5-.2.2-.2.6l.1.6.5.4.8.4 1.5.5q2 .6 3 1.3.8.8.8 1.9 0 .7-.3 1.3-.3.7-1 1.2-.5.4-1.4.7-.8.3-1.9.3-2.7 0-4.6-1.7l1-1.8v.3l.3.3q0 .3.5.5l1.2.6.8.3h1.9l.8-.4.7-.5.2-.8q0-.6-.6-1-.5-.5-2-1l-1.5-.4-1.2-.5-.7-.6-.5-.8-.2-1q0-.6.3-1.1.3-.6.9-1 .6-.4 1.3-.6.8-.3 1.7-.3 2.5 0 4.1 1.8zm6.1-4.5l2-.3-.1.4-.1.3-.3 2.6h3.6v1.4h-3.6l-.2 4v2q0 .7.3 1.2.2.5.6.7.4.3 1 .3 1.1 0 2.5-1l.5 1.4q-1.7 1.2-3.4 1.2t-2.5-1q-.8-1.1-.8-3.5v-2.2l.3-3h-2.6V91h2.7l.1-3zm9.7 4.3q1.5-1.6 4-1.6 2 0 3.1 1 1.2 1 1.2 3.5v6.8h-1.7v-1.2q-1.7 1.4-3.9 1.4-.9 0-1.6-.2l-1.1-.7q-.5-.5-.7-1-.3-.6-.3-1.1 0-1.7 1.4-2.6 1.5-1 4.2-1.1h2v-.4q0-1.6-.7-2.3-.6-.6-2-.6-1.9 0-3 1.2l-.9-1.1zm6.7 4.5h-1.6q-1.4 0-2.2.2-.8.2-1.3.5t-.7.7l-.2.8q0 .8.7 1.4.7.5 1.7.5.7 0 1.3-.2l1-.6.7-.6.4-.7q.2-.4.2-1.3v-.7zm7.6-8.8l2-.3-.1.4-.1.3-.3 2.6h3.6v1.4h-3.6l-.2 4v2q0 .7.3 1.2.2.5.6.7.4.3 1 .3 1.1 0 2.5-1l.5 1.4q-1.7 1.2-3.4 1.2t-2.5-1q-.8-1.1-.8-3.5v-2.2l.3-3h-2.6V91h2.7l.1-3zm9 3h1.8v6q0 1 .2 1.8.2.7.5 1.1l.8.6q.4.2 1 .2.5 0 1-.3.6-.2 1-.6l.7-1.2q.2-.7.2-1.7v-6h1.8v11H83v-1.6q-.6.9-1.5 1.4-.9.5-2 .5-.8 0-1.5-.3-.6-.3-1.2-.9-.5-.6-.8-1.6-.3-1-.3-2.3V91zm20.9 1.5l-1 1.5-.1-.2v-.3l-1.3-1q-.8-.5-1.8-.5-.5 0-.9.2-.4 0-.7.3-.3.1-.5.5-.2.2-.2.6l.1.6.5.4.8.4 1.5.5q2 .6 3 1.3.8.8.8 1.9 0 .7-.3 1.3-.3.7-1 1.2-.5.4-1.4.7-.8.3-1.9.3-2.7 0-4.6-1.7l1-1.8v.3l.2.3q.2.3.6.5l1.2.6.8.3h1.9l.8-.4.7-.5.2-.8q0-.6-.6-1-.5-.5-2-1l-1.5-.4-1.2-.5-.7-.6-.5-.8-.2-1q0-.6.3-1.1.3-.6.9-1 .5-.4 1.3-.6.8-.3 1.7-.3 2.5 0 4.1 1.8z" fill="#173182"/><path d="M104.9 92.2q.4.4.4 1t-.4 1q-.5.4-1 .4-.6 0-1-.4-.5-.5-.5-1 0-.6.5-1 .4-.4 1-.4.5 0 1 .4zm0 7.7q.4.4.4 1 0 .5-.4 1-.5.3-1 .3-.7 0-1-.4-.5-.4-.5-1 0-.5.5-1 .4-.3 1-.3.5 0 1 .4zm24.8-11.1l-.1-1.5q0-.7.3-1 .3-.3.7-.3.4 0 .7.3.4.4.4 1.2 0 .7-.9 3l-.5 1.6-1.3-.3.5-1.7.2-1.3zm-4.1 0l-.2-1.5q0-.7.3-1 .3-.3.7-.3.4 0 .8.3.3.4.3 1.2 0 .8-.8 3l-.6 1.6-1.3-.3.5-1.7.2-.6v-.7zm8.9 13.2l5.3-15.3h.2l5.7 15.3H144l-1.7-4.4h-4.7l-1.4 4.4h-1.7zm7.5-5.7l-2.2-5.7-1.9 5.7h4zm11.7-7.5l-.1-1.5q0-.7.3-1 .3-.3.7-.3.4 0 .7.3.4.4.4 1.2 0 .7-.9 3l-.5 1.6-1.3-.3.5-1.7.2-1.3zm-4.1 0l-.2-1.5q0-.7.3-1 .3-.3.7-.3.4 0 .8.3.3.4.3 1.2 0 .8-.8 3l-.6 1.6-1.3-.3.5-1.7.2-.6v-.7zm15.9 12.7q0 1.9-2.6 4.5l-.8-.7q.7-.7 1.1-1.4.5-.7.5-1.1 0-.3-.2-.5l-.5-.4-.4-.4-.2-.6q0-.6.4-1t1-.4q.7 0 1.2.5.5.6.5 1.5z" fill="#2a86c0"/><path d="M29.9 118.7l-.6.8-.1 1 .2.9q.1.4.5.7l.7.5 1 .2q.5 0 .9-.2l.8-.5.5-.8q.2-.4.2-.9t-.2-.9l-.5-.8-.8-.5-1-.2q-1 0-1.6.7zm4.4-1q1.1-1 2.7-1h.3l.2 1.4H37q-1 0-2 .5.6.8.6 1.8 0 .8-.3 1.5t-.8 1.2q-.6.5-1.3.8-.7.3-1.5.3l-1.4-.2q-.8.7-.8 1.2 0 .4.5.6.5.3 1.3.3h.9l.9-.1q1 0 1.8.2t1.3.6q.5.3.7.8.3.6.3 1.1 0 .7-.4 1.3-.3.6-.9 1-.6.5-1.6.8-1 .3-2.2.3-1.3 0-2.3-.2-.9-.2-1.5-.6-.6-.3-.9-.8-.3-.5-.3-1 0-1.3 1.8-2.4-.8-.5-.8-1.5t1.2-2.1q-.8-.5-1.2-1.3-.4-.8-.4-1.7 0-.8.3-1.5t.9-1.2q.6-.6 1.3-.9.7-.3 1.5-.3 1.6 0 2.7 1zm-4.3 9.7q-1.4.7-1.4 1.7 0 .4.3.8l.7.5 1.1.3h1.4q1.5 0 2.4-.4 1-.6 1-1.5 0-.6-.6-1-.5-.3-1.5-.3h-2.2l-1.3-.1zM40.5 117h1.8v2.1q.5-1.1 1.5-1.7 1.2-.7 2.4-.7 1.8 0 3 1.2l-.9 1.7-.4-.6-.5-.4-.6-.3h-.7q-.8 0-1.5.3-.7.4-1.2 1t-.8 1.4q-.3.8-.3 1.6v5.4h-1.8v-11zm15.7-.2q1 0 2 .4.8.3 1.5 1 .7.8 1 2 .5 1 .5 2.3 0 1.3-.4 2.4-.4 1-1 1.8-.7.8-1.6 1.2-1 .3-2 .3t-2-.4q-.9-.4-1.6-1.2-.7-.7-1.1-1.8-.4-1-.4-2.3 0-1.2.4-2.3.4-1 1.1-1.8.8-.8 1.7-1.2 1-.4 2-.4zm3.2 5.7q0-1-.2-1.8-.3-.8-.8-1.4-.4-.5-1-.8-.6-.3-1.2-.3-.7 0-1.3.3-.6.3-1 .8-.5.6-.7 1.4-.3.8-.3 1.7 0 1 .3 1.8.2.8.7 1.4.4.5 1 .8.6.4 1.3.4.7 0 1.3-.3.6-.3 1-.8l.7-1.4q.2-.8.2-1.8zm4.2-5.5h1.8v6.1q0 1 .2 1.8.2.7.5 1.1l.8.6q.4.2 1 .2.5 0 1-.3.6-.2 1-.6l.7-1.2q.2-.7.2-1.7v-6h1.8v11H71v-1.7q-.6.9-1.5 1.4-.9.5-2 .5-.8 0-1.5-.3-.6-.3-1.2-.9-.5-.6-.8-1.6-.3-1-.3-2.3V117zm12 0h1.7v1.7q.6-1 1.5-1.4 1-.5 1.9-.5.9 0 1.7.3.8.3 1.5 1 .6.7 1 1.8.3 1 .3 2.5 0 1.4-.4 2.5-.3 1.1-1 1.9-.6.7-1.5 1-.8.4-1.7.4-1 0-1.8-.4-.9-.5-1.5-1.3v5.5h-1.7v-15zm1.7 6.4q0 1.8.8 2.5.8.8 2 .8l1.1-.2q.6-.2 1.1-.6.5-.5.8-1.3.3-.7.3-1.9 0-2.1-.8-3.3-1-1.1-2.5-1.2l-1 .2q-.5.2-.9.6-.4.4-.6 1-.3.7-.3 1.7v1.7zm19.2-4.9l-1 1.5-.1-.2v-.3l-1.3-1q-.8-.5-1.8-.5-.5 0-.9.2-.4 0-.7.3-.3.1-.5.5-.2.2-.2.6l.1.6.5.4.8.4 1.5.5q2 .6 3 1.3.8.8.8 1.9 0 .7-.3 1.3-.3.7-1 1.2-.5.4-1.4.7-.8.3-1.9.3-2.7 0-4.6-1.7l1-1.8v.3l.2.3q.2.3.6.5l1.2.6.8.3h1.9l.8-.4.7-.5.2-.8q0-.6-.6-1-.5-.5-2-1l-1.5-.4-1.2-.5-.7-.6-.5-.8-.2-1q0-.6.3-1.1.3-.6.9-1 .5-.4 1.3-.6.8-.3 1.7-.3 2.5 0 4.1 1.8z" fill="#173182"/><path d="M104.9 118.2q.4.4.4 1 0 .5-.4 1-.5.4-1 .4-.6 0-1-.4-.5-.5-.5-1 0-.6.5-1 .4-.4 1-.4.5 0 1 .4zm0 7.7q.4.4.4 1 0 .5-.4 1-.5.3-1 .3-.7 0-1-.4-.5-.4-.5-1 0-.5.5-1 .4-.3 1-.3.5 0 1 .4zm20.4-14h6.8v1.4h-5.3v15.4h5.4v1.4h-7v-18.2zm28.4 2.9l-.1-1.5q0-.7.3-1 .3-.3.7-.3.4 0 .7.3.4.4.4 1.2 0 .7-.9 3l-.5 1.6-1.3-.3.5-1.7.2-1.3zm-4.1 0l-.2-1.5q0-.7.3-1 .3-.3.7-.3.4 0 .8.3.3.4.3 1.2 0 .8-.8 3l-.6 1.6-1.3-.3.5-1.7.2-.6v-.7zm10.2 13.2v-11h1.7v2q.7-1 1.6-1.7 1-.6 2-.6.7 0 1.4.3.6.2 1 .8.5.5.7 1.4.3.9.3 2.1v6.7h-1.7v-6.6q0-1.8-.6-2.5t-1.4-.7q-.6 0-1.1.3-.6.2-1.1.7-.5.4-.8 1-.3.7-.3 1.4v6.4h-1.7zm16.6-11.3q.8 0 1.6.3t1.4 1q.7.6 1 1.6.4 1 .4 2.3v.8H173q0 1.2.4 2 .3.7.8 1.2.6.5 1.2.7l1.3.2q1.7 0 2.8-1.2l1 1q-1.4 1.6-3.8 1.6-1.2 0-2.2-.4-1-.3-1.7-1-.7-.8-1.1-1.8-.4-1.1-.4-2.5t.4-2.5q.4-1 1-1.8.8-.7 1.7-1 .9-.5 2-.5zm-3.4 4.7h6v-.4q0-.6-.2-1.1-.2-.6-.6-1-.3-.4-.9-.6-.5-.3-1-.3-1.2 0-2.1.9-1 .8-1.2 2.5zm9.5-4.4h1.8v.4l-.1.4v.1l1.6 7.9 1.9-7.8h1l2.4 7.8.5-3.5.3-2.3.1-1.4V117h1.7l-.8 5.5-1 5.5h-1.7l-2-7.1-2 7h-1.5l-2.2-11zm22 1.5l-1 1.5-.1-.2v-.3l-1.3-1q-.8-.5-1.8-.5-.5 0-.9.2-.4 0-.7.3-.3.1-.5.5-.2.2-.2.6l.1.6.5.4.8.4 1.5.5q2 .6 3 1.3.8.8.8 1.9 0 .7-.3 1.3-.3.7-1 1.2-.5.4-1.4.7-.8.3-1.9.3-2.7 0-4.6-1.7l1-1.8v.3l.3.3q0 .3.5.5l1.2.6.8.3h1.9l.8-.4.7-.5.2-.8q0-.6-.6-1-.5-.5-2-1l-1.5-.4-1.2-.5-.7-.6-.5-.8-.2-1q0-.6.3-1.1.3-.6.9-1 .6-.4 1.3-.6.8-.3 1.7-.3 2.5 0 4.1 1.8zm9.2-3.7l-.1-1.5q0-.7.3-1 .3-.3.7-.3.4 0 .7.3.4.4.4 1.2 0 .7-.9 3l-.5 1.6-1.3-.3.5-1.7.2-1.3zm-4.1 0l-.2-1.5q0-.7.3-1 .3-.3.7-.3.4 0 .8.3.3.4.3 1.2 0 .8-.8 3l-.6 1.6-1.3-.3.5-1.7.2-.6v-.7zm15.9 12.7q0 1.9-2.6 4.5l-.8-.7q.7-.7 1.1-1.4.5-.7.5-1.1 0-.3-.2-.5l-.5-.4-.4-.4-.2-.6q0-.6.4-1t1-.4q.7 0 1.2.5.5.6.5 1.5zm24.2-12.7l-.1-1.5q0-.7.3-1 .3-.3.7-.3.4 0 .7.3.4.4.4 1.2 0 .7-.9 3l-.5 1.6-1.3-.3.5-1.7.2-1.3zm-4.1 0l-.2-1.5q0-.7.3-1 .3-.3.7-.3.4 0 .8.3.3.4.3 1.2 0 .8-.8 3l-.6 1.6-1.3-.3.5-1.7.2-.6v-.7zm18.9 3.7l-1 1.5-.1-.2v-.3l-1.3-1q-.8-.5-1.8-.5-.5 0-.9.2-.4 0-.7.3-.3.1-.5.5-.2.2-.2.6l.1.6.5.4.8.4 1.5.5q2 .6 3 1.3.8.8.8 1.9 0 .7-.3 1.3-.3.7-1 1.2-.5.4-1.4.7-.8.3-1.9.3-2.7 0-4.6-1.7l1-1.8v.3l.3.3q0 .3.5.5l1.2.6.8.3h1.9l.8-.4.7-.5.2-.8q0-.6-.6-1-.5-.5-2-1l-1.5-.4-1.2-.5-.7-.6-.5-.8-.2-1q0-.6.3-1.1.3-.6.9-1 .6-.4 1.3-.6.8-.3 1.7-.3 2.5 0 4.1 1.8zm3.1-1.5h1.7v1.7q.6-1 1.5-1.4 1-.5 1.9-.5.9 0 1.7.3.8.3 1.5 1 .6.7 1 1.8.3 1 .3 2.5 0 1.4-.4 2.5-.3 1.1-1 1.9-.6.7-1.5 1-.8.4-1.7.4-1 0-1.8-.4-.9-.5-1.4-1.3v5.5h-1.8v-15zm1.7 6.4q0 1.8.8 2.5.8.8 2 .8l1.1-.2q.6-.2 1.1-.6.5-.5.8-1.3.3-.7.3-1.9 0-2.1-.8-3.3-1-1.1-2.5-1.2l-1 .2q-.5.2-.9.6-.4.4-.6 1-.3.7-.3 1.7v1.7zm14.9-6.6q1 0 2 .4.8.3 1.5 1 .7.8 1 2 .5 1 .5 2.3 0 1.3-.4 2.4-.4 1-1 1.8-.7.8-1.6 1.2-1 .3-2 .3t-2-.4q-.9-.4-1.6-1.2-.7-.7-1.1-1.8-.4-1-.4-2.3 0-1.2.4-2.3.4-1 1.1-1.8.8-.8 1.7-1.2 1-.4 2-.4zm3.2 5.7q0-1-.2-1.8-.3-.8-.8-1.4-.4-.5-1-.8-.6-.3-1.2-.3-.7 0-1.3.3-.6.3-1 .8-.5.6-.7 1.4-.3.8-.3 1.7 0 1 .3 1.8.2.8.7 1.4.4.5 1 .8.6.4 1.3.4.7 0 1.3-.3.6-.3 1-.8l.7-1.4q.2-.8.2-1.8zm5.1-5.5h1.8v2.1q.5-1.1 1.5-1.7 1.1-.7 2.4-.7 1.8 0 3 1.2l-.9 1.7-.4-.6-.5-.4-.6-.3h-.7q-.8 0-1.5.3-.7.4-1.2 1t-.8 1.4q-.3.8-.3 1.6v5.4h-1.8v-11zm14.1-3l2-.2-.1.3-.1.3-.3 2.6h3.6v1.4h-3.6l-.2 4v2q0 .7.3 1.2.2.5.6.7.4.3 1 .3 1.1 0 2.5-1l.5 1.4q-1.7 1.2-3.4 1.2t-2.5-1q-.8-1.1-.8-3.5v-2.2l.3-3h-2.6V117h2.7l.1-3zm17.9 4.5l-1 1.5-.1-.2v-.3l-1.3-1q-.8-.5-1.8-.5-.5 0-.9.2-.4 0-.7.3-.3.1-.5.5-.2.2-.2.6l.1.6.5.4.8.4 1.5.5q2 .6 3 1.3.8.8.8 1.9 0 .7-.3 1.3-.3.7-1 1.2-.5.4-1.4.7-.8.3-1.9.3-2.7 0-4.6-1.7l1-1.8v.3l.2.3q.2.3.6.5l1.2.6.8.3h1.9l.8-.4.7-.5.2-.8q0-.6-.6-1-.5-.5-2-1l-1.5-.4-1.2-.5-.7-.6-.5-.8-.2-1q0-.6.3-1.1.3-.6.9-1 .5-.4 1.3-.6.8-.3 1.7-.3 2.5 0 4.1 1.8zm9.2-3.7l-.1-1.5q0-.7.3-1 .3-.3.7-.3.4 0 .7.3.4.4.4 1.2 0 .7-.9 3l-.5 1.6-1.3-.3.5-1.7.2-1.3zm-4.1 0l-.2-1.5q0-.7.3-1 .3-.3.7-.3.4 0 .8.3.3.4.3 1.2 0 .8-.8 3l-.6 1.6-1.3-.3.5-1.7.2-.6v-.7zm29.4-2.9V130h-7v-1.4h5.4v-15.4h-5.3V112h6.8z" fill="#2a86c0"/><path d="M10.2 142.8v1.8q0 1.3.6 2 .5.5 1.6.5h.5v1.4h-.5q-1 0-1.6.5-.6.6-.6 2.2l.1 2.4q0 2.1-1 3.1-.9 1-3 1h-2v-1.3h2.9l.3-.2.3-.2q1-.7 1-2.5l-.1-2q0-3 2-3.7-2.1-.9-2.1-3.5v-1.7q0-1.4-.5-2-.6-.6-1.9-.6H4.3v-1.3h2.5q1 0 1.7.5.8.5 1.2 1.3.5.9.5 2.3z" fill="#5ca831"/></g><path d="M602.9 354.4v.4" stroke="#5ca831" stroke-width="2" fill="none"/><g stroke="#2d1b11" stroke-width="2"><path d="M445.1 124.3l-42.9-.2" fill="none"/><path d="M402.2 120.5l-9.6 3.6 9.6 3.6z" fill="#2d1b11"/></g><g font-size="24" font-family="GillSans"><path d="M460.9 120.4v-.7q0-2.6 1-3.8 1.2-1.3 2.7-1.3l1.6.2v2l-1-.1q-1.2 0-1.7.7-.5.6-.5 2.3v.7h2v2h-2v8.8h-2v-8.9h-1.6v-2h1.6zm6.8-4.5q.6 0 1 .3.3.4.3 1 0 .4-.4.8-.3.4-.9.4-.5 0-.8-.4-.4-.4-.4-.9t.4-.9q.3-.3.8-.3zm-1 4.5h2.1v10.8h-2.1v-10.8zM481 126h-7.5q0 1.5 1 2.4 1 1 2.5 1 2.1 0 3.9-1.4v2.1q-1 .7-2 1-1 .2-2.2.2-1.8 0-3-.7-1-.7-1.7-2-.6-1.2-.6-2.9 0-2.4 1.4-4 1.4-1.5 3.6-1.5 2.1 0 3.4 1.5 1.3 1.5 1.3 4v.3zm-7.5-1.3h5.5q-.1-1.3-.8-2-.7-.7-1.8-.7-1.2 0-2 .7-.6.7-.9 2zm9.9-9.9h2.2v16.4h-2.2v-16.4zm12.5 0h2.1v16.4h-4.5q-2.4 0-3.9-1.5-1.4-1.6-1.4-4.1 0-2.4 1.5-4 1.5-1.4 3.8-1.4 1.1 0 2.4.4v-5.8zm0 14.5v-6.8q-1-.5-2-.5-1.6 0-2.6 1t-1 2.9q0 1.6.9 2.5.5.6 1 .8l2 .1h1.7z" fill="#173182"/><path d="M502.6 128.5q.6 0 1 .4.5.5.5 1 0 .6-.4 1-.5.5-1 .5-.6 0-1-.5-.5-.4-.5-1 0-.5.4-1 .4-.4 1-.4zm.2-8.3q.6 0 1 .4.5.4.5 1t-.5 1q-.4.4-1 .4-.5 0-1-.4-.4-.4-.4-1t.4-1q.4-.4 1-.4zm14.9.2h2.4l-4.8 11h-.7l-4.9-11h2.3l3 6.6 2.7-6.6zm10.7 4.3v4.6q0 .5.4.5t1.2-.6v1.3l-1.2.7q-.4.2-.9.2-1.4 0-1.6-1.1-1.4 1-2.9 1-1.1 0-1.9-.7-.7-.8-.7-1.9 0-1 .7-1.8t2-1.3l2.8-1v-.5q0-2-2-2-1.7 0-3.3 1.9v-2.4q1.2-1.4 3.6-1.4 1.7 0 2.8.9l.6.8q.3.5.3 1l.1 1.8zm-2 4.3v-3.2l-1.5.6q-1.1.4-1.6.9-.4.4-.4 1 0 .7.4 1.1.5.5 1.1.5 1 0 2-.9zm5.6-14.2h2v16.4h-2v-16.4zm12 16.4v-1.4q-.6.7-1.5 1.1-.8.5-1.7.5-1 0-1.9-.5-.9-.6-1.3-1.4-.4-1-.4-3v-6.1h2.1v6.1q0 1.7.5 2.4t1.7.7q1.5 0 2.6-1.5v-7.7h2.1v10.8h-2.1zm14.4-5.2h-7.6q.1 1.5 1 2.4 1 1 2.5 1 2.1 0 4-1.4v2.1q-1 .7-2 1-1 .2-2.3.2-1.8 0-2.9-.7-1-.7-1.8-2-.6-1.2-.6-2.9 0-2.4 1.4-4 1.4-1.5 3.6-1.5 2.1 0 3.4 1.5 1.3 1.5 1.3 4v.3zm-7.5-1.3h5.4q0-1.3-.8-2-.7-.7-1.8-.7-1.2 0-1.9.7t-1 2z" fill="#2a86c0"/></g></svg>