<svg xmlns="http://www.w3.org/2000/svg" viewBox="0, 0, 620, 120" height="120" width="620"><path d="M494.8 23.9l-43-.2" stroke="#5ca831" stroke-width="2" fill="none"/><path d="M451.8 20l-9.6 3.6 9.6 3.7z" fill="#5ca831"/><path d="M451.8 20l-9.6 3.6 9.6 3.7z" stroke="#5ca831" stroke-width="2" fill="none"/><path d="M508.7 20l4-4v2.2h3.5v2h-3.5v5.2q0 1.9 1.6 1.9 1.1 0 2.4-.8v2q-1.2.7-2.7.7-1.4 0-2.4-.9l-.5-.5-.4-.9v-6.8h-2V20zm16.3 2.5v4.6q0 .6.4.6t1.2-.6v1.3l-1.2.6q-.4.2-.9.2-1.3 0-1.6-1-1.3 1-2.9 1-1.1 0-1.9-.8-.7-.7-.7-1.8 0-1 .7-1.9.8-.8 2.1-1.2l2.7-1V22q0-1.9-2-1.9-1.7 0-3.3 1.8v-2.3q1.2-1.5 3.6-1.5 1.7 0 2.8 1l.6.7.4 1v1.8zm-2 4.4v-3.2l-1.5.5-1.5.9q-.5.4-.5 1 0 .8.4 1.2.5.4 1.2.4 1 0 1.8-.8zm5.4-14.3h2.2V19q1.3-1 3-1 2 0 3.3 1.5 1.3 1.6 1.3 4 0 2.6-1.6 4.2-1.5 1.5-4.1 1.5l-2.2-.2-1.9-.6V12.6zm2.2 8.4v6q1 .3 2.2.3 1.4 0 2.3-1 1-1 1-2.6t-1-2.6q-.8-1-2.1-1-1.2 0-2.4 1zm10-8.4h2.1V29h-2.1V12.6zM555 23.8h-7.6q.1 1.5 1 2.5 1 .9 2.5.9 2.1 0 4-1.3v2q-1 .7-2 1-1 .3-2.3.3-1.8 0-2.9-.8-1-.7-1.7-2-.7-1.2-.7-2.8 0-2.5 1.4-4 1.4-1.6 3.6-1.6t3.4 1.5q1.3 1.5 1.3 4v.3zm-7.5-1.3h5.4q0-1.3-.8-2-.6-.6-1.8-.6-1.1 0-1.9.7-.7.6-1 2z" font-size="24" font-family="GillSans" fill="#2a86c0"/><path d="M494.8 47.7l-43-.2" stroke="#5ca831" stroke-width="2" fill="none"/><path d="M451.8 44l-9.6 3.5 9.6 3.6z" fill="#5ca831"/><path d="M451.8 44l-9.6 3.5 9.6 3.6z" stroke="#5ca831" stroke-width="2" fill="none"/><path d="M518.3 52v2.2q-1.6.6-3.1.6-2.5 0-4-1.5-1.6-1.5-1.6-4 0-2.6 1.5-4.1 1.5-1.6 3.9-1.6.8 0 1.5.2.6.1 1.6.6v2.2q-1.6-1-3-1t-2.4 1q-.9 1-.9 2.6 0 1.7 1 2.6 1 1 2.7 1 1.2 0 2.8-.7zm7.6-8.2q2.5 0 4 1.6 1.7 1.6 1.7 4 0 2.3-1.6 3.9-1.7 1.5-4.2 1.5-2.4 0-4-1.6-1.7-1.5-1.7-3.9 0-2.3 1.7-4 1.6-1.5 4.1-1.5zm-.1 2q-1.6 0-2.5 1-1 1-1 2.5t1 2.5q1 1 2.6 1 1.5 0 2.5-1t1-2.5q0-1.6-1-2.6t-2.6-1zm8.2-7.6h2.1v16.4h-2V38.2zm12.1 16.4v-1.4q-.7.8-1.5 1.2-.9.4-1.8.4-1 0-1.9-.5-.8-.5-1.3-1.4-.4-.9-.4-2.9v-6.2h2.1V50q0 1.7.5 2.4.5.6 1.7.6 1.6 0 2.6-1.5v-7.7h2.2v10.8H546zm14-7.8v7.8H558v-6q0-1.8-.5-2.5t-1.7-.7q-.7 0-1.2.3-.6.3-1.3 1v7.9h-2.1V43.8h2.1v1.4q1.6-1.6 3.2-1.6 2 0 3.2 2 1.7-2 3.5-2 1.6 0 2.6 1.1 1 1.2 1 3.5v6.4h-2.1v-6.4q0-1.3-.5-2-.6-.8-1.6-.8-1.4 0-2.5 1.4zm11.8-3v1.4q1.4-1.6 3.2-1.6 1 0 1.9.5.9.6 1.3 1.5.5.9.5 2.8v6.2h-2.2v-6.1q0-1.7-.5-2.4t-1.7-.7q-1.5 0-2.5 1.5v7.7h-2.2V43.8h2.2zm9.3 10v-2.3q1 .7 1.8 1 1 .5 1.6.5.7 0 1.2-.4.5-.3.5-.8 0-.4-.4-.7-.3-.4-1.3-1-2-1-2.7-1.9-.6-.8-.6-1.8 0-1.2 1-2t2.4-.8q1.6 0 3.3.9v2.1q-2-1.1-3.1-1.1-.7 0-1 .2-.4.3-.4.7 0 .4.3.7l1.2.9.8.4q2.7 1.5 2.7 3.4 0 1.3-1 2.1-1 .9-2.7.9-1 0-1.7-.2-.8-.2-1.9-.8z" font-size="24" font-family="GillSans" fill="#2a86c0"/><path d="M494.8 73l-43-.2" stroke="#5ca831" stroke-width="2" fill="none"/><path d="M451.8 69.2l-9.6 3.5 9.6 3.7z" fill="#5ca831"/><path d="M451.8 69.2l-9.6 3.5 9.6 3.7z" stroke="#5ca831" stroke-width="2" fill="none"/><g font-size="24" font-family="GillSans"><path d="M516.8 68.8h2.4l-4.8 11h-.7l-4.9-11h2.3l3 6.6 2.7-6.6zm10.7 4.2v4.6q0 .6.4.6t1.2-.6V79l-1.2.7-.9.1q-1.4 0-1.6-1-1.4 1-2.9 1-1.1 0-1.9-.7-.7-.8-.7-2 0-1 .7-1.7.7-.8 2-1.3l2.8-1v-.5q0-2-2-2-1.7 0-3.3 1.8V70q1.2-1.4 3.6-1.4 1.7 0 2.8.9l.6.8q.3.4.3 1l.1 1.8zm-2 4.4v-3.2l-1.5.6q-1.1.4-1.6.8-.4.5-.4 1.1 0 .7.4 1.1.5.4 1.1.4 1 0 2-.8zm5.5-14.2h2.2v16.3H531V63.2zm12.2 16.3v-1.3q-.7.7-1.6 1.1-.9.4-1.7.4-1 0-1.9-.5-.9-.5-1.3-1.4-.4-.8-.4-2.9v-6.1h2v6.1q0 1.7.6 2.4.5.7 1.7.7 1.5 0 2.6-1.5v-7.7h2.1v10.7h-2.1zm14.3-5.2h-7.6q.1 1.6 1 2.5 1 1 2.5 1 2.1 0 4-1.4v2q-1 .7-2 1-1 .3-2.3.3-1.8 0-2.9-.7-1-.8-1.8-2-.6-1.3-.6-3 0-2.4 1.4-3.9t3.6-1.5q2.1 0 3.4 1.5 1.3 1.5 1.3 4v.2zm-7.5-1.2h5.4q-.1-1.3-.8-2-.7-.7-1.8-.7-1.2 0-1.9.7t-1 2zm9.3 5.7v-2.3l1.8 1q1 .4 1.6.4.7 0 1.1-.3.5-.4.5-.8 0-.5-.3-.8l-1.3-.9q-2-1.1-2.7-2-.7-.8-.7-1.7 0-1.3 1-2 1-.8 2.5-.8 1.6 0 3.2.8v2.2q-1.9-1.2-3-1.2-.7 0-1 .3-.4.2-.4.7 0 .3.3.7l1.2.8.8.4q2.7 1.6 2.7 3.4 0 1.3-1 2.2-1.1.8-2.7.8-1 0-1.7-.2l-2-.7zm8.2 1l4.7-16.9h1.7l-4.7 16.9h-1.7z" fill="#2a86c0"/><path d="M578 68.8v2.4l.1-.2q1.6-2.4 3.1-2.4 1.2 0 2.5 1.2l-1 1.8q-1.2-1-2.1-1-1 0-1.8 1t-.8 2.3v5.6h-2V68.8h2.1zm11.8-.1q2.5 0 4 1.6 1.7 1.6 1.7 4 0 2.3-1.6 3.9-1.7 1.5-4.2 1.5-2.4 0-4-1.5-1.7-1.6-1.7-4 0-2.3 1.7-3.9 1.6-1.6 4-1.6zm-.1 2q-1.6 0-2.5 1-1 1-1 2.5 0 1.6 1 2.6t2.6 1q1.5 0 2.5-1t1-2.6q0-1.5-1-2.5t-2.6-1zm21.3-1.9h2.4l-4.8 11h-.7l-3.2-7.6-3.1 7.5h-.7l-4.8-11h2.3l2.8 6.6 2.8-6.5h1.5l2.8 6.5 2.8-6.5z" fill="#2f1d12"/></g><g font-size="24" font-family="Inconsolata"><path d="M16.7 27v-1.4h3V13.5h-2.8V12h7.4v1.5h-3v12.1h3.2V27h-7.8zM28 12h1.6L36 23.1v-11h1.8v.1l-.1.3V27h-1.4l-6.6-11.8V27H28V12zm18 6.7q2 1 3 1.9.7.9.7 2.3 0 1.1-.5 2.1-.6 1-1.7 1.6-1.1.6-2.8.6-2.9 0-4.6-1.9l.8-1.5q.7.9 1.7 1.4 1 .5 2.4.5 1.3 0 2.2-.7.9-.8.9-1.8 0-.7-.3-1.2t-1-1l-2.2-1q-2.2-.9-3.1-2-1-1-1-2.4 0-1.7 1.3-2.7 1.2-1 3.3-1 1.2 0 2.3.5 1 .4 1.8 1.3l-.9 1.3q-.7-1-1.5-1.4-.8-.4-2-.4-1.1 0-1.8.7-.7.6-.7 1.5 0 .7.2 1.3.4.5 1.2 1l2.3 1zm2-3.7h.2v.2L48 15zm.3 0q.1.2 0 .1V15zm-7.1 8.7q0 .1-.1 0H41h.2zm-.3.1q-.1-.2 0 0zM52.2 27V12h9.2v1.5h-7.6v5h6.3V20h-6.3v5.5h7.5V27h-9zm11.9-15h4.5q2.5 0 3.7 1.2 1.2 1.1 1.2 3.1 0 1.3-.8 2.5-.9 1.2-2.2 1.5l3.4 6.7h-1.8l-3.3-6.6h-3V27h-1.7V12zm4.7 7q1.5 0 2.3-.8.7-.7.7-1.9t-.8-2q-.7-.7-2.2-.7h-3V19h3zm11 8V13.5h-4.3V12H86v1.5h-4.4V27h-1.7zm20.9 0v-1.4h3V13.5h-2.8V12h7.4v1.5h-3v12.1h3.2V27h-7.8zM112 12h1.6l6.3 11.1v-11h1.8v.1l-.1.3V27h-1.4l-6.6-11.8V27H112V12zm15.8 15V13.5h-4.3V12H134v1.5h-4.4V27h-1.7zm13 .3q-2.6 0-4-2-1.3-2-1.3-5.7 0-3.6 1.3-5.6 1.5-2 4-2t4 2q1.4 2 1.4 5.6 0 3.7-1.4 5.7t-4 2zm0-1.5q1.7 0 2.7-1.6 1-1.6 1-4.6 0-2.8-1-4.5-1-1.7-2.7-1.7-1.7 0-2.7 1.7-1 1.7-1 4.5 0 3 1 4.6 1 1.6 2.7 1.6z" fill="#053056"/><path d="M164.1 27.3q-1.7 0-2.8-1.3-1-1.3-1-3.8V16h1.7v6.2q0 2 .7 2.8.7.9 1.8.9 1.3 0 2.1-1 .9-1 .9-2.8v-6h1.7v10.2l.2.7h-1.6l-.3-.7v-1q-.5 1-1.4 1.5-1 .5-2 .5zm13.5-6.8q2 .7 2.9 1.4.9.7.9 2 0 1.4-1.2 2.4t-3.4 1q-2.8 0-4.6-1.8l1-1.6q.7 1 1.5 1.4.8.5 2.2.5 1.3 0 2-.5.8-.4.8-1.3 0-.6-.6-1.1-.6-.5-2.2-1-4.1-1.1-4.1-3.4 0-1.2 1-2 1-.7 3-.7 1.5 0 2.5.4t1.9 1.3l-1 1.2q-.5-.7-1.5-1.2-.9-.4-1.8-.4-1 0-1.8.3-.6.4-.6 1t.7 1.1q.6.5 2.4 1zm2.3-1.7q0-.2.2 0h-.2zm.3 0h-.1zm-6.8 5h-.2v-.1h.2zm-.2 0q-.1 0 0 0zm16.1 3.4q-2.4 0-3.9-1.4-1.4-1.5-1.4-4.2 0-1.8.7-3.1.6-1.4 1.8-2 1.1-.7 2.5-.7 2 0 3.2 1.3 1.3 1.3 1.3 3.9v.8h-7.9q.1 2 1.2 3 1 1 2.6 1 1.7 0 2.8-1.2l1 1q-1.4 1.6-3.9 1.6zm2.4-6.8q0-1.5-.8-2.4-.7-1-2-1-1.2 0-2 1-1 .8-1.2 2.4h6zm13.3-2.1l-1.1-.8q-.5-.2-1.1-.2-.9 0-1.7.4-.7.4-1.2 1.3t-.5 2.2V27h-1.7V16h1.8v2q.4-1 1.3-1.6 1-.6 2-.6 1.8 0 3 1.2l-.8 1.3zm0 0l.1.2h-.1v-.2zm-.2.1h.2v.1h-.2zm8.8 2.1q2 .7 2.9 1.4.9.7.9 2 0 1.4-1.2 2.4t-3.4 1q-2.8 0-4.6-1.8l1-1.6q.7 1 1.5 1.4.8.5 2.2.5 1.3 0 2-.5.8-.4.8-1.3 0-.6-.6-1.1-.6-.5-2.2-1-4.1-1.1-4.1-3.4 0-1.2 1-2 1-.7 3-.7 1.5 0 2.5.4t1.9 1.3l-1 1.2q-.5-.7-1.5-1.2-.9-.4-1.8-.4-1 0-1.8.3-.6.4-.6 1t.7 1.1q.6.5 2.4 1zm2.3-1.7q0-.2.2 0h-.2zm.3 0h-.1zm-6.8 5h-.2v-.1h.2zm-.2 0q-.1 0 0 0zm-40.9 33.4q-2-1-3.5-2.5-1.5-1.6-2.3-3.6-.8-2-.8-4.1 0-2.1.8-4 .8-2 2.3-3.5 1.4-1.5 3.3-2.5l.5 1.5q-2.4 1.3-3.8 3.6t-1.4 5q0 2.7 1.5 5 1.4 2.4 3.8 3.6l-.4 1.5zM184.5 42h1.7v2q.7-1 1.6-1.6 1-.6 2.1-.6 1.5 0 2.4 1.1.8 1.1.8 3.5V53h-1.6v-6.6q0-1.6-.6-2.4-.5-.7-1.4-.7-.8 0-1.6.4-.7.4-1.2 1.2-.5.8-.5 1.8V53h-1.7V42zm16.2-.2q2.3 0 3.5 1.2 1.3 1.2 1.3 4.2V53h-1.9v-1.7q-1 2-3.7 2-1.9 0-2.9-.9-1-.8-1-2.2 0-1.1.7-2 .8-.8 2-1.3 1.3-.5 2.8-.5 1.4 0 2.5.2-.2-1.9-1-2.6-.8-.8-2.5-.8-.8 0-1.5.3-.8.3-1.4 1l-.9-1.2q1.6-1.5 4-1.5zm-.7 10.1q1.8 0 2.8-1 1-1 1.2-3-1.1-.2-2.4-.2-1.8 0-2.8.6-1 .6-1 1.8 0 1.8 2.2 1.8zm7.7-9.9h1.6v1.1q.4-.6 1-1 .6-.3 1.2-.3.8 0 1.3.4.5.5.7 1.2.3-.7 1-1.2.6-.4 1.4-.4 1.1 0 1.7.8.5.7.5 2V53h-1.6v-7.8q0-1.3-.3-1.8-.3-.4-.8-.4-.4 0-.8.4l-.7 1.1q-.2.6-.2 1.3V53H212v-7.6q0-1.4-.3-1.8-.2-.5-1-.5-.3 0-.7.3-.3.3-.6 1-.2.5-.2 1.3V53h-1.6V42zm17.6 11.2q-2.4 0-3.9-1.4-1.4-1.5-1.4-4.2 0-1.8.7-3.1.6-1.4 1.8-2 1.1-.7 2.5-.7 2 0 3.2 1.3 1.3 1.3 1.3 3.9v.8h-7.9q.1 2 1.2 3 1 1 2.6 1 1.7 0 2.8-1.2l1 1q-1.4 1.6-3.9 1.6zm2.4-6.8q0-1.5-.8-2.4-.7-1-2-1-1.2 0-2 1-1 .8-1.2 2.4h6zm7.1 9.9q.6-.6 1-1.3.5-.8.5-1.2v-.4l-.5-.4-.5-.5q-.2-.2-.2-.6 0-.6.4-1t1-.4q.7 0 1.1.6.5.6.5 1.4 0 1.9-2.5 4.5l-.8-.7zm25.9-14.5q2.3 0 3.5 1.2 1.3 1.2 1.3 4.2V53h-1.9v-1.7q-1 2-3.7 2-1.9 0-2.9-.9-1-.8-1-2.2 0-1.1.7-2 .8-.8 2-1.3 1.3-.5 2.8-.5 1.4 0 2.5.2-.2-1.9-1-2.6-.8-.8-2.5-.8-.8 0-1.5.3-.8.3-1.4 1l-.9-1.2q1.6-1.5 4-1.5zm-.7 10.1q1.8 0 2.8-1 1-1 1.2-3-1.1-.2-2.4-.2-1.8 0-2.8.6-1 .6-1 1.8 0 1.8 2.2 1.8zm18.2-8.7h-.6q-1.2 0-2 .4.5.9.5 1.8 0 1.1-.5 2-.5.9-1.4 1.4-.8.5-2 .5-.9 0-1.7-.4-.4.6-.4 1 0 .6.7.9.8.2 2.7.2 2.3 0 3.1.8.9.6.9 2t-1.2 2.4q-1.1 1-3.6 1-2.3 0-3.7-.8-1.3-.7-1.3-2.1 0-.9.5-1.5t1.2-1q-.8-.5-.8-1.4 0-1 1-2-.6-.6-.9-1.3-.3-.8-.3-1.7 0-1 .4-1.9.5-.9 1.4-1.4.9-.5 2-.5 1.8 0 2.8 1.2.6-.6 1.2-.8.6-.3 1.4-.3h.4l.2 1.5zm-6 4.6q1 0 1.7-.7t.7-1.7q0-1-.7-1.7-.6-.7-1.7-.7-1 0-1.7.7t-.7 1.7q0 1 .7 1.7t1.7.7zm3.7 6.3q0-.6-.2-1l-.8-.4q-.6-.2-1.8-.2-1.7 0-2.8-.3l-.8.8q-.2.4-.2 1.1 0 .8 1 1.3.8.4 2.5.4 1.5 0 2.3-.4.8-.5.8-1.3zm9.4-.9q-2.4 0-3.9-1.4-1.4-1.5-1.4-4.2 0-1.8.7-3.1.6-1.4 1.8-2 1.1-.7 2.5-.7 2 0 3.2 1.3 1.3 1.3 1.3 3.9v.8h-7.9q.1 2 1.2 3 1 1 2.6 1 1.7 0 2.8-1.2l1 1q-1.4 1.6-3.9 1.6zm2.4-6.8q0-1.5-.8-2.4-.7-1-2-1-1.2 0-2 1-1 .8-1.2 2.4h6zm7.1 9.9q.6-.6 1-1.3.5-.8.5-1.2l-.1-.4-.4-.4-.5-.5q-.2-.2-.2-.6 0-.6.4-1t1-.4q.7 0 1.1.6.5.6.5 1.4 0 1.9-2.5 4.5l-.8-.7zm26.8-9.8q2 .7 2.9 1.4.9.7.9 2 0 1.4-1.2 2.4t-3.4 1q-2.8 0-4.6-1.8l1-1.6q.7 1 1.5 1.4.8.5 2.2.5 1.3 0 2-.5.8-.4.8-1.3 0-.6-.6-1.1-.6-.5-2.2-1-4.1-1.1-4.1-3.4 0-1.2 1-2 1-.7 3-.7 1.5 0 2.5.4t1.9 1.3l-1 1.2q-.5-.7-1.5-1.2-.9-.4-1.8-.4-1 0-1.8.3-.6.4-.6 1t.7 1.1q.6.5 2.4 1zm2.3-1.7q0-.2.2 0h-.2zm.3 0h-.1zm-6.8 5h-.2v-.1h.2zm-.2 0q-.1 0 0 0zm20.3 2.2q-1.6 1.2-3.5 1.2-1.8 0-2.6-1.1t-.8-3.6V47l.3-3.6h-2.4V42h2.5l.2-2.9 1.9-.3h.2v.1l-.2.4-.1.5-.3 2.2h3.7v1.4h-3.8l-.2 3.8v1.2q0 2 .4 2.7.5.6 1.4.6.8 0 1.4-.2l1.3-.9.6 1.4zm7.2-10.2q2.3 0 3.5 1.2 1.3 1.2 1.3 4.2V53h-1.9v-1.7q-1 2-3.7 2-1.9 0-2.9-.9-1-.8-1-2.2 0-1.1.7-2 .8-.8 2-1.3 1.3-.5 2.8-.5 1.4 0 2.5.2-.2-1.9-1-2.6-.8-.8-2.5-.8-.8 0-1.5.3-.8.3-1.4 1l-.9-1.2q1.6-1.5 4-1.5zm-.7 10.1q1.8 0 2.8-1 1-1 1.2-3-1.1-.2-2.4-.2-1.8 0-2.8.6-1 .6-1 1.8 0 1.8 2.2 1.8zm17.5.1q-1.6 1.2-3.5 1.2-1.8 0-2.6-1.1t-.8-3.6V47l.3-3.6h-2.4V42h2.5l.2-2.9 1.9-.3h.2v.1l-.2.4-.1.5-.3 2.2h3.7v1.4h-3.8l-.2 3.8v1.2q0 2 .4 2.7.5.6 1.4.6.8 0 1.4-.2l1.3-.9.6 1.4zm6.6 1.3q-1.7 0-2.8-1.3-1-1.3-1-3.8V42h1.7v6.2q0 2 .7 2.8.7.9 1.8.9 1.3 0 2.1-1 .9-1 .9-2.8v-6h1.7v10.2l.2.7h-1.6l-.3-.7v-1q-.5 1-1.4 1.5-1 .5-2 .5zm13.5-6.8q2 .7 2.9 1.4.9.7.9 2 0 1.4-1.2 2.4t-3.4 1q-2.8 0-4.6-1.8l1-1.6q.7 1 1.5 1.4.8.5 2.2.5 1.3 0 2-.5.8-.4.8-1.3 0-.6-.6-1.1-.6-.5-2.2-1-4.1-1.1-4.1-3.4 0-1.2 1-2 1-.7 3-.7 1.5 0 2.5.4t1.9 1.3l-1 1.2q-.5-.7-1.5-1.2-.9-.4-1.8-.4-1 0-1.8.3-.6.4-.6 1t.7 1.1q.6.5 2.4 1zm2.3-1.7q0-.2.2 0h-.2zm.3 0h-.1zm-6.8 5h-.2v-.1h.2zm-.2 0q-.1 0 0 0zm24.3 5.9q2.5-1.2 3.9-3.6 1.4-2.3 1.4-5t-1.4-5q-1.4-2.3-3.7-3.6l.4-1.5q2 1 3.4 2.5 1.5 1.5 2.3 3.4.7 2 .7 4.1 0 2.1-.8 4.1-.8 2-2.2 3.6-1.5 1.6-3.5 2.5l-.5-1.5z" fill="#2a86c0"/><path d="M20.5 79.1l-5.1-15h1.8L21 75.4 24.6 64h1.7l-5 15.1h-.8zm16.2-.1l-1.5-4.4h-4.8L28.8 79h-1.6l5.5-15.2h.2L38.4 79h-1.7zm-5.9-5.7h4l-2-5.7-2 5.7zm9.6-9.3h2v.2l-.2.3v13.1h7.1V79h-9V64zm16.4 15.3q-2.3 0-3.6-1.5-1.2-1.4-1.2-4V64h2v.2l-.2.3V74q0 1.9.7 3 .7 1 2.5 1 1.7 0 2.4-1 .8-1.1.8-3.1V64h1.6v9.8q0 2.7-1.3 4.1-1.3 1.4-3.6 1.4zm7.4-.3V64h9.2v1.5h-7.6v5h6.3V72h-6.3v5.5h7.5V79h-9zM82 70.7q2 1 3 1.9.7.9.7 2.3 0 1.1-.5 2.1-.6 1-1.7 1.6-1.1.6-2.8.6-2.9 0-4.6-1.9l.8-1.5q.7.9 1.7 1.4 1 .5 2.4.5 1.3 0 2.2-.7.9-.8.9-1.8 0-.7-.3-1.2t-1-1l-2.2-1q-2.2-.9-3.1-2-1-1-1-2.4 0-1.7 1.3-2.7 1.2-1 3.3-1 1.2 0 2.3.5 1 .4 1.8 1.3l-.9 1.3q-.7-1-1.5-1.4-.8-.4-2-.4-1.1 0-1.8.7-.7.6-.7 1.5 0 .7.2 1.3.4.5 1.2 1l2.3 1zm2-3.7h.2v.2L84 67zm.3 0q.1.2 0 .1V67zm-7.1 8.7q0 .1-.1 0H77h.2zm-.3.1q-.1-.2 0 0z" fill="#053056"/><path d="M168.3 83.2q-2-1-3.5-2.5-1.5-1.6-2.3-3.6-.8-2-.8-4.1 0-2.1.8-4 .8-2 2.3-3.5 1.4-1.5 3.3-2.5l.5 1.5q-2.4 1.3-3.8 3.6t-1.4 5q0 2.7 1.5 5 1.4 2.4 3.8 3.6l-.4 1.5zM188 63l-.1 3-.2 2-.1 1.2h-1.2l-.1-1.1-.2-2v-3h1.9zm3.6 0l-.1 3-.2 2-.1 1.2H190l-.1-1.1-.2-2v-3h1.9zm10 9.5q2 .7 2.9 1.4.9.7.9 2 0 1.4-1.2 2.4t-3.4 1q-2.8 0-4.6-1.8l1-1.6q.7 1 1.5 1.4.8.5 2.2.5 1.3 0 2-.5.8-.4.8-1.3 0-.6-.6-1.1-.6-.5-2.2-1-4.1-1.1-4.1-3.4 0-1.2 1-2 1-.7 3-.7 1.5 0 2.5.4t1.9 1.3l-1 1.2q-.5-.7-1.5-1.2-.9-.4-1.8-.4-1 0-1.8.3-.6.4-.6 1t.7 1.1q.6.5 2.4 1zm2.3-1.7q0-.2.2 0h-.2zm.3 0h-.1zm-6.8 5h-.2v-.1h.2zm-.2 0q-.1 0 0 0zm14.9 3.5q-1.7 0-2.8-1.3-1-1.3-1-3.8V68h1.7v6.2q0 2 .7 2.8.7.9 1.8.9 1.3 0 2.1-1 .9-1 .9-2.8v-6h1.7v10.2l.2.7h-1.6l-.3-.7v-1q-.5 1-1.4 1.5-1 .5-2 .5zm13.2-.1q-2.4 0-3.9-1.4-1.4-1.5-1.4-4.2 0-1.8.7-3.1.6-1.4 1.8-2 1.1-.7 2.5-.7 2 0 3.2 1.3 1.3 1.3 1.3 3.9v.8h-7.9q.1 2 1.2 3 1 1 2.6 1 1.7 0 2.8-1.2l1 1q-1.4 1.6-3.9 1.6zm2.4-6.8q0-1.5-.8-2.4-.7-1-2-1-1.2 0-2 1-1 .8-1.2 2.4h6zM236 63l-.1 3-.2 2-.1 1.2h-1.2l-.1-1.1-.2-2v-3h1.9zm3.6 0l-.1 3-.2 2-.1 1.2H238l-.1-1.1-.2-2v-3h1.9zm7.2 19.3q.6-.6 1-1.3.5-.8.5-1.2v-.4l-.5-.4-.5-.5q-.2-.2-.2-.6 0-.6.4-1t1-.4q.7 0 1.1.6.5.6.5 1.4 0 1.9-2.5 4.5l-.8-.7zm21.8-4.6l1.9-2 3-3 1.5-2.2q.5-1.1.5-2.3 0-1.5-.7-2.1-.7-.7-1.8-.7-1 0-2 .5-.8.4-1 1l-.4.5-.1.3h.2v.2h-.3l-1.2-1q.7-1.4 2-2.2 1.2-.7 2.8-.7 1.9 0 3 1.1 1.3 1.2 1.3 3.1 0 1.3-.7 2.5-.6 1.3-1.6 2.4l-2.7 2.8-1.6 1.6h6.1l.4-.2h.1V79h-8.7v-1.3zm16.6-8.3q1.2 0 2.1.6 1 .6 1.5 1.7t.5 2.5q0 1.5-.5 2.6-.6 1.2-1.6 1.8-1 .6-2.1.6-2.2 0-3.5-1.8-1.2-2-1.2-5.2 0-2.7.7-4.5.6-1.9 1.8-2.9 1.2-1 2.8-1 1.9 0 3.3 1.4l-1 1.2h-.1q-.5-.6-1-.8-.4-.2-1.2-.2-.8 0-1.6.5t-1.4 1.7q-.6 1.3-.6 3.6.5-.9 1.3-1.4.9-.4 1.8-.4zm2.4-2.9h.3l-.1.1h-.2zm.3 0q.1.2 0 .1v-.1zm-2.8 11.3q1.1 0 1.9-1 .7-.9.7-2.5 0-1.2-.4-2-.4-.7-1-1.1-.6-.4-1.2-.4-.8 0-1.6.6-.8.5-1.3 1.4v.7q0 1 .3 2 .4 1 1 1.6.8.7 1.6.7zm9.7 4.5q.6-.6 1-1.3.5-.8.5-1.2l-.1-.4-.4-.4-.5-.5q-.2-.2-.2-.6 0-.6.4-1t1-.4q.7 0 1.1.6.5.6.5 1.4 0 1.9-2.5 4.5l-.8-.7zM320 63l-.1 3-.2 2-.1 1.2h-1.2l-.1-1.1-.2-2v-3h1.9zm3.6 0l-.1 3-.2 2-.1 1.2H322l-.1-1.1-.2-2v-3h1.9zm13.1 16l-1.5-4.4h-4.8l-1.6 4.4h-1.6l5.5-15.2h.2l5.5 15.2h-1.7zm-5.9-5.7h4l-2-5.7-2 5.7zM344 63l-.1 3-.2 2-.1 1.2h-1.2l-.1-1.1-.2-2v-3h1.9zm3.6 0l-.1 3-.2 2-.1 1.2H346l-.1-1.1-.2-2v-3h1.9zm17.9 18.7q2.5-1.2 3.9-3.6 1.4-2.3 1.4-5t-1.4-5q-1.4-2.3-3.7-3.6l.4-1.5q2 1 3.4 2.5 1.5 1.5 2.3 3.4.7 2 .7 4.1 0 2.1-.8 4.1-.8 2-2.2 3.6-1.5 1.6-3.5 2.5l-.5-1.5z" fill="#2a86c0"/></g></svg>