<svg xmlns="http://www.w3.org/2000/svg" viewBox="0, 0, 740, 450" height="450" width="740"><g font-size="24" font-family="Inconsolata"><path d="M26.7 195.9q-1.8 0-3-.4-1.1-.3-1.7-1.2-.5-1-.4-2.6v-2.4q0-1.5-.4-2-.6-.7-1.7-.7H19v-1.3h.5q1.1 0 1.7-.6.5-.7.5-2V181q0-4.2 4.4-4.2h1.5v1.4h-2q-2.2 0-2.2 2.5v1.7q0 2.6-2 3.5 2 .7 2 3.8l-.1 2q0 1.6.7 2.2.7.7 2.3.7h1.2v1.3h-.8z" fill="#1c4394"/><path d="M42.6 220v-1.5H53v1.5H42.6zm13.6-2v-1.3H59v-8.2h-2.7v-1.4h4.4v9.6h2.6v1.4h-7.1zm3.6-13.2q-.6 0-1-.4-.3-.3-.3-.8t.4-.9q.3-.4.9-.4.5 0 .8.4.4.4.4.9t-.4.8q-.3.4-.8.4zm11.6 13.5q-1.2 0-2.2-.6-1-.7-1.7-2-.6-1.3-.6-3.2 0-2 .6-3.2.7-1.3 1.8-1.9 1-.6 2.2-.6 1 0 2 .5.7.5 1.2 1.4v-6.6h1.8v.2l-.2.3v14.8q0 .3.3.7h-1.8l-.2-.8v-1q-.5 1-1.4 1.5-.8.5-1.8.5zm.3-1.5q1.4 0 2.1-1.2.7-1.1.7-3 0-2-.7-3.2-.8-1.2-2.3-1.2-1.4 0-2.2 1.1-.8 1-.8 3t.8 3.3q.8 1.2 2.4 1.2zm11.8-6.1q-.6 0-1-.4t-.4-1q0-.6.4-1t1-.4q.6 0 1 .4t.4 1q0 .6-.4 1t-1 .4zm0 7.6q-.6 0-1-.3-.4-.4-.4-1t.4-1q.4-.4 1-.4t1 .4q.4.4.4 1 0 .5-.4 1-.4.3-1 .3zm29.3-1.3l-10.2-6v-1.2l10.2-5.3v1.7l-8.4 4.2 8.4 4.7v1.9zm7 1.3q-2.6 0-4-2t-1.4-5.6q0-3.6 1.4-5.6 1.4-2 4-2 2.5 0 4 2 1.3 2 1.3 5.6 0 3.7-1.4 5.7t-4 2zm0-1.4q1.7 0 2.6-1.6 1-1.6 1-4.6 0-2.9-1-4.5-1-1.7-2.6-1.7-1.7 0-2.7 1.7-1 1.6-1 4.5 0 3 1 4.6 1 1.6 2.7 1.6zm12.4 1.4q-1 0-1.9-.4-.8-.4-1.4-1.3l-.6 1.5h-1v-16h1.9v.2q-.2.1-.2.3v6.2q.5-.9 1.4-1.4.9-.5 1.8-.5 2.1 0 3.3 1.4 1.2 1.4 1.2 4.2 0 1.9-.6 3.2-.7 1.3-1.7 2-1 .6-2.2.6zm-.3-1.5q1.3 0 2.2-1 .9-1 .9-3.2 0-2.1-.8-3.2-.8-1-2.2-1-1.4 0-2.2 1.1-.8 1.2-.8 3.1 0 4.2 3 4.2zm14.7-9.7v10.5q0 2.3-1.1 3.5-1.2 1.2-3 1.2-1.1 0-2-.4-1-.4-1.6-1.2l1-1.3q.5.7 1 1 .7.4 1.5.4 1.1 0 1.8-.8t.7-2.3v-9.2h-4.1v-1.4h5.8zm-6.4 12.3h-.2v-.2l.2.1zm-.3 0v-.1.1zm5.7-14.6q-.5 0-.8-.4-.4-.3-.4-.8t.3-.9q.4-.4 1-.4.4 0 .8.4t.4.9q0 .5-.4.8-.4.4-.9.4zm10.7 13.5q-2.4 0-4-1.5-1.3-1.5-1.3-4.2 0-1.8.6-3 .7-1.4 1.8-2 1.2-.8 2.6-.8 2 0 3.2 1.4 1.3 1.3 1.3 3.9v.7h-7.9q.1 2 1.1 3.1 1 1 2.7 1 1.7 0 2.8-1.2l1 1q-1.4 1.6-3.9 1.6zm2.4-6.8q0-1.5-.8-2.4-.8-1-2-1t-2.1 1q-.9.7-1.1 2.4h6zm10 5.3q1.7 0 2.9-1.4l1 1.2q-1.6 1.7-4 1.7-1.6 0-2.8-.7-1.3-.7-2-2-.7-1.4-.7-3t.7-3q.7-1.2 2-2 1.2-.7 2.8-.7 1.3 0 2.4.5 1 .6 1.7 1.5l-1 1v.1q-.8-.9-1.5-1.3-.7-.3-1.8-.3-1 0-1.8.5-.7.5-1.2 1.4-.5 1-.5 2.2 0 1.2.5 2.2.5 1 1.3 1.5 1 .6 2 .6zm2.7-6.8q0-.1.2 0l-.1.2-.1-.2zm.2 0q.2.2 0 .1zm12.8 7q-1.6 1.3-3.4 1.3-1.9 0-2.6-1.2-.8-1-.8-3.6v-1.4l.3-3.6h-2.4v-1.4h2.5l.1-3 2-.2h.2l-.2.5-.1.5-.3 2.2h3.7v1.4h-3.8l-.2 3.7v1.3q0 2 .4 2.6.4.7 1.4.7.7 0 1.3-.3.6-.2 1.4-.8l.5 1.4zm3.3 1v-1.3h3v-12.2h-2.8v-1.4h7.4v1.4h-3v12.2h3.1v1.4h-7.7zm15.7.3q-1.2 0-2.2-.6-1-.7-1.7-2-.6-1.3-.6-3.2 0-2 .6-3.2.7-1.3 1.8-1.9 1-.6 2.2-.6 1 0 2 .5.7.5 1.2 1.4v-6.6h1.8v.2l-.2.3v14.8q0 .3.3.7h-1.8l-.2-.8v-1q-.5 1-1.4 1.5-.8.5-1.8.5zm.3-1.5q1.4 0 2.1-1.2.7-1.1.7-3 0-2-.7-3.2-.8-1.2-2.3-1.2-1.4 0-2.2 1.1-.8 1-.8 3t.8 3.3q.8 1.2 2.4 1.2zm11.6 1.2v-12.8l-3 .9-.4-1 3.9-2h1.2v15h-1.7zm7.4-1v-2l8.4-4.7-8.3-4.2v-1.7l10.2 5.3v1.2l-10.3 6zm15 4.4q.7-.6 1.1-1.3.5-.8.5-1.2l-.1-.4-.5-.4-.5-.5-.1-.6q0-.6.4-1t1-.4q.6 0 1.1.6.5.5.5 1.4 0 1.9-2.5 4.5l-.9-.7zM47 244.3q-1.6 0-2.7-1.2-1-1.3-1-3.9v-6H45v6q0 2 .7 2.9.7.9 1.8.9 1.3 0 2.1-1 .9-1 .9-2.8v-6H52v10.2l.3.7h-1.7l-.2-.8v-.9q-.5 1-1.5 1.4-.8.5-2 .5zm13.6-6.7q2 .6 2.9 1.4.8.7.8 1.9 0 1.5-1.1 2.5-1.2 1-3.4 1-2.8 0-4.7-1.8l1-1.6q.8 1 1.6 1.4.8.5 2.1.5t2-.5q.8-.5.8-1.3 0-.7-.6-1.1-.6-.5-2.1-1-4.2-1.2-4.2-3.4 0-1.3 1-2 1.1-.7 3-.7 1.6 0 2.6.4t1.8 1.3l-1 1.2q-.5-.8-1.4-1.2-1-.5-1.9-.5-1 0-1.7.4-.6.4-.6 1t.6 1.1q.7.5 2.5 1zm2.3-1.8h.2l-.1.2-.1-.2zm.2 0q.1.1 0 .1v-.1zm-6.7 5q0 .2-.2 0h.2zm-.3.1zm16.2 3.4q-2.4 0-4-1.5-1.3-1.5-1.3-4.2 0-1.8.6-3 .7-1.4 1.8-2 1.2-.7 2.6-.7 2 0 3.2 1.3 1.3 1.3 1.3 3.9v.8h-7.9q.1 2 1.1 3t2.7 1q1.7 0 2.8-1.2l1 1q-1.4 1.6-3.9 1.6zm2.4-6.8q0-1.5-.8-2.4-.8-1-2-1t-2.1 1q-.9.8-1.1 2.4h6zm13.3-2.1q-.7-.6-1.2-.8-.4-.3-1-.3-1 0-1.7.5-.8.4-1.2 1.3-.5.9-.5 2.2v5.8h-1.8v-11h1.8v2q.4-1 1.4-1.6 1-.6 2-.6 1.8 0 3 1.2l-.8 1.3zm0 0q.2.2 0 .1zm-.3 0h.3l-.1.2h-.2v-.1zm3.8-2.3h1.7v2q.6-1 1.6-1.6 1-.6 2.1-.6 1.5 0 2.3 1 1 1.2 1 3.5v6.7h-1.8v-6.6q0-1.7-.5-2.4-.6-.7-1.5-.7-.7 0-1.5.4-.7.4-1.2 1.2-.5.8-.5 1.8v6.3h-1.7v-11zm16.1-.2q2.4 0 3.6 1.2 1.3 1.2 1.3 4.1v5.9h-2v-1.7q-1 2-3.7 2-1.8 0-2.8-.9-1-.8-1-2.2 0-1.1.7-2 .7-.9 2-1.3 1.3-.5 2.8-.5l2.4.1q-.1-1.8-1-2.5-.8-.8-2.4-.8-.8 0-1.6.3-.7.3-1.3 1l-.9-1.2q1.6-1.5 4-1.5zM107 243q1.8 0 2.8-1 1-1 1.1-3-1-.2-2.3-.2-1.8 0-2.9.6-1 .6-1 1.8 0 1.8 2.3 1.8zm7.7-9.9h1.6v1q.4-.5 1-.9.6-.3 1.2-.3.7 0 1.3.4.5.5.6 1.2.4-.8 1-1.2.7-.4 1.5-.4 1.1 0 1.6.7.6.8.5 2v8.5h-1.6v-7.8q0-1.4-.2-1.8-.3-.4-.8-.4-.4 0-.8.4l-.7 1-.2 1.3v7.3H119v-7.7q0-1.3-.3-1.7-.2-.5-1-.5-.3 0-.7.3-.3.3-.6 1-.2.5-.2 1.3v7.3h-1.6v-11zm17.6 11.2q-2.4 0-4-1.5-1.3-1.5-1.3-4.2 0-1.8.6-3 .7-1.4 1.8-2 1.2-.7 2.6-.7 2 0 3.2 1.3 1.3 1.3 1.3 3.9v.8h-7.9q.1 2 1.1 3t2.7 1q1.7 0 2.8-1.2l1 1q-1.4 1.6-3.9 1.6zm2.4-6.8q0-1.5-.8-2.4-.8-1-2-1t-2.1 1q-.9.8-1.1 2.4h6z" fill="#1d4494"/><path d="M143.5 236.7q-.6 0-1-.4t-.4-1q0-.6.4-1t1-.4q.6 0 1 .4t.4 1q0 .6-.4 1t-1 .4zm0 7.6q-.6 0-1-.3-.4-.4-.4-1t.4-1q.4-.4 1-.4t1 .4q.4.4.4 1 0 .5-.4 1-.4.3-1 .3zm23.5-16.2l-.1 3-.2 2-.1 1.2h-1.2l-.1-1.1-.2-2v-3h1.8zm3.5 0v3l-.2 2-.1 1.2H169l-.1-1.1-.2-2v-3h1.8zm8.8 15.9v-12.8l-3 .9-.4-1 3.9-2h1.2v15h-1.7zm8.2-1.3l2-2q2-1.9 2.9-3 1-1 1.5-2.2.6-1 .6-2.2 0-1.5-.7-2.2-.7-.6-1.8-.6-1 0-2 .5-.8.4-1.1 1l-.3.5-.1.3h.2v.2l-.3-.1-1.2-1q.7-1.4 2-2.1 1.2-.8 2.7-.8 2 0 3.1 1.2 1.2 1.1 1.2 3.1 0 1.3-.6 2.5-.6 1.3-1.6 2.4l-2.7 2.8-1.6 1.6h6.1q.2 0 .3-.2h.2v1.7h-8.8v-1.4zm17.7-6.5q1.3.4 2 1.4.8 1 .8 2.4 0 1.2-.5 2.2-.5 1-1.5 1.6-1 .5-2.5.5-1.2 0-2.2-.4-1.1-.4-1.9-1.3l1.1-1.3q.7.8 1.3 1.2.7.4 1.7.4 1.4 0 2-.8.8-.8.8-2.2 0-1.5-1-2.2-.8-.8-2.4-.8h-.8v-1.3q2.1 0 2.9-.8.8-.7.8-2.1 0-1-.6-1.6-.6-.6-1.5-.6-1.6 0-2.8 1l-1-1q1.5-1.5 3.7-1.5 1.8 0 2.9 1 1 1 1 2.8 0 1.2-.6 2-.6 1-1.7 1.4zm-4.4 5v.1h-.2l.1-.2.1.1zm-.2.1q-.1-.2 0-.1v.1zm10.3 2.7l3.9-5.5-3.8-5.4h1.9l2.8 4 2.8-4h1.7l-3.5 5.3 4 5.7h-2l-3-4.3-2.8 4.3h-2zm21.5-10.9l-.4 2-.9 2.5-2.7 7.7q-.6 1.6-1.5 2.3-.9.7-2 .7-1.6 0-2.6-1l.7-1.2h.1l.8.6 1 .1q1 0 1.4-.6.6-.6 1-2l-4.4-11h1.8l3.4 8.7 1.4-4.4.8-2.5.4-1.9h1.7zm-9 13h-.4v-.2l.2.1zm-.3 0q-.1-.1-.1 0h.1zM235 243l6.8-8.4h-6.3v-1.5h8.5v1.2l-6.7 8.3h6.8l.3-.2h.2v1.7H235v-1.2zm16-14.9l-.1 3-.2 2-.1 1.2h-1.2l-.1-1.1-.2-2v-3h1.8zm3.5 0v3l-.2 2-.1 1.2H253l-.1-1.1-.2-2v-3h1.8zM19.1 273.9v-1.3h1.2q1.7 0 2.3-.7.7-.6.7-2.2v-2q0-3 2-3.8-2-.9-2-3.5v-1.7q0-2.5-2.3-2.5h-2v-1.4h1.6q4.4 0 4.4 4.2l-.1 1.7q0 1.3.6 2 .5.6 1.6.6h.5v1.3H27q-1 0-1.6.6-.5.6-.5 2.1v2.4q.1 1.7-.4 2.6-.6.9-1.7 1.2-1.1.4-3 .4H19z" fill="#1a4394"/></g><path d="M9.2 165.7H304v120.5H9.2z" stroke="#1b4394" fill="none"/><g font-size="24" font-family="Inconsolata"><path d="M409.9 69.7q-1.9 0-3-.3-1.1-.4-1.7-1.3-.5-1-.4-2.6v-2.4q0-1.5-.5-2-.5-.7-1.6-.7h-.5v-1.3h.5q1.1 0 1.7-.6.5-.6.5-2v-1.7q0-4.2 4.3-4.2h1.5V52h-2q-2.2 0-2.2 2.5l.1 1.7q0 2.6-2 3.6 2 .6 2 3.7l-.1 2q0 1.6.7 2.2.7.7 2.3.7h1.2v1.3h-.8z" fill="#1c4394"/><path d="M402.3 199.7v-1.3h1.2q1.6 0 2.3-.7.7-.6.7-2.2v-2q0-3 2-3.7-2-1-2-3.6v-1.7q0-2.5-2.3-2.5h-2v-1.4h1.6q4.3 0 4.3 4.2v1.7q0 1.4.5 2 .6.6 1.7.6h.5v1.3h-.5q-1.1 0-1.6.6-.6.6-.6 2.1l.1 2.4q.1 1.7-.5 2.6-.5.9-1.6 1.3-1.1.3-3 .3h-.8z" fill="#1a4394"/></g><path d="M391.3 41.5h339v167.2h-339z" stroke="#1b4394" fill="none"/><g font-size="21" fill="#1c4494"><path d="M21.2 155q-1.5 0-2.4-1.2-1-1.1-.9-3.3V145h1.5v5.4q0 1.7.6 2.5.6.7 1.6.7t1.8-.8q.8-.9.8-2.5V145h1.4v9l.3.6h-1.5l-.2-.6v-.9q-.5.8-1.3 1.3-.7.4-1.7.4zm11.8-6q1.8.6 2.6 1.3.7.6.7 1.6 0 1.3-1 2.2-1 .8-3 .8-2.4 0-4-1.5l.8-1.4q.7.8 1.4 1.2.7.5 1.9.5 1.1 0 1.8-.4.6-.5.6-1.2 0-.6-.5-1t-1.9-.8q-3.6-1-3.6-3 0-1.1.9-1.8 1-.6 2.6-.6 1.3 0 2.2.4 1 .3 1.6 1l-.8 1.1q-.5-.6-1.3-1t-1.6-.4q-1 0-1.5.3-.6.3-.6 1 0 .4.6.9.6.4 2.1.9zm2-1.5q0-.1.2 0v.1l-.2-.1zm.3 0h-.1zm-6 4.4h-.1v-.1h.2zm-.2 0zm14.2 3.1q-2.2 0-3.4-1.4-1.3-1.3-1.3-3.7 0-1.5.6-2.7.6-1.1 1.6-1.7 1-.6 2.2-.6 1.8 0 2.8 1.1 1.1 1.2 1.1 3.4v.7H40q.1 1.8 1 2.7 1 .9 2.3.9 1.5 0 2.5-1l.8.7q-1.2 1.5-3.3 1.5zm2-6q0-1.4-.6-2.2-.7-.8-1.8-.8-1 0-1.8.8-.8.7-1 2.2h5.3zm11.7-1.9l-1-.7q-.4-.2-1-.2-.7 0-1.4.4-.7.3-1 1.1-.5.8-.5 2v5h-1.5v-9.6H52v1.8q.4-1 1.2-1.5.9-.5 1.8-.5 1.6 0 2.6 1l-.7 1.2zm0 0q.2.2 0 .1zm-.2 0h.2v.2h-.2v-.1z" font-family="Inconsolata"/><path d="M76.7 140.4h1.9v14.3h-4q-2.1 0-3.4-1.3-1.2-1.3-1.2-3.6 0-2 1.3-3.4 1.3-1.3 3.3-1.3 1 0 2 .4v-5.1zm0 12.7v-6q-.9-.4-1.8-.4-1.4 0-2.2.9-.8 1-.8 2.5 0 1.4.7 2.2.4.5 1 .6.4.2 1.6.2h1.5zm8.9-7.8q2.2 0 3.6 1.3 1.4 1.4 1.4 3.5 0 2-1.4 3.4-1.5 1.4-3.7 1.4-2.1 0-3.5-1.4t-1.4-3.4q0-2 1.4-3.5 1.4-1.3 3.6-1.3zm0 1.6q-1.4 0-2.3 1-.9.8-.9 2.2 0 1.3 1 2.2.8.8 2.2.8 1.4 0 2.2-.8 1-1 1-2.3 0-1.3-1-2.2-1-.9-2.3-.9zm14.1 5.6v1.8q-1.4.6-2.7.6-2.2 0-3.5-1.3-1.4-1.4-1.4-3.6t1.3-3.5q1.3-1.4 3.4-1.4l1.3.1 1.4.5v2q-1.4-.9-2.6-.9-1.3 0-2 1-.9.8-.9 2.2 0 1.4.9 2.3.9.8 2.4.8 1 0 2.4-.6zm8.2 2.2v-1.2q-.6.7-1.4 1-.8.4-1.5.4-1 0-1.7-.5-.7-.4-1.1-1.2-.4-.7-.4-2.5v-5.4h1.9v5.4q0 1.4.4 2 .4.6 1.5.6 1.3 0 2.3-1.3v-6.7h1.8v9.4H108zm12.1-6.8v6.8h-1.8v-5.2q0-1.6-.4-2.2-.4-.7-1.5-.7-.6 0-1 .3l-1.2 1v6.8h-1.8v-9.4h1.8v1.2q1.5-1.4 2.8-1.4 1.8 0 2.8 1.7 1.5-1.7 3.1-1.7 1.4 0 2.3 1 .9 1 .9 3v5.6h-2v-5.6q0-1.2-.5-1.8-.5-.6-1.4-.6-1.1 0-2.1 1.2zm16.6 2.3h-6.7q0 1.3 1 2.1.8.8 2 .8 2 0 3.5-1.1v1.8q-.9.6-1.7.8-.9.3-2 .3-1.6 0-2.5-.7-1-.6-1.6-1.7-.5-1.1-.5-2.6 0-2.1 1.2-3.5 1.2-1.3 3.1-1.3 2 0 3 1.3 1.2 1.3 1.2 3.5v.3zM130 149h4.7q0-1-.7-1.7-.6-.6-1.6-.6t-1.6.6q-.6.6-.8 1.7zm10.4-3.7v1.2q1.3-1.4 2.9-1.4.8 0 1.6.5.8.4 1.2 1.2.4.8.4 2.5v5.4h-2v-5.4q0-1.4-.4-2-.4-.7-1.4-.7-1.4 0-2.3 1.4v6.7h-1.9v-9.4h2zm7.3 1.5l3.5-3.5v2h3v1.7h-3v4.6q0 1.6 1.4 1.6 1 0 2.1-.7v1.8q-1 .6-2.3.6-1.3 0-2.2-.8l-.4-.5-.3-.7-.1-1.8V147h-1.7v-.2z" font-family="GillSans"/></g><g font-size="21" fill="#1c4494"><path d="M406 31q1.5 0 2.6-1.1l.9 1q-1.4 1.5-3.5 1.5-1.4 0-2.5-.6-1-.7-1.7-1.8-.6-1.2-.6-2.6 0-1.4.6-2.5.6-1.2 1.7-1.8 1.1-.7 2.5-.7 1.1 0 2 .5 1 .5 1.6 1.3l-1 1q-.6-.9-1.2-1.2-.6-.3-1.6-.3-.8 0-1.5.5-.7.4-1.1 1.2-.5.8-.5 2 0 1 .5 1.8.4.9 1.2 1.4.7.5 1.7.5zm2.4-5.8q0-.2.2 0h-.2zm.2 0q.1 0 0 0zm7.2 7.2q-1.3 0-2.3-.7-1-.6-1.6-1.7-.6-1.2-.6-2.6 0-1.5.6-2.6t1.6-1.8q1-.6 2.3-.6 1.2 0 2.3.6 1 .7 1.5 1.8.6 1.1.6 2.6 0 1.4-.6 2.6-.5 1.1-1.5 1.7-1 .7-2.3.7zm0-1.3q.8 0 1.4-.5.7-.5 1-1.3.4-.9.4-2 0-1.6-.8-2.6t-2-1q-1.3 0-2 1-.9 1-.9 2.7 0 1 .4 2 .4.7 1 1.2t1.5.5zm6.7-8.5h1.5v1.7q.6-.9 1.4-1.4.9-.5 1.8-.5 1.3 0 2 1 .9 1 .9 3v5.8h-1.5v-5.8q0-1.4-.5-2-.5-.7-1.3-.7-.6 0-1.3.4-.6.4-1 1-.5.7-.5 1.6v5.5h-1.5v-9.6zm18.3 8.7q-1.4 1-3 1t-2.3-1q-.6-.9-.6-3V27l.2-3.2H433v-1.2h2.2l.1-2.6 1.7-.2h.2l-.2.4v.5l-.3 2h3.2v1.1h-3.3l-.2 3.3v1.1q0 1.7.4 2.3.4.6 1.2.6.7 0 1.2-.2l1.2-.8.4 1.2zm6.3-8.9q2 0 3.2 1 1 1.1 1 3.7v5.1h-1.6v-1.5q-.9 1.7-3.3 1.7-1.6 0-2.5-.7-.9-.7-.9-2 0-1 .7-1.7.6-.7 1.7-1.1 1.1-.5 2.5-.5 1.2 0 2.1.2 0-1.6-.8-2.3-.7-.7-2.2-.7-.7 0-1.4.3l-1.2.8-.7-1q1.4-1.3 3.4-1.3zm-.5 8.9q1.5 0 2.4-1 1-.8 1-2.6l-2-.1q-1.6 0-2.5.5-1 .5-1 1.6 0 1.6 2 1.6zm12-.3q1.4 0 2.5-1.1l.9 1q-1.4 1.5-3.5 1.5-1.4 0-2.5-.6-1-.7-1.7-1.8-.6-1.2-.6-2.6 0-1.4.6-2.5.6-1.2 1.7-1.8 1.1-.7 2.5-.7 1.1 0 2 .5 1 .5 1.6 1.3l-1 1q-.6-.9-1.2-1.2-.6-.3-1.6-.3-.8 0-1.5.5-.7.4-1.1 1.2-.5.8-.5 2 0 1 .5 1.8.4.9 1.2 1.4.7.5 1.7.5zm2.3-5.8q0-.2.2 0h-.2zm.2 0q.1 0 0 0zm11.2 6.1q-1.4 1-3 1t-2.3-1q-.6-.9-.6-3V27l.2-3.2h-2.1v-1.2h2.2l.1-2.6 1.7-.2h.2l-.2.4v.5l-.3 2h3.2v1.1H468l-.2 3.3v1.1q0 1.7.4 2.3.4.6 1.2.6.7 0 1.2-.2l1.2-.8.4 1.2z" font-family="Inconsolata"/><path d="M491.6 17.9h2v14.3h-4q-2.2 0-3.4-1.3-1.3-1.3-1.3-3.6 0-2 1.3-3.4 1.3-1.3 3.4-1.3 1 0 2 .4v-5.1zm0 12.7v-6q-.8-.4-1.7-.4-1.4 0-2.3.9-.8 1-.8 2.5 0 1.4.7 2.2.5.5 1 .6.4.2 1.7.2h1.4zm9-7.9q2.1 0 3.5 1.4 1.5 1.4 1.5 3.5 0 2-1.5 3.4-1.4 1.4-3.6 1.4t-3.6-1.4q-1.4-1.4-1.4-3.4t1.4-3.5q1.5-1.4 3.7-1.4zm-.2 1.7q-1.3 0-2.2 1-.8.8-.8 2.2 0 1.3.9 2.2.8.8 2.2.8 1.4 0 2.3-.8.9-1 .9-2.3 0-1.3-1-2.2-.9-.9-2.3-.9zm14.3 5.6v1.8q-1.4.6-2.8.6-2.2 0-3.5-1.3-1.3-1.4-1.3-3.6t1.3-3.6q1.2-1.3 3.3-1.3l1.3.1 1.5.5v2q-1.4-.9-2.6-.9-1.3 0-2.1 1-.8.8-.8 2.2 0 1.4.8 2.3 1 .8 2.4.8 1 0 2.5-.6zm8.1 2.2V31q-.6.6-1.4 1-.7.4-1.5.4-.9 0-1.6-.5-.8-.4-1.2-1.2-.3-.8-.3-2.5v-5.4h1.8v5.4q0 1.4.4 2 .5.6 1.5.6 1.4 0 2.3-1.3v-6.7h1.9v9.4h-1.9zm12.2-6.8v6.8h-1.9V27q0-1.6-.4-2.2-.4-.7-1.4-.7-.6 0-1.1.3-.5.3-1.1 1v6.8h-1.9v-9.4h1.9V24q1.4-1.4 2.8-1.4 1.8 0 2.7 1.7 1.5-1.7 3.2-1.7 1.3 0 2.2 1 1 1 1 3v5.6h-2v-5.6q0-1.2-.4-1.8-.5-.6-1.4-.6-1.2 0-2.2 1.2zm16.5 2.3h-6.6q0 1.3.9 2.1.8.8 2.1.8 1.9 0 3.4-1.1v1.8q-.8.6-1.7.8-.8.2-2 .2-1.5 0-2.5-.6t-1.5-1.7q-.6-1.1-.6-2.6 0-2.1 1.2-3.5 1.2-1.3 3.2-1.3 1.9 0 3 1.3 1 1.3 1 3.5v.3zm-6.6-1.2h4.7q0-1-.6-1.7-.6-.6-1.6-.6t-1.7.6q-.6.6-.8 1.7zm10.5-3.7V24q1.2-1.4 2.8-1.4.9 0 1.6.4.8.5 1.2 1.3.4.8.4 2.5v5.4h-1.9v-5.4q0-1.4-.4-2-.5-.7-1.5-.7-1.3 0-2.2 1.4v6.7h-2v-9.4h2zm7.3 1.5l3.5-3.5v2h3v1.7h-3V29q0 1.6 1.3 1.6 1 0 2.2-.7v1.8q-1.1.6-2.4.6-1.3 0-2.1-.8l-.5-.5-.3-.7v-5.8h-1.7v-.2z" font-family="GillSans"/></g><g font-size="24" font-family="Inconsolata"><path d="M411.3 281.3q-1.8 0-3-.4-1-.4-1.6-1.3-.6-.9-.5-2.5v-2.4q0-1.5-.4-2.1-.6-.6-1.7-.6h-.4v-1.4h.4q1.1 0 1.7-.6.5-.6.5-2v-1.7q0-4.1 4.4-4.1h1.5v1.3h-2q-2.2 0-2.2 2.6v1.7q0 2.6-2 3.5 2 .7 2 3.7l-.1 2q0 1.6.7 2.3.7.6 2.3.6h1.3v1.4h-1z" fill="#1c4394"/><path d="M403.7 411.3v-1.4h1.2q1.7 0 2.4-.6.7-.7.7-2.3l-.1-2q0-3 2-3.7-2-1-2-3.5V396q0-2.6-2.3-2.6h-2v-1.3h1.6q4.4 0 4.4 4.1v1.8q0 1.3.5 2 .5.5 1.6.5h.5v1.4h-.5q-1 0-1.6.6-.5.6-.5 2v2.5q.1 1.6-.4 2.5-.6 1-1.7 1.3-1.1.4-3 .4h-.8z" fill="#1a4394"/></g><path d="M392.7 257.1h338v167.2h-338z" stroke="#1b4394" fill="none"/><g font-size="21" fill="#1c4494"><path d="M406.6 238q2 0 3 1 1.2 1 1.2 3.7v5H409v-1.4q-.8 1.7-3.2 1.7-1.6 0-2.5-.7-1-.8-1-2 0-1 .7-1.7.7-.8 1.8-1.2 1-.4 2.4-.4l2.2.1q-.2-1.6-.9-2.2-.7-.7-2.1-.7-.8 0-1.4.3-.7.2-1.2.8l-.8-1q1.4-1.3 3.5-1.3zm-.6 8.8q1.6 0 2.5-.9.9-.9 1-2.6l-2-.2q-1.7 0-2.6.6-1 .5-1 1.6 0 1.5 2.1 1.5zm12-.2q1.5 0 2.5-1.2l.9 1q-1.4 1.6-3.5 1.6-1.4 0-2.5-.7-1-.6-1.7-1.7-.6-1.2-.6-2.6 0-1.5.6-2.6.7-1.1 1.7-1.8 1.1-.6 2.5-.6 1.2 0 2.1.5 1 .4 1.5 1.3l-1 .9q-.5-.8-1.2-1.1-.6-.3-1.6-.3-.8 0-1.5.4-.7.5-1.1 1.3-.4.8-.4 1.9 0 1 .4 1.9.4.9 1.2 1.3.8.5 1.7.5zm2.3-5.9q0-.1.2 0v.1h-.2zm.3 0v.1-.1zm7.9 5.9q1.5 0 2.5-1.2l.9 1q-1.4 1.6-3.5 1.6-1.4 0-2.5-.7-1-.6-1.7-1.7-.6-1.2-.6-2.6 0-1.5.6-2.6.7-1.1 1.7-1.8 1.1-.6 2.5-.6 1.2 0 2.1.5 1 .4 1.5 1.3l-1 .9q-.5-.8-1.2-1.1-.6-.3-1.6-.3-.8 0-1.5.4-.7.5-1.1 1.3-.4.8-.4 1.9 0 1 .4 1.9.4.9 1.2 1.3.8.5 1.7.5zm2.3-5.9q0-.1.2 0v.1h-.2zm.3 0v.1-.1zm7.5 7.3q-2 0-3.4-1.3-1.2-1.3-1.2-3.7 0-1.6.6-2.7.5-1.2 1.5-1.8 1-.6 2.3-.6 1.7 0 2.8 1.2 1 1.1 1 3.4v.7h-6.8q.1 1.7 1 2.6 1 1 2.3 1 1.5 0 2.5-1.1l.8.8q-1.2 1.5-3.4 1.5zm2.1-6q0-1.3-.6-2.1-.7-.8-1.8-.8-1 0-1.9.7-.7.8-1 2.2h5.3zm8.7.1q1.8.6 2.5 1.2.8.6.8 1.7 0 1.3-1 2.1-1 .9-3 .9-2.4 0-4-1.5l.8-1.5q.7.9 1.4 1.3t1.9.4q1 0 1.7-.4t.7-1.1q0-.6-.5-1-.6-.4-2-.9-3.5-1-3.5-3 0-1 .9-1.7t2.6-.7q1.3 0 2.2.4.9.4 1.6 1.1l-.9 1v.1q-.4-.7-1.2-1-.8-.4-1.7-.4-.9 0-1.5.3-.5.3-.5.9 0 .5.6 1 .5.4 2 .8zm2-1.5q0-.1.2 0h-.2zm.2 0zm-5.9 4.3q0 .1-.2 0h.2zm-.2.1v-.1.1zm14.4-2.9q1.8.6 2.5 1.2.8.6.8 1.7 0 1.3-1 2.1-1 .9-3 .9-2.4 0-4-1.5l.8-1.5q.7.9 1.4 1.3t1.9.4q1 0 1.7-.4t.7-1.1q0-.6-.5-1-.6-.4-2-.9-3.5-1-3.5-3 0-1 .9-1.7t2.6-.7q1.3 0 2.2.4.9.4 1.6 1.1l-.9 1v.1q-.4-.7-1.2-1-.8-.4-1.7-.4-.9 0-1.5.3-.5.3-.5.9 0 .5.6 1 .5.4 2 .8zm2-1.5q0-.1.2 0h-.2zm.2 0zm-5.9 4.3q0 .1-.2 0h.2zm-.2.1v-.1.1z" font-family="Inconsolata"/><path d="M482.6 233.4h1.8v14.4h-4q-2 0-3.3-1.4-1.2-1.3-1.2-3.5 0-2 1.3-3.4t3.3-1.4q1 0 2 .4v-5zm0 12.8v-6q-1-.5-1.8-.5-1.4 0-2.2 1-.9.9-.9 2.4t.8 2.3q.4.4.9.6.5.2 1.7.2h1.5zm8.9-7.9q2.1 0 3.6 1.4 1.4 1.4 1.4 3.5 0 2-1.5 3.4-1.4 1.3-3.6 1.3-2.1 0-3.6-1.3-1.4-1.4-1.4-3.5 0-2 1.5-3.4 1.4-1.4 3.6-1.4zm-.1 1.7q-1.4 0-2.2.9-.9.8-.9 2.2 0 1.4.9 2.2.9.9 2.3.9 1.3 0 2.2-.9.9-.9.9-2.2 0-1.4-1-2.2-.8-1-2.2-1zm14.2 5.6v1.8q-1.4.5-2.7.5-2.3 0-3.6-1.3-1.3-1.3-1.3-3.5t1.3-3.6q1.3-1.4 3.4-1.4.7 0 1.3.2.6.1 1.4.5v2q-1.4-1-2.6-1-1.3 0-2 1-.9.9-.9 2.2 0 1.5.9 2.3.8.9 2.3.9 1.1 0 2.5-.6zm8.1 2.2v-1.2q-.6.6-1.3 1-.8.3-1.6.3t-1.6-.4q-.8-.5-1.1-1.2-.4-.8-.4-2.6v-5.4h1.8v5.4q0 1.5.5 2 .4.7 1.5.7 1.3 0 2.2-1.3v-6.8h1.9v9.5h-1.9zM526 241v6.8h-2v-5.3q0-1.6-.3-2.2-.5-.6-1.5-.6-.6 0-1 .3-.6.2-1.2 1v6.8h-1.9v-9.5h1.9v1.3q1.4-1.5 2.8-1.5 1.8 0 2.8 1.7 1.5-1.7 3.1-1.7 1.4 0 2.3 1 .8 1 .8 3v5.7H530v-5.6q0-1.2-.5-1.8-.5-.7-1.4-.7-1.1 0-2.1 1.2zm16.4 2.2h-6.6q0 1.4.9 2.2.8.8 2.1.8 1.9 0 3.5-1.2v1.8l-1.8.9q-.8.2-2 .2-1.5 0-2.5-.6-1-.7-1.5-1.8-.6-1-.6-2.5 0-2.2 1.2-3.5 1.3-1.4 3.2-1.4 1.9 0 3 1.4 1.1 1.3 1.1 3.5v.2zm-6.6-1.1h4.8q-.1-1.1-.7-1.7-.6-.6-1.6-.6t-1.6.6q-.7.6-.9 1.7zm10.5-3.8v1.2q1.2-1.4 2.8-1.4 1 0 1.7.5t1.1 1.3q.4.7.4 2.5v5.4h-1.8v-5.4q0-1.5-.5-2-.4-.7-1.5-.7-1.3 0-2.2 1.3v6.8h-2v-9.5h2zm7.3 1.5l3.5-3.4v2h3v1.6h-3v4.6q0 1.7 1.4 1.7 1 0 2-.7v1.7q-1 .6-2.3.6-1.3 0-2.1-.7l-.4-.5-.3-.8q-.2-.4-.2-1.7V240h-1.6v-.2z" font-family="GillSans"/></g><g stroke="#6cb33f" stroke-width="2"><path d="M261 199.3l151-80.7" fill="none"/><path d="M259.2 196.1l-6.8 7.7 10.2-1.3zm154.6-74.4l6.8-7.7-10.2 1.4z" fill="#6cb33f"/></g><g stroke="#6cb33f" stroke-width="2"><path d="M260.6 224l150.8 90.4" fill="none"/><path d="M262.5 220.8l-10.1-1.8 6.4 8zm147 96.7l10.1 1.9-6.4-8z" fill="#6cb33f"/></g><g font-size="24" font-family="Inconsolata"><path d="M425.4 91v-1.5h10.3V91h-10.3zm13.6-2v-1.3h2.8v-8.2H439v-1.4h4.4v9.6h2.6v1.4h-7zm3.5-13.2q-.5 0-.8-.3-.4-.4-.4-1 0-.4.3-.8.4-.4 1-.4.4 0 .8.4t.4.9q0 .5-.4.9-.4.3-.9.3zm11.7 13.5q-1.2 0-2.2-.6-1-.7-1.7-2t-.7-3.2q0-1.9.7-3.2.7-1.2 1.7-1.8 1-.7 2.3-.7 1 0 1.9.5.8.5 1.3 1.4v-6.6h1.8v.2q-.2.1-.2.3v14.8l.2.7h-1.7l-.2-.8v-1q-.5 1-1.4 1.5-.8.5-1.8.5zm.2-1.5q1.5 0 2.2-1.2.7-1.1.7-3 0-2-.8-3.2-.7-1.2-2.2-1.2-1.4 0-2.2 1.1-.8 1-.8 3t.8 3.3q.8 1.2 2.3 1.2zm11.9-6.1q-.6 0-1-.4t-.4-1q0-.5.4-1 .4-.4 1-.4.5 0 1 .4.4.5.4 1 0 .6-.4 1-.5.4-1 .4zm0 7.7q-.6 0-1-.4t-.4-1q0-.6.4-1t1-.4q.5 0 1 .4.4.4.4 1 0 .5-.4 1-.4.4-1 .4zm29.3-1.4l-10.2-6v-1.2l10.1-5.3v1.7l-8.3 4.2 8.4 4.7V88zm7 1.4q-2.6 0-4-2t-1.4-5.7q0-3.6 1.4-5.6 1.4-2 4-2 2.5 0 3.9 2t1.4 5.6q0 3.7-1.4 5.7t-4 2zm0-1.5q1.7 0 2.6-1.6 1-1.6 1-4.6 0-2.9-1-4.5-1-1.7-2.6-1.7-1.7 0-2.7 1.7-1 1.6-1 4.5 0 3 1 4.6 1 1.6 2.7 1.6zm12.4 1.5q-1 0-1.9-.5-.8-.4-1.4-1.3l-.6 1.5H510V73h2v.2q-.2.1-.2.3v6.3q.5-.9 1.4-1.4.9-.5 1.8-.5 2 0 3.3 1.4 1.2 1.4 1.2 4.2 0 1.9-.6 3.2-.7 1.3-1.7 2t-2.3.7zm-.3-1.6q1.3 0 2.2-1 .8-1 .8-3.2 0-2.1-.8-3.2-.8-1-2.1-1-1.4 0-2.2 1.1-.9 1.2-.9 3.1 0 4.2 3 4.2zm14.7-9.7v10.5q0 2.3-1.2 3.5-1.1 1.2-3 1.2-1 0-2-.4-.9-.4-1.5-1.2l1-1.3q.5.7 1 1 .7.4 1.5.4 1.1 0 1.8-.8t.7-2.3v-9.2h-4.1v-1.4h5.8zM523 90.4h-.3l.1-.2.2.1zm-.3 0v-.1.1zm5.7-14.6q-.5 0-.9-.3-.3-.4-.3-1 0-.4.3-.8.4-.4.9-.4t.9.4q.4.4.4.9t-.4.9q-.4.3-.9.3zM539 89.3q-2.4 0-3.8-1.5-1.5-1.4-1.5-4.2 0-1.8.7-3 .7-1.4 1.8-2 1.2-.7 2.6-.7 2 0 3.2 1.3 1.2 1.3 1.2 3.9v.8h-7.8q0 2 1.1 3 1 1 2.6 1 1.8 0 2.9-1.2l1 1q-1.5 1.6-4 1.6zm2.5-6.8q0-1.5-.8-2.4-.8-1-2-1t-2.1 1q-1 .8-1.1 2.4h6zm10 5.3q1.6 0 2.8-1.3l1 1.1q-1.6 1.8-4 1.8-1.5 0-2.7-.8-1.3-.7-2-2t-.7-3q0-1.6.7-3 .7-1.2 2-2 1.2-.7 2.8-.7 1.3 0 2.4.6 1 .5 1.7 1.4l-1 1.1q-.8-.9-1.5-1.2-.7-.4-1.8-.4-1 0-1.8.5t-1.2 1.4q-.5 1-.5 2.2 0 1.2.5 2.2.5 1 1.3 1.5 1 .6 2 .6zm2.7-6.7q0-.2.2 0h-.2zm.2 0q.1 0 0 0zm12.8 6.9q-1.6 1.3-3.5 1.3-1.8 0-2.6-1.1-.7-1.2-.7-3.6V83l.3-3.6h-2.5V78h2.6l.1-3 2-.2h.2v.1l-.3.4v.5l-.3 2.2h3.6v1.4h-3.7l-.2 3.8v1.2q0 2 .4 2.6.4.7 1.4.7.7 0 1.3-.2l1.4-.9.5 1.4zm3.3 1v-1.3h3V75.6h-2.8V74h7.4v1.5h-3v12.1h3.1V89h-7.7zm15.7.3q-1.2 0-2.2-.6-1-.7-1.7-2t-.7-3.2q0-1.9.7-3.2.7-1.2 1.7-1.8 1-.7 2.3-.7 1 0 1.9.5.8.5 1.3 1.4v-6.6h1.8v.2q-.2.1-.2.3v14.8l.2.7h-1.7l-.2-.8v-1q-.5 1-1.4 1.5-.8.5-1.8.5zm.2-1.5q1.5 0 2.2-1.2.7-1.1.7-3 0-2-.8-3.2-.7-1.2-2.2-1.2-1.4 0-2.2 1.1-.8 1-.8 3t.8 3.3q.8 1.2 2.3 1.2zm7.9-.1l2-2 2.9-3q1-1 1.5-2.2.6-1 .6-2.2 0-1.5-.7-2.1-.7-.7-1.9-.7-1 0-1.9.5-.8.4-1.1 1l-.3.5-.2.3h.2v.2h-.2l-1.3-1q.8-1.4 2-2.2 1.3-.8 2.8-.8 2 0 3.1 1.2 1.2 1.1 1.2 3.1 0 1.3-.6 2.5-.6 1.3-1.6 2.4L598 86l-1.6 1.6h6.1q.2 0 .3-.2h.2V89h-8.8v-1.4zm11.2.3v-2l8.4-4.7-8.3-4.2v-1.7l10.1 5.3V82l-10.2 6zm15 4.4q.7-.6 1.1-1.3.5-.8.5-1.2l-.1-.4-.5-.4-.5-.5-.1-.6q0-.6.3-1 .4-.4 1-.4.7 0 1.2.6.5.5.5 1.4 0 1.9-2.6 4.5l-.8-.7z" fill="#1d4494"/><path d="M429.9 115.4q-1.8 0-2.8-1.3-1-1.3-1-3.9v-6h1.7v6q0 2 .7 2.9.7.9 1.8.9 1.2 0 2-1 1-1 1-2.8v-6h1.6v10.2q0 .3.3.7h-1.7l-.2-.8v-.9q-.6 1-1.5 1.4-.9.6-2 .6zm13.4-6.8q2.1.7 3 1.4.8.7.8 1.9 0 1.5-1.2 2.5-1.1 1-3.3 1-2.8 0-4.7-1.8l1-1.6q.8 1 1.6 1.4.8.5 2.1.5t2-.5q.8-.4.8-1.3 0-.7-.6-1.1-.6-.5-2.1-1-4.2-1.2-4.2-3.4 0-1.3 1-2 1.1-.7 3-.7 1.5 0 2.6.4 1 .4 1.8 1.3l-1 1.2q-.5-.8-1.4-1.2-1-.4-1.9-.4-1 0-1.7.3-.6.4-.6 1t.6 1.1q.7.5 2.4 1zm2.4-1.7q0-.2.1 0h-.1zm.2 0zm-6.7 5h-.2v-.1h.2zm-.3 0zm16.1 3.4q-2.4 0-3.8-1.5-1.5-1.4-1.5-4.2 0-1.8.7-3 .7-1.4 1.8-2 1.2-.7 2.6-.7 2 0 3.2 1.3 1.2 1.3 1.2 3.9v.8h-7.8q0 2 1.1 3 1 1 2.6 1 1.8 0 2.9-1.2l1 1q-1.5 1.6-4 1.6zm2.5-6.8q0-1.5-.8-2.4-.8-1-2-1t-2.1 1q-1 .8-1.1 2.4h6zm13.3-2.1q-.7-.6-1.2-.8-.5-.3-1-.3-1 0-1.7.5-.8.4-1.3 1.3-.4.9-.4 2.2v5.8h-1.8v-11h1.8v2q.4-1 1.4-1.6 1-.6 2-.6 1.8 0 3 1.2l-.8 1.3zm0 0q.1.2 0 .1zm-.3.1h.2v.1h-.2v-.1z" fill="#1c4294"/><path d="M473.4 117v-1.5h10.3v1.5h-10.3zm13.6-2v-1.3h2.8v-8.2H487v-1.4h4.4v9.6h2.6v1.4h-7zm3.5-13.2q-.5 0-.8-.3-.4-.4-.4-1 0-.4.3-.8.4-.4 1-.4.4 0 .8.4t.4.9q0 .5-.4.9-.4.3-.9.3zm11.7 13.5q-1.2 0-2.2-.6-1-.7-1.7-2t-.7-3.2q0-1.9.7-3.2.7-1.2 1.7-1.8 1-.7 2.3-.7 1 0 1.9.5.8.5 1.3 1.4v-6.6h1.8v.2q-.2.1-.2.3v14.8l.2.7h-1.7l-.2-.8v-1q-.5 1-1.4 1.5-.8.5-1.8.5zm.2-1.5q1.5 0 2.2-1.2.7-1.1.7-3 0-2-.8-3.2-.7-1.2-2.2-1.2-1.5 0-2.2 1.1-.8 1-.8 3t.8 3.3q.8 1.2 2.3 1.2zm11.9-6.1q-.6 0-1-.4-.5-.4-.5-1 0-.5.5-1 .4-.4 1-.4.5 0 1 .4.4.5.4 1 0 .6-.4 1-.5.4-1 .4zm0 7.7q-.6 0-1-.4-.5-.4-.5-1t.5-1q.4-.4 1-.4.5 0 1 .4.4.4.4 1 0 .5-.4 1-.4.4-1 .4zm29.3-1.4l-10.2-6v-1.2l10.1-5.3v1.7l-8.3 4.2 8.4 4.7v1.9zm7 1.4q-2.6 0-4-2t-1.4-5.7q0-3.6 1.4-5.6 1.4-2 4-2 2.5 0 3.9 2t1.4 5.6q0 3.7-1.4 5.7t-4 2zm0-1.5q1.7 0 2.6-1.6 1-1.6 1-4.6 0-2.9-1-4.5-1-1.7-2.6-1.7-1.8 0-2.7 1.7-1 1.6-1 4.5 0 3 1 4.6 1 1.6 2.7 1.6zm12.4 1.5q-1 0-1.9-.5-.8-.4-1.4-1.3l-.6 1.5H558V99h2v.2q-.2.1-.2.3v6.3q.5-.9 1.4-1.4.9-.5 1.8-.5 2 0 3.3 1.4 1.2 1.4 1.2 4.2 0 1.9-.6 3.2-.7 1.3-1.7 2t-2.3.7zm-.3-1.6q1.3 0 2.2-1 .8-1 .8-3.2 0-2.1-.8-3.2-.8-1-2.1-1-1.4 0-2.2 1.1-.9 1.2-.9 3.1 0 4.2 3 4.2zm14.7-9.7v10.5q0 2.3-1.2 3.5-1.1 1.2-3 1.2-1 0-2-.4-.9-.4-1.5-1.2l1-1.3q.5.7 1 1 .7.4 1.5.4 1.1 0 1.8-.8t.7-2.3v-9.2h-4.1v-1.4h5.8zm-6.4 12.3h-.3l.1-.2.2.1zm-.3 0v-.1.1zm5.7-14.6q-.5 0-.9-.3-.3-.4-.3-1 0-.4.3-.8.4-.4.9-.4t.9.4q.3.4.3.9t-.3.9q-.4.3-.9.3zm10.6 13.5q-2.4 0-3.8-1.5-1.5-1.4-1.5-4.2 0-1.8.7-3 .7-1.4 1.8-2 1.2-.7 2.6-.7 2 0 3.2 1.3 1.2 1.3 1.2 3.9v.8h-7.8q0 2 1.1 3 1 1 2.6 1 1.8 0 2.9-1.2l1 1q-1.5 1.6-4 1.6zm2.5-6.8q0-1.5-.8-2.4-.8-1-2-1-1.3 0-2.1 1-1 .8-1.1 2.4h6zm10 5.3q1.6 0 2.8-1.4l1 1.2q-1.6 1.8-4 1.8-1.5 0-2.7-.8-1.3-.7-2-2-.7-1.4-.7-3t.7-3q.7-1.2 2-2 1.2-.7 2.8-.7 1.3 0 2.4.6 1 .5 1.7 1.4l-1 1.1q-.8-.9-1.5-1.2-.7-.4-1.8-.4-1 0-1.8.5t-1.2 1.4q-.5 1-.5 2.2 0 1.2.5 2.2.5 1 1.3 1.5 1 .6 2 .6zm2.7-6.8h.2l-.1.2-.1-.2zm.2 0q.1.2 0 .1zm12.8 7q-1.6 1.3-3.5 1.3-1.8 0-2.6-1.1-.7-1.1-.7-3.6V109l.3-3.6h-2.5V104h2.6l.1-3 2-.2h.2v.1l-.3.4v.5l-.3 2.2h3.6v1.4h-3.7l-.2 3.8v1.2q0 2 .4 2.6.4.7 1.4.7.7 0 1.3-.2l1.4-.9.5 1.4zm3.3 1v-1.3h3v-12.1h-2.8V100h7.4v1.5h-3v12.1h3.1v1.4h-7.7zm15.7.3q-1.2 0-2.2-.6-1-.7-1.7-2t-.7-3.2q0-1.9.7-3.2.7-1.2 1.7-1.8 1-.7 2.3-.7 1 0 1.9.5.8.5 1.3 1.4v-6.6h1.8v.2q-.2.1-.2.3v14.8l.2.7h-1.7l-.2-.8v-1q-.5 1-1.4 1.5-.8.5-1.8.5zm.2-1.5q1.5 0 2.2-1.2.7-1.1.7-3 0-2-.8-3.2-.7-1.2-2.2-1.2-1.5 0-2.2 1.1-.8 1-.8 3t.8 3.3q.8 1.2 2.3 1.2zM646 115v-12.8l-3 .9-.3-1 3.9-2h1.2v15H646zm7.5-1v-2l8.4-4.7-8.3-4.2v-1.7l10.1 5.3v1.2l-10.2 6zm15 4.4q.7-.6 1.1-1.3.5-.8.5-1.2l-.1-.4-.5-.4-.5-.5-.2-.6q0-.6.4-1t1-.4q.7 0 1.2.6.5.5.5 1.4 0 1.9-2.6 4.5l-.8-.7z" fill="#1d4494"/><path d="M426 130.1h1.7v2.2q.4-1.2 1.3-1.8.9-.6 2-.6 1.3 0 2.4.6 1 .7 1.6 2 .7 1.2.7 3 0 1.9-.7 3.2-.6 1.3-1.7 2-1 .7-2.3.7-1 0-1.8-.5-.9-.4-1.4-1.3v5.5H426v-15zm4.7 9.7q1.4 0 2.3-1 .9-1 .9-3.2 0-2-.8-3.1t-2.3-1.1q-1.3 0-2.2 1.1-.9 1.1-.9 3.5 0 1.9.9 2.9.8 1 2.1 1zm7.6-14.7h1.9v.2l-.2.3v6.5q.6-1 1.6-1.6 1-.6 2-.6 1.5 0 2.4 1 1 1.2 1 3.5v6.7h-1.8v-6.6q0-1.6-.5-2.4-.6-.7-1.5-.7-.7 0-1.5.4-.7.4-1.2 1.2-.5.8-.5 1.8v6.3h-1.7v-16zm16.3 16.2q-1.5 0-2.7-.7-1.1-.8-1.8-2-.6-1.3-.6-3t.6-3q.7-1.3 1.8-2 1.2-.7 2.7-.7 1.4 0 2.6.7 1.1.7 1.8 2 .6 1.3.6 3t-.6 3q-.7 1.2-1.8 2-1.2.7-2.6.7zm0-1.5q.9 0 1.6-.5.8-.6 1.2-1.5.4-1 .4-2.2 0-1.9-1-3-.8-1.3-2.2-1.3-1.5 0-2.4 1.2-.9 1.2-.9 3 0 1.3.4 2.3.5 1 1.2 1.5t1.7.5zm7.7-9.7h1.7v2q.6-1 1.6-1.6 1-.6 2-.6 1.5 0 2.4 1 .9 1.2.9 3.5v6.7h-1.7v-6.6q0-1.6-.5-2.4-.6-.7-1.5-.7-.7 0-1.5.4t-1.3 1.2q-.4.8-.4 1.8v6.3h-1.7v-11zm16.7 11.2q-2.4 0-3.8-1.5-1.5-1.4-1.5-4.2 0-1.8.7-3 .7-1.4 1.8-2 1.2-.7 2.6-.7 2 0 3.2 1.3 1.2 1.3 1.2 3.9v.8h-7.8q0 2 1.1 3 1 1 2.6 1 1.8 0 2.9-1.2l1 1q-1.5 1.6-4 1.6zm2.5-6.8q0-1.5-.8-2.4-.8-1-2-1t-2.1 1q-1 .8-1.1 2.4h6zm8.8-.8q-.6 0-1-.4t-.4-1q0-.5.4-1 .4-.4 1-.4.5 0 1 .4.4.5.4 1 0 .6-.4 1-.5.4-1 .4zm0 7.7q-.6 0-1-.4t-.4-1q0-.6.4-1t1-.4q.5 0 1 .4.4.4.4 1 0 .5-.4 1-.4.4-1 .4zm23.4-16.3v3l-.2 2-.2 1.2h-1.1l-.2-1.1q0-1.1-.2-2v-3h2zm3.6 0v3l-.2 2-.2 1.2h-1.1l-.2-1.1q0-1.1-.2-2v-3h2zM526 141v-12.8l-3 .9-.3-1 3.9-2h1.2v15H526zm8.3-1.3l2-2 2.9-3q1-1 1.5-2.2.6-1 .6-2.2 0-1.5-.7-2.1-.7-.7-1.9-.7-1 0-1.9.5-.8.4-1.1 1l-.3.5-.2.3h.2v.2h-.2l-1.3-1q.8-1.4 2-2.2 1.3-.8 2.8-.8 2 0 3.1 1.2 1.2 1.1 1.2 3.1 0 1.3-.6 2.5-.6 1.3-1.6 2.4L538 138l-1.6 1.6h6.1q.2 0 .3-.2h.2v1.7h-8.8v-1.4zm17.7-6.5q1.3.4 2 1.4.8 1 .8 2.4 0 1.2-.5 2.2-.6 1-1.6 1.6-1 .6-2.4.6-1.2 0-2.3-.5-1-.4-1.8-1.2l1.1-1.4q.7.8 1.3 1.2.6.4 1.6.4 1.4 0 2.2-.8.7-.8.7-2.2 0-1.5-1-2.2-.8-.8-2.5-.8h-.7v-1.3q2.1 0 2.9-.7.8-.8.8-2.2 0-1-.6-1.6-.6-.6-1.6-.6-1.5 0-2.7 1l-1-1q1.5-1.5 3.7-1.5 1.8 0 2.8 1 1.1 1 1.1 2.8 0 1.2-.6 2.1-.6 1-1.8 1.3zm-4.4 5v.1h-.2v-.2l.2.2zm-.3.1v-.1.1zm11-4v-1.6h8.6v1.6h-8.6zm17.9 6.7v-3.6h-6.5v-1.2l6.8-10h1.5v9.8h1.9v1.4h-2v3.7h-1.7zm-4.5-5h4.5v-6.9l-4.5 6.9zm15-4.6q1.3 0 2.3.6 1 .6 1.6 1.7.6 1.2.6 2.7 0 1.5-.6 2.6-.6 1.2-1.7 1.8-1 .6-2.4.6-1.3 0-2.5-.6t-2-1.8l1.4-1q.7 1 1.4 1.5.7.4 1.8.4.8 0 1.5-.4.6-.5 1-1.3t.4-1.9q0-1.6-.9-2.6-.8-1-2.1-1-.8 0-1.6.4-.7.4-1.2 1l-1.1-.4.5-7.6h7.6v1.5h-6.2l-.2 4.3q1.2-.5 2.4-.5zm-3.2 6.6q-.2-.2 0 0zm.2 0q0 .2-.2 0l.1-.1.1.1zm15.3-6.6q1.1 0 2 .7 1 .6 1.5 1.7.6 1.1.6 2.5 0 1.5-.6 2.6-.5 1.2-1.5 1.8-1 .6-2.2.6-2.2 0-3.4-1.8-1.2-2-1.2-5.2 0-2.7.6-4.5.7-2 1.8-2.9 1.2-1 2.8-1 2 0 3.3 1.4l-1 1.2-1-.8q-.5-.2-1.2-.2-.8 0-1.6.5-.8.4-1.5 1.7-.6 1.3-.6 3.5.5-.8 1.4-1.3.8-.5 1.8-.5zm2.4-2.8q0-.1.2 0v.1h-.2zm.3 0v.1h-.1v-.1zm-2.8 11.2q1 0 1.8-.9.8-1 .8-2.5 0-1.2-.4-2-.4-.7-1-1.1-.6-.4-1.3-.4-.8 0-1.6.6-.8.5-1.3 1.4v.6q0 1.1.3 2 .4 1 1.1 1.7.7.6 1.6.6zm7.4-5.5v-1.6h8.6v1.6h-8.6zm14 6.7q2-6.7 4.5-13.3h-6.3v-1.6h8.4v1q-3 7.4-4.7 14h-2zm14.3.3q-1.4 0-2.5-.5-1-.5-1.6-1.4-.5-1-.5-2 0-1.4.8-2.5t2.2-1.8q-1-.5-1.7-1.4-.6-1-.6-2 0-1.7 1-2.7 1-1 3-1t3 1q1 1 1 2.5 0 1-.7 2t-1.7 1.6q1.3.6 2 1.7.8 1.1.8 2.4 0 1.2-.5 2.1-.6 1-1.6 1.5t-2.4.5zm.4-8.8q.9-.5 1.4-1.3.6-.8.6-1.7 0-.9-.6-1.5t-1.8-.6q-1.1 0-1.7.6-.6.6-.6 1.5 0 1 .7 1.6.6.7 2 1.4zm-.4 7.3q1.3 0 2-.7.8-.7.8-1.9 0-1-.8-2-.9-1-2.4-1.4-1 .5-1.8 1.4-.7.9-.7 2 0 1 .8 1.9.8.7 2.1.7zm11.9-13.8q1.4 0 2.4.9 1 .7 1.6 2.2.6 1.4.6 3.3 0 4.4-1.3 6.7-1.3 2.2-3.8 2.2-2.1 0-3.5-1.3l1-1.2q.5.6 1 .9.6.2 1.4.2 1.6 0 2.5-1.6.9-1.6 1-4-.5.6-1.3.9-.7.2-1.6.2-1.2 0-2.2-.5-1-.6-1.6-1.6-.5-1-.5-2.4t.6-2.5q.5-1 1.5-1.7t2.2-.7zm0 8q1 0 1.7-.3t1.3-1q-.1-2.6-.8-3.9-.7-1.3-2.1-1.3-1.3 0-2 1-.8.8-.8 2.4 0 1.4.8 2.2.8.9 2 .9zm-2.7 4.7q0 .2-.2 0v-.1l.2.1zm-.3 0q-.1-.1 0 0zm15.1-12.7q2.2 0 3.4 2 1.2 2.1 1.2 5.7 0 3.7-1.2 5.7t-3.4 2q-2.3 0-3.5-2-1.2-2-1.2-5.7 0-3.6 1.2-5.6 1.2-2 3.5-2zm0 1.5q-1.4 0-2.2 1.7-.7 1.6-.7 4.5 0 1.6.2 2.8l5-6.6q-.3-1.2-1-1.8-.5-.6-1.3-.6zm0 12.4q1.3 0 2-1.6.9-1.6.9-4.6 0-1.4-.2-2.4l-5.1 6.5q.8 2 2.4 2zm11.1-14.8v3l-.2 2-.2 1.2h-1.1l-.2-1.1q0-1.1-.2-2v-3h2zm3.6 0v3l-.2 2-.2 1.2h-1.1l-.2-1.1q0-1.1-.2-2v-3h2zm7.2 19.3q.7-.6 1.1-1.3.5-.8.5-1.2l-.1-.4-.5-.4-.5-.5-.1-.6q0-.6.3-1 .4-.4 1-.4.7 0 1.2.6.5.5.5 1.4 0 1.9-2.6 4.5l-.8-.7zM431 167.3q-2.4 0-3.8-1.5-1.5-1.4-1.5-4.2 0-1.8.7-3 .7-1.4 1.8-2 1.2-.7 2.6-.7 2 0 3.2 1.3 1.2 1.3 1.2 3.9v.8h-7.8q0 2 1.1 3 1 1 2.6 1 1.8 0 2.9-1.2l1 1q-1.5 1.6-4 1.6zm2.5-6.8q0-1.5-.8-2.4-.8-1-2-1t-2.1 1q-1 .8-1.1 2.4h6zm4-4.4h1.6v1.1q.3-.6 1-1 .5-.3 1.2-.3t1.2.4q.6.5.7 1.2.3-.8 1-1.2.7-.4 1.5-.4 1 0 1.6.8.6.7.5 2v8.4h-1.6v-7.8q0-1.4-.2-1.8-.3-.4-.8-.4-.4 0-.8.4-.5.4-.7 1-.3.7-.3 1.3v7.3h-1.6v-7.6q0-1.4-.2-1.8-.3-.5-1-.5-.3 0-.7.3-.4.3-.6 1-.2.5-.2 1.3v7.3h-1.6v-11zm16.9-.2q2.4 0 3.6 1.2 1.2 1.2 1.2 4.2v5.8h-1.8v-1.7q-1 2-3.8 2-1.8 0-2.8-.9-1-.8-1-2.2 0-1.1.7-2 .7-.9 2-1.3 1.2-.5 2.8-.5 1.3 0 2.4.2-.1-1.9-1-2.6-.8-.8-2.4-.8-.8 0-1.6.3-.7.3-1.4 1l-.8-1.2q1.5-1.5 4-1.5zm-.6 10.1q1.8 0 2.8-1 1-1 1.1-3-1-.2-2.3-.2-1.8 0-2.9.6-1 .6-1 1.8 0 1.8 2.3 1.8zm9.2 1v-1.3h2.8v-8.2H463v-1.4h4.4v9.6h2.6v1.4h-7zm3.5-13.2q-.5 0-.8-.3-.4-.4-.4-1 0-.4.3-.8.4-.4 1-.4.4 0 .8.4t.4.9q0 .5-.4.9-.4.3-.9.3zm8 13.2v-1.3h3.2v-13.2h-3.1v-1.4h4.8v14.6h3.3v1.4h-8.2zm15.8-7.3q-.6 0-1-.4t-.4-1q0-.5.4-1 .4-.4 1-.4.5 0 1 .4.4.5.4 1 0 .6-.4 1-.5.4-1 .4zm0 7.7q-.6 0-1-.4t-.4-1q0-.6.4-1t1-.4q.5 0 1 .4.4.4.4 1 0 .5-.4 1-.4.4-1 .4zm23.4-16.3v3l-.2 2-.2 1.2h-1.1l-.2-1.1q0-1.1-.2-2v-3h2zm3.6 0v3l-.2 2-.2 1.2h-1.1l-.2-1.1q0-1.1-.2-2v-3h2zm4.4 15.9l3.8-5.5-3.7-5.4h1.9l2.8 4 2.7-4h1.8l-3.5 5.3 4 5.7h-2l-3-4.3-2.8 4.3h-2zm21.5-10.9l-.5 2-.8 2.5-2.7 7.7q-.6 1.6-1.5 2.3-.9.7-2.1.7-1.5 0-2.5-1l.7-1.1.9.5q.4.2 1 .2.9 0 1.4-.7.5-.6 1-2l-4.4-11h1.8l3.4 8.7 1.4-4.4.8-2.5.4-1.9h1.7zm-9 13h-.4v-.2l.2.1zm-.3 0h-.1zm11.9-3.1l6.7-8.4h-6.2v-1.5h8.5v1.2l-6.7 8.3h6.8l.3-.2h.2v1.7h-9.6v-1.2zm17.8 1.4q-1.6 0-3-1-1.5-.8-2.4-2.5-.9-1.8-.9-4.3t.8-4.3q.9-1.7 2.2-2.5 1.3-.9 2.8-.9 1.2 0 2.2.6 1.1.6 1.8 1.8.6 1.3.6 3v5.6h-1.4v-1q-1 1.2-2.4 1.2-1.3 0-2.2-1-1-.8-1-2.2 0-1.5 1.3-2.5 1.2-1 3.5-1h.7q0-1.4-.9-2.3-.8-1-2.3-1-1.2 0-2.2.8-1 .6-1.5 2-.6 1.4-.6 3.4 0 2.2.7 3.7t1.9 2.2q1.2.8 2.5.8 1.4 0 2.5-.8l.7 1.2q-1.6 1-3.4 1zm.6-5.6q1 0 1.6-1 .5-1 .5-3.2h-.8q-1.6 0-2.4.6-.9.6-.9 1.6t.5 1.5q.5.5 1.5.5zm10.8 5.5q-2.4 0-3.8-1.5-1.5-1.4-1.5-4.2 0-1.8.7-3 .7-1.4 1.8-2 1.2-.7 2.6-.7 2 0 3.2 1.3 1.2 1.3 1.2 3.9v.8h-7.8q0 2 1.1 3 1 1 2.6 1 1.8 0 2.9-1.2l1 1q-1.5 1.6-4 1.6zm2.5-6.8q0-1.5-.8-2.4-.8-1-2-1t-2.1 1q-1 .8-1.1 2.4h6zm4.2 6.5l3.8-5.5-3.7-5.4h1.9l2.8 4 2.7-4h1.8l-3.5 5.3 4 5.7h-2l-3-4.3-2.8 4.3h-2zm16.7-11.1q2.4 0 3.6 1.2 1.2 1.2 1.2 4.2v5.8h-1.8v-1.7q-1 2-3.8 2-1.8 0-2.8-.9-1-.8-1-2.2 0-1.1.7-2 .7-.9 2-1.3 1.2-.5 2.8-.5 1.3 0 2.4.2-.1-1.9-1-2.6-.8-.8-2.4-.8-.8 0-1.6.3-.7.3-1.4 1l-.8-1.2q1.5-1.5 4-1.5zm-.6 10.1q1.8 0 2.8-1 1-1 1.1-3-1-.2-2.3-.2-1.8 0-2.9.6-1 .6-1 1.8 0 1.8 2.3 1.8zm7.7-9.9h1.6v1.1q.3-.6 1-1 .5-.3 1.2-.3t1.2.4q.6.5.7 1.2.3-.8 1-1.2.7-.4 1.5-.4 1 0 1.6.8.6.7.5 2v8.4h-1.6v-7.8q0-1.4-.2-1.8-.3-.4-.8-.4-.4 0-.8.4-.5.4-.7 1-.3.7-.3 1.3v7.3h-1.6v-7.6q0-1.4-.2-1.8-.3-.5-1-.5-.3 0-.7.3-.4.3-.6 1-.2.5-.2 1.3v7.3h-1.6v-11zm12.5 0h1.7v2.2q.4-1.2 1.3-1.8.9-.6 2-.6 1.3 0 2.4.6 1 .7 1.6 2 .7 1.2.7 3 0 1.9-.7 3.2-.6 1.3-1.7 2-1 .7-2.3.7-1 0-1.8-.5-.9-.4-1.4-1.3v5.5H618v-15zm4.7 9.7q1.4 0 2.3-1 .9-1 .9-3.2 0-2-.8-3.1t-2.3-1.1q-1.3 0-2.2 1.1-.9 1.1-.9 3.5 0 1.9.9 2.9.8 1 2.1 1zm7.8 1.2v-1.3h3.2v-13.2h-3.1v-1.4h4.8v14.6h3.3v1.4h-8.2zm16.5.3q-2.4 0-3.8-1.5-1.5-1.4-1.5-4.2 0-1.8.7-3 .7-1.4 1.8-2 1.2-.7 2.6-.7 2 0 3.2 1.3 1.2 1.3 1.2 3.9v.8h-7.8q0 2 1.1 3 1 1 2.6 1 1.8 0 2.9-1.2l1 1q-1.5 1.6-4 1.6zm2.5-6.8q0-1.5-.8-2.4-.8-1-2-1t-2.1 1q-1 .8-1.1 2.4h6zm8.8 6.9q-.6 0-1-.5-.4-.4-.4-1 0-.5.4-.9t1-.4q.5 0 1 .4.3.4.3 1 0 .5-.4 1-.4.4-1 .4zm13.2-1.6q1.6 0 2.8-1.4l1 1.2q-1.6 1.8-4 1.8-1.5 0-2.7-.8-1.3-.7-2-2t-.7-3q0-1.6.7-3 .7-1.2 2-2 1.2-.7 2.8-.7 1.3 0 2.4.6 1 .5 1.7 1.4l-1 1.1q-.8-.9-1.5-1.2-.7-.4-1.8-.4-1 0-1.8.5t-1.2 1.4q-.5 1-.5 2.2 0 1.2.5 2.2.5 1 1.3 1.5 1 .6 2 .6zm2.7-6.8h.2l-.1.2-.1-.1zm.2 0q.1.2 0 .1zm8.2 8.3q-1.5 0-2.7-.7-1.1-.8-1.8-2-.6-1.3-.6-3t.6-3q.7-1.3 1.8-2 1.2-.7 2.7-.7 1.4 0 2.6.7 1.1.7 1.8 2 .6 1.3.6 3t-.6 3q-.7 1.2-1.8 2-1.2.7-2.6.7zm0-1.5q.9 0 1.6-.5.8-.6 1.2-1.5.4-1 .4-2.2 0-1.9-1-3-.8-1.3-2.2-1.3-1.5 0-2.4 1.2-.9 1.2-.9 3 0 1.3.4 2.3.5 1 1.2 1.5t1.7.5zm6.9-9.7h1.6v1.1q.3-.6 1-1 .5-.3 1.2-.3t1.2.4q.6.5.7 1.2.3-.8 1-1.2.7-.4 1.5-.4 1 0 1.6.8.6.7.5 2v8.4h-1.6v-7.8q0-1.4-.2-1.8-.3-.4-.8-.4-.4 0-.8.4-.5.4-.7 1-.3.7-.3 1.3v7.3h-1.6v-7.6q0-1.4-.2-1.8-.3-.5-1-.5-.3 0-.7.3-.4.3-.6 1-.2.5-.2 1.3v7.3h-1.6v-11zm16.2-5v3l-.2 2-.2 1.2h-1.1l-.2-1.1q0-1.1-.2-2v-3h2zm3.6 0v3l-.2 2-.2 1.2h-1.1l-.2-1.1q0-1.1-.2-2v-3h2z" fill="#1c4394"/></g><g font-size="24" font-family="Inconsolata"><path d="M426.7 303.6v-1.4h10.4v1.4h-10.4zm13.6-1.9v-1.4h2.8v-8.1h-2.7v-1.4h4.4v9.5h2.6v1.4h-7.1zm3.6-13.2q-.6 0-1-.4-.3-.4-.3-.9t.4-.9q.3-.3.9-.3.5 0 .8.4.4.3.4.8t-.4.9q-.3.4-.8.4zm11.6 13.5q-1.2 0-2.2-.7-1-.7-1.7-2-.6-1.3-.6-3.2 0-1.9.6-3.1.7-1.3 1.8-2 1-.5 2.2-.5 1 0 2 .5.7.5 1.2 1.4v-6.6h1.8v.1l-.2.3V301q0 .3.3.7h-1.8l-.2-.7v-1q-.5 1-1.4 1.5-.8.5-1.8.5zm.3-1.5q1.4 0 2.1-1.2.7-1.2.7-3.1 0-2-.7-3.1-.8-1.2-2.3-1.2-1.4 0-2.2 1-.8 1.1-.8 3 0 2 .8 3.3.8 1.3 2.4 1.3zm11.8-6.2q-.6 0-1-.4t-.4-1q0-.5.4-1 .4-.3 1-.3t1 .4q.4.4.4 1 0 .5-.4 1-.4.3-1 .3zm0 7.7q-.6 0-1-.4t-.4-1q0-.6.4-1t1-.4q.6 0 1 .4t.4 1q0 .6-.4 1t-1 .4zm29.4-1.4l-10.3-6v-1.1L497 288v1.7l-8.4 4.3 8.4 4.7v1.8zm6.9 1.4q-2.6 0-4-2t-1.4-5.7q0-3.5 1.4-5.6 1.4-2 4-2 2.5 0 4 2 1.3 2 1.3 5.6 0 3.7-1.4 5.7t-4 2zm0-1.5q1.7 0 2.6-1.6 1-1.6 1-4.6 0-2.8-1-4.5-1-1.7-2.6-1.7-1.7 0-2.7 1.7-1 1.7-1 4.5 0 3 1 4.6 1 1.6 2.7 1.6zm12.4 1.5q-1 0-1.9-.4-.8-.5-1.4-1.3l-.6 1.4h-1v-16h1.9v.2l-.2.3v6.2q.5-.8 1.4-1.4.9-.5 1.8-.5 2 0 3.3 1.4 1.2 1.5 1.2 4.2 0 2-.6 3.3-.7 1.3-1.7 2-1 .6-2.2.6zm-.3-1.5q1.3 0 2.2-1 .9-1 .9-3.3 0-2-.8-3.1T516 292q-1.4 0-2.2 1.2-.8 1.2-.8 3 0 4.3 3 4.3zm14.7-9.7v10.4q0 2.4-1.1 3.5-1.2 1.2-3 1.2-1.1 0-2-.4-1-.4-1.6-1.1l1-1.3 1 1q.7.3 1.5.3 1.1 0 1.8-.8.7-.7.7-2.3v-9.1h-4.1v-1.4h5.8zm-6.4 12.2h-.2v-.1h.2v.1zm-.3 0zm5.7-14.5q-.5 0-.8-.4-.4-.4-.4-.9t.3-.9q.4-.3 1-.3.4 0 .8.4.4.3.4.8t-.4.9q-.4.4-.9.4zm10.7 13.5q-2.4 0-4-1.5-1.3-1.5-1.3-4.2 0-1.8.6-3.1.7-1.3 1.8-2 1.2-.7 2.6-.7 2 0 3.2 1.3 1.3 1.3 1.3 3.9v.8h-7.9q.1 2 1.1 3t2.7 1q1.7 0 2.8-1.1l1 .9q-1.4 1.7-3.9 1.7zm2.4-6.8q0-1.6-.8-2.5-.8-.9-2-.9t-2.1.9q-1 .8-1.1 2.5h6zm10 5.2q1.7 0 2.9-1.3l1 1.2q-1.6 1.7-4 1.7-1.6 0-2.8-.8-1.3-.7-2-2t-.7-3q0-1.6.7-2.9.7-1.3 2-2 1.2-.8 2.8-.8 1.3 0 2.4.6 1 .5 1.7 1.5l-1 1q-.8-.8-1.5-1.2-.7-.4-1.8-.4-1 0-1.8.5-.7.5-1.2 1.5t-.5 2.1q0 1.3.5 2.2.5 1 1.3 1.6 1 .5 2 .5zm2.7-6.7q0-.2.2 0l-.1.1-.1-.1zm.2 0q.2.1 0 0zm12.8 7q-1.6 1.2-3.4 1.2-1.9 0-2.6-1.1-.8-1.1-.8-3.6v-1.4l.3-3.6h-2.4v-1.4h2.5l.1-3 2-.3h.2v.1l-.2.4-.1.6-.3 2.2h3.7v1.4h-3.8l-.2 3.7v1.3q0 1.9.4 2.6.4.7 1.4.7.7 0 1.3-.3l1.4-.8.5 1.3zm3.3 1v-1.4h3v-12.1H572v-1.4h7.4v1.4h-3v12.1h3.1v1.4h-7.7zm15.7.3q-1.2 0-2.2-.7-1-.7-1.7-2-.6-1.3-.6-3.2 0-1.9.6-3.1.7-1.3 1.8-2 1-.5 2.2-.5 1 0 2 .5.7.5 1.2 1.4v-6.6h1.8v.1l-.2.3V301q0 .3.3.7h-1.8l-.2-.7v-1q-.5 1-1.4 1.5-.8.5-1.8.5zm.3-1.5q1.4 0 2.1-1.2.7-1.2.7-3.1 0-2-.7-3.1-.8-1.2-2.3-1.2-1.4 0-2.2 1-.8 1.1-.8 3 0 2 .8 3.3.8 1.3 2.4 1.3zm13.5-6.7q1.3.4 2 1.4.8 1 .8 2.4 0 1.2-.5 2.2-.5 1-1.5 1.6-1 .6-2.5.6-1.2 0-2.2-.4-1.1-.5-1.9-1.3l1.1-1.3 1.3 1.1q.7.5 1.7.5 1.4 0 2-.9.8-.8.8-2.1 0-1.5-1-2.3-.8-.7-2.4-.7h-.8v-1.3q2.1 0 2.9-.8.8-.8.8-2.2 0-1-.6-1.6-.6-.6-1.5-.6-1.6 0-2.8 1.1l-1-1q1.5-1.5 3.7-1.5 1.8 0 2.9 1 1 1 1 2.7 0 1.2-.6 2.1-.6 1-1.7 1.3zm-4.4 5v.2l-.2-.1.1-.1h.1zm-.2.1q-.1-.1 0 0zm10.1 1.7v-1.8l8.4-4.7-8.3-4.3v-1.7l10.2 5.4v1.1l-10.3 6zm15 4.4q.7-.6 1.1-1.3.5-.7.5-1.2l-.1-.3-.5-.5-.5-.5-.1-.5q0-.6.4-1t1-.4q.6 0 1.1.5.5.6.5 1.4 0 2-2.5 4.6l-.9-.8z" fill="#1d4494"/><path d="M431.2 328q-1.7 0-2.8-1.3-1-1.3-1-3.8v-6.1h1.7v6q0 2 .7 3 .7.8 1.8.8 1.3 0 2.1-1 .9-1 .9-2.8v-6h1.6V327l.3.7h-1.7l-.2-.7v-1q-.5 1-1.5 1.5-.8.5-2 .5zm13.5-6.7q2 .6 2.9 1.3.8.8.8 2 0 1.4-1.1 2.4-1.2 1-3.4 1-2.8 0-4.7-1.8l1-1.6q.8 1 1.6 1.4.8.5 2.1.5t2-.4q.8-.5.8-1.3 0-.7-.6-1.2-.6-.4-2.1-1-4.2-1.1-4.2-3.3 0-1.3 1-2 1.1-.8 3-.8 1.6 0 2.6.4t1.8 1.3l-1 1.2q-.5-.7-1.4-1.2-1-.4-1.9-.4-1 0-1.7.4-.6.3-.6 1 0 .6.6 1 .7.6 2.5 1zm2.3-1.8q0-.1.2 0l-.1.1-.1-.1zm.2 0q.1 0 0 0zm-6.7 5q0 .1-.2 0v-.1h.2v.1zm-.3 0zm16.2 3.5q-2.4 0-4-1.5-1.3-1.5-1.3-4.2 0-1.8.6-3.1.7-1.3 1.8-2 1.2-.7 2.6-.7 2 0 3.2 1.3 1.3 1.3 1.3 3.9v.8h-7.9q.1 2 1.1 3t2.7 1q1.7 0 2.8-1.1l1 .9q-1.4 1.7-3.9 1.7zm2.4-6.8q0-1.6-.8-2.5-.8-.9-2-.9t-2.1.9q-.9.8-1.1 2.5h6zm13.3-2.2q-.7-.6-1.2-.8-.4-.2-1-.2-1 0-1.7.4-.8.4-1.2 1.3-.5.9-.5 2.2v5.9h-1.8v-11h1.8v2q.4-1.1 1.4-1.7 1-.6 2-.6 1.8 0 3 1.2l-.8 1.3zm0 0q.2.2 0 .2v-.1zm-.3.1h.3l-.1.2-.2-.1z" fill="#1c4294"/><path d="M474.7 329.6v-1.4h10.4v1.4h-10.4zm13.6-1.9v-1.4h2.8v-8.1h-2.7v-1.4h4.4v9.5h2.6v1.4h-7.1zm3.6-13.2q-.6 0-1-.4-.3-.4-.3-.9t.4-.9q.3-.3.9-.3.5 0 .8.4.4.3.4.8t-.4.9q-.3.4-.8.4zm11.6 13.5q-1.2 0-2.2-.7-1-.7-1.7-2-.6-1.3-.6-3.2 0-1.9.6-3.1.7-1.3 1.8-2 1-.5 2.2-.5 1 0 2 .5.7.5 1.2 1.4v-6.6h1.8v.1l-.2.3V327q0 .3.3.7h-1.8l-.2-.7v-1q-.5 1-1.4 1.5-.8.5-1.8.5zm.3-1.5q1.4 0 2.1-1.2.7-1.2.7-3.1 0-2-.7-3.1-.8-1.2-2.3-1.2-1.4 0-2.2 1-.8 1.1-.8 3 0 2 .8 3.3.8 1.3 2.4 1.3zm11.8-6.2q-.6 0-1-.4t-.4-1q0-.5.4-1 .4-.3 1-.3t1 .4q.4.4.4 1 0 .5-.4 1-.4.3-1 .3zm0 7.7q-.6 0-1-.4t-.4-1q0-.6.4-1t1-.4q.6 0 1 .4t.4 1q0 .6-.4 1t-1 .4zm29.4-1.4l-10.3-6v-1.1L545 314v1.7l-8.4 4.3 8.4 4.7v1.8zm6.9 1.4q-2.6 0-4-2t-1.4-5.7q0-3.5 1.4-5.6 1.4-2 4-2 2.5 0 4 2 1.3 2 1.3 5.6 0 3.7-1.4 5.7t-4 2zm0-1.5q1.7 0 2.6-1.6 1-1.6 1-4.6 0-2.8-1-4.5-1-1.7-2.6-1.7-1.7 0-2.7 1.7-1 1.7-1 4.5 0 3 1 4.6 1 1.6 2.7 1.6zm12.4 1.5q-1 0-1.9-.4-.8-.5-1.4-1.3l-.6 1.4h-1v-16h1.9v.2l-.2.3v6.2q.5-.8 1.4-1.4.9-.5 1.8-.5 2 0 3.3 1.4 1.2 1.5 1.2 4.2 0 2-.6 3.3-.7 1.3-1.7 2-1 .6-2.2.6zm-.3-1.5q1.3 0 2.2-1 .9-1 .9-3.3 0-2-.8-3.1T564 318q-1.4 0-2.2 1.2-.8 1.2-.8 3 0 4.3 3 4.3zm14.7-9.7v10.4q0 2.4-1.1 3.5-1.2 1.2-3 1.2-1.1 0-2-.4-1-.4-1.6-1.1l1-1.3 1 1q.7.3 1.5.3 1.1 0 1.8-.8.7-.7.7-2.3v-9.1h-4.1v-1.4h5.8zm-6.4 12.2h-.2v-.1h.2v.1zm-.3 0zm5.7-14.5q-.5 0-.8-.4-.4-.4-.4-.9t.3-.9q.4-.3 1-.3.4 0 .8.4.4.3.4.8t-.4.9q-.4.4-.9.4zm10.7 13.5q-2.4 0-4-1.5-1.3-1.5-1.3-4.2 0-1.8.6-3.1.7-1.3 1.8-2 1.2-.7 2.6-.7 2 0 3.2 1.3 1.3 1.3 1.3 3.9v.8h-7.9q.1 2 1.1 3t2.7 1q1.7 0 2.8-1.1l1 .9q-1.4 1.7-3.9 1.7zm2.4-6.8q0-1.6-.8-2.5-.8-.9-2-.9t-2.1.9q-1 .8-1.1 2.5h6zm10 5.2q1.7 0 2.9-1.3l1 1.2q-1.6 1.7-4 1.7-1.6 0-2.8-.8-1.3-.7-2-2t-.7-3q0-1.6.7-2.9.7-1.3 2-2 1.2-.8 2.8-.8 1.3 0 2.4.6 1 .5 1.7 1.5l-1 1q-.8-.8-1.5-1.2-.7-.4-1.8-.4-1 0-1.8.5-.7.5-1.2 1.5t-.5 2.1q0 1.3.5 2.2.5 1 1.3 1.6 1 .5 2 .5zm2.7-6.7q0-.2.2 0l-.1.1-.1-.1zm.2 0q.2.1 0 0zm12.8 7q-1.6 1.2-3.4 1.2-1.9 0-2.6-1.1-.8-1.1-.8-3.6v-1.4l.3-3.6h-2.4v-1.4h2.5l.1-3 2-.3h.2v.1l-.2.4-.1.6-.3 2.2h3.7v1.4h-3.8l-.2 3.7v1.3q0 1.9.4 2.6.4.7 1.4.7.7 0 1.3-.3l1.4-.8.5 1.3zm3.3 1v-1.4h3v-12.1H620v-1.4h7.4v1.4h-3v12.1h3.1v1.4h-7.7zm15.7.3q-1.2 0-2.2-.7-1-.7-1.7-2-.6-1.3-.6-3.2 0-1.9.6-3.1.7-1.3 1.8-2 1-.5 2.2-.5 1 0 2 .5.7.5 1.2 1.4v-6.6h1.8v.1l-.2.3V327q0 .3.3.7h-1.8l-.2-.7v-1q-.5 1-1.4 1.5-.8.5-1.8.5zm.3-1.5q1.4 0 2.1-1.2.7-1.2.7-3.1 0-2-.7-3.1-.8-1.2-2.3-1.2-1.4 0-2.2 1-.8 1.1-.8 3 0 2 .8 3.3.8 1.3 2.4 1.3zm11.6 1.2v-12.9l-3 1-.4-1 3.9-2h1.2v15h-1.7zm7.4-1.1v-1.8l8.4-4.7-8.3-4.3v-1.7l10.2 5.4v1.1l-10.3 6zm15 4.4q.7-.6 1.1-1.3.5-.7.5-1.2l-.1-.3-.5-.5-.5-.5-.1-.5q0-.6.4-1t1-.4q.6 0 1.1.5.5.6.5 1.4 0 2-2.5 4.6l-.9-.8z" fill="#1d4494"/><path d="M427.8 353.7v-1.4h3.2v-13.1h-3v-1.4h4.8v14.5h3.2v1.4h-8.2zm16.6.3q-2.4 0-4-1.5-1.3-1.5-1.3-4.2 0-1.8.6-3.1.7-1.3 1.8-2 1.2-.7 2.6-.7 2 0 3.2 1.3 1.3 1.3 1.3 3.9v.8h-7.9q.1 2 1.1 3t2.7 1q1.7 0 2.8-1.1l1 .9q-1.4 1.7-3.9 1.7zm2.4-6.8q0-1.6-.8-2.5-.8-.9-2-.9t-2.1.9q-.9.8-1.1 2.5h6zm14-4.4q-.4 1.9-1.6 4.8l-2.7 6.1h-1.3l-4.4-11h1.8l3.3 8.7 1.8-4.1q1.1-2.5 1.5-4.5h1.6zm7.6 11.2q-2.4 0-4-1.5-1.3-1.5-1.3-4.2 0-1.8.6-3.1.7-1.3 1.8-2 1.2-.7 2.6-.7 2 0 3.2 1.3 1.3 1.3 1.3 3.9v.8h-7.9q.1 2 1.1 3t2.7 1q1.7 0 2.8-1.1l1 .9q-1.4 1.7-3.9 1.7zm2.4-6.8q0-1.6-.8-2.5-.8-.9-2-.9t-2.1.9q-1 .8-1.1 2.5h6zm5 6.5v-1.4h3.2v-13.1h-3v-1.4h4.8v14.5h3.2v1.4h-8.2zm15.8-7.4q-.6 0-1-.4t-.4-1q0-.5.4-1 .4-.3 1-.3t1 .4q.4.4.4 1 0 .5-.4 1-.4.3-1 .3zm0 7.7q-.6 0-1-.4t-.4-1q0-.6.4-1t1-.4q.6 0 1 .4t.4 1q0 .6-.4 1t-1 .4zm24.4-10q1.3 0 2.3.6 1 .6 1.7 1.8.6 1.1.6 2.6t-.7 2.7q-.6 1-1.6 1.7-1.1.6-2.4.6-1.4 0-2.6-.6-1.1-.6-1.9-1.7l1.4-1q.6 1 1.3 1.4.7.4 1.8.4.8 0 1.5-.4.7-.5 1-1.3.5-.8.5-1.8 0-1.7-1-2.6-.8-1-2.1-1-.8 0-1.5.4-.8.3-1.3 1l-1-.4.4-7.6h7.6v1.5h-6.2l-.2 4.3q1.2-.6 2.4-.6zm-3.2 6.7q-.1-.2 0 0zm.2 0q0 .1-.2 0l.1-.2.1.2zm12.8 6.3q.7-.6 1.1-1.3.5-.7.5-1.2l-.1-.3-.5-.5-.5-.5-.1-.5q0-.6.4-1t1-.4q.6 0 1.1.5.5.6.5 1.4 0 2-2.5 4.6l-.9-.8zm-88.5 12.9h-.6q-1.2 0-2 .5.4.8.4 1.8t-.4 2q-.5.8-1.4 1.3-.8.5-2 .5-1 0-1.7-.3-.4.5-.4 1 0 .6.7.8.7.3 2.6.3 2.4 0 3.2.7.9.7.9 2 0 1.5-1.2 2.4-1.1 1-3.6 1-2.3 0-3.7-.8-1.3-.7-1.3-2 0-1 .5-1.6.4-.6 1.2-1-.8-.5-.8-1.4 0-1 1-2-.6-.6-1-1.3-.2-.7-.2-1.6 0-1 .4-2 .5-.8 1.4-1.3.8-.5 2-.5 1.8 0 2.8 1l1.2-.7q.6-.3 1.4-.3h.4l.2 1.5zm-6 4.7q1 0 1.7-.7t.7-1.7q0-1-.7-1.7t-1.7-.7q-1 0-1.7.7t-.7 1.7q0 1 .7 1.7t1.7.7zm3.7 6.2q0-.6-.2-1l-.8-.4-1.8-.1q-1.8 0-2.8-.3-.6.3-.8.8-.2.4-.2 1 0 .8.9 1.3t2.5.5q1.6 0 2.4-.5.8-.5.8-1.3zm13.1-9.8q-.7-.6-1.2-.8-.4-.2-1-.2-1 0-1.7.4-.8.4-1.2 1.3-.5.9-.5 2.2v5.9h-1.8v-11h1.8v2q.4-1.1 1.4-1.7 1-.6 2-.6 1.8 0 3 1.2l-.8 1.3zm0 0q.2.2 0 .2v-.1zm-.3.1h.3l-.1.2-.2-.1zm8.1 8.9q-1.5 0-2.6-.8-1.2-.7-1.8-2-.7-1.3-.7-3 0-1.6.7-3 .6-1.2 1.8-2 1.1-.7 2.6-.7 1.4 0 2.6.8 1.1.7 1.8 2 .6 1.3.6 3 0 1.6-.6 2.9-.7 1.3-1.8 2-1.2.7-2.6.7zm0-1.5q1 0 1.6-.6.8-.5 1.2-1.5.4-1 .4-2.2 0-1.9-.9-3-1-1.2-2.3-1.2-1.4 0-2.4 1.2-.9 1.1-.9 3 0 1.2.4 2.2.5 1 1.2 1.5.7.6 1.7.6zm11.3 1.5q-1.7 0-2.8-1.3-1-1.3-1-3.8v-6.1h1.7v6q0 2 .7 3 .7.8 1.8.8 1.3 0 2.1-1 .9-1 .9-2.8v-6h1.6V379l.3.7h-1.7l-.2-.7v-1q-.5 1-1.5 1.5-.8.5-2 .5zm8.1-11.2h1.8v2.1q.3-1.2 1.2-1.8.9-.6 2.1-.6 1.3 0 2.3.7 1 .6 1.7 1.9.6 1.2.6 3 0 2-.7 3.3-.6 1.3-1.7 2-1 .6-2.2.6-1 0-1.9-.4-.9-.5-1.4-1.3v5.4h-1.8v-15zm4.8 9.7q1.3 0 2.2-1 .9-1 .9-3.3 0-2-.8-3-.8-1.2-2.3-1.2-1.3 0-2.2 1.2-.8 1-.8 3.4 0 2 .8 2.9.8 1 2.2 1zm11.5-6.2q-.6 0-1-.4t-.4-1q0-.5.4-1 .4-.3 1-.3t1 .4q.4.4.4 1 0 .5-.4 1-.4.3-1 .3zm0 7.7q-.6 0-1-.4t-.4-1q0-.6.4-1t1-.4q.6 0 1 .4t.4 1q0 .6-.4 1t-1 .4zm23.4-16.2v3l-.2 2-.1 1.2h-1.2l-.1-1.2-.2-2v-3h1.8zm3.6 0v3l-.2 2-.1 1.2H517l-.1-1.2-.2-2v-3h1.8zm8.9 16.2q-1.2 0-2.2-.7-1-.7-1.7-2-.6-1.3-.6-3.2 0-1.9.6-3.1.7-1.3 1.8-2 1-.5 2.2-.5 1 0 2 .5.7.5 1.2 1.4v-6.6h1.8v.1l-.2.3V379q0 .3.3.7h-1.8l-.2-.7v-1q-.5 1-1.4 1.5-.8.5-1.8.5zm.3-1.5q1.4 0 2.1-1.2.7-1.2.7-3.1 0-2-.7-3.1-.8-1.2-2.3-1.2-1.4 0-2.2 1-.8 1.1-.8 3 0 2 .8 3.3.8 1.3 2.4 1.3zm12.6 1.5q-2.4 0-4-1.5-1.3-1.5-1.3-4.2 0-1.8.6-3.1.7-1.3 1.8-2 1.2-.7 2.6-.7 2 0 3.2 1.3 1.3 1.3 1.3 3.9v.8h-7.9q.1 2 1.1 3t2.7 1q1.7 0 2.8-1.1l1 .9q-1.4 1.7-3.9 1.7zm2.4-6.8q0-1.6-.8-2.5-.8-.9-2-.9t-2.1.9q-1 .8-1.1 2.5h6zm14-4.4q-.4 1.9-1.6 4.8l-2.7 6.1h-1.3l-4.4-11h1.8l3.3 8.7 1.8-4.1q1.1-2.5 1.5-4.5h1.6zm6.2-5v3l-.2 2-.1 1.2h-1.2l-.1-1.2-.2-2v-3h1.8zm3.6 0v3l-.2 2-.1 1.2H565l-.1-1.2-.2-2v-3h1.8z" fill="#1c4394"/></g><path d="M423.8 96.7H678V123H423.8zm3.1 210.4H681v26.3H426.9z" opacity=".4" fill="#6bb33e"/></svg>