<svg xmlns="http://www.w3.org/2000/svg" width="740" height="450" fill="none"><path fill="#fff" d="M0 0h740v450H0z"/><path fill="#1C4394" d="M21.6 191.7v-2.4q0-1.6-.5-2.1-.5-.6-1.6-.6H19v-1.3h.5q1.1 0 1.7-.6.5-.6.5-2V181q0-4.2 4.4-4.2h1.5v1.4h-2q-2.2 0-2.2 2.5v1.7q0 2.7-2 3.5 2 .7 2 3.8l-.1 2q0 1.6.7 2.2.7.7 2.3.7h1.2v1.3h-.8l-2.1-.1q-1 0-1.7-.6-1.3-1-1.3-3.5"/><path fill="#1D4494" d="M42.6 218.5H53v1.5H42.6zm13.7-11.4h4.4v9.6h2.6v1.4h-7.1v-1.4H59v-8.2h-2.7zm2.7-4.4q.4-.4.9-.4t.8.4q.4.4.4.9a.95.95 0 0 1-.4.8.95.95 0 0 1-.8.4q-.5 0-.9-.4a.95.95 0 0 1-.4-.8q0-.5.4-.9m15.7 6v-6.6h1.8v.4q-.2.1-.2.3V217l.1 1h-1.7v-1.8q-.6 1-1.5 1.5-1 .5-1.9.5t-1.7-.3q-.8-.4-1.4-1.1t-1-1.8q-.3-1.1-.3-2.6t.4-2.6q.4-1 1-1.7.7-.7 1.5-1 .8-.4 1.7-.4 1.1 0 2 .6.8.5 1.2 1.3zm-5.1.4q-1 .9-1 3.1 0 2 .7 3.4.8 1.2 2.4 1.2l.7-.1.8-.4.6-.6.5-.9q.2-.8.2-2.3V211l-.3-1q-.1-.5-.4-.7a1.5 1.5 0 0 0-.6-.5l-.8-.4q-.3-.2-.7-.2-.7 0-1.2.2t-1 .7zm14.9-.8q.4.5.4 1 0 .6-.4 1t-1 .4-1-.4-.4-1 .4-1 1-.4q.5 0 1 .4m0 7.7q.4.4.4 1 0 .5-.4 1-.4.3-1 .3t-1-.3q-.4-.4-.4-1t.4-1 1-.4q.5 0 1 .4m28.3-9.8-8.4 4.2 8.4 4.7v1.9l-10.2-6v-1.2l10.2-5.3zm7.1 12.1q-1.3 0-2.3-.5a5.5 5.5 0 0 1-1.7-1.6q-.7-1-1-2.5-.4-1.4-.4-3.1 0-1.8.4-3.2t1-2.4q.8-1 1.8-1.5t2.2-.5q1 0 2 .4.9.5 1.6 1.4.8 1 1.2 2.4t.4 3.4q0 2.2-.5 3.6-.4 1.5-1.2 2.4-.7 1-1.7 1.3-.9.4-1.8.4m-2.5-3q1.1 1.4 2.5 1.4.6 0 1.2-.3.7-.3 1.2-1t.8-1.9q.3-1.1.3-3 0-1.7-.3-2.9-.4-1.1-.9-1.8t-1-1q-.6-.3-1.3-.3t-1.3.3q-.7.3-1.2 1-.6.6-1 1.7-.3 1.1-.3 3 0 1.6.4 2.9.3 1.2.9 2zm9.8-13.2h2l-.1.3-.1.2v6.2q.5-.9 1.4-1.4t1.8-.5q1 0 1.8.3t1.4 1q.6.8 1 1.8.3 1 .3 2.5t-.4 2.6a4.8 4.8 0 0 1-1 1.8q-.6.7-1.5 1-.8.4-1.6.4a4.6 4.6 0 0 1-1.9-.4q-.8-.5-1.4-1.3l-.6 1.5h-1v-16zm3 14.3.8.3.7.1 1-.2q.6-.1 1.1-.6t.8-1.2q.4-.8.4-2 0-2.2-1-3.3-.8-1.2-2.5-1.2-.6 0-1.3.5-.6.4-1 1.1-.2.7-.2 2.4v1.7q0 .7.2 1.2l.4.7q.2.3.6.5m10.6-9.3h5.8v10.5q0 1.2-.3 2-.3 1-1 1.5a2.4 2.4 0 0 1-1.3.8q-.8.3-1.7.4-2.1 0-3.4-1.6l1.2-1.5v.3l.2.2q0 .2.3.4l.7.4q.5.3 1.1.3 1 0 1.8-.8.7-.7.7-2.3v-9.2h-4.1zm4-4.4q.4-.4 1-.4.5 0 .8.4.4.4.4.9a.95.95 0 0 1-.4.8.95.95 0 0 1-.8.4q-.5 0-1-.4-.3-.3-.3-.8t.4-.9zm11.2 4.1q.9 0 1.7.4.8.3 1.4 1 .6.5 1 1.5t.4 2.4v.8h-7.9q0 1.1.4 1.9t.9 1.2q.5.5 1.2.7.6.2 1.3.2 1.7 0 2.8-1.2l1 1q-1.4 1.6-3.9 1.6-1.2 0-2.2-.3a5 5 0 0 1-1.7-1.1 4.8 4.8 0 0 1-1-1.8q-.4-1.1-.4-2.5t.3-2.4q.4-1.1 1.1-1.8a4.6 4.6 0 0 1 1.6-1.2 5.3 5.3 0 0 1 2-.4m-3.3 4.7h6v-.4q0-.6-.2-1.1a2.5 2.5 0 0 0-.6-1 2.5 2.5 0 0 0-1-.6q-.4-.2-1-.2-1.2 0-2 .8-1 .8-1.2 2.5m20-2.5-1.2 1.4-.1-.2v-.2l-.2-.4-.6-.6q-.8-.6-2.2-.6-.7 0-1.3.2-.7.3-1.1.9-.5.5-.8 1.3-.3.7-.3 1.7 0 .9.3 1.7t.8 1.4l1.2.9q.7.3 1.5.3 1.7 0 2.9-1.4l1 1.2q-1.7 1.7-4 1.7-1.2 0-2.2-.4a4.4 4.4 0 0 1-1.7-1.2 5.3 5.3 0 0 1-1.2-1.8q-.4-1-.4-2.3 0-1.2.4-2.3a5.3 5.3 0 0 1 1.2-1.8 6.5 6.5 0 0 1 1.7-1.2q1-.4 2.2-.4 1.3 0 2.4.6 1 .5 1.7 1.4zm5.6-4.8 1.9-.3v.4l-.2.2-.2 2.6h3.6v1.4h-3.6q-.3 2.2-.3 4v2l.3 1.2q.2.5.6.8.4.2 1 .2 1.2 0 2.5-1l.5 1.4q-1.6 1.2-3.4 1.2-1.7 0-2.5-1t-.7-3.4v-2.3l.2-3h-2.5V207h2.6l.2-3zm9.6-1.1h7.4v1.4h-3v12.2h3.1v1.4h-7.7v-1.4h3v-12.2h-2.8zm18.8 5.6v-6.6h1.8v.4q-.2.1-.2.3V217l.1 1h-1.7v-1.8q-.6 1-1.5 1.5-1 .5-1.9.5a4.8 4.8 0 0 1-1.7-.3q-.8-.4-1.4-1.1t-1-1.8q-.3-1.1-.3-2.6t.4-2.6q.4-1 1-1.7.7-.7 1.5-1 .8-.4 1.7-.4 1.1 0 2 .6.8.5 1.2 1.3zm-5.1.4q-1 .9-1 3.1 0 2 .7 3.4.8 1.2 2.4 1.2l.7-.1.8-.4.6-.6.5-.9q.2-.8.2-2.3V211l-.3-1q-.1-.5-.4-.7a1.5 1.5 0 0 0-.6-.5l-.8-.4q-.3-.2-.7-.2-.7 0-1.2.2t-1 .7zm15.4-6v15h-1.7v-13l-3 1-.4-1 3.9-2zm5.8 3.1v-1.7l10.2 5.3v1.2l-10.3 6v-2l8.4-4.7-8.3-4.2zm18.3 11.4q0 1.9-2.5 4.5l-.9-.7q.7-.6 1.1-1.3.5-.8.5-1.2a.68.68 0 0 0-.2-.5l-.4-.4-.4-.4-.2-.6q0-.6.4-1t1-.4 1.1.6q.5.5.5 1.4M43.3 233.1H45v6.1q0 1 .2 1.8.2.7.5 1.1.4.5.8.7l1 .2q.6 0 1.1-.3l1-.7q.4-.5.6-1.2.3-.7.3-1.6v-6h1.7v9.9l.1 1h-1.8v-1.7q-.5 1-1.5 1.4-.8.5-2 .5-.8 0-1.4-.2-.7-.4-1.3-1-.5-.6-.8-1.6-.2-1-.2-2.3v-6.1m20.8 1.5-1 1.5v-.2l-.1-.2a4 4 0 0 0-1.3-1q-.7-.5-1.8-.5h-.8l-.8.4-.5.5q-.2.3-.2.7l.2.5.4.4.9.4 1.5.5q2 .6 2.9 1.3.8.8.8 1.9 0 .7-.3 1.4-.3.6-.9 1-.6.6-1.4.9-.9.2-2 .2-2.7 0-4.6-1.7l1-1.7.1.2.2.4.5.5 1.2.6.8.2h1.9l.9-.4q.4-.2.6-.5.3-.4.3-.8 0-.6-.6-1-.6-.5-2.1-1l-1.4-.3-1.3-.6-.7-.6-.5-.8-.2-1q0-.6.4-1.1l.8-1 1.4-.6q.8-.2 1.7-.2 2.5 0 4 1.7m7.9-1.7q.9 0 1.7.3t1.4 1q.6.5 1 1.5t.4 2.4v.7h-7.9q0 1.2.4 2t.9 1.2q.5.5 1.2.7.6.2 1.3.2 1.7 0 2.8-1.2l1 1q-1.4 1.6-3.9 1.6-1.2 0-2.2-.3a5 5 0 0 1-1.7-1.1 4.8 4.8 0 0 1-1-1.8q-.4-1.1-.4-2.5t.3-2.4q.4-1.1 1.1-1.8.7-.8 1.6-1.2a7 7 0 0 1 2-.3m-3.3 4.6h6v-.4q0-.6-.2-1.1a2.5 2.5 0 0 0-.6-1l-1-.6q-.4-.2-1-.2-1.2 0-2 .8-1 .8-1.2 2.5m11.5-4.4H82l-.1 2.1q.5-1.1 1.6-1.7 1-.6 2.3-.6 1.8 0 3 1.2l-.8 1.6-.5-.6-.5-.4-.5-.3h-.8q-.7 0-1.4.3-.7.4-1.3 1a4.8 4.8 0 0 0-.8 1.4 4.8 4.8 0 0 0-.3 1.7v5.3h-1.7zM91.4 244v-10.9h1.8v2q.6-1 1.6-1.6t2-.6q.7 0 1.3.2.6.3 1 .8.5.6.8 1.4.2.9.2 2.1v6.7h-1.7v-6.6q0-1.7-.6-2.4-.5-.7-1.4-.7l-1.1.2q-.6.2-1 .7-.5.4-.8 1-.3.7-.3 1.5v6.3h-1.8zm12.6-9.6q1.4-1.5 3.9-1.5 2 0 3.1 1 1.2 1 1.2 3.4v6.8h-1.6v-1.2q-1.8 1.4-4 1.4a5.5 5.5 0 0 1-1.5-.2l-1.2-.7-.7-1-.2-1.1q0-1.7 1.4-2.6 1.4-1 4.1-1h2v-.5q0-1.6-.6-2.3-.7-.6-2.1-.6-1.8 0-3 1.2l-.8-1zm6.6 4.5H109q-1.3 0-2.2.2-.8.2-1.3.5t-.7.7l-.1.9q0 .7.7 1.3.6.5 1.6.5.7 0 1.3-.2l1-.5.7-.7.4-.6q.2-.5.2-1.3zm4.1 5.1v-10.9h1.6v1q.4-.5 1-.9.6-.3 1.2-.3.7 0 1.3.4.5.5.6 1.2.4-.8 1-1.2.7-.4 1.5-.4 1.1 0 1.7.8.5.8.4 2v8.4h-1.6v-9l-.3-.6q-.1-.3-.3-.3h-.4l-.7.2q-.3.2-.5.6l-.4.9-.1 1v7.2H119v-7.7q0-1.3-.3-1.8-.2-.4-.9-.4-.5 0-1.1.7-.5.6-.5 1.9v7.3h-1.6zm17.3-11.1q.9 0 1.7.3t1.4 1q.6.5 1 1.5t.4 2.4v.7h-7.9q0 1.2.4 2t.9 1.2q.5.5 1.2.7.6.2 1.3.2 1.7 0 2.8-1.2l1 1q-1.4 1.6-3.9 1.6-1.2 0-2.2-.3a5 5 0 0 1-1.7-1.1 4.8 4.8 0 0 1-1-1.8q-.4-1.1-.4-2.5t.3-2.4q.4-1.1 1.1-1.8a4.6 4.6 0 0 1 1.6-1.2 7 7 0 0 1 2-.3m-3.3 4.6h6v-.4q0-.6-.2-1.1a2.5 2.5 0 0 0-.6-1l-1-.6q-.4-.2-1-.2-1.2 0-2 .8-1 .8-1.2 2.5"/><path fill="#1A4394" d="M144.5 234.3q.4.5.4 1 0 .6-.4 1t-1 .4-1-.4-.4-1 .4-1 1-.4q.5 0 1 .4m0 7.7q.4.4.4 1 0 .5-.4 1-.4.3-1 .3t-1-.3q-.4-.4-.4-1t.4-1 1-.4q.5 0 1 .4m24.8-11-.1-1.6q0-.7.3-1t.7-.3.8.4q.3.3.3 1.1t-.8 3l-.6 1.6-1.3-.3.5-1.6.2-1.4zm-4 0-.3-1.6q0-.7.4-1 .3-.3.7-.3t.7.4q.4.3.4 1.1t-.8 3l-.6 1.6-1.4-.3.6-1.6.1-.7.1-.7zm15.7-1.9v15h-1.7v-13l-3 1-.4-1 3.9-2zm6.6 2.4q.7-1.2 1.8-1.8a4.4 4.4 0 0 1 2.4-.7q1 0 1.7.4.8.3 1.4.9.6.5 1 1.3.3.8.3 1.6l-.2 1.4-.6 1.2-.8 1-.9 1-1.4 1.3-.7.7-.8.8-.7 1-.6 1h6.5l.2-.2h.1v1.7h-8.8v-1q1-1.8 2-3.1t2-2.1l1-1q.7-.6 1-1.1l.7-1q.2-.3.2-.7l.1-.8q0-.6-.2-1a2.5 2.5 0 0 0-.6-1l-1-.6q-.4-.2-1-.2l-1 .2-1 .4-.5.6-.2.4-.1.3-1.3-1zm20 1.4q0 1-.6 2-.6.8-1.6 1.2 1.2.4 1.9 1.5.7 1 .7 2.4 0 .9-.4 1.7-.3.7-.9 1.3t-1.5 1q-.9.3-2 .3-2.2 0-3.8-1.7l1.3-1.5.1.4.2.3.4.3q.1.2.7.5l1.2.2q.7 0 1.2-.2l1-.7q.4-.4.6-1 .3-.5.3-1.2 0-1.3-1-2-1-.8-2.6-.8h-.7v-1.3q1.1 0 1.8-.2.8-.2 1.2-.6.5-.4.7-.9t.2-1.1q0-.5-.2-.8l-.5-.7-.8-.5-1-.2q-1.6 0-2.6 1.1l-1-1q1.5-1.6 3.6-1.6.9 0 1.6.3.8.3 1.3.8.6.5.9 1.2t.3 1.5m10.9.2h1.7l-3.5 5.3 4 5.7h-2l-3-4.3-2.8 4.3h-2l3.9-5.6-3.8-5.4h1.9l2.8 4zm4.7.8-.3-.8h2.1v.7l3.2 8.1 2-5.9.6-1.5.3-1.4h1.8l-.5 1.4-.6 1.8-3 7.8-.4 1.2q-.6 1.6-1.5 2.3t-2 .7q-1.6 0-2.6-1l1-1.5v.2l.1.2.1.1.2.2q.2.2.5.2l.5.1q.7 0 1.2-.4.6-.4 1-1.5l.4-.9zm12.3-.8h8.5v1.2l-6.7 8.3h6.9l.4-.2v1.7H235v-1.2l6.8-8.3h-6.3zm17.8-2.1-.1-1.6q0-.7.3-1t.7-.3.8.4q.3.3.3 1.1t-.8 3l-.6 1.6-1.3-.3.5-1.6.2-1.4zm-4 0-.3-1.6q0-.7.4-1 .3-.3.7-.3t.7.4q.4.3.4 1.1t-.8 3l-.6 1.6-1.4-.3.6-1.6.1-.7.1-.7zM25.9 259v1.7q0 1.4.5 2 .6.6 1.6.6h.5v1.3H28q-1 0-1.6.6-.5.5-.5 2.1v2.4q0 2.1-.9 3.2-1 1-3 1h-2v-1.3h2.2a.68.68 0 0 0 .5-.2h.3l.3-.3q1-.7 1-2.4v-2q0-3 2-3.8-2.2-.8-2.2-3.5l.1-1.7q0-1.4-.6-2-.6-.5-1.8-.5H20v-1.4h2.5q.9.1 1.6.6.8.4 1.3 1.3.5.8.5 2.3"/><path stroke="#1B4394" d="M9.2 165.7H304v120.5H9.2z"/><path fill="#1C4394" d="M404.8 65.5v-2.4q0-1.6-.5-2.1-.6-.6-1.6-.6h-.5v-1.3h.5q1 0 1.6-.6t.6-2v-1.7q0-4.2 4.3-4.2h1.5V52h-2q-2.2 0-2.2 2.5l.1 1.7q0 2.7-2 3.6 2 .6 2 3.7l-.1 2q0 1.6.7 2.2.7.7 2.3.7h1.2v1.3h-2.9q-1-.2-1.7-.7-1.3-1-1.3-3.5"/><path fill="#1A4394" d="M409 184.8v1.7q0 1.4.6 2 .5.6 1.6.6h.5v1.3h-.5q-1 0-1.6.6-.5.5-.5 2.1v2.4q0 2.1-1 3.2-.9 1-3 1h-2v-1.3h2.2q.4 0 .6-.2h.3l.3-.2q1-.7 1-2.5l-.1-2q0-3 2-3.7-2-1-2-3.6v-1.7q0-1.3-.6-2-.6-.5-1.8-.5h-1.8v-1.4h2.4q1 .1 1.7.6.8.4 1.3 1.3.5.8.5 2.3z"/><path stroke="#1B4394" d="M391.3 41.5h339v167.2h-339z"/><path fill="#1C4494" d="M17.9 145.1h1.5v5.4q0 .9.2 1.5.1.6.4 1l.7.6.9.1 1-.2.8-.6q.4-.4.6-1t.2-1.5v-5.3h1.5v8.7l.1 1h-1.6v-1.6a4 4 0 0 1-1.3 1.3q-.7.4-1.7.4-.7 0-1.3-.2-.6-.3-1-.8a4.8 4.8 0 0 1-.8-1.4q-.2-.9-.2-2V145zm18.2 1.3-.8 1.3-.1-.2v-.2l-1.2-.8a2.54 2.54 0 0 0-1.5-.5l-.8.1-.7.3-.4.4-.2.6q0 .3.2.5 0 .2.4.4l.7.3 1.3.5q1.8.4 2.6 1.1.7.7.7 1.6 0 .7-.3 1.2-.2.6-.8 1l-1.2.7q-.8.2-1.7.2-2.4 0-4-1.5l.8-1.5.1.2.2.3q0 .2.4.5l1 .5.8.2h1.6l.8-.3.5-.5q.3-.3.3-.7 0-.5-.5-.9-.6-.4-1.9-.8l-1.2-.4q-.8-.2-1.1-.5l-.6-.5-.5-.7-.1-.8.2-1q.3-.5.8-.8a3.4 3.4 0 0 1 1.2-.6q.7-.2 1.5-.2 2.2 0 3.5 1.5m6.9-1.5q.8 0 1.5.3.7.2 1.2.8.6.5.9 1.4t.3 2v.7H40q0 1 .4 1.7.3.7.8 1.1.4.4 1 .6l1.1.2q1.5 0 2.5-1l.8.7q-1.2 1.5-3.3 1.5a7 7 0 0 1-2-.3q-.8-.3-1.4-1-.6-.6-1-1.5-.3-1-.3-2.2t.3-2.1q.4-1 1-1.6t1.4-1q.8-.3 1.7-.3m-2.9 4h5.3v-.3l-.2-1-.5-.8-.8-.6-1-.2q-1 0-1.8.7t-1 2.3zm10-3.8h1.6v1.9q.4-1 1.4-1.6 1-.5 2-.5 1.6 0 2.6 1l-.7 1.5-.4-.5-.4-.4-.5-.2-.7-.1q-.7 0-1.3.3t-1 .9a2.7 2.7 0 0 0-.7 1.2q-.3.7-.3 1.4v4.7H50v-9.6zM76.7 140.4h1.9v14.3h-4q-2.1 0-3.4-1.3-1.2-1.3-1.2-3.6 0-2 1.3-3.4 1.3-1.3 3.3-1.3 1 0 2 .4v-5.1zm0 12.7v-6q-.9-.4-1.8-.4-1.4 0-2.2.9-.8 1-.8 2.5 0 1.4.7 2.2.4.5 1 .6.4.2 1.6.2zm8.9-7.8q2.2 0 3.6 1.3 1.4 1.4 1.4 3.5 0 2-1.4 3.4-1.5 1.4-3.7 1.4-2.1 0-3.5-1.4t-1.4-3.4 1.4-3.5q1.4-1.3 3.6-1.3m0 1.6q-1.4 0-2.3 1-.9.8-.9 2.2 0 1.3 1 2.2.8.8 2.2.8t2.2-.8q1-1 1-2.3t-1-2.2-2.3-.9zm14.1 5.6v1.8q-1.4.6-2.7.6-2.2 0-3.5-1.3-1.4-1.4-1.4-3.6t1.3-3.5q1.3-1.4 3.4-1.4l1.3.1 1.4.5v2q-1.4-.9-2.6-.9-1.3 0-2 1-.9.8-.9 2.2t.9 2.3q.9.8 2.4.8 1 0 2.4-.6m8.2 2.2v-1.2q-.6.7-1.4 1-.8.4-1.5.4-1 0-1.7-.5-.7-.4-1.1-1.2-.4-.7-.4-2.5v-5.4h1.9v5.4q0 1.4.4 2t1.5.6q1.3 0 2.3-1.3v-6.7h1.8v9.4h-1.8m12.1-6.8v6.8h-1.8v-5.2q0-1.6-.4-2.2-.4-.7-1.5-.7-.6 0-1 .3l-1.2 1v6.8h-1.8v-9.4h1.8v1.2q1.5-1.4 2.8-1.4 1.8 0 2.8 1.7 1.5-1.7 3.1-1.7 1.4 0 2.3 1t.9 3v5.6h-2v-5.6q0-1.2-.5-1.8t-1.4-.6q-1.1 0-2.1 1.2m16.6 2.3h-6.7q0 1.3 1 2.1.8.8 2 .8 2 0 3.5-1.1v1.8q-.9.6-1.7.8-.9.3-2 .3-1.6 0-2.5-.7-1-.6-1.6-1.7-.5-1.1-.5-2.6 0-2.1 1.2-3.5 1.2-1.3 3.1-1.3 2 0 3 1.3 1.2 1.3 1.2 3.5zM130 149h4.7q0-1-.7-1.7-.6-.6-1.6-.6t-1.6.6-.8 1.7m10.4-3.7v1.2q1.3-1.4 2.9-1.4.8 0 1.6.5.8.4 1.2 1.2t.4 2.5v5.4h-2v-5.4q0-1.4-.4-2-.4-.7-1.4-.7-1.4 0-2.3 1.4v6.7h-1.9v-9.4h2zm7.3 1.5 3.5-3.5v2h3v1.7h-3v4.6q0 1.6 1.4 1.6 1 0 2.1-.7v1.8q-1 .6-2.3.6t-2.2-.8l-.4-.5-.3-.7-.1-1.8V147h-1.7zM409.6 24.2l-1 1.2h-.2V25l-.1-.3-.5-.5q-.8-.6-2-.6l-1.2.2-1 .8q-.4.4-.6 1.1-.3.7-.3 1.5t.3 1.5q.2.7.7 1.2.4.5 1 .8t1.4.3q1.4 0 2.5-1.2l.9 1q-1.5 1.5-3.5 1.5a7 7 0 0 1-2-.3 7.4 7.4 0 0 1-1.5-1q-.6-.8-1-1.7-.3-.9-.3-2 0-1 .3-2 .4-.9 1-1.6.7-.6 1.6-1t2-.4q1 0 2 .5t1.5 1.3zm6.2-1.8q1 0 1.7.4.8.3 1.4 1 .6.6 1 1.5.3 1 .3 2.1 0 1.2-.4 2.1-.3 1-.9 1.6-.6.7-1.4 1-.8.4-1.7.4a3.75 3.75 0 0 1-1.7-.4q-.8-.4-1.4-1-.6-.7-1-1.6a7 7 0 0 1-.3-2q0-1.1.3-2 .4-1 1-1.7.6-.6 1.4-1 .9-.4 1.7-.4m2.9 5q0-.8-.3-1.5-.2-.8-.6-1.2-.4-.5-1-.8l-1-.2q-.6 0-1.1.2l-1 .8q-.3.4-.5 1.1-.3.7-.3 1.6 0 .8.3 1.5.2.7.6 1.2t1 .8q.4.3 1 .3t1.1-.3q.5-.2 1-.7l.5-1.2q.3-.7.3-1.5zm3.7 4.8v-9.6h1.6v1.7q.5-.9 1.4-1.4.8-.5 1.7-.5.7 0 1.2.2t1 .7l.6 1.2q.2.8.2 1.9v5.8h-1.5v-5.8q0-1.5-.5-2-.5-.7-1.3-.7l-1 .2a2.7 2.7 0 0 0-.9.6l-.7 1q-.2.5-.2 1.2v5.5zM435.5 20l1.6-.2v.3l-.1.2-.3 2.3h3.2v1.2h-3.2l-.1 3.6V29q0 .6.2 1l.5.7q.4.2 1 .2.9 0 2-.9l.5 1.2q-1.4 1-3 1-1.5 0-2.2-.8-.6-1-.6-3v-2l.2-2.7H433v-1.2h2.3l.2-2.6zm8.5 3.7q1.2-1.3 3.3-1.3 1.8 0 2.8.9t1 3v5.9h-1.4v-1q-1.5 1.2-3.4 1.2-.8 0-1.4-.2a2.5 2.5 0 0 1-1-.6 2.7 2.7 0 0 1-.6-.9 1.93 1.93 0 0 1-.3-1q0-1.4 1.3-2.2 1.2-.9 3.6-1h1.8v-.3q0-1.4-.6-2t-1.9-.6q-1.5 0-2.5 1.1l-.8-1zm5.8 4h-1.5q-1.1 0-1.9.2-.7.1-1.1.4a1.3 1.3 0 0 0-.6.6l-.1.7q0 .7.5 1.2.6.5 1.5.5.6 0 1.1-.2l1-.5.5-.6.4-.5q.2-.4.2-1.2zm12.3-3.5-1 1.2h-.2V25l-.1-.3-.5-.5q-.8-.6-2-.6l-1.2.2-1 .8q-.4.4-.6 1.1-.3.7-.3 1.5t.3 1.5q.2.7.7 1.2.4.5 1 .8t1.4.3q1.4 0 2.5-1.2l.9 1q-1.5 1.5-3.5 1.5a7 7 0 0 1-2-.3 7.4 7.4 0 0 1-1.5-1q-.6-.8-1-1.7-.3-.9-.3-2 0-1 .3-2 .4-.9 1-1.6.7-.6 1.6-1t2-.4q1 0 2 .5t1.5 1.3zM467 20l1.6-.2v.3l-.1.2-.3 2.3h3.2v1.2h-3.2l-.1 3.6V29q0 .6.2 1l.5.7q.4.2 1 .2.9 0 2-.9l.5 1.2q-1.4 1-3 1-1.5 0-2.2-.8-.6-1-.6-3v-2l.2-2.7h-2.2v-1.2h2.3l.2-2.6zM491.6 17.9h2v14.3h-4q-2.2 0-3.4-1.3-1.3-1.3-1.3-3.6 0-2 1.3-3.4 1.3-1.3 3.4-1.3a5.4 5.4 0 0 1 2 .4zm0 12.7v-6a3.75 3.75 0 0 0-1.7-.4q-1.4 0-2.3.9-.8 1-.8 2.5 0 1.4.7 2.2.5.5 1 .6.4.2 1.7.2zm9-7.9q2.1 0 3.5 1.4 1.5 1.4 1.5 3.5 0 2-1.5 3.4-1.4 1.4-3.6 1.4t-3.6-1.4-1.4-3.4 1.4-3.5q1.5-1.4 3.7-1.4m-.2 1.7q-1.3 0-2.2 1-.8.8-.8 2.2 0 1.3.9 2.2.8.8 2.2.8t2.3-.8q.9-1 .9-2.3t-1-2.2q-.9-.9-2.3-.9m14.3 5.6v1.8q-1.4.6-2.8.6-2.2 0-3.5-1.3-1.3-1.4-1.3-3.6t1.3-3.6q1.2-1.3 3.3-1.3l1.3.1 1.5.5v2q-1.4-.9-2.6-.9-1.3 0-2.1 1-.8.8-.8 2.2t.8 2.3q1 .8 2.4.8 1 0 2.5-.6m8.1 2.2V31q-.6.6-1.4 1-.7.4-1.5.4-.9 0-1.6-.5a2.62 2.62 0 0 1-1.2-1.2q-.3-.8-.3-2.5v-5.4h1.8v5.4q0 1.4.4 2 .5.6 1.5.6 1.4 0 2.3-1.3v-6.7h1.9v9.4zm12.2-6.8v6.8h-1.9V27q0-1.6-.4-2.2-.4-.7-1.4-.7-.6 0-1.1.3t-1.1 1v6.8h-1.9v-9.4h1.9V24q1.4-1.4 2.8-1.4 1.8 0 2.7 1.7 1.5-1.7 3.2-1.7 1.3 0 2.2 1 1 1 1 3v5.6h-2v-5.6q0-1.2-.4-1.8-.5-.6-1.4-.6-1.2 0-2.2 1.2m16.5 2.3h-6.6q0 1.3.9 2.1.8.8 2.1.8 1.9 0 3.4-1.1v1.8q-.8.6-1.7.8-.8.2-2 .2-1.5 0-2.5-.6a3.73 3.73 0 0 1-1.5-1.7q-.6-1.1-.6-2.6 0-2.1 1.2-3.5 1.2-1.3 3.2-1.3 1.9 0 3 1.3 1 1.3 1 3.5v.3zm-6.6-1.2h4.7q0-1-.6-1.7-.6-.6-1.6-.6t-1.7.6q-.6.6-.8 1.7m10.5-3.7V24q1.2-1.4 2.8-1.4.9 0 1.6.4.8.5 1.2 1.3t.4 2.5v5.4h-1.9v-5.4q0-1.4-.4-2-.5-.7-1.5-.7-1.3 0-2.2 1.4v6.7h-2v-9.4zm7.3 1.5 3.5-3.5v2h3v1.7h-3V29q0 1.6 1.3 1.6 1 0 2.2-.7v1.8q-1.1.6-2.4.6t-2.1-.8l-.5-.5-.3-.7v-5.8h-1.7z"/><path fill="#1C4394" d="M406.2 277v-2.3q0-1.6-.5-2.2-.5-.5-1.6-.5h-.4v-1.4h.4q1.1 0 1.7-.6.5-.6.5-2v-1.7q0-4.1 4.4-4.1h1.5v1.3h-2q-2.2 0-2.2 2.6v1.7q0 2.6-2 3.5 2 .7 2 3.7l-.1 2q0 1.7.7 2.3t2.3.6h1.3v1.4h-1l-2-.1q-1-.1-1.7-.7-1.3-1-1.3-3.4z"/><path fill="#1A4394" d="M410.5 396.3v1.8q0 1.3.5 2 .6.5 1.7.5h.4v1.4h-.5q-1 0-1.6.5-.5.6-.5 2.2v2.4q0 2.1-.9 3.1-1 1-3 1h-2V410h2.2l.5-.1.3-.1q.2 0 .3-.2 1-.7 1-2.5v-2q0-3 2-3.7-2.2-.9-2.2-3.5l.1-1.7q0-1.4-.6-2t-1.8-.6h-1.8v-1.3h2.5q.9 0 1.6.5.8.5 1.3 1.3.5.9.5 2.3z"/><path stroke="#1B4394" d="M392.7 257.1h338v167.2h-338z"/><path fill="#1C4494" d="M403.3 239.3q1.3-1.3 3.5-1.3 1.7 0 2.7.9 1 .8 1 3v5.9h-1.4v-1q-1.5 1.2-3.4 1.2-.8 0-1.4-.2l-1-.7a1.8 1.8 0 0 1-.6-.8l-.2-1q0-1.4 1.2-2.3 1.3-.8 3.6-.9h1.8v-.3q0-1.5-.6-2-.6-.6-1.8-.6-1.6 0-2.6 1zm5.9 4h-1.4l-2 .1-1 .4q-.5.3-.7.7l-.1.7q0 .7.6 1.2.6.4 1.4.4.6 0 1.1-.2l1-.4.5-.6.4-.6q.2-.4.2-1.1zm12.3-3.5-1 1.2-.1-.1v-.2l-.2-.4-.5-.5q-.7-.5-2-.5-.6 0-1.1.2l-1 .7-.7 1.2q-.2.6-.2 1.4 0 .9.2 1.6l.7 1.2 1 .8 1.4.2q1.5 0 2.5-1.2l.9 1q-1.4 1.6-3.5 1.6a5.3 5.3 0 0 1-2-.4q-.8-.4-1.4-1-.7-.7-1-1.6a5.3 5.3 0 0 1-.4-2q0-1.1.4-2 .3-1 1-1.6.6-.7 1.5-1 .9-.4 2-.4 1 0 2 .5 1 .4 1.5 1.3m10.5 0-1 1.2-.1-.1v-.2l-.2-.4-.5-.5q-.7-.5-2-.5-.6 0-1.1.2l-1 .7-.7 1.2q-.2.6-.2 1.4 0 .9.2 1.6l.7 1.2 1 .8 1.4.2q1.5 0 2.5-1.2l.9 1q-1.4 1.6-3.5 1.6a5.3 5.3 0 0 1-2-.4q-.8-.4-1.4-1-.7-.7-1-1.6a5.3 5.3 0 0 1-.4-2q0-1.1.4-2 .3-1 1-1.6.6-.7 1.5-1 .9-.4 2-.4 1 0 2 .5 1 .4 1.5 1.3m6.4-1.8 1.4.2q.8.3 1.3.8.5.6.8 1.5.4.8.4 2v.7h-6.9q0 1 .4 1.7.3.7.7 1 .5.5 1 .7l1.2.2q1.5 0 2.5-1.1l.8.8q-1.2 1.5-3.4 1.5-1 0-1.9-.3a7.4 7.4 0 0 1-1.5-1q-.6-.6-.9-1.6t-.3-2.1q0-1.2.3-2.2.4-1 1-1.5.6-.7 1.4-1 .8-.4 1.7-.4zm-3 4h5.3v-.3l-.1-1a1.8 1.8 0 0 0-.6-.8 1.8 1.8 0 0 0-.8-.6q-.4-.2-1-.2-1 0-1.7.7-.8.7-1 2.2zm17.1-2.6-.9 1.4v-.2l-.1-.2a4.4 4.4 0 0 0-1-.9q-.8-.4-1.7-.4h-.7l-.7.3q-.3.2-.4.5-.2.2-.2.6l.1.4.4.4.8.4 1.3.4q1.8.5 2.5 1.2.8.6.8 1.6 0 .6-.3 1.2l-.8 1q-.5.4-1.3.6-.7.3-1.6.3-2.4 0-4-1.5l.8-1.6v.3l.2.3.5.4 1 .5q.3.2.7.2l.8.1.9-.1.7-.3q.4-.2.6-.5l.2-.6q0-.6-.5-1l-1.8-.7-1.2-.4-1.1-.5a1.5 1.5 0 0 1-.6-.5l-.5-.7a2 2 0 0 1-.2-.9q0-.5.3-1l.8-.8 1.1-.5q.7-.3 1.5-.3 2.2 0 3.6 1.5m10.5 0-.9 1.4v-.2l-.1-.2a4.4 4.4 0 0 0-1-.9q-.8-.4-1.7-.4h-.7l-.7.3q-.3.2-.4.5-.2.2-.2.6l.1.4.4.4.8.4 1.3.4q1.8.5 2.5 1.2.8.6.8 1.6 0 .6-.3 1.2l-.8 1q-.5.4-1.3.6-.7.3-1.6.3-2.4 0-4-1.5l.8-1.6v.3l.2.3.5.4 1 .5q.3.2.7.2l.8.1.9-.1.7-.3q.4-.2.6-.5l.2-.6q0-.6-.5-1l-1.8-.7-1.2-.4-1.1-.5a1.5 1.5 0 0 1-.6-.5l-.5-.7a2 2 0 0 1-.2-.9q0-.5.3-1l.8-.8 1.1-.5q.7-.3 1.5-.3 2.2 0 3.6 1.5M482.6 233.4h1.8v14.4h-4q-2 0-3.3-1.4-1.2-1.3-1.2-3.5 0-2 1.3-3.4t3.3-1.4q1 0 2 .4v-5zm0 12.8v-6q-1-.5-1.8-.5-1.4 0-2.2 1-.9.9-.9 2.4t.8 2.3q.4.4.9.6t1.7.2zm8.9-7.9q2.1 0 3.6 1.4 1.4 1.4 1.4 3.5 0 2-1.5 3.4-1.4 1.3-3.6 1.3-2.1 0-3.6-1.3-1.4-1.4-1.4-3.5 0-2 1.5-3.4 1.4-1.4 3.6-1.4m-.1 1.7q-1.4 0-2.2.9-.9.8-.9 2.2t.9 2.2q.9.9 2.3.9 1.3 0 2.2-.9t.9-2.2q0-1.4-1-2.2-.8-1-2.2-1zm14.2 5.6v1.8q-1.4.5-2.7.5-2.3 0-3.6-1.3t-1.3-3.5 1.3-3.6 3.4-1.4q.7 0 1.3.2.6.1 1.4.5v2q-1.4-1-2.6-1-1.3 0-2 1-.9.9-.9 2.2 0 1.5.9 2.3.8.9 2.3.9 1.1 0 2.5-.6m8.1 2.2v-1.2q-.6.6-1.3 1-.8.3-1.6.3a3.55 3.55 0 0 1-1.6-.4q-.8-.5-1.1-1.2-.4-.8-.4-2.6v-5.4h1.8v5.4q0 1.5.5 2 .4.7 1.5.7 1.3 0 2.2-1.3v-6.8h1.9v9.5zM526 241v6.8h-2v-5.3q0-1.6-.3-2.2-.5-.6-1.5-.6-.6 0-1 .3-.6.2-1.2 1v6.8h-1.9v-9.5h1.9v1.3q1.4-1.5 2.8-1.5 1.8 0 2.8 1.7 1.5-1.7 3.1-1.7 1.4 0 2.3 1 .8 1 .8 3v5.7H530v-5.6q0-1.2-.5-1.8-.5-.7-1.4-.7-1.1 0-2.1 1.2zm16.4 2.2h-6.6q0 1.4.9 2.2.8.8 2.1.8 1.9 0 3.5-1.2v1.8l-1.8.9q-.8.2-2 .2-1.5 0-2.5-.6a4.37 4.37 0 0 1-1.5-1.8q-.6-1-.6-2.5 0-2.2 1.2-3.5 1.3-1.4 3.2-1.4t3 1.4q1.1 1.3 1.1 3.5zm-6.6-1.1h4.8q-.1-1.1-.7-1.7t-1.6-.6-1.6.6q-.7.6-.9 1.7m10.5-3.8v1.2q1.2-1.4 2.8-1.4 1 0 1.7.5t1.1 1.3q.4.7.4 2.5v5.4h-1.8v-5.4q0-1.5-.5-2-.4-.7-1.5-.7-1.3 0-2.2 1.3v6.8h-2v-9.5zm7.3 1.5 3.5-3.4v2h3v1.6h-3v4.6q0 1.7 1.4 1.7 1 0 2-.7v1.7q-1 .6-2.3.6t-2.1-.7l-.4-.5-.3-.8q-.2-.4-.2-1.7V240h-1.6z"/><path stroke="#6CB33F" stroke-width="2" d="m261 199.3 151-80.7"/><path fill="#6CB33F" stroke="#6CB33F" stroke-width="2" d="m259.2 196.1-6.8 7.7 10.2-1.3zm154.6-74.4 6.8-7.7-10.2 1.4z"/><path stroke="#6CB33F" stroke-width="2" d="m260.6 224 150.8 90.4"/><path fill="#6CB33F" stroke="#6CB33F" stroke-width="2" d="m262.5 220.8-10.1-1.8 6.4 8zm147 96.7 10.1 1.9-6.4-8z"/><path fill="#1D4494" d="M425.4 89.5h10.3V91h-10.3zm13.7-11.4h4.4v9.6h2.6v1.4H439v-1.4h2.8v-8.2H439v-1.4zm2.7-4.4q.3-.4.9-.4.5 0 .8.4.4.4.4.9t-.4.9q-.3.3-.8.3-.6 0-1-.3-.3-.4-.3-1 0-.4.4-.8m15.7 6v-6.6h1.8l-.1.4-.1.3v14.3l.1 1h-1.7l-.1-.8v-1a3.27 3.27 0 0 1-1.5 1.5q-.9.5-1.8.5-1 0-1.7-.3-.8-.4-1.4-1.1t-1-1.8-.4-2.6.4-2.6a8.3 8.3 0 0 1 1.1-1.7q.7-.7 1.5-1a3.55 3.55 0 0 1 1.6-.4q1.2 0 2 .6.9.5 1.3 1.3m-5.2.4q-1 .9-1 3.1 0 2.1.8 3.4.8 1.2 2.3 1.2l.8-.1.8-.4.6-.6.5-.8q.2-1 .2-2.4V82l-.3-1q-.1-.5-.4-.7a1.5 1.5 0 0 0-.6-.5l-.8-.4-.7-.2q-.7 0-1.2.2t-1 .7m15-.8q.4.5.4 1 0 .6-.4 1-.5.4-1 .4-.6 0-1-.4t-.4-1q0-.5.4-1 .4-.4 1-.4.5 0 1 .4m0 7.7q.4.4.4 1 0 .5-.4 1-.4.4-1 .4t-1-.4-.4-1 .4-1 1-.4q.5 0 1 .4m28.2-9.8-8.3 4.2 8.4 4.7V88l-10.2-6v-1.2l10.1-5.3zm7.2 12.1q-1.3 0-2.3-.5a5.55 5.55 0 0 1-1.7-1.6q-.7-1-1-2.5-.4-1.4-.4-3.1 0-1.8.3-3.2.4-1.4 1.2-2.4.7-1 1.7-1.5t2.2-.5a5.4 5.4 0 0 1 2 .4q.9.5 1.6 1.4.8 1 1.2 2.4t.4 3.4q0 2.2-.5 3.6-.5 1.5-1.2 2.4-.7 1-1.7 1.3-.9.4-1.8.4m-2.5-3q1 1.4 2.5 1.4.6 0 1.2-.3t1.2-1q.5-.7.8-1.8.3-1.2.3-3t-.4-3q-.3-1.1-.8-1.8-.5-.6-1.1-1l-1.2-.2-1.4.2q-.6.3-1.1 1-.6.6-1 1.7-.3 1.2-.3 3 0 1.6.3 2.9.4 1.2 1 2zm9.8-13.2h2l-.1.3q-.2.1-.2.3v6.1q.6-.9 1.5-1.4t1.8-.5q1 0 1.7.3.9.4 1.5 1 .6.8 1 1.8.3 1 .3 2.5t-.4 2.6a7.8 7.8 0 0 1-1 1.8q-.7.7-1.5 1-.8.5-1.7.5a3.33 3.33 0 0 1-1.8-.5q-.8-.5-1.4-1.3l-.6 1.5H510V73zm3 14.3.8.3.7.1 1-.1q.6-.2 1-.7a4.4 4.4 0 0 0 1-1.2q.2-.8.2-2 0-2.2-.8-3.3-1-1.2-2.6-1.2-.6 0-1.3.5a2.28 2.28 0 0 0-1 1.1q-.3.7-.3 2.4V85l.3 1.2q.1.4.4.7.2.3.6.5m10.6-9.3h5.8v10.5q0 1.2-.3 2-.4 1-1 1.5-.5.6-1.3.8-.8.3-1.7.4-2.1 0-3.4-1.6l1.1-1.5.2.3v.2l.3.4.8.4q.5.3 1 .3 1.2 0 1.9-.8.7-.7.7-2.3v-9.2h-4.1zm4-4.4q.4-.4 1-.4.5 0 .8.4.4.4.4.9t-.4.9q-.3.3-.9.3-.5 0-.8-.3-.4-.4-.4-1 0-.4.4-.8zm11.2 4.2q.8 0 1.7.3.8.3 1.4 1 .6.6 1 1.5.3 1 .3 2.4v.8h-7.8q0 1.1.4 1.9.3.8.9 1.3.5.4 1.1.6l1.3.2q1.7 0 2.9-1.2l1 1q-1.5 1.6-4 1.6-1.1 0-2.1-.3a5 5 0 0 1-1.7-1.1 4.8 4.8 0 0 1-1-1.8q-.5-1-.5-2.5 0-1.3.4-2.4t1-1.8q.8-.8 1.7-1.2a7 7 0 0 1 2-.3m-3.3 4.6h6v-.4q0-.6-.2-1.1l-.6-1-1-.6q-.4-.2-1-.2-1.2 0-2 .8-1 .8-1.2 2.5m20-2.5-1.2 1.4-.1-.2V81l-.2-.4-.6-.6q-.8-.6-2.2-.6-.7 0-1.4.3-.6.2-1 .8-.5.5-.8 1.3-.3.7-.3 1.7t.3 1.7q.3.8.8 1.4l1.2.9q.7.3 1.5.3 1.6 0 2.8-1.3l1 1.1q-1.6 1.8-4 1.8a4.64 4.64 0 0 1-2.1-.5 5.3 5.3 0 0 1-1.8-1.2q-.7-.7-1-1.8-.5-1-.5-2.3 0-1.2.4-2.3a6.2 6.2 0 0 1 1.1-1.8 8.5 8.5 0 0 1 1.8-1.2q1-.4 2.2-.4 1.3 0 2.4.6 1 .5 1.7 1.4zm5.5-4.8 2-.3-.1.4v.2l-.4 2.6h3.6v1.4h-3.6l-.2 4v2l.3 1.2q.2.5.6.8.4.2 1 .2 1.1 0 2.5-1l.5 1.4q-1.6 1.2-3.4 1.2-1.7 0-2.5-1t-.7-3.4v-2.2l.2-3.2h-2.6v-1.4h2.7l.2-3zm9.7-1.1h7.4v1.5h-3v12.1h3.1v1.4h-7.7v-1.4h3V75.6h-2.8V74zm18.8 5.6v-6.6h1.8l-.1.4-.1.3v14.3l.1 1h-1.7l-.1-.8v-1a3.27 3.27 0 0 1-1.5 1.5q-.9.5-1.8.5-1 0-1.7-.3-.8-.4-1.4-1.1t-1-1.8-.4-2.6.4-2.6a8.3 8.3 0 0 1 1.1-1.7q.7-.7 1.5-1a3.55 3.55 0 0 1 1.6-.4q1.2 0 2 .6.9.5 1.3 1.3m-5.2.4q-1 .9-1 3.1 0 2.1.8 3.4.8 1.2 2.3 1.2l.8-.1.8-.4.6-.6.5-.8q.2-1 .2-2.4V82l-.3-1q-.1-.5-.4-.7a1.5 1.5 0 0 0-.6-.5l-.8-.4-.7-.2q-.7 0-1.2.2t-1 .7m10.1-3.6q.7-1.2 1.8-1.8a4.4 4.4 0 0 1 2.4-.7q.9 0 1.7.4.8.3 1.4.9.6.5 1 1.3l.2 1.6-.2 1.4-.5 1.2-.8 1-.9 1-1.4 1.3-.7.7-.8.9-.7 1q-.4.4-.6 1h6.2l.3-.2h.2V89h-8.7v-1q.9-1.8 2-3 1-1.4 2-2.2l1-1 1-1 .6-1 .3-.8v-.8l-.1-1-.6-1-1-.6q-.4-.2-1-.2t-1 .2l-1 .4-.5.6-.3.4v.3l-1.3-1zm11.2.7v-1.7l10.1 5.3V82l-10.2 6v-2l8.4-4.7-8.3-4.2zm18.3 11.4q0 2-2.6 4.5l-.8-.7q.7-.6 1.1-1.3.5-.8.5-1.2a.68.68 0 0 0-.2-.5l-.4-.4a.96.96 0 0 1-.5-.4l-.1-.6q0-.6.3-1 .4-.4 1-.4.7 0 1.2.6.5.5.5 1.4"/><path fill="#1C4294" d="M426 104.1h1.8v6.1q0 1.1.2 1.8t.5 1.1q.4.5.8.7l1 .2q.6 0 1-.3l1-.7q.5-.5.7-1.2.2-.6.2-1.6v-6h1.8v10l.1.9h-1.8v-1.7q-.6 1-1.5 1.4-.9.6-2 .6a3.8 3.8 0 0 1-1.5-.3q-.6-.3-1.2-1-.5-.6-.8-1.6t-.3-2.3v-6.1m21 1.5-1 1.5q-.2 0-.2-.2v-.2q-.5-.6-1.3-1a3.33 3.33 0 0 0-1.8-.5l-.9.1q-.4 0-.7.3l-.5.5q-.2.3-.2.7l.1.5.5.4.9.5 1.4.4q2.1.6 3 1.4.8.7.8 1.8 0 .7-.3 1.4-.3.6-1 1.1-.5.5-1.3.8-.9.2-2 .2-2.7 0-4.6-1.7l1-1.7.1.2.2.4.5.5 1.2.6.8.2h1.9q.5-.1.9-.4.4-.2.6-.5l.2-.8q0-.6-.5-1-.6-.4-2.1-1l-1.4-.3-1.3-.6-.7-.6-.5-.8-.2-1q0-.6.3-1 .3-.6.9-1l1.3-.7q.8-.2 1.7-.2 2.6 0 4.1 1.7zm7.8-1.7q.8 0 1.7.3.8.3 1.4 1 .6.6 1 1.5.3 1 .3 2.4v.8h-7.8q0 1.1.4 1.9.3.8.9 1.3.5.4 1.1.6l1.3.2q1.7 0 2.9-1.2l1 1q-1.5 1.6-4 1.6-1.1 0-2.1-.3a5 5 0 0 1-1.7-1.1 4.8 4.8 0 0 1-1-1.8q-.5-1-.5-2.5 0-1.3.4-2.4t1-1.8q.8-.8 1.7-1.2a7 7 0 0 1 2-.3m-3.3 4.6h6v-.4q0-.6-.2-1.1l-.6-1-1-.6q-.4-.2-1-.2-1.2 0-2 .8-1 .8-1.2 2.5m11.5-4.4h1.7v2.1q.5-1.1 1.6-1.7 1-.6 2.3-.6 1.8 0 3 1.2l-.8 1.6-.5-.6-.5-.4-.6-.3h-.7q-.8 0-1.5.3-.7.4-1.2 1t-.8 1.4a4.8 4.8 0 0 0-.3 1.7v5.3h-1.8v-11z"/><path fill="#1D4494" d="M473.4 115.5h10.3v1.5h-10.3zm13.7-11.4h4.4v9.6h2.6v1.4H487v-1.4h2.8v-8.2H487v-1.4zm2.7-4.4a.95.95 0 0 1 .8-.4q.6 0 1 .4.3.4.3.9t-.4.9q-.3.3-.9.3-.5 0-.8-.3-.4-.4-.4-1 0-.4.4-.8m15.7 6v-6.6h1.8l-.1.4-.1.3v14.3l.1 1h-1.7l-.1-.8v-1a3.26 3.26 0 0 1-1.5 1.5q-.9.5-1.8.5-1 0-1.7-.3-.8-.4-1.4-1.1t-1-1.8-.4-2.6.4-2.6a5 5 0 0 1 1.1-1.7q.7-.7 1.5-1a3.55 3.55 0 0 1 1.6-.4q1.2 0 2 .6.8.5 1.3 1.3m-5.2.4q-1 .9-1 3.1 0 2.1.8 3.4.8 1.2 2.3 1.2l.8-.1.8-.4.6-.6.4-.8q.3-1 .3-2.4V108l-.3-1q-.1-.5-.4-.7a1.5 1.5 0 0 0-.6-.5l-.8-.4-.7-.2q-.7 0-1.2.2t-1 .7m15-.8q.4.5.4 1 0 .6-.4 1-.5.4-1 .4-.6 0-1-.4-.5-.4-.5-1 0-.5.5-1 .4-.4 1-.4.5 0 1 .4m0 7.7q.4.4.4 1 0 .5-.4 1-.4.4-1 .4t-1-.4q-.5-.4-.5-1t.5-1q.4-.4 1-.4.5 0 1 .4m28.2-9.8-8.3 4.2 8.4 4.7v1.9l-10.2-6v-1.2l10.1-5.3zm7.1 12.1q-1.2 0-2.2-.5a5.5 5.5 0 0 1-1.7-1.6q-.7-1-1-2.5-.5-1.4-.5-3.1 0-1.8.4-3.2t1.2-2.4q.7-1 1.7-1.5t2.2-.5q1 0 2 .4.9.5 1.6 1.4.8 1 1.2 2.4t.4 3.4q0 2.2-.5 3.6-.5 1.5-1.2 2.4-.7 1-1.7 1.3-.9.4-1.9.4m-2.4-3q1 1.4 2.4 1.4.7 0 1.3-.3t1.1-1q.6-.7.9-1.8.3-1.2.3-3t-.4-3q-.3-1.1-.8-1.8a5.2 5.2 0 0 0-1.1-1l-1.2-.2-1.4.2q-.6.3-1.1 1-.6.6-1 1.7-.3 1.2-.3 3 0 1.6.3 2.9.4 1.2 1 2zm9.8-13.2h2l-.1.3q-.2.1-.2.3v6.1q.6-.9 1.5-1.4t1.8-.5q1 0 1.7.3.9.4 1.5 1 .6.8 1 1.8.3 1 .3 2.5t-.4 2.6a7.8 7.8 0 0 1-1 1.8q-.7.7-1.5 1-.8.5-1.7.5a3.33 3.33 0 0 1-1.8-.5 3.77 3.77 0 0 1-1.4-1.3l-.6 1.5H558V99zm3 14.3.8.3.7.1 1-.1q.6-.2 1-.7.6-.5 1-1.2.2-.8.2-2 0-2.2-.8-3.3-1-1.2-2.6-1.2-.6 0-1.3.5a2.28 2.28 0 0 0-1 1.1q-.3.7-.3 2.4v1.7l.3 1.2q.1.4.4.7.2.3.6.5m10.6-9.3h5.8v10.5q0 1.2-.3 2-.4 1-1 1.5a2.4 2.4 0 0 1-1.3.8q-.8.3-1.7.4-2.1 0-3.4-1.6l1.1-1.5.2.3v.2l.3.4.8.4q.5.3 1 .3 1.2 0 1.9-.8.7-.7.7-2.3v-9.2h-4.1zm4-4.4q.4-.4 1-.4.4 0 .8.4t.4.9-.4.9q-.4.3-.9.3t-.8-.3q-.4-.4-.4-1 0-.4.4-.8zm11.2 4.2q.8 0 1.6.3.9.3 1.5 1 .6.6 1 1.5.3 1 .3 2.4v.8h-7.8q0 1.1.4 1.9.3.8.9 1.3.5.4 1.1.6l1.3.2q1.7 0 2.9-1.2l1 1q-1.5 1.6-4 1.6-1.1 0-2.1-.3a5 5 0 0 1-1.7-1.1 4.8 4.8 0 0 1-1-1.8q-.5-1-.5-2.5 0-1.3.4-2.4t1-1.8q.8-.8 1.7-1.2a7 7 0 0 1 2-.3m-3.3 4.6h6v-.4q0-.6-.2-1.1l-.6-1-1-.6-1-.2q-1.2 0-2 .8-1 .8-1.2 2.5m20-2.5-1.2 1.4-.1-.2v-.2l-.2-.4-.6-.6q-.8-.6-2.2-.6-.7 0-1.4.3-.6.2-1 .8a2.4 2.4 0 0 0-.8 1.3q-.3.7-.3 1.7t.3 1.7q.2.8.8 1.4l1.2.9q.6.3 1.5.3 1.6 0 2.8-1.3l1 1.1q-1.6 1.8-4 1.8a4.64 4.64 0 0 1-2.1-.5 5.3 5.3 0 0 1-1.8-1.2q-.7-.7-1-1.8-.5-1-.5-2.3 0-1.2.4-2.3a6.2 6.2 0 0 1 1.1-1.8 8.4 8.4 0 0 1 1.8-1.2q1-.4 2.2-.4 1.3 0 2.4.6 1 .5 1.7 1.4zm5.5-4.8 2-.3-.1.4v.2l-.4 2.6h3.6v1.4h-3.6l-.2 4v2l.3 1.2q.2.5.6.8.4.2 1 .2 1.1 0 2.5-1l.5 1.4q-1.6 1.2-3.4 1.2-1.7 0-2.5-1t-.7-3.4v-2.2l.2-3.2h-2.6v-1.4h2.7l.2-3zm9.7-1.1h7.4v1.5h-3v12.1h3.1v1.4h-7.7v-1.4h3v-12.1h-2.8V100zm18.8 5.6v-6.6h1.8l-.1.4-.1.3v14.3l.1 1h-1.7l-.1-.8v-1a3.26 3.26 0 0 1-1.5 1.5q-.9.5-1.8.5-1 0-1.7-.3-.8-.4-1.4-1.1t-1-1.8-.4-2.6.4-2.6a5 5 0 0 1 1.1-1.7q.7-.7 1.5-1a3.55 3.55 0 0 1 1.6-.4q1.2 0 2 .6.8.5 1.3 1.3m-5.2.4q-1 .9-1 3.1 0 2.1.8 3.4.8 1.2 2.3 1.2l.8-.1.8-.4.6-.6.4-.8q.3-1 .3-2.4V108l-.3-1q-.1-.5-.4-.7a1.5 1.5 0 0 0-.6-.5l-.8-.4-.7-.2q-.7 0-1.2.2t-1 .7m15.4-6v15h-1.6v-12.9l-3 .9-.4-1 3.9-2zm5.9 3.1v-1.7l10.1 5.3v1.2l-10.2 6v-2l8.4-4.7-8.3-4.2zm18.3 11.4q0 2-2.6 4.5l-.8-.7q.7-.6 1.1-1.3.5-.8.5-1.2a.68.68 0 0 0-.2-.5l-.5-.4-.4-.4-.2-.6q0-.6.4-1t1-.4q.7 0 1.2.6.5.5.5 1.4"/><path fill="#1C4394" d="M426 130.1h1.7v1.7q.6-.9 1.5-1.4 1-.5 1.9-.5t1.7.3q.9.4 1.5 1 .6.8 1 1.8t.4 2.5-.4 2.6a7.8 7.8 0 0 1-1 1.8q-.7.7-1.6 1.1-.8.4-1.6.4-1 0-2-.5a3.2 3.2 0 0 1-1.3-1.2v5.4H426zm1.7 6.4q0 1.8.9 2.6.7.7 1.9.7l1.2-.1q.6-.2 1-.7.6-.5.9-1.2.3-.8.3-2 0-2-1-3.2-.8-1.2-2.4-1.3l-1 .2a2.7 2.7 0 0 0-.9.6l-.6 1q-.3.8-.3 1.8zm10.5 4.5v-15.9h2v.3q-.2.1-.2.3v6.4q.6-1 1.6-1.6t2-.6q.7 0 1.3.2.7.3 1.1.8.5.6.7 1.4.2.9.2 2.1v6.7h-1.7v-6.6q0-1.7-.6-2.4-.5-.7-1.4-.7l-1 .2-1.2.7q-.5.4-.7 1-.3.7-.3 1.5v6.3h-1.8zm16.5-11.1q1 0 1.8.4 1 .4 1.6 1.1.7.8 1 1.8.5 1.1.5 2.4 0 1.4-.4 2.4a7.8 7.8 0 0 1-1 1.8 4.6 4.6 0 0 1-1.6 1.2q-1 .4-2 .4t-2-.5a5.3 5.3 0 0 1-1.6-1.1 4.7 4.7 0 0 1-1-1.9q-.5-1-.5-2.2 0-1.3.4-2.3a7.7 7.7 0 0 1 1.2-1.9q.7-.7 1.6-1.2a5.3 5.3 0 0 1 2-.4m3.2 5.8q0-1-.3-1.9-.3-.8-.7-1.3-.5-.6-1.1-.9t-1.2-.3q-.7 0-1.3.3-.5.3-1 .9-.4.5-.7 1.3t-.3 1.8.3 1.7l.7 1.4q.5.6 1 .9.7.3 1.3.3.7 0 1.3-.3t1-.8q.5-.5.7-1.3.3-.8.3-1.8m4.3 5.3v-10.9h1.8v2q.6-1 1.5-1.6 1-.6 2-.6.8 0 1.4.2.6.3 1 .8.5.6.8 1.4.2.9.2 2.1v6.7h-1.7v-6.6q0-1.7-.6-2.4t-1.4-.7l-1.1.2-1 .7q-.5.4-.8 1-.3.7-.3 1.5v6.3h-1.8zm16.6-11.1q.8 0 1.7.3.8.3 1.4 1 .6.6 1 1.5.3 1 .3 2.4v.8h-7.8q0 1.1.4 1.9.3.8.9 1.2.5.5 1.1.7l1.3.2q1.7 0 2.9-1.2l1 1q-1.5 1.6-4 1.6-1.1 0-2.1-.3a5 5 0 0 1-1.7-1.1 4.8 4.8 0 0 1-1-1.8q-.5-1-.5-2.5 0-1.4.4-2.4.4-1.1 1-1.8.8-.8 1.7-1.2a7 7 0 0 1 2-.3m-3.3 4.6h6v-.4q0-.6-.2-1.1l-.6-1-1-.6q-.4-.2-1-.2-1.2 0-2 .8-1 .8-1.2 2.5m15.8-3.2q.4.5.4 1 0 .6-.4 1-.5.4-1 .4-.6 0-1-.4t-.4-1q0-.5.4-1 .4-.4 1-.4.5 0 1 .4m0 7.7q.4.4.4 1 0 .5-.4 1-.4.4-1 .4t-1-.4-.4-1 .4-1 1-.4q.5 0 1 .4m24.8-11-.1-1.6q0-.6.3-1 .3-.3.7-.3t.7.4q.4.3.4 1.1t-.8 3l-.6 1.6-1.3-.3.5-1.6.2-1.4zm-4.1 0-.2-1.6q0-.6.3-1 .3-.3.8-.3.4 0 .7.4.3.3.3 1.1t-.8 3l-.5 1.6-1.4-.3.5-1.6.2-.7v-.7zm15.7-1.9v15h-1.6v-12.9l-3 .9-.4-1 3.9-2zm6.7 2.4q.7-1.2 1.8-1.8a4.4 4.4 0 0 1 2.4-.7q.9 0 1.7.4.8.3 1.4.9.6.5 1 1.3l.2 1.6-.2 1.4-.5 1.2-.8 1-.9 1-1.4 1.3-.7.7-.8.9-.7 1q-.4.4-.6 1h6.2l.3-.2h.2v1.6h-8.7v-1q.9-1.8 2-3 1-1.4 2-2.2l1-1 1-1 .6-1 .3-.8v-.8l-.1-1-.6-1-1-.6q-.4-.2-1-.2t-1 .2l-1 .4-.5.6-.3.4v.3l-1.3-1zm20 1.4q0 1-.6 2-.6.8-1.6 1.2 1.1.4 1.8 1.5.8 1 .8 2.4 0 .9-.4 1.7-.3.8-1 1.4-.5.6-1.4 1-.9.3-2 .3-2.2 0-3.8-1.7l1.3-1.6.1.4q0 .2.2.3l.3.3.8.5 1.2.2q.7 0 1.2-.2l1-.7q.4-.4.6-1 .2-.5.2-1.2 0-1.2-1-2-.9-.8-2.5-.8h-.7v-1.3q1 0 1.8-.2t1.2-.6q.5-.4.7-.9t.2-1.1l-.2-.8-.5-.7-.8-.5-1-.2q-1.6 0-2.6 1.1l-1-1q1.5-1.6 3.6-1.6.9 0 1.6.3.8.3 1.3.8.6.5.9 1.2t.3 1.5m3.9 2.8h8.6v1.6h-8.6zm17.7-6.6h1.5v9.4h1.9v1.5h-2v4h-1.7v-4h-6v-1.3l6.4-9.6zm-.2 2.7-4.4 6.7h4.4zm7.3-2.7h7.6v1.6h-6.2l-.2 4.2q1.2-.5 2.4-.5 1 0 1.8.3.8.4 1.4 1 .7.7 1 1.6.3 1 .3 2 0 1.2-.3 2.2-.4.9-1 1.5-.7.7-1.5 1-.9.4-1.9.4-1.3 0-2.5-.6t-2-1.7l1.6-1.2.1.3v.3l.4.4.6.5.8.3 1.1.2q.6 0 1.1-.2.6-.3 1-.8.4-.4.6-1 .2-.7.2-1.6 0-.8-.2-1.5a2.8 2.8 0 0 0-.7-1.1 2.1 2.1 0 0 0-1-.7q-.5-.2-1.1-.2-.8 0-1.6.3-.7.4-1.2 1l-1.1-.4zm16.3-.1q2 0 3.3 1.3l-1.1 1.3q-.3-.2-.3-.4-.1-.2-.4-.3-.3-.3-.7-.3l-.7-.1-1.1.2q-.7.2-1.2.8-.6.7-1 1.8t-.4 3q.5-.9 1.4-1.4a3.33 3.33 0 0 1 1.8-.5q.8 0 1.6.4.7.3 1.3 1 .5.6.9 1.5.3 1 .3 2 0 1.1-.3 2-.4 1-1 1.7-.5.6-1.3 1-.8.3-1.7.3-1.1 0-2-.4-.8-.6-1.4-1.5t-1-2.2q-.2-1.3-.2-3 0-2 .3-3.5.4-1.5 1.1-2.6a5.5 5.5 0 0 1 1.7-1.6 4.64 4.64 0 0 1 2.1-.5m-3.5 9v.5q0 1 .2 1.7.2.8.7 1.4.4.6 1 1l1 .2q1.1 0 1.9-.8.8-1 .8-2.6 0-1-.3-1.6a2.5 2.5 0 0 0-.6-1q-.4-.5-.8-.7l-1-.2q-.8 0-1.6.6t-1.3 1.4zm10.4-2.3h8.6v1.6h-8.6zM627 127l-3 7-2.3 7h-2l2.5-6.7 2.6-6.6h-6.3v-1.6h8.4v1zm11.6 2.5q0 1-.6 2a5.5 5.5 0 0 1-1.7 1.6q1.3.6 2 1.7.8 1.1.8 2.4 0 .9-.3 1.7-.4.7-1 1.3-.6.5-1.4.8-.9.3-1.8.3-1 0-1.8-.3-.9-.3-1.5-.8-.6-.6-1-1.3-.3-.7-.3-1.6 0-1.3.8-2.4t2.2-1.8a4.9 4.9 0 0 1-1.7-1.4q-.6-1-.6-2 0-.8.3-1.5t.9-1.2q.5-.5 1.3-.8.7-.3 1.5-.3.9 0 1.6.3t1.2.8.8 1.1q.3.7.3 1.4m-4.4 4.3q-1 .5-1.8 1.4-.7.9-.7 2l.2 1q.3.5.7.8.4.4.9.6t1.1.2 1.1-.2l1-.5.5-.8.2-1q0-1.2-.8-2-.9-1-2.4-1.5m-1.5-3q.3.5.8.8l1 .7.5.2a3.77 3.77 0 0 0 1.4-1.3q.6-.8.6-1.7l-.2-.8-.5-.7q-.3-.3-.7-.4l-1-.2-1 .2-.6.4-.5.7-.2.8q0 .7.4 1.3m13.1 10.5q-2 0-3.3-1.3l1.1-1.3.2.3.2.3q.7.5 1.7.5 1.8 0 2.7-1.3.9-1.4 1-4.4-.5.7-1.4 1.1-.8.5-1.7.5a3.55 3.55 0 0 1-1.6-.4q-.7-.3-1.3-1-.6-.6-.9-1.4a7 7 0 0 1-.3-2q0-1 .3-2 .4-.8 1-1.5a2.75 2.75 0 0 1 1.3-1q.8-.4 1.7-.4 2.2 0 3.3 1.9 1.2 1.9 1.2 6 0 2-.4 3.3-.4 1.4-1.1 2.3a4.9 4.9 0 0 1-1.7 1.4q-1 .4-2 .4m3.5-9v-.7q0-.9-.2-1.7a4.6 4.6 0 0 0-.6-1.3q-.4-.5-1-.8-.4-.3-1-.3-1.2 0-2 .9-.7 1-.7 2.5 0 .8.2 1.4l.6 1q.3.4.8.7.4.2 1 .2.9 0 1.6-.5a4 4 0 0 0 1.3-1.3zm12.5-4.3q.7 1 1.1 2.5.5 1.5.5 3.4t-.5 3.3q-.4 1.4-1 2.3-.8 1-1.6 1.4-.9.5-1.8.5t-1.7-.6q-1-.6-1.6-1.5-.7-1-1-2.4-.4-1.5-.4-3.2t.3-3q.4-1.5 1.1-2.5t1.6-1.6q.8-.6 1.7-.6 1.9 0 3.3 2m-.9 1.4q-.4-1-1-1.4-.7-.5-1.3-.5t-1.2.4q-.6.5-1 1.2-.5.8-.8 2-.3 1-.3 2.3 0 1.5.4 2.9zm.6 1.7-5.3 6.7q.6 1 1.2 1.5.7.5 1.3.5t1.2-.4 1-1.1a7 7 0 0 0 .6-1.8q.3-1.1.3-2.4v-1.6zm10.6-3.1-.1-1.6q0-.6.3-1 .3-.3.7-.3t.7.4q.4.3.4 1.1t-.8 3l-.6 1.6-1.3-.3.5-1.6.2-1.4zm-4.1 0-.2-1.6q0-.6.3-1 .3-.3.8-.3.4 0 .7.4.3.3.3 1.1t-.8 3l-.5 1.6-1.4-.3.5-1.6.2-.7v-.7zm15.9 12.6q0 2-2.6 4.5l-.8-.7q.7-.6 1.1-1.3.5-.8.5-1.2a.68.68 0 0 0-.2-.5l-.4-.4a.96.96 0 0 1-.5-.4l-.1-.6q0-.6.3-1 .4-.4 1-.4.7 0 1.2.6.5.5.5 1.4m-253.1 15.3q.8 0 1.7.3.8.3 1.4 1 .6.6 1 1.5.3 1 .3 2.4v.8h-7.8q0 1.1.4 1.9.3.8.9 1.2.5.5 1.1.7l1.3.2q1.7 0 2.9-1.2l1 1q-1.5 1.6-4 1.6-1.1 0-2.1-.3a5 5 0 0 1-1.7-1.1 4.8 4.8 0 0 1-1-1.8q-.5-1-.5-2.5 0-1.4.4-2.4.4-1.1 1-1.8.8-.8 1.7-1.2a7 7 0 0 1 2-.3m-3.3 4.6h6v-.4q0-.6-.2-1.1l-.6-1-1-.6q-.4-.2-1-.2-1.2 0-2 .8-1 .8-1.2 2.5m10 6.5v-10.9h1.6v1.1q.3-.6 1-1 .5-.3 1.2-.3t1.2.4q.6.5.7 1.2.3-.8 1-1.2t1.5-.4q1.1 0 1.6.8.6.8.5 2v8.4h-1.6v-9l-.3-.6-.3-.3h-.5l-.6.2q-.3.2-.5.6-.3.4-.4 1l-.2.8v7.3h-1.6v-7.6q0-1.4-.2-1.9-.3-.4-.9-.4t-1.1.7q-.5.6-.5 1.9v7.3h-1.6zm13.2-9.6q1.5-1.5 4-1.5 2 0 3.1 1 1.2 1 1.2 3.4v6.8h-1.6v-1.2q-1.8 1.5-4 1.5a3.8 3.8 0 0 1-1.5-.3l-1.2-.7a2.1 2.1 0 0 1-.7-1 1.93 1.93 0 0 1-.3-1q0-1.8 1.4-2.7 1.5-1 4.2-1h2v-.5q0-1.6-.7-2.3-.6-.6-2-.6-1.8 0-3 1.2l-.9-1zm6.7 4.6h-1.6l-2.2.1q-.8.2-1.3.5t-.7.7l-.1.9q0 .7.6 1.3.7.5 1.7.5.7 0 1.3-.2l1-.5.7-.7.4-.6q.2-.5.2-1.3zm5.7-5.9h4.4v9.6h2.6v1.4H463v-1.4h2.8v-8.2H463v-1.4zm2.7-4.4q.3-.4.9-.4.5 0 .8.4.4.4.4.9t-.4.9q-.3.3-.8.3-.6 0-1-.3-.3-.4-.3-1 0-.4.4-.8m8.8-.6h4.8v14.6h3.3v1.4h-8.2v-1.4h3.2v-13.2h-3.1zm16.7 6.2q.4.5.4 1 0 .6-.4 1-.5.4-1 .4-.6 0-1-.4t-.4-1q0-.5.4-1 .4-.4 1-.4.5 0 1 .4m0 7.7q.4.4.4 1 0 .5-.4 1-.4.4-1 .4t-1-.4-.4-1 .4-1 1-.4q.5 0 1 .4m24.8-11-.1-1.6q0-.6.3-1 .3-.3.7-.3t.7.4q.4.3.4 1.1t-.8 3l-.6 1.6-1.3-.3.5-1.6.2-1.4zm-4.1 0-.2-1.6q0-.6.3-1 .3-.3.8-.3.4 0 .7.4.3.3.3 1.1t-.8 3l-.5 1.6-1.4-.3.5-1.6.2-.7v-.7zm17.2 2.1h1.8l-3.5 5.4 4 5.6h-2l-3-4.3-2.8 4.3h-2l3.8-5.6-3.7-5.4h1.9l2.8 4zm4.8.8-.3-.8h2v.7l3.3 8.1 2-5.9.6-1.5.3-1.4h1.8l-.5 1.4-.6 1.8-3 7.8-.4 1.2q-.6 1.6-1.5 2.3-1 .7-2.1.7-1.6 0-2.5-1l.9-1.5.1.2v.2l.2.1.2.2.4.3h.6q.7 0 1.2-.4t1-1.5l.4-.9-4.1-10zm12.3-.8h8.5v1.2l-6.7 8.3h6.9l.4-.1v1.6h-9.6v-1.2l6.7-8.3h-6.2zm20.7 10.3q-1.6 1-3.4 1a5.5 5.5 0 0 1-2.3-.5q-1.1-.5-2-1.4a6.4 6.4 0 0 1-1.5-2.4q-.5-1.5-.5-3.5t.5-3.5q.5-1.4 1.3-2.4.9-.9 1.9-1.3 1-.5 2-.5t2 .4q.8.3 1.4 1 .6.8 1 2 .3 1.1.3 2.7v4.9h-1.4v-1q-1 1.2-2.4 1.2-.6 0-1.2-.3a2.5 2.5 0 0 1-1-.6q-.5-.5-.7-1l-.2-1q0-1.8 1.2-2.8t3.8-1h.4q0-.6-.3-1.2a2.1 2.1 0 0 0-.7-1 2.1 2.1 0 0 0-1-.7q-.6-.3-1.2-.3-.8 0-1.5.4-.8.3-1.4 1.1t-1 2-.4 2.9q0 1.6.4 2.8.5 1.2 1.2 2t1.6 1.2q1 .4 1.9.4 1.3 0 2.5-.8zm-.7-8.8h-.4q-2 0-2.8.6-.9.6-.9 1.6 0 .9.6 1.4.5.6 1.2.6 1.4 0 1.8-1 .5-.8.5-2.7zm8.5-1.7q.8 0 1.7.3.8.3 1.4 1 .6.6 1 1.5.3 1 .3 2.4v.8h-7.8q0 1.1.4 1.9.3.8.9 1.2.5.5 1.1.7l1.3.2q1.7 0 2.9-1.2l1 1q-1.5 1.6-4 1.6-1.1 0-2.1-.3a5 5 0 0 1-1.7-1.1 4.8 4.8 0 0 1-1-1.8q-.5-1-.5-2.5 0-1.4.4-2.4.4-1.1 1-1.8.8-.8 1.7-1.2a7 7 0 0 1 2-.3m-3.3 4.6h6v-.4q0-.6-.2-1.1l-.6-1-1-.6q-.4-.2-1-.2-1.2 0-2 .8-1 .8-1.2 2.5m17.7-4.4h1.8l-3.5 5.4 4 5.6h-2l-3-4.3-2.8 4.3h-2l3.8-5.6-3.7-5.4h1.9l2.8 4zm5.5 1.3q1.5-1.5 4-1.5 2 0 3.1 1 1.2 1 1.2 3.4v6.8h-1.6v-1.2q-1.8 1.5-4 1.5a3.8 3.8 0 0 1-1.5-.3l-1.2-.7a2.1 2.1 0 0 1-.7-1 1.93 1.93 0 0 1-.3-1q0-1.8 1.4-2.7 1.5-1 4.2-1h2v-.5q0-1.6-.7-2.3-.6-.6-2-.6-1.8 0-3 1.2l-.9-1zm6.7 4.6h-1.6l-2.2.1q-.8.2-1.3.5t-.7.7l-.1.9q0 .7.6 1.3.7.5 1.7.5.7 0 1.3-.2l1-.5.7-.7.4-.6q.2-.5.2-1.3zm4.1 5v-10.9h1.6v1.1q.3-.6 1-1 .5-.3 1.2-.3t1.2.4q.6.5.7 1.2.3-.8 1-1.2t1.5-.4q1.1 0 1.6.8.6.8.5 2v8.4h-1.6v-9l-.3-.6-.3-.3h-.5l-.6.2q-.3.2-.5.6-.3.4-.4 1l-.2.8v7.3h-1.6v-7.6q0-1.4-.2-1.9-.3-.4-.9-.4t-1.1.7q-.5.6-.5 1.9v7.3h-1.6zm12.5-10.9h1.7v1.7q.6-.9 1.5-1.4 1-.5 1.9-.5t1.7.3q.9.4 1.5 1 .6.8 1 1.8t.4 2.5-.4 2.6a7.8 7.8 0 0 1-1 1.8q-.7.7-1.6 1.1-.8.4-1.6.4-1 0-2-.5a3.2 3.2 0 0 1-1.3-1.2v5.4H618zm1.7 6.4q0 1.8.9 2.6.7.7 1.9.7l1.2-.1q.6-.2 1-.7.6-.5.9-1.2.3-.8.3-2 0-2-1-3.2-.8-1.2-2.4-1.3l-1 .2a2.7 2.7 0 0 0-.9.6l-.6 1q-.3.8-.3 1.8zm10.9-11.4h4.8v14.6h3.3v1.4h-8.2v-1.4h3.2v-13.2h-3.1zm16.2 4.8q.8 0 1.7.3.8.3 1.4 1 .6.6 1 1.5.3 1 .3 2.4v.8h-7.8q0 1.1.4 1.9.3.8.9 1.2.5.5 1.1.7l1.3.2q1.7 0 2.9-1.2l1 1q-1.5 1.6-4 1.6-1.1 0-2.1-.3a5 5 0 0 1-1.7-1.1 4.8 4.8 0 0 1-1-1.8q-.5-1-.5-2.5 0-1.4.4-2.4.4-1.1 1-1.8.8-.8 1.7-1.2a7 7 0 0 1 2-.3m-3.3 4.6h6v-.4q0-.6-.2-1.1l-.6-1-1-.6q-.4-.2-1-.2-1.2 0-2 .8-1 .8-1.2 2.5m15.8 4.5q.4.4.4 1 0 .5-.4 1-.4.4-1 .4t-1-.4-.4-1 .4-1 1-.4q.5 0 1 .4m16.2-7-1.2 1.4-.1-.2v-.2l-.2-.4-.6-.6q-.8-.6-2.2-.6-.7 0-1.4.3-.6.2-1 .8-.5.5-.8 1.3-.3.7-.3 1.7t.3 1.7q.3.8.8 1.4l1.2.9q.7.3 1.5.3 1.6 0 2.8-1.4l1 1.2q-1.6 1.8-4 1.8a4.64 4.64 0 0 1-2.1-.5 5.3 5.3 0 0 1-1.8-1.2q-.7-.7-1-1.8-.5-1-.5-2.3 0-1.2.4-2.3a6.2 6.2 0 0 1 1.1-1.8 8.4 8.4 0 0 1 1.8-1.2q1-.4 2.2-.4 1.3 0 2.4.6 1 .5 1.7 1.4zm7.2-2.1q1 0 1.8.4 1 .4 1.6 1.1.7.8 1 1.8.5 1.1.5 2.4 0 1.4-.4 2.4a7.8 7.8 0 0 1-1 1.8 4.6 4.6 0 0 1-1.6 1.2q-1 .4-2 .4t-2-.5a5.3 5.3 0 0 1-1.6-1.1 4.7 4.7 0 0 1-1-1.9q-.5-1-.5-2.2 0-1.3.4-2.3a7.7 7.7 0 0 1 1.2-1.9q.7-.7 1.6-1.2a5.3 5.3 0 0 1 2-.4m3.2 5.8q0-1-.3-1.9-.3-.8-.7-1.3-.5-.6-1.1-.9t-1.2-.3q-.7 0-1.3.3-.5.3-1 .9-.4.5-.7 1.3t-.3 1.8.3 1.7l.7 1.4q.5.6 1 .9.7.3 1.3.3.7 0 1.3-.3t1-.8q.5-.5.7-1.3.3-.8.3-1.8m3.6 5.3v-10.9h1.6v1.1q.3-.6 1-1 .5-.3 1.2-.3t1.2.4q.6.5.7 1.2.3-.8 1-1.2t1.5-.4q1.1 0 1.6.8.6.8.5 2v8.4h-1.6v-9l-.3-.6-.3-.3h-.5l-.6.2q-.3.2-.5.6-.3.4-.4 1l-.2.8v7.3h-1.6v-7.6q0-1.4-.2-1.9-.3-.4-.9-.4t-1.1.7q-.5.6-.5 1.9v7.3h-1.6zm18.6-13-.1-1.6q0-.6.3-1 .3-.3.7-.3t.7.4q.4.3.4 1.1t-.8 3l-.6 1.6-1.3-.3.5-1.6.2-1.4zm-4.1 0-.2-1.6q0-.6.3-1 .3-.3.8-.3.4 0 .7.4.3.3.3 1.1t-.8 3l-.5 1.6-1.4-.3.5-1.6.2-.7v-.7z"/><path fill="#1D4494" d="M426.7 302.2h10.4v1.4h-10.4zm13.7-11.4h4.4v9.5h2.6v1.4h-7.1v-1.4h2.8v-8.1h-2.7zm2.7-4.5q.4-.3.9-.3t.8.4q.4.3.4.8t-.4.9a.95.95 0 0 1-.8.4q-.5 0-.9-.4t-.4-.9.4-.9m15.7 6.1v-6.6h1.8v.3l-.2.3v14.3l.1 1h-1.7V300q-.6 1-1.5 1.5-1 .6-1.9.6t-1.7-.4-1.4-1q-.6-.8-1-1.9-.3-1-.3-2.6 0-1.5.4-2.5.4-1.1 1-1.8.7-.7 1.5-1a4.8 4.8 0 0 1 1.7-.3q1.1 0 2 .5.8.5 1.2 1.4zm-5.1.3q-1 1-1 3.2 0 2 .7 3.3.8 1.3 2.4 1.3l.7-.2.8-.4q.4-.2.6-.6l.5-.8q.2-.9.2-2.3v-1.5q-.1-.7-.3-1-.1-.5-.4-.8a1.5 1.5 0 0 0-.6-.5l-.8-.4-.7-.1q-.7 0-1.2.2l-1 .6zm14.9-.7q.4.4.4 1 0 .5-.4 1-.4.3-1 .3t-1-.4-.4-1q0-.5.4-1 .4-.3 1-.3.5 0 1 .4m0 7.6q.4.5.4 1 0 .6-.4 1t-1 .4-1-.4-.4-1 .4-1 1-.4q.5 0 1 .4m28.3-9.8-8.4 4.3 8.4 4.7v1.8l-10.2-6v-1.1L497 288v1.7zM504 302q-1.3 0-2.3-.6a5.5 5.5 0 0 1-1.7-1.6q-.7-1-1-2.4-.4-1.5-.4-3.2t.4-3.1 1-2.4q.8-1 1.8-1.5 1-.6 2.2-.6 1 0 2 .5.9.4 1.6 1.4.8.9 1.2 2.3t.4 3.4q0 2.2-.5 3.7-.4 1.5-1.2 2.4a4 4 0 0 1-1.7 1.3q-.9.4-1.8.4m-2.5-3q1.1 1.3 2.5 1.3.6 0 1.2-.3.7-.2 1.2-1 .5-.6.8-1.8t.3-3-.3-3a8 8 0 0 0-.9-1.7q-.5-.7-1-1-.6-.3-1.3-.3t-1.3.3q-.7.2-1.2.9-.6.6-1 1.8-.3 1-.3 2.9 0 1.6.4 2.9.3 1.3.9 2m9.8-13.2h2l-.1.3-.1.2v6.1q.5-.8 1.4-1.4.9-.5 1.8-.5 1 0 1.8.4.8.3 1.4 1t1 1.8q.3 1 .3 2.4 0 1.5-.4 2.6a4.7 4.7 0 0 1-1 1.9q-.6.7-1.5 1-.8.4-1.6.4-1 0-1.9-.5-.8-.4-1.4-1.2l-.6 1.4h-1v-16zm3 14.2.8.4h.7l1-.1q.6-.2 1.1-.7.5-.4.8-1.2.4-.8.4-2 0-2.1-1-3.3-.8-1.1-2.5-1.1-.6 0-1.3.4-.6.4-1 1.2-.2.7-.2 2.3v1.7q0 .7.2 1.2l.4.7q.2.3.6.5m10.6-9.2h5.8v10.4q0 1.2-.3 2.1t-1 1.5q-.5.5-1.3.8t-1.7.3q-2.1 0-3.4-1.5l1.2-1.5v.2l.2.3.3.3.7.5q.5.2 1.1.2 1 0 1.8-.7.7-.7.7-2.4v-9.1h-4.1zm4-4.5q.4-.3 1-.3.5 0 .8.3.4.4.4 1 0 .4-.4.8a.95.95 0 0 1-.8.4q-.5 0-1-.4-.3-.4-.3-.9t.4-.9zm11.1 4.2q1 0 1.8.3t1.4 1q.6.6 1 1.6t.4 2.3v.8h-7.9q0 1.1.4 2l.9 1.2q.5.5 1.2.7.6.2 1.3.2 1.7 0 2.8-1.2l1 .9q-1.4 1.7-3.9 1.7-1.2 0-2.2-.4a5 5 0 0 1-1.7-1.1q-.7-.7-1-1.8-.4-1-.4-2.4t.3-2.5a6.2 6.2 0 0 1 1.1-1.8q.7-.7 1.6-1.1a5.3 5.3 0 0 1 2-.4zm-3.2 4.7h6v-.4l-.2-1.2a2.7 2.7 0 0 0-.6-.9 2.5 2.5 0 0 0-1-.6q-.4-.3-1-.3-1.2 0-2 .8-1 .8-1.2 2.6m20-2.6-1.2 1.4-.1-.1v-.3l-.2-.3q-.1-.3-.6-.6-.8-.7-2.2-.7-.7 0-1.3.3-.7.3-1.1.8-.5.6-.8 1.3a4.8 4.8 0 0 0-.3 1.7q0 1 .3 1.7.3.8.8 1.4t1.2 1q.7.2 1.5.2 1.7 0 2.9-1.3l1 1.2q-1.7 1.7-4 1.7-1.2 0-2.2-.4a6.5 6.5 0 0 1-1.7-1.2 5.3 5.3 0 0 1-1.2-1.8q-.4-1.1-.4-2.3 0-1.3.4-2.3a5.3 5.3 0 0 1 1.2-1.8 4.4 4.4 0 0 1 1.7-1.2q1-.5 2.2-.5 1.3 0 2.4.6 1 .5 1.7 1.5m5.6-4.8 1.9-.3v.4l-.2.3-.2 2.6h3.6v1.4h-3.6q-.3 2.1-.3 4v2l.3 1.2q.2.4.6.7.4.2 1 .2 1.2 0 2.5-1l.5 1.4q-1.6 1.2-3.4 1.2-1.7 0-2.5-1t-.7-3.4v-2.2l.2-3.1h-2.5v-1.4h2.6zm9.6-1h7.4v1.4h-3v12.2h3.1v1.4h-7.7v-1.5h3v-12.1H572zm18.8 5.6v-6.6h1.8v.3l-.2.3v14.3l.1 1h-1.7V300q-.6 1-1.5 1.5-1 .6-1.9.6t-1.7-.4-1.4-1q-.6-.8-1-1.9-.3-1-.3-2.6 0-1.5.4-2.5.4-1.1 1-1.8.7-.7 1.5-1a4.8 4.8 0 0 1 1.7-.3q1.1 0 2 .5.8.5 1.2 1.4zm-5.1.3q-1 1-1 3.2 0 2 .7 3.3.8 1.3 2.4 1.3l.7-.2.8-.4q.4-.2.6-.6l.5-.8q.2-.9.2-2.3v-1.5q-.1-.7-.3-1-.1-.5-.4-.8a1.5 1.5 0 0 0-.6-.5l-.8-.4-.7-.1q-.7 0-1.2.2l-1 .6zm18-2.2q0 1.1-.6 2a3.4 3.4 0 0 1-1.6 1.3 3.67 3.67 0 0 1 1.9 1.4q.7 1 .7 2.4 0 1-.4 1.7-.3.8-.9 1.4t-1.5 1q-.9.3-2 .3-2.2 0-3.8-1.7l1.3-1.5.1.3.2.4.4.3q.1.2.7.4.6.3 1.2.3.7 0 1.2-.3.6-.2 1-.6l.6-1q.3-.6.3-1.2 0-1.3-1-2-1-.8-2.6-.8h-.7v-1.3q1.1 0 1.8-.2.8-.3 1.2-.7.5-.3.7-.8l.2-1.2-.2-.8-.5-.7-.8-.5-1-.2q-1.6 0-2.6 1.2l-1-1q1.5-1.7 3.6-1.7.9 0 1.6.3.8.3 1.3.9.6.5.9 1.2t.3 1.4m3.2-.7v-1.7l10.2 5.4v1.1l-10.3 6v-1.8l8.4-4.7zm18.3 11.4q0 2-2.5 4.6l-.9-.8q.7-.6 1.1-1.3.5-.7.5-1.2l-.2-.4-.4-.4-.4-.5a.68.68 0 0 1-.2-.5q0-.6.4-1t1-.4 1.1.5q.5.6.5 1.4"/><path fill="#1C4294" d="M427.4 316.8h1.7v6q0 1.1.2 1.9.2.7.5 1 .4.5.8.7l1 .2q.6 0 1.1-.3.5-.2 1-.7.4-.4.6-1.1.3-.7.3-1.7v-6h1.7v10l.1 1h-1.8V326a3.26 3.26 0 0 1-1.5 1.5q-.8.5-2 .5-.8 0-1.4-.3-.7-.3-1.3-1-.5-.6-.8-1.5-.2-1-.2-2.3zm20.8 1.4-1 1.5v-.2l-.1-.2-1.3-1q-.7-.5-1.8-.5l-.8.1-.8.3-.5.5q-.2.3-.2.7 0 .3.2.5l.4.5.9.4 1.5.5q2 .5 2.9 1.3.8.7.8 1.8 0 .8-.3 1.4-.3.7-.9 1.1-.6.5-1.4.8-.9.3-2 .3-2.7 0-4.6-1.8l1-1.7.1.3.2.3.5.5 1.2.6.8.3h1.9l.9-.4.6-.6q.3-.3.3-.7 0-.6-.6-1-.6-.5-2.1-1l-1.4-.4q-.9-.3-1.3-.6a2 2 0 0 1-.7-.6l-.5-.8q-.2-.4-.2-1 0-.5.4-1 .3-.6.8-1 .6-.4 1.4-.6a4.8 4.8 0 0 1 1.7-.3q2.5 0 4 1.7m7.8-1.7q1 0 1.8.3t1.4 1q.6.6 1 1.6t.4 2.3v.8h-7.9q0 1.1.4 2l.9 1.2q.5.5 1.2.7.6.2 1.3.2 1.7 0 2.8-1.2l1 .9q-1.4 1.7-3.9 1.7-1.2 0-2.2-.4a5 5 0 0 1-1.7-1.1q-.7-.7-1-1.8-.4-1-.4-2.4t.3-2.5a6.2 6.2 0 0 1 1.1-1.8q.7-.7 1.6-1.1a5.3 5.3 0 0 1 2-.4zm-3.2 4.7h6v-.4l-.2-1.2a2.7 2.7 0 0 0-.6-.9 2.5 2.5 0 0 0-1-.6q-.4-.3-1-.3-1.2 0-2 .8-1 .8-1.2 2.6m11.5-4.4h1.8l-.1 2q.5-1 1.6-1.7 1-.6 2.3-.6 1.8 0 3 1.2l-.8 1.7-.5-.6-.5-.5-.5-.2-.8-.1q-.7 0-1.4.4-.7.3-1.3 1-.5.6-.8 1.3a4.8 4.8 0 0 0-.3 1.7v5.4h-1.7z"/><path fill="#1D4494" d="M474.7 328.2h10.4v1.4h-10.4zm13.7-11.4h4.4v9.5h2.6v1.4h-7.1v-1.4h2.8v-8.1h-2.7zm2.7-4.5q.4-.3.9-.3t.8.4q.4.3.4.8t-.4.9a.95.95 0 0 1-.8.4q-.5 0-.9-.4t-.4-.9.4-.9m15.7 6.1v-6.6h1.8v.3l-.2.3v14.3l.1 1h-1.7V326q-.6 1-1.5 1.5-1 .6-1.9.6t-1.7-.4-1.4-1q-.6-.8-1-1.9-.3-1-.3-2.6 0-1.5.4-2.5.4-1.1 1-1.8.7-.7 1.5-1a4.8 4.8 0 0 1 1.7-.3q1.1 0 2 .5.8.5 1.2 1.4zm-5.1.3q-1 1-1 3.2 0 2 .7 3.3.8 1.3 2.4 1.3l.7-.2.8-.4q.4-.2.6-.6l.5-.8q.2-.9.2-2.3v-1.5q-.1-.7-.3-1-.1-.5-.4-.8a1.5 1.5 0 0 0-.6-.5l-.8-.4-.7-.1q-.7 0-1.2.2l-1 .6zm14.9-.7q.4.4.4 1 0 .5-.4 1-.4.3-1 .3t-1-.4-.4-1q0-.5.4-1 .4-.3 1-.3.5 0 1 .4m0 7.6q.4.5.4 1 0 .6-.4 1t-1 .4-1-.4-.4-1 .4-1 1-.4q.5 0 1 .4m28.3-9.8-8.4 4.3 8.4 4.7v1.8l-10.2-6v-1.1L545 314v1.7zM552 328q-1.3 0-2.3-.6a5.5 5.5 0 0 1-1.7-1.6q-.7-1-1-2.4-.4-1.5-.4-3.2t.4-3.1 1-2.4q.8-1 1.8-1.5 1-.6 2.2-.6 1 0 2 .5.9.4 1.6 1.4.8.9 1.2 2.3t.4 3.4q0 2.2-.5 3.7-.4 1.5-1.2 2.4a4 4 0 0 1-1.7 1.3q-.9.4-1.8.4m-2.5-3q1.1 1.3 2.5 1.3.6 0 1.2-.3.7-.2 1.2-1 .5-.6.8-1.8t.3-3-.3-3a8 8 0 0 0-.9-1.7q-.5-.7-1-1-.6-.3-1.3-.3t-1.3.3q-.7.2-1.2.9-.6.6-1 1.8-.3 1-.3 2.9 0 1.6.4 2.9.3 1.3.9 2m9.8-13.2h2l-.1.3-.1.2v6.1q.5-.8 1.4-1.4.9-.5 1.8-.5 1 0 1.8.4.8.3 1.4 1t1 1.8q.3 1 .3 2.4 0 1.5-.4 2.6a4.7 4.7 0 0 1-1 1.9q-.6.7-1.5 1-.8.4-1.6.4-1 0-1.9-.5-.8-.4-1.4-1.2l-.6 1.4h-1v-16zm3 14.2.8.4h.7l1-.1q.6-.2 1.1-.7.5-.4.8-1.2.4-.8.4-2 0-2.1-1-3.3-.8-1.1-2.5-1.1-.6 0-1.3.4-.6.4-1 1.2-.2.7-.2 2.3v1.7q0 .7.2 1.2l.4.7q.2.3.6.5m10.6-9.2h5.8v10.4q0 1.2-.3 2.1t-1 1.5q-.5.5-1.3.8t-1.7.3q-2.1 0-3.4-1.5l1.2-1.5v.2l.2.3.3.3.7.5q.5.2 1.1.2 1 0 1.8-.7.7-.7.7-2.4v-9.1h-4.1zm4-4.5q.4-.3 1-.3.5 0 .8.3.4.4.4 1 0 .4-.4.8a.95.95 0 0 1-.8.4q-.5 0-1-.4-.3-.4-.3-.9t.4-.9zm11.1 4.2q1 0 1.8.3t1.4 1q.6.6 1 1.6t.4 2.3v.8h-7.9q0 1.1.4 2l.9 1.2q.5.5 1.2.7.6.2 1.3.2 1.7 0 2.8-1.2l1 .9q-1.4 1.7-3.9 1.7-1.2 0-2.2-.4a5 5 0 0 1-1.7-1.1q-.7-.7-1-1.8-.4-1-.4-2.4t.3-2.5a6.2 6.2 0 0 1 1.1-1.8q.7-.7 1.6-1.1a5.3 5.3 0 0 1 2-.4zm-3.2 4.7h6v-.4l-.2-1.2a2.7 2.7 0 0 0-.6-.9 2.5 2.5 0 0 0-1-.6q-.4-.3-1-.3-1.2 0-2 .8-1 .8-1.2 2.6m20-2.6-1.2 1.4-.1-.1v-.3l-.2-.3q-.1-.3-.6-.6-.8-.7-2.2-.7-.7 0-1.3.3-.7.3-1.1.8-.5.6-.8 1.3a4.8 4.8 0 0 0-.3 1.7q0 1 .3 1.7.3.8.8 1.4t1.2 1q.7.2 1.5.2 1.7 0 2.9-1.3l1 1.2q-1.7 1.7-4 1.7-1.2 0-2.2-.4a6.5 6.5 0 0 1-1.7-1.2 5.3 5.3 0 0 1-1.2-1.8q-.4-1.1-.4-2.3 0-1.3.4-2.3a5.3 5.3 0 0 1 1.2-1.8 4.4 4.4 0 0 1 1.7-1.2q1-.5 2.2-.5 1.3 0 2.4.6 1 .5 1.7 1.5m5.6-4.8 1.9-.3v.4l-.2.3-.2 2.6h3.6v1.4h-3.6q-.3 2.1-.3 4v2l.3 1.2q.2.4.6.7.4.2 1 .2 1.2 0 2.5-1l.5 1.4q-1.6 1.2-3.4 1.2-1.7 0-2.5-1t-.7-3.4v-2.2l.2-3.1h-2.5v-1.4h2.6zm9.6-1h7.4v1.4h-3v12.2h3.1v1.4h-7.7v-1.5h3v-12.1H620zm18.8 5.6v-6.6h1.8v.3l-.2.3v14.3l.1 1h-1.7V326q-.6 1-1.5 1.5-1 .6-1.9.6t-1.7-.4-1.4-1q-.6-.8-1-1.9-.3-1-.3-2.6 0-1.5.4-2.5.4-1.1 1-1.8.7-.7 1.5-1a4.8 4.8 0 0 1 1.7-.3q1.1 0 2 .5.8.5 1.2 1.4zm-5.1.3q-1 1-1 3.2 0 2 .7 3.3.8 1.3 2.4 1.3l.7-.2.8-.4q.4-.2.6-.6l.5-.8q.2-.9.2-2.3v-1.5q-.1-.7-.3-1-.1-.5-.4-.8a1.5 1.5 0 0 0-.6-.5l-.8-.4-.7-.1q-.7 0-1.2.2l-1 .6zm15.3-5.9v15h-1.6v-13l-3 1-.4-1 3.9-2h1.2zm5.9 3v-1.7l10.2 5.4v1.1l-10.3 6v-1.8l8.4-4.7zm18.3 11.4q0 2-2.5 4.6l-.9-.8q.7-.6 1.1-1.3.5-.7.5-1.2l-.2-.4-.4-.4-.4-.5a.68.68 0 0 1-.2-.5q0-.6.4-1t1-.4 1.1.5q.5.6.5 1.4"/><path fill="#1C4394" d="M428 337.8h4.8v14.5h3.2v1.4h-8.2v-1.4h3.2v-13.1h-3zm16 4.7q1 0 1.8.3t1.4 1q.6.6 1 1.6t.4 2.3v.8h-7.9q0 1.1.4 2l.9 1.2q.5.5 1.2.7.6.2 1.3.2 1.7 0 2.8-1.2l1 .9q-1.4 1.7-3.9 1.7-1.2 0-2.2-.4a5 5 0 0 1-1.7-1.1q-.7-.7-1-1.8-.4-1-.4-2.4t.3-2.5a6.2 6.2 0 0 1 1.1-1.8q.7-.7 1.6-1.1a5.3 5.3 0 0 1 2-.4zm-3.2 4.7h6v-.4l-.2-1.2a2.7 2.7 0 0 0-.6-.9 2.5 2.5 0 0 0-1-.6q-.4-.3-1-.3-1.2 0-2 .8-1 .8-1.2 2.6m10.2-3.8-.2-.6h2.1v.5l3.1 8 1.8-4 1-2.5.5-2h1.5q-.4 2-1.6 4.8l-2.7 6.2h-1.3l-4.1-10.4zm17-.9q1 0 1.8.3t1.4 1q.6.6 1 1.6t.4 2.3v.8h-7.9q0 1.1.4 2l.9 1.2q.5.5 1.2.7.6.2 1.3.2 1.7 0 2.8-1.2l1 .9q-1.4 1.7-3.9 1.7-1.2 0-2.2-.4a5 5 0 0 1-1.7-1.1q-.7-.7-1-1.8-.4-1-.4-2.4t.3-2.5a6.2 6.2 0 0 1 1.1-1.8q.7-.7 1.6-1.1a5.3 5.3 0 0 1 2-.4zm-3.2 4.7h6v-.4l-.2-1.2a2.7 2.7 0 0 0-.6-.9 2.5 2.5 0 0 0-1-.6q-.4-.3-1-.3-1.2 0-2 .8-1 .8-1.2 2.6m11.2-9.4h4.8v14.5h3.2v1.4h-8.2v-1.4h3.2v-13.1h-3zm16.6 6.2q.4.4.4 1 0 .5-.4 1-.4.3-1 .3t-1-.4-.4-1q0-.5.4-1 .4-.3 1-.3.5 0 1 .4m0 7.6q.4.5.4 1 0 .6-.4 1t-1 .4-1-.4-.4-1 .4-1 1-.4q.5 0 1 .4m19.8-12.8h7.6v1.5h-6.2l-.2 4.3q1.2-.6 2.4-.6 1 0 1.8.4.9.3 1.5 1 .6.6 1 1.6.3.9.3 2 0 1.2-.4 2.1-.4 1-1 1.6t-1.5 1q-.8.3-1.8.3-1.4 0-2.6-.6-1.1-.6-1.9-1.7l1.5-1.1.1.3v.2l.4.4q.2.3.6.5l.9.4 1 .1 1.2-.2.9-.7q.4-.5.6-1.1.3-.7.3-1.5 0-.9-.3-1.5a2.7 2.7 0 0 0-.7-1.2l-1-.7q-.5-.2-1.1-.2-.8 0-1.5.4a2.75 2.75 0 0 0-1.3 1l-1-.4zm16.8 14.4q0 2-2.5 4.6l-.9-.8q.7-.6 1.1-1.3.5-.7.5-1.2l-.2-.4-.4-.4-.4-.5a.68.68 0 0 1-.2-.5q0-.6.4-1t1-.4 1.1.5q.5.6.5 1.4m-99.6 17.3a1.28 1.28 0 0 0-.5.8q-.2.4-.2.9l.2 1 .5.7.8.5q.4.2.9.2l1-.2.7-.5.5-.8q.2-.4.2-1l-.2-.8-.5-.8-.8-.5a2 2 0 0 0-.9-.2q-1 0-1.7.7m4.4-1q1.2-1 2.7-1h.4l.2 1.4h-.7q-1 0-1.9.5.6.8.6 1.8 0 .8-.3 1.5t-.9 1.2q-.5.5-1.2.8-.8.3-1.6.3-.6 0-1.4-.3-.7.8-.7 1.3 0 .4.4.6.5.2 1.3.2h1.8q1.1 0 1.9.2t1.2.6q.5.3.8.8.2.5.2 1.1t-.3 1.2a2.28 2.28 0 0 1-1 1.1q-.6.5-1.5.8-1 .3-2.2.3-1.4 0-2.3-.3-1-.2-1.5-.5a4.4 4.4 0 0 1-1-.9q-.2-.4-.2-1 0-1.2 1.8-2.4-.9-.4-.9-1.5 0-1 1.2-2a4.5 4.5 0 0 1-1.2-1.3q-.4-.8-.4-1.7 0-.8.4-1.5.3-.7.8-1.3.6-.5 1.3-.8.8-.3 1.5-.3 1.7 0 2.7 1zm-4.3 9.7q-1.3.7-1.3 1.6 0 .5.2.8.3.4.8.6l1 .3h1.4q1.5 0 2.5-.5t1-1.4a1.58 1.58 0 0 0-.6-1q-.5-.4-1.6-.4zm10.6-10.4h1.8l-.1 2q.5-1 1.6-1.7 1-.6 2.3-.6 1.8 0 3 1.2l-.8 1.7-.5-.6-.5-.5-.5-.2-.8-.1q-.7 0-1.4.4-.7.3-1.3 1-.5.6-.8 1.3a4.8 4.8 0 0 0-.3 1.7v5.4h-1.7zm15.7-.3q1 0 1.9.4a4.6 4.6 0 0 1 1.6 1.2q.6.7 1 1.8.4 1 .4 2.4 0 1.3-.4 2.4a7.8 7.8 0 0 1-1 1.8q-.7.7-1.6 1.1-1 .4-2 .4a5.3 5.3 0 0 1-2-.4 4.6 4.6 0 0 1-1.6-1.2 7.8 7.8 0 0 1-1-1.8q-.5-1-.5-2.3 0-1.2.4-2.3a8.4 8.4 0 0 1 1.2-1.8 4.6 4.6 0 0 1 1.6-1.2q1-.5 2-.5m3.2 5.8q0-1-.3-1.8l-.7-1.4-1-.8q-.7-.3-1.3-.3t-1.2.3-1 .8q-.5.6-.8 1.4-.2.7-.2 1.7t.2 1.8q.3.8.7 1.3l1 1 1.3.2q.7 0 1.3-.2.6-.3 1-.9.5-.5.7-1.3.3-.8.3-1.8m4.2-5.5h1.7v6q0 1.1.2 1.9.2.7.5 1 .4.5.8.7l1 .2q.6 0 1.1-.3.5-.2 1-.7.4-.4.6-1.1.3-.7.3-1.7v-6h1.7v10l.1 1h-1.8V378a3.26 3.26 0 0 1-1.5 1.5q-.8.5-2 .5-.8 0-1.4-.3-.7-.3-1.3-1-.5-.6-.8-1.5-.2-1-.2-2.3zm11.9 0h1.8v1.6q.5-.8 1.4-1.4 1-.5 1.9-.5 1 0 1.7.4.9.3 1.5 1t1 1.8q.4 1 .4 2.5 0 1.4-.4 2.5t-1 1.9q-.7.7-1.5 1-.9.4-1.7.4a4.6 4.6 0 0 1-1.9-.4 3.77 3.77 0 0 1-1.4-1.3v5.4h-1.8v-15zm1.8 6.4q0 1.7.8 2.5t1.9.8l1.2-.2q.6-.2 1-.7.6-.4.9-1.2t.3-2q0-2-.9-3.2t-2.4-1.2l-1 .2q-.5.1-1 .5l-.6 1.1q-.2.7-.2 1.7zm15.5-5.2q.4.4.4 1 0 .5-.4 1-.4.3-1 .3t-1-.4-.4-1q0-.5.4-1 .4-.3 1-.3.5 0 1 .4m0 7.6q.4.5.4 1 0 .6-.4 1t-1 .4-1-.4-.4-1 .4-1 1-.4q.5 0 1 .4m24.8-11-.1-1.5q0-.7.3-1 .3-.4.7-.4t.8.4q.3.4.3 1.2 0 .7-.8 3l-.6 1.5-1.3-.3.5-1.6zm-4 0-.3-1.5q0-.7.4-1 .3-.4.7-.4t.7.4q.4.4.4 1.2t-.8 3l-.6 1.5-1.4-.3.6-1.6.1-.7.1-.6zm17.4 3.8v-6.6h1.8v.3l-.2.3v14.3l.1 1h-1.7V378q-.6 1-1.5 1.5-1 .6-1.9.6t-1.7-.4-1.4-1q-.6-.8-1-1.9-.3-1-.3-2.6 0-1.5.4-2.5.4-1.1 1-1.8.7-.7 1.5-1a4.8 4.8 0 0 1 1.7-.3q1.1 0 2 .5.8.5 1.2 1.4zm-5.1.3q-1 1-1 3.2 0 2 .7 3.3.8 1.3 2.4 1.3l.7-.2.8-.4q.4-.2.6-.6l.5-.8q.2-.9.2-2.3v-1.5q-.1-.7-.3-1-.1-.5-.4-.8a1.5 1.5 0 0 0-.6-.5l-.8-.4-.7-.1q-.7 0-1.2.2l-1 .6zm14.3-2.2q1 0 1.8.3t1.4 1q.6.6 1 1.6t.4 2.3v.8h-7.9q0 1.1.4 2l.9 1.2q.5.5 1.2.7.6.2 1.3.2 1.7 0 2.8-1.2l1 .9q-1.4 1.7-3.9 1.7-1.2 0-2.2-.4a5 5 0 0 1-1.7-1.1q-.7-.7-1-1.8-.4-1-.4-2.4t.3-2.5a6.2 6.2 0 0 1 1.1-1.8q.7-.7 1.6-1.1a5.3 5.3 0 0 1 2-.4zm-3.2 4.7h6v-.4l-.2-1.2a2.7 2.7 0 0 0-.6-.9 2.5 2.5 0 0 0-1-.6q-.4-.3-1-.3-1.2 0-2 .8-1 .8-1.2 2.6m10.2-3.8-.2-.6h2.1v.5l3.1 8 1.8-4 1-2.5.5-2h1.5q-.4 2-1.6 4.8l-2.7 6.2h-1.3l-4.1-10.4zm18.4-2.8-.1-1.5q0-.7.3-1 .3-.4.7-.4t.8.4q.3.4.3 1.2 0 .7-.8 3l-.6 1.5-1.3-.3.5-1.6zm-4 0-.3-1.5q0-.7.4-1 .3-.4.7-.4t.7.4q.4.4.4 1.2t-.8 3l-.6 1.5-1.4-.3.6-1.6.1-.7.1-.6z"/><path fill="#6BB33E" d="M423.8 96.7H678V123H423.8zm3.1 210.4H681v26.3H426.9z" opacity=".4"/></svg>