<svg xmlns="http://www.w3.org/2000/svg" height="400" width="710"><path d="M181 49.5a17 17 0 0 1-17-17.2 17 17 0 0 1 17-17.1 17 17 0 0 1 16.8 17.1A17 17 0 0 1 181 49.5z" stroke="#1c4394" fill="none"/><path d="M181.4 26v11.3H180v-9.7l-2.2.7-.3-.7 3-1.5h.8z" font-size="18" font-family="Inconsolata" fill="#1c4494"/><path d="M181 132.7a17 17 0 0 1-16.9-17.2A17 17 0 0 1 181 98.3a17 17 0 0 1 16.8 17.2 17 17 0 0 1-16.8 17.2z" stroke="#1c4394" fill="none"/><path d="M177.4 111q.5-.8 1.3-1.3.9-.5 1.8-.5.7 0 1.3.3.6.2 1 .6.5.5.7 1 .3.6.3 1.3l-.2 1-.4.9-.6.8-.7.7-1 1-.6.5-.5.6-.6.7-.4.8h4.8l.2-.2v1.3h-6.5v-.8l1.4-2.3q.8-1 1.5-1.6l.9-.8.7-.7.5-.7.2-.6v-.6l-.1-.8q-.2-.4-.5-.6l-.7-.5q-.3-.2-.7-.2-.5 0-.9.2-.3 0-.6.3l-.4.4-.2.3v.2l-1-.7z" font-size="18" font-family="Inconsolata" fill="#1c4494"/><path d="M410.5 132.7a17 17 0 0 1-16.9-17.2 17 17 0 0 1 16.9-17.2 17 17 0 0 1 16.8 17.2 17 17 0 0 1-16.8 17.2z" stroke="#1c4394" fill="none"/><path d="M406.3 109.3v11.2h-1.2v-9.7l-2.3.7-.3-.7 3-1.5h.8zm9 0v11.2h-1.2v-9.7l-2.3.7-.3-.7 3-1.5h.8z" font-size="18" font-family="Inconsolata" fill="#1c4494"/><path d="M410.5 46.8a17 17 0 0 1-16.9-17.2 17 17 0 0 1 16.9-17.1 17 17 0 0 1 16.8 17.1 17 17 0 0 1-16.8 17.2z" stroke="#1c4394" fill="none"/><path d="M406.3 23.4v11.2h-1.2V25l-2.3.6-.3-.7 3-1.5h.8zm5.1 1.8q.4-1 1.3-1.4.8-.5 1.8-.5.7 0 1.3.3.5.2 1 .7l.7 1q.3.5.3 1.2l-.2 1-.4.9-.6.8-.7.7-1 1-.6.5-.6.7-.5.7-.5.7h4.9l.2-.1v1.2h-6.5v-.8q.6-1.3 1.4-2.2.8-1 1.5-1.6l.9-.8.7-.8q.3-.3.4-.7l.3-.6v-.6q0-.4-.2-.7-.1-.4-.4-.7l-.7-.5q-.3-.2-.7-.2-.5 0-.9.2l-.6.3-.5.4-.1.4-.1.2-1-.7z" font-size="18" font-family="Inconsolata" fill="#1c4494"/><path d="M20.2 255.4a17 17 0 0 1-16.8-17.1A17 17 0 0 1 20.2 221a17 17 0 0 1 16.9 17.2 17 17 0 0 1-16.9 17.1z" stroke="#1c4394" fill="none"/><path d="M22.6 234.9q0 .8-.5 1.4-.4.7-1.2 1 .9.3 1.4 1 .6.9.6 1.9 0 .6-.3 1.2-.2.6-.7 1-.4.5-1.1.8-.7.3-1.5.3-1.7 0-2.8-1.3l1-1.2v.3l.1.3.3.2.6.3q.4.2.9.2t.9-.2l.7-.5.5-.7q.2-.4.2-.9 0-1-.8-1.5-.7-.6-1.9-.6h-.5v-1l1.3-.1 1-.5q.3-.3.4-.7l.2-.8-.1-.6-.4-.6-.6-.3-.8-.2q-1.2 0-2 .9l-.7-.8q1.1-1.2 2.7-1.2.7 0 1.2.2l1 .7.7.9.2 1z" font-size="18" font-family="Inconsolata" fill="#1c4494"/><path d="M209.8 7h170v47.8h-170z" stroke="#1d4494" stroke-width="2" fill="none"/><path d="M272.6 24.7h3.2q1 0 1.7.2l1.2.5q.4.4.6 1 .3.4.3 1 0 .8-.5 1.5-.4.7-1.2 1l.8.5q.4.2.7.6l.5.9.1.9q0 1.4-1 2.2-1 .9-3.2.9h-3.2V24.7zm1.3 1v3.6h1.7l1.3-.1q.5-.1.8-.4.3-.2.4-.5l.2-.8-.2-.7q-.1-.3-.4-.5-.3-.3-.7-.4-.5-.2-1.2-.2h-2zm0 4.7v4.4h2.1q1.5 0 2-.6.6-.6.7-1.5l-.2-1-.5-.7q-.4-.3-1-.4-.5-.2-1.3-.2H274zm11.4-2.9q.8 0 1.5.3t1.2.8q.5.6.8 1.4.3.8.3 1.8t-.3 1.8q-.3.8-.8 1.4-.5.5-1.2.8-.7.3-1.5.3t-1.5-.3q-.6-.3-1.2-.9-.5-.6-.8-1.4-.3-.8-.3-1.7 0-.9.3-1.7.3-.8.8-1.4l1.3-.9q.7-.3 1.4-.3zm2.5 4.3q0-.7-.3-1.3l-.5-1q-.3-.5-.8-.7-.4-.2-1-.2l-.8.2q-.5.2-.8.6l-.5 1q-.2.6-.2 1.4 0 .7.2 1.3l.5 1q.3.4.8.7.4.2 1 .2l.9-.2q.4-.2.7-.6.4-.4.6-1 .2-.6.2-1.4zm6.5-4.3q.8 0 1.5.3t1.2.8q.5.6.8 1.4.3.8.3 1.8t-.3 1.8q-.3.8-.8 1.4-.5.5-1.2.8-.7.3-1.5.3t-1.5-.3q-.6-.3-1.2-.9-.5-.6-.8-1.4-.3-.7-.3-1.7 0-.9.3-1.7.3-.8.8-1.4l1.3-.9q.7-.3 1.4-.3zm2.5 4.3q0-.7-.3-1.3l-.5-1q-.3-.5-.8-.7-.4-.2-1-.2l-.8.2q-.5.2-.8.6l-.5 1q-.2.6-.2 1.4 0 .7.2 1.3l.5 1q.3.4.8.7.4.2 1 .2l.9-.2q.4-.2.7-.6.4-.4.6-1 .2-.6.2-1.4zM300 24h1.4v.2l-.1.2v7l4.1-3.8 1 .1h.4l-3.4 3.3 4 4.9h-1.7l-3.3-4.1-1.1 1v3.1H300v-12zm15.6 4.8l-.8 1.1v-.1l-.1-.2-1-.8q-.5-.3-1.3-.3h-.7l-.5.3q-.3.1-.4.4l-.1.5v.4l.4.3.7.3 1 .4q1.6.4 2.2 1 .7.5.7 1.3 0 .6-.2 1l-.7 1-1.1.5q-.6.2-1.4.2-2 0-3.5-1.3l.7-1.3.1.2.1.2.4.4 1 .5.5.1.7.1h.7l.7-.3.5-.5q.2-.2.2-.5 0-.5-.5-.8-.4-.3-1.6-.7l-1-.3-1-.4-.5-.5-.3-.6q-.2-.3-.2-.7 0-.4.3-.8.2-.4.6-.7l1-.5q.6-.2 1.3-.2 1.9 0 3 1.3z" font-size="18" font-family="Inconsolata" fill="#1c4494"/><path d="M294 55.2v36m-85 0h170v47.9H209z" stroke="#1d4494" stroke-width="2" fill="none"/><path d="M245.1 107.5h3.6q1 0 1.6.3.7.2 1.1.7.4.4.6 1l.3 1.2q0 .7-.3 1.2-.2.6-.6 1l-1 .7q-.7.2-1.6.2h-2.4v5h-1.3v-11.3zm1.3 1.2v4h2.3q1.2 0 1.7-.5.5-.6.6-1.5 0-.4-.2-.7-.1-.4-.4-.7l-.7-.4q-.4-.2-1-.2h-2.3zm8.5 1.8h1.3v1.6q.3-.8 1.2-1.3.8-.5 1.7-.5 1.4 0 2.2 1l-.6 1.2-.3-.5-.4-.3-.4-.2h-.6l-1 .2q-.6.3-1 .8-.4.4-.6 1-.2.6-.2 1.3v4h-1.3v-8.3zm11.7-.1q.8 0 1.5.3.7.2 1.2.8.5.6.7 1.4.4.8.4 1.8t-.3 1.8q-.3.7-.8 1.3-.5.6-1.2.9-.7.3-1.5.3t-1.5-.3q-.7-.4-1.2-1-.5-.5-.8-1.3-.3-.8-.3-1.7 0-1 .3-1.7.3-.8.8-1.4.6-.6 1.3-.9.7-.3 1.4-.3zm2.5 4.3q0-.8-.3-1.4l-.5-1q-.3-.4-.8-.6-.4-.2-1-.2l-.8.2q-.5.2-.8.6l-.5 1q-.2.6-.2 1.3 0 .7.2 1.3l.5 1q.3.5.8.7.4.3 1 .3l.9-.2.7-.7q.4-.4.6-1 .2-.6.2-1.3zm4.8-2.9l-.4.6q-.2.3-.2.7 0 .4.2.7l.4.6.5.4.7.1.7-.1.6-.4.4-.6q.2-.3.2-.7 0-.4-.2-.7l-.4-.6-.6-.4-.7-.1q-.7 0-1.2.5zm3.3-.7q.8-.8 2-.8h.3l.1 1h-.5q-.8 0-1.4.4.4.7.4 1.4 0 .6-.2 1.1-.2.5-.7 1l-.9.5q-.5.3-1.1.3l-1-.2q-.7.5-.7.9 0 .3.4.5l1 .1h1.3l1.4.1 1 .5q.3.2.5.6l.2.8q0 .5-.3 1-.2.4-.7.8-.4.3-1.2.5-.7.3-1.6.3-1 0-1.7-.2-.7-.1-1.2-.4l-.6-.6-.2-.8q0-1 1.3-1.8-.7-.3-.7-1.1t1-1.6q-.6-.4-1-1l-.2-1.2.2-1.2.7-.9q.4-.4 1-.6l1-.2q1.3 0 2 .8zm-3.2 7.2q-1 .6-1 1.3l.1.6.6.4.8.2h1q1.1 0 1.9-.3.7-.4.7-1t-.4-.8q-.4-.3-1.2-.3h-2.6zm7.9-7.8h1.3v1.6q.3-.8 1.2-1.3.8-.5 1.7-.5 1.4 0 2.2 1l-.6 1.2-.3-.5-.4-.3-.4-.2h-.6l-1 .2q-.6.3-1 .8-.4.4-.6 1-.2.6-.2 1.3v4h-1.3v-8.3zm8.8 1q1.1-1.1 3-1.1 1.5 0 2.3.7.9.8.9 2.6v5h-1.2v-.8q-1.3 1-3 1l-1.1-.1-1-.6-.5-.7-.1-.8q0-1.3 1-2 1.1-.7 3.1-.8h1.6v-.3q0-1.2-.6-1.7-.5-.5-1.5-.5-1.4 0-2.3 1l-.6-.9zm5 3.4h-1.2l-1.6.1-1 .4q-.4.2-.5.5-.2.3-.2.7 0 .5.6 1 .5.4 1.2.4l1-.2.7-.4.5-.5.3-.5q.2-.3.2-1v-.5zm3.1 3.9v-8.3h1.1v.8q.3-.4.8-.7.4-.3 1-.3.5 0 .9.4.4.3.5.8.2-.5.7-.8.5-.4 1.1-.4.9 0 1.3.6t.3 1.5v6.4h-1.2V112q0-.3-.2-.4l-.3-.3h-.3l-.5.2-.4.5-.3.6v6.2H302V113q0-1-.2-1.3-.1-.4-.6-.4-.4 0-.9.5-.4.6-.4 1.5v5.5h-1.1zm9 0v-8.3h1.1v.8q.3-.4.8-.7.4-.3 1-.3.5 0 .9.4.4.3.5.8.2-.5.7-.8.5-.4 1.1-.4.9 0 1.3.6t.3 1.5v6.4h-1.2V112q0-.3-.2-.4l-.3-.3h-.3l-.5.2-.4.5-.3.6v6.2H311V113q0-1-.2-1.3-.1-.4-.6-.4-.4 0-.9.5-.4.6-.4 1.5v5.5h-1.1zm10.2-8.3h3.3v7.2h1.9v1h-5.3v-1h2v-6.1h-2v-1zm2-3.3l.6-.2q.4 0 .7.2.3.3.3.7 0 .4-.3.6-.3.3-.7.3-.3 0-.6-.3-.3-.2-.3-.6 0-.4.3-.7zm6.3 11.6v-8.3h1.3v1.5q.5-.8 1.2-1.2.8-.5 1.5-.5l1 .2q.5.2.8.6.4.4.5 1 .2.7.2 1.7v5h-1.2v-5q0-1.3-.5-1.8-.4-.5-1-.5l-.9.1-.8.6-.6.8q-.2.4-.2 1v4.8h-1.3zm10.6-7l-.4.6q-.2.3-.2.7 0 .4.2.7l.4.6.5.4.7.1.7-.1.6-.4.4-.6q.2-.3.2-.7 0-.4-.2-.7l-.4-.6-.6-.4-.7-.1q-.7 0-1.2.5zm3.3-.7q.8-.8 2-.8h.3l.1 1h-.5q-.8 0-1.4.4.4.7.4 1.4 0 .6-.2 1.1-.2.5-.7 1l-.9.5q-.5.3-1.1.3l-1-.2q-.7.5-.7.9 0 .3.4.5l1 .1h1.3l1.4.1 1 .5q.3.2.5.6l.2.8q0 .5-.3 1-.2.4-.7.8-.4.3-1.2.5-.7.3-1.6.3-1 0-1.7-.2-.7-.1-1.2-.4l-.6-.6-.2-.8q0-1 1.3-1.8-.7-.3-.7-1.1t1-1.6q-.6-.4-1-1l-.2-1.2.2-1.2.7-.9q.4-.4 1-.6l1-.2q1.3 0 2 .8zm-3.2 7.2q-1 .6-1 1.3l.1.6.6.4.8.2h1q1.1 0 1.9-.3.7-.4.7-1t-.4-.8q-.4-.3-1.2-.3h-2.6z" font-size="18" font-family="Inconsolata" fill="#1c4494"/><path d="M294 141v36m168.2-.8v35.3m-329.4-33.6l330.4-1.7m-86 39.4h170v47.9h-170z" stroke="#1d4494" stroke-width="2" fill="none"/><path d="M422.2 233h2.6q1.4 0 2.2.5.8.4 1.4 1.1.6.7.8 1.8.3 1 .3 2.3 0 1.3-.3 2.4-.3 1-1 1.7-.5.7-1.4 1.1-.9.4-2.2.4h-2.4v-11.2zm1.2 1.1v9.2h1.1q2 0 2.8-1.1 1-1.2 1-3.4t-.9-3.4q-.8-1.3-2.7-1.3h-1.3zm8.5 2.9q1-1.1 2.9-1.1 1.5 0 2.4.8.9.7.9 2.5v5h-1.3v-.8q-1.3 1-3 1l-1-.1-1-.5-.5-.8-.2-.8q0-1.2 1-2 1.1-.7 3.2-.8h1.5v-.3q0-1.2-.5-1.7t-1.6-.5q-1.3 0-2.2 1l-.6-.9zm5 3.4h-1.3q-1 0-1.6.2-.6 0-1 .3l-.5.6-.1.6q0 .6.5 1t1.2.4q.6 0 1-.2.5-.1.8-.4l.5-.5.3-.5q.2-.3.2-1v-.5zm5.7-6.5l1.4-.3v.5l-.3 2h2.7v1h-2.7l-.2 3v1.5l.3 1q.1.3.4.5l.8.1q.8 0 1.8-.7l.4 1q-1.2 1-2.5 1t-2-.8q-.5-.8-.5-2.6v-1.6l.2-2.4h-2v-1h2l.2-2.2zm7.3 3.1q1-1.1 2.9-1.1 1.5 0 2.4.8.9.7.9 2.5v5h-1.3v-.8q-1.3 1-3 1l-1-.1-1-.5-.5-.8-.2-.8q0-1.2 1-2 1.1-.7 3.2-.8h1.5v-.3q0-1.2-.5-1.7t-1.6-.5q-1.3 0-2.2 1l-.6-.9zm5 3.4h-1.3q-1 0-1.6.2-.6 0-1 .3l-.5.6-.1.6q0 .6.5 1t1.2.4q.6 0 1-.2.5-.1.8-.4l.5-.5.3-.5q.2-.3.2-1v-.5zm3.4-8.1h1.5v.2l-.2.2v4.6q.4-.6 1-1 .8-.4 1.5-.4t1.3.2q.6.3 1 .8.5.5.8 1.3.3.8.3 1.9 0 1.1-.4 2-.2.7-.7 1.3-.5.5-1.1.8-.6.3-1.3.3-.7 0-1.4-.4-.6-.3-1-.9l-.5 1h-.8v-11.9zm2.3 10.7l.6.3h1.3l.8-.6.6-.9q.2-.6.2-1.5 0-1.6-.6-2.5-.7-.8-2-.8-.4 0-1 .3-.4.3-.7.9-.2.5-.2 1.7v1.3q0 .5.2.9l.3.5q.2.3.5.4zm7.3-6q1-1.1 2.9-1.1 1.5 0 2.4.8.9.7.9 2.5v5h-1.3v-.8q-1.3 1-3 1l-1-.1-1-.5-.5-.8-.2-.8q0-1.2 1-2 1.1-.7 3.2-.8h1.5v-.3q0-1.2-.5-1.7t-1.6-.5q-1.3 0-2.2 1l-.6-.9zm5 3.4h-1.3q-1 0-1.6.2-.6 0-1 .3l-.5.6-.1.6q0 .6.5 1t1.2.4q.6 0 1-.2.5-.1.8-.4l.5-.5.3-.5q.2-.3.2-1v-.5zm10.1-3.2l-.8 1v-.2l-1-.8q-.6-.3-1.3-.3h-.7l-.6.3-.4.3v.9l.4.4.6.3 1.1.3q1.6.5 2.2 1 .6.6.6 1.4 0 .6-.2 1-.2.5-.7.9-.4.4-1 .6-.7.2-1.5.2-2 0-3.4-1.3l.7-1.3v.2l.2.2.4.4.9.5.6.1h1.4q.4 0 .6-.3.4-.1.5-.4.2-.2.2-.5 0-.5-.4-.8l-1.6-.7-1-.3-1-.4-.5-.5-.4-.6-.1-.7q0-.5.2-.9l.7-.7q.4-.3 1-.4l1.2-.2q2 0 3.1 1.3zm5.9-1.3l1.2.2q.7.2 1.1.7.5.5.7 1.2.3.8.3 1.8v.6h-5.9q0 .8.3 1.4l.7 1 .9.5 1 .1q1.2 0 2-.9l.8.7q-1 1.3-2.9 1.3-.9 0-1.6-.3-.8-.3-1.3-.8-.5-.6-.8-1.4-.3-.8-.3-1.8t.3-1.9q.3-.8.8-1.3.5-.6 1.2-.9.7-.2 1.5-.2zm-2.5 3.5h4.5v-.3l-.1-.9-.5-.7-.7-.5-.8-.1q-.8 0-1.5.6t-.9 1.9zm14.6-2.2l-.8 1v-.2l-1-.8q-.6-.3-1.3-.3h-.7l-.6.3-.4.3v.9l.4.4.6.3 1.1.3q1.6.5 2.2 1 .6.6.6 1.4 0 .6-.2 1-.2.5-.7.9-.4.4-1 .6-.7.2-1.5.2-2 0-3.4-1.3l.7-1.3v.2l.2.2.4.4.9.5.6.1h1.4q.4 0 .6-.3.4-.1.5-.4.2-.2.2-.5 0-.5-.4-.8l-1.6-.7-1-.3-1-.4-.5-.5-.4-.6-.1-.7q0-.5.2-.9l.7-.7q.4-.3 1-.4l1.2-.2q2 0 3.1 1.3z" font-size="18" font-family="Inconsolata" fill="#1c4494"/><path d="M327 303.2V339m265.7-37v35.3M327 303.2l265.7-1.2m-362.3 38h170v47.8h-170z" stroke="#1d4494" stroke-width="2" fill="none"/><path d="M284.2 357.4h1l2.7 5.5 2.9-5.5h.9v11.2h-1.2V360l-2.4 4.6h-.5l-2.3-4.5v8.4h-1.1v-11.2zm12.8 2.8q.8 0 1.4.3.7.3 1.2.8.5.6.8 1.4.3.8.3 1.8t-.3 1.8q-.3.8-.8 1.4-.5.5-1.2.8-.6.3-1.4.3-.8 0-1.5-.3t-1.2-.9l-.9-1.4q-.3-.8-.3-1.7 0-.9.3-1.7l.9-1.4 1.2-.9q.7-.3 1.5-.3zm2.4 4.3q0-.7-.2-1.3-.2-.7-.5-1-.4-.5-.8-.7l-1-.2-.9.2-.8.6-.5 1q-.2.6-.2 1.4 0 .7.2 1.3l.5 1 .8.7 1 .2 1-.2q.4-.2.7-.6l.5-1q.2-.6.2-1.4zm3.2 4.1v-8.2h1.4v1.4q.4-.7 1.2-1.2.7-.4 1.5-.4l1 .2q.4.1.8.6l.5 1q.2.7.2 1.6v5h-1.3v-5q0-1.3-.4-1.8-.5-.5-1-.5l-1 .2-.7.5q-.4.3-.6.8l-.2 1v4.8h-1.4zm10.6-6.9q-.3.2-.4.6l-.1.6.1.7.4.6.6.4.7.1.7-.1.6-.4.4-.6.1-.7-.1-.6-.4-.6-.6-.4q-.3-.2-.7-.2-.7 0-1.3.6zm3.3-.8q.9-.7 2-.7h.3l.2 1h-.5q-.8 0-1.4.4.4.6.4 1.4 0 .5-.3 1-.2.6-.6 1l-1 .6-1 .2q-.6 0-1.1-.2-.6.5-.6 1 0 .2.3.4.4.2 1 .2h2.7l1 .5q.4.3.5.7.2.3.2.8l-.2 1-.7.7q-.5.4-1.2.6-.7.2-1.7.2t-1.7-.2q-.7-.1-1.1-.4l-.7-.6-.2-.8q0-1 1.4-1.8-.7-.3-.7-1.1t1-1.6q-.6-.3-1-1-.3-.5-.3-1.2 0-.6.3-1.1.2-.6.6-1l1-.6 1.1-.2q1.2 0 2 .8zm-3.2 7.3q-1 .5-1 1.2 0 .4.2.6.2.3.6.4.3.2.8.2l1 .1q1 0 1.8-.4.7-.4.7-1 0-.5-.4-.8-.3-.3-1.1-.3h-2.6zm10.7-8q.8 0 1.4.3.7.3 1.2.8.5.6.8 1.4.3.8.3 1.8t-.3 1.8q-.3.8-.8 1.4-.5.5-1.2.8-.6.3-1.4.3-.8 0-1.5-.3t-1.2-.9l-.9-1.4q-.3-.8-.3-1.7 0-.9.3-1.7l.9-1.4 1.2-.9q.7-.3 1.5-.3zm2.4 4.3q0-.7-.2-1.3-.2-.7-.5-1-.4-.5-.8-.7l-1-.2-.9.2-.8.6-.5 1q-.2.6-.2 1.4 0 .7.2 1.3l.5 1 .8.7 1 .2 1-.2q.4-.2.7-.6l.5-1q.2-.6.2-1.4zm3-7.1h2.6q1.4 0 2.2.4.8.4 1.4 1.1.6.7.8 1.8.3 1 .3 2.4 0 1.2-.3 2.3-.3 1-1 1.7-.5.8-1.4 1.1-.9.4-2.2.4h-2.4v-11.2zm1.2 1v9.2h1.1q2 0 2.8-1.1 1-1.2 1-3.4t-.9-3.4q-.8-1.3-2.7-1.3h-1.3zm7.7-1h3.2q1 0 1.6.2.8.2 1.2.5l.7 1q.2.4.2 1 0 .8-.4 1.5-.5.7-1.3 1 .5.1.9.4l.7.7.4.8.1 1q0 1.4-1 2.2-1 .9-3.1.9h-3.2v-11.2zm1.2 1v3.6h1.8l1.2-.1q.5-.1.8-.4l.5-.5.1-.8-.1-.7-.5-.5q-.2-.3-.7-.4-.4-.2-1.1-.2h-2zm0 4.7v4.4h2.2q1.4 0 2-.6.5-.6.6-1.5l-.2-1q-.1-.4-.5-.7-.3-.3-.9-.5l-1.3-.1h-1.9z" font-size="18" font-family="Inconsolata" fill="#1c4494"/><path d="M491.5 339.6h170v48h-170z" stroke="#1d4494" stroke-width="2" fill="none"/><path d="M569.2 361.3v-5h1.4l-.1.3-.1.2v10.8l.1.7h-1.3V367q-.5.7-1.1 1-.7.5-1.4.5t-1.3-.3q-.6-.3-1-.8-.5-.5-.8-1.3-.3-.9-.3-2t.3-2q.3-.7.8-1.2t1.1-.8l1.3-.2q.8 0 1.5.4.6.3.9 1zm-3.8.2q-.8.7-.8 2.4 0 1.6.6 2.5.6 1 1.7 1l.6-.1.6-.3.5-.5.3-.6q.2-.7.2-1.8v-1l-.2-.9-.3-.5-.5-.4-.6-.3H566l-.6.5zm7.2-5.2h1.5l-.1.3v4.7q.3-.6 1-1t1.4-.4q.6 0 1.3.3.6.2 1 .7.5.6.8 1.4.2.8.2 1.8 0 1.1-.3 2-.3.8-.7 1.3-.5.6-1.1.8-.6.3-1.3.3-.8 0-1.4-.3-.6-.4-1-1l-.5 1.1h-.8v-12zm2.2 10.7l.7.3h1.3q.4-.2.7-.6.4-.3.7-.9.2-.6.2-1.4 0-1.7-.7-2.5-.6-.9-1.9-.9-.4 0-1 .3-.4.3-.7.9-.2.5-.2 1.8v1.2q0 .6.2 1l.3.5.4.3zm6.4 1.3v-8.2h1.2v.8q.3-.5.7-.7.5-.3 1-.3t.9.3q.4.4.5.9.3-.6.8-.9.5-.3 1-.3.9 0 1.3.6t.4 1.5v6.3h-1.2v-6.8l-.3-.4q0-.2-.2-.2h-.3l-.5.1-.4.5-.3.7-.1.7v5.4h-1.2v-5.7q0-1-.2-1.4-.2-.3-.7-.3-.4 0-.8.5t-.4 1.4v5.5h-1.2z" font-size="18" font-family="Inconsolata" fill="#1c4494"/><path d="M462.2 265v36M133.4 177.9v35.7m-85 2.5h170V264h-170z" stroke="#1d4494" stroke-width="2" fill="none"/><path d="M93.6 233.6H95l-.1.3-.1.3v9.5h5.4v1.1h-6.7v-11.2zm9.4 3.9q1.1-1.1 3-1.1 1.5 0 2.3.8 1 .7 1 2.5v5.1H108v-.9q-1.3 1.1-3 1.1-.6 0-1.1-.2l-.9-.5-.5-.8-.2-.8q0-1.2 1-2 1.1-.7 3.1-.7h1.6v-.3q0-1.3-.5-1.8-.5-.4-1.6-.4-1.4 0-2.2.9l-.7-.9zm5 3.4h-1.2q-1 0-1.6.2l-1 .3q-.4.3-.5.6l-.1.6q0 .6.5 1t1.2.4q.6 0 1-.2.4-.1.7-.4.4-.2.6-.5l.3-.4.1-1v-.6zm3.6 3.9v-8.2h1.3v1.4q.5-.7 1.2-1.2.8-.4 1.5-.4.6 0 1 .2.5.2.8.6.4.4.6 1 .2.7.2 1.6v5h-1.3v-5q0-1.2-.5-1.8-.4-.5-1-.5l-.9.2-.8.5-.5.8q-.3.5-.3 1v4.8h-1.3zm10.6-6.9q-.3.2-.4.6l-.1.6.1.8q.1.3.4.5.2.3.6.4l.7.1.7-.1q.3-.1.5-.4.3-.2.4-.6.2-.3.2-.7l-.2-.6q-.1-.4-.4-.6-.2-.3-.6-.4l-.6-.2q-.8 0-1.3.6zm3.3-.8q.9-.7 2-.7h.3l.1 1h-.4q-.8 0-1.5.4.4.6.4 1.4l-.2 1q-.2.6-.6 1l-1 .6q-.5.2-1.1.2l-1-.2q-.6.6-.6 1 0 .2.3.4.4.2 1 .2h2.7l1 .5.5.7q.2.3.2.8t-.3 1q-.2.4-.7.7-.4.4-1.1.6-.7.2-1.7.2t-1.7-.2q-.7-.1-1.1-.4-.5-.2-.7-.6l-.2-.7q0-1 1.3-1.9-.6-.3-.6-1.1t.9-1.5q-.6-.4-.9-1-.3-.6-.3-1.3 0-.6.2-1.1l.7-1 1-.6 1-.2q1.3 0 2 .8zm-3.2 7.3q-1 .5-1 1.2 0 .4.2.6.2.3.5.4l.8.3h1q1.2 0 1.9-.4t.7-1q0-.5-.4-.8-.4-.3-1.2-.3h-2.6zm7.2-7.8h1.3v4.6q0 .8.2 1.3.1.5.4.8.2.4.6.5.3.2.7.2.4 0 .8-.3.4-.1.7-.5l.5-.8q.2-.6.2-1.3v-4.5h1.3v7.5l.1.7H135v-1.3q-.4.7-1 1.1-.7.4-1.5.4-.7 0-1.2-.2l-.9-.7q-.4-.5-.6-1.2-.2-.7-.2-1.7v-4.6zm9.5.9q1.1-1.1 3-1.1 1.5 0 2.3.8 1 .7 1 2.5v5.1H144v-.9q-1.3 1.1-3 1.1-.6 0-1.1-.2l-.9-.5-.5-.8-.2-.8q0-1.2 1-2 1.1-.7 3.1-.7h1.6v-.3q0-1.3-.5-1.8-.5-.4-1.6-.4-1.4 0-2.2.9l-.7-.9zm5 3.4h-1.2q-1 0-1.6.2l-1 .3q-.4.3-.5.6l-.1.6q0 .6.5 1t1.2.4q.6 0 1-.2.4-.1.7-.4.4-.2.6-.5l.3-.4.1-1v-.6zm5.2-3q-.3.2-.4.6l-.1.6.1.8q.1.3.4.5.2.3.6.4l.7.1.7-.1q.3-.1.5-.4.3-.2.4-.6.2-.3.2-.7l-.2-.6q-.1-.4-.4-.6-.2-.3-.6-.4l-.6-.2q-.8 0-1.3.6zm3.3-.8q.9-.7 2-.7h.3l.1 1h-.4q-.8 0-1.5.4.4.6.4 1.4l-.2 1q-.2.6-.6 1l-1 .6q-.5.2-1.1.2l-1-.2q-.6.6-.6 1 0 .2.3.4.4.2 1 .2h2.7l1 .5.5.7q.2.3.2.8t-.3 1q-.2.4-.7.7-.4.4-1.1.6-.7.2-1.7.2t-1.7-.2q-.7-.1-1.1-.4-.5-.2-.7-.6l-.2-.7q0-1 1.3-1.9-.6-.3-.6-1.1t.9-1.5q-.6-.4-.9-1-.3-.6-.3-1.3 0-.6.2-1.1l.7-1 1-.6 1-.2q1.3 0 2 .8zm-3.2 7.3q-1 .5-1 1.2 0 .4.2.6.2.3.5.4l.8.3h1q1.2 0 1.9-.4t.7-1q0-.5-.4-.8-.4-.3-1.2-.3h-2.6zm10.7-8q.7 0 1.3.2.6.2 1 .7.5.5.8 1.2.3.8.3 1.8v.6h-5.9q0 .8.3 1.4l.7 1 .9.5 1 .1q1.2 0 2-.9l.8.7q-1 1.3-3 1.3-.8 0-1.6-.3-.7-.3-1.2-.8-.6-.6-.8-1.4-.3-.8-.3-1.8t.3-1.8q.3-.9.8-1.4.5-.5 1.2-.8.7-.3 1.5-.3zm-2.4 3.5h4.5v-.3q0-.5-.2-.9-.1-.4-.4-.7l-.7-.5-.8-.1q-.9 0-1.6.6-.7.6-.8 1.9zm14.6-2.2l-.8 1.1v-.1l-.1-.2q-.3-.4-1-.8-.5-.3-1.3-.3h-.6l-.6.3-.4.4-.1.5v.3l.4.4.7.3 1 .4q1.6.4 2.3 1 .6.5.6 1.3 0 .6-.2 1l-.7 1-1 .5q-.7.2-1.5.2-2 0-3.5-1.3l.8-1.3v.2l.2.2q0 .2.3.4l1 .5.5.1.7.1h.7l.7-.3.5-.5q.2-.2.2-.5 0-.5-.5-.8-.4-.3-1.5-.7l-1-.3-1-.4-.5-.5q-.3-.2-.4-.6-.2-.3-.2-.7 0-.4.3-.8.2-.4.6-.7l1-.5q.6-.2 1.3-.2 1.9 0 3 1.3z" font-size="18" font-family="Inconsolata" fill="#1c4494"/><path d="M248.6 255.4a17 17 0 0 1-16.8-17.1 17 17 0 0 1 16.8-17.2 17 17 0 0 1 16.9 17.2 17 17 0 0 1-16.9 17.1z" stroke="#1c4394" fill="none"/><path d="M249.2 232h1.1v7h1.4v1.2h-1.4v3H249v-3h-4.5v-1l4.7-7.2zm-.2 2l-3.3 5h3.3v-5z" font-size="18" font-family="Inconsolata" fill="#1c4494"/><path d="M350.4 255a17 17 0 0 1-16.9-17.1 17 17 0 0 1 16.9-17.2 17 17 0 0 1 16.8 17.2 17 17 0 0 1-16.8 17.1z" stroke="#1c4394" fill="none"/><path d="M347.3 231.7h5.7v1h-4.7l-.1 3.3q.8-.4 1.8-.4.7 0 1.3.2.7.3 1.1.8.5.5.7 1.2.3.7.3 1.5 0 .9-.3 1.6l-.7 1.2q-.5.5-1.2.7-.6.3-1.3.3-1 0-2-.5-.8-.4-1.4-1.3l1.1-.8.1.2v.2l.3.3.5.4.6.3h.8l.9-.1q.4-.2.6-.6l.5-.8q.2-.5.2-1.1 0-.6-.2-1.1l-.5-.9-.7-.5q-.4-.2-.9-.2-.6 0-1.1.3-.6.3-1 .8l-.8-.3.4-5.7z" font-size="18" font-family="Inconsolata" fill="#1c4494"/><path d="M575.5 255a17 17 0 0 1-16.8-17.1 17 17 0 0 1 16.8-17.2 17 17 0 0 1 16.9 17.2 17 17 0 0 1-16.9 17.1z" stroke="#1c4394" fill="none"/><path d="M571.4 231.6V243h-1.2v-9.7l-2.3.7-.3-.7 3-1.6h.8zM582 233q.5.8.8 2 .3 1 .3 2.4 0 1.5-.3 2.5t-.8 1.8q-.5.7-1.2 1-.6.4-1.3.4-.7 0-1.3-.5-.7-.4-1.2-1.1-.5-.8-.8-1.8-.3-1-.3-2.3 0-1.3.3-2.4.3-1 .8-1.8t1.2-1.2q.6-.4 1.3-.4 1.4 0 2.5 1.5zm-.7 1.1q-.4-.7-.8-1-.5-.4-1-.4-.4 0-.9.3l-.8.9-.5 1.4q-.2.8-.2 1.8 0 1.1.2 2.1l4-5zm.4 1.2l-4 5q.5.9 1 1.3.4.3 1 .3.4 0 .8-.3t.7-.8q.4-.6.5-1.4.2-.8.2-1.8v-1.2q0-.6-.2-1z" font-size="18" font-family="Inconsolata" fill="#1c4494"/><path d="M201.8 381.4a17 17 0 0 1-16.8-17.2 17 17 0 0 1 16.8-17.1 17 17 0 0 1 16.9 17.1 17 17 0 0 1-16.9 17.2z" stroke="#1c4394" fill="none"/><path d="M202 358q1.4 0 2.5 1l-1 .9-.1-.3q0-.2-.3-.3-.2-.2-.5-.2h-.6l-.8.1q-.5.2-.9.6-.4.5-.7 1.4-.3.8-.3 2.2.4-.7 1-1 .6-.4 1.4-.4.6 0 1.2.3.5.2 1 .7.4.5.6 1.2.2.7.2 1.5t-.2 1.5l-.7 1.2q-.4.5-1 .8-.6.2-1.3.2-.8 0-1.5-.3-.6-.4-1-1.1-.5-.7-.7-1.7-.3-1-.3-2.2 0-1.5.3-2.6.3-1.2.8-2t1.3-1.2q.7-.4 1.6-.4zm-2.6 6.6v.5l.1 1.2.5 1q.3.5.7.8.4.2.9.2.8 0 1.3-.7.6-.6.6-1.9 0-.7-.2-1.2-.1-.5-.4-.8-.3-.3-.7-.4l-.6-.2q-.7 0-1.3.5-.6.4-1 1z" font-size="18" font-family="Inconsolata" fill="#1c4494"/><path d="M430.4 381.4a17 17 0 0 1-16.8-17.2 17 17 0 0 1 16.8-17.1 17 17 0 0 1 16.9 17.1 17 17 0 0 1-16.9 17.2z" stroke="#1c4394" fill="none"/><path d="M433.2 358.7l-2.1 5.2q-1 2.6-1.8 5.3h-1.4l1.8-5 2-5h-4.8V358h6.3v.7z" font-size="18" font-family="Inconsolata" fill="#1c4494"/><path d="M469.1 381.4a17 17 0 0 1-16.9-17.2 17 17 0 0 1 16.9-17.1 17 17 0 0 1 16.9 17.1 17 17 0 0 1-16.9 17.2z" stroke="#1c4394" fill="none"/><path d="M471.7 360.6q0 .8-.5 1.5t-1.3 1.2q1 .4 1.5 1.2.6.9.6 1.8 0 .7-.2 1.3l-.8 1q-.4.4-1 .6l-1.4.2q-.7 0-1.3-.2-.7-.2-1.1-.6l-.8-1-.2-1.2q0-1 .6-1.8t1.6-1.3q-.7-.4-1.2-1.1-.5-.7-.5-1.5 0-.6.3-1.1.2-.5.6-.9.4-.4 1-.6.5-.2 1.1-.2.7 0 1.2.2l1 .6.5.8q.3.5.3 1zm-3.3 3.2q-.8.3-1.4 1-.5.7-.5 1.5l.1.8.5.6q.3.3.7.4l.8.2q.5 0 .9-.2.4-.1.7-.4l.4-.6q.2-.3.2-.8 0-.8-.7-1.5-.6-.7-1.7-1zm-1.2-2.3l.6.7.8.4.3.2q.7-.4 1.1-1 .4-.6.4-1.2l-.1-.6q-.1-.3-.4-.5-.2-.3-.5-.4l-.7-.2q-.4 0-.7.2l-.6.3-.3.5-.2.6q0 .6.3 1z" font-size="18" font-family="Inconsolata" fill="#1c4494"/><path d="M687.8 381.4a17 17 0 0 1-16.9-17.2 17 17 0 0 1 16.9-17.1 17 17 0 0 1 16.8 17.1 17 17 0 0 1-16.8 17.2z" stroke="#1c4394" fill="none"/><path d="M686.7 369.4q-1.4 0-2.5-1l.9-1 .1.3.2.2q.5.4 1.3.4 1.3 0 2-1 .6-1 .7-3.3-.4.5-1 .9-.6.3-1.3.3-.6 0-1.2-.3-.6-.2-1-.7l-.7-1.1q-.2-.7-.2-1.5t.3-1.4q.2-.7.6-1.2l1-.8q.7-.3 1.3-.3 1.7 0 2.6 1.4.9 1.4.9 4.6 0 1.4-.4 2.4-.3 1-.8 1.8-.6.6-1.3 1-.7.3-1.5.3zm2.6-6.7v-.5l-.1-1.3-.5-1-.6-.6q-.4-.3-.8-.3-1 0-1.5.7-.6.7-.6 1.9 0 .6.2 1l.4.8.6.5q.3.2.7.2.7 0 1.3-.4.6-.4 1-1z" font-size="18" font-family="Inconsolata" fill="#1c4494"/></svg>