<svg xmlns="http://www.w3.org/2000/svg" viewBox="0, 0, 710, 400" height="400" width="710"><path d="M181 49.5a17 17 0 0 1-17-17.2 17 17 0 0 1 17-17.1 17 17 0 0 1 16.8 17.1A17 17 0 0 1 181 49.5z" stroke="#1c4394" fill="none"/><path d="M180.1 37.3v-9.7l-2.2.7-.3-.7 3-1.5h.8v11.2H180z" font-size="18" font-family="Inconsolata" fill="#1c4494"/><path d="M181 132.7a17 17 0 0 1-16.9-17.2A17 17 0 0 1 181 98.3a17 17 0 0 1 16.8 17.2 17 17 0 0 1-16.8 17.2z" stroke="#1c4394" fill="none"/><path d="M177.3 119.5l1.5-1.5 2.1-2.3q.8-.8 1.2-1.6.4-.8.4-1.7 0-1.1-.5-1.6t-1.4-.5q-.7 0-1.4.4-.7.3-.9.7l-.2.4-.1.3h.2v.1h-.2l-1-.8q.6-1 1.5-1.6 1-.6 2.1-.6 1.5 0 2.3.9 1 .8 1 2.3 0 1-.5 2l-1.2 1.7-2 2-1.3 1.3h4.6q.2 0 .3-.2v1.3h-6.5v-1z" font-size="18" font-family="Inconsolata" fill="#1c4494"/><path d="M410.5 132.7a17 17 0 0 1-16.9-17.2 17 17 0 0 1 16.9-17.2 17 17 0 0 1 16.8 17.2 17 17 0 0 1-16.8 17.2z" stroke="#1c4394" fill="none"/><path d="M405.1 120.5v-9.7l-2.3.7-.3-.7 3-1.5h.9v11.2H405zm9 0v-9.7l-2.3.7-.3-.7 3-1.5h.9v11.2H414z" font-size="18" font-family="Inconsolata" fill="#1c4494"/><path d="M410.5 46.8a17 17 0 0 1-16.9-17.2 17 17 0 0 1 16.9-17.1 17 17 0 0 1 16.8 17.1 17 17 0 0 1-16.8 17.2z" stroke="#1c4394" fill="none"/><path d="M405.1 34.6V25l-2.3.6-.3-.7 3-1.5h.9v11.2H405zm6.2-1l1.4-1.5L415 30l1.2-1.7q.4-.8.4-1.7 0-1-.5-1.6-.5-.5-1.4-.5-.8 0-1.4.4-.7.3-.9.7l-.2.5-.1.2h.1v.1h-.2l-.9-.8q.5-1 1.5-1.6 1-.6 2-.6 1.5 0 2.4.9 1 .9 1 2.3 0 1-.6 2-.4.9-1.2 1.7l-2 2-1.2 1.3h4.5l.2-.2h.2v1.3h-6.6v-1z" font-size="18" font-family="Inconsolata" fill="#1c4494"/><path d="M20.2 255.4a17 17 0 0 1-16.8-17.1A17 17 0 0 1 20.2 221a17 17 0 0 1 16.9 17.2 17 17 0 0 1-16.9 17.1z" stroke="#1c4394" fill="none"/><path d="M20.8 237.3q1 .3 1.5 1 .6.8.6 1.9 0 .9-.4 1.6-.4.8-1.2 1.2-.7.5-1.8.5-.9 0-1.7-.4-.8-.3-1.3-1l.8-1q.5.7 1 1 .4.3 1.2.3 1 0 1.6-.6.5-.6.5-1.7 0-1-.7-1.6-.6-.6-1.9-.6h-.5v-1q1.6 0 2.1-.6.6-.6.6-1.6 0-.7-.4-1.2-.5-.4-1.2-.4-1.1 0-2 .8l-.8-.8q1.1-1.1 2.8-1.1 1.4 0 2.1.7.8.8.8 2 0 1-.4 1.7-.5.6-1.3 1zm-3.3 3.8h-.2.2zm-.2 0z" font-size="18" font-family="Inconsolata" fill="#1c4494"/><path d="M209.8 7h170v47.8h-170z" stroke="#1d4494" stroke-width="2" fill="none"/><path d="M272.6 24.7h3.2q1.9 0 2.8.7 1 .7 1 2 0 .8-.5 1.5-.4.7-1.2 1 1 .3 1.5 1.1.6.8.6 1.8 0 1.4-1 2.3-1 .8-3.2.8h-3.2V24.7zm3 4.6q2.7 0 2.7-1.8 0-.8-.6-1.2-.6-.6-1.9-.6h-2v3.6h1.8zm.4 5.5q2.7 0 2.7-2.1 0-2.3-3-2.3H274v4.4h2.1zm9.3 1.2q-1.1 0-2-.5-.8-.5-1.3-1.5t-.5-2.2q0-1.3.5-2.2.5-1 1.3-1.5.9-.6 2-.6 1 0 2 .6.8.5 1.3 1.5t.5 2.2q0 1.2-.5 2.2-.5 1-1.4 1.5-.8.5-2 .5zm0-1q.7 0 1.2-.5.6-.4.9-1 .3-.8.3-1.7 0-1.4-.7-2.3-.7-1-1.7-1t-1.8 1q-.7.9-.7 2.3 0 .9.4 1.6.3.7.8 1.1.6.5 1.3.5zm9 1q-1.1 0-2-.5-.8-.5-1.3-1.5t-.5-2.2q0-1.3.5-2.2.5-1 1.3-1.5.9-.6 2-.6 1 0 2 .6.8.5 1.3 1.5t.5 2.2q0 1.2-.5 2.2-.5 1-1.4 1.5-.8.5-2 .5zm0-1q.7 0 1.2-.5.6-.4.9-1 .3-.8.3-1.7 0-1.4-.7-2.3-.7-1-1.7-1t-1.8 1q-.7.9-.7 2.3 0 .9.4 1.6.3.7.8 1.1.6.5 1.3.5zm8.1-3.2l-1.1 1v3.1H300v-12h1.4v.2l-.1.2v7.2l4.1-3.9 1 .1h.4l-3.4 3.3 4 4.9h-1.7l-3.3-4.1zm10.5-.8q1.5.5 2.1 1 .7.6.7 1.5 0 1.1-.9 1.9-.8.7-2.5.7-2 0-3.5-1.3l.7-1.2q.6.7 1.2 1 .6.4 1.6.4t1.6-.3q.5-.4.5-1 0-.5-.4-.9l-1.7-.7q-3-.9-3-2.6 0-1 .7-1.5.8-.5 2.3-.5 1 0 1.8.3t1.5 1l-.8.9q-.4-.6-1-1-.8-.3-1.5-.3-.8 0-1.3.3t-.5.8q0 .4.6.8.5.4 1.8.8zm1.7-1.3h.1v.1h-.1zm.2 0q0 .1 0 0zm-5 3.8h-.2v-.1h.1zm-.3 0z" font-size="18" font-family="Inconsolata" fill="#1c4494"/><path d="M294 55.2v36m-85 0h170v47.9H209z" stroke="#1d4494" stroke-width="2" fill="none"/><path d="M245.1 107.5h3.6q1.8 0 2.7 1 .9.8.9 2.2 0 1.4-.9 2.3-.8.8-2.6.8h-2.4v5h-1.3v-11.3zm3.6 5.2q1.2 0 1.7-.5.6-.5.6-1.5 0-.8-.6-1.4-.6-.6-1.7-.6h-2.3v4h2.3zm12-.5l-.8-.6-.9-.1q-.6 0-1.2.3t-1 1q-.3.6-.3 1.6v4.4h-1.3v-8.3h1.4v1.5q.3-.8 1-1.2.7-.5 1.5-.5 1.4 0 2.2 1l-.6 1zm0 0q.2.2 0 .2v-.1zm-.2.1h.2v.1h-.2zm6.1 6.6q-1.1 0-2-.5-.9-.6-1.3-1.5-.5-1-.5-2.3 0-1.2.5-2.2.4-1 1.3-1.5t2-.5q1 0 2 .5.8.6 1.3 1.5.5 1 .5 2.2 0 1.3-.5 2.3-.5 1-1.4 1.5-.8.5-2 .5zm0-1q.7 0 1.2-.5.6-.4.9-1.1.3-.8.3-1.7 0-1.4-.7-2.3-.7-.9-1.7-.9t-1.8 1q-.7.8-.7 2.2 0 1 .3 1.7.4.7 1 1.1.5.4 1.2.4zm13-6.5h-.4q-1 0-1.5.3.3.7.3 1.4 0 .8-.3 1.5-.4.6-1 1-.7.4-1.6.4-.6 0-1.2-.3-.4.4-.4.8t.6.6q.5.2 2 .2 1.7 0 2.3.5.7.5.7 1.6 0 1-.9 1.7-.8.8-2.7.8-1.7 0-2.8-.6-1-.5-1-1.6 0-.6.4-1 .4-.6 1-.8-.7-.4-.7-1.1 0-.7.8-1.5-.5-.4-.7-1-.2-.5-.2-1.2 0-.8.3-1.4.4-.7 1-1 .7-.5 1.5-.5 1.4 0 2.1.9l1-.6q.4-.2 1-.2h.3l.1 1zm-4.5 3.5q.8 0 1.3-.5.5-.6.5-1.3 0-.8-.5-1.3t-1.3-.5q-.7 0-1.3.5-.5.5-.5 1.3 0 .7.5 1.3.6.5 1.3.5zm2.8 4.7q0-.5-.2-.7-.1-.2-.6-.4h-1.3q-1.3 0-2-.3l-.7.6q-.2.3-.2.8 0 .6.7 1 .7.3 2 .3 1.1 0 1.7-.4.6-.3.6-1zm9.8-7.4l-.8-.6-.9-.1q-.6 0-1.2.3t-1 1q-.3.6-.3 1.6v4.4h-1.3v-8.3h1.4v1.5q.3-.8 1-1.2.7-.5 1.5-.5 1.4 0 2.2 1l-.6 1zm0 0q.2.2 0 .2v-.1zm-.2.1h.2v.1h-.2zm6-1.9q1.7 0 2.6.9 1 .9 1 3v4.5h-1.4v-1.3q-.8 1.5-2.8 1.5-1.4 0-2.2-.7-.7-.6-.7-1.6 0-.9.5-1.5.6-.7 1.5-1 1-.4 2-.4l2 .1q-.2-1.3-.8-2-.6-.5-1.8-.5-.6 0-1.2.3-.6.2-1 .6l-.7-.8q1.2-1.1 3-1.1zm-.5 7.6q1.3 0 2.1-.8t.8-2.3l-1.7-.1q-1.4 0-2.2.5-.8.4-.8 1.3 0 1.4 1.8 1.4zm5.8-7.5h1.1v.8q.3-.4.8-.7.4-.3 1-.3.5 0 .9.4.4.3.5.8.2-.5.7-.8.5-.4 1.1-.4.8 0 1.2.6.4.6.4 1.5v6.4h-1.2v-5.9q0-1-.2-1.3-.2-.3-.5-.3-.4 0-.7.3l-.5.8-.2 1v5.4H302V113q0-1-.2-1.3-.1-.4-.7-.4-.2 0-.5.3-.3.2-.5.7-.2.4-.2 1v5.5h-1.1v-8.3zm9 0h1.1v.8q.3-.4.8-.7.4-.3 1-.3.5 0 .9.4.4.3.5.8.2-.5.7-.8.5-.4 1.1-.4.8 0 1.2.6.4.6.4 1.5v6.4h-1.2v-5.9q0-1-.2-1.3-.2-.3-.5-.3-.4 0-.7.3l-.5.8-.2 1v5.4H311V113q0-1-.2-1.3-.1-.4-.7-.4-.2 0-.5.3-.3.2-.5.7-.2.4-.2 1v5.5h-1.1v-8.3zm10.1 8.3v-1h2v-6.2h-2v-1h3.4v7.1h1.9v1h-5.3zm2.7-10q-.4 0-.7-.3-.3-.2-.3-.6 0-.4.3-.7.3-.2.7-.2l.6.2q.3.3.3.7 0 .4-.3.6-.3.3-.6.3zm5.8 1.7h1.2v1.5q.5-.8 1.3-1.2.7-.5 1.5-.5 1.1 0 1.8.9.6.8.6 2.6v5h-1.2v-5q0-1.2-.4-1.8-.5-.5-1.1-.5-.6 0-1.2.3-.5.3-1 1-.3.5-.3 1.2v4.8h-1.2v-8.3zm16.2.9h-.4q-1 0-1.5.3.3.7.3 1.4 0 .8-.3 1.5-.4.6-1 1-.7.4-1.6.4-.6 0-1.2-.3-.4.4-.4.8t.6.6q.5.2 2 .2 1.7 0 2.3.5.7.5.7 1.6 0 1-.9 1.7-.8.8-2.7.8-1.7 0-2.8-.6-1-.5-1-1.6 0-.6.4-1 .4-.6 1-.8-.7-.4-.7-1.1 0-.7.8-1.5-.5-.4-.7-1-.2-.5-.2-1.2 0-.8.3-1.4.4-.7 1-1 .7-.5 1.5-.5 1.4 0 2.1.9l1-.6q.4-.2 1-.2h.3l.1 1zm-4.5 3.5q.8 0 1.3-.5.5-.6.5-1.3 0-.8-.5-1.3t-1.3-.5q-.7 0-1.3.5-.5.5-.5 1.3 0 .7.5 1.3.6.5 1.3.5zm2.8 4.7q0-.5-.2-.7-.1-.2-.6-.4h-1.3q-1.3 0-2-.3l-.7.6q-.2.3-.2.8 0 .6.7 1 .7.3 2 .3 1.1 0 1.7-.4.6-.3.6-1z" font-size="18" font-family="Inconsolata" fill="#1c4494"/><path d="M294 141v36m168.2-.8v35.3m-329.4-33.6l330.4-1.7m-86 39.4h170v47.9h-170z" stroke="#1d4494" stroke-width="2" fill="none"/><path d="M422.2 233h2.6q1.4 0 2.2.4.8.4 1.4 1.2 1.1 1.5 1.1 4.1-.1 2.8-1.3 4.2-1.1 1.4-3.6 1.4h-2.4v-11.2zm2.3 10.3q3.7 0 3.7-4.5 0-2.3-.8-3.5-.8-1.2-2.7-1.2h-1.3v9.2h1.1zm10.1-7.4q1.8 0 2.7.9 1 1 1 3.1v4.4h-1.5V243q-.7 1.5-2.8 1.5-1.3 0-2.1-.6-.8-.7-.8-1.7 0-.8.6-1.5.5-.6 1.5-1 1-.3 2-.3h1.9q-.1-1.3-.7-1.9-.6-.6-1.9-.6-.6 0-1.2.3-.5.2-1 .7l-.6-.9q1.1-1.1 3-1.1zm-.5 7.6q1.4 0 2.2-.8.7-.8.8-2.2-.8-.2-1.7-.2-1.4 0-2.2.5-.8.4-.8 1.3 0 1.4 1.7 1.4zm13.1 0q-1.2 1-2.6 1-1.4 0-2-1-.5-.7-.5-2.6v-1l.2-2.8h-1.8v-1h1.9l.1-2.2 1.4-.3h.2v.1q0 .2-.2.3v.4l-.2 1.7h2.7v1h-2.8l-.2 2.8v1q0 1.4.3 2 .4.4 1.1.4l1-.2 1-.6.4 1zm5.4-7.6q1.8 0 2.7.9 1 1 1 3.1v4.4h-1.5V243q-.7 1.5-2.8 1.5-1.3 0-2.1-.6-.8-.7-.8-1.7 0-.8.6-1.5.5-.6 1.5-1 1-.3 2-.3h1.9q-.1-1.3-.7-1.9-.6-.6-1.9-.6-.6 0-1.2.3-.5.2-1 .7l-.6-.9q1.1-1.1 3-1.1zm-.5 7.6q1.4 0 2.2-.8.7-.8.8-2.2-.8-.2-1.7-.2-1.4 0-2.2.5-.8.4-.8 1.3 0 1.4 1.7 1.4zm9.9 1q-.7 0-1.4-.3-.6-.4-1-1l-.5 1h-.8v-11.9h1.5v.1l-.2.3v4.6q.4-.6 1-1 .8-.4 1.5-.4 1.5 0 2.4 1 1 1.1 1 3.2 0 1.4-.5 2.4t-1.3 1.5q-.8.5-1.7.5zm-.1-1.2q1 0 1.6-.7.6-.8.6-2.4 0-1.6-.6-2.4-.6-.8-1.6-.8t-1.7.9q-.6.9-.6 2.3 0 3.1 2.3 3.1zm8.7-7.4q1.8 0 2.7.9 1 1 1 3.1v4.4h-1.5V243q-.7 1.5-2.8 1.5-1.3 0-2.1-.6-.8-.7-.8-1.7 0-.8.6-1.5.5-.6 1.5-1 1-.3 2-.3h1.9q-.1-1.3-.7-1.9-.6-.6-1.9-.6-.6 0-1.2.3-.5.2-1 .7l-.6-.9q1.1-1.1 3-1.1zm-.5 7.6q1.4 0 2.2-.8.7-.8.8-2.2-.8-.2-1.7-.2-1.4 0-2.2.5-.8.4-.8 1.3 0 1.4 1.7 1.4zm10.2-4.1q1.6.5 2.2 1 .6.6.6 1.5 0 1.1-.8 1.8-.9.8-2.6.8-2 0-3.4-1.3l.7-1.3q.6.8 1.2 1.1.6.4 1.6.4t1.5-.4q.6-.3.6-1 0-.5-.5-.8-.4-.3-1.6-.7-3.1-.9-3.1-2.6 0-1 .8-1.5t2.2-.5q1.1 0 1.9.3.8.3 1.4 1l-.7.9q-.4-.6-1.1-1-.7-.3-1.4-.3-.8 0-1.3.3t-.5.8q0 .4.5.8t1.8.7zm1.7-1.3h.2v.1h-.2zm.2 0q.1 0 0 0zm-5 3.8h-.2v-.1h.2zm-.2 0zm12.1 2.6q-1.8 0-3-1.2-1-1-1-3.1 0-1.4.5-2.3.5-1 1.4-1.5.8-.5 1.9-.5 1.5 0 2.4 1 1 1 1 2.9l-.1.6h-5.9q.1 1.5.9 2.2.8.8 2 .8 1.3 0 2-.9l.8.7q-1 1.3-2.9 1.3zm1.8-5.1q0-1.2-.6-1.9-.5-.6-1.5-.6-.9 0-1.6.6-.6.6-.8 1.9h4.5zm7.4 0q1.6.5 2.2 1 .6.6.6 1.5 0 1.1-.8 1.8-.9.8-2.6.8-2 0-3.4-1.3l.7-1.3q.6.8 1.2 1.1.6.4 1.6.4t1.5-.4q.6-.3.6-1 0-.5-.5-.8-.4-.3-1.6-.7-3.1-.9-3.1-2.6 0-1 .8-1.5t2.2-.5q1.1 0 1.9.3.8.3 1.4 1l-.7.9q-.4-.6-1.1-1-.7-.3-1.4-.3-.8 0-1.3.3t-.5.8q0 .4.5.8t1.8.7zm1.7-1.3h.2v.1h-.2zm.2 0q.1 0 0 0zm-5 3.8h-.2v-.1h.2zm-.2 0z" font-size="18" font-family="Inconsolata" fill="#1c4494"/><path d="M327 303.2V339m265.7-37v35.3M327 303.2l265.7-1.2m-362.3 38h170v47.8h-170z" stroke="#1d4494" stroke-width="2" fill="none"/><path d="M284.2 368.6v-11.2h1l2.7 5.5 2.9-5.5h.9v11.2h-1.2V360l-2.4 4.6h-.5l-2.3-4.5v8.4h-1.1zm12.8.1q-1.2 0-2-.5-.9-.5-1.4-1.5-.5-1-.5-2.2 0-1.3.5-2.2.5-1 1.4-1.6.8-.5 2-.5 1 0 1.9.5.8.6 1.3 1.6t.5 2.2q0 1.2-.5 2.2-.4 1-1.3 1.5t-2 .5zm0-1q.6 0 1.2-.5.5-.4.8-1 .4-.8.4-1.7 0-1.4-.7-2.3-.7-1-1.8-1-1 0-1.7 1-.7.9-.7 2.3 0 .9.3 1.6.3.7.9 1.1.5.5 1.2.5zm5.7-7.3h1.3v1.4q.5-.7 1.2-1.2.7-.4 1.6-.4 1 0 1.7.8t.7 2.6v5h-1.3v-5q0-1.2-.4-1.7-.4-.6-1-.6t-1.2.3q-.6.4-1 1-.3.5-.3 1.3v4.7h-1.3v-8.2zm16.3.8h-.5q-.9 0-1.4.4.3.6.3 1.3 0 .8-.4 1.5-.3.6-1 1-.6.4-1.5.4-.7 0-1.3-.2-.3.3-.3.7 0 .4.5.6.6.2 2 .2 1.8 0 2.4.6.6.5.6 1.5t-.8 1.8q-.9.7-2.7.7-1.8 0-2.8-.5-1-.6-1-1.6 0-.7.4-1.1.3-.5.9-.8-.6-.4-.6-1 0-.8.7-1.6l-.7-1q-.2-.5-.2-1.2 0-.8.4-1.4.3-.7 1-1 .6-.4 1.5-.4 1.3 0 2.1.8.4-.4.9-.6.4-.2 1-.2h.3l.2 1.1zm-4.5 3.5q.8 0 1.3-.5t.5-1.3q0-.7-.5-1.3-.5-.5-1.3-.5t-1.3.5q-.5.6-.5 1.3 0 .8.5 1.3t1.3.5zm2.7 4.7l-.1-.7-.6-.3-1.4-.1q-1.3 0-2-.3-.5.3-.6.6-.2.3-.2.8 0 .6.7 1 .7.3 1.9.3t1.8-.3q.5-.4.5-1zm6.8-.7q-1.2 0-2-.5-.9-.5-1.4-1.5-.5-1-.5-2.2 0-1.3.5-2.2.5-1 1.4-1.6.8-.5 2-.5 1 0 1.9.5.8.6 1.3 1.6t.5 2.2q0 1.2-.5 2.2-.4 1-1.3 1.5t-2 .5zm0-1q.6 0 1.2-.5.5-.4.8-1 .4-.8.4-1.7 0-1.4-.7-2.3-.7-1-1.8-1-1 0-1.7 1-.7.9-.7 2.3 0 .9.3 1.6.3.7.9 1.1.5.5 1.2.5zm5.4-10.3h2.6q1.4 0 2.2.4.8.3 1.4 1.1 1.1 1.5 1.1 4.1-.1 2.8-1.3 4.2-1.1 1.4-3.6 1.4h-2.4v-11.2zm2.3 10.2q3.7 0 3.7-4.5 0-2.3-.8-3.5-.8-1.2-2.7-1.2h-1.3v9.2h1.1zm6.6-10.2h3.2q1.8 0 2.8.7.9.7.9 2 0 .8-.5 1.5-.4.7-1.2 1 1 .3 1.6 1.1.5.8.5 1.7 0 1.5-1 2.4-1 .8-3.1.8h-3.2v-11.2zm3 4.6q2.6 0 2.6-1.8 0-.8-.6-1.3-.5-.5-1.8-.5h-2v3.6h1.8zm.4 5.5q2.6 0 2.6-2.1 0-2.3-3-2.3h-1.8v4.4h2.2z" font-size="18" font-family="Inconsolata" fill="#1c4494"/><path d="M491.5 339.6h170v48h-170z" stroke="#1d4494" stroke-width="2" fill="none"/><path d="M566.7 368.5q-.9 0-1.6-.5-.8-.5-1.3-1.5t-.5-2.4q0-1.4.5-2.4t1.3-1.4q.8-.4 1.7-.4.8 0 1.4.3.7.4 1 1v-4.9h1.4v.2l-.2.2v11l.2.6h-1.3l-.1-.6v-.7q-.5.7-1 1.1-.7.4-1.5.4zm.2-1.1q1.1 0 1.7-1 .5-.8.5-2.3 0-1.4-.6-2.3-.5-.9-1.7-.9-1 0-1.6.8-.6.8-.6 2.2 0 1.6.6 2.5.6 1 1.7 1zm9.4 1.1q-.7 0-1.4-.3-.6-.4-1-1l-.5 1.1h-.8v-12h1.5v.2l-.2.2v4.6q.4-.6 1-1 .8-.4 1.5-.4 1.5 0 2.4 1 1 1.1 1 3.2 0 1.4-.5 2.4T578 368q-.8.5-1.7.5zm-.2-1.1q1 0 1.7-.8.6-.8.6-2.4 0-1.6-.6-2.4-.6-.8-1.6-.8t-1.7.9q-.6.9-.6 2.3 0 3.2 2.2 3.2zm5.1-7.4h1.2v.9q.3-.5.7-.7.5-.3 1-.3t.9.3q.4.4.5.9.3-.6.8-.9.5-.3 1-.3.9 0 1.3.6t.4 1.5v6.3h-1.2v-5.8q0-1-.2-1.4-.2-.3-.6-.3-.3 0-.6.3l-.5.8-.2 1v5.4h-1.2v-5.7q0-1-.2-1.4-.2-.3-.7-.3l-.6.2q-.3.3-.4.7-.2.4-.2 1v5.5h-1.2v-8.2z" font-size="18" font-family="Inconsolata" fill="#1c4494"/><path d="M462.2 265v36M133.4 177.9v35.7m-85 2.5h170V264h-170z" stroke="#1d4494" stroke-width="2" fill="none"/><path d="M93.6 233.6H95v.1l-.2.2v9.8h5.4v1.1h-6.7v-11.2zm12.2 2.8q1.7 0 2.7 1 .9.8.9 3v4.4H108v-1.3q-.8 1.5-2.8 1.5-1.4 0-2.2-.6-.7-.6-.7-1.7 0-.8.5-1.5.6-.6 1.5-1 1-.3 2.1-.3h1.9q-.1-1.3-.8-1.9-.6-.5-1.8-.5l-1.2.2q-.6.2-1 .7l-.7-.9q1.2-1.1 3-1.1zm-.5 7.6q1.3 0 2.1-.8t.9-2.2q-.8-.2-1.8-.2-1.3 0-2.1.5-.8.4-.8 1.4 0 1.3 1.7 1.3zm6.4-7.4h1.2v1.4q.5-.7 1.3-1.2.7-.4 1.5-.4 1.1 0 1.8.8.6.9.6 2.6v5H117v-5q0-1.2-.4-1.7-.4-.6-1.1-.6-.6 0-1.2.3-.5.4-.9 1-.4.5-.4 1.3v4.7h-1.2v-8.2zm16.3.8h-.5q-.9 0-1.5.4.3.6.3 1.3 0 .8-.3 1.5-.4.7-1 1-.7.4-1.5.4-.7 0-1.3-.2-.3.4-.3.7 0 .4.5.6.6.2 2 .2 1.7 0 2.4.6.6.5.6 1.5t-.9 1.8q-.8.7-2.7.7-1.7 0-2.7-.5-1-.6-1-1.6 0-.7.3-1.1.4-.5 1-.8-.6-.4-.6-1 0-.8.7-1.6-.5-.4-.7-1-.2-.5-.2-1.2 0-.8.3-1.4.4-.7 1-1 .7-.4 1.6-.4 1.3 0 2 .8l1-.6q.4-.2 1-.2h.3l.1 1.1zm-4.5 3.5q.7 0 1.2-.5.6-.5.6-1.3 0-.7-.6-1.2-.5-.6-1.2-.6-.8 0-1.3.6-.5.5-.5 1.2 0 .8.5 1.3t1.3.5zm2.7 4.7l-.1-.7-.6-.3-1.4-.1q-1.3 0-2-.3l-.7.6-.1.8q0 .6.6 1 .7.3 2 .3 1.1 0 1.7-.3.6-.4.6-1zm6.2-.6q-1.3 0-2.1-1t-.8-2.8v-4.6h1.3v4.6q0 1.4.5 2.1.5.7 1.4.7 1 0 1.6-.8.6-.7.6-2v-4.6h1.3v7.6l.1.6h-1.2l-.2-.6v-.7q-.4.7-1 1.1-.7.4-1.5.4zm9.4-8.6q1.7 0 2.7 1 .9.8.9 3v4.4H144v-1.3q-.8 1.5-2.8 1.5-1.4 0-2.2-.6-.7-.6-.7-1.7 0-.8.5-1.5.6-.6 1.5-1 1-.3 2.1-.3h1.9q-.1-1.3-.8-1.9-.6-.5-1.8-.5l-1.2.2q-.6.2-1 .7l-.7-.9q1.2-1.1 3-1.1zm-.5 7.6q1.3 0 2.1-.8t.9-2.2q-.8-.2-1.8-.2-1.3 0-2.1.5-.8.4-.8 1.4 0 1.3 1.7 1.3zm13.7-6.6h-.5q-.9 0-1.5.4.3.6.3 1.3 0 .8-.3 1.5-.4.7-1 1-.7.4-1.5.4-.7 0-1.3-.2-.3.4-.3.7 0 .4.5.6.6.2 2 .2 1.7 0 2.4.6.6.5.6 1.5t-.9 1.8q-.8.7-2.7.7-1.7 0-2.7-.5-1-.6-1-1.6 0-.7.3-1.1.4-.5 1-.8-.6-.4-.6-1 0-.8.7-1.6-.5-.4-.7-1-.2-.5-.2-1.2 0-.8.3-1.4.4-.7 1-1 .7-.4 1.6-.4 1.3 0 2 .8l1-.6q.4-.2 1-.2h.3l.1 1.1zm-4.5 3.5q.7 0 1.2-.5.6-.5.6-1.3 0-.7-.6-1.2-.5-.6-1.2-.6-.8 0-1.3.6-.5.5-.5 1.2 0 .8.5 1.3t1.3.5zm2.7 4.7l-.1-.7-.6-.3-1.4-.1q-1.3 0-2-.3l-.7.6-.1.8q0 .6.6 1 .7.3 2 .3 1.1 0 1.7-.3.6-.4.6-1zm7.1-.6q-1.8 0-3-1.1-1-1.2-1-3.2 0-1.3.5-2.3.5-1 1.3-1.5.9-.5 2-.5 1.4 0 2.4 1 .9 1 .9 2.9v.6h-5.9q0 1.5.9 2.3.7.7 2 .7 1.2 0 2-.9l.8.7q-1 1.3-3 1.3zm1.8-5.1q0-1.2-.6-1.8-.6-.7-1.5-.7-1 0-1.6.6-.7.6-.8 1.9h4.5zm7.4.1q1.5.4 2.2 1 .6.5.6 1.4 0 1.1-.9 1.9-.8.7-2.5.7-2 0-3.5-1.3l.7-1.2q.6.7 1.2 1 .6.4 1.6.4t1.6-.3q.5-.4.5-1 0-.5-.4-.9l-1.6-.7q-3.1-.9-3.1-2.6 0-1 .7-1.5.8-.5 2.3-.5 1.1 0 1.9.3.7.3 1.4 1l-.8.9q-.4-.6-1-1-.8-.3-1.5-.3t-1.3.3q-.4.3-.4.8 0 .4.5.8t1.8.8zm1.7-1.4h.2l-.1.1zm.2 0q0 .1 0 0zm-5 3.8h-.2v-.1h.2zm-.2 0q-.1 0 0 0z" font-size="18" font-family="Inconsolata" fill="#1c4494"/><path d="M248.6 255.4a17 17 0 0 1-16.8-17.1 17 17 0 0 1 16.8-17.2 17 17 0 0 1 16.9 17.2 17 17 0 0 1-16.9 17.1z" stroke="#1c4394" fill="none"/><path d="M249.3 243.3v-2.8h-4.8v-1l5.1-7.5h1v7.5h1.5v1h-1.4v2.8h-1.4zm-3.4-3.9h3.4v-5.1l-3.4 5.1z" font-size="18" font-family="Inconsolata" fill="#1c4494"/><path d="M350.4 255a17 17 0 0 1-16.9-17.1 17 17 0 0 1 16.9-17.2 17 17 0 0 1 16.8 17.2 17 17 0 0 1-16.8 17.1z" stroke="#1c4394" fill="none"/><path d="M350 235.6q1 0 1.7.4.8.5 1.2 1.4.5.8.5 2 0 1-.5 2-.4.8-1.2 1.2-.8.5-1.8.5t-2-.5q-.8-.4-1.4-1.3l1-.7q.5.7 1 1 .6.4 1.4.4.6 0 1.1-.4.5-.3.8-.9.3-.6.3-1.4 0-1.2-.7-2-.6-.7-1.6-.7-.6 0-1.1.3-.6.3-1 .8l-.8-.3.4-5.7h5.7v1h-4.7l-.1 3.3q.8-.4 1.8-.4zm-2.4 5q-.1-.2 0 0zm.1 0h-.1v-.1h.1z" font-size="18" font-family="Inconsolata" fill="#1c4494"/><path d="M575.5 255a17 17 0 0 1-16.8-17.1 17 17 0 0 1 16.8-17.2 17 17 0 0 1 16.9 17.2 17 17 0 0 1-16.9 17.1z" stroke="#1c4394" fill="none"/><path d="M570.2 242.9v-9.7l-2.3.7-.3-.7 3-1.6h.8V243h-1.2zm9.3-11.3q1.7 0 2.6 1.5.9 1.5.9 4.2 0 2.8-1 4.3-.8 1.5-2.5 1.5t-2.6-1.5q-.9-1.5-.9-4.3 0-2.7 1-4.2.9-1.5 2.5-1.5zm0 1q-1 0-1.6 1.3-.6 1.3-.6 3.4 0 1.2.2 2l3.8-4.8q-.3-.9-.7-1.4-.5-.4-1-.4zm0 9.4q1 0 1.6-1.2.6-1.2.6-3.5l-.1-1.8-3.8 4.9q.5 1.6 1.7 1.6z" font-size="18" font-family="Inconsolata" fill="#1c4494"/><path d="M201.8 381.4a17 17 0 0 1-16.8-17.2 17 17 0 0 1 16.8-17.1 17 17 0 0 1 16.9 17.1 17 17 0 0 1-16.9 17.2z" stroke="#1c4394" fill="none"/><path d="M201.7 362q.8 0 1.5.5.7.4 1.1 1.3.4.8.4 1.9 0 1-.4 2-.4.8-1.1 1.3-.8.4-1.7.4-1.6 0-2.5-1.4-1-1.4-1-3.9 0-2 .5-3.4t1.4-2q.9-.8 2.1-.8 1.4 0 2.5 1l-.8 1q-.4-.5-.8-.7-.3-.2-.9-.2-.5 0-1.2.4-.6.4-1 1.3-.5 1-.5 2.7.4-.7 1-1 .6-.4 1.4-.4zm1.8-2.1q0-.1.1 0h-.1zm.2 0zm-2.1 8.4q.8 0 1.4-.7.5-.7.5-1.9 0-.8-.3-1.4l-.7-1-1-.2q-.6 0-1.2.4-.6.5-1 1.1v.5q0 .8.3 1.5.3.8.8 1.2.5.5 1.2.5z" font-size="18" font-family="Inconsolata" fill="#1c4494"/><path d="M430.4 381.4a17 17 0 0 1-16.8-17.2 17 17 0 0 1 16.8-17.1 17 17 0 0 1 16.9 17.1 17 17 0 0 1-16.9 17.2z" stroke="#1c4394" fill="none"/><path d="M428.2 369.2q1.6-5 3.5-10h-4.8V358h6.3v.7q-2.2 5.6-3.5 10.5h-1.5z" font-size="18" font-family="Inconsolata" fill="#1c4494"/><path d="M469.1 381.4a17 17 0 0 1-16.9-17.2 17 17 0 0 1 16.9-17.1 17 17 0 0 1 16.9 17.1 17 17 0 0 1-16.9 17.2z" stroke="#1c4394" fill="none"/><path d="M468.6 369.4q-1 0-1.8-.4t-1.2-1q-.4-.7-.4-1.6 0-1 .6-1.8t1.6-1.3q-.7-.4-1.2-1.1-.5-.7-.5-1.5 0-1.2.8-2t2.2-.8q1.5 0 2.2.7.8.8.8 2 0 .8-.5 1.5t-1.3 1.2q1 .4 1.5 1.2.6.9.6 1.8 0 1-.4 1.6-.4.7-1.2 1.1-.8.4-1.8.4zm.3-6.6q.7-.4 1.1-1 .4-.6.4-1.2 0-.7-.4-1.2-.5-.5-1.3-.5-.9 0-1.3.5-.5.5-.5 1.1 0 .8.5 1.3t1.5 1zm-.3 5.5q1 0 1.6-.5.6-.6.6-1.5 0-.8-.7-1.5-.6-.7-1.7-1-.9.3-1.4 1-.5.7-.5 1.5t.6 1.4q.5.6 1.5.6z" font-size="18" font-family="Inconsolata" fill="#1c4494"/><path d="M687.8 381.4a17 17 0 0 1-16.9-17.2 17 17 0 0 1 16.9-17.1 17 17 0 0 1 16.8 17.1 17 17 0 0 1-16.8 17.2z" stroke="#1c4394" fill="none"/><path d="M687.2 358q1 0 1.9.6.7.6 1.2 1.6.4 1.1.4 2.5 0 3.3-1 5-1 1.7-2.8 1.7-1.6 0-2.7-1l.8-.9q.4.5.8.7l1 .1q1.2 0 1.9-1.1.6-1.2.8-3l-1 .6q-.5.2-1.2.2-1 0-1.7-.4-.7-.5-1.2-1.2-.4-.8-.4-1.8t.4-1.8q.5-.9 1.2-1.4.8-.4 1.6-.4zm0 5.9q.8 0 1.3-.2.6-.2 1-.7 0-2-.6-3-.5-1-1.6-1-1 0-1.5.7-.6.7-.6 1.9 0 1 .6 1.7.6.6 1.5.6zm-2 3.6h-.2l.1-.1h.1zm-.2 0q-.1-.1 0 0z" font-size="18" font-family="Inconsolata" fill="#1c4494"/></svg>