<svg width="46" height="40" viewBox="0 0 46 40" fill="none" xmlns="http://www.w3.org/2000/svg">
<path d="M36.889 22.7778C38.0396 22.7778 38.9723 21.8451 38.9723 20.6945C38.9723 19.5439 38.0396 18.6112 36.889 18.6112C35.7384 18.6112 34.8057 19.5439 34.8057 20.6945C34.8057 21.8451 35.7384 22.7778 36.889 22.7778Z" fill="#00ED64"/>
<path d="M23.6251 7.70839C22.9307 7.43061 21.7501 7.43061 20.9862 7.70839L7.02789 13.0556L20.9862 18.4028C21.6807 18.6806 22.8612 18.6806 23.6251 18.4028L37.5834 13.0556L23.6251 7.70839Z" fill="#00ED64"/>
<path fill-rule="evenodd" clip-rule="evenodd" d="M15.7084 26.25H15.014V16.4868L6.90367 13.3799C6.76935 13.3284 6.68066 13.1994 6.68066 13.0556C6.68066 12.9118 6.76935 12.7828 6.90367 12.7314L20.8675 7.38202C21.2973 7.22573 21.8258 7.15283 22.3317 7.15283C22.8349 7.15283 23.3502 7.225 23.7516 7.38501L23.7541 7.386L37.7077 12.7314C37.842 12.7828 37.9307 12.9118 37.9307 13.0556C37.9307 13.1994 37.842 13.3284 37.7077 13.3799L37.2362 13.5605V18.2886C38.4141 18.457 39.3195 19.47 39.3195 20.6945C39.3195 22.0369 38.2314 23.1251 36.889 23.1251C35.5466 23.1251 34.4584 22.0369 34.4584 20.6945C34.4584 19.47 35.3639 18.457 36.5418 18.2886V13.8265L29.5973 16.4868V26.25H28.9029C28.9029 24.5294 27.5352 23.174 25.7779 23.174C24.0205 23.174 22.6529 24.5294 22.6529 26.25H21.9584C21.9584 24.5294 20.5908 23.174 18.8334 23.174C17.0761 23.174 15.7084 24.5294 15.7084 26.25ZM28.9029 16.7528L23.7438 18.7292C23.314 18.8855 22.7855 18.9584 22.2796 18.9584C21.7764 18.9584 21.2611 18.8862 20.8597 18.7262L15.7084 16.7528V24.0595C16.3959 23.0973 17.532 22.4795 18.8334 22.4795C20.3873 22.4795 21.7053 23.3601 22.3057 24.656C22.906 23.3601 24.2241 22.4795 25.7779 22.4795C27.0794 22.4795 28.2154 23.0973 28.9029 24.0595V16.7528ZM36.5418 13.0828L23.5037 18.0775C23.17 18.1984 22.7274 18.2639 22.2796 18.2639C21.829 18.2639 21.4079 18.1975 21.1152 18.0804L7.9985 13.0556L21.1076 8.03373C21.4413 7.91287 21.884 7.84728 22.3317 7.84728C22.7824 7.84728 23.2035 7.91374 23.4961 8.03081L36.6128 13.0556H36.5418V13.0828ZM36.889 18.9584C35.9302 18.9584 35.1529 19.7357 35.1529 20.6945C35.1529 21.6533 35.9302 22.4306 36.889 22.4306C37.8478 22.4306 38.6251 21.6533 38.6251 20.6945C38.6251 19.7357 37.8478 18.9584 36.889 18.9584Z" fill="#001E2B"/>
<path fill-rule="evenodd" clip-rule="evenodd" d="M0.430664 2.63894C0.430664 1.68329 1.21112 0.902832 2.16678 0.902832H43.8334C44.7891 0.902832 45.5695 1.68329 45.5695 2.63894V30.4167C45.5695 31.3724 44.7891 32.1528 43.8334 32.1528H28.5345L30.2192 37.3258C30.3591 37.7679 30.2954 38.2171 30.0372 38.5597C29.7788 38.9025 29.3574 39.0973 28.8623 39.0973H17.1379C16.6568 39.0973 16.2316 38.9295 15.9667 38.5906C15.7001 38.2495 15.6451 37.7978 15.7784 37.3346L15.78 37.3288L17.4657 32.1528H2.16678C1.21112 32.1528 0.430664 31.3724 0.430664 30.4167V2.63894ZM2.16678 1.59728C1.59465 1.59728 1.12511 2.06682 1.12511 2.63894V30.4167C1.12511 30.9888 1.59465 31.4584 2.16678 31.4584H43.8334C44.4056 31.4584 44.8751 30.9888 44.8751 30.4167V2.63894C44.8751 2.06682 44.4056 1.59728 43.8334 1.59728H2.16678ZM18.1961 32.1528L16.4442 37.5321C16.3599 37.8298 16.4147 38.0361 16.5139 38.163C16.6154 38.2928 16.813 38.4028 17.1379 38.4028H28.8623C29.1732 38.4028 29.3746 38.2851 29.4826 38.1418C29.5906 37.9985 29.6368 37.7885 29.5576 37.5368L29.5571 37.5354L27.8041 32.1528H18.1961Z" fill="#001E2B"/>
</svg>
