<svg xmlns="http://www.w3.org/2000/svg" xmlns:xlink="http://www.w3.org/1999/xlink" height="560" width="680"><path d="M650 0a30 30 0 0 1 30 30v500a30 30 0 0 1-30 30H30a30 30 0 0 1-30-30V30A30 30 0 0 1 30 0z" opacity=".8" fill="#ccc" stroke="#000" stroke-width="2"/><path d="M22 462.6c-2-3.5-2-7.9 0-11.5l26-45.4c2.1-3.5 5.9-5.7 10-5.7h52c4.1 0 7.9 2.2 10 5.8l26 45.3c2 3.6 2 8 0 11.5L120 508a11.6 11.6 0 0 1-10 5.8H58c-4.1 0-7.9-2.2-10-5.8zm0 0" fill="#0e62c2"/><path d="M103.1 513.8l-34.4-34L57.4 453l12.9-20.5 6.4 1.6 8-1.6 14.5-1.6 41 41.8L120 508c-2 3.6-5.8 5.8-9.9 5.8zm0 0" fill="#0851b0"/><path d="M90.1 455.8a6 6 0 0 0-6-5.9 6 6 0 0 0-6 5.9 6 6 0 0 0 6 5.8 6 6 0 0 0 6-5.8z" fill="#fff"/><path d="M106.1 441.6l-5.3-9a5.3 5.3 0 0 0-4.5-2.6H72c-2 0-3.6 1-4.6 2.6l-6.8 11.6 6 10.3 8.4-14.2h28.8c1 0 1.8.5 2.3 1.3H94l8.3 14.1-9 15.5-5.4 9c-.4.7-1.3 1.2-2.2 1.2l6-10.2H75l-8.4-14.3-.7-1.2-5.3-9c-.4-.7-.5-1.7 0-2.5l-5.3 9a5 5 0 0 0 0 5.1L67.4 479c1 1.6 2.8 2.5 4.6 2.5h24.2c2 0 3.7-1 4.6-2.5l12.1-20.6a5 5 0 0 0 0-5.2zm0 0" fill="#fff"/><use height="100%" width="100%" transform="translate(36.5 535.5)" xlink:href="#a"/><use height="100%" width="100%" transform="translate(76.3 535.5)" xlink:href="#b"/><path d="M46.7 146.3a17.7 17.7 0 0 1 0-17.6L87 58.8c3.2-5.4 9-8.8 15.4-8.8h81a18 18 0 0 1 15.4 8.8l40.4 69.9a17.7 17.7 0 0 1 0 17.6L199 216.2c-3.2 5.4-9 8.8-15.4 8.8h-81a18 18 0 0 1-15.4-8.8zm0 0" fill="#0e62c2"/><use height="100%" width="100%" transform="translate(123.4 246.5)" xlink:href="#c"/><path d="M103.3 91v7.4c.8 3.2 4.1 4.9 9.9 6.8 10.9 2.4 15 3.4 29.7 3.5 14.8 0 18.7-1 30-3.4 4.3-1.2 9.5-3.7 9.8-7v-7.7c-8 .2-79.4-.6-79.4.4z" fill="#698c4d"/><path d="M182.8 91.2c0 6.2-17.8 11.2-39.8 11.2-22 0-39.8-5-39.8-11.2C103.2 85 121 80 143 80c22 0 39.8 5 39.8 11.2z" fill="#a3d977"/><path d="M103.4 162.3v7.4c.7 3.1 3.9 4.4 9.6 6.3 10.9 2.4 15.3 3.3 30 3.5 14.7 0 20.7-1.2 32-3.5 4.3-1.3 7.4-3.1 7.6-6.4v-7.7c-7.8.1-79.3-.6-79.3.4z" fill="#698c4d"/><path d="M103.4 103.9v59.6c.7 3.1 3.9 4.4 9.6 6.3 10.9 2.4 15.3 3.3 30 3.5 14.7 0 20.7-1.2 32-3.5 4.3-1.3 7.4-3.1 7.6-6.4v-59.9c-5.9 14.4-77.9 9-79.3.4z" fill="#a3d977"/><use height="100%" width="100%" transform="translate(111.7 195)" xlink:href="#d"/><path d="M444.7 146.3a17.7 17.7 0 0 1 0-17.6L485 58.8c3.2-5.4 9-8.8 15.4-8.8h81a18 18 0 0 1 15.4 8.8l40.4 69.9a17.7 17.7 0 0 1 0 17.6L597 216.2c-3.2 5.4-9 8.8-15.4 8.8h-81a18 18 0 0 1-15.4-8.8zm0 0" fill="#0e62c2"/><use height="100%" width="100%" transform="translate(521.4 246.5)" xlink:href="#c"/><path d="M501.3 91v7.4c.8 3.2 4.1 4.9 9.8 6.8 11 2.4 15 3.4 29.8 3.5 14.7 0 18.6-1 30-3.4 4.2-1.2 9.5-3.7 9.7-7v-7.7c-8 .2-79.3-.6-79.3.4z" fill="#698c4d"/><path d="M580.8 91.2c0 6.2-17.8 11.2-39.8 11.2-22 0-39.8-5-39.8-11.2C501.2 85 519 80 541 80c22 0 39.8 5 39.8 11.2z" fill="#a3d977"/><path d="M501.4 162.3v7.4c.7 3.1 3.9 4.4 9.6 6.3 10.9 2.4 15.3 3.3 30 3.5 14.7 0 20.7-1.2 32-3.5 4.3-1.3 7.4-3.1 7.6-6.4v-7.7c-7.9.1-79.3-.6-79.3.4z" fill="#698c4d"/><path d="M501.4 103.9v59.6c.7 3.1 3.9 4.4 9.6 6.3 10.9 2.4 15.3 3.3 30 3.5 14.7 0 20.7-1.2 32-3.5 4.3-1.3 7.4-3.1 7.6-6.4v-59.9c-5.9 14.4-77.9 9-79.3.4z" fill="#a3d977"/><use height="100%" width="100%" transform="translate(509.7 195)" xlink:href="#d"/><path d="M243.7 406.3a17.7 17.7 0 0 1 0-17.6l40.4-69.9c3.2-5.4 9-8.8 15.4-8.8h81a18 18 0 0 1 15.4 8.8l40.4 69.9a17.7 17.7 0 0 1 0 17.6L396 476.2c-3.2 5.4-9 8.8-15.4 8.8h-81a18 18 0 0 1-15.4-8.8zm0 0" fill="#0e62c2"/><use height="100%" width="100%" transform="translate(320.4 506.5)" xlink:href="#c"/><path d="M300.3 351v7.4c.8 3.2 4.1 4.9 9.8 6.8 11 2.4 15 3.4 29.8 3.5 14.7 0 18.6-1 30-3.4 4.2-1.2 9.5-3.7 9.7-7v-7.7c-8 .2-79.3-.6-79.3.4z" fill="#698c4d"/><path d="M379.8 351.2c0 6.2-17.8 11.2-39.8 11.2-22 0-39.8-5-39.8-11.2 0-6.2 17.8-11.2 39.8-11.2 22 0 39.8 5 39.8 11.2z" fill="#a3d977"/><path d="M300.4 422.3v7.4c.7 3.1 3.9 4.4 9.6 6.3 10.9 2.4 15.3 3.3 30 3.5 14.7 0 20.7-1.2 32-3.5 4.3-1.3 7.4-3.1 7.6-6.4v-7.7c-7.9.1-79.3-.6-79.3.4z" fill="#698c4d"/><path d="M300.4 363.9v59.6c.7 3.1 3.9 4.4 9.6 6.3 10.9 2.4 15.3 3.3 30 3.5 14.7 0 20.7-1.2 32-3.5 4.3-1.3 7.4-3.1 7.6-6.4v-59.9c-5.9 14.4-77.9 9-79.3.4z" fill="#a3d977"/><use height="100%" width="100%" transform="translate(308.7 455)" xlink:href="#d"/><defs><path id="e" d="M730-137c145 0 253-29 323-105v-327H716v-156h528v534C1148-51 964 20 729 20c-394 0-598-279-607-678v-127c-5-410 194-690 585-691 310-1 499 171 537 447h-192c-36-193-151-289-344-289-285 0-393 220-393 528v119c-5 296 140 534 415 534"/><path id="f" d="M688-137c238 0 323-102 359-325h193c-32 297-228 482-552 482-361 0-569-299-569-680 0-197 8-360 73-497 88-186 257-317 513-319 316-2 509 195 535 488h-193c-31-212-118-330-342-330-272 0-397 224-393 523v141c-3 282 115 517 376 517"/><path id="g" d="M1216-1011c-1 297-202 441-512 441H361V0H169v-1456h537c297-6 510 164 510 445zm-192 2c1-178-126-288-307-289H361v571h345c196 1 318-92 318-282"/><g id="a"><use height="100%" width="100%" xlink:href="#e" transform="scale(.00879)"/><use height="100%" width="100%" xlink:href="#f" transform="translate(12.3) scale(.00879)"/><use height="100%" width="100%" xlink:href="#g" transform="translate(24) scale(.00879)"/></g><path id="h" d="M1161-1018c0 201-122 330-278 388l342 618V0h-206L703-589H361V0H168v-1456h482c310-2 511 139 511 438zm-193 0c0-187-120-280-313-280H361v552h295c179 3 313-101 312-272"/><path id="i" d="M599-131c141 0 220-65 285-146l113 88C906-50 770 20 589 20 281 21 93-214 93-545c0-223 93-397 233-485 74-48 154-72 240-72 300 2 449 218 445 537v77H278c0 197 129 357 321 357zm227-509c-3-180-88-310-260-310-170 0-264 140-282 310h542"/><path id="j" d="M521 20C240 20 96-239 96-550c0-303 147-552 427-552 132 0 235 47 309 140l9-120h169V-26c4 277-183 454-459 452-165-1-334-81-400-187l96-111c79 98 176 147 291 147 180 1 288-109 286-290v-93C750-23 649 20 521 20zm48-965c-209 0-287 178-287 416 0 217 86 392 285 392 117 0 202-53 257-159v-494c-57-103-142-155-255-155"/><path id="k" d="M341 0H156v-1082h185V0zm-91-1264c-68 0-108-42-109-105 0-62 41-107 109-107s110 44 110 107-42 105-110 105"/><path id="l" d="M584 20C278 26 81-227 91-551c10-320 175-545 491-551 308-5 503 247 494 573-9 322-175 543-492 549zm-2-970c-208 0-305 185-305 421 0 216 106 398 307 398 211 0 307-186 307-420 0-214-109-399-309-399"/><path id="m" d="M589-945c-131 0-219 81-264 174V0H140v-1082h175l6 136c83-104 191-156 324-156 229 0 346 129 346 387V0H806v-716c-2-153-65-229-217-229"/><g id="b"><use height="100%" width="100%" xlink:href="#h" transform="scale(.00879)"/><use height="100%" width="100%" xlink:href="#i" transform="translate(11) scale(.00879)"/><use height="100%" width="100%" xlink:href="#j" transform="translate(20.6) scale(.00879)"/><use height="100%" width="100%" xlink:href="#k" transform="translate(30.7) scale(.00879)"/><use height="100%" width="100%" xlink:href="#l" transform="translate(35) scale(.00879)"/><use height="100%" width="100%" xlink:href="#m" transform="translate(45.4) scale(.00879)"/></g><path id="n" d="M82-1399h1204L393-178h893V0H25l895-1221H82v-178"/><path id="o" d="M76-451c0-267 222-471 493-471s488 207 488 476c0 265-225 462-496 462C296 16 76-188 76-451zm796-4c0-172-139-303-313-303-172 0-299 133-299 305 0 174 132 299 307 299 174 0 305-128 305-301"/><path id="p" d="M717-524c-3-169-33-262-187-262-86 0-159 43-219 129V0H125v-920h186v117c117-131 280-184 437-91 117 70 151 162 151 368V0H717v-524"/><path id="q" d="M512-938c262 0 413 213 401 494H266c6 169 125 288 299 288 120 0 231-37 332-112v178C790-20 702 12 537 14c-210 1-322-95-397-232-39-71-56-154-56-247 0-265 171-473 428-473zm221 385c-7-136-83-227-221-227-143 0-220 95-242 227h463"/><g id="c"><use height="100%" width="100%" xlink:href="#n" transform="scale(.00879)"/><use height="100%" width="100%" xlink:href="#o" transform="translate(11.6) scale(.00879)"/><use height="100%" width="100%" xlink:href="#p" transform="translate(21.6) scale(.00879)"/><use height="100%" width="100%" xlink:href="#q" transform="translate(30.6) scale(.00879)"/></g><path id="r" d="M41-623h55l154 305 157-306h53V1h-66v-471L259-219h-27L106-467V1H41v-624" fill="#fff"/><path id="s" d="M460-226c0 151-97 238-205 238C140 12 40-86 40-225c0-141 101-242 217-242 104 0 203 83 203 241zm-72 3c1-245-271-238-272-8-5 228 272 366 272 8" fill="#fff"/><path id="t" d="M274-405c-78 10-132 62-132 142V0H68v-457h74v81c34-51 89-92 151-92 88 0 139 91 139 191V0h-71v-275c9-55-27-138-87-130" fill="#fff"/><path id="u" d="M126-314c0 55 45 100 101 100s100-45 100-100-44-101-100-101-101 46-101 101zm11 199c9 36 35 35 92 35 52 0 107-6 155 13 49 20 71 59 71 99 0 61-55 140-210 140C85 172 38 114 38 64c0-36 26-70 75-101-29-15-37-42-37-61 0-29 19-60 52-88-42-27-68-74-68-124 0-133 184-217 279-118 35-30 81-45 127-41l9 59c-41-6-74 2-106 20 77 121-53 276-200 223-4 4-32 28-32 52zm107 233c53 0 145-29 145-81 0-20-11-48-54-53s-135-1-174-8c-52 25-92 93-12 127 35 14 74 15 95 15" fill="#fff"/><path id="v" d="M460-313C457-127 378 7 187 1H54v-624h145c184-10 263 137 261 310zM120-564v510c75-2 122 10 180-28 50-33 90-102 90-221 0-89-20-179-78-226-59-48-109-32-192-35" fill="#fff"/><path id="w" d="M457-173C457-69 349 0 224 0H48v-623h177c109-13 207 59 207 152 0 60-36 114-92 137 70 24 117 88 117 161zm-95-291c0-61-72-100-146-100h-99v199h98c73 9 147-36 147-99zm21 284c0-74-75-126-164-126H117v245h119c82 8 147-49 147-119" fill="#fff"/><g id="d"><use height="100%" width="100%" xlink:href="#r" transform="scale(.018)"/><use height="100%" width="100%" xlink:href="#s" transform="translate(9) scale(.018)"/><use height="100%" width="100%" xlink:href="#t" transform="translate(18) scale(.018)"/><use height="100%" width="100%" xlink:href="#u" transform="translate(27) scale(.018)"/><use height="100%" width="100%" xlink:href="#s" transform="translate(36) scale(.018)"/><use height="100%" width="100%" xlink:href="#v" transform="translate(45) scale(.018)"/><use height="100%" width="100%" xlink:href="#w" transform="translate(54) scale(.018)"/></g></defs></svg>