<svg xmlns="http://www.w3.org/2000/svg" xmlns:xlink="http://www.w3.org/1999/xlink" xmlns:lucid="lucid" width="1540" height="1200"><g transform="translate(-80 -140)" lucid:page-tab-id="0_0"><path d="M0 0h1760v1360H0z" fill="#fff"/><path d="M100 166a6 6 0 0 1 6-6h1488a6 6 0 0 1 6 6v1148a6 6 0 0 1-6 6H106a6 6 0 0 1-6-6z" stroke="#3a414a" fill="#fff"/><use xlink:href="#a" transform="matrix(1,0,0,1,112,172) translate(0 22.222222222222218)"/><use xlink:href="#b" transform="matrix(1,0,0,1,112,172) translate(81.97777777777776 22.222222222222218)"/><path d="M140 226a6 6 0 0 1 6-6h588a6 6 0 0 1 6 6v1048a6 6 0 0 1-6 6H146a6 6 0 0 1-6-6z" stroke="#3a414a" fill="#f2f3f5"/><use xlink:href="#c" transform="matrix(1,0,0,1,152,232) translate(0 19.999999999999996)"/><use xlink:href="#d" transform="matrix(1,0,0,1,152,232) translate(73.77999999999999 19.999999999999996)"/><use xlink:href="#e" transform="matrix(1,0,0,1,152,232) translate(135.17999999999998 19.999999999999996)"/><path d="M160 286a6 6 0 0 1 6-6h548a6 6 0 0 1 6 6v948a6 6 0 0 1-6 6H166a6 6 0 0 1-6-6z" stroke="#3a414a" fill="#fff"/><use xlink:href="#f" transform="matrix(1,0,0,1,172,292.0000000000002) translate(0 19.999999999999996)"/><use xlink:href="#g" transform="matrix(1,0,0,1,172,292.0000000000002) translate(70.23999999999998 19.999999999999996)"/><use xlink:href="#h" transform="matrix(1,0,0,1,172,292.0000000000002) translate(81.55999999999997 19.999999999999996)"/><path d="M180 346a6 6 0 0 1 6-6h508a6 6 0 0 1 6 6v868a6 6 0 0 1-6 6H186a6 6 0 0 1-6-6z" fill="#fff"/><path d="M183.08 340.78l.2-.13.87-.36.9-.23h2m3.98 0H195m3.98 0h3.97m3.98 0h3.98m3.98 0h3.98m3.97 0h3.98m4 0h3.96m3.98 0h3.97m4 0h3.97m3.97 0h3.98m3.98 0h3.97m3.98 0h3.97m3.98 0h3.98m3.97 0h3.98m3.97 0h3.98m3.98 0h3.97m3.98 0h3.98m3.98-.02h3.98m3.97 0h4m3.96 0h3.98m3.98 0h3.97m3.97 0h3.97m3.98 0H362m3.97 0h3.98m3.98 0h3.97m3.98 0h3.97m3.98 0h3.98m3.98 0h3.98m3.97 0h3.98m4 0h3.96m3.98 0h3.97m4 0h3.97m3.97 0h3.98m3.97 0h3.97m3.98-.02h3.97m3.98 0h3.98m3.97 0h3.98m3.97 0h3.98m3.98 0h3.97m3.98 0h3.98m3.98 0h3.98m3.97 0h4m3.96 0h3.98m3.98 0H529m3.97 0h3.97m3.98 0h3.98m3.97 0h3.98m3.98 0h3.97m3.98 0h3.97m3.98 0h3.98m3.98 0h3.98m3.97 0l3.98-.02m4 0h3.96m3.98 0h3.97m4 0h3.97m3.97 0h3.98m3.97 0h3.97m3.98 0h3.97m3.98 0h3.98m3.97 0h3.98m3.97 0h3.98m3.98 0h3.97m3.98 0h3.98m3.98 0h3.98m3.97 0h2l.94.07.9.22.23.08m3.15 2.7l.13.2.36.87.23.9v2m0 4v3.98m0 3.98v4m0 3.98v4m0 3.98v3.98m0 4v3.97m0 4v4m0 3.97v4m0 3.97v4m0 3.98v3.98m0 4v3.97m0 4v3.98m0 3.98v4m0 3.97v4m0 3.98v3.98m0 4v3.97m0 4v3.97m0 4v3.98m0 3.98v4m0 3.97v4m0 3.98v4m0 3.98v3.98m0 4v3.98m0 3.98v4m0 3.97v3.98m0 4v3.97m0 4v3.97m0 4v3.98m0 3.98l.02 4m0 3.97v4m0 3.98v3.98m0 4v3.98m0 4v3.98m0 3.98v4m0 3.97v4m0 4v3.97m0 4v3.97m0 4V642m0 3.98v4m0 3.97v4m0 3.97v4m0 3.98v3.98m0 4v3.97m0 4v3.98m0 3.98v4m0 3.97v4m0 3.98v3.98m0 4v3.97m0 4v3.98m0 4v3.98m0 3.98v4m0 3.98v3.98m0 4v3.97m0 3.98v4m0 3.97v4m0 3.97v4m0 3.98v3.98m0 4v3.97m.02 4v3.98m0 3.98v4m0 3.98v4m0 3.98v3.98m0 4v3.97m0 4v3.98m0 4v3.98m0 3.98v4m0 3.97v4m0 4v3.97m0 4v3.97m0 4v3.98m0 3.98v4m0 3.97v4m0 3.98v3.98m0 4V929m0 4v3.98m0 3.98v4m0 3.97v4m0 3.98v4m0 3.98v3.98m0 4v3.98m0 3.98v4m0 3.97v3.98m0 4v3.97m0 4v3.97m0 4v3.98m0 3.98v4m0 3.97v4m0 3.97l.02 4m0 3.98v3.98m0 4v3.97m0 4v3.98m0 3.98v4m0 3.98v4m0 3.98v3.98m0 4v3.97m0 4v4m0 3.97v4m0 3.97v4m0 3.98v3.98m0 4v3.97m0 4v3.98m0 3.98v4m0 3.97v4m0 3.98v3.98m0 4v3.97m0 4v3.98m0 4v3.98m0 3.98v4m0 3.98v3.98m0 4v1.98l-.07.94-.22.9-.08.23m-2.7 3.15l-.2.13-.87.36-.9.23h-2m-3.98 0H685m-3.98 0h-3.97m-3.98 0h-3.98m-3.98 0h-3.98m-3.97 0h-3.98m-4 0h-3.96m-3.98 0h-3.97m-4 0h-3.97m-3.97 0h-3.98m-3.98 0h-3.97m-3.98 0h-3.97m-3.98 0h-3.98m-3.97 0h-3.98m-3.97 0h-3.98m-3.98 0h-3.97m-3.98 0h-3.98m-3.98.02h-3.98m-3.97 0h-4m-3.96 0h-3.98m-3.98 0h-3.97m-3.97 0h-3.97m-3.98 0H518m-3.97 0h-3.98m-3.98 0h-3.97m-3.98 0h-3.97m-3.98 0h-3.98m-3.98 0h-3.98m-3.97 0h-3.98m-4 0h-3.96m-3.98 0h-3.97m-4 0h-3.97m-3.97 0h-3.98m-3.97 0h-3.97m-3.98.02h-3.97m-3.98 0h-3.98m-3.97 0h-3.98m-3.97 0h-3.98m-3.98 0h-3.97m-3.98 0h-3.98m-3.98 0h-3.98m-3.97 0h-4m-3.96 0h-3.98m-3.98 0H351m-3.97 0h-3.97m-3.98 0h-3.98m-3.97 0h-3.98m-3.98 0h-3.97m-3.98 0h-3.97m-3.98 0h-3.98m-3.98 0h-3.98m-3.97 0l-3.98.02m-4 0h-3.96m-3.98 0h-3.97m-4 0h-3.97m-3.97 0h-3.98m-3.97 0h-3.97m-3.98 0h-3.97m-3.98 0h-3.98m-3.97 0h-3.98m-3.97 0h-3.98m-3.98 0h-3.97m-3.98 0h-3.98m-3.98 0h-3.98m-3.97 0h-2l-.94-.07-.9-.22-.23-.08m-3.15-2.7l-.13-.2-.36-.87-.23-.9v-2m0-4v-3.98m0-3.98v-4m0-3.98v-4m0-3.98v-3.98m0-4v-3.97m0-4v-4m0-3.97v-4m0-3.97v-4m0-3.98v-3.98m0-4v-3.97m0-4v-3.98m0-3.98v-4m0-3.97v-4m0-3.98v-3.98m0-4v-3.97m0-4v-3.97m0-4v-3.98m0-3.98v-4m0-3.97v-4m0-3.98v-4m0-3.98v-3.98m0-4v-3.98m0-3.98v-4m0-3.97v-3.98m0-4v-3.97m0-4v-3.97m0-4v-3.98m0-3.98l-.02-4m0-3.97v-4m0-3.98v-3.98m0-4v-3.98m0-4v-3.98m0-3.98v-4m0-3.97v-4m0-4v-3.97m0-4v-3.97m0-4V918m0-3.98v-4m0-3.97v-4m0-3.97v-4m0-3.98v-3.98m0-4v-3.97m0-4v-3.98m0-3.98v-4m0-3.97v-4m0-3.98v-3.98m0-4v-3.97m0-4v-3.98m0-4v-3.98m0-3.98v-4m0-3.98v-3.98m0-4v-3.97m0-3.98v-4m0-3.97v-4m0-3.97v-4m0-3.98v-3.98m0-4v-3.97m-.02-4v-3.98m0-3.98v-4m0-3.98v-4m0-3.98v-3.98m0-4v-3.97m0-4v-3.98m0-4v-3.98m0-3.98v-4m0-3.97v-4m0-4v-3.97m0-4v-3.97m0-4v-3.98m0-3.98v-4m0-3.97v-4m0-3.98v-3.98m0-4V631m0-4v-3.98m0-3.98v-4m0-3.97v-4m0-3.98v-4m0-3.98v-3.98m0-4v-3.98m0-3.98v-4m0-3.97v-3.98m0-4v-3.97m0-4v-3.97m0-4v-3.98m0-3.98v-4m0-3.97v-4m0-3.97l-.02-4m0-3.98v-3.98m0-4v-3.97m0-4v-3.98m0-3.98v-4m0-3.98v-4m0-3.98v-3.98m0-4v-3.97m0-4v-4m0-3.97v-4m0-3.97v-4m0-3.98v-3.98m0-4v-3.97m0-4v-3.98m0-3.98v-4m0-3.97v-4m0-3.98v-3.98m0-4v-3.97m0-4v-3.98m0-4v-3.98m0-3.98v-4m0-3.98v-3.98m0-4V346l.07-.94.22-.9.08-.23" stroke="#3a414a" fill="none"/><use xlink:href="#i" transform="matrix(1,0,0,1,192,352) translate(0 19.999999999999996)"/><use xlink:href="#j" transform="matrix(1,0,0,1,192,352) translate(74.49999999999997 19.999999999999996)"/><use xlink:href="#k" transform="matrix(1,0,0,1,192,352) translate(136.35999999999996 19.999999999999996)"/><path d="M840 226a6 6 0 0 1 6-6h708a6 6 0 0 1 6 6v1048a6 6 0 0 1-6 6H846a6 6 0 0 1-6-6z" stroke="#3a414a" fill="#f2f3f5"/><use xlink:href="#l" transform="matrix(1,0,0,1,852,232) translate(0 19.999999999999996)"/><use xlink:href="#m" transform="matrix(1,0,0,1,852,232) translate(55.31999999999999 19.999999999999996)"/><path d="M560 399.33a6 6 0 0 1 6-6h108a6 6 0 0 1 6 6v65.34a6 6 0 0 1-6 6H566a6 6 0 0 1-6-6z" stroke="#3a414a" fill="#fff"/><use xlink:href="#n" transform="matrix(1,0,0,1,572,405.33333333333337) translate(1.3800000000000168 21.15277777777777)"/><use xlink:href="#o" transform="matrix(1,0,0,1,572,405.33333333333337) translate(25.388888888888896 43.694999999999986)"/><use xlink:href="#p" transform="matrix(1,0,0,1,572,405.33333333333337) translate(65.83333333333333 43.694999999999986)"/><path d="M860 286a6 6 0 0 1 6-6h668a6 6 0 0 1 6 6v948a6 6 0 0 1-6 6H866a6 6 0 0 1-6-6z" stroke="#3a414a" fill="#fff"/><use xlink:href="#f" transform="matrix(1,0,0,1,872,292.0000000000002) translate(0 19.999999999999996)"/><use xlink:href="#g" transform="matrix(1,0,0,1,872,292.0000000000002) translate(70.23999999999998 19.999999999999996)"/><use xlink:href="#h" transform="matrix(1,0,0,1,872,292.0000000000002) translate(81.55999999999997 19.999999999999996)"/><path d="M1140 346a6 6 0 0 1 6-6h368a6 6 0 0 1 6 6v868a6 6 0 0 1-6 6h-368a6 6 0 0 1-6-6z" fill="#fff"/><path d="M1143.08 340.78l.2-.13.87-.36.9-.23h2.02m4 0h4.02m4 0h4m4.02 0h4m4.02 0h4m4.02 0h4m4.02 0h4m4.02 0h4m4.02 0h4m4.02 0h4m4.02 0h4m4.02 0h4m4.02 0l4-.02m4.02 0h4m4.02 0h4m4.02 0h4m4.02 0h4m4.02 0h4m4.02 0h4m4.02 0h4m4.02 0h4m4.02 0h4m4.03 0h4.02m4 0h4.02m4 0l4.02-.02m4 0h4.02m4 0h4.02m4 0h4.02m4 0h4.02m4 0h4.02m4 0h4.02m4 0h4.02m4 0h4.02m4 0h4.02m4 0h4.02m4 0h4.02m4 0h4.02m4-.02h4.02m4 0h4.02m4 0h4.02m4 0h4.02m4 0h4.02m4 0h4.02m4 0h4.02m4 0h4.02m4 0h4.02m4 0h2.02l.94.07.9.22.23.08m3.15 2.7l.13.2.36.87.23.9v2m0 4v3.98m0 3.98v4m0 3.98v4m0 3.98v3.98m0 4v3.97m0 4v4m0 3.97v4m0 3.97v4m0 3.98v3.98m0 4v3.97m0 4v3.98m0 3.98v4m0 3.97v4m0 3.98v3.98m0 4v3.97m0 4v3.97m0 4v3.98m0 3.98v4m0 3.97v4m0 3.98v4m0 3.98v3.98m0 4v3.98m0 3.98v4m0 3.97v3.98m0 4v3.97m0 4v3.97m0 4v3.98m0 3.98l.02 4m0 3.97v4m0 3.98v3.98m0 4v3.98m0 4v3.98m0 3.98v4m0 3.97v4m0 4v3.97m0 4v3.97m0 4V642m0 3.98v4m0 3.97v4m0 3.97v4m0 3.98v3.98m0 4v3.97m0 4v3.98m0 3.98v4m0 3.97v4m0 3.98v3.98m0 4v3.97m0 4v3.98m0 4v3.98m0 3.98v4m0 3.98v3.98m0 4v3.97m0 3.98v4m0 3.97v4m0 3.97v4m0 3.98v3.98m0 4v3.97m.02 4v3.98m0 3.98v4m0 3.98v4m0 3.98v3.98m0 4v3.97m0 4v3.98m0 4v3.98m0 3.98v4m0 3.97v4m0 4v3.97m0 4v3.97m0 4v3.98m0 3.98v4m0 3.97v4m0 3.98v3.98m0 4V929m0 4v3.98m0 3.98v4m0 3.97v4m0 3.98v4m0 3.98v3.98m0 4v3.98m0 3.98v4m0 3.97v3.98m0 4v3.97m0 4v3.97m0 4v3.98m0 3.98v4m0 3.97v4m0 3.97l.02 4m0 3.98v3.98m0 4v3.97m0 4v3.98m0 3.98v4m0 3.98v4m0 3.98v3.98m0 4v3.97m0 4v4m0 3.97v4m0 3.97v4m0 3.98v3.98m0 4v3.97m0 4v3.98m0 3.98v4m0 3.97v4m0 3.98v3.98m0 4v3.97m0 4v3.98m0 4v3.98m0 3.98v4m0 3.98v3.98m0 4v1.98l-.07.94-.22.9-.08.23m-2.7 3.15l-.2.13-.87.36-.9.23h-2.02m-4 0h-4.02m-4 0h-4m-4.02 0h-4m-4.02 0h-4m-4.02 0h-4m-4.02 0h-4m-4.02 0h-4m-4.02 0h-4m-4.02 0h-4m-4.02 0h-4m-4.02 0h-4m-4.02 0l-4 .02m-4.02 0h-4m-4.02 0h-4m-4.02 0h-4m-4.02 0h-4m-4.02 0h-4m-4.02 0h-4m-4.02 0h-4m-4.02 0h-4m-4.02 0h-4m-4.03 0h-4.02m-4 0h-4.02m-4 0l-4.02.02m-4 0h-4.02m-4 0h-4.02m-4 0h-4.02m-4 0h-4.02m-4 0h-4.02m-4 0h-4.02m-4 0h-4.02m-4 0h-4.02m-4 0h-4.02m-4 0h-4.02m-4 0h-4.02m-4 0h-4.02m-4 .02h-4.02m-4 0h-4.02m-4 0h-4.02m-4 0h-4.02m-4 0h-4.02m-4 0h-4.02m-4 0h-4.02m-4 0h-4.02m-4 0H1152m-4 0H1146l-.94-.07-.9-.22-.23-.08m-3.15-2.7l-.13-.2-.36-.87-.23-.9v-2m0-4v-3.98m0-3.98v-4m0-3.98v-4m0-3.98v-3.98m0-4v-3.97m0-4v-4m0-3.97v-4m0-3.97v-4m0-3.98v-3.98m0-4v-3.97m0-4v-3.98m0-3.98v-4m0-3.97v-4m0-3.98v-3.98m0-4v-3.97m0-4v-3.97m0-4v-3.98m0-3.98v-4m0-3.97v-4m0-3.98v-4m0-3.98v-3.98m0-4v-3.98m0-3.98v-4m0-3.97v-3.98m0-4v-3.97m0-4v-3.97m0-4v-3.98m0-3.98l-.02-4m0-3.97v-4m0-3.98v-3.98m0-4v-3.98m0-4v-3.98m0-3.98v-4m0-3.97v-4m0-4v-3.97m0-4v-3.97m0-4V918m0-3.98v-4m0-3.97v-4m0-3.97v-4m0-3.98v-3.98m0-4v-3.97m0-4v-3.98m0-3.98v-4m0-3.97v-4m0-3.98v-3.98m0-4v-3.97m0-4v-3.98m0-4v-3.98m0-3.98v-4m0-3.98v-3.98m0-4v-3.97m0-3.98v-4m0-3.97v-4m0-3.97v-4m0-3.98v-3.98m0-4v-3.97m-.02-4v-3.98m0-3.98v-4m0-3.98v-4m0-3.98v-3.98m0-4v-3.97m0-4v-3.98m0-4v-3.98m0-3.98v-4m0-3.97v-4m0-4v-3.97m0-4v-3.97m0-4v-3.98m0-3.98v-4m0-3.97v-4m0-3.98v-3.98m0-4V631m0-4v-3.98m0-3.98v-4m0-3.97v-4m0-3.98v-4m0-3.98v-3.98m0-4v-3.98m0-3.98v-4m0-3.97v-3.98m0-4v-3.97m0-4v-3.97m0-4v-3.98m0-3.98v-4m0-3.97v-4m0-3.97l-.02-4m0-3.98v-3.98m0-4v-3.97m0-4v-3.98m0-3.98v-4m0-3.98v-4m0-3.98v-3.98m0-4v-3.97m0-4v-4m0-3.97v-4m0-3.97v-4m0-3.98v-3.98m0-4v-3.97m0-4v-3.98m0-3.98v-4m0-3.97v-4m0-3.98v-3.98m0-4v-3.97m0-4v-3.98m0-4v-3.98m0-3.98v-4m0-3.98v-3.98m0-4V346l.07-.94.22-.9.08-.23" stroke="#3a414a" fill="none"/><use xlink:href="#q" transform="matrix(1,0,0,1,1152,352) translate(0 19.999999999999996)"/><use xlink:href="#k" transform="matrix(1,0,0,1,1152,352) translate(53.11999999999999 19.999999999999996)"/><path d="M876.87 348.03a6 6 0 0 1 6-6H1094a6 6 0 0 1 6 6v133.34a6 6 0 0 1-6 6H882.87a6 6 0 0 1-6-6z" fill="#fff"/><path d="M879.94 342.8l.2-.1.87-.37.93-.22h1.96m3.92 0h3.93m3.92 0h3.93m3.93 0h3.92m3.93 0h3.93m3.94 0h3.92m3.93 0H931m3.93 0h3.92m3.93-.02h3.93m3.92 0h3.93m3.93 0h3.94m3.92 0h3.93m3.92 0h3.93m3.92 0H986m3.93 0h3.92m3.93 0l3.93-.02m3.94 0h3.92m3.93 0h3.92m3.93 0h3.92m3.93 0h3.93m3.92 0h3.93m3.93 0h3.94m3.92 0l3.93-.02m3.92 0h3.93m3.92 0h3.93m3.93 0h3.92m3.93 0h3.93m3.94 0h1.96l.94.07.9.23.23.1m3.15 2.68l.13.2.36.88.23.9v2m0 3.94v3.95m0 3.95v3.94m0 3.95v3.96m0 3.95v3.96m.02 3.95v3.96m0 3.95v3.96m0 3.95v3.96m0 3.95v3.95m0 3.95l.02 3.95m0 3.95v3.95m0 3.95v3.95m0 3.95v3.95m0 3.95v3.95m.02 3.95v3.94m0 3.95v3.94m0 3.95v3.94m0 3.95v1.97l-.07.93-.22.92-.08.22m-2.7 3.15l-.2.1-.87.37-.9.22h-1.98m-3.92 0h-3.93m-3.93 0h-3.93m-3.93 0h-3.93m-3.92 0h-3.92m-3.93 0h-3.93m-3.93 0h-3.92m-3.93 0H1038m-3.93 0h-3.93m-3.93.02h-3.92m-3.92 0h-3.93m-3.93 0h-3.93m-3.92 0h-3.93m-3.93 0h-3.93m-3.93 0H983m-3.92 0h-3.92m-3.93 0l-3.93.02m-3.93 0h-3.92m-3.93 0h-3.93m-3.93 0h-3.93m-3.93 0h-3.92m-3.92 0h-3.93m-3.93 0h-3.93m-3.92 0h-3.93m-3.93.02h-3.93m-3.93 0h-3.93m-3.92 0h-3.92m-3.93 0h-1.96l-.94-.07-.92-.23-.2-.1m-3.16-2.68l-.12-.2-.36-.88-.22-.92v-1.97m0-3.95v-3.95m0-3.95v-3.95m0-3.95v-3.95m-.02-3.95v-3.94m0-3.95v-3.96m0-3.95v-3.96m0-3.95v-3.96m0-3.95l-.02-3.96m0-3.95v-3.96m0-3.95v-3.95m0-3.95v-3.95m0-3.95v-3.95m-.02-3.95v-3.95m0-3.95v-3.95m0-3.95v-3.95m0-3.95v-3.94m0-3.95v-1.97l.06-.94.22-.92.1-.22" stroke="#3a414a" fill="none"/><use xlink:href="#r" transform="matrix(1,0,0,1,888.8656716417911,354.0317440725835) translate(0 17.777777777777775)"/><use xlink:href="#s" transform="matrix(1,0,0,1,888.8656716417911,354.0317440725835) translate(47.21777777777777 17.777777777777775)"/><use xlink:href="#t" transform="matrix(1,0,0,1,888.8656716417911,354.0317440725835) translate(86.73777777777777 17.777777777777775)"/><use xlink:href="#u" transform="matrix(1,0,0,1,888.8656716417911,354.0317440725835) translate(149.83111111111108 17.777777777777775)"/><path d="M920 399.33a6 6 0 0 1 6-6h134.27a6 6 0 0 1 6 6v65.34a6 6 0 0 1-6 6H926a6 6 0 0 1-6-6z" stroke="#3a414a" fill="#fff"/><use xlink:href="#v" transform="matrix(1,0,0,1,932,405.33333333333337) translate(30.664444444444452 21.15277777777777)"/><use xlink:href="#w" transform="matrix(1,0,0,1,932,405.33333333333337) translate(5.997777777777799 43.694999999999986)"/><use xlink:href="#p" transform="matrix(1,0,0,1,932,405.33333333333337) translate(111.22444444444443 43.694999999999986)"/><path d="M681.96 432h216.96" stroke="#3a414a" stroke-width="3" fill="none"/><path d="M682 433.5h-1.53v-3H682z" stroke="#3a414a" stroke-width=".05" fill="#3a414a"/><path d="M914.68 432l-14.26 4.64v-9.28z" stroke="#3a414a" stroke-width="3" fill="#3a414a"/><path d="M1300.96 432h42.19" stroke="#3a414a" fill="none"/><path d="M1300.98 432.5h-.52v-1h.52z" stroke="#3a414a" stroke-width=".05" fill="#3a414a"/><path d="M1357.92 432l-14.27 4.64v-9.28z" stroke="#3a414a" fill="#3a414a"/><path d="M560 554a6 6 0 0 1 6-6h108a6 6 0 0 1 6 6v65.33a6 6 0 0 1-6 6H566a6 6 0 0 1-6-6z" stroke="#3a414a" fill="#fff"/><use xlink:href="#n" transform="matrix(1,0,0,1,571.9999999999999,560) translate(1.3800000000000168 21.15277777777777)"/><use xlink:href="#o" transform="matrix(1,0,0,1,571.9999999999999,560) translate(23.31777777777779 43.694999999999986)"/><use xlink:href="#x" transform="matrix(1,0,0,1,571.9999999999999,560) translate(63.76222222222222 43.694999999999986)"/><path d="M880 506a6 6 0 0 1 6-6h211.13a6 6 0 0 1 6 6v133.33a6 6 0 0 1-6 6H886a6 6 0 0 1-6-6z" fill="#fff"/><path d="M883.08 500.78l.2-.13.87-.36.9-.23h1.98m3.92 0h3.93m3.93 0h3.93m3.93 0h3.93m3.92 0h3.92m3.93 0h3.93m3.93 0h3.92m3.93 0l3.93-.02m3.93 0h3.93m3.93 0h3.92m3.92 0h3.93m3.93 0h3.93m3.92 0h3.93m3.93 0h3.93m3.93 0l3.93-.02m3.92 0h3.92m3.93 0h3.93m3.93 0h3.92m3.93 0h3.93m3.93 0h3.93m3.93 0h3.92m3.92 0h3.93m3.93-.02h3.93m3.92 0h3.93m3.93 0h3.93m3.93 0h3.93m3.92 0h3.92m3.93 0h1.96l.94.07.92.22.2.08m3.16 2.7l.12.2.36.87.22.9v2m0 3.94v3.93m0 3.95v3.95m0 3.95v3.95m.02 3.95v3.95m0 3.95v3.95m0 3.95v3.95m0 3.95v3.94m0 3.95l.02 3.95m0 3.95v3.95m0 3.95v3.95m0 3.95v3.95m0 3.95v3.95m.02 3.95v3.94m0 3.96v3.95m0 3.96v3.95m0 3.96v3.95m0 3.96v1.97l-.06.94-.22.92-.1.2m-2.68 3.16l-.2.12-.87.36-.93.22h-1.96m-3.92 0h-3.93m-3.92 0h-3.93m-3.93 0h-3.92m-3.93 0h-3.93m-3.94 0h-3.92m-3.93.02H1049m-3.93 0h-3.92m-3.93 0h-3.93m-3.92 0h-3.93m-3.93 0h-3.94m-3.92 0h-3.93m-3.92 0h-3.93m-3.92 0l-3.93.02m-3.93 0h-3.92m-3.93 0h-3.93m-3.94 0h-3.92m-3.93 0h-3.92m-3.93 0h-3.92m-3.93 0h-3.93m-3.92 0h-3.93m-3.93.02h-3.94m-3.92 0h-3.93m-3.92 0h-3.93m-3.92 0h-3.93m-3.93 0h-3.92m-3.93 0h-3.93m-3.94 0H886l-.94-.06-.9-.22-.23-.1m-3.15-2.68l-.13-.2-.36-.87-.23-.93v-1.97m0-3.95v-3.95m0-3.95v-3.95m0-3.95v-3.95m0-3.95v-3.95m-.02-3.95v-3.94m0-3.94v-3.95m0-3.94V583m0-3.94v-3.95m0-3.94l-.02-3.95m0-3.94v-3.95m0-3.94v-3.94m0-3.95v-3.95m0-3.95v-3.95m-.02-3.95v-3.95m0-3.95v-3.95m0-3.95v-3.95m0-3.95V506l.07-.94.22-.9.08-.23" stroke="#3a414a" fill="none"/><use xlink:href="#r" transform="matrix(1,0,0,1,892.0000000000001,512) translate(0 17.777777777777775)"/><use xlink:href="#s" transform="matrix(1,0,0,1,892.0000000000001,512) translate(47.21777777777777 17.777777777777775)"/><use xlink:href="#t" transform="matrix(1,0,0,1,892.0000000000001,512) translate(86.73777777777777 17.777777777777775)"/><use xlink:href="#y" transform="matrix(1,0,0,1,892.0000000000001,512) translate(149.83111111111108 17.777777777777775)"/><path d="M920 554a6 6 0 0 1 6-6h134.27a6 6 0 0 1 6 6v65.33a6 6 0 0 1-6 6H926a6 6 0 0 1-6-6z" stroke="#3a414a" fill="#fff"/><use xlink:href="#v" transform="matrix(1,0,0,1,932,560) translate(30.664444444444452 21.15277777777777)"/><use xlink:href="#w" transform="matrix(1,0,0,1,932,560) translate(3.9266666666666836 43.694999999999986)"/><use xlink:href="#x" transform="matrix(1,0,0,1,932,560) translate(109.15333333333331 43.694999999999986)"/><path d="M681.96 586.67h216.96" stroke="#3a414a" stroke-width="3" fill="none"/><path d="M682 588.17h-1.53v-3H682z" stroke="#3a414a" stroke-width=".05" fill="#3a414a"/><path d="M914.68 586.67l-14.26 4.63v-9.27z" stroke="#3a414a" stroke-width="3" fill="#3a414a"/><path d="M1068.23 586.67h90.68" stroke="#3a414a" stroke-width="3" fill="none"/><path d="M1068.27 588.17h-1.54v-3h1.54z" stroke="#3a414a" stroke-width=".05" fill="#3a414a"/><path d="M1174.68 586.67l-14.27 4.63v-9.27z" stroke="#3a414a" stroke-width="3" fill="#3a414a"/><path d="M560 714a6 6 0 0 1 6-6h108a6 6 0 0 1 6 6v65.33a6 6 0 0 1-6 6H566a6 6 0 0 1-6-6z" stroke="#3a414a" fill="#fff"/><use xlink:href="#n" transform="matrix(1,0,0,1,572,720) translate(1.3800000000000168 21.15277777777777)"/><use xlink:href="#o" transform="matrix(1,0,0,1,572,720) translate(23.122222222222234 43.694999999999986)"/><use xlink:href="#z" transform="matrix(1,0,0,1,572,720) translate(63.56666666666666 43.694999999999986)"/><path d="M220 640.2a6 6 0 0 1 6-6h128a6 6 0 0 1 6 6v79.6a6 6 0 0 1-6 6H226a6 6 0 0 1-6-6z" stroke="#016bf8" fill="#edf5ff"/><use xlink:href="#A" transform="matrix(1,0,0,1,232,646.1866666666667) translate(27.031111111111123 28.40277777777777)"/><use xlink:href="#B" transform="matrix(1,0,0,1,232,646.1866666666667) translate(11.368888888888904 50.944999999999986)"/><use xlink:href="#C" transform="matrix(1,0,0,1,232,646.1866666666667) translate(66.35555555555555 50.944999999999986)"/><use xlink:href="#D" transform="matrix(1,0,0,1,232,646.1866666666667) translate(98.85333333333332 50.944999999999986)"/><path d="M876.87 666a6 6 0 0 1 6-6h214.26a6 6 0 0 1 6 6v133.33a6 6 0 0 1-6 6H882.87a6 6 0 0 1-6-6z" fill="#fff"/><path d="M879.94 660.78l.2-.13.87-.36.93-.23h2m3.98 0h4m3.98 0h3.98m4 0h3.97m4 0h3.97m4 0h3.97m4 0h3.97m4 0l3.97-.02m4 0h3.98m4 0h3.98m3.98 0h4m3.97 0h4m3.98 0h4m3.97 0h4m3.97 0l4-.02m3.97 0h3.98m3.98 0h4m3.98 0h3.98m4 0h3.97m3.98 0h3.98m4 0h3.97m4 0h3.97m4-.02h3.97m4 0h3.97m4 0h3.98m3.98 0h4m3.97 0h4m3.97 0h2l.93.07.92.22.2.08m3.16 2.7l.12.2.36.87.22.9v2m0 3.94v3.93m0 3.95v3.95m0 3.95v3.95m.02 3.95v3.95m0 3.95v3.95m0 3.95v3.95m0 3.95v3.94m0 3.95l.02 3.95m0 3.95v3.95m0 3.95v3.95m0 3.95v3.95m0 3.95v3.95m.02 3.95v3.94m0 3.96v3.95m0 3.96v3.95m0 3.96v3.95m0 3.96v1.97l-.06.94-.22.92-.1.2m-2.68 3.16l-.2.12-.87.36-.93.22h-2m-3.98 0h-4m-3.98 0h-3.98m-4 0h-3.97m-4 0h-3.97m-4 0h-3.97m-4 .02h-3.97m-4 0h-3.97m-4 0h-3.98m-4 0h-3.98m-3.98 0h-4m-3.97 0h-4m-3.98 0h-4m-3.97 0l-4 .02m-3.97 0h-4m-3.97 0h-3.98m-3.98 0h-4m-3.98 0h-3.98m-4 0h-3.97m-3.98 0h-3.98m-4 0h-3.97m-4 .02h-3.97m-4 0h-3.97m-4 0h-3.97m-4 0h-3.98m-3.98 0h-4m-3.97 0h-4m-3.97 0h-2l-.93-.06-.92-.22-.2-.1m-3.16-2.68l-.12-.2-.36-.87-.22-.93v-1.97m0-3.95v-3.95m0-3.95v-3.95m0-3.95v-3.95m-.02-3.95v-3.95m0-3.95v-3.94m0-3.94v-3.95m0-3.94V743m0-3.94l-.02-3.95m0-3.94v-3.95m0-3.94v-3.95m0-3.94v-3.94m0-3.95v-3.95m-.02-3.95v-3.95m0-3.95v-3.95m0-3.95v-3.95m0-3.95v-3.95m0-3.95V666l.06-.94.22-.9.1-.23" stroke="#3a414a" fill="none"/><use xlink:href="#r" transform="matrix(1,0,0,1,888.8656716417911,672) translate(0 17.777777777777775)"/><use xlink:href="#s" transform="matrix(1,0,0,1,888.8656716417911,672) translate(47.21777777777777 17.777777777777775)"/><use xlink:href="#t" transform="matrix(1,0,0,1,888.8656716417911,672) translate(86.73777777777777 17.777777777777775)"/><use xlink:href="#E" transform="matrix(1,0,0,1,888.8656716417911,672) translate(149.83111111111108 17.777777777777775)"/><path d="M681.96 746.67h212.26" stroke="#3a414a" stroke-width="3" fill="none"/><path d="M682 748.17h-1.53v-3H682z" stroke="#3a414a" stroke-width=".05" fill="#3a414a"/><path d="M909.98 746.67l-14.26 4.63v-9.27z" stroke="#3a414a" stroke-width="3" fill="#3a414a"/><path d="M560 874a6 6 0 0 1 6-6h108a6 6 0 0 1 6 6v65.33a6 6 0 0 1-6 6H566a6 6 0 0 1-6-6z" stroke="#3a414a" fill="#fff"/><use xlink:href="#n" transform="matrix(1,0,0,1,571.9999999999999,880) translate(1.3800000000000168 21.15277777777777)"/><use xlink:href="#o" transform="matrix(1,0,0,1,571.9999999999999,880) translate(22.793333333333344 43.694999999999986)"/><use xlink:href="#F" transform="matrix(1,0,0,1,571.9999999999999,880) translate(63.23777777777777 43.694999999999986)"/><path d="M1181.57 874a6 6 0 0 1 6-6h108a6 6 0 0 1 6 6v65.33a6 6 0 0 1-6 6h-108a6 6 0 0 1-6-6z" stroke="#3a414a" fill="#fff"/><use xlink:href="#G" transform="matrix(1,0,0,1,1193.5671641791046,880) translate(27.184444444444452 21.15277777777777)"/><use xlink:href="#H" transform="matrix(1,0,0,1,1193.5671641791046,880) translate(10.633333333333354 43.694999999999986)"/><path d="M1360 874a6 6 0 0 1 6-6h108a6 6 0 0 1 6 6v65.33a6 6 0 0 1-6 6h-108a6 6 0 0 1-6-6z" stroke="#979ea8" fill="#f9fbfa"/><use xlink:href="#I" transform="matrix(1,0,0,1,1372,880) translate(9.788888888888906 34.65277777777777)"/><path d="M880 828.67a6 6 0 0 1 6-6h211.13a6 6 0 0 1 6 6V962a6 6 0 0 1-6 6H886a6 6 0 0 1-6-6z" fill="#fff"/><path d="M883.08 823.44l.2-.12.87-.36.9-.22h1.98m3.92 0h3.93m3.93 0h3.93m3.93 0h3.93m3.92 0h3.92m3.93 0h3.93m3.93-.02h3.92m3.93 0H942m3.93 0h3.93m3.93 0h3.92m3.92 0h3.93m3.93 0h3.93m3.92 0h3.93m3.93 0l3.93-.02m3.93 0H997m3.92 0h3.92m3.93 0h3.93m3.93 0h3.92m3.93 0h3.93m3.93 0h3.93m3.93 0h3.92m3.92-.02h3.93m3.93 0h3.93m3.92 0h3.93m3.93 0h3.93m3.93 0h3.93m3.92 0h3.92m3.93 0h1.96l.94.06.92.22.2.1m3.16 2.68l.12.2.36.87.22.93v1.97m0 3.95v3.95m0 3.95v3.95m0 3.95v3.95m.02 3.95v3.95m0 3.95v3.94m0 3.94v3.95m0 3.94V885m0 3.94l.02 3.95m0 3.94v3.95m0 3.94v3.95m0 3.94v3.94m0 3.95v3.95m.02 3.95v3.95m0 3.95v3.95m0 3.95v3.95m0 3.95v3.95m0 3.95V962l-.06.94-.22.9-.1.23m-2.68 3.15l-.2.13-.87.36-.93.23h-1.96m-3.92 0h-3.93m-3.92 0h-3.93m-3.93 0h-3.92m-3.93 0h-3.93m-3.94 0h-3.92m-3.93 0H1049m-3.93 0l-3.92.02m-3.93 0h-3.93m-3.92 0h-3.93m-3.93 0h-3.94m-3.92 0h-3.93m-3.92 0h-3.93m-3.92 0H994m-3.93 0l-3.92.02m-3.93 0h-3.93m-3.94 0h-3.92m-3.93 0h-3.92m-3.93 0h-3.92m-3.93 0h-3.93m-3.92 0h-3.93m-3.93 0h-3.94m-3.92.02h-3.93m-3.92 0h-3.93m-3.92 0h-3.93m-3.93 0h-3.92m-3.93 0h-3.93m-3.94 0H886l-.94-.07-.9-.22-.23-.08m-3.15-2.7l-.13-.2-.36-.87-.23-.9v-2m0-3.94v-3.93m0-3.95v-3.95m0-3.95v-3.95m0-3.95v-3.95m-.02-3.95v-3.95m0-3.95v-3.95m0-3.95v-3.94m0-3.95v-3.95m0-3.95l-.02-3.95m0-3.95v-3.95m0-3.95v-3.95m0-3.95v-3.95m0-3.95v-3.94m-.02-3.96v-3.95m0-3.96v-3.95m0-3.96v-3.95m0-3.96v-1.97l.07-.94.22-.92.08-.2" stroke="#3a414a" fill="none"/><use xlink:href="#r" transform="matrix(1,0,0,1,892.0000000000001,834.6666666666665) translate(0 17.777777777777775)"/><use xlink:href="#s" transform="matrix(1,0,0,1,892.0000000000001,834.6666666666665) translate(47.21777777777777 17.777777777777775)"/><use xlink:href="#t" transform="matrix(1,0,0,1,892.0000000000001,834.6666666666665) translate(86.73777777777777 17.777777777777775)"/><use xlink:href="#J" transform="matrix(1,0,0,1,892.0000000000001,834.6666666666665) translate(149.83111111111108 17.777777777777775)"/><path d="M918.43 874a6 6 0 0 1 6-6h134.27a6 6 0 0 1 6 6v65.33a6 6 0 0 1-6 6H924.43a6 6 0 0 1-6-6z" stroke="#3a414a" fill="#fff"/><use xlink:href="#v" transform="matrix(1,0,0,1,930.4328358208957,880) translate(30.664444444444452 21.15277777777777)"/><use xlink:href="#w" transform="matrix(1,0,0,1,930.4328358208957,880) translate(3.4022222222222425 43.694999999999986)"/><use xlink:href="#F" transform="matrix(1,0,0,1,930.4328358208957,880) translate(108.62888888888887 43.694999999999986)"/><path d="M681.96 906.67h215.4" stroke="#3a414a" stroke-width="3" fill="none"/><path d="M682 908.17h-1.53v-3H682z" stroke="#3a414a" stroke-width=".05" fill="#3a414a"/><path d="M913.12 906.67l-14.27 4.63v-9.27z" stroke="#3a414a" stroke-width="3" fill="#3a414a"/><path d="M1066.67 906.67h93.8" stroke="#3a414a" stroke-width="3" fill="none"/><path d="M1066.7 908.17h-1.53v-3h1.53z" stroke="#3a414a" stroke-width=".05" fill="#3a414a"/><path d="M1176.25 906.67l-14.27 4.63v-9.27z" stroke="#3a414a" stroke-width="3" fill="#3a414a"/><path d="M1303.53 906.67h35.4" stroke="#3a414a" stroke-width="3" fill="none"/><path d="M1303.57 908.17h-1.54v-3h1.54z" stroke="#3a414a" stroke-width=".05" fill="#3a414a"/><path d="M1354.68 906.67l-14.26 4.63v-9.27z" stroke="#3a414a" stroke-width="3" fill="#3a414a"/><path d="M560 1113.15a6 6 0 0 1 6-6h108a6 6 0 0 1 6 6v65.33a6 6 0 0 1-6 6H566a6 6 0 0 1-6-6z" stroke="#3a414a" fill="#fff"/><use xlink:href="#n" transform="matrix(1,0,0,1,572,1119.1466666666663) translate(1.3800000000000168 21.15277777777777)"/><use xlink:href="#o" transform="matrix(1,0,0,1,572,1119.1466666666663) translate(17.80666666666668 43.694999999999986)"/><use xlink:href="#K" transform="matrix(1,0,0,1,572,1119.1466666666663) translate(58.25111111111111 43.694999999999986)"/><path d="M1181.57 1113.15a6 6 0 0 1 6-6h108a6 6 0 0 1 6 6v65.33a6 6 0 0 1-6 6h-108a6 6 0 0 1-6-6z" stroke="#3a414a" fill="#fff"/><use xlink:href="#G" transform="matrix(1,0,0,1,1193.5671641791046,1119.146666666666) translate(27.184444444444452 21.15277777777777)"/><use xlink:href="#H" transform="matrix(1,0,0,1,1193.5671641791046,1119.146666666666) translate(10.633333333333354 43.694999999999986)"/><path d="M1360 1113.15a6 6 0 0 1 6-6h108a6 6 0 0 1 6 6v65.33a6 6 0 0 1-6 6h-108a6 6 0 0 1-6-6z" stroke="#979ea8" fill="#f9fbfa"/><use xlink:href="#I" transform="matrix(1,0,0,1,1372,1119.1466666666665) translate(9.788888888888906 34.65277777777777)"/><path d="M876.87 1066a6 6 0 0 1 6-6h214.26a6 6 0 0 1 6 6v148a6 6 0 0 1-6 6H882.87a6 6 0 0 1-6-6z" fill="#fff"/><path d="M879.94 1060.78l.2-.13.87-.36.93-.23h2m3.98 0h4m3.98 0h3.98m4 0h3.97m4 0h3.97m4 0h3.97m4 0h3.97m4 0l3.97-.02m4 0h3.98m4 0h3.98m3.98 0h4m3.97 0h4m3.98 0h4m3.97 0h4m3.97 0l4-.02m3.97 0h3.98m3.98 0h4m3.98 0h3.98m4 0h3.97m3.98 0h3.98m4 0h3.97m4 0h3.97m4-.02h3.97m4 0h3.97m4 0h3.98m3.98 0h4m3.97 0h4m3.97 0h2l.93.07.92.22.2.08m3.16 2.7l.12.2.36.87.22.9v1.97m0 3.92v3.92m0 3.92v3.92m0 3.92v3.92m0 3.92l.02 3.92m0 3.92v3.92m0 3.9v3.93m0 3.92v3.92m0 3.9v3.93m0 3.92l.02 3.92m0 3.92v3.9m0 3.93v3.92m0 3.92v3.92m0 3.9v3.93m0 3.92l.02 3.92m0 3.9v3.93m0 3.92v3.92m0 3.92v3.92m0 3.92v3.92m0 3.92v1.96l-.06.94-.22.9-.1.23m-2.68 3.15l-.2.13-.87.36-.93.23h-2m-3.98 0h-4m-3.98 0h-3.98m-4 0h-3.97m-4 0h-3.97m-4 0h-3.97m-4 0h-3.97m-4 0l-3.97.02m-4 0h-3.98m-4 0h-3.98m-3.98 0h-4m-3.97 0h-4m-3.98 0h-4m-3.97 0h-4m-3.97 0l-4 .02m-3.97 0h-3.98m-3.98 0h-4m-3.98 0h-3.98m-4 0h-3.97m-3.98 0h-3.98m-4 0h-3.97m-4 0h-3.97m-4 .02h-3.97m-4 0h-3.97m-4 0h-3.98m-3.98 0h-4m-3.97 0h-4m-3.97 0h-2l-.93-.07-.92-.22-.2-.08m-3.16-2.7l-.12-.2-.36-.87-.22-.9v-1.97m0-3.92v-3.92m0-3.92v-3.92m0-3.92v-3.92m0-3.92l-.02-3.92m0-3.92v-3.92m0-3.9v-3.93m0-3.92v-3.92m0-3.9v-3.93m0-3.92l-.02-3.92m0-3.92v-3.9m0-3.93v-3.92m0-3.92v-3.92m0-3.9v-3.93m0-3.92l-.02-3.92m0-3.9v-3.93m0-3.92v-3.92m0-3.92v-3.92m0-3.92v-3.92m0-3.92V1066l.06-.94.22-.9.1-.23" stroke="#3a414a" fill="none"/><use xlink:href="#r" transform="matrix(1,0,0,1,888.8656716417911,1072) translate(0 17.777777777777775)"/><use xlink:href="#s" transform="matrix(1,0,0,1,888.8656716417911,1072) translate(47.21777777777777 17.777777777777775)"/><use xlink:href="#t" transform="matrix(1,0,0,1,888.8656716417911,1072) translate(86.73777777777777 17.777777777777775)"/><use xlink:href="#L" transform="matrix(1,0,0,1,888.8656716417911,1072) translate(149.83111111111108 17.777777777777775)"/><path d="M915.3 1109.57a6 6 0 0 1 6-6h138.97a6 6 0 0 1 6 6v72.48a6 6 0 0 1-6 6H921.3a6 6 0 0 1-6-6z" stroke="#3a414a" fill="#fff"/><use xlink:href="#v" transform="matrix(1,0,0,1,927.2985074626866,1115.5733333333333) translate(32.664444444444456 25.40277777777777)"/><use xlink:href="#w" transform="matrix(1,0,0,1,927.2985074626866,1115.5733333333333) translate(0.4155555555555779 47.944999999999986)"/><use xlink:href="#K" transform="matrix(1,0,0,1,927.2985074626866,1115.5733333333333) translate(105.64222222222222 47.944999999999986)"/><path d="M681.96 1145.8H894.2" stroke="#3a414a" stroke-width="3" fill="none"/><path d="M682 1147.3h-1.53v-3H682z" stroke="#3a414a" stroke-width=".05" fill="#3a414a"/><path d="M909.98 1145.8l-14.27 4.65v-9.27z" stroke="#3a414a" stroke-width="3" fill="#3a414a"/><path d="M1068.23 1145.8h92.25" stroke="#3a414a" stroke-width="3" fill="none"/><path d="M1068.27 1147.3h-1.54v-3h1.54z" stroke="#3a414a" stroke-width=".05" fill="#3a414a"/><path d="M1176.25 1145.8l-14.27 4.65v-9.27z" stroke="#3a414a" stroke-width="3" fill="#3a414a"/><path d="M1303.53 1145.8h35.39" stroke="#3a414a" stroke-width="3" fill="none"/><path d="M1303.57 1147.3h-1.54v-3h1.54z" stroke="#3a414a" stroke-width=".05" fill="#3a414a"/><path d="M1354.68 1145.8l-14.26 4.65v-9.27z" stroke="#3a414a" stroke-width="3" fill="#3a414a"/><path d="M361.96 680H424a6 6 0 0 0 6-6V438a6 6 0 0 1 6-6h102.92" stroke="#016bf8" stroke-width="3" fill="none"/><path d="M362 681.5h-1.54v-3H362z" stroke="#016bf8" stroke-width=".05" fill="#016bf8"/><path d="M554.68 432l-14.26 4.64v-9.28z" stroke="#016bf8" stroke-width="3" fill="#016bf8"/><path d="M361.96 680H424a6 6 0 0 0 6-6v-81.33a6 6 0 0 1 6-6h102.92" stroke="#016bf8" stroke-width="3" fill="none"/><path d="M362 681.5h-1.54v-3H362z" stroke="#016bf8" stroke-width=".05" fill="#016bf8"/><path d="M554.68 586.67l-14.26 4.63v-9.27z" stroke="#016bf8" stroke-width="3" fill="#016bf8"/><path d="M560 999.44a6 6 0 0 1 6-6h908a6 6 0 0 1 6 6v28.16a6 6 0 0 1-6 6H566a6 6 0 0 1-6-6z" stroke="#3a414a" fill="#fff"/><use xlink:href="#M" transform="matrix(1,0,0,1,572,1005.4435529279278) translate(400.1377777777778 24.44444444444444)"/><use xlink:href="#N" transform="matrix(1,0,0,1,572,1005.4435529279278) translate(422.90222222222224 24.44444444444444)"/><path d="M1180 397.86a6 6 0 0 1 6-6h108a6 6 0 0 1 6 6v68.28a6 6 0 0 1-6 6h-108a6 6 0 0 1-6-6z" stroke="#3a414a" fill="#fff"/><use xlink:href="#G" transform="matrix(1,0,0,1,1192,403.8603155011549) translate(27.184444444444452 24.90277777777777)"/><use xlink:href="#H" transform="matrix(1,0,0,1,1192,403.8603155011549) translate(10.633333333333354 47.444999999999986)"/><path d="M1360 392.2a6 6 0 0 1 6-6h108a6 6 0 0 1 6 6v79.6a6 6 0 0 1-6 6h-108a6 6 0 0 1-6-6z" stroke="#00684a" fill="#e3fcf7"/><use xlink:href="#O" transform="matrix(1,0,0,1,1372,398.1866666666667) translate(27.033333333333342 19.90277777777777)"/><use xlink:href="#P" transform="matrix(1,0,0,1,1372,398.1866666666667) translate(10.32222222222223 42.444999999999986)"/><use xlink:href="#Q" transform="matrix(1,0,0,1,1372,398.1866666666667) translate(74.5 42.444999999999986)"/><use xlink:href="#R" transform="matrix(1,0,0,1,1372,398.1866666666667) translate(20.357777777777788 64.9872222222222)"/><use xlink:href="#S" transform="matrix(1,0,0,1,1372,398.1866666666667) translate(70.86444444444443 64.9872222222222)"/><path d="M1301.96 432h36.96" stroke="#3a414a" stroke-width="3" fill="none"/><path d="M1302 433.5h-1.53v-3h1.53z" stroke="#3a414a" stroke-width=".05" fill="#3a414a"/><path d="M1354.68 432l-14.26 4.64v-9.28z" stroke="#3a414a" stroke-width="3" fill="#3a414a"/><path d="M1180 556.67a6 6 0 0 1 6-6h108a6 6 0 0 1 6 6V622a6 6 0 0 1-6 6h-108a6 6 0 0 1-6-6z" stroke="#3a414a" fill="#fff"/><g><use xlink:href="#G" transform="matrix(1,0,0,1,1192,562.6666666666665) translate(27.184444444444452 21.15277777777777)"/><use xlink:href="#H" transform="matrix(1,0,0,1,1192,562.6666666666665) translate(10.633333333333354 43.694999999999986)"/></g><path d="M1360 549.52a6 6 0 0 1 6-6h108a6 6 0 0 1 6 6v79.63a6 6 0 0 1-6 6h-108a6 6 0 0 1-6-6z" stroke="#00684a" fill="#e3fcf7"/><g><use xlink:href="#O" transform="matrix(1,0,0,1,1372,555.52) translate(27.033333333333342 19.90277777777777)"/><use xlink:href="#P" transform="matrix(1,0,0,1,1372,555.52) translate(10.32222222222223 42.444999999999986)"/><use xlink:href="#Q" transform="matrix(1,0,0,1,1372,555.52) translate(74.5 42.444999999999986)"/><use xlink:href="#R" transform="matrix(1,0,0,1,1372,555.52) translate(18.28666666666668 64.9872222222222)"/><use xlink:href="#T" transform="matrix(1,0,0,1,1372,555.52) translate(68.79333333333332 64.9872222222222)"/></g><path d="M915.3 714a6 6 0 0 1 6-6h134.27a6 6 0 0 1 6 6v65.33a6 6 0 0 1-6 6H921.3a6 6 0 0 1-6-6z" stroke="#3a414a" fill="#fff"/><g><use xlink:href="#v" transform="matrix(1,0,0,1,927.2985074626865,720) translate(30.664444444444452 21.15277777777777)"/><use xlink:href="#w" transform="matrix(1,0,0,1,927.2985074626865,720) translate(3.731111111111133 43.694999999999986)"/><use xlink:href="#z" transform="matrix(1,0,0,1,927.2985074626865,720) translate(108.95777777777776 43.694999999999986)"/></g><path d="M1063.53 746.67h96.95" stroke="#3a414a" stroke-width="3" fill="none"/><path d="M1063.57 748.17h-1.54v-3h1.54z" stroke="#3a414a" stroke-width=".05" fill="#3a414a"/><path d="M1176.25 746.67l-14.27 4.63v-9.27z" stroke="#3a414a" stroke-width="3" fill="#3a414a"/><path d="M1181.57 716.67a6 6 0 0 1 6-6h108a6 6 0 0 1 6 6V782a6 6 0 0 1-6 6h-108a6 6 0 0 1-6-6z" stroke="#3a414a" fill="#fff"/><g><use xlink:href="#G" transform="matrix(1,0,0,1,1193.5671641791046,722.6666666666665) translate(27.184444444444452 21.15277777777777)"/><use xlink:href="#H" transform="matrix(1,0,0,1,1193.5671641791046,722.6666666666665) translate(10.633333333333354 43.694999999999986)"/></g><path d="M1360 710.02a6 6 0 0 1 6-6h108a6 6 0 0 1 6 6v77.33a6 6 0 0 1-6 6h-108a6 6 0 0 1-6-6z" stroke="#00684a" fill="#e3fcf7"/><g><use xlink:href="#O" transform="matrix(1,0,0,1,1372,716.0166859565177) translate(27.033333333333342 19.84027777777777)"/><use xlink:href="#P" transform="matrix(1,0,0,1,1372,716.0166859565177) translate(10.32222222222223 42.382499999999986)"/><use xlink:href="#Q" transform="matrix(1,0,0,1,1372,716.0166859565177) translate(74.5 42.382499999999986)"/><use xlink:href="#R" transform="matrix(1,0,0,1,1372,716.0166859565177) translate(18.091111111111125 64.9247222222222)"/><use xlink:href="#U" transform="matrix(1,0,0,1,1372,716.0166859565177) translate(68.59777777777776 64.9247222222222)"/></g><path d="M1301.96 589.33h36.96" stroke="#3a414a" stroke-width="3" fill="none"/><path d="M1302 590.83h-1.53v-3h1.53z" stroke="#3a414a" stroke-width=".05" fill="#3a414a"/><path d="M1354.68 589.33l-14.26 4.64v-9.27z" stroke="#3a414a" stroke-width="3" fill="#3a414a"/><path d="M1303.53 749.33h35.4" stroke="#3a414a" stroke-width="3" fill="none"/><path d="M1303.57 750.83h-1.54v-3h1.54z" stroke="#3a414a" stroke-width=".05" fill="#3a414a"/><path d="M1354.68 749.33l-14.26 4.64v-9.27z" stroke="#3a414a" stroke-width="3" fill="#3a414a"/><path d="M1068.23 432h90.7" stroke="#3a414a" stroke-width="3" fill="none"/><path d="M1068.27 433.5h-1.54v-3h1.54z" stroke="#3a414a" stroke-width=".05" fill="#3a414a"/><path d="M1174.68 432l-14.26 4.64v-9.28z" stroke="#3a414a" stroke-width="3" fill="#3a414a"/><path d="M361.96 680H424a6 6 0 0 1 6 6v214.67a6 6 0 0 0 6 6h102.92" stroke="#016bf8" stroke-opacity=".5" stroke-width="3" fill="none"/><path d="M362 681.5h-1.54v-3H362z" stroke="#016bf8" stroke-opacity=".5" stroke-width=".05" fill="#016bf8" fill-opacity=".5"/><path d="M554.68 906.67l-14.26 4.63v-9.27z" stroke="#016bf8" stroke-opacity=".5" stroke-width="3" fill="#016bf8" fill-opacity=".5"/><path d="M361.96 680H424a6 6 0 0 1 6 6v453.8a6 6 0 0 0 6 6h102.92" stroke="#016bf8" stroke-opacity=".5" stroke-width="3" fill="none"/><path d="M362 681.5h-1.54v-3H362z" stroke="#016bf8" stroke-opacity=".5" stroke-width=".05" fill="#016bf8" fill-opacity=".5"/><path d="M554.68 1145.8l-14.26 4.65v-9.27z" stroke="#016bf8" stroke-opacity=".5" stroke-width="3" fill="#016bf8" fill-opacity=".5"/><path d="M220 786a6 6 0 0 1 6-6h128a6 6 0 0 1 6 6v79.63a6 6 0 0 1-6 6H226a6 6 0 0 1-6-6z" stroke="#db3030" fill="#fff0f0"/><g><use xlink:href="#V" transform="matrix(1,0,0,1,232,792) translate(27.031111111111123 28.40277777777777)"/><use xlink:href="#W" transform="matrix(1,0,0,1,232,792) translate(9.297777777777789 50.944999999999986)"/><use xlink:href="#X" transform="matrix(1,0,0,1,232,792) translate(64.28444444444443 50.944999999999986)"/><use xlink:href="#Y" transform="matrix(1,0,0,1,232,792) translate(96.7822222222222 50.944999999999986)"/></g><path d="M361.96 680H424a6 6 0 0 1 6 6v54.67a6 6 0 0 0 6 6h102.92" stroke="#016bf8" stroke-width="3" fill="none"/><path d="M362 681.5h-1.54v-3H362z" stroke="#016bf8" stroke-width=".05" fill="#016bf8"/><path d="M554.68 746.67l-14.26 4.63v-9.27z" stroke="#016bf8" stroke-width="3" fill="#016bf8"/><path d="M361.96 825.8H444a6 6 0 0 0 6-6V456.67a6 6 0 0 1 6-6h82.94" stroke="#db3030" stroke-width="3" fill="none"/><path d="M362 827.3h-1.54v-3H362z" stroke="#db3030" stroke-width=".05" fill="#db3030"/><path d="M554.7 450.66l-14.26 4.63V446z" stroke="#db3030" stroke-width="3" fill="#db3030"/><path d="M361.96 825.8H444a6 6 0 0 1 6 6v85.92a6 6 0 0 0 6 6h82.94" stroke="#ffc010" stroke-width="3" fill="none"/><path d="M362 827.3h-1.54v-3H362z" stroke="#ffc010" stroke-width=".05" fill="#ffc010"/><path d="M554.7 923.72l-14.26 4.64v-9.27z" stroke="#ffc010" stroke-width="3" fill="#ffc010"/><path d="M361.96 825.8H444a6 6 0 0 0 6-6V605.6a6 6 0 0 1 6-6h82.93" stroke="#db3030" stroke-width="3" fill="none"/><path d="M362 827.3h-1.54v-3H362z" stroke="#db3030" stroke-width=".05" fill="#db3030"/><path d="M554.7 599.58l-14.27 4.63v-9.26z" stroke="#db3030" stroke-width="3" fill="#db3030"/><path d="M361.96 825.8H444a6 6 0 0 1 6 6v325.45a6 6 0 0 0 6 6h82.94" stroke="#ffc010" stroke-width="3" fill="none"/><path d="M362 827.3h-1.54v-3H362z" stroke="#ffc010" stroke-width=".05" fill="#ffc010"/><path d="M554.7 1163.25l-14.26 4.64v-9.28z" stroke="#ffc010" stroke-width="3" fill="#ffc010"/><path d="M361.96 825.8H444a6 6 0 0 0 6-6V768.3a6 6 0 0 1 6-6h82.93" stroke="#db3030" stroke-width="3" fill="none"/><path d="M362 827.3h-1.54v-3H362z" stroke="#db3030" stroke-width=".05" fill="#db3030"/><path d="M554.7 762.28l-14.27 4.63v-9.26z" stroke="#db3030" stroke-width="3" fill="#db3030"/><defs><path fill="#3a414a" d="M411 12C192 12 36-149 36-355s156-367 373-367c144 0 284 84 334 222H560c-34-45-94-68-151-68-130 0-213 94-213 213s83 213 215 213c106 0 167-53 184-139H391v-149h369C795-129 624 12 411 12" id="Z"/><path fill="#3a414a" d="M294 11C150 11 31-103 31-250s119-261 263-261 263 114 263 261S438 11 294 11zm0-141c63 0 111-49 111-120s-48-120-111-120-111 49-111 120 48 120 111 120" id="aa"/><path fill="#3a414a" d="M298 219C155 219 62 135 54 27h147c28 99 206 91 201-36v-59C379-34 327-7 266-7 138-7 32-119 32-259s106-252 234-252c61 0 113 27 136 61v-50h151v469c0 185-126 250-255 250zm1-363c61 0 115-45 115-115s-54-115-115-115-115 45-115 115 54 115 115 115" id="ab"/><path fill="#3a414a" d="M62 0v-750h151V0H62" id="ac"/><path fill="#3a414a" d="M297 11C142 11 32-99 32-251c0-150 114-260 265-260 144 0 273 98 267 296H179c7 51 45 96 126 96 44 0 84-20 96-47h158C527-62 423 11 297 11zm100-322c-30-118-194-95-214 0h214" id="ad"/><g id="a"><use transform="matrix(0.02222222222222222,0,0,0.02222222222222222,0,0)" xlink:href="#Z"/><use transform="matrix(0.02222222222222222,0,0,0.02222222222222222,17.82222222222222,0)" xlink:href="#aa"/><use transform="matrix(0.02222222222222222,0,0,0.02222222222222222,30.888888888888886,0)" xlink:href="#aa"/><use transform="matrix(0.02222222222222222,0,0,0.02222222222222222,43.95555555555555,0)" xlink:href="#ab"/><use transform="matrix(0.02222222222222222,0,0,0.02222222222222222,57.62222222222221,0)" xlink:href="#ac"/><use transform="matrix(0.02222222222222222,0,0,0.02222222222222222,63.73333333333331,0)" xlink:href="#ad"/></g><path fill="#3a414a" d="M409 12C192 12 36-149 36-355s156-367 373-367c156 0 304 99 345 256H581c-30-66-102-102-172-102-130 0-213 94-213 213s83 213 213 213c70 0 142-36 172-102h173C713-87 565 12 409 12" id="ae"/><path fill="#3a414a" d="M245 11C121 11 56-79 56-215v-285h151v259c0 73 21 115 77 115 57 0 94-39 94-131v-243h151V0H378v-51c-24 35-68 62-133 62" id="af"/><path fill="#3a414a" d="M264 11C133 11 32-108 32-250s101-261 232-261c67 0 116 34 136 61v-300h151V0H400v-50c-20 27-69 61-136 61zm34-137c68 0 114-52 114-124s-46-124-114-124-114 52-114 124 46 124 114 124" id="ag"/><g id="b"><use transform="matrix(0.02222222222222222,0,0,0.02222222222222222,0,0)" xlink:href="#ae"/><use transform="matrix(0.02222222222222222,0,0,0.02222222222222222,17.288888888888888,0)" xlink:href="#ac"/><use transform="matrix(0.02222222222222222,0,0,0.02222222222222222,23.4,0)" xlink:href="#aa"/><use transform="matrix(0.02222222222222222,0,0,0.02222222222222222,36.46666666666666,0)" xlink:href="#af"/><use transform="matrix(0.02222222222222222,0,0,0.02222222222222222,49.599999999999994,0)" xlink:href="#ag"/></g><g id="c"><use transform="matrix(0.019999999999999997,0,0,0.019999999999999997,0,0)" xlink:href="#Z"/><use transform="matrix(0.019999999999999997,0,0,0.019999999999999997,16.04,0)" xlink:href="#aa"/><use transform="matrix(0.019999999999999997,0,0,0.019999999999999997,27.799999999999997,0)" xlink:href="#aa"/><use transform="matrix(0.019999999999999997,0,0,0.019999999999999997,39.559999999999995,0)" xlink:href="#ab"/><use transform="matrix(0.019999999999999997,0,0,0.019999999999999997,51.85999999999999,0)" xlink:href="#ac"/><use transform="matrix(0.019999999999999997,0,0,0.019999999999999997,57.35999999999999,0)" xlink:href="#ad"/></g><g id="d"><use transform="matrix(0.019999999999999997,0,0,0.019999999999999997,0,0)" xlink:href="#ae"/><use transform="matrix(0.019999999999999997,0,0,0.019999999999999997,15.559999999999997,0)" xlink:href="#ac"/><use transform="matrix(0.019999999999999997,0,0,0.019999999999999997,21.059999999999995,0)" xlink:href="#aa"/><use transform="matrix(0.019999999999999997,0,0,0.019999999999999997,32.81999999999999,0)" xlink:href="#af"/><use transform="matrix(0.019999999999999997,0,0,0.019999999999999997,44.63999999999999,0)" xlink:href="#ag"/></g><path fill="#3a414a" d="M292 0L1-710h173l189 473 188-473h175L435 0H292" id="ah"/><path fill="#3a414a" d="M566-467c0 137-107 242-250 242h-82V0H75v-710h241c143 0 250 106 250 243zm-154 0c0-53-41-93-98-93h-80v186h80c57 0 98-41 98-93" id="ai"/><g id="e"><use transform="matrix(0.019999999999999997,0,0,0.019999999999999997,0,0)" xlink:href="#ah"/><use transform="matrix(0.019999999999999997,0,0,0.019999999999999997,14.539999999999997,0)" xlink:href="#ai"/><use transform="matrix(0.019999999999999997,0,0,0.019999999999999997,26.399999999999995,0)" xlink:href="#ae"/></g><path fill="#3a414a" d="M94 0v-710h242c131 0 212 79 212 196 0 104-66 174-175 190L646 0H529L256-323h-69V0H94zm93-406h138c81 0 130-37 130-108 0-72-49-110-130-110H187v218" id="aj"/><path fill="#3a414a" d="M528-152C503-64 421 10 294 10 148 10 42-101 42-250c0-146 98-260 254-260 157 0 252 128 240 283H129c3 91 76 159 166 159 62 0 115-24 145-84h88zm-83-143c-27-186-281-187-312 0h312" id="ak"/><path fill="#3a414a" d="M59 46h84c23 66 79 97 160 97 90 0 158-60 158-173v-59C427-39 361-1 287-1 148-1 42-113 42-256c0-142 106-254 245-254 74 0 140 37 174 87v-77h86v469c0 167-110 250-246 250-134 0-227-72-242-173zm409-302c0-100-69-175-169-175s-169 75-169 175c0 101 69 175 169 175s169-74 169-175" id="al"/><path fill="#3a414a" d="M185-695c0 34-26 61-60 61s-62-27-62-61c0-33 28-61 62-61s60 28 60 61zM81 0v-500h86V0H81" id="am"/><path fill="#3a414a" d="M564-250c0 144-111 260-261 260C152 10 41-106 41-250s111-260 262-260c150 0 261 116 261 260zm-435 0c0 100 70 180 174 180s173-80 173-180-69-180-173-180-174 80-174 180" id="an"/><path fill="#3a414a" d="M81 0v-500h86v77c34-59 94-87 159-87 112 0 189 78 189 202V0h-85v-295c0-84-48-136-118-136-81 0-145 66-145 183V0H81" id="ao"/><g id="f"><use transform="matrix(0.019999999999999997,0,0,0.019999999999999997,0,0)" xlink:href="#aj"/><use transform="matrix(0.019999999999999997,0,0,0.019999999999999997,12.399999999999995,0)" xlink:href="#ak"/><use transform="matrix(0.019999999999999997,0,0,0.019999999999999997,23.979999999999997,0)" xlink:href="#al"/><use transform="matrix(0.019999999999999997,0,0,0.019999999999999997,36.53999999999999,0)" xlink:href="#am"/><use transform="matrix(0.019999999999999997,0,0,0.019999999999999997,41.51999999999998,0)" xlink:href="#an"/><use transform="matrix(0.019999999999999997,0,0,0.019999999999999997,53.63999999999998,0)" xlink:href="#ao"/></g><path fill="#3a414a" d="M145 0v-625H8l70-85h153V0h-86" id="ap"/><use transform="matrix(0.019999999999999997,0,0,0.019999999999999997,0,0)" xlink:href="#ap" id="g"/><path fill="#3a414a" d="M245 160h-70C4-148 4-492 175-800h70C82-478 82-162 245 160" id="aq"/><path fill="#37474f" d="M74-193v-307h86v294c0 84 44 137 113 137 78 0 139-68 139-183v-248h86V0h-86v-77c-33 58-91 87-154 87C148 10 74-69 74-193" id="ar"/><path fill="#37474f" d="M426-135c0 99-80 145-184 145C135 10 46-44 39-145h88c12 61 64 82 116 82 54 0 96-22 96-66 0-65-95-84-155-99-86-22-129-76-129-147 0-83 72-135 173-135 107 0 173 63 182 143h-86c-13-44-49-71-96-71-48 0-86 24-86 62 0 64 100 78 156 93 83 22 128 73 128 148" id="as"/><path fill="#37474f" d="M65-237v-86h255v86H65" id="at"/><path fill="#37474f" d="M528-152C503-64 421 10 294 10 148 10 42-101 42-250c0-146 98-260 254-260 157 0 252 128 240 283H129c3 91 76 159 166 159 62 0 115-24 145-84h88zm-83-143c-27-186-281-187-312 0h312" id="au"/><path fill="#37474f" d="M42-250c0-143 105-260 245-260 75 0 143 39 176 87v-77h86V0h-86v-77c-33 48-101 87-176 87C147 10 42-107 42-250zm428 0c0-101-69-181-170-181s-171 80-171 181S199-69 300-69s170-80 170-181" id="av"/><path fill="#37474f" d="M352-7c-113 35-230-6-230-141v-273H16v-79h106v-139h86v139h144v79H208v262c-8 91 77 95 144 75v77" id="aw"/><path fill="#37474f" d="M395 0v-193H17v-69l389-448h75v436h98v81h-98V0h-86zm0-274v-306L130-274h265" id="ax"/><path fill="#3a414a" d="M29 160c163-322 163-638 0-960h70c171 308 171 652 0 960H29" id="ay"/><g id="h"><use transform="matrix(0.019999999999999997,0,0,0.019999999999999997,0,0)" xlink:href="#aq"/><use transform="matrix(0.018666666666666668,0,0,0.018666666666666668,5.499999999999999,0)" xlink:href="#ar"/><use transform="matrix(0.018666666666666668,0,0,0.018666666666666668,16.308,0)" xlink:href="#as"/><use transform="matrix(0.018666666666666668,0,0,0.018666666666666668,25.025333333333336,0)" xlink:href="#at"/><use transform="matrix(0.018666666666666668,0,0,0.018666666666666668,32.23066666666667,0)" xlink:href="#au"/><use transform="matrix(0.018666666666666668,0,0,0.018666666666666668,43.03866666666667,0)" xlink:href="#av"/><use transform="matrix(0.018666666666666668,0,0,0.018666666666666668,54.798666666666676,0)" xlink:href="#as"/><use transform="matrix(0.018666666666666668,0,0,0.018666666666666668,63.36666666666668,0)" xlink:href="#aw"/><use transform="matrix(0.018666666666666668,0,0,0.018666666666666668,70.47866666666668,0)" xlink:href="#ax"/><use transform="matrix(0.019999999999999997,0,0,0.019999999999999997,81.99600000000002,0)" xlink:href="#ay"/></g><path fill="#3a414a" d="M46-355c0-207 160-367 368-367 168 0 296 104 336 222H647c-38-77-126-134-233-134-158 0-275 122-275 279S256-76 414-76c146 0 248-103 261-243H410v-87h360C790-147 621 12 414 12 206 12 46-148 46-355" id="az"/><path fill="#3a414a" d="M81 0v-750h86V0H81" id="aA"/><g id="i"><use transform="matrix(0.019999999999999997,0,0,0.019999999999999997,0,0)" xlink:href="#az"/><use transform="matrix(0.019999999999999997,0,0,0.019999999999999997,16.319999999999997,0)" xlink:href="#an"/><use transform="matrix(0.019999999999999997,0,0,0.019999999999999997,28.439999999999994,0)" xlink:href="#an"/><use transform="matrix(0.019999999999999997,0,0,0.019999999999999997,40.55999999999999,0)" xlink:href="#al"/><use transform="matrix(0.019999999999999997,0,0,0.019999999999999997,53.11999999999999,0)" xlink:href="#aA"/><use transform="matrix(0.019999999999999997,0,0,0.019999999999999997,58.099999999999994,0)" xlink:href="#ak"/></g><path fill="#3a414a" d="M46-355c0-207 160-367 368-367 179 0 309 117 340 246h-98c-31-89-124-158-242-158-158 0-275 122-275 279S256-76 414-76c118 0 211-69 242-158h98C723-105 593 12 414 12 206 12 46-148 46-355" id="aB"/><path fill="#3a414a" d="M74-193v-307h86v294c0 84 44 137 113 137 78 0 139-68 139-183v-248h86V0h-86v-77c-33 58-91 87-154 87C148 10 74-69 74-193" id="aC"/><path fill="#3a414a" d="M42-250c0-143 105-260 245-260 75 0 143 39 176 87v-327h86V0h-86v-77c-33 48-101 87-176 87C147 10 42-107 42-250zm428 0c0-101-69-181-170-181s-171 80-171 181S199-69 300-69s170-80 170-181" id="aD"/><g id="j"><use transform="matrix(0.019999999999999997,0,0,0.019999999999999997,0,0)" xlink:href="#aB"/><use transform="matrix(0.019999999999999997,0,0,0.019999999999999997,15.759999999999998,0)" xlink:href="#aA"/><use transform="matrix(0.019999999999999997,0,0,0.019999999999999997,20.74,0)" xlink:href="#an"/><use transform="matrix(0.019999999999999997,0,0,0.019999999999999997,32.86,0)" xlink:href="#aC"/><use transform="matrix(0.019999999999999997,0,0,0.019999999999999997,44.43999999999999,0)" xlink:href="#aD"/></g><path fill="#3a414a" d="M43-190h93c8 79 86 115 153 115 74 0 134-40 134-106 0-95-121-127-199-155C114-375 61-436 60-536c0-116 92-186 216-186 144 0 215 99 224 192h-92c-18-74-76-105-134-105-68 0-121 37-121 96 0 94 118 120 193 148 108 40 170 101 170 207 0 120-94 196-226 196C141 12 47-82 43-190" id="aE"/><path fill="#3a414a" d="M167-77V0H81v-750h86v327c33-48 101-87 176-87 139 0 245 117 245 260S482 10 343 10c-75 0-143-39-176-87zm333-173c0-101-69-181-170-181s-170 80-170 181S229-69 330-69s170-80 170-181" id="aF"/><path fill="#3a414a" d="M352-7c-113 35-230-6-230-141v-273H16v-79h106v-139h86v139h144v79H208v262c-8 91 77 95 144 75v77" id="aG"/><g id="k"><use transform="matrix(0.019999999999999997,0,0,0.019999999999999997,0,0)" xlink:href="#aE"/><use transform="matrix(0.019999999999999997,0,0,0.019999999999999997,11.139999999999999,0)" xlink:href="#aC"/><use transform="matrix(0.019999999999999997,0,0,0.019999999999999997,22.720000000000002,0)" xlink:href="#aF"/><use transform="matrix(0.019999999999999997,0,0,0.019999999999999997,35.31999999999999,0)" xlink:href="#ao"/><use transform="matrix(0.019999999999999997,0,0,0.019999999999999997,47.099999999999994,0)" xlink:href="#ak"/><use transform="matrix(0.019999999999999997,0,0,0.019999999999999997,58.53999999999999,0)" xlink:href="#aG"/></g><path fill="#3a414a" d="M-1 0l304-710h144L751 0H585l-63-150H228L165 0H-1zm287-288h178l-89-214" id="aH"/><path fill="#3a414a" d="M407-4C262 31 116-22 116-183v-186H16v-131h100v-139h151v139h140v131H267v155c0 60 25 85 85 85 23 0 39-3 55-9V-4" id="aI"/><path fill="#3a414a" d="M264 11C133 11 32-108 32-250s101-261 232-261c67 0 116 34 136 61v-50h151V0H400v-50c-20 27-69 61-136 61zm34-137c68 0 114-52 114-124s-46-124-114-124-114 52-114 124 46 124 114 124" id="aJ"/><path fill="#3a414a" d="M264 11C128 11 36-65 31-163h159c2 40 36 60 79 60 39 0 56-14 56-32 0-22-18-32-57-42l-101-26C80-225 41-286 41-360c0-87 77-151 209-151 110 0 200 56 207 162H305c-6-37-32-46-58-46-31 0-51 12-51 32 0 26 28 33 51 39l91 24c101 27 141 78 141 157 0 93-89 154-215 154" id="aK"/><g id="l"><use transform="matrix(0.019999999999999997,0,0,0.019999999999999997,0,0)" xlink:href="#aH"/><use transform="matrix(0.019999999999999997,0,0,0.019999999999999997,14.059999999999999,0)" xlink:href="#aI"/><use transform="matrix(0.019999999999999997,0,0,0.019999999999999997,22.86,0)" xlink:href="#ac"/><use transform="matrix(0.019999999999999997,0,0,0.019999999999999997,28.36,0)" xlink:href="#aJ"/><use transform="matrix(0.019999999999999997,0,0,0.019999999999999997,40.62,0)" xlink:href="#aK"/></g><g id="m"><use transform="matrix(0.019999999999999997,0,0,0.019999999999999997,0,0)" xlink:href="#ah"/><use transform="matrix(0.019999999999999997,0,0,0.019999999999999997,14.539999999999997,0)" xlink:href="#ai"/><use transform="matrix(0.019999999999999997,0,0,0.019999999999999997,26.399999999999995,0)" xlink:href="#ae"/></g><path fill="#3a414a" d="M94 0v-710h413v88H187v215h253v88H187V0H94" id="aL"/><path fill="#3a414a" d="M81 0v-500h86v97c28-75 96-115 179-98v89c-98-29-179 27-179 164V0H81" id="aM"/><path fill="#3a414a" d="M505 0L382-360 258 0h-76L12-500h90l121 365 125-365h66l125 365 121-365h91L581 0h-76" id="aN"/><path fill="#3a414a" d="M42-250c0-143 105-260 245-260 75 0 143 39 176 87v-77h86V0h-86v-77c-33 48-101 87-176 87C147 10 42-107 42-250zm428 0c0-101-69-181-170-181s-171 80-171 181S199-69 300-69s170-80 170-181" id="aO"/><g id="n"><use transform="matrix(0.01777777777777777,0,0,0.01777777777777777,0,0)" xlink:href="#aL"/><use transform="matrix(0.01777777777777777,0,0,0.01777777777777777,8.764444444444441,0)" xlink:href="#an"/><use transform="matrix(0.01777777777777777,0,0,0.01777777777777777,19.53777777777777,0)" xlink:href="#aM"/><use transform="matrix(0.01777777777777777,0,0,0.01777777777777777,26.044444444444434,0)" xlink:href="#aN"/><use transform="matrix(0.01777777777777777,0,0,0.01777777777777777,39.573333333333316,0)" xlink:href="#aO"/><use transform="matrix(0.01777777777777777,0,0,0.01777777777777777,50.77333333333331,0)" xlink:href="#aM"/><use transform="matrix(0.01777777777777777,0,0,0.01777777777777777,56.97777777777776,0)" xlink:href="#aD"/><use transform="matrix(0.01777777777777777,0,0,0.01777777777777777,68.17777777777775,0)" xlink:href="#am"/><use transform="matrix(0.01777777777777777,0,0,0.01777777777777777,72.60444444444441,0)" xlink:href="#ao"/><use transform="matrix(0.01777777777777777,0,0,0.01777777777777777,83.07555555555552,0)" xlink:href="#al"/></g><g id="o"><use transform="matrix(0.01777777777777777,0,0,0.01777777777777777,0,0)" xlink:href="#aj"/><use transform="matrix(0.01777777777777777,0,0,0.01777777777777777,11.146666666666663,0)" xlink:href="#aC"/><use transform="matrix(0.01777777777777777,0,0,0.01777777777777777,21.43999999999999,0)" xlink:href="#aA"/><use transform="matrix(0.01777777777777777,0,0,0.01777777777777777,25.866666666666656,0)" xlink:href="#ak"/></g><use transform="matrix(0.01777777777777777,0,0,0.01777777777777777,0,0)" xlink:href="#ap" id="p"/><path fill="#3a414a" d="M6 0l314-710h77L712 0h-97l-91-207H193L102 0H6zm223-291h258L358-584" id="aP"/><path fill="#3a414a" d="M426-135c0 99-80 145-184 145C135 10 46-44 39-145h88c12 61 64 82 116 82 54 0 96-22 96-66 0-65-95-84-155-99-86-22-129-76-129-147 0-83 72-135 173-135 107 0 173 63 182 143h-86c-13-44-49-71-96-71-48 0-86 24-86 62 0 64 100 78 156 93 83 22 128 73 128 148" id="aQ"/><g id="q"><use transform="matrix(0.019999999999999997,0,0,0.019999999999999997,0,0)" xlink:href="#aP"/><use transform="matrix(0.019999999999999997,0,0,0.019999999999999997,13.759999999999998,0)" xlink:href="#aG"/><use transform="matrix(0.019999999999999997,0,0,0.019999999999999997,21.379999999999995,0)" xlink:href="#aA"/><use transform="matrix(0.019999999999999997,0,0,0.019999999999999997,26.359999999999996,0)" xlink:href="#aO"/><use transform="matrix(0.019999999999999997,0,0,0.019999999999999997,38.959999999999994,0)" xlink:href="#aQ"/></g><g id="r"><use transform="matrix(0.017777777777777774,0,0,0.017777777777777774,0,0)" xlink:href="#aP"/><use transform="matrix(0.017777777777777774,0,0,0.017777777777777774,12.231111111111108,0)" xlink:href="#aG"/><use transform="matrix(0.017777777777777774,0,0,0.017777777777777774,19.004444444444438,0)" xlink:href="#aA"/><use transform="matrix(0.017777777777777774,0,0,0.017777777777777774,23.431111111111104,0)" xlink:href="#aO"/><use transform="matrix(0.017777777777777774,0,0,0.017777777777777774,34.6311111111111,0)" xlink:href="#aQ"/></g><path fill="#3a414a" d="M699 0h-80L187-553V0H94v-710h81l432 553v-553h92V0" id="aR"/><path fill="#3a414a" d="M238 0v-622H17v-88h533v88H329V0h-91" id="aS"/><g id="s"><use transform="matrix(0.017777777777777774,0,0,0.017777777777777774,0,0)" xlink:href="#aR"/><use transform="matrix(0.017777777777777774,0,0,0.017777777777777774,14.115555555555552,0)" xlink:href="#aP"/><use transform="matrix(0.017777777777777774,0,0,0.017777777777777774,25.742222222222217,0)" xlink:href="#aS"/></g><g id="t"><use transform="matrix(0.017777777777777774,0,0,0.017777777777777774,0,0)" xlink:href="#aE"/><use transform="matrix(0.017777777777777774,0,0,0.017777777777777774,9.902222222222221,0)" xlink:href="#aC"/><use transform="matrix(0.017777777777777774,0,0,0.017777777777777774,20.19555555555555,0)" xlink:href="#aF"/><use transform="matrix(0.017777777777777774,0,0,0.017777777777777774,31.395555555555546,0)" xlink:href="#ao"/><use transform="matrix(0.017777777777777774,0,0,0.017777777777777774,41.86666666666665,0)" xlink:href="#ak"/><use transform="matrix(0.017777777777777774,0,0,0.017777777777777774,52.03555555555554,0)" xlink:href="#aG"/></g><use transform="matrix(0.017777777777777774,0,0,0.017777777777777774,0,0)" xlink:href="#ap" id="u"/><path fill="#3a414a" d="M237 0L6-500h96l171 378 171-378h96L309 0h-72" id="aT"/><path fill="#3a414a" d="M555-176C527-68 429 10 303 10 151 10 42-107 42-250s109-260 261-260c126 0 224 78 252 186h-92c-22-63-82-107-160-107-104 0-174 80-174 181S199-69 303-69c78 0 138-44 160-107h92" id="aU"/><g id="v"><use transform="matrix(0.01777777777777777,0,0,0.01777777777777777,0,0)" xlink:href="#aE"/><use transform="matrix(0.01777777777777777,0,0,0.01777777777777777,9.991111111111108,0)" xlink:href="#ak"/><use transform="matrix(0.01777777777777777,0,0,0.01777777777777777,20.28444444444444,0)" xlink:href="#aM"/><use transform="matrix(0.01777777777777777,0,0,0.01777777777777777,26.791111111111103,0)" xlink:href="#aT"/><use transform="matrix(0.01777777777777777,0,0,0.01777777777777777,36.49777777777777,0)" xlink:href="#am"/><use transform="matrix(0.01777777777777777,0,0,0.01777777777777777,40.92444444444444,0)" xlink:href="#aU"/><use transform="matrix(0.01777777777777777,0,0,0.01777777777777777,51.377777777777766,0)" xlink:href="#ak"/></g><path fill="#3a414a" d="M81 0v-750h86v327c34-59 94-87 159-87 112 0 189 78 189 202V0h-85v-295c0-84-48-136-118-136-81 0-145 66-145 183V0H81" id="aV"/><path fill="#3a414a" d="M81 0v-500h86v77c29-53 84-87 151-87 75 0 129 41 154 107 27-66 90-107 164-107 109 0 175 81 175 203V0h-86v-294c0-81-34-137-99-137-81 0-137 70-137 183V0h-86v-294c0-81-33-137-98-137-81 0-138 70-138 183V0H81" id="aW"/><g id="w"><use transform="matrix(0.01777777777777777,0,0,0.01777777777777777,0,0)" xlink:href="#aP"/><use transform="matrix(0.01777777777777777,0,0,0.01777777777777777,12.231111111111106,0)" xlink:href="#aG"/><use transform="matrix(0.01777777777777777,0,0,0.01777777777777777,19.004444444444438,0)" xlink:href="#aG"/><use transform="matrix(0.01777777777777777,0,0,0.01777777777777777,25.65333333333332,0)" xlink:href="#aO"/><use transform="matrix(0.01777777777777777,0,0,0.01777777777777777,36.85333333333332,0)" xlink:href="#aU"/><use transform="matrix(0.01777777777777777,0,0,0.01777777777777777,47.30666666666664,0)" xlink:href="#aV"/><use transform="matrix(0.01777777777777777,0,0,0.01777777777777777,57.77777777777775,0)" xlink:href="#aW"/><use transform="matrix(0.01777777777777777,0,0,0.01777777777777777,73.51111111111108,0)" xlink:href="#ak"/><use transform="matrix(0.01777777777777777,0,0,0.01777777777777777,83.80444444444441,0)" xlink:href="#ao"/><use transform="matrix(0.01777777777777777,0,0,0.01777777777777777,94.16888888888886,0)" xlink:href="#aG"/></g><path fill="#3a414a" d="M509-83V0H49C34-183 174-248 287-334c82-61 126-98 126-181 0-74-53-123-130-123-78 0-146 48-147 140H48c0-136 103-224 234-224 118 0 219 70 219 208 0 104-48 164-164 248-82 60-165 101-182 183h354" id="aX"/><use transform="matrix(0.01777777777777777,0,0,0.01777777777777777,0,0)" xlink:href="#aX" id="x"/><use transform="matrix(0.017777777777777774,0,0,0.017777777777777774,0,0)" xlink:href="#aX" id="y"/><path fill="#3a414a" d="M529-199c0 125-96 209-232 209C155 10 45-85 44-216h87c5 86 78 142 166 142 79 0 144-45 144-128 1-107-91-137-208-128v-79c105 12 186-28 188-115 1-68-57-114-128-114-81 0-148 47-149 140H56c0-138 107-224 237-224 120 0 217 76 216 195-1 69-42 127-96 155 72 29 116 92 116 173" id="aY"/><use transform="matrix(0.01777777777777777,0,0,0.01777777777777777,0,0)" xlink:href="#aY" id="z"/><path fill="#016bf8" d="M46-355c0-207 160-367 368-367 168 0 296 104 336 222H647c-38-77-126-134-233-134-158 0-275 122-275 279S256-76 414-76c146 0 248-103 261-243H410v-87h360C790-147 621 12 414 12 206 12 46-148 46-355" id="aZ"/><path fill="#016bf8" d="M564-250c0 144-111 260-261 260C152 10 41-106 41-250s111-260 262-260c150 0 261 116 261 260zm-435 0c0 100 70 180 174 180s173-80 173-180-69-180-173-180-174 80-174 180" id="ba"/><path fill="#016bf8" d="M59 46h84c23 66 79 97 160 97 90 0 158-60 158-173v-59C427-39 361-1 287-1 148-1 42-113 42-256c0-142 106-254 245-254 74 0 140 37 174 87v-77h86v469c0 167-110 250-246 250-134 0-227-72-242-173zm409-302c0-100-69-175-169-175s-169 75-169 175c0 101 69 175 169 175s169-74 169-175" id="bb"/><path fill="#016bf8" d="M81 0v-750h86V0H81" id="bc"/><path fill="#016bf8" d="M528-152C503-64 421 10 294 10 148 10 42-101 42-250c0-146 98-260 254-260 157 0 252 128 240 283H129c3 91 76 159 166 159 62 0 115-24 145-84h88zm-83-143c-27-186-281-187-312 0h312" id="bd"/><g id="A"><use transform="matrix(0.01777777777777777,0,0,0.01777777777777777,0,0)" xlink:href="#aZ"/><use transform="matrix(0.01777777777777777,0,0,0.01777777777777777,14.50666666666666,0)" xlink:href="#ba"/><use transform="matrix(0.01777777777777777,0,0,0.01777777777777777,25.27999999999999,0)" xlink:href="#ba"/><use transform="matrix(0.01777777777777777,0,0,0.01777777777777777,36.05333333333332,0)" xlink:href="#bb"/><use transform="matrix(0.01777777777777777,0,0,0.01777777777777777,47.21777777777776,0)" xlink:href="#bc"/><use transform="matrix(0.01777777777777777,0,0,0.01777777777777777,51.644444444444424,0)" xlink:href="#bd"/></g><path fill="#016bf8" d="M46-355c0-207 160-367 368-367 179 0 309 117 340 246h-98c-31-89-124-158-242-158-158 0-275 122-275 279S256-76 414-76c118 0 211-69 242-158h98C723-105 593 12 414 12 206 12 46-148 46-355" id="be"/><path fill="#016bf8" d="M74-193v-307h86v294c0 84 44 137 113 137 78 0 139-68 139-183v-248h86V0h-86v-77c-33 58-91 87-154 87C148 10 74-69 74-193" id="bf"/><path fill="#016bf8" d="M42-250c0-143 105-260 245-260 75 0 143 39 176 87v-327h86V0h-86v-77c-33 48-101 87-176 87C147 10 42-107 42-250zm428 0c0-101-69-181-170-181s-171 80-171 181S199-69 300-69s170-80 170-181" id="bg"/><g id="B"><use transform="matrix(0.01777777777777777,0,0,0.01777777777777777,0,0)" xlink:href="#be"/><use transform="matrix(0.01777777777777777,0,0,0.01777777777777777,14.008888888888883,0)" xlink:href="#bc"/><use transform="matrix(0.01777777777777777,0,0,0.01777777777777777,18.43555555555555,0)" xlink:href="#ba"/><use transform="matrix(0.01777777777777777,0,0,0.01777777777777777,29.20888888888888,0)" xlink:href="#bf"/><use transform="matrix(0.01777777777777777,0,0,0.01777777777777777,39.50222222222221,0)" xlink:href="#bg"/></g><path fill="#016bf8" d="M311 0L8-710h103l240 564 239-564h101L389 0h-78" id="bh"/><path fill="#016bf8" d="M443-208L187-552V0H94v-710h85l264 354 264-354h84V0h-92v-552" id="bi"/><g id="C"><use transform="matrix(0.01777777777777777,0,0,0.01777777777777777,0,0)" xlink:href="#bh"/><use transform="matrix(0.01777777777777777,0,0,0.01777777777777777,12.462222222222218,0)" xlink:href="#bi"/></g><path fill="#016bf8" d="M145 0v-625H8l70-85h153V0h-86" id="bj"/><use transform="matrix(0.01777777777777777,0,0,0.01777777777777777,0,0)" xlink:href="#bj" id="D"/><use transform="matrix(0.017777777777777774,0,0,0.017777777777777774,0,0)" xlink:href="#aY" id="E"/><path fill="#3a414a" d="M395 0v-193H17v-69l389-448h75v436h98v81h-98V0h-86zm0-274v-306L130-274h265" id="bk"/><use transform="matrix(0.01777777777777777,0,0,0.01777777777777777,0,0)" xlink:href="#bk" id="F"/><path fill="#3a414a" d="M94 0v-710h93v622h343V0H94" id="bl"/><g id="G"><use transform="matrix(0.01777777777777777,0,0,0.01777777777777777,0,0)" xlink:href="#bl"/><use transform="matrix(0.01777777777777777,0,0,0.01777777777777777,9.457777777777775,0)" xlink:href="#an"/><use transform="matrix(0.01777777777777777,0,0,0.01777777777777777,20.231111111111105,0)" xlink:href="#aO"/><use transform="matrix(0.01777777777777777,0,0,0.01777777777777777,31.4311111111111,0)" xlink:href="#aD"/></g><path fill="#3a414a" d="M94 0v-710h233c132 0 212 88 212 188 0 70-31 117-76 145 69 25 123 75 123 170C586-89 492 0 348 0H94zm93-405h140c76 0 121-47 121-110 0-60-45-111-121-111H187v221zm0 321h165c95 0 143-50 143-120 0-69-48-121-142-121H187v241" id="bm"/><g id="H"><use transform="matrix(0.01777777777777777,0,0,0.01777777777777777,0,0)" xlink:href="#bm"/><use transform="matrix(0.01777777777777777,0,0,0.01777777777777777,11.182222222222219,0)" xlink:href="#aO"/><use transform="matrix(0.01777777777777777,0,0,0.01777777777777777,22.382222222222214,0)" xlink:href="#aA"/><use transform="matrix(0.01777777777777777,0,0,0.01777777777777777,26.808888888888877,0)" xlink:href="#aO"/><use transform="matrix(0.01777777777777777,0,0,0.01777777777777777,38.008888888888876,0)" xlink:href="#ao"/><use transform="matrix(0.01777777777777777,0,0,0.01777777777777777,48.47999999999998,0)" xlink:href="#aU"/><use transform="matrix(0.01777777777777777,0,0,0.01777777777777777,58.93333333333331,0)" xlink:href="#ak"/><use transform="matrix(0.01777777777777777,0,0,0.01777777777777777,69.22666666666663,0)" xlink:href="#aM"/></g><path fill="#6f7681" d="M94 0v-710h242c131 0 212 79 212 196 0 104-66 174-175 190L646 0H529L256-323h-69V0H94zm93-406h138c81 0 130-37 130-108 0-72-49-110-130-110H187v218" id="bn"/><path fill="#6f7681" d="M528-152C503-64 421 10 294 10 148 10 42-101 42-250c0-146 98-260 254-260 157 0 252 128 240 283H129c3 91 76 159 166 159 62 0 115-24 145-84h88zm-83-143c-27-186-281-187-312 0h312" id="bo"/><path fill="#6f7681" d="M426-135c0 99-80 145-184 145C135 10 46-44 39-145h88c12 61 64 82 116 82 54 0 96-22 96-66 0-65-95-84-155-99-86-22-129-76-129-147 0-83 72-135 173-135 107 0 173 63 182 143h-86c-13-44-49-71-96-71-48 0-86 24-86 62 0 64 100 78 156 93 83 22 128 73 128 148" id="bp"/><path fill="#6f7681" d="M81 0v-500h86v97c28-75 96-115 179-98v89c-98-29-179 27-179 164V0H81" id="bq"/><path fill="#6f7681" d="M237 0L6-500h96l171 378 171-378h96L309 0h-72" id="br"/><path fill="#6f7681" d="M42-250c0-143 105-260 245-260 75 0 143 39 176 87v-327h86V0h-86v-77c-33 48-101 87-176 87C147 10 42-107 42-250zm428 0c0-101-69-181-170-181s-171 80-171 181S199-69 300-69s170-80 170-181" id="bs"/><g id="I"><use transform="matrix(0.01777777777777777,0,0,0.01777777777777777,0,0)" xlink:href="#bn"/><use transform="matrix(0.01777777777777777,0,0,0.01777777777777777,11.022222222222219,0)" xlink:href="#bo"/><use transform="matrix(0.01777777777777777,0,0,0.01777777777777777,21.315555555555548,0)" xlink:href="#bp"/><use transform="matrix(0.01777777777777777,0,0,0.01777777777777777,29.617777777777768,0)" xlink:href="#bo"/><use transform="matrix(0.01777777777777777,0,0,0.01777777777777777,39.9111111111111,0)" xlink:href="#bq"/><use transform="matrix(0.01777777777777777,0,0,0.01777777777777777,46.41777777777776,0)" xlink:href="#br"/><use transform="matrix(0.01777777777777777,0,0,0.01777777777777777,55.928888888888864,0)" xlink:href="#bo"/><use transform="matrix(0.01777777777777777,0,0,0.01777777777777777,66.2222222222222,0)" xlink:href="#bs"/></g><use transform="matrix(0.017777777777777774,0,0,0.017777777777777774,0,0)" xlink:href="#bk" id="J"/><path fill="#3a414a" d="M36-192h88c16 67 75 118 150 118 88 0 153-68 153-152 0-85-61-153-149-153-61 0-107 29-134 72l-82-24 73-379h332v84H204l-39 203c28-21 71-37 124-37 133 0 226 105 226 245C515-90 412 10 274 10 146 10 39-83 36-192" id="bt"/><path fill="#3a414a" d="M563-257C563-99 457 10 311 10S60-99 60-257v-198c0-157 105-267 251-267s252 110 252 267v198zm-417 0c0 115 69 183 165 183 97 0 166-68 166-183v-198c0-115-69-183-166-183-96 0-165 68-165 183v198" id="bu"/><g id="K"><use transform="matrix(0.01777777777777777,0,0,0.01777777777777777,0,0)" xlink:href="#bt"/><use transform="matrix(0.01777777777777777,0,0,0.01777777777777777,9.866666666666664,0)" xlink:href="#bu"/></g><g id="L"><use transform="matrix(0.017777777777777774,0,0,0.017777777777777774,0,0)" xlink:href="#bt"/><use transform="matrix(0.017777777777777774,0,0,0.017777777777777774,9.866666666666665,0)" xlink:href="#bu"/></g><path fill="#3a414a" d="M200-67c0 41-33 75-74 75S52-26 52-67c0-40 33-75 74-75s74 35 74 75" id="bv"/><g id="M"><use transform="matrix(0.02444444444444444,0,0,0.02444444444444444,0,0)" xlink:href="#bv"/><use transform="matrix(0.02444444444444444,0,0,0.02444444444444444,6.159999999999998,0)" xlink:href="#bv"/><use transform="matrix(0.02444444444444444,0,0,0.02444444444444444,12.319999999999997,0)" xlink:href="#bv"/></g><path fill="#3a414a" d="M347 0l62-200H228L167 0H87l62-200H33v-73h139l54-171H106v-73h143l60-193h79l-60 193h180l61-193h78l-60 193h116v73H564l-53 171h120v73H487L426 0h-79zm-42-444l-53 171h180l53-171H305" id="bw"/><path fill="#3a414a" d="M65-237v-86h255v86H65" id="bx"/><path fill="#3a414a" d="M74 0l219-259C155-242 46-354 43-485c0-132 102-237 240-237s241 105 241 234c0 75-36 129-80 181L184 0H74zm57-486c0 84 65 153 152 153s153-69 153-153-66-153-153-153-152 69-152 153" id="by"/><g id="N"><use transform="matrix(0.017777777777777774,0,0,0.017777777777777774,0,0)" xlink:href="#aq"/><use transform="matrix(0.017777777777777774,0,0,0.017777777777777774,4.8888888888888875,0)" xlink:href="#bw"/><use transform="matrix(0.017777777777777774,0,0,0.017777777777777774,17.99111111111111,0)" xlink:href="#bt"/><use transform="matrix(0.017777777777777774,0,0,0.017777777777777774,27.857777777777777,0)" xlink:href="#bx"/><use transform="matrix(0.017777777777777774,0,0,0.017777777777777774,34.72,0)" xlink:href="#bw"/><use transform="matrix(0.017777777777777774,0,0,0.017777777777777774,47.82222222222222,0)" xlink:href="#bk"/><use transform="matrix(0.017777777777777774,0,0,0.017777777777777774,58.54222222222222,0)" xlink:href="#by"/><use transform="matrix(0.017777777777777774,0,0,0.017777777777777774,68.08888888888889,0)" xlink:href="#ay"/></g><path fill="#00684a" d="M6 0l314-710h77L712 0h-97l-91-207H193L102 0H6zm223-291h258L358-584" id="bz"/><path fill="#00684a" d="M352-7c-113 35-230-6-230-141v-273H16v-79h106v-139h86v139h144v79H208v262c-8 91 77 95 144 75v77" id="bA"/><path fill="#00684a" d="M81 0v-750h86V0H81" id="bB"/><path fill="#00684a" d="M42-250c0-143 105-260 245-260 75 0 143 39 176 87v-77h86V0h-86v-77c-33 48-101 87-176 87C147 10 42-107 42-250zm428 0c0-101-69-181-170-181s-171 80-171 181S199-69 300-69s170-80 170-181" id="bC"/><path fill="#00684a" d="M426-135c0 99-80 145-184 145C135 10 46-44 39-145h88c12 61 64 82 116 82 54 0 96-22 96-66 0-65-95-84-155-99-86-22-129-76-129-147 0-83 72-135 173-135 107 0 173 63 182 143h-86c-13-44-49-71-96-71-48 0-86 24-86 62 0 64 100 78 156 93 83 22 128 73 128 148" id="bD"/><g id="O"><use transform="matrix(0.01777777777777777,0,0,0.01777777777777777,0,0)" xlink:href="#bz"/><use transform="matrix(0.01777777777777777,0,0,0.01777777777777777,12.231111111111106,0)" xlink:href="#bA"/><use transform="matrix(0.01777777777777777,0,0,0.01777777777777777,19.004444444444438,0)" xlink:href="#bB"/><use transform="matrix(0.01777777777777777,0,0,0.01777777777777777,23.4311111111111,0)" xlink:href="#bC"/><use transform="matrix(0.01777777777777777,0,0,0.01777777777777777,34.631111111111096,0)" xlink:href="#bD"/></g><path fill="#00684a" d="M46-355c0-207 160-367 368-367 179 0 309 117 340 246h-98c-31-89-124-158-242-158-158 0-275 122-275 279S256-76 414-76c118 0 211-69 242-158h98C723-105 593 12 414 12 206 12 46-148 46-355" id="bE"/><path fill="#00684a" d="M74-193v-307h86v294c0 84 44 137 113 137 78 0 139-68 139-183v-248h86V0h-86v-77c-33 58-91 87-154 87C148 10 74-69 74-193" id="bF"/><path fill="#00684a" d="M528-152C503-64 421 10 294 10 148 10 42-101 42-250c0-146 98-260 254-260 157 0 252 128 240 283H129c3 91 76 159 166 159 62 0 115-24 145-84h88zm-83-143c-27-186-281-187-312 0h312" id="bG"/><path fill="#00684a" d="M81 0v-500h86v97c28-75 96-115 179-98v89c-98-29-179 27-179 164V0H81" id="bH"/><g id="P"><use transform="matrix(0.01777777777777777,0,0,0.01777777777777777,0,0)" xlink:href="#bE"/><use transform="matrix(0.01777777777777777,0,0,0.01777777777777777,14.008888888888883,0)" xlink:href="#bB"/><use transform="matrix(0.01777777777777777,0,0,0.01777777777777777,18.43555555555555,0)" xlink:href="#bF"/><use transform="matrix(0.01777777777777777,0,0,0.01777777777777777,28.72888888888888,0)" xlink:href="#bD"/><use transform="matrix(0.01777777777777777,0,0,0.01777777777777777,36.88888888888887,0)" xlink:href="#bA"/><use transform="matrix(0.01777777777777777,0,0,0.01777777777777777,43.53777777777776,0)" xlink:href="#bG"/><use transform="matrix(0.01777777777777777,0,0,0.01777777777777777,53.83111111111109,0)" xlink:href="#bH"/></g><use transform="matrix(0.01777777777777777,0,0,0.01777777777777777,0,0)" xlink:href="#bz" id="Q"/><path fill="#00684a" d="M699 0h-80L187-553V0H94v-710h81l432 553v-553h92V0" id="bI"/><path fill="#00684a" d="M564-250c0 144-111 260-261 260C152 10 41-106 41-250s111-260 262-260c150 0 261 116 261 260zm-435 0c0 100 70 180 174 180s173-80 173-180-69-180-173-180-174 80-174 180" id="bJ"/><path fill="#00684a" d="M42-250c0-143 105-260 245-260 75 0 143 39 176 87v-327h86V0h-86v-77c-33 48-101 87-176 87C147 10 42-107 42-250zm428 0c0-101-69-181-170-181s-171 80-171 181S199-69 300-69s170-80 170-181" id="bK"/><g id="R"><use transform="matrix(0.01777777777777777,0,0,0.01777777777777777,0,0)" xlink:href="#bI"/><use transform="matrix(0.01777777777777777,0,0,0.01777777777777777,13.95555555555555,0)" xlink:href="#bJ"/><use transform="matrix(0.01777777777777777,0,0,0.01777777777777777,24.728888888888882,0)" xlink:href="#bK"/><use transform="matrix(0.01777777777777777,0,0,0.01777777777777777,35.92888888888888,0)" xlink:href="#bG"/></g><path fill="#00684a" d="M145 0v-625H8l70-85h153V0h-86" id="bL"/><use transform="matrix(0.01777777777777777,0,0,0.01777777777777777,0,0)" xlink:href="#bL" id="S"/><path fill="#00684a" d="M509-83V0H49C34-183 174-248 287-334c82-61 126-98 126-181 0-74-53-123-130-123-78 0-146 48-147 140H48c0-136 103-224 234-224 118 0 219 70 219 208 0 104-48 164-164 248-82 60-165 101-182 183h354" id="bM"/><use transform="matrix(0.01777777777777777,0,0,0.01777777777777777,0,0)" xlink:href="#bM" id="T"/><path fill="#00684a" d="M529-199c0 125-96 209-232 209C155 10 45-85 44-216h87c5 86 78 142 166 142 79 0 144-45 144-128 1-107-91-137-208-128v-79c105 12 186-28 188-115 1-68-57-114-128-114-81 0-148 47-149 140H56c0-138 107-224 237-224 120 0 217 76 216 195-1 69-42 127-96 155 72 29 116 92 116 173" id="bN"/><use transform="matrix(0.01777777777777777,0,0,0.01777777777777777,0,0)" xlink:href="#bN" id="U"/><path fill="#db3030" d="M46-355c0-207 160-367 368-367 168 0 296 104 336 222H647c-38-77-126-134-233-134-158 0-275 122-275 279S256-76 414-76c146 0 248-103 261-243H410v-87h360C790-147 621 12 414 12 206 12 46-148 46-355" id="bO"/><path fill="#db3030" d="M564-250c0 144-111 260-261 260C152 10 41-106 41-250s111-260 262-260c150 0 261 116 261 260zm-435 0c0 100 70 180 174 180s173-80 173-180-69-180-173-180-174 80-174 180" id="bP"/><path fill="#db3030" d="M59 46h84c23 66 79 97 160 97 90 0 158-60 158-173v-59C427-39 361-1 287-1 148-1 42-113 42-256c0-142 106-254 245-254 74 0 140 37 174 87v-77h86v469c0 167-110 250-246 250-134 0-227-72-242-173zm409-302c0-100-69-175-169-175s-169 75-169 175c0 101 69 175 169 175s169-74 169-175" id="bQ"/><path fill="#db3030" d="M81 0v-750h86V0H81" id="bR"/><path fill="#db3030" d="M528-152C503-64 421 10 294 10 148 10 42-101 42-250c0-146 98-260 254-260 157 0 252 128 240 283H129c3 91 76 159 166 159 62 0 115-24 145-84h88zm-83-143c-27-186-281-187-312 0h312" id="bS"/><g id="V"><use transform="matrix(0.01777777777777777,0,0,0.01777777777777777,0,0)" xlink:href="#bO"/><use transform="matrix(0.01777777777777777,0,0,0.01777777777777777,14.50666666666666,0)" xlink:href="#bP"/><use transform="matrix(0.01777777777777777,0,0,0.01777777777777777,25.27999999999999,0)" xlink:href="#bP"/><use transform="matrix(0.01777777777777777,0,0,0.01777777777777777,36.05333333333332,0)" xlink:href="#bQ"/><use transform="matrix(0.01777777777777777,0,0,0.01777777777777777,47.21777777777776,0)" xlink:href="#bR"/><use transform="matrix(0.01777777777777777,0,0,0.01777777777777777,51.644444444444424,0)" xlink:href="#bS"/></g><path fill="#db3030" d="M46-355c0-207 160-367 368-367 179 0 309 117 340 246h-98c-31-89-124-158-242-158-158 0-275 122-275 279S256-76 414-76c118 0 211-69 242-158h98C723-105 593 12 414 12 206 12 46-148 46-355" id="bT"/><path fill="#db3030" d="M74-193v-307h86v294c0 84 44 137 113 137 78 0 139-68 139-183v-248h86V0h-86v-77c-33 58-91 87-154 87C148 10 74-69 74-193" id="bU"/><path fill="#db3030" d="M42-250c0-143 105-260 245-260 75 0 143 39 176 87v-327h86V0h-86v-77c-33 48-101 87-176 87C147 10 42-107 42-250zm428 0c0-101-69-181-170-181s-171 80-171 181S199-69 300-69s170-80 170-181" id="bV"/><g id="W"><use transform="matrix(0.01777777777777777,0,0,0.01777777777777777,0,0)" xlink:href="#bT"/><use transform="matrix(0.01777777777777777,0,0,0.01777777777777777,14.008888888888883,0)" xlink:href="#bR"/><use transform="matrix(0.01777777777777777,0,0,0.01777777777777777,18.43555555555555,0)" xlink:href="#bP"/><use transform="matrix(0.01777777777777777,0,0,0.01777777777777777,29.20888888888888,0)" xlink:href="#bU"/><use transform="matrix(0.01777777777777777,0,0,0.01777777777777777,39.50222222222221,0)" xlink:href="#bV"/></g><path fill="#db3030" d="M311 0L8-710h103l240 564 239-564h101L389 0h-78" id="bW"/><path fill="#db3030" d="M443-208L187-552V0H94v-710h85l264 354 264-354h84V0h-92v-552" id="bX"/><g id="X"><use transform="matrix(0.01777777777777777,0,0,0.01777777777777777,0,0)" xlink:href="#bW"/><use transform="matrix(0.01777777777777777,0,0,0.01777777777777777,12.462222222222218,0)" xlink:href="#bX"/></g><path fill="#db3030" d="M509-83V0H49C34-183 174-248 287-334c82-61 126-98 126-181 0-74-53-123-130-123-78 0-146 48-147 140H48c0-136 103-224 234-224 118 0 219 70 219 208 0 104-48 164-164 248-82 60-165 101-182 183h354" id="bY"/><use transform="matrix(0.01777777777777777,0,0,0.01777777777777777,0,0)" xlink:href="#bY" id="Y"/></defs></g></svg>