<?xml version="1.0" encoding="utf-8"?>
<!-- Generator: Adobe Illustrator 25.4.1, SVG Export Plug-In . SVG Version: 6.00 Build 0)  -->
<svg version="1.1" id="Layer_1" xmlns="http://www.w3.org/2000/svg" xmlns:xlink="http://www.w3.org/1999/xlink" x="0px" y="0px"
	 viewBox="0 0 400 266.7" style="enable-background:new 0 0 400 266.7;" xml:space="preserve">
<style type="text/css">
	.st0{fill-rule:evenodd;clip-rule:evenodd;fill:#00EF57;stroke:#000000;stroke-width:0.75;stroke-miterlimit:10;}
	.st1{fill-rule:evenodd;clip-rule:evenodd;stroke:#000000;stroke-width:0.75;stroke-miterlimit:10;}
	.st2{fill-rule:evenodd;clip-rule:evenodd;fill:#00D7FF;stroke:#000000;stroke-width:0.75;stroke-miterlimit:10;}
	.st3{fill:none;stroke:#000000;stroke-width:0.75;stroke-miterlimit:10;}
	.st4{fill-rule:evenodd;clip-rule:evenodd;fill:#DEFCF6;stroke:#000000;stroke-width:0.75;stroke-miterlimit:10;}
	.st5{fill-rule:evenodd;clip-rule:evenodd;fill:#FFFFFF;stroke:#000000;stroke-width:0.75;stroke-miterlimit:10;}
	.st6{fill:#DEFCF6;stroke:#001E2B;stroke-width:0.75;stroke-miterlimit:10;}
	.st7{font-family:'EuclidCircularA-Regular';}
	.st8{font-size:11.5796px;}
	.st9{font-size:11.608px;}
	.st10{font-size:11.5477px;}
	.st11{font-size:11.5593px;}
	.st12{font-size:11.5848px;}
	.st13{font-size:11.5169px;}
	.st14{font-size:11.5709px;}
	.st15{fill:#93FF00;stroke:#000000;stroke-width:0.68;stroke-miterlimit:10;}
	.st16{fill:#00EE57;stroke:#000000;stroke-width:0.68;stroke-miterlimit:10;}
	.st17{fill:#FFFFFF;stroke:#000000;stroke-width:0.68;stroke-miterlimit:10;}
	.st18{fill:none;stroke:#000000;stroke-width:0.68;stroke-miterlimit:10;}
	.st19{stroke:#000000;stroke-width:0.68;stroke-miterlimit:10;}
	.st20{enable-background:new    ;}
	.st21{stroke:#000000;stroke-width:0.75;stroke-miterlimit:10;}
	.st22{fill:#00467E;stroke:#000000;stroke-width:0.75;stroke-miterlimit:10;}
	.st23{fill:#FFFEF8;}
	.st24{fill:#00EF57;}
</style>
<path class="st0" d="M397,265.4H7.1c0-107.7,87.3-195,195-195S397,157.8,397,265.4L397,265.4z"/>
<path class="st1" d="M165.7,45.7h-32.9c-2.2,0-4-1.8-4-4l0,0V8.8c0-2.2,1.8-4,4-4h32.9c2.2,0,4,1.8,4,4v32.9
	C169.7,43.9,167.9,45.7,165.7,45.7L165.7,45.7z"/>
<path class="st2" d="M165.7,43.1h-32.9c-2.2,0-4-1.8-4-4V6.2c0-2.2,1.8-4,4-4h32.9c2.2,0,4,1.8,4,4v32.9
	C169.7,41.3,167.9,43.1,165.7,43.1z"/>
<path class="st1" d="M218.5,45.7h-32.9c-2.2,0-4-1.8-4-4l0,0V8.8c0-2.2,1.8-4,4-4h32.9c2.2,0,4,1.8,4,4v32.9
	C222.4,43.9,220.7,45.7,218.5,45.7L218.5,45.7z"/>
<path class="st2" d="M218.5,43.1h-32.9c-2.2,0-4-1.8-4-4V6.2c0-2.2,1.8-4,4-4h32.9c2.2,0,4,1.8,4,4v32.9
	C222.4,41.3,220.7,43.1,218.5,43.1z"/>
<path class="st1" d="M270.9,45.7h-33c-2.2,0-4-1.8-4-4l0,0V8.8c0-2.2,1.8-4,4-4h33c2.2,0,4,1.8,4,4v32.9
	C274.9,43.9,273.1,45.7,270.9,45.7L270.9,45.7z"/>
<path class="st2" d="M270.9,43.1h-33c-2.2,0-4-1.8-4-4V6.2c0-2.2,1.8-4,4-4h33c2.2,0,4,1.8,4,4v32.9
	C274.9,41.3,273.1,43.1,270.9,43.1z"/>
<line class="st3" x1="202.1" y1="45.7" x2="202.1" y2="70.5"/>
<path class="st3" d="M148.5,45.7V53c0,2.8,2.3,5.1,5.1,5.1c0,0,0,0,0,0h95.7c2.8,0,5.1-2.3,5.1-5.1v-7.6"/>
<path class="st4" d="M362.5,265.4H43.1c0.8-88.2,73-159.1,161.2-158.3C291.3,108,361.7,178.3,362.5,265.4z"/>
<path class="st5" d="M325.7,265.4H79.2c0.7-68,56.4-122.6,124.5-121.9C270.8,144.2,325,198.4,325.7,265.4L325.7,265.4z"/>
<circle class="st6" cx="108.3" cy="136.3" r="8.9"/>
<circle class="st6" cx="50.2" cy="216.5" r="8.9"/>
<circle class="st6" cx="202.5" cy="105.9" r="8.9"/>
<circle class="st6" cx="296.6" cy="136.8" r="8.9"/>
<circle class="st6" cx="354.7" cy="216.4" r="8.9"/>
<text transform="matrix(0.9029 -0.4299 0.4299 0.9029 124.0238 109.4996)" class="st7 st8">D</text>
<text transform="matrix(0.9208 -0.3899 0.3899 0.9208 131.4881 105.9524)" class="st7 st8">o</text>
<text transform="matrix(0.9355 -0.3533 0.3533 0.9355 137.9056 103.2402)" class="st7 st8">c</text>
<text transform="matrix(0.9477 -0.3192 0.3192 0.9477 144.2059 100.8713)" class="st7 st9">u</text>
<text transform="matrix(0.9627 -0.2707 0.2707 0.9627 150.4655 98.7269)" class="st7 st10">m</text>
<text transform="matrix(0.9746 -0.2238 0.2238 0.9746 160.2716 96.0148)" class="st7 st8">e</text>
<text transform="matrix(0.9817 -0.1903 0.1903 0.9817 166.7423 94.5189)" class="st7 st11">n</text>
<text transform="matrix(0.9879 -0.1549 0.1549 0.9879 173.3207 93.2894)" class="st7 st8">t</text>
<text transform="matrix(0.9952 -9.810398e-02 9.810398e-02 0.9952 180.3212 92.1915)" class="st7 st8">M</text>
<text transform="matrix(0.9987 -5.024432e-02 5.024432e-02 0.9987 190.3384 91.2367)" class="st7 st8">o</text>
<text transform="matrix(0.9999 -1.623085e-02 1.623085e-02 0.9999 197.313 90.9061)" class="st7 st8">d</text>
<text transform="matrix(0.9996 2.998651e-02 -2.998651e-02 0.9996 204.5117 90.8123)" class="st7 st12">e</text>
<text transform="matrix(0.9985 5.547298e-02 -5.547298e-02 0.9985 211.1815 91.025)" class="st7 st8">l</text>
<text transform="matrix(0.9946 0.1033 -0.1033 0.9946 216.7409 91.3307)" class="st7 st8">&amp;</text>
<text transform="matrix(0.986 0.1668 -0.1668 0.986 227.9488 92.587)" class="st7 st8">U</text>
<text transform="matrix(0.978 0.2088 -0.2088 0.978 236.0622 93.978)" class="st7 st8">n</text>
<text transform="matrix(0.9719 0.2355 -0.2355 0.9719 242.6529 95.4072)" class="st7 st8">i</text>
<text transform="matrix(0.9652 0.2614 -0.2614 0.9652 245.4171 96.0421)" class="st7 st13">fi</text>
<text transform="matrix(0.9536 0.3012 -0.3012 0.9536 252.2464 97.9068)" class="st7 st8">e</text>
<text transform="matrix(0.9408 0.3391 -0.3391 0.9408 258.5719 99.905)" class="st7 st8">d</text>
<text transform="matrix(0.9207 0.3903 -0.3903 0.9207 267.5705 103.2002)" class="st7 st14">A</text>
<text transform="matrix(0.9018 0.4322 -0.4322 0.9018 275.1278 106.4426)" class="st7 st8">P</text>
<text transform="matrix(0.8889 0.458 -0.458 0.8889 281.2152 109.3948)" class="st7 st8">I</text>
<ellipse class="st15" cx="202.1" cy="227.8" rx="18.4" ry="7.4"/>
<path class="st16" d="M183.6,212.7v15.1c0,4.1,8.2,7.4,18.4,7.4c10.2,0,18.4-3.3,18.4-7.4v-15.1L183.6,212.7z"/>
<ellipse class="st17" cx="202.1" cy="212.7" rx="18.4" ry="7.4"/>
<path class="st18" d="M220.4,220.5c0,4.1-8.2,7.4-18.4,7.4c-10.2,0-18.4-3.3-18.4-7.4"/>
<path d="M214.8,218v15.1c0,0,5.8-2.1,5.8-5.1v-15.4c0,0,0.3,1.7-2.2,3.5C217.3,217,216.1,217.6,214.8,218z"/>
<ellipse class="st15" cx="202.1" cy="205.1" rx="18.4" ry="7.4"/>
<path class="st15" d="M198.8,210v4c0,0.8,1.5,1.5,3.3,1.5c1.9,0,3.3-0.6,3.3-1.4v-4L198.8,210z"/>
<path class="st16" d="M183.7,190v15.1c0,4.1,8.2,7.4,18.4,7.4c10.2,0,18.5-3.3,18.5-7.4V190L183.7,190z"/>
<ellipse class="st17" cx="202.1" cy="190" rx="18.4" ry="7.4"/>
<path class="st15" d="M198.8,187.4v4c0,0.8,1.5,1.5,3.3,1.5c1.9,0,3.3-0.6,3.3-1.4v-4L198.8,187.4z"/>
<path class="st16" d="M183.7,167.5v15.1c0,4.1,8.2,7.4,18.4,7.4c10.2,0,18.5-3.3,18.5-7.4v-15.1L183.7,167.5z"/>
<ellipse class="st17" cx="202.1" cy="167.5" rx="18.4" ry="7.4"/>
<path class="st18" d="M220.5,175c0,4.1-8.2,7.4-18.4,7.4s-18.5-3.3-18.5-7.4"/>
<path class="st18" d="M220.5,197.8c0,4.1-8.2,7.4-18.4,7.4c-10.2,0-18.5-3.3-18.5-7.4"/>
<path class="st19" d="M203.1,190v2.6c0,0,2.3-0.3,2.3-1.3V190H203.1z"/>
<path class="st19" d="M203.1,212.6v2.6c0,0,2.3-0.3,2.3-1.3v-1.3H203.1z"/>
<path d="M214.8,172.9v15.1c0,0,5.7-2.1,5.7-5.1v-15.3c0,0,0.3,1.7-2.2,3.5C217.3,171.8,216.1,172.4,214.8,172.9z"/>
<path d="M214.8,195.4v15.1c0,0,5.7-2.1,5.7-5.1V190c0,0,0.3,1.7-2.2,3.5C217.3,194.4,216.1,195,214.8,195.4z"/>
<g class="st20">
	<path d="M108.5,252.1c-0.3,0-0.6,0-0.8-0.1c-0.2-0.1-0.5-0.2-0.6-0.4c-0.2-0.2-0.3-0.3-0.4-0.5s-0.1-0.4-0.2-0.6h0.8
		c0,0.2,0.1,0.3,0.1,0.4c0.1,0.1,0.2,0.2,0.3,0.3c0.1,0.1,0.2,0.1,0.4,0.2c0.1,0,0.3,0.1,0.4,0.1c0.2,0,0.3,0,0.4-0.1
		c0.1,0,0.2-0.1,0.3-0.2c0.1-0.1,0.2-0.2,0.2-0.3s0.1-0.2,0.1-0.4c0-0.4-0.3-0.8-0.8-1l-0.8-0.3c-0.5-0.2-0.8-0.4-1-0.6
		c-0.2-0.3-0.3-0.6-0.3-1c0-0.2,0-0.4,0.1-0.6c0.1-0.2,0.2-0.3,0.4-0.5s0.3-0.2,0.6-0.3c0.2-0.1,0.5-0.1,0.7-0.1
		c0.3,0,0.6,0,0.8,0.1c0.2,0.1,0.4,0.2,0.6,0.4c0.1,0.1,0.3,0.3,0.4,0.5c0.1,0.2,0.1,0.4,0.2,0.6h-0.8c-0.1-0.3-0.2-0.5-0.4-0.7
		c-0.2-0.1-0.4-0.2-0.7-0.2c-0.3,0-0.5,0.1-0.7,0.2c-0.2,0.1-0.3,0.3-0.3,0.6s0.1,0.4,0.2,0.6c0.1,0.1,0.3,0.3,0.6,0.4l0.7,0.3
		c0.4,0.2,0.8,0.4,1,0.6c0.2,0.3,0.4,0.6,0.4,1.1c0,0.2,0,0.5-0.1,0.7c-0.1,0.2-0.2,0.4-0.4,0.5c-0.2,0.1-0.4,0.2-0.6,0.3
		C109,252.1,108.8,252.1,108.5,252.1z"/>
	<path d="M113.1,252.1c-0.3,0-0.6-0.1-0.8-0.2c-0.3-0.1-0.5-0.3-0.7-0.4c-0.2-0.2-0.3-0.4-0.4-0.7c-0.1-0.3-0.2-0.5-0.2-0.8
		c0-0.3,0-0.6,0.1-0.8c0.1-0.3,0.2-0.5,0.4-0.7c0.2-0.2,0.4-0.3,0.7-0.5c0.3-0.1,0.5-0.2,0.9-0.2s0.6,0.1,0.9,0.2
		c0.3,0.1,0.5,0.3,0.6,0.5c0.2,0.2,0.3,0.5,0.4,0.7s0.1,0.6,0.1,0.9h-3.3c0,0.2,0,0.4,0.1,0.5c0.1,0.2,0.2,0.3,0.3,0.4
		c0.1,0.1,0.3,0.2,0.4,0.3s0.3,0.1,0.5,0.1c0.3,0,0.5-0.1,0.7-0.2c0.2-0.1,0.4-0.3,0.5-0.5h0.7c0,0.2-0.1,0.4-0.2,0.5
		c-0.1,0.2-0.2,0.3-0.4,0.4c-0.2,0.1-0.3,0.2-0.6,0.3C113.6,252.1,113.4,252.1,113.1,252.1z M113.1,248.5c-0.1,0-0.3,0-0.4,0.1
		c-0.1,0-0.3,0.1-0.4,0.2s-0.2,0.2-0.3,0.4s-0.1,0.3-0.2,0.5h2.6c-0.1-0.4-0.2-0.7-0.4-0.9C113.7,248.6,113.4,248.5,113.1,248.5z"/>
	<path d="M117.9,252.1c-0.3,0-0.6-0.1-0.9-0.2s-0.5-0.3-0.7-0.5c-0.2-0.2-0.3-0.4-0.4-0.7c-0.1-0.3-0.2-0.5-0.2-0.8
		c0-0.3,0.1-0.6,0.2-0.8c0.1-0.3,0.3-0.5,0.4-0.7c0.2-0.2,0.4-0.3,0.7-0.5c0.3-0.1,0.5-0.2,0.9-0.2c0.3,0,0.5,0,0.7,0.1
		c0.2,0.1,0.4,0.2,0.6,0.3c0.2,0.1,0.3,0.3,0.5,0.5c0.1,0.2,0.2,0.4,0.3,0.6h-0.8c-0.1-0.3-0.3-0.5-0.5-0.6
		c-0.2-0.2-0.5-0.2-0.8-0.2c-0.2,0-0.4,0-0.6,0.1c-0.2,0.1-0.3,0.2-0.4,0.3c-0.1,0.1-0.2,0.3-0.3,0.5c-0.1,0.2-0.1,0.4-0.1,0.6
		c0,0.2,0,0.4,0.1,0.6s0.2,0.3,0.3,0.5c0.1,0.1,0.3,0.2,0.4,0.3c0.2,0.1,0.4,0.1,0.6,0.1c0.3,0,0.6-0.1,0.8-0.2s0.4-0.4,0.5-0.6h0.8
		c-0.1,0.2-0.2,0.4-0.3,0.6s-0.3,0.3-0.5,0.5c-0.2,0.1-0.4,0.2-0.6,0.3C118.4,252.1,118.2,252.1,117.9,252.1z"/>
	<path d="M122.4,252.1c-0.2,0-0.4,0-0.6-0.1s-0.3-0.2-0.5-0.3s-0.2-0.3-0.3-0.5c-0.1-0.2-0.1-0.4-0.1-0.7v-2.5h0.7v2.4
		c0,0.3,0.1,0.6,0.2,0.8c0.2,0.2,0.4,0.3,0.7,0.3c0.2,0,0.3,0,0.4-0.1c0.1-0.1,0.3-0.2,0.4-0.3c0.1-0.1,0.2-0.3,0.2-0.5
		c0.1-0.2,0.1-0.4,0.1-0.6v-2h0.7v4.1h-0.7v-0.6c-0.1,0.2-0.3,0.4-0.5,0.5C122.9,252,122.6,252.1,122.4,252.1z"/>
</g>
<g class="st20">
	<path d="M125.7,247.9h0.7v0.8c0-0.1,0.1-0.2,0.2-0.4c0.1-0.1,0.2-0.2,0.3-0.3c0.1-0.1,0.2-0.1,0.3-0.2c0.1,0,0.2-0.1,0.4-0.1
		c0.1,0,0.2,0,0.3,0v0.7c-0.1,0-0.1,0-0.2-0.1c-0.1,0-0.1,0-0.2,0c-0.1,0-0.3,0-0.4,0.1c-0.1,0.1-0.2,0.1-0.3,0.3
		c-0.1,0.1-0.2,0.3-0.2,0.4c-0.1,0.2-0.1,0.4-0.1,0.6v2h-0.7V247.9z"/>
</g>
<g class="st20">
	<path d="M130.3,252.1c-0.3,0-0.6-0.1-0.8-0.2c-0.3-0.1-0.5-0.3-0.7-0.4c-0.2-0.2-0.3-0.4-0.4-0.7c-0.1-0.3-0.2-0.5-0.2-0.8
		c0-0.3,0-0.6,0.1-0.8c0.1-0.3,0.2-0.5,0.4-0.7c0.2-0.2,0.4-0.3,0.7-0.5c0.3-0.1,0.5-0.2,0.9-0.2s0.6,0.1,0.9,0.2
		c0.3,0.1,0.5,0.3,0.6,0.5c0.2,0.2,0.3,0.5,0.4,0.7s0.1,0.6,0.1,0.9h-3.3c0,0.2,0,0.4,0.1,0.5c0.1,0.2,0.2,0.3,0.3,0.4
		c0.1,0.1,0.3,0.2,0.4,0.3s0.3,0.1,0.5,0.1c0.3,0,0.5-0.1,0.7-0.2c0.2-0.1,0.4-0.3,0.5-0.5h0.7c0,0.2-0.1,0.4-0.2,0.5
		c-0.1,0.2-0.2,0.3-0.4,0.4c-0.2,0.1-0.3,0.2-0.6,0.3C130.8,252.1,130.5,252.1,130.3,252.1z M130.2,248.5c-0.1,0-0.3,0-0.4,0.1
		c-0.1,0-0.3,0.1-0.4,0.2s-0.2,0.2-0.3,0.4s-0.1,0.3-0.2,0.5h2.6c-0.1-0.4-0.2-0.7-0.4-0.9C130.8,248.6,130.5,248.5,130.2,248.5z"/>
	<path d="M138.2,250.7c-0.2,0-0.3,0-0.4-0.1c-0.1-0.1-0.3-0.1-0.4-0.2s-0.2-0.2-0.2-0.4c-0.1-0.1-0.1-0.3-0.1-0.4s0-0.3,0.1-0.4
		s0.1-0.3,0.2-0.4c0.1-0.1,0.2-0.2,0.4-0.2c0.1-0.1,0.3-0.1,0.4-0.1c0.2,0,0.3,0,0.4,0.1c0.1,0.1,0.3,0.1,0.4,0.2
		c0.1,0.1,0.2,0.2,0.2,0.4s0.1,0.3,0.1,0.4s0,0.3-0.1,0.4c-0.1,0.1-0.1,0.3-0.2,0.4c-0.1,0.1-0.2,0.2-0.4,0.2
		C138.5,250.6,138.4,250.7,138.2,250.7z"/>
</g>
<g class="st20">
	<path d="M147.3,252.1c-0.4,0-0.8-0.1-1.2-0.2c-0.4-0.2-0.7-0.4-1-0.6c-0.3-0.3-0.5-0.6-0.6-1c-0.2-0.4-0.2-0.8-0.2-1.2
		c0-0.4,0.1-0.8,0.2-1.2c0.2-0.4,0.4-0.7,0.6-1c0.3-0.3,0.6-0.5,1-0.6c0.4-0.2,0.8-0.2,1.2-0.2c0.3,0,0.7,0,1,0.1
		c0.3,0.1,0.6,0.2,0.8,0.4c0.2,0.2,0.4,0.4,0.6,0.6c0.2,0.2,0.3,0.5,0.4,0.7h-0.8c-0.2-0.3-0.4-0.6-0.7-0.8
		c-0.3-0.2-0.7-0.3-1.2-0.3c-0.3,0-0.6,0.1-0.9,0.2c-0.3,0.1-0.5,0.3-0.7,0.5c-0.2,0.2-0.4,0.4-0.5,0.7c-0.1,0.3-0.2,0.6-0.2,0.9
		s0.1,0.6,0.2,0.9c0.1,0.3,0.3,0.5,0.5,0.7c0.2,0.2,0.4,0.4,0.7,0.5c0.3,0.1,0.6,0.2,0.9,0.2c0.3,0,0.6,0,0.8-0.1
		c0.2-0.1,0.5-0.2,0.6-0.4c0.2-0.2,0.3-0.4,0.4-0.6s0.2-0.5,0.2-0.8h-2.2v-0.7h2.9c0,0.5,0,1-0.2,1.4c-0.1,0.4-0.3,0.8-0.6,1.1
		c-0.3,0.3-0.6,0.5-1,0.7C148.1,252,147.7,252.1,147.3,252.1z"/>
	<path d="M151.2,245.9h0.7v6.1h-0.7V245.9z"/>
</g>
<g class="st20">
	<path d="M155.1,252.1c-0.3,0-0.6-0.1-0.9-0.2s-0.5-0.3-0.7-0.5c-0.2-0.2-0.3-0.4-0.4-0.7c-0.1-0.3-0.2-0.5-0.2-0.8
		c0-0.3,0.1-0.6,0.2-0.8c0.1-0.3,0.3-0.5,0.4-0.7c0.2-0.2,0.4-0.3,0.7-0.5c0.3-0.1,0.5-0.2,0.9-0.2c0.3,0,0.6,0.1,0.9,0.2
		c0.3,0.1,0.5,0.3,0.7,0.5c0.2,0.2,0.3,0.4,0.4,0.7c0.1,0.3,0.2,0.5,0.2,0.8c0,0.3-0.1,0.6-0.2,0.8c-0.1,0.3-0.3,0.5-0.4,0.7
		c-0.2,0.2-0.4,0.3-0.7,0.5S155.4,252.1,155.1,252.1z M155.1,251.4c0.2,0,0.4,0,0.6-0.1c0.2-0.1,0.3-0.2,0.4-0.3s0.2-0.3,0.3-0.5
		c0.1-0.2,0.1-0.4,0.1-0.6c0-0.2,0-0.4-0.1-0.6c-0.1-0.2-0.2-0.3-0.3-0.5c-0.1-0.1-0.3-0.2-0.4-0.3c-0.2-0.1-0.4-0.1-0.6-0.1
		c-0.2,0-0.4,0-0.6,0.1c-0.2,0.1-0.3,0.2-0.4,0.3c-0.1,0.1-0.2,0.3-0.3,0.5s-0.1,0.4-0.1,0.6c0,0.2,0,0.4,0.1,0.6
		c0.1,0.2,0.2,0.3,0.3,0.5c0.1,0.1,0.3,0.2,0.4,0.3C154.7,251.4,154.9,251.4,155.1,251.4z"/>
	<path d="M160.4,252.1c-0.3,0-0.6-0.1-0.9-0.2c-0.3-0.1-0.5-0.3-0.6-0.5v0.6h-0.7v-6.1h0.7v2.7c0.1-0.2,0.3-0.4,0.6-0.5
		c0.3-0.1,0.5-0.2,0.9-0.2c0.3,0,0.5,0.1,0.8,0.2c0.2,0.1,0.5,0.3,0.6,0.5c0.2,0.2,0.3,0.4,0.4,0.7c0.1,0.3,0.2,0.5,0.2,0.8
		c0,0.3-0.1,0.6-0.2,0.8c-0.1,0.3-0.2,0.5-0.4,0.7c-0.2,0.2-0.4,0.3-0.6,0.5C160.9,252,160.6,252.1,160.4,252.1z M160.3,251.5
		c0.2,0,0.4,0,0.6-0.1s0.3-0.2,0.4-0.3c0.1-0.1,0.2-0.3,0.3-0.5c0.1-0.2,0.1-0.4,0.1-0.6c0-0.2,0-0.4-0.1-0.6
		c-0.1-0.2-0.2-0.3-0.3-0.5s-0.3-0.2-0.4-0.3s-0.4-0.1-0.6-0.1c-0.2,0-0.4,0-0.6,0.1c-0.2,0.1-0.3,0.2-0.4,0.3
		c-0.1,0.1-0.2,0.3-0.3,0.5c-0.1,0.2-0.1,0.4-0.1,0.6c0,0.2,0,0.4,0.1,0.6c0.1,0.2,0.2,0.3,0.3,0.5c0.1,0.1,0.3,0.2,0.4,0.3
		C159.9,251.4,160,251.5,160.3,251.5z"/>
	<path d="M165.1,252.1c-0.3,0-0.6-0.1-0.8-0.2s-0.5-0.3-0.6-0.5c-0.2-0.2-0.3-0.4-0.4-0.7c-0.1-0.3-0.2-0.5-0.2-0.8
		c0-0.3,0.1-0.6,0.2-0.8c0.1-0.3,0.2-0.5,0.4-0.7c0.2-0.2,0.4-0.3,0.6-0.5c0.2-0.1,0.5-0.2,0.8-0.2c0.3,0,0.6,0.1,0.9,0.2
		c0.3,0.1,0.5,0.3,0.6,0.5v-0.6h0.7v4.1h-0.7v-0.6c-0.1,0.2-0.3,0.4-0.6,0.5C165.6,252,165.4,252.1,165.1,252.1z M165.2,251.5
		c0.2,0,0.4,0,0.6-0.1c0.2-0.1,0.3-0.2,0.4-0.3c0.1-0.1,0.2-0.3,0.3-0.5c0.1-0.2,0.1-0.4,0.1-0.6c0-0.2,0-0.4-0.1-0.6
		c-0.1-0.2-0.2-0.3-0.3-0.5c-0.1-0.1-0.3-0.2-0.4-0.3c-0.2-0.1-0.4-0.1-0.6-0.1c-0.2,0-0.4,0-0.6,0.1s-0.3,0.2-0.4,0.3
		c-0.1,0.1-0.2,0.3-0.3,0.5c-0.1,0.2-0.1,0.4-0.1,0.6c0,0.2,0,0.4,0.1,0.6s0.2,0.3,0.3,0.5c0.1,0.1,0.3,0.2,0.4,0.3
		S165,251.5,165.2,251.5z"/>
	<path d="M168.5,245.9h0.7v6.1h-0.7V245.9z"/>
</g>
<g class="st20">
	<path d="M174.2,252.1c-0.3,0-0.5,0-0.7-0.1c-0.2-0.1-0.4-0.2-0.6-0.3s-0.3-0.3-0.4-0.5c-0.1-0.2-0.1-0.4-0.1-0.7
		c0-0.2,0-0.4,0.1-0.6c0.1-0.2,0.2-0.3,0.3-0.4s0.2-0.2,0.4-0.4c0.1-0.1,0.3-0.2,0.5-0.3l0,0c-0.1-0.1-0.2-0.2-0.3-0.3
		s-0.2-0.2-0.2-0.3s-0.1-0.2-0.2-0.3c0-0.1-0.1-0.3-0.1-0.4c0-0.2,0-0.4,0.1-0.5c0.1-0.2,0.2-0.3,0.3-0.4c0.1-0.1,0.3-0.2,0.5-0.3
		c0.2-0.1,0.4-0.1,0.6-0.1c0.2,0,0.4,0,0.6,0.1c0.2,0.1,0.3,0.2,0.5,0.3c0.1,0.1,0.2,0.3,0.3,0.4c0.1,0.2,0.1,0.3,0.1,0.5
		c0,0.2,0,0.3-0.1,0.5s-0.1,0.3-0.3,0.4c-0.1,0.1-0.2,0.2-0.4,0.3c-0.1,0.1-0.3,0.2-0.4,0.2l1.2,1.2l0.7-0.9h0.8l-1,1.3l1.5,1.5H177
		l-1-1c-0.2,0.2-0.3,0.3-0.4,0.5c-0.1,0.1-0.3,0.2-0.4,0.3s-0.3,0.1-0.5,0.2C174.5,252.1,174.4,252.1,174.2,252.1z M174.2,251.5
		c0.3,0,0.5-0.1,0.7-0.2s0.4-0.4,0.7-0.6l-1.4-1.4l-0.1,0.1c-0.3,0.2-0.5,0.3-0.7,0.5c-0.2,0.2-0.2,0.4-0.2,0.7c0,0.2,0,0.3,0.1,0.4
		c0.1,0.1,0.1,0.2,0.2,0.3c0.1,0.1,0.2,0.2,0.4,0.2C173.9,251.4,174.1,251.5,174.2,251.5z M173.7,247.4c0,0.2,0.1,0.4,0.2,0.5
		s0.3,0.3,0.5,0.5l0,0c0.1-0.1,0.2-0.1,0.3-0.2c0.1-0.1,0.2-0.1,0.3-0.2c0.1-0.1,0.1-0.2,0.2-0.2s0.1-0.2,0.1-0.3
		c0-0.2-0.1-0.4-0.2-0.6c-0.1-0.1-0.3-0.2-0.5-0.2c-0.1,0-0.2,0-0.3,0c-0.1,0-0.2,0.1-0.2,0.1c-0.1,0.1-0.1,0.1-0.2,0.2
		C173.7,247.2,173.7,247.3,173.7,247.4z"/>
</g>
<g class="st20">
	<path d="M181.3,246.2l2.2,2.9l2.2-2.9h0.7v5.8h-0.8v-4.5l-2.1,2.8l-2.1-2.8v4.5h-0.8v-5.8H181.3z"/>
</g>
<g class="st20">
	<path d="M189.2,252.1c-0.2,0-0.4,0-0.6-0.1s-0.3-0.2-0.5-0.3s-0.2-0.3-0.3-0.5c-0.1-0.2-0.1-0.4-0.1-0.7v-2.5h0.7v2.4
		c0,0.3,0.1,0.6,0.2,0.8c0.2,0.2,0.4,0.3,0.7,0.3c0.2,0,0.3,0,0.4-0.1c0.1-0.1,0.3-0.2,0.4-0.3c0.1-0.1,0.2-0.3,0.2-0.5
		c0.1-0.2,0.1-0.4,0.1-0.6v-2h0.7v4.1h-0.7v-0.6c-0.1,0.2-0.3,0.4-0.5,0.5C189.7,252,189.5,252.1,189.2,252.1z"/>
	<path d="M192.5,245.9h0.7v6.1h-0.7V245.9z"/>
	<path d="M196.1,252.1c-0.2,0-0.3,0-0.5-0.1c-0.2-0.1-0.3-0.1-0.4-0.2s-0.2-0.2-0.3-0.4s-0.1-0.3-0.1-0.6v-2.2H194v-0.6h0.9v-1.1
		h0.7v1.1h1.2v0.6h-1.2v2.1c0,0.3,0.1,0.4,0.2,0.5c0.1,0.1,0.3,0.2,0.5,0.2c0.1,0,0.2,0,0.3,0c0.1,0,0.2,0,0.2-0.1v0.6
		c-0.1,0-0.2,0.1-0.3,0.1C196.4,252,196.3,252.1,196.1,252.1z"/>
	<path d="M198,246.8c-0.1,0-0.3,0-0.4-0.1s-0.1-0.2-0.1-0.4c0-0.1,0-0.3,0.1-0.4c0.1-0.1,0.2-0.1,0.4-0.1c0.1,0,0.3,0,0.4,0.1
		c0.1,0.1,0.1,0.2,0.1,0.4c0,0.1,0,0.3-0.1,0.4S198.2,246.8,198,246.8z M197.7,247.9h0.7v4.1h-0.7V247.9z"/>
	<path d="M204.4,252.1c-0.4,0-0.8-0.1-1.2-0.2s-0.7-0.4-1-0.6c-0.3-0.3-0.5-0.6-0.6-1s-0.2-0.8-0.2-1.2c0-0.4,0.1-0.8,0.2-1.2
		s0.4-0.7,0.6-1c0.3-0.3,0.6-0.5,1-0.6s0.8-0.2,1.2-0.2c0.4,0,0.7,0.1,1,0.2c0.3,0.1,0.6,0.3,0.8,0.4c0.2,0.2,0.4,0.4,0.6,0.6
		s0.3,0.5,0.3,0.8h-0.8c-0.1-0.2-0.2-0.3-0.3-0.5s-0.3-0.3-0.4-0.4c-0.2-0.1-0.4-0.2-0.6-0.3c-0.2-0.1-0.4-0.1-0.7-0.1
		c-0.3,0-0.6,0.1-0.9,0.2c-0.3,0.1-0.5,0.3-0.7,0.5c-0.2,0.2-0.4,0.4-0.5,0.7c-0.1,0.3-0.2,0.6-0.2,0.9s0.1,0.6,0.2,0.9
		s0.3,0.5,0.5,0.7c0.2,0.2,0.4,0.4,0.7,0.5c0.3,0.1,0.6,0.2,0.9,0.2c0.2,0,0.5,0,0.7-0.1c0.2-0.1,0.4-0.2,0.6-0.3
		c0.2-0.1,0.3-0.3,0.4-0.4s0.2-0.3,0.3-0.5h0.8c-0.1,0.3-0.2,0.5-0.3,0.8s-0.4,0.5-0.6,0.6c-0.2,0.2-0.5,0.3-0.8,0.4
		C205.1,252.1,204.8,252.1,204.4,252.1z"/>
	<path d="M208.1,245.9h0.7v6.1h-0.7V245.9z"/>
	<path d="M212,252.1c-0.3,0-0.6-0.1-0.9-0.2s-0.5-0.3-0.7-0.5c-0.2-0.2-0.3-0.4-0.4-0.7c-0.1-0.3-0.2-0.5-0.2-0.8
		c0-0.3,0.1-0.6,0.2-0.8c0.1-0.3,0.3-0.5,0.4-0.7c0.2-0.2,0.4-0.3,0.7-0.5c0.3-0.1,0.5-0.2,0.9-0.2c0.3,0,0.6,0.1,0.9,0.2
		c0.3,0.1,0.5,0.3,0.7,0.5c0.2,0.2,0.3,0.4,0.4,0.7c0.1,0.3,0.2,0.5,0.2,0.8c0,0.3-0.1,0.6-0.2,0.8c-0.1,0.3-0.3,0.5-0.4,0.7
		c-0.2,0.2-0.4,0.3-0.7,0.5S212.3,252.1,212,252.1z M212,251.4c0.2,0,0.4,0,0.6-0.1c0.2-0.1,0.3-0.2,0.4-0.3
		c0.1-0.1,0.2-0.3,0.3-0.5c0.1-0.2,0.1-0.4,0.1-0.6c0-0.2,0-0.4-0.1-0.6c-0.1-0.2-0.2-0.3-0.3-0.5c-0.1-0.1-0.3-0.2-0.4-0.3
		s-0.4-0.1-0.6-0.1c-0.2,0-0.4,0-0.6,0.1s-0.3,0.2-0.5,0.3c-0.1,0.1-0.2,0.3-0.3,0.5s-0.1,0.4-0.1,0.6c0,0.2,0,0.4,0.1,0.6
		c0.1,0.2,0.2,0.3,0.3,0.5c0.1,0.1,0.3,0.2,0.5,0.3C211.6,251.4,211.8,251.4,212,251.4z"/>
	<path d="M216.6,252.1c-0.2,0-0.4,0-0.6-0.1c-0.2-0.1-0.3-0.2-0.5-0.3s-0.2-0.3-0.3-0.5c-0.1-0.2-0.1-0.4-0.1-0.7v-2.5h0.7v2.4
		c0,0.3,0.1,0.6,0.2,0.8c0.2,0.2,0.4,0.3,0.7,0.3c0.2,0,0.3,0,0.4-0.1c0.1-0.1,0.3-0.2,0.4-0.3s0.2-0.3,0.2-0.5
		c0.1-0.2,0.1-0.4,0.1-0.6v-2h0.7v4.1h-0.7v-0.6c-0.1,0.2-0.3,0.4-0.5,0.5S216.8,252.1,216.6,252.1z"/>
	<path d="M221.5,252.1c-0.3,0-0.6-0.1-0.8-0.2s-0.5-0.3-0.6-0.5s-0.3-0.4-0.4-0.7c-0.1-0.3-0.2-0.5-0.2-0.8c0-0.3,0-0.6,0.2-0.8
		c0.1-0.3,0.2-0.5,0.4-0.7c0.2-0.2,0.4-0.3,0.6-0.5c0.2-0.1,0.5-0.2,0.8-0.2c0.3,0,0.6,0.1,0.9,0.2c0.3,0.1,0.5,0.3,0.6,0.5v-2.7
		h0.7v6.1H223v-0.6c-0.1,0.2-0.3,0.4-0.6,0.5C222.1,252,221.8,252.1,221.5,252.1z M221.6,251.5c0.2,0,0.4,0,0.6-0.1s0.3-0.2,0.4-0.3
		c0.1-0.1,0.2-0.3,0.3-0.5c0.1-0.2,0.1-0.4,0.1-0.6c0-0.2,0-0.4-0.1-0.6c-0.1-0.2-0.2-0.3-0.3-0.5c-0.1-0.1-0.3-0.2-0.4-0.3
		s-0.4-0.1-0.6-0.1c-0.2,0-0.4,0-0.6,0.1c-0.2,0.1-0.3,0.2-0.4,0.3c-0.1,0.1-0.2,0.3-0.3,0.5c-0.1,0.2-0.1,0.4-0.1,0.6
		c0,0.2,0,0.4,0.1,0.6s0.2,0.3,0.3,0.5c0.1,0.1,0.3,0.2,0.4,0.3C221.2,251.4,221.4,251.5,221.6,251.5z"/>
	<path d="M228,250.7c-0.2,0-0.3,0-0.4-0.1c-0.1-0.1-0.3-0.1-0.4-0.2c-0.1-0.1-0.2-0.2-0.2-0.4c-0.1-0.1-0.1-0.3-0.1-0.4
		s0-0.3,0.1-0.4c0.1-0.1,0.1-0.3,0.2-0.4c0.1-0.1,0.2-0.2,0.4-0.2c0.1-0.1,0.3-0.1,0.4-0.1c0.2,0,0.3,0,0.4,0.1
		c0.1,0.1,0.3,0.1,0.4,0.2c0.1,0.1,0.2,0.2,0.2,0.4c0.1,0.1,0.1,0.3,0.1,0.4s0,0.3-0.1,0.4c-0.1,0.1-0.1,0.3-0.2,0.4
		c-0.1,0.1-0.2,0.2-0.4,0.2C228.3,250.6,228.2,250.7,228,250.7z"/>
</g>
<g class="st20">
	<path d="M232.5,246.2h2c0.3,0,0.5,0,0.7,0.1s0.4,0.2,0.5,0.3c0.2,0.1,0.3,0.3,0.3,0.5s0.1,0.4,0.1,0.7c0,0.4-0.1,0.8-0.4,1
		c-0.3,0.3-0.6,0.4-1.1,0.5l2.2,2.6h-1l-2.2-2.6h-0.6v2.6h-0.8V246.2z M234.4,248.7c0.3,0,0.6-0.1,0.8-0.2c0.2-0.1,0.3-0.4,0.3-0.7
		c0-0.3-0.1-0.5-0.3-0.7c-0.2-0.2-0.4-0.2-0.8-0.2h-1.1v1.8H234.4z"/>
</g>
<g class="st20">
	<path d="M239.2,252.1c-0.3,0-0.6-0.1-0.8-0.2c-0.3-0.1-0.5-0.3-0.6-0.4c-0.2-0.2-0.3-0.4-0.4-0.7s-0.2-0.5-0.2-0.8
		c0-0.3,0-0.6,0.1-0.8c0.1-0.3,0.2-0.5,0.4-0.7s0.4-0.3,0.7-0.5c0.3-0.1,0.5-0.2,0.9-0.2c0.3,0,0.6,0.1,0.9,0.2
		c0.3,0.1,0.5,0.3,0.6,0.5s0.3,0.5,0.4,0.7s0.1,0.6,0.1,0.9h-3.3c0,0.2,0,0.4,0.1,0.5c0.1,0.2,0.2,0.3,0.3,0.4
		c0.1,0.1,0.3,0.2,0.4,0.3c0.2,0.1,0.3,0.1,0.5,0.1c0.3,0,0.5-0.1,0.7-0.2c0.2-0.1,0.4-0.3,0.5-0.5h0.7c0,0.2-0.1,0.4-0.2,0.5
		c-0.1,0.2-0.2,0.3-0.4,0.4c-0.2,0.1-0.3,0.2-0.6,0.3C239.7,252.1,239.4,252.1,239.2,252.1z M239.2,248.5c-0.1,0-0.3,0-0.4,0.1
		c-0.1,0-0.3,0.1-0.4,0.2s-0.2,0.2-0.3,0.4s-0.1,0.3-0.2,0.5h2.6c-0.1-0.4-0.2-0.7-0.4-0.9C239.7,248.6,239.5,248.5,239.2,248.5z"/>
	<path d="M243.5,252.1c-0.2,0-0.4,0-0.6-0.1s-0.4-0.1-0.5-0.2c-0.1-0.1-0.3-0.2-0.4-0.4s-0.1-0.3-0.2-0.5h0.7c0,0.1,0.1,0.2,0.1,0.3
		c0.1,0.1,0.1,0.2,0.2,0.2c0.1,0.1,0.2,0.1,0.3,0.1c0.1,0,0.2,0,0.3,0c0.2,0,0.4,0,0.6-0.1c0.1-0.1,0.2-0.2,0.2-0.4
		c0-0.2-0.1-0.3-0.2-0.4s-0.3-0.2-0.5-0.3l-0.6-0.2c-0.4-0.1-0.6-0.2-0.8-0.5c-0.2-0.2-0.3-0.5-0.3-0.8c0-0.2,0-0.3,0.1-0.5
		c0.1-0.1,0.2-0.3,0.3-0.3c0.1-0.1,0.3-0.2,0.4-0.2c0.2-0.1,0.4-0.1,0.6-0.1c0.2,0,0.4,0,0.6,0.1c0.2,0.1,0.3,0.1,0.5,0.2
		c0.1,0.1,0.2,0.2,0.3,0.4c0.1,0.1,0.1,0.3,0.1,0.5h-0.7c-0.1-0.2-0.2-0.3-0.3-0.4c-0.1-0.1-0.3-0.2-0.5-0.2c-0.2,0-0.4,0-0.5,0.1
		c-0.1,0.1-0.2,0.2-0.2,0.4c0,0.2,0,0.3,0.1,0.4c0.1,0.1,0.3,0.2,0.5,0.2l0.7,0.2c0.3,0.1,0.6,0.2,0.8,0.4c0.2,0.2,0.3,0.5,0.3,0.8
		c0,0.2,0,0.4-0.1,0.5c-0.1,0.1-0.2,0.3-0.3,0.4c-0.1,0.1-0.3,0.2-0.5,0.2C243.9,252.1,243.7,252.1,243.5,252.1z"/>
	<path d="M246,245.9h0.7v6.1H246V245.9z"/>
	<path d="M248.4,246.8c-0.1,0-0.3,0-0.4-0.1c-0.1-0.1-0.1-0.2-0.1-0.4c0-0.1,0-0.3,0.1-0.4c0.1-0.1,0.2-0.1,0.4-0.1s0.3,0,0.4,0.1
		c0.1,0.1,0.1,0.2,0.1,0.4c0,0.1,0,0.3-0.1,0.4S248.5,246.8,248.4,246.8z M248,247.9h0.7v4.1H248V247.9z"/>
	<path d="M250.1,245.9h0.7v6.1h-0.7V245.9z"/>
	<path d="M253.8,252.1c-0.3,0-0.6-0.1-0.8-0.2c-0.3-0.1-0.5-0.3-0.6-0.4c-0.2-0.2-0.3-0.4-0.4-0.7s-0.2-0.5-0.2-0.8
		c0-0.3,0-0.6,0.1-0.8c0.1-0.3,0.2-0.5,0.4-0.7s0.4-0.3,0.7-0.5c0.3-0.1,0.5-0.2,0.9-0.2c0.3,0,0.6,0.1,0.9,0.2
		c0.3,0.1,0.5,0.3,0.6,0.5s0.3,0.5,0.4,0.7s0.1,0.6,0.1,0.9h-3.3c0,0.2,0,0.4,0.1,0.5c0.1,0.2,0.2,0.3,0.3,0.4
		c0.1,0.1,0.3,0.2,0.4,0.3c0.2,0.1,0.3,0.1,0.5,0.1c0.3,0,0.5-0.1,0.7-0.2c0.2-0.1,0.4-0.3,0.5-0.5h0.7c0,0.2-0.1,0.4-0.2,0.5
		c-0.1,0.2-0.2,0.3-0.4,0.4c-0.2,0.1-0.3,0.2-0.6,0.3C254.3,252.1,254.1,252.1,253.8,252.1z M253.8,248.5c-0.1,0-0.3,0-0.4,0.1
		c-0.1,0-0.3,0.1-0.4,0.2s-0.2,0.2-0.3,0.4s-0.1,0.3-0.2,0.5h2.6c-0.1-0.4-0.2-0.7-0.4-0.9C254.4,248.6,254.1,248.5,253.8,248.5z"/>
</g>
<g class="st20">
	<path d="M256.8,247.9h0.7v0.6c0.1-0.2,0.3-0.4,0.6-0.5c0.2-0.1,0.5-0.2,0.7-0.2c0.2,0,0.4,0,0.6,0.1s0.4,0.2,0.5,0.3
		s0.2,0.3,0.3,0.5c0.1,0.2,0.1,0.4,0.1,0.7v2.5h-0.7v-2.4c0-0.3-0.1-0.6-0.3-0.8c-0.2-0.2-0.4-0.3-0.7-0.3c-0.2,0-0.3,0-0.5,0.1
		s-0.3,0.2-0.4,0.3c-0.1,0.1-0.2,0.3-0.3,0.5s-0.1,0.4-0.1,0.6v2h-0.7V247.9z"/>
</g>
<g class="st20">
	<path d="M263.2,252.1c-0.2,0-0.3,0-0.5-0.1s-0.3-0.1-0.4-0.2s-0.2-0.2-0.3-0.4s-0.1-0.3-0.1-0.6v-2.2h-0.9v-0.6h0.9v-1.1h0.7v1.1
		h1.2v0.6h-1.2v2.1c0,0.3,0.1,0.4,0.2,0.5c0.1,0.1,0.3,0.2,0.5,0.2c0.1,0,0.2,0,0.3,0s0.2,0,0.2-0.1v0.6c-0.1,0-0.2,0.1-0.3,0.1
		C263.4,252,263.3,252.1,263.2,252.1z"/>
</g>
<g class="st20">
	<path d="M268.3,252.1c-0.3,0-0.5,0-0.7-0.1c-0.2-0.1-0.4-0.2-0.6-0.3c-0.2-0.1-0.3-0.3-0.4-0.5c-0.1-0.2-0.1-0.4-0.1-0.7
		c0-0.2,0-0.4,0.1-0.6c0.1-0.2,0.2-0.3,0.3-0.4c0.1-0.1,0.2-0.2,0.4-0.4c0.1-0.1,0.3-0.2,0.4-0.3l0,0c-0.1-0.1-0.2-0.2-0.3-0.3
		c-0.1-0.1-0.2-0.2-0.2-0.3s-0.1-0.2-0.2-0.3s-0.1-0.3-0.1-0.4c0-0.2,0-0.4,0.1-0.5c0.1-0.2,0.2-0.3,0.3-0.4
		c0.1-0.1,0.3-0.2,0.5-0.3s0.4-0.1,0.6-0.1c0.2,0,0.4,0,0.6,0.1c0.2,0.1,0.3,0.2,0.5,0.3c0.1,0.1,0.2,0.3,0.3,0.4
		c0.1,0.2,0.1,0.3,0.1,0.5c0,0.2,0,0.3-0.1,0.5s-0.1,0.3-0.3,0.4c-0.1,0.1-0.2,0.2-0.4,0.3c-0.1,0.1-0.3,0.2-0.4,0.2l1.2,1.2
		l0.7-0.9h0.8l-1,1.3l1.5,1.5h-0.9l-1-1c-0.2,0.2-0.3,0.3-0.4,0.5c-0.1,0.1-0.3,0.2-0.4,0.3c-0.2,0.1-0.3,0.1-0.5,0.2
		C268.7,252.1,268.5,252.1,268.3,252.1z M268.4,251.5c0.3,0,0.5-0.1,0.7-0.2s0.4-0.4,0.7-0.6l-1.4-1.4l-0.1,0.1
		c-0.3,0.2-0.5,0.3-0.7,0.5c-0.2,0.2-0.2,0.4-0.2,0.7c0,0.2,0,0.3,0.1,0.4c0.1,0.1,0.1,0.2,0.2,0.3c0.1,0.1,0.2,0.2,0.4,0.2
		C268.1,251.4,268.2,251.5,268.4,251.5z M267.8,247.4c0,0.2,0.1,0.4,0.2,0.5c0.1,0.1,0.3,0.3,0.5,0.5l0,0c0.1-0.1,0.2-0.1,0.3-0.2
		c0.1-0.1,0.2-0.1,0.3-0.2s0.1-0.2,0.2-0.2c0-0.1,0.1-0.2,0.1-0.3c0-0.2-0.1-0.4-0.2-0.6c-0.1-0.1-0.3-0.2-0.5-0.2
		c-0.1,0-0.2,0-0.3,0c-0.1,0-0.2,0.1-0.2,0.1c-0.1,0.1-0.1,0.1-0.2,0.2C267.8,247.2,267.8,247.3,267.8,247.4z"/>
</g>
<g class="st20">
	<path d="M274.8,246.2h3.4v0.7h-2.6v1.8h2.1v0.7h-2.1v1.9h2.6v0.7h-3.4V246.2z"/>
	<path d="M279.2,245.9h0.7v6.1h-0.7V245.9z"/>
</g>
<g class="st20">
	<path d="M283,252.1c-0.3,0-0.6-0.1-0.8-0.2s-0.5-0.3-0.6-0.5s-0.3-0.4-0.4-0.7c-0.1-0.3-0.2-0.5-0.2-0.8c0-0.3,0-0.6,0.2-0.8
		c0.1-0.3,0.2-0.5,0.4-0.7c0.2-0.2,0.4-0.3,0.6-0.5c0.2-0.1,0.5-0.2,0.8-0.2c0.3,0,0.6,0.1,0.9,0.2c0.3,0.1,0.5,0.3,0.6,0.5v-0.6
		h0.7v4.1h-0.7v-0.6c-0.1,0.2-0.3,0.4-0.6,0.5C283.6,252,283.3,252.1,283,252.1z M283.1,251.5c0.2,0,0.4,0,0.6-0.1s0.3-0.2,0.4-0.3
		c0.1-0.1,0.2-0.3,0.3-0.5c0.1-0.2,0.1-0.4,0.1-0.6c0-0.2,0-0.4-0.1-0.6c-0.1-0.2-0.2-0.3-0.3-0.5c-0.1-0.1-0.3-0.2-0.4-0.3
		s-0.4-0.1-0.6-0.1c-0.2,0-0.4,0-0.6,0.1c-0.2,0.1-0.3,0.2-0.4,0.3c-0.1,0.1-0.2,0.3-0.3,0.5c-0.1,0.2-0.1,0.4-0.1,0.6
		c0,0.2,0,0.4,0.1,0.6s0.2,0.3,0.3,0.5c0.1,0.1,0.3,0.2,0.4,0.3C282.7,251.4,282.9,251.5,283.1,251.5z"/>
</g>
<g class="st20">
	<path d="M287.7,252.1c-0.2,0-0.4,0-0.6-0.1s-0.4-0.1-0.5-0.2c-0.1-0.1-0.3-0.2-0.4-0.4s-0.1-0.3-0.2-0.5h0.7c0,0.1,0.1,0.2,0.1,0.3
		c0.1,0.1,0.1,0.2,0.2,0.2c0.1,0.1,0.2,0.1,0.3,0.1c0.1,0,0.2,0,0.3,0c0.2,0,0.4,0,0.6-0.1c0.1-0.1,0.2-0.2,0.2-0.4
		c0-0.2-0.1-0.3-0.2-0.4s-0.3-0.2-0.5-0.3l-0.6-0.2c-0.4-0.1-0.6-0.2-0.8-0.5c-0.2-0.2-0.3-0.5-0.3-0.8c0-0.2,0-0.3,0.1-0.5
		c0.1-0.1,0.2-0.3,0.3-0.3c0.1-0.1,0.3-0.2,0.4-0.2c0.2-0.1,0.4-0.1,0.6-0.1c0.2,0,0.4,0,0.6,0.1c0.2,0.1,0.3,0.1,0.5,0.2
		c0.1,0.1,0.2,0.2,0.3,0.4c0.1,0.1,0.1,0.3,0.1,0.5h-0.7c-0.1-0.2-0.2-0.3-0.3-0.4c-0.1-0.1-0.3-0.2-0.5-0.2c-0.2,0-0.4,0-0.5,0.1
		c-0.1,0.1-0.2,0.2-0.2,0.4c0,0.2,0,0.3,0.1,0.4c0.1,0.1,0.3,0.2,0.5,0.2l0.7,0.2c0.3,0.1,0.6,0.2,0.8,0.4c0.2,0.2,0.3,0.5,0.3,0.8
		c0,0.2,0,0.4-0.1,0.5c-0.1,0.1-0.2,0.3-0.3,0.4c-0.1,0.1-0.3,0.2-0.5,0.2C288.2,252.1,288,252.1,287.7,252.1z"/>
</g>
<g class="st20">
	<path d="M291.8,252.1c-0.2,0-0.3,0-0.5-0.1s-0.3-0.1-0.4-0.2s-0.2-0.2-0.3-0.4s-0.1-0.3-0.1-0.6v-2.2h-0.9v-0.6h0.9v-1.1h0.7v1.1
		h1.2v0.6h-1.2v2.1c0,0.3,0.1,0.4,0.2,0.5c0.1,0.1,0.3,0.2,0.5,0.2c0.1,0,0.2,0,0.3,0s0.2,0,0.2-0.1v0.6c-0.1,0-0.2,0.1-0.3,0.1
		C292,252,291.9,252.1,291.8,252.1z"/>
	<path d="M293.7,246.8c-0.1,0-0.3,0-0.4-0.1c-0.1-0.1-0.1-0.2-0.1-0.4c0-0.1,0-0.3,0.1-0.4c0.1-0.1,0.2-0.1,0.4-0.1s0.3,0,0.4,0.1
		c0.1,0.1,0.1,0.2,0.1,0.4c0,0.1,0,0.3-0.1,0.4S293.8,246.8,293.7,246.8z M293.3,247.9h0.7v4.1h-0.7V247.9z"/>
	<path d="M297.2,252.1c-0.3,0-0.6-0.1-0.9-0.2s-0.5-0.3-0.7-0.5c-0.2-0.2-0.3-0.4-0.4-0.7c-0.1-0.3-0.2-0.5-0.2-0.8
		c0-0.3,0.1-0.6,0.2-0.8c0.1-0.3,0.3-0.5,0.4-0.7c0.2-0.2,0.4-0.3,0.7-0.5c0.3-0.1,0.5-0.2,0.9-0.2c0.3,0,0.5,0,0.7,0.1
		c0.2,0.1,0.4,0.2,0.6,0.3c0.2,0.1,0.3,0.3,0.5,0.5c0.1,0.2,0.2,0.4,0.3,0.6h-0.8c-0.1-0.3-0.3-0.5-0.5-0.6
		c-0.2-0.2-0.5-0.2-0.8-0.2c-0.2,0-0.4,0-0.6,0.1s-0.3,0.2-0.5,0.3c-0.1,0.1-0.2,0.3-0.3,0.5c-0.1,0.2-0.1,0.4-0.1,0.6
		c0,0.2,0,0.4,0.1,0.6s0.2,0.3,0.3,0.5c0.1,0.1,0.3,0.2,0.5,0.3s0.4,0.1,0.6,0.1c0.3,0,0.6-0.1,0.8-0.2c0.2-0.2,0.4-0.4,0.5-0.6h0.8
		c-0.1,0.2-0.2,0.4-0.3,0.6c-0.1,0.2-0.3,0.3-0.5,0.5c-0.2,0.1-0.4,0.2-0.6,0.3C297.7,252.1,297.4,252.1,297.2,252.1z"/>
</g>
<path class="st21" d="M239.7,31.1h-75.3c-4.2,0-7.6-3.4-7.6-7.6c0,0,0,0,0,0l0,0c0-4.2,3.4-7.6,7.6-7.6c0,0,0,0,0,0h75.3
	c4.2,0,7.6,3.4,7.6,7.5c0,0,0,0,0,0.1l0,0C247.3,27.7,243.9,31.1,239.7,31.1z"/>
<path class="st22" d="M239.7,29.4h-75.3c-4.2,0-7.6-3.4-7.6-7.6c0,0,0,0,0,0l0,0c0-4.2,3.4-7.6,7.6-7.6c0,0,0,0,0,0h75.3
	c4.2,0,7.6,3.4,7.6,7.6c0,0,0,0,0,0l0,0C247.3,26,243.9,29.3,239.7,29.4z"/>
<g class="st20">
	<path class="st23" d="M171.7,21.7l-2.3-3.4h0.9L172,21l1.8-2.6h0.9l-2.3,3.4v2.5h-0.8V21.7z"/>
</g>
<g class="st20">
	<path class="st23" d="M176.4,24.3c-0.3,0-0.6-0.1-0.9-0.2s-0.5-0.3-0.7-0.5s-0.3-0.4-0.5-0.7c-0.1-0.3-0.2-0.5-0.2-0.8
		s0.1-0.6,0.2-0.8s0.3-0.5,0.5-0.7c0.2-0.2,0.4-0.3,0.7-0.5c0.3-0.1,0.6-0.2,0.9-0.2c0.3,0,0.6,0.1,0.9,0.2c0.3,0.1,0.5,0.3,0.7,0.5
		c0.2,0.2,0.3,0.4,0.5,0.7c0.1,0.3,0.2,0.5,0.2,0.8s-0.1,0.6-0.2,0.8c-0.1,0.3-0.3,0.5-0.5,0.7s-0.4,0.3-0.7,0.5
		S176.7,24.3,176.4,24.3z M176.4,23.7c0.2,0,0.4,0,0.6-0.1c0.2-0.1,0.3-0.2,0.5-0.3c0.1-0.1,0.2-0.3,0.3-0.5
		c0.1-0.2,0.1-0.4,0.1-0.6c0-0.2,0-0.4-0.1-0.6c-0.1-0.2-0.2-0.3-0.3-0.5c-0.1-0.1-0.3-0.2-0.5-0.3c-0.2-0.1-0.4-0.1-0.6-0.1
		c-0.2,0-0.4,0-0.6,0.1c-0.2,0.1-0.3,0.2-0.5,0.3c-0.1,0.1-0.2,0.3-0.3,0.5c-0.1,0.2-0.1,0.4-0.1,0.6c0,0.2,0,0.4,0.1,0.6
		c0.1,0.2,0.2,0.3,0.3,0.5s0.3,0.2,0.5,0.3C176,23.6,176.2,23.7,176.4,23.7z"/>
	<path class="st23" d="M181,24.3c-0.2,0-0.4,0-0.6-0.1c-0.2-0.1-0.3-0.2-0.5-0.3s-0.2-0.3-0.3-0.5c-0.1-0.2-0.1-0.4-0.1-0.7v-2.5
		h0.7v2.4c0,0.3,0.1,0.6,0.3,0.8c0.2,0.2,0.4,0.3,0.7,0.3c0.2,0,0.3,0,0.5-0.1c0.1-0.1,0.3-0.2,0.4-0.3c0.1-0.1,0.2-0.3,0.2-0.5
		c0.1-0.2,0.1-0.4,0.1-0.6v-2.1h0.7v4.1h-0.7v-0.6c-0.1,0.2-0.3,0.4-0.5,0.5C181.5,24.3,181.3,24.3,181,24.3z"/>
</g>
<g class="st20">
	<path class="st23" d="M184.4,20.1h0.7v0.8c0-0.1,0.1-0.3,0.2-0.4c0.1-0.1,0.2-0.2,0.3-0.3c0.1-0.1,0.2-0.1,0.3-0.2
		c0.1,0,0.2-0.1,0.4-0.1c0.1,0,0.2,0,0.3,0v0.7c-0.1,0-0.1,0-0.2-0.1c-0.1,0-0.1,0-0.2,0c-0.1,0-0.3,0-0.4,0.1
		c-0.1,0.1-0.2,0.1-0.3,0.3s-0.2,0.3-0.3,0.4c-0.1,0.2-0.1,0.4-0.1,0.6v2.1h-0.7V20.1z"/>
</g>
<g class="st20">
	<path class="st23" d="M190.9,18.4h0.6l2.6,5.9h-0.8l-0.8-1.7h-2.7l-0.7,1.7h-0.8L190.9,18.4z M190.1,21.8h2.1l-1.1-2.4L190.1,21.8z
		"/>
	<path class="st23" d="M194.8,26v-5.9h0.7v0.6c0.1-0.2,0.3-0.4,0.6-0.5c0.3-0.1,0.5-0.2,0.9-0.2c0.3,0,0.6,0.1,0.8,0.2
		c0.2,0.1,0.5,0.3,0.6,0.5c0.2,0.2,0.3,0.4,0.4,0.7c0.1,0.3,0.2,0.5,0.2,0.8s-0.1,0.6-0.2,0.8s-0.2,0.5-0.4,0.7
		c-0.2,0.2-0.4,0.4-0.6,0.5s-0.5,0.2-0.8,0.2c-0.3,0-0.6-0.1-0.9-0.2c-0.3-0.1-0.5-0.3-0.6-0.5V26H194.8z M196.9,23.7
		c0.2,0,0.4,0,0.6-0.1s0.3-0.2,0.4-0.3s0.2-0.3,0.3-0.5s0.1-0.4,0.1-0.6s0-0.4-0.1-0.6c-0.1-0.2-0.2-0.3-0.3-0.5
		c-0.1-0.1-0.3-0.2-0.4-0.3c-0.2-0.1-0.4-0.1-0.6-0.1s-0.4,0-0.6,0.1c-0.2,0.1-0.3,0.2-0.4,0.3c-0.1,0.1-0.2,0.3-0.3,0.5
		c-0.1,0.2-0.1,0.4-0.1,0.6s0,0.4,0.1,0.6s0.2,0.3,0.3,0.5s0.3,0.2,0.4,0.3S196.7,23.7,196.9,23.7z"/>
	<path class="st23" d="M200,26v-5.9h0.7v0.6c0.1-0.2,0.3-0.4,0.6-0.5c0.3-0.1,0.5-0.2,0.9-0.2c0.3,0,0.6,0.1,0.8,0.2
		c0.2,0.1,0.5,0.3,0.6,0.5c0.2,0.2,0.3,0.4,0.4,0.7c0.1,0.3,0.2,0.5,0.2,0.8s-0.1,0.6-0.2,0.8s-0.2,0.5-0.4,0.7
		c-0.2,0.2-0.4,0.4-0.6,0.5s-0.5,0.2-0.8,0.2c-0.3,0-0.6-0.1-0.9-0.2c-0.3-0.1-0.5-0.3-0.6-0.5V26H200z M202.1,23.7
		c0.2,0,0.4,0,0.6-0.1s0.3-0.2,0.4-0.3s0.2-0.3,0.3-0.5c0.1-0.2,0.1-0.4,0.1-0.6s0-0.4-0.1-0.6c-0.1-0.2-0.2-0.3-0.3-0.5
		c-0.1-0.1-0.3-0.2-0.4-0.3c-0.2-0.1-0.4-0.1-0.6-0.1c-0.2,0-0.4,0-0.6,0.1c-0.2,0.1-0.3,0.2-0.4,0.3c-0.1,0.1-0.2,0.3-0.3,0.5
		c-0.1,0.2-0.1,0.4-0.1,0.6s0,0.4,0.1,0.6c0.1,0.2,0.2,0.3,0.3,0.5s0.3,0.2,0.4,0.3S201.9,23.7,202.1,23.7z"/>
	<path class="st23" d="M205.3,18h0.7v6.2h-0.7V18z"/>
	<path class="st23" d="M207.7,19c-0.1,0-0.3,0-0.4-0.1c-0.1-0.1-0.1-0.2-0.1-0.4c0-0.1,0-0.3,0.1-0.4s0.2-0.1,0.4-0.1
		c0.1,0,0.3,0,0.4,0.1s0.1,0.2,0.1,0.4c0,0.1,0,0.3-0.1,0.4C208,18.9,207.8,19,207.7,19z M207.3,20.1h0.7v4.1h-0.7V20.1z"/>
	<path class="st23" d="M211.2,24.3c-0.3,0-0.6-0.1-0.9-0.2s-0.5-0.3-0.7-0.5s-0.3-0.4-0.4-0.7s-0.2-0.5-0.2-0.8s0.1-0.6,0.2-0.8
		c0.1-0.3,0.3-0.5,0.4-0.7s0.4-0.4,0.7-0.5c0.3-0.1,0.6-0.2,0.9-0.2c0.3,0,0.5,0,0.7,0.1s0.4,0.2,0.6,0.3c0.2,0.1,0.3,0.3,0.5,0.5
		c0.1,0.2,0.2,0.4,0.3,0.6h-0.8c-0.1-0.3-0.3-0.5-0.5-0.6s-0.5-0.2-0.8-0.2c-0.2,0-0.4,0-0.6,0.1c-0.2,0.1-0.3,0.2-0.5,0.3
		c-0.1,0.1-0.2,0.3-0.3,0.5c-0.1,0.2-0.1,0.4-0.1,0.6s0,0.4,0.1,0.6c0.1,0.2,0.2,0.3,0.3,0.5s0.3,0.2,0.5,0.3s0.4,0.1,0.6,0.1
		c0.3,0,0.6-0.1,0.8-0.2c0.2-0.2,0.4-0.4,0.5-0.6h0.8c-0.1,0.2-0.2,0.4-0.3,0.6s-0.3,0.3-0.5,0.5s-0.4,0.2-0.6,0.3
		S211.5,24.3,211.2,24.3z"/>
	<path class="st23" d="M216,24.3c-0.3,0-0.6-0.1-0.8-0.2s-0.5-0.3-0.6-0.5c-0.2-0.2-0.3-0.4-0.4-0.7c-0.1-0.3-0.2-0.5-0.2-0.8
		s0.1-0.6,0.2-0.8c0.1-0.3,0.2-0.5,0.4-0.7c0.2-0.2,0.4-0.4,0.6-0.5c0.2-0.1,0.5-0.2,0.8-0.2c0.3,0,0.6,0.1,0.9,0.2
		c0.3,0.1,0.5,0.3,0.6,0.5v-0.6h0.7v4.1h-0.7v-0.6c-0.1,0.2-0.3,0.4-0.6,0.5C216.6,24.2,216.3,24.3,216,24.3z M216.1,23.7
		c0.2,0,0.4,0,0.6-0.1s0.3-0.2,0.4-0.3s0.2-0.3,0.3-0.5c0.1-0.2,0.1-0.4,0.1-0.6s0-0.4-0.1-0.6c-0.1-0.2-0.2-0.3-0.3-0.5
		c-0.1-0.1-0.3-0.2-0.4-0.3c-0.2-0.1-0.4-0.1-0.6-0.1c-0.2,0-0.4,0-0.6,0.1c-0.2,0.1-0.3,0.2-0.4,0.3c-0.1,0.1-0.2,0.3-0.3,0.5
		c-0.1,0.2-0.1,0.4-0.1,0.6s0,0.4,0.1,0.6c0.1,0.2,0.2,0.3,0.3,0.5s0.3,0.2,0.4,0.3S215.9,23.7,216.1,23.7z"/>
	<path class="st23" d="M221.1,24.3c-0.2,0-0.3,0-0.5-0.1c-0.2-0.1-0.3-0.1-0.4-0.2c-0.1-0.1-0.2-0.2-0.3-0.4s-0.1-0.3-0.1-0.6v-2.3
		h-0.9v-0.7h0.9v-1.1h0.7v1.1h1.2v0.7h-1.2v2.2c0,0.3,0.1,0.4,0.2,0.5c0.1,0.1,0.3,0.2,0.5,0.2c0.1,0,0.2,0,0.3,0s0.2,0,0.2-0.1v0.6
		c-0.1,0-0.2,0.1-0.3,0.1C221.3,24.3,221.2,24.3,221.1,24.3z"/>
	<path class="st23" d="M223,19c-0.1,0-0.3,0-0.4-0.1c-0.1-0.1-0.1-0.2-0.1-0.4c0-0.1,0-0.3,0.1-0.4s0.2-0.1,0.4-0.1
		c0.1,0,0.3,0,0.4,0.1s0.1,0.2,0.1,0.4c0,0.1,0,0.3-0.1,0.4C223.2,18.9,223.1,19,223,19z M222.6,20.1h0.7v4.1h-0.7V20.1z"/>
	<path class="st23" d="M226.5,24.3c-0.3,0-0.6-0.1-0.9-0.2s-0.5-0.3-0.7-0.5s-0.3-0.4-0.5-0.7c-0.1-0.3-0.2-0.5-0.2-0.8
		s0.1-0.6,0.2-0.8c0.1-0.3,0.3-0.5,0.5-0.7c0.2-0.2,0.4-0.3,0.7-0.5c0.3-0.1,0.6-0.2,0.9-0.2c0.3,0,0.6,0.1,0.9,0.2
		c0.3,0.1,0.5,0.3,0.7,0.5c0.2,0.2,0.3,0.4,0.5,0.7s0.2,0.5,0.2,0.8s-0.1,0.6-0.2,0.8c-0.1,0.3-0.3,0.5-0.5,0.7s-0.4,0.3-0.7,0.5
		S226.8,24.3,226.5,24.3z M226.5,23.7c0.2,0,0.4,0,0.6-0.1c0.2-0.1,0.3-0.2,0.5-0.3s0.2-0.3,0.3-0.5c0.1-0.2,0.1-0.4,0.1-0.6
		c0-0.2,0-0.4-0.1-0.6c-0.1-0.2-0.2-0.3-0.3-0.5c-0.1-0.1-0.3-0.2-0.5-0.3c-0.2-0.1-0.4-0.1-0.6-0.1c-0.2,0-0.4,0-0.6,0.1
		c-0.2,0.1-0.3,0.2-0.5,0.3c-0.1,0.1-0.2,0.3-0.3,0.5c-0.1,0.2-0.1,0.4-0.1,0.6c0,0.2,0,0.4,0.1,0.6c0.1,0.2,0.2,0.3,0.3,0.5
		s0.3,0.2,0.5,0.3S226.3,23.7,226.5,23.7z"/>
	<path class="st23" d="M229.7,20.1h0.7v0.6c0.1-0.2,0.3-0.4,0.6-0.5c0.2-0.1,0.5-0.2,0.8-0.2c0.2,0,0.4,0,0.6,0.1
		c0.2,0.1,0.4,0.2,0.5,0.3c0.1,0.1,0.2,0.3,0.3,0.5c0.1,0.2,0.1,0.4,0.1,0.7v2.5h-0.7v-2.4c0-0.3-0.1-0.6-0.3-0.8
		c-0.2-0.2-0.4-0.3-0.7-0.3c-0.2,0-0.3,0-0.5,0.1c-0.1,0.1-0.3,0.2-0.4,0.3s-0.2,0.3-0.3,0.5s-0.1,0.4-0.1,0.6v2.1h-0.7V20.1z"/>
	<path class="st23" d="M235.9,24.3c-0.2,0-0.4,0-0.6-0.1s-0.4-0.1-0.5-0.2c-0.1-0.1-0.3-0.2-0.4-0.4c-0.1-0.2-0.1-0.3-0.2-0.6h0.7
		c0,0.1,0.1,0.2,0.1,0.3s0.1,0.2,0.2,0.2c0.1,0.1,0.2,0.1,0.3,0.1c0.1,0,0.2,0,0.3,0c0.2,0,0.4,0,0.6-0.1c0.2-0.1,0.2-0.2,0.2-0.4
		c0-0.2-0.1-0.3-0.2-0.4c-0.1-0.1-0.3-0.2-0.5-0.3l-0.6-0.2c-0.4-0.1-0.6-0.2-0.8-0.5s-0.3-0.5-0.3-0.8c0-0.2,0-0.3,0.1-0.5
		c0.1-0.1,0.2-0.3,0.3-0.4c0.1-0.1,0.3-0.2,0.5-0.2c0.2-0.1,0.4-0.1,0.6-0.1c0.2,0,0.4,0,0.6,0.1c0.2,0.1,0.3,0.1,0.5,0.3
		s0.2,0.2,0.3,0.4c0.1,0.1,0.1,0.3,0.1,0.5h-0.7c-0.1-0.2-0.2-0.3-0.3-0.4c-0.1-0.1-0.3-0.2-0.5-0.2c-0.2,0-0.4,0-0.5,0.1
		c-0.1,0.1-0.2,0.2-0.2,0.4c0,0.2,0,0.3,0.1,0.4c0.1,0.1,0.3,0.2,0.5,0.2l0.7,0.2c0.3,0.1,0.6,0.2,0.8,0.4c0.2,0.2,0.3,0.5,0.3,0.8
		c0,0.2,0,0.4-0.1,0.5c-0.1,0.2-0.2,0.3-0.3,0.4c-0.1,0.1-0.3,0.2-0.5,0.2C236.3,24.3,236.1,24.3,235.9,24.3z"/>
</g>
<path class="st21" d="M239.7,220.9h-75.3c-4.2,0-7.6-3.4-7.6-7.5c0,0,0,0,0-0.1l0,0c0-4.2,3.4-7.6,7.5-7.6c0,0,0,0,0.1,0h75.3
	c4.2,0,7.6,3.4,7.6,7.5c0,0,0,0,0,0.1l0,0C247.3,217.5,243.9,220.9,239.7,220.9z"/>
<path class="st22" d="M239.7,219.2h-75.3c-4.2,0-7.6-3.4-7.6-7.5c0,0,0,0,0-0.1l0,0c0-4.2,3.4-7.6,7.5-7.6c0,0,0,0,0.1,0h75.3
	c4.2,0,7.6,3.4,7.6,7.5c0,0,0,0,0,0.1l0,0C247.3,215.8,243.9,219.2,239.7,219.2z"/>
<g class="st20">
	<path class="st23" d="M185.1,211.6l-2.3-3.4h0.9l1.7,2.6l1.8-2.6h0.9l-2.3,3.4v2.5h-0.8V211.6z"/>
</g>
<g class="st20">
	<path class="st23" d="M189.8,214.1c-0.3,0-0.6-0.1-0.9-0.2s-0.5-0.3-0.7-0.5s-0.3-0.4-0.5-0.7c-0.1-0.3-0.2-0.5-0.2-0.8
		c0-0.3,0.1-0.6,0.2-0.8s0.3-0.5,0.5-0.7c0.2-0.2,0.4-0.3,0.7-0.5s0.6-0.2,0.9-0.2c0.3,0,0.6,0.1,0.9,0.2s0.5,0.3,0.7,0.5
		c0.2,0.2,0.3,0.4,0.5,0.7c0.1,0.3,0.2,0.5,0.2,0.8c0,0.3-0.1,0.6-0.2,0.8c-0.1,0.3-0.3,0.5-0.5,0.7s-0.4,0.3-0.7,0.5
		S190.1,214.1,189.8,214.1z M189.8,213.5c0.2,0,0.4,0,0.6-0.1c0.2-0.1,0.3-0.2,0.5-0.3c0.1-0.1,0.2-0.3,0.3-0.5
		c0.1-0.2,0.1-0.4,0.1-0.6c0-0.2,0-0.4-0.1-0.6c-0.1-0.2-0.2-0.3-0.3-0.5c-0.1-0.1-0.3-0.2-0.5-0.3c-0.2-0.1-0.4-0.1-0.6-0.1
		c-0.2,0-0.4,0-0.6,0.1c-0.2,0.1-0.3,0.2-0.5,0.3c-0.1,0.1-0.2,0.3-0.3,0.5c-0.1,0.2-0.1,0.4-0.1,0.6c0,0.2,0,0.4,0.1,0.6
		c0.1,0.2,0.2,0.3,0.3,0.5c0.1,0.1,0.3,0.2,0.5,0.3C189.4,213.4,189.6,213.5,189.8,213.5z"/>
	<path class="st23" d="M194.5,214.1c-0.2,0-0.4,0-0.6-0.1s-0.3-0.2-0.5-0.3s-0.2-0.3-0.3-0.5c-0.1-0.2-0.1-0.4-0.1-0.7v-2.5h0.7v2.4
		c0,0.3,0.1,0.6,0.3,0.8c0.2,0.2,0.4,0.3,0.7,0.3c0.2,0,0.3,0,0.5-0.1c0.1-0.1,0.3-0.2,0.4-0.3s0.2-0.3,0.2-0.5
		c0.1-0.2,0.1-0.4,0.1-0.6v-2.1h0.7v4.1h-0.7v-0.6c-0.1,0.2-0.3,0.4-0.5,0.5C195,214.1,194.7,214.1,194.5,214.1z"/>
</g>
<g class="st20">
	<path class="st23" d="M197.8,209.9h0.7v0.8c0-0.1,0.1-0.3,0.2-0.4c0.1-0.1,0.2-0.2,0.3-0.3c0.1-0.1,0.2-0.1,0.3-0.2
		c0.1,0,0.2-0.1,0.4-0.1c0.1,0,0.2,0,0.3,0v0.7c-0.1,0-0.1,0-0.2-0.1c-0.1,0-0.1,0-0.2,0c-0.1,0-0.3,0-0.4,0.1
		c-0.1,0.1-0.2,0.1-0.3,0.3c-0.1,0.1-0.2,0.3-0.3,0.4c-0.1,0.2-0.1,0.4-0.1,0.6v2.1h-0.7V209.9z"/>
</g>
<g class="st20">
	<path class="st23" d="M202.7,208.2h1.7c0.5,0,0.9,0.1,1.2,0.2c0.4,0.1,0.7,0.4,1,0.6s0.5,0.6,0.7,0.9s0.2,0.7,0.2,1.2
		s-0.1,0.8-0.2,1.2c-0.2,0.4-0.4,0.7-0.7,0.9c-0.3,0.3-0.6,0.5-1,0.6c-0.4,0.1-0.8,0.2-1.2,0.2h-1.7V208.2z M204.4,213.3
		c0.4,0,0.7-0.1,1-0.2c0.3-0.1,0.5-0.3,0.7-0.5c0.2-0.2,0.4-0.4,0.5-0.7c0.1-0.3,0.2-0.6,0.2-0.9c0-0.3-0.1-0.6-0.2-0.9
		s-0.3-0.5-0.5-0.7c-0.2-0.2-0.5-0.4-0.7-0.5c-0.3-0.1-0.6-0.2-1-0.2h-0.9v4.4H204.4z"/>
	<path class="st23" d="M210.3,214.1c-0.3,0-0.6-0.1-0.8-0.2s-0.5-0.3-0.6-0.5c-0.2-0.2-0.3-0.4-0.4-0.7c-0.1-0.3-0.2-0.5-0.2-0.8
		c0-0.3,0.1-0.6,0.2-0.8c0.1-0.3,0.2-0.5,0.4-0.7c0.2-0.2,0.4-0.3,0.6-0.5s0.5-0.2,0.8-0.2c0.3,0,0.6,0.1,0.9,0.2
		c0.3,0.1,0.5,0.3,0.6,0.5v-0.6h0.7v4.1h-0.7v-0.6c-0.1,0.2-0.3,0.4-0.6,0.5C210.9,214.1,210.6,214.1,210.3,214.1z M210.4,213.5
		c0.2,0,0.4,0,0.6-0.1s0.3-0.2,0.4-0.3s0.2-0.3,0.3-0.5c0.1-0.2,0.1-0.4,0.1-0.6c0-0.2,0-0.4-0.1-0.6c-0.1-0.2-0.2-0.3-0.3-0.5
		c-0.1-0.1-0.3-0.2-0.4-0.3s-0.4-0.1-0.6-0.1c-0.2,0-0.4,0-0.6,0.1s-0.3,0.2-0.4,0.3c-0.1,0.1-0.2,0.3-0.3,0.5
		c-0.1,0.2-0.1,0.4-0.1,0.6c0,0.2,0,0.4,0.1,0.6c0.1,0.2,0.2,0.3,0.3,0.5s0.3,0.2,0.4,0.3S210.2,213.5,210.4,213.5z"/>
</g>
<g class="st20">
	<path class="st23" d="M215.4,214.1c-0.2,0-0.3,0-0.5-0.1c-0.2-0.1-0.3-0.1-0.4-0.2c-0.1-0.1-0.2-0.2-0.3-0.4
		c-0.1-0.2-0.1-0.3-0.1-0.6v-2.3h-0.9v-0.7h0.9v-1.1h0.7v1.1h1.2v0.7h-1.2v2.2c0,0.3,0.1,0.4,0.2,0.6c0.1,0.1,0.3,0.2,0.5,0.2
		c0.1,0,0.2,0,0.3,0s0.2,0,0.2-0.1v0.6c-0.1,0-0.2,0.1-0.3,0.1C215.6,214.1,215.5,214.1,215.4,214.1z"/>
</g>
<g class="st20">
	<path class="st23" d="M218.6,214.1c-0.3,0-0.6-0.1-0.8-0.2s-0.5-0.3-0.6-0.5c-0.2-0.2-0.3-0.4-0.4-0.7c-0.1-0.3-0.2-0.5-0.2-0.8
		c0-0.3,0.1-0.6,0.2-0.8c0.1-0.3,0.2-0.5,0.4-0.7c0.2-0.2,0.4-0.3,0.6-0.5s0.5-0.2,0.8-0.2c0.3,0,0.6,0.1,0.9,0.2
		c0.3,0.1,0.5,0.3,0.6,0.5v-0.6h0.7v4.1H220v-0.6c-0.1,0.2-0.3,0.4-0.6,0.5C219.2,214.1,218.9,214.1,218.6,214.1z M218.7,213.5
		c0.2,0,0.4,0,0.6-0.1s0.3-0.2,0.4-0.3s0.2-0.3,0.3-0.5c0.1-0.2,0.1-0.4,0.1-0.6c0-0.2,0-0.4-0.1-0.6c-0.1-0.2-0.2-0.3-0.3-0.5
		c-0.1-0.1-0.3-0.2-0.4-0.3s-0.4-0.1-0.6-0.1c-0.2,0-0.4,0-0.6,0.1s-0.3,0.2-0.4,0.3c-0.1,0.1-0.2,0.3-0.3,0.5
		c-0.1,0.2-0.1,0.4-0.1,0.6c0,0.2,0,0.4,0.1,0.6c0.1,0.2,0.2,0.3,0.3,0.5s0.3,0.2,0.4,0.3S218.5,213.5,218.7,213.5z"/>
</g>
<g class="st20">
	<path d="M316.1,191.2c-0.2-0.3-0.3-0.5-0.3-0.8c-0.1-0.3-0.1-0.5,0-0.7s0.1-0.4,0.2-0.6c0.1-0.2,0.3-0.3,0.4-0.5l0.4,0.6
		c-0.1,0.1-0.2,0.2-0.3,0.4c-0.1,0.1-0.1,0.3-0.1,0.4c0,0.1,0,0.3,0.1,0.4c0,0.1,0.1,0.3,0.2,0.4c0.1,0.1,0.2,0.2,0.3,0.3
		s0.2,0.2,0.3,0.2c0.1,0,0.2,0.1,0.4,0.1c0.1,0,0.2-0.1,0.4-0.1c0.4-0.2,0.5-0.6,0.4-1.2l-0.2-0.8c-0.1-0.5-0.1-0.9,0-1.2
		c0.1-0.3,0.3-0.6,0.7-0.8c0.2-0.1,0.4-0.2,0.6-0.2c0.2,0,0.4,0,0.6,0.1c0.2,0.1,0.4,0.2,0.6,0.3c0.2,0.1,0.3,0.3,0.5,0.5
		c0.2,0.2,0.3,0.5,0.3,0.7c0,0.2,0,0.5,0,0.7c0,0.2-0.1,0.4-0.2,0.6c-0.1,0.2-0.2,0.3-0.4,0.4l-0.4-0.6c0.2-0.2,0.3-0.5,0.3-0.7
		c0-0.2-0.1-0.5-0.2-0.7c-0.1-0.2-0.3-0.4-0.6-0.5s-0.4-0.1-0.6,0.1c-0.2,0.1-0.3,0.3-0.4,0.5c0,0.2,0,0.4,0,0.7l0.2,0.8
		c0.1,0.5,0.1,0.9,0,1.2c-0.1,0.3-0.3,0.6-0.7,0.9c-0.2,0.1-0.4,0.2-0.6,0.2c-0.2,0-0.4,0-0.6,0c-0.2-0.1-0.4-0.2-0.6-0.3
		C316.4,191.6,316.2,191.5,316.1,191.2z"/>
</g>
<g class="st20">
	<path d="M318.5,194.9c-0.1-0.2-0.2-0.3-0.2-0.5c0-0.2,0-0.3,0-0.5c0-0.1,0.1-0.3,0.2-0.4c0.1-0.1,0.2-0.3,0.4-0.4l1.9-1.2l-0.5-0.7
		l0.5-0.3l0.5,0.7l1-0.6l0.4,0.6l-1,0.6l0.6,1l-0.5,0.3l-0.6-1l-1.8,1.1c-0.2,0.1-0.3,0.3-0.4,0.4c0,0.2,0,0.3,0.1,0.5
		c0,0.1,0.1,0.1,0.2,0.2c0.1,0.1,0.1,0.1,0.2,0.2l-0.5,0.3c-0.1-0.1-0.1-0.1-0.2-0.2C318.6,195.1,318.5,195,318.5,194.9z"/>
</g>
<g class="st20">
	<path d="M322.8,194.2l0.4,0.6l-0.7,0.4c0.1,0,0.3,0,0.4,0s0.3,0.1,0.4,0.1c0.1,0.1,0.2,0.1,0.3,0.2s0.2,0.2,0.2,0.3
		c0.1,0.1,0.1,0.2,0.1,0.3l-0.6,0.4c0-0.1,0-0.1,0-0.2c0-0.1-0.1-0.1-0.1-0.2c-0.1-0.1-0.2-0.2-0.3-0.3c-0.1-0.1-0.2-0.1-0.4-0.2
		c-0.1,0-0.3,0-0.5,0c-0.2,0-0.4,0.1-0.6,0.2l-1.8,1l-0.4-0.6L322.8,194.2z"/>
</g>
<g class="st20">
	<path d="M321.4,200.2c-0.1-0.3-0.2-0.5-0.3-0.8c0-0.3,0-0.5,0.1-0.8c0.1-0.3,0.2-0.5,0.4-0.7c0.2-0.2,0.4-0.4,0.7-0.5
		c0.3-0.1,0.5-0.2,0.8-0.3c0.3,0,0.5,0,0.8,0c0.3,0.1,0.5,0.2,0.7,0.4c0.2,0.2,0.4,0.4,0.6,0.7c0.2,0.3,0.2,0.6,0.3,0.8
		s0,0.5-0.1,0.8c-0.1,0.3-0.3,0.5-0.5,0.7c-0.2,0.2-0.5,0.4-0.7,0.5l-1.6-2.9c-0.2,0.1-0.3,0.2-0.4,0.4c-0.1,0.1-0.2,0.3-0.2,0.5
		c0,0.2-0.1,0.3,0,0.5c0,0.2,0.1,0.3,0.2,0.5c0.1,0.2,0.3,0.4,0.5,0.5c0.2,0.1,0.4,0.2,0.7,0.2l0.3,0.6c-0.2,0-0.4,0.1-0.6,0
		c-0.2,0-0.4-0.1-0.6-0.2c-0.2-0.1-0.4-0.2-0.5-0.4C321.7,200.6,321.6,200.4,321.4,200.2z M324.6,198.5c-0.1-0.1-0.2-0.2-0.3-0.3
		c-0.1-0.1-0.2-0.2-0.4-0.2c-0.1-0.1-0.3-0.1-0.5-0.1c-0.2,0-0.3,0-0.5,0.1l1.2,2.2c0.3-0.2,0.5-0.5,0.5-0.8
		S324.8,198.7,324.6,198.5z"/>
</g>
<g class="st20">
	<path d="M323.6,204.4c-0.1-0.3-0.2-0.5-0.2-0.8c0-0.3,0-0.5,0.1-0.8c0.1-0.2,0.2-0.5,0.4-0.7c0.2-0.2,0.4-0.4,0.7-0.5
		c0.3-0.1,0.5-0.2,0.8-0.2c0.3,0,0.5,0,0.8,0.1c0.3,0.1,0.5,0.2,0.7,0.4c0.2,0.2,0.4,0.4,0.5,0.6c0.1,0.3,0.2,0.6,0.2,0.9
		c0,0.3-0.1,0.5-0.2,0.8l0.6-0.3l0.3,0.6l-3.7,1.8l-0.3-0.6l0.6-0.3c-0.2,0-0.5-0.1-0.7-0.3C323.9,204.9,323.7,204.6,323.6,204.4z
		 M324.2,204.2c0.1,0.2,0.2,0.3,0.4,0.5c0.1,0.1,0.3,0.2,0.5,0.3c0.2,0.1,0.4,0.1,0.5,0.1c0.2,0,0.4-0.1,0.6-0.2
		c0.2-0.1,0.3-0.2,0.5-0.3s0.2-0.3,0.3-0.5c0.1-0.2,0.1-0.3,0.1-0.5c0-0.2-0.1-0.4-0.1-0.6c-0.1-0.2-0.2-0.3-0.4-0.5
		c-0.1-0.1-0.3-0.2-0.5-0.3c-0.2-0.1-0.4-0.1-0.5-0.1c-0.2,0-0.4,0.1-0.6,0.2s-0.3,0.2-0.5,0.3s-0.2,0.3-0.3,0.5s-0.1,0.3-0.1,0.5
		C324.1,203.8,324.1,204,324.2,204.2z"/>
</g>
<g class="st20">
	<path d="M329.5,211.2c0.3-0.1,0.5-0.3,0.7-0.5s0.1-0.4,0-0.7c-0.1-0.3-0.4-0.5-0.7-0.6c-0.3-0.1-0.7,0-1.1,0.1l-1.9,0.8l-0.3-0.6
		l2.2-1c0.3-0.1,0.5-0.3,0.7-0.5c0.1-0.2,0.2-0.4,0-0.7c-0.1-0.3-0.4-0.5-0.7-0.6s-0.7,0-1.1,0.2l-1.9,0.8l-0.3-0.6l3.7-1.6l0.3,0.6
		l-0.6,0.3c0.2,0,0.5,0.1,0.7,0.2s0.4,0.3,0.5,0.6c0.1,0.3,0.2,0.5,0.1,0.8c-0.1,0.3-0.2,0.5-0.4,0.7c0.3,0,0.6,0.1,0.8,0.2
		c0.2,0.2,0.4,0.4,0.5,0.7c0.1,0.2,0.1,0.4,0.1,0.6c0,0.2,0,0.4-0.1,0.5c-0.1,0.2-0.2,0.3-0.4,0.5c-0.2,0.1-0.4,0.3-0.6,0.4l-2.3,1
		l-0.3-0.6L329.5,211.2z"/>
</g>
<g class="st20">
	<path d="M328.4,215.2c-0.1-0.2-0.1-0.4-0.2-0.6c0-0.2,0-0.4,0-0.6s0.1-0.3,0.2-0.5c0.1-0.1,0.3-0.3,0.5-0.4l0.3,0.7
		c-0.1,0.1-0.2,0.1-0.2,0.2c-0.1,0.1-0.1,0.2-0.1,0.3c0,0.1,0,0.2,0,0.3c0,0.1,0,0.2,0.1,0.3c0.1,0.2,0.2,0.4,0.3,0.5
		c0.1,0.1,0.3,0.1,0.5,0.1c0.2-0.1,0.3-0.2,0.3-0.3c0.1-0.1,0.1-0.3,0-0.6L330,214c0-0.4,0-0.7,0.1-0.9c0.1-0.2,0.3-0.4,0.6-0.5
		c0.2-0.1,0.3-0.1,0.5-0.1c0.2,0,0.3,0.1,0.4,0.1c0.1,0.1,0.3,0.2,0.4,0.3s0.2,0.3,0.3,0.5c0.1,0.2,0.1,0.4,0.1,0.6
		c0,0.2,0,0.4-0.1,0.5c-0.1,0.2-0.1,0.3-0.2,0.4c-0.1,0.1-0.2,0.2-0.4,0.3l-0.3-0.7c0.1-0.1,0.2-0.3,0.3-0.4c0-0.2,0-0.3,0-0.5
		c-0.1-0.2-0.2-0.3-0.3-0.4s-0.3-0.1-0.4-0.1c-0.1,0.1-0.2,0.1-0.3,0.3c0,0.1-0.1,0.3,0,0.5l0.1,0.7c0,0.3,0,0.6-0.1,0.9
		c-0.1,0.2-0.3,0.4-0.6,0.5c-0.2,0.1-0.4,0.1-0.5,0.1c-0.2,0-0.3-0.1-0.5-0.2c-0.1-0.1-0.3-0.2-0.4-0.4
		C328.6,215.6,328.5,215.4,328.4,215.2z"/>
</g>
<g class="st20">
	<path d="M335,221.7c-0.2,0.1-0.5,0.1-0.7,0.1c-0.2,0-0.5-0.1-0.7-0.2c-0.2-0.1-0.4-0.3-0.6-0.5c-0.2-0.2-0.3-0.4-0.4-0.7l-0.3-1
		l-2,0.7l-0.2-0.7l5.5-1.9l0.6,1.7c0.1,0.3,0.1,0.6,0.1,0.8s-0.1,0.5-0.2,0.7c-0.1,0.2-0.2,0.4-0.4,0.6
		C335.5,221.5,335.3,221.6,335,221.7z M334.8,221c0.2-0.1,0.3-0.1,0.4-0.2c0.1-0.1,0.2-0.2,0.3-0.3c0.1-0.1,0.1-0.3,0.1-0.4
		c0-0.2,0-0.3-0.1-0.5l-0.3-1l-2.2,0.7l0.3,1c0.1,0.2,0.1,0.3,0.3,0.5c0.1,0.1,0.2,0.2,0.4,0.3c0.1,0.1,0.3,0.1,0.4,0.1
		C334.5,221.1,334.7,221,334.8,221z"/>
</g>
<g class="st20">
	<path d="M335.4,222.5l0.2,0.7l-0.8,0.2c0.1,0,0.3,0,0.4,0.1c0.1,0,0.2,0.1,0.3,0.2c0.1,0.1,0.2,0.2,0.3,0.3
		c0.1,0.1,0.1,0.2,0.2,0.3c0,0.1,0.1,0.2,0.1,0.3l-0.7,0.2c0-0.1,0-0.1,0-0.2c0-0.1,0-0.1,0-0.2c0-0.1-0.1-0.2-0.2-0.3
		c-0.1-0.1-0.2-0.2-0.3-0.2c-0.1-0.1-0.3-0.1-0.5-0.1s-0.4,0-0.6,0.1l-1.9,0.6l-0.2-0.7L335.4,222.5z"/>
</g>
<g class="st20">
	<path d="M332.8,228.2c-0.1-0.3-0.1-0.6-0.1-0.9c0-0.3,0.1-0.5,0.3-0.8c0.1-0.2,0.3-0.4,0.5-0.6s0.5-0.3,0.8-0.4
		c0.3-0.1,0.6-0.1,0.8-0.1s0.5,0.1,0.8,0.2c0.2,0.1,0.4,0.3,0.6,0.5s0.3,0.5,0.4,0.8c0.1,0.3,0.1,0.6,0.1,0.9s-0.1,0.5-0.3,0.8
		c-0.1,0.2-0.3,0.4-0.5,0.6s-0.5,0.3-0.8,0.4c-0.3,0.1-0.6,0.1-0.8,0.1c-0.3,0-0.5-0.1-0.8-0.2c-0.2-0.1-0.4-0.3-0.6-0.5
		S332.8,228.5,332.8,228.2z M333.4,228c0.1,0.2,0.1,0.4,0.3,0.5c0.1,0.1,0.3,0.3,0.4,0.3c0.2,0.1,0.3,0.1,0.5,0.2
		c0.2,0,0.4,0,0.6-0.1c0.2-0.1,0.4-0.1,0.5-0.3c0.2-0.1,0.3-0.2,0.4-0.4c0.1-0.2,0.2-0.3,0.2-0.5c0-0.2,0-0.4,0-0.6
		c-0.1-0.2-0.1-0.4-0.3-0.5c-0.1-0.1-0.3-0.3-0.4-0.3c-0.2-0.1-0.3-0.1-0.5-0.2c-0.2,0-0.4,0-0.6,0.1c-0.2,0.1-0.4,0.1-0.5,0.3
		c-0.2,0.1-0.3,0.2-0.4,0.4c-0.1,0.2-0.2,0.3-0.2,0.5C333.3,227.6,333.3,227.8,333.4,228z"/>
</g>
<g class="st20">
	<path d="M334,232.9c-0.1-0.3-0.1-0.6,0-0.9c0-0.3,0.1-0.5,0.3-0.8c0.1-0.2,0.3-0.4,0.6-0.6c0.2-0.2,0.5-0.3,0.8-0.3s0.6-0.1,0.8,0
		c0.3,0,0.5,0.1,0.8,0.3c0.2,0.1,0.4,0.3,0.6,0.5c0.2,0.2,0.3,0.5,0.4,0.8c0.1,0.2,0.1,0.5,0.1,0.7c0,0.2-0.1,0.5-0.2,0.7
		c-0.1,0.2-0.2,0.4-0.4,0.6c-0.2,0.2-0.3,0.3-0.5,0.4l-0.2-0.7c0.2-0.2,0.4-0.4,0.5-0.6c0.1-0.3,0.1-0.5,0-0.9
		c0-0.2-0.1-0.4-0.2-0.5s-0.3-0.3-0.4-0.4c-0.2-0.1-0.3-0.1-0.5-0.2c-0.2,0-0.4,0-0.6,0s-0.4,0.1-0.5,0.2c-0.2,0.1-0.3,0.2-0.4,0.4
		c-0.1,0.2-0.2,0.3-0.2,0.5s0,0.4,0,0.6c0.1,0.3,0.2,0.6,0.4,0.7c0.2,0.2,0.5,0.3,0.7,0.3l0.2,0.7c-0.2,0-0.5,0-0.7-0.1
		c-0.2-0.1-0.4-0.2-0.6-0.3c-0.2-0.1-0.3-0.3-0.4-0.5C334.1,233.4,334,233.2,334,232.9z"/>
</g>
<g class="st20">
	<path d="M335,237.5c-0.1-0.3-0.1-0.6,0-0.8c0.1-0.3,0.2-0.5,0.3-0.7c0.2-0.2,0.3-0.4,0.6-0.6c0.2-0.2,0.5-0.3,0.8-0.3
		c0.3-0.1,0.6-0.1,0.8,0c0.3,0,0.5,0.1,0.7,0.3c0.2,0.1,0.4,0.3,0.6,0.6c0.2,0.2,0.3,0.5,0.3,0.8s0.1,0.6,0,0.9s-0.2,0.5-0.4,0.7
		c-0.2,0.2-0.4,0.4-0.6,0.5c-0.3,0.1-0.5,0.2-0.9,0.3l-0.7-3.3c-0.2,0-0.3,0.1-0.5,0.2c-0.1,0.1-0.3,0.2-0.3,0.4s-0.2,0.3-0.2,0.5
		c0,0.2,0,0.4,0,0.5c0.1,0.2,0.1,0.5,0.3,0.6c0.1,0.2,0.3,0.3,0.6,0.4l0.1,0.7c-0.2,0-0.4-0.1-0.5-0.1c-0.2-0.1-0.3-0.2-0.5-0.3
		c-0.1-0.1-0.3-0.3-0.4-0.5C335.1,238,335.1,237.8,335,237.5z M338.6,236.8c0-0.1-0.1-0.3-0.2-0.4c-0.1-0.1-0.2-0.2-0.3-0.3
		c-0.1-0.1-0.2-0.2-0.4-0.2c-0.2-0.1-0.3-0.1-0.5-0.1l0.5,2.5c0.4-0.1,0.6-0.3,0.7-0.6C338.6,237.4,338.6,237.1,338.6,236.8z"/>
</g>
<g class="st20">
	<path d="M335.8,241.7c0-0.2,0-0.4,0-0.6c0-0.2,0.1-0.4,0.2-0.5c0.1-0.2,0.2-0.3,0.3-0.4c0.1-0.1,0.3-0.2,0.5-0.3l0.1,0.7
		c-0.1,0-0.2,0.1-0.3,0.2s-0.1,0.2-0.2,0.3c0,0.1-0.1,0.2-0.1,0.3c0,0.1,0,0.2,0,0.3c0,0.2,0.1,0.4,0.2,0.5s0.3,0.2,0.4,0.2
		c0.2,0,0.3-0.1,0.4-0.2c0.1-0.1,0.1-0.3,0.2-0.6l0.1-0.6c0-0.4,0.1-0.7,0.3-0.9c0.2-0.2,0.4-0.3,0.7-0.4c0.2,0,0.3,0,0.5,0
		c0.1,0,0.3,0.1,0.4,0.2c0.1,0.1,0.2,0.2,0.3,0.4c0.1,0.2,0.1,0.3,0.2,0.5c0,0.2,0,0.4,0,0.6c0,0.2-0.1,0.3-0.2,0.5
		c-0.1,0.1-0.2,0.3-0.3,0.4c-0.1,0.1-0.3,0.2-0.4,0.2l-0.1-0.7c0.2-0.1,0.3-0.2,0.4-0.4c0.1-0.2,0.1-0.3,0.1-0.5
		c0-0.2-0.1-0.3-0.2-0.5c-0.1-0.1-0.2-0.2-0.4-0.1c-0.2,0-0.3,0.1-0.3,0.2c-0.1,0.1-0.1,0.3-0.1,0.5l-0.1,0.7c0,0.4-0.1,0.6-0.3,0.8
		c-0.2,0.2-0.4,0.3-0.7,0.4c-0.2,0-0.4,0-0.5,0c-0.2,0-0.3-0.1-0.4-0.3c-0.1-0.1-0.2-0.3-0.3-0.4
		C335.9,242.1,335.8,241.9,335.8,241.7z"/>
</g>
<g class="st20">
	<path d="M336.4,245.4c0-0.2,0-0.4,0-0.6c0-0.2,0.1-0.4,0.2-0.5c0.1-0.2,0.2-0.3,0.3-0.4c0.1-0.1,0.3-0.2,0.5-0.2l0.1,0.7
		c-0.1,0-0.2,0.1-0.3,0.2c-0.1,0.1-0.1,0.2-0.2,0.3c0,0.1-0.1,0.2-0.1,0.3c0,0.1,0,0.2,0,0.3c0,0.2,0.1,0.4,0.2,0.5
		c0.1,0.1,0.3,0.2,0.4,0.2c0.2,0,0.3-0.1,0.4-0.2c0.1-0.1,0.1-0.3,0.2-0.6l0.1-0.6c0-0.4,0.2-0.6,0.3-0.8c0.2-0.2,0.4-0.3,0.7-0.4
		c0.2,0,0.3,0,0.5,0c0.1,0.1,0.3,0.1,0.4,0.2c0.1,0.1,0.2,0.2,0.3,0.4c0.1,0.2,0.1,0.3,0.2,0.6c0,0.2,0,0.4,0,0.6
		c0,0.2-0.1,0.3-0.2,0.5c-0.1,0.1-0.2,0.3-0.3,0.4c-0.1,0.1-0.3,0.2-0.4,0.2l-0.1-0.7c0.2-0.1,0.3-0.2,0.4-0.3
		c0.1-0.2,0.1-0.3,0.1-0.5c0-0.2-0.1-0.4-0.2-0.5c-0.1-0.1-0.2-0.2-0.4-0.2c-0.2,0-0.3,0.1-0.3,0.2c-0.1,0.1-0.1,0.3-0.2,0.5
		l-0.1,0.7c0,0.4-0.1,0.6-0.3,0.8s-0.4,0.3-0.7,0.4c-0.2,0-0.4,0-0.5,0c-0.2-0.1-0.3-0.1-0.4-0.3s-0.2-0.3-0.3-0.4
		C336.5,245.8,336.4,245.6,336.4,245.4z"/>
</g>
<g class="st20">
	<path d="M340.8,247.4l0.1,0.7l-4,0.5l-0.1-0.7L340.8,247.4z M342,247.6c0-0.1,0-0.3,0.1-0.4c0.1-0.1,0.2-0.2,0.3-0.2
		c0.1,0,0.3,0,0.4,0.1c0.1,0.1,0.2,0.2,0.2,0.3c0,0.1,0,0.3-0.1,0.4c-0.1,0.1-0.2,0.2-0.3,0.2c-0.1,0-0.3,0-0.4-0.1
		C342.1,247.9,342,247.8,342,247.6z"/>
</g>
<g class="st20">
	<path d="M341.1,249.5l0.1,0.7l-0.6,0.1c0.3,0.1,0.5,0.3,0.6,0.5c0.1,0.2,0.2,0.5,0.2,0.7c0,0.2,0,0.4-0.1,0.6
		c-0.1,0.2-0.2,0.4-0.3,0.5s-0.3,0.3-0.5,0.4c-0.2,0.1-0.4,0.2-0.7,0.2l-2.5,0.3l-0.1-0.7l2.4-0.2c0.3,0,0.6-0.2,0.8-0.3
		c0.2-0.2,0.3-0.4,0.2-0.7c0-0.2-0.1-0.3-0.1-0.5c-0.1-0.1-0.2-0.3-0.3-0.3s-0.3-0.2-0.5-0.2c-0.2,0-0.4-0.1-0.6,0l-2,0.2l-0.1-0.7
		L341.1,249.5z"/>
</g>
<g class="st20">
	<path d="M335.8,256.5c0-0.3,0-0.5,0.1-0.8c0.1-0.2,0.1-0.4,0.3-0.6c0.1-0.2,0.3-0.3,0.4-0.4s0.4-0.2,0.6-0.2l0,0.7
		c-0.3,0.1-0.5,0.3-0.6,0.5c-0.1,0.2-0.2,0.5-0.1,0.8c0,0.2,0.1,0.4,0.1,0.5c0.1,0.2,0.2,0.3,0.3,0.4c0.1,0.1,0.3,0.2,0.5,0.2
		c0.2,0.1,0.4,0.1,0.6,0.1l0.5,0c-0.2-0.1-0.4-0.3-0.5-0.6c-0.2-0.2-0.2-0.5-0.3-0.8c0-0.3,0-0.6,0.1-0.8c0.1-0.3,0.2-0.5,0.4-0.7
		c0.2-0.2,0.4-0.3,0.6-0.5c0.2-0.1,0.5-0.2,0.8-0.2c0.3,0,0.6,0,0.8,0.1c0.3,0.1,0.5,0.2,0.7,0.4c0.2,0.2,0.4,0.4,0.5,0.6
		c0.1,0.2,0.2,0.5,0.2,0.8c0,0.3,0,0.6-0.2,0.8c-0.1,0.3-0.3,0.5-0.5,0.6l0.6,0l0,0.7l-3.8,0.2c-0.3,0-0.6,0-0.9-0.1
		c-0.3-0.1-0.5-0.2-0.7-0.4s-0.3-0.4-0.4-0.6C335.9,257.1,335.8,256.8,335.8,256.5z M338.2,256.4c0,0.2,0.1,0.4,0.1,0.6
		c0.1,0.2,0.2,0.3,0.3,0.4c0.1,0.1,0.3,0.2,0.5,0.3c0.2,0.1,0.4,0.1,0.6,0.1c0.2,0,0.4-0.1,0.6-0.1c0.2-0.1,0.3-0.2,0.4-0.3
		c0.1-0.1,0.2-0.3,0.3-0.5c0.1-0.2,0.1-0.4,0.1-0.6c0-0.2-0.1-0.4-0.1-0.6c-0.1-0.2-0.2-0.3-0.3-0.4c-0.1-0.1-0.3-0.2-0.5-0.3
		c-0.2-0.1-0.4-0.1-0.6-0.1c-0.2,0-0.4,0.1-0.6,0.1c-0.2,0.1-0.3,0.2-0.4,0.3c-0.1,0.1-0.2,0.3-0.3,0.5
		C338.3,256,338.2,256.2,338.2,256.4z"/>
</g>
<g class="st20">
	<path d="M63.2,245.5l-0.3,1.8l-0.7-0.1l0.6-4.3l0.7,0.1l-0.3,1.8l5,0.7l-0.1,0.7L63.2,245.5z"/>
</g>
<g class="st20">
	<path d="M64.6,243l0.1-0.7l0.8,0.1c-0.1-0.1-0.2-0.1-0.3-0.2s-0.2-0.2-0.2-0.3c-0.1-0.1-0.1-0.2-0.1-0.4c0-0.1,0-0.2,0-0.4
		c0-0.1,0-0.2,0.1-0.3l0.7,0.1c0,0.1-0.1,0.1-0.1,0.2c0,0.1,0,0.1,0,0.2c0,0.1,0,0.3,0,0.4c0,0.1,0.1,0.3,0.2,0.4
		c0.1,0.1,0.2,0.2,0.4,0.3c0.2,0.1,0.4,0.2,0.6,0.2l2,0.3l-0.1,0.7L64.6,243z"/>
</g>
<g class="st20">
	<path d="M69.5,239.2c-0.1,0.3-0.2,0.5-0.3,0.8c-0.2,0.2-0.3,0.4-0.6,0.5s-0.5,0.2-0.7,0.3c-0.3,0.1-0.5,0-0.8,0
		c-0.3-0.1-0.5-0.2-0.8-0.3c-0.2-0.1-0.4-0.3-0.6-0.5s-0.3-0.4-0.3-0.7c-0.1-0.3-0.1-0.5,0-0.8c0.1-0.3,0.2-0.6,0.4-0.8
		c0.2-0.2,0.4-0.4,0.6-0.5l-0.6-0.1l0.1-0.7l4,0.8l-0.1,0.7l-0.6-0.1c0.2,0.2,0.3,0.4,0.4,0.7C69.5,238.6,69.5,238.9,69.5,239.2z
		 M68.9,239c0-0.2,0-0.4,0-0.6c0-0.2-0.1-0.3-0.2-0.5c-0.1-0.1-0.2-0.3-0.4-0.4c-0.2-0.1-0.3-0.2-0.5-0.2c-0.2,0-0.4,0-0.6,0
		c-0.2,0-0.4,0.1-0.5,0.2c-0.2,0.1-0.3,0.2-0.4,0.4c-0.1,0.2-0.2,0.3-0.2,0.5c0,0.2,0,0.4,0,0.6c0,0.2,0.1,0.3,0.2,0.5
		c0.1,0.1,0.2,0.3,0.4,0.4c0.2,0.1,0.3,0.2,0.5,0.2c0.2,0,0.4,0,0.6,0c0.2,0,0.4-0.1,0.5-0.2c0.2-0.1,0.3-0.2,0.4-0.4
		C68.7,239.4,68.8,239.2,68.9,239z"/>
</g>
<g class="st20">
	<path d="M66.1,234.9l0.2-0.7l0.6,0.1c-0.2-0.2-0.3-0.4-0.4-0.7s-0.1-0.5,0-0.8c0.1-0.2,0.1-0.4,0.3-0.6s0.3-0.3,0.4-0.4
		c0.2-0.1,0.4-0.2,0.6-0.2s0.4,0,0.7,0l2.4,0.6l-0.2,0.7l-2.3-0.6c-0.3-0.1-0.6-0.1-0.9,0.1c-0.2,0.1-0.4,0.3-0.4,0.6
		c0,0.2,0,0.3,0,0.5c0,0.2,0.1,0.3,0.2,0.4c0.1,0.1,0.2,0.3,0.4,0.4c0.2,0.1,0.4,0.2,0.6,0.2l2,0.5l-0.2,0.7L66.1,234.9z"/>
</g>
<g class="st20">
	<path d="M71.6,230c-0.1,0.2-0.1,0.4-0.2,0.6c-0.1,0.2-0.2,0.3-0.4,0.4c-0.1,0.1-0.3,0.2-0.5,0.2c-0.2,0-0.4,0.1-0.6,0l0.2-0.7
		c0.1,0,0.2,0,0.3,0c0.1,0,0.2-0.1,0.3-0.2s0.1-0.2,0.2-0.2c0-0.1,0.1-0.2,0.1-0.3c0.1-0.2,0.1-0.4,0-0.6c0-0.2-0.2-0.3-0.3-0.3
		c-0.2,0-0.3,0-0.4,0c-0.1,0.1-0.3,0.2-0.4,0.4l-0.3,0.5c-0.2,0.3-0.4,0.5-0.6,0.7c-0.2,0.1-0.5,0.1-0.8,0.1c-0.2,0-0.3-0.1-0.4-0.2
		c-0.1-0.1-0.2-0.2-0.3-0.4c-0.1-0.1-0.1-0.3-0.1-0.5c0-0.2,0-0.4,0.1-0.6c0.1-0.2,0.1-0.4,0.2-0.5c0.1-0.2,0.2-0.3,0.4-0.4
		c0.1-0.1,0.3-0.2,0.4-0.2c0.2,0,0.3,0,0.5,0l-0.2,0.7c-0.2,0-0.3,0.1-0.5,0.2c-0.1,0.1-0.2,0.3-0.3,0.4c-0.1,0.2,0,0.4,0,0.5
		s0.2,0.3,0.3,0.3c0.1,0,0.3,0,0.4,0c0.1-0.1,0.2-0.2,0.3-0.4l0.3-0.6c0.2-0.3,0.4-0.5,0.6-0.6c0.2-0.1,0.5-0.1,0.8-0.1
		c0.2,0.1,0.4,0.1,0.5,0.2c0.1,0.1,0.2,0.2,0.3,0.4c0.1,0.2,0.1,0.3,0.1,0.5C71.7,229.6,71.6,229.7,71.6,230z"/>
</g>
<g class="st20">
	<path d="M72.7,226c-0.1,0.3-0.2,0.5-0.4,0.7c-0.2,0.2-0.4,0.4-0.6,0.5c-0.2,0.1-0.5,0.2-0.8,0.2c-0.3,0-0.6,0-0.8-0.1
		s-0.5-0.2-0.7-0.4c-0.2-0.2-0.4-0.4-0.5-0.6s-0.2-0.5-0.3-0.7c0-0.3,0-0.5,0.1-0.8c0.1-0.3,0.2-0.5,0.4-0.8
		c0.2-0.2,0.4-0.3,0.7-0.4l-0.6-0.2l0.2-0.7l3.9,1.2l-0.2,0.7l-0.6-0.2c0.1,0.2,0.3,0.4,0.3,0.7C72.8,225.4,72.8,225.7,72.7,226z
		 M72.1,225.7c0.1-0.2,0.1-0.4,0.1-0.6c0-0.2-0.1-0.4-0.2-0.5c-0.1-0.2-0.2-0.3-0.4-0.4c-0.2-0.1-0.3-0.2-0.5-0.3
		c-0.2-0.1-0.4-0.1-0.6-0.1c-0.2,0-0.4,0.1-0.5,0.1c-0.2,0.1-0.3,0.2-0.4,0.3c-0.1,0.1-0.2,0.3-0.3,0.5c-0.1,0.2-0.1,0.4-0.1,0.6
		c0,0.2,0.1,0.4,0.2,0.5c0.1,0.2,0.2,0.3,0.4,0.4c0.2,0.1,0.3,0.2,0.5,0.3c0.2,0.1,0.4,0.1,0.6,0.1c0.2,0,0.4-0.1,0.5-0.1
		c0.2-0.1,0.3-0.2,0.4-0.3C72,226,72,225.9,72.1,225.7z"/>
</g>
<g class="st20">
	<path d="M74.3,221c-0.1,0.3-0.2,0.5-0.4,0.8c-0.2,0.2-0.4,0.4-0.7,0.5c-0.2,0.1-0.5,0.2-0.8,0.2c-0.3,0-0.6,0-0.8-0.1
		c-0.3-0.1-0.5-0.2-0.7-0.4c-0.2-0.2-0.4-0.4-0.5-0.6c-0.1-0.2-0.2-0.5-0.2-0.8c0-0.3,0-0.6,0.1-0.9c0.1-0.2,0.2-0.5,0.3-0.6
		c0.1-0.2,0.3-0.3,0.5-0.5c0.2-0.1,0.4-0.2,0.6-0.3c0.2-0.1,0.4-0.1,0.7-0.1l-0.2,0.7c-0.3,0-0.5,0.1-0.8,0.3
		c-0.2,0.2-0.4,0.4-0.5,0.7c-0.1,0.2-0.1,0.4-0.1,0.6c0,0.2,0.1,0.4,0.2,0.5c0.1,0.2,0.2,0.3,0.4,0.4s0.3,0.2,0.5,0.3
		c0.2,0.1,0.4,0.1,0.6,0.1s0.4,0,0.5-0.1c0.2-0.1,0.3-0.2,0.4-0.3c0.1-0.1,0.2-0.3,0.3-0.5c0.1-0.3,0.1-0.6,0-0.9
		c-0.1-0.3-0.2-0.5-0.4-0.7l0.2-0.7c0.2,0.1,0.4,0.3,0.5,0.5c0.1,0.2,0.2,0.4,0.3,0.6c0.1,0.2,0.1,0.4,0.1,0.7
		C74.4,220.5,74.4,220.7,74.3,221z"/>
</g>
<g class="st20">
	<path d="M75.8,216.7c-0.1,0.2-0.1,0.3-0.2,0.4c-0.1,0.1-0.2,0.2-0.4,0.3c-0.1,0.1-0.3,0.1-0.5,0.1c-0.2,0-0.4,0-0.6-0.1l-2.1-0.8
		l-0.3,0.8l-0.6-0.2l0.3-0.8l-1.1-0.4l0.2-0.7l1.1,0.4l0.4-1.1l0.6,0.2l-0.4,1.1l2,0.7c0.2,0.1,0.4,0.1,0.6,0
		c0.1-0.1,0.2-0.2,0.3-0.4c0-0.1,0.1-0.2,0.1-0.3c0-0.1,0-0.2,0-0.2l0.6,0.2c0,0.1,0,0.2,0,0.3C75.8,216.5,75.8,216.6,75.8,216.7z"
		/>
</g>
<g class="st20">
	<path d="M71.6,213.1c-0.1,0.1-0.1,0.2-0.3,0.3c-0.1,0.1-0.3,0.1-0.4,0c-0.1,0-0.2-0.1-0.3-0.3c-0.1-0.1-0.1-0.3,0-0.4
		c0.1-0.1,0.1-0.2,0.3-0.3c0.1,0,0.3-0.1,0.4,0c0.1,0.1,0.2,0.1,0.3,0.3C71.6,212.8,71.6,213,71.6,213.1z M72.5,213.8l0.3-0.7
		l3.8,1.5l-0.3,0.7L72.5,213.8z"/>
</g>
<g class="st20">
	<path d="M77.8,211.8c-0.1,0.3-0.3,0.5-0.5,0.7c-0.2,0.2-0.4,0.3-0.7,0.4s-0.5,0.2-0.8,0.1c-0.3,0-0.6-0.1-0.8-0.2
		c-0.3-0.1-0.5-0.3-0.7-0.5c-0.2-0.2-0.3-0.4-0.4-0.7c-0.1-0.2-0.2-0.5-0.2-0.8c0-0.3,0.1-0.6,0.2-0.9c0.1-0.3,0.3-0.5,0.5-0.7
		c0.2-0.2,0.4-0.3,0.7-0.4c0.3-0.1,0.5-0.2,0.8-0.1c0.3,0,0.6,0.1,0.8,0.2c0.3,0.1,0.5,0.3,0.7,0.5c0.2,0.2,0.3,0.4,0.4,0.7
		c0.1,0.2,0.2,0.5,0.2,0.8C78,211.2,77.9,211.5,77.8,211.8z M77.2,211.5c0.1-0.2,0.1-0.4,0.1-0.6c0-0.2,0-0.4-0.1-0.5
		c-0.1-0.2-0.2-0.3-0.3-0.4c-0.1-0.1-0.3-0.2-0.5-0.3c-0.2-0.1-0.4-0.1-0.6-0.1c-0.2,0-0.4,0-0.5,0.1c-0.2,0.1-0.3,0.2-0.5,0.3
		c-0.1,0.1-0.2,0.3-0.3,0.5c-0.1,0.2-0.1,0.4-0.1,0.6c0,0.2,0,0.4,0.1,0.5c0.1,0.2,0.2,0.3,0.3,0.5c0.1,0.1,0.3,0.2,0.5,0.3
		c0.2,0.1,0.4,0.1,0.6,0.1c0.2,0,0.4,0,0.5-0.1c0.2-0.1,0.3-0.2,0.5-0.3C77,211.9,77.1,211.7,77.2,211.5z"/>
</g>
<g class="st20">
	<path d="M75.2,207.2l0.3-0.6l0.6,0.3c-0.2-0.2-0.2-0.5-0.3-0.7c0-0.3,0-0.5,0.2-0.7c0.1-0.2,0.2-0.4,0.4-0.5
		c0.1-0.1,0.3-0.2,0.5-0.3c0.2-0.1,0.4-0.1,0.6-0.1c0.2,0,0.4,0.1,0.7,0.2l2.3,1.1l-0.3,0.6l-2.2-1c-0.3-0.1-0.6-0.2-0.8-0.1
		c-0.3,0.1-0.4,0.2-0.6,0.5c-0.1,0.1-0.1,0.3-0.1,0.5c0,0.2,0,0.3,0.1,0.5c0.1,0.2,0.2,0.3,0.3,0.4c0.1,0.1,0.3,0.3,0.5,0.4l1.8,0.9
		l-0.3,0.6L75.2,207.2z"/>
</g>
<g class="st20">
	<path d="M81.8,203.2c-0.1,0.3-0.3,0.5-0.5,0.6c-0.2,0.2-0.4,0.3-0.7,0.4s-0.5,0.1-0.8,0.1c-0.3,0-0.5-0.1-0.8-0.2
		c-0.3-0.1-0.5-0.3-0.7-0.5c-0.2-0.2-0.3-0.4-0.4-0.7c-0.1-0.2-0.1-0.5-0.1-0.8c0-0.3,0.1-0.5,0.2-0.8c0.1-0.3,0.3-0.5,0.6-0.7
		c0.2-0.2,0.5-0.3,0.7-0.3l-0.6-0.3l0.3-0.6l3.6,1.8l-0.3,0.6l-0.6-0.3c0.1,0.2,0.2,0.5,0.2,0.8C82,202.6,81.9,202.9,81.8,203.2z
		 M81.3,202.8c0.1-0.2,0.1-0.4,0.2-0.6c0-0.2,0-0.4-0.1-0.5c-0.1-0.2-0.2-0.3-0.3-0.5c-0.1-0.1-0.3-0.3-0.5-0.4s-0.4-0.2-0.6-0.2
		c-0.2,0-0.4,0-0.5,0c-0.2,0-0.3,0.1-0.5,0.2c-0.1,0.1-0.3,0.3-0.4,0.5c-0.1,0.2-0.1,0.4-0.2,0.6c0,0.2,0,0.4,0.1,0.5
		c0.1,0.2,0.2,0.3,0.3,0.5c0.1,0.1,0.3,0.3,0.5,0.4c0.2,0.1,0.4,0.2,0.6,0.2c0.2,0,0.4,0,0.5,0c0.2,0,0.3-0.1,0.5-0.3
		C81,203.1,81.2,203,81.3,202.8z"/>
</g>
<g class="st20">
	<path d="M77.9,197.1l0.3-0.6l5.4,2.9l-0.3,0.6L77.9,197.1z"/>
</g>
<g class="st20">
	<path d="M261.2,136.1l0.8,0.4l-0.2,5l3.8-3.3l0.7,0.4l-4.7,4.2l-0.6-0.3L261.2,136.1z"/>
</g>
<g class="st20">
	<path d="M265.4,144.8c-0.3-0.1-0.5-0.3-0.7-0.5c-0.2-0.2-0.3-0.4-0.4-0.7c-0.1-0.3-0.1-0.5-0.1-0.8c0-0.3,0.1-0.6,0.2-0.8
		c0.1-0.3,0.3-0.5,0.5-0.7c0.2-0.2,0.4-0.3,0.7-0.4c0.2-0.1,0.5-0.1,0.8-0.1c0.3,0,0.6,0.1,0.8,0.3c0.3,0.1,0.5,0.3,0.7,0.6
		c0.2,0.2,0.3,0.5,0.3,0.7s0.1,0.5,0,0.8c-0.1,0.3-0.2,0.6-0.3,0.8l-3-1.5c-0.1,0.2-0.1,0.3-0.1,0.5s0,0.3,0.1,0.5
		c0.1,0.2,0.1,0.3,0.3,0.4c0.1,0.1,0.3,0.2,0.4,0.3c0.2,0.1,0.5,0.2,0.7,0.2c0.2,0,0.5-0.1,0.7-0.2l0.6,0.3
		c-0.1,0.1-0.3,0.3-0.4,0.3c-0.2,0.1-0.4,0.2-0.6,0.2s-0.4,0-0.6,0C265.8,145,265.6,144.9,265.4,144.8z M267,141.5
		c-0.1-0.1-0.3-0.1-0.4-0.1c-0.1,0-0.3,0-0.4,0c-0.1,0-0.3,0.1-0.4,0.2c-0.1,0.1-0.3,0.2-0.4,0.4l2.3,1.2c0.1-0.4,0.1-0.7,0-1
		C267.5,141.9,267.3,141.7,267,141.5z"/>
</g>
<g class="st20">
	<path d="M269.5,147.1c-0.3-0.2-0.5-0.3-0.7-0.6c-0.2-0.2-0.3-0.5-0.4-0.7c-0.1-0.3-0.1-0.5-0.1-0.8c0-0.3,0.1-0.5,0.3-0.8
		c0.1-0.3,0.3-0.5,0.5-0.6c0.2-0.2,0.5-0.3,0.7-0.4c0.3-0.1,0.5-0.1,0.8-0.1c0.3,0,0.6,0.1,0.8,0.3c0.2,0.1,0.4,0.3,0.6,0.5
		c0.2,0.2,0.3,0.4,0.4,0.6c0.1,0.2,0.1,0.4,0.2,0.6c0,0.2,0,0.4-0.1,0.7l-0.7-0.4c0-0.3,0-0.5-0.1-0.8c-0.1-0.3-0.3-0.5-0.6-0.6
		c-0.2-0.1-0.4-0.2-0.6-0.2c-0.2,0-0.4,0-0.5,0.1s-0.3,0.1-0.5,0.3c-0.1,0.1-0.3,0.3-0.4,0.5c-0.1,0.2-0.2,0.4-0.2,0.6
		c0,0.2,0,0.4,0,0.6c0,0.2,0.1,0.3,0.2,0.5c0.1,0.2,0.3,0.3,0.4,0.4c0.3,0.2,0.6,0.2,0.8,0.2c0.3,0,0.5-0.1,0.7-0.3l0.7,0.4
		c-0.2,0.2-0.3,0.3-0.5,0.4c-0.2,0.1-0.4,0.2-0.6,0.2c-0.2,0-0.5,0-0.7,0C270,147.3,269.8,147.2,269.5,147.1z"/>
</g>
<g class="st20">
	<path d="M273.4,149.3c-0.2-0.1-0.3-0.2-0.4-0.3c-0.1-0.1-0.2-0.3-0.2-0.4c0-0.1-0.1-0.3,0-0.5c0-0.2,0.1-0.3,0.2-0.5l1.2-1.9
		l-0.7-0.5l0.3-0.6l0.7,0.5l0.6-1l0.6,0.4l-0.6,1l1,0.6l-0.3,0.6l-1-0.6l-1.1,1.8c-0.1,0.2-0.2,0.4-0.1,0.6c0,0.1,0.2,0.3,0.4,0.4
		c0.1,0,0.2,0.1,0.2,0.1c0.1,0,0.2,0.1,0.2,0.1l-0.3,0.5c-0.1,0-0.2-0.1-0.3-0.1C273.6,149.4,273.5,149.4,273.4,149.3z"/>
</g>
<g class="st20">
	<path d="M276.1,151.1c-0.3-0.2-0.5-0.4-0.6-0.6c-0.2-0.2-0.3-0.5-0.3-0.8s-0.1-0.5,0-0.8c0.1-0.3,0.2-0.5,0.3-0.8s0.4-0.5,0.6-0.6
		c0.2-0.2,0.5-0.3,0.7-0.3c0.3-0.1,0.5-0.1,0.8,0c0.3,0,0.6,0.2,0.8,0.3c0.3,0.2,0.5,0.4,0.6,0.6c0.2,0.2,0.3,0.5,0.3,0.8
		c0.1,0.3,0.1,0.5,0,0.8s-0.2,0.5-0.3,0.8c-0.2,0.2-0.4,0.5-0.6,0.6s-0.5,0.3-0.7,0.3c-0.3,0.1-0.5,0.1-0.8,0
		S276.4,151.3,276.1,151.1z M276.5,150.5c0.2,0.1,0.4,0.2,0.5,0.2c0.2,0,0.4,0,0.5,0c0.2,0,0.3-0.1,0.5-0.2c0.2-0.1,0.3-0.3,0.4-0.4
		c0.1-0.2,0.2-0.3,0.2-0.5c0-0.2,0-0.4,0-0.6c0-0.2-0.1-0.3-0.2-0.5c-0.1-0.2-0.2-0.3-0.4-0.4c-0.2-0.1-0.4-0.2-0.5-0.2
		c-0.2,0-0.4,0-0.5,0c-0.2,0-0.3,0.1-0.5,0.2c-0.2,0.1-0.3,0.3-0.4,0.4c-0.1,0.2-0.2,0.4-0.2,0.5c0,0.2,0,0.4,0,0.5
		c0,0.2,0.1,0.4,0.2,0.5C276.2,150.3,276.3,150.4,276.5,150.5z"/>
</g>
<g class="st20">
	<path d="M281.1,149.4l0.6,0.4l-0.5,0.7c0.1-0.1,0.2-0.1,0.3-0.2s0.3-0.1,0.4-0.1s0.2,0,0.4,0.1c0.1,0,0.2,0.1,0.3,0.2
		c0.1,0.1,0.2,0.1,0.2,0.2l-0.4,0.6c0-0.1-0.1-0.1-0.1-0.2c0,0-0.1-0.1-0.2-0.1c-0.1-0.1-0.2-0.1-0.4-0.2s-0.3,0-0.4,0
		c-0.1,0-0.3,0.1-0.5,0.2c-0.2,0.1-0.3,0.3-0.4,0.5l-1.2,1.7l-0.6-0.4L281.1,149.4z"/>
</g>
<g class="st20">
	<path d="M283.9,156.6c-0.2-0.2-0.4-0.4-0.6-0.6s-0.2-0.4-0.3-0.7c0-0.2-0.1-0.4,0-0.7c0-0.2,0.1-0.4,0.3-0.6l0.6,0.5
		c-0.1,0.1-0.1,0.3-0.1,0.4c0,0.1,0,0.3,0.1,0.4c0,0.1,0.1,0.3,0.2,0.4c0.1,0.1,0.2,0.2,0.3,0.3c0.1,0.1,0.2,0.2,0.4,0.2
		c0.1,0,0.3,0.1,0.4,0.1c0.1,0,0.2,0,0.3-0.1c0.1-0.1,0.2-0.1,0.3-0.2c0.3-0.4,0.2-0.8-0.1-1.3l-0.5-0.7c-0.3-0.4-0.4-0.8-0.4-1.1
		c0-0.3,0.1-0.7,0.3-1c0.1-0.2,0.3-0.3,0.5-0.4s0.4-0.2,0.6-0.2c0.2,0,0.4,0,0.6,0.1c0.2,0.1,0.4,0.2,0.6,0.3
		c0.2,0.2,0.4,0.4,0.5,0.6c0.1,0.2,0.2,0.4,0.2,0.6c0,0.2,0,0.4,0,0.6s-0.1,0.4-0.2,0.5l-0.6-0.5c0.1-0.3,0.1-0.6,0.1-0.8
		c-0.1-0.2-0.2-0.4-0.4-0.6c-0.2-0.2-0.5-0.3-0.7-0.3c-0.2,0-0.4,0.1-0.6,0.3c-0.1,0.2-0.2,0.4-0.2,0.6c0,0.2,0.1,0.4,0.3,0.7
		l0.4,0.7c0.3,0.4,0.4,0.8,0.4,1.1c0,0.4-0.1,0.7-0.3,1.1c-0.1,0.2-0.3,0.3-0.5,0.5s-0.4,0.2-0.6,0.2c-0.2,0-0.4,0-0.7-0.1
		C284.4,156.8,284.2,156.7,283.9,156.6z"/>
</g>
<g class="st20">
	<path d="M287.6,159.4c-0.2-0.2-0.4-0.4-0.5-0.6c-0.1-0.2-0.2-0.5-0.2-0.8c0-0.3,0-0.5,0.1-0.8c0.1-0.3,0.2-0.5,0.4-0.8
		c0.2-0.2,0.4-0.4,0.6-0.6c0.2-0.1,0.5-0.2,0.7-0.3c0.3,0,0.5,0,0.8,0.1s0.5,0.2,0.8,0.4s0.4,0.4,0.6,0.7c0.1,0.3,0.2,0.5,0.2,0.8
		c0,0.3-0.1,0.5-0.2,0.8c-0.1,0.3-0.3,0.5-0.5,0.8l-2.6-2.1c-0.1,0.1-0.2,0.3-0.2,0.5c0,0.2-0.1,0.3,0,0.5c0,0.2,0.1,0.3,0.2,0.5
		c0.1,0.2,0.2,0.3,0.3,0.4c0.2,0.2,0.4,0.3,0.6,0.3s0.5,0,0.7-0.1l0.6,0.5c-0.2,0.1-0.3,0.2-0.5,0.2c-0.2,0.1-0.4,0.1-0.6,0.1
		c-0.2,0-0.4,0-0.6-0.1C288,159.7,287.8,159.5,287.6,159.4z M289.8,156.5c-0.1-0.1-0.2-0.2-0.4-0.2c-0.1-0.1-0.3-0.1-0.4-0.1
		s-0.3,0-0.5,0.1c-0.2,0.1-0.3,0.2-0.5,0.3l2,1.6c0.2-0.3,0.3-0.7,0.2-0.9C290.2,157,290.1,156.7,289.8,156.5z"/>
</g>
<g class="st20">
	<path d="M291.1,162.3c-0.2-0.2-0.4-0.4-0.5-0.6c-0.1-0.2-0.2-0.5-0.2-0.8c0-0.3,0-0.5,0.1-0.8s0.2-0.5,0.4-0.7
		c0.2-0.2,0.4-0.4,0.7-0.5s0.5-0.2,0.8-0.2c0.3,0,0.5,0,0.8,0.1s0.5,0.2,0.7,0.4c0.2,0.2,0.4,0.4,0.5,0.7c0.1,0.3,0.1,0.5,0.1,0.8
		l0.4-0.5l0.5,0.5l-2.7,3.1l-0.5-0.5l0.4-0.5c-0.2,0.1-0.5,0.1-0.8,0C291.6,162.7,291.3,162.5,291.1,162.3z M291.6,161.9
		c0.2,0.1,0.3,0.2,0.5,0.3c0.2,0.1,0.4,0.1,0.5,0c0.2,0,0.4-0.1,0.5-0.2s0.3-0.2,0.5-0.4c0.1-0.2,0.2-0.3,0.3-0.5
		c0.1-0.2,0.1-0.4,0.1-0.5c0-0.2,0-0.4-0.1-0.5c-0.1-0.2-0.2-0.3-0.4-0.5c-0.2-0.1-0.3-0.2-0.5-0.3c-0.2-0.1-0.4-0.1-0.5-0.1
		c-0.2,0-0.4,0.1-0.5,0.2c-0.2,0.1-0.3,0.2-0.5,0.4c-0.1,0.2-0.2,0.3-0.3,0.5s-0.1,0.4-0.1,0.5c0,0.2,0,0.4,0.1,0.5
		C291.3,161.6,291.5,161.8,291.6,161.9z"/>
</g>
<g class="st20">
	<path d="M296.5,161.6l0.5,0.5l-0.5,0.6c0.1-0.1,0.2-0.1,0.4-0.1s0.3,0,0.4,0c0.1,0,0.2,0.1,0.4,0.1c0.1,0.1,0.2,0.1,0.3,0.2
		c0.1,0.1,0.1,0.2,0.2,0.2l-0.5,0.5c0-0.1-0.1-0.1-0.1-0.2c0,0-0.1-0.1-0.1-0.1c-0.1-0.1-0.2-0.2-0.3-0.2c-0.1,0-0.3-0.1-0.4,0
		c-0.2,0-0.3,0.1-0.5,0.2c-0.2,0.1-0.3,0.2-0.5,0.4l-1.4,1.5l-0.5-0.5L296.5,161.6z"/>
</g>
<g class="st20">
	<path d="M297,167.8c-0.2-0.2-0.4-0.5-0.5-0.7c-0.1-0.3-0.2-0.5-0.2-0.8c0-0.3,0.1-0.5,0.2-0.8c0.1-0.3,0.3-0.5,0.5-0.7
		c0.2-0.2,0.4-0.4,0.7-0.5c0.3-0.1,0.5-0.2,0.8-0.2c0.3,0,0.5,0,0.8,0.1c0.3,0.1,0.5,0.3,0.7,0.5c0.2,0.2,0.3,0.4,0.4,0.6
		c0.1,0.2,0.2,0.4,0.2,0.7c0,0.2,0,0.4,0,0.7c0,0.2-0.1,0.4-0.2,0.6l-0.5-0.5c0.1-0.3,0.1-0.5,0.1-0.8c-0.1-0.3-0.2-0.5-0.4-0.8
		c-0.2-0.1-0.3-0.3-0.5-0.3c-0.2-0.1-0.4-0.1-0.5-0.1s-0.4,0.1-0.5,0.1c-0.2,0.1-0.3,0.2-0.5,0.3c-0.1,0.1-0.3,0.3-0.3,0.5
		c-0.1,0.2-0.1,0.4-0.1,0.5c0,0.2,0,0.4,0.1,0.5c0.1,0.2,0.2,0.3,0.3,0.5c0.2,0.2,0.5,0.4,0.8,0.4c0.3,0,0.5,0,0.8-0.1l0.5,0.5
		c-0.2,0.1-0.4,0.2-0.6,0.2c-0.2,0-0.4,0.1-0.7,0c-0.2,0-0.4-0.1-0.7-0.2C297.4,168.1,297.2,168,297,167.8z"/>
</g>
<g class="st20">
	<path d="M299.2,169.8l4.4-4.2l0.5,0.5l-1.9,1.8c0.3-0.1,0.5-0.1,0.8,0c0.2,0.1,0.5,0.2,0.6,0.4c0.2,0.2,0.3,0.3,0.4,0.5
		s0.1,0.4,0.1,0.6c0,0.2-0.1,0.4-0.2,0.6c-0.1,0.2-0.2,0.4-0.4,0.6l-1.8,1.7l-0.5-0.5l1.7-1.7c0.2-0.2,0.4-0.5,0.4-0.8
		c0-0.3-0.1-0.5-0.3-0.7c-0.1-0.1-0.2-0.2-0.4-0.3c-0.1-0.1-0.3-0.1-0.5-0.1c-0.2,0-0.3,0.1-0.5,0.1c-0.2,0.1-0.4,0.2-0.5,0.4
		l-1.5,1.4L299.2,169.8z"/>
</g>
<g class="st20">
	<path d="M104.4,163.9l-1.3,1.3l-0.5-0.5l3.1-3l0.5,0.5l-1.3,1.3l3.5,3.7l-0.5,0.5L104.4,163.9z"/>
</g>
<g class="st20">
	<path d="M107,161.3c-0.1,0.1-0.2,0.1-0.4,0.1c-0.1,0-0.3-0.1-0.3-0.2c-0.1-0.1-0.1-0.2-0.1-0.4c0-0.1,0.1-0.3,0.2-0.4
		c0.1-0.1,0.2-0.1,0.4-0.1c0.1,0,0.2,0.1,0.3,0.2c0.1,0.1,0.1,0.2,0.1,0.4C107.2,161.1,107.1,161.2,107,161.3z M107.5,162.3l0.5-0.5
		l2.8,3l-0.5,0.5L107.5,162.3z"/>
</g>
<g class="st20">
	<path d="M114.2,158.7c-0.2-0.3-0.4-0.4-0.7-0.5c-0.2-0.1-0.5,0-0.7,0.2c-0.2,0.2-0.4,0.5-0.4,0.8c0,0.3,0.2,0.7,0.4,1l1.4,1.6
		l-0.5,0.5l-1.6-1.8c-0.2-0.3-0.4-0.4-0.7-0.5c-0.2-0.1-0.5,0-0.7,0.2c-0.3,0.2-0.4,0.5-0.4,0.8c0,0.3,0.2,0.7,0.5,1l1.3,1.5
		l-0.5,0.5l-2.7-3.1l0.5-0.5l0.4,0.5c-0.1-0.2,0-0.5,0-0.7c0.1-0.2,0.2-0.4,0.4-0.6c0.2-0.2,0.5-0.3,0.7-0.3c0.3,0,0.5,0,0.8,0.2
		c-0.1-0.3-0.1-0.5,0-0.8c0.1-0.3,0.2-0.5,0.5-0.7c0.2-0.1,0.3-0.2,0.5-0.3c0.2-0.1,0.4-0.1,0.6,0c0.2,0,0.4,0.1,0.6,0.2
		c0.2,0.1,0.4,0.3,0.5,0.5l1.6,1.9l-0.5,0.5L114.2,158.7z"/>
</g>
<g class="st20">
	<path d="M118.6,158.3c-0.2,0.2-0.5,0.3-0.7,0.4s-0.5,0.1-0.8,0.1c-0.3,0-0.5-0.1-0.8-0.3c-0.2-0.1-0.5-0.3-0.6-0.6
		c-0.2-0.2-0.3-0.5-0.4-0.7c-0.1-0.3-0.1-0.5-0.1-0.8c0-0.3,0.1-0.5,0.2-0.8c0.1-0.2,0.3-0.5,0.6-0.7s0.5-0.3,0.8-0.4
		c0.3-0.1,0.5-0.1,0.8,0c0.3,0.1,0.5,0.2,0.8,0.3s0.4,0.4,0.6,0.6l-2.6,2.1c0.1,0.1,0.3,0.3,0.4,0.3c0.2,0.1,0.3,0.1,0.5,0.1
		c0.2,0,0.3,0,0.5,0c0.2,0,0.3-0.1,0.5-0.2c0.2-0.2,0.3-0.3,0.4-0.6c0.1-0.2,0.1-0.5,0.1-0.7l0.6-0.4c0.1,0.2,0.1,0.4,0.1,0.5
		c0,0.2,0,0.4-0.1,0.6c-0.1,0.2-0.1,0.4-0.3,0.6C119,157.9,118.8,158.1,118.6,158.3z M116.3,155.4c-0.1,0.1-0.2,0.2-0.3,0.3
		s-0.1,0.3-0.2,0.4c0,0.1,0,0.3,0,0.5c0,0.2,0.1,0.3,0.2,0.5l2-1.6c-0.3-0.3-0.6-0.4-0.9-0.4C116.9,155.1,116.6,155.2,116.3,155.4z"
		/>
</g>
<g class="st20">
	<path d="M123.9,154.3c-0.3,0.2-0.5,0.3-0.8,0.4c-0.3,0.1-0.5,0.1-0.7,0.1c-0.2,0-0.4-0.1-0.6-0.2c-0.2-0.1-0.4-0.2-0.5-0.4l0.6-0.4
		c0.1,0.1,0.2,0.2,0.4,0.3c0.1,0,0.3,0.1,0.4,0.1c0.1,0,0.3,0,0.4-0.1c0.1-0.1,0.3-0.1,0.4-0.2c0.1-0.1,0.2-0.2,0.3-0.3
		c0.1-0.1,0.1-0.2,0.2-0.3c0-0.1,0-0.2,0-0.4c0-0.1-0.1-0.2-0.1-0.3c-0.3-0.4-0.7-0.5-1.2-0.3l-0.8,0.2c-0.5,0.1-0.9,0.2-1.2,0.1
		c-0.3-0.1-0.6-0.3-0.9-0.6c-0.1-0.2-0.2-0.4-0.3-0.6c0-0.2,0-0.4,0-0.6c0.1-0.2,0.1-0.4,0.3-0.6s0.3-0.3,0.5-0.5
		c0.2-0.2,0.5-0.3,0.7-0.3c0.2-0.1,0.5-0.1,0.7,0c0.2,0,0.4,0.1,0.6,0.2c0.2,0.1,0.3,0.2,0.5,0.4l-0.6,0.4c-0.2-0.2-0.5-0.3-0.7-0.3
		c-0.2,0-0.5,0.1-0.7,0.2c-0.2,0.2-0.4,0.4-0.5,0.6c-0.1,0.2,0,0.4,0.1,0.6c0.1,0.2,0.3,0.3,0.5,0.4c0.2,0,0.4,0,0.7-0.1l0.8-0.2
		c0.5-0.1,0.9-0.2,1.2-0.1c0.4,0.1,0.7,0.3,0.9,0.7c0.1,0.2,0.2,0.4,0.3,0.6c0,0.2,0,0.4,0,0.6c-0.1,0.2-0.2,0.4-0.3,0.6
		C124.3,154,124.1,154.1,123.9,154.3z"/>
</g>
<g class="st20">
	<path d="M127.7,151.7c-0.2,0.2-0.5,0.3-0.8,0.3c-0.3,0-0.5,0-0.8,0s-0.5-0.2-0.7-0.3c-0.2-0.2-0.4-0.4-0.6-0.6
		c-0.2-0.2-0.3-0.5-0.3-0.8s-0.1-0.5,0-0.8c0-0.3,0.1-0.5,0.3-0.7c0.2-0.2,0.4-0.4,0.6-0.6c0.3-0.2,0.5-0.3,0.8-0.3
		c0.3,0,0.5,0,0.8,0.1c0.3,0.1,0.5,0.2,0.7,0.4c0.2,0.2,0.4,0.4,0.6,0.7l-2.8,1.8c0.1,0.2,0.2,0.3,0.4,0.4c0.1,0.1,0.3,0.2,0.5,0.2
		c0.2,0,0.3,0,0.5,0s0.3-0.1,0.5-0.2c0.2-0.1,0.4-0.3,0.5-0.5c0.1-0.2,0.2-0.4,0.1-0.7l0.6-0.4c0.1,0.2,0.1,0.4,0.1,0.6
		c0,0.2,0,0.4-0.1,0.6c-0.1,0.2-0.2,0.4-0.3,0.5C128,151.4,127.9,151.6,127.7,151.7z M125.6,148.7c-0.1,0.1-0.2,0.2-0.3,0.3
		c-0.1,0.1-0.2,0.2-0.2,0.4c0,0.1-0.1,0.3-0.1,0.5c0,0.2,0.1,0.3,0.1,0.5l2.1-1.4c-0.3-0.3-0.5-0.4-0.8-0.5
		C126.2,148.5,125.9,148.5,125.6,148.7z"/>
</g>
<g class="st20">
	<path d="M128,146.6l0.6-0.4l0.4,0.7c0-0.1,0-0.3,0-0.4c0-0.1,0-0.3,0.1-0.4c0-0.1,0.1-0.2,0.2-0.3s0.2-0.2,0.3-0.2
		c0.1-0.1,0.2-0.1,0.3-0.1l0.4,0.6c-0.1,0-0.1,0-0.2,0.1c-0.1,0-0.1,0.1-0.2,0.1c-0.1,0.1-0.2,0.2-0.3,0.3c-0.1,0.1-0.1,0.2-0.2,0.4
		c0,0.2,0,0.3,0,0.5c0,0.2,0.1,0.4,0.2,0.6l1.1,1.7l-0.6,0.4L128,146.6z"/>
</g>
<g class="st20">
	<path d="M130.3,143.9c-0.1,0.1-0.2,0.1-0.4,0.1c-0.1,0-0.2-0.1-0.3-0.2c-0.1-0.1-0.1-0.2-0.1-0.4s0.1-0.2,0.2-0.3
		c0.1-0.1,0.2-0.1,0.4-0.1c0.1,0,0.2,0.1,0.3,0.2c0.1,0.1,0.1,0.2,0.1,0.4C130.5,143.7,130.4,143.8,130.3,143.9z M130.5,145l0.6-0.4
		l2.1,3.5l-0.6,0.4L130.5,145z"/>
</g>
<g class="st20">
	<path d="M135.9,146.7c-0.3,0.1-0.5,0.2-0.8,0.3s-0.5,0-0.8-0.1c-0.3-0.1-0.5-0.2-0.7-0.4c-0.2-0.2-0.4-0.4-0.6-0.7
		c-0.1-0.3-0.2-0.5-0.3-0.8s0-0.5,0-0.8c0.1-0.3,0.2-0.5,0.3-0.7s0.4-0.4,0.7-0.6c0.3-0.2,0.6-0.2,0.8-0.3c0.3,0,0.5,0,0.8,0.1
		c0.3,0.1,0.5,0.3,0.7,0.5c0.2,0.2,0.4,0.5,0.5,0.7l-2.9,1.6c0.1,0.2,0.2,0.3,0.4,0.4c0.1,0.1,0.3,0.2,0.5,0.2c0.2,0,0.3,0.1,0.5,0
		c0.2,0,0.3-0.1,0.5-0.2c0.2-0.1,0.4-0.3,0.5-0.5c0.1-0.2,0.2-0.4,0.2-0.7l0.6-0.4c0,0.2,0.1,0.4,0,0.6c0,0.2-0.1,0.4-0.1,0.6
		c-0.1,0.2-0.2,0.4-0.3,0.5S136.2,146.5,135.9,146.7z M134.1,143.5c-0.1,0.1-0.2,0.2-0.3,0.3c-0.1,0.1-0.2,0.2-0.2,0.4
		c-0.1,0.1-0.1,0.3-0.1,0.5c0,0.2,0,0.3,0.1,0.5l2.2-1.3c-0.2-0.3-0.5-0.5-0.8-0.5S134.4,143.4,134.1,143.5z"/>
</g>
<g class="st20">
	<path d="M139.7,144.6c-0.2,0.1-0.4,0.2-0.6,0.2c-0.2,0-0.4,0.1-0.6,0c-0.2,0-0.3-0.1-0.5-0.2c-0.2-0.1-0.3-0.2-0.4-0.4l0.6-0.3
		c0.1,0.1,0.2,0.2,0.3,0.2c0.1,0,0.2,0.1,0.3,0.1c0.1,0,0.2,0,0.3,0c0.1,0,0.2-0.1,0.3-0.1c0.2-0.1,0.3-0.2,0.4-0.4
		c0.1-0.1,0.1-0.3,0-0.5c-0.1-0.1-0.2-0.2-0.3-0.3c-0.1,0-0.3,0-0.6,0l-0.6,0.1c-0.4,0.1-0.7,0.1-0.9,0c-0.3-0.1-0.4-0.3-0.6-0.5
		c-0.1-0.1-0.1-0.3-0.1-0.5c0-0.2,0-0.3,0.1-0.4c0.1-0.1,0.2-0.3,0.3-0.4c0.1-0.1,0.3-0.2,0.5-0.3c0.2-0.1,0.4-0.2,0.6-0.2
		c0.2,0,0.4,0,0.5,0c0.2,0,0.3,0.1,0.4,0.2s0.2,0.2,0.3,0.3l-0.6,0.3c-0.1-0.1-0.3-0.2-0.5-0.2c-0.2,0-0.3,0-0.5,0.1
		c-0.2,0.1-0.3,0.2-0.4,0.4c-0.1,0.1-0.1,0.3,0,0.4c0.1,0.1,0.2,0.2,0.3,0.3c0.1,0,0.3,0,0.5,0l0.7-0.2c0.3-0.1,0.6-0.1,0.9,0
		c0.3,0.1,0.5,0.3,0.6,0.6c0.1,0.2,0.1,0.4,0.1,0.5c0,0.2,0,0.3-0.1,0.5c-0.1,0.1-0.2,0.3-0.3,0.4
		C140,144.4,139.9,144.5,139.7,144.6z"/>
</g>
<g class="st20">
	<path d="M172.2,126.6l3.3-0.7l0.2,0.7l-2.6,0.5l0.4,1.7l2-0.4l0.2,0.7l-2,0.4l0.5,2.6l-0.7,0.2L172.2,126.6z"/>
</g>
<g class="st20">
	<path d="M178.7,131.3c-0.2,0-0.4,0-0.6,0c-0.2,0-0.4-0.1-0.5-0.2c-0.2-0.1-0.3-0.3-0.4-0.5c-0.1-0.2-0.2-0.4-0.2-0.7l-0.4-2.5
		l0.7-0.1l0.4,2.4c0.1,0.3,0.2,0.6,0.4,0.8c0.2,0.2,0.4,0.2,0.7,0.2c0.2,0,0.3-0.1,0.4-0.2c0.1-0.1,0.2-0.2,0.3-0.4
		c0.1-0.1,0.1-0.3,0.2-0.5c0-0.2,0-0.4,0-0.6l-0.3-2l0.7-0.1l0.7,4l-0.7,0.1l-0.1-0.6c-0.1,0.3-0.2,0.5-0.4,0.6
		C179.2,131.2,178.9,131.3,178.7,131.3z"/>
</g>
<g class="st20">
	<path d="M181,124.7l0.7-0.1l0.9,6.1l-0.7,0.1L181,124.7z"/>
</g>
<g class="st20">
	<path d="M183,124.3l0.7-0.1l0.8,6.1l-0.7,0.1L183,124.3z"/>
</g>
<g class="st20">
	<path d="M185.4,127.6l2.1-0.2l0.1,0.7l-2.1,0.2L185.4,127.6z"/>
</g>
<g class="st20">
	<path d="M189.2,124.7l-1.8,0.2l-0.1-0.7l4.4-0.4l0.1,0.7l-1.8,0.2l0.5,5.1l-0.7,0.1L189.2,124.7z"/>
</g>
<g class="st20">
	<path d="M194,129.5c-0.3,0-0.6,0-0.8-0.1c-0.3-0.1-0.5-0.2-0.7-0.4c-0.2-0.2-0.4-0.4-0.5-0.6c-0.1-0.3-0.2-0.5-0.2-0.8
		c0-0.3,0-0.6,0.1-0.8c0.1-0.3,0.2-0.5,0.4-0.7c0.2-0.2,0.4-0.4,0.6-0.5c0.2-0.1,0.5-0.2,0.9-0.2s0.6,0,0.9,0.1
		c0.3,0.1,0.5,0.3,0.7,0.5c0.2,0.2,0.3,0.4,0.4,0.7c0.1,0.3,0.1,0.6,0.1,0.9l-3.3,0.2c0,0.2,0.1,0.4,0.2,0.5
		c0.1,0.2,0.2,0.3,0.3,0.4c0.1,0.1,0.3,0.2,0.4,0.2c0.2,0.1,0.3,0.1,0.5,0.1c0.3,0,0.5-0.1,0.7-0.2c0.2-0.1,0.4-0.3,0.5-0.6l0.7,0
		c0,0.2-0.1,0.4-0.2,0.5c-0.1,0.2-0.2,0.3-0.4,0.4c-0.2,0.1-0.3,0.2-0.5,0.3C194.5,129.4,194.2,129.5,194,129.5z M193.7,125.9
		c-0.1,0-0.3,0-0.4,0.1c-0.1,0.1-0.3,0.1-0.4,0.2c-0.1,0.1-0.2,0.2-0.3,0.4c-0.1,0.1-0.1,0.3-0.1,0.5l2.5-0.2
		c-0.1-0.4-0.3-0.7-0.5-0.8C194.3,125.9,194,125.8,193.7,125.9z"/>
</g>
<g class="st20">
	<path d="M198.2,127.7l-1.2,1.6l-0.9,0l1.6-2.1l-1.6-2l0.9,0l1.2,1.4l1.1-1.5l0.9,0l-1.5,2.1l1.7,2l-0.9,0L198.2,127.7z"/>
</g>
<g class="st20">
	<path d="M202.6,129.2c-0.2,0-0.3,0-0.5-0.1c-0.2-0.1-0.3-0.1-0.4-0.2c-0.1-0.1-0.2-0.2-0.3-0.4s-0.1-0.3-0.1-0.6l0-2.2l-0.9,0
		l0-0.6l0.9,0l0-1.1l0.7,0l0,1.1l1.2,0l0,0.6l-1.2,0l0,2.1c0,0.3,0.1,0.4,0.2,0.5c0.1,0.1,0.3,0.2,0.5,0.2c0.1,0,0.2,0,0.3,0
		c0.1,0,0.2,0,0.2-0.1l0,0.6c-0.1,0-0.2,0.1-0.3,0.1C202.9,129.2,202.8,129.2,202.6,129.2z"/>
</g>
<g class="st20">
	<path d="M207.8,129.4c-0.3,0-0.6-0.1-0.8-0.2c-0.2-0.1-0.4-0.2-0.6-0.4s-0.3-0.3-0.4-0.5c-0.1-0.2-0.1-0.4-0.1-0.6l0.8,0
		c0,0.2,0.1,0.3,0.1,0.4c0.1,0.1,0.2,0.2,0.3,0.3c0.1,0.1,0.2,0.1,0.4,0.2c0.1,0,0.3,0.1,0.4,0.1c0.2,0,0.3,0,0.4,0
		c0.1,0,0.3-0.1,0.4-0.2c0.1-0.1,0.2-0.2,0.2-0.3c0.1-0.1,0.1-0.2,0.1-0.4c0-0.4-0.2-0.8-0.8-1l-0.8-0.3c-0.4-0.2-0.8-0.4-1-0.7
		c-0.2-0.3-0.3-0.6-0.3-1c0-0.2,0.1-0.4,0.2-0.6c0.1-0.2,0.2-0.3,0.4-0.5c0.2-0.1,0.3-0.2,0.6-0.3c0.2-0.1,0.5-0.1,0.7-0.1
		c0.3,0,0.5,0.1,0.8,0.2c0.2,0.1,0.4,0.2,0.5,0.4c0.1,0.2,0.3,0.3,0.3,0.5c0.1,0.2,0.1,0.4,0.1,0.6l-0.8,0c-0.1-0.3-0.2-0.5-0.4-0.7
		c-0.2-0.1-0.4-0.2-0.7-0.2c-0.3,0-0.5,0-0.7,0.2c-0.2,0.1-0.3,0.3-0.3,0.6s0.1,0.4,0.2,0.6c0.1,0.1,0.3,0.3,0.6,0.4l0.7,0.3
		c0.4,0.2,0.8,0.4,1,0.7c0.2,0.3,0.3,0.6,0.3,1.1c0,0.2-0.1,0.5-0.2,0.7c-0.1,0.2-0.2,0.4-0.4,0.5c-0.2,0.1-0.4,0.2-0.6,0.3
		C208.3,129.3,208,129.4,207.8,129.4z"/>
</g>
<g class="st20">
	<path d="M212.3,129.6c-0.3,0-0.6-0.1-0.8-0.2c-0.2-0.1-0.5-0.3-0.6-0.5c-0.2-0.2-0.3-0.4-0.4-0.7c-0.1-0.3-0.1-0.6-0.1-0.9
		c0-0.3,0.1-0.6,0.2-0.8c0.1-0.3,0.3-0.5,0.5-0.6c0.2-0.2,0.4-0.3,0.7-0.4c0.3-0.1,0.6-0.1,0.9-0.1s0.6,0.1,0.9,0.2
		c0.2,0.1,0.4,0.3,0.6,0.5s0.3,0.5,0.3,0.8c0.1,0.3,0.1,0.6,0,0.9l-3.3-0.2c0,0.2,0,0.4,0.1,0.5c0.1,0.2,0.2,0.3,0.3,0.4
		c0.1,0.1,0.2,0.2,0.4,0.3c0.2,0.1,0.3,0.1,0.5,0.1c0.3,0,0.5,0,0.7-0.1c0.2-0.1,0.4-0.3,0.5-0.5l0.7,0.1c-0.1,0.2-0.2,0.3-0.3,0.5
		c-0.1,0.2-0.3,0.3-0.4,0.4c-0.2,0.1-0.4,0.2-0.6,0.2C212.9,129.6,212.6,129.6,212.3,129.6z M212.6,126c-0.1,0-0.3,0-0.4,0
		c-0.1,0-0.3,0.1-0.4,0.2c-0.1,0.1-0.2,0.2-0.3,0.3c-0.1,0.1-0.2,0.3-0.2,0.5l2.6,0.2c0-0.4-0.2-0.7-0.4-0.9
		C213.2,126.1,212.9,126,212.6,126z"/>
</g>
<g class="st20">
	<path d="M216.9,130c-0.3,0-0.5-0.1-0.8-0.3c-0.2-0.1-0.4-0.3-0.6-0.5c-0.2-0.2-0.3-0.5-0.3-0.7c-0.1-0.3-0.1-0.5-0.1-0.8
		c0-0.3,0.1-0.6,0.2-0.8c0.1-0.2,0.3-0.5,0.5-0.6c0.2-0.2,0.4-0.3,0.7-0.4c0.3-0.1,0.5-0.1,0.8-0.1c0.3,0,0.6,0.1,0.8,0.3
		c0.2,0.2,0.4,0.4,0.5,0.6l0.1-0.6l0.7,0.1l-0.4,4.1l-0.7-0.1l0.1-0.6c-0.2,0.2-0.4,0.3-0.6,0.4C217.5,130,217.2,130.1,216.9,130z
		 M217.1,129.4c0.2,0,0.4,0,0.6-0.1c0.2-0.1,0.3-0.1,0.5-0.3c0.1-0.1,0.2-0.3,0.3-0.4c0.1-0.2,0.1-0.4,0.2-0.6c0-0.2,0-0.4,0-0.6
		c0-0.2-0.1-0.4-0.2-0.5c-0.1-0.1-0.2-0.3-0.4-0.4c-0.2-0.1-0.3-0.2-0.5-0.2c-0.2,0-0.4,0-0.6,0.1c-0.2,0.1-0.3,0.1-0.5,0.3
		c-0.1,0.1-0.2,0.3-0.3,0.4c-0.1,0.2-0.1,0.4-0.2,0.6c0,0.2,0,0.4,0,0.6c0,0.2,0.1,0.4,0.2,0.5c0.1,0.1,0.2,0.3,0.4,0.4
		C216.7,129.3,216.9,129.4,217.1,129.4z"/>
</g>
<g class="st20">
	<path d="M220.9,126.3l0.7,0.1l-0.1,0.8c0.1-0.1,0.1-0.2,0.2-0.3c0.1-0.1,0.2-0.2,0.3-0.2c0.1-0.1,0.2-0.1,0.4-0.1
		c0.1,0,0.2,0,0.4,0c0.1,0,0.2,0,0.3,0.1l-0.1,0.7c-0.1,0-0.1-0.1-0.2-0.1c-0.1,0-0.1,0-0.2,0c-0.1,0-0.3,0-0.4,0
		c-0.1,0-0.3,0.1-0.4,0.2c-0.1,0.1-0.2,0.2-0.3,0.4c-0.1,0.2-0.2,0.4-0.2,0.6l-0.3,2l-0.7-0.1L220.9,126.3z"/>
</g>
<g class="st20">
	<path d="M224.9,131.1c-0.3-0.1-0.6-0.2-0.8-0.3c-0.2-0.2-0.4-0.3-0.6-0.6c-0.2-0.2-0.3-0.5-0.3-0.7c-0.1-0.3-0.1-0.6,0-0.8
		c0-0.3,0.1-0.6,0.3-0.8c0.1-0.2,0.3-0.4,0.5-0.6c0.2-0.2,0.5-0.3,0.7-0.3c0.3-0.1,0.6-0.1,0.9,0c0.3,0,0.5,0.1,0.7,0.2
		c0.2,0.1,0.4,0.2,0.5,0.4c0.2,0.2,0.3,0.3,0.4,0.6c0.1,0.2,0.1,0.4,0.2,0.6l-0.7-0.1c0-0.3-0.2-0.5-0.4-0.7
		c-0.2-0.2-0.5-0.3-0.8-0.4c-0.2,0-0.4,0-0.6,0c-0.2,0-0.4,0.1-0.5,0.2c-0.1,0.1-0.3,0.2-0.4,0.4c-0.1,0.2-0.2,0.4-0.2,0.6
		c0,0.2,0,0.4,0,0.6c0,0.2,0.1,0.4,0.2,0.5s0.2,0.3,0.4,0.4c0.2,0.1,0.3,0.2,0.6,0.2c0.3,0.1,0.6,0,0.9-0.1c0.3-0.1,0.4-0.3,0.6-0.5
		l0.7,0.1c-0.1,0.2-0.2,0.4-0.4,0.6c-0.2,0.2-0.3,0.3-0.5,0.4c-0.2,0.1-0.4,0.2-0.7,0.2C225.4,131.2,225.2,131.2,224.9,131.1z"/>
</g>
<g class="st20">
	<path d="M227.8,131.6l1.2-6l0.7,0.1l-0.5,2.6c0.2-0.2,0.4-0.4,0.7-0.4c0.2-0.1,0.5-0.1,0.8,0c0.2,0,0.4,0.1,0.6,0.2
		c0.2,0.1,0.3,0.3,0.4,0.4c0.1,0.2,0.2,0.4,0.2,0.6c0,0.2,0,0.4,0,0.7l-0.5,2.5l-0.7-0.1l0.5-2.4c0.1-0.3,0-0.6-0.1-0.9
		c-0.1-0.2-0.3-0.4-0.6-0.4c-0.2,0-0.3,0-0.5,0c-0.2,0-0.3,0.1-0.4,0.2c-0.1,0.1-0.2,0.2-0.3,0.4c-0.1,0.2-0.2,0.4-0.2,0.6l-0.4,2
		L227.8,131.6z"/>
</g>
<circle class="st24" cx="50.2" cy="216.5" r="4.3"/>
<circle class="st24" cx="108.3" cy="136.3" r="4.3"/>
<circle class="st24" cx="202.5" cy="105.8" r="4.3"/>
<circle class="st24" cx="296.6" cy="136.8" r="4.3"/>
<circle class="st24" cx="354.7" cy="216.4" r="4.3"/>
</svg>
