<svg xmlns="http://www.w3.org/2000/svg" xmlns:xlink="http://www.w3.org/1999/xlink" width="215.1944mm" height="143.463mm" viewBox="0 0 610 406.6667"><defs><style>.a,.g,.q,.u{fill:none;}.b{fill:#defcf6;}.b,.d,.e,.f,.g,.h,.k,.l,.m,.n{stroke:#000;}.b,.e,.f,.g,.h,.j,.k,.l,.m,.n,.p,.q,.s,.u{stroke-miterlimit:10;}.c{clip-path:url(#a);}.d,.j,.m{fill:#fff;}.d,.r{stroke-linecap:round;stroke-linejoin:round;}.e,.f,.h{fill-rule:evenodd;}.f,.i{fill:#00d7ff;}.h{fill:#00ee57;}.j,.p,.q,.r{stroke:#001e2b;}.k{fill:#a9ff3d;}.l,.p,.r{fill:#00ed64;}.o{fill:#d1d3d4;}.s{fill:#061d2a;}.s,.u{stroke:#061d2a;}.t{fill:#61ea6f;}</style><clipPath id="a"><rect class="a" x="156.7289" y="8.59" width="443.2711" height="384.0366" rx="6.3015"/></clipPath></defs><rect class="b" x="156.7289" y="8.59" width="443.2711" height="384.0366" rx="6.3015"/><g class="c"><path d="M618.0854,253.2156c0-1.3653.189-2.3525.189-3.7179A58.52,58.52,0,0,0,504.5737,230.005a39.2585,39.2585,0,0,0-33.6082,23.1056,27.4957,27.4957,0,0,0,4.4951,54.6133H613.5483a27.4748,27.4748,0,0,0,27.5167-27.4326v-.0631a26.7815,26.7815,0,0,0-23.1056-26.9075Z"/><path class="d" d="M618.0854,245.99c0-1.3654.189-2.3316.189-3.6969a58.52,58.52,0,0,0-113.7007-19.5138,39.2587,39.2587,0,0,0-33.6082,23.1056,27.4958,27.4958,0,0,0,4.4951,54.6134H613.5483a27.4749,27.4749,0,0,0,27.5167-27.4327v-.063a26.8235,26.8235,0,0,0-23.1056-26.9286Z"/></g><path d="M432.9462,223.8925c0-1.5964.21-2.7307.21-4.201a67.9516,67.9516,0,0,0-132.0172-22.7486,45.5182,45.5182,0,0,0-38.9435,26.76,31.9278,31.9278,0,0,0,5.2093,63.4145H427.737a31.9067,31.9067,0,0,0,31.9277-31.8858v-.042a31.0875,31.0875,0,0,0-26.7185-31.2556Z"/><path class="d" d="M432.9462,215.5114c0-1.5964.21-2.7306.21-4.201a67.9516,67.9516,0,0,0-132.0172-22.7485,45.5179,45.5179,0,0,0-38.9435,26.7395,31.9278,31.9278,0,0,0,5.2093,63.4145H427.737a31.8858,31.8858,0,0,0,31.9277-31.8438q0-.042,0-.084a31.0874,31.0874,0,0,0-26.7185-31.2556Z"/><path d="M202.205,238.113a22.0972,22.0972,0,0,0-18.9046,22.16,22.6224,22.6224,0,0,0,22.58,22.6645H319.7076a22.6435,22.6435,0,0,0,3.6969-44.972,32.3059,32.3059,0,0,0-27.6217-18.9046A48.2067,48.2067,0,0,0,202.142,235.13c0,1.1133.168,1.9325.168,3.0457Z"/><path class="d" d="M202.205,232.1055A22.0973,22.0973,0,0,0,183.3,254.2869a22.6225,22.6225,0,0,0,22.5382,22.7065h113.869A22.6435,22.6435,0,0,0,323.3,232.1055a32.3058,32.3058,0,0,0-27.6217-18.9046A48.2067,48.2067,0,0,0,202.037,229.27c0,1.1343.168,1.9325.168,3.0457Z"/><path class="b" d="M156.7289,272.3933h443.208V384.1825a8.402,8.402,0,0,1-8.402,8.4021H165.1309a8.402,8.402,0,0,1-8.402-8.4021V272.3933Z"/><path class="e" d="M78.5268,302.0315H16.94a7.4777,7.4777,0,0,1-7.4568-7.4568v-61.629a7.4777,7.4777,0,0,1,7.4568-7.4568h61.587a7.4779,7.4779,0,0,1,7.4569,7.4568v61.629A7.5619,7.5619,0,0,1,78.5268,302.0315Z"/><path class="f" d="M78.5268,297.2214H16.94a7.4779,7.4779,0,0,1-7.4568-7.4569V228.01a7.4777,7.4777,0,0,1,7.4568-7.4568h61.587a7.4779,7.4779,0,0,1,7.4569,7.4568v61.65A7.562,7.562,0,0,1,78.5268,297.2214Z"/><path class="e" d="M78.5268,178.7525H16.94a7.4778,7.4778,0,0,1-7.4568-7.4568v-61.65a7.4779,7.4779,0,0,1,7.4568-7.4568h61.587a7.478,7.478,0,0,1,7.4569,7.4568v61.65A7.5619,7.5619,0,0,1,78.5268,178.7525Z"/><path class="f" d="M78.5268,173.8163H16.94a7.4778,7.4778,0,0,1-7.52-7.4357l0-.0211v-61.65a7.4778,7.4778,0,0,1,7.52-7.4358H78.5268a7.457,7.457,0,0,1,7.4569,7.4358v61.65A7.5619,7.5619,0,0,1,78.5268,173.8163Z"/><line class="g" x1="107.955" y1="197.195" x2="156.7289" y2="197.195"/><path class="g" d="M87.1179,263.2561h12.246a8.5911,8.5911,0,0,0,8.5911-8.5911V147.5389a8.5911,8.5911,0,0,0-8.5911-8.5911H86.4878"/><path class="h" d="M163.0305,8.59h33.104V392.48h-33.104a6.3015,6.3015,0,0,1-6.3016-6.3015V14.8915A6.3015,6.3015,0,0,1,163.0305,8.59Z"/><path d="M171.2434,311.2738V308.165a6.3029,6.3029,0,0,1,.42-2.29,5.8191,5.8191,0,0,1,1.1133-1.8064,5.294,5.294,0,0,1,1.7224-1.1974,5.63,5.63,0,0,1,4.2011,0,5.42,5.42,0,0,1,1.7014,1.1974,5.5011,5.5011,0,0,1,1.1342,1.8064,6.3008,6.3008,0,0,1,.42,2.29v3.1088Zm9.4523-3.1088a4.7886,4.7886,0,0,0-.315-1.7644,3.6557,3.6557,0,0,0-.84-1.3443,3.887,3.887,0,0,0-1.2814-.8822,4.3622,4.3622,0,0,0-3.2557,0,3.8856,3.8856,0,0,0-1.2813.8822,3.697,3.697,0,0,0-.8613,1.3443,5.2721,5.2721,0,0,0-.294,1.7644v1.68h8.213Z"/><path d="M182.1661,297.2214a3.9268,3.9268,0,0,1-.3151,1.5963,4.0114,4.0114,0,0,1-.84,1.26,3.6348,3.6348,0,0,1-1.26.8192,3.697,3.697,0,0,1-1.5334.294,3.7594,3.7594,0,0,1-1.5333-.294,3.6348,3.6348,0,0,1-1.26-.8192,4.41,4.41,0,0,1-.84-1.26,4.2,4.2,0,0,1,0-3.1717,4.41,4.41,0,0,1,.84-1.26,3.9459,3.9459,0,0,1,1.26-.8192,4.199,4.199,0,0,1,1.5333-.2941,4.0745,4.0745,0,0,1,1.5334.2941,3.947,3.947,0,0,1,1.26.8192,4.01,4.01,0,0,1,.84,1.26A3.9047,3.9047,0,0,1,182.1661,297.2214Zm-1.2183,0a2.6256,2.6256,0,0,0-.21-1.0713,2.5422,2.5422,0,0,0-1.4494-1.3443,3.0243,3.0243,0,0,0-1.0713-.1891,2.92,2.92,0,0,0-1.05.1891,2.6683,2.6683,0,0,0-.8822.5251,2.542,2.542,0,0,0-.5882.8192,2.8987,2.8987,0,0,0,0,2.1005,2.542,2.542,0,0,0,.5882.8192,2.7083,2.7083,0,0,0,.8822.5461,2.92,2.92,0,0,0,1.05.1891,3.0243,3.0243,0,0,0,1.0713-.1891,2.6248,2.6248,0,0,0,.8612-.5461,2.542,2.542,0,0,0,.5882-.8192A2.6678,2.6678,0,0,0,180.9478,297.2214Z"/><path d="M182.1661,287.9791a4.0116,4.0116,0,0,1-.3151,1.5964,3.6965,3.6965,0,0,1-.84,1.2393,3.8454,3.8454,0,0,1-1.26.8192,3.97,3.97,0,0,1-5.1672-2.1005,4.6,4.6,0,0,1,.5671-4.075,3.8461,3.8461,0,0,1,.9032-.84,4.2024,4.2024,0,0,1,1.1343-.5041v1.4073a2.3535,2.3535,0,0,0-1.1763.8822,2.6474,2.6474,0,0,0-.4411,1.5334,2.5008,2.5008,0,0,0,.21,1.0713,2.373,2.373,0,0,0,.5671.84,2.71,2.71,0,0,0,.8822.5462,3.1294,3.1294,0,0,0,2.1005,0,2.71,2.71,0,0,0,.8822-.5462,2.4151,2.4151,0,0,0,.5882-.84,2.8574,2.8574,0,0,0,.21-1.0713,2.5,2.5,0,0,0-.4621-1.5334,2.29,2.29,0,0,0-1.1553-.8822v-1.4073a4.5557,4.5557,0,0,1,1.1343.5041,3.7808,3.7808,0,0,1,1.47,1.9745A4.62,4.62,0,0,1,182.1661,287.9791Z"/><path d="M182.1661,279.7451a2.7948,2.7948,0,0,1-.231,1.1342,2.2272,2.2272,0,0,1-.6092.8823,2.4575,2.4575,0,0,1-.9662.5671,3.4878,3.4878,0,0,1-1.2813.21h-4.6v-1.3023h4.4111a2.29,2.29,0,0,0,1.5124-.4622,1.5541,1.5541,0,0,0,.5671-1.26,1.8072,1.8072,0,0,0-.189-.8192,2.1014,2.1014,0,0,0-.5462-.6722,2.6694,2.6694,0,0,0-.8822-.4411,3.928,3.928,0,0,0-1.1553-.168h-3.7179v-1.1973h7.5829v1.3023H180.78a2.4792,2.4792,0,0,1,.9872.9873A2.7089,2.7089,0,0,1,182.1661,279.7451Z"/><path d="M177.545,263.8862a2.6688,2.6688,0,0,0-1.4914.3781,1.2814,1.2814,0,0,0-.5671,1.1343,1.8062,1.8062,0,0,0,.6932,1.47,3.2344,3.2344,0,0,0,1.9534.6092h3.886V268.78H177.545a2.8554,2.8554,0,0,0-1.4914.3571,1.26,1.26,0,0,0-.5671,1.1132,1.7853,1.7853,0,0,0,.7352,1.5124,3.13,3.13,0,0,0,2.1005.5881h3.76v1.3023h-7.6039v-1.3023h1.1553a2.7089,2.7089,0,0,1-.9662-.9242,2.6471,2.6471,0,0,1-.3571-1.3653,2.3741,2.3741,0,0,1,.4411-1.4494,2.5634,2.5634,0,0,1,1.1973-.8822,2.5832,2.5832,0,0,1-1.1973-.9662,2.668,2.668,0,0,1-.4411-1.5124,2.6263,2.6263,0,0,1,.2311-1.1133,2.2685,2.2685,0,0,1,.63-.84,2.6676,2.6676,0,0,1,.9663-.5251,3.9675,3.9675,0,0,1,1.26-.189h4.6631v1.3023Z"/><path d="M182.1661,257.0176a4.199,4.199,0,0,1-.2941,1.5333,3.7375,3.7375,0,0,1-.84,1.1973,3.59,3.59,0,0,1-1.2393.7982,4.2,4.2,0,0,1-1.5753.2941,4.7456,4.7456,0,0,1-1.5544-.2731,3.692,3.692,0,0,1-2.0795-1.9744,3.9709,3.9709,0,0,1-.3151-1.6174,3.57,3.57,0,0,1,.3571-1.5964,3.3819,3.3819,0,0,1,.9242-1.1763,3.6552,3.6552,0,0,1,1.3654-.6932,4.7459,4.7459,0,0,1,1.6594-.168v6.1755a2.415,2.415,0,0,0,.9452-.2311,2.8139,2.8139,0,0,0,.7772-.5251,2.5835,2.5835,0,0,0,.5041-.7982,2.4562,2.4562,0,0,0,.168-.9662,2.5627,2.5627,0,0,0-.294-1.2813,2.1005,2.1005,0,0,0-.9663-.9243v-1.3233a2.7731,2.7731,0,0,1,.9453.4411,2.8787,2.8787,0,0,1,.7772.7352,3.5081,3.5081,0,0,1,.5251,1.05A3.8018,3.8018,0,0,1,182.1661,257.0176Zm-6.7426,0a2.7724,2.7724,0,0,0,.126.8192,2.3321,2.3321,0,0,0,.3781.7141,2.8813,2.8813,0,0,0,.6511.5672,2.6263,2.6263,0,0,0,.9663.336V254.728a2.3941,2.3941,0,0,0-1.5964.8192A2.2891,2.2891,0,0,0,175.4235,257.0176Z"/><path d="M174.4782,251.4722V250.17h1.1553a2.5,2.5,0,0,1-.9872-1.05,3.0451,3.0451,0,0,1-.3361-1.3653,3.0878,3.0878,0,0,1,.231-1.1763,2.2273,2.2273,0,0,1,.6092-.9032,2.9821,2.9821,0,0,1,.9662-.5881,3.97,3.97,0,0,1,1.26-.21h4.6842v1.3023H177.545a2.2061,2.2061,0,0,0-1.5124.4832,1.6174,1.6174,0,0,0-.5461,1.3023,1.8713,1.8713,0,0,0,.7142,1.5544,2.5841,2.5841,0,0,0,.8612.4621,3.4868,3.4868,0,0,0,1.1973.189h3.76v1.3023Z"/><path d="M182.0821,239.6883a2.6683,2.6683,0,0,1-.147.9243,1.9764,1.9764,0,0,1-.42.7351,1.9533,1.9533,0,0,1-.7142.4832,3.0266,3.0266,0,0,1-1.0292.168h-4.2011v1.6174h-1.0923v-1.6174h-2.1v-1.3023h2.1v-2.1h1.1973v2.1h3.97a1.3232,1.3232,0,0,0,1.0082-.3151,1.3651,1.3651,0,0,0,.2731-.9452,1.9524,1.9524,0,0,0,0-.4831,2.2731,2.2731,0,0,0,0-.4411h1.1763a.9377.9377,0,0,0,.126.5461A5.5955,5.5955,0,0,1,182.0821,239.6883Z"/><path d="M171.2434,231.7064l5.3774-3.991-5.3774-4.012v-1.26h10.7757V223.83H173.617l5.2093,3.8859-5.2093,3.865h8.4021v1.4283H171.2434Z"/><path d="M182.1661,216.5407a4.012,4.012,0,0,1-.3151,1.5964,3.6965,3.6965,0,0,1-.84,1.2393,4.0116,4.0116,0,0,1-1.26.84,4.0765,4.0765,0,0,1-1.5334.2941,4.2011,4.2011,0,0,1-1.5333-.2941,4.026,4.026,0,0,1-2.1-5.2513,4.41,4.41,0,0,1,.84-1.26,3.6334,3.6334,0,0,1,1.26-.8192,3.7794,3.7794,0,0,1,1.5333-.3151,3.7173,3.7173,0,0,1,1.5334.3151,3.6334,3.6334,0,0,1,1.26.8192,4.011,4.011,0,0,1,.84,1.26A3.9047,3.9047,0,0,1,182.1661,216.5407Zm-1.2183,0a2.4992,2.4992,0,0,0-.21-1.0713,2.4164,2.4164,0,0,0-.5882-.84,2.5609,2.5609,0,0,0-.8612-.5251,3.0265,3.0265,0,0,0-1.0713-.1891,2.92,2.92,0,0,0-1.05.1891,2.6666,2.6666,0,0,0-.8822.5251,2.4177,2.4177,0,0,0-.5882.84,2.8365,2.8365,0,0,0,0,2.1,2.4368,2.4368,0,0,0,1.47,1.3654,2.92,2.92,0,0,0,1.05.189,3.0264,3.0264,0,0,0,1.0713-.189,2.5627,2.5627,0,0,0,.8612-.5252,2.6451,2.6451,0,0,0,.5882-.84A2.4993,2.4993,0,0,0,180.9478,216.5407Z"/><path d="M182.1661,207.5925a3.36,3.36,0,0,1-.3151,1.47,3.6531,3.6531,0,0,1-.84,1.1762,3.7155,3.7155,0,0,1-1.26.7772,4.2,4.2,0,0,1-3.0667,0,3.6323,3.6323,0,0,1-1.2393-.7772,3.6961,3.6961,0,0,1-.8612-1.1762,3.4449,3.4449,0,0,1,0-3.0458,3.0031,3.0031,0,0,1,.9242-1.0922h-4.8732v-1.3024h11.3848v1.3024H180.78a3.004,3.004,0,0,1,.9242,1.0922A3.13,3.13,0,0,1,182.1661,207.5925Zm-1.1973-.189a2.7516,2.7516,0,0,0-.21-1.05,2.5431,2.5431,0,0,0-.5882-.8192,2.6683,2.6683,0,0,0-.8822-.5251,3.1294,3.1294,0,0,0-2.1,0,2.6683,2.6683,0,0,0-.8822.5251,2.5,2.5,0,0,0-.5671.8192,2.4157,2.4157,0,0,0-.21,1.05,2.5415,2.5415,0,0,0,.7772,1.8694,2.6686,2.6686,0,0,0,.8822.5252,3.1306,3.1306,0,0,0,2.1,0,2.669,2.669,0,0,0,.8823-.5252,2.5417,2.5417,0,0,0,.5881-.8192A2.8359,2.8359,0,0,0,180.9688,207.4035Z"/><path d="M182.1661,197.93a3.9886,3.9886,0,0,1-.2941,1.5333,4.0731,4.0731,0,0,1-.84,1.2183,3.5488,3.5488,0,0,1-1.2393.7772,3.905,3.905,0,0,1-1.5753.2941,4.7249,4.7249,0,0,1-1.5544-.2521,3.55,3.55,0,0,1-1.2393-.7772,3.6119,3.6119,0,0,1-.84-1.2183,3.8641,3.8641,0,0,1-.3151-1.5963,3.57,3.57,0,0,1,.3571-1.5964,3.4656,3.4656,0,0,1,.9242-1.1973,3.6552,3.6552,0,0,1,1.3654-.6932,4.7679,4.7679,0,0,1,1.7644-.126v6.1545a2.3938,2.3938,0,0,0,.9452-.21,2.8778,2.8778,0,0,0,.7772-.5461,2.479,2.479,0,0,0,.5041-.7772,2.9063,2.9063,0,0,0-.126-2.2476,2.1,2.1,0,0,0-.9663-.9242v-1.4493a3.8857,3.8857,0,0,1,.9453.4411,3.32,3.32,0,0,1,.7772.7562,3.2783,3.2783,0,0,1,.5251,1.05A3.6133,3.6133,0,0,1,182.1661,197.93Zm-6.7426,0a2.54,2.54,0,0,0,.126.7982,2.4348,2.4348,0,0,0,.3781.7351,2.8813,2.8813,0,0,0,.6511.5672,2.6271,2.6271,0,0,0,.9663.315v-4.7051a2.5839,2.5839,0,0,0-1.5964.8192,2.3939,2.3939,0,0,0-.5251,1.4914Z"/><path d="M170.6343,192.3848v-1.3023h11.3848v1.3023Z"/><path d="M182.1661,178.2274a3.8436,3.8436,0,0,1-.231,1.3443,3.2982,3.2982,0,0,1-.6512,1.05,3.1088,3.1088,0,0,1-2.1.9243,2.7521,2.7521,0,0,1-1.8905-.7352,3.6356,3.6356,0,0,1-.6511-.7352,9.2461,9.2461,0,0,1-.5462-.8192h0a5.5686,5.5686,0,0,1-.5041.4831,3.97,3.97,0,0,1-.5671.42,4.3852,4.3852,0,0,1-.63.2941,2.809,2.809,0,0,1-.7351,0,2.1,2.1,0,0,1-1.9115-.8612,3.1931,3.1931,0,0,1-.5042-.8612,3.0664,3.0664,0,0,1-.168-1.0923,2.9422,2.9422,0,0,1,.189-1.0713,2.3322,2.3322,0,0,1,.5462-.84,2.27,2.27,0,0,1,.7772-.5461,2.5935,2.5935,0,0,1,1.89-.021,2.6689,2.6689,0,0,1,.7142.4831,3.5475,3.5475,0,0,1,.5671.6722,4.44,4.44,0,0,1,.4411.7562l2.2476-2.29-1.6174-1.2813v-1.5124l2.4576,1.9535,2.7307-2.7517v1.7225l-1.8065,1.8484a8.3987,8.3987,0,0,1,.8822.8192,4.2,4.2,0,0,1,.5882.7982,3.4032,3.4032,0,0,1,.3571.8612A3.697,3.697,0,0,1,182.1661,178.2274Zm-8.6331.9872a1.47,1.47,0,0,0,.9662-.3361,11.4293,11.4293,0,0,0,.9033-.8822h0l-.3361-.6092a2.2735,2.2735,0,0,0-.3781-.5041,1.3658,1.3658,0,0,0-.4411-.3361,1.155,1.155,0,0,0-.5462-.126,1.4912,1.4912,0,0,0-1.05.3781,1.3439,1.3439,0,0,0-.3991,1.0292,1.5755,1.5755,0,0,0,0,.5462,1.1345,1.1345,0,0,0,.273.4621,1.473,1.473,0,0,0,.3991.3151A1.26,1.26,0,0,0,173.533,179.2146Zm7.4358-1.0293a2.31,2.31,0,0,0-.3781-1.3023,5.4393,5.4393,0,0,0-1.1973-1.26l-2.6046,2.6887.105.189a4.4527,4.4527,0,0,0,.9243,1.26,1.7639,1.7639,0,0,0,1.26.4621,1.9808,1.9808,0,0,0,1.89-2.0375Z"/><path d="M182.1871,162.1584a5.019,5.019,0,0,1-.2941,1.7224,4.0535,4.0535,0,0,1-.8822,1.3234,4.3278,4.3278,0,0,1-1.3653.8612,5.0636,5.0636,0,0,1-1.8275.3151h-6.5746v-1.4914H177.86a3.0035,3.0035,0,0,0,2.2265-.7772,2.7516,2.7516,0,0,0,.7772-2.1,2.7936,2.7936,0,0,0-.7772-2.1005,3.0666,3.0666,0,0,0-2.2265-.7562h-6.6167v-1.1973h6.5746a5.5662,5.5662,0,0,1,1.8275.2941,4.326,4.326,0,0,1,1.3653.8612,3.927,3.927,0,0,1,.8822,1.3443A4.9983,4.9983,0,0,1,182.1871,162.1584Z"/><path d="M174.4782,155.5628v-1.3023h1.1553a2.457,2.457,0,0,1-.9872-1.0292,3.0663,3.0663,0,0,1-.3361-1.3864,2.9833,2.9833,0,0,1,.231-1.1553,2.2273,2.2273,0,0,1,.6092-.9032,2.9821,2.9821,0,0,1,.9662-.5881,3.4447,3.4447,0,0,1,1.26-.21h4.6842v1.1973H177.545a2.1008,2.1008,0,0,0-1.5124.5041,1.5965,1.5965,0,0,0-.5461,1.3024,1.8906,1.8906,0,0,0,.168.84,1.9737,1.9737,0,0,0,.5462.7141,3.043,3.043,0,0,0,.8612.4621,4.2,4.2,0,0,0,1.1973.1681h3.76v1.3023Z"/><path d="M172.3777,145.9845a.8616.8616,0,0,1-.273.6722.84.84,0,0,1-.6512.273.8823.8823,0,0,1-.6511-.273.8613.8613,0,0,1-.2731-.6722.8824.8824,0,0,1,.2731-.6512.945.945,0,0,1,.6511-.252.9031.9031,0,0,1,.6512.252A.8823.8823,0,0,1,172.3777,145.9845Zm2.1.6722v-1.3024h7.5829v1.3024Z"/><path d="M172.3777,136.6372a.9243.9243,0,0,1-.903.945l-.0212,0a.9664.9664,0,0,1-.6512-.273.9244.9244,0,0,1-.273-.6722.819.819,0,0,1,.273-.6511.945.945,0,0,1,.6512-.2521.9028.9028,0,0,1,.6511.2521A.819.819,0,0,1,172.3777,136.6372Zm3.2348,5.5874v1.6594h-1.1343v-1.6174h-1.5333a3.0245,3.0245,0,0,1-1.0293-.1681,2.1,2.1,0,0,1-.7352-.4831,1.765,1.765,0,0,1-.4411-.7352,2.6681,2.6681,0,0,1-.147-.9242,6.3127,6.3127,0,0,1,0-.6511,5.2564,5.2564,0,0,1,.147-.5462h1.1553a2.1,2.1,0,0,0,0,.4621,4.2332,4.2332,0,0,0,0,.4832,1.3656,1.3656,0,0,0,.2731.9452,1.3232,1.3232,0,0,0,1.0082.3151h1.3023v-2.1005h1.1973v2.1005h6.3016v1.3023Zm-1.1343-4.9152v-1.3023h7.5829v1.3023Z"/><path d="M182.1661,130.3147a4.0745,4.0745,0,0,1-.2941,1.5334,3.737,3.737,0,0,1-.84,1.1972,3.59,3.59,0,0,1-1.2393.7982,4.4528,4.4528,0,0,1-3.13,0,3.2344,3.2344,0,0,1-1.2393-.7561,3.6138,3.6138,0,0,1-.84-1.2183,3.9709,3.9709,0,0,1-.3151-1.6174,3.6344,3.6344,0,0,1,.3571-1.5964,3.3819,3.3819,0,0,1,.9242-1.1763,3.6552,3.6552,0,0,1,1.3654-.6932,4.7459,4.7459,0,0,1,1.6594-.168v6.1755a2.3938,2.3938,0,0,0,.9452-.21,2.8778,2.8778,0,0,0,.7772-.5461,2.5848,2.5848,0,0,0,.4831-.7562,2.3931,2.3931,0,0,0,.168-.9662,2.6254,2.6254,0,0,0-.2941-1.2813,2.1,2.1,0,0,0-.9662-.9033v-1.3443a2.7718,2.7718,0,0,1,.9452.4411,3.3176,3.3176,0,0,1,.7772.7562,3.172,3.172,0,0,1,.5252,1.0293A3.8009,3.8009,0,0,1,182.1661,130.3147Zm-6.7426,0a2.6476,2.6476,0,0,0,.126.7982,2.3321,2.3321,0,0,0,.3781.7141,2.101,2.101,0,0,0,.6511.5672,2.6265,2.6265,0,0,0,.9663.3361v-4.7052a2.5839,2.5839,0,0,0-1.5964.8192,2.3523,2.3523,0,0,0-.5251,1.4914Z"/><path d="M182.1661,121.64a3.5065,3.5065,0,0,1-.3151,1.4913,3.5491,3.5491,0,0,1-.84,1.1553,4.2009,4.2009,0,0,1-4.327.7982,4.053,4.053,0,0,1-1.2393-.7982,3.6143,3.6143,0,0,1-.8612-1.1553,3.5065,3.5065,0,0,1-.3151-1.4913,3.3816,3.3816,0,0,1,.3991-1.5754,3.193,3.193,0,0,1,.9242-1.0923h-4.9572V117.67h11.3848v1.3023H180.78a3.193,3.193,0,0,1,.9242,1.0923A3.1294,3.1294,0,0,1,182.1661,121.64Zm-1.1973-.1891a2.8339,2.8339,0,0,0-.21-1.05,2.5409,2.5409,0,0,0-.5882-.8192,3.0668,3.0668,0,0,0-.8822-.5252,3.1306,3.1306,0,0,0-2.1,0,3.0682,3.0682,0,0,0-.8822.5252,2.6045,2.6045,0,0,0-.0558,3.683q.0275.0284.0558.0559a2.6683,2.6683,0,0,0,.8822.5251,3.1294,3.1294,0,0,0,2.1,0,2.6683,2.6683,0,0,0,.8822-.5251,2.5431,2.5431,0,0,0,.5882-.8192A2.8364,2.8364,0,0,0,180.9688,121.4505Z"/><path d="M171.2434,108.4483v-1.1762l10.7757-4.7682v1.47l-3.1508,1.3863v5.02l3.1508,1.3653v1.4494Zm6.3016,1.3654v-3.886l-4.4531,1.9535Z"/><path d="M174.6673,93.9968a3.677,3.677,0,0,1,1.3653.2521,3.8231,3.8231,0,0,1,1.0713.7562,3.0659,3.0659,0,0,1,.7141,1.1552,3.99,3.99,0,0,1,.2731,1.5334v1.8695h3.928v1.4283H171.2434V97.6727a3.9933,3.9933,0,0,1,.2731-1.5334,3.3614,3.3614,0,0,1,.7142-1.1552,3.6329,3.6329,0,0,1,1.0922-.7562A3.55,3.55,0,0,1,174.6673,93.9968Zm0,1.3864a2.582,2.582,0,0,0-.8192.147,1.8276,1.8276,0,0,0-.6722.4621,2.1012,2.1012,0,0,0-.4411.7142,2.3721,2.3721,0,0,0-.168.9872v1.8695h4.201v-1.89a2.7712,2.7712,0,0,0-.1681-.9872,2.1,2.1,0,0,0-.4411-.7142,1.8265,1.8265,0,0,0-.6721-.4621A2.6034,2.6034,0,0,0,174.6673,95.3832Z"/><path d="M171.2434,92.1064V90.678h10.7757v1.4284Z"/><path d="M61.5967,129.6005V267.4151A13.8633,13.8633,0,0,1,47.7754,281.32l-.0631,0h0a13.8633,13.8633,0,0,1-13.968-13.7579q-.0006-.0738,0-.1475V129.6005a13.8424,13.8424,0,0,1,13.8-13.8845c.0351,0,.07,0,.1052,0h0A13.8425,13.8425,0,0,1,61.5964,129.453Q61.597,129.5268,61.5967,129.6005Z"/><path class="i" d="M47.6073,260.5884l-6.3015,4.201V263.088l4.7891-3.1927-4.7891-3.2138v-1.68l6.3015,4.201h4.5371v1.3863Z"/><path class="i" d="M52.3335,251.9343a3.9081,3.9081,0,0,1-.3151,1.5754,3.8651,3.8651,0,0,1-2.1,2.1,4.202,4.202,0,0,1-1.5334.2941,4.0745,4.0745,0,0,1-1.5334-.2941,3.8651,3.8651,0,0,1-2.1005-2.1,4.2017,4.2017,0,0,1,0-3.1508,3.5919,3.5919,0,0,1,.84-1.26,4.0138,4.0138,0,0,1,1.26-.84,4.0744,4.0744,0,0,1,1.5334-.294,4.2,4.2,0,0,1,1.5334.294,4.0138,4.0138,0,0,1,1.26.84,3.5919,3.5919,0,0,1,.84,1.26A3.9084,3.9084,0,0,1,52.3335,251.9343Zm-1.2183,0a3.0677,3.0677,0,0,0-.21-1.0922,2.5417,2.5417,0,0,0-.5881-.8192,2.7954,2.7954,0,0,0-.8612-.5252,3.1309,3.1309,0,0,0-2.1006,0,2.5415,2.5415,0,0,0-1.4493,1.3444,2.6673,2.6673,0,0,0-.21,1.0922,2.6257,2.6257,0,0,0,.21,1.0713,2.5428,2.5428,0,0,0,.5881.8192,2.3106,2.3106,0,0,0,.8612.5461,3.13,3.13,0,0,0,2.1006,0,2.5,2.5,0,0,0,.8612-.5461,2.5428,2.5428,0,0,0,.5881-.8192A3.0463,3.0463,0,0,0,51.1152,251.9343Z"/><path class="i" d="M52.3335,243.4272a2.9617,2.9617,0,0,1-.2311,1.1343,2.8769,2.8769,0,0,1-.6091.8822,3.3615,3.3615,0,0,1-.9663.5672,4.0115,4.0115,0,0,1-1.2813.189H44.5826v-1.3023h4.4741a2.29,2.29,0,0,0,1.5123-.4621,1.4915,1.4915,0,0,0,.5672-1.2393,1.5963,1.5963,0,0,0-.21-.8192,1.6812,1.6812,0,0,0-.5461-.6722,3.0455,3.0455,0,0,0-.8612-.4621,4.0121,4.0121,0,0,0-1.1763-.147h-3.76v-1.3024h7.5828v1.3024H51.01a2.3526,2.3526,0,0,1,.9873.9872A2.9,2.9,0,0,1,52.3335,243.4272Z"/><path class="i" d="M44.5826,237.3358v-1.3024h1.47a2.7271,2.7271,0,0,1-.6511-.3361,3.7493,3.7493,0,0,1-.4831-.5251,2.33,2.33,0,0,1-.2941-.6091,2.3726,2.3726,0,0,1-.105-.6722,2.7925,2.7925,0,0,1,0-.5881h1.3443a3.2368,3.2368,0,0,0-.105.357v.3571a1.8689,1.8689,0,0,0,.168.7352,1.7016,1.7016,0,0,0,.4831.63,2.6669,2.6669,0,0,0,.7982.4621,3.2557,3.2557,0,0,0,1.1553.189h3.76v1.3023Z"/><path class="i" d="M41.4108,225.3839v-1.1763l10.7546-4.7052v1.47l-3.13,1.3863v5.02l3.13,1.3654v1.4493Zm6.3015,1.3863v-3.907l-4.432,1.9535Z"/><path class="i" d="M55.3372,218.1161H44.5826v-1.3024h1.1763a3.4026,3.4026,0,0,1-1.3234-2.6676,3.4877,3.4877,0,0,1,.3151-1.47,3.6539,3.6539,0,0,1,.84-1.1763,4.1878,4.1878,0,0,1,4.3271-.7772,3.9919,3.9919,0,0,1,1.2393.7772,3.6969,3.6969,0,0,1,.8612,1.1763,3.4877,3.4877,0,0,1,.3151,1.47,3.2576,3.2576,0,0,1-.3991,1.5754,3.0033,3.0033,0,0,1-.9243,1.0922h4.3271Zm-4.201-3.76a2.4163,2.4163,0,0,0-.2311-1.05,2.4979,2.4979,0,0,0-.5671-.8192,2.6666,2.6666,0,0,0-.8822-.5251,3.13,3.13,0,0,0-2.1006,0,2.6666,2.6666,0,0,0-.8822.5251,2.54,2.54,0,0,0-.5881.8192,2.6888,2.6888,0,0,0,0,2.1,2.54,2.54,0,0,0,.5881.8192,2.6666,2.6666,0,0,0,.8822.5251,3.13,3.13,0,0,0,2.1006,0,2.6666,2.6666,0,0,0,.8822-.5251,2.4979,2.4979,0,0,0,.5671-.8192A2.3938,2.3938,0,0,0,51.1362,214.3562Z"/><path class="i" d="M55.3372,208.5587H44.5826v-1.3023h1.1763a3.1918,3.1918,0,0,1-.9243-1.0922,3.13,3.13,0,0,1-.3991-1.5754,3.4246,3.4246,0,0,1,.3151-1.47,3.74,3.74,0,0,1,.84-1.1973,4.5379,4.5379,0,0,1,1.26-.7772,4.1179,4.1179,0,0,1,4.3061.7772,3.8039,3.8039,0,0,1,.8612,1.1973,3.4246,3.4246,0,0,1,.3151,1.47,3.3834,3.3834,0,0,1-.3991,1.5754,3.1918,3.1918,0,0,1-.9243,1.0922h4.3271Zm-4.201-3.7809a2.4784,2.4784,0,0,0-.2311-1.05,2.416,2.416,0,0,0-.5671-.7982,2.7113,2.7113,0,0,0-.8822-.5462,3.1309,3.1309,0,0,0-2.1006,0,2.7113,2.7113,0,0,0-.8822.5462,2.4574,2.4574,0,0,0-.5881.7982,2.73,2.73,0,0,0,0,2.1005,2.5413,2.5413,0,0,0,.5881.8192,3.0692,3.0692,0,0,0,.8822.5251,3.13,3.13,0,0,0,2.1006,0,3.0692,3.0692,0,0,0,.8822-.5251A2.6891,2.6891,0,0,0,51.1362,204.7778Z"/><path class="i" d="M40.8017,198.98v-1.3023H52.1654V198.98Z"/><path class="i" d="M42.5661,194.5483a.8821.8821,0,0,1-.2731.6722.9032.9032,0,0,1-1.2771.0252l-.0252-.0252a.8821.8821,0,0,1-.2731-.6722.84.84,0,0,1,.2731-.6511.9662.9662,0,0,1,1.3023,0A.84.84,0,0,1,42.5661,194.5483Zm2.1005.6722v-1.3023h7.5828v1.3023Z"/><path class="i" d="M52.3335,187.9947a3.9551,3.9551,0,0,1-5.4824,3.6969,3.8422,3.8422,0,0,1-1.26-.8192,3.6969,3.6969,0,0,1-.84-1.2393,4.0115,4.0115,0,0,1-.3151-1.5963,4.62,4.62,0,0,1,.21-1.3444,4.204,4.204,0,0,1,.5881-1.1343,3.4468,3.4468,0,0,1,.9033-.84,3.5708,3.5708,0,0,1,1.1132-.5041V185.6a2.5416,2.5416,0,0,0-1.6174,2.3945,2.8555,2.8555,0,0,0,.21,1.0713,2.4139,2.4139,0,0,0,.5041,1.0292,2.6669,2.6669,0,0,0,.8822.5252,3.1306,3.1306,0,0,0,2.1005,0,2.6682,2.6682,0,0,0,1.0083-.5252,2.3725,2.3725,0,0,0,.5671-.84,2.5006,2.5006,0,0,0,.2311-1.0712,2.6051,2.6051,0,0,0-.4621-1.5334,2.521,2.521,0,0,0-1.1763-.9032v-1.3864a3.76,3.76,0,0,1,2.1005,1.3444,4.2,4.2,0,0,1,.5671,1.1342A4.0111,4.0111,0,0,1,52.3335,187.9947Z"/><path class="i" d="M52.3335,179.4036a3.3623,3.3623,0,0,1-.3151,1.47,3.698,3.698,0,0,1-.8612,1.1763,4.0561,4.0561,0,0,1-1.2393.7982,4.4327,4.4327,0,0,1-3.0668,0,4.203,4.203,0,0,1-1.26-.7982,3.6561,3.6561,0,0,1-.84-1.1763,3.3623,3.3623,0,0,1-.3151-1.47,3.13,3.13,0,0,1,.3991-1.5753,3.0028,3.0028,0,0,1,.9243-1.0923H44.5826v-1.3443h7.5828v1.3023H51.01a3.0033,3.0033,0,0,1,.9243,1.0922A3.3827,3.3827,0,0,1,52.3335,179.4036Zm-1.1973-.189a2.4156,2.4156,0,0,0-.2311-1.05,2.4979,2.4979,0,0,0-.5671-.8192,2.6669,2.6669,0,0,0-.8822-.5252,3.1309,3.1309,0,0,0-2.1006,0,2.6669,2.6669,0,0,0-.8822.5252,2.5391,2.5391,0,0,0-.5881.8192,2.7527,2.7527,0,0,0-.21,1.05,2.8365,2.8365,0,0,0,.21,1.05,2.5413,2.5413,0,0,0,.5881.8192,2.6683,2.6683,0,0,0,.8822.5251,3.13,3.13,0,0,0,2.1006,0,2.4815,2.4815,0,0,0,1.68-2.3946Z"/><path class="i" d="M52.2494,170.0354a2.5821,2.5821,0,0,1-.147.9242,2.1011,2.1011,0,0,1-.42.7352,1.7229,1.7229,0,0,1-.7142.4831,2.6467,2.6467,0,0,1-1.0292.189h-4.201v1.5964H44.52v-1.5964H42.419v-1.3233H44.52v-2.1005h1.2183v2.1005h3.97a1.323,1.323,0,0,0,1.0083-.3151,1.47,1.47,0,0,0,.273-.9242,4.0763,4.0763,0,0,0,0-.5041,2.2574,2.2574,0,0,0,0-.4411h1.1553a2.3106,2.3106,0,0,1,.126.5461A2.9134,2.9134,0,0,1,52.2494,170.0354Z"/><path class="i" d="M42.5661,166.5275a.8823.8823,0,0,1-.2731.6722.9032.9032,0,0,1-1.2771.0252l-.0252-.0252a.938.938,0,0,1,0-1.3234.9664.9664,0,0,1,1.3023,0A.8824.8824,0,0,1,42.5661,166.5275Zm2.1005.6722v-1.3024h7.5828V167.2Z"/><path class="i" d="M52.3335,160.0579a3.9289,3.9289,0,0,1-.3151,1.5964,4.0127,4.0127,0,0,1-.84,1.26,3.6334,3.6334,0,0,1-1.26.8192,3.7613,3.7613,0,0,1-1.5334.2941,3.6977,3.6977,0,0,1-1.5334-.2941,3.6334,3.6334,0,0,1-1.26-.8192,4.0127,4.0127,0,0,1-.84-1.26,4.2015,4.2015,0,0,1,0-3.1718,4.0138,4.0138,0,0,1,.84-1.26,3.6348,3.6348,0,0,1,1.26-.8192,4.0744,4.0744,0,0,1,1.5334-.294,4.2019,4.2019,0,0,1,1.5334.294,3.6348,3.6348,0,0,1,1.26.8192,4.0138,4.0138,0,0,1,.84,1.26A3.9084,3.9084,0,0,1,52.3335,160.0579Zm-1.2183,0a2.8566,2.8566,0,0,0-.21-1.0712,2.33,2.33,0,0,0-.5881-.8192,2.8552,2.8552,0,0,0-.8612-.5462,3.13,3.13,0,0,0-2.1006,0,2.6261,2.6261,0,0,0-.8612.5462,2.33,2.33,0,0,0-.5881.8192,2.8355,2.8355,0,0,0,0,2.1,2.4161,2.4161,0,0,0,.5881.84,2.6258,2.6258,0,0,0,.8612.5461,3.13,3.13,0,0,0,2.1006,0,2.8568,2.8568,0,0,0,.8612-.5461,2.4161,2.4161,0,0,0,.5881-.84A2.8582,2.8582,0,0,0,51.1152,160.0579Z"/><path class="i" d="M44.5826,154.24v-1.3023h1.1763a2.5,2.5,0,0,1-1.0083-1.0293,3.0457,3.0457,0,0,1-.3151-1.3863,3.4253,3.4253,0,0,1,.21-1.1553,2.5006,2.5006,0,0,1,.63-.9032,2.772,2.772,0,0,1,1.0713-.5881,3.4444,3.4444,0,0,1,1.26-.21H52.27v1.2813H47.6913A2.1006,2.1006,0,0,0,46.2,149.45a1.5967,1.5967,0,0,0-.5672,1.2814,2.1,2.1,0,0,0,.1891.8612,1.7432,1.7432,0,0,0,.5251.6931,2.6265,2.6265,0,0,0,.8612.4832,3.971,3.971,0,0,0,1.1763.168h3.76V154.24Z"/><path class="i" d="M52.3335,142.8757a4.2023,4.2023,0,0,1-.1681,1.1553,2.7922,2.7922,0,0,1-.4411.9452,2.2684,2.2684,0,0,1-1.7434.9663v-1.3233a1.4082,1.4082,0,0,0,.5671-.2311,1.5124,1.5124,0,0,0,.3991-.42,1.6168,1.6168,0,0,0,.21-.5251,2.6654,2.6654,0,0,0,0-.5882,1.9114,1.9114,0,0,0-.1891-1.0712.7981.7981,0,0,0-.7562-.42.9454.9454,0,0,0-.7351.294,2.1008,2.1008,0,0,0-.4832.9663l-.273,1.0922a2.8784,2.8784,0,0,1-.84,1.47,2.1007,2.1007,0,0,1-1.3864.4831,1.681,1.681,0,0,1-.8612-.21,1.5755,1.5755,0,0,1-.63-.5462,2.5171,2.5171,0,0,1-.42-.8192,4.2015,4.2015,0,0,1-.1471-1.05,3.5086,3.5086,0,0,1,.1681-1.0923,2.708,2.708,0,0,1,.4621-.84,2.9385,2.9385,0,0,1,.6932-.5671,2.1015,2.1015,0,0,1,.84-.2521v1.3023a1.45,1.45,0,0,0-1.0713,1.4494,1.6381,1.6381,0,0,0,.2521.9242.798.798,0,0,0,.6931.3781.8613.8613,0,0,0,.6722-.273,2.1005,2.1005,0,0,0,.42-.8823l.3151-1.2183a2.71,2.71,0,0,1,.8192-1.4283,2.2956,2.2956,0,0,1,2.3946-.2941,1.7435,1.7435,0,0,1,.6931.5882,2.3723,2.3723,0,0,1,.3991.9032A4.4352,4.4352,0,0,1,52.3335,142.8757Z"/><path d="M220.08,364.1857a4.2019,4.2019,0,0,1-1.5124-.2521,3.7388,3.7388,0,0,1-1.1343-.6511,3.2575,3.2575,0,0,1-.7562-.9452,2.7505,2.7505,0,0,1-.273-1.1553h1.3863a1.47,1.47,0,0,0,.2521.7562,2.2482,2.2482,0,0,0,.5461.5461,2.69,2.69,0,0,0,.7142.2941,2.3569,2.3569,0,0,0,.7562,0,2.3359,2.3359,0,0,0,.7772,0,1.4926,1.4926,0,0,0,.63-.3151,1.3229,1.3229,0,0,0,.42-.4831,1.3873,1.3873,0,0,0,.1681-.6722q0-1.1973-1.5124-1.7644l-1.4494-.5251a4.2013,4.2013,0,0,1-1.8274-1.1553,2.7729,2.7729,0,0,1-.6092-1.8275,2.5842,2.5842,0,0,1,.2521-1.1553,2.3959,2.3959,0,0,1,.6511-.8612,2.8575,2.8575,0,0,1,1.0293-.5461,3.5734,3.5734,0,0,1,1.2813-.21,3.6565,3.6565,0,0,1,1.4073.2521,3.1131,3.1131,0,0,1,1.9115,2.6046h-1.3653a1.8906,1.8906,0,0,0-.7772-1.1973,2.29,2.29,0,0,0-1.2183-.3571,2.1006,2.1006,0,0,0-1.26.3781,1.2181,1.2181,0,0,0-.5251,1.05,1.5119,1.5119,0,0,0,.357,1.05,3.0873,3.0873,0,0,0,1.1553.6512l1.3443.5041a4.3057,4.3057,0,0,1,1.87,1.1553,2.71,2.71,0,0,1,.6722,1.9115,2.8774,2.8774,0,0,1-.2521,1.2183,2.5618,2.5618,0,0,1-.7142.9242,2.9832,2.9832,0,0,1-1.05.5672A4.0143,4.0143,0,0,1,220.08,364.1857Z"/><path d="M228.4824,364.1647a3.8452,3.8452,0,0,1-1.4914-.2941,3.129,3.129,0,0,1-1.1762-.8192,3.7176,3.7176,0,0,1-.7982-1.2183,4.201,4.201,0,0,1-.2731-1.5544,4.4755,4.4755,0,0,1,.2521-1.5124,3.9691,3.9691,0,0,1,.7562-1.2183,3.3832,3.3832,0,0,1,1.1972-.8192,3.76,3.76,0,0,1,1.5754-.315,3.6127,3.6127,0,0,1,1.5544.3361,3.3819,3.3819,0,0,1,1.1763.9242,3.93,3.93,0,0,1,.6722,1.3233,5.2323,5.2323,0,0,1,.168,1.6384h-6.0495a1.932,1.932,0,0,0,.21.9243,2.4367,2.4367,0,0,0,.5251.7561,2.4793,2.4793,0,0,0,.7772.5042,2.8987,2.8987,0,0,0,2.1005,0,2.2472,2.2472,0,0,0,.9032-.9663h1.3024a2.8789,2.8789,0,0,1-.4411.9243,3.2153,3.2153,0,0,1-.7352.7771,3.7831,3.7831,0,0,1-1.0083.5042A4.2035,4.2035,0,0,1,228.4824,364.1647Zm0-6.6166a2.54,2.54,0,0,0-.7982.126,2.6055,2.6055,0,0,0-.7142.3781,2.2677,2.2677,0,0,0-.5461.63,2.3965,2.3965,0,0,0-.3361.9453H230.73a2.3735,2.3735,0,0,0-.7981-1.5544A2.1006,2.1006,0,0,0,228.4824,357.5481Z"/><path d="M237.2415,364.1647a3.9084,3.9084,0,0,1-1.5754-.3151,3.8237,3.8237,0,0,1-1.2183-.84,3.7179,3.7179,0,0,1-.7981-1.2183,3.9905,3.9905,0,0,1,0-3.0037,3.7189,3.7189,0,0,1,.7981-1.2183,3.8237,3.8237,0,0,1,1.2183-.84,3.9084,3.9084,0,0,1,1.5754-.3151,4.3286,4.3286,0,0,1,1.3024.21,4.034,4.034,0,0,1,1.1132.5881,3.1911,3.1911,0,0,1,.8192.8613,3.8,3.8,0,0,1,.5041,1.1132h-1.3863a2.29,2.29,0,0,0-.8822-1.1553,2.5421,2.5421,0,0,0-1.4914-.4411,2.855,2.855,0,0,0-1.0712.21,2.54,2.54,0,0,0-.8192.5881,2.4811,2.4811,0,0,0-.5252.84,3.0709,3.0709,0,0,0,0,2.1215,2.4792,2.4792,0,0,0,.5252.84,2.542,2.542,0,0,0,.8192.5882,2.8569,2.8569,0,0,0,1.0712.21,2.5414,2.5414,0,0,0,1.4914-.4411,2.2893,2.2893,0,0,0,.8822-1.1553h1.3653a3.57,3.57,0,0,1-.5041,1.1133,3.1922,3.1922,0,0,1-.8192.8612,4.0313,4.0313,0,0,1-1.1132.5881A4.3275,4.3275,0,0,1,237.2415,364.1647Z"/><path d="M245.3075,364.1647a2.7731,2.7731,0,0,1-1.1133-.2311,2.5224,2.5224,0,0,1-.8612-.5881,3.0667,3.0667,0,0,1-.5671-.9453,3.97,3.97,0,0,1-.1891-1.26v-4.5581h1.26v4.3691a2.2683,2.2683,0,0,0,.4621,1.47,1.47,1.47,0,0,0,1.2183.5672,1.806,1.806,0,0,0,.8192-.1891,2.1,2.1,0,0,0,.6511-.5461,2.4563,2.4563,0,0,0,.4411-.84,3.9272,3.9272,0,0,0,.1681-1.1553v-3.6758h1.2813v7.4148h-1.2813v-1.1343a2.3107,2.3107,0,0,1-.9873.9662A2.7936,2.7936,0,0,1,245.3075,364.1647Z"/><path d="M251.273,356.5818h1.2813V358.01a2.2672,2.2672,0,0,1,.3361-.63,2.2724,2.2724,0,0,1,1.7434-.8822,2.6645,2.6645,0,0,1,.5881,0v1.3233a1.22,1.22,0,0,0-.3361,0h-.357a1.701,1.701,0,0,0-.7142.1681,1.8694,1.8694,0,0,0-.63.4621,2.3949,2.3949,0,0,0-.4411.7982,3.0462,3.0462,0,0,0-.189,1.1342V364.06H251.273Z"/><path d="M259.612,364.1647a3.9281,3.9281,0,0,1-1.4914-.2941,3.298,3.298,0,0,1-1.1763-.8192,3.6767,3.6767,0,0,1-.7772-1.2183,4.2022,4.2022,0,0,1-.294-1.5544,4.4754,4.4754,0,0,1,.252-1.5124,3.9729,3.9729,0,0,1,.7562-1.2183,3.3845,3.3845,0,0,1,1.1973-.8192,3.97,3.97,0,0,1,3.1508,0,3.5091,3.5091,0,0,1,1.1553.9243,3.5928,3.5928,0,0,1,.6722,1.3233,4.6848,4.6848,0,0,1,.168,1.6384h-6.0495a2.2049,2.2049,0,0,0,.21.9242,2.4359,2.4359,0,0,0,.5251.7562,2.4779,2.4779,0,0,0,.7772.5041,2.8987,2.8987,0,0,0,2.1005,0,2.2464,2.2464,0,0,0,.9032-.9662h1.3023a3.3185,3.3185,0,0,1-.42.9242,4.198,4.198,0,0,1-.7352.7772,3.9056,3.9056,0,0,1-1.0292.5041A4.2,4.2,0,0,1,259.612,364.1647Zm0-6.6166a2.6466,2.6466,0,0,0-.7982.126,2.2271,2.2271,0,0,0-.6932.3781,2.3524,2.3524,0,0,0-.5671.63,2.3941,2.3941,0,0,0-.3151.9453H261.86a2.3732,2.3732,0,0,0-.7982-1.5544A2.1,2.1,0,0,0,259.612,357.5481Z"/><path d="M270.5557,361.539a1.8272,1.8272,0,0,1-.7772-.168,1.6605,1.6605,0,0,1-.6512-.42,2.0234,2.0234,0,0,1,0-2.8777,2.3106,2.3106,0,0,1,.6511-.42,1.8272,1.8272,0,0,1,.7772-.168,2.1,2.1,0,0,1,.7772.168,2.3106,2.3106,0,0,1,.6511.42,2.0038,2.0038,0,0,1,0,2.8777,1.6605,1.6605,0,0,1-.6512.42A2.1,2.1,0,0,1,270.5557,361.539Z"/><path d="M281.6043,364.1857a4.2,4.2,0,0,1-1.4913-.2521,3.6117,3.6117,0,0,1-1.1553-.6511,2.8772,2.8772,0,0,1-.7352-.9452,2.7738,2.7738,0,0,1-.2941-1.1553h1.3864a1.724,1.724,0,0,0,.273.7562,1.9326,1.9326,0,0,0,.5462.5461,2.565,2.565,0,0,0,.6931.2941,2.5223,2.5223,0,0,0,.7562,0,2.463,2.463,0,0,0,.7982,0,1.788,1.788,0,0,0,.63-.3151,1.555,1.555,0,0,0,.42-.4831,1.3861,1.3861,0,0,0,.147-.6722c0-.7982-.5041-1.3863-1.4913-1.7644l-1.47-.5251a4.2013,4.2013,0,0,1-1.8274-1.1553,2.8991,2.8991,0,0,1-.6092-1.8275,2.5842,2.5842,0,0,1,.2521-1.1553,2.4574,2.4574,0,0,1,.6722-.8612,2.6038,2.6038,0,0,1,1.0082-.5461,3.6562,3.6562,0,0,1,1.2813-.21,3.5924,3.5924,0,0,1,1.4074.2521,3.2636,3.2636,0,0,1,1.6593,1.5754,3.7361,3.7361,0,0,1,.2731,1.0292h-1.3653a1.9747,1.9747,0,0,0-.7772-1.1973,2.29,2.29,0,0,0-1.2183-.3571,2.1012,2.1012,0,0,0-1.2813.3781,1.2184,1.2184,0,0,0-.5251,1.05,1.4278,1.4278,0,0,0,.3781,1.05,3.1714,3.1714,0,0,0,1.1342.6512l1.3653.5041a4.454,4.454,0,0,1,1.87,1.1553,2.71,2.71,0,0,1,.6511,1.9115,2.8758,2.8758,0,0,1-.252,1.2183,2.75,2.75,0,0,1-.6932.9242,2.8979,2.8979,0,0,1-1.0712.5672A3.9282,3.9282,0,0,1,281.6043,364.1857Z"/><path d="M290.1114,364.1647a3.7394,3.7394,0,0,1-1.5544-.3151,3.93,3.93,0,0,1-1.2393-.84,3.72,3.72,0,0,1-.7982-1.2183,3.9915,3.9915,0,0,1,0-3.0037,3.7208,3.7208,0,0,1,.7982-1.2183,3.93,3.93,0,0,1,1.2393-.84,3.7394,3.7394,0,0,1,1.5544-.3151,4.6032,4.6032,0,0,1,1.3234.21,4.3478,4.3478,0,0,1,1.1132.5881,3.5481,3.5481,0,0,1,.8192.8613,5.3144,5.3144,0,0,1,.5042,1.1132H292.485a2.3742,2.3742,0,0,0-.8612-1.1553,2.5633,2.5633,0,0,0-1.5124-.4411,2.836,2.836,0,0,0-1.05.21,2.54,2.54,0,0,0-.8192.5881,2.48,2.48,0,0,0-.5252.84,3.0709,3.0709,0,0,0,0,2.1215,2.4776,2.4776,0,0,0,.5252.84,2.542,2.542,0,0,0,.8192.5882,2.8359,2.8359,0,0,0,1.05.21,2.5626,2.5626,0,0,0,1.5124-.4411,2.3737,2.3737,0,0,0,.8612-1.1553h1.3864a4.8751,4.8751,0,0,1-.5042,1.1133,3.5494,3.5494,0,0,1-.8192.8612,4.3478,4.3478,0,0,1-1.1132.5881A4.6,4.6,0,0,1,290.1114,364.1647Z"/><path d="M298.6185,364.1647a3.32,3.32,0,0,1-1.4493-.3151,3.7987,3.7987,0,0,1-1.1553-.84,3.6117,3.6117,0,0,1-.7562-1.2183,4.2007,4.2007,0,0,1,0-3.0037,3.6117,3.6117,0,0,1,.7562-1.2183,3.8,3.8,0,0,1,1.1553-.84,3.32,3.32,0,0,1,1.4493-.3151,3.3817,3.3817,0,0,1,2.6256,1.3023v-1.1342h1.26v7.4148h-1.26v-1.1343a3.3817,3.3817,0,0,1-2.6256,1.3023Zm.189-1.1763a2.731,2.731,0,0,0,1.0293-.21A2.6459,2.6459,0,0,0,301.16,361.35a3.0694,3.0694,0,0,0,0-2.1215,2.5286,2.5286,0,0,0-3.4238-1.4283,2.2679,2.2679,0,0,0-.7982.5881,2.4783,2.4783,0,0,0-.5251.84,3.0694,3.0694,0,0,0,0,2.1215,2.4783,2.4783,0,0,0,.5251.84,2.2679,2.2679,0,0,0,.7982.5881A2.7309,2.7309,0,0,0,298.8075,362.9884Z"/><path d="M304.92,352.8639h1.2814v11.1328H304.92Z"/><path d="M311.6837,364.1647a3.32,3.32,0,0,1-1.4494-.3151,3.8,3.8,0,0,1-1.1552-.84,3.97,3.97,0,0,1-1.0293-2.7307,3.9257,3.9257,0,0,1,.2731-1.4913,3.9668,3.9668,0,0,1,.7562-1.2183,3.8,3.8,0,0,1,1.1552-.84,3.3188,3.3188,0,0,1,1.4494-.3151,3.0044,3.0044,0,0,1,1.5544.3991,3.067,3.067,0,0,1,1.0712.9032v-1.1342h1.2814v7.4148h-1.2814v-1.1343a3.067,3.067,0,0,1-1.0712.9032A3.0044,3.0044,0,0,1,311.6837,364.1647Zm.189-1.1763a2.46,2.46,0,0,0,2.3526-1.6384,3.0694,3.0694,0,0,0,0-2.1215,2.46,2.46,0,0,0-2.3526-1.6384,2.729,2.729,0,0,0-1.0292.21,2.6464,2.6464,0,0,0-1.3234,1.4283,3.0709,3.0709,0,0,0,0,2.1215,2.6464,2.6464,0,0,0,1.3234,1.4283A2.7309,2.7309,0,0,0,311.8727,362.9884Z"/><path d="M321.8922,364.1647a3.0039,3.0039,0,0,1-1.5544-.3991,3.0673,3.0673,0,0,1-1.0713-.9032v1.1342h-1.2813V352.8639h1.2813v4.8522a3.0663,3.0663,0,0,1,1.0713-.9032,3.003,3.003,0,0,1,1.5544-.3991,3.2986,3.2986,0,0,1,1.4283.315,3.6576,3.6576,0,0,1,1.1763.84,3.9729,3.9729,0,0,1,.7562,1.2183,4.2017,4.2017,0,0,1,0,3.0037,3.9706,3.9706,0,0,1-.7562,1.2183,3.6546,3.6546,0,0,1-1.1763.84A3.297,3.297,0,0,1,321.8922,364.1647Zm-.1891-1.1763a2.6264,2.6264,0,0,0,1.0083-.21,2.27,2.27,0,0,0,.7982-.5881,2.4783,2.4783,0,0,0,.5251-.84,3.0709,3.0709,0,0,0,0-2.1215,2.4783,2.4783,0,0,0-.5251-.84,2.27,2.27,0,0,0-.7982-.5881,2.5836,2.5836,0,0,0-2.1006,0,2.27,2.27,0,0,0-.7982.5881,2.4783,2.4783,0,0,0-.5251.84,3.0709,3.0709,0,0,0,0,2.1215,2.4783,2.4783,0,0,0,.5251.84,2.27,2.27,0,0,0,.7982.5881A2.6473,2.6473,0,0,0,321.7031,362.9884Z"/><path d="M327.3535,352.8639h1.2813v11.1328h-1.2813Z"/><path d="M334.2222,364.1647a3.7816,3.7816,0,0,1-1.4914-.2941,3.381,3.381,0,0,1-1.1973-.8192,4.0328,4.0328,0,0,1-.7772-1.2183,4.203,4.203,0,0,1-.2731-1.5544,4.4755,4.4755,0,0,1,.2521-1.5124,3.32,3.32,0,0,1,.7562-1.2183,3.0462,3.0462,0,0,1,1.1973-.8192,3.9278,3.9278,0,0,1,3.13,0,3.13,3.13,0,0,1,1.1552.9243,3.6315,3.6315,0,0,1,.6932,1.3233,4.6841,4.6841,0,0,1,.1471,1.6384h-6.05a2.2271,2.2271,0,0,0,.231.9242,2.1009,2.1009,0,0,0,.5252.7562,2.2668,2.2668,0,0,0,.7772.5041,2.8987,2.8987,0,0,0,2.1005,0,2.1,2.1,0,0,0,.8822-.9662h1.3233a2.8774,2.8774,0,0,1-.4411.9242,3.2119,3.2119,0,0,1-.7352.7772,3.7807,3.7807,0,0,1-1.0082.5041A4.2,4.2,0,0,1,334.2222,364.1647Zm0-6.6166a2.4972,2.4972,0,0,0-.7772.126,2.3316,2.3316,0,0,0-.7142.3781,2.2693,2.2693,0,0,0-.5461.63,2.3965,2.3965,0,0,0-.3361.9453h4.6422a2.4574,2.4574,0,0,0-.7982-1.5544,2.1006,2.1006,0,0,0-1.5754-.5251Z"/><path d="M345.1448,361.539a2.0993,2.0993,0,0,1-.7771-.168,1.7439,1.7439,0,0,1-.63-.42,2.0236,2.0236,0,0,1,0-2.8777,2.5442,2.5442,0,0,1,.63-.42,1.93,1.93,0,0,1,1.5754,0,2.3106,2.3106,0,0,1,.6511.42,2.9638,2.9638,0,0,1,.4412.6512,2.1015,2.1015,0,0,1,.147.7982,1.9746,1.9746,0,0,1-.147.7771,2.9662,2.9662,0,0,1-.4412.6512,1.6594,1.6594,0,0,1-.6511.42A2.1011,2.1011,0,0,1,345.1448,361.539Z"/><path d="M354.5131,353.4521l3.907,5.2513,3.949-5.2513h1.1552v10.5025H362.159v-8.1919l-3.8019,5.1042-3.8019-5.1042v8.1919h-1.3864V353.4521Z"/><path d="M368.8176,364.1647a2.7731,2.7731,0,0,1-1.1133-.2311,2.5224,2.5224,0,0,1-.8612-.5881,3.53,3.53,0,0,1-.5671-.9453,3.97,3.97,0,0,1-.1891-1.26v-4.5581h1.2814v4.3691a2.2684,2.2684,0,0,0,.4411,1.47,1.5121,1.5121,0,0,0,1.2393.5672,1.7842,1.7842,0,0,0,.7982-.1891,1.8055,1.8055,0,0,0,.6511-.5461,2.4565,2.4565,0,0,0,.4412-.84,3.3409,3.3409,0,0,0,.168-1.1553v-3.6758h1.2813v7.4148h-1.2813v-1.1343a2.3737,2.3737,0,0,1-.9662.9662A2.8142,2.8142,0,0,1,368.8176,364.1647Z"/><path d="M374.8041,352.8639h1.3233v11.1328h-1.2813Z"/><path d="M381.3787,364.0807a2.541,2.541,0,0,1-.9032-.1471,1.7428,1.7428,0,0,1-.7142-.42,1.7,1.7,0,0,1-.4831-.6932,2.9834,2.9834,0,0,1-.1681-1.0082v-4.075h-1.5753v-1.1553H379.11v-2.1005h1.2183v2.1005h2.1005v1.1553h-2.1005v3.907a1.26,1.26,0,0,0,.3151.9872,1.3235,1.3235,0,0,0,.9242.2731h.4831l.42-.1051v1.1553l-.5251.1261Z"/><path d="M384.8235,354.5863a.84.84,0,0,1-.6511-.273.8189.8189,0,0,1-.2731-.6512.8614.8614,0,0,1,.2731-.63.9238.9238,0,0,1,.6511-.273.8825.8825,0,0,1,.63.273.924.924,0,0,1,.252.63.8616.8616,0,0,1-.252.6512A.7982.7982,0,0,1,384.8235,354.5863Zm-.6511,1.9955h1.2813v7.4148h-1.2813Z"/><path d="M387.6382,359.2075h3.7809v1.2813h-3.7809Z"/><path d="M398.5608,364.1857a5.67,5.67,0,0,1-2.1-.42,4.957,4.957,0,0,1-1.7434-1.1553,5.4,5.4,0,0,1-1.1553-1.7224,5.67,5.67,0,0,1-.42-2.1005,5.4828,5.4828,0,0,1,.42-2.1005,5.2517,5.2517,0,0,1,2.8987-2.8988,5.6744,5.6744,0,0,1,2.1-.42,5.3363,5.3363,0,0,1,1.8485.3151,5.9686,5.9686,0,0,1,1.4914.7982,4.79,4.79,0,0,1,1.0923,1.1763,4.0547,4.0547,0,0,1,.6091,1.3863h-1.4494a3.57,3.57,0,0,0-.5041-.9242,3.5092,3.5092,0,0,0-.8192-.7562,3.7607,3.7607,0,0,0-1.05-.5041,4.6229,4.6229,0,0,0-1.2183-.1681,4.2025,4.2025,0,0,0-1.6384.3151,3.9722,3.9722,0,0,0-1.3023.8822,3.6572,3.6572,0,0,0-.84,1.3023,4.4116,4.4116,0,0,0,0,3.2768,3.9512,3.9512,0,0,0,.84,1.3233,4.2117,4.2117,0,0,0,4.159,1.0083,3.2548,3.2548,0,0,0,1.05-.5041,3.9472,3.9472,0,0,0,.8192-.7352,4.43,4.43,0,0,0,.5041-.9242h1.4494a4.2035,4.2035,0,0,1-.6091,1.3653,4.4554,4.4554,0,0,1-1.0923,1.1763,5.5455,5.5455,0,0,1-3.34,1.1132Z"/><path d="M405.3245,352.8639h1.2813v11.1328h-1.2813Z"/><path d="M412.3192,364.1647a3.7394,3.7394,0,0,1-1.5544-.3151,4.2022,4.2022,0,0,1-1.2393-.8192,3.8041,3.8041,0,0,1-.7982-1.2393,3.9915,3.9915,0,0,1,0-3.0037,3.8041,3.8041,0,0,1,.7982-1.2393,4.2022,4.2022,0,0,1,1.2393-.8192,3.7394,3.7394,0,0,1,1.5544-.3151,3.8027,3.8027,0,0,1,1.5544.3151,4.5369,4.5369,0,0,1,1.2393.8192,3.8041,3.8041,0,0,1,.7982,1.2393,3.9915,3.9915,0,0,1,0,3.0037,3.8041,3.8041,0,0,1-.7982,1.2393,4.5369,4.5369,0,0,1-1.2393.8192A3.8027,3.8027,0,0,1,412.3192,364.1647Zm0-1.1973a2.5029,2.5029,0,0,0,2.3946-1.6384,2.8366,2.8366,0,0,0,.189-1.05,2.8782,2.8782,0,0,0-.189-1.0293,2.5029,2.5029,0,0,0-2.3946-1.6384,2.48,2.48,0,0,0-1.05.21,2.8566,2.8566,0,0,0-.8191.5672,2.5618,2.5618,0,0,0-.5252.8612,2.8776,2.8776,0,0,0-.189,1.0292,2.8366,2.8366,0,0,0,.189,1.05,2.5627,2.5627,0,0,0,.5252.8612,2.8585,2.8585,0,0,0,.8191.5672,2.4789,2.4789,0,0,0,1.05.21Z"/><path d="M420.6582,364.1647a2.7726,2.7726,0,0,1-1.1132-.2311,2.52,2.52,0,0,1-.8612-.5881,3.0033,3.0033,0,0,1-.5462-1.0083,3.4443,3.4443,0,0,1-.21-1.26v-4.5581h1.2813v4.3691a2.2686,2.2686,0,0,0,.4411,1.47,1.5124,1.5124,0,0,0,1.2393.5672,1.7221,1.7221,0,0,0,.7982-.1891,2.1013,2.1013,0,0,0,.6512-.3991,2.8581,2.8581,0,0,0,.42-.84,3.3431,3.3431,0,0,0,.168-1.1552v-3.6759h1.2813v7.4148h-1.2813v-1.1343a2.3734,2.3734,0,0,1-.9663.9662A2.8146,2.8146,0,0,1,420.6582,364.1647Z"/><path d="M429.7114,364.1647a3.32,3.32,0,0,1-1.4493-.3151,3.5491,3.5491,0,0,1-1.1553-.84,3.6767,3.6767,0,0,1-.7772-1.2183,4.2017,4.2017,0,0,1,0-3.0037,3.6767,3.6767,0,0,1,.7772-1.2183,3.5491,3.5491,0,0,1,1.1553-.84,3.32,3.32,0,0,1,1.4493-.3151,2.9835,2.9835,0,0,1,1.5334.3991,3.0673,3.0673,0,0,1,1.0713.9032V352.864h1.2813v11.1327h-1.2813v-1.1343a3.0663,3.0663,0,0,1-1.0713.9032A2.9835,2.9835,0,0,1,429.7114,364.1647Zm.1891-1.1763a2.7309,2.7309,0,0,0,1.0292-.21,2.3721,2.3721,0,0,0,.7772-.5881,2.4768,2.4768,0,0,0,.5251-.84,3.0694,3.0694,0,0,0,0-2.1215,2.4768,2.4768,0,0,0-.5251-.84,2.3721,2.3721,0,0,0-.7772-.5881,2.729,2.729,0,0,0-1.0292-.21,2.6457,2.6457,0,0,0-1.0293.21,2.54,2.54,0,0,0-.8192.5881,2.4153,2.4153,0,0,0-.5041.84,3.0694,3.0694,0,0,0,0,2.1215,2.4153,2.4153,0,0,0,.5041.84,2.54,2.54,0,0,0,.8192.5881,2.6475,2.6475,0,0,0,1.0293.21Z"/><path d="M441.4953,361.539a1.911,1.911,0,0,1-.7772-.168,1.66,1.66,0,0,1-.6511-.42,2.9623,2.9623,0,0,1-.4411-.6512,1.9729,1.9729,0,0,1-.1471-.7771,2.1,2.1,0,0,1,.1471-.7982,2.96,2.96,0,0,1,.4411-.6512,2.3106,2.3106,0,0,1,.6511-.42,1.89,1.89,0,0,1,1.5544,0,2.3111,2.3111,0,0,1,.6512.42,2.004,2.004,0,0,1,0,2.8777,1.6609,1.6609,0,0,1-.6511.42A1.9115,1.9115,0,0,1,441.4953,361.539Z"/><path d="M452.502,364.1857a4.2,4.2,0,0,1-1.4914-.2521,3.8457,3.8457,0,0,1-1.1553-.6511,2.8769,2.8769,0,0,1-.7351-.9452,2.7723,2.7723,0,0,1-.2941-1.1553h1.3863a1.7229,1.7229,0,0,0,.2731.7562,1.9322,1.9322,0,0,0,.5461.5461,2.4375,2.4375,0,0,0,.7142.2941,2.3569,2.3569,0,0,0,.7562,0,2.3958,2.3958,0,0,0,.7772,0,1.7867,1.7867,0,0,0,.63-.3151,1.5537,1.5537,0,0,0,.42-.4831,1.3873,1.3873,0,0,0,.1471-.6722c0-.7982-.4831-1.3863-1.4914-1.7644l-1.4494-.5251a3.8648,3.8648,0,0,1-1.8274-1.1553,2.7728,2.7728,0,0,1-.6091-1.8275,2.5832,2.5832,0,0,1,.231-1.1553,2.7316,2.7316,0,0,1,.6722-.8612,2.9414,2.9414,0,0,1,1.0082-.5461,3.6562,3.6562,0,0,1,1.2813-.21,3.5924,3.5924,0,0,1,1.4074.2521,3.1278,3.1278,0,0,1,1.0082.6722,2.7512,2.7512,0,0,1,.6512.9032,3.1316,3.1316,0,0,1,.2731,1.0292h-1.3654a1.9746,1.9746,0,0,0-.7771-1.1973,2.2906,2.2906,0,0,0-1.2183-.3571,2.1013,2.1013,0,0,0-1.2814.3781,1.26,1.26,0,0,0-.5251,1.05,1.4282,1.4282,0,0,0,.3781,1.05,3.0873,3.0873,0,0,0,1.1553.6512l1.3443.5041a4.454,4.454,0,0,1,1.87,1.1553,2.71,2.71,0,0,1,.6511,1.9115,2.8789,2.8789,0,0,1-.252,1.2183,2.753,2.753,0,0,1-.6932.9242,2.8991,2.8991,0,0,1-1.0713.5672A3.9277,3.9277,0,0,1,452.502,364.1857Z"/><path d="M460.9251,364.1647a3.9725,3.9725,0,0,1-1.5124-.2941,3.5081,3.5081,0,0,1-1.1763-.8192,3.6767,3.6767,0,0,1-.7772-1.2183,4.203,4.203,0,0,1-.2731-1.5544,4.4755,4.4755,0,0,1,.2521-1.5124,3.32,3.32,0,0,1,.7562-1.2183,3.1305,3.1305,0,0,1,1.1763-.8192,3.9062,3.9062,0,0,1,1.5753-.315,3.78,3.78,0,0,1,1.5754.3361,3.3173,3.3173,0,0,1,1.1553.9242,3.6339,3.6339,0,0,1,.6932,1.3233,4.6817,4.6817,0,0,1,.147,1.6384h-6.0494a2.5836,2.5836,0,0,0,.21.9243,2.5,2.5,0,0,0,.5461.7561,2.3745,2.3745,0,0,0,.7562.5042,3.0257,3.0257,0,0,0,.9663.168,2.6254,2.6254,0,0,0,1.2393-.2731,2.2481,2.2481,0,0,0,.9032-.9662h1.26a3.3824,3.3824,0,0,1-.4411.9242,3.2176,3.2176,0,0,1-.7352.7772,3.78,3.78,0,0,1-1.0083.5041A4.2009,4.2009,0,0,1,460.9251,364.1647Zm0-6.6166a2.4962,2.4962,0,0,0-.7772.126,2.1,2.1,0,0,0-.7142.3781,2.2677,2.2677,0,0,0-.5461.63,2.395,2.395,0,0,0-.3361.9453h4.6421a2.5619,2.5619,0,0,0-.7982-1.5544,2.1,2.1,0,0,0-1.4913-.5251Z"/><path d="M466.4494,356.5818h1.2813V358.01a1.7846,1.7846,0,0,1,.3151-.63,2.8126,2.8126,0,0,1,.5251-.4831,1.9317,1.9317,0,0,1,.5882-.2941,2.35,2.35,0,0,1,.6511-.105,2.7925,2.7925,0,0,1,.5881,0v1.3233a1.3419,1.3419,0,0,0-.357,0h-.3571a1.6808,1.6808,0,0,0-.6932.1681,1.869,1.869,0,0,0-.63.4621,2.416,2.416,0,0,0-.4622.7982,3.5936,3.5936,0,0,0-.168,1.1342V364.06h-1.2813Z"/><path d="M470.65,356.5818h1.4284l2.5416,5.6294,2.5416-5.6294H478.59l-3.4449,7.4148h-1.0712Z"/><path d="M482.9174,364.1647a3.9288,3.9288,0,0,1-1.4914-.2941,3.2967,3.2967,0,0,1-1.1762-.8192,3.6751,3.6751,0,0,1-.7772-1.2183,4.2,4.2,0,0,1-.2941-1.5544,4.473,4.473,0,0,1,.2521-1.5124,3.9707,3.9707,0,0,1,.7561-1.2183,3.3839,3.3839,0,0,1,1.1974-.8192,3.97,3.97,0,0,1,3.1507,0,3.5091,3.5091,0,0,1,1.1553.9243,3.5913,3.5913,0,0,1,.6722,1.3233,4.6848,4.6848,0,0,1,.168,1.6384h-6.05a2.2065,2.2065,0,0,0,.21.9242,2.4359,2.4359,0,0,0,.5251.7562,2.479,2.479,0,0,0,.7772.5041,2.8987,2.8987,0,0,0,2.1005,0,2.2464,2.2464,0,0,0,.9032-.9662h1.3023a3.3185,3.3185,0,0,1-.42.9242,4.2008,4.2008,0,0,1-.7351.7772,3.9078,3.9078,0,0,1-1.0293.5041A4.2,4.2,0,0,1,482.9174,364.1647Zm0-6.6166a2.6476,2.6476,0,0,0-.7982.126,2.2271,2.2271,0,0,0-.6932.3781,2.7533,2.7533,0,0,0-.5671.63,2.3956,2.3956,0,0,0-.3151.9453h4.6211a2.3732,2.3732,0,0,0-.7982-1.5544A2.1,2.1,0,0,0,482.9174,357.5481Z"/><path d="M488.3788,356.5818h1.26V358.01a2.2672,2.2672,0,0,1,.3361-.63,2.1,2.1,0,0,1,.5041-.4831,2.3334,2.3334,0,0,1,.6091-.2941,2.1,2.1,0,0,1,.63-.105,2.6645,2.6645,0,0,1,.5881,0v1.3233a1.22,1.22,0,0,0-.3361,0h-.315a1.701,1.701,0,0,0-.7142.1681,1.8694,1.8694,0,0,0-.63.4621,2.835,2.835,0,0,0-.4411.7982,3.0462,3.0462,0,0,0-.189,1.1342V364.06h-1.26Z"/><path d="M493.7561,352.8639h1.26v11.1328h-1.26Z"/><path d="M500.6878,364.1647a3.9725,3.9725,0,0,1-1.5124-.2941,3.298,3.298,0,0,1-1.1763-.8192,3.6767,3.6767,0,0,1-.7772-1.2183,4.2022,4.2022,0,0,1-.294-1.5544,4.033,4.033,0,0,1,.273-1.5124,3.5723,3.5723,0,0,1,.7352-1.2183,3.3845,3.3845,0,0,1,1.1973-.8192,3.97,3.97,0,0,1,3.1508,0,3.5078,3.5078,0,0,1,1.8274,2.2476,4.6825,4.6825,0,0,1,.1681,1.6384H498.23a2.2049,2.2049,0,0,0,.21.9242,2.4342,2.4342,0,0,0,.5251.7562,2.75,2.75,0,0,0,.7772.5041,2.8978,2.8978,0,0,0,2.2055,0,2.2464,2.2464,0,0,0,.9032-.9662h1.4073a3.3185,3.3185,0,0,1-.42.9242,3.6712,3.6712,0,0,1-.7352.7772,3.6125,3.6125,0,0,1-1.0292.5041A4.198,4.198,0,0,1,500.6878,364.1647Zm0-6.6166a2.6466,2.6466,0,0,0-.7982.126,2.226,2.226,0,0,0-.6932.3781,2.7538,2.7538,0,0,0-.5672.63,2.3955,2.3955,0,0,0-.315.9453h4.6211a2.3735,2.3735,0,0,0-.7772-1.4914,2.1,2.1,0,0,0-1.4914-.5881Z"/><path d="M508.46,364.1647a4.0091,4.0091,0,0,1-1.1342-.1681,2.7723,2.7723,0,0,1-.9452-.42,2.4153,2.4153,0,0,1-.6512-.7352,2.1,2.1,0,0,1-.2941-.9872h1.3023a1.4082,1.4082,0,0,0,.2311.5671,1.8056,1.8056,0,0,0,.42.3781,1.3444,1.3444,0,0,0,.5041.21,2.6106,2.6106,0,0,0,.5672,0,1.9111,1.9111,0,0,0,1.0292-.2521.7979.7979,0,0,0,.3991-.7352,1.0081,1.0081,0,0,0-.273-.7352,2.1016,2.1016,0,0,0-.9453-.4621l-1.0712-.273a2.71,2.71,0,0,1-1.4494-.8192,2.1009,2.1009,0,0,1-.4831-1.3654,1.8272,1.8272,0,0,1,.1891-.84,2.5631,2.5631,0,0,1,.5461-.63,2.983,2.983,0,0,1,.8192-.3991,3.804,3.804,0,0,1,1.0292-.1471,3.3627,3.3627,0,0,1,1.0713.1681,2.604,2.604,0,0,1,.8192.4621,2.0987,2.0987,0,0,1,.5461.6722,1.953,1.953,0,0,1,.2521.84h-1.26a1.4709,1.4709,0,0,0-.5252-.7772,1.491,1.491,0,0,0-.9032-.2941,1.533,1.533,0,0,0-.9032.2521.7773.7773,0,0,0-.3781.6721.8193.8193,0,0,0,.2731.6722,1.9311,1.9311,0,0,0,.8612.3991l1.1763.3151a2.7719,2.7719,0,0,1,1.4283.7982,2.0683,2.0683,0,0,1-.3151,3.0458,2.5207,2.5207,0,0,1-.8612.3991A4.4152,4.4152,0,0,1,508.46,364.1647Z"/><path d="M515.4544,364.1647a4.0093,4.0093,0,0,1-1.1343-.1681,2.4984,2.4984,0,0,1-.9242-.42,2.4153,2.4153,0,0,1-.6512-.7352,2.3749,2.3749,0,0,1-.3151-.9872h1.3234a1.1553,1.1553,0,0,0,.231.5671,1.7006,1.7006,0,0,0,.3991.3781,1.6173,1.6173,0,0,0,.5252.21,2.3492,2.3492,0,0,0,.5671,0,1.8908,1.8908,0,0,0,1.0083-.2521.7979.7979,0,0,0,.42-.7352,1.0084,1.0084,0,0,0-.294-.7352,2.1017,2.1017,0,0,0-.9452-.4621l-1.0713-.273a2.71,2.71,0,0,1-1.4494-.8192,2.1012,2.1012,0,0,1-.4621-1.3654,1.8272,1.8272,0,0,1,.1891-.84,2.4787,2.4787,0,0,1,.5251-.63,2.983,2.983,0,0,1,.8192-.3991,3.9291,3.9291,0,0,1,1.0293-.1471,3.3625,3.3625,0,0,1,1.0712.1681,2.6018,2.6018,0,0,1,.8192.4621,2.1,2.1,0,0,1,.5672.6722,1.9529,1.9529,0,0,1,.252.84h-1.2813a1.47,1.47,0,0,0-.5251-.7772,1.45,1.45,0,0,0-.9032-.2941,1.5748,1.5748,0,0,0-.9032.2521.7769.7769,0,0,0-.3781.6721.9031.9031,0,0,0,.2731.6722,2.1,2.1,0,0,0,.8612.3991l1.1973.3151a2.6255,2.6255,0,0,1,1.4073.7982,2.3056,2.3056,0,0,1,.2731,2.3736,1.7445,1.7445,0,0,1-.5672.6722,2.8365,2.8365,0,0,1-.8822.3991A4.2043,4.2043,0,0,1,515.4544,364.1647Z"/><path d="M525.4948,361.539a1.9107,1.9107,0,0,1-.7772-.168,1.6594,1.6594,0,0,1-.6511-.42,2.9662,2.9662,0,0,1-.4412-.6512,1.9746,1.9746,0,0,1-.147-.7771,2.1015,2.1015,0,0,1,.147-.7982,2.9638,2.9638,0,0,1,.4412-.6512,2.3106,2.3106,0,0,1,.6511-.42,1.89,1.89,0,0,1,1.5544,0,2.3111,2.3111,0,0,1,.6512.42,2.0038,2.0038,0,0,1,0,2.8777,1.6594,1.6594,0,0,1-.6511.42A1.9107,1.9107,0,0,1,525.4948,361.539Z"/><path d="M534.8631,353.4521l3.9069,5.2513,3.949-5.2513h1.2393v10.5025H542.593v-8.1919l-3.802,5.1042-3.8229-5.1042v8.1919h-1.3023V353.4521Z"/><path d="M549.7347,364.1647a3.8027,3.8027,0,0,1-1.5544-.3151,4.2035,4.2035,0,0,1-1.2393-.8192,3.8041,3.8041,0,0,1-.7982-1.2393,3.9915,3.9915,0,0,1,0-3.0037,3.8041,3.8041,0,0,1,.7982-1.2393,4.2035,4.2035,0,0,1,1.2393-.8192,3.9909,3.9909,0,0,1,3.1088,0,4.2009,4.2009,0,0,1,1.2393.8192,3.8025,3.8025,0,0,1,.7982,1.2393,3.9905,3.9905,0,0,1,0,3.0037,3.8025,3.8025,0,0,1-.7982,1.2393,4.2009,4.2009,0,0,1-1.2393.8192A3.8027,3.8027,0,0,1,549.7347,364.1647Zm0-1.1973a2.5628,2.5628,0,0,0,1.0713-.21,2.5011,2.5011,0,0,0,.7982-.5671,2.5629,2.5629,0,0,0,.5251-.8613,2.8358,2.8358,0,0,0,.1891-1.05,2.8783,2.8783,0,0,0-.1891-1.0293,2.5635,2.5635,0,0,0-.5251-.8612,2.5014,2.5014,0,0,0-.7982-.5672,2.5643,2.5643,0,0,0-1.0713-.21,2.4786,2.4786,0,0,0-1.05.21,2.8584,2.8584,0,0,0-.8192.5672,2.5635,2.5635,0,0,0-.5251.8612,2.8783,2.8783,0,0,0-.1891,1.0293,2.8358,2.8358,0,0,0,.1891,1.05,2.5629,2.5629,0,0,0,.5251.8613,2.86,2.86,0,0,0,.8192.5671,2.48,2.48,0,0,0,1.05.21Z"/><path d="M559.3551,364.1647a3.0039,3.0039,0,0,1-1.5544-.3991,3.0682,3.0682,0,0,1-1.0713-.9032v1.1342h-1.2812V352.8639h1.3232v4.8522a3.0671,3.0671,0,0,1,1.0713-.9032,3.003,3.003,0,0,1,1.5544-.3991,3.2979,3.2979,0,0,1,1.4283.315,3.5516,3.5516,0,0,1,1.1553.84,3.6765,3.6765,0,0,1,.7771,1.2183,4.2007,4.2007,0,0,1,0,3.0037,3.6744,3.6744,0,0,1-.7771,1.2183,3.5487,3.5487,0,0,1-1.1553.84A3.2973,3.2973,0,0,1,559.3551,364.1647Zm-.21-1.1763a2.46,2.46,0,0,0,2.3526-1.6384,3.0709,3.0709,0,0,0,0-2.1215,2.46,2.46,0,0,0-2.3526-1.6384,2.729,2.729,0,0,0-1.0292.21,2.3731,2.3731,0,0,0-.7772.5881,2.4783,2.4783,0,0,0-.5251.84,3.0694,3.0694,0,0,0,0,2.1215,2.4783,2.4783,0,0,0,.5251.84,2.3731,2.3731,0,0,0,.7772.5881A2.7309,2.7309,0,0,0,559.145,362.9884Z"/><path d="M565.4676,354.5863a.84.84,0,0,1-.6512-.273.82.82,0,0,1-.2731-.6512.8614.8614,0,0,1,.2731-.63.9033.9033,0,0,1,1.5544.63.8617.8617,0,0,1-.2521.6512A.84.84,0,0,1,565.4676,354.5863Zm-.6512,1.9955h1.2813v7.4148h-1.2813Z"/><path d="M568.5133,352.8639h1.2813v11.1328h-1.2813Z"/><path d="M575.3819,364.1647a3.7808,3.7808,0,0,1-1.4913-.2941,3.38,3.38,0,0,1-1.1973-.8192,4.0328,4.0328,0,0,1-.7772-1.2183,4.201,4.201,0,0,1-.2731-1.5544,4.4755,4.4755,0,0,1,.2521-1.5124,3.3188,3.3188,0,0,1,.7561-1.2183,3.2157,3.2157,0,0,1,1.1973-.8192,3.9287,3.9287,0,0,1,3.13,0,3.3819,3.3819,0,0,1,1.1763.9243,3.9279,3.9279,0,0,1,.6721,1.3233,5.2318,5.2318,0,0,1,.1681,1.6384h-6.0706a2.2275,2.2275,0,0,0,.2311.9242,2.1006,2.1006,0,0,0,.5251.7562,2.4779,2.4779,0,0,0,.7772.5041,2.8978,2.8978,0,0,0,2.2055,0,2.3739,2.3739,0,0,0,.9032-.9662h1.3023a2.8774,2.8774,0,0,1-.4411.9242,3.2119,3.2119,0,0,1-.7352.7772,3.7783,3.7783,0,0,1-1.0083.5041A4.2005,4.2005,0,0,1,575.3819,364.1647Zm0-6.6166a2.54,2.54,0,0,0-.7982.126,2.6035,2.6035,0,0,0-.7141.3781,2.2664,2.2664,0,0,0-.5462.63,2.3965,2.3965,0,0,0-.3361.9453h4.6421a2.4569,2.4569,0,0,0-.7982-1.5544A2.1,2.1,0,0,0,575.3819,357.5481Z"/><path class="j" d="M558.5148,167.1577a26.6765,26.6765,0,1,1,26.6766-26.6765A26.6765,26.6765,0,0,1,558.5148,167.1577Z"/><path class="j" d="M487.2235,108.7844A26.6765,26.6765,0,1,1,513.879,82.0869v.021A26.6765,26.6765,0,0,1,487.2235,108.7844Z"/><path class="j" d="M398.0988,86.8761a26.6765,26.6765,0,1,1,26.6555-26.6975V60.2A26.6976,26.6976,0,0,1,398.0988,86.8761Z"/><path class="j" d="M236.0863,167.1577A26.6765,26.6765,0,1,1,262.7,140.4182v.0629A26.6975,26.6975,0,0,1,236.0863,167.1577Z"/><path class="j" d="M306.2014,108.0072A26.6765,26.6765,0,1,1,332.8569,81.31v.021A26.6975,26.6975,0,0,1,306.2014,108.0072Z"/><ellipse class="k" cx="358.4411" cy="271.028" rx="40.5399" ry="16.363"/><path class="l" d="M317.9012,237.8819V271.028c0,8.9692,18.0854,16.3629,40.54,16.3629s40.54-7.2677,40.54-16.3629V237.8819Z"/><ellipse class="m" cx="358.4411" cy="237.8819" rx="40.5399" ry="16.363"/><path class="g" d="M398.8549,255.2111c0,8.99-18.1064,16.384-40.54,16.384s-40.54-7.2678-40.54-16.384"/><path d="M386.4409,249.75v33.1461s12.6031-4.6211,12.6031-11.3428V237.9449s.6511,3.6969-4.8942,7.7929A29.0273,29.0273,0,0,1,386.4409,249.75Z"/><ellipse class="k" cx="358.4411" cy="221.0988" rx="40.5399" ry="16.363"/><path class="k" d="M351.0473,231.9374v8.57c0,1.7225,3.2978,3.1718,7.2678,3.1718s7.31-1.4493,7.31-3.1718v-8.57Z"/><path class="l" d="M317.9012,187.9947V221.12c0,8.99,18.0854,16.384,40.54,16.384s40.54-7.2678,40.54-16.384V187.9947Z"/><ellipse class="m" cx="358.4411" cy="187.9737" rx="40.5399" ry="16.363"/><path class="k" d="M351.0473,182.1553v8.5911c0,1.7014,3.2978,3.1508,7.2678,3.1508s7.2467-1.4494,7.2467-3.1508v-8.5911Z"/><path class="l" d="M317.9012,138.4437V171.59c0,8.99,18.0854,16.384,40.54,16.384s40.54-7.2677,40.54-16.384v-33.146Z"/><ellipse class="m" cx="358.4411" cy="138.4437" rx="40.5399" ry="16.363"/><path class="g" d="M398.8549,154.8276c0,8.9692-18.1064,16.363-40.54,16.363s-40.54-7.2467-40.54-16.363"/><path class="g" d="M398.8549,205.2609c0,8.9692-18.1064,16.384-40.54,16.384s-40.54-7.2677-40.54-16.384"/><path class="n" d="M360.5626,187.9947v5.7975s5.2723-.6512,5.2723-3.0248v-3.0667Z"/><path class="n" d="M360.5626,237.6088v5.8184s5.2723-.6721,5.2723-3.0457v-3.0247Z"/><path d="M386.4409,150.3326v33.146s12.6031-4.6211,12.6031-11.3637V138.5067s.6511,3.6969-4.8942,7.7929A28.7786,28.7786,0,0,1,386.4409,150.3326Z"/><path d="M386.4409,199.8416v33.1461s12.6031-4.6211,12.6031-11.3428v-33.65s.6511,3.6969-4.8942,7.7719A28.7778,28.7778,0,0,1,386.4409,199.8416Z"/><ellipse class="k" cx="449.6873" cy="271.028" rx="40.5399" ry="16.363"/><path class="l" d="M409.2735,237.8819V271.028c0,8.9692,18.0854,16.3629,40.54,16.3629s40.54-7.2677,40.54-16.3629V237.8819Z"/><ellipse class="m" cx="449.6873" cy="237.8819" rx="40.5399" ry="16.363"/><path class="g" d="M490.2272,255.2111c0,8.99-18.1064,16.384-40.54,16.384s-40.54-7.2678-40.54-16.384"/><path d="M477.6661,249.75v33.1461s12.6031-4.6211,12.6031-11.3428V237.9449s.6512,3.6969-4.8942,7.7929A26.949,26.949,0,0,1,477.6661,249.75Z"/><ellipse class="k" cx="449.6873" cy="221.0988" rx="40.5399" ry="16.363"/><path class="k" d="M442.42,231.9374v8.57c0,1.7225,3.2979,3.1718,7.2678,3.1718s7.2468-1.4493,7.2468-3.1718v-8.57Z"/><path class="l" d="M409.2735,187.9947V221.12c0,8.99,18.0854,16.384,40.54,16.384s40.54-7.2678,40.54-16.384V187.9947Z"/><ellipse class="m" cx="449.6873" cy="187.9737" rx="40.5399" ry="16.363"/><path class="g" d="M490.2272,205.2609c0,8.9692-18.1064,16.384-40.54,16.384s-40.54-7.2677-40.54-16.384"/><path class="n" d="M451.7458,237.6088v5.8184s5.2933-.6721,5.2933-3.0457v-3.0247Z"/><path d="M477.6661,199.8416v33.1461s12.6031-4.6211,12.6031-11.3428v-33.65s.6512,3.6969-4.8942,7.7719A26.7385,26.7385,0,0,1,477.6661,199.8416Z"/><ellipse class="k" cx="404.9254" cy="292.1381" rx="40.5399" ry="16.363"/><path class="l" d="M364.3855,258.992v33.1461c0,8.99,18.0854,16.384,40.54,16.384s40.54-7.2678,40.54-16.384V258.992Z"/><ellipse class="m" cx="404.9254" cy="258.992" rx="40.5399" ry="16.363"/><path class="g" d="M445.4443,276.2162c0,8.9692-18.1064,16.363-40.54,16.363s-40.54-7.2678-40.54-16.363"/><path d="M432.8412,270.881v33.146s12.6031-4.6211,12.6031-11.3637V259.0551s.6511,3.6969-4.8942,7.7929A26.7419,26.7419,0,0,1,432.8412,270.881Z"/><path class="o" d="M404.4,251.3462h1.1343a7.0364,7.0364,0,0,1,4.369,1.9745,6.8252,6.8252,0,0,1,2.1005,3.2978c0,.147.1261.273.2731.3991a5.3772,5.3772,0,0,1,1.1657,7.5148q-.0564.077-.1154.152a5.23,5.23,0,0,1-4.3481,1.9745h-8.402a5.1882,5.1882,0,0,1-5.1673-3.97c-.126-.3781-.126-.7772-.2521-1.1763v-.7982a3.3819,3.3819,0,0,1,.3991-1.5754,6.3019,6.3019,0,0,1,1.8485-2.3736.126.126,0,0,0,.1278-.1242.1238.1238,0,0,0-.0018-.0228,9.3518,9.3518,0,0,1,.3991-1.05,7.331,7.331,0,0,1,5.5033-4.3481C403.7281,251.4722,404.0012,251.3462,404.4,251.3462Zm-1.7224,9.1162h0a2.8993,2.8993,0,0,0-1.1973-1.0713,1.8065,1.8065,0,0,0-1.9745.3991,2.1281,2.1281,0,0,0,1.4493,3.6969h8.4021a2.1005,2.1005,0,0,0,2.0117-2.1856q-.0039-.0943-.0162-.1879a2.1007,2.1007,0,0,0-1.9955-1.7225c-.1261,0-.1261,0-.1261-.126v-.3991a3.7808,3.7808,0,0,0-1.5753-3.1718,3.466,3.466,0,0,0-2.7727-.7772,4.37,4.37,0,0,0-2.7727,1.1763v.126h.126a5.23,5.23,0,0,1,2.8987,1.8485c.1471.147.1471.147,0,.273l-2.1005,2.1006C402.6779,260.3153,402.6779,260.3153,402.6779,260.4624Z"/><path class="o" d="M456.8081,193.6451c-.1261-.273-.3991-.3991-.5252-.6721-1.8484-2.1006-3.5708-4.2011-5.4193-6.3016,0-.147-.126-.147,0-.273,1.0713-2.7727,1.9955-5.5454,3.0457-8.4021v-.126l10.2925,17.8123h-19.01C449.0152,194.9684,452.8591,194.2963,456.8081,193.6451Z"/><path class="o" d="M439.5208,193.5191s0-.1471.1261-.1471c1.9744-3.55,3.97-6.9947,6.07-10.5025,0-.126.1261-.2521.3991-.3781,2.3736-1.9955,4.7472-3.97,6.9947-5.9445h.1261c0,.1261-.1261.2521-.2521.3991-2.1005,4.6212-4.201,9.0953-6.3015,13.7164l-1.2393,2.71c0,.1471-.1471.2731-.3991.2731h-5.1463A1.1127,1.1127,0,0,0,439.5208,193.5191Z"/><path class="o" d="M369.0067,139.683a.504.504,0,0,1-.3991-.1261,3.34,3.34,0,0,0-1.5754,0,3.13,3.13,0,0,0-1.5964.5252.126.126,0,0,0-.126.126v.147h.5251a3.3614,3.3614,0,0,0,1.1973-.147,2.3525,2.3525,0,0,1,1.05.147c.126,0,.273.126.273.3781v.5462c-.147.5251-.3991,1.05-.5461,1.5753,0,.1261-.126.2731-.126.3991v.1261h.0419l.1471-.1261a5.1245,5.1245,0,0,0,1.3233-3.0457v-.126C369.28,139.893,369.1327,139.893,369.0067,139.683Zm-1.5964-5.02-1.1763-.3991-.7982-.3781c-.126-.147-.3991-.273-.3991-.3991a1.1036,1.1036,0,0,1,.6722-1.0712,2.8343,2.8343,0,0,1,1.4493,0,2.101,2.101,0,0,1,.7982.273c.1261,0,.2521,0,.2521-.126v-.3991a.5475.5475,0,0,0-.126-.2731.4411.4411,0,0,0-.2731-.126,3.7176,3.7176,0,0,0-1.7014-.273,2.1,2.1,0,0,0-1.47.5461,1.7224,1.7224,0,0,0,.1471,2.8987c.3991.126.6511.2521,1.05.3991l1.1973.3991a.7351.7351,0,0,1,0,1.3023.777.777,0,0,1-.5461.1471,3.4454,3.4454,0,0,1-1.9745-.2731c-.126,0-.252-.126-.3991-.126s-.252,0-.252.126v.2731c0,.252,0,.3991.252.5251a.42.42,0,0,1,.2731.126,7.9639,7.9639,0,0,0,1.7224.2731h.2521a2.7513,2.7513,0,0,0,1.7224-.5252,2.1,2.1,0,0,0-.6722-2.8356Zm-13.4643,2.6467a2.6881,2.6881,0,0,1-.3991-1.3233v-2.6047a1.68,1.68,0,0,0-1.5754-1.5754,4.56,4.56,0,0,0-1.8485,0l-1.1973.3991c-.126,0-.252.1261-.252.3991v.3991c0,.1261,0,.2521.252.1261s.2731-.1261.3991-.1261a3.3616,3.3616,0,0,1,1.9955-.273c.5251,0,.7772.3991.9242.9242v1.1973h-.3991a3.6334,3.6334,0,0,0-2.1005,0,1.8275,1.8275,0,0,0-1.5754,1.9745,1.6175,1.6175,0,0,0,1.3234,1.7224,2.6468,2.6468,0,0,0,1.9745-.273,4.2046,4.2046,0,0,0,.7982-.6512v.126c.126.126.252.3991.3781.5252a.252.252,0,0,0,.3535.0455.2551.2551,0,0,0,.0456-.0455c.147-.1261.273-.1261.3991-.2731.5041-.42.5041-.42.5041-.6092Zm-1.5754-1.1973c0,.3991-.3991.6722-.7982.7982a4.2008,4.2008,0,0,1-1.1763.273c-.5461,0-.7982-.3991-.7982-.9242a1.0713,1.0713,0,0,1,.9377-1.19,1.0859,1.0859,0,0,1,.1126-.0074,9.7783,9.7783,0,0,1,1.8484.126,2.3959,2.3959,0,0,0-.126,1.0083Zm14.9137,5.1673c0-.1471-.2521-.1471-.3991-.1471h-.1261a22.7271,22.7271,0,0,1-7.1207,1.5964h-2.7727a6.3011,6.3011,0,0,1-2.2476-.3991,24.7692,24.7692,0,0,1-5.2933-1.7224,13.3391,13.3391,0,0,1-1.4493-.7982h-.2521v.2731h0a14.2641,14.2641,0,0,0,3.1508,2.2475,16.93,16.93,0,0,0,7.5408,1.8485h1.05a9.5379,9.5379,0,0,0,2.6466-.3992,17.0728,17.0728,0,0,0,4.201-1.5753,2.5,2.5,0,0,0,.9243-.6722c.2731.084.2731-.042.147-.168Zm-4.3481-9.7884h-.5251c-.3992,0-.3992,0-.5462.3991-.378,1.5964-.7772,3.1718-1.1763,4.6211h0c-.273-1.05-.5251-2.2476-.7982-3.2978-.126-.3991-.252-.9242-.3991-1.4494a.3571.3571,0,0,0-.3094-.3991.3638.3638,0,0,0-.09,0h-.5251c-.3991,0-.3991,0-.3991.3991-.3781,1.3234-.6511,2.6467-.9242,3.97,0,.2521-.126.5251-.126.7772h0v-.126a31.8865,31.8865,0,0,0-.9243-3.5709c-.126-.3991-.126-.7772-.252-1.1763s-.1471-.273-.3991-.273H354.87c-.2521,0-.2521,0-.2521.273h0c.3991,1.4494.9243,2.8987,1.3234,4.3481.126.3991.252.7982.378,1.3233s.1471.3991.3991.3991h.5042c.3991,0,.3991,0,.5461-.3991.2521-1.1973.5251-2.3736.7772-3.4238.147-.3991.147-.7982.2731-1.1973v.126c.252.9242.3991,2.1005.6511,2.92l.3991,1.5754c0,.3991.126.3991.3991.3991h.5251c.3991,0,.3991,0,.5252-.3991h0c.5251-1.8484,1.1973-3.6969,1.7224-5.5453a.4619.4619,0,0,0-.126-.2731c.147.231.147.084.021.084Z"/><path class="o" d="M356.8657,136.7422c0-.273.126-.5461.126-.7982.3991-1.3233.6512-2.6466.9243-3.97,0-.3991.126-.3991.5251-.3991h.5251c.2731,0,.3991,0,.3991.3991a8.5227,8.5227,0,0,0,.3991,1.4493c.2521,1.0713.5251,2.2476.7982,3.3189h0c.3781-1.5964.7772-3.1718,1.1763-4.6212.126-.3991.126-.3991.5251-.3991h.5252c.147,0,.147,0,.147.2521v.2731c-.5251,1.8484-1.1973,3.6969-1.7224,5.5453h0c-.1261.3991-.1261.3991-.5252.3991h-.5251c-.3991,0-.3991,0-.3991-.3991l-.3991-1.5964c-.2731-.9242-.3991-1.9745-.6511-2.8987v-.126c-.1471.3991-.1471.7982-.2731,1.1763-.2731,1.1972-.5251,2.3945-.7982,3.4448,0,.3991-.126.3991-.5251.3991h-.5252c-.2731,0-.3991,0-.3991-.3991a6.0687,6.0687,0,0,0-.3991-1.3233c-.3991-1.4494-.9242-2.8987-1.3233-4.3481h0c0-.273,0-.273.2731-.273h.6511c.2731,0,.3991,0,.3991.273a3.3182,3.3182,0,0,1,.2731,1.1763,31.8916,31.8916,0,0,0,.9242,3.5709Z"/><path class="o" d="M358.3151,144.5141a16.6568,16.6568,0,0,1-7.5409-1.8484,13.5274,13.5274,0,0,1-3.1507-2.2265h0a.189.189,0,0,1-.0058-.2673l.0058-.0058c0-.126.126,0,.252,0a14.9828,14.9828,0,0,0,1.4494.7982,19.2422,19.2422,0,0,0,5.2933,1.7014l2.2475.3991a8.76,8.76,0,0,0,2.7727,0,21.4254,21.4254,0,0,0,7.1208-1.5754h.126c.147,0,.3991,0,.3991.126a.5042.5042,0,0,1-.126.3991,6.31,6.31,0,0,0-.9243.6512,12.7693,12.7693,0,0,1-4.201,1.5964,8.9473,8.9473,0,0,1-2.6466.3991A.9873.9873,0,0,0,358.3151,144.5141Z"/><path class="o" d="M353.946,137.3934a2.6881,2.6881,0,0,1-.3991-1.3233v-2.6887a1.68,1.68,0,0,0-1.5754-1.5754,4.56,4.56,0,0,0-1.8485,0l-1.1973.3991c-.126,0-.252.1261-.252.3991v.3991c0,.1261,0,.2521.252.1261s.2731-.1261.3991-.1261a3.3616,3.3616,0,0,1,1.9955-.273c.5251,0,.7772.3991.9242.9242v1.1973h-.3991a3.6334,3.6334,0,0,0-2.1005,0,1.8275,1.8275,0,0,0-1.5754,1.9745,1.6175,1.6175,0,0,0,1.3234,1.7224,2.6468,2.6468,0,0,0,1.9745-.273,4.2046,4.2046,0,0,0,.7982-.6512v.126c.126.126.252.3991.3781.5252a.252.252,0,0,0,.3535.0455.2551.2551,0,0,0,.0456-.0455c.147-.1261.273-.1261.3991-.2731C353.946,137.5824,353.946,137.5824,353.946,137.3934Zm-1.5754-1.1973c0,.3991-.3991.6722-.7982.7982a4.201,4.201,0,0,1-1.1763.2731c-.5461,0-.7982-.3991-.7982-.9243a1.0713,1.0713,0,0,1,.9377-1.19,1.0859,1.0859,0,0,1,.1126-.0074,9.77,9.77,0,0,1,1.8484.1261A2.3955,2.3955,0,0,0,352.3706,136.1961Z"/><path class="o" d="M365.6248,138.3176a7.0143,7.0143,0,0,1-1.7224-.273.4623.4623,0,0,1-.2731-.1261c-.252-.126-.252-.252-.252-.5251v-.3991c0-.126.126-.2521.252-.126a.5064.5064,0,0,0,.3991.126,3.4876,3.4876,0,0,0,1.9955.2731c.126,0,.3781-.1471.5251-.1471a.7352.7352,0,0,0,0-1.3023l-1.1973-.3991c-.3991-.147-.6511-.2731-1.05-.3991a1.6594,1.6594,0,0,1-.1261-2.8987c.3781-.3991.9243-.3991,1.4494-.5461a3.4654,3.4654,0,0,1,1.7014.273.4407.4407,0,0,1,.2731.1261.5459.5459,0,0,1,.126.273v.3991c0,.126-.126.2521-.252.126a1.7214,1.7214,0,0,1-.7982-.273,2.8152,2.8152,0,0,0-1.4494,0,.7982.7982,0,0,0-.6722,1.0712.4411.4411,0,0,0,.3991.3991l.7982.3781,1.1973.3991a1.7015,1.7015,0,0,1,.3781,2.92,2.9615,2.9615,0,0,1-1.7014.6511Z"/><path class="o" d="M369.28,140.2921a4.3688,4.3688,0,0,1-1.3233,3.0457l-.1471.1261h-.084v-.1261c0-.126.1261-.273.1261-.3991.147-.5251.3991-1.05.5461-1.5753v-.5462c0-.126-.1471-.252-.2731-.3781a2.6485,2.6485,0,0,0-1.05-.147,3.3608,3.3608,0,0,0-1.1973.147h-.5252v-.147l.126-.126a2.5,2.5,0,0,1,1.5964-.5252h1.9745c.2731,0,.2731.1261.2731.3991Z"/><path class="p" d="M311.0115,83.5783h-2.5206c-.6511,0-1.1763.5251-1.1763,1.4493v8.045a1.3442,1.3442,0,0,0,1.1763,1.4493h2.5206c.6512,0,1.1763-.5251,1.1763-1.4493V85.07a1.239,1.239,0,0,0-1.1763-1.4913Z"/><path class="q" d="M296.9381,68.2655h-2.5a1.2393,1.2393,0,0,0-1.2,1.2778l.0023.0456V93.0726a1.2391,1.2391,0,0,0,1.1517,1.321l.0456.0023h2.5a1.2182,1.2182,0,0,0,1.2017-1.2346c0-.03-.0018-.0592-.0044-.0887V69.5679A1.3025,1.3025,0,0,0,296.9381,68.2655Z"/><path class="q" d="M303.9538,78.7681h-2.5206a1.2183,1.2183,0,0,0-1.18,1.2552q.0011.0341.004.0681V93.0306A1.2183,1.2183,0,0,0,301.365,94.35q.034.003.0682.004h2.5206a1.2183,1.2183,0,0,0,1.18-1.2551q-.001-.0342-.004-.0682V80.1334A1.3024,1.3024,0,0,0,303.9538,78.7681Z"/><path class="q" d="M317.8172,73.1387h-2.6047a1.2183,1.2183,0,0,0-1.18,1.2552c.0007.0227.002.0455.004.0682V92.9466a1.2182,1.2182,0,0,0,1.1081,1.3193q.034.003.0681.004h2.5207a1.2182,1.2182,0,0,0,1.18-1.2552c-.0007-.0227-.002-.0455-.004-.0681v-18.38A1.3023,1.3023,0,0,0,317.8172,73.1387Z"/><path class="q" d="M561.5606,143.6529l10.2925,10.2925m-7.2678-17.9593a10.8386,10.8386,0,1,1-10.86-10.8177h.042A10.8807,10.8807,0,0,1,564.5853,135.9861Z"/><path class="r" d="M550.3228,143.2538a13.8075,13.8075,0,0,0,.3991,3.1718,12.98,12.98,0,0,0,3.1718.3991,10.8176,10.8176,0,0,0,10.8387-10.7966v-.042a13.8075,13.8075,0,0,0-.3991-3.1718,12.9793,12.9793,0,0,0-3.1718-.3991,10.7336,10.7336,0,0,0-10.8387,10.6275Q550.3217,143.1483,550.3228,143.2538Z"/><path class="q" d="M382.912,59.5484l6.3016-8.99,9.2422,11.2168,8.066-8.9692"/><path class="p" d="M386.3359,58.75a2.4576,2.4576,0,0,1-2.3736,2.3736,2.3526,2.3526,0,0,1-2.3736-2.3314c0-.014,0-.0281,0-.0422a2.4365,2.4365,0,0,1,2.3736-2.3735,2.3526,2.3526,0,0,1,2.3736,2.3313C386.336,58.7221,386.336,58.7362,386.3359,58.75Zm6.0705-8.192a2.8987,2.8987,0,1,1-3.022-2.77q.0615-.0027.1232-.0027a2.7515,2.7515,0,0,1,2.8949,2.6Q392.4072,50.472,392.4064,50.5582Zm18.9046,2.2476a4.4951,4.4951,0,1,1-4.64-4.3457c.0482-.0015.0965-.0024.1447-.0024a4.2013,4.2013,0,0,1,4.4741,4.3481Zm-9.9775,8.9692A2.4785,2.4785,0,0,1,398.96,64.17a2.3945,2.3945,0,1,1,2.3735-2.4154Z"/><path class="q" d="M406.3958,64.8417l7.7719,7.7719m-5.4824-13.5483a8.192,8.192,0,1,1-8.2129-8.171h.0419A8.213,8.213,0,0,1,408.6853,59.0653Z"/><path class="s" d="M251.273,141.0063A14.7037,14.7037,0,0,1,236.5694,155.71v.5251a15.1867,15.1867,0,0,0,15.1867-15.1867h0Zm-14.7036,14.5355a14.7036,14.7036,0,0,1-14.7036-14.7036h-.5251a15.1867,15.1867,0,0,0,15.1866,15.1867h0Zm-14.7036-14.5355a14.7036,14.7036,0,0,1,14.7036-14.7036V125.82a15.1867,15.1867,0,0,0-15.1867,15.1867h.4831Zm14.7036-14.7036a14.7036,14.7036,0,0,1,14.7036,14.7036h.5251A15.1867,15.1867,0,0,0,236.6114,125.82h0Zm4.8732,14.7036a33.1469,33.1469,0,0,1-1.4494,10.5025,12.0352,12.0352,0,0,1-1.5754,3.1718,2.5,2.5,0,0,1-1.8484,1.05v.5251a3.1717,3.1717,0,0,0,2.2475-1.3233,11.1311,11.1311,0,0,0,1.7014-3.2978,34.575,34.575,0,0,0,1.4494-10.5026Zm-4.8732,14.5355a2.9615,2.9615,0,0,1-1.8485-1.0713,8.6547,8.6547,0,0,1-1.5964-3.1717,32.9168,32.9168,0,0,1-1.4493-10.5026h-.4831a33.9873,33.9873,0,0,0,1.4493,10.5026,12.3525,12.3525,0,0,0,1.7224,3.2978,2.899,2.899,0,0,0,2.2476,1.3233Zm-4.8942-14.5355a33.1442,33.1442,0,0,1,1.4493-10.5026,11.87,11.87,0,0,1,1.5964-3.1508,2.4367,2.4367,0,0,1,1.8485-1.0712V125.82a3.1089,3.1089,0,0,0-2.2476,1.3233,10.65,10.65,0,0,0-1.7224,3.2978,34.5746,34.5746,0,0,0-1.4494,10.5026Zm4.8942-14.7036a3.0242,3.0242,0,0,1,1.8484,1.0713,8.7161,8.7161,0,0,1,1.5754,3.1507,33.1471,33.1471,0,0,1,1.4494,10.5026h.5251a33.9874,33.9874,0,0,0-1.4494-10.5026,12.9792,12.9792,0,0,0-1.7014-3.2978,2.92,2.92,0,0,0-2.2475-1.3233Zm-14.9347,14.9346H251.357v-.5041h-29.68Z"/><path class="t" d="M487.8746,79.0832a.588.588,0,0,1-.5251-.5251V75.26a.5043.5043,0,0,0-.5251-.5462h-3.2979a.5672.5672,0,0,0-.5251.5462,4.39,4.39,0,0,1-8.7171,0,.5882.5882,0,0,0-.5251-.5462H470.44a.4835.4835,0,0,0-.5252.5462v16.489a.4832.4832,0,0,0,.5252.5251h16.51a.4831.4831,0,0,0,.5251-.5251V88.4515a.5883.5883,0,0,1,.5252-.5252,4.327,4.327,0,0,0,3.8439-4.348A4.5371,4.5371,0,0,0,487.8746,79.0832Z"/><path class="u" d="M487.4545,74.7141v3.844a.5882.5882,0,0,0,.5252.5251,4.39,4.39,0,0,1,0,8.7171.5672.5672,0,0,0-.5252.5251v3.823M473.7172,74.7141a.5671.5671,0,0,1,.5251.5462,4.3271,4.3271,0,0,0,4.3691,3.8229A4.4111,4.4111,0,0,0,482.96,75.26a.5881.5881,0,0,1,.5251-.5462h7.6669a.5462.5462,0,0,0,.5251-.5251,4.306,4.306,0,0,1,4.18-3.8229,4.4321,4.4321,0,0,1,4.3481,3.8229.567.567,0,0,0,.5251.5251h3.2978a.5671.5671,0,0,1,.5251.5461V91.7493a.5461.5461,0,0,1-.5251.5251H470.3143a.4831.4831,0,0,1-.5251-.5251V75.26a.5672.5672,0,0,1,.5251-.5462Z"/><path d="M471.05,330.9556H333.2349A13.8633,13.8633,0,0,1,319.33,317.1343c0-.028,0-.0561,0-.0841h0a13.8633,13.8633,0,0,1,13.8212-13.9054H471.05a13.8634,13.8634,0,0,1,13.9054,13.8213c0,.028,0,.0561,0,.0841h0a13.8633,13.8633,0,0,1-13.8212,13.9054Z"/><path class="i" d="M371.0651,316.9452l-4.201-6.1965h1.68l3.1928,4.7891,3.2138-4.7891h1.68l-4.201,6.3015v4.5581h-1.3863Z"/><path class="i" d="M379.74,321.6713a3.9288,3.9288,0,0,1-1.5964-.315,4.0116,4.0116,0,0,1-1.26-.84,3.7608,3.7608,0,0,1-.8192-1.2393,3.8642,3.8642,0,0,1-.2941-1.5544,3.7588,3.7588,0,0,1,.3571-1.5964,3.36,3.36,0,0,1,.8192-1.2393,4.0744,4.0744,0,0,1,1.26-.8612,4.4317,4.4317,0,0,1,3.1718,0,4.0744,4.0744,0,0,1,1.26.8612,3.36,3.36,0,0,1,.8192,1.2393,4.199,4.199,0,0,1,0,3.0877,3.76,3.76,0,0,1-.8192,1.2393,4.0121,4.0121,0,0,1-1.26.84A3.9058,3.9058,0,0,1,379.74,321.6713Zm0-1.2183a2.5,2.5,0,0,0,1.0712-.21,2.3321,2.3321,0,0,0,.8192-.5882,2.4131,2.4131,0,0,0,.5461-.8612,2.8557,2.8557,0,0,0,.1891-1.0713,3.0031,3.0031,0,0,0-.1891-1.05,2.7083,2.7083,0,0,0-.5461-.8822,2.29,2.29,0,0,0-.8192-.5672,2.605,2.605,0,0,0-2.1005,0,2.3745,2.3745,0,0,0-.84.5672,2.7083,2.7083,0,0,0-.5461.8822,3.003,3.003,0,0,0-.189,1.05,2.8556,2.8556,0,0,0,.189,1.0713,2.6047,2.6047,0,0,0,1.3863,1.4494A2.5,2.5,0,0,0,379.74,320.453Z"/><path class="i" d="M388.2474,321.6713a2.9829,2.9829,0,0,1-1.1553-.231,2.1012,2.1012,0,0,1-.8613-.6092,2.4575,2.4575,0,0,1-.5671-.9662,3.4881,3.4881,0,0,1-.21-1.2813v-4.5581h1.3023v4.453a2.29,2.29,0,0,0,.4622,1.5124,1.5124,1.5124,0,0,0,1.2393.5672,1.9533,1.9533,0,0,0,.84-.1891,2.1,2.1,0,0,0,.6722-.5461,3.443,3.443,0,0,0,.4411-.8822,3.82,3.82,0,0,0,.1681-1.1553v-3.76h1.3023v7.5828h-1.3023V320.327a2.3942,2.3942,0,0,1-1.0082.9872A2.5836,2.5836,0,0,1,388.2474,321.6713Z"/><path class="i" d="M394.3388,314.0255h1.3023v1.47a1.4923,1.4923,0,0,1,.3361-.6511,2.0985,2.0985,0,0,1,.5042-.4832,3.3414,3.3414,0,0,1,.6511-.336,2.4984,2.4984,0,0,1,.6722-.1051,2.7925,2.7925,0,0,1,.5881,0v1.3444a1.1141,1.1141,0,0,0-.3571,0h-.357a1.7429,1.7429,0,0,0-.7142.147,1.8294,1.8294,0,0,0-.6512.4831,3.0077,3.0077,0,0,0-.4621.8192,3.7177,3.7177,0,0,0-.168,1.1553v3.76h-1.3023Z"/><path class="i" d="M403.434,310.7487h3.0878a6.1734,6.1734,0,0,1,2.29.42,5.5855,5.5855,0,0,1,1.8274,1.1342,5.1883,5.1883,0,0,1,1.1973,1.7014,5.63,5.63,0,0,1,0,4.2011,4.9781,4.9781,0,0,1-1.1973,1.7014,5.5872,5.5872,0,0,1-1.8274,1.1342,6.1754,6.1754,0,0,1-2.29.42H403.434Zm3.0878,9.4523a5.19,5.19,0,0,0,1.7644-.2941,4.2006,4.2006,0,0,0,1.3653-.8612,3.8869,3.8869,0,0,0,.8823-1.2813,4.6639,4.6639,0,0,0,0-3.2558,3.8858,3.8858,0,0,0-.8823-1.2813,3.7379,3.7379,0,0,0-1.3653-.84,4.7032,4.7032,0,0,0-1.7644-.3151h-1.68v8.129Z"/><path class="i" d="M417.2134,321.6713a3.5083,3.5083,0,0,1-1.4914-.315,3.8884,3.8884,0,0,1-1.1763-.84,4.201,4.201,0,0,1-.7771-1.26,4.0516,4.0516,0,0,1-.2731-1.5333,4.2,4.2,0,0,1,.2731-1.5334,4.4112,4.4112,0,0,1,.7771-1.2393,3.95,3.95,0,0,1,1.1763-.8612,3.8452,3.8452,0,0,1,1.4914-.2941,3.3614,3.3614,0,0,1,1.5754.3781,3.1939,3.1939,0,0,1,1.0923.9242v-1.0712h1.3023v7.5828h-1.3023V320.327a3.2343,3.2343,0,0,1-1.0923.9452A3.36,3.36,0,0,1,417.2134,321.6713Zm.189-1.1973a2.4769,2.4769,0,0,0,1.05-.21,2.54,2.54,0,0,0,.8192-.5881,3.2544,3.2544,0,0,0,.5251-.8612,3.0668,3.0668,0,0,0,.1891-1.0923,3.0238,3.0238,0,0,0-.1891-1.0712,2.71,2.71,0,0,0-.5251-.8613,2.5432,2.5432,0,0,0-.8192-.5881,2.73,2.73,0,0,0-2.1005,0,2.5432,2.5432,0,0,0-.8192.5881,2.3743,2.3743,0,0,0-.5251.8613,3.0238,3.0238,0,0,0-.1891,1.0712,3.0668,3.0668,0,0,0,.1891,1.0923,2.7928,2.7928,0,0,0,.5251.8612,2.54,2.54,0,0,0,.8192.5881,2.4767,2.4767,0,0,0,1.05.21Z"/><path class="i" d="M426.54,321.5873a2.5845,2.5845,0,0,1-.9243-.147,1.8283,1.8283,0,0,1-.7351-.42,1.7215,1.7215,0,0,1-.4411-.6932,2.5625,2.5625,0,0,1-.1891-1.0293v-4.201h-1.5963v-1.0712H424.25v-2.1006h1.3023v2.1006h2.1005v1.1973h-2.1005v3.97a1.24,1.24,0,0,0,.3361,1.0083,1.3442,1.3442,0,0,0,.9243.273h.5041a2.0971,2.0971,0,0,0,.42-.126v1.1763l-.5251.126A2.9809,2.9809,0,0,1,426.54,321.5873Z"/><path class="i" d="M432.4211,321.6713a3.4252,3.4252,0,0,1-1.47-.315,3.6554,3.6554,0,0,1-1.1763-.84,3.8642,3.8642,0,0,1-.7772-1.26,4.076,4.076,0,0,1-.2941-1.5333,4.202,4.202,0,0,1,.2941-1.5334,3.9908,3.9908,0,0,1,.7772-1.2393,3.6969,3.6969,0,0,1,1.1763-.8612,3.74,3.74,0,0,1,1.47-.2941,3.2354,3.2354,0,0,1,1.5754.3781,3.0043,3.0043,0,0,1,1.0923.9242v-1.0712h1.3023v7.5828h-1.3023V320.327a3.0462,3.0462,0,0,1-1.0923.9452A3.2338,3.2338,0,0,1,432.4211,321.6713Zm.21-1.1973a2.31,2.31,0,0,0,1.0292-.21,2.5391,2.5391,0,0,0,.8192-.5881,2.7931,2.7931,0,0,0,.5252-.8612,3.0667,3.0667,0,0,0,.189-1.0923,3.0237,3.0237,0,0,0-.189-1.0712,2.3732,2.3732,0,0,0-.5252-.8613,2.5421,2.5421,0,0,0-.8192-.5881,2.3109,2.3109,0,0,0-1.0292-.21,2.4171,2.4171,0,0,0-1.05.21,2.1017,2.1017,0,0,0-.8192.5881,2.4171,2.4171,0,0,0-.5461.8613,3.0237,3.0237,0,0,0-.189,1.0712,3.0667,3.0667,0,0,0,.189,1.0923,2.8568,2.8568,0,0,0,.5461.8612,2.1007,2.1007,0,0,0,.8192.5881,2.4142,2.4142,0,0,0,1.05.21Z"/></svg>