<svg width="1172" height="264" viewBox="0 0 1172 264" fill="none" xmlns="http://www.w3.org/2000/svg">
<rect width="1204" height="264" fill="#001E2B"/>
<mask id="mask0_532_3770" style="mask-type:alpha" maskUnits="userSpaceOnUse" x="0" y="0" width="1204" height="264">
<rect width="1204" height="264" fill="#001E2B"/>
</mask>
<g mask="url(#mask0_532_3770)">
<path d="M1360 203.432V-12.7838C1360 -52.5676 1327.07 -85.4324 1285.91 -85.4324H1140.09C1099.52 -85.4324 1066.59 -117.721 1066 -157.505C1066 -197.288 1032.48 -229 991.912 -229H846.088C805.516 -229 772 -196.712 772 -156.928V-13.9369C772 26.4234 805.516 58.7117 846.088 58.7117H992.5C1033.07 58.7117 1066.59 91 1066.59 130.784V203.432C1066.59 283 1132.44 347 1213.59 347C1294.73 347 1360 282.423 1360 203.432Z" fill="#E3FCF7"/>
<path d="M898.54 -205.598V-205.591L898.54 -205.583C899.073 -169.581 928.881 -140.385 965.584 -140.385H1095.57C1131.73 -140.385 1160.62 -111.538 1160.62 -76.6588V115.98C1160.62 185.789 1102.9 242.892 1031.1 242.892C959.298 242.892 901.064 186.294 901.064 115.98V51.2533C901.064 15.2264 870.71 -13.9596 834.021 -13.9596H703.506C667.867 -13.9596 638.463 -42.3032 638.463 -77.6862V-205.084C638.463 -239.949 667.862 -268.297 703.506 -268.297H833.497C869.151 -268.297 898.54 -240.452 898.54 -205.598Z" stroke="#00ED64" stroke-width="2"/>
</g>
</svg>
