<svg width="1172" height="254" viewBox="0 0 1172 254" fill="none" xmlns="http://www.w3.org/2000/svg">
<g clip-path="url(#clip0_3566_6334)">
<rect width="1172" height="296" fill="#112733"/>
<path d="M656.151 -498.991C704.988 -499.687 744.057 -460.695 744.057 -411.954V-411.258C744.057 -363.213 783.126 -324.221 831.264 -324.221H831.962C880.1 -324.221 919.169 -285.228 919.169 -237.184C919.169 -189.14 958.238 -150.147 1006.38 -150.147H1093.58C1189.86 -150.147 1268 -72.1623 1268 23.9264C1268 120.015 1189.86 198 1093.58 198C997.307 198 919.169 120.015 919.169 23.9264V-64.503C919.169 -112.547 880.1 -151.54 832.659 -151.54H657.546C609.408 -151.54 571.036 -190.532 571.036 -238.577V-411.954C569.641 -459.998 608.71 -498.295 656.151 -498.991Z" fill="#E3FCF7"/>
<path d="M1067.5 -173.891V-173.884L1067.5 -173.876C1068.1 -132.658 1101.52 -99.1922 1142.71 -99.1922H1288.79C1329.46 -99.1922 1362 -66.0394 1362 -25.9039V195.192C1362 275.417 1297.07 341 1216.34 341C1135.61 341 1070.09 275.999 1070.09 195.192V120.904C1070.09 79.6606 1036.06 46.2052 994.875 46.2052H848.214C808.121 46.2052 775 13.6317 775 -27.0831V-173.301C775 -213.421 808.116 -246 848.214 -246H994.286C1034.39 -246 1067.5 -214 1067.5 -173.891Z" stroke="#00ED64" stroke-width="2"/>
</g>
<defs>
<clipPath id="clip0_3566_6334">
<rect width="1172" height="254" fill="white"/>
</clipPath>
</defs>
</svg>