<?xml version="1.0" encoding="UTF-8"?>
<!DOCTYPE svg PUBLIC "-//W3C//DTD SVG 1.1//EN" "http://www.w3.org/Graphics/SVG/1.1/DTD/svg11.dtd">
<svg version="1.1" xmlns="http://www.w3.org/2000/svg" xmlns:xlink="http://www.w3.org/1999/xlink" x="0px" y="0px" width="720" height="220" viewBox="0, 0, 720, 220">
  <g id="Layer 1">
    <g>
      <path d="M35.218,26.411 L98.272,26.411 L98.272,106.187 L35.218,106.187 z" fill="#FFFFFF"/>
      <path d="M35.218,26.411 L98.272,26.411 L98.272,106.187 L35.218,106.187 z" fill-opacity="0" stroke="#0176C0" stroke-width="0.929"/>
    </g>
    <g>
      <path d="M25.533,34.084 L90.344,34.084 L90.344,111.988 L25.533,111.988 z" fill="#FFFFFF"/>
      <path d="M25.533,34.084 L90.344,34.084 L90.344,111.988 L25.533,111.988 z" fill-opacity="0" stroke="#0176C0" stroke-width="0.929"/>
    </g>
    <path d="M28.091,146.982 L688.38,146.982 L688.38,166.177 L28.091,166.177 z" fill="#0C60B2"/>
    <path d="M160.155,143.14 L160.155,182.874" fill-opacity="0" stroke="#AFD1E8" stroke-width="1.5" stroke-dasharray="3,1.5"/>
    <path d="M274.649,143.14 L274.649,182.874" fill-opacity="0" stroke="#AFD1E8" stroke-width="1.5" stroke-dasharray="3,1.5"/>
    <path d="M438.274,143.14 L438.274,182.874" fill-opacity="0" stroke="#AFD1E8" stroke-width="1.5" stroke-dasharray="3,1.5"/>
    <text transform="matrix(1, 0, 0, 1, 159.511, 191.688)">
      <tspan x="-7" y="3.991" font-family="GillSans" font-size="14" fill="#0C60B2">18 </tspan>
    </text>
    <text transform="matrix(1, 0, 0, 1, 273.989, 191.028)">
      <tspan x="-7" y="4.55" font-family="GillSans" font-size="14" fill="#0C60B2">25</tspan>
    </text>
    <text transform="matrix(1, 0, 0, 1, 27.088, 194.318)">
      <tspan x="-10.432" y="1.598" font-family="GillSans" font-size="14" fill="#0C60B2">min</tspan>
    </text>
    <text transform="matrix(1, 0, 0, 1, 437.274, 191.072)">
      <tspan x="-7" y="4.5" font-family="GillSans" font-size="14" fill="#0C60B2">45 </tspan>
    </text>
    <text transform="matrix(1, 0, 0, 1, 686.675, 190.924)">
      <tspan x="-11.884" y="4.174" font-family="GillSans" font-size="14" fill="#0C60B2">max </tspan>
    </text>
    <path d="M29.454,143.007 L29.454,182.874" fill-opacity="0" stroke="#AFD1E8" stroke-width="1.5" stroke-dasharray="3,1.5"/>
    <path d="M689.223,144.51 L689.223,182.874" fill-opacity="0" stroke="#AFD1E8" stroke-width="1.5" stroke-dasharray="3,1.5"/>
    <path d="M633.814,143.14 L633.814,182.874" fill-opacity="0" stroke="#AFD1E8" stroke-width="1.5" stroke-dasharray="3,1.5"/>
    <text transform="matrix(1, 0, 0, 1, 632.815, 191.25)">
      <tspan x="-7" y="4.5" font-family="GillSans" font-size="14" fill="#0C60B2">75 </tspan>
    </text>
    <text transform="matrix(1, 0, 0, 1, 360, 122.787)">
      <tspan x="-76.928" y="5.74" font-family="GillSans" font-size="24" fill="#013494">Index on </tspan>
      <tspan x="15.381" y="5.74" font-family="GillSans" font-size="24" fill="#DE4E01">score</tspan>
    </text>
    <text transform="matrix(1, 0, 0, 1, 54.058, 16.336)">
      <tspan x="-36.665" y="6" font-family="GillSans" font-size="18" fill="#0176C0">collection</tspan>
    </text>
    <g>
      <path d="M16.653,42.728 L81.464,42.728 L81.464,120.632 L16.653,120.632 z" fill="#FFFFFF"/>
      <path d="M16.653,42.728 L81.464,42.728 L81.464,120.632 L16.653,120.632 z" fill-opacity="0" stroke="#0176C0" stroke-width="0.929"/>
    </g>
    <text transform="matrix(1, 0, 0, 1, 48.38, 80.63)">
      <tspan x="-27.631" y="-17.5" font-family="GillSans" font-size="12" fill="#0176C0">{ </tspan>
      <tspan x="-27.631" y="-3.5" font-family="GillSans" font-size="12" fill="#0176C0">  </tspan>
      <tspan x="-20.963" y="-3.5" font-family="GillSans" font-size="12" fill="#DE4F01">score</tspan>
      <tspan x="5.791" y="-3.5" font-family="GillSans" font-size="12" fill="#0176C0">: 30, </tspan>
      <tspan x="-27.631" y="10.5" font-family="GillSans" font-size="12" fill="#0176C0">  ...</tspan>
      <tspan x="-27.631" y="24.5" font-family="GillSans" font-size="12" fill="#0176C0">}</tspan>
    </text>
  </g>
  <defs/>
</svg>
