<?xml version="1.0" encoding="UTF-8"?>
<!DOCTYPE svg PUBLIC "-//W3C//DTD SVG 1.1//EN" "http://www.w3.org/Graphics/SVG/1.1/DTD/svg11.dtd">
<svg version="1.1" xmlns="http://www.w3.org/2000/svg" xmlns:xlink="http://www.w3.org/1999/xlink" x="0px" y="0px" width="750" height="290" viewBox="0, 0, 750, 290">
  <g id="Layer 1">
    <path d="M39.405,183.596 L699.405,183.596 L699.405,203.254 L39.405,203.254 z" fill="#1F66AF"/>
    <path d="M39.905,179.845 L39.905,217.004" fill-opacity="0" stroke="#B0C8DB" stroke-width="1" stroke-dasharray="2,2"/>
    <path d="M169.04,179.845 L169.04,217.004" fill-opacity="0" stroke="#B0C8DB" stroke-width="1" stroke-dasharray="2,2"/>
    <path d="M284.237,179.845 L284.237,217.004" fill-opacity="0" stroke="#B0C8DB" stroke-width="1" stroke-dasharray="2,2"/>
    <path d="M449.413,179.845 L449.413,217.004" fill-opacity="0" stroke="#B0C8DB" stroke-width="1" stroke-dasharray="2,2"/>
    <path d="M643.841,179.845 L643.841,217.004" fill-opacity="0" stroke="#B0C8DB" stroke-width="1" stroke-dasharray="2,2"/>
    <path d="M699.905,179.845 L699.905,217.004" fill-opacity="0" stroke="#B0C8DB" stroke-width="1" stroke-dasharray="2,2"/>
    <text transform="matrix(1, 0, 0, 1, 39.405, 232.824)">
      <tspan x="-18" y="4.734" font-family="Inconsolata" font-size="24" fill="#CD5A2B">min</tspan>
    </text>
    <text transform="matrix(1, 0, 0, 1, 159.69, 201.348)"/>
    <text transform="matrix(1, 0, 0, 1, 168.54, 230.058)">
      <tspan x="-12" y="7.5" font-family="Inconsolata" font-size="24" fill="#CD5A2B">18</tspan>
    </text>
    <text transform="matrix(1, 0, 0, 1, 287.604, 230.058)">
      <tspan x="-12" y="7.5" font-family="Inconsolata" font-size="24" fill="#CD5A2B">30</tspan>
    </text>
    <text transform="matrix(1, 0, 0, 1, 449.893, 230.058)">
      <tspan x="-12" y="7.5" font-family="Inconsolata" font-size="24" fill="#CD5A2B">45</tspan>
    </text>
    <text transform="matrix(1, 0, 0, 1, 642.946, 230.058)">
      <tspan x="-12" y="7.5" font-family="Inconsolata" font-size="24" fill="#CD5A2B">75</tspan>
    </text>
    <text transform="matrix(1, 0, 0, 1, 699.405, 229.004)">
      <tspan x="-18" y="7.5" font-family="Inconsolata" font-size="24" fill="#CD5A2B">max</tspan>
    </text>
    <path d="M39.788,176.438 L283.734,176.438 L283.734,211.242 L39.788,211.242 z" fill="#2476C0" opacity="0.48"/>
    <text transform="matrix(1, 0, 0, 1, 280.684, 80.32)">
      <tspan x="-246" y="3.121" font-family="Inconsolata" font-size="24" fill="#133A80">db.users.find( { score: { "$lt": </tspan>
      <tspan x="150" y="3.121" font-family="Inconsolata" font-size="24" fill="#CD5A2B">30 </tspan>
      <tspan x="186" y="3.121" font-family="Inconsolata" font-size="24" fill="#133A80">} } )</tspan>
    </text>
    <text transform="matrix(1, 0, 0, 1, 104.755, 24.293)">
      <tspan x="-50.631" y="7.5" font-family="GillSans" font-size="24" fill="#468BBE">Collection</tspan>
    </text>
    <g>
      <path d="M98.265,39.293 L98.265,54.941" fill-opacity="0" stroke="#468BBE" stroke-width="1"/>
      <path d="M95.265,54.941 L98.265,62.941 L101.265,54.941 z" fill="#468BBE" fill-opacity="1" stroke="#468BBE" stroke-width="1" stroke-opacity="1"/>
    </g>
    <text transform="matrix(1, 0, 0, 1, 345.21, 24.293)">
      <tspan x="-73.453" y="7.5" font-family="GillSans" font-size="24" fill="#468BBE">Query Criteria</tspan>
    </text>
    <path d="M215.62,60.598 L501.62,60.598 L501.62,100.043 L215.62,100.043 z" fill="#2476C0" opacity="0.3"/>
    <g>
      <path d="M352.312,38.77 L352.312,54.418" fill-opacity="0" stroke="#468BBE" stroke-width="1"/>
      <path d="M349.312,54.418 L352.312,62.418 L355.312,54.418 z" fill="#468BBE" fill-opacity="1" stroke="#468BBE" stroke-width="1" stroke-opacity="1"/>
    </g>
    <path d="M40.288,176.938 L216.12,100.543" fill-opacity="0" stroke="#96BEE1" stroke-width="1"/>
    <path d="M284.234,176.938 L497.121,100.543" fill-opacity="0" stroke="#96BEE1" stroke-width="1"/>
    <text transform="matrix(1, 0, 0, 1, 367.038, 269.719)">
      <tspan x="-108" y="7.5" font-family="Inconsolata" font-size="24" fill="#123A80">{ </tspan>
      <tspan x="-84" y="7.5" font-family="Inconsolata" font-size="24" fill="#CD5A2B">score</tspan>
      <tspan x="-24" y="7.5" font-family="Inconsolata" font-size="24" fill="#123A80">: 1 } Index</tspan>
    </text>
    <g>
      <path d="M659.452,24.903 L737.164,24.903 L737.164,122.543 L659.452,122.543 z" fill="#FFFFFF"/>
      <path d="M659.452,24.903 L737.164,24.903 L737.164,122.543 L659.452,122.543 z" fill-opacity="0" stroke="#0C60B2" stroke-width="0.929"/>
    </g>
    <text transform="matrix(1, 0, 0, 1, 698.165, 58.773)">
      <tspan x="-36.213" y="-18.5" font-family="GillSans" font-size="12" fill="#0C60B2"> {</tspan>
      <tspan x="-36.213" y="-4.5" font-family="GillSans" font-size="12" fill="#0C60B2">   </tspan>
      <tspan x="-26.211" y="-4.5" font-family="Inconsolata" font-size="12" fill="#C45127">score</tspan>
      <tspan x="3.789" y="-4.5" font-family="Inconsolata" font-size="12" fill="#0C60B2">: </tspan>
      <tspan x="15.789" y="-4.5" font-family="Inconsolata" font-size="12" fill="#C55124">18</tspan>
      <tspan x="27.789" y="-4.5" font-family="Inconsolata" font-size="12" fill="#0C60B2">,</tspan>
      <tspan x="-36.213" y="10.5" font-family="Inconsolata" font-size="12" fill="#0C60B2">  ...</tspan>
      <tspan x="-36.213" y="25.5" font-family="GillSans" font-size="12" fill="#0C60B2"> }</tspan>
    </text>
    <g>
      <path d="M627.359,55.926 L704.689,55.926 L704.689,148.438 L627.359,148.438 z" fill="#FFFFFF"/>
      <path d="M627.359,55.926 L704.689,55.926 L704.689,148.438 L627.359,148.438 z" fill-opacity="0" stroke="#0C60B2" stroke-width="0.929"/>
    </g>
    <text transform="matrix(1, 0, 0, 1, 667.524, 89.77)">
      <tspan x="-37.418" y="-18.5" font-family="GillSans" font-size="12" fill="#0C60B2"> {</tspan>
      <tspan x="-37.418" y="-4.5" font-family="GillSans" font-size="12" fill="#0C60B2">   </tspan>
      <tspan x="-27.416" y="-4.5" font-family="Inconsolata" font-size="12" fill="#C45127">score</tspan>
      <tspan x="2.584" y="-4.5" font-family="Inconsolata" font-size="12" fill="#0C60B2">: </tspan>
      <tspan x="14.584" y="-4.5" font-family="Inconsolata" font-size="12" fill="#C55127">45</tspan>
      <tspan x="26.584" y="-4.5" font-family="Inconsolata" font-size="12" fill="#0C60B2">,</tspan>
      <tspan x="-37.418" y="10.5" font-family="Inconsolata" font-size="12" fill="#0C60B2">  ...</tspan>
      <tspan x="-37.418" y="25.5" font-family="GillSans" font-size="12" fill="#0C60B2"> }</tspan>
    </text>
  </g>
  <defs/>
</svg>
