<?xml version="1.0" encoding="UTF-8"?>
<!DOCTYPE svg PUBLIC "-//W3C//DTD SVG 1.1//EN" "http://www.w3.org/Graphics/SVG/1.1/DTD/svg11.dtd">
<svg version="1.1" xmlns="http://www.w3.org/2000/svg" xmlns:xlink="http://www.w3.org/1999/xlink" x="0px" y="0px" width="720" height="250" viewBox="0, 0, 720, 250">
  <g id="Layer 1">
    <g>
      <g>
        <path d="M636.636,24.355 L699.69,24.355 L699.69,104.132 L636.636,104.132 z" fill="#FFFFFF"/>
        <path d="M636.636,24.355 L699.69,24.355 L699.69,104.132 L636.636,104.132 z" fill-opacity="0" stroke="#0176C0" stroke-width="0.929"/>
      </g>
      <g>
        <path d="M626.951,32.028 L691.762,32.028 L691.762,109.932 L626.951,109.932 z" fill="#FFFFFF"/>
        <path d="M626.951,32.028 L691.762,32.028 L691.762,109.932 L626.951,109.932 z" fill-opacity="0" stroke="#0176C0" stroke-width="0.929"/>
      </g>
      <text transform="matrix(1, 0, 0, 1, 655.476, 14.28)">
        <tspan x="-36.665" y="6" font-family="GillSans" font-size="18" fill="#0176C0">collection</tspan>
      </text>
      <g>
        <path d="M618.071,40.672 L682.882,40.672 L682.882,118.576 L618.071,118.576 z" fill="#FFFFFF"/>
        <path d="M618.071,40.672 L682.882,40.672 L682.882,118.576 L618.071,118.576 z" fill-opacity="0" stroke="#0176C0" stroke-width="0.929"/>
      </g>
      <text transform="matrix(1, 0, 0, 1, 649.93, 78.936)">
        <tspan x="-27.631" y="-17.5" font-family="GillSans" font-size="12" fill="#0176C0">{ </tspan>
        <tspan x="-27.631" y="-3.5" font-family="GillSans" font-size="12" fill="#0176C0">  </tspan>
        <tspan x="-20.963" y="-3.5" font-family="GillSans" font-size="12" fill="#DE4F01">score</tspan>
        <tspan x="5.791" y="-3.5" font-family="GillSans" font-size="12" fill="#0176C0">: </tspan>
        <tspan x="10.555" y="-3.5" font-family="GillSans" font-size="12" fill="#DE4D01">30</tspan>
        <tspan x="22.555" y="-3.5" font-family="GillSans" font-size="12" fill="#0176C0">, </tspan>
        <tspan x="-27.631" y="10.5" font-family="GillSans" font-size="12" fill="#0176C0">  </tspan>
        <tspan x="-20.963" y="10.5" font-family="GillSans" font-size="12" fill="#0176C0">...</tspan>
        <tspan x="-27.631" y="24.5" font-family="GillSans" font-size="12" fill="#0176C0">}</tspan>
      </text>
    </g>
    <path d="M27.974,140.9 L688.263,140.9 L688.263,160.095 L27.974,160.095 z" fill="#0C60B2"/>
    <path d="M160.037,137.058 L160.037,176.792" fill-opacity="0" stroke="#AFD1E8" stroke-width="1.5" stroke-dasharray="3,1.5"/>
    <path d="M274.531,137.058 L274.531,176.792" fill-opacity="0" stroke="#AFD1E8" stroke-width="1.5" stroke-dasharray="3,1.5"/>
    <path d="M438.156,137.058 L438.156,176.792" fill-opacity="0" stroke="#AFD1E8" stroke-width="1.5" stroke-dasharray="3,1.5"/>
    <text transform="matrix(1, 0, 0, 1, 159.394, 184.999)">
      <tspan x="-7" y="2.991" font-family="Inconsolata" font-size="14" fill="#DE4D01">18 </tspan>
    </text>
    <text transform="matrix(1, 0, 0, 1, 273.872, 184.389)">
      <tspan x="-7" y="3.5" font-family="Inconsolata" font-size="14" fill="#DE4D01">30</tspan>
    </text>
    <text transform="matrix(1, 0, 0, 1, 25.97, 187.63)">
      <tspan x="-10.5" y="0.598" font-family="Inconsolata" font-size="14" fill="#DE4D01">min</tspan>
    </text>
    <text transform="matrix(1, 0, 0, 1, 437.157, 184.383)">
      <tspan x="-7" y="3.5" font-family="Inconsolata" font-size="14" fill="#DE4D01">45 </tspan>
    </text>
    <text transform="matrix(1, 0, 0, 1, 686.558, 184.842)">
      <tspan x="-10.5" y="3.174" font-family="Inconsolata" font-size="14" fill="#DE4D01">max </tspan>
    </text>
    <path d="M28.337,136.925 L28.337,176.792" fill-opacity="0" stroke="#AFD1E8" stroke-width="1.5" stroke-dasharray="3,1.5"/>
    <path d="M689.105,138.428 L689.105,176.792" fill-opacity="0" stroke="#AFD1E8" stroke-width="1.5" stroke-dasharray="3,1.5"/>
    <path d="M633.697,137.058 L633.697,176.792" fill-opacity="0" stroke="#AFD1E8" stroke-width="1.5" stroke-dasharray="3,1.5"/>
    <text transform="matrix(1, 0, 0, 1, 632.698, 185.168)">
      <tspan x="-7" y="3.5" font-family="Inconsolata" font-size="14" fill="#DE4D01">75 </tspan>
    </text>
    <text transform="matrix(1, 0, 0, 1, 360, 230.969)">
      <tspan x="-91.757" y="4.201" font-family="Inconsolata" font-size="21" fill="#1D4595">{ </tspan>
      <tspan x="-70.757" y="4.201" font-family="Inconsolata" font-size="21" fill="#DE4F4F">score</tspan>
      <tspan x="-18.257" y="4.201" font-family="Inconsolata" font-size="21" fill="#1D4595">: 1 }</tspan>
      <tspan x="34.243" y="4.201" font-family="Inconsolata" font-size="21" fill="#1D4595"> </tspan>
      <tspan x="44.743" y="4.201" font-family="GillSans" font-size="21" fill="#1D4595">Index</tspan>
    </text>
  </g>
  <defs/>
</svg>
