<svg xmlns="http://www.w3.org/2000/svg" height="260" width="720"><path d="M630.9 25h63v79.7h-63z" fill="#fff"/><path d="M630.9 25h63v79.7h-63z" stroke="#0176c0" stroke-width=".9" fill="none"/><path d="M621.2 32.6H686v77.9h-64.8z" fill="#fff"/><path d="M621.2 32.6H686v77.9h-64.8z" stroke="#0176c0" stroke-width=".9" fill="none"/><path d="M620.2 19v1.5q-1.2.5-2.3.5-2 0-3-1.2-1.2-1-1.2-3 0-1.9 1.1-3 1.1-1.2 3-1.2l1 .1 1.3.5v1.7q-1.2-.8-2.3-.8-1 0-1.8.7-.7.8-.7 2t.8 2q.8.7 2 .7 1 0 2.1-.6zm5.8-6.3q1.8 0 3 1.2t1.2 3q0 1.8-1.2 3-1.3 1-3.1 1-1.9 0-3-1.1-1.3-1.2-1.3-3 0-1.7 1.2-2.9 1.3-1.2 3.1-1.2zm-.2 1.5q-1.1 0-1.9.7-.7.8-.7 2 0 1.1.8 1.8.7.8 1.9.8t2-.8q.7-.7.7-1.9 0-1.1-.8-1.9-.8-.7-2-.7zm6.2-5.6h1.6v12.2H632V8.6zm4 0h1.6v12.2H636V8.6zm10.8 8.4h-5.7q0 1 .8 1.8.7.7 1.8.7 1.6 0 3-1V20q-.8.5-1.5.7-.7.3-1.7.3-1.3 0-2.2-.6-.8-.6-1.3-1.5-.5-1-.5-2.2 0-1.8 1-3 1.1-1.1 2.8-1.1 1.6 0 2.5 1.1 1 1.1 1 3v.2zm-5.6-1h4q0-1-.5-1.5-.6-.5-1.4-.5-.9 0-1.4.5-.6.5-.7 1.5zm13.4 3v1.5q-1.2.5-2.4.5-1.9 0-3-1.2-1.1-1-1.1-3 0-1.9 1-3 1.2-1.2 3-1.2l1 .1q.6.1 1.3.5v1.7q-1.2-.8-2.2-.8-1.1 0-1.8.7-.7.8-.7 2t.7 2q.8.7 2 .7 1 0 2.2-.6zm.7-5l3-3v1.7h2.5v1.5h-2.5v4q0 1.3 1.1 1.3.9 0 1.8-.5v1.5q-.9.5-2 .5-1 0-1.8-.7l-.4-.4-.2-.6-.1-1.5v-3.6h-1.4V14zm7.9-4.7q.4 0 .7.3.3.3.3.7 0 .4-.3.7-.3.2-.7.2l-.6-.2q-.3-.3-.3-.7 0-.4.3-.7.3-.3.6-.3zm-.8 3.4h1.6v8.1h-1.6v-8zm7.8 0q1.9 0 3 1.2 1.3 1.2 1.3 3t-1.2 3q-1.3 1-3.2 1-1.8 0-3-1.1-1.2-1.2-1.2-3 0-1.7 1.2-2.9 1.3-1.2 3.1-1.2zm0 1.5q-1.2 0-2 .7-.7.8-.7 2 0 1.1.8 1.8.7.8 1.9.8t2-.8q.7-.7.7-1.9 0-1.1-.8-1.9-.8-.7-2-.7zm7.7-1.5v1q1-1.1 2.4-1.1.8 0 1.4.4.7.4 1 1 .3.7.3 2.2v4.6h-1.6v-4.6q0-1.2-.3-1.7-.4-.6-1.3-.6-1.1 0-2 1.2v5.7h-1.6v-8h1.7z" font-size="18" font-family="GillSans" fill="#0176c0"/><path d="M612.3 41.2h64.8v78h-64.8z" fill="#fff"/><path d="M612.3 41.2h64.8v78h-64.8z" stroke="#0176c0" stroke-width=".9" fill="none"/><g font-size="12" font-family="GillSans"><path d="M616.9 51.4v-1q.4 0 .7-.2.3-.2.4-.6v-1.4q0-1.3.2-1.7 0-.4.3-.7.2-.3.5-.4l1-.1h.3v1h-.2l-.8.1q-.2.3-.2 1v.9l-.1 1.3q-.1.5-.4.8-.2.3-.8.5.7.3 1 .9.3.6.3 1.8v.8q0 .8.2 1 .2.2.8.2h.2v1h-.4q-.6 0-.9-.2-.3 0-.5-.4-.3-.3-.3-.7l-.1-1.6-.1-1.5q-.1-.4-.4-.6l-.7-.2z" fill="#0176c0"/><path d="M623.7 67.6v-1.1l1 .5.7.2.6-.2q.2-.1.2-.3l-.1-.4-.7-.5-1.4-1q-.3-.4-.3-.9 0-.6.5-1t1.3-.4q.7 0 1.6.5v1q-1-.5-1.6-.5l-.5.1q-.2.1-.2.3l.2.4.6.4.4.2q1.3.8 1.3 1.7 0 .7-.5 1.1-.5.4-1.3.4h-.9l-1-.5zm8.9-.8v1q-.8.3-1.6.3-1.2 0-2-.7-.7-.8-.7-2 0-1.3.7-2 .7-.9 2-.9l.7.1.8.3V64q-.8-.5-1.5-.5t-1.2.5q-.5.5-.5 1.3 0 .9.5 1.3.5.5 1.4.5.6 0 1.4-.3zm3.8-4.2q1.2 0 2 .8t.8 2q0 1.2-.8 2-.8.7-2 .7-1.3 0-2-.8-1-.7-1-2 0-1 1-1.9.7-.8 2-.8zm0 1q-.8 0-1.3.5t-.5 1.3q0 .8.5 1.2.5.5 1.3.5t1.3-.5q.5-.5.5-1.2 0-.8-.6-1.3-.5-.5-1.3-.5zm5.2-1V64v-.1q.8-1.3 1.6-1.3.6 0 1.2.6l-.5 1q-.6-.5-1-.5-.6 0-1 .4-.3.5-.3 1.2V68h-1.1v-5.4h1zm7.9 2.8h-3.8q0 .8.6 1.3.4.4 1.2.4 1 0 2-.6v1l-1 .5-1.2.1q-.9 0-1.4-.4-.6-.3-.9-1-.3-.6-.3-1.4 0-1.2.7-2t1.8-.8q1 0 1.7.8.6.7.6 2v.1zm-3.7-.6h2.7q0-.6-.4-1-.3-.3-1-.3-.5 0-.9.3-.3.4-.4 1z" fill="#de4f01"/><path d="M651.2 66.7q.3 0 .5.2t.2.5q0 .3-.2.5t-.5.2q-.3 0-.5-.2t-.2-.5q0-.3.2-.5t.5-.2zm.1-4.2q.3 0 .5.2l.2.6q0 .3-.2.5t-.5.2q-.3 0-.5-.2t-.2-.5l.2-.6q.2-.2.5-.2z" fill="#0176c0"/><path d="M656.9 63.3q.8 0 1.2-.3.4-.4.4-1 0-.5-.4-.9-.4-.3-1-.3t-1.4.4v-1.1q.7-.4 1.6-.4 1 0 1.7.6t.7 1.6q0 .7-.3 1-.2.5-.8.8.5.2.7.5.3.2.4.6l.1.9q0 1-.7 1.7t-1.8.7q-1 0-1.8-.4v-1.3q1 .6 1.8.6.6 0 1-.4.3-.3.3-.9 0-.5-.3-.9l-.4-.3-1-.1v-1.1zm6.9-3.6q1 0 1.8 1.2t.8 3q0 1.9-.8 3-.7 1.2-1.9 1.2t-1.9-1.1q-.7-1.2-.7-3 0-2 .7-3 .8-1.3 2-1.3zm0 1.2q-.8 0-1.2.8-.3.8-.3 2.2 0 1.5.3 2.3.4.8 1.1.8.7 0 1-.8.5-.8.5-2.2 0-1.5-.4-2.3-.4-.8-1-.8z" fill="#e04d01"/><path d="M667.3 69.5v-.3q.3-.2.4-.5l.1-.7q-.6-.1-.6-.7l.2-.6q.2-.2.5-.2.4 0 .6.3.2.3.2.8 0 .7-.4 1.2-.3.4-1 .7zM627.4 82v-.7q-.3.4-.8.6-.4.2-.9.2t-.9-.2q-.4-.3-.6-.7-.3-.5-.3-1.5v-3h1.1v3q0 .9.2 1.2.3.3.9.3.8 0 1.3-.7v-3.9h1V82h-1zm2.3-.4v-1.1l1 .5.7.2.6-.2q.2-.1.2-.3l-.1-.4-.7-.5-1.4-1q-.3-.4-.3-.9 0-.6.5-1t1.3-.4q.7 0 1.6.5v1q-1-.5-1.6-.5l-.5.1q-.2.1-.2.3l.2.4.6.4.4.2q1.3.8 1.3 1.7 0 .7-.5 1.1-.5.4-1.3.4h-.9l-1-.5zm9.4-2.2h-3.7q0 .8.5 1.3.5.4 1.2.4 1 0 2-.6v1l-1 .5-1.2.1q-.8 0-1.4-.4-.5-.3-.9-1-.3-.6-.3-1.4 0-1.2.7-2t1.8-.8q1 0 1.7.8.6.7.6 2v.1zm-3.7-.6h2.7q0-.6-.4-1-.3-.3-.9-.3-.6 0-1 .3-.3.4-.4 1zm6-2.2V78v-.1q.9-1.3 1.6-1.3.6 0 1.3.6l-.6 1q-.5-.5-1-.5t-.9.4q-.4.5-.4 1.2V82h-1v-5.4h1zm4.2-2.2q.3 0 .5.2l.1.4-.1.4q-.2.2-.5.2l-.4-.2q-.2-.1-.2-.4l.2-.4.4-.2zm-.5 2.2h1V82h-1v-5.4zm6.2-2.8h1V82h-2.2q-1.2 0-2-.7-.7-.8-.7-2t.8-2q.7-.8 1.9-.8.5 0 1.2.3v-3zm0 7.3v-3.4l-1-.2q-.8 0-1.3.5t-.5 1.4q0 .8.4 1.3l.6.3 1 .1h.8zm3-.4q.3 0 .5.2t.2.5q0 .3-.2.5t-.5.2q-.3 0-.5-.2t-.2-.5q0-.3.2-.5t.5-.2zm0-4.2q.4 0 .6.2l.2.6q0 .3-.2.5t-.5.2q-.3 0-.5-.2t-.2-.5l.2-.6q.2-.2.5-.2zm4.8 4.2q.3 0 .5.2t.2.5q0 .3-.2.5t-.5.2q-.3 0-.5-.2t-.2-.5q0-.3.2-.5t.5-.2zm2.6 0q.3 0 .5.2t.2.5q0 .3-.2.5t-.5.2q-.3 0-.5-.2t-.2-.5q0-.3.2-.5t.5-.2zm2.7 0q.3 0 .5.2t.2.5q0 .3-.2.5t-.5.2l-.6-.2q-.2-.2-.2-.5t.2-.5l.6-.2zm1.9 2.8v-.3l.3-.5.1-.7q-.6-.1-.6-.7l.2-.6.5-.2q.4 0 .6.3.3.3.3.8 0 .7-.4 1.2l-1 .7zm-41.8 11.2q.3 0 .5.2t.2.5q0 .3-.2.5t-.5.2q-.3 0-.5-.2t-.2-.5q0-.3.2-.5t.5-.2zm2.6 0q.3 0 .5.2.3.2.3.5t-.3.5q-.2.2-.5.2t-.5-.2q-.2-.2-.2-.5t.2-.5q.2-.2.5-.2zm2.7 0q.3 0 .5.2t.2.5q0 .3-.2.5t-.5.2q-.3 0-.5-.2-.3-.2-.3-.5t.3-.5q.2-.2.5-.2zm-13 6.6h.3l1 .1q.3.1.5.4l.3.8v1.6q0 1 .2 1.4 0 .4.4.6.3.2.7.2v1q-.4 0-.7.2-.3.2-.4.6l-.1 1.5-.1 1.6q0 .4-.3.7l-.6.4-.9.1h-.3v-.9h.2q.6 0 .8-.2.2-.2.2-1v-.8q0-1.2.3-1.8.2-.6 1-.9-.6-.2-.8-.5l-.4-.8-.1-1.3v-.9q0-.7-.2-1-.2-.2-.8-.2h-.2v-.9z" fill="#0176c0"/></g><path d="M28.5 140.9h660.3V160H28.5z" fill="#0c60b2"/><path d="M95.6 137v39.8M240 137v39.8M438.7 137v39.8" stroke="#afd1e8" stroke-width="1.5" stroke-dasharray="3,1.5" fill="none"/><g font-size="14" font-family="Inconsolata"><path d="M76.6 179.3v-.9l.1-.5.4-.2q.3 0 .5.2t.2.7q0 .4-.5 1.7l-.3 1-.8-.3.3-1 .1-.7zm-2.4 0v-.9l.1-.5.4-.2q.3 0 .5.2t.2.7q0 .4-.5 1.7l-.3 1-.8-.3.3-1v-.3l.1-.4zm6.3 2.1q.8-1 2.3-1 1.1 0 1.8.7.7.5.7 2v3.9h-1v-.7q-1 .8-2.2.8l-1-.1-.6-.4-.5-.6-.1-.6q0-1 .8-1.6.9-.5 2.4-.6h1.2v-.2q0-1-.4-1.3-.4-.4-1.2-.4-1 0-1.7.7l-.5-.6zm3.9 2.6h-1l-1.2.1q-.5 0-.8.3l-.4.4v.5q0 .4.3.8.4.3 1 .3l.7-.1.6-.4.4-.4.2-.3q.2-.3.2-.8v-.4zm3.1-2.6q.8-1 2.3-1 1.1 0 1.8.7.7.5.7 2v3.9h-1v-.7q-1 .8-2.2.8l-1-.1-.6-.4-.5-.6-.1-.6q0-1 .8-1.6.9-.5 2.4-.6h1.2v-.2q0-1-.4-1.3-.4-.4-1.2-.4-1 0-1.7.7l-.5-.6zm3.9 2.6h-1l-1.2.1q-.5 0-.8.3l-.4.4v.5q0 .4.3.8.4.3 1 .3l.7-.1.6-.4.4-.4.2-.3q.2-.3.2-.8v-.4zm6-5.7v8.7h-1v-7.5l-1.7.5-.3-.6 2.3-1.1h.7zm7.2 1v-.9l.1-.5.4-.2q.3 0 .5.2t.2.7q0 .4-.5 1.7l-.3 1-.8-.3.3-1 .1-.7zm-2.4 0v-.9l.1-.5.4-.2q.3 0 .5.2t.2.7q0 .4-.5 1.7l-.3 1-.8-.3.3-1v-.3l.1-.4zm9.3 7.4q0 1.1-1.5 2.6l-.5-.4q.4-.3.7-.8l.2-.6v-.3l-.3-.2-.3-.3v-.3l.1-.6.6-.2q.4 0 .7.3.3.3.3.8z" fill="#0c60b2"/><path d="M90.6 194.3h.8v5.4h1.1v.9h-1v2.4h-1.1v-2.4h-3.5v-.7l3.7-5.6zm-.2 1.5l-2.5 4h2.5v-4zm4.3-1.5h4.4v.9h-3.6l-.1 2.5q.7-.4 1.4-.4.6 0 1 .2.5.2.9.6.4.4.5 1 .2.5.2 1.2l-.2 1.2q-.2.5-.6.9-.3.4-.8.6l-1.1.1q-.8 0-1.5-.3-.7-.4-1-1l.8-.6v.3l.3.2.3.3.5.2h1.3l.5-.5q.3-.2.4-.6.2-.4.2-.9t-.2-.9q-.1-.4-.4-.6-.2-.3-.5-.4l-.7-.2q-.5 0-1 .3-.4.2-.7.6l-.6-.3.3-4.4z" fill="#de4c01"/></g><g font-size="14" font-family="Inconsolata"><path d="M222.9 180.3l-.1-.8q0-.4.2-.6l.4-.2.4.2q.2.2.2.7l-.4 1.7-.4 1-.8-.2.4-1v-.8zm-2.4 0l-.1-.8q0-.4.2-.6.1-.2.4-.2l.4.2q.2.2.2.7 0 .4-.5 1.7l-.3 1-.8-.2.3-1 .1-.4v-.4zm11.4 2.4l-.7.8h-.1v-.2l-.1-.2-.4-.4q-.4-.4-1.3-.4l-.8.2-.6.5q-.3.3-.4.8-.2.4-.2 1l.2 1q.1.4.4.7.3.4.7.6.4.2 1 .2.9 0 1.6-.8l.6.7q-1 1-2.4 1-.7 0-1.2-.3-.6-.2-1-.7-.5-.4-.7-1l-.2-1.4q0-.7.2-1.3.2-.6.6-1l1-.8 1.4-.2q.7 0 1.3.3.7.3 1 .9zm1.8-.3q.9-1 2.3-1 1.2 0 1.9.7.7.6.7 2v4h-1v-.8q-1 .9-2.3.9-.5 0-.9-.2-.4-.1-.7-.4-.3-.2-.4-.6l-.1-.6q0-1 .8-1.5.8-.6 2.4-.7h1.2v-.2q0-1-.4-1.3-.4-.4-1.2-.4-1 0-1.8.7l-.5-.6zm4 2.6h-1l-1.3.1q-.5.1-.7.3l-.4.4-.1.5q0 .4.4.8.3.3 1 .3l.7-.1.6-.4.4-.3.2-.4.1-.8v-.4zm2.9-4.4q.3-.6 1-1 .6-.4 1.4-.4l1 .2.8.5.5.8.2 1-.1.8-.3.7-.5.6-.5.5-.8.8-.4.4-.5.5-.4.6-.4.6h3.7l.1-.1h.2v1h-5.1v-.7l1.1-1.8 1.2-1.2.6-.6.6-.6.4-.6.1-.4v-1.1l-.4-.5q-.2-.3-.5-.4l-.6-.1-.7.1q-.3 0-.5.2l-.3.4-.2.2v.2l-.7-.6zm10.3-.3l-.1-.8q0-.4.2-.6l.4-.2.4.2q.2.2.2.7l-.4 1.7-.4 1-.8-.2.4-1v-.8zm-2.4 0l-.1-.8q0-.4.2-.6.1-.2.4-.2l.4.2q.2.2.2.7 0 .4-.5 1.7l-.3 1-.8-.2.3-1 .1-.4v-.4zm9.3 7.4q0 1.1-1.5 2.7l-.5-.5q.4-.3.6-.7l.3-.7-.1-.3-.3-.2-.2-.3-.1-.3q0-.4.2-.6.2-.2.6-.2.4 0 .7.3.3.3.3.8z" fill="#0c60b2"/><path d="M238.5 194.8l-1.6 4-1.4 4.2h-1.1l1.4-4 1.5-3.8h-3.7v-1h5v.6zm2.5-.5h4.4v.9h-3.6l-.2 2.5q.7-.4 1.5-.4l1 .2q.5.2.8.6.4.4.6 1 .2.5.2 1.2l-.2 1.2q-.2.5-.6.9-.4.4-.9.6l-1 .2q-.8 0-1.5-.4-.7-.3-1.1-1l.8-.6.1.1v.2l.2.2.4.3.5.2.6.1.7-.1.5-.5.4-.6.1-.9-.1-.8-.4-.7-.6-.4-.7-.1-.9.2q-.4.2-.7.6l-.6-.3.3-4.4z" fill="#de4d01"/></g><path d="M18 188v-6.4h1v.6q.2-.3.6-.5.3-.2.7-.2.4 0 .7.2.4.3.5.7.1-.4.5-.7.4-.2.9-.2.6 0 1 .4.3.5.2 1.2v5h-.9v-5.3q0-.3-.2-.4l-.2-.2h-.2l-.4.2q-.2 0-.3.3-.2.2-.2.5l-.1.6v4.2h-1v-4.4l-.1-1.1q-.2-.3-.5-.3-.4 0-.7.4-.3.4-.3 1.1v4.3h-1zm8-6.4h2.6v5.6h1.5v.8H26v-.8h1.6v-4.8H26v-.8zm1.6-2.6q.2-.2.5-.2t.5.2l.2.6-.2.5q-.2.2-.5.2t-.5-.2l-.2-.5q0-.4.2-.6zm4.9 9v-6.4h1v1.1q.4-.5 1-.9.5-.3 1.1-.3l.8.1.7.5.4.8.1 1.2v4h-1v-4q0-1-.3-1.4-.4-.4-.9-.4l-.6.2q-.4.1-.6.4-.3.2-.5.6l-.1.8v3.7h-1z" font-size="14" font-family="Inconsolata" fill="#0c60b2"/><g font-size="14" font-family="Inconsolata"><path d="M418.8 180.3v-1.4l.5-.2.4.2q.2.2.2.7l-.4 1.7-.4 1-.7-.2.3-1v-.8zm-2.4 0l-.1-.8q0-.4.2-.6.1-.2.4-.2l.4.2q.2.2.2.7l-.4 1.7-.4 1-.8-.2.3-1 .1-.4v-.4zm5.9 7.7v-6.4h1v1.1q.4-.5 1-.9.6-.3 1.2-.3l.7.1.7.5.4.8.1 1.2v4h-1v-4q0-1-.3-1.4-.4-.4-.8-.4t-.7.2l-.6.4q-.3.2-.5.6l-.1.8v3.7h-1zm6.9-9.3h1.2v.2l-.2.1v3.6q.3-.5.9-.8.5-.3 1-.3.6 0 1 .2.5.2.9.6.4.4.6 1 .2.6.2 1.4 0 1-.3 1.6-.2.6-.6 1-.3.4-.8.7l-1 .2q-.6 0-1-.3-.6-.3-.9-.7l-.3.8h-.7v-9.3zm1.8 8.3l.4.2h1.1l.6-.4q.3-.3.4-.7.2-.5.2-1.2 0-1.2-.5-1.9t-1.5-.7q-.3 0-.7.3-.4.2-.6.6-.2.5-.2 1.4v1l.2.7q0 .3.2.4.1.2.4.3zm8.6-7.7v8.7h-1v-7.5l-1.8.5-.2-.5 2.3-1.2h.7zm7.2 1v-1.4l.5-.2.4.2q.2.2.2.7l-.4 1.7-.4 1-.7-.2.3-1v-.8zm-2.4 0l-.1-.8q0-.4.2-.6.1-.2.4-.2l.4.2q.2.2.2.7l-.4 1.7-.4 1-.8-.2.3-1 .1-.4v-.4zm9.3 7.4q0 1.1-1.5 2.7l-.5-.5q.4-.3.6-.7l.3-.7-.1-.3-.3-.2-.2-.3-.1-.3q0-.4.2-.6.2-.2.6-.2.4 0 .7.3.3.3.3.8z" fill="#0c60b2"/><path d="M434.1 196.5q0 .6-.3 1.1-.4.5-1 .8.7.2 1.1.8.4.6.4 1.4l-.2 1q-.1.5-.5.8-.4.4-.9.6-.5.2-1.2.2-1.2 0-2.2-1l.8-1v.3l.2.2.2.2.4.2.7.2q.4 0 .7-.2l.6-.4.4-.5v-.7q0-.8-.5-1.2-.5-.5-1.5-.5h-.4v-.7l1-.1.8-.4q.3-.2.4-.5l.1-.7-.1-.5-.3-.4-.5-.3h-.6q-1 0-1.5.6l-.6-.6q.9-1 2.1-1l1 .2.7.5q.4.3.5.7.2.4.2.9zm6.7-1.1q.4.5.6 1.4.3.9.3 2t-.3 2q-.2.7-.6 1.3-.4.5-1 .8-.4.3-1 .3-.5 0-1-.4-.5-.3-.9-.9-.4-.5-.6-1.4-.2-.8-.2-1.8t.2-1.8q.2-.8.6-1.4.4-.6 1-1 .4-.3 1-.3 1 0 1.9 1.2zm-.5.8q-.3-.5-.7-.8-.3-.3-.7-.3-.4 0-.7.2-.4.3-.6.7l-.5 1.1-.1 1.4q0 1 .2 1.7l3-4zm.3 1l-3 3.9q.2.6.6.9.4.3.7.3.4 0 .7-.3.4-.2.6-.6l.4-1q.2-.7.2-1.5v-1l-.2-.7z" fill="#e04d01"/></g><path d="M677.1 188v-6.4h1v.6l.5-.5.8-.2q.4 0 .7.2.3.3.4.7.2-.4.6-.7l.8-.2q.7 0 1 .4.3.5.3 1.2v5h-1v-5.3l-.1-.4-.2-.2h-.3l-.4.2-.3.3-.2.5v4.8h-1v-4.4q0-.8-.2-1.1-.1-.3-.5-.3-.3 0-.6.4t-.3 1.1v4.3h-1zm7.8-5.6q.8-1 2.3-1 1.1 0 1.8.7.7.6.7 2v4h-1v-.8q-1 .9-2.3.9-.5 0-.9-.2-.4-.1-.6-.4-.3-.2-.5-.6l-.1-.6q0-1 .8-1.5.8-.6 2.4-.7h1.2v-.2q0-1-.4-1.3-.4-.4-1.2-.4-1 0-1.7.7l-.5-.6zm3.9 2.6h-1l-1.2.1-.8.3-.4.4-.1.5q0 .4.4.8.4.3 1 .3l.7-.1.6-.4.4-.3.2-.4q.2-.3.2-.8v-.4zm6.9-3.4h1l-2 3.1 2.3 3.3h-1.2l-1.7-2.5-1.7 2.5h-1.1l2.2-3.2-2.2-3.2h1.1l1.7 2.4 1.6-2.4z" font-size="14" font-family="Inconsolata" fill="#0c60b2"/><path d="M29.9 137v39.8m659.7-38.4v38.4M588.2 137v39.8" stroke="#afd1e8" stroke-width="1.5" stroke-dasharray="3,1.5" fill="none"/><g font-size="14" font-family="Inconsolata"><path d="M571.3 180.3v-.8l.1-.6q.2-.2.5-.2l.4.2q.2.2.2.7 0 .4-.5 1.7l-.3 1-.8-.2.3-1 .1-.8zm-2.4 0v-.8l.1-.6.4-.2q.3 0 .5.2t.2.7q0 .4-.5 1.7l-.3 1-.8-.2.3-1v-.4l.1-.4zm10.1 1.3h1l-2 3.1 2.3 3.3h-1.1l-1.8-2.5-1.7 2.5h-1.1l2.2-3.2-2.2-3.2h1.1l1.7 2.4 1.6-2.4zm2.8.4l-.2-.4h1.2v.4l1.9 4.7 1.2-3.4.3-1 .2-.7h1l-.3.8-.3 1-1.8 4.6-.2.7q-.4 1-.9 1.4-.5.3-1.2.3-.9 0-1.5-.5l.6-.9v.3h.1l.2.1.2.2h.3q.4 0 .7-.2.4-.3.7-1l.2-.4-2.4-6zm7.2-.4h4.9v.7l-3.9 4.8h4.2v1h-5.6v-.8l4-4.8h-3.7v-.9zm10.3-1.3v-.8l.1-.6q.2-.2.5-.2l.4.2q.2.2.2.7 0 .4-.5 1.7l-.3 1-.8-.2.3-1 .1-.8zm-2.4 0v-.8l.1-.6.4-.2q.3 0 .5.2t.2.7q0 .4-.5 1.7l-.3 1-.8-.2.3-1v-.4l.1-.4zm9.3 7.4q0 1.1-1.5 2.7l-.5-.5.7-.7.3-.7q0-.2-.2-.3l-.2-.2-.2-.3q-.2-.1-.2-.3 0-.4.3-.6.2-.2.6-.2.3 0 .6.3t.3.8z" fill="#0c60b2"/><path d="M584 203.1q-1.1 0-2-.7l.7-.8.1.2.2.1q.4.4 1 .4 1 0 1.5-.8t.6-2.6q-.3.4-.8.7l-1 .2-1-.2-.7-.5-.5-.9q-.2-.5-.2-1.1l.2-1.2.5-.9.8-.6 1-.2q1.3 0 2 1.1t.7 3.5q0 1.1-.3 2-.2.8-.7 1.3-.4.5-1 .8-.5.2-1.1.2zm2-5.2v-.4l-.1-1-.3-.8-.6-.4-.6-.2q-.7 0-1.1.5-.5.5-.5 1.5l.2.8q0 .3.3.6l.4.4h.6q.6 0 1-.2.4-.3.7-.8zm7.3-2.5q.4.5.7 1.4.2.9.2 2t-.2 2l-.7 1.3q-.4.5-.9.8-.5.3-1 .3t-1-.4q-.5-.3-1-.9-.3-.5-.5-1.4-.3-.8-.3-1.8t.3-1.8q.2-.8.6-1.4.4-.6.9-1 .5-.3 1-.3 1.1 0 2 1.2zm-.5.8l-.6-.8q-.4-.3-.8-.3l-.7.2-.6.7-.4 1.1-.2 1.4q0 1 .2 1.7l3.1-4zm.3 1l-3 3.9q.3.6.7.9.3.3.7.3.4 0 .7-.3l.6-.6.4-1 .1-1.5v-1q0-.4-.2-.7z" fill="#e04d01"/></g><g font-size="21"><path d="M213.8 248.5l.1-2.1q0-1.4-.5-1.9t-1.4-.5h-.4v-1.2h.4q1 0 1.5-.5t.5-1.7v-1.5q0-3.7 3.7-3.7h1.4v1.2h-1.8q-2 0-2 2.3l.1 1.4q0 2.4-1.8 3.1 1.8.6 1.8 3.3v1.8q0 1.4.5 2 .7.5 2 .5h1.1v1.2h-.7l-1.8-.1q-.8-.1-1.5-.6-1.2-.9-1.2-3z" font-family="Inconsolata" fill="#1d4595"/><path d="M232.8 239.2h1.5v5.4q0 .9.2 1.5l.5 1q.3.4.7.6l.8.1 1-.2.8-.6q.4-.4.6-1 .2-.6.2-1.5v-5.3h1.5v8.7l.1 1h-1.6v-1.6q-.4.8-1.2 1.3-.8.4-1.8.4-.7 0-1.3-.2-.6-.3-1-.8-.5-.6-.8-1.4-.2-.9-.2-2v-5.4zm18.2 1.3l-.8 1.3-.1-.1v-.3l-1.1-.8q-.7-.5-1.6-.5l-.8.1-.6.3-.5.4-.1.6v.5l.5.4.7.3 1.3.5q1.8.4 2.6 1.1.7.7.7 1.6 0 .7-.2 1.2-.3.6-.8 1l-1.3.7q-.7.2-1.7.2-2.4 0-4-1.5l.9-1.5v.2l.2.3.4.5 1 .5.8.2h1.6l.8-.3q.4-.2.6-.5.2-.3.2-.7 0-.5-.5-.9t-1.9-.8l-1.2-.4q-.7-.2-1-.5l-.7-.5q-.3-.3-.4-.7l-.2-.8q0-.5.3-1 .2-.5.7-.8.5-.4 1.2-.6.7-.2 1.5-.2 2.2 0 3.6 1.5zm7-1.5q.7 0 1.4.3.7.2 1.2.8.6.5.9 1.4.3.9.3 2v.7H255q0 1 .3 1.7t.8 1.1q.4.4 1 .6l1.1.2q1.5 0 2.5-1l.9.8q-1.3 1.4-3.4 1.4-1 0-2-.3-.8-.3-1.4-1-.6-.6-1-1.5-.3-1-.3-2.2 0-1.2.4-2.1.3-1 .9-1.6.6-.6 1.4-1 .8-.3 1.7-.3zm-3 4h5.3v-.3l-.2-1-.5-.8-.8-.6q-.4-.2-1-.2-1 0-1.8.8-.8.6-1 2.2zm10-3.8h1.6v1.9q.4-1 1.4-1.6 1-.5 2-.5 1.6 0 2.6 1l-.7 1.5-.4-.5-.4-.4-.5-.2-.6-.1q-.7 0-1.3.3-.6.3-1.1.9l-.7 1.2q-.3.7-.3 1.4v4.7h-1.5v-9.6zm10.7 0h3.9v8.4h2.2v1.2h-6.2v-1.2h2.4v-7.2h-2.3v-1.2zm2.4-3.8q.3-.4.7-.4.5 0 .8.4.3.3.3.7 0 .5-.3.8-.3.3-.8.3-.4 0-.7-.3-.3-.3-.3-.8 0-.4.3-.7zm13.7 5.2v-5.8h1.6l-.1.3-.1.3V248l.1 1h-1.5v-1.6q-.5.8-1.3 1.3-.8.4-1.7.4-.8 0-1.5-.3t-1.2-1q-.5-.6-.8-1.5-.4-1-.4-2.3 0-1.3.4-2.2.4-1 1-1.6.5-.6 1.2-.8.7-.3 1.5-.3 1 0 1.7.4.7.5 1 1.2zm-4.5.3q-.9.8-.9 2.8 0 1.8.7 3 .7 1 2 1l.7-.1q.4-.1.7-.4l.5-.5q.3-.3.4-.7.3-.8.3-2l-.1-1.4q0-.5-.2-.9-.1-.4-.4-.6l-.5-.4-.7-.4-.6-.1q-.6 0-1 .2-.5.1-.9.5z" font-family="Inconsolata" fill="#0076c0"/><path d="M300.4 240.3q.4.4.4.8 0 .5-.4.9-.4.3-1 .3-.4 0-.8-.3-.3-.4-.3-.9t.3-.8q.4-.4.9-.4t.9.4zm0 6.7q.4.4.4.8 0 .5-.4.9-.4.3-1 .3-.4 0-.8-.3-.3-.4-.3-.9t.3-.8q.4-.4.9-.4t.9.4zm21.4-11.3v13.1h-1.5v-11.3l-2.6.8-.4-.8 3.5-1.8h1zm10.6 12.7q0 1.7-2.2 4l-.7-.7 1-1.2q.3-.6.3-1l-.1-.4-.4-.3-.4-.4-.1-.5q0-.5.3-.9t.9-.4q.5 0 1 .5.4.5.4 1.3z" font-family="Inconsolata" fill="#1d4595"/><path d="M356 240.5l-.8 1.3-.1-.1v-.3l-1.1-.8q-.7-.5-1.6-.5l-.8.1-.6.3-.5.4-.1.6v.5l.5.4.7.3 1.3.5q1.8.4 2.6 1.1.7.7.7 1.6 0 .7-.2 1.2-.3.6-.8 1l-1.3.7q-.7.2-1.7.2-2.4 0-4-1.5l.9-1.5v.2l.2.3.4.5 1 .5.8.2h1.6l.8-.3q.4-.2.6-.5.2-.3.2-.7 0-.5-.5-.9t-1.9-.8l-1.2-.4q-.7-.2-1-.5l-.7-.5q-.3-.3-.4-.7l-.2-.8q0-.5.3-1 .2-.5.7-.8.5-.4 1.2-.6.7-.2 1.5-.2 2.2 0 3.6 1.5zm11 .3l-1 1.2-.1-.3-.2-.3q0-.2-.5-.5-.7-.6-2-.6-.5 0-1 .3-.6.2-1 .7-.5.5-.7 1.1-.3.7-.3 1.5t.3 1.5q.2.7.7 1.2.4.5 1 .8.6.3 1.4.3 1.4 0 2.5-1.2l.8 1q-1.4 1.5-3.5 1.5-1 0-1.9-.3-.8-.4-1.5-1-.6-.8-1-1.7-.3-.9-.3-2 0-1 .3-2 .4-.9 1-1.5.7-.7 1.5-1.1 1-.4 2-.4 1.1 0 2 .5 1 .5 1.6 1.3zm6.3-1.8q1 0 1.7.4.8.3 1.4 1 .6.6.9 1.5.4 1 .4 2.1 0 1.2-.4 2.1-.3 1-1 1.6-.5.7-1.3 1-.8.4-1.7.4-1 0-1.7-.4-.8-.4-1.4-1-.7-.7-1-1.6-.4-1-.4-2 0-1.1.4-2 .4-1 1-1.6.6-.7 1.4-1.1.8-.4 1.7-.4zm2.8 5q0-.8-.2-1.5t-.6-1.2q-.4-.5-1-.8l-1-.2q-.6 0-1.1.2l-1 .8-.5 1.1q-.3.7-.3 1.6 0 .8.3 1.5.2.7.6 1.2.4.5.9.8.5.3 1.1.3.6 0 1.1-.3.5-.2.9-.7.4-.5.6-1.2.2-.7.2-1.5zm4.5-4.8h1.5v1.9q.4-1 1.4-1.6 1-.5 2-.5 1.6 0 2.6 1l-.7 1.5-.4-.5-.4-.4-.5-.2-.6-.1q-.7 0-1.3.3-.6.3-1.1.9l-.7 1.2q-.3.7-.3 1.4v4.7h-1.5v-9.6zm13.8-.2q.8 0 1.5.3.7.2 1.2.8.6.5.9 1.4.3.9.3 2v.7h-6.8q0 1 .3 1.7t.8 1.1q.4.4 1 .6l1.1.2q1.5 0 2.5-1l.9.8q-1.3 1.4-3.4 1.4-1 0-2-.3-.8-.3-1.4-1-.6-.6-1-1.5-.3-1-.3-2.2 0-1.2.4-2.1.3-1 .9-1.6.6-.6 1.4-1 .8-.3 1.7-.3zm-2.9 4h5.3v-.3l-.2-1-.5-.8-.8-.6q-.4-.2-1-.2-1 0-1.8.8-.8.6-1 2.2z" font-family="Inconsolata" fill="#de4f4f"/><path d="M405.4 240.3q.4.4.4.8 0 .5-.4.9-.4.3-1 .3-.4 0-.8-.3-.3-.4-.3-.9t.3-.8q.4-.4.9-.4t.9.4zm0 6.7q.4.4.4.8 0 .5-.4.9-.4.3-1 .3-.4 0-.8-.3-.3-.4-.3-.9t.3-.8q.4-.4.9-.4t.9.4zm16.6-5.5h7.5v1.4H422v-1.4zm15.3-5.8v13.1h-1.5v-11.3l-2.6.8-.4-.8 3.5-1.8h1zM459 239v1.6q0 1.2.5 1.7t1.5.5h.4v1.2h-.4q-1 0-1.4.5-.5.5-.5 1.9v2q0 2-.8 2.8-.8 1-2.6 1h-1.8V251h1.9l.5-.1.3-.1.2-.2q.9-.6.9-2.1v-1.8q0-2.7 1.7-3.3-1.8-.7-1.8-3v-1.5q0-1.2-.5-1.7-.5-.6-1.6-.6h-1.6v-1.2h.7l1.5.1q.8 0 1.5.4.6.4 1 1.2.5.7.5 2z" font-family="Inconsolata" fill="#1d4595"/><path d="M474.6 234.5h2v14.3h-2v-14.3zm6.8 4.9v1.2q1.3-1.4 2.9-1.4.9 0 1.6.5.8.4 1.2 1.2.4.8.4 2.5v5.4h-1.9v-5.4q0-1.4-.4-2-.5-.6-1.5-.6-1.3 0-2.3 1.3v6.7h-1.9v-9.4h2zm15-4.9h1.8v14.3h-4q-2 0-3.3-1.3-1.2-1.3-1.2-3.6 0-2 1.3-3.4 1.3-1.3 3.3-1.3 1 0 2 .4v-5.1zm0 12.7v-6q-1-.4-1.8-.4-1.4 0-2.2 1-.8.8-.8 2.4 0 1.4.7 2.2.4.5.9.6.5.2 1.7.2h1.5zm12.4-2.9h-6.6q0 1.3.9 2.1.8.8 2.1.8 1.9 0 3.4-1.1v1.8q-.8.6-1.7.8-.8.3-2 .3-1.5 0-2.5-.7-1-.6-1.5-1.7-.6-1.1-.6-2.6 0-2.1 1.2-3.5 1.2-1.3 3.2-1.3 1.9 0 3 1.3t1.1 3.5v.3zm-6.6-1.2h4.8q-.1-1-.7-1.7-.6-.6-1.6-.6t-1.7.6q-.6.6-.8 1.7zm15.1-3.7h2.4l-3.9 4.6 4.2 4.8h-2.4l-3-3.4-2.8 3.4h-2.3l4-4.8-4-4.6h2.3l2.8 3.2 2.7-3.2z" font-family="GillSans" fill="#1d4595"/></g><path d="M295.4 137.6v39.8" stroke="#afd1e8" stroke-width="1.5" stroke-dasharray="3,1.5" fill="none"/><g font-size="14" font-family="Inconsolata"><path d="M278.2 180.3l-.1-.8q0-.4.2-.6l.4-.2.4.2q.2.2.2.7 0 .4-.5 1.7l-.3 1-.8-.2.4-1v-.8zm-2.4 0l-.1-.8q0-.4.2-.6.1-.2.4-.2l.4.2q.2.2.2.7 0 .4-.5 1.7l-.3 1-.8-.2.3-1 .1-.4v-.4zm11.4 2.4l-.7.8h-.1v-.2l-.1-.2-.4-.4q-.4-.4-1.3-.4l-.8.2-.6.5q-.3.3-.4.8-.2.4-.2 1l.2 1q.1.4.4.7.3.4.7.6.4.2 1 .2.9 0 1.6-.8l.6.7q-1 1-2.4 1-.7 0-1.2-.3-.6-.2-1-.7-.5-.4-.7-1l-.2-1.4q0-.7.2-1.3.2-.6.6-1l1-.8 1.4-.2q.7 0 1.3.3.7.3 1 .9zm1.8-.3q.9-1 2.3-1 1.2 0 1.9.7.7.6.7 2v4h-1v-.8q-1 .9-2.3.9-.5 0-.9-.2-.4-.1-.7-.4-.3-.2-.4-.6l-.1-.6q0-1 .8-1.5.8-.6 2.4-.7h1.2v-.2q0-1-.4-1.3-.4-.4-1.2-.4-1 0-1.8.7l-.5-.6zm4 2.6h-1l-1.3.1q-.5.1-.7.3l-.4.4-.1.5q0 .4.4.8.3.3 1 .3l.7-.1.6-.4.4-.3.2-.4.1-.8v-.4zm2.9-4.4q.3-.6 1-1 .6-.4 1.4-.4l1 .2.8.5.5.8.2 1-.1.8-.3.7-.5.6-.5.5-.8.8-.4.4-.5.5-.4.6-.4.6h3.7l.1-.1h.2v1h-5.1v-.7l1.1-1.8 1.2-1.2.6-.6.6-.6.4-.6.1-.4v-1.1l-.4-.5-.5-.4-.6-.1-.7.1q-.3 0-.5.2l-.3.4-.2.2v.2l-.7-.6zm10.3-.3l-.1-.8q0-.4.2-.6l.4-.2.4.2q.2.2.2.7 0 .4-.5 1.7l-.3 1-.8-.2.4-1v-.8zm-2.4 0l-.1-.8q0-.4.2-.6.1-.2.4-.2l.4.2q.2.2.2.7 0 .4-.5 1.7l-.3 1-.8-.2.3-1 .1-.4v-.4zm9.2 7.4q0 1.1-1.4 2.7l-.5-.5q.4-.3.6-.7l.3-.7-.1-.3-.3-.2-.2-.3-.1-.3q0-.4.2-.6.2-.2.6-.2.4 0 .7.3.3.3.3.8z" fill="#0c60b2"/><path d="M289.3 194.3h4.4v.9H290l-.2 2.5q.7-.4 1.5-.4l1 .2q.5.2.8.6.4.4.6 1 .2.5.2 1.2l-.2 1.2q-.2.5-.6.9-.4.4-.9.6l-1 .2q-.8 0-1.5-.4-.7-.3-1.1-1l.8-.6.1.1v.2l.2.2.4.3.5.2.6.1.7-.1.5-.5.4-.6.1-.9-.1-.8-.4-.7-.6-.4-.7-.1-.9.2q-.4.2-.7.6l-.6-.3.3-4.4zm7 0h4.4v.9H297l-.2 2.5q.7-.4 1.5-.4l1 .2q.5.2.8.6.4.4.6 1 .2.5.2 1.2l-.2 1.2q-.2.5-.6.9-.4.4-.9.6l-1 .2q-.8 0-1.5-.4-.7-.3-1.1-1l.8-.6.1.1v.2l.2.2.4.3.5.2.6.1.7-.1.5-.5.4-.6.1-.9-.1-.8-.4-.7-.6-.4-.7-.1-.9.2q-.4.2-.7.6l-.6-.3.3-4.4z" fill="#e04c01"/></g><path d="M354 137.6v39.8" stroke="#afd1e8" stroke-width="1.5" stroke-dasharray="3,1.5" fill="none"/><g font-size="14" font-family="Inconsolata"><path d="M334 180.3v-.8l.1-.6.4-.2q.3 0 .5.2l.1.7-.4 1.7-.4 1-.7-.2.3-1 .1-.8zm-2.4 0l-.1-.8q0-.4.2-.6l.4-.2.4.2q.2.2.2.7l-.4 1.7-.4 1-.8-.2.4-1v-.8zm11.4 2.4l-.7.8h-.1v-.2l-.1-.2q0-.2-.3-.4-.5-.4-1.3-.4-.5 0-.8.2l-.7.5q-.3.3-.4.8-.2.4-.2 1l.2 1q.1.4.4.7.3.4.7.6.4.2 1 .2.9 0 1.6-.8l.6.7q-1 1-2.3 1-.7 0-1.3-.3-.6-.2-1-.7-.5-.4-.7-1l-.2-1.4q0-.7.2-1.3.2-.6.7-1 .4-.5 1-.8.6-.2 1.3-.2.7 0 1.4.3.6.3 1 .9zm1.9-.3q.8-1 2.2-1 1.2 0 1.9.7.7.6.7 2v4h-1v-.8q-1 .9-2.3.9-.5 0-.9-.2-.4-.1-.7-.4l-.4-.6-.1-.6q0-1 .8-1.5.8-.6 2.4-.7h1.2v-.2q0-1-.4-1.3-.4-.4-1.2-.4-1 0-1.7.7l-.5-.6zm3.9 2.6h-1l-1.3.1-.7.3-.4.4-.1.5q0 .4.4.8.4.3 1 .3l.7-.1.6-.4.4-.3.2-.4q.2-.3.2-.8v-.4zm2.9-4.4q.4-.6 1-1 .7-.4 1.4-.4l1 .2.8.5.6.8.2 1-.2.8q0 .3-.3.7l-.4.6-.6.5-.8.8-.4.4-.5.5-.4.6-.4.6h3.7l.1-.1h.2v1h-5v-.7q.4-1 1-1.8l1.2-1.2.7-.6.5-.6.4-.6.1-.4v-1.1l-.4-.5q-.2-.3-.5-.4l-.6-.1-.7.1-.5.2-.3.4-.1.2-.1.2-.7-.6zm10.3-.3v-.8l.1-.6.4-.2q.3 0 .5.2l.1.7-.4 1.7-.4 1-.7-.2.3-1 .1-.8zm-2.4 0l-.1-.8q0-.4.2-.6l.4-.2.4.2q.2.2.2.7l-.4 1.7-.4 1-.8-.2.4-1v-.8zm9.3 7.4q0 1.1-1.5 2.7l-.5-.5q.4-.3.6-.7l.3-.7-.1-.3-.3-.2-.2-.3-.1-.3q0-.4.2-.6l.6-.2q.4 0 .7.3.3.3.3.8z" fill="#0c60b2"/><path d="M349.3 196.5q0 .6-.3 1.1-.4.5-1 .8.7.2 1.1.8.4.6.4 1.4l-.2 1q-.1.5-.5.8-.4.4-.9.6-.5.2-1.1.2-1.3 0-2.2-1l.7-1v.3l.2.2.2.2.4.2.7.2q.4 0 .7-.2.4-.1.6-.4l.4-.5.1-.7q0-.8-.6-1.2-.5-.5-1.5-.5h-.4v-.7l1-.1.8-.4q.3-.2.4-.5l.1-.7-.1-.5-.3-.4-.5-.3h-.6q-.9 0-1.5.6l-.5-.6q.8-1 2-1l1 .2.7.5q.4.3.5.7.2.4.2.9zm6.7-1.1q.4.5.6 1.4.3.9.3 2t-.3 2q-.2.7-.6 1.3-.4.5-.9.8-.5.3-1 .3-.6 0-1-.4-.6-.3-1-.9l-.6-1.4q-.2-.8-.2-1.8t.2-1.8l.6-1.4q.4-.6 1-1 .4-.3 1-.3 1 0 1.9 1.2zm-.5.8q-.3-.5-.7-.8-.3-.3-.7-.3-.4 0-.7.2l-.6.7q-.3.5-.4 1.1l-.2 1.4q0 1 .2 1.7l3-4zm.3 1l-3 3.9.6.9q.4.3.8.3.3 0 .7-.3.3-.2.5-.6l.4-1q.2-.7.2-1.5v-1l-.2-.7z" fill="#e04d01"/></g></svg>