<svg xmlns="http://www.w3.org/2000/svg" height="220" width="720"><path d="M35.2 26.4h63v79.8h-63z" fill="#fff"/><path d="M35.2 26.4h63v79.8h-63z" stroke="#0176c0" stroke-width=".9" fill="none"/><path d="M25.5 34h64.8v78H25.5z" fill="#fff"/><path d="M25.5 34h64.8v78H25.5z" stroke="#0176c0" stroke-width=".9" fill="none"/><path d="M28 147h660.4v19.2H28z" fill="#0c60b2"/><path d="M160.2 143.1V183m114.4-39.9V183m163.7-39.9V183" stroke="#afd1e8" stroke-width="1.5" stroke-dasharray="3,1.5" fill="none"/><path d="M155.3 186.1h1.4v9.6h-1.4V186zm4.9 2.6q0-1.1.8-2 .9-.7 2-.7 1.3 0 2.1.8t.8 1.9q0 1.3-1.2 2.1 1.4.8 1.4 2.3 0 1.1-.9 2-.9.7-2.2.7-1.3 0-2.2-.8-.8-.8-.8-2 0-1.4 1.3-2.2-.6-.5-.9-1-.2-.5-.2-1.1zm4.4 0q0-.6-.5-1-.4-.4-1-.4-.7 0-1.1.4-.5.4-.5 1t.5 1q.4.5 1 .5.7 0 1.1-.5.5-.4.5-1zm0 4.4v-.1q0-.7-.4-1-.5-.5-1.2-.5t-1.2.4q-.5.4-.5 1 0 .8.5 1.2.5.4 1.2.4.8 0 1.2-.4.5-.4.5-1zm105.3 1.2h3.6v1.3h-6v-.1l.5-.7 2.2-2.8q.8-1.2 1-1.8.3-.6.3-1.2 0-.8-.5-1.2-.4-.5-1.2-.5-.6 0-1.1.3-.6.3-1 1v-1.8q1-.9 2.3-.9 1.2 0 2 .8.8.9.8 2.2l-.2 1.2-.7 1.5-1.7 2.3-.3.4zm5.5-8.3h4.2v1.2h-3v2.5h.3q1.4 0 2.3.8 1 .8 1 2.1 0 1.4-1 2.2-.8.9-2.3.9-1.1 0-2.2-.6v-1.4q1 .7 2 .7.9 0 1.4-.5.6-.5.6-1.3 0-.7-.6-1.2t-1.6-.5l-1.1.1v-5zm-252.7 5.3v4.6h-1.3v-3.5q0-1-.2-1.4-.3-.5-1-.5-.4 0-.7.2l-.8.6v4.6h-1.2v-6.3h1.2v.9q1-1 1.9-1 1.2 0 1.8 1.1 1-1.1 2.1-1.1 1 0 1.5.7.6.6.6 2v3.7h-1.2v-3.7q0-.8-.3-1.2-.4-.4-1-.4-.7 0-1.4.7zM29 187q.3 0 .5.2t.2.5q0 .3-.2.5-.2.3-.5.3t-.6-.3q-.2-.2-.2-.5t.2-.5l.6-.2zm-.7 2.6h1.3v6.3h-1.3v-6.3zm4.3 0v.8q.9-.9 2-.9.5 0 1 .3t.8.8q.2.6.2 1.7v3.6h-1.2v-3.6q0-1-.3-1.3-.3-.5-1-.5-.9 0-1.5 1v4.4h-1.3v-6.3h1.3zm402.6-3.7h.6v5.4h1v1.1h-1v3.2h-1.3v-3.2h-4v-.6l4.7-5.9zm-.7 5.4v-2.8l-2.2 2.8h2.2zm4.2-5.3h4.2v1.2h-3v2.5h.3q1.4 0 2.3.8 1 .8 1 2.1 0 1.4-1 2.2-.9.9-2.3.9-1.1 0-2.2-.6v-1.4q1 .7 2 .7.8 0 1.4-.5.6-.5.6-1.3 0-.7-.6-1.2-.7-.5-1.6-.5h-1.1V186zm242.1 4.5v4.6h-1.2v-3.5q0-1-.3-1.5-.3-.4-1-.4-.4 0-.7.2l-.7.6v4.6h-1.3v-6.3h1.3v.8q1-1 1.8-1 1.2 0 1.9 1.2 1-1.1 2-1.1t1.6.6q.6.7.6 2v3.8h-1.3v-3.7q0-.8-.3-1.2-.3-.4-1-.4t-1.4.7zm9.6.8v2.7q0 .3.2.3l.7-.3v.7l-.7.4-.5.1q-.8 0-1-.6-.7.6-1.6.6-.7 0-1.1-.4-.5-.5-.5-1.1 0-.6.5-1 .4-.6 1.2-.8l1.6-.6v-.3q0-1.2-1.2-1.2-1 0-2 1.1v-1.4q.8-.8 2.1-.8 1 0 1.7.5l.3.5.2.5.1 1.1zm-1.2 2.6v-2l-.9.4-.9.5q-.2.3-.2.7l.2.6q.3.2.7.2.6 0 1-.4zm7.6-5.1h1.6l-2.6 3.1 2.8 3.2H697l-2-2.3-1.9 2.3h-1.5l2.6-3.2-2.6-3h1.5l1.9 2 1.8-2z" font-size="14" font-family="GillSans" fill="#0c60b2"/><path d="M29.5 143v40m659.7-38.5V183m-55.4-39.9V183" stroke="#afd1e8" stroke-width="1.5" stroke-dasharray="3,1.5" fill="none"/><path d="M626.5 186.2h6.2l-4.3 9.7-1.3-.6 3.5-7.8h-4.1v-1.3zm7.7 0h4.3v1.2h-3v2.4h.3q1.4 0 2.3.9.8.8.8 2.1 0 1.4-.8 2.2-1 .8-2.3.8-1.2 0-2.3-.5v-1.4q1 .6 2 .6.9 0 1.5-.5t.6-1.2q0-.7-.7-1.3-.6-.5-1.6-.5-.8 0-1 .2v-5z" font-size="14" font-family="GillSans" fill="#0c60b2"/><g font-size="24" font-family="GillSans"><path d="M284.9 112.2h2.3v16.3H285v-16.3zm7.8 5.5v1.4q1.4-1.6 3.3-1.6 1 0 1.8.6.9.5 1.4 1.4.4.9.4 2.9v6.1h-2.1v-6.1q0-1.7-.5-2.4t-1.7-.7q-1.5 0-2.6 1.5v7.7h-2.2v-10.8h2.2zm17.1-5.5h2.1v16.3h-4.5q-2.4 0-3.9-1.5-1.4-1.5-1.4-4 0-2.4 1.5-4 1.5-1.5 3.8-1.5 1.1 0 2.4.5v-5.8zm0 14.5v-6.8q-1-.5-2-.5-1.6 0-2.6 1t-1 2.8q0 1.7.9 2.6.5.5 1 .7.6.2 2 .2h1.7zm14.2-3.4h-7.6q.1 1.6 1 2.5 1 .9 2.5.9 2.1 0 4-1.3v2q-1 .7-2 1-1 .3-2.3.3-1.8 0-2.9-.7-1-.8-1.8-2-.6-1.3-.6-3 0-2.4 1.4-4 1.4-1.5 3.6-1.5t3.4 1.5q1.3 1.5 1.3 4v.3zm-7.5-1.3h5.4q0-1.2-.8-2-.6-.6-1.8-.6-1.1 0-1.9.7-.7.7-1 2zm17.2-4.3h2.8l-4.5 5.4 4.8 5.4H334l-3.4-3.8-3.2 3.8h-2.7l4.5-5.4-4.5-5.4h2.7l3.2 3.7 3-3.7zm16.4 0q2.5 0 4.1 1.6 1.6 1.6 1.6 4 0 2.3-1.6 3.9-1.7 1.5-4.2 1.5-2.4 0-4-1.5-1.7-1.6-1.7-4 0-2.3 1.7-3.9 1.6-1.6 4.1-1.6zm-.1 2q-1.5 0-2.5 1t-1 2.5q0 1.6 1 2.5 1 1 2.6 1t2.6-1q1-1 1-2.5t-1-2.5q-1.1-1-2.7-1zm10.3-2v1.4q1.4-1.6 3.3-1.6 1 0 1.8.6.9.5 1.3 1.4.5.9.5 2.9v6.1h-2.1v-6.1q0-1.7-.5-2.4t-1.7-.7q-1.5 0-2.6 1.5v7.7h-2.2v-10.8h2.2z" fill="#013494"/><path d="M376.4 127.8v-2.3l1.8 1q1 .4 1.6.4.7 0 1.1-.4.5-.3.5-.7 0-.5-.3-.8l-1.3-1q-2-1-2.7-1.9-.7-.8-.7-1.8 0-1.2 1-2t2.5-.8q1.6 0 3.2 1v2q-1.9-1.1-3-1.1-.7 0-1 .3-.4.2-.4.6 0 .4.3.8l1.2.8.8.4q2.7 1.5 2.7 3.4 0 1.3-1 2.2-1.1.8-2.7.8-1 0-1.7-.2l-2-.7zm17.8-1.8v2.1q-1.6.6-3.2.6-2.5 0-4-1.5t-1.5-4q0-2.5 1.4-4.1 1.5-1.6 3.9-1.6.8 0 1.5.2l1.6.6v2.3q-1.6-1-3-1t-2.3 1q-1 1-1 2.5 0 1.7 1 2.6 1 1 2.7 1 1.3 0 2.9-.7zm7.5-8.3q2.5 0 4.1 1.6 1.7 1.6 1.7 4 0 2.3-1.7 3.9-1.6 1.5-4.2 1.5-2.4 0-4-1.5-1.6-1.6-1.6-4 0-2.3 1.6-3.9 1.7-1.6 4.1-1.6zm0 2q-1.6 0-2.6 1t-1 2.5q0 1.6 1 2.5 1 1 2.6 1t2.6-1q1-1 1-2.5t-1-2.5q-1.1-1-2.7-1zm10.3-2v2.5l.2-.2q1.5-2.5 3.1-2.5 1.2 0 2.5 1.3l-1.1 1.8q-1.1-1-2-1-1.1 0-1.9 1-.7 1-.7 2.3v5.6h-2.2v-10.8h2.2zm16 5.6h-7.5q0 1.6 1 2.5 1 .9 2.5.9 2 0 3.8-1.3v2q-1 .7-2 1-.9.3-2.2.3-1.8 0-2.9-.7-1-.8-1.7-2-.7-1.3-.7-3 0-2.4 1.4-4 1.4-1.5 3.6-1.5t3.5 1.5q1.2 1.5 1.2 4v.3zm-7.5-1.3h5.4q0-1.2-.7-2-.7-.6-1.9-.6-1.1 0-1.9.7-.7.7-.9 2z" fill="#de4e01"/></g><path d="M24.6 20.4V22q-1.2.5-2.4.5-1.9 0-3-1.1-1.1-1.2-1.1-3 0-2 1-3.1 1.2-1.2 3-1.2l1 .1q.6.1 1.3.5v1.7q-1.2-.8-2.2-.8-1.1 0-1.8.8-.7.7-.7 1.9t.7 2q.8.7 2 .7 1 0 2.2-.6zm5.7-6.2q1.8 0 3 1.2 1.3 1.2 1.3 3t-1.3 3q-1.2 1-3.1 1-1.8 0-3-1-1.3-1.3-1.3-3 0-1.8 1.3-3 1.2-1.2 3-1.2zm-.1 1.5q-1.2 0-2 .7-.6.8-.6 2 0 1.1.7 1.9.8.7 2 .7 1.1 0 1.9-.8.7-.7.7-1.9 0-1.1-.8-1.9-.7-.7-2-.7zm6.2-5.7H38v12.3h-1.6V10.1zm3.9 0H42v12.3h-1.6V10.1zm10.9 8.4h-5.7q0 1.2.7 1.9.8.7 1.9.7 1.6 0 3-1v1.5q-.8.5-1.6.7-.7.3-1.7.3-1.3 0-2.1-.6-.8-.5-1.3-1.5t-.5-2.2q0-1.8 1-3 1-1.1 2.7-1.1 1.6 0 2.6 1.1t1 3v.2zm-5.7-1h4q0-.9-.5-1.4-.5-.5-1.4-.5-.8 0-1.4.5-.5.5-.7 1.5zm13.5 3V22q-1.3.5-2.4.5-2 0-3-1.1-1.2-1.2-1.2-3 0-2 1.1-3.1 1.1-1.2 3-1.2l1 .1 1.3.5v1.7q-1.2-.8-2.3-.8-1 0-1.8.8-.7.7-.7 1.9t.8 2q.7.7 2 .7 1 0 2.1-.6zm.6-4.9l3-3v1.8h2.6v1.4h-2.6v4q0 1.3 1.2 1.3.8 0 1.8-.5V22q-1 .5-2 .5-1.1 0-1.8-.7l-.4-.4-.3-.6v-5.1h-1.5v-.2zm8-4.7q.4 0 .7.3.2.3.2.7 0 .4-.2.7-.3.2-.7.2-.4 0-.7-.2-.2-.3-.2-.7 0-.4.2-.7.3-.3.7-.3zm-.8 3.5h1.6v8h-1.6v-8zm7.8-.1q1.8 0 3 1.2 1.3 1.2 1.3 3t-1.3 3q-1.2 1-3.1 1-1.8 0-3-1-1.3-1.3-1.3-3 0-1.8 1.3-3 1.2-1.2 3-1.2zm-.1 1.5q-1.2 0-2 .7-.6.8-.6 2 0 1.1.7 1.9.8.7 2 .7 1.1 0 1.9-.8.7-.7.7-1.9 0-1.1-.8-1.9-.7-.7-2-.7zm7.7-1.4v1q1-1.2 2.4-1.2.8 0 1.5.4.6.4 1 1 .3.7.3 2.2v4.6h-1.6v-4.6q0-1.2-.4-1.7-.4-.6-1.3-.6-1.1 0-1.9 1.2v5.7h-1.6v-8h1.6z" font-size="18" font-family="GillSans" fill="#0176c0"/><path d="M16.7 42.7h64.8v78H16.7z" fill="#fff"/><path d="M16.7 42.7h64.8v78H16.7z" stroke="#0176c0" stroke-width=".9" fill="none"/><g font-size="12" font-family="GillSans"><path d="M21 60.5v-1q.5 0 .8-.2.3-.2.4-.6l.1-1.4v-1.7l.4-.7q.2-.3.6-.4l.8-.1h.4v1h-.2l-.8.1q-.2.3-.2 1v.9l-.1 1.3q-.1.5-.4.8-.2.3-.7.5.6.3 1 .9.2.6.2 1.8v.8q0 .8.2 1 .2.2.8.2h.2v1H24q-.6 0-.9-.2-.3 0-.5-.4-.3-.3-.3-.7l-.1-1.6-.1-1.5q-.1-.4-.4-.6-.3-.2-.7-.2z" fill="#0176c0"/><path d="M28 76.7v-1.1l.8.5.8.2q.4 0 .6-.2.2-.1.2-.4l-.1-.3-.7-.5q-1-.6-1.3-1-.4-.4-.4-.9 0-.6.5-1t1.3-.4q.8 0 1.6.5v1q-1-.5-1.6-.5h-.5l-.1.4.1.4.6.4.4.2q1.4.8 1.4 1.7 0 .7-.6 1.1-.5.4-1.3.4H29l-1-.5zm8.8-.8v1q-.8.3-1.6.3-1.2 0-2-.7-.7-.8-.7-2 0-1.3.7-2 .7-.9 2-.9l.7.1q.3 0 .8.3v1.1q-.8-.5-1.5-.5t-1.2.5q-.5.5-.5 1.3 0 .9.5 1.3.5.5 1.4.5.6 0 1.4-.3zm3.8-4.2q1.2 0 2 .8.9.8.9 2t-.9 2q-.8.7-2 .7-1.3 0-2-.8-.9-.7-.9-2 0-1.1.8-1.9.9-.8 2-.8zm0 1q-.8 0-1.3.5t-.5 1.3q0 .7.5 1.2t1.3.5q.8 0 1.3-.5t.5-1.2q0-.8-.6-1.3-.5-.5-1.3-.5zm5.2-1V73v-.1q.8-1.3 1.6-1.3.6 0 1.2.6l-.5 1q-.6-.5-1-.5-.6 0-1 .4-.3.5-.3 1.2v2.8h-1.1v-5.4h1zm7.9 2.8H50q0 .8.5 1.3.4.4 1.2.4 1 0 2-.6v1l-1 .5-1.2.1q-.9 0-1.4-.4-.6-.3-.9-1-.3-.6-.3-1.4 0-1.2.7-2t1.8-.8q1 0 1.7.8.6.7.6 2v.1zM50 74h2.7q0-.6-.4-1-.3-.3-1-.3-.5 0-.8.3-.4.4-.5 1z" fill="#de4f01"/><path d="M55.4 75.8q.3 0 .5.2.3.2.3.5t-.3.5q-.2.2-.5.2T55 77q-.2-.2-.2-.5t.2-.5q.2-.2.5-.2zm.1-4.2q.3 0 .5.2l.2.6-.2.5q-.2.2-.5.2t-.5-.2l-.2-.5.2-.6q.2-.2.5-.2zm5.5.8h.2q.7 0 1.1-.4.4-.3.4-.9 0-.5-.4-.9-.3-.3-1-.3-.6 0-1.4.4v-1.1q.7-.4 1.6-.4 1 0 1.7.6T64 71q0 .7-.3 1-.2.5-.8.8.5.2.7.5.3.2.4.6l.1.9q0 1-.7 1.7t-1.8.7q-1 0-1.8-.4v-1.3q1 .6 1.8.6.6 0 1-.4.3-.3.3-1 0-.4-.3-.8l-.4-.3-.9-.1h-.1v-1.1zm7-3.6q1.1 0 1.8 1.2.8 1.2.8 3 0 1.9-.8 3-.7 1.2-1.9 1.2T66 76.1q-.7-1.2-.7-3 0-2 .7-3 .8-1.3 2-1.3zm0 1.2q-.7 0-1.1.8-.4.8-.4 2.2 0 1.5.4 2.3.3.8 1 .8t1-.8q.5-.8.5-2.2 0-1.5-.4-2.3-.4-.8-1-.8zm3.5 8.5v-.2q.3-.2.4-.5l.1-.7q-.6-.2-.6-.7 0-.4.2-.6.2-.2.5-.2.4 0 .6.3.2.3.2.8 0 .7-.4 1.2-.3.4-1 .6zM22 89.8q.4 0 .6.2.2.2.2.5t-.2.5q-.2.2-.5.2t-.5-.2q-.3-.2-.3-.5t.3-.5q.2-.2.5-.2zm2.7 0q.3 0 .5.2t.2.5q0 .3-.2.5t-.5.2q-.3 0-.5-.2t-.2-.5q0-.3.2-.5t.5-.2zm2.6 0q.3 0 .5.2t.2.5q0 .3-.2.5t-.5.2q-.3 0-.5-.2t-.2-.5q0-.3.2-.5t.5-.2zM21 96.4h.3l1 .1q.3.1.5.4l.3.8.1 1.6.1 1.4q.1.4.4.6.3.2.7.2v1q-.4 0-.7.2-.3.2-.4.6l-.1 1.5v1.6l-.4.7q-.2.3-.5.4l-1 .1H21v-.9h.2q.6 0 .8-.2.2-.2.2-1v-.8q0-1.2.3-1.8.3-.6 1-.9-.6-.2-.8-.5l-.4-.8v-2.2q0-.7-.3-1-.2-.2-.8-.2H21v-1z" fill="#0176c0"/></g></svg>