<?xml version="1.0" encoding="UTF-8"?>
<!DOCTYPE svg PUBLIC "-//W3C//DTD SVG 1.1//EN" "http://www.w3.org/Graphics/SVG/1.1/DTD/svg11.dtd">
<svg version="1.1" xmlns="http://www.w3.org/2000/svg" xmlns:xlink="http://www.w3.org/1999/xlink" x="0px" y="0px" width="720" height="400" viewBox="0, 0, 720, 400">
  <g id="Layer 1">
    <g>
      <path d="M552.89,25.905 L688.518,25.905 L688.518,189.315 L552.89,189.315 z" fill="#FFFFFF"/>
      <path d="M552.89,25.905 L688.518,25.905 L688.518,189.315 L552.89,189.315 z" fill-opacity="0" stroke="#0176C0" stroke-width="0.929"/>
    </g>
    <text transform="matrix(1, 0, 0, 1, 617.805, 11.93)">
      <tspan x="-36.665" y="6" font-family="GillSans" font-size="18" fill="#0176C0">collection</tspan>
    </text>
    <g>
      <path d="M539.51,37.564 L675.138,37.564 L675.138,200.974 L539.51,200.974 z" fill="#FFFFFF"/>
      <path d="M539.51,37.564 L675.138,37.564 L675.138,200.974 L539.51,200.974 z" fill-opacity="0" stroke="#0176C0" stroke-width="0.929"/>
    </g>
    <text transform="matrix(1, 0, 0, 1, 611.427, 76.317)">
      <tspan x="-65.799" y="-11.488" font-family="GillSans" font-size="12" fill="#0176C0">{ </tspan>
      <tspan x="-65.799" y="2.512" font-family="GillSans" font-size="12" fill="#0176C0">  </tspan>
      <tspan x="-59.131" y="2.512" font-family="GillSans" font-size="12" fill="#0176C0">userid: "xyz",</tspan>
      <tspan x="-65.799" y="16.512" font-family="GillSans" font-size="12" fill="#0176C0">  </tspan>
      <tspan x="-59.131" y="16.512" font-family="GillSans" font-size="12" fill="#DE4C01">addr</tspan>
      <tspan x="-36.66" y="16.512" font-family="GillSans" font-size="12" fill="#0176C0">: </tspan>
    </text>
    <path d="M31.527,280.279 L691.816,280.279 L691.816,299.474 L31.527,299.474 z" fill="#0C60B2"/>
    <path d="M163.591,276.437 L163.591,316.171" fill-opacity="0" stroke="#AFD1E8" stroke-width="1.5" stroke-dasharray="3,1.5"/>
    <path d="M487.71,276.437 L487.71,316.171" fill-opacity="0" stroke="#AFD1E8" stroke-width="1.5" stroke-dasharray="3,1.5"/>
    <text transform="matrix(1, 0, 0, 1, 162.73, 330.053)">
      <tspan x="-24.5" y="2.493" font-family="Inconsolata" font-size="14" fill="#DE4D01">"10036" </tspan>
    </text>
    <text transform="matrix(1, 0, 0, 1, 28.532, 332.345)">
      <tspan x="-10.5" y="0.598" font-family="Inconsolata" font-size="14" fill="#DE4D01">min</tspan>
    </text>
    <text transform="matrix(1, 0, 0, 1, 488.795, 329.008)">
      <tspan x="-24.5" y="3.5" font-family="Inconsolata" font-size="14" fill="#DE4D01">"78610" </tspan>
    </text>
    <text transform="matrix(1, 0, 0, 1, 689.119, 329.557)">
      <tspan x="-10.5" y="3.174" font-family="Inconsolata" font-size="14" fill="#DE4D01">max </tspan>
    </text>
    <path d="M31.89,276.304 L31.89,316.171" fill-opacity="0" stroke="#AFD1E8" stroke-width="1.5" stroke-dasharray="3,1.5"/>
    <path d="M692.659,277.807 L692.659,316.171" fill-opacity="0" stroke="#AFD1E8" stroke-width="1.5" stroke-dasharray="3,1.5"/>
    <path d="M637.25,276.437 L637.25,316.171" fill-opacity="0" stroke="#AFD1E8" stroke-width="1.5" stroke-dasharray="3,1.5"/>
    <text transform="matrix(1, 0, 0, 1, 637.305, 329.61)">
      <tspan x="-24.5" y="3.49" font-family="Inconsolata" font-size="14" fill="#DE4D01">"94301" </tspan>
    </text>
    <text transform="matrix(1, 0, 0, 1, 362.561, 375.685)">
      <tspan x="-118.007" y="4.201" font-family="Inconsolata" font-size="21" fill="#1D4595">{ </tspan>
      <tspan x="-97.007" y="4.201" font-family="Inconsolata" font-size="21" fill="#DE4F4F">"addr.zip"</tspan>
      <tspan x="7.993" y="4.201" font-family="Inconsolata" font-size="21" fill="#1D4595">: 1 }</tspan>
      <tspan x="60.493" y="4.201" font-family="Inconsolata" font-size="21" fill="#1D4595"> </tspan>
      <tspan x="70.993" y="4.201" font-family="GillSans" font-size="21" fill="#1D4595">Index</tspan>
    </text>
    <text transform="matrix(1, 0, 0, 1, 626.294, 122.674)">
      <tspan x="-50.26" y="-17.5" font-family="GillSans" font-size="12" fill="#DE4B01">[</tspan>
      <tspan x="-50.26" y="-3.5" font-family="GillSans" font-size="12" fill="#0176C0">  </tspan>
      <tspan x="-43.592" y="-3.5" font-family="GillSans" font-size="12" fill="#DE4B01">{ zip: "10036",  ... },</tspan>
      <tspan x="-50.26" y="10.5" font-family="GillSans" font-size="12" fill="#DE4B01">  </tspan>
      <tspan x="-43.592" y="10.5" font-family="GillSans" font-size="12" fill="#DE4B01">{ zip: "94301",  ... }</tspan>
      <tspan x="-50.26" y="24.5" font-family="GillSans" font-size="12" fill="#DE4B01">]</tspan>
      <tspan x="-46.264" y="24.5" font-family="GillSans" font-size="12" fill="#0176C0">,</tspan>
    </text>
    <text transform="matrix(1, 0, 0, 1, 554.697, 164.28)">
      <tspan x="-8.947" y="-3.5" font-family="GillSans" font-size="12" fill="#0176C0">  ...</tspan>
      <tspan x="-8.947" y="10.5" font-family="GillSans" font-size="12" fill="#0176C0">}</tspan>
    </text>
  </g>
  <defs/>
</svg>
