<svg xmlns="http://www.w3.org/2000/svg" viewBox="0, 0, 900, 460" height="460" width="900"><path d="M29.4 183.6h660v19.7h-660z" fill="#1f66af"/><path d="M30 179.8V217m129-37.2V217m115.2-37.2V217m165.2-37.2V217m188.4-37.2V217m62.1-37.2V217" stroke="#b0c8db" stroke-dasharray="2,2" fill="none"/><path d="M17.5 226h1.3v1q.4-.6.9-1 .5-.3 1-.3.7 0 1.2.4t.6 1q.3-.6.9-1 .5-.4 1.3-.4.9 0 1.4.7.4.7.4 1.8v7.4h-1.4v-6.8q0-1.2-.2-1.6-.2-.4-.7-.4-.4 0-.7.4-.4.4-.6 1l-.2 1v6.4h-1.4v-6.7q0-1.2-.3-1.6-.2-.4-.8-.4-.3 0-.6.3l-.6.8q-.2.5-.2 1.2v6.4h-1.3V226zm11.8 9.6v-1.3h2.4v-7.1h-2.3V226h3.8v8.3h2.3v1.3h-6.2zm3-11.7q-.4 0-.7-.3-.3-.3-.3-.7 0-.5.3-.8.3-.3.8-.3.4 0 .7.3.4.3.4.8 0 .4-.4.7-.3.3-.7.3zm6.9 2.1h1.4v1.7q.6-1 1.5-1.4.8-.6 1.8-.6 1.3 0 2 1 .8 1 .8 3v5.9h-1.5v-5.8q0-1.4-.4-2.1-.5-.6-1.3-.6-.7 0-1.4.3-.6.4-1 1.1-.5.7-.5 1.5v5.6h-1.4V226zm112.8 9.7l-.2-11.3-2.7.8-.3-.8 3.4-1.8h1l.2 13H152zm10.9 0q-1.2 0-2.2-.4-.9-.5-1.4-1.3-.5-.8-.5-1.7 0-1.2.7-2.2.7-1 1.9-1.5-1-.5-1.5-1.3-.6-.8-.6-1.8 0-1.4.9-2.3.9-1 2.5-1 1.8 0 2.6.9 1 .8 1 2.2 0 1-.6 1.8-.5.8-1.5 1.4 1.2.5 1.9 1.4.7 1 .7 2.1 0 1-.4 1.9-.5.8-1.4 1.3-1 .5-2.1.5zm.2-7.7q.8-.5 1.3-1.2.4-.7.4-1.5t-.5-1.3q-.6-.5-1.6-.5t-1.5.5q-.5.6-.5 1.4 0 .8.6 1.4l1.8 1.2zm-.2 6.4q1.2 0 1.8-.7.6-.7.6-1.6 0-1-.8-1.8-.7-.8-2-1.2-1 .4-1.6 1.3-.6.8-.6 1.7 0 1 .7 1.6.7.7 1.9.7zm106.7-5.8q1.1.4 1.8 1.2.7.9.7 2.2 0 1-.5 1.9-.5.9-1.3 1.4-1 .5-2.2.5-1 0-2-.4-.9-.4-1.5-1.1l1-1.2q.5.7 1 1 .6.4 1.5.4 1.2 0 1.8-.7.7-.7.7-1.9 0-1.3-.8-2-.8-.6-2.2-.6h-.7v-1.1q1.9 0 2.5-.7.7-.7.7-2 0-.8-.5-1.3t-1.4-.5q-1.3 0-2.3 1l-1-1q1.4-1.3 3.3-1.3 1.6 0 2.5.9 1 .9 1 2.3 0 1.1-.6 2-.5.7-1.5 1zm-3.8 4.5h-.2v-.1h.2zm-.3 0q0-.1 0 0zm13.4-10.7q1.9 0 3 1.8 1 1.8 1 4.9 0 3.2-1 5-1 1.7-3 1.7t-3-1.8q-1.1-1.7-1.1-5 0-3 1-4.8 1.1-1.8 3-1.8zm0 1.3q-1.2 0-2 1.4-.6 1.5-.6 4 0 1.4.2 2.4l4.5-5.7q-.4-1-1-1.6-.4-.5-1.1-.5zm0 10.8q1.2 0 1.8-1.4.7-1.4.7-4 0-1.2-.2-2.1l-4.4 5.7q.7 1.8 2 1.8zm155.3 1.1v-3.3h-5.6v-1l6-8.8h1.2v8.6h1.7v1.3h-1.7v3.2h-1.6zm-4-4.5h4v-6l-4 6zm13.3-4.1q1 0 2 .6.9.5 1.4 1.5.5 1 .5 2.3 0 1.4-.5 2.4-.6 1-1.5 1.5-1 .5-2.1.5-1.2 0-2.2-.5-1-.6-1.7-1.5l1.2-1q.6 1 1.2 1.3.6.4 1.6.4.6 0 1.2-.4t1-1q.3-.8.3-1.7 0-1.4-.8-2.3-.7-.8-1.9-.8-.6 0-1.3.3-.6.3-1.1 1l-1-.5.5-6.6h6.6v1.3h-5.4l-.2 3.8q1-.5 2.2-.5zm-2.9 5.9q-.1-.2 0 0zm.2 0q0 .1-.2 0l.1-.1h.1zm179.1 2.7q1.8-6 4-11.7h-5.6v-1.4h7.4v.8q-2.6 6.5-4.2 12.3H620zm12.6-8.6q1.1 0 2 .6 1 .5 1.4 1.5.6 1 .6 2.3 0 1.4-.6 2.4-.5 1-1.5 1.5-.9.5-2 .5-1.3 0-2.3-.5-1-.6-1.6-1.5l1.1-1q.6 1 1.2 1.3.6.4 1.6.4.7 0 1.3-.4.6-.4 1-1 .3-.8.3-1.7 0-1.4-.8-2.3-.8-.8-2-.8-.6 0-1.2.3-.7.3-1.2 1l-.9-.5.4-6.6h6.7v1.3h-5.4l-.2 3.8q1-.5 2.1-.5zm-2.8 5.9q-.2-.2 0 0zm.2 0q0 .1-.2 0l.1-.1zm41.4-7.9h1.4v.9q.3-.6.8-.9.6-.3 1.1-.3.7 0 1.1.4.5.4.6 1 .3-.6.9-1 .6-.4 1.3-.4 1 0 1.4.7.5.6.4 1.7v7.4H679v-6.8q0-1.2-.3-1.6-.2-.3-.7-.3-.3 0-.7.3l-.6 1-.2 1v6.4h-1.4v-6.7q0-1.1-.2-1.5-.2-.5-.8-.5-.4 0-.7.3l-.5.8q-.2.5-.2 1.2v6.4h-1.4v-9.6zm14.8-.3q2 0 3.1 1 1.1 1.1 1.1 3.7v5.1h-1.6V233q-.9 1.7-3.3 1.7-1.6 0-2.5-.7-.9-.7-.9-2 0-1 .7-1.7.6-.7 1.7-1.1 1.1-.4 2.4-.4h2.2q-.1-1.5-.9-2.2-.7-.7-2-.7-.8 0-1.5.3l-1.2.8-.7-1q1.3-1.3 3.4-1.3zm-.5 8.9q1.5 0 2.4-1 1-.8 1-2.6l-2-.1q-1.6 0-2.5.5-1 .5-1 1.6 0 1.6 2 1.6zm6.9.9l3.4-4.9-3.4-4.7h1.7l2.5 3.6 2.4-3.6h1.5l-3 4.7 3.5 4.9h-1.8l-2.6-3.7-2.5 3.7h-1.7z" font-size="21" font-family="Inconsolata" fill="#cd5a2b"/><path d="M29.8 176h244v34.8h-244z" opacity=".5" fill="#2476c0"/><g font-size="24" font-family="Inconsolata"><path d="M30.3 83.7q-1.2 0-2.2-.7-1-.6-1.7-2-.6-1.3-.6-3.2 0-1.8.6-3.1.7-1.3 1.8-1.9 1-.6 2.2-.6 1.1 0 2 .5.8.5 1.2 1.4v-6.6h1.8v.1l-.2.4v14.7q0 .4.3.7h-1.7l-.3-.7v-1q-.5 1-1.4 1.5-.8.5-1.8.5zm.3-1.5q1.5 0 2.1-1.2.7-1.2.7-3.1 0-2-.7-3.1-.8-1.2-2.3-1.2-1.4 0-2.2 1-.8 1.1-.8 3 0 2.1.8 3.3.9 1.3 2.4 1.3zM43 83.7q-1 0-1.8-.4-.8-.5-1.4-1.3l-.6 1.4h-1v-16H40v.2l-.2.4v6.2q.5-1 1.4-1.5.9-.5 1.8-.5 2.1 0 3.3 1.4 1.3 1.5 1.3 4.2 0 2-.7 3.3-.6 1.3-1.7 2-1 .6-2.2.6zm-.1-1.5q1.2 0 2.1-1 .9-1 .9-3.3 0-2-.8-3.1t-2.2-1.1q-1.3 0-2.2 1.2-.8 1.2-.8 3 0 4.3 3 4.3zm11.5 1.5q-.6 0-1-.4t-.4-1q0-.5.4-1 .4-.3 1-.3.5 0 1 .4.4.4.4 1 0 .5-.4.9-.5.4-1 .4zm11.6 0q-1.7 0-2.8-1.3-1-1.3-1-3.8v-6.1H64v6q0 2 .7 3 .7.8 1.8.8 1.3 0 2.1-1 .9-1 .9-2.8v-6H71v10.2q0 .4.2.7h-1.7l-.2-.7v-1q-.5 1-1.4 1.5-1 .5-2 .5zM79.5 77q2 .6 2.9 1.4.8.7.8 1.8 0 1.5-1.1 2.5-1.2 1-3.4 1-2.8 0-4.6-1.7l1-1.7q.7 1 1.5 1.5.8.4 2.2.4 1.3 0 2-.4.7-.5.7-1.3 0-.7-.6-1.2-.6-.4-2.1-1-4.1-1.1-4.1-3.3 0-1.3 1-2 1-.8 3-.8 1.5 0 2.5.4T83 74l-1 1.2q-.6-.7-1.5-1.1-1-.5-1.9-.5-1 0-1.7.4-.6.3-.6 1 0 .6.7 1 .6.6 2.4 1zm2.3-1.8q0-.1.2 0l-.1.1h-.1zm.2 0q.1 0 0 0 0 .1 0 0zm-6.7 5q0 .1-.2 0h.2zm-.3.1v-.1.1zm16.2 3.4q-2.4 0-3.9-1.5-1.4-1.5-1.4-4.2 0-1.8.6-3.1.7-1.3 1.8-2 1.2-.7 2.6-.7 2 0 3.2 1.3 1.3 1.3 1.3 4v.7h-7.9q.1 2 1.1 3t2.7 1q1.7 0 2.8-1.1l1 .9q-1.4 1.7-3.9 1.7zm2.4-6.8q0-1.6-.8-2.5-.7-.9-2-.9-1.2 0-2.1.9-.9.8-1.1 2.5h6zm13.4-2.1q-.8-.7-1.3-.9-.4-.2-1-.2-1 0-1.7.4-.7.5-1.2 1.3-.5 1-.5 2.2v5.9h-1.8v-11h1.8v2q.4-1 1.4-1.7 1-.6 2-.6 1.8 0 3 1.2l-.8 1.4zm0 0v.1h-.1v-.1zm-.4 0h.4v.2l-.3-.1zm8.9 2.2q2 .6 2.9 1.4.8.7.8 1.8 0 1.5-1.1 2.5-1.2 1-3.4 1-2.8 0-4.6-1.7l1-1.7q.7 1 1.5 1.5.8.4 2.2.4 1.3 0 2-.4.7-.5.7-1.3 0-.7-.6-1.2-.6-.4-2.1-1-4.1-1.1-4.1-3.3 0-1.3 1-2 1-.8 3-.8 1.5 0 2.5.4T119 74l-1 1.2q-.6-.7-1.5-1.1-1-.5-1.9-.5-1 0-1.7.4-.6.3-.6 1 0 .6.7 1 .6.6 2.4 1zm2.3-1.8q0-.1.2 0l-.1.1h-.1zm.2 0q.1 0 0 0 0 .1 0 0zm-6.7 5q0 .1-.2 0h.2zm-.3.1v-.1.1zm15.4 3.4q-.6 0-1-.4t-.4-1q0-.5.4-1 .4-.3 1-.3.5 0 1 .4.4.4.4 1 0 .5-.4.9-.5.4-1 .4zm16.7-13.6q-.7-.8-1.2-1-.4-.4-1.2-.4-1.2 0-1.8.7-.7.7-.7 2.2v.9h3.6v1.3h-3.6v9.6h-1.6v-9.6h-2.4v-1.3h2.4v-1q0-2 1-3.1 1.2-1 3-1 1 0 2 .3.9.4 1.4 1.1l-.9 1.3zm-.3 0h.1l.2.1-.1.1h-.2v-.1zm.3 0q.1.2 0 .2V70zm3.9 13.3V82h2.9v-8h-2.7v-1.4h4.4V82h2.6v1.4H147zm3.7-13.2q-.5 0-.9-.4t-.4-.9q0-.5.4-.8.3-.4.9-.4.5 0 .8.4.4.3.4.8t-.4 1q-.3.3-.8.3zm7.7 2.3h1.7v2q.6-1 1.6-1.7 1-.6 2.1-.6 1.5 0 2.3 1.1 1 1.1 1 3.5v6.6h-1.8v-6.6q0-1.6-.5-2.3-.6-.8-1.5-.8-.7 0-1.5.5-.7.4-1.2 1.2-.5.7-.5 1.7v6.3h-1.7v-11zm15.9 11.2q-1.2 0-2.2-.7-1-.6-1.7-2-.6-1.3-.6-3.2 0-1.8.6-3.1.7-1.3 1.8-1.9 1-.6 2.2-.6 1.1 0 2 .5.8.5 1.2 1.4v-6.6h1.8v.1l-.2.4v14.7q0 .4.3.7h-1.7l-.3-.7v-1q-.5 1-1.4 1.5-.8.5-1.8.5zm.3-1.5q1.5 0 2.1-1.2.7-1.2.7-3.1 0-2-.7-3.1-.8-1.2-2.3-1.2-1.4 0-2.2 1-.8 1.1-.8 3 0 2.1.8 3.3.9 1.3 2.4 1.3zm15.6 5.4q-2-.9-3.5-2.5t-2.3-3.6q-.8-2-.8-4 0-2.2.8-4.1.8-2 2.2-3.5 1.5-1.5 3.4-2.4l.5 1.5q-2.4 1.2-3.8 3.5t-1.4 5q0 2.7 1.5 5 1.4 2.4 3.8 3.7l-.4 1.4zm23.4-.3q-1.8 0-3-.4-1-.4-1.6-1.3-.6-.9-.5-2.5l.1-2.4q0-1.6-.5-2.1-.6-.6-1.7-.6h-.4v-1.4h.4q1.1 0 1.7-.6.5-.6.5-2v-1.7q0-4.1 4.4-4.1h1.5v1.3h-2q-2.2 0-2.2 2.6v1.6q0 2.7-2 3.6 2 .7 2 3.7l-.1 2q0 1.6.7 2.3.7.6 2.3.6h1.3v1.4h-1zM235.5 77q2 .6 2.9 1.4.8.7.8 1.8 0 1.5-1.1 2.5-1.2 1-3.4 1-2.8 0-4.6-1.7l1-1.7q.7 1 1.5 1.5.8.4 2.2.4 1.3 0 2-.4.7-.5.7-1.3 0-.7-.6-1.2-.6-.4-2.1-1-4.1-1.1-4.1-3.3 0-1.3 1-2 1-.8 3-.8 1.5 0 2.5.4T239 74l-1 1.2q-.6-.7-1.5-1.1-1-.5-1.9-.5-1 0-1.7.4-.6.3-.6 1 0 .6.7 1 .6.6 2.4 1zm2.3-1.8q0-.1.2 0l-.1.1h-.1zm.2 0q.1 0 0 0 0 .1 0 0zm-6.7 5q0 .1-.2 0h.2zm-.3.1v-.1.1zm16.6 1.8q1.7 0 2.9-1.3l1 1.2q-1.6 1.7-4 1.7-1.6 0-2.8-.7-1.3-.8-2-2-.7-1.4-.7-3 0-1.7.7-3t2-2q1.2-.7 2.8-.7 1.3 0 2.4.5 1 .5 1.8 1.5l-1.1 1q-.7-.8-1.5-1.2-.7-.4-1.8-.4-1 0-1.7.5-.8.6-1.3 1.5-.5 1-.5 2.1 0 1.3.5 2.3.5 1 1.4 1.5.8.5 2 .5zm2.7-6.7q0-.1.2 0l-.1.1-.1-.1zm.2 0l.1.1h-.1v-.1zm8.2 8.2q-1.5 0-2.6-.7-1.2-.7-1.8-2-.7-1.3-.7-3 0-1.6.7-3 .6-1.2 1.8-2 1.1-.7 2.6-.7 1.4 0 2.6.8 1.2.7 1.8 2 .6 1.3.6 3 0 1.6-.6 2.9-.6 1.3-1.8 2-1.2.7-2.6.7zm0-1.4q1 0 1.6-.6.8-.5 1.2-1.5.4-1 .4-2.2 0-1.9-.9-3-.9-1.2-2.3-1.2t-2.3 1.2q-1 1.1-1 3 0 1.2.5 2.2.4 1 1.1 1.5.7.6 1.7.6zm16.3-7.4q-.8-.7-1.3-.9-.4-.2-1-.2-1 0-1.7.4-.7.5-1.2 1.3-.5 1-.5 2.2v5.9h-1.8v-11h1.8v2q.4-1 1.4-1.7 1-.6 2-.6 1.8 0 3 1.2l-.8 1.4zm0 0v.1h-.1v-.1zm-.4 0h.4v.2l-.3-.1zm8.6 8.9q-2.4 0-3.9-1.5-1.4-1.5-1.4-4.2 0-1.8.6-3.1.7-1.3 1.8-2 1.2-.7 2.6-.7 2 0 3.2 1.3 1.3 1.3 1.3 4v.7h-7.9q.1 2 1.1 3t2.7 1q1.7 0 2.8-1.1l1 .9q-1.4 1.7-3.9 1.7zm2.4-6.8q0-1.6-.8-2.5-.7-.9-2-.9-1.2 0-2.1.9-.9.8-1.1 2.5h6zm8.8-.9q-.6 0-1-.4t-.4-1q0-.5.4-.9t1-.4q.6 0 1 .4t.4 1q0 .5-.4 1-.4.3-1 .3zm0 7.7q-.6 0-1-.4t-.4-1q0-.5.4-1 .4-.4 1-.4t1 .5q.4.4.4 1 0 .5-.4.9t-1 .4zm27.2 3.6q-1.8 0-3-.4-1-.4-1.6-1.3-.6-.9-.5-2.5l.1-2.4q0-1.6-.5-2.1-.6-.6-1.7-.6h-.4v-1.4h.4q1.1 0 1.7-.6.5-.6.5-2v-1.7q0-4.1 4.4-4.1h1.5v1.3h-2q-2.2 0-2.2 2.6v1.6q0 2.7-2 3.6 2 .7 2 3.7l-.1 2q0 1.6.7 2.3.7.6 2.3.6h1.3v1.4h-1zm20.2-19.8v3l-.2 2-.1 1.2h-1.2l-.1-1.2-.2-2v-3h1.8zm3.6 0v3l-.2 2-.1 1.2h-1.2l-.1-1.2-.2-2v-3h1.8zm8.9 15.6q-2.5-.2-4.2-2l1-1.4.2.3v.2q1.2 1.3 3 1.5v-5.3q-1.9-.6-2.8-1.5-1-.9-1-2.2 0-1.3 1.1-2.2 1-1 2.7-1.2v-1.5h1.6v.3l-.2.2v1q2.2.2 3.6 1.8l-1 1.3-.2-.3-.1-.2q-.8-1-2.3-1.3v4.7q2.2.7 3 1.5 1 .9 1 2.3 0 1-.5 1.8t-1.4 1.4q-.9.6-2 .8v1.5h-1.5V83zm0-12.5q-1 .1-1.6.7-.5.5-.5 1.2 0 1.4 2.1 2.3v-4.2zm1.4 11q1.1-.2 1.8-.8.7-.7.7-1.6 0-.8-.6-1.4-.6-.5-1.9-1v4.9zm6.9 1.8V82h3.2V69h-3v-1.4h4.8V82h3.2v1.4h-8.2zm20.7-1q-1.5 1.2-3.4 1.2t-2.6-1q-.8-1.2-.8-3.7v-1.4l.3-3.6h-2.4v-1.4h2.5l.2-3 1.9-.3h.2v.2l-.2.4-.1.5-.3 2.2h3.7v1.4h-3.8l-.2 3.7V79q0 1.9.4 2.6.4.7 1.4.7.7 0 1.3-.3l1.4-.8.5 1.3zm6.5-14.9v3l-.2 2-.1 1.2h-1.2l-.1-1.2-.2-2v-3h1.8zm3.6 0v3l-.2 2-.1 1.2h-1.2l-.1-1.2-.2-2v-3h1.8zm9 8.5q-.6 0-1-.4t-.4-1q0-.5.4-.9t1-.4q.6 0 1 .4t.4 1q0 .5-.4 1-.4.3-1 .3zm0 7.7q-.6 0-1-.4t-.4-1q0-.5.4-1 .4-.4 1-.4t1 .5q.4.4.4 1 0 .5-.4.9t-1 .4z" fill="#133a80"/><path d="M428 75.5q1.4.5 2.2 1.4.7 1 .7 2.4 0 1.2-.5 2.2-.5 1-1.5 1.6-1 .6-2.5.6-1.2 0-2.2-.4-1-.5-1.9-1.3l1.1-1.3 1.3 1.2q.7.4 1.7.4 1.4 0 2-.9.8-.8.8-2.1 0-1.5-1-2.3-.8-.7-2.4-.7h-.8V75q2.1 0 3-.8.7-.8.7-2.2 0-1-.6-1.6-.6-.6-1.5-.6-1.6 0-2.8 1.1l-1-1q1.5-1.5 3.7-1.5 1.8 0 2.9 1 1 1 1 2.7 0 1.2-.6 2.1-.6 1-1.7 1.3zm-4.3 5.1h-.2l.1-.1.1.1zm-.2 0q-.1-.1 0 0zm15.2-12.2q2.2 0 3.4 2 1.2 2 1.2 5.6 0 3.7-1.2 5.7t-3.4 2q-2.2 0-3.4-2-1.2-2-1.2-5.7 0-3.5 1.2-5.6 1.2-2 3.4-2zm0 1.5q-1.4 0-2.2 1.6-.7 1.7-.7 4.5 0 1.6.2 2.8l5-6.6q-.3-1.1-.9-1.7-.6-.6-1.4-.6zm0 12.3q1.4 0 2.1-1.6.8-1.6.8-4.6 0-1.3-.2-2.4l-5 6.5q.7 2.1 2.3 2.1z" fill="#cd5a2b"/><path d="M458 87.3v-1.4h1.2q1.7 0 2.4-.6.7-.7.7-2.3l-.1-2q0-3 2-3.7-2-1-2-3.6v-1.6q0-2.6-2.3-2.6h-2v-1.3h1.6q4.4 0 4.4 4.1v1.8q0 1.3.5 2 .5.5 1.6.5h.5V78h-.5q-1 0-1.6.6-.5.5-.5 2v2.5q.1 1.6-.4 2.5-.6 1-1.7 1.3-1.1.4-3 .4h-.8zm24 0v-1.4h1.2q1.7 0 2.4-.6.7-.7.7-2.3l-.1-2q0-3 2-3.7-2-1-2-3.6v-1.6q0-2.6-2.3-2.6h-2v-1.3h1.6q4.4 0 4.4 4.1v1.8q0 1.3.5 2 .5.5 1.6.5h.5V78h-.5q-1 0-1.6.6-.5.5-.5 2v2.5q.1 1.6-.4 2.5-.6 1-1.7 1.3-1.1.4-3 .4h-.8zm25.4-1.1q2.4-1.3 3.9-3.6 1.4-2.4 1.4-5 0-2.8-1.4-5-1.4-2.4-3.7-3.6l.4-1.5q2 .9 3.4 2.4t2.2 3.5q.8 2 .8 4 0 2.2-.8 4.1-.8 2-2.3 3.6-1.5 1.6-3.4 2.5l-.5-1.4z" fill="#133a80"/></g><path d="M60 28v2.6Q57.5 32 54 32q-2.7 0-4.6-1.1-1.9-1.1-3-3-1.1-2-1.1-4.2 0-3.6 2.5-6 2.6-2.5 6.3-2.5 2.6 0 5.8 1.4V19q-3-1.7-5.7-1.7-2.8 0-4.6 1.8-1.9 1.8-1.9 4.5t1.8 4.4q1.9 1.7 4.7 1.7 3 0 5.8-1.8zm7.8-7q2.5 0 4.1 1.6 1.6 1.6 1.6 4 0 2.3-1.6 3.8-1.7 1.6-4.2 1.6-2.4 0-4-1.6Q62 29 62 26.5t1.7-4q1.6-1.5 4.1-1.5zm-.1 2q-1.5 0-2.5 1t-1 2.5q0 1.5 1 2.5t2.6 1q1.6 0 2.6-1t1-2.5q0-1.6-1-2.6-1.1-1-2.7-1zm8.3-7.6h2v16.4h-2V15.4zm5.2 0h2.1v16.4h-2V15.4zm14.5 11.2H88q0 1.5 1 2.5 1 .9 2.5.9 2 0 3.9-1.3v2q-1 .7-2 1-1 .3-2.3.3-1.7 0-2.8-.8-1.1-.7-1.8-2-.7-1.2-.7-2.9 0-2.4 1.4-4 1.4-1.5 3.7-1.5 2.1 0 3.4 1.5 1.3 1.5 1.3 4v.3zM88 25.3h5.4q0-1.3-.7-2-.7-.6-1.8-.6-1.2 0-2 .6-.7.7-.9 2zm18 4v2q-1.6.7-3.1.7-2.5 0-4-1.5t-1.5-4q0-2.6 1.4-4.1 1.5-1.6 3.9-1.6.8 0 1.5.2.6.1 1.6.6v2.2q-1.6-1-3-1t-2.4 1q-.9 1-.9 2.6t1 2.6q1 1 2.7 1 1.2 0 2.8-.7zm1-6.6l4-4V21h3.4v2h-3.5v5.2q0 1.9 1.6 1.9 1.1 0 2.4-.8v2q-1.2.7-2.7.7-1.4 0-2.4-.9l-.5-.5-.4-.9V23h-2v-.2zm10.6-6.2q.5 0 .9.3.3.4.3 1 0 .4-.3.8-.4.4-1 .4-.4 0-.8-.4t-.4-.9q0-.5.4-.8.4-.4.9-.4zm-1 4.5h2v10.8h-2V21zm10.3 0q2.4 0 4 1.6 1.7 1.6 1.7 4 0 2.3-1.7 3.8-1.6 1.6-4.1 1.6-2.4 0-4-1.6-1.7-1.5-1.7-3.9t1.6-4q1.7-1.5 4.2-1.5zm-.1 2q-1.6 0-2.6 1t-1 2.5q0 1.5 1 2.5t2.6 1q1.6 0 2.6-1t1-2.5q0-1.6-1-2.6t-2.6-1zm10.2-2v1.4q1.5-1.6 3.3-1.6 1 0 1.9.5.9.5 1.3 1.5.5.9.5 2.8v6.2h-2.2v-6.1q0-1.7-.5-2.4t-1.7-.7q-1.5 0-2.5 1.5v7.7h-2.2V21h2.2z" font-size="24" font-family="GillSans" fill="#468bbe"/><g stroke="#468bbe"><path d="M88.3 39.3v15.6" fill="none"/><path d="M85.3 55l3 8 3-8z" fill="#468bbe"/></g><path d="M280 32.8l-2.3 2.3q-1 0-2.3-.4-1.2-.3-2.4-.9-1.3-.6-3.3-2-3-.5-5-2.8-1.9-2.3-1.9-5.3 0-3.7 2.5-6.1 2.5-2.4 6.3-2.4t6.3 2.4q2.5 2.4 2.5 6 0 3-1.9 5.3-1.8 2.3-4.9 2.9l.7.2q2.9 1.1 4.1 1.1.7 0 1.7-.3zm-8.4-15.4q-2.7 0-4.5 1.8-1.9 1.8-1.9 4.5 0 2.6 1.9 4.4 1.8 1.7 4.5 1.7t4.6-1.8q1.8-1.8 1.8-4.4 0-2.7-1.8-4.4-1.8-1.8-4.6-1.8zm18.3 14.4v-1.4q-.7.8-1.6 1.2-.9.4-1.7.4-1 0-2-.5-.8-.5-1.2-1.4-.4-.9-.4-3v-6h2v6q0 1.8.6 2.4.5.7 1.7.7 1.5 0 2.6-1.5V21h2.1v10.8h-2.1zm14.3-5.2h-7.6q0 1.5 1 2.5 1 .9 2.5.9 2.1 0 3.9-1.3v2q-1 .7-2 1-1 .3-2.2.3-1.8 0-2.9-.8-1.1-.7-1.8-2-.6-1.2-.6-2.9 0-2.4 1.4-4 1.4-1.5 3.6-1.5 2.1 0 3.4 1.5 1.3 1.5 1.3 4v.3zm-7.5-1.3h5.4q-.1-1.3-.8-2-.7-.6-1.8-.6-1.2 0-1.9.6-.7.7-1 2zm12.1-4.3v2.5-.2q1.6-2.5 3.2-2.5 1.2 0 2.5 1.2l-1.1 1.9q-1.1-1-2-1-1.1 0-1.9 1-.7 1-.7 2.3v5.6h-2.2V21h2.2zm14.5 0h2.4l-7.6 16.3h-2.4l3.7-7.8-4.2-8.5h2.4l3 6 2.7-6zm25 7v2.6q-2.6 1.4-6 1.4-2.7 0-4.6-1.1-2-1.1-3-3-1.2-2-1.2-4.2 0-3.6 2.6-6 2.5-2.5 6.3-2.5 2.5 0 5.7 1.4V19q-2.9-1.7-5.6-1.7-2.8 0-4.7 1.8-1.9 1.8-1.9 4.5t1.9 4.4q1.8 1.7 4.7 1.7 3 0 5.8-1.8zm4.9-7v2.5-.2q1.6-2.5 3.2-2.5 1.2 0 2.5 1.2l-1.1 1.9q-1.1-1-2-1-1.1 0-1.9 1-.7 1-.7 2.3v5.6H351V21h2.2zm8.3-4.5q.5 0 .9.3.4.4.4 1 0 .4-.4.8t-.9.4q-.5 0-.9-.4-.3-.4-.3-.9t.3-.8q.4-.4.9-.4zm-1 4.5h2v10.8h-2V21zm3.6 1.7l4-4V21h3.4v2h-3.4v5.2q0 1.9 1.6 1.9 1.1 0 2.4-.8v2q-1.2.7-2.7.7-1.4 0-2.4-.9l-.5-.5-.4-.9V23h-2v-.2zm18.7 3.9h-7.5q0 1.5 1 2.5 1 .9 2.5.9 2 0 3.9-1.3v2q-1 .7-2 1-1 .3-2.3.3-1.7 0-2.8-.8-1.1-.7-1.8-2-.7-1.2-.7-2.9 0-2.4 1.4-4 1.4-1.5 3.6-1.5t3.5 1.5q1.2 1.5 1.2 4v.3zm-7.5-1.3h5.4q0-1.3-.7-2-.7-.6-1.9-.6-1.1 0-1.8.6-.8.7-1 2zm12.1-4.3v2.5l.1-.2q1.6-2.5 3.1-2.5 1.2 0 2.6 1.2l-1.2 2q-1-1-2-1t-1.8 1q-.8 1-.8 2.3v5.6h-2.1V21h2.1zm8.4-4.5q.5 0 .9.3.3.4.3 1 0 .4-.3.8-.4.4-1 .4-.4 0-.8-.4t-.4-.9q0-.5.4-.8.4-.4.9-.4zm-1 4.5h2v10.8h-2V21zm11.9 4.3V30q0 .5.4.5.3 0 1.2-.5v1.3l-1.2.6q-.4.2-1 .2-1.3 0-1.5-1.1-1.4 1-3 1-1 0-1.8-.7t-.8-1.9q0-1 .8-1.8.7-.8 2-1.2l2.8-1v-.6q0-2-2-2-1.7 0-3.4 1.9v-2.3q1.3-1.5 3.6-1.5 1.8 0 2.8 1 .4.2.6.7l.4 1v1.8zm-2.1 4.4v-3.2l-1.4.5q-1.1.4-1.6.9-.4.4-.4 1 0 .7.4 1.2.4.4 1.1.4 1 0 1.9-.8z" font-size="24" font-family="GillSans" fill="#468bbe"/><path d="M205.6 60.6h286V100h-286z" opacity=".3" fill="#2476c0"/><g stroke="#468bbe"><path d="M342.3 38.8v15.6" fill="none"/><path d="M339.3 54.4l3 8 3-8z" fill="#468bbe"/></g><path d="M30.3 177L206 100.4m68.2 76.6l213-76.5" stroke="#96bee1" fill="none"/><g font-size="21"><path d="M719.2 201.7q-1.6 0-2.6-.3t-1.5-1.1q-.4-.8-.4-2.3l.1-2q0-1.4-.4-2-.5-.4-1.5-.4h-.4v-1.2h.4q1 0 1.5-.5.5-.6.5-1.8v-1.5q0-3.6 3.7-3.6h1.4v1.2h-1.7q-2 0-2 2.2v1.5q0 2.3-1.8 3 1.8.7 1.8 3.3v1.8q0 1.4.5 2 .7.5 2 .5h1.2v1.2h-.8z" font-family="Inconsolata" fill="#123a80"/><path d="M738.3 192.7q1.9.5 2.6 1.2.7.6.7 1.7 0 1.3-1 2.1-1 .9-3 .9-2.4 0-4-1.6l.8-1.4q.7.9 1.4 1.3t2 .4q1 0 1.7-.4t.7-1.1q0-.6-.6-1-.5-.4-1.9-.9-3.6-1-3.6-3 0-1 1-1.7.9-.7 2.6-.7 1.3 0 2.1.4 1 .4 1.7 1.1l-.9 1v.1q-.4-.7-1.3-1-.8-.4-1.6-.4-1 0-1.5.3-.6.3-.6.8 0 .6.6 1 .6.5 2.1.9zm2-1.6h.2v.1h-.1zm.3 0v.1-.1zm-6 4.4q0 .1-.1 0h.2zm-.1 0q-.1 0 0 0zm14.5 1.7q1.4 0 2.5-1.2l.9 1q-1.5 1.6-3.5 1.6-1.4 0-2.5-.7-1-.6-1.7-1.8-.6-1.1-.6-2.5 0-1.5.6-2.6t1.7-1.8q1.1-.6 2.5-.6 1.1 0 2 .4 1 .5 1.6 1.3l-1 1q-.6-.8-1.2-1.1-.7-.4-1.6-.4-.8 0-1.5.5-.7.4-1.1 1.3-.5.8-.5 1.9 0 1 .5 1.9.4.8 1.2 1.3.7.5 1.7.5zm2.3-5.9q0-.1.2 0v.1h-.2zm.2 0q.1.1 0 0zm7.2 7.2q-1.3 0-2.3-.6-1-.6-1.6-1.8-.6-1.1-.6-2.6 0-1.4.6-2.5.6-1.2 1.6-1.8 1-.7 2.3-.7 1.2 0 2.2.7 1 .6 1.6 1.8.6 1 .6 2.5t-.6 2.6q-.5 1.2-1.6 1.8-1 .6-2.2.6zm0-1.2q.8 0 1.4-.5.7-.5 1-1.4.4-.8.4-1.9 0-1.6-.8-2.7-.8-1-2-1-1.3 0-2 1-.9 1-.9 2.7 0 1 .4 2 .4.8 1 1.3t1.5.5zm14.2-6.6l-1-.7-1-.2q-.8 0-1.5.4-.6.4-1 1.2-.5.7-.5 1.9v5h-1.5v-9.6h1.6v1.8q.3-1 1.2-1.5.8-.5 1.8-.5 1.5 0 2.5 1l-.6 1.2zm0 0q.1.2 0 .2v-.1zm-.3.1h.2v.1h-.2zm7.5 7.8q-2.1 0-3.4-1.3-1.3-1.3-1.3-3.7 0-1.6.6-2.7.6-1.2 1.6-1.8 1-.6 2.2-.6 1.8 0 2.9 1.2 1 1.1 1 3.4v.7H777q0 1.7 1 2.6.9 1 2.3 1 1.5 0 2.4-1.1l.9.8q-1.2 1.5-3.4 1.5zm2.1-6q0-1.4-.7-2.1-.6-.8-1.8-.8-1 0-1.8.7t-1 2.2h5.3z" font-family="Inconsolata" fill="#cd5a2b"/><path d="M789.9 191.9q-.5 0-.9-.4-.3-.3-.3-.8t.3-.9q.4-.3.9-.3t.9.3q.4.4.4.9t-.4.8q-.4.4-.9.4zm0 6.7q-.5 0-.9-.4-.3-.3-.3-.8t.3-.9q.4-.3.9-.3t.9.3q.4.4.4.9t-.4.8q-.4.4-.9.4zm20.8-.3v-11.2l-2.6.7-.3-.8 3.4-1.8h1v13.1h-1.5zm17.3 3.4v-1.2h1.1q1.5 0 2-.6.7-.5.7-2v-1.7q0-2.6 1.7-3.2-1.8-.8-1.8-3.1v-1.5q0-2.2-2-2.2H828V185h1.4q3.8 0 3.8 3.6v1.5q0 1.2.4 1.8.5.5 1.5.5h.4v1.2h-.4q-1 0-1.5.5-.4.5-.4 1.8v2.1q.1 1.5-.4 2.3-.4.8-1.4 1-1 .4-2.6.4h-.7z" font-family="Inconsolata" fill="#123a80"/><path d="M849.5 184h2v14.3h-2V184zm6.8 5v1.1q1.3-1.4 2.9-1.4.9 0 1.6.5.8.4 1.2 1.2.4.8.4 2.6v5.3h-1.9V193q0-1.5-.4-2-.5-.7-1.5-.7-1.3 0-2.3 1.3v6.7h-1.9V189h2zm15-5h1.8v14.3h-4q-2 0-3.3-1.3-1.2-1.3-1.2-3.5 0-2.1 1.3-3.5 1.3-1.3 3.3-1.3 1 0 2 .4v-5zm0 12.7v-6q-.9-.4-1.8-.4-1.4 0-2.2 1-.8.9-.8 2.4t.7 2.2q.4.5.9.7l1.7.1h1.5zm12.4-2.9h-6.6q0 1.3.9 2.1.8.8 2.2.8 1.8 0 3.4-1.1v1.8q-.9.6-1.8.8-.8.3-2 .3-1.5 0-2.5-.7-1-.6-1.5-1.7-.6-1-.6-2.5 0-2.2 1.2-3.5 1.3-1.4 3.2-1.4 1.9 0 3 1.3 1.1 1.4 1.1 3.6v.2zm-6.6-1.1h4.8q-.1-1.1-.7-1.7-.6-.7-1.6-.7t-1.6.7q-.7.6-.9 1.7zm15.1-3.7h2.4l-3.9 4.6 4.2 4.7h-2.4l-3-3.3-2.7 3.3h-2.4l4-4.7-4-4.7h2.4l2.8 3.3 2.6-3.3z" font-family="GillSans" fill="#123a80"/></g><path d="M28.3 311h77.3v92.5H28.3z" fill="#fff"/><path d="M28.3 311h77.3v92.5H28.3z" stroke="#0c60b2" stroke-width=".9" fill="none"/><g font-size="12" font-family="Inconsolata"><path d="M33.5 341.1q-.9 0-1.5-.2-.5-.2-.8-.6-.3-.5-.2-1.3v-1.2q0-.8-.3-1-.2-.3-.8-.3h-.2v-.7h.2q.6 0 .9-.3.2-.3.2-1v-.9q0-2 2.2-2h.8v.6h-1q-1.1 0-1.1 1.3v.8q0 1.4-1 1.8 1 .4 1 1.9v1q0 .8.3 1.1.3.3 1.1.3h.6v.7h-.4z" fill="#0c60b2"/><path d="M41.8 352q1 .3 1.4.7.5.3.5.9 0 .7-.6 1.2t-1.7.5q-1.4 0-2.3-.8l.5-.9q.3.5.7.8.4.2 1.1.2.7 0 1-.2.4-.3.4-.7 0-.3-.3-.6l-1-.4q-2.1-.6-2.1-1.7 0-.7.5-1 .5-.4 1.5-.4.7 0 1.2.2.6.2 1 .6l-.5.6-.8-.5q-.4-.3-.9-.3t-.8.2q-.4.2-.4.5t.4.6l1.2.5zm1.1-1h.1v.1zm.2 0v.1zm-3.4 2.6h-.1.1zm-.1 0zm8.3.9q.8 0 1.4-.6l.5.6q-.8.8-2 .8-.8 0-1.4-.3-.6-.4-1-1-.3-.7-.3-1.5 0-.9.3-1.5.4-.7 1-1 .6-.4 1.4-.4.7 0 1.2.3.5.2.9.7l-.6.6q-.3-.5-.7-.7-.4-.2-.9-.2t-.9.3q-.4.3-.6.7-.3.5-.3 1.1 0 .6.3 1.1.2.5.7.8.4.2 1 .2zm1.3-3.3q0-.1.1 0h-.1zm.1 0zm4.1 4.1q-.7 0-1.3-.4-.6-.3-1-1-.2-.6-.2-1.5 0-.8.3-1.4.3-.7.9-1 .6-.4 1.3-.4.7 0 1.3.4.6.3.9 1 .3.6.3 1.4 0 .9-.3 1.5-.3.7-.9 1-.6.4-1.3.4zm0-.7q.5 0 .8-.3.4-.3.6-.8l.2-1q0-1-.4-1.6-.5-.6-1.2-.6t-1.2.6q-.4.6-.4 1.5 0 .6.2 1.1l.5.8q.4.3.9.3zm8.1-3.7q-.3-.4-.6-.5h-.5l-.8.1-.7.7q-.2.4-.2 1v3h-.9v-5.5h1l-.1 1q.2-.5.7-.8.5-.3 1-.3 1 0 1.5.6l-.4.7zm0 0zm-.1 0zm4.3 4.4q-1.3 0-2-.7-.7-.8-.7-2.1 0-1 .3-1.6.3-.6 1-1 .5-.3 1.2-.3 1 0 1.6.6.6.7.6 2v.4h-3.9q0 1 .6 1.5.5.5 1.3.5t1.4-.6l.5.5q-.7.8-2 .8zm1.2-3.4q0-.8-.4-1.2-.4-.5-1-.5-.7 0-1.1.5-.5.4-.6 1.2h3z" fill="#c45127"/><path d="M71.2 351.5l-.4-.2q-.3-.2-.3-.5t.2-.5l.5-.2q.3 0 .5.2.3.2.3.5t-.3.5q-.2.2-.5.2zm0 3.8q-.3 0-.5-.2t-.2-.5l.2-.4q.3-.3.5-.3.3 0 .5.3.3.2.3.4 0 .3-.3.5-.2.2-.5.2z" fill="#0c60b2"/><path d="M81.3 354.5l1-1 1.4-1.5.8-1q.3-.6.3-1.2 0-.7-.4-1-.3-.4-1-.4l-.9.2-.6.5v.3l-.2.2h.1-.1l-.6-.5q.3-.7 1-1 .6-.4 1.4-.4 1 0 1.5.5.6.6.6 1.6 0 .7-.3 1.3-.3.6-.8 1.1l-1.3 1.4-.9.9h3.1l.2-.2v.9h-4.3v-.7zm8.2-4.2q.6 0 1.1.3.5.3.8 1 .3.5.3 1.2 0 .8-.3 1.4-.3.5-.8.8-.6.3-1.2.3-.7 0-1.3-.3-.6-.3-1-.8l.7-.5.7.7q.4.2 1 .2l.6-.2q.4-.2.6-.6l.2-1q0-.8-.5-1.3-.4-.5-1-.5l-.8.2-.7.5-.5-.2.3-3.8h3.8v.8h-3.1l-.2 2.1q.6-.3 1.3-.3zm-1.7 3.4q0-.1 0 0zm.2 0h-.1v-.1z" fill="#c55127"/><path d="M94.4 356.9l.5-.7.2-.6v-.2l-.2-.2-.3-.3v-.2l.1-.5q.2-.2.5-.2.4 0 .6.2.3.3.3.8 0 .9-1.3 2.2l-.4-.3zM32 370.3q-.4 0-.6-.2-.2-.2-.2-.5l.2-.4q.2-.2.5-.2t.5.2l.2.4q0 .3-.2.5t-.5.2zm6 0q-.4 0-.6-.2-.2-.2-.2-.5l.2-.4q.2-.2.5-.2t.5.2l.2.4q0 .3-.2.5t-.5.2zm6 0q-.4 0-.6-.2-.2-.2-.2-.5l.2-.4q.2-.2.5-.2t.5.2l.2.4q0 .3-.2.5t-.5.2zm-14.3 15.8v-.7h.6q.8 0 1.2-.3.3-.3.3-1.1v-1q0-1.5 1-1.9-1-.4-1-1.8v-.8q0-1.3-1.1-1.3h-1v-.6h.8q2.1 0 2.1 2v.9q0 .7.3 1 .3.3.8.3h.3v.7h-.3q-.5 0-.8.3-.3.2-.3 1v1.2q.1.8-.1 1.3-.3.4-.9.6-.5.2-1.5.2h-.4z" fill="#0c60b2"/></g><g stroke="#96bee1"><path d="M67 285v17" fill="none"/><path d="M64 302l3 8 3-8z" fill="#96bee1"/></g><path d="M182 311h77.3v92.5h-77.4z" fill="#fff"/><path d="M182 311h77.3v92.5h-77.4z" stroke="#0c60b2" stroke-width=".9" fill="none"/><g font-size="12" font-family="Inconsolata"><path d="M187.1 341.1q-.9 0-1.4-.2-.6-.2-.9-.6-.3-.5-.2-1.3v-1.2q0-.8-.2-1-.3-.3-.8-.3h-.3v-.7h.2q.6 0 .9-.3.3-.3.3-1v-.9q0-2 2.1-2h.8v.6h-1q-1.1 0-1.1 1.3v.8q0 1.4-1 1.8 1 .4 1 1.9v1q0 .8.3 1.1.3.3 1.1.3h.7v.7h-.5z" fill="#0c60b2"/><path d="M198 352q1.1.3 1.5.7.5.3.5.9 0 .7-.6 1.2t-1.7.5q-1.4 0-2.3-.8l.4-.9.8.8q.4.2 1.1.2.7 0 1-.2.4-.3.4-.7 0-.3-.3-.6l-1-.4q-2.1-.6-2.1-1.7 0-.7.5-1 .5-.4 1.5-.4.7 0 1.2.2l1 .6-.5.6-.8-.5q-.4-.3-.9-.3t-.9.2q-.3.2-.3.5t.4.6l1.2.5zm1.2-1h.1v.1zm.2 0v.1zm-3.4 2.6h-.1zm-.1 0zm8.2.9q.9 0 1.5-.6l.5.6q-.8.8-2 .8-.8 0-1.4-.3-.6-.4-1-1-.4-.7-.4-1.5 0-.9.4-1.5.4-.7 1-1 .6-.4 1.4-.4.6 0 1.2.3.5.2.9.7l-.6.6q-.3-.5-.7-.7-.4-.2-1-.2-.4 0-.8.3t-.6.7q-.3.5-.3 1.1 0 .6.3 1.1.2.5.7.8.4.2 1 .2zm1.4-3.3q0-.1 0 0zm.1 0zm4.1 4.1q-.8 0-1.3-.4-.6-.3-1-1-.3-.6-.3-1.5 0-.8.4-1.4.3-.7.9-1 .5-.4 1.3-.4.7 0 1.3.4.6.3.9 1 .3.6.3 1.4 0 .9-.3 1.5-.3.7-1 1-.5.4-1.2.4zm0-.7q.4 0 .8-.3t.6-.8l.2-1q0-1-.5-1.6-.4-.6-1.1-.6-.7 0-1.2.6-.4.6-.4 1.5 0 .6.2 1.1l.5.8q.4.3.9.3zm8.1-3.7l-.6-.5h-.5l-.9.1-.6.7q-.2.4-.2 1v3h-.9v-5.5h.9v1q.2-.5.7-.8.5-.3 1-.3.9 0 1.5.6l-.4.7zm0 0zm-.1 0zm4.3 4.4q-1.3 0-2-.7-.7-.8-.7-2.1 0-1 .3-1.6.3-.6.9-1 .6-.3 1.3-.3 1 0 1.6.6.6.7.6 2v.4h-4q.1 1 .7 1.5.5.5 1.3.5t1.4-.6l.5.5q-.7.8-2 .8zm1.1-3.4q0-.8-.4-1.2-.3-.5-1-.5-.6 0-1 .5-.5.4-.6 1.2h3z" fill="#c45127"/><path d="M227.5 351.5l-.5-.2q-.2-.2-.2-.5t.2-.5q.2-.2.5-.2t.5.2q.2.2.2.5t-.2.5q-.2.2-.5.2zm0 3.8q-.3 0-.5-.2t-.2-.5l.2-.4q.2-.3.5-.3t.5.3l.2.4q0 .3-.2.5t-.5.2z" fill="#0c60b2"/><path d="M240.5 355.2v-1.8h-3.2v-.7l3.4-5h.7v5h1v.7h-1v1.8h-1zm-2.3-2.5h2.3v-3.5l-2.3 3.5zm7.6-2.4q.6 0 1.1.3.5.3.8 1 .3.5.3 1.2 0 .8-.3 1.4-.3.5-.8.8-.6.3-1.2.3-.7 0-1.3-.3-.6-.3-1-.8l.7-.5.7.7q.3.2 1 .2l.6-.2q.4-.2.6-.6l.2-1q0-.8-.5-1.3-.4-.5-1-.5-.5 0-.8.2l-.7.5-.5-.2.2-3.8h3.8v.8h-3l-.2 2.1q.6-.3 1.3-.3zm-1.7 3.4q0-.1 0 0zm.2 0h-.1v-.1z" fill="#cd5a2b"/><path d="M250.7 356.9l.5-.7.2-.6v-.2l-.2-.2-.3-.3v-.2l.1-.5q.2-.2.5-.2.4 0 .6.2.2.3.2.8 0 .9-1.2 2.2l-.4-.3zm-65.2 14.4q-.3 0-.5-.2t-.2-.5l.2-.4q.2-.2.5-.2t.5.2l.2.4q0 .3-.2.5t-.5.2zm6 0q-.3 0-.5-.2t-.2-.5l.2-.4q.2-.2.5-.2t.5.2l.2.4q0 .3-.2.5t-.5.2zm6 0q-.3 0-.5-.2t-.2-.5l.2-.4q.2-.2.5-.2t.5.2l.2.4q0 .3-.2.5t-.5.2zm-14.2 15.8v-.7h.6q.9 0 1.2-.3.4-.3.4-1.1v-1q0-1.5 1-1.9-1.1-.4-1.1-1.8v-.8q0-1.3-1-1.3h-1v-.6h.7q2.2 0 2.2 2v.9q0 .7.2 1 .3.3.9.3h.2v.7h-.3q-.5 0-.8.3-.2.2-.2 1v1.2q0 .8-.2 1.3-.3.4-.9.6-.5.2-1.4.2h-.5z" fill="#0c60b2"/></g><path d="M105.6 311H182v92.5h-76.3z" fill="#fff"/><path d="M105.6 311H182v92.5h-76.3z" stroke="#0c60b2" stroke-width=".9" fill="none"/><g font-size="12" font-family="Inconsolata"><path d="M110.8 341.1q-.9 0-1.5-.2-.5-.2-.8-.6-.3-.5-.2-1.3v-1.2q0-.8-.2-1-.3-.3-.9-.3h-.2v-.7h.2q.6 0 .9-.3.2-.3.2-1v-.9q0-2 2.2-2h.8v.6h-1q-1.1 0-1.1 1.3v.8q0 1.4-1 1.8 1 .4 1 1.9v1q0 .8.3 1.1.3.3 1.1.3h.7v.7h-.5z" fill="#0c60b2"/><path d="M121.8 352q1 .3 1.4.7.4.3.4.9 0 .7-.5 1.2-.6.5-1.7.5-1.4 0-2.3-.8l.4-.9.8.8q.4.2 1.1.2.7 0 1-.2.4-.3.4-.7 0-.3-.3-.6l-1-.4q-2.1-.6-2.1-1.7 0-.7.5-1 .5-.4 1.5-.4.7 0 1.2.2l1 .6-.5.6-.8-.5q-.4-.3-1-.3l-.8.2q-.3.2-.3.5t.4.6l1.2.5zm1.1-1h.1v.1zm.1 0v.1zm-3.3 2.6h-.1zm-.2 0zm8.3.9q.9 0 1.5-.6l.5.6q-.8.8-2 .8-.8 0-1.4-.3-.7-.4-1-1-.4-.7-.4-1.5 0-.9.4-1.5.3-.7 1-1 .6-.4 1.4-.4.6 0 1.2.3.5.2.9.7l-.6.6q-.3-.5-.7-.7-.4-.2-1-.2-.4 0-.8.3t-.6.7q-.3.5-.3 1.1 0 .6.3 1.1.2.5.7.8.4.2 1 .2zm1.4-3.3q0-.1 0 0zm.1 0zm4.1 4.1q-.8 0-1.3-.4-.6-.3-1-1-.3-.6-.3-1.5 0-.8.4-1.4.3-.7.9-1 .5-.4 1.3-.4.7 0 1.3.4.6.3.9 1 .3.6.3 1.4 0 .9-.3 1.5-.3.7-1 1-.5.4-1.2.4zm0-.7q.4 0 .8-.3t.6-.8l.2-1q0-1-.5-1.6-.4-.6-1.1-.6-.7 0-1.2.6t-.5 1.5q0 .6.3 1.1l.5.8q.4.3.9.3zm8.1-3.7l-.6-.5h-.5l-.9.1-.6.7q-.2.4-.2 1v3h-.9v-5.5h.9v1q.2-.5.7-.8.4-.3 1-.3.9 0 1.5.6l-.4.7zm0 0zm-.2 0h.2-.2zm4.3 4.4q-1.2 0-2-.7-.6-.8-.6-2.1 0-1 .3-1.6.3-.6.9-1 .6-.3 1.3-.3 1 0 1.6.6.6.7.6 2v.4h-4q.1 1 .6 1.5.6.5 1.4.5.8 0 1.4-.6l.5.5q-.7.8-2 .8zm1.2-3.4q0-.8-.4-1.2-.3-.5-1-.5-.6 0-1 .5-.5.4-.6 1.2h3z" fill="#c45127"/><path d="M151.2 351.5q-.3 0-.5-.2t-.2-.5q0-.3.2-.5t.5-.2q.3 0 .5.2t.2.5q0 .3-.2.5t-.5.2zm0 3.8q-.3 0-.5-.2t-.2-.5l.2-.4q.2-.3.5-.3t.5.3l.2.4q0 .3-.2.5t-.5.2z" fill="#0c60b2"/><path d="M163.5 350.3q.6 0 1.1.3.5.3.8 1 .3.5.3 1.2 0 .8-.3 1.4-.3.5-.8.8-.6.3-1.2.3-.7 0-1.3-.3-.6-.3-1-.8l.7-.5q.3.5.7.7.3.2 1 .2l.6-.2q.4-.2.6-.6l.2-1q0-.8-.5-1.3-.4-.5-1-.5-.5 0-.8.2l-.7.5-.5-.2.2-3.8h3.8v.8h-3l-.2 2.1q.6-.3 1.3-.3zm-1.7 3.4q0-.1 0 0zm.2 0h-.2l.1-.1zm7.6-3.3q.5 0 1 .3t.8.8q.2.6.2 1.3 0 .8-.3 1.3-.2.6-.7.9-.5.3-1.1.3-1.1 0-1.7-1-.6-.9-.6-2.5 0-1.3.3-2.3.3-.9 1-1.4.5-.5 1.3-.5 1 0 1.7.7l-.6.6q-.2-.3-.5-.4l-.6-.1-.8.2q-.4.3-.7 1-.3.6-.3 1.7l.7-.7q.4-.2.9-.2zm1.2-1.4q0-.1 0 0zm.1 0zm-1.4 5.6q.6 0 1-.5.3-.5.3-1.3l-.2-1-.5-.5-.6-.2q-.4 0-.8.3l-.7.7v.3q0 .6.2 1l.5.9q.4.3.8.3z" fill="#cd5a2b"/><path d="M174.3 356.9l.6-.7.2-.6v-.2l-.2-.2-.3-.3v-.2l.1-.5q.2-.2.5-.2l.6.2q.2.3.2.8 0 .9-1.2 2.2l-.5-.3zm-65.1 14.4q-.3 0-.5-.2t-.2-.5l.2-.4q.2-.2.5-.2t.5.2l.2.4q0 .3-.2.5t-.5.2zm6 0q-.3 0-.5-.2t-.2-.5l.2-.4q.2-.2.5-.2t.5.2l.2.4q0 .3-.2.5t-.5.2zm6 0q-.3 0-.5-.2t-.2-.5l.2-.4q.2-.2.5-.2t.5.2l.2.4q0 .3-.2.5t-.5.2zM107 387.1v-.7h.6q.9 0 1.2-.3.4-.3.4-1.1v-1q0-1.5 1-1.9-1.1-.4-1.1-1.8v-.8q0-1.3-1.1-1.3h-1v-.6h.8q2.2 0 2.2 2v.9q0 .7.2 1 .3.3.8.3h.3v.7h-.3q-.5 0-.8.3-.2.2-.2 1v1.2q0 .8-.2 1.3-.3.4-.9.6-.5.2-1.4.2h-.5z" fill="#0c60b2"/></g><path d="M259.3 311h77.3v92.5h-77.3z" fill="#fff"/><path d="M259.3 311h77.3v92.5h-77.3z" stroke="#0c60b2" stroke-width=".9" fill="none"/><g font-size="12" font-family="Inconsolata"><path d="M264.5 341.1q-1 0-1.5-.2-.6-.2-.9-.6-.2-.5-.2-1.3v-1.2q0-.8-.2-1-.3-.3-.8-.3h-.3v-.7h.3q.5 0 .8-.3.3-.3.3-1v-.9q0-2 2.1-2h.8v.6h-1q-1.1 0-1.1 1.3v.8q0 1.4-1 1.8 1 .4 1 1.9v1q0 .8.3 1.1.4.3 1.2.3h.6v.7h-.4z" fill="#0c60b2"/><path d="M275.4 352q1 .3 1.5.7.4.3.4.9 0 .7-.6 1.2t-1.7.5q-1.4 0-2.3-.8l.5-.9.8.8q.4.2 1 .2.7 0 1-.2.4-.3.4-.7 0-.3-.3-.6l-1-.4q-2.1-.6-2.1-1.7 0-.7.5-1 .5-.4 1.5-.4.7 0 1.3.2.5.2.9.6l-.5.6-.7-.5q-.5-.3-1-.3t-.8.2q-.3.2-.3.5t.3.6l1.2.5zm1.2-1v.1zm0 0l.1.1zm-3.3 2.6h-.1.1zm-.1 0zm8.3.9q.8 0 1.4-.6l.5.6q-.8.8-2 .8-.8 0-1.4-.3-.6-.4-1-1-.3-.7-.3-1.5 0-.9.3-1.5.4-.7 1-1 .6-.4 1.4-.4.7 0 1.2.3.6.2.9.7l-.6.6q-.3-.5-.7-.7-.3-.2-.9-.2-.5 0-.9.3t-.6.7q-.2.5-.2 1.1 0 .6.2 1.1.3.5.7.8.4.2 1 .2zm1.3-3.3q0-.1.1 0h-.1zm.1 0q.1 0 0 0zm4.1 4.1q-.7 0-1.3-.4-.6-.3-.9-1-.3-.6-.3-1.5 0-.8.3-1.4.3-.7.9-1 .6-.4 1.3-.4.7 0 1.3.4.6.3 1 1 .2.6.2 1.4 0 .9-.3 1.5-.3.7-.9 1-.6.4-1.3.4zm0-.7q.5 0 .8-.3.4-.3.6-.8l.2-1q0-1-.4-1.6-.5-.6-1.2-.6t-1.2.6q-.4.6-.4 1.5 0 .6.2 1.1.2.5.6.8.3.3.8.3zm8.1-3.7q-.3-.4-.6-.5h-.5l-.8.1-.7.7q-.2.4-.2 1v3h-.9v-5.5h1v1q.1-.5.6-.8.5-.3 1-.3 1 0 1.5.6l-.4.7zm0 0q.1 0 0 0zm-.1 0zm4.3 4.4q-1.3 0-2-.7-.7-.8-.7-2.1 0-1 .3-1.6.4-.6 1-1 .5-.3 1.2-.3 1 0 1.6.6.6.7.6 2v.4h-3.9q0 1 .6 1.5.5.5 1.3.5.9 0 1.4-.6l.5.5q-.7.8-2 .8zm1.2-3.4q0-.8-.4-1.2-.4-.5-1-.5t-1 .5q-.5.4-.6 1.2h3z" fill="#c45127"/><path d="M304.9 351.5q-.3 0-.5-.2t-.2-.5q0-.3.2-.5t.5-.2l.5.2q.2.2.2.5t-.2.5l-.5.2zm0 3.8q-.3 0-.5-.2t-.2-.5l.2-.4q.2-.3.5-.3.2 0 .5.3l.2.4q0 .3-.2.5t-.5.2z" fill="#0c60b2"/><path d="M315.9 355.2q1-3.4 2.2-6.7H315v-.8h4.2v.5q-1.5 3.7-2.4 7h-1zm7.1-4.9q.7 0 1.2.3.6.3.8 1 .3.5.3 1.2 0 .8-.3 1.4-.3.5-.8.8-.5.3-1.2.3t-1.3-.3q-.6-.3-1-.8l.7-.5.7.7q.4.2 1 .2l.7-.2q.3-.2.5-.6l.2-1q0-.8-.5-1.3-.4-.5-1-.5l-.8.2q-.4.2-.6.5l-.6-.2.3-3.8h3.8v.8H322l-.1 2.1q.6-.3 1.2-.3zm-1.5 3.4q-.1-.1 0 0zm0 0v-.1z" fill="#c45129"/><path d="M328 356.9l.5-.7.3-.6-.1-.2-.2-.2-.3-.3v-.2l.1-.5q.2-.2.6-.2.3 0 .5.2.3.3.3.8 0 .9-1.3 2.2l-.4-.3zm-65.1 14.4q-.3 0-.5-.2t-.2-.5l.2-.4q.2-.2.5-.2l.4.2.2.4q0 .3-.2.5l-.4.2zm6 0q-.3 0-.5-.2t-.2-.5l.2-.4q.2-.2.5-.2l.4.2.2.4q0 .3-.2.5l-.4.2zm6 0q-.3 0-.5-.2t-.2-.5l.2-.4q.2-.2.5-.2l.4.2.2.4q0 .3-.2.5l-.4.2zm-14.2 15.8v-.7h.6q.8 0 1.1-.3.4-.3.4-1.1v-1q0-1.5 1-1.9-1-.4-1-1.8v-.8q0-1.3-1.2-1.3h-1v-.6h.8q2.2 0 2.2 2v.9q0 .7.2 1 .3.3.9.3h.2v.7h-.2q-.6 0-.8.3-.3.2-.3 1v1.2q0 .8-.2 1.3-.3.4-.8.6-.6.2-1.5.2h-.4z" fill="#0c60b2"/></g><path d="M336.3 311h77.4v92.5h-77.4z" fill="#fff"/><path d="M336.3 311h77.4v92.5h-77.4z" stroke="#0c60b2" stroke-width=".9" fill="none"/><g font-size="12" font-family="Inconsolata"><path d="M341.5 341.1q-.9 0-1.4-.2-.6-.2-.9-.6-.2-.5-.2-1.3v-1.2q0-.8-.2-1-.3-.3-.8-.3h-.3v-.7h.2q.6 0 .9-.3.3-.3.3-1v-.9q0-2 2.1-2h.8v.6h-1q-1.1 0-1.1 1.3v.8q0 1.4-1 1.8 1 .4 1 1.9v1q0 .8.3 1.1.3.3 1.2.3h.6v.7h-.5z" fill="#0c60b2"/><path d="M352.5 352q1 .3 1.4.7.5.3.5.9 0 .7-.6 1.2t-1.7.5q-1.4 0-2.3-.8l.4-.9.8.8q.4.2 1.1.2.7 0 1-.2.4-.3.4-.7 0-.3-.3-.6l-1-.4q-2.1-.6-2.1-1.7 0-.7.5-1 .5-.4 1.5-.4.7 0 1.2.2l1 .6-.5.6-.8-.5q-.4-.3-.9-.3t-.8.2q-.4.2-.4.5t.4.6l1.2.5zm1.1-1h.1v.1zm.2 0v.1zm-3.4 2.6h-.1zm-.1 0zm8.3.9q.8 0 1.4-.6l.5.6q-.8.8-2 .8-.8 0-1.4-.3-.6-.4-1-1-.3-.7-.3-1.5 0-.9.3-1.5.4-.7 1-1 .6-.4 1.4-.4.7 0 1.2.3.5.2.9.7l-.6.6q-.3-.5-.7-.7-.4-.2-1-.2-.4 0-.8.3t-.6.7q-.3.5-.3 1.1 0 .6.3 1.1.2.5.7.8.4.2 1 .2zm1.3-3.3q0-.1 0 0zm.1 0zm4 4.1q-.6 0-1.2-.4-.6-.3-1-1-.2-.6-.2-1.5 0-.8.3-1.4.3-.7.9-1 .6-.4 1.3-.4.7 0 1.3.4.6.3.9 1 .3.6.3 1.4 0 .9-.3 1.5-.3.7-1 1-.5.4-1.2.4zm0-.7q.6 0 1-.3l.5-.8.2-1q0-1-.5-1.6-.4-.6-1.1-.6-.7 0-1.2.6-.4.6-.4 1.5 0 .6.2 1.1l.5.8q.4.3.9.3zm8.2-3.7l-.6-.5h-.5l-.8.1-.7.7q-.2.4-.2 1v3h-.9v-5.5h1l-.1 1q.2-.5.7-.8.5-.3 1-.3.9 0 1.5.6l-.4.7zm0 0zm-.1 0zm4.2 4.4q-1.2 0-2-.7-.6-.8-.6-2.1 0-1 .3-1.6.3-.6 1-1 .5-.3 1.2-.3 1 0 1.6.6.6.7.6 2v.4h-3.9q0 1 .6 1.5.5.5 1.3.5t1.4-.6l.5.5q-.7.8-2 .8zm1.2-3.4q0-.8-.3-1.2-.4-.5-1-.5-.7 0-1.1.5-.5.4-.6 1.2h3z" fill="#c45127"/><path d="M382 351.5l-.6-.2q-.2-.2-.2-.5t.2-.5q.2-.2.5-.2t.5.2q.3.2.3.5t-.3.5q-.2.2-.5.2zm0 3.8q-.4 0-.6-.2-.2-.2-.2-.5l.2-.4q.2-.3.5-.3t.5.3q.3.2.3.4 0 .3-.3.5-.2.2-.5.2z" fill="#0c60b2"/><path d="M394.2 350.3q.6 0 1.1.3.5.3.8 1 .3.5.3 1.2 0 .8-.3 1.4-.3.5-.8.8-.6.3-1.2.3-.7 0-1.3-.3-.6-.3-1-.8l.7-.5.7.7q.4.2 1 .2l.6-.2q.4-.2.6-.6l.2-1q0-.8-.5-1.3-.4-.5-1-.5l-.8.2-.7.5-.5-.2.3-3.8h3.7v.8h-3l-.2 2.1q.6-.3 1.3-.3zm-1.7 3.4q0-.1 0 0zm.2 0h-.1v-.1z" fill="#cd5a2b"/><path d="M399 356.9l.6-.7.2-.6v-.2l-.2-.2-.3-.3v-.2l.1-.5q.2-.2.5-.2.4 0 .6.2.3.3.3.8 0 .9-1.3 2.2l-.4-.3zm-59 14.4l-.6-.2q-.2-.2-.2-.5l.2-.4.5-.2q.3 0 .5.2l.2.4q0 .3-.2.5t-.5.2zm6 0l-.6-.2q-.2-.2-.2-.5l.2-.4.5-.2q.3 0 .5.2l.2.4q0 .3-.2.5t-.5.2zm6 0l-.6-.2q-.2-.2-.2-.5l.2-.4.5-.2q.3 0 .5.2l.2.4q0 .3-.2.5t-.5.2zm-14.3 15.8v-.7h.7q.8 0 1.1-.3.4-.3.4-1.1v-1q0-1.5 1-1.9-1-.4-1-1.8v-.8q0-1.3-1.2-1.3h-1v-.6h.8q2.2 0 2.2 2v.9q0 .7.2 1 .3.3.9.3h.2v.7h-.2q-.6 0-.9.3-.2.2-.2 1v1.2q0 .8-.2 1.3-.3.4-.8.6-.6.2-1.5.2h-.5z" fill="#0c60b2"/></g><g stroke="#96bee1"><path d="M375 273v29" fill="none"/><path d="M372 302l3 8 3-8z" fill="#96bee1"/></g><path d="M69.9 199.3V273m-2.2-78.8a3 3 0 1 1 4.3 4.3 3 3 0 0 1-4.3-4.3m2.2 78.8H375" stroke="#96bee1" fill="none"/><path d="M646.4 311h77.4v92.5h-77.4z" fill="#fff"/><path d="M646.4 311h77.4v92.5h-77.4z" stroke="#0c60b2" stroke-width=".9" fill="none"/><g font-size="12" font-family="Inconsolata"><path d="M651.6 341.1q-.9 0-1.4-.2-.6-.2-.9-.6-.2-.5-.2-1.3v-1.2q0-.8-.2-1-.3-.3-.8-.3h-.3v-.7h.3q.5 0 .8-.3.3-.3.3-1v-.9q0-2 2.1-2h.8v.6h-1q-1.1 0-1.1 1.3v.8q0 1.4-1 1.8 1 .4 1 1.9v1q0 .8.3 1.1.3.3 1.2.3h.6v.7h-.5z" fill="#0c60b2"/><path d="M662.6 352q1 .3 1.4.7.5.3.5.9 0 .7-.6 1.2t-1.7.5q-1.4 0-2.3-.8l.5-.9.7.8q.4.2 1.1.2.7 0 1-.2.4-.3.4-.7 0-.3-.3-.6l-1-.4q-2.1-.6-2.1-1.7 0-.7.5-1 .5-.4 1.5-.4.7 0 1.2.2.6.2 1 .6l-.5.6-.7-.5q-.5-.3-1-.3t-.8.2q-.4.2-.4.5t.4.6l1.2.5zm1.1-1h.1v.1zm.2 0v.1zm-3.4 2.6h-.1.1zm-.1 0zm8.3.9q.8 0 1.4-.6l.5.6q-.8.8-2 .8-.8 0-1.4-.3-.6-.4-1-1-.3-.7-.3-1.5 0-.9.3-1.5.4-.7 1-1 .6-.4 1.4-.4.7 0 1.2.3.5.2.9.7l-.6.6q-.3-.5-.7-.7-.4-.2-.9-.2t-.9.3q-.4.3-.6.7-.2.5-.2 1.1 0 .6.2 1.1.2.5.7.8.4.2 1 .2zm1.3-3.3q0-.1.1 0h-.1zm.1 0zm4.1 4.1q-.7 0-1.3-.4-.6-.3-1-1-.2-.6-.2-1.5 0-.8.3-1.4.3-.7.9-1 .6-.4 1.3-.4.7 0 1.3.4.6.3.9 1 .3.6.3 1.4 0 .9-.3 1.5-.3.7-.9 1-.6.4-1.3.4zm0-.7q.5 0 .8-.3.4-.3.6-.8l.2-1q0-1-.4-1.6-.5-.6-1.2-.6t-1.2.6q-.4.6-.4 1.5 0 .6.2 1.1.2.5.6.8.3.3.8.3zm8.1-3.7q-.3-.4-.6-.5h-.5l-.8.1-.7.7q-.2.4-.2 1v3h-.9v-5.5h1l-.1 1q.2-.5.7-.8.5-.3 1-.3 1 0 1.5.6l-.4.7zm0 0zm-.1 0zm4.3 4.4q-1.3 0-2-.7-.7-.8-.7-2.1 0-1 .3-1.6.4-.6 1-1 .5-.3 1.2-.3 1 0 1.6.6.6.7.6 2v.4h-3.9q0 1 .6 1.5.5.5 1.3.5t1.4-.6l.5.5q-.7.8-2 .8zm1.2-3.4q0-.8-.4-1.2-.4-.5-1-.5-.7 0-1.1.5-.4.4-.6 1.2h3z" fill="#c45127"/><path d="M692 351.5l-.4-.2q-.3-.2-.3-.5t.2-.5l.5-.2.6.2q.2.2.2.5t-.2.5l-.6.2zm0 3.8q-.3 0-.5-.2t-.2-.5l.2-.4q.3-.3.5-.3.3 0 .6.3l.2.4q0 .3-.2.5l-.6.2z" fill="#0c60b2"/><path d="M704.9 351.2l1 .7q.4.5.4 1.2 0 .6-.2 1.1-.3.5-.8.8-.5.3-1.2.3l-1.2-.2q-.5-.2-.9-.6l.6-.7.6.6q.3.2.8.2.7 0 1-.4.5-.4.5-1 0-.8-.5-1.2-.4-.4-1.3-.4h-.3v-.6q1 0 1.4-.4.4-.4.4-1.1 0-.5-.3-.8-.3-.3-.8-.3-.7 0-1.3.5l-.5-.5q.7-.7 1.8-.7 1 0 1.4.5.6.5.6 1.3 0 .6-.3 1.1-.3.5-1 .6zm-2.2 2.6zm-.1 0zm7.6-6.1q1.1 0 1.7 1 .6 1 .6 2.8 0 1.8-.6 2.8-.6 1-1.7 1t-1.7-1q-.6-1-.6-2.8 0-1.8.6-2.8.6-1 1.7-1zm0 .7q-.7 0-1 .8-.5.9-.5 2.3l.1 1.4 2.6-3.3q-.2-.6-.5-.9-.3-.3-.7-.3zm0 6.2q.7 0 1-.8.4-.8.4-2.3v-1.2l-2.6 3.2q.4 1.1 1.2 1.1z" fill="#cd5a2b"/><path d="M715.2 356.9l.5-.7.3-.6-.1-.2-.2-.2-.3-.3v-.2l.1-.5q.2-.2.5-.2.4 0 .6.2.3.3.3.8 0 .9-1.3 2.2l-.4-.3zM650 371.3l-.4-.2q-.2-.2-.2-.5l.2-.4.4-.2q.3 0 .5.2l.2.4q0 .3-.2.5t-.5.2zm6 0l-.4-.2q-.2-.2-.2-.5l.2-.4.4-.2q.3 0 .5.2l.2.4q0 .3-.2.5t-.5.2zm6 0l-.4-.2q-.2-.2-.2-.5l.2-.4.4-.2q.3 0 .5.2l.2.4q0 .3-.2.5t-.5.2zm-14.1 15.8v-.7h.6q.8 0 1.1-.3.4-.3.4-1.1v-1q0-1.5 1-1.9-1-.4-1-1.8v-.8q0-1.3-1.2-1.3h-1v-.6h.8q2.2 0 2.2 2v.9q0 .7.2 1 .3.3.9.3h.2v.7h-.2q-.6 0-.9.3-.2.2-.2 1v1.2q0 .8-.2 1.3-.3.4-.8.6-.6.2-1.5.2h-.4z" fill="#0c60b2"/></g><path d="M414 311h77.2v92.5H414z" fill="#fff"/><path d="M414 311h77.2v92.5H414z" stroke="#0c60b2" stroke-width=".9" fill="none"/><g font-size="12" font-family="Inconsolata"><path d="M419.1 341.1q-.9 0-1.5-.2-.5-.2-.8-.6-.3-.5-.2-1.3v-1.2q0-.8-.2-1-.3-.3-.9-.3h-.2v-.7h.2q.6 0 .9-.3.2-.3.2-1v-.9q0-2 2.2-2h.8v.6h-1q-1.1 0-1.1 1.3v.8q0 1.4-1 1.8 1 .4 1 1.9v1q0 .8.3 1.1.3.3 1.1.3h.6v.7h-.4z" fill="#0c60b2"/><path d="M430 352q1 .3 1.5.7.4.3.4.9 0 .7-.5 1.2-.6.5-1.7.5-1.4 0-2.4-.8l.5-.9.8.8q.4.2 1.1.2.6 0 1-.2.4-.3.4-.7 0-.3-.3-.6l-1-.4q-2.2-.6-2.2-1.7 0-.7.6-1 .5-.4 1.5-.4.7 0 1.2.2l1 .6-.5.6-.8-.5q-.4-.3-1-.3l-.8.2q-.3.2-.3.5t.3.6l1.3.5zm1.2-1h.1v.1zm.1 0v.1zm-3.3 2.6h-.1zm-.2 0zm8.3.9q.9 0 1.5-.6l.5.6q-.8.8-2 .8-.8 0-1.4-.3-.7-.4-1-1-.4-.7-.4-1.5 0-.9.4-1.5.3-.7 1-1 .6-.4 1.4-.4.6 0 1.2.3.5.2.8.7l-.5.6-.7-.7q-.4-.2-1-.2-.4 0-.8.3t-.6.7q-.3.5-.3 1.1 0 .6.3 1.1.2.5.6.8l1 .2zm1.4-3.3q0-.1 0 0zm.1 0zm4.1 4.1q-.8 0-1.3-.4-.6-.3-1-1-.3-.6-.3-1.5 0-.8.4-1.4.3-.7.9-1 .5-.4 1.3-.4.7 0 1.3.4.5.3.9 1 .3.6.3 1.4 0 .9-.3 1.5-.4.7-1 1-.5.4-1.2.4zm0-.7q.4 0 .8-.3t.6-.8l.2-1q0-1-.5-1.6-.4-.6-1.1-.6-.7 0-1.2.6t-.5 1.5q0 .6.2 1.1l.6.8q.4.3.9.3zm8.1-3.7l-.6-.5h-.6l-.8.1q-.4.3-.6.7-.2.4-.2 1v3h-1v-5.5h1v1q.2-.5.7-.8.4-.3 1-.3.9 0 1.5.6l-.4.7zm0 0zm-.2 0h.2-.2zm4.4 4.4q-1.3 0-2-.7-.7-.8-.7-2.1 0-1 .3-1.6.3-.6.9-1 .6-.3 1.3-.3 1 0 1.6.6.6.7.6 2v.4h-4q.1 1 .6 1.5.6.5 1.4.5.8 0 1.4-.6l.4.5q-.6.8-1.9.8zm1.1-3.4q0-.8-.4-1.2-.4-.5-1-.5t-1 .5q-.5.4-.6 1.2h3z" fill="#c45127"/><path d="M459.5 351.5q-.3 0-.5-.2t-.2-.5q0-.3.2-.5t.5-.2q.3 0 .5.2t.2.5q0 .3-.2.5t-.5.2zm0 3.8q-.3 0-.5-.2t-.2-.5l.2-.4q.2-.3.5-.3t.5.3l.2.4q0 .3-.2.5t-.5.2z" fill="#0c60b2"/><path d="M472.5 355.2v-1.8h-3.3v-.7l3.5-5h.7v5h1v.7h-1v1.8h-1zm-2.3-2.5h2.3v-3.5l-2.3 3.5zm7.5-5q1 0 1.7 1 .6 1 .6 2.8 0 1.8-.6 2.8-.6 1-1.7 1-1.2 0-1.8-1-.6-1-.6-2.8 0-1.8.6-2.8.7-1 1.8-1zm0 .7q-.7 0-1.1.8-.4.9-.4 2.3l.1 1.4 2.6-3.3q-.2-.6-.5-.9-.3-.3-.7-.3zm0 6.2q.6 0 1-.8t.4-2.3v-1.2l-2.6 3.2q.4 1.1 1.2 1.1z" fill="#cd5a2b"/><path d="M482.6 356.9l.6-.7.2-.6v-.2l-.3-.2-.2-.3v-.2l.1-.5q.2-.2.5-.2l.6.2q.2.3.2.8 0 .9-1.2 2.2l-.5-.3zm-65.1 14.4q-.3 0-.5-.2t-.2-.5l.2-.4q.2-.2.5-.2t.5.2l.2.4q0 .3-.2.5t-.5.2zm6 0q-.3 0-.5-.2t-.2-.5l.2-.4q.2-.2.5-.2t.5.2l.2.4q0 .3-.2.5t-.5.2zm6 0q-.3 0-.5-.2t-.2-.5l.2-.4q.2-.2.5-.2t.5.2l.2.4q0 .3-.2.5t-.5.2zm-14.2 15.8v-.7h.6q.9 0 1.2-.3.3-.3.3-1.1v-1q0-1.5 1-1.9-1-.4-1-1.8v-.8q0-1.3-1.1-1.3h-1v-.6h.8q2.2 0 2.2 2v.9q0 .7.2 1 .3.3.8.3h.3v.7h-.3q-.5 0-.8.3-.2.2-.2 1v1.2q0 .8-.2 1.3-.3.4-.9.6-.5.2-1.4.2h-.5z" fill="#0c60b2"/></g><path d="M491.8 311h77.4v92.5h-77.4z" fill="#fff"/><path d="M491.8 311h77.4v92.5h-77.4z" stroke="#0c60b2" stroke-width=".9" fill="none"/><g font-size="12" font-family="Inconsolata"><path d="M497 341.1q-.9 0-1.4-.2-.6-.2-.9-.6-.2-.5-.2-1.3v-1.2q0-.8-.2-1-.3-.3-.8-.3h-.3v-.7h.2q.6 0 .9-.3.3-.3.3-1v-.9q0-2 2.1-2h.8v.6h-1q-1.1 0-1.1 1.3v.8q0 1.4-1 1.8 1 .4 1 1.9v1q0 .8.3 1.1.3.3 1.2.3h.6v.7h-.5z" fill="#0c60b2"/><path d="M508 352q1 .3 1.4.7.5.3.5.9 0 .7-.6 1.2t-1.7.5q-1.4 0-2.3-.8l.4-.9.8.8q.4.2 1.1.2.7 0 1-.2.4-.3.4-.7 0-.3-.3-.6l-1-.4q-2.1-.6-2.1-1.7 0-.7.5-1 .5-.4 1.5-.4.7 0 1.2.2l1 .6-.5.6-.8-.5q-.4-.3-.9-.3t-.8.2q-.4.2-.4.5t.4.6l1.2.5zm1.1-1h.1v.1zm.2 0v.1zm-3.4 2.6h-.1zm-.1 0zm8.2.9q.9 0 1.5-.6l.5.6q-.8.8-2 .8-.8 0-1.4-.3-.6-.4-1-1-.3-.7-.3-1.5 0-.9.3-1.5.4-.7 1-1 .6-.4 1.4-.4.7 0 1.2.3.5.2.9.7l-.6.6q-.3-.5-.7-.7-.4-.2-1-.2-.4 0-.8.3t-.6.7q-.3.5-.3 1.1 0 .6.3 1.1.2.5.7.8.4.2 1 .2zm1.4-3.3q0-.1 0 0zm.1 0zm4.1 4.1q-.7 0-1.3-.4-.6-.3-1-1-.2-.6-.2-1.5 0-.8.3-1.4.3-.7.9-1 .6-.4 1.3-.4.7 0 1.3.4.6.3.9 1 .3.6.3 1.4 0 .9-.3 1.5-.3.7-1 1-.5.4-1.2.4zm0-.7q.5 0 .8-.3.4-.3.6-.8l.2-1q0-1-.5-1.6-.4-.6-1.1-.6-.7 0-1.2.6-.4.6-.4 1.5 0 .6.2 1.1l.5.8q.4.3.9.3zm8.1-3.7l-.6-.5h-.5l-.8.1-.7.7q-.2.4-.2 1v3h-.9v-5.5h1l-.1 1q.2-.5.7-.8.5-.3 1-.3.9 0 1.5.6l-.4.7zm0 0zm-.1 0zm4.2 4.4q-1.2 0-2-.7-.6-.8-.6-2.1 0-1 .3-1.6.3-.6 1-1 .5-.3 1.2-.3 1 0 1.6.6.6.7.6 2v.4H530q0 1 .6 1.5.5.5 1.3.5t1.4-.6l.5.5q-.7.8-2 .8zm1.2-3.4q0-.8-.3-1.2-.4-.5-1-.5-.7 0-1.1.5-.5.4-.6 1.2h3z" fill="#c45127"/><path d="M537.4 351.5l-.5-.2q-.2-.2-.2-.5t.2-.5q.2-.2.5-.2t.5.2q.3.2.3.5t-.3.5q-.2.2-.5.2zm0 3.8q-.3 0-.5-.2t-.2-.5l.2-.4q.2-.3.5-.3t.5.3q.3.2.3.4 0 .3-.3.5-.2.2-.5.2z" fill="#0c60b2"/><path d="M549.3 355.2v-6.4l-1.5.4-.2-.5 2-1h.6v7.5h-.9zm6.3.1q-.7 0-1.2-.2-.5-.3-.8-.8-.3-.4-.3-1t.4-1.2q.4-.6 1.1-.9-.5-.2-.8-.7-.3-.5-.3-1 0-.8.5-1.3.5-.6 1.4-.6 1 0 1.5.5t.5 1.3q0 .5-.3 1t-.9.8q.7.3 1 .9.5.5.5 1.2 0 .5-.3 1t-.8.8q-.5.2-1.2.2zm.2-4.4l.7-.6q.3-.5.3-.9t-.3-.7q-.3-.4-.9-.4-.5 0-.8.3-.3.3-.3.8t.3.8l1 .7zm-.2 3.7q.7 0 1-.4.4-.4.4-1 0-.5-.4-1-.4-.4-1.2-.6-.5.2-.9.6-.3.5-.3 1 0 .6.4 1 .3.4 1 .4z" fill="#cd5a2b"/><path d="M560.6 356.9l.5-.7.2-.6v-.2l-.2-.2-.3-.3v-.2l.1-.5q.2-.2.5-.2.4 0 .6.2.3.3.3.8 0 .9-1.3 2.2l-.4-.3zm-65.2 14.4l-.5-.2q-.2-.2-.2-.5l.2-.4.5-.2q.3 0 .5.2l.2.4q0 .3-.2.5t-.5.2zm6 0l-.5-.2q-.2-.2-.2-.5l.2-.4.5-.2q.3 0 .5.2l.2.4q0 .3-.2.5t-.5.2zm6 0l-.5-.2q-.2-.2-.2-.5l.2-.4.5-.2q.3 0 .5.2l.2.4q0 .3-.2.5t-.5.2zm-14.2 15.8v-.7h.7q.8 0 1.1-.3.4-.3.4-1.1v-1q0-1.5 1-1.9-1-.4-1-1.8v-.8q0-1.3-1.2-1.3h-1v-.6h.8q2.2 0 2.2 2v.9q0 .7.2 1 .3.3.9.3h.2v.7h-.2q-.6 0-.9.3-.2.2-.2 1v1.2q0 .8-.2 1.3-.3.4-.8.6-.6.2-1.5.2h-.5z" fill="#0c60b2"/></g><g stroke="#b9d3eb"><path d="M530.5 261.7v40.2" fill="none"/><path d="M527.5 302l3 8 3-8z" fill="#b9d3eb"/></g><path d="M568.6 311h77.3v92.5h-77.3z" fill="#fff"/><path d="M568.6 311h77.3v92.5h-77.3z" stroke="#0c60b2" stroke-width=".9" fill="none"/><path d="M580.3 369.3q-.3 0-.5-.2t-.2-.5l.2-.4q.2-.2.5-.2t.5.2l.2.4q0 .3-.2.5t-.5.2zm6 0q-.3 0-.5-.2t-.2-.5l.2-.4q.2-.2.5-.2t.5.2l.2.4q0 .3-.2.5t-.5.2zm6 0q-.3 0-.5-.2t-.2-.5l.2-.4q.2-.2.5-.2t.5.2l.2.4q0 .3-.2.5t-.5.2z" font-size="12" font-family="Inconsolata" fill="#0c60b2"/><path d="M352.4 443.2q-1.5 0-2.4-1.1-1-1.2-.9-3.4v-5.3h1.5v5.3q0 1.7.6 2.5t1.6.8q1 0 1.8-.9.8-.8.8-2.4v-5.3h1.4v9l.2.6h-1.4l-.2-.7v-.8q-.5.8-1.3 1.2-.8.5-1.7.5zm11.8-5.9q1.8.6 2.5 1.2.8.6.8 1.7 0 1.3-1 2.1-1 .9-3 .9-2.4 0-4-1.5l.8-1.5q.7.9 1.4 1.3t1.9.4q1.1 0 1.8-.4.6-.4.6-1.1 0-.6-.5-1t-2-.9q-3.5-1-3.5-3 0-1 .9-1.7t2.6-.7q1.3 0 2.2.4.9.4 1.6 1.1l-.8 1v.1q-.5-.7-1.3-1-.8-.4-1.7-.4-.9 0-1.4.3-.6.3-.6.9 0 .5.6 1 .6.4 2.1.8zm2-1.5q0-.1.2 0h-.2zm.2 0q.1 0 0 0zm-5.9 4.3q0 .1-.1 0h.1zm-.2.1v-.1.1zm14.2 3q-2.2 0-3.5-1.3-1.2-1.3-1.2-3.7 0-1.6.6-2.7.6-1.2 1.5-1.8 1-.6 2.3-.6 1.7 0 2.8 1.2 1.1 1.1 1.1 3.4v.7h-6.9q.1 1.7 1 2.6 1 1 2.3 1 1.5 0 2.5-1.1l.8.8q-1.2 1.5-3.3 1.5zm2-6q0-1.3-.6-2.1-.7-.8-1.8-.8-1 0-1.8.7-.8.8-1 2.2h5.3zm11.7-1.8l-1-.8q-.4-.2-1-.2-.7 0-1.4.4t-1.1 1.2q-.4.7-.4 1.9v5h-1.5v-9.5h1.5v1.7q.4-1 1.2-1.4.8-.6 1.8-.6 1.6 0 2.6 1l-.7 1.3zm0 0q.1.1 0 0zm-.2 0h.2v.1h-.2zm7.7 1.9q1.8.6 2.5 1.2.8.6.8 1.7 0 1.3-1 2.1-1 .9-3 .9-2.4 0-4-1.5l.8-1.5q.7.9 1.4 1.3t1.9.4q1.1 0 1.8-.4.6-.4.6-1.1 0-.6-.5-1t-2-.9q-3.5-1-3.5-3 0-1 .9-1.7t2.6-.7q1.3 0 2.2.4.9.4 1.6 1.1l-.8 1v.1q-.5-.7-1.3-1-.8-.4-1.7-.4-.9 0-1.4.3-.6.3-.6.9 0 .5.6 1 .6.4 2.1.8zm2-1.5q0-.1.2 0h-.2zm.2 0q.1 0 0 0zM392 440q0 .1-.1 0h.1zm-.2.1v-.1.1z" font-size="21" font-family="Inconsolata" fill="#315480"/><path d="M158.5 199l1.2 62.7m-3.4-67.7a3 3 0 1 1 4.3 4 3 3 0 0 1-4.3-4m76.9 5.3V285m-2.2-90.8a3 3 0 1 1 4.3 4.3 3 3 0 0 1-4.3-4.3M67 285h166.2M159 261.7h371.5" stroke="#96bee1" fill="none"/></svg>