<?xml version="1.0" encoding="UTF-8"?>
<!DOCTYPE svg PUBLIC "-//W3C//DTD SVG 1.1//EN" "http://www.w3.org/Graphics/SVG/1.1/DTD/svg11.dtd">
<svg version="1.1" xmlns="http://www.w3.org/2000/svg" xmlns:xlink="http://www.w3.org/1999/xlink" x="0px" y="0px" width="910" height="460" viewBox="0, 0, 910, 460">
  <g id="Layer 1">
    <path d="M32.405,183.596 L692.405,183.596 L692.405,203.254 L32.405,203.254 z" fill="#1F66AF"/>
    <path d="M32.905,179.845 L32.905,217.004" fill-opacity="0" stroke="#B0C8DB" stroke-width="1" stroke-dasharray="2,2"/>
    <path d="M162.04,179.845 L162.04,217.004" fill-opacity="0" stroke="#B0C8DB" stroke-width="1" stroke-dasharray="2,2"/>
    <path d="M277.237,179.845 L277.237,217.004" fill-opacity="0" stroke="#B0C8DB" stroke-width="1" stroke-dasharray="2,2"/>
    <path d="M442.413,179.845 L442.413,217.004" fill-opacity="0" stroke="#B0C8DB" stroke-width="1" stroke-dasharray="2,2"/>
    <path d="M630.841,179.845 L630.841,217.004" fill-opacity="0" stroke="#B0C8DB" stroke-width="1" stroke-dasharray="2,2"/>
    <path d="M692.905,179.845 L692.905,217.004" fill-opacity="0" stroke="#B0C8DB" stroke-width="1" stroke-dasharray="2,2"/>
    <text transform="matrix(1, 0, 0, 1, 35.405, 232.824)">
      <tspan x="-15.75" y="2.734" font-family="Inconsolata" font-size="21" fill="#CD5A2B">min</tspan>
    </text>
    <text transform="matrix(1, 0, 0, 1, 152.69, 201.348)"/>
    <text transform="matrix(1, -0.018, 0.018, 1, 160.524, 230.077)">
      <tspan x="-10.5" y="5.5" font-family="Inconsolata" font-size="21" fill="#CD5A2B">18</tspan>
    </text>
    <text transform="matrix(1, 0, 0, 1, 276.604, 230.058)">
      <tspan x="-10.5" y="5.5" font-family="Inconsolata" font-size="21" fill="#CD5A2B">30</tspan>
    </text>
    <text transform="matrix(1, 0, 0, 1, 441.06, 230.058)">
      <tspan x="-10.5" y="5.5" font-family="Inconsolata" font-size="21" fill="#CD5A2B">45</tspan>
    </text>
    <text transform="matrix(1, 0, 0, 1, 630.112, 230.058)">
      <tspan x="-10.5" y="5.5" font-family="Inconsolata" font-size="21" fill="#CD5A2B">75</tspan>
    </text>
    <text transform="matrix(1, 0, 0, 1, 689.238, 229.696)">
      <tspan x="-15.75" y="4.808" font-family="Inconsolata" font-size="21" fill="#CD5A2B">max</tspan>
    </text>
    <path d="M32.788,176.022 L276.734,176.022 L276.734,210.827 L32.788,210.827 z" fill="#2476C0" opacity="0.48"/>
    <text transform="matrix(1, 0, 0, 1, 391.684, 88.941)">
      <tspan x="-385.348" y="-5.5" font-family="Inconsolata" font-size="24" fill="#133A80">db.users.find( { score: { "$lt": </tspan>
      <tspan x="10.652" y="-5.5" font-family="Inconsolata" font-size="24" fill="#CD5A2B">30 </tspan>
      <tspan x="46.652" y="-5.5" font-family="Inconsolata" font-size="24" fill="#133A80">} } ).sort( { score: -1 } )</tspan>
    </text>
    <text transform="matrix(1, 0, 0, 1, 97.755, 24.293)">
      <tspan x="-50.631" y="7.5" font-family="GillSans" font-size="24" fill="#468BBE">Collection</tspan>
    </text>
    <g>
      <path d="M91.265,39.293 L91.265,54.941" fill-opacity="0" stroke="#468BBE" stroke-width="1"/>
      <path d="M88.265,54.941 L91.265,62.941 L94.265,54.941 z" fill="#468BBE" fill-opacity="1" stroke="#468BBE" stroke-width="1" stroke-opacity="1"/>
    </g>
    <text transform="matrix(1, 0, 0, 1, 338.21, 24.293)">
      <tspan x="-73.453" y="7.5" font-family="GillSans" font-size="24" fill="#468BBE">Query Criteria</tspan>
    </text>
    <path d="M208.62,60.598 L494.62,60.598 L494.62,100.043 L208.62,100.043 z" fill="#2476C0" opacity="0.3"/>
    <g>
      <path d="M345.312,38.77 L345.312,54.418" fill-opacity="0" stroke="#468BBE" stroke-width="1"/>
      <path d="M342.312,54.418 L345.312,62.418 L348.312,54.418 z" fill="#468BBE" fill-opacity="1" stroke="#468BBE" stroke-width="1" stroke-opacity="1"/>
    </g>
    <path d="M33.288,176.938 L209.12,100.543" fill-opacity="0" stroke="#96BEE1" stroke-width="1"/>
    <path d="M277.234,176.938 L490.121,100.543" fill-opacity="0" stroke="#96BEE1" stroke-width="1"/>
    <text transform="matrix(1, 0, 0, 1, 808.202, 193.845)">
      <tspan x="-93.798" y="4.5" font-family="Inconsolata" font-size="21" fill="#123A80">{ </tspan>
      <tspan x="-72.798" y="4.5" font-family="Inconsolata" font-size="21" fill="#CD5A2B">score</tspan>
      <tspan x="-20.298" y="4.5" font-family="Inconsolata" font-size="21" fill="#123A80">: 1 } </tspan>
      <tspan x="42.702" y="4.5" font-family="GillSans" font-size="21" fill="#123A80">Index</tspan>
    </text>
    <g>
      <g>
        <g>
          <path d="M31.308,310.939 L108.638,310.939 L108.638,403.451 L31.308,403.451 z" fill="#FFFFFF"/>
          <path d="M31.308,310.939 L108.638,310.939 L108.638,403.451 L31.308,403.451 z" fill-opacity="0" stroke="#0C60B2" stroke-width="0.929"/>
        </g>
        <text transform="matrix(1, 0, 0, 1, 70.097, 364.695)">
          <tspan x="-38.041" y="-25.5" font-family="Inconsolata" font-size="12" fill="#0C60B2"> {</tspan>
          <tspan x="-38.041" y="-9.5" font-family="GillSans" font-size="12" fill="#0C60B2"> </tspan>
          <tspan x="-34.707" y="-9.5" font-family="Inconsolata" font-size="12" fill="#0C60B2"> </tspan>
          <tspan x="-28.707" y="-9.5" font-family="Inconsolata" font-size="12" fill="#C45127">score</tspan>
          <tspan x="1.293" y="-9.5" font-family="Inconsolata" font-size="12" fill="#0C60B2">: </tspan>
          <tspan x="13.293" y="-9.5" font-family="Inconsolata" font-size="12" fill="#C55127">25</tspan>
          <tspan x="25.293" y="-9.5" font-family="Inconsolata" font-size="12" fill="#0C60B2">,</tspan>
          <tspan x="-38.041" y="5.5" font-family="Inconsolata" font-size="12" fill="#0C60B2">  ...</tspan>
          <tspan x="-38.041" y="19.5" font-family="Inconsolata" font-size="12" fill="#0C60B2"> }</tspan>
        </text>
      </g>
      <g>
        <path d="M69.973,285 L69.973,301.939" fill-opacity="0" stroke="#96BEE1" stroke-width="1"/>
        <path d="M66.973,301.939 L69.973,309.939 L72.973,301.939 z" fill="#96BEE1" fill-opacity="1" stroke="#96BEE1" stroke-width="1" stroke-opacity="1"/>
      </g>
    </g>
    <g>
      <g>
        <path d="M184.927,310.939 L262.257,310.939 L262.257,403.451 L184.927,403.451 z" fill="#FFFFFF"/>
        <path d="M184.927,310.939 L262.257,310.939 L262.257,403.451 L184.927,403.451 z" fill-opacity="0" stroke="#0C60B2" stroke-width="0.929"/>
      </g>
      <text transform="matrix(1, 0, 0, 1, 223.092, 363.695)">
        <tspan x="-37.418" y="-24.5" font-family="Inconsolata" font-size="12" fill="#0C60B2"> {</tspan>
        <tspan x="-37.418" y="-8.5" font-family="Inconsolata" font-size="12" fill="#0C60B2">  </tspan>
        <tspan x="-25.418" y="-8.5" font-family="Inconsolata" font-size="12" fill="#C45127">score</tspan>
        <tspan x="4.582" y="-8.5" font-family="Inconsolata" font-size="12" fill="#0C60B2">: </tspan>
        <tspan x="16.582" y="-8.5" font-family="Inconsolata" font-size="12" fill="#CD5A2B">45</tspan>
        <tspan x="28.582" y="-8.5" font-family="Inconsolata" font-size="12" fill="#0C60B2">,</tspan>
        <tspan x="-37.418" y="7.5" font-family="Inconsolata" font-size="12" fill="#0C60B2">  ...</tspan>
        <tspan x="-37.418" y="21.5" font-family="Inconsolata" font-size="12" fill="#0C60B2"> }</tspan>
      </text>
    </g>
    <g>
      <g>
        <path d="M108.638,310.939 L184.927,310.939 L184.927,403.451 L108.638,403.451 z" fill="#FFFFFF"/>
        <path d="M108.638,310.939 L184.927,310.939 L184.927,403.451 L108.638,403.451 z" fill-opacity="0" stroke="#0C60B2" stroke-width="0.929"/>
      </g>
      <text transform="matrix(1, 0, 0, 1, 146.898, 364.695)">
        <tspan x="-37.529" y="-25.5" font-family="Inconsolata" font-size="12" fill="#0C60B2"> {</tspan>
        <tspan x="-37.529" y="-9.5" font-family="Inconsolata" font-size="12" fill="#0C60B2">  </tspan>
        <tspan x="-25.529" y="-9.5" font-family="Inconsolata" font-size="12" fill="#C45127">score</tspan>
        <tspan x="4.471" y="-9.5" font-family="Inconsolata" font-size="12" fill="#0C60B2">: </tspan>
        <tspan x="16.471" y="-9.5" font-family="Inconsolata" font-size="12" fill="#CD5A2B">56</tspan>
        <tspan x="28.471" y="-9.5" font-family="Inconsolata" font-size="12" fill="#0C60B2">,</tspan>
        <tspan x="-37.529" y="6.5" font-family="Inconsolata" font-size="12" fill="#0C60B2">  ...</tspan>
        <tspan x="-37.529" y="20.5" font-family="Inconsolata" font-size="12" fill="#0C60B2"> }</tspan>
      </text>
    </g>
    <g>
      <g>
        <path d="M262.257,310.939 L339.587,310.939 L339.587,403.451 L262.257,403.451 z" fill="#FFFFFF"/>
        <path d="M262.257,310.939 L339.587,310.939 L339.587,403.451 L262.257,403.451 z" fill-opacity="0" stroke="#0C60B2" stroke-width="0.929"/>
      </g>
      <text transform="matrix(1, 0, 0, 1, 300.422, 363.695)">
        <tspan x="-37.418" y="-24.5" font-family="Inconsolata" font-size="12" fill="#0C60B2"> {</tspan>
        <tspan x="-37.418" y="-8.5" font-family="Inconsolata" font-size="12" fill="#0C60B2">  </tspan>
        <tspan x="-25.418" y="-8.5" font-family="Inconsolata" font-size="12" fill="#C45127">score</tspan>
        <tspan x="4.582" y="-8.5" font-family="Inconsolata" font-size="12" fill="#0C60B2">: </tspan>
        <tspan x="16.582" y="-8.5" font-family="Inconsolata" font-size="12" fill="#C45129">75</tspan>
        <tspan x="28.582" y="-8.5" font-family="Inconsolata" font-size="12" fill="#0C60B2">,</tspan>
        <tspan x="-37.418" y="7.5" font-family="Inconsolata" font-size="12" fill="#0C60B2">  ...</tspan>
        <tspan x="-37.418" y="21.5" font-family="Inconsolata" font-size="12" fill="#0C60B2"> }</tspan>
      </text>
    </g>
    <g>
      <g>
        <path d="M339.335,310.939 L416.665,310.939 L416.665,403.451 L339.335,403.451 z" fill="#FFFFFF"/>
        <path d="M339.335,310.939 L416.665,310.939 L416.665,403.451 L339.335,403.451 z" fill-opacity="0" stroke="#0C60B2" stroke-width="0.929"/>
      </g>
      <text transform="matrix(1, 0, 0, 1, 377.5, 357.695)">
        <tspan x="-37.418" y="-18.5" font-family="Inconsolata" font-size="12" fill="#0C60B2"> {</tspan>
        <tspan x="-37.418" y="-2.5" font-family="Inconsolata" font-size="12" fill="#0C60B2">  </tspan>
        <tspan x="-25.418" y="-2.5" font-family="Inconsolata" font-size="12" fill="#C45127">score</tspan>
        <tspan x="4.582" y="-2.5" font-family="Inconsolata" font-size="12" fill="#0C60B2">: </tspan>
        <tspan x="16.582" y="-2.5" font-family="Inconsolata" font-size="12" fill="#CD5A2B">5</tspan>
        <tspan x="22.582" y="-2.5" font-family="Inconsolata" font-size="12" fill="#0C60B2">,</tspan>
        <tspan x="-37.418" y="13.5" font-family="Inconsolata" font-size="12" fill="#0C60B2">  ...</tspan>
        <tspan x="-37.418" y="27.5" font-family="Inconsolata" font-size="12" fill="#0C60B2"> }</tspan>
      </text>
    </g>
    <g>
      <path d="M378,273 L378,301.939" fill-opacity="0" stroke="#96BEE1" stroke-width="1"/>
      <path d="M375,301.939 L378,309.939 L381,301.939 z" fill="#96BEE1" fill-opacity="1" stroke="#96BEE1" stroke-width="1" stroke-opacity="1"/>
    </g>
    <g>
      <path d="M72.851,199.333 L72.851,273" fill-opacity="0" stroke="#96BEE1" stroke-width="1"/>
      <path d="M70.729,194.212 C71.901,193.04 73.8,193.04 74.972,194.212 C76.143,195.384 76.143,197.283 74.972,198.455 C73.8,199.626 71.901,199.626 70.729,198.455 C69.558,197.283 69.558,195.384 70.729,194.212" fill-opacity="0" stroke="#96BEE1" stroke-width="1" stroke-opacity="1"/>
    </g>
    <path d="M72.851,273 L378,273" fill-opacity="0" stroke="#96BEE1" stroke-width="1"/>
    <g>
      <g>
        <path d="M649.446,310.939 L726.776,310.939 L726.776,403.451 L649.446,403.451 z" fill="#FFFFFF"/>
        <path d="M649.446,310.939 L726.776,310.939 L726.776,403.451 L649.446,403.451 z" fill-opacity="0" stroke="#0C60B2" stroke-width="0.929"/>
      </g>
      <text transform="matrix(1, 0, 0, 1, 687.611, 364.195)">
        <tspan x="-37.418" y="-25" font-family="Inconsolata" font-size="12" fill="#0C60B2"> {</tspan>
        <tspan x="-37.418" y="-9" font-family="Inconsolata" font-size="12" fill="#0C60B2">  </tspan>
        <tspan x="-25.418" y="-9" font-family="Inconsolata" font-size="12" fill="#C45127">score</tspan>
        <tspan x="4.582" y="-9" font-family="Inconsolata" font-size="12" fill="#0C60B2">: </tspan>
        <tspan x="16.582" y="-9" font-family="Inconsolata" font-size="12" fill="#CD5A2B">30</tspan>
        <tspan x="28.582" y="-9" font-family="Inconsolata" font-size="12" fill="#0C60B2">,</tspan>
        <tspan x="-37.418" y="7" font-family="Inconsolata" font-size="12" fill="#0C60B2">  ...</tspan>
        <tspan x="-37.418" y="21" font-family="Inconsolata" font-size="12" fill="#0C60B2"> }</tspan>
      </text>
    </g>
    <g>
      <g>
        <path d="M416.917,310.939 L494.247,310.939 L494.247,403.451 L416.917,403.451 z" fill="#FFFFFF"/>
        <path d="M416.917,310.939 L494.247,310.939 L494.247,403.451 L416.917,403.451 z" fill-opacity="0" stroke="#0C60B2" stroke-width="0.929"/>
      </g>
      <text transform="matrix(1, 0, 0, 1, 455.082, 363.695)">
        <tspan x="-37.418" y="-24.5" font-family="Inconsolata" font-size="12" fill="#0C60B2"> {</tspan>
        <tspan x="-37.418" y="-8.5" font-family="Inconsolata" font-size="12" fill="#0C60B2">  </tspan>
        <tspan x="-25.418" y="-8.5" font-family="Inconsolata" font-size="12" fill="#C45127">score</tspan>
        <tspan x="4.582" y="-8.5" font-family="Inconsolata" font-size="12" fill="#0C60B2">: </tspan>
        <tspan x="16.582" y="-8.5" font-family="Inconsolata" font-size="12" fill="#CD5A2B">40</tspan>
        <tspan x="28.582" y="-8.5" font-family="Inconsolata" font-size="12" fill="#0C60B2">,</tspan>
        <tspan x="-37.418" y="7.5" font-family="Inconsolata" font-size="12" fill="#0C60B2">  ...</tspan>
        <tspan x="-37.418" y="21.5" font-family="Inconsolata" font-size="12" fill="#0C60B2"> }</tspan>
      </text>
    </g>
    <g>
      <g>
        <g>
          <path d="M494.835,310.939 L572.165,310.939 L572.165,403.451 L494.835,403.451 z" fill="#FFFFFF"/>
          <path d="M494.835,310.939 L572.165,310.939 L572.165,403.451 L494.835,403.451 z" fill-opacity="0" stroke="#0C60B2" stroke-width="0.929"/>
        </g>
        <text transform="matrix(1, 0, 0, 1, 533, 357.695)">
          <tspan x="-37.418" y="-18.5" font-family="Inconsolata" font-size="12" fill="#0C60B2"> {</tspan>
          <tspan x="-37.418" y="-2.5" font-family="Inconsolata" font-size="12" fill="#0C60B2">  </tspan>
          <tspan x="-25.418" y="-2.5" font-family="Inconsolata" font-size="12" fill="#C45127">score</tspan>
          <tspan x="4.582" y="-2.5" font-family="Inconsolata" font-size="12" fill="#0C60B2">: </tspan>
          <tspan x="16.582" y="-2.5" font-family="Inconsolata" font-size="12" fill="#CD5A2B">18</tspan>
          <tspan x="28.582" y="-2.5" font-family="Inconsolata" font-size="12" fill="#0C60B2">,</tspan>
          <tspan x="-37.418" y="13.5" font-family="Inconsolata" font-size="12" fill="#0C60B2">  ...</tspan>
          <tspan x="-37.418" y="27.5" font-family="Inconsolata" font-size="12" fill="#0C60B2"> }</tspan>
        </text>
      </g>
      <g>
        <path d="M533.5,261.667 L533.5,301.939" fill-opacity="0" stroke="#B9D3EB" stroke-width="1"/>
        <path d="M530.5,301.939 L533.5,309.939 L536.5,301.939 z" fill="#B9D3EB" fill-opacity="1" stroke="#B9D3EB" stroke-width="1" stroke-opacity="1"/>
      </g>
    </g>
    <g>
      <path d="M571.577,310.939 L648.907,310.939 L648.907,403.451 L571.577,403.451 z" fill="#FFFFFF"/>
      <path d="M571.577,310.939 L648.907,310.939 L648.907,403.451 L571.577,403.451 z" fill-opacity="0" stroke="#0C60B2" stroke-width="0.929"/>
    </g>
    <text transform="matrix(1, 0, 0, 1, 609.742, 356.695)">
      <tspan x="-29.311" y="12.5" font-family="Inconsolata" font-size="12" fill="#0C60B2">   ...</tspan>
    </text>
    <text transform="matrix(1, 0, 0, 1, 381.208, 437.458)">
      <tspan x="-30.456" y="5.5" font-family="Inconsolata" font-size="21" fill="#315480">users</tspan>
    </text>
    <g>
      <path d="M161.517,199.005 L162.674,261.661" fill-opacity="0" stroke="#96BEE1" stroke-width="1"/>
      <path d="M159.301,193.924 C160.451,192.731 162.35,192.695 163.543,193.845 C164.736,194.995 164.771,196.894 163.621,198.087 C162.472,199.28 160.572,199.315 159.379,198.165 C158.186,197.016 158.151,195.117 159.301,193.924" fill-opacity="0" stroke="#96BEE1" stroke-width="1" stroke-opacity="1"/>
    </g>
    <g>
      <path d="M236.167,199.333 L236.167,285" fill-opacity="0" stroke="#96BEE1" stroke-width="1"/>
      <path d="M234.045,194.212 C235.217,193.04 237.116,193.04 238.288,194.212 C239.46,195.384 239.46,197.283 238.288,198.455 C237.116,199.626 235.217,199.626 234.045,198.455 C232.874,197.283 232.874,195.384 234.045,194.212" fill-opacity="0" stroke="#96BEE1" stroke-width="1" stroke-opacity="1"/>
    </g>
    <path d="M69.973,285 L236.167,285" fill-opacity="0" stroke="#96BEE1" stroke-width="1"/>
    <path d="M162.04,261.667 L533.5,261.667" fill-opacity="0" stroke="#96BEE1" stroke-width="1"/>
    <text transform="matrix(1, 0, 0, 1, 653.885, 24.293)">
      <tspan x="-52.248" y="7.5" font-family="GillSans" font-size="24" fill="#468BBE">Sort order</tspan>
    </text>
    <g>
      <path d="M660.986,38.77 L660.986,54.418" fill-opacity="0" stroke="#468BBE" stroke-width="1"/>
      <path d="M657.986,54.418 L660.986,62.418 L663.986,54.418 z" fill="#468BBE" fill-opacity="1" stroke="#468BBE" stroke-width="1" stroke-opacity="1"/>
    </g>
  </g>
  <defs/>
</svg>
