<svg xmlns="http://www.w3.org/2000/svg" xmlns:xlink="http://www.w3.org/1999/xlink" xmlns:lucid="lucid" width="1520" height="668.29"><g transform="translate(-280 -140)" lucid:page-tab-id="0_0"><path d="M0 0h1870.87v1322.83H0z" fill="#fff"/><path d="M759.66 163.17c-1.14.1-2.05.34-2.96.8l-39.44 19.43c-2.16 1.02-3.64 2.84-4.1 5.23l-9.77 43.76c-.47 2.04-.13 4.08 1 5.9.13.23.24.34.47.57l27.28 35c1.48 1.94 3.52 2.97 5.9 2.97h43.9c2.38 0 4.42-1.03 5.9-2.96l27.28-35c1.48-1.94 2.05-4.2 1.48-6.6l-9.77-43.65c-.45-2.4-1.93-4.2-4.1-5.23l-39.43-19.44c-1.25-.57-2.4-.9-3.64-.8z" stroke="#000" stroke-opacity="0" stroke-width="3.83" fill="#326ce5"/><path d="M759.64 160c-1.2.12-2.16.36-3.12.84l-41.64 20.52c-2.28 1.08-3.84 3-4.32 5.52l-10.32 46.2c-.48 2.16-.12 4.32 1.08 6.24.12.24.24.36.48.6l28.8 36.96c1.56 2.04 3.72 3.12 6.24 3.12h46.32c2.52 0 4.68-1.08 6.24-3.12l28.8-36.96c1.56-2.04 2.16-4.44 1.56-6.84l-10.32-46.2c-.48-2.52-2.04-4.44-4.32-5.52l-41.64-20.52c-1.32-.6-2.52-.96-3.84-.84zm0 3.24c1.32-.12 2.4.12 3.6.72l39.6 19.44c2.04 1.08 3.48 2.88 4.08 5.28l9.72 43.68c.48 2.4 0 4.56-1.44 6.48l-27.36 35.04c-1.44 1.92-3.48 3-5.88 3h-43.92c-2.4 0-4.44-1.08-5.88-3l-27.36-35.04c-.12-.12-.24-.36-.36-.6-1.2-1.8-1.56-3.72-1.08-5.88l9.72-43.68c.6-2.4 1.92-4.2 4.08-5.28l39.6-19.44c.96-.48 1.8-.72 2.88-.84z" stroke="#000" stroke-opacity="0" stroke-width="3.83" fill="#fff"/><path d="M739.6 265.58c-.3.66-.7 1.12-1.2 1.4-.52.3-1.14.43-1.88.43-1.25 0-2.18-.43-2.77-1.3-.6-.86-.88-2.18-.88-3.94 0-3.57 1.2-5.35 3.65-5.35.75 0 1.37.16 1.88.44.5.28.9.74 1.2 1.35h.02v-5.4h1.63v11.9c0 1.08.03 1.8.06 2.13h-1.57l-.06-.7-.03-.95zm-5-3.48c0 1.44.2 2.46.55 3.07.37.62.96.94 1.8.94.93 0 1.6-.33 2.02-1 .42-.67.64-1.7.64-3.1 0-1.36-.2-2.36-.63-2.98-.42-.63-1.1-.96-2-.96-.84 0-1.44.33-1.82.97-.36.63-.55 1.65-.55 3.07zM745.06 262.48c0 1.16.23 2.08.7 2.7.47.65 1.16.97 2.07.97.7 0 1.3-.15 1.72-.45.43-.3.72-.67.87-1.12l1.45.42c-.6 1.6-1.94 2.42-4.04 2.42-1.47 0-2.6-.45-3.36-1.35-.76-.9-1.14-2.25-1.14-4.02 0-1.68.38-3 1.14-3.9.77-.9 1.87-1.33 3.3-1.33 2.9 0 4.37 1.8 4.37 5.42v.24zm5.37-1.3c-.1-1.1-.35-1.87-.8-2.36-.44-.5-1.07-.74-1.9-.74-.8 0-1.43.27-1.9.82-.47.56-.7 1.3-.75 2.27zM762.63 262.07c0 3.56-1.2 5.35-3.64 5.35-1.54 0-2.57-.6-3.1-1.8h-.04c.03.07.04.6.04 1.63v4h-1.65v-12.17c0-1.05-.03-1.74-.06-2.1h1.6v.3c.03.15.04.38.05.7l.03.66h.03c.3-.62.7-1.08 1.18-1.37.48-.3 1.1-.45 1.9-.45 1.23 0 2.14.42 2.74 1.27.6.83.9 2.15.9 3.97zm-1.73.03c0-1.42-.18-2.44-.55-3.05-.38-.62-.98-.92-1.8-.92-.64 0-1.15.15-1.52.43-.37.28-.65.73-.85 1.33-.2.58-.28 1.38-.28 2.33 0 1.35.2 2.33.62 2.97.4.63 1.1.95 2.03.95.82 0 1.4-.3 1.78-.92.38-.62.57-1.66.57-3.13zM764.7 267.23V253.2h1.65v14.03zM777.26 262.1c0 1.8-.38 3.13-1.14 4-.77.88-1.88 1.32-3.34 1.32-1.44 0-2.53-.46-3.28-1.36-.73-.92-1.1-2.24-1.1-3.96 0-3.53 1.48-5.3 4.45-5.3 1.5 0 2.62.45 3.34 1.3.7.87 1.06 2.2 1.06 4zm-1.73 0c0-1.4-.2-2.43-.62-3.07-.4-.64-1.07-.95-2.03-.95-.96 0-1.66.3-2.1.97-.42.65-.65 1.67-.65 3.05 0 1.35.22 2.37.64 3.05.43.68 1.1 1 2 1 1 0 1.7-.3 2.12-.97.43-.66.65-1.7.65-3.08zM779.8 271.24c-.44 0-.82-.03-1.13-.1v-1.28c.23.04.5.05.77.05 1.03 0 1.84-.77 2.44-2.32l.16-.4L778.1 257h1.76l2.1 5.65c.02.1.06.2.1.32l.42 1.23.37 1.17.64-1.86 2.17-6.5h1.74l-3.8 10.22c-.42 1.1-.8 1.9-1.15 2.44-.36.53-.75.92-1.18 1.18-.43.27-.92.4-1.46.4z" stroke="#000" stroke-opacity="0" fill="#fff"/><path d="M757.07 246.08c-16.25.8-30.07-12.07-30.9-28.78-.9-16.76 11.52-31.1 27.77-32.07 16.25-.97 30.2 11.7 31.25 28.48l-11.7.8c-.65-10.12-9.04-17.8-18.85-17.2-9.8.55-17.3 9.2-16.78 19.33.47 10.12 8.86 17.87 18.67 17.44z" stroke="#000" stroke-opacity="0" stroke-width="3.77" fill="#fff"/><path d="M763.14 213.72l9.3 23.46 21.45-23.46z" stroke="#000" stroke-opacity="0" stroke-width="3.77" fill="#fff"/><use xlink:href="#a" transform="matrix(1,0,0,1,670,289) translate(46.23456790123457 17.77777777777778)"/><path d="M702.16 220H374c-7.73 0-14 6.27-14 14v327.53" stroke="#326ce5" stroke-width="2" fill="none"/><path d="M702.94 221h-.8v-2h1.25z" fill="#326ce5"/><path d="M360 576.8l-4.64-14.27h9.28z" stroke="#326ce5" stroke-width="2" fill="#326ce5"/><path d="M760 281v280.53" stroke="#326ce5" stroke-width="2" fill="none"/><path d="M761 281.03h-2V280h2z" fill="#326ce5"/><path d="M760 576.8l-4.64-14.27h9.28z" stroke="#326ce5" stroke-width="2" fill="#326ce5"/><path d="M817.84 220H1366c7.73 0 14 6.27 14 14v207.53" stroke="#326ce5" stroke-width="2" fill="none"/><path d="M817.86 221h-.8l-.45-2h1.26z" fill="#326ce5"/><path d="M1380 456.8l-4.64-14.27h9.28z" stroke="#326ce5" stroke-width="2" fill="#326ce5"/><path d="M359.66 583.17c-1.14.1-2.05.34-2.96.8l-39.44 19.43c-2.16 1.02-3.64 2.84-4.1 5.23l-9.77 43.76c-.47 2.04-.13 4.08 1 5.9.13.23.24.34.47.57l27.28 35c1.48 1.94 3.52 2.97 5.9 2.97h43.9c2.38 0 4.42-1.03 5.9-2.96l27.28-35c1.48-1.94 2.05-4.2 1.48-6.6l-9.77-43.65c-.45-2.4-1.93-4.2-4.1-5.23l-39.43-19.44c-1.25-.57-2.4-.9-3.64-.8z" stroke="#000" stroke-opacity="0" stroke-width="3.83" fill="#326ce5"/><path d="M359.64 580c-1.2.12-2.16.36-3.12.84l-41.64 20.52c-2.28 1.08-3.84 3-4.32 5.52l-10.32 46.2c-.48 2.16-.12 4.32 1.08 6.24.12.24.24.36.48.6l28.8 36.96c1.56 2.04 3.72 3.12 6.24 3.12h46.32c2.52 0 4.68-1.08 6.24-3.12l28.8-36.96c1.56-2.04 2.16-4.44 1.56-6.84l-10.32-46.2c-.48-2.52-2.04-4.44-4.32-5.52l-41.64-20.52c-1.32-.6-2.52-.96-3.84-.84zm0 3.24c1.32-.12 2.4.12 3.6.72l39.6 19.44c2.04 1.08 3.48 2.88 4.08 5.28l9.72 43.68c.48 2.4 0 4.56-1.44 6.48l-27.36 35.04c-1.44 1.92-3.48 3-5.88 3h-43.92c-2.4 0-4.44-1.08-5.88-3l-27.36-35.04c-.12-.12-.24-.36-.36-.6-1.2-1.8-1.56-3.72-1.08-5.88l9.72-43.68c.6-2.4 1.92-4.2 4.08-5.28l39.6-19.44c.96-.48 1.8-.72 2.88-.84z" stroke="#000" stroke-opacity="0" stroke-width="3.83" fill="#fff"/><path d="M346.77 609.03v5.12h3.52v-3.3h7.27v-3.64h-9c-1.47 0-1.8.5-1.8 1.83zm17.84 1.83h14.08v-3.65H364.6zm21.12 0h4.46v6.27h3.52v-8.1c0-1.43-.75-1.78-1.78-1.82h-6.2zm-38.95 12.37v12.7h3.52V621.4h-3.53zm43.4 2.98v12.74h3.53V624.4h-3.52zm-38.98 16.07h14.06v-3.64H351.2zm29.13 0h6.05v-3.64h-6.05z" stroke="#000" stroke-opacity="0" stroke-width="3.77" fill="#fff"/><path d="M336.54 618.7v6.6h3.52v-4.76h5.86v-3.65h-7.6c-1.45 0-1.78.48-1.78 1.8zm16.47 1.84h14.04v-3.65H353zm21.08 0h5.86v4.83h3.52v-6.66c0-1.1-.47-1.84-1.73-1.8h-7.65zm-37.54 13.84v12.7h3.52v-14.52h-3.52zm43.4.07v12.7h3.52v-14.52h-3.52zm-37.58 17.5h14.08v-3.62h-14.08zm21.1 0h14.1v-3.62h-14.1z" stroke="#000" stroke-opacity="0" stroke-width="3.77" fill="#fff"/><path d="M326.3 659.87v-33.3l44.93.03c1.4 0 2.02 1.2 2.02 2.07l-.05 31.13c-.05 1.2-1 1.86-1.92 1.83h-43.2c-.8 0-1.82-.67-1.77-1.76z" stroke="#000" stroke-opacity="0" stroke-width="3.77" fill="#fff"/><path d="M349.43 629.74c-5.14 0-9.8.6-13.3 1.6-1.76.52-3.23 1.16-4.43 1.96-1.15.8-2.2 1.98-2.2 3.6v14.4c0 1.6 1.05 2.76 2.2 3.56 1.2.84 2.67 1.44 4.43 1.96 3.5 1.03 8.16 1.63 13.3 1.63 5.14 0 9.8-.6 13.3-1.63 1.76-.52 3.23-1.12 4.43-1.96 1.15-.8 2.2-1.95 2.2-3.56v-14.4c0-1.62-1.05-2.8-2.2-3.6-1.2-.8-2.67-1.44-4.43-1.95-3.5-1-8.16-1.6-13.3-1.6zm0 3.62c4.86 0 9.28.6 12.35 1.5 1.55.45 2.7 1 3.38 1.46.68.45.68.68.68.57 0-.15 0 .08-.68.56-.67.46-1.83.98-3.38 1.44-3.07.9-7.5 1.5-12.35 1.5-4.86 0-9.28-.6-12.35-1.5-1.55-.46-2.7-.98-3.38-1.44-.68-.48-.68-.7-.68-.57 0 .1 0-.13.68-.58.67-.46 1.83-1 3.38-1.47 3.07-.9 7.5-1.5 12.35-1.5zm-16.4 7.66c.94.5 1.86 1 3.1 1.38 3.5 1.04 8.16 1.64 13.3 1.64 5.14 0 9.8-.6 13.3-1.64 1.24-.37 2.15-.9 3.1-1.38v10.28c0-.1 0 .12-.67.58-.67.46-1.83 1-3.38 1.43-3.07.93-7.5 1.54-12.35 1.54-4.86 0-9.28-.6-12.35-1.53-1.55-.42-2.7-.96-3.38-1.42-.68-.46-.68-.7-.68-.58z" stroke="#000" stroke-opacity="0" stroke-width="3.77" fill="#326ce5"/><path d="M356.05 684.47c0 .96-.35 1.7-1.06 2.23-.72.52-1.7.78-2.98.78-1.23 0-2.18-.2-2.85-.62-.67-.43-1.1-1.08-1.3-1.97l1.45-.3c.14.54.43.95.87 1.2.43.26 1.04.4 1.82.4.85 0 1.45-.15 1.84-.4.4-.27.6-.68.6-1.2 0-.4-.15-.74-.42-1-.27-.23-.7-.44-1.3-.6l-1.18-.33c-.95-.25-1.63-.5-2.03-.74-.4-.24-.7-.54-.93-.9-.23-.33-.34-.76-.34-1.26 0-.93.32-1.64.96-2.12.65-.5 1.6-.74 2.83-.74 1.1 0 1.95.2 2.6.6.65.4 1.06 1.04 1.23 1.9l-1.5.2c-.08-.45-.33-.8-.73-1.04-.4-.25-.93-.36-1.6-.36-.75 0-1.3.1-1.66.35-.36.23-.54.58-.54 1.05 0 .3.07.53.22.72.15.18.36.35.65.48.3.14.9.32 1.82.55.87.22 1.5.43 1.9.63.37.2.67.4.9.64.22.23.4.5.52.8.12.3.18.66.18 1.05zM361.8 687.28c-.53.15-1.1.23-1.66.23-1.32 0-1.98-.77-1.98-2.3v-6.84h-1.14v-1.22h1.2l.5-2.3h1.1v2.3h1.83v1.22h-1.84v6.46c0 .5.1.84.24 1.04.16.2.43.3.82.3.22 0 .53-.05.95-.14zM370.64 684.47c0 .96-.35 1.7-1.06 2.23-.7.52-1.7.78-2.96.78-1.23 0-2.2-.2-2.86-.62-.66-.43-1.1-1.08-1.3-1.97l1.45-.3c.15.54.45.95.88 1.2.44.26 1.06.4 1.84.4.84 0 1.44-.15 1.83-.4.4-.27.6-.68.6-1.2 0-.4-.14-.74-.4-1-.28-.23-.72-.44-1.3-.6l-1.2-.33c-.94-.25-1.62-.5-2.02-.74-.4-.24-.7-.54-.94-.9-.24-.33-.35-.76-.35-1.26 0-.93.32-1.64.97-2.12.64-.5 1.58-.74 2.82-.74 1.1 0 1.96.2 2.6.6.65.4 1.06 1.04 1.23 1.9l-1.5.2c-.08-.45-.32-.8-.73-1.04-.4-.25-.93-.36-1.6-.36-.74 0-1.3.1-1.65.35-.37.23-.55.58-.55 1.05 0 .3.08.53.23.72.14.18.36.35.65.48.3.14.9.32 1.8.55.9.22 1.52.43 1.9.63.4.2.7.4.9.64.23.23.4.5.53.8.13.3.18.66.18 1.05z" stroke="#000" stroke-opacity="0" fill="#fff"/><use xlink:href="#b" transform="matrix(1,0,0,1,270,709) translate(33.85802469135802 17.77777777777778)"/><path d="M759.66 583.17c-1.14.1-2.05.34-2.96.8l-39.44 19.43c-2.16 1.02-3.64 2.84-4.1 5.23l-9.77 43.76c-.47 2.04-.13 4.08 1 5.9.13.23.24.34.47.57l27.28 35c1.48 1.94 3.52 2.97 5.9 2.97h43.9c2.38 0 4.42-1.03 5.9-2.96l27.28-35c1.48-1.94 2.05-4.2 1.48-6.6l-9.77-43.65c-.45-2.4-1.93-4.2-4.1-5.23l-39.43-19.44c-1.25-.57-2.4-.9-3.64-.8z" stroke="#000" stroke-opacity="0" stroke-width="3.83" fill="#326ce5"/><path d="M759.64 580c-1.2.12-2.16.36-3.12.84l-41.64 20.52c-2.28 1.08-3.84 3-4.32 5.52l-10.32 46.2c-.48 2.16-.12 4.32 1.08 6.24.12.24.24.36.48.6l28.8 36.96c1.56 2.04 3.72 3.12 6.24 3.12h46.32c2.52 0 4.68-1.08 6.24-3.12l28.8-36.96c1.56-2.04 2.16-4.44 1.56-6.84l-10.32-46.2c-.48-2.52-2.04-4.44-4.32-5.52l-41.64-20.52c-1.32-.6-2.52-.96-3.84-.84zm0 3.24c1.32-.12 2.4.12 3.6.72l39.6 19.44c2.04 1.08 3.48 2.88 4.08 5.28l9.72 43.68c.48 2.4 0 4.56-1.44 6.48l-27.36 35.04c-1.44 1.92-3.48 3-5.88 3h-43.92c-2.4 0-4.44-1.08-5.88-3l-27.36-35.04c-.12-.12-.24-.36-.36-.6-1.2-1.8-1.56-3.72-1.08-5.88l9.72-43.68c.6-2.4 1.92-4.2 4.08-5.28l39.6-19.44c.96-.48 1.8-.72 2.88-.84z" stroke="#000" stroke-opacity="0" stroke-width="3.83" fill="#fff"/><path d="M746.77 609.03v5.12h3.52v-3.3h7.27v-3.64h-9c-1.47 0-1.8.5-1.8 1.83zm17.84 1.83h14.08v-3.65H764.6zm21.12 0h4.46v6.27h3.52v-8.1c0-1.43-.75-1.78-1.78-1.82h-6.2zm-38.95 12.37v12.7h3.52V621.4h-3.53zm43.4 2.98v12.74h3.53V624.4h-3.52zm-38.98 16.07h14.06v-3.64H751.2zm29.13 0h6.05v-3.64h-6.05z" stroke="#000" stroke-opacity="0" stroke-width="3.77" fill="#fff"/><path d="M736.54 618.7v6.6h3.52v-4.76h5.86v-3.65h-7.6c-1.45 0-1.78.48-1.78 1.8zm16.47 1.84h14.04v-3.65H753zm21.08 0h5.86v4.83h3.52v-6.66c0-1.1-.47-1.84-1.73-1.8h-7.65zm-37.54 13.84v12.7h3.52v-14.52h-3.52zm43.4.07v12.7h3.52v-14.52h-3.52zm-37.58 17.5h14.08v-3.62h-14.08zm21.1 0h14.1v-3.62h-14.1z" stroke="#000" stroke-opacity="0" stroke-width="3.77" fill="#fff"/><path d="M726.3 659.87v-33.3l44.93.03c1.4 0 2.02 1.2 2.02 2.07l-.05 31.13c-.05 1.2-1 1.86-1.92 1.83h-43.2c-.8 0-1.82-.67-1.77-1.76z" stroke="#000" stroke-opacity="0" stroke-width="3.77" fill="#fff"/><path d="M749.43 629.74c-5.14 0-9.8.6-13.3 1.6-1.76.52-3.23 1.16-4.43 1.96-1.15.8-2.2 1.98-2.2 3.6v14.4c0 1.6 1.05 2.76 2.2 3.56 1.2.84 2.67 1.44 4.43 1.96 3.5 1.03 8.16 1.63 13.3 1.63 5.14 0 9.8-.6 13.3-1.63 1.76-.52 3.23-1.12 4.43-1.96 1.15-.8 2.2-1.95 2.2-3.56v-14.4c0-1.62-1.05-2.8-2.2-3.6-1.2-.8-2.67-1.44-4.43-1.95-3.5-1-8.16-1.6-13.3-1.6zm0 3.62c4.86 0 9.28.6 12.35 1.5 1.55.45 2.7 1 3.38 1.46.68.45.68.68.68.57 0-.15 0 .08-.68.56-.67.46-1.83.98-3.38 1.44-3.07.9-7.5 1.5-12.35 1.5-4.86 0-9.28-.6-12.35-1.5-1.55-.46-2.7-.98-3.38-1.44-.68-.48-.68-.7-.68-.57 0 .1 0-.13.68-.58.67-.46 1.83-1 3.38-1.47 3.07-.9 7.5-1.5 12.35-1.5zm-16.4 7.66c.94.5 1.86 1 3.1 1.38 3.5 1.04 8.16 1.64 13.3 1.64 5.14 0 9.8-.6 13.3-1.64 1.24-.37 2.15-.9 3.1-1.38v10.28c0-.1 0 .12-.67.58-.67.46-1.83 1-3.38 1.43-3.07.93-7.5 1.54-12.35 1.54-4.86 0-9.28-.6-12.35-1.53-1.55-.42-2.7-.96-3.38-1.42-.68-.46-.68-.7-.68-.58z" stroke="#000" stroke-opacity="0" stroke-width="3.77" fill="#326ce5"/><path d="M756.05 684.47c0 .96-.35 1.7-1.06 2.23-.72.52-1.7.78-2.98.78-1.23 0-2.18-.2-2.85-.62-.67-.43-1.1-1.08-1.3-1.97l1.45-.3c.14.54.43.95.87 1.2.43.26 1.04.4 1.82.4.85 0 1.45-.15 1.84-.4.4-.27.6-.68.6-1.2 0-.4-.15-.74-.42-1-.27-.23-.7-.44-1.3-.6l-1.18-.33c-.95-.25-1.63-.5-2.03-.74-.4-.24-.7-.54-.93-.9-.23-.33-.34-.76-.34-1.26 0-.93.32-1.64.96-2.12.65-.5 1.6-.74 2.83-.74 1.1 0 1.95.2 2.6.6.65.4 1.06 1.04 1.23 1.9l-1.5.2c-.08-.45-.33-.8-.73-1.04-.4-.25-.93-.36-1.6-.36-.75 0-1.3.1-1.66.35-.36.23-.54.58-.54 1.05 0 .3.07.53.22.72.15.18.36.35.65.48.3.14.9.32 1.82.55.87.22 1.5.43 1.9.63.37.2.67.4.9.64.22.23.4.5.52.8.12.3.18.66.18 1.05zM761.8 687.28c-.53.15-1.1.23-1.66.23-1.32 0-1.98-.77-1.98-2.3v-6.84h-1.14v-1.22h1.2l.5-2.3h1.1v2.3h1.83v1.22h-1.84v6.46c0 .5.1.84.24 1.04.16.2.43.3.82.3.22 0 .53-.05.95-.14zM770.64 684.47c0 .96-.35 1.7-1.06 2.23-.7.52-1.7.78-2.96.78-1.23 0-2.2-.2-2.86-.62-.66-.43-1.1-1.08-1.3-1.97l1.45-.3c.15.54.45.95.88 1.2.44.26 1.06.4 1.84.4.84 0 1.44-.15 1.83-.4.4-.27.6-.68.6-1.2 0-.4-.14-.74-.4-1-.28-.23-.72-.44-1.3-.6l-1.2-.33c-.94-.25-1.62-.5-2.02-.74-.4-.24-.7-.54-.94-.9-.24-.33-.35-.76-.35-1.26 0-.93.32-1.64.97-2.12.64-.5 1.58-.74 2.82-.74 1.1 0 1.96.2 2.6.6.65.4 1.06 1.04 1.23 1.9l-1.5.2c-.08-.45-.32-.8-.73-1.04-.4-.25-.93-.36-1.6-.36-.74 0-1.3.1-1.65.35-.37.23-.55.58-.55 1.05 0 .3.08.53.23.72.14.18.36.35.65.48.3.14.9.32 1.8.55.9.22 1.52.43 1.9.63.4.2.7.4.9.64.23.23.4.5.53.8.13.3.18.66.18 1.05z" stroke="#000" stroke-opacity="0" fill="#fff"/><use xlink:href="#c" transform="matrix(1,0,0,1,670,709) translate(36.388888888888886 17.77777777777778)"/><path d="M1099.66 604.58c-1.14.12-2.05.35-2.96.8l-39.44 19.44c-2.16 1.02-3.64 2.84-4.1 5.23l-9.77 43.76c-.47 2.06-.13 4.1 1 5.92.13.23.24.34.47.57l27.28 35c1.48 1.93 3.52 2.95 5.9 2.95h43.9c2.38 0 4.42-1.02 5.9-2.95l27.28-35c1.48-1.94 2.05-4.22 1.48-6.6l-9.77-43.65c-.45-2.4-1.93-4.2-4.1-5.23l-39.43-19.44c-1.25-.57-2.4-.9-3.64-.8z" stroke="#000" stroke-opacity="0" stroke-width="3.83" fill="#326ce5"/><path d="M1099.64 601.42c-1.2.12-2.16.36-3.12.84l-41.64 20.52c-2.28 1.08-3.84 3-4.32 5.52l-10.32 46.2c-.48 2.16-.12 4.32 1.08 6.24.12.24.24.36.48.6l28.8 36.96c1.56 2.04 3.72 3.12 6.24 3.12h46.32c2.52 0 4.68-1.08 6.24-3.12l28.8-36.96c1.56-2.04 2.16-4.44 1.56-6.84l-10.32-46.2c-.48-2.52-2.04-4.44-4.32-5.52l-41.64-20.52c-1.32-.6-2.52-.96-3.84-.84zm0 3.24c1.32-.12 2.4.12 3.6.72l39.6 19.44c2.04 1.08 3.48 2.88 4.08 5.28l9.72 43.68c.48 2.4 0 4.56-1.44 6.48l-27.36 35.04c-1.44 1.92-3.48 3-5.88 3h-43.92c-2.4 0-4.44-1.08-5.88-3l-27.36-35.04c-.12-.12-.24-.36-.36-.6-1.2-1.8-1.56-3.72-1.08-5.88l9.72-43.68c.6-2.4 1.92-4.2 4.08-5.28l39.6-19.44c.96-.48 1.8-.72 2.88-.84z" stroke="#000" stroke-opacity="0" stroke-width="3.83" fill="#fff"/><path d="M1086.77 630.45v5.12h3.52v-3.3h7.27v-3.64h-9c-1.47 0-1.8.5-1.8 1.82zm17.84 1.82h14.08v-3.64h-14.07zm21.12 0h4.46v6.28h3.52v-8.1c0-1.44-.75-1.8-1.78-1.82h-6.2zm-38.95 12.38v12.7h3.52v-14.52h-3.53zm43.4 2.98v12.73h3.53V645.8h-3.52zm-38.98 16.06h14.06v-3.66h-14.07zm29.13 0h6.05v-3.66h-6.05z" stroke="#000" stroke-opacity="0" stroke-width="3.77" fill="#fff"/><path d="M1076.54 640.13v6.6h3.52v-4.78h5.86v-3.64h-7.6c-1.45 0-1.78.5-1.78 1.83zm16.47 1.82h14.04v-3.64H1093zm21.08 0h5.86v4.84h3.52v-6.67c0-1.12-.47-1.86-1.73-1.82h-7.65zm-37.54 13.85v12.7h3.52v-14.53h-3.52zm43.4.07v12.7h3.52v-14.52h-3.52zm-37.58 17.5h14.08v-3.62h-14.08zm21.1 0h14.1v-3.62h-14.1z" stroke="#000" stroke-opacity="0" stroke-width="3.77" fill="#fff"/><path d="M1066.3 681.3v-33.32l44.93.04c1.4 0 2.02 1.2 2.02 2.07l-.05 31.12c-.05 1.2-1 1.86-1.92 1.82h-43.2c-.8 0-1.82-.66-1.77-1.75z" stroke="#000" stroke-opacity="0" stroke-width="3.77" fill="#fff"/><path d="M1089.43 651.16c-5.14 0-9.8.6-13.3 1.6-1.76.52-3.23 1.15-4.43 1.96-1.15.8-2.2 1.98-2.2 3.6v14.4c0 1.6 1.05 2.76 2.2 3.56 1.2.83 2.67 1.44 4.43 1.95 3.5 1.04 8.16 1.64 13.3 1.64 5.14 0 9.8-.6 13.3-1.64 1.76-.5 3.23-1.12 4.43-1.95 1.15-.8 2.2-1.95 2.2-3.56v-14.4c0-1.62-1.05-2.8-2.2-3.6-1.2-.8-2.67-1.44-4.43-1.95-3.5-1-8.16-1.6-13.3-1.6zm0 3.62c4.86 0 9.28.6 12.35 1.5 1.55.45 2.7 1 3.38 1.45.68.46.68.7.68.58 0-.14 0 .1-.68.58-.67.46-1.83.98-3.38 1.44-3.07.9-7.5 1.5-12.35 1.5-4.86 0-9.28-.6-12.35-1.5-1.55-.46-2.7-.98-3.38-1.44-.68-.5-.68-.72-.68-.57 0 .12 0-.1.68-.57.67-.46 1.83-1 3.38-1.46 3.07-.9 7.5-1.5 12.35-1.5zm-16.4 7.66c.94.5 1.86 1 3.1 1.38 3.5 1.03 8.16 1.64 13.3 1.64 5.14 0 9.8-.6 13.3-1.64 1.24-.37 2.15-.9 3.1-1.38v10.28c0-.1 0 .12-.67.57-.67.45-1.83 1-3.38 1.43-3.07.92-7.5 1.52-12.35 1.52-4.86 0-9.28-.6-12.35-1.52-1.55-.43-2.7-.98-3.38-1.44-.68-.46-.68-.7-.68-.58z" stroke="#000" stroke-opacity="0" stroke-width="3.77" fill="#326ce5"/><path d="M1096.05 705.88c0 .97-.35 1.7-1.06 2.24-.72.5-1.7.78-2.98.78-1.23 0-2.18-.2-2.85-.63-.67-.42-1.1-1.07-1.3-1.96l1.45-.3c.14.56.43.96.87 1.23.43.25 1.04.38 1.82.38.85 0 1.45-.13 1.84-.4.4-.26.6-.66.6-1.2 0-.4-.15-.72-.42-.97-.27-.24-.7-.46-1.3-.6l-1.18-.34c-.95-.27-1.63-.5-2.03-.75-.4-.25-.7-.54-.93-.9-.23-.33-.34-.76-.34-1.26 0-.94.32-1.65.96-2.14.65-.5 1.6-.74 2.83-.74 1.1 0 1.95.2 2.6.6.65.4 1.06 1.03 1.23 1.9l-1.5.2c-.08-.45-.33-.8-.73-1.05-.4-.24-.93-.36-1.6-.36-.75 0-1.3.13-1.66.36-.36.24-.54.6-.54 1.06 0 .3.07.53.22.72.15.18.36.35.65.48.3.13.9.3 1.82.55.87.22 1.5.43 1.9.63.37.2.67.4.9.63.22.24.4.5.52.82.12.3.18.64.18 1.03zM1101.8 708.7c-.53.15-1.1.22-1.66.22-1.32 0-1.98-.77-1.98-2.3v-6.84h-1.14v-1.23h1.2l.5-2.3h1.1v2.3h1.83v1.23h-1.84v6.46c0 .5.1.83.24 1.04.16.2.43.3.82.3.22 0 .53-.05.95-.14zM1110.64 705.88c0 .97-.35 1.7-1.06 2.24-.7.5-1.7.78-2.96.78-1.23 0-2.2-.2-2.86-.63-.66-.42-1.1-1.07-1.3-1.96l1.45-.3c.15.56.45.96.88 1.23.44.25 1.06.38 1.84.38.84 0 1.44-.13 1.83-.4.4-.26.6-.66.6-1.2 0-.4-.14-.72-.4-.97-.28-.24-.72-.46-1.3-.6l-1.2-.34c-.94-.27-1.62-.5-2.02-.75-.4-.25-.7-.54-.94-.9-.24-.33-.35-.76-.35-1.26 0-.94.32-1.65.97-2.14.64-.5 1.58-.74 2.82-.74 1.1 0 1.96.2 2.6.6.65.4 1.06 1.03 1.23 1.9l-1.5.2c-.08-.45-.32-.8-.73-1.05-.4-.24-.93-.36-1.6-.36-.74 0-1.3.13-1.65.36-.37.24-.55.6-.55 1.06 0 .3.08.53.23.72.14.18.36.35.65.48.3.13.9.3 1.8.55.9.22 1.52.43 1.9.63.4.2.7.4.9.63.23.24.4.5.53.82.13.3.18.64.18 1.03z" stroke="#000" stroke-opacity="0" fill="#fff"/><use xlink:href="#d" transform="matrix(1,0,0,1,1010,730.4173228346456) translate(50.52469135802469 17.77777777777778)"/><path d="M1379.66 463.17c-1.14.1-2.05.34-2.96.8l-39.44 19.43c-2.16 1.02-3.64 2.84-4.1 5.23l-9.77 43.76c-.47 2.04-.13 4.08 1 5.9.13.23.24.34.47.57l27.28 35c1.48 1.94 3.52 2.97 5.9 2.97h43.9c2.38 0 4.42-1.03 5.9-2.96l27.28-35c1.48-1.94 2.05-4.2 1.48-6.6l-9.77-43.65c-.45-2.4-1.93-4.2-4.1-5.23l-39.43-19.44c-1.25-.57-2.4-.9-3.64-.8z" stroke="#000" stroke-opacity="0" stroke-width="3.83" fill="#326ce5"/><path d="M1379.64 460c-1.2.12-2.16.36-3.12.84l-41.64 20.52c-2.28 1.08-3.84 3-4.32 5.52l-10.32 46.2c-.48 2.16-.12 4.32 1.08 6.24.12.24.24.36.48.6l28.8 36.96c1.56 2.04 3.72 3.12 6.24 3.12h46.32c2.52 0 4.68-1.08 6.24-3.12l28.8-36.96c1.56-2.04 2.16-4.44 1.56-6.84l-10.32-46.2c-.48-2.52-2.04-4.44-4.32-5.52l-41.64-20.52c-1.32-.6-2.52-.96-3.84-.84zm0 3.24c1.32-.12 2.4.12 3.6.72l39.6 19.44c2.04 1.08 3.48 2.88 4.08 5.28l9.72 43.68c.48 2.4 0 4.56-1.44 6.48l-27.36 35.04c-1.44 1.92-3.48 3-5.88 3h-43.92c-2.4 0-4.44-1.08-5.88-3l-27.36-35.04c-.12-.12-.24-.36-.36-.6-1.2-1.8-1.56-3.72-1.08-5.88l9.72-43.68c.6-2.4 1.92-4.2 4.08-5.28l39.6-19.44c.96-.48 1.8-.72 2.88-.84z" stroke="#000" stroke-opacity="0" stroke-width="3.83" fill="#fff"/><path d="M1366.77 489.03v5.12h3.52v-3.3h7.27v-3.64h-9c-1.47 0-1.8.5-1.8 1.83zm17.84 1.83h14.08v-3.65h-14.07zm21.12 0h4.46v6.27h3.52v-8.1c0-1.43-.75-1.78-1.78-1.82h-6.2zm-38.95 12.37v12.7h3.52V501.4h-3.53zm43.4 2.98v12.74h3.53V504.4h-3.52zm-38.98 16.07h14.06v-3.64h-14.07zm29.13 0h6.05v-3.64h-6.05z" stroke="#000" stroke-opacity="0" stroke-width="3.77" fill="#fff"/><path d="M1356.54 498.7v6.6h3.52v-4.76h5.86v-3.65h-7.6c-1.45 0-1.78.48-1.78 1.8zm16.47 1.84h14.04v-3.65H1373zm21.08 0h5.86v4.83h3.52v-6.66c0-1.1-.47-1.84-1.73-1.8h-7.65zm-37.54 13.84v12.7h3.52v-14.52h-3.52zm43.4.07v12.7h3.52v-14.52h-3.52zm-37.58 17.5h14.08v-3.62h-14.08zm21.1 0h14.1v-3.62h-14.1z" stroke="#000" stroke-opacity="0" stroke-width="3.77" fill="#fff"/><path d="M1346.3 539.87v-33.3l44.93.03c1.4 0 2.02 1.2 2.02 2.07l-.05 31.13c-.05 1.2-1 1.86-1.92 1.83h-43.2c-.8 0-1.82-.67-1.77-1.76z" stroke="#000" stroke-opacity="0" stroke-width="3.77" fill="#fff"/><path d="M1369.43 509.74c-5.14 0-9.8.6-13.3 1.6-1.76.52-3.23 1.16-4.43 1.96-1.15.8-2.2 1.98-2.2 3.6v14.4c0 1.6 1.05 2.76 2.2 3.56 1.2.84 2.67 1.44 4.43 1.96 3.5 1.03 8.16 1.63 13.3 1.63 5.14 0 9.8-.6 13.3-1.63 1.76-.52 3.23-1.12 4.43-1.96 1.15-.8 2.2-1.95 2.2-3.56v-14.4c0-1.62-1.05-2.8-2.2-3.6-1.2-.8-2.67-1.44-4.43-1.95-3.5-1-8.16-1.6-13.3-1.6zm0 3.62c4.86 0 9.28.6 12.35 1.5 1.55.45 2.7 1 3.38 1.46.68.45.68.68.68.57 0-.15 0 .08-.68.56-.67.46-1.83.98-3.38 1.44-3.07.9-7.5 1.5-12.35 1.5-4.86 0-9.28-.6-12.35-1.5-1.55-.46-2.7-.98-3.38-1.44-.68-.48-.68-.7-.68-.57 0 .1 0-.13.68-.58.67-.46 1.83-1 3.38-1.47 3.07-.9 7.5-1.5 12.35-1.5zm-16.4 7.66c.94.5 1.86 1 3.1 1.38 3.5 1.04 8.16 1.64 13.3 1.64 5.14 0 9.8-.6 13.3-1.64 1.24-.37 2.15-.9 3.1-1.38v10.28c0-.1 0 .12-.67.58-.67.46-1.83 1-3.38 1.43-3.07.93-7.5 1.54-12.35 1.54-4.86 0-9.28-.6-12.35-1.53-1.55-.42-2.7-.96-3.38-1.42-.68-.46-.68-.7-.68-.58z" stroke="#000" stroke-opacity="0" stroke-width="3.77" fill="#326ce5"/><path d="M1376.05 564.47c0 .96-.35 1.7-1.06 2.23-.72.52-1.7.78-2.98.78-1.23 0-2.18-.2-2.85-.62-.67-.43-1.1-1.08-1.3-1.97l1.45-.3c.14.54.43.95.87 1.2.43.26 1.04.4 1.82.4.85 0 1.45-.15 1.84-.4.4-.27.6-.68.6-1.2 0-.4-.15-.74-.42-1-.27-.23-.7-.44-1.3-.6l-1.18-.33c-.95-.25-1.63-.5-2.03-.74-.4-.24-.7-.54-.93-.9-.23-.33-.34-.76-.34-1.26 0-.93.32-1.64.96-2.12.65-.5 1.6-.74 2.83-.74 1.1 0 1.95.2 2.6.6.65.4 1.06 1.04 1.23 1.9l-1.5.2c-.08-.45-.33-.8-.73-1.04-.4-.25-.93-.36-1.6-.36-.75 0-1.3.1-1.66.35-.36.23-.54.58-.54 1.05 0 .3.07.53.22.72.15.18.36.35.65.48.3.14.9.32 1.82.55.87.22 1.5.43 1.9.63.37.2.67.4.9.64.22.23.4.5.52.8.12.3.18.66.18 1.05zM1381.8 567.28c-.53.15-1.1.23-1.66.23-1.32 0-1.98-.77-1.98-2.3v-6.84h-1.14v-1.22h1.2l.5-2.3h1.1v2.3h1.83v1.22h-1.84v6.46c0 .5.1.84.24 1.04.16.2.43.3.82.3.22 0 .53-.05.95-.14zM1390.64 564.47c0 .96-.35 1.7-1.06 2.23-.7.52-1.7.78-2.96.78-1.23 0-2.2-.2-2.86-.62-.66-.43-1.1-1.08-1.3-1.97l1.45-.3c.15.54.45.95.88 1.2.44.26 1.06.4 1.84.4.84 0 1.44-.15 1.83-.4.4-.27.6-.68.6-1.2 0-.4-.14-.74-.4-1-.28-.23-.72-.44-1.3-.6l-1.2-.33c-.94-.25-1.62-.5-2.02-.74-.4-.24-.7-.54-.94-.9-.24-.33-.35-.76-.35-1.26 0-.93.32-1.64.97-2.12.64-.5 1.58-.74 2.82-.74 1.1 0 1.96.2 2.6.6.65.4 1.06 1.04 1.23 1.9l-1.5.2c-.08-.45-.32-.8-.73-1.04-.4-.25-.93-.36-1.6-.36-.74 0-1.3.1-1.65.35-.37.23-.55.58-.55 1.05 0 .3.08.53.23.72.14.18.36.35.65.48.3.14.9.32 1.8.55.9.22 1.52.43 1.9.63.4.2.7.4.9.64.23.23.4.5.53.8.13.3.18.66.18 1.05z" stroke="#000" stroke-opacity="0" fill="#fff"/><use xlink:href="#e" transform="matrix(1,0,0,1,1290,589) translate(16.66666666666667 17.77777777777778)"/><use xlink:href="#f" transform="matrix(1,0,0,1,1290,589) translate(86.91358024691358 17.77777777777778)"/><path d="M1380 221v185.47c0 7.74 6.27 14 14 14h315.7c7.73 0 14 6.27 14 14v148.68M1380 221.03V220" stroke="#326ce5" stroke-width="2" fill="none"/><path d="M1723.7 598.42l-4.64-14.27h9.27z" stroke="#326ce5" stroke-width="2" fill="#326ce5"/><path d="M1117.38 595.1l20.93-7.64m20.95-7.64l41.86-15.28m20.95-7.64l41.86-15.28m20.95-7.64l20.93-7.64" stroke="#326ce5" stroke-width="2" fill="none"/><path d="M1103.04 600.34l11.8-9.25 3.2 8.7zM1320.12 521.1l-11.8 9.25-3.2-8.7z" stroke="#326ce5" stroke-width="2" fill="#326ce5"/><path d="M1702.2 595.66l-20.62-5.88m-20.64-5.88l-41.26-11.77m-20.63-5.88l-41.26-11.76m-20.64-5.9l-41.27-11.76m-20.64-5.88l-20.63-5.9" stroke="#326ce5" stroke-width="2" fill="none"/><path d="M1716.9 599.85l-15 .55 2.54-8.92zM1439.95 520.9l15-.56-2.55 8.92z" stroke="#326ce5" stroke-width="2" fill="#326ce5"/><path d="M817.84 220H1366c7.73 0 14 6.27 14 14v162.72c0 7.73-6.27 14-14 14h-252c-7.73 0-14 6.27-14 14v158.22" stroke="#326ce5" stroke-width="2" fill="none"/><path d="M817.86 221h-.8l-.45-2h1.26z" fill="#326ce5"/><path d="M1100 598.2l-4.64-14.26h9.28z" stroke="#326ce5" stroke-width="2" fill="#326ce5"/><path d="M1175.34 661.42h20.95m20.94 0h41.9m20.94 0h41.9m20.95 0h41.9m20.94 0h41.9m20.95 0h41.9m20.95 0h41.9m20.94 0h20.96" stroke="#326ce5" stroke-width="2" fill="none"/><path d="M1160.07 661.42l14.27-4.64v9.27zM1630.53 661.42l-14.27 4.63v-9.27z" stroke="#326ce5" stroke-width="2" fill="#326ce5"/><path d="M1719.66 603.88c-1.14.1-2.05.34-2.96.8l-39.44 19.43c-2.16 1.03-3.64 2.85-4.1 5.24l-9.77 43.76c-.47 2.05-.13 4.1 1 5.9.13.24.24.35.47.58l27.28 35c1.48 1.94 3.52 2.97 5.9 2.97h43.9c2.38 0 4.42-1.03 5.9-2.96l27.28-35.02c1.48-1.93 2.05-4.2 1.48-6.6l-9.77-43.64c-.45-2.4-1.93-4.2-4.1-5.23l-39.43-19.43c-1.25-.57-2.4-.9-3.64-.8z" stroke="#000" stroke-opacity="0" stroke-width="3.83" fill="#326ce5"/><path d="M1719.64 600.7c-1.2.13-2.16.37-3.12.85l-41.64 20.52c-2.28 1.08-3.84 3-4.32 5.52l-10.32 46.2c-.48 2.15-.12 4.3 1.08 6.23.12.24.24.36.48.6l28.8 36.96c1.56 2.03 3.72 3.1 6.24 3.1h46.32c2.52 0 4.68-1.07 6.24-3.1l28.8-36.97c1.56-2.04 2.16-4.44 1.56-6.84l-10.32-46.2c-.48-2.53-2.04-4.45-4.32-5.53l-41.64-20.52c-1.32-.6-2.52-.96-3.84-.84zm0 3.25c1.32-.12 2.4.12 3.6.72l39.6 19.44c2.04 1.1 3.48 2.9 4.08 5.3l9.72 43.67c.48 2.4 0 4.56-1.44 6.48l-27.36 35.04c-1.44 1.9-3.48 3-5.88 3h-43.92c-2.4 0-4.44-1.1-5.88-3l-27.36-35.05c-.12-.12-.24-.36-.36-.6-1.2-1.8-1.56-3.72-1.08-5.88l9.72-43.68c.6-2.4 1.92-4.2 4.08-5.3l39.6-19.43c.96-.48 1.8-.72 2.88-.84z" stroke="#000" stroke-opacity="0" stroke-width="3.83" fill="#fff"/><path d="M1706.77 629.74v5.12h3.52v-3.3h7.27v-3.64h-9c-1.47 0-1.8.5-1.8 1.82zm17.84 1.83h14.08v-3.65h-14.07zm21.12 0h4.46v6.27h3.52v-8.1c0-1.43-.75-1.78-1.78-1.82h-6.2zm-38.95 12.37v12.7h3.52V642.1h-3.53zm43.4 2.98v12.73h3.53V645.1h-3.52zm-38.98 16.06h14.06v-3.65h-14.07zm29.13 0h6.05v-3.65h-6.05z" stroke="#000" stroke-opacity="0" stroke-width="3.77" fill="#fff"/><path d="M1696.54 639.42v6.6h3.52v-4.78h5.86v-3.64h-7.6c-1.45 0-1.78.5-1.78 1.82zm16.47 1.82h14.04v-3.64H1713zm21.08 0h5.86v4.84h3.52v-6.66c0-1.12-.47-1.86-1.73-1.82h-7.65zm-37.54 13.85v12.68h3.52v-14.5h-3.52zm43.4.06v12.7h3.52v-14.52h-3.52zm-37.58 17.5h14.08v-3.62h-14.08zm21.1 0h14.1v-3.62h-14.1z" stroke="#000" stroke-opacity="0" stroke-width="3.77" fill="#fff"/><path d="M1686.3 680.58v-33.3l44.93.03c1.4 0 2.02 1.2 2.02 2.08l-.05 31.13c-.05 1.2-1 1.87-1.92 1.83h-43.2c-.8 0-1.82-.66-1.77-1.75z" stroke="#000" stroke-opacity="0" stroke-width="3.77" fill="#fff"/><path d="M1709.43 650.45c-5.14 0-9.8.6-13.3 1.6-1.76.52-3.23 1.16-4.43 1.96-1.15.8-2.2 2-2.2 3.6V672c0 1.62 1.05 2.77 2.2 3.57 1.2.84 2.67 1.44 4.43 1.95 3.5 1.04 8.16 1.64 13.3 1.64 5.14 0 9.8-.6 13.3-1.64 1.76-.5 3.23-1.1 4.43-1.95 1.15-.8 2.2-1.95 2.2-3.56v-14.4c0-1.6-1.05-2.8-2.2-3.6-1.2-.8-2.67-1.43-4.43-1.94-3.5-1-8.16-1.6-13.3-1.6zm0 3.62c4.86 0 9.28.6 12.35 1.5 1.55.45 2.7 1 3.38 1.45.68.46.68.7.68.58 0-.15 0 .08-.68.57-.67.46-1.83.98-3.38 1.44-3.07.9-7.5 1.5-12.35 1.5-4.86 0-9.28-.6-12.35-1.5-1.55-.45-2.7-.97-3.38-1.43-.68-.5-.68-.72-.68-.57 0 .1 0-.12.68-.58.67-.46 1.83-1 3.38-1.46 3.07-.9 7.5-1.5 12.35-1.5zm-16.4 7.66c.94.5 1.86 1 3.1 1.38 3.5 1.04 8.16 1.65 13.3 1.65 5.14 0 9.8-.6 13.3-1.64 1.24-.36 2.15-.88 3.1-1.37V672c0-.1 0 .13-.67.6-.67.45-1.83 1-3.38 1.42-3.07.92-7.5 1.52-12.35 1.52-4.86 0-9.28-.6-12.35-1.52-1.55-.43-2.7-.97-3.38-1.43-.68-.47-.68-.7-.68-.6z" stroke="#000" stroke-opacity="0" stroke-width="3.77" fill="#326ce5"/><path d="M1716.05 705.18c0 .96-.35 1.7-1.06 2.23-.72.53-1.7.8-2.98.8-1.23 0-2.18-.22-2.85-.63-.67-.43-1.1-1.08-1.3-1.97l1.45-.3c.14.55.43.95.87 1.22.43.25 1.04.38 1.82.38.85 0 1.45-.14 1.84-.4.4-.27.6-.67.6-1.2 0-.4-.15-.73-.42-.98-.27-.24-.7-.45-1.3-.6l-1.18-.34c-.95-.26-1.63-.5-2.03-.74-.4-.24-.7-.54-.93-.9-.23-.33-.34-.76-.34-1.26 0-.93.32-1.64.96-2.12.65-.5 1.6-.74 2.83-.74 1.1 0 1.95.2 2.6.6.65.4 1.06 1.02 1.23 1.9l-1.5.2c-.08-.46-.33-.8-.73-1.05-.4-.25-.93-.36-1.6-.36-.75 0-1.3.12-1.66.35-.36.24-.54.6-.54 1.06 0 .3.07.54.22.73.15.18.36.35.65.48.3.14.9.32 1.82.56.87.22 1.5.43 1.9.63.37.18.67.4.9.63.22.23.4.5.52.8.12.3.18.66.18 1.05zM1721.8 708c-.53.14-1.1.2-1.66.2-1.32 0-1.98-.76-1.98-2.3v-6.83h-1.14v-1.23h1.2l.5-2.3h1.1v2.3h1.83v1.23h-1.84v6.46c0 .5.1.84.24 1.04.16.2.43.3.82.3.22 0 .53-.05.95-.14zM1730.64 705.18c0 .96-.35 1.7-1.06 2.23-.7.53-1.7.8-2.96.8-1.23 0-2.2-.22-2.86-.63-.66-.43-1.1-1.08-1.3-1.97l1.45-.3c.15.55.45.95.88 1.22.44.25 1.06.38 1.84.38.84 0 1.44-.14 1.83-.4.4-.27.6-.67.6-1.2 0-.4-.14-.73-.4-.98-.28-.24-.72-.45-1.3-.6l-1.2-.34c-.94-.26-1.62-.5-2.02-.74-.4-.24-.7-.54-.94-.9-.24-.33-.35-.76-.35-1.26 0-.93.32-1.64.97-2.12.64-.5 1.58-.74 2.82-.74 1.1 0 1.96.2 2.6.6.65.4 1.06 1.02 1.23 1.9l-1.5.2c-.08-.46-.32-.8-.73-1.05-.4-.25-.93-.36-1.6-.36-.74 0-1.3.12-1.65.35-.37.24-.55.6-.55 1.06 0 .3.08.54.23.73.14.18.36.35.65.48.3.14.9.32 1.8.56.9.22 1.52.43 1.9.63.4.18.7.4.9.63.23.23.4.5.53.8.13.3.18.66.18 1.05z" stroke="#000" stroke-opacity="0" fill="#fff"/><use xlink:href="#g" transform="matrix(1,0,0,1,1630,729.7086614173228) translate(90 17.06666666666667)"/><path d="M1699.66 622.46c-1.14.1-2.05.34-2.96.8l-39.44 19.43c-2.16 1.02-3.64 2.83-4.1 5.22l-9.77 43.76c-.47 2.05-.13 4.1 1 5.9.13.24.24.36.47.58l27.28 35c1.48 1.95 3.52 2.97 5.9 2.97h43.9c2.38 0 4.42-1.02 5.9-2.96l27.28-35c1.48-1.94 2.05-4.2 1.48-6.6l-9.77-43.65c-.45-2.4-1.93-4.2-4.1-5.23l-39.43-19.45c-1.25-.56-2.4-.9-3.64-.8z" stroke="#000" stroke-opacity="0" stroke-width="3.83" fill="#326ce5"/><path d="M1699.64 619.3c-1.2.1-2.16.35-3.12.83l-41.64 20.52c-2.28 1.08-3.84 3-4.32 5.52l-10.32 46.2c-.48 2.16-.12 4.32 1.08 6.24.12.25.24.37.48.6l28.8 36.97c1.56 2.04 3.72 3.12 6.24 3.12h46.32c2.52 0 4.68-1.1 6.24-3.13l28.8-36.96c1.56-2.03 2.16-4.43 1.56-6.83l-10.32-46.2c-.48-2.52-2.04-4.44-4.32-5.52l-41.64-20.52c-1.32-.6-2.52-.96-3.84-.84zm0 3.23c1.32-.12 2.4.12 3.6.72l39.6 19.44c2.04 1.07 3.48 2.87 4.08 5.27l9.72 43.68c.48 2.4 0 4.56-1.44 6.48l-27.36 35.04c-1.44 1.92-3.48 3-5.88 3h-43.92c-2.4 0-4.44-1.08-5.88-3l-27.36-35.04c-.12-.12-.24-.36-.36-.6-1.2-1.8-1.56-3.72-1.08-5.88l9.72-43.68c.6-2.4 1.92-4.2 4.08-5.28l39.6-19.45c.96-.48 1.8-.72 2.88-.84z" stroke="#000" stroke-opacity="0" stroke-width="3.83" fill="#fff"/><path d="M1686.77 648.33v5.1h3.52v-3.28h7.27v-3.65h-9c-1.47 0-1.8.5-1.8 1.83zm17.84 1.82h14.08v-3.65h-14.07zm21.12 0h4.46v6.27h3.52v-8.1c0-1.43-.75-1.78-1.78-1.82h-6.2zm-38.95 12.38v12.7h3.52V660.7h-3.53zm43.4 2.98v12.73h3.53v-14.55h-3.52zm-38.98 16.06h14.06v-3.64h-14.07zm29.13 0h6.05v-3.64h-6.05z" stroke="#000" stroke-opacity="0" stroke-width="3.77" fill="#fff"/><path d="M1676.54 658v6.6h3.52v-4.77h5.86v-3.65h-7.6c-1.45 0-1.78.5-1.78 1.82zm16.47 1.83h14.04v-3.65H1693zm21.08 0h5.86v4.83h3.52V658c0-1.12-.47-1.85-1.73-1.82h-7.65zm-37.54 13.84v12.7h3.52v-14.52h-3.52zm43.4.07v12.7h3.52V671.9h-3.52zm-37.58 17.5h14.08v-3.62h-14.08zm21.1 0h14.1v-3.62h-14.1z" stroke="#000" stroke-opacity="0" stroke-width="3.77" fill="#fff"/><path d="M1666.3 699.16v-33.3l44.93.03c1.4 0 2.02 1.18 2.02 2.06l-.05 31.13c-.05 1.2-1 1.85-1.92 1.82h-43.2c-.8 0-1.82-.67-1.77-1.76z" stroke="#000" stroke-opacity="0" stroke-width="3.77" fill="#fff"/><path d="M1689.43 669.03c-5.14 0-9.8.6-13.3 1.6-1.76.53-3.23 1.16-4.43 1.96-1.15.8-2.2 1.97-2.2 3.58v14.4c0 1.62 1.05 2.77 2.2 3.58 1.2.83 2.67 1.43 4.43 1.95 3.5 1.04 8.16 1.64 13.3 1.64 5.14 0 9.8-.6 13.3-1.63 1.76-.5 3.23-1.1 4.43-1.94 1.15-.8 2.2-1.96 2.2-3.57v-14.42c0-1.6-1.05-2.78-2.2-3.6-1.2-.8-2.67-1.42-4.43-1.94-3.5-1-8.16-1.6-13.3-1.6zm0 3.62c4.86 0 9.28.6 12.35 1.5 1.55.45 2.7 1 3.38 1.46.68.47.68.7.68.58 0-.14 0 .1-.68.58-.67.45-1.83.97-3.38 1.43-3.07.88-7.5 1.48-12.35 1.48-4.86 0-9.28-.6-12.35-1.5-1.55-.45-2.7-.97-3.38-1.42-.68-.5-.68-.72-.68-.58 0 .12 0-.1.68-.57.67-.45 1.83-1 3.38-1.46 3.07-.9 7.5-1.5 12.35-1.5zm-16.4 7.67c.94.48 1.86 1 3.1 1.37 3.5 1.03 8.16 1.63 13.3 1.63 5.14 0 9.8-.6 13.3-1.64 1.24-.38 2.15-.9 3.1-1.38v10.27c0-.12 0 .1-.67.57-.67.46-1.83 1-3.38 1.43-3.07.92-7.5 1.53-12.35 1.53-4.86 0-9.28-.6-12.35-1.53-1.55-.43-2.7-.97-3.38-1.43-.68-.46-.68-.7-.68-.58z" stroke="#000" stroke-opacity="0" stroke-width="3.77" fill="#326ce5"/><path d="M1696.05 723.76c0 .96-.35 1.7-1.06 2.23-.72.5-1.7.77-2.98.77-1.23 0-2.18-.2-2.85-.62-.67-.42-1.1-1.08-1.3-1.97l1.45-.3c.14.56.43.96.87 1.22.43.26 1.04.38 1.82.38.85 0 1.45-.13 1.84-.4.4-.26.6-.67.6-1.2 0-.4-.15-.72-.42-.98-.27-.24-.7-.45-1.3-.6l-1.18-.34c-.95-.25-1.63-.5-2.03-.74-.4-.24-.7-.54-.93-.9-.23-.33-.34-.76-.34-1.26 0-.93.32-1.63.96-2.12.65-.5 1.6-.74 2.83-.74 1.1 0 1.95.2 2.6.6.65.4 1.06 1.03 1.23 1.9l-1.5.2c-.08-.46-.33-.8-.73-1.05-.4-.25-.93-.36-1.6-.36-.75 0-1.3.1-1.66.34-.36.23-.54.58-.54 1.05 0 .28.07.52.22.7.15.2.36.36.65.5.3.13.9.3 1.82.54.87.22 1.5.43 1.9.63.37.2.67.4.9.64.22.24.4.5.52.82.12.3.18.65.18 1.04zM1701.8 726.57c-.53.15-1.1.23-1.66.23-1.32 0-1.98-.78-1.98-2.32v-6.83h-1.14v-1.22h1.2l.5-2.3h1.1v2.3h1.83v1.22h-1.84v6.46c0 .5.1.85.24 1.05.16.2.43.3.82.3.22 0 .53-.05.95-.13zM1710.64 723.76c0 .96-.35 1.7-1.06 2.23-.7.5-1.7.77-2.96.77-1.23 0-2.2-.2-2.86-.62-.66-.42-1.1-1.08-1.3-1.97l1.45-.3c.15.56.45.96.88 1.22.44.26 1.06.38 1.84.38.84 0 1.44-.13 1.83-.4.4-.26.6-.67.6-1.2 0-.4-.14-.72-.4-.98-.28-.24-.72-.45-1.3-.6l-1.2-.34c-.94-.25-1.62-.5-2.02-.74-.4-.24-.7-.54-.94-.9-.24-.33-.35-.76-.35-1.26 0-.93.32-1.63.97-2.12.64-.5 1.58-.74 2.82-.74 1.1 0 1.96.2 2.6.6.65.4 1.06 1.03 1.23 1.9l-1.5.2c-.08-.46-.32-.8-.73-1.05-.4-.25-.93-.36-1.6-.36-.74 0-1.3.1-1.65.34-.37.23-.55.58-.55 1.05 0 .28.08.52.23.7.14.2.36.36.65.5.3.13.9.3 1.8.54.9.22 1.52.43 1.9.63.4.2.7.4.9.64.23.24.4.5.53.82.13.3.18.65.18 1.04z" stroke="#000" stroke-opacity="0" fill="#fff"/><path d="M1679.66 642.46c-1.14.1-2.05.34-2.96.8l-39.44 19.43c-2.16 1.02-3.64 2.83-4.1 5.22l-9.77 43.76c-.47 2.05-.13 4.1 1 5.9.13.24.24.36.47.58l27.28 35c1.48 1.95 3.52 2.97 5.9 2.97h43.9c2.38 0 4.42-1.02 5.9-2.96l27.28-35c1.48-1.94 2.05-4.2 1.48-6.6l-9.77-43.65c-.45-2.4-1.93-4.2-4.1-5.23l-39.43-19.45c-1.25-.56-2.4-.9-3.64-.8z" stroke="#000" stroke-opacity="0" stroke-width="3.83" fill="#326ce5"/><path d="M1679.64 639.3c-1.2.1-2.16.35-3.12.83l-41.64 20.52c-2.28 1.08-3.84 3-4.32 5.52l-10.32 46.2c-.48 2.16-.12 4.32 1.08 6.24.12.25.24.37.48.6l28.8 36.97c1.56 2.04 3.72 3.12 6.24 3.12h46.32c2.52 0 4.68-1.1 6.24-3.13l28.8-36.96c1.56-2.03 2.16-4.43 1.56-6.83l-10.32-46.2c-.48-2.52-2.04-4.44-4.32-5.52l-41.64-20.52c-1.32-.6-2.52-.96-3.84-.84zm0 3.23c1.32-.12 2.4.12 3.6.72l39.6 19.44c2.04 1.07 3.48 2.87 4.08 5.27l9.72 43.68c.48 2.4 0 4.56-1.44 6.48l-27.36 35.04c-1.44 1.92-3.48 3-5.88 3h-43.92c-2.4 0-4.44-1.08-5.88-3l-27.36-35.04c-.12-.12-.24-.36-.36-.6-1.2-1.8-1.56-3.72-1.08-5.88l9.72-43.68c.6-2.4 1.92-4.2 4.08-5.28l39.6-19.45c.96-.48 1.8-.72 2.88-.84z" stroke="#000" stroke-opacity="0" stroke-width="3.83" fill="#fff"/><path d="M1666.77 668.33v5.1h3.52v-3.28h7.27v-3.65h-9c-1.47 0-1.8.5-1.8 1.83zm17.84 1.82h14.08v-3.65h-14.07zm21.12 0h4.46v6.27h3.52v-8.1c0-1.43-.75-1.78-1.78-1.82h-6.2zm-38.95 12.38v12.7h3.52V680.7h-3.53zm43.4 2.98v12.73h3.53v-14.55h-3.52zm-38.98 16.06h14.06v-3.64h-14.07zm29.13 0h6.05v-3.64h-6.05z" stroke="#000" stroke-opacity="0" stroke-width="3.77" fill="#fff"/><path d="M1656.54 678v6.6h3.52v-4.77h5.86v-3.65h-7.6c-1.45 0-1.78.5-1.78 1.82zm16.47 1.83h14.04v-3.65H1673zm21.08 0h5.86v4.83h3.52V678c0-1.12-.47-1.85-1.73-1.82h-7.65zm-37.54 13.84v12.7h3.52v-14.52h-3.52zm43.4.07v12.7h3.52V691.9h-3.52zm-37.58 17.5h14.08v-3.62h-14.08zm21.1 0h14.1v-3.62h-14.1z" stroke="#000" stroke-opacity="0" stroke-width="3.77" fill="#fff"/><path d="M1646.3 719.16v-33.3l44.93.03c1.4 0 2.02 1.18 2.02 2.06l-.05 31.13c-.05 1.2-1 1.85-1.92 1.82h-43.2c-.8 0-1.82-.67-1.77-1.76z" stroke="#000" stroke-opacity="0" stroke-width="3.77" fill="#fff"/><path d="M1669.43 689.03c-5.14 0-9.8.6-13.3 1.6-1.76.53-3.23 1.16-4.43 1.96-1.15.8-2.2 1.97-2.2 3.58v14.4c0 1.62 1.05 2.77 2.2 3.58 1.2.83 2.67 1.43 4.43 1.95 3.5 1.04 8.16 1.64 13.3 1.64 5.14 0 9.8-.6 13.3-1.63 1.76-.5 3.23-1.1 4.43-1.94 1.15-.8 2.2-1.96 2.2-3.57v-14.42c0-1.6-1.05-2.78-2.2-3.6-1.2-.8-2.67-1.42-4.43-1.94-3.5-1-8.16-1.6-13.3-1.6zm0 3.62c4.86 0 9.28.6 12.35 1.5 1.55.45 2.7 1 3.38 1.46.68.47.68.7.68.58 0-.14 0 .1-.68.58-.67.45-1.83.97-3.38 1.43-3.07.88-7.5 1.48-12.35 1.48-4.86 0-9.28-.6-12.35-1.5-1.55-.45-2.7-.97-3.38-1.42-.68-.5-.68-.72-.68-.58 0 .12 0-.1.68-.57.67-.45 1.83-1 3.38-1.46 3.07-.9 7.5-1.5 12.35-1.5zm-16.4 7.67c.94.48 1.86 1 3.1 1.37 3.5 1.03 8.16 1.63 13.3 1.63 5.14 0 9.8-.6 13.3-1.64 1.24-.38 2.15-.9 3.1-1.38v10.27c0-.12 0 .1-.67.57-.67.46-1.83 1-3.38 1.43-3.07.92-7.5 1.53-12.35 1.53-4.86 0-9.28-.6-12.35-1.53-1.55-.43-2.7-.97-3.38-1.43-.68-.46-.68-.7-.68-.58z" stroke="#000" stroke-opacity="0" stroke-width="3.77" fill="#326ce5"/><path d="M1676.05 743.76c0 .96-.35 1.7-1.06 2.23-.72.5-1.7.77-2.98.77-1.23 0-2.18-.2-2.85-.62-.67-.42-1.1-1.08-1.3-1.97l1.45-.3c.14.56.43.96.87 1.22.43.26 1.04.38 1.82.38.85 0 1.45-.13 1.84-.4.4-.26.6-.67.6-1.2 0-.4-.15-.72-.42-.98-.27-.24-.7-.45-1.3-.6l-1.18-.34c-.95-.25-1.63-.5-2.03-.74-.4-.24-.7-.54-.93-.9-.23-.33-.34-.76-.34-1.26 0-.93.32-1.63.96-2.12.65-.5 1.6-.74 2.83-.74 1.1 0 1.95.2 2.6.6.65.4 1.06 1.03 1.23 1.9l-1.5.2c-.08-.46-.33-.8-.73-1.05-.4-.25-.93-.36-1.6-.36-.75 0-1.3.1-1.66.34-.36.23-.54.58-.54 1.05 0 .28.07.52.22.7.15.2.36.36.65.5.3.13.9.3 1.82.54.87.22 1.5.43 1.9.63.37.2.67.4.9.64.22.24.4.5.52.82.12.3.18.65.18 1.04zM1681.8 746.57c-.53.15-1.1.23-1.66.23-1.32 0-1.98-.78-1.98-2.32v-6.83h-1.14v-1.22h1.2l.5-2.3h1.1v2.3h1.83v1.22h-1.84v6.46c0 .5.1.85.24 1.05.16.2.43.3.82.3.22 0 .53-.05.95-.13zM1690.64 743.76c0 .96-.35 1.7-1.06 2.23-.7.5-1.7.77-2.96.77-1.23 0-2.2-.2-2.86-.62-.66-.42-1.1-1.08-1.3-1.97l1.45-.3c.15.56.45.96.88 1.22.44.26 1.06.38 1.84.38.84 0 1.44-.13 1.83-.4.4-.26.6-.67.6-1.2 0-.4-.14-.72-.4-.98-.28-.24-.72-.45-1.3-.6l-1.2-.34c-.94-.25-1.62-.5-2.02-.74-.4-.24-.7-.54-.94-.9-.24-.33-.35-.76-.35-1.26 0-.93.32-1.63.97-2.12.64-.5 1.58-.74 2.82-.74 1.1 0 1.96.2 2.6.6.65.4 1.06 1.03 1.23 1.9l-1.5.2c-.08-.46-.32-.8-.73-1.05-.4-.25-.93-.36-1.6-.36-.74 0-1.3.1-1.65.34-.37.23-.55.58-.55 1.05 0 .28.08.52.23.7.14.2.36.36.65.5.3.13.9.3 1.8.54.9.22 1.52.43 1.9.63.4.2.7.4.9.64.23.24.4.5.53.82.13.3.18.65.18 1.04z" stroke="#000" stroke-opacity="0" fill="#fff"/><use xlink:href="#h" transform="matrix(1,0,0,1,1590,768.2913385826772) translate(11.111111111111114 17.77777777777778)"/><use xlink:href="#i" transform="matrix(1,0,0,1,1590,768.2913385826772) translate(76.48148148148148 17.77777777777778)"/><defs><path fill="#333" d="M140-251c81 0 123 46 123 126C263-46 219 4 140 4 59 4 17-45 17-125s42-126 123-126zm0 227c63 0 89-41 89-101s-29-99-89-99c-61 0-89 39-89 99S79-25 140-24" id="j"/><path fill="#333" d="M115-194c55 1 70 41 70 98S169 2 115 4C84 4 66-9 55-30l1 105H24l-1-265h31l2 30c10-21 28-34 59-34zm-8 174c40 0 45-34 45-75s-6-73-45-74c-42 0-51 32-51 76 0 43 10 73 51 73" id="k"/><path fill="#333" d="M100-194c63 0 86 42 84 106H49c0 40 14 67 53 68 26 1 43-12 49-29l28 8c-11 28-37 45-77 45C44 4 14-33 15-96c1-61 26-98 85-98zm52 81c6-60-76-77-97-28-3 7-6 17-6 28h103" id="l"/><path fill="#333" d="M114-163C36-179 61-72 57 0H25l-1-190h30c1 12-1 29 2 39 6-27 23-49 58-41v29" id="m"/><path fill="#333" d="M141-36C126-15 110 5 73 4 37 3 15-17 15-53c-1-64 63-63 125-63 3-35-9-54-41-54-24 1-41 7-42 31l-33-3c5-37 33-52 76-52 45 0 72 20 72 64v82c-1 20 7 32 28 27v20c-31 9-61-2-59-35zM48-53c0 20 12 33 32 33 41-3 63-29 60-74-43 2-92-5-92 41" id="n"/><path fill="#333" d="M59-47c-2 24 18 29 38 22v24C64 9 27 4 27-40v-127H5v-23h24l9-43h21v43h35v23H59v120" id="o"/><path fill="#333" d="M100-194c62-1 85 37 85 99 1 63-27 99-86 99S16-35 15-95c0-66 28-99 85-99zM99-20c44 1 53-31 53-75 0-43-8-75-51-75s-53 32-53 75 10 74 51 75" id="p"/><g id="a"><use transform="matrix(0.06172839506172839,0,0,0.06172839506172839,0,0)" xlink:href="#j"/><use transform="matrix(0.06172839506172839,0,0,0.06172839506172839,17.28395061728395,0)" xlink:href="#k"/><use transform="matrix(0.06172839506172839,0,0,0.06172839506172839,29.629629629629626,0)" xlink:href="#l"/><use transform="matrix(0.06172839506172839,0,0,0.06172839506172839,41.9753086419753,0)" xlink:href="#m"/><use transform="matrix(0.06172839506172839,0,0,0.06172839506172839,49.32098765432098,0)" xlink:href="#n"/><use transform="matrix(0.06172839506172839,0,0,0.06172839506172839,61.66666666666666,0)" xlink:href="#o"/><use transform="matrix(0.06172839506172839,0,0,0.06172839506172839,67.83950617283949,0)" xlink:href="#p"/><use transform="matrix(0.06172839506172839,0,0,0.06172839506172839,80.18518518518518,0)" xlink:href="#m"/></g><path fill="#333" d="M185-189c-5-48-123-54-124 2 14 75 158 14 163 119 3 78-121 87-175 55-17-10-28-26-33-46l33-7c5 56 141 63 141-1 0-78-155-14-162-118-5-82 145-84 179-34 5 7 8 16 11 25" id="q"/><path fill="#333" d="M117-194c89-4 53 116 60 194h-32v-121c0-31-8-49-39-48C34-167 62-67 57 0H25l-1-190h30c1 10-1 24 2 32 11-22 29-35 61-36" id="r"/><path fill="#333" d="M85-194c31 0 48 13 60 33l-1-100h32l1 261h-30c-2-10 0-23-3-31C134-8 116 4 85 4 32 4 16-35 15-94c0-66 23-100 70-100zm9 24c-40 0-46 34-46 75 0 40 6 74 45 74 42 0 51-32 51-76 0-42-9-74-50-73" id="s"/><path fill="#333" d="M24 0v-261h32V0H24" id="t"/><g id="b"><use transform="matrix(0.06172839506172839,0,0,0.06172839506172839,0,0)" xlink:href="#q"/><use transform="matrix(0.06172839506172839,0,0,0.06172839506172839,14.814814814814813,0)" xlink:href="#o"/><use transform="matrix(0.06172839506172839,0,0,0.06172839506172839,20.98765432098765,0)" xlink:href="#n"/><use transform="matrix(0.06172839506172839,0,0,0.06172839506172839,33.33333333333333,0)" xlink:href="#r"/><use transform="matrix(0.06172839506172839,0,0,0.06172839506172839,45.679012345679006,0)" xlink:href="#s"/><use transform="matrix(0.06172839506172839,0,0,0.06172839506172839,58.02469135802468,0)" xlink:href="#n"/><use transform="matrix(0.06172839506172839,0,0,0.06172839506172839,70.37037037037037,0)" xlink:href="#t"/><use transform="matrix(0.06172839506172839,0,0,0.06172839506172839,75.24691358024691,0)" xlink:href="#p"/><use transform="matrix(0.06172839506172839,0,0,0.06172839506172839,87.5925925925926,0)" xlink:href="#r"/><use transform="matrix(0.06172839506172839,0,0,0.06172839506172839,99.93827160493828,0)" xlink:href="#l"/></g><path fill="#333" d="M233-177c-1 41-23 64-60 70L243 0h-38l-65-103H63V0H30v-248c88 3 205-21 203 71zM63-129c60-2 137 13 137-47 0-61-80-42-137-45v92" id="u"/><path fill="#333" d="M24-231v-30h32v30H24zM24 0v-190h32V0H24" id="v"/><path fill="#333" d="M96-169c-40 0-48 33-48 73s9 75 48 75c24 0 41-14 43-38l32 2c-6 37-31 61-74 61-59 0-76-41-82-99-10-93 101-131 147-64 4 7 5 14 7 22l-32 3c-4-21-16-35-41-35" id="w"/><g id="c"><use transform="matrix(0.06172839506172839,0,0,0.06172839506172839,0,0)" xlink:href="#u"/><use transform="matrix(0.06172839506172839,0,0,0.06172839506172839,15.987654320987653,0)" xlink:href="#l"/><use transform="matrix(0.06172839506172839,0,0,0.06172839506172839,28.333333333333332,0)" xlink:href="#k"/><use transform="matrix(0.06172839506172839,0,0,0.06172839506172839,40.67901234567901,0)" xlink:href="#t"/><use transform="matrix(0.06172839506172839,0,0,0.06172839506172839,45.55555555555556,0)" xlink:href="#v"/><use transform="matrix(0.06172839506172839,0,0,0.06172839506172839,50.4320987654321,0)" xlink:href="#w"/><use transform="matrix(0.06172839506172839,0,0,0.06172839506172839,61.543209876543216,0)" xlink:href="#n"/><use transform="matrix(0.06172839506172839,0,0,0.06172839506172839,73.8888888888889,0)" xlink:href="#q"/><use transform="matrix(0.06172839506172839,0,0,0.06172839506172839,88.70370370370371,0)" xlink:href="#l"/><use transform="matrix(0.06172839506172839,0,0,0.06172839506172839,101.0493827160494,0)" xlink:href="#o"/></g><path fill="#333" d="M240 0l2-218c-23 76-54 145-80 218h-23L58-218 59 0H30v-248h44l77 211c21-75 51-140 76-211h43V0h-30" id="x"/><path fill="#333" d="M177-190C167-65 218 103 67 71c-23-6-38-20-44-43l32-5c15 47 100 32 89-28v-30C133-14 115 1 83 1 29 1 15-40 15-95c0-56 16-97 71-98 29-1 48 16 59 35 1-10 0-23 2-32h30zM94-22c36 0 50-32 50-73 0-42-14-75-50-75-39 0-46 34-46 75s6 73 46 73" id="y"/><path fill="#333" d="M135-143c-3-34-86-38-87 0 15 53 115 12 119 90S17 21 10-45l28-5c4 36 97 45 98 0-10-56-113-15-118-90-4-57 82-63 122-42 12 7 21 19 24 35" id="z"/><g id="d"><use transform="matrix(0.06172839506172839,0,0,0.06172839506172839,0,0)" xlink:href="#x"/><use transform="matrix(0.06172839506172839,0,0,0.06172839506172839,18.456790123456788,0)" xlink:href="#p"/><use transform="matrix(0.06172839506172839,0,0,0.06172839506172839,30.80246913580247,0)" xlink:href="#r"/><use transform="matrix(0.06172839506172839,0,0,0.06172839506172839,43.148148148148145,0)" xlink:href="#y"/><use transform="matrix(0.06172839506172839,0,0,0.06172839506172839,55.49382716049382,0)" xlink:href="#p"/><use transform="matrix(0.06172839506172839,0,0,0.06172839506172839,67.8395061728395,0)" xlink:href="#z"/></g><path fill="#333" d="M212-179c-10-28-35-45-73-45-59 0-87 40-87 99 0 60 29 101 89 101 43 0 62-24 78-52l27 14C228-24 195 4 139 4 59 4 22-46 18-125c-6-104 99-153 187-111 19 9 31 26 39 46" id="A"/><path fill="#333" d="M101-234c-31-9-42 10-38 44h38v23H63V0H32v-167H5v-23h27c-7-52 17-82 69-68v24" id="B"/><g id="e"><use transform="matrix(0.06172839506172839,0,0,0.06172839506172839,0,0)" xlink:href="#A"/><use transform="matrix(0.06172839506172839,0,0,0.06172839506172839,15.987654320987653,0)" xlink:href="#p"/><use transform="matrix(0.06172839506172839,0,0,0.06172839506172839,28.333333333333332,0)" xlink:href="#r"/><use transform="matrix(0.06172839506172839,0,0,0.06172839506172839,40.67901234567901,0)" xlink:href="#B"/><use transform="matrix(0.06172839506172839,0,0,0.06172839506172839,46.851851851851855,0)" xlink:href="#v"/><use transform="matrix(0.06172839506172839,0,0,0.06172839506172839,51.7283950617284,0)" xlink:href="#y"/></g><path fill="#333" d="M108 0H70L1-190h34L89-25l56-165h34" id="C"/><g id="f"><use transform="matrix(0.06172839506172839,0,0,0.06172839506172839,0,0)" xlink:href="#q"/><use transform="matrix(0.06172839506172839,0,0,0.06172839506172839,14.814814814814813,0)" xlink:href="#l"/><use transform="matrix(0.06172839506172839,0,0,0.06172839506172839,27.160493827160494,0)" xlink:href="#m"/><use transform="matrix(0.06172839506172839,0,0,0.06172839506172839,34.50617283950617,0)" xlink:href="#C"/><use transform="matrix(0.06172839506172839,0,0,0.06172839506172839,45.61728395061728,0)" xlink:href="#l"/><use transform="matrix(0.06172839506172839,0,0,0.06172839506172839,57.962962962962955,0)" xlink:href="#m"/><use transform="matrix(0.06172839506172839,0,0,0.06172839506172839,65.30864197530863,0)" xlink:href="#z"/></g><path fill="#333" d="M106-169C34-169 62-67 57 0H25v-261h32l-1 103c12-21 28-36 61-36 89 0 53 116 60 194h-32v-121c2-32-8-49-39-48" id="D"/><g id="h"><use transform="matrix(0.06172839506172839,0,0,0.06172839506172839,0,0)" xlink:href="#q"/><use transform="matrix(0.06172839506172839,0,0,0.06172839506172839,14.814814814814813,0)" xlink:href="#D"/><use transform="matrix(0.06172839506172839,0,0,0.06172839506172839,27.160493827160494,0)" xlink:href="#n"/><use transform="matrix(0.06172839506172839,0,0,0.06172839506172839,39.50617283950617,0)" xlink:href="#m"/><use transform="matrix(0.06172839506172839,0,0,0.06172839506172839,46.85185185185185,0)" xlink:href="#s"/></g><path fill="#333" d="M210-169c-67 3-38 105-44 169h-31v-121c0-29-5-50-35-48C34-165 62-65 56 0H25l-1-190h30c1 10-1 24 2 32 10-44 99-50 107 0 11-21 27-35 58-36 85-2 47 119 55 194h-31v-121c0-29-5-49-35-48" id="E"/><path fill="#333" d="M115-194c53 0 69 39 70 98 0 66-23 100-70 100C84 3 66-7 56-30L54 0H23l1-261h32v101c10-23 28-34 59-34zm-8 174c40 0 45-34 45-75 0-40-5-75-45-74-42 0-51 32-51 76 0 43 10 73 51 73" id="F"/><g id="i"><use transform="matrix(0.06172839506172839,0,0,0.06172839506172839,0,0)" xlink:href="#x"/><use transform="matrix(0.06172839506172839,0,0,0.06172839506172839,18.456790123456788,0)" xlink:href="#l"/><use transform="matrix(0.06172839506172839,0,0,0.06172839506172839,30.80246913580247,0)" xlink:href="#E"/><use transform="matrix(0.06172839506172839,0,0,0.06172839506172839,49.25925925925925,0)" xlink:href="#F"/><use transform="matrix(0.06172839506172839,0,0,0.06172839506172839,61.60493827160493,0)" xlink:href="#l"/><use transform="matrix(0.06172839506172839,0,0,0.06172839506172839,73.9506172839506,0)" xlink:href="#m"/><use transform="matrix(0.06172839506172839,0,0,0.06172839506172839,81.29629629629629,0)" xlink:href="#z"/></g></defs></g></svg>