<svg xmlns="http://www.w3.org/2000/svg" xmlns:xlink="http://www.w3.org/1999/xlink" height="400" width="680"><path d="M650 0a30 30 0 0 1 30 30v340a30 30 0 0 1-30 30H30a30 30 0 0 1-30-30V30A30 30 0 0 1 30 0z" opacity=".8" fill="#ccc" stroke="#000" stroke-width="2"/><path d="M99.9 325.3c-2.6 0-4.8 1.8-5.8 4.2H57.3c-6.2 0-11.3-5.7-11.3-12.8 0-7.1 5-12.8 11.3-12.8h5.2l1-4.2c.4-.4.5-1 .8-1.4 2.5-5.1 7.4-8.5 13-8.5 5 0 9.3 2.8 12 6.9 1.6-1 3.3-1.5 5-2a19.7 19.7 0 0 0-17-10.6c-8.4 0-15.6 5.9-18.6 14h-1.4c-9 .3-16.3 8.6-16.3 18.8 0 10 7.3 18.4 16.3 18.4h37c1 2.5 3.1 4.2 5.7 4.2 3.5 0 6.3-3.2 6.3-7.1-.2-3.9-3-7-6.4-7z" fill="#0078d7"/><path d="M119.4 357c11.1 0 20.6-10.6 20.6-23.2 0-12.4-8.9-22.5-19.9-22.6A22.4 22.4 0 0 0 99.9 297c-10.8 0-19.8 8.6-22 19.9-5.3.6-9.8 3.8-12.7 8.3h27a9.4 9.4 0 0 1 7.8-4.2c5.5 0 10 5 10 11.3 0 6.3-4.5 11.4-10 11.4-3.2 0-6-1.6-7.8-4.2h-30c1.2 9.5 8 17.4 16.8 17.4h40.4z" fill="#0078d7"/><path d="M6.5 357h169v34.9H6.5z" fill="none"/><use height="100%" width="100%" transform="translate(31.6 380.7)" xlink:href="#a"/><use height="100%" width="100%" transform="translate(106.5 380.7)" xlink:href="#b"/><path d="M21 242.6h220V21H21z" fill="#b2b2b2"/><use height="100%" width="100%" transform="translate(82 233.2)" xlink:href="#c"/><use height="100%" width="100%" transform="translate(122 233.2)" xlink:href="#d"/><path d="M214.2 157.3H47.8a6.7 6.7 0 0 0-6.8 6.6v41c0 4 3 6.9 6.8 6.9h166.4c3.7 0 6.8-2.9 6.8-6.8v-41c0-3.9-2.9-6.7-6.8-6.7zM56.2 205c-3.5 0-6.6-3-6.6-6.4 0-3.5 3.1-6.3 6.5-6.3 3.6 0 6.5 2.8 6.5 6.3 0 3.4-3 6.4-6.5 6.4zm151.5-2.7h-36.4c-1.4 0-2.1-.7-2.1-2 0-1.2.7-2.1 2.1-2.1h36.4a2 2 0 0 1 2.1 2.2c0 1.2-.9 2-2.1 2zm0-6.6h-36.4c-1.4 0-2.1-1-2.1-2.2 0-1.2.7-2.1 2.1-2.1h36.4a2 2 0 0 1 2.1 2.1 2 2 0 0 1-2.1 2.2zm0-6.9h-36.4c-1.4 0-2.1-.7-2.1-2.1 0-1.3.7-2 2.1-2h36.4c1.2 0 2.1.7 2.1 2a2 2 0 0 1-2.1 2.1zm6.5-94.5H47.8a6.9 6.9 0 0 0-6.8 6.9v41c0 3.8 3 6.9 6.8 6.9h166.4c3.7 0 6.8-3.1 6.8-6.9v-41c0-3.8-2.9-6.9-6.8-6.9zm-158 48a6.5 6.5 0 0 1-6.6-6.4c0-3.4 3.1-6.3 6.5-6.3 3.6 0 6.5 2.9 6.5 6.3s-3 6.3-6.5 6.3zm151.5-2.6h-36.4c-1.4 0-2.1-.7-2.1-2.2 0-1.2.7-2 2.1-2h36.4c1.2 0 2.1.8 2.1 2a2 2 0 0 1-2.1 2.2zm0-6.7h-36.4c-1.4 0-2.1-.9-2.1-2.1 0-1.3.7-2.2 2.1-2.2h36.4a2 2 0 0 1 2.1 2.2 2 2 0 0 1-2.1 2.1zm0-6.8h-36.4c-1.4 0-2.1-.9-2.1-2.2 0-1.2.7-2.1 2.1-2.1h36.4a2 2 0 0 1 2.1 2.1 2 2 0 0 1-2.1 2.2zm6.5-94.5H47.8a6.7 6.7 0 0 0-6.8 6.8v41c0 3.9 3 6.7 6.8 6.7h166.4c3.7 0 6.8-2.8 6.8-6.6v-41c0-3.8-2.9-6.9-6.8-6.9zm-158 47.9a6.5 6.5 0 0 1-6.6-6.3c0-3.4 3.1-6.5 6.5-6.5 3.6 0 6.5 3 6.5 6.5 0 3.4-3 6.3-6.5 6.3zm151.5-2.5h-36.4c-1.4 0-2.1-1-2.1-2.2 0-1.3.7-2.2 2.1-2.2h36.4a2 2 0 0 1 2.1 2.2 2 2 0 0 1-2.1 2.2zm0-6.9h-36.4c-1.4 0-2.1-.7-2.1-2.1 0-1.3.7-2 2.1-2h36.4c1.2 0 2.1.7 2.1 2 0 1.4-.9 2.1-2.1 2.1zm0-6.6h-36.4c-1.4 0-2.1-1-2.1-2.2 0-1.3.7-2.2 2.1-2.2h36.4a2 2 0 0 1 2.1 2.2c0 .9-.9 2.2-2.1 2.2z" fill="#2a3282" fill-opacity=".5"/><path d="M71.3 72.8v7.4c.8 3.2 4.1 4.9 9.9 6.8 10.9 2.4 15 3.4 29.7 3.5 14.7 0 18.6-1 30-3.4 4.2-1.2 9.5-3.7 9.7-7v-7.7c-8 .2-79.3-.6-79.3.4z" fill="#698c4d"/><path d="M150.8 73c0 6.2-17.8 11.2-39.8 11.2-22 0-39.8-5-39.8-11.2 0-6.2 17.8-11.2 39.8-11.2 22 0 39.8 5 39.8 11.2z" fill="#a3d977"/><path d="M71.4 144.1v7.4c.7 3.1 3.9 4.4 9.6 6.3 10.9 2.4 15.3 3.3 30 3.5 14.7 0 20.7-1.2 32-3.5 4.3-1.3 7.4-3.1 7.6-6.4v-7.7c-7.8.1-79.3-.6-79.3.4z" fill="#698c4d"/><path d="M71.4 85.7v59.6c.7 3.1 3.9 4.4 9.6 6.3 10.9 2.4 15.3 3.3 30 3.5 14.7 0 20.7-1.2 32-3.5 4.3-1.3 7.4-3.1 7.6-6.4V85.3c-5.9 14.4-77.9 9-79.3.4z" fill="#a3d977"/><use height="100%" width="100%" transform="translate(72.3 180)" xlink:href="#e"/><path d="M319 357.1h340V26.5H319z" fill="#b2b2b2"/><use height="100%" width="100%" transform="translate(440 348.2)" xlink:href="#c"/><use height="100%" width="100%" transform="translate(480 348.2)" xlink:href="#d"/><path d="M609.1 234H369c-5.5 0-9.9 4.6-9.9 10.7v66c0 6.5 4.4 11.1 9.9 11.1h240c5.5 0 9.9-4.6 9.9-11v-66.1c0-6.1-4.2-10.8-9.9-10.8zm-228.3 77c-4.9 0-9.3-4.9-9.3-10.4s4.4-10.1 9.3-10.1c5.2 0 9.4 4.6 9.4 10.1s-4.4 10.5-9.4 10.5zm219-4.3h-52.6c-2 0-3-1.1-3-3.2 0-2 1-3.5 3-3.5h52.6c1.8 0 3 1.5 3 3.5s-1.2 3.2-3 3.2zm0-10.7h-52.6c-2 0-3-1.5-3-3.5s1-3.5 3-3.5h52.6c1.8 0 3 1.5 3 3.5s-1.2 3.5-3 3.5zm0-11h-52.6c-2 0-3-1.2-3-3.5 0-2 1-3.2 3-3.2h52.6c1.8 0 3 1.1 3 3.2 0 2-1.2 3.4-3 3.4zm9.3-152.3H369c-5.5 0-9.9 5-9.9 11V210c0 6 4.4 11 9.9 11h240c5.5 0 9.9-5 9.9-11v-66.2c0-6-4.2-11-9.9-11zM380.8 210c-4.9 0-9.3-4.7-9.3-10.2 0-5.5 4.4-10.1 9.3-10.1 5.2 0 9.4 4.6 9.4 10.1s-4.4 10.2-9.4 10.2zm219-4.1h-52.6c-2 0-3-1.2-3-3.5 0-2 1-3.2 3-3.2h52.6c1.8 0 3 1.2 3 3.2s-1.2 3.5-3 3.5zm0-10.7h-52.6c-2 0-3-1.5-3-3.5s1-3.5 3-3.5h52.6c1.8 0 3 1.4 3 3.5 0 2-1.2 3.5-3 3.5zm0-11h-52.6c-2 0-3-1.5-3-3.5s1-3.5 3-3.5h52.6c1.8 0 3 1.4 3 3.5 0 2-1.2 3.4-3 3.4zM609 31.7H369c-5.5 0-9.9 4.6-9.9 11V109c0 6.1 4.4 10.8 9.9 10.8h240c5.5 0 9.9-4.7 9.9-10.8V43c0-6.2-4.2-11.1-9.9-11.1zm-228.3 77.1c-4.9 0-9.3-4.6-9.3-10.1s4.4-10.5 9.3-10.5c5.2 0 9.4 5 9.4 10.5s-4.4 10.1-9.4 10.1zm219-4h-52.6c-2 0-3-1.5-3-3.5s1-3.5 3-3.5h52.6c1.8 0 3 1.5 3 3.5s-1.2 3.5-3 3.5zm0-11h-52.6c-2 0-3-1.2-3-3.5 0-2 1-3.2 3-3.2h52.6c1.8 0 3 1.1 3 3.2 0 2.3-1.2 3.5-3 3.5zm0-10.8h-52.6c-2 0-3-1.4-3-3.5 0-2 1-3.4 3-3.4h52.6c1.8 0 3 1.4 3 3.4 0 1.5-1.2 3.5-3 3.5z" fill="#2a3282" fill-opacity=".5"/><path d="M399 52.8v7.4c.9 3.2 4.2 4.9 10 6.8 10.8 2.4 15 3.4 29.7 3.5 14.7 0 18.6-1 30-3.4 4.2-1.2 9.5-3.7 9.7-7v-7.7c-8 .2-79.3-.6-79.3.4z" fill="#698c4d"/><path d="M478.6 53c0 6.2-17.8 11.2-39.8 11.2-22 0-39.8-5-39.8-11.2 0-6.2 17.8-11.2 39.8-11.2 22 0 39.8 5 39.8 11.2z" fill="#a3d977"/><path d="M399.2 124.1v7.4c.7 3.1 3.9 4.4 9.6 6.3 10.9 2.4 15.3 3.3 30 3.5 14.7 0 20.7-1.2 32-3.5 4.3-1.3 7.4-3.1 7.6-6.4v-7.7c-7.8.1-79.2-.6-79.2.4z" fill="#698c4d"/><path d="M399.2 65.7v59.6c.7 3.1 3.9 4.4 9.6 6.3 10.9 2.4 15.3 3.3 30 3.5 14.7 0 20.7-1.2 32-3.5 4.3-1.3 7.4-3.1 7.6-6.4V65.3c-5.9 14.4-77.9 9-79.2.4z" fill="#a3d977"/><use height="100%" width="100%" transform="translate(400.1 160)" xlink:href="#e"/><path d="M399 192.8v7.4c.9 3.2 4.2 4.9 10 6.8 10.8 2.4 15 3.4 29.7 3.5 14.7 0 18.6-1 30-3.4 4.2-1.2 9.5-3.7 9.7-7v-7.7c-8 .2-79.3-.6-79.3.4z" fill="#698c4d"/><path d="M478.6 193c0 6.2-17.8 11.2-39.8 11.2-22 0-39.8-5-39.8-11.2 0-6.2 17.8-11.2 39.8-11.2 22 0 39.8 5 39.8 11.2z" fill="#a3d977"/><path d="M399.2 264.1v7.4c.7 3.1 3.9 4.4 9.6 6.3 10.9 2.4 15.3 3.3 30 3.5 14.7 0 20.7-1.2 32-3.5 4.3-1.3 7.4-3.1 7.6-6.4v-7.7c-7.8.1-79.2-.6-79.2.4z" fill="#698c4d"/><path d="M399.2 205.7v59.6c.7 3.1 3.9 4.4 9.6 6.3 10.9 2.4 15.3 3.3 30 3.5 14.7 0 20.7-1.2 32-3.5 4.3-1.3 7.4-3.1 7.6-6.4v-59.9c-5.9 14.4-77.9 9-79.2.4z" fill="#a3d977"/><use height="100%" width="100%" transform="translate(400.1 300)" xlink:href="#e"/><defs><path id="f" d="M1266-1397h186V0h-201v-1087L821-547h-37l-434-540V0H150v-1397h188l465 574"/><path id="g" d="M117-1200c0-54 52-107 106-107 58 0 109 49 109 107 0 57-51 108-109 108-54 0-106-53-106-108zm16 280h182V0H133v-920"/><path id="h" d="M262-461c0 187 127 307 316 307 70 0 150-20 241-61v180C728-1 638 16 551 16 268 16 78-172 78-455c0-278 181-487 454-483 122 2 168 22 267 64v194c-92-59-177-88-256-88-165 0-281 138-281 307"/><path id="i" d="M541-764c-125-1-217 148-217 283V0H141v-920h183v211c142-236 286-310 489-125l-96 160c-63-60-122-90-176-90"/><path id="j" d="M76-451c0-267 222-471 493-471s488 207 488 476c0 265-225 462-496 462C296 16 76-188 76-451zm796-4c0-172-139-303-313-303-172 0-299 133-299 305 0 174 132 299 307 299 174 0 305-128 305-301"/><path id="k" d="M391 16C248 13 200-13 84-66v-196c78 54 186 115 293 121 64 4 138-37 139-95 0-27-8-48-26-66s-56-44-115-77c-117-65-195-121-231-167s-54-97-54-152c-1-149 137-240 295-240 90 0 182 25 277 76v180c-108-65-196-98-265-98-93 0-157 78-89 143 29 27 119 78 169 107 153 87 230 183 230 288C708-83 559 21 391 16"/><path id="l" d="M522-1235c-182-2-191 119-190 315h164v164H332V0H150v-756H18v-164h132c-6-169 22-306 94-386 96-107 202-131 362-91v178c-29-11-57-16-84-16"/><path id="m" d="M0-774l342-336v190h291v164H342v451c0 105 44 158 131 158 65 0 134-22 207-66v170C550 33 349 44 243-57c-73-70-84-127-83-291v-408H0v-18"/><g id="a"><use height="100%" width="100%" xlink:href="#f" transform="scale(.00879)"/><use height="100%" width="100%" xlink:href="#g" transform="translate(14) scale(.00879)"/><use height="100%" width="100%" xlink:href="#h" transform="translate(18) scale(.00879)"/><use height="100%" width="100%" xlink:href="#i" transform="translate(25.9) scale(.00879)"/><use height="100%" width="100%" xlink:href="#j" transform="translate(32.6) scale(.00879)"/><use height="100%" width="100%" xlink:href="#k" transform="translate(42.5) scale(.00879)"/><use height="100%" width="100%" xlink:href="#j" transform="translate(49.4) scale(.00879)"/><use height="100%" width="100%" xlink:href="#l" transform="translate(59.4) scale(.00879)"/><use height="100%" width="100%" xlink:href="#m" transform="translate(63.9) scale(.00879)"/></g><path id="n" d="M600-1405h141L1366 0h-205L975-414H381L205 0H0zm293 813l-225-506-209 506h434"/><path id="o" d="M43-920h786L342-170h487V0H23l483-750H43v-170"/><path id="p" d="M307-395c4 175 28 260 187 260 87 0 160-42 221-127v-658h182V0H715v-117C629-10 424 68 274-28c-116-74-149-155-149-365v-527h182v525"/><path id="q" d="M512-938c262 0 413 213 401 494H266c6 169 125 288 299 288 120 0 231-37 332-112v178C790-20 702 12 537 14c-210 1-322-95-397-232-39-71-56-154-56-247 0-265 171-473 428-473zm221 385c-7-136-83-227-221-227-143 0-220 95-242 227h463"/><g id="b"><use height="100%" width="100%" xlink:href="#n" transform="scale(.00879)"/><use height="100%" width="100%" xlink:href="#o" transform="translate(12) scale(.00879)"/><use height="100%" width="100%" xlink:href="#p" transform="translate(19.5) scale(.00879)"/><use height="100%" width="100%" xlink:href="#i" transform="translate(28.5) scale(.00879)"/><use height="100%" width="100%" xlink:href="#q" transform="translate(35.3) scale(.00879)"/></g><path id="r" d="M156-1397h745v178H356v390h545v178H356V0H156v-1397"/><path id="s" d="M279 14C154 14 49-84 55-209c11-240 284-270 473-344 10-137-37-215-166-215-99 0-196 51-290 154v-199c71-83 172-125 305-125 171 0 301 80 323 228s4 380 7 548c0 31 11 47 32 47 22 0 56-16 103-49v111c-70 41-94 69-178 69-78 0-124-31-138-92-77 60-160 90-247 90zm-43-254c-2 75 56 129 131 129 58 0 112-24 161-71v-273c-79 31-209 74-254 121-25 26-38 57-38 94"/><path id="t" d="M133-1397h182V0H133v-1397"/><g id="c"><use height="100%" width="100%" xlink:href="#r" transform="scale(.00879)"/><use height="100%" width="100%" xlink:href="#s" transform="translate(8.4) scale(.00879)"/><use height="100%" width="100%" xlink:href="#p" transform="translate(16.1) scale(.00879)"/><use height="100%" width="100%" xlink:href="#t" transform="translate(25.1) scale(.00879)"/><use height="100%" width="100%" xlink:href="#m" transform="translate(29) scale(.00879)"/></g><path id="u" d="M156-2v-1395c320 6 719-24 922 85 196 105 362 331 362 614 0 389-252 626-590 686C683 18 359-5 156-2zm659-1206c-102-18-324-9-459-11v1039c154-2 375 6 489-20 233-53 388-252 388-509 0-263-178-456-418-499"/><path id="v" d="M1276-545c1-139-53-237-182-237-75 0-146 38-211 114V0H700v-512c-4-181-24-274-184-274-109 0-143 48-213 118V0H121v-920h182v121c93-93 183-139 272-139 117 0 207 55 271 166 97-112 199-168 305-168 205 0 307 161 307 397V0h-182v-545"/><path id="w" d="M717-524c-3-169-33-262-187-262-86 0-159 43-219 129V0H125v-920h186v117c117-131 280-184 437-91 117 70 151 162 151 368V0H717v-524"/><g id="d"><use height="100%" width="100%" xlink:href="#u" transform="scale(.00879)"/><use height="100%" width="100%" xlink:href="#j" transform="translate(13.5) scale(.00879)"/><use height="100%" width="100%" xlink:href="#v" transform="translate(23.4) scale(.00879)"/><use height="100%" width="100%" xlink:href="#s" transform="translate(37.3) scale(.00879)"/><use height="100%" width="100%" xlink:href="#g" transform="translate(45) scale(.00879)"/><use height="100%" width="100%" xlink:href="#w" transform="translate(49) scale(.00879)"/></g><path id="x" d="M41-623h55l154 305 157-306h53V1h-66v-471L259-219h-27L106-467V1H41v-624"/><path id="y" d="M460-226c0 151-97 238-205 238C140 12 40-86 40-225c0-141 101-242 217-242 104 0 203 83 203 241zm-72 3c1-245-271-238-272-8-5 228 272 366 272 8"/><path id="z" d="M274-405c-78 10-132 62-132 142V0H68v-457h74v81c34-51 89-92 151-92 88 0 139 91 139 191V0h-71v-275c9-55-27-138-87-130"/><path id="A" d="M126-314c0 55 45 100 101 100s100-45 100-100-44-101-100-101-101 46-101 101zm11 199c9 36 35 35 92 35 52 0 107-6 155 13 49 20 71 59 71 99 0 61-55 140-210 140C85 172 38 114 38 64c0-36 26-70 75-101-29-15-37-42-37-61 0-29 19-60 52-88-42-27-68-74-68-124 0-133 184-217 279-118 35-30 81-45 127-41l9 59c-41-6-74 2-106 20 77 121-53 276-200 223-4 4-32 28-32 52zm107 233c53 0 145-29 145-81 0-20-11-48-54-53s-135-1-174-8c-52 25-92 93-12 127 35 14 74 15 95 15"/><path id="B" d="M460-313C457-127 378 7 187 1H54v-624h145c184-10 263 137 261 310zM120-564v510c75-2 122 10 180-28 50-33 90-102 90-221 0-89-20-179-78-226-59-48-109-32-192-35"/><path id="C" d="M457-173C457-69 349 0 224 0H48v-623h177c109-13 207 59 207 152 0 60-36 114-92 137 70 24 117 88 117 161zm-95-291c0-61-72-100-146-100h-99v199h98c73 9 147-36 147-99zm21 284c0-74-75-126-164-126H117v245h119c82 8 147-49 147-119"/><g id="e"><use height="100%" width="100%" xlink:href="#x" transform="scale(.02222)"/><use height="100%" width="100%" xlink:href="#y" transform="translate(11.1) scale(.02222)"/><use height="100%" width="100%" xlink:href="#z" transform="translate(22.2) scale(.02222)"/><use height="100%" width="100%" xlink:href="#A" transform="translate(33.3) scale(.02222)"/><use height="100%" width="100%" xlink:href="#y" transform="translate(44.4) scale(.02222)"/><use height="100%" width="100%" xlink:href="#B" transform="translate(55.6) scale(.02222)"/><use height="100%" width="100%" xlink:href="#C" transform="translate(66.7) scale(.02222)"/></g></defs></svg>