<svg xmlns="http://www.w3.org/2000/svg" xmlns:xlink="http://www.w3.org/1999/xlink" width="680" height="400"><g transform="translate(0 0)"><path d="M650 0c16.57 0 30 13.43 30 30v340c0 16.57-13.43 30-30 30H30c-16.57 0-30-13.43-30-30V30C0 13.43 13.43 0 30 0z" stroke="#000" stroke-width="2" fill="#ccc" opacity=".75"/><path d="M99.9 325.3c-2.57 0-4.75 1.75-5.84 4.22H57.34c-6.24 0-11.3-5.68-11.3-12.82 0-7.15 4.96-12.83 11.3-12.83h5.14c.3-1.4.6-2.84 1.1-4.16.3-.42.4-1 .7-1.44 2.56-5.1 7.4-8.46 12.95-8.46 5.05 0 9.4 2.77 12.08 6.85 1.6-.87 3.28-1.45 4.96-1.9-3.66-6.4-9.8-10.63-17.03-10.63-8.3 0-15.54 5.83-18.5 14.06v0h-1.4c-9 .22-16.33 8.46-16.33 18.66 0 10.13 7.33 18.44 16.34 18.44h36.92c1 2.48 3.17 4.23 5.74 4.23 3.47 0 6.34-3.2 6.34-7.13-.2-3.87-2.97-7.07-6.44-7.07z" fill="#0078d7"/><path d="M119.4 357c11.1 0 20.6-10.64 20.6-23.18 0-12.46-8.9-22.52-19.9-22.66-3.76-8.46-11.38-14.07-20.2-14.07-10.8 0-19.8 8.6-21.97 19.9-5.35.57-9.8 3.78-12.68 8.3h26.93c1.78-2.63 4.66-4.23 7.82-4.23 5.55 0 10 5.1 10 11.37s-4.45 11.37-10 11.37c-3.16 0-5.94-1.6-7.82-4.22h-30C63.4 349.13 70.2 357 79.03 357h40.4z" fill="#0078d7"/><path d="M6.5 357h169v34.88H6.5z" fill="none"/><use xlink:href="#a" transform="matrix(1,0,0,1,11.5,362) translate(20.12548828125 18.6875)"/><use xlink:href="#b" transform="matrix(1,0,0,1,11.5,362) translate(94.97314453125 18.6875)"/><path d="M21 242.6h220V21H21z" fill="#b2b2b2"/><use xlink:href="#c" transform="matrix(1,0,0,1,26,26) translate(55.99658203125 207.1875)"/><use xlink:href="#d" transform="matrix(1,0,0,1,26,26) translate(96.06591796875 207.1875)"/><path d="M214.16 157.26H47.84c-3.78 0-6.84 2.88-6.84 6.66v41.04c0 3.96 3.06 6.84 6.84 6.84h166.32c3.78 0 6.84-2.88 6.84-6.84v-41.04c0-3.78-2.88-6.66-6.84-6.66zM56.12 205.14c-3.42 0-6.48-3.06-6.48-6.48 0-3.42 3.06-6.3 6.48-6.3 3.6 0 6.48 2.88 6.48 6.3s-3.06 6.48-6.48 6.48zm151.56-2.7h-36.36c-1.44 0-2.16-.72-2.16-1.98s.72-2.16 2.16-2.16h36.36c1.26 0 2.16.9 2.16 2.16 0 1.26-.9 1.98-2.16 1.98zm0-6.66h-36.36c-1.44 0-2.16-.9-2.16-2.16 0-1.26.72-2.16 2.16-2.16h36.36c1.26 0 2.16.9 2.16 2.16 0 1.26-.9 2.16-2.16 2.16zm0-6.84h-36.36c-1.44 0-2.16-.72-2.16-2.16 0-1.26.72-1.98 2.16-1.98h36.36c1.26 0 2.16.72 2.16 1.98s-.9 2.16-2.16 2.16zM214.16 94.44H47.84c-3.78 0-6.84 3.06-6.84 6.84v41.04c0 3.78 3.06 6.84 6.84 6.84h166.32c3.78 0 6.84-3.06 6.84-6.84v-41.04c0-3.78-2.88-6.84-6.84-6.84zM56.12 142.32c-3.42 0-6.48-2.88-6.48-6.3s3.06-6.3 6.48-6.3c3.6 0 6.48 2.88 6.48 6.3s-3.06 6.3-6.48 6.3zm151.56-2.52h-36.36c-1.44 0-2.16-.72-2.16-2.16 0-1.26.72-1.98 2.16-1.98h36.36c1.26 0 2.16.72 2.16 1.98s-.9 2.16-2.16 2.16zm0-6.66h-36.36c-1.44 0-2.16-.9-2.16-2.16 0-1.26.72-2.16 2.16-2.16h36.36c1.26 0 2.16.9 2.16 2.16 0 1.26-.9 2.16-2.16 2.16zm0-6.84h-36.36c-1.44 0-2.16-.9-2.16-2.16 0-1.26.72-2.16 2.16-2.16h36.36c1.26 0 2.16.9 2.16 2.16 0 1.26-.9 2.16-2.16 2.16zM214.16 31.8H47.84c-3.78 0-6.84 2.88-6.84 6.84v41.04c0 3.78 3.06 6.66 6.84 6.66h166.32c3.78 0 6.84-2.88 6.84-6.66V38.64c0-3.78-2.88-6.84-6.84-6.84zM56.12 79.68c-3.42 0-6.48-2.88-6.48-6.3s3.06-6.48 6.48-6.48c3.6 0 6.48 3.06 6.48 6.48 0 3.42-3.06 6.3-6.48 6.3zm151.56-2.52h-36.36c-1.44 0-2.16-.9-2.16-2.16 0-1.26.72-2.16 2.16-2.16h36.36c1.26 0 2.16.9 2.16 2.16 0 1.26-.9 2.16-2.16 2.16zm0-6.84h-36.36c-1.44 0-2.16-.72-2.16-2.16 0-1.26.72-1.98 2.16-1.98h36.36c1.26 0 2.16.72 2.16 1.98 0 1.44-.9 2.16-2.16 2.16zm0-6.66h-36.36c-1.44 0-2.16-.9-2.16-2.16 0-1.26.72-2.16 2.16-2.16h36.36c1.26 0 2.16.9 2.16 2.16 0 .9-.9 2.16-2.16 2.16z" fill="#2a3282" fill-opacity=".5"/><path d="M71.28 72.8v7.4c.8 3.2 4.14 4.9 9.87 6.8 10.9 2.4 15.04 3.4 29.77 3.5 14.73 0 18.63-1 29.93-3.4 4.3-1.2 9.55-3.7 9.8-7v-7.7c-7.97.2-79.37-.6-79.37.4z" fill="#698c4d"/><path d="M150.8 73c0 6.2-17.83 11.2-39.8 11.2s-39.8-5-39.8-11.2c0-6.2 17.83-11.2 39.8-11.2s39.8 5 39.8 11.2z" fill="#a3d977"/><path d="M71.36 144.1v7.4c.72 3.1 3.9 4.4 9.63 6.3 10.9 2.4 15.27 3.3 30 3.5 14.73 0 20.7-1.2 32-3.5 4.3-1.3 7.4-3.1 7.64-6.4v-7.7c-7.88.1-79.28-.6-79.28.4z" fill="#698c4d"/><path d="M71.36 85.7v59.6c.72 3.1 3.9 4.4 9.63 6.3 10.9 2.4 15.27 3.3 30 3.5 14.73 0 20.7-1.2 32-3.5 4.3-1.3 7.4-3.1 7.64-6.4V85.3c-5.9 14.4-77.93 9-79.28.4z" fill="#a3d977"/><use xlink:href="#e" transform="matrix(1,0,0,1,71.2,161.8) translate(1.1111111111111072 18.22222222222222)"/><path d="M319 357.14h340V26.46H319z" fill="#b2b2b2"/><use xlink:href="#c" transform="matrix(1,0,0,1,324,31.464062499999997) translate(115.99658203125 316.6875)"/><use xlink:href="#d" transform="matrix(1,0,0,1,324,31.464062499999997) translate(156.06591796875 316.6875)"/><path d="M609.12 233.93H368.88c-5.46 0-9.88 4.64-9.88 10.73v66.12c0 6.38 4.42 11.02 9.88 11.02h240.24c5.46 0 9.88-4.64 9.88-11.02v-66.12c0-6.1-4.16-10.73-9.88-10.73zm-228.28 77.14c-4.94 0-9.36-4.93-9.36-10.44 0-5.5 4.42-10.15 9.36-10.15 5.2 0 9.36 4.64 9.36 10.15 0 5.5-4.42 10.44-9.36 10.44zm218.92-4.35h-52.52c-2.08 0-3.12-1.16-3.12-3.2 0-2.02 1.04-3.47 3.12-3.47h52.52c1.82 0 3.12 1.45 3.12 3.48 0 2.03-1.3 3.2-3.12 3.2zm0-10.73h-52.52c-2.08 0-3.12-1.46-3.12-3.5 0-2.02 1.04-3.47 3.12-3.47h52.52c1.82 0 3.12 1.45 3.12 3.48 0 2.04-1.3 3.5-3.12 3.5zm0-11.03h-52.52c-2.08 0-3.12-1.16-3.12-3.48 0-2.04 1.04-3.2 3.12-3.2h52.52c1.82 0 3.12 1.16 3.12 3.2 0 2.02-1.3 3.47-3.12 3.47zM609.12 132.72H368.88c-5.46 0-9.88 4.93-9.88 11.02v66.12c0 6.1 4.42 11.02 9.88 11.02h240.24c5.46 0 9.88-4.93 9.88-11.02v-66.12c0-6.1-4.16-11.02-9.88-11.02zm-228.28 77.14c-4.94 0-9.36-4.64-9.36-10.15 0-5.5 4.42-10.14 9.36-10.14 5.2 0 9.36 4.64 9.36 10.15 0 5.52-4.42 10.16-9.36 10.16zm218.92-4.06h-52.52c-2.08 0-3.12-1.16-3.12-3.48 0-2.03 1.04-3.2 3.12-3.2h52.52c1.82 0 3.12 1.17 3.12 3.2 0 2.03-1.3 3.48-3.12 3.48zm0-10.73h-52.52c-2.08 0-3.12-1.45-3.12-3.48 0-2.04 1.04-3.5 3.12-3.5h52.52c1.82 0 3.12 1.46 3.12 3.5 0 2.02-1.3 3.47-3.12 3.47zm0-11.02h-52.52c-2.08 0-3.12-1.45-3.12-3.48 0-2.03 1.04-3.48 3.12-3.48h52.52c1.82 0 3.12 1.44 3.12 3.47 0 2.03-1.3 3.48-3.12 3.48zM609.12 31.8H368.88c-5.46 0-9.88 4.64-9.88 11.02v66.12c0 6.1 4.42 10.73 9.88 10.73h240.24c5.46 0 9.88-4.64 9.88-10.73V42.82c0-6.1-4.16-11.02-9.88-11.02zm-228.28 77.14c-4.94 0-9.36-4.64-9.36-10.15 0-5.52 4.42-10.45 9.36-10.45 5.2 0 9.36 4.93 9.36 10.44 0 5.5-4.42 10.14-9.36 10.14zm218.92-4.06h-52.52c-2.08 0-3.12-1.45-3.12-3.48 0-2.03 1.04-3.48 3.12-3.48h52.52c1.82 0 3.12 1.45 3.12 3.48 0 2.03-1.3 3.48-3.12 3.48zm0-11.02h-52.52c-2.08 0-3.12-1.16-3.12-3.48 0-2.03 1.04-3.2 3.12-3.2h52.52c1.82 0 3.12 1.17 3.12 3.2 0 2.32-1.3 3.48-3.12 3.48zm0-10.73h-52.52c-2.08 0-3.12-1.45-3.12-3.48 0-2.03 1.04-3.48 3.12-3.48h52.52c1.82 0 3.12 1.45 3.12 3.48 0 1.45-1.3 3.48-3.12 3.48z" fill="#2a3282" fill-opacity=".5"/><path d="M399.08 52.8v7.4c.8 3.2 4.14 4.9 9.87 6.8 10.9 2.4 15.04 3.4 29.77 3.5 14.73 0 18.63-1 29.93-3.4 4.3-1.2 9.55-3.7 9.8-7v-7.7c-7.97.2-79.37-.6-79.37.4z" fill="#698c4d"/><path d="M478.6 53c0 6.2-17.83 11.2-39.8 11.2S399 59.2 399 53c0-6.2 17.83-11.2 39.8-11.2s39.8 5 39.8 11.2z" fill="#a3d977"/><path d="M399.16 124.1v7.4c.72 3.1 3.9 4.4 9.63 6.3 10.9 2.4 15.27 3.3 30 3.5 14.73 0 20.7-1.2 32-3.5 4.3-1.3 7.4-3.1 7.64-6.4v-7.7c-7.88.1-79.28-.6-79.28.4z" fill="#698c4d"/><path d="M399.16 65.7v59.6c.72 3.1 3.9 4.4 9.63 6.3 10.9 2.4 15.27 3.3 30 3.5 14.73 0 20.7-1.2 32-3.5 4.3-1.3 7.4-3.1 7.64-6.4V65.3c-5.9 14.4-77.93 9-79.28.4z" fill="#a3d977"/><use xlink:href="#e" transform="matrix(1,0,0,1,399,141.8) translate(1.1111111111111072 18.22222222222222)"/><path d="M399.08 192.8v7.4c.8 3.2 4.14 4.9 9.87 6.8 10.9 2.4 15.04 3.4 29.77 3.5 14.73 0 18.63-1 29.93-3.4 4.3-1.2 9.55-3.7 9.8-7v-7.7c-7.97.2-79.37-.6-79.37.4z" fill="#698c4d"/><path d="M478.6 193c0 6.2-17.83 11.2-39.8 11.2s-39.8-5-39.8-11.2c0-6.2 17.83-11.2 39.8-11.2s39.8 5 39.8 11.2z" fill="#a3d977"/><path d="M399.16 264.1v7.4c.72 3.1 3.9 4.4 9.63 6.3 10.9 2.4 15.27 3.3 30 3.5 14.73 0 20.7-1.2 32-3.5 4.3-1.3 7.4-3.1 7.64-6.4v-7.7c-7.88.1-79.28-.6-79.28.4z" fill="#698c4d"/><path d="M399.16 205.7v59.6c.72 3.1 3.9 4.4 9.63 6.3 10.9 2.4 15.27 3.3 30 3.5 14.73 0 20.7-1.2 32-3.5 4.3-1.3 7.4-3.1 7.64-6.4v-59.9c-5.9 14.4-77.93 9-79.28.4z" fill="#a3d977"/><g><use xlink:href="#e" transform="matrix(1,0,0,1,399,281.8) translate(1.1111111111111072 18.22222222222222)"/></g><defs><path d="M1266-1397h186V0h-201v-1087L821-547h-37l-434-540V0H150v-1397h188l465 574" id="f"/><path d="M117-1200c0-54 52-107 106-107 58 0 109 49 109 107 0 57-51 108-109 108-54 0-106-53-106-108zm16 280h182V0H133v-920" id="g"/><path d="M262-461c0 187 127 307 316 307 70 0 150-20 241-61v180C728-1 638 16 551 16 268 16 78-172 78-455c0-278 181-487 454-483 122 2 168 22 267 64v194c-92-59-177-88-256-88-165 0-281 138-281 307" id="h"/><path d="M541-764c-125-1-217 148-217 283V0H141v-920h183v211c142-236 286-310 489-125l-96 160c-63-60-122-90-176-90" id="i"/><path d="M76-451c0-267 222-471 493-471s488 207 488 476c0 265-225 462-496 462C296 16 76-188 76-451zm796-4c0-172-139-303-313-303-172 0-299 133-299 305 0 174 132 299 307 299 174 0 305-128 305-301" id="j"/><path d="M391 16C248 13 200-13 84-66v-196c78 54 186 115 293 121 64 4 138-37 139-95 0-27-8-48-26-66s-56-44-115-77c-117-65-195-121-231-167s-54-97-54-152c-1-149 137-240 295-240 90 0 182 25 277 76v180c-108-65-196-98-265-98-93 0-157 78-89 143 29 27 119 78 169 107 153 87 230 183 230 288C708-83 559 21 391 16" id="k"/><path d="M522-1235c-182-2-191 119-190 315h164v164H332V0H150v-756H18v-164h132c-6-169 22-306 94-386 96-107 202-131 362-91v178c-29-11-57-16-84-16" id="l"/><path d="M0-774l342-336v190h291v164H342v451c0 105 44 158 131 158 65 0 134-22 207-66v170C550 33 349 44 243-57c-73-70-84-127-83-291v-408H0v-18" id="m"/><g id="a"><use transform="matrix(0.0087890625,0,0,0.0087890625,0,0)" xlink:href="#f"/><use transform="matrix(0.0087890625,0,0,0.0087890625,14.0537109375,0)" xlink:href="#g"/><use transform="matrix(0.0087890625,0,0,0.0087890625,18,0)" xlink:href="#h"/><use transform="matrix(0.0087890625,0,0,0.0087890625,25.8837890625,0)" xlink:href="#i"/><use transform="matrix(0.0087890625,0,0,0.0087890625,32.5634765625,0)" xlink:href="#j"/><use transform="matrix(0.0087890625,0,0,0.0087890625,42.4951171875,0)" xlink:href="#k"/><use transform="matrix(0.0087890625,0,0,0.0087890625,49.4208984375,0)" xlink:href="#j"/><use transform="matrix(0.0087890625,0,0,0.0087890625,59.3525390625,0)" xlink:href="#l"/><use transform="matrix(0.0087890625,0,0,0.0087890625,63.8525390625,0)" xlink:href="#m"/></g><path d="M600-1405h141L1366 0h-205L975-414H381L205 0H0zm293 813l-225-506-209 506h434" id="n"/><path d="M43-920h786L342-170h487V0H23l483-750H43v-170" id="o"/><path d="M307-395c4 175 28 260 187 260 87 0 160-42 221-127v-658h182V0H715v-117C629-10 424 68 274-28c-116-74-149-155-149-365v-527h182v525" id="p"/><path d="M512-938c262 0 413 213 401 494H266c6 169 125 288 299 288 120 0 231-37 332-112v178C790-20 702 12 537 14c-210 1-322-95-397-232-39-71-56-154-56-247 0-265 171-473 428-473zm221 385c-7-136-83-227-221-227-143 0-220 95-242 227h463" id="q"/><g id="b"><use transform="matrix(0.0087890625,0,0,0.0087890625,0,0)" xlink:href="#n"/><use transform="matrix(0.0087890625,0,0,0.0087890625,12.005859375,0)" xlink:href="#o"/><use transform="matrix(0.0087890625,0,0,0.0087890625,19.51171875,0)" xlink:href="#p"/><use transform="matrix(0.0087890625,0,0,0.0087890625,28.51171875,0)" xlink:href="#i"/><use transform="matrix(0.0087890625,0,0,0.0087890625,35.279296875,0)" xlink:href="#q"/></g><path d="M156-1397h745v178H356v390h545v178H356V0H156v-1397" id="r"/><path d="M279 14C154 14 49-84 55-209c11-240 284-270 473-344 10-137-37-215-166-215-99 0-196 51-290 154v-199c71-83 172-125 305-125 171 0 301 80 323 228s4 380 7 548c0 31 11 47 32 47 22 0 56-16 103-49v111c-70 41-94 69-178 69-78 0-124-31-138-92-77 60-160 90-247 90zm-43-254c-2 75 56 129 131 129 58 0 112-24 161-71v-273c-79 31-209 74-254 121-25 26-38 57-38 94" id="s"/><path d="M133-1397h182V0H133v-1397" id="t"/><g id="c"><use transform="matrix(0.0087890625,0,0,0.0087890625,0,0)" xlink:href="#r"/><use transform="matrix(0.0087890625,0,0,0.0087890625,8.4462890625,0)" xlink:href="#s"/><use transform="matrix(0.0087890625,0,0,0.0087890625,16.1279296875,0)" xlink:href="#p"/><use transform="matrix(0.0087890625,0,0,0.0087890625,25.1279296875,0)" xlink:href="#t"/><use transform="matrix(0.0087890625,0,0,0.0087890625,29.07421875,0)" xlink:href="#m"/></g><path d="M156-2v-1395c320 6 719-24 922 85 196 105 362 331 362 614 0 389-252 626-590 686C683 18 359-5 156-2zm659-1206c-102-18-324-9-459-11v1039c154-2 375 6 489-20 233-53 388-252 388-509 0-263-178-456-418-499" id="u"/><path d="M1276-545c1-139-53-237-182-237-75 0-146 38-211 114V0H700v-512c-4-181-24-274-184-274-109 0-143 48-213 118V0H121v-920h182v121c93-93 183-139 272-139 117 0 207 55 271 166 97-112 199-168 305-168 205 0 307 161 307 397V0h-182v-545" id="v"/><path d="M717-524c-3-169-33-262-187-262-86 0-159 43-219 129V0H125v-920h186v117c117-131 280-184 437-91 117 70 151 162 151 368V0H717v-524" id="w"/><g id="d"><use transform="matrix(0.0087890625,0,0,0.0087890625,0,0)" xlink:href="#u"/><use transform="matrix(0.0087890625,0,0,0.0087890625,13.5,0)" xlink:href="#j"/><use transform="matrix(0.0087890625,0,0,0.0087890625,23.431640625,0)" xlink:href="#v"/><use transform="matrix(0.0087890625,0,0,0.0087890625,37.3095703125,0)" xlink:href="#s"/><use transform="matrix(0.0087890625,0,0,0.0087890625,44.9912109375,0)" xlink:href="#g"/><use transform="matrix(0.0087890625,0,0,0.0087890625,48.9375,0)" xlink:href="#w"/></g><path d="M41-623h55l154 305 157-306h53V1h-66v-471L259-219h-27L106-467V1H41v-624" id="x"/><path d="M460-226c0 151-97 238-205 238C140 12 40-86 40-225c0-141 101-242 217-242 104 0 203 83 203 241zm-72 3c1-245-271-238-272-8-5 228 272 366 272 8" id="y"/><path d="M274-405c-78 10-132 62-132 142V0H68v-457h74v81c34-51 89-92 151-92 88 0 139 91 139 191V0h-71v-275c9-55-27-138-87-130" id="z"/><path d="M126-314c0 55 45 100 101 100s100-45 100-100-44-101-100-101-101 46-101 101zm11 199c9 36 35 35 92 35 52 0 107-6 155 13 49 20 71 59 71 99 0 61-55 140-210 140C85 172 38 114 38 64c0-36 26-70 75-101-29-15-37-42-37-61 0-29 19-60 52-88-42-27-68-74-68-124 0-133 184-217 279-118 35-30 81-45 127-41l9 59c-41-6-74 2-106 20 77 121-53 276-200 223-4 4-32 28-32 52zm107 233c53 0 145-29 145-81 0-20-11-48-54-53s-135-1-174-8c-52 25-92 93-12 127 35 14 74 15 95 15" id="A"/><path d="M460-313C457-127 378 7 187 1H54v-624h145c184-10 263 137 261 310zM120-564v510c75-2 122 10 180-28 50-33 90-102 90-221 0-89-20-179-78-226-59-48-109-32-192-35" id="B"/><path d="M457-173C457-69 349 0 224 0H48v-623h177c109-13 207 59 207 152 0 60-36 114-92 137 70 24 117 88 117 161zm-95-291c0-61-72-100-146-100h-99v199h98c73 9 147-36 147-99zm21 284c0-74-75-126-164-126H117v245h119c82 8 147-49 147-119" id="C"/><g id="e"><use transform="matrix(0.022222222222222223,0,0,0.022222222222222223,0,0)" xlink:href="#x"/><use transform="matrix(0.022222222222222223,0,0,0.022222222222222223,11.11111111111111,0)" xlink:href="#y"/><use transform="matrix(0.022222222222222223,0,0,0.022222222222222223,22.22222222222222,0)" xlink:href="#z"/><use transform="matrix(0.022222222222222223,0,0,0.022222222222222223,33.33333333333333,0)" xlink:href="#A"/><use transform="matrix(0.022222222222222223,0,0,0.022222222222222223,44.44444444444444,0)" xlink:href="#y"/><use transform="matrix(0.022222222222222223,0,0,0.022222222222222223,55.55555555555556,0)" xlink:href="#B"/><use transform="matrix(0.022222222222222223,0,0,0.022222222222222223,66.66666666666667,0)" xlink:href="#C"/></g></defs></g></svg>