<svg width="600" height="360" viewBox="0 0 600 360" fill="none" xmlns="http://www.w3.org/2000/svg">
<path d="M193.625 36.9997H336.125C355.79 36.9997 371.75 52.9757 371.75 72.6604C371.75 92.3451 387.71 108.321 407.375 108.321C427.04 108.321 443 124.297 443 143.982C443 163.666 427.04 179.642 407.375 179.642H335.555C315.89 179.642 299.93 195.618 299.93 215.303V250.964C299.93 290.333 268.01 322 228.965 322C189.635 322 158 290.333 158 250.964V72.6604C158.285 52.9757 173.96 36.9997 193.625 36.9997Z" fill="#FFE212"/>
<path d="M195.557 20.4112L213.251 29.7737L230.896 38.9913L214.051 49.6634L197.191 60.2738L196.381 40.3995L195.557 20.4112Z" fill="white" stroke="#001E2B" stroke-width="1.2" stroke-miterlimit="10"/>
<path d="M207.535 39.3542L197.204 60.323L230.897 38.9911L207.535 39.3542Z" fill="#001E2B"/>
<path d="M207.534 39.3535L195.558 20.4104" stroke="#001E2B" stroke-width="1.2" stroke-miterlimit="10"/>
<path d="M411.188 332.868L426.59 331.896L433.843 316.052L418.638 316.571L411.188 332.868Z" fill="#001E2B" stroke="#001E2B" stroke-width="1.2" stroke-miterlimit="10" stroke-linejoin="round"/>
<path d="M411.14 332.859L401.822 320.559L409.069 304.71L418.608 316.555L411.14 332.859Z" fill="white" stroke="#001E2B" stroke-width="1.2" stroke-miterlimit="10" stroke-linejoin="round"/>
<path d="M424.214 304.382L433.842 316.052L418.607 316.555L409.069 304.711L424.214 304.382Z" fill="white" stroke="#001E2B" stroke-width="1.2" stroke-miterlimit="10" stroke-linejoin="round"/>
<path d="M419.892 89.5036H166.188C162.649 89.5036 159.78 92.356 159.78 95.8747V270.094C159.78 273.612 162.649 276.465 166.188 276.465H419.892C423.431 276.465 426.3 273.612 426.3 270.094V95.8747C426.3 92.356 423.431 89.5036 419.892 89.5036Z" fill="#001E2B" stroke="#001E2B" stroke-width="1.2" stroke-miterlimit="10"/>
<path d="M364.81 181.73V282.83C364.81 284.394 364.501 285.943 363.902 287.389C363.304 288.834 362.426 290.147 361.319 291.253C360.213 292.359 358.899 293.236 357.454 293.834C356.008 294.433 354.459 294.74 352.895 294.74H209.265" stroke="#FF9F10" stroke-width="1.2" stroke-miterlimit="10" stroke-dasharray="2 2"/>
<path d="M366.688 180.324C366.687 179.953 366.577 179.589 366.371 179.28C366.164 178.971 365.87 178.73 365.527 178.587C365.183 178.445 364.805 178.408 364.441 178.48C364.076 178.553 363.741 178.732 363.478 178.995C363.215 179.258 363.036 179.593 362.964 179.958C362.891 180.322 362.928 180.7 363.071 181.044C363.213 181.387 363.454 181.681 363.763 181.888C364.072 182.094 364.436 182.204 364.807 182.204C365.306 182.204 365.784 182.006 366.137 181.654C366.489 181.301 366.687 180.823 366.688 180.324V180.324Z" fill="#FF9F10"/>
<path d="M365.718 238.53H395.888C398.407 238.53 400.824 237.529 402.605 235.748C404.387 233.966 405.388 231.55 405.388 229.03V201.22" stroke="#FF9F10" stroke-width="1.2" stroke-miterlimit="10" stroke-dasharray="2 2"/>
<path d="M403.504 201.309C403.504 200.937 403.614 200.574 403.821 200.265C404.027 199.955 404.321 199.714 404.664 199.572C405.008 199.43 405.386 199.393 405.75 199.465C406.115 199.538 406.45 199.717 406.713 199.98C406.976 200.243 407.155 200.578 407.228 200.942C407.3 201.307 407.263 201.685 407.121 202.028C406.978 202.372 406.737 202.666 406.428 202.872C406.119 203.079 405.755 203.189 405.384 203.189C404.885 203.188 404.408 202.989 404.056 202.637C403.703 202.285 403.505 201.807 403.504 201.309V201.309Z" fill="#FF9F10"/>
<path d="M318.798 294.74V306.74C318.799 307.448 318.66 308.149 318.389 308.803C318.118 309.457 317.721 310.052 317.221 310.552C316.72 311.053 316.126 311.45 315.471 311.721C314.817 311.991 314.116 312.13 313.408 312.13H291.948" stroke="#FF9F10" stroke-width="1.2" stroke-miterlimit="10" stroke-dasharray="2 2"/>
<path d="M292.039 313.999C291.001 313.999 290.159 313.158 290.159 312.119C290.159 311.081 291.001 310.239 292.039 310.239C293.077 310.239 293.919 311.081 293.919 312.119C293.919 313.158 293.077 313.999 292.039 313.999Z" fill="#FF9F10"/>
<path d="M209.384 296.704C208.345 296.704 207.504 295.862 207.504 294.824C207.504 293.786 208.345 292.944 209.384 292.944C210.422 292.944 211.264 293.786 211.264 294.824C211.264 295.862 210.422 296.704 209.384 296.704Z" fill="#FF9F10"/>
<path d="M324.96 48.7295L324.96 145.829C324.96 147.394 325.268 148.943 325.867 150.388C326.466 151.834 327.344 153.147 328.45 154.253C329.557 155.359 330.87 156.236 332.316 156.834C333.761 157.433 335.31 157.74 336.875 157.739H390.505" stroke="#FF9F10" stroke-width="1.2" stroke-miterlimit="10" stroke-dasharray="2 2"/>
<path d="M323.082 48.3243C323.082 47.9525 323.192 47.589 323.399 47.2799C323.605 46.9707 323.899 46.7297 324.243 46.5874C324.586 46.4451 324.964 46.4079 325.329 46.4805C325.693 46.553 326.028 46.7321 326.291 46.995C326.554 47.2579 326.733 47.5929 326.806 47.9576C326.878 48.3223 326.841 48.7003 326.699 49.0438C326.557 49.3873 326.316 49.6809 326.007 49.8875C325.697 50.0941 325.334 50.2043 324.962 50.2043C324.463 50.2043 323.985 50.0063 323.633 49.6537C323.28 49.3011 323.082 48.823 323.082 48.3243V48.3243Z" fill="#FF9F10"/>
<path d="M324.052 101.53H293.882C291.362 101.53 288.946 100.529 287.164 98.7475C285.383 96.9659 284.382 94.5496 284.382 92.03V64.22" stroke="#FF9F10" stroke-width="1.2" stroke-miterlimit="10" stroke-dasharray="2 2"/>
<path d="M286.266 64.3089C286.266 63.937 286.156 63.5736 285.949 63.2644C285.742 62.9552 285.449 62.7143 285.105 62.572C284.762 62.4297 284.384 62.3924 284.019 62.465C283.654 62.5375 283.319 62.7166 283.057 62.9795C282.794 63.2424 282.615 63.5774 282.542 63.9421C282.469 64.3068 282.507 64.6848 282.649 65.0283C282.791 65.3718 283.032 65.6655 283.341 65.872C283.651 66.0786 284.014 66.1889 284.386 66.1889C284.884 66.1875 285.361 65.9891 285.714 65.6368C286.066 65.2845 286.265 64.8071 286.266 64.3089V64.3089Z" fill="#FF9F10"/>
<path d="M370.972 157.74V169.74C370.971 170.448 371.11 171.149 371.381 171.803C371.651 172.457 372.048 173.052 372.549 173.552C373.05 174.053 373.644 174.45 374.298 174.721C374.952 174.991 375.654 175.13 376.362 175.13H397.822" stroke="#FF9F10" stroke-width="1.2" stroke-miterlimit="10" stroke-dasharray="2 2"/>
<path d="M397.731 176.999C398.769 176.999 399.611 176.157 399.611 175.119C399.611 174.081 398.769 173.239 397.731 173.239C396.692 173.239 395.851 174.081 395.851 175.119C395.851 176.157 396.692 176.999 397.731 176.999Z" fill="#FF9F10"/>
<path d="M400.386 159.704C401.424 159.704 402.266 158.862 402.266 157.824C402.266 156.786 401.424 155.944 400.386 155.944C399.348 155.944 398.506 156.786 398.506 157.824C398.506 158.862 399.348 159.704 400.386 159.704Z" fill="#FF9F10"/>
<path d="M409.145 78.9128H156.309C152.783 78.9128 149.924 81.7716 149.924 85.2982V259.905C149.924 263.431 152.783 266.29 156.309 266.29H409.145C412.672 266.29 415.53 263.431 415.53 259.905V85.2982C415.53 81.7716 412.672 78.9128 409.145 78.9128Z" fill="white" stroke="#001E2B" stroke-width="1.2" stroke-miterlimit="10"/>
<path d="M157.236 88.4518C158.724 88.4518 159.93 87.2459 159.93 85.7583C159.93 84.2707 158.724 83.0648 157.236 83.0648C155.749 83.0648 154.543 84.2707 154.543 85.7583C154.543 87.2459 155.749 88.4518 157.236 88.4518Z" fill="#FF9F10"/>
<path d="M164.804 88.4518C166.291 88.4518 167.497 87.2459 167.497 85.7583C167.497 84.2707 166.291 83.0648 164.804 83.0648C163.316 83.0648 162.11 84.2707 162.11 85.7583C162.11 87.2459 163.316 88.4518 164.804 88.4518Z" fill="#FF9F10"/>
<path d="M172.364 88.4518C173.852 88.4518 175.058 87.2459 175.058 85.7583C175.058 84.2707 173.852 83.0648 172.364 83.0648C170.877 83.0648 169.671 84.2707 169.671 85.7583C169.671 87.2459 170.877 88.4518 172.364 88.4518Z" fill="#FF9F10"/>
<path d="M149.924 92.5231H415.684" stroke="#001E2B" stroke-width="1.2" stroke-miterlimit="10"/>
<path d="M400 172H345V187H400V172Z" fill="#E3FCF7"/>
<path d="M459 114H257V128H459V114Z" fill="#E3FCF7"/>
<path d="M436.307 144H308.307V157H436.307V144Z" fill="#E3FCF7"/>
<path d="M294 143H257V157H294V143Z" fill="#00ED64"/>
<path d="M459 231H172V245H459V231Z" fill="#E3FCF7"/>
<path d="M330 172H257V186H330V172Z" fill="#E3FCF7"/>
<path d="M170.672 224.52L183.024 198.28H185.616L173.264 224.52H170.672ZM180.766 224.52L193.118 198.28H195.71L183.358 224.52H180.766ZM212.702 198.28C217.438 198.28 220.51 201.416 220.51 205.512C220.51 209.608 217.438 212.712 212.702 212.712H208.734V221H205.758V198.28H212.702ZM212.702 209.96C215.838 209.96 217.566 208.04 217.566 205.512C217.566 202.984 215.838 201.064 212.702 201.064H208.734V209.96H212.702ZM228.348 227.688H225.276L228.764 220.168L221.756 205H224.796L230.3 217.128L235.772 205H238.844L228.348 227.688ZM250.264 220.776C249.592 221 248.792 221.16 247.8 221.16C245.016 221.16 242.904 219.592 242.904 216.264V207.528H239.512V205H242.904V200.552H245.656V205H250.264V207.528H245.656V215.912C245.656 217.96 246.584 218.632 248.312 218.632C248.984 218.632 249.752 218.504 250.264 218.312V220.776ZM253.78 221V197H256.532V207.464C257.62 205.576 259.54 204.68 261.62 204.68C265.204 204.68 267.668 207.176 267.668 211.144V221H264.948V211.56C264.948 208.872 263.412 207.208 261.172 207.208C258.58 207.208 256.532 209.32 256.532 213.064V221H253.78ZM288.079 213C288.079 217.608 284.527 221.32 279.727 221.32C274.895 221.32 271.343 217.608 271.343 213C271.343 208.392 274.895 204.68 279.727 204.68C284.527 204.68 288.079 208.392 288.079 213ZM274.159 213C274.159 216.2 276.399 218.76 279.727 218.76C283.055 218.76 285.263 216.2 285.263 213C285.263 209.8 283.055 207.24 279.727 207.24C276.399 207.24 274.159 209.8 274.159 213ZM292.03 221V205H294.782V207.464C295.87 205.576 297.79 204.68 299.87 204.68C303.454 204.68 305.918 207.176 305.918 211.144V221H303.198V211.56C303.198 208.872 301.662 207.208 299.422 207.208C296.83 207.208 294.782 209.32 294.782 213.064V221H292.03Z" fill="#001E2B"/>
<path d="M441 202H324V217H441V202Z" fill="#E3FCF7"/>
<path d="M203.612 117C200.939 117 198.453 117.249 196.216 117.622C189.69 118.802 188.509 121.226 188.509 125.639V131.543H203.984V133.532H188.509H182.729C178.254 133.532 174.276 136.205 173.096 141.363C171.666 147.267 171.604 150.934 173.096 157.087C174.214 161.686 176.825 164.918 181.299 164.918H186.644V157.895C186.644 152.799 191.057 148.262 196.278 148.262H211.753C216.042 148.262 219.46 144.719 219.46 140.431V125.701C219.46 121.537 215.917 118.367 211.753 117.684C209.019 117.186 206.222 117 203.612 117ZM195.221 121.723C196.837 121.723 198.142 123.029 198.142 124.707C198.142 126.323 196.837 127.628 195.221 127.628C193.605 127.628 192.3 126.323 192.3 124.707C192.3 123.091 193.605 121.723 195.221 121.723Z" fill="url(#paint0_linear_1715_16516)"/>
<path d="M221.324 133.532V140.431C221.324 145.776 216.787 150.251 211.691 150.251H196.216C191.989 150.251 188.509 153.855 188.509 158.082V172.811C188.509 176.976 192.176 179.462 196.216 180.642C201.125 182.072 205.787 182.32 211.691 180.642C215.607 179.524 219.398 177.224 219.398 172.811V166.907H203.922V164.918H219.398H227.104C231.579 164.918 233.257 161.811 234.811 157.087C236.427 152.239 236.365 147.578 234.811 141.363C233.692 136.888 231.579 133.532 227.104 133.532H221.324V133.532ZM212.623 170.823C214.239 170.823 215.544 172.128 215.544 173.744C215.544 175.36 214.239 176.727 212.623 176.727C211.007 176.727 209.702 175.422 209.702 173.744C209.702 172.128 211.007 170.823 212.623 170.823Z" fill="url(#paint1_linear_1715_16516)"/>
<path opacity="0.4438" d="M224.805 190.711C224.805 192.948 215.544 194.751 204.046 194.751C192.611 194.751 183.288 192.948 183.288 190.711C183.288 188.473 192.549 186.671 204.046 186.671C215.544 186.671 224.805 188.473 224.805 190.711Z" fill="url(#paint2_radial_1715_16516)"/>
<defs>
<linearGradient id="paint0_linear_1715_16516" x1="170.333" y1="118.856" x2="206.003" y2="149.248" gradientUnits="userSpaceOnUse">
<stop stop-color="#5A9FD4"/>
<stop offset="1" stop-color="#306998"/>
</linearGradient>
<linearGradient id="paint1_linear_1715_16516" x1="219.388" y1="168.191" x2="206.59" y2="150.26" gradientUnits="userSpaceOnUse">
<stop stop-color="#FFD43B"/>
<stop offset="1" stop-color="#FFE873"/>
</linearGradient>
<radialGradient id="paint2_radial_1715_16516" cx="0" cy="0" r="1" gradientUnits="userSpaceOnUse" gradientTransform="translate(204.106 190.681) rotate(-90) scale(4.01867 17.6677)">
<stop stop-color="#B8B8B8" stop-opacity="0.498"/>
<stop offset="1" stop-color="#7F7F7F" stop-opacity="0"/>
</radialGradient>
</defs>
</svg>
