<svg xmlns="http://www.w3.org/2000/svg" xmlns:xlink="http://www.w3.org/1999/xlink" height="1692" width="900"><g opacity=".5"><path d="M10 130a10 10 0 0 1 10-10h860a10 10 0 0 1 10 10v1420a10 10 0 0 1-10 10H20a10 10 0 0 1-10-10z" fill="none" stroke="#ccc" stroke-width="4"/><use height="100%" width="100%" transform="translate(411 143.6)" xlink:href="#a"/></g><path d="M10 125a5 5 0 0 1 5-5h200a5 5 0 0 1 5 5v80a5 5 0 0 1-5 5H15a5 5 0 0 1-5-5z" fill="none"/><use height="100%" width="100%" transform="translate(22 175.7)" xlink:href="#b"/><use height="100%" width="100%" transform="translate(113.6 175.7)" xlink:href="#c"/><path d="M470 30a20 20 0 1 1-40 0 20 20 0 0 1 40 0z" stroke="#000" stroke-width="2"/><path d="M450 50v70" fill="none" stroke="#000" stroke-width="2"/><path d="M450 50h-1v-.1zm1 0h-1 1zm-1 70l-4.6-14.3h9.2z"/><path d="M451 120h-2l-5-15.3h12zm-4.2-13.3l3.2 10 3.3-10z"/><path d="M382 120a32 32 0 0 0-32 32v96a32 32 0 0 0 32 32h136a32 32 0 0 0 32-32v-96a32 32 0 0 0-32-32z" fill="#fff" stroke="#000" stroke-width="2"/><use height="100%" width="100%" transform="translate(362.9 192.8)" xlink:href="#d"/><use height="100%" width="100%" transform="translate(424.4 192.8)" xlink:href="#e"/><use height="100%" width="100%" transform="translate(371.8 228.6)" xlink:href="#f"/><use height="100%" width="100%" transform="translate(459.8 228.6)" xlink:href="#g"/><path d="M450 280v80" fill="none" stroke="#000" stroke-width="2"/><path d="M450 360l-4.6-14.3h9.2z"/><path d="M450.4 362.1l-.7.1-5.7-17.5h12zm-3.7-15.4l3.3 10 3.3-10z"/><path d="M446.5 363.5c2-2 5-2 7 0l13 13c2 2 2 5 0 7l-13 13a5 5 0 0 1-7 0l-13-13a5 5 0 0 1 0-7z" fill="#fff" stroke="#000" stroke-width="2"/><path d="M432.2 380H165a5 5 0 0 0-5 5v55" fill="none" stroke="#000" stroke-width="2"/><path d="M432.3 381h-.1v-1zm-.1-1.7v-.3zM160 440l-4.6-14.3h9.2z"/><path d="M161 440h-2l-5-15.3h12zm-4.2-13.3l3.2 10 3.3-10z"/><path d="M264.4 363h77.8v34h-77.8z" fill="#fff"/><use height="100%" width="100%" transform="translate(264.4 388.6)" xlink:href="#h"/><path d="M72 440a32 32 0 0 0-32 32v96a32 32 0 0 0 32 32h176a32 32 0 0 0 32-32v-96a32 32 0 0 0-32-32z" fill="#fff" stroke="#000" stroke-width="2"/><use height="100%" width="100%" transform="translate(108.3 512.8)" xlink:href="#i"/><use height="100%" width="100%" transform="translate(49.6 548.6)" xlink:href="#j"/><use height="100%" width="100%" transform="translate(109.8 548.6)" xlink:href="#k"/><path d="M160 600v140" fill="none" stroke="#000" stroke-width="2"/><path d="M160 740l-4.6-14.3h9.2z"/><path d="M160.4 742.1l-.7.1-5.7-17.5h12zm-3.7-15.4l3.3 10 3.3-10z"/><path d="M156.5 743.5c2-2 5-2 7 0l13 13c2 2 2 5 0 7l-13 13a5 5 0 0 1-7 0l-13-13a5 5 0 0 1 0-7z" fill="#fff" stroke="#000" stroke-width="2"/><path d="M160 777.8V1400" fill="none" stroke="#000" stroke-width="2"/><path d="M159.3 777.8h-.3zm1.7 0h-1 1zm-1 622.2l-4.6-14.3h9.2z"/><path d="M161 1400h-2l-5-15.3h12zm-4.2-13.3l3.2 10 3.3-10z"/><path d="M128.9 1072h62.2v33.9H129z" fill="#fff"/><use height="100%" width="100%" transform="translate(128.9 1097.5)" xlink:href="#l"/><path d="M72 1400a32 32 0 0 0-32 32v96a32 32 0 0 0 32 32h176a32 32 0 0 0 32-32v-96a32 32 0 0 0-32-32z" fill="#fff" stroke="#000" stroke-width="2"/><use height="100%" width="100%" transform="translate(100.4 1450.2)" xlink:href="#m"/><use height="100%" width="100%" transform="translate(120.8 1485.9)" xlink:href="#n"/><use height="100%" width="100%" transform="translate(86.8 1521.6)" xlink:href="#o"/><use height="100%" width="100%" transform="translate(160 1543.2)" xlink:href="#p"/><path d="M467.8 380H735a5 5 0 0 1 5 5v295" fill="none" stroke="#000" stroke-width="2"/><path d="M467.8 381v-.3zm0-1v-1zM740 680l-4.6-14.3h9.2z"/><path d="M741 680h-2l-5-15.3h12zm-4.3-13.3l3.3 10 3.3-10z"/><path d="M535.5 363h124.4v34H535.5z" fill="#fff"/><use height="100%" width="100%" transform="translate(535.5 388.6)" xlink:href="#p"/><use height="100%" width="100%" transform="translate(582.1 388.6)" xlink:href="#q"/><path d="M652 680a32 32 0 0 0-32 32v96a32 32 0 0 0 32 32h176a32 32 0 0 0 32-32v-96a32 32 0 0 0-32-32z" fill="#fff" stroke="#000" stroke-width="2"/><use height="100%" width="100%" transform="translate(680.4 752.8)" xlink:href="#r"/><use height="100%" width="100%" transform="translate(640 788.6)" xlink:href="#s"/><use height="100%" width="100%" transform="translate(776.5 788.6)" xlink:href="#t"/><path d="M740 840v80" fill="none" stroke="#000" stroke-width="2"/><path d="M740 920l-4.6-14.3h9.2z"/><path d="M741 920h-2l-5-15.3h12zm-4.3-13.3l3.3 10 3.3-10z"/><path d="M652 920a32 32 0 0 0-32 32v96a32 32 0 0 0 32 32h176a32 32 0 0 0 32-32v-96a32 32 0 0 0-32-32z" fill="#fff" stroke="#000" stroke-width="2"/><use height="100%" width="100%" transform="translate(688.3 992.8)" xlink:href="#u"/><use height="100%" width="100%" transform="translate(640 1028.6)" xlink:href="#v"/><use height="100%" width="100%" transform="translate(776.5 1028.6)" xlink:href="#t"/><path d="M740 1080v80" fill="none" stroke="#000" stroke-width="2"/><path d="M740 1160l-4.6-14.3h9.2z"/><path d="M741 1160h-2l-5-15.3h12zm-4.3-13.3l3.3 10 3.3-10z"/><path d="M652 1160a32 32 0 0 0-32 32v96a32 32 0 0 0 32 32h176a32 32 0 0 0 32-32v-96a32 32 0 0 0-32-32z" fill="#fff" stroke="#000" stroke-width="2"/><use height="100%" width="100%" transform="translate(690.6 1232.8)" xlink:href="#w"/><use height="100%" width="100%" transform="translate(657 1268.6)" xlink:href="#x"/><use height="100%" width="100%" transform="translate(771.6 1268.6)" xlink:href="#y"/><path d="M740 1320v80" fill="none" stroke="#000" stroke-width="2"/><path d="M740 1400l-4.6-14.3h9.2z"/><path d="M741 1400h-2l-5-15.3h12zm-4.3-13.3l3.3 10 3.3-10z"/><path d="M652 1400a32 32 0 0 0-32 32v96a32 32 0 0 0 32 32h176a32 32 0 0 0 32-32v-96a32 32 0 0 0-32-32z" fill="#fff" stroke="#000" stroke-width="2"/><use height="100%" width="100%" transform="translate(696.4 1472.8)" xlink:href="#z"/><use height="100%" width="100%" transform="translate(661.8 1508.6)" xlink:href="#A"/><use height="100%" width="100%" transform="translate(749.8 1508.6)" xlink:href="#g"/><path d="M620 1480H280" fill="none" stroke="#000" stroke-width="2"/><path d="M294.3 1484.6L280 1480l14.3-4.6z"/><path d="M295.3 1486l-15.3-5v-2l15.3-5zm-12-6l10 3.3v-6.6z"/><path d="M470 1660a20 20 0 1 1-40 0 20 20 0 0 1 40 0z" fill="#fff" stroke="#000" stroke-width="2"/><path d="M462 1660a12 12 0 1 1-24 0 12 12 0 0 1 24 0z" stroke="#000" stroke-width="2"/><path d="M420 5a5 5 0 0 1 5-5h230a5 5 0 0 1 5 5v50a5 5 0 0 1-5 5H425a5 5 0 0 1-5-5z" fill="none"/><use height="100%" width="100%" transform="translate(486.7 43.8)" xlink:href="#B"/><path d="M160 1560v35a5 5 0 0 0 5 5h280a5 5 0 0 1 5 5v35" fill="none" stroke="#000" stroke-width="2"/><path d="M450 1640l-4.6-14.3h9.2z"/><path d="M451 1640.1l-1-.1h-1l-5-15.3h12zm-4.3-13.4l3.3 10 3.3-10z"/><path d="M425 1635a5 5 0 0 1 5-5h230a5 5 0 0 1 5 5v50a5 5 0 0 1-5 5H430a5 5 0 0 1-5-5z" fill="none"/><use height="100%" width="100%" transform="translate(486.9 1673.8)" xlink:href="#C"/><path d="M177.8 760h174.7" fill="none" stroke="#000" stroke-width="2"/><path d="M177.8 761v-.3zm0-1v-1zm174.7 0l-14.3 4.6v-9.2z"/><path d="M352.5 759v2l-15.3 5v-12zm-13.3 4.3l10-3.3-10-3.3z"/><path d="M234 743h62.3v34H234z" fill="#fff"/><use height="100%" width="100%" transform="translate(234 768.6)" xlink:href="#D"/><path d="M384.5 680a32 32 0 0 0-32 32v96a32 32 0 0 0 32 32h131a32 32 0 0 0 32-32v-96a32 32 0 0 0-32-32z" fill="#fff" stroke="#000" stroke-width="2"/><use height="100%" width="100%" transform="translate(376 752.8)" xlink:href="#E"/><use height="100%" width="100%" transform="translate(444.6 752.8)" xlink:href="#F"/><use height="100%" width="100%" transform="translate(415.8 788.6)" xlink:href="#g"/><path d="M547.5 760H619" fill="none" stroke="#000" stroke-width="2"/><path d="M619 760l-14.3 4.6v-9.2z"/><path d="M620 759.3v1.4l-16.3 5.3v-12zm-14.3 4l10-3.3-10-3.3z"/><defs><path id="G" d="M212-179c-10-28-35-45-73-45-59 0-87 40-87 99 0 60 29 101 89 101 43 0 62-24 78-52l27 14C228-24 195 4 139 4 59 4 22-46 18-125c-6-104 99-153 187-111 19 9 31 26 39 46"/><path id="H" d="M100-194c62-1 85 37 85 99 1 63-27 99-86 99S16-35 15-95c0-66 28-99 85-99zM99-20c44 1 53-31 53-75 0-43-8-75-51-75s-53 32-53 75 10 74 51 75"/><path id="I" d="M117-194c89-4 53 116 60 194h-32v-121c0-31-8-49-39-48C34-167 62-67 57 0H25l-1-190h30c1 10-1 24 2 32 11-22 29-35 61-36"/><path id="J" d="M59-47c-2 24 18 29 38 22v24C64 9 27 4 27-40v-127H5v-23h24l9-43h21v43h35v23H59v120"/><path id="K" d="M141-36C126-15 110 5 73 4 37 3 15-17 15-53c-1-64 63-63 125-63 3-35-9-54-41-54-24 1-41 7-42 31l-33-3c5-37 33-52 76-52 45 0 72 20 72 64v82c-1 20 7 32 28 27v20c-31 9-61-2-59-35zM48-53c0 20 12 33 32 33 41-3 63-29 60-74-43 2-92-5-92 41"/><path id="L" d="M24-231v-30h32v30H24zM24 0v-190h32V0H24"/><path id="M" d="M100-194c63 0 86 42 84 106H49c0 40 14 67 53 68 26 1 43-12 49-29l28 8c-11 28-37 45-77 45C44 4 14-33 15-96c1-61 26-98 85-98zm52 81c6-60-76-77-97-28-3 7-6 17-6 28h103"/><path id="N" d="M114-163C36-179 61-72 57 0H25l-1-190h30c1 12-1 29 2 39 6-27 23-49 58-41v29"/><g id="a"><use height="100%" width="100%" xlink:href="#G" transform="scale(.05)"/><use height="100%" width="100%" xlink:href="#H" transform="translate(13) scale(.05)"/><use height="100%" width="100%" xlink:href="#I" transform="translate(23) scale(.05)"/><use height="100%" width="100%" xlink:href="#J" transform="translate(33) scale(.05)"/><use height="100%" width="100%" xlink:href="#K" transform="translate(38) scale(.05)"/><use height="100%" width="100%" xlink:href="#L" transform="translate(48) scale(.05)"/><use height="100%" width="100%" xlink:href="#I" transform="translate(51.9) scale(.05)"/><use height="100%" width="100%" xlink:href="#M" transform="translate(61.9) scale(.05)"/><use height="100%" width="100%" xlink:href="#N" transform="translate(71.9) scale(.05)"/></g><path id="O" d="M1595-702c0 359-266 650-581 702 143 57 341 115 409 115 40 0 87-9 140-27l-201 195c-152-10-283-55-404-112-70-33-165-90-282-171C362-46 90-341 90-694c0-413 334-723 752-723 414 0 753 307 753 715zm-206 4c0-302-242-529-547-529S298-995 298-692c0 296 244 524 544 524 296 0 547-237 547-530"/><path id="P" d="M307-395c4 175 28 260 187 260 87 0 160-42 221-127v-658h182V0H715v-117C629-10 424 68 274-28c-116-74-149-155-149-365v-527h182v525"/><path id="Q" d="M512-938c262 0 413 213 401 494H266c6 169 125 288 299 288 120 0 231-37 332-112v178C790-20 702 12 537 14c-210 1-322-95-397-232-39-71-56-154-56-247 0-265 171-473 428-473zm221 385c-7-136-83-227-221-227-143 0-220 95-242 227h463"/><path id="R" d="M541-764c-125-1-217 148-217 283V0H141v-920h183v211c142-236 286-310 489-125l-96 160c-63-60-122-90-176-90"/><path id="S" d="M692-920h205L246 469H43l313-666L0-920h207l248 519"/><g id="b"><use height="100%" width="100%" xlink:href="#O" transform="scale(.0152)"/><use height="100%" width="100%" xlink:href="#P" transform="translate(25.6) scale(.01519)"/><use height="100%" width="100%" xlink:href="#Q" transform="translate(41.2) scale(.01519)"/><use height="100%" width="100%" xlink:href="#R" transform="translate(56) scale(.01519)"/><use height="100%" width="100%" xlink:href="#S" transform="translate(69.3) scale(.01519)"/></g><path id="T" d="M586-1399c254-5 439 151 438 398-1 173-100 299-228 353-93 39-292 44-452 42V0H143v-1399h443zm-23 615c154 1 254-73 254-222 0-143-89-215-266-215H344v437h219"/><path id="U" d="M133-1397h182V0H133v-1397"/><path id="V" d="M279 14C154 14 49-84 55-209c11-240 284-270 473-344 10-137-37-215-166-215-99 0-196 51-290 154v-199c71-83 172-125 305-125 171 0 301 80 323 228s4 380 7 548c0 31 11 47 32 47 22 0 56-16 103-49v111c-70 41-94 69-178 69-78 0-124-31-138-92-77 60-160 90-247 90zm-43-254c-2 75 56 129 131 129 58 0 112-24 161-71v-273c-79 31-209 74-254 121-25 26-38 57-38 94"/><path id="W" d="M717-524c-3-169-33-262-187-262-86 0-159 43-219 129V0H125v-920h186v117c117-131 280-184 437-91 117 70 151 162 151 368V0H717v-524"/><g id="c"><use height="100%" width="100%" xlink:href="#T" transform="scale(.0152)"/><use height="100%" width="100%" xlink:href="#U" transform="translate(15.9) scale(.01519)"/><use height="100%" width="100%" xlink:href="#V" transform="translate(22.7) scale(.01519)"/><use height="100%" width="100%" xlink:href="#W" transform="translate(36) scale(.01519)"/><use height="100%" width="100%" xlink:href="#W" transform="translate(51.5) scale(.01519)"/><use height="100%" width="100%" xlink:href="#Q" transform="translate(67) scale(.01519)"/><use height="100%" width="100%" xlink:href="#R" transform="translate(82) scale(.01519)"/></g><path id="X" d="M156-1397h745v178H356v390h545v178H356V0H156v-1397"/><path id="Y" d="M117-1200c0-54 52-107 106-107 58 0 109 49 109 107 0 57-51 108-109 108-54 0-106-53-106-108zm16 280h182V0H133v-920"/><path id="Z" d="M90-475c0-262 193-465 453-465 61 0 128 13 200 39v-496h183V0H537C263 3 90-196 90-475zm481-307c-186-2-297 138-297 329 0 141 61 243 159 281 51 21 218 15 310 16v-583c-57-29-114-43-172-43"/><g id="d"><use height="100%" width="100%" xlink:href="#X" transform="scale(.0152)"/><use height="100%" width="100%" xlink:href="#Y" transform="translate(14.6) scale(.01519)"/><use height="100%" width="100%" xlink:href="#W" transform="translate(21.4) scale(.01519)"/><use height="100%" width="100%" xlink:href="#Z" transform="translate(37) scale(.01519)"/></g><path id="aa" d="M1266-1397h186V0h-201v-1087L821-547h-37l-434-540V0H150v-1397h188l465 574"/><path id="ab" d="M0-774l342-336v190h291v164H342v451c0 105 44 158 131 158 65 0 134-22 207-66v170C550 33 349 44 243-57c-73-70-84-127-83-291v-408H0v-18"/><path id="ac" d="M262-461c0 187 127 307 316 307 70 0 150-20 241-61v180C728-1 638 16 551 16 268 16 78-172 78-455c0-278 181-487 454-483 122 2 168 22 267 64v194c-92-59-177-88-256-88-165 0-281 138-281 307"/><path id="ad" d="M537-793c-115 4-158 59-230 134V0H125v-1397h182v598c105-135 293-188 448-93 113 70 144 170 144 368V0H717v-569c3-122-65-228-180-224"/><path id="ae" d="M139-178c0-74 75-116 146-133C150-371 82-468 82-602c1-211 175-318 401-318h379v142H676c60 65 96 100 96 203 0 107-72 207-146 248-43 24-114 48-212 59-101 12-138 80-64 124 55 33 329 79 356 100 81 34 157 118 154 226-6 199-205 287-428 287C206 469 0 381 0 180 0 55 77-25 231-61c-61-39-92-78-92-117zm467-416c0-96-84-168-182-168-94 0-178 78-178 170 0 96 82 164 180 164 97 0 180-71 180-166zm-8 678c-123-61-426-72-426 98 0 95 85 142 256 142 81 0 144-12 188-36s66-57 66-100-28-76-84-104"/><g id="e"><use height="100%" width="100%" xlink:href="#aa" transform="scale(.0152)"/><use height="100%" width="100%" xlink:href="#V" transform="translate(24.3) scale(.01519)"/><use height="100%" width="100%" xlink:href="#ab" transform="translate(37.6) scale(.01519)"/><use height="100%" width="100%" xlink:href="#ac" transform="translate(48) scale(.01519)"/><use height="100%" width="100%" xlink:href="#ad" transform="translate(61.6) scale(.01519)"/><use height="100%" width="100%" xlink:href="#Y" transform="translate(77.1) scale(.01519)"/><use height="100%" width="100%" xlink:href="#W" transform="translate(84) scale(.01519)"/><use height="100%" width="100%" xlink:href="#ae" transform="translate(99.5) scale(.01519)"/></g><path id="af" d="M307-694c0 306 244 526 555 526 169 0 335-52 496-156v220C1119 35 700 64 453-78 260-188 105-411 100-694c-8-401 347-721 754-721 147 0 310 38 489 115v215c-163-93-323-140-479-140-306 0-557 229-557 531"/><g id="f"><use height="100%" width="100%" xlink:href="#af" transform="scale(.0152)"/><use height="100%" width="100%" xlink:href="#V" transform="translate(22) scale(.01519)"/><use height="100%" width="100%" xlink:href="#ac" transform="translate(35.3) scale(.01519)"/><use height="100%" width="100%" xlink:href="#ad" transform="translate(49) scale(.01519)"/><use height="100%" width="100%" xlink:href="#Q" transform="translate(64.5) scale(.01519)"/></g><path id="ag" d="M154-1397h792v178H354v426h572v179H354v434h611V-2H154v-1395"/><g id="g"><use height="100%" width="100%" xlink:href="#ag" transform="scale(.0152)"/><use height="100%" width="100%" xlink:href="#W" transform="translate(15.6) scale(.01519)"/><use height="100%" width="100%" xlink:href="#ab" transform="translate(31.1) scale(.01519)"/><use height="100%" width="100%" xlink:href="#R" transform="translate(41.5) scale(.01519)"/><use height="100%" width="100%" xlink:href="#S" transform="translate(54.7) scale(.01519)"/></g><path id="ah" d="M41-623h55l154 305 157-306h53V1h-66v-471L259-219h-27L106-467V1H41v-624"/><path id="ai" d="M366-269c2-83-14-137-109-139-42 0-94 12-131 51l-35-46c43-44 101-64 163-64 110 0 181 69 181 184V0h-68v-50C317-9 259 11 203 11 23 8-5-195 154-249c63-21 138-20 212-20zm3 55c-54 1-120-4-167 7-57 14-81 51-81 84 0 41 35 79 96 79 60 0 104-36 120-54 39-46 31-65 32-116"/><path id="aj" d="M298 9c-94 0-131-85-131-173 0-78 4-156 10-234H70l1-59h109l8-122 79-13c4 10-4 16-6 27-5 25-12 108-12 108h150v59H249c-9 66-12 213-6 267 6 55 43 73 77 73 28 0 63-12 102-41l22 57C405-14 352 9 298 9"/><path id="ak" d="M457-381l-51 59c-8-6-3-15-7-23-3-5-40-60-118-60-84 0-151 65-151 169 0 107 68 182 157 182 46 0 90-21 121-56l42 49c-44 47-105 72-169 72C152 11 56-90 56-228c0-137 96-238 230-238 73 0 135 32 171 85"/><path id="al" d="M276-405c-78 10-133 62-133 142V0H70v-665h83c3 11-10 14-10 24v265c34-51 90-92 152-92 88 0 138 91 138 191V0h-71v-275c9-55-26-138-86-130"/><g id="h"><use height="100%" width="100%" xlink:href="#ah" transform="scale(.03111)"/><use height="100%" width="100%" xlink:href="#ai" transform="translate(15.6) scale(.03111)"/><use height="100%" width="100%" xlink:href="#aj" transform="translate(31.1) scale(.03111)"/><use height="100%" width="100%" xlink:href="#ak" transform="translate(46.7) scale(.03111)"/><use height="100%" width="100%" xlink:href="#al" transform="translate(62.2) scale(.03111)"/></g><path id="am" d="M692-920h197L483 16h-61L6-920h199l248 566"/><g id="i"><use height="100%" width="100%" xlink:href="#ag" transform="scale(.0152)"/><use height="100%" width="100%" xlink:href="#am" transform="translate(15.6) scale(.01519)"/><use height="100%" width="100%" xlink:href="#V" transform="translate(29.2) scale(.01519)"/><use height="100%" width="100%" xlink:href="#U" transform="translate(42.5) scale(.01519)"/><use height="100%" width="100%" xlink:href="#P" transform="translate(49.3) scale(.01519)"/><use height="100%" width="100%" xlink:href="#V" transform="translate(64.8) scale(.01519)"/><use height="100%" width="100%" xlink:href="#ab" transform="translate(78.1) scale(.01519)"/><use height="100%" width="100%" xlink:href="#Q" transform="translate(88.5) scale(.01519)"/></g><g id="j"><use height="100%" width="100%" xlink:href="#T" transform="scale(.0152)"/><use height="100%" width="100%" xlink:href="#U" transform="translate(15.9) scale(.01519)"/><use height="100%" width="100%" xlink:href="#V" transform="translate(22.7) scale(.01519)"/><use height="100%" width="100%" xlink:href="#W" transform="translate(36) scale(.01519)"/></g><path id="an" d="M522-1235c-182-2-191 119-190 315h164v164H332V0H150v-756H18v-164h132c-6-169 22-306 94-386 96-107 202-131 362-91v178c-29-11-57-16-84-16"/><path id="ao" d="M76-451c0-267 222-471 493-471s488 207 488 476c0 265-225 462-496 462C296 16 76-188 76-451zm796-4c0-172-139-303-313-303-172 0-299 133-299 305 0 174 132 299 307 299 174 0 305-128 305-301"/><path id="ap" d="M1276-545c1-139-53-237-182-237-75 0-146 38-211 114V0H700v-512c-4-181-24-274-184-274-109 0-143 48-213 118V0H121v-920h182v121c93-93 183-139 272-139 117 0 207 55 271 166 97-112 199-168 305-168 205 0 307 161 307 397V0h-182v-545"/><g id="k"><use height="100%" width="100%" xlink:href="#T" transform="scale(.0152)"/><use height="100%" width="100%" xlink:href="#Q" transform="translate(15) scale(.01519)"/><use height="100%" width="100%" xlink:href="#R" transform="translate(30) scale(.01519)"/><use height="100%" width="100%" xlink:href="#an" transform="translate(42.3) scale(.01519)"/><use height="100%" width="100%" xlink:href="#ao" transform="translate(49.8) scale(.01519)"/><use height="100%" width="100%" xlink:href="#R" transform="translate(67) scale(.01519)"/><use height="100%" width="100%" xlink:href="#ap" transform="translate(79.3) scale(.01519)"/><use height="100%" width="100%" xlink:href="#V" transform="translate(103.3) scale(.01519)"/><use height="100%" width="100%" xlink:href="#W" transform="translate(116.5) scale(.01519)"/><use height="100%" width="100%" xlink:href="#ac" transform="translate(132) scale(.01519)"/><use height="100%" width="100%" xlink:href="#Q" transform="translate(145.7) scale(.01519)"/></g><path id="aq" d="M456-448c0 100-85 173-202 173H131V0H59v-623h190c118-13 207 74 207 175zm-72 4c0-65-58-113-135-113H131l-1 220h126c73 8 128-44 128-107"/><path id="ar" d="M432-396l-42 63c-7 0-3-13-7-18-17-22-62-62-127-62-88-1-140 75-51 117 43 21 116 31 168 60 54 30 67 72 67 104 0 69-65 142-190 142-69 0-139-22-193-72l41-72c9 7 1 12 8 20 14 16 65 64 143 64 102 0 167-82 71-131-33-17-83-27-122-41-25-9-112-38-112-118 0-68 70-128 176-128 68 0 128 25 170 72"/><g id="l"><use height="100%" width="100%" xlink:href="#aq" transform="scale(.03111)"/><use height="100%" width="100%" xlink:href="#ai" transform="translate(15.6) scale(.03111)"/><use height="100%" width="100%" xlink:href="#ar" transform="translate(31.1) scale(.03111)"/><use height="100%" width="100%" xlink:href="#ar" transform="translate(46.7) scale(.03111)"/></g><path id="as" d="M872-158c82 0 197-24 306-61v-291H909v-178h469v592C1022 67 560 63 312-186 176-323 104-488 104-686c0-412 338-741 754-729 217 5 305 45 492 119v204c-167-97-332-145-496-145-296 0-543 244-543 539 0 315 243 540 561 540"/><g id="m"><use height="100%" width="100%" xlink:href="#as" transform="scale(.0152)"/><use height="100%" width="100%" xlink:href="#Q" transform="translate(23) scale(.01519)"/><use height="100%" width="100%" xlink:href="#W" transform="translate(38) scale(.01519)"/><use height="100%" width="100%" xlink:href="#Q" transform="translate(53.5) scale(.01519)"/><use height="100%" width="100%" xlink:href="#R" transform="translate(68.4) scale(.01519)"/><use height="100%" width="100%" xlink:href="#V" transform="translate(80.7) scale(.01519)"/><use height="100%" width="100%" xlink:href="#ab" transform="translate(94) scale(.01519)"/><use height="100%" width="100%" xlink:href="#Q" transform="translate(104.3) scale(.01519)"/></g><path id="at" d="M971-1008c-1 178-98 292-236 344 146 109 184 183 311 385 82 131 116 178 191 279H999c-84-122-160-249-241-375-61-94-125-160-206-211-31-20-121-24-192-22V0H160v-1397h350c263-5 462 139 461 389zm-242-122c-63-101-185-96-369-97v441c101 2 244-5 284-26 67-34 120-103 120-198 0-44-12-84-35-120"/><path id="au" d="M391 16C248 13 200-13 84-66v-196c78 54 186 115 293 121 64 4 138-37 139-95 0-27-8-48-26-66s-56-44-115-77c-117-65-195-121-231-167s-54-97-54-152c-1-149 137-240 295-240 90 0 182 25 277 76v180c-108-65-196-98-265-98-93 0-157 78-89 143 29 27 119 78 169 107 153 87 230 183 230 288C708-83 559 21 391 16"/><g id="n"><use height="100%" width="100%" xlink:href="#at" transform="scale(.0152)"/><use height="100%" width="100%" xlink:href="#Q" transform="translate(18.8) scale(.01519)"/><use height="100%" width="100%" xlink:href="#au" transform="translate(33.7) scale(.01519)"/><use height="100%" width="100%" xlink:href="#P" transform="translate(45.7) scale(.01519)"/><use height="100%" width="100%" xlink:href="#U" transform="translate(61.2) scale(.01519)"/><use height="100%" width="100%" xlink:href="#ab" transform="translate(68) scale(.01519)"/></g><path id="av" d="M156-2v-1395c320 6 719-24 922 85 196 105 362 331 362 614 0 389-252 626-590 686C683 18 359-5 156-2zm659-1206c-102-18-324-9-459-11v1039c154-2 375 6 489-20 233-53 388-252 388-509 0-263-178-456-418-499"/><g id="o"><use height="100%" width="100%" xlink:href="#av" transform="scale(.0152)"/><use height="100%" width="100%" xlink:href="#ao" transform="translate(23.3) scale(.01519)"/><use height="100%" width="100%" xlink:href="#ac" transform="translate(40.5) scale(.01519)"/><use height="100%" width="100%" xlink:href="#P" transform="translate(54.1) scale(.01519)"/><use height="100%" width="100%" xlink:href="#ap" transform="translate(69.7) scale(.01519)"/><use height="100%" width="100%" xlink:href="#Q" transform="translate(93.7) scale(.01519)"/><use height="100%" width="100%" xlink:href="#W" transform="translate(108.6) scale(.01519)"/><use height="100%" width="100%" xlink:href="#ab" transform="translate(124.1) scale(.01519)"/><use height="100%" width="100%" xlink:href="#au" transform="translate(134.5) scale(.01519)"/></g><path id="aw" d="M454-624c1 13-7 14-7 27V1h-55L117-490V0H50v-623h68l262 462v-463h74"/><path id="ax" d="M460-226c0 151-97 238-205 238C140 12 40-86 40-225c0-141 101-242 217-242 104 0 203 83 203 241zm-72 3c1-245-271-238-272-8-5 228 272 366 272 8"/><g id="p"><use height="100%" width="100%" xlink:href="#aw" transform="scale(.03111)"/><use height="100%" width="100%" xlink:href="#ax" transform="translate(15.6) scale(.03111)"/></g><g id="q"><use height="100%" width="100%" xlink:href="#ah" transform="scale(.03111)"/><use height="100%" width="100%" xlink:href="#ai" transform="translate(15.6) scale(.03111)"/><use height="100%" width="100%" xlink:href="#aj" transform="translate(31.1) scale(.03111)"/><use height="100%" width="100%" xlink:href="#ak" transform="translate(46.7) scale(.03111)"/><use height="100%" width="100%" xlink:href="#al" transform="translate(62.2) scale(.03111)"/></g><g id="r"><use height="100%" width="100%" xlink:href="#as" transform="scale(.0152)"/><use height="100%" width="100%" xlink:href="#Q" transform="translate(23) scale(.01519)"/><use height="100%" width="100%" xlink:href="#W" transform="translate(38) scale(.01519)"/><use height="100%" width="100%" xlink:href="#Q" transform="translate(53.5) scale(.01519)"/><use height="100%" width="100%" xlink:href="#R" transform="translate(68.4) scale(.01519)"/><use height="100%" width="100%" xlink:href="#V" transform="translate(80.7) scale(.01519)"/><use height="100%" width="100%" xlink:href="#ab" transform="translate(94) scale(.01519)"/><use height="100%" width="100%" xlink:href="#Q" transform="translate(104.3) scale(.01519)"/></g><g id="s"><use height="100%" width="100%" xlink:href="#af" transform="scale(.0152)"/><use height="100%" width="100%" xlink:href="#V" transform="translate(22) scale(.01519)"/><use height="100%" width="100%" xlink:href="#W" transform="translate(35.3) scale(.01519)"/><use height="100%" width="100%" xlink:href="#Z" transform="translate(50.9) scale(.01519)"/><use height="100%" width="100%" xlink:href="#Y" transform="translate(66.7) scale(.01519)"/><use height="100%" width="100%" xlink:href="#Z" transform="translate(73.5) scale(.01519)"/><use height="100%" width="100%" xlink:href="#V" transform="translate(89.4) scale(.01519)"/><use height="100%" width="100%" xlink:href="#ab" transform="translate(102.7) scale(.01519)"/><use height="100%" width="100%" xlink:href="#Q" transform="translate(113) scale(.01519)"/></g><g id="t"><use height="100%" width="100%" xlink:href="#T" transform="scale(.0152)"/><use height="100%" width="100%" xlink:href="#U" transform="translate(15.9) scale(.01519)"/><use height="100%" width="100%" xlink:href="#V" transform="translate(22.7) scale(.01519)"/><use height="100%" width="100%" xlink:href="#W" transform="translate(36) scale(.01519)"/><use height="100%" width="100%" xlink:href="#au" transform="translate(51.5) scale(.01519)"/></g><g id="u"><use height="100%" width="100%" xlink:href="#ag" transform="scale(.0152)"/><use height="100%" width="100%" xlink:href="#am" transform="translate(15.6) scale(.01519)"/><use height="100%" width="100%" xlink:href="#V" transform="translate(29.2) scale(.01519)"/><use height="100%" width="100%" xlink:href="#U" transform="translate(42.5) scale(.01519)"/><use height="100%" width="100%" xlink:href="#P" transform="translate(49.3) scale(.01519)"/><use height="100%" width="100%" xlink:href="#V" transform="translate(64.8) scale(.01519)"/><use height="100%" width="100%" xlink:href="#ab" transform="translate(78.1) scale(.01519)"/><use height="100%" width="100%" xlink:href="#Q" transform="translate(88.5) scale(.01519)"/></g><g id="v"><use height="100%" width="100%" xlink:href="#af" transform="scale(.0152)"/><use height="100%" width="100%" xlink:href="#V" transform="translate(22) scale(.01519)"/><use height="100%" width="100%" xlink:href="#W" transform="translate(35.3) scale(.01519)"/><use height="100%" width="100%" xlink:href="#Z" transform="translate(50.9) scale(.01519)"/><use height="100%" width="100%" xlink:href="#Y" transform="translate(66.7) scale(.01519)"/><use height="100%" width="100%" xlink:href="#Z" transform="translate(73.5) scale(.01519)"/><use height="100%" width="100%" xlink:href="#V" transform="translate(89.4) scale(.01519)"/><use height="100%" width="100%" xlink:href="#ab" transform="translate(102.7) scale(.01519)"/><use height="100%" width="100%" xlink:href="#Q" transform="translate(113) scale(.01519)"/></g><g id="w"><use height="100%" width="100%" xlink:href="#af" transform="scale(.0152)"/><use height="100%" width="100%" xlink:href="#ad" transform="translate(22) scale(.01519)"/><use height="100%" width="100%" xlink:href="#ao" transform="translate(37.6) scale(.01519)"/><use height="100%" width="100%" xlink:href="#ao" transform="translate(54.7) scale(.01519)"/><use height="100%" width="100%" xlink:href="#au" transform="translate(72) scale(.01519)"/><use height="100%" width="100%" xlink:href="#Q" transform="translate(83.9) scale(.01519)"/></g><path id="ay" d="M1933-1397h199L1567 6h-43l-457-1136L606 6h-43L0-1397h201l385 963 387-963h190l389 963"/><g id="x"><use height="100%" width="100%" xlink:href="#ay" transform="scale(.0152)"/><use height="100%" width="100%" xlink:href="#Y" transform="translate(32.4) scale(.01519)"/><use height="100%" width="100%" xlink:href="#W" transform="translate(39.2) scale(.01519)"/><use height="100%" width="100%" xlink:href="#W" transform="translate(54.8) scale(.01519)"/><use height="100%" width="100%" xlink:href="#Y" transform="translate(70.3) scale(.01519)"/><use height="100%" width="100%" xlink:href="#W" transform="translate(77.2) scale(.01519)"/><use height="100%" width="100%" xlink:href="#ae" transform="translate(92.7) scale(.01519)"/></g><g id="y"><use height="100%" width="100%" xlink:href="#T" transform="scale(.0152)"/><use height="100%" width="100%" xlink:href="#U" transform="translate(15.9) scale(.01519)"/><use height="100%" width="100%" xlink:href="#V" transform="translate(22.7) scale(.01519)"/><use height="100%" width="100%" xlink:href="#W" transform="translate(36) scale(.01519)"/></g><g id="z"><use height="100%" width="100%" xlink:href="#af" transform="scale(.0152)"/><use height="100%" width="100%" xlink:href="#R" transform="translate(22) scale(.01519)"/><use height="100%" width="100%" xlink:href="#Q" transform="translate(33.7) scale(.01519)"/><use height="100%" width="100%" xlink:href="#V" transform="translate(48.6) scale(.01519)"/><use height="100%" width="100%" xlink:href="#ab" transform="translate(61.9) scale(.01519)"/><use height="100%" width="100%" xlink:href="#Q" transform="translate(72.3) scale(.01519)"/></g><g id="A"><use height="100%" width="100%" xlink:href="#af" transform="scale(.0152)"/><use height="100%" width="100%" xlink:href="#V" transform="translate(22) scale(.01519)"/><use height="100%" width="100%" xlink:href="#ac" transform="translate(35.3) scale(.01519)"/><use height="100%" width="100%" xlink:href="#ad" transform="translate(49) scale(.01519)"/><use height="100%" width="100%" xlink:href="#Q" transform="translate(64.5) scale(.01519)"/></g><g id="B"><use height="100%" width="100%" xlink:href="#O" transform="scale(.01953)"/><use height="100%" width="100%" xlink:href="#P" transform="translate(33) scale(.01953)"/><use height="100%" width="100%" xlink:href="#Q" transform="translate(53) scale(.01953)"/><use height="100%" width="100%" xlink:href="#R" transform="translate(72) scale(.01953)"/><use height="100%" width="100%" xlink:href="#S" transform="translate(89.1) scale(.01953)"/></g><g id="C"><use height="100%" width="100%" xlink:href="#at" transform="scale(.01953)"/><use height="100%" width="100%" xlink:href="#Q" transform="translate(24.2) scale(.01953)"/><use height="100%" width="100%" xlink:href="#au" transform="translate(43.3) scale(.01953)"/><use height="100%" width="100%" xlink:href="#P" transform="translate(58.7) scale(.01953)"/><use height="100%" width="100%" xlink:href="#U" transform="translate(78.7) scale(.01953)"/><use height="100%" width="100%" xlink:href="#ab" transform="translate(87.5) scale(.01953)"/><use height="100%" width="100%" xlink:href="#au" transform="translate(100.8) scale(.01953)"/></g><path id="az" d="M78-624h359v61H148v196h233v61H148V0H78v-624"/><path id="aA" d="M106-457h183v399h107V0H100v-58h117v-341H106v-58zm149-199c29 0 51 23 51 51a51.4 51.4 0 1 1-103 0c0-28 23-51 52-51"/><path id="aB" d="M85-665h202v607h134V0H79v-58h135v-549H85v-58"/><g id="D"><use height="100%" width="100%" xlink:href="#az" transform="scale(.03111)"/><use height="100%" width="100%" xlink:href="#ai" transform="translate(15.6) scale(.03111)"/><use height="100%" width="100%" xlink:href="#aA" transform="translate(31.1) scale(.03111)"/><use height="100%" width="100%" xlink:href="#aB" transform="translate(46.7) scale(.03111)"/></g><g id="E"><use height="100%" width="100%" xlink:href="#ag" transform="scale(.0152)"/><use height="100%" width="100%" xlink:href="#am" transform="translate(15.6) scale(.01519)"/><use height="100%" width="100%" xlink:href="#Y" transform="translate(29.2) scale(.01519)"/><use height="100%" width="100%" xlink:href="#ac" transform="translate(36) scale(.01519)"/><use height="100%" width="100%" xlink:href="#ab" transform="translate(49.6) scale(.01519)"/></g><g id="F"><use height="100%" width="100%" xlink:href="#af" transform="scale(.0152)"/><use height="100%" width="100%" xlink:href="#V" transform="translate(22) scale(.01519)"/><use height="100%" width="100%" xlink:href="#ac" transform="translate(35.3) scale(.01519)"/><use height="100%" width="100%" xlink:href="#ad" transform="translate(49) scale(.01519)"/><use height="100%" width="100%" xlink:href="#Q" transform="translate(64.5) scale(.01519)"/></g></defs></svg>