<?xml version="1.0" encoding="UTF-8"?>
<!DOCTYPE svg PUBLIC "-//W3C//DTD SVG 1.1//EN" "http://www.w3.org/Graphics/SVG/1.1/DTD/svg11.dtd">
<svg version="1.1" xmlns="http://www.w3.org/2000/svg" xmlns:xlink="http://www.w3.org/1999/xlink" x="0px" y="0px" width="520" height="370" viewBox="0, 0, 520, 370">
  <g id="boxes">
    <g>
      <path d="M215.161,24.569 C215.161,24.013 214.513,23.562 213.711,23.562 L171.951,23.562 C171.15,23.562 170.5,24.013 170.5,24.569 L170.5,53.555 C170.5,54.112 171.15,54.562 171.951,54.562 L213.711,54.562 C214.513,54.562 215.161,54.112 215.161,53.555 L215.161,24.569" fill="#BBDB88"/>
      <text transform="matrix(1, 0, 0, 1, 192.831, 39.062)">
        <tspan x="-13.774" y="4.5" font-family="GillSans" font-size="14" fill="#000000">User</tspan>
      </text>
    </g>
    <g>
      <path d="M280.331,24.569 C280.331,24.013 279.682,23.562 278.88,23.562 L237.12,23.562 C236.319,23.562 235.669,24.013 235.669,24.569 L235.669,53.555 C235.669,54.112 236.319,54.562 237.12,54.562 L278.88,54.562 C279.682,54.562 280.331,54.112 280.331,53.555 L280.331,24.569" fill="#BBDB88"/>
      <text transform="matrix(1, 0, 0, 1, 258, 39.062)">
        <tspan x="-13.774" y="4.5" font-family="GillSans" font-size="14" fill="#000000">User</tspan>
      </text>
    </g>
    <g>
      <path d="M345.5,24.569 C345.5,24.013 344.851,23.562 344.049,23.562 L302.289,23.562 C301.488,23.562 300.839,24.013 300.839,24.569 L300.839,53.555 C300.839,54.112 301.488,54.562 302.289,54.562 L344.049,54.562 C344.851,54.562 345.5,54.112 345.5,53.555 L345.5,24.569" fill="#BBDB88"/>
      <text transform="matrix(1, 0, 0, 1, 323.169, 39.062)">
        <tspan x="-13.774" y="4.5" font-family="GillSans" font-size="14" fill="#000000">User</tspan>
      </text>
    </g>
    <path d="M408.219,193.213 C408.219,192.406 403.849,191.752 398.449,191.752 L117.194,191.752 C111.8,191.752 107.424,192.406 107.424,193.213 L107.424,235.29 C107.424,236.098 111.8,236.752 117.194,236.752 L398.449,236.752 C403.849,236.752 408.219,236.098 408.219,235.29 L408.219,193.213" fill="#2A86C0"/>
    <text transform="matrix(1, 0, 0, 1, 257.822, 218.391)">
      <tspan x="-96.639" y="4.617" font-family="GillSans" font-size="24" fill="#FFFFFF">Trusted Middleware</tspan>
    </text>
    <g>
      <path d="M475.41,465.279 C475.41,464.473 472.868,463.819 469.726,463.819 L306.094,463.819 C302.956,463.819 300.41,464.473 300.41,465.279 L300.41,507.357 C300.41,508.164 302.956,508.819 306.094,508.819 L469.726,508.819 C472.868,508.819 475.41,508.164 475.41,507.357 L475.41,465.279" fill="#2A86C0"/>
      <text transform="matrix(1, 0, 0, 1, 397.01, 487.529)">
        <tspan x="-43.832" y="6.168" font-family="GillSans" font-size="24" fill="#FFFFFF">mongod</tspan>
      </text>
    </g>
    <path d="M107.424,331.797 C107.424,332.899 109.676,333.793 112.454,333.793 L403.189,333.793 C405.967,333.793 408.219,332.899 408.219,331.797 L408.219,290.789 C408.219,289.687 405.967,288.793 403.189,288.793 L112.454,288.793 C109.676,288.793 107.424,289.687 107.424,290.789 L107.424,331.797" fill="#5A5955"/>
    <text transform="matrix(1, 0, 0, 1, 257.822, 318.293)">
      <tspan x="-43.2" y="-2.5" font-family="GillSans" font-size="21" fill="#FFFFFE">MongoDB</tspan>
    </text>
    <path d="M408.219,96.864 C408.219,96.058 403.849,95.404 398.449,95.404 L117.194,95.404 C111.8,95.404 107.424,96.058 107.424,96.864 L107.424,138.942 C107.424,139.749 111.8,140.404 117.194,140.404 L398.449,140.404 C403.849,140.404 408.219,139.749 408.219,138.942 L408.219,96.864" fill="#5CA831"/>
    <text transform="matrix(1, 0, 0, 1, 257.822, 124.923)">
      <tspan x="-48.029" y="-2.5" font-family="GillSans" font-size="21" fill="#FFFFFE">Application</tspan>
    </text>
    <text transform="matrix(1, 0, 0, 1, 115.5, 494.319)">
      <tspan x="-4.869" y="-6.547" font-family="GillSans-UltraBold" font-size="24" fill="#0F517D">.</tspan>
      <tspan x="-4.869" y="8.453" font-family="GillSans-UltraBold" font-size="24" fill="#0F517D">.</tspan>
      <tspan x="-4.869" y="23.453" font-family="GillSans-UltraBold" font-size="24" fill="#0F517D">.</tspan>
    </text>
    <g>
      <path d="M152.086,24.569 C152.086,24.013 151.437,23.562 150.635,23.562 L108.875,23.562 C108.074,23.562 107.424,24.013 107.424,24.569 L107.424,53.555 C107.424,54.112 108.074,54.562 108.875,54.562 L150.635,54.562 C151.437,54.562 152.086,54.112 152.086,53.555 L152.086,24.569" fill="#BBDB88"/>
      <text transform="matrix(1, 0, 0, 1, 129.755, 39.062)">
        <tspan x="-13.774" y="4.5" font-family="GillSans" font-size="14" fill="#000000">User</tspan>
      </text>
    </g>
    <g>
      <path d="M408.219,24.569 C408.219,24.013 407.57,23.562 406.768,23.562 L365.008,23.562 C364.207,23.562 363.557,24.013 363.557,24.569 L363.557,53.555 C363.557,54.112 364.207,54.562 365.008,54.562 L406.768,54.562 C407.57,54.562 408.219,54.112 408.219,53.555 L408.219,24.569" fill="#BBDB88"/>
      <text transform="matrix(1, 0, 0, 1, 385.888, 39.062)">
        <tspan x="-13.774" y="4.5" font-family="GillSans" font-size="14" fill="#000000">User</tspan>
      </text>
    </g>
  </g>
  <g id="arrows">
    <g>
      <path d="M323.85,64.511 L323.489,86.455" fill-opacity="0" stroke="#625F5E" stroke-width="1.25"/>
      <path d="M326.999,64.563 L323.988,56.112 L320.7,64.459 z" fill="#625F5E" fill-opacity="1" stroke="#625F5E" stroke-width="1.25" stroke-opacity="1"/>
      <path d="M320.339,86.403 L323.351,94.854 L326.638,86.507 z" fill="#625F5E" fill-opacity="1" stroke="#625F5E" stroke-width="1.25" stroke-opacity="1"/>
    </g>
    <g>
      <path d="M258.68,64.511 L258.32,86.455" fill-opacity="0" stroke="#625F5E" stroke-width="1.25"/>
      <path d="M261.83,64.563 L258.819,56.112 L255.531,64.459 z" fill="#625F5E" fill-opacity="1" stroke="#625F5E" stroke-width="1.25" stroke-opacity="1"/>
      <path d="M255.17,86.403 L258.181,94.854 L261.469,86.507 z" fill="#625F5E" fill-opacity="1" stroke="#625F5E" stroke-width="1.25" stroke-opacity="1"/>
    </g>
    <g>
      <path d="M193.511,64.511 L193.15,86.455" fill-opacity="0" stroke="#625F5E" stroke-width="1.25"/>
      <path d="M196.661,64.563 L193.649,56.112 L190.362,64.459 z" fill="#625F5E" fill-opacity="1" stroke="#625F5E" stroke-width="1.25" stroke-opacity="1"/>
      <path d="M190.001,86.403 L193.012,94.854 L196.3,86.507 z" fill="#625F5E" fill-opacity="1" stroke="#625F5E" stroke-width="1.25" stroke-opacity="1"/>
    </g>
    <g>
      <path d="M258.164,152.941 L258.164,180.452" fill-opacity="0" stroke="#625F5E" stroke-width="2"/>
      <path d="M261.764,152.941 L258.164,143.341 L254.564,152.941 z" fill="#625F5E" fill-opacity="1" stroke="#625F5E" stroke-width="2" stroke-opacity="1"/>
      <path d="M254.564,180.452 L258.164,190.052 L261.764,180.452 z" fill="#625F5E" fill-opacity="1" stroke="#625F5E" stroke-width="2" stroke-opacity="1"/>
    </g>
    <g>
      <path d="M258.164,248.935 L258.164,276.446" fill-opacity="0" stroke="#625F5E" stroke-width="2"/>
      <path d="M261.764,248.935 L258.164,239.335 L254.564,248.935 z" fill="#625F5E" fill-opacity="1" stroke="#625F5E" stroke-width="2" stroke-opacity="1"/>
      <path d="M254.564,276.446 L258.164,286.046 L261.764,276.446 z" fill="#625F5E" fill-opacity="1" stroke="#625F5E" stroke-width="2" stroke-opacity="1"/>
    </g>
    <g>
      <path d="M386.568,64.511 L386.207,86.455" fill-opacity="0" stroke="#625F5E" stroke-width="1.25"/>
      <path d="M389.718,64.563 L386.707,56.112 L383.419,64.459 z" fill="#625F5E" fill-opacity="1" stroke="#625F5E" stroke-width="1.25" stroke-opacity="1"/>
      <path d="M383.058,86.403 L386.069,94.854 L389.357,86.507 z" fill="#625F5E" fill-opacity="1" stroke="#625F5E" stroke-width="1.25" stroke-opacity="1"/>
    </g>
    <g>
      <path d="M130.436,64.511 L130.075,86.455" fill-opacity="0" stroke="#625F5E" stroke-width="1.25"/>
      <path d="M133.585,64.563 L130.574,56.112 L127.286,64.459 z" fill="#625F5E" fill-opacity="1" stroke="#625F5E" stroke-width="1.25" stroke-opacity="1"/>
      <path d="M126.925,86.403 L129.937,94.854 L133.224,86.507 z" fill="#625F5E" fill-opacity="1" stroke="#625F5E" stroke-width="1.25" stroke-opacity="1"/>
    </g>
  </g>
  <g id="text">
    <text transform="matrix(1, 0, 0, 1, 339.227, 166.196)">
      <tspan x="-61.312" y="2.635" font-family="GillSans-SemiBold" font-size="14" fill="#000000">Requests</tspan>
    </text>
    <text transform="matrix(1, 0, 0, 1, 352.992, 262.19)">
      <tspan x="-75.078" y="-5.11" font-family="GillSans-SemiBold" font-size="14" fill="#000000">Aggregation Pipeline </tspan>
      <tspan x="-75.078" y="11.89" font-family="GillSans-SemiBold" font-size="14" fill="#000000">with $redact</tspan>
    </text>
  </g>
  <defs/>
</svg>
