<svg xmlns="http://www.w3.org/2000/svg" height="480" width="800"><path d="M3.1 190.4H225v230.5H3z" stroke="#3f2615" stroke-width="4" fill="none"/><path d="M43.3 453.5v-16.3h5.5q3.4 0 5.3 1 2 1 3.1 3 1.2 1.9 1.2 4.2 0 1.6-.7 3.1-.6 1.5-1.8 2.6-1.2 1.2-2.8 1.8-.9.4-1.7.5l-3 .1h-5zm5.3-14.3h-3v12.2h3q1.8 0 2.8-.2l1.6-.6q.7-.4 1.2-1 1.7-1.7 1.7-4.4 0-2.6-1.8-4.3-.6-.6-1.5-1-.8-.4-1.6-.5-.7-.2-2.4-.2zm19.2 7.8v4.6q0 .6.3.6.4 0 1.2-.6v1.3q-.7.5-1.1.6l-1 .2q-1.3 0-1.6-1-1.3 1-2.9 1-1 0-1.8-.7-.8-.8-.8-2 0-1 .8-1.7.7-.8 2-1.3l2.8-1v-.5q0-2-2-2-1.7 0-3.4 1.8V444q1.3-1.5 3.6-1.5 1.7 0 2.8 1l.6.7.4 1v1.9zm-2.1 4.4v-3.2l-1.5.6q-1 .4-1.5.8-.5.5-.5 1.1 0 .7.5 1.1.4.4 1 .4 1.1 0 2-.8zm4-6.9l4-4v2.3h3.5v1.9h-3.4v5.3q0 1.8 1.5 1.8 1.1 0 2.4-.8v2q-1.2.7-2.7.7-1.4 0-2.4-.8l-.5-.6-.4-.9v-6.7h-2v-.2zM86 447v4.6q0 .6.4.6t1.2-.6v1.3q-.7.5-1.1.6l-1 .2q-1.3 0-1.6-1-1.3 1-2.9 1-1.1 0-1.8-.7-.8-.8-.8-2 0-1 .7-1.7.8-.8 2.1-1.3l2.7-1v-.5q0-2-1.9-2-1.7 0-3.4 1.8V444q1.2-1.5 3.6-1.5 1.7 0 2.8 1l.6.7.4 1v1.9zm-2 4.4v-3.2l-1.5.6q-1 .4-1.5.8-.5.5-.5 1.1 0 .7.4 1.1.5.4 1.2.4 1 0 1.8-.8zm26.6-1.7v2.6q-2.6 1.4-6 1.4-2.7 0-4.6-1-2-1.2-3-3.1-1.1-2-1.1-4.2 0-3.6 2.5-6 2.6-2.4 6.3-2.4 2.6 0 5.7 1.3v2.5q-2.9-1.6-5.6-1.6-2.8 0-4.7 1.8-1.8 1.7-1.8 4.4t1.8 4.4q1.8 1.8 4.7 1.8 3 0 5.8-1.9zm11.8-1.4h-7.6q.1 1.6 1 2.5 1 1 2.5 1 2.1 0 4-1.4v2q-1 .7-2 1-1 .3-2.3.3-1.8 0-2.9-.7-1-.8-1.8-2-.6-1.3-.6-3 0-2.4 1.4-4 1.4-1.5 3.6-1.5 2.1 0 3.4 1.5 1.3 1.5 1.3 4v.3zm-7.5-1.2h5.4q0-1.3-.8-2-.7-.7-1.8-.7-1.2 0-1.9.7t-1 2zm11.9-4.3v1.3q1.5-1.6 3.3-1.6 1 0 1.8.6 1 .5 1.4 1.4.4.9.4 2.9v6.1h-2.1v-6.1q0-1.7-.5-2.4t-1.7-.7q-1.5 0-2.6 1.5v7.7h-2.2v-10.7h2.2zm8.4 1.7l4-4v2.3h3.4v1.9h-3.4v5.3q0 1.8 1.5 1.8 1.2 0 2.5-.8v2q-1.3.7-2.7.7-1.5 0-2.5-.8l-.5-.6-.3-.9-.1-2v-4.7h-2v-.2zm18.7 3.8h-7.6q.1 1.6 1 2.5 1 1 2.5 1 2.1 0 4-1.4v2q-1 .7-2 1-1 .3-2.3.3-1.8 0-2.9-.7-1-.8-1.8-2-.6-1.3-.6-3 0-2.4 1.4-4 1.4-1.5 3.6-1.5 2.1 0 3.4 1.5 1.3 1.5 1.3 4v.3zm-7.5-1.2h5.4q0-1.3-.8-2-.7-.7-1.8-.7-1.2 0-1.9.7t-1 2zm12.1-4.3v2.4l.1-.2q1.5-2.5 3-2.5 1.3 0 2.6 1.3l-1.1 1.8q-1.1-1-2-1-1.1 0-1.9 1-.7 1-.7 2.3v5.6h-2.2v-10.7h2.2zm17.2-5.6h2.3v16.3h-2.3v-16.3z" font-size="24" font-family="GillSans" fill="#412818"/><path d="M213.5 228.4c0-1.1-3-2-6.5-2H20c-3.6 0-6.5.9-6.5 2v60.8c0 1.2 3 2.1 6.5 2.1h187c3.6 0 6.5-1 6.5-2v-60.9" fill="#3299cc"/><path d="M58.7 270.8v-24.6h7.7q3.6 0 5.7 2 2 1.8 2 5 0 2.2-1 3.8-1.1 1.7-3 2.4-1.8.8-5.3.8h-2.6v10.6h-3.5zm7.1-21.4h-3.6v7.6H66q2.2 0 3.3-1 1.2-1 1.2-2.9 0-3.7-4.7-3.7zm14.4 5.3v3.7l.2-.3q2.3-3.8 4.6-3.8 1.8 0 3.8 1.9L87 259q-1.7-1.6-3.1-1.6-1.5 0-2.7 1.5-1.1 1.4-1.1 3.5v8.4H77v-16.1h3.2zm12.5-6.9q.8 0 1.3.6.6.5.6 1.3t-.6 1.4q-.5.5-1.3.5t-1.3-.5q-.6-.6-.6-1.4 0-.7.6-1.3.5-.6 1.3-.6zm-1.6 6.9h3.2v16.1h-3.2v-16.1zm21.1 4.3v11.8h-3.3v-9q0-2.7-.7-3.7t-2.5-1q-1 0-1.8.4-.9.4-2 1.6v11.7h-3.1v-16.1h3.2v2q2.4-2.4 4.8-2.4 3 0 4.7 3 2.6-3 5.4-3 2.3 0 3.8 1.7 1.6 1.7 1.6 5.3v9.5H119v-9.6q0-2-.9-3-.8-1.1-2.3-1.1-2 0-3.7 2zm24.6 2.1v6.9q0 .8.5.8.6 0 1.8-.9v2l-1.7 1-1.4.2q-2 0-2.4-1.6-2 1.6-4.3 1.6-1.7 0-2.9-1.1-1-1.2-1-2.9 0-1.5 1-2.7 1.1-1.2 3.1-1.9l4.1-1.4v-.9q0-2.9-2.9-2.9-2.6 0-5 2.7v-3.5q1.8-2.2 5.3-2.2 2.6 0 4.2 1.4.5.4 1 1.2l.5 1.4v2.8zm-3.2 6.5v-4.8l-2.1.9q-1.7.6-2.3 1.3-.7.6-.7 1.6t.6 1.6q.7.7 1.7.7 1.5 0 2.8-1.3zm11.8-12.9v3.7l.2-.3q2.3-3.8 4.7-3.8 1.8 0 3.7 1.9l-1.7 2.8q-1.6-1.6-3-1.6-1.6 0-2.7 1.5-1.2 1.4-1.2 3.5v8.4h-3.2v-16.1h3.2zm21.8 0h3.6L159.4 279h-3.6l5.5-11.7-6.2-12.7h3.6l4.4 9 4.1-9z" font-size="36" font-family="GillSans" fill="#fff"/><path d="M90.5 288v-8h1.9q1.4 0 2.2.6.8.8.8 2 0 1.3-.8 2-.7.8-1.9.8l-1.1-.2v2.9h-1.1zm1.8-7h-.7v3.2q.5.3 1 .3.8 0 1.2-.5.5-.5.5-1.4 0-.5-.2-.9t-.6-.6q-.4-.2-1.2-.2zm5.4-1v1.2-.1q.8-1.3 1.6-1.3.6 0 1.3.6l-.6 1q-.6-.6-1-.6-.5 0-1 .5-.3.5-.3 1.2v2.8h-1V280h1zm4.2-2.3l.4.1q.2.2.2.5l-.2.4-.4.2q-.3 0-.5-.2l-.2-.4q0-.3.2-.4.2-.2.5-.2zm-.6 2.2h1.1v5.4h-1V280zm5.2.1q1.2 0 2 .7.9.8.9 2t-.9 2q-.8.7-2 .7t-2-.8q-.9-.7-.9-2 0-1.1.8-1.9.9-.8 2.1-.8zm0 .9q-.8 0-1.3.5t-.5 1.3q0 .7.5 1.2t1.3.5q.8 0 1.3-.5t.5-1.2q0-.8-.5-1.3-.6-.5-1.3-.5zm5.2-.9v1.2-.1q.8-1.3 1.6-1.3.6 0 1.3.6l-.6 1q-.6-.6-1-.6-.6 0-1 .5-.3.5-.3 1.2v2.8h-1V280h1zm4.2-2.3l.4.1q.2.2.2.5l-.2.4-.4.2q-.3 0-.5-.2l-.2-.4q0-.3.2-.4.2-.2.5-.2zm-.6 2.2h1v5.4h-1V280zm1.9.9l2-2v1.1h1.7v1h-1.7v2.6q0 1 .7 1 .6 0 1.3-.4v1q-.7.3-1.4.3t-1.2-.4l-.3-.3-.1-.4v-3.4h-1v-.1zm8-.8h1.2l-3.8 8h-1.2l1.9-3.8-2.1-4.3h1.2l1.4 3 1.4-3zm2.5 4q.3 0 .5.2t.2.5q0 .3-.2.5t-.5.2q-.3 0-.5-.2t-.2-.5q0-.3.2-.5t.5-.2zm0-4.2q.4 0 .6.2.2.2.2.5l-.2.6q-.2.2-.5.2t-.5-.2l-.2-.6q0-.3.2-.5t.5-.2zm5.9-2.7h1.2v8.2h-1.2v-8.2z" font-size="12" font-family="GillSans" fill="#3e2d1b"/><path d="M213.5 332c0-1.2-3-2.1-6.5-2.1H20c-3.6 0-6.5 1-6.5 2v60.9c0 1.1 3 2 6.5 2h187c3.6 0 6.5-.9 6.5-2V332" fill="#6cb340"/><path d="M46.2 364l-2.7-1.5q-2.5-1.6-3.6-3-1-1.5-1-3.5 0-2.9 2-4.7 2-1.8 5.2-1.8 3.1 0 5.7 1.7v4q-2.7-2.5-5.7-2.5-1.8 0-2.9.8-1 .8-1 2 0 1.1.7 2 .8 1 2.7 2.1l2.6 1.6q4.5 2.7 4.5 6.8 0 3-2 4.8-2 1.9-5 1.9-3.7 0-6.7-2.3V368q2.8 3.6 6.6 3.6 1.6 0 2.7-1 1.1-.9 1.1-2.3 0-2.2-3.2-4.2zm23.8 2.6H58.6q.1 2.3 1.6 3.7 1.4 1.3 3.7 1.3 3.1 0 5.8-2v3.2q-1.5 1-3 1.4-1.4.4-3.3.4-2.7 0-4.3-1-1.7-1.2-2.7-3-1-2-1-4.4 0-3.7 2.1-6t5.4-2.3q3.3 0 5.2 2.2 1.9 2.3 1.9 6v.5zm-11.3-2h8.1q-.1-1.9-1.1-2.9t-2.8-1q-1.7 0-2.8 1-1 1-1.4 3zm26.9 6v3.2q-2.4.9-4.8.9-3.7 0-6-2.3-2.3-2.2-2.3-6t2.2-6.2q2.2-2.3 5.8-2.3 1.3 0 2.2.2l2.5 1v3.3q-2.4-1.5-4.5-1.5-2.2 0-3.5 1.5-1.4 1.5-1.4 3.9 0 2.5 1.5 4 1.5 1.4 4 1.4 1.9 0 4.3-1.1zM97 358.2q3.6 0 6 2.4 2.5 2.3 2.5 6 0 3.4-2.5 5.8-2.5 2.3-6.2 2.3t-6.1-2.4q-2.5-2.3-2.5-5.8 0-3.6 2.5-6 2.5-2.3 6.2-2.3zm-.3 2.9q-2.3 0-3.7 1.5-1.5 1.5-1.5 3.8t1.5 3.8q1.5 1.5 3.9 1.5 2.3 0 3.8-1.5t1.5-3.8q0-2.3-1.5-3.8-1.6-1.5-4-1.5zm15.5-2.9v2q2.2-2.3 4.9-2.3 1.5 0 2.8.8 1.3.8 2 2.1.6 1.4.6 4.3v9.3h-3.2v-9.2q0-2.5-.7-3.6-.8-1-2.5-1-2.3 0-3.9 2.2v11.6H109v-16.2h3.3zm25.6-8.4h3.2v24.6h-6.8q-3.6 0-5.7-2.3-2.2-2.3-2.2-6 0-3.6 2.3-6 2.2-2.2 5.7-2.2 1.6 0 3.5.6v-8.7zm0 21.8v-10.2q-1.5-.8-3-.8-2.4 0-3.8 1.6t-1.4 4.2q0 2.5 1.2 3.9.7.8 1.6 1 .8.3 3 .3h2.4zm17.7-6.9v6.8q0 .9.6.9t1.8-.9v2l-1.8.9q-.6.3-1.3.3-2 0-2.5-1.7-2 1.6-4.3 1.6-1.7 0-2.8-1-1.1-1.2-1.1-2.9 0-1.5 1-2.7 1.2-1.2 3.2-2l4-1.3v-.9q0-3-2.8-3-2.7 0-5.1 2.8V360q1.8-2.2 5.3-2.2 2.6 0 4.2 1.4.5.4 1 1.1.4.8.5 1.5l.1 2.8zm-3.1 6.5v-4.8l-2.2.8q-1.6.7-2.3 1.3-.7.7-.7 1.7t.7 1.6q.6.6 1.6.6 1.6 0 2.9-1.2zm11.8-13v3.7l.2-.3q2.3-3.7 4.6-3.7 1.8 0 3.8 1.8l-1.7 2.8q-1.7-1.6-3.1-1.6-1.5 0-2.7 1.5-1.1 1.5-1.1 3.5v8.5H161v-16.2h3.2zm21.8 0h3.6L178 382.6h-3.5L180 371l-6.3-12.7h3.7l4.3 9.1 4.2-9z" font-size="36" font-family="GillSans" fill="#fffffe"/><path d="M103 391.6v-8.1h1.9q1.4 0 2.2.7.8.7.8 2 0 1.2-.8 2-.7.8-1.9.8-.5 0-1.1-.3v3H103zm1.8-7.1h-.7v3.3q.5.3 1 .3.8 0 1.2-.6.5-.5.5-1.3l-.2-1q-.2-.3-.6-.5-.4-.2-1.2-.2zm5.4-1v1.2q.8-1.3 1.6-1.3.6 0 1.3.6l-.6 1q-.6-.6-1-.6-.5 0-1 .5-.3.5-.3 1.2v2.8h-1v-5.4h1zm4.2-2.3l.4.2.2.4q0 .3-.2.5l-.4.2q-.3 0-.5-.2t-.2-.5l.2-.4q.2-.2.5-.2zm-.6 2.3h1.1v5.4h-1v-5.4zm5.2 0q1.2 0 2 .8.9.8.9 2 0 1.1-.9 1.9-.8.8-2 .8t-2-.8q-.9-.8-.9-2 0-1.1.8-2 .9-.7 2.1-.7zm0 1q-.8 0-1.3.4-.5.5-.5 1.3t.5 1.3q.5.5 1.3.5t1.3-.5q.5-.5.5-1.3t-.5-1.3q-.6-.5-1.3-.5zm5.2-1v1.2q.8-1.3 1.6-1.3.6 0 1.3.6l-.6 1q-.6-.6-1-.6-.6 0-1 .5-.3.5-.3 1.2v2.8h-1v-5.4h1zm4.2-2.3l.4.2.2.4q0 .3-.2.5l-.4.2q-.3 0-.5-.2t-.2-.5l.2-.4q.2-.2.5-.2zm-.6 2.3h1v5.4h-1v-5.4zm1.9.8l2-2v1.2h1.7v1h-1.7v2.6q0 1 .7 1 .6 0 1.3-.5v1q-.7.4-1.4.4t-1.2-.5q-.2 0-.3-.2l-.1-.5v-3.4h-1zm8-.8h1.2l-3.8 8.1H134l1.9-3.9-2.1-4.2h1.2l1.4 3 1.4-3zm2.5 4q.3 0 .5.3.2.2.2.5t-.2.5q-.2.2-.5.2t-.5-.2q-.2-.2-.2-.5t.2-.5q.2-.3.5-.3zm0-4.1q.4 0 .6.2.2.2.2.5t-.2.5q-.2.2-.5.2t-.5-.2q-.2-.2-.2-.5t.2-.5q.2-.2.5-.2zm5.9-2.7h1.2v8.2H146v-8.2z" font-size="12" font-family="GillSans" fill="#3e2d1b"/><path d="M545.5 453.5v-16.3h5.5q3.3 0 5.3 1t3 3q1.2 1.9 1.2 4.2 0 1.6-.6 3.1-.7 1.5-1.8 2.6-1.2 1.2-2.8 1.8-1 .4-1.7.5l-3 .1h-5.1zm5.2-14.3h-2.9v12.2h3q1.8 0 2.7-.2l1.6-.6q.7-.4 1.2-1 1.8-1.7 1.8-4.4 0-2.6-1.8-4.3-.7-.6-1.5-1-.9-.4-1.6-.5-.8-.2-2.5-.2zM570 447v4.6q0 .6.3.6.4 0 1.2-.6v1.3q-.7.5-1.2.6-.4.2-.9.2-1.4 0-1.6-1-1.4 1-2.9 1-1.1 0-1.9-.7-.7-.8-.7-2 0-1 .7-1.7.7-.8 2-1.3l2.8-1v-.5q0-2-2-2-1.7 0-3.3 1.8V444q1.2-1.5 3.5-1.5 1.8 0 2.8 1 .4.2.7.7.3.5.3 1l.1 1.9zm-2.2 4.4v-3.2l-1.4.6q-1.1.4-1.6.8-.4.5-.4 1.1 0 .7.4 1.1.4.4 1.1.4 1 0 2-.8zm4.1-6.9l4-4v2.3h3.4v1.9H576v5.3q0 1.8 1.5 1.8 1.2 0 2.5-.8v2q-1.3.7-2.7.7-1.5 0-2.5-.8l-.5-.6-.3-.9-.1-2v-4.7h-2v-.2zm16.3 2.5v4.6q0 .6.4.6t1.2-.6v1.3l-1.2.6q-.4.2-1 .2-1.3 0-1.5-1-1.4 1-3 1-1 0-1.8-.7-.7-.8-.7-2 0-1 .7-1.7.7-.8 2-1.3l2.8-1v-.5q0-2-2-2-1.7 0-3.3 1.8V444q1.2-1.5 3.5-1.5 1.8 0 2.8 1 .4.2.7.7l.3 1v1.9zm-2.1 4.4v-3.2l-1.4.6q-1.1.4-1.6.8-.4.5-.4 1.1 0 .7.4 1.1.4.4 1.1.4 1 0 1.9-.8zm26.6-1.7v2.6q-2.5 1.4-6 1.4-2.7 0-4.6-1-1.9-1.2-3-3.1-1.1-2-1.1-4.2 0-3.6 2.5-6 2.6-2.4 6.3-2.4 2.6 0 5.8 1.3v2.5q-2.9-1.6-5.6-1.6-2.9 0-4.7 1.8-1.9 1.7-1.9 4.4t1.9 4.4q1.8 1.8 4.6 1.8 3 0 5.8-1.9zm11.8-1.4H617q0 1.6 1 2.5 1 1 2.5 1 2 0 3.9-1.4v2q-1 .7-2 1-1 .3-2.3.3-1.7 0-2.8-.7-1.1-.8-1.8-2-.7-1.3-.7-3 0-2.4 1.4-4 1.4-1.5 3.6-1.5t3.5 1.5q1.2 1.5 1.2 4v.3zm-7.5-1.2h5.4q0-1.3-.7-2t-1.9-.7q-1.1 0-1.8.7-.8.7-1 2zm12-4.3v1.3q1.4-1.6 3.2-1.6 1 0 1.9.6.9.5 1.3 1.4.5.9.5 2.9v6.1h-2.2v-6.1q0-1.7-.5-2.4t-1.7-.7q-1.5 0-2.5 1.5v7.7h-2.2v-10.7h2.2zm8.3 1.7l4-4v2.3h3.4v1.9h-3.4v5.3q0 1.8 1.6 1.8 1.1 0 2.4-.8v2q-1.2.7-2.7.7-1.4 0-2.4-.8l-.5-.6-.4-.9v-6.7h-2v-.2zm18.7 3.8h-7.5q0 1.6 1 2.5 1 1 2.5 1 2 0 3.9-1.4v2q-1 .7-2 1-1 .3-2.3.3-1.7 0-2.8-.7-1.1-.8-1.8-2-.7-1.3-.7-3 0-2.4 1.4-4 1.4-1.5 3.6-1.5t3.5 1.5q1.2 1.5 1.2 4v.3zm-7.5-1.2h5.4q0-1.3-.7-2t-1.9-.7q-1.1 0-1.8.7-.8.7-1 2zm12.1-4.3v2.4l.1-.2q1.6-2.5 3.1-2.5 1.2 0 2.6 1.3l-1.2 1.8q-1-1-2-1t-1.8 1q-.8 1-.8 2.3v5.6h-2.1v-10.7h2.1zm17.4 8.5h6.2v2.2h-10.4v-.1l1-1.2q2.3-2.8 3.7-4.8l1.8-3q.4-1 .4-2 0-1.5-.8-2.3-.8-.8-2-.8-1 0-2 .6-1 .5-1.7 1.6v-3q1.9-1.5 3.9-1.5 2.1 0 3.5 1.4t1.4 3.6q0 1-.3 2.1-.4 1.1-1.3 2.6-.8 1.5-3 4l-.5.6z" font-size="24" font-family="GillSans" fill="#412818"/><path d="M718.5 228.4c0-1.1-3-2-6.5-2H525c-3.6 0-6.5.9-6.5 2v60.8c0 1.2 3 2.1 6.5 2.1h187c3.6 0 6.5-1 6.5-2v-60.9" fill="#b2b2b2"/><path d="M551.2 260.5l-2.7-1.6q-2.5-1.5-3.6-3-1-1.5-1-3.4 0-3 2-4.7 2-1.9 5.2-1.9 3.1 0 5.7 1.8v4Q554 249 551 249q-1.8 0-2.9.8-1 .8-1 2t.7 2.1q.8 1 2.6 2l2.7 1.6q4.5 2.7 4.5 6.9 0 3-2 4.8-2 1.8-5 1.8-3.7 0-6.7-2.2v-4.5q2.8 3.6 6.6 3.6 1.6 0 2.7-.9 1.1-1 1.1-2.3 0-2.3-3.2-4.3zM575 263h-11.4q.1 2.3 1.6 3.7 1.4 1.4 3.7 1.4 3.1 0 5.8-2v3.1q-1.5 1-3 1.4-1.4.5-3.3.5-2.7 0-4.4-1.1-1.6-1.1-2.6-3t-1-4.4q0-3.6 2.1-6 2-2.3 5.4-2.3 3.2 0 5.2 2.3 1.9 2.2 1.9 6v.4zm-11.3-1.9h8.1q-.1-2-1.1-3t-2.8-1q-1.7 0-2.8 1-1 1-1.4 3zm26.9 5.9v3.2q-2.5.9-4.8.9-3.8 0-6-2.2-2.3-2.3-2.3-6 0-3.9 2.2-6.2 2.2-2.4 5.8-2.4 1.3 0 2.2.3 1 .2 2.5.9v3.4q-2.4-1.6-4.5-1.6-2.2 0-3.5 1.6-1.4 1.5-1.4 3.8 0 2.5 1.5 4 1.5 1.4 4 1.4 1.9 0 4.3-1zm11.4-12.4q3.6 0 6 2.4 2.5 2.4 2.5 6 0 3.5-2.5 5.8t-6.2 2.3q-3.7 0-6.1-2.3-2.5-2.4-2.5-5.9 0-3.6 2.5-6 2.5-2.3 6.2-2.3zm-.3 2.9q-2.3 0-3.7 1.5-1.5 1.5-1.5 3.9 0 2.3 1.5 3.8 1.5 1.4 3.9 1.4 2.3 0 3.8-1.5t1.5-3.8q0-2.3-1.5-3.8-1.6-1.5-4-1.5zm15.5-2.8v2q2.1-2.4 4.9-2.4 1.5 0 2.8.8 1.3.8 2 2.2.6 1.3.6 4.3v9.2h-3.2v-9.2q0-2.5-.7-3.5-.8-1-2.5-1-2.3 0-3.9 2.2v11.5h-3.3v-16.1h3.3zm25.6-8.4h3.2v24.5h-6.8q-3.6 0-5.8-2.2-2-2.3-2-6.1 0-3.6 2.2-5.9 2.2-2.3 5.7-2.3 1.6 0 3.5.7v-8.7zm0 21.8v-10.3q-1.5-.7-3-.7-2.4 0-3.8 1.5-1.4 1.6-1.4 4.3 0 2.5 1.2 3.8.7.8 1.5 1.1.9.3 3 .3h2.5zm17.7-7v6.9q0 .8.6.8t1.8-.9v2l-1.8 1q-.6.2-1.3.2-2.1 0-2.5-1.6-2 1.6-4.3 1.6-1.7 0-2.8-1.1-1.1-1.2-1.1-2.9 0-1.5 1-2.7 1.2-1.2 3.2-1.9l4-1.4v-.9q0-2.9-2.8-2.9-2.7 0-5.1 2.7v-3.5q1.8-2.2 5.3-2.2 2.6 0 4.2 1.4.5.4 1 1.2.4.7.5 1.4l.1 2.8zm-3.1 6.5v-4.8l-2.2.9q-1.6.6-2.3 1.3-.7.6-.7 1.6t.7 1.6q.6.7 1.6.7 1.6 0 2.9-1.3zm11.8-12.9v3.7l.2-.3q2.3-3.8 4.6-3.8 1.8 0 3.8 1.9L676 259q-1.7-1.6-3.1-1.6-1.5 0-2.7 1.5-1.1 1.4-1.1 3.5v8.4H666v-16.1h3.2zm21.8 0h3.6L683 279h-3.5l5.5-11.7-6.3-12.7h3.7l4.3 9 4.2-9z" font-size="36" font-family="GillSans" fill="#fffffe"/><path d="M595.5 288v-8h1.8q1.5 0 2.3.6.8.8.8 2 0 1.3-.8 2-.7.8-1.9.8l-1.1-.2v2.9h-1.1zm1.8-7h-.7v3.2q.5.3 1 .3.8 0 1.2-.5.5-.5.5-1.4 0-.5-.2-.9t-.6-.6q-.4-.2-1.2-.2zm5.4-1v1.2-.1q.8-1.3 1.6-1.3.6 0 1.3.6l-.6 1q-.6-.6-1-.6-.6 0-1 .5-.3.5-.3 1.2v2.8h-1V280h1zm4.2-2.3l.4.1q.2.2.2.5l-.2.4-.4.2q-.3 0-.5-.2l-.2-.4q0-.3.2-.4.2-.2.5-.2zm-.6 2.2h1.1v5.4h-1V280zm5.2.1q1.2 0 2 .7.9.8.9 2t-.9 2q-.8.7-2 .7t-2-.8q-.9-.7-.9-2 0-1.1.8-1.9.9-.8 2.1-.8zm0 .9q-.8 0-1.3.5t-.5 1.3q0 .7.5 1.2t1.3.5q.8 0 1.3-.5t.5-1.2q0-.8-.5-1.3-.6-.5-1.3-.5zm5.2-.9v1.2-.1q.8-1.3 1.6-1.3.6 0 1.3.6l-.6 1q-.6-.6-1-.6-.6 0-1 .5-.3.5-.3 1.2v2.8h-1V280h1zm4.2-2.3l.4.1q.2.2.2.5l-.2.4-.4.2q-.3 0-.5-.2l-.2-.4q0-.3.2-.4.2-.2.5-.2zm-.6 2.2h1v5.4h-1V280zm1.9.9l2-2v1.1h1.7v1h-1.7v2.6q0 1 .7 1 .6 0 1.3-.4v1q-.7.3-1.4.3t-1.2-.4l-.3-.3-.1-.4v-3.4h-1v-.1zm8-.8h1.2l-3.8 8h-1.2l1.9-3.8-2.1-4.3h1.2l1.4 3 1.4-3zm2.5 4q.3 0 .5.2t.2.5q0 .3-.2.5t-.5.2q-.3 0-.5-.2t-.2-.5q0-.3.2-.5t.5-.2zm0-4.2q.4 0 .6.2.2.2.2.5l-.2.6q-.2.2-.5.2t-.5-.2l-.2-.6q0-.3.2-.5t.5-.2zm6.5-2.8q1.2 0 1.9 1.2t.7 3q0 1.9-.7 3-.7 1.2-2 1.2-1.1 0-1.8-1.1-.7-1.2-.7-3 0-2 .7-3.1.7-1.2 2-1.2zm0 1.1q-.7 0-1 .9-.5.8-.5 2.2 0 1.5.4 2.3.4.8 1 .8.8 0 1.1-.8.4-.8.4-2.2 0-1.5-.3-2.3-.4-.9-1-.9z" font-size="12" font-family="GillSans"/><path d="M508.1 190.7h221.7v230.5H508.1z" stroke="#3f2615" stroke-width="4" fill="none"/><path d="M26 73a3 3 0 0 0 3 2.9h169a3 3 0 0 0 3-2.9V13.8a3 3 0 0 0-3-2.9H29a3 3 0 0 0-3 2.9V73" fill="#5a5955"/><path d="M67 55.4V30.8h8.4q5 0 7.9 1.6 3 1.4 4.6 4.4 1.8 2.9 1.8 6.3 0 2.5-1 4.7-1 2.3-2.7 4-1.8 1.7-4.2 2.6-1.4.6-2.5.8-1.2.2-4.4.2H67zM75 34h-4.4v18.2h4.5q2.6 0 4.1-.3 1.5-.4 2.4-1 1-.5 1.8-1.3Q86 47 86 42.9q0-4-2.7-6.4-1-1-2.2-1.5-1.3-.6-2.4-.8-1.2-.2-3.7-.2zm22 5.2V43l.2-.2q2.3-3.8 4.7-3.8 1.8 0 3.7 1.8l-1.7 2.8q-1.6-1.5-3-1.5-1.6 0-2.7 1.4Q97 45 97 47v8.5h-3.2V39.2H97zm12.5-6.8q.8 0 1.4.6.6.5.6 1.3t-.6 1.3q-.6.6-1.4.6-.7 0-1.3-.6-.5-.5-.5-1.3 0-.7.5-1.3.6-.6 1.3-.6zm-1.5 6.8h3.2v16.2H108V39.2zm17.7 0h3.4L122 55.7h-1l-7.4-16.5h3.5l4.4 10 4.2-10zm18.9 8.4h-11.4q.1 2.3 1.6 3.7 1.4 1.4 3.7 1.4 3.1 0 5.8-2v3.1q-1.5 1-3 1.4-1.4.4-3.3.4-2.7 0-4.3-1-1.7-1.2-2.7-3-1-2-1-4.4 0-3.7 2.1-6t5.4-2.3q3.3 0 5.2 2.3 1.9 2.2 1.9 6v.4zm-11.3-2h8.1q-.1-1.8-1.1-2.9-1-1-2.8-1-1.7 0-2.8 1-1 1-1.4 3zm18.2-6.4V43l.2-.2q2.3-3.8 4.6-3.8 1.8 0 3.8 1.8l-1.7 2.8q-1.7-1.5-3.1-1.5-1.6 0-2.7 1.4-1.1 1.5-1.1 3.5v8.5h-3.2V39.2h3.2z" font-size="36" font-family="GillSans" fill="#fffffe"/><path d="M531.5 72.5a3 3 0 0 0 3 2.9h169a3 3 0 0 0 3-2.9V13.3a3 3 0 0 0-3-2.9h-169a3 3 0 0 0-3 2.9v59.2" fill="#5a5955"/><path d="M531.5 72.5a3 3 0 0 0 3 2.9h169a3 3 0 0 0 3-2.9V13.3a3 3 0 0 0-3-2.9h-169a3 3 0 0 0-3 2.9v59.2" stroke="#b2b2b2" fill="none"/><path d="M571.3 54.2V29.6h8.2q5 0 8 1.5 2.9 1.5 4.6 4.5 1.7 2.9 1.7 6.3 0 2.5-1 4.7-.9 2.3-2.6 4-1.8 1.7-4.2 2.6-1.4.6-2.5.8-1.2.2-4.5.2h-7.7zm7.9-21.4h-4.4V51h4.5q2.6 0 4-.3 1.5-.4 2.5-1 1-.5 1.8-1.3 2.6-2.6 2.6-6.7 0-4-2.7-6.4-1-1-2.2-1.6-1.3-.6-2.4-.7-1.2-.2-3.7-.2zm22 5.2v3.7l.2-.3q2.3-3.7 4.6-3.7 1.8 0 3.8 1.8l-1.7 2.8q-1.6-1.5-3-1.5-1.6 0-2.8 1.4-1 1.5-1 3.5v8.5H598V38h3.2zm12.5-6.8q.8 0 1.4.6.5.5.5 1.3t-.5 1.3q-.6.6-1.4.6-.7 0-1.3-.6-.5-.5-.5-1.3 0-.7.5-1.3.6-.6 1.3-.6zm-1.6 6.8h3.2v16.2h-3.2V38zm17.7 0h3.5l-7.1 16.5H625L617.8 38h3.5l4.3 10 4.2-10zm19 8.4h-11.4q.1 2.3 1.5 3.7 1.5 1.3 3.8 1.3 3.1 0 5.8-2v3.2q-1.5 1-3 1.4-1.4.4-3.3.4-2.7 0-4.4-1-1.6-1.2-2.6-3-1-2-1-4.4 0-3.7 2-6 2.2-2.3 5.5-2.3 3.2 0 5.2 2.3 1.9 2.2 1.9 6v.4zm-11.3-2h8.1q-.1-1.8-1.1-2.9-1-1-2.8-1-1.7 0-2.8 1-1.1 1-1.4 3zm18.2-6.4v3.7l.1-.3q2.4-3.7 4.7-3.7 1.8 0 3.8 1.8l-1.7 2.8q-1.7-1.5-3.1-1.5-1.6 0-2.7 1.4-1.1 1.5-1.1 3.5v8.5h-3.3V38h3.3z" font-size="36" font-family="GillSans" fill="#fffffe"/><g stroke="#5a5955" stroke-width="4"><path d="M619 88v122.7" fill="none"/><path d="M614.2 210.7l4.8 12.8 4.8-12.8z" fill="#5a5955"/></g><path d="M11.9 109.3V93h4q2.6 0 4 1.2 1.5 1.2 1.5 3.3 0 1.4-.7 2.5-.8 1-2 1.5L20 103l2.2 3.2 1.3 2 .9 1.2h-2.8l-.7-1-.1-.3-.5-.6-.7-1.2-.8-1.3q-.7-1-1.4-1.6l-1-.8q-.5-.3-1.7-.3h-.6v7.1H12zm3-14.4h-.7v5.2h1q1.7 0 2.3-.3.7-.3 1-1 .5-.5.5-1.3t-.5-1.4q-.4-.6-1.1-.9-.8-.3-2.5-.3zm20.3 9.2h-7.6q.1 1.6 1 2.5 1 .9 2.6.9 2 0 3.8-1.3v2q-1 .7-2 1-.9.3-2.2.3-1.8 0-2.9-.8-1-.7-1.7-2-.7-1.2-.7-2.8 0-2.5 1.4-4 1.4-1.6 3.6-1.6t3.5 1.5q1.2 1.5 1.2 4v.3zm-7.5-1.3h5.4q0-1.2-.7-2-.7-.6-1.9-.6-1.1 0-1.9.7-.7.7-.9 2zm16.6 0v4.6q0 .6.4.6t1.2-.6v1.3q-.7.5-1.2.6-.4.2-.9.2-1.4 0-1.6-1-1.4 1-3 1-1 0-1.8-.8-.7-.7-.7-1.8 0-1 .7-1.8.7-.9 2-1.3l2.8-1v-.5q0-2-2-2-1.7 0-3.3 1.8v-2.3q1.2-1.5 3.5-1.5 1.8 0 2.8 1 .4.2.7.7l.3 1 .1 1.8zm-2.1 4.4V104l-1.4.5q-1.1.5-1.6 1-.4.4-.4 1 0 .7.4 1.1.4.4 1.1.4 1 0 1.9-.8zM55 93h2v16.3h-4.5q-2.4 0-3.8-1.5-1.5-1.5-1.5-4 0-2.4 1.5-4 1.5-1.5 3.8-1.5 1.1 0 2.4.5V93zm0 14.5v-6.8q-1-.5-2-.5-1.6 0-2.6 1t-1 2.8q0 1.7 1 2.6.4.5 1 .7.5.2 2 .2H55zm25.1-9h2.3l-4.7 11H77l-3.2-7.5-3.1 7.5H70l-4.8-11h2.3l2.8 6.6 2.7-6.6h1.6l2.7 6.6 2.8-6.6zM85 94q.6 0 1 .4.3.3.3.9 0 .5-.4.9-.3.3-.9.3-.5 0-.8-.3-.4-.4-.4-1 0-.4.4-.8.3-.4.8-.4zm-1 4.5h2v10.8h-2V98.5zm3.7 1.8l4-4v2.2H95v2h-3.4v5.2q0 1.9 1.5 1.9 1.2 0 2.4-.8v2q-1.2.7-2.6.7-1.5 0-2.5-.8l-.5-.6-.3-.9q-.2-.5-.2-2v-4.7h-1.8v-.2zm9.5-7.3h2v7q1.4-1.7 3.4-1.7 1 0 2 .6.8.5 1.2 1.5.4 1 .4 2.8v6.1h-2.1v-6.6q0-1.2-.6-2-.6-.7-1.5-.7-.7 0-1.3.4-.7.4-1.4 1.2v7.7h-2.1V93z" font-size="24" font-family="GillSans" fill="#5a5955"/><g stroke="#5a5955" stroke-width="4"><path d="M114 87.8v122.6" fill="none"/><path d="M109.2 210.4l4.8 12.8 4.8-12.8z" fill="#5a5955"/></g><path d="M122.7 109.6V93.2h4q2.6 0 4 1.2 1.5 1.3 1.5 3.3 0 1.5-.7 2.5t-2 1.6q.7.5 1.5 1.4l2 3 1.4 2.2 1 1.2h-2.9l-.7-1.1-.1-.2-.5-.7-.7-1.2-.8-1.2-1.3-1.6-1.1-.9q-.5-.3-1.7-.3h-.6v7.2h-2.3zm3-14.4h-.7v5.2h1q1.7 0 2.4-.4.6-.3 1-.9.4-.6.4-1.4 0-.7-.4-1.4-.5-.6-1.2-.9-.7-.2-2.5-.2zm20.3 9.2h-7.5q0 1.5 1 2.4 1 1 2.5 1 2 0 3.9-1.4v2.1q-1 .7-2 1-1 .2-2.3.2-1.7 0-2.8-.7-1.2-.8-1.8-2-.7-1.2-.7-2.9 0-2.4 1.4-4 1.4-1.5 3.6-1.5t3.5 1.5q1.2 1.5 1.2 4v.3zm-7.5-1.3h5.4q0-1.3-.7-2t-1.9-.7q-1.1 0-1.8.7-.8.7-1 2zm16.6-.1v4.7q0 .5.4.5t1.2-.6v1.3l-1.2.7-.9.1q-1.4 0-1.6-1-1.4 1-3 1-1 0-1.8-.7-.7-.8-.7-1.9 0-1 .7-1.8t2-1.3l2.8-1v-.5q0-2-2-2-1.7 0-3.3 1.9V100q1.2-1.4 3.5-1.4 1.8 0 2.8.9.4.3.7.8.3.4.3 1l.1 1.8zm-2 4.4v-3.2l-1.5.6q-1.1.4-1.6.9-.4.4-.4 1 0 .7.4 1.1.4.5 1.1.5 1 0 2-.9zm12.7-14.2h2.1v16.4h-4.5q-2.4 0-3.8-1.5-1.5-1.6-1.5-4.1 0-2.4 1.5-4 1.5-1.5 3.9-1.5 1 0 2.3.5v-5.8zm0 14.5V101q-1-.5-2-.5-1.6 0-2.6 1-.9 1-.9 2.9 0 1.6.8 2.5.5.6 1 .7.6.2 2 .2h1.7zm11.9 1.9V93.2h5.1q2.4 0 3.8 1.2 1.4 1.3 1.4 3.4 0 1.5-.7 2.6-.7 1-2 1.6-1.2.5-3.6.5H180v7h-2.3zm4.7-14.3H180v5h2.6q1.4 0 2.2-.6.8-.7.8-2 0-2.4-3.2-2.4zm9.6 3.5v2.5l.1-.2q1.6-2.5 3.1-2.5 1.2 0 2.5 1.2l-1 1.9q-1.2-1-2.1-1-1 0-1.8.9-.8 1-.8 2.3v5.7h-2V98.8h2.1zm16 5.6h-7.6q0 1.5 1 2.4 1 1 2.5 1 2 0 3.9-1.4v2.1q-1 .7-2 1-1 .2-2.2.2-1.8 0-3-.7-1-.8-1.7-2t-.7-2.9q0-2.4 1.4-4 1.4-1.5 3.7-1.5 2.1 0 3.4 1.5 1.3 1.5 1.3 4v.3zm-7.6-1.3h5.5q-.1-1.3-.8-2-.7-.7-1.8-.7-1.2 0-2 .7-.7.7-.9 2zm10.1-4.3V98q0-2.6 1.1-3.8 1.1-1.3 2.7-1.3l1.5.2v2l-1-.1q-1.2 0-1.7.7-.5.6-.5 2.3v.7h2v1.9h-2v8.9h-2.1v-8.9H209v-2h1.5zm14.7 5.6h-7.6q.1 1.5 1 2.4 1 1 2.5 1 2.1 0 4-1.4v2.1q-1 .7-2 1-1 .2-2.3.2-1.8 0-2.9-.7-1-.8-1.7-2t-.7-2.9q0-2.4 1.4-4 1.4-1.5 3.6-1.5t3.4 1.5q1.3 1.5 1.3 4v.3zm-7.5-1.3h5.4q0-1.3-.8-2-.6-.7-1.8-.7-1.1 0-1.9.7-.7.7-1 2zm12.1-4.3v2.5l.1-.2q1.6-2.5 3.1-2.5 1.2 0 2.5 1.2l-1.1 1.9q-1.1-1-2-1-1 0-1.9.9-.7 1-.7 2.3v5.7h-2.2V98.8h2.2zm15.9 5.6h-7.5q0 1.5 1 2.4 1 1 2.5 1 2 0 3.9-1.4v2.1q-1 .7-2 1-1 .2-2.3.2-1.7 0-2.8-.7-1.1-.8-1.8-2t-.7-2.9q0-2.4 1.4-4 1.4-1.5 3.6-1.5t3.5 1.5q1.2 1.5 1.2 4v.3zm-7.5-1.3h5.4q0-1.3-.7-2t-1.9-.7q-1.1 0-1.8.7-.8.7-1 2zm12-4.3v1.4q1.4-1.6 3.2-1.6 1 0 1.9.5.9.5 1.3 1.4.5 1 .5 2.9v6.2h-2.2v-6.2q0-1.6-.5-2.3-.5-.7-1.7-.7-1.5 0-2.5 1.5v7.7H248V98.8h2.2zm17.9 8.2v2.2q-1.6.5-3.1.5-2.5 0-4-1.5-1.6-1.5-1.6-4t1.5-4q1.5-1.6 3.9-1.6l1.5.1 1.6.6v2.3q-1.6-1-3-1-1.5 0-2.4 1-.9 1-.9 2.6t1 2.6q1 1 2.7 1 1.2 0 2.8-.8zm11.6-2.6h-7.6q.1 1.5 1 2.4 1 1 2.5 1 2.2 0 4-1.4v2.1q-1 .7-2 1-1 .2-2.3.2-1.8 0-2.9-.7-1-.8-1.7-2t-.7-2.9q0-2.4 1.4-4 1.4-1.5 3.6-1.5t3.4 1.5q1.3 1.5 1.3 4v.3zm-7.5-1.3h5.4q0-1.3-.7-2t-1.9-.7q-1.1 0-1.9.7-.7.7-1 2zM127 121h1.3q-1.5 2.2-2.2 3.7-.6 1.6-1 3.6-.3 2-.3 3.8 0 6.4 3.5 11h-1.4l-.3-.5-2-2.6q-.6-1-1.2-2.6-1-2.6-1-5.4 0-2.7 1-5.3 1-2.6 3.5-5.7zm10.3.2h2.1v16.4H135q-2.4 0-3.8-1.5-1.5-1.6-1.5-4.1 0-2.4 1.5-4 1.5-1.5 3.9-1.5 1 0 2.3.5v-5.8zm0 14.5V129q-1-.5-2-.5-1.6 0-2.6 1-.9 1-.9 2.9 0 1.6.8 2.5.5.6 1 .7.6.2 2 .2h1.7zm14.2-3.3H144q.1 1.5 1 2.4 1 1 2.5 1 2.2 0 4-1.4v2.1q-1 .7-2 1-1 .2-2.3.2-1.8 0-2.9-.7-1-.8-1.7-2t-.7-2.9q0-2.4 1.4-4 1.4-1.5 3.6-1.5t3.4 1.5q1.3 1.5 1.3 4v.3zM144 131h5.4q0-1.3-.7-2t-1.9-.7q-1.1 0-1.9.7-.7.7-1 2zm10-4.2v-.7q0-2.6 1.2-3.8 1-1.3 2.6-1.3l1.6.2v2l-1-.1q-1.2 0-1.7.7-.5.6-.5 2.3v.7h2v1.9h-2v8.9h-2.1v-8.9h-1.6v-2h1.6zm12.6 4.2v4.7q0 .5.4.5t1.2-.6v1.3l-1.2.7-1 .1q-1.3 0-1.5-1-1.4 1-3 1-1 0-1.8-.7-.7-.8-.7-1.9 0-1 .7-1.8t2-1.3l2.8-1v-.5q0-2-2-2-1.7 0-3.3 1.9V128q1.2-1.4 3.5-1.4 1.8 0 2.8.9.4.3.7.8l.3 1v1.8zm-2.1 4.4v-3.2l-1.4.6q-1.1.4-1.6.9-.4.4-.4 1 0 .7.4 1.1.4.5 1.1.5 1 0 1.9-.9zm12.5 2.2v-1.4q-.7.7-1.6 1.1-.9.4-1.7.4-1 0-2-.5-.8-.5-1.2-1.3-.5-1-.5-3v-6.1h2.2v6.1q0 1.7.5 2.4.4.7 1.7.7 1.5 0 2.6-1.5v-7.7h2v10.8h-2zm5.1-16.4h2.2v16.4H182v-16.4zm3.8 7.3l4-4v2.3h3.4v1.9h-3.4v5.3q0 1.8 1.5 1.8 1.2 0 2.4-.7v2q-1.2.6-2.6.6-1.5 0-2.5-.8l-.5-.6-.3-.8q-.2-.6-.2-2v-4.8H186v-.2zm9.6 14.5h-1.3q1.5-2.2 2.1-3.8.7-1.6 1-3.5.3-2 .3-3.7 0-2-.3-4-.4-1.9-1.2-3.6-.7-1.7-2-3.4h1.4l.4.4q1.3 1.6 1.9 2.6.6 1 1.3 2.7 1 2.6 1 5.3 0 2.7-1 5.1l-1 2.4-2.6 3.6zM516 109.6V93.2h4.1q2.5 0 4 1.2 1.4 1.3 1.4 3.3 0 1.5-.7 2.5t-2 1.6q.8.5 1.5 1.4.8.9 2.1 3l1.4 2.2.9 1.2h-2.8l-.7-1.1-.2-.2-.4-.7-.8-1.2-.7-1.2-1.4-1.6-1-.9q-.6-.3-1.7-.3h-.6v7.2H516zm3-14.4h-.6v5.2h.9q1.8 0 2.4-.4.7-.3 1-.9.4-.6.4-1.4 0-.7-.4-1.4-.4-.6-1.1-.9-.8-.2-2.5-.2zm20.4 9.2h-7.6q.1 1.5 1 2.4 1 1 2.5 1 2.1 0 4-1.4v2.1q-1 .7-2 1-1 .2-2.3.2-1.8 0-2.9-.7-1-.8-1.8-2-.6-1.2-.6-2.9 0-2.4 1.4-4 1.4-1.5 3.6-1.5 2.1 0 3.4 1.5 1.3 1.5 1.3 4v.3zm-7.5-1.3h5.4q0-1.3-.8-2-.7-.7-1.8-.7t-1.9.7q-.7.7-1 2zm16.6-.1v4.7q0 .5.3.5.4 0 1.3-.6v1.3l-1.2.7-1 .1q-1.3 0-1.6-1-1.3 1-2.8 1-1.2 0-2-.7-.7-.8-.7-1.9 0-1 .8-1.8.7-.8 2-1.3l2.8-1v-.5q0-2-2-2-1.7 0-3.4 1.9V100q1.3-1.4 3.6-1.4 1.7 0 2.8.9.4.3.6.8.3.4.4 1v1.8zm-2.1 4.4v-3.2l-1.5.6q-1 .4-1.5.9-.4.4-.4 1 0 .7.4 1.1.4.5 1 .5 1.1 0 2-.9zm12.8-14.2h2.1v16.4h-4.6q-2.3 0-3.8-1.5-1.4-1.6-1.4-4.1 0-2.4 1.5-4 1.5-1.5 3.8-1.5 1 0 2.4.5v-5.8zm0 14.5V101q-1-.5-2-.5-1.7 0-2.6 1-1 1-1 2.9 0 1.6.9 2.5.5.6 1 .7.6.2 2 .2h1.7zm25.1-8.9h2.3l-4.8 11h-.6l-3.2-7.6-3.2 7.5h-.7l-4.8-11h2.3l2.9 6.6 2.7-6.5h1.6l2.7 6.5 2.8-6.5zm4.9-4.6q.5 0 1 .4.3.4.3.9t-.4.9q-.4.4-.9.4t-.9-.4q-.3-.4-.3-.9t.3-.9q.4-.4.9-.4zm-1 4.6h2v10.8h-2V98.8zm3.6 1.7l4-4v2.3h3.5v1.9h-3.5v5.3q0 1.8 1.6 1.8 1.1 0 2.4-.7v2q-1.2.6-2.7.6-1.4 0-2.4-.8l-.5-.6-.4-.8v-6.8h-2v-.2zm9.5-7.3h2.2v7q1.3-1.6 3.3-1.6 1 0 1.9.5.9.5 1.3 1.5t.4 2.8v6.2h-2.1v-6.7q0-1.2-.6-1.9t-1.6-.7q-.7 0-1.3.3-.6.4-1.3 1.2v7.8h-2.2V93.2zm23.3 16.1V93h4.1q2.5 0 4 1.2 1.4 1.2 1.4 3.3 0 1.4-.7 2.5-.7 1-2 1.5l1.5 1.4 2 3.2 1.5 2 .8 1.2h-2.8l-.7-1-.1-.3-.5-.6-.7-1.2-.8-1.3-1.3-1.6q-.6-.6-1.1-.8-.5-.3-1.6-.3h-.7v7.1h-2.3zm3-14.4h-.7v5.2h1q1.7 0 2.4-.3.6-.3 1-1 .4-.5.4-1.3t-.4-1.4q-.4-.6-1.2-.9-.7-.3-2.5-.3zm20.4 9.2h-7.6q0 1.6 1 2.5 1 .9 2.5.9 2 0 3.9-1.3v2q-1 .7-2 1-1 .3-2.2.3-1.8 0-3-.8-1-.7-1.7-2-.7-1.2-.7-2.8 0-2.5 1.4-4 1.4-1.6 3.7-1.6 2.1 0 3.4 1.5 1.3 1.5 1.3 4v.3zm-7.6-1.3h5.4q0-1.2-.7-2-.7-.6-1.8-.6-1.2 0-2 .7-.7.7-.9 2zm16.6 0v4.6q0 .6.4.6t1.2-.6v1.3q-.7.5-1.2.6-.4.2-.9.2-1.3 0-1.6-1-1.4 1-2.9 1-1.1 0-1.9-.8-.7-.7-.7-1.8 0-1 .7-1.8.8-.9 2.1-1.3l2.7-1v-.5q0-2-2-2-1.7 0-3.3 1.8v-2.3q1.2-1.5 3.6-1.5 1.7 0 2.8 1l.6.7q.3.5.3 1l.1 1.8zm-2 4.4V104l-1.5.5q-1 .5-1.5 1-.5.4-.5 1 0 .7.4 1.1.5.4 1.1.4 1 0 2-.8zM667.7 93h2.2v16.3h-4.6q-2.4 0-3.8-1.5t-1.4-4q0-2.4 1.5-4 1.5-1.5 3.8-1.5 1 0 2.3.5V93zm0 14.5v-6.8q-1-.5-2-.5-1.6 0-2.5 1-1 1-1 2.8 0 1.7.8 2.6.5.5 1 .7.6.2 2 .2h1.7zm11.9 1.8V93h5.2q2.3 0 3.7 1.3 1.4 1.3 1.4 3.4 0 1.4-.7 2.5t-2 1.6q-1.2.5-3.5.5h-1.8v7.1h-2.3zm4.8-14.3h-2.5v5.1h2.6q1.4 0 2.2-.6.8-.7.8-2 0-2.5-3.1-2.5zm9.6 3.5v2.5-.2q1.6-2.5 3.1-2.5 1.2 0 2.6 1.2l-1.2 2q-1-1.1-2-1.1t-1.8 1q-.8 1-.8 2.3v5.6h-2.1V98.5h2.1zm15.9 5.6h-7.6q0 1.6 1 2.5 1 .9 2.5.9 2.1 0 3.9-1.3v2q-1 .7-2 1-1 .3-2.2.3-1.8 0-3-.8-1-.7-1.7-2-.6-1.2-.6-2.8 0-2.5 1.4-4 1.4-1.6 3.6-1.6 2.1 0 3.4 1.5 1.3 1.5 1.3 4v.3zm-7.6-1.3h5.5q-.1-1.2-.8-2-.7-.6-1.8-.6-1.2 0-2 .7-.6.7-.9 2zm10.1-4.3V98q0-2.6 1.1-3.9 1.1-1.3 2.7-1.3.7 0 1.6.3v2l-1-.1q-1.3 0-1.8.6-.4.7-.4 2.4v.6h1.9v2h-2v8.8h-2v-8.8h-1.6v-2h1.5zm14.7 5.6h-7.6q.1 1.6 1 2.5 1 .9 2.6.9 2 0 3.8-1.3v2q-1 .7-2 1-.9.3-2.2.3-1.8 0-2.9-.8-1-.7-1.7-2-.7-1.2-.7-2.8 0-2.5 1.4-4 1.4-1.6 3.6-1.6t3.5 1.5q1.2 1.5 1.2 4v.3zm-7.5-1.3h5.4q0-1.2-.7-2-.7-.6-1.9-.6-1.1 0-1.9.7-.7.7-1 2zm12.1-4.3v2.5l.1-.2q1.6-2.5 3.1-2.5 1.2 0 2.5 1.2l-1 2q-1.2-1.1-2.1-1.1-1 0-1.8 1t-.8 2.3v5.6h-2.1V98.5h2.1zm16 5.6H740q0 1.6 1 2.5 1 .9 2.5.9 2 0 3.9-1.3v2q-1 .7-2 1-1 .3-2.2.3-1.8 0-3-.8-1-.7-1.7-2-.7-1.2-.7-2.8 0-2.5 1.4-4 1.4-1.6 3.7-1.6 2.1 0 3.4 1.5 1.3 1.5 1.3 4v.3zm-7.6-1.3h5.5q-.1-1.2-.8-2-.7-.6-1.8-.6-1.2 0-2 .7-.7.7-.9 2zm11.9-4.3v1.4q1.5-1.6 3.3-1.6 1 0 2 .6.8.5 1.2 1.4.5.9.5 2.9v6.1h-2.2v-6.1q0-1.7-.5-2.4t-1.6-.7q-1.6 0-2.6 1.5v7.7h-2.2V98.5h2.2zm18 8.3v2.1q-1.6.6-3.1.6-2.5 0-4-1.5t-1.5-4q0-2.6 1.4-4.1 1.5-1.6 3.9-1.6.8 0 1.5.2.6.1 1.6.6v2.3q-1.6-1-3-1t-2.4 1q-.9 1-.9 2.5 0 1.7 1 2.6 1 1 2.7 1 1.2 0 2.8-.7zm11.6-2.7h-7.5q0 1.6 1 2.5 1 .9 2.5.9 2 0 3.9-1.3v2q-1 .7-2 1-1 .3-2.3.3-1.7 0-2.8-.8-1.1-.7-1.8-2-.7-1.2-.7-2.8 0-2.5 1.4-4 1.4-1.6 3.6-1.6t3.5 1.5q1.2 1.5 1.2 4v.3zm-7.5-1.3h5.4q0-1.2-.7-2-.7-.6-1.9-.6-1.1 0-1.8.7-.8.7-1 2zm-145.2 17.9h1.3q-1.5 2.2-2.1 3.8-.7 1.5-1 3.5-.4 2-.4 3.9 0 6.4 3.5 11h-1.3l-.4-.5-2-2.6q-.6-1-1.2-2.7-1-2.6-1-5.3 0-2.8 1-5.3 1-2.6 3.6-5.8zm5.3 5.8v1.4q1.4-1.6 3.2-1.6 1 0 1.9.6.8.5 1.3 1.4.4.9.4 2.9v6.1h-2v-6.1q0-1.7-.6-2.4-.5-.7-1.7-.7-1.5 0-2.5 1.5v7.7H632v-10.8h2.2zm19 5.6h-7.6q.1 1.6 1 2.5 1 .9 2.5.9 2.1 0 4-1.3v2q-1 .7-2 1-1 .3-2.3.3-1.8 0-2.9-.8-1-.7-1.8-2-.6-1.2-.6-2.8 0-2.5 1.4-4 1.4-1.6 3.6-1.6t3.4 1.5q1.3 1.5 1.3 4v.3zm-7.5-1.3h5.4q0-1.2-.8-2-.6-.6-1.8-.6-1.1 0-1.9.7-.7.7-1 2zm16.6 0v4.6q0 .6.4.6.3 0 1.2-.6v1.3l-1.2.6q-.4.2-1 .2-1.3 0-1.5-1-1.4 1-3 1-1 0-1.8-.8-.8-.7-.8-1.8 0-1 .8-1.8.7-.9 2-1.3l2.8-1v-.5q0-2-2-2-1.7 0-3.4 1.8v-2.3q1.3-1.5 3.6-1.5 1.8 0 2.8 1 .4.2.6.7l.4 1v1.8zm-2.1 4.4V132l-1.4.5q-1.1.5-1.6 1-.4.4-.4 1 0 .7.4 1.1.4.4 1 .4 1.1 0 2-.8zm7.8-8.7v2.5l.2-.2q1.5-2.5 3-2.5 1.3 0 2.6 1.2l-1.1 2q-1.2-1.1-2.1-1.1-1 0-1.8 1-.7 1-.7 2.3v5.6h-2.2v-10.8h2.2zm16 5.6h-7.6q.1 1.6 1 2.5 1 .9 2.5.9 2.1 0 4-1.3v2q-1 .7-2 1-1 .3-2.3.3-1.8 0-2.9-.8-1-.7-1.8-2-.6-1.2-.6-2.8 0-2.5 1.4-4 1.4-1.6 3.6-1.6 2.1 0 3.4 1.5 1.3 1.5 1.3 4v.3zm-7.5-1.3h5.4q0-1.2-.8-2-.6-.6-1.8-.6-1.1 0-1.9.7-.7.7-1 2zm9.3 5.7v-2.2l1.8 1q1 .4 1.6.4.7 0 1.2-.4.4-.3.4-.7 0-.5-.3-.8l-1.3-1q-2-1-2.7-1.9-.7-.8-.7-1.8 0-1.2 1-2t2.5-.8q1.6 0 3.2 1v2q-1.9-1.1-3-1.1-.7 0-1 .3-.4.2-.4.6 0 .4.3.8l1.2.8.8.4q2.7 1.5 2.7 3.4 0 1.3-1 2.2-1.1.8-2.7.8-1 0-1.7-.2-.8-.2-2-.8zm8.2-8.2l4-4v2.2h3.4v2H698v5.2q0 1.9 1.5 1.9 1.2 0 2.4-.8v2q-1.2.7-2.6.7-1.5 0-2.5-.8l-.5-.6-.3-.9-.1-2v-4.7h-2v-.2zm9.6 14.5h-1.3q1.5-2.3 2.2-3.9.6-1.6 1-3.5l.2-3.7q0-2-.3-4-.4-1.8-1.1-3.5-.8-1.8-2-3.5h1.3l.4.5q1.3 1.5 2 2.6.6 1 1.2 2.6 1 2.6 1 5.4 0 2.6-1 5-.4 1.3-1 2.5l-2.6 3.5z" font-size="24" font-family="GillSans" fill="#5a5955"/></svg>