<?xml version="1.0" encoding="UTF-8"?>
<!DOCTYPE svg PUBLIC "-//W3C//DTD SVG 1.1//EN" "http://www.w3.org/Graphics/SVG/1.1/DTD/svg11.dtd">
<svg version="1.1" xmlns="http://www.w3.org/2000/svg" xmlns:xlink="http://www.w3.org/1999/xlink" x="0px" y="0px" width="740" height="280" viewBox="0, 0, 740, 280">
  <g id="Layer 1">
    <g>
      <path d="M19,38.43 L240.706,38.43 L240.706,269 L19,269 z" fill-opacity="0" stroke="#301C11" stroke-width="4"/>
      <text transform="matrix(1, 0, 0, 1, 126.48, 31.43)">
        <tspan x="-105.97" y="1" font-family="GillSans" font-size="24" fill="#311E13">Data Center 1</tspan>
      </text>
      <g>
        <g>
          <path d="M229,84.985 C229,83.82 226.094,82.875 222.504,82.875 L35.496,82.875 C31.91,82.875 29,83.82 29,84.985 L29,145.763 C29,146.93 31.91,147.875 35.496,147.875 L222.504,147.875 C226.094,147.875 229,146.93 229,145.763 L229,84.985" fill="#2A86C0"/>
          <text transform="matrix(1, 0, 0, 1, 129, 115.375)">
            <tspan x="-57.357" y="12" font-family="GillSans" font-size="36" fill="#FFFFFF">Primary</tspan>
          </text>
        </g>
        <text transform="matrix(1, 0, 0, 1, 129, 136.875)">
          <tspan x="-33.631" y="5" font-family="GillSans-Light" font-size="18" fill="#2F2215">priority: 1</tspan>
        </text>
      </g>
      <g>
        <path d="M229,180.54 C229,179.375 226.094,178.43 222.504,178.43 L35.496,178.43 C31.91,178.43 29,179.375 29,180.54 L29,241.319 C29,242.485 31.91,243.43 35.496,243.43 L222.504,243.43 C226.094,243.43 229,242.485 229,241.319 L229,180.54" fill="#5CA831"/>
        <text transform="matrix(1, -0, 0, 1, 129, 210.93)">
          <tspan x="-76.087" y="12" font-family="GillSans" font-size="36" fill="#FFFFFE">Secondary</tspan>
        </text>
      </g>
      <text transform="matrix(1, 0, 0, 1, 129, 232.43)">
        <tspan x="-33.631" y="5" font-family="GillSans-Light" font-size="18" fill="#2F2215">priority: 1</tspan>
      </text>
    </g>
    <g>
      <text transform="matrix(1, 0, 0, 1, 606.982, 24.636)">
        <tspan x="-105.97" y="7.5" font-family="GillSans" font-size="24" fill="#311E13">Data Center 3</tspan>
      </text>
      <path d="M711.147,180.54 C711.147,179.375 708.241,178.43 704.651,178.43 L517.643,178.43 C514.057,178.43 511.147,179.375 511.147,180.54 L511.147,241.319 C511.147,242.485 514.057,243.43 517.643,243.43 L704.651,243.43 C708.241,243.43 711.147,242.485 711.147,241.319 L711.147,180.54" fill="#A3A3A3"/>
      <text transform="matrix(1, -0, 0, 1, 611.147, 210.93)">
        <tspan x="-76.087" y="12" font-family="GillSans" font-size="36" fill="#FFFFFE">Secondary</tspan>
      </text>
      <text transform="matrix(1, 0, 0, 1, 611.147, 232.43)">
        <tspan x="-33.631" y="5" font-family="GillSans-Light" font-size="18" fill="#000000">priority: 0</tspan>
      </text>
      <path d="M500.294,38.43 L722,38.43 L722,269 L500.294,269 z" fill-opacity="0" stroke="#301C11" stroke-width="4"/>
    </g>
    <path d="M259.147,38.715 L480.853,38.715 L480.853,269.285 L259.147,269.285 z" fill-opacity="0" stroke="#301C11" stroke-width="4"/>
    <text transform="matrix(1, 0, 0, 1, 366.628, 31.715)">
      <tspan x="-105.97" y="1" font-family="GillSans" font-size="24" fill="#311E13">Data Center 2</tspan>
    </text>
    <g>
      <g>
        <path d="M469.147,180.825 C469.147,179.66 466.241,178.715 462.651,178.715 L275.643,178.715 C272.057,178.715 269.147,179.66 269.147,180.825 L269.147,241.603 C269.147,242.77 272.057,243.715 275.643,243.715 L462.651,243.715 C466.241,243.715 469.147,242.77 469.147,241.603 L469.147,180.825" fill="#5CA831"/>
        <text transform="matrix(1, -0, 0, 1, 369.147, 211.215)">
          <tspan x="-76.087" y="12" font-family="GillSans" font-size="36" fill="#FFFFFE">Secondary</tspan>
        </text>
      </g>
      <text transform="matrix(1, 0, 0, 1, 369.147, 232.715)">
        <tspan x="-33.631" y="5" font-family="GillSans-Light" font-size="18" fill="#2F2215">priority: 1</tspan>
      </text>
    </g>
    <g>
      <g>
        <path d="M469.147,83.534 C469.147,82.369 466.241,81.424 462.651,81.424 L275.643,81.424 C272.057,81.424 269.147,82.369 269.147,83.534 L269.147,144.312 C269.147,145.479 272.057,146.424 275.643,146.424 L462.651,146.424 C466.241,146.424 469.147,145.479 469.147,144.312 L469.147,83.534" fill="#5CA831"/>
        <text transform="matrix(1, -0, 0, 1, 369.147, 113.924)">
          <tspan x="-76.087" y="12" font-family="GillSans" font-size="36" fill="#FFFFFE">Secondary</tspan>
        </text>
      </g>
      <text transform="matrix(1, 0, 0, 1, 369.147, 135.424)">
        <tspan x="-33.631" y="5" font-family="GillSans-Light" font-size="18" fill="#2F2215">priority: 1</tspan>
      </text>
    </g>
  </g>
  <defs/>
</svg>
