<?xml version="1.0" encoding="UTF-8"?>
<!DOCTYPE svg PUBLIC "-//W3C//DTD SVG 1.1//EN" "http://www.w3.org/Graphics/SVG/1.1/DTD/svg11.dtd">
<svg version="1.1" xmlns="http://www.w3.org/2000/svg" xmlns:xlink="http://www.w3.org/1999/xlink" x="0px" y="0px" width="740" height="280" viewBox="0, 0, 740, 280">
  <g id="Layer 1">
    <g>
      <path d="M313.48,85.519 C313.48,84.444 310.575,83.572 306.984,83.572 L119.977,83.572 C116.39,83.572 113.48,84.444 113.48,85.519 L113.48,141.622 C113.48,142.699 116.39,143.572 119.977,143.572 L306.984,143.572 C310.575,143.572 313.48,142.699 313.48,141.622 L313.48,85.519" fill="#2A86C0"/>
      <text transform="matrix(1, 0, 0, 1, 213.48, 113.572)">
        <tspan x="-57.357" y="5.5" font-family="GillSans" font-size="36" fill="#FFFFFF">Primary</tspan>
      </text>
      <text transform="matrix(1, 0, 0, 1, 213.48, 134.763)">
        <tspan x="-38.731" y="3.808" font-family="GillSans" font-size="18" fill="#311F12">priority: 1</tspan>
      </text>
    </g>
    <g>
      <path d="M312.602,182.725 C312.602,181.65 309.696,180.778 306.105,180.778 L119.098,180.778 C115.511,180.778 112.602,181.65 112.602,182.725 L112.602,238.828 C112.602,239.905 115.511,240.778 119.098,240.778 L306.105,240.778 C309.696,240.778 312.602,239.905 312.602,238.828 L312.602,182.725" fill="#5CA831"/>
      <text transform="matrix(1, -0, 0, 1, 212.602, 212.527)">
        <tspan x="-77.5" y="5.152" font-family="GillSans" font-size="36" fill="#FFFFFE">Secondary</tspan>
      </text>
      <text transform="matrix(1, 0, 0, 1, 212.602, 231.186)">
        <tspan x="-35.926" y="4.461" font-family="GillSans" font-size="18" fill="#311F12">priority: 1</tspan>
      </text>
    </g>
    <path d="M98.93,37.152 L326.031,37.152 L326.031,273.333 L98.93,273.333 z" fill-opacity="0" stroke="#301C11" stroke-width="4"/>
    <text transform="matrix(1, 0, 0, 1, 213.48, 27.706)">
      <tspan x="-105.97" y="1" font-family="GillSans" font-size="24" fill="#311E13">Data Center 1</tspan>
    </text>
    <g>
      <path d="M633.333,182.725 C633.333,181.65 630.428,180.778 626.837,180.778 L439.829,180.778 C436.243,180.778 433.333,181.65 433.333,182.725 L433.333,238.828 C433.333,239.905 436.243,240.778 439.829,240.778 L626.837,240.778 C630.428,240.778 633.333,239.905 633.333,238.828 L633.333,182.725" fill="#5CA831"/>
      <text transform="matrix(1, -0, 0, 1, 533.333, 212.527)">
        <tspan x="-77.5" y="5.5" font-family="GillSans" font-size="36" fill="#CF3907">Secondary</tspan>
      </text>
      <text transform="matrix(1, 0, 0, 1, 533.333, 229.486)">
        <tspan x="-38.925" y="6.459" font-family="GillSans" font-size="18" fill="#CF3907">priority: 0</tspan>
      </text>
    </g>
    <text transform="matrix(1, 0, 0, 1, 530.541, 21.206)">
      <tspan x="-105.97" y="7.5" font-family="GillSans" font-size="24" fill="#311E13">Data Center 2</tspan>
    </text>
    <path d="M414.99,37.152 L642.092,37.152 L642.092,273.333 L414.99,273.333 z" fill-opacity="0" stroke="#301C11" stroke-width="4"/>
  </g>
  <defs/>
</svg>
