<?xml version="1.0" encoding="UTF-8"?>
<!DOCTYPE svg PUBLIC "-//W3C//DTD SVG 1.1//EN" "http://www.w3.org/Graphics/SVG/1.1/DTD/svg11.dtd">
<svg version="1.1" xmlns="http://www.w3.org/2000/svg" xmlns:xlink="http://www.w3.org/1999/xlink" x="0px" y="0px" width="800" height="480" viewBox="0, 0, 800, 480">
  <g id="Layer 1">
    <path d="M3.147,190.378 L224.853,190.378 L224.853,420.948 L3.147,420.948 z" fill-opacity="0" stroke="#3F2615" stroke-width="4"/>
    <text transform="matrix(1, 0, 0, 1, 113.5, 452.535)">
      <tspan x="-72.021" y="1" font-family="GillSans" font-size="24" fill="#412818">Data Center 1</tspan>
    </text>
    <g>
      <g>
        <path d="M213.5,228.433 C213.5,227.268 210.594,226.323 207.004,226.323 L19.996,226.323 C16.41,226.323 13.5,227.268 13.5,228.433 L13.5,289.212 C13.5,290.378 16.41,291.323 19.996,291.323 L207.004,291.323 C210.594,291.323 213.5,290.378 213.5,289.212 L213.5,228.433" fill="#3299CC"/>
        <text transform="matrix(1, 0, 0, 1, 113.5, 258.823)">
          <tspan x="-57.357" y="12" font-family="GillSans" font-size="36" fill="#FFFFFF">Primary</tspan>
        </text>
      </g>
      <text transform="matrix(1, 0, 0, 1, 113.5, 282.823)">
        <tspan x="-23.701" y="2.5" font-family="GillSans" font-size="12" fill="#3E2D1B">priority: 1</tspan>
      </text>
    </g>
    <g>
      <path d="M213.5,331.988 C213.5,330.823 210.594,329.878 207.004,329.878 L19.996,329.878 C16.41,329.878 13.5,330.823 13.5,331.988 L13.5,392.767 C13.5,393.933 16.41,394.878 19.996,394.878 L207.004,394.878 C210.594,394.878 213.5,393.933 213.5,392.767 L213.5,331.988" fill="#6CB340"/>
      <text transform="matrix(1, -0, 0, 1, 113.5, 362.378)">
        <tspan x="-76.087" y="12" font-family="GillSans" font-size="36" fill="#FFFFFE">Secondary</tspan>
      </text>
    </g>
    <text transform="matrix(1, 0, 0, 1, 126, 386.378)">
      <tspan x="-23.701" y="2.5" font-family="GillSans" font-size="12" fill="#3E2D1B">priority: 1</tspan>
    </text>
    <text transform="matrix(1, 0, 0, 1, 618.496, 446.035)">
      <tspan x="-74.869" y="7.5" font-family="GillSans" font-size="24" fill="#412818">Data Center 2</tspan>
    </text>
    <g>
      <path d="M718.496,228.433 C718.496,227.268 715.59,226.323 712,226.323 L524.992,226.323 C521.406,226.323 518.496,227.268 518.496,228.433 L518.496,289.212 C518.496,290.378 521.406,291.323 524.992,291.323 L712,291.323 C715.59,291.323 718.496,290.378 718.496,289.212 L718.496,228.433" fill="#B2B2B2"/>
      <text transform="matrix(1, -0, 0, 1, 618.496, 258.823)">
        <tspan x="-76.087" y="12" font-family="GillSans" font-size="36" fill="#FFFFFE">Secondary</tspan>
      </text>
      <text transform="matrix(1, 0, 0, 1, 618.496, 282.823)">
        <tspan x="-23.701" y="2.5" font-family="GillSans" font-size="12" fill="#000000">priority: 0</tspan>
      </text>
    </g>
    <path d="M508.143,190.673 L729.849,190.673 L729.849,421.242 L508.143,421.242 z" fill-opacity="0" stroke="#3F2615" stroke-width="4"/>
    <g>
      <path d="M26,73.012 C26,74.604 27.31,75.895 28.926,75.895 L198.074,75.895 C199.69,75.895 201,74.604 201,73.012 L201,13.779 C201,12.186 199.69,10.895 198.074,10.895 L28.926,10.895 C27.31,10.895 26,12.186 26,13.779 L26,73.012" fill="#5A5955"/>
      <text transform="matrix(1, 0, 0, 1, 113.5, 43.395)">
        <tspan x="-49.157" y="12" font-family="GillSans" font-size="36" fill="#FFFFFE">Dri</tspan>
        <tspan x="-0.009" y="12" font-family="GillSans" font-size="36" fill="#FFFFFE">v</tspan>
        <tspan x="15.038" y="12" font-family="GillSans" font-size="36" fill="#FFFFFE">e</tspan>
        <tspan x="32.282" y="12" font-family="GillSans" font-size="36" fill="#FFFFFE">r</tspan>
      </text>
    </g>
    <g>
      <g>
        <path d="M531.496,72.512 C531.496,74.104 532.806,75.395 534.422,75.395 L703.57,75.395 C705.186,75.395 706.496,74.104 706.496,72.512 L706.496,13.279 C706.496,11.686 705.186,10.395 703.57,10.395 L534.422,10.395 C532.806,10.395 531.496,11.686 531.496,13.279 L531.496,72.512" fill="#5A5955"/>
        <path d="M531.496,72.512 C531.496,74.104 532.806,75.395 534.422,75.395 L703.57,75.395 C705.186,75.395 706.496,74.104 706.496,72.512 L706.496,13.279 C706.496,11.686 705.186,10.395 703.57,10.395 L534.422,10.395 C532.806,10.395 531.496,11.686 531.496,13.279 L531.496,72.512" fill-opacity="0" stroke="#B2B2B2" stroke-width="1"/>
      </g>
      <text transform="matrix(1, 0, 0, 1, 618.496, 42.395)">
        <tspan x="-49.972" y="11.794" font-family="GillSans" font-size="36" fill="#FFFFFE">Dri</tspan>
        <tspan x="-0.823" y="11.794" font-family="GillSans" font-size="36" fill="#FFFFFE">v</tspan>
        <tspan x="14.224" y="11.794" font-family="GillSans" font-size="36" fill="#FFFFFE">e</tspan>
        <tspan x="31.468" y="11.794" font-family="GillSans" font-size="36" fill="#FFFFFE">r</tspan>
      </text>
    </g>
    <g>
      <path d="M618.985,88.062 L619.005,210.662" fill-opacity="0" stroke="#5A5955" stroke-width="4"/>
      <path d="M614.205,210.663 L619.007,223.462 L623.805,210.661 z" fill="#5A5955" fill-opacity="1" stroke="#5A5955" stroke-width="4" stroke-opacity="1"/>
    </g>
    <text transform="matrix(1, -0, 0, 1, 66.626, 102.856)">
      <tspan x="-56.626" y="6.467" font-family="GillSans" font-size="24" fill="#5A5955">Read with </tspan>
    </text>
    <g>
      <path d="M114,87.823 L114,210.423" fill-opacity="0" stroke="#5A5955" stroke-width="4"/>
      <path d="M109.2,210.423 L114,223.223 L118.8,210.423 z" fill="#5A5955" fill-opacity="1" stroke="#5A5955" stroke-width="4" stroke-opacity="1"/>
    </g>
    <text transform="matrix(1, -0, 0, 1, 207.544, 116.062)">
      <tspan x="-86.735" y="-6.5" font-family="GillSans" font-size="24" fill="#5A5955">Read Preference </tspan>
      <tspan x="-86.735" y="21.5" font-family="GillSans" font-size="24" fill="#5A5955">(default)</tspan>
    </text>
    <text transform="matrix(1, -0, 0, 1, 566.532, 102.976)">
      <tspan x="-52.363" y="6.586" font-family="GillSans" font-size="24" fill="#5A5955">Read with</tspan>
    </text>
    <text transform="matrix(1, -0, 0, 1, 706.522, 115.823)">
      <tspan x="-83.795" y="-6.5" font-family="GillSans" font-size="24" fill="#5A5955">Read Preference </tspan>
      <tspan x="-83.795" y="21.5" font-family="GillSans" font-size="24" fill="#5A5955">(nearest)</tspan>
    </text>
  </g>
  <defs/>
</svg>
