<?xml version="1.0" encoding="UTF-8"?>
<!DOCTYPE svg PUBLIC "-//W3C//DTD SVG 1.1//EN" "http://www.w3.org/Graphics/SVG/1.1/DTD/svg11.dtd">
<svg version="1.1" xmlns="http://www.w3.org/2000/svg" xmlns:xlink="http://www.w3.org/1999/xlink" x="0px" y="0px" width="700" height="500" viewBox="0, 0, 700, 500">
  <g id="Layer 1">
    <g>
      <path d="M217.979,162.381 C217.979,161.319 215.073,160.458 211.482,160.458 L24.475,160.458 C20.888,160.458 17.979,161.319 17.979,162.381 L17.979,217.783 C17.979,218.846 20.888,219.708 24.475,219.708 L211.482,219.708 C215.073,219.708 217.979,218.846 217.979,217.783 L217.979,162.381" fill="#5CA831"/>
      <text transform="matrix(1, -0, 0, 1, 117.979, 192.208)">
        <tspan x="-77.5" y="5.5" font-family="GillSans" font-size="36" fill="#FFFFFE">Secondary</tspan>
      </text>
    </g>
    <text transform="matrix(1, -0.001, 0.001, 1, 319.517, 203.111)">
      <tspan x="-62.5" y="10" font-family="GillSans" font-size="30" fill="#4F4C4B">Heartbeat</tspan>
    </text>
    <g>
      <path d="M247.75,189.403 L397.601,188.138" fill-opacity="0" stroke="#4F4C4B" stroke-width="4"/>
      <path d="M247.71,184.603 L234.951,189.511 L247.791,194.203 z" fill="#4F4C4B" fill-opacity="1" stroke="#4F4C4B" stroke-width="4" stroke-opacity="1"/>
      <path d="M397.641,192.938 L410.4,188.03 L397.56,183.339 z" fill="#4F4C4B" fill-opacity="1" stroke="#4F4C4B" stroke-width="4" stroke-opacity="1"/>
    </g>
    <g>
      <g>
        <path d="M421.326,27.983 C421.326,26.865 418.521,25.96 415.055,25.96 L234.534,25.96 C231.072,25.96 228.264,26.865 228.264,27.983 L228.264,86.265 C228.264,87.384 231.072,88.29 234.534,88.29 L415.055,88.29 C418.521,88.29 421.326,87.384 421.326,86.265 L421.326,27.983" fill="#2A86C0"/>
        <text transform="matrix(1, 0, 0, 1, 324.795, 57.125)">
          <tspan x="-57.357" y="9.72" font-family="GillSans" font-size="36" fill="#FFFFFF">Primary</tspan>
        </text>
      </g>
      <path d="M228.264,14.648 L421.326,99.602" fill-opacity="0" stroke="#FF0007" stroke-width="4"/>
      <path d="M228.264,99.602 L421.326,14.648" fill-opacity="0" stroke="#FF0007" stroke-width="4"/>
    </g>
    <g>
      <path d="M638.295,162.381 C638.295,161.319 635.389,160.458 631.799,160.458 L444.791,160.458 C441.204,160.458 438.295,161.319 438.295,162.381 L438.295,217.783 C438.295,218.846 441.204,219.708 444.791,219.708 L631.799,219.708 C635.389,219.708 638.295,218.846 638.295,217.783 L638.295,162.381" fill="#5CA831"/>
      <text transform="matrix(1, -0, 0, 1, 538.295, 192.208)">
        <tspan x="-77.5" y="5.5" font-family="GillSans" font-size="36" fill="#FFFFFE">Secondary</tspan>
      </text>
    </g>
    <path d="M12.98,145.527 L646.609,145.527 L646.609,233.469 L12.98,233.469 z" fill-opacity="0" stroke="#D33907" stroke-width="2" stroke-dasharray="4,4"/>
    <text transform="matrix(1, 0, 0, 1, 338.301, 131.234)">
      <tspan x="-146.111" y="10.391" font-family="GillSans" font-size="36" fill="#301E13">Elect New Primary</tspan>
    </text>
    <g>
      <text transform="matrix(1, -0.001, 0.001, 1, 324.779, 448.837)">
        <tspan x="-62.5" y="10" font-family="GillSans" font-size="30" fill="#4F4C4B">Heartbeat</tspan>
      </text>
      <g>
        <path d="M252.067,462.672 L402.862,462.721" fill-opacity="0" stroke="#4F4C4B" stroke-width="4"/>
        <path d="M252.068,457.872 L239.267,462.668 L252.065,467.472 z" fill="#4F4C4B" fill-opacity="1" stroke="#4F4C4B" stroke-width="4" stroke-opacity="1"/>
        <path d="M402.86,467.521 L415.662,462.725 L402.863,457.921 z" fill="#4F4C4B" fill-opacity="1" stroke="#4F4C4B" stroke-width="4" stroke-opacity="1"/>
      </g>
    </g>
    <g>
      <path d="M638.557,409.107 C638.557,408.045 635.651,407.184 632.061,407.184 L445.053,407.184 C441.466,407.184 438.557,408.045 438.557,409.107 L438.557,464.509 C438.557,465.572 441.466,466.434 445.053,466.434 L632.061,466.434 C635.651,466.434 638.557,465.572 638.557,464.509 L638.557,409.107" fill="#5CA831"/>
      <text transform="matrix(1, -0, 0, 1, 538.557, 438.934)">
        <tspan x="-77.5" y="5.5" font-family="GillSans" font-size="36" fill="#FFFFFE">Secondary</tspan>
      </text>
    </g>
    <path d="M13.242,363.254 L646.871,363.254 L646.871,480.727 L13.242,480.727 z" fill-opacity="0" stroke="#D33907" stroke-width="2" stroke-dasharray="4,4"/>
    <g>
      <path d="M223.586,409.108 C223.586,407.99 220.781,407.085 217.315,407.085 L36.794,407.085 C33.332,407.085 30.523,407.99 30.523,409.108 L30.523,467.39 C30.523,468.509 33.332,469.415 36.794,469.415 L217.315,469.415 C220.781,469.415 223.586,468.509 223.586,467.39 L223.586,409.108" fill="#2A86C0"/>
      <text transform="matrix(1, 0, 0, 1, 127.055, 438.25)">
        <tspan x="-57.357" y="9.72" font-family="GillSans" font-size="36" fill="#FFFFFF">Primary</tspan>
      </text>
    </g>
    <g>
      <path d="M235.667,424.333 L402.6,424.047" fill-opacity="0" stroke="#2A86C0" stroke-width="9"/>
      <path d="M402.613,431.847 L423.4,424.011 L402.587,416.247 z" fill="#2A86C0" fill-opacity="1" stroke="#2A86C0" stroke-width="9" stroke-opacity="1"/>
    </g>
    <text transform="matrix(1, 0, -0, 1, 327.577, 409.314)">
      <tspan x="-68.88" y="6.519" font-family="GillSans" font-size="30" fill="#2A86C0">R</tspan>
      <tspan x="-52.23" y="6.519" font-family="GillSans" font-size="30" fill="#2A86C0">epli</tspan>
      <tspan x="-9.705" y="6.519" font-family="GillSans" font-size="30" fill="#2A86C0">c</tspan>
      <tspan x="2.624" y="6.519" font-family="GillSans" font-size="30" fill="#2A86C0">ation</tspan>
    </text>
  </g>
  <defs/>
</svg>
