<?xml version="1.0" encoding="UTF-8"?>
<!DOCTYPE svg PUBLIC "-//W3C//DTD SVG 1.1//EN" "http://www.w3.org/Graphics/SVG/1.1/DTD/svg11.dtd">
<svg version="1.1" xmlns="http://www.w3.org/2000/svg" xmlns:xlink="http://www.w3.org/1999/xlink" x="0px" y="0px" width="740" height="280" viewBox="0, 0, 740, 280">
  <g id="Layer 1">
    <g>
      <path d="M228.835,113.917 C228.835,112.841 225.929,111.969 222.339,111.969 L35.331,111.969 C31.744,111.969 28.835,112.841 28.835,113.917 L28.835,170.02 C28.835,171.097 31.744,171.969 35.331,171.969 L222.339,171.969 C225.929,171.969 228.835,171.097 228.835,170.02 L228.835,113.917" fill="#5CA831"/>
      <text transform="matrix(1, -0, 0, 1, 128.835, 143.719)">
        <tspan x="-77.5" y="5.152" font-family="GillSans" font-size="36" fill="#FFFFFE">Secondary</tspan>
      </text>
      <text transform="matrix(1, 0, 0, 1, 128.835, 160.839)">
        <tspan x="-29.047" y="6" font-family="GillSans" font-size="18" fill="#311F12">votes: 1</tspan>
      </text>
    </g>
    <g>
      <path d="M469.917,111.725 C469.917,110.65 467.012,109.778 463.421,109.778 L276.414,109.778 C272.827,109.778 269.917,110.65 269.917,111.725 L269.917,167.828 C269.917,168.905 272.827,169.778 276.414,169.778 L463.421,169.778 C467.012,169.778 469.917,168.905 469.917,167.828 L469.917,111.725" fill="#2A86C0"/>
      <text transform="matrix(1, 0, 0, 1, 369.917, 139.778)">
        <tspan x="-57.357" y="5.5" font-family="GillSans" font-size="36" fill="#FFFFFF">Primary</tspan>
      </text>
      <text transform="matrix(1, 0, 0, 1, 369.665, 160.969)">
        <tspan x="-28.937" y="3.808" font-family="GillSans" font-size="18" fill="#311F12">votes: 1</tspan>
      </text>
    </g>
    <g>
      <path d="M710,113.833 C710,112.758 707.094,111.886 703.504,111.886 L516.496,111.886 C512.91,111.886 510,112.758 510,113.833 L510,169.937 C510,171.013 512.91,171.886 516.496,171.886 L703.504,171.886 C707.094,171.886 710,171.013 710,169.937 L710,113.833" fill="#5CA831"/>
      <text transform="matrix(1, -0, 0, 1, 610, 143.636)">
        <tspan x="-77.5" y="5.5" font-family="GillSans" font-size="36" fill="#FFFFFE">Secondary</tspan>
      </text>
      <text transform="matrix(1, 0, 0, 1, 610, 161.053)">
        <tspan x="-29.279" y="6" font-family="GillSans" font-size="18" fill="#311F12">votes: 1</tspan>
      </text>
    </g>
    <g>
      <path d="M469.917,27.316 C469.917,26.24 467.012,25.368 463.421,25.368 L276.414,25.368 C272.827,25.368 269.917,26.24 269.917,27.316 L269.917,83.419 C269.917,84.495 272.827,85.368 276.414,85.368 L463.421,85.368 C467.012,85.368 469.917,84.495 469.917,83.419 L469.917,27.316" fill="#5CA831"/>
      <text transform="matrix(1, -0, 0, 1, 369.917, 58.243)">
        <tspan x="-77.5" y="5.5" font-family="GillSans" font-size="36" fill="#FFFFFE">Secondary</tspan>
      </text>
      <text transform="matrix(1, 0, 0, 1, 369.917, 74.911)">
        <tspan x="-31.171" y="6" font-family="GillSans" font-size="18" fill="#311F12">votes: 1</tspan>
      </text>
    </g>
    <g>
      <path d="M228.835,25.1 C228.835,24.024 225.929,23.152 222.339,23.152 L35.331,23.152 C31.744,23.152 28.835,24.024 28.835,25.1 L28.835,81.203 C28.835,82.28 31.744,83.152 35.331,83.152 L222.339,83.152 C225.929,83.152 228.835,82.28 228.835,81.203 L228.835,25.1" fill="#5CA831"/>
      <text transform="matrix(1, -0, 0, 1, 128.835, 54.902)">
        <tspan x="-77.5" y="5.152" font-family="GillSans" font-size="36" fill="#FFFFFE">Secondary</tspan>
      </text>
      <text transform="matrix(1, 0, 0, 1, 128.835, 72.021)">
        <tspan x="-29.047" y="6" font-family="GillSans" font-size="18" fill="#311F12">votes: 1</tspan>
      </text>
    </g>
    <g>
      <path d="M228.835,194.864 C228.835,193.788 225.929,192.916 222.339,192.916 L35.331,192.916 C31.744,192.916 28.835,193.788 28.835,194.864 L28.835,250.967 C28.835,252.044 31.744,252.916 35.331,252.916 L222.339,252.916 C225.929,252.916 228.835,252.044 228.835,250.967 L228.835,194.864" fill="#5CA831"/>
      <text transform="matrix(1, -0, 0, 1, 128.835, 224.666)">
        <tspan x="-77.5" y="5.5" font-family="GillSans" font-size="36" fill="#FFFFFE">Secondary</tspan>
      </text>
      <text transform="matrix(1, 0, 0, 1, 128.835, 242.084)">
        <tspan x="-29.279" y="6" font-family="GillSans" font-size="18" fill="#311F12">votes: 1</tspan>
      </text>
    </g>
    <path d="M470,195.78 C470,194.705 467.094,193.833 463.504,193.833 L276.496,193.833 C272.91,193.833 270,194.705 270,195.78 L270,251.884 C270,252.96 272.91,253.833 276.496,253.833 L463.504,253.833 C467.094,253.833 470,252.96 470,251.884 L470,195.78" fill="#5CA831"/>
    <text transform="matrix(1, -0, 0, 1, 370, 225.583)">
      <tspan x="-77.5" y="5.5" font-family="GillSans" font-size="36" fill="#CF3907">Secondary</tspan>
    </text>
    <text transform="matrix(1, 0, 0, 1, 370, 243)">
      <tspan x="-29.279" y="6" font-family="GillSans" font-size="18" fill="#CF3907">votes: 0</tspan>
    </text>
    <g>
      <path d="M710,27.691 C710,26.615 707.094,25.743 703.504,25.743 L516.496,25.743 C512.91,25.743 510,26.615 510,27.691 L510,83.794 C510,84.871 512.91,85.743 516.496,85.743 L703.504,85.743 C707.094,85.743 710,84.871 710,83.794 L710,27.691" fill="#5CA831"/>
      <text transform="matrix(1, -0, 0, 1, 610, 57.493)">
        <tspan x="-77.5" y="5.5" font-family="GillSans" font-size="36" fill="#FFFFFE">Secondary</tspan>
      </text>
      <text transform="matrix(1, 0, 0, 1, 610, 74.911)">
        <tspan x="-29.279" y="6" font-family="GillSans" font-size="18" fill="#311F12">votes: 1</tspan>
      </text>
    </g>
    <g>
      <path d="M710,195.78 C710,194.705 707.094,193.833 703.504,193.833 L516.496,193.833 C512.91,193.833 510,194.705 510,195.78 L510,251.884 C510,252.96 512.91,253.833 516.496,253.833 L703.504,253.833 C707.094,253.833 710,252.96 710,251.884 L710,195.78" fill="#5CA831"/>
      <text transform="matrix(1, -0, 0, 1, 610, 225.583)">
        <tspan x="-77.5" y="5.5" font-family="GillSans" font-size="36" fill="#D33907">Secondary</tspan>
      </text>
      <text transform="matrix(1, 0, 0, 1, 610, 243)">
        <tspan x="-29.279" y="6" font-family="GillSans" font-size="18" fill="#D03907">votes: 0</tspan>
      </text>
    </g>
  </g>
  <defs/>
</svg>
