<?xml version="1.0" encoding="UTF-8"?>
<!DOCTYPE svg PUBLIC "-//W3C//DTD SVG 1.1//EN" "http://www.w3.org/Graphics/SVG/1.1/DTD/svg11.dtd">
<svg version="1.1" xmlns="http://www.w3.org/2000/svg" xmlns:xlink="http://www.w3.org/1999/xlink" x="0px" y="0px" width="740" height="280" viewBox="0, 0, 740, 280">
  <g id="Layer 1">
    <g>
      <path d="M210.111,211.381 C210.111,210.319 207.206,209.458 203.615,209.458 L16.607,209.458 C13.021,209.458 10.111,210.319 10.111,211.381 L10.111,266.783 C10.111,267.846 13.021,268.708 16.607,268.708 L203.615,268.708 C207.206,268.708 210.111,267.846 210.111,266.783 L210.111,211.381" fill="#5CA831"/>
      <text transform="matrix(1, -0, 0, 1, 110.111, 241.208)">
        <tspan x="-77.5" y="5.5" font-family="GillSans" font-size="36" fill="#FFFFFE">Secondary</tspan>
      </text>
    </g>
    <text transform="matrix(1, -0.001, 0.001, 1, 370.111, 190.111)">
      <tspan x="-62.5" y="10" font-family="GillSans" font-size="30" fill="#4F4C4B">Heartbeat</tspan>
    </text>
    <text transform="matrix(0.746, -0.665, 0.665, 0.746, 179.574, 105.907)">
      <tspan x="-72.115" y="5.043" font-family="GillSans" font-size="30" fill="#2A86C0">Replication</tspan>
    </text>
    <g>
      <path d="M255.345,238.536 L485.545,238.463" fill-opacity="0" stroke="#4F4C4B" stroke-width="4"/>
      <path d="M255.343,233.736 L242.545,238.54 L255.346,243.336 z" fill="#4F4C4B" fill-opacity="1" stroke="#4F4C4B" stroke-width="4" stroke-opacity="1"/>
      <path d="M485.546,243.263 L498.345,238.459 L485.543,233.663 z" fill="#4F4C4B" fill-opacity="1" stroke="#4F4C4B" stroke-width="4" stroke-opacity="1"/>
    </g>
    <g>
      <path d="M499.884,208.528 L392.338,112.388" fill-opacity="0" stroke="#4F4C4B" stroke-width="4"/>
      <path d="M496.685,212.106 L509.427,217.058 L503.083,204.949 z" fill="#4F4C4B" fill-opacity="1" stroke="#4F4C4B" stroke-width="4" stroke-opacity="1"/>
      <path d="M395.537,108.809 L382.795,103.857 L389.139,115.966 z" fill="#4F4C4B" fill-opacity="1" stroke="#4F4C4B" stroke-width="4" stroke-opacity="1"/>
    </g>
    <g>
      <path d="M242.338,208.528 L349.884,112.388" fill-opacity="0" stroke="#4F4C4B" stroke-width="4"/>
      <path d="M239.139,204.949 L232.795,217.058 L245.537,212.106 z" fill="#4F4C4B" fill-opacity="1" stroke="#4F4C4B" stroke-width="4" stroke-opacity="1"/>
      <path d="M353.083,115.966 L359.427,103.857 L346.685,108.809 z" fill="#4F4C4B" fill-opacity="1" stroke="#4F4C4B" stroke-width="4" stroke-opacity="1"/>
    </g>
    <g>
      <path d="M263.111,55.458 L121.527,182.184" fill-opacity="0" stroke="#2A86C0" stroke-width="9"/>
      <path d="M116.325,176.372 L106.029,196.056 L126.73,187.996 z" fill="#2A86C0" fill-opacity="1" stroke="#2A86C0" stroke-width="9" stroke-opacity="1"/>
    </g>
    <g>
      <path d="M466.643,13.316 C466.643,12.198 463.838,11.292 460.372,11.292 L279.851,11.292 C276.389,11.292 273.58,12.198 273.58,13.316 L273.58,71.598 C273.58,72.716 276.389,73.623 279.851,73.623 L460.372,73.623 C463.838,73.623 466.643,72.716 466.643,71.598 L466.643,13.316" fill="#2A86C0"/>
      <text transform="matrix(1, 0, 0, 1, 370.111, 42.458)">
        <tspan x="-57.357" y="9.72" font-family="GillSans" font-size="36" fill="#FFFFFF">Primary</tspan>
      </text>
    </g>
    <g>
      <path d="M726.912,211.381 C726.912,210.319 724.006,209.458 720.416,209.458 L533.408,209.458 C529.822,209.458 526.912,210.319 526.912,211.381 L526.912,266.783 C526.912,267.846 529.822,268.708 533.408,268.708 L720.416,268.708 C724.006,268.708 726.912,267.846 726.912,266.783 L726.912,211.381" fill="#E88B09"/>
      <text transform="matrix(1, -0, 0, 1, 626.912, 234.319)">
        <tspan x="-56.273" y="12.389" font-family="GillSans" font-size="36" fill="#FFFFFE">Arbiter</tspan>
      </text>
      <text transform="matrix(1, 0, 0, 1, 626.912, 258.019)">
        <tspan x="-43.035" y="6.311" font-family="GillSans" font-size="18" fill="#FEFFFF">(vote only)</tspan>
      </text>
    </g>
  </g>
  <defs/>
</svg>
