<svg xmlns="http://www.w3.org/2000/svg" width="740" height="240" fill="none"><path fill="#fff" d="M0 0h740v240H0z"/><path fill="#412818" d="M22.3 32.4V16.1H28q3.3 0 5.2 1 2 1 3.1 3 1.2 1.9 1.2 4.2 0 1.6-.6 3-.9 1.7-2 2.7-1.1 1.2-2.7 1.8-1 .4-1.7.5l-3 .1zm5.3-14.3h-3v12.2h3q1.8 0 2.8-.2l1.6-.6q.7-.4 1.2-1 1.8-1.7 1.8-4.4 0-2.6-1.8-4.3a7.4 7.4 0 0 0-1.5-1q-.9-.4-1.6-.5-.8-.2-2.5-.2M46.8 26v4.5q0 .6.4.6t1.2-.6v1.3q-.699.5-1.2.6-.4.2-1 .2-1.299 0-1.5-1-1.4 1-3 1-.999 0-1.8-.7-.7-.8-.7-2 0-1 .7-1.7.702-.8 2-1.3l2.8-1v-.5q0-2-2-2-1.7 0-3.3 1.8V23q1.201-1.5 3.5-1.5 1.8 0 2.8 1 .4.2.7.7l.3 1zm-2.1 4.3v-3.2l-1.4.5q-1.1.5-1.6 1-.4.4-.4 1 0 .7.4 1.1t1.1.4q1 0 1.9-.8m4.1-6.9 4-4v2.2h3.4v2h-3.4v5.3q0 1.8 1.5 1.8 1.2 0 2.4-.8v2q-1.2.7-2.6.7-1.5 0-2.5-.8l-.5-.6-.3-.9-.1-2v-4.7h-2v-.2zM65 26v4.5q0 .6.5.6.3 0 1.2-.6v1.3l-1.2.6q-.4.2-1 .2-1.299 0-1.5-1-1.4 1-3 1-.999 0-1.8-.7-.8-.8-.8-2 0-1 .8-1.7.7-.8 2-1.3l2.8-1v-.5q0-2-2-2-1.7 0-3.4 1.8V23q1.3-1.5 3.6-1.5 1.8 0 2.8 1 .4.2.6.7l.4 1zm-2 4.3v-3.2l-1.5.5q-.999.5-1.5 1-.4.4-.4 1 0 .7.4 1.1t1 .4q1.1 0 2-.8m26.6-1.7v2.6q-2.599 1.4-6 1.4-2.7 0-4.6-1a8.9 8.9 0 0 1-3-3.1q-1.1-2-1.1-4.2 0-3.6 2.5-6 2.601-2.5 6.3-2.5 2.6 0 5.8 1.4v2.5q-3-1.6-5.7-1.6-2.8 0-4.6 1.8-1.9 1.7-1.9 4.4t1.8 4.4q1.9 1.8 4.7 1.8 3 0 5.8-1.9m11.801-1.4h-7.6q.1 1.6 1 2.5 1 .9 2.5.9 2.2 0 4-1.3v2q-1 .7-2 1t-2.3.3q-1.8 0-2.9-.7a7.1 7.1 0 0 1-1.7-2q-.7-1.3-.7-3 0-2.4 1.4-4 1.4-1.5 3.6-1.5t3.5 1.5q1.2 1.5 1.2 4zm-7.4-1.2h5.4q0-1.2-.7-2-.7-.6-1.9-.6-1.1 0-1.9.7-.7.7-1 2zm11.9-4.4V23q1.4-1.6 3.2-1.6 1 0 1.9.6.8.5 1.3 1.4.4.9.4 2.9v6.1h-2v-6.1q0-1.7-.6-2.4-.5-.7-1.7-.7-1.5 0-2.5 1.5v7.7h-2.2V21.6zm8.3 1.8 4-4v2.2h3.4v2h-3.4v5.3q0 1.8 1.6 1.8 1.1 0 2.4-.8v2q-1.2.7-2.7.7t-2.4-.8l-.5-.6-.4-.9-.1-2v-4.7h-1.9zm18.8 3.8h-7.7q.1 1.6 1 2.5 1 .9 2.5.9 2.2 0 4-1.3v2q-1 .7-2 1t-2.3.3q-1.8 0-2.9-.7a7.1 7.1 0 0 1-1.7-2q-.7-1.3-.7-3 0-2.4 1.4-4 1.4-1.5 3.6-1.5t3.5 1.5q1.2 1.5 1.2 4v.3zm-7.6-1.3h5.4q0-1.2-.7-2-.7-.6-1.9-.6-1.1 0-1.9.7-.7.7-1 2zm12.1-4.3v2.5l.1-.2q1.6-2.5 3.1-2.5 1.2 0 2.5 1.3l-1 1.8q-1.2-1-2.1-1-1 0-1.8 1a3.57 3.57 0 0 0-.8 2.3v5.6h-2.1V21.6zm17.2-5.6h2.4v16.4h-2.4V16m348.1 16.1V15.8h5.6q3.3 0 5.2 1 2 1 3.1 3 1.2 1.9 1.2 4.2 0 1.6-.6 3.1a9.1 9.1 0 0 1-1.8 2.6q-1.2 1.2-2.8 1.8-1 .4-1.7.5l-3 .1zm5.3-14.2h-3V30h3q1.8 0 2.8-.2l1.6-.6q.699-.4 1.2-1 1.8-1.7 1.8-4.4 0-2.6-1.8-4.3a7.4 7.4 0 0 0-1.5-1q-.9-.4-1.6-.5zm19.2 7.8v4.5q0 .6.4.6.399 0 1.2-.6v1.3q-.7.5-1.2.6-.4.2-1 .2-1.3 0-1.5-1-1.401 1-3 1-1 0-1.8-.7-.7-.8-.7-2 0-1 .7-1.7.7-.8 2-1.3l2.8-1v-.5q0-2-2-2-1.701 0-3.3 1.8v-2.3q1.2-1.5 3.5-1.5 1.8 0 2.8 1l.7.7.3 1zm-2.1 4.3v-3.2l-1.4.6q-1.1.4-1.6.8-.4.5-.4 1.1 0 .7.4 1.1t1.1.4q1 0 1.9-.8m4.1-7 4-3.9v2.3h3.4v1.9h-3.4v5.3q0 1.8 1.5 1.8 1.2 0 2.4-.8v2q-1.2.7-2.6.7-1.5 0-2.5-.8l-.5-.6-.3-.8-.1-2v-4.8h-2V23zm16.3 2.7v4.5q0 .6.4.6.3 0 1.2-.6v1.3l-1.2.6q-.4.2-1 .2-1.3 0-1.5-1-1.401 1-3 1-1 0-1.8-.7-.8-.8-.8-2 0-1 .8-1.7.7-.8 2-1.3l2.8-1v-.5q0-2-2-2-1.7 0-3.4 1.8v-2.3q1.299-1.5 3.6-1.5 1.8 0 2.8 1 .399.3.6.7l.4 1v1.9zm-2.1 4.3v-3.2l-1.4.6q-1.1.4-1.6.8-.4.5-.4 1.1 0 .7.4 1.1t1.1.4q1 0 1.9-.8m26.6-1.7V31q-2.5 1.4-6 1.4-2.7 0-4.6-1a8.9 8.9 0 0 1-3-3.1q-1.1-2-1.1-4.2 0-3.6 2.5-6 2.6-2.4 6.3-2.4 2.6 0 5.8 1.3v2.5q-3-1.6-5.7-1.6-2.8 0-4.6 1.8-1.9 1.7-1.9 4.4t1.8 4.4q1.9 1.8 4.7 1.8 3 0 5.8-1.9zm11.9-1.3h-7.7q.1 1.5 1 2.4 1 1 2.6 1 2 0 3.8-1.4v2q-1 .7-2 1-.9.3-2.2.3-1.8 0-2.9-.7a7.1 7.1 0 0 1-1.7-2q-.7-1.3-.7-3 0-2.4 1.4-4 1.4-1.5 3.6-1.5t3.5 1.5q1.2 1.5 1.2 4v.3zm-7.6-1.3h5.4q0-1.3-.7-2t-1.9-.7q-1.1 0-1.9.7-.7.7-.9 2m12-4.3v1.3q1.4-1.6 3.2-1.6 1 0 1.9.6.8.5 1.3 1.4t.5 2.9v6h-2.3v-6q0-1.7-.5-2.4-.501-.7-1.5-.6-1.5 0-2.5 1.5v7.7h-2.2V21.4h2.2zm8.3 1.6 4-3.9v2.3h3.4v1.9h-3.4v5.3q0 1.8 1.6 1.8 1.1 0 2.4-.8v2q-1.2.7-2.7.7t-2.4-.8l-.5-.6-.4-.8-.1-2v-4.8h-1.9zm18.7 4h-7.6q.1 1.5 1 2.4 1 1 2.6 1 2 0 3.8-1.4v2q-1 .7-2 1-.9.3-2.2.3-1.8 0-2.9-.7a7.1 7.1 0 0 1-1.7-2q-.7-1.3-.7-3 0-2.4 1.4-4 1.4-1.5 3.6-1.5t3.5 1.5q1.2 1.5 1.2 4v.4m-7.5-1.3h5.4q0-1.3-.7-2t-1.9-.7q-1.1 0-1.9.7-.7.7-.9 2m12.1-4.3v2.4l.1-.2q1.6-2.5 3.1-2.5 1.2 0 2.5 1.3l-1 1.8q-1.2-1-2.1-1-1 0-1.8 1a3.57 3.57 0 0 0-.8 2.3v5.6h-2V21.4h2.1zm16.7 1.2h.2q1.5 0 2.3-.6.8-.7.8-1.9 0-1-.8-1.7t-2-.7q-1.3 0-2.9.8v-2.3q1.5-.7 3.2-.7 2.2 0 3.5 1.2t1.3 3.2q0 1.3-.5 2.1-.5.9-1.6 1.5 1 .4 1.4 1 .5.5.7 1.2.3.8.3 1.7 0 2.1-1.5 3.5-1.401 1.4-3.6 1.4-1.8 0-3.6-.9V29q1.899 1.1 3.6 1.1 1.2 0 2-.7.6-.7.6-1.8 0-1-.6-1.7a2 2 0 0 0-.7-.6l-1.9-.4h-.2v-2.3"/><path stroke="#3F2615" stroke-width="4" d="M500.3 38.4H722V208H500.3zm-241.2.2H481v169.3H259z"/><path fill="#412818" d="M262.5 32.7V16.3h5.5q3.3 0 5.3 1a6.54 6.54 0 0 1 3 3q1.2 2 1.2 4.2 0 1.7-.6 3.2t-1.8 2.6q-1.2 1.2-2.8 1.8l-1.7.5h-8.1zm5.3-14.3h-3v12.2h3q1.8 0 2.8-.2l1.6-.6 1.2-1q1.7-1.7 1.7-4.4 0-2.6-1.8-4.3-.6-.6-1.5-1a5 5 0 0 0-1.6-.5q-.8-.2-2.4-.2m19.2 7.8v4.6q0 .6.3.6.4 0 1.2-.6V32q-.7.5-1.1.6l-1 .2q-1.3 0-1.6-1-1.3 1-2.9 1-1.1 0-1.8-.8-.8-.7-.8-1.8 0-1 .7-1.9.8-.801 2.1-1.2l2.7-1v-.5q0-2-1.9-2-1.7 0-3.4 1.8v-2.3q1.2-1.5 3.6-1.5 1.7 0 2.8 1l.6.7.4 1v1.8zm-2.2 4.4v-3.2l-1.4.5q-1 .5-1.5 1-.5.3-.5 1t.4 1q.5.5 1.2.5 1 0 1.8-.8m4.2-7 4-3.9V22h3.3v2H293v5q0 1.9 1.6 1.9 1.1 0 2.4-.8v2q-1.2.7-2.7.7t-2.4-.9l-.5-.5-.4-.9-.1-2V24H289v-.4m16.2 2.6v4.6q0 .6.4.6t1.2-.6V32q-.7.5-1.2.6-.4.2-.9.2-1.3 0-1.6-1-1.4 1-2.9 1-1.1 0-1.9-.8-.7-.7-.7-1.8 0-1 .7-1.9.7-.801 2.1-1.2l2.7-1v-.5q0-2-2-2-1.7 0-3.3 1.8v-2.3q1.2-1.5 3.6-1.5 1.7 0 2.8 1l.6.7q.3.5.3 1l.1 1.8zm-2 4.4v-3.2l-1.5.5q-1 .5-1.5 1-.5.3-.5 1t.4 1q.5.5 1.1.5 1 0 2-.8m26.6-1.6v2.5q-2.6 1.4-6 1.4-2.7 0-4.6-1.1-2-1.101-3-3-1.2-2.001-1.2-4.2 0-3.6 2.6-6 2.5-2.5 6.3-2.5 2.5 0 5.7 1.4V20q-2.9-1.6-5.6-1.6-2.8 0-4.7 1.7-1.8 1.8-1.8 4.5t1.8 4.4 4.7 1.7q3 0 5.8-1.8zm11.8-1.5H334q0 1.6 1 2.5t2.5.9q2.1 0 3.9-1.3v2q-1 .7-2 1t-2.2.3q-1.8 0-3-.8-1-.7-1.7-2-.6-1.2-.6-2.8 0-2.5 1.4-4 1.4-1.6 3.6-1.6 2.1 0 3.4 1.5t1.3 4zm-7.6-1.3h5.5q-.1-1.2-.8-2-.7-.6-1.8-.6-1.2 0-2 .7-.6.7-.9 2zm12-4.2v1.3q1.4-1.6 3.3-1.6 1 0 1.8.6.9.5 1.3 1.4.5.9.5 2.9v6.1h-2.1v-6.1q0-1.701-.5-2.4-.5-.7-1.7-.7-1.5 0-2.6 1.5v7.7h-2.2V22zm8.4 1.6 4-3.9V22h3.4v2h-3.4v5q0 1.9 1.5 1.9 1.2 0 2.4-.8v2q-1.2.7-2.7.7-1.4 0-2.4-.9l-.5-.5-.3-.9q-.2-.5-.2-2V24h-1.8v-.4m18.6 3.9h-7.5q0 1.6 1 2.5t2.5.9q2.1 0 3.9-1.3v2q-1 .7-2 1t-2.2.3q-1.8 0-3-.8-1-.7-1.7-2-.6-1.2-.6-2.8 0-2.5 1.4-4 1.4-1.6 3.6-1.6 2.1 0 3.4 1.5t1.3 4v.3zm-7.5-1.3h5.5q-.1-1.2-.8-2-.7-.6-1.8-.6-1.2 0-2 .7-.6.7-.9 2zm12.2-4.2v2.4-.2q1.6-2.5 3.2-2.5 1.2 0 2.5 1.2l-1.1 2q-1.1-1.1-2.1-1.1t-1.8 1q-.7 1-.7 2.3v5.6h-2.2V22zm17.3 8.5h6.2v2.2H391v-.1l1-1.2 3.6-4.9q1.4-2.001 1.8-3t.4-2q0-1.4-.8-2.2t-2-.8q-1 0-2 .5-1 .6-1.7 1.7v-3q1.9-1.6 4-1.6 2 0 3.4 1.5 1.4 1.4 1.4 3.6 0 .999-.3 2.1t-1.2 2.6l-3 4-.5.6z"/><path stroke="#3F2615" stroke-width="4" d="M18.1 38.4H240V208H18z"/><path fill="#3299CC" d="M229 47c0-1.2-3-2.1-6.5-2.1h-187c-3.6 0-6.5 1-6.5 2v60.9c0 1.1 3 2 6.5 2h187c3.6 0 6.5-.9 6.5-2z"/><path fill="#fff" d="M74.2 89.4V64.8h7.7q3.6 0 5.7 1.9 2 1.9 2 5 0 2.199-1 3.9-1.101 1.6-3 2.4-1.8.7-5.3.7h-2.6v10.7zm7.1-21.5h-3.6v7.7h3.8q2.199 0 3.3-1 1.2-1 1.2-3 0-3.7-4.7-3.7m14.4 5.3v3.7l.2-.3q2.3-3.7 4.599-3.7 1.8 0 3.8 1.8l-1.7 2.8q-1.7-1.6-3.1-1.6-1.5 0-2.7 1.5-1.1 1.5-1.1 3.5v8.5h-3.2V73.2zm12.499-6.8q.8 0 1.3.5.6.6.6 1.4t-.6 1.3q-.5.6-1.3.6t-1.3-.6q-.6-.6-.6-1.3 0-.8.6-1.3.5-.6 1.3-.6m-1.6 6.8h3.2v16.2h-3.2zm21.1 4.4v11.8h-3.3v-9q0-2.7-.7-3.8-.7-1-2.5-1-.999 0-1.8.4-.9.5-2 1.6v11.8h-3.1V73.2h3.2v2.1q2.4-2.4 4.8-2.4 3 0 4.7 2.9 2.601-3 5.4-3 2.3 0 3.8 1.8 1.6 1.7 1.6 5.2v9.6h-3.2v-9.6q0-2-.9-3.1-.8-1-2.3-1-2 0-3.7 2zm24.6 2.1v6.8q0 .9.5.9.6 0 1.8-1v2l-1.7 1q-.7.3-1.4.3-2 0-2.4-1.7-2 1.6-4.3 1.6-1.7 0-2.9-1-1-1.2-1-2.9 0-1.5 1-2.7 1.1-1.2 3.1-2l4.1-1.3v-1q0-2.8-2.9-2.8-2.6 0-5 2.7V75q1.8-2.2 5.3-2.2 2.601 0 4.2 1.4.5.4 1 1.1l.5 1.5v2.8zm-3.2 6.5v-4.8l-2.1.8q-1.7.7-2.3 1.3a2.32 2.32 0 0 0-.7 1.7q0 1 .6 1.6.7.6 1.7.6 1.5 0 2.8-1.2m11.9-13v3.7l.1-.3q2.3-3.7 4.7-3.7 1.8 0 3.7 1.8l-1.7 2.8q-1.599-1.6-3-1.6-1.599 0-2.7 1.5-1.2 1.5-1.2 3.5v8.5h-3.2V73.2h3.3m21.7 0h3.6l-11.3 24.4h-3.6l5.5-11.7-6.2-12.7h3.6l4.4 9.1 4.1-9.1z"/><path fill="#3E2D1B" d="M106 106.6v-8.1h1.9q1.4 0 2.2.7t.8 2q0 1.2-.8 2-.7.8-1.9.8-.5 0-1.1-.3v3H106zm1.8-7.1h-.7v3.3l1 .2q.8 0 1.2-.5.5-.5.5-1.3l-.2-1a.9.9 0 0 0-.6-.5q-.4-.2-1.2-.2m5.4-1v1.2q.8-1.3 1.6-1.3.6 0 1.3.6l-.6 1q-.6-.6-1-.6-.5 0-1 .5-.3.501-.3 1.2v2.8h-1v-5.4zm4.2-2.3.4.2.2.4a.68.68 0 0 1-.2.5l-.4.2a.68.68 0 0 1-.7-.7l.2-.4q.2-.2.5-.2m-.6 2.3h1.1v5.4h-1v-5.4zm5.2 0q1.2 0 2 .8.9.8.9 2 0 1.1-.9 1.9-.8.8-2 .8t-2-.8q-.9-.8-.9-2t.8-2q.9-.7 2.1-.7m0 1q-.8 0-1.3.4-.5.5-.5 1.3t.5 1.3 1.3.5 1.3-.5.5-1.3-.5-1.3q-.6-.5-1.3-.5zm5.2-1v1.2q.8-1.3 1.6-1.3.6 0 1.3.6l-.6 1q-.6-.6-1-.6-.6 0-1 .5-.3.501-.3 1.2v2.8h-1v-5.4zm4.2-2.3.4.2.2.4a.68.68 0 0 1-.2.5l-.4.2a.68.68 0 0 1-.7-.7l.2-.4q.2-.2.5-.2m-.6 2.3h1v5.4h-1zm1.9.8 2-2v1.2h1.7v1h-1.7v2.6q0 1 .7 1 .6 0 1.3-.5v1q-.7.4-1.4.4t-1.2-.5q-.2 0-.3-.2l-.1-.5v-3.4h-1zm8-.8h1.2l-3.8 8.1H137l1.9-3.9-2.1-4.2h1.2l1.4 3 1.4-3zm2.5 4q.3 0 .5.3.2.2.2.5a.68.68 0 0 1-.2.5q-.2.2-.5.2a.68.68 0 0 1-.5-.2.68.68 0 0 1-.2-.5q0-.3.2-.5.2-.3.5-.3m0-4.1q.4 0 .6.2t.2.5a.68.68 0 0 1-.7.7.68.68 0 0 1-.7-.7.68.68 0 0 1 .7-.7zm5.9-2.7h1.2v8.2H149v-8.2z"/><path fill="#6CB340" d="M470 126.8c0-1.1-3-2-6.5-2h-187c-3.6 0-6.5.9-6.5 2v60.8c0 1.2 3 2.1 6.5 2.1h187c3.6 0 6.5-1 6.5-2.1z"/><path fill="#FFFFFE" d="m302.7 159-2.7-1.7q-2.499-1.5-3.6-3-1-1.5-1-3.4 0-3 2-4.7 2-1.9 5.2-1.9 3.1 0 5.7 1.8v4q-2.7-2.6-5.7-2.6-1.8 0-2.9.8-1 .8-1 2t.7 2.1q.801 1 2.7 2l2.6 1.6q4.5 2.7 4.5 6.9 0 2.9-2 4.8-2 1.8-5 1.8-3.7 0-6.7-2.2v-4.5q2.8 3.6 6.6 3.6 1.6 0 2.7-1 1.1-.8 1.1-2.2 0-2.3-3.2-4.3zm23.8 2.4H315q.1 2.3 1.6 3.7 1.4 1.4 3.7 1.4 3.1 0 5.8-2v3.1q-1.5 1-3 1.4-1.4.5-3.3.5-2.7 0-4.3-1.1a8.96 8.96 0 0 1-2.7-3q-1-1.9-1-4.4 0-3.7 2.1-6t5.4-2.3 5.2 2.3q1.9 2.199 1.9 6v.4zm-11.3-2h8.1q-.1-1.8-1.1-2.9-1-1-2.8-1-1.7 0-2.8 1-1 .999-1.4 3zm26.8 6v3.2q-2.3.9-4.7.9-3.699 0-6-2.3-2.3-2.2-2.3-6t2.2-6.1q2.2-2.4 5.8-2.4 1.3 0 2.2.3 1 .2 2.5.9v3.4q-2.4-1.6-4.5-1.6-2.2 0-3.5 1.5-1.4 1.6-1.4 4t1.5 3.8q1.5 1.5 4 1.5 1.9 0 4.3-1zm11.4-12.4q3.7 0 6.1 2.4 2.5 2.4 2.5 6 0 3.5-2.5 5.8t-6.2 2.3-6.1-2.3q-2.5-2.4-2.5-6 0-3.5 2.5-5.8 2.5-2.4 6.2-2.4m-.2 2.9q-2.3 0-3.7 1.5-1.5 1.5-1.5 3.9 0 2.3 1.5 3.7 1.5 1.5 3.9 1.5 2.3 0 3.8-1.5t1.5-3.8-1.5-3.8q-1.6-1.5-4-1.5m15.5-2.9v2.1q2.2-2.4 4.9-2.4 1.5 0 2.8.8a5.3 5.3 0 0 1 2 2.2q.6 1.3.6 4.3v9.2h-3.2V160q0-2.5-.7-3.5-.8-1.1-2.5-1.1-2.3 0-3.9 2.3v11.5h-3.3V153zm25.6-8.3h3.2v24.5h-6.8q-3.6 0-5.7-2.3-2.2-2.2-2.2-6 0-3.6 2.3-6 2.2-2.2 5.7-2.2 1.6 0 3.5.7zm0 21.8v-10.3q-1.5-.7-3-.7-2.4 0-3.8 1.5-1.4 1.6-1.4 4.3 0 2.4 1.2 3.8.7.8 1.6 1 .801.4 3 .4zm17.7-7v6.9q0 .8.6.8t1.8-.9v2l-1.8 1q-.6.2-1.3.2-2 0-2.5-1.6-2 1.6-4.3 1.6-1.7 0-2.8-1.1-1.1-1.2-1.1-2.9 0-1.5 1-2.7 1.2-1.2 3.2-1.9l4-1.4v-.9q0-2.9-2.8-2.9-2.7 0-5.1 2.7V155q1.8-2.2 5.3-2.2 2.601 0 4.2 1.4.5.399 1 1.2.4.7.5 1.4l.1 2.8zm-3 6.5v-4.8l-2.2.8q-1.6.7-2.3 1.4-.7.6-.7 1.6t.7 1.6q.6.7 1.6.7 1.6 0 2.9-1.3m11.7-13v3.8l.2-.3q2.3-3.8 4.6-3.8 1.8 0 3.8 1.9l-1.7 2.8q-1.7-1.6-3.1-1.6-1.5 0-2.7 1.5-1.1 1.4-1.1 3.5v8.4h-3.2V153zm21.8 0h3.6l-11.5 24.5h-3.5l5.5-11.7-6.3-12.8h3.7l4.3 9.2z"/><path fill="#3E2D1B" d="M342.1 185.2v-8h1.9q1.4 0 2.2.6.8.7.8 2 0 1.2-.7 2-.8.8-2 .8l-1.1-.2v2.8h-1.1m1.9-7h-.8v3.2q.5.3 1 .3.8 0 1.3-.5.4-.6.4-1.4l-.2-1a1.5 1.5 0 0 0-.6-.5q-.4-.2-1.1-.2zm5.3-1.1v1.2q.9-1.3 1.6-1.3.6 0 1.3.6l-.6 1q-.5-.6-1-.6-.501 0-.9.5-.4.501-.4 1.2v2.8h-1v-5.4zm4.2-2.3q.3 0 .4.2.2.2.2.5l-.2.4q-.1.2-.4.2t-.4-.2l-.2-.4q0-.3.2-.5.1-.2.4-.2m-.5 2.3h1v5.4h-1zm5.1 0q1.3 0 2 .8.9.8.9 2t-.8 2q-.9.7-2.1.7t-2-.8-.8-2q0-1.1.8-2 .8-.7 2-.7m0 1q-.8 0-1.3.5-.5.501-.5 1.2 0 .8.5 1.3t1.3.5 1.3-.5.5-1.3a1.64 1.64 0 0 0-.5-1.2q-.5-.5-1.3-.5m5.2-1v1.2q.8-1.3 1.6-1.3.6 0 1.3.6l-.6 1q-.5-.6-1-.6t-1 .5q-.3.501-.3 1.2v2.8h-1v-5.4zm4.2-2.3.4.2q.2.2.2.5l-.2.4-.4.2a.68.68 0 0 1-.5-.2l-.1-.4.1-.5a.68.68 0 0 1 .5-.2m-.5 2.3h1v5.4h-1zm1.8.9 2-2v1.1h1.7v1h-1.7v2.6q0 1 .8 1 .5 0 1.2-.4v1q-.6.3-1.4.3-.7 0-1.2-.4l-.2-.3-.2-.4V178zm8.1-.9h1.2l-3.9 8.1h-1.1l1.8-3.9-2-4.2h1.1l1.5 3zm2.4 4.1a.68.68 0 0 1 .7.7.68.68 0 0 1-.2.5q-.2.2-.5.2a.68.68 0 0 1-.5-.2.68.68 0 0 1-.2-.5q0-.3.2-.5a.68.68 0 0 1 .5-.2m.1-4.2a.68.68 0 0 1 .7.7.68.68 0 0 1-.2.5q-.2.2-.5.2a.68.68 0 0 1-.5-.2.68.68 0 0 1-.2-.5q0-.3.2-.5a.68.68 0 0 1 .5-.2m6.5-2.8q.999 0 1.8 1.2.8 1.2.8 3t-.8 3q-.7 1.2-1.9 1.2t-1.9-1.2q-.7-1.1-.7-3t.7-3q.8-1.2 2-1.2m0 1.1q-.801 0-1.2.9-.4.8-.4 2.2 0 1.5.4 2.3t1.1.8 1-.8q.5-.8.5-2.3 0-1.4-.4-2.2-.4-.9-1-.9m4.2 5.9a.68.68 0 0 1 .7.7.68.68 0 0 1-.2.5q-.2.2-.5.2a.68.68 0 0 1-.5-.2.68.68 0 0 1-.2-.5q0-.3.2-.5a.68.68 0 0 1 .5-.2m2.6-6.9h3.6v1h-2.6v2.1h.3q1.2 0 2 .7.7.8.7 1.9t-.8 1.9q-.7.7-2 .7-1 0-1.9-.5v-1.2q.999.6 1.8.6.699 0 1.2-.5.5-.4.5-1 0-.7-.5-1.1-.6-.4-1.4-.4h-1v-4.2z"/><path fill="#6CB340" d="M229 123.6c0-1.2-3-2.1-6.5-2.1h-187c-3.6 0-6.5 1-6.5 2.1v60.8c0 1.2 3 2.1 6.5 2.1h187c3.6 0 6.5-1 6.5-2.1z"/><path fill="#FFFFFE" d="m61.7 155.7-2.7-1.6q-2.499-1.5-3.6-3-1-1.5-1-3.5 0-2.9 2-4.7t5.2-1.8a10.2 10.2 0 0 1 5.7 1.7v4q-2.7-2.5-5.7-2.5-1.8 0-2.9.8-1 .8-1 2 0 1.1.7 2.1.801 1 2.7 2l2.6 1.6q4.5 2.7 4.5 6.8 0 3-2 4.8-2 1.9-5 1.9-3.7 0-6.7-2.3v-4.4q2.8 3.6 6.6 3.6 1.6 0 2.7-1 1.1-.9 1.1-2.2 0-2.3-3.2-4.3m23.8 2.5H74q.1 2.3 1.6 3.7 1.4 1.4 3.7 1.4 3.1 0 5.8-2v3.1q-1.5 1-3 1.4-1.4.4-3.3.4-2.7 0-4.3-1a8.95 8.95 0 0 1-2.7-3q-1-2-1-4.4 0-3.7 2.1-6t5.4-2.3 5.2 2.3q1.9 2.199 1.9 6v.4zm-11.3-2h8.1q-.1-1.8-1.1-2.9-1-1-2.8-1-1.7 0-2.8 1-1 .999-1.4 3zm26.8 6v3.2q-2.3.9-4.7.9-3.699 0-6-2.3-2.3-2.2-2.3-6t2.2-6.2q2.2-2.3 5.8-2.3 1.3 0 2.2.3 1 .2 2.5.8v3.4q-2.4-1.5-4.5-1.5-2.2 0-3.5 1.5-1.4 1.5-1.4 3.9 0 2.5 1.5 4 1.5 1.4 4 1.4 1.9 0 4.3-1zm11.4-12.4q3.7 0 6.1 2.4 2.5 2.4 2.5 6 0 3.5-2.5 5.8t-6.2 2.3-6.1-2.4q-2.5-2.3-2.5-5.8 0-3.6 2.5-6 2.5-2.3 6.2-2.3m-.2 2.9q-2.3 0-3.7 1.5-1.5 1.5-1.5 3.8 0 2.4 1.5 3.8 1.5 1.5 3.9 1.5 2.3 0 3.8-1.5t1.5-3.8-1.5-3.8q-1.6-1.5-4-1.5m15.5-2.9v2q2.2-2.3 4.9-2.3 1.5 0 2.8.8a5.5 5.5 0 0 1 2 2.1q.6 1.4.6 4.4v9.2h-3.2v-9.2q0-2.5-.7-3.5-.8-1.1-2.5-1.1-2.3 0-3.9 2.3V166h-3.3v-16.2zm25.6-8.4h3.2V166h-6.8q-3.6 0-5.7-2.3-2.2-2.2-2.2-6 0-3.6 2.3-6 2.2-2.2 5.7-2.2 1.6 0 3.5.7zm0 21.9V153q-1.5-.7-3-.7-2.4 0-3.8 1.5-1.4 1.599-1.4 4.2 0 2.499 1.2 3.9.7.8 1.6 1 .801.4 3 .4zm17.7-7v6.9q0 .8.6.8t1.8-.9v2l-1.8 1q-.6.2-1.3.2-2 0-2.5-1.6-2 1.5-4.3 1.5-1.7 0-2.8-1-1.1-1.2-1.1-2.9 0-1.5 1-2.7 1.2-1.2 3.2-2l4-1.3v-.9q0-2.9-2.8-2.9-2.7 0-5.1 2.7v-3.5q1.8-2.2 5.3-2.2 2.601 0 4.2 1.4.5.399 1 1.2.4.7.5 1.4zm-3.1 6.5V158l-2.2.8q-1.6.7-2.3 1.3a2.32 2.32 0 0 0-.7 1.7q0 1 .7 1.6.6.6 1.6.6 1.6 0 2.9-1.2m11.8-13v3.7l.2-.2q2.3-3.8 4.6-3.8 1.8 0 3.8 1.8l-1.7 2.9q-1.7-1.6-3.1-1.6-1.5 0-2.7 1.4-1.1 1.5-1.1 3.5v8.5h-3.2v-16.2zm21.8 0h3.6l-11.5 24.4h-3.5l5.5-11.7-6.3-12.7h3.7l4.3 9.2z"/><path fill="#3E2D1B" d="M106 183.2v-8h1.9q1.4 0 2.2.6.8.7.8 2 0 1.2-.8 2-.7.8-1.9.8l-1.1-.2v2.8zm1.8-7h-.7v3.2q.5.3 1 .3.8 0 1.2-.5.5-.6.5-1.4l-.2-1a1.5 1.5 0 0 0-.6-.5q-.4-.2-1.2-.2zm5.4-1.1v1.2q.8-1.3 1.6-1.3.6 0 1.3.6l-.6 1q-.6-.6-1-.6-.5 0-1 .5-.3.5-.3 1.2v2.8h-1v-5.4zm4.2-2.3.4.2q.2.2.2.5l-.2.4-.4.2a.68.68 0 0 1-.5-.2l-.2-.4q0-.3.2-.5t.5-.2m-.6 2.3h1.1v5.4h-1v-5.4zm5.2 0q1.2 0 2 .8.9.8.9 2t-.9 2q-.8.7-2 .7t-2-.8q-.9-.8-.9-2 0-1.1.8-2 .9-.7 2.1-.7m0 1q-.8 0-1.3.5t-.5 1.2q0 .8.5 1.3t1.3.5 1.3-.5.5-1.3q0-.7-.5-1.2-.6-.5-1.3-.5m5.2-1v1.2q.8-1.3 1.6-1.3.6 0 1.3.6l-.6 1q-.6-.6-1-.6-.6 0-1 .5-.3.5-.3 1.2v2.8h-1v-5.4zm4.2-2.3.4.2q.2.2.2.5l-.2.4-.4.2a.68.68 0 0 1-.5-.2l-.2-.4q0-.3.2-.5t.5-.2m-.6 2.3h1v5.4h-1zm1.9.9 2-2v1.1h1.7v1h-1.7v2.6q0 1 .7 1 .6 0 1.3-.4v1q-.7.3-1.4.3t-1.2-.4l-.3-.3-.1-.4V176zm8-.9h1.2l-3.8 8.1H137l1.9-3.9-2.1-4.2h1.2l1.4 3 1.4-3zm2.5 4.1q.3 0 .5.2t.2.5a.68.68 0 0 1-.7.7.68.68 0 0 1-.7-.7q0-.3.2-.5t.5-.2m0-4.2q.4 0 .6.2t.2.5a.68.68 0 0 1-.7.7.68.68 0 0 1-.7-.7q0-.3.2-.5t.5-.2zm5.9-2.7h1.2v8.2H149v-8.2z"/><path fill="#B2B2B2" d="M711.1 126.8c0-1.1-2.9-2-6.4-2h-187c-3.6 0-6.6.9-6.6 2v60.8c0 1.2 3 2.1 6.5 2.1h187c3.6 0 6.5-1 6.5-2.1z"/><path fill="#FFFFFE" d="m543.8 159-2.6-1.7q-2.5-1.5-3.6-3-1-1.5-1-3.4 0-3 2-4.7 2-1.9 5.2-1.9 3 0 5.6 1.8v4q-2.601-2.6-5.7-2.6-1.7 0-2.8.8t-1.1 2 .8 2.1q.8 1 2.6 2l2.7 1.6q4.5 2.7 4.5 6.9 0 2.9-2 4.8-2.001 1.8-5.1 1.8-3.7 0-6.7-2.2v-4.5q2.9 3.6 6.6 3.6 1.7 0 2.8-1 1-.8 1-2.2 0-2.3-3.2-4.3zm23.8 2.4h-11.3q0 2.3 1.5 3.7 1.4 1.4 3.7 1.4 3.2 0 5.9-2v3.1q-1.5 1-3 1.4-1.4.5-3.4.5-2.6 0-4.3-1.1a8.94 8.94 0 0 1-2.7-3q-1-1.9-1-4.4 0-3.7 2.2-6 2-2.3 5.4-2.3 3.2 0 5.1 2.3 2 2.199 2 6v.4zm-11.3-2h8.2q-.201-1.8-1.2-2.9-1-1-2.7-1t-2.8 1q-1.101.999-1.5 3zm26.9 6v3.2q-2.4.9-4.7.9-3.801 0-6-2.3-2.3-2.2-2.3-6t2.2-6.1q2.2-2.4 5.8-2.4 1.2 0 2.2.3 1 .2 2.5.9v3.4q-2.5-1.6-4.5-1.6-2.2 0-3.6 1.5-1.4 1.6-1.4 4t1.5 3.8q1.5 1.5 4 1.5 2 0 4.3-1zm11.4-12.4q3.7 0 6.1 2.4t2.4 6q0 3.5-2.4 5.8-2.5 2.3-6.3 2.3-3.6 0-6-2.3-2.5-2.4-2.5-6 0-3.5 2.5-5.8 2.4-2.4 6.2-2.4m-.2 2.9q-2.3 0-3.8 1.5t-1.5 3.9q0 2.3 1.5 3.7 1.6 1.5 4 1.5 2.3 0 3.8-1.5t1.5-3.8-1.6-3.8q-1.5-1.5-4-1.5zm15.5-2.9v2.1q2.1-2.4 4.8-2.4 1.5 0 2.8.8a5.3 5.3 0 0 1 2 2.2q.7 1.3.7 4.3v9.2H617V160q0-2.5-.8-3.5-.7-1.1-2.5-1.1-2.3 0-3.8 2.3v11.5h-3.3V153zm25.5-8.3h3.3v24.5h-6.9q-3.6 0-5.7-2.3-2.1-2.2-2.1-6 0-3.6 2.2-6 2.3-2.2 5.7-2.2 1.7 0 3.5.7zm0 21.8v-10.3a6.6 6.6 0 0 0-3-.7q-2.4 0-3.8 1.5-1.4 1.6-1.4 4.3 0 2.4 1.2 3.8.8.8 1.6 1 .8.4 3 .4zm17.8-7v6.9q0 .8.5.8.6 0 1.8-.9v2l-1.7 1-1.4.2q-2.001 0-2.4-1.6-2 1.6-4.4 1.6-1.6 0-2.8-1.1-1-1.2-1-2.9 0-1.5 1-2.7 1.1-1.2 3.1-1.9l4.1-1.4v-.9q0-2.9-2.9-2.9-2.6 0-5 2.7V155q1.8-2.2 5.3-2.2 2.6 0 4.2 1.4.5.399 1 1.2l.4 1.4q.2.8.2 2.8zM650 166v-4.8l-2.1.8q-1.7.7-2.3 1.4-.7.6-.7 1.6t.6 1.6q.7.7 1.7.7 1.5 0 2.8-1.3m11.8-13v3.8l.2-.3q2.3-3.8 4.6-3.8 1.9 0 3.8 1.9l-1.7 2.8q-1.6-1.6-3-1.6-1.6 0-2.7 1.5-1.2 1.4-1.2 3.5v8.4h-3.2V153zm21.8 0h3.6l-11.4 24.5h-3.6l5.5-11.7-6.2-12.8h3.6l4.4 9.2z"/><path fill="#000" d="M588.1 185.2v-8h1.9q1.4 0 2.2.6.8.7.8 2 0 1.2-.7 2-.8.8-2 .8l-1-.2v2.8H588zm1.9-7h-.8v3.2q.5.3 1 .3.8 0 1.3-.5.5-.6.5-1.4 0-.5-.3-1a1.5 1.5 0 0 0-.6-.5q-.4-.2-1.1-.2zm5.3-1.1v1.2h.1q.8-1.3 1.5-1.3t1.3.6l-.6 1q-.5-.6-1-.6t-.9.5q-.4.501-.4 1.2v2.8h-1v-5.4zm4.2-2.3q.3 0 .5.2l.1.5-.1.4q-.2.2-.5.2l-.4-.2-.2-.4q0-.3.2-.5zm-.5 2.3h1v5.4h-1zm5.2 0q1.2 0 2 .8t.8 2-.8 2q-.8.7-2 .7-1.3 0-2.1-.8t-.8-2q0-1.1.8-2 .8-.7 2-.7zm-.1 1q-.8 0-1.3.5-.4.501-.4 1.2 0 .8.5 1.3t1.3.5q.7 0 1.2-.5t.5-1.3a1.64 1.64 0 0 0-.5-1.2q-.5-.5-1.3-.5m5.2-1v1.2h.1q.8-1.3 1.5-1.3.6 0 1.3.6l-.6 1q-.5-.6-1-.6t-.9.5q-.4.501-.4 1.2v2.8h-1v-5.4zm4.2-2.3q.3 0 .5.2l.1.5-.1.4q-.2.2-.5.2l-.4-.2-.2-.4q0-.3.2-.5zm-.5 2.3h1v5.4h-1zm1.8.9 2-2v1.1h1.7v1h-1.7v2.6q0 1 .8 1 .6 0 1.2-.4v1q-.6.3-1.3.3-.8 0-1.3-.4l-.2-.3-.2-.4V178zm8.1-.9h1.2l-3.8 8.1H619l1.8-3.9-2-4.2h1.1l1.5 3 1.4-3zm2.4 4.1q.3 0 .5.2.3.2.3.5t-.3.5q-.2.2-.5.2l-.5-.2a.68.68 0 0 1-.2-.5.68.68 0 0 1 .7-.7m.1-4.2q.3 0 .5.2.3.2.3.5t-.3.5q-.2.2-.5.2a.68.68 0 0 1-.5-.2.68.68 0 0 1-.2-.5.68.68 0 0 1 .7-.7m6.5-2.8q1.1 0 1.8 1.2.8 1.2.8 3t-.8 3q-.7 1.2-1.9 1.2t-1.9-1.2q-.7-1.1-.7-3t.7-3q.8-1.2 2-1.2m0 1.1q-.7 0-1.1.9-.4.8-.4 2.2 0 1.5.4 2.3.3.8 1 .8t1.1-.8.4-2.3q0-1.4-.4-2.2-.4-.9-1-.9"/><path fill="#6CB340" d="M470 47c0-1.2-3-2.1-6.5-2.1h-187c-3.6 0-6.5 1-6.5 2v60.9c0 1.1 3 2 6.5 2h187c3.6 0 6.5-.9 6.5-2z"/><path fill="#FFFFFE" d="m303.1 81.7-2.6-1.6q-2.6-1.5-3.6-3t-1-3.5q0-2.9 2-4.7t5.2-1.8q3 0 5.6 1.7v4q-2.7-2.5-5.7-2.5-1.7 0-2.8.8-1.2.8-1.2 2 0 1.1.9 2.1.8 1 2.6 2l2.7 1.6q4.5 2.7 4.5 6.8 0 3-2 4.8-2 1.9-5.2 1.9-3.6 0-6.6-2.3v-4.4q2.901 3.6 6.6 3.6 1.7 0 2.8-1 1-.9 1-2.2 0-2.3-3.2-4.3m23.9 2.5h-11.5q.2 2.3 1.6 3.7t3.7 1.4q3.2 0 5.8-2v3.1a8.8 8.8 0 0 1-3 1.4q-1.299.4-3.3.4-2.7 0-4.3-1a8.96 8.96 0 0 1-2.7-3q-1-2-1-4.4 0-3.7 2.1-6t5.5-2.3q3.201 0 5.1 2.3 2 2.199 2 6zm-11.4-2h8.1q0-1.8-1.1-2.9-.999-1-2.7-1-1.8 0-2.9 1-1 .999-1.4 3zm26.9 6v3.2q-2.4.9-4.7.9-3.8 0-6-2.3-2.3-2.2-2.3-6t2.2-6.2q2.2-2.3 5.7-2.3 1.3 0 2.3.3 1 .2 2.4.8V80q-2.4-1.5-4.5-1.5t-3.5 1.5-1.4 3.9q0 2.5 1.5 4 1.5 1.4 4 1.4 1.9 0 4.3-1zm11.3-12.4q3.7 0 6.2 2.4 2.4 2.4 2.4 6 0 3.5-2.5 5.8-2.4 2.3-6.2 2.3-3.6 0-6-2.4-2.5-2.3-2.5-5.8 0-3.6 2.4-6 2.5-2.3 6.2-2.3m-.1 2.9q-2.3 0-3.8 1.5t-1.5 3.8q0 2.4 1.5 3.8 1.5 1.5 4 1.5 2.3 0 3.8-1.5t1.5-3.8-1.6-3.8-4-1.5zm15.4-2.9v2q2.2-2.3 4.9-2.3 1.5 0 2.8.8a5.5 5.5 0 0 1 2 2.1q.7 1.4.7 4.4V92h-3.2v-9.2q0-2.5-.8-3.5-.7-1.1-2.5-1.1-2.3 0-3.9 2.3V92H366V75.8h3.2zm25.6-8.4h3.2V92h-6.8q-3.6 0-5.7-2.3-2.2-2.2-2.2-6 0-3.6 2.3-6 2.2-2.2 5.7-2.2 1.6 0 3.5.7zm0 21.9V79q-1.5-.7-3-.7-2.4 0-3.8 1.5-1.4 1.599-1.4 4.2 0 2.499 1.2 3.9.8.8 1.6 1 .801.4 3 .4zm17.7-7v6.9q0 .8.6.8t1.8-.9v2l-1.7 1-1.4.2q-2 0-2.4-1.6-2 1.5-4.4 1.5-1.7 0-2.8-1-1.1-1.2-1.1-2.9 0-1.5 1-2.7 1.2-1.2 3.2-2l4.1-1.3v-.9q0-2.9-3-2.9-2.5 0-5 2.7v-3.5q1.8-2.2 5.3-2.2 2.7 0 4.2 1.4.6.399 1 1.2.4.7.5 1.4zm-3.1 6.5V84l-2.1.8q-1.7.7-2.4 1.3-.6.7-.6 1.7t.6 1.6q.7.6 1.7.6 1.5 0 2.8-1.2m11.8-13v3.7l.2-.2q2.3-3.8 4.6-3.8 1.8 0 3.8 1.8l-1.7 2.9q-1.599-1.6-3-1.6-1.6 0-2.8 1.4-1 1.5-1 3.5V92h-3.3V75.8zm21.9 0h3.5l-11.4 24.4h-3.6l5.5-11.7-6.3-12.7h3.7l4.3 9.2 4.2-9.2z"/><path fill="#3E2D1B" d="M342.1 108.6v-8.1h1.9q1.4 0 2.2.7t.8 2q0 1.2-.7 2-.8.8-2 .8-.5 0-1.1-.3v3h-1zm1.9-7.1h-.8v3.3l1 .2q.8 0 1.3-.5.4-.5.4-1.3l-.2-1q-.201-.4-.6-.5-.4-.2-1.1-.2m5.3-1v1.2q.9-1.3 1.6-1.3.6 0 1.3.6l-.6 1q-.5-.6-1-.6-.501 0-.9.5-.4.5-.4 1.2v2.8h-1v-5.4zm4.2-2.3q.3 0 .4.2l.2.4a.68.68 0 0 1-.2.5q-.1.2-.4.2t-.4-.2a.68.68 0 0 1-.2-.5l.2-.4q.1-.2.4-.2m-.5 2.3h1v5.4h-1zm5.1 0q1.3 0 2 .8.9.8.9 2 0 1.1-.8 1.9-.9.8-2.1.8t-2-.8-.8-2 .8-2q.8-.7 2-.7m0 1q-.8 0-1.3.4-.5.5-.5 1.3t.5 1.3 1.3.5 1.3-.5.5-1.3-.5-1.3-1.3-.5zm5.2-1v1.2q.8-1.3 1.6-1.3.6 0 1.3.6l-.6 1q-.5-.6-1-.6t-1 .5q-.3.5-.3 1.2v2.8h-1v-5.4zm4.2-2.3.4.2.2.4a.68.68 0 0 1-.2.5l-.4.2a.68.68 0 0 1-.5-.2l-.1-.5.1-.4q.2-.2.5-.2m-.5 2.3h1v5.4h-1zm1.8.8 2-2v1.2h1.7v1h-1.7v2.6q0 1 .8 1 .5 0 1.2-.5v1q-.6.4-1.4.4-.7 0-1.2-.5l-.2-.2-.2-.5v-3.4h-1zm8.1-.8h1.2l-3.9 8.1h-1.1l1.8-3.9-2-4.2h1.1l1.5 3zm2.4 4q.3 0 .5.3.2.2.2.5a.68.68 0 0 1-.7.7.68.68 0 0 1-.5-.2.68.68 0 0 1-.2-.5q0-.3.2-.5.2-.3.5-.3m.1-4.1q.3 0 .5.2t.2.5a.68.68 0 0 1-.7.7.68.68 0 0 1-.5-.2.68.68 0 0 1-.2-.5q0-.3.2-.5t.5-.2m6.5-2.8q.999 0 1.8 1.2.8 1.1.8 3 0 1.8-.8 3-.7 1.2-1.9 1.2t-1.9-1.2q-.7-1.101-.7-3t.7-3q.8-1.2 2-1.2m0 1.1q-.801 0-1.2.8-.4.9-.4 2.3t.4 2.3q.4.8 1.1.8t1-.8q.5-.9.5-2.3t-.4-2.3q-.4-.8-1-.8m4.2 5.9q.3 0 .5.2t.2.5a.68.68 0 0 1-.7.7.68.68 0 0 1-.5-.2.68.68 0 0 1-.2-.5q0-.3.2-.5t.5-.2m2.6-6.9h3.6v1h-2.6v2.1h.3q1.2 0 2 .7.7.7.7 1.9 0 1.1-.8 1.8-.7.8-2 .8-1 0-1.9-.5v-1.2q.999.5 1.8.5.699 0 1.2-.4.5-.4.5-1 0-.7-.5-1.1-.6-.5-1.4-.5l-1 .1v-4.2z"/></svg>