<?xml version="1.0" encoding="UTF-8"?>
<!DOCTYPE svg PUBLIC "-//W3C//DTD SVG 1.1//EN" "http://www.w3.org/Graphics/SVG/1.1/DTD/svg11.dtd">
<svg version="1.1" xmlns="http://www.w3.org/2000/svg" xmlns:xlink="http://www.w3.org/1999/xlink" x="0px" y="0px" width="740" height="280" viewBox="0, 0, 740, 280">
  <g id="Layer 1">
    <g>
      <path d="M500.884,208.528 L393.338,112.388" fill-opacity="0" stroke="#4F4C4B" stroke-width="4"/>
      <path d="M497.685,212.106 L510.427,217.058 L504.083,204.949 z" fill="#4F4C4B" fill-opacity="1" stroke="#4F4C4B" stroke-width="4" stroke-opacity="1"/>
      <path d="M396.537,108.809 L383.795,103.857 L390.139,115.966 z" fill="#4F4C4B" fill-opacity="1" stroke="#4F4C4B" stroke-width="4" stroke-opacity="1"/>
    </g>
    <g>
      <path d="M241.338,208.528 L348.884,112.388" fill-opacity="0" stroke="#4F4C4B" stroke-width="4"/>
      <path d="M238.139,204.949 L231.795,217.058 L244.537,212.106 z" fill="#4F4C4B" fill-opacity="1" stroke="#4F4C4B" stroke-width="4" stroke-opacity="1"/>
      <path d="M352.083,115.966 L358.427,103.857 L345.685,108.809 z" fill="#4F4C4B" fill-opacity="1" stroke="#4F4C4B" stroke-width="4" stroke-opacity="1"/>
    </g>
    <g>
      <path d="M220,207.11 C220,205.945 217.094,205 213.504,205 L26.496,205 C22.91,205 20,205.945 20,207.11 L20,267.888 C20,269.054 22.91,270 26.496,270 L213.504,270 C217.094,270 220,269.054 220,267.888 L220,207.11" fill="#5CA831"/>
      <text transform="matrix(1, -0, 0, 1, 120, 237.5)">
        <tspan x="-76.087" y="12.242" font-family="GillSans" font-size="36" fill="#FFFFFE">Secondary</tspan>
      </text>
    </g>
    <g>
      <path d="M720,207.11 C720,205.945 717.094,205 713.504,205 L526.496,205 C522.91,205 520,205.945 520,207.11 L520,267.888 C520,269.054 522.91,270 526.496,270 L713.504,270 C717.094,270 720,269.054 720,267.888 L720,207.11" fill="#5CA831"/>
      <text transform="matrix(1, -0, 0, 1, 620, 237.5)">
        <tspan x="-76.087" y="12.242" font-family="GillSans" font-size="36" fill="#FFFFFE">Secondary</tspan>
      </text>
    </g>
    <g>
      <text transform="matrix(0.766, -0.643, 0.643, 0.766, 202.275, 118.513)">
        <tspan x="-67.354" y="-7.5" font-family="GillSans" font-size="30" fill="#2A86C0">Replication</tspan>
      </text>
      <g>
        <path d="M260.5,77.5 L139.002,179.536" fill-opacity="0" stroke="#2A86C0" stroke-width="8"/>
        <path d="M134.372,174.023 L124.299,191.884 L143.633,185.05 z" fill="#2A86C0" fill-opacity="1" stroke="#2A86C0" stroke-width="8" stroke-opacity="1"/>
      </g>
    </g>
    <g>
      <path d="M469.274,22.434 C469.274,21.269 466.369,20.324 462.778,20.324 L275.77,20.324 C272.184,20.324 269.274,21.269 269.274,22.434 L269.274,83.212 C269.274,84.379 272.184,85.324 275.77,85.324 L462.778,85.324 C466.369,85.324 469.274,84.379 469.274,83.212 L469.274,22.434" fill="#2A86C0"/>
      <text transform="matrix(1, 0, 0, 1, 369.274, 52.824)">
        <tspan x="-57.357" y="12" font-family="GillSans" font-size="36" fill="#FFFFFF">Primary</tspan>
      </text>
    </g>
    <g>
      <text transform="matrix(0.766, 0.643, -0.643, 0.766, 537.445, 117.801)">
        <tspan x="-67.354" y="-7.5" font-family="GillSans" font-size="30" fill="#2A86C0">Replication</tspan>
      </text>
      <g>
        <path d="M480,77.5 L601.382,179.262" fill-opacity="0" stroke="#2A86C0" stroke-width="8"/>
        <path d="M596.756,184.779 L616.096,191.597 L606.008,173.744 z" fill="#2A86C0" fill-opacity="1" stroke="#2A86C0" stroke-width="8" stroke-opacity="1"/>
      </g>
    </g>
    <text transform="matrix(1, -0, 0, 1, 370, 222)">
      <tspan x="-61.838" y="10" font-family="GillSans" font-size="30" fill="#4F4C4B">Heartbeat</tspan>
    </text>
    <g>
      <path d="M246.511,237.5 L493.711,237.5" fill-opacity="0" stroke="#4F4C4B" stroke-width="4"/>
      <path d="M246.511,232.7 L233.711,237.5 L246.511,242.3 z" fill="#4F4C4B" fill-opacity="1" stroke="#4F4C4B" stroke-width="4" stroke-opacity="1"/>
      <path d="M493.711,242.3 L506.511,237.5 L493.711,232.7 z" fill="#4F4C4B" fill-opacity="1" stroke="#4F4C4B" stroke-width="4" stroke-opacity="1"/>
    </g>
  </g>
  <defs/>
</svg>
