<?xml version="1.0" encoding="UTF-8"?>
<!DOCTYPE svg PUBLIC "-//W3C//DTD SVG 1.1//EN" "http://www.w3.org/Graphics/SVG/1.1/DTD/svg11.dtd">
<svg version="1.1" xmlns="http://www.w3.org/2000/svg" xmlns:xlink="http://www.w3.org/1999/xlink" x="0px" y="0px" width="740" height="280" viewBox="0, 0, 740, 280">
  <g id="Layer 1">
    <g>
      <g>
        <path d="M231,20.824 C231,19.659 228.094,18.714 224.504,18.714 L37.496,18.714 C33.91,18.714 31,19.659 31,20.824 L31,81.602 C31,82.768 33.91,83.714 37.496,83.714 L224.504,83.714 C228.094,83.714 231,82.768 231,81.602 L231,20.824" fill="#5CA831"/>
        <text transform="matrix(1, -0, 0, 1, 131, 51.214)">
          <tspan x="-76.087" y="12" font-family="GillSans" font-size="36" fill="#FFFFFE">Secondary</tspan>
        </text>
      </g>
      <text transform="matrix(1, 0, 0, 1, 131, 72.714)">
        <tspan x="-26.666" y="5" font-family="GillSans-Light" font-size="18" fill="#2F2215">votes: 1</tspan>
      </text>
    </g>
    <g>
      <g>
        <path d="M231,109.027 C231,107.862 228.094,106.917 224.504,106.917 L37.496,106.917 C33.91,106.917 31,107.862 31,109.027 L31,169.805 C31,170.971 33.91,171.917 37.496,171.917 L224.504,171.917 C228.094,171.917 231,170.971 231,169.805 L231,109.027" fill="#5CA831"/>
        <text transform="matrix(1, -0, 0, 1, 131, 139.417)">
          <tspan x="-76.087" y="12" font-family="GillSans" font-size="36" fill="#FFFFFE">Secondary</tspan>
        </text>
      </g>
      <text transform="matrix(1, 0, 0, 1, 131, 160.917)">
        <tspan x="-26.666" y="5" font-family="GillSans-Light" font-size="18" fill="#2F2215">votes: 1</tspan>
      </text>
    </g>
    <g>
      <g>
        <path d="M231,196.193 C231,195.027 228.094,194.083 224.504,194.083 L37.496,194.083 C33.91,194.083 31,195.027 31,196.193 L31,256.971 C31,258.137 33.91,259.083 37.496,259.083 L224.504,259.083 C228.094,259.083 231,258.137 231,256.971 L231,196.193" fill="#5CA831"/>
        <text transform="matrix(1, -0, 0, 1, 131, 226.583)">
          <tspan x="-76.087" y="12" font-family="GillSans" font-size="36" fill="#FFFFFE">Secondary</tspan>
        </text>
      </g>
      <text transform="matrix(1, 0, 0, 1, 131, 248.083)">
        <tspan x="-26.666" y="5" font-family="GillSans-Light" font-size="18" fill="#2F2215">votes: 1</tspan>
      </text>
    </g>
    <g>
      <g>
        <path d="M470,20.824 C470,19.659 467.094,18.714 463.504,18.714 L276.496,18.714 C272.91,18.714 270,19.659 270,20.824 L270,81.602 C270,82.768 272.91,83.714 276.496,83.714 L463.504,83.714 C467.094,83.714 470,82.768 470,81.602 L470,20.824" fill="#5CA831"/>
        <text transform="matrix(1, -0, 0, 1, 370, 51.214)">
          <tspan x="-76.087" y="12" font-family="GillSans" font-size="36" fill="#FFFFFE">Secondary</tspan>
        </text>
      </g>
      <text transform="matrix(1, 0, 0, 1, 370, 72.714)">
        <tspan x="-26.666" y="5" font-family="GillSans-Light" font-size="18" fill="#2F2215">votes: 1</tspan>
      </text>
    </g>
    <g>
      <g>
        <path d="M710,20.824 C710,19.659 707.094,18.714 703.504,18.714 L516.496,18.714 C512.91,18.714 510,19.659 510,20.824 L510,81.602 C510,82.768 512.91,83.714 516.496,83.714 L703.504,83.714 C707.094,83.714 710,82.768 710,81.602 L710,20.824" fill="#5CA831"/>
        <text transform="matrix(1, -0, 0, 1, 610, 51.214)">
          <tspan x="-76.087" y="12" font-family="GillSans" font-size="36" fill="#FFFFFE">Secondary</tspan>
        </text>
      </g>
      <text transform="matrix(1, 0, 0, 1, 610, 72.714)">
        <tspan x="-26.666" y="5" font-family="GillSans-Light" font-size="18" fill="#2F2215">votes: 1</tspan>
      </text>
    </g>
    <g>
      <g>
        <path d="M710,109.027 C710,107.862 707.094,106.917 703.504,106.917 L516.496,106.917 C512.91,106.917 510,107.862 510,109.027 L510,169.805 C510,170.971 512.91,171.917 516.496,171.917 L703.504,171.917 C707.094,171.917 710,170.971 710,169.805 L710,109.027" fill="#5CA831"/>
        <text transform="matrix(1, -0, 0, 1, 610, 139.417)">
          <tspan x="-76.087" y="12" font-family="GillSans" font-size="36" fill="#FFFFFE">Secondary</tspan>
        </text>
      </g>
      <text transform="matrix(1, 0, 0, 1, 610, 160.917)">
        <tspan x="-26.666" y="5" font-family="GillSans-Light" font-size="18" fill="#2F2215">votes: 1</tspan>
      </text>
    </g>
    <g>
      <path d="M710,196.193 C710,195.027 707.094,194.083 703.504,194.083 L516.496,194.083 C512.91,194.083 510,195.027 510,196.193 L510,256.971 C510,258.137 512.91,259.083 516.496,259.083 L703.504,259.083 C707.094,259.083 710,258.137 710,256.971 L710,196.193" fill="#818181"/>
      <text transform="matrix(1, -0, 0, 1, 610, 226.583)">
        <tspan x="-76.087" y="12" font-family="GillSans" font-size="36" fill="#FFFFFE">Secondary</tspan>
      </text>
      <text transform="matrix(1, 0, 0, 1, 610, 248.083)">
        <tspan x="-26.666" y="5" font-family="GillSans-Light" font-size="18" fill="#000000">votes: 0</tspan>
      </text>
    </g>
    <g>
      <path d="M470,196.193 C470,195.027 467.094,194.083 463.504,194.083 L276.496,194.083 C272.91,194.083 270,195.027 270,196.193 L270,256.971 C270,258.137 272.91,259.083 276.496,259.083 L463.504,259.083 C467.094,259.083 470,258.137 470,256.971 L470,196.193" fill="#818181"/>
      <text transform="matrix(1, -0, 0, 1, 370, 226.583)">
        <tspan x="-76.087" y="12" font-family="GillSans" font-size="36" fill="#FFFFFE">Secondary</tspan>
      </text>
      <text transform="matrix(1, 0, 0, 1, 370, 248.083)">
        <tspan x="-26.666" y="5" font-family="GillSans-Light" font-size="18" fill="#000000">votes: 0</tspan>
      </text>
    </g>
    <g>
      <g>
        <path d="M469,109.027 C469,107.862 466.094,106.917 462.504,106.917 L275.496,106.917 C271.91,106.917 269,107.862 269,109.027 L269,169.805 C269,170.971 271.91,171.917 275.496,171.917 L462.504,171.917 C466.094,171.917 469,170.971 469,169.805 L469,109.027" fill="#2A86C0"/>
        <text transform="matrix(1, 0, 0, 1, 369, 139.417)">
          <tspan x="-57.357" y="12" font-family="GillSans" font-size="36" fill="#FFFFFF">Primary</tspan>
        </text>
      </g>
      <text transform="matrix(1, 0, 0, 1, 369, 160.917)">
        <tspan x="-26.666" y="5" font-family="GillSans-Light" font-size="18" fill="#2F2215">votes: 1</tspan>
      </text>
    </g>
  </g>
  <defs/>
</svg>
