<svg xmlns="http://www.w3.org/2000/svg" width="660" height="500" fill="none"><path fill="#fff" d="M0 0h660v500H0z"/><path fill="#4F4C4B" d="M284.8 169.8h3v20.5h-3v-9h-11.5v9h-2.9v-20.5h3v8.8h11.4zm18.6 13.9h-9.5q.1 2 1.3 3.1 1.2 1.2 3 1.2 2.7 0 5-1.7v2.6q-1.3.9-2.5 1.2-1.2.4-2.8.4-2.199 0-3.6-1a6.37 6.37 0 0 1-2.2-2.4q-.9-1.6-.9-3.7 0-3 1.8-5 1.701-1.9 4.5-1.9 2.7 0 4.3 1.9t1.6 5zm-9.4-1.5h6.8q-.1-1.6-1-2.5-.8-.9-2.3-.9-1.4 0-2.3.9-.999.9-1.2 2.5m20.7 0v5.7q0 .7.5.7.501 0 1.5-.7v1.6q-.9.6-1.5.8-.5.2-1.1.2-1.7 0-2-1.4-1.7 1.4-3.6 1.4-1.4 0-2.4-1-1-.9-1-2.3 0-1.3 1-2.3t2.6-1.6l3.4-1.1v-.8q0-2.4-2.4-2.4-2.2 0-4.3 2.3v-3q1.6-1.8 4.5-1.8 2.2 0 3.5 1.2.4.3.8 1 .3.5.4 1.2zm-2.6 5.4v-4l-1.8.7q-1.3.5-2 1-.5.6-.5 1.4 0 .9.6 1.4.5.5 1.3.5 1.3 0 2.4-1m9.9-10.8v3l.1-.2q2.001-3 3.9-3 1.5 0 3.1 1.4l-1.4 2.4q-1.4-1.3-2.6-1.3-1.3 0-2.2 1.2-1 1.2-1 3v7h-2.6v-13.5zm7.7 2.2 5-5v2.8h4.3v2.4h-4.3v6.6q0 2.3 2 2.3 1.3 0 3-1v2.5q-1.6.9-3.4.9t-3-1l-.7-.8-.4-1q-.2-.7-.2-2.5v-6h-2.3v-.3zm11.8-9.2h2.6v8q1.8-1.3 3.7-1.3 2.601 0 4.2 2 1.7 1.9 1.7 4.9 0 3.2-2 5.2-2 1.9-5.2 1.9-1.299 0-2.7-.3-1.5-.3-2.3-.7zm2.6 10.5v7.3q1.4.4 2.8.4 1.8 0 3-1.3 1-1.2 1-3.2t-1-3.3q-.999-1.2-2.7-1.2-1.5 0-3 1.3zm23.9 3.4h-9.4q.1 2 1.3 3.1 1.2 1.2 3 1.2 2.7 0 5-1.7v2.6q-1.3.9-2.5 1.2-1.2.4-2.8.4-2.3 0-3.6-1a6.37 6.37 0 0 1-2.2-2.4q-.9-1.6-.9-3.7 0-3 1.8-5 1.701-1.9 4.5-1.9 2.7 0 4.3 1.9t1.6 5v.3zm-9.3-1.5h6.7q0-1.6-1-2.5-.8-.9-2.2-.9t-2.4.9q-.9.9-1.1 2.5m20.7 0v5.7q0 .7.5.7.501 0 1.5-.7v1.6l-1.5.8q-.5.2-1.1.2-1.7 0-2-1.4-1.7 1.4-3.7 1.4-1.4 0-2.3-1-1-.9-1-2.3 0-1.3 1-2.3.9-1 2.6-1.6l3.4-1.1v-.8q0-2.4-2.4-2.4-2.2 0-4.3 2.3v-3q1.6-1.8 4.5-1.8 2.2 0 3.5 1.2.4.3.8 1 .3.5.4 1.2zm-2.6 5.4v-4l-1.8.7q-1.4.5-2 1-.5.6-.5 1.4 0 .9.5 1.4.6.5 1.4.5 1.3 0 2.4-1m5.1-8.6 5-5v2.8h4.3v2.4h-4.3v6.6q0 2.3 2 2.3 1.401 0 3-1v2.5q-1.6.9-3.4.9t-3-1l-.7-.8-.4-1q-.2-.7-.2-2.5v-6H382v-.3z"/><path stroke="#4F4C4B" stroke-width="4" d="M256.102 195.6h147.7"/><path fill="#4F4C4B" stroke="#4F4C4B" stroke-width="4" d="m256.101 190.8-12.8 4.8 12.8 4.8zm147.8 9.6 12.8-4.8-12.8-4.8z"/><path stroke="#D33907" stroke-dasharray="4 4" stroke-width="2" d="M10.3 142.4h639.001v85.1h-639z"/><path stroke="#301E13" stroke-width="10" d="M330 240.8v54.8"/><path fill="#301E13" stroke="#301E13" stroke-width="10" d="M321.6 295.6 330 318l8.4-22.4z"/><path fill="#301E13" d="M145.301 109.7h14v3.1h-10.5v7.5h10v3.1h-10v7.7h10.7v3.1h-14.2zm17.7 0h3.1v24.5h-3.1zm21.6 16.7h-11.4q.099 2.4 1.5 3.7 1.5 1.4 3.8 1.4 3.1 0 5.8-2v3.2q-1.5 1-3 1.4-1.401.4-3.3.4-2.7 0-4.4-1.1-1.6-1.101-2.6-3t-1-4.3q0-3.7 2.1-6 2-2.3 5.4-2.3 3.2 0 5.2 2.2 1.9 2.3 1.9 6zm-11.3-1.9h8.1q-.1-1.9-1.1-3-1-1-2.8-1-1.7 0-2.8 1-1 1.1-1.4 3m26.9 6v3.1q-2.5 1-4.8 1-3.801 0-6-2.3-2.3-2.301-2.3-6 0-3.9 2.2-6.2t5.8-2.3q1.3 0 2.2.2 1 .2 2.5.9v3.4q-2.4-1.6-4.5-1.6-2.2 0-3.6 1.6-1.3 1.5-1.3 3.8 0 2.5 1.5 4 1.5 1.4 4 1.4 1.9 0 4.3-1m1.3-9.9 6-5.9v3.4h5.1v2.9h-5v7.9q0 2.8 2.2 2.8 1.7 0 3.7-1.2v3a8.5 8.5 0 0 1-4 1q-2.3 0-3.7-1.3-.5-.3-.8-.8t-.5-1.3-.2-3V121h-2.8zm15.9-9.3q.8 0 1.4.5.6.6.6 1.3 0 .8-.6 1.4-.6.5-1.4.5-.7 0-1.3-.5-.5-.6-.5-1.4 0-.7.5-1.3.6-.5 1.3-.5m-1.4 6.7h3.2v16.1h-3.2zm15.4 0q3.7 0 6.1 2.4 2.5 2.4 2.5 6 0 3.5-2.5 5.8t-6.2 2.3-6.1-2.3q-2.5-2.4-2.5-5.9t2.5-5.9 6.2-2.4m-.2 3q-2.3 0-3.8 1.4-1.4 1.5-1.4 3.9 0 2.3 1.5 3.8 1.5 1.4 3.9 1.4 2.3 0 3.8-1.4 1.5-1.5 1.5-3.9 0-2.3-1.5-3.8-1.6-1.5-4-1.5zm15.5-3v2.1q2.1-2.3 4.9-2.3 1.5 0 2.8.7a5.3 5.3 0 0 1 2 2.2q.6 1.3.6 4.3v9.2h-3.2V125q0-2.4-.7-3.5-.8-1-2.6-1-2.2 0-3.8 2.2v11.5h-3.3v-16.1h3.3zm25.2 0v-.9q0-3.9 1.6-5.8 1.7-2 4-2 .999 0 2.4.4v3.1q-.801-.3-1.5-.3-1.9 0-2.6 1-.7.999-.7 3.6v1h2.8v2.9h-2.8v13.2h-3.2V121h-2.4v-3zm16 0q3.7 0 6.1 2.4t2.4 6q0 3.5-2.4 5.8-2.5 2.3-6.3 2.3-3.6 0-6-2.3-2.5-2.4-2.5-5.9t2.5-5.9q2.4-2.4 6.2-2.4m-.2 3q-2.3 0-3.8 1.4-1.5 1.5-1.5 3.9 0 2.3 1.5 3.8 1.6 1.4 4 1.4 2.3 0 3.8-1.4 1.5-1.5 1.5-3.9 0-2.3-1.6-3.8-1.5-1.5-4-1.5zm15.7-3v3.8l.2-.3q2.3-3.7 4.6-3.7 1.8 0 3.8 1.8l-1.7 2.8q-1.7-1.6-3.1-1.6-1.5 0-2.7 1.5-1.1 1.5-1.1 3.5v8.4h-3.2v-16.1h3.2zm40.8-8.3h3.3v24.5h-3l-16.5-18.9v19h-3.3v-24.6h2.8l16.6 19v-19zm21.9 16.7h-11.4q.2 2.4 1.6 3.7 1.4 1.4 3.7 1.4 3.2 0 5.8-2v3.2q-1.4 1-2.9 1.4-1.4.4-3.4.4-2.7 0-4.3-1.1-1.701-1.101-2.7-3t-1-4.3q0-3.7 2.1-6t5.5-2.3q3.2 0 5.1 2.2 2 2.3 2 6v.4zm-11.3-1.9h8.2q-.201-1.9-1.2-3-1-1-2.7-1t-2.9 1q-1 1.1-1.4 3m34.4-6.5h3.4l-7.1 16.5h-1l-4.8-11.2-4.7 11.2h-1l-7.3-16.4h3.5l4.2 9.8 4.1-9.8h2.4l4 9.8 4.3-9.8zm15.9 16.2v-24.6h7.8q3.5 0 5.6 2 2.1 1.8 2.1 5 0 2.2-1 3.8a5.93 5.93 0 0 1-3 2.4q-1.9.8-5.4.8h-2.6v10.6zm7.2-21.4h-3.7v7.7h3.9q2.1 0 3.3-1t1.2-3q0-3.7-4.7-3.7m14.3 5.2v3.8l.2-.3q2.3-3.7 4.7-3.7 1.8 0 3.7 1.8l-1.6 2.8q-1.7-1.6-3.1-1.6-1.6 0-2.7 1.5-1.2 1.5-1.2 3.5v8.4h-3.2v-16.1h3.2zm12.5-6.7q.8 0 1.4.5.6.6.6 1.3 0 .8-.6 1.4-.6.5-1.4.5-.7 0-1.3-.5-.5-.6-.5-1.4 0-.7.5-1.3.6-.5 1.3-.5m-1.5 6.8h3.2v16.1h-3.2zm21 4.4v11.7h-3.2v-9q0-2.6-.7-3.7-.7-1-2.5-1-1 0-1.9.4-.8.4-1.9 1.6v11.7h-3.2v-16.1h3.2v2.1q2.499-2.4 4.8-2.4 3 0 4.8 2.9 2.5-3 5.3-3 2.4 0 3.9 1.7 1.5 1.8 1.5 5.3v9.5h-3.2v-9.5q0-2-.8-3.1-.801-1.1-2.4-1.1-2 0-3.7 2m24.6 2v6.9q0 .8.6.8t1.8-.8v2l-1.8.9a4.1 4.1 0 0 1-1.3.2q-2 0-2.5-1.6-2 1.6-4.3 1.6-1.7 0-2.8-1.1t-1.1-2.8q0-1.6 1-2.8 1.2-1.2 3.2-1.9l4-1.4v-.8q0-3-2.8-3-2.7 0-5.1 2.7V120q1.8-2.1 5.3-2.1 2.6 0 4.2 1.3.6.5 1 1.2.4.699.5 1.5l.1 2.7zm-3.1 6.5v-4.8l-2.2.9q-1.6.6-2.3 1.3-.7.6-.7 1.6t.7 1.7q.6.6 1.7.6 1.5 0 2.8-1.3m11.8-13v3.8l.2-.3q2.3-3.7 4.6-3.7 1.8 0 3.8 1.8l-1.7 2.8q-1.701-1.6-3-1.6-1.6 0-2.8 1.5-1.1 1.5-1.1 3.5v8.4h-3.2v-16.1h3.2zm21.8 0h3.6l-11.4 24.5h-3.6l5.5-11.7-6.3-12.7h3.7l4.3 9 4.2-9z"/><path stroke="#2A86C0" stroke-width="9" d="m230.699 431.3 166.9-.3"/><path fill="#2A86C0" stroke="#2A86C0" stroke-width="9" d="m397.6 438.8 20.8-7.8-20.8-7.8z"/><path fill="#2A86C0" d="M259 422.8v-20.4h5.1q3.1 0 5 1.5 1.8 1.5 1.8 4.2 0 1.8-1 3-.8 1.4-2.5 2 1 .7 2 1.8.9 1 2.6 3.8 1 1.8 1.7 2.7l1 1.4h-3.4l-1-1.3v-.3l-.7-.8-.9-1.5-1-1.6-1.6-2q-.8-.7-1.4-1-.6-.4-2-.4h-.8v9h-3zm3.8-18h-.9v6.5h1.1q2.301 0 3-.4 1-.3 1.4-1.1t.4-1.8-.5-1.7q-.5-.8-1.4-1.1-1-.3-3.1-.3zm25.4 11.5h-9.5q.1 2 1.3 3.1t3 1.1q2.7 0 5-1.6v2.6q-1.3.801-2.5 1.2-1.2.3-2.8.3-2.199 0-3.6-.9a7.2 7.2 0 0 1-2.2-2.5q-.9-1.5-.9-3.6 0-3 1.8-5 1.701-2 4.5-2 2.7 0 4.3 2 1.6 1.8 1.6 5zm-9.4-1.6h6.7q0-1.599-.9-2.4-.9-.9-2.3-.9t-2.3.9q-.999.801-1.2 2.4m12.1 15v-20.3h4.7q3.5 0 5.5 1.7 2 1.8 2 5 0 3-1.8 5-2 2-4.8 2-1.3 0-2.9-.6v7.2h-2.7m4.6-17.9h-1.9v8.3q1.2.7 2.6.7 1.9 0 3-1.3 1.2-1.3 1.2-3.4 0-1.3-.5-2.3a3.85 3.85 0 0 0-1.6-1.5q-1-.5-2.8-.5m10.6-9.4h2.7v20.4H306v-20.4zm7.9 1.3q.7 0 1.2.4.5.501.5 1.2 0 .6-.5 1-.5.5-1.1.5-.7 0-1.1-.4-.5-.5-.5-1.1 0-.7.5-1.1.4-.5 1-.5m-1.3 5.7h2.7v13.4h-2.7zm16.6 10.3v2.6q-2 .8-3.9.8-3.1 0-5-2-2-1.8-2-5 0-3.1 2-5 1.8-2 4.7-2 1 0 1.9.2l2 .7v2.9q-2-1.3-3.7-1.3-1.8 0-3 1.3-1.1 1.2-1.1 3.2t1.2 3.3q1.3 1.2 3.4 1.2 1.6 0 3.5-1zm11.5-5v5.8q0 .6.5.6.501 0 1.5-.7v1.7l-1.5.7q-.5.3-1.1.3-1.7 0-2-1.4-1.7 1.3-3.6 1.3-1.4 0-2.4-.9-1-1-1-2.3t1-2.3 2.6-1.6l3.4-1.2v-.7q0-2.4-2.4-2.4-2.2 0-4.3 2.2V411q1.6-1.8 4.5-1.8 2.2 0 3.5 1.1l.8 1 .4 1.2.1 2.3zm-2.6 5.5v-4l-1.8.7q-1.3.5-2 1-.5.6-.5 1.4 0 .9.6 1.4.5.5 1.4.5 1.2 0 2.3-1m5.1-8.7 5-5v2.9h4.3v2.4h-4.3v6.6q0 2.3 2 2.3 1.401 0 3-1v2.5q-1.6.9-3.4.9t-3-1.1l-.7-.7-.4-1-.1-2.6v-6h-2.4zm13.3-7.8q.7 0 1.1.4.5.501.5 1.2 0 .6-.5 1-.4.5-1.1.5-.6 0-1-.4-.6-.5-.6-1.1 0-.7.5-1.1.5-.5 1-.5zm-1.3 5.7h2.6v13.4h-2.6zm12.9-.1q3.1 0 5.1 2t2 5-2 4.8q-2 2-5.2 2-3 0-5-2-2.1-2-2.1-4.9 0-3 2-4.9 2.1-2 5.2-2m-.1 2.4q-2 0-3.2 1.3-1.2 1.2-1.2 3.2t1.3 3.2q1.2 1.2 3.2 1.2t3.2-1.3q1.3-1.2 1.3-3.1 0-2-1.3-3.2-1.299-1.3-3.3-1.3m12.9-2.3v1.7q1.8-2 4-2 1.3 0 2.4.7 1 .6 1.6 1.7.6 1.2.6 3.6v7.7h-2.7v-7.6q0-2.1-.6-3t-2.1-.9q-2 0-3.2 2v9.5h-2.8v-13.4z"/><path fill="#301E13" d="M196.3 355.2h3.3v24.6h-3l-16.4-19v19h-3.3v-24.6h2.8l16.6 19zm21.9 16.8h-11.4q.2 2.3 1.6 3.7 1.4 1.3 3.7 1.3 3.2 0 5.8-2v3.2q-1.4 1-2.9 1.4-1.4.4-3.4.4-2.7 0-4.3-1a8.96 8.96 0 0 1-2.7-3q-1-2-1-4.4 0-3.699 2.1-6 2.1-2.3 5.5-2.3 3.201 0 5.1 2.2 2 2.301 2 6v.5zm-11.3-2h8.2q-.2-1.9-1.2-2.9-.999-1-2.7-1-1.8 0-2.9 1-1 1-1.4 3zm34.4-6.4h3.4l-7.1 16.5h-1l-4.8-11.3-4.7 11.3h-1l-7.3-16.5h3.5l4.2 9.8 4.1-9.8h2.4l4 9.8zm15.9 16.2v-24.6h7.8q3.5 0 5.6 1.9t2.1 5q0 2.2-1 3.9-1.1 1.6-3 2.4-1.899.7-5.4.7h-2.6v10.7zm7.2-21.5h-3.7v7.7h3.9q2.1 0 3.3-1t1.2-2.9q0-3.8-4.7-3.8m14.3 5.3v3.7l.2-.3q2.3-3.7 4.7-3.7 1.8 0 3.7 1.8l-1.6 2.8q-1.7-1.5-3.1-1.5-1.599 0-2.7 1.4-1.2 1.5-1.2 3.5v8.5h-3.2v-16.2zm12.5-6.8q.8 0 1.4.6.6.5.6 1.3t-.6 1.3q-.6.6-1.4.6-.7 0-1.3-.6-.5-.6-.5-1.3t.5-1.3q.6-.6 1.3-.6m-1.5 6.8h3.2v16.2h-3.2zm21 4.4v11.8h-3.2v-9q0-2.7-.7-3.8-.7-1-2.5-1-1 0-1.9.4-.8.5-1.9 1.6v11.8h-3.2v-16.2h3.2v2.1q2.5-2.4 4.8-2.4 3 0 4.8 3 2.5-3 5.3-3 2.4 0 3.9 1.7t1.5 5.2v9.6h-3.2v-9.6q0-2-.8-3-.8-1.2-2.4-1.2-2 0-3.7 2m24.6 2v7q0 .8.6.8t1.8-.9v2q-.999.7-1.8.9-.6.3-1.3.3-2 0-2.5-1.7-2 1.6-4.3 1.6-1.7 0-2.8-1-1.1-1.2-1.1-2.9 0-1.5 1-2.7 1.2-1.2 3.2-2l4-1.3v-.9q0-3-2.8-3-2.7 0-5.1 2.8v-3.5q1.8-2.2 5.3-2.2 2.601 0 4.2 1.4.6.4 1 1.1.4.801.5 1.5l.1 2.8zm-3.1 6.6v-4.8l-2.2.8q-1.6.7-2.3 1.3a2.32 2.32 0 0 0-.7 1.7q0 1 .7 1.6.6.6 1.6.6 1.6 0 2.9-1.2m11.8-13v3.7l.2-.3q2.3-3.7 4.6-3.7 1.8 0 3.8 1.8l-1.7 2.8q-1.7-1.5-3-1.5-1.6 0-2.8 1.4-1.1 1.5-1.1 3.5v8.5h-3.2v-16.2zm21.8 0h3.6L357.9 388h-3.5l5.5-11.7-6.3-12.7h3.7l4.3 9.1 4.2-9zm16.2-8.4h14v3.2h-10.4v7.4h10v3.2h-10v7.6h10.7v3.1h-14.2v-24.5zm17.7 0h3.2v24.6h-3.2zm21.7 16.8H410q.1 2.3 1.5 3.7 1.5 1.3 3.7 1.3 3.2 0 5.9-2v3.2q-1.5 1-3 1.4-1.4.4-3.4.4-2.6 0-4.3-1a9.4 9.4 0 0 1-2.6-3q-1-2-1-4.4 0-3.699 2-6 2.2-2.3 5.5-2.3 3.201 0 5.1 2.2 2 2.301 2 6zm-11.3-2h8q0-1.9-1-2.9t-2.8-1q-1.7 0-2.8 1t-1.4 3zm26.9 6v3.2q-2.499.9-4.8.9-3.8 0-6-2.3-2.3-2.199-2.3-6 0-3.8 2.2-6.2 2.2-2.3 5.8-2.3 1.2 0 2.2.2l2.5 1v3.3q-2.4-1.5-4.5-1.5-2.199 0-3.6 1.5-1.4 1.5-1.4 3.9 0 2.5 1.5 4 1.5 1.4 4 1.4 2 0 4.3-1zm1.3-9.8 6-6v3.4h5.1v2.9h-5.1v8q0 2.7 2.3 2.7 1.701 0 3.6-1.2v3q-1.8 1-4 1-2.199 0-3.6-1.2a3.4 3.4 0 0 1-.8-.9l-.5-1.2q-.2-.8-.2-3v-7.2h-2.8zm28.1 5.8H455q.1 2.3 1.5 3.7 1.5 1.3 3.7 1.3 3.2 0 5.9-2v3.2q-1.5 1-3 1.4-1.4.4-3.4.4-2.6 0-4.3-1a9.4 9.4 0 0 1-2.6-3q-1-2-1-4.4 0-3.699 2-6 2.2-2.3 5.5-2.3 3.201 0 5.1 2.2 2 2.301 2 6zm-11.3-2h8q0-1.9-1-2.9t-2.8-1q-1.7 0-2.8 1t-1.4 3zm25.5-14.8h3.2v24.6H477q-3.6 0-5.8-2.3-2-2.3-2-6 0-3.6 2.1-6 2.3-2.2 5.8-2.2 1.6 0 3.5.6zm0 21.8v-10.2q-1.5-.8-3-.8-2.4 0-3.8 1.6-1.5 1.6-1.5 4.2 0 2.5 1.3 3.9.7.8 1.5 1 .9.3 3 .3z"/><path fill="#5CA831" d="M225 154.9c0-1.2-3-2.1-6.5-2.1h-187c-3.6 0-6.5.9-6.5 2v60.8c0 1.2 3 2.2 6.5 2.2h187c3.6 0 6.5-1 6.5-2.2V155"/><path fill="#FFFFFE" d="m57.7 187.2-2.7-1.6q-2.499-1.6-3.6-3-1-1.5-1-3.5 0-2.9 2-4.7t5.2-1.8a10.2 10.2 0 0 1 5.7 1.7v4q-2.7-2.5-5.7-2.5-1.8 0-2.9.8-1 .8-1 2 0 1.1.7 2.1.801 1 2.7 2l2.6 1.6q4.5 2.7 4.5 6.8 0 3-2 4.8-2 1.9-5 1.9-3.7 0-6.7-2.3v-4.4q2.8 3.6 6.6 3.6 1.6 0 2.7-1 1.1-.9 1.1-2.3 0-2.2-3.2-4.2m23.8 2.5H70q.1 2.3 1.6 3.7 1.4 1.4 3.7 1.4 3.1 0 5.8-2v3.1q-1.5 1-3 1.4-1.4.4-3.3.4-2.7 0-4.3-1a8.95 8.95 0 0 1-2.7-3q-1-2-1-4.4 0-3.7 2.1-6t5.4-2.3 5.2 2.3q1.9 2.199 1.9 6v.4zm-11.3-2h8.1q-.1-1.8-1.1-2.9-1-1-2.8-1-1.7 0-2.8 1-1 .999-1.4 3zm26.8 6v3.2q-2.3.9-4.7.9-3.699 0-6-2.3-2.3-2.2-2.3-6t2.2-6.2q2.2-2.3 5.8-2.3 1.3 0 2.2.3 1 .2 2.5.8v3.4q-2.4-1.5-4.5-1.5-2.2 0-3.5 1.5-1.4 1.5-1.4 3.9 0 2.5 1.5 4 1.5 1.4 4 1.4 1.9 0 4.3-1zm11.4-12.4q3.7 0 6.1 2.4 2.5 2.4 2.5 6 0 3.5-2.5 5.8t-6.2 2.3-6.1-2.4q-2.5-2.3-2.5-5.8 0-3.6 2.5-6 2.5-2.3 6.2-2.3m-.2 2.9q-2.3 0-3.7 1.5-1.5 1.5-1.5 3.8 0 2.4 1.5 3.8 1.5 1.5 3.9 1.5 2.3 0 3.8-1.5t1.5-3.8-1.5-3.8q-1.6-1.5-4-1.5m15.5-2.9v2q2.2-2.3 4.9-2.3 1.5 0 2.8.8a5.5 5.5 0 0 1 2 2.1q.6 1.4.6 4.3v9.3h-3.2v-9.2q0-2.5-.7-3.5-.8-1.1-2.5-1.1-2.3 0-3.9 2.2v11.6h-3.3v-16.2zm25.6-8.3h3.2v24.5h-6.8q-3.6 0-5.7-2.3-2.2-2.2-2.2-6 0-3.6 2.3-6 2.2-2.2 5.7-2.2 1.6 0 3.5.7v-8.8zm0 21.8v-10.3q-1.5-.8-3-.8-2.4 0-3.8 1.6-1.4 1.599-1.4 4.2 0 2.499 1.2 3.9.7.8 1.6 1 .801.4 3 .4zm17.7-7v6.8q0 .9.6.9t1.8-.9v2l-1.8 1q-.6.2-1.3.2-2 0-2.5-1.6-2 1.5-4.3 1.5-1.7 0-2.8-1-1.1-1.2-1.1-2.9 0-1.5 1-2.7 1.2-1.2 3.2-2l4-1.3v-.9q0-3-2.8-3-2.7 0-5.1 2.8v-3.5q1.8-2.2 5.3-2.2 2.601 0 4.2 1.4.5.399 1 1.2.4.7.5 1.4zm-3.1 6.5v-4.8l-2.2.8q-1.6.7-2.3 1.3a2.32 2.32 0 0 0-.7 1.7q0 1 .7 1.6.6.6 1.6.6 1.6 0 2.9-1.2m11.8-13v3.7l.2-.2q2.3-3.8 4.6-3.8 1.8 0 3.8 1.8l-1.7 2.8q-1.7-1.5-3.1-1.5-1.5 0-2.7 1.4-1.1 1.5-1.1 3.5v8.5h-3.2v-16.2zm21.8 0h3.6l-11.5 24.4h-3.5l5.5-11.7-6.3-12.7h3.7l4.3 9.1 4.2-9z"/><path fill="#5CA831" d="M636 154.9c0-1.2-3-2.1-6.5-2.1h-187c-3.6 0-6.5.9-6.5 2v60.8c0 1.2 3 2.2 6.5 2.2h187c3.6 0 6.5-1 6.5-2.2V155"/><path fill="#FFFFFE" d="m468.7 187.2-2.7-1.6q-2.499-1.6-3.6-3-1-1.5-1-3.5 0-2.9 2-4.7t5.2-1.8q3.1 0 5.7 1.7v4q-2.7-2.5-5.7-2.5-1.8 0-2.9.8-1 .8-1 2 0 1.1.7 2.1.801 1 2.7 2l2.6 1.6q4.5 2.7 4.5 6.8 0 3-2 4.8-2 1.9-5 1.9-3.7 0-6.7-2.3v-4.4q2.8 3.6 6.6 3.6 1.6 0 2.7-1 1.1-.9 1.1-2.3 0-2.2-3.2-4.2m23.8 2.5H481q.1 2.3 1.6 3.7 1.4 1.4 3.7 1.4 3.1 0 5.8-2v3.1q-1.5 1-3 1.4-1.4.4-3.3.4-2.7 0-4.3-1a8.96 8.96 0 0 1-2.7-3q-1-2-1-4.4 0-3.7 2.1-6t5.4-2.3 5.2 2.3q1.9 2.199 1.9 6v.4zm-11.3-2h8.1q-.1-1.8-1.1-2.9-1-1-2.8-1-1.7 0-2.8 1-1 .999-1.4 3zm26.8 6v3.2q-2.3.9-4.7.9-3.699 0-6-2.3-2.3-2.2-2.3-6t2.2-6.2q2.2-2.3 5.8-2.3 1.3 0 2.2.3 1 .2 2.5.8v3.4q-2.4-1.5-4.5-1.5-2.2 0-3.5 1.5-1.4 1.5-1.4 3.9 0 2.5 1.5 4 1.5 1.4 4 1.4 1.9 0 4.3-1zm11.4-12.4q3.7 0 6.1 2.4 2.5 2.4 2.5 6 0 3.5-2.5 5.8t-6.2 2.3-6.1-2.4q-2.5-2.3-2.5-5.8 0-3.6 2.5-6 2.5-2.3 6.2-2.3m-.2 2.9q-2.3 0-3.7 1.5-1.5 1.5-1.5 3.8 0 2.4 1.5 3.8 1.5 1.5 3.9 1.5 2.3 0 3.8-1.5t1.5-3.8-1.5-3.8q-1.6-1.5-4-1.5m15.5-2.9v2q2.2-2.3 4.9-2.3 1.5 0 2.8.8a5.5 5.5 0 0 1 2 2.1q.6 1.4.6 4.3v9.3h-3.2v-9.2q0-2.5-.7-3.5-.8-1.1-2.5-1.1-2.3 0-3.9 2.2v11.6h-3.3v-16.2zm25.6-8.3h3.2v24.5h-6.8q-3.6 0-5.7-2.3-2.2-2.2-2.2-6 0-3.6 2.3-6 2.2-2.2 5.7-2.2 1.6 0 3.5.7v-8.8zm0 21.8v-10.3q-1.5-.8-3-.8-2.4 0-3.8 1.6-1.4 1.599-1.4 4.2 0 2.499 1.2 3.9.7.8 1.6 1 .801.4 3 .4zm17.7-7v6.8q0 .9.6.9t1.8-.9v2l-1.8 1q-.6.2-1.3.2-2 0-2.5-1.6-2 1.5-4.3 1.5-1.7 0-2.8-1-1.1-1.2-1.1-2.9 0-1.5 1-2.7 1.2-1.2 3.2-2l4-1.3v-.9q0-3-2.8-3-2.7 0-5.1 2.8v-3.5q1.8-2.2 5.3-2.2 2.601 0 4.2 1.4.5.399 1 1.2.4.7.5 1.4zm-3.1 6.5v-4.8l-2.2.8q-1.6.7-2.3 1.3a2.32 2.32 0 0 0-.7 1.7q0 1 .7 1.6.6.6 1.6.6 1.6 0 2.9-1.2m11.8-13v3.7l.2-.2q2.3-3.8 4.6-3.8 1.8 0 3.8 1.8l-1.7 2.8q-1.7-1.5-3.1-1.5-1.5 0-2.7 1.4-1.1 1.5-1.1 3.5v8.5h-3.2v-16.2zm21.8 0h3.6l-11.5 24.4h-3.5l5.5-11.7-6.3-12.7h3.7l4.3 9.1 4.2-9z"/><path fill="#5CA831" d="M636 408.1c0-1.2-3-2.1-6.5-2.1h-187c-3.6 0-6.5 1-6.5 2.1V469c0 1.2 3 2.1 6.5 2.1h187c3.6 0 6.5-1 6.5-2.1v-61"/><path fill="#FFFFFE" d="m468.7 440.4-2.7-1.6q-2.499-1.5-3.6-3-1-1.5-1-3.4 0-3 2-4.7 2-1.8 5.2-1.8 3.1 0 5.7 1.7v4q-2.7-2.6-5.7-2.6-1.8 0-2.9.8-1 .8-1 2t.7 2.2q.801 1 2.7 2l2.6 1.6q4.5 2.6 4.5 6.8 0 3-2 4.8t-5 1.8q-3.7 0-6.7-2.2v-4.5q2.8 3.6 6.6 3.6 1.6 0 2.7-.9 1.1-1 1.1-2.3 0-2.3-3.2-4.3m23.8 2.6H481q.1 2.301 1.6 3.6 1.4 1.4 3.7 1.4 3.1 0 5.8-2v3.2q-1.5 1-3 1.4-1.4.4-3.3.4-2.7 0-4.3-1.1-1.7-1.1-2.7-3t-1-4.3q0-3.699 2.1-6 2.1-2.3 5.4-2.3t5.2 2.2q1.9 2.301 1.9 6v.4zm-11.3-2h8.1q-.1-1.899-1.1-3-1-1-2.8-1-1.7 0-2.8 1-1 1.101-1.4 3m26.8 6v3.1q-2.3 1-4.7 1-3.699 0-6-2.3-2.3-2.3-2.3-6 0-3.9 2.2-6.2t5.8-2.3q1.3 0 2.2.2 1 .201 2.5.9v3.4q-2.4-1.6-4.5-1.6-2.2 0-3.5 1.6-1.4 1.5-1.4 3.8 0 2.5 1.5 4 1.5 1.4 4 1.4 1.9 0 4.3-1zm11.4-12.5q3.7 0 6.1 2.4 2.5 2.4 2.5 6 0 3.5-2.5 5.8t-6.2 2.3-6.1-2.3q-2.5-2.4-2.5-5.9t2.5-5.9 6.2-2.4m-.2 3q-2.3 0-3.7 1.4-1.5 1.5-1.5 3.9 0 2.3 1.5 3.8 1.5 1.4 3.9 1.4 2.3 0 3.8-1.4 1.5-1.5 1.5-3.9 0-2.3-1.5-3.8-1.6-1.5-4-1.5zm15.5-2.9v2q2.2-2.3 4.9-2.3 1.5 0 2.8.7a5.3 5.3 0 0 1 2 2.2q.6 1.3.6 4.3v9.2h-3.2v-9.2q0-2.4-.7-3.5-.8-1-2.5-1-2.3 0-3.9 2.2v11.5h-3.3v-16.1zm25.6-8.4h3.2v24.5h-6.8q-3.6 0-5.7-2.2-2.2-2.3-2.2-6.1 0-3.6 2.3-5.9 2.2-2.3 5.7-2.3 1.6 0 3.5.7zm0 21.8v-10.2q-1.5-.8-3-.8-2.4 0-3.8 1.6-1.4 1.5-1.4 4.2 0 2.5 1.2 3.8.7.8 1.6 1.1.801.3 3 .3zm17.7-7v6.9q0 .8.6.8t1.8-.8v2l-1.8.9q-.6.2-1.3.2-2 0-2.5-1.6-2 1.6-4.3 1.6-1.7 0-2.8-1.1t-1.1-2.8q0-1.6 1-2.8 1.2-1.2 3.2-1.9l4-1.4v-.8q0-3-2.8-3-2.7 0-5.1 2.7v-3.4q1.8-2.2 5.3-2.2 2.601 0 4.2 1.3l1 1.2q.4.7.5 1.5zm-3.1 6.5v-4.8l-2.2.9q-1.6.6-2.3 1.3-.7.6-.7 1.6t.7 1.7q.6.6 1.6.6 1.6 0 2.9-1.3m11.8-12.9v3.7l.2-.3q2.3-3.7 4.6-3.7 1.8 0 3.8 1.8l-1.7 2.8q-1.7-1.6-3.1-1.6-1.5 0-2.7 1.5-1.1 1.5-1.1 3.5v8.4h-3.2v-16.1zm21.8 0h3.6L600.6 459h-3.5l5.5-11.7-6.3-12.7h3.7l4.3 9z"/><path fill="#2A86C0" d="M225 408.1c0-1.2-3-2.1-6.5-2.1h-187c-3.6 0-6.5 1-6.5 2.1V469c0 1.2 3 2.1 6.5 2.1h187c3.6 0 6.5-1 6.5-2.1v-61"/><path fill="#fff" d="M70.2 450.5v-24.6h7.7q3.6 0 5.7 2 2 1.8 2 5 0 2.1-1 3.8a5.9 5.9 0 0 1-3 2.4q-1.8.7-5.3.7h-2.6v10.7zm7.1-21.5h-3.6v7.7h3.8q2.199 0 3.3-1 1.2-1 1.2-2.9 0-3.8-4.7-3.8m14.4 5.3v3.7l.2-.2q2.3-3.8 4.6-3.8 1.8 0 3.799 1.8l-1.7 2.9q-1.7-1.6-3.1-1.6-1.5 0-2.7 1.4-1.1 1.5-1.1 3.5v8.5h-3.2v-16.2zm12.499-6.8q.8 0 1.3.6.6.5.6 1.3t-.6 1.3q-.5.6-1.3.6t-1.3-.6q-.6-.5-.6-1.3 0-.7.6-1.3.5-.6 1.3-.6m-1.6 6.8h3.2v16.2h-3.2zm21.1 4.5v11.7h-3.3v-9q0-2.7-.7-3.7-.7-1.1-2.5-1.1-.999 0-1.8.4-.9.5-2 1.7v11.7h-3.1v-16.2h3.2v2.2q2.4-2.5 4.8-2.5 3 0 4.7 3 2.601-3 5.4-3 2.3 0 3.8 1.7 1.6 1.7 1.6 5.3v9.5h-3.2v-9.6q0-2-.9-3-.8-1.1-2.3-1.1-2 0-3.7 2m24.6 2v6.9q0 .8.5.8.6 0 1.8-.9v2l-1.7 1-1.4.2q-2 0-2.4-1.6-2 1.5-4.3 1.5-1.7 0-2.9-1-1-1.2-1-2.9 0-1.5 1-2.7 1.1-1.2 3.1-2l4.1-1.3v-.9q0-2.9-2.9-2.9-2.6 0-5 2.7v-3.5q1.8-2.2 5.3-2.2 2.601 0 4.2 1.4.5.4 1 1.2l.5 1.4v2.8zm-3.2 6.5v-4.8l-2.1.8q-1.7.7-2.3 1.3a2.32 2.32 0 0 0-.7 1.7q0 1 .6 1.6.7.6 1.7.6 1.5 0 2.8-1.2m11.9-13v3.7l.1-.2q2.3-3.8 4.7-3.8 1.8 0 3.7 1.8l-1.7 2.9q-1.599-1.6-3-1.6-1.599 0-2.7 1.4-1.2 1.5-1.2 3.5v8.5h-3.2v-16.2h3.3m21.7 0h3.6l-11.3 24.4h-3.6l5.5-11.7-6.2-12.7h3.6l4.4 9.2 4.1-9.2z"/><path fill="#2A86C0" d="M430 26.1c0-1.2-3-2.1-6.5-2.1h-187c-3.6 0-6.5 1-6.5 2.1V87c0 1.2 3 2.1 6.5 2.1h187c3.6 0 6.5-1 6.5-2.1V26"/><path fill="#fff" d="M275.199 68.5V43.9h7.7q3.6 0 5.7 2 2 1.8 2 5 0 2.1-1 3.8a5.92 5.92 0 0 1-3 2.4q-1.8.7-5.3.7h-2.6v10.7zm7.1-21.5h-3.6v7.7h3.8q2.2 0 3.3-1 1.2-1 1.2-2.9 0-3.8-4.7-3.8m14.4 5.3V56l.2-.2q2.3-3.8 4.6-3.8 1.8 0 3.8 1.8l-1.7 2.9q-1.7-1.6-3.1-1.6-1.5 0-2.7 1.4-1.1 1.5-1.1 3.5v8.5h-3.2V52.3zm12.5-6.8q.8 0 1.3.6.6.5.6 1.3t-.6 1.3q-.5.6-1.3.6t-1.3-.6q-.6-.5-.6-1.3 0-.7.6-1.3.5-.6 1.3-.6m-1.6 6.8h3.2v16.2h-3.2zm21.1 4.5v11.7h-3.3v-9q0-2.7-.7-3.7-.7-1.1-2.5-1.1-.999 0-1.8.4-.9.5-2 1.7v11.7h-3.1V52.3h3.2v2.2q2.4-2.5 4.8-2.5 3 0 4.7 3 2.601-3 5.4-3 2.3 0 3.8 1.7 1.6 1.7 1.6 5.3v9.5h-3.2v-9.6q0-2-.9-3-.8-1.1-2.3-1.1-2 0-3.7 2m24.6 2v6.9q0 .8.5.8.6 0 1.8-.9v2l-1.7 1-1.4.2q-2 0-2.4-1.6-2 1.5-4.3 1.5-1.7 0-2.9-1-1-1.2-1-2.9 0-1.5 1-2.7 1.1-1.2 3.1-2l4.1-1.3v-.9q0-2.9-2.9-2.9-2.6 0-5 2.7v-3.5q1.8-2.2 5.3-2.2 2.601 0 4.2 1.4.5.4 1 1.2l.5 1.4v2.8zm-3.2 6.5v-4.8l-2.1.8q-1.7.7-2.3 1.3a2.32 2.32 0 0 0-.7 1.7q0 1 .6 1.6.7.6 1.7.6 1.5 0 2.8-1.2m11.9-13V56l.1-.2q2.3-3.8 4.7-3.8 1.8 0 3.7 1.8l-1.7 2.9q-1.599-1.6-3-1.6-1.599 0-2.7 1.4-1.2 1.5-1.2 3.5v8.5h-3.2V52.3h3.3m21.7 0h3.6l-11.3 24.4h-3.6l5.5-11.7-6.2-12.7h3.6l4.4 9.2 4.1-9.2z"/><path stroke="#D33907" stroke-dasharray="4 4" stroke-width="2" d="M10.3 394.9h639.001V480h-639z"/><path fill="#4F4C4B" d="M284.8 441.5h3V462h-3v-9h-11.5v9h-2.9v-20.5h3v8.9h11.4zm18.6 14h-9.5q.1 2 1.3 3 1.2 1.2 3 1.2 2.7 0 5-1.6v2.6q-1.3.8-2.5 1.2-1.2.3-2.8.3-2.199 0-3.6-1-1.4-.8-2.2-2.4-.9-1.6-.9-3.6 0-3 1.8-5 1.701-2 4.5-2 2.7 0 4.3 2 1.6 1.8 1.6 5zm-9.4-1.6h6.8q-.1-1.6-1-2.5-.8-.8-2.3-.8-1.4 0-2.3.8-.999.9-1.2 2.5m20.7 0v5.7q0 .7.5.7.501 0 1.5-.7v1.6q-.9.6-1.5.8-.5.2-1.1.2-1.7 0-2-1.3-1.7 1.3-3.6 1.3-1.4 0-2.4-1-1-.9-1-2.3 0-1.2 1-2.2t2.6-1.6l3.4-1.2v-.7q0-2.5-2.4-2.5-2.2 0-4.3 2.3v-3q1.6-1.7 4.5-1.7 2.2 0 3.5 1.1l.8 1 .4 1.2zm-2.6 5.4v-4l-1.8.7q-1.3.6-2 1.1-.5.6-.5 1.4t.6 1.3q.5.6 1.3.6 1.3 0 2.4-1zm9.9-10.8v3.1l.1-.2q2.001-3.1 3.9-3.1 1.5 0 3.1 1.5l-1.4 2.3q-1.4-1.3-2.6-1.3-1.3 0-2.2 1.2-1 1.3-1 3v7h-2.6v-13.5zm7.7 2.2 5-5v2.8h4.3v2.4h-4.3v6.6q0 2.3 2 2.3 1.3 0 3-1v2.6q-1.6.8-3.4.8t-3-1l-.7-.8-.4-1q-.2-.7-.2-2.5v-6h-2.3zm11.8-9.2h2.6v8q1.8-1.3 3.7-1.3 2.601 0 4.2 2 1.7 1.9 1.7 5 0 3.2-2 5.1-2 2-5.2 2-1.299 0-2.7-.3-1.5-.3-2.3-.7zM344 452v7.3q1.4.4 2.8.4 1.8 0 3-1.2 1-1.3 1-3.3t-1-3.2q-.999-1.3-2.7-1.3-1.5 0-3 1.3zm24 3.5h-9.4q.1 2 1.3 3 1.2 1.2 3 1.2 2.7 0 5-1.6v2.6q-1.3.8-2.5 1.2-1.2.3-2.8.3-2.3 0-3.6-1-1.4-.8-2.2-2.4-.9-1.6-.9-3.6 0-3 1.8-5 1.701-2 4.5-2 2.7 0 4.3 2 1.6 1.8 1.6 5v.3zm-9.3-1.6h6.7q0-1.6-1-2.5-.8-.8-2.2-.8t-2.4.8q-.9.9-1.1 2.5m20.7 0v5.7q0 .7.5.7.501 0 1.5-.7v1.6l-1.5.8q-.5.2-1.1.2-1.7 0-2-1.3-1.7 1.3-3.7 1.3-1.4 0-2.3-1-1-.9-1-2.3 0-1.2 1-2.2.9-1 2.6-1.6l3.4-1.2v-.7q0-2.5-2.4-2.5-2.2 0-4.3 2.3v-3q1.6-1.7 4.5-1.7 2.2 0 3.5 1.1l.8 1 .4 1.2zm-2.6 5.4v-4l-1.8.7q-1.4.6-2 1.1-.5.6-.5 1.4t.5 1.3q.6.6 1.4.6 1.3 0 2.4-1zm5.1-8.6 5-5v2.8h4.3v2.4h-4.3v6.6q0 2.3 2 2.3 1.401 0 3-1v2.6q-1.6.8-3.4.8t-3-1l-.7-.8-.4-1q-.2-.7-.2-2.5v-6H382v-.2z"/><path stroke="#4F4C4B" stroke-width="4" d="M256.102 467.3h147.7"/><path fill="#4F4C4B" stroke="#4F4C4B" stroke-width="4" d="m256.101 462.5-12.8 4.8 12.8 4.8zm147.8 9.6 12.8-4.8-12.8-4.8z"/><path stroke="#AB2B1F" stroke-width="10" d="m227.9 12 204.5 89.2m-204.9-.2L432 11.7"/></svg>