<?xml version="1.0" encoding="UTF-8"?>
<!DOCTYPE svg PUBLIC "-//W3C//DTD SVG 1.1//EN" "http://www.w3.org/Graphics/SVG/1.1/DTD/svg11.dtd">
<svg version="1.1" xmlns="http://www.w3.org/2000/svg" xmlns:xlink="http://www.w3.org/1999/xlink" x="0px" y="0px" width="620" height="507" viewBox="0, 0, 620, 507">
  <g id="Layer 1">
    <g>
      <text transform="matrix(1, 0, -0, 1, 303.491, 269)">
        <tspan x="-57.453" y="12" font-family="GillSans" font-size="36" fill="#FFFFFE">P</tspan>
        <tspan x="-40.117" y="12" font-family="GillSans" font-size="36" fill="#FFFFFE">rimary</tspan>
      </text>
      <path d="M151.82,106.188 C151.82,108.374 152.93,110.146 154.3,110.146 L456.776,110.146 C458.146,110.146 459.256,108.374 459.256,106.188 L459.256,14.103 C459.256,11.917 458.146,10.145 456.776,10.145 L154.3,10.145 C152.93,10.145 151.82,11.917 151.82,14.103 L151.82,106.188" fill="#484743"/>
      <text transform="matrix(1, 0, -0, 1, 305.538, 33.829)">
        <tspan x="-129.088" y="12" font-family="GillSans" font-size="36" fill="#FFFFFE">Client</tspan>
        <tspan x="-40.582" y="12" font-family="GillSans" font-size="36" fill="#FFFFFE"> </tspan>
        <tspan x="-35.584" y="12" font-family="GillSans" font-size="36" fill="#FFFFFE">Application</tspan>
      </text>
      <path d="M151.82,59.865 L459.256,59.865" fill-opacity="0" stroke="#ECEBE9" stroke-width="1"/>
      <text transform="matrix(1, 0, -0, 1, 305.538, 85.828)">
        <tspan x="-47.848" y="12" font-family="GillSans" font-size="36" fill="#FFFFFE">Driver</tspan>
      </text>
      <text transform="matrix(1, -0.002, 0.002, 1, 249.686, 134.877)">
        <tspan x="-42.285" y="10" font-family="GillSans" font-size="30" fill="#2A86C0">W</tspan>
        <tspan x="-12.075" y="10" font-family="GillSans" font-size="30" fill="#2A86C0">rites</tspan>
      </text>
      <text transform="matrix(1, 0, -0, 1, 367.962, 134.949)">
        <tspan x="-36.064" y="10" font-family="GillSans" font-size="30" fill="#484743">Reads</tspan>
      </text>
      <g>
        <text transform="matrix(0.766, -0.643, 0.643, 0.766, 186.838, 348.454)">
          <tspan x="-53.883" y="7.5" font-family="GillSans" font-size="24" fill="#2A86C0">Replication</tspan>
        </text>
        <g>
          <path d="M239.943,324.252 L148.873,400.669" fill-opacity="0" stroke="#2A86C0" stroke-width="8"/>
          <path d="M144.245,395.154 L134.165,413.011 L153.501,406.185 z" fill="#2A86C0" fill-opacity="1" stroke="#2A86C0" stroke-width="8" stroke-opacity="1"/>
        </g>
      </g>
      <g>
        <path d="M250.153,146.949 L250.141,217.749" fill-opacity="0" stroke="#2A86C0" stroke-width="5"/>
        <path d="M244.741,217.748 L250.138,232.148 L255.541,217.749 z" fill="#2A86C0" fill-opacity="1" stroke="#2A86C0" stroke-width="5" stroke-opacity="1"/>
      </g>
      <g>
        <path d="M369.969,146.949 L369.957,217.749" fill-opacity="0" stroke="#484743" stroke-width="5"/>
        <path d="M364.557,217.748 L369.954,232.148 L375.357,217.749 z" fill="#484743" fill-opacity="1" stroke="#484743" stroke-width="5" stroke-opacity="1"/>
      </g>
      <g>
        <path d="M410.138,243.558 C410.138,242.393 407.232,241.448 403.642,241.448 L216.634,241.448 C213.047,241.448 210.138,242.393 210.138,243.558 L210.138,304.337 C210.138,305.503 213.047,306.448 216.634,306.448 L403.642,306.448 C407.232,306.448 410.138,305.503 410.138,304.337 L410.138,243.558" fill="#2A86C0"/>
        <text transform="matrix(1, 0, 0, 1, 310.138, 273.948)">
          <tspan x="-57.357" y="12" font-family="GillSans" font-size="36" fill="#FFFFFF">Primary</tspan>
        </text>
      </g>
      <g>
        <text transform="matrix(0.766, 0.643, -0.643, 0.766, 434.827, 349.454)">
          <tspan x="-53.883" y="7.5" font-family="GillSans" font-size="24" fill="#2A86C0">Replication</tspan>
        </text>
        <g>
          <path d="M380.183,323.961 L471.253,400.378" fill-opacity="0" stroke="#2A86C0" stroke-width="8"/>
          <path d="M466.625,405.893 L485.961,412.719 L475.881,394.862 z" fill="#2A86C0" fill-opacity="1" stroke="#2A86C0" stroke-width="8" stroke-opacity="1"/>
        </g>
      </g>
      <g>
        <path d="M220.231,433.964 C220.231,432.799 217.326,431.854 213.735,431.854 L26.728,431.854 C23.141,431.854 20.231,432.799 20.231,433.964 L20.231,494.743 C20.231,495.909 23.141,496.854 26.728,496.854 L213.735,496.854 C217.326,496.854 220.231,495.909 220.231,494.743 L220.231,433.964" fill="#5CA831"/>
        <text transform="matrix(1, -0, 0, 1, 120.231, 464.354)">
          <tspan x="-76.087" y="12.242" font-family="GillSans" font-size="36" fill="#FFFFFE">Secondary</tspan>
        </text>
      </g>
      <g>
        <path d="M599.769,433.964 C599.769,432.799 596.863,431.854 593.273,431.854 L406.265,431.854 C402.678,431.854 399.769,432.799 399.769,433.964 L399.769,494.743 C399.769,495.909 402.678,496.854 406.265,496.854 L593.273,496.854 C596.863,496.854 599.769,495.909 599.769,494.743 L599.769,433.964" fill="#5CA831"/>
        <text transform="matrix(1, -0, 0, 1, 499.769, 464.354)">
          <tspan x="-76.087" y="12.242" font-family="GillSans" font-size="36" fill="#FFFFFE">Secondary</tspan>
        </text>
      </g>
    </g>
  </g>
  <defs/>
</svg>
