<?xml version="1.0" encoding="UTF-8"?>
<!DOCTYPE svg PUBLIC "-//W3C//DTD SVG 1.1//EN" "http://www.w3.org/Graphics/SVG/1.1/DTD/svg11.dtd">
<svg version="1.1" xmlns="http://www.w3.org/2000/svg" xmlns:xlink="http://www.w3.org/1999/xlink" x="0" y="0" width="740" height="280" viewBox="0, 0, 740, 280">
  <g id="Layer_1">
    <text transform="matrix(1, 0, 0, 1, 126.48, 31.43)">
      <tspan x="-105.97" y="1" font-family="GillSans" font-size="24" fill="#412818">Data Center 1</tspan>
    </text>
    <text transform="matrix(1, 0, 0, 1, 606.982, 24.636)">
      <tspan x="-105.97" y="7.5" font-family="GillSans" font-size="24" fill="#412818">Data Center 3</tspan>
    </text>
    <path d="M500.294,38.43 L722,38.43 L722,269 L500.294,269 z" fill-opacity="0" stroke="#3F2615" stroke-width="4"/>
    <path d="M259.147,38.715 L480.853,38.715 L480.853,269.285 L259.147,269.285 z" fill-opacity="0" stroke="#3F2615" stroke-width="4"/>
    <text transform="matrix(1, 0, 0, 1, 366.628, 31.715)">
      <tspan x="-105.97" y="1" font-family="GillSans" font-size="24" fill="#412818">Data Center 2</tspan>
    </text>
    <path d="M19,38.43 L240.706,38.43 L240.706,269 L19,269 z" fill-opacity="0" stroke="#3F2615" stroke-width="4"/>
    <g>
      <g>
        <path d="M229,46.985 C229,45.819 226.094,44.875 222.504,44.875 L35.496,44.875 C31.91,44.875 29,45.819 29,46.985 L29,107.763 C29,108.929 31.91,109.875 35.496,109.875 L222.504,109.875 C226.094,109.875 229,108.929 229,107.763 L229,46.985" fill="#3299CC"/>
        <text transform="matrix(1, 0, 0, 1, 129, 77.375)">
          <tspan x="-57.357" y="12" font-family="GillSans" font-size="36" fill="#FFFFFF">Primary</tspan>
        </text>
      </g>
      <text transform="matrix(1, 0, 0, 1, 129, 101.375)">
        <tspan x="-23.701" y="2.5" font-family="GillSans" font-size="12" fill="#3E2D1B">priority: 1</tspan>
      </text>
    </g>
    <g>
      <g>
        <path d="M229,200.54 C229,199.375 226.094,198.43 222.504,198.43 L35.496,198.43 C31.91,198.43 29,199.375 29,200.54 L29,261.318 C29,262.484 31.91,263.43 35.496,263.43 L222.504,263.43 C226.094,263.43 229,262.484 229,261.318 L229,200.54" fill="#6CB340"/>
        <text transform="matrix(1, -0, 0, 1, 129, 230.93)">
          <tspan x="-76.087" y="12" font-family="GillSans" font-size="36" fill="#FFFFFE">Secondary</tspan>
        </text>
      </g>
      <text transform="matrix(1, 0, 0, 1, 129, 254.93)">
        <tspan x="-23.701" y="2.5" font-family="GillSans" font-size="12" fill="#3E2D1B">priority: 1</tspan>
      </text>
    </g>
    <g>
      <g>
        <path d="M469.147,200.825 C469.147,199.66 466.241,198.715 462.651,198.715 L275.643,198.715 C272.057,198.715 269.147,199.66 269.147,200.825 L269.147,261.603 C269.147,262.769 272.057,263.715 275.643,263.715 L462.651,263.715 C466.241,263.715 469.147,262.769 469.147,261.603 L469.147,200.825" fill="#6CB340"/>
        <text transform="matrix(1, -0, 0, 1, 369.147, 231.215)">
          <tspan x="-76.087" y="12" font-family="GillSans" font-size="36" fill="#FFFFFE">Secondary</tspan>
        </text>
      </g>
      <text transform="matrix(1, 0, 0, 1, 369.147, 255.215)">
        <tspan x="-23.701" y="2.5" font-family="GillSans" font-size="12" fill="#3E2D1B">priority: 1</tspan>
      </text>
    </g>
    <g>
      <g>
        <path d="M229,124.325 C229,123.159 226.094,122.215 222.504,122.215 L35.496,122.215 C31.91,122.215 29,123.159 29,124.325 L29,185.103 C29,186.269 31.91,187.215 35.496,187.215 L222.504,187.215 C226.094,187.215 229,186.269 229,185.103 L229,124.325" fill="#6CB340"/>
        <text transform="matrix(1, -0, 0, 1, 129, 154.715)">
          <tspan x="-76.087" y="12" font-family="GillSans" font-size="36" fill="#FFFFFE">Secondary</tspan>
        </text>
      </g>
      <text transform="matrix(1, 0, 0, 1, 129, 178.715)">
        <tspan x="-23.701" y="2.5" font-family="GillSans" font-size="12" fill="#3E2D1B">priority: 1</tspan>
      </text>
    </g>
    <g>
      <path d="M711.147,200.54 C711.147,199.375 708.241,198.43 704.651,198.43 L517.643,198.43 C514.057,198.43 511.147,199.375 511.147,200.54 L511.147,261.318 C511.147,262.484 514.057,263.43 517.643,263.43 L704.651,263.43 C708.241,263.43 711.147,262.484 711.147,261.318 L711.147,200.54" fill="#B2B2B2"/>
      <text transform="matrix(1, -0, 0, 1, 611.147, 230.93)">
        <tspan x="-76.087" y="12" font-family="GillSans" font-size="36" fill="#FFFFFE">Secondary</tspan>
      </text>
      <text transform="matrix(1, 0, 0, 1, 611.147, 254.93)">
        <tspan x="-23.701" y="2.5" font-family="GillSans" font-size="12" fill="#000000">priority: 0</tspan>
      </text>
    </g>
  </g>
</svg>
