<?xml version="1.0" encoding="UTF-8"?>
<!DOCTYPE svg PUBLIC "-//W3C//DTD SVG 1.1//EN" "http://www.w3.org/Graphics/SVG/1.1/DTD/svg11.dtd">
<svg version="1.1" xmlns="http://www.w3.org/2000/svg" xmlns:xlink="http://www.w3.org/1999/xlink" x="0px" y="0px" width="640" height="560" viewBox="0, 0, 640, 560">
  <g id="Layer 1">
    <text transform="matrix(1, 0, -0, 1, 313.354, 269.052)">
      <tspan x="-57.453" y="12" font-family="GillSans" font-size="36" fill="#FFFFFE">P</tspan>
      <tspan x="-40.117" y="12" font-family="GillSans" font-size="36" fill="#FFFFFE">rimary</tspan>
    </text>
    <path d="M161.682,106.239 C161.682,108.425 162.792,110.197 164.162,110.197 L466.639,110.197 C468.008,110.197 469.118,108.425 469.118,106.239 L469.118,14.155 C469.118,11.969 468.008,10.197 466.639,10.197 L164.162,10.197 C162.792,10.197 161.682,11.969 161.682,14.155 L161.682,106.239" fill="#484743"/>
    <text transform="matrix(1, 0, -0, 1, 315.4, 33.88)">
      <tspan x="-129.088" y="12" font-family="GillSans" font-size="36" fill="#FFFFFE">Client</tspan>
      <tspan x="-40.582" y="12" font-family="GillSans" font-size="36" fill="#FFFFFE"> </tspan>
      <tspan x="-35.584" y="12" font-family="GillSans" font-size="36" fill="#FFFFFE">Application</tspan>
    </text>
    <path d="M161.682,59.917 L469.118,59.917" fill-opacity="0" stroke="#ECEBE9" stroke-width="1"/>
    <text transform="matrix(1, 0, -0, 1, 315.4, 85.88)">
      <tspan x="-47.848" y="12" font-family="GillSans" font-size="36" fill="#FFFFFE">Driver</tspan>
    </text>
    <text transform="matrix(1, -0.002, 0.002, 1, 259.548, 134.929)">
      <tspan x="-42.285" y="10" font-family="GillSans" font-size="30" fill="#2A86C0">W</tspan>
      <tspan x="-12.075" y="10" font-family="GillSans" font-size="30" fill="#2A86C0">rites</tspan>
    </text>
    <text transform="matrix(1, 0, -0, 1, 377.824, 135)">
      <tspan x="-36.064" y="10" font-family="GillSans" font-size="30" fill="#484743">Reads</tspan>
    </text>
    <g>
      <text transform="matrix(0.766, -0.643, 0.643, 0.766, 196.7, 348.505)">
        <tspan x="-53.883" y="7.5" font-family="GillSans" font-size="24" fill="#2A86C0">Replication</tspan>
      </text>
      <g>
        <path d="M249.805,324.304 L158.735,400.721" fill-opacity="0" stroke="#2A86C0" stroke-width="8"/>
        <path d="M154.107,395.205 L144.027,413.062 L163.363,406.236 z" fill="#2A86C0" fill-opacity="1" stroke="#2A86C0" stroke-width="8" stroke-opacity="1"/>
      </g>
    </g>
    <g>
      <path d="M260.016,147 L260.003,217.8" fill-opacity="0" stroke="#2A86C0" stroke-width="5"/>
      <path d="M254.603,217.799 L260.001,232.2 L265.403,217.801 z" fill="#2A86C0" fill-opacity="1" stroke="#2A86C0" stroke-width="5" stroke-opacity="1"/>
    </g>
    <g>
      <path d="M379.832,147 L379.819,217.8" fill-opacity="0" stroke="#484743" stroke-width="5"/>
      <path d="M374.419,217.799 L379.817,232.2 L385.219,217.801 z" fill="#484743" fill-opacity="1" stroke="#484743" stroke-width="5" stroke-opacity="1"/>
    </g>
    <g>
      <path d="M420,243.61 C420,242.445 417.094,241.5 413.504,241.5 L226.496,241.5 C222.91,241.5 220,242.445 220,243.61 L220,304.388 C220,305.554 222.91,306.5 226.496,306.5 L413.504,306.5 C417.094,306.5 420,305.554 420,304.388 L420,243.61" fill="#2A86C0"/>
      <text transform="matrix(1, 0, 0, 1, 320, 274)">
        <tspan x="-57.357" y="12" font-family="GillSans" font-size="36" fill="#FFFFFF">Primary</tspan>
      </text>
    </g>
    <g>
      <text transform="matrix(0.766, 0.643, -0.643, 0.766, 444.689, 349.505)">
        <tspan x="-53.883" y="7.5" font-family="GillSans" font-size="24" fill="#2A86C0">Replication</tspan>
      </text>
      <g>
        <path d="M390.045,324.012 L481.115,400.429" fill-opacity="0" stroke="#2A86C0" stroke-width="8"/>
        <path d="M476.487,405.945 L495.823,412.771 L485.743,394.914 z" fill="#2A86C0" fill-opacity="1" stroke="#2A86C0" stroke-width="8" stroke-opacity="1"/>
      </g>
    </g>
    <g>
      <path d="M230.094,434.016 C230.094,432.851 227.188,431.906 223.598,431.906 L36.59,431.906 C33.003,431.906 30.094,432.851 30.094,434.016 L30.094,494.794 C30.094,495.96 33.003,496.906 36.59,496.906 L223.598,496.906 C227.188,496.906 230.094,495.96 230.094,494.794 L230.094,434.016" fill="#5CA831"/>
      <text transform="matrix(1, -0, 0, 1, 130.094, 464.406)">
        <tspan x="-76.087" y="12.242" font-family="GillSans" font-size="36" fill="#FFFFFE">Secondary</tspan>
      </text>
    </g>
    <g>
      <path d="M609.631,434.016 C609.631,432.851 606.725,431.906 603.135,431.906 L416.127,431.906 C412.54,431.906 409.631,432.851 409.631,434.016 L409.631,494.794 C409.631,495.96 412.54,496.906 416.127,496.906 L603.135,496.906 C606.725,496.906 609.631,495.96 609.631,494.794 L609.631,434.016" fill="#5CA831"/>
      <text transform="matrix(1, -0, 0, 1, 509.631, 464.406)">
        <tspan x="-76.087" y="12.242" font-family="GillSans" font-size="36" fill="#FFFFFE">Secondary</tspan>
      </text>
    </g>
  </g>
  <defs/>
</svg>
