<?xml version="1.0" encoding="UTF-8"?>
<!DOCTYPE svg PUBLIC "-//W3C//DTD SVG 1.1//EN" "http://www.w3.org/Graphics/SVG/1.1/DTD/svg11.dtd">
<svg version="1.1" xmlns="http://www.w3.org/2000/svg" xmlns:xlink="http://www.w3.org/1999/xlink" x="0px" y="0px" width="740" height="280" viewBox="0, 0, 740, 280">
  <g id="Layer 1">
    <g>
      <path d="M231,21.11 C231,19.945 228.094,19 224.504,19 L37.496,19 C33.91,19 31,19.945 31,21.11 L31,81.888 C31,83.054 33.91,84 37.496,84 L224.504,84 C228.094,84 231,83.054 231,81.888 L231,21.11" fill="#5CA831"/>
      <text transform="matrix(1, -0, 0, 1, 131, 51.5)">
        <tspan x="-76.087" y="12" font-family="GillSans" font-size="36" fill="#FFFFFE">Secondary</tspan>
      </text>
    </g>
    <text transform="matrix(1, 0, 0, 1, 131, 75.5)">
      <tspan x="-21.444" y="4.5" font-family="GillSans" font-size="14" fill="#2F2215">votes: 1</tspan>
    </text>
    <g>
      <path d="M231,109.027 C231,107.862 228.094,106.917 224.504,106.917 L37.496,106.917 C33.91,106.917 31,107.862 31,109.027 L31,169.805 C31,170.971 33.91,171.917 37.496,171.917 L224.504,171.917 C228.094,171.917 231,170.971 231,169.805 L231,109.027" fill="#5CA831"/>
      <text transform="matrix(1, -0, 0, 1, 131, 139.417)">
        <tspan x="-76.087" y="12" font-family="GillSans" font-size="36" fill="#FFFFFE">Secondary</tspan>
      </text>
    </g>
    <g>
      <path d="M231,196.193 C231,195.027 228.094,194.083 224.504,194.083 L37.496,194.083 C33.91,194.083 31,195.027 31,196.193 L31,256.971 C31,258.137 33.91,259.083 37.496,259.083 L224.504,259.083 C228.094,259.083 231,258.137 231,256.971 L231,196.193" fill="#5CA831"/>
      <text transform="matrix(1, -0, 0, 1, 131, 226.583)">
        <tspan x="-76.087" y="12" font-family="GillSans" font-size="36" fill="#FFFFFE">Secondary</tspan>
      </text>
    </g>
    <g>
      <path d="M470,21.11 C470,19.945 467.094,19 463.504,19 L276.496,19 C272.91,19 270,19.945 270,21.11 L270,81.888 C270,83.054 272.91,84 276.496,84 L463.504,84 C467.094,84 470,83.054 470,81.888 L470,21.11" fill="#5CA831"/>
      <text transform="matrix(1, -0, 0, 1, 370, 51.5)">
        <tspan x="-76.087" y="12" font-family="GillSans" font-size="36" fill="#FFFFFE">Secondary</tspan>
      </text>
    </g>
    <text transform="matrix(1, 0, 0, 1, 370, 75.5)">
      <tspan x="-21.444" y="4.5" font-family="GillSans" font-size="14" fill="#2F2215">votes: 1</tspan>
    </text>
    <g>
      <path d="M710,21.11 C710,19.945 707.094,19 703.504,19 L516.496,19 C512.91,19 510,19.945 510,21.11 L510,81.888 C510,83.054 512.91,84 516.496,84 L703.504,84 C707.094,84 710,83.054 710,81.888 L710,21.11" fill="#5CA831"/>
      <text transform="matrix(1, -0, 0, 1, 610, 51.5)">
        <tspan x="-76.087" y="12" font-family="GillSans" font-size="36" fill="#FFFFFE">Secondary</tspan>
      </text>
    </g>
    <text transform="matrix(1, 0, 0, 1, 610, 75.5)">
      <tspan x="-21.444" y="4.5" font-family="GillSans" font-size="14" fill="#2F2215">votes: 1</tspan>
    </text>
    <g>
      <path d="M710,109.027 C710,107.862 707.094,106.917 703.504,106.917 L516.496,106.917 C512.91,106.917 510,107.862 510,109.027 L510,169.805 C510,170.971 512.91,171.917 516.496,171.917 L703.504,171.917 C707.094,171.917 710,170.971 710,169.805 L710,109.027" fill="#5CA831"/>
      <text transform="matrix(1, -0, 0, 1, 610, 139.417)">
        <tspan x="-76.087" y="12" font-family="GillSans" font-size="36" fill="#FFFFFE">Secondary</tspan>
      </text>
    </g>
    <g>
      <path d="M710,196.193 C710,195.027 707.094,194.083 703.504,194.083 L516.496,194.083 C512.91,194.083 510,195.027 510,196.193 L510,256.971 C510,258.137 512.91,259.083 516.496,259.083 L703.504,259.083 C707.094,259.083 710,258.137 710,256.971 L710,196.193" fill="#818181"/>
      <text transform="matrix(1, -0, 0, 1, 610, 226.583)">
        <tspan x="-76.087" y="12" font-family="GillSans" font-size="36" fill="#FFFFFE">Secondary</tspan>
      </text>
      <text transform="matrix(1, 0, 0, 1, 610, 250.583)">
        <tspan x="-18.381" y="2.5" font-family="GillSans" font-size="12" fill="#000000">votes: 0</tspan>
      </text>
    </g>
    <g>
      <path d="M470,196.193 C470,195.027 467.094,194.083 463.504,194.083 L276.496,194.083 C272.91,194.083 270,195.027 270,196.193 L270,256.971 C270,258.137 272.91,259.083 276.496,259.083 L463.504,259.083 C467.094,259.083 470,258.137 470,256.971 L470,196.193" fill="#818181"/>
      <text transform="matrix(1, -0, 0, 1, 370, 226.583)">
        <tspan x="-76.087" y="12" font-family="GillSans" font-size="36" fill="#FFFFFE">Secondary</tspan>
      </text>
      <text transform="matrix(1, 0, 0, 1, 370, 250.583)">
        <tspan x="-18.381" y="2.5" font-family="GillSans" font-size="12" fill="#000000">votes: 0</tspan>
      </text>
    </g>
    <g>
      <path d="M469,109.027 C469,107.862 466.094,106.917 462.504,106.917 L275.496,106.917 C271.91,106.917 269,107.862 269,109.027 L269,169.805 C269,170.971 271.91,171.917 275.496,171.917 L462.504,171.917 C466.094,171.917 469,170.971 469,169.805 L469,109.027" fill="#2A86C0"/>
      <text transform="matrix(1, 0, 0, 1, 369, 139.417)">
        <tspan x="-57.357" y="12" font-family="GillSans" font-size="36" fill="#FFFFFF">Primary</tspan>
      </text>
    </g>
    <text transform="matrix(1, 0, 0, 1, 131, 163.417)">
      <tspan x="-21.444" y="4.5" font-family="GillSans" font-size="14" fill="#2F2215">votes: 1</tspan>
    </text>
    <text transform="matrix(1, 0, 0, 1, 131, 250.583)">
      <tspan x="-21.444" y="4.5" font-family="GillSans" font-size="14" fill="#2F2215">votes: 1</tspan>
    </text>
    <text transform="matrix(1, 0, 0, 1, 610, 163.417)">
      <tspan x="-21.444" y="4.5" font-family="GillSans" font-size="14" fill="#2F2215">votes: 1</tspan>
    </text>
    <text transform="matrix(1, 0, 0, 1, 370, 163.417)">
      <tspan x="-21.444" y="4.5" font-family="GillSans" font-size="14" fill="#2F2215">votes: 1</tspan>
    </text>
  </g>
  <defs/>
</svg>
