<svg xmlns="http://www.w3.org/2000/svg" height="280" width="740"><path d="M470 207.1c0-1.2-3-2.1-6.5-2.1h-187c-3.6 0-6.5 1-6.5 2.1V268c0 1.2 3 2.1 6.5 2.1h187c3.6 0 6.5-1 6.5-2.1v-61" fill="#e88b09"/><path d="M326.7 222.8h2.5l11 24.7h-3.6l-3.3-7.3H323l-3.1 7.3h-3.6l10.5-24.7zM332 237l-4-9-3.7 9h7.7zm14-5.7v3.7-.3q2.4-3.7 4.7-3.7 1.8 0 3.8 1.8l-1.7 2.8q-1.6-1.6-3-1.6-1.6 0-2.8 1.5-1 1.5-1 3.5v8.5h-3.3v-16.2h3.2zm10.6-8.3h3.2v9.5q2.1-1.5 4.5-1.5 3 0 5 2.3t2 6q0 3.8-2.4 6.2-2.3 2.3-6.2 2.3-1.6 0-3.3-.4-1.8-.3-2.8-.8v-23.7zm3.2 12.5v8.8q1.7.5 3.4.5 2.1 0 3.4-1.5 1.4-1.6 1.4-4 0-2.3-1.3-3.8-1.2-1.6-3.2-1.6-1.8 0-3.7 1.6zm16.6-11q.8 0 1.4.5.5.6.5 1.4 0 .8-.5 1.3-.6.6-1.4.6-.7 0-1.3-.6-.5-.6-.5-1.3 0-.8.5-1.3.6-.6 1.3-.6zm-1.6 6.8h3.2v16.2h-3.2v-16.2zm5.6 2.6l6-6v3.4h5.1v2.9h-5.1v8q0 2.7 2.3 2.7 1.7 0 3.6-1.2v3q-1.8 1-4 1t-3.7-1.2l-.7-.9-.5-1.2q-.2-.8-.2-3v-7.2h-2.8v-.3zm28 5.8h-11.3q0 2.3 1.5 3.7 1.5 1.3 3.7 1.3 3.2 0 5.9-2v3.2q-1.5 1-3 1.4-1.4.4-3.4.4-2.6 0-4.3-1-1.6-1.2-2.6-3-1-2-1-4.4 0-3.7 2-6 2.2-2.3 5.5-2.3 3.2 0 5.1 2.2 2 2.3 2 6v.5zm-11.3-2h8.2q-.1-1.9-1.2-2.9-1-1-2.7-1-1.7 0-2.8 1-1.1 1-1.5 3zm18.2-6.4v3.7l.2-.3q2.3-3.7 4.6-3.7 1.8 0 3.8 1.8l-1.7 2.8q-1.6-1.6-3-1.6-1.6 0-2.8 1.5-1 1.5-1 3.5v8.5H412v-16.2h3.2z" font-size="36" font-family="GillSans" fill="#fffffe"/><path d="M355.7 258.6h1.1l-2.4 5.5h-.3l-2.4-5.5h1.1l1.5 3.3 1.4-3.3zm4.3 0q1.2 0 2 .8t.8 2q0 1.2-.8 2-.8.7-2 .7-1.3 0-2.1-.8t-.8-2q0-1.1.8-2 .8-.7 2-.7zm0 1q-.9 0-1.3.5-.5.5-.5 1.2 0 .8.5 1.3t1.3.5q.7 0 1.2-.5t.5-1.3q0-.7-.5-1.2t-1.3-.5zm3.2-.1l2-2v1.1h1.8v1h-1.8v2.6q0 1 .8 1 .6 0 1.2-.4v1q-.6.3-1.3.3-.7 0-1.2-.4l-.3-.3-.2-.4v-3.4h-1v-.1zm9.4 1.9h-3.8q0 .8.5 1.2.5.5 1.3.5 1 0 2-.7v1l-1 .5-1.2.2q-.9 0-1.4-.4-.6-.4-1-1-.3-.6-.3-1.4 0-1.3.7-2 .7-.8 1.9-.8 1 0 1.7.8.6.7.6 2v.1zm-3.8-.6h2.7q0-.7-.3-1-.4-.4-1-.4-.5 0-.9.4-.4.3-.5 1zm4.7 2.8v-1.1l1 .5.7.2.6-.2.2-.4-.1-.4-.7-.4-1.4-1q-.3-.4-.3-.9 0-.6.5-1t1.2-.4q.8 0 1.7.4v1.1q-1-.6-1.6-.6-.3 0-.5.2-.2 0-.2.3l.2.4.6.4.4.2q1.3.8 1.3 1.7 0 .6-.5 1-.5.5-1.3.5l-.9-.1-1-.4zm5.3-.9l.6.2q.2.2.2.5t-.2.5l-.6.2-.5-.2q-.2-.2-.2-.5t.2-.5q.2-.2.5-.2zm.1-4.2l.6.2q.2.2.2.5t-.2.5l-.6.2-.5-.2q-.2-.2-.2-.5t.2-.5q.2-.2.5-.2zm5.9-2.7h1.1v8.2h-1.1v-8.2z" font-size="12" font-family="GillSans" fill="#311f12"/><path d="M220 109.1c0-1.2-3-2.1-6.5-2.1h-187c-3.6 0-6.5 1-6.5 2.1V170c0 1.2 3 2.1 6.5 2.1h187c3.6 0 6.5-1 6.5-2.1v-61" fill="#5ca831"/><path d="M52.7 141.4l-2.7-1.6q-2.5-1.5-3.6-3-1-1.5-1-3.4 0-3 2-4.7 2-1.8 5.2-1.8 3.1 0 5.7 1.7v4q-2.7-2.6-5.7-2.6-1.8 0-2.9.8-1 .8-1 2t.7 2.2q.8 1 2.7 2l2.6 1.6q4.5 2.6 4.5 6.8 0 3-2 4.8-2 1.8-5 1.8-3.7 0-6.7-2.2v-4.5q2.8 3.6 6.6 3.6 1.6 0 2.7-.9 1.1-1 1.1-2.3 0-2.3-3.2-4.3zm23.8 2.6H65q.1 2.3 1.6 3.6 1.4 1.4 3.7 1.4 3.1 0 5.8-2v3.2q-1.5 1-3 1.4-1.4.4-3.3.4-2.7 0-4.3-1.1-1.7-1.1-2.7-3-1-1.9-1-4.3 0-3.7 2.1-6t5.4-2.3q3.3 0 5.2 2.2 1.9 2.3 1.9 6v.4zm-11.3-2h8.1q-.1-1.9-1.1-3-1-1-2.8-1-1.7 0-2.8 1-1 1.1-1.4 3zm26.8 6v3.1q-2.3 1-4.7 1-3.7 0-6-2.3t-2.3-6q0-3.9 2.2-6.2 2.2-2.3 5.8-2.3 1.3 0 2.2.2 1 .2 2.5.9v3.4q-2.4-1.6-4.5-1.6-2.2 0-3.5 1.6-1.4 1.5-1.4 3.8 0 2.5 1.5 4 1.5 1.4 4 1.4 1.9 0 4.3-1zm11.4-12.5q3.7 0 6.1 2.4 2.5 2.4 2.5 6 0 3.5-2.5 5.8t-6.2 2.3q-3.7 0-6.1-2.3-2.5-2.4-2.5-5.9 0-3.5 2.5-5.9 2.5-2.4 6.2-2.4zm-.2 3q-2.3 0-3.7 1.4-1.5 1.5-1.5 3.9 0 2.3 1.5 3.8 1.5 1.4 3.9 1.4 2.3 0 3.8-1.4 1.5-1.5 1.5-3.9 0-2.3-1.5-3.8-1.6-1.5-4-1.5zm15.5-2.9v2q2.2-2.3 4.9-2.3 1.5 0 2.8.7 1.3.8 2 2.2.6 1.3.6 4.3v9.2h-3.2v-9.2q0-2.4-.7-3.5-.8-1-2.5-1-2.3 0-3.9 2.2v11.5h-3.3v-16.1h3.3zm25.6-8.4h3.2v24.5h-6.8q-3.6 0-5.7-2.2-2.2-2.3-2.2-6.1 0-3.6 2.3-5.9 2.2-2.3 5.7-2.3 1.6 0 3.5.7v-8.7zm0 21.8v-10.2q-1.5-.8-3-.8-2.4 0-3.8 1.6-1.4 1.5-1.4 4.2 0 2.5 1.2 3.8.7.8 1.6 1.1.8.3 3 .3h2.4zm17.7-7v6.9q0 .8.6.8t1.8-.8v2l-1.8.9q-.6.2-1.3.2-2 0-2.5-1.6-2 1.6-4.3 1.6-1.7 0-2.8-1.1-1.1-1.1-1.1-2.8 0-1.6 1-2.8 1.2-1.2 3.2-1.9l4-1.4v-.8q0-3-2.8-3-2.7 0-5.1 2.7v-3.4q1.8-2.2 5.3-2.2 2.6 0 4.2 1.3l1 1.2q.4.7.5 1.5l.1 2.7zm-3.1 6.5v-4.8l-2.2.9q-1.6.6-2.3 1.3-.7.6-.7 1.6t.7 1.7q.6.6 1.6.6 1.6 0 2.9-1.3zm11.8-12.9v3.7l.2-.3q2.3-3.7 4.6-3.7 1.8 0 3.8 1.8l-1.7 2.8q-1.7-1.6-3.1-1.6-1.5 0-2.7 1.5-1.1 1.5-1.1 3.5v8.4h-3.2v-16.1h3.2zm21.8 0h3.6L184.6 160h-3.5l5.5-11.7-6.3-12.7h3.7l4.3 9 4.2-9z" font-size="36" font-family="GillSans" fill="#fffffe"/><path d="M105.7 160.6h1.1l-2.4 5.5h-.3l-2.4-5.5h1.1l1.5 3.3 1.4-3.3zm4.3 0q1.2 0 2 .8t.8 2q0 1.2-.8 2-.8.7-2 .7-1.3 0-2.1-.8t-.8-2q0-1.1.8-2 .8-.7 2-.7zm0 1q-.9 0-1.3.5-.5.5-.5 1.2 0 .8.5 1.3t1.3.5q.7 0 1.2-.5t.5-1.3q0-.7-.5-1.2t-1.3-.5zm3.2-.1l2-2v1.1h1.8v1h-1.8v2.6q0 1 .8 1 .6 0 1.2-.4v1q-.6.3-1.3.3-.7 0-1.2-.4l-.3-.3-.2-.4v-3.4h-1v-.1zm9.4 1.9h-3.8q0 .8.5 1.2.5.5 1.3.5 1 0 2-.7v1l-1 .5-1.2.2q-.9 0-1.4-.4-.6-.4-1-1-.3-.6-.3-1.4 0-1.3.7-2 .7-.8 1.9-.8 1 0 1.7.8.6.7.6 2v.1zm-3.8-.6h2.7q0-.7-.3-1-.4-.4-1-.4-.5 0-.9.4-.4.3-.5 1zm4.7 2.8v-1.1l1 .5.7.2.6-.2.2-.4-.1-.4-.7-.4-1.4-1q-.3-.4-.3-.9 0-.6.5-1t1.2-.4q.8 0 1.7.4v1.1q-1-.6-1.6-.6-.3 0-.5.2-.2 0-.2.3l.2.4.6.4.4.2q1.3.8 1.3 1.7 0 .6-.5 1-.5.5-1.3.5l-.9-.1-1-.4zm5.3-.9l.6.2q.2.2.2.5t-.2.5l-.6.2-.5-.2q-.2-.2-.2-.5t.2-.5q.2-.2.5-.2zm.1-4.2l.6.2q.2.2.2.5t-.2.5l-.6.2-.5-.2q-.2-.2-.2-.5t.2-.5q.2-.2.5-.2zm5.9-2.7h1.1v8.2h-1.1v-8.2z" font-size="12" font-family="GillSans" fill="#311f12"/><path d="M470 109.6c0-1.2-3-2.1-6.5-2.1h-187c-3.6 0-6.5 1-6.5 2.1v60.8c0 1.2 3 2.1 6.5 2.1h187c3.6 0 6.5-1 6.5-2.1v-60.8" fill="#2a86c0"/><path d="M355.7 161.1h1.1l-2.4 5.5h-.3l-2.4-5.5h1.1l1.5 3.3 1.4-3.3zm4.3 0q1.2 0 2 .8t.8 2q0 1.2-.8 2-.8.7-2 .7-1.3 0-2.1-.8t-.8-2q0-1.1.8-2 .8-.7 2-.7zm0 1q-.9 0-1.3.5-.5.5-.5 1.2 0 .8.5 1.3t1.3.5q.7 0 1.2-.5t.5-1.3q0-.7-.5-1.2t-1.3-.5zm3.2-.1l2-2v1.1h1.8v1h-1.8v2.6q0 1 .8 1 .6 0 1.2-.4v1q-.6.3-1.3.3-.7 0-1.2-.4l-.3-.3-.2-.4V162h-1v-.1zm9.4 1.9h-3.8q0 .8.5 1.2.5.5 1.3.5 1 0 2-.7v1l-1 .5-1.2.2q-.9 0-1.4-.4-.6-.4-1-1-.3-.6-.3-1.4 0-1.3.7-2 .7-.8 1.9-.8 1 0 1.7.8.6.7.6 2v.1zm-3.8-.6h2.7q0-.7-.3-1-.4-.4-1-.4-.5 0-.9.4-.4.3-.5 1zm4.7 2.8V165l1 .5.7.2.6-.2.2-.4-.1-.4-.7-.4-1.4-1q-.3-.4-.3-.9 0-.6.5-1t1.2-.4q.8 0 1.7.4v1.1q-1-.6-1.6-.6-.3 0-.5.2-.2 0-.2.3l.2.4.6.4.4.2q1.3.8 1.3 1.7 0 .6-.5 1-.5.5-1.3.5l-.9-.1-1-.4zm5.3-.9l.6.2q.2.2.2.5t-.2.5l-.6.2-.5-.2q-.2-.2-.2-.5t.2-.5q.2-.2.5-.2zm.1-4.2l.6.2q.2.2.2.5t-.2.5l-.6.2-.5-.2q-.2-.2-.2-.5t.2-.5q.2-.2.5-.2zm5.9-2.7h1.1v8.2h-1.1v-8.2z" font-size="12" font-family="GillSans" fill="#311f12"/><path d="M315.2 152v-24.6h7.7q3.6 0 5.7 2 2 1.8 2 5 0 2.1-1 3.8-1.1 1.7-3 2.4-1.8.7-5.3.7h-2.6V152h-3.5zm7.1-21.5h-3.6v7.7h3.8q2.2 0 3.3-1 1.2-1 1.2-2.9 0-3.8-4.7-3.8zm14.4 5.3v3.7l.2-.2q2.3-3.8 4.6-3.8 1.8 0 3.8 1.8l-1.7 2.9q-1.7-1.6-3.1-1.6-1.5 0-2.7 1.4-1.1 1.5-1.1 3.5v8.5h-3.2v-16.2h3.2zm12.5-6.8q.8 0 1.3.6.6.5.6 1.3t-.6 1.3q-.5.6-1.3.6t-1.3-.6q-.6-.5-.6-1.3 0-.7.6-1.3.5-.6 1.3-.6zm-1.6 6.8h3.2V152h-3.2v-16.2zm21.1 4.5V152h-3.3v-9q0-2.7-.7-3.7-.7-1.1-2.5-1.1-1 0-1.8.4-.9.5-2 1.7V152h-3.1v-16.2h3.2v2.2q2.4-2.5 4.8-2.5 3 0 4.7 3 2.6-3 5.4-3 2.3 0 3.8 1.7 1.6 1.7 1.6 5.3v9.5h-3.2v-9.6q0-2-.9-3-.8-1.1-2.3-1.1-2 0-3.7 2zm24.6 2v6.9q0 .8.5.8.6 0 1.8-.9v2l-1.7 1-1.4.2q-2 0-2.4-1.6-2 1.5-4.3 1.5-1.7 0-2.9-1-1-1.2-1-2.9 0-1.5 1-2.7 1.1-1.2 3.1-2l4.1-1.3v-.9q0-2.9-2.9-2.9-2.6 0-5 2.7v-3.5q1.8-2.2 5.3-2.2 2.6 0 4.2 1.4.5.4 1 1.2l.5 1.4v2.8zm-3.2 6.5V144l-2.1.8q-1.7.7-2.3 1.3-.7.7-.7 1.7t.6 1.6q.7.6 1.7.6 1.5 0 2.8-1.2zm11.9-13v3.7l.1-.2q2.3-3.8 4.7-3.8 1.8 0 3.7 1.8l-1.7 2.9q-1.6-1.6-3-1.6-1.6 0-2.7 1.4-1.2 1.5-1.2 3.5v8.5h-3.2v-16.2h3.2zm21.7 0h3.6L416 160.2h-3.6l5.5-11.7-6.2-12.7h3.6l4.4 9.2 4.1-9.2z" font-size="36" font-family="GillSans" fill="#fff"/><path d="M720 109.1c0-1.2-3-2.1-6.5-2.1h-187c-3.6 0-6.5 1-6.5 2.1V170c0 1.2 3 2.1 6.5 2.1h187c3.6 0 6.5-1 6.5-2.1v-61" fill="#5ca831"/><path d="M552.7 141.4l-2.7-1.6q-2.5-1.5-3.6-3-1-1.5-1-3.4 0-3 2-4.7 2-1.8 5.2-1.8 3.1 0 5.7 1.7v4q-2.7-2.6-5.7-2.6-1.8 0-2.9.8-1 .8-1 2t.7 2.2q.8 1 2.7 2l2.6 1.6q4.5 2.6 4.5 6.8 0 3-2 4.8-2 1.8-5 1.8-3.7 0-6.7-2.2v-4.5q2.8 3.6 6.6 3.6 1.6 0 2.7-.9 1.1-1 1.1-2.3 0-2.3-3.2-4.3zm23.8 2.6H565q.1 2.3 1.6 3.6 1.4 1.4 3.7 1.4 3.1 0 5.8-2v3.2q-1.5 1-3 1.4-1.4.4-3.3.4-2.7 0-4.3-1.1-1.7-1.1-2.7-3-1-1.9-1-4.3 0-3.7 2.1-6t5.4-2.3q3.3 0 5.2 2.2 1.9 2.3 1.9 6v.4zm-11.3-2h8.1q-.1-1.9-1.1-3-1-1-2.8-1-1.7 0-2.8 1-1 1.1-1.4 3zm26.8 6v3.1q-2.3 1-4.7 1-3.7 0-6-2.3t-2.3-6q0-3.9 2.2-6.2 2.2-2.3 5.8-2.3 1.3 0 2.2.2 1 .2 2.5.9v3.4q-2.4-1.6-4.5-1.6-2.2 0-3.5 1.6-1.4 1.5-1.4 3.8 0 2.5 1.5 4 1.5 1.4 4 1.4 1.9 0 4.3-1zm11.4-12.5q3.7 0 6.1 2.4 2.5 2.4 2.5 6 0 3.5-2.5 5.8t-6.2 2.3q-3.7 0-6.1-2.3-2.5-2.4-2.5-5.9 0-3.5 2.5-5.9 2.5-2.4 6.2-2.4zm-.2 3q-2.3 0-3.7 1.4-1.5 1.5-1.5 3.9 0 2.3 1.5 3.8 1.5 1.4 3.9 1.4 2.3 0 3.8-1.4 1.5-1.5 1.5-3.9 0-2.3-1.5-3.8-1.6-1.5-4-1.5zm15.5-2.9v2q2.2-2.3 4.9-2.3 1.5 0 2.8.7 1.3.8 2 2.2.6 1.3.6 4.3v9.2h-3.2v-9.2q0-2.4-.7-3.5-.8-1-2.5-1-2.3 0-3.9 2.2v11.5h-3.3v-16.1h3.3zm25.6-8.4h3.2v24.5h-6.8q-3.6 0-5.7-2.2-2.2-2.3-2.2-6.1 0-3.6 2.3-5.9 2.2-2.3 5.7-2.3 1.6 0 3.5.7v-8.7zm0 21.8v-10.2q-1.5-.8-3-.8-2.4 0-3.8 1.6-1.4 1.5-1.4 4.2 0 2.5 1.2 3.8.7.8 1.6 1.1.8.3 3 .3h2.4zm17.7-7v6.9q0 .8.6.8t1.8-.8v2l-1.8.9q-.6.2-1.3.2-2 0-2.5-1.6-2 1.6-4.3 1.6-1.7 0-2.8-1.1-1.1-1.1-1.1-2.8 0-1.6 1-2.8 1.2-1.2 3.2-1.9l4-1.4v-.8q0-3-2.8-3-2.7 0-5.1 2.7v-3.4q1.8-2.2 5.3-2.2 2.6 0 4.2 1.3l1 1.2q.4.7.5 1.5l.1 2.7zm-3.1 6.5v-4.8l-2.2.9q-1.6.6-2.3 1.3-.7.6-.7 1.6t.7 1.7q.6.6 1.6.6 1.6 0 2.9-1.3zm11.8-12.9v3.7l.2-.3q2.3-3.7 4.6-3.7 1.8 0 3.8 1.8l-1.7 2.8q-1.7-1.6-3.1-1.6-1.5 0-2.7 1.5-1.1 1.5-1.1 3.5v8.4h-3.2v-16.1h3.2zm21.8 0h3.6L684.6 160h-3.5l5.5-11.7-6.3-12.7h3.7l4.3 9 4.2-9z" font-size="36" font-family="GillSans" fill="#fffffe"/><path d="M605.7 160.6h1.1l-2.4 5.5h-.3l-2.4-5.5h1.1l1.5 3.3 1.4-3.3zm4.3 0q1.2 0 2 .8t.8 2q0 1.2-.8 2-.8.7-2 .7-1.3 0-2.1-.8t-.8-2q0-1.1.8-2 .8-.7 2-.7zm0 1q-.9 0-1.3.5-.5.5-.5 1.2 0 .8.5 1.3t1.3.5q.7 0 1.2-.5t.5-1.3q0-.7-.5-1.2t-1.3-.5zm3.2-.1l2-2v1.1h1.8v1h-1.8v2.6q0 1 .8 1 .6 0 1.2-.4v1q-.6.3-1.3.3-.7 0-1.2-.4l-.3-.3-.2-.4v-3.4h-1v-.1zm9.4 1.9h-3.8q0 .8.5 1.2.5.5 1.3.5 1 0 2-.7v1l-1 .5-1.2.2q-.9 0-1.4-.4-.6-.4-1-1-.3-.6-.3-1.4 0-1.3.7-2 .7-.8 1.9-.8 1 0 1.7.8.6.7.6 2v.1zm-3.8-.6h2.7q0-.7-.3-1-.4-.4-1-.4-.5 0-.9.4-.4.3-.5 1zm4.7 2.8v-1.1l1 .5.7.2.6-.2.2-.4-.1-.4-.7-.4-1.4-1q-.3-.4-.3-.9 0-.6.5-1t1.2-.4q.8 0 1.7.4v1.1q-1-.6-1.6-.6-.3 0-.5.2-.2 0-.2.3l.2.4.6.4.4.2q1.3.8 1.3 1.7 0 .6-.5 1-.5.5-1.3.5l-.9-.1-1-.4zm5.3-.9l.6.2q.2.2.2.5t-.2.5l-.6.2-.5-.2q-.2-.2-.2-.5t.2-.5q.2-.2.5-.2zm.1-4.2l.6.2q.2.2.2.5t-.2.5l-.6.2-.5-.2q-.2-.2-.2-.5t.2-.5q.2-.2.5-.2zm5.9-2.7h1.1v8.2h-1.1v-8.2z" font-size="12" font-family="GillSans" fill="#311f12"/><path d="M470 12.1c0-1.2-3-2.1-6.5-2.1h-187c-3.6 0-6.5 1-6.5 2.1V73c0 1.2 3 2.1 6.5 2.1h187c3.6 0 6.5-1 6.5-2.1V12" fill="#5ca831"/><path d="M302.7 44.4l-2.7-1.6q-2.5-1.5-3.6-3-1-1.5-1-3.4 0-3 2-4.7 2-1.8 5.2-1.8 3.1 0 5.7 1.7v4q-2.7-2.6-5.7-2.6-1.8 0-2.9.8-1 .8-1 2t.7 2.2q.8 1 2.7 2l2.6 1.6q4.5 2.6 4.5 6.8 0 3-2 4.8-2 1.8-5 1.8-3.7 0-6.7-2.2v-4.5q2.8 3.6 6.6 3.6 1.6 0 2.7-.9 1.1-1 1.1-2.3 0-2.3-3.2-4.3zm23.8 2.6H315q.1 2.3 1.6 3.6 1.4 1.4 3.7 1.4 3.1 0 5.8-2v3.2q-1.5 1-3 1.4-1.4.4-3.3.4-2.7 0-4.3-1.1-1.7-1.1-2.7-3-1-1.9-1-4.3 0-3.7 2.1-6t5.4-2.3q3.3 0 5.2 2.2 1.9 2.3 1.9 6v.4zm-11.3-2h8.1q-.1-1.9-1.1-3-1-1-2.8-1-1.7 0-2.8 1-1 1.1-1.4 3zm26.8 6v3q-2.3 1-4.7 1-3.7 0-6-2.3t-2.3-6q0-3.9 2.2-6.2 2.2-2.3 5.8-2.3 1.3 0 2.2.2 1 .2 2.5.9v3.4q-2.4-1.6-4.5-1.6-2.2 0-3.5 1.6-1.4 1.5-1.4 3.8 0 2.5 1.5 4 1.5 1.4 4 1.4 1.9 0 4.3-1zm11.4-12.5q3.7 0 6.1 2.4 2.5 2.4 2.5 6 0 3.5-2.5 5.8t-6.2 2.3q-3.7 0-6.1-2.3-2.5-2.4-2.5-5.9 0-3.5 2.5-5.9 2.5-2.4 6.2-2.4zm-.2 3q-2.3 0-3.7 1.4-1.5 1.5-1.5 3.9 0 2.3 1.5 3.8 1.5 1.4 3.9 1.4 2.3 0 3.8-1.4 1.5-1.5 1.5-3.9 0-2.3-1.5-3.8-1.6-1.5-4-1.5zm15.5-2.9v2q2.2-2.3 4.9-2.3 1.5 0 2.8.7 1.3.8 2 2.2.6 1.3.6 4.3v9.2h-3.2v-9.2q0-2.4-.7-3.5-.8-1-2.5-1-2.3 0-3.9 2.2v11.5h-3.3V38.6h3.3zm25.6-8.4h3.2v24.5h-6.8q-3.6 0-5.7-2.2-2.2-2.3-2.2-6.1 0-3.6 2.3-5.9 2.2-2.3 5.7-2.3 1.6 0 3.5.7v-8.7zm0 21.8V41.8q-1.5-.8-3-.8-2.4 0-3.8 1.6-1.4 1.5-1.4 4.2 0 2.5 1.2 3.8.7.8 1.6 1.1.8.3 3 .3h2.4zm17.7-7v7q0 .8.6.8t1.8-.8v2l-1.8.9q-.6.2-1.3.2-2 0-2.5-1.6-2 1.6-4.3 1.6-1.7 0-2.8-1.1-1.1-1.1-1.1-2.8 0-1.6 1-2.8 1.2-1.2 3.2-1.9l4-1.4v-.8q0-3-2.8-3-2.7 0-5.1 2.7v-3.4q1.8-2.2 5.3-2.2 2.6 0 4.2 1.3l1 1.2q.4.7.5 1.5l.1 2.7zm-3.1 6.5v-4.8l-2.2.9q-1.6.6-2.3 1.3-.7.6-.7 1.6t.7 1.7q.6.6 1.6.6 1.6 0 2.9-1.3zm11.8-12.9v3.7l.2-.3q2.3-3.7 4.6-3.7 1.8 0 3.8 1.8l-1.7 2.8q-1.7-1.6-3.1-1.6-1.5 0-2.7 1.5-1.1 1.5-1.1 3.5v8.4h-3.2V38.6h3.2zm21.8 0h3.6L434.6 63h-3.5l5.5-11.7-6.3-12.7h3.7l4.3 9 4.2-9z" font-size="36" font-family="GillSans" fill="#fffffe"/><path d="M355.7 65.6h1.1l-2.4 5.5h-.3l-2.4-5.5h1.1l1.5 3.3 1.4-3.3zm4.3 0q1.2 0 2 .8t.8 2q0 1.2-.8 2-.8.7-2 .7-1.3 0-2.1-.8t-.8-2q0-1.1.8-2 .8-.7 2-.7zm0 1q-.9 0-1.3.5-.5.5-.5 1.2 0 .8.5 1.3t1.3.5q.7 0 1.2-.5t.5-1.3q0-.7-.5-1.2t-1.3-.5zm3.2-.1l2-2v1.1h1.8v1h-1.8v2.6q0 1 .8 1 .6 0 1.2-.4v1q-.6.3-1.3.3-.7 0-1.2-.4l-.3-.3-.2-.4v-3.4h-1v-.1zm9.4 1.9h-3.8q0 .8.5 1.2.5.5 1.3.5 1 0 2-.7v1l-1 .5-1.2.2q-.9 0-1.4-.4-.6-.4-1-1-.3-.6-.3-1.4 0-1.3.7-2 .7-.8 1.9-.8 1 0 1.7.8.6.7.6 2v.1zm-3.8-.6h2.7q0-.7-.3-1-.4-.4-1-.4-.5 0-.9.4-.4.3-.5 1zm4.7 2.8v-1.1l1 .5.7.2.6-.2.2-.4-.1-.4-.7-.4-1.4-1q-.3-.4-.3-.9 0-.6.5-1t1.2-.4q.8 0 1.7.4V67q-1-.6-1.6-.6-.3 0-.5.2-.2 0-.2.3l.2.4.6.4.4.2q1.3.8 1.3 1.7 0 .6-.5 1-.5.5-1.3.5l-.9-.1-1-.4zm5.3-.9l.6.2q.2.2.2.5t-.2.5l-.6.2-.5-.2q-.2-.2-.2-.5t.2-.5q.2-.2.5-.2zm.1-4.2l.6.2q.2.2.2.5t-.2.5l-.6.2-.5-.2q-.2-.2-.2-.5t.2-.5q.2-.2.5-.2zm5.9-2.7h1.1V71h-1.1v-8.2z" font-size="12" font-family="GillSans" fill="#311f12"/></svg>