<?xml version="1.0" encoding="UTF-8"?>
<!DOCTYPE svg PUBLIC "-//W3C//DTD SVG 1.1//EN" "http://www.w3.org/Graphics/SVG/1.1/DTD/svg11.dtd">
<svg version="1.1" xmlns="http://www.w3.org/2000/svg" xmlns:xlink="http://www.w3.org/1999/xlink" x="0px" y="0px" width="720" height="400" viewBox="0, 0, 720, 400">
  <g id="Layer 1">
    <g>
      <g>
        <path d="M356.022,164.934 C356.022,163.59 354.075,162.5 351.67,162.5 L226.369,162.5 C223.966,162.5 222.017,163.59 222.017,164.934 L222.017,235.063 C222.017,236.409 223.966,237.5 226.369,237.5 L351.67,237.5 C354.075,237.5 356.022,236.409 356.022,235.063 L356.022,164.934" fill="#2A86C0"/>
        <text transform="matrix(1, 0, 0, 1, 289.019, 200)">
          <tspan x="-34.365" y="-2.231" font-family="GillSans" font-size="24" fill="#FFFFFF">Router</tspan>
        </text>
      </g>
      <text transform="matrix(1, 0, 0, 1, 289.019, 219.253)">
        <tspan x="-38.228" y="6" font-family="GillSans" font-size="20" fill="#FFFFFF">(mongos)</tspan>
      </text>
    </g>
    <g>
      <g>
        <path d="M710.19,227.919 C710.19,225.342 705.705,223.253 700.162,223.253 L411.48,223.253 C405.943,223.253 401.452,225.342 401.452,227.919 L401.452,362.328 C401.452,364.907 405.943,366.998 411.48,366.998 L700.162,366.998 C705.705,366.998 710.19,364.907 710.19,362.328 L710.19,227.919" fill="#5CA831"/>
        <path d="M710.19,227.919 C710.19,225.342 705.705,223.253 700.162,223.253 L411.48,223.253 C405.943,223.253 401.452,225.342 401.452,227.919 L401.452,362.328 C401.452,364.907 405.943,366.998 411.48,366.998 L700.162,366.998 C705.705,366.998 710.19,364.907 710.19,362.328 L710.19,227.919" fill-opacity="0" stroke="#5CA831" stroke-width="1"/>
      </g>
      <g>
        <path d="M710.19,38.455 C710.19,35.444 705.705,33.002 700.162,33.002 L411.48,33.002 C405.943,33.002 401.452,35.444 401.452,38.455 L401.452,195.544 C401.452,198.558 405.943,201.002 411.48,201.002 L700.162,201.002 C705.705,201.002 710.19,198.558 710.19,195.544 L710.19,38.455" fill="#5CA831"/>
        <path d="M710.19,38.455 C710.19,35.444 705.705,33.002 700.162,33.002 L411.48,33.002 C405.943,33.002 401.452,35.444 401.452,38.455 L401.452,195.544 C401.452,198.558 405.943,201.002 411.48,201.002 L700.162,201.002 C705.705,201.002 710.19,198.558 710.19,195.544 L710.19,38.455" fill-opacity="0" stroke="#5CA831" stroke-width="1"/>
      </g>
      <g>
        <g>
          <g>
            <g>
              <path d="M621.582,98.603 L669.251,98.603 L669.251,161.856 L621.582,161.856 z" fill="#FFFFFF"/>
              <path d="M621.582,98.603 L669.251,98.603 L669.251,161.856 L621.582,161.856 z" fill-opacity="0" stroke="#D33907" stroke-width="1"/>
            </g>
            <g>
              <path d="M613.078,105.752 L662.272,105.752 L662.272,169.737 L613.078,169.737 z" fill="#FFFFFF"/>
              <path d="M613.078,105.752 L662.272,105.752 L662.272,169.737 L613.078,169.737 z" fill-opacity="0" stroke="#D33907" stroke-width="1"/>
            </g>
          </g>
          <g>
            <path d="M606.99,113.214 L654.66,113.214 L654.66,175.808 L606.99,175.808 z" fill="#FFFFFF"/>
            <path d="M606.99,113.214 L654.66,113.214 L654.66,175.808 L606.99,175.808 z" fill-opacity="0" stroke="#D33907" stroke-width="1"/>
          </g>
          <g>
            <path d="M598.486,120.363 L647.68,120.363 L647.68,184.348 L598.486,184.348 z" fill="#FFFFFF"/>
            <path d="M598.486,120.363 L647.68,120.363 L647.68,184.348 L598.486,184.348 z" fill-opacity="0" stroke="#D33907" stroke-width="1"/>
          </g>
        </g>
        <path d="M587.864,90.909 L678.817,90.909 L678.817,192.03 L587.864,192.03 z" fill-opacity="0" stroke="#D33907" stroke-width="1"/>
      </g>
      <text transform="matrix(1, 0, 0, 1, 643.527, 77.347)">
        <tspan x="-55.663" y="5.438" font-family="GillSans" font-size="21" fill="#D33907">Collection2</tspan>
      </text>
      <text transform="matrix(1, 0, 0, 1, 555.821, 49.09)">
        <tspan x="-42.434" y="5.912" font-family="GillSans" font-size="24" fill="#FFFFFF">Shard A</tspan>
      </text>
      <g>
        <g>
          <path d="M440.826,265.977 L514.882,265.977 L514.882,308.424 L440.826,308.424 z" fill="#FFFFFF"/>
          <path d="M440.826,265.977 L514.882,265.977 L514.882,308.424 L440.826,308.424 z" fill-opacity="0" stroke="#0C60B2" stroke-width="0.929"/>
        </g>
        <g>
          <path d="M427.615,270.318 L504.039,270.318 L504.039,309.168 L427.615,309.168 z" fill="#FFFFFF"/>
          <path d="M427.615,270.318 L504.039,270.318 L504.039,309.168 L427.615,309.168 z" fill-opacity="0" stroke="#0C60B2" stroke-width="0.929"/>
        </g>
      </g>
      <g>
        <g>
          <path d="M440.826,315.61 L514.882,315.61 L514.882,358.056 L440.826,358.056 z" fill="#FFFFFF"/>
          <path d="M440.826,315.61 L514.882,315.61 L514.882,358.056 L440.826,358.056 z" fill-opacity="0" stroke="#0C60B2" stroke-width="0.929"/>
        </g>
        <g>
          <path d="M427.615,319.951 L504.039,319.951 L504.039,358.8 L427.615,358.8 z" fill="#FFFFFF"/>
          <path d="M427.615,319.951 L504.039,319.951 L504.039,358.8 L427.615,358.8 z" fill-opacity="0" stroke="#0C60B2" stroke-width="0.929"/>
        </g>
      </g>
      <g>
        <g>
          <path d="M440.826,99.558 L514.882,99.558 L514.882,142.005 L440.826,142.005 z" fill="#FFFFFF"/>
          <path d="M440.826,99.558 L514.882,99.558 L514.882,142.005 L440.826,142.005 z" fill-opacity="0" stroke="#0C60B2" stroke-width="0.929"/>
        </g>
        <g>
          <path d="M427.615,103.899 L504.039,103.899 L504.039,142.749 L427.615,142.749 z" fill="#FFFFFF"/>
          <path d="M427.615,103.899 L504.039,103.899 L504.039,142.749 L427.615,142.749 z" fill-opacity="0" stroke="#0C60B2" stroke-width="0.929"/>
        </g>
      </g>
      <g>
        <g>
          <path d="M440.826,149.191 L514.882,149.191 L514.882,191.637 L440.826,191.637 z" fill="#FFFFFF"/>
          <path d="M440.826,149.191 L514.882,149.191 L514.882,191.637 L440.826,191.637 z" fill-opacity="0" stroke="#0C60B2" stroke-width="0.929"/>
        </g>
        <g>
          <path d="M427.615,153.531 L504.039,153.531 L504.039,192.381 L427.615,192.381 z" fill="#FFFFFF"/>
          <path d="M427.615,153.531 L504.039,153.531 L504.039,192.381 L427.615,192.381 z" fill-opacity="0" stroke="#0C60B2" stroke-width="0.929"/>
        </g>
      </g>
      <path d="M422.781,90.909 L519.184,90.909 C524.744,90.909 529.251,96.978 529.251,104.463 L529.251,353.443 C529.251,360.929 524.744,366.998 519.184,366.998 L422.781,366.998 C417.221,366.998 412.714,360.929 412.714,353.443 L412.714,104.463 C412.714,96.978 417.221,90.909 422.781,90.909 z" fill-opacity="0" stroke="#0C60B2" stroke-width="1" stroke-dasharray="2,2"/>
      <text transform="matrix(1, 0, 0, 1, 555.821, 238.734)">
        <tspan x="-48.595" y="6.367" font-family="GillSans" font-size="24" fill="#FFFFFF">Shard B</tspan>
      </text>
      <text transform="matrix(1, 0, 0, 1, 468.377, 77.347)">
        <tspan x="-55.663" y="5.438" font-family="GillSans" font-size="21" fill="#0C60B2">Collection1</tspan>
      </text>
    </g>
    <g>
      <text transform="matrix(1, 0, 0, 1, 96, 224.463)">
        <tspan x="-90.984" y="2.061" font-family="GillSans" font-size="21" fill="#D33907">db.Collection2.find()</tspan>
      </text>
      <text transform="matrix(1, 0, 0, 1, 96, 249.34)">
        <tspan x="-90.984" y="2.061" font-family="GillSans" font-size="21" fill="#D33907">db.Collection2.save()</tspan>
      </text>
    </g>
    <g>
      <text transform="matrix(1, 0, 0, 1, 100.398, 186.171)">
        <tspan x="-95.382" y="3.655" font-family="GillSans" font-size="21" fill="#0C60B2">db.Collection1.save()</tspan>
      </text>
      <text transform="matrix(1, 0, 0, 1, 96.804, 161.263)">
        <tspan x="-91.787" y="5.438" font-family="GillSans" font-size="21" fill="#0C60B2">db.Collection1.find()</tspan>
      </text>
    </g>
    <path d="M200.017,4.599 L200.017,396" fill-opacity="0" stroke="#4F4C4B" stroke-width="2" stroke-dasharray="4,4"/>
    <g>
      <path d="M185.3,162.859 L207.7,180.743" fill-opacity="0" stroke="#0C60B2" stroke-width="1"/>
      <path d="M205.828,183.087 L213.952,185.734 L209.572,178.398 z" fill="#0C60B2" fill-opacity="1" stroke="#0C60B2" stroke-width="1" stroke-opacity="1"/>
    </g>
    <g>
      <path d="M185.3,247.651 L207.7,229.767" fill-opacity="0" stroke="#D33907" stroke-width="1"/>
      <path d="M209.572,232.111 L213.952,224.776 L205.828,227.423 z" fill="#D33907" fill-opacity="1" stroke="#D33907" stroke-width="1" stroke-opacity="1"/>
    </g>
    <g>
      <path d="M184.517,186.358 L206.951,193.595" fill-opacity="0" stroke="#0C60B2" stroke-width="1"/>
      <path d="M206.03,196.45 L214.565,196.051 L207.872,190.74 z" fill="#0C60B2" fill-opacity="1" stroke="#0C60B2" stroke-width="1" stroke-opacity="1"/>
    </g>
    <g>
      <path d="M184.517,223.26 L206.951,216.023" fill-opacity="0" stroke="#D33907" stroke-width="1"/>
      <path d="M207.872,218.879 L214.565,213.567 L206.03,213.168 z" fill="#D33907" fill-opacity="1" stroke="#D33907" stroke-width="1" stroke-opacity="1"/>
    </g>
    <g>
      <path d="M365.022,170.358 L392.022,170.358" fill-opacity="0" stroke="#D33907" stroke-width="1"/>
      <path d="M365.022,167.358 L357.022,170.358 L365.022,173.358 z" fill="#D33907" fill-opacity="1" stroke="#D33907" stroke-width="1" stroke-opacity="1"/>
      <path d="M392.022,173.358 L400.022,170.358 L392.022,167.358 z" fill="#D33907" fill-opacity="1" stroke="#D33907" stroke-width="1" stroke-opacity="1"/>
    </g>
    <g>
      <path d="M365.022,181.333 L392.022,181.333" fill-opacity="0" stroke="#0C60B2" stroke-width="1"/>
      <path d="M365.022,178.333 L357.022,181.333 L365.022,184.333 z" fill="#0C60B2" fill-opacity="1" stroke="#0C60B2" stroke-width="1" stroke-opacity="1"/>
      <path d="M392.022,184.333 L400.022,181.333 L392.022,178.333 z" fill="#0C60B2" fill-opacity="1" stroke="#0C60B2" stroke-width="1" stroke-opacity="1"/>
    </g>
    <g>
      <path d="M365,229 L392,229" fill-opacity="0" stroke="#0C60B2" stroke-width="1"/>
      <path d="M365,226 L357,229 L365,232 z" fill="#0C60B2" fill-opacity="1" stroke="#0C60B2" stroke-width="1" stroke-opacity="1"/>
      <path d="M392,232 L400,229 L392,226 z" fill="#0C60B2" fill-opacity="1" stroke="#0C60B2" stroke-width="1" stroke-opacity="1"/>
    </g>
    <g>
      <text transform="matrix(1, 0, 0, 1, 96.976, 29.099)">
        <tspan x="-82.049" y="-5.5" font-family="GillSans" font-size="21" fill="#4F4C4B">Client Application/</tspan>
      </text>
      <text transform="matrix(1, 0, 0, 1, 100.398, 40.091)">
        <tspan x="-27.911" y="6.5" font-family="GillSans" font-size="21" fill="#4F4C4B">Driver</tspan>
      </text>
    </g>
  </g>
  <defs/>
</svg>
