<svg xmlns="http://www.w3.org/2000/svg" xmlns:xlink="http://www.w3.org/1999/xlink" height="600" width="1200"><path d="M308 440a71 71 0 0 1 72 70 71 71 0 0 1-72 70H92a71 71 0 0 1-72-70 71 71 0 0 1 72-70z" fill="#69b241" stroke="#000" stroke-width="2"/><path d="M80 385a5 5 0 0 1 5-5h230a5 5 0 0 1 5 5v50a5 5 0 0 1-5 5H85a5 5 0 0 1-5-5z" fill="none"/><use height="100%" width="100%" transform="translate(124.3 420.7)" xlink:href="#a"/><use height="100%" width="100%" transform="translate(203.7 420.7)" xlink:href="#b"/><path d="M40 469a5 5 0 0 1 5-5h310a5 5 0 0 1 5 5v82a5 5 0 0 1-5 5H45a5 5 0 0 1-5-5z" fill="none"/><use height="100%" width="100%" transform="translate(93.3 519.8)" xlink:href="#c"/><use height="100%" width="100%" transform="translate(182.2 519.8)" xlink:href="#d"/><use height="100%" width="100%" transform="translate(217.8 519.8)" xlink:href="#e"/><path d="M708 440a71 71 0 0 1 72 70 71 71 0 0 1-72 70H492a71 71 0 0 1-72-70 71 71 0 0 1 72-70z" fill="#69b241" stroke="#000" stroke-width="2"/><path d="M480 385a5 5 0 0 1 5-5h230a5 5 0 0 1 5 5v50a5 5 0 0 1-5 5H485a5 5 0 0 1-5-5z" fill="none"/><use height="100%" width="100%" transform="translate(532.3 420.7)" xlink:href="#a"/><use height="100%" width="100%" transform="translate(611.7 420.7)" xlink:href="#f"/><path d="M440 469a5 5 0 0 1 5-5h310a5 5 0 0 1 5 5v82a5 5 0 0 1-5 5H445a5 5 0 0 1-5-5z" fill="none"/><use height="100%" width="100%" transform="translate(457.8 519.8)" xlink:href="#c"/><use height="100%" width="100%" transform="translate(546.7 519.8)" xlink:href="#d"/><use height="100%" width="100%" transform="translate(582.2 519.8)" xlink:href="#g"/><path d="M180 35a5 5 0 0 1 5-5h170a5 5 0 0 1 5 5v50a5 5 0 0 1-5 5H185a5 5 0 0 1-5-5z" fill="none" stroke="#000" stroke-width="2"/><use height="100%" width="100%" transform="translate(200 66.8)" xlink:href="#h"/><use height="100%" width="100%" transform="translate(231.1 66.8)" xlink:href="#i"/><use height="100%" width="100%" transform="translate(262.2 66.8)" xlink:href="#j"/><use height="100%" width="100%" transform="translate(293.3 66.8)" xlink:href="#k"/><use height="100%" width="100%" transform="translate(324.4 66.8)" xlink:href="#l"/><path d="M400 35a5 5 0 0 1 5-5h170a5 5 0 0 1 5 5v50a5 5 0 0 1-5 5H405a5 5 0 0 1-5-5z" fill="none" stroke="#000" stroke-width="2"/><use height="100%" width="100%" transform="translate(412.2 66.8)" xlink:href="#m"/><use height="100%" width="100%" transform="translate(443.3 66.8)" xlink:href="#n"/><use height="100%" width="100%" transform="translate(474.4 66.8)" xlink:href="#o"/><use height="100%" width="100%" transform="translate(505.6 66.8)" xlink:href="#p"/><use height="100%" width="100%" transform="translate(552.2 66.8)" xlink:href="#q"/><path d="M620 35a5 5 0 0 1 5-5h170a5 5 0 0 1 5 5v50a5 5 0 0 1-5 5H625a5 5 0 0 1-5-5z" fill="none" stroke="#000" stroke-width="2"/><use height="100%" width="100%" transform="translate(640 66.8)" xlink:href="#h"/><use height="100%" width="100%" transform="translate(671.1 66.8)" xlink:href="#i"/><use height="100%" width="100%" transform="translate(702.2 66.8)" xlink:href="#j"/><use height="100%" width="100%" transform="translate(733.3 66.8)" xlink:href="#r"/><use height="100%" width="100%" transform="translate(764.4 66.8)" xlink:href="#l"/><path d="M840 35a5 5 0 0 1 5-5h170a5 5 0 0 1 5 5v50a5 5 0 0 1-5 5H845a5 5 0 0 1-5-5z" fill="none" stroke="#000" stroke-width="2"/><use height="100%" width="100%" transform="translate(852.2 66.8)" xlink:href="#h"/><use height="100%" width="100%" transform="translate(883.3 66.8)" xlink:href="#i"/><use height="100%" width="100%" transform="translate(914.4 66.8)" xlink:href="#j"/><use height="100%" width="100%" transform="translate(945.6 66.8)" xlink:href="#s"/><use height="100%" width="100%" transform="translate(992.2 66.8)" xlink:href="#l"/><path d="M1108 440a71 71 0 0 1 72 70 71 71 0 0 1-72 70H892a71 71 0 0 1-72-70 71 71 0 0 1 72-70z" fill="#69b241" stroke="#000" stroke-width="2"/><path d="M880 385a5 5 0 0 1 5-5h230a5 5 0 0 1 5 5v50a5 5 0 0 1-5 5H885a5 5 0 0 1-5-5z" fill="none"/><use height="100%" width="100%" transform="translate(914.4 420.7)" xlink:href="#a"/><use height="100%" width="100%" transform="translate(993.9 420.7)" xlink:href="#t"/><path d="M840 469a5 5 0 0 1 5-5h310a5 5 0 0 1 5 5v82a5 5 0 0 1-5 5H845a5 5 0 0 1-5-5z" fill="none"/><use height="100%" width="100%" transform="translate(911.1 519.8)" xlink:href="#c"/><use height="100%" width="100%" transform="translate(1000 519.8)" xlink:href="#d"/><use height="100%" width="100%" transform="translate(1035.6 519.8)" xlink:href="#u"/><use height="100%" width="100%" transform="translate(1071.1 519.8)" xlink:href="#v"/><path d="M930 90v130a5 5 0 0 0 5 5h62.7a5 5 0 0 1 5 5v130" fill="none" stroke="#642766" stroke-width="4"/><path d="M1002.7 360l-4.7-14.3h9.3z" fill="#642766" stroke="#642766" stroke-width="4"/><path d="M710 90v130a5 5 0 0 1-5 5h-48a5 5 0 0 0-5 5v130" fill="none" stroke="#69b241" stroke-width="4"/><path d="M652 360l-4.6-14.3h9.2z" fill="#69b241" stroke="#69b241" stroke-width="4"/><path d="M490 90v130a5 5 0 0 0 5 5h56a5 5 0 0 1 5 5v130" fill="none" stroke="#ff8f80" stroke-width="4"/><path d="M556 360l-4.6-14.3h9.2z" fill="#ff8f80" stroke="#ff8f80" stroke-width="4"/><path d="M270 90v130a5 5 0 0 1-5 5h-61.3a5 5 0 0 0-5 5v130" fill="none" stroke="#3aa6dd" stroke-width="4"/><path d="M198.7 360l-4.7-14.3h9.3z" fill="#3aa6dd" stroke="#3aa6dd" stroke-width="4"/><path d="M30 56.8a5 5 0 0 1 5-5h230a5 5 0 0 1 5 5v76.4a5 5 0 0 1-5 5H35a5 5 0 0 1-5-5z" fill="none"/><use height="100%" width="100%" transform="translate(30 66.2)" xlink:href="#w"/><use height="100%" width="100%" transform="translate(30 87.8)" xlink:href="#x"/><use height="100%" width="100%" transform="translate(40 87.8)" xlink:href="#y"/><use height="100%" width="100%" transform="translate(56 87.8)" xlink:href="#z"/><use height="100%" width="100%" transform="translate(66 87.8)" xlink:href="#A"/><use height="100%" width="100%" transform="translate(83 87.8)" xlink:href="#B"/><use height="100%" width="100%" transform="translate(98 87.8)" xlink:href="#C"/><use height="100%" width="100%" transform="translate(30 109.4)" xlink:href="#x"/><use height="100%" width="100%" transform="translate(40 109.4)" xlink:href="#D"/><use height="100%" width="100%" transform="translate(57 109.4)" xlink:href="#z"/><use height="100%" width="100%" transform="translate(67 109.4)" xlink:href="#A"/><use height="100%" width="100%" transform="translate(84 109.4)" xlink:href="#E"/><use height="100%" width="100%" transform="translate(94 109.4)" xlink:href="#F"/><path d="M120 30a30 30 0 0 1 30 30v60a30 30 0 0 1-30 30H50a30 30 0 0 1-30-30V60a30 30 0 0 1 30-30z" fill="#ccc" fill-opacity=".3" stroke="#000" stroke-width="2"/><defs><path id="G" d="M465-160c115 0 219-75 219-184 0-85-61-167-184-242-115-71-295-172-356-264-38-58-60-121-60-194 0-224 182-371 412-371 117 0 224 33 321 98v227c-101-97-209-145-325-145-114 0-223 58-224 162 0 42 15 81 46 118 59 73 208 148 302 205 170 102 256 231 256 388 0 225-175 378-405 378-138 0-264-42-377-127v-254c108 137 233 205 375 205" fill="#666"/><path id="H" d="M537-793c-115 4-158 59-230 134V0H125v-1397h182v598c105-135 293-188 448-93 113 70 144 170 144 368V0H717v-569c3-122-65-228-180-224" fill="#666"/><path id="I" d="M279 14C154 14 49-84 55-209c11-240 284-270 473-344 10-137-37-215-166-215-99 0-196 51-290 154v-199c71-83 172-125 305-125 171 0 301 80 323 228s4 380 7 548c0 31 11 47 32 47 22 0 56-16 103-49v111c-70 41-94 69-178 69-78 0-124-31-138-92-77 60-160 90-247 90zm-43-254c-2 75 56 129 131 129 58 0 112-24 161-71v-273c-79 31-209 74-254 121-25 26-38 57-38 94" fill="#666"/><path id="J" d="M541-764c-125-1-217 148-217 283V0H141v-920h183v211c142-236 286-310 489-125l-96 160c-63-60-122-90-176-90" fill="#666"/><path id="K" d="M90-475c0-262 193-465 453-465 61 0 128 13 200 39v-496h183V0H537C263 3 90-196 90-475zm481-307c-186-2-297 138-297 329 0 141 61 243 159 281 51 21 218 15 310 16v-583c-57-29-114-43-172-43" fill="#666"/><g id="a"><use height="100%" width="100%" xlink:href="#G" transform="scale(.0152)"/><use height="100%" width="100%" xlink:href="#H" transform="translate(14.2) scale(.01519)"/><use height="100%" width="100%" xlink:href="#I" transform="translate(29.8) scale(.01519)"/><use height="100%" width="100%" xlink:href="#J" transform="translate(43) scale(.01519)"/><use height="100%" width="100%" xlink:href="#K" transform="translate(55) scale(.01519)"/></g><path id="L" d="M600-1405h141L1366 0h-205L975-414H381L205 0H0zm293 813l-225-506-209 506h434" fill="#666"/><path id="M" d="M133-1397h182V0H133v-1397" fill="#666"/><path id="N" d="M954-457c0 336-314 572-651 434v492H117V-920h319c311-4 518 162 518 463zM479-141c172 0 291-141 291-318 0-122-61-217-144-259-65-33-210-33-323-32v566c56 29 115 43 176 43" fill="#666"/><g id="b"><use height="100%" width="100%" xlink:href="#L" transform="scale(.0152)"/><use height="100%" width="100%" xlink:href="#M" transform="translate(20.8) scale(.01519)"/><use height="100%" width="100%" xlink:href="#N" transform="translate(27.6) scale(.01519)"/><use height="100%" width="100%" xlink:href="#H" transform="translate(43.1) scale(.01519)"/><use height="100%" width="100%" xlink:href="#I" transform="translate(58.7) scale(.01519)"/></g><path id="O" d="M298 9c-94 0-131-85-131-173 0-78 4-156 10-234H70l1-59h109l8-122 79-13c4 10-4 16-6 27-5 25-12 108-12 108h150v59H249c-9 66-12 213-6 267 6 55 43 73 77 73 28 0 63-12 102-41l22 57C405-14 352 9 298 9"/><path id="P" d="M366-269c2-83-14-137-109-139-42 0-94 12-131 51l-35-46c43-44 101-64 163-64 110 0 181 69 181 184V0h-68v-50C317-9 259 11 203 11 23 8-5-195 154-249c63-21 138-20 212-20zm3 55c-54 1-120-4-167 7-57 14-81 51-81 84 0 41 35 79 96 79 60 0 104-36 120-54 39-46 31-65 32-116"/><path id="Q" d="M126-314c0 55 45 100 101 100s100-45 100-100-44-101-100-101-101 46-101 101zm11 199c9 36 35 35 92 35 52 0 107-6 155 13 49 20 71 59 71 99 0 61-55 140-210 140C85 172 38 114 38 64c0-36 26-70 75-101-29-15-37-42-37-61 0-29 19-60 52-88-42-27-68-74-68-124 0-133 184-217 279-118 35-30 81-45 127-41l9 59c-41-6-74 2-106 20 77 121-53 276-200 223-4 4-32 28-32 52zm107 233c53 0 145-29 145-81 0-20-11-48-54-53s-135-1-174-8c-52 25-92 93-12 127 35 14 74 15 95 15"/><path id="R" d="M432-396l-42 63c-7 0-3-13-7-18-17-22-62-62-127-62-88-1-140 75-51 117 43 21 116 31 168 60 54 30 67 72 67 104 0 69-65 142-190 142-69 0-139-22-193-72l41-72c9 7 1 12 8 20 14 16 65 64 143 64 102 0 167-82 71-131-33-17-83-27-122-41-25-9-112-38-112-118 0-68 70-128 176-128 68 0 128 25 170 72"/><g id="c"><use height="100%" width="100%" xlink:href="#O" transform="scale(.03556)"/><use height="100%" width="100%" xlink:href="#P" transform="translate(17.8) scale(.03556)"/><use height="100%" width="100%" xlink:href="#Q" transform="translate(35.6) scale(.03556)"/><use height="100%" width="100%" xlink:href="#R" transform="translate(53.3) scale(.03556)"/></g><path id="S" d="M298-365c0 31-26 57-59 57s-60-25-60-57c0-31 27-58 60-58s59 27 59 58zm0 319c0 31-26 57-59 57s-60-25-60-57c0-31 27-58 60-58s59 27 59 58"/><use height="100%" width="100%" id="d" xlink:href="#S" transform="scale(.03556)"/><path id="T" d="M131-670h286v60H195V32h223v57H131v-759"/><path id="U" d="M397-605c6 27-41 146-58 193l-55-13c11-40 29-75 31-123 0-22-6-41-6-63 0-40 24-55 43-55 20 0 45 16 45 61zm-173 0c6 27-40 146-57 193l-56-13c11-40 30-75 32-123 0-22-7-41-7-63 0-40 24-55 43-55 20 0 45 16 45 61"/><path id="V" d="M15 1l220-635h8L483 0h-72l-69-182H144L84 1H15zm311-237l-88-238-80 238h168"/><path id="W" d="M369-670V89H83V32h223v-642H84v-60h285"/><g id="e"><use height="100%" width="100%" xlink:href="#T" transform="scale(.03556)"/><use height="100%" width="100%" xlink:href="#U" transform="translate(17.8) scale(.03556)"/><use height="100%" width="100%" xlink:href="#V" transform="translate(35.6) scale(.03556)"/><use height="100%" width="100%" xlink:href="#U" transform="translate(53.3) scale(.03556)"/><use height="100%" width="100%" xlink:href="#W" transform="translate(71.1) scale(.03556)"/></g><path id="X" d="M776-739c182 31 334 160 334 358 0 166-92 267-216 328C823-18 734 0 627 0H154v-1397c212 7 494-22 636 47 116 56 199 157 199 316 0 137-71 236-213 295zm-289-60c185 3 295-63 295-219 0-134-85-201-256-201H354v420h133zm272 204c-77-32-277-25-405-26v443c125-1 352 2 420-26 102-41 175-202 92-312-26-35-62-60-107-79" fill="#666"/><path id="Y" d="M512-938c262 0 413 213 401 494H266c6 169 125 288 299 288 120 0 231-37 332-112v178C790-20 702 12 537 14c-210 1-322-95-397-232-39-71-56-154-56-247 0-265 171-473 428-473zm221 385c-7-136-83-227-221-227-143 0-220 95-242 227h463" fill="#666"/><path id="Z" d="M0-774l342-336v190h291v164H342v451c0 105 44 158 131 158 65 0 134-22 207-66v170C550 33 349 44 243-57c-73-70-84-127-83-291v-408H0v-18" fill="#666"/><g id="f"><use height="100%" width="100%" xlink:href="#X" transform="scale(.0152)"/><use height="100%" width="100%" xlink:href="#Y" transform="translate(17.5) scale(.01519)"/><use height="100%" width="100%" xlink:href="#Z" transform="translate(32.4) scale(.01519)"/><use height="100%" width="100%" xlink:href="#I" transform="translate(42.8) scale(.01519)"/></g><path id="aa" d="M230 34c-6-47-51-27-51-80 0-30 24-57 57-57 36 0 70 32 70 83 0 52-37 117-107 188l-34-30c36-40 54-52 65-104"/><path id="ab" d="M457-173C457-69 349 0 224 0H48v-623h177c109-13 207 59 207 152 0 60-36 114-92 137 70 24 117 88 117 161zm-95-291c0-61-72-100-146-100h-99v199h98c73 9 147-36 147-99zm21 284c0-74-75-126-164-126H117v245h119c82 8 147-49 147-119"/><g id="g"><use height="100%" width="100%" xlink:href="#T" transform="scale(.03556)"/><use height="100%" width="100%" xlink:href="#U" transform="translate(17.8) scale(.03556)"/><use height="100%" width="100%" xlink:href="#V" transform="translate(35.6) scale(.03556)"/><use height="100%" width="100%" xlink:href="#U" transform="translate(53.3) scale(.03556)"/><use height="100%" width="100%" xlink:href="#aa" transform="translate(71.1) scale(.03556)"/><use height="100%" width="100%" xlink:href="#U" transform="translate(88.9) scale(.03556)"/><use height="100%" width="100%" xlink:href="#ab" transform="translate(106.7) scale(.03556)"/><use height="100%" width="100%" xlink:href="#U" transform="translate(124.4) scale(.03556)"/><use height="100%" width="100%" xlink:href="#W" transform="translate(142.2) scale(.03556)"/></g><path id="ac" d="M163-116c0-78-36-122-110-112v-56c35-1 55 6 86-22 64-88-23-208 73-291 58-51 122-38 196-40v57c-53 2-103-8-135 13-38 24-40 73-40 93 0 24 2 46 2 70 3 68-35 130-87 148 38 13 85 50 85 155 0 81-20 142 38 187 33 26 82 15 136 17v56c-78-2-144 12-192-30-80-70-52-144-52-245"/><use height="100%" width="100%" id="h" xlink:href="#ac" transform="scale(.03111)"/><path id="ad" d="M379-624h70L291-319 468 0h-79L251-247 117 0H41l170-318L44-624h75l131 237"/><use height="100%" width="100%" id="i" xlink:href="#ad" transform="scale(.03111)"/><use height="100%" width="100%" id="j" xlink:href="#S" transform="scale(.03111)"/><path id="ae" d="M258-631c91 0 162 66 162 148 0 60-39 118-99 150 70 32 120 99 120 172 0 95-82 171-191 171C143 10 60-64 60-157c0-72 51-139 125-174-56-29-95-85-95-146 0-84 73-154 168-154zm-21 328c-59 25-105 78-105 137 0 63 53 113 121 113 67 0 117-49 117-109 0-61-53-116-133-141zm16-269c-54 0-96 40-96 89 0 82 110 125 110 125 49-26 85-73 85-121 0-52-43-93-99-93"/><use height="100%" width="100%" id="k" xlink:href="#ae" transform="scale(.03111)"/><path id="af" d="M352-256c-52-19-90-80-87-148 0-24 3-46 3-70 0-20-2-69-40-93-32-21-83-11-136-13v-57c74 2 140-14 196 40 65 62 49 118 47 206 0 24 2 61 26 85 30 29 52 21 87 22v56c-74-10-110 34-110 112 0 101 28 175-52 245-48 42-115 28-193 30v-56c54-2 104 9 137-17 58-45 38-106 38-187 0-105 46-142 84-155"/><use height="100%" width="100%" id="l" xlink:href="#af" transform="scale(.03111)"/><use height="100%" width="100%" id="m" xlink:href="#ac" transform="scale(.03111)"/><use height="100%" width="100%" id="n" xlink:href="#ad" transform="scale(.03111)"/><use height="100%" width="100%" id="o" xlink:href="#S" transform="scale(.03111)"/><path id="ag" d="M298-624v570h112V1H116v-55h115v-483l-123 36-17-39 160-84h47"/><path id="ah" d="M411-467c0 61-37 114-93 135 65 24 107 87 107 161 0 97-73 182-192 182-62 0-122-25-164-71l53-63c9 9 5 18 13 28 4 5 39 42 97 42 73 0 126-59 126-127 1-84-81-129-178-116v-56c59 0 87-11 98-16 103-41 81-197-42-195-39 0-78 17-107 48l-39-43c39-43 93-67 149-67 99 0 172 73 172 158"/><g id="p"><use height="100%" width="100%" xlink:href="#ag" transform="scale(.03111)"/><use height="100%" width="100%" xlink:href="#ah" transform="translate(15.6) scale(.03111)"/></g><use height="100%" width="100%" id="q" xlink:href="#af" transform="scale(.03111)"/><use height="100%" width="100%" id="r" xlink:href="#ah" transform="scale(.03111)"/><path id="ai" d="M244-566c-67 0-104 39-115 80l-51-40c37-63 103-101 174-101 102 0 181 78 181 175 0 90-64 153-110 196-45 42-117 104-169 195h261c11 1 12-12 24-9V0H73v-44c52-104 110-168 181-232 45-41 110-95 110-171 0-67-54-119-120-119"/><g id="s"><use height="100%" width="100%" xlink:href="#ai" transform="scale(.03111)"/><use height="100%" width="100%" xlink:href="#ah" transform="translate(15.6) scale(.03111)"/></g><path id="aj" d="M307-694c0 306 244 526 555 526 169 0 335-52 496-156v220C1119 35 700 64 453-78 260-188 105-411 100-694c-8-401 347-721 754-721 147 0 310 38 489 115v215c-163-93-323-140-479-140-306 0-557 229-557 531" fill="#666"/><path id="ak" d="M117-1200c0-54 52-107 106-107 58 0 109 49 109 107 0 57-51 108-109 108-54 0-106-53-106-108zm16 280h182V0H133v-920" fill="#666"/><g id="t"><use height="100%" width="100%" xlink:href="#aj" transform="scale(.0152)"/><use height="100%" width="100%" xlink:href="#H" transform="translate(22) scale(.01519)"/><use height="100%" width="100%" xlink:href="#I" transform="translate(37.6) scale(.01519)"/><use height="100%" width="100%" xlink:href="#J" transform="translate(50.9) scale(.01519)"/><use height="100%" width="100%" xlink:href="#M" transform="translate(63.2) scale(.01519)"/><use height="100%" width="100%" xlink:href="#ak" transform="translate(70) scale(.01519)"/><use height="100%" width="100%" xlink:href="#Y" transform="translate(76.8) scale(.01519)"/></g><use height="100%" width="100%" id="u" xlink:href="#T" transform="scale(.03556)"/><use height="100%" width="100%" id="v" xlink:href="#W" transform="scale(.03556)"/><path id="al" d="M127-220V0H93v-220H8v-28h204v28h-85"/><path id="am" d="M141-36C126-15 110 5 73 4 37 3 15-17 15-53c-1-64 63-63 125-63 3-35-9-54-41-54-24 1-41 7-42 31l-33-3c5-37 33-52 76-52 45 0 72 20 72 64v82c-1 20 7 32 28 27v20c-31 9-61-2-59-35zM48-53c0 20 12 33 32 33 41-3 63-29 60-74-43 2-92-5-92 41"/><path id="an" d="M177-190C167-65 218 103 67 71c-23-6-38-20-44-43l32-5c15 47 100 32 89-28v-30C133-14 115 1 83 1 29 1 15-40 15-95c0-56 16-97 71-98 29-1 48 16 59 35 1-10 0-23 2-32h30zM94-22c36 0 50-32 50-73 0-42-14-75-50-75-39 0-46 34-46 75s6 73 46 73"/><path id="ao" d="M135-143c-3-34-86-38-87 0 15 53 115 12 119 90S17 21 10-45l28-5c4 36 97 45 98 0-10-56-113-15-118-90-4-57 82-63 122-42 12 7 21 19 24 35"/><g id="w"><use height="100%" width="100%" xlink:href="#al" transform="scale(.05)"/><use height="100%" width="100%" xlink:href="#am" transform="translate(9) scale(.05)"/><use height="100%" width="100%" xlink:href="#an" transform="translate(19) scale(.05)"/><use height="100%" width="100%" xlink:href="#ao" transform="translate(29) scale(.05)"/></g><path id="ap" d="M26 75v-336h71v23H56V52h41v23H26"/><use height="100%" width="100%" id="x" xlink:href="#ap" transform="scale(.05)"/><path id="aq" d="M205 0l-28-72H64L36 0H1l101-248h38L239 0h-34zm-38-99l-47-123c-12 45-31 82-46 123h93"/><use height="100%" width="100%" id="y" xlink:href="#aq" transform="scale(.05)"/><path id="ar" d="M3 75V52h41v-290H3v-23h71V75H3"/><use height="100%" width="100%" id="z" xlink:href="#ar" transform="scale(.05)"/><path id="as" d="M195 0l-74-108L45 0H8l94-129-87-119h37l69 98 67-98h37l-84 118L233 0h-38"/><use height="100%" width="100%" id="A" xlink:href="#as" transform="scale(.05)"/><path id="at" d="M33-154v-36h34v36H33zM33 0v-36h34V0H33"/><use height="100%" width="100%" id="B" xlink:href="#at" transform="scale(.05)"/><path id="au" d="M27 0v-27h64v-190l-56 39v-29l58-41h29v221h61V0H27"/><path id="av" d="M16-82v-28h88v28H16"/><path id="aw" d="M101-251c68 0 85 55 85 127S166 4 100 4C33 4 14-52 14-124c0-73 17-127 87-127zm-1 229c47 0 54-49 54-102s-4-102-53-102c-51 0-55 48-55 102 0 53 5 102 54 102"/><g id="C"><use height="100%" width="100%" xlink:href="#au" transform="scale(.05)"/><use height="100%" width="100%" xlink:href="#av" transform="translate(10) scale(.05)"/><use height="100%" width="100%" xlink:href="#au" transform="translate(16) scale(.05)"/><use height="100%" width="100%" xlink:href="#aw" transform="translate(26) scale(.05)"/></g><path id="ax" d="M160-131c35 5 61 23 61 61C221 17 115-2 30 0v-248c76 3 177-17 177 60 0 33-19 50-47 57zm-97-11c50-1 110 9 110-42 0-47-63-36-110-37v79zm0 115c55-2 124 14 124-45 0-56-70-42-124-44v89"/><use height="100%" width="100%" id="D" xlink:href="#ax" transform="scale(.05)"/><use height="100%" width="100%" id="E" xlink:href="#at" transform="scale(.05)"/><path id="ay" d="M101-251c82-7 93 87 43 132L82-64C71-53 59-42 53-27h129V0H18c2-99 128-94 128-182 0-28-16-43-45-43s-46 15-49 41l-32-3c6-41 34-60 81-64"/><g id="F"><use height="100%" width="100%" xlink:href="#au" transform="scale(.05)"/><use height="100%" width="100%" xlink:href="#aw" transform="translate(10) scale(.05)"/><use height="100%" width="100%" xlink:href="#av" transform="translate(20) scale(.05)"/><use height="100%" width="100%" xlink:href="#ay" transform="translate(26) scale(.05)"/><use height="100%" width="100%" xlink:href="#aw" transform="translate(36) scale(.05)"/></g></defs></svg>