<svg xmlns="http://www.w3.org/2000/svg" width="500" height="180" fill="none"><path fill="#fff" d="M0 0h500v180H0z"/><path fill="#5CA831" d="M132.1 22.8c0-2.6-1.7-4.7-4-4.7h-114c-2.2 0-4 2.1-4 4.7v134.4c0 2.6 1.8 4.7 4 4.7h114c2.3 0 4-2.1 4-4.7z"/><path stroke="#AED675" stroke-dasharray="3 2" d="M132.1 22.8c0-2.6-1.7-4.7-4-4.7h-114c-2.2 0-4 2.1-4 4.7v134.4c0 2.6 1.8 4.7 4 4.7h114c2.3 0 4-2.1 4-4.7z"/><path fill="#FFFFFE" d="M38 33.2 36.4 32q-1.7-1-2.4-2t-.7-2.3q0-2 1.3-3.1 1.4-1.3 3.5-1.3 2 0 3.8 1.2v2.7q-1.899-1.6-3.9-1.6-1.2 0-2 .5-.7.5-.7 1.4 0 .7.6 1.3.5.7 1.7 1.4l1.8 1q3 1.8 3 4.6 0 2-1.3 3.2t-3.4 1.2q-2.5 0-4.4-1.5v-3q1.9 2.5 4.4 2.5 1 0 1.8-.7.7-.6.7-1.5 0-1.5-2.1-2.8zm6.7-9.5h2.1v7q1.401-1.7 3.3-1.7 1.1 0 2 .6.801.501 1.2 1.5.5 1 .5 2.8V40h-2.2v-6.6q0-1.2-.6-2-.5-.7-1.5-.7-.7 0-1.3.4l-1.4 1.2V40h-2.1zm18.8 9.9V38q0 .6.4.6T65 38v1.3q-.699.501-1.2.6-.399.2-.9.2-1.399 0-1.6-1-1.4 1-3 1-.999 0-1.8-.7-.7-.8-.7-2 0-1 .7-1.7.7-.8 2-1.3l2.8-1V33q0-2-2-2-1.7 0-3.3 1.8v-2.3q1.2-1.5 3.5-1.5 1.8 0 2.8 1 .4.2.7.7t.3 1l.1 1.9zm-2 4.3v-3.2l-1.5.5q-1.1.5-1.6 1-.4.4-.4 1 0 .7.4 1.1t1.1.4q1 0 2-.8m7.8-8.7v2.5l.1-.2q1.5-2.5 3-2.5 1.3 0 2.6 1.3L74 32q-1.1-1-2-1-1.1 0-1.9 1-.7 1-.7 2.3V40H67V29.2h2.3m14-5.5h2.2V40h-4.6q-2.4 0-3.8-1.5t-1.4-4q0-2.4 1.5-4Q78.7 29 81 29q1 0 2.3.5zm0 14.5v-6.8q-.998-.5-2-.5-1.6 0-2.5 1-1 1-1 2.8 0 1.7.9 2.6.4.5 1 .7.5.2 2 .2zm14.9-14.6h1.6l7.301 16.4h-2.4l-2.2-4.8h-7l-2 4.8h-2.4l7-16.4zm3.401 9.5-2.6-6.1-2.5 6h5z"/><path fill="#fff" d="M35.3 58h29.3v42.5H35.3z"/><path stroke="#0C60B2" stroke-width=".9" d="M35.3 58h29.3v42.5H35.3z"/><path fill="#fff" d="M30.1 62.4h30.2v38.8H30.1z"/><path stroke="#0C60B2" stroke-width=".9" d="M30.1 62.4h30.2v38.8H30.1z"/><path fill="#fff" d="M35.3 107.699h29.3v42.3H35.3z"/><path stroke="#0C60B2" stroke-width=".9" d="M35.3 107.699h29.3v42.3H35.3z"/><path fill="#fff" d="M30.1 112h30.2v39H30.1z"/><path stroke="#0C60B2" stroke-width=".9" d="M30.1 112h30.2v39H30.1z"/><path fill="#fff" d="M80.8 58h29.201v42.5h-29.2z"/><path stroke="#0C60B2" stroke-width=".9" d="M80.8 58h29.201v42.5h-29.2z"/><path fill="#fff" d="M75.6 62.4h30.2v38.8H75.6z"/><path stroke="#0C60B2" stroke-width=".9" d="M75.6 62.4h30.2v38.8H75.6z"/><path fill="#FFFFFE" d="m377.601 33.3-1.7-1.1q-1.701-1-2.4-2-.7-1-.7-2.3 0-2 1.3-3.1 1.4-1.3 3.5-1.3 2 0 3.8 1.2v2.7q-1.8-1.7-3.8-1.7-1.2 0-2 .5-.7.5-.7 1.4 0 .7.6 1.3.5.7 1.7 1.4l1.8 1q3 1.8 3 4.6 0 2-1.3 3.2t-3.4 1.2q-2.5 0-4.5-1.5v-3q2 2.5 4.4 2.5 1.1 0 1.9-.7.7-.6.7-1.5 0-1.5-2.2-2.8m6.7-9.5h2.1v7q1.299-1.7 3.3-1.7 1.1 0 2 .6.8.5 1.2 1.5t.4 2.8v6h-2v-6.6q0-1.2-.7-2-.6-.7-1.5-.7-.7 0-1.3.4l-1.4 1.2V40h-2.1zm18.7 9.8v4.6q0 .6.5.6.399 0 1.2-.6v1.3l-1.2.6q-.4.2-1 .2-1.3 0-1.5-1-1.401 1-3 1-1 0-1.8-.7-.8-.8-.8-2 0-1 .8-1.7.7-.8 2-1.3l2.8-1v-.5q0-2-2-2-1.7 0-3.4 1.8v-2.3q1.299-1.5 3.6-1.5 1.8 0 2.8 1 .4.2.7.7l.3 1zm-2 4.4v-3.2l-1.4.5q-1.1.5-1.6 1-.4.4-.4 1 0 .7.4 1.1t1.1.4q1 0 1.9-.8m7.9-8.7v2.5-.2q1.6-2.5 3.2-2.5 1.2 0 2.5 1.3l-1.1 1.8q-1.1-1-2-1-1.1 0-1.9 1-.7 1-.7 2.3V40h-2.2V29.3zm14.1-5.5h2V40h-4.5q-2.4 0-3.8-1.5t-1.4-4q0-2.4 1.5-4 1.5-1.5 3.8-1.5 1 0 2.3.5v-5.8zm0 14.5v-6.8a4.64 4.64 0 0 0-2.1-.5q-1.6 0-2.5 1-1 1-1 2.8 0 1.7.8 2.6.5.5 1 .7.6.2 2 .2h1.8m26-2V39q-2.601 1.4-6 1.4-2.7 0-4.6-1a8.9 8.9 0 0 1-3-3.1q-1.1-2-1.1-4.2 0-3.6 2.5-6 2.6-2.5 6.3-2.5 2.6 0 5.7 1.4v2.5q-2.8-1.6-5.6-1.6t-4.7 1.8q-1.8 1.7-1.8 4.4t1.8 4.4q1.9 1.8 4.7 1.8 3 0 5.8-1.9z"/><path fill="#5CA831" d="M311 22.9c0-2.6-1.8-4.7-4-4.7H193c-2.2 0-4 2.1-4 4.7v134.399c0 2.6 1.8 4.7 4 4.7h114c2.2 0 4-2.1 4-4.7z"/><path stroke="#AED675" stroke-dasharray="3 2" d="M311 22.9c0-2.6-1.8-4.7-4-4.7H193c-2.2 0-4 2.1-4 4.7v134.399c0 2.6 1.8 4.7 4 4.7h114c2.2 0 4-2.1 4-4.7z"/><path fill="#FFFFFE" d="m216 33.3-1.8-1.1q-1.701-1-2.4-2-.7-1-.7-2.3 0-2 1.3-3.1 1.4-1.3 3.5-1.3 2 0 3.8 1.2v2.7q-1.8-1.7-3.8-1.7-1.2 0-1.9.5t-.7 1.4q0 .7.5 1.3.5.7 1.7 1.4l1.8 1q3 1.8 3 4.6 0 2-1.3 3.2t-3.4 1.2q-2.4 0-4.4-1.5v-3q1.9 2.5 4.4 2.5.999 0 1.8-.7.7-.6.7-1.5 0-1.5-2.1-2.8m6.6-9.5h2.1v7q1.4-1.7 3.4-1.7 1 0 1.9.6.8.5 1.2 1.5.5 1 .5 2.8v6h-2.2v-6.6q0-1.2-.5-2-.6-.7-1.6-.7-.7 0-1.3.4l-1.4 1.2V40h-2.1zm18.8 9.8v4.6q0 .6.4.6.399 0 1.2-.6v1.3q-.7.5-1.2.6-.4.2-.9.2-1.4 0-1.6-1-1.4 1-2.9 1-1.1 0-1.9-.7-.7-.8-.7-2 0-1 .7-1.7.7-.8 2-1.3l2.8-1v-.5q0-2-2-2-1.701 0-3.3 1.8v-2.3q1.2-1.5 3.6-1.5 1.7 0 2.8 1l.6.7q.3.5.3 1zm-2 4.4v-3.2l-1.5.5q-1.1.5-1.6 1-.4.4-.4 1 0 .7.4 1.1.5.4 1.1.4 1 0 2-.8m7.8-8.7v2.5l.1-.2q1.6-2.5 3.1-2.5 1.2 0 2.5 1.3l-1.1 1.8q-1.1-1-2-1-1 0-1.9 1-.7 1-.7 2.3V40h-2.1V29.3zm14-5.5h2.2V40h-4.6q-2.4 0-3.8-1.5t-1.4-4q0-2.4 1.5-4 1.5-1.5 3.8-1.5 1 0 2.3.5v-5.8zm0 14.5v-6.8q-1-.5-2-.5-1.6 0-2.5 1-1 1-1 2.8 0 1.7.9 2.6.5.5 1 .7.6.2 2 .2zm17.6 1.8h-5.6V23.8h4.3q2 0 3.2.5a3.73 3.73 0 0 1 1.7 1.5q.6 1 .6 2.2 0 2.4-2.5 3.5 1.8.3 2.9 1.4 1 1.2 1 2.8 0 1.2-.6 2.2t-1.9 1.6q-1.2.6-3.1.6m-1.2-14.3h-2v5h1.5q2 0 2.7-.8.8-.7.8-1.8 0-2.4-3-2.4m.2 7h-2.2V38h2.3q2 0 2.6-.3.7-.3 1-.9.5-.6.5-1.3 0-.8-.4-1.4a4 4 0 0 0-1.3-1q-.8-.3-2.5-.3"/><path fill="#fff" d="M214.199 58.1h29.3v42.5h-29.3z"/><path stroke="#0C60B2" stroke-width=".9" d="M214.199 58.1h29.3v42.5h-29.3z"/><path fill="#fff" d="M209 62.5h30.2v38.8H209z"/><path stroke="#0C60B2" stroke-width=".9" d="M209 62.5h30.2v38.8H209z"/><path fill="#fff" d="M214.199 107.801h29.3v42.4h-29.3z"/><path stroke="#0C60B2" stroke-width=".9" d="M214.199 107.801h29.3v42.4h-29.3z"/><path fill="#fff" d="M209 112.1h30.2V151H209z"/><path stroke="#0C60B2" stroke-width=".9" d="M209 112.1h30.2V151H209z"/><path fill="#fff" d="M259.699 58.1h29.2v42.5h-29.2z"/><path stroke="#0C60B2" stroke-width=".9" d="M259.699 58.1h29.2v42.5h-29.2z"/><path fill="#fff" d="M254.4 62.5h30.2v38.8h-30.2z"/><path stroke="#0C60B2" stroke-width=".9" d="M254.4 62.5h30.2v38.8h-30.2z"/><path fill="#5CA831" d="M489.699 22.8c0-2.6-1.8-4.7-4-4.7h-114c-2.3 0-4 2.1-4 4.7v134.4c0 2.6 1.7 4.7 4 4.7h114c2.2 0 4-2.1 4-4.7z"/><path stroke="#AED675" stroke-dasharray="3 2" d="M489.699 22.8c0-2.6-1.8-4.7-4-4.7h-114c-2.3 0-4 2.1-4 4.7v134.4c0 2.6 1.7 4.7 4 4.7h114c2.2 0 4-2.1 4-4.7z"/><path fill="#FFFFFE" d="m393 33.3-1.9-1.1q-1.6-1-2.4-2-.7-1-.7-2.3 0-2 1.4-3.1 1.3-1.3 3.5-1.3 2 0 3.7 1.2v2.7q-1.7-1.7-3.8-1.7-1.1 0-1.9.5-.7.5-.7 1.4 0 .7.5 1.3.6.7 1.8 1.4l1.8 1q3 1.8 3 4.6 0 2-1.4 3.2-1.3 1.2-3.4 1.2-2.4 0-4.4-1.5v-3q1.9 2.5 4.4 2.5 1.1 0 1.8-.7.8-.6.8-1.5 0-1.5-2.2-2.8zm6.5-9.5h2.2v7Q403 29 405 29q1 0 2 .6.8.5 1.2 1.5t.4 2.8V40h-2.1v-6.6q0-1.2-.6-2-.6-.7-1.5-.7-.7 0-1.4.4-.6.4-1.3 1.2V40h-2.2zm18.9 9.8v4.6q0 .6.3.6.4 0 1.2-.6v1.3q-.7.5-1.1.6l-1 .2q-1.3 0-1.6-1-1.3 1-2.9 1-1 0-1.8-.7-.8-.8-.8-2 0-1 .7-1.7.8-.8 2.1-1.3l2.8-1v-.5q0-2-2-2-1.7 0-3.4 1.8v-2.3q1.3-1.5 3.6-1.5 1.7 0 2.8 1l.6.7.4 1v1.8zm-2.1 4.4v-3.2l-1.5.5q-1 .5-1.5 1-.5.4-.5 1 0 .7.5 1.1.4.4 1 .4 1 0 2-.8m7.8-8.7v2.5l.1-.2q1.6-2.5 3.1-2.5 1.2 0 2.6 1.3l-1.2 1.8q-1-1-2-1t-1.8 1a3.58 3.58 0 0 0-.8 2.3V40H422V29.3zm14.1-5.5h2.1V40h-4.5q-2.4 0-3.9-1.5-1.4-1.5-1.4-4 0-2.4 1.5-4 1.5-1.5 3.8-1.5 1.1 0 2.4.5v-5.8zm0 14.5v-6.8q-1-.5-2-.5-1.6 0-2.6 1t-1 2.8q0 1.7.9 2.6.5.5 1 .7.6.2 2 .2zm26.1-2V39q-2.6 1.4-6 1.4-2.7 0-4.6-1-2-1.2-3-3.1-1.2-2-1.2-4.2 0-3.6 2.6-6 2.5-2.5 6.3-2.5 2.5 0 5.7 1.4v2.5q-2.9-1.6-5.6-1.6-2.8 0-4.7 1.8-1.8 1.7-1.8 4.4t1.8 4.4q1.8 1.8 4.7 1.8 3 0 5.8-1.9z"/><path fill="#fff" d="M392.9 58H422v42.5h-29z"/><path stroke="#0C60B2" stroke-width=".9" d="M392.9 58H422v42.5h-29z"/><path fill="#fff" d="M387.6 62.4h30.2v38.8h-30.2z"/><path stroke="#0C60B2" stroke-width=".9" d="M387.6 62.4h30.2v38.8h-30.2z"/><path stroke="#301E12" stroke-width="3" d="M248.6 134H350"/><path fill="#301E12" stroke="#301E12" stroke-width="3" d="m350 138.3 11.2-4.2-11.2-4.2z"/><path fill="#301E12" d="M286.4 116.1h1.7v12.3h-1.8v-9.6l-3.8 4.8h-.3l-3.8-4.8v9.6h-1.8V116h1.7l4 5 4.1-5zm4.9.8q.4 0 .7.3.3.2.3.6t-.3.7-.7.3-.6-.3q-.3-.3-.3-.7 0-.3.3-.6.2-.3.6-.3m-.8 3.4h1.6v8h-1.6zm3.5 2.7q0-1.2 1-2 .9-.7 2.5-.7h3.4v1.2h-1.7q.5.5.7 1 .2.3.2.8 0 .7-.4 1.3-.3.6-1 1l-1.8.4q-.9.2-.9.7 0 .2.4.4l1.2.4 1.9.5.8.5q.5.6.5 1.5 0 1.1-1 1.8t-2.7.7-2.8-.7q-1-.7-1-1.8 0-1.7 2-2.2-.8-.5-.8-1 0-.4.4-.7.3-.3.9-.4-1.8-.8-1.8-2.6zm3-1.3q-.6 0-1 .4-.6.5-.6 1 0 .7.5 1.1.4.4 1.1.4.699 0 1.2-.4.4-.4.4-1 0-.7-.4-1a1.64 1.64 0 0 0-1.2-.5m-.4 7q-.8 0-1.3.4-.5.3-.5.9 0 1.2 2.2 1.2 1.1 0 1.7-.3t.6-.9q0-.5-.8-.9-.7-.3-1.9-.3zm7.2-8.4v1.9l.1-.2q1.2-1.9 2.3-1.9 1 0 2 1l-1 1.4q-.7-.8-1.5-.8-.7 0-1.3.7t-.6 1.8v4.2h-1.6v-8.1zm10.5 3.2v3.5q0 .4.3.4t1-.5v1l-1 .5-.6.1q-1 0-1.3-.8-1 .8-2.1.8-.9 0-1.4-.5-.6-.6-.6-1.5 0-.7.6-1.3.5-.6 1.5-1l2-.7v-.4q0-1.5-1.4-1.5-1.3 0-2.5 1.4v-1.8q.9-1 2.6-1 1.299 0 2.1.6.3.2.5.6l.3.7zm-1.5 3.3v-2.4l-1.1.4q-.801.3-1.2.7-.3.3-.3.8t.3.8.8.3q.8 0 1.5-.6m3-5.2 3-3v1.7h2.6v1.4h-2.6v4q0 1.4 1.2 1.4.8 0 1.8-.6v1.5q-1 .5-2 .5-1.101 0-1.8-.6l-.4-.4-.3-.7v-5.1h-1.5zm14.1 2.9h-5.7q0 1.1.7 1.8.8.7 1.9.7 1.599 0 3-1v1.6a5.6 5.6 0 0 1-1.6.7q-.7.2-1.6.2-1.4 0-2.2-.5-.8-.6-1.3-1.5-.5-1-.5-2.2 0-1.8 1-3 .999-1.2 2.7-1.2 1.6 0 2.6 1.2 1 1 1 3zm-5.7-1h4q0-1-.5-1.5t-1.4-.5q-.8 0-1.4.5-.5.6-.7 1.5"/><path stroke="#0C60B2" stroke-dasharray="2.5 2.5" stroke-width="1.3" d="M392.9 112.5H422v42.4h-29z"/><path stroke="#0C60B2" stroke-dasharray="2.5 2.5" stroke-width="1.3" d="M387.6 116.801h30.2v38.9h-30.2z"/></svg>