<?xml version="1.0" encoding="UTF-8"?>
<!DOCTYPE svg PUBLIC "-//W3C//DTD SVG 1.1//EN" "http://www.w3.org/Graphics/SVG/1.1/DTD/svg11.dtd">
<svg version="1.1" xmlns="http://www.w3.org/2000/svg" xmlns:xlink="http://www.w3.org/1999/xlink" x="0px" y="0px" width="700" height="480" viewBox="0, 0, 700, 480">
  <g id="Layer 1">
    <g>
      <g>
        <g>
          <path d="M649.626,191.148 C649.626,189.804 646.721,188.714 643.13,188.714 L456.122,188.714 C452.536,188.714 449.626,189.804 449.626,191.148 L449.626,261.277 C449.626,262.623 452.536,263.714 456.122,263.714 L643.13,263.714 C646.721,263.714 649.626,262.623 649.626,261.277 L649.626,191.148" fill="#E88B09"/>
          <path d="M649.626,191.148 C649.626,189.804 646.721,188.714 643.13,188.714 L456.122,188.714 C452.536,188.714 449.626,189.804 449.626,191.148 L449.626,261.277 C449.626,262.623 452.536,263.714 456.122,263.714 L643.13,263.714 C646.721,263.714 649.626,262.623 649.626,261.277 L649.626,191.148" fill-opacity="0" stroke="#F7D58F" stroke-width="1" stroke-dasharray="3,2"/>
        </g>
        <text transform="matrix(1, 0, 0, 1, 555.581, 226.214)">
          <tspan x="-90.139" y="7.623" font-family="GillSans" font-size="30" fill="#FFFFFF">Config Server</tspan>
        </text>
      </g>
      <g>
        <g>
          <path d="M686.579,237.023 C686.579,235.679 683.674,234.589 680.083,234.589 L493.076,234.589 C489.489,234.589 486.579,235.679 486.579,237.023 L486.579,307.152 C486.579,308.498 489.489,309.589 493.076,309.589 L680.083,309.589 C683.674,309.589 686.579,308.498 686.579,307.152 L686.579,237.023" fill="#E88B09"/>
          <path d="M686.579,237.023 C686.579,235.679 683.674,234.589 680.083,234.589 L493.076,234.589 C489.489,234.589 486.579,235.679 486.579,237.023 L486.579,307.152 C486.579,308.498 489.489,309.589 493.076,309.589 L680.083,309.589 C683.674,309.589 686.579,308.498 686.579,307.152 L686.579,237.023" fill-opacity="0" stroke="#F7D58F" stroke-width="1" stroke-dasharray="3,2"/>
        </g>
        <text transform="matrix(1, 0, 0, 1, 592.534, 272.089)">
          <tspan x="-90.139" y="7.623" font-family="GillSans" font-size="30" fill="#FFFFFF">Config Server</tspan>
        </text>
      </g>
      <g>
        <path d="M647.57,285.004 C647.57,283.659 644.664,282.569 641.074,282.569 L454.066,282.569 C450.479,282.569 447.57,283.659 447.57,285.004 L447.57,355.133 C447.57,356.478 450.479,357.569 454.066,357.569 L641.074,357.569 C644.664,357.569 647.57,356.478 647.57,355.133 L647.57,285.004" fill="#E88B09"/>
        <path d="M647.57,285.004 C647.57,283.659 644.664,282.569 641.074,282.569 L454.066,282.569 C450.479,282.569 447.57,283.659 447.57,285.004 L447.57,355.133 C447.57,356.478 450.479,357.569 454.066,357.569 L641.074,357.569 C644.664,357.569 647.57,356.478 647.57,355.133 L647.57,285.004" fill-opacity="0" stroke="#F7D58F" stroke-width="1" stroke-dasharray="3,2"/>
      </g>
      <text transform="matrix(1, 0, 0, 1, 553.525, 320.069)">
        <tspan x="-90.139" y="7.623" font-family="GillSans" font-size="30" fill="#FFFFFF">Config Server</tspan>
      </text>
      <g>
        <g>
          <path d="M219.272,53.449 C219.272,52.1 216.366,51.006 212.776,51.006 L25.768,51.006 C22.181,51.006 19.272,52.1 19.272,53.449 L19.272,123.814 C19.272,125.164 22.181,126.259 25.768,126.259 L212.776,126.259 C216.366,126.259 219.272,125.164 219.272,123.814 L219.272,53.449" fill="#2A86C0"/>
          <text transform="matrix(1, 0, 0, 1, 75.272, 88.633)">
            <tspan x="-42.957" y="3.688" font-family="GillSans" font-size="30" fill="#FFFFFF">Query Router</tspan>
          </text>
        </g>
        <text transform="matrix(1, 0, 0, 1, 119.272, 107.994)">
          <tspan x="-38.228" y="5.96" font-family="GillSans" font-size="20" fill="#FFFFFF">(mongos)</tspan>
        </text>
      </g>
      <g>
        <g>
          <path d="M229.248,397.148 C229.248,395.804 226.342,394.714 222.752,394.714 L35.744,394.714 C32.158,394.714 29.248,395.804 29.248,397.148 L29.248,467.277 C29.248,468.623 32.158,469.714 35.744,469.714 L222.752,469.714 C226.342,469.714 229.248,468.623 229.248,467.277 L229.248,397.148" fill="#5CA831"/>
          <path d="M229.248,397.148 C229.248,395.804 226.342,394.714 222.752,394.714 L35.744,394.714 C32.158,394.714 29.248,395.804 29.248,397.148 L29.248,467.277 C29.248,468.623 32.158,469.714 35.744,469.714 L222.752,469.714 C226.342,469.714 229.248,468.623 229.248,467.277 L229.248,397.148" fill-opacity="0" stroke="#AED675" stroke-width="1" stroke-dasharray="3,2"/>
        </g>
        <text transform="matrix(1, -0, 0, 1, 129.248, 432.214)">
          <tspan x="-34.131" y="7" font-family="GillSans" font-size="30" fill="#FFFFFE">Shard</tspan>
        </text>
      </g>
      <g>
        <g>
          <path d="M438.846,397.148 C438.846,395.804 435.94,394.714 432.35,394.714 L245.342,394.714 C241.755,394.714 238.846,395.804 238.846,397.148 L238.846,467.277 C238.846,468.623 241.755,469.714 245.342,469.714 L432.35,469.714 C435.94,469.714 438.846,468.623 438.846,467.277 L438.846,397.148" fill="#5CA831"/>
          <path d="M438.846,397.148 C438.846,395.804 435.94,394.714 432.35,394.714 L245.342,394.714 C241.755,394.714 238.846,395.804 238.846,397.148 L238.846,467.277 C238.846,468.623 241.755,469.714 245.342,469.714 L432.35,469.714 C435.94,469.714 438.846,468.623 438.846,467.277 L438.846,397.148" fill-opacity="0" stroke="#AED675" stroke-width="1" stroke-dasharray="3,2"/>
        </g>
        <text transform="matrix(1, -0, 0, 1, 338.846, 432.214)">
          <tspan x="-34.131" y="7" font-family="GillSans" font-size="30" fill="#FFFFFE">Shard</tspan>
        </text>
      </g>
      <path d="M128.158,385.655 L130.388,382.682 L134.782,378.065 L139.35,374.598 L144.338,371.868 L149.817,369.767 L155.742,368.26 L162.031,367.302 L168.602,366.822 L178.86,366.801 L192.932,367.559 L207.118,368.456 L217.64,368.718 L224.537,368.498 L227.956,368.226 L227.956,368.226 C228.027,368.22 228.101,368.21 228.176,368.195 L228.176,368.195 L228.875,368.059 L230.858,367.216 L233.671,365.036 L236.261,362.415 L237.217,361.842 L237.24,362.128 L237.36,362.23 L237.159,362.205 L237.927,362.366 L239.741,362.964 L243.227,364.416 L248.384,366.752 L251.945,368.28 L253.911,368.977 L254.761,369.195 L254.761,369.195 C254.789,369.202 254.818,369.209 254.848,369.214 L254.848,369.214 L257.452,369.651 L262.775,370.126 L270.789,370.005 L281.395,368.871 L291.75,367.456 L299.228,366.751 L304.033,366.653 L308.729,366.969 L313.294,367.805 L317.726,369.268 L322.02,371.468 L326.168,374.518 L330.158,378.533 L332.072,380.92 L332.072,380.92 C332.594,381.568 333.99,381.172 335.192,380.034 C336.394,378.896 336.945,377.447 336.424,376.799 C336.424,376.799 336.424,376.799 336.424,376.799 L334.403,374.293 L330.235,370.124 L325.868,366.94 L321.319,364.635 L316.609,363.102 L311.765,362.232 L306.814,361.91 L301.762,362.023 L294.128,362.745 L283.882,364.147 L273.586,365.262 L265.87,365.393 L260.737,364.942 L258.132,364.505 L258.219,364.523 L257.546,364.358 L255.69,363.704 L252.162,362.19 L246.953,359.832 L243.331,358.33 L241.301,357.674 L240.532,357.513 L240.532,357.513 C240.469,357.5 240.402,357.492 240.332,357.489 L240.332,357.489 L239.063,357.531 L236.529,358.5 L234.031,360.404 L232.265,362.255 L231.611,363.017 L231.02,363.387 L230.32,363.524 L230.54,363.493 L227.283,363.756 L220.56,363.976 L210.146,363.718 L195.934,362.819 L181.699,362.057 L171.209,362.088 L164.341,362.602 L157.608,363.652 L151.016,365.376 L144.571,367.938 L138.316,371.514 L132.409,376.204 L127.183,381.807 L124.952,384.782 C123.986,386.069 123.921,387.309 124.807,387.55 C125.692,387.791 127.192,386.943 128.158,385.655 L128.158,385.655" fill="#5CA831"/>
      <g>
        <path d="M268.317,344.859 L381.381,297.526" fill-opacity="0" stroke="#E88B09" stroke-width="4" stroke-dasharray="8,4"/>
        <path d="M266.463,340.432 L256.51,349.802 L270.17,349.287 z" fill="#E88B09" fill-opacity="1" stroke="#E88B09" stroke-width="4" stroke-opacity="1"/>
        <path d="M383.235,301.953 L393.188,292.583 L379.527,293.098 z" fill="#E88B09" fill-opacity="1" stroke="#E88B09" stroke-width="4" stroke-opacity="1"/>
      </g>
      <path d="M429.99,198.178 L427.829,200.047 L423.745,204.386 L420.444,209.139 L418.094,213.988 L416.575,218.826 L415.716,223.652 L415.34,230.881 L415.901,240.673 L416.912,250.564 L417.564,260.41 L417.346,267.64 L416.695,272.308 L416.198,274.544 L416.372,274.014 L416.135,274.563 L416.085,274.24 L414.842,274.842 L411.666,276.604 L409.169,278.451 L407.098,281.266 L406.825,283.095 L406.825,283.095 C406.836,283.204 406.861,283.303 406.898,283.392 L406.898,283.392 L407.235,284.194 L408.283,285.756 L410.353,287.727 L413.32,290.238 L415.138,292.472 L415.943,294.271 L416.188,295.264 L416.167,295.164 L416.803,299.053 L417.315,306.198 L417.317,312.671 L417.371,318.599 L417.793,322.744 L418.406,325.375 L419.369,327.839 L420.757,330.147 L422.638,332.291 L425.075,334.265 L428.131,336.075 L431.87,337.726 L434.036,338.501 L434.036,338.501 C434.876,338.801 436.371,338.011 437.376,336.736 C438.381,335.461 438.515,334.184 437.675,333.884 L435.63,333.156 L432.067,331.595 L429.197,329.914 L426.944,328.114 L425.226,326.193 L423.965,324.143 L423.086,321.947 L422.522,319.613 L422.114,315.726 L422.06,309.824 L422.052,303.147 L421.513,295.779 L420.877,291.888 L420.877,291.888 C420.871,291.854 420.864,291.82 420.856,291.788 L420.856,291.788 L420.499,290.483 L419.481,288.34 L417.471,285.911 L414.563,283.452 L412.705,281.731 L411.816,280.462 L411.479,279.66 L411.553,279.957 L411.171,280.767 L410.124,281.594 L411.421,280.54 L415.159,278.438 L418.528,276.027 L420.434,273.588 L420.672,273.037 L420.672,273.037 C420.751,272.854 420.81,272.677 420.847,272.508 L420.847,272.508 L421.405,269.934 L422.088,264.886 L422.302,257.375 L421.641,247.435 L420.64,237.66 L420.079,228.194 L420.403,221.422 L421.118,217.192 L422.29,213.239 L423.947,209.596 L426.167,206.196 L429.32,202.755 L431.482,200.885 C431.482,200.885 431.482,200.885 431.482,200.885 C432.725,199.809 433.399,198.331 432.987,197.583 C432.575,196.836 431.233,197.102 429.99,198.178 L429.99,198.178" fill="#E88B09"/>
      <text transform="matrix(1, 0, 0, 1, 227.898, 382.214)">
        <tspan x="-74.751" y="6.5" font-family="GillSans" font-size="21" fill="#5CA831">2 or more Shards</tspan>
      </text>
      <text transform="matrix(1, 0, 0, 1, 526.567, 166.214)">
        <tspan x="-71.219" y="6.5" font-family="GillSans" font-size="21" fill="#E88B09">3 Config Servers</tspan>
      </text>
      <g>
        <g>
          <path d="M458.855,53.567 C458.855,52.223 455.95,51.133 452.359,51.133 L265.352,51.133 C261.765,51.133 258.855,52.223 258.855,53.567 L258.855,123.696 C258.855,125.042 261.765,126.133 265.352,126.133 L452.359,126.133 C455.95,126.133 458.855,125.042 458.855,123.696 L458.855,53.567" fill="#2A86C0"/>
          <text transform="matrix(1, 0, 0, 1, 315.855, 88.633)">
            <tspan x="-42.957" y="3.769" font-family="GillSans" font-size="30" fill="#FFFFFF">Query Router</tspan>
          </text>
        </g>
        <text transform="matrix(1, 0, 0, 1, 358.855, 107.93)">
          <tspan x="-38.228" y="6" font-family="GillSans" font-size="20" fill="#FFFFFF">(mongos)</tspan>
        </text>
      </g>
      <path d="M70.584,159.158 L72.129,160.65 L75.433,163.446 L78.973,165.963 L82.725,168.203 L88.704,171.069 L97.29,174.056 L106.486,176.193 L116.17,177.586 L126.233,178.347 L136.569,178.588 L152.337,178.218 L173.34,176.938 L188.61,175.868 L198.345,175.308 L207.61,174.996 L216.294,175.041 L220.365,175.229 L220.319,175.226 L223.765,175.503 L230.785,176.524 L237.678,178.355 L242.506,180.386 L245.463,182.099 L246.835,183.065 L246.711,182.956 L247.391,183.701 L248.071,185.52 L248.663,187.633 L249.428,189.122 L250.354,189.915 L251.09,190.185 L251.09,190.185 C251.226,190.225 251.38,190.239 251.55,190.227 L251.55,190.227 L252.112,190.186 L254.573,189.202 L257.225,187.43 L259.766,185.418 L263.449,182.363 L266.68,179.872 L268.095,179.052 L268.265,179.051 L267.888,179.172 L270.195,178.612 L275.005,177.952 L280.277,177.724 L285.878,177.82 L294.494,178.333 L302.832,178.936 L307.99,179.192 L310.408,179.231 L310.408,179.231 C310.41,179.231 310.411,179.231 310.412,179.231 L310.412,179.231 L311.611,179.247 L314.531,179.361 L318.103,179.539 L322.203,179.731 L329.042,179.933 L338.785,179.765 L346.057,179.081 L350.691,178.247 L355.005,177.035 L358.977,175.335 L362.641,172.923 L365.923,169.425 L368.029,165.089 L368.534,161.683 L368.403,159.397 L368.21,158.216 L368.21,158.216 C368.051,157.272 366.868,157.241 365.568,158.149 C364.267,159.056 363.342,160.557 363.501,161.502 L363.666,162.441 L363.813,164.145 L363.704,166.125 L363.23,167.917 L362.154,169.44 L359.934,171.044 L356.751,172.459 L352.892,173.565 L348.59,174.352 L341.579,175.022 L331.975,175.19 L325.186,174.991 L321.095,174.799 L317.491,174.619 L314.5,174.504 L313.299,174.488 L313.302,174.488 L310.98,174.452 L305.885,174.2 L297.511,173.594 L288.775,173.077 L282.982,172.984 L277.372,173.244 L272.131,173.986 L269.823,174.546 L269.823,174.546 C269.701,174.576 269.575,174.616 269.446,174.667 L269.446,174.667 L268.055,175.282 L265.683,176.76 L262.139,179.501 L258.632,182.413 L256.652,184.006 L255.349,184.992 L254.723,185.451 L254.161,185.492 L254.621,185.533 L254.441,185.536 L253.944,185.252 L253.32,184.118 L252.663,181.812 L251.681,179.509 L251,178.762 L251,178.762 C250.963,178.722 250.922,178.685 250.876,178.653 L250.876,178.653 L249.385,177.611 L246.237,175.804 L241.161,173.689 L234.018,171.807 L226.839,170.769 L223.392,170.492 L223.392,170.492 C223.377,170.491 223.361,170.49 223.346,170.489 L223.346,170.489 L219.156,170.298 L210.351,170.255 L201.009,170.57 L191.231,171.133 L175.992,172.201 L155.111,173.476 L139.484,173.846 L129.294,173.612 L119.399,172.869 L109.906,171.511 L100.914,169.433 L92.514,166.522 L86.669,163.729 L83.022,161.557 L79.583,159.119 L76.353,156.389 L74.807,154.896 C74.807,154.896 74.807,154.896 74.807,154.896 C74.211,154.321 72.782,154.809 71.616,155.986 C70.449,157.162 69.987,158.583 70.584,159.158 L70.584,159.158" fill="#2A86C0"/>
      <g>
        <path d="M253.189,215.931 L253.189,304.277" fill-opacity="0" stroke="#484743" stroke-width="4"/>
        <path d="M257.989,215.931 L253.189,203.131 L248.389,215.931 z" fill="#484743" fill-opacity="1" stroke="#484743" stroke-width="4" stroke-opacity="1"/>
        <path d="M248.389,304.277 L253.189,317.077 L257.989,304.277 z" fill="#484743" fill-opacity="1" stroke="#484743" stroke-width="4" stroke-opacity="1"/>
      </g>
      <text transform="matrix(1, 0, 0, 1, 200.388, 152.527)">
        <tspan x="-80.929" y="6.5" font-family="GillSans" font-size="21" fill="#2A86C0">2 or more Query Routers</tspan>
      </text>
      <path d="M13.421,12.762 L224.769,12.762 L224.769,131.027 L13.421,131.027 z" fill-opacity="0" stroke="#484743" stroke-width="2" stroke-dasharray="6,4"/>
      <path d="M253.189,12.762 L463.385,12.762 L463.385,131.027 L253.189,131.027 z" fill-opacity="0" stroke="#484743" stroke-width="2" stroke-dasharray="6,4"/>
      <text transform="matrix(1, 0, 0, 1, 88.28, 28.286)">
        <tspan x="-69.009" y="4" font-family="GillSans" font-size="24" fill="#302E2E">App Server</tspan>
      </text>
      <text transform="matrix(1, 0, 0, 1, 327.864, 24.786)">
        <tspan x="-69.009" y="7.5" font-family="GillSans" font-size="24" fill="#302E2E">App Server</tspan>
      </text>
      <g>
        <path d="M279.784,208.189 L377.927,269.201" fill-opacity="0" stroke="#E88B09" stroke-width="4" stroke-dasharray="8,4"/>
        <path d="M282.318,204.113 L268.913,201.432 L277.249,212.266 z" fill="#E88B09" fill-opacity="1" stroke="#E88B09" stroke-width="4" stroke-opacity="1"/>
        <path d="M375.393,273.277 L388.798,275.959 L380.462,265.124 z" fill="#E88B09" fill-opacity="1" stroke="#E88B09" stroke-width="4" stroke-opacity="1"/>
      </g>
    </g>
    <text transform="matrix(1, 0, 0, 1, 130.226, 455.214)">
      <tspan x="-50.183" y="4.5" font-family="GillSans" font-size="21" fill="#FFFFFF">(replica set)</tspan>
    </text>
    <text transform="matrix(1, 0, 0, 1, 338.976, 455.214)">
      <tspan x="-50.183" y="4.5" font-family="GillSans" font-size="21" fill="#FFFFFF">(replica set)</tspan>
    </text>
  </g>
  <defs/>
</svg>
