<?xml version="1.0" encoding="UTF-8"?>
<!DOCTYPE svg PUBLIC "-//W3C//DTD SVG 1.1//EN" "http://www.w3.org/Graphics/SVG/1.1/DTD/svg11.dtd">
<svg version="1.1" xmlns="http://www.w3.org/2000/svg" xmlns:xlink="http://www.w3.org/1999/xlink" x="0px" y="0px" width="700" height="560" viewBox="0, 0, 700, 560">
  <g id="Layer 1">
    <g>
      <g>
        <path d="M79.139,110.85 C79.139,113.036 79.681,114.807 80.351,114.807 L228.181,114.807 C228.85,114.807 229.393,113.036 229.393,110.85 L229.393,18.765 C229.393,16.579 228.85,14.807 228.181,14.807 L80.351,14.807 C79.681,14.807 79.139,16.579 79.139,18.765 L79.139,110.85" fill="#5A5955" fill-opacity="0.8"/>
        <path d="M79.139,110.85 C79.139,113.036 79.681,114.807 80.351,114.807 L228.181,114.807 C228.85,114.807 229.393,113.036 229.393,110.85 L229.393,18.765 C229.393,16.579 228.85,14.807 228.181,14.807 L80.351,14.807 C79.681,14.807 79.139,16.579 79.139,18.765 L79.139,110.85" fill-opacity="0" stroke="#FFFFFF" stroke-width="1"/>
      </g>
      <text transform="matrix(1, 0, -0, 1, 154.266, 40.491)">
        <tspan x="-68.613" y="7" font-family="GillSans" font-size="30" fill="#5A5955" fill-opacity="0.8">Application</tspan>
      </text>
      <g>
        <path d="M79.139,66.057 L229.393,66.057" fill="#5A5955" fill-opacity="0.8"/>
        <path d="M79.139,66.057 L229.393,66.057" fill-opacity="0" stroke="#F0EFED" stroke-width="1"/>
      </g>
      <text transform="matrix(1, 0, -0, 1, 155.24, 90.49)">
        <tspan x="-39.873" y="7" font-family="GillSans" font-size="30" fill="#5A5955" fill-opacity="0.8">Driver</tspan>
      </text>
    </g>
    <g>
      <g>
        <path d="M249.393,110.85 C249.393,113.036 249.935,114.807 250.605,114.807 L398.435,114.807 C399.104,114.807 399.647,113.036 399.647,110.85 L399.647,18.765 C399.647,16.579 399.104,14.807 398.435,14.807 L250.605,14.807 C249.935,14.807 249.393,16.579 249.393,18.765 L249.393,110.85" fill="#5A5955" fill-opacity="0.8"/>
        <path d="M249.393,110.85 C249.393,113.036 249.935,114.807 250.605,114.807 L398.435,114.807 C399.104,114.807 399.647,113.036 399.647,110.85 L399.647,18.765 C399.647,16.579 399.104,14.807 398.435,14.807 L250.605,14.807 C249.935,14.807 249.393,16.579 249.393,18.765 L249.393,110.85" fill-opacity="0" stroke="#FFFFFF" stroke-width="1"/>
      </g>
      <text transform="matrix(1, 0, -0, 1, 324.52, 40.491)">
        <tspan x="-68.613" y="7" font-family="GillSans" font-size="30" fill="#5A5955" fill-opacity="0.8">Application</tspan>
      </text>
      <g>
        <path d="M249.393,66.057 L399.647,66.057" fill="#5A5955" fill-opacity="0.8"/>
        <path d="M249.393,66.057 L399.647,66.057" fill-opacity="0" stroke="#F0EFED" stroke-width="1"/>
      </g>
      <text transform="matrix(1, 0, -0, 1, 325.494, 90.49)">
        <tspan x="-39.873" y="7" font-family="GillSans" font-size="30" fill="#5A5955" fill-opacity="0.8">Driver</tspan>
      </text>
    </g>
    <text transform="matrix(1, 0, 0, 1, 553.714, 423.71)">
      <tspan x="-55.737" y="10" font-family="GillSans" font-size="30" fill="#5A5955">Metadata</tspan>
    </text>
    <g>
      <path d="M340.393,201.289 C340.393,199.944 337.487,198.854 333.897,198.854 L146.889,198.854 C143.302,198.854 140.393,199.944 140.393,201.289 L140.393,271.418 C140.393,272.763 143.302,273.854 146.889,273.854 L333.897,273.854 C337.487,273.854 340.393,272.763 340.393,271.418 L340.393,201.289" fill="#3299CC"/>
      <path d="M340.393,201.289 C340.393,199.944 337.487,198.854 333.897,198.854 L146.889,198.854 C143.302,198.854 140.393,199.944 140.393,201.289 L140.393,271.418 C140.393,272.763 143.302,273.854 146.889,273.854 L333.897,273.854 C337.487,273.854 340.393,272.763 340.393,271.418 L340.393,201.289" fill-opacity="0" stroke="#FFFFFF" stroke-width="1"/>
    </g>
    <text transform="matrix(1, 0, 0, 1, 240.393, 236.354)">
      <tspan x="-42.957" y="3.769" font-family="GillSans" font-size="30" fill="#FFFFFF">Router</tspan>
    </text>
    <text transform="matrix(1, 0, 0, 1, 240.393, 255.651)">
      <tspan x="-38.228" y="6" font-family="GillSans" font-size="20" fill="#FFFFFF">(mongos)</tspan>
    </text>
    <path d="M235.393,442.289 C235.393,440.944 232.487,439.854 228.897,439.854 L41.889,439.854 C38.302,439.854 35.393,440.944 35.393,442.289 L35.393,512.418 C35.393,513.763 38.302,514.854 41.889,514.854 L228.897,514.854 C232.487,514.854 235.393,513.763 235.393,512.418 L235.393,442.289" fill="#6CB340"/>
    <text transform="matrix(1, -0, 0, 1, 135.393, 477.354)">
      <tspan x="-34.131" y="7" font-family="GillSans" font-size="30" fill="#FFFFFE">Shard</tspan>
    </text>
    <text transform="matrix(1, 0, 0, 1, 135.393, 535.855)">
      <tspan x="-29.048" y="10" font-family="GillSans" font-size="30" fill="#5A5955">Data</tspan>
    </text>
    <g>
      <g>
        <path d="M164.291,105.042 C164.291,107.228 164.834,109 165.503,109 L313.333,109 C314.002,109 314.545,107.228 314.545,105.042 L314.545,12.958 C314.545,10.772 314.002,9 313.333,9 L165.503,9 C164.834,9 164.291,10.772 164.291,12.958 L164.291,105.042" fill="#5A5955"/>
        <path d="M164.291,105.042 C164.291,107.228 164.834,109 165.503,109 L313.333,109 C314.002,109 314.545,107.228 314.545,105.042 L314.545,12.958 C314.545,10.772 314.002,9 313.333,9 L165.503,9 C164.834,9 164.291,10.772 164.291,12.958 L164.291,105.042" fill-opacity="0" stroke="#FFFFFF" stroke-width="1"/>
      </g>
      <text transform="matrix(1, 0, -0, 1, 239.418, 34.683)">
        <tspan x="-68.613" y="7" font-family="GillSans" font-size="30" fill="#FFFFFE">Application</tspan>
      </text>
      <path d="M164.291,60.25 L314.545,60.25" fill-opacity="0" stroke="#F0EFED" stroke-width="1"/>
      <text transform="matrix(1, 0, -0, 1, 240.393, 84.683)">
        <tspan x="-39.873" y="7" font-family="GillSans" font-size="30" fill="#FFFFFE">Driver</tspan>
      </text>
    </g>
    <g>
      <path d="M240.393,139.879 L240.393,180.454" fill-opacity="0" stroke="#5A5955" stroke-width="4"/>
      <path d="M245.193,139.879 L240.393,127.079 L235.593,139.879 z" fill="#5A5955" fill-opacity="1" stroke="#5A5955" stroke-width="4" stroke-opacity="1"/>
      <path d="M235.593,180.454 L240.393,193.254 L245.193,180.454 z" fill="#5A5955" fill-opacity="1" stroke="#5A5955" stroke-width="4" stroke-opacity="1"/>
    </g>
    <g>
      <path d="M240.393,292.254 L240.393,380.6" fill-opacity="0" stroke="#5A5955" stroke-width="4"/>
      <path d="M245.193,292.254 L240.393,279.454 L235.593,292.254 z" fill="#5A5955" fill-opacity="1" stroke="#5A5955" stroke-width="4" stroke-opacity="1"/>
      <path d="M235.593,380.6 L240.393,393.4 L245.193,380.6 z" fill="#5A5955" fill-opacity="1" stroke="#5A5955" stroke-width="4" stroke-opacity="1"/>
    </g>
    <g>
      <path d="M355.115,260.137 L403.549,307.53" fill-opacity="0" stroke="#EE9C02" stroke-width="4" stroke-dasharray="8,4"/>
      <path d="M358.472,256.706 L345.966,251.184 L351.758,263.567 z" fill="#EE9C02" fill-opacity="1" stroke="#EE9C02" stroke-width="4" stroke-opacity="1"/>
      <path d="M400.192,310.961 L412.698,316.482 L406.906,304.099 z" fill="#EE9C02" fill-opacity="1" stroke="#EE9C02" stroke-width="4" stroke-opacity="1"/>
    </g>
    <path d="M444.99,442.289 C444.99,440.944 442.085,439.854 438.494,439.854 L251.486,439.854 C247.9,439.854 244.99,440.944 244.99,442.289 L244.99,512.418 C244.99,513.763 247.9,514.854 251.486,514.854 L438.494,514.854 C442.085,514.854 444.99,513.763 444.99,512.418 L444.99,442.289" fill="#6CB340"/>
    <text transform="matrix(1, -0, 0, 1, 344.99, 477.354)">
      <tspan x="-34.131" y="7" font-family="GillSans" font-size="30" fill="#FFFFFE">Shard</tspan>
    </text>
    <text transform="matrix(1, 0, 0, 1, 344.991, 535.855)">
      <tspan x="-29.048" y="10" font-family="GillSans" font-size="30" fill="#5A5955">Data</tspan>
    </text>
    <path d="M134.388,430.678 L134.934,429.908 L135.963,428.54 L136.981,427.287 L138.016,426.109 L139.068,424.999 L140.138,423.953 L141.228,422.967 L142.341,422.036 L143.48,421.156 L144.646,420.324 L145.843,419.536 L147.071,418.792 L149.006,417.737 L151.679,416.489 L154.44,415.42 L157.316,414.506 L160.296,413.744 L163.369,413.125 L166.525,412.643 L169.755,412.286 L173.048,412.045 L176.399,411.908 L179.797,411.863 L183.237,411.898 L188.467,412.072 L195.518,412.463 L202.617,412.943 L209.725,413.405 L215.039,413.678 L218.567,413.8 L222.07,413.859 L225.547,413.84 L228.994,413.731 L232.407,413.517 L234.116,413.365 L234.116,413.365 C234.151,413.362 234.188,413.358 234.224,413.352 L234.224,413.352 L234.578,413.3 L235.57,413.034 L236.704,412.539 L237.819,411.861 L239.204,410.762 L240.721,409.281 L241.904,408.043 L242.519,407.468 L242.72,407.332 L242.862,407.274 L242.941,407.285 L243.061,407.305 L243.316,407.335 L243.434,407.366 L243.334,407.352 L243.7,407.418 L244.46,407.617 L245.362,407.914 L246.394,408.301 L247.526,408.76 L248.732,409.276 L250.638,410.124 L253.242,411.31 L255.159,412.175 L256.387,412.714 L257.551,413.204 L258.634,413.631 L259.622,413.982 L260.504,414.243 L260.93,414.342 L260.93,414.342 C260.946,414.345 260.961,414.349 260.977,414.352 L260.977,414.352 L262.277,414.589 L264.933,414.961 L267.611,415.198 L270.293,415.311 L272.974,415.314 L275.653,415.221 L279.646,414.935 L284.941,414.353 L290.185,413.646 L295.345,412.926 L300.406,412.307 L304.118,411.973 L306.547,411.837 L308.956,411.785 L311.333,411.829 L313.679,411.984 L315.993,412.262 L318.275,412.677 L320.525,413.241 L322.742,413.968 L324.925,414.873 L327.074,415.969 L329.188,417.27 L331.264,418.792 L333.303,420.549 L334.8,422.024 L335.784,423.086 L336.762,424.22 L337.73,425.423 L338.205,426.046 L338.205,426.046 C338.712,426.708 340.101,426.33 341.309,425.2 C342.517,424.07 343.086,422.617 342.58,421.954 C342.58,421.954 342.58,421.954 342.58,421.954 L342.081,421.302 L341.08,420.059 L340.066,418.885 L339.034,417.773 L337.463,416.23 L335.331,414.399 L333.149,412.807 L330.921,411.441 L328.648,410.288 L326.333,409.334 L323.979,408.567 L321.589,407.973 L319.166,407.538 L316.713,407.247 L314.235,407.087 L311.734,407.042 L309.214,407.099 L306.668,407.243 L302.837,407.589 L297.713,408.218 L292.569,408.934 L287.419,409.631 L282.259,410.2 L278.39,410.48 L275.823,410.571 L273.261,410.57 L270.705,410.465 L268.155,410.243 L265.594,409.886 L264.293,409.648 L264.339,409.658 L264.04,409.592 L263.258,409.364 L262.331,409.035 L261.285,408.623 L260.146,408.144 L258.934,407.612 L257.022,406.749 L254.405,405.558 L252.476,404.7 L251.238,404.17 L250.059,403.693 L248.954,403.281 L247.93,402.948 L247.013,402.715 L246.646,402.648 L246.646,402.648 C246.614,402.642 246.581,402.638 246.546,402.634 L246.546,402.634 L245.961,402.598 L244.866,402.713 L243.71,403.079 L242.572,403.66 L241.546,404.36 L240.617,405.133 L239.584,406.125 L238.6,407.159 L237.904,407.892 L237.543,408.238 L237.434,408.351 L237.283,408.467 L236.917,408.596 L236.561,408.648 L236.67,408.635 L235.053,408.78 L231.741,408.989 L228.377,409.096 L224.966,409.116 L221.515,409.059 L218.035,408.938 L212.758,408.668 L205.657,408.206 L198.525,407.724 L191.411,407.33 L186.114,407.155 L182.603,407.12 L179.116,407.168 L175.657,407.311 L172.23,407.564 L168.837,407.942 L165.481,408.46 L162.163,409.135 L158.884,409.984 L155.643,411.028 L152.44,412.287 L149.314,413.765 L147.016,415.031 L145.477,415.972 L143.956,416.984 L142.452,418.068 L140.971,419.225 L139.516,420.456 L138.091,421.758 L136.7,423.131 L135.346,424.575 L134.031,426.086 L132.759,427.663 L131.557,429.269 L131.01,430.041 C130.091,431.339 130.101,432.533 131.034,432.71 C131.967,432.886 133.468,431.976 134.388,430.678 L134.388,430.678" fill="#6CB340"/>
    <g>
      <path d="M274.531,390.171 L390.455,343.163" fill-opacity="0" stroke="#EE9C02" stroke-width="4" stroke-dasharray="8,4"/>
      <path d="M272.728,385.722 L262.669,394.981 L276.335,394.619 z" fill="#EE9C02" fill-opacity="1" stroke="#EE9C02" stroke-width="4" stroke-opacity="1"/>
      <path d="M392.259,347.611 L402.317,338.353 L388.652,338.715 z" fill="#EE9C02" fill-opacity="1" stroke="#EE9C02" stroke-width="4" stroke-opacity="1"/>
    </g>
    <path d="M436.211,243.253 L435.1,244.181 L432.827,246.282 L430.708,248.538 L428.831,250.869 L427.202,253.247 L425.82,255.648 L424.672,258.054 L423.739,260.458 L422.999,262.857 L422.429,265.254 L422.01,267.65 L421.724,270.052 L421.553,272.46 L421.484,274.875 L421.501,277.3 L421.591,279.734 L421.833,283.393 L422.29,288.305 L422.807,293.239 L423.284,298.171 L423.621,303.083 L423.724,306.731 L423.7,309.136 L423.587,311.531 L423.375,313.9 L423.053,316.241 L422.611,318.547 L422.35,319.652 L422.424,319.394 L422.33,319.67 L422.359,319.463 L422.544,319.104 L422.486,319.084 L421.791,319.514 L420.355,320.319 L418.661,321.249 L417.312,322.051 L416.34,322.709 L415.355,323.504 L414.284,324.613 L413.309,326.134 L412.917,327.642 L412.989,328.362 L412.989,328.362 C413,328.411 413.014,328.457 413.03,328.501 L413.03,328.501 L413.185,328.911 L413.614,329.767 L414.154,330.565 L414.771,331.289 L415.79,332.268 L417.263,333.492 L418.747,334.721 L419.785,335.701 L420.411,336.398 L420.984,337.156 L421.482,337.981 L421.896,338.883 L422.214,339.873 L422.325,340.375 L422.317,340.334 L422.505,341.323 L422.817,343.237 L423.055,345.099 L423.231,346.918 L423.354,348.695 L423.432,350.432 L423.484,352.974 L423.478,356.227 L423.448,359.336 L423.466,362.317 L423.555,364.481 L423.669,365.893 L423.837,367.265 L424.069,368.604 L424.375,369.909 L424.765,371.179 L425.248,372.411 L425.833,373.604 L426.529,374.757 L427.343,375.868 L428.284,376.937 L429.36,377.963 L430.578,378.947 L431.946,379.89 L433.473,380.792 L435.166,381.655 L437.033,382.478 L439.083,383.263 L440.19,383.645 L440.19,383.645 C441.036,383.938 442.532,383.139 443.532,381.862 C444.532,380.586 444.657,379.314 443.81,379.021 C443.81,379.021 443.81,379.021 443.81,379.021 L442.762,378.66 L440.793,377.909 L439.012,377.126 L437.409,376.313 L435.975,375.47 L434.701,374.597 L433.576,373.694 L432.59,372.761 L431.734,371.798 L430.998,370.804 L430.371,369.777 L429.844,368.716 L429.409,367.618 L429.055,366.482 L428.775,365.305 L428.56,364.085 L428.403,362.818 L428.296,361.514 L428.21,359.453 L428.191,356.52 L428.221,353.387 L428.227,350.066 L428.173,347.456 L428.091,345.652 L427.962,343.801 L427.777,341.906 L427.527,339.965 L427.205,337.989 L427.016,336.999 L427.016,336.999 C427.014,336.986 427.011,336.972 427.008,336.959 L427.008,336.959 L426.848,336.282 L426.451,335.09 L425.949,334.024 L425.362,333.07 L424.707,332.211 L423.996,331.427 L422.886,330.384 L421.403,329.155 L420.009,328.002 L419.091,327.129 L418.574,326.535 L418.142,325.921 L417.791,325.242 L417.636,324.832 L417.677,324.971 L417.638,325.179 L417.36,325.678 L416.904,326.205 L416.701,326.335 L416.874,326.159 L417.296,325.855 L418.358,325.217 L420.177,324.218 L422.185,323.059 L423.757,321.977 L424.956,320.924 L426.126,319.509 L426.814,318.217 L426.909,317.939 L426.909,317.939 C426.939,317.852 426.964,317.766 426.984,317.682 L426.984,317.682 L427.285,316.386 L427.763,313.865 L428.105,311.347 L428.327,308.832 L428.443,306.321 L428.467,303.801 L428.358,300.041 L428.015,295.056 L427.536,290.103 L427.022,285.2 L426.571,280.358 L426.332,276.779 L426.244,274.432 L426.226,272.118 L426.289,269.84 L426.443,267.605 L426.698,265.418 L427.062,263.287 L427.543,261.218 L428.145,259.221 L428.871,257.301 L429.724,255.462 L430.708,253.699 L431.838,251.999 L433.134,250.344 L434.63,248.71 L436.437,247.019 L437.55,246.09 C437.55,246.09 437.55,246.09 437.55,246.09 C438.806,245.041 439.525,243.554 439.155,242.771 C438.786,241.988 437.467,242.204 436.211,243.253 L436.211,243.253" fill="#EE9C02"/>
    <g>
      <path d="M313.559,142.061 L289.107,182.793" fill-opacity="0" stroke="#5A5955" stroke-width="4"/>
      <path d="M317.675,144.532 L320.147,131.087 L309.444,139.591 z" fill="#5A5955" fill-opacity="1" stroke="#5A5955" stroke-width="4" stroke-opacity="1"/>
      <path d="M284.992,180.323 L282.52,193.768 L293.223,185.264 z" fill="#5A5955" fill-opacity="1" stroke="#5A5955" stroke-width="4" stroke-opacity="1"/>
    </g>
    <g>
      <path d="M167.726,142.065 L192.149,182.79" fill-opacity="0" stroke="#5A5955" stroke-width="4"/>
      <path d="M171.842,139.596 L161.143,131.087 L163.609,144.533 z" fill="#5A5955" fill-opacity="1" stroke="#5A5955" stroke-width="4" stroke-opacity="1"/>
      <path d="M188.032,185.258 L198.732,193.767 L196.265,180.321 z" fill="#5A5955" fill-opacity="1" stroke="#5A5955" stroke-width="4" stroke-opacity="1"/>
    </g>
    <g>
      <path d="M681.914,237.786 C681.914,236.442 679.008,235.352 675.418,235.352 L488.41,235.352 C484.824,235.352 481.914,236.442 481.914,237.786 L481.914,307.915 C481.914,309.261 484.824,310.352 488.41,310.352 L675.418,310.352 C679.008,310.352 681.914,309.261 681.914,307.915 L681.914,237.786" fill="#EE9C02" fill-opacity="0.8"/>
      <path d="M681.914,237.786 C681.914,236.442 679.008,235.352 675.418,235.352 L488.41,235.352 C484.824,235.352 481.914,236.442 481.914,237.786 L481.914,307.915 C481.914,309.261 484.824,310.352 488.41,310.352 L675.418,310.352 C679.008,310.352 681.914,309.261 681.914,307.915 L681.914,237.786" fill-opacity="0" stroke="#F9DCA0" stroke-width="1" stroke-dasharray="3,2"/>
    </g>
    <g>
      <text transform="matrix(1, 0, 0, 1, 587.869, 272.852)">
        <tspan x="-90.139" y="7.623" font-family="GillSans" font-size="30" fill="#FFFEE4">Config Server</tspan>
      </text>
      <path d="M517.622,275.729 L517.622,278.951 Q514.4,280.709 510.181,280.709 Q506.753,280.709 504.365,279.332 Q501.978,277.955 500.586,275.538 Q499.194,273.121 499.194,270.309 Q499.194,265.841 502.38,262.794 Q505.567,259.747 510.239,259.747 Q513.462,259.747 517.402,261.432 L517.402,264.581 Q513.814,262.53 510.386,262.53 Q506.87,262.53 504.548,264.75 Q502.227,266.969 502.227,270.309 Q502.227,273.678 504.512,275.846 Q506.797,278.014 510.357,278.014 Q514.077,278.014 517.622,275.729 z M527.305,266.969 Q530.381,266.969 532.417,268.954 Q534.453,270.938 534.453,273.941 Q534.453,276.856 532.388,278.783 Q530.322,280.709 527.188,280.709 Q524.155,280.709 522.119,278.753 Q520.083,276.798 520.083,273.868 Q520.083,270.909 522.141,268.939 Q524.199,266.969 527.305,266.969 z M527.158,269.371 Q525.239,269.371 524.009,270.631 Q522.778,271.891 522.778,273.839 Q522.778,275.772 524.038,276.996 Q525.298,278.219 527.276,278.219 Q529.238,278.219 530.491,276.981 Q531.743,275.743 531.743,273.81 Q531.743,271.891 530.44,270.631 Q529.136,269.371 527.158,269.371 z M540.078,266.998 L540.078,268.712 Q541.865,266.734 544.136,266.734 Q545.396,266.734 546.48,267.386 Q547.564,268.038 548.128,269.173 Q548.692,270.309 548.692,272.77 L548.692,280.475 L546.026,280.475 L546.026,272.799 Q546.026,270.733 545.396,269.847 Q544.766,268.961 543.286,268.961 Q541.397,268.961 540.078,270.851 L540.078,280.475 L537.354,280.475 L537.354,266.998 z M555.591,266.969 L558.594,266.969 L558.594,269.254 L555.591,269.254 L555.591,280.475 L552.925,280.475 L552.925,269.254 L550.918,269.254 L550.918,266.969 L552.925,266.969 L552.925,266.529 Q552.925,263.263 554.404,261.505 Q555.884,259.747 558.623,259.747 Q560.864,259.747 562.168,260.89 Q563.472,262.032 563.516,264.039 L560.996,264.039 Q560.601,262.97 560.029,262.516 Q559.458,262.062 558.535,262.062 Q555.562,262.062 555.562,266.471 Q555.562,266.705 555.591,266.969 z M560.996,266.969 L563.516,266.969 L563.516,280.475 L560.996,280.475 z M566.724,271.656 Q566.724,269.503 568.298,268.25 Q569.873,266.998 572.598,266.998 L578.15,266.998 L578.15,269.078 L575.425,269.078 Q576.216,269.884 576.524,270.543 Q576.831,271.202 576.831,272.052 Q576.831,273.106 576.231,274.125 Q575.63,275.143 574.685,275.685 Q573.74,276.227 571.587,276.549 Q570.078,276.769 570.078,277.589 Q570.078,278.058 570.642,278.358 Q571.206,278.658 572.686,278.98 Q575.161,279.522 575.872,279.83 Q576.582,280.138 577.153,280.709 Q578.12,281.676 578.12,283.141 Q578.12,285.06 576.414,286.202 Q574.707,287.345 571.851,287.345 Q568.965,287.345 567.244,286.195 Q565.523,285.045 565.523,283.111 Q565.523,280.372 568.906,279.581 Q567.559,278.717 567.559,277.867 Q567.559,277.223 568.137,276.695 Q568.716,276.168 569.697,275.919 Q566.724,274.601 566.724,271.656 z M571.734,269.312 Q570.65,269.312 569.888,270.045 Q569.126,270.777 569.126,271.803 Q569.126,272.843 569.873,273.524 Q570.62,274.205 571.763,274.205 Q572.891,274.205 573.645,273.509 Q574.4,272.813 574.4,271.773 Q574.4,270.719 573.638,270.016 Q572.876,269.312 571.734,269.312 z M571.104,281.104 Q569.756,281.104 568.899,281.676 Q568.042,282.247 568.042,283.141 Q568.042,285.221 571.792,285.221 Q573.565,285.221 574.539,284.701 Q575.513,284.181 575.513,283.229 Q575.513,282.291 574.282,281.698 Q573.052,281.104 571.104,281.104 z M593.984,271.891 L591.758,270.543 Q589.663,269.269 588.777,268.031 Q587.891,266.793 587.891,265.182 Q587.891,262.765 589.568,261.256 Q591.245,259.747 593.926,259.747 Q596.489,259.747 598.628,261.183 L598.628,264.508 Q596.416,262.384 593.867,262.384 Q592.432,262.384 591.509,263.05 Q590.586,263.717 590.586,264.757 Q590.586,265.68 591.26,266.485 Q591.934,267.291 593.443,268.17 L595.684,269.488 Q599.434,271.715 599.434,275.172 Q599.434,277.633 597.786,279.171 Q596.138,280.709 593.501,280.709 Q590.469,280.709 587.979,278.849 L587.979,275.128 Q590.352,278.131 593.472,278.131 Q594.849,278.131 595.764,277.362 Q596.68,276.593 596.68,275.436 Q596.68,273.561 593.984,271.891 z M613.775,273.971 L604.297,273.971 Q604.4,275.904 605.593,277.047 Q606.787,278.189 608.677,278.189 Q611.314,278.189 613.54,276.549 L613.54,279.156 Q612.31,279.977 611.101,280.328 Q609.893,280.68 608.267,280.68 Q606.04,280.68 604.663,279.757 Q603.286,278.834 602.459,277.274 Q601.631,275.714 601.631,273.663 Q601.631,270.587 603.374,268.661 Q605.117,266.734 607.901,266.734 Q610.581,266.734 612.178,268.609 Q613.775,270.484 613.775,273.634 z M604.356,272.374 L611.138,272.374 Q611.035,270.777 610.186,269.913 Q609.336,269.049 607.901,269.049 Q606.465,269.049 605.549,269.913 Q604.634,270.777 604.356,272.374 z M619.517,266.998 L619.517,270.089 L619.663,269.854 Q621.597,266.734 623.53,266.734 Q625.039,266.734 626.68,268.258 L625.274,270.602 Q623.882,269.283 622.695,269.283 Q621.406,269.283 620.462,270.514 Q619.517,271.744 619.517,273.429 L619.517,280.475 L616.836,280.475 L616.836,266.998 z M637.681,266.998 L640.567,266.998 L634.619,280.709 L633.726,280.709 L627.632,266.998 L630.547,266.998 L634.18,275.289 z M653.457,273.971 L643.98,273.971 Q644.082,275.904 645.276,277.047 Q646.47,278.189 648.359,278.189 Q650.996,278.189 653.223,276.549 L653.223,279.156 Q651.992,279.977 650.784,280.328 Q649.575,280.68 647.949,280.68 Q645.723,280.68 644.346,279.757 Q642.969,278.834 642.141,277.274 Q641.314,275.714 641.314,273.663 Q641.314,270.587 643.057,268.661 Q644.8,266.734 647.583,266.734 Q650.264,266.734 651.86,268.609 Q653.457,270.484 653.457,273.634 z M644.038,272.374 L650.82,272.374 Q650.718,270.777 649.868,269.913 Q649.019,269.049 647.583,269.049 Q646.148,269.049 645.232,269.913 Q644.317,270.777 644.038,272.374 z M659.199,266.998 L659.199,270.089 L659.346,269.854 Q661.279,266.734 663.213,266.734 Q664.722,266.734 666.362,268.258 L664.956,270.602 Q663.565,269.283 662.378,269.283 Q661.089,269.283 660.144,270.514 Q659.199,271.744 659.199,273.429 L659.199,280.475 L656.519,280.475 L656.519,266.998 z" fill="#FFFFFF"/>
    </g>
    <g>
      <path d="M679.858,331.641 C679.858,330.297 676.952,329.207 673.362,329.207 L486.354,329.207 C482.767,329.207 479.858,330.297 479.858,331.641 L479.858,401.77 C479.858,403.116 482.767,404.207 486.354,404.207 L673.362,404.207 C676.952,404.207 679.858,403.116 679.858,401.77 L679.858,331.641" fill="#EE9C02" fill-opacity="0.8"/>
      <path d="M679.858,331.641 C679.858,330.297 676.952,329.207 673.362,329.207 L486.354,329.207 C482.767,329.207 479.858,330.297 479.858,331.641 L479.858,401.77 C479.858,403.116 482.767,404.207 486.354,404.207 L673.362,404.207 C676.952,404.207 679.858,403.116 679.858,401.77 L679.858,331.641" fill-opacity="0" stroke="#F9DCA0" stroke-width="1" stroke-dasharray="3,2"/>
    </g>
    <text transform="matrix(1, 0, 0, 1, 585.812, 366.707)">
      <tspan x="-90.139" y="7.623" font-family="GillSans" font-size="30" fill="#FFFFFF">Config Server</tspan>
    </text>
    <g>
      <g>
        <path d="M654.867,283.661 C654.867,282.317 651.961,281.227 648.371,281.227 L461.363,281.227 C457.777,281.227 454.867,282.317 454.867,283.661 L454.867,353.79 C454.867,355.136 457.777,356.227 461.363,356.227 L648.371,356.227 C651.961,356.227 654.867,355.136 654.867,353.79 L654.867,283.661" fill="#EE9C02"/>
        <path d="M654.867,283.661 C654.867,282.317 651.961,281.227 648.371,281.227 L461.363,281.227 C457.777,281.227 454.867,282.317 454.867,283.661 L454.867,353.79 C454.867,355.136 457.777,356.227 461.363,356.227 L648.371,356.227 C651.961,356.227 654.867,355.136 654.867,353.79 L654.867,283.661" fill-opacity="0" stroke="#F9DCA0" stroke-width="1" stroke-dasharray="3,2"/>
      </g>
      <text transform="matrix(1, 0, 0, 1, 560.822, 318.727)">
        <tspan x="-90.139" y="7.623" font-family="GillSans" font-size="30" fill="#FFFFFF">Config Server</tspan>
      </text>
    </g>
  </g>
  <defs/>
</svg>
