<?xml version="1.0" encoding="UTF-8"?>
<!DOCTYPE svg PUBLIC "-//W3C//DTD SVG 1.1//EN" "http://www.w3.org/Graphics/SVG/1.1/DTD/svg11.dtd">
<svg version="1.1" xmlns="http://www.w3.org/2000/svg" xmlns:xlink="http://www.w3.org/1999/xlink" x="0px" y="0px" width="720" height="560" viewBox="0, 0, 720, 560">
  <g id="Layer 1">
    <g>
      <path d="M710,402.718 C710,401.553 707.094,400.608 703.504,400.608 L516.496,400.608 C512.91,400.608 510,401.553 510,402.718 L510,463.497 C510,464.663 512.91,465.608 516.496,465.608 L703.504,465.608 C707.094,465.608 710,464.663 710,463.497 L710,402.718" fill="#5CA831"/>
      <path d="M710,402.718 C710,401.553 707.094,400.608 703.504,400.608 L516.496,400.608 C512.91,400.608 510,401.553 510,402.718 L510,463.497 C510,464.663 512.91,465.608 516.496,465.608 L703.504,465.608 C707.094,465.608 710,464.663 710,463.497 L710,402.718" fill-opacity="0" stroke="#AED675" stroke-width="1" stroke-dasharray="3,2"/>
    </g>
    <g>
      <path d="M690,421.469 C690,420.304 687.094,419.359 683.504,419.359 L496.496,419.359 C492.91,419.359 490,420.304 490,421.469 L490,482.248 C490,483.414 492.91,484.359 496.496,484.359 L683.504,484.359 C687.094,484.359 690,483.414 690,482.248 L690,421.469" fill="#5CA831"/>
      <path d="M690,421.469 C690,420.304 687.094,419.359 683.504,419.359 L496.496,419.359 C492.91,419.359 490,420.304 490,421.469 L490,482.248 C490,483.414 492.91,484.359 496.496,484.359 L683.504,484.359 C687.094,484.359 690,483.414 690,482.248 L690,421.469" fill-opacity="0" stroke="#9EC36B" stroke-width="1" stroke-dasharray="3,2"/>
    </g>
    <g>
      <g>
        <path d="M670,439.964 C670,438.799 667.094,437.854 663.504,437.854 L476.496,437.854 C472.91,437.854 470,438.799 470,439.964 L470,500.743 C470,501.909 472.91,502.854 476.496,502.854 L663.504,502.854 C667.094,502.854 670,501.909 670,500.743 L670,439.964" fill="#5CA831"/>
        <path d="M670,439.964 C670,438.799 667.094,437.854 663.504,437.854 L476.496,437.854 C472.91,437.854 470,438.799 470,439.964 L470,500.743 C470,501.909 472.91,502.854 476.496,502.854 L663.504,502.854 C667.094,502.854 670,501.909 670,500.743 L670,439.964" fill-opacity="0" stroke="#AED675" stroke-width="1" stroke-dasharray="3,2"/>
      </g>
      <text transform="matrix(1, -0, 0, 1, 570, 470.597)">
        <tspan x="-47.883" y="12" font-family="GillSans" font-size="36" fill="#FFFFFE">Shards</tspan>
      </text>
    </g>
    <text transform="matrix(1, 0, -0, 1, 360, 265)">
      <tspan x="-57.453" y="12" font-family="GillSans" font-size="36" fill="#FFFFFE">P</tspan>
      <tspan x="-40.117" y="12" font-family="GillSans" font-size="36" fill="#FFFFFE">rimary</tspan>
    </text>
    <path d="M206.282,102.188 C206.282,104.374 207.392,106.146 208.762,106.146 L511.238,106.146 C512.608,106.146 513.718,104.374 513.718,102.188 L513.718,10.103 C513.718,7.917 512.608,6.146 511.238,6.146 L208.762,6.146 C207.392,6.146 206.282,7.917 206.282,10.103 L206.282,102.188" fill="#484743"/>
    <text transform="matrix(1, 0, -0, 1, 360, 29.829)">
      <tspan x="-129.088" y="12" font-family="GillSans" font-size="36" fill="#FFFFFE">Client</tspan>
      <tspan x="-40.582" y="12" font-family="GillSans" font-size="36" fill="#FFFFFE"> </tspan>
      <tspan x="-35.584" y="12" font-family="GillSans" font-size="36" fill="#FFFFFE">Application</tspan>
    </text>
    <path d="M206.282,55.865 L513.718,55.865" fill-opacity="0" stroke="#ECEBE9" stroke-width="1"/>
    <text transform="matrix(1, 0, -0, 1, 360, 81.828)">
      <tspan x="-47.848" y="12" font-family="GillSans" font-size="36" fill="#FFFFFE">Driver</tspan>
    </text>
    <g>
      <path d="M360,127.4 L360,206.6" fill-opacity="0" stroke="#484743" stroke-width="4"/>
      <path d="M364.8,127.4 L360,114.6 L355.2,127.4 z" fill="#484743" fill-opacity="1" stroke="#484743" stroke-width="4" stroke-opacity="1"/>
      <path d="M355.2,206.6 L360,219.4 L364.8,206.6 z" fill="#484743" fill-opacity="1" stroke="#484743" stroke-width="4" stroke-opacity="1"/>
    </g>
    <g>
      <g>
        <path d="M460,228.434 C460,227.09 457.094,226 453.504,226 L266.496,226 C262.91,226 260,227.09 260,228.434 L260,298.563 C260,299.909 262.91,301 266.496,301 L453.504,301 C457.094,301 460,299.909 460,298.563 L460,228.434" fill="#2A86C0"/>
        <text transform="matrix(1, 0, 0, 1, 360, 263.5)">
          <tspan x="-51.548" y="8.769" font-family="GillSans" font-size="36" fill="#FFFFFF">Router</tspan>
        </text>
      </g>
      <text transform="matrix(1, 0, 0, 1, 360, 282.797)">
        <tspan x="-38.228" y="6" font-family="GillSans" font-size="20" fill="#FFFFFF">(mongos)</tspan>
      </text>
    </g>
    <g>
      <path d="M421.384,315.305 L487.815,384.195" fill-opacity="0" stroke="#484743" stroke-width="4"/>
      <path d="M424.839,311.973 L412.499,306.091 L417.929,318.637 z" fill="#484743" fill-opacity="1" stroke="#484743" stroke-width="4" stroke-opacity="1"/>
      <path d="M484.36,387.527 L496.7,393.409 L491.27,380.863 z" fill="#484743" fill-opacity="1" stroke="#484743" stroke-width="4" stroke-opacity="1"/>
    </g>
    <g>
      <path d="M297.815,315.305 L231.384,384.195" fill-opacity="0" stroke="#484743" stroke-width="4" stroke-dasharray="8,4"/>
      <path d="M301.27,318.637 L306.7,306.091 L294.36,311.973 z" fill="#484743" fill-opacity="1" stroke="#484743" stroke-width="4" stroke-opacity="1"/>
      <path d="M227.929,380.863 L222.499,393.409 L234.839,387.527 z" fill="#484743" fill-opacity="1" stroke="#484743" stroke-width="4" stroke-opacity="1"/>
    </g>
    <g>
      <path d="M250,408.043 C250,406.698 247.094,405.608 243.504,405.608 L56.496,405.608 C52.91,405.608 50,406.698 50,408.043 L50,478.172 C50,479.517 52.91,480.608 56.496,480.608 L243.504,480.608 C247.094,480.608 250,479.517 250,478.172 L250,408.043" fill="#E88B09"/>
      <path d="M250,408.043 C250,406.698 247.094,405.608 243.504,405.608 L56.496,405.608 C52.91,405.608 50,406.698 50,408.043 L50,478.172 C50,479.517 52.91,480.608 56.496,480.608 L243.504,480.608 C247.094,480.608 250,479.517 250,478.172 L250,408.043" fill-opacity="0" stroke="#F7D58F" stroke-width="1" stroke-dasharray="3,2"/>
    </g>
    <g>
      <path d="M230,416.794 C230,415.449 227.094,414.359 223.504,414.359 L36.496,414.359 C32.91,414.359 30,415.449 30,416.794 L30,486.923 C30,488.268 32.91,489.359 36.496,489.359 L223.504,489.359 C227.094,489.359 230,488.268 230,486.923 L230,416.794" fill="#E88B09"/>
      <path d="M230,416.794 C230,415.449 227.094,414.359 223.504,414.359 L36.496,414.359 C32.91,414.359 30,415.449 30,416.794 L30,486.923 C30,488.268 32.91,489.359 36.496,489.359 L223.504,489.359 C227.094,489.359 230,488.268 230,486.923 L230,416.794" fill-opacity="0" stroke="#F7D58F" stroke-width="1" stroke-dasharray="3,2"/>
    </g>
    <g>
      <g>
        <path d="M210.188,430.789 C210.188,429.444 207.282,428.354 203.692,428.354 L16.684,428.354 C13.097,428.354 10.188,429.444 10.188,430.789 L10.188,500.918 C10.188,502.263 13.097,503.354 16.684,503.354 L203.692,503.354 C207.282,503.354 210.188,502.263 210.188,500.918 L210.188,430.789" fill="#E88B09"/>
        <path d="M210.188,430.789 C210.188,429.444 207.282,428.354 203.692,428.354 L16.684,428.354 C13.097,428.354 10.188,429.444 10.188,430.789 L10.188,500.918 C10.188,502.263 13.097,503.354 16.684,503.354 L203.692,503.354 C207.282,503.354 210.188,502.263 210.188,500.918 L210.188,430.789" fill-opacity="0" stroke="#F7D58F" stroke-width="1" stroke-dasharray="3,2"/>
      </g>
      <text transform="matrix(1, 0, 0, 1, 110.188, 466.354)">
        <tspan x="-48.357" y="-8.5" font-family="GillSans" font-size="36" fill="#FFFFFF">Config </tspan>
        <tspan x="-47.804" y="32.5" font-family="GillSans" font-size="36" fill="#FFFFFF">Server</tspan>
      </text>
    </g>
    <text transform="matrix(1, 0, 0, 1, 110.188, 536)">
      <tspan x="-55.737" y="10" font-family="GillSans" font-size="30" fill="#484743">Metadata</tspan>
    </text>
    <text transform="matrix(1, 0, 0, 1, 566.17, 536)">
      <tspan x="-29.048" y="10" font-family="GillSans" font-size="30" fill="#484743">Data</tspan>
    </text>
    <g>
      <path d="M286.4,465.608 L433.6,465.608" fill-opacity="0" stroke="#484743" stroke-width="4" stroke-dasharray="8,4"/>
      <path d="M286.4,460.808 L273.6,465.608 L286.4,470.408 z" fill="#484743" fill-opacity="1" stroke="#484743" stroke-width="4" stroke-opacity="1"/>
      <path d="M433.6,470.408 L446.4,465.608 L433.6,460.808 z" fill="#484743" fill-opacity="1" stroke="#484743" stroke-width="4" stroke-opacity="1"/>
    </g>
  </g>
  <defs/>
</svg>
