<svg xmlns="http://www.w3.org/2000/svg" width="360" height="460" fill="none"><path fill="#fff" d="M0 0h360v460H0z"/><path fill="#6CB340" d="M117.5 290.2c0-3-1.6-5.5-3.5-5.5H12c-2 0-3.5 2.5-3.5 5.5v157c0 3 1.6 5.5 3.5 5.5h102c2 0 3.5-2.4 3.5-5.4z"/><path stroke="#6CB340" d="M117.5 290.2c0-3-1.6-5.5-3.5-5.5H12c-2 0-3.5 2.5-3.5 5.5v157c0 3 1.6 5.5 3.5 5.5h102c2 0 3.5-2.4 3.5-5.4z"/><path fill="#fff" d="m32.6 299.4-1.8-1.1q-1.6-1-2.4-2-.7-1-.7-2.3 0-2 1.4-3.1 1.299-1.3 3.5-1.3 1.999 0 3.7 1.2v2.7q-1.7-1.7-3.8-1.7-1.1 0-1.9.5-.7.5-.7 1.4 0 .7.5 1.3.6.7 1.8 1.4l1.8 1q3 1.8 3 4.6 0 2-1.3 3.2-1.4 1.2-3.5 1.2-2.4 0-4.4-1.5v-3q2 2.5 4.4 2.5 1.1 0 1.8-.7.8-.6.8-1.5 0-1.5-2.2-2.8m6.6-9.5h2.2v7q1.299-1.7 3.3-1.7 1 0 2 .6.8.5 1.2 1.5t.4 2.8v6.1h-2.1v-6.6q0-1.2-.6-2-.6-.7-1.5-.7-.7 0-1.4.4-.6.399-1.3 1.2v7.7h-2.2v-16.3m18.8 9.9v4.5q0 .6.4.6.399 0 1.2-.6v1.3q-.702.5-1.1.6l-1 .2q-1.3 0-1.6-1-1.3 1-2.9 1-1 0-1.8-.7-.8-.8-.8-2 0-1 .7-1.7.799-.8 2.1-1.3l2.8-1v-.5q0-2-2-2-1.7 0-3.4 1.8v-2.3q1.299-1.5 3.6-1.5 1.7 0 2.8 1l.6.7.4 1zm-2 4.3v-3.2l-1.5.6q-1 .4-1.5.8-.5.5-.5 1.1 0 .7.5 1.1.4.4 1 .4 1 0 2-.8m7.8-8.6v2.4l.2-.2q1.5-2.5 3-2.5 1.3 0 2.6 1.3l-1.2 1.8q-1-1-2-1t-1.8 1a3.58 3.58 0 0 0-.8 2.3v5.6h-2.1v-10.7zm14.1-5.6H80v16.3h-4.5q-2.401 0-3.8-1.5-1.5-1.5-1.5-4 0-2.4 1.5-4 1.5-1.5 3.8-1.5 1.1 0 2.4.5zm0 14.5v-6.8q-1-.5-2-.5-1.6 0-2.6 1t-1 2.8q0 1.7 1 2.6.4.5 1 .7.5.2 2 .2zm14.8-14.6h1.7l7.299 16.4h-2.4l-2.2-4.8h-7l-2 4.8h-2.4zm3.4 9.5-2.6-6-2.4 6zM38.8 351.3h59v83.6h-59z"/><path stroke="#0176C0" d="M38.8 351.3h59v83.6h-59z"/><path fill="#fff" d="M28.3 360.7H89v84.6H28.3z"/><path stroke="#0176C0" d="M28.3 360.7H89v84.6H28.3z"/><path fill="#6CB340" d="M234.699 290.2c0-3-1.5-5.5-3.5-5.5h-102c-1.9 0-3.5 2.5-3.5 5.5v157c0 3 1.6 5.5 3.6 5.5h101.9c2 0 3.5-2.4 3.5-5.4z"/><path stroke="#6CB340" d="M234.699 290.2c0-3-1.5-5.5-3.5-5.5h-102c-1.9 0-3.5 2.5-3.5 5.5v157c0 3 1.6 5.5 3.6 5.5h101.9c2 0 3.5-2.4 3.5-5.4z"/><path fill="#fff" d="m147.599 299.4-1.8-1.1q-1.7-1-2.4-2t-.7-2.3q0-2 1.3-3.1 1.4-1.3 3.5-1.3 2 0 3.8 1.2v2.7q-1.8-1.7-3.8-1.7-1.2 0-2 .5-.7.5-.7 1.4 0 .7.6 1.3.5.7 1.7 1.4l1.8 1q3 1.8 3 4.6 0 2-1.3 3.2t-3.4 1.2q-2.499 0-4.5-1.5v-3q2 2.5 4.4 2.5 1.1 0 1.9-.7.7-.6.7-1.5 0-1.5-2.1-2.8m6.6-9.5h2.1v7q1.3-1.7 3.3-1.7 1.1 0 2 .6.801.5 1.2 1.5.4 1 .4 2.8v6.1h-2v-6.6q0-1.2-.7-2-.5-.7-1.5-.7-.7 0-1.3.4l-1.4 1.2v7.7h-2.1v-16.3m18.8 9.9v4.5q0 .6.4.6t1.2-.6v1.3l-1.2.6q-.4.2-1 .2-1.299 0-1.5-1-1.4 1-3 1-.999 0-1.8-.7-.7-.8-.7-2 0-1 .7-1.7.7-.8 2-1.3l2.8-1v-.5q0-2-2-2-1.7 0-3.3 1.8v-2.3q1.2-1.5 3.5-1.5 1.8 0 2.8 1 .4.2.7.7l.3 1v1.9zm-2.1 4.3v-3.2l-1.4.6q-1.1.4-1.6.8-.4.5-.4 1.1 0 .7.4 1.1t1.1.4q1 0 1.9-.8m7.9-8.6v2.4-.2q1.6-2.5 3.2-2.5 1.2 0 2.5 1.3l-1.1 1.8q-1.1-1-2-1-1.1 0-1.9 1-.7 1-.7 2.3v5.6h-2.2v-10.7zm14-5.6h2.2v16.3h-4.6q-2.4 0-3.8-1.5t-1.4-4q0-2.4 1.5-4 1.5-1.5 3.8-1.5 1 0 2.3.5zm0 14.5v-6.8q-1-.5-2-.5-1.6 0-2.5 1-1 1-1 2.8 0 1.7.8 2.6.5.5 1 .7.6.2 2 .2zm17.6 1.8h-5.6V290h4.3q2 0 3.2.5 1.1.6 1.7 1.5.6 1 .6 2.2 0 2.4-2.5 3.5 1.8.3 2.8 1.4 1.1 1.2 1.1 2.8 0 1.2-.6 2.2-.7 1-2 1.6-1.2.6-3 .6zm-1.2-14.3h-2v5h1.5q1.9 0 2.7-.7.8-.8.8-1.9 0-2.4-3-2.4m.1 7h-2.1v5.2h2.3q1.9 0 2.6-.2.7-.4 1-1 .5-.6.5-1.3 0-.8-.5-1.4-.399-.6-1.2-1-.8-.2-2.6-.2z"/><path fill="#6CB340" d="M350.199 290.2c0-3-1.6-5.5-3.6-5.5h-101.9c-2 0-3.5 2.5-3.5 5.5v157c0 3 1.6 5.5 3.5 5.5h102c2 0 3.5-2.4 3.5-5.4z"/><path stroke="#6CB340" d="M350.199 290.2c0-3-1.6-5.5-3.6-5.5h-101.9c-2 0-3.5 2.5-3.5 5.5v157c0 3 1.6 5.5 3.5 5.5h102c2 0 3.5-2.4 3.5-5.4z"/><path fill="#fff" d="m261.8 299.4-1.7-1.1q-1.7-1-2.4-2t-.7-2.3q0-2 1.3-3.1 1.3-1.3 3.5-1.3 2 0 3.8 1.2v2.7q-1.8-1.7-3.9-1.7-1.1 0-1.8.5-.8.5-.8 1.4 0 .7.6 1.3.5.7 1.7 1.4l1.8 1q3 1.8 3 4.6 0 2-1.3 3.2t-3.4 1.2q-2.5 0-4.5-1.5v-3q2 2.5 4.4 2.5 1.1 0 1.9-.7.7-.6.7-1.5 0-1.5-2.2-2.8m6.7-9.5h2v7q1.4-1.7 3.4-1.7 1 0 2 .6.8.5 1.2 1.5t.4 2.8v6.1h-2.1v-6.6q0-1.2-.6-2-.6-.7-1.5-.7-.7 0-1.3.4-.7.399-1.4 1.2v7.7h-2.1v-16.3m18.8 9.9v4.5q0 .6.4.6.3 0 1.2-.6v1.3l-1.2.6q-.4.2-1 .2-1.3 0-1.5-1-1.4 1-3 1-1 0-1.8-.7-.8-.8-.8-2 0-1 .8-1.7.7-.8 2-1.3l2.8-1v-.5q0-2-2-2-1.7 0-3.4 1.8v-2.3q1.3-1.5 3.6-1.5 1.8 0 2.8 1 .4.2.6.7l.4 1v1.9zm-2.1 4.3v-3.2l-1.4.6q-1.1.4-1.6.8-.4.5-.4 1.1 0 .7.4 1.1t1.1.4q1 0 1.9-.8m7.8-8.6v2.4l.2-.2q1.5-2.5 3-2.5 1.3 0 2.6 1.3l-1.1 1.8q-1.2-1-2.1-1-1 0-1.8 1-.7 1-.7 2.3v5.6h-2.2v-10.7h2.2zm14.1-5.6h2.2v16.3h-4.6q-2.4 0-3.8-1.5t-1.4-4q0-2.4 1.4-4 1.5-1.5 3.9-1.5 1 0 2.3.5zm0 14.5v-6.8q-1-.5-2-.5-1.6 0-2.6 1-.9 1-.9 2.8 0 1.7.8 2.6.5.5 1 .7.6.2 2 .2zm26.1-2v2.6q-2.6 1.4-6 1.4-2.7 0-4.6-1-2-1.2-3-3.1-1.1-2.001-1.1-4.2 0-3.6 2.5-6 2.6-2.5 6.3-2.5 2.6 0 5.7 1.4v2.5q-2.8-1.6-5.6-1.6t-4.7 1.8q-1.8 1.7-1.8 4.4t1.8 4.4q1.8 1.8 4.7 1.8 3 0 5.8-1.9"/><path fill="#0176C0" d="M51.8 333v2.3q-2.2 1.3-5.2 1.3-2.4 0-4-1-1.7-1-2.7-2.6a7.17 7.17 0 0 1-1-3.7q0-3.1 2.3-5.3 2.2-2.1 5.5-2.1 2.2 0 5 1.2v2.2q-2.5-1.5-5-1.5-2.4 0-4 1.6t-1.6 3.9q0 2.4 1.6 3.9t4 1.5q2.7 0 5.1-1.6zm6.8-6q2.2 0 3.6 1.3 1.5 1.4 1.5 3.5 0 2-1.5 3.4-1.4 1.4-3.6 1.4-2.199 0-3.6-1.4-1.4-1.4-1.4-3.4t1.4-3.5q1.5-1.3 3.6-1.3m0 1.6q-1.4 0-2.3 1-.8.8-.8 2.2 0 1.3.9 2.2.8.8 2.2.8t2.3-.8q.9-.9.9-2.3 0-1.3-1-2.2-.9-.9-2.3-.9zm7.1-6.6h2v14.4h-2V322m4.7 0h1.8v14.4h-1.8V322m12.6 9.9h-6.6q0 1.3.9 2.1.801.8 2.1.8 1.9 0 3.4-1.1v1.8q-.8.6-1.7.8-.8.3-2 .3-1.5 0-2.5-.7a3.73 3.73 0 0 1-1.5-1.7q-.6-1.1-.6-2.6 0-2.1 1.2-3.5 1.2-1.3 3.2-1.3 1.9 0 3 1.3t1.1 3.5zm-6.6-1.2h4.8q-.1-1-.7-1.7-.6-.6-1.6-.6t-1.7.6q-.6.6-.8 1.7m15.6 3.5v1.8q-1.299.6-2.7.6-2.2 0-3.5-1.3-1.3-1.4-1.3-3.6t1.3-3.5q1.3-1.4 3.4-1.4l1.3.1 1.4.5v2q-1.4-.9-2.6-.9-1.299 0-2.1 1-.8.8-.8 2.2t.9 2.3q.8.8 2.3.8 1.1 0 2.5-.6zm.9-5.7 3.5-3.5v2h3v1.7h-3v4.6q0 1.6 1.3 1.6 1 0 2.2-.7v1.8q-1.1.6-2.4.6t-2.1-.8l-.5-.5-.3-.7v-5.9h-1.7zm9.3-5.5q.4 0 .8.3.3.3.3.8t-.3.8q-.4.3-.8.3t-.8-.3q-.3-.4-.3-.8t.3-.8q.4-.3.8-.3m-1 4h2v9.4h-2zm9.1 0q2.2 0 3.6 1.3 1.4 1.4 1.4 3.5 0 2-1.4 3.4-1.5 1.4-3.7 1.4-2 0-3.5-1.4-1.4-1.4-1.4-3.4t1.4-3.5q1.5-1.3 3.6-1.3m0 1.6q-1.4 0-2.3 1-.8.8-.8 2.2 0 1.3.8 2.2 1 .8 2.3.8 1.4 0 2.3-.8.8-.9.8-2.3 0-1.3-.9-2.2t-2.3-.9zm8.9-1.6v1.2q1.3-1.4 2.9-1.4.9 0 1.6.5.801.4 1.2 1.2.4.8.4 2.5v5.4h-1.9V331q0-1.4-.4-2-.5-.7-1.5-.7-1.3 0-2.3 1.4v6.7h-1.9V327h2zm11.6-5h2v14.4h-2V322m17.5-.1h1.1q-1.3 2.001-1.9 3.3-.5 1.3-.8 3-.3 1.8-.3 3.4 0 5.601 3 9.6h-1.1l-.4-.4-1.7-2.2-1-2.4q-1-2.2-1-4.6t1-4.7q.801-2.2 3-5zm2.3 13.8v-2q.7.6 1.6 1 .8.3 1.4.3.5 0 1-.3.4-.3.4-.7t-.3-.7l-1.2-.8q-1.8-1-2.3-1.7-.6-.699-.6-1.5 0-1.1.9-1.8.801-.7 2.1-.7 1.4 0 2.9.8v1.8q-1.7-1-2.7-1-.6 0-1 .2-.2.3-.2.7l.2.6 1.1.7.7.4q2.3 1.3 2.3 3 0 1-.9 1.8t-2.3.8a5.4 5.4 0 0 1-1.5-.2zM159 322h1.9v6.2q1.1-1.4 2.9-1.4 1 0 1.7.5.7.4 1 1.3.4.801.4 2.4v5.4h-1.8v-5.8q0-1-.5-1.7-.5-.6-1.4-.6-.6 0-1.1.3-.6.3-1.2 1v6.8H159V322m16.5 8.7v4q0 .5.3.5t1-.5v1.2l-1 .5q-.3.2-.8.2-1.2 0-1.4-1-1.2 1-2.5 1a2.32 2.32 0 0 1-1.7-.7q-.6-.7-.6-1.6 0-1 .6-1.6.7-.7 1.9-1.1l2.3-.9v-.5q0-1.7-1.7-1.7-1.5 0-3 1.6v-2q1.2-1.3 3.2-1.3 1.5 0 2.4.8.4.2.6.7l.3.8v1.6zm-1.9 3.8v-2.8l-1.2.5q-1 .4-1.4.8t-.4 1q0 .501.4.9.4.4 1 .4.9 0 1.6-.8m6.9-7.5v2.1l.1-.1q1.401-2.2 2.7-2.2 1.1 0 2.2 1l-1 1.7q-1-1-1.7-1-1 0-1.6 1-.7.8-.7 2v5h-1.8V327zm12.3-5h2v14.4h-4q-2.2 0-3.4-1.3-1.3-1.299-1.3-3.6 0-2 1.3-3.4 1.3-1.3 3.4-1.3a5.4 5.4 0 0 1 2 .4zm0 12.8v-6q-.8-.4-1.7-.4-1.4 0-2.3.9-.8 1-.8 2.5 0 1.4.7 2.2.5.501 1 .6.4.2 1.7.2zm16.4-7.8h2.2l-4 4.6 4.8 4.8h-2.5l-4.7-4.8zm-6.1-5h1.8v14.4h-1.8V322m17.5 9.9h-6.7q.1 1.3 1 2.1.801.8 2.1.8 1.9 0 3.4-1.1v1.8q-.8.6-1.7.8-.8.3-2 .3-1.5 0-2.5-.7-1-.6-1.6-1.7-.5-1.1-.5-2.6 0-2.1 1.2-3.5 1.2-1.3 3.2-1.3 1.8 0 3 1.3 1 1.3 1 3.5v.3zm-6.6-1.2h4.7q0-1-.6-1.7-.6-.6-1.6-.6t-1.7.6q-.6.6-.8 1.7m14-3.7h2.1l-6.6 14.2h-2.1l3.2-6.8-3.7-7.4h2.2l2.5 5.3zm15.8 0h2.4l-4 4.6 4.2 4.8h-2.3l-3-3.4-2.8 3.4h-2.4l4-4.8-4-4.6h2.4l2.8 3.2zm4.1 14.2h-1.2q1.3-2 1.9-3.4t.8-3q.3-1.7.3-3.3 0-1.8-.3-3.4-.3-1.7-1-3.2-.6-1.5-1.7-3h1.2l.3.4 1.7 2.2 1 2.4q1 2.2 1 4.7 0 2.3-.8 4.4l-1 2.1q-.6 1.1-2.2 3.1"/><path stroke="#0176C0" stroke-dasharray="3 1.5" stroke-width="1.5" d="M24.4 341.5h303.601c5 0 9 6.4 9 14.3V433c0 7.9-4 14.3-9 14.3h-303.6c-5 0-9.1-6.4-9.1-14.3v-77.2c0-7.9 4-14.3 9-14.3z"/><path fill="#3299CC" d="M238.5 136.2c0-.9-1.7-1.6-3.8-1.6H125.3c-2.1 0-3.8.7-3.8 1.6v47c0 .9 1.7 1.6 3.8 1.6h109.4c2.1 0 3.8-.7 3.8-1.6z"/><path fill="#fff" d="M154 159.4v7.8h-2v-6q0-1.8-.6-2.5-.4-.7-1.6-.7-.7 0-1.3.3l-1.2 1v7.9H145v-10.8h2.2v1.4q1.6-1.6 3.1-1.6 2.1 0 3.2 2 1.7-2 3.6-2 1.6 0 2.6 1.1 1 1.2 1 3.5v6.4h-2.1v-6.4q0-1.3-.6-2-.5-.8-1.6-.8-1.3 0-2.4 1.4m14.8-3q2.5 0 4.1 1.6 1.7 1.6 1.7 4 0 2.301-1.7 3.9-1.6 1.5-4.1 1.5t-4.1-1.6q-1.6-1.5-1.6-3.9t1.6-4q1.7-1.5 4.1-1.5m0 2q-1.6 0-2.6 1t-1 2.5 1 2.5 2.6 1 2.6-1 1-2.5q0-1.6-1-2.6t-2.7-1zm10.2-2v1.4q1.5-1.6 3.3-1.6 1 0 1.9.5.8.501 1.3 1.5.4.9.4 2.8v6.2h-2.1v-6.1q0-1.7-.5-2.4t-1.7-.7q-1.5 0-2.6 1.5v7.7h-2v-10.8h2.1zm9.4 3.7q0-1.7 1.2-2.7 1.3-1 3.5-1h4.4v1.7h-2.2q.7.6.9 1.2.2.501.2 1.2 0 .8-.4 1.6a4 4 0 0 1-1.3 1.3q-.7.4-2.4.7-1.3.1-1.3.8 0 .4.5.6l1.6.5q2 .4 2.6.7.5.2 1 .7.8.8.8 2 0 1.5-1.4 2.4t-3.6.9q-2.3 0-3.7-1-1.4-.8-1.4-2.4 0-2.2 2.7-2.8-1-.7-1-1.4 0-.5.4-1l1.2-.5q-2.3-1.1-2.3-3.5m4-1.8q-.9 0-1.5.6-.6.5-.6 1.4 0 .8.6 1.3.6.6 1.5.6t1.5-.6q.6-.5.6-1.4 0-.8-.6-1.4-.6-.5-1.5-.5m-.5 9.4q-1.1 0-1.8.5-.7.4-.7 1.1 0 1.7 3 1.7 1.4 0 2.2-.4.8-.399.8-1.2 0-.699-1-1.2-1-.5-2.5-.5m12.2-11.3q2.5 0 4 1.6 1.7 1.6 1.7 4 0 2.301-1.6 3.9-1.7 1.5-4.2 1.5-2.4 0-4-1.6-1.7-1.5-1.7-3.9t1.7-4q1.6-1.5 4.1-1.5m-.1 2q-1.6 0-2.5 1-1 1-1 2.5t1 2.5 2.6 1q1.5 0 2.5-1t1-2.5q0-1.6-1-2.6t-2.6-1zm7.6 8v-2.3q1 .7 1.9 1 1 .4 1.6.4t1.1-.3.5-.8q0-.4-.3-.7-.3-.4-1.4-1-2-1-2.7-1.9-.6-.8-.6-1.8 0-1.2 1-2t2.5-.8 3.2.9v2.1q-1.9-1.1-3.1-1.1-.6 0-1 .2-.4.3-.4.7t.4.7q.3.4 1.2.9l.7.4q2.7 1.5 2.7 3.4 0 1.3-1 2.1-1 .9-2.7.9-1 0-1.7-.2zM156 351.3h59v83.6h-59z"/><path stroke="#0176C0" d="M156 351.3h59v83.6h-59z"/><path fill="#fff" d="M145.5 360.7h60.8v84.6h-60.8z"/><path stroke="#0176C0" d="M145.5 360.7h60.8v84.6h-60.8z"/><path fill="#fff" d="M271.5 351.3h58.9v83.6h-59z"/><path stroke="#0176C0" d="M271.5 351.3h58.9v83.6h-59z"/><path fill="#fff" d="M261 360.7h60.8v84.6H261z"/><path stroke="#0176C0" d="M261 360.7h60.8v84.6H261z"/><path fill="#5A5955" d="M122.6 55.4c0 1.3.9 2.2 2 2.2h113.1c1 0 2-1 2-2.2V10.2c0-1.2-1-2.2-2-2.2H124.6c-1.1 0-2 1-2 2.2z"/><path fill="#FFFFFE" d="M148.801 40.2V24h5.5q3.3 0 5.3 1 1.899 1 3 3a7.54 7.54 0 0 1 1.2 4.1q0 1.7-.6 3.2a9.1 9.1 0 0 1-1.8 2.6q-1.2 1.2-2.8 1.8-1 .4-1.7.5l-3 .1h-5.1zm5.2-14.2h-2.9v12.2h3q1.8 0 2.7-.2l1.6-.6q.699-.4 1.2-1 1.8-1.7 1.8-4.4 0-2.6-1.8-4.3a7.4 7.4 0 0 0-1.5-1q-.9-.4-1.6-.5-.8-.2-2.5-.2m14.7 3.4V32l.1-.2q1.6-2.5 3.1-2.5 1.2 0 2.6 1.3l-1.2 1.8q-1-1-2-1t-1.8 1a3.57 3.57 0 0 0-.8 2.3v5.6h-2.1V29.4zm8.3-4.4q.6 0 1 .3.3.3.3.9 0 .5-.3.9-.4.3-1 .3-.4 0-.8-.3-.4-.4-.4-1 0-.4.4-.8.399-.4.9-.4zm-1 4.4h2.1v10.8h-2.1zm11.8 0h2.3l-4.7 11h-.8l-4.8-11h2.3l2.9 6.7zm12.6 5.6h-7.6q.1 1.6 1 2.5 1 .9 2.5.9 2.2 0 4-1.3v2q-1 .7-2 1t-2.3.3q-1.8 0-2.9-.7a7.1 7.1 0 0 1-1.7-2q-.7-1.3-.7-3 0-2.4 1.4-4 1.4-1.5 3.6-1.5t3.4 1.5q1.3 1.5 1.3 4zm-7.5-1.3h5.4q0-1.2-.7-2-.7-.6-1.9-.6-1.1 0-1.9.7-.7.7-1 2zm12.1-4.3V32l.1-.2q1.6-2.5 3.1-2.5 1.2 0 2.5 1.3l-1 1.8q-1.2-1-2.1-1-1 0-1.8 1a3.57 3.57 0 0 0-.8 2.3v5.6h-2V29.4h2.1z"/><path stroke="#5A5955" stroke-width="3" d="M162.699 68v49.5"/><path fill="#5A5955" stroke="#5A5955" stroke-width="3" d="m158.5 117.5 4.2 11.2 4.2-11.2z"/><path stroke="#5A5955" stroke-width="3" d="M175.6 192v77"/><path fill="#5A5955" stroke="#5A5955" stroke-width="3" d="m171.4 269.1 4.2 11.2 4.2-11.2z"/><path stroke="#5A5955" stroke-width="3" d="M185.799 279.7v-74.2"/><path fill="#5A5955" stroke="#5A5955" stroke-width="3" d="m189.999 205.5-4.1-11.2-4.2 11.2z"/><path stroke="#5A5955" stroke-width="3" d="m198.801 132.8.3-51"/><path fill="#5A5955" stroke="#5A5955" stroke-width="3" d="m203.3 81.8-4.1-11.2-4.3 11.1z"/><path fill="#6D6C68" d="M106.6 86.5V70.1h4q2.5 0 4 1.3 1.5 1.2 1.5 3.3 0 1.4-.8 2.5-.7 1-2 1.5.8.5 1.5 1.4.8 1 2.1 3.1l1.4 2.1.9 1.2h-2.8l-.7-1-.2-.3-.4-.6-.8-1.2-.7-1.3-1.4-1.6-1-.8q-.5-.3-1.7-.3h-.6v7.1zm3-14.4h-.7v5.2h.9q1.8 0 2.4-.3.7-.3 1-1 .4-.5.4-1.3t-.4-1.4a2.3 2.3 0 0 0-1.1-1q-.8-.2-2.5-.2m20.4 9.2h-7.7q.1 1.6 1 2.5 1 .9 2.5.9 2.1 0 4-1.3v2q-1 .7-2 1t-2.3.3q-1.8 0-2.9-.8-1-.7-1.8-2-.6-1.2-.6-2.8 0-2.5 1.4-4 1.4-1.6 3.6-1.6t3.4 1.5q1.3 1.5 1.3 4v.3zm-7.6-1.3h5.4q0-1.2-.8-2-.6-.6-1.8-.6-1.1 0-1.9.7-.7.7-1 2zm16.6 0v4.6q0 .6.4.6.3 0 1.2-.6v1.3l-1.2.6q-.4.2-1 .2-1.3 0-1.5-1-1.401 1-3 1-1 0-1.8-.8-.8-.7-.8-1.8 0-1 .8-1.9.7-.8 2-1.2l2.8-1v-.5q0-2-2-2-1.7 0-3.4 1.8V77q1.299-1.5 3.6-1.5 1.8 0 2.8 1 .399.2.6.7l.4 1V80zm-2.1 4.4v-3.2l-1.4.5q-1.1.5-1.6 1-.4.3-.4 1t.4 1q.4.5 1 .5 1.1 0 2-.8m12.8-14.3h2.1v16.4h-4.5q-2.4 0-3.9-1.5-1.4-1.5-1.4-4 0-2.4 1.5-4 1.5-1.5 3.8-1.5 1.1 0 2.4.5v-6zm0 14.6v-6.9q-1-.5-2-.5-1.6 0-2.6 1-1 1.1-1 2.9 0 1.7.9 2.6.5.5 1 .7.6.2 2 .2z"/><path fill="#5A5955" d="M209.2 123.5v-16.3h4.1q2.5 0 4 1.2 1.4 1.2 1.4 3.3 0 1.4-.7 2.5-.7 1-2 1.5.8.6 1.5 1.5.8.801 2.1 3l1.4 2.2.9 1.1H219l-.7-1-.2-.3-.4-.6-.8-1.2-.8-1.3-1.3-1.6-1-.8q-.6-.3-1.7-.3h-.6v7.1h-2.4zm3-14.4h-.6v5.2h.9q1.8 0 2.4-.3.7-.3 1-.9.4-.6.4-1.4t-.4-1.4-1.2-.9q-.7-.3-2.4-.3zm20.4 9.2H225q0 1.6 1 2.5t2.5.9q2.1 0 3.9-1.3v2q-1 .7-2 1t-2.2.3q-1.8 0-2.9-.7a6.5 6.5 0 0 1-1.8-2q-.6-1.299-.6-3 0-2.4 1.4-4 1.4-1.5 3.6-1.5 2.1 0 3.4 1.5t1.3 4zM225 117h5.4q-.1-1.2-.8-2-.7-.6-1.8-.6-1.2 0-1.9.7t-1 2zm9.4 5.8v-2.3l1.8 1q1 .4 1.6.4.7 0 1.1-.4.5-.3.5-.7 0-.5-.3-.8l-1.3-1q-2.001-1-2.7-1.9-.7-.8-.7-1.8 0-1.2 1-2t2.5-.8q1.6 0 3.2 1v2q-1.9-1.1-3-1.1-.7 0-1 .3-.5.201-.5.6 0 .4.4.8l1.2.8.8.4q2.7 1.5 2.7 3.4 0 1.3-1 2.2-1.101.8-2.7.8a7.4 7.4 0 0 1-1.8-.2zm16.6.7v-1.3a5.3 5.3 0 0 1-1.6 1.1q-.9.4-1.7.4-1 0-2-.5a3.08 3.08 0 0 1-1.2-1.4q-.5-.9-.5-2.9v-6.2h2.2v6.2q0 1.701.4 2.4.5.6 1.8.6 1.5 0 2.5-1.4v-7.8h2.2v10.8h-2.2zm5.1-16.3h2.2v16.3H256v-16.3zm3.8 7.3 4-4v2.2h3.4v2h-3.4v5.3q0 1.8 1.5 1.8 1.2 0 2.4-.8v2q-1.2.7-2.7.7-1.401 0-2.4-.8l-.5-.6-.3-.9q-.2-.5-.2-2v-4.7H260v-.2zm9 8.3v-2.3l1.8 1q1 .4 1.6.4.7 0 1.1-.4.5-.3.5-.7 0-.5-.3-.8l-1.3-1q-2.001-1-2.7-1.9-.7-.8-.7-1.8 0-1.2 1-2t2.5-.8q1.6 0 3.2 1v2q-1.9-1.1-3-1.1-.7 0-1 .3-.5.201-.5.6 0 .4.4.8l1.2.8.8.4q2.7 1.5 2.7 3.4 0 1.3-1 2.2-1.101.8-2.7.8a7.4 7.4 0 0 1-1.8-.2z"/><path stroke="#5A5955" stroke-width="3" d="m134.301 188.1-62.6 83.7"/><path fill="#5A5955" stroke="#5A5955" stroke-width="3" d="m68.3 269.3-3.4 11.5 10.1-6.5z"/><path stroke="#5A5955" stroke-width="3" d="m78.6 281.7 61.5-82.7"/><path fill="#5A5955" stroke="#5A5955" stroke-width="3" d="m143.399 201.5 3.3-11.5-10 6.5z"/><path stroke="#5A5955" stroke-width="3" d="m213.301 188.1 55.8 85.3"/><path fill="#5A5955" stroke="#5A5955" stroke-width="3" d="m265.602 275.7 9.6 7-2.6-11.6z"/><path stroke="#5A5955" stroke-width="3" d="m290.501 284.7-57.7-85.3"/><path fill="#5A5955" stroke="#5A5955" stroke-width="3" d="m236.3 197-9.8-7 2.8 11.7z"/></svg>