<?xml version="1.0" encoding="UTF-8"?>
<!DOCTYPE svg PUBLIC "-//W3C//DTD SVG 1.1//EN" "http://www.w3.org/Graphics/SVG/1.1/DTD/svg11.dtd">
<svg version="1.1" xmlns="http://www.w3.org/2000/svg" xmlns:xlink="http://www.w3.org/1999/xlink" x="0px" y="0px" width="760" height="250" viewBox="0, 0, 760, 250">
  <g id="Layer 1">
    <g>
      <g>
        <g>
          <path d="M54.958,16.931 L84.221,16.931 L84.221,59.377 L54.958,59.377 z" fill="#FFFFFF"/>
          <path d="M54.958,16.931 L84.221,16.931 L84.221,59.377 L54.958,59.377 z" fill-opacity="0" stroke="#0C60B2" stroke-width="0.929"/>
        </g>
        <g>
          <path d="M49.737,21.271 L79.937,21.271 L79.937,60.121 L49.737,60.121 z" fill="#FFFFFF"/>
          <path d="M49.737,21.271 L79.937,21.271 L79.937,60.121 L49.737,60.121 z" fill-opacity="0" stroke="#0C60B2" stroke-width="0.929"/>
        </g>
        <text transform="matrix(1, 0, 0, 1, 64.357, 38.688)">
          <tspan x="-13.324" y="3.5" font-family="GillSans" font-size="12" fill="#0C60B2">{</tspan>
          <tspan x="-9.328" y="3.5" font-family="GillSans" font-size="12" fill="#D33907">x</tspan>
          <tspan x="-3.328" y="3.5" font-family="GillSans" font-size="12" fill="#0C60B2">: ...}</tspan>
        </text>
      </g>
      <text transform="matrix(1, 0, 0, 1, 121.463, 31.498)">
        <tspan x="-36.381" y="6.5" font-family="GillSans" font-size="21" fill="#0C60B2">Chunk 1</tspan>
      </text>
    </g>
    <path d="M50.015,103.168 L710.304,103.168 L710.304,195.028 L50.015,195.028 z" fill="#0C60B2"/>
    <path d="M182.443,81.874 L182.443,226.874" fill-opacity="0" stroke="#AFD1E8" stroke-width="1.5" stroke-dasharray="3,1.5"/>
    <text transform="matrix(1, 0, 0, 1, 155.063, 230.569)">
      <tspan x="-24.093" y="0.5" font-family="GillSans" font-size="14" fill="#0C60B2">{ </tspan>
      <tspan x="-15.542" y="0.5" font-family="GillSans" font-size="14" fill="#D33907">x</tspan>
      <tspan x="-8.542" y="0.5" font-family="GillSans" font-size="14" fill="#0C60B2">: -75 } </tspan>
    </text>
    <path d="M333.705,81.874 L333.705,226.874" fill-opacity="0" stroke="#AFD1E8" stroke-width="1.5" stroke-dasharray="3,1.5"/>
    <path d="M543.698,81.874 L543.698,226.874" fill-opacity="0" stroke="#AFD1E8" stroke-width="1.5" stroke-dasharray="3,1.5"/>
    <path d="M338.147,74.296 L340.093,72.932 L343.822,70.888 L347.672,69.424 L351.741,68.426 L358.204,67.712 L367.208,67.95 L376.475,69.054 L385.848,70.47 L395.172,71.631 L404.309,71.961 L408.819,71.63 L408.819,71.63 C408.857,71.627 408.897,71.622 408.938,71.615 L408.938,71.615 L411.556,71.171 L416.629,69.62 L421.302,67.393 L425.458,64.773 L429.042,62.059 L432.013,59.558 L434.33,57.577 L435.875,56.462 L436.031,56.462 L435.372,56.633 L435.732,56.627 L436.435,57.017 L438.402,58.469 L441.505,61.172 L443.623,63.041 L444.724,63.918 L445.165,64.202 L445.165,64.202 C445.184,64.214 445.204,64.225 445.225,64.235 L445.225,64.235 L447.873,65.487 L453.635,67.31 L459.821,68.337 L466.258,68.753 L476.058,68.66 L485.639,68.292 L491.652,68.216 L494.48,68.299 L494.48,68.299 L496.777,68.368 L502.479,68.379 L509.181,68.37 L516.386,68.518 L523.602,68.997 L530.33,69.984 L534.741,71.154 L537.257,72.172 L539.382,73.408 L541.04,74.871 L541.655,75.665 L541.655,75.665 C541.999,76.101 542.928,75.841 543.731,75.084 C544.533,74.328 544.906,73.361 544.562,72.925 L543.819,71.997 L541.998,70.418 L539.729,69.112 L537.062,68.043 L532.487,66.839 L525.626,65.839 L518.324,65.356 L511.076,65.208 L504.381,65.217 L498.734,65.206 L496.436,65.138 L496.436,65.138 C496.436,65.138 496.436,65.138 496.435,65.138 L496.435,65.138 L493.524,65.054 L487.457,65.132 L477.936,65.498 L468.278,65.594 L462.007,65.198 L456.016,64.217 L450.408,62.454 L447.76,61.202 L447.82,61.235 L447.468,61.014 L446.406,60.17 L444.283,58.296 L441.112,55.54 L438.94,53.97 L437.599,53.465 L437.238,53.471 L437.238,53.471 C437.043,53.474 436.818,53.532 436.58,53.641 L436.58,53.641 L435.366,54.27 L433.371,55.741 L431.091,57.691 L428.416,59.955 L425.316,62.331 L421.763,64.614 L417.712,66.594 L413.055,68.044 L410.435,68.488 L410.555,68.474 L406.277,68.8 L397.295,68.482 L388.013,67.327 L378.589,65.904 L369.156,64.788 L359.85,64.564 L353.012,65.347 L348.487,66.491 L344.004,68.253 L339.698,70.659 L337.751,72.024 C336.884,72.631 336.271,73.632 336.38,74.259 C336.49,74.887 337.281,74.903 338.147,74.296 L338.147,74.296" fill="#0C60B2"/>
    <path d="M186.421,73.894 L187.822,72.53 L190.372,70.601 L192.92,69.282 L195.658,68.369 L200.156,67.694 L206.529,67.939 L213.149,69.039 L219.882,70.452 L226.604,71.615 L233.227,71.95 L236.553,71.616 L236.553,71.616 C236.61,71.61 236.67,71.6 236.731,71.586 L236.731,71.586 L238.616,71.142 L242.441,69.533 L246.05,67.171 L249.215,64.416 L251.877,61.623 L254.044,59.091 L255.715,57.107 L256.78,56.042 L256.621,56.26 L255.619,56.622 L255.877,56.617 L256.222,56.973 L257.613,58.406 L259.842,61.103 L261.366,62.972 L262.161,63.852 L262.486,64.143 L262.486,64.143 C262.504,64.159 262.524,64.174 262.544,64.188 L262.544,64.188 L264.45,65.44 L268.623,67.277 L273.12,68.318 L277.8,68.741 L284.899,68.649 L291.816,68.281 L296.125,68.206 L298.133,68.288 L298.133,68.288 L299.786,68.357 L303.908,68.369 L308.734,68.36 L313.906,68.507 L319.073,68.985 L323.878,69.966 L327.013,71.125 L328.796,72.131 L330.304,73.353 L331.483,74.802 L331.921,75.589 L331.921,75.589 C332.201,76.082 333.099,75.899 333.926,75.178 C334.753,74.458 335.197,73.474 334.917,72.98 L334.377,72.045 L333.052,70.452 L331.399,69.133 L329.45,68.051 L326.118,66.836 L321.142,65.831 L315.86,65.346 L310.628,65.198 L305.811,65.207 L301.765,65.196 L300.111,65.128 L300.111,65.128 C300.11,65.128 300.11,65.128 300.11,65.128 L300.11,65.128 L297.987,65.044 L293.601,65.122 L286.769,65.487 L279.863,65.586 L275.396,65.196 L271.128,64.23 L267.118,62.481 L265.212,61.228 L265.27,61.273 L265.024,61.059 L264.263,60.219 L262.734,58.344 L260.447,55.582 L258.859,53.994 L257.732,53.455 L257.473,53.46 L257.473,53.46 C257.182,53.467 256.829,53.594 256.471,53.823 L256.471,53.823 L255.325,54.67 L253.843,56.191 L252.204,58.137 L250.307,60.37 L248.159,62.666 L245.775,64.815 L243.105,66.661 L239.927,68.053 L238.041,68.497 L238.22,68.466 L235.221,68.79 L228.801,68.477 L222.132,67.325 L215.335,65.899 L208.496,64.778 L201.69,64.562 L196.614,65.384 L193.166,66.613 L189.717,68.519 L186.484,71.04 L185.082,72.405 C184.291,73.175 183.95,74.133 184.319,74.544 C184.689,74.955 185.63,74.664 186.421,73.894 L186.421,73.894" fill="#0C60B2"/>
    <path d="M548.242,74.027 L549.777,72.663 L552.61,70.705 L555.481,69.34 L558.556,68.396 L563.546,67.707 L570.571,67.949 L577.844,69.051 L585.228,70.465 L592.59,71.627 L599.83,71.961 L603.445,71.628 L603.445,71.628 C603.496,71.623 603.549,71.614 603.603,71.603 L603.603,71.603 L605.669,71.159 L609.791,69.571 L613.654,67.255 L617.067,64.54 L619.965,61.763 L622.335,59.235 L624.166,57.251 L625.341,56.18 L625.249,56.337 L624.355,56.633 L624.639,56.627 L625.075,56.994 L626.606,58.432 L629.05,61.13 L630.72,63 L631.591,63.878 L631.945,64.168 L631.945,64.168 C631.963,64.183 631.983,64.197 632.004,64.209 L632.004,64.209 L634.092,65.461 L638.657,67.294 L643.57,68.331 L648.681,68.752 L656.443,68.66 L664.016,68.292 L668.745,68.216 L670.956,68.299 L670.955,68.299 L672.767,68.367 L677.277,68.379 L682.565,68.37 L688.238,68.518 L693.91,68.996 L699.189,69.979 L702.639,71.142 L704.602,72.151 L706.262,73.377 L707.558,74.829 L708.039,75.617 L708.039,75.617 C708.336,76.096 709.243,75.891 710.064,75.161 C710.885,74.43 711.309,73.45 711.012,72.972 L710.422,72.038 L708.974,70.449 L707.168,69.133 L705.042,68.055 L701.405,66.844 L695.966,65.841 L690.187,65.356 L684.459,65.208 L679.18,65.217 L674.739,65.207 L672.926,65.138 L672.926,65.138 C672.926,65.138 672.926,65.138 672.925,65.138 L672.925,65.138 L670.609,65.054 L665.811,65.132 L658.316,65.498 L650.731,65.595 L645.819,65.204 L641.127,64.232 L636.724,62.479 L634.635,61.227 L634.694,61.268 L634.422,61.053 L633.587,60.212 L631.912,58.337 L629.407,55.577 L627.674,53.993 L626.497,53.465 L626.213,53.471 L626.213,53.471 C625.953,53.476 625.641,53.579 625.319,53.766 L625.319,53.766 L624.148,54.553 L622.53,56.067 L620.734,58.014 L618.651,60.25 L616.278,62.563 L613.61,64.752 L610.591,66.643 L607.04,68.056 L604.974,68.501 L605.133,68.476 L601.816,68.8 L594.765,68.486 L587.452,67.332 L580.008,65.908 L572.532,64.788 L565.116,64.569 L559.614,65.377 L555.91,66.576 L552.21,68.435 L548.705,70.927 L547.169,72.292 C546.347,73.022 545.922,74.002 546.218,74.482 C546.515,74.961 547.421,74.757 548.242,74.027 L548.242,74.027" fill="#0C60B2"/>
    <path d="M52.441,73.728 L53.68,72.364 L55.904,70.466 L58.067,69.213 L60.388,68.35 L64.281,67.7 L69.862,67.949 L75.693,69.046 L81.642,70.459 L87.593,71.622 L93.472,71.96 L96.456,71.625 L96.456,71.625 C96.522,71.617 96.592,71.603 96.664,71.584 L96.664,71.584 L98.331,71.14 L101.81,69.495 L105.119,67.061 L107.973,64.26 L110.34,61.455 L112.254,58.924 L113.731,56.941 L114.675,55.875 L114.456,56.16 L113.295,56.632 L113.523,56.627 L113.756,56.967 L114.978,58.393 L116.949,61.089 L118.296,62.958 L119,63.839 L119.29,64.132 L119.29,64.132 C119.307,64.15 119.326,64.166 119.346,64.181 L119.346,64.181 L121.032,65.433 L124.732,67.276 L128.728,68.324 L132.889,68.75 L139.191,68.66 L145.32,68.291 L149.121,68.216 L150.884,68.298 L150.883,68.298 L152.345,68.367 L156,68.379 L160.27,68.37 L164.837,68.517 L169.394,68.995 L173.626,69.972 L177.219,71.614 L179.293,73.359 L180.315,74.788 L180.702,75.574 L180.702,75.574 C180.959,76.087 181.844,75.93 182.679,75.224 C183.513,74.517 183.981,73.528 183.723,73.015 L183.246,72.079 L182.053,70.468 L179.738,68.573 L175.903,66.851 L171.484,65.842 L166.798,65.356 L162.163,65.208 L157.904,65.217 L154.334,65.207 L152.871,65.138 L152.871,65.138 C152.871,65.138 152.87,65.138 152.87,65.138 L152.87,65.138 L150.978,65.054 L147.089,65.133 L141.057,65.498 L134.972,65.597 L131.042,65.211 L127.286,64.251 L123.748,62.508 L122.062,61.256 L122.118,61.304 L121.903,61.093 L121.23,60.253 L119.878,58.379 L117.854,55.615 L116.442,54.02 L115.372,53.465 L115.143,53.471 L115.143,53.471 C114.807,53.479 114.39,53.648 113.981,53.943 L113.981,53.943 L112.89,54.858 L111.58,56.377 L110.13,58.324 L108.451,60.559 L106.562,62.843 L104.509,64.945 L102.263,66.719 L99.548,68.075 L97.88,68.519 L98.089,68.478 L95.478,68.801 L89.822,68.49 L83.929,67.339 L77.91,65.912 L71.837,64.788 L65.761,64.576 L61.186,65.423 L58.036,66.702 L54.894,68.675 L52.003,71.226 L50.763,72.591 C50.023,73.406 49.798,74.321 50.262,74.635 C50.726,74.949 51.701,74.543 52.441,73.728 L52.441,73.728" fill="#0C60B2"/>
    <g>
      <g>
        <g>
          <path d="M196.639,16.931 L225.902,16.931 L225.902,59.377 L196.639,59.377 z" fill="#FFFFFF"/>
          <path d="M196.639,16.931 L225.902,16.931 L225.902,59.377 L196.639,59.377 z" fill-opacity="0" stroke="#0C60B2" stroke-width="0.929"/>
        </g>
        <g>
          <path d="M191.418,21.271 L221.617,21.271 L221.617,60.121 L191.418,60.121 z" fill="#FFFFFF"/>
          <path d="M191.418,21.271 L221.617,21.271 L221.617,60.121 L191.418,60.121 z" fill-opacity="0" stroke="#0C60B2" stroke-width="0.929"/>
        </g>
        <text transform="matrix(1, 0, 0, 1, 206.038, 38.688)">
          <tspan x="-13.324" y="3.5" font-family="GillSans" font-size="12" fill="#0C60B2">{</tspan>
          <tspan x="-9.328" y="3.5" font-family="GillSans" font-size="12" fill="#D33907">x</tspan>
          <tspan x="-3.328" y="3.5" font-family="GillSans" font-size="12" fill="#0C60B2">: ...}</tspan>
        </text>
      </g>
      <text transform="matrix(1, 0, 0, 1, 263.143, 31.498)">
        <tspan x="-36.381" y="6.5" font-family="GillSans" font-size="21" fill="#0C60B2">Chunk 2</tspan>
      </text>
    </g>
    <g>
      <g>
        <g>
          <path d="M375.407,16.931 L404.671,16.931 L404.671,59.377 L375.407,59.377 z" fill="#FFFFFF"/>
          <path d="M375.407,16.931 L404.671,16.931 L404.671,59.377 L375.407,59.377 z" fill-opacity="0" stroke="#0C60B2" stroke-width="0.929"/>
        </g>
        <g>
          <path d="M370.187,21.271 L400.386,21.271 L400.386,60.121 L370.187,60.121 z" fill="#FFFFFF"/>
          <path d="M370.187,21.271 L400.386,21.271 L400.386,60.121 L370.187,60.121 z" fill-opacity="0" stroke="#0C60B2" stroke-width="0.929"/>
        </g>
        <text transform="matrix(1, 0, 0, 1, 384.806, 38.688)">
          <tspan x="-13.324" y="3.5" font-family="GillSans" font-size="12" fill="#0C60B2">{</tspan>
          <tspan x="-9.328" y="3.5" font-family="GillSans" font-size="12" fill="#D33907">x</tspan>
          <tspan x="-3.328" y="3.5" font-family="GillSans" font-size="12" fill="#0C60B2">: ...}</tspan>
        </text>
      </g>
      <text transform="matrix(1, 0, 0, 1, 441.912, 31.498)">
        <tspan x="-36.381" y="6.5" font-family="GillSans" font-size="21" fill="#0C60B2">Chunk 3</tspan>
      </text>
    </g>
    <g>
      <g>
        <g>
          <path d="M566.164,16.931 L595.428,16.931 L595.428,59.377 L566.164,59.377 z" fill="#FFFFFF"/>
          <path d="M566.164,16.931 L595.428,16.931 L595.428,59.377 L566.164,59.377 z" fill-opacity="0" stroke="#0C60B2" stroke-width="0.929"/>
        </g>
        <g>
          <path d="M560.944,21.271 L591.143,21.271 L591.143,60.121 L560.944,60.121 z" fill="#FFFFFF"/>
          <path d="M560.944,21.271 L591.143,21.271 L591.143,60.121 L560.944,60.121 z" fill-opacity="0" stroke="#0C60B2" stroke-width="0.929"/>
        </g>
        <text transform="matrix(1, 0, 0, 1, 575.564, 38.688)">
          <tspan x="-13.324" y="3.5" font-family="GillSans" font-size="12" fill="#0C60B2">{</tspan>
          <tspan x="-9.328" y="3.5" font-family="GillSans" font-size="12" fill="#D33907">x</tspan>
          <tspan x="-3.328" y="3.5" font-family="GillSans" font-size="12" fill="#0C60B2">: ...}</tspan>
        </text>
      </g>
      <text transform="matrix(1, 0, 0, 1, 632.669, 31.498)">
        <tspan x="-36.381" y="6.5" font-family="GillSans" font-size="21" fill="#0C60B2">Chunk 4</tspan>
      </text>
    </g>
    <text transform="matrix(1, 0, 0, 1, 380.236, 148.85)">
      <tspan x="-113.774" y="11.844" font-family="GillSans" font-size="36" fill="#FFFFFF">Key Space for </tspan>
      <tspan x="95.774" y="11.844" font-family="GillSans" font-size="36" fill="#0A0A0A">x</tspan>
    </text>
    <text transform="matrix(1, 0, 0, 1, 210.598, 229.333)">
      <tspan x="-24.093" y="1.598" font-family="GillSans" font-size="14" fill="#0C60B2">{ </tspan>
      <tspan x="-15.542" y="1.598" font-family="GillSans" font-size="14" fill="#D33907">x</tspan>
      <tspan x="-8.542" y="1.598" font-family="GillSans" font-size="14" fill="#0C60B2">: -74 } </tspan>
    </text>
    <text transform="matrix(1, 0, 0, 1, 308.793, 229.472)">
      <tspan x="-21.831" y="1.598" font-family="GillSans" font-size="14" fill="#0C60B2">{ </tspan>
      <tspan x="-13.279" y="1.598" font-family="GillSans" font-size="14" fill="#D33907">x</tspan>
      <tspan x="-6.279" y="1.598" font-family="GillSans" font-size="14" fill="#0C60B2">: 24 } </tspan>
    </text>
    <text transform="matrix(1, 0, 0, 1, 359.235, 229.472)">
      <tspan x="-21.831" y="1.598" font-family="GillSans" font-size="14" fill="#0C60B2">{ </tspan>
      <tspan x="-13.279" y="1.598" font-family="GillSans" font-size="14" fill="#D33907">x</tspan>
      <tspan x="-6.279" y="1.598" font-family="GillSans" font-size="14" fill="#0C60B2">: 25 } </tspan>
    </text>
    <text transform="matrix(1, 0, 0, 1, 49.803, 229.472)">
      <tspan x="-35.745" y="1.598" font-family="GillSans" font-size="14" fill="#0C60B2">{ </tspan>
      <tspan x="-27.193" y="1.598" font-family="GillSans" font-size="14" fill="#D33907">x</tspan>
      <tspan x="-20.193" y="1.598" font-family="GillSans" font-size="14" fill="#0C60B2">: minKey }</tspan>
    </text>
    <text transform="matrix(1, 0, 0, 1, 515.235, 229.472)">
      <tspan x="-25.331" y="1.598" font-family="GillSans" font-size="14" fill="#0C60B2">{ </tspan>
      <tspan x="-16.779" y="1.598" font-family="GillSans" font-size="14" fill="#D33907">x</tspan>
      <tspan x="-9.779" y="1.598" font-family="GillSans" font-size="14" fill="#0C60B2">: 175 } </tspan>
    </text>
    <text transform="matrix(1, 0, 0, 1, 572.829, 229.472)">
      <tspan x="-25.331" y="1.598" font-family="GillSans" font-size="14" fill="#0C60B2">{ </tspan>
      <tspan x="-16.779" y="1.598" font-family="GillSans" font-size="14" fill="#D33907">x</tspan>
      <tspan x="-9.779" y="1.598" font-family="GillSans" font-size="14" fill="#0C60B2">: 176 } </tspan>
    </text>
    <text transform="matrix(1, 0, 0, 1, 710.197, 229.472)">
      <tspan x="-37.198" y="1.597" font-family="GillSans" font-size="14" fill="#0C60B2">{ </tspan>
      <tspan x="-28.646" y="1.597" font-family="GillSans" font-size="14" fill="#D33907">x</tspan>
      <tspan x="-21.646" y="1.597" font-family="GillSans" font-size="14" fill="#0C60B2">: maxKey } </tspan>
    </text>
    <path d="M49.803,81.874 L49.803,221.874" fill-opacity="0" stroke="#AFD1E8" stroke-width="1.5" stroke-dasharray="3,1.5"/>
    <g>
      <path d="M63.64,204.833 L168.04,204.833" fill-opacity="0" stroke="#0C60B2" stroke-width="2"/>
      <path d="M63.64,201.233 L54.04,204.833 L63.64,208.433 z" fill="#0C60B2" fill-opacity="1" stroke="#0C60B2" stroke-width="2" stroke-opacity="1"/>
      <path d="M168.04,208.433 L177.64,204.833 L168.04,201.233 z" fill="#0C60B2" fill-opacity="1" stroke="#0C60B2" stroke-width="2" stroke-opacity="1"/>
    </g>
    <g>
      <path d="M196.161,204.833 L320.561,204.833" fill-opacity="0" stroke="#0C60B2" stroke-width="2"/>
      <path d="M196.161,201.233 L186.561,204.833 L196.161,208.433 z" fill="#0C60B2" fill-opacity="1" stroke="#0C60B2" stroke-width="2" stroke-opacity="1"/>
      <path d="M320.561,208.433 L330.161,204.833 L320.561,201.233 z" fill="#0C60B2" fill-opacity="1" stroke="#0C60B2" stroke-width="2" stroke-opacity="1"/>
    </g>
    <g>
      <path d="M346.749,204.833 L530.149,204.833" fill-opacity="0" stroke="#0C60B2" stroke-width="2"/>
      <path d="M346.749,201.233 L337.149,204.833 L346.749,208.433 z" fill="#0C60B2" fill-opacity="1" stroke="#0C60B2" stroke-width="2" stroke-opacity="1"/>
      <path d="M530.149,208.433 L539.749,204.833 L530.149,201.233 z" fill="#0C60B2" fill-opacity="1" stroke="#0C60B2" stroke-width="2" stroke-opacity="1"/>
    </g>
    <g>
      <path d="M556.916,204.833 L697.316,204.833" fill-opacity="0" stroke="#0C60B2" stroke-width="2"/>
      <path d="M556.916,201.233 L547.316,204.833 L556.916,208.433 z" fill="#0C60B2" fill-opacity="1" stroke="#0C60B2" stroke-width="2" stroke-opacity="1"/>
      <path d="M697.316,208.433 L706.916,204.833 L697.316,201.233 z" fill="#0C60B2" fill-opacity="1" stroke="#0C60B2" stroke-width="2" stroke-opacity="1"/>
    </g>
    <path d="M710.197,81.874 L710.197,221.874" fill-opacity="0" stroke="#AFD1E8" stroke-width="1.5" stroke-dasharray="3,1.5"/>
  </g>
  <defs/>
</svg>
