<svg xmlns="http://www.w3.org/2000/svg" width="700" height="250" fill="none"><path fill="#fff" d="M0 0h700v250H0z"/><path fill="#0176C0" d="M68.1 159.7v2.3q-2.201 1.2-5.2 1.2-2.4 0-4-1-1.701-1-2.7-2.6a7.17 7.17 0 0 1-1-3.7q0-3.1 2.2-5.2 2.3-2.2 5.5-2.2 2.3 0 5 1.2v2.2q-2.5-1.4-4.9-1.4t-4 1.5q-1.7 1.6-1.7 4 0 2.3 1.6 3.8t4.1 1.5q2.6 0 5.1-1.6m2.3-11h1.8v6.1q1.2-1.4 3-1.4.9 0 1.6.5.8.5 1.1 1.3.4.8.4 2.5v5.3h-1.9v-5.8q0-1-.5-1.7-.502-.6-1.3-.6-.6 0-1.2.3l-1.2 1v6.8h-1.8zM86.9 163v-1.2a3.4 3.4 0 0 1-1.4 1 2.97 2.97 0 0 1-1.5.4q-.9 0-1.6-.4-.801-.5-1.2-1.2-.3-.8-.3-2.6v-5.4h1.8v5.4q0 1.5.4 2 .5.7 1.5.7 1.4 0 2.3-1.3v-6.8h1.9v9.4zm6.4-9.4v1.2q1.2-1.4 2.8-1.4.9 0 1.6.5a2.62 2.62 0 0 1 1.2 1.2q.4.8.4 2.5v5.4h-1.9v-5.3q0-1.5-.4-2-.501-.7-1.5-.7-1.3 0-2.2 1.3v6.7h-2v-9.4zm14.699 0h2.3l-4 4.6 4.8 4.8h-2.5l-4.8-4.8zm-6.1-4.9h1.9V163h-2v-14.3zm18.8 0h2V163h-2z"/><path stroke="#BCDAED" stroke-dasharray="3 1.5" stroke-width="1.5" d="M151.5 185v50m151.3-50v50m210-50v50"/><path fill="#0176C0" d="m305.2 193.3 1-.7 1.8-1.2 1.8-1 1.9-.8 2-.8 2-.6 2-.5 2-.4 2.2-.3 2.2-.2h6.7l2.2.1 3.5.3 4.6.6 4.7.6 4.7.8 4.7.7 4.7.5 3.5.4 2.3.1 2.3.1h4.5l2.3-.2 1-.1h.1l.7-.1 1.3-.3 1.4-.2 1.3-.4 1.9-.6 2.4-1 2.4-1.1 2.2-1.2 2-1.4 2-1.3 1.8-1.4 1.6-1.3 1.5-1.2 1.3-1.2 1.1-1 .8-.5.4-.4.3-.2.3-.2.2-.1h.1-.4.2l.1.1.4.2.5.3.6.5.7.5 1.2 1 1.5 1.3 1.2 1 .7.7.7.6.7.5.5.5.5.3.2.2.7.3 1.3.6 1.4.6 1.4.5 1.5.5 1.4.4 2.3.5 3 .5 3.3.3 3.2.2 3.2.1h5l6.4-.2 4.8-.2 3-.1h7.9l1.2.1H478l3.6.1 3.6.1 3.6.3 3.6.3 2.5.4 1.6.3 1.6.3 1.5.4 1.4.4 1.4.4 1.3.5 1.1.6 1 .6 1 .7.9.7.7.8.3.4c.3.4 1.2.2 2-.5.8-.8 1.2-1.8.9-2.2l-.4-.5-.7-.9-1-.8-1-.7-1.1-.6-1.3-.6-1.3-.6-1.4-.4-1.5-.5-1.6-.3-1.6-.4-1.7-.3-2.6-.3-3.5-.4-3.7-.2-3.7-.2h-18.4l-1.1-.1h-2l-3-.1h-3l-3 .1-4.8.2-6.5.2h-8l-3.1-.2-3.1-.3-3-.5-2.2-.5-1.5-.4-1.3-.4-1.4-.5-1.3-.6-1.4-.6-.6-.3-.1-.1-.4-.3-.6-.4-.6-.6-.7-.6-.7-.6-1.2-1-1.6-1.5-1.1-1-.8-.5-.7-.5-.6-.3-.7-.3-.7-.1h-.2l-.3.1-.4.1-.5.3-.6.3-.5.4-.6.4-.5.4-.8.7-1.2 1-1.2 1.1-1.4 1.1-1.5 1.2-1.5 1.2-1.7 1.2-1.8 1.1-1.9 1.1-2 1-2.2.9-1.7.5-1.2.4-1.2.2-1.2.2-.7.1-1 .1-2.2.2h-6.6l-2.3-.2-3.4-.3-4.6-.6-4.7-.7-4.7-.7-4.7-.7-4.7-.5-3.6-.4h-2.3l-2.3-.2H328l-2.3.2-2.3.2-2.3.3-2.3.4-2.2.6-2.2.7-2.3.9-2.2 1-2.2 1.2-2.1 1.4-1 .7c-.8.6-1.4 1.6-1.3 2.2s1 .6 1.8 0"/><path fill="#0176C0" d="m155.601 192.9.7-.7 1.2-1.1 1.2-1 1.3-.7 1.3-.7 1.3-.6 1.4-.5 1.4-.3 1.5-.3 1.5-.2h1.6l1.5-.1 2.5.1 3.2.4 3.4.6 3.3.6 3.4.7 3.4.7 3.3.6 3.4.4 2.5.2h3.3l1.7-.2.8-.1.5-.1 1-.3 1.6-.5 1.9-.8 1.9-1 1.8-1.2 1.7-1.3 1.6-1.4 1.4-1.4 1.3-1.4 1.2-1.3 1-1.3 1-1.1.8-1 .7-.8.4-.4h.1v-.1l-.2.2-.5.1.2.3.4.3.4.4.5.5.8 1 1.2 1.3 1 1.4.8 1 .5.5.4.4.3.4.2.1.5.4 1 .6 1 .6 1 .5 1.6.7 2.2.7 2.2.5 2.3.3 2.3.2 2.4.1h3.6l4.7-.2 3.4-.2 2.2-.1h6.4l1.4.1h11.9l2.6.2 2.6.3 2.5.3 1.8.4 1.2.2 1.1.4 1 .3 1 .4 1 .5 1 .5.8.5.7.7.7.6.6.7.5.8.2.4c.3.5 1.2.4 2-.4.8-.7 1.3-1.7 1-2.2l-.2-.4-.6-1-.7-.7-.7-.7-.8-.7-1-.6-1-.5-1-.5-1-.5-1.2-.3-1.1-.4-1.3-.3-1.9-.3-2.5-.4-2.7-.2-2.7-.2h-13.2l-.8-.1h-1.4l-2.2-.1h-2.2l-2.2.1-3.4.2-4.7.2h-5.7l-2.2-.2-2.2-.3-2.2-.5-2-.7-1.5-.6-1-.5-1-.6-.9-.6-.5-.3-.3-.4-.4-.4-.5-.5-.7-1-1.1-1.3-1.2-1.4-.8-1-.6-.5-.5-.5-.4-.4-.6-.3-.7-.1h-.1a2 2 0 0 0-.5.2l-.4.2-.6.4-.5.4-.4.4-.6.7-.8.9-.9 1-.9 1-1 1.2-1 1.1-1 1.2-1.2 1.1-1.2 1.1-1.3 1-1.3 1-1.4.7-1.6.7-1.2.4-1 .2-.4.1-.7.1-1.5.2h-3l-2.4-.1-3.3-.4-3.3-.6-3.4-.7-3.3-.7-3.5-.7-3.4-.6-3.4-.3-2.5-.2h-1.7l-1.7.2-1.7.2-1.7.3-1.7.4-1.7.6-1.7.8-1.7 1-1.7 1-1.7 1.4-1.6 1.4-.7.7c-.7.8-1 1.7-.7 2.1.4.4 1.4 0 2.2-.7M209.8 159.7v2.3q-2.3 1.2-5.2 1.2-2.4 0-4-1-1.8-1-2.7-2.6a7.2 7.2 0 0 1-1-3.7q0-3.1 2.2-5.2 2.2-2.2 5.5-2.2 2.3 0 5 1.2v2.2q-2.5-1.4-4.9-1.4t-4 1.5q-1.7 1.6-1.7 4 0 2.3 1.6 3.8t4.1 1.5q2.6 0 5-1.6zm2.2-11h1.9v6.1q1.2-1.4 2.9-1.4 1 0 1.7.5t1.1 1.3.4 2.5v5.3h-2v-5.8q0-1-.5-1.7-.5-.6-1.3-.6-.699 0-1.2.3l-1.2 1v6.8H212zm16.6 14.3v-1.2q-.6.7-1.4 1-.699.4-1.5.4-.9 0-1.6-.4-.8-.5-1.2-1.2-.4-.8-.4-2.6v-5.4h1.9v5.4q0 1.5.4 2 .501.7 1.5.7 1.4 0 2.3-1.3v-6.8h1.8v9.4zm6.4-9.4v1.2q1.2-1.4 2.8-1.4.9 0 1.6.5.801.4 1.2 1.2.4.8.4 2.5v5.4h-2v-5.3q0-1.5-.4-2-.5-.7-1.5-.7-1.3 0-2.3 1.3v6.7H233v-9.4zm14.7 0h2.2l-4 4.6 4.9 4.8h-2.6l-4.7-4.8zm-6.1-4.9h1.8V163h-1.8zm18.9 12.3h5.4v2h-9v-.1l.8-1 3.3-4.3q1.2-1.7 1.5-2.6.4-.9.4-1.8 0-1.2-.7-1.9-.699-.7-1.8-.7-.9 0-1.7.5-.9.5-1.5 1.4v-2.6q1.6-1.4 3.4-1.4 1.9 0 3.1 1.3 1.2 1.2 1.2 3.2 0 .8-.3 1.8t-1 2.3q-.8 1.2-2.7 3.4l-.4.6zM515.899 199l.8-.7 1.3-1.1 1.4-1 1.4-.8 1.5-.7 1.4-.6 1.6-.4 1.6-.4 1.6-.3 1.7-.2h1.7l1.8-.1h1.7l1.8.2 2.7.3 3.7.6 3.7.6 3.7.7 3.7.7 3.7.6 3.6.4 2.8.2h3.6l1.8-.2.9-.1.6-.1 1-.3 1.7-.4 2-.9 2.1-1 2-1.1 1.8-1.3 1.7-1.4 1.5-1.4 1.5-1.4 1.3-1.3 1.1-1.3 1-1.1 1-1 .7-.8.4-.3.2-.2-.1.1-.4.1v.1l.2.2.5.3.5.4.5.6.9.9 1.2 1.4 1 1 .5.7.6.6.5.5.4.4.4.4.2.1.5.4 1 .6 1.2.6 1 .5 1.8.7 2.4.7 2.4.5 2.6.3 2.5.2 2.6.1h3.9l5.1-.2 3.8-.2 2.4-.1h7.1l1 .1h13.5l2.9.2 2.8.3 2.8.3 2 .4 1.2.2 1.3.4 1.1.3 1.2.4 1 .5 1 .5 1 .6.8.6.7.6.7.8.5.7.2.4c.3.5 1.2.3 2-.4.9-.7 1.3-1.7 1-2.2l-.3-.5-.6-.8-.7-.8-.8-.8-1-.6-1-.6-1-.6-1.1-.4-1.2-.5-1.2-.3-1.3-.4-1.3-.3-2.1-.3-2.8-.4-3-.2-2.9-.2h-14.3l-1-.1h-1.5l-2.4-.1h-2.4l-2.4.1-3.8.2-5 .2h-6.5l-2.5-.2-2.4-.4-2.4-.4-2.2-.7-1.7-.6-1-.5-1.1-.6-1-.6-.5-.3h-.1l-.4-.4-.4-.4-.5-.5-.5-.6-.6-.7-.9-1-1.3-1.4-.9-1-.6-.6-.5-.4-.6-.4-.5-.3-.8-.1c-.2 0-.4 0-.5.2l-.4.2-.6.3-.5.4-.5.4-.6.6-.9 1-.9 1-1 1-1 1.2-1.2 1.1-1.2 1.2-1.2 1.1-1.4 1.1-1.4 1-1.5 1-1.6.8-1.8.7-1.4.4-1 .2-.5.1-.7.1-1.7.2h-3.4l-2.7-.1-3.6-.4-3.6-.6-3.7-.7-3.7-.7-3.7-.7-3.8-.6-2.7-.3-1.9-.1h-5.5l-1.9.3-1.8.3-1.8.4-1.9.6-1.8.8-1.9.9-1.8 1-1.8 1.3-1.7 1.5-.8.7c-.8.7-1.2 1.7-.9 2.1.4.5 1.3.3 2.1-.5M577.798 159.7v2.3q-2.2 1.2-5.2 1.2-2.4 0-4-1-1.7-1-2.7-2.6a7.2 7.2 0 0 1-1-3.7q0-3.1 2.2-5.2 2.3-2.2 5.5-2.2 2.3 0 5 1.2v2.2q-2.5-1.4-4.9-1.4t-4 1.5q-1.7 1.6-1.7 4 0 2.3 1.6 3.8t4.1 1.5q2.601 0 5.1-1.6m2.2-11h2v6.1q1-1.4 2.8-1.4 1 0 1.7.5.8.5 1.1 1.3.4.8.4 2.5v5.3h-1.9v-5.8q0-1-.5-1.7-.5-.6-1.3-.6-.6 0-1.2.3l-1.2 1v6.8h-1.8v-14.3zm16.6 14.3v-1.2q-.6.7-1.4 1-.699.4-1.5.4-.9 0-1.6-.4a3.2 3.2 0 0 1-1.2-1.3q-.3-.7-.3-2.5v-5.4h1.8v5.4q0 1.5.4 2 .501.6 1.5.6 1.4 0 2.3-1.3v-6.7h1.9v9.4zm6.4-9.4v1.2q1.2-1.4 2.8-1.4.9 0 1.6.5.801.4 1.2 1.2.4.8.4 2.5v5.4h-1.9v-5.3q0-1.5-.4-2.1-.5-.6-1.5-.6-1.3 0-2.2 1.3v6.7h-2v-9.4zm14.7 0h2.3l-4 4.6 4.8 4.8h-2.5l-4.8-4.8zm-6.1-4.9h1.9V163h-1.9zm22-.2h.9v8h1.6v1.8h-1.6v4.7h-2v-4.7h-6v-.9zm-1.1 8v-4l-3.3 4zM21.6 192.7l.6-.7 1.1-1.1 1-.9 1.1-.7 1-.7 1.2-.5 1.2-.5 1.2-.3 1.3-.3 1.3-.2h4.9l2.9.4 2.9.6 3 .6 3 .7 3 .7 3 .6 2.9.5 2.2.1h3l1.5-.2.7-.1.5-.1 1-.3 1.3-.5 1.8-.8 1.7-1.1 1.7-1.2 1.5-1.4 1.4-1.4 1.3-1.4 1.1-1.4 1.1-1.3 1-1.3.8-1.1.7-1 .6-.8.3-.3.1-.1-.3.2-.5.2-.2.1.2.1.3.4.4.4.4.5.8 1 1 1.3 1 1.4.6 1 .4.5.3.4.4.3.1.2.4.3.9.7.9.6 1 .5 1.3.7 2 .7 2 .5 2 .3 1.999.2 2.2.1h3.1l4.2-.2 3-.2 2-.1h4.9l.8.1h9.4l2.3.1 2.3.1 2.3.3 2.2.3 2 .5 1.6.5 1 .3.8.4.9.5.8.5.7.5.7.6.5.7.6.7.4.8.2.4c.2.5 1.1.4 2-.3.8-.7 1.3-1.7 1-2.2l-.2-.5-.5-.9-.6-.8-.7-.7-.7-.7-.8-.6-.9-.5-.9-.5-1-.4-1-.4-1.5-.5-2.3-.5-2.3-.4-2.3-.2-2.4-.2h-12.4l-.3-.1h-1l-1.9-.1h-2l-2 .1-3 .2-4 .2h-5l-2-.2-2-.3-1.8-.5-1.9-.7-1.3-.6-.8-.5-.9-.5-.8-.6-.4-.4-.3-.3-.4-.5-.4-.5-.6-.9-1-1.4-1-1.4-.8-1-.5-.5-.4-.5-.4-.4-.5-.3H84c-.2 0-.4 0-.6.2l-.4.2-.6.5-.4.4-.4.4-.6.7-.7.9-.7 1-.8 1-.8 1.2-1 1.1-1 1.2-1 1.1-1 1-1 1-1.2 1-1.2.7-1.3.7-1 .4-.8.2H67l-.6.1-1.3.2h-4.9l-2.8-.5-3-.6-3-.7-3-.7-3-.7-3-.5-3-.4-2.3-.2h-1.5l-1.5.2-1.5.2-1.6.3-1.5.5-1.6.6-1.5.8-1.6 1-1.6 1.1-1.5 1.3-1.4 1.5-.6.7c-.7.8-.9 1.7-.4 2s1.5-.2 2.2-1"/><path fill="#fff" d="M280.4 15h32.2v39h-32.2z"/><path stroke="#0176C0" stroke-width=".9" d="M280.4 15h32.2v39h-32.2z"/><path fill="#0176C0" d="M281 33.4v-1q.4 0 .7-.2a.97.97 0 0 0 .4-.6l.1-1.5v-1.6l.4-.7a.97.97 0 0 1 .6-.4l.8-.1h.4v.9h-.2q-.6 0-.8.2t-.2 1v.9l-.1 1.2q-.1.5-.4.8l-.7.6q.6.3 1 .9.2.5.2 1.7v.9q0 .7.2 1 .2.2.8.2h.2v1h-.4q-.5 0-.9-.2a.96.96 0 0 1-.5-.4l-.3-.7-.1-1.7-.1-1.4a.97.97 0 0 0-.4-.6q-.3-.2-.7-.2"/><path fill="#DE4F01" d="M289.1 30.6h1.4l-2.2 2.7 2.3 2.7h-1.3l-1.7-2-1.6 2h-1.4l2.3-2.7-2.3-2.7h1.4l1.6 1.9z"/><path fill="#0176C0" d="m291.999 34.7.4.2q.2.2.2.5t-.2.5-.5.2a.68.68 0 0 1-.7-.7.68.68 0 0 1 .7-.7zm0-4.2q.3 0 .5.2t.2.5-.2.5-.5.2a.68.68 0 0 1-.7-.7.68.68 0 0 1 .7-.7m5.9 4.4h3V36h-5l.4-.7q1.2-1.4 1.8-2.4l1-1.5.1-1q0-.7-.3-1.1-.4-.4-1-.4t-1 .3q-.5.2-1 .8v-1.5q1-.8 2-.8 1.101 0 1.8.7t.7 1.8l-.2 1q-.099.7-.6 1.4l-1.5 2zm4.7-7.1h3.7v1h-2.6V31h.2q1.2 0 2 .7.8.8.8 1.9t-.8 1.9q-.8.7-2 .7-1 0-1.9-.5v-1.2q.9.6 1.7.6t1.3-.5q.5-.4.5-1 0-.7-.6-1.1-.5-.4-1.3-.4h-1v-4.3m5.1-.5h1.3l.4.5q.3.3.4.7v1.6q0 1 .2 1.5 0 .4.4.6.2.2.7.2v1q-.4 0-.7.2a.97.97 0 0 0-.4.6l-.2 1.4v1.7q-.1.4-.4.7-.2.3-.5.4l-.9.1h-.3v-1h.2l.8-.1q.2-.3.2-1v-.9q0-1.2.2-1.7.3-.6 1-1-.5-.1-.7-.4-.3-.3-.4-.8l-.1-1.3v-1q0-.7-.2-.9t-.8-.2h-.2v-1z"/><path fill="#fff" d="M334.699 15h32.5v39h-32.5z"/><path stroke="#0176C0" stroke-width=".9" d="M334.699 15h32.5v39h-32.5z"/><path fill="#0176C0" d="M335.4 33.4v-1q.4 0 .7-.2a.97.97 0 0 0 .4-.6l.1-1.5.1-1.6q0-.4.3-.7l.6-.4.9-.1h.3v.9h-.2q-.6 0-.8.2t-.2 1v.9l-.1 1.2q-.1.5-.4.8l-.7.6q.7.3 1 .9.2.5.2 1.7v.9q0 .7.2 1 .2.2.8.2h.2v1h-.3q-.6 0-1-.2a.97.97 0 0 1-.5-.4l-.3-.7v-1.7q0-1-.2-1.4a.97.97 0 0 0-.4-.6q-.3-.2-.7-.2"/><path fill="#DE4F01" d="M343.5 30.6h1.4l-2.2 2.7L345 36h-1.4l-1.7-2-1.6 2H339l2.2-2.7-2.2-2.7h1.3l1.6 1.9 1.5-1.9z"/><path fill="#0176C0" d="M346.3 34.7a.68.68 0 0 1 .7.7.68.68 0 0 1-.7.7.68.68 0 0 1-.5-.2.68.68 0 0 1-.2-.5q0-.3.2-.5t.5-.2m.1-4.2a.68.68 0 0 1 .7.7.68.68 0 0 1-.7.7.68.68 0 0 1-.5-.2.68.68 0 0 1-.2-.5q0-.3.2-.5t.5-.2m5.9 4.4h3.1V36h-5.2l.5-.7 1.9-2.4.9-1.5.2-1q0-.7-.4-1.1t-1-.4-1 .3q-.501.2-.9.8v-1.5q1-.8 2-.8t1.7.7.7 1.8l-.1 1a4.6 4.6 0 0 1-.7 1.4l-1.5 2zm7.2-7.1h.1l.7.8q-.9.6-1.5 1.3a6 6 0 0 0-1 1.7q.7-.3 1.3-.3 1 0 1.7.7.6.6.6 1.6t-.7 1.8q-.7.7-1.8.7t-1.8-.8-.7-2.1q0-1 .3-2a7.8 7.8 0 0 1 1-1.8q.8-.9 1.8-1.6m-2 5v.6q0 .7.4 1.2.4.4 1 .4t1-.4q.4-.3.4-1 0-.5-.4-.9t-1-.4l-.7.1-.6.4zm4.6-5.5h1.3l.5.5.3.7v1.6q0 1 .2 1.5 0 .4.4.6.3.2.7.2v1q-.4 0-.7.2a.97.97 0 0 0-.4.6l-.1 1.4-.1 1.7q0 .4-.3.7l-.6.4-.9.1h-.3v-1h.2l.8-.1q.2-.3.2-1v-.9q0-1.2.3-1.7.2-.6 1-1-.6-.1-.8-.4-.3-.3-.4-.8l-.1-1.3v-1q0-.7-.2-.9t-.8-.2h-.2v-1z"/><path fill="#DE4F01" d="M263 72.8h172.2v26.7H263z"/><path fill="#fff" d="M292.799 77.3h2.3v16.3h-2.3v-7h-9.2v7h-2.4V77.3h2.4v7h9.2zm12.4 9.8v4.6q0 .6.4.6t1.2-.6V93q-.699.5-1.2.6-.399.2-.9.2-1.4 0-1.6-1-1.4 1-3 1-.999 0-1.8-.7-.7-.8-.7-2 0-1 .7-1.7.7-.8 2-1.3l2.8-1v-.5q0-2-2-2-1.7 0-3.3 1.8v-2.3q1.2-1.5 3.5-1.5 1.8 0 2.8 1 .4.2.7.7t.3 1zm-2 4.4v-3.2l-1.5.5q-1.1.5-1.6 1-.4.4-.4 1 0 .7.4 1.1t1.1.4q1 0 2-.8m5 1.4v-2.3l1.8 1q1 .4 1.6.4.7 0 1.2-.4.4-.3.4-.7 0-.5-.3-.8l-1.3-1q-2-1-2.7-1.9-.7-.8-.7-1.7 0-1.3 1-2 1-.9 2.5-.9 1.6 0 3.2 1v2q-1.899-1.1-3-1.1-.7 0-1 .3-.4.2-.4.7 0 .3.3.7l1.2.8.8.4q2.7 1.5 2.7 3.4 0 1.3-1 2.2-1.1.8-2.7.8-1 0-1.7-.2l-2-.7zm9.6-15.6h2.2v7q1.3-1.7 3.3-1.7 1 0 2 .6.801.5 1.2 1.5.4 1 .4 2.8v6.1h-2.1V87q0-1.2-.6-2-.6-.7-1.5-.7-.7 0-1.4.4-.6.399-1.3 1.2v7.7h-2.2zm19.1 0h8.7v2h-6.4V84h6.4v2h-6.4v7.6h-2.3zm17.8 16.3v-1.3q-.7.7-1.6 1.1-.8.4-1.7.4-1 0-1.9-.5-.8-.5-1.3-1.4-.4-.8-.4-2.9v-6.2h2.1V89q0 1.7.5 2.4.5.6 1.7.6 1.5 0 2.6-1.4v-7.8h2.1v10.8h-2.1m7.3-10.8v1.4q1.4-1.6 3.2-1.6 1 0 1.9.6.9.5 1.3 1.4.5.9.5 2.9v6.1h-2.2v-6.1q0-1.7-.5-2.4t-1.7-.7q-1.5 0-2.5 1.5v7.7h-2.2V82.8zm18 8.3v2.1q-1.7.6-3.2.6-2.5 0-4-1.5-1.6-1.5-1.6-4t1.5-4.1 3.9-1.6q.801 0 1.5.2l1.6.6v2.3q-1.599-1-3-1-1.4 0-2.4 1-.9 1-.9 2.5 0 1.7 1 2.7t2.7 1q1.2 0 2.8-.8zm.8-6.5 4-4v2.2h3.4v2h-3.4V90q0 1.8 1.6 1.8 1.101 0 2.4-.8v2q-1.2.7-2.7.7t-2.4-.8l-.5-.6-.4-.9-.1-2v-4.7h-1.9v-.2zm10.7-6.3q.501 0 .9.4.3.3.3.9 0 .5-.3.9-.4.3-1 .3-.4 0-.8-.3a1.36 1.36 0 0 1-.4-1q0-.4.4-.8t.9-.4m-1.1 4.5h2.1v10.8h-2.1zm10.4 0q2.4 0 4 1.6 1.7 1.6 1.7 4 0 2.3-1.7 3.9-1.6 1.5-4.1 1.5t-4-1.5q-1.7-1.6-1.7-4 0-2.301 1.6-3.9 1.701-1.6 4.2-1.6m-.2 2q-1.5 0-2.5 1t-1 2.5q0 1.6 1 2.6t2.6 1 2.6-1 1-2.6q0-1.5-1-2.5-.999-1-2.7-1m10.4-2v1.4q1.4-1.6 3.2-1.6 1 0 1.9.6.8.5 1.3 1.4.4.9.4 2.9v6.1h-2v-6.1q0-1.7-.6-2.4-.5-.7-1.7-.7-1.5 0-2.5 1.5v7.7h-2.2V82.8z"/><path stroke="#00A49E" stroke-width="2" d="M296.1 43.6v16.2"/><path fill="#00A49E" stroke="#00A49E" stroke-width="2" d="m292.5 59.8 3.6 9.6 3.6-9.6z"/><path stroke="#3F2818" stroke-width="2" d="M351 43.6v16.2"/><path fill="#3F2818" stroke="#3F2818" stroke-width="2" d="m347.4 59.8 3.6 9.6 3.6-9.6z"/><path stroke="#00A49E" stroke-width="2" d="M296.1 100.6v19.2"/><path fill="#0176C0" d="M386.5 159.7v2.3q-2.3 1.2-5.2 1.2-2.4 0-4.1-1t-2.6-2.6a7.17 7.17 0 0 1-1-3.7q0-3.1 2.2-5.2 2.2-2.2 5.5-2.2 2.3 0 5 1.2v2.2q-2.5-1.4-4.9-1.4-2.5 0-4 1.5-1.7 1.6-1.7 4 0 2.3 1.6 3.8t4 1.5q2.7 0 5.2-1.6m2.2-11h1.9v6.1q1.2-1.4 2.9-1.4 1 0 1.7.5t1 1.3q.5.8.5 2.5v5.3h-2v-5.8q0-1-.4-1.7-.5-.6-1.4-.6-.6 0-1.1.3-.6.3-1.2 1v6.8h-1.9zm16.6 14.3v-1.2q-.6.7-1.4 1-.801.4-1.5.4-.9 0-1.7-.4a3.74 3.74 0 0 1-1.1-1.2q-.4-.8-.4-2.6v-5.4h1.9v5.4q0 1.5.4 2 .399.7 1.5.7 1.3 0 2.3-1.3v-6.8h1.8v9.4zm6.3-9.4v1.2q1.3-1.4 2.9-1.4.9 0 1.6.5.8.4 1.2 1.2t.4 2.5v5.4h-2v-5.3q0-1.5-.3-2-.501-.7-1.5-.7-1.3 0-2.3 1.3v6.7h-1.9v-9.4h2zm14.8 0h2.2l-4 4.6 4.8 4.8H427l-4.7-4.8 4.2-4.6zm-6.1-4.9h1.8V163h-1.8zm18.3 6h.2q1.3 0 2-.5.7-.6.7-1.7 0-1-.7-1.5-.7-.6-1.8-.6-1 0-2.4.7v-2q1.2-.6 2.7-.6 2 0 3.1 1t1.1 2.9q0 1-.4 1.8t-1.4 1.3q.8.3 1.2.8t.6 1.1q.3.7.3 1.5 0 1.9-1.3 3-1.2 1.3-3.2 1.3-1.6 0-3.1-.8v-2.2q1.6 1 3.1 1 1 0 1.7-.6.6-.6.6-1.7 0-.8-.5-1.4a2 2 0 0 0-.7-.6l-1.6-.3h-.2z"/><path stroke="#0176C0" stroke-width="2" d="M33.7 212.899h104.399"/><path fill="#0176C0" stroke="#0176C0" stroke-width="2" d="m33.7 209.3-9.6 3.6 9.6 3.6zm104.4 7.2 9.6-3.6-9.6-3.6z"/><path stroke="#0176C0" stroke-width="2" d="M165.299 212.899h124.4"/><path fill="#0176C0" stroke="#0176C0" stroke-width="2" d="m165.299 209.3-9.6 3.6 9.6 3.6zm124.4 7.2 9.6-3.6-9.6-3.6z"/><path stroke="#0176C0" stroke-width="2" d="M315.799 212.899h183.4"/><path fill="#0176C0" stroke="#0176C0" stroke-width="2" d="m315.799 209.3-9.6 3.6 9.6 3.6zm183.4 7.2 9.6-3.6-9.6-3.6z"/><path stroke="#0176C0" stroke-width="2" d="M526 212.899h140.4"/><path fill="#0176C0" stroke="#0176C0" stroke-width="2" d="m526 209.3-9.6 3.6 9.6 3.6zm140.4 7.2 9.6-3.6-9.6-3.6z"/><path stroke="#BCDAED" stroke-dasharray="3 1.5" stroke-width="1.5" d="M679.299 185v50m-658.6-50v50"/><path stroke="#00A49E" stroke-width="2" d="M297.199 118.8h-213M85.2 118.8V132"/><path fill="#00A49E" stroke="#00A49E" stroke-width="2" d="m81.6 132 3.6 9.6 3.6-9.6z"/><path stroke="#3F2818" stroke-width="2" d="M351 100.6v18.2m-1 0h245.3M594.299 118.8v13.4"/><path fill="#3F2818" stroke="#3F2818" stroke-width="2" d="m590.699 132.2 3.6 9.6 3.6-9.6z"/><path fill="#fff" d="M387.301 15h32.5v39h-32.5z"/><path stroke="#0176C0" stroke-width=".9" d="M387.301 15h32.5v39h-32.5z"/><path fill="#0176C0" d="M388 33.4v-1q.4 0 .7-.2a.97.97 0 0 0 .4-.6l.1-1.5v-1.6l.4-.7.6-.4.9-.1h.3v.9h-.2q-.6 0-.8.2t-.2 1v.9l-.1 1.2q-.1.5-.4.8l-.7.6q.7.3 1 .9.2.5.2 1.7v.9q0 .7.2 1 .2.2.8.2h.2v1h-.3q-.6 0-1-.2a.96.96 0 0 1-.5-.4l-.3-.7-.1-1.7-.1-1.4a.97.97 0 0 0-.4-.6q-.3-.2-.7-.2"/><path fill="#DE4F01" d="M396.099 30.6h1.4l-2.2 2.7 2.4 2.7h-1.4l-1.7-2-1.6 2h-1.3l2.2-2.7-2.2-2.7h1.3l1.6 1.9z"/><path fill="#0176C0" d="m398.999 34.7.4.2q.2.2.2.5t-.2.5-.5.2a.68.68 0 0 1-.7-.7.68.68 0 0 1 .7-.7zm0-4.2q.3 0 .5.2t.2.5-.2.5-.5.2a.68.68 0 0 1-.7-.7.68.68 0 0 1 .7-.7m5.9 4.4h3.1V36h-5.2l.5-.7q1.2-1.4 1.8-2.4l1-1.5.1-1q0-.7-.3-1.1-.4-.4-1-.4t-1 .3q-.5.2-1 .8v-1.5q1-.8 2-.8 1.101 0 1.8.7t.7 1.8l-.2 1q-.099.7-.6 1.4l-1.5 2zm4.1-7.1h5.3l-3.7 8.3-1-.4 3-6.8h-3.6v-1.1m5.7-.5h1.3l.4.5q.3.3.4.7v1.6q0 1 .2 1.5 0 .4.4.6.2.2.7.2v1q-.4 0-.7.2a.97.97 0 0 0-.4.6l-.1 1.4-.1 1.7q0 .4-.4.7-.2.3-.5.4l-.9.1h-.3v-1h.2l.8-.1q.2-.3.2-1v-.9q0-1.2.2-1.7.3-.6 1-1-.5-.1-.7-.4-.3-.3-.4-.8l-.1-1.3v-1q0-.7-.2-.9t-.8-.2h-.2v-1z"/><path stroke="#EE9C02" stroke-width="2" d="M403.5 43.6v16.2"/><path fill="#EE9C02" stroke="#EE9C02" stroke-width="2" d="m400 59.8 3.5 9.6 3.6-9.6z"/><path stroke="#EE9C02" stroke-width="2" d="M403.5 100.6V132"/><path fill="#EE9C02" stroke="#EE9C02" stroke-width="2" d="m400 132 3.5 9.6 3.6-9.6z"/></svg>