<?xml version="1.0" encoding="UTF-8"?>
<!DOCTYPE svg PUBLIC "-//W3C//DTD SVG 1.1//EN" "http://www.w3.org/Graphics/SVG/1.1/DTD/svg11.dtd">
<svg version="1.1" xmlns="http://www.w3.org/2000/svg" xmlns:xlink="http://www.w3.org/1999/xlink" x="0px" y="0px" width="700" height="250" viewBox="0, 0, 700, 250">
  <g id="Layer 1">
    <text transform="matrix(1, 0, 0, 1, 90.563, 150.541)">
      <tspan x="-36.381" y="6.5" font-family="GillSans" font-size="21" fill="#0C60B2">Chunk 1</tspan>
    </text>
    <path d="M151.543,184.918 L151.543,234.918" fill-opacity="0" stroke="#AFD1E8" stroke-width="1.5" stroke-dasharray="3,1.5"/>
    <path d="M302.806,184.918 L302.806,234.918" fill-opacity="0" stroke="#AFD1E8" stroke-width="1.5" stroke-dasharray="3,1.5"/>
    <path d="M512.798,184.918 L512.798,234.918" fill-opacity="0" stroke="#AFD1E8" stroke-width="1.5" stroke-dasharray="3,1.5"/>
    <path d="M305.168,193.339 L307.114,191.975 L310.843,189.931 L314.693,188.468 L318.762,187.47 L325.224,186.756 L334.229,186.993 L343.495,188.098 L352.869,189.514 L362.192,190.674 L371.33,191.005 L375.839,190.673 L375.839,190.673 C375.878,190.67 375.918,190.666 375.958,190.659 L375.958,190.659 L378.577,190.214 L383.649,188.664 L388.322,186.437 L392.479,183.816 L396.062,181.103 L399.033,178.601 L401.351,176.62 L402.895,175.506 L403.052,175.506 L402.393,175.676 L402.752,175.671 L403.456,176.061 L405.422,177.513 L408.526,180.215 L410.644,182.085 L411.745,182.962 L412.186,183.245 L412.186,183.245 C412.205,183.258 412.225,183.269 412.246,183.279 L412.246,183.279 L414.894,184.531 L420.655,186.354 L426.842,187.381 L433.279,187.796 L443.078,187.703 L452.66,187.336 L458.673,187.26 L461.501,187.343 L461.5,187.343 L463.798,187.411 L469.5,187.423 L476.202,187.414 L483.407,187.561 L490.622,188.041 L497.351,189.027 L501.762,190.198 L504.278,191.216 L506.402,192.452 L508.06,193.914 L508.675,194.708 L508.675,194.708 C509.019,195.144 509.948,194.884 510.751,194.128 C511.554,193.371 511.926,192.404 511.582,191.968 L510.84,191.04 L509.019,189.461 L506.75,188.155 L504.083,187.087 L499.508,185.883 L492.647,184.883 L485.345,184.399 L478.097,184.252 L471.401,184.261 L465.755,184.25 L463.456,184.181 L463.456,184.181 C463.456,184.181 463.456,184.181 463.456,184.181 L463.456,184.181 L460.544,184.098 L454.477,184.175 L444.956,184.541 L435.299,184.638 L429.027,184.241 L423.037,183.26 L417.429,181.497 L414.781,180.245 L414.841,180.278 L414.488,180.057 L413.427,179.214 L411.304,177.34 L408.132,174.583 L405.96,173.013 L404.619,172.509 L404.259,172.514 L404.259,172.514 C404.064,172.517 403.838,172.576 403.6,172.685 L403.6,172.685 L402.387,173.314 L400.392,174.785 L398.111,176.735 L395.436,178.998 L392.337,181.374 L388.784,183.657 L384.733,185.637 L380.076,187.088 L377.456,187.532 L377.575,187.517 L373.297,187.844 L364.315,187.525 L355.033,186.371 L345.609,184.948 L336.176,183.832 L326.87,183.608 L320.032,184.391 L315.507,185.535 L311.025,187.296 L306.719,189.702 L304.771,191.067 C303.905,191.675 303.291,192.676 303.401,193.303 C303.51,193.93 304.301,193.947 305.168,193.339 L305.168,193.339" fill="#0C60B2"/>
    <path d="M155.521,192.938 L156.922,191.573 L159.472,189.645 L162.021,188.326 L164.758,187.412 L169.256,186.738 L175.629,186.983 L182.249,188.083 L188.982,189.496 L195.704,190.658 L202.327,190.994 L205.653,190.66 L205.653,190.66 C205.71,190.654 205.77,190.644 205.832,190.629 L205.832,190.629 L207.716,190.185 L211.541,188.576 L215.15,186.214 L218.316,183.46 L220.978,180.667 L223.144,178.134 L224.815,176.151 L225.881,175.086 L225.721,175.303 L224.719,175.666 L224.977,175.66 L225.323,176.016 L226.713,177.449 L228.942,180.146 L230.466,182.016 L231.261,182.895 L231.586,183.187 L231.586,183.187 C231.605,183.203 231.624,183.218 231.645,183.231 L231.645,183.231 L233.55,184.483 L237.723,186.32 L242.22,187.362 L246.9,187.784 L253.999,187.693 L260.917,187.325 L265.225,187.249 L267.234,187.332 L267.233,187.332 L268.886,187.401 L273.008,187.413 L277.834,187.404 L283.006,187.551 L288.173,188.029 L292.978,189.01 L296.113,190.169 L297.896,191.175 L299.405,192.397 L300.584,193.845 L301.022,194.632 L301.022,194.632 C301.302,195.126 302.199,194.942 303.026,194.222 C303.853,193.502 304.297,192.518 304.017,192.024 L303.477,191.089 L302.152,189.496 L300.499,188.176 L298.551,187.095 L295.218,185.88 L290.243,184.875 L284.96,184.389 L279.729,184.241 L274.912,184.251 L270.865,184.24 L269.211,184.171 L269.211,184.171 C269.211,184.171 269.21,184.171 269.21,184.171 L269.21,184.171 L267.087,184.087 L262.701,184.166 L255.869,184.531 L248.964,184.629 L244.496,184.24 L240.229,183.273 L236.218,181.524 L234.312,180.272 L234.37,180.317 L234.124,180.103 L233.363,179.263 L231.834,177.388 L229.547,174.626 L227.959,173.037 L226.832,172.499 L226.573,172.504 L226.573,172.504 C226.282,172.51 225.929,172.638 225.571,172.867 L225.571,172.867 L224.425,173.713 L222.943,175.234 L221.304,177.181 L219.407,179.413 L217.259,181.71 L214.876,183.859 L212.205,185.705 L209.027,187.096 L207.141,187.541 L207.32,187.51 L204.321,187.834 L197.902,187.521 L191.232,186.368 L184.435,184.943 L177.596,183.822 L170.79,183.605 L165.714,184.427 L162.266,185.656 L158.818,187.562 L155.584,190.084 L154.183,191.449 C153.392,192.219 153.05,193.177 153.419,193.588 C153.789,193.999 154.73,193.708 155.521,192.938 L155.521,192.938" fill="#0C60B2"/>
    <text transform="matrix(1, 0, 0, 1, 232.244, 150.541)">
      <tspan x="-36.381" y="6.5" font-family="GillSans" font-size="21" fill="#0C60B2">Chunk 2</tspan>
    </text>
    <g>
      <path d="M515.844,193.061 L517.379,191.697 L520.211,189.738 L523.083,188.373 L526.157,187.429 L531.147,186.741 L538.173,186.983 L545.445,188.084 L552.829,189.499 L560.191,190.66 L567.431,190.994 L571.046,190.661 L571.046,190.661 C571.097,190.656 571.15,190.648 571.205,190.636 L571.205,190.636 L573.27,190.192 L577.393,188.604 L581.256,186.288 L584.668,183.573 L587.566,180.797 L589.936,178.268 L591.767,176.284 L592.942,175.213 L592.85,175.371 L591.957,175.666 L592.24,175.661 L592.676,176.027 L594.207,177.465 L596.651,180.163 L598.321,182.033 L599.192,182.912 L599.546,183.201 L599.546,183.201 C599.565,183.216 599.584,183.23 599.605,183.243 L599.605,183.243 L601.694,184.495 L606.258,186.328 L611.171,187.365 L616.282,187.785 L624.044,187.693 L631.617,187.325 L636.346,187.249 L638.557,187.332 L638.556,187.332 L640.368,187.401 L644.879,187.413 L650.166,187.404 L655.839,187.551 L661.511,188.03 L666.79,189.012 L670.24,190.175 L672.203,191.184 L673.863,192.41 L675.159,193.863 L675.64,194.651 L675.64,194.651 C675.937,195.129 676.844,194.925 677.665,194.194 C678.486,193.464 678.91,192.484 678.613,192.005 L678.023,191.072 L676.575,189.482 L674.769,188.166 L672.644,187.089 L669.006,185.878 L663.567,184.874 L657.788,184.389 L652.061,184.241 L646.781,184.25 L642.34,184.24 L640.528,184.171 L640.528,184.171 C640.527,184.171 640.527,184.171 640.527,184.171 L640.527,184.171 L638.211,184.087 L633.412,184.166 L625.917,184.531 L618.333,184.629 L613.42,184.237 L608.728,183.266 L604.325,181.513 L602.236,180.26 L602.295,180.302 L602.024,180.086 L601.189,179.245 L599.514,177.371 L597.008,174.61 L595.275,173.027 L594.099,172.499 L593.814,172.504 L593.814,172.504 C593.554,172.509 593.242,172.612 592.921,172.799 L592.921,172.799 L591.749,173.586 L590.132,175.1 L588.335,177.047 L586.253,179.284 L583.879,181.597 L581.211,183.785 L578.193,185.677 L574.642,187.089 L572.575,187.534 L572.734,187.509 L569.417,187.834 L562.366,187.519 L555.053,186.366 L547.61,184.941 L540.133,183.822 L532.717,183.603 L527.215,184.41 L523.512,185.609 L519.811,187.469 L516.306,189.96 L514.77,191.325 C513.948,192.055 513.523,193.036 513.82,193.515 C514.116,193.994 515.022,193.791 515.844,193.061 L515.844,193.061" fill="#0C60B2"/>
      <text transform="matrix(1, 0, 0, 1, 600.27, 150.531)">
        <tspan x="-36.381" y="6.5" font-family="GillSans" font-size="21" fill="#0C60B2">Chunk 4</tspan>
      </text>
    </g>
    <path d="M21.542,192.771 L22.78,191.408 L25.005,189.509 L27.167,188.257 L29.488,187.393 L33.382,186.744 L38.962,186.993 L44.793,188.09 L50.742,189.502 L56.693,190.666 L62.573,191.004 L65.556,190.668 L65.556,190.668 C65.623,190.66 65.693,190.647 65.765,190.628 L65.765,190.628 L67.431,190.183 L70.911,188.538 L74.219,186.105 L77.074,183.304 L79.44,180.498 L81.355,177.968 L82.832,175.984 L83.776,174.918 L83.556,175.203 L82.395,175.676 L82.624,175.671 L82.856,176.01 L84.078,177.437 L86.049,180.132 L87.397,182.002 L88.101,182.882 L88.39,183.176 L88.39,183.176 C88.408,183.193 88.426,183.209 88.446,183.224 L88.446,183.224 L90.132,184.476 L93.833,186.319 L97.828,187.367 L101.989,187.794 L108.291,187.703 L114.421,187.335 L118.222,187.259 L119.984,187.342 L119.983,187.342 L121.446,187.411 L125.1,187.423 L129.37,187.414 L133.937,187.561 L138.494,188.038 L142.726,189.016 L146.32,190.657 L148.394,192.402 L149.415,193.832 L149.802,194.618 L149.802,194.618 C150.06,195.131 150.945,194.974 151.779,194.267 C152.614,193.561 153.081,192.572 152.824,192.059 L152.346,191.123 L151.153,189.511 L148.838,187.616 L145.003,185.894 L140.584,184.886 L135.898,184.4 L131.264,184.251 L127.005,184.261 L123.435,184.25 L121.971,184.182 L121.971,184.182 C121.971,184.182 121.971,184.182 121.97,184.182 L121.97,184.182 L120.078,184.098 L116.19,184.176 L110.157,184.541 L104.073,184.64 L100.143,184.255 L96.386,183.295 L92.849,181.552 L91.163,180.299 L91.219,180.348 L91.003,180.136 L90.33,179.297 L88.978,177.422 L86.954,174.659 L85.542,173.063 L84.473,172.509 L84.243,172.514 L84.243,172.514 C83.908,172.522 83.491,172.692 83.082,172.987 L83.082,172.987 L81.991,173.901 L80.681,175.421 L79.231,177.368 L77.551,179.603 L75.663,181.886 L73.609,183.989 L71.363,185.763 L68.649,187.118 L66.981,187.563 L67.19,187.522 L64.579,187.844 L58.923,187.534 L53.029,186.383 L47.011,184.956 L40.937,183.832 L34.861,183.62 L30.286,184.467 L27.136,185.746 L23.994,187.718 L21.103,190.269 L19.863,191.635 C19.123,192.45 18.899,193.365 19.362,193.679 C19.826,193.993 20.802,193.586 21.542,192.771 L21.542,192.771" fill="#0C60B2"/>
    <g>
      <path d="M280.45,15.082 L312.63,15.082 L312.63,53.932 L280.45,53.932 z" fill="#FFFFFF"/>
      <path d="M280.45,15.082 L312.63,15.082 L312.63,53.932 L280.45,53.932 z" fill-opacity="0" stroke="#0C60B2" stroke-width="0.929"/>
    </g>
    <text transform="matrix(1, 0, 0, 1, 296.029, 39.499)">
      <tspan x="-15.378" y="-3.5" font-family="GillSans" font-size="12" fill="#0C60B2">{</tspan>
      <tspan x="-11.382" y="-3.5" font-family="GillSans" font-size="12" fill="#D33907">x</tspan>
      <tspan x="-5.382" y="-3.5" font-family="GillSans" font-size="12" fill="#0C60B2">: 25}</tspan>
    </text>
    <g>
      <path d="M340.721,15.082 L373.21,15.082 L373.21,53.932 L340.721,53.932 z" fill="#FFFFFF"/>
      <path d="M340.721,15.082 L373.21,15.082 L373.21,53.932 L340.721,53.932 z" fill-opacity="0" stroke="#0C60B2" stroke-width="0.929"/>
    </g>
    <text transform="matrix(1, 0, 0, 1, 356.449, 39.499)">
      <tspan x="-15.378" y="-3.5" font-family="GillSans" font-size="12" fill="#0C60B2">{</tspan>
      <tspan x="-11.382" y="-3.5" font-family="GillSans" font-size="12" fill="#D33907">x</tspan>
      <tspan x="-5.382" y="-3.5" font-family="GillSans" font-size="12" fill="#0C60B2">: 26}</tspan>
    </text>
    <g>
      <path d="M263.029,72.81 L435.171,72.81 L435.171,99.45 L263.029,99.45 z" fill="#D33907"/>
      <text transform="matrix(1, 0, 0, 1, 349.393, 86.13)">
        <tspan x="-69.955" y="7.5" font-family="GillSans" font-size="24" fill="#FFFFFF">Hash Function</tspan>
      </text>
    </g>
    <g>
      <path d="M296.1,43.63 L296.1,59.83" fill-opacity="0" stroke="#13958C" stroke-width="2"/>
      <path d="M292.5,59.83 L296.1,69.43 L299.7,59.83 z" fill="#13958C" fill-opacity="1" stroke="#13958C" stroke-width="2" stroke-opacity="1"/>
    </g>
    <g>
      <path d="M356.965,43.63 L356.965,59.83" fill-opacity="0" stroke="#301E13" stroke-width="2"/>
      <path d="M353.365,59.83 L356.965,69.43 L360.565,59.83 z" fill="#301E13" fill-opacity="1" stroke="#301E13" stroke-width="2" stroke-opacity="1"/>
    </g>
    <path d="M296.1,100.63 L296.1,125.794" fill-opacity="0" stroke="#13958C" stroke-width="2"/>
    <text transform="matrix(1, 0, 0, 1, 408.932, 150.541)">
      <tspan x="-36.381" y="6.5" font-family="GillSans" font-size="21" fill="#0C60B2">Chunk 3</tspan>
    </text>
    <g>
      <path d="M33.74,212.877 L138.14,212.877" fill-opacity="0" stroke="#0C60B2" stroke-width="2"/>
      <path d="M33.74,209.277 L24.14,212.877 L33.74,216.477 z" fill="#0C60B2" fill-opacity="1" stroke="#0C60B2" stroke-width="2" stroke-opacity="1"/>
      <path d="M138.14,216.477 L147.74,212.877 L138.14,209.277 z" fill="#0C60B2" fill-opacity="1" stroke="#0C60B2" stroke-width="2" stroke-opacity="1"/>
    </g>
    <g>
      <path d="M165.261,212.877 L289.661,212.877" fill-opacity="0" stroke="#0C60B2" stroke-width="2"/>
      <path d="M165.261,209.277 L155.661,212.877 L165.261,216.477 z" fill="#0C60B2" fill-opacity="1" stroke="#0C60B2" stroke-width="2" stroke-opacity="1"/>
      <path d="M289.661,216.477 L299.261,212.877 L289.661,209.277 z" fill="#0C60B2" fill-opacity="1" stroke="#0C60B2" stroke-width="2" stroke-opacity="1"/>
    </g>
    <g>
      <path d="M315.849,212.877 L499.249,212.877" fill-opacity="0" stroke="#0C60B2" stroke-width="2"/>
      <path d="M315.849,209.277 L306.249,212.877 L315.849,216.477 z" fill="#0C60B2" fill-opacity="1" stroke="#0C60B2" stroke-width="2" stroke-opacity="1"/>
      <path d="M499.249,216.477 L508.849,212.877 L499.249,209.277 z" fill="#0C60B2" fill-opacity="1" stroke="#0C60B2" stroke-width="2" stroke-opacity="1"/>
    </g>
    <g>
      <path d="M526.017,212.877 L666.417,212.877" fill-opacity="0" stroke="#0C60B2" stroke-width="2"/>
      <path d="M526.017,209.277 L516.417,212.877 L526.017,216.477 z" fill="#0C60B2" fill-opacity="1" stroke="#0C60B2" stroke-width="2" stroke-opacity="1"/>
      <path d="M666.417,216.477 L676.017,212.877 L666.417,209.277 z" fill="#0C60B2" fill-opacity="1" stroke="#0C60B2" stroke-width="2" stroke-opacity="1"/>
    </g>
    <path d="M679.298,184.918 L679.298,234.918" fill-opacity="0" stroke="#AFD1E8" stroke-width="1.5" stroke-dasharray="3,1.5"/>
    <path d="M20.702,184.918 L20.702,234.918" fill-opacity="0" stroke="#AFD1E8" stroke-width="1.5" stroke-dasharray="3,1.5"/>
    <path d="M297.184,125.794 L84.184,125.794" fill-opacity="0" stroke="#13958C" stroke-width="2"/>
    <g>
      <path d="M85.184,125.794 L85.184,133.844" fill-opacity="0" stroke="#13958C" stroke-width="2"/>
      <path d="M81.584,133.844 L85.184,143.444 L88.784,133.844 z" fill="#13958C" fill-opacity="1" stroke="#13958C" stroke-width="2" stroke-opacity="1"/>
    </g>
    <path d="M357.171,100.63 L357.171,125.794" fill-opacity="0" stroke="#301E13" stroke-width="2"/>
    <path d="M356.171,125.794 L596.171,125.794" fill-opacity="0" stroke="#301E13" stroke-width="2"/>
    <g>
      <path d="M595.35,125.794 L595.35,131.91" fill-opacity="0" stroke="#301E13" stroke-width="2"/>
      <path d="M591.75,131.91 L595.35,141.51 L598.95,131.91 z" fill="#301E13" fill-opacity="1" stroke="#301E13" stroke-width="2" stroke-opacity="1"/>
    </g>
  </g>
  <defs/>
</svg>
