<?xml version="1.0" encoding="UTF-8"?>
<!DOCTYPE svg PUBLIC "-//W3C//DTD SVG 1.1//EN" "http://www.w3.org/Graphics/SVG/1.1/DTD/svg11.dtd">
<svg version="1.1" xmlns="http://www.w3.org/2000/svg" xmlns:xlink="http://www.w3.org/1999/xlink" x="0px" y="0px" width="700" height="340" viewBox="0, 0, 700, 340">
  <g id="Layer 1">
    <g>
      <path d="M459.906,37.87 C459.906,36.526 457,35.436 453.41,35.436 L266.402,35.436 C262.816,35.436 259.906,36.526 259.906,37.87 L259.906,107.999 C259.906,109.345 262.816,110.436 266.402,110.436 L453.41,110.436 C457,110.436 459.906,109.345 459.906,107.999 L459.906,37.87" fill="#2A86C0"/>
      <path d="M459.906,37.87 C459.906,36.526 457,35.436 453.41,35.436 L266.402,35.436 C262.816,35.436 259.906,36.526 259.906,37.87 L259.906,107.999 C259.906,109.345 262.816,110.436 266.402,110.436 L453.41,110.436 C457,110.436 459.906,109.345 459.906,107.999 L459.906,37.87" fill-opacity="0" stroke="#E3F0F7" stroke-width="1" stroke-dasharray="3,2"/>
    </g>
    <text transform="matrix(1, 0, 0, 1, 369.906, 79.936)">
      <tspan x="-42.957" y="3.769" font-family="GillSans" font-size="30" fill="#FFFFFF">Router</tspan>
    </text>
    <text transform="matrix(1, 0, 0, 1, 369.906, 99.233)">
      <tspan x="-38.228" y="6" font-family="GillSans" font-size="20" fill="#FFFFFF">(mongos)</tspan>
    </text>
    <text transform="matrix(1, 0, 0, 1, 110.992, 222.889)">
      <tspan x="-71.219" y="6.5" font-family="GillSans" font-size="21" fill="#E88B09">3 Config Servers</tspan>
    </text>
    <text transform="matrix(1, 0, 0, 1, 569.651, 222.963)">
      <tspan x="-74.751" y="6.5" font-family="GillSans" font-size="21" fill="#5CA831">2 or more Shards</tspan>
    </text>
    <g>
      <path d="M684.906,237.773 C684.906,236.428 682,235.338 678.41,235.338 L491.402,235.338 C487.816,235.338 484.906,236.428 484.906,237.773 L484.906,307.902 C484.906,309.247 487.816,310.338 491.402,310.338 L678.41,310.338 C682,310.338 684.906,309.247 684.906,307.902 L684.906,237.773" fill="#5CA831"/>
      <path d="M684.906,237.773 C684.906,236.428 682,235.338 678.41,235.338 L491.402,235.338 C487.816,235.338 484.906,236.428 484.906,237.773 L484.906,307.902 C484.906,309.247 487.816,310.338 491.402,310.338 L678.41,310.338 C682,310.338 684.906,309.247 684.906,307.902 L684.906,237.773" fill-opacity="0" stroke="#AED675" stroke-width="1" stroke-dasharray="3,2"/>
    </g>
    <g>
      <path d="M669.906,255.767 C669.906,254.423 667,253.333 663.41,253.333 L476.402,253.333 C472.816,253.333 469.906,254.423 469.906,255.767 L469.906,325.896 C469.906,327.242 472.816,328.333 476.402,328.333 L663.41,328.333 C667,328.333 669.906,327.242 669.906,325.896 L669.906,255.767" fill="#5CA831"/>
      <path d="M669.906,255.767 C669.906,254.423 667,253.333 663.41,253.333 L476.402,253.333 C472.816,253.333 469.906,254.423 469.906,255.767 L469.906,325.896 C469.906,327.242 472.816,328.333 476.402,328.333 L663.41,328.333 C667,328.333 669.906,327.242 669.906,325.896 L669.906,255.767" fill-opacity="0" stroke="#AED675" stroke-width="1" stroke-dasharray="3,2"/>
    </g>
    <text transform="matrix(1, -0, 0, 1, 569.906, 284.576)">
      <tspan x="-34.131" y="10" font-family="GillSans" font-size="30" fill="#FFFFFE">Shard</tspan>
    </text>
    <text transform="matrix(1, 0, 0, 1, 569.906, 311.333)">
      <tspan x="-50.183" y="6.5" font-family="GillSans" font-size="21" fill="#FFFFFF">(replica set)</tspan>
    </text>
    <g>
      <path d="M449.906,53.413 C449.906,52.069 447,50.979 443.41,50.979 L256.402,50.979 C252.816,50.979 249.906,52.069 249.906,53.413 L249.906,123.542 C249.906,124.888 252.816,125.979 256.402,125.979 L443.41,125.979 C447,125.979 449.906,124.888 449.906,123.542 L449.906,53.413" fill="#2A86C0"/>
      <path d="M449.906,53.413 C449.906,52.069 447,50.979 443.41,50.979 L256.402,50.979 C252.816,50.979 249.906,52.069 249.906,53.413 L249.906,123.542 C249.906,124.888 252.816,125.979 256.402,125.979 L443.41,125.979 C447,125.979 449.906,124.888 449.906,123.542 L449.906,53.413" fill-opacity="0" stroke="#AFD1E8" stroke-width="1" stroke-dasharray="3,2"/>
    </g>
    <text transform="matrix(1, 0, 0, 1, 349.906, 107.776)">
      <tspan x="-38.228" y="6" font-family="GillSans" font-size="20" fill="#FFFFFF">(mongos)</tspan>
    </text>
    <g>
      <path d="M402.29,140.284 L468.721,209.174" fill-opacity="0" stroke="#484743" stroke-width="4"/>
      <path d="M405.745,136.952 L393.405,131.07 L398.835,143.616 z" fill="#484743" fill-opacity="1" stroke="#484743" stroke-width="4" stroke-opacity="1"/>
      <path d="M465.266,212.506 L477.606,218.388 L472.176,205.842 z" fill="#484743" fill-opacity="1" stroke="#484743" stroke-width="4" stroke-opacity="1"/>
    </g>
    <g>
      <path d="M297.721,140.284 L231.29,209.174" fill-opacity="0" stroke="#484743" stroke-width="4" stroke-dasharray="8,4"/>
      <path d="M301.176,143.616 L306.606,131.07 L294.266,136.952 z" fill="#484743" fill-opacity="1" stroke="#484743" stroke-width="4" stroke-opacity="1"/>
      <path d="M227.835,205.842 L222.405,218.388 L234.745,212.506 z" fill="#484743" fill-opacity="1" stroke="#484743" stroke-width="4" stroke-opacity="1"/>
    </g>
    <g>
      <path d="M229.906,238.022 C229.906,236.677 227,235.587 223.41,235.587 L36.402,235.587 C32.816,235.587 29.906,236.677 29.906,238.022 L29.906,308.151 C29.906,309.496 32.816,310.587 36.402,310.587 L223.41,310.587 C227,310.587 229.906,309.496 229.906,308.151 L229.906,238.022" fill="#E88B09"/>
      <path d="M229.906,238.022 C229.906,236.677 227,235.587 223.41,235.587 L36.402,235.587 C32.816,235.587 29.906,236.677 29.906,238.022 L29.906,308.151 C29.906,309.496 32.816,310.587 36.402,310.587 L223.41,310.587 C227,310.587 229.906,309.496 229.906,308.151 L229.906,238.022" fill-opacity="0" stroke="#F7D58F" stroke-width="1" stroke-dasharray="3,2"/>
    </g>
    <g>
      <path d="M219.906,246.773 C219.906,245.428 217,244.338 213.41,244.338 L26.402,244.338 C22.816,244.338 19.906,245.428 19.906,246.773 L19.906,316.902 C19.906,318.247 22.816,319.338 26.402,319.338 L213.41,319.338 C217,319.338 219.906,318.247 219.906,316.902 L219.906,246.773" fill="#E88B09"/>
      <path d="M219.906,246.773 C219.906,245.428 217,244.338 213.41,244.338 L26.402,244.338 C22.816,244.338 19.906,245.428 19.906,246.773 L19.906,316.902 C19.906,318.247 22.816,319.338 26.402,319.338 L213.41,319.338 C217,319.338 219.906,318.247 219.906,316.902 L219.906,246.773" fill-opacity="0" stroke="#F7D58F" stroke-width="1" stroke-dasharray="3,2"/>
    </g>
    <g>
      <path d="M210.094,255.768 C210.094,254.423 207.188,253.333 203.598,253.333 L16.59,253.333 C13.003,253.333 10.094,254.423 10.094,255.768 L10.094,325.897 C10.094,327.242 13.003,328.333 16.59,328.333 L203.598,328.333 C207.188,328.333 210.094,327.242 210.094,325.897 L210.094,255.768" fill="#E88B09"/>
      <path d="M210.094,255.768 C210.094,254.423 207.188,253.333 203.598,253.333 L16.59,253.333 C13.003,253.333 10.094,254.423 10.094,255.768 L10.094,325.897 C10.094,327.242 13.003,328.333 16.59,328.333 L203.598,328.333 C207.188,328.333 210.094,327.242 210.094,325.897 L210.094,255.768" fill-opacity="0" stroke="#F7D58F" stroke-width="1" stroke-dasharray="3,2"/>
    </g>
    <text transform="matrix(1, 0, 0, 1, 116.22, 295.333)">
      <tspan x="-84.302" y="2.123" font-family="GillSans" font-size="30" fill="#FFFFFF">Config Server</tspan>
    </text>
    <g>
      <path d="M276.306,290.587 L423.506,290.587" fill-opacity="0" stroke="#484743" stroke-width="4" stroke-dasharray="8,4"/>
      <path d="M276.306,285.787 L263.506,290.587 L276.306,295.387 z" fill="#484743" fill-opacity="1" stroke="#484743" stroke-width="4" stroke-opacity="1"/>
      <path d="M423.506,295.387 L436.306,290.587 L423.506,285.787 z" fill="#484743" fill-opacity="1" stroke="#484743" stroke-width="4" stroke-opacity="1"/>
    </g>
    <text transform="matrix(1, 0, 0, 1, 359.906, 24.167)">
      <tspan x="-80.929" y="6.5" font-family="GillSans" font-size="21" fill="#2A86C0">2 or more Routers</tspan>
    </text>
    <text transform="matrix(1, 0, 0, 1, 349.906, 88.479)">
      <tspan x="-42.957" y="3.769" font-family="GillSans" font-size="30" fill="#FFFFFF">Router</tspan>
    </text>
  </g>
  <defs/>
</svg>
