<?xml version="1.0" encoding="UTF-8"?>
<!DOCTYPE svg PUBLIC "-//W3C//DTD SVG 1.1//EN" "http://www.w3.org/Graphics/SVG/1.1/DTD/svg11.dtd">
<svg version="1.1" xmlns="http://www.w3.org/2000/svg" xmlns:xlink="http://www.w3.org/1999/xlink" x="0px" y="0px" width="700" height="560" viewBox="0, 0, 700, 560">
  <g id="Layer 1">
    <g>
      <g>
        <path d="M79.139,110.85 C79.139,113.036 79.681,114.807 80.351,114.807 L228.181,114.807 C228.85,114.807 229.393,113.036 229.393,110.85 L229.393,18.765 C229.393,16.579 228.85,14.807 228.181,14.807 L80.351,14.807 C79.681,14.807 79.139,16.579 79.139,18.765 L79.139,110.85" fill="#484743"/>
        <path d="M79.139,110.85 C79.139,113.036 79.681,114.807 80.351,114.807 L228.181,114.807 C228.85,114.807 229.393,113.036 229.393,110.85 L229.393,18.765 C229.393,16.579 228.85,14.807 228.181,14.807 L80.351,14.807 C79.681,14.807 79.139,16.579 79.139,18.765 L79.139,110.85" fill-opacity="0" stroke="#FFFFFF" stroke-width="1"/>
      </g>
      <text transform="matrix(1, 0, -0, 1, 154.266, 40.491)">
        <tspan x="-68.613" y="7" font-family="GillSans" font-size="30" fill="#302E2E">Application</tspan>
      </text>
      <path d="M79.139,66.057 L229.393,66.057" fill-opacity="0" stroke="#ECEBE9" stroke-width="1"/>
      <text transform="matrix(1, 0, -0, 1, 155.24, 90.49)">
        <tspan x="-39.873" y="7" font-family="GillSans" font-size="30" fill="#302E2E">Driver</tspan>
      </text>
    </g>
    <g>
      <g>
        <path d="M249.393,110.85 C249.393,113.036 249.935,114.807 250.605,114.807 L398.435,114.807 C399.104,114.807 399.647,113.036 399.647,110.85 L399.647,18.765 C399.647,16.579 399.104,14.807 398.435,14.807 L250.605,14.807 C249.935,14.807 249.393,16.579 249.393,18.765 L249.393,110.85" fill="#484743"/>
        <path d="M249.393,110.85 C249.393,113.036 249.935,114.807 250.605,114.807 L398.435,114.807 C399.104,114.807 399.647,113.036 399.647,110.85 L399.647,18.765 C399.647,16.579 399.104,14.807 398.435,14.807 L250.605,14.807 C249.935,14.807 249.393,16.579 249.393,18.765 L249.393,110.85" fill-opacity="0" stroke="#FFFFFF" stroke-width="1"/>
      </g>
      <text transform="matrix(1, 0, -0, 1, 324.52, 40.491)">
        <tspan x="-68.613" y="7" font-family="GillSans" font-size="30" fill="#302E2E">Application</tspan>
      </text>
      <path d="M249.393,66.057 L399.647,66.057" fill-opacity="0" stroke="#ECEBE9" stroke-width="1"/>
      <text transform="matrix(1, 0, -0, 1, 325.494, 90.49)">
        <tspan x="-39.873" y="7" font-family="GillSans" font-size="30" fill="#302E2E">Driver</tspan>
      </text>
    </g>
    <g>
      <g>
        <g>
          <path d="M655.771,236.289 C655.771,234.944 652.865,233.854 649.275,233.854 L462.267,233.854 C458.68,233.854 455.771,234.944 455.771,236.289 L455.771,306.418 C455.771,307.763 458.68,308.854 462.267,308.854 L649.275,308.854 C652.865,308.854 655.771,307.763 655.771,306.418 L655.771,236.289" fill="#E88B09"/>
          <path d="M655.771,236.289 C655.771,234.944 652.865,233.854 649.275,233.854 L462.267,233.854 C458.68,233.854 455.771,234.944 455.771,236.289 L455.771,306.418 C455.771,307.763 458.68,308.854 462.267,308.854 L649.275,308.854 C652.865,308.854 655.771,307.763 655.771,306.418 L655.771,236.289" fill-opacity="0" stroke="#F7D58F" stroke-width="1" stroke-dasharray="3,2"/>
        </g>
        <text transform="matrix(1, 0, 0, 1, 561.726, 271.354)">
          <tspan x="-90.139" y="7.623" font-family="GillSans" font-size="30" fill="#FFFFFF">Config Server</tspan>
        </text>
      </g>
      <g>
        <g>
          <path d="M692.724,282.164 C692.724,280.819 689.818,279.729 686.228,279.729 L499.22,279.729 C495.634,279.729 492.724,280.819 492.724,282.164 L492.724,352.293 C492.724,353.638 495.634,354.729 499.22,354.729 L686.228,354.729 C689.818,354.729 692.724,353.638 692.724,352.293 L692.724,282.164" fill="#E88B09"/>
          <path d="M692.724,282.164 C692.724,280.819 689.818,279.729 686.228,279.729 L499.22,279.729 C495.634,279.729 492.724,280.819 492.724,282.164 L492.724,352.293 C492.724,353.638 495.634,354.729 499.22,354.729 L686.228,354.729 C689.818,354.729 692.724,353.638 692.724,352.293 L692.724,282.164" fill-opacity="0" stroke="#F7D58F" stroke-width="1" stroke-dasharray="3,2"/>
        </g>
        <text transform="matrix(1, 0, 0, 1, 598.679, 317.229)">
          <tspan x="-90.139" y="7.623" font-family="GillSans" font-size="30" fill="#FFFFFF">Config Server</tspan>
        </text>
      </g>
      <g>
        <path d="M653.714,330.144 C653.714,328.8 650.809,327.71 647.218,327.71 L460.21,327.71 C456.624,327.71 453.714,328.8 453.714,330.144 L453.714,400.273 C453.714,401.619 456.624,402.71 460.21,402.71 L647.218,402.71 C650.809,402.71 653.714,401.619 653.714,400.273 L653.714,330.144" fill="#E88B09"/>
        <path d="M653.714,330.144 C653.714,328.8 650.809,327.71 647.218,327.71 L460.21,327.71 C456.624,327.71 453.714,328.8 453.714,330.144 L453.714,400.273 C453.714,401.619 456.624,402.71 460.21,402.71 L647.218,402.71 C650.809,402.71 653.714,401.619 653.714,400.273 L653.714,330.144" fill-opacity="0" stroke="#F7D58F" stroke-width="1" stroke-dasharray="3,2"/>
      </g>
      <text transform="matrix(1, 0, 0, 1, 559.669, 365.21)">
        <tspan x="-90.139" y="7.623" font-family="GillSans" font-size="30" fill="#FFFFFF">Config Server</tspan>
      </text>
      <text transform="matrix(1, 0, 0, 1, 553.714, 423.71)">
        <tspan x="-55.737" y="10" font-family="GillSans" font-size="30" fill="#484743">Metadata</tspan>
      </text>
    </g>
    <g>
      <path d="M340.393,201.289 C340.393,199.944 337.487,198.854 333.897,198.854 L146.889,198.854 C143.302,198.854 140.393,199.944 140.393,201.289 L140.393,271.418 C140.393,272.763 143.302,273.854 146.889,273.854 L333.897,273.854 C337.487,273.854 340.393,272.763 340.393,271.418 L340.393,201.289" fill="#2A86C0"/>
      <path d="M340.393,201.289 C340.393,199.944 337.487,198.854 333.897,198.854 L146.889,198.854 C143.302,198.854 140.393,199.944 140.393,201.289 L140.393,271.418 C140.393,272.763 143.302,273.854 146.889,273.854 L333.897,273.854 C337.487,273.854 340.393,272.763 340.393,271.418 L340.393,201.289" fill-opacity="0" stroke="#FFFFFF" stroke-width="1"/>
    </g>
    <text transform="matrix(1, 0, 0, 1, 240.393, 236.354)">
      <tspan x="-42.957" y="3.769" font-family="GillSans" font-size="30" fill="#FFFFFF">Router</tspan>
    </text>
    <text transform="matrix(1, 0, 0, 1, 240.393, 255.651)">
      <tspan x="-38.228" y="6" font-family="GillSans" font-size="20" fill="#FFFFFF">(mongos)</tspan>
    </text>
    <path d="M235.393,442.289 C235.393,440.944 232.487,439.854 228.897,439.854 L41.889,439.854 C38.302,439.854 35.393,440.944 35.393,442.289 L35.393,512.418 C35.393,513.763 38.302,514.854 41.889,514.854 L228.897,514.854 C232.487,514.854 235.393,513.763 235.393,512.418 L235.393,442.289" fill="#5CA831"/>
    <text transform="matrix(1, -0, 0, 1, 135.393, 477.354)">
      <tspan x="-34.131" y="7" font-family="GillSans" font-size="30" fill="#FFFFFE">Shard</tspan>
    </text>
    <text transform="matrix(1, 0, 0, 1, 135.393, 535.855)">
      <tspan x="-29.048" y="10" font-family="GillSans" font-size="30" fill="#484743">Data</tspan>
    </text>
    <g>
      <g>
        <path d="M164.291,105.042 C164.291,107.228 164.834,109 165.503,109 L313.333,109 C314.002,109 314.545,107.228 314.545,105.042 L314.545,12.958 C314.545,10.772 314.002,9 313.333,9 L165.503,9 C164.834,9 164.291,10.772 164.291,12.958 L164.291,105.042" fill="#484743"/>
        <path d="M164.291,105.042 C164.291,107.228 164.834,109 165.503,109 L313.333,109 C314.002,109 314.545,107.228 314.545,105.042 L314.545,12.958 C314.545,10.772 314.002,9 313.333,9 L165.503,9 C164.834,9 164.291,10.772 164.291,12.958 L164.291,105.042" fill-opacity="0" stroke="#FFFFFF" stroke-width="1"/>
      </g>
      <text transform="matrix(1, 0, -0, 1, 239.418, 34.683)">
        <tspan x="-68.613" y="7" font-family="GillSans" font-size="30" fill="#FFFFFE">Application</tspan>
      </text>
      <path d="M164.291,60.25 L314.545,60.25" fill-opacity="0" stroke="#ECEBE9" stroke-width="1"/>
      <text transform="matrix(1, 0, -0, 1, 240.393, 84.683)">
        <tspan x="-39.873" y="7" font-family="GillSans" font-size="30" fill="#FFFFFE">Driver</tspan>
      </text>
    </g>
    <g>
      <path d="M240.393,139.879 L240.393,180.454" fill-opacity="0" stroke="#484743" stroke-width="4"/>
      <path d="M245.193,139.879 L240.393,127.079 L235.593,139.879 z" fill="#484743" fill-opacity="1" stroke="#484743" stroke-width="4" stroke-opacity="1"/>
      <path d="M235.593,180.454 L240.393,193.254 L245.193,180.454 z" fill="#484743" fill-opacity="1" stroke="#484743" stroke-width="4" stroke-opacity="1"/>
    </g>
    <g>
      <path d="M240.393,292.254 L240.393,380.6" fill-opacity="0" stroke="#484743" stroke-width="4"/>
      <path d="M245.193,292.254 L240.393,279.454 L235.593,292.254 z" fill="#484743" fill-opacity="1" stroke="#484743" stroke-width="4" stroke-opacity="1"/>
      <path d="M235.593,380.6 L240.393,393.4 L245.193,380.6 z" fill="#484743" fill-opacity="1" stroke="#484743" stroke-width="4" stroke-opacity="1"/>
    </g>
    <g>
      <path d="M355.115,260.137 L403.549,307.53" fill-opacity="0" stroke="#E88B09" stroke-width="4" stroke-dasharray="8,4"/>
      <path d="M358.472,256.706 L345.966,251.184 L351.758,263.567 z" fill="#E88B09" fill-opacity="1" stroke="#E88B09" stroke-width="4" stroke-opacity="1"/>
      <path d="M400.192,310.961 L412.698,316.482 L406.906,304.099 z" fill="#E88B09" fill-opacity="1" stroke="#E88B09" stroke-width="4" stroke-opacity="1"/>
    </g>
    <path d="M444.99,442.289 C444.99,440.944 442.085,439.854 438.494,439.854 L251.486,439.854 C247.9,439.854 244.99,440.944 244.99,442.289 L244.99,512.418 C244.99,513.763 247.9,514.854 251.486,514.854 L438.494,514.854 C442.085,514.854 444.99,513.763 444.99,512.418 L444.99,442.289" fill="#5CA831"/>
    <text transform="matrix(1, -0, 0, 1, 344.99, 477.354)">
      <tspan x="-34.131" y="7" font-family="GillSans" font-size="30" fill="#FFFFFE">Shard</tspan>
    </text>
    <text transform="matrix(1, 0, 0, 1, 344.991, 535.855)">
      <tspan x="-29.048" y="10" font-family="GillSans" font-size="30" fill="#484743">Data</tspan>
    </text>
    <path d="M134.302,430.796 L136.532,427.823 L140.926,423.206 L145.494,419.738 L150.483,417.009 L155.962,414.908 L161.887,413.401 L168.175,412.443 L174.746,411.963 L185.004,411.942 L199.076,412.699 L213.262,413.597 L223.784,413.859 L230.682,413.639 L234.1,413.366 L234.1,413.366 C234.172,413.361 234.245,413.35 234.321,413.336 L234.321,413.336 L235.019,413.2 L237.002,412.356 L239.816,410.177 L242.406,407.556 L243.362,406.982 L243.385,407.269 L243.504,407.37 L243.304,407.346 L244.072,407.507 L245.886,408.105 L249.371,409.557 L254.529,411.893 L258.089,413.42 L260.056,414.118 L260.906,414.336 L260.906,414.336 C260.934,414.343 260.963,414.349 260.993,414.354 L260.993,414.354 L263.596,414.791 L268.92,415.267 L276.934,415.146 L287.539,414.012 L297.895,412.596 L305.372,411.892 L310.177,411.794 L314.874,412.11 L319.439,412.946 L323.87,414.409 L328.164,416.608 L332.312,419.658 L336.302,423.674 L338.217,426.061 L338.217,426.061 C338.738,426.709 340.135,426.312 341.337,425.174 C342.538,424.036 343.09,422.588 342.569,421.939 C342.569,421.939 342.569,421.939 342.569,421.939 L340.547,419.434 L336.379,415.265 L332.012,412.081 L327.463,409.776 L322.754,408.243 L317.909,407.373 L312.958,407.051 L307.907,407.164 L300.273,407.886 L290.027,409.288 L279.731,410.403 L272.015,410.534 L266.882,410.083 L264.277,409.646 L264.364,409.664 L263.69,409.499 L261.835,408.845 L258.306,407.331 L253.098,404.973 L249.475,403.47 L247.446,402.815 L246.677,402.654 L246.677,402.654 C246.614,402.641 246.547,402.633 246.476,402.63 L246.476,402.63 L245.208,402.672 L242.673,403.641 L240.175,405.545 L238.41,407.396 L237.755,408.158 L237.165,408.528 L236.464,408.664 L236.685,408.634 L233.427,408.897 L226.705,409.117 L216.291,408.859 L202.079,407.96 L187.844,407.198 L177.353,407.228 L170.485,407.743 L163.752,408.793 L157.161,410.517 L150.716,413.079 L144.461,416.655 L138.553,421.345 L133.328,426.947 L131.096,429.923 C130.131,431.21 130.066,432.449 130.951,432.691 C131.837,432.932 133.337,432.083 134.302,430.796 L134.302,430.796" fill="#5CA831"/>
    <g>
      <path d="M274.531,390.171 L390.455,343.163" fill-opacity="0" stroke="#E88B09" stroke-width="4" stroke-dasharray="8,4"/>
      <path d="M272.728,385.722 L262.669,394.981 L276.335,394.619 z" fill="#E88B09" fill-opacity="1" stroke="#E88B09" stroke-width="4" stroke-opacity="1"/>
      <path d="M392.259,347.611 L402.317,338.353 L388.652,338.715 z" fill="#E88B09" fill-opacity="1" stroke="#E88B09" stroke-width="4" stroke-opacity="1"/>
    </g>
    <path d="M436.134,243.318 L433.973,245.187 L429.89,249.527 L426.588,254.28 L424.238,259.128 L422.719,263.967 L421.861,268.793 L421.484,276.022 L422.046,285.814 L423.056,295.705 L423.709,305.55 L423.491,312.781 L422.84,317.449 L422.342,319.685 L422.517,319.155 L422.28,319.704 L422.229,319.38 L420.987,319.983 L417.811,321.744 L415.313,323.592 L413.243,326.406 L412.969,328.236 L412.969,328.236 C412.981,328.344 413.005,328.444 413.043,328.533 L413.043,328.533 L413.379,329.334 L414.427,330.897 L416.497,332.868 L419.465,335.379 L421.283,337.613 L422.087,339.412 L422.333,340.405 L422.312,340.304 L422.947,344.194 L423.46,351.339 L423.461,357.812 L423.515,363.74 L423.937,367.885 L424.551,370.516 L425.513,372.98 L426.902,375.288 L428.783,377.431 L431.22,379.406 L434.275,381.216 L438.014,382.866 L440.18,383.642 L440.18,383.642 C441.02,383.942 442.516,383.152 443.521,381.877 C444.526,380.602 444.66,379.325 443.82,379.025 L441.774,378.297 L438.211,376.736 L435.342,375.055 L433.088,373.255 L431.37,371.334 L430.109,369.283 L429.23,367.088 L428.667,364.754 L428.259,360.867 L428.205,354.964 L428.196,348.288 L427.658,340.92 L427.022,337.029 L427.022,337.029 C427.016,336.994 427.009,336.961 427,336.929 L427,336.929 L426.644,335.623 L425.625,333.481 L423.615,331.052 L420.707,328.593 L418.85,326.872 L417.961,325.603 L417.624,324.8 L417.698,325.097 L417.316,325.908 L416.269,326.735 L417.566,325.681 L421.304,323.579 L424.672,321.167 L426.579,318.729 L426.816,318.178 L426.816,318.178 C426.895,317.995 426.954,317.817 426.991,317.648 L426.991,317.648 L427.549,315.075 L428.233,310.027 L428.446,302.515 L427.786,292.576 L426.784,282.801 L426.224,273.335 L426.548,266.563 L427.262,262.332 L428.435,258.38 L430.091,254.737 L432.312,251.337 L435.464,247.895 L437.626,246.025 C437.626,246.025 437.626,246.025 437.626,246.025 C438.87,244.95 439.544,243.472 439.132,242.724 C438.72,241.977 437.378,242.243 436.134,243.318 L436.134,243.318" fill="#E88B09"/>
    <path d="M780.897,289.637 L781.095,289.97 L781.095,289.97 C781.528,290.699 782.881,290.408 784.117,289.32 C785.353,288.232 786.005,286.759 785.572,286.03 L785.374,285.696 C785.374,285.696 785.374,285.696 785.374,285.696 C784.941,284.967 783.588,285.258 782.351,286.346 C781.115,287.435 780.464,288.908 780.897,289.637 L780.897,289.637" fill="#E88B09"/>
    <g>
      <path d="M313.559,142.061 L289.107,182.793" fill-opacity="0" stroke="#484743" stroke-width="4"/>
      <path d="M317.675,144.532 L320.147,131.087 L309.444,139.591 z" fill="#484743" fill-opacity="1" stroke="#484743" stroke-width="4" stroke-opacity="1"/>
      <path d="M284.992,180.323 L282.52,193.768 L293.223,185.264 z" fill="#484743" fill-opacity="1" stroke="#484743" stroke-width="4" stroke-opacity="1"/>
    </g>
    <g>
      <path d="M167.726,142.065 L192.149,182.79" fill-opacity="0" stroke="#484743" stroke-width="4"/>
      <path d="M171.842,139.596 L161.143,131.087 L163.609,144.533 z" fill="#484743" fill-opacity="1" stroke="#484743" stroke-width="4" stroke-opacity="1"/>
      <path d="M188.032,185.258 L198.732,193.767 L196.265,180.321 z" fill="#484743" fill-opacity="1" stroke="#484743" stroke-width="4" stroke-opacity="1"/>
    </g>
  </g>
  <defs/>
</svg>
