<?xml version="1.0" encoding="UTF-8"?>
<!DOCTYPE svg PUBLIC "-//W3C//DTD SVG 1.1//EN" "http://www.w3.org/Graphics/SVG/1.1/DTD/svg11.dtd">
<svg version="1.1" xmlns="http://www.w3.org/2000/svg" xmlns:xlink="http://www.w3.org/1999/xlink" x="0" y="0" width="360" height="460" viewBox="0, 0, 360, 460">
  <g id="Layer_1">
    <g>
      <path d="M118.293,289.569 C118.293,286.557 116.71,284.116 114.753,284.116 L12.834,284.116 C10.879,284.116 9.293,286.557 9.293,289.569 L9.293,446.658 C9.293,449.672 10.879,452.116 12.834,452.116 L114.753,452.116 C116.71,452.116 118.293,449.672 118.293,446.658 L118.293,289.569" fill="#5CA831"/>
      <path d="M118.293,289.569 C118.293,286.557 116.71,284.116 114.753,284.116 L12.834,284.116 C10.879,284.116 9.293,286.557 9.293,289.569 L9.293,446.658 C9.293,449.672 10.879,452.116 12.834,452.116 L114.753,452.116 C116.71,452.116 118.293,449.672 118.293,446.658 L118.293,289.569" fill-opacity="0" stroke="#5CA831" stroke-width="1"/>
    </g>
    <g>
      <g>
        <path d="M39.594,350.672 L98.502,350.672 L98.502,434.257 L39.594,434.257 z" fill="#FFFFFF"/>
        <path d="M39.594,350.672 L98.502,350.672 L98.502,434.257 L39.594,434.257 z" fill-opacity="0" stroke="#0C60B2" stroke-width="1"/>
      </g>
      <g>
        <path d="M29.085,360.119 L89.877,360.119 L89.877,444.671 L29.085,444.671 z" fill="#FFFFFF"/>
        <path d="M29.085,360.119 L89.877,360.119 L89.877,444.671 L29.085,444.671 z" fill-opacity="0" stroke="#0C60B2" stroke-width="1"/>
      </g>
    </g>
    <g>
      <path d="M235.527,289.569 C235.527,286.557 233.944,284.116 231.987,284.116 L130.068,284.116 C128.113,284.116 126.527,286.557 126.527,289.569 L126.527,446.658 C126.527,449.672 128.113,452.116 130.068,452.116 L231.987,452.116 C233.944,452.116 235.527,449.672 235.527,446.658 L235.527,289.569" fill="#5CA831"/>
      <path d="M235.527,289.569 C235.527,286.557 233.944,284.116 231.987,284.116 L130.068,284.116 C128.113,284.116 126.527,286.557 126.527,289.569 L126.527,446.658 C126.527,449.672 128.113,452.116 130.068,452.116 L231.987,452.116 C233.944,452.116 235.527,449.672 235.527,446.658 L235.527,289.569" fill-opacity="0" stroke="#5CA831" stroke-width="1"/>
    </g>
    <g>
      <path d="M350.984,289.569 C350.984,286.557 349.401,284.116 347.444,284.116 L245.525,284.116 C243.57,284.116 241.984,286.557 241.984,289.569 L241.984,446.658 C241.984,449.672 243.57,452.116 245.525,452.116 L347.444,452.116 C349.401,452.116 350.984,449.672 350.984,446.658 L350.984,289.569" fill="#5CA831"/>
      <path d="M350.984,289.569 C350.984,286.557 349.401,284.116 347.444,284.116 L245.525,284.116 C243.57,284.116 241.984,286.557 241.984,289.569 L241.984,446.658 C241.984,449.672 243.57,452.116 245.525,452.116 L347.444,452.116 C349.401,452.116 350.984,449.672 350.984,446.658 L350.984,289.569" fill-opacity="0" stroke="#5CA831" stroke-width="1"/>
    </g>
    <path d="M25.151,340.916 L328.791,340.916 C333.811,340.916 337.88,347.32 337.88,355.221 L337.88,432.352 C337.88,440.253 333.811,446.658 328.791,446.658 L25.151,446.658 C20.132,446.658 16.062,440.253 16.062,432.352 L16.062,355.221 C16.062,347.32 20.132,340.916 25.151,340.916 z" fill-opacity="0" stroke="#0C60B2" stroke-width="1.5" stroke-dasharray="3,1.5"/>
    <path d="M238.659,136.128 C238.659,135.229 236.959,134.5 234.857,134.5 L125.42,134.5 C123.321,134.5 121.619,135.229 121.619,136.128 L121.619,183.037 C121.619,183.937 123.321,184.667 125.42,184.667 L234.857,184.667 C236.959,184.667 238.659,183.937 238.659,183.037 L238.659,136.128" fill="#2A86C0"/>
    <g>
      <g>
        <path d="M156.828,350.672 L215.736,350.672 L215.736,434.257 L156.828,434.257 z" fill="#FFFFFF"/>
        <path d="M156.828,350.672 L215.736,350.672 L215.736,434.257 L156.828,434.257 z" fill-opacity="0" stroke="#0C60B2" stroke-width="1"/>
      </g>
      <g>
        <path d="M146.319,360.119 L207.111,360.119 L207.111,444.671 L146.319,444.671 z" fill="#FFFFFF"/>
        <path d="M146.319,360.119 L207.111,360.119 L207.111,444.671 L146.319,444.671 z" fill-opacity="0" stroke="#0C60B2" stroke-width="1"/>
      </g>
    </g>
    <g>
      <g>
        <path d="M272.285,350.672 L331.193,350.672 L331.193,434.257 L272.285,434.257 z" fill="#FFFFFF"/>
        <path d="M272.285,350.672 L331.193,350.672 L331.193,434.257 L272.285,434.257 z" fill-opacity="0" stroke="#0C60B2" stroke-width="1"/>
      </g>
      <g>
        <path d="M261.775,360.119 L322.568,360.119 L322.568,444.671 L261.775,444.671 z" fill="#FFFFFF"/>
        <path d="M261.775,360.119 L322.568,360.119 L322.568,444.671 L261.775,444.671 z" fill-opacity="0" stroke="#0C60B2" stroke-width="1"/>
      </g>
    </g>
    <path d="M123.92,55.32 C123.92,56.536 124.796,57.522 125.877,57.522 L239.003,57.522 C240.084,57.522 240.96,56.536 240.96,55.32 L240.96,10.086 C240.96,8.87 240.084,7.884 239.003,7.884 L125.877,7.884 C124.796,7.884 123.92,8.87 123.92,10.086 L123.92,55.32" fill="#5A5955"/>
    <g>
      <path d="M163.504,67.461 L163.504,116.9" fill-opacity="0" stroke="#5A5955" stroke-width="3"/>
      <g>
        <path d="M159.304,116.9 L163.504,128.1 L167.704,116.9 z" fill="#5A5955"/>
        <path d="M159.304,116.9 L163.504,128.1 L167.704,116.9 z" fill-opacity="0" stroke="#5A5955" stroke-width="3"/>
      </g>
    </g>
    <g>
      <path d="M163.504,188.307 L163.504,265.496" fill-opacity="0" stroke="#5A5955" stroke-width="3"/>
      <g>
        <path d="M159.304,265.496 L163.504,276.696 L167.704,265.496 z" fill="#5A5955"/>
        <path d="M159.304,265.496 L163.504,276.696 L167.704,265.496 z" fill-opacity="0" stroke="#5A5955" stroke-width="3"/>
      </g>
    </g>
    <g>
      <path d="M202.256,279.096 L202.256,207.907" fill-opacity="0" stroke="#5A5955" stroke-width="3"/>
      <g>
        <path d="M206.456,207.907 L202.256,196.707 L198.056,207.907 z" fill="#5A5955"/>
        <path d="M206.456,207.907 L202.256,196.707 L198.056,207.907 z" fill-opacity="0" stroke="#5A5955" stroke-width="3"/>
      </g>
    </g>
    <g>
      <path d="M202.256,127.167 L202.256,81.24" fill-opacity="0" stroke="#5A5955" stroke-width="3"/>
      <g>
        <path d="M206.456,81.24 L202.256,70.04 L198.056,81.24 z" fill="#5A5955"/>
        <path d="M206.456,81.24 L202.256,70.04 L198.056,81.24 z" fill-opacity="0" stroke="#5A5955" stroke-width="3"/>
      </g>
    </g>
    <g>
      <text transform="matrix(1, 0, 0, 1, 165.102, 32.613)">
        <tspan x="-16.883" y="7.5" font-family="GillSans" font-size="24" fill="#FFFFFE">Dri</tspan>
      </text>
      <text transform="matrix(1, 0, 0, 1, 186.74, 32.613)">
        <tspan x="-5.756" y="7.5" font-family="GillSans" font-size="24" fill="#FFFFFE">v</tspan>
      </text>
      <text transform="matrix(1, 0, 0, 1, 197.264, 32.613)">
        <tspan x="-6.248" y="7.5" font-family="GillSans" font-size="24" fill="#FFFFFE">e</tspan>
      </text>
      <text transform="matrix(1, 0, 0, 1, 207.764, 32.613)">
        <tspan x="-5.252" y="7.5" font-family="GillSans" font-size="24" fill="#FFFFFE">r</tspan>
      </text>
    </g>
    <text transform="matrix(1, 0, 0, 1, 130.706, 78.893)">
      <tspan x="-24.734" y="7.5" font-family="GillSans" font-size="24" fill="#5A5955">Read</tspan>
    </text>
    <text transform="matrix(1, 0, 0, 1, 120.957, 100.819)">
      <tspan x="-33.534" y="6" font-family="GillSans" font-size="18" fill="#5A5955">{ a: "z1" }</tspan>
    </text>
    <text transform="matrix(1, 0, 0, 1, 246.307, 116)">
      <tspan x="-35.357" y="7.5" font-family="GillSans" font-size="24" fill="#5A5955">Results</tspan>
    </text>
    <text transform="matrix(1, 0, 0, 1, 182.465, 159.583)">
      <tspan x="-38.615" y="7.5" font-family="GillSans" font-size="24" fill="#FFFFFF">mongos</tspan>
    </text>
    <text transform="matrix(1, 0, 0, 1, 65.994, 298.616)">
      <tspan x="-37.941" y="7.5" font-family="GillSans" font-size="24" fill="#FFFFFF">Shard A</tspan>
    </text>
    <text transform="matrix(1, 0, 0, 1, 180.881, 298.616)">
      <tspan x="-37.895" y="7.5" font-family="GillSans" font-size="24" fill="#FFFFFF">Shard B</tspan>
    </text>
    <text transform="matrix(1, 0, 0, 1, 296.907, 298.616)">
      <tspan x="-39.635" y="7.5" font-family="GillSans" font-size="24" fill="#FFFFFF">Shard C</tspan>
    </text>
    <text transform="matrix(1, 0, 0, 1, 134.348, 329.792)">
      <tspan x="-102.132" y="6.5" font-family="GillSans" font-size="21" fill="#0C60B2">Collection (shard key a)</tspan>
    </text>
    <text transform="matrix(1, 0, 0, 1, 178.963, 378.227)">
      <tspan x="-26.212" y="6.5" font-family="GillSans" font-size="21" fill="#5A5955">a: "z1"</tspan>
    </text>
  </g>
</svg>
