<?xml version="1.0" encoding="UTF-8"?>
<!DOCTYPE svg PUBLIC "-//W3C//DTD SVG 1.1//EN" "http://www.w3.org/Graphics/SVG/1.1/DTD/svg11.dtd">
<svg version="1.1" xmlns="http://www.w3.org/2000/svg" xmlns:xlink="http://www.w3.org/1999/xlink" x="0px" y="0px" width="720" height="560" viewBox="0, 0, 720, 560">
  <g id="Layer 1">
    <g>
      <g>
        <path d="M460,228.434 C460,227.09 457.094,226 453.504,226 L266.496,226 C262.91,226 260,227.09 260,228.434 L260,298.563 C260,299.909 262.91,301 266.496,301 L453.504,301 C457.094,301 460,299.909 460,298.563 L460,228.434" fill="#2A86C0"/>
        <text transform="matrix(1, 0, 0, 1, 360, 263.5)">
          <tspan x="-42.957" y="3.769" font-family="GillSans" font-size="30" fill="#FFFFFF">Router</tspan>
        </text>
      </g>
      <text transform="matrix(1, 0, 0, 1, 360, 282.797)">
        <tspan x="-38.228" y="6" font-family="GillSans" font-size="20" fill="#FFFFFF">(mongos)</tspan>
      </text>
    </g>
    <g>
      <path d="M710,423.043 C710,421.698 707.094,420.608 703.504,420.608 L516.496,420.608 C512.91,420.608 510,421.698 510,423.043 L510,493.172 C510,494.517 512.91,495.608 516.496,495.608 L703.504,495.608 C707.094,495.608 710,494.517 710,493.172 L710,423.043" fill="#5CA831"/>
      <path d="M710,423.043 C710,421.698 707.094,420.608 703.504,420.608 L516.496,420.608 C512.91,420.608 510,421.698 510,423.043 L510,493.172 C510,494.517 512.91,495.608 516.496,495.608 L703.504,495.608 C707.094,495.608 710,494.517 710,493.172 L710,423.043" fill-opacity="0" stroke="#AED675" stroke-width="1" stroke-dasharray="3,2"/>
    </g>
    <g>
      <path d="M700,432.794 C700,431.449 697.094,430.359 693.504,430.359 L506.496,430.359 C502.91,430.359 500,431.449 500,432.794 L500,502.923 C500,504.268 502.91,505.359 506.496,505.359 L693.504,505.359 C697.094,505.359 700,504.268 700,502.923 L700,432.794" fill="#5CA831"/>
      <path d="M700,432.794 C700,431.449 697.094,430.359 693.504,430.359 L506.496,430.359 C502.91,430.359 500,431.449 500,432.794 L500,502.923 C500,504.268 502.91,505.359 506.496,505.359 L693.504,505.359 C697.094,505.359 700,504.268 700,502.923 L700,432.794" fill-opacity="0" stroke="#9EC36B" stroke-width="1" stroke-dasharray="3,2"/>
    </g>
    <g>
      <g>
        <path d="M690,442.434 C690,441.09 687.094,440 683.504,440 L496.496,440 C492.91,440 490,441.09 490,442.434 L490,512.563 C490,513.909 492.91,515 496.496,515 L683.504,515 C687.094,515 690,513.909 690,512.563 L690,442.434" fill="#5CA831"/>
        <path d="M690,442.434 C690,441.09 687.094,440 683.504,440 L496.496,440 C492.91,440 490,441.09 490,442.434 L490,512.563 C490,513.909 492.91,515 496.496,515 L683.504,515 C687.094,515 690,513.909 690,512.563 L690,442.434" fill-opacity="0" stroke="#AED675" stroke-width="1" stroke-dasharray="3,2"/>
      </g>
      <text transform="matrix(1, -0, 0, 1, 590, 477.5)">
        <tspan x="-39.902" y="7" font-family="GillSans" font-size="30" fill="#FFFFFE">Shards</tspan>
      </text>
    </g>
    <path d="M230,102.188 C230,104.374 230.936,106.146 232.091,106.146 L487.108,106.146 C488.263,106.146 489.199,104.374 489.199,102.188 L489.199,10.103 C489.199,7.917 488.263,6.146 487.108,6.146 L232.091,6.146 C230.936,6.146 230,7.917 230,10.103 L230,102.188" fill="#484743"/>
    <text transform="matrix(1, 0, -0, 1, 360, 31.829)">
      <tspan x="-107.457" y="7" font-family="GillSans" font-size="30" fill="#FFFFFE">Client</tspan>
      <tspan x="-33.702" y="7" font-family="GillSans" font-size="30" fill="#FFFFFE"> </tspan>
      <tspan x="-29.77" y="7" font-family="GillSans" font-size="30" fill="#FFFFFE">Application</tspan>
    </text>
    <path d="M206.282,55.865 L513.718,55.865" fill-opacity="0" stroke="#ECEBE9" stroke-width="1"/>
    <text transform="matrix(1, 0, -0, 1, 360, 81.828)">
      <tspan x="-39.873" y="7" font-family="GillSans" font-size="30" fill="#FFFFFE">Driver</tspan>
    </text>
    <g>
      <path d="M360,127.4 L360,206.6" fill-opacity="0" stroke="#484743" stroke-width="4"/>
      <path d="M364.8,127.4 L360,114.6 L355.2,127.4 z" fill="#484743" fill-opacity="1" stroke="#484743" stroke-width="4" stroke-opacity="1"/>
      <path d="M355.2,206.6 L360,219.4 L364.8,206.6 z" fill="#484743" fill-opacity="1" stroke="#484743" stroke-width="4" stroke-opacity="1"/>
    </g>
    <g>
      <path d="M422.384,315.305 L488.815,384.195" fill-opacity="0" stroke="#484743" stroke-width="4"/>
      <path d="M425.839,311.973 L413.499,306.091 L418.929,318.637 z" fill="#484743" fill-opacity="1" stroke="#484743" stroke-width="4" stroke-opacity="1"/>
      <path d="M485.36,387.527 L497.7,393.409 L492.27,380.863 z" fill="#484743" fill-opacity="1" stroke="#484743" stroke-width="4" stroke-opacity="1"/>
    </g>
    <g>
      <path d="M297.815,315.305 L231.384,384.195" fill-opacity="0" stroke="#484743" stroke-width="4" stroke-dasharray="8,4"/>
      <path d="M301.27,318.637 L306.7,306.091 L294.36,311.973 z" fill="#484743" fill-opacity="1" stroke="#484743" stroke-width="4" stroke-opacity="1"/>
      <path d="M227.929,380.863 L222.499,393.409 L234.839,387.527 z" fill="#484743" fill-opacity="1" stroke="#484743" stroke-width="4" stroke-opacity="1"/>
    </g>
    <g>
      <path d="M230,423.043 C230,421.698 227.094,420.608 223.504,420.608 L36.496,420.608 C32.91,420.608 30,421.698 30,423.043 L30,493.172 C30,494.517 32.91,495.608 36.496,495.608 L223.504,495.608 C227.094,495.608 230,494.517 230,493.172 L230,423.043" fill="#E88B09"/>
      <path d="M230,423.043 C230,421.698 227.094,420.608 223.504,420.608 L36.496,420.608 C32.91,420.608 30,421.698 30,423.043 L30,493.172 C30,494.517 32.91,495.608 36.496,495.608 L223.504,495.608 C227.094,495.608 230,494.517 230,493.172 L230,423.043" fill-opacity="0" stroke="#F7D58F" stroke-width="1" stroke-dasharray="3,2"/>
    </g>
    <g>
      <path d="M220,432.794 C220,431.449 217.094,430.359 213.504,430.359 L26.496,430.359 C22.91,430.359 20,431.449 20,432.794 L20,502.923 C20,504.268 22.91,505.359 26.496,505.359 L213.504,505.359 C217.094,505.359 220,504.268 220,502.923 L220,432.794" fill="#E88B09"/>
      <path d="M220,432.794 C220,431.449 217.094,430.359 213.504,430.359 L26.496,430.359 C22.91,430.359 20,431.449 20,432.794 L20,502.923 C20,504.268 22.91,505.359 26.496,505.359 L213.504,505.359 C217.094,505.359 220,504.268 220,502.923 L220,432.794" fill-opacity="0" stroke="#F7D58F" stroke-width="1" stroke-dasharray="3,2"/>
    </g>
    <g>
      <g>
        <path d="M210.188,442.434 C210.188,441.09 207.282,440 203.692,440 L16.684,440 C13.097,440 10.188,441.09 10.188,442.434 L10.188,512.563 C10.188,513.909 13.097,515 16.684,515 L203.692,515 C207.282,515 210.188,513.909 210.188,512.563 L210.188,442.434" fill="#E88B09"/>
        <path d="M210.188,442.434 C210.188,441.09 207.282,440 203.692,440 L16.684,440 C13.097,440 10.188,441.09 10.188,442.434 L10.188,512.563 C10.188,513.909 13.097,515 16.684,515 L203.692,515 C207.282,515 210.188,513.909 210.188,512.563 L210.188,442.434" fill-opacity="0" stroke="#F7D58F" stroke-width="1" stroke-dasharray="3,2"/>
      </g>
      <text transform="matrix(1, 0, 0, 1, 116.143, 477.5)">
        <tspan x="-90.139" y="7.623" font-family="GillSans" font-size="30" fill="#FFFFFF">Config Server</tspan>
      </text>
    </g>
    <text transform="matrix(1, 0, 0, 1, 110.188, 536)">
      <tspan x="-55.737" y="10" font-family="GillSans" font-size="30" fill="#484743">Metadata</tspan>
    </text>
    <text transform="matrix(1, 0, 0, 1, 590, 536)">
      <tspan x="-29.048" y="10" font-family="GillSans" font-size="30" fill="#484743">Data</tspan>
    </text>
    <g>
      <path d="M286.4,465.608 L433.6,465.608" fill-opacity="0" stroke="#484743" stroke-width="4" stroke-dasharray="8,4"/>
      <path d="M286.4,460.808 L273.6,465.608 L286.4,470.408 z" fill="#484743" fill-opacity="1" stroke="#484743" stroke-width="4" stroke-opacity="1"/>
      <path d="M433.6,470.408 L446.4,465.608 L433.6,460.808 z" fill="#484743" fill-opacity="1" stroke="#484743" stroke-width="4" stroke-opacity="1"/>
    </g>
  </g>
  <defs/>
</svg>
