<svg width="72" height="72" viewBox="0 0 72 72" fill="none" xmlns="http://www.w3.org/2000/svg">
<path d="M68 20H4V12.1C4 10.9 4.9 10 6.1 10H65.9C67.1 10 68 10.9 68 12.1V20Z" fill="#00ED64"/>
<path fill-rule="evenodd" clip-rule="evenodd" d="M3.5 12C3.5 10.6232 4.62584 9.5 6.00289 9.5H65.9895C67.3016 9.5 68.3857 10.5198 68.485 11.807C68.4949 11.9029 68.5 12.0007 68.5 12.1V20C68.5 20.0298 68.4974 20.059 68.4924 20.0874V59.8802C68.6047 61.3687 67.4693 62.5 66.0896 62.5H6.00289C4.62584 62.5 3.5 61.3768 3.5 60V12ZM6.1 10.5C5.17614 10.5 4.5 11.1761 4.5 12.1V19.5H67.4924V12C67.4924 11.9655 67.4912 11.9312 67.4889 11.8972C67.3976 11.0789 66.7548 10.5 65.9 10.5H6.1ZM67.4924 20.5H4.5V60C4.5 60.8232 5.17676 61.5 6.00289 61.5H66.0896C66.9065 61.5 67.5693 60.8423 67.4941 59.9416C67.493 59.9278 67.4924 59.9139 67.4924 59.9V20.5Z" fill="#001E2B"/>
<path fill-rule="evenodd" clip-rule="evenodd" d="M50 50.5H36V49.5H50V50.5Z" fill="#001E2B"/>
<path fill-rule="evenodd" clip-rule="evenodd" d="M31.3504 39.6112L21.6549 30.3618L22.3451 29.6382L32.0527 38.8992C32.6492 39.4927 32.6491 40.5072 32.0527 41.1007L32.0452 41.1081L22.3451 50.3618L21.6549 49.6382L31.3504 40.3888C31.5499 40.1865 31.5499 39.8135 31.3504 39.6112Z" fill="#001E2B"/>
</svg>
