<?xml version="1.0" encoding="UTF-8"?>
<!DOCTYPE svg PUBLIC "-//W3C//DTD SVG 1.1//EN" "http://www.w3.org/Graphics/SVG/1.1/DTD/svg11.dtd">
<svg version="1.1" xmlns="http://www.w3.org/2000/svg" xmlns:xlink="http://www.w3.org/1999/xlink" x="0" y="0" width="640" height="100" viewBox="0, 0, 640, 100">
  <g id="Layer_1">
    <g>
      <text transform="matrix(1, 0, 0, 1, 41.5, 17.5)">
        <tspan x="-36.5" y="7.5" font-family="Inconsolata" font-size="24" fill="#004571">UPDATE</tspan>
      </text>
      <text transform="matrix(1, 0, 0, 1, 116.5, 17.5)">
        <tspan x="-30.5" y="7.5" font-family="Inconsolata" font-size="24" fill="#3299CC">users </tspan>
      </text>
      <text transform="matrix(1, 0, 0, 1, 23.5, 47.5)">
        <tspan x="-18.5" y="7.5" font-family="Inconsolata" font-size="24" fill="#004571">SET</tspan>
      </text>
      <text transform="matrix(1, 0, 0, 1, 200.5, 47.5)">
        <tspan x="-114.5" y="7.5" font-family="Inconsolata" font-size="24" fill="#3299CC">status = 'reject' </tspan>
      </text>
      <text transform="matrix(1, 0, 0, 1, 35.5, 77.5)">
        <tspan x="-30.5" y="7.5" font-family="Inconsolata" font-size="24" fill="#004069">WHERE</tspan>
      </text>
      <text transform="matrix(1, 0, 0, 1, 134.5, 77.5)">
        <tspan x="-48.5" y="7.5" font-family="Inconsolata" font-size="24" fill="#3299CC">age &lt; 18</tspan>
      </text>
    </g>
    <g id="table">
      <g>
        <path d="M470,19.6 L330,19.4" fill-opacity="0" stroke="#6CB340" stroke-width="2"/>
        <path d="M330,12 L329.965,27 L320,19.408 L330,12 z" fill="#6CB340"/>
      </g>
      <text transform="matrix(1, 0, 0, 1, 503.996, 17.5)">
        <tspan x="-23.996" y="7.5" font-family="GillSans" font-size="24" fill="#3299CC">table</tspan>
      </text>
    </g>
    <g id="action">
      <text transform="matrix(1, 0, 0, 1, 546.441, 49.5)">
        <tspan x="-66.441" y="7.5" font-family="GillSans" font-size="24" fill="#3299CC">update action</tspan>
      </text>
      <g>
        <path d="M470,49.9 L330,49.7" fill-opacity="0" stroke="#6CB340" stroke-width="2"/>
        <path d="M330,42 L329.965,57 L320,49.408 L330,42 z" fill="#6CB340"/>
      </g>
    </g>
    <g id="filter">
      <text transform="matrix(1, 0, 0, 1, 539.943, 79.5)">
        <tspan x="-59.943" y="7.5" font-family="GillSans" font-size="24" fill="#3299CC">update filter</tspan>
      </text>
      <g>
        <path d="M470,79.6 L330,79.4" fill-opacity="0" stroke="#6CB340" stroke-width="2"/>
        <path d="M330,72 L329.965,87 L320,79.408 L330,72 z" fill="#6CB340"/>
      </g>
    </g>
  </g>
</svg>
