<?xml version="1.0" encoding="UTF-8"?>
<!DOCTYPE svg PUBLIC "-//W3C//DTD SVG 1.1//EN" "http://www.w3.org/Graphics/SVG/1.1/DTD/svg11.dtd">
<svg version="1.1" xmlns="http://www.w3.org/2000/svg" xmlns:xlink="http://www.w3.org/1999/xlink" x="0px" y="0px" width="440" height="540" viewBox="0, 0, 440, 540">
  <g id="Layer 1">
    <g>
      <text transform="matrix(1, 0, 0, 1, 204.793, 48.539)">
        <tspan x="-185.621" y="2.461" font-family="Inconsolata" font-size="18" fill="#13206F"> db.orders.distinct( "cust_id" ) </tspan>
      </text>
      <text transform="matrix(1, 0, 0, 1, 81.801, 16.277)">
        <tspan x="-35" y="4.5" font-family="Inconsolata" font-size="14" fill="#2A86C0">Collection</tspan>
      </text>
      <text transform="matrix(1, 0, 0, 1, 91.801, 523.695)">
        <tspan x="-27" y="5.5" font-family="Inconsolata" font-size="18" fill="#13206F">orders</tspan>
      </text>
      <g>
        <path d="M197.754,296.445 L279.862,296.445" fill-opacity="0" stroke="#358EC4" stroke-width="4"/>
        <path d="M279.862,301.245 L292.662,296.445 L279.862,291.645 z" fill="#358EC4" fill-opacity="1" stroke="#358EC4" stroke-width="4" stroke-opacity="1"/>
      </g>
      <text transform="matrix(1, 0, 0, 1, 239.025, 306.297)">
        <tspan x="-38.537" y="5.5" font-family="Inconsolata" font-size="18" fill="#2A86C0">distinct</tspan>
      </text>
      <path d="M11.676,82.945 L183.916,82.945 L183.916,509.945 L11.676,509.945 z" fill-opacity="0" stroke="#13206F" stroke-width="1"/>
      <text transform="matrix(1, 0, 0, 1, 93.801, 133.945)">
        <tspan x="-66.5" y="-28.5" font-family="Inconsolata" font-size="14" fill="#25337C">{ </tspan>
        <tspan x="-66.5" y="-12.5" font-family="GillSansMT" font-size="14" fill="#13206F">    </tspan>
        <tspan x="-50.941" y="-12.5" font-family="Inconsolata" font-size="14" fill="#13206F">cust_id: "A123",</tspan>
        <tspan x="-66.5" y="4.5" font-family="GillSansMT" font-size="14" fill="#13206F">    </tspan>
        <tspan x="-50.941" y="4.5" font-family="Inconsolata" font-size="14" fill="#13206F">amount: 500,</tspan>
        <tspan x="-66.5" y="21.5" font-family="GillSansMT" font-size="14" fill="#13206F">    </tspan>
        <tspan x="-50.941" y="21.5" font-family="Inconsolata" font-size="14" fill="#13206F">status: "A"</tspan>
        <tspan x="-66.5" y="37.5" font-family="Inconsolata" font-size="14" fill="#25337C">}</tspan>
      </text>
      <path d="M11.676,189.77 L184.176,189.793" fill-opacity="0" stroke="#25337C" stroke-width="1"/>
      <text transform="matrix(1, 0, 0, 1, 93.801, 241.081)">
        <tspan x="-66.5" y="-28.5" font-family="Inconsolata" font-size="14" fill="#25337C">{ </tspan>
        <tspan x="-66.5" y="-12.5" font-family="GillSansMT" font-size="14" fill="#13206F">    </tspan>
        <tspan x="-50.941" y="-12.5" font-family="Inconsolata" font-size="14" fill="#13206F">cust_id: "A123",</tspan>
        <tspan x="-66.5" y="4.5" font-family="GillSansMT" font-size="14" fill="#13206F">    </tspan>
        <tspan x="-50.941" y="4.5" font-family="Inconsolata" font-size="14" fill="#13206F">amount: 250,</tspan>
        <tspan x="-66.5" y="21.5" font-family="GillSansMT" font-size="14" fill="#13206F">    </tspan>
        <tspan x="-50.941" y="21.5" font-family="Inconsolata" font-size="14" fill="#13206F">status: "A"</tspan>
        <tspan x="-66.5" y="37.5" font-family="Inconsolata" font-size="14" fill="#25337C">}</tspan>
      </text>
      <path d="M11.676,295.68 L184.176,295.703" fill-opacity="0" stroke="#25337C" stroke-width="1"/>
      <text transform="matrix(1, 0, 0, 1, 93.801, 346.945)">
        <tspan x="-66.5" y="-28.5" font-family="Inconsolata" font-size="14" fill="#25337C">{ </tspan>
        <tspan x="-66.5" y="-12.5" font-family="GillSansMT" font-size="14" fill="#13206F">    </tspan>
        <tspan x="-50.941" y="-12.5" font-family="Inconsolata" font-size="14" fill="#13206F">cust_id: "B212",</tspan>
        <tspan x="-66.5" y="4.5" font-family="GillSansMT" font-size="14" fill="#13206F">    </tspan>
        <tspan x="-50.941" y="4.5" font-family="Inconsolata" font-size="14" fill="#13206F">amount: 200,</tspan>
        <tspan x="-66.5" y="21.5" font-family="GillSansMT" font-size="14" fill="#13206F">    </tspan>
        <tspan x="-50.941" y="21.5" font-family="Inconsolata" font-size="14" fill="#13206F">status: "A"</tspan>
        <tspan x="-66.5" y="37.5" font-family="Inconsolata" font-size="14" fill="#25337C">}</tspan>
      </text>
      <path d="M11.504,402.312 L184.004,402.336" fill-opacity="0" stroke="#25337C" stroke-width="1"/>
      <text transform="matrix(1, 0, 0, 1, 93.801, 454.75)">
        <tspan x="-66.5" y="-28.5" font-family="Inconsolata" font-size="14" fill="#25337C">{ </tspan>
        <tspan x="-66.5" y="-12.5" font-family="GillSansMT" font-size="14" fill="#13206F">    </tspan>
        <tspan x="-50.941" y="-12.5" font-family="Inconsolata" font-size="14" fill="#13206F">cust_id: "A123",</tspan>
        <tspan x="-66.5" y="4.5" font-family="GillSansMT" font-size="14" fill="#13206F">    </tspan>
        <tspan x="-50.941" y="4.5" font-family="Inconsolata" font-size="14" fill="#13206F">amount: 300,</tspan>
        <tspan x="-66.5" y="21.5" font-family="GillSansMT" font-size="14" fill="#13206F">    </tspan>
        <tspan x="-50.941" y="21.5" font-family="Inconsolata" font-size="14" fill="#13206F">status: "D"</tspan>
        <tspan x="-66.5" y="37.5" font-family="Inconsolata" font-size="14" fill="#25337C">}</tspan>
      </text>
      <text transform="matrix(1, 0, 0, 1, 373.701, 299.225)">
        <tspan x="-66.5" y="1.945" font-family="Inconsolata" font-size="14" fill="#25337C">[ </tspan>
        <tspan x="-52.5" y="1.945" font-family="Inconsolata" font-size="14" fill="#13206F">"A123", "B212" ]</tspan>
      </text>
      <g>
        <path d="M78.879,22.277 L78.879,28.277" fill-opacity="0" stroke="#358EC4" stroke-width="1"/>
        <path d="M75.879,28.277 L78.879,36.277 L81.879,28.277 z" fill="#358EC4" fill-opacity="1" stroke="#358EC4" stroke-width="1" stroke-opacity="1"/>
      </g>
    </g>
  </g>
  <defs/>
</svg>
