<?xml version="1.0" encoding="UTF-8"?>
<!DOCTYPE svg PUBLIC "-//W3C//DTD SVG 1.1//EN" "http://www.w3.org/Graphics/SVG/1.1/DTD/svg11.dtd">
<svg version="1.1" xmlns="http://www.w3.org/2000/svg" xmlns:xlink="http://www.w3.org/1999/xlink" x="0" y="0" width="600" height="297" viewBox="0, 0, 600, 297">
  <g id="Layer_1">
    <path d="M-1,-1 L601,-1 L601,298 L-1,298 z" fill="#FFFFFF" id="canvas_background" display="none"/>
    <g>
      <g id="svg_39" opacity="0.25">
        <path d="M492.037,53.58 L490.642,54.823 L491.706,55.772 L492.037,56.066 L492.037,53.58 z M492.037,56.688 L489.944,57.342 L491.706,58.258 L492.037,56.688 z M484.035,57.636 L482.97,61.692 L485.063,59.207 L484.035,57.636 z M511.6,62.935 L510.903,67.58 L507.416,70.066 L507.416,71.636 L505.654,77.23 L508.444,78.8 L507.746,81.58 L509.839,81.58 L507.746,81.907 L507.049,84.393 L510.206,83.445 L509.141,85.636 L512.665,84.393 L510.573,82.823 L512.665,82.202 L510.573,81.907 L512.298,81.58 L510.573,80.337 L512.298,80.337 L510.206,78.473 L511.967,78.178 L511.6,76.314 L511.27,73.501 L514.39,65.421 L511.6,62.935 z M458.195,64.473 L458.195,66.337 L456.433,66.337 L457.13,68.202 L458.525,67.907 L460.287,67.58 L458.525,69.15 L462.379,70.393 L465.169,66.664 L463.076,65.094 L461.315,66.337 L460.984,64.473 L460.617,66.959 L458.525,65.094 L458.195,64.473 z M455.038,66.664 L455.038,71.636 L453.313,67.58 L452.615,69.772 L450.854,68.202 L452.615,67.286 L449.459,68.202 L450.854,74.449 L453.643,71.964 L453.643,73.501 L454.708,72.585 L455.735,73.828 L451.221,75.365 L451.551,76.935 L455.038,75.987 L452.248,77.23 L454.01,78.178 L451.221,77.557 L452.946,80.043 L454.708,82.202 L457.497,73.828 L458.525,73.207 L460.287,72.585 L458.525,70.721 L458.525,70.688 L456.8,68.529 L456.102,69.772 L455.038,66.664 z M460.287,72.879 L458.525,73.501 L459.589,74.744 L460.287,72.879 z M461.682,74.449 L459.589,75.365 L459.589,78.178 L461.315,77.557 L461.682,79.094 L463.076,77.23 L461.682,74.449 z M512.665,85.015 L510.206,85.636 L508.444,87.206 L509.875,87.828 L508.444,89.365 L510.573,88.744 L509.508,93.716 L511.27,94.959 L513.362,93.421 L516.482,96.202 L521.731,93.716 L514.757,90.935 L512.665,88.122 L512.665,85.015 z M539.533,91.851 L529.402,94.043 L529.402,95.907 L533.256,97.772 L531.862,99.342 L532.559,100.879 L529.402,99.015 L528.375,102.449 L525.218,104.314 L525.218,106.178 L522.428,107.421 L521.364,104.608 L522.428,103.071 L521.364,103.692 L520.667,107.716 L519.639,106.473 L515.087,112.099 L516.849,113.015 L514.39,114.258 L515.454,117.365 L512.665,118.608 L509.508,116.744 L511.967,113.964 L510.903,112.721 L503.562,112.099 L506.352,113.342 L510.903,123.907 L506.021,122.337 L503.929,125.772 L502.865,127.963 L502.644,128.749 L503.929,130.449 L505.654,132.608 L504.626,132.608 L500.772,132.608 L500.075,133.851 L500.772,132.314 L496.955,131.692 L496.588,133.851 L500.772,135.094 L500.075,137.907 L493.101,135.716 L490.642,131.692 L491.339,129.206 L486.825,128.258 L488.219,127.342 L483.668,124.529 L500.075,126.099 L501.47,123.907 L503.232,120.178 L498.79,117.169 L498.68,117.071 L497.983,116.449 L487.852,113.342 L484.732,113.636 L484.035,115.828 L484.365,113.342 L481.943,113.636 L481.245,112.099 L483.338,112.099 L481.245,111.15 L479.851,113.342 L477.722,112.099 L476.694,113.342 L474.932,111.772 L474.235,111.15 L477.391,111.15 L478.786,109.286 L474.602,107.716 L472.84,109.907 L473.904,107.421 L472.143,106.8 L471.445,109.907 L470.417,110.529 L470.417,107.716 L468.325,112.099 L469.023,108.337 L466.93,107.716 L465.169,112.721 L461.718,110.791 L462.049,112.721 L462.746,113.964 L460.984,112.721 L458.525,115.828 L458.195,116.122 L458.525,115.501 L459.222,112.721 L458.525,113.964 L457.828,115.501 L457.828,113.636 L456.433,114.585 L457.497,116.449 L455.038,115.206 L454.01,118.935 L451.551,119.557 L454.341,120.178 L451.221,120.178 L451.221,122.959 L450.523,120.8 L448.761,121.716 L450.156,122.337 L448.064,122.337 L449.826,123.907 L446.669,125.15 L448.761,126.066 L444.577,126.721 L445.605,127.342 L443.182,130.122 L445.605,129.828 L442.118,130.744 L443.182,131.987 L442.118,131.365 L440.393,134.473 L442.485,134.473 L438.3,136.043 L440.393,135.716 L438.3,136.959 L439.328,138.202 L437.603,138.823 L437.236,137.286 L433.052,141.342 L435.144,141.963 L437.933,139.772 L436.539,142.879 L433.749,143.206 L433.419,141.636 L430.592,142.258 L430.262,145.071 L428.5,143.828 L429.895,145.692 L426.408,143.828 L428.867,145.365 L424.316,145.071 L426.078,147.851 L425.013,146.608 L424.316,147.557 L422.921,146.935 L423.618,147.851 L420.829,146.608 L420.829,147.851 L424.683,148.8 L420.829,148.178 L419.801,149.421 L421.893,150.337 L419.434,150.043 L421.196,150.664 L419.801,151.907 L423.288,151.907 L423.986,150.959 L425.38,152.529 L426.408,150.959 L426.408,152.202 L424.316,153.772 L423.618,152.202 L419.104,151.907 L420.499,153.15 L418.737,153.15 L419.434,154.393 L420.829,153.772 L418.737,155.342 L419.104,156.585 L420.499,155.342 L419.104,157.828 L423.986,155.636 L418.039,159.365 L418.737,160.608 L421.526,159.692 L419.104,161.557 L421.196,162.178 L420.131,163.094 L418.406,161.851 L418.039,164.043 L421.196,167.445 L424.683,167.445 L429.198,163.094 L431.657,163.716 L433.052,159.692 L433.309,164.763 L433.235,164.763 L433.419,167.477 L434.74,167.216 C434.74,167.216 434.519,168.188 434.373,168.819 L434.116,169.636 L434.85,168.655 C435.153,168.254 435.438,167.837 435.437,167.837 L434.483,170.52 L434.446,170.585 L437.199,176.375 L435.841,177.487 L435.511,177.716 L435.511,177.749 L436.172,182.393 L440.429,182.753 L442.448,179.024 L446.045,179.58 L448.798,173.071 L448.651,171.501 L448.615,171.206 L448.431,168.132 L448.945,168.066 L449.826,168.066 L448.725,167.576 L447.88,167.15 L448.798,166.987 L451.551,166.529 L451.661,165.973 L451.991,164.861 L452.615,166.529 L453.533,165.711 L455.075,164.468 L454.965,164.403 L455.038,164.337 L454.23,163.912 L454.084,163.814 L454.047,163.814 L453.386,163.389 L453.533,163.291 L453.68,163.225 L453.937,163.062 L456.102,161.851 L454.451,159.496 L454.304,159.267 L453.35,157.828 L450.89,157.174 L452.615,146.085 L453.46,146.739 L454.01,147.23 L458.452,143.861 L458.525,143.795 L460.287,142.258 L460.323,142.16 L462.379,139.15 L462.342,139.085 L461.388,134.898 L461.975,135.225 L462.049,135.258 L462.746,135.716 L462.599,134.571 L462.416,132.968 L462.856,133.197 L464.104,133.884 L464.104,133.851 L464.141,133.851 L464.178,133.622 L464.214,133.524 L464.214,133.459 L464.581,131.987 L468.656,132.314 L471.115,136.043 L461.351,147.197 L461.315,147.23 L463.076,153.477 L462.379,157.828 L465.536,159.692 L465.793,159.529 L465.829,159.496 L465.866,159.463 L466.894,158.875 L466.82,159.463 L466.563,161.557 L466.637,161.524 L481.576,155.963 L481.943,157.828 L486.825,159.071 L480.878,160.608 L480.548,162.375 L480.548,162.407 L477.391,162.178 L476.767,162.113 L476.731,162.113 L474.235,161.851 L469.243,163.945 L468.215,164.37 L469.316,168.753 L471.812,168.819 L471.445,173.823 L470.564,174.51 L469.5,175.132 L467.885,173.496 L467.775,173.365 L466.233,171.501 L463.443,172.744 L463.186,173.398 L463.076,173.594 L463.003,173.791 L461.204,177.716 L461.865,182.099 L462.122,183.538 L462.379,185.501 L460.287,185.501 L461.865,182.099 L460.287,184.879 L458.525,185.501 L458.525,187.071 L459.92,186.744 L458.635,187.66 L458.598,187.66 L458.378,187.66 L458.341,187.823 L456.433,188.935 L458.195,187.071 L454.708,188.314 L451.918,185.828 L441.42,189.23 L441.09,191.421 L436.208,187.071 L429.198,188.608 L430.262,186.449 L427.105,186.449 L425.38,183.636 L426.408,179.58 L431.29,176.473 L428.867,174.935 L431.29,170.258 L424.683,172.449 L421.526,183.636 L422.921,183.342 L423.618,185.206 L422.224,185.828 L425.711,190.178 L422.224,187.987 L421.196,190.473 L419.801,188.608 L417.012,188.608 L417.709,190.473 L412.79,188.935 L410.698,190.178 L411.763,192.664 L409.671,193.58 L408.606,190.178 L405.119,194.529 L406.881,196.099 L402.697,196.099 L405.119,197.636 L396.053,197.963 L395.356,201.365 L393.961,201.692 L388.382,203.851 L382.766,200.122 L382.766,205.716 L378.251,205.094 L377.554,202.935 L371.277,202.935 L373.002,204.8 L371.277,204.178 L371.277,206.664 L377.554,210.099 L378.251,215.365 L380.343,216.935 L378.948,219.716 L379.279,220.37 L374.397,229.692 L354.833,222.856 L353.108,220.664 L346.134,221.613 L347.529,225.963 L342.977,235.286 L338.096,240.258 L340.188,240.258 L338.426,242.122 L340.555,243.071 L339.858,243.071 L337.031,248.664 L345.437,250.529 L348.557,257.987 L354.503,256.449 L363.569,259.557 L367.423,256.744 L370.543,257.071 L372.305,253.963 L374.397,253.342 L375.792,253.015 L375.094,252.099 L374.067,250.856 L375.094,248.043 L376.159,247.421 L381.371,243.365 L390.804,241.501 L390.804,236.856 L392.896,234.959 L396.053,234.337 L403.724,238.393 L414.883,233.421 L420.131,236.529 L422.591,244.314 L440.393,257.071 L442.485,262.664 L439.695,266.393 L441.42,267.015 L443.88,262.959 L446.669,262.043 L443.88,258.608 L445.605,255.501 L449.459,256.122 L451.551,258.608 L452.248,257.071 L441.787,250.202 L442.815,248.337 L437.236,247.094 L433.419,239.636 L428.867,236.234 L428.5,230.314 L433.749,229.071 L434.153,230.543 L434.813,233.912 L437.566,231.59 L442.485,240.552 L445.898,241.141 L448.945,243.529 L449.239,244.118 L453.79,245.982 L456.763,248.959 L455.332,255.795 L457.864,258.445 L458.525,259.23 L458.525,259.001 L461.498,262.566 L463.297,262.141 L461.828,263.22 L463.297,265.347 L472.363,266.066 L471.041,266.917 L464.471,266.132 L463.443,267.604 L465.829,272.576 L467.848,271.431 L469.316,274.342 L469.977,272.379 L472.363,273.949 L470.527,268.912 L473.794,269.435 L471.555,267.277 L473.868,266.393 L475.96,268.062 L476.107,265.87 L469.39,262.959 L471.335,262.01 L471.188,260.44 L472.73,260.963 L469.39,255.206 L470.895,254.585 L475.116,257.463 L474.235,255.599 L476.914,256.253 L473.868,253.604 L479.814,252.132 L483.741,252.819 L483.741,252.786 L486.825,253.342 L484.365,256.449 L489.614,251.477 L495.524,250.856 L491.413,246.506 L489.614,244.576 L488.293,244.87 L492.44,239.277 L492.587,235.711 L492.734,232.342 L493.358,233.258 L493.431,233.421 L495.891,232.178 L495.193,227.501 L495.744,228.482 L495.744,228.515 L495.891,228.744 L496.368,227.926 L498.35,225.963 L499.047,223.477 L503.232,221.286 L505.324,222.856 L501.47,223.15 L503.562,223.477 L502.865,224.393 L509.839,223.772 L510.206,225.342 L506.352,228.122 L508.811,227.501 L510.206,231.557 L512.665,231.851 L521.731,225.342 L517.547,226.585 L515.454,226.585 L512.995,224.393 L515.087,220.992 L514.757,223.15 L517.547,219.716 L528.705,214.122 L527.31,217.557 L524.154,218.178 L526.613,219.749 L524.851,224.393 L521.731,226.258 L536.376,231.23 L543.02,233.094 L544.598,235.515 L544.782,235.515 L547.425,235.122 L549.627,235.515 L551.682,234.73 L553.004,234.468 L558.326,234.337 L560.822,235.515 L562.29,235.515 L564.199,236.692 L568.2,237.608 L569.227,237.347 L570.549,236.823 L574.807,236.692 L577.523,237.674 L576.899,234.337 L579.688,231.851 L575.834,231.851 L566.071,225.636 L563.979,220.337 L563.612,222.234 L559.097,218.178 L559.427,212.258 L563.979,210.099 L564.309,206.043 L569.191,201.071 L570.549,200.646 L570.549,199.566 L569.374,198.258 L568.053,197.211 L567.466,194.954 L566.585,191.945 L561.262,187.889 L560.088,184.585 L560.088,183.146 L562.584,181.052 L564.492,179.875 L566.438,178.435 L569.081,176.604 L572.457,175.557 L575.541,174.903 L577.302,173.954 L579.982,173.823 L581.01,172.777 L582.037,172.515 L582.478,173.431 L584.093,173.692 L585.708,172.646 L586.295,173.3 L586.479,172.417 L584.9,169.636 L586.479,172.384 L586.736,171.076 L588.204,171.337 L589.966,169.767 L590.737,168.851 L589.525,166.496 L588.791,166.104 L587.91,167.02 L586.736,166.496 L585.414,167.15 L584.827,166.627 L583.506,166.496 L583.652,165.319 L579.542,164.272 L577.743,164.141 L577.156,163.618 L577.156,163.062 L575.981,162.015 L575.541,157.305 L574.807,156.389 L573.192,156.258 L572.164,157.043 L570.989,159.267 L569.961,160.837 L568.787,160.837 L568.2,161.23 L563.171,159.136 L561.85,157.959 L562.29,156.65 L565.704,153.772 L566.585,151.253 L565.704,149.552 L564.346,149.029 L561.85,149.029 L560.381,147.982 L560.088,144.842 L560.822,143.01 L557.885,136.043 L555.977,131.463 L553.775,127.898 L552.563,126.851 L552.563,125.543 L552.857,125.02 L544.341,114.52 L546.103,108.206 L547.425,101.272 L546.69,96.136 L545.956,95.744 L541.368,92.538 L538.505,92.178 L539.533,91.851 z M524.521,93.716 L525.585,95.58 L525.915,95.58 L528.705,95.58 L528.375,94.337 L528.008,94.043 L527.31,94.043 L524.521,93.716 z M372.672,104.935 L371.607,108.043 L371.277,105.557 L369.846,107.716 L368.818,106.178 L368.451,107.716 L367.056,106.8 L371.607,110.202 L369.148,110.202 L370.213,111.772 L365.661,109.58 L368.818,114.879 L364.633,115.501 L367.753,116.744 L369.148,119.23 L370.543,121.716 L375.094,122.043 L380.343,122.337 L384.528,120.8 L383.83,119.557 L385.555,120.178 L385.225,114.258 L387.317,113.636 L384.858,113.964 L384.528,111.445 L382.766,113.015 L379.976,111.15 L378.581,113.342 L378.948,110.529 L376.489,111.772 L376.159,110.202 L375.792,109.286 L371.974,112.099 L374.067,108.664 L372.672,104.935 z M512.298,104.935 L511.6,107.421 L513.693,108.337 L515.087,105.851 L512.298,104.935 z M524.154,106.8 L522.428,110.823 L528.008,119.851 L531.862,117.692 L532.889,112.393 L532.192,117.987 L528.008,119.851 L522.061,110.823 L524.154,106.8 z M538.138,106.8 L538.505,107.421 L538.469,107.421 L538.138,106.8 z M453.643,114.585 L452.248,117.071 L454.708,115.206 L453.643,114.585 z M475.629,114.585 L474.932,117.365 L472.51,117.365 L475.629,114.585 z M449.128,117.071 L447.367,118.608 L448.394,119.23 L449.128,117.071 z M449.826,117.365 L448.394,120.473 L450.156,119.23 L449.826,117.365 z M485.063,118.314 L486.127,122.043 L484.732,122.959 L485.063,118.314 z M471.115,121.094 L474.932,121.094 L474.235,122.337 L471.115,121.094 z M482.97,128.879 L483.668,130.449 L481.943,129.828 L482.97,128.879 z M509.178,135.421 L511.967,138.202 L521.034,140.72 L521.034,141.015 L511.967,138.202 L509.178,135.716 L509.178,135.421 z M474.602,137.907 L478.089,139.772 L474.932,139.477 L474.602,137.907 z M493.101,138.823 L496.258,140.393 L494.496,140.393 L495.193,143.206 L493.101,138.823 z M551.756,138.823 L555.573,142.879 L554.876,144.744 L555.5,145.104 L555.573,145.071 L556.014,145.365 L556.638,145.692 L558.399,145.071 L557.335,145.987 L559.427,147.557 L556.014,145.365 L555.5,145.104 L553.481,145.692 L554.876,143.828 L552.784,143.828 L553.481,141.636 L551.756,138.823 z M491.706,141.015 L493.101,142.258 L491.339,142.258 L491.706,141.015 z M475.299,142.585 L481.245,147.851 L478.419,146.314 L478.786,148.8 L482.273,148.8 L481.943,146.608 L483.668,147.23 L483.668,150.174 L483.448,150.534 L480.181,153.15 L481.686,153.445 L481.612,153.543 L479.116,154.099 L477.391,151.907 L479.484,152.529 L481.576,150.664 L477.024,147.851 L477.722,145.692 L475.299,142.585 z M494.863,143.501 L498.35,145.071 L501.47,150.664 L500.442,152.529 L497.653,152.202 L499.378,151.286 L495.193,148.473 L493.431,145.365 L495.891,147.557 L494.496,144.744 L496.955,147.23 L497.983,145.987 L494.863,143.501 z M473.207,145.071 L473.904,148.473 L474.235,145.987 L475.629,147.23 L474.602,145.692 L476.327,146.314 L473.207,150.664 L473.207,154.099 L475.299,153.15 L474.602,155.636 L472.143,153.15 L473.537,148.8 L473.207,146.314 L471.812,145.692 L473.207,145.071 z M482.273,149.094 L480.878,149.716 L481.943,150.664 L482.64,149.094 L482.273,149.094 z M467.958,149.716 L470.748,149.716 L470.748,151.286 L468.325,151.907 L468.325,154.099 L470.748,151.907 L469.023,154.393 L470.417,155.636 L468.325,154.099 L468.325,154.393 L467.958,149.716 z M486.825,150.337 L493.101,154.72 L489.614,159.071 L484.365,153.15 L486.825,150.337 z M557.005,150.664 L557.702,151.286 L554.876,154.72 L557.005,150.664 z M506.352,153.772 L507.049,154.72 L504.957,155.015 L506.352,153.772 z M385.922,155.636 L382.766,157.501 L382.435,158.449 L384.161,158.122 L385.922,155.636 z M389.409,156.258 L387.684,159.987 L385.555,159.071 L385.225,162.8 L382.435,163.716 L385.555,164.959 L380.674,170.585 L383.133,168.72 L385.225,167.477 L385.555,169.342 L384.528,168.72 L381.738,173.365 L382.068,174.608 L382.435,173.692 L388.015,174.608 L385.225,176.473 L385.922,178.959 L387.317,178.337 L385.225,181.477 L386.289,182.72 L381.371,181.772 L378.948,183.342 L381.371,183.342 L381.041,185.206 L375.461,187.071 L380.674,191.094 L384.528,190.178 L381.371,192.337 L377.554,191.094 L370.91,194.823 L377.884,196.099 L379.279,194.202 L390.474,197.015 L395.686,196.393 L396.053,195.477 L392.566,193.907 L394.658,193.907 L398.475,190.473 L397.778,187.987 L393.961,187.071 L393.594,187.071 L394.658,184.258 L394.658,183.963 L394.291,183.342 L392.566,182.72 L394.988,183.015 L395.356,181.477 L392.566,178.337 L392.199,171.206 L387.684,168.72 L391.502,169.342 L389.409,168.099 L392.199,167.772 L396.053,163.716 L388.712,161.851 L394.658,157.828 L389.409,156.258 z M509.508,158.449 L507.746,159.692 L509.141,159.987 L512.298,161.557 L511.27,164.337 L506.352,161.851 L509.508,162.178 L507.049,159.365 L509.508,158.449 z M383.133,159.365 L383.463,162.8 L384.161,161.557 L383.133,159.365 z M525.915,161.557 L526.282,167.477 L524.154,163.094 L525.915,161.557 z M550.691,162.178 L551.389,163.094 L552.453,162.178 L546.507,169.015 L546.507,170.258 L546.177,172.122 L547.902,173.365 L549.994,171.501 L549.297,174.935 L552.086,174.608 L549.297,176.8 L549.994,175.557 L545.81,173.071 L546.507,167.772 L545.112,166.529 L540.23,164.959 L536.376,165.286 L533.734,166.954 L531.862,168.393 L531.605,168.328 L531.495,168.393 L527.31,166.856 L531.605,168.328 L533.734,166.954 L536.376,164.959 L540.561,164.664 L545.112,166.529 L546.177,167.15 L545.81,165.58 L547.571,166.202 L550.691,163.716 L550.691,162.178 z M439.328,163.094 L442.118,163.421 L441.09,166.202 L436.539,167.772 L437.236,164.959 L439.328,165.286 L439.328,163.094 z M382.766,164.664 L381.041,165.907 L383.133,165.907 L382.766,164.664 z M480.181,164.959 L480.181,167.772 L478.089,165.58 L480.181,164.959 z M465.536,165.58 L464.471,165.907 L465.536,167.15 L467.261,166.202 L465.536,165.58 z M490.642,165.907 L492.404,167.15 L489.614,167.477 L490.642,165.907 z M579.321,167.772 L581.413,169.015 L580.019,170.258 L579.321,167.772 z M463.774,168.099 L464.471,170.879 L467.958,168.099 L463.774,168.099 z M374.397,168.72 L370.91,170.258 L373.002,171.206 L370.91,172.744 L366.359,170.879 L367.056,173.365 L364.266,174.314 L367.753,176.8 L363.239,178.664 L367.056,179.58 L361.146,179.286 L362.872,180.529 L360.449,181.15 L362.872,182.099 L360.449,182.393 L362.872,182.72 L361.146,183.636 L367.423,183.963 L373.369,184.258 L376.489,175.851 L379.976,174.935 L379.646,170.585 L375.792,170.585 L377.554,169.963 L376.489,168.72 L374.764,170.258 L374.397,168.72 z M455.735,170.879 L452.946,172.744 L453.313,175.23 L455.735,170.879 z M426.078,172.744 L428.5,173.365 L426.408,173.692 L426.775,175.557 L426.078,173.987 L424.316,174.935 L426.078,172.744 z M435.144,178.664 L434.116,180.856 L433.419,178.959 L430.592,179.907 L433.052,186.122 L433.052,183.963 L435.841,181.15 L435.144,178.664 z M427.803,180.529 L427.105,182.393 L429.565,183.015 L429.565,180.529 L427.803,180.529 z M546.507,184.879 L544.415,188.379 L545.075,191.225 L545.149,191.454 L547.902,193.286 L545.81,194.856 L545.81,195.15 L545.112,202.935 L545.479,195.15 L545.81,192.959 L545.149,191.454 L545.112,191.421 L545.075,191.225 L544.084,188.935 L544.415,188.379 L544.415,188.314 L546.507,184.879 z M438.631,186.449 L436.906,187.365 L438.631,187.987 L438.631,186.449 z M524.521,191.094 L524.888,191.716 L525.218,192.664 L524.851,191.716 L524.521,191.094 z M553.848,192.043 L553.151,192.37 L552.086,192.664 L553.151,192.337 L553.848,192.043 z M540.23,199.501 L542.323,200.744 L542.323,203.23 L541.625,208.529 L538.469,210.099 L538.138,207.907 L540.23,207.907 L539.533,204.8 L541.295,204.473 L541.992,201.692 L540.23,199.501 z M498.68,206.664 L497.653,206.992 L495.56,206.992 L494.496,207.286 L495.56,206.959 L497.653,206.959 L498.68,206.664 z M387.684,207.286 L386.987,208.529 L386.987,209.15 L386.62,209.772 L386.95,209.15 L386.95,208.529 L387.684,207.286 z M493.431,207.286 L492.734,207.613 L490.642,207.613 L489.614,207.907 L490.642,207.58 L492.734,207.58 L493.431,207.286 z M498.68,207.58 L511.6,211.963 L513.362,211.015 L514.757,216.608 L510.206,217.557 L509.508,220.337 L505.654,222.202 L508.811,220.337 L509.508,216.935 L513.362,216.314 L513.362,212.879 L498.68,207.58 z M487.522,207.907 L486.825,208.234 L484.732,208.234 L483.668,208.529 L484.732,208.202 L486.825,208.202 L487.522,207.907 z M386.62,210.393 L386.289,211.015 L386.289,211.963 L385.555,213.206 L386.253,211.963 L386.253,211.015 L386.62,210.393 z M564.676,234.337 L567.098,234.959 L563.979,235.286 L564.676,234.337 z M416.277,240.585 L412.46,243.071 L413.488,247.421 L416.277,244.935 L416.277,240.585 z M414.552,248.664 L410.001,249.613 L409.671,258.935 L414.883,257.987 L416.277,252.393 L414.552,248.664 z M389.079,250.234 L385.225,251.15 L387.317,253.015 L389.776,251.772 L389.079,250.234 z M472.51,262.043 L470.748,262.664 L477.391,266.393 L476.327,263.613 L472.51,262.043 z M460.984,264.856 L459.92,266.099 L462.012,266.393 L460.984,264.856 z M439.695,265.15 L426.078,265.477 L426.775,267.636 L436.539,272.314 L439.695,265.15 z M474.602,277.613 L474.602,279.477 L479.851,280.393 L486.127,279.772 L486.825,278.234 L484.365,279.477 L474.602,277.613 z M434.189,277.646 L434.593,278.889 L436.025,279.02 L435.878,277.777 L434.189,277.646 z" fill="#003399" id="svg_17"/>
      </g>
      <g id="svg_398" opacity="0.3">
        <g id="svg_232">
          <path d="M222.426,266.685 L224.491,268.147 L226.06,263.786 L224.491,263.569 L228.252,258.166 L221.972,257.949 L212.553,260.661 L210.982,265.652 L207.222,268.777 L203.755,268.364 L194.04,270.665 L190.573,268.777 L187.434,268.994 L178.014,259.207 L177.72,257.536 L177.393,251.699 L177.72,249.399 L179.585,248.792 L178.962,250.028 L180.532,247.121 L179.29,243.15 L177.72,242.954 L179.29,242.954 L180.206,240.242 L183.673,239.2 L182.429,238.376 L185.242,238.571 L184.294,238.983 L189.004,237.117 L189.331,235.034 L191.522,235.446 L190.279,236.076 L194.335,234.817 L200.942,235.034 L202.838,233.992 L207.222,236.076 L208.792,235.034 L210.361,235.663 L209.74,234.209 L211.605,234.405 L213.502,236.076 L215.071,235.034 L211.931,234.209 L213.828,232.951 L211.931,232.734 L208.792,232.322 L218.211,231.085 L218.538,229.609 L219.454,230.868 L218.538,231.497 L222.593,229.826 L221.972,230.651 L226.06,229.826 L224.818,230.238 L228.58,230.043 L229.201,230.868 L230.149,231.909 L233.289,230.455 L234.532,229.826 L236.102,230.043 L236.724,230.238 L241.76,232.951 L241.76,236.076 L243.33,235.663 L242.709,237.334 L244.279,238.788 L245.848,238.376 L247.712,241.5 L250.853,242.108 L250.853,243.584 L253.077,242.954 L253.077,243.584 L253.992,237.746 L247.091,228.568 L244.279,225.031 L247.091,221.277 L246.143,220.452 L247.419,221.081 L249.283,219.193 L253.077,215.244 L260.926,209.819 L258.408,210.036 L259.977,208.778 L257.787,208.582 L261.221,208.365 L262.497,207.128 L261.548,206.087 L261.221,207.324 L260.926,206.282 L258.408,206.911 L259.977,205.458 L261.548,205.87 L260.272,204.004 L262.79,206.499 L259.977,203.374 L255.889,202.962 L258.081,203.157 L256.217,201.921 L257.787,202.745 L258.081,201.487 L257.787,201.4 L257.787,200.445 L253.371,199.837 L253.371,198.796 L257.459,200.033 L254.646,196.496 L257.133,195.042 L256.217,197.537 L259.977,199.837 L259.651,202.745 L261.221,197.95 L258.081,194.196 L261.221,196.083 L262.79,192.959 L261.221,190.875 L262.79,188.575 L269.398,186.08 L268.777,184.409 L270.019,185.451 L273.78,183.78 L272.832,182.738 L272.537,183.997 L269.07,182.543 L269.398,177.747 L270.641,177.335 L270.019,176.293 L272.21,176.293 L271.916,173.581 L272.537,174.84 L273.78,173.364 L275.056,173.993 L277.247,171.498 L275.677,170.456 L278.196,170.456 L282.578,166.073 L281.957,168.156 L283.2,167.744 L286.34,166.702 L285.097,168.373 L283.2,167.744 L280.387,171.715 L281.63,173.993 L284.148,174.406 L285.391,169.827 L287.615,169.632 L286.961,168.785 L292.325,165.248 L293.241,164.424 L291.704,164.163 L294.189,161.711 L294.517,161.299 L293.895,161.082 L292.62,160.865 L292.62,163.165 L291.671,163.577 L292.325,161.082 L290.755,158.999 L289.807,162.948 L291.573,164.142 L289.48,163.794 L286.045,165.661 L280.681,165.031 L278.817,162.948 L277.247,163.577 L277.247,160.865 L275.35,162.124 L274.401,161.299 L271.589,161.907 L275.677,160.453 L277.247,158.587 L275.056,156.699 L270.641,157.74 L266.552,161.082 L261.221,169.002 L263.118,165.031 L262.169,163.577 L267.206,158.37 L267.5,155.874 L267.828,154.833 L284.148,149.212 L284.475,149.212 L284.77,145.241 L288.237,143.158 L289.186,140.034 L286.961,139.621 L288.532,138.992 L286.045,139.426 L287.615,138.797 L286.045,138.58 L285.719,136.713 L282.906,136.084 L281.957,137.95 L281.009,136.301 L278.196,136.496 L275.972,140.034 L277.542,136.713 L275.677,138.384 L278.817,134.826 L276.626,135.043 L276.626,134.413 L274.729,135.455 L273.78,134.63 L273.486,135.455 L273.159,134.63 L273.093,135.086 L271.916,135.672 L271.916,134.826 L271.589,135.26 L270.641,136.496 L269.398,134.001 L269.398,135.043 L268.777,134.218 L265.931,134.63 L266.257,133.589 L264.688,134.218 L265.31,133.589 L263.739,133.589 L264.688,132.959 L262.169,133.176 L264.361,132.742 L263.739,131.289 L260.272,131.093 L261.221,130.247 L259.03,129.835 L258.702,129.01 L257.459,130.247 L257.787,128.381 L256.217,129.618 L256.511,127.969 L255.268,127.122 L253.371,127.752 L254.32,126.927 L249.61,125.451 L249.61,124.627 L248.366,124.627 L248.661,126.71 L250.558,127.535 L249.283,128.381 L250.558,128.576 L249.61,129.835 L251.179,131.289 L248.989,129.835 L248.04,133.176 L246.143,131.701 L245.848,133.784 L244.9,131.289 L240.517,132.547 L240.812,131.506 L242.087,131.918 L241.76,130.247 L240.517,130.659 L239.242,128.793 L236.724,129.205 L239.242,128.381 L237.378,125.451 L237.05,126.493 L232.668,126.298 L232.014,125.039 L230.444,125.451 L225.734,123.585 L224.818,125.039 L217.884,124.844 L216.969,126.081 L219.454,127.969 L219.159,130.464 L220.729,130.052 L222.593,132.33 L221.678,137.126 L226.388,138.384 L230.444,142.963 L230.444,142.551 L232.34,143.592 L230.444,143.788 L230.444,142.963 L229.201,146.912 L224.491,150.037 L227.303,151.079 L231.719,156.699 L230.444,158.587 L232.014,160.257 L229.822,158.999 L229.201,160.865 L228.58,160.865 L226.682,160.865 L226.388,159.411 L219.78,156.286 L216.969,149.408 L209.118,150.254 L192.471,145.046 L187.139,146.717 L188.055,145.241 L185.242,141.075 L182.724,141.075 L182.724,142.117 L180.86,140.251 L180.532,135.672 L183.673,131.701 L182.724,131.093 L186.485,128.793 L184.916,128.164 L187.434,128.164 L188.709,126.927 L185.864,125.451 L184.621,126.081 L184.916,125.256 L181.154,125.039 L181.154,123.998 L188.383,126.081 L189.331,123.802 L193.419,123.368 L194.989,120.244 L186.191,118.594 L188.383,118.16 L193.714,119.636 L195.905,116.924 L193.714,115.882 L199.994,116.511 L196.232,114.428 L198.75,114.211 L200.32,115.665 L202.838,111.911 L199.045,109.415 L200.942,108.591 L199.371,107.962 L199.994,106.92 L196.559,106.508 L197.475,105.878 L192.143,106.095 L194.989,109.003 L193.419,109.22 L193.419,113.582 L191.85,114.428 L188.709,109.22 L186.485,108.374 L185.864,111.716 L182.724,108.374 L184.621,107.962 L180.206,107.549 L180.532,106.703 L180.532,105.878 L182.103,106.095 L176.444,101.083 L173.631,104.62 L174.874,104.837 L174.58,106.92 L174.58,107.332 L179.585,108.591 L178.014,108.786 L177.72,110.457 L178.962,109.632 L179.585,110.869 L176.444,112.54 L177.065,115.253 L174.58,114.428 L175.496,111.911 L174.252,112.757 L174.58,111.911 L173.01,111.303 L170.492,111.716 L171.441,113.169 L173.01,112.952 L173.01,114.428 L170.492,112.54 L170.164,113.799 L167.973,113.994 L163.885,113.994 L161.694,112.345 L158.881,112.345 L156.984,109.828 L151.947,111.499 L154.171,112.128 L157.605,110.869 L152.895,113.169 L154.465,115.253 L154.171,116.077 L152.895,115.665 L153.843,117.553 L151.653,115.253 L152.895,114.623 L149.461,112.128 L145.994,112.952 L140.042,111.911 L140.335,110.674 L142.855,110.457 L141.611,108.786 L138.144,108.179 L134.056,105.878 L131.537,104.425 L126.828,104.837 L127.777,102.971 L128.103,102.537 L127.482,102.971 L124.964,104.62 L124.342,102.124 L123.688,100.258 L123.688,101.712 L122.444,101.712 L116.787,102.537 L119.633,101.083 L120.875,100.454 L118.684,100.888 L113.646,101.495 L111.782,101.3 L112.404,99.846 L108.937,100.454 L108.643,102.341 L104.554,97.763 L102.658,95.246 L102.035,94.638 L93.859,89.626 L93.237,88.389 L94.514,87.955 L92.616,86.913 L92.943,85.676 L90.719,85.871 L92.616,85.264 L92.943,84.418 L89.476,84.635 L87.906,83.593 L85.715,84.222 L86.009,83.788 L86.663,83.593 L83.818,82.964 L82.249,83.181 L76.916,83.788 L74.726,82.334 L72.207,82.747 L71.259,86.088 L69.394,87.347 L70.964,89.213 L69.067,90.255 L70.015,91.513 L68.74,90.255 L70.015,88.584 L67.825,91.296 L64.979,89.213 L66.549,87.759 L59.974,86.305 L59.974,88.801 L58.699,88.172 L56.835,90.038 L59.026,92.967 L59.974,92.555 L59.026,93.38 L62.166,93.38 L62.787,94.421 L60.596,94.421 L59.32,96.092 L57.456,96.504 L56.507,95.463 L53.368,95.68 L53.04,94.204 L44.57,95.875 L43.621,97.134 L44.57,97.958 L43.327,97.958 L43.621,98.587 L44.275,100.041 L42.706,99.412 L40.187,101.083 L43.621,102.537 L40.481,105.466 L37.996,105.661 L41.757,106.703 L41.757,107.332 L41.135,109.632 L44.275,108.374 L42.999,109.828 L46.14,110.262 L42.999,110.869 L39.86,113.169 L32.631,112.757 L31.716,112.757 L29.819,113.994 L28.249,112.128 L25.108,112.345 L25.436,113.582 L27.628,112.952 L27.006,113.799 L30.441,114.211 L30.767,114.428 L30.146,115.253 L43.621,114.211 L47.088,114.84 L50.85,113.994 L49.901,112.757 L51.176,111.911 L63.409,110.457 L65.927,111.303 L63.409,111.303 L64.03,113.169 L62.461,111.499 L59.974,111.303 L55.886,113.169 L57.456,113.994 L54.317,114.84 L59.026,115.47 L59.974,114.623 L59.648,115.47 L60.89,114.428 L62.166,115.665 L64.357,115.036 L64.357,113.386 L67.497,112.952 L65.927,113.994 L67.497,113.582 L66.876,114.428 L69.394,114.428 L67.825,114.84 L68.74,115.47 L67.497,115.47 L68.74,115.665 L67.825,116.511 L69.689,117.336 L69.394,119.007 L75.02,120.873 L75.674,122.956 L76.59,122.761 L78.159,122.544 L78.814,123.585 L77.244,123.998 L78.159,122.761 L76.295,123.585 L79.108,129.618 L80.678,129.618 L80.383,126.927 L81.3,128.381 L82.249,127.535 L81.005,129.618 L82.575,130.659 L85.093,126.927 L83.524,130.464 L84.439,131.289 L86.009,130.659 L84.145,131.918 L85.715,132.959 L84.439,132.959 L85.388,134.218 L84.439,133.176 L84.767,134.413 L83.196,134.63 L86.009,138.797 L82.87,140.251 L84.767,139.838 L86.663,139.426 L86.663,140.663 L84.439,143.592 L87.285,142.334 L89.149,140.663 L86.663,143.158 L87.58,143.788 L85.093,144.2 L84.439,145.046 L86.337,146.088 L84.439,146.5 L85.388,148.8 L88.234,147.325 L87.285,148.583 L88.855,149.212 L86.663,148.366 L88.234,151.708 L85.715,152.532 L87.285,152.12 L86.958,153.162 L90.098,152.337 L86.337,154.42 L86.337,155.657 L87.906,155.245 L85.715,155.874 L87.58,156.286 L85.388,156.503 L88.527,157.133 L85.715,157.133 L89.476,158.174 L88.234,158.174 L88.855,158.782 L91.373,158.37 L88.527,158.999 L89.803,160.04 L91.047,159.216 L90.098,160.04 L91.635,160.453 L91.373,160.67 L93.859,160.67 L91.668,161.907 L92.943,162.948 L94.186,162.341 L94.807,161.907 L94.807,162.536 L95.135,163.577 L93.565,163.99 L96.083,163.794 L95.135,165.878 L96.704,167.115 L94.807,171.91 L95.135,169.632 L92.616,171.086 L95.135,168.785 L89.476,166.919 L88.855,171.91 L90.098,171.91 L88.234,173.993 L90.098,174.406 L88.527,174.21 L81.954,184.409 L81.626,188.988 L79.108,191.917 L79.436,197.32 L81.005,200.662 L83.818,200.879 L83.818,202.962 L82.575,201.704 L82.249,203.57 L86.663,211.295 L86.009,213.161 L88.234,213.985 L93.565,216.069 L96.999,219.193 L101.087,230.238 L101.709,231.085 L107.694,236.076 L106.418,237.529 L107.694,238.571 L102.984,237.746 L108.643,241.696 L110.507,241.066 L114.268,244.191 L113.974,248.162 L121.497,252.741 L122.772,254.824 L125.257,254.195 L124.015,251.482 L120.254,250.245 L117.735,243.15 L113.025,238.788 L112.698,236.705 L106.418,230.868 L106.124,224.835 L113.025,227.743 L114.595,231.909 L115.544,234.405 L115.511,234.426 L114.595,235.034 L115.544,235.859 L115.544,234.47 L115.838,235.251 L119.926,238.983 L122.444,239.417 L122.118,241.066 L127.777,244.82 L126.533,246.491 L132.191,248.792 L132.191,250.245 L140.957,256.083 L144.097,260.661 L142.527,262.527 L143.803,263.157 L141.611,263.569 L142.527,264.827 L151.653,270.231 L158.881,271.489 L162.936,273.572 L167.973,274.614 L184.294,277.956 L194.989,276.285 L205.408,280.264 L207.344,275.666 L213.363,275.233 L213.232,274.095 L208.887,272.459 L210.399,272.117 L210.372,270.429 L218.82,269.55 L222.426,266.685 z" fill="#008080" id="svg_391"/>
          <g id="svg_311">
            <g id="svg_367">
              <path d="M84.767,139.838 L83.524,140.88 L84.145,141.292 L85.061,140.706 L84.767,139.838 z" fill="#008080" id="svg_390"/>
              <path d="M85.061,140.706 L83.819,141.704 L85.388,141.704 L85.061,140.706 z" fill="#008080" id="svg_389"/>
              <path d="M25.109,112.345 L22.428,112.54 L23.539,112.54 L23.867,113.17 L25.109,112.345 z" fill="#008080" id="svg_388"/>
              <path d="M22.428,112.54 L22.591,111.716 L19.451,111.303 L21.021,112.345 L22.296,113.17 L22.428,112.54 z" fill="#008080" id="svg_387"/>
              <path d="M43.622,98.587 L41.757,98.37 L41.43,99.217 L43.327,99.412 L43.622,98.587 z" fill="#008080" id="svg_386"/>
              <path d="M49.279,86.306 L47.71,86.913 L47.71,89.626 L49.607,90.038 L49.279,86.306 z" fill="#008080" id="svg_385"/>
              <path d="M38.291,96.917 L37.668,99.217 L39.239,99.217 L40.481,97.958 L38.291,96.917 z" fill="#008080" id="svg_384"/>
              <path d="M15.069,110.045 L13.858,111.043 L16.017,110.869 L15.069,110.045 z" fill="#008080" id="svg_383"/>
              <path d="M13.858,111.043 L13.662,111.043 L13.792,111.086 L13.858,111.043 z" fill="#008080" id="svg_382"/>
              <path d="M13.662,111.043 L11.602,110.457 L13.171,111.086 L13.662,111.043 z" fill="#008080" id="svg_381"/>
              <path d="M49.901,115.47 L48.658,116.511 L51.177,116.511 L49.901,115.47 z" fill="#008080" id="svg_380"/>
              <path d="M44.57,115.882 L43.327,116.294 L43.327,117.748 L44.276,117.748 L42.706,118.377 L46.761,118.377 L46.761,117.553 L47.415,118.377 L48.986,117.336 L48.037,116.077 L46.466,116.707 L46.761,115.882 L44.897,117.553 L44.57,115.882 z" fill="#008080" id="svg_379"/>
              <path d="M84.145,118.79 L82.87,120.678 L82.87,119.202 L84.145,118.79 z" fill="#008080" id="svg_378"/>
              <path d="M89.476,124.627 L88.528,127.535 L86.663,127.752 L88.855,125.885 L86.663,125.451 L88.528,125.668 L89.476,124.627 z" fill="#008080" id="svg_377"/>
              <path d="M79.73,129.835 L78.814,132.547 L79.73,131.506 L81.006,132.547 L80.057,130.659 L81.3,131.918 L82.249,131.289 L79.73,129.835 z" fill="#008080" id="svg_376"/>
              <path d="M83.197,130.247 L80.678,134.413 L82.87,133.784 L84.145,131.506 L83.197,130.247 z" fill="#008080" id="svg_375"/>
              <path d="M81.3,134.826 L79.436,137.755 L81.006,135.867 L81.3,134.826 z" fill="#008080" id="svg_374"/>
              <path d="M81.954,134.826 L81.3,136.714 L82.575,137.126 L83.819,135.867 L81.954,134.826 z" fill="#008080" id="svg_373"/>
              <path d="M81.3,136.909 L80.057,139.209 L81.3,139.621 L79.73,140.468 L81.006,141.704 L81.3,142.963 L82.575,141.292 L81.006,140.468 L82.87,140.663 L81.3,136.909 z" fill="#008080" id="svg_372"/>
              <path d="M77.539,143.788 L76.59,147.325 L78.488,151.079 L77.539,148.366 L79.109,147.954 L77.539,147.129 L81.3,144.829 L77.865,145.871 L79.436,144.829 L77.539,143.788 z" fill="#008080" id="svg_371"/>
              <path d="M86.009,148.995 L85.094,150.883 L85.716,150.666 L85.716,152.12 L86.009,148.995 z" fill="#008080" id="svg_370"/>
              <path d="M90.72,148.995 L94.186,149.212 L97.653,150.883 L95.43,151.079 L93.565,149.212 L90.72,150.037 L92.943,149.212 L90.72,148.995 z" fill="#008080" id="svg_369"/>
              <path d="M82.87,157.133 L83.197,158.37 L85.388,158.37 L83.197,159.411 L85.388,160.041 L85.716,160.453 L87.58,164.424 L90.425,164.207 L88.855,165.661 L93.86,167.549 L91.047,161.711 L90.425,160.453 L82.87,157.133 z" fill="#008080" id="svg_368"/>
            </g>
            <path d="M208.465,56.707 L207.222,57.749 L209.741,58.595 L209.119,59.224 L208.465,59.42 L212.88,61.72 L205.979,59.637 L208.17,61.72 L205.979,60.678 L204.703,63.391 L203.461,62.545 L205.031,60.461 L203.461,59.007 L201.89,60.266 L200.321,59.637 L199.994,62.957 L198.423,61.72 L199.372,59.637 L195.905,62.349 L199.045,63.586 L198.751,63.586 L195.284,63.803 L196.233,64.845 L198.751,63.998 L200.321,64.432 L196.559,65.257 L199.994,65.257 L199.045,65.886 L197.802,65.474 L196.233,65.886 L199.634,66.082 L200.943,66.516 L195.284,66.711 L199.372,68.165 L196.559,68.165 L197.181,69.206 L194.663,67.969 L193.092,69.423 L193.42,69.64 L196.854,70.248 L193.714,69.836 L192.766,70.248 L195.284,71.919 L193.714,71.919 L195.284,72.765 L193.714,72.331 L193.42,74.631 L194.663,75.26 L196.559,74.414 L197.802,77.127 L195.611,77.973 L194.335,81.098 L199.372,81.922 L201.89,80.664 L202.839,81.51 L199.994,82.334 L202.839,81.922 L198.423,83.376 L202.512,83.376 L201.564,84.418 L203.461,85.047 L205.979,84.83 L204.41,84.222 L206.6,84.222 L207.549,82.747 L210.689,82.334 L212.259,82.747 L220.108,84.222 L220.403,85.676 L221.024,84.83 L225.44,87.347 L228.874,87.955 L227.631,88.584 L228.874,88.389 L229.659,89.409 L229.822,90.472 L232.668,90.038 L230.15,87.955 L232.668,89.213 L234.238,88.172 L233.911,89.626 L235.153,88.584 L235.153,90.038 L235.807,89.213 L235.807,89.843 L237.378,89.43 L236.43,90.038 L240.191,90.667 L236.102,91.079 L234.532,92.338 L239.242,92.338 L241.433,91.079 L241.761,91.296 L243.658,93.597 L244.9,92.967 L245.522,93.792 L243.951,93.597 L246.471,94.833 L246.797,96.092 L248.989,95.875 L244.279,97.134 L246.797,96.917 L244.9,97.546 L246.143,99 L247.092,96.721 L247.092,97.329 L249.284,96.092 L246.471,99.412 L249.61,97.958 L247.092,100.041 L250.231,99.629 L249.284,100.888 L251.18,100.454 L251.507,98.587 L252.751,98.37 L251.18,102.341 L253.372,101.083 L252.423,102.754 L254.647,103.166 L254.941,101.3 L256.511,101.083 L254.941,103.383 L255.563,102.971 L257.133,104.425 L257.787,103.383 L257.46,104.62 L259.357,105.661 L259.357,103.383 L257.46,102.537 L262.17,103.578 L259.651,104.012 L261.221,103.795 L259.978,105.661 L262.17,104.425 L260.6,105.878 L261.843,105.466 L261.843,106.703 L263.413,105.878 L263.118,106.92 L264.688,106.291 L263.413,107.137 L265.31,106.508 L266.552,107.962 L266.552,106.703 L267.501,108.591 L269.693,108.179 L270.019,109.22 L270.968,108.374 L270.968,109.415 L271.262,108.591 L271.916,109.415 L272.832,109.22 L272.211,110.045 L273.781,109.003 L273.16,110.045 L275.057,109.22 L277.248,110.262 L279.112,107.137 L279.439,109.22 L279.766,107.745 L280.388,109.415 L280.681,108.179 L281.958,109.003 L281.63,107.745 L282.906,109.632 L282.579,107.962 L284.148,109.415 L283.822,108.179 L286.046,107.745 L282.906,107.745 L284.771,106.508 L282.906,106.508 L283.201,105.249 L281.63,105.878 L282.906,105.054 L281.337,105.054 L281.958,104.012 L280.681,104.425 L281.337,103.383 L280.388,103.795 L280.388,102.537 L277.248,102.341 L278.817,101.929 L276.299,101.929 L277.542,100.454 L275.678,99.846 L277.248,99.629 L275.057,99.412 L276.626,99 L275.35,99 L275.972,97.958 L274.108,98.175 L275.972,97.546 L274.108,96.917 L272.537,97.329 L273.486,96.092 L269.693,95.246 L271.262,94.638 L269.693,93.597 L269.398,93.38 L270.968,91.709 L267.828,90.038 L269.071,89.626 L270.019,90.884 L271.262,90.667 L269.693,90.038 L270.968,90.255 L271.262,88.584 L269.693,88.389 L270.968,87.542 L266.552,84.005 L266.258,82.551 L263.118,81.922 L265.931,81.922 L266.88,80.664 L265.637,80.056 L266.88,80.056 L266.552,76.931 L262.497,72.136 L262.17,71.723 L259.357,73.59 L260.272,75.673 L260.272,75.89 L259.978,76.085 L259.03,76.497 L258.408,74.414 L257.82,75.369 L258.408,73.373 L256.217,72.96 L257.787,75.434 L257.787,75.456 L257.133,76.497 L254.941,74.414 L256.217,74.002 L255.563,72.548 L252.751,74.414 L252.751,73.373 L250.853,73.59 L255.269,71.919 L259.978,72.136 L258.408,71.094 L260.272,71.506 L260.272,70.682 L257.46,70.682 L255.89,69.836 L255.563,70.248 L254.647,69.64 L254.647,70.465 L253.698,69.836 L250.559,70.465 L251.507,71.506 L250.559,71.094 L249.938,71.723 L250.231,70.465 L248.662,70.465 L249.284,71.723 L247.419,71.919 L247.419,70.053 L246.143,71.723 L246.143,70.682 L244.574,70.877 L246.471,70.465 L245.522,69.206 L243.004,69.423 L245.522,69.011 L244.279,68.599 L245.849,67.557 L244.9,68.599 L247.419,68.165 L247.092,66.516 L245.228,66.082 L243.951,66.711 L245.849,67.34 L243.658,67.34 L241.433,66.516 L243.33,65.474 L243.658,65.257 L242.709,64.628 L242.087,65.257 L241.433,65.669 L239.569,65.04 L238.62,66.082 L238.948,64.845 L236.724,65.669 L239.242,64.628 L239.569,64.432 L236.724,63.803 L236.43,63.998 L235.153,64.845 L234.532,63.586 L233.911,64.628 L231.393,64.628 L231.719,63.174 L231.719,62.132 L229.201,61.72 L228.253,62.545 L227.958,62.957 L227.631,62.349 L227.304,61.915 L226.388,62.132 L225.44,62.349 L227.009,63.174 L224.819,62.762 L221.352,61.091 L216.642,59.42 L217.263,60.461 L217.263,60.678 L215.693,60.461 L215.398,60.266 L214.123,58.378 L213.502,59.832 L213.502,60.266 L213.175,59.832 L212.554,57.749 L208.465,56.707 z" fill="#008080" id="svg_365"/>
            <g id="svg_332">
              <path d="M251.18,100.454 L249.61,101.3 L250.853,101.3 L250.853,102.341 L251.18,100.454 z" fill="#008080" id="svg_364"/>
              <path d="M246.471,94.833 L244.279,95.463 L243.658,96.917 L246.471,94.833 z" fill="#008080" id="svg_363"/>
              <path d="M238.294,63.174 L240.191,63.998 L240.517,63.174 L238.294,63.174 z" fill="#008080" id="svg_362"/>
              <path d="M243.658,65.669 L242.382,66.082 L243.004,66.711 L243.658,65.669 z" fill="#008080" id="svg_361"/>
              <path d="M189.004,68.382 L186.812,69.64 L187.14,68.794 L181.155,69.64 L179.911,70.465 L178.963,71.289 L181.155,72.548 L177.393,71.919 L176.772,72.765 L178.636,73.373 L176.15,72.96 L173.632,74.414 L175.496,74.414 L175.201,75.26 L177.066,74.631 L175.824,76.085 L179.29,74.848 L176.15,76.302 L178.014,76.931 L181.155,75.043 L179.29,76.302 L179.29,76.931 L180.86,75.89 L182.103,75.89 L181.481,76.714 L183.052,76.085 L183.345,75.456 L184.622,73.59 L183.999,75.26 L185.865,75.043 L183.673,76.085 L181.776,77.127 L184.916,78.798 L181.481,77.539 L178.963,77.539 L183.345,80.468 L184.916,80.251 L183.673,81.098 L184.916,81.705 L182.103,81.098 L180.533,81.705 L180.533,83.376 L181.776,82.552 L182.724,83.181 L182.724,81.922 L183.999,84.635 L185.865,82.964 L184.622,85.264 L180.206,84.222 L182.43,85.872 L179.585,87.759 L181.155,88.172 L180.86,87.13 L182.43,88.172 L182.103,87.347 L183.345,88.172 L183.052,87.347 L184.916,87.955 L185.57,86.913 L187.14,87.347 L186.486,86.501 L188.056,87.347 L187.14,86.306 L189.953,87.759 L190.901,87.347 L192.471,86.501 L191.85,85.047 L189.625,85.047 L187.434,85.264 L186.486,83.788 L189.004,84.222 L190.574,84.222 L189.953,82.552 L192.144,82.139 L190.574,81.705 L192.144,81.098 L190.279,80.881 L191.85,80.251 L187.434,79.839 L191.196,79.21 L187.434,79.014 L191.196,77.756 L189.625,77.127 L192.144,76.931 L191.85,75.89 L190.279,75.89 L191.85,75.456 L190.574,74.848 L191.85,75.043 L192.471,71.723 L189.953,73.373 L190.901,71.919 L188.71,71.919 L191.196,71.506 L191.85,70.053 L191.522,69.011 L189.004,68.382 z" fill="#008080" id="svg_360"/>
              <path d="M248.662,68.382 L248.662,69.64 L249.12,69.271 L248.662,70.053 L250.559,70.053 L252.751,69.206 L249.446,69.011 L250.231,68.382 L248.662,68.382 z" fill="#008080" id="svg_359"/>
              <path d="M248.04,68.599 L245.849,69.206 L246.471,70.248 L248.04,68.599 z" fill="#008080" id="svg_358"/>
              <path d="M172.683,75.26 L171.441,76.714 L173.011,77.539 L170.786,77.973 L172.683,79.014 L170.786,78.581 L170.786,79.21 L173.011,79.427 L172.357,80.881 L176.772,80.664 L173.305,81.51 L176.15,82.552 L174.875,82.964 L175.824,83.593 L178.636,83.593 L177.721,82.335 L179.29,83.376 L178.963,81.098 L179.911,82.139 L181.776,80.056 L180.533,79.21 L179.29,79.622 L178.014,77.344 L177.721,78.385 L172.683,75.26 z" fill="#008080" id="svg_357"/>
              <path d="M162.936,80.664 L163.264,82.139 L164.834,82.335 L163.59,83.593 L165.161,83.181 L167.973,84.222 L168.922,84.635 L167.973,82.747 L167.647,82.139 L162.936,80.664 z" fill="#008080" id="svg_356"/>
              <path d="M157.605,81.922 L155.087,82.964 L158.881,82.747 L157.605,81.922 z" fill="#008080" id="svg_355"/>
              <path d="M169.87,82.139 L170.165,84.222 L172.062,84.635 L173.011,83.181 L169.87,82.139 z" fill="#008080" id="svg_354"/>
              <path d="M154.466,83.788 L154.171,84.83 L156.362,85.459 L157.605,84.222 L154.466,83.788 z" fill="#008080" id="svg_353"/>
              <path d="M147.564,84.635 L146.322,85.264 L141.612,87.542 L144.097,87.13 L144.425,88.172 L144.751,88.389 L148.186,86.089 L148.186,87.542 L151.653,85.264 L150.082,84.635 L147.564,84.635 z" fill="#008080" id="svg_352"/>
              <path d="M174.253,84.83 L171.734,85.459 L174.875,85.676 L174.253,84.83 z" fill="#008080" id="svg_351"/>
              <path d="M177.066,85.264 L178.342,86.089 L178.636,85.264 L177.066,85.264 z" fill="#008080" id="svg_350"/>
              <path d="M157.933,87.13 L156.036,88.389 L156.984,90.884 L154.171,90.667 L151.031,87.347 L149.756,87.955 L151.031,88.389 L148.186,88.801 L150.377,88.996 L147.238,89.626 L149.756,89.626 L145.994,90.472 L148.186,91.513 L150.704,90.255 L150.377,91.513 L154.171,91.296 L149.461,92.338 L151.653,93.38 L156.984,92.121 L160.451,92.338 L161.367,90.038 L160.124,89.43 L159.502,90.667 L158.226,90.038 L157.933,87.13 z" fill="#008080" id="svg_349"/>
              <path d="M171.441,87.13 L173.305,89.213 L176.15,88.584 L178.014,92.338 L181.155,93.38 L182.724,92.121 L183.999,93.38 L189.332,92.555 L189.004,91.513 L191.522,92.338 L193.42,91.296 L194.041,90.667 L193.092,90.667 L192.471,90.667 L192.766,90.038 L192.766,89.213 L192.144,89.213 L189.953,88.801 L184.622,90.667 L181.481,90.038 L181.481,90.884 L179.911,89.43 L178.636,90.038 L179.585,89.213 L177.721,88.801 L180.533,88.584 L177.721,88.172 L178.342,87.759 L175.496,88.584 L174.875,87.13 L171.441,87.13 z" fill="#008080" id="svg_348"/>
              <path d="M147.564,87.955 L144.751,88.996 L146.322,88.996 L147.564,87.955 z" fill="#008080" id="svg_347"/>
              <path d="M169.544,87.955 L168.922,88.801 L167.973,88.584 L166.731,88.389 L167.973,90.038 L165.782,88.584 L166.731,90.472 L164.506,90.884 L167.973,90.667 L168.301,90.667 L167.973,91.079 L167.025,91.709 L167.973,92.75 L170.492,92.555 L171.441,91.513 L169.544,87.955 z" fill="#008080" id="svg_346"/>
              <path d="M174.58,90.667 L172.357,92.555 L176.445,93.38 L174.58,90.667 z" fill="#008080" id="svg_345"/>
              <path d="M135.953,91.296 L136.248,93.163 L129.673,97.134 L131.244,97.546 L131.865,100.454 L136.248,100.041 L137.524,98.587 L138.145,98.37 L146.943,95.463 L144.751,93.163 L142.527,93.597 L141.612,92.75 L140.336,91.513 L135.953,91.296 z" fill="#008080" id="svg_344"/>
              <path d="M237.673,92.555 L235.807,93.38 L236.429,93.792 L237.999,94.833 L239.569,94.009 L240.191,95.05 L241.433,93.38 L238.948,92.75 L237.673,92.555 z" fill="#008080" id="svg_343"/>
              <path d="M194.989,94.009 L194.041,94.204 L195.905,96.092 L196.233,96.092 L197.476,96.504 L201.89,95.463 L198.751,94.009 L194.989,94.009 z" fill="#008080" id="svg_342"/>
              <path d="M186.191,94.833 L183.345,97.134 L183.673,102.124 L188.383,102.341 L191.522,101.929 L189.004,100.041 L187.761,97.958 L188.71,94.833 L186.191,94.833 z" fill="#008080" id="svg_341"/>
              <path d="M181.155,95.246 L174.253,95.463 L175.496,101.083 L177.721,99.629 L176.445,98.804 L179.585,98.587 L181.155,95.246 z" fill="#008080" id="svg_340"/>
              <path d="M166.731,95.875 L167.352,97.134 L165.782,96.917 L167.973,97.546 L168.301,97.763 L167.973,98.37 L167.647,99 L164.834,97.958 L163.885,99.217 L167.973,102.124 L169.216,102.971 L170.786,102.754 L170.786,102.124 L172.683,101.929 L173.011,99 L170.165,98.175 L172.062,96.092 L167.973,95.875 L166.731,95.875 z" fill="#008080" id="svg_339"/>
              <path d="M147.892,96.092 L140.958,97.763 L139.093,99.629 L140.958,100.258 L139.715,100.888 L144.751,101.083 L139.093,101.712 L139.388,103.166 L145.668,103.578 L149.135,105.054 L139.093,104.837 L139.093,105.054 L139.715,106.92 L144.097,108.591 L144.425,110.262 L151.948,110.262 L156.657,108.179 L158.881,110.045 L164.834,109.828 L163.885,108.374 L162.315,109.633 L162.021,107.745 L163.59,108.374 L165.455,107.137 L166.403,107.962 L166.403,106.92 L166.403,106.508 L160.746,103.795 L160.451,98.587 L158.554,97.134 L156.362,97.329 L156.036,101.929 L153.844,97.763 L152.602,97.763 L153.517,99.412 L152.274,98.804 L151.653,99.629 L150.082,99.412 L151.653,98.37 L149.756,97.329 L146.615,98.37 L147.892,96.092 z" fill="#008080" id="svg_338"/>
              <path d="M158.881,96.092 L158.226,96.721 L160.746,98.175 L161.694,96.504 L158.881,96.092 z" fill="#008080" id="svg_337"/>
              <path d="M202.185,104.62 L201.269,105.054 L200.321,105.466 L201.564,105.466 L202.185,104.62 z" fill="#008080" id="svg_336"/>
              <path d="M171.441,107.332 L169.87,110.262 L174.253,111.499 L176.445,110.262 L171.441,107.332 z" fill="#008080" id="svg_335"/>
              <path d="M214.744,107.962 L213.175,108.374 L215.693,108.374 L214.744,107.962 z" fill="#008080" id="svg_334"/>
              <path d="M209.413,108.179 L210.689,111.303 L213.175,110.262 L212.554,108.374 L209.413,108.179 z" fill="#008080" id="svg_333"/>
            </g>
            <g id="svg_323">
              <path d="M193.092,94.421 L189.004,96.092 L191.196,96.721 L188.71,96.917 L191.196,97.546 L188.383,97.329 L191.85,99.629 L189.953,99 L189.004,99.846 L191.85,100.671 L192.144,102.754 L191.522,102.124 L184.622,103.166 L186.191,104.62 L188.056,105.249 L190.279,104.208 L191.522,105.662 L192.144,105.662 L198.423,105.054 L197.476,104.837 L195.611,104.208 L198.13,104.837 L199.994,105.466 L198.751,104.62 L198.13,104.425 L200.943,104.425 L203.133,104.208 L202.512,104.012 L200.943,103.166 L201.564,102.124 L204.082,103.795 L205.325,104.425 L205.652,103.578 L205.979,104.62 L207.549,104.208 L209.413,105.054 L208.792,106.92 L210.034,105.662 L212.88,106.703 L213.502,106.096 L218.833,109.22 L218.539,111.086 L220.403,110.869 L218.539,111.303 L217.263,113.387 L220.403,115.036 L216.642,116.511 L213.175,116.511 L213.502,119.636 L220.73,118.377 L219.454,116.924 L222.594,118.16 L222.3,117.119 L225.113,119.202 L228.58,119.202 L227.009,120.048 L228.58,120.678 L242.382,120.873 L232.34,117.553 L235.807,117.965 L234.238,116.924 L242.709,118.377 L238.948,115.47 L241.761,116.511 L239.863,114.623 L237.051,114.211 L237.999,113.582 L235.807,112.757 L235.153,113.799 L233.584,112.757 L234.238,113.799 L230.771,111.499 L229.822,112.54 L227.958,110.869 L230.444,110.457 L227.304,109.22 L229.528,108.591 L232.014,109.633 L232.014,108.591 L232.668,110.045 L233.911,108.179 L233.584,110.262 L239.242,111.499 L236.43,108.786 L238.948,109.22 L236.724,107.962 L238.948,107.745 L236.43,107.332 L238.62,106.703 L236.724,106.291 L237.999,105.662 L235.807,105.054 L235.807,106.508 L234.86,105.662 L233.584,106.703 L233.289,104.837 L233.289,106.291 L232.963,105.249 L231.719,106.508 L232.34,105.466 L230.771,105.662 L232.014,105.249 L229.822,104.425 L229.201,105.249 L229.201,105.466 L227.631,104.62 L228.253,105.662 L227.304,104.425 L227.304,105.466 L226.388,104.425 L226.061,105.054 L224.819,104.208 L223.542,104.837 L225.113,103.795 L220.108,104.012 L222.594,103.383 L221.024,102.537 L220.108,103.383 L221.024,102.341 L219.16,102.341 L223.249,101.929 L221.678,101.3 L217.263,102.341 L221.024,100.671 L220.403,100.041 L220.108,100.041 L218.211,99.412 L217.59,100.671 L217.59,100.041 L216.02,101.083 L217.59,99 L215.072,98.804 L214.45,100.041 L214.45,98.587 L213.829,101.495 L213.502,100.041 L212.554,100.671 L212.88,98.37 L211.31,100.258 L211.605,98.175 L209.119,97.546 L208.465,99.629 L207.222,97.546 L206.274,99.629 L205.979,98.175 L205.031,98.37 L205.979,96.917 L203.133,98.175 L203.756,96.092 L199.994,96.092 L199.045,97.134 L201.89,97.546 L199.045,97.763 L201.564,98.804 L197.181,97.329 L197.181,97.763 L196.559,99.217 L196.233,96.721 L193.092,94.421 z" fill="#008080" id="svg_331"/>
              <path d="M198.751,116.707 L199.994,117.553 L201.564,117.553 L198.751,116.707 z" fill="#008080" id="svg_330"/>
              <path d="M196.559,117.553 L197.476,123.173 L195.905,125.039 L199.045,124.215 L200.615,125.885 L204.082,122.131 L205.652,123.368 L209.119,123.585 L210.362,122.327 L208.17,121.502 L206.274,122.327 L205.979,120.678 L199.372,118.594 L198.751,119.419 L196.559,117.553 z" fill="#008080" id="svg_329"/>
              <path d="M245.522,120.873 L243.951,121.502 L245.522,121.914 L245.522,120.873 z" fill="#008080" id="svg_328"/>
              <path d="M216.02,122.544 L214.123,122.761 L215.693,123.585 L216.02,122.544 z" fill="#008080" id="svg_327"/>
              <path d="M208.17,125.451 L205.652,126.081 L204.082,127.535 L205.031,128.381 L208.17,125.451 z" fill="#008080" id="svg_326"/>
              <path d="M213.502,126.081 L213.829,128.381 L214.744,127.339 L213.502,126.081 z" fill="#008080" id="svg_325"/>
              <path d="M229.528,128.576 L230.444,129.423 L226.388,129.618 L229.528,128.576 z" fill="#008080" id="svg_324"/>
            </g>
            <g id="svg_317">
              <path d="M229.822,132.33 L230.15,132.33 L232.668,132.743 L229.201,132.96 L229.822,132.33 z" fill="#008080" id="svg_322"/>
              <path d="M233.911,138.384 L232.963,139.426 L234.238,139.621 L231.393,140.468 L233.911,138.384 z" fill="#008080" id="svg_321"/>
              <path d="M235.481,142.117 L235.807,142.117 L237.378,142.963 L235.153,142.963 L235.481,142.117 z" fill="#008080" id="svg_320"/>
              <path d="M222.921,143.592 L222.3,146.088 L223.87,145.241 L224.165,145.871 L224.165,145.241 L222.921,143.592 z" fill="#008080" id="svg_319"/>
              <path d="M222.594,155.05 L220.403,156.091 L224.491,156.503 L222.594,155.05 z" fill="#008080" id="svg_318"/>
            </g>
            <g id="svg_312">
              <path d="M290.102,141.509 L289.186,145.675 L290.428,147.759 L291.671,149.408 L290.428,150.037 L292.325,150.883 L290.756,150.883 L290.102,153.791 L292.62,152.532 L291.377,155.462 L292.62,156.091 L294.19,154.616 L298.605,153.791 L299.848,151.491 L300.469,153.379 L303.315,151.296 L302.039,154.616 L303.936,153.574 L304.231,150.037 L305.801,150.883 L306.749,152.966 L307.077,151.079 L308.319,152.749 L309.595,152.337 L308.319,149.212 L307.371,148.8 L306.749,150.037 L306.128,147.954 L306.128,150.254 L304.558,149.842 L304.885,148.995 L303.61,148.8 L304.885,146.912 L302.661,148.583 L301.746,145.458 L299.521,146.5 L298.605,145.675 L297.951,148.171 L297.33,146.5 L295.466,147.759 L295.466,145.675 L293.895,146.5 L293.569,146.283 L293.241,145.871 L293.241,146.5 L293.241,148.171 L292.948,146.717 L291.999,142.746 L290.428,142.334 L291.671,141.921 L290.102,141.509 z" fill="#008080" id="svg_316"/>
              <path d="M266.552,145.675 L268.777,146.5 L267.501,146.717 L266.552,145.675 z" fill="#008080" id="svg_315"/>
              <path d="M278.817,153.379 L273.781,154.42 L281.958,154.616 L281.958,153.791 L278.817,153.379 z" fill="#008080" id="svg_314"/>
              <path d="M287.91,162.124 L282.579,163.99 L281.009,162.341 L281.009,163.99 L286.34,164.424 L287.91,162.124 z" fill="#008080" id="svg_313"/>
            </g>
          </g>
          <g id="svg_233">
            <g id="svg_259">
              <g id="svg_298">
                <path d="M260.272,136.084 L260.927,136.909 L259.357,136.713 L260.272,136.084 z" fill="#FFFFFF" id="svg_310"/>
                <path d="M257.46,137.343 L258.408,138.167 L256.839,138.167 L257.46,137.343 z" fill="#FFFFFF" id="svg_309"/>
                <path d="M262.791,140.034 L265.931,141.704 L267.828,141.292 L265.637,142.551 L263.739,142.334 L263.118,143.788 L264.688,144.417 L263.413,144.634 L262.791,143.375 L258.408,142.117 L259.357,143.158 L256.839,140.88 L262.497,143.158 L263.413,142.551 L263.118,142.334 L264.688,141.704 L262.791,140.034 z" fill="#FFFFFF" id="svg_308"/>
                <path d="M249.938,144.2 L250.559,144.829 L248.989,145.675 L249.938,144.2 z" fill="#FFFFFF" id="svg_307"/>
                <path d="M256.217,146.088 L256.839,147.759 L255.269,147.954 L256.217,146.088 z" fill="#FFFFFF" id="svg_306"/>
                <path d="M260.272,151.708 L260.927,155.462 L258.506,153.596 L258.408,153.574 L258.441,153.531 L257.133,152.532 L260.272,151.708 z" fill="#FFFFFF" id="svg_305"/>
                <path d="M259.651,155.657 L261.549,157.545 L262.497,158.37 L260.927,157.74 L259.978,157.328 L259.651,155.657 z" fill="#FFFFFF" id="svg_304"/>
                <path d="M248.662,156.286 L246.797,161.082 L246.143,158.174 L248.662,156.286 z" fill="#FFFFFF" id="svg_303"/>
                <path d="M258.082,158.999 L260.927,160.257 L258.703,159.628 L257.133,161.082 L258.082,158.999 z" fill="#FFFFFF" id="svg_302"/>
                <path d="M238.62,159.628 L237.378,160.865 L236.43,159.823 L238.62,159.628 z" fill="#FFFFFF" id="svg_301"/>
                <path d="M243.004,160.04 L244.574,160.257 L243.951,161.494 L243.004,160.04 z" fill="#FFFFFF" id="svg_300"/>
                <path d="M237.051,162.124 L237.378,162.124 L238.294,163.165 L238.294,163.382 L236.724,164.424 L237.051,163.382 L237.051,162.124 z" fill="#FFFFFF" id="svg_299"/>
              </g>
              <g id="svg_260">
                <path d="M110.213,102.754 L107.989,106.095 L113.026,108.179 L113.647,111.499 L112.077,113.386 L117.114,117.119 L116.787,118.594 L116.787,117.119 L112.077,113.386 L113.353,111.716 L112.077,107.962 L108.643,107.332 L107.367,105.466 L110.213,102.754 z" fill="#FFFFFF" id="svg_297"/>
                <path d="M130.295,112.757 L130.622,112.757 L131.865,113.582 L129.347,114.211 L129.347,114.623 L131.865,115.253 L134.057,114.428 L132.486,117.336 L129.052,116.511 L128.725,117.965 L127.483,118.16 L124.637,118.79 L127.155,116.924 L123.067,118.16 L120.549,116.924 L124.342,115.665 L123.394,114.84 L126.534,115.253 L123.394,113.994 L119.633,114.428 L119.927,113.169 L130.295,112.757 z" fill="#FFFFFF" id="svg_296"/>
                <path d="M141.612,116.077 L142.855,116.077 L142.233,117.553 L141.612,116.077 z" fill="#FFFFFF" id="svg_295"/>
                <path d="M173.305,116.924 L173.305,117.119 L173.926,117.965 L172.357,118.377 L173.305,116.924 z" fill="#FFFFFF" id="svg_294"/>
                <path d="M145.373,118.16 L148.513,120.873 L147.892,121.719 L145.373,118.16 z" fill="#FFFFFF" id="svg_293"/>
                <path d="M139.094,118.377 L142.855,120.048 L142.527,120.873 L139.094,118.377 z" fill="#FFFFFF" id="svg_292"/>
                <path d="M170.786,118.79 L168.301,119.831 L167.973,119.831 L164.506,119.202 L167.973,119.007 L170.786,118.79 z" fill="#FFFFFF" id="svg_291"/>
                <path d="M144.425,122.327 L147.892,122.327 L145.046,122.956 L144.425,122.327 z" fill="#FFFFFF" id="svg_290"/>
                <path d="M143.181,122.761 L144.751,123.802 L141.906,123.368 L143.181,122.761 z" fill="#FFFFFF" id="svg_289"/>
                <path d="M173.926,122.761 L174.253,122.761 L171.113,123.998 L167.973,123.585 L166.403,123.173 L167.973,123.173 L173.926,122.761 z" fill="#FFFFFF" id="svg_288"/>
                <path d="M150.082,123.173 L152.602,124.844 L147.238,124.215 L150.082,123.173 z" fill="#FFFFFF" id="svg_287"/>
                <path d="M129.052,123.585 L129.968,125.039 L127.777,123.802 L129.052,123.585 z" fill="#FFFFFF" id="svg_286"/>
                <path d="M172.062,125.039 L174.253,125.039 L173.632,125.668 L172.062,125.039 z" fill="#FFFFFF" id="svg_285"/>
                <path d="M132.486,126.493 L137.524,129.618 L144.097,127.339 L147.892,128.164 L144.425,128.164 L145.994,128.381 L143.476,128.576 L145.668,128.576 L142.855,129.01 L135.332,132.547 L132.486,132.547 L126.829,130.464 L126.599,130.225 L121.497,129.618 L125.913,129.422 L126.599,130.225 L126.829,130.247 L126.829,130.464 L130.622,131.506 L132.192,129.835 L134.383,129.618 L132.486,126.493 z" fill="#FFFFFF" id="svg_284"/>
                <path d="M144.425,128.164 L142.233,128.164 L141.612,129.01 L144.425,128.164 z" fill="#FFFFFF" id="svg_283"/>
                <path d="M166.403,126.493 L165.455,129.01 L163.264,127.969 L166.403,126.493 z" fill="#FFFFFF" id="svg_282"/>
                <path d="M173.305,128.164 L174.253,129.835 L171.735,129.205 L173.305,128.164 z" fill="#FFFFFF" id="svg_281"/>
                <path d="M167.352,129.205 L167.973,130.247 L168.301,131.093 L167.973,130.876 L166.731,130.464 L167.352,129.205 z" fill="#FFFFFF" id="svg_280"/>
                <path d="M147.892,129.618 L145.668,132.135 L145.046,131.289 L147.892,129.618 z" fill="#FFFFFF" id="svg_279"/>
                <path d="M163.59,129.835 L164.834,129.835 L163.264,130.876 L163.59,129.835 z" fill="#FFFFFF" id="svg_278"/>
                <path d="M156.362,131.289 L156.984,132.135 L154.466,133.372 L156.362,131.289 z" fill="#FFFFFF" id="svg_277"/>
                <path d="M159.175,134.63 L157.605,136.301 L157.605,135.043 L159.175,134.63 z" fill="#FFFFFF" id="svg_276"/>
                <path d="M171.113,134.826 L169.216,136.496 L170.165,137.126 L168.595,136.909 L169.216,138.797 L167.973,138.167 L167.647,137.95 L167.973,137.126 L168.301,135.672 L171.113,134.826 z" fill="#FFFFFF" id="svg_275"/>
                <path d="M162.315,135.455 L162.936,137.755 L161.367,136.909 L162.315,135.455 z" fill="#FFFFFF" id="svg_274"/>
                <path d="M156.984,136.301 L157.605,137.755 L155.741,137.755 L156.984,136.301 z" fill="#FFFFFF" id="svg_273"/>
                <path d="M144.425,137.95 L152.895,139.426 L144.425,139.426 L140.042,141.075 L139.388,140.251 L139.094,140.251 L144.425,137.95 z" fill="#FFFFFF" id="svg_272"/>
                <path d="M102.985,141.292 L103.933,143.788 L108.316,144.634 L104.228,144.005 L104.554,146.912 L102.985,141.292 z" fill="#FFFFFF" id="svg_271"/>
                <path d="M160.451,142.117 L159.503,144.417 L157.933,144.417 L158.554,142.551 L160.451,142.117 z" fill="#FFFFFF" id="svg_270"/>
                <path d="M163.264,143.375 L162.642,147.129 L158.881,149.212 L159.503,147.325 L159.503,148.583 L161.072,147.759 L160.124,145.458 L163.264,143.375 z" fill="#FFFFFF" id="svg_269"/>
                <path d="M151.326,144.417 L151.948,145.458 L149.135,145.871 L151.326,144.417 z" fill="#FFFFFF" id="svg_268"/>
                <path d="M173.011,144.829 L172.683,146.717 L168.595,147.759 L171.113,146.912 L173.011,144.829 z" fill="#FFFFFF" id="svg_267"/>
                <path d="M144.425,146.717 L144.555,147.021 L145.994,148.171 L145.373,148.952 L145.373,148.995 L145.274,149.061 L143.804,150.883 L142.855,148.995 L144.097,149.842 L145.274,149.061 L145.373,148.952 L144.555,147.021 L144.425,146.912 L144.425,146.717 z" fill="#FFFFFF" id="svg_266"/>
                <path d="M166.731,149.842 L167.973,151.296 L166.077,151.079 L166.731,149.842 z" fill="#FFFFFF" id="svg_265"/>
                <path d="M173.632,155.245 L174.58,156.286 L179.585,165.465 L178.342,168.156 L178.014,164.207 L176.445,164.836 L175.496,162.536 L173.926,163.165 L171.113,160.257 L172.357,159.823 L172.683,159.628 L170.165,158.782 L171.113,157.133 L174.253,157.545 L173.632,155.245 z" fill="#FFFFFF" id="svg_264"/>
                <path d="M167.647,155.874 L167.647,157.328 L167.973,157.133 L169.216,156.699 L167.973,157.328 L167.973,158.37 L169.87,159.628 L167.973,159.216 L165.161,158.37 L167.025,157.957 L167.647,155.874 z" fill="#FFFFFF" id="svg_263"/>
                <path d="M164.834,159.411 L166.731,159.411 L167.973,159.823 L168.922,160.257 L168.595,164.424 L167.973,161.299 L167.973,160.453 L164.834,160.257 L164.834,159.411 z" fill="#FFFFFF" id="svg_262"/>
                <path d="M170.492,163.794 L173.632,168.785 L171.441,165.465 L169.544,164.619 L170.492,163.794 z" fill="#FFFFFF" id="svg_261"/>
              </g>
            </g>
            <g id="svg_234">
              <path d="M146.943,165.031 L148.186,165.878 L143.181,166.702 L146.322,166.073 L146.943,165.031 z" fill="#FFFFFF" id="svg_258"/>
              <path d="M248.04,165.248 L250.231,166.29 L247.092,166.073 L248.04,165.248 z" fill="#FFFFFF" id="svg_257"/>
              <path d="M194.335,166.507 L194.041,167.961 L191.85,168.373 L189.332,167.115 L192.144,167.744 L194.335,166.507 z" fill="#FFFFFF" id="svg_256"/>
              <path d="M204.41,166.919 L205.652,167.744 L205.652,167.961 L205.031,170.044 L202.512,168.785 L203.461,167.961 L204.41,166.919 z" fill="#FFFFFF" id="svg_255"/>
              <path d="M260.927,169.198 L254.746,175.295 L254.941,175.252 L250.559,179.418 L249.284,180.872 L250.559,182.543 L248.662,183.997 L239.242,185.668 L240.812,183.584 L247.092,182.326 L247.713,181.284 L245.522,181.697 L250.559,179.418 L254.746,175.295 L247.419,176.706 L254.647,175.252 L260.927,169.198 z" fill="#FFFFFF" id="svg_254"/>
              <path d="M185.243,169.415 L187.14,171.498 L184.622,171.498 L187.14,171.91 L183.345,172.952 L185.243,170.456 L183.345,170.673 L185.243,169.415 z" fill="#FFFFFF" id="svg_253"/>
              <path d="M243.951,169.827 L245.228,171.91 L243.33,171.086 L243.951,169.827 z" fill="#FFFFFF" id="svg_252"/>
              <path d="M205.652,171.086 L211.605,171.281 L214.123,173.581 L217.59,173.169 L219.781,177.747 L232.668,177.747 L236.102,179.83 L237.378,180.655 L236.724,181.697 L236.724,182.131 L233.584,182.131 L230.444,180.46 L232.668,182.326 L232.34,186.492 L230.444,187.946 L227.958,185.038 L224.491,186.492 L226.061,184.214 L224.819,181.284 L219.16,180.243 L218.211,183.78 L217.59,182.326 L215.693,184.214 L217.263,189.617 L217.263,189.834 L216.642,193.371 L214.123,194.63 L210.983,189.617 L211.931,184.409 L209.741,184.821 L212.259,180.655 L213.829,181.501 L216.969,179.418 L222.3,179.201 L220.73,177.964 L218.211,177.964 L218.211,177.118 L210.689,178.789 L208.792,177.747 L206.6,178.377 L205.652,176.923 L200.321,179.613 L198.423,179.613 L198.751,178.377 L194.663,179.201 L203.133,172.952 L204.703,173.169 L205.031,171.715 L205.031,172.952 L206.274,172.322 L205.652,171.086 z" fill="#FFFFFF" id="svg_251"/>
              <path d="M189.625,172.539 L192.766,174.406 L189.625,173.581 L189.625,172.539 z" fill="#FFFFFF" id="svg_250"/>
              <path d="M158.226,175.447 L159.503,176.706 L160.451,176.076 L160.451,177.335 L164.213,177.53 L159.797,177.53 L158.554,175.881 L155.415,175.664 L158.226,175.447 z" fill="#FFFFFF" id="svg_249"/>
              <path d="M235.807,175.881 L237.051,176.293 L234.86,176.489 L233.289,176.489 L234.86,176.076 L235.807,175.881 z" fill="#FFFFFF" id="svg_248"/>
              <path d="M147.564,176.076 L146.943,177.118 L146.615,176.293 L141.612,177.335 L140.958,176.489 L147.564,176.076 z" fill="#FFFFFF" id="svg_247"/>
              <path d="M165.782,180.46 L166.731,187.751 L163.59,186.904 L165.782,185.863 L165.782,180.46 z" fill="#FFFFFF" id="svg_246"/>
              <path d="M242.382,185.863 L242.087,187.534 L239.569,189.205 L234.238,192.546 L227.958,192.546 L229.822,189.205 L231.098,190.029 L229.201,190.658 L229.822,191.505 L233.584,189.205 L238.948,188.163 L237.673,188.163 L238.948,187.534 L242.382,185.863 z" fill="#FFFFFF" id="svg_245"/>
              <path d="M170.165,189.422 L173.305,192.329 L170.492,190.876 L170.165,189.422 z" fill="#FFFFFF" id="svg_244"/>
              <path d="M121.203,194.413 L123.688,197.125 L122.772,196.496 L122.118,197.754 L121.203,194.413 z" fill="#FFFFFF" id="svg_243"/>
              <path d="M127.777,207.541 L126.534,209.624 L123.067,210.253 L127.777,207.541 z" fill="#FFFFFF" id="svg_242"/>
              <path d="M111.783,210.253 L111.783,211.49 L112.698,211.295 L113.974,212.944 L112.698,211.49 L109.559,211.707 L111.783,210.253 z" fill="#FFFFFF" id="svg_241"/>
              <path d="M238.948,216.915 L239.863,217.74 L238.294,217.956 L238.948,216.915 z" fill="#FFFFFF" id="svg_240"/>
              <path d="M182.103,221.277 L182.103,222.123 L180.206,221.906 L182.103,221.277 z" fill="#FFFFFF" id="svg_239"/>
              <path d="M126.206,235.034 L128.104,235.663 L126.534,236.488 L126.206,235.034 z" fill="#FFFFFF" id="svg_238"/>
              <path d="M250.853,236.9 L251.18,238.571 L249.61,237.942 L250.853,236.9 z" fill="#FFFFFF" id="svg_237"/>
              <path d="M152.274,264.415 L154.466,264.415 L155.415,264.827 L152.274,264.415 z" fill="#FFFFFF" id="svg_236"/>
              <path d="M157.933,268.777 L161.694,269.818 L159.175,269.623 L159.503,270.665 L157.933,268.777 z" fill="#FFFFFF" id="svg_235"/>
            </g>
          </g>
        </g>
      </g>
    </g>
    <path d="M10.5,52 L310.5,52 L310.5,283 L10.5,283 z" fill-opacity="0" stroke="#000000" stroke-width="3" id="svg_89"/>
    <path d="M336.5,53 L590.5,53 L590.5,283 L336.5,283 z" fill-opacity="0" stroke="#000000" stroke-width="4" id="svg_1"/>
    <g id="NA">
      <path d="M35.504,127 L103.504,127 L103.504,146 L35.504,146 z" fill="#00BF00" id="svg_3"/>
      <text transform="matrix(1, 0, 0, 1, 69.686, 136)" id="svg_6">
        <tspan x="-22.183" y="4" font-family="Helvetica" font-size="12" fill="#FFFFFF">mongod</tspan>
      </text>
      <path d="M48.504,151 L116.504,151 L116.504,170 L48.504,170 z" fill="#00BF00" id="svg_21"/>
      <text transform="matrix(1, 0, 0, 1, 82.686, 160)" id="svg_22">
        <tspan x="-22.183" y="4" font-family="Helvetica" font-size="12" fill="#FFFFFF">mongod</tspan>
      </text>
      <path d="M35.504,175 L103.504,175 L103.504,194 L35.504,194 z" fill="#00BF00" id="svg_23"/>
      <text transform="matrix(1, 0, 0, 1, 69.686, 185)" id="svg_24">
        <tspan x="-22.183" y="4" font-family="Helvetica" font-size="12" fill="#FFFFFF">mongod</tspan>
      </text>
      <path d="M125.504,127 L193.504,127 L193.504,146 L125.504,146 z" fill="#00BF00" id="svg_25"/>
      <text transform="matrix(1, 0, 0, 1, 159.686, 136)" id="svg_26">
        <tspan x="-22.183" y="4" font-family="Helvetica" font-size="12" fill="#FFFFFF">mongod</tspan>
      </text>
      <path d="M138.504,151 L206.504,151 L206.504,170 L138.504,170 z" fill="#00BF00" id="svg_27"/>
      <text transform="matrix(1, 0, 0, 1, 172.686, 160)" id="svg_28">
        <tspan x="-22.183" y="4" font-family="Helvetica" font-size="12" fill="#FFFFFF">mongod</tspan>
      </text>
      <path d="M125.504,175 L193.504,175 L193.504,194 L125.504,194 z" fill="#00BF00" id="svg_29"/>
      <text transform="matrix(1, 0, 0, 1, 159.686, 185)" id="svg_30">
        <tspan x="-22.183" y="4" font-family="Helvetica" font-size="12" fill="#FFFFFF">mongod</tspan>
      </text>
      <path d="M214.504,127 L282.504,127 L282.504,146 L214.504,146 z" fill="#00BF00" id="svg_31"/>
      <text transform="matrix(1, 0, 0, 1, 248.686, 136)" id="svg_32">
        <tspan x="-22.183" y="4" font-family="Helvetica" font-size="12" fill="#FFFFFF">mongod</tspan>
      </text>
      <path d="M227.504,151 L295.504,151 L295.504,170 L227.504,170 z" fill="#00BF00" id="svg_33"/>
      <text transform="matrix(1, 0, 0, 1, 261.686, 160)" id="svg_34">
        <tspan x="-22.183" y="4" font-family="Helvetica" font-size="12" fill="#FFFFFF">mongod</tspan>
      </text>
      <path d="M214.504,175 L282.504,175 L282.504,194 L214.504,194 z" fill="#00BF00" id="svg_35"/>
      <text transform="matrix(1, 0, 0, 1, 248.686, 185)" id="svg_36">
        <tspan x="-22.183" y="4" font-family="Helvetica" font-size="12" fill="#FFFFFF">mongod</tspan>
      </text>
      <text transform="matrix(1, 0, 0, 1, 71.018, 114)" id="svg_61">
        <tspan x="-21.515" y="4" font-family="Helvetica" font-size="12" fill="#000000">Shard 1</tspan>
      </text>
      <text transform="matrix(1, 0, 0, 1, 161.682, 114)" id="svg_62">
        <tspan x="-23.179" y="4" font-family="Helvetica" font-size="12" fill="#000000">Shard ...</tspan>
      </text>
      <text transform="matrix(1, 0, 0, 1, 252.014, 114)" id="svg_63">
        <tspan x="-22.511" y="4" font-family="Helvetica" font-size="12" fill="#000000">Shard N</tspan>
      </text>
      <text transform="matrix(1, 0, 0, 1, 155.418, 221.5)" id="svg_64">
        <tspan x="-51.905" y="5.5" font-family="Helvetica-Bold" font-size="15" fill="#000000">North America</tspan>
      </text>
    </g>
    <g id="EU">
      <path d="M383.5,127 L451.5,127 L451.5,146 L383.5,146 z" fill="#00BF00" id="svg_66"/>
      <text transform="matrix(1, 0, 0, 1, 417.683, 136)" id="svg_67">
        <tspan x="-22.183" y="4" font-family="Helvetica" font-size="12" fill="#FFFFFF">mongod</tspan>
      </text>
      <path d="M396.5,151 L464.5,151 L464.5,170 L396.5,170 z" fill="#00BF00" id="svg_68"/>
      <text transform="matrix(1, 0, 0, 1, 430.683, 160)" id="svg_69">
        <tspan x="-22.183" y="4" font-family="Helvetica" font-size="12" fill="#FFFFFF">mongod</tspan>
      </text>
      <path d="M383.5,175 L451.5,175 L451.5,194 L383.5,194 z" fill="#00BF00" id="svg_70"/>
      <text transform="matrix(1, 0, 0, 1, 417.683, 185)" id="svg_71">
        <tspan x="-22.183" y="4" font-family="Helvetica" font-size="12" fill="#FFFFFF">mongod</tspan>
      </text>
      <path d="M472.5,127 L540.5,127 L540.5,146 L472.5,146 z" fill="#00BF00" id="svg_78"/>
      <text transform="matrix(1, 0, 0, 1, 506.683, 136)" id="svg_79">
        <tspan x="-22.183" y="4" font-family="Helvetica" font-size="12" fill="#FFFFFF">mongod</tspan>
      </text>
      <path d="M485.5,151 L553.5,151 L553.5,170 L485.5,170 z" fill="#00BF00" id="svg_80"/>
      <text transform="matrix(1, 0, 0, 1, 519.683, 160)" id="svg_81">
        <tspan x="-22.183" y="4" font-family="Helvetica" font-size="12" fill="#FFFFFF">mongod</tspan>
      </text>
      <path d="M472.5,175 L540.5,175 L540.5,194 L472.5,194 z" fill="#00BF00" id="svg_82"/>
      <text transform="matrix(1, 0, 0, 1, 506.683, 185)" id="svg_83">
        <tspan x="-22.183" y="4" font-family="Helvetica" font-size="12" fill="#FFFFFF">mongod</tspan>
      </text>
      <text transform="matrix(1, 0, 0, 1, 419.852, 114)" id="svg_84">
        <tspan x="-29.352" y="4" font-family="Helvetica" font-size="12" fill="#000000">Shard N+1</tspan>
      </text>
      <text transform="matrix(1, 0, 0, 1, 507.852, 114)" id="svg_86">
        <tspan x="-29.352" y="4" font-family="Helvetica" font-size="12" fill="#000000">Shard N+2</tspan>
      </text>
      <text transform="matrix(1, 0, 0, 1, 460.836, 221.5)" id="svg_87">
        <tspan x="-26.336" y="5.5" font-family="Helvetica-Bold" font-size="15" fill="#000000">Europe</tspan>
      </text>
    </g>
    <text transform="matrix(1, 0, 0, 1, 301.169, 23)" id="svg_90">
      <tspan x="-70.017" y="6" font-family="Helvetica-Bold" font-size="18" fill="#000000">Sharded Cluster</tspan>
    </text>
  </g>
</svg>
