<svg width="415" height="346" viewBox="0 0 415 346" fill="none" xmlns="http://www.w3.org/2000/svg">
<path d="M191.625 -164.5C226.608 -164.5 255 -136.108 255 -101.125C255 -65.5899 283.84 -36.75 319.375 -36.75H447.125C482.108 -36.75 510.5 -8.35786 510.5 26.625C510.5 61.6078 482.108 90 447.125 90H382.739C311.944 90 255 147.457 255 217.739V282.125C255 317.108 226.608 345.5 191.625 345.5C156.642 345.5 128.25 317.108 128.25 282.125C128.25 246.59 99.4101 217.75 63.875 217.75C28.8922 217.75 0.50008 189.358 0.5 154.375C0.5 119.392 28.8921 91 63.875 91C99.1388 91 127.292 62.6041 128.232 27.4639L128.25 26.6318V-101.125C128.25 -136.108 156.642 -164.5 191.625 -164.5Z" stroke="#00ED64"/>
</svg>
