<svg xmlns="http://www.w3.org/2000/svg" xmlns:xlink="http://www.w3.org/1999/xlink" xmlns:lucid="lucid" width="1301.5" height="1351.33"><g transform="translate(1520.5 801)" lucid:page-tab-id="twi-icpY4cYx"><path d="M-1806.87-1258.84H64v2581.68h-1870.87z" fill="#fff"/><path d="M-863.9-774a6 6 0 0 1 6-6H-246a6 6 0 0 1 6 6V523.33a6 6 0 0 1-6 6h-611.9a6 6 0 0 1-6-6z" fill="#fff"/><path d="M-860.62-779.35l.87-.36.92-.23.94-.07h3m4.03 0h6.02m4 0h6.03m4 0h6.03m4.02 0h6.02m4 0h6.03m4 0h6.03m4 0h6.03m4 0h6.03m4.02 0h6m4.03 0h6.03m4 0h6.03m4 0h6.03m4 0h6.02m4 0h6.03m4 0h6.03m4 0h6.03m4.02 0h6.02m4 0h6.03m4.02 0h6m4.02 0h6.02m4 0h6.03m4 0h6.03m4 0h6.03m4 0h6.03m4 0h6.03m4 0h6.02m4 0h6.03m4.02 0h6m4.03 0h6.02m4 0h6.03m4 0h6.03m4 0h6.03m4.02 0h6.02m4 0h6.03m4 0h6.03m4 0h6.03m4 0h6.03m4.02 0h6.02m4 0h6.03m4 0h6.03m4 0h6.03m4 0h6.02m4 0h6.03m4 0h6.03m4 0h6.03m4.02 0h6.02m4.02 0h6m4.03 0h6m4.02 0h6.02m4 0h6.03m4 0h6.03m4 0h6.03m4 0h6.03m4 0h6.03m4 0h6.02m4 0h6.03m4.02 0h6m4.03 0h6.02m4 0h6.03m4 0h6.03m4 0h3.02l.94.07.9.22.88.35m2.63 2.63l.36.87.23.9.07.95v3m0 4v5.97m0 4v5.98m0 4v5.98m0 4v5.98m0 4v6m0 3.98v6m0 3.98v6m0 3.98v6m0 3.98v6m0 3.98v6m0 3.98v6m0 3.98v6m0 3.98v6m0 3.98v6m0 3.98v6m0 3.98v6m0 3.98v6m0 3.98v6m0 3.98v5.98m0 4v5.98m0 4v5.98m0 4v5.98m0 4v5.98m0 4v5.98m0 4v5.98m0 4v5.98m0 4v5.98m0 4v5.98m0 4v5.98m0 4v5.98m0 4v5.98m0 4v5.98m0 4v5.98m0 4v5.98m0 4v5.98m0 4v5.98m0 4v5.98m0 4v5.97m0 4v6m0 4v5.97m0 4v5.98m0 4v5.98m0 4v5.98m0 4v6m0 3.98v6m0 3.98v6m0 3.98v6m0 3.98v6m0 3.98v6m0 3.98v6m0 3.98v6m0 3.98v6m0 3.98v6m0 3.98v6m0 3.98v6m0 3.98v5.98m0 4v5.98m0 4v5.98m0 4v5.98m0 4v5.98m0 4v5.98m0 4v5.98m0 4v5.98m0 4v5.98m0 4v5.98m0 4v5.98m0 4v5.98m0 4v5.98m0 4v5.98m0 4v5.98m0 4v5.98m0 4v5.98m0 4v5.98m0 4v5.98m0 4v5.97m0 4v6m0 3.98v5.98m0 4v6m0 4v5.97m0 4v5.98m0 4v5.98m0 4v5.98m0 4v6m0 3.98v6m0 3.98v6m0 3.98v6m0 3.98v6m0 3.98v6m0 3.98v6m0 3.98v6m0 3.98v6m0 3.98v6m0 3.98v6m0 3.98v6m0 3.98v5.98m0 4v6m0 3.98V197m0 4v5.98m0 4v5.98m0 4v5.98m0 4v5.98m0 4v5.98m0 4v5.98m0 4v5.98m0 4v5.98m0 4v5.98m0 4v5.98m0 4v5.98m0 4v5.98m0 4v5.98m0 4v5.98m0 4v5.98m0 4v5.98m0 4v5.97m0 4v6m0 3.98v5.98m0 4v6m0 4v5.97m0 4v5.98m0 4v5.98m0 4v5.98m0 4v6m0 3.98v6m0 3.98v6m0 3.98v6m0 3.98v6m0 3.98v6m0 3.98v6m0 3.98v6m0 3.98v3l-.07.93-.22.92-.35.86m-2.63 2.62l-.87.36-.9.22-.95.07h-3m-4.02 0h-6.02m-4 0h-6.03m-4 0h-6.03m-4 0h-6.03m-4.02 0h-6.02m-4 0h-6.03m-4 0h-6.03m-4 0h-6.03m-4 0h-6.03m-4 0h-6.02m-4 0h-6.03m-4 0h-6.03m-4 0h-6.03m-4.03 0h-6m-4.03 0h-6.02m-4 0h-6.03m-4.02 0h-6.02m-4 0h-6.03m-4 0h-6.03m-4 0h-6.03m-4 0h-6.03m-4 0h-6.03m-4 0h-6.02m-4.02 0h-6m-4.03 0h-6.02m-4 0h-6.02m-4 0h-6.03m-4 0h-6.03m-4 0h-6.03m-4.02 0h-6.02m-4 0h-6.03m-4 0H-570m-4 0h-6.03m-4.02 0h-6.02m-4 0h-6.03m-4 0h-6.03m-4 0h-6.03m-4 0h-6.03m-4 0h-6.02m-4 0h-6.03m-4 0h-6.03m-4 0h-6.03m-4.03 0h-6m-4.03 0h-6.02m-4 0h-6.03m-4.02 0h-6.02m-4 0h-6.03m-4 0h-6.03m-4 0h-6.03m-4 0h-6.03m-4 0h-6.03m-4 0h-6.02m-4.02 0h-6m-4.03 0h-6.02m-4 0h-6.02m-4 0h-6.03m-4 0h-6.03m-4 0h-6.03m-4.02 0h-6.02m-4 0h-6.03m-4 0h-3.02l-.93-.07-.92-.22-.87-.36m-2.62-2.62l-.36-.87-.22-.93-.07-.94v-3m0-3.98v-6m0-3.98v-6m0-3.98v-6m0-4v-5.98m0-4v-5.98m0-4v-5.98m0-4v-5.98m0-4v-5.98m0-4v-5.98m0-4v-5.97m0-4v-6m0-3.98v-5.98m0-4v-6m0-4v-5.97m0-4v-5.98m0-4v-5.98m0-4v-5.98m0-4v-6m0-3.98v-6m0-3.98v-6m0-3.98v-6m0-3.98v-6m0-3.98v-6m0-3.98v-6m0-3.98v-6m0-3.98v-6m0-3.98v-6m0-3.98v-6m0-3.98v-6m0-3.98v-5.98m0-4v-6m0-3.98V201m0-4v-5.98m0-4v-5.98m0-4v-5.98m0-4v-5.98m0-4v-5.98m0-4v-5.98m0-4v-5.98m0-4v-5.98m0-4v-5.98m0-4v-5.98m0-4v-5.98m0-4v-5.98m0-4v-5.98m0-4V61.3m0-4V51.3m0-4v-5.98m0-4v-5.98m0-4v-5.98m0-4V11.4m0-4v-6m0-4v-5.97m0-4v-5.98m0-4v-5.98m0-4v-5.98m0-4v-6m0-3.98v-6m0-3.98v-6m0-3.98v-6m0-3.98v-6m0-3.98v-6m0-3.98v-6m0-3.98v-6m0-3.98v-6m0-3.98v-6m0-3.98v-6m0-3.98v-6m0-3.98v-6m0-3.98v-5.98m0-4v-5.98m0-4v-5.98m0-4v-5.98m0-4v-5.98m0-4v-5.98m0-4v-5.98m0-4v-5.98m0-4v-5.98m0-4v-5.98m0-4V-278m0-4V-288m0-4v-5.98m0-4v-5.98m0-4v-5.98m0-4v-5.98m0-4v-5.98m0-4v-5.98m0-4v-5.98m0-4v-5.97m0-4v-5.98m0-4v-6m0-4v-5.97m0-4v-5.98m0-4v-5.98m0-4v-5.98m0-4v-6m0-3.98v-6m0-3.98v-6m0-3.98v-6m0-3.98v-6m0-3.98v-6m0-3.98v-6m0-3.98v-6m0-3.98v-6m0-3.98v-6m0-3.98v-6m0-3.98v-6m0-3.98v-6m0-3.98v-5.98m0-4v-5.98m0-4v-5.98m0-4v-5.98m0-4v-5.98m0-4v-5.98m0-4v-5.98m0-4v-5.98m0-4v-5.98m0-4v-5.98m0-4v-5.98m0-4v-5.98m0-4v-5.98m0-4v-5.98m0-4v-5.98m0-4v-5.98m0-4v-5.98m0-4v-5.98m0-4v-5.97m0-4v-6m0-3.98V-767m0-4v-3l.08-.94.22-.9.36-.88" stroke="#0c7cba" stroke-width="2" fill="none"/><use xlink:href="#a" transform="matrix(1,0,0,1,-858.8941847700407,-775) translate(0 21.333333333333332)"/><use xlink:href="#b" transform="matrix(1,0,0,1,-858.8941847700407,-775) translate(102.2222222222222 21.333333333333332)"/><path d="M-770.67-100.67a10 10 0 0 1 10-10h440.65a10 10 0 0 1 10 10v549.34a10 10 0 0 1-10 10h-440.65a10 10 0 0 1-10-10z" stroke="#000" fill="#d8ecfa"/><path d="M-713.98-82.55l-10.15-17.83c-.8-1.44-2.17-2.24-3.8-2.3h-20.2c-1.63.06-3 .87-3.8 2.3l-10.15 17.78c-.78 1.4-.78 3 0 4.44l10.16 17.92c.78 1.48 2.12 2.33 3.8 2.37h20.2c1.62-.04 3-.9 3.8-2.37l10.14-17.8c.8-1.46.8-3.08 0-4.5z" stroke="#000" stroke-opacity="0" fill="#4285f4"/><path d="M-728.17-86.34l-9.85-4.45-9.44 5.2-.38 11.43 16.1 16.3h3.85c1.63-.07 3.02-.93 3.8-2.38l7.93-13.95z" stroke="#000" stroke-opacity="0" fill-opacity=".07"/><path d="M-728.42-86.5l-9.08-5.33c-.35-.2-.7-.2-1.06 0l-9.08 5.33c-.34.2-.53.52-.53.92v10.62c0 .4.2.73.53.9l9.08 5.35c.35.18.7.18 1.06 0l9.08-5.34c.35-.2.53-.52.53-.92V-85.6v.02c0-.4-.17-.73-.52-.92zm-1.24 10.53l-3.16-1.87v-4.9l-4.7 2.75v5.5l4.17-2.42 3.2 1.84-7.88 4.6-7.87-4.6 3.2-1.84 4.16 2.43v-5.47l-4.7-2.74v4.86l-3.16 1.88v-9.2l7.86-4.62v3.73l-4.17 2.45 4.67 2.72 4.68-2.72-4.17-2.45v-3.73l7.86 4.62v9.2z" stroke="#000" stroke-opacity="0" fill="#fff"/><path d="M-770.67-700.67a10 10 0 0 1 10-10h440.65a10 10 0 0 1 10 10v549.34a10 10 0 0 1-10 10h-440.65a10 10 0 0 1-10-10z" stroke="#000" fill="#d8ecfa"/><path d="M-713.98-682.55l-10.15-17.83c-.8-1.44-2.17-2.24-3.8-2.3h-20.2c-1.63.06-3 .86-3.8 2.3l-10.15 17.78c-.78 1.4-.78 3 0 4.44l10.16 17.92c.78 1.48 2.12 2.33 3.8 2.37h20.2c1.62-.04 3-.9 3.8-2.37l10.14-17.8c.8-1.47.8-3.08 0-4.5z" stroke="#000" stroke-opacity="0" fill="#4285f4"/><path d="M-728.17-686.35l-9.85-4.44-9.44 5.2-.38 11.43 16.1 16.3h3.85c1.63-.07 3.02-.93 3.8-2.38l7.93-13.95z" stroke="#000" stroke-opacity="0" fill-opacity=".07"/><path d="M-728.42-686.5l-9.08-5.34c-.35-.18-.7-.18-1.06 0l-9.08 5.34c-.34.2-.53.52-.53.9v10.64c0 .4.2.73.53.92l9.08 5.33c.35.18.7.18 1.06 0l9.08-5.34c.35-.2.53-.52.53-.92v-10.63c0-.38-.17-.7-.52-.9zm-1.24 10.53l-3.16-1.87v-4.9l-4.7 2.75v5.5l4.17-2.42 3.2 1.84-7.88 4.6-7.87-4.6 3.2-1.84 4.16 2.43v-5.47l-4.7-2.74v4.86l-3.16 1.88v-9.2l7.86-4.62v3.73l-4.17 2.45 4.67 2.72 4.68-2.72-4.17-2.45v-3.73l7.86 4.62v9.2z" stroke="#000" stroke-opacity="0" fill="#fff"/><path d="M-710.67-698h260v40h-260z" fill="#fff" fill-opacity="0"/><use xlink:href="#c" transform="matrix(1,0,0,1,-705.6666666666661,-693.0000000000002) translate(17.156684027777786 24.94574652777777)"/><use xlink:href="#d" transform="matrix(1,0,0,1,-705.6666666666661,-693.0000000000002) translate(124.69911024305556 24.94574652777777)"/><use xlink:href="#e" transform="matrix(1,0,0,1,-705.6666666666661,-693.0000000000002) translate(218.41634114583331 24.94574652777777)"/><path d="M-447.52-619.08c-.8.08-1.46.25-2.1.57l-28.1 13.84c-1.55.73-2.6 2.02-2.92 3.73l-6.97 31.18c-.33 1.45-.1 2.9.72 4.2.08.17.16.25.32.4l19.44 24.96c1.05 1.38 2.5 2.1 4.2 2.1h31.28c1.7 0 3.16-.72 4.2-2.1l19.45-24.94c1.06-1.37 1.46-3 1.06-4.7l-6.97-31.1c-.33-1.7-1.38-3-2.92-3.72l-28.1-13.85c-.9-.4-1.7-.66-2.6-.58z" stroke="#000" stroke-opacity="0" stroke-width="3.83" fill="#326ce5"/><path d="M-447.53-621.33c-.86.08-1.54.25-2.22.6l-29.67 14.62c-1.63.75-2.74 2.12-3.08 3.92l-7.35 32.92c-.34 1.53-.1 3.07.77 4.44.08.17.17.26.34.43l20.52 26.34c1.1 1.46 2.65 2.23 4.44 2.23h33c1.8 0 3.34-.77 4.45-2.23l20.52-26.33c1.1-1.44 1.53-3.15 1.1-4.86l-7.35-32.92c-.34-1.8-1.45-3.17-3.08-3.93l-29.67-14.63c-.94-.43-1.8-.7-2.73-.6zm0 2.3c.94-.08 1.7.1 2.56.52l28.22 13.84c1.45.77 2.48 2.05 2.9 3.76l6.93 31.12c.34 1.7 0 3.25-1.02 4.62l-19.5 24.97c-1.02 1.37-2.48 2.14-4.2 2.14h-31.28c-1.7 0-3.16-.77-4.2-2.13l-19.48-24.96c-.1-.1-.17-.26-.26-.43-.86-1.27-1.1-2.64-.77-4.18l6.93-31.12c.42-1.7 1.36-3 2.9-3.76l28.22-13.85c.68-.35 1.28-.52 2.05-.6z" stroke="#000" stroke-opacity="0" stroke-width="3.83" fill="#fff"/><path d="M-451.53-548.6c0 2.53-.87 3.8-2.6 3.8-1.1 0-1.82-.42-2.2-1.27h-.03c.02.04.03.42.03 1.15v2.84h-1.18v-8.66c0-.75-.02-1.24-.05-1.5h1.14v.2c.02.12.03.3.04.52l.02.47h.02c.2-.45.5-.78.83-.98.35-.22.8-.32 1.37-.32.87 0 1.52.3 1.95.9.43.6.65 1.55.65 2.84zm-1.24 0c0-1-.13-1.73-.4-2.16-.26-.44-.68-.65-1.26-.65-.47 0-.83.1-1.1.3-.26.2-.46.5-.6.94-.14.42-.2 1-.2 1.66 0 .97.15 1.67.44 2.12.3.45.8.68 1.46.68.58 0 1-.22 1.27-.66.27-.44.4-1.18.4-2.23zM-444.08-548.58c0 1.27-.28 2.22-.82 2.84-.54.63-1.34.94-2.38.94-1.02 0-1.8-.32-2.33-.97-.54-.65-.8-1.6-.8-2.8 0-2.53 1.05-3.78 3.17-3.78 1.08 0 1.87.3 2.38.92.5.6.77 1.56.77 2.85zm-1.24 0c0-1-.15-1.74-.44-2.2-.28-.45-.77-.67-1.45-.67-.7 0-1.2.22-1.5.7-.3.45-.47 1.18-.47 2.17 0 .96.15 1.68.46 2.16.3.5.77.72 1.4.72.72 0 1.23-.22 1.52-.7.3-.46.46-1.2.46-2.18zM-438.16-546.1c-.2.46-.5.8-.86 1-.36.2-.8.3-1.34.3-.9 0-1.55-.3-1.97-.93-.42-.62-.63-1.56-.63-2.82 0-2.54.87-3.8 2.6-3.8.54 0 .98.1 1.34.3.36.2.65.53.86.96h.02l-.02-.8v-3.03h1.18v8.5c0 .75 0 1.25.04 1.5h-1.13l-.04-.5-.03-.68zm-3.56-2.5c0 1.04.13 1.76.4 2.2.25.44.67.67 1.26.67.67 0 1.15-.25 1.45-.72.3-.48.44-1.22.44-2.22 0-.96-.15-1.67-.45-2.1-.3-.46-.78-.7-1.45-.7-.58 0-1 .24-1.28.7-.26.44-.4 1.17-.4 2.18z" stroke="#000" stroke-opacity="0" fill="#fff"/><path d="M-464.43-592.7l17.16-5.12 17.16 5.13-17.17 5.14zM-464.43-590.73v18.8l15.98 9.15.08-23.03zM-430.12-590.73v18.8l-15.98 9.15-.08-23.03z" stroke="#000" stroke-opacity="0" stroke-width="3.77" fill="#fff"/><use xlink:href="#f" transform="matrix(1,0,0,1,-520.0243356103374,-526.8333829999997) translate(32.99348958333333 18.50043402777778)"/><path d="M-447.52-485.16c-.8.08-1.46.24-2.1.57l-28.1 13.86c-1.55.73-2.6 2.02-2.92 3.72l-6.97 31.18c-.33 1.46-.1 2.92.72 4.2.08.18.16.26.32.42l19.44 24.94c1.05 1.38 2.5 2.1 4.2 2.1h31.28c1.7 0 3.16-.72 4.2-2.1l19.45-24.94c1.06-1.38 1.46-3 1.06-4.7l-6.97-31.1c-.33-1.7-1.38-3-2.92-3.72l-28.1-13.85c-.9-.4-1.7-.64-2.6-.56z" stroke="#000" stroke-opacity="0" stroke-width="3.83" fill="#326ce5"/><path d="M-447.53-487.42c-.86.1-1.54.26-2.22.6l-29.67 14.62c-1.63.77-2.74 2.14-3.08 3.94l-7.35 32.9c-.34 1.55-.1 3.1.77 4.46.08.17.17.25.34.43l20.52 26.33c1.1 1.45 2.65 2.22 4.44 2.22h33c1.8 0 3.34-.77 4.45-2.22l20.52-26.33c1.1-1.46 1.53-3.17 1.1-4.88l-7.35-32.9c-.34-1.8-1.45-3.18-3.08-3.95l-29.67-14.62c-.94-.43-1.8-.68-2.73-.6zm0 2.3c.94-.07 1.7.1 2.56.52l28.22 13.86c1.45.76 2.48 2.05 2.9 3.76l6.93 31.12c.34 1.7 0 3.25-1.02 4.62l-19.5 24.96c-1.02 1.37-2.48 2.14-4.2 2.14h-31.28c-1.7 0-3.16-.77-4.2-2.14l-19.48-24.96c-.1-.1-.17-.26-.26-.43-.86-1.28-1.1-2.65-.77-4.2l6.93-31.1c.42-1.72 1.36-3 2.9-3.77l28.22-13.86c.68-.34 1.28-.5 2.05-.6z" stroke="#000" stroke-opacity="0" stroke-width="3.83" fill="#fff"/><path d="M-451.53-414.7c0 2.55-.87 3.82-2.6 3.82-1.1 0-1.82-.42-2.2-1.27h-.03c.02.04.03.42.03 1.14v2.84h-1.18v-8.66c0-.75-.02-1.24-.05-1.5h1.14v.2c.02.12.03.28.04.52l.02.46h.02c.2-.44.5-.77.83-.97.35-.23.8-.33 1.37-.33.87 0 1.52.3 1.95.9.43.6.65 1.54.65 2.84zm-1.24.03c0-1-.13-1.74-.4-2.17-.26-.44-.68-.66-1.26-.66-.47 0-.83.1-1.1.3-.26.2-.46.52-.6.96-.14.42-.2.98-.2 1.66 0 .97.15 1.66.44 2.12.3.45.8.67 1.46.67.58 0 1-.2 1.27-.64s.4-1.18.4-2.23zM-444.08-414.67c0 1.28-.28 2.23-.82 2.85-.54.63-1.34.94-2.38.94-1.02 0-1.8-.33-2.33-.97-.54-.66-.8-1.6-.8-2.82 0-2.5 1.05-3.77 3.17-3.77 1.08 0 1.87.3 2.38.93.5.6.77 1.55.77 2.83zm-1.24 0c0-1-.15-1.73-.44-2.2-.28-.44-.77-.67-1.45-.67-.7 0-1.2.23-1.5.7-.3.46-.47 1.18-.47 2.17 0 .96.15 1.7.46 2.17.3.48.77.72 1.4.72.72 0 1.23-.23 1.52-.7.3-.46.46-1.2.46-2.2zM-438.16-412.2c-.2.48-.5.8-.86 1-.36.2-.8.32-1.34.32-.9 0-1.55-.32-1.97-.94-.42-.6-.63-1.55-.63-2.8 0-2.55.87-3.82 2.6-3.82.54 0 .98.1 1.34.3.36.2.65.53.86.97h.02l-.02-.8v-3.04h1.18v8.48c0 .76 0 1.26.04 1.5h-1.13l-.04-.5-.03-.67zm-3.56-2.47c0 1.02.13 1.75.4 2.2.25.43.67.66 1.26.66.67 0 1.15-.26 1.45-.73.3-.48.44-1.22.44-2.22 0-.96-.15-1.67-.45-2.12-.3-.44-.78-.68-1.45-.68-.58 0-1 .24-1.28.7-.26.44-.4 1.17-.4 2.18z" stroke="#000" stroke-opacity="0" fill="#fff"/><path d="M-464.43-458.78l17.16-5.13 17.16 5.12-17.17 5.13zM-464.43-456.8v18.8l15.98 9.14.08-23.03zM-430.12-456.8v18.8l-15.98 9.14-.08-23.03z" stroke="#000" stroke-opacity="0" stroke-width="3.77" fill="#fff"/><use xlink:href="#g" transform="matrix(1,0,0,1,-520.0243356103374,-392.91669149999984) translate(32.99348958333333 18.50043402777778)"/><path d="M-447.52-351.24c-.8.08-1.46.24-2.1.56l-28.1 13.85c-1.55.73-2.6 2.03-2.92 3.73l-6.97 31.18c-.33 1.46-.1 2.92.72 4.2.08.17.16.25.32.42l19.44 24.94c1.05 1.38 2.5 2.1 4.2 2.1h31.28c1.7 0 3.16-.72 4.2-2.1l19.45-24.94c1.06-1.38 1.46-3 1.06-4.7l-6.97-31.1c-.33-1.7-1.38-3-2.92-3.73l-28.1-13.85c-.9-.4-1.7-.64-2.6-.56z" stroke="#000" stroke-opacity="0" stroke-width="3.83" fill="#326ce5"/><path d="M-447.53-353.5c-.86.1-1.54.26-2.22.6l-29.67 14.62c-1.63.77-2.74 2.14-3.08 3.93l-7.35 32.92c-.34 1.54-.1 3.08.77 4.45.08.17.17.25.34.42l20.52 26.34c1.1 1.45 2.65 2.22 4.44 2.22h33c1.8 0 3.34-.77 4.45-2.22l20.52-26.34c1.1-1.45 1.53-3.16 1.1-4.87l-7.35-32.92c-.34-1.8-1.45-3.16-3.08-3.93l-29.67-14.62c-.94-.43-1.8-.7-2.73-.6zm0 2.3c.94-.08 1.7.1 2.56.52l28.22 13.85c1.45.77 2.48 2.06 2.9 3.76l6.93 31.13c.34 1.7 0 3.25-1.02 4.6l-19.5 24.98c-1.02 1.37-2.48 2.14-4.2 2.14h-31.28c-1.7 0-3.16-.77-4.2-2.14l-19.48-24.97c-.1-.08-.17-.25-.26-.42-.86-1.3-1.1-2.65-.77-4.2l6.93-31.12c.42-1.7 1.36-3 2.9-3.76l28.22-13.85c.68-.34 1.28-.5 2.05-.6z" stroke="#000" stroke-opacity="0" stroke-width="3.83" fill="#fff"/><path d="M-451.53-280.78c0 2.54-.87 3.8-2.6 3.8-1.1.02-1.82-.4-2.2-1.26h-.03c.02.04.03.42.03 1.15v2.86h-1.18v-8.66c0-.75-.02-1.25-.05-1.5h1.14v.2c.02.12.03.28.04.52l.02.46h.02c.2-.44.5-.77.83-.98.35-.2.8-.32 1.37-.32.87 0 1.52.3 1.95.9.43.6.65 1.55.65 2.84zm-1.24.02c0-1-.13-1.73-.4-2.16-.26-.44-.68-.66-1.26-.66-.47 0-.83.1-1.1.3-.26.2-.46.52-.6.95-.14.42-.2 1-.2 1.67 0 .96.15 1.66.44 2.1.3.46.8.7 1.46.7.58 0 1-.22 1.27-.67.27-.44.4-1.18.4-2.23zM-444.08-280.75c0 1.28-.28 2.23-.82 2.85-.54.62-1.34.93-2.38.93-1.02 0-1.8-.32-2.33-.96-.54-.66-.8-1.6-.8-2.82 0-2.52 1.05-3.77 3.17-3.77 1.08 0 1.87.3 2.38.92.5.6.77 1.56.77 2.85zm-1.24 0c0-1-.15-1.74-.44-2.2-.28-.44-.77-.67-1.45-.67-.7 0-1.2.23-1.5.7-.3.46-.47 1.18-.47 2.17 0 .96.15 1.68.46 2.17.3.48.77.7 1.4.7.72 0 1.23-.2 1.52-.68.3-.47.46-1.2.46-2.2zM-438.16-278.27c-.2.46-.5.8-.86 1-.36.2-.8.3-1.34.3-.9 0-1.55-.3-1.97-.93-.42-.62-.63-1.56-.63-2.8 0-2.56.87-3.82 2.6-3.82.54 0 .98.1 1.34.3.36.2.65.53.86.97h.02l-.02-.8v-3.04h1.18v8.5c0 .75 0 1.26.04 1.5h-1.13l-.04-.5-.03-.67zm-3.56-2.48c0 1.02.13 1.75.4 2.18.25.45.67.67 1.26.67.67 0 1.15-.24 1.45-.72.3-.47.44-1.2.44-2.2 0-.98-.15-1.7-.45-2.13-.3-.45-.78-.68-1.45-.68-.58 0-1 .23-1.28.7-.26.44-.4 1.16-.4 2.18z" stroke="#000" stroke-opacity="0" fill="#fff"/><path d="M-464.43-324.86l17.16-5.13 17.16 5.14-17.17 5.13zM-464.43-322.9v18.82l15.98 9.14.08-23.04zM-430.12-322.9v18.82l-15.98 9.14-.08-23.04z" stroke="#000" stroke-opacity="0" stroke-width="3.77" fill="#fff"/><use xlink:href="#h" transform="matrix(1,0,0,1,-520.0243356103374,-259) translate(32.99348958333333 18.50043402777778)"/><path d="M-676.9-485.67c-.82.08-1.47.25-2.12.57l-28.1 13.85c-1.54.73-2.6 2.02-2.92 3.72l-6.96 31.18c-.33 1.46-.08 2.92.73 4.22.08.16.16.24.32.4l19.44 24.95c1.04 1.37 2.5 2.1 4.2 2.1h31.26c1.7 0 3.16-.73 4.22-2.1l19.43-24.95c1.07-1.38 1.47-3 1.07-4.7l-6.97-31.1c-.32-1.7-1.38-3-2.9-3.72l-28.12-13.85c-.9-.4-1.7-.65-2.6-.57z" stroke="#000" stroke-opacity="0" stroke-width="3.83" fill="#326ce5"/><path d="M-676.92-487.92c-.86.1-1.54.26-2.23.6l-29.67 14.62c-1.62.77-2.73 2.14-3.07 3.94l-7.35 32.9c-.34 1.55-.08 3.1.77 4.46.1.17.18.25.35.43l20.52 26.33c1.1 1.45 2.64 2.22 4.43 2.22h33c1.8 0 3.34-.77 4.45-2.22l20.52-26.33c1.1-1.46 1.54-3.17 1.1-4.96l-7.34-32.83c-.34-1.8-1.45-3.17-3.08-3.94l-29.67-14.62c-.93-.43-1.78-.68-2.72-.6zm0 2.3c.94-.07 1.7.1 2.56.52l28.22 13.86c1.45.76 2.48 2.05 2.9 3.76l6.93 31.12c.33 1.7 0 3.25-1.04 4.62l-19.5 24.96c-1.02 1.37-2.47 2.14-4.18 2.14h-31.3c-1.7 0-3.16-.77-4.18-2.14l-19.5-24.96c-.08-.1-.17-.26-.25-.43-.86-1.28-1.12-2.65-.77-4.2l6.92-31.1c.43-1.72 1.37-3 2.9-3.77l28.23-13.86c.68-.34 1.28-.5 2.05-.5z" stroke="#000" stroke-opacity="0" stroke-width="3.83" fill="#fff"/><path d="M-680.64-413.55c0 .7-.25 1.2-.75 1.6-.5.36-1.2.55-2.1.55-.88 0-1.56-.15-2.04-.45-.47-.3-.78-.77-.93-1.4l1.04-.2c.1.38.3.67.62.86.3.2.74.28 1.3.28.6 0 1.03-.1 1.3-.3.28-.18.42-.46.42-.84 0-.3-.1-.52-.3-.7-.18-.17-.5-.32-.9-.44l-.86-.23c-.67-.18-1.15-.36-1.44-.53-.28-.17-.5-.38-.66-.63-.17-.23-.25-.54-.25-.9 0-.66.24-1.16.7-1.5.46-.36 1.13-.54 2-.54.8 0 1.4.15 1.87.43.46.27.75.72.87 1.35l-1.06.13c-.06-.32-.24-.57-.52-.74-.3-.18-.67-.26-1.15-.26-.52 0-.9.08-1.17.25-.25.17-.38.4-.38.75 0 .2.06.38.16.52.12.12.27.25.47.33.2.1.64.23 1.3.4.62.15 1.07.3 1.35.45.27.13.5.3.64.45.16.17.3.36.38.58.08.22.12.47.12.75zM-676.15-411.55h-1.4l-2.56-7.28h1.24l1.56 4.74.45 1.6.23-.78.25-.8 1.6-4.75h1.26zM-671.67-415.2c0 .96.15 1.68.44 2.14.3.47.75.7 1.34.7.43 0 .78-.1 1.05-.35.28-.24.46-.6.53-1.08l1.2.07c-.1.7-.4 1.26-.9 1.67-.47.42-1.1.63-1.84.63-1 0-1.74-.32-2.26-.96-.52-.65-.78-1.6-.78-2.83 0-1.2.26-2.15.78-2.8.52-.63 1.27-.95 2.25-.95.72 0 1.32.2 1.8.58.47.38.77.9.9 1.6l-1.2.08c-.07-.4-.23-.7-.48-.95-.25-.24-.6-.35-1.05-.35-.63 0-1.08.2-1.36.63-.27.43-.4 1.15-.4 2.16z" stroke="#000" stroke-opacity="0" fill="#fff"/><path d="M-702.37-438.66h13.8v9.97h-13.8zM-683.56-438.66h13.78v9.97h-13.78zM-664.75-438.66h13.78v9.97h-13.78zM-687.6-468.22h21.85v9.98h-21.84z" stroke="#000" stroke-opacity="0" stroke-width="3.77" fill="#fff"/><path d="M-677.93-458.25v8.5h-17.53c-.7 0-1.26.58-1.26 1.3v9.78h2.5v-8.5h17.55c.7 0 1.25-.57 1.25-1.3v-9.78z" stroke="#000" stroke-opacity="0" stroke-width="3.77" fill="#fff"/><path d="M-677.92-458.25v9.8c0 .7.56 1.28 1.26 1.28h17.53v8.5h2.5v-9.8c0-.7-.54-1.28-1.24-1.28h-17.55v-8.5z" stroke="#000" stroke-opacity="0" stroke-width="3.77" fill="#fff"/><path d="M-677.96-458.25v9.8c0 .14.02.3.08.44v9.33h2.5v-9.8c0-.15-.02-.3-.07-.44v-9.35z" stroke="#000" stroke-opacity="0" stroke-width="3.77" fill="#fff"/><use xlink:href="#i" transform="matrix(1,0,0,1,-749.4166418333332,-393.41674116666593) translate(6.3224826388888715 18.50043402777778)"/><path d="M-1070.7-168c-22.08 0-40 17.92-40 40s17.92 40 40 40 40-17.92 40-40-17.92-40-40-40zm0 76.8c-20.32 0-36.8-16.48-36.8-36.8 0-20.32 16.48-36.8 36.8-36.8 20.32 0 36.8 16.48 36.8 36.8 0 20.32-16.48 36.8-36.8 36.8z" stroke="#fff" stroke-opacity="0" stroke-width="3" fill="#693cc5"/><path d="M-1085.1-118.4h-16c-.9 0-1.6-.7-1.6-1.6v-16c0-.9.7-1.6 1.6-1.6h16c.9 0 1.6.7 1.6 1.6v16c0 .9-.7 1.6-1.6 1.6zm-14.4-3.2h12.8v-12.8h-12.8zM-1048.3-139.2h-9.6c-.9 0-1.6-.72-1.6-1.6v-9.6c0-.88.7-1.6 1.6-1.6h9.6c.88 0 1.6.72 1.6 1.6v9.6c0 .88-.72 1.6-1.6 1.6zm-8-3.2h6.4v-6.4h-6.4zM-1048.3-121.6h-9.6c-.9 0-1.6-.72-1.6-1.6v-9.6c0-.88.7-1.6 1.6-1.6h9.6c.88 0 1.6.72 1.6 1.6v9.6c0 .88-.72 1.6-1.6 1.6zm-8-3.2h6.4v-6.4h-6.4zM-1048.3-104h-9.6c-.9 0-1.6-.72-1.6-1.6v-9.6c0-.88.7-1.6 1.6-1.6h9.6c.88 0 1.6.72 1.6 1.6v9.6c0 .88-.72 1.6-1.6 1.6zm-8-3.2h6.4v-6.4h-6.4zM-1061.57-126.87l-5.38 5.38-2.27-2.24 2.65-2.66h-13.73v-3.2h13.73l-2.65-2.66 2.27-2.25 5.38 5.37c.63.62.63 1.63 0 2.26zM-1062.45-144.78l-1.98 7.35-3.07-.84 1-3.8-14.17 7.48-1.5-2.8 13.86-7.32-3.45-.88.83-3.2 7.36 2c.85.2 1.37 1.08 1.13 1.94 0 .02 0 .05-.02.08zM-1063.56-109.24l-7.35 2.04-.86-3.2 3.44-.94-13.86-7.32 1.5-2.8 14.2 7.48-1.02-3.75 3.1-.83 1.97 7.35c.23.83-.28 1.72-1.13 1.95z" stroke="#fff" stroke-opacity="0" stroke-width="3" fill="#693cc5"/><use xlink:href="#j" transform="matrix(1,0,0,1,-1140.7031824930382,-79) translate(1.5740740740740762 17.77777777777778)"/><use xlink:href="#k" transform="matrix(1,0,0,1,-1140.7031824930382,-79) translate(89.0432098765432 17.77777777777778)"/><use xlink:href="#l" transform="matrix(1,0,0,1,-1140.7031824930382,-79) translate(26.234567901234563 44.44444444444444)"/><path d="M-1450.7-162a6 6 0 0 1 6-6h368a6 6 0 0 1 6 6v28a6 6 0 0 1-6 6h-368a6 6 0 0 1-6-6z" stroke="#000" stroke-opacity="0" stroke-width="3" fill="#fff" fill-opacity="0"/><use xlink:href="#m" transform="matrix(1,0,0,1,-1445.7031824930382,-163) translate(67.22222222222224 19.65277777777778)"/><g filter="url(#n)"><path d="M-1500-188.67a2 2 0 0 1 2-2h84a2 2 0 0 1 2 2v124a2 2 0 0 1-2 2h-84a2 2 0 0 1-2-2z" fill="#fff"/><path d="M-1432-128.67c1.65 0 3.07-.58 4.24-1.75 1.18-1.18 1.76-2.6 1.76-4.25v-30c0-1.65-.58-3.07-1.76-4.24-1.17-1.18-2.6-1.77-4.24-1.77h-48c-1.65 0-3.07.6-4.24 1.76-1.18 1.16-1.76 2.58-1.76 4.23v30c0 1.66.58 3.07 1.76 4.25 1.17 1.17 2.6 1.75 4.24 1.75h-12v6h72v-6zm-48-36h48v30h-48z" fill="#757575"/><use xlink:href="#o" transform="matrix(1,0,0,1,-1500,-109.66666666666652) translate(30.451145507812498 28.05751953125)"/></g><path d="M-1411-126.67l280.36-1.25" stroke="#5e5e5e" stroke-width="2" fill="none"/><path d="M-1410.97-125.67h-1.03v-2h1.02z" stroke="#5e5e5e" stroke-width=".05" fill="#5e5e5e"/><path d="M-1115.38-128l-14.24 4.7-.04-9.26z" stroke="#5e5e5e" stroke-width="2" fill="#5e5e5e"/><path d="M-1029.7-128H-916a6 6 0 0 0 6-6v-305.17a6 6 0 0 1 6-6h168.33" stroke="#5e5e5e" stroke-width="2" fill="none"/><path d="M-1029.68-127h-1.06l.04-1-.07-1h1.1z" stroke="#5e5e5e" stroke-width=".05" fill="#5e5e5e"/><path d="M-720.4-445.17l-14.27 4.64v-9.27z" stroke="#5e5e5e" stroke-width="2" fill="#5e5e5e"/><path d="M-635.16-445.17h67.2a6 6 0 0 0 6-6v-121.4a6 6 0 0 1 6-6h49.7" stroke="#5e5e5e" stroke-width="2" fill="none"/><path d="M-635.13-444.17h-.8l-.45-2h1.25z" stroke="#5e5e5e" stroke-width=".05" fill="#5e5e5e"/><path d="M-491-578.58l-14.27 4.63v-9.27z" stroke="#5e5e5e" stroke-width="2" fill="#5e5e5e"/><path d="M-635.16-445.17h72.95a.25.25 0 0 1 .24.25.25.25 0 0 0 .25.25h55.43" stroke="#5e5e5e" stroke-width="2" fill="none"/><path d="M-635.13-444.17h-.8l-.45-2h1.25z" stroke="#5e5e5e" stroke-width=".05" fill="#5e5e5e"/><path d="M-491-444.67l-14.27 4.64v-9.27z" stroke="#5e5e5e" stroke-width="2" fill="#5e5e5e"/><path d="M-635.16-445.17h67.2a6 6 0 0 1 6 6v122.42a6 6 0 0 0 6 6h49.7" stroke="#5e5e5e" stroke-width="2" fill="none"/><path d="M-635.13-444.17h-.8l-.45-2h1.25z" stroke="#5e5e5e" stroke-width=".05" fill="#5e5e5e"/><path d="M-491-310.75l-14.27 4.63v-9.26z" stroke="#5e5e5e" stroke-width="2" fill="#5e5e5e"/><path d="M-677-311.87c-1.05.1-1.9.32-2.75.74l-36.87 18.17c-2.02.96-3.4 2.66-3.83 4.9l-9.13 40.9c-.43 1.9-.1 3.82.95 5.52.1.2.22.32.43.53l25.5 32.72c1.38 1.8 3.3 2.76 5.53 2.76h41c2.24 0 4.15-.96 5.53-2.76l25.5-32.73c1.4-1.82 1.92-3.94 1.4-6.17l-9.15-40.8c-.42-2.23-1.8-3.93-3.82-4.9l-36.87-18.16c-1.15-.53-2.22-.85-3.4-.74z" stroke="#000" stroke-opacity="0" stroke-width="3.83" fill="#326ce5"/><path d="M-677-314.83c-1.13.1-2.02.33-2.92.78l-38.92 19.18c-2.13 1-3.6 2.8-4.04 5.16l-9.65 43.18c-.44 2.02-.1 4.03 1 5.83.13.23.24.34.46.57l26.92 34.55c1.46 1.9 3.48 2.9 5.83 2.9h43.3c2.36 0 4.38-1 5.83-2.9l26.93-34.55c1.46-1.9 2.02-4.15 1.46-6.4l-9.65-43.18c-.45-2.36-1.9-4.16-4.04-5.17l-38.9-19.18c-1.25-.56-2.37-.9-3.6-.78zm0 3.02c1.23-.12 2.24.1 3.36.67l37.02 18.17c1.9 1 3.25 2.7 3.8 4.94l9.1 40.82c.45 2.25 0 4.27-1.35 6.06l-25.57 32.75c-1.35 1.8-3.26 2.82-5.5 2.82h-41.05c-2.24 0-4.14-1-5.5-2.8l-25.56-32.76c-.12-.1-.23-.34-.34-.56-1.12-1.68-1.46-3.48-1-5.5l9.08-40.82c.56-2.25 1.8-3.93 3.8-4.94l37.02-18.17c.9-.45 1.7-.68 2.7-.8z" stroke="#000" stroke-opacity="0" stroke-width="3.83" fill="#fff"/><path d="M-689.03-287.7v4.8h3.3v-3.1h6.8v-3.4h-8.43c-1.36 0-1.67.46-1.67 1.7zm16.67 1.7h13.16v-3.4h-13.16zm19.74 0h4.16v5.88h3.3v-7.57c0-1.34-.7-1.67-1.67-1.7h-5.8zm-36.4 11.58v11.86h3.28v-13.57h-3.3zm40.56 2.78v11.9h3.3v-13.6h-3.3zm-36.45 15h13.15v-3.4h-13.16zm27.23 0h5.66v-3.4h-5.67z" stroke="#000" stroke-opacity="0" stroke-width="3.77" fill="#fff"/><path d="M-698.6-278.65v6.16h3.3v-4.44h5.48v-3.4h-7.1c-1.37 0-1.68.45-1.68 1.7zm15.4 1.7h13.1v-3.4h-13.1zm19.7 0h5.48v4.53h3.3v-6.23c0-1.05-.45-1.73-1.64-1.7h-7.15zM-698.6-264v11.86h3.3v-13.57h-3.3zm40.58.06v11.86h3.3v-13.56h-3.3zm-35.14 16.35H-680v-3.36h-13.16zm19.74 0h13.16v-3.36h-13.16z" stroke="#000" stroke-opacity="0" stroke-width="3.77" fill="#fff"/><path d="M-708.16-240.17v-31.14l42 .03c1.3 0 1.88 1.1 1.88 1.93l-.05 29.1c-.04 1.12-.92 1.74-1.8 1.7h-40.36c-.74 0-1.7-.62-1.66-1.63z" stroke="#000" stroke-opacity="0" stroke-width="3.77" fill="#fff"/><path d="M-686.55-268.34c-4.8 0-9.16.56-12.43 1.5-1.64.5-3.02 1.08-4.14 1.83-1.08.74-2.04 1.84-2.04 3.34v13.48c0 1.5.96 2.57 2.04 3.32 1.12.78 2.5 1.35 4.14 1.83 3.27.97 7.63 1.53 12.43 1.53s9.16-.56 12.44-1.53c1.63-.48 3-1.05 4.12-1.83 1.08-.75 2.05-1.82 2.05-3.32v-13.48c0-1.5-.97-2.6-2.05-3.35-1.12-.76-2.5-1.35-4.13-1.84-3.3-.94-7.64-1.5-12.45-1.5zm0 3.38c4.54 0 8.68.56 11.54 1.4 1.45.43 2.53.94 3.16 1.37.63.44.63.65.63.54 0-.13 0 .08-.64.54-.63.43-1.7.9-3.16 1.34-2.87.83-7 1.4-11.55 1.4-4.54 0-8.67-.57-11.54-1.4-1.44-.43-2.52-.9-3.15-1.34-.64-.46-.64-.67-.64-.54 0 .1 0-.1.65-.53.63-.42 1.7-.93 3.16-1.36 2.88-.83 7-1.4 11.55-1.4zm-15.34 7.17c.9.46 1.76.95 2.92 1.3 3.27.96 7.63 1.53 12.43 1.53s9.16-.57 12.44-1.53c1.14-.35 2-.84 2.9-1.3v9.62c0-.1 0 .1-.64.53-.63.43-1.7.94-3.16 1.34-2.87.85-7 1.42-11.55 1.42-4.54 0-8.67-.57-11.54-1.43-1.44-.4-2.52-.92-3.15-1.35-.64-.43-.64-.64-.64-.53z" stroke="#000" stroke-opacity="0" stroke-width="3.77" fill="#326ce5"/><path d="M-680.36-217.2c0 .9-.33 1.6-1 2.1-.65.48-1.57.73-2.76.73-1.15 0-2.05-.2-2.67-.58-.6-.4-1.02-1-1.2-1.84l1.35-.27c.13.52.4.9.8 1.14.43.24 1 .36 1.73.36.78 0 1.35-.13 1.7-.38.38-.25.56-.62.56-1.12 0-.37-.12-.68-.37-.92-.26-.2-.66-.4-1.22-.56l-1.1-.3c-.9-.24-1.53-.47-1.9-.7-.38-.22-.67-.5-.87-.83-.22-.3-.32-.7-.32-1.17 0-.87.3-1.53.9-2 .6-.46 1.48-.68 2.64-.68 1.02 0 1.83.2 2.43.55.6.38 1 .97 1.15 1.8l-1.4.17c-.08-.43-.3-.75-.68-.98-.38-.24-.87-.35-1.5-.35-.7 0-1.22.1-1.55.33-.33.22-.5.54-.5 1 0 .25.07.48.2.66.15.17.35.33.62.44.27.13.83.3 1.7.52.8.2 1.4.4 1.76.6.36.17.65.37.85.6.2.2.38.45.5.75.1.27.16.6.16.97zM-674.98-214.56c-.5.14-1.02.2-1.55.2-1.24 0-1.86-.7-1.86-2.15v-6.4h-1.06v-1.14h1.13l.46-2.14h1.03v2.14h1.7v1.15h-1.7v6.05c0 .46.07.78.2.97.16.2.4.27.77.27.2 0 .5-.05.9-.13zM-666.72-217.2c0 .9-.33 1.6-1 2.1-.65.48-1.57.73-2.76.73-1.15 0-2.05-.2-2.67-.58-.62-.4-1.03-1-1.22-1.84l1.36-.27c.12.52.4.9.8 1.14.42.24 1 .36 1.72.36.78 0 1.35-.13 1.7-.38.38-.25.56-.62.56-1.12 0-.37-.12-.68-.37-.92-.25-.2-.65-.4-1.2-.56l-1.12-.3c-.88-.24-1.5-.47-1.9-.7-.36-.22-.65-.5-.86-.83-.22-.3-.32-.7-.32-1.17 0-.87.3-1.53.9-2 .6-.46 1.5-.68 2.64-.68 1.02 0 1.83.2 2.43.55.6.38 1 .97 1.15 1.8l-1.4.17c-.08-.43-.3-.75-.68-.98-.38-.24-.87-.35-1.5-.35-.7 0-1.22.1-1.54.33-.33.22-.5.54-.5 1 0 .25.07.48.2.66.14.17.34.33.62.44.26.13.83.3 1.7.52.8.2 1.4.4 1.75.6.36.17.65.37.85.6.2.2.38.45.5.75.1.27.16.6.16.97z" stroke="#000" stroke-opacity="0" fill="#fff"/><use xlink:href="#p" transform="matrix(1,0,0,1,-762.7499751666667,-193.66666666666652) translate(59.82899305555556 18.50043402777778)"/><path d="M-676.9-619.1c-.82.1-1.47.26-2.12.58l-28.1 13.85c-1.54.73-2.6 2.03-2.92 3.73l-6.96 31.18c-.33 1.46-.08 2.9.73 4.2.08.17.16.25.32.4l19.44 24.96c1.04 1.38 2.5 2.1 4.2 2.1h31.26c1.7 0 3.16-.72 4.22-2.1l19.43-24.95c1.07-1.37 1.47-3 1.07-4.7l-6.97-31.1c-.32-1.7-1.38-3-2.9-3.72l-28.12-13.85c-.9-.4-1.7-.65-2.6-.57z" stroke="#000" stroke-opacity="0" stroke-width="3.83" fill="#326ce5"/><path d="M-676.92-621.33c-.86.08-1.54.25-2.23.6l-29.67 14.62c-1.62.75-2.73 2.12-3.07 3.92l-7.35 32.92c-.34 1.53-.08 3.07.77 4.44.1.17.18.26.35.43l20.52 26.34c1.1 1.46 2.64 2.23 4.43 2.23h33c1.8 0 3.34-.77 4.45-2.23l20.52-26.33c1.1-1.44 1.54-3.15 1.1-4.95l-7.34-32.83c-.34-1.8-1.45-3.17-3.08-3.93l-29.67-14.63c-.93-.43-1.78-.7-2.72-.6zm0 2.3c.94-.08 1.7.1 2.56.52l28.22 13.84c1.45.77 2.48 2.05 2.9 3.76l6.93 31.12c.33 1.7 0 3.25-1.04 4.62l-19.5 24.97c-1.02 1.37-2.47 2.14-4.18 2.14h-31.3c-1.7 0-3.16-.77-4.18-2.13l-19.5-24.96c-.08-.1-.17-.26-.25-.43-.86-1.27-1.12-2.64-.77-4.18l6.92-31.12c.43-1.7 1.37-3 2.9-3.76l28.23-13.85c.68-.35 1.28-.52 2.05-.52z" stroke="#000" stroke-opacity="0" stroke-width="3.83" fill="#fff"/><path d="M-680.64-546.97c0 .7-.25 1.22-.75 1.6-.5.36-1.2.55-2.1.55-.88 0-1.56-.15-2.04-.44-.47-.3-.78-.77-.93-1.4l1.04-.22c.1.4.3.68.62.87.3.17.74.26 1.3.26.6 0 1.03-.1 1.3-.28.28-.2.42-.48.42-.86 0-.28-.1-.52-.3-.7-.18-.17-.5-.32-.9-.44l-.86-.23c-.67-.18-1.15-.35-1.44-.52-.28-.18-.5-.4-.66-.64-.17-.25-.25-.56-.25-.9 0-.68.24-1.18.7-1.53.46-.35 1.13-.52 2-.52.8 0 1.4.14 1.87.42.46.28.75.74.87 1.36l-1.06.14c-.06-.33-.24-.58-.52-.75-.3-.17-.67-.25-1.15-.25-.52 0-.9.08-1.17.24-.25.18-.38.43-.38.77 0 .2.06.37.16.5.12.14.27.26.47.35.2.1.64.23 1.3.4.62.15 1.07.3 1.35.44.27.14.5.3.64.46.16.16.3.35.38.57.08.2.12.45.12.73zM-676.15-544.96h-1.4l-2.56-7.3h1.24l1.56 4.75.45 1.6.23-.8.25-.8 1.6-4.75h1.26zM-671.67-548.63c0 .97.15 1.7.44 2.16.3.47.75.7 1.34.7.43 0 .78-.12 1.05-.36.28-.23.46-.58.53-1.07l1.2.08c-.1.7-.4 1.26-.9 1.67-.47.42-1.1.63-1.84.63-1 0-1.74-.3-2.26-.96-.52-.65-.78-1.58-.78-2.82 0-1.23.26-2.16.78-2.8.52-.65 1.27-.97 2.25-.97.72 0 1.32.2 1.8.58.47.4.77.92.9 1.6l-1.2.1c-.07-.4-.23-.73-.48-.97-.25-.24-.6-.35-1.05-.35-.63 0-1.08.2-1.36.63-.27.44-.4 1.16-.4 2.17z" stroke="#000" stroke-opacity="0" fill="#fff"/><path d="M-702.37-572.08h13.8v9.98h-13.8zM-683.56-572.08h13.78v9.98h-13.78zM-664.75-572.08h13.78v9.98h-13.78zM-687.6-601.63h21.85v9.97h-21.84z" stroke="#000" stroke-opacity="0" stroke-width="3.77" fill="#fff"/><path d="M-677.93-591.67v8.5h-17.53c-.7 0-1.26.6-1.26 1.3v9.78h2.5v-8.5h17.55c.7 0 1.25-.55 1.25-1.28v-9.8z" stroke="#000" stroke-opacity="0" stroke-width="3.77" fill="#fff"/><path d="M-677.92-591.67v9.8c0 .72.56 1.28 1.26 1.28h17.53v8.5h2.5v-9.78c0-.7-.54-1.3-1.24-1.3h-17.55v-8.5z" stroke="#000" stroke-opacity="0" stroke-width="3.77" fill="#fff"/><path d="M-677.96-591.67v9.8c0 .15.02.3.08.44v9.34h2.5v-9.78c0-.16-.02-.3-.07-.45v-9.34z" stroke="#000" stroke-opacity="0" stroke-width="3.77" fill="#fff"/><use xlink:href="#q" transform="matrix(1,0,0,1,-749.4166418333332,-526.8333829999997) translate(37.25925925925926 17.77777777777778)"/><path d="M-710.67-98h260v40h-260z" fill="#fff" fill-opacity="0"/><use xlink:href="#c" transform="matrix(1,0,0,1,-705.6666666666661,-93.00000000000037) translate(17.156684027777786 24.94574652777777)"/><use xlink:href="#d" transform="matrix(1,0,0,1,-705.6666666666661,-93.00000000000037) translate(124.69911024305556 24.94574652777777)"/><use xlink:href="#r" transform="matrix(1,0,0,1,-705.6666666666661,-93.00000000000037) translate(218.41634114583331 24.94574652777777)"/><path d="M-447.52-19.08c-.8.08-1.46.25-2.1.57l-28.1 13.84c-1.55.73-2.6 2.02-2.92 3.73l-6.97 31.18c-.33 1.45-.1 2.9.72 4.2.08.17.16.25.32.4l19.44 24.96c1.05 1.38 2.5 2.1 4.2 2.1h31.28c1.7 0 3.16-.72 4.2-2.1l19.45-24.94c1.06-1.37 1.46-3 1.06-4.7l-6.97-31.1c-.33-1.7-1.38-3-2.92-3.72l-28.1-13.85c-.9-.4-1.7-.66-2.6-.58z" stroke="#000" stroke-opacity="0" stroke-width="3.83" fill="#326ce5"/><path d="M-447.53-21.33c-.86.08-1.54.25-2.22.6l-29.67 14.62c-1.63.75-2.74 2.12-3.08 3.92l-7.35 32.92c-.34 1.54-.1 3.07.77 4.44.08.17.17.26.34.43l20.52 26.34c1.1 1.46 2.65 2.23 4.44 2.23h33c1.8 0 3.34-.77 4.45-2.23l20.52-26.33c1.1-1.44 1.53-3.15 1.1-4.86l-7.35-32.92c-.34-1.8-1.45-3.16-3.08-3.93l-29.67-14.63c-.94-.43-1.8-.7-2.73-.6zm0 2.3c.94-.08 1.7.1 2.56.52l28.22 13.84c1.45.77 2.48 2.05 2.9 3.76l6.93 31.12c.34 1.7 0 3.25-1.02 4.62l-19.5 24.97c-1.02 1.37-2.48 2.14-4.2 2.14h-31.28c-1.7 0-3.16-.77-4.2-2.13l-19.48-24.96c-.1-.1-.17-.26-.26-.43-.86-1.27-1.1-2.64-.77-4.18L-480.7-.9c.42-1.7 1.36-3 2.9-3.76l28.22-13.85c.68-.35 1.28-.52 2.05-.6z" stroke="#000" stroke-opacity="0" stroke-width="3.83" fill="#fff"/><path d="M-451.53 51.4c0 2.53-.87 3.8-2.6 3.8-1.1 0-1.82-.42-2.2-1.27h-.03c.02.04.03.42.03 1.15v2.84h-1.18v-8.66c0-.75-.02-1.24-.05-1.5h1.14v.2c.02.12.03.3.04.52l.02.47h.02c.2-.45.5-.78.83-.98.35-.22.8-.32 1.37-.32.87 0 1.52.3 1.95.9.43.6.65 1.55.65 2.84zm-1.24 0c0-1-.13-1.73-.4-2.16-.26-.44-.68-.65-1.26-.65-.47 0-.83.1-1.1.3-.26.2-.46.5-.6.94-.14.42-.2.98-.2 1.66 0 .97.15 1.67.44 2.12.3.45.8.68 1.46.68.58 0 1-.22 1.27-.66.27-.44.4-1.18.4-2.23zM-444.08 51.42c0 1.27-.28 2.22-.82 2.84-.54.63-1.34.94-2.38.94-1.02 0-1.8-.32-2.33-.97-.54-.65-.8-1.6-.8-2.8 0-2.53 1.05-3.78 3.17-3.78 1.08 0 1.87.3 2.38.92.5.6.77 1.56.77 2.85zm-1.24 0c0-1-.15-1.74-.44-2.2-.28-.45-.77-.67-1.45-.67-.7 0-1.2.22-1.5.7-.3.45-.47 1.18-.47 2.17 0 .95.15 1.68.46 2.16.3.5.77.72 1.4.72.72 0 1.23-.22 1.52-.7.3-.46.46-1.2.46-2.18zM-438.16 53.9c-.2.46-.5.8-.86 1-.36.2-.8.3-1.34.3-.9 0-1.55-.3-1.97-.93-.42-.62-.63-1.56-.63-2.82 0-2.54.87-3.8 2.6-3.8.54 0 .98.1 1.34.3.36.2.65.53.86.96h.02l-.02-.8v-3.03h1.18v8.5c0 .75 0 1.26.04 1.5h-1.13l-.04-.5-.03-.68zm-3.56-2.5c0 1.04.13 1.77.4 2.2.25.45.67.67 1.26.67.67 0 1.15-.25 1.45-.72.3-.48.44-1.22.44-2.22 0-.96-.15-1.67-.45-2.1-.3-.46-.78-.7-1.45-.7-.58 0-1 .24-1.28.7-.26.44-.4 1.17-.4 2.18z" stroke="#000" stroke-opacity="0" fill="#fff"/><path d="M-464.43 7.3l17.16-5.12 17.16 5.13-17.17 5.14zM-464.43 9.27v18.8l15.98 9.15.08-23.03zM-430.12 9.27v18.8l-15.98 9.15-.08-23.03z" stroke="#000" stroke-opacity="0" stroke-width="3.77" fill="#fff"/><use xlink:href="#s" transform="matrix(1,0,0,1,-520.0243356103374,73.16661700000031) translate(32.99348958333333 18.50043402777778)"/><path d="M-447.52 114.84c-.8.08-1.46.24-2.1.57l-28.1 13.86c-1.55.73-2.6 2.02-2.92 3.72l-6.97 31.18c-.33 1.46-.1 2.92.72 4.2.08.18.16.26.32.42l19.44 24.94c1.05 1.38 2.5 2.1 4.2 2.1h31.28c1.7 0 3.16-.72 4.2-2.1l19.45-24.94c1.06-1.38 1.46-3 1.06-4.7l-6.97-31.1c-.33-1.7-1.38-3-2.92-3.72l-28.1-13.85c-.9-.4-1.7-.64-2.6-.56z" stroke="#000" stroke-opacity="0" stroke-width="3.83" fill="#326ce5"/><path d="M-447.53 112.58c-.86.1-1.54.26-2.22.6l-29.67 14.62c-1.63.77-2.74 2.14-3.08 3.94l-7.35 32.9c-.34 1.55-.1 3.1.77 4.46.08.17.17.25.34.43l20.52 26.33c1.1 1.45 2.65 2.22 4.44 2.22h33c1.8 0 3.34-.77 4.45-2.22l20.52-26.33c1.1-1.46 1.53-3.17 1.1-4.88l-7.35-32.9c-.34-1.8-1.45-3.18-3.08-3.95l-29.67-14.62c-.94-.43-1.8-.68-2.73-.6zm0 2.3c.94-.07 1.7.1 2.56.53l28.22 13.86c1.45.77 2.48 2.05 2.9 3.76l6.93 31.12c.34 1.7 0 3.25-1.02 4.62l-19.5 24.96c-1.02 1.37-2.48 2.14-4.2 2.14h-31.28c-1.7 0-3.16-.77-4.2-2.14l-19.48-24.96c-.1-.1-.17-.26-.26-.43-.86-1.28-1.1-2.65-.77-4.2l6.93-31.1c.42-1.72 1.36-3 2.9-3.77l28.22-13.85c.68-.34 1.28-.5 2.05-.6z" stroke="#000" stroke-opacity="0" stroke-width="3.83" fill="#fff"/><path d="M-451.53 185.3c0 2.54-.87 3.82-2.6 3.82-1.1 0-1.82-.42-2.2-1.28h-.03c.02.05.03.43.03 1.16v2.84h-1.18v-8.66c0-.75-.02-1.24-.05-1.5h1.14v.2c.02.12.03.28.04.52l.02.46h.02c.2-.44.5-.77.83-.97.35-.23.8-.33 1.37-.33.87 0 1.52.3 1.95.9.43.6.65 1.54.65 2.84zm-1.24.03c0-1-.13-1.74-.4-2.17-.26-.44-.68-.66-1.26-.66-.47 0-.83.1-1.1.3-.26.2-.46.52-.6.96-.14.42-.2.98-.2 1.66 0 .97.15 1.67.44 2.12.3.45.8.68 1.46.68.58 0 1-.22 1.27-.66.27-.44.4-1.18.4-2.23zM-444.08 185.33c0 1.28-.28 2.23-.82 2.85-.54.63-1.34.94-2.38.94-1.02 0-1.8-.33-2.33-.97-.54-.66-.8-1.6-.8-2.82 0-2.5 1.05-3.77 3.17-3.77 1.08 0 1.87.3 2.38.93.5.6.77 1.55.77 2.83zm-1.24 0c0-1-.15-1.74-.44-2.2-.28-.44-.77-.67-1.45-.67-.7 0-1.2.23-1.5.7-.3.46-.47 1.18-.47 2.17 0 .96.15 1.7.46 2.17.3.48.77.72 1.4.72.72 0 1.23-.23 1.52-.7.3-.47.46-1.2.46-2.2zM-438.16 187.8c-.2.48-.5.8-.86 1-.36.2-.8.32-1.34.32-.9 0-1.55-.32-1.97-.94-.42-.6-.63-1.55-.63-2.8 0-2.55.87-3.82 2.6-3.82.54 0 .98.1 1.34.3.36.2.65.53.86.97h.02l-.02-.8v-3.04h1.18v8.48c0 .76 0 1.26.04 1.5h-1.13l-.04-.5-.03-.67zm-3.56-2.47c0 1.02.13 1.75.4 2.2.25.43.67.66 1.26.66.67 0 1.15-.26 1.45-.73.3-.48.44-1.22.44-2.22 0-.96-.15-1.67-.45-2.12-.3-.44-.78-.68-1.45-.68-.58 0-1 .24-1.28.7-.26.44-.4 1.17-.4 2.18z" stroke="#000" stroke-opacity="0" fill="#fff"/><path d="M-464.43 141.22l17.16-5.13 17.16 5.12-17.17 5.13zM-464.43 143.2V162l15.98 9.14.08-23.03zM-430.12 143.2V162l-15.98 9.14-.08-23.03z" stroke="#000" stroke-opacity="0" stroke-width="3.77" fill="#fff"/><use xlink:href="#t" transform="matrix(1,0,0,1,-520.0243356103374,207.08330850000016) translate(32.99348958333333 18.50043402777778)"/><path d="M-447.52 248.76c-.8.08-1.46.24-2.1.56l-28.1 13.85c-1.55.73-2.6 2.03-2.92 3.73l-6.97 31.18c-.33 1.46-.1 2.92.72 4.2.08.17.16.25.32.42l19.44 24.94c1.05 1.38 2.5 2.1 4.2 2.1h31.28c1.7 0 3.16-.72 4.2-2.1l19.45-24.94c1.06-1.38 1.46-3 1.06-4.7l-6.97-31.1c-.33-1.7-1.38-3-2.92-3.73l-28.1-13.85c-.9-.4-1.7-.64-2.6-.56z" stroke="#000" stroke-opacity="0" stroke-width="3.83" fill="#326ce5"/><path d="M-447.53 246.5c-.86.1-1.54.26-2.22.6l-29.67 14.62c-1.63.77-2.74 2.14-3.08 3.93l-7.35 32.92c-.34 1.54-.1 3.08.77 4.45.08.17.17.25.34.42l20.52 26.34c1.1 1.45 2.65 2.22 4.44 2.22h33c1.8 0 3.34-.77 4.45-2.22l20.52-26.34c1.1-1.45 1.53-3.16 1.1-4.87l-7.35-32.92c-.34-1.8-1.45-3.16-3.08-3.93l-29.67-14.62c-.94-.43-1.8-.7-2.73-.6zm0 2.3c.94-.08 1.7.1 2.56.52l28.22 13.85c1.45.77 2.48 2.06 2.9 3.76l6.93 31.13c.34 1.7 0 3.25-1.02 4.6l-19.5 24.98c-1.02 1.37-2.48 2.14-4.2 2.14h-31.28c-1.7 0-3.16-.77-4.2-2.14l-19.48-24.97c-.1-.08-.17-.25-.26-.42-.86-1.3-1.1-2.65-.77-4.2l6.93-31.12c.42-1.7 1.36-3 2.9-3.76l28.22-13.85c.68-.34 1.28-.5 2.05-.6z" stroke="#000" stroke-opacity="0" stroke-width="3.83" fill="#fff"/><path d="M-451.53 319.22c0 2.54-.87 3.8-2.6 3.8-1.1.02-1.82-.4-2.2-1.26h-.03c.02.04.03.42.03 1.15v2.86h-1.18v-8.66c0-.75-.02-1.25-.05-1.5h1.14v.2c.02.12.03.28.04.52l.02.46h.02c.2-.44.5-.77.83-.98.35-.2.8-.32 1.37-.32.87 0 1.52.3 1.95.9.43.6.65 1.55.65 2.84zm-1.24.02c0-1-.13-1.73-.4-2.16-.26-.44-.68-.66-1.26-.66-.47 0-.83.1-1.1.3-.26.2-.46.52-.6.95-.14.42-.2 1-.2 1.67 0 .96.15 1.66.44 2.1.3.46.8.7 1.46.7.58 0 1-.22 1.27-.67.27-.44.4-1.18.4-2.23zM-444.08 319.25c0 1.28-.28 2.23-.82 2.85-.54.62-1.34.93-2.38.93-1.02 0-1.8-.32-2.33-.96-.54-.66-.8-1.6-.8-2.82 0-2.52 1.05-3.77 3.17-3.77 1.08 0 1.87.3 2.38.92.5.6.77 1.56.77 2.85zm-1.24 0c0-1-.15-1.74-.44-2.2-.28-.44-.77-.67-1.45-.67-.7 0-1.2.23-1.5.7-.3.46-.47 1.18-.47 2.17 0 .96.15 1.68.46 2.17.3.48.77.7 1.4.7.72 0 1.23-.2 1.52-.68.3-.47.46-1.2.46-2.2zM-438.16 321.73c-.2.46-.5.8-.86 1-.36.2-.8.3-1.34.3-.9 0-1.55-.3-1.97-.93-.42-.62-.63-1.56-.63-2.8 0-2.56.87-3.82 2.6-3.82.54 0 .98.1 1.34.3.36.2.65.53.86.97h.02l-.02-.8v-3.04h1.18v8.5c0 .75 0 1.26.04 1.5h-1.13l-.04-.5-.03-.67zm-3.56-2.48c0 1.02.13 1.75.4 2.18.25.45.67.67 1.26.67.67 0 1.15-.24 1.45-.72.3-.47.44-1.2.44-2.2 0-.98-.15-1.7-.45-2.13-.3-.45-.78-.68-1.45-.68-.58 0-1 .23-1.28.7-.26.44-.4 1.16-.4 2.18z" stroke="#000" stroke-opacity="0" fill="#fff"/><path d="M-464.43 275.14l17.16-5.13 17.16 5.14-17.17 5.13zM-464.43 277.1v18.82l15.98 9.14.08-23.04zM-430.12 277.1v18.82l-15.98 9.14-.08-23.04z" stroke="#000" stroke-opacity="0" stroke-width="3.77" fill="#fff"/><use xlink:href="#u" transform="matrix(1,0,0,1,-520.0243356103374,341) translate(32.99348958333333 18.50043402777778)"/><path d="M-676.9 114.33c-.82.08-1.47.25-2.12.57l-28.1 13.85c-1.54.73-2.6 2.02-2.92 3.72l-6.96 31.18c-.33 1.46-.08 2.92.73 4.22.08.16.16.24.32.4l19.44 24.95c1.04 1.37 2.5 2.1 4.2 2.1h31.26c1.7 0 3.16-.73 4.22-2.1l19.43-24.95c1.07-1.38 1.47-3 1.07-4.7l-6.97-31.1c-.32-1.7-1.38-3-2.9-3.72l-28.12-13.85c-.9-.4-1.7-.65-2.6-.57z" stroke="#000" stroke-opacity="0" stroke-width="3.83" fill="#326ce5"/><path d="M-676.92 112.08c-.86.1-1.54.26-2.23.6l-29.67 14.62c-1.62.77-2.73 2.14-3.07 3.94l-7.35 32.9c-.34 1.55-.08 3.1.77 4.46.1.17.18.25.35.43l20.52 26.33c1.1 1.45 2.64 2.22 4.43 2.22h33c1.8 0 3.34-.77 4.45-2.22l20.52-26.33c1.1-1.46 1.54-3.17 1.1-4.96l-7.34-32.83c-.34-1.8-1.45-3.17-3.08-3.94l-29.67-14.62c-.93-.43-1.78-.68-2.72-.6zm0 2.3c.94-.07 1.7.1 2.56.53l28.22 13.86c1.45.77 2.48 2.05 2.9 3.76l6.93 31.12c.33 1.7 0 3.25-1.04 4.62l-19.5 24.96c-1.02 1.37-2.47 2.14-4.18 2.14h-31.3c-1.7 0-3.16-.77-4.18-2.14l-19.5-24.96c-.08-.1-.17-.26-.25-.43-.86-1.28-1.12-2.65-.77-4.2l6.92-31.1c.43-1.72 1.37-3 2.9-3.77l28.23-13.85c.68-.34 1.28-.5 2.05-.5z" stroke="#000" stroke-opacity="0" stroke-width="3.83" fill="#fff"/><path d="M-680.64 186.45c0 .7-.25 1.2-.75 1.6-.5.36-1.2.55-2.1.55-.88 0-1.56-.15-2.04-.45-.47-.3-.78-.77-.93-1.4l1.04-.2c.1.38.3.67.62.86.3.2.74.28 1.3.28.6 0 1.03-.1 1.3-.3.28-.18.42-.46.42-.84 0-.3-.1-.52-.3-.7-.18-.17-.5-.32-.9-.44l-.86-.23c-.67-.18-1.15-.35-1.44-.53-.28-.17-.5-.38-.66-.63-.17-.23-.25-.54-.25-.9 0-.66.24-1.16.7-1.5.46-.36 1.13-.54 2-.54.8 0 1.4.15 1.87.43.46.27.75.72.87 1.35l-1.06.13c-.06-.32-.24-.57-.52-.74-.3-.18-.67-.26-1.15-.26-.52 0-.9.1-1.17.25-.25.17-.38.42-.38.75 0 .2.06.38.16.52.12.12.27.25.47.34.2.1.64.22 1.3.4.62.14 1.07.3 1.35.44.27.13.5.3.64.45.16.17.3.36.38.58.08.22.12.47.12.75zM-676.15 188.45h-1.4l-2.56-7.28h1.24l1.56 4.74.45 1.6.23-.78.25-.8 1.6-4.75h1.26zM-671.67 184.8c0 .96.15 1.68.44 2.14.3.47.75.7 1.34.7.43 0 .78-.1 1.05-.35.28-.24.46-.6.53-1.08l1.2.07c-.1.7-.4 1.26-.9 1.67-.47.42-1.1.63-1.84.63-1 0-1.74-.32-2.26-.96-.52-.65-.78-1.6-.78-2.83 0-1.2.26-2.15.78-2.8.52-.63 1.27-.96 2.25-.96.72 0 1.32.2 1.8.6.47.37.77.9.9 1.58l-1.2.1c-.07-.4-.23-.73-.48-.97-.25-.24-.6-.35-1.05-.35-.63 0-1.08.2-1.36.63-.27.43-.4 1.15-.4 2.16z" stroke="#000" stroke-opacity="0" fill="#fff"/><path d="M-702.37 161.34h13.8v9.97h-13.8zM-683.56 161.34h13.78v9.97h-13.78zM-664.75 161.34h13.78v9.97h-13.78zM-687.6 131.78h21.85v9.98h-21.84z" stroke="#000" stroke-opacity="0" stroke-width="3.77" fill="#fff"/><path d="M-677.93 141.75v8.5h-17.53c-.7 0-1.26.58-1.26 1.3v9.78h2.5v-8.5h17.55c.7 0 1.25-.57 1.25-1.3v-9.78z" stroke="#000" stroke-opacity="0" stroke-width="3.77" fill="#fff"/><path d="M-677.92 141.75v9.8c0 .7.56 1.28 1.26 1.28h17.53v8.5h2.5v-9.8c0-.7-.54-1.28-1.24-1.28h-17.55v-8.5z" stroke="#000" stroke-opacity="0" stroke-width="3.77" fill="#fff"/><path d="M-677.96 141.75v9.8c0 .14.02.3.08.44v9.33h2.5v-9.8c0-.15-.02-.3-.07-.44v-9.35z" stroke="#000" stroke-opacity="0" stroke-width="3.77" fill="#fff"/><use xlink:href="#i" transform="matrix(1,0,0,1,-749.4166418333332,206.58325883333407) translate(6.3224826388888715 18.50043402777778)"/><path d="M-635.16 154.83h67.2a6 6 0 0 0 6-6V27.43a6 6 0 0 1 6-6h49.7" stroke="#5e5e5e" stroke-width="2" fill="none"/><path d="M-635.13 155.83h-.8l-.45-2h1.25z" stroke="#5e5e5e" stroke-width=".05" fill="#5e5e5e"/><path d="M-491 21.42l-14.27 4.63v-9.27z" stroke="#5e5e5e" stroke-width="2" fill="#5e5e5e"/><path d="M-635.16 154.83h72.95a.25.25 0 0 1 .24.25.25.25 0 0 0 .25.25h55.43" stroke="#5e5e5e" stroke-width="2" fill="none"/><path d="M-635.13 155.83h-.8l-.45-2h1.25z" stroke="#5e5e5e" stroke-width=".05" fill="#5e5e5e"/><path d="M-491 155.33l-14.27 4.64v-9.27z" stroke="#5e5e5e" stroke-width="2" fill="#5e5e5e"/><path d="M-635.16 154.83h67.2a6 6 0 0 1 6 6v122.42a6 6 0 0 0 6 6h49.7" stroke="#5e5e5e" stroke-width="2" fill="none"/><path d="M-635.13 155.83h-.8l-.45-2h1.25z" stroke="#5e5e5e" stroke-width=".05" fill="#5e5e5e"/><path d="M-491 289.25l-14.27 4.63v-9.26z" stroke="#5e5e5e" stroke-width="2" fill="#5e5e5e"/><path d="M-677 288.13c-1.05.1-1.9.32-2.75.74l-36.87 18.17c-2.02.96-3.4 2.66-3.83 4.9l-9.13 40.9c-.43 1.9-.1 3.82.95 5.52.1.2.22.32.43.53l25.5 32.72c1.38 1.8 3.3 2.76 5.53 2.76h41c2.24 0 4.15-.96 5.53-2.76l25.5-32.73c1.4-1.82 1.92-3.94 1.4-6.17l-9.15-40.8c-.42-2.23-1.8-3.93-3.82-4.9l-36.87-18.16c-1.15-.53-2.22-.85-3.4-.74z" stroke="#000" stroke-opacity="0" stroke-width="3.83" fill="#326ce5"/><path d="M-677 285.17c-1.13.1-2.02.33-2.92.78l-38.92 19.18c-2.13 1-3.6 2.8-4.04 5.16l-9.65 43.18c-.44 2-.1 4.03 1 5.83.13.23.24.34.46.57l26.92 34.55c1.46 1.9 3.48 2.9 5.83 2.9h43.3c2.36 0 4.38-1 5.83-2.9l26.93-34.55c1.46-1.9 2.02-4.15 1.46-6.4l-9.65-43.18c-.45-2.36-1.9-4.16-4.04-5.17l-38.9-19.18c-1.25-.56-2.37-.9-3.6-.78zm0 3.02c1.23-.12 2.24.1 3.36.67l37.02 18.17c1.9 1 3.25 2.7 3.8 4.94l9.1 40.82c.45 2.25 0 4.27-1.35 6.06l-25.57 32.75c-1.35 1.8-3.26 2.82-5.5 2.82h-41.05c-2.24 0-4.14-1-5.5-2.8l-25.56-32.76c-.12-.1-.23-.34-.34-.56-1.12-1.68-1.46-3.48-1-5.5l9.08-40.82c.56-2.25 1.8-3.93 3.8-4.94l37.02-18.17c.9-.45 1.7-.68 2.7-.8z" stroke="#000" stroke-opacity="0" stroke-width="3.83" fill="#fff"/><path d="M-689.03 312.3v4.8h3.3V314h6.8v-3.4h-8.43c-1.36 0-1.67.46-1.67 1.7zm16.67 1.7h13.16v-3.4h-13.16zm19.74 0h4.16v5.88h3.3v-7.57c0-1.34-.7-1.67-1.67-1.7h-5.8zm-36.4 11.58v11.86h3.28v-13.57h-3.3zm40.56 2.78v11.9h3.3v-13.6h-3.3zm-36.45 15h13.15v-3.4h-13.16zm27.23 0h5.66v-3.4h-5.67z" stroke="#000" stroke-opacity="0" stroke-width="3.77" fill="#fff"/><path d="M-698.6 321.35v6.16h3.3v-4.44h5.48v-3.4h-7.1c-1.37 0-1.68.45-1.68 1.7zm15.4 1.7h13.1v-3.4h-13.1zm19.7 0h5.48v4.53h3.3v-6.23c0-1.05-.45-1.73-1.64-1.7h-7.15zM-698.6 336v11.86h3.3V334.3h-3.3zm40.58.06v11.86h3.3v-13.56h-3.3zm-35.14 16.35H-680v-3.36h-13.16zm19.74 0h13.16v-3.36h-13.16z" stroke="#000" stroke-opacity="0" stroke-width="3.77" fill="#fff"/><path d="M-708.16 359.83V328.7l42 .03c1.3 0 1.88 1.1 1.88 1.93l-.05 29.1c-.04 1.12-.92 1.74-1.8 1.7h-40.36c-.74 0-1.7-.62-1.66-1.63z" stroke="#000" stroke-opacity="0" stroke-width="3.77" fill="#fff"/><path d="M-686.55 331.66c-4.8 0-9.16.56-12.43 1.5-1.64.5-3.02 1.08-4.14 1.83-1.08.74-2.04 1.84-2.04 3.34v13.48c0 1.5.96 2.57 2.04 3.32 1.12.78 2.5 1.35 4.14 1.83 3.27.96 7.63 1.53 12.43 1.53s9.16-.56 12.44-1.53c1.63-.5 3-1.05 4.12-1.83 1.08-.75 2.05-1.82 2.05-3.32v-13.48c0-1.5-.97-2.6-2.05-3.35-1.12-.76-2.5-1.35-4.13-1.84-3.3-.94-7.64-1.5-12.45-1.5zm0 3.38c4.54 0 8.68.56 11.54 1.4 1.45.43 2.53.94 3.16 1.37.63.44.63.65.63.54 0-.13 0 .08-.64.54-.63.43-1.7.9-3.16 1.34-2.87.83-7 1.4-11.55 1.4-4.54 0-8.67-.57-11.54-1.4-1.44-.43-2.52-.9-3.15-1.34-.64-.46-.64-.67-.64-.54 0 .1 0-.1.65-.53.63-.42 1.7-.93 3.16-1.36 2.88-.83 7-1.4 11.55-1.4zm-15.34 7.17c.9.46 1.76.95 2.92 1.3 3.27.96 7.63 1.52 12.43 1.52s9.16-.56 12.44-1.52c1.14-.35 2-.84 2.9-1.3v9.62c0-.1 0 .1-.64.53-.63.43-1.7.94-3.16 1.34-2.87.85-7 1.42-11.55 1.42-4.54 0-8.67-.57-11.54-1.43-1.44-.4-2.52-.92-3.15-1.35-.64-.43-.64-.64-.64-.53z" stroke="#000" stroke-opacity="0" stroke-width="3.77" fill="#326ce5"/><path d="M-680.36 382.8c0 .9-.33 1.6-1 2.1-.65.5-1.57.73-2.76.73-1.15 0-2.05-.2-2.67-.58-.6-.4-1.02-1-1.2-1.84l1.35-.27c.13.52.4.9.8 1.14.43.24 1 .36 1.73.36.78 0 1.35-.13 1.7-.38.38-.25.56-.62.56-1.12 0-.37-.12-.68-.37-.92-.26-.2-.66-.4-1.22-.56l-1.1-.3c-.9-.24-1.53-.47-1.9-.7-.38-.22-.67-.5-.87-.83-.22-.3-.32-.7-.32-1.17 0-.87.3-1.54.9-2 .6-.45 1.48-.68 2.64-.68 1.02 0 1.83.2 2.43.55.6.38 1 .97 1.15 1.8l-1.4.17c-.08-.43-.3-.75-.68-.98-.38-.24-.87-.35-1.5-.35-.7 0-1.22.1-1.55.33-.33.22-.5.54-.5 1 0 .26.07.48.2.66.15.17.35.33.62.44.27.13.83.3 1.7.52.8.2 1.4.4 1.76.6.36.17.65.37.85.58.2.22.38.47.5.77.1.27.16.6.16.96zM-674.98 385.44c-.5.14-1.02.2-1.55.2-1.24 0-1.86-.7-1.86-2.15v-6.4h-1.06v-1.14h1.13l.46-2.14h1.03v2.14h1.7v1.15h-1.7v6.04c0 .47.07.8.2.98.16.2.4.27.77.27.2 0 .5-.05.9-.13zM-666.72 382.8c0 .9-.33 1.6-1 2.1-.65.5-1.57.73-2.76.73-1.15 0-2.05-.2-2.67-.58-.62-.4-1.03-1-1.22-1.84l1.36-.27c.12.52.4.9.8 1.14.42.24 1 .36 1.72.36.78 0 1.35-.13 1.7-.38.38-.25.56-.62.56-1.12 0-.37-.12-.68-.37-.92-.25-.2-.65-.4-1.2-.56l-1.12-.3c-.88-.24-1.5-.47-1.9-.7-.36-.22-.65-.5-.86-.83-.22-.3-.32-.7-.32-1.17 0-.87.3-1.54.9-2 .6-.45 1.5-.68 2.64-.68 1.02 0 1.83.2 2.43.55.6.38 1 .97 1.15 1.8l-1.4.17c-.08-.43-.3-.75-.68-.98-.38-.24-.87-.35-1.5-.35-.7 0-1.22.1-1.54.33-.33.22-.5.54-.5 1 0 .26.07.48.2.66.14.17.34.33.62.44.26.13.83.3 1.7.52.8.2 1.4.4 1.75.6.36.17.65.37.85.58.2.22.38.47.5.77.1.27.16.6.16.96z" stroke="#000" stroke-opacity="0" fill="#fff"/><use xlink:href="#v" transform="matrix(1,0,0,1,-762.7499751666667,406.3333333333335) translate(59.82899305555556 18.50043402777778)"/><path d="M-676.9-19.09v.02c-.82.08-1.47.24-2.12.56l-28.1 13.85c-1.54.73-2.6 2.03-2.92 3.73L-717 30.24c-.33 1.46-.08 2.9.73 4.2.08.17.16.25.32.4l19.44 24.96c1.04 1.38 2.5 2.1 4.2 2.1h31.26c1.7 0 3.16-.72 4.22-2.1l19.43-24.95c1.07-1.37 1.47-3 1.07-4.7l-6.97-31.1c-.32-1.7-1.38-3-2.9-3.72l-28.12-13.85c-.9-.4-1.7-.65-2.6-.57z" stroke="#000" stroke-opacity="0" stroke-width="3.83" fill="#326ce5"/><path d="M-676.92-21.33c-.86.08-1.54.25-2.23.6l-29.67 14.62c-1.62.75-2.73 2.12-3.07 3.92l-7.35 32.92c-.34 1.54-.08 3.07.77 4.44.1.17.18.26.35.43l20.52 26.34c1.1 1.46 2.64 2.23 4.43 2.23h33c1.8 0 3.34-.77 4.45-2.23l20.52-26.33c1.1-1.44 1.54-3.15 1.1-4.95l-7.34-32.83c-.34-1.8-1.45-3.16-3.08-3.93l-29.67-14.63c-.93-.43-1.78-.7-2.72-.6zm0 2.3c.94-.08 1.7.1 2.56.52l28.22 13.84c1.45.77 2.48 2.05 2.9 3.76l6.93 31.12c.33 1.7 0 3.25-1.04 4.62l-19.5 24.97c-1.02 1.37-2.47 2.14-4.18 2.14h-31.3c-1.7 0-3.16-.77-4.18-2.13L-716 34.85c-.08-.1-.17-.26-.25-.43-.86-1.27-1.12-2.64-.77-4.18L-710.1-.9c.43-1.7 1.37-3 2.9-3.76l28.23-13.85c.68-.35 1.28-.52 2.05-.52z" stroke="#000" stroke-opacity="0" stroke-width="3.83" fill="#fff"/><path d="M-680.64 53.03c0 .7-.25 1.22-.75 1.6-.5.36-1.2.55-2.1.55-.88 0-1.56-.15-2.04-.44-.47-.3-.78-.77-.93-1.4l1.04-.22c.1.4.3.68.62.87.3.17.74.26 1.3.26.6 0 1.03-.1 1.3-.28.28-.2.42-.48.42-.86 0-.28-.1-.52-.3-.7-.18-.17-.5-.32-.9-.44l-.86-.23c-.67-.18-1.15-.35-1.44-.52-.28-.18-.5-.4-.66-.64-.17-.25-.25-.56-.25-.9 0-.68.24-1.18.7-1.53.46-.35 1.13-.52 2-.52.8 0 1.4.14 1.87.42.46.28.75.74.87 1.36l-1.06.14c-.06-.33-.24-.58-.52-.75-.3-.17-.67-.26-1.15-.26-.52 0-.9.1-1.17.25-.25.18-.38.43-.38.77 0 .2.06.37.16.5.12.14.27.26.47.35.2.1.64.23 1.3.4.62.15 1.07.3 1.35.44.27.14.5.3.64.46.16.16.3.35.38.58.08.2.12.45.12.73zM-676.15 55.04h-1.4l-2.56-7.3h1.24l1.56 4.75.45 1.6.23-.8.25-.8 1.6-4.75h1.26zM-671.67 51.38c0 .96.15 1.68.44 2.15.3.47.75.7 1.34.7.43 0 .78-.12 1.05-.35.28-.24.46-.6.53-1.08l1.2.08c-.1.7-.4 1.26-.9 1.67-.47.42-1.1.63-1.84.63-1 0-1.74-.3-2.26-.96-.52-.65-.78-1.58-.78-2.82 0-1.23.26-2.16.78-2.8.52-.65 1.27-.97 2.25-.97.72 0 1.32.2 1.8.58.47.4.77.92.9 1.6l-1.2.1c-.07-.4-.23-.73-.48-.96-.25-.25-.6-.36-1.05-.36-.63 0-1.08.2-1.36.63-.27.45-.4 1.16-.4 2.17z" stroke="#000" stroke-opacity="0" fill="#fff"/><path d="M-702.37 27.92h13.8v9.98h-13.8zM-683.56 27.92h13.78v9.98h-13.78zM-664.75 27.92h13.78v9.98h-13.78zM-687.6-1.64h21.85v9.98h-21.84z" stroke="#000" stroke-opacity="0" stroke-width="3.77" fill="#fff"/><path d="M-677.93 8.33v8.5h-17.53c-.7 0-1.26.6-1.26 1.3v9.78h2.5v-8.5h17.55c.7 0 1.25-.55 1.25-1.28v-9.8z" stroke="#000" stroke-opacity="0" stroke-width="3.77" fill="#fff"/><path d="M-677.92 8.33v9.8c0 .72.56 1.28 1.26 1.28h17.53v8.5h2.5v-9.78c0-.7-.54-1.3-1.24-1.3h-17.55v-8.5z" stroke="#000" stroke-opacity="0" stroke-width="3.77" fill="#fff"/><path d="M-677.96 8.33v9.8c0 .15.02.3.08.44v9.34h2.5v-9.78c0-.16-.02-.3-.07-.45V8.33z" stroke="#000" stroke-opacity="0" stroke-width="3.77" fill="#fff"/><use xlink:href="#q" transform="matrix(1,0,0,1,-749.4166418333332,73.16661700000031) translate(37.25925925925926 17.77777777777778)"/><path d="M-1029.7-128H-916a6 6 0 0 1 6 6v270.83a6 6 0 0 0 6 6h168.33" stroke="#6f7681" stroke-width="2" fill="none"/><path d="M-1029.68-127h-1.06l.04-1-.07-1h1.1z" stroke="#6f7681" stroke-width=".05" fill="#6f7681"/><path d="M-720.4 154.83l-14.27 4.64v-9.27z" stroke="#6f7681" stroke-width="2" fill="#6f7681"/><path d="M-1320-664.67a6 6 0 0 1 6-6h308a6 6 0 0 1 6 6v108a6 6 0 0 1-6 6h-308a6 6 0 0 1-6-6z" fill="#fff" fill-opacity="0"/><path d="M-1288-670.67h-26a6 6 0 0 0-6 6v108a6 6 0 0 0 6 6h26" stroke="#6f7681" stroke-width="3" fill="none"/><g><use xlink:href="#w" transform="matrix(1,0,0,1,-1295,-665.6666666666665) translate(0 59.44444444444444)"/><use xlink:href="#x" transform="matrix(1,0,0,1,-1295,-665.6666666666665) translate(55.55555555555556 59.44444444444444)"/><use xlink:href="#y" transform="matrix(1,0,0,1,-1295,-665.6666666666665) translate(149.25925925925927 59.44444444444444)"/><use xlink:href="#z" transform="matrix(1,0,0,1,-1295,-665.6666666666665) translate(225.67901234567904 59.44444444444444)"/></g><path d="M-999.1-610.23l1.77.87m7.08 3.46l3.54 1.73m7.06 3.46l3.54 1.72m7.08 3.47l3.54 1.72m7.08 3.46l3.54 1.73m7.08 3.47l3.54 1.73m7.08 3.46l3.53 1.74m7.08 3.46L-923-573m7.07 3.45l3.54 1.73m7.1 3.46l3.53 1.73m7.08 3.47l3.55 1.73m7.07 3.46l3.54 1.73m7.08 3.46l3.54 1.73m7.08 3.46l3.54 1.74m7.08 3.47l3.54 1.74m7.07 3.46l3.53 1.73M-831-528l3.55 1.72m7.08 3.46l3.54 1.74m7.08 3.46l3.54 1.73m7.07 3.47l3.53 1.73m7.08 3.46l3.54 1.73m7.08 3.45l3.54 1.74m7.08 3.45l3.54 1.73m7.08 3.46l3.54 1.73m7.08 3.46l3.53 1.73m7.07 3.47l3.54 1.73m7.1 3.46l3.53 1.73m7.08 3.46l1.78.88" stroke="#6f7681" stroke-width="2" fill="none"/><path d="M-998.64-611.1l-.88 1.78-.48-.23v-2.23zM-711.1-470.5l-.8 1.74-.02.1-.97-.48.9-1.8z" stroke="#6f7681" stroke-width=".05" fill="#6f7681"/><defs><path fill="#408db7" d="M169-182c-1-43-94-46-97-3 18 66 151 10 154 114 3 95-165 93-204 36-6-8-10-19-12-30l50-8c3 46 112 56 116 5-17-69-150-10-154-114-4-87 153-88 188-35 5 8 8 18 10 28" id="A"/><path fill="#408db7" d="M185-48c-13 30-37 53-82 52C43 2 14-33 14-96s30-98 90-98c62 0 83 45 84 108H66c0 31 8 55 39 56 18 0 30-7 34-22zm-45-69c5-46-57-63-70-21-2 6-4 13-4 21h74" id="B"/><path fill="#408db7" d="M135-150c-39-12-60 13-60 57V0H25l-1-190h47c2 13-1 29 3 40 6-28 27-53 61-41v41" id="C"/><path fill="#408db7" d="M128 0H69L1-190h53L99-40l48-150h52" id="D"/><path fill="#408db7" d="M25-224v-37h50v37H25zM25 0v-190h50V0H25" id="E"/><path fill="#408db7" d="M190-63c-7 42-38 67-86 67-59 0-84-38-90-98-12-110 154-137 174-36l-49 2c-2-19-15-32-35-32-30 0-35 28-38 64-6 74 65 87 74 30" id="F"/><g id="a"><use transform="matrix(0.07407407407407407,0,0,0.07407407407407407,0,0)" xlink:href="#A"/><use transform="matrix(0.07407407407407407,0,0,0.07407407407407407,17.77777777777778,0)" xlink:href="#B"/><use transform="matrix(0.07407407407407407,0,0,0.07407407407407407,32.592592592592595,0)" xlink:href="#C"/><use transform="matrix(0.07407407407407407,0,0,0.07407407407407407,42.96296296296296,0)" xlink:href="#D"/><use transform="matrix(0.07407407407407407,0,0,0.07407407407407407,57.77777777777777,0)" xlink:href="#E"/><use transform="matrix(0.07407407407407407,0,0,0.07407407407407407,65.18518518518518,0)" xlink:href="#F"/><use transform="matrix(0.07407407407407407,0,0,0.07407407407407407,79.99999999999999,0)" xlink:href="#B"/></g><path fill="#408db7" d="M230 0l2-204L168 0h-37L68-204 70 0H24v-248h70l56 185 57-185h69V0h-46" id="G"/><path fill="#408db7" d="M137-138c1-29-70-34-71-4 15 46 118 7 119 86 1 83-164 76-172 9l43-7c4 19 20 25 44 25 33 8 57-30 24-41C81-84 22-81 20-136c-2-80 154-74 161-7" id="H"/><path fill="#408db7" d="M114-157C55-157 80-60 75 0H25v-261h50l-1 109c12-26 28-41 61-42 86-1 58 113 63 194h-50c-7-57 23-157-34-157" id="I"/><g id="b"><use transform="matrix(0.07407407407407407,0,0,0.07407407407407407,0,0)" xlink:href="#G"/><use transform="matrix(0.07407407407407407,0,0,0.07407407407407407,22.148148148148145,0)" xlink:href="#B"/><use transform="matrix(0.07407407407407407,0,0,0.07407407407407407,36.96296296296296,0)" xlink:href="#H"/><use transform="matrix(0.07407407407407407,0,0,0.07407407407407407,51.77777777777777,0)" xlink:href="#I"/></g><path d="M522-1456L896-400l372-1056h394V0h-301c-7-379 15-728 30-1085L998 0H792L400-1084c15 357 37 705 30 1084H130v-1456h392" id="J"/><path d="M1031-175C952-60 797 20 609 20 287 20 60-206 72-543c12-330 180-559 505-559 309 0 482 214 477 537v118H365c15 134 115 234 263 234 111 0 198-40 261-121zM770-644c5-139-62-226-194-224-130 1-191 97-208 224h402" id="K"/><path d="M741-689c-2-124-40-177-163-178-82 0-141 34-178 102V0H111v-1082h271l9 121c77-94 180-141 311-141 139 0 235 55 287 165 76-110 184-165 325-165 249 0 348 151 348 411V0h-290v-690c-2-123-39-176-163-177-87 0-147 41-180 124l1 743H741v-689" id="L"/><path d="M663-1102c295 0 423 246 423 571 0 313-131 551-421 551-117 0-211-45-281-135L371 0H111v-1536h289v551c67-78 154-117 263-117zm-71 889c164 0 209-139 205-339-3-189-44-315-207-315-92 0-155 38-190 113v427c35 76 99 114 192 114" id="M"/><path d="M719-811c-143-24-279 1-319 103V0H111v-1082h273l8 129c74-124 180-175 331-136" id="N"/><g id="c"><use transform="matrix(0.013129340277777775,0,0,0.013129340277777775,0,0)" xlink:href="#J"/><use transform="matrix(0.013129340277777775,0,0,0.013129340277777775,23.55403645833333,0)" xlink:href="#K"/><use transform="matrix(0.013129340277777775,0,0,0.013129340277777775,38.08821614583333,0)" xlink:href="#L"/><use transform="matrix(0.013129340277777775,0,0,0.013129340277777775,61.36653645833332,0)" xlink:href="#M"/><use transform="matrix(0.013129340277777775,0,0,0.013129340277777775,76.5046657986111,0)" xlink:href="#K"/><use transform="matrix(0.013129340277777775,0,0,0.013129340277777775,91.0388454861111,0)" xlink:href="#N"/></g><path d="M687-225c189-1 272-84 286-260h300c-19 311-251 505-586 505C296 20 86-277 86-686c0-466 174-782 605-790 340-6 557 198 584 514H975c-15-183-92-268-284-268-100 0-173 38-225 108-63 84-76 264-76 443 0 157 24 272 72 345s122 109 225 109" id="O"/><path d="M416 0H126v-1536h290V0" id="P"/><path d="M463 20c-241-1-359-147-359-393v-709h289v699c0 113 51 169 154 169 98 0 165-34 202-102v-766h290V0H767l-8-110C688-23 589 20 463 20" id="Q"/><path d="M529-185c94 0 168-33 168-114 0-35-18-63-53-83s-91-39-168-55C219-491 90-600 90-765c0-208 203-337 432-337 246 0 451 124 453 349H686c-2-91-62-143-165-143-86 0-151 41-153 117 0 32 16 57 46 77 63 43 257 69 335 100 151 60 229 153 229 291C978-13 554 93 282-28 162-81 60-190 56-344h274c5 106 86 159 199 159" id="R"/><path d="M457-330c2 83 25 111 111 112 32 0 60-2 85-7V-6c-57 17-115 26-175 26-203 0-310-102-310-307v-583H10v-212h158v-266h289v266h185v212H457v540" id="S"/><g id="d"><use transform="matrix(0.013129340277777775,0,0,0.013129340277777775,0,0)" xlink:href="#O"/><use transform="matrix(0.013129340277777775,0,0,0.013129340277777775,17.593315972222218,0)" xlink:href="#P"/><use transform="matrix(0.013129340277777775,0,0,0.013129340277777775,24.72254774305555,0)" xlink:href="#Q"/><use transform="matrix(0.013129340277777775,0,0,0.013129340277777775,39.76877170138888,0)" xlink:href="#R"/><use transform="matrix(0.013129340277777775,0,0,0.013129340277777775,53.59396701388887,0)" xlink:href="#S"/><use transform="matrix(0.013129340277777775,0,0,0.013129340277777775,62.67947048611109,0)" xlink:href="#K"/><use transform="matrix(0.013129340277777775,0,0,0.013129340277777775,77.21365017361109,0)" xlink:href="#N"/></g><path d="M586-1476c342 0 491 246 493 606v268c2 370-143 622-491 622C246 20 97-227 95-587v-268c-2-372 145-621 491-621zm204 926c0-199 18-488-50-610-58-105-243-107-304-4-71 121-52 402-52 600 0 119 19 205 48 264 54 112 254 115 309 4 28-57 49-140 49-254" id="T"/><use transform="matrix(0.013129340277777775,0,0,0.013129340277777775,0,0)" xlink:href="#T" id="e"/><path fill="#333" d="M615-1102c343 0 484 203 482 560-1 347-147 562-488 562-336 0-475-219-479-562-4-349 156-560 485-560zm-8 989c240 0 301-180 301-429 0-245-55-427-290-427-236 0-299 181-299 427 0 243 61 429 288 429" id="U"/><path fill="#333" d="M904-1102c199 0 220 177 220 381V0H956v-686c-3-114 0-215-60-264-70-33-125-4-158 71-26 56-39 140-39 252V0H531v-686c-3-114-1-215-61-264-78-41-136 24-157 84-24 69-39 159-39 259V0H105c-3-360 6-732-6-1082h149c6 50 3 123 8 175 36-100 83-195 216-195 135 0 166 79 196 196 42-105 93-196 236-196" id="V"/><path fill="#333" d="M334-464v-160h560v160H334" id="W"/><path fill="#333" d="M1065-1013c47 164 49 500-1 665C999-130 875 20 611 20c-377 0-484-300-487-695-2-245 41-425 141-551 77-98 191-144 352-144 261 0 386 140 448 357zM741-155c199-92 203-504 159-785-26-168-96-284-283-284-281 0-308 256-311 549-2 181 18 324 80 428 46 77 115 118 227 120 47 0 90-10 128-28" id="X"/><g id="f"><use transform="matrix(0.010850694444444444,0,0,0.010850694444444444,0,0)" xlink:href="#U"/><use transform="matrix(0.010850694444444444,0,0,0.010850694444444444,13.335503472222221,0)" xlink:href="#V"/><use transform="matrix(0.010850694444444444,0,0,0.010850694444444444,26.671006944444443,0)" xlink:href="#W"/><use transform="matrix(0.010850694444444444,0,0,0.010850694444444444,40.006510416666664,0)" xlink:href="#X"/><use transform="matrix(0.010850694444444444,0,0,0.010850694444444444,53.342013888888886,0)" xlink:href="#W"/><use transform="matrix(0.010850694444444444,0,0,0.010850694444444444,66.67751736111111,0)" xlink:href="#X"/></g><path fill="#333" d="M148-1120c216-7 379-89 463-229h166v1204h353V0H157v-145h439v-1021c-79 124-254 184-448 194v-148" id="Y"/><g id="g"><use transform="matrix(0.010850694444444444,0,0,0.010850694444444444,0,0)" xlink:href="#U"/><use transform="matrix(0.010850694444444444,0,0,0.010850694444444444,13.335503472222221,0)" xlink:href="#V"/><use transform="matrix(0.010850694444444444,0,0,0.010850694444444444,26.671006944444443,0)" xlink:href="#W"/><use transform="matrix(0.010850694444444444,0,0,0.010850694444444444,40.006510416666664,0)" xlink:href="#X"/><use transform="matrix(0.010850694444444444,0,0,0.010850694444444444,53.342013888888886,0)" xlink:href="#W"/><use transform="matrix(0.010850694444444444,0,0,0.010850694444444444,66.67751736111111,0)" xlink:href="#Y"/></g><path fill="#333" d="M611-1370c266 0 451 106 451 368 0 147-77 243-154 327-132 144-316 255-451 395-42 44-75 87-96 134h723V0H144v-117c124-264 387-411 582-603 73-72 151-147 151-271 0-161-104-231-266-231-163 0-249 90-268 238l-184-17c35-233 185-369 452-369" id="Z"/><g id="h"><use transform="matrix(0.010850694444444444,0,0,0.010850694444444444,0,0)" xlink:href="#U"/><use transform="matrix(0.010850694444444444,0,0,0.010850694444444444,13.335503472222221,0)" xlink:href="#V"/><use transform="matrix(0.010850694444444444,0,0,0.010850694444444444,26.671006944444443,0)" xlink:href="#W"/><use transform="matrix(0.010850694444444444,0,0,0.010850694444444444,40.006510416666664,0)" xlink:href="#X"/><use transform="matrix(0.010850694444444444,0,0,0.010850694444444444,53.342013888888886,0)" xlink:href="#W"/><use transform="matrix(0.010850694444444444,0,0,0.010850694444444444,66.67751736111111,0)" xlink:href="#Z"/></g><path fill="#333" d="M873-819c-18-114-119-146-250-146-163 0-245 50-245 151 0 151 170 148 294 185 182 54 388 94 388 320 0 240-189 325-439 329-245 4-410-69-454-268l159-31c24 133 136 168 295 165 144-2 270-31 270-171 0-164-195-160-331-202-167-52-350-87-350-299 0-218 173-315 413-313 220 2 373 77 412 260" id="aa"/><path fill="#333" d="M715 0H502L69-1082h202c94 253 197 500 285 758 19 57 36 126 52 183 96-335 234-626 350-941h201" id="ab"/><path fill="#333" d="M631 20c-350 0-501-215-501-562 0-355 162-560 502-560 250 0 399 118 446 323l-192 14c-23-124-109-196-262-196-242 0-305 171-305 415 1 245 61 427 304 427 151 0 248-77 267-215l190 12C1039-107 883 20 631 20" id="ac"/><path fill="#333" d="M617-1102c355 0 481 238 477 599H322c5 222 84 388 301 388 144 0 244-59 284-166l158 45C1002-72 854 20 623 20c-342 0-490-220-490-568 0-346 151-554 484-554zm291 461c-18-192-90-328-289-328-194 0-287 128-295 328h584" id="ad"/><path fill="#333" d="M932 0L611-444 288 0H94l415-556-397-526h199l300 421 298-421h201L713-558 1133 0H932" id="ae"/><path fill="#333" d="M682 16c-209 0-323-80-324-285v-671H190v-142h170l58-282h120v282h432v142H538v652c2 114 60 155 182 155 106 0 209-16 297-34v137C921-4 806 16 682 16" id="af"/><g id="i"><use transform="matrix(0.010850694444444444,0,0,0.010850694444444444,0,0)" xlink:href="#U"/><use transform="matrix(0.010850694444444444,0,0,0.010850694444444444,13.335503472222221,0)" xlink:href="#V"/><use transform="matrix(0.010850694444444444,0,0,0.010850694444444444,26.671006944444443,0)" xlink:href="#W"/><use transform="matrix(0.010850694444444444,0,0,0.010850694444444444,40.006510416666664,0)" xlink:href="#aa"/><use transform="matrix(0.010850694444444444,0,0,0.010850694444444444,53.342013888888886,0)" xlink:href="#ab"/><use transform="matrix(0.010850694444444444,0,0,0.010850694444444444,66.67751736111111,0)" xlink:href="#ac"/><use transform="matrix(0.010850694444444444,0,0,0.010850694444444444,80.01302083333334,0)" xlink:href="#W"/><use transform="matrix(0.010850694444444444,0,0,0.010850694444444444,93.34852430555557,0)" xlink:href="#ad"/><use transform="matrix(0.010850694444444444,0,0,0.010850694444444444,106.6840277777778,0)" xlink:href="#ae"/><use transform="matrix(0.010850694444444444,0,0,0.010850694444444444,120.01953125000003,0)" xlink:href="#af"/></g><path fill="#333" d="M190 0L58-211 59 0H30v-248h39L202-35l-2-213h31V0h-41" id="ag"/><path fill="#333" d="M100-194c63 0 86 42 84 106H49c0 40 14 67 53 68 26 1 43-12 49-29l28 8c-11 28-37 45-77 45C44 4 14-33 15-96c1-61 26-98 85-98zm52 81c6-60-76-77-97-28-3 7-6 17-6 28h103" id="ah"/><path fill="#333" d="M59-47c-2 24 18 29 38 22v24C64 9 27 4 27-40v-127H5v-23h24l9-43h21v43h35v23H59v120" id="ai"/><path fill="#333" d="M206 0h-36l-40-164L89 0H53L-1-190h32L70-26l43-164h34l41 164 42-164h31" id="aj"/><path fill="#333" d="M100-194c62-1 85 37 85 99 1 63-27 99-86 99S16-35 15-95c0-66 28-99 85-99zM99-20c44 1 53-31 53-75 0-43-8-75-51-75s-53 32-53 75 10 74 51 75" id="ak"/><path fill="#333" d="M114-163C36-179 61-72 57 0H25l-1-190h30c1 12-1 29 2 39 6-27 23-49 58-41v29" id="al"/><path fill="#333" d="M143 0L79-87 56-68V0H24v-261h32v163l83-92h37l-77 82L181 0h-38" id="am"/><g id="j"><use transform="matrix(0.06172839506172839,0,0,0.06172839506172839,0,0)" xlink:href="#ag"/><use transform="matrix(0.06172839506172839,0,0,0.06172839506172839,15.987654320987653,0)" xlink:href="#ah"/><use transform="matrix(0.06172839506172839,0,0,0.06172839506172839,28.333333333333332,0)" xlink:href="#ai"/><use transform="matrix(0.06172839506172839,0,0,0.06172839506172839,34.50617283950617,0)" xlink:href="#aj"/><use transform="matrix(0.06172839506172839,0,0,0.06172839506172839,50.49382716049382,0)" xlink:href="#ak"/><use transform="matrix(0.06172839506172839,0,0,0.06172839506172839,62.8395061728395,0)" xlink:href="#al"/><use transform="matrix(0.06172839506172839,0,0,0.06172839506172839,70.18518518518518,0)" xlink:href="#am"/></g><path fill="#333" d="M30 0v-248h33v221h125V0H30" id="an"/><path fill="#333" d="M141-36C126-15 110 5 73 4 37 3 15-17 15-53c-1-64 63-63 125-63 3-35-9-54-41-54-24 1-41 7-42 31l-33-3c5-37 33-52 76-52 45 0 72 20 72 64v82c-1 20 7 32 28 27v20c-31 9-61-2-59-35zM48-53c0 20 12 33 32 33 41-3 63-29 60-74-43 2-92-5-92 41" id="ao"/><path fill="#333" d="M85-194c31 0 48 13 60 33l-1-100h32l1 261h-30c-2-10 0-23-3-31C134-8 116 4 85 4 32 4 16-35 15-94c0-66 23-100 70-100zm9 24c-40 0-46 34-46 75 0 40 6 74 45 74 42 0 51-32 51-76 0-42-9-74-50-73" id="ap"/><g id="k"><use transform="matrix(0.06172839506172839,0,0,0.06172839506172839,0,0)" xlink:href="#an"/><use transform="matrix(0.06172839506172839,0,0,0.06172839506172839,12.345679012345679,0)" xlink:href="#ak"/><use transform="matrix(0.06172839506172839,0,0,0.06172839506172839,24.691358024691358,0)" xlink:href="#ao"/><use transform="matrix(0.06172839506172839,0,0,0.06172839506172839,37.03703703703704,0)" xlink:href="#ap"/></g><path fill="#333" d="M160-131c35 5 61 23 61 61C221 17 115-2 30 0v-248c76 3 177-17 177 60 0 33-19 50-47 57zm-97-11c50-1 110 9 110-42 0-47-63-36-110-37v79zm0 115c55-2 124 14 124-45 0-56-70-42-124-44v89" id="aq"/><path fill="#333" d="M24 0v-261h32V0H24" id="ar"/><path fill="#333" d="M117-194c89-4 53 116 60 194h-32v-121c0-31-8-49-39-48C34-167 62-67 57 0H25l-1-190h30c1 10-1 24 2 32 11-22 29-35 61-36" id="as"/><path fill="#333" d="M96-169c-40 0-48 33-48 73s9 75 48 75c24 0 41-14 43-38l32 2c-6 37-31 61-74 61-59 0-76-41-82-99-10-93 101-131 147-64 4 7 5 14 7 22l-32 3c-4-21-16-35-41-35" id="at"/><g id="l"><use transform="matrix(0.06172839506172839,0,0,0.06172839506172839,0,0)" xlink:href="#aq"/><use transform="matrix(0.06172839506172839,0,0,0.06172839506172839,14.814814814814813,0)" xlink:href="#ao"/><use transform="matrix(0.06172839506172839,0,0,0.06172839506172839,27.160493827160494,0)" xlink:href="#ar"/><use transform="matrix(0.06172839506172839,0,0,0.06172839506172839,32.03703703703704,0)" xlink:href="#ao"/><use transform="matrix(0.06172839506172839,0,0,0.06172839506172839,44.382716049382715,0)" xlink:href="#as"/><use transform="matrix(0.06172839506172839,0,0,0.06172839506172839,56.72839506172839,0)" xlink:href="#at"/><use transform="matrix(0.06172839506172839,0,0,0.06172839506172839,67.8395061728395,0)" xlink:href="#ah"/><use transform="matrix(0.06172839506172839,0,0,0.06172839506172839,80.18518518518519,0)" xlink:href="#al"/></g><path fill="#333" d="M106-169C34-169 62-67 57 0H25v-261h32l-1 103c12-21 28-36 61-36 89 0 53 116 60 194h-32v-121c2-32-8-49-39-48" id="au"/><path fill="#333" d="M115-194c55 1 70 41 70 98S169 2 115 4C84 4 66-9 55-30l1 105H24l-1-265h31l2 30c10-21 28-34 59-34zm-8 174c40 0 45-34 45-75s-6-73-45-74c-42 0-51 32-51 76 0 43 10 73 51 73" id="av"/><path fill="#333" d="M135-143c-3-34-86-38-87 0 15 53 115 12 119 90S17 21 10-45l28-5c4 36 97 45 98 0-10-56-113-15-118-90-4-57 82-63 122-42 12 7 21 19 24 35" id="aw"/><path fill="#333" d="M33-154v-36h34v36H33zM33 0v-36h34V0H33" id="ax"/><path fill="#333" d="M0 4l72-265h28L28 4H0" id="ay"/><path fill="#333" d="M210-169c-67 3-38 105-44 169h-31v-121c0-29-5-50-35-48C34-165 62-65 56 0H25l-1-190h30c1 10-1 24 2 32 10-44 99-50 107 0 11-21 27-35 58-36 85-2 47 119 55 194h-31v-121c0-29-5-49-35-48" id="az"/><path fill="#333" d="M33 0v-38h34V0H33" id="aA"/><path fill="#333" d="M141 0L90-78 38 0H4l68-98-65-92h35l48 74 47-74h35l-64 92 68 98h-35" id="aB"/><g id="m"><use transform="matrix(0.06172839506172839,0,0,0.06172839506172839,0,0)" xlink:href="#au"/><use transform="matrix(0.06172839506172839,0,0,0.06172839506172839,12.345679012345679,0)" xlink:href="#ai"/><use transform="matrix(0.06172839506172839,0,0,0.06172839506172839,18.51851851851852,0)" xlink:href="#ai"/><use transform="matrix(0.06172839506172839,0,0,0.06172839506172839,24.691358024691358,0)" xlink:href="#av"/><use transform="matrix(0.06172839506172839,0,0,0.06172839506172839,37.03703703703704,0)" xlink:href="#aw"/><use transform="matrix(0.06172839506172839,0,0,0.06172839506172839,48.14814814814815,0)" xlink:href="#ax"/><use transform="matrix(0.06172839506172839,0,0,0.06172839506172839,54.320987654320994,0)" xlink:href="#ay"/><use transform="matrix(0.06172839506172839,0,0,0.06172839506172839,60.49382716049384,0)" xlink:href="#ay"/><use transform="matrix(0.06172839506172839,0,0,0.06172839506172839,66.66666666666667,0)" xlink:href="#ak"/><use transform="matrix(0.06172839506172839,0,0,0.06172839506172839,79.01234567901236,0)" xlink:href="#az"/><use transform="matrix(0.06172839506172839,0,0,0.06172839506172839,97.46913580246914,0)" xlink:href="#aA"/><use transform="matrix(0.06172839506172839,0,0,0.06172839506172839,103.64197530864197,0)" xlink:href="#ah"/><use transform="matrix(0.06172839506172839,0,0,0.06172839506172839,115.98765432098766,0)" xlink:href="#aB"/><use transform="matrix(0.06172839506172839,0,0,0.06172839506172839,127.09876543209879,0)" xlink:href="#ao"/><use transform="matrix(0.06172839506172839,0,0,0.06172839506172839,139.44444444444446,0)" xlink:href="#az"/><use transform="matrix(0.06172839506172839,0,0,0.06172839506172839,157.90123456790124,0)" xlink:href="#av"/><use transform="matrix(0.06172839506172839,0,0,0.06172839506172839,170.2469135802469,0)" xlink:href="#ar"/><use transform="matrix(0.06172839506172839,0,0,0.06172839506172839,175.12345679012344,0)" xlink:href="#ah"/><use transform="matrix(0.06172839506172839,0,0,0.06172839506172839,187.4691358024691,0)" xlink:href="#aA"/><use transform="matrix(0.06172839506172839,0,0,0.06172839506172839,193.64197530864195,0)" xlink:href="#at"/><use transform="matrix(0.06172839506172839,0,0,0.06172839506172839,204.75308641975306,0)" xlink:href="#ak"/><use transform="matrix(0.06172839506172839,0,0,0.06172839506172839,217.09876543209873,0)" xlink:href="#az"/></g><path d="M665-137c214 0 337-121 336-332v-987h193v990c-3 300-218 486-529 486-309 0-526-181-525-484v-992h190v986c-1 210 123 333 335 333" id="aC"/><path d="M538-131c121 0 232-49 232-156 0-50-20-88-56-117-73-60-334-92-420-143-92-55-162-110-162-238 0-190 192-317 400-317 223 0 414 129 413 338H759c0-108-110-186-227-186-119 0-215 53-215 159 0 45 18 78 53 101 76 52 331 90 416 139 98 57 169 115 169 251C955-92 760 20 538 20c-176 0-314-68-386-174-38-55-57-115-57-179h185c6 129 116 202 258 202" id="aD"/><path d="M599-131c141 0 220-65 285-146l113 88C906-50 770 20 589 20 281 21 93-214 93-545c0-223 93-397 233-485 74-48 154-72 240-72 300 2 449 218 445 537v77H278c0 197 129 357 321 357zm227-509c-3-180-88-310-260-310-170 0-264 140-282 310h542" id="aE"/><path d="M663-916c-163-27-288 18-338 148V0H140v-1082h180l3 125c61-97 147-145 258-145 36 0 63 5 82 14v172" id="aF"/><g id="o"><use transform="matrix(0.0065107421875,0,0,0.0065107421875,0,0)" xlink:href="#aC"/><use transform="matrix(0.0065107421875,0,0,0.0065107421875,8.646265625,0)" xlink:href="#aD"/><use transform="matrix(0.0065107421875,0,0,0.0065107421875,15.521609374999999,0)" xlink:href="#aE"/><use transform="matrix(0.0065107421875,0,0,0.0065107421875,22.5857646484375,0)" xlink:href="#aF"/></g><filter id="n" filterUnits="objectBoundingBox" x="-.02" y="0" width="1.03" height="1.02"><feOffset result="offOut" in="SourceAlpha" dy="1"/><feGaussianBlur result="blurOut" in="offOut" stdDeviation=".75"/><feColorMatrix result="colorOut" in="blurOut" values="0 0 0 0 0 0 0 0 0 0 0 0 0 0 0 0 0 0 0.4 0"/><feBlend in="SourceGraphic" in2="colorOut"/></filter><g id="p"><use transform="matrix(0.010850694444444444,0,0,0.010850694444444444,0,0)" xlink:href="#U"/><use transform="matrix(0.010850694444444444,0,0,0.010850694444444444,13.335503472222221,0)" xlink:href="#V"/><use transform="matrix(0.010850694444444444,0,0,0.010850694444444444,26.671006944444443,0)" xlink:href="#W"/><use transform="matrix(0.010850694444444444,0,0,0.010850694444444444,40.006510416666664,0)" xlink:href="#X"/></g><path fill="#333" d="M16-82v-28h88v28H16" id="aG"/><path fill="#333" d="M108 0H70L1-190h34L89-25l56-165h34" id="aH"/><g id="q"><use transform="matrix(0.06172839506172839,0,0,0.06172839506172839,0,0)" xlink:href="#ak"/><use transform="matrix(0.06172839506172839,0,0,0.06172839506172839,12.345679012345679,0)" xlink:href="#az"/><use transform="matrix(0.06172839506172839,0,0,0.06172839506172839,30.80246913580247,0)" xlink:href="#aG"/><use transform="matrix(0.06172839506172839,0,0,0.06172839506172839,38.148148148148145,0)" xlink:href="#aw"/><use transform="matrix(0.06172839506172839,0,0,0.06172839506172839,49.25925925925925,0)" xlink:href="#aH"/><use transform="matrix(0.06172839506172839,0,0,0.06172839506172839,60.37037037037037,0)" xlink:href="#at"/></g><path d="M801 0H512v-1114l-345 107v-235l603-216h31V0" id="aI"/><use transform="matrix(0.013129340277777775,0,0,0.013129340277777775,0,0)" xlink:href="#aI" id="r"/><g id="s"><use transform="matrix(0.010850694444444444,0,0,0.010850694444444444,0,0)" xlink:href="#U"/><use transform="matrix(0.010850694444444444,0,0,0.010850694444444444,13.335503472222221,0)" xlink:href="#V"/><use transform="matrix(0.010850694444444444,0,0,0.010850694444444444,26.671006944444443,0)" xlink:href="#W"/><use transform="matrix(0.010850694444444444,0,0,0.010850694444444444,40.006510416666664,0)" xlink:href="#Y"/><use transform="matrix(0.010850694444444444,0,0,0.010850694444444444,53.342013888888886,0)" xlink:href="#W"/><use transform="matrix(0.010850694444444444,0,0,0.010850694444444444,66.67751736111111,0)" xlink:href="#X"/></g><g id="t"><use transform="matrix(0.010850694444444444,0,0,0.010850694444444444,0,0)" xlink:href="#U"/><use transform="matrix(0.010850694444444444,0,0,0.010850694444444444,13.335503472222221,0)" xlink:href="#V"/><use transform="matrix(0.010850694444444444,0,0,0.010850694444444444,26.671006944444443,0)" xlink:href="#W"/><use transform="matrix(0.010850694444444444,0,0,0.010850694444444444,40.006510416666664,0)" xlink:href="#Y"/><use transform="matrix(0.010850694444444444,0,0,0.010850694444444444,53.342013888888886,0)" xlink:href="#W"/><use transform="matrix(0.010850694444444444,0,0,0.010850694444444444,66.67751736111111,0)" xlink:href="#Y"/></g><g id="u"><use transform="matrix(0.010850694444444444,0,0,0.010850694444444444,0,0)" xlink:href="#U"/><use transform="matrix(0.010850694444444444,0,0,0.010850694444444444,13.335503472222221,0)" xlink:href="#V"/><use transform="matrix(0.010850694444444444,0,0,0.010850694444444444,26.671006944444443,0)" xlink:href="#W"/><use transform="matrix(0.010850694444444444,0,0,0.010850694444444444,40.006510416666664,0)" xlink:href="#Y"/><use transform="matrix(0.010850694444444444,0,0,0.010850694444444444,53.342013888888886,0)" xlink:href="#W"/><use transform="matrix(0.010850694444444444,0,0,0.010850694444444444,66.67751736111111,0)" xlink:href="#Z"/></g><g id="v"><use transform="matrix(0.010850694444444444,0,0,0.010850694444444444,0,0)" xlink:href="#U"/><use transform="matrix(0.010850694444444444,0,0,0.010850694444444444,13.335503472222221,0)" xlink:href="#V"/><use transform="matrix(0.010850694444444444,0,0,0.010850694444444444,26.671006944444443,0)" xlink:href="#W"/><use transform="matrix(0.010850694444444444,0,0,0.010850694444444444,40.006510416666664,0)" xlink:href="#Y"/></g><path fill="#6f7681" d="M30 0v-248h33v221h125V0H30" id="aJ"/><path fill="#6f7681" d="M100-194c62-1 85 37 85 99 1 63-27 99-86 99S16-35 15-95c0-66 28-99 85-99zM99-20c44 1 53-31 53-75 0-43-8-75-51-75s-53 32-53 75 10 74 51 75" id="aK"/><path fill="#6f7681" d="M141-36C126-15 110 5 73 4 37 3 15-17 15-53c-1-64 63-63 125-63 3-35-9-54-41-54-24 1-41 7-42 31l-33-3c5-37 33-52 76-52 45 0 72 20 72 64v82c-1 20 7 32 28 27v20c-31 9-61-2-59-35zM48-53c0 20 12 33 32 33 41-3 63-29 60-74-43 2-92-5-92 41" id="aL"/><path fill="#6f7681" d="M85-194c31 0 48 13 60 33l-1-100h32l1 261h-30c-2-10 0-23-3-31C134-8 116 4 85 4 32 4 16-35 15-94c0-66 23-100 70-100zm9 24c-40 0-46 34-46 75 0 40 6 74 45 74 42 0 51-32 51-76 0-42-9-74-50-73" id="aM"/><g id="w"><use transform="matrix(0.06172839506172839,0,0,0.06172839506172839,0,0)" xlink:href="#aJ"/><use transform="matrix(0.06172839506172839,0,0,0.06172839506172839,12.345679012345679,0)" xlink:href="#aK"/><use transform="matrix(0.06172839506172839,0,0,0.06172839506172839,24.691358024691358,0)" xlink:href="#aL"/><use transform="matrix(0.06172839506172839,0,0,0.06172839506172839,37.03703703703704,0)" xlink:href="#aM"/></g><path fill="#6f7681" d="M160-131c35 5 61 23 61 61C221 17 115-2 30 0v-248c76 3 177-17 177 60 0 33-19 50-47 57zm-97-11c50-1 110 9 110-42 0-47-63-36-110-37v79zm0 115c55-2 124 14 124-45 0-56-70-42-124-44v89" id="aN"/><path fill="#6f7681" d="M24 0v-261h32V0H24" id="aO"/><path fill="#6f7681" d="M117-194c89-4 53 116 60 194h-32v-121c0-31-8-49-39-48C34-167 62-67 57 0H25l-1-190h30c1 10-1 24 2 32 11-22 29-35 61-36" id="aP"/><path fill="#6f7681" d="M96-169c-40 0-48 33-48 73s9 75 48 75c24 0 41-14 43-38l32 2c-6 37-31 61-74 61-59 0-76-41-82-99-10-93 101-131 147-64 4 7 5 14 7 22l-32 3c-4-21-16-35-41-35" id="aQ"/><path fill="#6f7681" d="M100-194c63 0 86 42 84 106H49c0 40 14 67 53 68 26 1 43-12 49-29l28 8c-11 28-37 45-77 45C44 4 14-33 15-96c1-61 26-98 85-98zm52 81c6-60-76-77-97-28-3 7-6 17-6 28h103" id="aR"/><path fill="#6f7681" d="M114-163C36-179 61-72 57 0H25l-1-190h30c1 12-1 29 2 39 6-27 23-49 58-41v29" id="aS"/><g id="x"><use transform="matrix(0.06172839506172839,0,0,0.06172839506172839,0,0)" xlink:href="#aN"/><use transform="matrix(0.06172839506172839,0,0,0.06172839506172839,14.814814814814813,0)" xlink:href="#aL"/><use transform="matrix(0.06172839506172839,0,0,0.06172839506172839,27.160493827160494,0)" xlink:href="#aO"/><use transform="matrix(0.06172839506172839,0,0,0.06172839506172839,32.03703703703704,0)" xlink:href="#aL"/><use transform="matrix(0.06172839506172839,0,0,0.06172839506172839,44.382716049382715,0)" xlink:href="#aP"/><use transform="matrix(0.06172839506172839,0,0,0.06172839506172839,56.72839506172839,0)" xlink:href="#aQ"/><use transform="matrix(0.06172839506172839,0,0,0.06172839506172839,67.8395061728395,0)" xlink:href="#aR"/><use transform="matrix(0.06172839506172839,0,0,0.06172839506172839,80.18518518518519,0)" xlink:href="#aS"/></g><path fill="#6f7681" d="M135-143c-3-34-86-38-87 0 15 53 115 12 119 90S17 21 10-45l28-5c4 36 97 45 98 0-10-56-113-15-118-90-4-57 82-63 122-42 12 7 21 19 24 35" id="aT"/><path fill="#6f7681" d="M108 0H70L1-190h34L89-25l56-165h34" id="aU"/><path fill="#6f7681" d="M24-231v-30h32v30H24zM24 0v-190h32V0H24" id="aV"/><g id="y"><use transform="matrix(0.06172839506172839,0,0,0.06172839506172839,0,0)" xlink:href="#aT"/><use transform="matrix(0.06172839506172839,0,0,0.06172839506172839,11.11111111111111,0)" xlink:href="#aR"/><use transform="matrix(0.06172839506172839,0,0,0.06172839506172839,23.45679012345679,0)" xlink:href="#aS"/><use transform="matrix(0.06172839506172839,0,0,0.06172839506172839,30.80246913580247,0)" xlink:href="#aU"/><use transform="matrix(0.06172839506172839,0,0,0.06172839506172839,41.91358024691358,0)" xlink:href="#aV"/><use transform="matrix(0.06172839506172839,0,0,0.06172839506172839,46.79012345679013,0)" xlink:href="#aQ"/><use transform="matrix(0.06172839506172839,0,0,0.06172839506172839,57.90123456790124,0)" xlink:href="#aR"/></g><path fill="#e81313" d="M87 75C49 33 22-17 22-94c0-76 28-126 65-167h31c-38 41-64 92-64 168S80 34 118 75H87" id="aW"/><path fill="#e81313" d="M27 0v-27h64v-190l-56 39v-29l58-41h29v221h61V0H27" id="aX"/><path fill="#e81313" d="M33-261c38 41 65 92 65 168S71 34 33 75H2C39 34 66-17 66-93S39-220 2-261h31" id="aY"/><g id="z"><use transform="matrix(0.06172839506172839,0,0,0.06172839506172839,0,0)" xlink:href="#aW"/><use transform="matrix(0.06172839506172839,0,0,0.06172839506172839,7.345679012345679,0)" xlink:href="#aX"/><use transform="matrix(0.06172839506172839,0,0,0.06172839506172839,19.691358024691358,0)" xlink:href="#aY"/></g></defs></g></svg>