<svg xmlns="http://www.w3.org/2000/svg" height="440" width="620"><path d="M219.3 53.4c0-1.3-3-2.4-6.5-2.4h-187c-3.6 0-6.5 1.1-6.5 2.4v70.4c0 1.4 2.9 2.5 6.5 2.5h187c3.6 0 6.5-1.1 6.5-2.5V53.4" fill="#3299cc"/><path d="M78.7 92.3V72h5q3.2 0 5 1.5 1.8 1.5 1.8 4.2 0 1.7-.9 3-.8 1.3-2.5 2 1 .6 1.9 1.8 1 1 2.6 3.8l1.8 2.7 1 1.4H91l-.8-1.3-.2-.3-.6-.8-.9-1.5-1-1.6-1.7-2q-.7-.7-1.3-1-.6-.4-2-.4h-.8v9h-3zm3.8-18h-1v6.5h1.2q2.2 0 3-.4.9-.4 1.3-1.1.5-.8.5-1.8t-.5-1.7q-.5-.8-1.5-1.1-.9-.4-3-.4zm20.3 4.5q3 0 5.1 2 2 2 2 5 0 2.9-2 4.8-2 2-5.2 2-3 0-5-2-2.1-2-2.1-4.9 0-3 2-5 2.1-1.9 5.2-1.9zm-.1 2.4q-2 0-3.2 1.3-1.2 1.2-1.2 3.2t1.2 3.1q1.3 1.3 3.3 1.3 2 0 3.2-1.3 1.3-1.2 1.3-3.1 0-2-1.4-3.2-1.3-1.3-3.2-1.3zm18.8 11.1v-1.7q-.9 1-2 1.4-1 .6-2.1.6-1.3 0-2.4-.7-1-.6-1.6-1.7-.6-1.1-.6-3.6v-7.8h2.7v7.7q0 2.2.6 3 .6.8 2.1.8 2 0 3.3-1.8v-9.7h2.6v13.5h-2.6zM126 81l5-5v2.8h4.3v2.4H131V88q0 2.3 2 2.3 1.4 0 3-1v2.5q-1.6.9-3.4.9-1.8 0-3-1.1l-.7-.7-.4-1q-.2-.7-.2-2.6v-6H126V81zm23.4 4.8h-9.5q.1 2 1.3 3 1.2 1.2 3.1 1.2 2.6 0 4.9-1.6V91q-1.3.8-2.5 1.2-1.2.3-2.8.3-2.2 0-3.6-.9-1.4-1-2.2-2.5-.8-1.5-.8-3.6 0-3 1.7-5t4.5-2q2.7 0 4.3 2 1.6 1.8 1.6 5v.3zm-9.4-1.6h6.8q-.1-1.6-1-2.4-.8-.9-2.3-.9-1.4 0-2.3.9-1 .8-1.2 2.4zm15.1-5.4V82l.2-.2q1.9-3.1 3.8-3.1 1.5 0 3.2 1.5l-1.4 2.3q-1.4-1.3-2.6-1.3-1.3 0-2.2 1.3-1 1.2-1 2.9v7h-2.7V78.8h2.7z" font-size="30" font-family="GillSans" fill="#fff"/><path d="M86.2 100.1h1q-1.2 1.9-1.7 3.1-.6 1.3-.8 3-.3 1.7-.3 3.2 0 5.3 2.9 9.1h-1.1l-.3-.3-1.7-2.2-1-2.2q-.9-2.2-.9-4.4 0-2.4.9-4.5.8-2.1 3-4.8zm10 7.3v6.6h-1.8v-5q0-1.5-.4-2.1-.4-.6-1.4-.6-.6 0-1 .2-.5.3-1.1 1v6.5h-1.8v-9h1.8v1.2q1.3-1.4 2.6-1.4 1.8 0 2.7 1.6 1.4-1.6 3-1.6 1.3 0 2.1 1 .9.9.9 2.9v5.3H100v-5.4q0-1-.5-1.7-.4-.6-1.3-.6-1 0-2 1.1zm12.3-2.4q2 0 3.4 1.3 1.3 1.3 1.3 3.3 0 2-1.3 3.2-1.4 1.3-3.5 1.3-2 0-3.4-1.3-1.3-1.3-1.3-3.3 0-2 1.3-3.2 1.4-1.3 3.5-1.3zm-.1 1.6q-1.3 0-2.1.8t-.8 2.1q0 1.3.8 2.1.8.9 2.2.9 1.3 0 2-.9 1-.8 1-2 0-1.4-1-2.2-.8-.8-2.1-.8zm8.6-1.6v1.1q1.2-1.3 2.7-1.3.8 0 1.5.4.8.5 1.1 1.2.4.8.4 2.4v5.2H121v-5.2q0-1.3-.4-2-.4-.5-1.4-.5-1.2 0-2.1 1.2v6.5h-1.8v-9h1.8zm7.7 3q0-1.4 1-2.2 1.1-.8 3-.8h3.7v1.4h-1.9q.6.5.8 1 .2.4.2 1t-.4 1.3q-.4.7-1 1-.7.4-2.1.6-1 .2-1 .7 0 .3.3.5l1.4.5q1.7.3 2.1.5.5.2.9.6.6.7.6 1.6 0 1.3-1.1 2-1.1.8-3 .8-2 0-3.1-.7-1.2-.8-1.2-2 0-2 2.3-2.4-1-.6-1-1.2 0-.4.5-.8l1-.5q-2-.9-2-2.8zm3.4-1.5q-.7 0-1.3.5-.5.5-.5 1.2t.5 1.1q.5.5 1.3.5.7 0 1.2-.5.6-.5.6-1.1 0-.7-.6-1.2-.5-.5-1.2-.5zm-.4 7.9q-1 0-1.5.4-.6.3-.6 1 0 1.3 2.5 1.3 1.2 0 1.8-.3.7-.4.7-1t-.8-1q-.8-.4-2.1-.4zm10.2-9.4q2 0 3.4 1.3 1.3 1.3 1.3 3.3 0 2-1.4 3.2-1.3 1.3-3.4 1.3-2 0-3.4-1.3t-1.4-3.3q0-2 1.4-3.2 1.4-1.3 3.5-1.3zm-.1 1.6q-1.3 0-2.1.8-.9.8-.9 2.1t.9 2.1q.8.9 2.1.9t2.2-.9q.8-.8.8-2 0-1.4-.9-2.2-.8-.8-2.1-.8zm6.3 6.7v-1.9l1.6.9q.8.3 1.3.3t1-.3q.3-.3.3-.7l-.2-.6-1.1-.7q-1.7-1-2.3-1.7-.5-.7-.5-1.5 0-1 .8-1.7.8-.6 2-.6 1.4 0 2.8.7v1.8q-1.6-1-2.6-1-.5 0-.9.3-.3.2-.3.5 0 .4.3.6l1 .7.7.4q2.2 1.2 2.2 2.8 0 1-.9 1.8-.8.7-2.2.7-.8 0-1.4-.2-.6-.1-1.6-.6zm8.2 5.2h-1q1.2-1.9 1.7-3.2.6-1.3.8-3 .3-1.5.3-3 0-1.7-.3-3.3-.3-1.6-1-3-.6-1.4-1.6-2.9h1.1l.3.4 1.6 2.1q.6.9 1 2.3 1 2.1 1 4.4 0 2.2-.8 4.3l-1 2-2.1 3z" font-size="20" font-family="GillSans" fill="#fff"/><g stroke="#ee9c02" stroke-width="4"><path d="M281 298.7l106-44.2" stroke-dasharray="8,4" fill="none"/><path d="M279.1 294.3l-10 9.3 13.7-.5zM388.9 259l10-9.4-13.7.5z" fill="#ee9c02"/></g><path d="M458.9 53.6c0-1.4-3-2.5-6.5-2.5h-187c-3.6 0-6.5 1.1-6.5 2.5v70.1c0 1.3 2.9 2.4 6.5 2.4h187c3.6 0 6.5-1 6.5-2.4V53.6" fill="#3299cc"/><path d="M318.2 92.4V71.9h5.2q3 0 4.9 1.6 1.8 1.5 1.8 4.1 0 1.8-.9 3.1t-2.5 2q1 .6 1.9 1.7 1 1.1 2.6 4 1 1.7 1.7 2.5l1.1 1.5h-3.5l-.9-1.3-.1-.3-.6-.8-1-1.5-.9-1.6-1.7-2q-.7-.7-1.3-1-.6-.4-2-.4h-.8v8.9h-3zm3.9-18h-1V81h1.2q2.2 0 3-.4.9-.4 1.3-1.1.5-.8.5-1.8t-.5-1.7q-.5-.8-1.5-1.1-.9-.4-3-.4zm20.3 4.5q3 0 5.1 2 2 2 2 5 0 2.9-2 4.8-2 2-5.2 2-3 0-5-2-2.1-2-2.1-4.9 0-3 2-5 2-1.9 5.2-1.9zm-.1 2.4q-2 0-3.2 1.3-1.2 1.2-1.2 3.2 0 1.9 1.2 3.1 1.3 1.2 3.3 1.2 2 0 3.2-1.2 1.2-1.2 1.2-3.2 0-1.9-1.3-3.1-1.3-1.3-3.2-1.3zM361 92.4v-1.7q-.8 1-1.9 1.4-1 .5-2.2.5-1.2 0-2.3-.6-1-.6-1.6-1.7-.6-1.1-.6-3.7V79h2.7v7.7q0 2.1.6 3 .6.8 2.1.8 2 0 3.3-1.8V79h2.6v13.5h-2.6zm4.6-11.4l5-4.9V79h4.3v2.4h-4.3V88q0 2.3 2 2.3 1.3 0 3-1v2.6q-1.6.8-3.4.8-1.8 0-3-1l-.7-.8-.4-1q-.2-.7-.2-2.5v-6h-2.3v-.2zm23.4 4.9h-9.5q.1 2 1.3 3 1.2 1.2 3 1.2 2.7 0 5-1.6V91q-1.3.8-2.5 1.2-1.2.3-2.8.3-2.3 0-3.6-1-1.4-.8-2.2-2.4-.9-1.6-.9-3.6 0-3 1.8-5 1.7-2 4.5-2 2.7 0 4.3 2 1.6 1.8 1.6 5v.3zm-9.4-1.6h6.7q0-1.6-1-2.5-.8-.8-2.2-.8-1.4 0-2.4.8-.9.9-1.1 2.5zm15.1-5.3v3l.2-.2q1.9-3.1 3.8-3.1 1.5 0 3.2 1.5l-1.4 2.3q-1.4-1.3-2.6-1.3-1.3 0-2.3 1.2-.9 1.3-.9 3v7H392V78.9h2.7z" font-size="30" font-family="GillSans" fill="#fff"/><path d="M325.7 100.1h1.1q-1.2 1.8-1.7 3.1-.6 1.3-.9 3l-.2 3.2q0 5.3 2.8 9.1h-1l-.3-.4q-1.2-1.3-1.7-2.1l-1-2.2q-.9-2.2-.9-4.5t.9-4.4q.8-2.2 3-4.8zm10 7.3v6.5H334v-5q0-1.5-.4-2-.4-.6-1.3-.6-.6 0-1 .2-.5.3-1.1 1v6.4h-1.8v-9h1.8v1.2q1.3-1.3 2.6-1.3 1.7 0 2.7 1.6 1.4-1.6 3-1.6 1.3 0 2.1 1 .8.9.8 2.8v5.3h-1.7v-5.3q0-1.1-.5-1.7-.4-.6-1.3-.6-1.1 0-2 1.1zM348 105q2.1 0 3.5 1.3 1.3 1.3 1.3 3.3 0 2-1.4 3.2-1.3 1.3-3.4 1.3-2 0-3.4-1.3t-1.4-3.3q0-2 1.4-3.3 1.4-1.3 3.5-1.3zm0 1.5q-1.3 0-2.1.9-.9.8-.9 2.1t.9 2.1q.8.8 2.1.8t2.2-.8q.8-.8.8-2.1t-.9-2.1q-.8-.9-2.1-.9zm8.6-1.5v1q1.1-1.2 2.7-1.2.8 0 1.5.4t1.1 1.2q.4.8.4 2.4v5.1h-1.8v-5q0-1.5-.4-2-.4-.6-1.4-.6-1.3 0-2.1 1.2v6.4h-1.9v-9h1.9zm7.7 3q0-1.4 1-2.2 1.1-.9 3-.9h3.6v1.4h-1.8l.8 1q.2.4.2 1 0 .7-.4 1.4t-1 1q-.7.4-2.1.6-1 .2-1 .7 0 .3.3.5l1.4.4 2.1.6q.5.2.9.6.6.6.6 1.6 0 1.3-1.1 2-1.2.8-3 .8-2 0-3.1-.8-1.2-.7-1.2-2 0-1.8 2.3-2.4-1-.5-1-1.1 0-.4.5-.8.3-.3 1-.5-2-.9-2-2.8zm3.4-1.5q-.8 0-1.3.5t-.5 1.1q0 .7.5 1.2t1.3.5q.7 0 1.2-.5t.5-1.2q0-.7-.5-1.1-.5-.5-1.2-.5zm-.5 7.8q-.9 0-1.4.4-.6.4-.6 1 0 1.4 2.5 1.4 1.2 0 1.8-.4.7-.3.7-1 0-.6-.8-1-.9-.4-2.2-.4zm10.2-9.3q2 0 3.4 1.3t1.4 3.3q0 2-1.4 3.2-1.4 1.3-3.4 1.3t-3.4-1.3q-1.4-1.3-1.4-3.3 0-2 1.4-3.3 1.4-1.3 3.4-1.3zm0 1.5q-1.3 0-2.2.9-.8.8-.8 2.1t.9 2.1q.8.8 2.1.8t2.2-.8q.8-.8.8-2.1t-.9-2.1q-.8-.9-2.2-.9zm6.3 6.8v-2l1.5 1q.8.3 1.4.3.5 0 1-.3.3-.3.3-.7 0-.4-.2-.6l-1.1-.8q-1.8-1-2.3-1.6-.5-.7-.5-1.5 0-1 .8-1.7.8-.6 2-.6 1.4 0 2.8.7v1.8q-1.6-1-2.6-1-.5 0-.9.2-.3.3-.3.6t.3.6l1 .7.7.4q2.2 1.2 2.2 2.8 0 1-.9 1.8-.8.7-2.2.7-.8 0-1.4-.2l-1.6-.6zm8.2 5.2h-1.1q1.3-1.9 1.8-3.2.5-1.4.8-3 .3-1.6.3-3 0-1.7-.3-3.3-.4-1.6-1-3-.6-1.5-1.6-2.9h1l.4.4 1.6 2.1 1 2.2q1 2.2 1 4.5 0 2.2-.8 4.3l-1 2-2.1 3z" font-size="20" font-family="GillSans" fill="#fff"/><path d="M70.6 159.2l.7.7 1.6 1.5 1.7 1.4 1.7 1.3 1.8 1.3 1.8 1.2 1.9 1 2 1.1 1.9 1 2 1 2 .8 2.2.8 2.1.8 2.2.6 2.2.7 2.3.6 2.3.5 2.3.5 2.4.4 2.4.4 2.4.3 2.5.4 2.4.2 2.5.2 2.6.2 2.5.2 2.5.1h2.6l2.6.2h6.5l5.2-.1 5.3-.2 5.3-.2 5.3-.3 5.2-.3 5.3-.4 5.1-.3 5.2-.4 5-.4 5-.3 3.6-.2 2.4-.1 2.4-.1 2.4-.1 2.3-.1h2.3l2.2-.1h8.6l2 .2h1.9l1.7.2 1.7.2 1.8.2 1.7.3 1.8.2 1.7.4 1.8.4 1.7.4 1.7.6 1.7.5 1.6.7 1.6.7 1.5.8 1.5.8 1 .7.8.5.3.3h.2l.2.4.3.3.1.4.2.5.2.5.2.8.2.8.2.6.2.5.2.6.3.5.4.4.3.3.3.2.3.2h.4l.2.1h.8l.6-.1.7-.2.6-.3.7-.4.6-.4.6-.4.6-.4.7-.4.6-.5.6-.5.9-.7 1.2-1 1.3-1 1.2-1 1.1-1 1.1-.9.7-.5.5-.4.4-.2.4-.3.3-.2.3-.1.2-.1h.2-.1l.5-.2 1.1-.3 1.1-.2 1.2-.2 1.2-.1 1.2-.2h1.3l1.3-.2h10.4l2.9.2 2.8.2 2.9.2 2.8.2 2.8.2 2.7.2 2 .1h1.2l1.2.1h4l.7.1h1.6l.9.1h1.4l1.9.2h2l2.2.2h2.2l2.4.1h9.7l2.5-.2 2.4-.2 2.4-.3 2.4-.3 1.7-.3 1.2-.2 1.1-.3 1.1-.3 1.1-.3 1-.3 1.1-.4 1-.4 1.1-.4 1-.5 1-.5 1-.6 1-.7.9-.7.9-.8.9-.8.8-1 .8-1 .6-1 .6-1 .5-1 .3-1.1.3-1 .1-1.1.1-1.1v-2.2l-.2-1.1v-.6c-.3-1-1.5-1-2.8 0-1.3.9-2.2 2.4-2 3.3v.5l.2 1v.9l.1.8v.8l-.2.7-.1.6-.2.5-.2.5-.2.4-.2.4-.2.3-.2.3-.3.4-.4.3-.5.3-.5.4-.6.4-.6.3-.7.4-.8.3-.8.3-1 .3-.8.3-1 .3-1 .3-1 .2-1 .2-1.7.3-2.2.3-2.3.3-2.4.2h-2.4l-2.4.2h-9.4l-2.2-.2H324l-2-.2h-2l-1.3-.1h-.9l-.8-.1h-2.3l-.6-.1h-3.8l-1.3-.1-1.9-.1-2.7-.2-2.7-.2-2.8-.2-3-.2-2.8-.2-3-.2h-2.9l-2.9-.1h-4.9l-1.4.2-1.3.1-1.4.1-1.3.2-1.3.3-1.3.2-1.2.3-.6.2-.4.1-.7.3-.6.3-.6.3-.6.4-.6.4-.7.5-.6.4-1 .7-1.1 1-1.3 1-1.2 1-1.1 1-1.2.9-.8.6-.5.4-.4.4-.4.3-.4.3-.3.2-.3.1-.2.2h-.1v.1h-.2.1-.2l-.1-.1-.2-.1-.2-.3-.2-.3-.2-.4-.2-.5-.1-.5-.3-.8-.2-.9-.2-.6-.2-.6-.3-.6-.4-.5-.4-.4-.2-.2-.4-.3-.7-.5-1.2-.8-1.5-.9-1.6-.8-1.7-.7-1.7-.7-1.8-.6-1.7-.5-1.8-.5-1.8-.4-1.8-.4-1.9-.3-1.8-.2-1.8-.2-1.7-.2-1.8-.2h-1.8l-2.2-.2H207l-2.3.1-2.4.1-2.4.1-2.4.2-3.7.2-5 .3-5 .4-5.1.3-5.2.4-5.2.3-5.3.4-5.2.3-5.2.2-5.3.2h-14.1l-2.6-.1-2.5-.2-2.5-.1-2.5-.2-2.4-.2-2.4-.3-2.4-.3-2.4-.3-2.4-.4-2.3-.4-2.3-.5-2.2-.5-2.2-.6-2.2-.6-2.1-.7-2.1-.7-2.1-.8-2-.8-2-1-1.9-.9-1.9-1-1.8-1-1.8-1.2-1.7-1.3-1.7-1.2-1.6-1.4-1.5-1.4-.8-.8c-.6-.6-2-.1-3.2 1-1.1 1.2-1.6 2.7-1 3.3" fill="#3299cc"/><g stroke="#5a5955" stroke-width="4"><path d="M253.3 216l.5 72.6" fill="none"/><path d="M258.1 215.9l-4.9-12.8-4.7 12.9zm-9.1 72.7l4.9 12.8 4.7-12.8z" fill="#5a5955"/></g><path d="M167.7 144.7h2V159h-2v-14.3zm17.9 4.9q2.2 0 3.6 1.4t1.4 3.5q0 2-1.4 3.3-1.5 1.4-3.7 1.4-2 0-3.5-1.4-1.4-1.3-1.4-3.4 0-2 1.4-3.4t3.6-1.4zm0 1.7q-1.4 0-2.3.8-.9 1-.9 2.3 0 1.3 1 2.2.8.8 2.2.8 1.4 0 2.2-.8 1-.9 1-2.2 0-1.4-1-2.3-.9-.8-2.3-.8zm9.1-1.7v2.2-.2q1.4-2.2 2.8-2.2 1 0 2.2 1l-1 1.7q-1-1-1.8-1-1 0-1.6 1-.6.8-.6 2v5h-1.9v-9.5h1.9zm19.9 2.6v6.8h-2v-5.2q0-1.6-.3-2.2-.5-.6-1.5-.6-.6 0-1 .2-.6.3-1.2 1v6.8h-1.9v-9.4h2v1.2q1.3-1.4 2.7-1.4 1.8 0 2.8 1.7 1.5-1.7 3.1-1.7 1.4 0 2.3 1 .9 1 .9 3v5.6h-2v-5.6q0-1.1-.4-1.8-.5-.6-1.4-.6-1.1 0-2.1 1.2zm12.9-2.6q2.1 0 3.6 1.4 1.4 1.4 1.4 3.5 0 2-1.4 3.3-1.5 1.4-3.7 1.4-2.1 0-3.5-1.4-1.5-1.3-1.5-3.4 0-2 1.5-3.4 1.4-1.4 3.6-1.4zm-.1 1.7q-1.4 0-2.2.8-.9 1-.9 2.3 0 1.3 1 2.2.8.8 2.2.8 1.3 0 2.2-.8.9-.9.9-2.2 0-1.4-1-2.3-.8-.8-2.2-.8zm9.1-1.7v2.2l.2-.2q1.3-2.2 2.7-2.2 1 0 2.2 1l-1 1.7q-1-1-1.8-1-1 0-1.6 1-.7.8-.7 2v5h-1.8v-9.5h1.8zm14 4.9h-6.6q0 1.3.9 2.1.8.8 2.1.8 1.9 0 3.4-1.1v1.8q-.8.6-1.7.8-.8.3-2 .3-1.5 0-2.5-.7-1-.6-1.5-1.7-.6-1.1-.6-2.5 0-2.2 1.2-3.5 1.2-1.4 3.2-1.4 1.9 0 3 1.3t1.1 3.5v.3zm-6.6-1.1h4.8q-.1-1.2-.7-1.8-.6-.6-1.6-.6t-1.7.6q-.6.6-.8 1.8zm14.8 5.6v-14.3h3.5q2.2 0 3.5 1 1.3 1.2 1.3 3 0 1.2-.7 2.2-.6.9-1.7 1.3l1.3 1.2q.7.8 1.8 2.8l1.2 1.8.8 1h-2.4l-.7-1-.5-.7-.6-1-.7-1.1q-.6-.9-1.2-1.4l-1-.8q-.4-.2-1.4-.2h-.5v6.2h-2zm2.6-12.6h-.6v4.6h.8q1.5 0 2.1-.3.6-.3 1-.8.2-.5.2-1.2t-.3-1.2q-.4-.6-1-.8-.7-.3-2.2-.3zm14.3 3.2q2.1 0 3.5 1.4 1.5 1.4 1.5 3.5 0 2-1.5 3.3-1.4 1.4-3.6 1.4-2.1 0-3.6-1.4-1.4-1.3-1.4-3.4 0-2 1.4-3.4 1.5-1.4 3.7-1.4zm-.1 1.7q-1.4 0-2.2.8-.9 1-.9 2.3 0 1.3.9 2.2.9.8 2.2.8 1.4 0 2.3-.8.9-.9.9-2.2 0-1.4-1-2.3-.9-.8-2.2-.8zm13.1 7.7v-1.2q-.6.7-1.3 1-.8.4-1.6.4t-1.6-.4q-.8-.5-1.1-1.3-.4-.7-.4-2.5v-5.4h1.8v5.4q0 1.5.5 2 .4.6 1.5.6 1.3 0 2.2-1.3v-6.7h1.9v9.4h-1.9zm3.2-8l3.5-3.4v2h3v1.7h-3v4.6q0 1.6 1.3 1.6 1 0 2.2-.7v1.8q-1.1.6-2.4.6-1.3 0-2.1-.8l-.5-.5-.2-.7q-.2-.5-.2-1.7v-4.2h-1.6v-.2zm16.4 3.5h-6.7q.1 1.3 1 2.1.8.8 2.1.8 1.8 0 3.4-1.1v1.8q-.9.6-1.7.8-.8.3-2 .3-1.5 0-2.5-.7-1-.6-1.6-1.7-.5-1.1-.5-2.5 0-2.2 1.2-3.5 1.2-1.4 3.2-1.4 1.8 0 3 1.3 1 1.3 1 3.5v.3zm-6.6-1.1h4.7q0-1.2-.6-1.8-.6-.6-1.6-.6t-1.7.6q-.6.6-.8 1.8zm10.6-3.8v2.2-.2q1.4-2.2 2.8-2.2 1 0 2.2 1l-1 1.7q-1-1-1.8-1-.9 0-1.6 1-.6.8-.6 2v5h-1.9v-9.5h1.9zm5.8 8.8v-2q.8.5 1.7.8.8.4 1.4.4.5 0 1-.3.4-.3.4-.7 0-.4-.3-.7l-1.2-.8q-1.8-1-2.3-1.7-.6-.7-.6-1.5 0-1.1.8-1.8.9-.7 2.2-.7 1.4 0 2.9.8v1.8q-1.7-1-2.7-1-.6 0-1 .3-.3.2-.3.6 0 .3.3.6l1.1.7.7.4q2.3 1.3 2.3 3 0 1.1-.9 1.9-.9.7-2.3.7-.8 0-1.5-.2l-1.7-.6z" font-size="21" font-family="GillSans" fill="#3299cc"/><path d="M13.4 12.8h211.4V131H13.4zm239.8 0h210.2V131H253.2z" stroke="#5a5955" stroke-width="2" stroke-dasharray="6,4" fill="none"/><path d="M26.3 15.8H28l7.3 16.5h-2.4l-2.2-4.9h-7l-2 4.9h-2.4l7-16.5zm3.4 9.5l-2.6-5.9-2.5 6h5.1zm7 12.5V21.5h3.7q2.9 0 4.5 1.4 1.6 1.5 1.6 4T45 31q-1.5 1.6-3.9 1.6-1 0-2.2-.5v5.8h-2.2zm3.7-14.3h-1.5v6.6q1 .5 2 .5 1.5 0 2.5-1t1-2.7q0-1-.5-1.9-.5-.8-1.3-1.1-.7-.4-2.2-.4zm8.3 14.3V21.5h3.7q2.9 0 4.5 1.4 1.6 1.5 1.6 4T57 31q-1.5 1.6-3.9 1.6-1 0-2.2-.5v5.8h-2.2zm3.7-14.3h-1.5v6.6q1 .5 2 .5 1.5 0 2.5-1t1-2.7q0-1-.5-1.9-.5-.8-1.3-1.1-.7-.4-2.2-.4zm19.4 1.9l-1.8-1q-1.6-1-2.4-2-.7-1-.7-2.3 0-2 1.4-3.2 1.3-1.2 3.5-1.2 2 0 3.7 1.2v2.6q-1.7-1.7-3.8-1.7-1.1 0-1.9.6-.7.5-.7 1.3t.5 1.4q.6.6 1.8 1.3l1.8 1.1q3 1.8 3 4.5 0 2-1.3 3.2-1.4 1.3-3.5 1.3-2.4 0-4.4-1.5v-3q2 2.4 4.4 2.4 1.1 0 1.8-.6.8-.6.8-1.5 0-1.5-2.2-2.9zM87.7 27H80q0 1.6 1 2.5 1 1 2.5 1 2.1 0 3.9-1.4v2.1q-1 .7-2 1-1 .3-2.2.3-1.8 0-3-.8-1-.7-1.7-2-.6-1.2-.6-2.9 0-2.4 1.4-4 1.3-1.5 3.6-1.5 2.1 0 3.4 1.5 1.3 1.5 1.3 4v.3zM80 25.9h5.5q-.1-1.3-.8-2-.7-.7-1.8-.7-1.2 0-2 .7-.6.7-.9 2zm12.3-4.4V24v-.2q1.6-2.5 3.2-2.5 1.2 0 2.5 1.2l-1.1 1.9q-1.2-1-2.1-1-1 0-1.8 1-.7.9-.7 2.2v5.7H90V21.5h2.2zm14.5 0h2.3l-4.8 11h-.7l-4.9-11h2.4l2.9 6.6 2.8-6.6zm12.6 5.5h-7.6q.1 1.6 1 2.5 1 1 2.5 1 2.1 0 4-1.4v2.1q-1 .7-2 1-1 .3-2.3.3-1.8 0-2.9-.8-1-.7-1.8-2-.6-1.2-.6-2.9 0-2.4 1.4-4 1.4-1.5 3.6-1.5t3.4 1.5q1.3 1.5 1.3 4v.3zm-7.5-1.2h5.4q0-1.3-.8-2-.6-.7-1.8-.7-1.1 0-1.9.7-.7.7-1 2zm12.1-4.3V24l.1-.2q1.6-2.5 3.1-2.5 1.2 0 2.5 1.2l-1.1 1.9q-1.1-1-2-1-1.1 0-1.9 1-.7.9-.7 2.2v5.7h-2.2V21.5h2.2zm141.9-5.7h1.6l7.4 16.5h-2.4l-2.2-4.9h-7l-2 4.9h-2.4l7-16.5zm3.4 9.5l-2.6-5.9-2.5 6h5.1zm7 12.5V21.5h3.7q2.9 0 4.5 1.4 1.6 1.5 1.6 4t-1.5 4q-1.5 1.6-3.9 1.6-1 0-2.3-.5v5.8h-2.1zm3.6-14.3h-1.5v6.6q1 .5 2.1.5 1.5 0 2.4-1 1-1 1-2.7 0-1-.4-1.9-.5-.8-1.3-1.1-.8-.4-2.3-.4zm8.4 14.3V21.5h3.7q2.9 0 4.5 1.4 1.6 1.5 1.6 4t-1.5 4q-1.5 1.6-3.9 1.6-1 0-2.3-.5v5.8h-2.1zm3.6-14.3h-1.5v6.6q1 .5 2.1.5 1.5 0 2.4-1 1-1 1-2.7 0-1-.4-1.9-.5-.8-1.3-1.1-.8-.4-2.3-.4zm19.5 1.9l-1.8-1q-1.7-1-2.4-2t-.7-2.3q0-2 1.4-3.2 1.3-1.2 3.5-1.2 2 0 3.7 1.2v2.6q-1.8-1.7-3.8-1.7-1.1 0-1.9.6-.7.5-.7 1.3t.5 1.4q.6.6 1.8 1.3l1.8 1.1q3 1.8 3 4.5 0 2-1.4 3.2-1.3 1.3-3.4 1.3-2.4 0-4.4-1.5v-3q1.9 2.4 4.4 2.4 1 0 1.8-.6t.8-1.5q0-1.5-2.2-2.9zm15.9 1.6h-7.6q0 1.6 1 2.5 1 1 2.5 1 2 0 3.9-1.4v2.1q-1 .7-2 1-1 .3-2.2.3-1.8 0-3-.8-1-.7-1.7-2-.7-1.2-.7-2.9 0-2.4 1.4-4 1.4-1.5 3.7-1.5 2.1 0 3.4 1.5 1.3 1.5 1.3 4v.3zm-7.6-1.2h5.4q0-1.3-.7-2t-1.8-.7q-1.2 0-2 .7-.7.7-.9 2zm12.1-4.3V24l.2-.2q1.5-2.5 3-2.5 1.3 0 2.6 1.2l-1.2 1.9q-1-1-2-1t-1.8 1q-.8.9-.8 2.2v5.7h-2.1V21.5h2.1zm14.6 0h2.3l-4.8 11h-.7l-4.9-11h2.4l2.9 6.6 2.8-6.6zM359 27h-7.6q0 1.6 1 2.5 1 1 2.5 1 2.1 0 3.9-1.4v2.1q-1 .7-2 1-1 .3-2.2.3-1.8 0-2.9-.8-1.1-.7-1.8-2-.6-1.2-.6-2.9 0-2.4 1.4-4 1.4-1.5 3.6-1.5 2.1 0 3.4 1.5 1.3 1.5 1.3 4v.3zm-7.5-1.2h5.4q-.1-1.3-.8-2-.7-.7-1.8-.7-1.2 0-1.9.7t-1 2zm12.1-4.3V24v-.2q1.6-2.5 3.2-2.5 1.2 0 2.5 1.2l-1.1 1.9q-1.1-1-2-1-1.1 0-1.9 1-.7.9-.7 2.2v5.7h-2.2V21.5h2.2z" font-size="24" font-family="GillSans" fill="#3f3c3c"/><g stroke="#ee9c02" stroke-width="4"><path d="M281.6 204l109.1 30.6" stroke-dasharray="8,4" fill="none"/><path d="M283 199.3l-13.7 1.2 11 8zm106.4 39.9l13.7-1.2-11-8z" fill="#ee9c02"/></g><path d="M141.2 339.5l.6-.7 1-1.4 1-1.3 1-1.1 1.1-1.1 1-1 1.2-1 1.1-1 1.1-.9 1.2-.8 1.2-.8 1.2-.7 1.3-.7 1.3-.7 1.3-.6 1.4-.6 1.3-.5 1.5-.5 1.4-.5 1.5-.4 1.5-.4 1.5-.4 1.5-.3 1.6-.2 1.6-.3 1.6-.2 1.6-.2 1.6-.1 1.7-.1 1.6-.1 2.5-.1h10.4l3.5.2 5.3.3 7 .5 5.4.4 3.6.2 3.5.1 3.5.2h7l3.4-.1 2.6-.2 1.7-.1h.9l.2-.1.5-.1.8-.2 1-.5 1.2-.7 1-.8.9-.7 1-1.1 1.2-1.2.6-.6.2-.1h.8l.3.1.4.1.4.1.5.2.5.2.5.2.5.2.9.3 1.2.5 1.9.9 2.6 1.2 2 .8 1.1.6 1 .3.5.3.5.2.6.2.4.2.5.1.5.2h.4l.2.1.7.1 1.3.3 2 .2 2.7.3h8l2.7-.2 2.6-.2 2.7-.3 2.6-.4 4-.5 3.8-.5 2.6-.4 2.5-.3 2.5-.3 2.5-.2 2.4-.1h6.5l1.2.2 1.2.1 1.1.2 1.1.2 1.2.3 1.1.2 1.1.4 1.1.3 1.1.4 1.1.5 1.1.5 1 .5 1.1.6 1.1.7 1 .7 1 .7 1.1.9 1 .8 1 1 1 1 1 1 1 1.2 1 1.2.5.6c.5.7 1.9.3 3-.8 1.3-1.2 1.8-2.6 1.3-3.3l-.5-.6-1-1.3-1-1.2-1-1-1-1.1-1.1-1-1-.9-1.1-.9-1.1-.7-1.1-.8-1.1-.7-1.2-.6-1.1-.6-1.2-.5-1.1-.5-1.2-.4-1.2-.4-1.1-.3-1.2-.3-1.2-.3-1.3-.2-1.2-.2-1.2-.1-1.2-.1-2-.2h-4.9l-2.6.2-2.5.2-2.6.3-2.5.3-2.6.4-3.9.5-3.9.5-2.5.4-2.6.2-2.6.3-2.6.1-2.5.1h-5.1l-2.6-.3-2-.3-1.2-.2h-.6l-.2-.1-.3-.1-.4-.1-.4-.2-.5-.1-.5-.2-.5-.2-.5-.2-.9-.4-1.2-.5-2-.9-2.5-1.2-2-.8-1.2-.6-.9-.3-.6-.3-.5-.2-.5-.1-.6-.2-.4-.2h-.5l-.4-.2H252l-.6.1-1 .3-1 .6-1.1.7-1 .8-1 1-1 1-.6.7-.2.2-.2.2-.1.1-.2.1-.3.1h-.2l-.1.1h-.8l-1.6.2-2.5.1-3.4.2h-6.8l-3.5-.2-3.5-.2-3.6-.2-5.3-.3-7.1-.5-5.4-.3-3.5-.2H193l-3.5-.1H186l-2.6.1-1.7.1-1.7.1-1.7.2-1.7.2-1.7.2-1.7.3-1.7.3-1.6.3-1.7.4-1.6.4-1.6.5-1.6.5-1.7.6-1.6.6-1.5.7-1.6.7-1.6.8-1.5.9-1.6 1-1.5 1-1.5 1-1.5 1.2-1.4 1.2-1.5 1.3-1.3 1.4-1.4 1.4-1.3 1.5-1.3 1.6-1.2 1.6-.5.8c-1 1.3-1 2.5 0 2.7 1 .1 2.4-.8 3.3-2" fill="#6cb340"/><path d="M170.5 340.7h5.4v2h-9v-.1l.8-1q2-2.5 3.2-4.3 1.2-1.7 1.6-2.6.4-1 .4-1.8 0-1.2-.7-2-.7-.7-1.8-.7-1 0-1.8.5-.8.6-1.4 1.5v-2.6q1.6-1.4 3.4-1.4 1.9 0 3 1.3 1.3 1.2 1.3 3.1 0 .9-.3 1.9-.3 1-1 2.2-.8 1.3-2.7 3.5l-.4.5zm17.8-7.4q2.2 0 3.6 1.4 1.4 1.3 1.4 3.4 0 2-1.4 3.4-1.5 1.4-3.7 1.4-2.1 0-3.5-1.4t-1.4-3.4q0-2 1.4-3.5 1.4-1.3 3.6-1.3zm-.1 1.6q-1.3 0-2.2 1-.9.8-.9 2.2 0 1.3 1 2.2.8.8 2.2.8 1.4 0 2.2-.8 1-.9 1-2.3 0-1.3-1-2.2-1-.9-2.3-.9zm9.2-1.6v2.1-.1q1.4-2.2 2.8-2.2 1 0 2.2 1l-1 1.7q-1-1-1.8-1-1 0-1.6 1-.6.8-.6 2v5h-2v-9.5h2zm19.8 2.6v6.8h-1.8v-5.2q0-1.6-.5-2.2-.4-.6-1.4-.6-.6 0-1.1.2-.5.3-1.1 1v6.8h-1.9v-9.4h1.9v1.2q1.4-1.4 2.8-1.4 1.8 0 2.8 1.7 1.5-1.7 3-1.7t2.3 1q1 1 1 3v5.6h-2v-5.6q0-1.2-.4-1.8-.5-.6-1.4-.6-1.2 0-2.2 1.2zm13-2.6q2.1 0 3.6 1.4 1.4 1.3 1.4 3.4 0 2-1.5 3.4-1.4 1.4-3.6 1.4-2.1 0-3.5-1.4-1.5-1.4-1.5-3.4t1.5-3.5q1.4-1.3 3.6-1.3zm-.1 1.6q-1.4 0-2.2 1-.9.8-.9 2.2 0 1.3.9 2.2.9.8 2.3.8 1.3 0 2.2-.8.9-.9.9-2.3 0-1.3-1-2.2-.8-.9-2.2-.9zm9.1-1.6v2.1l.1-.1q1.4-2.2 2.7-2.2 1.1 0 2.3 1l-1 1.7q-1-1-1.8-1-1 0-1.6 1-.7.8-.7 2v5h-1.8v-9.5h1.8zm14 4.9h-6.6q0 1.3.9 2.1.8.8 2.1.8 1.9 0 3.4-1.1v1.8q-.8.6-1.7.8-.8.3-2 .3-1.5 0-2.5-.7-1-.6-1.5-1.7-.6-1.1-.6-2.6 0-2.1 1.2-3.5 1.2-1.3 3.2-1.3 1.9 0 3 1.3 1 1.3 1 3.5v.3zm-6.6-1.2h4.7q0-1-.6-1.7-.6-.6-1.6-.6t-1.7.6q-.6.6-.8 1.7zm18.2-.3l-1.5-1q-1.5-.8-2.1-1.7-.6-.9-.6-2 0-1.7 1.1-2.7 1.2-1.1 3-1.1 1.9 0 3.4 1v2.3q-1.6-1.4-3.4-1.4-1 0-1.6.4-.6.5-.6 1.2t.4 1.2q.5.6 1.6 1.2l1.5 1q2.6 1.5 2.6 3.9 0 1.7-1.1 2.8-1.2 1-3 1-2.1 0-3.9-1.2V339q1.7 2 3.9 2 1 0 1.6-.5.6-.5.6-1.3 0-1.3-1.9-2.5zm5.8-8.3h1.9v6.1q1.2-1.4 2.9-1.4 1 0 1.7.5.7.4 1 1.3.5.8.5 2.4v5.4h-2V337q0-1-.4-1.7-.5-.6-1.4-.6-.6 0-1.1.3-.6.3-1.2 1v6.8h-1.9v-14.3zM287 337v4q0 .5.4.5t1-.5v1.2l-1 .5q-.3.2-.7.2-1.2 0-1.5-1-1.2 1-2.5 1-1 0-1.6-.7-.7-.6-.7-1.6t.6-1.6q.7-.7 1.9-1.1l2.4-.9v-.5q0-1.7-1.7-1.7-1.6 0-3 1.6v-2q1-1.3 3.1-1.3 1.5 0 2.5.8l.5.7q.3.4.3.8v1.6zm-1.7 3.8V338l-1.3.5q-1 .4-1.3.8-.4.4-.4 1 0 .5.3 1 .4.3 1 .3.9 0 1.7-.8zm6.8-7.5v2.1l.1-.1q1.4-2.2 2.8-2.2 1 0 2.2 1l-1 1.7q-1-1-1.8-1-1 0-1.6 1-.7.8-.7 2v5h-1.8v-9.5h1.8zm12.3-4.9h2v14.3h-4q-2.2 0-3.4-1.3-1.3-1.3-1.3-3.6 0-2 1.3-3.4 1.4-1.3 3.4-1.3 1 0 2 .4v-5.1zm0 12.7v-6q-.8-.4-1.7-.4-1.4 0-2.2 1-.9.8-.9 2.4 0 1.4.8 2.2.4.5.9.7l1.7.1h1.4zm4 .9v-2l1.6 1q.8.3 1.4.3.6 0 1-.3t.4-.7q0-.4-.3-.7-.2-.3-1.1-.8-1.8-1-2.4-1.7-.5-.7-.5-1.5 0-1.1.8-1.8t2.2-.7q1.4 0 2.8.8v1.8q-1.6-1-2.7-1-.5 0-.9.3-.3.2-.3.6 0 .3.3.6l1 .7.7.4q2.4 1.3 2.4 3 0 1-1 1.8-.8.8-2.3.8-.8 0-1.5-.2l-1.6-.7z" font-size="21" font-family="GillSans" fill="#6cb340"/><path d="M237.7 351.1c0-1.3-2.9-2.4-6.5-2.4h-187c-3.6 0-6.5 1.1-6.5 2.4v70.2c0 1.3 3 2.4 6.5 2.4h187c3.6 0 6.5-1 6.5-2.4V351" fill="#6cb340"/><path d="M237.7 351.1c0-1.3-2.9-2.4-6.5-2.4h-187c-3.6 0-6.5 1.1-6.5 2.4v70.2c0 1.3 3 2.4 6.5 2.4h187c3.6 0 6.5-1 6.5-2.4V351" stroke="#bbdb88" stroke-dasharray="3,2" fill="none"/><path d="M111 384.6l-2.3-1.3q-2.1-1.3-3-2.5-.9-1.3-.9-2.9 0-2.4 1.7-3.9t4.4-1.5q2.5 0 4.7 1.4v3.3q-2.2-2-4.8-2-1.4 0-2.4.6-.9.7-.9 1.7t.7 1.7q.7.8 2.2 1.7l2.2 1.3q3.8 2.3 3.8 5.7 0 2.5-1.7 4-1.6 1.5-4.3 1.5-3 0-5.5-1.8v-3.7q2.4 3 5.5 3 1.4 0 2.3-.8 1-.8 1-2 0-1.8-2.8-3.5zm8.2-11.8h2.7v8.7q1.6-2 4.1-2 1.4 0 2.4.6 1 .7 1.6 2 .5 1 .5 3.4v7.7H128V385q0-1.5-.8-2.4-.7-.9-1.9-.9-.8 0-1.6.5-.8.4-1.7 1.5v9.6h-2.7v-20.4zm23.5 12.3v5.7q0 .7.5.7t1.5-.7v1.6l-1.5.8q-.5.2-1.1.2-1.7 0-2-1.3-1.7 1.3-3.6 1.3-1.5 0-2.4-.9-1-1-1-2.3 0-1.3 1-2.3.9-1 2.6-1.6l3.4-1.2v-.7q0-2.4-2.4-2.4-2.2 0-4.3 2.2v-2.9q1.6-1.8 4.5-1.8 2.2 0 3.5 1.1l.8 1 .4 1.2.1 2.3zm-2.6 5.4v-4l-1.8.7q-1.4.6-2 1.1-.5.6-.5 1.4 0 .8.5 1.4.6.5 1.4.5 1.3 0 2.4-1zm9.9-10.8v3.1-.2q2-3.1 4-3.1 1.5 0 3.1 1.5l-1.4 2.3q-1.4-1.3-2.6-1.3-1.3 0-2.2 1.3-1 1.2-1 2.9v7h-2.6v-13.5h2.6zm17.5-6.9h2.7v20.4h-5.7q-3 0-4.8-1.9-1.8-1.9-1.8-5 0-3 1.9-5 1.9-1.9 4.8-1.9 1.3 0 3 .6v-7.2zm0 18.1v-8.5q-1.2-.6-2.5-.6-2 0-3.2 1.3-1.2 1.3-1.2 3.5 0 2 1 3.2.7.7 1.4.9.7.2 2.4.2h2.1z" font-size="30" font-family="GillSans" fill="#fffffe"/><path d="M93 399.2h1l-1.8 3.3q-.6 1.3-.9 3-.3 1.8-.3 3.4 0 5.6 3 9.6h-1l-.4-.4L91 416q-.6-1-1.1-2.4-1-2.2-1-4.6 0-2.4 1-4.7.9-2.2 3.1-5zm4.7 5.1v2.1-.1q1.4-2.2 2.8-2.2 1 0 2.2 1l-1 1.7q-1-1-1.8-1-.9 0-1.6 1-.6.8-.6 2v5h-1.9v-9.5h1.9zm13.9 4.9H105q0 1.3.9 2.1.8.8 2.2.8 1.8 0 3.4-1.1v1.8q-.9.6-1.7.8-.9.3-2 .3-1.6 0-2.5-.7-1-.6-1.6-1.7-.6-1.1-.6-2.6 0-2.1 1.2-3.5 1.3-1.3 3.2-1.3 1.9 0 3 1.3t1.1 3.5v.3zM105 408h4.8q0-1-.7-1.7-.6-.6-1.6-.6t-1.6.6q-.7.6-.9 1.7zm8.5 10.5v-14.2h3.3q2.5 0 3.9 1.2 1.4 1.3 1.4 3.5t-1.3 3.5q-1.3 1.4-3.4 1.4-.9 0-2-.4v5h-1.9zm3.2-12.5h-1.3v5.8q.9.5 1.8.5 1.3 0 2.2-1 .8-.9.8-2.3 0-1-.4-1.6-.4-.7-1-1-.7-.4-2-.4zm7.5-6.6h1.8v14.3h-1.8v-14.3zm5.5.9q.5 0 .8.3.4.3.4.8t-.4.8q-.3.3-.8.3-.4 0-.7-.3-.3-.3-.3-.8 0-.4.3-.7.3-.4.7-.4zm-.9 4h1.9v9.4h-1.9v-9.4zm11.6 7.2v1.9q-1.4.5-2.7.5-2.2 0-3.5-1.3-1.4-1.3-1.4-3.6 0-2.2 1.3-3.5 1.3-1.4 3.4-1.4l1.3.1 1.4.6v2q-1.4-1-2.6-1-1.2 0-2 1-.9.8-.9 2.2 0 1.4.9 2.3.9.8 2.4.8 1 0 2.4-.6zm8.1-3.5v4q0 .5.3.5t1-.5v1.2l-1 .5q-.3.2-.8.2-1.2 0-1.4-1-1.2 1-2.5 1-1 0-1.6-.7-.7-.6-.7-1.6t.6-1.6q.7-.7 1.9-1.1l2.3-.9v-.5q0-1.7-1.7-1.7-1.5 0-3 1.6v-2q1.2-1.3 3.2-1.3 1.5 0 2.4.8.4.3.6.7l.3.8v1.6zm-1.9 3.8V409l-1.2.5q-1 .4-1.4.8-.3.4-.3 1 0 .5.3 1 .4.3 1 .3.9 0 1.6-.8zm10.3 1.2v-2l1.6 1q.8.3 1.4.3.6 0 1-.3t.4-.7q0-.4-.2-.7l-1.2-.8q-1.8-1-2.4-1.7-.5-.7-.5-1.5 0-1.1.8-1.8.9-.7 2.2-.7 1.4 0 2.8.8v1.8q-1.6-1-2.7-1-.5 0-.9.3-.3.2-.3.6 0 .3.3.6l1 .7.7.4q2.4 1.3 2.4 3 0 1-1 1.8-.8.8-2.3.8-.8 0-1.4-.2l-1.7-.7zm16.5-3.8h-6.6q0 1.3 1 2.1.7.8 2 .8 2 0 3.5-1.1v1.8q-.9.6-1.7.8-.9.3-2 .3-1.6 0-2.5-.7-1-.6-1.6-1.7-.6-1.1-.6-2.6 0-2.1 1.3-3.5 1.2-1.3 3.1-1.3 1.9 0 3 1.3t1.1 3.5v.3zm-6.6-1.2h4.8q0-1-.7-1.7-.6-.6-1.6-.6t-1.6.6q-.7.6-.9 1.7zm7.3-2.2l3.5-3.5v2h3v1.7h-3v4.6q0 1.6 1.4 1.6 1 0 2.1-.7v1.8q-1 .6-2.3.6-1.3 0-2.2-.8l-.4-.5-.3-.7-.1-1.8V406H174v-.2zm8.4 12.7h-1.1q1.3-2 1.9-3.4.6-1.4.8-3 .3-1.7.3-3.3 0-1.8-.3-3.4-.3-1.7-1-3.2-.6-1.5-1.7-3h1.1l.4.4 1.7 2.2 1 2.4q1 2.2 1 4.7 0 2.3-.8 4.4l-1 2.1-2.3 3.1z" font-size="21" font-family="GillSans" fill="#fff"/><path d="M452.5 351.1c0-1.3-2.9-2.4-6.5-2.4H259c-3.6 0-6.5 1.1-6.5 2.4v70.2c0 1.3 3 2.4 6.5 2.4h187c3.6 0 6.5-1 6.5-2.4V351" fill="#6cb340"/><path d="M452.5 351.1c0-1.3-2.9-2.4-6.5-2.4H259c-3.6 0-6.5 1.1-6.5 2.4v70.2c0 1.3 3 2.4 6.5 2.4h187c3.6 0 6.5-1 6.5-2.4V351" stroke="#bbdb88" stroke-dasharray="3,2" fill="none"/><path d="M325.7 384.6l-2.2-1.3q-2.1-1.3-3-2.5-.9-1.3-.9-2.9 0-2.4 1.7-3.9t4.3-1.5q2.6 0 4.7 1.4v3.3q-2.2-2-4.7-2-1.5 0-2.4.6-.9.7-.9 1.7t.7 1.7q.7.8 2.2 1.7l2.2 1.3q3.8 2.3 3.8 5.7 0 2.5-1.7 4-1.6 1.5-4.3 1.5-3 0-5.5-1.8v-3.7q2.4 3 5.5 3 1.4 0 2.3-.8.9-.8.9-2 0-1.8-2.7-3.5zm8.3-11.8h2.6v8.7q1.7-2 4.2-2 1.3 0 2.4.6 1 .7 1.6 2 .5 1 .5 3.4v7.7h-2.7V385q0-1.5-.7-2.4-.7-.9-1.9-.9-.9 0-1.6.5-.8.4-1.8 1.5v9.6H334v-20.4zm23.5 12.3v5.7q0 .7.5.7t1.5-.7v1.6l-1.5.8q-.5.2-1.1.2-1.7 0-2-1.3-1.7 1.3-3.7 1.3-1.4 0-2.3-.9-1-1-1-2.3 0-1.3 1-2.3.9-1 2.6-1.6l3.4-1.2v-.7q0-2.4-2.5-2.4-2.1 0-4.2 2.2v-2.9q1.6-1.8 4.5-1.8 2.2 0 3.5 1.1l.8 1 .4 1.2.1 2.3zm-2.6 5.4v-4l-1.8.7q-1.4.6-2 1.1-.5.6-.5 1.4 0 .8.5 1.4.6.5 1.4.5 1.3 0 2.4-1zm9.8-10.8v3.1l.2-.2q1.9-3.1 3.8-3.1 1.5 0 3.2 1.5l-1.4 2.3q-1.4-1.3-2.6-1.3-1.3 0-2.2 1.3-1 1.2-1 2.9v7H362v-13.5h2.7zm17.6-6.9h2.7v20.4h-5.7q-3 0-4.8-1.9-1.8-1.9-1.8-5 0-3 1.9-5 1.9-1.9 4.8-1.9 1.3 0 2.9.6v-7.2zm0 18.1v-8.5q-1.3-.6-2.5-.6-2 0-3.2 1.3-1.2 1.3-1.2 3.5 0 2 1 3.2.7.7 1.3.9.7.2 2.5.2h2z" font-size="30" font-family="GillSans" fill="#fffffe"/><path d="M307.7 399.2h1.2l-2 3.3q-.5 1.3-.8 3-.3 1.8-.3 3.4 0 5.6 3 9.6h-1.1l-.3-.4-1.7-2.2q-.6-1-1.1-2.4-1-2.2-1-4.6 0-2.4 1-4.7.9-2.2 3.1-5zm4.8 5.1v2.1-.1q1.4-2.2 2.8-2.2 1 0 2.2 1l-1 1.7q-1-1-1.8-1-1 0-1.6 1-.6.8-.6 2v5h-2v-9.5h2zm13.9 4.9h-6.6q0 1.3.9 2.1.8.8 2.1.8 1.9 0 3.4-1.1v1.8q-.8.6-1.7.8-.8.3-2 .3-1.5 0-2.5-.7-1-.6-1.5-1.7-.6-1.1-.6-2.6 0-2.1 1.2-3.5 1.3-1.3 3.2-1.3 1.9 0 3 1.3t1.1 3.5v.3zm-6.6-1.2h4.8q-.1-1-.7-1.7-.6-.6-1.6-.6t-1.7.6q-.6.6-.8 1.7zm8.5 10.5v-14.2h3.3q2.5 0 3.9 1.2 1.4 1.3 1.4 3.5t-1.3 3.5q-1.4 1.4-3.4 1.4-.9 0-2-.4v5h-1.9zm3.2-12.5h-1.3v5.8q.9.5 1.8.5 1.3 0 2.2-1 .8-.9.8-2.3 0-1-.4-1.6-.4-.7-1-1-.8-.4-2-.4zm7.5-6.6h1.8v14.3H339v-14.3zm5.5.9q.5 0 .8.3.3.3.3.8t-.3.8q-.3.3-.8.3-.4 0-.7-.3-.4-.3-.4-.8 0-.4.4-.7.3-.4.7-.4zm-.9 4h1.9v9.4h-1.9v-9.4zm11.6 7.2v1.9q-1.4.5-2.7.5-2.2 0-3.6-1.3-1.3-1.3-1.3-3.6 0-2.2 1.3-3.5 1.3-1.4 3.4-1.4l1.3.1 1.4.6v2q-1.4-1-2.6-1-1.3 0-2 1-.9.8-.9 2.2 0 1.4.9 2.3.9.8 2.4.8 1 0 2.4-.6zm8.1-3.5v4q0 .5.3.5t1-.5v1.2l-1 .5-.8.2q-1.2 0-1.4-1-1.2 1-2.5 1-1 0-1.7-.7-.6-.6-.6-1.6t.6-1.6q.7-.7 1.8-1.1l2.4-.9v-.5q0-1.7-1.7-1.7-1.5 0-3 1.6v-2q1.1-1.3 3.2-1.3 1.5 0 2.4.8l.6.7.3.8v1.6zm-1.9 3.8V409l-1.2.5q-1 .4-1.4.8-.4.4-.4 1 0 .5.4 1 .4.3 1 .3.9 0 1.6-.8zm10.3 1.2v-2l1.6 1q.8.3 1.4.3.6 0 1-.3t.4-.7q0-.4-.3-.7-.2-.3-1.1-.8-1.8-1-2.4-1.7-.6-.7-.6-1.5 0-1.1.9-1.8.8-.7 2.2-.7 1.4 0 2.8.8v1.8q-1.7-1-2.7-1-.6 0-.9.3-.3.2-.3.6 0 .3.3.6l1 .7.7.4q2.4 1.3 2.4 3 0 1-1 1.8-.8.8-2.3.8-.8 0-1.5-.2l-1.6-.7zm16.5-3.8h-6.6q0 1.3.9 2.1.8.8 2.2.8 1.8 0 3.4-1.1v1.8q-.9.6-1.8.8-.8.3-2 .3-1.5 0-2.5-.7-1-.6-1.5-1.7-.6-1.1-.6-2.6 0-2.1 1.2-3.5 1.3-1.3 3.2-1.3 1.9 0 3 1.3t1.1 3.5v.3zm-6.6-1.2h4.8q-.1-1-.7-1.7-.6-.6-1.6-.6t-1.6.6q-.7.6-.9 1.7zm7.4-2.2l3.4-3.5v2h3v1.7h-3v4.6q0 1.6 1.4 1.6 1 0 2-.7v1.8q-1 .6-2.3.6-1.2 0-2.1-.8-.3-.2-.4-.5l-.3-.7q-.2-.5-.2-1.8V406H389v-.2zm8.3 12.7h-1.1q1.3-2 1.9-3.4.5-1.4.8-3 .3-1.7.3-3.3 0-1.8-.3-3.4-.4-1.7-1-3.2-.6-1.5-1.7-3h1.1l.3.4q1.2 1.3 1.7 2.2l1.2 2.4q.9 2.2.9 4.7 0 2.3-.9 4.4l-1 2.1q-.6 1.1-2.2 3.1z" font-size="21" font-family="GillSans" fill="#fff"/><path d="M606.5 203.6c0-1.3-2.9-2.4-6.5-2.4H413c-3.6 0-6.5 1-6.5 2.4v70.2c0 1.3 3 2.4 6.5 2.4h187c3.6 0 6.5-1.1 6.5-2.4v-70.2" fill="#ee9c02"/><path d="M606.5 203.6c0-1.3-2.9-2.4-6.5-2.4H413c-3.6 0-6.5 1-6.5 2.4v70.2c0 1.3 3 2.4 6.5 2.4h187c3.6 0 6.5-1.1 6.5-2.4v-70.2" stroke="#f9dca0" stroke-dasharray="3,2" fill="none"/><path d="M436.3 241.6v3.2q-3.2 1.8-7.5 1.8-3.4 0-5.8-1.4t-3.8-3.8q-1.3-2.4-1.3-5.2 0-4.5 3.1-7.6 3.2-3 7.9-3 3.2 0 7.2 1.7v3.1q-3.6-2-7-2-3.6 0-5.9 2.2-2.3 2.2-2.3 5.6 0 3.3 2.3 5.5t5.8 2.2q3.7 0 7.3-2.3zm9.7-8.8q3 0 5.1 2 2 2 2 5 0 2.9-2 4.8-2 2-5.2 2-3 0-5.1-2-2-2-2-4.9 0-3 2-5 2-1.9 5.2-1.9zm-.2 2.4q-1.9 0-3.1 1.3-1.2 1.2-1.2 3.2t1.2 3.1q1.3 1.3 3.3 1.3 2 0 3.2-1.3 1.2-1.2 1.2-3.1 0-2-1.3-3.2-1.3-1.3-3.3-1.3zm12.9-2.4v1.8q1.8-2 4-2 1.4 0 2.4.6 1.1.7 1.7 1.8.5 1.2.5 3.6v7.7h-2.6v-7.7q0-2-.6-2.9-.7-.9-2.2-.9-1.8 0-3.2 1.9v9.6H456v-13.5h2.7zm12.7 0v-.8q0-3.2 1.4-4.8 1.3-1.6 3.3-1.6.8 0 2 .3v2.6q-.7-.3-1.3-.3-1.5 0-2.2.9-.6.8-.6 3v.7h2.4v2.4H474v11.1h-2.6v-11h-2v-2.5h2zm8.6-5.6q.6 0 1 .4.5.5.5 1.1 0 .7-.4 1.2-.5.4-1.2.4-.6 0-1-.4-.5-.5-.5-1.2 0-.6.5-1 .4-.5 1-.5zm-1.4 5.6h2.7v13.5h-2.7v-13.5zm5.8 4.7q0-2.2 1.6-3.4 1.6-1.3 4.3-1.3h5.6v2.1H493q.8.8 1.1 1.5.4.6.4 1.5 0 1-.7 2-.6 1-1.5 1.6-1 .6-3 .9-1.6.2-1.6 1 0 .5.6.8.5.3 2 .6l3.2.9q.7.3 1.3.9 1 1 1 2.4 0 1.9-1.8 3-1.7 1.2-4.5 1.2-3 0-4.6-1.2-1.8-1.1-1.8-3 0-2.8 3.4-3.6-1.3-.8-1.3-1.7 0-.6.5-1.2.6-.5 1.6-.7-3-1.4-3-4.3zm5-2.3q-1 0-1.8.7t-.8 1.7q0 1 .8 1.8.7.6 1.9.6 1.1 0 1.9-.6.7-.7.7-1.8 0-1-.7-1.7-.8-.7-2-.7zm-.6 11.7q-1.3 0-2.2.6-.8.6-.8 1.5 0 2 3.7 2 1.8 0 2.8-.5 1-.5 1-1.4 0-1-1.3-1.6-1.2-.6-3.2-.6zm22.9-9.2l-2.2-1.3q-2.1-1.3-3-2.5-.9-1.3-.9-2.9 0-2.4 1.7-3.9t4.4-1.5q2.5 0 4.7 1.4v3.4q-2.3-2.2-4.8-2.2-1.4 0-2.4.7-.9.7-.9 1.7t.7 1.7q.7.8 2.2 1.7l2.2 1.3q3.8 2.3 3.8 5.7 0 2.5-1.7 4-1.6 1.6-4.3 1.6-3 0-5.5-2V241q2.4 3 5.5 3 1.4 0 2.3-.8 1-.8 1-2 0-1.8-2.8-3.5zm19.8 2.1h-9.4q0 2 1.2 3 1.3 1.2 3.1 1.2 2.7 0 4.9-1.6v2.6q-1.2.8-2.4 1.2-1.2.3-2.9.3-2.2 0-3.6-.9-1.4-1-2.2-2.5-.8-1.5-.8-3.6 0-3 1.7-5 1.8-2 4.6-2 2.6 0 4.2 2 1.6 1.8 1.6 5v.3zm-9.4-1.6h6.8q-.1-1.6-1-2.4-.8-1-2.2-1-1.5 0-2.4 1-.9.8-1.2 2.4zm15.2-5.4v3.1l.1-.2q2-3.1 3.9-3.1 1.5 0 3.1 1.5l-1.4 2.3q-1.4-1.3-2.6-1.3-1.2 0-2.2 1.3-1 1.2-1 2.9v7h-2.6v-13.5h2.7zm18.1 0h3l-6 13.8h-1l-6-13.8h2.9l3.6 8.3 3.5-8.3zm15.8 7h-9.5q.1 2 1.3 3 1.2 1.2 3.1 1.2 2.6 0 4.9-1.6v2.6q-1.3.8-2.5 1.2-1.2.3-2.8.3-2.2 0-3.6-.9-1.4-1-2.2-2.5-.8-1.5-.8-3.6 0-3 1.7-5t4.5-2q2.7 0 4.3 2 1.6 1.8 1.6 5v.3zm-9.4-1.6h6.8q-.1-1.6-1-2.4-.8-1-2.3-1-1.4 0-2.3 1-1 .8-1.2 2.4zm15.2-5.4v3.1-.2q2-3.1 4-3.1 1.5 0 3.1 1.5l-1.4 2.3q-1.4-1.3-2.6-1.3-1.3 0-2.2 1.3-1 1.2-1 2.9v7h-2.6v-13.5h2.6zm8.3 12.6v-3q1.1.9 2.3 1.4 1.2.5 2 .5t1.4-.5q.6-.4.6-1 0-.5-.4-1l-1.6-1q-2.6-1.5-3.4-2.5-.8-1-.8-2.2 0-1.6 1.2-2.5 1.2-1 3.1-1 2 0 4 1v2.7q-2.3-1.4-3.8-1.4-.8 0-1.3.3-.4.4-.4.9t.4.9q.4.4 1.5 1l1 .6q3.3 1.9 3.3 4.2 0 1.6-1.3 2.7-1.3 1-3.3 1-1.2 0-2.1-.2-1-.3-2.4-1z" font-size="30" font-family="GillSans" fill="#fff"/><path d="M461.7 251.7h1.2q-1.3 1.9-1.9 3.2-.6 1.4-.9 3.2-.3 1.7-.3 3.3 0 5.6 3 9.6h-1l-.4-.4q-1.2-1.4-1.7-2.3-.6-.9-1.1-2.3-1-2.3-1-4.6 0-2.5 1-4.7.9-2.3 3.1-5zm4.8 5.1v2.1-.1q1.4-2.2 2.8-2.2 1 0 2.2 1l-1 1.7q-1-1-1.8-1-.9 0-1.6 1-.6.8-.6 2v4.9h-1.9v-9.4h1.9zm13.9 4.8h-6.6q0 1.4.9 2.2.8.8 2.2.8 1.8 0 3.4-1.2v1.9l-1.7.8q-.9.2-2 .2-1.6 0-2.5-.6-1-.7-1.6-1.7-.6-1.1-.6-2.6 0-2.1 1.2-3.5 1.3-1.3 3.2-1.3 1.9 0 3 1.3t1.1 3.5v.2zm-6.6-1h4.8q0-1.2-.7-1.8-.6-.6-1.6-.6t-1.6.6q-.7.6-.9 1.7zm8.5 10.4v-14.2h3.3q2.5 0 3.9 1.2 1.4 1.3 1.4 3.5 0 2.1-1.3 3.5t-3.4 1.4q-.9 0-2-.4v5h-1.9zm3.2-12.5h-1.3v5.8q.9.4 1.8.4 1.3 0 2.2-.9.8-.9.8-2.3 0-1-.4-1.6-.4-.7-1-1-.7-.4-2-.4zm7.5-6.6h1.8v14.3H493v-14.3zm5.5.9q.5 0 .8.3.4.3.4.8 0 .4-.4.8-.3.3-.8.3-.4 0-.7-.3-.4-.4-.4-.8t.4-.8q.3-.3.7-.3zm-.9 4h1.9v9.4h-1.9v-9.4zm11.6 7.2v1.8q-1.4.6-2.7.6-2.2 0-3.5-1.4-1.4-1.3-1.4-3.5t1.3-3.6q1.3-1.3 3.4-1.3l1.3.1 1.4.5v2q-1.4-.9-2.6-.9-1.2 0-2 1-.9.8-.9 2.2 0 1.4.9 2.3.9.8 2.4.8 1 0 2.4-.6zm8.1-3.5v4q0 .5.3.5t1-.5v1.2l-1 .5q-.3.2-.8.2-1.2 0-1.4-1-1.2 1-2.5 1-1 0-1.6-.7-.7-.7-.7-1.6 0-1 .6-1.6.7-.7 1.9-1.2l2.3-.8v-.5q0-1.7-1.7-1.7-1.5 0-3 1.6v-2q1.2-1.3 3.2-1.3 1.5 0 2.4.8.4.2.6.7l.3.8v1.6zm-1.9 3.8v-2.8l-1.2.5q-1 .4-1.4.8-.3.4-.3 1 0 .5.3.9.4.4 1 .4.9 0 1.6-.8zm10.3 1.2v-2l1.6 1 1.4.2q.6 0 1-.2.4-.3.4-.7 0-.4-.2-.7l-1.2-.8q-1.8-1-2.4-1.7-.5-.7-.5-1.6 0-1 .8-1.7.9-.7 2.2-.7 1.4 0 2.8.8v1.8q-1.6-1-2.7-1-.5 0-.9.2-.3.3-.3.6 0 .4.3.7l1 .7.7.4q2.4 1.3 2.4 3 0 1-1 1.8-.8.8-2.3.8-.8 0-1.4-.2l-1.7-.7zm16.5-3.9h-6.6q0 1.4 1 2.2.7.8 2 .8 2 0 3.5-1.2v1.9l-1.7.8q-.9.2-2 .2-1.6 0-2.5-.6-1-.7-1.6-1.7-.6-1.1-.6-2.6 0-2.1 1.3-3.5 1.2-1.3 3.1-1.3 1.9 0 3 1.3t1.1 3.5v.2zm-6.6-1h4.8q0-1.2-.7-1.8-.6-.6-1.6-.6t-1.6.6q-.7.6-.9 1.7zm7.4-2.3l3.4-3.5v2h3v1.6h-3v4.7q0 1.6 1.4 1.6 1 0 2.1-.7v1.8q-1 .6-2.3.6-1.3 0-2.2-.8l-.4-.5-.3-.7-.1-1.8v-4.2h-1.7v-.1zm8.3 12.7h-1.1q1.3-2 1.9-3.4.6-1.4.8-3 .3-1.8.3-3.3 0-1.8-.3-3.5-.3-1.6-1-3.1-.6-1.5-1.7-3h1.1l.4.4 1.7 2.2 1 2.3q1 2.3 1 4.7 0 2.4-.8 4.5l-1 2.1-2.3 3.1z" font-size="21" font-family="GillSans" fill="#fff"/></svg>