<svg xmlns="http://www.w3.org/2000/svg" height="460" width="360"><path d="M118.3 289.6c0-3-1.6-5.5-3.5-5.5h-102c-2 0-3.5 2.5-3.5 5.5v157c0 3 1.6 5.5 3.5 5.5h102c2 0 3.5-2.4 3.5-5.4V289.6" fill="#5ca831"/><path d="M118.3 289.6c0-3-1.6-5.5-3.5-5.5h-102c-2 0-3.5 2.5-3.5 5.5v157c0 3 1.6 5.5 3.5 5.5h102c2 0 3.5-2.4 3.5-5.4V289.6" stroke="#5ca831" fill="none"/><path d="M39.6 350.7h58.9v83.6h-59z" fill="#fff"/><path d="M39.6 350.7h58.9v83.6h-59z" stroke="#0c60b2" fill="none"/><path d="M29 360.1h61v84.6H29z" fill="#fff"/><path d="M29 360.1h61v84.6H29z" stroke="#0c60b2" fill="none"/><path d="M235.5 289.6c0-3-1.6-5.5-3.5-5.5H130c-1.9 0-3.5 2.5-3.5 5.5v157c0 3 1.6 5.5 3.6 5.5H232c2 0 3.5-2.4 3.5-5.4V289.6" fill="#5ca831"/><path d="M235.5 289.6c0-3-1.6-5.5-3.5-5.5H130c-1.9 0-3.5 2.5-3.5 5.5v157c0 3 1.6 5.5 3.6 5.5H232c2 0 3.5-2.4 3.5-5.4V289.6" stroke="#5ca831" fill="none"/><path d="M351 289.6c0-3-1.6-5.5-3.6-5.5H245.5c-2 0-3.5 2.5-3.5 5.5v157c0 3 1.6 5.5 3.5 5.5h102c1.9 0 3.5-2.4 3.5-5.4V289.6" fill="#5ca831"/><path d="M351 289.6c0-3-1.6-5.5-3.6-5.5H245.5c-2 0-3.5 2.5-3.5 5.5v157c0 3 1.6 5.5 3.5 5.5h102c1.9 0 3.5-2.4 3.5-5.4V289.6" stroke="#5ca831" fill="none"/><path d="M25.2 341h303.6c5 0 9 6.3 9 14.2v77.2c0 7.9-4 14.3-9 14.3H25.2c-5 0-9.1-6.4-9.1-14.3v-77.2c0-7.9 4-14.3 9-14.3z" stroke="#0c60b2" stroke-width="1.5" stroke-dasharray="3,1.5" fill="none"/><path d="M238.7 136.1c0-.9-1.7-1.6-3.8-1.6H125.4c-2 0-3.8.7-3.8 1.6v47c0 .8 1.7 1.6 3.8 1.6H235c2 0 3.8-.8 3.8-1.7v-46.9" fill="#2a86c0"/><path d="M156.8 350.7h59v83.6h-59z" fill="#fff"/><path d="M156.8 350.7h59v83.6h-59z" stroke="#0c60b2" fill="none"/><path d="M146.3 360.1h60.8v84.6h-60.8z" fill="#fff"/><path d="M146.3 360.1h60.8v84.6h-60.8z" stroke="#0c60b2" fill="none"/><path d="M272.3 350.7h58.9v83.6h-59z" fill="#fff"/><path d="M272.3 350.7h58.9v83.6h-59z" stroke="#0c60b2" fill="none"/><path d="M261.8 360.1h60.8v84.6h-60.8z" fill="#fff"/><path d="M261.8 360.1h60.8v84.6h-60.8z" stroke="#0c60b2" fill="none"/><path d="M124 55.3c0 1.2.8 2.2 1.9 2.2H239c1 0 2-1 2-2.2V10.1c0-1.2-1-2.2-2-2.2H125.9c-1.1 0-2 1-2 2.2v45.2" fill="#5a5955"/><path d="M163.5 67.5v49.4" stroke="#5a5955" stroke-width="3" fill="none"/><path d="M159.3 116.9l4.2 11.2 4.2-11.2z" fill="#5a5955"/><path d="M159.3 116.9l4.2 11.2 4.2-11.2zm4.2 71.4v77.2" stroke="#5a5955" stroke-width="3" fill="none"/><path d="M159.3 265.5l4.2 11.2 4.2-11.2z" fill="#5a5955"/><path d="M159.3 265.5l4.2 11.2 4.2-11.2zm43 13.6v-71.2" stroke="#5a5955" stroke-width="3" fill="none"/><path d="M206.5 208l-4.2-11.3L198 208z" fill="#5a5955"/><path d="M206.5 208l-4.2-11.3L198 208zm-4.2-80.8v-46" stroke="#5a5955" stroke-width="3" fill="none"/><path d="M206.5 81.2L202.3 70 198 81.2z" fill="#5a5955"/><path d="M206.5 81.2L202.3 70 198 81.2z" stroke="#5a5955" stroke-width="3" fill="none"/><path d="M150 40V23.8h5.6q3.3 0 5.3 1 1.9 1 3 3 1.2 2 1.2 4.2 0 1.7-.6 3.2-.7 1.5-1.8 2.6-1.2 1.2-2.8 1.8l-1.7.5H150zm5.3-14.2h-3V38h3q1.8 0 2.8-.2l1.6-.6q.7-.4 1.2-1 1.8-1.7 1.8-4.4 0-2.6-1.8-4.3-.7-.6-1.5-1-.9-.4-1.6-.5-.8-.2-2.5-.2zm14.7 3.5v2.5l.1-.2q1.6-2.5 3.1-2.5 1.2 0 2.5 1.2l-1 2q-1.2-1.1-2.1-1.1-1 0-1.8 1t-.8 2.3V40h-2V29.3h2.1zm8.3-4.5q.6 0 1 .4.3.3.3.9 0 .5-.3.8-.4.4-1 .4-.4 0-.8-.4-.4-.3-.4-.8t.4-1q.4-.3.8-.3zm-1 4.5h2.1v10.8h-2.1V29.3zm11.7 0h2.4l-4.8 11h-.7l-4.8-11h2.3l2.9 6.7 2.8-6.7zm12.7 5.7h-7.6q.1 1.5 1 2.4 1 .9 2.5.9 2.1 0 4-1.3v2q-1 .7-2 1-1 .3-2.3.3-1.8 0-2.9-.8-1-.7-1.7-2-.7-1.2-.7-2.8 0-2.5 1.4-4 1.4-1.6 3.6-1.6t3.4 1.5q1.3 1.5 1.3 4v.3zm-7.5-1.4h5.4q0-1.2-.8-2-.6-.6-1.8-.6-1.1 0-1.9.7-.7.7-1 2zm12.1-4.3v2.5l.1-.2q1.6-2.5 3.1-2.5 1.2 0 2.5 1.2l-1 2q-1.2-1.1-2.1-1.1-1 0-1.8 1t-.8 2.3V40h-2.1V29.3h2.1z" font-size="24" font-family="GillSans" fill="#fffffe"/><path d="M107.8 86.4V70h4.1q2.5 0 4 1.3 1.5 1.2 1.5 3.3 0 1.4-.8 2.5-.7 1-2 1.5.8.5 1.5 1.4.8 1 2.1 3.1l1.4 2.1.9 1.2h-2.8l-.7-1-.2-.3-.4-.6-.8-1.2-.7-1.3-1.4-1.6-1-.9q-.6-.2-1.7-.2h-.6v7h-2.4zm3-14.4h-.6v5.2h.9q1.8 0 2.4-.3.7-.3 1-1 .4-.6.4-1.3 0-.8-.4-1.4-.4-.7-1.1-1-.8-.2-2.5-.2zm20.4 9.2h-7.6q.1 1.5 1 2.5 1 .9 2.5.9 2.1 0 4-1.3v2q-1 .7-2 1-1 .3-2.3.3-1.8 0-2.9-.8-1-.7-1.8-2-.6-1.2-.6-2.9 0-2.4 1.4-4 1.4-1.5 3.6-1.5 2.1 0 3.4 1.5 1.3 1.5 1.3 4v.3zm-7.5-1.3h5.4q0-1.3-.8-2-.6-.6-1.8-.6-1.1 0-1.9.6-.7.7-1 2zm16.6.1v4.5q0 .5.3.5.4 0 1.3-.5v1.3l-1.2.6-1 .2q-1.3 0-1.5-1.1-1.4 1-3 1-1 0-1.8-.7t-.8-1.9q0-1 .8-1.8.7-.8 2-1.2l2.8-1v-.6q0-2-2-2-1.7 0-3.4 1.9v-2.3q1.3-1.5 3.6-1.5 1.8 0 2.8 1 .4.2.6.7l.4 1v1.8zm-2.1 4.3V81l-1.5.5q-1 .4-1.5.9-.4.4-.4 1 0 .7.4 1.2.4.4 1 .4 1.1 0 2-.8zM151 70h2.1v16.4h-4.6q-2.3 0-3.8-1.5-1.4-1.5-1.4-4t1.5-4q1.5-1.5 3.8-1.5 1 0 2.4.4V70zm0 14.6v-6.9q-1-.5-2-.5-1.6 0-2.6 1-1 1.1-1 2.9 0 1.6.9 2.6.5.5 1 .7.6.2 2 .2h1.7z" font-size="24" font-family="GillSans" fill="#5a5955"/><path d="M88 102.9v-1.5q.6 0 1-.3t.6-.9l.1-2.2q0-1.8.2-2.4 0-.6.5-1.1.3-.5.8-.6.5-.2 1.3-.2h.5v1.4h-.3q-.9 0-1.2.3-.3.4-.3 1.5v1.3l-.1 2q-.2.7-.6 1.1-.3.5-1.1.9 1 .4 1.4 1.3.4.8.4 2.6v1.3q0 1.1.3 1.5.3.3 1.2.3h.3v1.4h-.5q-.9 0-1.4-.2l-.8-.6q-.3-.5-.4-1.1l-.2-2.4-.1-2.2q-.2-.6-.6-1l-1-.2zm16.6-.9v3.4q0 .4.3.4t1-.4v1l-1 .4-.6.2q-1 0-1.3-.8-1 .7-2.1.7-.9 0-1.4-.5-.6-.6-.6-1.4 0-.8.6-1.4.5-.6 1.5-1l2-.6v-.5q0-1.4-1.4-1.4-1.3 0-2.5 1.3v-1.7q.9-1.1 2.6-1.1 1.3 0 2.1.7l.5.5.3.8v1.4zm-1.5 3.2v-2.4l-1.1.4-1.2.7q-.3.3-.3.8t.3.8q.3.3.9.3.7 0 1.4-.6zm4.9-.4q.5 0 .8.3.3.4.3.8t-.3.8q-.3.3-.8.3-.4 0-.7-.3-.3-.4-.3-.8t.3-.8q.3-.3.7-.3zm.2-6.2q.4 0 .7.3.3.3.3.8 0 .4-.3.7-.3.3-.7.3-.5 0-.8-.3-.3-.3-.3-.7 0-.5.3-.8.3-.3.8-.3zm7.3-.1h-1l-.4-2.5v-2h1.8v2l-.4 2.5zm2.9 0h-1L117 96v-2h1.8v2l-.4 2.5zm1.6.2h7l-4.4 6.6h4.3v1.5h-7l4.2-6.6H120v-1.5zm10.8-4.2h1.7v12.3h-1.7V94.5zm7.6 4h-1L137 96v-2h1.8v2l-.4 2.5zm2.9 0h-1L140 96v-2h1.8v2l-.4 2.5zm6.7-4.8h.4q.9 0 1.4.2l.8.6q.4.5.5 1.1l.1 2.4.1 2.2q.2.6.6 1 .5.2 1.1.2v1.5q-.6 0-1 .3-.5.3-.7 1l-.1 2-.1 2.5q-.1.6-.5 1.1-.4.5-.8.6-.5.2-1.4.2h-.5v-1.4h.3q1 0 1.2-.3.3-.4.3-1.5v-1.3q0-1.8.4-2.6.4-1 1.4-1.3-.7-.4-1-.8-.4-.4-.6-1.2-.2-.7-.2-2v-1.3q0-1.1-.3-1.5-.3-.3-1.2-.3h-.3v-1.4z" font-size="18" font-family="GillSans" fill="#5a5955"/><path d="M212.8 123.5v-16.4h4.1q2.5 0 4 1.3 1.4 1.2 1.4 3.3 0 1.4-.7 2.5-.7 1-2 1.5.7.5 1.5 1.4l2.1 3.1 1.4 2.1.8 1.2h-2.7l-.8-1-.1-.3-.5-.6-.7-1.2-.8-1.3-1.3-1.6-1-.9q-.6-.2-1.7-.2h-.6v7.1h-2.4zm3-14.4h-.6v5.2h.9q1.7 0 2.4-.3t1-1q.4-.6.4-1.3 0-.8-.4-1.4-.4-.7-1.2-1-.7-.2-2.4-.2zm20.4 9.2h-7.6q0 1.5 1 2.5 1 .9 2.5.9 2.1 0 3.9-1.3v2q-1 .7-2 1-1 .3-2.2.3-1.8 0-3-.8-1-.7-1.7-2-.6-1.2-.6-2.8 0-2.5 1.4-4 1.4-1.6 3.6-1.6 2.1 0 3.4 1.5 1.3 1.5 1.3 4v.3zm-7.6-1.3h5.5q-.1-1.3-.8-2-.7-.6-1.8-.6-1.2 0-2 .7-.6.6-.9 2zm9.4 5.7v-2.3q.9.7 1.8 1 1 .4 1.6.4.7 0 1.1-.3.5-.3.5-.8 0-.4-.3-.7-.3-.4-1.3-1-2.1-1-2.7-1.9-.7-.8-.7-1.8 0-1.2 1-2t2.5-.8q1.6 0 3.2.9v2.1q-1.9-1.1-3-1.1-.7 0-1 .2-.5.3-.5.7 0 .4.4.7.3.4 1.2.9l.8.4q2.7 1.5 2.7 3.4 0 1.3-1 2.1-1.1.9-2.8.9-1 0-1.7-.2t-1.8-.8zm16.5.8v-1.4q-.6.8-1.5 1.2-.9.4-1.8.4-1 0-1.8-.5-.9-.5-1.3-1.4-.5-.9-.5-3v-6h2.2v6q0 1.8.4 2.4.5.7 1.7.7 1.6 0 2.6-1.5v-7.7h2.2v10.8h-2.2zm5.2-16.4h2.1v16.4h-2v-16.4zm3.8 7.3l4-4v2.3h3.4v2h-3.4v5.2q0 1.9 1.5 1.9 1.1 0 2.4-.8v2q-1.2.7-2.7.7-1.4 0-2.4-.9l-.5-.5-.3-.9q-.2-.5-.2-2v-4.8h-1.8v-.2zm9 8.3v-2.3q.9.7 1.8 1 1 .4 1.6.4.7 0 1.1-.3.5-.3.5-.8 0-.4-.3-.7-.3-.4-1.3-1-2.1-1-2.7-1.9-.7-.8-.7-1.8 0-1.2 1-2t2.5-.8q1.6 0 3.2.9v2.1q-1.9-1.1-3-1.1-.7 0-1 .2-.5.3-.5.7 0 .4.4.7.3.4 1.2.9l.8.4q2.7 1.5 2.7 3.4 0 1.3-1 2.1-1.1.9-2.8.9-1 0-1.7-.2t-1.8-.8z" font-size="24" font-family="GillSans" fill="#5a5955"/><path d="M154.2 159.3v7.8h-2.1v-6q0-1.8-.5-2.5t-1.7-.7q-.7 0-1.2.3-.6.3-1.3 1v7.9h-2.1v-10.8h2.1v1.4q1.6-1.6 3.2-1.6 2 0 3.2 2 1.7-2 3.5-2 1.6 0 2.6 1.1 1 1.2 1 3.5v6.4h-2.1v-6.4q0-1.4-.5-2-.6-.8-1.6-.8-1.4 0-2.5 1.4zm14.8-3q2.4 0 4 1.6 1.7 1.6 1.7 4 0 2.3-1.6 3.8-1.7 1.6-4.2 1.6-2.4 0-4-1.6-1.7-1.6-1.7-3.9 0-2.4 1.6-4 1.7-1.5 4.2-1.5zm-.1 1.9q-1.6 0-2.6 1t-1 2.6q0 1.5 1 2.5t2.7 1q1.5 0 2.5-1t1-2.5q0-1.6-1-2.6t-2.6-1zm10.3-1.9v1.4q1.4-1.6 3.2-1.6 1 0 1.9.5.9.5 1.3 1.4.5 1 .5 3v6h-2.2v-6q0-1.7-.5-2.4t-1.7-.7q-1.5 0-2.5 1.5v7.7H177v-10.8h2.2zm9.3 3.7q0-1.7 1.3-2.7 1.2-1 3.4-1h4.4v1.7h-2.1q.6.6.8 1.1.3.6.3 1.2 0 .9-.5 1.7-.5.8-1.2 1.3-.8.4-2.5.6-1.2.2-1.2.9 0 .3.4.6l1.7.5q2 .4 2.5.7.6.2 1 .7.8.7.8 2 0 1.5-1.4 2.4-1.3.9-3.6.9t-3.7-1q-1.4-.9-1.4-2.4 0-2.2 2.7-2.8-1-.7-1-1.4 0-.5.4-1 .5-.4 1.3-.6-2.4-1-2.4-3.4zm4-1.8q-.9 0-1.5.5-.6.6-.6 1.4 0 .9.6 1.4.6.6 1.5.6 1 0 1.5-.6.6-.5.6-1.4 0-.8-.6-1.4-.6-.5-1.5-.5zm-.5 9.4q-1 0-1.8.4-.6.5-.6 1.2 0 1.7 3 1.7 1.4 0 2.1-.4.8-.5.8-1.2 0-.8-1-1.2-1-.5-2.5-.5zm12.2-11.3q2.5 0 4.1 1.6 1.7 1.6 1.7 4 0 2.3-1.7 3.8-1.6 1.6-4.2 1.6-2.4 0-4-1.6t-1.6-3.9q0-2.4 1.6-4 1.7-1.5 4.1-1.5zm0 1.9q-1.6 0-2.6 1t-1 2.6q0 1.5 1 2.5t2.6 1q1.6 0 2.6-1t1-2.5q0-1.6-1-2.6-1.1-1-2.7-1zm7.6 8.1V164l1.8 1q1 .4 1.6.4.7 0 1.2-.3.4-.3.4-.8t-.3-.8l-1.3-.9q-2-1.1-2.7-2-.7-.7-.7-1.7 0-1.2 1-2t2.5-.8q1.6 0 3.2.9v2q-1.9-1-3-1-.7 0-1 .2-.4.3-.4.7 0 .4.3.7.3.4 1.2.8l.8.5q2.7 1.5 2.7 3.3 0 1.4-1 2.2-1.1.9-2.7.9-1 0-1.7-.2-.8-.2-2-.8zM34 299.2l-1.9-1q-1.6-1-2.4-2-.7-1-.7-2.3 0-2 1.4-3.2 1.3-1.2 3.5-1.2 2 0 3.7 1.2v2.6q-1.7-1.7-3.8-1.7-1.1 0-1.9.6-.7.5-.7 1.3t.5 1.4q.6.7 1.8 1.4l1.8 1q3 1.8 3 4.6 0 2-1.4 3.2-1.3 1.2-3.4 1.2-2.4 0-4.4-1.5v-3q2 2.4 4.4 2.4 1.1 0 1.8-.6.8-.6.8-1.5 0-1.5-2.2-2.9zm6.5-9.5h2.2v7q1.3-1.6 3.3-1.6 1 0 2 .6.8.5 1.2 1.5.4.9.4 2.8v6.1h-2.1v-6.7q0-1.1-.6-1.9-.6-.7-1.5-.7-.7 0-1.4.4-.6.3-1.3 1.2v7.7h-2.2v-16.4zm18.9 9.9v4.6q0 .6.3.6.4 0 1.2-.6v1.3q-.7.5-1.1.6l-1 .2q-1.3 0-1.6-1-1.3 1-2.9 1-1 0-1.8-.8-.8-.7-.8-1.8 0-1 .7-1.8.8-.9 2.1-1.3l2.8-1v-.5q0-2-2-2-1.7 0-3.4 1.8v-2.3q1.3-1.5 3.6-1.5 1.7 0 2.8 1l.6.7.4 1v1.8zm-2.1 4.4v-3.2l-1.5.5q-1 .5-1.5 1-.5.3-.5 1t.5 1q.4.5 1 .5 1 0 2-.8zm7.8-8.7v2.5l.1-.2q1.6-2.5 3.1-2.5 1.2 0 2.6 1.2l-1.2 2q-1-1.1-2-1.1t-1.8 1q-.8 1-.8 2.3v5.6H63v-10.8h2zm14.1-5.6h2.1v16.4h-4.5q-2.4 0-3.9-1.5-1.4-1.5-1.4-4 0-2.4 1.5-4 1.5-1.5 3.8-1.5 1.1 0 2.4.5v-5.9zm0 14.6v-6.8q-1-.5-2-.5-1.6 0-2.6 1t-1 2.8q0 1.7 1 2.6.4.5 1 .7.5.2 2 .2h1.6zM94 289.7h1.7L103 306h-2.4l-2.2-4.8h-7l-2 4.8H87l7-16.4zm3.4 9.5l-2.6-6-2.4 6h5zm51.4 0l-1.7-1q-1.7-1-2.4-2t-.7-2.3q0-2 1.3-3.2 1.4-1.2 3.5-1.2 2 0 3.8 1.2v2.6q-1.8-1.7-3.8-1.7-1.2 0-2 .6-.7.5-.7 1.3t.6 1.4q.5.7 1.7 1.4l1.8 1q3 1.8 3 4.6 0 2-1.3 3.2-1.3 1.2-3.4 1.2-2.5 0-4.5-1.5v-3q2 2.4 4.4 2.4 1.1 0 1.9-.6.7-.6.7-1.5 0-1.5-2.2-2.9zm6.7-9.5h2.1v7q1.3-1.6 3.3-1.6 1 0 2 .6.8.5 1.2 1.5.4.9.4 2.8v6.1h-2.1v-6.7q0-1.1-.6-1.9-.6-.7-1.5-.7-.7 0-1.3.4-.7.3-1.4 1.2v7.7h-2.1v-16.4zm18.8 9.9v4.6q0 .6.4.6.3 0 1.2-.6v1.3l-1.2.6q-.4.2-1 .2-1.3 0-1.5-1-1.4 1-3 1-1 0-1.8-.8-.8-.7-.8-1.8 0-1 .8-1.8.7-.9 2-1.3l2.8-1v-.5q0-2-2-2-1.7 0-3.4 1.8v-2.3q1.3-1.5 3.6-1.5 1.8 0 2.8 1 .4.2.7.7l.3 1v1.8zm-2.1 4.4v-3.2l-1.4.5q-1.1.5-1.6 1-.4.3-.4 1t.4 1q.4.5 1.1.5 1 0 1.9-.8zm7.8-8.7v2.5l.2-.2q1.5-2.5 3-2.5 1.3 0 2.6 1.2l-1.1 2q-1.1-1.1-2-1.1-1.1 0-1.9 1-.7 1-.7 2.3v5.6h-2.2v-10.8h2.2zm14.1-5.6h2.2v16.4h-4.6q-2.4 0-3.8-1.5t-1.4-4q0-2.4 1.5-4 1.5-1.5 3.8-1.5 1 0 2.3.5v-5.9zm0 14.6v-6.8q-1-.5-2-.5-1.6 0-2.5 1-1 1-1 2.8 0 1.7.8 2.6.5.5 1 .7.6.2 2 .2h1.7zm17.5 1.8h-5.5v-16.4h4.3q2 0 3.2.6 1 .5 1.7 1.5.6 1 .6 2.2 0 2.4-2.5 3.5 1.8.3 2.8 1.4 1.1 1.2 1.1 2.8 0 1.2-.6 2.2-.7 1-2 1.6-1.2.6-3 .6zm-1.1-14.3h-2v5h1.5q1.9 0 2.7-.8.8-.7.8-1.8 0-2.4-3-2.4zm.1 7h-2.2v5.2h2.4q1.9 0 2.6-.3.6-.3 1-.9.5-.6.5-1.4 0-.7-.5-1.3-.4-.7-1.2-1-.8-.3-2.6-.3zm52.5.4l-1.7-1q-1.7-1-2.4-2t-.7-2.3q0-2 1.3-3.2 1.3-1.2 3.5-1.2 2 0 3.7 1.2v2.6q-1.7-1.7-3.8-1.7-1.1 0-1.8.6-.8.5-.8 1.3t.6 1.4q.5.7 1.7 1.4l1.8 1q3 1.8 3 4.6 0 2-1.3 3.2-1.3 1.2-3.5 1.2-2.4 0-4.4-1.5v-3q2 2.4 4.4 2.4 1.1 0 1.8-.6.8-.6.8-1.5 0-1.5-2.2-2.9zm6.7-9.5h2v7q1.4-1.6 3.4-1.6 1 0 2 .6.8.5 1.2 1.5.4.9.4 2.8v6.1h-2.1v-6.7q0-1.1-.6-1.9-.6-.7-1.5-.7-.7 0-1.3.4-.7.3-1.4 1.2v7.7h-2.1v-16.4zm18.8 9.9v4.6q0 .6.3.6.4 0 1.3-.6v1.3l-1.2.6-1 .2q-1.3 0-1.5-1-1.4 1-3 1-1 0-1.8-.8-.8-.7-.8-1.8 0-1 .8-1.8.7-.9 2-1.3l2.8-1v-.5q0-2-2-2-1.7 0-3.4 1.8v-2.3q1.3-1.5 3.6-1.5 1.8 0 2.8 1 .4.2.6.7l.4 1v1.8zm-2.1 4.4v-3.2l-1.5.5q-1 .5-1.5 1-.4.3-.4 1t.4 1q.4.5 1 .5 1.1 0 2-.8zm7.9-8.7v2.5-.2q1.6-2.5 3.2-2.5 1.2 0 2.5 1.2l-1.1 2q-1.2-1.1-2.1-1.1-1 0-1.8 1-.7 1-.7 2.3v5.6h-2.2v-10.8h2.2zm14-5.6h2.1v16.4H306q-2.4 0-3.8-1.5-1.5-1.5-1.5-4 0-2.4 1.5-4 1.5-1.5 3.9-1.5 1 0 2.3.5v-5.9zm0 14.6v-6.8q-1-.5-2-.5-1.6 0-2.6 1-.9 1-.9 2.8 0 1.7.8 2.6.5.5 1 .7.6.2 2 .2h1.7zm26.1-2v2.6q-2.6 1.4-6 1.4-2.7 0-4.6-1.1-2-1.1-3-3-1.1-2-1.1-4.2 0-3.6 2.5-6 2.6-2.5 6.3-2.5 2.6 0 5.7 1.4v2.5q-2.8-1.6-5.6-1.6t-4.7 1.7q-1.8 1.8-1.8 4.5t1.8 4.4q1.8 1.7 4.7 1.7 3 0 5.8-1.8z" font-size="24" font-family="GillSans" fill="#fff"/><path d="M46.1 333v2.2q-2.2 1.3-5.2 1.3-2.4 0-4-1-1.7-1-2.7-2.7-1-1.7-1-3.6 0-3.2 2.3-5.3 2.2-2.1 5.5-2.1 2.2 0 5 1.2v2.2q-2.5-1.5-5-1.5-2.4 0-4 1.6-1.6 1.5-1.6 3.9 0 2.3 1.6 3.9 1.6 1.5 4 1.5 2.7 0 5.1-1.6zm6.9-6.2q2 0 3.5 1.4 1.4 1.4 1.4 3.5 0 2-1.4 3.4t-3.6 1.4q-2.2 0-3.6-1.4t-1.4-3.4q0-2.1 1.4-3.5 1.5-1.4 3.6-1.4zm-.2 1.7q-1.3 0-2.2.9-.8.9-.8 2.2 0 1.4.9 2.3.8.8 2.2.8 1.4 0 2.3-.8.8-1 .8-2.3 0-1.3-.9-2.2-.9-.9-2.3-.9zM60 322h2v14.3h-2V322zm4.7 0h1.8v14.3h-1.8V322zm12.6 9.7h-6.6q0 1.4.9 2.2.8.8 2.1.8 1.9 0 3.4-1.2v1.9q-.8.5-1.7.8-.8.2-2 .2-1.5 0-2.5-.6-1-.7-1.5-1.7-.6-1.1-.6-2.6 0-2.1 1.2-3.5 1.2-1.3 3.2-1.3 1.9 0 3 1.3t1.1 3.5v.2zm-6.6-1h4.8q-.1-1.2-.7-1.8-.6-.6-1.6-.6t-1.7.6q-.6.6-.8 1.7zm15.7 3.3v2q-1.4.5-2.8.5-2.2 0-3.5-1.4-1.3-1.3-1.3-3.5T80 328q1.3-1.3 3.3-1.3l1.3.1 1.5.5v2q-1.4-.9-2.6-.9-1.3 0-2.1 1-.8.8-.8 2.2 0 1.4.8 2.3 1 .8 2.4.8 1 0 2.5-.6zm.8-5.6l3.5-3.5v2h3v1.6h-3v4.7q0 1.6 1.3 1.6 1 0 2.1-.7v1.8q-1 .6-2.3.6-1.3 0-2.1-.8l-.5-.5-.3-.7v-6h-1.7v-.1zm9.3-5.5q.4 0 .8.3.3.3.3.8 0 .4-.3.8-.4.3-.8.3-.5 0-.8-.3-.3-.4-.3-.8t.3-.8q.3-.3.8-.3zm-1 4h2v9.4h-2v-9.4zm9.1-.1q2.2 0 3.6 1.4t1.4 3.5q0 2-1.4 3.4-1.5 1.4-3.7 1.4-2 0-3.5-1.4-1.4-1.4-1.4-3.4 0-2.1 1.4-3.5t3.6-1.4zm0 1.7q-1.4 0-2.3.9-.8.9-.8 2.2 0 1.4.8 2.3 1 .8 2.3.8 1.4 0 2.2-.8 1-1 1-2.3 0-1.3-1-2.2-.9-.9-2.3-.9zm8.9-1.6v1.2q1.3-1.4 2.9-1.4.9 0 1.6.4.8.5 1.2 1.3.4.8.4 2.5v5.4h-1.9v-5.4q0-1.4-.4-2-.5-.7-1.5-.7-1.3 0-2.3 1.4v6.7h-1.9v-9.4h2zm18.5-5.1h1.2q-1.3 1.9-1.9 3.2-.5 1.4-.8 3.2-.3 1.7-.3 3.3 0 5.6 3 9.6H132l-.3-.4-1.7-2.3-1-2.3q-1-2.3-1-4.6 0-2.5 1-4.7.8-2.3 3-5zm2.3 13.8v-2q.8.6 1.7 1l1.3.2q.6 0 1-.2.5-.3.5-.7 0-.4-.3-.7l-1.2-.8q-1.8-1-2.3-1.7-.6-.7-.6-1.6 0-1 .8-1.7.9-.7 2.2-.7 1.4 0 2.9.8v1.8q-1.7-1-2.7-1-.6 0-1 .2-.3.3-.3.6 0 .4.3.7l1.1.7.7.4q2.3 1.3 2.3 3 0 1-.9 1.8t-2.3.8q-.8 0-1.5-.2l-1.7-.7zm8.5-13.6h1.9v6.1q1.1-1.4 2.9-1.4 1 0 1.7.4.7.5 1 1.3.4.9.4 2.5v5.4H149v-5.8q0-1-.5-1.7-.5-.6-1.4-.6-.6 0-1.1.3-.6.3-1.2 1v6.8h-1.9V322zm16.5 8.6v4q0 .5.3.5t1-.5v1.1q-.6.5-1 .6-.3.2-.8.2-1.2 0-1.4-1-1.2 1-2.5 1-1 0-1.7-.7-.6-.7-.6-1.7 0-.8.6-1.5.7-.7 1.8-1.2l2.4-.8v-.5q0-1.7-1.7-1.7-1.5 0-3 1.6v-2q1.1-1.3 3.2-1.3 1.5 0 2.4.8l.6.7.3.8v1.6zm-1.9 3.8v-2.8l-1.2.5q-1 .4-1.4.8-.4.4-.4 1 0 .5.4.9t1 .4q.9 0 1.6-.8zm6.9-7.5v2.1l.1-.1q1.4-2.2 2.7-2.2 1 0 2.2 1l-1 1.7q-1-1-1.7-1-1 0-1.6 1-.7.8-.7 2v4.9h-1.8v-9.4h1.8zm12.3-4.9h1.9v14.3h-4q-2 0-3.3-1.3-1.3-1.4-1.3-3.6 0-2 1.3-3.4 1.3-1.3 3.4-1.3 1 0 2 .4V322zm0 12.7v-6q-.8-.4-1.7-.4-1.4 0-2.3.9-.8.9-.8 2.4t.7 2.3q.5.5 1 .6.4.2 1.7.2h1.4zm16.4-7.8h2.2l-4 4.6 4.8 4.8h-2.5l-4.7-4.8 4.2-4.6zm-6.1-5h1.8v14.4H187V322zm17.5 9.8h-6.7q.1 1.4 1 2.2.8.8 2.1.8 1.8 0 3.4-1.2v1.9l-1.7.8q-.8.2-2 .2-1.5 0-2.5-.6-1-.7-1.6-1.7-.5-1.1-.5-2.6 0-2.1 1.2-3.5 1.2-1.3 3.2-1.3 1.8 0 3 1.3 1 1.3 1 3.5v.2zm-6.6-1h4.7q0-1.2-.6-1.8-.6-.6-1.6-.6t-1.7.6q-.6.6-.8 1.7zm14-3.8h2.1l-6.6 14.2h-2.1l3.2-6.8-3.7-7.4h2.2l2.5 5.3 2.4-5.3zm15.2 3.7v4q0 .5.3.5.4 0 1-.5v1.1q-.6.5-1 .6-.3.2-.8.2-1.2 0-1.4-1-1.2 1-2.5 1-1 0-1.6-.7-.7-.7-.7-1.7 0-.8.6-1.5.7-.7 1.9-1.2l2.4-.8v-.5q0-1.7-1.7-1.7-1.6 0-3 1.6v-2q1-1.3 3.1-1.3 1.5 0 2.5.8.3.2.5.7.3.4.3.8v1.6zm-1.8 3.8v-2.8l-1.3.5q-1 .4-1.4.8-.3.4-.3 1 0 .5.3.9.4.4 1 .4.9 0 1.7-.8zm4.9 6.7H229q1.3-2 1.9-3.4.5-1.4.8-3 .3-1.8.3-3.3 0-1.8-.3-3.5-.4-1.6-1-3.1t-1.7-3h1.1l.3.4q1.2 1.3 1.7 2.2l1.2 2.3q.9 2.3.9 4.7 0 2.4-.9 4.5l-1 2.1-2.2 3.1z" font-size="21" font-family="GillSans" fill="#0c60b2"/><path d="M160 379v4q0 .5.3.5.4 0 1-.5v1.2l-1 .5q-.3.2-.7.2-1.2 0-1.5-1-1.1 1-2.5 1-1 0-1.6-.7-.7-.6-.7-1.6t.7-1.6q.6-.7 1.8-1.1l2.4-.8v-.5q0-1.7-1.7-1.7-1.6 0-3 1.5v-2q1-1.3 3.1-1.3 1.5 0 2.5.8l.5.7q.3.4.3.8l.1 1.7zm-1.8 3.9V380l-1.3.4q-1 .4-1.3.8-.4.4-.4 1t.3 1q.4.3 1 .3 1 0 1.7-.7zm5.8-.5q.5 0 .8.4.4.3.4.9 0 .5-.4.8-.3.4-.9.4-.5 0-.8-.4-.4-.3-.4-.8 0-.6.4-1 .3-.3.8-.3zm.1-7.3q.5 0 .9.4.4.3.4.9 0 .5-.4.9-.4.3-.9.3t-.9-.3q-.3-.4-.3-1 0-.5.3-.8.4-.4.9-.4zm8.6-.1h-1.2l-.5-2.9v-2.4h2.1v2.4l-.4 3zm3.3 0h-1l-.6-2.9v-2.4h2.1v2.4l-.5 3zm2 .3h8l-5 7.7h5v1.7h-8.3l5-7.7h-4.8v-1.7zm12.5-4.9h2v14.3h-2v-14.3zm8.9 4.6h-1.2l-.5-2.9v-2.4h2.1v2.4l-.4 3zm3.3 0h-1l-.6-2.9v-2.4h2.1v2.4l-.5 3z" font-size="21" font-family="GillSans" fill="#5a5955"/></svg>