<svg width="24" height="28" viewBox="0 0 24 28" fill="none" xmlns="http://www.w3.org/2000/svg">
<g clip-path="url(#clip0_823_772)">
<path d="M23.4013 20.5645C23.5872 20.2352 23.7034 19.8744 23.7034 19.5372V8.08003C23.7034 7.75068 23.5872 7.38208 23.4013 7.05273L11.8516 13.8126L23.4013 20.5645Z" fill="#00599C"/>
<path d="M12.874 27.0655L22.6731 21.3409C22.9519 21.1762 23.2154 20.8938 23.4013 20.5645L11.8515 13.8125L0.301758 20.5645C0.487669 20.8938 0.743296 21.1762 1.02991 21.3409L10.829 27.0655C11.3867 27.3949 12.3163 27.3949 12.874 27.0655Z" fill="#004482"/>
<path d="M23.4011 7.06055C23.2152 6.73115 22.9596 6.44884 22.673 6.2842L12.8739 0.559523C12.3084 0.230159 11.3866 0.230159 10.8211 0.559523L1.02202 6.2842C0.46429 6.61354 -0.000488281 7.42128 -0.000488281 8.08002V19.5371C-0.000488281 19.8665 0.115706 20.2351 0.301618 20.5644L11.8514 13.8125L23.4011 7.06055Z" fill="#659AD2"/>
<path d="M11.8514 21.8111C7.49802 21.8111 3.9502 18.2195 3.9502 13.8123C3.9502 9.40512 7.49802 5.81348 11.8514 5.81348C14.6634 5.81348 17.2816 7.34265 18.6914 9.81288L15.2753 11.8126C14.5704 10.5814 13.2613 9.81288 11.8514 9.81288C9.67471 9.81288 7.90079 11.6087 7.90079 13.8123C7.90079 16.0159 9.67471 17.8117 11.8514 17.8117C13.2613 17.8117 14.5704 17.0432 15.2753 15.812L18.6914 17.8117C17.2816 20.2741 14.6634 21.8111 11.8514 21.8111Z" fill="white"/>
<path d="M19.7524 13.3656H18.8771V12.4795H17.994V13.3656H17.1187V14.2518H17.994V15.1457H18.8771V14.2518H19.7524V13.3656Z" fill="white"/>
<path d="M23.0449 13.3656H22.1695V12.4795H21.2864V13.3656H20.4111V14.2518H21.2864V15.1457H22.1695V14.2518H23.0449V13.3656Z" fill="white"/>
</g>
<defs>
<clipPath id="clip0_823_772">
<rect width="24" height="27" fill="white" transform="translate(-0.000488281 0.308594)"/>
</clipPath>
</defs>
</svg>
