<svg viewBox="0 0 1941.8 553.2" xmlns="http://www.w3.org/2000/svg" xmlns:xlink="http://www.w3.org/1999/xlink"><linearGradient id="a" gradientTransform="matrix(-.98 -.32 .29 -.88 1473.45 -35.83)" gradientUnits="userSpaceOnUse" x1="1190.76" x2="1020.21" y1="-838.27" y2="-839.43"><stop offset=".23" stop-color="#999875"/><stop offset=".56" stop-color="#9b9977"/><stop offset=".68" stop-color="#a09f7e"/><stop offset=".77" stop-color="#a9a889"/><stop offset=".84" stop-color="#b7b69a"/><stop offset=".9" stop-color="#c9c7b0"/><stop offset=".95" stop-color="#deddcb"/><stop offset=".99" stop-color="#f8f6eb"/><stop offset="1" stop-color="#fbf9ef"/></linearGradient><linearGradient id="b" gradientTransform="matrix(-.98 -.32 .29 -.88 1473.45 -35.83)" gradientUnits="userSpaceOnUse" x1="1217.03" x2="971.67" y1="-539.79" y2="-964.76"><stop offset="0" stop-color="#48a547"/><stop offset="1" stop-color="#3f9143"/></linearGradient><linearGradient id="c" gradientTransform="matrix(-.98 -.32 .29 -.88 1473.45 -35.83)" gradientUnits="userSpaceOnUse" x1="1239.5" x2="1065.59" y1="-845.28" y2="-728.46"><stop offset="0" stop-color="#41a247"/><stop offset=".35" stop-color="#4ba74b"/><stop offset=".96" stop-color="#67b554"/><stop offset="1" stop-color="#69b655"/></linearGradient><g transform="translate(-29.22 -39.87)"><path d="m162.5 579.3-14.5-4.8s1.8-73.2-24.6-78.4c-17.4-20.2 2.7-861.9 65.9-2.9 0 0-21.7 10.9-25.8 29.3s-1 56.8-1 56.8z" fill="url(#a)"/><path d="m170.3 508.6s125.7-82.8 96.2-254.8c-28.3-124.9-95.3-166-102.5-181.7-7.9-11.1-15.9-30.8-15.9-30.8l5.4 348.1s-11.1 106.3 16.8 119.2z" fill="url(#b)"/><path d="m140.7 513.2s-118-80.5-111.2-222.4 90.1-211.7 106.3-224.4c10.5-11.2 10.9-15.5 11.7-26.5 7.4 15.8 6.1 235.9 6.9 261.6 3.1 100.1-5.5 192.8-13.7 211.7z" fill="url(#c)"/><path d="m1486.3 249.3c6.8 0 32.4 1.2 44.3 1.2 22.2 0 37.7-1.2 79.4-1.2 35 0 64.4 9.4 85.4 27.5 25.4 22 38.9 52.6 38.9 89.8 0 53-24.2 83.6-48.5 100.8-24.2 18-55.6 28.2-100.5 28.2-23.8 0-64.8-.8-98.9-1.2h-.4c-1.6-3.1 2.9-15.4 5.7-15.7 9.2-1 11.7-1.4 16-3.2 7.2-3 8.9-6.6 9.7-19.6 1.2-24.3.8-53.3.8-86.3 0-23.5.4-69.4-.4-83.9-1.2-12.2-6.4-15.3-16.7-17.7a221.9 221.9 0 0 0 -22.2-3.5c-.7-2.3 5.4-12.9 7.4-15.2zm79.3 218.1c8.3 6.7 25 9.4 39.7 9.4 19.1 0 37.7-3.5 56-20 18.7-16.9 31.4-42.8 31.4-84 0-39.6-15.1-71.8-46.1-90.6-17.5-11-40.1-15.3-65.9-15.3-7.6 0-15.1.4-19.5 2.4-1.2.8-3.6 3.9-3.6 5.5-.8 7.1-.8 60.8-.8 92.6 0 32.6 0 78.1.8 83.6.4 4.6 2.8 12.8 8 16.4z" fill="#c0bfbe"/><path d="m1767.8 249.3c3.6 0 14.2 1.2 41.2 1.2 25.4 0 46.1-.8 70.7-.8 30.6 0 72.7 11 72.7 56.5 0 22.4-15.9 40.4-36.5 49-1.2.4-1.2 1.2 0 1.6 29.4 7.5 55.2 25.5 55.2 60 0 33.7-21 54.9-51.6 68.3-18.7 8.2-41.7 11-65.2 11-17.9 0-65.8-2-92.4-1.6-2.8-1.2 2.6-13.7 4.9-15.7a74.6 74.6 0 0 0 18-2.8c9.5-2.4 10.7-5.4 11.9-19.6.8-12.2.8-55.7.8-86.7 0-42.4.4-71 0-85.1-.4-11-4.4-14.5-11.9-16.5-6-1.2-15.9-2.4-23.8-3.5-2.1-2 4-13.8 6-15.3zm161.9 176.1c0-34.5-25.4-54.1-71.9-54.1-2 0-16.7-.4-20.3.4-1.2.4-2.4 1.2-2.4 2 0 24.7-.4 64.3.8 80 .8 6.7 5.6 16.1 11.5 18.8 6.4 3.5 20.7 4.3 30.6 4.3 27.5 0 51.7-15.3 51.7-51.4zm-90.2-156.9c-1.6.4-3.6 4.3-3.6 6.3-.4 14.1-.8 51-.8 76.5a2.5 2.5 0 0 0 2 2c5.2.4 17.9.8 28.6.8 15.1 0 23.8-2 28.6-4.3 12.7-6.3 18.7-20 18.7-34.9 0-34.1-23.8-47.1-59.2-47.1a105.8 105.8 0 0 0 -14.2.7z" fill="#c0bfbe"/><g fill="#484748"><path d="m346.9 495.4c-.7-1.1-1.4-4.2-1.2-7.9.1-2.9.7-4.7 1.2-5.3a131.5 131.5 0 0 0 15.3-3.1c7-1.7 9.7-5.5 10.1-14.5 1.2-21.2 1.2-60.8.8-88.7v-.9c0-3 .1-7.1-3.7-10-5.5-3.6-12.4-6.6-21.1-9.2-3.3-1-5.2-2.7-5.1-4.8s2.2-4.5 6.5-5.3c11.5-1.2 41.7-8.4 53.5-13.8a7.8 7.8 0 0 1 1.6 5.6c-.1 1.2-.2 2.5-.3 3.9-.3 3.9-.7 8.4-.7 12.9a2.9 2.9 0 0 0 2.9 2.6 2.9 2.9 0 0 0  2.1-.9c22.5-17.7 42.7-24 53.1-24 17.1 0 30.3 8.1 40.6 24.9a2.8 2.8 0 0 0 2.3 1.4 2.6 2.6 0 0 0  2.2-1.2c20.7-15.7 41.2-25.1 55-25.1 32.5 0 51.9 24.3 51.9 65 0 11.7-.1 26.5-.2 40.4-.1 12.1-.2 23.5-.2 31.4 0 1.9 2.6 7.2 6.4 8.3 4.8 2.3 11.6 3.5 20.3 5l .3.1c.7 2.3-.7 11.4-2 13.3-2.2 0-5.1-.2-8.9-.4-6.8-.4-16-.8-26.8-.8-21.6 0-32.9.4-43.7 1.1-.8-2.7-1.1-11.4-.1-13.2a116.4 116.4 0 0 0 13.2-3.1c6.9-2.3 8.9-5.4 9.3-14.5.2-6.5 1.4-63.6-.8-77.1-2-14-12.6-30.5-35.8-30.5-8.6 0-22.5 3.6-35.7 13.6a5.3 5.3 0 0 0 -1.3 3.4v.3c1.6 7.3 1.6 15.9 1.6 28.8 0 7.4 0 15.2-.1 22.9-.1 15.7-.2 30.6.1 41.8 0 7.7 4.6 9.5 8.4 11 2 .5 3.6.8 5.2 1.2 3.1.8 6.4 1.5 11.1 2.3.7 1.5.7 6-.2 9.9a7.7 7.7 0 0 1 -1.4 3.4c-12-.4-24.3-.8-42.1-.8-5.4 0-14.2.2-22 .4-6.3.2-12.3.3-15.6.4-.5-.8-1.2-3.3-1.2-6.8 0-3.3.6-5.7 1.2-6.4l4.8-.9c4.2-.7 7.8-1.4 11.2-2.2 5.9-1.8 8.1-5.1 8.5-12.5 1.2-17.5 2-67.7-.4-80.3-4.2-20.2-15.7-30.5-34.2-30.5-10.9 0-24.5 5.2-35.7 13.6-1.9 1.4-3.3 4.9-3.3 8.1v20.8c-.1 25.3-.2 56.7.5 70.3.4 4.2 1.8 9.2 9.7 11 1.7.5 4.7 1 8.2 1.6 2 .3 4.2.7 6.4 1.1.8 2.2.3 10.6-1.1 13.3-3.5 0-7.7-.2-12.6-.4-7.4-.3-16.7-.7-27.3-.7-12.4 0-21.1.4-28 .7-4.7.2-8.7.4-12.7.4z"/><path d="m747.3 499c-59.7 0-80.9-43.7-80.9-84.6 0-28.6 11.7-50.9 34.8-66.4 16.4-10.1 36-15.9 53.7-15.9 45.5 0 77.4 32.7 77.4 79.5 0 31.8-12.7 57-36.8 72.7-11.5 7.1-31.5 14.7-48.1 14.7zm-6.4-150.2c-7.2 0-14 1.9-19 5.3-13.8 8.4-20.8 25.1-20.8 49.7 0 46 23.1 78.2 56.1 78.2 9.7 0 17.7-2.8 24.3-8.6 10.2-8.3 15.5-25.2 15.5-48.8 0-45.3-22.6-75.8-56.1-75.8z"/><path d="m1365.2 499c-59.7 0-80.9-43.7-80.9-84.6 0-28.6 11.7-50.9 34.8-66.4 16.4-10.1 36-15.9 53.7-15.9 45.5 0 77.4 32.7 77.4 79.5 0 31.9-12.7 57-36.8 72.7-11.5 7.1-31.5 14.7-48.1 14.7zm-6.4-150.2c-7.2 0-14 1.9-19 5.3-13.8 8.4-20.8 25.1-20.8 49.7 0 46 23.1 78.2 56.1 78.2 9.8 0 17.7-2.8 24.3-8.6 10.2-8.3 15.5-25.2 15.5-48.8 0-45.3-22.5-75.8-56.1-75.8z"/><path d="m1159.2 593.1c-21.4 0-36.9-4.5-50-14.7-12.8-9.9-18.6-24.6-18.6-34.7a27.1 27.1 0 0 1 7-17.6c3.7-4.2 12.4-12.2 32.4-25.9a1.7 1.7 0 0 0 1-1.6 1.6 1.6 0 0 0 -1.3-1.6c-16.5-6.3-21.4-16.6-22.9-22.2 0-.2-.1-.5-.2-.9-.5-2.2-.9-4.3 2.1-6.4 2.3-1.6 6-3.8 9.9-6.2 5.8-3.4 12.3-7.3 16-10.4a2.6 2.6 0 0 0 -.7-4.1c-24.4-8.2-36.6-26.3-36.6-53.8a53.5 53.5 0 0 1 22.5-44.1c9.8-7.7 34.4-17 50.3-17h .9c16.4.4 25.6 3.8 38.4 8.6 6.9 2.6 13.5 3.6 22.7 3.6 13.6 0 19.5-4.3 24.6-9.2.3.6 1 2.6 1.3 7a26.4 26.4 0 0 1 -4.4 16.1c-2.8 3.8-9.2 6.6-15.3 6.6a17.1 17.1 0 0 1 -1.8-.1 50.5 50.5 0 0 1 -9.2-1.5l-1.5.5c-.5.7-.2 1.5.2 2.5a5.2 5.2 0 0 1  .2.6 109.1 109.1 0 0 1  2.2 15c0 28.9-11.4 41.5-23.7 50.8a81.1 81.1 0 0 1 -41 15.8c-.3 0-1.8.1-4.7.4-1.9.2-4.3.4-4.6.4h-.4c-2.7.8-9.7 4.1-9.7 10.3 0 5.1 3.2 11.5 18.3 12.6 3.1.2 6.4.5 9.8.7 19.9 1.4 44.8 3.1 56.6 7.1 16.1 5.9 26.2 20.3 26.2 37.6 0 25.9-18.4 50.3-49.3 65.2a107.2 107.2 0 0 1 -46.6 10.5zm-2.4-91a30.3 30.3 0 0 0 -14.9 3.7c-14.6 9.3-21.3 18.6-21.3 29.4 0 10.1 3.9 18.1 12.4 25.3 10.2 8.7 24 12.9 42.1 12.9 35.7 0 51.7-19.2 51.7-38.2 0-13.2-6.6-22.1-20.3-27.1-10.5-3.8-28.1-6-49.6-6zm2.4-154.9c-18.4 0-30.3 14.5-30.3 37 0 22.7 10.2 49.1 39 49.1 5 0 13.9-2.2 18.4-7.1 6.7-6.1 11.1-18.8 11.1-32.2 0-29.3-14.3-46.8-38.2-46.8z"/><path d="m1062.2 481c-8.7-1.2-15.1-2.4-22.6-5.9-1.2-.8-2.8-4.3-2.8-5.5-.8-12.2-.8-47.5-.8-70.6 0-18.8-3.2-35.3-11.1-47.1-9.5-13.3-23-21.2-40.5-21.2-15.5 0-36.1 10.6-53.2 25.1-.4.4-3 2.9-3-1s .7-11.7 1-16.7a8.6 8.6 0 0 0 -2.6-7.3c-11.1 5.5-42.4 12.9-54 14.1-8.5 1.6-10.6 9.7-1.6 12.6s.1 0 .1 0c9.4 2.8 15.8 5.9 20.5 9 3.6 2.8 3.2 6.7 3.2 9.8.4 26.3.4 66.7-.8 88.7-.4 8.6-2.8 11.8-9.1 13.3l.6-.2a123.9 123.9 0 0 1 -14.7 2.8c-2 2-2 13.3 0 15.7 4 0 24.2-1.2 40.9-1.2 23 0 35 1.2 40.9 1.2 2.4-2.8 3.2-13.3 1.6-15.7a84.7 84.7 0 0 1 -16.3-2.4c-6.4-1.6-8-4.7-8.3-11.8-.8-18.4-.8-57.7-.8-84.3 0-7.5 2-11 4.4-13 7.9-7.1 21-11.8 32.6-11.8 11.1 0 18.7 3.5 24.2 8.2 7.6 6.3 10.3 15.3 11.1 22 1.6 14.9 1.2 44.7 1.2 70.6 0 14.1-1.2 17.7-6.4 19.2-2.4 1.2-8.7 2.4-16.3 3.1-2.4 2.4-1.6 13.3 0 15.7 10.3 0 22.3-1.2 39.7-1.2 21.9 0 35.8 1.2 41.3 1.2 2.399999999999-2.4 3.199999999999-12.6 1.599999999999-15.4z"/></g></g></svg>