<svg id="Layer_1" data-name="Layer 1" xmlns="http://www.w3.org/2000/svg" xmlns:xlink="http://www.w3.org/1999/xlink" viewBox="0 0 1941.8 553.23"><defs><style>.cls-1{fill:url(#linear-gradient);}.cls-2{fill:url(#linear-gradient-2);}.cls-3{fill:url(#linear-gradient-3);}.cls-4{fill:#c0bfbe;}.cls-5{fill:#484748;}</style><linearGradient id="linear-gradient" x1="1190.76" y1="-838.27" x2="1020.21" y2="-839.43" gradientTransform="matrix(-0.98, -0.32, 0.29, -0.88, 1473.45, -35.83)" gradientUnits="userSpaceOnUse"><stop offset="0.23" stop-color="#999875"/><stop offset="0.56" stop-color="#9b9977"/><stop offset="0.68" stop-color="#a09f7e"/><stop offset="0.77" stop-color="#a9a889"/><stop offset="0.84" stop-color="#b7b69a"/><stop offset="0.9" stop-color="#c9c7b0"/><stop offset="0.95" stop-color="#deddcb"/><stop offset="0.99" stop-color="#f8f6eb"/><stop offset="1" stop-color="#fbf9ef"/></linearGradient><linearGradient id="linear-gradient-2" x1="1217.03" y1="-539.79" x2="971.67" y2="-964.76" gradientTransform="matrix(-0.98, -0.32, 0.29, -0.88, 1473.45, -35.83)" gradientUnits="userSpaceOnUse"><stop offset="0" stop-color="#48a547"/><stop offset="1" stop-color="#3f9143"/></linearGradient><linearGradient id="linear-gradient-3" x1="1239.5" y1="-845.28" x2="1065.59" y2="-728.46" gradientTransform="matrix(-0.98, -0.32, 0.29, -0.88, 1473.45, -35.83)" gradientUnits="userSpaceOnUse"><stop offset="0" stop-color="#41a247"/><stop offset="0.35" stop-color="#4ba74b"/><stop offset="0.96" stop-color="#67b554"/><stop offset="1" stop-color="#69b655"/></linearGradient></defs><title>MongoDB_Gray_Logo_FullColor_RGB</title><path class="cls-1" d="M162.47,579.26,148,574.47s1.84-73.22-24.56-78.35c-17.41-20.18,2.68-861.89,65.94-2.89,0,0-21.65,10.87-25.75,29.34S162.47,579.26,162.47,579.26Z" transform="translate(-29.22 -39.87)"/><path class="cls-2" d="M170.27,508.55S296,425.75,266.54,253.79C238.17,128.86,171.21,87.79,164,72.11c-7.92-11.1-15.9-30.76-15.9-30.76l5.35,348.09S142.39,495.73,170.27,508.55Z" transform="translate(-29.22 -39.87)"/><path class="cls-3" d="M140.65,513.17S22.72,432.73,29.51,290.79,119.58,79.05,135.8,66.39c10.49-11.18,10.92-15.49,11.73-26.52,7.35,15.79,6.13,235.85,6.91,261.57C157.47,401.57,148.9,494.27,140.65,513.17Z" transform="translate(-29.22 -39.87)"/><path class="cls-4" d="M1486.29,249.26c6.75,0,32.41,1.18,44.33,1.18,22.24,0,37.73-1.18,79.43-1.18,35,0,64.35,9.42,85.4,27.46,25.42,22,38.92,52.56,38.92,89.83,0,53-24.23,83.55-48.45,100.81-24.23,18-55.61,28.24-100.49,28.24-23.83,0-64.75-.79-98.91-1.17H1486c-1.58-3.14,2.93-15.37,5.72-15.69,9.23-1,11.73-1.4,16-3.17,7.21-3,8.91-6.64,9.71-19.59,1.19-24.32.79-53.34.79-86.3,0-23.53.39-69.43-.4-83.94-1.19-12.16-6.35-15.3-16.68-17.65a221.86,221.86,0,0,0-22.24-3.53C1478.19,262.21,1484.3,251.61,1486.29,249.26Zm79.28,218.1c8.34,6.67,25,9.42,39.72,9.42,19.06,0,37.73-3.54,56-20,18.66-16.87,31.38-42.76,31.38-83.95,0-39.62-15.09-71.78-46.07-90.61-17.48-11-40.12-15.3-65.94-15.3-7.55,0-15.09.39-19.46,2.35-1.19.79-3.58,3.92-3.58,5.5-.79,7.06-.79,60.8-.79,92.57,0,32.56,0,78.06.79,83.56C1558,455.59,1560.4,463.83,1565.56,467.36Z" transform="translate(-29.22 -39.87)"/><path class="cls-4" d="M1767.82,249.26c3.58,0,14.15,1.18,41.15,1.18,25.42,0,46.07-.78,70.7-.78,30.58,0,72.68,11,72.68,56.48,0,22.36-15.88,40.4-36.54,49-1.2.39-1.2,1.18,0,1.57,29.39,7.45,55.21,25.5,55.21,60,0,33.73-21,54.92-51.63,68.26-18.67,8.23-41.71,11-65.15,11-17.87,0-65.77-2-92.38-1.56-2.79-1.18,2.55-13.74,4.92-15.69a74.58,74.58,0,0,0,18-2.81c9.53-2.35,10.66-5.43,11.85-19.55.8-12.16.8-55.7.8-86.69,0-42.36.39-71,0-85.12-.4-11-4.37-14.52-11.92-16.48-6-1.17-15.88-2.35-23.82-3.53C1759.72,262.6,1765.83,250.83,1767.82,249.26Zm161.9,176.13c0-34.52-25.42-54.13-71.9-54.13-2,0-16.68-.4-20.25.39-1.19.39-2.38,1.17-2.38,2,0,24.72-.4,64.33.79,80,.79,6.67,5.57,16.08,11.52,18.83,6.36,3.53,20.65,4.32,30.58,4.32C1905.49,476.77,1929.72,461.47,1929.72,425.39Zm-90.16-156.9c-1.58.39-3.58,4.32-3.58,6.28-.39,14.12-.79,51-.79,76.48a2.53,2.53,0,0,0,2,2c5.16.4,17.87.79,28.59.79,15.1,0,23.84-2,28.6-4.32,12.71-6.27,18.66-20,18.66-34.91,0-34.13-23.83-47.07-59.17-47.07A105.81,105.81,0,0,0,1839.55,268.48Z" transform="translate(-29.22 -39.87)"/><path class="cls-5" d="M346.87,495.43c-.66-1.06-1.36-4.18-1.22-7.93.11-2.85.68-4.67,1.21-5.29a131.46,131.46,0,0,0,15.25-3.11c7-1.74,9.67-5.53,10.08-14.52,1.15-21.16,1.22-60.83.8-88.73V375c0-3,.08-7.08-3.68-10-5.51-3.63-12.38-6.63-21.07-9.24-3.33-1-5.16-2.73-5.06-4.78s2.19-4.46,6.53-5.3c11.5-1.19,41.66-8.36,53.49-13.82a7.8,7.8,0,0,1,1.59,5.64c-.09,1.24-.2,2.53-.31,3.87-.34,3.94-.71,8.41-.71,12.87a2.91,2.91,0,0,0,2.93,2.55,2.88,2.88,0,0,0,2.05-.87C431.31,338.34,451.48,332,461.87,332c17.06,0,30.34,8.14,40.6,24.89a2.77,2.77,0,0,0,2.31,1.35,2.61,2.61,0,0,0,2.15-1.15C527.67,341.42,548.23,332,562,332c32.52,0,51.94,24.31,51.94,65,0,11.7-.12,26.53-.22,40.37-.1,12.14-.18,23.53-.18,31.41,0,1.91,2.55,7.21,6.41,8.27,4.75,2.31,11.62,3.49,20.3,5l.34.06c.66,2.33-.72,11.41-2,13.27-2.15,0-5.14-.17-8.85-.36-6.75-.35-16-.81-26.78-.81-21.61,0-32.89.42-43.68,1.12-.81-2.69-1.1-11.38-.11-13.19a116.4,116.4,0,0,0,13.18-3.09c6.88-2.27,8.86-5.38,9.26-14.5.16-6.49,1.4-63.59-.81-77.14-2-14-12.64-30.49-35.83-30.49-8.6,0-22.5,3.57-35.74,13.6a5.28,5.28,0,0,0-1.3,3.37l0,.26c1.56,7.32,1.56,15.85,1.56,28.76,0,7.36,0,15.17-.09,22.92-.09,15.74-.18,30.6.09,41.83,0,7.65,4.63,9.48,8.36,11,2,.45,3.63.84,5.24,1.22,3.12.75,6.35,1.53,11.13,2.29.65,1.51.71,6-.18,9.87a7.68,7.68,0,0,1-1.38,3.37c-12-.41-24.34-.77-42.13-.77-5.39,0-14.2.23-22,.44-6.29.17-12.26.33-15.64.35-.49-.78-1.18-3.26-1.18-6.84,0-3.33.61-5.67,1.24-6.39l4.78-.86c4.17-.74,7.77-1.38,11.23-2.23,5.89-1.79,8.1-5.06,8.53-12.54,1.15-17.46,2-67.74-.43-80.34-4.21-20.21-15.73-30.45-34.23-30.45-10.85,0-24.54,5.21-35.73,13.6-1.88,1.38-3.3,4.86-3.3,8.07,0,6,0,13.12,0,20.76-.08,25.26-.17,56.69.45,70.3.38,4.18,1.83,9.16,9.73,11,1.72.48,4.71,1,8.16,1.55,2,.33,4.17.69,6.4,1.09.8,2.16.31,10.64-1.06,13.28-3.45,0-7.7-.22-12.57-.43-7.44-.33-16.7-.74-27.25-.74-12.41,0-21.06.42-28,.74-4.65.22-8.69.42-12.72.43Z" transform="translate(-29.22 -39.87)"/><path class="cls-5" d="M747.28,499c-59.68,0-80.94-43.72-80.94-84.63,0-28.58,11.7-50.92,34.79-66.41,16.41-10.07,36-15.87,53.69-15.87,45.54,0,77.35,32.71,77.35,79.54,0,31.84-12.71,57-36.75,72.68-11.53,7.07-31.54,14.7-48.14,14.7Zm-6.36-150.24c-7.23,0-14,1.89-19,5.33-13.79,8.38-20.81,25.11-20.81,49.68,0,46,23.07,78.16,56.1,78.16,9.74,0,17.69-2.8,24.29-8.56,10.15-8.27,15.53-25.16,15.53-48.81,0-45.34-22.55-75.8-56.1-75.8Z" transform="translate(-29.22 -39.87)"/><path class="cls-5" d="M1365.23,499c-59.68,0-80.94-43.72-80.94-84.63,0-28.59,11.71-50.93,34.8-66.42,16.41-10.07,36-15.87,53.69-15.87,45.54,0,77.36,32.71,77.36,79.53,0,31.85-12.72,57-36.76,72.68-11.53,7.07-31.53,14.7-48.14,14.7Zm-6.36-150.24c-7.24,0-14,1.89-19,5.33-13.78,8.38-20.81,25.1-20.81,49.68,0,46,23.06,78.16,56.1,78.16,9.75,0,17.69-2.8,24.29-8.56,10.15-8.27,15.53-25.15,15.53-48.8,0-45.34-22.54-75.8-56.1-75.8Z" transform="translate(-29.22 -39.87)"/><path class="cls-5" d="M1159.18,593.1c-21.42,0-36.86-4.52-50-14.65-12.83-9.89-18.57-24.56-18.57-34.69a27.11,27.11,0,0,1,7-17.64c3.74-4.24,12.38-12.17,32.35-25.89a1.65,1.65,0,0,0,1-1.57,1.63,1.63,0,0,0-1.25-1.63c-16.46-6.3-21.43-16.63-22.92-22.23,0-.2-.09-.52-.17-.86-.47-2.2-.91-4.28,2.06-6.41,2.3-1.64,6-3.83,9.93-6.15,5.79-3.41,12.34-7.28,16-10.39a2.6,2.6,0,0,0-.66-4.07c-24.36-8.18-36.63-26.25-36.63-53.78a53.54,53.54,0,0,1,22.51-44.07c9.79-7.73,34.39-17,50.32-17h.93c16.39.39,25.63,3.82,38.42,8.55,6.94,2.57,13.52,3.61,22.71,3.61,13.57,0,19.49-4.3,24.58-9.23.29.61,1,2.55,1.3,7a26.42,26.42,0,0,1-4.41,16.12c-2.78,3.84-9.2,6.62-15.27,6.62a17.14,17.14,0,0,1-1.78-.09,50.47,50.47,0,0,1-9.21-1.54l-1.53.53c-.48.7-.17,1.49.23,2.48a5.23,5.23,0,0,1,.23.61,109.09,109.09,0,0,1,2.21,15c0,28.87-11.4,41.46-23.73,50.77a81.07,81.07,0,0,1-41,15.83h0c-.32,0-1.78.13-4.74.39-1.91.17-4.28.39-4.63.39l-.35,0c-2.69.76-9.68,4.08-9.68,10.25,0,5.14,3.17,11.5,18.27,12.64,3.06.23,6.35.46,9.78.69,19.94,1.39,44.84,3.11,56.55,7.09,16.12,5.87,26.15,20.29,26.15,37.63,0,25.91-18.44,50.26-49.32,65.15a107.19,107.19,0,0,1-46.63,10.47Zm-2.38-91a30.34,30.34,0,0,0-14.94,3.69c-14.56,9.32-21.31,18.63-21.31,29.35,0,10.11,3.93,18.14,12.37,25.28,10.22,8.65,24,12.86,42.14,12.86,35.67,0,51.66-19.16,51.66-38.15,0-13.21-6.64-22.07-20.3-27.08-10.53-3.84-28.11-6-49.63-6Zm2.38-154.94c-18.4,0-30.28,14.51-30.28,37,0,22.66,10.22,49.13,39,49.13,4.95,0,13.91-2.2,18.35-7.09,6.69-6.14,11.06-18.83,11.06-32.23,0-29.29-14.27-46.77-38.16-46.77Z" transform="translate(-29.22 -39.87)"/><path class="cls-5" d="M1062.21,481c-8.73-1.18-15.09-2.35-22.64-5.88-1.19-.78-2.79-4.32-2.79-5.49-.79-12.16-.79-47.46-.79-70.61,0-18.83-3.17-35.3-11.12-47.08-9.53-13.33-23-21.18-40.51-21.18-15.49,0-36.14,10.59-53.22,25.11-.4.39-3,2.88-3-1s.66-11.71,1-16.65a8.55,8.55,0,0,0-2.6-7.27c-11.12,5.49-42.44,12.93-54,14.12-8.45,1.63-10.58,9.74-1.58,12.55h0s.09,0,.14,0c9.42,2.83,15.77,5.86,20.51,9,3.57,2.75,3.18,6.67,3.18,9.81.4,26.28.4,66.69-.8,88.65-.4,8.63-2.78,11.76-9.14,13.34l.58-.2a123.92,123.92,0,0,1-14.7,2.75c-2,2-2,13.33,0,15.69,4,0,24.23-1.18,40.91-1.18,23,0,35,1.18,40.91,1.18,2.38-2.75,3.18-13.34,1.59-15.69a84.66,84.66,0,0,1-16.29-2.35c-6.36-1.57-7.95-4.71-8.34-11.77-.79-18.43-.79-57.66-.79-84.34,0-7.45,2-11,4.37-12.95,7.94-7.06,21-11.76,32.57-11.76,11.12,0,18.67,3.53,24.23,8.23,7.55,6.28,10.33,15.3,11.12,22,1.59,14.91,1.19,44.72,1.19,70.61,0,14.12-1.19,17.65-6.35,19.22-2.38,1.18-8.74,2.35-16.29,3.14-2.38,2.35-1.59,13.33,0,15.69,10.33,0,22.25-1.18,39.72-1.18,21.85,0,35.75,1.18,41.31,1.18C1063,494,1063.8,483.75,1062.21,481Z" transform="translate(-29.22 -39.87)"/></svg>