<?xml version="1.0" encoding="UTF-8" standalone="no"?>
<svg
   width="181"
   height="133"
   viewBox="0 0 181 133"
   fill="none"
   version="1.1"
   id="svg969"
   sodipodi:docname="atlas-search-plp-hero.svg"
   inkscape:version="1.2.1 (9c6d41e, 2022-07-14)"
   xmlns:inkscape="http://www.inkscape.org/namespaces/inkscape"
   xmlns:sodipodi="http://sodipodi.sourceforge.net/DTD/sodipodi-0.dtd"
   xmlns="http://www.w3.org/2000/svg"
   xmlns:svg="http://www.w3.org/2000/svg">
  <defs
     id="defs973" />
  <sodipodi:namedview
     id="namedview971"
     pagecolor="#ffffff"
     bordercolor="#000000"
     borderopacity="0.25"
     inkscape:showpageshadow="2"
     inkscape:pageopacity="0.0"
     inkscape:pagecheckerboard="0"
     inkscape:deskcolor="#d1d1d1"
     showgrid="false"
     inkscape:zoom="3.6672387"
     inkscape:cx="34.494618"
     inkscape:cy="81.532734"
     inkscape:window-width="1728"
     inkscape:window-height="994"
     inkscape:window-x="40"
     inkscape:window-y="38"
     inkscape:window-maximized="0"
     inkscape:current-layer="svg969" />
  <path
     d="M 133.794,8 H 104.48 c -3.861,0.0025 -7.563,1.533 -10.299,4.257 -2.735,2.724 -4.28,6.4198 -4.298,10.2797 V 51.962 c 0.001,1.9145 -0.376,3.8102 -1.111,5.5784 -0.734,1.7682 -1.8099,3.3739 -3.1665,4.725 -1.3566,1.351 -2.9669,2.4207 -4.7383,3.1476 -1.7713,0.7269 -3.6689,1.0967 -5.5837,1.0881 H 45.9714 c -8.0577,0 -14.5969,6.5669 -14.5969,14.536902 V 110.463 c -7e-4,1.914 0.3769,3.81 1.1111,5.578 0.7342,1.768 1.8105,3.373 3.1671,4.724 1.3566,1.351 2.9668,2.42 4.738,3.147 1.7712,0.727 3.6686,1.096 5.5832,1.088 h 29.3096 c 3.861,-0.002 7.5642,-1.532 10.3,-4.256 2.7355,-2.724 4.2815,-6.421 4.2995,-10.281 V 81.038002 c -10e-4,-1.914 0.376,-3.81 1.11,-5.578002 0.734,-1.768 1.81,-3.373 3.167,-4.724 1.356,-1.351 2.966,-2.42 4.737,-3.1469 1.771,-0.7268 3.668,-1.0965 5.583,-1.088 h 29.314 c 3.861,-0.0031 7.564,-1.5341 10.3,-4.2584 2.735,-2.7242 4.281,-6.4204 4.3,-10.2807 V 22.5367 C 148.394,14.5647 141.852,8 133.794,8 Z"
     fill="#f9ebff"
     id="path809" />
  <path
     d="m 73.3143,23.3489 c 0.05,-0.0621 0.1066,-0.1187 0.1688,-0.1687"
     stroke="#001e2b"
     stroke-miterlimit="10"
     id="path811" />
  <path
     d="m 73.8204,22.843 c 2.4586,-2.169 6.4597,-2.2171 10.027,0.3615 4.5796,3.639 7.9056,2.9883 9.7616,0.9158"
     stroke="#001e2b"
     stroke-miterlimit="10"
     stroke-dasharray="1.98, 1.98"
     id="path813" />
  <path
     d="m 93.754,23.9272 c 0.048,-0.0723 0.096,-0.1205 0.145,-0.1928"
     stroke="#001e2b"
     stroke-miterlimit="10"
     id="path815" />
  <path
     d="m 74.8087,27.1084 c 0.0482,-0.0723 0.0964,-0.1206 0.1447,-0.1929"
     stroke="#001e2b"
     stroke-miterlimit="10"
     id="path817" />
  <path
     d="m 75.2908,26.5782 c 1.8077,-1.7111 4.9653,-1.8075 8.0505,0.3615 3.9529,3.3498 8.4357,3.4944 10.0027,1.9761"
     stroke="#001e2b"
     stroke-miterlimit="10"
     stroke-dasharray="1.97, 1.97"
     id="path819" />
  <path
     d="m 93.513,28.7253 c 0.048,-0.0723 0.096,-0.1205 0.145,-0.1928"
     stroke="#001e2b"
     stroke-miterlimit="10"
     id="path821" />
  <path
     d="m 138.249,77.548002 h 1.808"
     stroke="#001e2b"
     stroke-width="0.5"
     stroke-miterlimit="10"
     id="path823" />
  <path
     d="m 130.56,77.548002 h 2.892"
     stroke="#001e2b"
     stroke-width="0.5"
     stroke-miterlimit="10"
     id="path825" />
  <path
     d="m 134.344,77.548002 h 2.941"
     stroke="#001e2b"
     stroke-width="0.5"
     stroke-miterlimit="10"
     id="path827" />
  <path
     d="m 135.863,108.709 -0.699,-0.699 v -2.048 l 0.699,-0.699 h 2.145 c 2.169,0 3.278,-1.278 3.278,-3.784 V 86.971002 c 0,-2.072 0.506,-3.807 1.47,-5.181 0.456,-0.661 1.045,-1.22 1.73,-1.639 0.686,-0.419 1.451,-0.69 2.247,-0.795 h 0.048 v -0.579 h -0.048 c -0.801,-0.106 -1.571,-0.383 -2.257,-0.811 -0.686,-0.428 -1.272,-0.998 -1.72,-1.671 C 141.768,74.897 141.286,73.114 141.286,70.993 V 56.6543 c 0,-2.5063 -1.109,-3.7836 -3.278,-3.7836 h -2.145 l -0.699,-0.6989 v -2.0725 l 0.699,-0.6989 h 2.964 c 2.7,0 4.797,0.7471 6.195,2.2171 1.398,1.4701 2.121,3.6631 2.121,6.5309 V 71.981 c 0,1.543 0.337,2.748 1.012,3.543002 0.675,0.795 1.663,1.205 2.917,1.205 h 1.157 l 0.699,0.699 v 3.229 l -0.699,0.699 h -1.157 c -1.254,0 -2.242,0.41 -2.917,1.205 -0.675,0.795 -1.012,2 -1.012,3.543 V 99.937 c 0,2.843 -0.699,5.061 -2.121,6.531 -1.422,1.47 -3.471,2.217 -6.195,2.217 h -2.964 z"
     fill="#001f2c"
     id="path829" />
  <path
     d="m 138.827,49.328 c 2.748,0 4.821,0.7471 6.219,2.2412 1.422,1.4942 2.121,3.6872 2.121,6.555 V 71.957 c 0,1.543 0.337,2.699 1.012,3.495 0.675,0.795002 1.639,1.205002 2.869,1.205002 h 1.205 l 0.747,0.747 v 3.277 l -0.747,0.747 h -1.205 c -1.254,0 -2.194,0.386 -2.869,1.205 -0.675,0.82 -1.012,1.952 -1.012,3.495 V 99.961 c 0,2.892 -0.699,5.085 -2.121,6.555 -1.422,1.47 -3.495,2.241 -6.219,2.241 h -2.989 l -0.747,-0.747 v -2.097 l 0.747,-0.747 h 2.17 c 2.145,0 3.205,-1.253 3.205,-3.735 V 86.923002 c 0,-2.097 0.507,-3.832 1.495,-5.23 0.458,-0.671 1.054,-1.237 1.748,-1.661 0.694,-0.424 1.47,-0.696 2.277,-0.797 v -0.458 c -0.811,-0.105 -1.59,-0.384 -2.285,-0.816 -0.694,-0.432 -1.287,-1.009 -1.74,-1.69 C 141.72,74.849 141.213,73.066 141.213,70.945 V 56.606 c 0,-2.4822 -1.06,-3.7354 -3.205,-3.7354 h -2.17 l -0.747,-0.7471 v -2.0966 l 0.747,-0.7471 h 2.989 z"
     fill="#001f2c"
     id="path831" />
  <path
     d="m 138.827,49.4511 c 2.7,0 4.749,0.747 6.147,2.193 1.398,1.446 2.097,3.639 2.097,6.4827 V 71.96 c 0,1.566 0.337,2.771 1.036,3.591002 0.699,0.819 1.687,1.229 2.965,1.229 h 1.133 l 0.674,0.674 v 3.182 l -0.674,0.674 h -1.133 c -1.286,0 -2.274,0.41 -2.965,1.229 -0.699,0.82 -1.036,2.025 -1.036,3.591 V 99.963 c 0,2.844 -0.699,5.013 -2.097,6.483 -1.398,1.47 -3.447,2.193 -6.147,2.193 h -2.94 l -0.675,-0.675 v -2 l 0.675,-0.675 h 2.121 c 2.217,0 3.326,-1.301 3.326,-3.856 V 86.926002 c 0,-2.049 0.506,-3.784 1.47,-5.158 0.454,-0.656 1.04,-1.209 1.721,-1.624 0.681,-0.415 1.441,-0.683 2.232,-0.786 l 0.097,-0.024 v -0.626 l -0.097,-0.024 c -0.796,-0.106 -1.56,-0.379 -2.241,-0.803 -0.682,-0.424 -1.266,-0.988 -1.712,-1.656 C 141.84,74.828 141.334,73.068 141.334,70.972 V 56.6327 c 0,-2.5546 -1.109,-3.8559 -3.326,-3.8559 h -2.121 l -0.675,-0.6748 v -2.0003 l 0.675,-0.6747 h 2.94 z m 0,-0.1205 h -2.989 l -0.747,0.747 v 2.0967 l 0.747,0.7471 h 2.17 c 2.145,0 3.205,1.2531 3.205,3.7354 V 70.996 c 0,2.145 0.507,3.928 1.495,5.326002 0.456,0.678 1.051,1.251 1.745,1.683 0.693,0.432 1.47,0.713 2.28,0.823 v 0.458 c -0.807,0.101 -1.583,0.373 -2.277,0.797 -0.694,0.423 -1.29,0.99 -1.748,1.661 -0.988,1.398 -1.495,3.133 -1.495,5.23 V 101.482 c 0,2.482 -1.06,3.735 -3.205,3.735 h -2.17 l -0.747,0.747 v 2.097 l 0.747,0.747 h 2.989 c 2.748,0 4.821,-0.747 6.219,-2.242 1.422,-1.494 2.121,-3.687 2.121,-6.555 V 86.178002 c 0,-1.542 0.337,-2.723 1.012,-3.494 0.675,-0.771 1.639,-1.205 2.869,-1.205 h 1.205 l 0.747,-0.747 v -3.278 l -0.747,-0.747 h -1.205 c -1.254,0 -2.194,-0.409 -2.869,-1.205002 -0.675,-0.795 -1.012,-1.976 -1.012,-3.494 V 58.175 c 0,-2.8919 -0.699,-5.0608 -2.121,-6.555 -1.422,-1.5424 -3.495,-2.2894 -6.219,-2.2894 z"
     fill="#001f2c"
     id="path833" />
  <path
     d="m 135.863,105.576 -0.699,-0.699 v -2.049 l 0.699,-0.699 h 2.145 c 2.169,0 3.278,-1.277 3.278,-3.783 V 83.838002 c 0,-2.073 0.506,-3.808 1.47,-5.181 0.456,-0.662 1.045,-1.22 1.73,-1.639 0.686,-0.419 1.451,-0.69 2.247,-0.795 h 0.048 v -0.579 h -0.048 c -0.801,-0.106 -1.571,-0.383002 -2.257,-0.811002 -0.686,-0.428 -1.272,-0.998 -1.72,-1.671 -0.988,-1.398 -1.47,-3.181 -1.47,-5.3019 V 53.521 c 0,-2.5063 -1.109,-3.7836 -3.278,-3.7836 h -2.145 l -0.699,-0.6989 V 46.966 l 0.699,-0.6989 h 2.964 c 2.7,0 4.797,0.7471 6.195,2.2171 1.398,1.4701 2.121,3.6631 2.121,6.5309 V 68.848 c 0,1.543 0.337,2.747 1.012,3.543 0.675,0.795 1.663,1.205 2.917,1.205 h 1.157 l 0.699,0.699 v 3.229002 l -0.699,0.699 h -1.157 c -1.254,0 -2.242,0.41 -2.917,1.205 -0.675,0.795 -1.012,2 -1.012,3.542 V 96.803 c 0,2.844 -0.699,5.061 -2.121,6.531 -1.422,1.47 -3.471,2.217 -6.195,2.217 h -2.964 z"
     fill="#ffffff"
     id="path835" />
  <path
     d="m 138.827,46.1949 c 2.748,0 4.821,0.7471 6.219,2.2413 1.422,1.4941 2.121,3.6872 2.121,6.555 V 68.824 c 0,1.543 0.337,2.699 1.012,3.495 0.675,0.795 1.639,1.205 2.869,1.205 h 1.205 L 153,74.271 v 3.277002 l -0.747,0.747 h -1.205 c -1.254,0 -2.194,0.386 -2.869,1.205 -0.675,0.82 -1.012,1.952 -1.012,3.495 V 96.828 c 0,2.892 -0.699,5.085 -2.121,6.555 -1.422,1.47 -3.495,2.241 -6.219,2.241 h -2.989 l -0.747,-0.747 v -2.097 l 0.747,-0.747 h 2.17 c 2.145,0 3.205,-1.253 3.205,-3.735 V 83.790002 c 0,-2.097 0.507,-3.832 1.495,-5.23 0.458,-0.671 1.054,-1.238 1.748,-1.661 0.694,-0.424 1.47,-0.696 2.277,-0.797 v -0.458 c -0.811,-0.105 -1.59,-0.384002 -2.285,-0.816002 -0.694,-0.432 -1.287,-1.009 -1.74,-1.69 -0.988,-1.422 -1.495,-3.205 -1.495,-5.326 V 53.4729 c 0,-2.4822 -1.06,-3.7354 -3.205,-3.7354 h -2.17 l -0.747,-0.747 v -2.0967 l 0.747,-0.7471 h 2.989 z"
     fill="#b1ff05"
     id="path837" />
  <path
     d="m 138.827,46.318 c 2.7,0 4.749,0.7471 6.147,2.193 1.398,1.446 2.097,3.639 2.097,6.4828 V 68.827 c 0,1.566 0.337,2.771 1.036,3.591 0.699,0.819 1.687,1.229 2.965,1.229 h 1.133 l 0.674,0.674 v 3.182002 l -0.674,0.674 h -1.133 c -1.286,0 -2.274,0.41 -2.965,1.229 -0.699,0.82 -1.036,2.025 -1.036,3.591 V 96.83 c 0,2.844 -0.699,5.013 -2.097,6.483 -1.398,1.47 -3.447,2.193 -6.147,2.193 h -2.94 l -0.675,-0.675 v -2 l 0.675,-0.675 h 2.121 c 2.217,0 3.326,-1.301 3.326,-3.856 V 83.792002 c 0,-2.048 0.506,-3.783 1.47,-5.157 0.454,-0.656 1.04,-1.209 1.721,-1.624 0.681,-0.415 1.441,-0.683 2.232,-0.786 l 0.097,-0.024 v -0.626 l -0.097,-0.025 C 145.961,75.445 145.197,75.172 144.516,74.748 c -0.682,-0.424 -1.266,-0.988 -1.712,-1.656 -0.964,-1.397 -1.47,-3.157 -1.47,-5.2533 V 53.4996 c 0,-2.5545 -1.109,-3.8559 -3.326,-3.8559 h -2.121 l -0.675,-0.6748 v -2.0002 l 0.675,-0.6748 h 2.94 z m 0,-0.1205 h -2.989 l -0.747,0.7471 v 2.0966 l 0.747,0.7471 h 2.17 c 2.145,0 3.205,1.2532 3.205,3.7354 v 14.3391 c 0,2.1452 0.507,3.9282 1.495,5.3262 0.456,0.678 1.051,1.251 1.745,1.683 0.693,0.432 1.47,0.712002 2.28,0.823002 v 0.458 c -0.807,0.101 -1.583,0.373 -2.277,0.796 -0.694,0.424 -1.29,0.991 -1.748,1.662 -0.988,1.398 -1.495,3.133 -1.495,5.23 V 98.348 c 0,2.483 -1.06,3.736 -3.205,3.736 h -2.17 l -0.747,0.747 v 2.097 l 0.747,0.747 h 2.989 c 2.748,0 4.821,-0.747 6.219,-2.242 1.422,-1.494 2.121,-3.687 2.121,-6.555 V 83.045002 c 0,-1.542 0.337,-2.723 1.012,-3.494 0.675,-0.771 1.639,-1.205 2.869,-1.205 h 1.205 l 0.747,-0.747 V 74.321 l -0.747,-0.747 h -1.205 c -1.254,0 -2.194,-0.409 -2.869,-1.205 -0.675,-0.795 -1.012,-1.976 -1.012,-3.494 V 55.042 c 0,-2.892 -0.699,-5.0609 -2.121,-6.5551 -1.422,-1.5423 -3.495,-2.2894 -6.219,-2.2894 z"
     fill="#000000"
     id="path839" />
  <path
     d="m 42.1728,87.116002 c -2.6996,0 -4.7966,-0.747 -6.1946,-2.217 -1.398,-1.471 -2.1211,-3.664 -2.1211,-6.531 V 64.5346 c 0,-1.5423 -0.3374,-2.7473 -1.0123,-3.5426 -0.6749,-0.7953 -1.6631,-1.205 -2.9165,-1.205 h -1.157 l -0.7231,-0.6964 v -3.2293 l 0.7231,-0.6989 h 1.157 c 1.2534,0 2.2416,-0.4097 2.9165,-1.205 0.6749,-0.7953 1.0123,-2.0002 1.0123,-3.5426 v -13.833 c 0,-2.8437 0.699,-5.0609 2.1211,-6.5309 1.4221,-1.4701 3.4709,-2.2172 6.1946,-2.2172 h 2.9647 l 0.699,0.6989 v 2.0485 l -0.699,0.6988 h -2.1452 c -2.1693,0 -3.2781,1.2773 -3.2781,3.7836 v 14.5078 c 0,2.0726 -0.5061,3.8077 -1.4703,5.1814 -0.4561,0.6607 -1.0456,1.2185 -1.7307,1.6373 -0.685,0.4189 -1.4502,0.6895 -2.2463,0.7943 h -0.0482 v 0.5543 h 0.0482 c 0.8015,0.1065 1.571,0.3831 2.2569,0.8112 0.6859,0.4281 1.2724,0.9978 1.7201,1.671 0.9883,1.3978 1.4703,3.1811 1.4703,5.3019 v 14.339302 c 0,2.506 1.1088,3.783 3.2781,3.783 h 2.1452 l 0.699,0.699 v 2.049 l -0.699,0.699 h -2.9647 z"
     fill="#001f2c"
     id="path841" />
  <path
     d="m 42.1728,87.164002 c -2.7478,0 -4.8207,-0.747 -6.2187,-2.241 -1.4221,-1.495 -2.1211,-3.688 -2.1211,-6.555 V 64.5346 c 0,-1.5424 -0.3374,-2.6991 -1.0123,-3.4944 -0.6749,-0.7953 -1.6391,-1.205 -2.8683,-1.205 H 28.7472 L 28,59.0905 V 55.813 l 0.7472,-0.7471 h 1.2052 c 1.2533,0 2.1934,-0.3855 2.8683,-1.2049 0.6749,-0.8194 1.0123,-1.9521 1.0123,-3.4944 v -13.833 c 0,-2.892 0.699,-5.085 2.1211,-6.5551 1.4221,-1.47 3.495,-2.2412 6.2187,-2.2412 h 2.9888 l 0.7472,0.7471 v 2.0966 l -0.7472,0.7471 h -2.1693 c -2.1452,0 -3.2058,1.2532 -3.2058,3.7354 v 14.5078 c 0,2.0966 -0.5061,3.8318 -1.4944,5.2296 -0.4587,0.671 -1.0548,1.2369 -1.7487,1.6603 -0.6939,0.4233 -1.4699,0.6944 -2.2765,0.7954 v 0.4579 c 0.8112,0.1056 1.5902,0.384 2.2846,0.8164 0.6944,0.4324 1.288,1.0086 1.7406,1.6899 0.9883,1.4219 1.4944,3.2052 1.4944,5.3259 v 14.339302 c 0,2.482 1.0606,3.735 3.2058,3.735 h 2.1693 l 0.7472,0.747 v 2.097 l -0.7472,0.747 h -2.9888 z"
     fill="#001f2c"
     id="path843" />
  <path
     d="m 45.1134,27.8554 0.6749,0.6748 v 2.0002 l -0.6749,0.6748 h -2.1211 c -2.2175,0 -3.3263,1.3014 -3.3263,3.8559 v 14.5078 c 0,2.0484 -0.5061,3.7836 -1.4703,5.1572 -0.4535,0.656 -1.0397,1.2094 -1.7206,1.6245 -0.6809,0.4152 -1.4414,0.6827 -2.2323,0.7855 l -0.0964,0.0241 v 0.6507 l 0.0964,0.0241 c 0.796,0.1054 1.5603,0.3794 2.242,0.8037 0.6817,0.4243 1.265,0.9892 1.7109,1.6568 0.9642,1.3978 1.4703,3.157 1.4703,5.2537 v 14.338802 c 0,2.555 1.1088,3.856 3.3263,3.856 h 2.1211 l 0.6749,0.675 v 2 l -0.6749,0.675 h -2.9406 c -2.6996,0 -4.7484,-0.747 -6.1464,-2.193 -1.398,-1.446 -2.097,-3.639 -2.097,-6.483 V 64.5852 c 0,-1.5665 -0.3374,-2.7714 -1.0364,-3.5908 -0.699,-0.8194 -1.6873,-1.2291 -2.9647,-1.2291 h -1.1329 l -0.6749,-0.6748 v -3.1811 l 0.6749,-0.6748 h 1.1329 c 1.2855,0 2.2737,-0.4096 2.9647,-1.229 0.699,-0.8194 1.0364,-2.0244 1.0364,-3.5908 v -13.833 c 0,-2.8438 0.699,-5.0127 2.097,-6.4828 1.398,-1.47 3.4468,-2.193 6.1464,-2.193 h 2.9406 z m 0.0482,-0.1181 h -2.9888 c -2.7478,0 -4.8207,0.7471 -6.2187,2.2412 -1.4221,1.4942 -2.1211,3.6872 -2.1211,6.5551 v 13.833 c 0,1.5423 -0.3374,2.7232 -1.0123,3.4944 -0.6749,0.7712 -1.6391,1.2049 -2.8683,1.2049 H 28.7472 L 28,55.8106 v 3.2799 l 0.7472,0.7471 h 1.2052 c 1.2533,0 2.1934,0.4097 2.8683,1.205 0.6749,0.7953 1.0123,1.9761 1.0123,3.4944 v 13.833002 c 0,2.892 0.699,5.061 2.1211,6.555 1.4221,1.494 3.495,2.241 6.2187,2.241 h 2.9888 l 0.7472,-0.747 v -2.096 l -0.7472,-0.748 h -2.1693 c -2.1452,0 -3.2058,-1.253 -3.2058,-3.735 V 65.501 c 0,-2.1449 -0.5061,-3.9282 -1.4944,-5.326 -0.4562,-0.6782 -1.0506,-1.2523 -1.7443,-1.6846 -0.6937,-0.4324 -1.471,-0.7132 -2.2809,-0.8241 v -0.4579 c 0.8066,-0.101 1.5826,-0.3721 2.2765,-0.7954 0.6939,-0.4234 1.29,-0.9893 1.7487,-1.6603 0.9883,-1.3978 1.4944,-3.133 1.4944,-5.2296 V 35.0153 c 0,-2.4822 1.0606,-3.7354 3.2058,-3.7354 h 2.1693 l 0.7472,-0.6989 v -2.0966 z"
     fill="#001f2c"
     id="path845" />
  <path
     d="m 42.1728,83.983002 c -2.6996,0 -4.7966,-0.747 -6.1946,-2.217 -1.398,-1.47 -2.1211,-3.663 -2.1211,-6.531002 V 61.4017 c 0,-1.5424 -0.3374,-2.7474 -1.0123,-3.5426 -0.6749,-0.7953 -1.6631,-1.205 -2.9165,-1.205 h -1.157 l -0.7231,-0.6965 v -3.2293 l 0.7231,-0.6989 h 1.157 c 1.2534,0 2.2416,-0.4097 2.9165,-1.2049 0.6749,-0.7953 1.0123,-2.0003 1.0123,-3.5426 V 33.4006 c 0,-2.8437 0.699,-5.0608 2.1211,-6.5309 1.4221,-1.47 3.4709,-2.2171 6.1946,-2.2171 h 2.9647 l 0.699,0.6989 v 2.0484 l -0.699,0.6989 h -2.1452 c -2.1693,0 -3.2781,1.2773 -3.2781,3.7836 v 14.5078 c 0,2.0725 -0.5061,3.8077 -1.4703,5.1814 -0.4561,0.6607 -1.0456,1.2185 -1.7307,1.6373 -0.685,0.4188 -1.4502,0.6894 -2.2463,0.7943 h -0.0482 v 0.5543 h 0.0482 c 0.8015,0.1065 1.571,0.3831 2.2569,0.8112 0.6859,0.4281 1.2724,0.9978 1.7201,1.671 0.9883,1.3978 1.4703,3.1811 1.4703,5.3018 v 14.341502 c 0,2.506 1.1088,3.784 3.2781,3.784 h 2.1452 l 0.699,0.699 v 2.048 l -0.699,0.699 h -2.9647 z"
     fill="#ffffff"
     id="path847" />
  <path
     d="m 42.1728,84.031002 c -2.7478,0 -4.8207,-0.747 -6.2187,-2.241 -1.4221,-1.494 -2.1211,-3.687 -2.1211,-6.555002 V 61.4018 c 0,-1.5424 -0.3374,-2.6992 -1.0123,-3.4944 -0.6749,-0.7953 -1.6391,-1.205 -2.8683,-1.205 H 28.7472 L 28,55.9577 v -3.2775 l 0.7472,-0.7471 h 1.2052 c 1.2533,0 2.1934,-0.3856 2.8683,-1.2049 0.6749,-0.8194 1.0123,-1.9521 1.0123,-3.4944 V 33.4007 c 0,-2.8919 0.699,-5.0849 2.1211,-6.555 1.4221,-1.47 3.495,-2.2412 6.2187,-2.2412 h 2.9888 l 0.7472,0.7471 v 2.0966 l -0.7472,0.7471 h -2.1693 c -2.1452,0 -3.2058,1.2532 -3.2058,3.7354 v 14.5078 c 0,2.0966 -0.5061,3.8318 -1.4944,5.2295 -0.4587,0.6711 -1.0548,1.237 -1.7487,1.6603 -0.6939,0.4234 -1.4699,0.6945 -2.2765,0.7955 v 0.4578 c 0.8112,0.1057 1.5902,0.3841 2.2846,0.8165 0.6944,0.4324 1.288,1.0086 1.7406,1.6899 0.9883,1.4218 1.4944,3.2052 1.4944,5.3259 v 14.339102 c 0,2.482 1.0606,3.735 3.2058,3.735 h 2.1693 l 0.7472,0.748 v 2.096 l -0.7472,0.747 h -2.9888 z"
     fill="#b1ff05"
     id="path849" />
  <path
     d="m 45.1134,24.7226 0.6749,0.6748 v 2.0002 l -0.6749,0.6748 h -2.1211 c -2.2175,0 -3.3263,1.3013 -3.3263,3.8559 v 14.5078 c 0,2.0484 -0.5061,3.7836 -1.4703,5.1572 -0.4535,0.656 -1.0397,1.2094 -1.7206,1.6245 -0.6809,0.4151 -1.4414,0.6827 -2.2323,0.7855 l -0.0964,0.0241 v 0.6506 l 0.0964,0.0241 c 0.796,0.1055 1.5603,0.3795 2.242,0.8038 0.6817,0.4243 1.265,0.9892 1.7109,1.6568 0.9642,1.3978 1.4703,3.157 1.4703,5.2536 v 14.338702 c 0,2.555 1.1088,3.856 3.3263,3.856 h 2.1211 l 0.6749,0.675 v 2 l -0.6749,0.675 h -2.9406 c -2.6996,0 -4.7484,-0.747 -6.1464,-2.193 -1.398,-1.446 -2.097,-3.639 -2.097,-6.483002 V 61.4524 c 0,-1.5665 -0.3374,-2.7715 -1.0364,-3.5908 -0.699,-0.8194 -1.6873,-1.2291 -2.9647,-1.2291 h -1.1329 l -0.6749,-0.6748 v -3.1811 l 0.6749,-0.6748 h 1.1329 c 1.2855,0 2.2737,-0.4097 2.9647,-1.229 0.699,-0.8194 1.0364,-2.0244 1.0364,-3.5908 V 33.4489 c 0,-2.8437 0.699,-5.0126 2.097,-6.4827 1.398,-1.47 3.4468,-2.193 6.1464,-2.193 h 2.9406 z m 0.0482,-0.1181 h -2.9888 c -2.7478,0 -4.8207,0.7471 -6.2187,2.2412 -1.4221,1.4942 -2.1211,3.6872 -2.1211,6.555 v 13.8331 c 0,1.5423 -0.3374,2.7232 -1.0123,3.4944 -0.6749,0.7711 -1.6391,1.2049 -2.8683,1.2049 H 28.7472 L 28,52.6778 v 3.2799 l 0.7472,0.7471 h 1.2052 c 1.2533,0 2.1934,0.4097 2.8683,1.205 0.6749,0.7952 1.0123,1.9761 1.0123,3.4944 V 75.237 c 0,2.892002 0.699,5.061002 2.1211,6.555002 1.4221,1.494 3.495,2.241 6.2187,2.241 h 2.9888 l 0.7472,-0.747 v -2.096 l -0.7472,-0.747 h -2.1693 c -2.1452,0 -3.2058,-1.254 -3.2058,-3.736 V 62.3681 c 0,-2.1448 -0.5061,-3.9281 -1.4944,-5.3259 -0.4562,-0.6782 -1.0506,-1.2523 -1.7443,-1.6847 -0.6937,-0.4323 -1.471,-0.7132 -2.2809,-0.8241 v -0.4578 c 0.8066,-0.101 1.5826,-0.3721 2.2765,-0.7955 0.6939,-0.4233 1.29,-0.9892 1.7487,-1.6603 0.9883,-1.3977 1.4944,-3.1329 1.4944,-5.2295 V 31.9042 c 0,-2.4823 1.0606,-3.7354 3.2058,-3.7354 h 2.1693 l 0.7472,-0.723 v -2.0942 z"
     fill="#000000"
     id="path851" />
  <path
     d="m 59.8164,28.9165 h -2.555 l -1.3739,-2.5312 2.5068,-0.0723 z"
     fill="#00222f"
     stroke="#001e2b"
     stroke-width="0.5"
     stroke-linejoin="round"
     id="path853" />
  <path
     d="m 59.8164,28.916 1.398,-2.1448 -1.3738,-2.5305 -1.4463,2.0726 z"
     fill="#ffffff"
     stroke="#001e2b"
     stroke-width="0.5"
     stroke-linejoin="round"
     id="path855" />
  <path
     d="m 57.3337,24.3613 -1.4462,2.0249 2.5068,-0.0723 1.4462,-2.0732 z"
     fill="#ffffff"
     stroke="#001e2b"
     stroke-width="0.5"
     stroke-linejoin="round"
     id="path857" />
  <path
     d="m 50.4643,55.2322 h 0.8924"
     stroke="#001e2b"
     stroke-width="0.5"
     stroke-miterlimit="10"
     id="path859" />
  <path
     d="m 40.9917,55.2322 h 1.8077"
     stroke="#001e2b"
     stroke-width="0.5"
     stroke-miterlimit="10"
     id="path861" />
  <path
     d="m 43.5948,55.2322 h 5.9054"
     stroke="#001e2b"
     stroke-width="0.5"
     stroke-miterlimit="10"
     id="path863" />
  <path
     d="M 123.208,40.821 H 57.7917 C 56.7248,40.8191 55.702,40.3945 54.9476,39.6401 54.1931,38.8858 53.7684,37.8632 53.7665,36.7964 v -1.1568 h 73.4425 v 1.1568 c 0.002,0.527 -0.1,1.0493 -0.3,1.5368 -0.2,0.4876 -0.494,0.931 -0.866,1.3047 -0.371,0.3738 -0.813,0.6707 -1.3,0.8737 -0.486,0.203 -1.008,0.3081 -1.535,0.3094 z"
     fill="#001e2b"
     stroke="#001e2b"
     stroke-width="0.5"
     stroke-miterlimit="10"
     id="path865" />
  <path
     d="M 123.739,39.1098 H 57.2615 c -0.9192,-0.0044 -1.7995,-0.3715 -2.4494,-1.0213 -0.65,-0.6499 -1.0171,-1.53 -1.0215,-2.449 v 0 c 0.0044,-0.919 0.3715,-1.7991 1.0215,-2.449 0.6499,-0.6498 1.5302,-1.0169 2.4494,-1.0213 h 66.4775 c 0.919,0.0044 1.799,0.3715 2.449,1.0213 0.65,0.6499 1.017,1.53 1.021,2.449 v 0 c 0,0.9204 -0.365,1.8031 -1.016,2.4539 -0.651,0.6508 -1.534,1.0164 -2.454,1.0164 z"
     fill="#a6ffec"
     stroke="#231f20"
     stroke-width="0.5"
     stroke-miterlimit="10"
     id="path867" />
  <path
     d="M 123.208,53.0393 H 57.7917 C 56.7248,53.0374 55.702,52.6127 54.9476,51.8584 54.1931,51.104 53.7684,50.0815 53.7665,49.0147 v -1.1568 h 73.4425 v 1.1568 c 0.002,0.527 -0.1,1.0492 -0.3,1.5368 -0.2,0.4876 -0.494,0.9309 -0.866,1.3047 -0.371,0.3738 -0.813,0.6707 -1.3,0.8737 -0.486,0.203 -1.008,0.3081 -1.535,0.3094 z"
     fill="#001e2b"
     stroke="#001e2b"
     stroke-width="0.5"
     stroke-miterlimit="10"
     id="path869" />
  <path
     d="M 123.739,51.3525 H 57.2615 C 56.3423,51.348 55.462,50.981 54.8121,50.3311 54.1621,49.6813 53.795,48.8012 53.7906,47.8822 v 0 c 0.0044,-0.919 0.3715,-1.7992 1.0215,-2.449 0.6499,-0.6499 1.5302,-1.0169 2.4494,-1.0213 h 66.4775 c 0.919,0.0044 1.799,0.3714 2.449,1.0213 0.65,0.6498 1.017,1.53 1.021,2.449 v 0 c 0,0.9204 -0.365,1.803 -1.016,2.4538 -0.651,0.6509 -1.534,1.0165 -2.454,1.0165 z"
     fill="#00d2ff"
     stroke="#231f20"
     stroke-width="0.5"
     stroke-miterlimit="10"
     id="path871" />
  <path
     d="M 88.331,65.2815 H 57.7917 C 56.7252,65.2796 55.7028,64.8553 54.9484,64.1015 54.194,63.3476 53.769,62.3257 53.7665,61.2593 V 60.1025 H 92.332 v 1.1568 c -10e-4,1.0626 -0.423,2.0817 -1.172,2.8351 -0.75,0.7534 -1.767,1.1801 -2.829,1.1871 z"
     fill="#001e2b"
     stroke="#001e2b"
     stroke-width="0.5"
     stroke-miterlimit="10"
     id="path873" />
  <path
     d="M 88.861,63.5947 H 57.2615 c -0.9192,-0.0045 -1.7995,-0.3715 -2.4494,-1.0214 -0.65,-0.6498 -1.0171,-1.5299 -1.0215,-2.4489 v 0 c 0.0044,-0.9191 0.3715,-1.7992 1.0215,-2.449 0.6499,-0.6499 1.5302,-1.0169 2.4494,-1.0213 H 88.861 c 0.919,0.0044 1.799,0.3714 2.449,1.0213 0.65,0.6498 1.017,1.5299 1.022,2.449 v 0 c -0.005,0.919 -0.372,1.7991 -1.022,2.4489 -0.65,0.6499 -1.53,1.0169 -2.449,1.0214 z"
     fill="#a6ffec"
     stroke="#231f20"
     stroke-width="0.5"
     stroke-miterlimit="10"
     id="path875" />
  <path
     d="M 123.208,65.2815 H 98.044 c -1.066,-0.0019 -2.089,-0.4262 -2.843,-1.18 -0.754,-0.7539 -1.179,-1.7758 -1.182,-2.8422 v -1.1568 h 33.19 v 1.1568 c 0.002,0.5268 -0.1,1.0488 -0.301,1.5361 -0.2,0.4873 -0.494,0.9304 -0.866,1.3039 -0.371,0.3735 -0.813,0.6702 -1.299,0.873 -0.486,0.2029 -1.008,0.3079 -1.535,0.3092 z"
     fill="#001e2b"
     stroke="#001e2b"
     stroke-width="0.5"
     stroke-miterlimit="10"
     id="path877" />
  <path
     d="M 123.738,63.5947 H 97.49 c -0.919,-0.0045 -1.799,-0.3715 -2.449,-1.0214 -0.65,-0.6498 -1.018,-1.5299 -1.022,-2.4489 v 0 c 0.004,-0.9191 0.372,-1.7992 1.022,-2.449 0.65,-0.6499 1.53,-1.0169 2.449,-1.0213 h 26.248 c 0.92,0.0044 1.8,0.3714 2.45,1.0213 0.65,0.6498 1.017,1.5299 1.021,2.449 v 0 c 0,0.4557 -0.089,0.9069 -0.264,1.328 -0.174,0.421 -0.43,0.8036 -0.752,1.1258 -0.323,0.3223 -0.705,0.5779 -1.126,0.7523 -0.421,0.1744 -0.873,0.2642 -1.329,0.2642 z"
     fill="#a6ffec"
     stroke="#231f20"
     stroke-width="0.5"
     stroke-miterlimit="10"
     id="path879" />
  <path
     d="m 92.669,89.743002 h 30.539 c 1.067,-0.002 2.09,-0.427 2.844,-1.181 0.755,-0.755 1.18,-1.777 1.181,-2.844 v -1.157 H 88.668 v 1.157 c 10e-4,1.063 0.422,2.083 1.171,2.837 0.75,0.754 1.767,1.181 2.83,1.188 z"
     fill="#001e2b"
     stroke="#001e2b"
     stroke-width="0.5"
     stroke-miterlimit="10"
     id="path881" />
  <path
     d="m 92.139,88.056002 h 31.599 c 0.92,-0.005 1.8,-0.372 2.45,-1.022 0.65,-0.65 1.017,-1.53 1.021,-2.449 v 0 c -0.004,-0.919 -0.371,-1.799 -1.021,-2.449 -0.65,-0.65 -1.53,-1.017 -2.45,-1.021 H 92.139 c -0.919,0.004 -1.799,0.371 -2.449,1.021 -0.65,0.65 -1.017,1.53 -1.022,2.449 v 0 c 0.005,0.919 0.372,1.799 1.022,2.449 0.65,0.65 1.53,1.017 2.449,1.022 z"
     fill="#a6ffec"
     stroke="#231f20"
     stroke-width="0.5"
     stroke-miterlimit="10"
     id="path883" />
  <path
     d="m 57.7918,89.743002 h 25.1639 c 1.0669,-0.002 2.0897,-0.427 2.8441,-1.181 0.7545,-0.755 1.1792,-1.777 1.1811,-2.844 v -1.157 H 53.7906 v 1.157 c -0.0019,0.527 0.1001,1.049 0.3002,1.537 0.2001,0.487 0.4944,0.931 0.866,1.305 0.3716,0.373 0.8133,0.67 1.2997,0.873 0.4865,0.203 1.0082,0.308 1.5353,0.31 z"
     fill="#001e2b"
     stroke="#001e2b"
     stroke-width="0.5"
     stroke-miterlimit="10"
     id="path885" />
  <path
     d="M 57.2615,88.056002 H 83.51 c 0.9192,-0.005 1.7994,-0.372 2.4494,-1.022 0.65,-0.65 1.0171,-1.53 1.0215,-2.449 v 0 c -0.004,-0.919 -0.3715,-1.799 -1.0215,-2.449 -0.65,-0.65 -1.5302,-1.017 -2.4494,-1.021 H 57.2615 c -0.9192,0.004 -1.7995,0.371 -2.4494,1.021 -0.65,0.65 -1.0171,1.53 -1.0215,2.449 v 0 c 0,0.921 0.3657,1.803 1.0166,2.454 0.6509,0.651 1.5337,1.017 2.4543,1.017 z"
     fill="#a6ffec"
     stroke="#231f20"
     stroke-width="0.5"
     stroke-miterlimit="10"
     id="path887" />
  <path
     d="M 123.208,77.500002 H 57.7917 c -1.0669,-0.002 -2.0897,-0.427 -2.8441,-1.181 C 54.1931,75.565002 53.7684,74.542 53.7665,73.475 v -1.156 h 73.4425 v 1.156 c 0.004,0.528 -0.097,1.051 -0.296,1.539 -0.199,0.489 -0.494,0.933002 -0.866,1.307002 -0.372,0.374 -0.814,0.671 -1.301,0.873 -0.488,0.203 -1.01,0.307 -1.538,0.306 z"
     fill="#001e2b"
     stroke="#001e2b"
     stroke-width="0.5"
     stroke-miterlimit="10"
     id="path889" />
  <path
     d="M 123.739,75.813002 H 57.2615 C 56.3427,75.809002 55.4628,75.442 54.8129,74.793 54.163,74.143 53.7957,73.264 53.7906,72.345 v 0 c 0.0044,-0.919 0.3715,-1.799 1.0215,-2.449 0.6499,-0.65 1.5302,-1.017 2.4494,-1.021 h 66.4775 c 0.919,0.004 1.799,0.371 2.449,1.021 0.65,0.65 1.017,1.53 1.021,2.449 v 0 c 0,0.92 -0.366,1.802 -1.017,2.453 -0.651,0.65 -1.533,1.015002 -2.453,1.015002 z"
     fill="#00d2ff"
     stroke="#231f20"
     stroke-width="0.5"
     stroke-miterlimit="10"
     id="path891" />
  <path
     d="M 110.072,101.987 H 57.7917 c -1.0669,-0.002 -2.0897,-0.426 -2.8441,-1.181 -0.7545,-0.754 -1.1792,-1.777 -1.1811,-2.843 v -1.157 h 60.3065 v 1.157 c -10e-4,1.063 -0.422,2.082 -1.171,2.836 -0.75,0.754 -1.767,1.181 -2.83,1.188 z"
     fill="#001e2b"
     stroke="#001e2b"
     stroke-width="0.5"
     stroke-miterlimit="10"
     id="path893" />
  <path
     d="M 110.602,100.3 H 57.2615 c -0.9192,-0.004 -1.7995,-0.371 -2.4494,-1.021 -0.65,-0.65 -1.0171,-1.53 -1.0215,-2.449 v 0 c 0.0044,-0.919 0.3715,-1.799 1.0215,-2.449 0.6499,-0.65 1.5302,-1.017 2.4494,-1.021 h 53.3405 c 0.919,0.004 1.8,0.371 2.45,1.021 0.65,0.65 1.017,1.53 1.021,2.449 v 0 c -0.004,0.919 -0.371,1.799 -1.021,2.449 -0.65,0.65 -1.531,1.017 -2.45,1.021 z"
     fill="#00d2ff"
     stroke="#231f20"
     stroke-width="0.5"
     stroke-miterlimit="10"
     id="path895" />
  <path
     d="m 119.4,89.525002 c 1.933,1.934 3.019,4.555998 3.019,7.289998 0,2.735 -1.086,5.357 -3.019,7.29"
     stroke="#001e2b"
     stroke-width="0.5"
     stroke-miterlimit="10"
     stroke-dasharray="2, 2"
     id="path897" />
  <path
     d="m 116.869,102.804 1.253,2.169 1.254,2.145 h -2.507 -2.483 l 1.254,-2.145 z"
     fill="#ffffff"
     stroke="#001e2b"
     stroke-width="0.5"
     stroke-miterlimit="10"
     id="path899" />
  <path
     d="m 116.869,105.6 -2.483,1.518 h 4.99 z"
     fill="#001e2b"
     id="path901" />
  <path
     d="m 116.869,105.601 v -2.797"
     stroke="#001e2b"
     stroke-width="0.5"
     stroke-miterlimit="10"
     id="path903" />
  <path
     d="m 79.8222,39.1098 h 30.8768 l -1.736,-6.9406 H 78.0867 Z"
     fill="#001e2b"
     stroke="#001e2b"
     stroke-miterlimit="10"
     id="path905" />
  <path
     d="m 81.1479,44.4119 1.2293,4.9885 c 0.0157,0.0634 0.0439,0.1229 0.0827,0.1754 0.0388,0.0524 0.0876,0.0967 0.1436,0.1303 0.056,0.0336 0.118,0.0558 0.1826,0.0654 0.0645,0.0095 0.1303,0.0063 0.1936,-0.0096 l 21.4523,-5.35 z"
     fill="#001e2b"
     stroke="#001e2b"
     stroke-miterlimit="10"
     id="path907" />
  <path
     d="m 58.081,93.454 c 4.4994,0 8.1469,-3.646998 8.1469,-8.145998 0,-4.498 -3.6475,-8.145 -8.1469,-8.145 -4.4994,0 -8.1469,3.647 -8.1469,8.145 0,4.499 3.6475,8.145998 8.1469,8.145998 z"
     fill="#ffffff"
     id="path909" />
  <path
     d="m 58.081,93.454 c 4.4994,0 8.1469,-3.646998 8.1469,-8.145998 0,-4.498 -3.6475,-8.145 -8.1469,-8.145 -4.4994,0 -8.1469,3.647 -8.1469,8.145 0,4.499 3.6475,8.145998 8.1469,8.145998 z"
     stroke="#00222f"
     stroke-miterlimit="10"
     id="path911" />
  <path
     d="m 53.429,86.128002 v -1.952 h 12.7266 c 0.2997,2.032 -0.1921,4.102 -1.3739,5.783 -0.305,0.428 -0.6435,0.831 -1.0123,1.205 h -5.3028 c -1.3341,-0.006 -2.6117,-0.539 -3.5551,-1.482 -0.9434,-0.943 -1.4761,-2.221 -1.4825,-3.554 z"
     fill="#001e2b"
     id="path913" />
  <path
     d="m 53.429,86.128002 v -1.952 h 12.7266 c 0.2997,2.032 -0.1921,4.102 -1.3739,5.783 -0.305,0.428 -0.6435,0.831 -1.0123,1.205 h -5.3028 c -1.3341,-0.006 -2.6117,-0.539 -3.5551,-1.482 -0.9434,-0.943 -1.4761,-2.221 -1.4825,-3.554 z"
     stroke="#001e2b"
     stroke-miterlimit="10"
     id="path915" />
  <path
     d="m 53.429,84.175002 c 0.0057,-1.244 0.5027,-2.436 1.383,-3.316 0.8802,-0.88 2.0724,-1.377 3.3172,-1.383 h 5.6161 c 1.2244,1.197 2.0433,2.747 2.3416,4.432 0.2983,1.686 0.061,3.423 -0.6785,4.967 h -7.2792 c -1.2448,-0.006 -2.437,-0.503 -3.3172,-1.383 -0.8803,-0.88 -1.3773,-2.072 -1.383,-3.317 z"
     fill="#a6ffec"
     id="path917" />
  <path
     d="m 53.429,84.175002 c 0.0057,-1.244 0.5027,-2.436 1.383,-3.316 0.8802,-0.88 2.0724,-1.377 3.3172,-1.383 h 5.6161 c 1.2244,1.197 2.0433,2.747 2.3416,4.432 0.2983,1.686 0.061,3.423 -0.6785,4.967 h -7.2792 c -1.2448,-0.006 -2.437,-0.503 -3.3172,-1.383 -0.8803,-0.88 -1.3773,-2.072 -1.383,-3.317 z"
     stroke="#231f20"
     stroke-miterlimit="10"
     id="path919" />
  <path
     d="m 39.4732,110.709 c 0,0 -0.2893,0.434 0.7954,1.181 1.0846,0.747 1.398,0.289 1.398,0.289 L 53.2603,94.876 c 0,0 0.1446,-0.482 -0.8195,-1.133 -0.9642,-0.65 -1.3739,-0.313 -1.3739,-0.313 z"
     fill="#00c954"
     stroke="#00222f"
     stroke-width="0.5"
     stroke-miterlimit="10"
     id="path921" />
  <path
     d="m 50.7294,93.647 c 0,0 -0.1205,0.53 0.916,1.253 1.0364,0.723 1.4944,0.41 1.4944,0.41 l 1.3257,-1.904 C 54.0082,93.225 53.5782,92.982 53.188,92.683 52.7715,92.42 52.3907,92.104 52.0551,91.743002 Z"
     fill="#00c954"
     stroke="#00222f"
     stroke-width="0.5"
     stroke-miterlimit="10"
     id="path923" />
  <path
     d="m 63.2632,78.802002 c 1.4827,1.024 2.6282,2.466 3.2916,4.142 0.6635,1.675 0.815,3.51 0.4354,5.272 -0.3795,1.762 -1.2731,3.371 -2.5676,4.624998 -1.2946,1.254 -2.932,2.097 -4.7053,2.42 -1.7732,0.324 -3.6026,0.114 -5.2567,-0.602 -1.6542,-0.716 -3.0589,-1.906 -4.0364,-3.419998 -0.9776,-1.514 -1.4841,-3.284 -1.4555,-5.086 0.0286,-1.802 0.591,-3.555 1.6161,-5.038 1.3762,-1.985 3.4839,-3.344 5.8607,-3.778 2.3769,-0.433 4.8287,0.093 6.8177,1.465 z m -11.883,2.843 c -0.918,1.328 -1.4217,2.898 -1.4473,4.512 -0.0256,1.614 0.4281,3.199 1.3036,4.555 C 52.112,92.068 53.37,93.134 54.8515,93.775 c 1.4814,0.641 3.1197,0.828 4.7077,0.538 1.5881,-0.289 3.0544,-1.044 4.2137,-2.167 1.1592,-1.122998 1.9593,-2.564998 2.299,-4.142998 0.3397,-1.578 0.2038,-3.221 -0.3905,-4.721 -0.5944,-1.501 -1.6204,-2.792 -2.9485,-3.709 -1.7806,-1.23 -3.9766,-1.702 -6.1054,-1.313 -2.1287,0.388 -4.0161,1.606 -5.2473,3.385 z"
     fill="#001f2c"
     id="path925" />
  <path
     d="m 63.2632,78.802002 c 1.4827,1.024 2.6282,2.466 3.2916,4.142 0.6635,1.675 0.815,3.51 0.4354,5.272 -0.3795,1.762 -1.2731,3.371 -2.5676,4.624998 -1.2946,1.254 -2.932,2.097 -4.7053,2.42 -1.7732,0.324 -3.6026,0.114 -5.2567,-0.602 -1.6542,-0.716 -3.0589,-1.906 -4.0364,-3.419998 -0.9776,-1.514 -1.4841,-3.284 -1.4555,-5.086 0.0286,-1.802 0.591,-3.555 1.6161,-5.038 1.3762,-1.985 3.4839,-3.344 5.8607,-3.778 2.3769,-0.433 4.8287,0.093 6.8177,1.465 z m -11.883,2.843 c -0.918,1.328 -1.4217,2.898 -1.4473,4.512 -0.0256,1.614 0.4281,3.199 1.3036,4.555 C 52.112,92.068 53.37,93.134 54.8515,93.775 c 1.4814,0.641 3.1197,0.828 4.7077,0.538 1.5881,-0.289 3.0544,-1.044 4.2137,-2.167 1.1592,-1.122998 1.9593,-2.564998 2.299,-4.142998 0.3397,-1.578 0.2038,-3.221 -0.3905,-4.721 -0.5944,-1.501 -1.6204,-2.792 -2.9485,-3.709 -1.7806,-1.23 -3.9766,-1.702 -6.1054,-1.313 -2.1287,0.388 -4.0161,1.606 -5.2473,3.385 z"
     stroke="#001f2c"
     stroke-width="0.5"
     stroke-miterlimit="10"
     id="path927" />
  <path
     d="m 63.2632,77.837002 c 1.4827,1.025 2.6282,2.467 3.2916,4.142 0.6635,1.676 0.815,3.511 0.4354,5.272 -0.3795,1.762 -1.2731,3.372 -2.5676,4.626 C 63.128,93.131 61.4906,93.973 59.7173,94.297 c -1.7732,0.323 -3.6026,0.114 -5.2567,-0.602 -1.6542,-0.716 -3.0589,-1.905998 -4.0364,-3.420998 -0.9776,-1.514 -1.4841,-3.284 -1.4555,-5.086 0.0286,-1.802 0.591,-3.555 1.6161,-5.037 1.3762,-1.986 3.4839,-3.344 5.8607,-3.778 2.3769,-0.434 4.8287,0.093 6.8177,1.464 z m -11.883,2.844 c -0.918,1.328 -1.4217,2.898 -1.4473,4.511 -0.0256,1.614 0.4281,3.199 1.3036,4.555 0.8755,1.356 2.1335,2.421998 3.615,3.062998 1.4814,0.642 3.1197,0.829 4.7077,0.539 1.5881,-0.29 3.0544,-1.044 4.2137,-2.166998 1.1592,-1.123 1.9593,-2.565 2.299,-4.143 0.3397,-1.578 0.2038,-3.221 -0.3905,-4.722 -0.5944,-1.5 -1.6204,-2.791 -2.9485,-3.708 -1.7806,-1.23 -3.9766,-1.702 -6.1054,-1.314 -2.1287,0.389 -4.0161,1.607 -5.2473,3.386 z"
     fill="#00c954"
     id="path929" />
  <path
     d="m 63.2632,77.837002 c 1.4827,1.025 2.6282,2.467 3.2916,4.142 0.6635,1.676 0.815,3.511 0.4354,5.272 -0.3795,1.762 -1.2731,3.372 -2.5676,4.626 C 63.128,93.131 61.4906,93.973 59.7173,94.297 c -1.7732,0.323 -3.6026,0.114 -5.2567,-0.602 -1.6542,-0.716 -3.0589,-1.905998 -4.0364,-3.420998 -0.9776,-1.514 -1.4841,-3.284 -1.4555,-5.086 0.0286,-1.802 0.591,-3.555 1.6161,-5.037 1.3762,-1.986 3.4839,-3.344 5.8607,-3.778 2.3769,-0.434 4.8287,0.093 6.8177,1.464 z m -11.883,2.844 c -0.918,1.328 -1.4217,2.898 -1.4473,4.511 -0.0256,1.614 0.4281,3.199 1.3036,4.555 0.8755,1.356 2.1335,2.421998 3.615,3.062998 1.4814,0.642 3.1197,0.829 4.7077,0.539 1.5881,-0.29 3.0544,-1.044 4.2137,-2.166998 1.1592,-1.123 1.9593,-2.565 2.299,-4.143 0.3397,-1.578 0.2038,-3.221 -0.3905,-4.722 -0.5944,-1.5 -1.6204,-2.791 -2.9485,-3.708 -1.7806,-1.23 -3.9766,-1.702 -6.1054,-1.314 -2.1287,0.389 -4.0161,1.607 -5.2473,3.386 z"
     stroke="#00222f"
     stroke-width="0.5"
     stroke-miterlimit="10"
     id="path931" />
  <path
     d="m 53.3567,93.14 -1.3739,2.001 c 0,0 0.7473,0.41 1.157,0.169 l 1.157,-1.663 z"
     fill="#001f2c"
     id="path933" />
  <path
     d="M 51.6694,94.924 40.389,111.938 c 0,0 0.916,0.675 1.3739,0.289 l 11.184,-16.869 c -0.0241,0 -0.5303,0.072 -1.2775,-0.434 z"
     fill="#001f2c"
     id="path935" />
  <path
     d="M 57.5507,35.6396 H 110.916"
     stroke="#001e2b"
     stroke-width="0.5"
     stroke-miterlimit="10"
     stroke-dasharray="2, 2"
     id="path937" />
  <path
     d="M 57.5507,47.8818 H 110.916"
     stroke="#001e2b"
     stroke-width="0.5"
     stroke-miterlimit="10"
     stroke-dasharray="2, 2"
     id="path939" />
  <path
     d="M 57.5507,72.343 H 123.449"
     stroke="#001e2b"
     stroke-width="0.5"
     stroke-miterlimit="10"
     stroke-dasharray="2, 2"
     id="path941" />
  <path
     d="M 83.6787,84.585002 H 67.192"
     stroke="#001e2b"
     stroke-miterlimit="10"
     stroke-dasharray="2, 2"
     id="path943" />
  <path
     d="M 66.1556,84.176002 H 57.5507"
     stroke="#001e2b"
     stroke-miterlimit="10"
     stroke-dasharray="2, 2"
     id="path945" />
  <path
     d="M 123.449,84.585002 H 92.332"
     stroke="#001e2b"
     stroke-miterlimit="10"
     stroke-dasharray="2, 2"
     id="path947" />
  <path
     d="m 97.321,60.2449 h 25.791"
     stroke="#001e2b"
     stroke-width="0.5"
     stroke-miterlimit="10"
     stroke-dasharray="2, 2"
     id="path949" />
  <path
     d="M 57.5507,60.2449 H 88.668"
     stroke="#001e2b"
     stroke-width="0.5"
     stroke-miterlimit="10"
     stroke-dasharray="2, 2"
     id="path951" />
  <path
     d="M 110.048,96.803 H 57.5507"
     stroke="#001e2b"
     stroke-width="0.5"
     stroke-miterlimit="10"
     stroke-dasharray="2, 2"
     id="path953" />
  <path
     d="m 129.957,44.5081 -34.154,8.5071 c -0.079,0.0193 -0.162,0.0228 -0.242,0.0103 -0.081,-0.0126 -0.158,-0.041 -0.227,-0.0836 -0.07,-0.0425 -0.13,-0.0985 -0.178,-0.1645 -0.048,-0.066 -0.082,-0.1408 -0.101,-0.2201 L 88.258,25.4215 c -0.019,-0.0792 -0.023,-0.1614 -0.01,-0.2418 0.013,-0.0805 0.041,-0.1577 0.084,-0.2272 0.042,-0.0694 0.098,-0.1298 0.164,-0.1775 0.066,-0.0478 0.141,-0.0819 0.22,-0.1006 l 34.155,-8.5071 c 0.079,-0.0193 0.161,-0.0228 0.242,-0.0102 0.08,0.0125 0.157,0.0409 0.227,0.0835 0.069,0.0426 0.13,0.0985 0.177,0.1645 0.048,0.066 0.082,0.1408 0.101,0.2201 l 6.773,27.16 c 0.02,0.0759 0.025,0.1552 0.014,0.233 -0.011,0.0778 -0.038,0.1527 -0.078,0.2201 -0.041,0.0674 -0.094,0.126 -0.158,0.1723 -0.063,0.0464 -0.135,0.0795 -0.212,0.0975 z"
     fill="#001e2b"
     stroke="#001e2b"
     stroke-width="0.5"
     stroke-miterlimit="10"
     id="path955" />
  <path
     d="m 129.379,42.2428 -34.155,8.507 c -0.079,0.0194 -0.161,0.0229 -0.242,0.0103 -0.08,-0.0126 -0.157,-0.041 -0.227,-0.0836 C 94.686,50.634 94.625,50.5781 94.578,50.5121 94.53,50.446 94.496,50.3712 94.477,50.2919 L 87.704,23.1561 c -0.0194,-0.0792 -0.0228,-0.1613 -0.0103,-0.2418 0.0126,-0.0805 0.041,-0.1577 0.0836,-0.2272 0.0426,-0.0694 0.0985,-0.1298 0.1645,-0.1775 0.0662,-0.0477 0.1412,-0.0819 0.2202,-0.1006 l 34.154,-8.5071 c 0.08,-0.0193 0.162,-0.0228 0.242,-0.0102 0.081,0.0126 0.158,0.0409 0.227,0.0835 0.07,0.0426 0.13,0.0985 0.178,0.1645 0.048,0.066 0.082,0.1408 0.101,0.2201 l 6.773,27.16 c 0.032,0.1564 0.003,0.3193 -0.083,0.4543 -0.085,0.1349 -0.22,0.2313 -0.375,0.2687 z"
     fill="#ffffff"
     stroke="#001e2b"
     stroke-width="0.5"
     stroke-miterlimit="10"
     id="path957" />
  <path
     d="m 121.246,16.8776 -30.779,7.6671 5.146,20.6485 30.779,-7.6671 z"
     fill="#00d2ff"
     stroke="#001e2b"
     stroke-width="0.5"
     stroke-miterlimit="10"
     id="path959" />
  <path
     d="m 103.275,27.0603 6.315,6.555 6.339,6.5309 -8.846,2.2172 -8.846,2.193 2.531,-8.748 z"
     stroke="#001e2b"
     stroke-width="0.5"
     stroke-miterlimit="10"
     id="path961" />
  <path
     d="m 106.529,34.025 1.205,-2.3376 -4.459,-4.6271 -2.049,7.1334 2.001,1.5424 1.47,-3.1329 z"
     fill="#ffffff"
     stroke="#001e2b"
     stroke-width="0.5"
     stroke-miterlimit="10"
     id="path963" />
  <path
     d="m 116.869,22.6018 -5.013,8.3384 c 0.548,0.3455 1.159,0.5781 1.798,0.6842 0.639,0.1062 1.293,0.0837 1.923,-0.0662 0.63,-0.1498 1.224,-0.424 1.747,-0.8063 0.523,-0.3824 0.965,-0.8653 1.298,-1.4204 0.334,-0.5552 0.554,-1.1713 0.646,-1.8124 0.093,-0.6411 0.056,-1.2942 -0.107,-1.921 -0.164,-0.6268 -0.45,-1.2147 -0.844,-1.7292 -0.393,-0.5145 -0.886,-0.9453 -1.448,-1.2671 z"
     fill="#a6ffec"
     stroke="#001e2b"
     stroke-width="0.5"
     stroke-miterlimit="10"
     id="path965" />
  <path
     d="m 110.192,24.2646 c -0.664,1.1058 -0.862,2.4302 -0.55,3.682 0.312,1.2518 1.108,2.3286 2.214,2.9935 l 5.013,-8.3384 c -1.107,-0.6605 -2.43,-0.8564 -3.681,-0.5449 -1.251,0.3116 -2.328,1.1052 -2.996,2.2078 z"
     fill="#ffffff"
     stroke="#001e2b"
     stroke-width="0.5"
     stroke-miterlimit="10"
     id="path967" />
</svg>
