<svg width="205" height="197" viewBox="0 0 205 197" fill="none" xmlns="http://www.w3.org/2000/svg">
<path d="M145.794 40H116.48C112.619 40.0025 108.917 41.533 106.181 44.257C103.446 46.981 101.901 50.6768 101.883 54.5367V83.962C101.884 85.8765 101.507 87.7722 100.772 89.5404C100.038 91.3086 98.9621 92.9143 97.6055 94.2654C96.2489 95.6164 94.6386 96.6861 92.8672 97.413C91.0959 98.1399 89.1983 98.5097 87.2835 98.5011H57.9714C49.9137 98.5011 43.3745 105.068 43.3745 113.038V142.463C43.3738 144.377 43.7514 146.273 44.4856 148.041C45.2198 149.809 46.2961 151.414 47.6527 152.765C49.0093 154.116 50.6195 155.185 52.3907 155.912C54.1619 156.639 56.0593 157.008 57.9739 157H87.2835C91.1445 156.998 94.8477 155.468 97.5835 152.744C100.319 150.02 101.865 146.323 101.883 142.463V113.038C101.882 111.124 102.259 109.228 102.993 107.46C103.727 105.692 104.803 104.087 106.16 102.736C107.516 101.385 109.126 100.316 110.897 99.5891C112.668 98.8623 114.565 98.4926 116.48 98.5011H145.794C149.655 98.498 153.358 96.967 156.094 94.2427C158.829 91.5185 160.375 87.8223 160.394 83.962V54.5367C160.394 46.5647 153.852 40 145.794 40Z" fill="#F9EBFF"/>
<path d="M85.3143 55.3489C85.3643 55.2868 85.4209 55.2302 85.4831 55.1802" stroke="#001E2B" stroke-miterlimit="10"/>
<path d="M85.8204 54.843C88.279 52.674 92.2801 52.6259 95.8474 55.2045C100.427 58.8435 103.753 58.1928 105.609 56.1203" stroke="#001E2B" stroke-miterlimit="10" stroke-dasharray="1.98 1.98"/>
<path d="M105.754 55.9272C105.802 55.8549 105.85 55.8067 105.899 55.7344" stroke="#001E2B" stroke-miterlimit="10"/>
<path d="M86.8087 59.1084C86.8569 59.0361 86.9051 58.9878 86.9534 58.9155" stroke="#001E2B" stroke-miterlimit="10"/>
<path d="M87.2908 58.5782C89.0985 56.8671 92.2561 56.7707 95.3413 58.9397C99.2942 62.2895 103.777 62.4341 105.344 60.9158" stroke="#001E2B" stroke-miterlimit="10" stroke-dasharray="1.97 1.97"/>
<path d="M105.513 60.7253C105.561 60.653 105.609 60.6048 105.658 60.5325" stroke="#001E2B" stroke-miterlimit="10"/>
<path d="M150.249 109.548H152.057" stroke="#001E2B" stroke-width="0.5" stroke-miterlimit="10"/>
<path d="M142.56 109.548H145.452" stroke="#001E2B" stroke-width="0.5" stroke-miterlimit="10"/>
<path d="M146.344 109.548H149.285" stroke="#001E2B" stroke-width="0.5" stroke-miterlimit="10"/>
<path d="M147.863 140.709L147.164 140.01V137.962L147.863 137.263H150.008C152.177 137.263 153.286 135.985 153.286 133.479V118.971C153.286 116.899 153.792 115.164 154.756 113.79C155.212 113.129 155.801 112.57 156.486 112.151C157.172 111.732 157.937 111.461 158.733 111.356H158.781V110.777H158.733C157.932 110.671 157.162 110.394 156.476 109.966C155.79 109.538 155.204 108.968 154.756 108.295C153.768 106.897 153.286 105.114 153.286 102.993V88.6543C153.286 86.148 152.177 84.8707 150.008 84.8707H147.863L147.164 84.1718V82.0993L147.863 81.4004H150.827C153.527 81.4004 155.624 82.1475 157.022 83.6175C158.42 85.0876 159.143 87.2806 159.143 90.1484V103.981C159.143 105.524 159.48 106.729 160.155 107.524C160.83 108.319 161.818 108.729 163.072 108.729H164.229L164.928 109.428V112.657L164.229 113.356H163.072C161.818 113.356 160.83 113.766 160.155 114.561C159.48 115.356 159.143 116.561 159.143 118.104V131.937C159.143 134.78 158.444 136.998 157.022 138.468C155.6 139.938 153.551 140.685 150.827 140.685H147.863V140.709Z" fill="#001F2C"/>
<path d="M150.827 81.328C153.575 81.328 155.648 82.0751 157.046 83.5692C158.468 85.0634 159.167 87.2564 159.167 90.1242V103.957C159.167 105.5 159.504 106.656 160.179 107.452C160.854 108.247 161.818 108.657 163.048 108.657H164.253L165 109.404V112.681L164.253 113.428H163.048C161.794 113.428 160.854 113.814 160.179 114.633C159.504 115.453 159.167 116.585 159.167 118.128V131.961C159.167 134.853 158.468 137.046 157.046 138.516C155.624 139.986 153.551 140.757 150.827 140.757H147.838L147.091 140.01V137.913L147.838 137.166H150.008C152.153 137.166 153.213 135.913 153.213 133.431V118.923C153.213 116.826 153.72 115.091 154.708 113.693C155.166 113.022 155.762 112.456 156.456 112.032C157.15 111.608 157.926 111.336 158.733 111.235V110.777C157.922 110.672 157.143 110.393 156.448 109.961C155.754 109.529 155.161 108.952 154.708 108.271C153.72 106.849 153.213 105.066 153.213 102.945V88.606C153.213 86.1238 152.153 84.8706 150.008 84.8706H147.838L147.091 84.1235V82.0269L147.838 81.2798H150.827V81.328Z" fill="#001F2C"/>
<path d="M150.827 81.4511C153.527 81.4511 155.576 82.1981 156.974 83.6441C158.372 85.0901 159.071 87.2831 159.071 90.1268V103.96C159.071 105.526 159.408 106.731 160.107 107.551C160.806 108.37 161.794 108.78 163.072 108.78H164.205L164.879 109.454V112.636L164.205 113.31H163.072C161.786 113.31 160.798 113.72 160.107 114.539C159.408 115.359 159.071 116.564 159.071 118.13V131.963C159.071 134.807 158.372 136.976 156.974 138.446C155.576 139.916 153.527 140.639 150.827 140.639H147.887L147.212 139.964V137.964L147.887 137.289H150.008C152.225 137.289 153.334 135.988 153.334 133.433V118.926C153.334 116.877 153.84 115.142 154.804 113.768C155.258 113.112 155.844 112.559 156.525 112.144C157.206 111.729 157.966 111.461 158.757 111.358L158.854 111.334V110.708L158.757 110.684C157.961 110.578 157.197 110.305 156.516 109.881C155.834 109.457 155.25 108.893 154.804 108.225C153.84 106.828 153.334 105.068 153.334 102.972V88.6327C153.334 86.0781 152.225 84.7768 150.008 84.7768H147.887L147.212 84.102V82.1017L147.887 81.427H150.827V81.4511ZM150.827 81.3306H147.838L147.091 82.0776V84.1743L147.838 84.9214H150.008C152.153 84.9214 153.213 86.1745 153.213 88.6568V102.996C153.213 105.141 153.72 106.924 154.708 108.322C155.164 109 155.759 109.573 156.453 110.005C157.146 110.437 157.923 110.718 158.733 110.828V111.286C157.926 111.387 157.15 111.659 156.456 112.083C155.762 112.506 155.166 113.073 154.708 113.744C153.72 115.142 153.213 116.877 153.213 118.974V133.482C153.213 135.964 152.153 137.217 150.008 137.217H147.838L147.091 137.964V140.061L147.838 140.808H150.827C153.575 140.808 155.648 140.061 157.046 138.566C158.468 137.072 159.167 134.879 159.167 132.011V118.178C159.167 116.636 159.504 115.455 160.179 114.684C160.854 113.913 161.818 113.479 163.048 113.479H164.253L165 112.732V109.454L164.253 108.707H163.048C161.794 108.707 160.854 108.298 160.179 107.502C159.504 106.707 159.167 105.526 159.167 104.008V90.175C159.167 87.2831 158.468 85.1142 157.046 83.62C155.624 82.0776 153.551 81.3306 150.827 81.3306V81.3306Z" fill="#001F2C"/>
<path d="M147.863 137.576L147.164 136.877V134.828L147.863 134.129H150.008C152.177 134.129 153.286 132.852 153.286 130.346V115.838C153.286 113.765 153.792 112.03 154.756 110.657C155.212 109.995 155.801 109.437 156.486 109.018C157.172 108.599 157.937 108.328 158.733 108.223H158.781V107.644H158.733C157.932 107.538 157.162 107.261 156.476 106.833C155.79 106.405 155.204 105.835 154.756 105.162C153.768 103.764 153.286 101.981 153.286 99.8601V85.521C153.286 83.0147 152.177 81.7374 150.008 81.7374H147.863L147.164 81.0385V78.966L147.863 78.2671H150.827C153.527 78.2671 155.624 79.0142 157.022 80.4842C158.42 81.9543 159.143 84.1473 159.143 87.0151V100.848C159.143 102.391 159.48 103.595 160.155 104.391C160.83 105.186 161.818 105.596 163.072 105.596H164.229L164.928 106.295V109.524L164.229 110.223H163.072C161.818 110.223 160.83 110.633 160.155 111.428C159.48 112.223 159.143 113.428 159.143 114.97V128.803C159.143 131.647 158.444 133.864 157.022 135.334C155.6 136.804 153.551 137.551 150.827 137.551H147.863V137.576Z" fill="white"/>
<path d="M150.827 78.1949C153.575 78.1949 155.648 78.942 157.046 80.4362C158.468 81.9303 159.167 84.1234 159.167 86.9912V100.824C159.167 102.367 159.504 103.523 160.179 104.319C160.854 105.114 161.818 105.524 163.048 105.524H164.253L165 106.271V109.548L164.253 110.295H163.048C161.794 110.295 160.854 110.681 160.179 111.5C159.504 112.32 159.167 113.452 159.167 114.995V128.828C159.167 131.72 158.468 133.913 157.046 135.383C155.624 136.853 153.551 137.624 150.827 137.624H147.838L147.091 136.877V134.78L147.838 134.033H150.008C152.153 134.033 153.213 132.78 153.213 130.298V115.79C153.213 113.693 153.72 111.958 154.708 110.56C155.166 109.889 155.762 109.322 156.456 108.899C157.15 108.475 157.926 108.203 158.733 108.102V107.644C157.922 107.539 157.143 107.26 156.448 106.828C155.754 106.396 155.161 105.819 154.708 105.138C153.72 103.716 153.213 101.933 153.213 99.812V85.4729C153.213 82.9907 152.153 81.7375 150.008 81.7375H147.838L147.091 80.9905V78.8938L147.838 78.1467H150.827V78.1949Z" fill="#B1FF05"/>
<path d="M150.827 78.318C153.527 78.318 155.576 79.0651 156.974 80.511C158.372 81.957 159.071 84.15 159.071 86.9938V100.827C159.071 102.393 159.408 103.598 160.107 104.418C160.806 105.237 161.794 105.647 163.072 105.647H164.205L164.879 106.321V109.503L164.205 110.177H163.072C161.786 110.177 160.798 110.587 160.107 111.406C159.408 112.226 159.071 113.431 159.071 114.997V128.83C159.071 131.674 158.372 133.843 156.974 135.313C155.576 136.783 153.527 137.506 150.827 137.506H147.887L147.212 136.831V134.831L147.887 134.156H150.008C152.225 134.156 153.334 132.855 153.334 130.3V115.792C153.334 113.744 153.84 112.009 154.804 110.635C155.258 109.979 155.844 109.426 156.525 109.011C157.206 108.596 157.966 108.328 158.757 108.225L158.854 108.201V107.575L158.757 107.55C157.961 107.445 157.197 107.172 156.516 106.748C155.834 106.324 155.25 105.76 154.804 105.092C153.84 103.695 153.334 101.935 153.334 99.8387V85.4996C153.334 82.9451 152.225 81.6437 150.008 81.6437H147.887L147.212 80.9689V78.9687L147.887 78.2939H150.827V78.318ZM150.827 78.1975H147.838L147.091 78.9446V81.0412L147.838 81.7883H150.008C152.153 81.7883 153.213 83.0415 153.213 85.5237V99.8628C153.213 102.008 153.72 103.791 154.708 105.189C155.164 105.867 155.759 106.44 156.453 106.872C157.146 107.304 157.923 107.584 158.733 107.695V108.153C157.926 108.254 157.15 108.526 156.456 108.949C155.762 109.373 155.166 109.94 154.708 110.611C153.72 112.009 153.213 113.744 153.213 115.841V130.348C153.213 132.831 152.153 134.084 150.008 134.084H147.838L147.091 134.831V136.928L147.838 137.675H150.827C153.575 137.675 155.648 136.928 157.046 135.433C158.468 133.939 159.167 131.746 159.167 128.878V115.045C159.167 113.503 159.504 112.322 160.179 111.551C160.854 110.78 161.818 110.346 163.048 110.346H164.253L165 109.599V106.321L164.253 105.574H163.048C161.794 105.574 160.854 105.165 160.179 104.369C159.504 103.574 159.167 102.393 159.167 100.875V87.042C159.167 84.15 158.468 81.9811 157.046 80.4869C155.624 78.9446 153.551 78.1975 150.827 78.1975V78.1975Z" fill="black"/>
<path d="M54.1728 119.116C51.4732 119.116 49.3762 118.369 47.9782 116.899C46.5802 115.428 45.8571 113.235 45.8571 110.368V96.5346C45.8571 94.9923 45.5197 93.7873 44.8448 92.992C44.1699 92.1967 43.1817 91.787 41.9283 91.787H40.7713L40.0482 91.0906V87.8613L40.7713 87.1624H41.9283C43.1817 87.1624 44.1699 86.7527 44.8448 85.9574C45.5197 85.1621 45.8571 83.9572 45.8571 82.4148V68.5818C45.8571 65.7381 46.5561 63.5209 47.9782 62.0509C49.4003 60.5808 51.4491 59.8337 54.1728 59.8337H57.1375L57.8365 60.5326V62.5811L57.1375 63.2799H54.9923C52.823 63.2799 51.7142 64.5572 51.7142 67.0635V81.5713C51.7142 83.6439 51.2081 85.379 50.2439 86.7527C49.7878 87.4134 49.1983 87.9712 48.5132 88.39C47.8282 88.8089 47.063 89.0795 46.2669 89.1843H46.2187V89.7386H46.2669C47.0684 89.8451 47.8379 90.1217 48.5238 90.5498C49.2097 90.9779 49.7962 91.5476 50.2439 92.2208C51.2322 93.6186 51.7142 95.4019 51.7142 97.5227V111.862C51.7142 114.368 52.823 115.645 54.9923 115.645H57.1375L57.8365 116.344V118.393L57.1375 119.092H54.1728V119.116Z" fill="#001F2C"/>
<path d="M54.1728 119.164C51.425 119.164 49.3521 118.417 47.9541 116.923C46.532 115.428 45.833 113.235 45.833 110.368V96.5346C45.833 94.9922 45.4956 93.8355 44.8207 93.0402C44.1458 92.2449 43.1816 91.8352 41.9524 91.8352H40.7472L40 91.0905V87.813L40.7472 87.0659H41.9524C43.2057 87.0659 44.1458 86.6804 44.8207 85.861C45.4956 85.0416 45.833 83.9089 45.833 82.3666V68.5336C45.833 65.6416 46.532 63.4486 47.9541 61.9785C49.3762 60.5085 51.4491 59.7373 54.1728 59.7373H57.1616L57.9088 60.4844V62.581L57.1616 63.3281H54.9923C52.8471 63.3281 51.7865 64.5813 51.7865 67.0635V81.5713C51.7865 83.6679 51.2804 85.4031 50.2921 86.8009C49.8334 87.4719 49.2373 88.0378 48.5434 88.4612C47.8495 88.8845 47.0735 89.1556 46.2669 89.2566V89.7145C47.0781 89.8201 47.8571 90.0985 48.5515 90.5309C49.2459 90.9633 49.8395 91.5395 50.2921 92.2208C51.2804 93.6427 51.7865 95.426 51.7865 97.5467V111.886C51.7865 114.368 52.8471 115.621 54.9923 115.621H57.1616L57.9088 116.368V118.465L57.1616 119.212H54.1728V119.164Z" fill="#001F2C"/>
<path d="M57.1134 59.8554L57.7883 60.5302V62.5304L57.1134 63.2052H54.9923C52.7748 63.2052 51.666 64.5066 51.666 67.0611V81.5689C51.666 83.6173 51.1599 85.3525 50.1957 86.7261C49.7422 87.3821 49.156 87.9355 48.4751 88.3506C47.7942 88.7658 47.0337 89.0333 46.2428 89.1361L46.1464 89.1602V89.8109L46.2428 89.835C47.0388 89.9404 47.8031 90.2144 48.4848 90.6387C49.1665 91.063 49.7498 91.6279 50.1957 92.2955C51.1599 93.6933 51.666 95.4525 51.666 97.5492V111.888C51.666 114.443 52.7748 115.744 54.9923 115.744H57.1134L57.7883 116.419V118.419L57.1134 119.094H54.1728C51.4732 119.094 49.4244 118.347 48.0264 116.901C46.6284 115.455 45.9294 113.262 45.9294 110.418V96.5852C45.9294 95.0187 45.592 93.8138 44.893 92.9944C44.194 92.175 43.2057 91.7653 41.9283 91.7653H40.7954L40.1205 91.0905V87.9094L40.7954 87.2346H41.9283C43.2138 87.2346 44.202 86.825 44.893 86.0056C45.592 85.1862 45.9294 83.9812 45.9294 82.4148V68.5818C45.9294 65.738 46.6284 63.5691 48.0264 62.099C49.4244 60.629 51.4732 59.906 54.1728 59.906H57.1134V59.8554ZM57.1616 59.7373H54.1728C51.425 59.7373 49.3521 60.4844 47.9541 61.9785C46.532 63.4727 45.833 65.6657 45.833 68.5336V82.3666C45.833 83.9089 45.4956 85.0898 44.8207 85.861C44.1458 86.6322 43.1816 87.0659 41.9524 87.0659H40.7472L40 87.8106V91.0905L40.7472 91.8376H41.9524C43.2057 91.8376 44.1458 92.2473 44.8207 93.0426C45.4956 93.8379 45.833 95.0187 45.833 96.537V110.37C45.833 113.262 46.532 115.431 47.9541 116.925C49.3762 118.419 51.4491 119.166 54.1728 119.166H57.1616L57.9088 118.419V116.323L57.1616 115.575H54.9923C52.8471 115.575 51.7865 114.322 51.7865 111.84V97.501C51.7865 95.3561 51.2804 93.5728 50.2921 92.175C49.8359 91.4968 49.2415 90.9227 48.5478 90.4904C47.8541 90.058 47.0768 89.7772 46.2669 89.6663V89.2084C47.0735 89.1074 47.8495 88.8363 48.5434 88.413C49.2373 87.9896 49.8334 87.4237 50.2921 86.7527C51.2804 85.3549 51.7865 83.6197 51.7865 81.5231V67.0153C51.7865 64.5331 52.8471 63.2799 54.9923 63.2799H57.1616L57.9088 62.581V60.4844L57.1616 59.7373V59.7373Z" fill="#001F2C"/>
<path d="M54.1728 115.983C51.4732 115.983 49.3762 115.236 47.9782 113.766C46.5802 112.296 45.8571 110.103 45.8571 107.235V93.4017C45.8571 91.8593 45.5197 90.6543 44.8448 89.8591C44.1699 89.0638 43.1817 88.6541 41.9283 88.6541H40.7713L40.0482 87.9576V84.7283L40.7713 84.0294H41.9283C43.1817 84.0294 44.1699 83.6197 44.8448 82.8245C45.5197 82.0292 45.8571 80.8242 45.8571 79.2819V65.4006C45.8571 62.5569 46.5561 60.3398 47.9782 58.8697C49.4003 57.3997 51.4491 56.6526 54.1728 56.6526H57.1375L57.8365 57.3515V59.3999L57.1375 60.0988H54.9923C52.823 60.0988 51.7142 61.3761 51.7142 63.8824V78.3902C51.7142 80.4627 51.2081 82.1979 50.2439 83.5716C49.7878 84.2323 49.1983 84.7901 48.5132 85.2089C47.8282 85.6277 47.063 85.8983 46.2669 86.0032H46.2187V86.5575H46.2669C47.0684 86.664 47.8379 86.9406 48.5238 87.3687C49.2097 87.7968 49.7962 88.3665 50.2439 89.0397C51.2322 90.4375 51.7142 92.2208 51.7142 94.3415V108.683C51.7142 111.189 52.823 112.467 54.9923 112.467H57.1375L57.8365 113.166V115.214L57.1375 115.913H54.1728V115.983Z" fill="white"/>
<path d="M54.1728 116.031C51.425 116.031 49.3521 115.284 47.9541 113.79C46.532 112.296 45.833 110.103 45.833 107.235V93.4018C45.833 91.8594 45.4956 90.7026 44.8207 89.9074C44.1458 89.1121 43.1816 88.7024 41.9524 88.7024H40.7472L40 87.9577V84.6802L40.7472 83.9331H41.9524C43.2057 83.9331 44.1458 83.5475 44.8207 82.7282C45.4956 81.9088 45.833 80.7761 45.833 79.2338V65.4007C45.833 62.5088 46.532 60.3158 47.9541 58.8457C49.3762 57.3757 51.4491 56.6045 54.1728 56.6045H57.1616L57.9088 57.3516V59.4482L57.1616 60.1953H54.9923C52.8471 60.1953 51.7865 61.4485 51.7865 63.9307V78.4385C51.7865 80.5351 51.2804 82.2703 50.2921 83.668C49.8334 84.3391 49.2373 84.905 48.5434 85.3283C47.8495 85.7517 47.0735 86.0228 46.2669 86.1238V86.5816C47.0781 86.6873 47.8571 86.9657 48.5515 87.3981C49.2459 87.8305 49.8395 88.4067 50.2921 89.088C51.2804 90.5098 51.7865 92.2932 51.7865 94.4139V108.753C51.7865 111.235 52.8471 112.488 54.9923 112.488H57.1616L57.9088 113.236V115.332L57.1616 116.079H54.1728V116.031Z" fill="#B1FF05"/>
<path d="M57.1134 56.7226L57.7883 57.3974V59.3976L57.1134 60.0724H54.9923C52.7748 60.0724 51.666 61.3737 51.666 63.9283V78.4361C51.666 80.4845 51.1599 82.2197 50.1957 83.5933C49.7422 84.2493 49.156 84.8027 48.4751 85.2178C47.7942 85.6329 47.0337 85.9005 46.2428 86.0033L46.1464 86.0274V86.678L46.2428 86.7021C47.0388 86.8076 47.8031 87.0816 48.4848 87.5059C49.1665 87.9302 49.7498 88.4951 50.1957 89.1627C51.1599 90.5605 51.666 92.3197 51.666 94.4163V108.755C51.666 111.31 52.7748 112.611 54.9923 112.611H57.1134L57.7883 113.286V115.286L57.1134 115.961H54.1728C51.4732 115.961 49.4244 115.214 48.0264 113.768C46.6284 112.322 45.9294 110.129 45.9294 107.285V93.4524C45.9294 91.8859 45.592 90.6809 44.893 89.8616C44.194 89.0422 43.2057 88.6325 41.9283 88.6325H40.7954L40.1205 87.9577V84.7766L40.7954 84.1018H41.9283C43.2138 84.1018 44.202 83.6921 44.893 82.8728C45.592 82.0534 45.9294 80.8484 45.9294 79.282V65.4489C45.9294 62.6052 46.6284 60.4363 48.0264 58.9662C49.4244 57.4962 51.4732 56.7732 54.1728 56.7732H57.1134V56.7226ZM57.1616 56.6045H54.1728C51.425 56.6045 49.3521 57.3516 47.9541 58.8457C46.532 60.3399 45.833 62.5329 45.833 65.4007V79.2338C45.833 80.7761 45.4956 81.957 44.8207 82.7282C44.1458 83.4993 43.1816 83.9331 41.9524 83.9331H40.7472L40 84.6778V87.9577L40.7472 88.7048H41.9524C43.2057 88.7048 44.1458 89.1145 44.8207 89.9098C45.4956 90.705 45.833 91.8859 45.833 93.4042V107.237C45.833 110.129 46.532 112.298 47.9541 113.792C49.3762 115.286 51.4491 116.033 54.1728 116.033H57.1616L57.9088 115.286V113.19L57.1616 112.443H54.9923C52.8471 112.443 51.7865 111.189 51.7865 108.707V94.3681C51.7865 92.2233 51.2804 90.44 50.2921 89.0422C49.8359 88.364 49.2415 87.7899 48.5478 87.3575C47.8541 86.9252 47.0768 86.6443 46.2669 86.5334V86.0756C47.0735 85.9746 47.8495 85.7035 48.5434 85.2801C49.2373 84.8568 49.8334 84.2909 50.2921 83.6198C51.2804 82.2221 51.7865 80.4869 51.7865 78.3903V63.9042C51.7865 61.4219 52.8471 60.1688 54.9923 60.1688H57.1616L57.9088 59.4458V57.3516L57.1616 56.6045V56.6045Z" fill="black"/>
<path d="M71.8164 60.9165H69.2614L67.8875 58.3853L70.3943 58.313L71.8164 60.9165Z" fill="#00222F" stroke="#001E2B" stroke-width="0.5" stroke-linejoin="round"/>
<path d="M71.8164 60.916L73.2144 58.7712L71.8406 56.2407L70.3943 58.3133L71.8164 60.916Z" fill="white" stroke="#001E2B" stroke-width="0.5" stroke-linejoin="round"/>
<path d="M69.3337 56.3613L67.8875 58.3862L70.3943 58.3139L71.8405 56.2407L69.3337 56.3613Z" fill="white" stroke="#001E2B" stroke-width="0.5" stroke-linejoin="round"/>
<path d="M62.4643 87.2322H63.3567" stroke="#001E2B" stroke-width="0.5" stroke-miterlimit="10"/>
<path d="M52.9917 87.2322H54.7994" stroke="#001E2B" stroke-width="0.5" stroke-miterlimit="10"/>
<path d="M55.5948 87.2322H61.5002" stroke="#001E2B" stroke-width="0.5" stroke-miterlimit="10"/>
<path d="M135.208 72.821H69.7917C68.7248 72.8191 67.702 72.3945 66.9476 71.6401C66.1931 70.8858 65.7684 69.8632 65.7665 68.7964V67.6396H139.209V68.7964C139.211 69.3234 139.109 69.8457 138.909 70.3332C138.709 70.8208 138.415 71.2642 138.043 71.6379C137.672 72.0117 137.23 72.3086 136.743 72.5116C136.257 72.7146 135.735 72.8197 135.208 72.821V72.821Z" fill="#001E2B" stroke="#001E2B" stroke-width="0.5" stroke-miterlimit="10"/>
<path d="M135.739 71.1098H69.2615C68.3423 71.1054 67.462 70.7383 66.8121 70.0885C66.1621 69.4386 65.795 68.5585 65.7906 67.6395V67.6395C65.795 66.7205 66.1621 65.8404 66.8121 65.1905C67.462 64.5407 68.3423 64.1736 69.2615 64.1692H135.739C136.658 64.1736 137.538 64.5407 138.188 65.1905C138.838 65.8404 139.205 66.7205 139.209 67.6395V67.6395C139.209 68.5599 138.844 69.4426 138.193 70.0934C137.542 70.7442 136.659 71.1098 135.739 71.1098Z" fill="#A6FFEC" stroke="#231F20" stroke-width="0.5" stroke-miterlimit="10"/>
<path d="M135.208 85.0393H69.7917C68.7248 85.0374 67.702 84.6127 66.9476 83.8584C66.1931 83.104 65.7684 82.0815 65.7665 81.0147V79.8579H139.209V81.0147C139.211 81.5417 139.109 82.0639 138.909 82.5515C138.709 83.0391 138.415 83.4824 138.043 83.8562C137.672 84.23 137.23 84.5269 136.743 84.7299C136.257 84.9329 135.735 85.038 135.208 85.0393V85.0393Z" fill="#001E2B" stroke="#001E2B" stroke-width="0.5" stroke-miterlimit="10"/>
<path d="M135.739 83.3525H69.2615C68.3423 83.348 67.462 82.981 66.8121 82.3311C66.1621 81.6813 65.795 80.8012 65.7906 79.8822V79.8822C65.795 78.9632 66.1621 78.083 66.8121 77.4332C67.462 76.7833 68.3423 76.4163 69.2615 76.4119H135.739C136.658 76.4163 137.538 76.7833 138.188 77.4332C138.838 78.083 139.205 78.9632 139.209 79.8822V79.8822C139.209 80.8026 138.844 81.6852 138.193 82.336C137.542 82.9869 136.659 83.3525 135.739 83.3525Z" fill="#00D2FF" stroke="#231F20" stroke-width="0.5" stroke-miterlimit="10"/>
<path d="M100.331 97.2815H69.7917C68.7252 97.2796 67.7028 96.8553 66.9484 96.1015C66.194 95.3476 65.769 94.3257 65.7665 93.2593V92.1025H104.332V93.2593C104.331 94.3219 103.909 95.341 103.16 96.0944C102.41 96.8478 101.393 97.2745 100.331 97.2815V97.2815Z" fill="#001E2B" stroke="#001E2B" stroke-width="0.5" stroke-miterlimit="10"/>
<path d="M100.861 95.5947H69.2615C68.3423 95.5902 67.462 95.2232 66.8121 94.5733C66.1621 93.9235 65.795 93.0434 65.7906 92.1244V92.1244C65.795 91.2053 66.1621 90.3252 66.8121 89.6754C67.462 89.0255 68.3423 88.6585 69.2615 88.6541H100.861C101.78 88.6585 102.66 89.0255 103.31 89.6754C103.96 90.3252 104.327 91.2053 104.332 92.1244V92.1244C104.327 93.0434 103.96 93.9235 103.31 94.5733C102.66 95.2232 101.78 95.5902 100.861 95.5947V95.5947Z" fill="#A6FFEC" stroke="#231F20" stroke-width="0.5" stroke-miterlimit="10"/>
<path d="M135.208 97.2815H110.044C108.978 97.2796 107.955 96.8553 107.201 96.1015C106.447 95.3476 106.022 94.3257 106.019 93.2593V92.1025H139.209V93.2593C139.211 93.7861 139.109 94.3081 138.908 94.7954C138.708 95.2827 138.414 95.7258 138.042 96.0993C137.671 96.4728 137.229 96.7695 136.743 96.9723C136.257 97.1752 135.735 97.2802 135.208 97.2815V97.2815Z" fill="#001E2B" stroke="#001E2B" stroke-width="0.5" stroke-miterlimit="10"/>
<path d="M135.738 95.5947H109.49C108.571 95.5902 107.691 95.2232 107.041 94.5733C106.391 93.9235 106.023 93.0434 106.019 92.1244V92.1244C106.023 91.2053 106.391 90.3252 107.041 89.6754C107.691 89.0255 108.571 88.6585 109.49 88.6541H135.738C136.658 88.6585 137.538 89.0255 138.188 89.6754C138.838 90.3252 139.205 91.2053 139.209 92.1244V92.1244C139.209 92.5801 139.12 93.0313 138.945 93.4524C138.771 93.8734 138.515 94.256 138.193 94.5782C137.87 94.9005 137.488 95.1561 137.067 95.3305C136.646 95.5049 136.194 95.5947 135.738 95.5947V95.5947Z" fill="#A6FFEC" stroke="#231F20" stroke-width="0.5" stroke-miterlimit="10"/>
<path d="M104.669 121.743H135.208C136.275 121.741 137.298 121.316 138.052 120.562C138.807 119.807 139.232 118.785 139.233 117.718V116.561H100.668V117.718C100.669 118.781 101.09 119.801 101.839 120.555C102.589 121.309 103.606 121.736 104.669 121.743V121.743Z" fill="#001E2B" stroke="#001E2B" stroke-width="0.5" stroke-miterlimit="10"/>
<path d="M104.139 120.056H135.738C136.658 120.051 137.538 119.684 138.188 119.034C138.838 118.384 139.205 117.504 139.209 116.585V116.585C139.205 115.666 138.838 114.786 138.188 114.136C137.538 113.486 136.658 113.119 135.738 113.115H104.139C103.22 113.119 102.34 113.486 101.69 114.136C101.04 114.786 100.673 115.666 100.668 116.585V116.585C100.673 117.504 101.04 118.384 101.69 119.034C102.34 119.684 103.22 120.051 104.139 120.056V120.056Z" fill="#A6FFEC" stroke="#231F20" stroke-width="0.5" stroke-miterlimit="10"/>
<path d="M69.7918 121.743H94.9557C96.0226 121.741 97.0454 121.316 97.7998 120.562C98.5543 119.807 98.979 118.785 98.9809 117.718V116.561H65.7906V117.718C65.7887 118.245 65.8907 118.767 66.0908 119.255C66.2909 119.742 66.5852 120.186 66.9568 120.56C67.3284 120.933 67.7701 121.23 68.2565 121.433C68.743 121.636 69.2647 121.741 69.7918 121.743V121.743Z" fill="#001E2B" stroke="#001E2B" stroke-width="0.5" stroke-miterlimit="10"/>
<path d="M69.2615 120.056H95.51C96.4292 120.051 97.3094 119.684 97.9594 119.034C98.6094 118.384 98.9765 117.504 98.9809 116.585V116.585C98.9765 115.666 98.6094 114.786 97.9594 114.136C97.3094 113.486 96.4292 113.119 95.51 113.115H69.2615C68.3423 113.119 67.462 113.486 66.8121 114.136C66.1621 114.786 65.795 115.666 65.7906 116.585V116.585C65.7906 117.506 66.1563 118.388 66.8072 119.039C67.4581 119.69 68.3409 120.056 69.2615 120.056V120.056Z" fill="#A6FFEC" stroke="#231F20" stroke-width="0.5" stroke-miterlimit="10"/>
<path d="M135.208 109.5H69.7917C68.7248 109.498 67.702 109.073 66.9476 108.319C66.1931 107.565 65.7684 106.542 65.7665 105.475V104.319H139.209V105.475C139.213 106.003 139.112 106.526 138.913 107.014C138.714 107.503 138.419 107.947 138.047 108.321C137.675 108.695 137.233 108.992 136.746 109.194C136.258 109.397 135.736 109.501 135.208 109.5V109.5Z" fill="#001E2B" stroke="#001E2B" stroke-width="0.5" stroke-miterlimit="10"/>
<path d="M135.739 107.813H69.2615C68.3427 107.809 67.4628 107.442 66.8129 106.793C66.163 106.143 65.7957 105.264 65.7906 104.345V104.345C65.795 103.426 66.1621 102.546 66.8121 101.896C67.462 101.246 68.3423 100.879 69.2615 100.875H135.739C136.658 100.879 137.538 101.246 138.188 101.896C138.838 102.546 139.205 103.426 139.209 104.345V104.345C139.209 105.265 138.843 106.147 138.192 106.798C137.541 107.448 136.659 107.813 135.739 107.813V107.813Z" fill="#00D2FF" stroke="#231F20" stroke-width="0.5" stroke-miterlimit="10"/>
<path d="M122.072 133.987H69.7917C68.7248 133.985 67.702 133.561 66.9476 132.806C66.1931 132.052 65.7684 131.029 65.7665 129.963V128.806H126.073V129.963C126.072 131.026 125.651 132.045 124.902 132.799C124.152 133.553 123.135 133.98 122.072 133.987V133.987Z" fill="#001E2B" stroke="#001E2B" stroke-width="0.5" stroke-miterlimit="10"/>
<path d="M122.602 132.3H69.2615C68.3423 132.296 67.462 131.929 66.8121 131.279C66.1621 130.629 65.795 129.749 65.7906 128.83V128.83C65.795 127.911 66.1621 127.031 66.8121 126.381C67.462 125.731 68.3423 125.364 69.2615 125.36H122.602C123.521 125.364 124.402 125.731 125.052 126.381C125.702 127.031 126.069 127.911 126.073 128.83V128.83C126.069 129.749 125.702 130.629 125.052 131.279C124.402 131.929 123.521 132.296 122.602 132.3V132.3Z" fill="#00D2FF" stroke="#231F20" stroke-width="0.5" stroke-miterlimit="10"/>
<path d="M131.4 121.525C133.333 123.459 134.419 126.081 134.419 128.815C134.419 131.55 133.333 134.172 131.4 136.105" stroke="#001E2B" stroke-width="0.5" stroke-miterlimit="10" stroke-dasharray="2 2"/>
<path d="M128.869 134.804L130.122 136.973L131.376 139.118H128.869H126.386L127.64 136.973L128.869 134.804Z" fill="white" stroke="#001E2B" stroke-width="0.5" stroke-miterlimit="10"/>
<path d="M128.869 137.6L126.386 139.118H131.376L128.869 137.6Z" fill="#001E2B"/>
<path d="M128.869 137.601V134.804" stroke="#001E2B" stroke-width="0.5" stroke-miterlimit="10"/>
<path d="M91.8222 71.1098H122.699L120.963 64.1692H90.0867L91.8222 71.1098Z" fill="#001E2B" stroke="#001E2B" stroke-miterlimit="10"/>
<path d="M93.1479 76.4119L94.3772 81.4004C94.3929 81.4638 94.4211 81.5233 94.4599 81.5758C94.4987 81.6282 94.5475 81.6725 94.6035 81.7061C94.6595 81.7397 94.7215 81.7619 94.7861 81.7715C94.8506 81.781 94.9164 81.7778 94.9797 81.7619L116.432 76.4119H93.1479Z" fill="#001E2B" stroke="#001E2B" stroke-miterlimit="10"/>
<path d="M70.081 125.454C74.5804 125.454 78.2279 121.807 78.2279 117.308C78.2279 112.81 74.5804 109.163 70.081 109.163C65.5816 109.163 61.9341 112.81 61.9341 117.308C61.9341 121.807 65.5816 125.454 70.081 125.454Z" fill="white"/>
<path d="M70.081 125.454C74.5804 125.454 78.2279 121.807 78.2279 117.308C78.2279 112.81 74.5804 109.163 70.081 109.163C65.5816 109.163 61.9341 112.81 61.9341 117.308C61.9341 121.807 65.5816 125.454 70.081 125.454Z" stroke="#00222F" stroke-miterlimit="10"/>
<path d="M65.429 118.128V116.176H78.1556C78.4553 118.208 77.9635 120.278 76.7817 121.959C76.4767 122.387 76.1382 122.79 75.7694 123.164H70.4666C69.1325 123.158 67.8549 122.625 66.9115 121.682C65.9681 120.739 65.4354 119.461 65.429 118.128V118.128Z" fill="#001E2B"/>
<path d="M65.429 118.128V116.176H78.1556C78.4553 118.208 77.9635 120.278 76.7817 121.959C76.4767 122.387 76.1382 122.79 75.7694 123.164H70.4666C69.1325 123.158 67.8549 122.625 66.9115 121.682C65.9681 120.739 65.4354 119.461 65.429 118.128V118.128Z" stroke="#001E2B" stroke-miterlimit="10"/>
<path d="M65.429 116.175C65.4347 114.931 65.9317 113.739 66.812 112.859C67.6922 111.979 68.8844 111.482 70.1292 111.476H75.7453C76.9697 112.673 77.7886 114.223 78.0869 115.908C78.3852 117.594 78.1479 119.331 77.4084 120.875H70.1292C68.8844 120.869 67.6922 120.372 66.812 119.492C65.9317 118.612 65.4347 117.42 65.429 116.175V116.175Z" fill="#A6FFEC"/>
<path d="M65.429 116.175C65.4347 114.931 65.9317 113.739 66.812 112.859C67.6922 111.979 68.8844 111.482 70.1292 111.476H75.7453C76.9697 112.673 77.7886 114.223 78.0869 115.908C78.3852 117.594 78.1479 119.331 77.4084 120.875H70.1292C68.8844 120.869 67.6922 120.372 66.812 119.492C65.9317 118.612 65.4347 117.42 65.429 116.175V116.175Z" stroke="#231F20" stroke-miterlimit="10"/>
<path d="M51.4732 142.709C51.4732 142.709 51.1839 143.143 52.2686 143.89C53.3532 144.637 53.6666 144.179 53.6666 144.179L65.2603 126.876C65.2603 126.876 65.4049 126.394 64.4408 125.743C63.4766 125.093 63.0669 125.43 63.0669 125.43L51.4732 142.709Z" fill="#00C954" stroke="#00222F" stroke-width="0.5" stroke-miterlimit="10"/>
<path d="M62.7294 125.647C62.7294 125.647 62.6089 126.177 63.6454 126.9C64.6818 127.623 65.1398 127.31 65.1398 127.31L66.4655 125.406C66.0082 125.225 65.5782 124.982 65.188 124.683C64.7715 124.42 64.3907 124.104 64.0551 123.743L62.7294 125.647Z" fill="#00C954" stroke="#00222F" stroke-width="0.5" stroke-miterlimit="10"/>
<path d="M75.2632 110.802C76.7459 111.826 77.8914 113.268 78.5548 114.944C79.2183 116.619 79.3698 118.454 78.9902 120.216C78.6107 121.978 77.7171 123.587 76.4226 124.841C75.128 126.095 73.4906 126.938 71.7173 127.261C69.9441 127.585 68.1147 127.375 66.4606 126.659C64.8064 125.943 63.4017 124.753 62.4242 123.239C61.4466 121.725 60.9401 119.955 60.9687 118.153C60.9973 116.351 61.5597 114.598 62.5848 113.115C63.961 111.13 66.0687 109.771 68.4455 109.337C70.8224 108.904 73.2742 109.43 75.2632 110.802V110.802ZM63.3802 113.645C62.4622 114.973 61.9585 116.543 61.9329 118.157C61.9073 119.771 62.361 121.356 63.2365 122.712C64.112 124.068 65.37 125.134 66.8515 125.775C68.3329 126.416 69.9712 126.603 71.5592 126.313C73.1473 126.024 74.6136 125.269 75.7729 124.146C76.9321 123.023 77.7322 121.581 78.0719 120.003C78.4116 118.425 78.2757 116.782 77.6814 115.282C77.087 113.781 76.061 112.49 74.7329 111.573C72.9523 110.343 70.7563 109.871 68.6275 110.26C66.4988 110.648 64.6114 111.866 63.3802 113.645Z" fill="#001F2C"/>
<path d="M75.2632 110.802C76.7459 111.826 77.8914 113.268 78.5548 114.944C79.2183 116.619 79.3698 118.454 78.9902 120.216C78.6107 121.978 77.7171 123.587 76.4226 124.841C75.128 126.095 73.4906 126.938 71.7173 127.261C69.9441 127.585 68.1147 127.375 66.4606 126.659C64.8064 125.943 63.4017 124.753 62.4242 123.239C61.4466 121.725 60.9401 119.955 60.9687 118.153C60.9973 116.351 61.5597 114.598 62.5848 113.115C63.961 111.13 66.0687 109.771 68.4455 109.337C70.8224 108.904 73.2742 109.43 75.2632 110.802V110.802ZM63.3802 113.645C62.4622 114.973 61.9585 116.543 61.9329 118.157C61.9073 119.771 62.361 121.356 63.2365 122.712C64.112 124.068 65.37 125.134 66.8515 125.775C68.3329 126.416 69.9712 126.603 71.5592 126.313C73.1473 126.024 74.6136 125.269 75.7729 124.146C76.9321 123.023 77.7322 121.581 78.0719 120.003C78.4116 118.425 78.2757 116.782 77.6814 115.282C77.087 113.781 76.061 112.49 74.7329 111.573C72.9523 110.343 70.7563 109.871 68.6275 110.26C66.4988 110.648 64.6114 111.866 63.3802 113.645Z" stroke="#001F2C" stroke-width="0.5" stroke-miterlimit="10"/>
<path d="M75.2632 109.837C76.7459 110.862 77.8914 112.304 78.5548 113.979C79.2183 115.655 79.3698 117.49 78.9902 119.251C78.6107 121.013 77.7171 122.623 76.4226 123.877C75.128 125.131 73.4906 125.973 71.7173 126.297C69.9441 126.62 68.1147 126.411 66.4606 125.695C64.8064 124.979 63.4017 123.789 62.4242 122.274C61.4466 120.76 60.9401 118.99 60.9687 117.188C60.9973 115.386 61.5597 113.633 62.5848 112.151C63.961 110.165 66.0687 108.807 68.4455 108.373C70.8224 107.939 73.2742 108.466 75.2632 109.837V109.837ZM63.3802 112.681C62.4622 114.009 61.9585 115.579 61.9329 117.192C61.9073 118.806 62.361 120.391 63.2365 121.747C64.112 123.103 65.37 124.169 66.8515 124.81C68.3329 125.452 69.9712 125.639 71.5592 125.349C73.1473 125.059 74.6136 124.305 75.7729 123.182C76.9321 122.059 77.7322 120.617 78.0719 119.039C78.4116 117.461 78.2757 115.818 77.6814 114.317C77.087 112.817 76.061 111.526 74.7329 110.609C72.9523 109.379 70.7563 108.907 68.6275 109.295C66.4988 109.684 64.6114 110.902 63.3802 112.681V112.681Z" fill="#00C954"/>
<path d="M75.2632 109.837C76.7459 110.862 77.8914 112.304 78.5548 113.979C79.2183 115.655 79.3698 117.49 78.9902 119.251C78.6107 121.013 77.7171 122.623 76.4226 123.877C75.128 125.131 73.4906 125.973 71.7173 126.297C69.9441 126.62 68.1147 126.411 66.4606 125.695C64.8064 124.979 63.4017 123.789 62.4242 122.274C61.4466 120.76 60.9401 118.99 60.9687 117.188C60.9973 115.386 61.5597 113.633 62.5848 112.151C63.961 110.165 66.0687 108.807 68.4455 108.373C70.8224 107.939 73.2742 108.466 75.2632 109.837V109.837ZM63.3802 112.681C62.4622 114.009 61.9585 115.579 61.9329 117.192C61.9073 118.806 62.361 120.391 63.2365 121.747C64.112 123.103 65.37 124.169 66.8515 124.81C68.3329 125.452 69.9712 125.639 71.5592 125.349C73.1473 125.059 74.6136 124.305 75.7729 123.182C76.9321 122.059 77.7322 120.617 78.0719 119.039C78.4116 117.461 78.2757 115.818 77.6814 114.317C77.087 112.817 76.061 111.526 74.7329 110.609C72.9523 109.379 70.7563 108.907 68.6275 109.295C66.4988 109.684 64.6114 110.902 63.3802 112.681V112.681Z" stroke="#00222F" stroke-width="0.5" stroke-miterlimit="10"/>
<path d="M65.3567 125.14L63.9828 127.141C63.9828 127.141 64.7301 127.551 65.1398 127.31L66.2968 125.647L65.3567 125.14Z" fill="#001F2C"/>
<path d="M63.6694 126.924L52.389 143.938C52.389 143.938 53.305 144.613 53.7629 144.227L64.9469 127.358C64.9228 127.358 64.4166 127.43 63.6694 126.924Z" fill="#001F2C"/>
<path d="M69.5507 67.6396H122.916" stroke="#001E2B" stroke-width="0.5" stroke-miterlimit="10" stroke-dasharray="2 2"/>
<path d="M69.5507 79.8818H122.916" stroke="#001E2B" stroke-width="0.5" stroke-miterlimit="10" stroke-dasharray="2 2"/>
<path d="M69.5507 104.343H135.449" stroke="#001E2B" stroke-width="0.5" stroke-miterlimit="10" stroke-dasharray="2 2"/>
<path d="M95.6787 116.585H79.192" stroke="#001E2B" stroke-miterlimit="10" stroke-dasharray="2 2"/>
<path d="M78.1556 116.176H69.5507" stroke="#001E2B" stroke-miterlimit="10" stroke-dasharray="2 2"/>
<path d="M135.449 116.585H104.332" stroke="#001E2B" stroke-miterlimit="10" stroke-dasharray="2 2"/>
<path d="M109.321 92.2449H135.112" stroke="#001E2B" stroke-width="0.5" stroke-miterlimit="10" stroke-dasharray="2 2"/>
<path d="M69.5507 92.2449H100.668" stroke="#001E2B" stroke-width="0.5" stroke-miterlimit="10" stroke-dasharray="2 2"/>
<path d="M122.048 128.803H69.5507" stroke="#001E2B" stroke-width="0.5" stroke-miterlimit="10" stroke-dasharray="2 2"/>
<path d="M141.957 76.5081L107.803 85.0152C107.724 85.0345 107.641 85.038 107.561 85.0255C107.48 85.0129 107.403 84.9845 107.334 84.9419C107.264 84.8994 107.204 84.8434 107.156 84.7774C107.108 84.7114 107.074 84.6366 107.055 84.5573L100.258 57.4215C100.239 57.3423 100.235 57.2601 100.248 57.1797C100.261 57.0992 100.289 57.022 100.332 56.9525C100.374 56.8831 100.43 56.8227 100.496 56.775C100.562 56.7272 100.637 56.6931 100.716 56.6744L134.871 48.1673C134.95 48.148 135.032 48.1445 135.113 48.1571C135.193 48.1696 135.27 48.198 135.34 48.2406C135.409 48.2832 135.47 48.3391 135.517 48.4051C135.565 48.4711 135.599 48.5459 135.618 48.6252L142.391 75.7852C142.411 75.8611 142.416 75.9404 142.405 76.0182C142.394 76.096 142.367 76.1709 142.327 76.2383C142.286 76.3057 142.233 76.3643 142.169 76.4106C142.106 76.457 142.034 76.4901 141.957 76.5081V76.5081Z" fill="#001E2B" stroke="#001E2B" stroke-width="0.5" stroke-miterlimit="10"/>
<path d="M141.379 74.2428L107.224 82.7498C107.145 82.7692 107.063 82.7727 106.982 82.7601C106.902 82.7475 106.825 82.7191 106.755 82.6765C106.686 82.634 106.625 82.5781 106.578 82.5121C106.53 82.446 106.496 82.3712 106.477 82.2919L99.704 55.1561C99.6846 55.0769 99.6812 54.9948 99.6937 54.9143C99.7063 54.8338 99.7347 54.7566 99.7773 54.6871C99.8199 54.6177 99.8758 54.5573 99.9418 54.5096C100.008 54.4619 100.083 54.4277 100.162 54.409L134.316 45.9019C134.396 45.8826 134.478 45.8791 134.558 45.8917C134.639 45.9043 134.716 45.9326 134.785 45.9752C134.855 46.0178 134.915 46.0737 134.963 46.1397C135.011 46.2057 135.045 46.2805 135.064 46.3598L141.837 73.5198C141.869 73.6762 141.84 73.8391 141.754 73.9741C141.669 74.109 141.534 74.2054 141.379 74.2428V74.2428Z" fill="white" stroke="#001E2B" stroke-width="0.5" stroke-miterlimit="10"/>
<path d="M133.246 48.8776L102.467 56.5447L107.613 77.1932L138.392 69.5261L133.246 48.8776Z" fill="#00D2FF" stroke="#001E2B" stroke-width="0.5" stroke-miterlimit="10"/>
<path d="M115.275 59.0603L121.59 65.6153L127.929 72.1462L119.083 74.3634L110.237 76.5564L112.768 67.8084L115.275 59.0603Z" stroke="#001E2B" stroke-width="0.5" stroke-miterlimit="10"/>
<path d="M118.529 66.025L119.734 63.6874L115.275 59.0603L113.226 66.1937L115.227 67.7361L116.697 64.6032L118.529 66.025Z" fill="white" stroke="#001E2B" stroke-width="0.5" stroke-miterlimit="10"/>
<path d="M128.869 54.6018L123.856 62.9402C124.404 63.2857 125.015 63.5183 125.654 63.6244C126.293 63.7306 126.947 63.7081 127.577 63.5582C128.207 63.4084 128.801 63.1342 129.324 62.7519C129.847 62.3695 130.289 61.8866 130.622 61.3315C130.956 60.7763 131.176 60.1602 131.268 59.5191C131.361 58.878 131.324 58.2249 131.161 57.5981C130.997 56.9713 130.711 56.3834 130.317 55.8689C129.924 55.3544 129.431 54.9236 128.869 54.6018V54.6018Z" fill="#A6FFEC" stroke="#001E2B" stroke-width="0.5" stroke-miterlimit="10"/>
<path d="M122.192 56.2646C121.528 57.3704 121.33 58.6948 121.642 59.9466C121.954 61.1984 122.75 62.2752 123.856 62.9401L128.869 54.6017C127.762 53.9412 126.439 53.7453 125.188 54.0568C123.937 54.3684 122.86 55.162 122.192 56.2646V56.2646Z" fill="white" stroke="#001E2B" stroke-width="0.5" stroke-miterlimit="10"/>
</svg>
