<svg width="32" height="32" viewBox="0 0 32 32" fill="none" xmlns="http://www.w3.org/2000/svg">
<path d="M25.7778 7.55512H1.77778V4.74623C1.77778 4.31957 2.11528 3.99957 2.56528 3.99957H24.9903C25.4403 3.99957 25.7778 4.31957 25.7778 4.74623V7.55512Z" fill="#00ED64"/>
<path d="M29.4162 25.8044C27.1876 25.9375 25.0927 26.7357 23.3989 27.933C23.2652 28.0217 23.0424 28.0217 22.9087 27.933C21.1258 26.7357 19.0755 25.9818 16.8469 25.8044C16.4011 25.7601 16 25.4053 16 24.9175V17.3343C16 16.8021 16.4457 16.403 16.936 16.4474C19.12 16.6248 21.1704 17.3786 22.8641 18.576C22.9978 18.6647 23.2207 18.6647 23.3544 18.576C25.0481 17.3786 27.0984 16.6248 29.2824 16.4474C29.8173 16.403 30.2185 16.8021 30.2185 17.3343V24.9175C30.263 25.4053 29.9065 25.8044 29.4162 25.8044Z" fill="#00ED64"/>
<path d="M6.94857 10.8177L10.3955 14.5171C10.4237 14.5495 10.4445 14.6027 10.4445 14.6662C10.4445 14.7298 10.4237 14.783 10.3955 14.8154L6.94857 18.5148L7.27374 18.8177L10.7227 15.1163L10.7258 15.1128C10.8392 14.9858 10.8889 14.8207 10.8889 14.6662C10.8889 14.5118 10.8392 14.3466 10.7258 14.2197L7.27374 10.5148L6.94857 10.8177Z" fill="#001E2B"/>
<path fill-rule="evenodd" clip-rule="evenodd" d="M2.52886 23.3329H15.7778V24.9175C15.7778 25.5397 16.2868 25.9721 16.8249 26.0256L16.8292 26.0259C19.018 26.2002 21.032 26.9404 22.7848 28.1175L22.7858 28.1182C22.8973 28.1921 23.0319 28.2218 23.1538 28.2218C23.2757 28.2218 23.4104 28.1921 23.5218 28.1182L23.5245 28.1164L23.5272 28.1145C25.1878 26.9406 27.2409 26.1581 29.4232 26.0266C30.0398 26.0228 30.4905 25.5161 30.4407 24.9079V17.3343C30.4407 16.682 29.9381 16.1702 29.2645 16.2259C28.1302 16.318 27.0311 16.5629 25.9971 16.9427V7.59084C25.999 7.57921 26 7.56728 26 7.55512V4.74623C26 4.43999 25.8661 4.17911 25.6531 4.00547C25.4825 3.86302 25.2622 3.77734 25.0238 3.77734H2.52886C1.99758 3.77734 1.55556 4.20311 1.55556 4.73461V22.3756C1.55556 22.9071 1.99758 23.3329 2.52886 23.3329ZM2.56528 4.22179C2.22671 4.22179 2 4.4533 2 4.74623V7.3329H25.5527V4.73461C25.5527 4.57987 25.4797 4.43802 25.3639 4.34292C25.2679 4.26707 25.14 4.22179 24.9903 4.22179H2.56528ZM25.5527 7.77734H2V22.3756C2 22.6527 2.23395 22.8885 2.52886 22.8885H15.7778V17.9996H12.4445V17.5551H15.7778V17.3343C15.7778 16.6759 16.331 16.1701 16.955 16.226C19.1764 16.4066 21.2632 17.1731 22.9889 18.3921C23.0117 18.4064 23.0544 18.4203 23.1092 18.4203C23.164 18.4203 23.2068 18.4064 23.2296 18.3921C23.947 17.8853 24.7268 17.4568 25.5527 17.116V7.77734ZM29.9962 17.3343C29.9962 16.9224 29.6967 16.636 29.3008 16.6688C27.156 16.843 25.1435 17.5834 23.4827 18.7574L23.48 18.7594L23.4772 18.7612C23.4322 18.791 23.3835 18.8136 23.3333 18.83V27.7076C25.0475 26.5124 27.1577 25.7166 29.4029 25.5826L29.4095 25.5822H29.4162C29.7729 25.5822 30.0301 25.2982 29.9972 24.9377L29.9962 24.9276V17.3343ZM22.8889 27.6534V18.8312C22.8374 18.8147 22.7873 18.7917 22.7413 18.7612L22.7385 18.7594L22.7358 18.7574C21.075 17.5834 19.0628 16.8431 16.918 16.6689L16.916 16.6687C16.5598 16.6365 16.2222 16.9287 16.2222 17.3343V24.9175C16.2222 25.2702 16.5143 25.5471 16.8668 25.5831C19.0747 25.7592 21.1103 26.4914 22.8889 27.6534ZM23.3333 27.8402V27.8341L23.3989 27.933L23.3333 27.8402Z" fill="#001E2B"/>
</svg>
