<svg width="588" height="396" viewBox="0 0 588 396" fill="none" xmlns="http://www.w3.org/2000/svg">
<g clip-path="url(#clip0_89_19107)">
<path d="M324.753 361.71C279.514 361.71 242.853 325.057 242.853 280.148V238.872C242.836 233.342 241.729 227.87 239.596 222.769C237.463 217.667 234.345 213.036 230.42 209.14C226.496 205.245 221.842 202.161 216.724 200.066C211.607 197.971 206.127 196.905 200.597 196.929C195.304 196.936 190.063 195.898 185.172 193.876C180.281 191.854 175.837 188.887 172.095 185.144C168.353 181.402 165.385 176.958 163.363 172.067C161.341 167.176 160.304 161.935 160.31 156.642C160.294 151.113 159.187 145.641 157.054 140.54C154.92 135.439 151.802 130.808 147.877 126.914C143.952 123.019 139.298 119.936 134.181 117.841C129.064 115.747 123.584 114.682 118.054 114.708C112.761 114.717 107.517 113.681 102.624 111.66C97.7315 109.638 93.2856 106.671 89.5415 102.929C85.7975 99.1864 82.8287 94.7418 80.8054 89.8499C78.7821 84.9579 77.7441 79.7148 77.7508 74.421V74.0914C77.7441 68.799 78.7816 63.5573 80.8038 58.6665C82.826 53.7757 85.7933 49.3318 89.5356 45.5895C93.2779 41.8472 97.7217 38.88 102.613 36.8578C107.503 34.8355 112.745 33.798 118.037 33.8047H283.173C288.466 33.798 293.707 34.8355 298.598 36.8578C303.489 38.88 307.933 41.8472 311.675 45.5895C315.417 49.3318 318.385 53.7757 320.407 58.6665C322.429 63.5573 323.467 68.799 323.46 74.0914C323.478 79.6204 324.585 85.0917 326.719 90.1924C328.853 95.293 331.971 99.9231 335.895 103.818C339.82 107.712 344.474 110.795 349.59 112.89C354.707 114.985 360.187 116.051 365.716 116.026C371.01 116.022 376.252 117.062 381.143 119.087C386.034 121.113 390.478 124.083 394.219 127.829C397.96 131.574 400.925 136.022 402.944 140.915C404.963 145.809 405.997 151.053 405.986 156.347V280.148C406.645 325.057 369.992 361.71 324.753 361.71Z" fill="#00ED64"/>
<path d="M480.761 76.6182H159.634C155.088 76.6182 151.403 80.3035 151.403 84.8496V300.397C151.403 304.943 155.088 308.628 159.634 308.628H480.761C485.307 308.628 488.993 304.943 488.993 300.397V84.8496C488.993 80.3035 485.307 76.6182 480.761 76.6182Z" fill="black" stroke="black" stroke-width="0.845116"/>
<path d="M480.761 68.3867H159.634C155.088 68.3867 151.403 72.0721 151.403 76.6182V292.165C151.403 296.711 155.088 300.397 159.634 300.397H480.761C485.307 300.397 488.993 296.711 488.993 292.165V76.6182C488.993 72.0721 485.307 68.3867 480.761 68.3867Z" fill="white"/>
<path d="M151.403 76.6182C151.403 74.435 152.27 72.3413 153.814 70.7977C155.357 69.254 157.451 68.3867 159.634 68.3867H480.778C481.859 68.3867 482.929 68.5997 483.927 69.0135C484.925 69.4272 485.832 70.0337 486.596 70.7982C487.359 71.5626 487.965 72.4701 488.378 73.4688C488.79 74.4674 489.002 75.5376 489.001 76.6182V91.1457H151.403V76.6182Z" fill="#E3FCF7" stroke="black" stroke-width="0.845116"/>
<path d="M166.868 84.7145C167.84 84.7162 168.79 84.4297 169.598 83.8911C170.407 83.3526 171.038 82.5864 171.411 81.6893C171.784 80.7922 171.882 79.8047 171.693 78.8517C171.505 77.8986 171.038 77.023 170.352 76.3354C169.665 75.6479 168.79 75.1794 167.838 74.9893C166.885 74.7991 165.897 74.8959 165 75.2672C164.102 75.6386 163.335 76.268 162.795 77.0756C162.255 77.8833 161.967 78.8329 161.967 79.8044C161.965 80.4488 162.091 81.0871 162.337 81.6828C162.583 82.2785 162.944 82.8198 163.399 83.2759C163.855 83.7319 164.395 84.0937 164.99 84.3406C165.586 84.5875 166.224 84.7145 166.868 84.7145Z" fill="white" stroke="black" stroke-width="0.845116" stroke-linecap="round" stroke-linejoin="round"/>
<path d="M182.917 84.7145C183.889 84.7162 184.839 84.4297 185.647 83.8911C186.456 83.3526 187.086 82.5864 187.459 81.6893C187.832 80.7922 187.931 79.8047 187.742 78.8517C187.554 77.8986 187.087 77.023 186.4 76.3354C185.714 75.6479 184.839 75.1794 183.887 74.9893C182.934 74.7991 181.946 74.8959 181.048 75.2672C180.151 75.6386 179.383 76.268 178.843 77.0756C178.304 77.8833 178.015 78.8329 178.015 79.8044C178.015 81.1052 178.532 82.3528 179.451 83.2734C180.37 84.194 181.616 84.7123 182.917 84.7145Z" fill="white" stroke="black" stroke-width="0.845116" stroke-linecap="round" stroke-linejoin="round"/>
<path d="M198.957 84.7145C199.929 84.7162 200.879 84.4297 201.688 83.8911C202.496 83.3526 203.127 82.5864 203.5 81.6893C203.873 80.7922 203.971 79.8047 203.783 78.8517C203.594 77.8986 203.127 77.023 202.441 76.3354C201.754 75.6479 200.88 75.1794 199.927 74.9893C198.974 74.7991 197.986 74.8959 197.089 75.2672C196.191 75.6386 195.424 76.268 194.884 77.0756C194.344 77.8833 194.056 78.8329 194.056 79.8044C194.055 80.4488 194.181 81.0871 194.426 81.6828C194.672 82.2785 195.033 82.8198 195.488 83.2759C195.944 83.7319 196.484 84.0937 197.08 84.3406C197.675 84.5875 198.313 84.7145 198.957 84.7145Z" fill="white" stroke="black" stroke-width="0.845116" stroke-linecap="round" stroke-linejoin="round"/>
<path d="M326.097 179.46H232.306V300.397H326.097V179.46Z" fill="#E3FCF7" stroke="black" stroke-width="0.845116" stroke-linecap="round" stroke-linejoin="round"/>
<path d="M432.995 179.46H339.204V300.397H432.995V179.46Z" fill="#E3FCF7" stroke="black" stroke-width="0.845116" stroke-linecap="round" stroke-linejoin="round"/>
<path d="M210.147 107.82H117.505C112.959 107.82 109.274 111.505 109.274 116.052V282.506C109.274 287.052 112.959 290.737 117.505 290.737H210.147C214.693 290.737 218.378 287.052 218.378 282.506V116.052C218.378 111.505 214.693 107.82 210.147 107.82Z" fill="black"/>
<path d="M480.761 68.3867H159.634C155.088 68.3867 151.403 72.0721 151.403 76.6182V292.165C151.403 296.711 155.088 300.397 159.634 300.397H480.761C485.307 300.397 488.993 296.711 488.993 292.165V76.6182C488.993 72.0721 485.307 68.3867 480.761 68.3867Z" stroke="black" stroke-width="0.845116"/>
<path d="M244.239 134.475H281.804C285.115 134.475 288.29 135.79 290.631 138.131C292.971 140.472 294.286 143.647 294.286 146.957C294.286 148.596 293.964 150.219 293.336 151.733C292.709 153.247 291.789 154.622 290.63 155.781C289.471 156.939 288.095 157.858 286.58 158.484C285.066 159.111 283.443 159.432 281.804 159.431H244.239C242.6 159.432 240.977 159.111 239.463 158.484C237.948 157.858 236.572 156.939 235.413 155.781C234.254 154.622 233.334 153.247 232.707 151.733C232.079 150.219 231.756 148.596 231.756 146.957C231.756 143.647 233.071 140.472 235.412 138.131C237.753 135.79 240.928 134.475 244.239 134.475Z" fill="white" stroke="black" stroke-width="0.845116"/>
<path d="M277.731 143.163L285.954 151.394" stroke="black" stroke-width="0.845116"/>
<path d="M277.748 151.394L285.971 143.163" stroke="black" stroke-width="0.845116"/>
<path d="M241.441 147.456H268.916" stroke="black" stroke-width="0.845116" stroke-dasharray="1.68 1.68"/>
<path d="M318.009 134.475H386.818C388.457 134.475 390.08 134.798 391.594 135.425C393.108 136.053 394.483 136.972 395.642 138.132C396.8 139.291 397.719 140.667 398.345 142.181C398.971 143.696 399.293 145.319 399.292 146.957C399.292 150.266 397.978 153.439 395.639 155.778C393.299 158.117 390.127 159.431 386.818 159.431H318.009C316.37 159.432 314.747 159.111 313.233 158.484C311.718 157.858 310.342 156.939 309.183 155.781C308.024 154.622 307.104 153.247 306.477 151.733C305.849 150.219 305.526 148.596 305.526 146.957C305.526 143.647 306.842 140.472 309.182 138.131C311.523 135.79 314.698 134.475 318.009 134.475Z" fill="white" stroke="black" stroke-width="0.845116"/>
<path d="M381.663 143.163L389.894 151.394" stroke="black" stroke-width="0.845116"/>
<path d="M381.68 151.394L389.911 143.163" stroke="black" stroke-width="0.845116"/>
<path d="M333.381 146.831H372.781" stroke="black" stroke-width="0.845116" stroke-dasharray="1.68 1.68"/>
<path d="M318.423 153.397C321.905 153.397 324.728 150.575 324.728 147.093C324.728 143.611 321.905 140.788 318.423 140.788C314.941 140.788 312.118 143.611 312.118 147.093C312.118 150.575 314.941 153.397 318.423 153.397Z" fill="#00ED64"/>
<path d="M204.738 102.2H112.096C107.55 102.2 103.865 105.885 103.865 110.431V276.886C103.865 281.432 107.55 285.117 112.096 285.117H204.738C209.284 285.117 212.969 281.432 212.969 276.886V110.431C212.969 105.885 209.284 102.2 204.738 102.2Z" fill="white" stroke="black" stroke-width="0.845116"/>
<path d="M125.229 250.839C129.621 250.839 133.182 247.278 133.182 242.886C133.182 238.494 129.621 234.934 125.229 234.934C120.837 234.934 117.277 238.494 117.277 242.886C117.277 247.278 120.837 250.839 125.229 250.839Z" fill="#00ED64" stroke="black" stroke-width="0.845116"/>
<path d="M135.649 243.243C135.841 237.491 131.334 232.673 125.582 232.481C119.83 232.29 115.012 236.797 114.82 242.549C114.629 248.3 119.136 253.119 124.888 253.31C130.639 253.502 135.458 248.995 135.649 243.243Z" stroke="black" stroke-width="0.845116"/>
<path d="M125.229 271.958C129.621 271.958 133.182 268.398 133.182 264.006C133.182 259.614 129.621 256.053 125.229 256.053C120.837 256.053 117.277 259.614 117.277 264.006C117.277 268.398 120.837 271.958 125.229 271.958Z" fill="#E3FCF7"/>
<path d="M133.182 158.696H117.277V174.601H133.182V158.696Z" stroke="black" stroke-width="0.845116" stroke-linecap="round" stroke-linejoin="round"/>
<path d="M133.182 180.635H117.277V196.54H133.182V180.635Z" stroke="black" stroke-width="0.845116" stroke-linecap="round" stroke-linejoin="round"/>
<path d="M133.182 137.306H117.277V153.211H133.182V137.306Z" stroke="black" stroke-width="0.845116"/>
<path d="M196.016 117.775H120.074C118.529 117.775 117.277 119.028 117.277 120.573C117.277 122.118 118.529 123.37 120.074 123.37H196.016C197.561 123.37 198.814 122.118 198.814 120.573C198.814 119.028 197.561 117.775 196.016 117.775Z" fill="#B1FF05" stroke="black" stroke-width="0.845116"/>
<path d="M120.066 216.181H177.956C178.697 216.181 179.407 216.474 179.931 216.997C180.456 217.52 180.751 218.229 180.754 218.97C180.754 219.337 180.681 219.701 180.541 220.04C180.4 220.38 180.194 220.688 179.934 220.948C179.674 221.208 179.366 221.414 179.027 221.554C178.687 221.695 178.324 221.767 177.956 221.767H120.066C119.325 221.765 118.616 221.469 118.093 220.945C117.57 220.42 117.277 219.71 117.277 218.97C117.277 218.23 117.571 217.521 118.094 216.998C118.617 216.475 119.326 216.181 120.066 216.181Z" fill="#B1FF05" stroke="black" stroke-width="0.845116"/>
<path d="M142.782 188.241H196.971" stroke="black" stroke-width="0.845116" stroke-dasharray="1.68 1.68"/>
<path d="M142.782 144.912H186.821" stroke="black" stroke-width="0.845116" stroke-dasharray="1.68 1.68"/>
<path d="M142.782 242.54H196.971" stroke="black" stroke-width="0.845116" stroke-dasharray="1.68 1.68"/>
<path d="M142.782 166.302H170.392" stroke="black" stroke-width="0.845116" stroke-dasharray="1.68 1.68"/>
<path d="M142.782 264.006H174.043" stroke="black" stroke-width="0.845116" stroke-dasharray="1.68 1.68"/>
<path d="M120.066 163.513L125.846 171.33L137.213 151.952" stroke="black" stroke-width="0.845116" stroke-linecap="round" stroke-linejoin="round"/>
<path d="M459.904 87.647H236.971V116.44H459.904V87.647Z" fill="black"/>
<path d="M454.225 82.1621H231.765V110.955H454.225V82.1621Z" fill="#00ED64" stroke="black" stroke-width="0.845116" stroke-linejoin="round"/>
<path d="M249.588 96.4868H325.006" stroke="black" stroke-width="0.845116" stroke-linecap="round" stroke-linejoin="round"/>
<path d="M336.399 96.4868H369.662" stroke="black" stroke-width="0.845116" stroke-linecap="round" stroke-linejoin="round"/>
<path d="M438.159 95.5744L434.576 91.8558C434.195 91.4671 434.432 90.7234 434.931 90.7234H445.157C445.664 90.7234 445.892 91.4671 445.512 91.8558L441.928 95.5744V100.873C441.929 100.94 441.915 101.007 441.887 101.068C441.859 101.13 441.818 101.184 441.768 101.228L438.945 103.704C438.877 103.765 438.792 103.804 438.702 103.817C438.612 103.831 438.52 103.818 438.437 103.78C438.355 103.743 438.284 103.682 438.235 103.606C438.185 103.53 438.159 103.44 438.159 103.349V95.5744Z" fill="black"/>
<path d="M137.5 75.4097L135.354 84.4102L133.216 93.4783L126.455 87.0723L119.694 80.6494L128.627 78.0549L137.5 75.4097Z" fill="white" stroke="black" stroke-width="0.845116" stroke-linecap="round" stroke-linejoin="round"/>
<path d="M132.565 92.3881L120.835 81.241L130.131 83.2354L132.565 92.3881Z" fill="black" stroke="black" stroke-width="0.845116"/>
<path d="M129.886 83.4552L137.492 75.4097" stroke="black" stroke-width="0.845116" stroke-linecap="round" stroke-linejoin="round"/>
<path d="M488.993 292.174V179.46H446.095V300.397H480.744C481.826 300.4 482.898 300.19 483.899 299.778C484.9 299.366 485.809 298.761 486.575 297.997C487.342 297.233 487.95 296.326 488.364 295.326C488.779 294.327 488.993 293.256 488.993 292.174Z" fill="#E3FCF7" stroke="black" stroke-width="0.845116" stroke-linecap="round" stroke-linejoin="round"/>
<path d="M145.301 112.865L147.439 103.797L147.819 102.2H134.069L138.523 106.451L145.301 112.865Z" fill="black"/>
<path d="M125.229 276.835C124.184 276.835 123.148 277.041 122.182 277.442C121.216 277.842 120.339 278.43 119.6 279.17C118.861 279.91 118.276 280.789 117.877 281.756C117.479 282.722 117.275 283.758 117.277 284.804H133.182C133.184 283.758 132.98 282.722 132.581 281.756C132.183 280.789 131.597 279.91 130.859 279.17C130.12 278.43 129.243 277.842 128.277 277.442C127.311 277.041 126.275 276.835 125.229 276.835Z" fill="#E3FCF7"/>
<path d="M468.355 144.726L485.088 165.482L504.137 189.103C505.147 188.574 506.096 187.937 506.968 187.202C511.921 183.154 510.349 181.176 510.349 181.176L497.199 164.874L475.116 137.425C474.879 138.549 474.051 140.374 471.313 142.673C470.781 143.133 470.216 143.554 469.623 143.932L469.673 144C469.249 144.268 468.809 144.511 468.355 144.726Z" fill="#B1FF05" stroke="black" stroke-width="0.845116"/>
<path d="M475.091 136.199L471.347 131.728L468.752 128.66C467.335 130.262 465.801 131.756 464.163 133.131C462.162 134.816 460.015 136.321 457.749 137.627L457.901 137.805L459.904 140.171L464.256 145.326C464.544 145.451 464.855 145.518 465.169 145.52C466.275 145.52 467.363 145.228 468.321 144.675C468.767 144.448 469.199 144.194 469.614 143.915C470.208 143.537 470.772 143.116 471.304 142.656C474.043 140.357 474.871 138.531 475.107 137.407C475.192 137.008 475.187 136.595 475.091 136.199Z" fill="#B1FF05" stroke="black" stroke-width="0.845116"/>
<path d="M422.093 141.388C428.086 143.991 434.58 145.235 441.11 145.03C447.64 144.826 454.044 143.178 459.862 140.205C461.378 139.439 462.843 138.575 464.248 137.619C466.797 135.917 469.162 133.954 471.304 131.762C475.809 127.188 479.244 121.673 481.361 115.612C484.988 105.366 484.711 94.1434 480.584 84.089C479.452 81.2698 478.024 78.5786 476.324 76.0604C475.474 74.8097 474.547 73.5871 473.544 72.3926C468.244 66.0692 461.27 61.3655 453.422 58.8201C459.631 61.5395 465.126 65.6584 469.479 70.8545C470.9 72.5367 472.185 74.3283 473.324 76.2126C474.912 78.7415 476.218 81.4366 477.22 84.2496C480.911 94.4693 480.727 105.687 476.705 115.781C474.813 120.49 472.119 124.837 468.744 128.627C467.326 130.228 465.793 131.722 464.155 133.097C458.419 137.929 451.547 141.222 444.188 142.667C436.828 144.111 429.222 143.66 422.085 141.354L422.093 141.388Z" fill="black" stroke="black" stroke-width="0.845116" stroke-miterlimit="10"/>
<path d="M422.093 141.388C428.086 143.991 434.58 145.235 441.11 145.03C447.64 144.826 454.044 143.178 459.862 140.205C459.862 140.205 459.862 140.205 459.862 140.205C461.378 139.439 462.843 138.575 464.248 137.619C466.797 135.917 469.162 133.954 471.304 131.762C475.809 127.188 479.244 121.673 481.361 115.612C484.988 105.366 484.711 94.1434 480.584 84.089C479.452 81.2698 478.024 78.5786 476.324 76.0604C475.474 74.8097 474.547 73.5871 473.544 72.3926C468.244 66.0692 461.27 61.3655 453.422 58.8201C459.631 61.5395 465.126 65.6584 469.479 70.8545C470.9 72.5367 472.185 74.3283 473.324 76.2126C474.912 78.7415 476.218 81.4366 477.22 84.2496C480.911 94.4693 480.727 105.687 476.705 115.781C474.813 120.49 472.119 124.837 468.744 128.627C467.326 130.228 465.793 131.722 464.155 133.097C458.419 137.929 451.547 141.222 444.188 142.667C436.828 144.111 429.222 143.66 422.085 141.354L422.093 141.388Z" stroke="black" stroke-width="0.845116" stroke-linecap="round" stroke-linejoin="round"/>
<path d="M485.088 165.482L468.355 144.726C468.806 144.511 469.243 144.268 469.665 143.999L469.614 143.932L465.304 138.81L464.29 137.585L462.093 134.99L457.867 137.805L459.862 140.188L464.189 145.352C464.512 145.501 464.864 145.576 465.22 145.571L481.37 165.643L500.444 189.306C500.523 189.381 500.611 189.447 500.706 189.5C501.053 189.666 501.43 189.758 501.815 189.77C502.199 189.781 502.581 189.713 502.937 189.568C503.216 189.51 503.488 189.422 503.749 189.306C503.89 189.253 504.029 189.191 504.163 189.12L485.088 165.482Z" fill="black" stroke="black" stroke-width="0.845116" stroke-linecap="round" stroke-linejoin="round"/>
<path d="M401.87 127.773C405.864 132.531 410.821 136.388 416.414 139.089V139.089C418.244 139.967 420.13 140.724 422.06 141.354" stroke="black" stroke-width="0.845116"/>
<path d="M405.411 124.798C407.934 127.782 410.884 130.377 414.166 132.497C417.168 134.434 420.417 135.958 423.826 137.027C420.063 135.397 416.587 133.171 413.532 130.435C406.071 123.829 401.378 114.651 400.391 104.735C399.404 94.8184 402.196 84.8949 408.208 76.9478C409.98 74.5832 412.019 72.4308 414.284 70.5334C419.399 66.2181 425.528 63.2751 432.094 61.9814C438.66 60.6878 445.447 61.086 451.816 63.1386C445.036 60.1146 437.542 59.061 430.192 60.0982C422.841 61.1355 415.931 64.2218 410.253 69.0038C409.437 69.6819 408.656 70.4012 407.912 71.1588C400.824 78.1456 396.63 87.5473 396.167 97.4891C395.703 107.431 399.004 117.182 405.411 124.798Z" fill="black" stroke="black" stroke-width="0.845116" stroke-linecap="round" stroke-linejoin="round"/>
</g>
<defs>
<clipPath id="clip0_89_19107">
<rect width="433.249" height="327.905" fill="white" transform="translate(77.7507 33.8047)"/>
</clipPath>
</defs>
</svg>
