<svg width="73" height="73" viewBox="0 0 73 73" fill="none" xmlns="http://www.w3.org/2000/svg">
<path d="M29.2271 53.5L26.5891 61.6C26.2726 62.7 26.9057 63.5 28.0664 63.5H44.9495C46.1102 63.5 46.7433 62.6 46.4267 61.6L43.7887 53.5M66.5079 53.5H6.50793C5.40793 53.5 4.50793 52.6 4.50793 51.5V11.5C4.50793 10.4 5.40793 9.5 6.50793 9.5H66.5079C67.6079 9.5 68.5079 10.4 68.5079 11.5V51.5C68.5079 52.6 67.6079 53.5 66.5079 53.5Z" stroke="#001E2B" stroke-miterlimit="10"/>
<path d="M45.5079 31.0986V45.5C45.5079 42.7394 43.3079 40.5704 40.5079 40.5704C37.7079 40.5704 35.5079 42.7394 35.5079 45.5C35.5079 42.7394 33.3079 40.5704 30.5079 40.5704C27.7079 40.5704 25.5079 42.7394 25.5079 45.5V31" stroke="#001E2B" stroke-miterlimit="10"/>
<path d="M56.5079 26.5V34.5" stroke="#001E2B" stroke-miterlimit="10"/>
<path d="M56.5079 40.5C58.1648 40.5 59.5079 39.1569 59.5079 37.5C59.5079 35.8431 58.1648 34.5 56.5079 34.5C54.8511 34.5 53.5079 35.8431 53.5079 37.5C53.5079 39.1569 54.8511 40.5 56.5079 40.5Z" fill="#00ED64" stroke="#001E2B" stroke-miterlimit="10" stroke-linecap="round" stroke-linejoin="round"/>
<path d="M37.4079 18.8C36.4079 18.4 34.7079 18.4 33.6079 18.8L13.5079 26.5L33.6079 34.2C34.6079 34.6 36.3079 34.6 37.4079 34.2L57.5079 26.5L37.4079 18.8Z" fill="#00ED64" stroke="#001E2B" stroke-miterlimit="10" stroke-linecap="round" stroke-linejoin="round"/>
</svg>
