<?xml version="1.0" encoding="UTF-8"?>
<!DOCTYPE svg PUBLIC "-//W3C//DTD SVG 1.1//EN" "http://www.w3.org/Graphics/SVG/1.1/DTD/svg11.dtd">
<svg version="1.1" xmlns="http://www.w3.org/2000/svg" xmlns:xlink="http://www.w3.org/1999/xlink" x="0" y="0" width="620" height="440" viewBox="0, 0, 620, 440">
  <g id="Layer_1">
    <g>
      <g>
        <path d="M219.272,53.449 C219.272,52.1 216.366,51.006 212.776,51.006 L25.768,51.006 C22.181,51.006 19.272,52.1 19.272,53.449 L19.272,123.814 C19.272,125.164 22.181,126.259 25.768,126.259 L212.776,126.259 C216.366,126.259 219.272,125.164 219.272,123.814 L219.272,53.449" fill="#3299CC"/>
        <text transform="matrix(1, 0, 0, 1, 119.272, 88.633)">
          <tspan x="-42.957" y="3.688" font-family="GillSans" font-size="30" fill="#FFFFFF">Router</tspan>
        </text>
      </g>
      <text transform="matrix(1, 0, 0, 1, 119.272, 107.994)">
        <tspan x="-38.228" y="5.96" font-family="GillSans" font-size="20" fill="#FFFFFF">(mongos)</tspan>
      </text>
    </g>
    <g>
      <path d="M280.994,298.692 L387.037,254.501" fill-opacity="0" stroke="#EE9C02" stroke-width="4" stroke-dasharray="8,4"/>
      <path d="M279.147,294.261 L269.178,303.615 L282.84,303.122 z" fill="#EE9C02" fill-opacity="1" stroke="#EE9C02" stroke-width="4" stroke-opacity="1"/>
      <path d="M388.884,258.932 L398.853,249.577 L385.191,250.07 z" fill="#EE9C02" fill-opacity="1" stroke="#EE9C02" stroke-width="4" stroke-opacity="1"/>
    </g>
    <g>
      <g>
        <path d="M458.855,53.567 C458.855,52.223 455.95,51.133 452.359,51.133 L265.352,51.133 C261.765,51.133 258.855,52.223 258.855,53.567 L258.855,123.696 C258.855,125.042 261.765,126.133 265.352,126.133 L452.359,126.133 C455.95,126.133 458.855,125.042 458.855,123.696 L458.855,53.567" fill="#3299CC"/>
        <text transform="matrix(1, 0, 0, 1, 358.855, 88.633)">
          <tspan x="-42.957" y="3.769" font-family="GillSans" font-size="30" fill="#FFFFFF">Router</tspan>
        </text>
      </g>
      <text transform="matrix(1, 0, 0, 1, 358.855, 107.93)">
        <tspan x="-38.228" y="6" font-family="GillSans" font-size="20" fill="#FFFFFF">(mongos)</tspan>
      </text>
    </g>
    <path d="M70.578,159.152 L71.343,159.907 L72.936,161.38 L74.595,162.783 L76.31,164.112 L78.081,165.37 L79.905,166.558 L81.781,167.677 L83.707,168.729 L85.682,169.717 L87.703,170.642 L89.769,171.505 L91.879,172.309 L94.029,173.055 L96.22,173.744 L98.448,174.38 L100.713,174.963 L103.013,175.494 L105.345,175.977 L107.709,176.413 L110.102,176.803 L112.523,177.149 L114.971,177.454 L117.442,177.718 L119.937,177.943 L122.453,178.131 L124.988,178.285 L127.541,178.405 L130.111,178.494 L132.694,178.553 L135.291,178.583 L139.202,178.58 L144.449,178.494 L149.721,178.327 L155.001,178.092 L160.277,177.804 L165.533,177.475 L170.759,177.12 L175.939,176.753 L181.061,176.386 L186.112,176.034 L191.078,175.711 L194.737,175.495 L197.142,175.367 L199.519,175.254 L201.866,175.157 L204.181,175.078 L206.463,175.019 L208.709,174.981 L210.918,174.966 L213.088,174.976 L215.217,175.012 L217.305,175.076 L219.349,175.17 L220.348,175.228 L220.338,175.228 L221.187,175.285 L222.894,175.421 L224.618,175.592 L226.36,175.802 L228.111,176.053 L229.866,176.35 L231.618,176.696 L233.36,177.094 L235.085,177.548 L236.788,178.061 L238.46,178.636 L240.097,179.277 L241.69,179.987 L243.234,180.77 L244.722,181.628 L245.792,182.321 L246.484,182.806 L246.82,183.054 L246.785,183.027 L246.978,183.187 L247.241,183.489 L247.451,183.828 L247.64,184.227 L247.811,184.678 L247.967,185.173 L248.188,185.982 L248.411,186.819 L248.58,187.387 L248.776,187.943 L249.014,188.479 L249.309,188.979 L249.68,189.43 L250.038,189.736 L250.325,189.916 L250.629,190.055 L250.967,190.161 L251.181,190.208 L251.181,190.208 C251.219,190.215 251.257,190.221 251.297,190.225 L251.297,190.225 L251.422,190.237 L251.959,190.218 L252.622,190.083 L253.29,189.853 L253.947,189.556 L254.588,189.213 L255.216,188.836 L255.836,188.431 L256.449,188.004 L257.061,187.557 L257.673,187.093 L258.286,186.614 L259.198,185.883 L260.425,184.874 L261.653,183.852 L262.855,182.852 L264.013,181.903 L265.105,181.037 L265.849,180.473 L266.294,180.15 L266.721,179.854 L267.105,179.604 L267.44,179.403 L267.72,179.253 L267.937,179.156 L268.084,179.108 L268.061,179.124 L267.962,179.153 L268.523,178.999 L269.603,178.738 L270.71,178.515 L271.864,178.32 L273.061,178.156 L274.297,178.019 L275.567,177.91 L276.868,177.828 L278.197,177.77 L279.549,177.735 L281.622,177.722 L284.438,177.771 L287.292,177.882 L290.169,178.039 L293.047,178.229 L295.905,178.437 L298.725,178.648 L301.485,178.846 L304.167,179.018 L306.118,179.12 L307.387,179.172 L308.624,179.209 L309.829,179.228 L310.426,179.231 L310.426,179.231 C310.426,179.231 310.427,179.231 310.427,179.231 L310.427,179.231 L310.707,179.232 L311.293,179.24 L311.926,179.256 L312.61,179.279 L313.341,179.307 L314.117,179.341 L314.936,179.38 L315.794,179.422 L317.153,179.491 L319.084,179.588 L321.138,179.685 L323.297,179.776 L325.547,179.854 L327.871,179.913 L330.253,179.946 L332.678,179.947 L335.131,179.909 L337.596,179.825 L340.059,179.689 L342.505,179.494 L344.919,179.232 L347.29,178.897 L349.042,178.591 L350.196,178.357 L351.323,178.102 L352.432,177.821 L353.523,177.514 L354.595,177.178 L355.648,176.811 L356.683,176.409 L357.7,175.97 L358.7,175.49 L359.685,174.961 L360.657,174.379 L361.615,173.735 L362.557,173.022 L363.477,172.235 L364.364,171.37 L365.198,170.435 L365.959,169.443 L366.629,168.413 L367.195,167.365 L367.655,166.311 L368.012,165.259 L368.273,164.207 L368.445,163.152 L368.531,162.088 L368.537,161.01 L368.464,159.911 L368.314,158.788 L368.207,158.199 L368.207,158.199 C368.034,157.264 366.842,157.249 365.544,158.165 C364.245,159.082 363.332,160.584 363.504,161.519 L363.594,162 L363.728,162.955 L363.794,163.852 L363.797,164.687 L363.745,165.457 L363.644,166.157 L363.504,166.785 L363.335,167.336 L363.148,167.814 L362.95,168.225 L362.742,168.585 L362.516,168.914 L362.258,169.233 L361.951,169.557 L361.581,169.895 L361.139,170.245 L360.623,170.605 L360.036,170.967 L359.381,171.326 L358.663,171.677 L357.889,172.016 L357.063,172.34 L356.189,172.647 L355.273,172.937 L354.319,173.208 L353.328,173.46 L352.306,173.693 L351.266,173.905 L349.648,174.19 L347.403,174.509 L345.09,174.761 L342.729,174.951 L340.336,175.083 L337.93,175.166 L335.526,175.203 L333.141,175.203 L330.792,175.17 L328.496,175.112 L326.267,175.035 L324.122,174.945 L322.077,174.848 L320.147,174.751 L318.784,174.682 L317.919,174.64 L317.092,174.601 L316.303,174.566 L315.554,174.537 L314.846,174.514 L314.182,174.497 L313.566,174.489 L313.284,174.488 L313.285,174.488 L312.724,174.485 L311.558,174.467 L310.354,174.431 L309.117,174.381 L307.197,174.281 L304.537,174.11 L301.784,173.912 L298.959,173.701 L296.082,173.492 L293.174,173.3 L290.252,173.141 L287.336,173.028 L284.45,172.979 L282.316,172.992 L280.905,173.029 L279.51,173.091 L278.131,173.179 L276.772,173.297 L275.432,173.446 L274.114,173.63 L272.816,173.851 L271.54,174.112 L270.312,174.411 L269.749,174.565 L269.749,174.565 C269.716,174.574 269.683,174.584 269.65,174.595 L269.65,174.595 L269.26,174.726 L268.627,174.987 L268.001,175.296 L267.383,175.643 L266.769,176.021 L266.157,176.425 L265.545,176.852 L264.915,177.312 L263.986,178.021 L262.76,178.996 L261.535,179.999 L260.329,181.003 L259.157,181.979 L258.034,182.903 L257.236,183.544 L256.744,183.929 L256.284,184.28 L255.862,184.591 L255.484,184.858 L255.159,185.076 L254.894,185.243 L254.7,185.358 L254.582,185.426 L254.542,185.461 L254.566,185.483 L254.541,185.506 L254.414,185.494 L254.53,185.511 L254.5,185.509 L254.381,185.482 L254.263,185.438 L254.165,185.389 L254.003,185.274 L253.78,185.03 L253.577,184.705 L253.395,184.307 L253.229,183.846 L253.076,183.334 L252.85,182.484 L252.606,181.597 L252.412,180.995 L252.179,180.401 L251.892,179.831 L251.535,179.3 L251.119,178.853 L250.926,178.691 L250.926,178.691 C250.914,178.682 250.903,178.673 250.891,178.664 L250.891,178.664 L250.525,178.394 L249.784,177.875 L248.645,177.141 L247.078,176.24 L245.457,175.421 L243.788,174.679 L242.079,174.011 L240.335,173.413 L238.564,172.881 L236.772,172.411 L234.966,171.999 L233.154,171.642 L231.341,171.336 L229.534,171.077 L227.74,170.862 L225.967,170.687 L224.225,170.547 L223.373,170.491 L223.373,170.491 C223.37,170.49 223.366,170.49 223.363,170.49 L223.363,170.49 L222.329,170.43 L220.243,170.334 L218.115,170.269 L215.948,170.232 L213.744,170.223 L211.504,170.238 L209.229,170.276 L206.922,170.336 L204.583,170.416 L202.215,170.514 L199.819,170.628 L197.395,170.757 L193.715,170.974 L188.734,171.299 L183.677,171.651 L178.556,172.018 L173.386,172.384 L168.179,172.738 L162.949,173.065 L157.708,173.352 L152.468,173.585 L147.245,173.751 L142.046,173.837 L138.173,173.84 L135.608,173.81 L133.058,173.752 L130.525,173.665 L128.009,173.547 L125.512,173.396 L123.036,173.211 L120.583,172.989 L118.154,172.73 L115.752,172.432 L113.376,172.093 L111.03,171.711 L108.715,171.285 L106.431,170.813 L104.181,170.293 L101.968,169.724 L99.791,169.104 L97.653,168.432 L95.555,167.705 L93.499,166.923 L91.486,166.083 L89.519,165.184 L87.598,164.224 L85.725,163.202 L83.901,162.116 L82.129,160.963 L80.41,159.744 L78.745,158.456 L77.136,157.096 L75.579,155.658 L74.813,154.902 C74.813,154.902 74.813,154.902 74.813,154.902 C74.223,154.32 72.797,154.8 71.627,155.974 C70.458,157.147 69.988,158.57 70.578,159.152 L70.578,159.152" fill="#3299CC"/>
    <g>
      <path d="M253.298,215.931 L253.78,288.6" fill-opacity="0" stroke="#5A5955" stroke-width="4"/>
      <path d="M258.098,215.899 L253.213,203.131 L248.498,215.963 z" fill="#5A5955" fill-opacity="1" stroke="#5A5955" stroke-width="4" stroke-opacity="1"/>
      <path d="M248.98,288.632 L253.865,301.4 L258.58,288.569 z" fill="#5A5955" fill-opacity="1" stroke="#5A5955" stroke-width="4" stroke-opacity="1"/>
    </g>
    <text transform="matrix(1, 0, 0, 1, 244.388, 152.527)">
      <tspan x="-80.929" y="6.5" font-family="GillSans" font-size="21" fill="#3299CC">1 or more Routers</tspan>
    </text>
    <path d="M13.421,12.762 L224.769,12.762 L224.769,131.027 L13.421,131.027 z" fill-opacity="0" stroke="#5A5955" stroke-width="2" stroke-dasharray="6,4"/>
    <path d="M253.189,12.762 L463.385,12.762 L463.385,131.027 L253.189,131.027 z" fill-opacity="0" stroke="#5A5955" stroke-width="2" stroke-dasharray="6,4"/>
    <text transform="matrix(1, 0, 0, 1, 88.28, 28.286)">
      <tspan x="-69.009" y="4" font-family="GillSans" font-size="24" fill="#3F3C3C">App Server</tspan>
    </text>
    <text transform="matrix(1, 0, 0, 1, 327.864, 24.786)">
      <tspan x="-69.009" y="7.5" font-family="GillSans" font-size="24" fill="#3F3C3C">App Server</tspan>
    </text>
    <g>
      <path d="M281.646,203.962 L390.734,234.57" fill-opacity="0" stroke="#EE9C02" stroke-width="4" stroke-dasharray="8,4"/>
      <path d="M282.942,199.34 L269.322,200.504 L280.349,208.583 z" fill="#EE9C02" fill-opacity="1" stroke="#EE9C02" stroke-width="4" stroke-opacity="1"/>
      <path d="M389.438,239.191 L403.058,238.027 L392.031,229.948 z" fill="#EE9C02" fill-opacity="1" stroke="#EE9C02" stroke-width="4" stroke-opacity="1"/>
    </g>
    <g>
      <path d="M141.243,339.537 L141.789,338.767 L142.818,337.399 L143.837,336.146 L144.871,334.968 L145.923,333.858 L146.993,332.812 L148.084,331.826 L149.197,330.895 L150.335,330.015 L151.502,329.183 L152.698,328.395 L153.926,327.651 L155.185,326.95 L156.477,326.29 L157.801,325.67 L159.157,325.091 L160.542,324.553 L161.957,324.054 L163.399,323.594 L164.868,323.172 L166.362,322.789 L167.879,322.443 L169.419,322.132 L170.981,321.856 L172.561,321.614 L174.16,321.404 L175.777,321.226 L177.41,321.077 L179.059,320.956 L180.722,320.862 L183.248,320.768 L186.652,320.723 L190.093,320.757 L193.568,320.859 L197.071,321.015 L202.369,321.322 L209.472,321.802 L214.806,322.156 L218.358,322.365 L221.898,322.537 L225.423,322.659 L228.925,322.718 L232.402,322.699 L235.85,322.59 L238.42,322.44 L240.126,322.303 L240.98,322.223 L240.98,322.223 C240.997,322.222 241.016,322.22 241.034,322.218 L241.034,322.218 L241.212,322.196 L241.706,322.104 L242.485,321.875 L243.56,321.398 L244.675,320.72 L245.69,319.944 L246.567,319.157 L247.615,318.101 L248.759,316.902 L249.374,316.328 L249.575,316.192 L249.717,316.133 L249.796,316.144 L249.816,316.178 L249.858,316.19 L250,316.191 L250.184,316.208 L250.257,316.221 L250.207,316.214 L250.385,316.243 L250.721,316.315 L251.093,316.412 L251.51,316.537 L251.966,316.686 L252.455,316.859 L252.973,317.053 L253.518,317.266 L254.379,317.618 L255.588,318.135 L257.493,318.984 L260.097,320.169 L262.015,321.034 L263.242,321.573 L264.124,321.946 L264.69,322.178 L265.233,322.392 L265.753,322.589 L266.249,322.765 L266.719,322.919 L267.164,323.051 L267.584,323.158 L267.8,323.204 L267.8,323.204 C267.808,323.206 267.816,323.208 267.824,323.209 L267.824,323.209 L268.474,323.332 L269.8,323.555 L271.796,323.821 L274.467,324.057 L277.148,324.17 L279.83,324.173 L282.508,324.081 L285.18,323.907 L287.842,323.666 L290.493,323.372 L293.128,323.041 L297.044,322.504 L300.92,321.96 L303.47,321.618 L305.996,321.307 L308.494,321.041 L310.963,320.833 L313.402,320.696 L315.811,320.644 L318.189,320.689 L319.943,320.793 L321.099,320.9 L322.256,321.038 L323.405,321.209 L324.546,321.416 L325.679,321.659 L326.804,321.94 L327.921,322.261 L329.029,322.624 L330.13,323.03 L331.222,323.482 L332.305,323.981 L333.381,324.528 L334.447,325.126 L335.504,325.776 L336.553,326.48 L337.592,327.241 L338.621,328.059 L339.641,328.936 L340.651,329.876 L341.651,330.878 L342.639,331.945 L343.618,333.079 L344.585,334.282 L345.061,334.905 L345.061,334.905 C345.567,335.568 346.957,335.189 348.165,334.059 C349.373,332.929 349.942,331.476 349.435,330.813 C349.435,330.813 349.435,330.813 349.435,330.813 L348.936,330.161 L347.936,328.918 L346.922,327.744 L345.895,326.637 L344.854,325.595 L343.801,324.617 L342.736,323.702 L341.658,322.847 L340.568,322.051 L339.466,321.312 L338.352,320.629 L337.227,320 L336.091,319.423 L334.945,318.897 L333.788,318.42 L332.62,317.99 L331.444,317.606 L330.257,317.267 L329.062,316.969 L327.858,316.712 L326.647,316.494 L325.428,316.313 L324.201,316.168 L322.96,316.055 L321.09,315.946 L318.59,315.901 L316.07,315.958 L313.534,316.101 L310.984,316.317 L308.425,316.59 L305.858,316.906 L303.283,317.252 L299.421,317.794 L295.548,318.325 L292.968,318.65 L290.391,318.936 L287.816,319.17 L285.245,319.339 L282.679,319.43 L280.117,319.43 L277.561,319.325 L275.002,319.101 L273.085,318.847 L271.807,318.633 L271.156,318.509 L271.18,318.514 L271.043,318.486 L270.701,318.4 L270.313,318.286 L269.885,318.146 L269.423,317.982 L268.929,317.797 L268.407,317.591 L267.862,317.368 L267.001,317.003 L265.79,316.471 L263.878,315.609 L261.26,314.417 L259.332,313.559 L258.096,313.031 L257.21,312.668 L256.639,312.445 L256.088,312.239 L255.558,312.053 L255.05,311.887 L254.563,311.743 L254.097,311.624 L253.664,311.534 L253.484,311.504 L253.484,311.504 C253.468,311.502 253.451,311.499 253.434,311.497 L253.434,311.497 L253.153,311.467 L252.642,311.455 L252.11,311.499 L251.497,311.621 L250.565,311.938 L249.427,312.52 L248.401,313.219 L247.472,313.992 L246.44,314.984 L245.417,316.057 L244.813,316.683 L244.557,316.938 L244.399,317.097 L244.29,317.21 L244.079,317.345 L243.847,317.433 L243.642,317.479 L243.462,317.501 L243.517,317.495 L242.711,317.571 L241.079,317.702 L238.597,317.848 L235.233,317.956 L231.822,317.975 L228.371,317.918 L224.887,317.797 L221.375,317.627 L217.843,317.419 L212.512,317.065 L205.384,316.584 L200.048,316.274 L196.501,316.117 L192.969,316.014 L189.458,315.979 L185.977,316.027 L183.388,316.124 L181.668,316.221 L179.956,316.347 L178.253,316.503 L176.559,316.691 L174.874,316.913 L173.198,317.171 L171.532,317.467 L169.877,317.802 L168.23,318.18 L166.594,318.602 L164.968,319.071 L163.352,319.59 L161.746,320.16 L160.15,320.785 L158.564,321.467 L156.988,322.211 L155.423,323.017 L153.871,323.89 L152.333,324.831 L150.811,325.843 L149.308,326.927 L147.827,328.084 L146.371,329.315 L144.946,330.617 L143.555,331.991 L142.201,333.434 L140.887,334.945 L139.615,336.523 L138.413,338.128 L137.866,338.9 C136.946,340.198 136.957,341.393 137.889,341.569 C138.822,341.745 140.324,340.835 141.243,339.537 L141.243,339.537" fill="#6CB340"/>
      <text transform="matrix(1, 0, 0, 1, 240.898, 336.214)">
        <tspan x="-74.751" y="6.5" font-family="GillSans" font-size="21" fill="#6CB340">2 or more Shards</tspan>
      </text>
      <g>
        <g>
          <g>
            <path d="M237.726,351.148 C237.726,349.804 234.82,348.714 231.229,348.714 L44.222,348.714 C40.635,348.714 37.726,349.804 37.726,351.148 L37.726,421.277 C37.726,422.623 40.635,423.714 44.222,423.714 L231.229,423.714 C234.82,423.714 237.726,422.623 237.726,421.277 L237.726,351.148" fill="#6CB340"/>
            <path d="M237.726,351.148 C237.726,349.804 234.82,348.714 231.229,348.714 L44.222,348.714 C40.635,348.714 37.726,349.804 37.726,351.148 L37.726,421.277 C37.726,422.623 40.635,423.714 44.222,423.714 L231.229,423.714 C234.82,423.714 237.726,422.623 237.726,421.277 L237.726,351.148" fill-opacity="0" stroke="#BBDB88" stroke-width="1" stroke-dasharray="3,2"/>
          </g>
          <text transform="matrix(1, -0, 0, 1, 137.726, 386.214)">
            <tspan x="-34.131" y="7" font-family="GillSans" font-size="30" fill="#FFFFFE">Shard</tspan>
          </text>
        </g>
        <text transform="matrix(1, 0, 0, 1, 137.726, 409.214)">
          <tspan x="-50.183" y="4.5" font-family="GillSans" font-size="21" fill="#FFFFFF">(replica set)</tspan>
        </text>
      </g>
      <g>
        <g>
          <path d="M452.508,351.148 C452.508,349.804 449.602,348.714 446.012,348.714 L259.004,348.714 C255.417,348.714 252.508,349.804 252.508,351.148 L252.508,421.277 C252.508,422.623 255.417,423.714 259.004,423.714 L446.012,423.714 C449.602,423.714 452.508,422.623 452.508,421.277 L452.508,351.148" fill="#6CB340"/>
          <path d="M452.508,351.148 C452.508,349.804 449.602,348.714 446.012,348.714 L259.004,348.714 C255.417,348.714 252.508,349.804 252.508,351.148 L252.508,421.277 C252.508,422.623 255.417,423.714 259.004,423.714 L446.012,423.714 C449.602,423.714 452.508,422.623 452.508,421.277 L452.508,351.148" fill-opacity="0" stroke="#BBDB88" stroke-width="1" stroke-dasharray="3,2"/>
        </g>
        <text transform="matrix(1, -0, 0, 1, 352.508, 386.214)">
          <tspan x="-34.131" y="7" font-family="GillSans" font-size="30" fill="#FFFFFE">Shard</tspan>
        </text>
      </g>
      <text transform="matrix(1, 0, 0, 1, 352.508, 409.214)">
        <tspan x="-50.183" y="4.5" font-family="GillSans" font-size="21" fill="#FFFFFF">(replica set)</tspan>
      </text>
    </g>
    <g>
      <g>
        <g>
          <path d="M606.525,203.63 C606.525,202.285 603.619,201.195 600.029,201.195 L413.021,201.195 C409.434,201.195 406.525,202.285 406.525,203.63 L406.525,273.759 C406.525,275.104 409.434,276.195 413.021,276.195 L600.029,276.195 C603.619,276.195 606.525,275.104 606.525,273.759 L606.525,203.63" fill="#EE9C02"/>
          <path d="M606.525,203.63 C606.525,202.285 603.619,201.195 600.029,201.195 L413.021,201.195 C409.434,201.195 406.525,202.285 406.525,203.63 L406.525,273.759 C406.525,275.104 409.434,276.195 413.021,276.195 L600.029,276.195 C603.619,276.195 606.525,275.104 606.525,273.759 L606.525,203.63" fill-opacity="0" stroke="#F9DCA0" stroke-width="1" stroke-dasharray="3,2"/>
        </g>
        <text transform="matrix(1, 0, 0, 1, 506.525, 236.318)">
          <tspan x="-90.139" y="10" font-family="GillSans" font-size="30" fill="#FFFFFF">Config Servers</tspan>
        </text>
      </g>
      <text transform="matrix(1, 0, 0, 1, 506.525, 261.695)">
        <tspan x="-50.183" y="4.5" font-family="GillSans" font-size="21" fill="#FFFFFF">(replica set)</tspan>
      </text>
    </g>
  </g>
</svg>
