<svg width="32" height="32" viewBox="0 0 32 32" fill="none" xmlns="http://www.w3.org/2000/svg">
<path d="M8.16132 19.9812C8.16132 21.1706 8.30907 22.3383 8.65381 23.4286C9.7373 23.7755 10.9193 23.9211 12.1013 23.9211C18.6514 23.9211 23.9211 18.6926 23.9211 12.1013C23.9211 10.9118 23.7734 9.74411 23.4286 8.65381C22.3451 8.3069 21.1631 8.16132 19.9812 8.16132C13.431 8.16132 8.16132 13.3898 8.16132 19.9812Z" fill="#00ED64"/>
<path fill-rule="evenodd" clip-rule="evenodd" d="M8.48313 23.6524C3.56719 22.1141 0 17.5243 0 12.1013C0 5.41792 5.41792 0 12.1013 0C17.5243 0 22.1141 3.56719 23.6524 8.48312C23.6718 8.50862 23.687 8.53758 23.697 8.56897C24.052 9.69198 24.2025 10.8892 24.2025 12.1013C24.2025 15.3684 22.9373 18.3089 20.871 20.473L32 31.602L31.602 32L20.4729 20.8708C18.3024 22.941 15.356 24.2025 12.1013 24.2025C10.8974 24.2025 9.68535 24.0544 8.568 23.6966C8.53697 23.6867 8.50836 23.6716 8.48313 23.6524ZM0.56285 12.1013C0.56285 5.72878 5.72878 0.56285 12.1013 0.56285C17.116 0.56285 21.3836 3.76199 22.9745 8.23074C22.0117 7.98466 20.9936 7.8799 19.9812 7.8799C13.2762 7.8799 7.8799 13.2337 7.8799 19.9812C7.8799 21.0015 7.98653 22.0112 8.23206 22.9749C3.76262 21.3845 0.56285 17.1165 0.56285 12.1013ZM12.1013 23.6397C10.9806 23.6397 9.89716 23.4799 8.87262 23.1819C8.57338 22.1704 8.44275 21.0886 8.44275 19.9812C8.44275 13.5459 13.5858 8.44275 19.9812 8.44275C21.0822 8.44275 22.1759 8.57158 23.1817 8.87201C23.4798 9.89673 23.6397 10.9803 23.6397 12.1013C23.6397 18.4738 18.4738 23.6397 12.1013 23.6397Z" fill="#001E2B"/>
</svg>
