<svg width="32" height="32" viewBox="0 0 32 32" fill="none" xmlns="http://www.w3.org/2000/svg">
<path d="M19.8246 10.924L11.0216 19.7162L9.84782 18.5439C9.5237 18.2202 9.5237 17.6954 9.84782 17.3716L17.4771 9.75176C17.8013 9.42804 18.3268 9.42804 18.6509 9.75176L19.8246 10.924Z" fill="#00ED64"/>
<path fill-rule="evenodd" clip-rule="evenodd" d="M22.954 23.159L20.8149 21.02C18.2929 23.3777 14.3781 23.3831 11.9704 20.9784L9.69077 18.7012C9.27974 18.2907 9.27974 17.6249 9.69077 17.2144L11.1253 15.7817L8.73184 13.3912L9.04591 13.0768L11.4397 15.4676L15.366 11.5462L12.9724 9.1556L13.2864 8.84114L15.6804 11.2322L17.3201 9.59454C17.731 9.18417 18.397 9.18417 18.8079 9.59454L21.0875 11.8718C23.4953 14.2766 23.4899 18.1869 21.1294 20.7059L23.2682 22.8447L22.954 23.159ZM12.2844 20.6639L11.3358 19.7165L19.8244 11.2384L20.7734 12.1862C23.0513 14.4612 23.0084 18.2062 20.6606 20.5512C18.3126 22.8963 14.5624 22.9391 12.2844 20.6639ZM19.5099 10.9243L19.487 10.901L18.4938 9.909C18.2565 9.67194 17.8715 9.67194 17.6342 9.909L10.0048 17.5289C9.76764 17.7658 9.76764 18.1498 10.0048 18.3867L11.0215 19.4022L19.5099 10.9243Z" fill="#001E2B"/>
<path fill-rule="evenodd" clip-rule="evenodd" d="M16 1.55566C15.5375 1.55566 15.0841 1.59341 14.624 1.6317C14.3741 1.6525 14.1223 1.67346 13.866 1.68863C13.5813 1.6921 13.3825 1.89829 13.3121 2.09479C12.6354 3.60869 11.1642 4.61278 9.48702 4.61278C8.98094 4.61278 8.47881 4.52862 7.97748 4.31973L7.96998 4.31661L7.96228 4.31404C7.78486 4.2549 7.53154 4.24702 7.32568 4.38426L7.32235 4.38648L7.3191 4.38882C6.19201 5.20033 5.20022 6.19211 4.38872 7.31921L4.38638 7.32246L4.38416 7.32579C4.24692 7.53165 4.25479 7.78496 4.31393 7.96239L4.3165 7.97009L4.31962 7.97758C4.52811 8.47795 4.61267 8.97985 4.61267 9.53143C4.61267 11.2118 3.60486 12.6853 2.08628 13.3602L2.069 13.3679L2.05327 13.3784C1.97828 13.4284 1.90163 13.4875 1.83686 13.5685C1.77032 13.6516 1.72408 13.7479 1.69511 13.8638L1.69196 13.8764L1.6903 13.8893C1.51118 15.2775 1.51064 16.6659 1.68869 18.0541C1.69614 18.3342 1.90016 18.5297 2.09469 18.5994C3.60858 19.2761 4.61267 20.7473 4.61267 22.4245C4.61267 22.9761 4.52811 23.478 4.31962 23.9783L4.3165 23.9858L4.31393 23.9935C4.25479 24.1709 4.24692 24.4243 4.38416 24.6301L4.38638 24.6335L4.38872 24.6367C5.20033 25.7639 6.19105 26.7542 7.31448 27.608L7.31996 27.6121L7.32568 27.616C7.53154 27.7532 7.78486 27.7453 7.96228 27.6862L7.96998 27.6836L7.97748 27.6805C8.47785 27.472 8.97974 27.3874 9.53133 27.3874C11.2116 27.3874 12.6852 28.3952 13.3601 29.9138L13.3678 29.9311L13.3783 29.9468C13.4283 30.0218 13.4874 30.0985 13.5683 30.1632C13.6515 30.2298 13.7478 30.276 13.8637 30.305L13.8763 30.3081L13.8892 30.3098C15.2774 30.4889 16.6658 30.4895 18.0539 30.3114C18.3341 30.304 18.5296 30.1 18.5993 29.9054C19.276 28.3915 20.7472 27.3874 22.4244 27.3874C22.976 27.3874 23.4778 27.472 23.9782 27.6805L23.9857 27.6836L23.9934 27.6862C24.1708 27.7453 24.4242 27.7532 24.63 27.616L24.6357 27.6121L24.6412 27.608C25.7649 26.754 26.7539 25.765 27.6079 24.6413L27.612 24.6358L27.6158 24.6301C27.7531 24.4243 27.7452 24.1709 27.6861 23.9935L27.6824 23.9825L27.6776 23.9718C27.4724 23.5206 27.3873 23.0221 27.3873 22.4688C27.3873 20.7885 28.3951 19.3149 29.9137 18.64L29.931 18.6323L29.9467 18.6218C30.0217 18.5718 30.0984 18.5127 30.1631 18.4318C30.2297 18.3486 30.2759 18.2523 30.3049 18.1364L30.308 18.1238L30.3097 18.1109C30.4888 16.7227 30.4894 15.3343 30.3113 13.9462C30.3039 13.666 30.0998 13.4705 29.9053 13.4008C28.3914 12.7241 27.3873 11.253 27.3873 9.57574C27.3873 9.06966 27.4715 8.56752 27.6804 8.06619L27.6835 8.0587L27.6861 8.051C27.7452 7.87357 27.7531 7.62026 27.6158 7.4144L27.612 7.40868L27.6079 7.4032C26.7539 6.27954 25.7649 5.29053 24.6412 4.43654L24.6357 4.43238L24.63 4.42857C24.4242 4.29133 24.1708 4.2992 23.9934 4.35834C23.4841 4.52811 22.9762 4.61278 22.4244 4.61278C20.7441 4.61278 19.2705 3.60497 18.5956 2.08639L18.5879 2.06911L18.5774 2.05337C18.5274 1.97838 18.4683 1.90173 18.3873 1.83697C18.3042 1.77042 18.2079 1.72419 18.092 1.69522L18.0798 1.69218L18.0674 1.69053C17.3929 1.60059 16.7185 1.55566 16 1.55566ZM13.8864 2.13264C14.1691 2.11601 14.4332 2.0939 14.6887 2.07252C15.1343 2.03521 15.5536 2.00011 16 2.00011C16.6945 2.00011 17.3451 2.0432 17.9953 2.12929C18.05 2.14424 18.0838 2.16331 18.1097 2.18402C18.1369 2.20576 18.1638 2.23603 18.1976 2.28509C18.9442 3.94646 20.567 5.05722 22.4244 5.05722C23.0245 5.05722 23.5799 4.96467 24.134 4.77998C24.2202 4.75125 24.3185 4.75802 24.3789 4.79544C25.4656 5.62225 26.4222 6.57881 27.249 7.6655C27.2854 7.7244 27.2928 7.81923 27.2666 7.90381C27.035 8.46296 26.9429 9.02131 26.9429 9.57574C26.9429 11.4399 28.0618 13.0678 29.7332 13.8107L29.743 13.815L29.7532 13.8184C29.7799 13.8273 29.811 13.8473 29.8342 13.8757C29.8561 13.9024 29.8671 13.9314 29.8671 13.962V13.9763L29.8689 13.9905C30.0431 15.3404 30.0437 16.6902 29.8707 18.0401C29.8558 18.0946 29.8367 18.1283 29.8161 18.1541C29.7944 18.1813 29.7641 18.2082 29.715 18.242C28.0537 18.9886 26.9429 20.6114 26.9429 22.4688C26.9429 23.0628 27.0336 23.6235 27.2674 24.1436C27.2926 24.2274 27.285 24.3208 27.249 24.379C26.4222 25.4657 25.4656 26.4223 24.3789 27.2491C24.32 27.2855 24.2252 27.2929 24.1406 27.2667C23.5805 27.0347 23.0217 26.943 22.4244 26.943C20.5602 26.943 18.9323 28.0619 18.1895 29.7333L18.1851 29.7431L18.1817 29.7533C18.1728 29.78 18.1528 29.8111 18.1244 29.8343C18.0977 29.8562 18.0687 29.8672 18.0381 29.8672H18.0238L18.0096 29.869C16.6597 30.0432 15.3099 30.0438 13.96 29.8708C13.9055 29.8559 13.8718 29.8368 13.846 29.8162C13.8188 29.7945 13.7919 29.7642 13.7581 29.7151C13.0115 28.0538 11.3887 26.943 9.53133 26.943C8.934 26.943 8.3752 27.0347 7.8151 27.2667C7.73052 27.2929 7.63568 27.2855 7.57678 27.2491C6.48898 26.4214 5.53353 25.4652 4.75224 24.381C4.71473 24.3222 4.70691 24.2262 4.73344 24.1407C4.96539 23.5806 5.05711 23.0218 5.05711 22.4245C5.05711 20.5603 3.93823 18.9324 2.26679 18.1896L2.25698 18.1852L2.24681 18.1818C2.22014 18.1729 2.18897 18.1529 2.16576 18.1245C2.14391 18.0978 2.13292 18.0688 2.13292 18.0382V18.0239L2.13109 18.0097C1.9569 16.6598 1.95631 15.3101 2.1293 13.9601C2.14423 13.9056 2.16326 13.8719 2.18391 13.8461C2.20565 13.8189 2.23592 13.792 2.28499 13.7582C3.94635 13.0116 5.05711 11.3888 5.05711 9.53143C5.05711 8.9341 4.96539 8.3753 4.73343 7.8152C4.70691 7.7297 4.71473 7.63371 4.75223 7.57496C5.53427 6.48969 6.48959 5.53438 7.57485 4.75234C7.6336 4.71483 7.72959 4.70702 7.81509 4.73354C8.37424 4.9651 8.93259 5.05722 9.48702 5.05722C11.3512 5.05722 12.9791 3.93834 13.7219 2.26689L13.7263 2.25709L13.7297 2.24691C13.7386 2.22025 13.7586 2.18908 13.787 2.16587C13.8137 2.14402 13.8427 2.13303 13.8733 2.13303H13.8798L13.8864 2.13264Z" fill="#001E2B"/>
</svg>
