<svg width="600" height="360" viewBox="0 0 600 360" fill="none" xmlns="http://www.w3.org/2000/svg">
<path d="M229.306 180.018C190.026 180.018 158.149 148.269 158.001 109.027L158.001 108.756C157.852 69.1684 189.952 37.0005 229.577 37.0005L336.634 37.0005C356.027 37.0005 371.793 52.6284 371.941 72.0031L371.941 73.2356C372.089 92.8074 356.225 108.756 336.634 108.756L335.4 108.756C315.909 108.756 300.093 124.556 300.093 144.03L300.093 144.744C300.093 164.218 315.909 180.018 335.4 180.018L371.941 180.018C411.172 180.018 443 211.792 443 251.009C443 290.202 411.196 322 371.941 322L371.423 322C332.193 322 300.364 290.227 300.364 251.009C300.364 211.792 268.561 180.018 229.306 180.018Z" fill="#F2C5EE"/>
<path d="M186.883 330.669C188.703 330.669 190.482 330.129 191.995 329.118C193.509 328.107 194.688 326.67 195.385 324.988C196.081 323.307 196.263 321.457 195.908 319.672C195.553 317.887 194.677 316.247 193.39 314.961C192.103 313.674 190.463 312.797 188.678 312.442C186.894 312.087 185.043 312.269 183.362 312.966C181.681 313.662 180.243 314.842 179.232 316.355C178.221 317.868 177.682 319.647 177.682 321.467C177.681 322.676 177.918 323.873 178.38 324.99C178.842 326.107 179.52 327.121 180.375 327.976C181.229 328.831 182.244 329.508 183.361 329.97C184.478 330.432 185.675 330.67 186.883 330.669V330.669Z" fill="white" stroke="#001E2B" stroke-width="1.2" stroke-miterlimit="10"/>
<path d="M181.305 328.805C181.305 328.805 192.922 324.902 194.59 316.357C196.545 319.052 197.383 325.181 193.012 328.435C188.642 331.688 184.369 330.571 181.305 328.805Z" fill="#001E2B"/>
<path d="M445.003 34.5038L440.496 52.5236L426.416 61.8952L428.821 46.2005L445.003 34.5038Z" fill="#001E2B" stroke="#001E2B" stroke-width="1.2" stroke-miterlimit="10" stroke-linejoin="round"/>
<path d="M426.065 61.503L404.046 51.2695L407.939 35.6998L429.959 45.9333L426.065 61.503Z" fill="white" stroke="#001E2B" stroke-width="1.2" stroke-linecap="round" stroke-linejoin="round"/>
<path d="M429.96 45.9322L444.463 34.5792L407.94 35.6987L429.96 45.9322Z" fill="white" stroke="#001E2B" stroke-width="1.2" stroke-linecap="round" stroke-linejoin="round"/>
<path d="M419.892 89.5035H166.188C162.649 89.5035 159.78 92.356 159.78 95.8747V270.094C159.78 273.612 162.649 276.465 166.188 276.465H419.892C423.431 276.465 426.3 273.612 426.3 270.094V95.8747C426.3 92.356 423.431 89.5035 419.892 89.5035Z" fill="#001E2B" stroke="#001E2B" stroke-width="1.2" stroke-miterlimit="10"/>
<path d="M200.958 184.73V285.83C200.958 287.395 201.266 288.944 201.865 290.389C202.464 291.834 203.342 293.147 204.448 294.254C205.555 295.36 206.868 296.237 208.314 296.835C209.759 297.433 211.309 297.741 212.873 297.74H356.503" stroke="#B45AF2" stroke-width="1.2" stroke-miterlimit="10" stroke-dasharray="2 2"/>
<path d="M199.08 183.325C199.08 182.953 199.19 182.59 199.397 182.28C199.604 181.971 199.897 181.73 200.241 181.588C200.584 181.446 200.962 181.408 201.327 181.481C201.692 181.553 202.027 181.733 202.289 181.995C202.552 182.258 202.731 182.593 202.804 182.958C202.876 183.323 202.839 183.701 202.697 184.044C202.555 184.388 202.314 184.681 202.005 184.888C201.695 185.095 201.332 185.205 200.96 185.205C200.461 185.205 199.983 185.007 199.631 184.654C199.278 184.302 199.08 183.823 199.08 183.325V183.325Z" fill="#B45AF2"/>
<path d="M200.05 241.531H169.88C167.36 241.531 164.944 240.53 163.162 238.748C161.381 236.967 160.38 234.55 160.38 232.031V204.221" stroke="#B45AF2" stroke-width="1.2" stroke-miterlimit="10" stroke-dasharray="2 2"/>
<path d="M162.264 204.31C162.264 203.938 162.154 203.574 161.947 203.265C161.74 202.956 161.447 202.715 161.103 202.573C160.76 202.43 160.382 202.393 160.017 202.466C159.652 202.538 159.317 202.717 159.055 202.98C158.792 203.243 158.613 203.578 158.54 203.943C158.467 204.307 158.505 204.685 158.647 205.029C158.789 205.373 159.03 205.666 159.339 205.873C159.649 206.079 160.012 206.19 160.384 206.19C160.882 206.188 161.36 205.99 161.712 205.637C162.064 205.285 162.263 204.808 162.264 204.31V204.31Z" fill="#B45AF2"/>
<path d="M246.97 297.74V309.74C246.969 310.448 247.108 311.149 247.379 311.804C247.649 312.458 248.046 313.052 248.547 313.553C249.048 314.054 249.642 314.451 250.296 314.721C250.951 314.992 251.652 315.131 252.36 315.13H273.82" stroke="#B45AF2" stroke-width="1.2" stroke-miterlimit="10" stroke-dasharray="2 2"/>
<path d="M273.729 317C274.767 317 275.609 316.158 275.609 315.12C275.609 314.081 274.767 313.24 273.729 313.24C272.69 313.24 271.849 314.081 271.849 315.12C271.849 316.158 272.69 317 273.729 317Z" fill="#B45AF2"/>
<path d="M356.384 299.704C357.422 299.704 358.264 298.863 358.264 297.824C358.264 296.786 357.422 295.944 356.384 295.944C355.346 295.944 354.504 296.786 354.504 297.824C354.504 298.863 355.346 299.704 356.384 299.704Z" fill="#B45AF2"/>
<path d="M301.862 28.9297V110.14C301.862 111.705 301.554 113.254 300.955 114.699C300.356 116.144 299.479 117.458 298.372 118.564C297.266 119.67 295.952 120.547 294.507 121.145C293.061 121.743 291.512 122.051 289.947 122.05L186.096 122.05" stroke="#B45AF2" stroke-width="1.2" stroke-miterlimit="10" stroke-dasharray="2 2"/>
<path d="M303.745 27.5244C303.745 27.1526 303.635 26.7891 303.428 26.4799C303.222 26.1708 302.928 25.9298 302.585 25.7875C302.241 25.6452 301.863 25.608 301.498 25.6805C301.134 25.7531 300.799 25.9321 300.536 26.1951C300.273 26.458 300.094 26.793 300.021 27.1576C299.949 27.5223 299.986 27.9003 300.128 28.2439C300.271 28.5874 300.511 28.881 300.821 29.0876C301.13 29.2942 301.493 29.4044 301.865 29.4044C302.364 29.4044 302.842 29.2064 303.194 28.8538C303.547 28.5012 303.745 28.023 303.745 27.5244V27.5244Z" fill="#B45AF2"/>
<path d="M302.77 65.8408H332.94C335.46 65.8408 337.876 64.8399 339.658 63.0583C341.44 61.2767 342.44 58.8603 342.44 56.3408V48.4203" stroke="#B45AF2" stroke-width="1.2" stroke-miterlimit="10" stroke-dasharray="2 2"/>
<path d="M340.556 48.5104C340.556 48.1385 340.667 47.7751 340.873 47.4659C341.08 47.1567 341.373 46.9158 341.717 46.7735C342.06 46.6312 342.438 46.594 342.803 46.6665C343.168 46.739 343.503 46.9181 343.766 47.181C344.029 47.4439 344.208 47.7789 344.28 48.1436C344.353 48.5083 344.316 48.8863 344.173 49.2298C344.031 49.5733 343.79 49.867 343.481 50.0735C343.172 50.2801 342.808 50.3904 342.436 50.3904C341.938 50.3891 341.461 50.1906 341.108 49.8383C340.756 49.486 340.558 49.0086 340.556 48.5104V48.5104Z" fill="#B45AF2"/>
<path d="M255.851 122.05V134.05C255.851 134.758 255.712 135.459 255.442 136.114C255.171 136.768 254.774 137.362 254.273 137.863C253.773 138.364 253.178 138.761 252.524 139.031C251.87 139.302 251.169 139.441 250.461 139.44H229.001" stroke="#B45AF2" stroke-width="1.2" stroke-miterlimit="10" stroke-dasharray="2 2"/>
<path d="M229.095 141.31C228.056 141.31 227.215 140.469 227.215 139.43C227.215 138.392 228.056 137.55 229.095 137.55C230.133 137.55 230.975 138.392 230.975 139.43C230.975 140.469 230.133 141.31 229.095 141.31Z" fill="#B45AF2"/>
<path d="M409.145 78.9128H156.309C152.783 78.9128 149.924 81.7716 149.924 85.2982V259.905C149.924 263.431 152.783 266.29 156.309 266.29H409.145C412.672 266.29 415.53 263.431 415.53 259.905V85.2982C415.53 81.7716 412.672 78.9128 409.145 78.9128Z" fill="white" stroke="#001E2B" stroke-width="1.2" stroke-miterlimit="10"/>
<path d="M157.236 88.4518C158.724 88.4518 159.93 87.2458 159.93 85.7582C159.93 84.2706 158.724 83.0647 157.236 83.0647C155.749 83.0647 154.543 84.2706 154.543 85.7582C154.543 87.2458 155.749 88.4518 157.236 88.4518Z" fill="#B45AF2"/>
<path d="M164.804 88.4518C166.291 88.4518 167.497 87.2458 167.497 85.7582C167.497 84.2706 166.291 83.0647 164.804 83.0647C163.316 83.0647 162.11 84.2706 162.11 85.7582C162.11 87.2458 163.316 88.4518 164.804 88.4518Z" fill="#B45AF2"/>
<path d="M172.364 88.4518C173.852 88.4518 175.058 87.2458 175.058 85.7582C175.058 84.2706 173.852 83.0647 172.364 83.0647C170.877 83.0647 169.671 84.2706 169.671 85.7582C169.671 87.2458 170.877 88.4518 172.364 88.4518Z" fill="#B45AF2"/>
<path d="M149.924 92.5231H415.684" stroke="#001E2B" stroke-width="1.2" stroke-miterlimit="10"/>
<path d="M400 172H345V187H400V172Z" fill="#E3FCF7"/>
<path d="M459 114H257V128H459V114Z" fill="#E3FCF7"/>
<path d="M436.307 144H308.307V157H436.307V144Z" fill="#E3FCF7"/>
<path d="M294 143H257V157H294V143Z" fill="#00ED64"/>
<path d="M459 231H172V245H459V231Z" fill="#E3FCF7"/>
<path d="M330 172H257V186H330V172Z" fill="#E3FCF7"/>
<path d="M172.944 226.12V195.4H178.928V197.704H175.44V223.816H178.928V226.12H172.944ZM180.422 224.52L192.774 198.28H195.366L183.014 224.52H180.422ZM190.516 224.52L202.868 198.28H205.46L193.108 224.52H190.516ZM213.972 209.64C213.972 203.016 219.092 197.896 225.748 197.896C231.476 197.896 235.636 201.64 236.628 205.768H233.492C232.5 202.92 229.524 200.712 225.748 200.712C220.692 200.712 216.948 204.616 216.948 209.64C216.948 214.664 220.692 218.568 225.748 218.568C229.524 218.568 232.5 216.36 233.492 213.512H236.628C235.636 217.64 231.476 221.384 225.748 221.384C219.092 221.384 213.972 216.264 213.972 209.64ZM243.972 226.12H237.988V223.816H241.476V197.704H237.988V195.4H243.972V226.12Z" fill="#001E2B"/>
<path d="M441 202H262V217H441V202Z" fill="#E3FCF7"/>
<g clip-path="url(#clip0_1715_16023)">
<path fill-rule="evenodd" clip-rule="evenodd" d="M200.707 114.442C201.743 113.863 203.008 113.863 204.044 114.442C209.164 117.307 224.556 125.947 229.661 128.811C230.697 129.39 231.337 130.457 231.337 131.63C231.337 137.375 231.337 154.64 231.337 160.385C231.337 161.543 230.697 162.625 229.661 163.204C224.556 166.069 209.164 174.709 204.044 177.573C203.008 178.152 201.743 178.152 200.707 177.573C195.602 174.693 180.21 166.053 175.105 163.189C174.069 162.609 173.429 161.543 173.429 160.369C173.429 154.625 173.429 137.36 173.429 131.615C173.429 130.457 174.069 129.375 175.105 128.796C180.21 125.947 195.602 117.307 200.707 114.442Z" fill="#004482"/>
<path fill-rule="evenodd" clip-rule="evenodd" d="M173.886 161.847C173.474 161.299 173.429 160.796 173.429 160.095C173.429 154.396 173.429 137.223 173.429 131.524C173.429 130.366 174.069 129.299 175.09 128.72C180.195 125.87 195.525 117.276 200.615 114.426C201.652 113.847 203.038 113.863 204.075 114.442C209.164 117.291 224.449 125.809 229.539 128.659C229.951 128.887 230.271 129.162 230.545 129.543L173.886 161.847Z" fill="#659AD2"/>
<path fill-rule="evenodd" clip-rule="evenodd" d="M202.383 124.667C214.162 124.667 223.717 134.221 223.717 146C223.717 157.779 214.162 167.333 202.383 167.333C190.603 167.333 181.048 157.779 181.048 146C181.048 134.221 190.603 124.667 202.383 124.667ZM202.383 135.333C208.265 135.333 213.05 140.118 213.05 146C213.05 151.882 208.265 156.667 202.383 156.667C196.5 156.667 191.715 151.882 191.715 146C191.715 140.118 196.5 135.333 202.383 135.333Z" fill="white"/>
<path fill-rule="evenodd" clip-rule="evenodd" d="M230.56 129.558C231.352 130.29 231.337 131.402 231.337 132.27C231.337 138.061 231.291 154.503 231.352 160.278C231.352 160.888 231.154 161.512 230.864 162L201.758 146L230.56 129.558Z" fill="#00599C"/>
</g>
<defs>
<clipPath id="clip0_1715_16023">
<rect width="57.9086" height="64" fill="white" transform="translate(173.429 114)"/>
</clipPath>
</defs>
</svg>
