<svg width="600" height="360" viewBox="0 0 600 360" fill="none" xmlns="http://www.w3.org/2000/svg">
<path d="M229.25 108.25V143.875C229.25 163.54 213.29 179.5 193.625 179.5C173.96 179.5 158 195.46 158 215.125C158 234.79 173.96 250.75 193.625 250.75H264.875C284.54 250.75 300.5 266.71 300.5 286.375C300.5 306.04 316.46 322 336.125 322L407.375 322C427.04 322 443 306.04 443 286.375L443 215.125C443 195.46 427.04 179.5 407.375 179.5C387.71 179.5 371.75 163.54 371.75 143.875C371.75 124.21 387.71 108.25 407.375 108.25C427.04 108.25 443 92.29 443 72.625C443 52.96 427.04 37 407.375 37L300.215 37C261.17 37.285 229.25 69.205 229.25 108.25Z" fill="#B1FF05"/>
<path d="M432 57C435.362 57 438.649 56.003 441.445 54.135C444.24 52.267 446.419 49.612 447.706 46.5056C448.993 43.3993 449.329 39.9811 448.673 36.6835C448.017 33.3858 446.398 30.3567 444.021 27.9792C441.643 25.6017 438.614 23.9826 435.317 23.3267C432.019 22.6707 428.601 23.0073 425.494 24.294C422.388 25.5807 419.733 27.7597 417.865 30.5553C415.997 33.3509 415 36.6377 415 40C414.998 42.233 415.437 44.4444 416.29 46.5078C417.144 48.5711 418.396 50.446 419.975 52.0249C421.554 53.6039 423.429 54.856 425.492 55.7097C427.556 56.5634 429.767 57.0018 432 57V57Z" fill="white" stroke="#001E2B" stroke-width="1.2" stroke-miterlimit="10"/>
<path d="M421.693 53.5554C421.693 53.5554 443.156 46.3454 446.238 30.5587C449.85 35.5374 451.398 46.8614 443.323 52.8721C435.249 58.8828 427.355 56.8188 421.693 53.5554Z" fill="#001E2B"/>
<path d="M176.575 307L187.289 316.481L197.994 325.854L184.497 330.432L171 334.964L173.783 321.023L176.575 307Z" fill="white" stroke="#001E2B" stroke-width="1.2" stroke-miterlimit="10"/>
<path d="M181.705 322.174L171 335L197.994 325.854L181.705 322.174Z" fill="#001E2B"/>
<path d="M181.706 322.174L176.575 307" stroke="#001E2B" stroke-width="1.2" stroke-miterlimit="10"/>
<path d="M419.892 89.5035H166.188C162.649 89.5035 159.78 92.356 159.78 95.8747V270.094C159.78 273.612 162.649 276.465 166.188 276.465H419.892C423.431 276.465 426.3 273.612 426.3 270.094V95.8747C426.3 92.356 423.431 89.5035 419.892 89.5035Z" fill="#001E2B" stroke="#001E2B" stroke-width="1.2" stroke-miterlimit="10"/>
<path d="M200.958 178.73V279.83C200.958 281.394 201.266 282.943 201.865 284.389C202.464 285.834 203.342 287.147 204.448 288.253C205.555 289.359 206.868 290.236 208.314 290.834C209.759 291.433 211.309 291.74 212.873 291.74H356.503" stroke="#00684A" stroke-width="1.2" stroke-miterlimit="10" stroke-dasharray="2 2"/>
<path d="M199.08 177.324C199.08 176.953 199.19 176.589 199.397 176.28C199.604 175.971 199.897 175.73 200.241 175.587C200.584 175.445 200.962 175.408 201.327 175.48C201.692 175.553 202.027 175.732 202.289 175.995C202.552 176.258 202.731 176.593 202.804 176.958C202.876 177.322 202.839 177.7 202.697 178.044C202.555 178.387 202.314 178.681 202.005 178.888C201.695 179.094 201.332 179.204 200.96 179.204C200.461 179.204 199.983 179.006 199.631 178.654C199.278 178.301 199.08 177.823 199.08 177.324V177.324Z" fill="#00684A"/>
<path d="M200.05 235.53H169.88C167.36 235.53 164.944 234.529 163.162 232.748C161.381 230.966 160.38 228.55 160.38 226.03V198.22" stroke="#00684A" stroke-width="1.2" stroke-miterlimit="10" stroke-dasharray="2 2"/>
<path d="M162.264 198.309C162.264 197.937 162.154 197.574 161.947 197.265C161.74 196.955 161.447 196.714 161.103 196.572C160.76 196.43 160.382 196.393 160.017 196.465C159.652 196.538 159.317 196.717 159.055 196.98C158.792 197.243 158.613 197.578 158.54 197.942C158.467 198.307 158.505 198.685 158.647 199.029C158.789 199.372 159.03 199.666 159.339 199.872C159.649 200.079 160.012 200.189 160.384 200.189C160.882 200.188 161.36 199.989 161.712 199.637C162.064 199.285 162.263 198.807 162.264 198.309V198.309Z" fill="#00684A"/>
<path d="M246.97 291.74V303.74C246.969 304.448 247.108 305.149 247.379 305.803C247.649 306.457 248.046 307.052 248.547 307.552C249.048 308.053 249.642 308.45 250.296 308.721C250.951 308.991 251.652 309.13 252.36 309.13H273.82" stroke="#00684A" stroke-width="1.2" stroke-miterlimit="10" stroke-dasharray="2 2"/>
<path d="M273.729 310.999C274.767 310.999 275.609 310.158 275.609 309.119C275.609 308.081 274.767 307.239 273.729 307.239C272.69 307.239 271.849 308.081 271.849 309.119C271.849 310.158 272.69 310.999 273.729 310.999Z" fill="#00684A"/>
<path d="M356.384 293.704C357.422 293.704 358.264 292.862 358.264 291.824C358.264 290.786 357.422 289.944 356.384 289.944C355.346 289.944 354.504 290.786 354.504 291.824C354.504 292.862 355.346 293.704 356.384 293.704Z" fill="#00684A"/>
<path d="M284.958 177.714V76.6137C284.958 75.0493 285.266 73.5002 285.865 72.0548C286.464 70.6095 287.342 69.2964 288.448 68.1903C289.555 67.0843 290.868 66.2072 292.314 65.6089C293.759 65.0107 295.309 64.7031 296.873 64.7038L400.503 64.7038" stroke="#00684A" stroke-width="1.2" stroke-miterlimit="10" stroke-dasharray="2 2"/>
<path d="M283.08 179.119C283.08 179.491 283.19 179.854 283.397 180.163C283.604 180.473 283.897 180.714 284.241 180.856C284.584 180.998 284.962 181.035 285.327 180.963C285.692 180.89 286.027 180.711 286.289 180.448C286.552 180.185 286.731 179.85 286.804 179.486C286.876 179.121 286.839 178.743 286.697 178.4C286.555 178.056 286.314 177.762 286.005 177.556C285.695 177.349 285.332 177.239 284.96 177.239C284.461 177.239 283.983 177.437 283.631 177.79C283.278 178.142 283.08 178.62 283.08 179.119V179.119Z" fill="#00684A"/>
<path d="M284.05 120.913H253.88C251.36 120.913 248.944 121.914 247.162 123.696C245.381 125.477 244.38 127.894 244.38 130.413V158.223" stroke="#00684A" stroke-width="1.2" stroke-miterlimit="10" stroke-dasharray="2 2"/>
<path d="M246.264 158.134C246.264 158.506 246.154 158.87 245.947 159.179C245.74 159.488 245.447 159.729 245.103 159.871C244.76 160.013 244.382 160.051 244.017 159.978C243.652 159.906 243.317 159.727 243.055 159.464C242.792 159.201 242.613 158.866 242.54 158.501C242.467 158.136 242.505 157.758 242.647 157.415C242.789 157.071 243.03 156.778 243.339 156.571C243.649 156.365 244.012 156.254 244.384 156.254C244.882 156.256 245.36 156.454 245.712 156.806C246.064 157.159 246.263 157.636 246.264 158.134V158.134Z" fill="#00684A"/>
<path d="M330.97 64.7037V52.7037C330.969 51.9957 331.108 51.2945 331.379 50.6403C331.649 49.986 332.046 49.3916 332.547 48.891C333.048 48.3903 333.642 47.9933 334.296 47.7227C334.951 47.452 335.652 47.3131 336.36 47.3137H357.82" stroke="#00684A" stroke-width="1.2" stroke-miterlimit="10" stroke-dasharray="2 2"/>
<path d="M357.729 45.4441C358.767 45.4441 359.609 46.2858 359.609 47.3241C359.609 48.3624 358.767 49.2041 357.729 49.2041C356.69 49.2041 355.849 48.3624 355.849 47.3241C355.849 46.2858 356.69 45.4441 357.729 45.4441Z" fill="#00684A"/>
<path d="M400.384 62.739C401.422 62.739 402.264 63.5807 402.264 64.619C402.264 65.6573 401.422 66.499 400.384 66.499C399.346 66.499 398.504 65.6573 398.504 64.619C398.504 63.5807 399.346 62.739 400.384 62.739Z" fill="#00684A"/>
<path d="M409.145 78.9128H156.309C152.783 78.9128 149.924 81.7716 149.924 85.2982V259.905C149.924 263.431 152.783 266.29 156.309 266.29H409.145C412.672 266.29 415.53 263.431 415.53 259.905V85.2982C415.53 81.7716 412.672 78.9128 409.145 78.9128Z" fill="white" stroke="#001E2B" stroke-width="1.2" stroke-miterlimit="10"/>
<path d="M157.236 88.4518C158.724 88.4518 159.93 87.2458 159.93 85.7582C159.93 84.2706 158.724 83.0647 157.236 83.0647C155.749 83.0647 154.543 84.2706 154.543 85.7582C154.543 87.2458 155.749 88.4518 157.236 88.4518Z" fill="#00684A"/>
<path d="M164.804 88.4518C166.291 88.4518 167.497 87.2458 167.497 85.7582C167.497 84.2706 166.291 83.0647 164.804 83.0647C163.316 83.0647 162.11 84.2706 162.11 85.7582C162.11 87.2458 163.316 88.4518 164.804 88.4518Z" fill="#00684A"/>
<path d="M172.364 88.4518C173.852 88.4518 175.058 87.2458 175.058 85.7582C175.058 84.2706 173.852 83.0647 172.364 83.0647C170.877 83.0647 169.671 84.2706 169.671 85.7582C169.671 87.2458 170.877 88.4518 172.364 88.4518Z" fill="#00684A"/>
<path d="M149.924 92.5231H415.684" stroke="#001E2B" stroke-width="1.2" stroke-miterlimit="10"/>
<path d="M400 172H345V187H400V172Z" fill="#E3FCF7"/>
<path d="M459 114H257V128H459V114Z" fill="#E3FCF7"/>
<path d="M436.307 144H308.307V157H436.307V144Z" fill="#E3FCF7"/>
<path d="M294 143H257V157H294V143Z" fill="#00ED64"/>
<path d="M459 231H172V245H459V231Z" fill="#E3FCF7"/>
<path d="M330 172H257V186H330V172Z" fill="#E3FCF7"/>
<path d="M170.672 224.52L183.024 198.28H185.616L173.264 224.52H170.672ZM180.766 224.52L193.118 198.28H195.71L183.358 224.52H180.766ZM204.222 209.64C204.222 203.016 209.342 197.896 215.998 197.896C221.726 197.896 225.886 201.64 226.878 205.768H223.742C222.75 202.92 219.774 200.712 215.998 200.712C210.942 200.712 207.198 204.616 207.198 209.64C207.198 214.664 210.942 218.568 215.998 218.568C219.774 218.568 222.75 216.36 223.742 213.512H226.878C225.886 217.64 221.726 221.384 215.998 221.384C209.342 221.384 204.222 216.264 204.222 209.64ZM239.073 221L241.057 214.6H235.265L233.313 221H230.753L232.737 214.6H229.025V212.264H233.473L235.201 206.792H231.361V204.456H235.937L237.857 198.28H240.385L238.465 204.456H244.225L246.177 198.28H248.673L246.753 204.456H250.465V206.792H246.017L244.321 212.264H248.161V214.6H243.553L241.601 221H239.073ZM237.729 206.792L236.033 212.264H241.793L243.489 206.792H237.729Z" fill="#001E2B"/>
<path d="M441 202H267V217H441V202Z" fill="#E3FCF7"/>
<path d="M232.482 136.82C232.482 135.751 232.258 134.793 231.79 133.968C231.321 133.166 230.651 132.498 229.736 131.963C222.147 127.596 214.535 123.228 206.946 118.861C204.893 117.68 202.906 117.725 200.875 118.928C197.861 120.711 182.728 129.356 178.197 131.963C176.344 133.032 175.429 134.681 175.429 136.798C175.429 145.599 175.429 154.378 175.429 163.18C175.429 164.227 175.652 165.163 176.098 165.965C176.567 166.789 177.259 167.48 178.197 168.037C182.705 170.644 197.839 179.289 200.875 181.072C202.906 182.275 204.893 182.32 206.946 181.139C214.535 176.772 222.147 172.404 229.736 168.037C230.674 167.502 231.366 166.812 231.834 165.965C232.281 165.163 232.504 164.227 232.504 163.18C232.482 163.18 232.482 145.599 232.482 136.82Z" fill="#A179DC"/>
<path d="M204.045 149.9L176.099 165.965C176.567 166.789 177.259 167.48 178.197 168.037C182.706 170.644 197.839 179.29 200.875 181.072C202.906 182.275 204.893 182.32 206.946 181.139C214.536 176.772 222.147 172.404 229.736 168.037C230.674 167.502 231.366 166.812 231.835 165.965L204.045 149.9Z" fill="#280068"/>
<path d="M232.481 136.82C232.481 135.751 232.258 134.793 231.789 133.968L204.044 149.922L231.811 165.987C232.258 165.185 232.481 164.249 232.481 163.202C232.481 163.18 232.481 145.599 232.481 136.82Z" fill="#390091"/>
<path d="M220.495 143.906V146.914H223.509V143.906H225.004V146.914H228.017V148.407H225.004V151.415H228.017V152.908H225.004V155.916H223.509V152.908H220.495V155.916H219V152.908H215.986V151.415H219V148.407H215.986V146.914H219V143.906H220.495V143.906ZM223.509 148.407H220.495V151.415H223.509V148.407Z" fill="white"/>
<path d="M204.111 128.821C211.946 128.821 218.799 133.077 222.482 139.405L222.437 139.338L213.218 144.641C211.41 141.566 208.062 139.494 204.245 139.45H204.134C198.308 139.45 193.576 144.173 193.576 149.989C193.576 151.883 194.089 153.688 194.96 155.225C196.79 158.389 200.205 160.528 204.134 160.528C208.085 160.528 211.522 158.367 213.33 155.158L213.285 155.225L222.504 160.551C218.866 166.812 212.125 171.068 204.357 171.134H204.111C196.232 171.134 189.379 166.856 185.719 160.506C183.933 157.409 182.906 153.799 182.906 149.967C182.906 138.313 192.393 128.821 204.111 128.821Z" fill="white"/>
</svg>
