<svg width="600" height="360" viewBox="0 0 600 360" fill="none" xmlns="http://www.w3.org/2000/svg">
<path d="M157.999 250.964V143.982C157.999 124.297 173.959 108.036 193.909 108.036H264.589C284.254 108.036 300.214 92.0596 300.499 72.3749C300.499 52.6903 316.744 36.9996 336.409 36.9996H407.089C426.754 36.9996 442.999 52.9755 442.999 72.6602V143.411C442.999 163.381 426.754 179.357 407.089 179.357H336.124C316.459 179.357 300.214 195.333 300.214 215.018V250.964C300.214 290.333 268.294 322 228.964 322C189.634 322 157.999 290.048 157.999 250.964Z" fill="#00D2FF"/>
<path d="M440.462 310.925L437.376 323.265L427.733 329.682L429.381 318.935L440.462 310.925Z" fill="#001E2B" stroke="#001E2B" stroke-width="1.2" stroke-miterlimit="10" stroke-linejoin="round"/>
<path d="M427.493 329.414L412.415 322.406L415.081 311.744L430.16 318.752L427.493 329.414Z" fill="white" stroke="#001E2B" stroke-width="1.2" stroke-linecap="round" stroke-linejoin="round"/>
<path d="M430.16 318.751L440.091 310.977L415.081 311.743L430.16 318.751Z" fill="white" stroke="#001E2B" stroke-width="1.2" stroke-linecap="round" stroke-linejoin="round"/>
<path d="M187.49 61.2177L206.047 60.0458L214.786 40.9565L196.466 41.5814L187.49 61.2177Z" fill="#001E2B" stroke="#001E2B" stroke-width="1.2" stroke-miterlimit="10" stroke-linejoin="round"/>
<path d="M187.434 61.2063L176.207 46.387L184.938 27.2911L196.431 41.5619L187.434 61.2063Z" fill="white" stroke="#001E2B" stroke-width="1.2" stroke-miterlimit="10" stroke-linejoin="round"/>
<path d="M203.186 26.8955L214.787 40.9567L196.431 41.5625L184.939 27.2916L203.186 26.8955Z" fill="white" stroke="#001E2B" stroke-width="1.2" stroke-miterlimit="10" stroke-linejoin="round"/>
<path d="M419.892 89.5036H166.188C162.649 89.5036 159.78 92.356 159.78 95.8747V270.094C159.78 273.612 162.649 276.465 166.188 276.465H419.892C423.431 276.465 426.3 273.612 426.3 270.094V95.8747C426.3 92.356 423.431 89.5036 419.892 89.5036Z" fill="#001E2B" stroke="#001E2B" stroke-width="1.2" stroke-miterlimit="10"/>
<path d="M369.81 178.73V279.83C369.81 281.394 369.501 282.943 368.902 284.389C368.304 285.834 367.426 287.147 366.319 288.253C365.213 289.359 363.899 290.236 362.454 290.834C361.008 291.433 359.459 291.74 357.895 291.74H214.265" stroke="#006CFA" stroke-width="1.2" stroke-miterlimit="10" stroke-dasharray="2 2"/>
<path d="M371.688 177.324C371.687 176.953 371.577 176.589 371.371 176.28C371.164 175.971 370.87 175.73 370.527 175.587C370.183 175.445 369.805 175.408 369.441 175.48C369.076 175.553 368.741 175.732 368.478 175.995C368.215 176.258 368.036 176.593 367.964 176.958C367.891 177.322 367.928 177.7 368.071 178.044C368.213 178.387 368.454 178.681 368.763 178.888C369.072 179.094 369.436 179.204 369.807 179.204C370.306 179.204 370.784 179.006 371.137 178.654C371.489 178.301 371.687 177.823 371.688 177.324V177.324Z" fill="#006CFA"/>
<path d="M370.718 235.53H400.888C403.407 235.53 405.824 234.529 407.605 232.748C409.387 230.966 410.388 228.55 410.388 226.03V198.22" stroke="#006CFA" stroke-width="1.2" stroke-miterlimit="10" stroke-dasharray="2 2"/>
<path d="M408.504 198.309C408.504 197.937 408.614 197.574 408.821 197.265C409.027 196.955 409.321 196.714 409.664 196.572C410.008 196.43 410.386 196.393 410.75 196.465C411.115 196.538 411.45 196.717 411.713 196.98C411.976 197.243 412.155 197.578 412.228 197.942C412.3 198.307 412.263 198.685 412.121 199.028C411.978 199.372 411.737 199.666 411.428 199.872C411.119 200.079 410.755 200.189 410.384 200.189C409.885 200.188 409.408 199.989 409.056 199.637C408.703 199.285 408.505 198.807 408.504 198.309V198.309Z" fill="#006CFA"/>
<path d="M323.798 291.74V303.74C323.799 304.448 323.66 305.149 323.389 305.803C323.118 306.457 322.721 307.052 322.221 307.552C321.72 308.053 321.126 308.45 320.471 308.721C319.817 308.991 319.116 309.13 318.408 309.13H296.948" stroke="#006CFA" stroke-width="1.2" stroke-miterlimit="10" stroke-dasharray="2 2"/>
<path d="M297.039 310.999C296.001 310.999 295.159 310.158 295.159 309.119C295.159 308.081 296.001 307.239 297.039 307.239C298.077 307.239 298.919 308.081 298.919 309.119C298.919 310.158 298.077 310.999 297.039 310.999Z" fill="#006CFA"/>
<path d="M214.384 293.704C213.345 293.704 212.504 292.862 212.504 291.824C212.504 290.786 213.345 289.944 214.384 289.944C215.422 289.944 216.264 290.786 216.264 291.824C216.264 292.862 215.422 293.704 214.384 293.704Z" fill="#006CFA"/>
<path d="M277.55 160.025V78.8147C277.55 77.2503 277.858 75.7011 278.457 74.2558C279.056 72.8105 279.933 71.4973 281.04 70.3913C282.146 69.2853 283.46 68.4081 284.906 67.8099C286.351 67.2117 287.9 66.9041 289.465 66.9048H393.316" stroke="#006CFA" stroke-width="1.2" stroke-miterlimit="10" stroke-dasharray="2 2"/>
<path d="M275.667 161.431C275.667 161.802 275.777 162.166 275.984 162.475C276.19 162.784 276.484 163.025 276.828 163.167C277.171 163.31 277.549 163.347 277.914 163.274C278.278 163.202 278.613 163.023 278.876 162.76C279.139 162.497 279.318 162.162 279.391 161.797C279.463 161.433 279.426 161.055 279.284 160.711C279.142 160.368 278.901 160.074 278.591 159.867C278.282 159.661 277.919 159.551 277.547 159.551C277.048 159.551 276.57 159.749 276.218 160.101C275.865 160.454 275.667 160.932 275.667 161.431V161.431Z" fill="#006CFA"/>
<path d="M276.642 123.114H246.472C243.952 123.114 241.536 124.115 239.754 125.897C237.973 127.678 236.972 130.095 236.972 132.614V140.535" stroke="#006CFA" stroke-width="1.2" stroke-miterlimit="10" stroke-dasharray="2 2"/>
<path d="M238.856 140.445C238.856 140.816 238.745 141.18 238.539 141.489C238.332 141.798 238.039 142.039 237.695 142.181C237.352 142.324 236.974 142.361 236.609 142.288C236.244 142.216 235.909 142.037 235.646 141.774C235.383 141.511 235.204 141.176 235.132 140.811C235.059 140.447 235.097 140.069 235.239 139.725C235.381 139.382 235.622 139.088 235.931 138.881C236.24 138.675 236.604 138.565 236.976 138.565C237.474 138.566 237.951 138.764 238.304 139.117C238.656 139.469 238.854 139.946 238.856 140.445V140.445Z" fill="#006CFA"/>
<path d="M323.562 66.9048V54.9048C323.561 54.1968 323.7 53.4956 323.97 52.8413C324.241 52.1871 324.638 51.5926 325.139 51.092C325.639 50.5914 326.234 50.1943 326.888 49.9237C327.542 49.6531 328.244 49.5141 328.952 49.5148H350.412" stroke="#006CFA" stroke-width="1.2" stroke-miterlimit="10" stroke-dasharray="2 2"/>
<path d="M350.318 47.6443C351.356 47.6443 352.197 48.486 352.197 49.5243C352.197 50.5626 351.356 51.4043 350.318 51.4043C349.279 51.4043 348.438 50.5626 348.438 49.5243C348.438 48.486 349.279 47.6443 350.318 47.6443Z" fill="#006CFA"/>
<path d="M393.88 64.9998C394.918 64.9998 395.76 65.8415 395.76 66.8798C395.76 67.9181 394.918 68.7598 393.88 68.7598C392.842 68.7598 392 67.9181 392 66.8798C392 65.8415 392.842 64.9998 393.88 64.9998Z" fill="#006CFA"/>
<path d="M409.145 78.9128H156.309C152.783 78.9128 149.924 81.7716 149.924 85.2982V259.905C149.924 263.431 152.783 266.29 156.309 266.29H409.145C412.672 266.29 415.53 263.431 415.53 259.905V85.2982C415.53 81.7716 412.672 78.9128 409.145 78.9128Z" fill="white" stroke="#001E2B" stroke-width="1.2" stroke-miterlimit="10"/>
<path d="M157.236 88.4518C158.724 88.4518 159.93 87.2459 159.93 85.7583C159.93 84.2707 158.724 83.0648 157.236 83.0648C155.749 83.0648 154.543 84.2707 154.543 85.7583C154.543 87.2459 155.749 88.4518 157.236 88.4518Z" fill="#006CFA"/>
<path d="M164.804 88.4518C166.291 88.4518 167.497 87.2459 167.497 85.7583C167.497 84.2707 166.291 83.0648 164.804 83.0648C163.316 83.0648 162.11 84.2707 162.11 85.7583C162.11 87.2459 163.316 88.4518 164.804 88.4518Z" fill="#006CFA"/>
<path d="M172.364 88.4518C173.852 88.4518 175.058 87.2459 175.058 85.7583C175.058 84.2707 173.852 83.0648 172.364 83.0648C170.877 83.0648 169.671 84.2707 169.671 85.7583C169.671 87.2459 170.877 88.4518 172.364 88.4518Z" fill="#006CFA"/>
<path d="M149.924 92.5231H415.684" stroke="#001E2B" stroke-width="1.2" stroke-miterlimit="10"/>
<path d="M196.148 169.709C196.148 169.709 193.383 171.322 198.107 171.841C203.81 172.474 206.748 172.417 213.027 171.207C213.027 171.207 214.697 172.244 217.001 173.166C202.888 179.157 185.088 172.82 196.148 169.709Z" fill="#0074BD"/>
<path d="M194.42 161.816C194.42 161.816 191.309 164.121 196.033 164.582C202.139 165.215 206.92 165.273 215.273 163.66C215.273 163.66 216.425 164.812 218.211 165.446C201.217 170.458 182.208 165.849 194.42 161.816Z" fill="#0074BD"/>
<path d="M208.937 148.451C212.393 152.426 208.015 156.055 208.015 156.055C208.015 156.055 216.829 151.504 212.796 145.801C208.994 140.501 206.114 137.851 221.84 128.748C221.783 128.748 197.185 134.855 208.937 148.451Z" fill="#EA2D2E"/>
<path d="M227.601 175.528C227.601 175.528 229.617 177.198 225.354 178.523C217.232 181.001 191.482 181.75 184.339 178.639C181.747 177.544 186.586 175.988 188.083 175.643C189.639 175.297 190.56 175.355 190.56 175.355C187.68 173.338 172.069 179.33 182.611 181.001C211.356 185.667 235.032 178.869 227.601 175.528Z" fill="#0074BD"/>
<path d="M197.473 153.636C197.473 153.636 184.396 156.747 192.864 157.899C196.436 158.36 203.521 158.245 210.204 157.726C215.619 157.265 221.033 156.286 221.033 156.286C221.033 156.286 219.132 157.092 217.75 158.072C204.443 161.586 178.809 159.915 186.182 156.343C192.346 153.29 197.473 153.636 197.473 153.636Z" fill="#0074BD"/>
<path d="M220.918 166.771C234.455 159.742 228.176 153.002 223.798 153.924C222.704 154.154 222.243 154.327 222.243 154.327C222.243 154.327 222.646 153.693 223.395 153.463C232.036 150.41 238.66 162.393 220.63 167.174C220.687 167.117 220.86 166.944 220.918 166.771Z" fill="#0074BD"/>
<path d="M212.796 114C212.796 114 220.285 121.489 205.711 133.011C194.017 142.229 203.061 147.529 205.711 153.521C198.913 147.356 193.902 141.941 197.243 136.871C202.139 129.497 215.792 125.925 212.796 114Z" fill="#EA2D2E"/>
<path d="M198.798 185.782C211.759 186.589 231.69 185.321 232.151 179.157C232.151 179.157 231.23 181.461 221.437 183.305C210.376 185.379 196.724 185.149 188.602 183.823C188.602 183.881 190.272 185.264 198.798 185.782Z" fill="#0074BD"/>
<path d="M400 172H345V187H400V172Z" fill="#E3FCF7"/>
<path d="M459 114H257V128H459V114Z" fill="#E3FCF7"/>
<path d="M436.307 144H308.307V157H436.307V144Z" fill="#E3FCF7"/>
<path d="M294 143H257V157H294V143Z" fill="#00ED64"/>
<path d="M459 231H172V245H459V231Z" fill="#E3FCF7"/>
<path d="M330 172H257V186H330V172Z" fill="#E3FCF7"/>
<path d="M170.672 224.52L183.024 198.28H185.616L173.264 224.52H170.672ZM180.766 224.52L193.118 198.28H195.71L183.358 224.52H180.766ZM215.862 214.728C215.862 219.496 212.694 221.384 209.206 221.384C205.494 221.384 202.454 219.112 202.454 214.92H205.398C205.398 217.384 207.19 218.632 209.174 218.632C211.158 218.632 212.918 217.512 212.918 214.408V198.28H215.862V214.728ZM219.782 213C219.782 208.424 223.141 204.68 227.622 204.68C230.022 204.68 232.198 205.928 233.254 207.464V205H236.006V221H233.254V218.536C232.198 220.072 230.022 221.32 227.622 221.32C223.141 221.32 219.782 217.576 219.782 213ZM233.478 213C233.478 209.768 231.27 207.208 228.038 207.208C224.806 207.208 222.566 209.768 222.566 213C222.566 216.232 224.806 218.792 228.038 218.792C231.27 218.792 233.478 216.232 233.478 213ZM246.178 221L238.786 205H241.858L247.33 217.096L252.802 205H255.874L248.482 221H246.178ZM257.094 213C257.094 208.424 260.454 204.68 264.934 204.68C267.334 204.68 269.51 205.928 270.566 207.464V205H273.318V221H270.566V218.536C269.51 220.072 267.334 221.32 264.934 221.32C260.454 221.32 257.094 217.576 257.094 213ZM270.79 213C270.79 209.768 268.582 207.208 265.35 207.208C262.118 207.208 259.878 209.768 259.878 213C259.878 216.232 262.118 218.792 265.35 218.792C268.582 218.792 270.79 216.232 270.79 213Z" fill="#001E2B"/>
<path d="M441 202H291V217H441V202Z" fill="#E3FCF7"/>
</svg>
