<svg width="600" height="360" viewBox="0 0 600 360" fill="none" xmlns="http://www.w3.org/2000/svg">
<path d="M229.25 108.25V143.875C229.25 163.54 213.29 179.5 193.625 179.5C173.96 179.5 158 195.46 158 215.125C158 234.79 173.96 250.75 193.625 250.75H264.875C284.54 250.75 300.5 266.71 300.5 286.375C300.5 306.04 316.46 322 336.125 322L407.375 322C427.04 322 443 306.04 443 286.375L443 215.125C443 195.46 427.04 179.5 407.375 179.5C387.71 179.5 371.75 163.54 371.75 143.875C371.75 124.21 387.71 108.25 407.375 108.25C427.04 108.25 443 92.29 443 72.625C443 52.96 427.04 37 407.375 37L300.215 37C261.17 37.285 229.25 69.205 229.25 108.25Z" fill="#B1FF05"/>
<path d="M432 57C435.362 57 438.649 56.003 441.445 54.135C444.24 52.267 446.419 49.612 447.706 46.5056C448.993 43.3993 449.329 39.9811 448.673 36.6835C448.017 33.3858 446.398 30.3567 444.021 27.9792C441.643 25.6017 438.614 23.9826 435.317 23.3267C432.019 22.6707 428.601 23.0073 425.494 24.294C422.388 25.5807 419.733 27.7597 417.865 30.5553C415.997 33.3509 415 36.6377 415 40C414.998 42.233 415.437 44.4444 416.29 46.5078C417.144 48.5711 418.396 50.446 419.975 52.0249C421.554 53.6039 423.429 54.856 425.492 55.7097C427.556 56.5634 429.767 57.0018 432 57V57Z" fill="white" stroke="#001E2B" stroke-width="1.2" stroke-miterlimit="10"/>
<path d="M421.693 53.5554C421.693 53.5554 443.156 46.3454 446.238 30.5587C449.85 35.5374 451.398 46.8614 443.323 52.8721C435.249 58.8828 427.355 56.8188 421.693 53.5554Z" fill="#001E2B"/>
<path d="M176.575 307L187.289 316.481L197.994 325.854L184.497 330.432L171 334.964L173.783 321.023L176.575 307Z" fill="white" stroke="#001E2B" stroke-width="1.2" stroke-miterlimit="10"/>
<path d="M181.705 322.174L171 335L197.994 325.854L181.705 322.174Z" fill="#001E2B"/>
<path d="M181.706 322.174L176.575 307" stroke="#001E2B" stroke-width="1.2" stroke-miterlimit="10"/>
<path d="M419.892 89.5036H166.188C162.649 89.5036 159.78 92.3561 159.78 95.8747V270.094C159.78 273.612 162.649 276.465 166.188 276.465H419.892C423.431 276.465 426.3 273.612 426.3 270.094V95.8747C426.3 92.3561 423.431 89.5036 419.892 89.5036Z" fill="#001E2B" stroke="#001E2B" stroke-width="1.2" stroke-miterlimit="10"/>
<path d="M200.958 178.73V279.83C200.958 281.394 201.266 282.943 201.865 284.389C202.464 285.834 203.342 287.147 204.448 288.253C205.555 289.359 206.868 290.236 208.314 290.834C209.759 291.433 211.309 291.74 212.873 291.74H356.503" stroke="#00684A" stroke-width="1.2" stroke-miterlimit="10" stroke-dasharray="2 2"/>
<path d="M199.08 177.324C199.08 176.953 199.19 176.589 199.397 176.28C199.604 175.971 199.897 175.73 200.241 175.587C200.584 175.445 200.962 175.408 201.327 175.48C201.692 175.553 202.027 175.732 202.289 175.995C202.552 176.258 202.731 176.593 202.804 176.958C202.876 177.322 202.839 177.7 202.697 178.044C202.555 178.387 202.314 178.681 202.005 178.888C201.695 179.094 201.332 179.204 200.96 179.204C200.461 179.204 199.983 179.006 199.631 178.654C199.278 178.301 199.08 177.823 199.08 177.324V177.324Z" fill="#00684A"/>
<path d="M200.05 235.53H169.88C167.36 235.53 164.944 234.529 163.162 232.748C161.381 230.966 160.38 228.55 160.38 226.03V198.22" stroke="#00684A" stroke-width="1.2" stroke-miterlimit="10" stroke-dasharray="2 2"/>
<path d="M162.264 198.309C162.264 197.937 162.154 197.574 161.947 197.265C161.74 196.955 161.447 196.714 161.103 196.572C160.76 196.43 160.382 196.393 160.017 196.465C159.652 196.538 159.317 196.717 159.055 196.98C158.792 197.243 158.613 197.578 158.54 197.942C158.467 198.307 158.505 198.685 158.647 199.028C158.789 199.372 159.03 199.666 159.339 199.872C159.649 200.079 160.012 200.189 160.384 200.189C160.882 200.188 161.36 199.989 161.712 199.637C162.064 199.285 162.263 198.807 162.264 198.309V198.309Z" fill="#00684A"/>
<path d="M246.97 291.74V303.74C246.969 304.448 247.108 305.149 247.379 305.803C247.649 306.457 248.046 307.052 248.547 307.552C249.048 308.053 249.642 308.45 250.296 308.721C250.951 308.991 251.652 309.13 252.36 309.13H273.82" stroke="#00684A" stroke-width="1.2" stroke-miterlimit="10" stroke-dasharray="2 2"/>
<path d="M273.729 310.999C274.767 310.999 275.609 310.157 275.609 309.119C275.609 308.081 274.767 307.239 273.729 307.239C272.69 307.239 271.849 308.081 271.849 309.119C271.849 310.157 272.69 310.999 273.729 310.999Z" fill="#00684A"/>
<path d="M356.384 293.704C357.422 293.704 358.264 292.862 358.264 291.824C358.264 290.786 357.422 289.944 356.384 289.944C355.346 289.944 354.504 290.786 354.504 291.824C354.504 292.862 355.346 293.704 356.384 293.704Z" fill="#00684A"/>
<path d="M284.958 177.714V76.6137C284.958 75.0492 285.266 73.5001 285.865 72.0548C286.464 70.6095 287.342 69.2963 288.448 68.1903C289.555 67.0843 290.868 66.2071 292.314 65.6089C293.759 65.0106 295.309 64.7031 296.873 64.7037L400.503 64.7037" stroke="#00684A" stroke-width="1.2" stroke-miterlimit="10" stroke-dasharray="2 2"/>
<path d="M283.08 179.119C283.08 179.491 283.19 179.854 283.397 180.163C283.604 180.473 283.897 180.714 284.241 180.856C284.584 180.998 284.962 181.035 285.327 180.963C285.692 180.89 286.027 180.711 286.289 180.448C286.552 180.185 286.731 179.85 286.804 179.486C286.876 179.121 286.839 178.743 286.697 178.4C286.555 178.056 286.314 177.762 286.005 177.556C285.695 177.349 285.332 177.239 284.96 177.239C284.461 177.239 283.983 177.437 283.631 177.79C283.278 178.142 283.08 178.62 283.08 179.119V179.119Z" fill="#00684A"/>
<path d="M284.05 120.913H253.88C251.36 120.913 248.944 121.914 247.162 123.696C245.381 125.477 244.38 127.894 244.38 130.413V158.223" stroke="#00684A" stroke-width="1.2" stroke-miterlimit="10" stroke-dasharray="2 2"/>
<path d="M246.264 158.134C246.264 158.506 246.154 158.87 245.947 159.179C245.74 159.488 245.447 159.729 245.103 159.871C244.76 160.014 244.382 160.051 244.017 159.978C243.652 159.906 243.317 159.727 243.055 159.464C242.792 159.201 242.613 158.866 242.54 158.501C242.467 158.136 242.505 157.758 242.647 157.415C242.789 157.071 243.03 156.778 243.339 156.571C243.649 156.365 244.012 156.254 244.384 156.254C244.882 156.256 245.36 156.454 245.712 156.806C246.064 157.159 246.263 157.636 246.264 158.134V158.134Z" fill="#00684A"/>
<path d="M330.97 64.7037V52.7037C330.969 51.9957 331.108 51.2945 331.379 50.6402C331.649 49.986 332.046 49.3915 332.547 48.8909C333.048 48.3903 333.642 47.9932 334.296 47.7226C334.951 47.452 335.652 47.313 336.36 47.3137H357.82" stroke="#00684A" stroke-width="1.2" stroke-miterlimit="10" stroke-dasharray="2 2"/>
<path d="M357.729 45.4442C358.767 45.4442 359.609 46.2859 359.609 47.3242C359.609 48.3625 358.767 49.2042 357.729 49.2042C356.69 49.2042 355.849 48.3625 355.849 47.3242C355.849 46.2859 356.69 45.4442 357.729 45.4442Z" fill="#00684A"/>
<path d="M400.384 62.739C401.422 62.739 402.264 63.5807 402.264 64.619C402.264 65.6573 401.422 66.499 400.384 66.499C399.346 66.499 398.504 65.6573 398.504 64.619C398.504 63.5807 399.346 62.739 400.384 62.739Z" fill="#00684A"/>
<path d="M409.145 78.9128H156.309C152.783 78.9128 149.924 81.7716 149.924 85.2982V259.905C149.924 263.431 152.783 266.29 156.309 266.29H409.145C412.672 266.29 415.53 263.431 415.53 259.905V85.2982C415.53 81.7716 412.672 78.9128 409.145 78.9128Z" fill="white" stroke="#001E2B" stroke-width="1.2" stroke-miterlimit="10"/>
<path d="M157.236 88.4518C158.724 88.4518 159.93 87.2459 159.93 85.7583C159.93 84.2707 158.724 83.0648 157.236 83.0648C155.749 83.0648 154.543 84.2707 154.543 85.7583C154.543 87.2459 155.749 88.4518 157.236 88.4518Z" fill="#00684A"/>
<path d="M164.804 88.4518C166.291 88.4518 167.497 87.2459 167.497 85.7583C167.497 84.2707 166.291 83.0648 164.804 83.0648C163.316 83.0648 162.11 84.2707 162.11 85.7583C162.11 87.2459 163.316 88.4518 164.804 88.4518Z" fill="#00684A"/>
<path d="M172.364 88.4518C173.852 88.4518 175.058 87.2459 175.058 85.7583C175.058 84.2707 173.852 83.0648 172.364 83.0648C170.877 83.0648 169.671 84.2707 169.671 85.7583C169.671 87.2459 170.877 88.4518 172.364 88.4518Z" fill="#00684A"/>
<path d="M149.924 92.5231H415.684" stroke="#001E2B" stroke-width="1.2" stroke-miterlimit="10"/>
<path d="M400 172H345V187H400V172Z" fill="#E3FCF7"/>
<path d="M459 114H257V128H459V114Z" fill="#E3FCF7"/>
<path d="M436.307 144H308.307V157H436.307V144Z" fill="#E3FCF7"/>
<path d="M294 143H257V157H294V143Z" fill="#00ED64"/>
<path d="M459 231H172V245H459V231Z" fill="#E3FCF7"/>
<path d="M330 172H257V186H330V172Z" fill="#E3FCF7"/>
<path d="M170.672 224.52L183.024 198.28H185.616L173.264 224.52H170.672ZM180.766 224.52L193.118 198.28H195.71L183.358 224.52H180.766ZM204.126 214.92H207.102C207.358 217.448 209.854 218.6 211.998 218.6C214.366 218.6 216.286 217.32 216.286 215.208C216.286 213.416 215.166 212.168 213.054 211.4L209.918 210.248C206.398 209 204.702 207.048 204.67 203.848C204.67 200.136 207.614 197.896 211.582 197.896C216.19 197.896 218.462 201.064 218.75 204.04H215.806C215.23 201.672 213.374 200.68 211.518 200.68C209.342 200.68 207.646 201.864 207.646 203.752C207.646 205.672 208.702 206.632 210.91 207.432L213.822 208.488C217.278 209.736 219.262 211.72 219.262 215.112C219.262 218.952 216.254 221.384 212.03 221.384C207.262 221.384 204.254 218.376 204.126 214.92ZM238.479 215.368C237.583 218.824 234.447 221.32 230.415 221.32C225.551 221.32 222.063 217.576 222.063 213C222.063 208.424 225.551 204.68 230.415 204.68C234.447 204.68 237.583 207.176 238.479 210.632H235.535C234.831 208.616 232.911 207.208 230.415 207.208C227.087 207.208 224.847 209.768 224.847 213C224.847 216.232 227.087 218.792 230.415 218.792C232.911 218.792 234.831 217.384 235.535 215.368H238.479ZM240.875 213C240.875 208.424 244.235 204.68 248.715 204.68C251.115 204.68 253.291 205.928 254.347 207.464V205H257.099V221H254.347V218.536C253.291 220.072 251.115 221.32 248.715 221.32C244.235 221.32 240.875 217.576 240.875 213ZM254.571 213C254.571 209.768 252.363 207.208 249.131 207.208C245.899 207.208 243.659 209.768 243.659 213C243.659 216.232 245.899 218.792 249.131 218.792C252.363 218.792 254.571 216.232 254.571 213ZM262.28 221V197H265.032V221H262.28ZM269 213C269 208.424 272.36 204.68 276.84 204.68C279.24 204.68 281.416 205.928 282.472 207.464V205H285.224V221H282.472V218.536C281.416 220.072 279.24 221.32 276.84 221.32C272.36 221.32 269 217.576 269 213ZM282.696 213C282.696 209.768 280.488 207.208 277.256 207.208C274.024 207.208 271.784 209.768 271.784 213C271.784 216.232 274.024 218.792 277.256 218.792C280.488 218.792 282.696 216.232 282.696 213Z" fill="#001E2B"/>
<path d="M441 202H303V217H441V202Z" fill="#E3FCF7"/>
<path d="M225 111V126.002C225 126.002 225 132.249 188 136.012V121.01C188 121.01 225 117.247 225 111Z" fill="#DA3832"/>
<path d="M188 141.004C188 141.004 225 137.266 225 130.994V145.996C225 145.996 225 152.243 188 156.006V141.004Z" fill="#DA3832"/>
<path d="M188 176V160.998C188 160.998 225 157.26 225 150.988V165.99C225 165.99 225 172.262 188 176Z" fill="#DA3832"/>
</svg>
