<svg width="72" height="72" viewBox="0 0 72 72" fill="none" xmlns="http://www.w3.org/2000/svg">
<path d="M68 20H4V12.1C4 10.9 4.9 10 6.1 10H65.9C67.1 10 68 10.9 68 12.1V20Z" fill="#00ED64"/>
<path fill-rule="evenodd" clip-rule="evenodd" d="M3.5 12C3.5 10.6232 4.62584 9.5 6.00289 9.5H65.9895C67.3016 9.5 68.3857 10.5198 68.485 11.807C68.4949 11.9029 68.5 12.0007 68.5 12.1V20C68.5 20.0298 68.4974 20.059 68.4924 20.0874V59.8802C68.6047 61.3687 67.4693 62.5 66.0896 62.5H6.00289C4.62584 62.5 3.5 61.3768 3.5 60V12ZM6.1 10.5C5.17614 10.5 4.5 11.1761 4.5 12.1V19.5H67.4924V12C67.4924 11.9655 67.4912 11.9312 67.4889 11.8972C67.3976 11.0789 66.7548 10.5 65.9 10.5H6.1ZM67.4924 20.5H4.5V60C4.5 60.8232 5.17676 61.5 6.00289 61.5H66.0896C66.9065 61.5 67.5693 60.8423 67.4941 59.9416C67.493 59.9278 67.4924 59.9139 67.4924 59.9V20.5Z" fill="#001E2B"/>
<path fill-rule="evenodd" clip-rule="evenodd" d="M31 28.5C29.5761 28.5 28.5 29.5762 28.5 31V35C28.5 36.4239 29.5761 37.5 31 37.5C32.4131 37.5 33.5 36.3348 33.5 35V31C33.5 29.5762 32.4239 28.5 31 28.5ZM27.5 31C27.5 29.0239 29.0239 27.5 31 27.5C32.9761 27.5 34.5 29.0239 34.5 31V35C34.5 36.8653 32.9869 38.5 31 38.5C29.0239 38.5 27.5 36.9762 27.5 35V31ZM17.5 38V28H18.5V38H17.5ZM43.5 38V28H44.5V38H43.5ZM53.5 38V28H54.5V38H53.5ZM31 44.5C29.5761 44.5 28.5 45.5762 28.5 47V51C28.5 52.4239 29.5761 53.5 31 53.5C32.4131 53.5 33.5 52.3348 33.5 51V47C33.5 45.5762 32.4239 44.5 31 44.5ZM27.5 47C27.5 45.0239 29.0239 43.5 31 43.5C32.9761 43.5 34.5 45.0239 34.5 47V51C34.5 52.8653 32.9869 54.5 31 54.5C29.0239 54.5 27.5 52.9762 27.5 51V47ZM17.5 54V44H18.5V54H17.5ZM43.5 54V44H44.5V54H43.5ZM53.5 54V44H54.5V54H53.5Z" fill="#001E2B"/>
</svg>
