<?xml version="1.0" encoding="UTF-8"?>
<!DOCTYPE svg PUBLIC "-//W3C//DTD SVG 1.1//EN" "http://www.w3.org/Graphics/SVG/1.1/DTD/svg11.dtd">
<svg version="1.1" xmlns="http://www.w3.org/2000/svg" xmlns:xlink="http://www.w3.org/1999/xlink" x="0px" y="0px" width="700" height="250" viewBox="0, 0, 700, 250">
  <g id="Layer 1">
    <text transform="matrix(1, 0, 0, 1, 90.563, 156.541)">
      <tspan x="-36.381" y="6.5" font-family="GillSans" font-size="21" fill="#0176C0">Chunk 1</tspan>
    </text>
    <path d="M151.543,184.918 L151.543,234.918" fill-opacity="0" stroke="#BCDAED" stroke-width="1.5" stroke-dasharray="3,1.5"/>
    <path d="M302.806,184.918 L302.806,234.918" fill-opacity="0" stroke="#BCDAED" stroke-width="1.5" stroke-dasharray="3,1.5"/>
    <path d="M512.798,184.918 L512.798,234.918" fill-opacity="0" stroke="#BCDAED" stroke-width="1.5" stroke-dasharray="3,1.5"/>
    <path d="M305.218,193.303 L306.186,192.599 L308.003,191.426 L309.822,190.428 L311.7,189.56 L313.637,188.818 L315.631,188.196 L317.676,187.691 L319.767,187.297 L321.9,187.009 L324.071,186.82 L326.274,186.723 L328.506,186.71 L330.762,186.773 L333.041,186.903 L336.496,187.207 L341.146,187.769 L345.826,188.443 L350.521,189.161 L355.212,189.851 L359.882,190.441 L363.364,190.775 L365.675,190.929 L367.967,191.017 L370.245,191.03 L372.506,190.958 L374.75,190.792 L375.88,190.67 L375.88,190.67 C375.891,190.668 375.901,190.667 375.912,190.666 L375.912,190.666 L376.577,190.577 L377.934,190.347 L379.279,190.056 L380.597,189.709 L382.502,189.099 L384.943,188.129 L387.283,187.003 L389.493,185.763 L391.567,184.445 L393.497,183.089 L395.279,181.73 L396.909,180.41 L398.381,179.164 L399.691,178.032 L400.831,177.053 L401.554,176.456 L401.954,176.143 L402.304,175.888 L402.584,175.705 L402.784,175.597 L402.896,175.559 L402.85,175.587 L402.543,175.664 L402.709,175.64 L402.798,175.715 L403.166,175.897 L403.702,176.221 L404.336,176.665 L405.037,177.203 L406.171,178.14 L407.744,179.516 L408.902,180.552 L409.637,181.208 L410.325,181.812 L410.953,182.344 L411.507,182.787 L411.98,183.122 L412.2,183.254 L412.2,183.254 C412.209,183.26 412.218,183.264 412.227,183.269 L412.227,183.269 L412.875,183.606 L414.218,184.242 L415.604,184.816 L417.021,185.329 L418.47,185.784 L419.946,186.184 L422.202,186.687 L425.29,187.194 L428.455,187.537 L431.674,187.74 L434.927,187.828 L439.829,187.797 L446.33,187.579 L451.102,187.389 L454.194,187.294 L457.198,187.253 L460.097,187.289 L461.492,187.342 L461.488,187.342 L462.023,187.365 L463.186,187.4 L464.448,187.42 L465.797,187.43 L467.226,187.431 L468.729,187.426 L471.104,187.416 L474.459,187.408 L477.971,187.429 L481.579,187.5 L485.22,187.643 L488.833,187.88 L492.355,188.232 L494.895,188.584 L496.524,188.866 L498.1,189.189 L499.61,189.554 L501.046,189.966 L502.4,190.425 L503.665,190.935 L504.832,191.496 L505.894,192.112 L506.843,192.783 L507.672,193.51 L508.374,194.294 L508.665,194.695 L508.665,194.695 C508.995,195.143 509.918,194.9 510.726,194.151 C511.535,193.402 511.923,192.431 511.593,191.982 L511.238,191.504 L510.451,190.635 L509.539,189.843 L508.51,189.121 L507.373,188.466 L506.136,187.874 L504.807,187.34 L503.393,186.862 L501.903,186.437 L500.343,186.059 L498.721,185.728 L497.04,185.439 L494.438,185.079 L490.855,184.721 L487.194,184.482 L483.515,184.338 L479.881,184.267 L476.352,184.246 L472.993,184.253 L470.621,184.264 L469.126,184.268 L467.709,184.267 L466.378,184.258 L465.142,184.238 L464.005,184.205 L463.469,184.182 L463.469,184.182 C463.467,184.182 463.466,184.182 463.464,184.181 L463.464,184.181 L462.019,184.127 L459.068,184.091 L456.028,184.133 L452.916,184.228 L448.158,184.418 L441.713,184.635 L436.878,184.667 L433.692,184.582 L430.552,184.385 L427.474,184.054 L424.469,183.563 L422.275,183.076 L420.849,182.69 L419.453,182.253 L418.087,181.76 L416.753,181.208 L415.449,180.592 L414.8,180.255 L414.826,180.269 L414.677,180.183 L414.252,179.883 L413.721,179.46 L413.106,178.939 L412.424,178.34 L411.69,177.686 L410.524,176.642 L408.93,175.248 L407.766,174.288 L407.028,173.722 L406.33,173.237 L405.673,172.851 L405.014,172.581 L404.275,172.503 L404.108,172.527 L404.108,172.527 C404.011,172.541 403.908,172.566 403.802,172.603 L403.802,172.603 L403.439,172.741 L402.866,173.019 L402.314,173.347 L401.775,173.711 L401.24,174.107 L400.689,174.542 L399.86,175.228 L398.701,176.223 L397.45,177.305 L396.099,178.45 L394.645,179.633 L393.086,180.827 L391.417,182.008 L389.636,183.15 L387.737,184.227 L385.714,185.213 L383.541,186.086 L381.821,186.642 L380.644,186.955 L379.432,187.22 L378.17,187.436 L377.503,187.525 L377.534,187.521 L376.487,187.636 L374.337,187.797 L372.154,187.867 L369.94,187.856 L367.7,187.771 L365.44,187.621 L362.008,187.292 L357.371,186.707 L352.688,186.019 L347.98,185.299 L343.263,184.619 L338.558,184.052 L335.048,183.744 L332.715,183.611 L330.391,183.548 L328.078,183.563 L325.777,183.667 L323.488,183.869 L321.212,184.18 L318.947,184.611 L316.695,185.175 L314.454,185.884 L312.224,186.751 L310.007,187.791 L307.809,189.017 L305.689,190.399 L304.721,191.104 C304.721,191.104 304.721,191.104 304.721,191.104 C303.858,191.731 303.271,192.732 303.408,193.339 C303.545,193.947 304.356,193.93 305.218,193.303 L305.218,193.303" fill="#0176C0"/>
    <path d="M155.574,192.885 L156.27,192.181 L157.524,191.059 L158.737,190.142 L159.978,189.353 L161.26,188.676 L162.592,188.104 L163.975,187.634 L165.409,187.262 L166.886,186.987 L168.403,186.806 L169.953,186.712 L171.531,186.7 L173.952,186.82 L177.233,187.195 L180.558,187.753 L183.916,188.426 L187.292,189.143 L190.671,189.833 L194.041,190.425 L197.391,190.845 L199.897,191.005 L201.566,191.019 L203.22,190.947 L204.869,190.779 L205.714,190.652 L205.714,190.652 C205.729,190.65 205.744,190.647 205.76,190.644 L205.76,190.644 L206.239,190.555 L207.254,190.317 L208.756,189.844 L210.704,189.016 L212.602,187.978 L214.404,186.78 L216.094,185.467 L217.661,184.088 L219.101,182.684 L220.415,181.293 L221.606,179.953 L222.675,178.696 L223.622,177.56 L224.441,176.583 L225.117,175.815 L225.483,175.439 L225.616,175.325 L225.677,175.288 L225.61,175.356 L225.417,175.474 L224.939,175.641 L225.058,175.617 L224.907,175.694 L225.113,175.852 L225.483,176.165 L225.933,176.603 L226.434,177.138 L227.249,178.073 L228.379,179.447 L229.48,180.815 L230.236,181.742 L230.69,182.276 L231.09,182.72 L231.434,183.059 L231.6,183.199 L231.6,183.199 C231.608,183.205 231.617,183.212 231.625,183.218 L231.625,183.218 L232.092,183.555 L233.064,184.194 L234.069,184.773 L235.099,185.291 L236.677,185.957 L238.854,186.66 L241.104,187.175 L243.406,187.523 L245.745,187.729 L248.108,187.818 L251.658,187.787 L256.357,187.568 L259.796,187.378 L262.015,187.283 L264.165,187.243 L266.233,187.278 L267.222,187.331 L267.216,187.331 L267.601,187.354 L268.446,187.389 L269.841,187.416 L271.906,187.419 L274.167,187.405 L276.581,187.398 L279.103,187.419 L281.691,187.49 L284.3,187.632 L286.885,187.868 L289.403,188.218 L291.213,188.568 L292.373,188.846 L293.496,189.166 L294.571,189.528 L295.593,189.935 L296.556,190.39 L297.455,190.893 L298.284,191.448 L299.039,192.057 L299.714,192.72 L300.304,193.441 L300.806,194.22 L301.014,194.618 L301.014,194.618 C301.281,195.123 302.171,194.955 303.003,194.242 C303.834,193.53 304.292,192.543 304.025,192.038 C304.025,192.038 304.025,192.038 304.025,192.038 L303.768,191.558 L303.197,190.684 L302.535,189.884 L301.786,189.155 L300.958,188.493 L300.057,187.895 L299.089,187.356 L298.06,186.873 L296.975,186.442 L295.841,186.062 L294.662,185.727 L293.439,185.435 L291.549,185.072 L288.953,184.713 L286.302,184.473 L283.642,184.328 L281.017,184.257 L278.472,184.236 L276.053,184.243 L273.806,184.257 L271.776,184.254 L270.424,184.228 L269.613,184.195 L269.228,184.172 L269.228,184.172 C269.226,184.172 269.224,184.172 269.222,184.172 L269.222,184.172 L268.165,184.116 L266.023,184.081 L263.823,184.123 L261.576,184.219 L258.156,184.408 L253.537,184.624 L250.079,184.657 L247.807,184.573 L245.57,184.379 L243.378,184.052 L241.243,183.569 L239.167,182.903 L237.658,182.27 L236.684,181.782 L235.732,181.235 L234.798,180.623 L234.331,180.285 L234.357,180.305 L234.257,180.225 L233.954,179.929 L233.574,179.508 L233.133,178.989 L232.381,178.068 L231.273,176.691 L230.124,175.295 L229.285,174.332 L228.75,173.763 L228.242,173.273 L227.753,172.876 L227.22,172.581 L226.472,172.505 L226.352,172.529 L226.352,172.529 C226.202,172.56 226.041,172.616 225.875,172.696 L225.875,172.696 L225.453,172.924 L224.893,173.308 L224.413,173.707 L223.957,174.14 L223.35,174.777 L222.56,175.678 L221.725,176.675 L220.827,177.752 L219.865,178.886 L218.836,180.049 L217.746,181.211 L216.595,182.345 L215.388,183.425 L214.12,184.431 L212.782,185.344 L211.359,186.148 L209.806,186.828 L208.564,187.229 L207.693,187.436 L207.213,187.526 L207.259,187.518 L206.537,187.629 L205.024,187.787 L203.479,187.857 L201.915,187.847 L199.516,187.697 L196.242,187.288 L192.913,186.704 L189.545,186.016 L186.153,185.296 L182.747,184.614 L179.339,184.044 L175.944,183.66 L173.411,183.538 L171.718,183.554 L170.026,183.661 L168.333,183.87 L166.637,184.194 L164.935,184.648 L163.225,185.246 L161.509,186.005 L159.792,186.939 L158.086,188.057 L156.407,189.363 L154.827,190.796 L154.13,191.501 C153.353,192.286 153.047,193.233 153.445,193.615 C153.844,193.997 154.797,193.67 155.574,192.885 L155.574,192.885" fill="#0176C0"/>
    <text transform="matrix(1, 0, 0, 1, 232.244, 156.541)">
      <tspan x="-36.381" y="6.5" font-family="GillSans" font-size="21" fill="#0176C0">Chunk 2</tspan>
    </text>
    <g>
      <path d="M515.898,199.012 L516.661,198.308 L518.047,197.175 L519.406,196.235 L520.803,195.422 L522.25,194.723 L523.749,194.134 L525.3,193.651 L526.899,193.271 L528.541,192.991 L530.221,192.807 L531.933,192.712 L533.674,192.7 L535.438,192.762 L537.222,192.892 L539.936,193.195 L543.592,193.755 L547.276,194.428 L550.976,195.146 L554.678,195.836 L558.368,196.426 L562.034,196.846 L564.77,197.006 L566.59,197.019 L568.392,196.948 L570.186,196.78 L571.1,196.655 L571.1,196.655 C571.114,196.653 571.127,196.651 571.141,196.648 L571.141,196.648 L571.666,196.559 L572.763,196.324 L574.381,195.858 L576.474,195.044 L578.505,194.028 L580.437,192.854 L582.256,191.564 L583.951,190.201 L585.516,188.808 L586.95,187.423 L588.252,186.086 L589.423,184.83 L590.461,183.693 L591.358,182.717 L592.099,181.948 L592.505,181.568 L592.661,181.443 L592.752,181.388 L592.729,181.424 L592.576,181.511 L592.155,181.645 L592.285,181.621 L592.201,181.698 L592.447,181.863 L592.857,182.179 L593.352,182.618 L593.902,183.154 L594.795,184.09 L596.035,185.464 L596.947,186.5 L597.527,187.155 L598.07,187.76 L598.566,188.293 L599.005,188.737 L599.38,189.075 L599.56,189.212 L599.56,189.212 C599.569,189.219 599.577,189.225 599.586,189.231 L599.586,189.231 L600.097,189.568 L601.161,190.206 L602.26,190.784 L603.385,191.3 L605.111,191.964 L607.49,192.665 L609.947,193.177 L612.461,193.524 L615.017,193.729 L617.598,193.818 L621.48,193.787 L626.621,193.568 L630.389,193.378 L632.822,193.284 L635.183,193.243 L637.457,193.278 L638.546,193.332 L638.541,193.331 L638.963,193.354 L639.886,193.389 L640.887,193.41 L641.956,193.419 L643.671,193.419 L646.147,193.405 L648.792,193.398 L651.558,193.419 L654.397,193.49 L657.261,193.632 L660.1,193.868 L662.865,194.219 L664.855,194.57 L666.131,194.849 L667.365,195.17 L668.548,195.533 L669.672,195.942 L670.731,196.398 L671.72,196.903 L672.632,197.46 L673.462,198.07 L674.204,198.736 L674.853,199.458 L675.403,200.238 L675.631,200.637 L675.631,200.637 C675.915,201.127 676.815,200.938 677.641,200.216 C678.466,199.493 678.906,198.51 678.622,198.02 L678.341,197.54 L677.716,196.667 L676.991,195.869 L676.173,195.142 L675.269,194.482 L674.285,193.885 L673.228,193.347 L672.104,192.866 L670.919,192.437 L669.68,192.058 L668.393,191.724 L667.057,191.433 L664.992,191.071 L662.154,190.712 L659.255,190.472 L656.345,190.328 L653.471,190.257 L650.685,190.236 L648.034,190.243 L645.569,190.257 L643.871,190.257 L642.826,190.248 L641.857,190.228 L640.966,190.195 L640.543,190.172 L640.543,190.172 C640.541,190.172 640.54,190.172 640.538,190.172 L640.538,190.172 L639.386,190.116 L637.045,190.081 L634.639,190.123 L632.179,190.218 L628.43,190.408 L623.361,190.624 L619.563,190.657 L617.065,190.573 L614.605,190.378 L612.195,190.049 L609.846,189.564 L607.565,188.896 L605.908,188.261 L604.837,187.771 L603.792,187.223 L602.767,186.61 L602.255,186.273 L602.281,186.291 L602.17,186.209 L601.837,185.913 L601.42,185.491 L600.936,184.97 L600.398,184.372 L599.819,183.717 L598.899,182.674 L597.64,181.278 L596.721,180.316 L596.135,179.748 L595.58,179.259 L595.049,178.865 L594.485,178.578 L593.747,178.501 L593.616,178.525 L593.616,178.525 C593.483,178.549 593.341,178.594 593.194,178.659 L593.194,178.659 L592.792,178.857 L592.229,179.207 L591.726,179.588 L591.237,180.011 L590.576,180.644 L589.712,181.545 L588.796,182.541 L587.813,183.618 L586.757,184.753 L585.627,185.919 L584.426,187.087 L583.152,188.232 L581.807,189.329 L580.384,190.357 L578.875,191.294 L577.267,192.12 L575.522,192.814 L574.134,193.222 L573.165,193.432 L572.639,193.522 L572.68,193.515 L571.877,193.628 L570.205,193.787 L568.502,193.857 L566.779,193.847 L564.141,193.696 L560.547,193.286 L556.896,192.701 L553.204,192.014 L549.488,191.293 L545.76,190.613 L542.037,190.044 L539.257,189.735 L537.404,189.601 L535.555,189.538 L533.711,189.553 L531.87,189.659 L530.033,189.866 L528.197,190.185 L526.36,190.631 L524.522,191.217 L522.681,191.958 L520.841,192.87 L519.009,193.964 L517.198,195.247 L515.48,196.669 L514.716,197.374 C513.906,198.121 513.514,199.094 513.84,199.546 C514.167,199.998 515.088,199.759 515.898,199.012 L515.898,199.012" fill="#0176C0"/>
      <text transform="matrix(1, 0, 0, 1, 600.27, 156.531)">
        <tspan x="-36.381" y="6.5" font-family="GillSans" font-size="21" fill="#0176C0">Chunk 4</tspan>
      </text>
    </g>
    <path d="M21.59,192.717 L22.206,192.013 L23.306,190.901 L24.354,190.006 L25.411,189.25 L26.494,188.607 L27.619,188.064 L28.796,187.615 L30.023,187.257 L31.298,186.99 L32.615,186.813 L33.966,186.721 L35.347,186.71 L37.475,186.83 L40.365,187.204 L43.296,187.761 L46.262,188.432 L49.247,189.149 L52.236,189.839 L55.221,190.432 L58.193,190.854 L60.42,191.015 L61.909,191.03 L63.386,190.957 L64.862,190.787 L65.626,190.658 L65.626,190.658 C65.644,190.655 65.662,190.652 65.68,190.648 L65.68,190.648 L66.104,190.559 L67.023,190.316 L68.39,189.83 L70.171,188.977 L71.915,187.903 L73.56,186.67 L75.09,185.329 L76.495,183.931 L77.778,182.517 L78.943,181.124 L79.996,179.784 L80.94,178.53 L81.777,177.394 L82.502,176.417 L83.101,175.647 L83.425,175.271 L83.536,175.163 L83.571,175.145 L83.46,175.255 L83.212,175.421 L82.651,175.642 L82.756,175.619 L82.512,175.699 L82.671,175.847 L82.993,176.155 L83.389,176.591 L83.832,177.125 L84.551,178.06 L85.551,179.433 L86.525,180.802 L87.194,181.728 L87.595,182.263 L87.949,182.707 L88.255,183.047 L88.403,183.189 L88.403,183.189 C88.411,183.196 88.419,183.203 88.428,183.21 L88.428,183.21 L88.84,183.547 L89.702,184.187 L90.594,184.768 L91.507,185.288 L92.908,185.956 L94.841,186.662 L96.841,187.18 L98.888,187.53 L100.968,187.738 L103.068,187.828 L106.219,187.797 L110.385,187.578 L113.43,187.387 L115.389,187.293 L117.284,187.253 L119.105,187.288 L119.971,187.341 L119.965,187.341 L120.305,187.364 L121.056,187.399 L122.295,187.426 L124.126,187.429 L126.128,187.416 L128.262,187.408 L130.49,187.429 L132.774,187.5 L135.076,187.642 L137.355,187.877 L139.574,188.226 L141.691,188.71 L143.182,189.172 L144.121,189.53 L145.02,189.935 L145.867,190.387 L146.659,190.889 L147.388,191.441 L148.053,192.047 L148.647,192.708 L149.168,193.427 L149.611,194.205 L149.795,194.603 L149.795,194.603 C150.04,195.127 150.918,194.985 151.756,194.286 C152.595,193.588 153.076,192.597 152.831,192.073 L152.604,191.593 L152.099,190.718 L151.511,189.917 L150.846,189.185 L150.111,188.521 L149.31,187.92 L148.45,187.378 L147.535,186.893 L146.571,186.461 L145.556,186.076 L143.965,185.588 L141.747,185.085 L139.443,184.724 L137.091,184.483 L134.733,184.338 L132.406,184.267 L130.152,184.246 L128.012,184.253 L126.026,184.267 L124.235,184.264 L123.044,184.239 L122.331,184.206 L121.99,184.183 L121.99,184.183 C121.988,184.183 121.986,184.182 121.983,184.182 L121.983,184.182 L121.041,184.127 L119.137,184.091 L117.185,184.133 L115.194,184.229 L112.171,184.419 L108.096,184.635 L105.048,184.667 L103.049,184.584 L101.081,184.392 L99.153,184.067 L97.275,183.587 L95.446,182.924 L94.116,182.293 L93.258,181.807 L92.419,181.262 L91.594,180.651 L91.181,180.314 L91.206,180.335 L91.119,180.257 L90.853,179.962 L90.517,179.542 L90.127,179.023 L89.462,178.102 L88.482,176.725 L87.466,175.329 L86.723,174.365 L86.249,173.795 L85.797,173.303 L85.36,172.902 L84.865,172.597 L84.094,172.524 L83.987,172.548 L83.987,172.548 C83.811,172.588 83.62,172.663 83.426,172.769 L83.426,172.769 L82.976,173.045 L82.429,173.471 L81.985,173.889 L81.575,174.328 L81.039,174.966 L80.342,175.864 L79.603,176.861 L78.809,177.939 L77.956,179.075 L77.046,180.238 L76.084,181.398 L75.075,182.523 L74.027,183.584 L72.94,184.561 L71.808,185.439 L70.614,186.207 L69.299,186.862 L68.238,187.251 L67.49,187.453 L67.065,187.542 L67.119,187.532 L66.498,187.641 L65.177,187.798 L63.824,187.867 L62.453,187.857 L60.343,187.709 L57.455,187.301 L54.515,186.718 L51.537,186.03 L48.535,185.31 L45.518,184.627 L42.494,184.056 L39.479,183.67 L37.225,183.548 L35.713,183.564 L34.197,183.673 L32.675,183.887 L31.142,184.22 L29.597,184.687 L28.037,185.306 L26.467,186.094 L24.897,187.062 L23.347,188.213 L21.837,189.541 L20.431,190.984 L19.815,191.689 C19.092,192.515 18.904,193.414 19.394,193.698 C19.884,193.982 20.867,193.543 21.59,192.717 L21.59,192.717" fill="#0176C0"/>
    <g>
      <path d="M280.45,15.082 L312.63,15.082 L312.63,53.932 L280.45,53.932 z" fill="#FFFFFF"/>
      <path d="M280.45,15.082 L312.63,15.082 L312.63,53.932 L280.45,53.932 z" fill-opacity="0" stroke="#0176C0" stroke-width="0.929"/>
    </g>
    <text transform="matrix(1, 0, 0, 1, 296.029, 39.499)">
      <tspan x="-15.378" y="-3.5" font-family="GillSans" font-size="12" fill="#0176C0">{</tspan>
      <tspan x="-11.382" y="-3.5" font-family="GillSans" font-size="12" fill="#DE4F01">x</tspan>
      <tspan x="-5.382" y="-3.5" font-family="GillSans" font-size="12" fill="#0176C0">: 25}</tspan>
    </text>
    <g>
      <path d="M334.721,15.082 L367.21,15.082 L367.21,53.932 L334.721,53.932 z" fill="#FFFFFF"/>
      <path d="M334.721,15.082 L367.21,15.082 L367.21,53.932 L334.721,53.932 z" fill-opacity="0" stroke="#0176C0" stroke-width="0.929"/>
    </g>
    <text transform="matrix(1, 0, 0, 1, 350.449, 39.499)">
      <tspan x="-15.378" y="-3.5" font-family="GillSans" font-size="12" fill="#0176C0">{</tspan>
      <tspan x="-11.382" y="-3.5" font-family="GillSans" font-size="12" fill="#DE4F01">x</tspan>
      <tspan x="-5.382" y="-3.5" font-family="GillSans" font-size="12" fill="#0176C0">: 26}</tspan>
    </text>
    <g>
      <path d="M263.029,72.81 L435.171,72.81 L435.171,99.45 L263.029,99.45 z" fill="#DE4F01"/>
      <text transform="matrix(1, 0, 0, 1, 349.393, 86.13)">
        <tspan x="-69.955" y="7.5" font-family="GillSans" font-size="24" fill="#FFFFFF">Hash Function</tspan>
      </text>
    </g>
    <g>
      <path d="M296.1,43.63 L296.1,59.83" fill-opacity="0" stroke="#00A49E" stroke-width="2"/>
      <path d="M292.5,59.83 L296.1,69.43 L299.7,59.83 z" fill="#00A49E" fill-opacity="1" stroke="#00A49E" stroke-width="2" stroke-opacity="1"/>
    </g>
    <g>
      <path d="M350.965,43.63 L350.965,59.83" fill-opacity="0" stroke="#3F2818" stroke-width="2"/>
      <path d="M347.365,59.83 L350.965,69.43 L354.565,59.83 z" fill="#3F2818" fill-opacity="1" stroke="#3F2818" stroke-width="2" stroke-opacity="1"/>
    </g>
    <path d="M296.1,100.63 L296.1,119.794" fill-opacity="0" stroke="#00A49E" stroke-width="2"/>
    <text transform="matrix(1, 0, 0, 1, 408.932, 156.541)">
      <tspan x="-36.381" y="6.5" font-family="GillSans" font-size="21" fill="#0176C0">Chunk 3</tspan>
    </text>
    <g>
      <path d="M33.74,212.877 L138.14,212.877" fill-opacity="0" stroke="#0176C0" stroke-width="2"/>
      <path d="M33.74,209.277 L24.14,212.877 L33.74,216.477 z" fill="#0176C0" fill-opacity="1" stroke="#0176C0" stroke-width="2" stroke-opacity="1"/>
      <path d="M138.14,216.477 L147.74,212.877 L138.14,209.277 z" fill="#0176C0" fill-opacity="1" stroke="#0176C0" stroke-width="2" stroke-opacity="1"/>
    </g>
    <g>
      <path d="M165.261,212.877 L289.661,212.877" fill-opacity="0" stroke="#0176C0" stroke-width="2"/>
      <path d="M165.261,209.277 L155.661,212.877 L165.261,216.477 z" fill="#0176C0" fill-opacity="1" stroke="#0176C0" stroke-width="2" stroke-opacity="1"/>
      <path d="M289.661,216.477 L299.261,212.877 L289.661,209.277 z" fill="#0176C0" fill-opacity="1" stroke="#0176C0" stroke-width="2" stroke-opacity="1"/>
    </g>
    <g>
      <path d="M315.849,212.877 L499.249,212.877" fill-opacity="0" stroke="#0176C0" stroke-width="2"/>
      <path d="M315.849,209.277 L306.249,212.877 L315.849,216.477 z" fill="#0176C0" fill-opacity="1" stroke="#0176C0" stroke-width="2" stroke-opacity="1"/>
      <path d="M499.249,216.477 L508.849,212.877 L499.249,209.277 z" fill="#0176C0" fill-opacity="1" stroke="#0176C0" stroke-width="2" stroke-opacity="1"/>
    </g>
    <g>
      <path d="M526.017,212.877 L666.417,212.877" fill-opacity="0" stroke="#0176C0" stroke-width="2"/>
      <path d="M526.017,209.277 L516.417,212.877 L526.017,216.477 z" fill="#0176C0" fill-opacity="1" stroke="#0176C0" stroke-width="2" stroke-opacity="1"/>
      <path d="M666.417,216.477 L676.017,212.877 L666.417,209.277 z" fill="#0176C0" fill-opacity="1" stroke="#0176C0" stroke-width="2" stroke-opacity="1"/>
    </g>
    <path d="M679.298,184.918 L679.298,234.918" fill-opacity="0" stroke="#BCDAED" stroke-width="1.5" stroke-dasharray="3,1.5"/>
    <path d="M20.702,184.918 L20.702,234.918" fill-opacity="0" stroke="#BCDAED" stroke-width="1.5" stroke-dasharray="3,1.5"/>
    <path d="M297.184,118.794 L84.184,118.794" fill-opacity="0" stroke="#00A49E" stroke-width="2"/>
    <g>
      <path d="M85.184,118.794 L85.184,131.994" fill-opacity="0" stroke="#00A49E" stroke-width="2"/>
      <path d="M81.584,131.994 L85.184,141.594 L88.784,131.994 z" fill="#00A49E" fill-opacity="1" stroke="#00A49E" stroke-width="2" stroke-opacity="1"/>
    </g>
    <path d="M350.965,100.63 L350.965,118.794" fill-opacity="0" stroke="#3F2818" stroke-width="2"/>
    <path d="M349.978,118.794 L595.333,118.794" fill-opacity="0" stroke="#3F2818" stroke-width="2"/>
    <g>
      <path d="M594.267,118.794 L594.267,132.241" fill-opacity="0" stroke="#3F2818" stroke-width="2"/>
      <path d="M590.667,132.241 L594.267,141.841 L597.867,132.241 z" fill="#3F2818" fill-opacity="1" stroke="#3F2818" stroke-width="2" stroke-opacity="1"/>
    </g>
    <g>
      <path d="M387.305,15.082 L419.794,15.082 L419.794,53.932 L387.305,53.932 z" fill="#FFFFFF"/>
      <path d="M387.305,15.082 L419.794,15.082 L419.794,53.932 L387.305,53.932 z" fill-opacity="0" stroke="#0176C0" stroke-width="0.929"/>
    </g>
    <text transform="matrix(1, 0, 0, 1, 403.033, 39.499)">
      <tspan x="-15.378" y="-3.5" font-family="GillSans" font-size="12" fill="#0176C0">{</tspan>
      <tspan x="-11.382" y="-3.5" font-family="GillSans" font-size="12" fill="#DE4F01">x</tspan>
      <tspan x="-5.382" y="-3.5" font-family="GillSans" font-size="12" fill="#0176C0">: 27}</tspan>
    </text>
    <g>
      <path d="M403.549,43.63 L403.549,59.83" fill-opacity="0" stroke="#EE9C02" stroke-width="2"/>
      <path d="M399.949,59.83 L403.549,69.43 L407.149,59.83 z" fill="#EE9C02" fill-opacity="1" stroke="#EE9C02" stroke-width="2" stroke-opacity="1"/>
    </g>
    <g>
      <path d="M403.549,100.63 L403.549,131.994" fill-opacity="0" stroke="#EE9C02" stroke-width="2"/>
      <path d="M399.949,131.994 L403.549,141.594 L407.149,131.994 z" fill="#EE9C02" fill-opacity="1" stroke="#EE9C02" stroke-width="2" stroke-opacity="1"/>
    </g>
  </g>
  <defs/>
</svg>
