<svg width="1125" height="1282" xmlns:xlink="http://www.w3.org/1999/xlink" xmlns="http://www.w3.org/2000/svg" xmlns:lucid="lucid"><g transform="translate(-177.5 -119)" lucid:page-tab-id="qtE5~9RCKWiJ"><path d="M180 246a6 6 0 0 1 6-6h1108a6 6 0 0 1 6 6v1028a6 6 0 0 1-6 6H186a6 6 0 0 1-6-6z" stroke="#dfe3e8" stroke-width="5" fill="none"/><path d="M180 240h220v60H180Z" fill="none"/><use xlink:href="#a" transform="translate(206 279)"/><use xlink:href="#b" transform="translate(284.2 279)"/><path d="M746.2 283.6a8 8 0 0 1 9.6 0l80.7 60.1a4.5 4.5 0 0 1 0 7.2l-80.7 60a8 8 0 0 1-9.6 0l-80.7-60a4.5 4.5 0 0 1 0-7.2z" stroke="#3a414a" stroke-width="2" fill="#fff"/><use xlink:href="#c" transform="translate(696.5 343.2)"/><use xlink:href="#d" transform="translate(741.3 343.2)"/><use xlink:href="#e" transform="translate(727 368.6)"/><path d="M1111.3 506a6 6 0 0 1 6-6h148a6 6 0 0 1 6 6v113.4a6 6 0 0 1-6 6h-148a6 6 0 0 1-6-6z" stroke="#3a414a" stroke-width="2" fill="#fff"/><use xlink:href="#f" transform="translate(1125.4 535.2)"/><use xlink:href="#g" transform="translate(1220.1 535.2)"/><use xlink:href="#h" transform="translate(1150.1 560.5)"/><use xlink:href="#i" transform="translate(1140.3 586)"/><use xlink:href="#j" transform="translate(1166 611.3)"/><path d="M292.3 496.3a8 8 0 0 1 9.6 0l80.4 60.1a4.5 4.5 0 0 1 0 7.2L302 623.7a8 8 0 0 1-9.6 0L212 563.6a4.5 4.5 0 0 1 0-7.2z" stroke="#3a414a" stroke-width="2" fill="#fff"/><use xlink:href="#k" transform="translate(256 549)"/><use xlink:href="#l" transform="translate(236 574.4)"/><path d="M1111.3 691.4a6 6 0 0 1 6-6h148a6 6 0 0 1 6 6v108a6 6 0 0 1-6 6h-148a6 6 0 0 1-6-6z" stroke="#3a414a" stroke-width="2" fill="#fff"/><use xlink:href="#m" transform="translate(1154.9 741.4)"/><use xlink:href="#n" transform="translate(1130 766.8)"/><use xlink:href="#o" transform="translate(1211.5 766.8)"/><path d="M670 506a6 6 0 0 1 6-6h148a6 6 0 0 1 6 6v113.4a6 6 0 0 1-6 6H676a6 6 0 0 1-6-6z" stroke="#3a414a" stroke-width="2" fill="#fff"/><use xlink:href="#f" transform="translate(684.1 535.2)"/><use xlink:href="#g" transform="translate(778.9 535.2)"/><use xlink:href="#h" transform="translate(708.9 560.5)"/><use xlink:href="#i" transform="translate(699 586)"/><use xlink:href="#j" transform="translate(724.8 611.3)"/><path d="M669.5 691.4a6 6 0 0 1 6-6h148a6 6 0 0 1 6 6v108a6 6 0 0 1-6 6h-148a6 6 0 0 1-6-6z" stroke="#3a414a" stroke-width="2" fill="#fff"/><use xlink:href="#m" transform="translate(713.2 741.4)"/><use xlink:href="#n" transform="translate(688.2 766.8)"/><use xlink:href="#o" transform="translate(769.8 766.8)"/><path d="m1186.3 346.4 1.1.2 1 .4 1 .6.8.7.7.9.6 1 .4 1 .3 1v128.3h-2v-128l-.2-.7-.3-.8-.4-.6-.5-.6-.6-.5-.7-.4-.7-.3-.8-.2-.8-.1h-65.4v-2h65.5zm-346 1.9v-2h72.9v2z" stroke="#3a414a" stroke-width=".1" fill="#3a414a"/><path d="M627.4 874.9a8.9 4.8 0 0 1 8.9-4.8h218.6a8.9 4.8 0 0 1 8.8 4.8v85.6a8.9 4.8 0 0 1-8.8 4.8H636.3a8.9 4.8 0 0 1-9-4.8z" stroke="#3a414a" stroke-width="2.2" fill="#fff" style="fill:#fff;fill-opacity:1"/><path d="M840.4 348.3h-1.1v-2h1z" fill="#3a414a"/><path d="M840.4 348.3h-1.2l.1-1v-1h1.1zm-1.1-2v2h1v-2z" stroke="#3a414a" stroke-width=".1" fill="#3a414a"/><path d="m1191.3 495.8-4.7-14.3h9.3z" fill="#3a414a"/><path d="m1191.3 499-6-18.5h12zm-3.3-16.5 3.2 10 3.3-10z" stroke="#3a414a" stroke-width=".1" fill="#3a414a"/><use xlink:href="#p" transform="translate(913.2 353.8)"/><use xlink:href="#q" transform="translate(942.2 353.8)"/><use xlink:href="#r" transform="translate(989.2 353.8)"/><use xlink:href="#s" transform="translate(1045 353.8)"/><path d="M406.2 348.3H302.4l-.8.2-.7.3-.7.4-.6.5-.5.6-.4.7-.3.7-.2.8v122.7h-2v-123l.3-1 .4-1 .6-1 .7-.8.8-.8 1-.5 1-.5 1-.2h104.2zm255.4 0h-96.3v-2h96.3z" stroke="#3a414a" stroke-width=".1" fill="#3a414a"/><path d="m662.6 347.3.1 1h-1v-2h1z" fill="#3a414a"/><path d="M662.7 347.3v1h-1.1v-2h1.2zm-1-1v2h1v-2z" stroke="#3a414a" stroke-width=".1" fill="#3a414a"/><path d="m297.1 490.5-4.6-14.3h9.3z" fill="#3a414a"/><path d="m297.1 493.7-6-18.5h12zm-3.2-16.5 3.2 10 3.3-10z" stroke="#3a414a" stroke-width=".1" fill="#3a414a"/><use xlink:href="#t" transform="translate(406.2 353.8)"/><use xlink:href="#q" transform="translate(466.9 353.8)"/><use xlink:href="#u" transform="translate(513.8 353.8)"/><path d="M840.4 1066a6 6 0 0 1 6-6h148a6 6 0 0 1 6 6v108a6 6 0 0 1-6 6h-148a6 6 0 0 1-6-6z" stroke="#3a414a" stroke-width="2" fill="#fff"/><use xlink:href="#v" transform="translate(853.7 1116)"/><use xlink:href="#w" transform="translate(906.6 1116)"/><use xlink:href="#x" transform="translate(880.8 1141.3)"/><path d="M1191.3 627.4V666" stroke="#3a414a" stroke-width="2" fill="none"/><path d="M1192.3 627.4h-2v-1h2z" stroke="#3a414a" stroke-width=".1" fill="#3a414a"/><path d="m1191.3 681.2-4.7-14.2h9.3z" stroke="#3a414a" stroke-width="2" fill="#3a414a"/><path d="M500.6 1066a6 6 0 0 1 6-6h148a6 6 0 0 1 6 6v108a6 6 0 0 1-6 6h-148a6 6 0 0 1-6-6z" stroke="#3a414a" stroke-width="2" fill="#fff"/><use xlink:href="#y" transform="translate(514.4 1116)"/><use xlink:href="#z" transform="translate(560.2 1116)"/><use xlink:href="#A" transform="translate(522.3 1141.4)"/><use xlink:href="#e" transform="translate(590.5 1141.4)"/><path d="M799 120c17.7 0 32 17.9 32 40s-14.3 40-32 40h-96c-17.7 0-32-17.9-32-40s14.3-40 32-40z" stroke="#3a414a" stroke-width="2" fill="#dfe3e8"/><use xlink:href="#B" transform="translate(718.7 169.1)"/><path d="m298.1 1233 .1.8.2.8.3.7.4.7.5.6.6.5.7.4.7.3.7.2H745l1 .2 1.1.2 1 .4 1 .6.8.7.7.8.6 1 .4 1 .3 1.1v56.5h-2v-56.3l-.2-.7-.3-.7-.4-.7-.5-.6-.6-.5-.7-.4-.7-.3-.7-.2h-.9l-442.8-.1-1.1-.3-1-.4-1-.6-.8-.7-.8-.8-.5-1-.4-1-.3-1V925.6h2zm0-330h-2V627.4h2z" stroke="#3a414a" stroke-width=".1" fill="#3a414a"/><path d="M297.1 626.3h1v1h-2v-1z" fill="#3a414a"/><path d="m297.1 626.3 1-.1v1.1h-2v-1.1zm-1 1h2v-1h-2z" stroke="#3a414a" stroke-width=".1" fill="#3a414a"/><path d="m751 1315.8-4.6-14.3h9.2z" fill="#3a414a"/><path d="m751 1319-6-18.5h12Zm-3.3-16.5 3.3 10 3.2-10z" stroke="#3a414a" stroke-width=".1" fill="#3a414a"/><use xlink:href="#C" transform="translate(278.2 920.9)"/><path d="M751 480.5h-2v-20.2h2zm1-42.8h-2v-23.1h2z" stroke="#3a414a" stroke-width=".1" fill="#3a414a"/><path d="M751 413.6h1v1h-2v-1z" fill="#3a414a"/><path d="m751 413.6 1-.1v1.1h-2v-1.1zm-1 1h2v-1h-2z" stroke="#3a414a" stroke-width=".1" fill="#3a414a"/><path d="m750 495.8-4.6-14.3h9.2z" fill="#3a414a"/><path d="m750 499-6-18.5h12zm-3.3-16.5 3.3 10 3.3-10z" stroke="#3a414a" stroke-width=".1" fill="#3a414a"/><use xlink:href="#D" transform="translate(664.5 455.5)"/><use xlink:href="#q" transform="translate(739 455.5)"/><use xlink:href="#u" transform="translate(786 455.5)"/><path d="M1111.8 871.4a6 6 0 0 1 6-6h148a6 6 0 0 1 6 6v108a6 6 0 0 1-6 6h-148a6 6 0 0 1-6-6z" stroke="#3a414a" stroke-width="2" fill="#fff"/><use xlink:href="#E" transform="translate(1137 906.4)"/><use xlink:href="#F" transform="translate(1181.1 906.4)"/><use xlink:href="#G" transform="translate(1227 906.4)"/><use xlink:href="#H" transform="translate(1146.7 931.8)"/><use xlink:href="#I" transform="translate(1215 931.8)"/><use xlink:href="#J" transform="translate(1125.6 957.2)"/><use xlink:href="#e" transform="translate(1209.5 957.2)"/><path d="M1191.3 807.4V846" stroke="#3a414a" stroke-width="2" fill="none"/><path d="M1192.3 807.4h-2v-1h2z" stroke="#3a414a" stroke-width=".1" fill="#3a414a"/><path d="m1191.3 861.2-4.7-14.2h9.3z" stroke="#3a414a" stroke-width="2" fill="#3a414a"/><path d="M460 508.7a6 6 0 0 1 6-6h148a6 6 0 0 1 6 6v108a6 6 0 0 1-6 6H466a6 6 0 0 1-6-6z" stroke="#3a414a" stroke-width="2" fill="#fff"/><use xlink:href="#y" transform="translate(473.7 558.7)"/><use xlink:href="#z" transform="translate(519.6 558.7)"/><use xlink:href="#J" transform="translate(473.9 584)"/><use xlink:href="#e" transform="translate(557.7 584)"/><path d="M750 627.4V666" stroke="#3a414a" stroke-width="2" fill="none"/><path d="M751 627.4h-2v-1h2z" stroke="#3a414a" stroke-width=".1" fill="#3a414a"/><path d="m750 681.2-4.6-14.2h9.2z" stroke="#3a414a" stroke-width="2" fill="#3a414a"/><path style="color:#000;fill:#3a414a;-inkscape-stroke:none" d="M921.4 1040.5h-2V1021h2zm-6-108.7 1.1.3 1 .4 1 .5.8.8.7.8.6 1 .4 1 .3 1V976h-2v-38.1l-.2-.7-.3-.8-.4-.6-.5-.6-.6-.5-.7-.4-.7-.3-.8-.2h-.8l-39.3-2.2v.1h2.6z"/><path style="color:#000;fill:#3a414a;-inkscape-stroke:none" d="M875 931.5v.2h3l36.3 2 .8.1.5.1-.5-.1-.8-.1-35.3-2 36.5.1-37.5-.1zm40.5.3 1 .3 1 .4 1 .6.8.7.7.8.6 1 .4 1 .3 1V976h-2v-38l-.2-.7-.3-.8-.4-.6-.5-.6-.6-.5-.7-.4-.7-.3-.3-.1.3.1.7.3.7.4.6.5.5.6.4.7.3.7.2.7v38h2v-38.2l-.2-1.1-.5-1-.5-1-.8-.8-.8-.8-41 .5 1.2-2.5zm-40.4-.2 2 .1 40.2 1zm44.2 89.4v19.6h2v-1 1h-2V1021h1z"/><path d="m920.4 1055.8-4.7-14.3h9.3Z" fill="#3a414a"/><path d="m920.4 1059-6-18.5h12zm-3.3-16.5 3.3 10 3.2-10z" stroke="#3a414a" stroke-width=".1" fill="#3a414a"/><use xlink:href="#K" transform="translate(862.2 993.7)"/><use xlink:href="#L" transform="translate(903 993.7)"/><use xlink:href="#M" transform="translate(850.2 1016.3)"/><use xlink:href="#N" transform="translate(903.7 1016.3)"/><use xlink:href="#O" transform="translate(946.9 1016.3)"/><path d="M581.6 1040.5h-2v-18.4h2zm33.7-107.9-28.6 1.1h-.9l-.7.3-.7.3-.7.4-.6.5-.5.6-.4.7-.3.7-.2.7v39h-2v-39.2l.3-1.1.4-1 .6-1 .7-.8.8-.8 1-.5 31.3-1.5-1.1.8 1 1 1.7-1z" stroke="#3a414a" stroke-width=".1" fill="#3a414a"/><path d="m580.6 1055.8-4.6-14.3h9.3z" fill="#3a414a"/><path d="m580.6 1059-6-18.5h12zm-3.2-16.5 3.2 10 3.3-10z" stroke="#3a414a" stroke-width=".1" fill="#3a414a"/><use xlink:href="#K" transform="translate(496.6 994.8)"/><use xlink:href="#P" transform="translate(537.4 994.8)"/><use xlink:href="#Q" transform="translate(617.3 994.8)"/><use xlink:href="#R" transform="translate(499 1017.3)"/><use xlink:href="#S" transform="translate(520 1017.3)"/><use xlink:href="#N" transform="translate(575.5 1017.3)"/><use xlink:href="#O" transform="translate(618.7 1017.3)"/><path d="M402 561h-15.9v-2h16zm38.5 0h-9.7v-2h9.7z" stroke="#3a414a" stroke-width=".1" fill="#3a414a"/><path d="M386.2 561H385l.1-1v-1h1z" fill="#3a414a"/><path d="M386.2 561H385l.1-1-.1-1h1.2zm-1.1-2v2h1v-2Z" stroke="#3a414a" stroke-width=".1" fill="#3a414a"/><path d="m455.8 560-14.3 4.6v-9.2z" fill="#3a414a"/><path d="m459 560-18.5 6v-12zm-16.5 3.3 10-3.3-10-3.3z" stroke="#3a414a" stroke-width=".1" fill="#3a414a"/><use xlink:href="#T" transform="translate(402 566.5)"/><path d="M622 562.7h28.5" stroke="#3a414a" stroke-width="2" fill="none"/><path d="M622 563.7h-1v-2h1Z" stroke="#3a414a" stroke-width=".1" fill="#3a414a"/><path d="m665.8 562.7-14.3 4.7V558z" stroke="#3a414a" stroke-width="2" fill="#3a414a"/><path d="M799 1320c17.7 0 32 17.9 32 40s-14.3 40-32 40h-96c-17.7 0-32-17.9-32-40s14.3-40 32-40z" stroke="#3a414a" stroke-width="2" fill="#dfe3e8"/><use xlink:href="#U" transform="translate(683.7 1369.1)"/><use xlink:href="#V" transform="translate(772.7 1369.1)"/><path d="M580.6 1182v51a6 6 0 0 0 6 6H745a6 6 0 0 1 6 6v55.5" stroke="#3a414a" stroke-width="2" fill="none"/><path d="M581.6 1182h-2v-1h2z" stroke="#3a414a" stroke-width=".1" fill="#3a414a"/><path d="m751 1315.8-4.6-14.3h9.2z" stroke="#3a414a" stroke-width="2" fill="#3a414a"/><path d="M749.5 807.4v40.5" stroke="#3a414a" stroke-width="2" fill="none"/><path d="M750.5 807.4h-2v-1h2z" stroke="#3a414a" stroke-width=".1" fill="#3a414a"/><path d="m749.5 863.2-4.6-14.3h9.2z" stroke="#3a414a" stroke-width="2" fill="#3a414a"/><path d="M751 202v60.5" stroke="#3a414a" stroke-width="2" fill="none"/><path d="M752 202h-2v-1h2z" stroke="#3a414a" stroke-width=".1" fill="#3a414a"/><path d="m751 277.8-4.6-14.3h9.2z" stroke="#3a414a" stroke-width="2" fill="#3a414a"/><path d="m1192.8 1232.6-.1 1-.3 1.1-.4 1-.6 1-.7.8-.8.7-1 .6-1 .4-1 .3H757l-.8.1-.7.2-.8.3-.6.4-.6.5-.5.6-.5.7-.3.7-.1.7-.1 56.8h-2v-57l.3-1.1.4-1 .6-1 .7-.8.9-.7 1-.6 1-.4 1-.2 1-.1 429.7-.1.7-.2.7-.3.7-.4.6-.5.5-.6.4-.7.3-.7.2-.7v-246h2z" stroke="#3a414a" stroke-width=".1" fill="#3a414a"/><path d="M1192.8 987.4h-2v-1h2z" fill="#3a414a"/><path d="M1192.8 987.5h-2v-1.1h2zm-2-1v.9h2v-1z" stroke="#3a414a" stroke-width=".1" fill="#3a414a"/><path d="m751 1315.8-4.6-14.3h9.2z" fill="#3a414a"/><path d="m751 1319-6-18.5h12Zm-3.3-16.5 3.3 10 3.2-10z" stroke="#3a414a" stroke-width=".1" fill="#3a414a"/><path d="M920.4 1182v50.6a6 6 0 0 1-6 6H757a6 6 0 0 0-6 6v55.9" stroke="#3a414a" stroke-width="2" fill="none"/><path d="M921.4 1182h-2v-1h2z" stroke="#3a414a" stroke-width=".1" fill="#3a414a"/><path d="m751 1315.8-4.6-14.3h9.2z" stroke="#3a414a" stroke-width="2" fill="#3a414a"/><defs><path fill="#3a414a" d="M402 12C199 12 35-153 35-355s164-367 367-367c202 0 367 165 367 367 0 69-19 133-52 188L922 0H697l-75-61c-62 46-138 73-220 73ZM195-355c-4 147 156 264 299 190l-101-82 90-110 107 87c62-143-45-300-188-298-116 0-207 98-207 213" id="W"/><path fill="#3a414a" d="M245 11C121 11 56-79 56-215v-285h151v259c0 73 21 115 77 115 57 0 94-39 94-131v-243h151V0H378v-51c-24 35-68 62-133 62" id="X"/><path fill="#3a414a" d="M297 11C142 11 32-99 32-251c0-150 114-260 265-260 144 0 273 98 267 296H179c7 51 45 96 126 96 44 0 84-20 96-47h158C527-62 423 11 297 11Zm100-322c-30-118-194-95-214 0h214" id="Y"/><path fill="#3a414a" d="M62 0v-500h151v75c22-57 90-98 168-75v153c-89-36-168 9-168 110V0H62" id="Z"/><path fill="#3a414a" d="M267 209H104L208-29 0-500h165l124 309 123-309h166" id="aa"/><path fill="#3a414a" d="M566-467c0 137-107 242-250 242h-82V0H75v-710h241c143 0 250 106 250 243zm-154 0c0-53-41-93-98-93h-80v186h80c57 0 98-41 98-93" id="ab"/><path fill="#3a414a" d="M62 0v-750h151V0H62" id="ac"/><path fill="#3a414a" d="M264 11C133 11 32-108 32-250s101-261 232-261c67 0 116 34 136 61v-50h151V0H400v-50c-20 27-69 61-136 61zm34-137c68 0 114-52 114-124s-46-124-114-124-114 52-114 124 46 124 114 124" id="ad"/><path fill="#3a414a" d="M62 0v-500h151v51c24-34 74-62 139-62 123 0 194 91 194 222V0H395v-263c0-69-27-111-81-111-57 0-101 41-101 131V0H62" id="ae"/><path fill="#3a414a" d="M94 0v-710h413v88H187v215h253v88H187V0H94" id="af"/><path fill="#3a414a" d="M185-695c0 34-26 61-60 61s-62-27-62-61c0-33 28-61 62-61s60 28 60 61zM81 0v-500h86V0H81" id="ag"/><path fill="#3a414a" d="M81 0v-500h86v77c34-59 94-87 159-87 112 0 189 78 189 202V0h-85v-295c0-84-48-136-118-136-81 0-145 66-145 183V0H81" id="ah"/><path fill="#3a414a" d="M42-250c0-143 105-260 245-260 75 0 143 39 176 87v-327h86V0h-86v-77c-33 48-101 87-176 87C147 10 42-107 42-250Zm428 0c0-101-69-181-170-181s-171 80-171 181S199-69 300-69s170-80 170-181" id="ai"/><path fill="#3a414a" d="M46-355c0-207 160-367 368-367 179 0 309 117 340 246h-98c-31-89-124-158-242-158-158 0-275 122-275 279S256-76 414-76c118 0 211-69 242-158h98C723-105 593 12 414 12 206 12 46-148 46-355" id="aj"/><path fill="#3a414a" d="M42-250c0-143 105-260 245-260 75 0 143 39 176 87v-77h86V0h-86v-77c-33 48-101 87-176 87C147 10 42-107 42-250Zm428 0c0-101-69-181-170-181s-171 80-171 181S199-69 300-69s170-80 170-181" id="ak"/><path fill="#3a414a" d="M555-176C527-68 429 10 303 10 151 10 42-107 42-250s109-260 261-260c126 0 224 78 252 186h-92c-22-63-82-107-160-107-104 0-174 80-174 181S199-69 303-69c78 0 138-44 160-107h92" id="al"/><path fill="#3a414a" d="M81 0v-750h86v327c34-59 94-87 159-87 112 0 189 78 189 202V0h-85v-295c0-84-48-136-118-136-81 0-145 66-145 183V0H81" id="am"/><path fill="#3a414a" d="M528-152C503-64 421 10 294 10 148 10 42-101 42-250c0-146 98-260 254-260 157 0 252 128 240 283H129c3 91 76 159 166 159 62 0 115-24 145-84zm-83-143c-27-186-281-187-312 0h312" id="an"/><path fill="#3a414a" d="M94 0v-710h414v88H187v215h261v88H187v231h321V0H94" id="ao"/><path fill="#3a414a" d="M352-7c-113 35-230-6-230-141v-273H16v-79h106v-139h86v139h144v79H208v262c-8 91 77 95 144 75v77" id="ap"/><path fill="#3a414a" d="M81 0v-500h86v97c28-75 96-115 179-98v89c-98-29-179 27-179 164V0H81" id="aq"/><path fill="#3a414a" d="M214 209h-96L227-26 8-500h95l172 379 171-379h96" id="ar"/><path fill="#3a414a" d="M46-355c0-207 160-367 368-367 168 0 296 104 336 222H647c-38-77-126-134-233-134-158 0-275 122-275 279S256-76 414-76c146 0 248-103 261-243H410v-87h360C790-147 621 12 414 12 206 12 46-148 46-355" id="as"/><path fill="#3a414a" d="M237 0 6-500h96l171 378 171-378h96L309 0h-72" id="at"/><path fill="#3a414a" d="M81 0v-750h86V0H81" id="au"/><path fill="#3a414a" d="M74-193v-307h86v294c0 84 44 137 113 137 78 0 139-68 139-183v-248h86V0h-86v-77c-33 58-91 87-154 87C148 10 74-69 74-193" id="av"/><path fill="#3a414a" d="M311-710c148 0 244 98 244 226s-96 225-244 225H187V0H94v-710zm0 365c98 0 152-60 152-139s-54-139-152-139H187v278h124" id="aw"/><path fill="#3a414a" d="M426-135c0 99-80 145-184 145C135 10 46-44 39-145h88c12 61 64 82 116 82 54 0 96-22 96-66 0-65-95-84-155-99-86-22-129-76-129-147 0-83 72-135 173-135 107 0 173 63 182 143h-86c-13-44-49-71-96-71-48 0-86 24-86 62 0 64 100 78 156 93 83 22 128 73 128 148" id="ax"/><path fill="#3a414a" d="M123 0v-421H17v-79h106v-101c-3-134 117-180 231-142v76c-67-21-145-16-145 75v92h145v79H209V0h-86" id="ay"/><path fill="#3a414a" d="M564-250c0 144-111 260-261 260C152 10 41-106 41-250s111-260 262-260c150 0 261 116 261 260zm-435 0c0 100 70 180 174 180s173-80 173-180-69-180-173-180-174 80-174 180" id="az"/><path fill="#3a414a" d="M81 0v-500h86v77c29-53 84-87 151-87 75 0 129 41 154 107 27-66 90-107 164-107 109 0 175 81 175 203V0h-86v-294c0-81-34-137-99-137-81 0-137 70-137 183V0h-86v-294c0-81-33-137-98-137-81 0-138 70-138 183V0H81" id="aA"/><path fill="#3a414a" d="M647 0 474-482 300 0h-83L23-710h97l149 554 204-566 205 566 149-554h97L730 0h-83" id="aB"/><path fill="#3a414a" d="M59 46h84c23 66 79 97 160 97 90 0 158-60 158-173v-59C427-39 361-1 287-1 148-1 42-113 42-256c0-142 106-254 245-254 74 0 140 37 174 87v-77h86v469c0 167-110 250-246 250-134 0-227-72-242-173Zm409-302c0-100-69-175-169-175s-169 75-169 175c0 101 69 175 169 175s169-74 169-175" id="aC"/><path fill="#333" d="M699 0h-80L187-553V0H94v-710h81l432 553v-553h92V0" id="aD"/><path fill="#333" d="M564-250c0 144-111 260-261 260C152 10 41-106 41-250s111-260 262-260c150 0 261 116 261 260zm-435 0c0 100 70 180 174 180s173-80 173-180-69-180-173-180-174 80-174 180" id="aE"/><path fill="#333" d="M94 0v-710h414v88H187v215h261v88H187v231h321V0H94" id="aF"/><path fill="#333" d="M81 0v-500h86v77c34-59 94-87 159-87 112 0 189 78 189 202V0h-85v-295c0-84-48-136-118-136-81 0-145 66-145 183V0H81" id="aG"/><path fill="#333" d="M352-7c-113 35-230-6-230-141v-273H16v-79h106v-139h86v139h144v79H208v262c-8 91 77 95 144 75v77" id="aH"/><path fill="#333" d="M81 0v-500h86v97c28-75 96-115 179-98v89c-98-29-179 27-179 164V0H81" id="aI"/><path fill="#333" d="M214 209h-96L227-26 8-500h95l172 379 171-379h96" id="aJ"/><path fill="#333" d="M94 0v-710h413v88H187v215h253v88H187V0H94" id="aK"/><path fill="#333" d="M74-193v-307h86v294c0 84 44 137 113 137 78 0 139-68 139-183v-248h86V0h-86v-77c-33 58-91 87-154 87C148 10 74-69 74-193" id="aL"/><path fill="#333" d="M42-250c0-143 105-260 245-260 75 0 143 39 176 87v-327h86V0h-86v-77c-33 48-101 87-176 87C147 10 42-107 42-250Zm428 0c0-101-69-181-170-181s-171 80-171 181S199-69 300-69s170-80 170-181" id="aM"/><path fill="#333" d="M245 160h-70C4-148 4-492 175-800h70C82-478 82-162 245 160" id="aN"/><path fill="#333" d="M442-151 234-438V0H75v-710h145l222 306 222-306h145V0H649v-438" id="aO"/><path fill="#333" d="M137-568c-51 0-94-42-94-94a94.5 94.5 0 0 1 189 0c0 52-42 94-95 94zM62 0v-500h151V0H62" id="aP"/><path fill="#333" d="M264 11C128 11 36-65 31-163h159c2 40 36 60 79 60 39 0 56-14 56-32 0-22-18-32-57-42l-101-26C80-225 41-286 41-360c0-87 77-151 209-151 110 0 200 56 207 162H305c-6-37-32-46-58-46-31 0-51 12-51 32 0 26 28 33 51 39l91 24c101 27 141 78 141 157 0 93-89 154-215 154" id="aQ"/><path fill="#333" d="M62 0v-500h151v51c24-34 74-62 139-62 123 0 194 91 194 222V0H395v-263c0-69-27-111-81-111-57 0-101 41-101 131V0H62" id="aR"/><path fill="#333" d="M298 219C155 219 62 135 54 27h147c28 99 206 91 201-36v-59C379-34 327-7 266-7 138-7 32-119 32-259s106-252 234-252c61 0 113 27 136 61v-50h151v469c0 185-126 250-255 250zm1-363c61 0 115-45 115-115s-54-115-115-115-115 45-115 115 54 115 115 115" id="aS"/><path fill="#333" d="M29 160c163-322 163-638 0-960h70c171 308 171 652 0 960H29" id="aT"/><path fill="#333" d="m-1 0 304-710h144L751 0H585l-63-150H228L165 0Zm287-288h178l-89-214" id="aU"/><path fill="#333" d="M295 11C143 11 32-105 32-250s111-261 263-261c142 0 231 89 258 206H397c-18-40-49-70-102-70-63 0-111 47-111 125s48 125 111 125c53 0 84-30 102-70h156C526-78 437 11 295 11" id="aV"/><path fill="#333" d="M407-4C262 31 116-22 116-183v-186H16v-131h100v-139h151v139h140v131H267v155c0 60 25 85 85 85 23 0 39-3 55-9V-4" id="aW"/><path fill="#333" d="M218 0-1-500h167l122 303 121-303h168L358 0H218" id="aX"/><path fill="#333" d="M297 11C142 11 32-99 32-251c0-150 114-260 265-260 144 0 273 98 267 296H179c7 51 45 96 126 96 44 0 84-20 96-47h158C527-62 423 11 297 11Zm100-322c-30-118-194-95-214 0h214" id="aY"/><path fill="#3a414a" d="M94 0v-710h242c131 0 212 79 212 196 0 104-66 174-175 190L646 0H529L256-323h-69V0Zm93-406h138c81 0 130-37 130-108 0-72-49-110-130-110H187v218" id="aZ"/><path fill="#3a414a" d="M75 0v-710h159V0H75" id="ba"/><path fill="#3a414a" d="M295 11C143 11 32-105 32-250s111-261 263-261c142 0 231 89 258 206H397c-18-40-49-70-102-70-63 0-111 47-111 125s48 125 111 125c53 0 84-30 102-70h156C526-78 437 11 295 11" id="bb"/><path fill="#3a414a" d="M407-4C262 31 116-22 116-183v-186H16v-131h100v-139h151v139h140v131H267v155c0 60 25 85 85 85 23 0 39-3 55-9V-4" id="bc"/><path fill="#3a414a" d="M137-568c-51 0-94-42-94-94a94.5 94.5 0 0 1 189 0c0 52-42 94-95 94zM62 0v-500h151V0H62" id="bd"/><path fill="#3a414a" d="M218 0-1-500h167l122 303 121-303h168L358 0H218" id="be"/><path fill="#3a414a" d="M94 0v-710h233c132 0 212 88 212 188 0 70-31 117-76 145 69 25 123 75 123 170C586-89 492 0 348 0Zm93-405h140c76 0 121-47 121-110 0-60-45-111-121-111H187Zm0 321h165c95 0 143-50 143-120 0-69-48-121-142-121H187v241" id="bf"/><path fill="#3a414a" d="m-1 0 304-710h144L751 0H585l-63-150H228L165 0Zm287-288h178l-89-214" id="bg"/><path fill="#3a414a" d="m703 0-67-62c-62 46-139 74-224 74A364 364 0 0 1 45-355c0-206 163-367 367-367 205 0 367 161 367 367 0 89-30 170-81 233L830 0ZM139-355c0 156 118 279 273 279 59 0 113-18 157-48L456-229l57-64 118 109c35-47 55-106 55-171 0-156-118-279-274-279-155 0-273 123-273 279" id="bh"/><path fill="#333" d="M311-710c148 0 244 98 244 226s-96 225-244 225H187V0H94v-710zm0 365c98 0 152-60 152-139s-54-139-152-139H187v278h124" id="bi"/><path fill="#333" d="M42-250c0-143 105-260 245-260 75 0 143 39 176 87v-77h86V0h-86v-77c-33 48-101 87-176 87C147 10 42-107 42-250Zm428 0c0-101-69-181-170-181s-171 80-171 181S199-69 300-69s170-80 170-181" id="bj"/><path fill="#333" d="M426-135c0 99-80 145-184 145C135 10 46-44 39-145h88c12 61 64 82 116 82 54 0 96-22 96-66 0-65-95-84-155-99-86-22-129-76-129-147 0-83 72-135 173-135 107 0 173 63 182 143h-86c-13-44-49-71-96-71-48 0-86 24-86 62 0 64 100 78 156 93 83 22 128 73 128 148" id="bk"/><path fill="#333" d="M75 0v-710h159V0H75" id="bl"/><path fill="#333" d="M264 11C133 11 32-108 32-250s101-261 232-261c67 0 116 34 136 61v-50h151V0H400v-50c-20 27-69 61-136 61zm34-137c68 0 114-52 114-124s-46-124-114-124-114 52-114 124 46 124 114 124" id="bm"/><path fill="#3a414a" d="m6 0 314-710h77L712 0h-97l-91-207H193L102 0Zm223-291h258L358-584" id="bn"/><path fill="#333" d="M81 0v-750h86V0H81" id="bo"/><path fill="#333" d="M81 209v-709h86v77c33-48 101-87 176-87 139 0 245 117 245 260S482 10 343 10c-75 0-143-39-176-87v286zm419-459c0-101-69-181-170-181s-170 80-170 181S229-69 330-69s170-80 170-181" id="bp"/><path fill="#333" d="M528-152C503-64 421 10 294 10 148 10 42-101 42-250c0-146 98-260 254-260 157 0 252 128 240 283H129c3 91 76 159 166 159 62 0 115-24 145-84zm-83-143c-27-186-281-187-312 0h312" id="bq"/><path fill="#333" d="M123 0v-421H17v-79h106v-101c-3-134 117-180 231-142v76c-67-21-145-16-145 75v92h145v79H209V0h-86" id="br"/><path fill="#333" d="M81 0v-500h86v77c29-53 84-87 151-87 75 0 129 41 154 107 27-66 90-107 164-107 109 0 175 81 175 203V0h-86v-294c0-81-34-137-99-137-81 0-137 70-137 183V0h-86v-294c0-81-33-137-98-137-81 0-138 70-138 183V0H81" id="bs"/><path fill="#333" d="M505 0 382-360 258 0h-76L12-500h90l121 365 125-365h66l125 365 121-365h91L581 0h-76" id="bt"/><path fill="#333" d="M81 0v-750h86v327c34-59 94-87 159-87 112 0 189 78 189 202V0h-85v-295c0-84-48-136-118-136-81 0-145 66-145 183V0H81" id="bu"/><path fill="#333" d="M463 209V-77c-33 48-101 87-176 87C147 10 42-107 42-250s105-260 245-260c75 0 143 39 176 87v-77h86v709zm7-459c0-101-69-181-170-181s-171 80-171 181S199-69 300-69s170-80 170-181" id="bv"/><path fill="#333" d="M167-77V0H81v-750h86v327c33-48 101-87 176-87 139 0 245 117 245 260S482 10 343 10c-75 0-143-39-176-87zm333-173c0-101-69-181-170-181s-170 80-170 181S229-69 330-69s170-80 170-181" id="bw"/><path fill="#333" d="M185-695c0 34-26 61-60 61s-62-27-62-61c0-33 28-61 62-61s60 28 60 61zM81 0v-500h86V0H81" id="bx"/><path fill="#3a414a" d="m6 0 205-253L23-500h104l138 180 137-180h105L319-253 523 0H417L265-189 113 0H6" id="by"/><g id="a"><use transform="scale(.02444)" xlink:href="#W"/><use transform="translate(20.4) scale(.02444)" xlink:href="#X"/><use transform="translate(34.9) scale(.02444)" xlink:href="#Y"/><use transform="translate(49.4) scale(.02444)" xlink:href="#Z"/><use transform="translate(59.3) scale(.02444)" xlink:href="#aa"/></g><g id="b"><use transform="scale(.02444)" xlink:href="#ab"/><use transform="translate(14.3) scale(.02444)" xlink:href="#ac"/><use transform="translate(21) scale(.02444)" xlink:href="#ad"/><use transform="translate(36) scale(.02444)" xlink:href="#ae"/><use transform="translate(50.7) scale(.02444)" xlink:href="#ae"/><use transform="translate(65.4) scale(.02444)" xlink:href="#Y"/><use transform="translate(80) scale(.02444)" xlink:href="#Z"/></g><g id="c"><use transform="scale(.02)" xlink:href="#af"/><use transform="translate(10.6) scale(.02)" xlink:href="#ag"/><use transform="translate(15.6) scale(.02)" xlink:href="#ah"/><use transform="translate(27.4) scale(.02)" xlink:href="#ai"/></g><g id="d"><use transform="scale(.02)" xlink:href="#aj"/><use transform="translate(15.8) scale(.02)" xlink:href="#ak"/><use transform="translate(28.4) scale(.02)" xlink:href="#al"/><use transform="translate(40.1) scale(.02)" xlink:href="#am"/><use transform="translate(51.9) scale(.02)" xlink:href="#an"/></g><g id="e"><use transform="scale(.02)" xlink:href="#ao"/><use transform="translate(11) scale(.02)" xlink:href="#ah"/><use transform="translate(22.6) scale(.02)" xlink:href="#ap"/><use transform="translate(30.2) scale(.02)" xlink:href="#aq"/><use transform="translate(37.5) scale(.02)" xlink:href="#ar"/></g><g id="f"><use transform="scale(.02)" xlink:href="#as"/><use transform="translate(16.3) scale(.02)" xlink:href="#an"/><use transform="translate(27.9) scale(.02)" xlink:href="#ah"/><use transform="translate(39.7) scale(.02)" xlink:href="#an"/><use transform="translate(51.3) scale(.02)" xlink:href="#aq"/><use transform="translate(58.2) scale(.02)" xlink:href="#ak"/><use transform="translate(70.8) scale(.02)" xlink:href="#ap"/><use transform="translate(78.3) scale(.02)" xlink:href="#an"/></g><g id="g"><use transform="scale(.02)" xlink:href="#ak"/><use transform="translate(12.6) scale(.02)" xlink:href="#ah"/><use transform="translate(24.4) scale(.02)" xlink:href="#ai"/></g><g id="h"><use transform="scale(.02)" xlink:href="#ao"/><use transform="translate(10.7) scale(.02)" xlink:href="#at"/><use transform="translate(21.4) scale(.02)" xlink:href="#ak"/><use transform="translate(34) scale(.02)" xlink:href="#au"/><use transform="translate(39) scale(.02)" xlink:href="#av"/><use transform="translate(50.6) scale(.02)" xlink:href="#ak"/><use transform="translate(63.2) scale(.02)" xlink:href="#ap"/><use transform="translate(70.6) scale(.02)" xlink:href="#an"/></g><g id="i"><use transform="scale(.02)" xlink:href="#aj"/><use transform="translate(15.8) scale(.02)" xlink:href="#ak"/><use transform="translate(28.4) scale(.02)" xlink:href="#ah"/><use transform="translate(40.1) scale(.02)" xlink:href="#ai"/><use transform="translate(52.7) scale(.02)" xlink:href="#ag"/><use transform="translate(57.7) scale(.02)" xlink:href="#ai"/><use transform="translate(70.3) scale(.02)" xlink:href="#ak"/><use transform="translate(83) scale(.02)" xlink:href="#ap"/><use transform="translate(90.4) scale(.02)" xlink:href="#an"/></g><g id="j"><use transform="scale(.02)" xlink:href="#aw"/><use transform="translate(11.7) scale(.02)" xlink:href="#au"/><use transform="translate(16.7) scale(.02)" xlink:href="#ak"/><use transform="translate(29.3) scale(.02)" xlink:href="#ah"/><use transform="translate(41) scale(.02)" xlink:href="#ax"/></g><g id="k"><use transform="scale(.02)" xlink:href="#ao"/><use transform="translate(10.7) scale(.02)" xlink:href="#at"/><use transform="translate(21.4) scale(.02)" xlink:href="#ak"/><use transform="translate(34) scale(.02)" xlink:href="#au"/><use transform="translate(39) scale(.02)" xlink:href="#av"/><use transform="translate(50.6) scale(.02)" xlink:href="#ak"/><use transform="translate(63.2) scale(.02)" xlink:href="#ap"/><use transform="translate(70.6) scale(.02)" xlink:href="#an"/></g><g id="l"><use transform="scale(.02)" xlink:href="#aw"/><use transform="translate(11.4) scale(.02)" xlink:href="#an"/><use transform="translate(23) scale(.02)" xlink:href="#aq"/><use transform="translate(30.3) scale(.02)" xlink:href="#ay"/><use transform="translate(37.4) scale(.02)" xlink:href="#az"/><use transform="translate(49.5) scale(.02)" xlink:href="#aq"/><use transform="translate(56.8) scale(.02)" xlink:href="#aA"/><use transform="translate(74.5) scale(.02)" xlink:href="#ak"/><use transform="translate(87.1) scale(.02)" xlink:href="#ah"/><use transform="translate(98.9) scale(.02)" xlink:href="#al"/><use transform="translate(110.7) scale(.02)" xlink:href="#an"/></g><g id="m"><use transform="scale(.02)" xlink:href="#aj"/><use transform="translate(15.8) scale(.02)" xlink:href="#am"/><use transform="translate(27.5) scale(.02)" xlink:href="#az"/><use transform="translate(39.7) scale(.02)" xlink:href="#az"/><use transform="translate(51.8) scale(.02)" xlink:href="#ax"/><use transform="translate(61.1) scale(.02)" xlink:href="#an"/></g><g id="n"><use transform="scale(.02)" xlink:href="#aB"/><use transform="translate(19) scale(.02)" xlink:href="#ag"/><use transform="translate(24) scale(.02)" xlink:href="#ah"/><use transform="translate(35.7) scale(.02)" xlink:href="#ah"/><use transform="translate(47.5) scale(.02)" xlink:href="#ag"/><use transform="translate(52.5) scale(.02)" xlink:href="#ah"/><use transform="translate(64.2) scale(.02)" xlink:href="#aC"/></g><g id="o"><use transform="scale(.02)" xlink:href="#aw"/><use transform="translate(11.7) scale(.02)" xlink:href="#au"/><use transform="translate(16.7) scale(.02)" xlink:href="#ak"/><use transform="translate(29.3) scale(.02)" xlink:href="#ah"/></g><g id="p"><use transform="scale(.01778)" xlink:href="#aD"/><use transform="translate(14) scale(.01778)" xlink:href="#aE"/></g><g id="q"><use transform="scale(.01778)" xlink:href="#aF"/><use transform="translate(9.7) scale(.01778)" xlink:href="#aG"/><use transform="translate(20) scale(.01778)" xlink:href="#aH"/><use transform="translate(26.8) scale(.01778)" xlink:href="#aI"/><use transform="translate(33.4) scale(.01778)" xlink:href="#aJ"/></g><g id="r"><use transform="scale(.01778)" xlink:href="#aK"/><use transform="translate(8.8) scale(.01778)" xlink:href="#aE"/><use transform="translate(19.5) scale(.01778)" xlink:href="#aL"/><use transform="translate(29.8) scale(.01778)" xlink:href="#aG"/><use transform="translate(40.3) scale(.01778)" xlink:href="#aM"/></g><g id="s"><use transform="scale(.01778)" xlink:href="#aN"/><use transform="translate(4.9) scale(.01778)" xlink:href="#aO"/><use transform="translate(20.4) scale(.01778)" xlink:href="#aP"/><use transform="translate(25.3) scale(.01778)" xlink:href="#aQ"/><use transform="translate(34.4) scale(.01778)" xlink:href="#aQ"/><use transform="translate(43.5) scale(.01778)" xlink:href="#aP"/><use transform="translate(48.4) scale(.01778)" xlink:href="#aR"/><use transform="translate(59) scale(.01778)" xlink:href="#aS"/><use transform="translate(70) scale(.01778)" xlink:href="#aT"/></g><g id="t"><use transform="scale(.01778)" xlink:href="#aU"/><use transform="translate(13) scale(.01778)" xlink:href="#aV"/><use transform="translate(23.2) scale(.01778)" xlink:href="#aW"/><use transform="translate(31) scale(.01778)" xlink:href="#aP"/><use transform="translate(35.9) scale(.01778)" xlink:href="#aX"/><use transform="translate(45.8) scale(.01778)" xlink:href="#aY"/></g><g id="u"><use transform="scale(.01778)" xlink:href="#aK"/><use transform="translate(8.8) scale(.01778)" xlink:href="#aE"/><use transform="translate(19.5) scale(.01778)" xlink:href="#aL"/><use transform="translate(29.8) scale(.01778)" xlink:href="#aG"/><use transform="translate(40.3) scale(.01778)" xlink:href="#aM"/></g><g id="v"><use transform="scale(.02)" xlink:href="#ao"/><use transform="translate(11) scale(.02)" xlink:href="#ah"/><use transform="translate(22.6) scale(.02)" xlink:href="#ap"/><use transform="translate(30.2) scale(.02)" xlink:href="#aq"/><use transform="translate(37.5) scale(.02)" xlink:href="#ar"/></g><g id="w"><use transform="scale(.02)" xlink:href="#aZ"/><use transform="translate(12.4) scale(.02)" xlink:href="#an"/><use transform="translate(24) scale(.02)" xlink:href="#aA"/><use transform="translate(41.7) scale(.02)" xlink:href="#ak"/><use transform="translate(54.3) scale(.02)" xlink:href="#ag"/><use transform="translate(59.3) scale(.02)" xlink:href="#ah"/><use transform="translate(71) scale(.02)" xlink:href="#ax"/></g><g id="x"><use transform="scale(.02)" xlink:href="#ba"/><use transform="translate(6) scale(.02)" xlink:href="#ae"/><use transform="translate(18) scale(.02)" xlink:href="#ad"/><use transform="translate(30.2) scale(.02)" xlink:href="#bb"/><use transform="translate(41.6) scale(.02)" xlink:href="#bc"/><use transform="translate(50.4) scale(.02)" xlink:href="#bd"/><use transform="translate(56) scale(.02)" xlink:href="#be"/><use transform="translate(67.1) scale(.02)" xlink:href="#Y"/></g><g id="y"><use transform="scale(.02)" xlink:href="#aw"/><use transform="translate(11.7) scale(.02)" xlink:href="#au"/><use transform="translate(16.7) scale(.02)" xlink:href="#ak"/><use transform="translate(29.3) scale(.02)" xlink:href="#ah"/></g><g id="z"><use transform="scale(.02)" xlink:href="#bf"/><use transform="translate(12.6) scale(.02)" xlink:href="#an"/><use transform="translate(24.2) scale(.02)" xlink:href="#al"/><use transform="translate(36) scale(.02)" xlink:href="#az"/><use transform="translate(48) scale(.02)" xlink:href="#aA"/><use transform="translate(65.7) scale(.02)" xlink:href="#an"/><use transform="translate(77.3) scale(.02)" xlink:href="#ax"/></g><g id="A"><use transform="scale(.02)" xlink:href="#bg"/><use transform="translate(14.7) scale(.02)" xlink:href="#bb"/><use transform="translate(26) scale(.02)" xlink:href="#bc"/><use transform="translate(34.9) scale(.02)" xlink:href="#bd"/><use transform="translate(40.4) scale(.02)" xlink:href="#be"/><use transform="translate(51.5) scale(.02)" xlink:href="#Y"/></g><g id="B"><use transform="scale(.02222)" xlink:href="#bh"/><use transform="translate(18.6) scale(.02222)" xlink:href="#av"/><use transform="translate(31.5) scale(.02222)" xlink:href="#an"/><use transform="translate(44.4) scale(.02222)" xlink:href="#aq"/><use transform="translate(52.5) scale(.02222)" xlink:href="#ar"/></g><g id="C"><use transform="scale(.01778)" xlink:href="#bi"/><use transform="translate(10.2) scale(.01778)" xlink:href="#bj"/><use transform="translate(21.4) scale(.01778)" xlink:href="#bk"/><use transform="translate(29.7) scale(.01778)" xlink:href="#bk"/></g><g id="D"><use transform="scale(.01778)" xlink:href="#bl"/><use transform="translate(5.3) scale(.01778)" xlink:href="#aR"/><use transform="translate(16) scale(.01778)" xlink:href="#bm"/><use transform="translate(26.9) scale(.01778)" xlink:href="#aV"/><use transform="translate(37) scale(.01778)" xlink:href="#aW"/><use transform="translate(44.8) scale(.01778)" xlink:href="#aP"/><use transform="translate(49.7) scale(.01778)" xlink:href="#aX"/><use transform="translate(59.6) scale(.01778)" xlink:href="#aY"/></g><g id="E"><use transform="scale(.02)" xlink:href="#bn"/><use transform="translate(14.2) scale(.02)" xlink:href="#ai"/><use transform="translate(26.8) scale(.02)" xlink:href="#ai"/></g><g id="F"><use transform="scale(.02)" xlink:href="#aw"/><use transform="translate(11.7) scale(.02)" xlink:href="#au"/><use transform="translate(16.7) scale(.02)" xlink:href="#ak"/><use transform="translate(29.3) scale(.02)" xlink:href="#ah"/></g><g id="G"><use transform="scale(.02)" xlink:href="#ap"/><use transform="translate(7.5) scale(.02)" xlink:href="#az"/></g><g id="H"><use transform="scale(.02)" xlink:href="#aj"/><use transform="translate(15.8) scale(.02)" xlink:href="#ak"/><use transform="translate(28.4) scale(.02)" xlink:href="#al"/><use transform="translate(40.1) scale(.02)" xlink:href="#am"/><use transform="translate(51.9) scale(.02)" xlink:href="#an"/></g><g id="I"><use transform="scale(.02)" xlink:href="#ak"/><use transform="translate(12.6) scale(.02)" xlink:href="#ax"/></g><g id="J"><use transform="scale(.02)" xlink:href="#ba"/><use transform="translate(6) scale(.02)" xlink:href="#ae"/><use transform="translate(18) scale(.02)" xlink:href="#ad"/><use transform="translate(30.2) scale(.02)" xlink:href="#bb"/><use transform="translate(41.6) scale(.02)" xlink:href="#bc"/><use transform="translate(50.4) scale(.02)" xlink:href="#bd"/><use transform="translate(56) scale(.02)" xlink:href="#be"/><use transform="translate(67.1) scale(.02)" xlink:href="#Y"/></g><g id="K"><use transform="scale(.01778)" xlink:href="#bi"/><use transform="translate(10.4) scale(.01778)" xlink:href="#bo"/><use transform="translate(14.8) scale(.01778)" xlink:href="#bj"/><use transform="translate(26) scale(.01778)" xlink:href="#aG"/></g><g id="L"><use transform="scale(.01778)" xlink:href="#bp"/><use transform="translate(11.2) scale(.01778)" xlink:href="#bq"/><use transform="translate(21.5) scale(.01778)" xlink:href="#aI"/><use transform="translate(28) scale(.01778)" xlink:href="#br"/><use transform="translate(34.3) scale(.01778)" xlink:href="#aE"/><use transform="translate(45) scale(.01778)" xlink:href="#aI"/><use transform="translate(51.6) scale(.01778)" xlink:href="#bs"/><use transform="translate(67.3) scale(.01778)" xlink:href="#bk"/></g><g id="M"><use transform="scale(.01778)" xlink:href="#bt"/><use transform="translate(13.5) scale(.01778)" xlink:href="#aE"/><use transform="translate(24.3) scale(.01778)" xlink:href="#aI"/><use transform="translate(30.6) scale(.01778)" xlink:href="#bk"/><use transform="translate(39) scale(.01778)" xlink:href="#bq"/></g><g id="N"><use transform="scale(.01778)" xlink:href="#aH"/><use transform="translate(6.8) scale(.01778)" xlink:href="#bu"/><use transform="translate(17.2) scale(.01778)" xlink:href="#bj"/><use transform="translate(28.4) scale(.01778)" xlink:href="#aG"/></g><g id="O"><use transform="scale(.01778)" xlink:href="#bq"/><use transform="translate(10.3) scale(.01778)" xlink:href="#aG"/><use transform="translate(20.7) scale(.01778)" xlink:href="#aH"/><use transform="translate(27.4) scale(.01778)" xlink:href="#aI"/><use transform="translate(34) scale(.01778)" xlink:href="#aJ"/></g><g id="P"><use transform="scale(.01778)" xlink:href="#bp"/><use transform="translate(11.2) scale(.01778)" xlink:href="#bq"/><use transform="translate(21.5) scale(.01778)" xlink:href="#aI"/><use transform="translate(28) scale(.01778)" xlink:href="#br"/><use transform="translate(34.3) scale(.01778)" xlink:href="#aE"/><use transform="translate(45) scale(.01778)" xlink:href="#aI"/><use transform="translate(51.6) scale(.01778)" xlink:href="#bs"/><use transform="translate(67.3) scale(.01778)" xlink:href="#bk"/></g><g id="Q"><use transform="scale(.01778)" xlink:href="#bq"/><use transform="translate(10.3) scale(.01778)" xlink:href="#bv"/><use transform="translate(21.5) scale(.01778)" xlink:href="#aL"/><use transform="translate(31.8) scale(.01778)" xlink:href="#bj"/><use transform="translate(43) scale(.01778)" xlink:href="#bo"/></g><g id="R"><use transform="scale(.01778)" xlink:href="#aE"/><use transform="translate(10.8) scale(.01778)" xlink:href="#aI"/></g><g id="S"><use transform="scale(.01778)" xlink:href="#bw"/><use transform="translate(11.2) scale(.01778)" xlink:href="#bq"/><use transform="translate(21.4) scale(.01778)" xlink:href="#aH"/><use transform="translate(28.1) scale(.01778)" xlink:href="#aH"/><use transform="translate(34.8) scale(.01778)" xlink:href="#bq"/><use transform="translate(45) scale(.01778)" xlink:href="#aI"/></g><g id="T"><use transform="scale(.01778)" xlink:href="#aK"/><use transform="translate(8.8) scale(.01778)" xlink:href="#bj"/><use transform="translate(20) scale(.01778)" xlink:href="#bx"/><use transform="translate(24.4) scale(.01778)" xlink:href="#bo"/></g><g id="U"><use transform="scale(.02222)" xlink:href="#ao"/><use transform="translate(12.4) scale(.02222)" xlink:href="#by"/><use transform="translate(23.7) scale(.02222)" xlink:href="#an"/><use transform="translate(36.6) scale(.02222)" xlink:href="#al"/><use transform="translate(49.7) scale(.02222)" xlink:href="#av"/><use transform="translate(62.5) scale(.02222)" xlink:href="#ap"/><use transform="translate(70.8) scale(.02222)" xlink:href="#an"/></g><g id="V"><use transform="scale(.02222)" xlink:href="#aw"/><use transform="translate(13) scale(.02222)" xlink:href="#au"/><use transform="translate(18.5) scale(.02222)" xlink:href="#ak"/><use transform="translate(32.5) scale(.02222)" xlink:href="#ah"/></g></defs><path d="M650.2 897.4q-1.3 0-2.5-.4-1.1-.5-2-1.4-.8-1-1.3-2.2-.5-1.2-.5-2.7 0-1.4.5-2.6.5-1.2 1.4-2.1.9-1 2-1.4 1.2-.5 2.5-.5 1 0 1.9.3.9.3 1.6.8.8.5 1.2 1.1l-1.2 1.3-1.1-.9-1.2-.6-1.2-.2q-1 0-1.7.4-.9.3-1.5 1-.6.6-1 1.5-.3.9-.3 2 0 1 .4 2 .3.8 1 1.5.5.6 1.4 1 .9.3 1.9.3.7 0 1.3-.2l1.1-.5q.6-.3 1-.8l.9 1.5q-.4.6-1.2 1-.7.4-1.6.6l-1.8.2zm11.3 0q-1.4 0-2.6-.6-1-.7-1.7-1.8-.7-1.2-.7-2.7 0-1.4.7-2.6.6-1.1 1.7-1.8 1.2-.6 2.6-.6 1.4 0 2.6.6 1.1.7 1.8 1.8.6 1.2.6 2.6 0 1.5-.6 2.7-.7 1.1-1.8 1.8-1.2.6-2.6.6zm0-1.6q1 0 1.7-.4.7-.5 1.1-1.3.4-.8.4-1.8t-.4-1.7q-.4-.8-1.1-1.3-.8-.4-1.7-.4-1 0-1.6.4-.8.5-1.2 1.3-.4.8-.4 1.7 0 1 .4 1.8t1.2 1.3q.7.4 1.6.4zm7.1 1.5v-9.8h1.8v2.1l-.3.2q.1-.5.5-1 .3-.4.8-.7l1-.6 1.2-.2q.8 0 1.4.3.6.2 1 .8.5.6.7 1.5l-.4-.1.2-.3.5-.9.9-.7q.4-.3 1-.4l1-.2q1.1 0 1.8.4.8.5 1.1 1.4.4 1 .4 2.3v5.9h-1.8v-5.8q0-1-.2-1.5t-.7-.8q-.4-.3-1.1-.3-.6 0-1 .2l-.9.5-.5.8-.2 1v5.9H675v-5.9q0-.8-.2-1.3-.3-.6-.7-.9-.5-.3-1-.3-.7 0-1.1.2l-.9.5-.5.8-.2 1v5.9zm17.3 4.1v-14h1.8v2.3h-.3q.1-.7.7-1.2.5-.5 1.3-.9.7-.3 1.6-.3 1.3 0 2.3.6 1 .7 1.6 1.8.6 1.2.6 2.6 0 1.5-.6 2.7-.5 1.1-1.6 1.8-1 .6-2.3.6-.9 0-1.7-.3-.8-.4-1.4-1-.5-.5-.7-1.1l.5-.2v6.6zm4.8-5.6q1 0 1.6-.5.7-.4 1.1-1.2.4-.8.4-1.8t-.4-1.7q-.4-.8-1-1.2-.8-.5-1.7-.5-.9 0-1.6.5-.7.4-1.1 1.2-.4.8-.4 1.7 0 1 .4 1.8t1.1 1.2q.7.5 1.6.5zm10.8 1.6q-1.2 0-2.2-.6-1-.7-1.6-1.8-.6-1.2-.6-2.7 0-1.4.6-2.6.6-1.1 1.6-1.8 1-.6 2.4-.6.7 0 1.3.2.7.2 1.2.6.5.4.8 1l.4 1h-.4v-2.6h1.8v9.8H705v-2.4l.4-.2q-.1.6-.5 1-.3.5-.9 1l-1.1.5-1.4.2zm.5-1.6q.9 0 1.5-.5.8-.4 1.1-1.2.5-.7.5-1.8 0-1-.4-1.7-.4-.8-1.1-1.2-.7-.5-1.6-.5-1 0-1.7.5-.6.4-1 1.2-.4.7-.4 1.7t.4 1.8q.4.8 1 1.2.8.5 1.7.5zm7.6 1.5v-9.8h1.7v2.9l-.1-.6q.2-.7.7-1.3.4-.6 1-.9.7-.3 1.4-.3h.6l.5.1-.5 2-.5-.2h-.5l-1 .2-.8.5q-.4.4-.6.9l-.1 1v5.5zm11.5.1q-1.5 0-2.6-.6-1.2-.6-1.9-1.8-.6-1-.6-2.6 0-1.1.3-2 .4-1 1-1.7.7-.7 1.6-1 1-.5 2-.5t1.8.4q.8.4 1.4 1 .6.6 1 1.5.3.9.3 1.9v.8h-8.1l-.4-1.5h7l-.4.4v-.5q0-.6-.3-1.2-.4-.5-1-.8-.6-.3-1.3-.3-1 0-1.7.4t-1 1.1q-.5.8-.5 2 0 1 .5 1.8.4.8 1.2 1.2.8.4 1.9.4.7 0 1.3-.2.7-.3 1.5-1l.8 1.3q-.4.5-1 .8l-1.4.6-1.4.1zm12.3-.1v-13.1h5.2q1 0 2 .5.8.5 1.3 1.4.5 1 .5 2 0 1.2-.5 2.1-.5 1-1.4 1.5-.8.5-1.9.5h-3.4v5zm1.8-6.9h3.4q.5 0 1-.3.4-.3.7-.8.2-.5.2-1.1 0-.7-.2-1.1-.3-.5-.7-.8-.5-.3-1-.3h-3.4zm13.8 7q-1.5 0-2.6-.6-1.2-.6-1.9-1.8-.6-1-.6-2.6 0-1.1.3-2 .4-1 1-1.7.7-.7 1.6-1 1-.5 2-.5t1.8.4q.8.4 1.4 1 .6.6 1 1.5.3.9.3 1.9v.8h-8.1l-.4-1.5h7l-.3.4v-.5q0-.6-.4-1.2-.4-.5-1-.8-.5-.3-1.3-.3-1 0-1.7.4t-1 1.1q-.5.8-.5 2 0 1 .5 1.8.4.8 1.2 1.2.8.4 1.9.4.7 0 1.3-.2.7-.3 1.5-1l.8 1.3q-.4.5-1 .8l-1.4.6-1.4.1zm6.4-.1v-9.8h1.8v2.9l-.2-.6q.2-.7.7-1.3.5-.6 1.1-.9.7-.3 1.4-.3h.6l.5.1-.5 2-.5-.2h-.5q-.6 0-1 .2l-.9.5-.5.9q-.2.4-.2 1v5.5zm8.6 0v-11q0-.9.3-1.5.4-.6 1-1 .6-.3 1.5-.3.6 0 1 .2.6.2 1 .6l-.7 1.3-.6-.3-.5-.2q-.4 0-.7.2-.3 0-.4.3l-.2.6v11H764zm-1.7-8v-1.7h5.8v1.6zm11.9 8.1q-1.4 0-2.5-.6-1.2-.7-1.8-1.8-.7-1.2-.7-2.7 0-1.4.7-2.6.6-1.1 1.8-1.8 1-.6 2.5-.6 1.4 0 2.6.6 1.1.7 1.8 1.8.6 1.2.6 2.6 0 1.5-.6 2.7-.7 1.1-1.8 1.8-1.2.6-2.6.6zm0-1.6q1 0 1.7-.4.7-.5 1.1-1.3.4-.8.4-1.8t-.4-1.7q-.4-.8-1.1-1.3-.8-.4-1.7-.4-.9 0-1.6.4-.8.5-1.2 1.3-.4.8-.4 1.7 0 1 .4 1.8t1.2 1.3q.7.4 1.6.4zm7.2 1.5v-9.8h1.7v2.9l-.1-.6q.2-.7.7-1.3.4-.6 1-.9.7-.3 1.4-.3h.6l.5.1-.5 2-.5-.2h-.5l-1 .2-.8.5-.6.9-.1 1v5.5zm7.4 0v-9.8h1.8v2.1l-.4.2.5-1 .8-.7 1-.6 1.2-.2q.9 0 1.5.3.6.2 1 .8.4.6.6 1.5l-.3-.1.1-.3q.2-.5.6-.9l.8-.7 1-.4 1.1-.2q1.1 0 1.8.4.7.5 1 1.4.5 1 .5 2.3v5.9h-1.8v-5.8q0-1-.3-1.5-.2-.5-.6-.8-.5-.3-1.1-.3-.6 0-1 .2l-1 .5-.5.8-.2 1v5.9h-1.7v-5.9q0-.8-.3-1.3-.2-.6-.6-.9-.5-.3-1.1-.3-.6 0-1 .2l-.9.5-.5.8-.2 1v5.9zm21 .1q-1.2 0-2.2-.6-1-.7-1.6-1.8-.6-1.2-.6-2.7 0-1.4.6-2.6.6-1.1 1.7-1.8 1-.6 2.3-.6l1.4.2q.6.2 1.1.6.5.4.8 1 .4.5.4 1h-.4v-2.6h1.8v9.8h-1.8v-2.4l.4-.2q0 .6-.4 1l-1 1-1 .5q-.7.2-1.5.2zm.5-1.6q.9 0 1.6-.5.7-.4 1-1.2.5-.7.5-1.8 0-1-.4-1.7-.4-.8-1.1-1.2-.7-.5-1.6-.5-.9 0-1.6.5-.7.4-1 1.2-.5.7-.5 1.7t.4 1.8q.4.8 1 1.2.8.5 1.7.5zm7.6 1.5v-9.8h1.8v2l-.3.2q.2-.7.7-1.2.5-.6 1.3-.9.7-.3 1.5-.3 1.1 0 1.9.4.7.4 1 1.3.5 1 .5 2.3v6h-1.8v-5.9q0-.9-.2-1.4-.3-.6-.7-.9-.5-.2-1.2-.2-.6 0-1.1.2l-.9.5-.5.8q-.2.4-.2 1v5.9h-1.8zm15.2.1q-1.3 0-2.4-.6-1-.7-1.7-1.8-.6-1.2-.6-2.7 0-1.4.6-2.6.6-1.1 1.7-1.8 1-.6 2.5-.6 1.2 0 2.3.5 1 .5 1.6 1.4l-1 1.2-.8-.8-1-.5-1-.2q-1 0-1.7.4-.7.5-1.1 1.3-.4.8-.4 1.7 0 1 .4 1.8.5.8 1.2 1.3.7.4 1.6.4l1-.1 1-.5.8-.9 1 1.2q-.6.9-1.7 1.4-1 .5-2.3.5zm10.4 0q-1.5 0-2.6-.6-1.2-.6-1.8-1.8-.7-1-.7-2.6 0-1.1.4-2 .3-1 1-1.7.6-.7 1.6-1 .9-.5 2-.5 1 0 1.7.4.8.4 1.4 1 .7.6 1 1.5.3.9.3 1.9v.8h-8.1l-.4-1.5h7l-.3.4v-.5q0-.6-.4-1.2-.4-.5-1-.8-.5-.3-1.2-.3-1 0-1.8.4-.7.4-1 1.1-.4.8-.4 2 0 1 .4 1.8t1.2 1.2q.8.4 2 .4l1.3-.2q.6-.3 1.4-1l.8 1.3q-.4.5-1 .8l-1.4.6-1.4.1zM683 921.7q-1.5 0-2.7-.6-1-.7-1.7-1.9-.7-1.1-.7-2.6t.7-2.6q.6-1.2 1.7-1.8 1.2-.7 2.6-.7 1.4 0 2.6.7 1 .6 1.7 1.8.7 1.1.7 2.6t-.7 2.6q-.6 1.2-1.7 1.9-1.2.6-2.6.6zm0-1.6q.8 0 1.6-.5.7-.4 1.1-1.2.4-.8.4-1.8t-.4-1.8q-.4-.8-1.1-1.2-.8-.4-1.7-.4-1 0-1.6.4-.8.5-1.2 1.2-.4.8-.4 1.8t.4 1.8q.4.8 1.2 1.2.7.5 1.6.5zm7.8 1.4v-11q0-.8.3-1.4.4-.6 1-1t1.5-.4q.6 0 1 .3l1 .5-.7 1.4-.6-.4-.5-.1-.7.1q-.3.1-.4.4l-.2.6v11h-1.7zm-1.7-8V912h5.8v1.6zm16.5 8-4.1-13h2l2.5 8.3.2.7.1.8.2.8.1.6h-.5l.4-1.5.3-.8.3-.7 2.2-5.8h1.7l2.3 5.9.3.9.3.9.3 1h-.4v-.7l.2-.5v-.4l.2-.5.2-.8 2.5-8.2h2l-4.1 13h-1.3l-3.5-8.2h.2l-3.3 8.2zm15.5 0v-9.8h1.8v9.8zm.9-12q-.6 0-.9-.2-.3-.3-.3-.9 0-.5.3-.8.3-.3.9-.3.6 0 .9.3.3.3.3.8 0 .6-.3.9-.3.3-1 .3zm4 12v-9.8h1.7v2l-.3.2q.2-.6.8-1.1.5-.6 1.3-1 .7-.3 1.5-.3 1.1 0 1.9.5.7.4 1 1.3.4.9.4 2.3v6h-1.7v-6q0-.8-.3-1.4-.2-.6-.7-.8-.5-.3-1.2-.3-.6 0-1 .2l-1 .6-.5.8q-.2.4-.2.9v6H726zm11 0v-9.8h1.8v2l-.3.2q.2-.6.8-1.1.5-.6 1.3-1 .7-.3 1.5-.3 1.1 0 1.9.5.7.4 1 1.3.4.9.4 2.3v6h-1.7v-6q0-.8-.3-1.4-.2-.6-.7-.8-.5-.3-1.2-.3-.6 0-1 .2l-1 .6-.5.8q-.2.4-.2.9v6h-1.7zm11.5 0v-9.8h1.8v9.8zm.9-12q-.6 0-1-.2-.3-.3-.3-.9 0-.5.4-.8.3-.3.9-.3.5 0 .9.3.3.3.3.8 0 .6-.3.9-.4.3-1 .3zm3.9 12v-9.8h1.8v2l-.3.2q.2-.6.7-1.1.6-.6 1.3-1 .8-.3 1.6-.3 1 0 1.8.5.8.4 1.1 1.3.4.9.4 2.3v6h-1.8v-6q0-.8-.2-1.4-.2-.6-.7-.8-.5-.3-1.2-.3-.6 0-1 .2-.6.2-1 .6l-.5.8q-.2.4-.2.9v6h-1.8zm15.5 4.3q-1.1 0-2.1-.3t-1.6-.9l.6-1.4.9.5 1 .4 1.2.1q1 0 1.7-.3.7-.4 1.1-1 .4-.8.4-1.8v-1.9h.2q-.1.7-.7 1.3-.5.5-1.3.9-.7.3-1.6.3-1.4 0-2.4-.6-1.1-.7-1.8-1.9-.6-1.1-.6-2.6t.6-2.6q.7-1.1 1.8-1.8 1-.7 2.4-.7.6 0 1 .2.6.1 1 .4l.9.5.6.7.3.7h-.4v-2.3h1.8v9.2q0 1.2-.4 2-.3 1-1 1.6-.6.7-1.6 1-.9.3-2 .3zm0-5.7q1 0 1.7-.5.7-.4 1.1-1.2.5-.8.5-1.8t-.5-1.8q-.4-.7-1.1-1.2-.7-.4-1.7-.4t-1.6.4q-.7.5-1.2 1.2-.4.8-.4 1.8t.4 1.8q.5.8 1.2 1.2.7.5 1.6.5zm13.6 1.4v-13h5.3q1 0 1.9.5.8.5 1.3 1.4.5 1 .5 2 0 1.1-.5 2-.5 1-1.3 1.5-.9.6-2 .6h-3.4v5zm1.8-6.8h3.5q.5 0 .9-.3t.7-.8q.3-.6.3-1.2t-.3-1q-.3-.6-.7-.9-.4-.3-1-.3h-3.4zm9.6 6.8v-13.8h1.7v13.8zm8.2.2q-1.3 0-2.3-.7-1-.6-1.6-1.8-.6-1.1-.6-2.6t.6-2.6q.6-1.2 1.7-1.8 1-.7 2.3-.7.8 0 1.4.3.6.2 1.1.6.5.4.8 1 .4.4.4 1l-.4-.1v-2.6h1.8v9.8h-1.8v-2.3l.5-.2q-.1.5-.5 1l-.9.9q-.5.4-1.2.6-.6.2-1.3.2zm.4-1.6q1 0 1.6-.5.7-.4 1.1-1.2.4-.8.4-1.8t-.4-1.8q-.4-.7-1-1.2-.8-.4-1.7-.4-.9 0-1.6.4-.7.5-1 1.2-.5.8-.5 1.8t.4 1.8q.4.8 1.1 1.2.7.5 1.6.5zm7.6 1.4v-9.8h1.8v2l-.3.2q.2-.6.7-1.1.6-.6 1.3-1 .8-.3 1.6-.3 1 0 1.8.5.8.4 1.1 1.3.4.9.4 2.3v6h-1.8v-6q0-.8-.2-1.4-.2-.6-.7-.8-.5-.3-1.2-.3-.6 0-1.1.2-.5.2-.9.6l-.5.8q-.2.4-.2.9v6H810zm-89.5 24.3v-12.3h1.8v12.3zm-2-8.1V936h6.1v1.7zm12.3 8.3q-1.5 0-2.6-.7t-1.8-1.8q-.6-1.1-.6-2.6t.6-2.6q.7-1.2 1.8-1.8 1.1-.7 2.6-.7 1.4 0 2.5.7 1.1.6 1.8 1.8.7 1.1.7 2.6t-.7 2.6q-.7 1.1-1.8 1.8t-2.5.7zm0-1.7q.9 0 1.6-.4.7-.5 1.2-1.2.4-.8.3-1.8 0-1-.3-1.8-.5-.8-1.2-1.2-.7-.5-1.6-.5-1 0-1.7.5-.7.4-1.1 1.2-.4.8-.4 1.8t.4 1.8q.4.7 1.1 1.2.7.4 1.7.4zm13 1.5v-13h8v1.7h-6.2v9.5h6.3v1.8zm.8-5.8v-1.8h6.3v1.8zm10.1 5.8V936h1.8v2l-.3.2q.2-.6.7-1.2.5-.5 1.3-.9.7-.3 1.5-.3 1.1 0 1.9.4.7.5 1 1.4.5.9.5 2.2v6h-1.8v-5.9q0-.8-.2-1.4-.3-.6-.7-.9-.5-.2-1.2-.2-.6 0-1.1.2l-.9.5-.5.8q-.2.4-.2 1v5.9h-1.8zm12.3 0v-12.3h1.8v12.3zm-2-8.1V936h6.2v1.7zm8 8.1V936h1.8v3l-.2-.7q.2-.7.7-1.2.5-.6 1.1-1 .7-.3 1.4-.3h.6l.4.2-.4 2-.5-.2-.5-.1q-.6 0-1 .2-.5.2-.9.6l-.5.8-.2 1v5.5zm9 4.2 2-4.5v1.5l-4.8-11h2l3.2 7.3.2.6.3.8h-.5l.3-.7.2-.8 2.7-7.2h2l-4 9.8-1.6 4.3z" aria-label="Compare Performance of Winning Plan to Entry" style="font-size:18.6667px;line-height:1.3;font-family:'Lexend Deca';-inkscape-font-specification:'Lexend Deca, @wght=369';font-variation-settings:'wght' 369;text-align:center;letter-spacing:.1px;text-anchor:middle;fill:#4a4a4a"/></g></svg>