<svg width="157" height="225" viewBox="0 0 157 225" fill="none" xmlns="http://www.w3.org/2000/svg">
<g clip-path="url(#clip0_209_2225)">
<path d="M-124.195 -224.5H-11.585C19.1752 -224.5 44.1104 -199.564 44.1104 -168.805C44.1105 -137.493 69.4924 -112.11 100.805 -112.109C131.562 -112.109 156.5 -86.9573 156.5 -56.1953C156.5 -25.3147 131.466 -0.280273 100.585 -0.280273C69.3944 -0.280141 44.1105 25.1145 44.1104 56.3047C44.1104 87.0649 19.0649 112.11 -11.6953 112.11C-42.8855 112.11 -68.2801 137.394 -68.2803 168.585C-68.2803 199.466 -93.3147 224.5 -124.195 224.5H-236.585C-267.466 224.5 -292.5 199.466 -292.5 168.585C-292.5 137.822 -267.562 112.671 -236.805 112.671C-205.493 112.671 -180.11 87.2879 -180.109 55.9756V-168.585C-180.109 -199.224 -155.466 -224.108 -124.918 -224.495L-124.195 -224.5Z" stroke="#00ED64"/>
</g>
<defs>
<clipPath id="clip0_209_2225">
<rect width="450" height="450" fill="white" transform="translate(-293 -225)"/>
</clipPath>
</defs>
</svg>
