<svg xmlns="http://www.w3.org/2000/svg" xmlns:xlink="http://www.w3.org/1999/xlink" xmlns:lucid="lucid" width="600" height="500"><g transform="translate(0 -20)" lucid:page-tab-id="0_0"><path d="M250 40c16.57 0 30 13.43 30 30v340c0 16.57-13.43 30-30 30H50c-16.57 0-30-13.43-30-30V70c0-16.57 13.43-30 30-30z" stroke="#000" stroke-width="2" fill="none"/><path d="M20 460h260v40H20z" stroke="#000" stroke-opacity="0" stroke-width="2" fill="#fff" fill-opacity="0"/><use xlink:href="#a" transform="matrix(1,0,0,1,25,465) translate(75.376953125 20.83171875)"/><use xlink:href="#b" transform="matrix(1,0,0,1,25,465) translate(106.6220703125 20.83171875)"/><use xlink:href="#c" transform="matrix(1,0,0,1,25,465) translate(120.623046875 20.83171875)"/><path d="M550 40c16.57 0 30 13.43 30 30v340c0 16.57-13.43 30-30 30H350c-16.57 0-30-13.43-30-30V70c0-16.57 13.43-30 30-30z" stroke="#000" stroke-width="2" fill="none"/><path d="M320 460h260v40H320z" stroke="#000" stroke-opacity="0" stroke-width="2" fill="#fff" fill-opacity="0"/><use xlink:href="#d" transform="matrix(1,0,0,1,325,465) translate(70.876953125 20.83171875)"/><use xlink:href="#e" transform="matrix(1,0,0,1,325,465) translate(102.1220703125 20.83171875)"/><use xlink:href="#f" transform="matrix(1,0,0,1,325,465) translate(116.123046875 20.83171875)"/><path d="M90 60h120v24l-60 16-60-16z" stroke="#000" stroke-width="2" fill="#fff"/><use xlink:href="#g" transform="matrix(1,0,0,1,95,65) translate(33.824869791666664 19.583333333333336)"/><path d="M390 60h120v24l-60 16-60-16z" stroke="#000" stroke-width="2" fill="#fff"/><g><use xlink:href="#g" transform="matrix(1,0,0,1,395,65) translate(33.824869791666664 19.583333333333336)"/></g><g class="lucid-layer" lucid:layer-id="~LKxNMLHmrL1" display="block"><path d="M530 120c16.57 0 30 13.43 30 30v80c0 16.57-13.43 30-30 30H70c-16.57 0-30-13.43-30-30v-80c0-16.57 13.43-30 30-30z" stroke="#000" stroke-width="2" fill="#a3d977"/><path d="M143.2 180c0 22.1-18.62 40-41.6 40S60 202.1 60 180s18.62-40 41.6-40 41.6 17.9 41.6 40z" stroke="#000" stroke-width="2" fill="#fff"/><use xlink:href="#h" transform="matrix(1,0,0,1,65,145) translate(15.756510416666664 39.583333333333336)"/><path d="M240.8 180c0 22.1-18.63 40-41.6 40-22.98 0-41.6-17.9-41.6-40s18.62-40 41.6-40c22.97 0 41.6 17.9 41.6 40z" stroke="#000" stroke-width="2" fill="#fff"/><use xlink:href="#i" transform="matrix(1,0,0,1,162.5980504737143,145) translate(8.819661458333336 39.583333333333336)"/><path d="M491.6 180c0 22.1-18.62 40-41.6 40s-41.6-17.9-41.6-40 18.62-40 41.6-40 41.6 17.9 41.6 40z" stroke="#000" stroke-width="2" fill="#fff"/><use xlink:href="#i" transform="matrix(1,0,0,1,413.4,145) translate(8.819661458333336 39.583333333333336)"/><path d="M185.6 220h249.6v40H185.6z" stroke="#000" stroke-opacity="0" stroke-width="2" fill="#fff" fill-opacity="0"/><use xlink:href="#j" transform="matrix(1,0,0,1,190.60000000000002,225) translate(36.626953125 21.1875)"/><use xlink:href="#k" transform="matrix(1,0,0,1,190.60000000000002,225) translate(82.5849609375 21.1875)"/><use xlink:href="#l" transform="matrix(1,0,0,1,190.60000000000002,225) translate(123.5859375 21.1875)"/><use xlink:href="#m" transform="matrix(1,0,0,1,190.60000000000002,225) translate(171.134765625 21.1875)"/></g><g class="lucid-layer" lucid:layer-id="DMKx6oYU3TA6" display="block"><path d="M530 280c16.57 0 30 13.43 30 30v80c0 16.57-13.43 30-30 30H70c-16.57 0-30-13.43-30-30v-80c0-16.57 13.43-30 30-30z" stroke="#000" stroke-width="2" fill="#ff8f80"/><path d="M539.2 350c0 22.1-18.62 40-41.6 40S456 372.1 456 350s18.62-40 41.6-40 41.6 17.9 41.6 40z" stroke="#000" stroke-width="2" fill="#fff"/><use xlink:href="#h" transform="matrix(1,0,0,1,461,315) translate(15.756510416666664 39.583333333333336)"/><path d="M443.18 350c0 22.1-18.62 40-41.6 40-22.97 0-41.6-17.9-41.6-40s18.63-40 41.6-40c22.98 0 41.6 17.9 41.6 40z" stroke="#000" stroke-width="2" fill="#fff"/><use xlink:href="#i" transform="matrix(1,0,0,1,364.98092394050207,315) translate(8.819661458333336 39.583333333333336)"/><path d="M191.6 350c0 22.1-18.62 40-41.6 40s-41.6-17.9-41.6-40 18.62-40 41.6-40 41.6 17.9 41.6 40z" stroke="#000" stroke-width="2" fill="#fff"/><use xlink:href="#i" transform="matrix(1,0,0,1,113.4,315) translate(8.819661458333336 39.583333333333336)"/><path d="M185.2 380h249.6v40H185.2z" stroke="#000" stroke-opacity="0" stroke-width="2" fill="#fff" fill-opacity="0"/><use xlink:href="#j" transform="matrix(1,0,0,1,190.2,385) translate(28.2158203125 21.1875)"/><use xlink:href="#n" transform="matrix(1,0,0,1,190.2,385) translate(74.173828125 21.1875)"/><use xlink:href="#o" transform="matrix(1,0,0,1,190.2,385) translate(115.1748046875 21.1875)"/><use xlink:href="#m" transform="matrix(1,0,0,1,190.2,385) translate(179.5458984375 21.1875)"/></g><defs><path d="M156-2v-1395c320 6 719-24 922 85 196 105 362 331 362 614 0 389-252 626-590 686C683 18 359-5 156-2zm659-1206c-102-18-324-9-459-11v1039c154-2 375 6 489-20 233-53 388-252 388-509 0-263-178-456-418-499" id="p"/><path d="M307-694c0 306 244 526 555 526 169 0 335-52 496-156v220C1119 35 700 64 453-78 260-188 105-411 100-694c-8-401 347-721 754-721 147 0 310 38 489 115v215c-163-93-323-140-479-140-306 0-557 229-557 531" id="q"/><g id="a"><use transform="matrix(0.0087890625,0,0,0.0087890625,0,0)" xlink:href="#p"/><use transform="matrix(0.0087890625,0,0,0.0087890625,13.5,0)" xlink:href="#q"/></g><path d="M414-1397h200V0H414v-1397" id="r"/><use transform="matrix(0.0087890625,0,0,0.0087890625,0,0)" xlink:href="#r" id="b"/><path d="M397-605c6 27-41 146-58 193l-55-13c11-40 29-75 31-123 0-22-6-41-6-63 0-40 24-55 43-55 20 0 45 16 45 61zm-173 0c6 27-40 146-57 193l-56-13c11-40 30-75 32-123 0-22-7-41-7-63 0-40 24-55 43-55 20 0 45 16 45 61" id="s"/><path d="M366-269c2-83-14-137-109-139-42 0-94 12-131 51l-35-46c43-44 101-64 163-64 110 0 181 69 181 184V0h-68v-50C317-9 259 11 203 11 23 8-5-195 154-249c63-21 138-20 212-20zm3 55c-54 1-120-4-167 7-57 14-81 51-81 84 0 41 35 79 96 79 60 0 104-36 120-54 39-46 31-65 32-116" id="t"/><path d="M85-665h202v607h134V0H79v-58h135v-549H85v-58" id="u"/><path d="M162-475c-12-115 77-196 181-196 57 0 107 24 140 63l-33 66c-10 1-6-13-10-20-19-29-56-52-100-52-73 0-120 71-109 149v35h150v57H231V0h-69v-373H63v-57h99v-45" id="v"/><g id="c"><use transform="matrix(0.018,0,0,0.018,0,0)" xlink:href="#s"/><use transform="matrix(0.018,0,0,0.018,9,0)" xlink:href="#t"/><use transform="matrix(0.018,0,0,0.018,18,0)" xlink:href="#u"/><use transform="matrix(0.018,0,0,0.018,26.999999999999996,0)" xlink:href="#v"/><use transform="matrix(0.018,0,0,0.018,36,0)" xlink:href="#t"/><use transform="matrix(0.018,0,0,0.018,45,0)" xlink:href="#s"/></g><g id="d"><use transform="matrix(0.0087890625,0,0,0.0087890625,0,0)" xlink:href="#p"/><use transform="matrix(0.0087890625,0,0,0.0087890625,13.5,0)" xlink:href="#q"/></g><path d="M434-1415c304 0 499 296 390 611-22 63-55 136-104 220-50 85-182 255-298 391h532V0H70v-14c141-163 310-383 398-513 78-113 128-199 152-257s35-115 35-172c0-151-96-265-245-261-143 4-242 92-312 189v-254c109-89 221-133 336-133" id="w"/><use transform="matrix(0.0087890625,0,0,0.0087890625,0,0)" xlink:href="#w" id="e"/><path d="M144-665c2 12-11 11-11 22v256c29-50 83-81 141-81 90 0 183 74 183 234 0 166-97 245-191 245-55 0-105-26-135-71L106 0H60v-665h84zm105 259c-79 0-116 64-116 163 0 40 0 66 3 90 12 87 80 100 111 100 45 0 136-26 136-166 0-161-91-187-134-187" id="x"/><path d="M425-349c-21-29-38-57-93-57-32 0-86 11-128 77-31 49-32 79-32 107V1H99v-458h75l-2 88c45-108 209-131 286-49" id="y"/><path d="M40-457h86c2 11-6 15-2 25L256-98c46-116 110-226 136-359h65C416-289 337-148 277 3h-56" id="z"/><path d="M460-226c0 151-97 238-205 238C140 12 40-86 40-225c0-141 101-242 217-242 104 0 203 83 203 241zm-72 3c1-245-271-238-272-8-5 228 272 366 272 8" id="A"/><g id="f"><use transform="matrix(0.018,0,0,0.018,0,0)" xlink:href="#s"/><use transform="matrix(0.018,0,0,0.018,9,0)" xlink:href="#x"/><use transform="matrix(0.018,0,0,0.018,18,0)" xlink:href="#y"/><use transform="matrix(0.018,0,0,0.018,26.999999999999996,0)" xlink:href="#t"/><use transform="matrix(0.018,0,0,0.018,36,0)" xlink:href="#z"/><use transform="matrix(0.018,0,0,0.018,45,0)" xlink:href="#A"/><use transform="matrix(0.018,0,0,0.018,53.99999999999999,0)" xlink:href="#s"/></g><path d="M1276-545c1-139-53-237-182-237-75 0-146 38-211 114V0H700v-512c-4-181-24-274-184-274-109 0-143 48-213 118V0H121v-920h182v121c93-93 183-139 272-139 117 0 207 55 271 166 97-112 199-168 305-168 205 0 307 161 307 397V0h-182v-545" id="B"/><path d="M76-451c0-267 222-471 493-471s488 207 488 476c0 265-225 462-496 462C296 16 76-188 76-451zm796-4c0-172-139-303-313-303-172 0-299 133-299 305 0 174 132 299 307 299 174 0 305-128 305-301" id="C"/><path d="M717-524c-3-169-33-262-187-262-86 0-159 43-219 129V0H125v-920h186v117c117-131 280-184 437-91 117 70 151 162 151 368V0H717v-524" id="D"/><path d="M139-178c0-74 75-116 146-133C150-371 82-468 82-602c1-211 175-318 401-318h379v142H676c60 65 96 100 96 203 0 107-72 207-146 248-43 24-114 48-212 59-101 12-138 80-64 124 55 33 329 79 356 100 81 34 157 118 154 226-6 199-205 287-428 287C206 469 0 381 0 180 0 55 77-25 231-61c-61-39-92-78-92-117zm467-416c0-96-84-168-182-168-94 0-178 78-178 170 0 96 82 164 180 164 97 0 180-71 180-166zm-8 678c-123-61-426-72-426 98 0 95 85 142 256 142 81 0 144-12 188-36s66-57 66-100-28-76-84-104" id="E"/><path d="M391 16C248 13 200-13 84-66v-196c78 54 186 115 293 121 64 4 138-37 139-95 0-27-8-48-26-66s-56-44-115-77c-117-65-195-121-231-167s-54-97-54-152c-1-149 137-240 295-240 90 0 182 25 277 76v180c-108-65-196-98-265-98-93 0-157 78-89 143 29 27 119 78 169 107 153 87 230 183 230 288C708-83 559 21 391 16" id="F"/><g id="g"><use transform="matrix(0.006510416666666667,0,0,0.006510416666666667,0,0)" xlink:href="#B"/><use transform="matrix(0.006510416666666667,0,0,0.006510416666666667,10.279947916666668,0)" xlink:href="#C"/><use transform="matrix(0.006510416666666667,0,0,0.006510416666666667,17.63671875,0)" xlink:href="#D"/><use transform="matrix(0.006510416666666667,0,0,0.006510416666666667,24.303385416666668,0)" xlink:href="#E"/><use transform="matrix(0.006510416666666667,0,0,0.006510416666666667,29.86328125,0)" xlink:href="#C"/><use transform="matrix(0.006510416666666667,0,0,0.006510416666666667,37.220052083333336,0)" xlink:href="#F"/></g><path d="M586-1399c254-5 439 151 438 398-1 173-100 299-228 353-93 39-292 44-452 42V0H143v-1399h443zm-23 615c154 1 254-73 254-222 0-143-89-215-266-215H344v437h219" id="G"/><path d="M541-764c-125-1-217 148-217 283V0H141v-920h183v211c142-236 286-310 489-125l-96 160c-63-60-122-90-176-90" id="H"/><path d="M117-1200c0-54 52-107 106-107 58 0 109 49 109 107 0 57-51 108-109 108-54 0-106-53-106-108zm16 280h182V0H133v-920" id="I"/><path d="M279 14C154 14 49-84 55-209c11-240 284-270 473-344 10-137-37-215-166-215-99 0-196 51-290 154v-199c71-83 172-125 305-125 171 0 301 80 323 228s4 380 7 548c0 31 11 47 32 47 22 0 56-16 103-49v111c-70 41-94 69-178 69-78 0-124-31-138-92-77 60-160 90-247 90zm-43-254c-2 75 56 129 131 129 58 0 112-24 161-71v-273c-79 31-209 74-254 121-25 26-38 57-38 94" id="J"/><path d="M692-920h205L246 469H43l313-666L0-920h207l248 519" id="K"/><g id="h"><use transform="matrix(0.006510416666666667,0,0,0.006510416666666667,0,0)" xlink:href="#G"/><use transform="matrix(0.006510416666666667,0,0,0.006510416666666667,6.796875,0)" xlink:href="#H"/><use transform="matrix(0.006510416666666667,0,0,0.006510416666666667,12.076822916666668,0)" xlink:href="#I"/><use transform="matrix(0.006510416666666667,0,0,0.006510416666666667,15,0)" xlink:href="#B"/><use transform="matrix(0.006510416666666667,0,0,0.006510416666666667,25.27994791666667,0)" xlink:href="#J"/><use transform="matrix(0.006510416666666667,0,0,0.006510416666666667,30.97005208333334,0)" xlink:href="#H"/><use transform="matrix(0.006510416666666667,0,0,0.006510416666666667,36.64713541666667,0)" xlink:href="#K"/></g><path d="M465-160c115 0 219-75 219-184 0-85-61-167-184-242-115-71-295-172-356-264-38-58-60-121-60-194 0-224 182-371 412-371 117 0 224 33 321 98v227c-101-97-209-145-325-145-114 0-223 58-224 162 0 42 15 81 46 118 59 73 208 148 302 205 170 102 256 231 256 388 0 225-175 378-405 378-138 0-264-42-377-127v-254c108 137 233 205 375 205" id="L"/><path d="M512-938c262 0 413 213 401 494H266c6 169 125 288 299 288 120 0 231-37 332-112v178C790-20 702 12 537 14c-210 1-322-95-397-232-39-71-56-154-56-247 0-265 171-473 428-473zm221 385c-7-136-83-227-221-227-143 0-220 95-242 227h463" id="M"/><path d="M262-461c0 187 127 307 316 307 70 0 150-20 241-61v180C728-1 638 16 551 16 268 16 78-172 78-455c0-278 181-487 454-483 122 2 168 22 267 64v194c-92-59-177-88-256-88-165 0-281 138-281 307" id="N"/><path d="M90-475c0-262 193-465 453-465 61 0 128 13 200 39v-496h183V0H537C263 3 90-196 90-475zm481-307c-186-2-297 138-297 329 0 141 61 243 159 281 51 21 218 15 310 16v-583c-57-29-114-43-172-43" id="O"/><g id="i"><use transform="matrix(0.006510416666666667,0,0,0.006510416666666667,0,0)" xlink:href="#L"/><use transform="matrix(0.006510416666666667,0,0,0.006510416666666667,6.106770833333334,0)" xlink:href="#M"/><use transform="matrix(0.006510416666666667,0,0,0.006510416666666667,12.493489583333334,0)" xlink:href="#N"/><use transform="matrix(0.006510416666666667,0,0,0.006510416666666667,18.333333333333336,0)" xlink:href="#C"/><use transform="matrix(0.006510416666666667,0,0,0.006510416666666667,25.69010416666667,0)" xlink:href="#D"/><use transform="matrix(0.006510416666666667,0,0,0.006510416666666667,32.356770833333336,0)" xlink:href="#O"/><use transform="matrix(0.006510416666666667,0,0,0.006510416666666667,39.153645833333336,0)" xlink:href="#J"/><use transform="matrix(0.006510416666666667,0,0,0.006510416666666667,44.84375,0)" xlink:href="#H"/><use transform="matrix(0.006510416666666667,0,0,0.006510416666666667,50.52083333333333,0)" xlink:href="#K"/></g><path d="M537-793c-115 4-158 59-230 134V0H125v-1397h182v598c105-135 293-188 448-93 113 70 144 170 144 368V0H717v-569c3-122-65-228-180-224" id="P"/><g id="j"><use transform="matrix(0.0087890625,0,0,0.0087890625,0,0)" xlink:href="#L"/><use transform="matrix(0.0087890625,0,0,0.0087890625,8.244140625,0)" xlink:href="#P"/><use transform="matrix(0.0087890625,0,0,0.0087890625,17.244140625,0)" xlink:href="#J"/><use transform="matrix(0.0087890625,0,0,0.0087890625,24.92578125,0)" xlink:href="#H"/><use transform="matrix(0.0087890625,0,0,0.0087890625,31.78125,0)" xlink:href="#O"/></g><path d="M520-1415c128 0 230 69 318 201 164 247 163 785 0 1029C751-55 645 14 512 14c-135 0-240-67-326-195-161-240-160-796 4-1035 89-130 195-199 330-199zm176 334c-48-98-101-144-184-144-77 0-134 48-182 141-87 168-87 605-2 773 47 93 105 141 182 141s135-48 183-141c87-169 87-599 3-770" id="Q"/><g id="k"><use transform="matrix(0.0087890625,0,0,0.0087890625,0,0)" xlink:href="#Q"/><use transform="matrix(0.0087890625,0,0,0.0087890625,9,0)" xlink:href="#Q"/><use transform="matrix(0.0087890625,0,0,0.0087890625,18,0)" xlink:href="#Q"/><use transform="matrix(0.0087890625,0,0,0.0087890625,27,0)" xlink:href="#Q"/></g><path d="M176-1397h477v164H373V287h280v164H176v-1848" id="R"/><path d="M254-946H143l-49-281v-239h205v239zm330 0H475l-49-281v-239h205v239" id="S"/><path d="M133-1397h182V0H133v-1397" id="T"/><path d="M522-1235c-182-2-191 119-190 315h164v164H332V0H150v-756H18v-164h132c-6-169 22-306 94-386 96-107 202-131 362-91v178c-29-11-57-16-84-16" id="U"/><g id="l"><use transform="matrix(0.0087890625,0,0,0.0087890625,0,0)" xlink:href="#R"/><use transform="matrix(0.0087890625,0,0,0.0087890625,5.994140625,0)" xlink:href="#S"/><use transform="matrix(0.0087890625,0,0,0.0087890625,12.3662109375,0)" xlink:href="#J"/><use transform="matrix(0.0087890625,0,0,0.0087890625,20.0478515625,0)" xlink:href="#T"/><use transform="matrix(0.0087890625,0,0,0.0087890625,23.994140625,0)" xlink:href="#U"/><use transform="matrix(0.0087890625,0,0,0.0087890625,28.494140625,0)" xlink:href="#J"/><use transform="matrix(0.0087890625,0,0,0.0087890625,36.17578125,0)" xlink:href="#S"/></g><path d="M506 451H31V287h278v-1520H31v-164h475V451" id="V"/><g id="m"><use transform="matrix(0.0087890625,0,0,0.0087890625,0,0)" xlink:href="#p"/><use transform="matrix(0.0087890625,0,0,0.0087890625,13.5,0)" xlink:href="#q"/><use transform="matrix(0.0087890625,0,0,0.0087890625,26.244140625,0)" xlink:href="#V"/></g><g id="n"><use transform="matrix(0.0087890625,0,0,0.0087890625,0,0)" xlink:href="#Q"/><use transform="matrix(0.0087890625,0,0,0.0087890625,9,0)" xlink:href="#Q"/><use transform="matrix(0.0087890625,0,0,0.0087890625,18,0)" xlink:href="#Q"/><use transform="matrix(0.0087890625,0,0,0.0087890625,27,0)" xlink:href="#r"/></g><path d="M465 16c-112 0-271-29-344-67v-1346h182v543c79-57 163-86 252-86 242-3 397 217 397 471 0 292-196 485-487 485zm303-477c0-168-98-310-258-309-68 0-137 30-207 90v498c62 19 126 28 191 28 164 0 274-138 274-307" id="W"/><path d="M692-920h197L483 16h-61L6-920h199l248 566" id="X"/><g id="o"><use transform="matrix(0.0087890625,0,0,0.0087890625,0,0)" xlink:href="#R"/><use transform="matrix(0.0087890625,0,0,0.0087890625,5.994140625,0)" xlink:href="#S"/><use transform="matrix(0.0087890625,0,0,0.0087890625,12.3662109375,0)" xlink:href="#W"/><use transform="matrix(0.0087890625,0,0,0.0087890625,21.3662109375,0)" xlink:href="#H"/><use transform="matrix(0.0087890625,0,0,0.0087890625,28.494140625,0)" xlink:href="#J"/><use transform="matrix(0.0087890625,0,0,0.0087890625,35.54296875,0)" xlink:href="#X"/><use transform="matrix(0.0087890625,0,0,0.0087890625,43.06640625,0)" xlink:href="#C"/><use transform="matrix(0.0087890625,0,0,0.0087890625,52.998046875,0)" xlink:href="#S"/></g></defs></g></svg>