<svg width="30" height="30" viewBox="0 0 30 30" fill="none" xmlns="http://www.w3.org/2000/svg">
<path fill-rule="evenodd" clip-rule="evenodd" d="M3.22027 19.0113C2.92235 19.4971 2.92696 20.1104 3.23216 20.5918L8.75624 29.3059C9.11475 29.8714 9.80583 30.1293 10.4472 29.9369L26.3884 25.1545C27.2583 24.8935 27.696 23.9231 27.3157 23.0983L17.068 0.868519C16.5683 -0.215573 15.0617 -0.304559 14.4378 0.713161L3.22027 19.0113ZM16.7957 5.95047C16.5779 5.44648 15.8404 5.52411 15.7323 6.0624L11.7869 25.7069C11.7037 26.1211 12.0916 26.4748 12.4964 26.354L23.5105 23.0662C23.832 22.9703 23.9976 22.6152 23.8644 22.3072L16.7957 5.95047Z" fill="white"/>
</svg>
