<svg width="600" height="404" viewBox="0 0 600 404" fill="none" xmlns="http://www.w3.org/2000/svg">
<path d="M174.564 34.4829H341.783C352.876 34.4907 363.511 38.9053 371.351 46.756C379.19 54.6067 383.592 65.2508 383.588 76.3476C383.588 87.4425 387.991 98.0836 395.83 105.932C403.669 113.781 414.302 118.195 425.393 118.205C436.492 118.205 447.136 122.616 454.984 130.467C462.832 138.318 467.242 148.966 467.242 160.07C467.242 171.173 462.832 181.821 454.984 189.672C447.136 197.524 436.492 201.934 425.393 201.934H341.119C330.027 201.944 319.392 206.359 311.553 214.21C303.714 222.06 299.312 232.703 299.314 243.799V285.656C299.314 296.597 297.16 307.43 292.975 317.537C288.79 327.645 282.655 336.829 274.922 344.565C267.189 352.301 258.009 358.437 247.905 362.624C237.802 366.811 226.972 368.966 216.036 368.966C205.1 368.966 194.271 366.811 184.167 362.624C174.064 358.437 164.883 352.301 157.15 344.565C149.417 336.829 143.283 327.645 139.098 317.537C134.913 307.43 132.759 296.597 132.759 285.656V76.3476C133.095 53.2347 151.489 34.4829 174.564 34.4829Z" fill="#E3FCF7"/>
<g clip-path="url(#clip0_63_17950)">
<path d="M369.654 223.045L203.215 298.874C193.638 303.24 185.868 297.447 185.868 285.939V176.914C185.868 165.406 193.638 152.536 203.215 148.177L369.654 72.3476C379.231 67.9811 387.001 73.7744 387.001 85.2821V194.308C387.001 205.816 379.231 218.686 369.654 223.045Z" fill="black"/>
<path d="M377.66 228.014L211.221 303.843C201.644 308.209 193.875 302.416 193.875 290.908V181.882C193.875 170.375 201.644 157.505 211.221 153.145L377.66 77.3164C387.238 72.9499 395.007 78.7432 395.007 90.2509V199.277C395.007 210.784 387.238 223.654 377.66 228.014Z" fill="white" stroke="black" stroke-width="0.862069" stroke-linecap="round" stroke-linejoin="round"/>
<path d="M320.389 135.809L239.724 172.562V167.708L320.389 130.955V135.809Z" fill="#FFE212" stroke="black" stroke-width="0.862069" stroke-linecap="round" stroke-linejoin="round"/>
<path d="M236.991 249.251L206.171 263.29V258.436L236.991 244.39V249.251Z" fill="#FFE212" stroke="black" stroke-width="0.862069" stroke-linecap="round" stroke-linejoin="round"/>
<path d="M305.116 193.196L206.171 238.281V233.42L305.116 188.342V193.196Z" fill="#FFE212" stroke="black" stroke-width="0.862069" stroke-linecap="round" stroke-linejoin="round"/>
<path d="M206.171 208.002L269.626 179.093V183.947L206.171 212.864V208.002Z" fill="#FFE212" stroke="black" stroke-width="0.862069" stroke-linecap="round" stroke-linejoin="round"/>
<path d="M269.246 254.707L320.39 231.405V236.259L269.246 259.561V254.707Z" fill="#FFE212" stroke="black" stroke-width="0.862069" stroke-linecap="round" stroke-linejoin="round"/>
<path d="M243.698 241.335L290.975 219.797V224.651L243.698 246.189V241.335Z" fill="#FFE212" stroke="black" stroke-width="0.862069" stroke-linecap="round" stroke-linejoin="round"/>
<path d="M206.171 283.444L262.53 257.762V262.623L206.171 288.298V283.444Z" fill="#FFE212" stroke="black" stroke-width="0.862069" stroke-linecap="round" stroke-linejoin="round"/>
<path d="M206.393 190.199L219.027 178.369L206.393 178.003V171.249L226.846 172.195V177.408L206.393 196.968V190.199Z" fill="#00ED64"/>
<path d="M206.393 190.199L219.027 178.369L206.393 178.003V171.249L226.846 172.195V177.408L206.393 196.968V190.199Z" fill="#00ED64" stroke="black" stroke-width="0.862069" stroke-linecap="round" stroke-linejoin="round"/>
<path d="M395.007 158.702L340.706 183.445C332.033 187.396 324.938 182.105 324.938 171.687C324.938 161.269 332.033 149.517 340.706 145.567L395.007 120.823V158.702Z" fill="black"/>
<path d="M441.631 147.509L348.375 189.998C339.702 193.949 332.606 188.658 332.606 178.24C332.606 167.822 339.702 156.07 348.375 152.12L441.631 109.631C450.304 105.68 457.4 110.971 457.4 121.389C457.4 131.807 450.304 143.559 441.631 147.509Z" fill="white" stroke="black" stroke-width="0.862069" stroke-linecap="round" stroke-linejoin="round"/>
<path d="M362.788 164.495L374.475 159.168" stroke="black" stroke-width="0.862069" stroke-linecap="square" stroke-linejoin="round" stroke-dasharray="1.72 1.72"/>
<path d="M381.19 156.106L408.76 143.552" stroke="black" stroke-width="0.862069" stroke-linecap="square" stroke-linejoin="round" stroke-dasharray="1.72 1.72"/>
<path d="M415.468 140.49L443.038 127.928" stroke="black" stroke-width="0.862069" stroke-linecap="square" stroke-linejoin="round" stroke-dasharray="1.72 1.72"/>
<path d="M356.704 167.263L350.542 174.354L344.372 181.438V172.884V164.33L350.542 165.8L356.704 167.263Z" fill="#FFC010" stroke="black" stroke-width="0.862069" stroke-linecap="round" stroke-linejoin="round"/>
<path d="M443.942 94.187L415.791 107.014V87.7269L443.942 74.8999V94.187Z" fill="white" stroke="black" stroke-width="0.862069" stroke-linecap="round" stroke-linejoin="round"/>
<path d="M401.398 110.115C404.251 104.568 403.695 98.5977 400.157 96.7804C396.619 94.9631 391.438 97.9867 388.586 103.534C385.733 109.081 386.289 115.051 389.827 116.868C393.365 118.685 398.546 115.662 401.398 110.115Z" fill="white" stroke="black" stroke-width="0.862069" stroke-linecap="round" stroke-linejoin="round"/>
<path d="M397.851 108.292C399.124 105.816 398.876 103.152 397.297 102.341C395.719 101.53 393.407 102.88 392.133 105.356C390.86 107.832 391.108 110.496 392.687 111.307C394.265 112.118 396.577 110.768 397.851 108.292Z" fill="#00ED64" stroke="black" stroke-width="0.862069" stroke-linecap="round" stroke-linejoin="round"/>
<path d="M403.236 103.092L415.79 97.3706" stroke="black" stroke-width="0.862069" stroke-linecap="round" stroke-linejoin="round"/>
<path d="M429.866 100.604V114.994" stroke="black" stroke-width="0.862069" stroke-linecap="round" stroke-linejoin="round"/>
<path d="M429.866 87.7915V94.1225" stroke="black" stroke-width="0.862069" stroke-linecap="round" stroke-linejoin="round"/>
<path d="M371.641 179.394V209.121" stroke="black" stroke-width="0.862069" stroke-linecap="round" stroke-linejoin="round"/>
<path d="M415.468 189.152L371.641 209.121" stroke="black" stroke-width="0.862069" stroke-linecap="round" stroke-linejoin="round"/>
<path d="M443.617 195.611C451.129 181.002 449.672 165.283 440.361 160.5C431.051 155.718 417.414 163.685 409.901 178.294C402.389 192.903 403.846 208.622 413.157 213.404C422.467 218.186 436.105 210.22 443.617 195.611Z" fill="black"/>
<path d="M448.579 198.32C456.091 183.711 454.634 167.992 445.323 163.209C436.013 158.427 422.375 166.394 414.863 181.003C407.351 195.612 408.808 211.331 418.119 216.113C427.429 220.895 441.067 212.929 448.579 198.32Z" fill="#FFC010" stroke="black" stroke-width="0.862069" stroke-linecap="round" stroke-linejoin="round"/>
<path d="M445.749 173.135L441.753 170.152L426.106 196.072L419.607 191.218L415.604 197.843L423.689 203.872L423.703 203.851L426.121 205.658L445.749 173.135Z" fill="black" stroke="black" stroke-width="0.862069" stroke-linecap="round" stroke-linejoin="round"/>
<path d="M448.095 174.913L444.092 171.931L428.452 197.85L421.945 193.003L417.949 199.628L426.027 205.658L426.042 205.636L428.459 207.436L448.095 174.913Z" fill="#00ED64" stroke="black" stroke-width="0.862069" stroke-linecap="round" stroke-linejoin="round"/>
<path d="M228.862 118.421L297.03 87.3613" stroke="black" stroke-width="0.862069" stroke-linecap="square" stroke-linejoin="round" stroke-dasharray="1.72 1.72"/>
<path d="M169.138 213.573V170.962C169.138 156.974 178.579 141.329 190.23 136.023L221.279 121.877" stroke="black" stroke-width="0.862069" stroke-linecap="square" stroke-linejoin="round" stroke-dasharray="1.72 1.72"/>
<path d="M223.855 291.037C223.891 290.327 223.912 289.617 223.912 288.908C223.912 270.502 211.494 261.239 196.17 268.222C184.103 273.722 173.837 287.66 170.021 302.322C162.89 306.036 156.842 314.095 154.094 322.807C147.86 326.851 143.104 335.505 143.104 343.334C143.104 352.017 148.965 356.384 156.189 353.093L221.717 323.237C228.941 319.946 234.803 310.238 234.803 301.555C234.803 293.754 230.068 289.438 223.862 291.037H223.855Z" fill="black"/>
<path d="M232.858 295.109C232.894 294.399 232.916 293.69 232.916 292.98C232.916 274.575 220.497 265.311 205.174 272.295C193.107 277.794 182.841 291.732 179.024 306.395C171.893 310.109 165.845 318.168 163.098 326.879C156.863 330.923 152.107 339.577 152.107 347.407C152.107 356.089 157.968 360.456 165.192 357.165L230.721 327.309C237.945 324.018 243.806 314.31 243.806 305.628C243.806 297.827 239.071 293.51 232.866 295.109H232.858Z" fill="#FFC010" stroke="black" stroke-width="0.862069" stroke-linecap="round" stroke-linejoin="round"/>
<path d="M344.057 92.6455L322.276 102.569L328.582 108.563L344.057 92.6455Z" fill="black"/>
<path d="M307.663 97.2846L377.509 46.0483L313.761 84.0346L307.663 97.2846Z" fill="black" stroke="black" stroke-width="0.862069" stroke-linecap="round" stroke-linejoin="round"/>
<path d="M377.509 46.0483L307.662 77.8684L294.354 66.8053L377.509 46.0483L313.76 84.0346L327.707 97.2846L377.509 46.0483Z" fill="#FFE212"/>
<path d="M377.509 46.0483L307.662 77.8684L294.354 66.8053L377.509 46.0483ZM377.509 46.0483L313.76 84.0346L327.707 97.2846L377.509 46.0483Z" stroke="black" stroke-width="0.862069" stroke-linecap="round" stroke-linejoin="round"/>
<path d="M307.663 77.8684V97.2846L313.761 84.0346L377.509 46.0483L307.663 77.8684Z" fill="black" stroke="black" stroke-width="0.862069" stroke-linecap="round" stroke-linejoin="round"/>
<path d="M299.319 329.927L405.567 281.523L375.106 251.079L268.858 299.483L299.319 329.927Z" fill="#FFE212" stroke="black" stroke-width="0.862069" stroke-linecap="round" stroke-linejoin="round"/>
<path d="M299.319 329.927V343.801L405.567 295.39V281.523L299.319 329.927Z" fill="#FFC010" stroke="black" stroke-width="0.862069" stroke-linecap="round" stroke-linejoin="round"/>
<path d="M268.858 299.483V316.44L299.319 343.8V329.926L268.858 299.483Z" fill="black" stroke="black" stroke-width="0.862069" stroke-linecap="round" stroke-linejoin="round"/>
<path d="M278.514 301.233L373.894 257.776L395.911 279.78L300.531 323.23L278.514 301.233Z" fill="white" stroke="black" stroke-width="0.862069" stroke-linecap="round" stroke-linejoin="round"/>
<path d="M278.514 289.044L373.894 245.594L395.911 267.592L300.531 311.048L278.514 289.044Z" fill="#FFE212" stroke="black" stroke-width="0.862069" stroke-linecap="round" stroke-linejoin="round"/>
<path d="M278.514 289.044V301.233L300.531 323.23V311.048L278.514 289.044Z" fill="black" stroke="black" stroke-width="0.862069" stroke-linecap="round" stroke-linejoin="round"/>
<path d="M395.911 267.592L300.532 311.049V323.23L395.911 279.781V267.592Z" fill="#FFC010" stroke="black" stroke-width="0.862069" stroke-linecap="round" stroke-linejoin="round"/>
<path d="M285.746 285.753L307.763 307.757" stroke="black" stroke-width="0.862069" stroke-linecap="round" stroke-linejoin="round"/>
<path d="M293.192 282.361L315.202 304.366" stroke="black" stroke-width="0.862069" stroke-linecap="round" stroke-linejoin="round"/>
<path d="M300.532 279.021L322.549 301.018" stroke="black" stroke-width="0.862069" stroke-linecap="round" stroke-linejoin="round"/>
<path d="M307.863 275.801L329.881 297.806" stroke="black" stroke-width="0.862069" stroke-linecap="round" stroke-linejoin="round"/>
<path d="M315.203 272.331L337.22 294.336" stroke="black" stroke-width="0.862069" stroke-linecap="round" stroke-linejoin="round"/>
<path d="M322.542 268.99L344.559 290.994" stroke="black" stroke-width="0.862069" stroke-linecap="round" stroke-linejoin="round"/>
<path d="M329.881 265.648L351.891 287.653" stroke="black" stroke-width="0.862069" stroke-linecap="round" stroke-linejoin="round"/>
<path d="M337.212 262.307L359.23 284.304" stroke="black" stroke-width="0.862069" stroke-linecap="round" stroke-linejoin="round"/>
<path d="M344.551 258.958L366.569 280.963" stroke="black" stroke-width="0.862069" stroke-linecap="round" stroke-linejoin="round"/>
<path d="M351.891 255.618L373.908 277.622" stroke="black" stroke-width="0.862069" stroke-linecap="round" stroke-linejoin="round"/>
<path d="M359.058 252.276L381.068 274.281" stroke="black" stroke-width="0.862069" stroke-linecap="round" stroke-linejoin="round"/>
<path d="M366.562 248.936L388.579 270.94" stroke="black" stroke-width="0.862069" stroke-linecap="round" stroke-linejoin="round"/>
<path d="M300.532 311.048V323.23" stroke="black" stroke-width="0.862069" stroke-linecap="round" stroke-linejoin="round"/>
<path d="M307.871 307.757V319.889" stroke="black" stroke-width="0.862069" stroke-linecap="round" stroke-linejoin="round"/>
<path d="M315.203 304.366V316.547" stroke="black" stroke-width="0.862069" stroke-linecap="round" stroke-linejoin="round"/>
<path d="M322.542 301.018V313.206" stroke="black" stroke-width="0.862069" stroke-linecap="round" stroke-linejoin="round"/>
<path d="M329.881 297.676V309.865" stroke="black" stroke-width="0.862069" stroke-linecap="round" stroke-linejoin="round"/>
<path d="M337.212 294.335V306.517" stroke="black" stroke-width="0.862069" stroke-linecap="round" stroke-linejoin="round"/>
<path d="M344.551 290.994V303.176" stroke="black" stroke-width="0.862069" stroke-linecap="round" stroke-linejoin="round"/>
<path d="M351.891 287.653V299.835" stroke="black" stroke-width="0.862069" stroke-linecap="round" stroke-linejoin="round"/>
<path d="M359.23 284.304V296.493" stroke="black" stroke-width="0.862069" stroke-linecap="round" stroke-linejoin="round"/>
<path d="M366.562 280.963V293.052" stroke="black" stroke-width="0.862069" stroke-linecap="round" stroke-linejoin="round"/>
<path d="M373.901 277.622V289.804" stroke="black" stroke-width="0.862069" stroke-linecap="round" stroke-linejoin="round"/>
<path d="M381.24 274.281V286.463" stroke="black" stroke-width="0.862069" stroke-linecap="round" stroke-linejoin="round"/>
<path d="M388.572 270.939V283.121" stroke="black" stroke-width="0.862069" stroke-linecap="round" stroke-linejoin="round"/>
<path d="M395.911 267.592V279.781" stroke="black" stroke-width="0.862069" stroke-linecap="round" stroke-linejoin="round"/>
<path d="M284.06 294.586L379.439 251.129" stroke="black" stroke-width="0.862069" stroke-linecap="round" stroke-linejoin="round"/>
<path d="M289.562 300.028L384.906 256.593" stroke="black" stroke-width="0.862069" stroke-linecap="round" stroke-linejoin="round"/>
<path d="M295.043 305.563L390.422 262.106" stroke="black" stroke-width="0.862069" stroke-linecap="round" stroke-linejoin="round"/>
<path d="M427.075 92.2296L432.657 89.6914" stroke="black" stroke-width="0.862069" stroke-linecap="round" stroke-linejoin="round"/>
<path d="M169.131 242.188C174.215 242.188 178.335 238.07 178.335 232.989C178.335 227.909 174.215 223.79 169.131 223.79C164.048 223.79 159.927 227.909 159.927 232.989C159.927 238.07 164.048 242.188 169.131 242.188Z" fill="white" stroke="black" stroke-width="0.862069" stroke-linecap="round" stroke-linejoin="round"/>
<path d="M163.952 240.597C165.429 241.6 167.209 242.196 169.131 242.196C174.218 242.196 178.336 238.08 178.336 232.996C178.336 231.075 177.747 229.29 176.736 227.82C173.486 232.982 169.11 237.356 163.944 240.604L163.952 240.597Z" fill="black" stroke="black" stroke-width="0.862069" stroke-linecap="round" stroke-linejoin="round"/>
<path d="M421.264 232.394H409.944L404.283 242.188L409.944 251.989H421.264L426.925 242.188L421.264 232.394Z" fill="white" stroke="black" stroke-width="0.862069" stroke-linecap="round" stroke-linejoin="round"/>
<path d="M409.944 251.99H421.264L415.604 242.188H404.283L409.944 251.99Z" fill="black" stroke="black" stroke-width="0.862069" stroke-linecap="round" stroke-linejoin="round"/>
<path d="M421.264 232.394L415.604 242.188" stroke="black" stroke-width="0.862069" stroke-linecap="round" stroke-linejoin="round"/>
</g>
<defs>
<clipPath id="clip0_63_17950">
<rect width="314.655" height="312.931" fill="white" transform="translate(143.104 45.6895)"/>
</clipPath>
</defs>
</svg>
