<svg xmlns="http://www.w3.org/2000/svg" width="330" height="360" fill="none"><path fill="#fff" d="M0 0h330v360H0z"/><path fill="#5CA831" d="M318.399 208.4c0-2.6-4.5-4.6-10-4.6h-288.7c-5.5 0-10 2-10 4.6v134.4c0 2.6 4.5 4.7 10 4.7h288.7c5.5 0 10-2 10-4.7z"/><path stroke="#5CA831" d="M318.399 208.4c0-2.6-4.5-4.6-10-4.6h-288.7c-5.5 0-10 2-10 4.6v134.4c0 2.6 4.5 4.7 10 4.7h288.7c5.5 0 10-2 10-4.7z"/><path fill="#5CA831" d="M318.399 19c0-3-4.5-5.5-10-5.5h-288.7c-5.5 0-10 2.4-10 5.5v157c0 3 4.5 5.5 10 5.5h288.7c5.5 0 10-2.4 10-5.5z"/><path stroke="#5CA831" d="M318.399 19c0-3-4.5-5.5-10-5.5h-288.7c-5.5 0-10 2.4-10 5.5v157c0 3 4.5 5.5 10 5.5h288.7c5.5 0 10-2.4 10-5.5z"/><path fill="#fff" d="M229.801 79.1h47.7v63.3h-47.7z"/><path stroke="#D33907" d="M229.801 79.1h47.7v63.3h-47.7z"/><path fill="#fff" d="M221.301 86.3h49.2v64h-49.2z"/><path stroke="#D33907" d="M221.301 86.3h49.2v64h-49.2z"/><path fill="#fff" d="M215.199 93.7h47.7v62.6h-47.7z"/><path stroke="#D33907" d="M215.199 93.7h47.7v62.6h-47.7z"/><path fill="#fff" d="M206.699 100.9h49.2v64h-49.2z"/><path stroke="#D33907" d="M206.699 100.9h49.2v64h-49.2z"/><path stroke="#D33907" d="M196 71.4h91v101.1h-91z"/><path fill="#fff" d="M49 246.5h74v42.4H49z"/><path stroke="#0C60B2" stroke-width=".9" d="M49 246.5h74v42.4H49z"/><path fill="#fff" d="M35.8 250.8h76.401v38.9h-76.4z"/><path stroke="#0C60B2" stroke-width=".9" d="M35.8 250.8h76.401v38.9h-76.4z"/><path fill="#fff" d="M49 296.1h74v42.5H49z"/><path stroke="#0C60B2" stroke-width=".9" d="M49 296.1h74v42.5H49z"/><path fill="#fff" d="M35.8 300.5h76.401v38.8h-76.4z"/><path stroke="#0C60B2" stroke-width=".9" d="M35.8 300.5h76.401v38.8h-76.4z"/><path fill="#fff" d="M49 80h74v42.5H49z"/><path stroke="#0C60B2" stroke-width=".9" d="M49 80h74v42.5H49z"/><path fill="#fff" d="M35.8 84.4h76.401v38.8h-76.4z"/><path stroke="#0C60B2" stroke-width=".9" d="M35.8 84.4h76.401v38.8h-76.4z"/><path fill="#fff" d="M49 129.7h74V172H49z"/><path stroke="#0C60B2" stroke-width=".9" d="M49 129.7h74V172H49z"/><path fill="#fff" d="M35.8 134h76.401v39h-76.4z"/><path stroke="#0C60B2" stroke-width=".9" d="M35.8 134h76.401v39h-76.4z"/><path stroke="#0C60B2" stroke-dasharray="2 2" d="M31 71.4h96.4c5.6 0 10 6 10 13.6v249c0 7.4-4.4 13.5-10 13.5H31c-5.6 0-10-6-10-13.6V85c0-7.4 4.4-13.5 10-13.5z"/><path fill="#0C60B2" d="M34.3 59.5v2.2Q32.1 63 29.1 63q-2.4 0-4-1a6.75 6.75 0 0 1-2.7-2.6q-1-1.7-1-3.6 0-3.2 2.3-5.3 2.2-2.1 5.5-2.1 2.2 0 5 1.2v2.2q-2.5-1.5-5-1.5-2.4 0-4 1.6-1.6 1.5-1.6 3.9 0 2.3 1.6 3.8 1.6 1.6 4 1.6 2.7 0 5.1-1.6zm6.8-6.2q2.2 0 3.6 1.4t1.4 3.5q0 2-1.4 3.4-1.4 1.3-3.6 1.3-2.199 0-3.6-1.3-1.4-1.4-1.4-3.4 0-2.1 1.4-3.5 1.5-1.4 3.6-1.4m0 1.7q-1.4 0-2.3.9-.8.9-.8 2.2 0 1.4.9 2.3.8.8 2.2.8t2.3-.9q.9-.8.9-2.2 0-1.3-1-2.2-.9-.9-2.3-.9zm7.1-6.5h2v14.3h-2zm4.7 0h1.8v14.3H53V48.5zm12.6 9.7H59q0 1.4.9 2.2.801.8 2.1.8 1.9 0 3.4-1.2v2q-.8.5-1.7.8-.8.2-2 .2-1.5 0-2.5-.6a4.37 4.37 0 0 1-1.5-1.8q-.6-1-.6-2.5 0-2.1 1.2-3.5 1.2-1.3 3.2-1.3 1.9 0 3 1.3t1.1 3.5v.2zm-6.6-1h4.8q-.1-1.2-.7-1.8t-1.6-.6-1.7.6q-.6.6-.8 1.7zm15.7 3.4v1.8q-1.4.5-2.8.5-2.2 0-3.5-1.3T67 58.1q0-2.199 1.3-3.6 1.3-1.3 3.4-1.3l1.3.1 1.4.5v2Q73 55 71.8 55q-1.299 0-2.1.9-.8.9-.8 2.3t.9 2.3q.8.8 2.3.8 1.1 0 2.5-.6zm.8-5.8 3.5-3.4v2h3V55h-3v4.7q0 1.6 1.3 1.6 1 0 2.2-.7v1.7q-1.1.6-2.4.6t-2.1-.7l-.5-.5-.3-.7v-6h-1.7zm9.3-5.4q.4 0 .8.3.3.3.3.8 0 .4-.3.8-.4.3-.8.3t-.8-.3q-.3-.4-.3-.8 0-.5.3-.8.4-.3.8-.3m-1 4h2v9.4h-2zm9.1-.1q2.2 0 3.6 1.4t1.4 3.5q0 2-1.4 3.4-1.5 1.3-3.7 1.3-2 0-3.5-1.3-1.4-1.4-1.4-3.4 0-2.1 1.4-3.5 1.5-1.4 3.6-1.4m0 1.7q-1.4 0-2.3.9-.8.9-.8 2.2 0 1.4.8 2.3 1 .8 2.3.8 1.4 0 2.2-.9 1-.8 1-2.2 0-1.3-1-2.2-.9-.9-2.3-.9zm8.9-1.6v1.2q1.3-1.4 2.9-1.4.9 0 1.6.4.801.5 1.2 1.3.4.8.4 2.5v5.4h-1.9v-5.4q0-1.4-.4-2-.5-.7-1.5-.7-1.3 0-2.3 1.3v6.8h-1.9v-9.4h2zm11.6-4.9h2v14.3h-2z"/><path fill="#fff" d="m127 28.1-1.8-1q-1.701-1-2.4-2-.7-1-.7-2.3 0-2 1.3-3.2 1.4-1.2 3.5-1.2 2 0 3.8 1.2v2.6q-1.8-1.7-3.8-1.7-1.2 0-2 .6-.7.5-.7 1.3t.6 1.4q.5.7 1.7 1.4l1.8 1q3 1.8 3 4.6 0 2-1.3 3.2t-3.4 1.2q-2.5 0-4.5-1.5v-3q2 2.4 4.4 2.4 1.1 0 1.9-.6.7-.6.7-1.5 0-1.5-2.1-2.9m6.6-9.5h2.1v7q1.299-1.6 3.3-1.6 1.1 0 2 .5.8.6 1.2 1.5.4 1 .4 2.9V35h-2v-6.7q0-1.1-.7-1.9-.501-.7-1.5-.7-.7 0-1.3.4-.6.3-1.4 1.2V35h-2.1zm18.8 9.9v4.6q0 .6.4.6.399 0 1.2-.6v1.3l-1.2.6q-.4.2-1 .2-1.3 0-1.5-1-1.401 1-3 1-1 0-1.8-.8-.7-.699-.7-1.8 0-1 .7-1.9.7-.8 2-1.2l2.8-1V28q0-1.9-2-1.9-1.701 0-3.3 1.8v-2.3q1.2-1.5 3.5-1.5 1.8 0 2.8 1 .4.2.7.7l.3 1 .1 1.8zm-2.1 4.4v-3.2l-1.4.5q-1.1.501-1.6.9-.4.4-.4 1 0 .801.4 1.2.4.4 1.1.4 1 0 1.9-.8m7.9-8.7v2.5-.2q1.6-2.5 3.2-2.5 1.2 0 2.5 1.2l-1.1 1.9q-1.1-1-2-1-1.1 0-1.9 1-.7 1-.7 2.3V35H156V24.2zm14-5.6h2.2V35h-4.6q-2.4 0-3.8-1.5t-1.4-4q0-2.4 1.5-4 1.5-1.5 3.8-1.5 1 0 2.3.4zm0 14.6v-6.9q-1-.5-2-.5-1.6 0-2.5 1-1 1.1-1 2.9 0 1.7.8 2.6.5.5 1 .7.6.2 2 .2zM187 18.5h1.7L196 35h-2.4l-2.2-4.8h-7l-2 4.8H180zm3.5 9.6-2.7-6-2.4 6h5.1"/><path fill="#D33907" d="M209.5 59.5v2.2q-2.3 1.2-5.2 1.2-2.4 0-4-1-1.8-.9-2.7-2.6-1-1.7-1-3.6 0-3.2 2.2-5.3 2.3-2.1 5.5-2.1 2.3 0 5 1.2v2.2q-2.5-1.5-4.9-1.5t-4 1.6q-1.7 1.5-1.7 3.9 0 2.3 1.6 3.8 1.6 1.6 4.1 1.6 2.6 0 5.1-1.6m6.8-6.2q2.1 0 3.6 1.4 1.4 1.4 1.4 3.5 0 2-1.4 3.4-1.5 1.3-3.7 1.3-2.1 0-3.5-1.3-1.5-1.4-1.5-3.4 0-2.1 1.5-3.5 1.4-1.4 3.6-1.4m-.1 1.7q-1.4 0-2.2.9-.9.9-.9 2.2 0 1.4 1 2.3.8.8 2.2.8 1.3 0 2.2-.9.9-.8.9-2.2 0-1.3-1-2.2-.8-.9-2.2-.9m7.2-6.5h1.9v14.3h-2V48.5zm4.6 0h1.9v14.3H228zm12.7 9.7H234q.1 1.4 1 2.2.8.8 2 .8 2 0 3.5-1.2v2l-1.7.8q-.9.2-2 .2-1.6 0-2.5-.6a5.2 5.2 0 0 1-1.6-1.8q-.5-1-.5-2.5 0-2.1 1.2-3.5 1.2-1.3 3.1-1.3 2 0 3 1.3 1.2 1.3 1.2 3.5v.2zm-6.6-1h4.7q0-1.2-.7-1.8-.5-.6-1.6-.6-1 0-1.6.6t-.8 1.7zm15.6 3.4v1.8q-1.401.5-2.7.5-2.2 0-3.5-1.3-1.4-1.3-1.4-3.5t1.3-3.6q1.3-1.3 3.4-1.3l1.3.1q.6.1 1.4.5v2q-1.4-.9-2.6-.9t-2 .9q-.9.9-.9 2.3t.9 2.3q.9.8 2.4.8.999 0 2.4-.6m.8-5.8 3.5-3.4v2h3V55h-3v4.7q0 1.6 1.4 1.6.999 0 2.1-.7v1.7q-1 .6-2.3.6t-2.2-.7l-.4-.5-.3-.7-.1-1.8V55h-1.7zm9.3-5.4q.5 0 .8.3.4.3.4.8 0 .4-.4.8-.3.3-.8.3-.4 0-.7-.3-.4-.4-.4-.8 0-.5.4-.8.3-.3.7-.3m-.9 4h1.9v9.4h-1.9zm9.1-.1q2.1 0 3.6 1.4 1.4 1.4 1.4 3.5 0 2-1.5 3.4-1.401 1.3-3.6 1.3-2.1 0-3.6-1.3-1.4-1.4-1.4-3.4 0-2.1 1.5-3.5 1.4-1.4 3.6-1.4m-.1 1.7q-1.4 0-2.2.9-.9.9-.9 2.2 0 1.4.9 2.3.9.8 2.3.8 1.3 0 2.2-.9.9-.8.9-2.2 0-1.3-1-2.2-.8-.9-2.2-.9m9-1.6v1.2q1.2-1.4 2.8-1.4 1 0 1.7.4.7.5 1.1 1.3t.4 2.5v5.4h-1.8v-5.4q0-1.4-.5-2-.4-.7-1.5-.7-1.3 0-2.2 1.3v6.8h-2v-9.4zm11.6 7.4h5.5v2h-9v-.2l.8-1 3.2-4.2q1.2-1.8 1.6-2.7.3-.8.3-1.7 0-1.2-.7-2-.7-.7-1.8-.7-.9 0-1.7.5-.801.5-1.5 1.4v-2.6q1.7-1.3 3.5-1.3t3 1.2q1.3 1.3 1.3 3.2 0 .9-.3 1.9t-1.1 2.2q-.8 1.3-2.6 3.5z"/><path fill="#fff" d="m120.8 218.2-1.8-1q-1.7-1-2.4-2t-.7-2.3q0-2 1.4-3.2 1.3-1.2 3.4-1.2t3.8 1.2v2.6q-1.8-1.7-3.8-1.7-1.1 0-1.9.6-.7.5-.7 1.3t.5 1.4q.6.7 1.8 1.4l1.8 1q3 1.8 3 4.6 0 2-1.4 3.2-1.3 1.2-3.4 1.2-2.4 0-4.4-1.5v-3q1.9 2.4 4.4 2.4 1 0 1.8-.6.7-.6.7-1.5 0-1.5-2.1-2.9m6.6-9.5h2.1v7q1.4-1.6 3.4-1.6 1 0 1.9.5.9.6 1.3 1.5.4 1 .4 2.9v6.1h-2.1v-6.7q0-1.2-.6-1.9t-1.6-.7q-.7 0-1.3.4-.6.3-1.4 1.2v7.7h-2v-16.4zm18.8 9.9v4.6q0 .6.4.6t1.2-.6v1.3l-1.2.6q-.399.2-.9.2-1.3 0-1.6-1-1.3 1-2.9 1-1.1 0-1.9-.8-.7-.7-.7-1.8 0-1 .7-1.9.801-.8 2.1-1.2l2.7-1v-.6q0-1.9-2-1.9-1.7 0-3.3 1.8v-2.3q1.2-1.5 3.6-1.5 1.7 0 2.8 1l.6.7.4 1zm-2 4.4v-3.2l-1.5.5-1.5.9q-.5.4-.5 1 0 .8.4 1.2.501.4 1.2.4 1 0 1.8-.8zm7.8-8.7v2.5l.1-.2q1.6-2.5 3.1-2.5 1.2 0 2.5 1.2l-1 1.9q-1.2-1-2.1-1-.999 0-1.8 1a3.58 3.58 0 0 0-.8 2.3v5.6h-2v-10.8h2.1zm14-5.6h2.2v16.4h-4.6q-2.3 0-3.8-1.5-1.4-1.5-1.4-4 0-2.4 1.5-4 1.5-1.5 3.8-1.5 1.101 0 2.4.4v-5.8zm0 14.6v-6.9q-1-.5-2-.5-1.5 0-2.5 1-1 1.1-1 2.9 0 1.7.9 2.6.5.5 1 .7.6.2 2 .2h1.7zm17.6 1.8H178v-16.4h4.2q2 0 3.2.6 1.1.5 1.7 1.5t.6 2.2q0 2.4-2.5 3.4 1.8.4 2.9 1.5 1 1.2 1 2.7 0 1.3-.6 2.3t-1.9 1.6q-1.2.6-3.1.6zm-1.2-14.3h-2v5h1.6q1.8 0 2.6-.8.8-.7.8-1.8 0-2.4-3-2.4m.2 7h-2.2v5.2h2.3q2 0 2.6-.3.7-.3 1.1-1 .4-.5.4-1.3 0-.7-.4-1.3a2.75 2.75 0 0 0-1.3-1q-.8-.3-2.5-.3"/></svg>