<?xml version="1.0" encoding="UTF-8"?>
<!DOCTYPE svg PUBLIC "-//W3C//DTD SVG 1.1//EN" "http://www.w3.org/Graphics/SVG/1.1/DTD/svg11.dtd">
<svg version="1.1" xmlns="http://www.w3.org/2000/svg" xmlns:xlink="http://www.w3.org/1999/xlink" x="0px" y="0px" width="910" height="260" viewBox="0, 0, 910, 260">
  <g id="Layer 1">
    <path d="M32.405,183.596 L692.405,183.596 L692.405,203.254 L32.405,203.254 z" fill="#1F66AF"/>
    <path d="M32.905,179.845 L32.905,217.004" fill-opacity="0" stroke="#B0C8DB" stroke-width="1" stroke-dasharray="2,2"/>
    <path d="M162.04,179.845 L162.04,217.004" fill-opacity="0" stroke="#B0C8DB" stroke-width="1" stroke-dasharray="2,2"/>
    <path d="M277.237,179.845 L277.237,217.004" fill-opacity="0" stroke="#B0C8DB" stroke-width="1" stroke-dasharray="2,2"/>
    <path d="M442.413,179.845 L442.413,217.004" fill-opacity="0" stroke="#B0C8DB" stroke-width="1" stroke-dasharray="2,2"/>
    <path d="M630.841,179.845 L630.841,217.004" fill-opacity="0" stroke="#B0C8DB" stroke-width="1" stroke-dasharray="2,2"/>
    <path d="M692.905,179.845 L692.905,217.004" fill-opacity="0" stroke="#B0C8DB" stroke-width="1" stroke-dasharray="2,2"/>
    <text transform="matrix(1, 0, 0, 1, 35.405, 232.824)">
      <tspan x="-15.75" y="2.734" font-family="Inconsolata" font-size="21" fill="#CD5A2B">min</tspan>
    </text>
    <text transform="matrix(1, 0, 0, 1, 152.69, 201.348)"/>
    <text transform="matrix(1, -0.018, 0.018, 1, 160.524, 230.077)">
      <tspan x="-10.5" y="5.5" font-family="Inconsolata" font-size="21" fill="#CD5A2B">18</tspan>
    </text>
    <text transform="matrix(1, 0, 0, 1, 276.604, 230.058)">
      <tspan x="-10.5" y="5.5" font-family="Inconsolata" font-size="21" fill="#CD5A2B">30</tspan>
    </text>
    <text transform="matrix(1, 0, 0, 1, 441.06, 230.058)">
      <tspan x="-10.5" y="5.5" font-family="Inconsolata" font-size="21" fill="#CD5A2B">45</tspan>
    </text>
    <text transform="matrix(1, 0, 0, 1, 630.112, 230.058)">
      <tspan x="-10.5" y="5.5" font-family="Inconsolata" font-size="21" fill="#CD5A2B">75</tspan>
    </text>
    <text transform="matrix(1, 0, 0, 1, 689.238, 229.696)">
      <tspan x="-15.75" y="4.808" font-family="Inconsolata" font-size="21" fill="#CD5A2B">max</tspan>
    </text>
    <path d="M32.788,176.022 L276.734,176.022 L276.734,210.827 L32.788,210.827 z" fill="#2476C0" opacity="0.48"/>
    <text transform="matrix(1, 0, 0, 1, 391.684, 75.941)">
      <tspan x="-385.348" y="7.5" font-family="Inconsolata" font-size="24" fill="#133A80">db.users.find( { score: { "$lt": </tspan>
      <tspan x="10.652" y="7.5" font-family="Inconsolata" font-size="24" fill="#CD5A2B">30 </tspan>
      <tspan x="46.652" y="7.5" font-family="Inconsolata" font-size="24" fill="#133A80">} }, { score: 1, _id: 0 } )</tspan>
    </text>
    <text transform="matrix(1, 0, 0, 1, 97.755, 24.293)">
      <tspan x="-50.631" y="7.5" font-family="GillSans" font-size="24" fill="#468BBE">Collection</tspan>
    </text>
    <g>
      <path d="M91.265,39.293 L91.265,54.941" fill-opacity="0" stroke="#468BBE" stroke-width="1"/>
      <path d="M88.265,54.941 L91.265,62.941 L94.265,54.941 z" fill="#468BBE" fill-opacity="1" stroke="#468BBE" stroke-width="1" stroke-opacity="1"/>
    </g>
    <text transform="matrix(1, 0, 0, 1, 338.21, 24.293)">
      <tspan x="-73.453" y="7.5" font-family="GillSans" font-size="24" fill="#468BBE">Query Criteria</tspan>
    </text>
    <path d="M208.62,60.598 L494.62,60.598 L494.62,100.043 L208.62,100.043 z" fill="#2476C0" opacity="0.3"/>
    <g>
      <path d="M345.312,38.77 L345.312,54.418" fill-opacity="0" stroke="#468BBE" stroke-width="1"/>
      <path d="M342.312,54.418 L345.312,62.418 L348.312,54.418 z" fill="#468BBE" fill-opacity="1" stroke="#468BBE" stroke-width="1" stroke-opacity="1"/>
    </g>
    <path d="M33.288,176.938 L209.12,100.543" fill-opacity="0" stroke="#96BEE1" stroke-width="1"/>
    <path d="M277.234,176.938 L490.121,100.543" fill-opacity="0" stroke="#96BEE1" stroke-width="1"/>
    <text transform="matrix(1, 0, 0, 1, 808.202, 193.845)">
      <tspan x="-93.798" y="4.5" font-family="Inconsolata" font-size="21" fill="#123A80">{ </tspan>
      <tspan x="-72.798" y="4.5" font-family="Inconsolata" font-size="21" fill="#CD5A2B">score</tspan>
      <tspan x="-20.298" y="4.5" font-family="Inconsolata" font-size="21" fill="#123A80">: 1 } </tspan>
      <tspan x="42.702" y="4.5" font-family="GillSans" font-size="21" fill="#123A80">Index</tspan>
    </text>
    <text transform="matrix(1, 0, 0, 1, 620.952, 24.816)">
      <tspan x="-50.074" y="7.5" font-family="GillSans" font-size="24" fill="#468BBE">Projection</tspan>
    </text>
    <g>
      <path d="M621.452,39.293 L621.452,54.941" fill-opacity="0" stroke="#468BBE" stroke-width="1"/>
      <path d="M618.452,54.941 L621.452,62.941 L624.452,54.941 z" fill="#468BBE" fill-opacity="1" stroke="#468BBE" stroke-width="1" stroke-opacity="1"/>
    </g>
  </g>
  <defs/>
</svg>
