<svg width="360" height="360" viewBox="0 0 360 360" fill="none" xmlns="http://www.w3.org/2000/svg">
<path d="M109.306 180.018C70.0262 180.018 38.1485 148.269 38.0005 109.027L38.0005 108.756C37.8525 69.1681 69.9521 37.0002 109.577 37.0002L216.634 37.0002C236.027 37.0002 251.793 52.6282 251.941 72.0028L251.941 73.2353C252.089 92.8072 236.225 108.756 216.634 108.756L215.4 108.756C195.909 108.756 180.093 124.556 180.093 144.029L180.093 144.744C180.093 164.217 195.909 180.018 215.4 180.018L251.941 180.018C291.172 180.018 323 211.791 323 251.009C323 290.202 291.196 322 251.941 322L251.423 322C212.193 322 180.364 290.227 180.364 251.009C180.364 211.791 148.561 180.018 109.306 180.018Z" fill="#F2C5EE"/>
<path d="M66.8833 330.669C68.7032 330.669 70.4823 330.129 71.9955 329.118C73.5087 328.107 74.6881 326.67 75.3845 324.988C76.081 323.307 76.2632 321.457 75.9082 319.672C75.5531 317.887 74.6767 316.247 73.3899 314.96C72.103 313.674 70.4634 312.797 68.6785 312.442C66.8935 312.087 65.0434 312.269 63.362 312.966C61.6806 313.662 60.2435 314.842 59.2324 316.355C58.2213 317.868 57.6816 319.647 57.6816 321.467C57.6807 322.676 57.918 323.873 58.3801 324.99C58.8421 326.106 59.5199 327.121 60.3745 327.976C61.2292 328.83 62.244 329.508 63.3608 329.97C64.4777 330.432 65.6747 330.67 66.8833 330.669Z" fill="white" stroke="#001E2B" stroke-width="1.2" stroke-miterlimit="10"/>
<path d="M61.3047 328.805C61.3047 328.805 72.9219 324.902 74.5901 316.357C76.5452 319.052 77.3831 325.181 73.0125 328.435C68.6419 331.688 64.3694 330.571 61.3047 328.805Z" fill="#001E2B"/>
<path d="M325.003 34.5037L320.496 52.5234L306.416 61.8951L308.821 46.2004L325.003 34.5037Z" fill="#001E2B" stroke="#001E2B" stroke-width="1.2" stroke-miterlimit="10" stroke-linejoin="round"/>
<path d="M306.065 61.5029L284.046 51.2694L287.939 35.6997L309.959 45.9332L306.065 61.5029Z" fill="white" stroke="#001E2B" stroke-width="1.2" stroke-linecap="round" stroke-linejoin="round"/>
<path d="M309.96 45.9321L324.463 34.5791L287.94 35.6986L309.96 45.9321Z" fill="white" stroke="#001E2B" stroke-width="1.2" stroke-linecap="round" stroke-linejoin="round"/>
<path d="M299.892 89.5037H46.1875C42.6489 89.5037 39.7803 92.3561 39.7803 95.8748V270.094C39.7803 273.613 42.6489 276.465 46.1875 276.465H299.892C303.431 276.465 306.3 273.613 306.3 270.094V95.8748C306.3 92.3561 303.431 89.5037 299.892 89.5037Z" fill="#001E2B" stroke="#001E2B" stroke-width="1.2" stroke-miterlimit="10"/>
<path d="M80.958 184.73L80.958 285.83C80.958 287.395 81.2662 288.944 81.8651 290.389C82.4639 291.834 83.3417 293.148 84.4481 294.254C85.5546 295.36 86.8682 296.237 88.3137 296.835C89.7593 297.433 91.3085 297.741 92.873 297.74H236.503" stroke="#B45AF2" stroke-width="1.2" stroke-miterlimit="10" stroke-dasharray="2 2"/>
<path d="M79.0801 183.325C79.0801 182.953 79.1903 182.59 79.3969 182.28C79.6035 181.971 79.8971 181.73 80.2406 181.588C80.5842 181.446 80.9622 181.408 81.3269 181.481C81.6915 181.553 82.0265 181.733 82.2894 181.995C82.5524 182.258 82.7314 182.593 82.804 182.958C82.8765 183.323 82.8393 183.701 82.697 184.044C82.5547 184.388 82.3137 184.681 82.0046 184.888C81.6954 185.095 81.3319 185.205 80.9601 185.205C80.4615 185.205 79.9833 185.007 79.6307 184.654C79.2782 184.302 79.0801 183.823 79.0801 183.325Z" fill="#B45AF2"/>
<path d="M80.0499 241.531H49.8799C47.3603 241.531 44.944 240.53 43.1624 238.748C41.3808 236.967 40.3799 234.55 40.3799 232.031V204.221" stroke="#B45AF2" stroke-width="1.2" stroke-miterlimit="10" stroke-dasharray="2 2"/>
<path d="M42.2639 204.309C42.2639 203.938 42.1537 203.574 41.9471 203.265C41.7405 202.956 41.4469 202.715 41.1034 202.573C40.7598 202.43 40.3818 202.393 40.0171 202.466C39.6524 202.538 39.3175 202.717 39.0545 202.98C38.7916 203.243 38.6126 203.578 38.54 203.943C38.4675 204.307 38.5047 204.685 38.647 205.029C38.7893 205.372 39.0303 205.666 39.3394 205.873C39.6486 206.079 40.0121 206.189 40.3839 206.189C40.8821 206.188 41.3595 205.99 41.7118 205.637C42.0641 205.285 42.2626 204.808 42.2639 204.309Z" fill="#B45AF2"/>
<path d="M126.97 297.74V309.74C126.969 310.448 127.108 311.149 127.379 311.804C127.649 312.458 128.046 313.052 128.547 313.553C129.048 314.054 129.642 314.451 130.296 314.721C130.951 314.992 131.652 315.131 132.36 315.13H153.82" stroke="#B45AF2" stroke-width="1.2" stroke-miterlimit="10" stroke-dasharray="2 2"/>
<path d="M153.729 317C154.767 317 155.609 316.158 155.609 315.12C155.609 314.081 154.767 313.24 153.729 313.24C152.69 313.24 151.849 314.081 151.849 315.12C151.849 316.158 152.69 317 153.729 317Z" fill="#B45AF2"/>
<path d="M236.384 299.705C237.422 299.705 238.264 298.863 238.264 297.825C238.264 296.786 237.422 295.945 236.384 295.945C235.346 295.945 234.504 296.786 234.504 297.825C234.504 298.863 235.346 299.705 236.384 299.705Z" fill="#B45AF2"/>
<path d="M181.862 28.9299V110.14C181.862 111.705 181.554 113.254 180.955 114.699C180.356 116.145 179.479 117.458 178.372 118.564C177.266 119.67 175.952 120.547 174.507 121.145C173.061 121.743 171.512 122.051 169.947 122.05L66.0964 122.05" stroke="#B45AF2" stroke-width="1.2" stroke-miterlimit="10" stroke-dasharray="2 2"/>
<path d="M183.745 27.5245C183.745 27.1527 183.635 26.7892 183.428 26.4801C183.222 26.1709 182.928 25.9299 182.585 25.7876C182.241 25.6453 181.863 25.6081 181.498 25.6807C181.134 25.7532 180.799 25.9323 180.536 26.1952C180.273 26.4581 180.094 26.7931 180.021 27.1578C179.949 27.5225 179.986 27.9005 180.128 28.244C180.271 28.5875 180.511 28.8811 180.821 29.0877C181.13 29.2943 181.493 29.4045 181.865 29.4045C182.364 29.4045 182.842 29.2065 183.194 28.8539C183.547 28.5013 183.745 28.0232 183.745 27.5245Z" fill="#B45AF2"/>
<path d="M182.77 65.8409H212.94C215.46 65.8409 217.876 64.84 219.658 63.0584C221.44 61.2768 222.44 58.8605 222.44 56.3409V48.4204" stroke="#B45AF2" stroke-width="1.2" stroke-miterlimit="10" stroke-dasharray="2 2"/>
<path d="M220.556 48.5106C220.556 48.1388 220.667 47.7753 220.873 47.4661C221.08 47.157 221.373 46.916 221.717 46.7737C222.06 46.6314 222.438 46.5942 222.803 46.6667C223.168 46.7393 223.503 46.9183 223.766 47.1813C224.029 47.4442 224.208 47.7792 224.28 48.1439C224.353 48.5085 224.316 48.8865 224.173 49.2301C224.031 49.5736 223.79 49.8672 223.481 50.0738C223.172 50.2804 222.808 50.3906 222.436 50.3906C221.938 50.3893 221.461 50.1908 221.108 49.8385C220.756 49.4862 220.558 49.0088 220.556 48.5106Z" fill="#B45AF2"/>
<path d="M135.851 122.05V134.05C135.851 134.758 135.712 135.459 135.442 136.114C135.171 136.768 134.774 137.362 134.273 137.863C133.773 138.364 133.178 138.761 132.524 139.031C131.87 139.302 131.169 139.441 130.461 139.44H109.001" stroke="#B45AF2" stroke-width="1.2" stroke-miterlimit="10" stroke-dasharray="2 2"/>
<path d="M109.095 141.311C108.056 141.311 107.215 140.469 107.215 139.431C107.215 138.392 108.056 137.551 109.095 137.551C110.133 137.551 110.975 138.392 110.975 139.431C110.975 140.469 110.133 141.311 109.095 141.311Z" fill="#B45AF2"/>
<path d="M289.145 78.9128H36.3091C32.7826 78.9128 29.9238 81.7716 29.9238 85.2982V259.905C29.9238 263.431 32.7826 266.29 36.3091 266.29H289.145C292.672 266.29 295.53 263.431 295.53 259.905V85.2982C295.53 81.7716 292.672 78.9128 289.145 78.9128Z" fill="white" stroke="#001E2B" stroke-width="1.2" stroke-miterlimit="10"/>
<path d="M37.2365 88.4518C38.7241 88.4518 39.93 87.2458 39.93 85.7582C39.93 84.2706 38.7241 83.0647 37.2365 83.0647C35.7489 83.0647 34.543 84.2706 34.543 85.7582C34.543 87.2458 35.7489 88.4518 37.2365 88.4518Z" fill="#B45AF2"/>
<path d="M44.8039 88.4518C46.2915 88.4518 47.4974 87.2458 47.4974 85.7582C47.4974 84.2706 46.2915 83.0647 44.8039 83.0647C43.3163 83.0647 42.1104 84.2706 42.1104 85.7582C42.1104 87.2458 43.3163 88.4518 44.8039 88.4518Z" fill="#B45AF2"/>
<path d="M52.3644 88.4518C53.852 88.4518 55.0579 87.2458 55.0579 85.7582C55.0579 84.2706 53.852 83.0647 52.3644 83.0647C50.8768 83.0647 49.6709 84.2706 49.6709 85.7582C49.6709 87.2458 50.8768 88.4518 52.3644 88.4518Z" fill="#B45AF2"/>
<path d="M29.9238 92.5229H295.684" stroke="#001E2B" stroke-width="1.2" stroke-miterlimit="10"/>
<path d="M280 172H225V187H280V172Z" fill="#E3FCF7"/>
<path d="M339 114H137V128H339V114Z" fill="#E3FCF7"/>
<path d="M316.307 144H188.307V157H316.307V144Z" fill="#E3FCF7"/>
<path d="M174 143H137V157H174V143Z" fill="#00ED64"/>
<path d="M339 231H52V245H339V231Z" fill="#E3FCF7"/>
<path d="M210 172H137V186H210V172Z" fill="#E3FCF7"/>
<path d="M52.944 226.12V195.4H58.928V197.704H55.44V223.816H58.928V226.12H52.944ZM60.422 224.52L72.774 198.28H75.366L63.014 224.52H60.422ZM70.5158 224.52L82.8678 198.28H85.4598L73.1078 224.52H70.5158ZM93.972 209.64C93.972 203.016 99.092 197.896 105.748 197.896C111.476 197.896 115.636 201.64 116.628 205.768H113.492C112.5 202.92 109.524 200.712 105.748 200.712C100.692 200.712 96.948 204.616 96.948 209.64C96.948 214.664 100.692 218.568 105.748 218.568C109.524 218.568 112.5 216.36 113.492 213.512H116.628C115.636 217.64 111.476 221.384 105.748 221.384C99.092 221.384 93.972 216.264 93.972 209.64ZM123.972 226.12H117.988V223.816H121.476V197.704H117.988V195.4H123.972V226.12Z" fill="#001E2B"/>
<path d="M321 202H142V217H321V202Z" fill="#E3FCF7"/>
<g clip-path="url(#clip0_1627_22967)">
<path fill-rule="evenodd" clip-rule="evenodd" d="M80.7067 114.442C81.743 113.863 83.0078 113.863 84.0441 114.442C89.1644 117.307 104.556 125.947 109.661 128.811C110.697 129.39 111.337 130.457 111.337 131.63C111.337 137.375 111.337 154.64 111.337 160.385C111.337 161.543 110.697 162.625 109.661 163.204C104.556 166.069 89.1644 174.709 84.0441 177.573C83.0078 178.152 81.743 178.152 80.7067 177.573C75.6016 174.693 60.2101 166.053 55.105 163.189C54.0688 162.609 53.4287 161.543 53.4287 160.369C53.4287 154.625 53.4287 137.36 53.4287 131.615C53.4287 130.457 54.0688 129.375 55.105 128.796C60.2101 125.947 75.6016 117.307 80.7067 114.442Z" fill="#004482"/>
<path fill-rule="evenodd" clip-rule="evenodd" d="M53.8859 161.847C53.4744 161.299 53.4287 160.796 53.4287 160.095C53.4287 154.396 53.4287 137.223 53.4287 131.524C53.4287 130.366 54.0688 129.299 55.0898 128.72C60.1949 125.87 75.5254 117.276 80.6153 114.426C81.6515 113.847 83.0383 113.863 84.0745 114.442C89.1644 117.291 104.449 125.809 109.539 128.659C109.951 128.887 110.271 129.162 110.545 129.543L53.8859 161.847Z" fill="#659AD2"/>
<path fill-rule="evenodd" clip-rule="evenodd" d="M82.3826 124.667C94.1624 124.667 103.717 134.221 103.717 146C103.717 157.779 94.1624 167.333 82.3826 167.333C70.6028 167.333 61.0479 157.779 61.0479 146C61.0479 134.221 70.6028 124.667 82.3826 124.667ZM82.3826 135.333C88.2649 135.333 93.05 140.118 93.05 146C93.05 151.882 88.2649 156.667 82.3826 156.667C76.5003 156.667 71.7152 151.882 71.7152 146C71.7152 140.118 76.5003 135.333 82.3826 135.333Z" fill="white"/>
<path fill-rule="evenodd" clip-rule="evenodd" d="M110.56 129.558C111.352 130.29 111.337 131.402 111.337 132.27C111.337 138.061 111.291 154.503 111.352 160.278C111.352 160.888 111.154 161.512 110.864 162L81.7578 146L110.56 129.558Z" fill="#00599C"/>
</g>
<defs>
<clipPath id="clip0_1627_22967">
<rect width="57.9086" height="64" fill="white" transform="translate(53.4287 114)"/>
</clipPath>
</defs>
</svg>
