<svg width="600" height="404" viewBox="0 0 600 404" fill="none" xmlns="http://www.w3.org/2000/svg">
<g clip-path="url(#clip0_90_19391)">
<path d="M458.086 285.595V160.043C458.073 148.867 453.63 138.151 445.732 130.244C437.834 122.336 427.125 117.881 415.948 117.853H332.871C321.754 117.804 311.102 113.39 303.211 105.561C295.319 97.7318 290.819 87.1155 290.681 75.9999C290.681 52.8965 271.595 34.4827 248.491 34.4827H165.457C142.353 34.4827 123.276 53.2327 123.276 76.3361V159.371C123.29 170.554 127.738 181.276 135.645 189.185C143.552 197.094 154.273 201.544 165.457 201.56H248.828C271.931 201.56 291.017 220.31 291.017 243.405V285.595C291.017 331.802 328.517 368.965 374.724 368.965C396.833 368.961 418.035 360.175 433.668 344.541C449.301 328.907 458.084 307.704 458.086 285.595V285.595Z" fill="#E3FCF7"/>
<path d="M425.034 109.164V244.267C425.036 244.881 424.916 245.489 424.682 246.056C424.448 246.623 424.105 247.139 423.672 247.574C423.239 248.008 422.725 248.354 422.158 248.589C421.592 248.825 420.984 248.947 420.371 248.948H215.853C214.615 248.939 213.429 248.443 212.553 247.567C211.677 246.691 211.181 245.506 211.172 244.267V109.164C211.179 107.925 211.675 106.739 212.551 105.864C213.428 104.989 214.615 104.496 215.853 104.491H420.353C421.592 104.496 422.779 104.989 423.655 105.864C424.532 106.739 425.028 107.925 425.034 109.164V109.164Z" fill="#E3FCF7" stroke="black" stroke-width="0.862069" stroke-linecap="round" stroke-linejoin="round"/>
<path d="M425.164 120.543H211.112" stroke="black" stroke-width="0.862069" stroke-linecap="round" stroke-linejoin="round"/>
<path d="M309.293 138.741V248.948H215.853C214.615 248.939 213.429 248.443 212.553 247.567C211.677 246.691 211.181 245.506 211.172 244.267V134.483H305.017C306.145 134.492 307.225 134.943 308.025 135.739C308.824 136.535 309.28 137.613 309.293 138.741V138.741Z" fill="black"/>
<path d="M298.336 127.457H176.879C174.513 127.457 172.595 129.375 172.595 131.742V266.673C172.595 269.039 174.513 270.957 176.879 270.957H298.336C300.702 270.957 302.621 269.039 302.621 266.673V131.742C302.621 129.375 300.702 127.457 298.336 127.457Z" fill="white" stroke="black" stroke-width="0.862069" stroke-linecap="round" stroke-linejoin="round"/>
<path d="M185.948 161.922L184.379 163.94C184.355 163.972 184.326 163.998 184.291 164.019C184.257 164.039 184.219 164.051 184.179 164.056C184.14 164.061 184.099 164.058 184.061 164.047C184.023 164.036 183.987 164.017 183.957 163.991C183.935 163.979 183.918 163.961 183.905 163.94L182.327 161.922C182.28 161.861 182.258 161.784 182.266 161.707C182.274 161.63 182.312 161.559 182.371 161.509C182.428 161.466 182.497 161.441 182.569 161.44H185.698C185.738 161.438 185.778 161.445 185.815 161.46C185.852 161.475 185.886 161.497 185.914 161.525C185.942 161.554 185.965 161.587 185.979 161.624C185.994 161.662 186.001 161.701 186 161.741C186.005 161.806 185.987 161.87 185.948 161.922V161.922Z" fill="black"/>
<path d="M191.664 163.207H249.543" stroke="black" stroke-width="0.862069" stroke-linecap="round" stroke-linejoin="round"/>
<path d="M302.612 131.741V151.569H172.595V131.741C172.595 130.598 173.049 129.502 173.857 128.694C174.666 127.885 175.762 127.431 176.905 127.431H298.327C299.466 127.438 300.556 127.895 301.359 128.703C302.161 129.51 302.612 130.603 302.612 131.741Z" fill="#00D2FF" stroke="black" stroke-width="0.862069" stroke-linecap="round" stroke-linejoin="round"/>
<path d="M425.035 109.164V235.517H340.802C339.666 235.517 338.576 235.069 337.769 234.27C336.962 233.471 336.503 232.386 336.491 231.25V104.466H420.336C421.582 104.466 422.777 104.961 423.658 105.842C424.54 106.723 425.035 107.918 425.035 109.164Z" fill="black"/>
<path d="M455.578 85.3362H334.121C331.755 85.3362 329.836 87.2544 329.836 89.6207V224.552C329.836 226.918 331.755 228.836 334.121 228.836H455.578C457.944 228.836 459.862 226.918 459.862 224.552V89.6207C459.862 87.2544 457.944 85.3362 455.578 85.3362Z" fill="white" stroke="black" stroke-width="0.862069" stroke-linecap="round" stroke-linejoin="round"/>
<path d="M343.19 119.828L341.621 121.845C341.572 121.907 341.499 121.948 341.42 121.958C341.341 121.968 341.261 121.945 341.198 121.897L341.147 121.845L339.578 119.828C339.522 119.771 339.491 119.695 339.491 119.616C339.491 119.537 339.522 119.462 339.578 119.405C339.634 119.361 339.704 119.337 339.776 119.336H342.931C342.971 119.338 343.01 119.348 343.045 119.366C343.081 119.383 343.113 119.407 343.14 119.437C343.166 119.466 343.186 119.501 343.199 119.538C343.212 119.576 343.218 119.616 343.216 119.655C343.226 119.714 343.217 119.774 343.19 119.828V119.828Z" fill="black"/>
<path d="M348.905 121.086H406.785" stroke="black" stroke-width="0.862069" stroke-linecap="round" stroke-linejoin="round"/>
<path d="M426.905 135.793H350.509C345.467 135.793 341.379 139.881 341.379 144.923V145.595C341.379 150.637 345.467 154.724 350.509 154.724H426.905C431.947 154.724 436.035 150.637 436.035 145.595V144.923C436.035 139.881 431.947 135.793 426.905 135.793Z" fill="white" stroke="black" stroke-width="0.646552" stroke-linecap="round" stroke-linejoin="round"/>
<path d="M347.138 145.259H418.535" stroke="black" stroke-width="0.862069" stroke-linecap="round" stroke-linejoin="round"/>
<path d="M427.061 143.784L430.017 146.741" stroke="black" stroke-width="0.862069" stroke-linecap="round" stroke-linejoin="round"/>
<path d="M430.017 143.784L427.061 146.741" stroke="black" stroke-width="0.862069" stroke-linecap="round" stroke-linejoin="round"/>
<path d="M426.905 198.914H350.509C345.467 198.914 341.379 203.001 341.379 208.043V208.716C341.379 213.758 345.467 217.845 350.509 217.845H426.905C431.947 217.845 436.035 213.758 436.035 208.716V208.043C436.035 203.001 431.947 198.914 426.905 198.914Z" fill="#A6FFEC" stroke="black" stroke-width="0.862069" stroke-linecap="round" stroke-linejoin="round"/>
<path d="M347.138 208.379H418.535" stroke="black" stroke-width="0.862069" stroke-linecap="round" stroke-linejoin="round"/>
<path d="M427.061 206.905L430.017 209.862" stroke="black" stroke-width="0.862069" stroke-linecap="round" stroke-linejoin="round"/>
<path d="M430.017 206.905L427.061 209.862" stroke="black" stroke-width="0.862069" stroke-linecap="round" stroke-linejoin="round"/>
<path d="M466.733 167.353H390.336C385.294 167.353 381.207 171.441 381.207 176.483V177.155C381.207 182.197 385.294 186.284 390.336 186.284H466.733C471.775 186.284 475.862 182.197 475.862 177.155V176.483C475.862 171.441 471.775 167.353 466.733 167.353Z" fill="#B1FF05" stroke="black" stroke-width="0.862069" stroke-linecap="round" stroke-linejoin="round"/>
<path d="M386.974 176.819H458.371" stroke="black" stroke-width="0.862069" stroke-linecap="round" stroke-linejoin="round"/>
<path d="M466.897 175.345L469.854 178.302" stroke="black" stroke-width="0.862069" stroke-linecap="round" stroke-linejoin="round"/>
<path d="M469.854 175.345L466.897 178.302" stroke="black" stroke-width="0.862069" stroke-linecap="round" stroke-linejoin="round"/>
<path d="M307.241 179.733H307.56" stroke="black" stroke-width="0.862069" stroke-linecap="round" stroke-linejoin="round"/>
<path d="M247.974 177.302H171.578C166.536 177.302 162.448 181.389 162.448 186.431V187.103C162.448 192.145 166.536 196.233 171.578 196.233H247.974C253.016 196.233 257.103 192.145 257.103 187.103V186.431C257.103 181.389 253.016 177.302 247.974 177.302Z" fill="white" stroke="black" stroke-width="0.646552" stroke-linecap="round" stroke-linejoin="round"/>
<path d="M248.138 185.284L251.095 188.241" stroke="black" stroke-width="0.862069" stroke-linecap="round" stroke-linejoin="round"/>
<path d="M251.095 185.284L248.138 188.241" stroke="black" stroke-width="0.862069" stroke-linecap="round" stroke-linejoin="round"/>
<path d="M170.164 186.767H244.095" stroke="black" stroke-width="0.862069" stroke-linecap="round" stroke-linejoin="round"/>
<path d="M270.061 240.422H193.664C188.622 240.422 184.535 244.51 184.535 249.552V250.224C184.535 255.266 188.622 259.353 193.664 259.353H270.061C275.103 259.353 279.19 255.266 279.19 250.224V249.552C279.19 244.51 275.103 240.422 270.061 240.422Z" fill="#A6FFEC" stroke="black" stroke-width="0.862069" stroke-linecap="round" stroke-linejoin="round"/>
<path d="M270.224 248.405L273.181 251.362" stroke="black" stroke-width="0.862069" stroke-linecap="round" stroke-linejoin="round"/>
<path d="M273.181 248.405L270.224 251.362" stroke="black" stroke-width="0.862069" stroke-linecap="round" stroke-linejoin="round"/>
<path d="M192.25 249.888H266.353" stroke="black" stroke-width="0.862069" stroke-linecap="round" stroke-linejoin="round"/>
<path d="M301.896 208.862H225.5C220.458 208.862 216.371 212.949 216.371 217.991V218.664C216.371 223.706 220.458 227.793 225.5 227.793H301.896C306.938 227.793 311.026 223.706 311.026 218.664V217.991C311.026 212.949 306.938 208.862 301.896 208.862Z" fill="#B1FF05" stroke="black" stroke-width="0.862069" stroke-linecap="round" stroke-linejoin="round"/>
<path d="M302.052 216.845L305.017 219.802" stroke="black" stroke-width="0.862069" stroke-linecap="round" stroke-linejoin="round"/>
<path d="M305.017 216.845L302.052 219.802" stroke="black" stroke-width="0.862069" stroke-linecap="round" stroke-linejoin="round"/>
<path d="M224.078 218.328H298.276" stroke="black" stroke-width="0.862069" stroke-linecap="round" stroke-linejoin="round"/>
<path d="M459.853 89.6551V109.483H329.828V89.6551C329.828 88.5119 330.282 87.4155 331.09 86.6072C331.898 85.7988 332.995 85.3447 334.138 85.3447H455.604C456.747 85.3447 457.843 85.7988 458.651 86.6072C459.46 87.4155 459.914 88.5119 459.914 89.6551H459.853Z" fill="#00ED64" stroke="black" stroke-width="0.862069" stroke-linecap="round" stroke-linejoin="round"/>
<path d="M443.448 92.345V103.638" stroke="black" stroke-width="0.862069" stroke-linecap="round" stroke-linejoin="round"/>
<path d="M449.103 97.9912H437.802" stroke="black" stroke-width="0.862069" stroke-linecap="round" stroke-linejoin="round"/>
<path d="M286.216 134.457V145.759" stroke="black" stroke-width="0.862069" stroke-linecap="round" stroke-linejoin="round"/>
<path d="M291.862 140.112H280.56" stroke="black" stroke-width="0.862069" stroke-linecap="round" stroke-linejoin="round"/>
<path d="M437.802 228.845V284.474" stroke="black" stroke-width="0.862069" stroke-linecap="round" stroke-linejoin="round"/>
<path d="M441.742 313.974L432.491 313.914L427.655 304.672L436.724 304.483L441.742 313.974Z" fill="black" stroke="black" stroke-width="0.862069" stroke-linecap="round" stroke-linejoin="round"/>
<path d="M441.741 313.974L446.931 306.362L442.103 297.112L436.784 304.483L441.741 313.974Z" fill="white" stroke="black" stroke-width="0.862069" stroke-linecap="round" stroke-linejoin="round"/>
<path d="M433.035 297.414L427.655 304.672L436.785 304.483L442.104 297.112L433.035 297.414Z" fill="white" stroke="black" stroke-width="0.862069" stroke-linecap="round" stroke-linejoin="round"/>
<path d="M177.155 77.25C185.162 74.1251 193.761 72.8092 202.336 73.3966" stroke="black" stroke-width="0.862069" stroke-linecap="round" stroke-linejoin="round"/>
<path d="M144.603 154.491C139.141 141.59 138.495 127.155 142.781 113.817C147.067 100.479 156.002 89.1234 167.957 81.8188" stroke="black" stroke-width="0.862069" stroke-linecap="round" stroke-linejoin="round"/>
<path d="M227.233 73.181L219.25 77.8448L211.224 82.5517L211.172 73.2414L211.164 63.9741L219.207 68.6207L227.233 73.181Z" fill="white" stroke="black" stroke-width="0.862069" stroke-linecap="round" stroke-linejoin="round"/>
<path d="M211.224 82.5516L211.172 73.2413L227.233 73.1809L211.224 82.5516Z" fill="black"/>
</g>
<defs>
<clipPath id="clip0_90_19391">
<rect width="353.026" height="334.483" fill="white" transform="translate(123.276 34.4827)"/>
</clipPath>
</defs>
</svg>
