<svg width="24" height="24" viewBox="0 0 24 24" fill="none" xmlns="http://www.w3.org/2000/svg">
<path d="M18.6462 10.6393H14.7692C14.4646 10.6393 14.2154 10.3901 14.2154 10.0855V6.20855C15.6831 7.67624 17.1785 9.17162 18.6462 10.6393Z" fill="#00ED64"/>
<path fill-rule="evenodd" clip-rule="evenodd" d="M13.5358 12C14.2615 12 14.8314 12.5841 14.8314 13.3145V14.7434C14.8314 15.0484 15.0835 15.3231 15.3982 15.3231H15.6923V15.6923H15.3982C15.0835 15.6923 14.8313 15.967 14.8313 16.272V17.7009C14.8313 18.4313 14.2615 19.0154 13.5358 19.0154V18.6461C14.0517 18.6461 14.4621 18.2333 14.4621 17.7009V16.272C14.4621 15.9723 14.6108 15.686 14.8476 15.5077C14.6108 15.3294 14.4621 15.0431 14.4621 14.7434V13.3145C14.4621 12.7821 14.0517 12.3692 13.5358 12.3692V12ZM10.4643 12.3692C9.94834 12.3692 9.53795 12.7821 9.53795 13.3145V14.7434C9.53795 15.0431 9.38929 15.3294 9.15239 15.5077C9.38927 15.686 9.5379 15.9723 9.5379 16.272V17.7009C9.5379 18.2333 9.94829 18.6461 10.4642 18.6461V19.0154C9.73852 19.0154 9.16867 18.4313 9.16867 17.7009V16.272C9.16867 15.967 8.91654 15.6923 8.60177 15.6923H8.30769V15.3231H8.60177C8.91655 15.3231 9.16872 15.0484 9.16872 14.7434V13.3145C9.16872 12.5841 9.73857 12 10.4643 12V12.3692Z" fill="#001E2B"/>
<path fill-rule="evenodd" clip-rule="evenodd" d="M11.0769 1.32165V0H11.4462V1.32165C12.0713 1.41051 12.5538 1.94393 12.5538 2.59142C12.5538 3.23891 12.0713 3.77233 11.4462 3.86119V6.09231H14.329C14.3774 6.09231 14.4239 6.11135 14.4585 6.14532L18.7756 10.3924C18.8109 10.4271 18.8308 10.4745 18.8308 10.524V22.5597C19.3375 23.1056 20.0613 23.4462 20.8615 23.4462C22.3971 23.4462 23.6308 22.2001 23.6308 20.6769H24C24 22.4029 22.6021 23.8154 20.8615 23.8154C19.9052 23.8154 19.0452 23.3863 18.4683 22.7075H18.4615V22.6995C18.2239 22.418 18.0348 22.0939 17.9074 21.74C17.4727 22.947 16.3186 23.8154 14.9538 23.8154C13.5882 23.8154 12.4329 22.9539 11.999 21.742C11.5637 22.948 10.4102 23.8154 9.04615 23.8154C7.68048 23.8154 6.52521 22.9539 6.09134 21.742C5.65606 22.948 4.50247 23.8154 3.13846 23.8154C1.39846 23.8154 0 22.4169 0 20.6769H0.369231C0.369231 22.213 1.60238 23.4462 3.13846 23.4462C3.60597 23.4462 4.0455 23.3307 4.43075 23.127L4.43077 6.83435C4.43077 6.40542 4.79191 6.09231 5.18201 6.09231H5.90769V4.3449H6.27692V6.09231H11.0769V3.86119C10.4517 3.77233 9.96923 3.23891 9.96923 2.59142C9.96923 1.94393 10.4517 1.41051 11.0769 1.32165ZM4.8 22.8927C5.47364 22.3864 5.90769 21.5804 5.90769 20.6769H6.27692C6.27692 22.213 7.51007 23.4462 9.04615 23.4462C10.5817 23.4462 11.8154 22.2001 11.8154 20.6769H12.1846C12.1846 22.213 13.4178 23.4462 14.9538 23.4462C16.4894 23.4462 17.7231 22.2001 17.7231 20.6769H18.0923C18.0923 21.1815 18.2268 21.6535 18.4615 22.0598V10.7077H14.8416C14.4431 10.7077 14.1179 10.3886 14.1179 9.99762V6.46154H6.2797C6.34067 7.6788 7.39825 8.67692 8.67692 8.67692C9.55106 8.67692 10.3251 8.20928 10.745 7.52123L10.8411 7.36364L11.1563 7.55598L11.0601 7.71357C10.5755 8.50781 9.68402 9.04615 8.67692 9.04615C7.20373 9.04615 5.971 7.89165 5.91005 6.46154H5.18201C4.97851 6.46154 4.8 6.62623 4.8 6.83435V22.8927ZM11.2615 1.67788C10.7502 1.67788 10.3385 2.08839 10.3385 2.59142C10.3385 3.09445 10.7502 3.50496 11.2615 3.50496C11.7728 3.50496 12.1846 3.09445 12.1846 2.59142C12.1846 2.08839 11.7728 1.67788 11.2615 1.67788ZM14.4797 9.99762V6.69838L18.2039 10.3527H14.8416C14.643 10.3527 14.4797 10.1925 14.4797 9.99762Z" fill="#001E2B"/>
</svg>
