<svg width="28" height="12" viewBox="0 0 28 12" fill="none" xmlns="http://www.w3.org/2000/svg">
<path d="M2.1141 4.12187C2.05957 4.12187 2.04594 4.09335 2.0732 4.05058L2.35949 3.66564C2.38675 3.62287 2.45492 3.59436 2.50945 3.59436H7.3763C7.43083 3.59436 7.44446 3.63713 7.4172 3.6799L7.18544 4.05058C7.15818 4.09335 7.09001 4.13612 7.04912 4.13612L2.1141 4.12187Z" fill="#00ACD7"/>
<path d="M0.0545305 5.4334C0 5.4334 -0.0136326 5.40489 0.0136326 5.36212L0.299918 4.97718C0.327183 4.93441 0.395346 4.9059 0.449877 4.9059H6.66636C6.72089 4.9059 6.74815 4.94867 6.73452 4.99144L6.62546 5.3336C6.61183 5.39063 6.5573 5.41915 6.50277 5.41915L0.0545305 5.4334Z" fill="#00ACD7"/>
<path d="M3.35556 6.74492C3.30103 6.74492 3.28739 6.70215 3.31466 6.65938L3.50551 6.30296C3.53278 6.26019 3.58731 6.21742 3.64184 6.21742H6.36837C6.4229 6.21742 6.45016 6.26019 6.45016 6.31722L6.4229 6.65938C6.4229 6.71641 6.36837 6.75918 6.32747 6.75918L3.35556 6.74492Z" fill="#00ACD7"/>
<path d="M17.5049 3.86513C16.646 4.09324 16.0598 4.26432 15.2146 4.49243C15.0101 4.54946 14.9965 4.56371 14.8192 4.34986C14.6147 4.10749 14.4648 3.95067 14.1785 3.8081C13.3196 3.36614 12.488 3.49445 11.711 4.02195C10.784 4.64926 10.3068 5.57595 10.3205 6.73076C10.3341 7.87131 11.0839 8.81226 12.1609 8.96909C13.0879 9.0974 13.8649 8.75523 14.4784 8.02813C14.6011 7.87131 14.7102 7.70022 14.8465 7.50063C14.3557 7.50063 13.7422 7.50063 12.2154 7.50063C11.9291 7.50063 11.8609 7.31529 11.9564 7.07292C12.1336 6.63096 12.4608 5.8896 12.6516 5.51892C12.6925 5.43338 12.788 5.29081 12.9925 5.29081C13.6877 5.29081 16.2507 5.29081 17.9547 5.29081C17.9275 5.67575 17.9275 6.06069 17.8729 6.44562C17.723 7.47211 17.3549 8.41307 16.7551 9.23997C15.7735 10.5944 14.492 11.4355 12.8698 11.6636C11.5338 11.849 10.2932 11.5781 9.20258 10.7227C8.19377 9.9243 7.62119 8.86929 7.47124 7.55766C7.29401 6.00366 7.73026 4.60649 8.63001 3.38039C9.59793 2.05451 10.8794 1.21335 12.4471 0.913957C13.7286 0.67159 14.9556 0.828416 16.0598 1.61254C16.7823 2.11153 17.3004 2.79586 17.6412 3.62276C17.723 3.75107 17.6684 3.82236 17.5049 3.86513Z" fill="#00ACD7"/>
<path fill-rule="evenodd" clip-rule="evenodd" d="M18.6923 10.4949C19.6466 11.3503 20.7781 11.721 22.0187 11.7495C22.1403 11.7348 22.2634 11.7235 22.3876 11.7121C22.6256 11.6902 22.8675 11.668 23.1093 11.6212C24.3772 11.3503 25.4814 10.7515 26.3812 9.79629C27.649 8.45615 28.1807 6.88789 27.9489 4.96321C27.7717 3.59456 27.1037 2.5538 26.0267 1.78393C24.8407 0.942779 23.5319 0.80021 22.1414 1.05683C20.5191 1.35623 19.3194 2.06907 18.3243 3.43773C17.3972 4.70659 16.9746 6.13228 17.22 7.7433C17.3836 8.84108 17.888 9.76778 18.6923 10.4949ZM25.2528 5.83724C25.2555 5.88513 25.2583 5.9356 25.2622 5.98971C25.1941 7.2158 24.6079 8.12824 23.5309 8.71277C22.8084 9.09771 22.0586 9.14048 21.3088 8.79832C20.3272 8.3421 19.8092 7.2158 20.0546 6.10377C20.3545 4.76362 21.1725 3.92247 22.4403 3.62307C23.7354 3.30942 24.976 4.10781 25.2214 5.51924C25.2407 5.62018 25.2463 5.72112 25.2528 5.83724Z" fill="#00ACD7"/>
</svg>
