<svg width="28" height="29" viewBox="0 0 28 29" fill="none" xmlns="http://www.w3.org/2000/svg">
<path d="M28 8.55275C28 8.27219 28 7.99163 28 7.71107C28 7.09383 27.944 6.4766 27.832 5.85937C27.72 5.24213 27.552 4.68101 27.272 4.11989C26.992 3.55876 26.656 3.05375 26.208 2.66097C25.76 2.21207 25.256 1.8754 24.752 1.59484C24.192 1.31428 23.632 1.14594 23.016 1.03371C22.344 0.865377 21.728 0.809265 21.112 0.809265C20.832 0.809265 20.552 0.809265 20.272 0.809265C19.936 0.809265 19.6 0.809265 19.264 0.809265H11.816H8.736C8.4 0.809265 8.064 0.809265 7.728 0.809265C7.448 0.809265 7.168 0.809265 6.888 0.809265C6.72 0.809265 6.552 0.809265 6.44 0.809265C5.992 0.809265 5.488 0.865377 5.04 0.92149C4.648 1.03371 4.2 1.20205 3.752 1.31428C3.64 1.37039 3.472 1.48261 3.304 1.53872C2.912 1.76317 2.52 1.98762 2.184 2.26818C2.072 2.38041 1.904 2.49263 1.848 2.60486C1.4 3.05375 1.008 3.55876 0.728 4.11989C0.448 4.68101 0.28 5.24213 0.168 5.85937C0.056 6.4766 0 7.03772 0 7.71107C0 7.99163 0 8.27219 0 8.55275C0 8.88943 0 9.2261 0 9.56277V14.164V20.1119C0 20.4485 0 20.7852 0 21.1219C0 21.4025 0 21.683 0 21.9636C0 22.5808 0.056 23.198 0.168 23.8153C0.28 24.4325 0.448 24.9936 0.728 25.5548C1.008 26.1159 1.344 26.6209 1.792 27.0137C2.24 27.4626 2.744 27.7992 3.248 28.0798C3.808 28.3604 4.368 28.5287 4.984 28.6409C5.6 28.7532 6.216 28.8093 6.832 28.8093C7.112 28.8093 7.392 28.8093 7.672 28.8093C8.008 28.8093 8.344 28.8093 8.68 28.8093H19.152C19.488 28.8093 19.824 28.8093 20.16 28.8093C20.44 28.8093 20.72 28.8093 21 28.8093C21.616 28.8093 22.232 28.7532 22.848 28.6409C23.464 28.5287 24.024 28.3604 24.584 28.0798C25.144 27.7992 25.648 27.4626 26.04 27.0137C26.488 26.5648 26.824 26.0598 27.104 25.5548C27.384 24.9936 27.552 24.4325 27.664 23.8153C27.776 23.198 27.832 22.5808 27.832 21.9636C27.832 21.683 27.832 21.4025 27.832 21.1219C27.832 20.7852 27.832 20.4485 27.832 20.1119L28 9.8273C28 9.3263 28 8.88943 28 8.55275Z" fill="#F05138"/>
<path d="M22.176 18.1479C22.176 18.0357 22.232 17.9235 22.232 17.8113C23.408 13.1539 20.552 7.65495 15.736 4.79323C17.864 7.65495 18.76 11.1339 17.976 14.164C17.92 14.4445 17.808 14.669 17.696 14.9495C17.584 14.8934 17.472 14.7812 17.248 14.7251C17.248 14.7251 12.488 11.7511 7.27999 6.53271C7.16799 6.42048 10.08 10.685 13.328 14.164C11.76 13.2662 7.44799 10.1239 4.70399 7.65495C5.03999 8.21607 5.43199 8.7772 5.87999 9.28221C8.17599 12.2 11.144 15.7912 14.728 18.5407C12.208 20.0558 8.67999 20.2241 5.15199 18.5407C4.25599 18.1479 3.47199 17.6429 2.68799 17.0818C4.14399 19.4385 6.49599 21.5147 9.29599 22.7491C12.6 24.1519 15.96 24.0958 18.424 22.7491C18.536 22.693 18.648 22.6369 18.76 22.5808C19.936 21.9636 22.288 21.3463 23.52 23.8153C23.912 24.2642 24.584 21.1219 22.176 18.1479Z" fill="white"/>
</svg>
