<svg width="28" height="29" viewBox="0 0 28 29" fill="none" xmlns="http://www.w3.org/2000/svg">
<g clip-path="url(#clip0_1351_60004)">
<path d="M1.288 0.809265H26.656C27.44 0.809265 28 1.36927 28 2.09727V27.4653C28 28.1933 27.44 28.7533 26.712 28.7533H1.288C0.56 28.8093 0 28.2493 0 27.5213V2.09727C0 1.36927 0.56 0.809265 1.288 0.809265Z" fill="#3178C6"/>
<path fill-rule="evenodd" clip-rule="evenodd" d="M16.2399 22.5933V25.6733C16.7439 25.9533 17.3039 26.1213 17.9759 26.2333C18.6479 26.3453 19.3759 26.4013 20.1039 26.4013C20.8319 26.4013 21.5599 26.3453 22.1759 26.1773C22.8479 26.0093 23.4079 25.7853 23.9119 25.5053C24.4159 25.1693 24.8079 24.7773 25.0879 24.2173C25.3679 23.7133 25.5359 23.0413 25.5359 22.3133C25.5359 21.7533 25.4799 21.2493 25.3119 20.8573C25.1439 20.4653 24.9199 20.0733 24.5839 19.7373C24.2479 19.4013 23.9119 19.1213 23.4639 18.8413C23.0159 18.5613 22.5119 18.3373 22.0079 18.1133C21.6159 17.9453 21.2239 17.7773 20.9439 17.6093C20.6079 17.4413 20.3279 17.2733 20.1039 17.1053C19.8799 16.9373 19.7119 16.7693 19.5999 16.6013C19.4879 16.4333 19.4319 16.2093 19.4319 15.9853C19.4319 15.7613 19.4879 15.5933 19.5999 15.4253C19.7119 15.2573 19.8799 15.0893 20.0479 14.9773C20.2719 14.8653 20.4959 14.7533 20.7759 14.6973C21.0559 14.6413 21.3919 14.5853 21.7279 14.5853C22.0079 14.5853 22.2319 14.5853 22.5119 14.6413C22.7919 14.6973 23.0719 14.7533 23.3519 14.8093C23.6319 14.8653 23.9119 14.9773 24.1919 15.0893C24.4719 15.2013 24.6959 15.3693 24.9199 15.5373V12.6813C24.4719 12.5133 23.9679 12.3453 23.4079 12.2893C22.8479 12.1773 22.2319 12.1773 21.5039 12.1773C20.7759 12.1773 20.1039 12.2333 19.4319 12.4013C18.7599 12.5693 18.1999 12.7933 17.6959 13.1293C17.1919 13.4653 16.7999 13.8573 16.5199 14.4173C16.2399 14.9213 16.0719 15.5373 16.0719 16.2653C16.0719 17.1613 16.3519 17.9453 16.8559 18.6173C17.3599 19.2893 18.1999 19.7933 19.2639 20.2413C19.7119 20.4093 20.1039 20.5773 20.4399 20.7453C20.7759 20.9133 21.1119 21.0813 21.3919 21.2493C21.6719 21.4173 21.8399 21.6413 22.0079 21.8093C22.1759 22.0333 22.2319 22.2573 22.2319 22.5373C22.2319 22.7613 22.1759 22.9293 22.0639 23.0973C21.9519 23.2653 21.8399 23.4333 21.6159 23.5453C21.4479 23.6573 21.1679 23.7693 20.8879 23.8253C20.6079 23.8813 20.2719 23.9373 19.8799 23.9373C19.2079 23.9373 18.5359 23.8253 17.9199 23.6013C17.4159 23.3773 16.7999 23.0413 16.2399 22.5933ZM11.0879 14.9213H15.1199V12.4013H3.91992V14.9213H7.89592V26.1773H11.0879V14.9213Z" fill="white"/>
</g>
<defs>
<clipPath id="clip0_1351_60004">
<rect width="28" height="28" fill="white" transform="translate(0 0.809265)"/>
</clipPath>
</defs>
</svg>
