<svg width="720" height="260" viewBox="0 0 720 260" fill="none" xmlns="http://www.w3.org/2000/svg">
<rect width="720" height="260" fill="white"/>
<path d="M630.9 25H693.9V104.7H630.9V25Z" fill="white"/>
<path d="M630.9 25H693.9V104.7H630.9V25Z" stroke="#0176C0" stroke-width="0.9"/>
<path d="M621.2 32.6H686V110.5H621.2V32.6Z" fill="white"/>
<path d="M621.2 32.6H686V110.5H621.2V32.6Z" stroke="#0176C0" stroke-width="0.9"/>
<path d="M620.2 19V20.5C619.4 20.8333 618.633 21 617.9 21C616.567 21 615.567 20.6 614.9 19.8C614.1 19.1333 613.7 18.1333 613.7 16.8C613.7 15.5333 614.067 14.5333 614.8 13.8C615.533 13 616.533 12.6 617.8 12.6L618.8 12.7L620.1 13.2V14.9C619.3 14.3666 618.533 14.1 617.8 14.1C617.133 14.1 616.533 14.3333 616 14.8C615.533 15.3333 615.3 16 615.3 16.8C615.3 17.6 615.567 18.2666 616.1 18.8C616.633 19.2666 617.3 19.5 618.1 19.5C618.767 19.5 619.467 19.3 620.2 18.9V19ZM626 12.7C627.2 12.7 628.2 13.1 629 13.9C629.8 14.7 630.2 15.7 630.2 16.9C630.2 18.1 629.8 19.1 629 19.9C628.133 20.5666 627.1 20.9 625.9 20.9C624.633 20.9 623.633 20.5333 622.9 19.8C622.033 19 621.6 18 621.6 16.8C621.6 15.6666 622 14.7 622.8 13.9C623.667 13.1 624.7 12.7 625.9 12.7H626ZM625.8 14.2C625.067 14.2 624.433 14.4333 623.9 14.9C623.433 15.4333 623.2 16.1 623.2 16.9C623.2 17.6333 623.467 18.2333 624 18.7C624.467 19.2333 625.1 19.5 625.9 19.5C626.7 19.5 627.367 19.2333 627.9 18.7C628.367 18.2333 628.6 17.6 628.6 16.8C628.6 16.0666 628.333 15.4333 627.8 14.9C627.267 14.4333 626.6 14.2 625.8 14.2ZM632 8.59998H633.6V20.8H632V8.59998ZM636 8.59998H637.6V20.8H636V8.59998ZM646.8 17H641.1C641.1 17.6666 641.367 18.2666 641.9 18.8C642.367 19.2666 642.967 19.5 643.7 19.5C644.767 19.5 645.767 19.1666 646.7 18.5V20C646.167 20.3333 645.667 20.5666 645.2 20.7C644.733 20.9 644.167 21 643.5 21C642.633 21 641.9 20.8 641.3 20.4C640.767 20 640.333 19.5 640 18.9C639.667 18.2333 639.5 17.5 639.5 16.7C639.5 15.5 639.833 14.5 640.5 13.7C641.233 12.9666 642.167 12.6 643.3 12.6C644.367 12.6 645.2 12.9666 645.8 13.7C646.467 14.4333 646.8 15.4333 646.8 16.7V16.9V17ZM641.2 16H645.2C645.2 15.3333 645.033 14.8333 644.7 14.5C644.3 14.1666 643.833 14 643.3 14C642.7 14 642.233 14.1666 641.9 14.5C641.5 14.8333 641.267 15.3333 641.2 16ZM654.6 19V20.5C653.8 20.8333 653 21 652.2 21C650.933 21 649.933 20.6 649.2 19.8C648.467 19.1333 648.1 18.1333 648.1 16.8C648.1 15.5333 648.433 14.5333 649.1 13.8C649.9 13 650.9 12.6 652.1 12.6L653.1 12.7C653.5 12.7666 653.933 12.9333 654.4 13.2V14.9C653.6 14.3666 652.867 14.1 652.2 14.1C651.467 14.1 650.867 14.3333 650.4 14.8C649.933 15.3333 649.7 16 649.7 16.8C649.7 17.6 649.933 18.2666 650.4 18.8C650.933 19.2666 651.6 19.5 652.4 19.5C653.067 19.5 653.8 19.3 654.6 18.9V19ZM655.3 14L658.3 11V12.7H660.8V14.2H658.3V18.2C658.3 19.0666 658.667 19.5 659.4 19.5C660 19.5 660.6 19.3333 661.2 19V20.5C660.6 20.8333 659.933 21 659.2 21C658.533 21 657.933 20.7666 657.4 20.3L657 19.9L656.8 19.3L656.7 17.8V14.2H655.3V14ZM663.2 9.29998C663.467 9.29998 663.7 9.39998 663.9 9.59998C664.1 9.79998 664.2 10.0333 664.2 10.3C664.2 10.5666 664.1 10.8 663.9 11C663.7 11.1333 663.467 11.2 663.2 11.2L662.6 11C662.4 10.8 662.3 10.5666 662.3 10.3C662.3 10.0333 662.4 9.79998 662.6 9.59998C662.8 9.39998 663 9.29998 663.2 9.29998ZM662.4 12.7H664V20.8H662.4V12.8V12.7ZM670.2 12.7C671.467 12.7 672.467 13.1 673.2 13.9C674.067 14.7 674.5 15.7 674.5 16.9C674.5 18.1 674.1 19.1 673.3 19.9C672.433 20.5666 671.367 20.9 670.1 20.9C668.9 20.9 667.9 20.5333 667.1 19.8C666.3 19 665.9 18 665.9 16.8C665.9 15.6666 666.3 14.7 667.1 13.9C667.967 13.1 669 12.7 670.2 12.7ZM670.2 14.2C669.4 14.2 668.733 14.4333 668.2 14.9C667.733 15.4333 667.5 16.1 667.5 16.9C667.5 17.6333 667.767 18.2333 668.3 18.7C668.767 19.2333 669.4 19.5 670.2 19.5C671 19.5 671.667 19.2333 672.2 18.7C672.667 18.2333 672.9 17.6 672.9 16.8C672.9 16.0666 672.633 15.4333 672.1 14.9C671.567 14.4333 670.9 14.2 670.1 14.2H670.2ZM677.9 12.7V13.7C678.567 12.9666 679.367 12.6 680.3 12.6C680.833 12.6 681.3 12.7333 681.7 13C682.167 13.2666 682.5 13.6 682.7 14C682.9 14.4666 683 15.2 683 16.2V20.8H681.4V16.2C681.4 15.4 681.3 14.8333 681.1 14.5C680.833 14.1 680.4 13.9 679.8 13.9C679.067 13.9 678.4 14.3 677.8 15.1V20.8H676.2V12.8H677.9V12.7Z" fill="#0176C0"/>
<path d="M612.3 41.2H677.1V119.2H612.3V41.2Z" fill="white"/>
<path d="M612.3 41.2H677.1V119.2H612.3V41.2Z" stroke="#0176C0" stroke-width="0.9"/>
<path d="M616.9 51.4V50.4C617.167 50.4 617.4 50.3333 617.6 50.2C617.8 50.0667 617.933 49.8667 618 49.6V48.2C618 47.3333 618.067 46.7667 618.2 46.5C618.2 46.2333 618.3 46 618.5 45.8C618.633 45.6 618.8 45.4667 619 45.4L620 45.3H620.3V46.3H620.1L619.3 46.4C619.167 46.6 619.1 46.9333 619.1 47.4V48.3L619 49.6C618.933 49.9333 618.8 50.2 618.6 50.4C618.467 50.6 618.2 50.7667 617.8 50.9C618.267 51.1 618.6 51.4 618.8 51.8C619 52.2 619.1 52.8 619.1 53.6V54.4C619.1 54.9333 619.167 55.2667 619.3 55.4C619.433 55.5333 619.7 55.6 620.1 55.6H620.3V56.6H619.9C619.5 56.6 619.2 56.5333 619 56.4C618.8 56.4 618.633 56.2667 618.5 56C618.3 55.8 618.2 55.5667 618.2 55.3L618.1 53.7L618 52.2C617.933 51.9333 617.8 51.7333 617.6 51.6L616.9 51.4Z" fill="#0176C0"/>
<path d="M623.7 67.6V66.5L624.7 67L625.4 67.2L626 67C626.133 66.9333 626.2 66.8333 626.2 66.7L626.1 66.3L625.4 65.8L624 64.8C623.8 64.5333 623.7 64.2333 623.7 63.9C623.7 63.5 623.867 63.1667 624.2 62.9C624.533 62.6333 624.967 62.5 625.5 62.5C625.967 62.5 626.5 62.6667 627.1 63V64C626.433 63.6667 625.9 63.5 625.5 63.5L625 63.6C624.867 63.6667 624.8 63.7667 624.8 63.9L625 64.3L625.6 64.7L626 64.9C626.867 65.4333 627.3 66 627.3 66.6C627.3 67.0667 627.133 67.4333 626.8 67.7C626.467 67.9667 626.033 68.1 625.5 68.1H624.6L623.6 67.6H623.7ZM632.6 66.8V67.8C632.067 68 631.533 68.1 631 68.1C630.2 68.1 629.533 67.8667 629 67.4C628.533 66.8667 628.3 66.2 628.3 65.4C628.3 64.5333 628.533 63.8667 629 63.4C629.467 62.8 630.133 62.5 631 62.5L631.7 62.6L632.5 62.9V64C631.967 63.6667 631.467 63.5 631 63.5C630.533 63.5 630.133 63.6667 629.8 64C629.467 64.3333 629.3 64.7667 629.3 65.3C629.3 65.9 629.467 66.3333 629.8 66.6C630.133 66.9333 630.6 67.1 631.2 67.1C631.6 67.1 632.067 67 632.6 66.8ZM636.4 62.6C637.2 62.6 637.867 62.8667 638.4 63.4C638.933 63.9333 639.2 64.6 639.2 65.4C639.2 66.2 638.933 66.8667 638.4 67.4C637.867 67.8667 637.2 68.1 636.4 68.1C635.533 68.1 634.867 67.8333 634.4 67.3C633.733 66.8333 633.4 66.1667 633.4 65.3C633.4 64.6333 633.733 64 634.4 63.4C634.867 62.8667 635.533 62.6 636.4 62.6ZM636.4 63.6C635.867 63.6 635.433 63.7667 635.1 64.1C634.767 64.4333 634.6 64.8667 634.6 65.4C634.6 65.9333 634.767 66.3333 635.1 66.6C635.433 66.9333 635.867 67.1 636.4 67.1C636.933 67.1 637.367 66.9333 637.7 66.6C638.033 66.2667 638.2 65.8667 638.2 65.4C638.2 64.8667 638 64.4333 637.6 64.1C637.267 63.7667 636.833 63.6 636.3 63.6H636.4ZM641.6 62.6V64V63.9C642.133 63.0333 642.667 62.6 643.2 62.6C643.6 62.6 644 62.8 644.4 63.2L643.9 64.2C643.5 63.8667 643.167 63.7 642.9 63.7C642.5 63.7 642.167 63.8333 641.9 64.1C641.7 64.4333 641.6 64.8333 641.6 65.3V68H640.5V62.6H641.5H641.6ZM649.5 65.4H645.7C645.7 65.9333 645.9 66.3667 646.3 66.7C646.567 66.9667 646.967 67.1 647.5 67.1C648.167 67.1 648.833 66.9 649.5 66.5V67.5L648.5 68L647.3 68.1C646.7 68.1 646.233 67.9667 645.9 67.7C645.5 67.5 645.2 67.1667 645 66.7C644.8 66.3 644.7 65.8333 644.7 65.3C644.7 64.5 644.933 63.8333 645.4 63.3C645.867 62.7667 646.467 62.5 647.2 62.5C647.867 62.5 648.433 62.7667 648.9 63.3C649.3 63.7667 649.5 64.4333 649.5 65.3V65.4ZM645.8 64.8H648.5C648.5 64.4 648.367 64.0667 648.1 63.8C647.9 63.6 647.567 63.5 647.1 63.5C646.767 63.5 646.467 63.6 646.2 63.8C646 64.0667 645.867 64.4 645.8 64.8Z" fill="#DE4F01"/>
<path d="M651.2 66.7C651.4 66.7 651.567 66.7667 651.7 66.9C651.833 67.0333 651.9 67.2 651.9 67.4C651.9 67.6 651.833 67.7667 651.7 67.9C651.567 68.0333 651.4 68.1 651.2 68.1C651 68.1 650.833 68.0333 650.7 67.9C650.567 67.7667 650.5 67.6 650.5 67.4C650.5 67.2 650.567 67.0333 650.7 66.9C650.833 66.7667 651 66.7 651.2 66.7ZM651.3 62.5C651.5 62.5 651.667 62.5667 651.8 62.7L652 63.3C652 63.5 651.933 63.6667 651.8 63.8C651.667 63.9333 651.5 64 651.3 64C651.1 64 650.933 63.9333 650.8 63.8C650.667 63.6667 650.6 63.5 650.6 63.3L650.8 62.7C650.933 62.5667 651.1 62.5 651.3 62.5Z" fill="#0176C0"/>
<path d="M656.9 63.3C657.433 63.3 657.833 63.2 658.1 63C658.367 62.7333 658.5 62.4 658.5 62C658.5 61.6667 658.367 61.3667 658.1 61.1C657.833 60.9 657.5 60.8 657.1 60.8C656.7 60.8 656.233 60.9333 655.7 61.2V60.1C656.167 59.8333 656.7 59.7 657.3 59.7C657.967 59.7 658.533 59.9 659 60.3C659.467 60.7 659.7 61.2333 659.7 61.9C659.7 62.3667 659.6 62.7 659.4 62.9C659.267 63.2333 659 63.5 658.6 63.7C658.933 63.8333 659.167 64 659.3 64.2C659.5 64.3333 659.633 64.5333 659.7 64.8L659.8 65.7C659.8 66.3667 659.567 66.9333 659.1 67.4C658.633 67.8667 658.033 68.1 657.3 68.1C656.633 68.1 656.033 67.9667 655.5 67.7V66.4C656.167 66.8 656.767 67 657.3 67C657.7 67 658.033 66.8667 658.3 66.6C658.5 66.4 658.6 66.1 658.6 65.7C658.6 65.3667 658.5 65.0667 658.3 64.8L657.9 64.5L656.9 64.4V63.3ZM663.8 59.7C664.467 59.7 665.067 60.1 665.6 60.9C666.133 61.7 666.4 62.7 666.4 63.9C666.4 65.1667 666.133 66.1667 665.6 66.9C665.133 67.7 664.5 68.1 663.7 68.1C662.9 68.1 662.267 67.7333 661.8 67C661.333 66.2 661.1 65.2 661.1 64C661.1 62.6667 661.333 61.6667 661.8 61C662.333 60.1333 663 59.7 663.8 59.7ZM663.8 60.9C663.267 60.9 662.867 61.1667 662.6 61.7C662.4 62.2333 662.3 62.9667 662.3 63.9C662.3 64.9 662.4 65.6667 662.6 66.2C662.867 66.7333 663.233 67 663.7 67C664.167 67 664.5 66.7333 664.7 66.2C665.033 65.6667 665.2 64.9333 665.2 64C665.2 63 665.067 62.2333 664.8 61.7C664.533 61.1667 664.2 60.9 663.8 60.9Z" fill="#E04D01"/>
<path d="M667.3 69.5V69.2C667.5 69.0667 667.633 68.9 667.7 68.7L667.8 68C667.4 67.9333 667.2 67.7 667.2 67.3L667.4 66.7C667.533 66.5667 667.7 66.5 667.9 66.5C668.167 66.5 668.367 66.6 668.5 66.8C668.633 67 668.7 67.2667 668.7 67.6C668.7 68.0667 668.567 68.4667 668.3 68.8C668.1 69.0667 667.767 69.3 667.3 69.5ZM627.4 82V81.3C627.2 81.5667 626.933 81.7667 626.6 81.9C626.333 82.0333 626.033 82.1 625.7 82.1C625.367 82.1 625.067 82.0333 624.8 81.9C624.533 81.7 624.333 81.4667 624.2 81.2C624 80.8667 623.9 80.3667 623.9 79.7V76.7H625V79.7C625 80.3 625.067 80.7 625.2 80.9C625.4 81.1 625.7 81.2 626.1 81.2C626.633 81.2 627.067 80.9667 627.4 80.5V76.6H628.4V82H627.4ZM629.7 81.6V80.5L630.7 81L631.4 81.2L632 81C632.133 80.9333 632.2 80.8333 632.2 80.7L632.1 80.3L631.4 79.8L630 78.8C629.8 78.5333 629.7 78.2333 629.7 77.9C629.7 77.5 629.867 77.1667 630.2 76.9C630.533 76.6333 630.967 76.5 631.5 76.5C631.967 76.5 632.5 76.6667 633.1 77V78C632.433 77.6667 631.9 77.5 631.5 77.5L631 77.6C630.867 77.6667 630.8 77.7667 630.8 77.9L631 78.3L631.6 78.7L632 78.9C632.867 79.4333 633.3 80 633.3 80.6C633.3 81.0667 633.133 81.4333 632.8 81.7C632.467 81.9667 632.033 82.1 631.5 82.1H630.6L629.6 81.6H629.7ZM639.1 79.4H635.4C635.4 79.9333 635.567 80.3667 635.9 80.7C636.233 80.9667 636.633 81.1 637.1 81.1C637.767 81.1 638.433 80.9 639.1 80.5V81.5L638.1 82L636.9 82.1C636.367 82.1 635.9 81.9667 635.5 81.7C635.167 81.5 634.867 81.1667 634.6 80.7C634.4 80.3 634.3 79.8333 634.3 79.3C634.3 78.5 634.533 77.8333 635 77.3C635.467 76.7667 636.067 76.5 636.8 76.5C637.467 76.5 638.033 76.7667 638.5 77.3C638.9 77.7667 639.1 78.4333 639.1 79.3V79.4ZM635.4 78.8H638.1C638.1 78.4 637.967 78.0667 637.7 77.8C637.5 77.6 637.2 77.5 636.8 77.5C636.4 77.5 636.067 77.6 635.8 77.8C635.6 78.0667 635.467 78.4 635.4 78.8ZM641.4 76.6V78V77.9C642 77.0333 642.533 76.6 643 76.6C643.4 76.6 643.833 76.8 644.3 77.2L643.7 78.2C643.367 77.8667 643.033 77.7 642.7 77.7C642.367 77.7 642.067 77.8333 641.8 78.1C641.533 78.4333 641.4 78.8333 641.4 79.3V82H640.4V76.6H641.4ZM645.6 74.4C645.8 74.4 645.967 74.4667 646.1 74.6L646.2 75L646.1 75.4C645.967 75.5333 645.8 75.6 645.6 75.6L645.2 75.4C645.067 75.3333 645 75.2 645 75L645.2 74.6L645.6 74.4ZM645.1 76.6H646.1V82H645.1V76.6ZM651.3 73.8H652.3V82H650.1C649.3 82 648.633 81.7667 648.1 81.3C647.633 80.7667 647.4 80.1 647.4 79.3C647.4 78.5 647.667 77.8333 648.2 77.3C648.667 76.7667 649.3 76.5 650.1 76.5C650.433 76.5 650.833 76.6 651.3 76.8V73.8ZM651.3 81.1V77.7L650.3 77.5C649.767 77.5 649.333 77.6667 649 78C648.667 78.3333 648.5 78.8 648.5 79.4C648.5 79.9333 648.633 80.3667 648.9 80.7L649.5 81L650.5 81.1H651.3ZM654.3 80.7C654.5 80.7 654.667 80.7667 654.8 80.9C654.933 81.0333 655 81.2 655 81.4C655 81.6 654.933 81.7667 654.8 81.9C654.667 82.0333 654.5 82.1 654.3 82.1C654.1 82.1 653.933 82.0333 653.8 81.9C653.667 81.7667 653.6 81.6 653.6 81.4C653.6 81.2 653.667 81.0333 653.8 80.9C653.933 80.7667 654.1 80.7 654.3 80.7ZM654.3 76.5C654.567 76.5 654.767 76.5667 654.9 76.7L655.1 77.3C655.1 77.5 655.033 77.6667 654.9 77.8C654.767 77.9333 654.6 78 654.4 78C654.2 78 654.033 77.9333 653.9 77.8C653.767 77.6667 653.7 77.5 653.7 77.3L653.9 76.7C654.033 76.5667 654.2 76.5 654.4 76.5H654.3ZM659.1 80.7C659.3 80.7 659.467 80.7667 659.6 80.9C659.733 81.0333 659.8 81.2 659.8 81.4C659.8 81.6 659.733 81.7667 659.6 81.9C659.467 82.0333 659.3 82.1 659.1 82.1C658.9 82.1 658.733 82.0333 658.6 81.9C658.467 81.7667 658.4 81.6 658.4 81.4C658.4 81.2 658.467 81.0333 658.6 80.9C658.733 80.7667 658.9 80.7 659.1 80.7ZM661.7 80.7C661.9 80.7 662.067 80.7667 662.2 80.9C662.333 81.0333 662.4 81.2 662.4 81.4C662.4 81.6 662.333 81.7667 662.2 81.9C662.067 82.0333 661.9 82.1 661.7 82.1C661.5 82.1 661.333 82.0333 661.2 81.9C661.067 81.7667 661 81.6 661 81.4C661 81.2 661.067 81.0333 661.2 80.9C661.333 80.7667 661.5 80.7 661.7 80.7ZM664.4 80.7C664.6 80.7 664.767 80.7667 664.9 80.9C665.033 81.0333 665.1 81.2 665.1 81.4C665.1 81.6 665.033 81.7667 664.9 81.9C664.767 82.0333 664.6 82.1 664.4 82.1L663.8 81.9C663.667 81.7667 663.6 81.6 663.6 81.4C663.6 81.2 663.667 81.0333 663.8 80.9L664.4 80.7ZM666.3 83.5V83.2L666.6 82.7L666.7 82C666.3 81.9333 666.1 81.7 666.1 81.3L666.3 80.7L666.8 80.5C667.067 80.5 667.267 80.6 667.4 80.8C667.6 81 667.7 81.2667 667.7 81.6C667.7 82.0667 667.567 82.4667 667.3 82.8L666.3 83.5ZM624.5 94.7C624.7 94.7 624.867 94.7667 625 94.9C625.133 95.0333 625.2 95.2 625.2 95.4C625.2 95.6 625.133 95.7667 625 95.9C624.867 96.0333 624.7 96.1 624.5 96.1C624.3 96.1 624.133 96.0333 624 95.9C623.867 95.7667 623.8 95.6 623.8 95.4C623.8 95.2 623.867 95.0333 624 94.9C624.133 94.7667 624.3 94.7 624.5 94.7ZM627.1 94.7C627.3 94.7 627.467 94.7667 627.6 94.9C627.8 95.0333 627.9 95.2 627.9 95.4C627.9 95.6 627.8 95.7667 627.6 95.9C627.467 96.0333 627.3 96.1 627.1 96.1C626.9 96.1 626.733 96.0333 626.6 95.9C626.467 95.7667 626.4 95.6 626.4 95.4C626.4 95.2 626.467 95.0333 626.6 94.9C626.733 94.7667 626.9 94.7 627.1 94.7ZM629.8 94.7C630 94.7 630.167 94.7667 630.3 94.9C630.433 95.0333 630.5 95.2 630.5 95.4C630.5 95.6 630.433 95.7667 630.3 95.9C630.167 96.0333 630 96.1 629.8 96.1C629.6 96.1 629.433 96.0333 629.3 95.9C629.1 95.7667 629 95.6 629 95.4C629 95.2 629.1 95.0333 629.3 94.9C629.433 94.7667 629.6 94.7 629.8 94.7ZM616.8 101.3H617.1L618.1 101.4C618.3 101.467 618.467 101.6 618.6 101.8L618.9 102.6V104.2C618.9 104.867 618.967 105.333 619.1 105.6C619.1 105.867 619.233 106.067 619.5 106.2C619.7 106.333 619.933 106.4 620.2 106.4V107.4C619.933 107.4 619.7 107.467 619.5 107.6C619.3 107.733 619.167 107.933 619.1 108.2L619 109.7L618.9 111.3C618.9 111.567 618.8 111.8 618.6 112L618 112.4L617.1 112.5H616.8V111.6H617C617.4 111.6 617.667 111.533 617.8 111.4C617.933 111.267 618 110.933 618 110.4V109.6C618 108.8 618.1 108.2 618.3 107.8C618.433 107.4 618.767 107.1 619.3 106.9C618.9 106.767 618.633 106.6 618.5 106.4L618.1 105.6L618 104.3V103.4C618 102.933 617.933 102.6 617.8 102.4C617.667 102.267 617.4 102.2 617 102.2H616.8V101.3Z" fill="#0176C0"/>
<path d="M28.5 140.9H688.8V160H28.5V140.9Z" fill="#0C60B2"/>
<path d="M95.6 137V176.8M240 137V176.8M438.7 137V176.8" stroke="#AFD1E8" stroke-width="1.5" stroke-dasharray="3 1.5"/>
<path d="M76.6 179.3V178.4L76.7 177.9L77.1 177.7C77.3 177.7 77.4666 177.767 77.6 177.9C77.7333 178.033 77.8 178.267 77.8 178.6C77.8 178.867 77.6333 179.433 77.3 180.3L77 181.3L76.2 181L76.5 180L76.6 179.3ZM74.2 179.3V178.4L74.3 177.9L74.7 177.7C74.9 177.7 75.0666 177.767 75.2 177.9C75.3333 178.033 75.4 178.267 75.4 178.6C75.4 178.867 75.2333 179.433 74.9 180.3L74.6 181.3L73.8 181L74.1 180V179.7L74.2 179.3ZM80.5 181.4C81.0333 180.733 81.8 180.4 82.8 180.4C83.5333 180.4 84.1333 180.633 84.6 181.1C85.0666 181.433 85.3 182.1 85.3 183.1V187H84.3V186.3C83.6333 186.833 82.9 187.1 82.1 187.1L81.1 187L80.5 186.6L80 186L79.9 185.4C79.9 184.733 80.1666 184.2 80.7 183.8C81.3 183.467 82.1 183.267 83.1 183.2H84.3V183C84.3 182.333 84.1667 181.9 83.9 181.7C83.6333 181.433 83.2333 181.3 82.7 181.3C82.0333 181.3 81.4667 181.533 81 182L80.5 181.4ZM84.4 184H83.4L82.2 184.1C81.8666 184.1 81.6 184.2 81.4 184.4L81 184.8V185.3C81 185.567 81.1 185.833 81.3 186.1C81.5667 186.3 81.9 186.4 82.3 186.4L83 186.3L83.6 185.9L84 185.5L84.2 185.2C84.3333 185 84.4 184.733 84.4 184.4V184ZM87.5 181.4C88.0333 180.733 88.8 180.4 89.8 180.4C90.5333 180.4 91.1333 180.633 91.6 181.1C92.0666 181.433 92.3 182.1 92.3 183.1V187H91.3V186.3C90.6333 186.833 89.9 187.1 89.1 187.1L88.1 187L87.5 186.6L87 186L86.9 185.4C86.9 184.733 87.1666 184.2 87.7 183.8C88.3 183.467 89.1 183.267 90.1 183.2H91.3V183C91.3 182.333 91.1667 181.9 90.9 181.7C90.6333 181.433 90.2333 181.3 89.7 181.3C89.0333 181.3 88.4667 181.533 88 182L87.5 181.4ZM91.4 184H90.4L89.2 184.1C88.8666 184.1 88.6 184.2 88.4 184.4L88 184.8V185.3C88 185.567 88.1 185.833 88.3 186.1C88.5667 186.3 88.9 186.4 89.3 186.4L90 186.3L90.6 185.9L91 185.5L91.2 185.2C91.3333 185 91.4 184.733 91.4 184.4V184ZM97.4 178.3V187H96.4V179.5L94.7 180L94.4 179.4L96.7 178.3H97.4ZM104.6 179.3V178.4L104.7 177.9L105.1 177.7C105.3 177.7 105.467 177.767 105.6 177.9C105.733 178.033 105.8 178.267 105.8 178.6C105.8 178.867 105.633 179.433 105.3 180.3L105 181.3L104.2 181L104.5 180L104.6 179.3ZM102.2 179.3V178.4L102.3 177.9L102.7 177.7C102.9 177.7 103.067 177.767 103.2 177.9C103.333 178.033 103.4 178.267 103.4 178.6C103.4 178.867 103.233 179.433 102.9 180.3L102.6 181.3L101.8 181L102.1 180V179.7L102.2 179.3ZM111.5 186.7C111.5 187.433 111 188.3 110 189.3L109.5 188.9C109.767 188.7 110 188.433 110.2 188.1L110.4 187.5V187.2L110.1 187L109.8 186.7V186.4L109.9 185.8L110.5 185.6C110.767 185.6 111 185.7 111.2 185.9C111.4 186.1 111.5 186.367 111.5 186.7Z" fill="#0C60B2"/>
<path d="M90.6 194.3H91.4V199.7H92.5V200.6H91.5V203H90.4V200.6H86.9V199.9L90.6 194.3ZM90.4 195.8L87.9 199.8H90.4V195.8ZM94.7 194.3H99.1V195.2H95.5L95.4 197.7C95.8667 197.433 96.3333 197.3 96.8 197.3C97.2 197.3 97.5333 197.367 97.8 197.5C98.1333 197.633 98.4333 197.833 98.7 198.1C98.9667 198.367 99.1333 198.7 99.2 199.1C99.3333 199.433 99.4 199.833 99.4 200.3L99.2 201.5C99.0667 201.833 98.8667 202.133 98.6 202.4C98.4 202.667 98.1333 202.867 97.8 203L96.7 203.1C96.1667 203.1 95.6667 203 95.2 202.8C94.7333 202.533 94.4 202.2 94.2 201.8L95 201.2V201.5L95.3 201.7L95.6 202L96.1 202.2H97.4L97.9 201.7C98.1 201.567 98.2333 201.367 98.3 201.1C98.4333 200.833 98.5 200.533 98.5 200.2C98.5 199.867 98.4333 199.567 98.3 199.3C98.2333 199.033 98.1 198.833 97.9 198.7C97.7667 198.5 97.6 198.367 97.4 198.3L96.7 198.1C96.3667 198.1 96.0333 198.2 95.7 198.4C95.4333 198.533 95.2 198.733 95 199L94.4 198.7L94.7 194.3Z" fill="#DE4C01"/>
<path d="M222.9 180.3L222.8 179.5C222.8 179.233 222.867 179.033 223 178.9L223.4 178.7L223.8 178.9C223.933 179.033 224 179.267 224 179.6L223.6 181.3L223.2 182.3L222.4 182.1L222.8 181.1V180.3H222.9ZM220.5 180.3L220.4 179.5C220.4 179.233 220.467 179.033 220.6 178.9C220.667 178.767 220.8 178.7 221 178.7L221.4 178.9C221.533 179.033 221.6 179.267 221.6 179.6C221.6 179.867 221.433 180.433 221.1 181.3L220.8 182.3L220 182.1L220.3 181.1L220.4 180.7V180.3H220.5ZM231.9 182.7L231.2 183.5H231.1V183.3L231 183.1L230.6 182.7C230.333 182.433 229.9 182.3 229.3 182.3L228.5 182.5L227.9 183C227.7 183.2 227.567 183.467 227.5 183.8C227.367 184.067 227.3 184.4 227.3 184.8L227.5 185.8C227.567 186.067 227.7 186.3 227.9 186.5C228.1 186.767 228.333 186.967 228.6 187.1C228.867 187.233 229.2 187.3 229.6 187.3C230.2 187.3 230.733 187.033 231.2 186.5L231.8 187.2C231.133 187.867 230.333 188.2 229.4 188.2C228.933 188.2 228.533 188.1 228.2 187.9C227.8 187.767 227.467 187.533 227.2 187.2C226.867 186.933 226.633 186.6 226.5 186.2L226.3 184.8C226.3 184.333 226.367 183.9 226.5 183.5C226.633 183.1 226.833 182.767 227.1 182.5L228.1 181.7L229.5 181.5C229.967 181.5 230.4 181.6 230.8 181.8C231.267 182 231.6 182.3 231.8 182.7H231.9ZM233.7 182.4C234.3 181.733 235.067 181.4 236 181.4C236.8 181.4 237.433 181.633 237.9 182.1C238.367 182.5 238.6 183.167 238.6 184.1V188.1H237.6V187.3C236.933 187.9 236.167 188.2 235.3 188.2C234.967 188.2 234.667 188.133 234.4 188C234.133 187.933 233.9 187.8 233.7 187.6C233.5 187.467 233.367 187.267 233.3 187L233.2 186.4C233.2 185.733 233.467 185.233 234 184.9C234.533 184.5 235.333 184.267 236.4 184.2H237.6V184C237.6 183.333 237.467 182.9 237.2 182.7C236.933 182.433 236.533 182.3 236 182.3C235.333 182.3 234.733 182.533 234.2 183L233.7 182.4ZM237.7 185H236.7L235.4 185.1C235.067 185.167 234.833 185.267 234.7 185.4L234.3 185.8L234.2 186.3C234.2 186.567 234.333 186.833 234.6 187.1C234.8 187.3 235.133 187.4 235.6 187.4L236.3 187.3L236.9 186.9L237.3 186.6L237.5 186.2L237.6 185.4V185H237.7ZM240.6 180.6C240.8 180.2 241.133 179.867 241.6 179.6C242 179.333 242.467 179.2 243 179.2L244 179.4L244.8 179.9L245.3 180.7L245.5 181.7L245.4 182.5L245.1 183.2L244.6 183.8L244.1 184.3L243.3 185.1L242.9 185.5L242.4 186L242 186.6L241.6 187.2H245.3L245.4 187.1H245.6V188.1H240.5V187.4L241.6 185.6L242.8 184.4L243.4 183.8L244 183.2L244.4 182.6L244.5 182.2V181.1L244.1 180.6C243.967 180.4 243.8 180.267 243.6 180.2L243 180.1L242.3 180.2C242.1 180.2 241.933 180.267 241.8 180.4L241.5 180.8L241.3 181V181.2L240.6 180.6ZM250.9 180.3L250.8 179.5C250.8 179.233 250.867 179.033 251 178.9L251.4 178.7L251.8 178.9C251.933 179.033 252 179.267 252 179.6L251.6 181.3L251.2 182.3L250.4 182.1L250.8 181.1V180.3H250.9ZM248.5 180.3L248.4 179.5C248.4 179.233 248.467 179.033 248.6 178.9C248.667 178.767 248.8 178.7 249 178.7L249.4 178.9C249.533 179.033 249.6 179.267 249.6 179.6C249.6 179.867 249.433 180.433 249.1 181.3L248.8 182.3L248 182.1L248.3 181.1L248.4 180.7V180.3H248.5ZM257.8 187.7C257.8 188.433 257.3 189.333 256.3 190.4L255.8 189.9C256.067 189.7 256.267 189.467 256.4 189.2L256.7 188.5L256.6 188.2L256.3 188L256.1 187.7L256 187.4C256 187.133 256.067 186.933 256.2 186.8C256.333 186.667 256.533 186.6 256.8 186.6C257.067 186.6 257.3 186.7 257.5 186.9C257.7 187.1 257.8 187.367 257.8 187.7Z" fill="#0C60B2"/>
<path d="M238.5 194.8L236.9 198.8L235.5 203H234.4L235.8 199L237.3 195.2H233.6V194.2H238.6V194.8H238.5ZM241 194.3H245.4V195.2H241.8L241.6 197.7C242.067 197.433 242.567 197.3 243.1 197.3L244.1 197.5C244.433 197.633 244.7 197.833 244.9 198.1C245.167 198.367 245.367 198.7 245.5 199.1C245.633 199.433 245.7 199.833 245.7 200.3L245.5 201.5C245.367 201.833 245.167 202.133 244.9 202.4C244.633 202.667 244.333 202.867 244 203L243 203.2C242.467 203.2 241.967 203.067 241.5 202.8C241.033 202.6 240.667 202.267 240.4 201.8L241.2 201.2L241.3 201.3V201.5L241.5 201.7L241.9 202L242.4 202.2L243 202.3L243.7 202.2L244.2 201.7L244.6 201.1L244.7 200.2L244.6 199.4L244.2 198.7L243.6 198.3L242.9 198.2L242 198.4C241.733 198.533 241.5 198.733 241.3 199L240.7 198.7L241 194.3Z" fill="#DE4D01"/>
<path d="M18 188V181.6H19V182.2C19.1333 182 19.3333 181.833 19.6 181.7C19.8 181.567 20.0333 181.5 20.3 181.5C20.5667 181.5 20.8 181.567 21 181.7C21.2667 181.9 21.4333 182.133 21.5 182.4C21.5667 182.133 21.7333 181.9 22 181.7C22.2667 181.567 22.5667 181.5 22.9 181.5C23.3 181.5 23.6333 181.633 23.9 181.9C24.1 182.233 24.1667 182.633 24.1 183.1V188.1H23.2V182.8C23.2 182.6 23.1333 182.467 23 182.4L22.8 182.2H22.6L22.2 182.4C22.0667 182.4 21.9667 182.5 21.9 182.7C21.7667 182.833 21.7 183 21.7 183.2L21.6 183.8V188H20.6V183.6L20.5 182.5C20.3667 182.3 20.2 182.2 20 182.2C19.7333 182.2 19.5 182.333 19.3 182.6C19.1 182.867 19 183.233 19 183.7V188H18ZM26 181.6H28.6V187.2H30.1V188H26V187.2H27.6V182.4H26V181.6ZM27.6 179C27.7333 178.867 27.9 178.8 28.1 178.8C28.3 178.8 28.4667 178.867 28.6 179L28.8 179.6L28.6 180.1C28.4667 180.233 28.3 180.3 28.1 180.3C27.9 180.3 27.7333 180.233 27.6 180.1L27.4 179.6C27.4 179.333 27.4667 179.133 27.6 179ZM32.5 188V181.6H33.5V182.7C33.7667 182.367 34.1 182.067 34.5 181.8C34.8333 181.6 35.2 181.5 35.6 181.5L36.4 181.6L37.1 182.1L37.5 182.9L37.6 184.1V188.1H36.6V184.1C36.6 183.433 36.5 182.967 36.3 182.7C36.0333 182.433 35.7333 182.3 35.4 182.3L34.8 182.5C34.5333 182.567 34.3333 182.7 34.2 182.9C34 183.033 33.8333 183.233 33.7 183.5L33.6 184.3V188H32.6H32.5Z" fill="#0C60B2"/>
<path d="M418.8 180.3V178.9L419.3 178.7L419.7 178.9C419.833 179.033 419.9 179.267 419.9 179.6L419.5 181.3L419.1 182.3L418.4 182.1L418.7 181.1V180.3H418.8ZM416.4 180.3L416.3 179.5C416.3 179.233 416.367 179.033 416.5 178.9C416.567 178.767 416.7 178.7 416.9 178.7L417.3 178.9C417.433 179.033 417.5 179.267 417.5 179.6L417.1 181.3L416.7 182.3L415.9 182.1L416.2 181.1L416.3 180.7V180.3H416.4ZM422.3 188V181.6H423.3V182.7C423.567 182.367 423.9 182.067 424.3 181.8C424.7 181.6 425.1 181.5 425.5 181.5L426.2 181.6L426.9 182.1L427.3 182.9L427.4 184.1V188.1H426.4V184.1C426.4 183.433 426.3 182.967 426.1 182.7C425.833 182.433 425.567 182.3 425.3 182.3C425.033 182.3 424.8 182.367 424.6 182.5L424 182.9C423.8 183.033 423.633 183.233 423.5 183.5L423.4 184.3V188H422.4H422.3ZM429.2 178.7H430.4V178.9L430.2 179V182.6C430.4 182.267 430.7 182 431.1 181.8C431.433 181.6 431.767 181.5 432.1 181.5C432.5 181.5 432.833 181.567 433.1 181.7C433.433 181.833 433.733 182.033 434 182.3C434.267 182.567 434.467 182.9 434.6 183.3C434.733 183.7 434.8 184.167 434.8 184.7C434.8 185.367 434.7 185.9 434.5 186.3C434.367 186.7 434.167 187.033 433.9 187.3C433.7 187.567 433.433 187.8 433.1 188L432.1 188.2C431.7 188.2 431.367 188.1 431.1 187.9C430.7 187.7 430.4 187.467 430.2 187.2L429.9 188H429.2V178.7ZM431 187L431.4 187.2H432.5L433.1 186.8C433.3 186.6 433.433 186.367 433.5 186.1C433.633 185.767 433.7 185.367 433.7 184.9C433.7 184.1 433.533 183.467 433.2 183C432.867 182.533 432.367 182.3 431.7 182.3C431.5 182.3 431.267 182.4 431 182.6C430.733 182.733 430.533 182.933 430.4 183.2C430.267 183.533 430.2 184 430.2 184.6V185.6L430.4 186.3C430.4 186.5 430.467 186.633 430.6 186.7C430.667 186.833 430.8 186.933 431 187ZM439.6 179.3V188H438.6V180.5L436.8 181L436.6 180.5L438.9 179.3H439.6ZM446.8 180.3V178.9L447.3 178.7L447.7 178.9C447.833 179.033 447.9 179.267 447.9 179.6L447.5 181.3L447.1 182.3L446.4 182.1L446.7 181.1V180.3H446.8ZM444.4 180.3L444.3 179.5C444.3 179.233 444.367 179.033 444.5 178.9C444.567 178.767 444.7 178.7 444.9 178.7L445.3 178.9C445.433 179.033 445.5 179.267 445.5 179.6L445.1 181.3L444.7 182.3L443.9 182.1L444.2 181.1L444.3 180.7V180.3H444.4ZM453.7 187.7C453.7 188.433 453.2 189.333 452.2 190.4L451.7 189.9C451.967 189.7 452.167 189.467 452.3 189.2L452.6 188.5L452.5 188.2L452.2 188L452 187.7L451.9 187.4C451.9 187.133 451.967 186.933 452.1 186.8C452.233 186.667 452.433 186.6 452.7 186.6C452.967 186.6 453.2 186.7 453.4 186.9C453.6 187.1 453.7 187.367 453.7 187.7Z" fill="#0C60B2"/>
<path d="M434.1 196.5C434.1 196.9 434 197.267 433.8 197.6C433.533 197.933 433.2 198.2 432.8 198.4C433.267 198.533 433.633 198.8 433.9 199.2C434.167 199.6 434.3 200.067 434.3 200.6L434.1 201.6C434.033 201.933 433.867 202.2 433.6 202.4C433.333 202.667 433.033 202.867 432.7 203C432.367 203.133 431.967 203.2 431.5 203.2C430.7 203.2 429.967 202.867 429.3 202.2L430.1 201.2V201.5L430.3 201.7L430.5 201.9L430.9 202.1L431.6 202.3C431.867 202.3 432.1 202.233 432.3 202.1L432.9 201.7L433.3 201.2V200.5C433.3 199.967 433.133 199.567 432.8 199.3C432.467 198.967 431.967 198.8 431.3 198.8H430.9V198.1L431.9 198L432.7 197.6C432.9 197.467 433.033 197.3 433.1 197.1L433.2 196.4L433.1 195.9L432.8 195.5L432.3 195.2H431.7C431.033 195.2 430.533 195.4 430.2 195.8L429.6 195.2C430.2 194.533 430.9 194.2 431.7 194.2L432.7 194.4L433.4 194.9C433.667 195.1 433.833 195.333 433.9 195.6C434.033 195.867 434.1 196.167 434.1 196.5ZM440.8 195.4C441.067 195.733 441.267 196.2 441.4 196.8C441.6 197.4 441.7 198.067 441.7 198.8C441.7 199.533 441.6 200.2 441.4 200.8C441.267 201.267 441.067 201.7 440.8 202.1C440.533 202.433 440.2 202.7 439.8 202.9C439.533 203.1 439.2 203.2 438.8 203.2C438.467 203.2 438.133 203.067 437.8 202.8C437.467 202.6 437.167 202.3 436.9 201.9C436.633 201.567 436.433 201.1 436.3 200.5C436.167 199.967 436.1 199.367 436.1 198.7C436.1 198.033 436.167 197.433 436.3 196.9C436.433 196.367 436.633 195.9 436.9 195.5C437.167 195.1 437.5 194.767 437.9 194.5C438.167 194.3 438.5 194.2 438.9 194.2C439.567 194.2 440.2 194.6 440.8 195.4ZM440.3 196.2C440.1 195.867 439.867 195.6 439.6 195.4C439.4 195.2 439.167 195.1 438.9 195.1C438.633 195.1 438.4 195.167 438.2 195.3C437.933 195.5 437.733 195.733 437.6 196L437.1 197.1L437 198.5C437 199.167 437.067 199.733 437.2 200.2L440.2 196.2H440.3ZM440.6 197.2L437.6 201.1C437.733 201.5 437.933 201.8 438.2 202C438.467 202.2 438.7 202.3 438.9 202.3C439.167 202.3 439.4 202.2 439.6 202C439.867 201.867 440.067 201.667 440.2 201.4L440.6 200.4C440.733 199.933 440.8 199.433 440.8 198.9V197.9L440.6 197.2Z" fill="#E04D01"/>
<path d="M677.1 188V181.6H678.1V182.2L678.6 181.7L679.4 181.5C679.667 181.5 679.9 181.567 680.1 181.7C680.3 181.9 680.433 182.133 680.5 182.4C680.633 182.133 680.833 181.9 681.1 181.7L681.9 181.5C682.367 181.5 682.7 181.633 682.9 181.9C683.1 182.233 683.2 182.633 683.2 183.1V188.1H682.2V182.8L682.1 182.4L681.9 182.2H681.6L681.2 182.4L680.9 182.7L680.7 183.2V188H679.7V183.6C679.7 183.067 679.633 182.7 679.5 182.5C679.433 182.3 679.267 182.2 679 182.2C678.8 182.2 678.6 182.333 678.4 182.6C678.2 182.867 678.1 183.233 678.1 183.7V188H677.1ZM684.9 182.4C685.433 181.733 686.2 181.4 687.2 181.4C687.933 181.4 688.533 181.633 689 182.1C689.467 182.5 689.7 183.167 689.7 184.1V188.1H688.7V187.3C688.033 187.9 687.267 188.2 686.4 188.2C686.067 188.2 685.767 188.133 685.5 188C685.233 187.933 685.033 187.8 684.9 187.6C684.7 187.467 684.533 187.267 684.4 187L684.3 186.4C684.3 185.733 684.567 185.233 685.1 184.9C685.633 184.5 686.433 184.267 687.5 184.2H688.7V184C688.7 183.333 688.567 182.9 688.3 182.7C688.033 182.433 687.633 182.3 687.1 182.3C686.433 182.3 685.867 182.533 685.4 183L684.9 182.4ZM688.8 185H687.8L686.6 185.1L685.8 185.4L685.4 185.8L685.3 186.3C685.3 186.567 685.433 186.833 685.7 187.1C685.967 187.3 686.3 187.4 686.7 187.4L687.4 187.3L688 186.9L688.4 186.6L688.6 186.2C688.733 186 688.8 185.733 688.8 185.4V185ZM695.7 181.6H696.7L694.7 184.7L697 188H695.8L694.1 185.5L692.4 188H691.3L693.5 184.8L691.3 181.6H692.4L694.1 184L695.7 181.6Z" fill="#0C60B2"/>
<path d="M29.9 137V176.8M689.6 138.4V176.8M588.2 137V176.8" stroke="#AFD1E8" stroke-width="1.5" stroke-dasharray="3 1.5"/>
<path d="M571.3 180.3V179.5L571.4 178.9C571.533 178.767 571.7 178.7 571.9 178.7L572.3 178.9C572.433 179.033 572.5 179.267 572.5 179.6C572.5 179.867 572.333 180.433 572 181.3L571.7 182.3L570.9 182.1L571.2 181.1L571.3 180.3ZM568.9 180.3V179.5L569 178.9L569.4 178.7C569.6 178.7 569.767 178.767 569.9 178.9C570.033 179.033 570.1 179.267 570.1 179.6C570.1 179.867 569.933 180.433 569.6 181.3L569.3 182.3L568.5 182.1L568.8 181.1V180.7L568.9 180.3ZM579 181.6H580L578 184.7L580.3 188H579.2L577.4 185.5L575.7 188H574.6L576.8 184.8L574.6 181.6H575.7L577.4 184L579 181.6ZM581.8 182L581.6 181.6H582.8V182L584.7 186.7L585.9 183.3L586.2 182.3L586.4 181.6H587.4L587.1 182.4L586.8 183.4L585 188L584.8 188.7C584.533 189.367 584.233 189.833 583.9 190.1C583.567 190.3 583.167 190.4 582.7 190.4C582.1 190.4 581.6 190.233 581.2 189.9L581.8 189V189.3H581.9L582.1 189.4L582.3 189.6H582.6C582.867 189.6 583.1 189.533 583.3 189.4C583.567 189.2 583.8 188.867 584 188.4L584.2 188L581.8 182ZM589 181.6H593.9V182.3L590 187.1H594.2V188.1H588.6V187.3L592.6 182.5H588.9V181.6H589ZM599.3 180.3V179.5L599.4 178.9C599.533 178.767 599.7 178.7 599.9 178.7L600.3 178.9C600.433 179.033 600.5 179.267 600.5 179.6C600.5 179.867 600.333 180.433 600 181.3L599.7 182.3L598.9 182.1L599.2 181.1L599.3 180.3ZM596.9 180.3V179.5L597 178.9L597.4 178.7C597.6 178.7 597.767 178.767 597.9 178.9C598.033 179.033 598.1 179.267 598.1 179.6C598.1 179.867 597.933 180.433 597.6 181.3L597.3 182.3L596.5 182.1L596.8 181.1V180.7L596.9 180.3ZM606.2 187.7C606.2 188.433 605.7 189.333 604.7 190.4L604.2 189.9L604.9 189.2L605.2 188.5C605.2 188.367 605.133 188.267 605 188.2L604.8 188L604.6 187.7C604.467 187.633 604.4 187.533 604.4 187.4C604.4 187.133 604.5 186.933 604.7 186.8C604.833 186.667 605.033 186.6 605.3 186.6C605.5 186.6 605.7 186.7 605.9 186.9C606.1 187.1 606.2 187.367 606.2 187.7Z" fill="#0C60B2"/>
<path d="M584 203.1C583.267 203.1 582.6 202.867 582 202.4L582.7 201.6L582.8 201.8L583 201.9C583.267 202.167 583.6 202.3 584 202.3C584.667 202.3 585.167 202.033 585.5 201.5C585.833 200.967 586.033 200.1 586.1 198.9C585.9 199.167 585.633 199.4 585.3 199.6L584.3 199.8L583.3 199.6L582.6 199.1L582.1 198.2C581.967 197.867 581.9 197.5 581.9 197.1L582.1 195.9L582.6 195L583.4 194.4L584.4 194.2C585.267 194.2 585.933 194.567 586.4 195.3C586.867 196.033 587.1 197.2 587.1 198.8C587.1 199.533 587 200.2 586.8 200.8C586.667 201.333 586.433 201.767 586.1 202.1C585.833 202.433 585.5 202.7 585.1 202.9C584.767 203.033 584.4 203.1 584 203.1ZM586 197.9V197.5L585.9 196.5L585.6 195.7L585 195.3L584.4 195.1C583.933 195.1 583.567 195.267 583.3 195.6C582.967 195.933 582.8 196.433 582.8 197.1L583 197.9C583 198.1 583.1 198.3 583.3 198.5L583.7 198.9H584.3C584.7 198.9 585.033 198.833 585.3 198.7C585.567 198.5 585.8 198.233 586 197.9ZM593.3 195.4C593.567 195.733 593.8 196.2 594 196.8C594.133 197.4 594.2 198.067 594.2 198.8C594.2 199.533 594.133 200.2 594 200.8L593.3 202.1C593.033 202.433 592.733 202.7 592.4 202.9C592.067 203.1 591.733 203.2 591.4 203.2C591.067 203.2 590.733 203.067 590.4 202.8C590.067 202.6 589.733 202.3 589.4 201.9C589.2 201.567 589.033 201.1 588.9 200.5C588.7 199.967 588.6 199.367 588.6 198.7C588.6 198.033 588.7 197.433 588.9 196.9C589.033 196.367 589.233 195.9 589.5 195.5C589.767 195.1 590.067 194.767 590.4 194.5C590.733 194.3 591.067 194.2 591.4 194.2C592.133 194.2 592.8 194.6 593.4 195.4H593.3ZM592.8 196.2L592.2 195.4C591.933 195.2 591.667 195.1 591.4 195.1L590.7 195.3L590.1 196L589.7 197.1L589.5 198.5C589.5 199.167 589.567 199.733 589.7 200.2L592.8 196.2ZM593.1 197.2L590.1 201.1C590.3 201.5 590.533 201.8 590.8 202C591 202.2 591.233 202.3 591.5 202.3C591.767 202.3 592 202.2 592.2 202L592.8 201.4L593.2 200.4L593.3 198.9V197.9C593.3 197.633 593.233 197.4 593.1 197.2Z" fill="#E04D01"/>
<path d="M213.8 248.5L213.9 246.4C213.9 245.467 213.733 244.833 213.4 244.5C213.067 244.167 212.6 244 212 244H211.6V242.8H212C212.667 242.8 213.167 242.633 213.5 242.3C213.833 241.967 214 241.4 214 240.6V239.1C214 236.633 215.233 235.4 217.7 235.4H219.1V236.6H217.3C215.967 236.6 215.3 237.367 215.3 238.9L215.4 240.3C215.4 241.9 214.8 242.933 213.6 243.4C214.8 243.8 215.4 244.9 215.4 246.7V248.5C215.4 249.433 215.567 250.1 215.9 250.5C216.367 250.833 217.033 251 217.9 251H219V252.2H218.3L216.5 252.1C215.967 252.033 215.467 251.833 215 251.5C214.2 250.9 213.8 249.9 213.8 248.5Z" fill="#1D4595"/>
<path d="M232.8 239.2H234.3V244.6C234.3 245.2 234.367 245.7 234.5 246.1L235 247.1C235.2 247.367 235.433 247.567 235.7 247.7L236.5 247.8L237.5 247.6L238.3 247C238.567 246.733 238.767 246.4 238.9 246C239.033 245.6 239.1 245.1 239.1 244.5V239.2H240.6V247.9L240.7 248.9H239.1V247.3C238.833 247.833 238.433 248.267 237.9 248.6C237.367 248.867 236.767 249 236.1 249C235.633 249 235.2 248.933 234.8 248.8C234.4 248.6 234.067 248.333 233.8 248C233.467 247.6 233.2 247.133 233 246.6C232.867 246 232.8 245.333 232.8 244.6V239.2ZM251 240.5L250.2 241.8L250.1 241.7V241.4L249 240.6C248.533 240.267 248 240.1 247.4 240.1L246.6 240.2L246 240.5L245.5 240.9L245.4 241.5V242L245.9 242.4L246.6 242.7L247.9 243.2C249.1 243.467 249.967 243.833 250.5 244.3C250.967 244.767 251.2 245.3 251.2 245.9C251.2 246.367 251.133 246.767 251 247.1C250.8 247.5 250.533 247.833 250.2 248.1L248.9 248.8C248.433 248.933 247.867 249 247.2 249C245.6 249 244.267 248.5 243.2 247.5L244.1 246V246.2L244.3 246.5L244.7 247L245.7 247.5L246.5 247.7H248.1L248.9 247.4C249.167 247.267 249.367 247.1 249.5 246.9C249.633 246.7 249.7 246.467 249.7 246.2C249.7 245.867 249.533 245.567 249.2 245.3C248.867 245.033 248.233 244.767 247.3 244.5L246.1 244.1C245.633 243.967 245.3 243.8 245.1 243.6L244.4 243.1C244.2 242.9 244.067 242.667 244 242.4L243.8 241.6C243.8 241.267 243.9 240.933 244.1 240.6C244.233 240.267 244.467 240 244.8 239.8C245.133 239.533 245.533 239.333 246 239.2C246.467 239.067 246.967 239 247.5 239C248.967 239 250.167 239.5 251.1 240.5H251ZM258 239C258.467 239 258.933 239.1 259.4 239.3C259.867 239.433 260.267 239.7 260.6 240.1C261 240.433 261.3 240.9 261.5 241.5C261.7 242.1 261.8 242.767 261.8 243.5V244.2H255C255 244.867 255.1 245.433 255.3 245.9C255.5 246.367 255.767 246.733 256.1 247C256.367 247.267 256.7 247.467 257.1 247.6L258.2 247.8C259.2 247.8 260.033 247.467 260.7 246.8L261.6 247.6C260.733 248.533 259.6 249 258.2 249C257.533 249 256.867 248.9 256.2 248.7C255.667 248.5 255.2 248.167 254.8 247.7C254.4 247.3 254.067 246.8 253.8 246.2C253.6 245.533 253.5 244.8 253.5 244C253.5 243.2 253.633 242.5 253.9 241.9C254.1 241.233 254.4 240.7 254.8 240.3C255.2 239.9 255.667 239.567 256.2 239.3C256.733 239.1 257.3 239 257.9 239H258ZM255 243H260.3V242.7L260.1 241.7L259.6 240.9L258.8 240.3C258.533 240.167 258.2 240.1 257.8 240.1C257.133 240.1 256.533 240.367 256 240.9C255.467 241.3 255.133 242.033 255 243.1V243ZM265 239.2H266.6V241.1C266.867 240.433 267.333 239.9 268 239.5C268.667 239.167 269.333 239 270 239C271.067 239 271.933 239.333 272.6 240L271.9 241.5L271.5 241L271.1 240.6L270.6 240.4L270 240.3C269.533 240.3 269.1 240.4 268.7 240.6C268.3 240.8 267.933 241.1 267.6 241.5L266.9 242.7C266.7 243.167 266.6 243.633 266.6 244.1V248.8H265.1V239.2H265ZM275.7 239.2H279.6V247.6H281.8V248.8H275.6V247.6H278V240.4H275.7V239.2ZM278.1 235.4C278.3 235.133 278.533 235 278.8 235C279.133 235 279.4 235.133 279.6 235.4C279.8 235.6 279.9 235.833 279.9 236.1C279.9 236.433 279.8 236.7 279.6 236.9C279.4 237.1 279.133 237.2 278.8 237.2C278.533 237.2 278.3 237.1 278.1 236.9C277.9 236.7 277.8 236.433 277.8 236.1C277.8 235.833 277.9 235.6 278.1 235.4ZM291.8 240.6V234.8H293.4L293.3 235.1L293.2 235.4V248L293.3 249H291.8V247.4C291.467 247.933 291.033 248.367 290.5 248.7C289.967 248.967 289.4 249.1 288.8 249.1C288.267 249.1 287.767 249 287.3 248.8C286.833 248.6 286.433 248.267 286.1 247.8C285.767 247.4 285.5 246.9 285.3 246.3C285.033 245.633 284.9 244.867 284.9 244C284.9 243.133 285.033 242.4 285.3 241.8C285.567 241.133 285.9 240.6 286.3 240.2C286.633 239.8 287.033 239.533 287.5 239.4C287.967 239.2 288.467 239.1 289 239.1C289.667 239.1 290.233 239.233 290.7 239.5C291.167 239.833 291.5 240.233 291.7 240.7L291.8 240.6ZM287.3 240.9C286.7 241.433 286.4 242.367 286.4 243.7C286.4 244.9 286.633 245.9 287.1 246.7C287.567 247.367 288.233 247.7 289.1 247.7L289.8 247.6C290.067 247.533 290.3 247.4 290.5 247.2L291 246.7C291.2 246.5 291.333 246.267 291.4 246C291.6 245.467 291.7 244.8 291.7 244L291.6 242.6C291.6 242.267 291.533 241.967 291.4 241.7C291.333 241.433 291.2 241.233 291 241.1L290.5 240.7L289.8 240.3L289.2 240.2C288.8 240.2 288.467 240.267 288.2 240.4C287.867 240.467 287.567 240.633 287.3 240.9Z" fill="#0076C0"/>
<path d="M300.4 240.3C300.667 240.567 300.8 240.833 300.8 241.1C300.8 241.433 300.667 241.733 300.4 242C300.133 242.2 299.8 242.3 299.4 242.3C299.133 242.3 298.867 242.2 298.6 242C298.4 241.733 298.3 241.433 298.3 241.1C298.3 240.767 298.4 240.5 298.6 240.3C298.867 240.033 299.167 239.9 299.5 239.9C299.833 239.9 300.133 240.033 300.4 240.3ZM300.4 247C300.667 247.267 300.8 247.533 300.8 247.8C300.8 248.133 300.667 248.433 300.4 248.7C300.133 248.9 299.8 249 299.4 249C299.133 249 298.867 248.9 298.6 248.7C298.4 248.433 298.3 248.133 298.3 247.8C298.3 247.467 298.4 247.2 298.6 247C298.867 246.733 299.167 246.6 299.5 246.6C299.833 246.6 300.133 246.733 300.4 247ZM321.8 235.7V248.8H320.3V237.5L317.7 238.3L317.3 237.5L320.8 235.7H321.8ZM332.4 248.4C332.4 249.533 331.667 250.867 330.2 252.4L329.5 251.7L330.5 250.5C330.7 250.1 330.8 249.767 330.8 249.5L330.7 249.1L330.3 248.8L329.9 248.4L329.8 247.9C329.8 247.567 329.9 247.267 330.1 247C330.3 246.733 330.6 246.6 331 246.6C331.333 246.6 331.667 246.767 332 247.1C332.267 247.433 332.4 247.867 332.4 248.4Z" fill="#1D4595"/>
<path d="M356 240.5L355.2 241.8L355.1 241.7V241.4L354 240.6C353.533 240.267 353 240.1 352.4 240.1L351.6 240.2L351 240.5L350.5 240.9L350.4 241.5V242L350.9 242.4L351.6 242.7L352.9 243.2C354.1 243.467 354.967 243.833 355.5 244.3C355.967 244.767 356.2 245.3 356.2 245.9C356.2 246.367 356.133 246.767 356 247.1C355.8 247.5 355.533 247.833 355.2 248.1L353.9 248.8C353.433 248.933 352.867 249 352.2 249C350.6 249 349.267 248.5 348.2 247.5L349.1 246V246.2L349.3 246.5L349.7 247L350.7 247.5L351.5 247.7H353.1L353.9 247.4C354.167 247.267 354.367 247.1 354.5 246.9C354.633 246.7 354.7 246.467 354.7 246.2C354.7 245.867 354.533 245.567 354.2 245.3C353.867 245.033 353.233 244.767 352.3 244.5L351.1 244.1C350.633 243.967 350.3 243.8 350.1 243.6L349.4 243.1C349.2 242.9 349.067 242.667 349 242.4L348.8 241.6C348.8 241.267 348.9 240.933 349.1 240.6C349.233 240.267 349.467 240 349.8 239.8C350.133 239.533 350.533 239.333 351 239.2C351.467 239.067 351.967 239 352.5 239C353.967 239 355.167 239.5 356.1 240.5H356ZM367 240.8L366 242L365.9 241.7L365.7 241.4C365.7 241.267 365.533 241.1 365.2 240.9C364.733 240.5 364.067 240.3 363.2 240.3C362.867 240.3 362.533 240.4 362.2 240.6C361.8 240.733 361.467 240.967 361.2 241.3C360.867 241.633 360.633 242 360.5 242.4C360.3 242.867 360.2 243.367 360.2 243.9C360.2 244.433 360.3 244.933 360.5 245.4C360.633 245.867 360.867 246.267 361.2 246.6C361.467 246.933 361.8 247.2 362.2 247.4C362.6 247.6 363.067 247.7 363.6 247.7C364.533 247.7 365.367 247.3 366.1 246.5L366.9 247.5C365.967 248.5 364.8 249 363.4 249C362.733 249 362.1 248.9 361.5 248.7C360.967 248.433 360.467 248.1 360 247.7C359.6 247.167 359.267 246.6 359 246C358.8 245.4 358.7 244.733 358.7 244C358.7 243.333 358.8 242.667 359 242C359.267 241.4 359.6 240.9 360 240.5C360.467 240.033 360.967 239.667 361.5 239.4C362.167 239.133 362.833 239 363.5 239C364.233 239 364.9 239.167 365.5 239.5C366.167 239.833 366.7 240.267 367.1 240.8H367ZM373.3 239C373.967 239 374.533 239.133 375 239.4C375.533 239.6 376 239.933 376.4 240.4C376.8 240.8 377.1 241.3 377.3 241.9C377.567 242.567 377.7 243.267 377.7 244C377.7 244.8 377.567 245.5 377.3 246.1C377.1 246.767 376.767 247.3 376.3 247.7C375.967 248.167 375.533 248.5 375 248.7C374.467 248.967 373.9 249.1 373.3 249.1C372.633 249.1 372.067 248.967 371.6 248.7C371.067 248.433 370.6 248.1 370.2 247.7C369.733 247.233 369.4 246.7 369.2 246.1C368.933 245.433 368.8 244.767 368.8 244.1C368.8 243.367 368.933 242.7 369.2 242.1C369.467 241.433 369.8 240.9 370.2 240.5C370.6 240.033 371.067 239.667 371.6 239.4C372.133 239.133 372.7 239 373.3 239ZM376.1 244C376.1 243.467 376.033 242.967 375.9 242.5C375.767 242.033 375.567 241.633 375.3 241.3C375.033 240.967 374.7 240.7 374.3 240.5L373.3 240.3C372.9 240.3 372.533 240.367 372.2 240.5L371.2 241.3L370.7 242.4C370.5 242.867 370.4 243.4 370.4 244C370.4 244.533 370.5 245.033 370.7 245.5C370.833 245.967 371.033 246.367 371.3 246.7C371.567 247.033 371.867 247.3 372.2 247.5C372.533 247.7 372.9 247.8 373.3 247.8C373.7 247.8 374.067 247.7 374.4 247.5C374.733 247.367 375.033 247.133 375.3 246.8C375.567 246.467 375.767 246.067 375.9 245.6C376.033 245.133 376.1 244.633 376.1 244.1V244ZM380.6 239.2H382.1V241.1C382.367 240.433 382.833 239.9 383.5 239.5C384.167 239.167 384.833 239 385.5 239C386.567 239 387.433 239.333 388.1 240L387.4 241.5L387 241L386.6 240.6L386.1 240.4L385.5 240.3C385.033 240.3 384.6 240.4 384.2 240.6C383.8 240.8 383.433 241.1 383.1 241.5L382.4 242.7C382.2 243.167 382.1 243.633 382.1 244.1V248.8H380.6V239.2ZM394.4 239C394.933 239 395.433 239.1 395.9 239.3C396.367 239.433 396.767 239.7 397.1 240.1C397.5 240.433 397.8 240.9 398 241.5C398.2 242.1 398.3 242.767 398.3 243.5V244.2H391.5C391.5 244.867 391.6 245.433 391.8 245.9C392 246.367 392.267 246.733 392.6 247C392.867 247.267 393.2 247.467 393.6 247.6L394.7 247.8C395.7 247.8 396.533 247.467 397.2 246.8L398.1 247.6C397.233 248.533 396.1 249 394.7 249C394.033 249 393.367 248.9 392.7 248.7C392.167 248.5 391.7 248.167 391.3 247.7C390.9 247.3 390.567 246.8 390.3 246.2C390.1 245.533 390 244.8 390 244C390 243.2 390.133 242.5 390.4 241.9C390.6 241.233 390.9 240.7 391.3 240.3C391.7 239.9 392.167 239.567 392.7 239.3C393.233 239.1 393.8 239 394.4 239ZM391.5 243H396.8V242.7L396.6 241.7L396.1 240.9L395.3 240.3C395.033 240.167 394.7 240.1 394.3 240.1C393.633 240.1 393.033 240.367 392.5 240.9C391.967 241.3 391.633 242.033 391.5 243.1V243Z" fill="#DE4F4F"/>
<path d="M405.4 240.3C405.667 240.567 405.8 240.833 405.8 241.1C405.8 241.433 405.667 241.733 405.4 242C405.133 242.2 404.8 242.3 404.4 242.3C404.133 242.3 403.867 242.2 403.6 242C403.4 241.733 403.3 241.433 403.3 241.1C403.3 240.767 403.4 240.5 403.6 240.3C403.867 240.033 404.167 239.9 404.5 239.9C404.833 239.9 405.133 240.033 405.4 240.3ZM405.4 247C405.667 247.267 405.8 247.533 405.8 247.8C405.8 248.133 405.667 248.433 405.4 248.7C405.133 248.9 404.8 249 404.4 249C404.133 249 403.867 248.9 403.6 248.7C403.4 248.433 403.3 248.133 403.3 247.8C403.3 247.467 403.4 247.2 403.6 247C403.867 246.733 404.167 246.6 404.5 246.6C404.833 246.6 405.133 246.733 405.4 247ZM422 241.5H429.5V242.9H422V241.5ZM437.3 235.7V248.8H435.8V237.5L433.2 238.3L432.8 237.5L436.3 235.7H437.3ZM459 239V240.6C459 241.4 459.167 241.967 459.5 242.3C459.833 242.633 460.333 242.8 461 242.8H461.4V244H461C460.333 244 459.867 244.167 459.6 244.5C459.267 244.833 459.1 245.467 459.1 246.4V248.4C459.1 249.733 458.833 250.667 458.3 251.2C457.767 251.867 456.9 252.2 455.7 252.2H453.9V251H455.8L456.3 250.9L456.6 250.8L456.8 250.6C457.4 250.2 457.7 249.5 457.7 248.5V246.7C457.7 244.9 458.267 243.8 459.4 243.4C458.2 242.933 457.6 241.933 457.6 240.4V238.9C457.6 238.1 457.433 237.533 457.1 237.2C456.767 236.8 456.233 236.6 455.5 236.6H453.9V235.4H454.6L456.1 235.5C456.633 235.5 457.133 235.633 457.6 235.9C458 236.167 458.333 236.567 458.6 237.1C458.933 237.567 459.1 238.233 459.1 239.1L459 239Z" fill="#1D4595"/>
<path d="M474.6 234.5H476.6V248.8H474.6V234.5ZM481.4 239.4V240.6C482.267 239.667 483.233 239.2 484.3 239.2C484.9 239.2 485.433 239.367 485.9 239.7C486.433 239.967 486.833 240.367 487.1 240.9C487.367 241.433 487.5 242.267 487.5 243.4V248.8H485.6V243.4C485.6 242.467 485.467 241.8 485.2 241.4C484.867 241 484.367 240.8 483.7 240.8C482.833 240.8 482.067 241.233 481.4 242.1V248.8H479.5V239.4H481.5H481.4ZM496.4 234.5H498.2V248.8H494.2C492.867 248.8 491.767 248.367 490.9 247.5C490.1 246.633 489.7 245.433 489.7 243.9C489.7 242.567 490.133 241.433 491 240.5C491.867 239.633 492.967 239.2 494.3 239.2C494.967 239.2 495.633 239.333 496.3 239.6V234.5H496.4ZM496.4 247.2V241.2C495.733 240.933 495.133 240.8 494.6 240.8C493.667 240.8 492.933 241.133 492.4 241.8C491.867 242.333 491.6 243.133 491.6 244.2C491.6 245.133 491.833 245.867 492.3 246.4C492.567 246.733 492.867 246.933 493.2 247C493.533 247.133 494.1 247.2 494.9 247.2H496.4ZM508.8 244.3H502.2C502.2 245.167 502.5 245.867 503.1 246.4C503.633 246.933 504.333 247.2 505.2 247.2C506.467 247.2 507.6 246.833 508.6 246.1V247.9C508.067 248.3 507.5 248.567 506.9 248.7C506.367 248.9 505.7 249 504.9 249C503.9 249 503.067 248.767 502.4 248.3C501.733 247.9 501.233 247.333 500.9 246.6C500.5 245.867 500.3 245 500.3 244C500.3 242.6 500.7 241.433 501.5 240.5C502.3 239.633 503.367 239.2 504.7 239.2C505.967 239.2 506.967 239.633 507.7 240.5C508.433 241.367 508.8 242.533 508.8 244V244.3ZM502.2 243.1H507C506.933 242.433 506.7 241.867 506.3 241.4C505.9 241 505.367 240.8 504.7 240.8C504.033 240.8 503.467 241 503 241.4C502.6 241.8 502.333 242.367 502.2 243.1ZM517.3 239.4H519.7L515.8 244L520 248.8H517.6L514.6 245.4L511.8 248.8H509.5L513.5 244L509.5 239.4H511.8L514.6 242.6L517.3 239.4Z" fill="#1D4595"/>
<path d="M295.4 137.6V177.4" stroke="#AFD1E8" stroke-width="1.5" stroke-dasharray="3 1.5"/>
<path d="M278.2 180.3L278.1 179.5C278.1 179.233 278.167 179.033 278.3 178.9L278.7 178.7L279.1 178.9C279.233 179.033 279.3 179.267 279.3 179.6C279.3 179.867 279.133 180.433 278.8 181.3L278.5 182.3L277.7 182.1L278.1 181.1V180.3H278.2ZM275.8 180.3L275.7 179.5C275.7 179.233 275.767 179.033 275.9 178.9C275.967 178.767 276.1 178.7 276.3 178.7L276.7 178.9C276.833 179.033 276.9 179.267 276.9 179.6C276.9 179.867 276.733 180.433 276.4 181.3L276.1 182.3L275.3 182.1L275.6 181.1L275.7 180.7V180.3H275.8ZM287.2 182.7L286.5 183.5H286.4V183.3L286.3 183.1L285.9 182.7C285.633 182.433 285.2 182.3 284.6 182.3L283.8 182.5L283.2 183C283 183.2 282.867 183.467 282.8 183.8C282.667 184.067 282.6 184.4 282.6 184.8L282.8 185.8C282.867 186.067 283 186.3 283.2 186.5C283.4 186.767 283.633 186.967 283.9 187.1C284.167 187.233 284.5 187.3 284.9 187.3C285.5 187.3 286.033 187.033 286.5 186.5L287.1 187.2C286.433 187.867 285.633 188.2 284.7 188.2C284.233 188.2 283.833 188.1 283.5 187.9C283.1 187.767 282.767 187.533 282.5 187.2C282.167 186.933 281.933 186.6 281.8 186.2L281.6 184.8C281.6 184.333 281.667 183.9 281.8 183.5C281.933 183.1 282.133 182.767 282.4 182.5L283.4 181.7L284.8 181.5C285.267 181.5 285.7 181.6 286.1 181.8C286.567 182 286.9 182.3 287.1 182.7H287.2ZM289 182.4C289.6 181.733 290.367 181.4 291.3 181.4C292.1 181.4 292.733 181.633 293.2 182.1C293.667 182.5 293.9 183.167 293.9 184.1V188.1H292.9V187.3C292.233 187.9 291.467 188.2 290.6 188.2C290.267 188.2 289.967 188.133 289.7 188C289.433 187.933 289.2 187.8 289 187.6C288.8 187.467 288.667 187.267 288.6 187L288.5 186.4C288.5 185.733 288.767 185.233 289.3 184.9C289.833 184.5 290.633 184.267 291.7 184.2H292.9V184C292.9 183.333 292.767 182.9 292.5 182.7C292.233 182.433 291.833 182.3 291.3 182.3C290.633 182.3 290.033 182.533 289.5 183L289 182.4ZM293 185H292L290.7 185.1C290.367 185.167 290.133 185.267 290 185.4L289.6 185.8L289.5 186.3C289.5 186.567 289.633 186.833 289.9 187.1C290.1 187.3 290.433 187.4 290.9 187.4L291.6 187.3L292.2 186.9L292.6 186.6L292.8 186.2L292.9 185.4V185H293ZM295.9 180.6C296.1 180.2 296.433 179.867 296.9 179.6C297.3 179.333 297.767 179.2 298.3 179.2L299.3 179.4L300.1 179.9L300.6 180.7L300.8 181.7L300.7 182.5L300.4 183.2L299.9 183.8L299.4 184.3L298.6 185.1L298.2 185.5L297.7 186L297.3 186.6L296.9 187.2H300.6L300.7 187.1H300.9V188.1H295.8V187.4L296.9 185.6L298.1 184.4L298.7 183.8L299.3 183.2L299.7 182.6L299.8 182.2V181.1L299.4 180.6L298.9 180.2L298.3 180.1L297.6 180.2C297.4 180.2 297.233 180.267 297.1 180.4L296.8 180.8L296.6 181V181.2L295.9 180.6ZM306.2 180.3L306.1 179.5C306.1 179.233 306.167 179.033 306.3 178.9L306.7 178.7L307.1 178.9C307.233 179.033 307.3 179.267 307.3 179.6C307.3 179.867 307.133 180.433 306.8 181.3L306.5 182.3L305.7 182.1L306.1 181.1V180.3H306.2ZM303.8 180.3L303.7 179.5C303.7 179.233 303.767 179.033 303.9 178.9C303.967 178.767 304.1 178.7 304.3 178.7L304.7 178.9C304.833 179.033 304.9 179.267 304.9 179.6C304.9 179.867 304.733 180.433 304.4 181.3L304.1 182.3L303.3 182.1L303.6 181.1L303.7 180.7V180.3H303.8ZM313 187.7C313 188.433 312.533 189.333 311.6 190.4L311.1 189.9C311.367 189.7 311.567 189.467 311.7 189.2L312 188.5L311.9 188.2L311.6 188L311.4 187.7L311.3 187.4C311.3 187.133 311.367 186.933 311.5 186.8C311.633 186.667 311.833 186.6 312.1 186.6C312.367 186.6 312.6 186.7 312.8 186.9C313 187.1 313.1 187.367 313.1 187.7H313Z" fill="#0C60B2"/>
<path d="M289.3 194.3H293.7V195.2H290L289.8 197.7C290.267 197.433 290.767 197.3 291.3 197.3L292.3 197.5C292.633 197.633 292.9 197.833 293.1 198.1C293.367 198.367 293.567 198.7 293.7 199.1C293.833 199.433 293.9 199.833 293.9 200.3L293.7 201.5C293.567 201.833 293.367 202.133 293.1 202.4C292.833 202.667 292.533 202.867 292.2 203L291.2 203.2C290.667 203.2 290.167 203.067 289.7 202.8C289.233 202.6 288.867 202.267 288.6 201.8L289.4 201.2L289.5 201.3V201.5L289.7 201.7L290.1 202L290.6 202.2L291.2 202.3L291.9 202.2L292.4 201.7L292.8 201.1L292.9 200.2L292.8 199.4L292.4 198.7L291.8 198.3L291.1 198.2L290.2 198.4C289.933 198.533 289.7 198.733 289.5 199L288.9 198.7L289.2 194.3H289.3ZM296.3 194.3H300.7V195.2H297L296.8 197.7C297.267 197.433 297.767 197.3 298.3 197.3L299.3 197.5C299.633 197.633 299.9 197.833 300.1 198.1C300.367 198.367 300.567 198.7 300.7 199.1C300.833 199.433 300.9 199.833 300.9 200.3L300.7 201.5C300.567 201.833 300.367 202.133 300.1 202.4C299.833 202.667 299.533 202.867 299.2 203L298.2 203.2C297.667 203.2 297.167 203.067 296.7 202.8C296.233 202.6 295.867 202.267 295.6 201.8L296.4 201.2L296.5 201.3V201.5L296.7 201.7L297.1 202L297.6 202.2L298.2 202.3L298.9 202.2L299.4 201.7L299.8 201.1L299.9 200.2L299.8 199.4L299.4 198.7L298.8 198.3L298.1 198.2L297.2 198.4C296.933 198.533 296.7 198.733 296.5 199L295.9 198.7L296.2 194.3H296.3Z" fill="#E04C01"/>
<path d="M354 137.6V177.4" stroke="#AFD1E8" stroke-width="1.5" stroke-dasharray="3 1.5"/>
<path d="M334 180.3V179.5L334.1 178.9L334.5 178.7C334.7 178.7 334.867 178.767 335 178.9L335.1 179.6L334.7 181.3L334.3 182.3L333.6 182.1L333.9 181.1L334 180.3ZM331.6 180.3L331.5 179.5C331.5 179.233 331.567 179.033 331.7 178.9L332.1 178.7L332.5 178.9C332.633 179.033 332.7 179.267 332.7 179.6L332.3 181.3L331.9 182.3L331.1 182.1L331.5 181.1V180.3H331.6ZM343 182.7L342.3 183.5H342.2V183.3L342.1 183.1C342.1 182.967 342 182.833 341.8 182.7C341.467 182.433 341.033 182.3 340.5 182.3C340.167 182.3 339.9 182.367 339.7 182.5L339 183C338.8 183.2 338.667 183.467 338.6 183.8C338.467 184.067 338.4 184.4 338.4 184.8L338.6 185.8C338.667 186.067 338.8 186.3 339 186.5C339.2 186.767 339.433 186.967 339.7 187.1C339.967 187.233 340.3 187.3 340.7 187.3C341.3 187.3 341.833 187.033 342.3 186.5L342.9 187.2C342.233 187.867 341.467 188.2 340.6 188.2C340.133 188.2 339.7 188.1 339.3 187.9C338.9 187.767 338.567 187.533 338.3 187.2C337.967 186.933 337.733 186.6 337.6 186.2L337.4 184.8C337.4 184.333 337.467 183.9 337.6 183.5C337.733 183.1 337.967 182.767 338.3 182.5C338.567 182.167 338.9 181.9 339.3 181.7C339.7 181.567 340.133 181.5 340.6 181.5C341.067 181.5 341.533 181.6 342 181.8C342.4 182 342.733 182.3 343 182.7ZM344.9 182.4C345.433 181.733 346.167 181.4 347.1 181.4C347.9 181.4 348.533 181.633 349 182.1C349.467 182.5 349.7 183.167 349.7 184.1V188.1H348.7V187.3C348.033 187.9 347.267 188.2 346.4 188.2C346.067 188.2 345.767 188.133 345.5 188C345.233 187.933 345 187.8 344.8 187.6L344.4 187L344.3 186.4C344.3 185.733 344.567 185.233 345.1 184.9C345.633 184.5 346.433 184.267 347.5 184.2H348.7V184C348.7 183.333 348.567 182.9 348.3 182.7C348.033 182.433 347.633 182.3 347.1 182.3C346.433 182.3 345.867 182.533 345.4 183L344.9 182.4ZM348.8 185H347.8L346.5 185.1L345.8 185.4L345.4 185.8L345.3 186.3C345.3 186.567 345.433 186.833 345.7 187.1C345.967 187.3 346.3 187.4 346.7 187.4L347.4 187.3L348 186.9L348.4 186.6L348.6 186.2C348.733 186 348.8 185.733 348.8 185.4V185ZM351.7 180.6C351.967 180.2 352.3 179.867 352.7 179.6C353.167 179.333 353.633 179.2 354.1 179.2L355.1 179.4L355.9 179.9L356.5 180.7L356.7 181.7L356.5 182.5C356.5 182.7 356.4 182.933 356.2 183.2L355.8 183.8L355.2 184.3L354.4 185.1L354 185.5L353.5 186L353.1 186.6L352.7 187.2H356.4L356.5 187.1H356.7V188.1H351.7V187.4C351.967 186.733 352.3 186.133 352.7 185.6L353.9 184.4L354.6 183.8L355.1 183.2L355.5 182.6L355.6 182.2V181.1L355.2 180.6C355.067 180.4 354.9 180.267 354.7 180.2L354.1 180.1L353.4 180.2L352.9 180.4L352.6 180.8L352.5 181L352.4 181.2L351.7 180.6ZM362 180.3V179.5L362.1 178.9L362.5 178.7C362.7 178.7 362.867 178.767 363 178.9L363.1 179.6L362.7 181.3L362.3 182.3L361.6 182.1L361.9 181.1L362 180.3ZM359.6 180.3L359.5 179.5C359.5 179.233 359.567 179.033 359.7 178.9L360.1 178.7L360.5 178.9C360.633 179.033 360.7 179.267 360.7 179.6L360.3 181.3L359.9 182.3L359.1 182.1L359.5 181.1V180.3H359.6ZM368.9 187.7C368.9 188.433 368.4 189.333 367.4 190.4L366.9 189.9C367.167 189.7 367.367 189.467 367.5 189.2L367.8 188.5L367.7 188.2L367.4 188L367.2 187.7L367.1 187.4C367.1 187.133 367.167 186.933 367.3 186.8L367.9 186.6C368.167 186.6 368.4 186.7 368.6 186.9C368.8 187.1 368.9 187.367 368.9 187.7Z" fill="#0C60B2"/>
<path d="M349.3 196.5C349.3 196.9 349.2 197.267 349 197.6C348.733 197.933 348.4 198.2 348 198.4C348.467 198.533 348.833 198.8 349.1 199.2C349.367 199.6 349.5 200.067 349.5 200.6L349.3 201.6C349.233 201.933 349.067 202.2 348.8 202.4C348.533 202.667 348.233 202.867 347.9 203C347.567 203.133 347.2 203.2 346.8 203.2C345.933 203.2 345.2 202.867 344.6 202.2L345.3 201.2V201.5L345.5 201.7L345.7 201.9L346.1 202.1L346.8 202.3C347.067 202.3 347.3 202.233 347.5 202.1C347.767 202.033 347.967 201.9 348.1 201.7L348.5 201.2L348.6 200.5C348.6 199.967 348.4 199.567 348 199.3C347.667 198.967 347.167 198.8 346.5 198.8H346.1V198.1L347.1 198L347.9 197.6C348.1 197.467 348.233 197.3 348.3 197.1L348.4 196.4L348.3 195.9L348 195.5L347.5 195.2H346.9C346.3 195.2 345.8 195.4 345.4 195.8L344.9 195.2C345.433 194.533 346.1 194.2 346.9 194.2L347.9 194.4L348.6 194.9C348.867 195.1 349.033 195.333 349.1 195.6C349.233 195.867 349.3 196.167 349.3 196.5ZM356 195.4C356.267 195.733 356.467 196.2 356.6 196.8C356.8 197.4 356.9 198.067 356.9 198.8C356.9 199.533 356.8 200.2 356.6 200.8C356.467 201.267 356.267 201.7 356 202.1C355.733 202.433 355.433 202.7 355.1 202.9C354.767 203.1 354.433 203.2 354.1 203.2C353.7 203.2 353.367 203.067 353.1 202.8C352.7 202.6 352.367 202.3 352.1 201.9L351.5 200.5C351.367 199.967 351.3 199.367 351.3 198.7C351.3 198.033 351.367 197.433 351.5 196.9L352.1 195.5C352.367 195.1 352.7 194.767 353.1 194.5C353.367 194.3 353.7 194.2 354.1 194.2C354.767 194.2 355.4 194.6 356 195.4ZM355.5 196.2C355.3 195.867 355.067 195.6 354.8 195.4C354.6 195.2 354.367 195.1 354.1 195.1C353.833 195.1 353.6 195.167 353.4 195.3L352.8 196C352.6 196.333 352.467 196.7 352.4 197.1L352.2 198.5C352.2 199.167 352.267 199.733 352.4 200.2L355.4 196.2H355.5ZM355.8 197.2L352.8 201.1L353.4 202C353.667 202.2 353.933 202.3 354.2 202.3C354.4 202.3 354.633 202.2 354.9 202C355.1 201.867 355.267 201.667 355.4 201.4L355.8 200.4C355.933 199.933 356 199.433 356 198.9V197.9L355.8 197.2Z" fill="#E04D01"/>
</svg>
