<svg xmlns="http://www.w3.org/2000/svg" width="1200" height="600" fill="none"><path fill="#fff" d="M0 0h1200v600H0z"/><path fill="#69B241" stroke="#000" stroke-width="2" d="M1108 439.999a71.1 71.1 0 0 1 27.25 5.02 71.1 71.1 0 0 1 23.25 15.067 70.8 70.8 0 0 1 15.71 22.818 71 71 0 0 1 5.79 27.095 71 71 0 0 1-5.79 27.096 70.8 70.8 0 0 1-15.71 22.818 71.1 71.1 0 0 1-23.25 15.066 71 71 0 0 1-27.25 5.02H892a70.996 70.996 0 0 1-72-70 71 71 0 0 1 21.5-49.913 71 71 0 0 1 50.5-20.087z"/><path fill="#666" d="M947.566 410.151c0 4.651 3.709 7.995 8.436 7.995 2.569 0 5.092-.791 7.54-2.371v3.344c-3.633 2.112-10.002 2.553-13.756.395-2.934-1.672-5.29-5.062-5.366-9.363-.122-6.096 5.274-10.96 11.461-10.96 2.234 0 4.712.578 7.433 1.748v3.268c-2.478-1.413-4.91-2.128-7.281-2.128-4.651 0-8.467 3.481-8.467 8.072M973.057 408.653c-1.747.061-2.4.896-3.494 2.036v10.01h-2.764v-21.22h2.764v9.083c1.595-2.051 4.451-2.856 6.806-1.413 1.716 1.064 2.187 2.583 2.187 5.59v7.96h-2.765v-8.643c.046-1.853-.987-3.463-2.734-3.403M985.163 414.699c.061 2.659.425 3.95 2.841 3.95 1.321 0 2.43-.638 3.357-1.929v-9.995h2.764v13.974h-2.764v-1.777c-1.307 1.626-4.421 2.81-6.699 1.352-1.762-1.124-2.264-2.354-2.264-5.544v-8.005h2.765zM1006.89 412.739c-.04-2.567-.5-3.98-2.84-3.98-1.31 0-2.41.654-3.33 1.96v9.98h-2.822v-13.975h2.822v1.777c1.78-1.99 4.26-2.795 6.64-1.382 1.78 1.063 2.3 2.461 2.3 5.59v7.99h-2.77zM1022.64 406.724h3.3l-5.97 6.851 7.18 7.124h-3.7l-7.01-7.124zm-9.08-7.245h2.76v21.22h-2.76zM1039.77 410.151c0 4.651 3.7 7.995 8.43 7.995 2.57 0 5.09-.791 7.54-2.371v3.344c-3.63 2.112-10 2.553-13.76.395-2.93-1.672-5.28-5.062-5.36-9.363-.12-6.096 5.27-10.96 11.46-10.96 2.23 0 4.71.578 7.43 1.748v3.268c-2.47-1.413-4.91-2.128-7.28-2.128-4.65 0-8.46 3.481-8.46 8.072"/><path fill="#000" d="M875.378 499.673c-2.383 0-3.699 1.387-4.09 2.845l-1.813-1.423c1.315-2.24 3.662-3.591 6.187-3.591 3.627 0 6.436 2.774 6.436 6.223 0 3.2-2.275 5.441-3.911 6.97-1.6 1.493-4.161 3.698-6.01 6.934h9.281c.392.035.427-.427.854-.32v2.489h-13.015v-1.565c1.849-3.698 3.911-5.974 6.436-8.25 1.6-1.457 3.912-3.378 3.912-6.08 0-2.383-1.92-4.232-4.267-4.232M893.427 497.504c3.414 0 7.076 4.018 7.076 11.592 0 7.61-3.84 11.095-7.041 11.095-3.52 0-7.183-4.125-7.183-11.308 0-7.076 3.627-11.379 7.148-11.379m3.485 5.049c-.96-1.955-2.312-2.88-3.521-2.88-2.204 0-4.8 3.129-4.8 8.783 0 1.565.177 2.987.498 4.196zm.818 2.383-7.824 9.957c.961 1.956 2.347 3.022 3.663 3.022 1.956 0 4.623-2.347 4.623-8.534 0-1.707-.178-3.2-.462-4.445M936.286 502.161v-2.524l-15.042 7.93v1.706l15.149 8.855v-2.703l-12.446-6.969M918.199 522.5h21.3v1.7h-21.3zM969.078 497.611h2.489l-5.618 10.846 6.294 11.344h-2.81l-4.907-8.784-4.765 8.784h-2.702l6.045-11.308-5.939-10.882h2.667l4.659 8.428M1007.39 502.161v-2.524l-15.046 7.93v1.706l15.146 8.855v-2.703l-12.444-6.969M1032.85 505.114c-1.17-.249-2.45 2.311-2.45 3.84V519.8h-2.35v-16.251h2.35v1.601c.74-1.138 1.99-1.992 3.3-1.992a2.92 2.92 0 0 1 2.89 2.383c.96-2.312 4.51-3.414 6.18-1.067.75 1.067.64 2.454.64 3.805v11.557h-2.42v-11.557c.18-1.351-.14-3.414-1.49-3.236-1.81.213-2.56 2.418-2.59 4.018V519.8h-2.39v-11.308c.25-1.458-.39-3.591-1.67-3.378M1057.51 510.234c.07-2.951-.49-4.871-3.87-4.943-1.5 0-3.34.427-4.66 1.814l-1.25-1.636c1.53-1.564 3.6-2.276 5.8-2.276 3.91 0 6.44 2.454 6.44 6.543V519.8h-2.42v-1.778c-1.78 1.458-3.84 2.169-5.83 2.169-6.4-.107-7.4-7.325-1.74-9.246 2.24-.746 4.9-.711 7.53-.711m.11 1.956c-1.92.036-4.27-.142-5.94.249-2.03.498-2.88 1.814-2.88 2.987 0 1.458 1.25 2.809 3.42 2.809 2.13 0 3.69-1.28 4.26-1.92 1.39-1.636 1.1-2.311 1.14-4.125M1075.17 503.549h2.63l-5.26 7.894 5.97 8.357h-2.91l-4.48-6.33-4.23 6.33h-2.92l5.73-8.25-5.62-8.001h2.81l4.23 6.009M1084.48 497.611c.07.427-.32.533-.32.925v9.316l9.24-10.383c.93.213 1.75.178 2.78.178l-8.39 9.565 8.96 12.624c-1.75 0-3.17.107-3.17.107l-7.68-11.237-1.74 1.92v9.174h-2.67v-22.189zM1107.01 503.158c2.67 0 5.69 1.387 6.43 5.761.15.96.22 2.027.11 3.129h-11.56c.18 4.872 3.38 6.045 5.55 6.045 1.6 0 3.13-.64 4.2-1.813l1.42 1.387c-1.39 1.671-3.52 2.489-5.83 2.489-4.41 0-7.79-2.88-7.79-8.286 0-5.938 3.59-8.712 7.47-8.712m-4.91 6.899h8.93c.32-2.632-1.57-4.943-4.2-4.943-1.74 0-4.23 1.102-4.73 4.943M1117.73 522.325c.43.782.43 1.564 2.17 1.564 2.17 0 3.31-2.418 3.91-4.16l-6.58-16.18h3.17c0 .427-.21.675-.07 1.067l4.76 11.948c1.43-4.339 3.24-8.357 4.31-13.015h2.66c-2.02 6.187-4.87 11.948-6.68 18.1-1.03 3.52-5.94 5.938-9 2.951"/><path fill="#69B241" stroke="#000" stroke-width="2" d="M308 439.999a70.998 70.998 0 0 1 72 70 70.995 70.995 0 0 1-72 70H92a70.997 70.997 0 0 1-72-70 71 71 0 0 1 44.752-64.98A71 71 0 0 1 92 439.999z"/><path fill="#666" d="M148.166 410.151c0 4.651 3.709 7.995 8.436 7.995 2.569 0 5.092-.791 7.539-2.371v3.344c-3.633 2.112-10.001 2.553-13.756.395-2.933-1.672-5.289-5.062-5.365-9.363-.122-6.096 5.274-10.96 11.46-10.96 2.235 0 4.712.578 7.433 1.748v3.268c-2.477-1.413-4.909-2.128-7.281-2.128-4.651 0-8.466 3.481-8.466 8.072M173.657 408.653c-1.747.061-2.4.896-3.494 2.036v10.01h-2.765v-21.22h2.765v9.083c1.595-2.051 4.451-2.856 6.805-1.413 1.717 1.064 2.187 2.583 2.187 5.59v7.96h-2.764v-8.643c.045-1.853-.987-3.463-2.734-3.403M185.763 414.699c.06 2.659.425 3.95 2.84 3.95 1.322 0 2.431-.638 3.357-1.929v-9.995h2.765v13.974h-2.765v-1.777c-1.306 1.626-4.42 2.81-6.699 1.352-1.762-1.124-2.263-2.354-2.263-5.544v-8.005h2.765zM207.491 412.739c-.046-2.567-.502-3.98-2.841-3.98q-1.959 0-3.327 1.96v9.98h-2.825v-13.975h2.825v1.777c1.778-1.99 4.254-2.795 6.638-1.382 1.778 1.063 2.294 2.461 2.294 5.59v7.99h-2.764zM223.242 406.724h3.296l-5.97 6.851 7.185 7.124h-3.706l-7.003-7.124zm-9.084-7.245h2.765v21.22h-2.765zM244.819 399.344h2.143l9.5 21.356h-3.116l-2.827-6.293h-9.029l-2.675 6.293h-3.116zm4.454 12.357-3.42-7.691-3.177 7.691z"/><path fill="#000" d="M72.851 505.114c-1.173-.249-2.453 2.311-2.453 3.84V519.8H68.05v-16.251h2.347v1.601c.746-1.138 1.991-1.992 3.307-1.992a2.91 2.91 0 0 1 2.88 2.383c.96-2.312 4.516-3.414 6.188-1.067.746 1.067.64 2.454.64 3.805v11.557h-2.418v-11.557c.177-1.351-.143-3.414-1.494-3.236-1.814.213-2.56 2.418-2.596 4.018V519.8h-2.382v-11.308c.249-1.458-.391-3.591-1.672-3.378M88.268 503.549h6.507v14.189h3.805v2.062H88.055v-2.062h4.16v-12.126h-3.947zm5.299-7.076c1.03 0 1.813.818 1.813 1.813a1.83 1.83 0 0 1-1.13 1.692 1.83 1.83 0 0 1-2.393-.991 1.8 1.8 0 0 1-.14-.701c0-.995.818-1.813 1.85-1.813M112.042 505.398c-2.774.356-4.694 2.205-4.694 5.05v9.352h-2.631v-16.251h2.631v2.881c1.209-1.814 3.165-3.272 5.37-3.272 3.129 0 4.943 3.236 4.943 6.792v9.85h-2.525v-9.779c.32-1.956-.96-4.907-3.094-4.623M124.479 497.611c.071.427-.32.533-.32.925v9.316l9.246-10.383c.924.213 1.742.178 2.773.178l-8.392 9.565 8.961 12.624c-1.742 0-3.164.107-3.164.107l-7.681-11.237-1.743 1.92v9.174h-2.667v-22.189zM147.009 503.158c2.667 0 5.689 1.387 6.436 5.761.142.96.213 2.027.107 3.129h-11.557c.177 4.872 3.378 6.045 5.547 6.045 1.6 0 3.129-.64 4.196-1.813l1.422 1.387c-1.386 1.671-3.52 2.489-5.831 2.489-4.41 0-7.788-2.88-7.788-8.286 0-5.938 3.592-8.712 7.468-8.712m-4.908 6.899h8.926c.32-2.632-1.565-4.943-4.196-4.943-1.743 0-4.232 1.102-4.73 4.943M157.732 522.325c.427.782.427 1.564 2.169 1.564 2.169 0 3.307-2.418 3.912-4.16l-6.579-16.18h3.165c0 .427-.213.675-.071 1.067l4.765 11.948c1.422-4.339 3.236-8.357 4.303-13.015h2.667c-2.027 6.187-4.872 11.948-6.685 18.1-1.032 3.52-5.939 5.938-8.997 2.951M207.388 502.161v-2.524l-15.042 7.93v1.706l15.148 8.855v-2.703l-12.446-6.969M189.301 522.5h21.3v1.7h-21.3zM240.177 497.611h2.49l-5.619 10.846 6.294 11.344h-2.809l-4.907-8.784-4.765 8.784h-2.703l6.045-11.308-5.938-10.882h2.667l4.658 8.428M278.487 502.161v-2.524l-15.042 7.93v1.706l15.149 8.855v-2.703l-12.446-6.969M308.396 497.611v20.27h3.983v1.955h-10.455v-1.955h4.09v-17.176l-4.374 1.28-.605-1.387 5.69-2.987zM324.525 497.504c3.413 0 7.076 4.018 7.076 11.592 0 7.61-3.841 11.095-7.041 11.095-3.52 0-7.183-4.125-7.183-11.308 0-7.076 3.627-11.379 7.148-11.379m3.484 5.049c-.96-1.955-2.311-2.88-3.52-2.88-2.205 0-4.801 3.129-4.801 8.783 0 1.565.178 2.987.498 4.196zm.818 2.383-7.823 9.957c.96 1.956 2.347 3.022 3.663 3.022 1.956 0 4.623-2.347 4.623-8.534 0-1.707-.178-3.2-.463-4.445"/><path fill="#69B241" stroke="#000" stroke-width="2" d="M708 439.999a70.998 70.998 0 0 1 72 70 70.995 70.995 0 0 1-72 70H492a71.006 71.006 0 0 1-66.215-42.904A71 71 0 0 1 420 509.999a71 71 0 0 1 21.5-49.913 71 71 0 0 1 50.5-20.087z"/><path fill="#666" d="M549.766 410.151c0 4.651 3.708 7.995 8.436 7.995 2.568 0 5.092-.791 7.539-2.371v3.344c-3.633 2.112-10.002 2.553-13.756.395-2.934-1.672-5.29-5.062-5.366-9.363-.121-6.096 5.275-10.96 11.461-10.96 2.234 0 4.712.578 7.433 1.748v3.268c-2.478-1.413-4.91-2.128-7.281-2.128-4.651 0-8.466 3.481-8.466 8.072M575.256 408.653c-1.747.061-2.4.896-3.493 2.036v10.01h-2.765v-21.22h2.765v9.083c1.595-2.051 4.45-2.856 6.805-1.413 1.716 1.064 2.187 2.583 2.187 5.59v7.96h-2.764v-8.643c.045-1.853-.988-3.463-2.735-3.403M587.362 414.699c.061 2.659.426 3.95 2.841 3.95 1.321 0 2.43-.638 3.357-1.929v-9.995h2.764v13.974h-2.764v-1.777c-1.307 1.626-4.421 2.81-6.699 1.352-1.762-1.124-2.263-2.354-2.263-5.544v-8.005h2.764zM609.09 412.739c-.045-2.567-.501-3.98-2.84-3.98q-1.96 0-3.327 1.96v9.98h-2.825v-13.975h2.825v1.777c1.777-1.99 4.253-2.795 6.638-1.382 1.777 1.063 2.294 2.461 2.294 5.59v7.99h-2.765zM624.841 406.724h3.297l-5.97 6.851 7.185 7.124h-3.706l-7.003-7.124zm-9.083-7.245h2.764v21.22h-2.764zM649.195 409.467c2.766.471 5.076 2.432 5.076 5.442 0 2.523-1.398 4.058-3.283 4.985-1.079.532-2.432.806-4.058.806h-7.19v-21.234c3.223.106 7.509-.335 9.667.714 1.764.851 3.025 2.386 3.025 4.803 0 2.083-1.079 3.587-3.237 4.484m-4.393-.912c2.812.046 4.484-.957 4.484-3.329 0-2.036-1.292-3.055-3.891-3.055h-2.615v6.384zm4.134 3.101c-1.17-.486-4.21-.38-6.156-.395v6.733c1.9-.015 5.351.031 6.384-.395 1.551-.623 2.66-3.07 1.399-4.742-.396-.532-.943-.912-1.627-1.201"/><path fill="#000" d="M512.796 497.611v20.27h3.983v1.955h-10.454v-1.955h4.089v-17.176l-4.374 1.28-.604-1.387 5.689-2.987zM528.925 497.504c3.414 0 7.076 4.018 7.076 11.592 0 7.61-3.84 11.095-7.041 11.095-3.52 0-7.183-4.125-7.183-11.308 0-7.076 3.627-11.379 7.148-11.379m3.485 5.049c-.96-1.955-2.312-2.88-3.521-2.88-2.204 0-4.8 3.129-4.8 8.783 0 1.565.178 2.987.498 4.196zm.818 2.383-7.824 9.957c.961 1.956 2.347 3.022 3.663 3.022 1.956 0 4.623-2.347 4.623-8.534 0-1.707-.178-3.2-.462-4.445M571.888 502.161v-2.524l-15.042 7.93v1.706l15.148 8.855v-2.703l-12.446-6.969M553.801 522.5h21.3v1.7h-21.3zM604.578 497.611h2.489l-5.618 10.846 6.294 11.344h-2.81l-4.907-8.784-4.765 8.784h-2.702l6.045-11.308-5.939-10.882h2.667l4.659 8.428M642.987 502.161v-2.524l-15.042 7.93v1.706l15.149 8.855v-2.703l-12.446-6.969M670.878 499.673c-2.383 0-3.699 1.387-4.09 2.845l-1.813-1.423c1.315-2.24 3.662-3.591 6.187-3.591 3.627 0 6.436 2.774 6.436 6.223 0 3.2-2.275 5.441-3.911 6.97-1.6 1.493-4.161 3.698-6.01 6.934h9.281c.392.035.427-.427.854-.32v2.489h-13.015v-1.565c1.849-3.698 3.911-5.974 6.436-8.25 1.6-1.457 3.912-3.378 3.912-6.08 0-2.383-1.92-4.232-4.267-4.232M688.927 497.504c3.414 0 7.076 4.018 7.076 11.592 0 7.61-3.84 11.095-7.041 11.095-3.52 0-7.183-4.125-7.183-11.308 0-7.076 3.627-11.379 7.148-11.379m3.485 5.049c-.96-1.955-2.312-2.88-3.521-2.88-2.204 0-4.8 3.129-4.8 8.783 0 1.565.177 2.987.498 4.196zm.818 2.383-7.824 9.957c.961 1.956 2.347 3.022 3.663 3.022 1.956 0 4.623-2.347 4.623-8.534 0-1.707-.178-3.2-.462-4.445"/><path stroke="#000" stroke-width="2" d="M285 35a5 5 0 0 1 5-5h170a5 5 0 0 1 5 5v50a5 5 0 0 1-5 5H290a5 5 0 0 1-5-5z"/><path fill="#000" d="M302.272 63.19c0-2.426-1.12-3.795-3.422-3.484v-1.742c1.088-.031 1.711.187 2.675-.684 1.991-2.738-.715-6.471 2.271-9.053 1.804-1.587 3.796-1.183 6.098-1.245v1.773c-1.649.063-3.205-.248-4.2.405-1.182.747-1.245 2.27-1.245 2.893 0 .747.063 1.431.063 2.178.093 2.115-1.089 4.044-2.707 4.604 1.182.404 2.644 1.556 2.644 4.822 0 2.52-.622 4.418 1.183 5.818 1.026.809 2.551.466 4.231.529v1.742c-2.427-.062-4.48.373-5.974-.934-2.488-2.177-1.617-4.48-1.617-7.621M340.091 47.387h2.178l-4.915 9.488 5.506 9.924h-2.458l-4.293-7.684-4.168 7.684h-2.365l5.289-9.893-5.195-9.52h2.333l4.075 7.374M368.671 55.445c0 .964-.809 1.773-1.836 1.773-1.026 0-1.866-.778-1.866-1.773 0-.964.84-1.804 1.866-1.804s1.836.84 1.836 1.804m0 9.924c0 .965-.809 1.773-1.836 1.773-1.026 0-1.866-.777-1.866-1.773 0-.964.84-1.804 1.866-1.804s1.836.84 1.836 1.804M398.191 49.193c-2.084 0-3.236 1.213-3.578 2.488l-1.586-1.244c1.151-1.96 3.204-3.142 5.413-3.142 3.173 0 5.631 2.426 5.631 5.444 0 2.8-1.991 4.76-3.422 6.098-1.4 1.306-3.64 3.235-5.258 6.066h8.12c.342.031.373-.373.746-.28v2.178h-11.386v-1.369c1.618-3.235 3.422-5.226 5.631-7.218 1.4-1.275 3.422-2.955 3.422-5.32 0-2.084-1.68-3.701-3.733-3.701M409.498 47.42h9.831v1.96h-7.995l-.312 5.569c4.387-2.085 9.022.28 9.022 5.724 0 7.248-8.773 8.337-11.853 3.484l1.929-1.431c.28.187.094.467.218.716.093.217 1.493 1.804 3.578 1.804s3.92-1.618 3.92-4.604c0-5.071-5.165-5.911-7.622-2.8l-1.369-.56M448.151 58.835c-1.618-.591-2.8-2.489-2.706-4.604 0-.747.093-1.431.093-2.178 0-.622-.062-2.146-1.245-2.893-.995-.653-2.582-.342-4.231-.405v-1.773c2.303.062 4.356-.435 6.098 1.245 2.022 1.928 1.524 3.67 1.462 6.408 0 .747.062 1.898.809 2.645.933.902 1.618.653 2.707.684v1.742c-2.302-.311-3.422 1.058-3.422 3.484 0 3.142.871 5.445-1.618 7.622-1.493 1.307-3.578.871-6.004.934v-1.742c1.68-.063 3.235.28 4.262-.53 1.804-1.4 1.182-3.297 1.182-5.817 0-3.266 1.431-4.417 2.613-4.822"/><path stroke="#000" stroke-width="2" d="M505 35a5 5 0 0 1 5-5h170a5 5 0 0 1 5 5v50a5 5 0 0 1-5 5H510a5 5 0 0 1-5-5z"/><path fill="#000" d="M522.272 63.19c0-2.426-1.12-3.795-3.422-3.484v-1.742c1.088-.031 1.711.187 2.675-.684 1.991-2.738-.715-6.471 2.271-9.053 1.804-1.587 3.796-1.183 6.098-1.245v1.773c-1.649.063-3.205-.248-4.2.405-1.182.747-1.245 2.27-1.245 2.893 0 .747.063 1.431.063 2.178.093 2.115-1.089 4.044-2.707 4.604 1.182.404 2.644 1.556 2.644 4.822 0 2.52-.622 4.418 1.183 5.818 1.026.809 2.551.466 4.231.529v1.742c-2.427-.062-4.48.373-5.974-.934-2.488-2.177-1.617-4.48-1.617-7.621M560.091 47.387h2.178l-4.915 9.488 5.506 9.924h-2.458l-4.293-7.684-4.168 7.684h-2.365l5.289-9.893-5.195-9.52h2.333l4.075 7.374M588.671 55.445c0 .964-.809 1.773-1.836 1.773-1.026 0-1.866-.778-1.866-1.773 0-.964.84-1.804 1.866-1.804s1.836.84 1.836 1.804m0 9.924c0 .965-.809 1.773-1.836 1.773-1.026 0-1.866-.777-1.866-1.773 0-.964.84-1.804 1.866-1.804s1.836.84 1.836 1.804M618.191 49.19c-2.084 0-3.236 1.214-3.578 2.49l-1.586-1.245c1.151-1.96 3.204-3.142 5.413-3.142 3.173 0 5.631 2.426 5.631 5.444 0 2.8-1.991 4.76-3.422 6.098-1.4 1.306-3.64 3.235-5.258 6.066h8.12c.342.031.373-.373.746-.28V66.8h-11.386V65.43c1.618-3.235 3.422-5.226 5.631-7.217 1.4-1.276 3.422-2.956 3.422-5.32 0-2.085-1.68-3.702-3.733-3.702M637.867 50.623c-.591-.903-.654-1.494-2.707-1.494-1.4 0-4.604.871-4.729 7.498 2.831-4.387 9.427-2.271 9.427 4.013 0 6.47-7.124 8.742-10.111 3.92-2.178-3.547-1.96-8.338-.622-12.538 1.649-5.195 6.626-6.19 10.266-3.048zm-.125 10.11c0-5.91-5.195-5.537-7.186-1.928-.249 3.608 1.493 6.377 3.858 6.377 1.648 0 3.328-1.431 3.328-4.449M668.151 58.835c-1.618-.591-2.8-2.489-2.706-4.604 0-.747.093-1.431.093-2.178 0-.622-.062-2.146-1.245-2.893-.995-.653-2.582-.342-4.231-.405v-1.773c2.303.062 4.356-.435 6.098 1.245 2.022 1.928 1.524 3.67 1.462 6.408 0 .747.062 1.898.809 2.645.933.902 1.618.653 2.707.684v1.742c-2.302-.311-3.422 1.058-3.422 3.484 0 3.142.871 5.445-1.618 7.622-1.493 1.307-3.578.871-6.004.934v-1.742c1.68-.063 3.235.28 4.262-.53 1.804-1.4 1.182-3.297 1.182-5.817 0-3.266 1.431-4.417 2.613-4.822"/><path stroke="#000" stroke-width="2" d="M725 35a5 5 0 0 1 5-5h170a5 5 0 0 1 5 5v50a5 5 0 0 1-5 5H730a5 5 0 0 1-5-5z"/><path fill="#000" d="M742.272 63.19c0-2.426-1.12-3.795-3.422-3.484v-1.742c1.088-.031 1.711.187 2.675-.684 1.991-2.738-.715-6.471 2.271-9.053 1.804-1.587 3.796-1.183 6.098-1.245v1.773c-1.649.063-3.205-.248-4.2.405-1.182.747-1.245 2.27-1.245 2.893 0 .747.063 1.431.063 2.178.093 2.115-1.089 4.044-2.707 4.604 1.182.404 2.644 1.556 2.644 4.822 0 2.52-.622 4.418 1.183 5.818 1.026.809 2.551.466 4.231.529v1.742c-2.427-.062-4.48.373-5.974-.934-2.488-2.177-1.617-4.48-1.617-7.621M780.091 47.387h2.178l-4.915 9.488 5.506 9.924h-2.458l-4.293-7.684-4.168 7.684h-2.365l5.289-9.893-5.195-9.52h2.333l4.075 7.374M808.671 55.445c0 .964-.809 1.773-1.836 1.773-1.026 0-1.866-.778-1.866-1.773 0-.964.84-1.804 1.866-1.804s1.836.84 1.836 1.804m0 9.924c0 .965-.809 1.773-1.836 1.773-1.026 0-1.866-.777-1.866-1.773 0-.964.84-1.804 1.866-1.804s1.836.84 1.836 1.804M838.191 49.193c-2.084 0-3.236 1.213-3.578 2.488l-1.586-1.244c1.151-1.96 3.204-3.142 5.413-3.142 3.173 0 5.631 2.426 5.631 5.444 0 2.8-1.991 4.76-3.422 6.098-1.4 1.306-3.64 3.235-5.258 6.066h8.12c.342.031.373-.373.746-.28v2.178h-11.386v-1.369c1.618-3.235 3.422-5.226 5.631-7.218 1.4-1.275 3.422-2.955 3.422-5.32 0-2.084-1.68-3.701-3.733-3.701M859.64 48.633a172 172 0 0 0-6.782 18.169H850.4a229 229 0 0 1 6.533-17.329h-8.275V47.42h10.982zM888.151 58.835c-1.618-.591-2.8-2.489-2.706-4.604 0-.747.093-1.431.093-2.178 0-.622-.062-2.146-1.245-2.893-.995-.653-2.582-.342-4.231-.405v-1.773c2.303.062 4.356-.435 6.098 1.245 2.022 1.928 1.524 3.67 1.462 6.408 0 .747.062 1.898.809 2.645.933.902 1.618.653 2.707.684v1.742c-2.302-.311-3.422 1.058-3.422 3.484 0 3.142.871 5.445-1.618 7.622-1.493 1.307-3.578.871-6.004.934v-1.742c1.68-.063 3.235.28 4.262-.53 1.804-1.4 1.182-3.297 1.182-5.817 0-3.266 1.431-4.417 2.613-4.822"/><path stroke="#3AA6DD" stroke-width="4" d="M375 90v185c0 1.326.527 2.598 1.464 3.536A5 5 0 0 0 380 280h535c1.326 0 2.598.527 3.536 1.464A5 5 0 0 1 920 285v75"/><path fill="#3AA6DD" stroke="#3AA6DD" stroke-width="4" d="m920 359.999-4.6-14.3h9.2z"/><path stroke="#9B0D28" stroke-width="4" d="M595 90v145c0 1.326.527 2.598 1.464 3.536A5 5 0 0 0 600 240h395c1.326 0 2.598.527 3.536 1.464A5 5 0 0 1 1000 245v115"/><path fill="#9B0D28" stroke="#9B0D28" stroke-width="4" d="m1000 359.999-4.6-14.3h9.2z"/><path stroke="#FF8F80" stroke-width="4" d="M815 90v100c0 1.326.527 2.598 1.464 3.536A5 5 0 0 0 820 195h255c1.33 0 2.6.527 3.54 1.464A5.03 5.03 0 0 1 1080 200v160"/><path fill="#FF8F80" stroke="#FF8F80" stroke-width="4" d="m1080 359.999-4.6-14.3h9.2z"/></svg>