<svg width="24" height="28" viewBox="0 0 24 28" fill="none" xmlns="http://www.w3.org/2000/svg">
<g clip-path="url(#clip0_823_443)">
<path d="M23.7709 8.24941C23.7709 7.79818 23.678 7.39399 23.4827 7.04618C23.2874 6.70776 23.0084 6.42577 22.627 6.20016C19.465 4.35772 16.2937 2.51529 13.1317 0.672857C12.2761 0.174649 11.4484 0.193449 10.6021 0.701057C9.34656 1.45307 3.04112 5.10033 1.15321 6.20016C0.381302 6.65133 0 7.34696 0 8.23996C0 11.953 0 15.6567 0 19.3697C0 19.8116 0.0930005 20.2064 0.279002 20.5448C0.474303 20.8926 0.762603 21.184 1.15321 21.419C3.03182 22.5188 9.33728 26.1661 10.6021 26.9181C11.4484 27.4257 12.2761 27.4445 13.1317 26.9463C16.2937 25.1038 19.465 23.2614 22.627 21.419C23.0177 21.1934 23.306 20.902 23.5012 20.5448C23.6873 20.2064 23.7803 19.8116 23.7803 19.3697C23.7709 19.3697 23.7709 11.953 23.7709 8.24941Z" fill="#A179DC"/>
<path d="M11.923 13.7671L0.279297 20.5446C0.474598 20.8924 0.762898 21.1838 1.1535 21.4188C3.03211 22.5187 9.33757 26.1659 10.6024 26.9179C11.4487 27.4255 12.2764 27.4443 13.132 26.9461C16.294 25.1037 19.4653 23.2613 22.6273 21.4188C23.0179 21.1932 23.3063 20.9018 23.5016 20.5446L11.923 13.7671Z" fill="#280068"/>
<path d="M23.7711 8.24961C23.7711 7.79839 23.6781 7.3942 23.4828 7.04639L11.9229 13.7769L23.4921 20.5544C23.6781 20.216 23.7711 19.8212 23.7711 19.3794C23.7711 19.37 23.7711 11.9533 23.7711 8.24961Z" fill="#390091"/>
<path d="M18.7771 11.2388V12.5078H20.0325V11.2388H20.6557V12.5078H21.9111V13.1376H20.6557V14.4066H21.9111V15.0364H20.6557V16.3055H20.0325V15.0364H18.7771V16.3055H18.1539V15.0364H16.8984V14.4066H18.1539V13.1376H16.8984V12.5078H18.1539V11.2388H18.7771ZM20.0325 13.1376H18.7771V14.4066H20.0325V13.1376Z" fill="white"/>
<path d="M11.9508 4.87451C15.2151 4.87451 18.0702 6.66991 19.6047 9.33957L19.5861 9.31138L15.7452 11.5486C14.9919 10.2514 13.5969 9.3772 12.0066 9.35836H11.9601C9.53279 9.35836 7.56116 11.3512 7.56116 13.8047C7.56116 14.6036 7.77503 15.3651 8.13775 16.0137C8.90036 17.3485 10.3232 18.2509 11.9601 18.2509C13.6062 18.2509 15.0384 17.3391 15.7917 15.9855L15.7731 16.0137L19.614 18.2603C18.0981 20.9018 15.2895 22.6972 12.0531 22.7254H11.9508C8.66788 22.7254 5.81274 20.9206 4.28753 18.2415C3.54353 16.9349 3.11572 15.4121 3.11572 13.7953C3.11572 8.879 7.06825 4.87451 11.9508 4.87451Z" fill="white"/>
</g>
<defs>
<clipPath id="clip0_823_443">
<rect width="24" height="27" fill="white" transform="translate(0 0.30957)"/>
</clipPath>
</defs>
</svg>
